{
    "mood": "angry",
    "instruments": {
        "Acoustic Grand Piano": [
            {
                "start_time": 6.4454545,
                "end_time": 6.7909091,
                "pitch": 53,
                "velocity": 64,
                "duration": 0.3454545,
                "tempo": 120.0
            },
            {
                "start_time": 6.825,
                "end_time": 7.1977273,
                "pitch": 54,
                "velocity": 64,
                "duration": 0.3727273,
                "tempo": 120.0
            },
            {
                "start_time": 7.2363636,
                "end_time": 7.6,
                "pitch": 56,
                "velocity": 64,
                "duration": 0.3636364,
                "tempo": 120.0
            },
            {
                "start_time": 7.6363636,
                "end_time": 8.0045455,
                "pitch": 54,
                "velocity": 64,
                "duration": 0.3681818,
                "tempo": 120.0
            },
            {
                "start_time": 8.0409091,
                "end_time": 9.2181818,
                "pitch": 54,
                "velocity": 64,
                "duration": 1.1772727,
                "tempo": 120.0
            },
            {
                "start_time": 9.2545455,
                "end_time": 9.6136364,
                "pitch": 49,
                "velocity": 64,
                "duration": 0.3590909,
                "tempo": 120.0
            },
            {
                "start_time": 9.6477273,
                "end_time": 10.0227273,
                "pitch": 49,
                "velocity": 64,
                "duration": 0.375,
                "tempo": 120.0
            },
            {
                "start_time": 10.0590909,
                "end_time": 10.4159091,
                "pitch": 49,
                "velocity": 64,
                "duration": 0.3568182,
                "tempo": 120.0
            },
            {
                "start_time": 10.45,
                "end_time": 10.8181818,
                "pitch": 49,
                "velocity": 64,
                "duration": 0.3681818,
                "tempo": 120.0
            },
            {
                "start_time": 10.8545455,
                "end_time": 11.2227273,
                "pitch": 47,
                "velocity": 64,
                "duration": 0.3681818,
                "tempo": 120.0
            },
            {
                "start_time": 11.2568182,
                "end_time": 12.4454545,
                "pitch": 44,
                "velocity": 64,
                "duration": 1.1886364,
                "tempo": 120.0
            },
            {
                "start_time": 7.6363636,
                "end_time": 12.4818182,
                "pitch": 8,
                "velocity": 64,
                "duration": 4.8454545,
                "tempo": 120.0
            },
            {
                "start_time": 12.4818182,
                "end_time": 13.2477273,
                "pitch": 54,
                "velocity": 64,
                "duration": 0.7659091,
                "tempo": 120.0
            },
            {
                "start_time": 13.2863636,
                "end_time": 13.6431818,
                "pitch": 54,
                "velocity": 64,
                "duration": 0.3568182,
                "tempo": 120.0
            },
            {
                "start_time": 7.2363636,
                "end_time": 13.6772727,
                "pitch": 66,
                "velocity": 64,
                "duration": 6.4409091,
                "tempo": 120.0
            },
            {
                "start_time": 13.6772727,
                "end_time": 14.0454545,
                "pitch": 56,
                "velocity": 64,
                "duration": 0.3681818,
                "tempo": 120.0
            },
            {
                "start_time": 12.4818182,
                "end_time": 14.0818182,
                "pitch": 8,
                "velocity": 64,
                "duration": 1.6,
                "tempo": 120.0
            },
            {
                "start_time": 14.0818182,
                "end_time": 14.4454545,
                "pitch": 54,
                "velocity": 64,
                "duration": 0.3636364,
                "tempo": 120.0
            },
            {
                "start_time": 14.4818182,
                "end_time": 15.675,
                "pitch": 54,
                "velocity": 64,
                "duration": 1.1931818,
                "tempo": 120.0
            },
            {
                "start_time": 9.2545455,
                "end_time": 15.7113636,
                "pitch": 53,
                "velocity": 64,
                "duration": 6.4568182,
                "tempo": 120.0
            },
            {
                "start_time": 15.7113636,
                "end_time": 16.4772727,
                "pitch": 49,
                "velocity": 64,
                "duration": 0.7659091,
                "tempo": 120.0
            },
            {
                "start_time": 16.5159091,
                "end_time": 16.8636364,
                "pitch": 49,
                "velocity": 64,
                "duration": 0.3477273,
                "tempo": 120.0
            },
            {
                "start_time": 16.8977273,
                "end_time": 17.2636364,
                "pitch": 49,
                "velocity": 64,
                "duration": 0.3659091,
                "tempo": 120.0
            },
            {
                "start_time": 17.2977273,
                "end_time": 17.6659091,
                "pitch": 54,
                "velocity": 64,
                "duration": 0.3681818,
                "tempo": 120.0
            },
            {
                "start_time": 17.7022727,
                "end_time": 19.2931818,
                "pitch": 54,
                "velocity": 64,
                "duration": 1.5909091,
                "tempo": 120.0
            },
            {
                "start_time": 15.7113636,
                "end_time": 19.6772727,
                "pitch": 53,
                "velocity": 64,
                "duration": 3.9659091,
                "tempo": 120.0
            },
            {
                "start_time": 19.3295455,
                "end_time": 19.6772727,
                "pitch": 53,
                "velocity": 64,
                "duration": 0.3477273,
                "tempo": 120.0
            },
            {
                "start_time": 19.7113636,
                "end_time": 20.0863636,
                "pitch": 54,
                "velocity": 64,
                "duration": 0.375,
                "tempo": 120.0
            },
            {
                "start_time": 13.6772727,
                "end_time": 20.1227273,
                "pitch": 66,
                "velocity": 64,
                "duration": 6.4454545,
                "tempo": 120.0
            },
            {
                "start_time": 20.1227273,
                "end_time": 20.4863636,
                "pitch": 56,
                "velocity": 64,
                "duration": 0.3636364,
                "tempo": 120.0
            },
            {
                "start_time": 14.0818182,
                "end_time": 20.5227273,
                "pitch": 8,
                "velocity": 64,
                "duration": 6.4409091,
                "tempo": 120.0
            },
            {
                "start_time": 20.5227273,
                "end_time": 20.8909091,
                "pitch": 54,
                "velocity": 64,
                "duration": 0.3681818,
                "tempo": 120.0
            },
            {
                "start_time": 20.9272727,
                "end_time": 22.1022727,
                "pitch": 54,
                "velocity": 64,
                "duration": 1.175,
                "tempo": 120.0
            },
            {
                "start_time": 17.2977273,
                "end_time": 22.4977273,
                "pitch": 49,
                "velocity": 64,
                "duration": 5.2,
                "tempo": 120.0
            },
            {
                "start_time": 22.1386364,
                "end_time": 22.4977273,
                "pitch": 49,
                "velocity": 64,
                "duration": 0.3590909,
                "tempo": 120.0
            },
            {
                "start_time": 22.5318182,
                "end_time": 22.9,
                "pitch": 49,
                "velocity": 64,
                "duration": 0.3681818,
                "tempo": 120.0
            },
            {
                "start_time": 22.9340909,
                "end_time": 23.3,
                "pitch": 49,
                "velocity": 64,
                "duration": 0.3659091,
                "tempo": 120.0
            },
            {
                "start_time": 23.3340909,
                "end_time": 23.7,
                "pitch": 49,
                "velocity": 64,
                "duration": 0.3659091,
                "tempo": 120.0
            },
            {
                "start_time": 10.8545455,
                "end_time": 23.7363636,
                "pitch": 52,
                "velocity": 64,
                "duration": 12.8818182,
                "tempo": 120.0
            },
            {
                "start_time": 11.2568182,
                "end_time": 24.1022727,
                "pitch": 47,
                "velocity": 64,
                "duration": 12.8454545,
                "tempo": 120.0
            },
            {
                "start_time": 23.7363636,
                "end_time": 24.1022727,
                "pitch": 47,
                "velocity": 64,
                "duration": 0.3659091,
                "tempo": 120.0
            },
            {
                "start_time": 24.1386364,
                "end_time": 25.3181818,
                "pitch": 44,
                "velocity": 64,
                "duration": 1.1795455,
                "tempo": 120.0
            },
            {
                "start_time": 20.5227273,
                "end_time": 25.3545455,
                "pitch": 8,
                "velocity": 64,
                "duration": 4.8318182,
                "tempo": 120.0
            },
            {
                "start_time": 25.3545455,
                "end_time": 26.1318182,
                "pitch": 54,
                "velocity": 64,
                "duration": 0.7772727,
                "tempo": 120.0
            },
            {
                "start_time": 26.1681818,
                "end_time": 26.5181818,
                "pitch": 54,
                "velocity": 64,
                "duration": 0.35,
                "tempo": 120.0
            },
            {
                "start_time": 20.1227273,
                "end_time": 26.55,
                "pitch": 66,
                "velocity": 64,
                "duration": 6.4272727,
                "tempo": 120.0
            },
            {
                "start_time": 26.55,
                "end_time": 26.9181818,
                "pitch": 56,
                "velocity": 64,
                "duration": 0.3681818,
                "tempo": 120.0
            },
            {
                "start_time": 25.3545455,
                "end_time": 26.9545455,
                "pitch": 8,
                "velocity": 64,
                "duration": 1.6,
                "tempo": 120.0
            },
            {
                "start_time": 26.9545455,
                "end_time": 27.3295455,
                "pitch": 54,
                "velocity": 64,
                "duration": 0.375,
                "tempo": 120.0
            },
            {
                "start_time": 27.3659091,
                "end_time": 28.5431818,
                "pitch": 54,
                "velocity": 64,
                "duration": 1.1772727,
                "tempo": 120.0
            },
            {
                "start_time": 26.55,
                "end_time": 28.5795455,
                "pitch": 66,
                "velocity": 64,
                "duration": 2.0295455,
                "tempo": 120.0
            },
            {
                "start_time": 28.5795455,
                "end_time": 28.9272727,
                "pitch": 56,
                "velocity": 64,
                "duration": 0.3477273,
                "tempo": 120.0
            },
            {
                "start_time": 28.9613636,
                "end_time": 29.3363636,
                "pitch": 59,
                "velocity": 64,
                "duration": 0.375,
                "tempo": 120.0
            },
            {
                "start_time": 29.3727273,
                "end_time": 29.7363636,
                "pitch": 59,
                "velocity": 64,
                "duration": 0.3636364,
                "tempo": 120.0
            },
            {
                "start_time": 29.7727273,
                "end_time": 30.1386364,
                "pitch": 65,
                "velocity": 64,
                "duration": 0.3659091,
                "tempo": 120.0
            },
            {
                "start_time": 30.1727273,
                "end_time": 30.5409091,
                "pitch": 61,
                "velocity": 64,
                "duration": 0.3681818,
                "tempo": 120.0
            },
            {
                "start_time": 30.5772727,
                "end_time": 32.1659091,
                "pitch": 61,
                "velocity": 64,
                "duration": 1.5886364,
                "tempo": 120.0
            },
            {
                "start_time": 135.2318182,
                "end_time": 135.5772727,
                "pitch": 54,
                "velocity": 64,
                "duration": 0.3454545,
                "tempo": 120.0
            },
            {
                "start_time": 135.6136364,
                "end_time": 135.9795455,
                "pitch": 54,
                "velocity": 64,
                "duration": 0.3659091,
                "tempo": 120.0
            },
            {
                "start_time": 28.5795455,
                "end_time": 136.0159091,
                "pitch": 66,
                "velocity": 64,
                "duration": 107.4363636,
                "tempo": 120.0
            },
            {
                "start_time": 28.9613636,
                "end_time": 136.0613636,
                "pitch": 56,
                "velocity": 64,
                "duration": 107.1,
                "tempo": 120.0
            },
            {
                "start_time": 136.0159091,
                "end_time": 136.0613636,
                "pitch": 56,
                "velocity": 64,
                "duration": 0.0454545,
                "tempo": 120.0
            }
        ],
        "Church Organ": [
            {
                "start_time": 32.8977273,
                "end_time": 33.2681818,
                "pitch": 66,
                "velocity": 40,
                "duration": 0.3704545,
                "tempo": 120.0
            },
            {
                "start_time": 33.3022727,
                "end_time": 33.6681818,
                "pitch": 69,
                "velocity": 40,
                "duration": 0.3659091,
                "tempo": 120.0
            },
            {
                "start_time": 33.7,
                "end_time": 34.0727273,
                "pitch": 74,
                "velocity": 40,
                "duration": 0.3727273,
                "tempo": 120.0
            },
            {
                "start_time": 34.1068182,
                "end_time": 36.0840909,
                "pitch": 74,
                "velocity": 40,
                "duration": 1.9772727,
                "tempo": 120.0
            },
            {
                "start_time": 36.1181818,
                "end_time": 37.0954545,
                "pitch": 76,
                "velocity": 40,
                "duration": 0.9772727,
                "tempo": 120.0
            },
            {
                "start_time": 37.1295455,
                "end_time": 37.1931818,
                "pitch": 74,
                "velocity": 40,
                "duration": 0.0636364,
                "tempo": 120.0
            },
            {
                "start_time": 37.1295455,
                "end_time": 37.2909091,
                "pitch": 76,
                "velocity": 40,
                "duration": 0.1613636,
                "tempo": 120.0
            },
            {
                "start_time": 37.2272727,
                "end_time": 37.2909091,
                "pitch": 76,
                "velocity": 40,
                "duration": 0.0636364,
                "tempo": 120.0
            },
            {
                "start_time": 37.2272727,
                "end_time": 37.4886364,
                "pitch": 74,
                "velocity": 40,
                "duration": 0.2613636,
                "tempo": 120.0
            },
            {
                "start_time": 37.3272727,
                "end_time": 37.4886364,
                "pitch": 74,
                "velocity": 40,
                "duration": 0.1613636,
                "tempo": 120.0
            },
            {
                "start_time": 37.5227273,
                "end_time": 37.5909091,
                "pitch": 74,
                "velocity": 40,
                "duration": 0.0681818,
                "tempo": 120.0
            },
            {
                "start_time": 36.1181818,
                "end_time": 37.6909091,
                "pitch": 73,
                "velocity": 40,
                "duration": 1.5727273,
                "tempo": 120.0
            },
            {
                "start_time": 37.625,
                "end_time": 37.6909091,
                "pitch": 73,
                "velocity": 40,
                "duration": 0.0659091,
                "tempo": 120.0
            },
            {
                "start_time": 37.725,
                "end_time": 37.8931818,
                "pitch": 74,
                "velocity": 40,
                "duration": 0.1681818,
                "tempo": 120.0
            },
            {
                "start_time": 37.3272727,
                "end_time": 37.925,
                "pitch": 76,
                "velocity": 40,
                "duration": 0.5977273,
                "tempo": 120.0
            },
            {
                "start_time": 37.925,
                "end_time": 37.9931818,
                "pitch": 71,
                "velocity": 40,
                "duration": 0.0681818,
                "tempo": 120.0
            },
            {
                "start_time": 38.0272727,
                "end_time": 38.0931818,
                "pitch": 73,
                "velocity": 40,
                "duration": 0.0659091,
                "tempo": 120.0
            },
            {
                "start_time": 37.925,
                "end_time": 38.1272727,
                "pitch": 76,
                "velocity": 40,
                "duration": 0.2022727,
                "tempo": 120.0
            },
            {
                "start_time": 38.1272727,
                "end_time": 38.2931818,
                "pitch": 71,
                "velocity": 40,
                "duration": 0.1659091,
                "tempo": 120.0
            },
            {
                "start_time": 38.3295455,
                "end_time": 38.3977273,
                "pitch": 71,
                "velocity": 40,
                "duration": 0.0681818,
                "tempo": 120.0
            },
            {
                "start_time": 38.4318182,
                "end_time": 38.5,
                "pitch": 69,
                "velocity": 40,
                "duration": 0.0681818,
                "tempo": 120.0
            },
            {
                "start_time": 38.5363636,
                "end_time": 38.7045455,
                "pitch": 71,
                "velocity": 40,
                "duration": 0.1681818,
                "tempo": 120.0
            },
            {
                "start_time": 38.7386364,
                "end_time": 38.8045455,
                "pitch": 69,
                "velocity": 40,
                "duration": 0.0659091,
                "tempo": 120.0
            },
            {
                "start_time": 38.8386364,
                "end_time": 38.9045455,
                "pitch": 68,
                "velocity": 40,
                "duration": 0.0659091,
                "tempo": 120.0
            },
            {
                "start_time": 38.9386364,
                "end_time": 39.3,
                "pitch": 69,
                "velocity": 40,
                "duration": 0.3613636,
                "tempo": 120.0
            },
            {
                "start_time": 32.8977273,
                "end_time": 39.7045455,
                "pitch": 61,
                "velocity": 40,
                "duration": 6.8068182,
                "tempo": 120.0
            },
            {
                "start_time": 39.3340909,
                "end_time": 39.7045455,
                "pitch": 61,
                "velocity": 40,
                "duration": 0.3704545,
                "tempo": 120.0
            },
            {
                "start_time": 39.7386364,
                "end_time": 40.1090909,
                "pitch": 61,
                "velocity": 40,
                "duration": 0.3704545,
                "tempo": 120.0
            },
            {
                "start_time": 40.1431818,
                "end_time": 40.5090909,
                "pitch": 59,
                "velocity": 40,
                "duration": 0.3659091,
                "tempo": 120.0
            },
            {
                "start_time": 33.7,
                "end_time": 40.5431818,
                "pitch": 44,
                "velocity": 40,
                "duration": 6.8431818,
                "tempo": 120.0
            },
            {
                "start_time": 40.5431818,
                "end_time": 41.9136364,
                "pitch": 61,
                "velocity": 40,
                "duration": 1.3704545,
                "tempo": 120.0
            },
            {
                "start_time": 41.9477273,
                "end_time": 42.0136364,
                "pitch": 61,
                "velocity": 40,
                "duration": 0.0659091,
                "tempo": 120.0
            },
            {
                "start_time": 42.0477273,
                "end_time": 42.1159091,
                "pitch": 62,
                "velocity": 40,
                "duration": 0.0681818,
                "tempo": 120.0
            },
            {
                "start_time": 42.15,
                "end_time": 42.5159091,
                "pitch": 64,
                "velocity": 40,
                "duration": 0.3659091,
                "tempo": 120.0
            },
            {
                "start_time": 42.55,
                "end_time": 43.5181818,
                "pitch": 62,
                "velocity": 40,
                "duration": 0.9681818,
                "tempo": 120.0
            },
            {
                "start_time": 43.5522727,
                "end_time": 43.6204545,
                "pitch": 61,
                "velocity": 40,
                "duration": 0.0681818,
                "tempo": 120.0
            },
            {
                "start_time": 43.6522727,
                "end_time": 43.7204545,
                "pitch": 62,
                "velocity": 40,
                "duration": 0.0681818,
                "tempo": 120.0
            },
            {
                "start_time": 43.7545455,
                "end_time": 44.1272727,
                "pitch": 64,
                "velocity": 40,
                "duration": 0.3727273,
                "tempo": 120.0
            },
            {
                "start_time": 44.1613636,
                "end_time": 45.3363636,
                "pitch": 62,
                "velocity": 40,
                "duration": 1.175,
                "tempo": 120.0
            },
            {
                "start_time": 45.7636364,
                "end_time": 46.1295455,
                "pitch": 64,
                "velocity": 40,
                "duration": 0.3659091,
                "tempo": 120.0
            },
            {
                "start_time": 46.1613636,
                "end_time": 46.1636364,
                "pitch": 78,
                "velocity": 40,
                "duration": 0.0022727,
                "tempo": 120.0
            },
            {
                "start_time": 46.1636364,
                "end_time": 46.5295455,
                "pitch": 68,
                "velocity": 40,
                "duration": 0.3659091,
                "tempo": 120.0
            },
            {
                "start_time": 46.5636364,
                "end_time": 46.9363636,
                "pitch": 73,
                "velocity": 40,
                "duration": 0.3727273,
                "tempo": 120.0
            },
            {
                "start_time": 38.1272727,
                "end_time": 46.9704545,
                "pitch": 76,
                "velocity": 40,
                "duration": 8.8431818,
                "tempo": 120.0
            },
            {
                "start_time": 46.9704545,
                "end_time": 48.95,
                "pitch": 71,
                "velocity": 40,
                "duration": 1.9795455,
                "tempo": 120.0
            },
            {
                "start_time": 38.0272727,
                "end_time": 48.9840909,
                "pitch": 56,
                "velocity": 40,
                "duration": 10.9568182,
                "tempo": 120.0
            },
            {
                "start_time": 46.9704545,
                "end_time": 49.9613636,
                "pitch": 76,
                "velocity": 40,
                "duration": 2.9909091,
                "tempo": 120.0
            },
            {
                "start_time": 48.9840909,
                "end_time": 49.9613636,
                "pitch": 76,
                "velocity": 40,
                "duration": 0.9772727,
                "tempo": 120.0
            },
            {
                "start_time": 49.9931818,
                "end_time": 50.0590909,
                "pitch": 74,
                "velocity": 40,
                "duration": 0.0659091,
                "tempo": 120.0
            },
            {
                "start_time": 49.9931818,
                "end_time": 50.1568182,
                "pitch": 76,
                "velocity": 40,
                "duration": 0.1636364,
                "tempo": 120.0
            },
            {
                "start_time": 50.0931818,
                "end_time": 50.1568182,
                "pitch": 76,
                "velocity": 40,
                "duration": 0.0636364,
                "tempo": 120.0
            },
            {
                "start_time": 50.0931818,
                "end_time": 50.3545455,
                "pitch": 74,
                "velocity": 40,
                "duration": 0.2613636,
                "tempo": 120.0
            },
            {
                "start_time": 50.1909091,
                "end_time": 50.3545455,
                "pitch": 74,
                "velocity": 40,
                "duration": 0.1636364,
                "tempo": 120.0
            },
            {
                "start_time": 50.3886364,
                "end_time": 50.4545455,
                "pitch": 74,
                "velocity": 40,
                "duration": 0.0659091,
                "tempo": 120.0
            },
            {
                "start_time": 50.4909091,
                "end_time": 50.5568182,
                "pitch": 73,
                "velocity": 40,
                "duration": 0.0659091,
                "tempo": 120.0
            },
            {
                "start_time": 50.5909091,
                "end_time": 50.7568182,
                "pitch": 74,
                "velocity": 40,
                "duration": 0.1659091,
                "tempo": 120.0
            },
            {
                "start_time": 50.1909091,
                "end_time": 50.7909091,
                "pitch": 76,
                "velocity": 40,
                "duration": 0.6,
                "tempo": 120.0
            },
            {
                "start_time": 50.7909091,
                "end_time": 50.8568182,
                "pitch": 71,
                "velocity": 40,
                "duration": 0.0659091,
                "tempo": 120.0
            },
            {
                "start_time": 48.9840909,
                "end_time": 50.8909091,
                "pitch": 56,
                "velocity": 40,
                "duration": 1.9068182,
                "tempo": 120.0
            },
            {
                "start_time": 50.8909091,
                "end_time": 50.9568182,
                "pitch": 73,
                "velocity": 40,
                "duration": 0.0659091,
                "tempo": 120.0
            },
            {
                "start_time": 50.7909091,
                "end_time": 50.9931818,
                "pitch": 76,
                "velocity": 40,
                "duration": 0.2022727,
                "tempo": 120.0
            },
            {
                "start_time": 50.9931818,
                "end_time": 51.1568182,
                "pitch": 71,
                "velocity": 40,
                "duration": 0.1636364,
                "tempo": 120.0
            },
            {
                "start_time": 51.1909091,
                "end_time": 51.2590909,
                "pitch": 71,
                "velocity": 40,
                "duration": 0.0681818,
                "tempo": 120.0
            },
            {
                "start_time": 51.2931818,
                "end_time": 51.3590909,
                "pitch": 69,
                "velocity": 40,
                "duration": 0.0659091,
                "tempo": 120.0
            },
            {
                "start_time": 51.3931818,
                "end_time": 51.5590909,
                "pitch": 71,
                "velocity": 40,
                "duration": 0.1659091,
                "tempo": 120.0
            },
            {
                "start_time": 51.5931818,
                "end_time": 51.6590909,
                "pitch": 69,
                "velocity": 40,
                "duration": 0.0659091,
                "tempo": 120.0
            },
            {
                "start_time": 51.6931818,
                "end_time": 52.1590909,
                "pitch": 68,
                "velocity": 40,
                "duration": 0.4659091,
                "tempo": 120.0
            },
            {
                "start_time": 52.1931818,
                "end_time": 52.5613636,
                "pitch": 66,
                "velocity": 40,
                "duration": 0.3681818,
                "tempo": 120.0
            },
            {
                "start_time": 52.5954545,
                "end_time": 52.9636364,
                "pitch": 72,
                "velocity": 40,
                "duration": 0.3681818,
                "tempo": 120.0
            },
            {
                "start_time": 50.9931818,
                "end_time": 52.9954545,
                "pitch": 76,
                "velocity": 40,
                "duration": 2.0022727,
                "tempo": 120.0
            },
            {
                "start_time": 52.9954545,
                "end_time": 53.3636364,
                "pitch": 69,
                "velocity": 40,
                "duration": 0.3681818,
                "tempo": 120.0
            },
            {
                "start_time": 40.5431818,
                "end_time": 53.3977273,
                "pitch": 44,
                "velocity": 40,
                "duration": 12.8545455,
                "tempo": 120.0
            },
            {
                "start_time": 53.3977273,
                "end_time": 53.7636364,
                "pitch": 75,
                "velocity": 40,
                "duration": 0.3659091,
                "tempo": 120.0
            },
            {
                "start_time": 53.7977273,
                "end_time": 54.1659091,
                "pitch": 72,
                "velocity": 40,
                "duration": 0.3681818,
                "tempo": 120.0
            },
            {
                "start_time": 52.5954545,
                "end_time": 54.5681818,
                "pitch": 78,
                "velocity": 40,
                "duration": 1.9727273,
                "tempo": 120.0
            },
            {
                "start_time": 54.1977273,
                "end_time": 54.5681818,
                "pitch": 78,
                "velocity": 40,
                "duration": 0.3704545,
                "tempo": 120.0
            },
            {
                "start_time": 53.7977273,
                "end_time": 55.3795455,
                "pitch": 75,
                "velocity": 40,
                "duration": 1.5818182,
                "tempo": 120.0
            },
            {
                "start_time": 54.6,
                "end_time": 55.3795455,
                "pitch": 75,
                "velocity": 40,
                "duration": 0.7795455,
                "tempo": 120.0
            },
            {
                "start_time": 54.6,
                "end_time": 55.775,
                "pitch": 78,
                "velocity": 40,
                "duration": 1.175,
                "tempo": 120.0
            },
            {
                "start_time": 55.4136364,
                "end_time": 55.775,
                "pitch": 78,
                "velocity": 40,
                "duration": 0.3613636,
                "tempo": 120.0
            },
            {
                "start_time": 54.1977273,
                "end_time": 56.1795455,
                "pitch": 72,
                "velocity": 40,
                "duration": 1.9818182,
                "tempo": 120.0
            },
            {
                "start_time": 55.8090909,
                "end_time": 56.1795455,
                "pitch": 72,
                "velocity": 40,
                "duration": 0.3704545,
                "tempo": 120.0
            },
            {
                "start_time": 55.4136364,
                "end_time": 56.5840909,
                "pitch": 75,
                "velocity": 40,
                "duration": 1.1704545,
                "tempo": 120.0
            },
            {
                "start_time": 56.2136364,
                "end_time": 56.5840909,
                "pitch": 75,
                "velocity": 40,
                "duration": 0.3704545,
                "tempo": 120.0
            },
            {
                "start_time": 56.6181818,
                "end_time": 56.9863636,
                "pitch": 69,
                "velocity": 40,
                "duration": 0.3681818,
                "tempo": 120.0
            },
            {
                "start_time": 53.3977273,
                "end_time": 57.0181818,
                "pitch": 44,
                "velocity": 40,
                "duration": 3.6204545,
                "tempo": 120.0
            },
            {
                "start_time": 56.2136364,
                "end_time": 57.3863636,
                "pitch": 72,
                "velocity": 40,
                "duration": 1.1727273,
                "tempo": 120.0
            },
            {
                "start_time": 57.0181818,
                "end_time": 57.3863636,
                "pitch": 72,
                "velocity": 40,
                "duration": 0.3681818,
                "tempo": 120.0
            },
            {
                "start_time": 57.4181818,
                "end_time": 57.7863636,
                "pitch": 66,
                "velocity": 40,
                "duration": 0.3681818,
                "tempo": 120.0
            },
            {
                "start_time": 33.3022727,
                "end_time": 57.8204545,
                "pitch": 79,
                "velocity": 40,
                "duration": 24.5181818,
                "tempo": 120.0
            },
            {
                "start_time": 57.8204545,
                "end_time": 58.1886364,
                "pitch": 69,
                "velocity": 40,
                "duration": 0.3681818,
                "tempo": 120.0
            },
            {
                "start_time": 58.2227273,
                "end_time": 59.6,
                "pitch": 81,
                "velocity": 40,
                "duration": 1.3772727,
                "tempo": 120.0
            },
            {
                "start_time": 46.5636364,
                "end_time": 59.6340909,
                "pitch": 33,
                "velocity": 40,
                "duration": 13.0704545,
                "tempo": 120.0
            },
            {
                "start_time": 55.8090909,
                "end_time": 59.7318182,
                "pitch": 78,
                "velocity": 40,
                "duration": 3.9227273,
                "tempo": 120.0
            },
            {
                "start_time": 59.6340909,
                "end_time": 59.7318182,
                "pitch": 78,
                "velocity": 40,
                "duration": 0.0977273,
                "tempo": 120.0
            },
            {
                "start_time": 59.7318182,
                "end_time": 59.7977273,
                "pitch": 80,
                "velocity": 40,
                "duration": 0.0659091,
                "tempo": 120.0
            },
            {
                "start_time": 59.6340909,
                "end_time": 59.8318182,
                "pitch": 33,
                "velocity": 40,
                "duration": 0.1977273,
                "tempo": 120.0
            },
            {
                "start_time": 59.8318182,
                "end_time": 60.1977273,
                "pitch": 78,
                "velocity": 40,
                "duration": 0.3659091,
                "tempo": 120.0
            },
            {
                "start_time": 60.2318182,
                "end_time": 60.6045455,
                "pitch": 78,
                "velocity": 40,
                "duration": 0.3727273,
                "tempo": 120.0
            },
            {
                "start_time": 52.9954545,
                "end_time": 61.0090909,
                "pitch": 76,
                "velocity": 40,
                "duration": 8.0136364,
                "tempo": 120.0
            },
            {
                "start_time": 60.6409091,
                "end_time": 61.0090909,
                "pitch": 76,
                "velocity": 40,
                "duration": 0.3681818,
                "tempo": 120.0
            },
            {
                "start_time": 56.6181818,
                "end_time": 61.0431818,
                "pitch": 77,
                "velocity": 40,
                "duration": 4.425,
                "tempo": 120.0
            },
            {
                "start_time": 61.0431818,
                "end_time": 61.4113636,
                "pitch": 71,
                "velocity": 40,
                "duration": 0.3681818,
                "tempo": 120.0
            },
            {
                "start_time": 50.8909091,
                "end_time": 61.4431818,
                "pitch": 56,
                "velocity": 40,
                "duration": 10.5522727,
                "tempo": 120.0
            },
            {
                "start_time": 61.4431818,
                "end_time": 62.825,
                "pitch": 73,
                "velocity": 40,
                "duration": 1.3818182,
                "tempo": 120.0
            },
            {
                "start_time": 62.8590909,
                "end_time": 63.0204545,
                "pitch": 75,
                "velocity": 40,
                "duration": 0.1613636,
                "tempo": 120.0
            },
            {
                "start_time": 63.0545455,
                "end_time": 63.4181818,
                "pitch": 76,
                "velocity": 40,
                "duration": 0.3636364,
                "tempo": 120.0
            },
            {
                "start_time": 61.0431818,
                "end_time": 63.4522727,
                "pitch": 77,
                "velocity": 40,
                "duration": 2.4090909,
                "tempo": 120.0
            },
            {
                "start_time": 63.4522727,
                "end_time": 63.8204545,
                "pitch": 71,
                "velocity": 40,
                "duration": 0.3681818,
                "tempo": 120.0
            },
            {
                "start_time": 57.0181818,
                "end_time": 63.8545455,
                "pitch": 44,
                "velocity": 40,
                "duration": 6.8363636,
                "tempo": 120.0
            },
            {
                "start_time": 63.8545455,
                "end_time": 64.2227273,
                "pitch": 66,
                "velocity": 40,
                "duration": 0.3681818,
                "tempo": 120.0
            },
            {
                "start_time": 64.2568182,
                "end_time": 64.8931818,
                "pitch": 63,
                "velocity": 40,
                "duration": 0.6363636,
                "tempo": 120.0
            },
            {
                "start_time": 64.9272727,
                "end_time": 65.1681818,
                "pitch": 63,
                "velocity": 40,
                "duration": 0.2409091,
                "tempo": 120.0
            },
            {
                "start_time": 65.2022727,
                "end_time": 65.4295455,
                "pitch": 68,
                "velocity": 40,
                "duration": 0.2272727,
                "tempo": 120.0
            },
            {
                "start_time": 59.8318182,
                "end_time": 65.4636364,
                "pitch": 33,
                "velocity": 40,
                "duration": 5.6318182,
                "tempo": 120.0
            },
            {
                "start_time": 65.4636364,
                "end_time": 66.5068182,
                "pitch": 75,
                "velocity": 40,
                "duration": 1.0431818,
                "tempo": 120.0
            },
            {
                "start_time": 66.5386364,
                "end_time": 66.7704545,
                "pitch": 75,
                "velocity": 40,
                "duration": 0.2318182,
                "tempo": 120.0
            },
            {
                "start_time": 66.8022727,
                "end_time": 67.0363636,
                "pitch": 80,
                "velocity": 40,
                "duration": 0.2340909,
                "tempo": 120.0
            },
            {
                "start_time": 65.4636364,
                "end_time": 67.0704545,
                "pitch": 33,
                "velocity": 40,
                "duration": 1.6068182,
                "tempo": 120.0
            },
            {
                "start_time": 65.2022727,
                "end_time": 67.3090909,
                "pitch": 78,
                "velocity": 40,
                "duration": 2.1068182,
                "tempo": 120.0
            },
            {
                "start_time": 67.0704545,
                "end_time": 67.3090909,
                "pitch": 78,
                "velocity": 40,
                "duration": 0.2386364,
                "tempo": 120.0
            },
            {
                "start_time": 67.3431818,
                "end_time": 67.5840909,
                "pitch": 75,
                "velocity": 40,
                "duration": 0.2409091,
                "tempo": 120.0
            },
            {
                "start_time": 63.4522727,
                "end_time": 67.6159091,
                "pitch": 77,
                "velocity": 40,
                "duration": 4.1636364,
                "tempo": 120.0
            },
            {
                "start_time": 67.6159091,
                "end_time": 68.1181818,
                "pitch": 71,
                "velocity": 40,
                "duration": 0.5022727,
                "tempo": 120.0
            },
            {
                "start_time": 63.8545455,
                "end_time": 68.15,
                "pitch": 44,
                "velocity": 40,
                "duration": 4.2954545,
                "tempo": 120.0
            },
            {
                "start_time": 68.15,
                "end_time": 68.3863636,
                "pitch": 63,
                "velocity": 40,
                "duration": 0.2363636,
                "tempo": 120.0
            },
            {
                "start_time": 68.4204545,
                "end_time": 68.6477273,
                "pitch": 63,
                "velocity": 40,
                "duration": 0.2272727,
                "tempo": 120.0
            },
            {
                "start_time": 68.6818182,
                "end_time": 69.8613636,
                "pitch": 76,
                "velocity": 40,
                "duration": 1.1795455,
                "tempo": 120.0
            },
            {
                "start_time": 67.6159091,
                "end_time": 69.8954545,
                "pitch": 77,
                "velocity": 40,
                "duration": 2.2795455,
                "tempo": 120.0
            },
            {
                "start_time": 69.8954545,
                "end_time": 70.6659091,
                "pitch": 71,
                "velocity": 40,
                "duration": 0.7704545,
                "tempo": 120.0
            },
            {
                "start_time": 70.7,
                "end_time": 71.0681818,
                "pitch": 71,
                "velocity": 40,
                "duration": 0.3681818,
                "tempo": 120.0
            },
            {
                "start_time": 71.1022727,
                "end_time": 71.3363636,
                "pitch": 69,
                "velocity": 40,
                "duration": 0.2340909,
                "tempo": 120.0
            },
            {
                "start_time": 67.0704545,
                "end_time": 71.3681818,
                "pitch": 33,
                "velocity": 40,
                "duration": 4.2977273,
                "tempo": 120.0
            },
            {
                "start_time": 71.3681818,
                "end_time": 71.6045455,
                "pitch": 75,
                "velocity": 40,
                "duration": 0.2363636,
                "tempo": 120.0
            },
            {
                "start_time": 71.6386364,
                "end_time": 71.8727273,
                "pitch": 75,
                "velocity": 40,
                "duration": 0.2340909,
                "tempo": 120.0
            },
            {
                "start_time": 67.3431818,
                "end_time": 71.9045455,
                "pitch": 78,
                "velocity": 40,
                "duration": 4.5613636,
                "tempo": 120.0
            },
            {
                "start_time": 71.9045455,
                "end_time": 72.1386364,
                "pitch": 68,
                "velocity": 40,
                "duration": 0.2340909,
                "tempo": 120.0
            },
            {
                "start_time": 71.3681818,
                "end_time": 72.1727273,
                "pitch": 33,
                "velocity": 40,
                "duration": 0.8045455,
                "tempo": 120.0
            },
            {
                "start_time": 72.1727273,
                "end_time": 72.4090909,
                "pitch": 75,
                "velocity": 40,
                "duration": 0.2363636,
                "tempo": 120.0
            },
            {
                "start_time": 72.4409091,
                "end_time": 72.6772727,
                "pitch": 75,
                "velocity": 40,
                "duration": 0.2363636,
                "tempo": 120.0
            },
            {
                "start_time": 71.9045455,
                "end_time": 72.7113636,
                "pitch": 78,
                "velocity": 40,
                "duration": 0.8068182,
                "tempo": 120.0
            },
            {
                "start_time": 72.7113636,
                "end_time": 72.9477273,
                "pitch": 68,
                "velocity": 40,
                "duration": 0.2363636,
                "tempo": 120.0
            },
            {
                "start_time": 72.1727273,
                "end_time": 72.9818182,
                "pitch": 33,
                "velocity": 40,
                "duration": 0.8090909,
                "tempo": 120.0
            },
            {
                "start_time": 72.9818182,
                "end_time": 73.225,
                "pitch": 75,
                "velocity": 40,
                "duration": 0.2431818,
                "tempo": 120.0
            },
            {
                "start_time": 73.2568182,
                "end_time": 73.4840909,
                "pitch": 75,
                "velocity": 40,
                "duration": 0.2272727,
                "tempo": 120.0
            },
            {
                "start_time": 72.7113636,
                "end_time": 73.5181818,
                "pitch": 78,
                "velocity": 40,
                "duration": 0.8068182,
                "tempo": 120.0
            },
            {
                "start_time": 73.5181818,
                "end_time": 73.75,
                "pitch": 69,
                "velocity": 40,
                "duration": 0.2318182,
                "tempo": 120.0
            },
            {
                "start_time": 68.15,
                "end_time": 73.7818182,
                "pitch": 44,
                "velocity": 40,
                "duration": 5.6318182,
                "tempo": 120.0
            },
            {
                "start_time": 62.8590909,
                "end_time": 74.0181818,
                "pitch": 73,
                "velocity": 40,
                "duration": 11.1590909,
                "tempo": 120.0
            },
            {
                "start_time": 73.7818182,
                "end_time": 74.0181818,
                "pitch": 73,
                "velocity": 40,
                "duration": 0.2363636,
                "tempo": 120.0
            },
            {
                "start_time": 74.05,
                "end_time": 74.8295455,
                "pitch": 75,
                "velocity": 40,
                "duration": 0.7795455,
                "tempo": 120.0
            },
            {
                "start_time": 74.8613636,
                "end_time": 75.3681818,
                "pitch": 75,
                "velocity": 40,
                "duration": 0.5068182,
                "tempo": 120.0
            },
            {
                "start_time": 74.05,
                "end_time": 76.1022727,
                "pitch": 73,
                "velocity": 40,
                "duration": 2.0522727,
                "tempo": 120.0
            },
            {
                "start_time": 75.4022727,
                "end_time": 76.1022727,
                "pitch": 73,
                "velocity": 40,
                "duration": 0.7,
                "tempo": 120.0
            },
            {
                "start_time": 76.1363636,
                "end_time": 76.7045455,
                "pitch": 75,
                "velocity": 40,
                "duration": 0.5681818,
                "tempo": 120.0
            },
            {
                "start_time": 76.7386364,
                "end_time": 77.1068182,
                "pitch": 75,
                "velocity": 40,
                "duration": 0.3681818,
                "tempo": 120.0
            },
            {
                "start_time": 75.4022727,
                "end_time": 77.5113636,
                "pitch": 76,
                "velocity": 40,
                "duration": 2.1090909,
                "tempo": 120.0
            },
            {
                "start_time": 77.1409091,
                "end_time": 77.5113636,
                "pitch": 76,
                "velocity": 40,
                "duration": 0.3704545,
                "tempo": 120.0
            },
            {
                "start_time": 59.7318182,
                "end_time": 77.5454545,
                "pitch": 91,
                "velocity": 40,
                "duration": 17.8136364,
                "tempo": 120.0
            },
            {
                "start_time": 77.5454545,
                "end_time": 78.9159091,
                "pitch": 80,
                "velocity": 40,
                "duration": 1.3704545,
                "tempo": 120.0
            },
            {
                "start_time": 72.9818182,
                "end_time": 78.95,
                "pitch": 33,
                "velocity": 40,
                "duration": 5.9681818,
                "tempo": 120.0
            },
            {
                "start_time": 73.5181818,
                "end_time": 79.1181818,
                "pitch": 78,
                "velocity": 40,
                "duration": 5.6,
                "tempo": 120.0
            },
            {
                "start_time": 78.95,
                "end_time": 79.1181818,
                "pitch": 78,
                "velocity": 40,
                "duration": 0.1681818,
                "tempo": 120.0
            },
            {
                "start_time": 79.1522727,
                "end_time": 80.3272727,
                "pitch": 76,
                "velocity": 40,
                "duration": 1.175,
                "tempo": 120.0
            },
            {
                "start_time": 80.3590909,
                "end_time": 80.5931818,
                "pitch": 81,
                "velocity": 40,
                "duration": 0.2340909,
                "tempo": 120.0
            },
            {
                "start_time": 80.6272727,
                "end_time": 80.7272727,
                "pitch": 83,
                "velocity": 40,
                "duration": 0.1,
                "tempo": 120.0
            },
            {
                "start_time": 80.7613636,
                "end_time": 81.3318182,
                "pitch": 81,
                "velocity": 40,
                "duration": 0.5704545,
                "tempo": 120.0
            },
            {
                "start_time": 78.95,
                "end_time": 81.3659091,
                "pitch": 33,
                "velocity": 40,
                "duration": 2.4159091,
                "tempo": 120.0
            },
            {
                "start_time": 81.3659091,
                "end_time": 81.5318182,
                "pitch": 78,
                "velocity": 40,
                "duration": 0.1659091,
                "tempo": 120.0
            },
            {
                "start_time": 81.5659091,
                "end_time": 81.9340909,
                "pitch": 76,
                "velocity": 40,
                "duration": 0.3681818,
                "tempo": 120.0
            },
            {
                "start_time": 81.9681818,
                "end_time": 82.6068182,
                "pitch": 87,
                "velocity": 40,
                "duration": 0.6386364,
                "tempo": 120.0
            },
            {
                "start_time": 80.3590909,
                "end_time": 82.6431818,
                "pitch": 89,
                "velocity": 40,
                "duration": 2.2840909,
                "tempo": 120.0
            },
            {
                "start_time": 82.6409091,
                "end_time": 82.6431818,
                "pitch": 89,
                "velocity": 40,
                "duration": 0.0022727,
                "tempo": 120.0
            },
            {
                "start_time": 82.6431818,
                "end_time": 82.8840909,
                "pitch": 83,
                "velocity": 40,
                "duration": 0.2409091,
                "tempo": 120.0
            },
            {
                "start_time": 82.9159091,
                "end_time": 83.1522727,
                "pitch": 83,
                "velocity": 40,
                "duration": 0.2363636,
                "tempo": 120.0
            },
            {
                "start_time": 73.7818182,
                "end_time": 83.1863636,
                "pitch": 44,
                "velocity": 40,
                "duration": 9.4045455,
                "tempo": 120.0
            },
            {
                "start_time": 83.1863636,
                "end_time": 83.4204545,
                "pitch": 75,
                "velocity": 40,
                "duration": 0.2340909,
                "tempo": 120.0
            },
            {
                "start_time": 69.8954545,
                "end_time": 83.4522727,
                "pitch": 77,
                "velocity": 40,
                "duration": 13.5568182,
                "tempo": 120.0
            },
            {
                "start_time": 83.4522727,
                "end_time": 83.6886364,
                "pitch": 71,
                "velocity": 40,
                "duration": 0.2363636,
                "tempo": 120.0
            },
            {
                "start_time": 83.7204545,
                "end_time": 83.9545455,
                "pitch": 71,
                "velocity": 40,
                "duration": 0.2340909,
                "tempo": 120.0
            },
            {
                "start_time": 83.9886364,
                "end_time": 85.5613636,
                "pitch": 69,
                "velocity": 40,
                "duration": 1.5727273,
                "tempo": 120.0
            },
            {
                "start_time": 81.3659091,
                "end_time": 85.5954545,
                "pitch": 33,
                "velocity": 40,
                "duration": 4.2295455,
                "tempo": 120.0
            },
            {
                "start_time": 76.1363636,
                "end_time": 86.3681818,
                "pitch": 73,
                "velocity": 40,
                "duration": 10.2318182,
                "tempo": 120.0
            },
            {
                "start_time": 85.5954545,
                "end_time": 86.3681818,
                "pitch": 73,
                "velocity": 40,
                "duration": 0.7727273,
                "tempo": 120.0
            },
            {
                "start_time": 86.4022727,
                "end_time": 87.1704545,
                "pitch": 75,
                "velocity": 40,
                "duration": 0.7681818,
                "tempo": 120.0
            },
            {
                "start_time": 87.2045455,
                "end_time": 90.3954545,
                "pitch": 75,
                "velocity": 40,
                "duration": 3.1909091,
                "tempo": 120.0
            },
            {
                "start_time": 90.4318182,
                "end_time": 92.0045455,
                "pitch": 68,
                "velocity": 40,
                "duration": 1.5727273,
                "tempo": 120.0
            },
            {
                "start_time": 85.5954545,
                "end_time": 92.0386364,
                "pitch": 33,
                "velocity": 40,
                "duration": 6.4431818,
                "tempo": 120.0
            },
            {
                "start_time": 86.4022727,
                "end_time": 92.8113636,
                "pitch": 73,
                "velocity": 40,
                "duration": 6.4090909,
                "tempo": 120.0
            },
            {
                "start_time": 92.0386364,
                "end_time": 92.8113636,
                "pitch": 73,
                "velocity": 40,
                "duration": 0.7727273,
                "tempo": 120.0
            },
            {
                "start_time": 92.8454545,
                "end_time": 93.6181818,
                "pitch": 75,
                "velocity": 40,
                "duration": 0.7727273,
                "tempo": 120.0
            },
            {
                "start_time": 93.6522727,
                "end_time": 96.8340909,
                "pitch": 75,
                "velocity": 40,
                "duration": 3.1818182,
                "tempo": 120.0
            },
            {
                "start_time": 90.4318182,
                "end_time": 96.8704545,
                "pitch": 78,
                "velocity": 40,
                "duration": 6.4386364,
                "tempo": 120.0
            },
            {
                "start_time": 96.8704545,
                "end_time": 98.4477273,
                "pitch": 69,
                "velocity": 40,
                "duration": 1.5772727,
                "tempo": 120.0
            },
            {
                "start_time": 83.1863636,
                "end_time": 98.4840909,
                "pitch": 44,
                "velocity": 40,
                "duration": 15.2977273,
                "tempo": 120.0
            },
            {
                "start_time": 92.8454545,
                "end_time": 99.2568182,
                "pitch": 73,
                "velocity": 40,
                "duration": 6.4113636,
                "tempo": 120.0
            },
            {
                "start_time": 98.4840909,
                "end_time": 99.2568182,
                "pitch": 73,
                "velocity": 40,
                "duration": 0.7727273,
                "tempo": 120.0
            },
            {
                "start_time": 99.2909091,
                "end_time": 100.0568182,
                "pitch": 75,
                "velocity": 40,
                "duration": 0.7659091,
                "tempo": 120.0
            },
            {
                "start_time": 100.0909091,
                "end_time": 101.6681818,
                "pitch": 75,
                "velocity": 40,
                "duration": 1.5772727,
                "tempo": 120.0
            },
            {
                "start_time": 99.2909091,
                "end_time": 102.4704545,
                "pitch": 73,
                "velocity": 40,
                "duration": 3.1795455,
                "tempo": 120.0
            },
            {
                "start_time": 101.7022727,
                "end_time": 102.4704545,
                "pitch": 73,
                "velocity": 40,
                "duration": 0.7681818,
                "tempo": 120.0
            },
            {
                "start_time": 101.7022727,
                "end_time": 103.0727273,
                "pitch": 76,
                "velocity": 40,
                "duration": 1.3704545,
                "tempo": 120.0
            },
            {
                "start_time": 102.5045455,
                "end_time": 103.0727273,
                "pitch": 76,
                "velocity": 40,
                "duration": 0.5681818,
                "tempo": 120.0
            },
            {
                "start_time": 103.1068182,
                "end_time": 104.6863636,
                "pitch": 88,
                "velocity": 64,
                "duration": 1.5795455,
                "tempo": 120.0
            },
            {
                "start_time": 66.8022727,
                "end_time": 104.7204545,
                "pitch": 90,
                "velocity": 40,
                "duration": 37.9181818,
                "tempo": 120.0
            },
            {
                "start_time": 104.7204545,
                "end_time": 106.3022727,
                "pitch": 83,
                "velocity": 64,
                "duration": 1.5818182,
                "tempo": 120.0
            },
            {
                "start_time": 106.3363636,
                "end_time": 107.9113636,
                "pitch": 80,
                "velocity": 64,
                "duration": 1.575,
                "tempo": 120.0
            },
            {
                "start_time": 92.0386364,
                "end_time": 107.9454545,
                "pitch": 33,
                "velocity": 40,
                "duration": 15.9068182,
                "tempo": 120.0
            },
            {
                "start_time": 107.9454545,
                "end_time": 111.1386364,
                "pitch": 75,
                "velocity": 64,
                "duration": 3.1931818,
                "tempo": 120.0
            }
        ],
        "Flute": [
            {
                "start_time": 110.0613636,
                "end_time": 113.2409091,
                "pitch": 72,
                "velocity": 40,
                "duration": 3.1795455,
                "tempo": 120.0
            },
            {
                "start_time": 113.275,
                "end_time": 116.4590909,
                "pitch": 73,
                "velocity": 40,
                "duration": 3.1840909,
                "tempo": 120.0
            },
            {
                "start_time": 116.4931818,
                "end_time": 119.6795455,
                "pitch": 72,
                "velocity": 40,
                "duration": 3.1863636,
                "tempo": 120.0
            },
            {
                "start_time": 119.7136364,
                "end_time": 122.9068182,
                "pitch": 72,
                "velocity": 40,
                "duration": 3.1931818,
                "tempo": 120.0
            },
            {
                "start_time": 122.9409091,
                "end_time": 126.1113636,
                "pitch": 73,
                "velocity": 40,
                "duration": 3.1704545,
                "tempo": 120.0
            },
            {
                "start_time": 126.1454545,
                "end_time": 129.3386364,
                "pitch": 73,
                "velocity": 40,
                "duration": 3.1931818,
                "tempo": 120.0
            },
            {
                "start_time": 116.4931818,
                "end_time": 129.3727273,
                "pitch": 74,
                "velocity": 40,
                "duration": 12.8795455,
                "tempo": 120.0
            },
            {
                "start_time": 129.3727273,
                "end_time": 132.5613636,
                "pitch": 72,
                "velocity": 40,
                "duration": 3.1886364,
                "tempo": 120.0
            },
            {
                "start_time": 132.5954545,
                "end_time": 135.1931818,
                "pitch": 72,
                "velocity": 40,
                "duration": 2.5977273,
                "tempo": 120.0
            }
        ],
        "French Horn": [
            {
                "start_time": 0.0022727,
                "end_time": 0.3363636,
                "pitch": 37,
                "velocity": 101,
                "duration": 0.3340909,
                "tempo": 120.0
            },
            {
                "start_time": 0.4045455,
                "end_time": 0.7454545,
                "pitch": 37,
                "velocity": 64,
                "duration": 0.3409091,
                "tempo": 120.0
            },
            {
                "start_time": 0.8159091,
                "end_time": 1.1431818,
                "pitch": 37,
                "velocity": 64,
                "duration": 0.3272727,
                "tempo": 120.0
            },
            {
                "start_time": 1.2090909,
                "end_time": 1.55,
                "pitch": 37,
                "velocity": 64,
                "duration": 0.3409091,
                "tempo": 120.0
            },
            {
                "start_time": 1.6181818,
                "end_time": 1.9522727,
                "pitch": 37,
                "velocity": 80,
                "duration": 0.3340909,
                "tempo": 120.0
            },
            {
                "start_time": 2.0204545,
                "end_time": 2.3477273,
                "pitch": 37,
                "velocity": 64,
                "duration": 0.3272727,
                "tempo": 120.0
            },
            {
                "start_time": 2.4136364,
                "end_time": 2.7454545,
                "pitch": 37,
                "velocity": 64,
                "duration": 0.3318182,
                "tempo": 120.0
            },
            {
                "start_time": 2.8136364,
                "end_time": 3.1545455,
                "pitch": 37,
                "velocity": 64,
                "duration": 0.3409091,
                "tempo": 120.0
            },
            {
                "start_time": 3.225,
                "end_time": 3.5522727,
                "pitch": 37,
                "velocity": 101,
                "duration": 0.3272727,
                "tempo": 120.0
            },
            {
                "start_time": 3.6181818,
                "end_time": 3.95,
                "pitch": 37,
                "velocity": 64,
                "duration": 0.3318182,
                "tempo": 120.0
            },
            {
                "start_time": 4.0181818,
                "end_time": 4.35,
                "pitch": 37,
                "velocity": 64,
                "duration": 0.3318182,
                "tempo": 120.0
            },
            {
                "start_time": 4.4181818,
                "end_time": 4.7545455,
                "pitch": 37,
                "velocity": 64,
                "duration": 0.3363636,
                "tempo": 120.0
            },
            {
                "start_time": 4.8227273,
                "end_time": 5.1568182,
                "pitch": 37,
                "velocity": 80,
                "duration": 0.3340909,
                "tempo": 120.0
            },
            {
                "start_time": 5.225,
                "end_time": 5.5590909,
                "pitch": 37,
                "velocity": 64,
                "duration": 0.3340909,
                "tempo": 120.0
            },
            {
                "start_time": 5.625,
                "end_time": 5.9613636,
                "pitch": 37,
                "velocity": 64,
                "duration": 0.3363636,
                "tempo": 120.0
            },
            {
                "start_time": 6.0272727,
                "end_time": 6.3704545,
                "pitch": 37,
                "velocity": 64,
                "duration": 0.3431818,
                "tempo": 120.0
            },
            {
                "start_time": 6.4431818,
                "end_time": 6.7590909,
                "pitch": 37,
                "velocity": 101,
                "duration": 0.3159091,
                "tempo": 120.0
            },
            {
                "start_time": 6.8227273,
                "end_time": 7.1636364,
                "pitch": 37,
                "velocity": 64,
                "duration": 0.3409091,
                "tempo": 120.0
            },
            {
                "start_time": 7.2340909,
                "end_time": 7.5659091,
                "pitch": 37,
                "velocity": 64,
                "duration": 0.3318182,
                "tempo": 120.0
            },
            {
                "start_time": 7.6340909,
                "end_time": 7.9681818,
                "pitch": 37,
                "velocity": 64,
                "duration": 0.3340909,
                "tempo": 120.0
            },
            {
                "start_time": 8.0386364,
                "end_time": 8.3704545,
                "pitch": 37,
                "velocity": 80,
                "duration": 0.3318182,
                "tempo": 120.0
            },
            {
                "start_time": 8.4386364,
                "end_time": 8.7795455,
                "pitch": 37,
                "velocity": 64,
                "duration": 0.3409091,
                "tempo": 120.0
            },
            {
                "start_time": 8.8477273,
                "end_time": 9.1840909,
                "pitch": 37,
                "velocity": 64,
                "duration": 0.3363636,
                "tempo": 120.0
            },
            {
                "start_time": 9.2522727,
                "end_time": 9.5795455,
                "pitch": 37,
                "velocity": 64,
                "duration": 0.3272727,
                "tempo": 120.0
            },
            {
                "start_time": 9.6454545,
                "end_time": 9.9863636,
                "pitch": 37,
                "velocity": 101,
                "duration": 0.3409091,
                "tempo": 120.0
            },
            {
                "start_time": 10.0568182,
                "end_time": 10.3818182,
                "pitch": 37,
                "velocity": 64,
                "duration": 0.325,
                "tempo": 120.0
            },
            {
                "start_time": 10.45,
                "end_time": 10.7840909,
                "pitch": 37,
                "velocity": 64,
                "duration": 0.3340909,
                "tempo": 120.0
            },
            {
                "start_time": 10.8522727,
                "end_time": 11.1863636,
                "pitch": 37,
                "velocity": 64,
                "duration": 0.3340909,
                "tempo": 120.0
            },
            {
                "start_time": 11.2568182,
                "end_time": 11.5977273,
                "pitch": 37,
                "velocity": 80,
                "duration": 0.3409091,
                "tempo": 120.0
            },
            {
                "start_time": 11.6659091,
                "end_time": 12.0090909,
                "pitch": 37,
                "velocity": 64,
                "duration": 0.3431818,
                "tempo": 120.0
            },
            {
                "start_time": 12.0772727,
                "end_time": 12.4113636,
                "pitch": 37,
                "velocity": 64,
                "duration": 0.3340909,
                "tempo": 120.0
            },
            {
                "start_time": 12.4795455,
                "end_time": 12.7977273,
                "pitch": 37,
                "velocity": 64,
                "duration": 0.3181818,
                "tempo": 120.0
            },
            {
                "start_time": 12.8613636,
                "end_time": 13.2113636,
                "pitch": 37,
                "velocity": 101,
                "duration": 0.35,
                "tempo": 120.0
            },
            {
                "start_time": 13.2840909,
                "end_time": 13.6113636,
                "pitch": 37,
                "velocity": 64,
                "duration": 0.3272727,
                "tempo": 120.0
            },
            {
                "start_time": 13.6772727,
                "end_time": 14.0113636,
                "pitch": 37,
                "velocity": 64,
                "duration": 0.3340909,
                "tempo": 120.0
            },
            {
                "start_time": 14.0795455,
                "end_time": 14.4136364,
                "pitch": 37,
                "velocity": 64,
                "duration": 0.3340909,
                "tempo": 120.0
            },
            {
                "start_time": 14.4818182,
                "end_time": 14.8159091,
                "pitch": 37,
                "velocity": 80,
                "duration": 0.3340909,
                "tempo": 120.0
            },
            {
                "start_time": 14.8840909,
                "end_time": 15.2340909,
                "pitch": 37,
                "velocity": 64,
                "duration": 0.35,
                "tempo": 120.0
            },
            {
                "start_time": 15.3045455,
                "end_time": 15.6409091,
                "pitch": 37,
                "velocity": 64,
                "duration": 0.3363636,
                "tempo": 120.0
            },
            {
                "start_time": 15.7113636,
                "end_time": 16.0272727,
                "pitch": 37,
                "velocity": 64,
                "duration": 0.3159091,
                "tempo": 120.0
            },
            {
                "start_time": 16.0931818,
                "end_time": 16.4409091,
                "pitch": 37,
                "velocity": 101,
                "duration": 0.3477273,
                "tempo": 120.0
            },
            {
                "start_time": 16.5136364,
                "end_time": 16.8318182,
                "pitch": 37,
                "velocity": 64,
                "duration": 0.3181818,
                "tempo": 120.0
            },
            {
                "start_time": 16.8977273,
                "end_time": 17.2295455,
                "pitch": 37,
                "velocity": 64,
                "duration": 0.3318182,
                "tempo": 120.0
            },
            {
                "start_time": 17.2977273,
                "end_time": 17.6318182,
                "pitch": 37,
                "velocity": 64,
                "duration": 0.3340909,
                "tempo": 120.0
            },
            {
                "start_time": 17.7,
                "end_time": 18.0409091,
                "pitch": 37,
                "velocity": 80,
                "duration": 0.3409091,
                "tempo": 120.0
            },
            {
                "start_time": 18.1113636,
                "end_time": 18.4454545,
                "pitch": 37,
                "velocity": 64,
                "duration": 0.3340909,
                "tempo": 120.0
            },
            {
                "start_time": 18.5113636,
                "end_time": 18.8545455,
                "pitch": 37,
                "velocity": 64,
                "duration": 0.3431818,
                "tempo": 120.0
            },
            {
                "start_time": 18.9227273,
                "end_time": 19.2590909,
                "pitch": 37,
                "velocity": 64,
                "duration": 0.3363636,
                "tempo": 120.0
            },
            {
                "start_time": 19.3272727,
                "end_time": 19.6454545,
                "pitch": 37,
                "velocity": 101,
                "duration": 0.3181818,
                "tempo": 120.0
            },
            {
                "start_time": 19.7113636,
                "end_time": 20.05,
                "pitch": 37,
                "velocity": 64,
                "duration": 0.3386364,
                "tempo": 120.0
            },
            {
                "start_time": 20.1204545,
                "end_time": 20.4545455,
                "pitch": 37,
                "velocity": 64,
                "duration": 0.3340909,
                "tempo": 120.0
            },
            {
                "start_time": 20.5204545,
                "end_time": 20.8568182,
                "pitch": 37,
                "velocity": 64,
                "duration": 0.3363636,
                "tempo": 120.0
            },
            {
                "start_time": 20.925,
                "end_time": 21.2568182,
                "pitch": 37,
                "velocity": 80,
                "duration": 0.3318182,
                "tempo": 120.0
            },
            {
                "start_time": 21.325,
                "end_time": 21.6659091,
                "pitch": 37,
                "velocity": 64,
                "duration": 0.3409091,
                "tempo": 120.0
            },
            {
                "start_time": 21.7363636,
                "end_time": 22.0681818,
                "pitch": 37,
                "velocity": 64,
                "duration": 0.3318182,
                "tempo": 120.0
            },
            {
                "start_time": 22.1363636,
                "end_time": 22.4636364,
                "pitch": 37,
                "velocity": 64,
                "duration": 0.3272727,
                "tempo": 120.0
            },
            {
                "start_time": 22.5295455,
                "end_time": 22.8636364,
                "pitch": 37,
                "velocity": 101,
                "duration": 0.3340909,
                "tempo": 120.0
            },
            {
                "start_time": 22.9340909,
                "end_time": 23.2659091,
                "pitch": 37,
                "velocity": 64,
                "duration": 0.3318182,
                "tempo": 120.0
            },
            {
                "start_time": 23.3340909,
                "end_time": 23.6659091,
                "pitch": 37,
                "velocity": 64,
                "duration": 0.3318182,
                "tempo": 120.0
            },
            {
                "start_time": 23.7340909,
                "end_time": 24.0681818,
                "pitch": 37,
                "velocity": 64,
                "duration": 0.3340909,
                "tempo": 120.0
            },
            {
                "start_time": 24.1386364,
                "end_time": 24.4704545,
                "pitch": 37,
                "velocity": 80,
                "duration": 0.3318182,
                "tempo": 120.0
            },
            {
                "start_time": 24.5363636,
                "end_time": 24.8795455,
                "pitch": 37,
                "velocity": 64,
                "duration": 0.3431818,
                "tempo": 120.0
            },
            {
                "start_time": 24.9477273,
                "end_time": 25.2840909,
                "pitch": 37,
                "velocity": 64,
                "duration": 0.3363636,
                "tempo": 120.0
            },
            {
                "start_time": 25.3522727,
                "end_time": 25.6795455,
                "pitch": 37,
                "velocity": 64,
                "duration": 0.3272727,
                "tempo": 120.0
            },
            {
                "start_time": 25.7454545,
                "end_time": 26.0954545,
                "pitch": 37,
                "velocity": 101,
                "duration": 0.35,
                "tempo": 120.0
            },
            {
                "start_time": 26.1681818,
                "end_time": 26.4840909,
                "pitch": 37,
                "velocity": 64,
                "duration": 0.3159091,
                "tempo": 120.0
            },
            {
                "start_time": 26.55,
                "end_time": 26.8840909,
                "pitch": 37,
                "velocity": 64,
                "duration": 0.3340909,
                "tempo": 120.0
            },
            {
                "start_time": 26.9522727,
                "end_time": 27.2931818,
                "pitch": 37,
                "velocity": 64,
                "duration": 0.3409091,
                "tempo": 120.0
            },
            {
                "start_time": 27.3636364,
                "end_time": 27.6977273,
                "pitch": 37,
                "velocity": 80,
                "duration": 0.3340909,
                "tempo": 120.0
            },
            {
                "start_time": 27.7636364,
                "end_time": 28.1068182,
                "pitch": 37,
                "velocity": 64,
                "duration": 0.3431818,
                "tempo": 120.0
            },
            {
                "start_time": 28.175,
                "end_time": 28.5090909,
                "pitch": 37,
                "velocity": 64,
                "duration": 0.3340909,
                "tempo": 120.0
            },
            {
                "start_time": 28.5772727,
                "end_time": 28.8954545,
                "pitch": 37,
                "velocity": 64,
                "duration": 0.3181818,
                "tempo": 120.0
            },
            {
                "start_time": 28.9613636,
                "end_time": 29.3,
                "pitch": 37,
                "velocity": 101,
                "duration": 0.3386364,
                "tempo": 120.0
            },
            {
                "start_time": 29.3704545,
                "end_time": 29.7022727,
                "pitch": 37,
                "velocity": 64,
                "duration": 0.3318182,
                "tempo": 120.0
            },
            {
                "start_time": 29.7704545,
                "end_time": 30.1045455,
                "pitch": 37,
                "velocity": 64,
                "duration": 0.3340909,
                "tempo": 120.0
            },
            {
                "start_time": 30.1727273,
                "end_time": 30.5068182,
                "pitch": 37,
                "velocity": 64,
                "duration": 0.3340909,
                "tempo": 120.0
            },
            {
                "start_time": 30.575,
                "end_time": 30.9068182,
                "pitch": 37,
                "velocity": 80,
                "duration": 0.3318182,
                "tempo": 120.0
            },
            {
                "start_time": 30.975,
                "end_time": 31.3159091,
                "pitch": 37,
                "velocity": 64,
                "duration": 0.3409091,
                "tempo": 120.0
            },
            {
                "start_time": 31.3863636,
                "end_time": 31.7227273,
                "pitch": 37,
                "velocity": 64,
                "duration": 0.3363636,
                "tempo": 120.0
            },
            {
                "start_time": 31.7886364,
                "end_time": 32.1318182,
                "pitch": 37,
                "velocity": 64,
                "duration": 0.3431818,
                "tempo": 120.0
            },
            {
                "start_time": 32.2045455,
                "end_time": 32.5340909,
                "pitch": 42,
                "velocity": 101,
                "duration": 0.3295455,
                "tempo": 120.0
            },
            {
                "start_time": 32.6022727,
                "end_time": 32.9295455,
                "pitch": 42,
                "velocity": 64,
                "duration": 0.3272727,
                "tempo": 120.0
            },
            {
                "start_time": 32.9954545,
                "end_time": 33.3363636,
                "pitch": 42,
                "velocity": 64,
                "duration": 0.3409091,
                "tempo": 120.0
            },
            {
                "start_time": 33.4045455,
                "end_time": 33.7318182,
                "pitch": 42,
                "velocity": 64,
                "duration": 0.3272727,
                "tempo": 120.0
            },
            {
                "start_time": 33.8,
                "end_time": 34.1409091,
                "pitch": 42,
                "velocity": 80,
                "duration": 0.3409091,
                "tempo": 120.0
            },
            {
                "start_time": 34.2090909,
                "end_time": 34.5522727,
                "pitch": 42,
                "velocity": 64,
                "duration": 0.3431818,
                "tempo": 120.0
            },
            {
                "start_time": 34.6204545,
                "end_time": 34.9477273,
                "pitch": 42,
                "velocity": 64,
                "duration": 0.3272727,
                "tempo": 120.0
            },
            {
                "start_time": 35.0136364,
                "end_time": 35.3545455,
                "pitch": 42,
                "velocity": 64,
                "duration": 0.3409091,
                "tempo": 120.0
            },
            {
                "start_time": 35.425,
                "end_time": 35.7522727,
                "pitch": 42,
                "velocity": 101,
                "duration": 0.3272727,
                "tempo": 120.0
            },
            {
                "start_time": 35.8204545,
                "end_time": 36.15,
                "pitch": 42,
                "velocity": 64,
                "duration": 0.3295455,
                "tempo": 120.0
            },
            {
                "start_time": 36.2181818,
                "end_time": 36.5522727,
                "pitch": 42,
                "velocity": 64,
                "duration": 0.3340909,
                "tempo": 120.0
            },
            {
                "start_time": 36.6181818,
                "end_time": 36.9590909,
                "pitch": 42,
                "velocity": 64,
                "duration": 0.3409091,
                "tempo": 120.0
            },
            {
                "start_time": 37.0295455,
                "end_time": 37.3568182,
                "pitch": 42,
                "velocity": 80,
                "duration": 0.3272727,
                "tempo": 120.0
            },
            {
                "start_time": 37.425,
                "end_time": 37.7568182,
                "pitch": 42,
                "velocity": 64,
                "duration": 0.3318182,
                "tempo": 120.0
            },
            {
                "start_time": 37.8272727,
                "end_time": 38.1590909,
                "pitch": 42,
                "velocity": 64,
                "duration": 0.3318182,
                "tempo": 120.0
            },
            {
                "start_time": 38.2272727,
                "end_time": 38.5681818,
                "pitch": 42,
                "velocity": 64,
                "duration": 0.3409091,
                "tempo": 120.0
            },
            {
                "start_time": 38.6386364,
                "end_time": 38.9704545,
                "pitch": 42,
                "velocity": 101,
                "duration": 0.3318182,
                "tempo": 120.0
            },
            {
                "start_time": 39.0386364,
                "end_time": 39.3659091,
                "pitch": 41,
                "velocity": 64,
                "duration": 0.3272727,
                "tempo": 120.0
            },
            {
                "start_time": 39.4318182,
                "end_time": 39.7727273,
                "pitch": 41,
                "velocity": 64,
                "duration": 0.3409091,
                "tempo": 120.0
            },
            {
                "start_time": 39.8431818,
                "end_time": 40.175,
                "pitch": 41,
                "velocity": 64,
                "duration": 0.3318182,
                "tempo": 120.0
            },
            {
                "start_time": 40.2454545,
                "end_time": 40.5772727,
                "pitch": 41,
                "velocity": 80,
                "duration": 0.3318182,
                "tempo": 120.0
            },
            {
                "start_time": 40.6431818,
                "end_time": 40.9840909,
                "pitch": 41,
                "velocity": 64,
                "duration": 0.3409091,
                "tempo": 120.0
            },
            {
                "start_time": 41.0545455,
                "end_time": 41.3818182,
                "pitch": 41,
                "velocity": 64,
                "duration": 0.3272727,
                "tempo": 120.0
            },
            {
                "start_time": 41.4477273,
                "end_time": 41.7795455,
                "pitch": 41,
                "velocity": 64,
                "duration": 0.3318182,
                "tempo": 120.0
            },
            {
                "start_time": 41.85,
                "end_time": 42.1818182,
                "pitch": 41,
                "velocity": 101,
                "duration": 0.3318182,
                "tempo": 120.0
            },
            {
                "start_time": 42.25,
                "end_time": 42.5818182,
                "pitch": 41,
                "velocity": 64,
                "duration": 0.3318182,
                "tempo": 120.0
            },
            {
                "start_time": 42.65,
                "end_time": 42.9818182,
                "pitch": 41,
                "velocity": 64,
                "duration": 0.3318182,
                "tempo": 120.0
            },
            {
                "start_time": 43.05,
                "end_time": 43.3840909,
                "pitch": 41,
                "velocity": 64,
                "duration": 0.3340909,
                "tempo": 120.0
            },
            {
                "start_time": 43.4545455,
                "end_time": 43.7863636,
                "pitch": 41,
                "velocity": 80,
                "duration": 0.3318182,
                "tempo": 120.0
            },
            {
                "start_time": 43.8545455,
                "end_time": 44.1954545,
                "pitch": 41,
                "velocity": 64,
                "duration": 0.3409091,
                "tempo": 120.0
            },
            {
                "start_time": 44.2636364,
                "end_time": 44.5909091,
                "pitch": 41,
                "velocity": 64,
                "duration": 0.3272727,
                "tempo": 120.0
            },
            {
                "start_time": 44.6568182,
                "end_time": 45.0,
                "pitch": 41,
                "velocity": 64,
                "duration": 0.3431818,
                "tempo": 120.0
            },
            {
                "start_time": 45.0681818,
                "end_time": 45.4022727,
                "pitch": 41,
                "velocity": 101,
                "duration": 0.3340909,
                "tempo": 120.0
            },
            {
                "start_time": 45.4704545,
                "end_time": 45.7954545,
                "pitch": 40,
                "velocity": 64,
                "duration": 0.325,
                "tempo": 120.0
            },
            {
                "start_time": 45.8636364,
                "end_time": 46.1954545,
                "pitch": 40,
                "velocity": 64,
                "duration": 0.3318182,
                "tempo": 120.0
            },
            {
                "start_time": 46.2636364,
                "end_time": 46.5954545,
                "pitch": 40,
                "velocity": 64,
                "duration": 0.3318182,
                "tempo": 120.0
            },
            {
                "start_time": 46.6636364,
                "end_time": 47.0045455,
                "pitch": 40,
                "velocity": 80,
                "duration": 0.3409091,
                "tempo": 120.0
            },
            {
                "start_time": 47.0727273,
                "end_time": 47.4159091,
                "pitch": 40,
                "velocity": 64,
                "duration": 0.3431818,
                "tempo": 120.0
            },
            {
                "start_time": 47.4863636,
                "end_time": 47.8136364,
                "pitch": 40,
                "velocity": 64,
                "duration": 0.3272727,
                "tempo": 120.0
            },
            {
                "start_time": 47.8795455,
                "end_time": 48.2204545,
                "pitch": 40,
                "velocity": 64,
                "duration": 0.3409091,
                "tempo": 120.0
            },
            {
                "start_time": 48.2886364,
                "end_time": 48.6181818,
                "pitch": 40,
                "velocity": 101,
                "duration": 0.3295455,
                "tempo": 120.0
            },
            {
                "start_time": 48.6840909,
                "end_time": 49.0159091,
                "pitch": 40,
                "velocity": 64,
                "duration": 0.3318182,
                "tempo": 120.0
            },
            {
                "start_time": 49.0818182,
                "end_time": 49.4159091,
                "pitch": 40,
                "velocity": 64,
                "duration": 0.3340909,
                "tempo": 120.0
            },
            {
                "start_time": 49.4840909,
                "end_time": 49.825,
                "pitch": 40,
                "velocity": 64,
                "duration": 0.3409091,
                "tempo": 120.0
            },
            {
                "start_time": 49.8954545,
                "end_time": 50.2227273,
                "pitch": 40,
                "velocity": 80,
                "duration": 0.3272727,
                "tempo": 120.0
            },
            {
                "start_time": 50.2886364,
                "end_time": 50.6227273,
                "pitch": 40,
                "velocity": 64,
                "duration": 0.3340909,
                "tempo": 120.0
            },
            {
                "start_time": 50.6909091,
                "end_time": 51.025,
                "pitch": 40,
                "velocity": 64,
                "duration": 0.3340909,
                "tempo": 120.0
            },
            {
                "start_time": 51.0909091,
                "end_time": 51.425,
                "pitch": 40,
                "velocity": 64,
                "duration": 0.3340909,
                "tempo": 120.0
            },
            {
                "start_time": 51.4931818,
                "end_time": 51.825,
                "pitch": 40,
                "velocity": 101,
                "duration": 0.3318182,
                "tempo": 120.0
            },
            {
                "start_time": 51.8931818,
                "end_time": 52.225,
                "pitch": 39,
                "velocity": 64,
                "duration": 0.3318182,
                "tempo": 120.0
            },
            {
                "start_time": 52.2931818,
                "end_time": 52.6272727,
                "pitch": 39,
                "velocity": 64,
                "duration": 0.3340909,
                "tempo": 120.0
            },
            {
                "start_time": 52.6977273,
                "end_time": 53.0295455,
                "pitch": 39,
                "velocity": 64,
                "duration": 0.3318182,
                "tempo": 120.0
            },
            {
                "start_time": 53.0977273,
                "end_time": 53.4295455,
                "pitch": 39,
                "velocity": 80,
                "duration": 0.3318182,
                "tempo": 120.0
            },
            {
                "start_time": 53.4977273,
                "end_time": 53.8295455,
                "pitch": 39,
                "velocity": 64,
                "duration": 0.3318182,
                "tempo": 120.0
            },
            {
                "start_time": 53.8977273,
                "end_time": 54.2318182,
                "pitch": 39,
                "velocity": 64,
                "duration": 0.3340909,
                "tempo": 120.0
            },
            {
                "start_time": 54.3,
                "end_time": 54.6340909,
                "pitch": 39,
                "velocity": 64,
                "duration": 0.3340909,
                "tempo": 120.0
            },
            {
                "start_time": 54.7022727,
                "end_time": 55.0431818,
                "pitch": 39,
                "velocity": 101,
                "duration": 0.3409091,
                "tempo": 120.0
            },
            {
                "start_time": 55.1136364,
                "end_time": 55.4454545,
                "pitch": 39,
                "velocity": 64,
                "duration": 0.3318182,
                "tempo": 120.0
            },
            {
                "start_time": 55.5136364,
                "end_time": 55.8409091,
                "pitch": 39,
                "velocity": 64,
                "duration": 0.3272727,
                "tempo": 120.0
            },
            {
                "start_time": 55.9068182,
                "end_time": 56.2477273,
                "pitch": 39,
                "velocity": 64,
                "duration": 0.3409091,
                "tempo": 120.0
            },
            {
                "start_time": 56.3181818,
                "end_time": 56.65,
                "pitch": 39,
                "velocity": 80,
                "duration": 0.3318182,
                "tempo": 120.0
            },
            {
                "start_time": 56.7181818,
                "end_time": 57.0522727,
                "pitch": 39,
                "velocity": 64,
                "duration": 0.3340909,
                "tempo": 120.0
            },
            {
                "start_time": 57.1204545,
                "end_time": 57.4522727,
                "pitch": 39,
                "velocity": 64,
                "duration": 0.3318182,
                "tempo": 120.0
            },
            {
                "start_time": 57.5204545,
                "end_time": 57.8522727,
                "pitch": 39,
                "velocity": 64,
                "duration": 0.3318182,
                "tempo": 120.0
            },
            {
                "start_time": 57.9204545,
                "end_time": 58.2545455,
                "pitch": 39,
                "velocity": 101,
                "duration": 0.3340909,
                "tempo": 120.0
            },
            {
                "start_time": 32.2045455,
                "end_time": 58.6568182,
                "pitch": 37,
                "velocity": 101,
                "duration": 26.4522727,
                "tempo": 120.0
            },
            {
                "start_time": 58.3227273,
                "end_time": 58.6568182,
                "pitch": 37,
                "velocity": 64,
                "duration": 0.3340909,
                "tempo": 120.0
            },
            {
                "start_time": 58.7227273,
                "end_time": 59.0659091,
                "pitch": 37,
                "velocity": 64,
                "duration": 0.3431818,
                "tempo": 120.0
            },
            {
                "start_time": 59.1340909,
                "end_time": 59.4681818,
                "pitch": 37,
                "velocity": 64,
                "duration": 0.3340909,
                "tempo": 120.0
            },
            {
                "start_time": 59.5363636,
                "end_time": 59.8636364,
                "pitch": 37,
                "velocity": 64,
                "duration": 0.3272727,
                "tempo": 120.0
            },
            {
                "start_time": 59.9295455,
                "end_time": 60.2636364,
                "pitch": 37,
                "velocity": 64,
                "duration": 0.3340909,
                "tempo": 120.0
            },
            {
                "start_time": 60.3318182,
                "end_time": 60.6727273,
                "pitch": 37,
                "velocity": 64,
                "duration": 0.3409091,
                "tempo": 120.0
            },
            {
                "start_time": 60.7431818,
                "end_time": 61.0772727,
                "pitch": 37,
                "velocity": 64,
                "duration": 0.3340909,
                "tempo": 120.0
            },
            {
                "start_time": 61.1454545,
                "end_time": 61.4772727,
                "pitch": 37,
                "velocity": 101,
                "duration": 0.3318182,
                "tempo": 120.0
            },
            {
                "start_time": 61.5454545,
                "end_time": 61.8795455,
                "pitch": 37,
                "velocity": 64,
                "duration": 0.3340909,
                "tempo": 120.0
            },
            {
                "start_time": 61.9477273,
                "end_time": 62.2818182,
                "pitch": 37,
                "velocity": 64,
                "duration": 0.3340909,
                "tempo": 120.0
            },
            {
                "start_time": 62.3477273,
                "end_time": 62.6909091,
                "pitch": 37,
                "velocity": 64,
                "duration": 0.3431818,
                "tempo": 120.0
            },
            {
                "start_time": 62.7590909,
                "end_time": 63.0863636,
                "pitch": 37,
                "velocity": 64,
                "duration": 0.3272727,
                "tempo": 120.0
            },
            {
                "start_time": 63.1522727,
                "end_time": 63.4863636,
                "pitch": 37,
                "velocity": 64,
                "duration": 0.3340909,
                "tempo": 120.0
            },
            {
                "start_time": 63.5522727,
                "end_time": 63.8886364,
                "pitch": 37,
                "velocity": 64,
                "duration": 0.3363636,
                "tempo": 120.0
            },
            {
                "start_time": 63.9568182,
                "end_time": 64.2886364,
                "pitch": 37,
                "velocity": 64,
                "duration": 0.3318182,
                "tempo": 120.0
            },
            {
                "start_time": 64.3568182,
                "end_time": 64.6886364,
                "pitch": 35,
                "velocity": 101,
                "duration": 0.3318182,
                "tempo": 120.0
            },
            {
                "start_time": 64.7568182,
                "end_time": 65.0977273,
                "pitch": 35,
                "velocity": 64,
                "duration": 0.3409091,
                "tempo": 120.0
            },
            {
                "start_time": 65.1681818,
                "end_time": 65.4954545,
                "pitch": 35,
                "velocity": 64,
                "duration": 0.3272727,
                "tempo": 120.0
            },
            {
                "start_time": 65.5613636,
                "end_time": 65.8954545,
                "pitch": 35,
                "velocity": 64,
                "duration": 0.3340909,
                "tempo": 120.0
            },
            {
                "start_time": 65.9636364,
                "end_time": 66.3045455,
                "pitch": 35,
                "velocity": 64,
                "duration": 0.3409091,
                "tempo": 120.0
            },
            {
                "start_time": 66.375,
                "end_time": 66.7022727,
                "pitch": 35,
                "velocity": 64,
                "duration": 0.3272727,
                "tempo": 120.0
            },
            {
                "start_time": 66.7681818,
                "end_time": 67.1022727,
                "pitch": 35,
                "velocity": 64,
                "duration": 0.3340909,
                "tempo": 120.0
            },
            {
                "start_time": 67.1704545,
                "end_time": 67.5136364,
                "pitch": 35,
                "velocity": 64,
                "duration": 0.3431818,
                "tempo": 120.0
            },
            {
                "start_time": 67.5818182,
                "end_time": 67.9159091,
                "pitch": 35,
                "velocity": 101,
                "duration": 0.3340909,
                "tempo": 120.0
            },
            {
                "start_time": 67.9840909,
                "end_time": 68.3181818,
                "pitch": 35,
                "velocity": 64,
                "duration": 0.3340909,
                "tempo": 120.0
            },
            {
                "start_time": 68.3863636,
                "end_time": 68.7136364,
                "pitch": 35,
                "velocity": 64,
                "duration": 0.3272727,
                "tempo": 120.0
            },
            {
                "start_time": 68.7795455,
                "end_time": 69.1204545,
                "pitch": 35,
                "velocity": 64,
                "duration": 0.3409091,
                "tempo": 120.0
            },
            {
                "start_time": 69.1909091,
                "end_time": 69.5272727,
                "pitch": 35,
                "velocity": 64,
                "duration": 0.3363636,
                "tempo": 120.0
            },
            {
                "start_time": 69.5931818,
                "end_time": 69.9272727,
                "pitch": 35,
                "velocity": 64,
                "duration": 0.3340909,
                "tempo": 120.0
            },
            {
                "start_time": 69.9931818,
                "end_time": 70.3295455,
                "pitch": 35,
                "velocity": 64,
                "duration": 0.3363636,
                "tempo": 120.0
            },
            {
                "start_time": 70.3977273,
                "end_time": 70.7340909,
                "pitch": 35,
                "velocity": 64,
                "duration": 0.3363636,
                "tempo": 120.0
            },
            {
                "start_time": 70.8022727,
                "end_time": 71.1340909,
                "pitch": 33,
                "velocity": 101,
                "duration": 0.3318182,
                "tempo": 120.0
            },
            {
                "start_time": 71.2022727,
                "end_time": 71.5363636,
                "pitch": 33,
                "velocity": 64,
                "duration": 0.3340909,
                "tempo": 120.0
            },
            {
                "start_time": 71.6045455,
                "end_time": 71.9386364,
                "pitch": 33,
                "velocity": 64,
                "duration": 0.3340909,
                "tempo": 120.0
            },
            {
                "start_time": 72.0045455,
                "end_time": 72.3409091,
                "pitch": 33,
                "velocity": 64,
                "duration": 0.3363636,
                "tempo": 120.0
            },
            {
                "start_time": 72.4090909,
                "end_time": 72.7431818,
                "pitch": 33,
                "velocity": 64,
                "duration": 0.3340909,
                "tempo": 120.0
            },
            {
                "start_time": 72.8113636,
                "end_time": 73.1522727,
                "pitch": 33,
                "velocity": 64,
                "duration": 0.3409091,
                "tempo": 120.0
            },
            {
                "start_time": 73.2227273,
                "end_time": 73.55,
                "pitch": 33,
                "velocity": 64,
                "duration": 0.3272727,
                "tempo": 120.0
            },
            {
                "start_time": 73.6159091,
                "end_time": 73.95,
                "pitch": 33,
                "velocity": 64,
                "duration": 0.3340909,
                "tempo": 120.0
            },
            {
                "start_time": 74.0159091,
                "end_time": 74.3568182,
                "pitch": 33,
                "velocity": 101,
                "duration": 0.3409091,
                "tempo": 120.0
            },
            {
                "start_time": 74.4272727,
                "end_time": 74.7613636,
                "pitch": 33,
                "velocity": 64,
                "duration": 0.3340909,
                "tempo": 120.0
            },
            {
                "start_time": 74.8272727,
                "end_time": 75.1636364,
                "pitch": 33,
                "velocity": 64,
                "duration": 0.3363636,
                "tempo": 120.0
            },
            {
                "start_time": 75.2318182,
                "end_time": 75.5727273,
                "pitch": 33,
                "velocity": 64,
                "duration": 0.3409091,
                "tempo": 120.0
            },
            {
                "start_time": 75.6409091,
                "end_time": 75.9704545,
                "pitch": 33,
                "velocity": 64,
                "duration": 0.3295455,
                "tempo": 120.0
            },
            {
                "start_time": 76.0363636,
                "end_time": 76.3704545,
                "pitch": 33,
                "velocity": 64,
                "duration": 0.3340909,
                "tempo": 120.0
            },
            {
                "start_time": 76.4386364,
                "end_time": 76.7727273,
                "pitch": 33,
                "velocity": 64,
                "duration": 0.3340909,
                "tempo": 120.0
            },
            {
                "start_time": 76.8386364,
                "end_time": 77.175,
                "pitch": 33,
                "velocity": 64,
                "duration": 0.3363636,
                "tempo": 120.0
            },
            {
                "start_time": 70.8022727,
                "end_time": 77.5772727,
                "pitch": 35,
                "velocity": 101,
                "duration": 6.775,
                "tempo": 120.0
            },
            {
                "start_time": 77.2431818,
                "end_time": 77.5772727,
                "pitch": 35,
                "velocity": 101,
                "duration": 0.3340909,
                "tempo": 120.0
            },
            {
                "start_time": 77.6454545,
                "end_time": 77.9863636,
                "pitch": 35,
                "velocity": 64,
                "duration": 0.3409091,
                "tempo": 120.0
            },
            {
                "start_time": 78.0568182,
                "end_time": 78.3840909,
                "pitch": 35,
                "velocity": 64,
                "duration": 0.3272727,
                "tempo": 120.0
            },
            {
                "start_time": 78.45,
                "end_time": 78.7840909,
                "pitch": 35,
                "velocity": 64,
                "duration": 0.3340909,
                "tempo": 120.0
            },
            {
                "start_time": 78.85,
                "end_time": 79.1863636,
                "pitch": 35,
                "velocity": 64,
                "duration": 0.3363636,
                "tempo": 120.0
            },
            {
                "start_time": 79.2522727,
                "end_time": 79.5886364,
                "pitch": 35,
                "velocity": 64,
                "duration": 0.3363636,
                "tempo": 120.0
            },
            {
                "start_time": 79.6568182,
                "end_time": 79.9909091,
                "pitch": 35,
                "velocity": 64,
                "duration": 0.3340909,
                "tempo": 120.0
            },
            {
                "start_time": 80.0568182,
                "end_time": 80.3931818,
                "pitch": 35,
                "velocity": 64,
                "duration": 0.3363636,
                "tempo": 120.0
            },
            {
                "start_time": 80.4613636,
                "end_time": 80.7931818,
                "pitch": 35,
                "velocity": 101,
                "duration": 0.3318182,
                "tempo": 120.0
            },
            {
                "start_time": 80.8613636,
                "end_time": 81.1977273,
                "pitch": 35,
                "velocity": 64,
                "duration": 0.3363636,
                "tempo": 120.0
            },
            {
                "start_time": 81.2636364,
                "end_time": 81.6,
                "pitch": 35,
                "velocity": 64,
                "duration": 0.3363636,
                "tempo": 120.0
            },
            {
                "start_time": 81.6681818,
                "end_time": 82.0,
                "pitch": 35,
                "velocity": 64,
                "duration": 0.3318182,
                "tempo": 120.0
            },
            {
                "start_time": 82.0681818,
                "end_time": 82.4022727,
                "pitch": 35,
                "velocity": 64,
                "duration": 0.3340909,
                "tempo": 120.0
            },
            {
                "start_time": 82.4704545,
                "end_time": 82.8136364,
                "pitch": 35,
                "velocity": 64,
                "duration": 0.3431818,
                "tempo": 120.0
            },
            {
                "start_time": 82.8818182,
                "end_time": 83.2181818,
                "pitch": 35,
                "velocity": 64,
                "duration": 0.3363636,
                "tempo": 120.0
            },
            {
                "start_time": 83.2863636,
                "end_time": 83.6181818,
                "pitch": 35,
                "velocity": 64,
                "duration": 0.3318182,
                "tempo": 120.0
            },
            {
                "start_time": 83.6886364,
                "end_time": 84.0227273,
                "pitch": 37,
                "velocity": 101,
                "duration": 0.3340909,
                "tempo": 120.0
            },
            {
                "start_time": 84.0886364,
                "end_time": 84.4227273,
                "pitch": 37,
                "velocity": 64,
                "duration": 0.3340909,
                "tempo": 120.0
            },
            {
                "start_time": 84.4909091,
                "end_time": 84.8318182,
                "pitch": 37,
                "velocity": 64,
                "duration": 0.3409091,
                "tempo": 120.0
            },
            {
                "start_time": 84.9,
                "end_time": 85.2295455,
                "pitch": 37,
                "velocity": 64,
                "duration": 0.3295455,
                "tempo": 120.0
            },
            {
                "start_time": 85.2954545,
                "end_time": 85.6272727,
                "pitch": 37,
                "velocity": 64,
                "duration": 0.3318182,
                "tempo": 120.0
            },
            {
                "start_time": 85.6954545,
                "end_time": 86.0363636,
                "pitch": 37,
                "velocity": 64,
                "duration": 0.3409091,
                "tempo": 120.0
            },
            {
                "start_time": 86.1068182,
                "end_time": 86.4340909,
                "pitch": 37,
                "velocity": 64,
                "duration": 0.3272727,
                "tempo": 120.0
            },
            {
                "start_time": 86.4977273,
                "end_time": 86.8340909,
                "pitch": 37,
                "velocity": 64,
                "duration": 0.3363636,
                "tempo": 120.0
            },
            {
                "start_time": 86.9022727,
                "end_time": 87.2363636,
                "pitch": 37,
                "velocity": 101,
                "duration": 0.3340909,
                "tempo": 120.0
            },
            {
                "start_time": 87.3045455,
                "end_time": 87.6386364,
                "pitch": 37,
                "velocity": 64,
                "duration": 0.3340909,
                "tempo": 120.0
            },
            {
                "start_time": 87.7068182,
                "end_time": 88.0409091,
                "pitch": 37,
                "velocity": 64,
                "duration": 0.3340909,
                "tempo": 120.0
            },
            {
                "start_time": 88.1090909,
                "end_time": 88.45,
                "pitch": 37,
                "velocity": 64,
                "duration": 0.3409091,
                "tempo": 120.0
            },
            {
                "start_time": 88.5204545,
                "end_time": 88.8477273,
                "pitch": 37,
                "velocity": 64,
                "duration": 0.3272727,
                "tempo": 120.0
            },
            {
                "start_time": 88.9136364,
                "end_time": 89.2545455,
                "pitch": 37,
                "velocity": 64,
                "duration": 0.3409091,
                "tempo": 120.0
            },
            {
                "start_time": 89.3227273,
                "end_time": 89.6590909,
                "pitch": 37,
                "velocity": 64,
                "duration": 0.3363636,
                "tempo": 120.0
            },
            {
                "start_time": 89.7272727,
                "end_time": 90.0613636,
                "pitch": 37,
                "velocity": 64,
                "duration": 0.3340909,
                "tempo": 120.0
            },
            {
                "start_time": 64.3568182,
                "end_time": 90.1295455,
                "pitch": 40,
                "velocity": 101,
                "duration": 25.7727273,
                "tempo": 120.0
            },
            {
                "start_time": 90.1295455,
                "end_time": 90.4636364,
                "pitch": 35,
                "velocity": 101,
                "duration": 0.3340909,
                "tempo": 120.0
            },
            {
                "start_time": 90.5318182,
                "end_time": 90.8727273,
                "pitch": 35,
                "velocity": 64,
                "duration": 0.3409091,
                "tempo": 120.0
            },
            {
                "start_time": 90.9409091,
                "end_time": 91.2704545,
                "pitch": 35,
                "velocity": 64,
                "duration": 0.3295455,
                "tempo": 120.0
            },
            {
                "start_time": 91.3363636,
                "end_time": 91.6704545,
                "pitch": 35,
                "velocity": 64,
                "duration": 0.3340909,
                "tempo": 120.0
            },
            {
                "start_time": 91.7386364,
                "end_time": 92.0704545,
                "pitch": 35,
                "velocity": 64,
                "duration": 0.3318182,
                "tempo": 120.0
            },
            {
                "start_time": 92.1386364,
                "end_time": 92.475,
                "pitch": 35,
                "velocity": 64,
                "duration": 0.3363636,
                "tempo": 120.0
            },
            {
                "start_time": 92.5431818,
                "end_time": 92.8772727,
                "pitch": 35,
                "velocity": 64,
                "duration": 0.3340909,
                "tempo": 120.0
            },
            {
                "start_time": 92.9454545,
                "end_time": 93.2863636,
                "pitch": 35,
                "velocity": 64,
                "duration": 0.3409091,
                "tempo": 120.0
            },
            {
                "start_time": 93.3568182,
                "end_time": 93.6840909,
                "pitch": 35,
                "velocity": 101,
                "duration": 0.3272727,
                "tempo": 120.0
            },
            {
                "start_time": 93.75,
                "end_time": 94.0840909,
                "pitch": 35,
                "velocity": 64,
                "duration": 0.3340909,
                "tempo": 120.0
            },
            {
                "start_time": 94.15,
                "end_time": 94.4909091,
                "pitch": 35,
                "velocity": 64,
                "duration": 0.3409091,
                "tempo": 120.0
            },
            {
                "start_time": 94.5613636,
                "end_time": 94.8886364,
                "pitch": 35,
                "velocity": 64,
                "duration": 0.3272727,
                "tempo": 120.0
            },
            {
                "start_time": 94.9545455,
                "end_time": 95.2863636,
                "pitch": 35,
                "velocity": 64,
                "duration": 0.3318182,
                "tempo": 120.0
            },
            {
                "start_time": 95.3545455,
                "end_time": 95.6954545,
                "pitch": 35,
                "velocity": 64,
                "duration": 0.3409091,
                "tempo": 120.0
            },
            {
                "start_time": 95.7659091,
                "end_time": 96.1022727,
                "pitch": 35,
                "velocity": 64,
                "duration": 0.3363636,
                "tempo": 120.0
            },
            {
                "start_time": 96.1681818,
                "end_time": 96.4954545,
                "pitch": 35,
                "velocity": 64,
                "duration": 0.3272727,
                "tempo": 120.0
            },
            {
                "start_time": 77.2431818,
                "end_time": 96.9022727,
                "pitch": 33,
                "velocity": 101,
                "duration": 19.6590909,
                "tempo": 120.0
            },
            {
                "start_time": 96.5636364,
                "end_time": 96.9022727,
                "pitch": 33,
                "velocity": 101,
                "duration": 0.3386364,
                "tempo": 120.0
            },
            {
                "start_time": 96.9727273,
                "end_time": 97.3090909,
                "pitch": 33,
                "velocity": 64,
                "duration": 0.3363636,
                "tempo": 120.0
            },
            {
                "start_time": 97.3772727,
                "end_time": 97.7181818,
                "pitch": 33,
                "velocity": 64,
                "duration": 0.3409091,
                "tempo": 120.0
            },
            {
                "start_time": 97.7863636,
                "end_time": 98.1159091,
                "pitch": 33,
                "velocity": 64,
                "duration": 0.3295455,
                "tempo": 120.0
            },
            {
                "start_time": 98.1818182,
                "end_time": 98.5159091,
                "pitch": 33,
                "velocity": 64,
                "duration": 0.3340909,
                "tempo": 120.0
            },
            {
                "start_time": 98.5840909,
                "end_time": 98.925,
                "pitch": 33,
                "velocity": 64,
                "duration": 0.3409091,
                "tempo": 120.0
            },
            {
                "start_time": 98.9954545,
                "end_time": 99.3227273,
                "pitch": 33,
                "velocity": 64,
                "duration": 0.3272727,
                "tempo": 120.0
            },
            {
                "start_time": 99.3886364,
                "end_time": 99.7204545,
                "pitch": 33,
                "velocity": 64,
                "duration": 0.3318182,
                "tempo": 120.0
            },
            {
                "start_time": 99.7886364,
                "end_time": 100.1227273,
                "pitch": 33,
                "velocity": 101,
                "duration": 0.3340909,
                "tempo": 120.0
            },
            {
                "start_time": 100.1909091,
                "end_time": 100.5272727,
                "pitch": 33,
                "velocity": 64,
                "duration": 0.3363636,
                "tempo": 120.0
            },
            {
                "start_time": 100.5954545,
                "end_time": 100.9272727,
                "pitch": 33,
                "velocity": 64,
                "duration": 0.3318182,
                "tempo": 120.0
            },
            {
                "start_time": 100.9954545,
                "end_time": 101.3363636,
                "pitch": 33,
                "velocity": 64,
                "duration": 0.3409091,
                "tempo": 120.0
            },
            {
                "start_time": 101.4068182,
                "end_time": 101.7340909,
                "pitch": 33,
                "velocity": 64,
                "duration": 0.3272727,
                "tempo": 120.0
            },
            {
                "start_time": 101.8,
                "end_time": 102.1340909,
                "pitch": 33,
                "velocity": 64,
                "duration": 0.3340909,
                "tempo": 120.0
            },
            {
                "start_time": 102.2022727,
                "end_time": 102.5363636,
                "pitch": 33,
                "velocity": 64,
                "duration": 0.3340909,
                "tempo": 120.0
            },
            {
                "start_time": 102.6045455,
                "end_time": 102.9386364,
                "pitch": 33,
                "velocity": 64,
                "duration": 0.3340909,
                "tempo": 120.0
            },
            {
                "start_time": 96.5636364,
                "end_time": 103.3409091,
                "pitch": 35,
                "velocity": 101,
                "duration": 6.7772727,
                "tempo": 120.0
            },
            {
                "start_time": 103.0068182,
                "end_time": 103.3409091,
                "pitch": 35,
                "velocity": 101,
                "duration": 0.3340909,
                "tempo": 120.0
            },
            {
                "start_time": 103.4090909,
                "end_time": 103.7590909,
                "pitch": 35,
                "velocity": 64,
                "duration": 0.35,
                "tempo": 120.0
            },
            {
                "start_time": 103.8295455,
                "end_time": 104.15,
                "pitch": 35,
                "velocity": 64,
                "duration": 0.3204545,
                "tempo": 120.0
            },
            {
                "start_time": 104.2159091,
                "end_time": 104.55,
                "pitch": 35,
                "velocity": 64,
                "duration": 0.3340909,
                "tempo": 120.0
            },
            {
                "start_time": 104.6181818,
                "end_time": 104.9590909,
                "pitch": 35,
                "velocity": 64,
                "duration": 0.3409091,
                "tempo": 120.0
            },
            {
                "start_time": 105.0272727,
                "end_time": 105.3613636,
                "pitch": 35,
                "velocity": 64,
                "duration": 0.3340909,
                "tempo": 120.0
            },
            {
                "start_time": 105.4295455,
                "end_time": 105.7659091,
                "pitch": 35,
                "velocity": 64,
                "duration": 0.3363636,
                "tempo": 120.0
            },
            {
                "start_time": 105.8318182,
                "end_time": 106.1681818,
                "pitch": 35,
                "velocity": 64,
                "duration": 0.3363636,
                "tempo": 120.0
            },
            {
                "start_time": 106.2363636,
                "end_time": 106.5681818,
                "pitch": 32,
                "velocity": 101,
                "duration": 0.3318182,
                "tempo": 120.0
            },
            {
                "start_time": 106.6363636,
                "end_time": 106.9727273,
                "pitch": 32,
                "velocity": 64,
                "duration": 0.3363636,
                "tempo": 120.0
            },
            {
                "start_time": 107.0386364,
                "end_time": 107.3727273,
                "pitch": 32,
                "velocity": 64,
                "duration": 0.3340909,
                "tempo": 120.0
            },
            {
                "start_time": 107.4409091,
                "end_time": 107.775,
                "pitch": 32,
                "velocity": 64,
                "duration": 0.3340909,
                "tempo": 120.0
            },
            {
                "start_time": 107.8431818,
                "end_time": 108.1795455,
                "pitch": 32,
                "velocity": 64,
                "duration": 0.3363636,
                "tempo": 120.0
            },
            {
                "start_time": 108.2454545,
                "end_time": 108.5795455,
                "pitch": 32,
                "velocity": 64,
                "duration": 0.3340909,
                "tempo": 120.0
            },
            {
                "start_time": 108.6477273,
                "end_time": 108.9977273,
                "pitch": 32,
                "velocity": 64,
                "duration": 0.35,
                "tempo": 120.0
            },
            {
                "start_time": 109.0681818,
                "end_time": 109.4068182,
                "pitch": 32,
                "velocity": 64,
                "duration": 0.3386364,
                "tempo": 120.0
            },
            {
                "start_time": 109.8568182,
                "end_time": 110.1977273,
                "pitch": 37,
                "velocity": 80,
                "duration": 0.3409091,
                "tempo": 120.0
            },
            {
                "start_time": 110.2659091,
                "end_time": 110.5931818,
                "pitch": 37,
                "velocity": 80,
                "duration": 0.3272727,
                "tempo": 120.0
            },
            {
                "start_time": 110.6590909,
                "end_time": 111.0022727,
                "pitch": 37,
                "velocity": 80,
                "duration": 0.3431818,
                "tempo": 120.0
            },
            {
                "start_time": 111.0704545,
                "end_time": 111.4045455,
                "pitch": 37,
                "velocity": 80,
                "duration": 0.3340909,
                "tempo": 120.0
            },
            {
                "start_time": 111.4727273,
                "end_time": 111.8068182,
                "pitch": 37,
                "velocity": 64,
                "duration": 0.3340909,
                "tempo": 120.0
            },
            {
                "start_time": 111.875,
                "end_time": 112.2090909,
                "pitch": 37,
                "velocity": 64,
                "duration": 0.3340909,
                "tempo": 120.0
            },
            {
                "start_time": 112.275,
                "end_time": 112.6113636,
                "pitch": 37,
                "velocity": 64,
                "duration": 0.3363636,
                "tempo": 120.0
            },
            {
                "start_time": 112.6795455,
                "end_time": 113.0045455,
                "pitch": 37,
                "velocity": 64,
                "duration": 0.325,
                "tempo": 120.0
            },
            {
                "start_time": 113.0704545,
                "end_time": 113.4136364,
                "pitch": 37,
                "velocity": 51,
                "duration": 0.3431818,
                "tempo": 120.0
            },
            {
                "start_time": 113.4818182,
                "end_time": 113.8181818,
                "pitch": 37,
                "velocity": 51,
                "duration": 0.3363636,
                "tempo": 120.0
            },
            {
                "start_time": 113.8863636,
                "end_time": 114.2181818,
                "pitch": 37,
                "velocity": 51,
                "duration": 0.3318182,
                "tempo": 120.0
            },
            {
                "start_time": 114.2863636,
                "end_time": 114.6227273,
                "pitch": 37,
                "velocity": 51,
                "duration": 0.3363636,
                "tempo": 120.0
            },
            {
                "start_time": 114.6886364,
                "end_time": 115.025,
                "pitch": 37,
                "velocity": 64,
                "duration": 0.3363636,
                "tempo": 120.0
            },
            {
                "start_time": 115.0931818,
                "end_time": 115.4272727,
                "pitch": 37,
                "velocity": 64,
                "duration": 0.3340909,
                "tempo": 120.0
            },
            {
                "start_time": 115.4931818,
                "end_time": 115.8295455,
                "pitch": 37,
                "velocity": 64,
                "duration": 0.3363636,
                "tempo": 120.0
            },
            {
                "start_time": 115.8977273,
                "end_time": 116.2295455,
                "pitch": 37,
                "velocity": 64,
                "duration": 0.3318182,
                "tempo": 120.0
            },
            {
                "start_time": 116.2977273,
                "end_time": 116.625,
                "pitch": 37,
                "velocity": 51,
                "duration": 0.3272727,
                "tempo": 120.0
            },
            {
                "start_time": 116.6886364,
                "end_time": 117.0318182,
                "pitch": 37,
                "velocity": 51,
                "duration": 0.3431818,
                "tempo": 120.0
            },
            {
                "start_time": 117.1,
                "end_time": 117.4340909,
                "pitch": 37,
                "velocity": 51,
                "duration": 0.3340909,
                "tempo": 120.0
            },
            {
                "start_time": 117.5022727,
                "end_time": 117.8363636,
                "pitch": 37,
                "velocity": 51,
                "duration": 0.3340909,
                "tempo": 120.0
            },
            {
                "start_time": 117.9045455,
                "end_time": 118.2386364,
                "pitch": 37,
                "velocity": 40,
                "duration": 0.3340909,
                "tempo": 120.0
            },
            {
                "start_time": 118.3045455,
                "end_time": 118.6409091,
                "pitch": 37,
                "velocity": 40,
                "duration": 0.3363636,
                "tempo": 120.0
            },
            {
                "start_time": 118.7090909,
                "end_time": 119.0363636,
                "pitch": 37,
                "velocity": 51,
                "duration": 0.3272727,
                "tempo": 120.0
            },
            {
                "start_time": 119.1022727,
                "end_time": 119.4431818,
                "pitch": 37,
                "velocity": 51,
                "duration": 0.3409091,
                "tempo": 120.0
            },
            {
                "start_time": 119.5113636,
                "end_time": 119.8477273,
                "pitch": 37,
                "velocity": 51,
                "duration": 0.3363636,
                "tempo": 120.0
            },
            {
                "start_time": 119.9159091,
                "end_time": 120.25,
                "pitch": 37,
                "velocity": 51,
                "duration": 0.3340909,
                "tempo": 120.0
            },
            {
                "start_time": 120.3159091,
                "end_time": 120.6522727,
                "pitch": 37,
                "velocity": 64,
                "duration": 0.3363636,
                "tempo": 120.0
            },
            {
                "start_time": 120.7204545,
                "end_time": 121.0613636,
                "pitch": 37,
                "velocity": 64,
                "duration": 0.3409091,
                "tempo": 120.0
            },
            {
                "start_time": 121.1295455,
                "end_time": 121.4590909,
                "pitch": 37,
                "velocity": 64,
                "duration": 0.3295455,
                "tempo": 120.0
            },
            {
                "start_time": 121.525,
                "end_time": 121.8659091,
                "pitch": 37,
                "velocity": 80,
                "duration": 0.3409091,
                "tempo": 120.0
            },
            {
                "start_time": 121.9340909,
                "end_time": 122.2704545,
                "pitch": 37,
                "velocity": 80,
                "duration": 0.3363636,
                "tempo": 120.0
            },
            {
                "start_time": 122.3386364,
                "end_time": 122.6727273,
                "pitch": 37,
                "velocity": 101,
                "duration": 0.3340909,
                "tempo": 120.0
            },
            {
                "start_time": 122.7409091,
                "end_time": 123.075,
                "pitch": 37,
                "velocity": 80,
                "duration": 0.3340909,
                "tempo": 120.0
            },
            {
                "start_time": 123.1409091,
                "end_time": 123.4840909,
                "pitch": 37,
                "velocity": 80,
                "duration": 0.3431818,
                "tempo": 120.0
            },
            {
                "start_time": 123.5522727,
                "end_time": 123.8727273,
                "pitch": 37,
                "velocity": 80,
                "duration": 0.3204545,
                "tempo": 120.0
            },
            {
                "start_time": 123.9363636,
                "end_time": 124.2772727,
                "pitch": 37,
                "velocity": 80,
                "duration": 0.3409091,
                "tempo": 120.0
            },
            {
                "start_time": 124.3454545,
                "end_time": 124.6727273,
                "pitch": 37,
                "velocity": 64,
                "duration": 0.3272727,
                "tempo": 120.0
            },
            {
                "start_time": 124.7386364,
                "end_time": 125.075,
                "pitch": 37,
                "velocity": 64,
                "duration": 0.3363636,
                "tempo": 120.0
            },
            {
                "start_time": 125.1431818,
                "end_time": 125.475,
                "pitch": 37,
                "velocity": 64,
                "duration": 0.3318182,
                "tempo": 120.0
            },
            {
                "start_time": 125.5431818,
                "end_time": 125.8772727,
                "pitch": 37,
                "velocity": 64,
                "duration": 0.3340909,
                "tempo": 120.0
            },
            {
                "start_time": 125.9454545,
                "end_time": 126.2795455,
                "pitch": 37,
                "velocity": 51,
                "duration": 0.3340909,
                "tempo": 120.0
            },
            {
                "start_time": 126.3454545,
                "end_time": 126.6818182,
                "pitch": 37,
                "velocity": 51,
                "duration": 0.3363636,
                "tempo": 120.0
            },
            {
                "start_time": 126.75,
                "end_time": 127.0863636,
                "pitch": 37,
                "velocity": 51,
                "duration": 0.3363636,
                "tempo": 120.0
            },
            {
                "start_time": 127.1522727,
                "end_time": 127.4863636,
                "pitch": 37,
                "velocity": 51,
                "duration": 0.3340909,
                "tempo": 120.0
            },
            {
                "start_time": 127.5545455,
                "end_time": 127.8954545,
                "pitch": 37,
                "velocity": 64,
                "duration": 0.3409091,
                "tempo": 120.0
            },
            {
                "start_time": 127.9636364,
                "end_time": 128.3,
                "pitch": 37,
                "velocity": 64,
                "duration": 0.3363636,
                "tempo": 120.0
            },
            {
                "start_time": 128.3681818,
                "end_time": 128.7045455,
                "pitch": 37,
                "velocity": 64,
                "duration": 0.3363636,
                "tempo": 120.0
            },
            {
                "start_time": 128.7727273,
                "end_time": 129.1045455,
                "pitch": 37,
                "velocity": 64,
                "duration": 0.3318182,
                "tempo": 120.0
            },
            {
                "start_time": 129.1727273,
                "end_time": 129.5068182,
                "pitch": 37,
                "velocity": 51,
                "duration": 0.3340909,
                "tempo": 120.0
            },
            {
                "start_time": 129.575,
                "end_time": 129.9022727,
                "pitch": 37,
                "velocity": 51,
                "duration": 0.3272727,
                "tempo": 120.0
            },
            {
                "start_time": 129.9681818,
                "end_time": 130.3090909,
                "pitch": 37,
                "velocity": 51,
                "duration": 0.3409091,
                "tempo": 120.0
            },
            {
                "start_time": 130.3795455,
                "end_time": 130.7204545,
                "pitch": 37,
                "velocity": 51,
                "duration": 0.3409091,
                "tempo": 120.0
            },
            {
                "start_time": 130.7909091,
                "end_time": 131.1181818,
                "pitch": 37,
                "velocity": 40,
                "duration": 0.3272727,
                "tempo": 120.0
            },
            {
                "start_time": 131.1840909,
                "end_time": 131.5181818,
                "pitch": 37,
                "velocity": 40,
                "duration": 0.3340909,
                "tempo": 120.0
            },
            {
                "start_time": 131.5863636,
                "end_time": 131.9295455,
                "pitch": 37,
                "velocity": 51,
                "duration": 0.3431818,
                "tempo": 120.0
            },
            {
                "start_time": 131.9977273,
                "end_time": 132.325,
                "pitch": 37,
                "velocity": 51,
                "duration": 0.3272727,
                "tempo": 120.0
            },
            {
                "start_time": 132.3909091,
                "end_time": 132.7318182,
                "pitch": 37,
                "velocity": 51,
                "duration": 0.3409091,
                "tempo": 120.0
            },
            {
                "start_time": 132.8022727,
                "end_time": 133.1431818,
                "pitch": 37,
                "velocity": 51,
                "duration": 0.3409091,
                "tempo": 120.0
            },
            {
                "start_time": 133.2136364,
                "end_time": 133.5409091,
                "pitch": 37,
                "velocity": 64,
                "duration": 0.3272727,
                "tempo": 120.0
            },
            {
                "start_time": 133.6068182,
                "end_time": 133.9477273,
                "pitch": 37,
                "velocity": 64,
                "duration": 0.3409091,
                "tempo": 120.0
            },
            {
                "start_time": 134.0159091,
                "end_time": 134.3522727,
                "pitch": 37,
                "velocity": 64,
                "duration": 0.3363636,
                "tempo": 120.0
            },
            {
                "start_time": 134.4204545,
                "end_time": 134.7568182,
                "pitch": 37,
                "velocity": 80,
                "duration": 0.3363636,
                "tempo": 120.0
            },
            {
                "start_time": 134.8227273,
                "end_time": 135.1590909,
                "pitch": 37,
                "velocity": 80,
                "duration": 0.3363636,
                "tempo": 120.0
            },
            {
                "start_time": 135.2295455,
                "end_time": 135.5454545,
                "pitch": 37,
                "velocity": 101,
                "duration": 0.3159091,
                "tempo": 120.0
            },
            {
                "start_time": 135.6113636,
                "end_time": 135.9454545,
                "pitch": 37,
                "velocity": 64,
                "duration": 0.3340909,
                "tempo": 120.0
            },
            {
                "start_time": 136.0136364,
                "end_time": 136.0613636,
                "pitch": 37,
                "velocity": 64,
                "duration": 0.0477273,
                "tempo": 120.0
            }
        ],
        "Vibraphone": [
            {
                "start_time": 111.5727273,
                "end_time": 111.6227273,
                "pitch": 75,
                "velocity": 13,
                "duration": 0.05,
                "tempo": 120.0
            },
            {
                "start_time": 111.675,
                "end_time": 111.7227273,
                "pitch": 75,
                "velocity": 13,
                "duration": 0.0477273,
                "tempo": 120.0
            },
            {
                "start_time": 111.775,
                "end_time": 111.825,
                "pitch": 77,
                "velocity": 13,
                "duration": 0.05,
                "tempo": 120.0
            },
            {
                "start_time": 111.8772727,
                "end_time": 111.925,
                "pitch": 77,
                "velocity": 13,
                "duration": 0.0477273,
                "tempo": 120.0
            },
            {
                "start_time": 111.9772727,
                "end_time": 112.025,
                "pitch": 75,
                "velocity": 13,
                "duration": 0.0477273,
                "tempo": 120.0
            },
            {
                "start_time": 111.775,
                "end_time": 112.0772727,
                "pitch": 74,
                "velocity": 13,
                "duration": 0.3022727,
                "tempo": 120.0
            },
            {
                "start_time": 112.0772727,
                "end_time": 112.125,
                "pitch": 77,
                "velocity": 13,
                "duration": 0.0477273,
                "tempo": 120.0
            },
            {
                "start_time": 112.1772727,
                "end_time": 112.225,
                "pitch": 77,
                "velocity": 13,
                "duration": 0.0477273,
                "tempo": 120.0
            },
            {
                "start_time": 112.2772727,
                "end_time": 112.325,
                "pitch": 75,
                "velocity": 13,
                "duration": 0.0477273,
                "tempo": 120.0
            },
            {
                "start_time": 112.0772727,
                "end_time": 112.3772727,
                "pitch": 74,
                "velocity": 13,
                "duration": 0.3,
                "tempo": 120.0
            },
            {
                "start_time": 112.3772727,
                "end_time": 112.4272727,
                "pitch": 77,
                "velocity": 13,
                "duration": 0.05,
                "tempo": 120.0
            },
            {
                "start_time": 112.4772727,
                "end_time": 112.5272727,
                "pitch": 77,
                "velocity": 13,
                "duration": 0.05,
                "tempo": 120.0
            },
            {
                "start_time": 112.5795455,
                "end_time": 112.6272727,
                "pitch": 75,
                "velocity": 13,
                "duration": 0.0477273,
                "tempo": 120.0
            },
            {
                "start_time": 112.3772727,
                "end_time": 112.6795455,
                "pitch": 74,
                "velocity": 13,
                "duration": 0.3022727,
                "tempo": 120.0
            },
            {
                "start_time": 112.6795455,
                "end_time": 112.7272727,
                "pitch": 77,
                "velocity": 13,
                "duration": 0.0477273,
                "tempo": 120.0
            },
            {
                "start_time": 112.7772727,
                "end_time": 112.825,
                "pitch": 77,
                "velocity": 13,
                "duration": 0.0477273,
                "tempo": 120.0
            },
            {
                "start_time": 112.8772727,
                "end_time": 112.925,
                "pitch": 75,
                "velocity": 13,
                "duration": 0.0477273,
                "tempo": 120.0
            },
            {
                "start_time": 112.6795455,
                "end_time": 112.975,
                "pitch": 74,
                "velocity": 13,
                "duration": 0.2954545,
                "tempo": 120.0
            },
            {
                "start_time": 112.975,
                "end_time": 113.0227273,
                "pitch": 77,
                "velocity": 13,
                "duration": 0.0477273,
                "tempo": 120.0
            },
            {
                "start_time": 113.0727273,
                "end_time": 113.1204545,
                "pitch": 77,
                "velocity": 13,
                "duration": 0.0477273,
                "tempo": 120.0
            },
            {
                "start_time": 113.175,
                "end_time": 113.225,
                "pitch": 75,
                "velocity": 13,
                "duration": 0.05,
                "tempo": 120.0
            },
            {
                "start_time": 112.975,
                "end_time": 113.2772727,
                "pitch": 74,
                "velocity": 13,
                "duration": 0.3022727,
                "tempo": 120.0
            },
            {
                "start_time": 113.2772727,
                "end_time": 113.3272727,
                "pitch": 77,
                "velocity": 13,
                "duration": 0.05,
                "tempo": 120.0
            },
            {
                "start_time": 113.3795455,
                "end_time": 113.4295455,
                "pitch": 77,
                "velocity": 13,
                "duration": 0.05,
                "tempo": 120.0
            },
            {
                "start_time": 113.4840909,
                "end_time": 113.5318182,
                "pitch": 75,
                "velocity": 13,
                "duration": 0.0477273,
                "tempo": 120.0
            },
            {
                "start_time": 113.2772727,
                "end_time": 113.5840909,
                "pitch": 74,
                "velocity": 13,
                "duration": 0.3068182,
                "tempo": 120.0
            },
            {
                "start_time": 113.5840909,
                "end_time": 113.6340909,
                "pitch": 77,
                "velocity": 13,
                "duration": 0.05,
                "tempo": 120.0
            },
            {
                "start_time": 113.6840909,
                "end_time": 113.7340909,
                "pitch": 77,
                "velocity": 13,
                "duration": 0.05,
                "tempo": 120.0
            },
            {
                "start_time": 113.7863636,
                "end_time": 113.8340909,
                "pitch": 75,
                "velocity": 13,
                "duration": 0.0477273,
                "tempo": 120.0
            },
            {
                "start_time": 113.5840909,
                "end_time": 113.8863636,
                "pitch": 74,
                "velocity": 13,
                "duration": 0.3022727,
                "tempo": 120.0
            },
            {
                "start_time": 113.8863636,
                "end_time": 113.9363636,
                "pitch": 77,
                "velocity": 13,
                "duration": 0.05,
                "tempo": 120.0
            },
            {
                "start_time": 113.9863636,
                "end_time": 114.0363636,
                "pitch": 77,
                "velocity": 13,
                "duration": 0.05,
                "tempo": 120.0
            },
            {
                "start_time": 114.0863636,
                "end_time": 114.1363636,
                "pitch": 75,
                "velocity": 13,
                "duration": 0.05,
                "tempo": 120.0
            },
            {
                "start_time": 113.8863636,
                "end_time": 114.1863636,
                "pitch": 74,
                "velocity": 13,
                "duration": 0.3,
                "tempo": 120.0
            },
            {
                "start_time": 114.1863636,
                "end_time": 114.2363636,
                "pitch": 77,
                "velocity": 13,
                "duration": 0.05,
                "tempo": 120.0
            },
            {
                "start_time": 114.2886364,
                "end_time": 114.3363636,
                "pitch": 77,
                "velocity": 13,
                "duration": 0.0477273,
                "tempo": 120.0
            },
            {
                "start_time": 114.3886364,
                "end_time": 114.4363636,
                "pitch": 75,
                "velocity": 13,
                "duration": 0.0477273,
                "tempo": 120.0
            },
            {
                "start_time": 114.1863636,
                "end_time": 114.4886364,
                "pitch": 74,
                "velocity": 13,
                "duration": 0.3022727,
                "tempo": 120.0
            },
            {
                "start_time": 114.4886364,
                "end_time": 114.5386364,
                "pitch": 77,
                "velocity": 13,
                "duration": 0.05,
                "tempo": 120.0
            },
            {
                "start_time": 114.5909091,
                "end_time": 114.6386364,
                "pitch": 77,
                "velocity": 16,
                "duration": 0.0477273,
                "tempo": 120.0
            },
            {
                "start_time": 114.6909091,
                "end_time": 114.7386364,
                "pitch": 75,
                "velocity": 16,
                "duration": 0.0477273,
                "tempo": 120.0
            },
            {
                "start_time": 114.4886364,
                "end_time": 114.7909091,
                "pitch": 74,
                "velocity": 13,
                "duration": 0.3022727,
                "tempo": 120.0
            },
            {
                "start_time": 114.7909091,
                "end_time": 114.8409091,
                "pitch": 77,
                "velocity": 16,
                "duration": 0.05,
                "tempo": 120.0
            },
            {
                "start_time": 114.8931818,
                "end_time": 114.9409091,
                "pitch": 77,
                "velocity": 16,
                "duration": 0.0477273,
                "tempo": 120.0
            },
            {
                "start_time": 114.9931818,
                "end_time": 115.0431818,
                "pitch": 75,
                "velocity": 16,
                "duration": 0.05,
                "tempo": 120.0
            },
            {
                "start_time": 114.7909091,
                "end_time": 115.0954545,
                "pitch": 74,
                "velocity": 16,
                "duration": 0.3045455,
                "tempo": 120.0
            },
            {
                "start_time": 115.0931818,
                "end_time": 115.0954545,
                "pitch": 74,
                "velocity": 16,
                "duration": 0.0022727,
                "tempo": 120.0
            },
            {
                "start_time": 115.0954545,
                "end_time": 115.1431818,
                "pitch": 77,
                "velocity": 16,
                "duration": 0.0477273,
                "tempo": 120.0
            },
            {
                "start_time": 115.1931818,
                "end_time": 115.2431818,
                "pitch": 77,
                "velocity": 16,
                "duration": 0.05,
                "tempo": 120.0
            },
            {
                "start_time": 115.2931818,
                "end_time": 115.3431818,
                "pitch": 75,
                "velocity": 16,
                "duration": 0.05,
                "tempo": 120.0
            },
            {
                "start_time": 115.3931818,
                "end_time": 115.3954545,
                "pitch": 74,
                "velocity": 16,
                "duration": 0.0022727,
                "tempo": 120.0
            },
            {
                "start_time": 115.3954545,
                "end_time": 115.4431818,
                "pitch": 77,
                "velocity": 16,
                "duration": 0.0477273,
                "tempo": 120.0
            },
            {
                "start_time": 115.4954545,
                "end_time": 115.5431818,
                "pitch": 77,
                "velocity": 16,
                "duration": 0.0477273,
                "tempo": 120.0
            },
            {
                "start_time": 115.5954545,
                "end_time": 115.6454545,
                "pitch": 75,
                "velocity": 16,
                "duration": 0.05,
                "tempo": 120.0
            },
            {
                "start_time": 115.6954545,
                "end_time": 115.7454545,
                "pitch": 77,
                "velocity": 16,
                "duration": 0.05,
                "tempo": 120.0
            },
            {
                "start_time": 115.7977273,
                "end_time": 115.8454545,
                "pitch": 77,
                "velocity": 16,
                "duration": 0.0477273,
                "tempo": 120.0
            },
            {
                "start_time": 115.8977273,
                "end_time": 115.9454545,
                "pitch": 75,
                "velocity": 16,
                "duration": 0.0477273,
                "tempo": 120.0
            },
            {
                "start_time": 115.6954545,
                "end_time": 115.9977273,
                "pitch": 74,
                "velocity": 16,
                "duration": 0.3022727,
                "tempo": 120.0
            },
            {
                "start_time": 115.9977273,
                "end_time": 116.0454545,
                "pitch": 77,
                "velocity": 16,
                "duration": 0.0477273,
                "tempo": 120.0
            },
            {
                "start_time": 116.0977273,
                "end_time": 116.1477273,
                "pitch": 77,
                "velocity": 16,
                "duration": 0.05,
                "tempo": 120.0
            },
            {
                "start_time": 116.1977273,
                "end_time": 116.2477273,
                "pitch": 75,
                "velocity": 16,
                "duration": 0.05,
                "tempo": 120.0
            },
            {
                "start_time": 115.9977273,
                "end_time": 116.3,
                "pitch": 74,
                "velocity": 16,
                "duration": 0.3022727,
                "tempo": 120.0
            },
            {
                "start_time": 116.2977273,
                "end_time": 116.3,
                "pitch": 74,
                "velocity": 16,
                "duration": 0.0022727,
                "tempo": 120.0
            },
            {
                "start_time": 116.3,
                "end_time": 116.3454545,
                "pitch": 77,
                "velocity": 16,
                "duration": 0.0454545,
                "tempo": 120.0
            },
            {
                "start_time": 116.3954545,
                "end_time": 116.4454545,
                "pitch": 77,
                "velocity": 16,
                "duration": 0.05,
                "tempo": 120.0
            },
            {
                "start_time": 116.4954545,
                "end_time": 116.5431818,
                "pitch": 75,
                "velocity": 16,
                "duration": 0.0477273,
                "tempo": 120.0
            },
            {
                "start_time": 116.5931818,
                "end_time": 116.6409091,
                "pitch": 77,
                "velocity": 16,
                "duration": 0.0477273,
                "tempo": 120.0
            },
            {
                "start_time": 116.6909091,
                "end_time": 116.7409091,
                "pitch": 77,
                "velocity": 16,
                "duration": 0.05,
                "tempo": 120.0
            },
            {
                "start_time": 116.7931818,
                "end_time": 116.8431818,
                "pitch": 75,
                "velocity": 16,
                "duration": 0.05,
                "tempo": 120.0
            },
            {
                "start_time": 116.5931818,
                "end_time": 116.8954545,
                "pitch": 74,
                "velocity": 16,
                "duration": 0.3022727,
                "tempo": 120.0
            },
            {
                "start_time": 116.8954545,
                "end_time": 116.9454545,
                "pitch": 77,
                "velocity": 16,
                "duration": 0.05,
                "tempo": 120.0
            },
            {
                "start_time": 116.9977273,
                "end_time": 117.0477273,
                "pitch": 77,
                "velocity": 16,
                "duration": 0.05,
                "tempo": 120.0
            },
            {
                "start_time": 117.1022727,
                "end_time": 117.15,
                "pitch": 75,
                "velocity": 16,
                "duration": 0.0477273,
                "tempo": 120.0
            },
            {
                "start_time": 116.8954545,
                "end_time": 117.2022727,
                "pitch": 74,
                "velocity": 16,
                "duration": 0.3068182,
                "tempo": 120.0
            },
            {
                "start_time": 117.2022727,
                "end_time": 117.2522727,
                "pitch": 77,
                "velocity": 16,
                "duration": 0.05,
                "tempo": 120.0
            },
            {
                "start_time": 117.3022727,
                "end_time": 117.3522727,
                "pitch": 77,
                "velocity": 16,
                "duration": 0.05,
                "tempo": 120.0
            },
            {
                "start_time": 117.4022727,
                "end_time": 117.4522727,
                "pitch": 75,
                "velocity": 16,
                "duration": 0.05,
                "tempo": 120.0
            },
            {
                "start_time": 117.2022727,
                "end_time": 117.5022727,
                "pitch": 74,
                "velocity": 16,
                "duration": 0.3,
                "tempo": 120.0
            },
            {
                "start_time": 117.5022727,
                "end_time": 117.5522727,
                "pitch": 77,
                "velocity": 16,
                "duration": 0.05,
                "tempo": 120.0
            },
            {
                "start_time": 117.6045455,
                "end_time": 117.6522727,
                "pitch": 77,
                "velocity": 20,
                "duration": 0.0477273,
                "tempo": 120.0
            },
            {
                "start_time": 117.7045455,
                "end_time": 117.7545455,
                "pitch": 75,
                "velocity": 20,
                "duration": 0.05,
                "tempo": 120.0
            },
            {
                "start_time": 117.5022727,
                "end_time": 117.8045455,
                "pitch": 74,
                "velocity": 16,
                "duration": 0.3022727,
                "tempo": 120.0
            },
            {
                "start_time": 117.8045455,
                "end_time": 117.8545455,
                "pitch": 77,
                "velocity": 20,
                "duration": 0.05,
                "tempo": 120.0
            },
            {
                "start_time": 117.9068182,
                "end_time": 117.9545455,
                "pitch": 77,
                "velocity": 20,
                "duration": 0.0477273,
                "tempo": 120.0
            },
            {
                "start_time": 118.0068182,
                "end_time": 118.0545455,
                "pitch": 75,
                "velocity": 20,
                "duration": 0.0477273,
                "tempo": 120.0
            },
            {
                "start_time": 117.8045455,
                "end_time": 118.1068182,
                "pitch": 74,
                "velocity": 20,
                "duration": 0.3022727,
                "tempo": 120.0
            },
            {
                "start_time": 118.1068182,
                "end_time": 118.1545455,
                "pitch": 77,
                "velocity": 20,
                "duration": 0.0477273,
                "tempo": 120.0
            },
            {
                "start_time": 118.2068182,
                "end_time": 118.2545455,
                "pitch": 77,
                "velocity": 20,
                "duration": 0.0477273,
                "tempo": 120.0
            },
            {
                "start_time": 118.3068182,
                "end_time": 118.3568182,
                "pitch": 75,
                "velocity": 20,
                "duration": 0.05,
                "tempo": 120.0
            },
            {
                "start_time": 118.1068182,
                "end_time": 118.4068182,
                "pitch": 74,
                "velocity": 20,
                "duration": 0.3,
                "tempo": 120.0
            },
            {
                "start_time": 118.4068182,
                "end_time": 118.4568182,
                "pitch": 77,
                "velocity": 20,
                "duration": 0.05,
                "tempo": 120.0
            },
            {
                "start_time": 118.5090909,
                "end_time": 118.5568182,
                "pitch": 77,
                "velocity": 20,
                "duration": 0.0477273,
                "tempo": 120.0
            },
            {
                "start_time": 118.6090909,
                "end_time": 118.6590909,
                "pitch": 75,
                "velocity": 20,
                "duration": 0.05,
                "tempo": 120.0
            },
            {
                "start_time": 118.4068182,
                "end_time": 118.7113636,
                "pitch": 74,
                "velocity": 20,
                "duration": 0.3045455,
                "tempo": 120.0
            },
            {
                "start_time": 118.7113636,
                "end_time": 118.7568182,
                "pitch": 77,
                "velocity": 20,
                "duration": 0.0454545,
                "tempo": 120.0
            },
            {
                "start_time": 118.8090909,
                "end_time": 118.8568182,
                "pitch": 77,
                "velocity": 20,
                "duration": 0.0477273,
                "tempo": 120.0
            },
            {
                "start_time": 118.9068182,
                "end_time": 118.9545455,
                "pitch": 75,
                "velocity": 20,
                "duration": 0.0477273,
                "tempo": 120.0
            },
            {
                "start_time": 118.7113636,
                "end_time": 119.0045455,
                "pitch": 74,
                "velocity": 20,
                "duration": 0.2931818,
                "tempo": 120.0
            },
            {
                "start_time": 119.0045455,
                "end_time": 119.0522727,
                "pitch": 77,
                "velocity": 20,
                "duration": 0.0477273,
                "tempo": 120.0
            },
            {
                "start_time": 119.1045455,
                "end_time": 119.1522727,
                "pitch": 77,
                "velocity": 20,
                "duration": 0.0477273,
                "tempo": 120.0
            },
            {
                "start_time": 119.2045455,
                "end_time": 119.2545455,
                "pitch": 75,
                "velocity": 20,
                "duration": 0.05,
                "tempo": 120.0
            },
            {
                "start_time": 119.0045455,
                "end_time": 119.3068182,
                "pitch": 74,
                "velocity": 20,
                "duration": 0.3022727,
                "tempo": 120.0
            },
            {
                "start_time": 119.3068182,
                "end_time": 119.3568182,
                "pitch": 77,
                "velocity": 20,
                "duration": 0.05,
                "tempo": 120.0
            },
            {
                "start_time": 119.4113636,
                "end_time": 119.4613636,
                "pitch": 77,
                "velocity": 20,
                "duration": 0.05,
                "tempo": 120.0
            },
            {
                "start_time": 119.5136364,
                "end_time": 119.5636364,
                "pitch": 75,
                "velocity": 20,
                "duration": 0.05,
                "tempo": 120.0
            },
            {
                "start_time": 119.3068182,
                "end_time": 119.6136364,
                "pitch": 74,
                "velocity": 20,
                "duration": 0.3068182,
                "tempo": 120.0
            },
            {
                "start_time": 119.6136364,
                "end_time": 119.6636364,
                "pitch": 77,
                "velocity": 20,
                "duration": 0.05,
                "tempo": 120.0
            },
            {
                "start_time": 119.7159091,
                "end_time": 119.7636364,
                "pitch": 77,
                "velocity": 20,
                "duration": 0.0477273,
                "tempo": 120.0
            },
            {
                "start_time": 119.8159091,
                "end_time": 119.8659091,
                "pitch": 75,
                "velocity": 20,
                "duration": 0.05,
                "tempo": 120.0
            },
            {
                "start_time": 119.6136364,
                "end_time": 119.9181818,
                "pitch": 74,
                "velocity": 20,
                "duration": 0.3045455,
                "tempo": 120.0
            },
            {
                "start_time": 119.9181818,
                "end_time": 119.9659091,
                "pitch": 77,
                "velocity": 20,
                "duration": 0.0477273,
                "tempo": 120.0
            },
            {
                "start_time": 120.0159091,
                "end_time": 120.0659091,
                "pitch": 77,
                "velocity": 20,
                "duration": 0.05,
                "tempo": 120.0
            },
            {
                "start_time": 120.1181818,
                "end_time": 120.1659091,
                "pitch": 75,
                "velocity": 20,
                "duration": 0.0477273,
                "tempo": 120.0
            },
            {
                "start_time": 119.9181818,
                "end_time": 120.2181818,
                "pitch": 74,
                "velocity": 20,
                "duration": 0.3,
                "tempo": 120.0
            },
            {
                "start_time": 120.2181818,
                "end_time": 120.2659091,
                "pitch": 77,
                "velocity": 20,
                "duration": 0.0477273,
                "tempo": 120.0
            },
            {
                "start_time": 120.3181818,
                "end_time": 120.3659091,
                "pitch": 77,
                "velocity": 20,
                "duration": 0.0477273,
                "tempo": 120.0
            },
            {
                "start_time": 120.4181818,
                "end_time": 120.4681818,
                "pitch": 75,
                "velocity": 20,
                "duration": 0.05,
                "tempo": 120.0
            },
            {
                "start_time": 120.2181818,
                "end_time": 120.5181818,
                "pitch": 74,
                "velocity": 20,
                "duration": 0.3,
                "tempo": 120.0
            },
            {
                "start_time": 120.5181818,
                "end_time": 120.5681818,
                "pitch": 77,
                "velocity": 20,
                "duration": 0.05,
                "tempo": 120.0
            },
            {
                "start_time": 120.6204545,
                "end_time": 120.6681818,
                "pitch": 77,
                "velocity": 25,
                "duration": 0.0477273,
                "tempo": 120.0
            },
            {
                "start_time": 120.7204545,
                "end_time": 120.7704545,
                "pitch": 75,
                "velocity": 25,
                "duration": 0.05,
                "tempo": 120.0
            },
            {
                "start_time": 120.5181818,
                "end_time": 120.8227273,
                "pitch": 74,
                "velocity": 20,
                "duration": 0.3045455,
                "tempo": 120.0
            },
            {
                "start_time": 120.8227273,
                "end_time": 120.8727273,
                "pitch": 77,
                "velocity": 25,
                "duration": 0.05,
                "tempo": 120.0
            },
            {
                "start_time": 120.925,
                "end_time": 120.9772727,
                "pitch": 77,
                "velocity": 25,
                "duration": 0.0522727,
                "tempo": 120.0
            },
            {
                "start_time": 121.0295455,
                "end_time": 121.0795455,
                "pitch": 75,
                "velocity": 25,
                "duration": 0.05,
                "tempo": 120.0
            },
            {
                "start_time": 120.8227273,
                "end_time": 121.1318182,
                "pitch": 74,
                "velocity": 25,
                "duration": 0.3090909,
                "tempo": 120.0
            },
            {
                "start_time": 121.1318182,
                "end_time": 121.1795455,
                "pitch": 77,
                "velocity": 25,
                "duration": 0.0477273,
                "tempo": 120.0
            },
            {
                "start_time": 121.2295455,
                "end_time": 121.2772727,
                "pitch": 77,
                "velocity": 25,
                "duration": 0.0477273,
                "tempo": 120.0
            },
            {
                "start_time": 121.3295455,
                "end_time": 121.3772727,
                "pitch": 75,
                "velocity": 25,
                "duration": 0.0477273,
                "tempo": 120.0
            },
            {
                "start_time": 121.1318182,
                "end_time": 121.4272727,
                "pitch": 74,
                "velocity": 25,
                "duration": 0.2954545,
                "tempo": 120.0
            },
            {
                "start_time": 121.4272727,
                "end_time": 121.475,
                "pitch": 77,
                "velocity": 25,
                "duration": 0.0477273,
                "tempo": 120.0
            },
            {
                "start_time": 121.5272727,
                "end_time": 121.575,
                "pitch": 77,
                "velocity": 25,
                "duration": 0.0477273,
                "tempo": 120.0
            },
            {
                "start_time": 121.6272727,
                "end_time": 121.6772727,
                "pitch": 75,
                "velocity": 25,
                "duration": 0.05,
                "tempo": 120.0
            },
            {
                "start_time": 121.4272727,
                "end_time": 121.7295455,
                "pitch": 74,
                "velocity": 25,
                "duration": 0.3022727,
                "tempo": 120.0
            },
            {
                "start_time": 121.7295455,
                "end_time": 121.7795455,
                "pitch": 77,
                "velocity": 25,
                "duration": 0.05,
                "tempo": 120.0
            },
            {
                "start_time": 121.8318182,
                "end_time": 121.8818182,
                "pitch": 77,
                "velocity": 25,
                "duration": 0.05,
                "tempo": 120.0
            },
            {
                "start_time": 121.9363636,
                "end_time": 121.9840909,
                "pitch": 75,
                "velocity": 25,
                "duration": 0.0477273,
                "tempo": 120.0
            },
            {
                "start_time": 121.7295455,
                "end_time": 122.0363636,
                "pitch": 74,
                "velocity": 25,
                "duration": 0.3068182,
                "tempo": 120.0
            },
            {
                "start_time": 122.0363636,
                "end_time": 122.0863636,
                "pitch": 77,
                "velocity": 25,
                "duration": 0.05,
                "tempo": 120.0
            },
            {
                "start_time": 122.1386364,
                "end_time": 122.1863636,
                "pitch": 77,
                "velocity": 25,
                "duration": 0.0477273,
                "tempo": 120.0
            },
            {
                "start_time": 122.2386364,
                "end_time": 122.2886364,
                "pitch": 75,
                "velocity": 25,
                "duration": 0.05,
                "tempo": 120.0
            },
            {
                "start_time": 122.0363636,
                "end_time": 122.3409091,
                "pitch": 74,
                "velocity": 25,
                "duration": 0.3045455,
                "tempo": 120.0
            },
            {
                "start_time": 122.3409091,
                "end_time": 122.3886364,
                "pitch": 77,
                "velocity": 25,
                "duration": 0.0477273,
                "tempo": 120.0
            },
            {
                "start_time": 122.4409091,
                "end_time": 122.4886364,
                "pitch": 77,
                "velocity": 25,
                "duration": 0.0477273,
                "tempo": 120.0
            },
            {
                "start_time": 122.5409091,
                "end_time": 122.5886364,
                "pitch": 75,
                "velocity": 25,
                "duration": 0.0477273,
                "tempo": 120.0
            },
            {
                "start_time": 122.3409091,
                "end_time": 122.6409091,
                "pitch": 74,
                "velocity": 25,
                "duration": 0.3,
                "tempo": 120.0
            },
            {
                "start_time": 122.6409091,
                "end_time": 122.6909091,
                "pitch": 77,
                "velocity": 25,
                "duration": 0.05,
                "tempo": 120.0
            },
            {
                "start_time": 122.7431818,
                "end_time": 122.7909091,
                "pitch": 77,
                "velocity": 25,
                "duration": 0.0477273,
                "tempo": 120.0
            },
            {
                "start_time": 122.8431818,
                "end_time": 122.8909091,
                "pitch": 75,
                "velocity": 25,
                "duration": 0.0477273,
                "tempo": 120.0
            },
            {
                "start_time": 122.6409091,
                "end_time": 122.9431818,
                "pitch": 74,
                "velocity": 25,
                "duration": 0.3022727,
                "tempo": 120.0
            },
            {
                "start_time": 122.9431818,
                "end_time": 122.9909091,
                "pitch": 77,
                "velocity": 25,
                "duration": 0.0477273,
                "tempo": 120.0
            },
            {
                "start_time": 123.0431818,
                "end_time": 123.0909091,
                "pitch": 77,
                "velocity": 25,
                "duration": 0.0477273,
                "tempo": 120.0
            },
            {
                "start_time": 123.1431818,
                "end_time": 123.1931818,
                "pitch": 75,
                "velocity": 25,
                "duration": 0.05,
                "tempo": 120.0
            },
            {
                "start_time": 122.9431818,
                "end_time": 123.2454545,
                "pitch": 74,
                "velocity": 25,
                "duration": 0.3022727,
                "tempo": 120.0
            },
            {
                "start_time": 123.2454545,
                "end_time": 123.2954545,
                "pitch": 77,
                "velocity": 25,
                "duration": 0.05,
                "tempo": 120.0
            },
            {
                "start_time": 123.3477273,
                "end_time": 123.3977273,
                "pitch": 77,
                "velocity": 25,
                "duration": 0.05,
                "tempo": 120.0
            },
            {
                "start_time": 123.45,
                "end_time": 123.5,
                "pitch": 75,
                "velocity": 25,
                "duration": 0.05,
                "tempo": 120.0
            },
            {
                "start_time": 123.2454545,
                "end_time": 123.5545455,
                "pitch": 74,
                "velocity": 25,
                "duration": 0.3090909,
                "tempo": 120.0
            },
            {
                "start_time": 123.5545455,
                "end_time": 123.6022727,
                "pitch": 77,
                "velocity": 25,
                "duration": 0.0477273,
                "tempo": 120.0
            },
            {
                "start_time": 123.65,
                "end_time": 123.6977273,
                "pitch": 77,
                "velocity": 32,
                "duration": 0.0477273,
                "tempo": 120.0
            },
            {
                "start_time": 123.7454545,
                "end_time": 123.7931818,
                "pitch": 75,
                "velocity": 32,
                "duration": 0.0477273,
                "tempo": 120.0
            },
            {
                "start_time": 123.5545455,
                "end_time": 123.8409091,
                "pitch": 74,
                "velocity": 25,
                "duration": 0.2863636,
                "tempo": 120.0
            },
            {
                "start_time": 123.8409091,
                "end_time": 123.8886364,
                "pitch": 77,
                "velocity": 32,
                "duration": 0.0477273,
                "tempo": 120.0
            },
            {
                "start_time": 123.9386364,
                "end_time": 123.9863636,
                "pitch": 77,
                "velocity": 32,
                "duration": 0.0477273,
                "tempo": 120.0
            },
            {
                "start_time": 124.0386364,
                "end_time": 124.0886364,
                "pitch": 75,
                "velocity": 32,
                "duration": 0.05,
                "tempo": 120.0
            },
            {
                "start_time": 123.8409091,
                "end_time": 124.1409091,
                "pitch": 74,
                "velocity": 32,
                "duration": 0.3,
                "tempo": 120.0
            },
            {
                "start_time": 124.1409091,
                "end_time": 124.1909091,
                "pitch": 77,
                "velocity": 32,
                "duration": 0.05,
                "tempo": 120.0
            },
            {
                "start_time": 124.2454545,
                "end_time": 124.2954545,
                "pitch": 77,
                "velocity": 32,
                "duration": 0.05,
                "tempo": 120.0
            },
            {
                "start_time": 124.3477273,
                "end_time": 124.3954545,
                "pitch": 75,
                "velocity": 32,
                "duration": 0.0477273,
                "tempo": 120.0
            },
            {
                "start_time": 124.1409091,
                "end_time": 124.4454545,
                "pitch": 74,
                "velocity": 32,
                "duration": 0.3045455,
                "tempo": 120.0
            },
            {
                "start_time": 124.4454545,
                "end_time": 124.4931818,
                "pitch": 77,
                "velocity": 32,
                "duration": 0.0477273,
                "tempo": 120.0
            },
            {
                "start_time": 124.5454545,
                "end_time": 124.5909091,
                "pitch": 77,
                "velocity": 32,
                "duration": 0.0454545,
                "tempo": 120.0
            },
            {
                "start_time": 124.6431818,
                "end_time": 124.6909091,
                "pitch": 75,
                "velocity": 32,
                "duration": 0.0477273,
                "tempo": 120.0
            },
            {
                "start_time": 124.4454545,
                "end_time": 124.7409091,
                "pitch": 74,
                "velocity": 32,
                "duration": 0.2954545,
                "tempo": 120.0
            },
            {
                "start_time": 124.7409091,
                "end_time": 124.7886364,
                "pitch": 77,
                "velocity": 32,
                "duration": 0.0477273,
                "tempo": 120.0
            },
            {
                "start_time": 124.8409091,
                "end_time": 124.8909091,
                "pitch": 77,
                "velocity": 32,
                "duration": 0.05,
                "tempo": 120.0
            },
            {
                "start_time": 124.9409091,
                "end_time": 124.9909091,
                "pitch": 75,
                "velocity": 32,
                "duration": 0.05,
                "tempo": 120.0
            },
            {
                "start_time": 124.7409091,
                "end_time": 125.0431818,
                "pitch": 74,
                "velocity": 32,
                "duration": 0.3022727,
                "tempo": 120.0
            },
            {
                "start_time": 125.0431818,
                "end_time": 125.0909091,
                "pitch": 77,
                "velocity": 32,
                "duration": 0.0477273,
                "tempo": 120.0
            },
            {
                "start_time": 125.1431818,
                "end_time": 125.1931818,
                "pitch": 77,
                "velocity": 32,
                "duration": 0.05,
                "tempo": 120.0
            },
            {
                "start_time": 125.2431818,
                "end_time": 125.2931818,
                "pitch": 75,
                "velocity": 32,
                "duration": 0.05,
                "tempo": 120.0
            },
            {
                "start_time": 125.0431818,
                "end_time": 125.3431818,
                "pitch": 74,
                "velocity": 32,
                "duration": 0.3,
                "tempo": 120.0
            },
            {
                "start_time": 125.3431818,
                "end_time": 125.3931818,
                "pitch": 77,
                "velocity": 32,
                "duration": 0.05,
                "tempo": 120.0
            },
            {
                "start_time": 125.4431818,
                "end_time": 125.4931818,
                "pitch": 77,
                "velocity": 32,
                "duration": 0.05,
                "tempo": 120.0
            },
            {
                "start_time": 125.5454545,
                "end_time": 125.5931818,
                "pitch": 75,
                "velocity": 32,
                "duration": 0.0477273,
                "tempo": 120.0
            },
            {
                "start_time": 125.3431818,
                "end_time": 125.6454545,
                "pitch": 74,
                "velocity": 32,
                "duration": 0.3022727,
                "tempo": 120.0
            },
            {
                "start_time": 125.6454545,
                "end_time": 125.6931818,
                "pitch": 77,
                "velocity": 32,
                "duration": 0.0477273,
                "tempo": 120.0
            },
            {
                "start_time": 125.7454545,
                "end_time": 125.7954545,
                "pitch": 77,
                "velocity": 32,
                "duration": 0.05,
                "tempo": 120.0
            },
            {
                "start_time": 125.8454545,
                "end_time": 125.8954545,
                "pitch": 75,
                "velocity": 32,
                "duration": 0.05,
                "tempo": 120.0
            },
            {
                "start_time": 125.6454545,
                "end_time": 125.9477273,
                "pitch": 74,
                "velocity": 32,
                "duration": 0.3022727,
                "tempo": 120.0
            },
            {
                "start_time": 125.9477273,
                "end_time": 125.9954545,
                "pitch": 77,
                "velocity": 32,
                "duration": 0.0477273,
                "tempo": 120.0
            },
            {
                "start_time": 126.0477273,
                "end_time": 126.0954545,
                "pitch": 77,
                "velocity": 32,
                "duration": 0.0477273,
                "tempo": 120.0
            },
            {
                "start_time": 126.1477273,
                "end_time": 126.1954545,
                "pitch": 75,
                "velocity": 32,
                "duration": 0.0477273,
                "tempo": 120.0
            },
            {
                "start_time": 125.9477273,
                "end_time": 126.2477273,
                "pitch": 74,
                "velocity": 32,
                "duration": 0.3,
                "tempo": 120.0
            },
            {
                "start_time": 126.2477273,
                "end_time": 126.2954545,
                "pitch": 77,
                "velocity": 32,
                "duration": 0.0477273,
                "tempo": 120.0
            },
            {
                "start_time": 126.3477273,
                "end_time": 126.3977273,
                "pitch": 77,
                "velocity": 32,
                "duration": 0.05,
                "tempo": 120.0
            },
            {
                "start_time": 126.4477273,
                "end_time": 126.4977273,
                "pitch": 75,
                "velocity": 32,
                "duration": 0.05,
                "tempo": 120.0
            },
            {
                "start_time": 126.2477273,
                "end_time": 126.55,
                "pitch": 74,
                "velocity": 32,
                "duration": 0.3022727,
                "tempo": 120.0
            },
            {
                "start_time": 126.55,
                "end_time": 126.5977273,
                "pitch": 77,
                "velocity": 32,
                "duration": 0.0477273,
                "tempo": 120.0
            },
            {
                "start_time": 126.65,
                "end_time": 126.7,
                "pitch": 77,
                "velocity": 25,
                "duration": 0.05,
                "tempo": 120.0
            },
            {
                "start_time": 126.7522727,
                "end_time": 126.8,
                "pitch": 75,
                "velocity": 25,
                "duration": 0.0477273,
                "tempo": 120.0
            },
            {
                "start_time": 126.55,
                "end_time": 126.8522727,
                "pitch": 74,
                "velocity": 32,
                "duration": 0.3022727,
                "tempo": 120.0
            },
            {
                "start_time": 126.8522727,
                "end_time": 126.9,
                "pitch": 77,
                "velocity": 25,
                "duration": 0.0477273,
                "tempo": 120.0
            },
            {
                "start_time": 126.9522727,
                "end_time": 127.0022727,
                "pitch": 77,
                "velocity": 25,
                "duration": 0.05,
                "tempo": 120.0
            },
            {
                "start_time": 127.0522727,
                "end_time": 127.1022727,
                "pitch": 75,
                "velocity": 25,
                "duration": 0.05,
                "tempo": 120.0
            },
            {
                "start_time": 126.8522727,
                "end_time": 127.1545455,
                "pitch": 74,
                "velocity": 25,
                "duration": 0.3022727,
                "tempo": 120.0
            },
            {
                "start_time": 127.1545455,
                "end_time": 127.2022727,
                "pitch": 77,
                "velocity": 25,
                "duration": 0.0477273,
                "tempo": 120.0
            },
            {
                "start_time": 127.2545455,
                "end_time": 127.3022727,
                "pitch": 77,
                "velocity": 25,
                "duration": 0.0477273,
                "tempo": 120.0
            },
            {
                "start_time": 127.3545455,
                "end_time": 127.4045455,
                "pitch": 75,
                "velocity": 25,
                "duration": 0.05,
                "tempo": 120.0
            },
            {
                "start_time": 127.1545455,
                "end_time": 127.4545455,
                "pitch": 74,
                "velocity": 25,
                "duration": 0.3,
                "tempo": 120.0
            },
            {
                "start_time": 127.4545455,
                "end_time": 127.5045455,
                "pitch": 77,
                "velocity": 25,
                "duration": 0.05,
                "tempo": 120.0
            },
            {
                "start_time": 127.5568182,
                "end_time": 127.6045455,
                "pitch": 77,
                "velocity": 25,
                "duration": 0.0477273,
                "tempo": 120.0
            },
            {
                "start_time": 127.6568182,
                "end_time": 127.7068182,
                "pitch": 75,
                "velocity": 25,
                "duration": 0.05,
                "tempo": 120.0
            },
            {
                "start_time": 127.4545455,
                "end_time": 127.7590909,
                "pitch": 74,
                "velocity": 25,
                "duration": 0.3045455,
                "tempo": 120.0
            },
            {
                "start_time": 127.7590909,
                "end_time": 127.8113636,
                "pitch": 77,
                "velocity": 25,
                "duration": 0.0522727,
                "tempo": 120.0
            },
            {
                "start_time": 127.8636364,
                "end_time": 127.9136364,
                "pitch": 77,
                "velocity": 25,
                "duration": 0.05,
                "tempo": 120.0
            },
            {
                "start_time": 127.9659091,
                "end_time": 128.0159091,
                "pitch": 75,
                "velocity": 25,
                "duration": 0.05,
                "tempo": 120.0
            },
            {
                "start_time": 127.7590909,
                "end_time": 128.0659091,
                "pitch": 74,
                "velocity": 25,
                "duration": 0.3068182,
                "tempo": 120.0
            },
            {
                "start_time": 128.0659091,
                "end_time": 128.1159091,
                "pitch": 77,
                "velocity": 25,
                "duration": 0.05,
                "tempo": 120.0
            },
            {
                "start_time": 128.1681818,
                "end_time": 128.2159091,
                "pitch": 77,
                "velocity": 25,
                "duration": 0.0477273,
                "tempo": 120.0
            },
            {
                "start_time": 128.2681818,
                "end_time": 128.3181818,
                "pitch": 75,
                "velocity": 25,
                "duration": 0.05,
                "tempo": 120.0
            },
            {
                "start_time": 128.0659091,
                "end_time": 128.3704545,
                "pitch": 74,
                "velocity": 25,
                "duration": 0.3045455,
                "tempo": 120.0
            },
            {
                "start_time": 128.3704545,
                "end_time": 128.4181818,
                "pitch": 77,
                "velocity": 25,
                "duration": 0.0477273,
                "tempo": 120.0
            },
            {
                "start_time": 128.4704545,
                "end_time": 128.5204545,
                "pitch": 77,
                "velocity": 25,
                "duration": 0.05,
                "tempo": 120.0
            },
            {
                "start_time": 128.5704545,
                "end_time": 128.6204545,
                "pitch": 75,
                "velocity": 25,
                "duration": 0.05,
                "tempo": 120.0
            },
            {
                "start_time": 128.3704545,
                "end_time": 128.6727273,
                "pitch": 74,
                "velocity": 25,
                "duration": 0.3022727,
                "tempo": 120.0
            },
            {
                "start_time": 128.6727273,
                "end_time": 128.7204545,
                "pitch": 77,
                "velocity": 25,
                "duration": 0.0477273,
                "tempo": 120.0
            },
            {
                "start_time": 128.7727273,
                "end_time": 128.8204545,
                "pitch": 77,
                "velocity": 25,
                "duration": 0.0477273,
                "tempo": 120.0
            },
            {
                "start_time": 128.8727273,
                "end_time": 128.9204545,
                "pitch": 75,
                "velocity": 25,
                "duration": 0.0477273,
                "tempo": 120.0
            },
            {
                "start_time": 128.6727273,
                "end_time": 128.9727273,
                "pitch": 74,
                "velocity": 25,
                "duration": 0.3,
                "tempo": 120.0
            },
            {
                "start_time": 128.9727273,
                "end_time": 129.0227273,
                "pitch": 77,
                "velocity": 25,
                "duration": 0.05,
                "tempo": 120.0
            },
            {
                "start_time": 129.0727273,
                "end_time": 129.1227273,
                "pitch": 77,
                "velocity": 25,
                "duration": 0.05,
                "tempo": 120.0
            },
            {
                "start_time": 129.175,
                "end_time": 129.2227273,
                "pitch": 75,
                "velocity": 25,
                "duration": 0.0477273,
                "tempo": 120.0
            },
            {
                "start_time": 128.9727273,
                "end_time": 129.2727273,
                "pitch": 74,
                "velocity": 25,
                "duration": 0.3,
                "tempo": 120.0
            },
            {
                "start_time": 129.2727273,
                "end_time": 129.3227273,
                "pitch": 77,
                "velocity": 25,
                "duration": 0.05,
                "tempo": 120.0
            },
            {
                "start_time": 129.375,
                "end_time": 129.4227273,
                "pitch": 77,
                "velocity": 25,
                "duration": 0.0477273,
                "tempo": 120.0
            },
            {
                "start_time": 129.475,
                "end_time": 129.525,
                "pitch": 75,
                "velocity": 25,
                "duration": 0.05,
                "tempo": 120.0
            },
            {
                "start_time": 129.2727273,
                "end_time": 129.5772727,
                "pitch": 74,
                "velocity": 25,
                "duration": 0.3045455,
                "tempo": 120.0
            },
            {
                "start_time": 129.5772727,
                "end_time": 129.625,
                "pitch": 77,
                "velocity": 25,
                "duration": 0.0477273,
                "tempo": 120.0
            },
            {
                "start_time": 129.675,
                "end_time": 129.7227273,
                "pitch": 77,
                "velocity": 20,
                "duration": 0.0477273,
                "tempo": 120.0
            },
            {
                "start_time": 129.7727273,
                "end_time": 129.8204545,
                "pitch": 75,
                "velocity": 20,
                "duration": 0.0477273,
                "tempo": 120.0
            },
            {
                "start_time": 129.5772727,
                "end_time": 129.8704545,
                "pitch": 74,
                "velocity": 25,
                "duration": 0.2931818,
                "tempo": 120.0
            },
            {
                "start_time": 129.8704545,
                "end_time": 129.9181818,
                "pitch": 77,
                "velocity": 20,
                "duration": 0.0477273,
                "tempo": 120.0
            },
            {
                "start_time": 129.9704545,
                "end_time": 130.0181818,
                "pitch": 77,
                "velocity": 20,
                "duration": 0.0477273,
                "tempo": 120.0
            },
            {
                "start_time": 130.0704545,
                "end_time": 130.1227273,
                "pitch": 75,
                "velocity": 20,
                "duration": 0.0522727,
                "tempo": 120.0
            },
            {
                "start_time": 129.8704545,
                "end_time": 130.175,
                "pitch": 74,
                "velocity": 20,
                "duration": 0.3045455,
                "tempo": 120.0
            },
            {
                "start_time": 130.175,
                "end_time": 130.225,
                "pitch": 77,
                "velocity": 20,
                "duration": 0.05,
                "tempo": 120.0
            },
            {
                "start_time": 130.2772727,
                "end_time": 130.3272727,
                "pitch": 77,
                "velocity": 20,
                "duration": 0.05,
                "tempo": 120.0
            },
            {
                "start_time": 130.3818182,
                "end_time": 130.4295455,
                "pitch": 75,
                "velocity": 20,
                "duration": 0.0477273,
                "tempo": 120.0
            },
            {
                "start_time": 130.175,
                "end_time": 130.4840909,
                "pitch": 74,
                "velocity": 20,
                "duration": 0.3090909,
                "tempo": 120.0
            },
            {
                "start_time": 130.4818182,
                "end_time": 130.4840909,
                "pitch": 74,
                "velocity": 20,
                "duration": 0.0022727,
                "tempo": 120.0
            },
            {
                "start_time": 130.4840909,
                "end_time": 130.5340909,
                "pitch": 77,
                "velocity": 20,
                "duration": 0.05,
                "tempo": 120.0
            },
            {
                "start_time": 130.5863636,
                "end_time": 130.6363636,
                "pitch": 77,
                "velocity": 20,
                "duration": 0.05,
                "tempo": 120.0
            },
            {
                "start_time": 130.6886364,
                "end_time": 130.7386364,
                "pitch": 75,
                "velocity": 20,
                "duration": 0.05,
                "tempo": 120.0
            },
            {
                "start_time": 130.7931818,
                "end_time": 130.8409091,
                "pitch": 77,
                "velocity": 20,
                "duration": 0.0477273,
                "tempo": 120.0
            },
            {
                "start_time": 130.8909091,
                "end_time": 130.9386364,
                "pitch": 77,
                "velocity": 20,
                "duration": 0.0477273,
                "tempo": 120.0
            },
            {
                "start_time": 130.9886364,
                "end_time": 131.0363636,
                "pitch": 75,
                "velocity": 20,
                "duration": 0.0477273,
                "tempo": 120.0
            },
            {
                "start_time": 130.7931818,
                "end_time": 131.0863636,
                "pitch": 74,
                "velocity": 20,
                "duration": 0.2931818,
                "tempo": 120.0
            },
            {
                "start_time": 131.0863636,
                "end_time": 131.1340909,
                "pitch": 77,
                "velocity": 20,
                "duration": 0.0477273,
                "tempo": 120.0
            },
            {
                "start_time": 131.1863636,
                "end_time": 131.2340909,
                "pitch": 77,
                "velocity": 20,
                "duration": 0.0477273,
                "tempo": 120.0
            },
            {
                "start_time": 131.2863636,
                "end_time": 131.3340909,
                "pitch": 75,
                "velocity": 20,
                "duration": 0.0477273,
                "tempo": 120.0
            },
            {
                "start_time": 131.0863636,
                "end_time": 131.3863636,
                "pitch": 74,
                "velocity": 20,
                "duration": 0.3,
                "tempo": 120.0
            },
            {
                "start_time": 131.3863636,
                "end_time": 131.4363636,
                "pitch": 77,
                "velocity": 20,
                "duration": 0.05,
                "tempo": 120.0
            },
            {
                "start_time": 131.4863636,
                "end_time": 131.5363636,
                "pitch": 77,
                "velocity": 20,
                "duration": 0.05,
                "tempo": 120.0
            },
            {
                "start_time": 131.5886364,
                "end_time": 131.6386364,
                "pitch": 75,
                "velocity": 20,
                "duration": 0.05,
                "tempo": 120.0
            },
            {
                "start_time": 131.3863636,
                "end_time": 131.6909091,
                "pitch": 74,
                "velocity": 20,
                "duration": 0.3045455,
                "tempo": 120.0
            },
            {
                "start_time": 131.6909091,
                "end_time": 131.7409091,
                "pitch": 77,
                "velocity": 20,
                "duration": 0.05,
                "tempo": 120.0
            },
            {
                "start_time": 131.7931818,
                "end_time": 131.8431818,
                "pitch": 77,
                "velocity": 20,
                "duration": 0.05,
                "tempo": 120.0
            },
            {
                "start_time": 131.8954545,
                "end_time": 131.9454545,
                "pitch": 75,
                "velocity": 20,
                "duration": 0.05,
                "tempo": 120.0
            },
            {
                "start_time": 131.6909091,
                "end_time": 132.0,
                "pitch": 74,
                "velocity": 20,
                "duration": 0.3090909,
                "tempo": 120.0
            },
            {
                "start_time": 132.0,
                "end_time": 132.0477273,
                "pitch": 77,
                "velocity": 20,
                "duration": 0.0477273,
                "tempo": 120.0
            },
            {
                "start_time": 132.0977273,
                "end_time": 132.1454545,
                "pitch": 77,
                "velocity": 20,
                "duration": 0.0477273,
                "tempo": 120.0
            },
            {
                "start_time": 132.1954545,
                "end_time": 132.2431818,
                "pitch": 75,
                "velocity": 20,
                "duration": 0.0477273,
                "tempo": 120.0
            },
            {
                "start_time": 132.0,
                "end_time": 132.2931818,
                "pitch": 74,
                "velocity": 20,
                "duration": 0.2931818,
                "tempo": 120.0
            },
            {
                "start_time": 132.2931818,
                "end_time": 132.3409091,
                "pitch": 77,
                "velocity": 20,
                "duration": 0.0477273,
                "tempo": 120.0
            },
            {
                "start_time": 132.3931818,
                "end_time": 132.4409091,
                "pitch": 77,
                "velocity": 16,
                "duration": 0.0477273,
                "tempo": 120.0
            },
            {
                "start_time": 132.4931818,
                "end_time": 132.5431818,
                "pitch": 75,
                "velocity": 16,
                "duration": 0.05,
                "tempo": 120.0
            },
            {
                "start_time": 132.2931818,
                "end_time": 132.5977273,
                "pitch": 74,
                "velocity": 20,
                "duration": 0.3045455,
                "tempo": 120.0
            },
            {
                "start_time": 132.5977273,
                "end_time": 132.6477273,
                "pitch": 77,
                "velocity": 16,
                "duration": 0.05,
                "tempo": 120.0
            },
            {
                "start_time": 132.7,
                "end_time": 132.75,
                "pitch": 77,
                "velocity": 16,
                "duration": 0.05,
                "tempo": 120.0
            },
            {
                "start_time": 132.8022727,
                "end_time": 132.8522727,
                "pitch": 75,
                "velocity": 16,
                "duration": 0.05,
                "tempo": 120.0
            },
            {
                "start_time": 132.5977273,
                "end_time": 132.9045455,
                "pitch": 74,
                "velocity": 16,
                "duration": 0.3068182,
                "tempo": 120.0
            },
            {
                "start_time": 132.9045455,
                "end_time": 132.9545455,
                "pitch": 77,
                "velocity": 16,
                "duration": 0.05,
                "tempo": 120.0
            },
            {
                "start_time": 133.0090909,
                "end_time": 133.0590909,
                "pitch": 77,
                "velocity": 16,
                "duration": 0.05,
                "tempo": 120.0
            },
            {
                "start_time": 133.1113636,
                "end_time": 133.1613636,
                "pitch": 75,
                "velocity": 16,
                "duration": 0.05,
                "tempo": 120.0
            },
            {
                "start_time": 132.9045455,
                "end_time": 133.2159091,
                "pitch": 74,
                "velocity": 16,
                "duration": 0.3113636,
                "tempo": 120.0
            },
            {
                "start_time": 133.2159091,
                "end_time": 133.2636364,
                "pitch": 77,
                "velocity": 16,
                "duration": 0.0477273,
                "tempo": 120.0
            },
            {
                "start_time": 133.3136364,
                "end_time": 133.3613636,
                "pitch": 77,
                "velocity": 16,
                "duration": 0.0477273,
                "tempo": 120.0
            },
            {
                "start_time": 133.4113636,
                "end_time": 133.4590909,
                "pitch": 75,
                "velocity": 16,
                "duration": 0.0477273,
                "tempo": 120.0
            },
            {
                "start_time": 133.2159091,
                "end_time": 133.5090909,
                "pitch": 74,
                "velocity": 16,
                "duration": 0.2931818,
                "tempo": 120.0
            },
            {
                "start_time": 133.5090909,
                "end_time": 133.5568182,
                "pitch": 77,
                "velocity": 16,
                "duration": 0.0477273,
                "tempo": 120.0
            },
            {
                "start_time": 133.6090909,
                "end_time": 133.6568182,
                "pitch": 77,
                "velocity": 16,
                "duration": 0.0477273,
                "tempo": 120.0
            },
            {
                "start_time": 133.7090909,
                "end_time": 133.7590909,
                "pitch": 75,
                "velocity": 16,
                "duration": 0.05,
                "tempo": 120.0
            },
            {
                "start_time": 133.5090909,
                "end_time": 133.8113636,
                "pitch": 74,
                "velocity": 16,
                "duration": 0.3022727,
                "tempo": 120.0
            },
            {
                "start_time": 133.8113636,
                "end_time": 133.8636364,
                "pitch": 77,
                "velocity": 16,
                "duration": 0.0522727,
                "tempo": 120.0
            },
            {
                "start_time": 133.9159091,
                "end_time": 133.9659091,
                "pitch": 77,
                "velocity": 16,
                "duration": 0.05,
                "tempo": 120.0
            },
            {
                "start_time": 134.0181818,
                "end_time": 134.0681818,
                "pitch": 75,
                "velocity": 16,
                "duration": 0.05,
                "tempo": 120.0
            },
            {
                "start_time": 133.8113636,
                "end_time": 134.1181818,
                "pitch": 74,
                "velocity": 16,
                "duration": 0.3068182,
                "tempo": 120.0
            },
            {
                "start_time": 134.1181818,
                "end_time": 134.1681818,
                "pitch": 77,
                "velocity": 16,
                "duration": 0.05,
                "tempo": 120.0
            },
            {
                "start_time": 134.2204545,
                "end_time": 134.2704545,
                "pitch": 77,
                "velocity": 13,
                "duration": 0.05,
                "tempo": 120.0
            },
            {
                "start_time": 134.3204545,
                "end_time": 134.3704545,
                "pitch": 75,
                "velocity": 13,
                "duration": 0.05,
                "tempo": 120.0
            },
            {
                "start_time": 134.1181818,
                "end_time": 134.4227273,
                "pitch": 74,
                "velocity": 16,
                "duration": 0.3045455,
                "tempo": 120.0
            },
            {
                "start_time": 134.4227273,
                "end_time": 134.4704545,
                "pitch": 77,
                "velocity": 13,
                "duration": 0.0477273,
                "tempo": 120.0
            },
            {
                "start_time": 134.5227273,
                "end_time": 134.5727273,
                "pitch": 77,
                "velocity": 13,
                "duration": 0.05,
                "tempo": 120.0
            },
            {
                "start_time": 134.6227273,
                "end_time": 134.6727273,
                "pitch": 75,
                "velocity": 13,
                "duration": 0.05,
                "tempo": 120.0
            },
            {
                "start_time": 134.4227273,
                "end_time": 134.725,
                "pitch": 74,
                "velocity": 13,
                "duration": 0.3022727,
                "tempo": 120.0
            },
            {
                "start_time": 134.725,
                "end_time": 134.7727273,
                "pitch": 77,
                "velocity": 13,
                "duration": 0.0477273,
                "tempo": 120.0
            },
            {
                "start_time": 134.825,
                "end_time": 134.875,
                "pitch": 77,
                "velocity": 13,
                "duration": 0.05,
                "tempo": 120.0
            },
            {
                "start_time": 134.925,
                "end_time": 134.975,
                "pitch": 75,
                "velocity": 13,
                "duration": 0.05,
                "tempo": 120.0
            },
            {
                "start_time": 134.725,
                "end_time": 135.0272727,
                "pitch": 74,
                "velocity": 13,
                "duration": 0.3022727,
                "tempo": 120.0
            },
            {
                "start_time": 135.0272727,
                "end_time": 135.075,
                "pitch": 77,
                "velocity": 13,
                "duration": 0.0477273,
                "tempo": 120.0
            },
            {
                "start_time": 135.1272727,
                "end_time": 135.1772727,
                "pitch": 77,
                "velocity": 13,
                "duration": 0.05,
                "tempo": 120.0
            }
        ],
        "Clarinet": [
            {
                "start_time": 8.3386364,
                "end_time": 9.1181818,
                "pitch": 68,
                "velocity": 40,
                "duration": 0.7795455,
                "tempo": 120.0
            },
            {
                "start_time": 9.1522727,
                "end_time": 9.9181818,
                "pitch": 66,
                "velocity": 40,
                "duration": 0.7659091,
                "tempo": 120.0
            },
            {
                "start_time": 9.9522727,
                "end_time": 11.9409091,
                "pitch": 66,
                "velocity": 40,
                "duration": 1.9886364,
                "tempo": 120.0
            },
            {
                "start_time": 11.975,
                "end_time": 12.3454545,
                "pitch": 61,
                "velocity": 40,
                "duration": 0.3704545,
                "tempo": 120.0
            },
            {
                "start_time": 12.3795455,
                "end_time": 12.7340909,
                "pitch": 61,
                "velocity": 40,
                "duration": 0.3545455,
                "tempo": 120.0
            },
            {
                "start_time": 11.975,
                "end_time": 12.7659091,
                "pitch": 65,
                "velocity": 40,
                "duration": 0.7909091,
                "tempo": 120.0
            },
            {
                "start_time": 12.7659091,
                "end_time": 13.1409091,
                "pitch": 59,
                "velocity": 40,
                "duration": 0.375,
                "tempo": 120.0
            },
            {
                "start_time": 13.1772727,
                "end_time": 14.5477273,
                "pitch": 61,
                "velocity": 40,
                "duration": 1.3704545,
                "tempo": 120.0
            },
            {
                "start_time": 14.5795455,
                "end_time": 14.6477273,
                "pitch": 59,
                "velocity": 40,
                "duration": 0.0681818,
                "tempo": 120.0
            },
            {
                "start_time": 14.6818182,
                "end_time": 14.7477273,
                "pitch": 59,
                "velocity": 40,
                "duration": 0.0659091,
                "tempo": 120.0
            },
            {
                "start_time": 14.7818182,
                "end_time": 17.5659091,
                "pitch": 57,
                "velocity": 40,
                "duration": 2.7840909,
                "tempo": 120.0
            },
            {
                "start_time": 9.1522727,
                "end_time": 17.6,
                "pitch": 23,
                "velocity": 40,
                "duration": 8.4477273,
                "tempo": 120.0
            },
            {
                "start_time": 17.6,
                "end_time": 17.9727273,
                "pitch": 66,
                "velocity": 40,
                "duration": 0.3727273,
                "tempo": 120.0
            },
            {
                "start_time": 18.0068182,
                "end_time": 18.3772727,
                "pitch": 66,
                "velocity": 40,
                "duration": 0.3704545,
                "tempo": 120.0
            },
            {
                "start_time": 12.7659091,
                "end_time": 18.4113636,
                "pitch": 65,
                "velocity": 40,
                "duration": 5.6454545,
                "tempo": 120.0
            },
            {
                "start_time": 18.4113636,
                "end_time": 18.7840909,
                "pitch": 61,
                "velocity": 40,
                "duration": 0.3727273,
                "tempo": 120.0
            },
            {
                "start_time": 18.8204545,
                "end_time": 19.1909091,
                "pitch": 61,
                "velocity": 40,
                "duration": 0.3704545,
                "tempo": 120.0
            },
            {
                "start_time": 18.4113636,
                "end_time": 19.225,
                "pitch": 65,
                "velocity": 40,
                "duration": 0.8136364,
                "tempo": 120.0
            },
            {
                "start_time": 19.225,
                "end_time": 19.5818182,
                "pitch": 59,
                "velocity": 40,
                "duration": 0.3568182,
                "tempo": 120.0
            },
            {
                "start_time": 13.1772727,
                "end_time": 19.6136364,
                "pitch": 45,
                "velocity": 40,
                "duration": 6.4363636,
                "tempo": 120.0
            },
            {
                "start_time": 19.6136364,
                "end_time": 21.1909091,
                "pitch": 61,
                "velocity": 40,
                "duration": 1.5772727,
                "tempo": 120.0
            },
            {
                "start_time": 21.225,
                "end_time": 22.0022727,
                "pitch": 68,
                "velocity": 40,
                "duration": 0.7772727,
                "tempo": 120.0
            },
            {
                "start_time": 17.6,
                "end_time": 22.0363636,
                "pitch": 23,
                "velocity": 40,
                "duration": 4.4363636,
                "tempo": 120.0
            },
            {
                "start_time": 22.0363636,
                "end_time": 22.7977273,
                "pitch": 66,
                "velocity": 40,
                "duration": 0.7613636,
                "tempo": 120.0
            },
            {
                "start_time": 22.8318182,
                "end_time": 24.8113636,
                "pitch": 66,
                "velocity": 40,
                "duration": 1.9795455,
                "tempo": 120.0
            },
            {
                "start_time": 19.225,
                "end_time": 24.8454545,
                "pitch": 65,
                "velocity": 40,
                "duration": 5.6204545,
                "tempo": 120.0
            },
            {
                "start_time": 24.8454545,
                "end_time": 25.2181818,
                "pitch": 61,
                "velocity": 40,
                "duration": 0.3727273,
                "tempo": 120.0
            },
            {
                "start_time": 25.25,
                "end_time": 25.6136364,
                "pitch": 61,
                "velocity": 40,
                "duration": 0.3636364,
                "tempo": 120.0
            },
            {
                "start_time": 24.8454545,
                "end_time": 25.6477273,
                "pitch": 65,
                "velocity": 40,
                "duration": 0.8022727,
                "tempo": 120.0
            },
            {
                "start_time": 25.6454545,
                "end_time": 25.6477273,
                "pitch": 65,
                "velocity": 40,
                "duration": 0.0022727,
                "tempo": 120.0
            },
            {
                "start_time": 25.6477273,
                "end_time": 26.025,
                "pitch": 59,
                "velocity": 40,
                "duration": 0.3772727,
                "tempo": 120.0
            },
            {
                "start_time": 19.6136364,
                "end_time": 26.0613636,
                "pitch": 45,
                "velocity": 40,
                "duration": 6.4477273,
                "tempo": 120.0
            },
            {
                "start_time": 26.0590909,
                "end_time": 26.0613636,
                "pitch": 45,
                "velocity": 40,
                "duration": 0.0022727,
                "tempo": 120.0
            },
            {
                "start_time": 26.0613636,
                "end_time": 27.4295455,
                "pitch": 61,
                "velocity": 40,
                "duration": 1.3681818,
                "tempo": 120.0
            },
            {
                "start_time": 14.5795455,
                "end_time": 27.4636364,
                "pitch": 64,
                "velocity": 40,
                "duration": 12.8840909,
                "tempo": 120.0
            },
            {
                "start_time": 27.4636364,
                "end_time": 27.5295455,
                "pitch": 59,
                "velocity": 40,
                "duration": 0.0659091,
                "tempo": 120.0
            },
            {
                "start_time": 27.5636364,
                "end_time": 27.6295455,
                "pitch": 59,
                "velocity": 40,
                "duration": 0.0659091,
                "tempo": 120.0
            },
            {
                "start_time": 27.6636364,
                "end_time": 30.4386364,
                "pitch": 57,
                "velocity": 40,
                "duration": 2.775,
                "tempo": 120.0
            },
            {
                "start_time": 30.4727273,
                "end_time": 30.8409091,
                "pitch": 54,
                "velocity": 40,
                "duration": 0.3681818,
                "tempo": 120.0
            },
            {
                "start_time": 30.875,
                "end_time": 31.2477273,
                "pitch": 54,
                "velocity": 40,
                "duration": 0.3727273,
                "tempo": 120.0
            },
            {
                "start_time": 31.2840909,
                "end_time": 31.6545455,
                "pitch": 57,
                "velocity": 40,
                "duration": 0.3704545,
                "tempo": 120.0
            },
            {
                "start_time": 31.6886364,
                "end_time": 32.4681818,
                "pitch": 62,
                "velocity": 40,
                "duration": 0.7795455,
                "tempo": 120.0
            },
            {
                "start_time": 32.5022727,
                "end_time": 32.8636364,
                "pitch": 42,
                "velocity": 40,
                "duration": 0.3613636,
                "tempo": 120.0
            },
            {
                "start_time": 32.8977273,
                "end_time": 34.0704545,
                "pitch": 69,
                "velocity": 40,
                "duration": 1.1727273,
                "tempo": 120.0
            },
            {
                "start_time": 34.1068182,
                "end_time": 34.8840909,
                "pitch": 57,
                "velocity": 40,
                "duration": 0.7772727,
                "tempo": 120.0
            },
            {
                "start_time": 34.9159091,
                "end_time": 35.6863636,
                "pitch": 59,
                "velocity": 40,
                "duration": 0.7704545,
                "tempo": 120.0
            },
            {
                "start_time": 35.7204545,
                "end_time": 36.4840909,
                "pitch": 57,
                "velocity": 40,
                "duration": 0.7636364,
                "tempo": 120.0
            },
            {
                "start_time": 36.5181818,
                "end_time": 37.2909091,
                "pitch": 56,
                "velocity": 40,
                "duration": 0.7727273,
                "tempo": 120.0
            },
            {
                "start_time": 37.325,
                "end_time": 38.0931818,
                "pitch": 53,
                "velocity": 40,
                "duration": 0.7681818,
                "tempo": 120.0
            },
            {
                "start_time": 38.1272727,
                "end_time": 38.9045455,
                "pitch": 53,
                "velocity": 40,
                "duration": 0.7772727,
                "tempo": 120.0
            },
            {
                "start_time": 38.9386364,
                "end_time": 39.3,
                "pitch": 56,
                "velocity": 40,
                "duration": 0.3613636,
                "tempo": 120.0
            },
            {
                "start_time": 39.3340909,
                "end_time": 40.5090909,
                "pitch": 68,
                "velocity": 40,
                "duration": 1.175,
                "tempo": 120.0
            },
            {
                "start_time": 40.5431818,
                "end_time": 41.3159091,
                "pitch": 59,
                "velocity": 40,
                "duration": 0.7727273,
                "tempo": 120.0
            },
            {
                "start_time": 41.35,
                "end_time": 42.1136364,
                "pitch": 59,
                "velocity": 40,
                "duration": 0.7636364,
                "tempo": 120.0
            },
            {
                "start_time": 42.1477273,
                "end_time": 42.9159091,
                "pitch": 57,
                "velocity": 40,
                "duration": 0.7681818,
                "tempo": 120.0
            },
            {
                "start_time": 40.5431818,
                "end_time": 43.7204545,
                "pitch": 56,
                "velocity": 40,
                "duration": 3.1772727,
                "tempo": 120.0
            },
            {
                "start_time": 42.95,
                "end_time": 43.7204545,
                "pitch": 56,
                "velocity": 40,
                "duration": 0.7704545,
                "tempo": 120.0
            },
            {
                "start_time": 43.7522727,
                "end_time": 44.5272727,
                "pitch": 57,
                "velocity": 40,
                "duration": 0.775,
                "tempo": 120.0
            },
            {
                "start_time": 44.5590909,
                "end_time": 45.3363636,
                "pitch": 56,
                "velocity": 40,
                "duration": 0.7772727,
                "tempo": 120.0
            },
            {
                "start_time": 45.3704545,
                "end_time": 45.7318182,
                "pitch": 47,
                "velocity": 40,
                "duration": 0.3613636,
                "tempo": 120.0
            },
            {
                "start_time": 44.5590909,
                "end_time": 46.5295455,
                "pitch": 59,
                "velocity": 40,
                "duration": 1.9704545,
                "tempo": 120.0
            },
            {
                "start_time": 45.7636364,
                "end_time": 46.5295455,
                "pitch": 59,
                "velocity": 40,
                "duration": 0.7659091,
                "tempo": 120.0
            },
            {
                "start_time": 31.6886364,
                "end_time": 46.5636364,
                "pitch": 33,
                "velocity": 40,
                "duration": 14.875,
                "tempo": 120.0
            },
            {
                "start_time": 46.5636364,
                "end_time": 47.7477273,
                "pitch": 52,
                "velocity": 40,
                "duration": 1.1840909,
                "tempo": 120.0
            },
            {
                "start_time": 47.7818182,
                "end_time": 48.5522727,
                "pitch": 52,
                "velocity": 40,
                "duration": 0.7704545,
                "tempo": 120.0
            },
            {
                "start_time": 38.9386364,
                "end_time": 48.5840909,
                "pitch": 67,
                "velocity": 40,
                "duration": 9.6454545,
                "tempo": 120.0
            },
            {
                "start_time": 48.5840909,
                "end_time": 49.35,
                "pitch": 56,
                "velocity": 40,
                "duration": 0.7659091,
                "tempo": 120.0
            },
            {
                "start_time": 49.3840909,
                "end_time": 50.1568182,
                "pitch": 56,
                "velocity": 40,
                "duration": 0.7727273,
                "tempo": 120.0
            },
            {
                "start_time": 50.1909091,
                "end_time": 50.9568182,
                "pitch": 57,
                "velocity": 40,
                "duration": 0.7659091,
                "tempo": 120.0
            },
            {
                "start_time": 46.5636364,
                "end_time": 50.9909091,
                "pitch": 33,
                "velocity": 40,
                "duration": 4.4272727,
                "tempo": 120.0
            },
            {
                "start_time": 50.9909091,
                "end_time": 51.5590909,
                "pitch": 52,
                "velocity": 40,
                "duration": 0.5681818,
                "tempo": 120.0
            },
            {
                "start_time": 51.725,
                "end_time": 51.825,
                "pitch": 49,
                "velocity": 40,
                "duration": 0.1,
                "tempo": 120.0
            },
            {
                "start_time": 51.8590909,
                "end_time": 51.9590909,
                "pitch": 49,
                "velocity": 40,
                "duration": 0.1,
                "tempo": 120.0
            },
            {
                "start_time": 51.9931818,
                "end_time": 52.0931818,
                "pitch": 54,
                "velocity": 40,
                "duration": 0.1,
                "tempo": 120.0
            },
            {
                "start_time": 48.5840909,
                "end_time": 52.125,
                "pitch": 67,
                "velocity": 40,
                "duration": 3.5409091,
                "tempo": 120.0
            },
            {
                "start_time": 52.125,
                "end_time": 52.225,
                "pitch": 57,
                "velocity": 40,
                "duration": 0.1,
                "tempo": 120.0
            },
            {
                "start_time": 50.9909091,
                "end_time": 52.2590909,
                "pitch": 33,
                "velocity": 40,
                "duration": 1.2681818,
                "tempo": 120.0
            },
            {
                "start_time": 52.2590909,
                "end_time": 52.3590909,
                "pitch": 61,
                "velocity": 40,
                "duration": 0.1,
                "tempo": 120.0
            },
            {
                "start_time": 52.3931818,
                "end_time": 52.4931818,
                "pitch": 63,
                "velocity": 40,
                "duration": 0.1,
                "tempo": 120.0
            },
            {
                "start_time": 31.2840909,
                "end_time": 52.6295455,
                "pitch": 66,
                "velocity": 40,
                "duration": 21.3454545,
                "tempo": 120.0
            },
            {
                "start_time": 52.5272727,
                "end_time": 52.6295455,
                "pitch": 66,
                "velocity": 40,
                "duration": 0.1022727,
                "tempo": 120.0
            },
            {
                "start_time": 52.125,
                "end_time": 52.6636364,
                "pitch": 67,
                "velocity": 40,
                "duration": 0.5386364,
                "tempo": 120.0
            },
            {
                "start_time": 52.6636364,
                "end_time": 52.7613636,
                "pitch": 57,
                "velocity": 40,
                "duration": 0.0977273,
                "tempo": 120.0
            },
            {
                "start_time": 52.2590909,
                "end_time": 52.7954545,
                "pitch": 33,
                "velocity": 40,
                "duration": 0.5363636,
                "tempo": 120.0
            },
            {
                "start_time": 52.3931818,
                "end_time": 52.8954545,
                "pitch": 61,
                "velocity": 40,
                "duration": 0.5022727,
                "tempo": 120.0
            },
            {
                "start_time": 52.7954545,
                "end_time": 52.8954545,
                "pitch": 61,
                "velocity": 40,
                "duration": 0.1,
                "tempo": 120.0
            },
            {
                "start_time": 52.9295455,
                "end_time": 53.0295455,
                "pitch": 66,
                "velocity": 40,
                "duration": 0.1,
                "tempo": 120.0
            },
            {
                "start_time": 32.8977273,
                "end_time": 53.0636364,
                "pitch": 79,
                "velocity": 40,
                "duration": 20.1659091,
                "tempo": 120.0
            },
            {
                "start_time": 53.0636364,
                "end_time": 53.1636364,
                "pitch": 69,
                "velocity": 40,
                "duration": 0.1,
                "tempo": 120.0
            },
            {
                "start_time": 53.1977273,
                "end_time": 53.2954545,
                "pitch": 73,
                "velocity": 40,
                "duration": 0.0977273,
                "tempo": 120.0
            },
            {
                "start_time": 53.3295455,
                "end_time": 53.4295455,
                "pitch": 49,
                "velocity": 40,
                "duration": 0.1,
                "tempo": 120.0
            },
            {
                "start_time": 53.4636364,
                "end_time": 53.5636364,
                "pitch": 49,
                "velocity": 40,
                "duration": 0.1,
                "tempo": 120.0
            },
            {
                "start_time": 51.9931818,
                "end_time": 53.5977273,
                "pitch": 51,
                "velocity": 40,
                "duration": 1.6045455,
                "tempo": 120.0
            },
            {
                "start_time": 53.5977273,
                "end_time": 53.6977273,
                "pitch": 54,
                "velocity": 40,
                "duration": 0.1,
                "tempo": 120.0
            },
            {
                "start_time": 52.6636364,
                "end_time": 53.7318182,
                "pitch": 67,
                "velocity": 40,
                "duration": 1.0681818,
                "tempo": 120.0
            },
            {
                "start_time": 53.7318182,
                "end_time": 53.8295455,
                "pitch": 57,
                "velocity": 40,
                "duration": 0.0977273,
                "tempo": 120.0
            },
            {
                "start_time": 52.7954545,
                "end_time": 53.8636364,
                "pitch": 33,
                "velocity": 40,
                "duration": 1.0681818,
                "tempo": 120.0
            },
            {
                "start_time": 52.9295455,
                "end_time": 53.9636364,
                "pitch": 61,
                "velocity": 40,
                "duration": 1.0340909,
                "tempo": 120.0
            },
            {
                "start_time": 53.8636364,
                "end_time": 53.9636364,
                "pitch": 61,
                "velocity": 40,
                "duration": 0.1,
                "tempo": 120.0
            },
            {
                "start_time": 52.5272727,
                "end_time": 54.0977273,
                "pitch": 63,
                "velocity": 40,
                "duration": 1.5704545,
                "tempo": 120.0
            },
            {
                "start_time": 53.9977273,
                "end_time": 54.0977273,
                "pitch": 63,
                "velocity": 40,
                "duration": 0.1,
                "tempo": 120.0
            },
            {
                "start_time": 54.1318182,
                "end_time": 54.2318182,
                "pitch": 66,
                "velocity": 40,
                "duration": 0.1,
                "tempo": 120.0
            },
            {
                "start_time": 53.7318182,
                "end_time": 54.2659091,
                "pitch": 67,
                "velocity": 40,
                "duration": 0.5340909,
                "tempo": 120.0
            },
            {
                "start_time": 54.2659091,
                "end_time": 54.3659091,
                "pitch": 57,
                "velocity": 40,
                "duration": 0.1,
                "tempo": 120.0
            },
            {
                "start_time": 53.8636364,
                "end_time": 54.4,
                "pitch": 33,
                "velocity": 40,
                "duration": 0.5363636,
                "tempo": 120.0
            },
            {
                "start_time": 53.9977273,
                "end_time": 54.5,
                "pitch": 61,
                "velocity": 40,
                "duration": 0.5022727,
                "tempo": 120.0
            },
            {
                "start_time": 54.4,
                "end_time": 54.5,
                "pitch": 61,
                "velocity": 40,
                "duration": 0.1,
                "tempo": 120.0
            },
            {
                "start_time": 54.5340909,
                "end_time": 54.6340909,
                "pitch": 66,
                "velocity": 40,
                "duration": 0.1,
                "tempo": 120.0
            },
            {
                "start_time": 53.0636364,
                "end_time": 54.6681818,
                "pitch": 79,
                "velocity": 40,
                "duration": 1.6045455,
                "tempo": 120.0
            },
            {
                "start_time": 54.6681818,
                "end_time": 54.7681818,
                "pitch": 69,
                "velocity": 40,
                "duration": 0.1,
                "tempo": 120.0
            },
            {
                "start_time": 53.1977273,
                "end_time": 54.8045455,
                "pitch": 45,
                "velocity": 40,
                "duration": 1.6068182,
                "tempo": 120.0
            },
            {
                "start_time": 54.8045455,
                "end_time": 54.9068182,
                "pitch": 73,
                "velocity": 40,
                "duration": 0.1022727,
                "tempo": 120.0
            },
            {
                "start_time": 54.9409091,
                "end_time": 55.0431818,
                "pitch": 49,
                "velocity": 40,
                "duration": 0.1022727,
                "tempo": 120.0
            },
            {
                "start_time": 55.0795455,
                "end_time": 55.1795455,
                "pitch": 49,
                "velocity": 40,
                "duration": 0.1,
                "tempo": 120.0
            },
            {
                "start_time": 53.5977273,
                "end_time": 55.2136364,
                "pitch": 51,
                "velocity": 40,
                "duration": 1.6159091,
                "tempo": 120.0
            },
            {
                "start_time": 55.2136364,
                "end_time": 55.3136364,
                "pitch": 54,
                "velocity": 40,
                "duration": 0.1,
                "tempo": 120.0
            },
            {
                "start_time": 54.2659091,
                "end_time": 55.3477273,
                "pitch": 67,
                "velocity": 40,
                "duration": 1.0818182,
                "tempo": 120.0
            },
            {
                "start_time": 55.3477273,
                "end_time": 55.4454545,
                "pitch": 57,
                "velocity": 40,
                "duration": 0.0977273,
                "tempo": 120.0
            },
            {
                "start_time": 54.4,
                "end_time": 55.4795455,
                "pitch": 33,
                "velocity": 40,
                "duration": 1.0795455,
                "tempo": 120.0
            },
            {
                "start_time": 54.5340909,
                "end_time": 55.5795455,
                "pitch": 61,
                "velocity": 40,
                "duration": 1.0454545,
                "tempo": 120.0
            },
            {
                "start_time": 55.4795455,
                "end_time": 55.5795455,
                "pitch": 61,
                "velocity": 40,
                "duration": 0.1,
                "tempo": 120.0
            },
            {
                "start_time": 54.1318182,
                "end_time": 55.7090909,
                "pitch": 63,
                "velocity": 40,
                "duration": 1.5772727,
                "tempo": 120.0
            },
            {
                "start_time": 55.6113636,
                "end_time": 55.7090909,
                "pitch": 63,
                "velocity": 40,
                "duration": 0.0977273,
                "tempo": 120.0
            },
            {
                "start_time": 55.7431818,
                "end_time": 55.8409091,
                "pitch": 66,
                "velocity": 40,
                "duration": 0.0977273,
                "tempo": 120.0
            },
            {
                "start_time": 55.3477273,
                "end_time": 55.875,
                "pitch": 67,
                "velocity": 40,
                "duration": 0.5272727,
                "tempo": 120.0
            },
            {
                "start_time": 55.875,
                "end_time": 55.9727273,
                "pitch": 57,
                "velocity": 40,
                "duration": 0.0977273,
                "tempo": 120.0
            },
            {
                "start_time": 55.4795455,
                "end_time": 56.0090909,
                "pitch": 33,
                "velocity": 40,
                "duration": 0.5295455,
                "tempo": 120.0
            },
            {
                "start_time": 55.6113636,
                "end_time": 56.1113636,
                "pitch": 61,
                "velocity": 40,
                "duration": 0.5,
                "tempo": 120.0
            },
            {
                "start_time": 56.0090909,
                "end_time": 56.1113636,
                "pitch": 61,
                "velocity": 40,
                "duration": 0.1022727,
                "tempo": 120.0
            },
            {
                "start_time": 56.1454545,
                "end_time": 56.2477273,
                "pitch": 66,
                "velocity": 40,
                "duration": 0.1022727,
                "tempo": 120.0
            },
            {
                "start_time": 54.6681818,
                "end_time": 56.2818182,
                "pitch": 79,
                "velocity": 40,
                "duration": 1.6136364,
                "tempo": 120.0
            },
            {
                "start_time": 56.2818182,
                "end_time": 56.3840909,
                "pitch": 69,
                "velocity": 40,
                "duration": 0.1022727,
                "tempo": 120.0
            },
            {
                "start_time": 54.8045455,
                "end_time": 56.4181818,
                "pitch": 45,
                "velocity": 40,
                "duration": 1.6136364,
                "tempo": 120.0
            },
            {
                "start_time": 56.4181818,
                "end_time": 56.5181818,
                "pitch": 73,
                "velocity": 40,
                "duration": 0.1,
                "tempo": 120.0
            },
            {
                "start_time": 56.5522727,
                "end_time": 56.65,
                "pitch": 49,
                "velocity": 40,
                "duration": 0.0977273,
                "tempo": 120.0
            },
            {
                "start_time": 56.6840909,
                "end_time": 56.7840909,
                "pitch": 49,
                "velocity": 40,
                "duration": 0.1,
                "tempo": 120.0
            },
            {
                "start_time": 55.2136364,
                "end_time": 56.8181818,
                "pitch": 51,
                "velocity": 40,
                "duration": 1.6045455,
                "tempo": 120.0
            },
            {
                "start_time": 56.8181818,
                "end_time": 56.9181818,
                "pitch": 54,
                "velocity": 40,
                "duration": 0.1,
                "tempo": 120.0
            },
            {
                "start_time": 55.875,
                "end_time": 56.9522727,
                "pitch": 67,
                "velocity": 40,
                "duration": 1.0772727,
                "tempo": 120.0
            },
            {
                "start_time": 56.9522727,
                "end_time": 57.0522727,
                "pitch": 57,
                "velocity": 40,
                "duration": 0.1,
                "tempo": 120.0
            },
            {
                "start_time": 56.0090909,
                "end_time": 57.0863636,
                "pitch": 33,
                "velocity": 40,
                "duration": 1.0772727,
                "tempo": 120.0
            },
            {
                "start_time": 56.1454545,
                "end_time": 57.1840909,
                "pitch": 61,
                "velocity": 40,
                "duration": 1.0386364,
                "tempo": 120.0
            },
            {
                "start_time": 57.0863636,
                "end_time": 57.1840909,
                "pitch": 61,
                "velocity": 40,
                "duration": 0.0977273,
                "tempo": 120.0
            },
            {
                "start_time": 55.7431818,
                "end_time": 57.3181818,
                "pitch": 63,
                "velocity": 40,
                "duration": 1.575,
                "tempo": 120.0
            },
            {
                "start_time": 57.2181818,
                "end_time": 57.3181818,
                "pitch": 63,
                "velocity": 40,
                "duration": 0.1,
                "tempo": 120.0
            },
            {
                "start_time": 57.3522727,
                "end_time": 57.4522727,
                "pitch": 66,
                "velocity": 40,
                "duration": 0.1,
                "tempo": 120.0
            },
            {
                "start_time": 56.9522727,
                "end_time": 57.4863636,
                "pitch": 67,
                "velocity": 40,
                "duration": 0.5340909,
                "tempo": 120.0
            },
            {
                "start_time": 57.4863636,
                "end_time": 57.5863636,
                "pitch": 57,
                "velocity": 40,
                "duration": 0.1,
                "tempo": 120.0
            },
            {
                "start_time": 57.0863636,
                "end_time": 57.6204545,
                "pitch": 33,
                "velocity": 40,
                "duration": 0.5340909,
                "tempo": 120.0
            },
            {
                "start_time": 57.2181818,
                "end_time": 57.7181818,
                "pitch": 61,
                "velocity": 40,
                "duration": 0.5,
                "tempo": 120.0
            },
            {
                "start_time": 57.6204545,
                "end_time": 57.7181818,
                "pitch": 61,
                "velocity": 40,
                "duration": 0.0977273,
                "tempo": 120.0
            },
            {
                "start_time": 57.7522727,
                "end_time": 57.8522727,
                "pitch": 66,
                "velocity": 40,
                "duration": 0.1,
                "tempo": 120.0
            },
            {
                "start_time": 56.2818182,
                "end_time": 57.8863636,
                "pitch": 79,
                "velocity": 40,
                "duration": 1.6045455,
                "tempo": 120.0
            },
            {
                "start_time": 57.8863636,
                "end_time": 57.9863636,
                "pitch": 69,
                "velocity": 40,
                "duration": 0.1,
                "tempo": 120.0
            },
            {
                "start_time": 37.325,
                "end_time": 58.2227273,
                "pitch": 21,
                "velocity": 40,
                "duration": 20.8977273,
                "tempo": 120.0
            },
            {
                "start_time": 58.2227273,
                "end_time": 58.5909091,
                "pitch": 48,
                "velocity": 40,
                "duration": 0.3681818,
                "tempo": 120.0
            },
            {
                "start_time": 58.6227273,
                "end_time": 59.4022727,
                "pitch": 48,
                "velocity": 40,
                "duration": 0.7795455,
                "tempo": 120.0
            },
            {
                "start_time": 59.4363636,
                "end_time": 59.7977273,
                "pitch": 49,
                "velocity": 40,
                "duration": 0.3613636,
                "tempo": 120.0
            },
            {
                "start_time": 56.8181818,
                "end_time": 60.6045455,
                "pitch": 51,
                "velocity": 40,
                "duration": 3.7863636,
                "tempo": 120.0
            },
            {
                "start_time": 59.8295455,
                "end_time": 60.6045455,
                "pitch": 51,
                "velocity": 40,
                "duration": 0.775,
                "tempo": 120.0
            },
            {
                "start_time": 51.725,
                "end_time": 60.6386364,
                "pitch": 52,
                "velocity": 40,
                "duration": 8.9136364,
                "tempo": 120.0
            },
            {
                "start_time": 60.6386364,
                "end_time": 61.0090909,
                "pitch": 48,
                "velocity": 40,
                "duration": 0.3704545,
                "tempo": 120.0
            },
            {
                "start_time": 61.0431818,
                "end_time": 61.8136364,
                "pitch": 48,
                "velocity": 40,
                "duration": 0.7704545,
                "tempo": 120.0
            },
            {
                "start_time": 61.8477273,
                "end_time": 62.2136364,
                "pitch": 49,
                "velocity": 40,
                "duration": 0.3659091,
                "tempo": 120.0
            },
            {
                "start_time": 62.2477273,
                "end_time": 63.0204545,
                "pitch": 51,
                "velocity": 40,
                "duration": 0.7727273,
                "tempo": 120.0
            },
            {
                "start_time": 60.6386364,
                "end_time": 63.0545455,
                "pitch": 52,
                "velocity": 40,
                "duration": 2.4159091,
                "tempo": 120.0
            },
            {
                "start_time": 63.0545455,
                "end_time": 63.4181818,
                "pitch": 48,
                "velocity": 40,
                "duration": 0.3636364,
                "tempo": 120.0
            },
            {
                "start_time": 63.4522727,
                "end_time": 64.2227273,
                "pitch": 48,
                "velocity": 40,
                "duration": 0.7704545,
                "tempo": 120.0
            },
            {
                "start_time": 64.2568182,
                "end_time": 64.6227273,
                "pitch": 49,
                "velocity": 40,
                "duration": 0.3659091,
                "tempo": 120.0
            },
            {
                "start_time": 64.6568182,
                "end_time": 65.4295455,
                "pitch": 51,
                "velocity": 40,
                "duration": 0.7727273,
                "tempo": 120.0
            },
            {
                "start_time": 63.0545455,
                "end_time": 65.4636364,
                "pitch": 52,
                "velocity": 40,
                "duration": 2.4090909,
                "tempo": 120.0
            },
            {
                "start_time": 65.4636364,
                "end_time": 65.8295455,
                "pitch": 49,
                "velocity": 40,
                "duration": 0.3659091,
                "tempo": 120.0
            },
            {
                "start_time": 65.8636364,
                "end_time": 66.6363636,
                "pitch": 49,
                "velocity": 40,
                "duration": 0.7727273,
                "tempo": 120.0
            },
            {
                "start_time": 66.6704545,
                "end_time": 67.0363636,
                "pitch": 51,
                "velocity": 40,
                "duration": 0.3659091,
                "tempo": 120.0
            },
            {
                "start_time": 65.4636364,
                "end_time": 67.85,
                "pitch": 52,
                "velocity": 40,
                "duration": 2.3863636,
                "tempo": 120.0
            },
            {
                "start_time": 67.0704545,
                "end_time": 67.85,
                "pitch": 52,
                "velocity": 40,
                "duration": 0.7795455,
                "tempo": 120.0
            },
            {
                "start_time": 67.8840909,
                "end_time": 68.2522727,
                "pitch": 49,
                "velocity": 40,
                "duration": 0.3681818,
                "tempo": 120.0
            },
            {
                "start_time": 68.2863636,
                "end_time": 69.0522727,
                "pitch": 49,
                "velocity": 40,
                "duration": 0.7659091,
                "tempo": 120.0
            },
            {
                "start_time": 69.0863636,
                "end_time": 69.4590909,
                "pitch": 51,
                "velocity": 40,
                "duration": 0.3727273,
                "tempo": 120.0
            },
            {
                "start_time": 69.4931818,
                "end_time": 70.2636364,
                "pitch": 52,
                "velocity": 40,
                "duration": 0.7704545,
                "tempo": 120.0
            },
            {
                "start_time": 67.8840909,
                "end_time": 70.2977273,
                "pitch": 54,
                "velocity": 40,
                "duration": 2.4136364,
                "tempo": 120.0
            },
            {
                "start_time": 70.2977273,
                "end_time": 70.6659091,
                "pitch": 49,
                "velocity": 40,
                "duration": 0.3681818,
                "tempo": 120.0
            },
            {
                "start_time": 70.7,
                "end_time": 71.0681818,
                "pitch": 47,
                "velocity": 40,
                "duration": 0.3681818,
                "tempo": 120.0
            },
            {
                "start_time": 71.1,
                "end_time": 71.4704545,
                "pitch": 47,
                "velocity": 40,
                "duration": 0.3704545,
                "tempo": 120.0
            },
            {
                "start_time": 58.2227273,
                "end_time": 71.5045455,
                "pitch": 21,
                "velocity": 40,
                "duration": 13.2818182,
                "tempo": 120.0
            },
            {
                "start_time": 71.5045455,
                "end_time": 72.2727273,
                "pitch": 49,
                "velocity": 40,
                "duration": 0.7681818,
                "tempo": 120.0
            },
            {
                "start_time": 72.3068182,
                "end_time": 72.6772727,
                "pitch": 49,
                "velocity": 40,
                "duration": 0.3704545,
                "tempo": 120.0
            },
            {
                "start_time": 72.7113636,
                "end_time": 73.4840909,
                "pitch": 51,
                "velocity": 40,
                "duration": 0.7727273,
                "tempo": 120.0
            },
            {
                "start_time": 70.2977273,
                "end_time": 73.5181818,
                "pitch": 54,
                "velocity": 40,
                "duration": 3.2204545,
                "tempo": 120.0
            },
            {
                "start_time": 56.4181818,
                "end_time": 73.8818182,
                "pitch": 45,
                "velocity": 40,
                "duration": 17.4636364,
                "tempo": 120.0
            },
            {
                "start_time": 73.5181818,
                "end_time": 73.8818182,
                "pitch": 45,
                "velocity": 40,
                "duration": 0.3636364,
                "tempo": 120.0
            },
            {
                "start_time": 71.5045455,
                "end_time": 73.9159091,
                "pitch": 21,
                "velocity": 40,
                "duration": 2.4113636,
                "tempo": 120.0
            },
            {
                "start_time": 73.9159091,
                "end_time": 74.6931818,
                "pitch": 49,
                "velocity": 40,
                "duration": 0.7772727,
                "tempo": 120.0
            },
            {
                "start_time": 74.7272727,
                "end_time": 75.0977273,
                "pitch": 49,
                "velocity": 40,
                "duration": 0.3704545,
                "tempo": 120.0
            },
            {
                "start_time": 75.1295455,
                "end_time": 75.9045455,
                "pitch": 51,
                "velocity": 40,
                "duration": 0.775,
                "tempo": 120.0
            },
            {
                "start_time": 73.5181818,
                "end_time": 75.9386364,
                "pitch": 54,
                "velocity": 40,
                "duration": 2.4204545,
                "tempo": 120.0
            },
            {
                "start_time": 75.9386364,
                "end_time": 76.3045455,
                "pitch": 45,
                "velocity": 40,
                "duration": 0.3659091,
                "tempo": 120.0
            },
            {
                "start_time": 73.9159091,
                "end_time": 76.3386364,
                "pitch": 21,
                "velocity": 40,
                "duration": 2.4227273,
                "tempo": 120.0
            },
            {
                "start_time": 76.3386364,
                "end_time": 77.1068182,
                "pitch": 49,
                "velocity": 40,
                "duration": 0.7681818,
                "tempo": 120.0
            },
            {
                "start_time": 77.1409091,
                "end_time": 77.5113636,
                "pitch": 49,
                "velocity": 40,
                "duration": 0.3704545,
                "tempo": 120.0
            },
            {
                "start_time": 77.5454545,
                "end_time": 78.3181818,
                "pitch": 51,
                "velocity": 40,
                "duration": 0.7727273,
                "tempo": 120.0
            },
            {
                "start_time": 75.9386364,
                "end_time": 78.3522727,
                "pitch": 54,
                "velocity": 40,
                "duration": 2.4136364,
                "tempo": 120.0
            },
            {
                "start_time": 78.3522727,
                "end_time": 78.7159091,
                "pitch": 47,
                "velocity": 40,
                "duration": 0.3636364,
                "tempo": 120.0
            },
            {
                "start_time": 57.6204545,
                "end_time": 78.75,
                "pitch": 33,
                "velocity": 40,
                "duration": 21.1295455,
                "tempo": 120.0
            },
            {
                "start_time": 78.75,
                "end_time": 79.5227273,
                "pitch": 51,
                "velocity": 40,
                "duration": 0.7727273,
                "tempo": 120.0
            },
            {
                "start_time": 79.5568182,
                "end_time": 79.9227273,
                "pitch": 51,
                "velocity": 40,
                "duration": 0.3659091,
                "tempo": 120.0
            },
            {
                "start_time": 70.7,
                "end_time": 80.7272727,
                "pitch": 52,
                "velocity": 40,
                "duration": 10.0272727,
                "tempo": 120.0
            },
            {
                "start_time": 79.9568182,
                "end_time": 80.7272727,
                "pitch": 52,
                "velocity": 40,
                "duration": 0.7704545,
                "tempo": 120.0
            },
            {
                "start_time": 80.7613636,
                "end_time": 81.1295455,
                "pitch": 47,
                "velocity": 40,
                "duration": 0.3681818,
                "tempo": 120.0
            },
            {
                "start_time": 78.75,
                "end_time": 81.1636364,
                "pitch": 33,
                "velocity": 40,
                "duration": 2.4136364,
                "tempo": 120.0
            },
            {
                "start_time": 81.1636364,
                "end_time": 81.9340909,
                "pitch": 51,
                "velocity": 40,
                "duration": 0.7704545,
                "tempo": 120.0
            },
            {
                "start_time": 81.9681818,
                "end_time": 82.3363636,
                "pitch": 51,
                "velocity": 40,
                "duration": 0.3681818,
                "tempo": 120.0
            },
            {
                "start_time": 82.3704545,
                "end_time": 83.1522727,
                "pitch": 52,
                "velocity": 40,
                "duration": 0.7818182,
                "tempo": 120.0
            },
            {
                "start_time": 80.7613636,
                "end_time": 83.1840909,
                "pitch": 55,
                "velocity": 40,
                "duration": 2.4227273,
                "tempo": 120.0
            },
            {
                "start_time": 83.1840909,
                "end_time": 83.5522727,
                "pitch": 47,
                "velocity": 40,
                "duration": 0.3681818,
                "tempo": 120.0
            },
            {
                "start_time": 81.1636364,
                "end_time": 83.5863636,
                "pitch": 33,
                "velocity": 40,
                "duration": 2.4227273,
                "tempo": 120.0
            },
            {
                "start_time": 83.5863636,
                "end_time": 83.9545455,
                "pitch": 51,
                "velocity": 40,
                "duration": 0.3681818,
                "tempo": 120.0
            },
            {
                "start_time": 83.9886364,
                "end_time": 84.3568182,
                "pitch": 48,
                "velocity": 40,
                "duration": 0.3681818,
                "tempo": 120.0
            },
            {
                "start_time": 84.3909091,
                "end_time": 85.1636364,
                "pitch": 48,
                "velocity": 40,
                "duration": 0.7727273,
                "tempo": 120.0
            },
            {
                "start_time": 85.1977273,
                "end_time": 85.5613636,
                "pitch": 49,
                "velocity": 40,
                "duration": 0.3636364,
                "tempo": 120.0
            },
            {
                "start_time": 83.9886364,
                "end_time": 86.3681818,
                "pitch": 51,
                "velocity": 40,
                "duration": 2.3795455,
                "tempo": 120.0
            },
            {
                "start_time": 85.5954545,
                "end_time": 86.3681818,
                "pitch": 51,
                "velocity": 40,
                "duration": 0.7727273,
                "tempo": 120.0
            },
            {
                "start_time": 86.4,
                "end_time": 86.7681818,
                "pitch": 48,
                "velocity": 40,
                "duration": 0.3681818,
                "tempo": 120.0
            },
            {
                "start_time": 86.8,
                "end_time": 87.5727273,
                "pitch": 48,
                "velocity": 40,
                "duration": 0.7727273,
                "tempo": 120.0
            },
            {
                "start_time": 87.6068182,
                "end_time": 87.975,
                "pitch": 49,
                "velocity": 40,
                "duration": 0.3681818,
                "tempo": 120.0
            },
            {
                "start_time": 88.0090909,
                "end_time": 88.7818182,
                "pitch": 51,
                "velocity": 40,
                "duration": 0.7727273,
                "tempo": 120.0
            },
            {
                "start_time": 86.4,
                "end_time": 88.8159091,
                "pitch": 52,
                "velocity": 40,
                "duration": 2.4159091,
                "tempo": 120.0
            },
            {
                "start_time": 88.8159091,
                "end_time": 89.1863636,
                "pitch": 48,
                "velocity": 40,
                "duration": 0.3704545,
                "tempo": 120.0
            },
            {
                "start_time": 89.2204545,
                "end_time": 89.9954545,
                "pitch": 48,
                "velocity": 40,
                "duration": 0.775,
                "tempo": 120.0
            },
            {
                "start_time": 90.0272727,
                "end_time": 90.3954545,
                "pitch": 49,
                "velocity": 40,
                "duration": 0.3681818,
                "tempo": 120.0
            },
            {
                "start_time": 90.4295455,
                "end_time": 91.2045455,
                "pitch": 51,
                "velocity": 40,
                "duration": 0.775,
                "tempo": 120.0
            },
            {
                "start_time": 88.8159091,
                "end_time": 91.2386364,
                "pitch": 52,
                "velocity": 40,
                "duration": 2.4227273,
                "tempo": 120.0
            },
            {
                "start_time": 91.2386364,
                "end_time": 91.6045455,
                "pitch": 49,
                "velocity": 40,
                "duration": 0.3659091,
                "tempo": 120.0
            },
            {
                "start_time": 91.6386364,
                "end_time": 92.4068182,
                "pitch": 49,
                "velocity": 40,
                "duration": 0.7681818,
                "tempo": 120.0
            },
            {
                "start_time": 92.4409091,
                "end_time": 92.8113636,
                "pitch": 51,
                "velocity": 40,
                "duration": 0.3704545,
                "tempo": 120.0
            },
            {
                "start_time": 91.2386364,
                "end_time": 93.6181818,
                "pitch": 52,
                "velocity": 40,
                "duration": 2.3795455,
                "tempo": 120.0
            },
            {
                "start_time": 92.8431818,
                "end_time": 93.6181818,
                "pitch": 52,
                "velocity": 40,
                "duration": 0.775,
                "tempo": 120.0
            },
            {
                "start_time": 78.3522727,
                "end_time": 93.6522727,
                "pitch": 54,
                "velocity": 40,
                "duration": 15.3,
                "tempo": 120.0
            },
            {
                "start_time": 93.6522727,
                "end_time": 94.0159091,
                "pitch": 49,
                "velocity": 40,
                "duration": 0.3636364,
                "tempo": 120.0
            },
            {
                "start_time": 94.05,
                "end_time": 94.8227273,
                "pitch": 49,
                "velocity": 40,
                "duration": 0.7727273,
                "tempo": 120.0
            },
            {
                "start_time": 94.8568182,
                "end_time": 95.2204545,
                "pitch": 51,
                "velocity": 40,
                "duration": 0.3636364,
                "tempo": 120.0
            },
            {
                "start_time": 95.2545455,
                "end_time": 96.0340909,
                "pitch": 52,
                "velocity": 40,
                "duration": 0.7795455,
                "tempo": 120.0
            },
            {
                "start_time": 93.6522727,
                "end_time": 96.0681818,
                "pitch": 54,
                "velocity": 40,
                "duration": 2.4159091,
                "tempo": 120.0
            },
            {
                "start_time": 96.0681818,
                "end_time": 96.4318182,
                "pitch": 49,
                "velocity": 40,
                "duration": 0.3636364,
                "tempo": 120.0
            },
            {
                "start_time": 96.4636364,
                "end_time": 96.8340909,
                "pitch": 47,
                "velocity": 40,
                "duration": 0.3704545,
                "tempo": 120.0
            },
            {
                "start_time": 96.8681818,
                "end_time": 97.2409091,
                "pitch": 47,
                "velocity": 40,
                "duration": 0.3727273,
                "tempo": 120.0
            },
            {
                "start_time": 76.3386364,
                "end_time": 97.275,
                "pitch": 21,
                "velocity": 40,
                "duration": 20.9363636,
                "tempo": 120.0
            },
            {
                "start_time": 97.275,
                "end_time": 98.05,
                "pitch": 49,
                "velocity": 40,
                "duration": 0.775,
                "tempo": 120.0
            },
            {
                "start_time": 98.0818182,
                "end_time": 98.4477273,
                "pitch": 49,
                "velocity": 40,
                "duration": 0.3659091,
                "tempo": 120.0
            },
            {
                "start_time": 98.4818182,
                "end_time": 99.2568182,
                "pitch": 51,
                "velocity": 40,
                "duration": 0.775,
                "tempo": 120.0
            },
            {
                "start_time": 96.0681818,
                "end_time": 99.2909091,
                "pitch": 54,
                "velocity": 40,
                "duration": 3.2227273,
                "tempo": 120.0
            },
            {
                "start_time": 99.2886364,
                "end_time": 99.2909091,
                "pitch": 54,
                "velocity": 40,
                "duration": 0.0022727,
                "tempo": 120.0
            },
            {
                "start_time": 99.2909091,
                "end_time": 99.6545455,
                "pitch": 45,
                "velocity": 40,
                "duration": 0.3636364,
                "tempo": 120.0
            },
            {
                "start_time": 97.275,
                "end_time": 99.6886364,
                "pitch": 21,
                "velocity": 40,
                "duration": 2.4136364,
                "tempo": 120.0
            },
            {
                "start_time": 99.6886364,
                "end_time": 100.4590909,
                "pitch": 49,
                "velocity": 40,
                "duration": 0.7704545,
                "tempo": 120.0
            },
            {
                "start_time": 100.4931818,
                "end_time": 100.8613636,
                "pitch": 49,
                "velocity": 40,
                "duration": 0.3681818,
                "tempo": 120.0
            },
            {
                "start_time": 100.8954545,
                "end_time": 101.6681818,
                "pitch": 51,
                "velocity": 40,
                "duration": 0.7727273,
                "tempo": 120.0
            },
            {
                "start_time": 101.7022727,
                "end_time": 102.0681818,
                "pitch": 45,
                "velocity": 40,
                "duration": 0.3659091,
                "tempo": 120.0
            },
            {
                "start_time": 99.6886364,
                "end_time": 102.1022727,
                "pitch": 21,
                "velocity": 40,
                "duration": 2.4136364,
                "tempo": 120.0
            },
            {
                "start_time": 102.1022727,
                "end_time": 102.8727273,
                "pitch": 49,
                "velocity": 40,
                "duration": 0.7704545,
                "tempo": 120.0
            },
            {
                "start_time": 102.9068182,
                "end_time": 103.275,
                "pitch": 49,
                "velocity": 40,
                "duration": 0.3681818,
                "tempo": 120.0
            },
            {
                "start_time": 103.3090909,
                "end_time": 104.0863636,
                "pitch": 51,
                "velocity": 40,
                "duration": 0.7772727,
                "tempo": 120.0
            },
            {
                "start_time": 101.7022727,
                "end_time": 104.1204545,
                "pitch": 54,
                "velocity": 40,
                "duration": 2.4181818,
                "tempo": 120.0
            },
            {
                "start_time": 104.1204545,
                "end_time": 104.4818182,
                "pitch": 47,
                "velocity": 40,
                "duration": 0.3613636,
                "tempo": 120.0
            },
            {
                "start_time": 83.5863636,
                "end_time": 104.5159091,
                "pitch": 33,
                "velocity": 40,
                "duration": 20.9295455,
                "tempo": 120.0
            },
            {
                "start_time": 104.5159091,
                "end_time": 105.2954545,
                "pitch": 51,
                "velocity": 40,
                "duration": 0.7795455,
                "tempo": 120.0
            },
            {
                "start_time": 105.3295455,
                "end_time": 105.6977273,
                "pitch": 51,
                "velocity": 40,
                "duration": 0.3681818,
                "tempo": 120.0
            },
            {
                "start_time": 96.4636364,
                "end_time": 106.1022727,
                "pitch": 52,
                "velocity": 40,
                "duration": 9.6386364,
                "tempo": 120.0
            },
            {
                "start_time": 105.7318182,
                "end_time": 106.1022727,
                "pitch": 52,
                "velocity": 40,
                "duration": 0.3704545,
                "tempo": 120.0
            },
            {
                "start_time": 104.1204545,
                "end_time": 106.1340909,
                "pitch": 54,
                "velocity": 40,
                "duration": 2.0136364,
                "tempo": 120.0
            },
            {
                "start_time": 106.1340909,
                "end_time": 106.9045455,
                "pitch": 49,
                "velocity": 40,
                "duration": 0.7704545,
                "tempo": 120.0
            },
            {
                "start_time": 106.9386364,
                "end_time": 107.3068182,
                "pitch": 49,
                "velocity": 40,
                "duration": 0.3681818,
                "tempo": 120.0
            },
            {
                "start_time": 106.1340909,
                "end_time": 107.7090909,
                "pitch": 54,
                "velocity": 40,
                "duration": 1.575,
                "tempo": 120.0
            },
            {
                "start_time": 107.3409091,
                "end_time": 107.7090909,
                "pitch": 54,
                "velocity": 40,
                "duration": 0.3681818,
                "tempo": 120.0
            },
            {
                "start_time": 57.4863636,
                "end_time": 107.7431818,
                "pitch": 67,
                "velocity": 40,
                "duration": 50.2568182,
                "tempo": 120.0
            },
            {
                "start_time": 107.7431818,
                "end_time": 108.1113636,
                "pitch": 59,
                "velocity": 40,
                "duration": 0.3681818,
                "tempo": 120.0
            },
            {
                "start_time": 108.1454545,
                "end_time": 108.5136364,
                "pitch": 59,
                "velocity": 40,
                "duration": 0.3681818,
                "tempo": 120.0
            },
            {
                "start_time": 108.5477273,
                "end_time": 109.5386364,
                "pitch": 57,
                "velocity": 40,
                "duration": 0.9909091,
                "tempo": 120.0
            }
        ]
    }
}