{
    "mood": "angry",
    "instruments": {
        "Electric Piano 1": [
            {
                "start_time": 0.0295455,
                "end_time": 0.4613636,
                "pitch": 45,
                "velocity": 101,
                "duration": 0.4318182,
                "tempo": 120.0
            },
            {
                "start_time": 0.6795455,
                "end_time": 0.8795455,
                "pitch": 45,
                "velocity": 101,
                "duration": 0.2,
                "tempo": 120.0
            },
            {
                "start_time": 0.8818182,
                "end_time": 1.3045455,
                "pitch": 45,
                "velocity": 101,
                "duration": 0.4227273,
                "tempo": 120.0
            },
            {
                "start_time": 1.7409091,
                "end_time": 1.9613636,
                "pitch": 45,
                "velocity": 101,
                "duration": 0.2204545,
                "tempo": 120.0
            },
            {
                "start_time": 1.9613636,
                "end_time": 2.1840909,
                "pitch": 45,
                "velocity": 101,
                "duration": 0.2227273,
                "tempo": 120.0
            },
            {
                "start_time": 2.3840909,
                "end_time": 2.6,
                "pitch": 45,
                "velocity": 101,
                "duration": 0.2159091,
                "tempo": 120.0
            },
            {
                "start_time": 2.6022727,
                "end_time": 2.9181818,
                "pitch": 45,
                "velocity": 101,
                "duration": 0.3159091,
                "tempo": 120.0
            },
            {
                "start_time": 2.9204545,
                "end_time": 3.2340909,
                "pitch": 45,
                "velocity": 101,
                "duration": 0.3136364,
                "tempo": 120.0
            },
            {
                "start_time": 3.2363636,
                "end_time": 3.4568182,
                "pitch": 33,
                "velocity": 101,
                "duration": 0.2204545,
                "tempo": 120.0
            },
            {
                "start_time": 3.4590909,
                "end_time": 3.675,
                "pitch": 45,
                "velocity": 101,
                "duration": 0.2159091,
                "tempo": 120.0
            },
            {
                "start_time": 3.675,
                "end_time": 3.775,
                "pitch": 33,
                "velocity": 101,
                "duration": 0.1,
                "tempo": 120.0
            },
            {
                "start_time": 3.775,
                "end_time": 3.875,
                "pitch": 45,
                "velocity": 101,
                "duration": 0.1,
                "tempo": 120.0
            },
            {
                "start_time": 4.0818182,
                "end_time": 4.2886364,
                "pitch": 45,
                "velocity": 101,
                "duration": 0.2068182,
                "tempo": 120.0
            },
            {
                "start_time": 4.2886364,
                "end_time": 4.7318182,
                "pitch": 45,
                "velocity": 101,
                "duration": 0.4431818,
                "tempo": 120.0
            },
            {
                "start_time": 5.1659091,
                "end_time": 5.3659091,
                "pitch": 45,
                "velocity": 101,
                "duration": 0.2,
                "tempo": 120.0
            },
            {
                "start_time": 5.3681818,
                "end_time": 5.5840909,
                "pitch": 45,
                "velocity": 101,
                "duration": 0.2159091,
                "tempo": 120.0
            },
            {
                "start_time": 5.7977273,
                "end_time": 6.0090909,
                "pitch": 45,
                "velocity": 101,
                "duration": 0.2113636,
                "tempo": 120.0
            },
            {
                "start_time": 6.0090909,
                "end_time": 6.325,
                "pitch": 45,
                "velocity": 101,
                "duration": 0.3159091,
                "tempo": 120.0
            },
            {
                "start_time": 6.3272727,
                "end_time": 6.5431818,
                "pitch": 45,
                "velocity": 101,
                "duration": 0.2159091,
                "tempo": 120.0
            },
            {
                "start_time": 6.5431818,
                "end_time": 6.6590909,
                "pitch": 44,
                "velocity": 101,
                "duration": 0.1159091,
                "tempo": 120.0
            },
            {
                "start_time": 6.6613636,
                "end_time": 6.8613636,
                "pitch": 43,
                "velocity": 101,
                "duration": 0.2,
                "tempo": 120.0
            },
            {
                "start_time": 6.8613636,
                "end_time": 7.2863636,
                "pitch": 45,
                "velocity": 101,
                "duration": 0.425,
                "tempo": 120.0
            },
            {
                "start_time": 7.5022727,
                "end_time": 7.7204545,
                "pitch": 45,
                "velocity": 101,
                "duration": 0.2181818,
                "tempo": 120.0
            },
            {
                "start_time": 7.7204545,
                "end_time": 8.1545455,
                "pitch": 45,
                "velocity": 101,
                "duration": 0.4340909,
                "tempo": 120.0
            },
            {
                "start_time": 8.2568182,
                "end_time": 8.3590909,
                "pitch": 43,
                "velocity": 101,
                "duration": 0.1022727,
                "tempo": 120.0
            },
            {
                "start_time": 8.3590909,
                "end_time": 8.4772727,
                "pitch": 45,
                "velocity": 101,
                "duration": 0.1181818,
                "tempo": 120.0
            },
            {
                "start_time": 8.4772727,
                "end_time": 8.5795455,
                "pitch": 47,
                "velocity": 101,
                "duration": 0.1022727,
                "tempo": 120.0
            },
            {
                "start_time": 8.5818182,
                "end_time": 8.7863636,
                "pitch": 45,
                "velocity": 101,
                "duration": 0.2045455,
                "tempo": 120.0
            },
            {
                "start_time": 8.7886364,
                "end_time": 8.8977273,
                "pitch": 33,
                "velocity": 101,
                "duration": 0.1090909,
                "tempo": 120.0
            },
            {
                "start_time": 8.9,
                "end_time": 8.9931818,
                "pitch": 45,
                "velocity": 101,
                "duration": 0.0931818,
                "tempo": 120.0
            },
            {
                "start_time": 9.2113636,
                "end_time": 9.4272727,
                "pitch": 45,
                "velocity": 101,
                "duration": 0.2159091,
                "tempo": 120.0
            },
            {
                "start_time": 9.4295455,
                "end_time": 9.8545455,
                "pitch": 45,
                "velocity": 101,
                "duration": 0.425,
                "tempo": 120.0
            },
            {
                "start_time": 9.9659091,
                "end_time": 10.0613636,
                "pitch": 48,
                "velocity": 101,
                "duration": 0.0954545,
                "tempo": 120.0
            },
            {
                "start_time": 10.0613636,
                "end_time": 10.1727273,
                "pitch": 47,
                "velocity": 101,
                "duration": 0.1113636,
                "tempo": 120.0
            },
            {
                "start_time": 10.1727273,
                "end_time": 10.2681818,
                "pitch": 43,
                "velocity": 101,
                "duration": 0.0954545,
                "tempo": 120.0
            },
            {
                "start_time": 10.2681818,
                "end_time": 10.7113636,
                "pitch": 45,
                "velocity": 101,
                "duration": 0.4431818,
                "tempo": 120.0
            },
            {
                "start_time": 10.9295455,
                "end_time": 11.1454545,
                "pitch": 45,
                "velocity": 101,
                "duration": 0.2159091,
                "tempo": 120.0
            },
            {
                "start_time": 11.1477273,
                "end_time": 11.5636364,
                "pitch": 45,
                "velocity": 101,
                "duration": 0.4159091,
                "tempo": 120.0
            },
            {
                "start_time": 11.675,
                "end_time": 11.7704545,
                "pitch": 43,
                "velocity": 101,
                "duration": 0.0954545,
                "tempo": 120.0
            },
            {
                "start_time": 11.7704545,
                "end_time": 11.8795455,
                "pitch": 45,
                "velocity": 101,
                "duration": 0.1090909,
                "tempo": 120.0
            },
            {
                "start_time": 11.8818182,
                "end_time": 11.9772727,
                "pitch": 47,
                "velocity": 101,
                "duration": 0.0954545,
                "tempo": 120.0
            },
            {
                "start_time": 11.9772727,
                "end_time": 12.4204545,
                "pitch": 45,
                "velocity": 101,
                "duration": 0.4431818,
                "tempo": 120.0
            },
            {
                "start_time": 12.6386364,
                "end_time": 12.8363636,
                "pitch": 45,
                "velocity": 101,
                "duration": 0.1977273,
                "tempo": 120.0
            },
            {
                "start_time": 12.8386364,
                "end_time": 13.1636364,
                "pitch": 45,
                "velocity": 101,
                "duration": 0.325,
                "tempo": 120.0
            },
            {
                "start_time": 13.1659091,
                "end_time": 13.3795455,
                "pitch": 45,
                "velocity": 101,
                "duration": 0.2136364,
                "tempo": 120.0
            },
            {
                "start_time": 13.3795455,
                "end_time": 13.4795455,
                "pitch": 44,
                "velocity": 101,
                "duration": 0.1,
                "tempo": 120.0
            },
            {
                "start_time": 13.4795455,
                "end_time": 13.6954545,
                "pitch": 43,
                "velocity": 101,
                "duration": 0.2159091,
                "tempo": 120.0
            }
        ]
    }
}