{
    "mood": "angry",
    "instruments": {
        "Acoustic Bass": [
            {
                "start_time": 5.45,
                "end_time": 6.1272727,
                "pitch": 43,
                "velocity": 80,
                "duration": 0.6772727,
                "tempo": 120.0
            },
            {
                "start_time": 6.1272727,
                "end_time": 6.8068182,
                "pitch": 42,
                "velocity": 80,
                "duration": 0.6795455,
                "tempo": 120.0
            },
            {
                "start_time": 6.8090909,
                "end_time": 7.4772727,
                "pitch": 43,
                "velocity": 80,
                "duration": 0.6681818,
                "tempo": 120.0
            },
            {
                "start_time": 7.4795455,
                "end_time": 8.1590909,
                "pitch": 45,
                "velocity": 80,
                "duration": 0.6795455,
                "tempo": 120.0
            },
            {
                "start_time": 8.1590909,
                "end_time": 8.8295455,
                "pitch": 46,
                "velocity": 80,
                "duration": 0.6704545,
                "tempo": 120.0
            },
            {
                "start_time": 8.8295455,
                "end_time": 9.5090909,
                "pitch": 45,
                "velocity": 80,
                "duration": 0.6795455,
                "tempo": 120.0
            },
            {
                "start_time": 9.5113636,
                "end_time": 10.1886364,
                "pitch": 43,
                "velocity": 80,
                "duration": 0.6772727,
                "tempo": 120.0
            },
            {
                "start_time": 10.1909091,
                "end_time": 10.8704545,
                "pitch": 42,
                "velocity": 80,
                "duration": 0.6795455,
                "tempo": 120.0
            },
            {
                "start_time": 10.8704545,
                "end_time": 13.5818182,
                "pitch": 43,
                "velocity": 80,
                "duration": 2.7113636,
                "tempo": 120.0
            },
            {
                "start_time": 13.5840909,
                "end_time": 13.6818182,
                "pitch": 43,
                "velocity": 80,
                "duration": 0.0977273,
                "tempo": 120.0
            },
            {
                "start_time": 13.7522727,
                "end_time": 13.8545455,
                "pitch": 43,
                "velocity": 80,
                "duration": 0.1022727,
                "tempo": 120.0
            },
            {
                "start_time": 13.925,
                "end_time": 14.0227273,
                "pitch": 43,
                "velocity": 80,
                "duration": 0.0977273,
                "tempo": 120.0
            },
            {
                "start_time": 14.0909091,
                "end_time": 14.1909091,
                "pitch": 43,
                "velocity": 80,
                "duration": 0.1,
                "tempo": 120.0
            },
            {
                "start_time": 14.2590909,
                "end_time": 14.3590909,
                "pitch": 43,
                "velocity": 80,
                "duration": 0.1,
                "tempo": 120.0
            },
            {
                "start_time": 14.4272727,
                "end_time": 14.5272727,
                "pitch": 43,
                "velocity": 80,
                "duration": 0.1,
                "tempo": 120.0
            },
            {
                "start_time": 14.5954545,
                "end_time": 14.6977273,
                "pitch": 43,
                "velocity": 80,
                "duration": 0.1022727,
                "tempo": 120.0
            },
            {
                "start_time": 14.7681818,
                "end_time": 14.8704545,
                "pitch": 43,
                "velocity": 80,
                "duration": 0.1022727,
                "tempo": 120.0
            },
            {
                "start_time": 14.9409091,
                "end_time": 15.0386364,
                "pitch": 43,
                "velocity": 80,
                "duration": 0.0977273,
                "tempo": 120.0
            },
            {
                "start_time": 15.1068182,
                "end_time": 15.2068182,
                "pitch": 43,
                "velocity": 80,
                "duration": 0.1,
                "tempo": 120.0
            },
            {
                "start_time": 15.275,
                "end_time": 15.3772727,
                "pitch": 43,
                "velocity": 80,
                "duration": 0.1022727,
                "tempo": 120.0
            },
            {
                "start_time": 15.4477273,
                "end_time": 15.55,
                "pitch": 43,
                "velocity": 80,
                "duration": 0.1022727,
                "tempo": 120.0
            },
            {
                "start_time": 15.6204545,
                "end_time": 15.7181818,
                "pitch": 43,
                "velocity": 80,
                "duration": 0.0977273,
                "tempo": 120.0
            },
            {
                "start_time": 15.7886364,
                "end_time": 15.8863636,
                "pitch": 43,
                "velocity": 80,
                "duration": 0.0977273,
                "tempo": 120.0
            },
            {
                "start_time": 15.9545455,
                "end_time": 16.0545455,
                "pitch": 43,
                "velocity": 80,
                "duration": 0.1,
                "tempo": 120.0
            },
            {
                "start_time": 16.1227273,
                "end_time": 16.2227273,
                "pitch": 43,
                "velocity": 80,
                "duration": 0.1,
                "tempo": 120.0
            },
            {
                "start_time": 16.2931818,
                "end_time": 16.3931818,
                "pitch": 43,
                "velocity": 80,
                "duration": 0.1,
                "tempo": 120.0
            },
            {
                "start_time": 16.4636364,
                "end_time": 16.5659091,
                "pitch": 43,
                "velocity": 80,
                "duration": 0.1022727,
                "tempo": 120.0
            },
            {
                "start_time": 16.6363636,
                "end_time": 16.7340909,
                "pitch": 43,
                "velocity": 80,
                "duration": 0.0977273,
                "tempo": 120.0
            },
            {
                "start_time": 16.8022727,
                "end_time": 16.9022727,
                "pitch": 43,
                "velocity": 80,
                "duration": 0.1,
                "tempo": 120.0
            },
            {
                "start_time": 16.9704545,
                "end_time": 17.0704545,
                "pitch": 43,
                "velocity": 80,
                "duration": 0.1,
                "tempo": 120.0
            },
            {
                "start_time": 17.1386364,
                "end_time": 17.2363636,
                "pitch": 43,
                "velocity": 80,
                "duration": 0.0977273,
                "tempo": 120.0
            },
            {
                "start_time": 17.3068182,
                "end_time": 17.4090909,
                "pitch": 43,
                "velocity": 80,
                "duration": 0.1022727,
                "tempo": 120.0
            },
            {
                "start_time": 17.4772727,
                "end_time": 17.5818182,
                "pitch": 43,
                "velocity": 80,
                "duration": 0.1045455,
                "tempo": 120.0
            },
            {
                "start_time": 17.6522727,
                "end_time": 17.75,
                "pitch": 39,
                "velocity": 80,
                "duration": 0.0977273,
                "tempo": 120.0
            },
            {
                "start_time": 17.8181818,
                "end_time": 17.9181818,
                "pitch": 39,
                "velocity": 80,
                "duration": 0.1,
                "tempo": 120.0
            },
            {
                "start_time": 17.9863636,
                "end_time": 18.0886364,
                "pitch": 39,
                "velocity": 80,
                "duration": 0.1022727,
                "tempo": 120.0
            },
            {
                "start_time": 18.1590909,
                "end_time": 18.2613636,
                "pitch": 39,
                "velocity": 80,
                "duration": 0.1022727,
                "tempo": 120.0
            },
            {
                "start_time": 18.3318182,
                "end_time": 18.4295455,
                "pitch": 39,
                "velocity": 80,
                "duration": 0.0977273,
                "tempo": 120.0
            },
            {
                "start_time": 18.4977273,
                "end_time": 18.5977273,
                "pitch": 39,
                "velocity": 80,
                "duration": 0.1,
                "tempo": 120.0
            },
            {
                "start_time": 18.6659091,
                "end_time": 18.7659091,
                "pitch": 39,
                "velocity": 80,
                "duration": 0.1,
                "tempo": 120.0
            },
            {
                "start_time": 18.8340909,
                "end_time": 18.9340909,
                "pitch": 39,
                "velocity": 80,
                "duration": 0.1,
                "tempo": 120.0
            },
            {
                "start_time": 19.0022727,
                "end_time": 19.1022727,
                "pitch": 43,
                "velocity": 80,
                "duration": 0.1,
                "tempo": 120.0
            },
            {
                "start_time": 19.175,
                "end_time": 19.275,
                "pitch": 43,
                "velocity": 80,
                "duration": 0.1,
                "tempo": 120.0
            },
            {
                "start_time": 19.3477273,
                "end_time": 19.4454545,
                "pitch": 43,
                "velocity": 80,
                "duration": 0.0977273,
                "tempo": 120.0
            },
            {
                "start_time": 19.5136364,
                "end_time": 19.6136364,
                "pitch": 43,
                "velocity": 80,
                "duration": 0.1,
                "tempo": 120.0
            },
            {
                "start_time": 19.6818182,
                "end_time": 19.7795455,
                "pitch": 43,
                "velocity": 80,
                "duration": 0.0977273,
                "tempo": 120.0
            },
            {
                "start_time": 19.85,
                "end_time": 19.9477273,
                "pitch": 43,
                "velocity": 80,
                "duration": 0.0977273,
                "tempo": 120.0
            },
            {
                "start_time": 20.0181818,
                "end_time": 20.1181818,
                "pitch": 43,
                "velocity": 80,
                "duration": 0.1,
                "tempo": 120.0
            },
            {
                "start_time": 20.1886364,
                "end_time": 20.2909091,
                "pitch": 43,
                "velocity": 80,
                "duration": 0.1022727,
                "tempo": 120.0
            },
            {
                "start_time": 20.3636364,
                "end_time": 20.4613636,
                "pitch": 43,
                "velocity": 80,
                "duration": 0.0977273,
                "tempo": 120.0
            },
            {
                "start_time": 20.5295455,
                "end_time": 20.6295455,
                "pitch": 43,
                "velocity": 80,
                "duration": 0.1,
                "tempo": 120.0
            },
            {
                "start_time": 20.6977273,
                "end_time": 20.8,
                "pitch": 43,
                "velocity": 80,
                "duration": 0.1022727,
                "tempo": 120.0
            },
            {
                "start_time": 20.8704545,
                "end_time": 20.9727273,
                "pitch": 43,
                "velocity": 80,
                "duration": 0.1022727,
                "tempo": 120.0
            },
            {
                "start_time": 21.0431818,
                "end_time": 21.1409091,
                "pitch": 43,
                "velocity": 80,
                "duration": 0.0977273,
                "tempo": 120.0
            },
            {
                "start_time": 21.2090909,
                "end_time": 21.3090909,
                "pitch": 43,
                "velocity": 80,
                "duration": 0.1,
                "tempo": 120.0
            },
            {
                "start_time": 21.3772727,
                "end_time": 21.4772727,
                "pitch": 43,
                "velocity": 80,
                "duration": 0.1,
                "tempo": 120.0
            },
            {
                "start_time": 21.5454545,
                "end_time": 21.6431818,
                "pitch": 43,
                "velocity": 80,
                "duration": 0.0977273,
                "tempo": 120.0
            },
            {
                "start_time": 21.7136364,
                "end_time": 21.8136364,
                "pitch": 39,
                "velocity": 80,
                "duration": 0.1,
                "tempo": 120.0
            },
            {
                "start_time": 21.8840909,
                "end_time": 21.9863636,
                "pitch": 39,
                "velocity": 80,
                "duration": 0.1022727,
                "tempo": 120.0
            },
            {
                "start_time": 22.0568182,
                "end_time": 22.1568182,
                "pitch": 39,
                "velocity": 80,
                "duration": 0.1,
                "tempo": 120.0
            },
            {
                "start_time": 22.225,
                "end_time": 22.325,
                "pitch": 39,
                "velocity": 80,
                "duration": 0.1,
                "tempo": 120.0
            },
            {
                "start_time": 22.3931818,
                "end_time": 22.4909091,
                "pitch": 39,
                "velocity": 80,
                "duration": 0.0977273,
                "tempo": 120.0
            },
            {
                "start_time": 22.5590909,
                "end_time": 22.6590909,
                "pitch": 39,
                "velocity": 80,
                "duration": 0.1,
                "tempo": 120.0
            },
            {
                "start_time": 22.7272727,
                "end_time": 22.8295455,
                "pitch": 39,
                "velocity": 80,
                "duration": 0.1022727,
                "tempo": 120.0
            },
            {
                "start_time": 22.9,
                "end_time": 23.0022727,
                "pitch": 39,
                "velocity": 80,
                "duration": 0.1022727,
                "tempo": 120.0
            },
            {
                "start_time": 23.075,
                "end_time": 23.1727273,
                "pitch": 36,
                "velocity": 80,
                "duration": 0.0977273,
                "tempo": 120.0
            },
            {
                "start_time": 23.2409091,
                "end_time": 23.3386364,
                "pitch": 36,
                "velocity": 80,
                "duration": 0.0977273,
                "tempo": 120.0
            },
            {
                "start_time": 23.4090909,
                "end_time": 23.5113636,
                "pitch": 38,
                "velocity": 80,
                "duration": 0.1022727,
                "tempo": 120.0
            },
            {
                "start_time": 23.5795455,
                "end_time": 23.6818182,
                "pitch": 38,
                "velocity": 80,
                "duration": 0.1022727,
                "tempo": 120.0
            },
            {
                "start_time": 23.7522727,
                "end_time": 23.8522727,
                "pitch": 39,
                "velocity": 80,
                "duration": 0.1,
                "tempo": 120.0
            },
            {
                "start_time": 23.9204545,
                "end_time": 24.0204545,
                "pitch": 39,
                "velocity": 80,
                "duration": 0.1,
                "tempo": 120.0
            },
            {
                "start_time": 24.0863636,
                "end_time": 24.1863636,
                "pitch": 39,
                "velocity": 80,
                "duration": 0.1,
                "tempo": 120.0
            },
            {
                "start_time": 24.2545455,
                "end_time": 24.3522727,
                "pitch": 39,
                "velocity": 80,
                "duration": 0.0977273,
                "tempo": 120.0
            },
            {
                "start_time": 24.425,
                "end_time": 24.525,
                "pitch": 43,
                "velocity": 80,
                "duration": 0.1,
                "tempo": 120.0
            },
            {
                "start_time": 24.5954545,
                "end_time": 24.6977273,
                "pitch": 43,
                "velocity": 80,
                "duration": 0.1022727,
                "tempo": 120.0
            },
            {
                "start_time": 24.7681818,
                "end_time": 24.8681818,
                "pitch": 43,
                "velocity": 80,
                "duration": 0.1,
                "tempo": 120.0
            },
            {
                "start_time": 24.9363636,
                "end_time": 25.0363636,
                "pitch": 43,
                "velocity": 80,
                "duration": 0.1,
                "tempo": 120.0
            },
            {
                "start_time": 25.1045455,
                "end_time": 25.2022727,
                "pitch": 43,
                "velocity": 80,
                "duration": 0.0977273,
                "tempo": 120.0
            },
            {
                "start_time": 25.2704545,
                "end_time": 25.3704545,
                "pitch": 43,
                "velocity": 80,
                "duration": 0.1,
                "tempo": 120.0
            },
            {
                "start_time": 25.4386364,
                "end_time": 25.5409091,
                "pitch": 43,
                "velocity": 80,
                "duration": 0.1022727,
                "tempo": 120.0
            },
            {
                "start_time": 25.6113636,
                "end_time": 25.7136364,
                "pitch": 43,
                "velocity": 80,
                "duration": 0.1022727,
                "tempo": 120.0
            },
            {
                "start_time": 25.7840909,
                "end_time": 25.8818182,
                "pitch": 43,
                "velocity": 80,
                "duration": 0.0977273,
                "tempo": 120.0
            },
            {
                "start_time": 25.9522727,
                "end_time": 26.05,
                "pitch": 43,
                "velocity": 80,
                "duration": 0.0977273,
                "tempo": 120.0
            },
            {
                "start_time": 26.1204545,
                "end_time": 26.2204545,
                "pitch": 43,
                "velocity": 80,
                "duration": 0.1,
                "tempo": 120.0
            },
            {
                "start_time": 26.2909091,
                "end_time": 26.3931818,
                "pitch": 43,
                "velocity": 80,
                "duration": 0.1022727,
                "tempo": 120.0
            },
            {
                "start_time": 26.4636364,
                "end_time": 26.5636364,
                "pitch": 43,
                "velocity": 80,
                "duration": 0.1,
                "tempo": 120.0
            },
            {
                "start_time": 26.6318182,
                "end_time": 26.7295455,
                "pitch": 43,
                "velocity": 80,
                "duration": 0.0977273,
                "tempo": 120.0
            },
            {
                "start_time": 26.8,
                "end_time": 26.8977273,
                "pitch": 43,
                "velocity": 80,
                "duration": 0.0977273,
                "tempo": 120.0
            },
            {
                "start_time": 26.9659091,
                "end_time": 27.0659091,
                "pitch": 43,
                "velocity": 80,
                "duration": 0.1,
                "tempo": 120.0
            },
            {
                "start_time": 27.1363636,
                "end_time": 27.2363636,
                "pitch": 43,
                "velocity": 80,
                "duration": 0.1,
                "tempo": 120.0
            },
            {
                "start_time": 27.3068182,
                "end_time": 27.4090909,
                "pitch": 43,
                "velocity": 80,
                "duration": 0.1022727,
                "tempo": 120.0
            },
            {
                "start_time": 27.4795455,
                "end_time": 27.5795455,
                "pitch": 43,
                "velocity": 80,
                "duration": 0.1,
                "tempo": 120.0
            },
            {
                "start_time": 27.6454545,
                "end_time": 27.7454545,
                "pitch": 43,
                "velocity": 80,
                "duration": 0.1,
                "tempo": 120.0
            },
            {
                "start_time": 27.8159091,
                "end_time": 27.9136364,
                "pitch": 43,
                "velocity": 80,
                "duration": 0.0977273,
                "tempo": 120.0
            },
            {
                "start_time": 27.9818182,
                "end_time": 28.0818182,
                "pitch": 43,
                "velocity": 80,
                "duration": 0.1,
                "tempo": 120.0
            },
            {
                "start_time": 28.15,
                "end_time": 28.2522727,
                "pitch": 43,
                "velocity": 80,
                "duration": 0.1022727,
                "tempo": 120.0
            },
            {
                "start_time": 28.3227273,
                "end_time": 28.425,
                "pitch": 43,
                "velocity": 80,
                "duration": 0.1022727,
                "tempo": 120.0
            },
            {
                "start_time": 28.4954545,
                "end_time": 28.5931818,
                "pitch": 39,
                "velocity": 80,
                "duration": 0.0977273,
                "tempo": 120.0
            },
            {
                "start_time": 28.6636364,
                "end_time": 28.7613636,
                "pitch": 39,
                "velocity": 80,
                "duration": 0.0977273,
                "tempo": 120.0
            },
            {
                "start_time": 28.8295455,
                "end_time": 28.9318182,
                "pitch": 39,
                "velocity": 80,
                "duration": 0.1022727,
                "tempo": 120.0
            },
            {
                "start_time": 29.0022727,
                "end_time": 29.1045455,
                "pitch": 39,
                "velocity": 80,
                "duration": 0.1022727,
                "tempo": 120.0
            },
            {
                "start_time": 29.175,
                "end_time": 29.2727273,
                "pitch": 39,
                "velocity": 80,
                "duration": 0.0977273,
                "tempo": 120.0
            },
            {
                "start_time": 29.3431818,
                "end_time": 29.4409091,
                "pitch": 39,
                "velocity": 80,
                "duration": 0.0977273,
                "tempo": 120.0
            },
            {
                "start_time": 29.5113636,
                "end_time": 29.6090909,
                "pitch": 39,
                "velocity": 80,
                "duration": 0.0977273,
                "tempo": 120.0
            },
            {
                "start_time": 29.6772727,
                "end_time": 29.7772727,
                "pitch": 39,
                "velocity": 80,
                "duration": 0.1,
                "tempo": 120.0
            },
            {
                "start_time": 29.8477273,
                "end_time": 29.9477273,
                "pitch": 43,
                "velocity": 80,
                "duration": 0.1,
                "tempo": 120.0
            },
            {
                "start_time": 30.0181818,
                "end_time": 30.1204545,
                "pitch": 43,
                "velocity": 80,
                "duration": 0.1022727,
                "tempo": 120.0
            },
            {
                "start_time": 30.1909091,
                "end_time": 30.2886364,
                "pitch": 43,
                "velocity": 80,
                "duration": 0.0977273,
                "tempo": 120.0
            },
            {
                "start_time": 30.3568182,
                "end_time": 30.4568182,
                "pitch": 43,
                "velocity": 80,
                "duration": 0.1,
                "tempo": 120.0
            },
            {
                "start_time": 30.525,
                "end_time": 30.625,
                "pitch": 43,
                "velocity": 80,
                "duration": 0.1,
                "tempo": 120.0
            },
            {
                "start_time": 30.6931818,
                "end_time": 30.7931818,
                "pitch": 43,
                "velocity": 80,
                "duration": 0.1,
                "tempo": 120.0
            },
            {
                "start_time": 30.8613636,
                "end_time": 30.9636364,
                "pitch": 43,
                "velocity": 80,
                "duration": 0.1022727,
                "tempo": 120.0
            },
            {
                "start_time": 31.0340909,
                "end_time": 31.1363636,
                "pitch": 43,
                "velocity": 80,
                "duration": 0.1022727,
                "tempo": 120.0
            },
            {
                "start_time": 31.2068182,
                "end_time": 31.3045455,
                "pitch": 43,
                "velocity": 80,
                "duration": 0.0977273,
                "tempo": 120.0
            },
            {
                "start_time": 31.3727273,
                "end_time": 31.4727273,
                "pitch": 43,
                "velocity": 80,
                "duration": 0.1,
                "tempo": 120.0
            },
            {
                "start_time": 31.5409091,
                "end_time": 31.6431818,
                "pitch": 43,
                "velocity": 80,
                "duration": 0.1022727,
                "tempo": 120.0
            },
            {
                "start_time": 31.7136364,
                "end_time": 31.8159091,
                "pitch": 43,
                "velocity": 80,
                "duration": 0.1022727,
                "tempo": 120.0
            },
            {
                "start_time": 31.8863636,
                "end_time": 31.9840909,
                "pitch": 43,
                "velocity": 80,
                "duration": 0.0977273,
                "tempo": 120.0
            },
            {
                "start_time": 32.0545455,
                "end_time": 32.1522727,
                "pitch": 43,
                "velocity": 80,
                "duration": 0.0977273,
                "tempo": 120.0
            },
            {
                "start_time": 32.2204545,
                "end_time": 32.3204545,
                "pitch": 43,
                "velocity": 80,
                "duration": 0.1,
                "tempo": 120.0
            },
            {
                "start_time": 32.3886364,
                "end_time": 32.4886364,
                "pitch": 43,
                "velocity": 80,
                "duration": 0.1,
                "tempo": 120.0
            },
            {
                "start_time": 32.5568182,
                "end_time": 32.6590909,
                "pitch": 39,
                "velocity": 80,
                "duration": 0.1022727,
                "tempo": 120.0
            },
            {
                "start_time": 32.7295455,
                "end_time": 32.8318182,
                "pitch": 39,
                "velocity": 80,
                "duration": 0.1022727,
                "tempo": 120.0
            },
            {
                "start_time": 32.9022727,
                "end_time": 33.0,
                "pitch": 39,
                "velocity": 80,
                "duration": 0.0977273,
                "tempo": 120.0
            },
            {
                "start_time": 33.0681818,
                "end_time": 33.1681818,
                "pitch": 39,
                "velocity": 80,
                "duration": 0.1,
                "tempo": 120.0
            },
            {
                "start_time": 33.2363636,
                "end_time": 33.3386364,
                "pitch": 39,
                "velocity": 80,
                "duration": 0.1022727,
                "tempo": 120.0
            },
            {
                "start_time": 33.4090909,
                "end_time": 33.5113636,
                "pitch": 39,
                "velocity": 80,
                "duration": 0.1022727,
                "tempo": 120.0
            },
            {
                "start_time": 33.5818182,
                "end_time": 33.6818182,
                "pitch": 39,
                "velocity": 80,
                "duration": 0.1,
                "tempo": 120.0
            },
            {
                "start_time": 33.7477273,
                "end_time": 33.8477273,
                "pitch": 39,
                "velocity": 80,
                "duration": 0.1,
                "tempo": 120.0
            },
            {
                "start_time": 33.9181818,
                "end_time": 34.0159091,
                "pitch": 36,
                "velocity": 80,
                "duration": 0.0977273,
                "tempo": 120.0
            },
            {
                "start_time": 34.0840909,
                "end_time": 34.1840909,
                "pitch": 36,
                "velocity": 80,
                "duration": 0.1,
                "tempo": 120.0
            },
            {
                "start_time": 34.2522727,
                "end_time": 34.3545455,
                "pitch": 38,
                "velocity": 80,
                "duration": 0.1022727,
                "tempo": 120.0
            },
            {
                "start_time": 34.425,
                "end_time": 34.5272727,
                "pitch": 38,
                "velocity": 80,
                "duration": 0.1022727,
                "tempo": 120.0
            },
            {
                "start_time": 34.5977273,
                "end_time": 34.6954545,
                "pitch": 39,
                "velocity": 80,
                "duration": 0.0977273,
                "tempo": 120.0
            },
            {
                "start_time": 34.7636364,
                "end_time": 34.8636364,
                "pitch": 39,
                "velocity": 80,
                "duration": 0.1,
                "tempo": 120.0
            },
            {
                "start_time": 34.9318182,
                "end_time": 35.0318182,
                "pitch": 39,
                "velocity": 80,
                "duration": 0.1,
                "tempo": 120.0
            },
            {
                "start_time": 35.1,
                "end_time": 35.2,
                "pitch": 39,
                "velocity": 80,
                "duration": 0.1,
                "tempo": 120.0
            },
            {
                "start_time": 35.2704545,
                "end_time": 35.3681818,
                "pitch": 43,
                "velocity": 80,
                "duration": 0.0977273,
                "tempo": 120.0
            },
            {
                "start_time": 35.4409091,
                "end_time": 35.5409091,
                "pitch": 43,
                "velocity": 80,
                "duration": 0.1,
                "tempo": 120.0
            },
            {
                "start_time": 35.6136364,
                "end_time": 35.7113636,
                "pitch": 43,
                "velocity": 80,
                "duration": 0.0977273,
                "tempo": 120.0
            },
            {
                "start_time": 35.7795455,
                "end_time": 35.8795455,
                "pitch": 43,
                "velocity": 80,
                "duration": 0.1,
                "tempo": 120.0
            },
            {
                "start_time": 35.9477273,
                "end_time": 36.0454545,
                "pitch": 43,
                "velocity": 80,
                "duration": 0.0977273,
                "tempo": 120.0
            },
            {
                "start_time": 36.1159091,
                "end_time": 36.2136364,
                "pitch": 43,
                "velocity": 80,
                "duration": 0.0977273,
                "tempo": 120.0
            },
            {
                "start_time": 36.2840909,
                "end_time": 36.3840909,
                "pitch": 43,
                "velocity": 80,
                "duration": 0.1,
                "tempo": 120.0
            },
            {
                "start_time": 36.4545455,
                "end_time": 36.5568182,
                "pitch": 43,
                "velocity": 80,
                "duration": 0.1022727,
                "tempo": 120.0
            },
            {
                "start_time": 36.6272727,
                "end_time": 36.725,
                "pitch": 39,
                "velocity": 80,
                "duration": 0.0977273,
                "tempo": 120.0
            },
            {
                "start_time": 36.7954545,
                "end_time": 36.8954545,
                "pitch": 39,
                "velocity": 80,
                "duration": 0.1,
                "tempo": 120.0
            },
            {
                "start_time": 36.9636364,
                "end_time": 37.0659091,
                "pitch": 39,
                "velocity": 80,
                "duration": 0.1022727,
                "tempo": 120.0
            },
            {
                "start_time": 37.1363636,
                "end_time": 37.2386364,
                "pitch": 39,
                "velocity": 80,
                "duration": 0.1022727,
                "tempo": 120.0
            },
            {
                "start_time": 37.3090909,
                "end_time": 37.4068182,
                "pitch": 39,
                "velocity": 80,
                "duration": 0.0977273,
                "tempo": 120.0
            },
            {
                "start_time": 37.475,
                "end_time": 37.575,
                "pitch": 39,
                "velocity": 80,
                "duration": 0.1,
                "tempo": 120.0
            },
            {
                "start_time": 37.6431818,
                "end_time": 37.7431818,
                "pitch": 39,
                "velocity": 80,
                "duration": 0.1,
                "tempo": 120.0
            },
            {
                "start_time": 37.8113636,
                "end_time": 37.9113636,
                "pitch": 39,
                "velocity": 80,
                "duration": 0.1,
                "tempo": 120.0
            },
            {
                "start_time": 37.9795455,
                "end_time": 38.0795455,
                "pitch": 41,
                "velocity": 80,
                "duration": 0.1,
                "tempo": 120.0
            },
            {
                "start_time": 38.1522727,
                "end_time": 38.2522727,
                "pitch": 41,
                "velocity": 80,
                "duration": 0.1,
                "tempo": 120.0
            },
            {
                "start_time": 38.3227273,
                "end_time": 38.4227273,
                "pitch": 41,
                "velocity": 80,
                "duration": 0.1,
                "tempo": 120.0
            },
            {
                "start_time": 38.4909091,
                "end_time": 38.5909091,
                "pitch": 41,
                "velocity": 80,
                "duration": 0.1,
                "tempo": 120.0
            },
            {
                "start_time": 38.6590909,
                "end_time": 38.7568182,
                "pitch": 41,
                "velocity": 80,
                "duration": 0.0977273,
                "tempo": 120.0
            },
            {
                "start_time": 38.8272727,
                "end_time": 38.925,
                "pitch": 41,
                "velocity": 80,
                "duration": 0.0977273,
                "tempo": 120.0
            },
            {
                "start_time": 38.9954545,
                "end_time": 39.0954545,
                "pitch": 41,
                "velocity": 80,
                "duration": 0.1,
                "tempo": 120.0
            },
            {
                "start_time": 39.1659091,
                "end_time": 39.2681818,
                "pitch": 41,
                "velocity": 80,
                "duration": 0.1022727,
                "tempo": 120.0
            },
            {
                "start_time": 39.3386364,
                "end_time": 39.4363636,
                "pitch": 38,
                "velocity": 80,
                "duration": 0.0977273,
                "tempo": 120.0
            },
            {
                "start_time": 39.5068182,
                "end_time": 39.6045455,
                "pitch": 38,
                "velocity": 80,
                "duration": 0.0977273,
                "tempo": 120.0
            },
            {
                "start_time": 39.675,
                "end_time": 39.7772727,
                "pitch": 38,
                "velocity": 80,
                "duration": 0.1022727,
                "tempo": 120.0
            },
            {
                "start_time": 39.8454545,
                "end_time": 39.9477273,
                "pitch": 38,
                "velocity": 80,
                "duration": 0.1022727,
                "tempo": 120.0
            },
            {
                "start_time": 40.0181818,
                "end_time": 40.1181818,
                "pitch": 38,
                "velocity": 80,
                "duration": 0.1,
                "tempo": 120.0
            },
            {
                "start_time": 40.1863636,
                "end_time": 40.2863636,
                "pitch": 38,
                "velocity": 80,
                "duration": 0.1,
                "tempo": 120.0
            },
            {
                "start_time": 40.3545455,
                "end_time": 40.4545455,
                "pitch": 38,
                "velocity": 80,
                "duration": 0.1,
                "tempo": 120.0
            },
            {
                "start_time": 40.5227273,
                "end_time": 40.6204545,
                "pitch": 38,
                "velocity": 80,
                "duration": 0.0977273,
                "tempo": 120.0
            },
            {
                "start_time": 40.6909091,
                "end_time": 40.7909091,
                "pitch": 39,
                "velocity": 80,
                "duration": 0.1,
                "tempo": 120.0
            },
            {
                "start_time": 40.8613636,
                "end_time": 40.9636364,
                "pitch": 39,
                "velocity": 80,
                "duration": 0.1022727,
                "tempo": 120.0
            },
            {
                "start_time": 41.0340909,
                "end_time": 41.1340909,
                "pitch": 39,
                "velocity": 80,
                "duration": 0.1,
                "tempo": 120.0
            },
            {
                "start_time": 41.2022727,
                "end_time": 41.3022727,
                "pitch": 39,
                "velocity": 80,
                "duration": 0.1,
                "tempo": 120.0
            },
            {
                "start_time": 41.3704545,
                "end_time": 41.4681818,
                "pitch": 39,
                "velocity": 80,
                "duration": 0.0977273,
                "tempo": 120.0
            },
            {
                "start_time": 41.5386364,
                "end_time": 41.6363636,
                "pitch": 39,
                "velocity": 80,
                "duration": 0.0977273,
                "tempo": 120.0
            },
            {
                "start_time": 41.7045455,
                "end_time": 41.8068182,
                "pitch": 39,
                "velocity": 80,
                "duration": 0.1022727,
                "tempo": 120.0
            },
            {
                "start_time": 41.8772727,
                "end_time": 41.9795455,
                "pitch": 39,
                "velocity": 80,
                "duration": 0.1022727,
                "tempo": 120.0
            },
            {
                "start_time": 42.05,
                "end_time": 42.1477273,
                "pitch": 36,
                "velocity": 80,
                "duration": 0.0977273,
                "tempo": 120.0
            },
            {
                "start_time": 42.2181818,
                "end_time": 42.3159091,
                "pitch": 36,
                "velocity": 80,
                "duration": 0.0977273,
                "tempo": 120.0
            },
            {
                "start_time": 42.3863636,
                "end_time": 42.4863636,
                "pitch": 36,
                "velocity": 80,
                "duration": 0.1,
                "tempo": 120.0
            },
            {
                "start_time": 42.5568182,
                "end_time": 42.6590909,
                "pitch": 36,
                "velocity": 80,
                "duration": 0.1022727,
                "tempo": 120.0
            },
            {
                "start_time": 42.7295455,
                "end_time": 42.8295455,
                "pitch": 36,
                "velocity": 80,
                "duration": 0.1,
                "tempo": 120.0
            },
            {
                "start_time": 42.8977273,
                "end_time": 42.9954545,
                "pitch": 36,
                "velocity": 80,
                "duration": 0.0977273,
                "tempo": 120.0
            },
            {
                "start_time": 43.0659091,
                "end_time": 43.1636364,
                "pitch": 36,
                "velocity": 80,
                "duration": 0.0977273,
                "tempo": 120.0
            },
            {
                "start_time": 43.2318182,
                "end_time": 43.3318182,
                "pitch": 36,
                "velocity": 80,
                "duration": 0.1,
                "tempo": 120.0
            },
            {
                "start_time": 43.4022727,
                "end_time": 43.5022727,
                "pitch": 38,
                "velocity": 80,
                "duration": 0.1,
                "tempo": 120.0
            },
            {
                "start_time": 43.5727273,
                "end_time": 43.675,
                "pitch": 38,
                "velocity": 80,
                "duration": 0.1022727,
                "tempo": 120.0
            },
            {
                "start_time": 43.7454545,
                "end_time": 43.8454545,
                "pitch": 38,
                "velocity": 80,
                "duration": 0.1,
                "tempo": 120.0
            },
            {
                "start_time": 43.9136364,
                "end_time": 44.0113636,
                "pitch": 38,
                "velocity": 80,
                "duration": 0.0977273,
                "tempo": 120.0
            },
            {
                "start_time": 44.0818182,
                "end_time": 44.1795455,
                "pitch": 38,
                "velocity": 80,
                "duration": 0.0977273,
                "tempo": 120.0
            },
            {
                "start_time": 44.2477273,
                "end_time": 44.3477273,
                "pitch": 38,
                "velocity": 80,
                "duration": 0.1,
                "tempo": 120.0
            },
            {
                "start_time": 44.4159091,
                "end_time": 44.5181818,
                "pitch": 38,
                "velocity": 80,
                "duration": 0.1022727,
                "tempo": 120.0
            },
            {
                "start_time": 44.5886364,
                "end_time": 44.6909091,
                "pitch": 38,
                "velocity": 80,
                "duration": 0.1022727,
                "tempo": 120.0
            },
            {
                "start_time": 44.7613636,
                "end_time": 44.8590909,
                "pitch": 39,
                "velocity": 80,
                "duration": 0.0977273,
                "tempo": 120.0
            },
            {
                "start_time": 44.9295455,
                "end_time": 45.0272727,
                "pitch": 39,
                "velocity": 80,
                "duration": 0.0977273,
                "tempo": 120.0
            },
            {
                "start_time": 45.0977273,
                "end_time": 45.1977273,
                "pitch": 42,
                "velocity": 80,
                "duration": 0.1,
                "tempo": 120.0
            },
            {
                "start_time": 45.2681818,
                "end_time": 45.3704545,
                "pitch": 42,
                "velocity": 80,
                "duration": 0.1022727,
                "tempo": 120.0
            },
            {
                "start_time": 45.4409091,
                "end_time": 45.5386364,
                "pitch": 43,
                "velocity": 80,
                "duration": 0.0977273,
                "tempo": 120.0
            },
            {
                "start_time": 45.6090909,
                "end_time": 45.7068182,
                "pitch": 43,
                "velocity": 80,
                "duration": 0.0977273,
                "tempo": 120.0
            },
            {
                "start_time": 45.7772727,
                "end_time": 45.875,
                "pitch": 45,
                "velocity": 80,
                "duration": 0.0977273,
                "tempo": 120.0
            },
            {
                "start_time": 45.9431818,
                "end_time": 46.0431818,
                "pitch": 45,
                "velocity": 80,
                "duration": 0.1,
                "tempo": 120.0
            },
            {
                "start_time": 46.1113636,
                "end_time": 46.2113636,
                "pitch": 46,
                "velocity": 80,
                "duration": 0.1,
                "tempo": 120.0
            },
            {
                "start_time": 46.2840909,
                "end_time": 46.3863636,
                "pitch": 46,
                "velocity": 80,
                "duration": 0.1022727,
                "tempo": 120.0
            },
            {
                "start_time": 46.4568182,
                "end_time": 46.5545455,
                "pitch": 46,
                "velocity": 80,
                "duration": 0.0977273,
                "tempo": 120.0
            },
            {
                "start_time": 46.6227273,
                "end_time": 46.7227273,
                "pitch": 46,
                "velocity": 80,
                "duration": 0.1,
                "tempo": 120.0
            },
            {
                "start_time": 46.7909091,
                "end_time": 46.8909091,
                "pitch": 46,
                "velocity": 80,
                "duration": 0.1,
                "tempo": 120.0
            },
            {
                "start_time": 46.9590909,
                "end_time": 47.0590909,
                "pitch": 46,
                "velocity": 80,
                "duration": 0.1,
                "tempo": 120.0
            },
            {
                "start_time": 47.1272727,
                "end_time": 47.2295455,
                "pitch": 46,
                "velocity": 80,
                "duration": 0.1022727,
                "tempo": 120.0
            },
            {
                "start_time": 47.3,
                "end_time": 47.4022727,
                "pitch": 46,
                "velocity": 80,
                "duration": 0.1022727,
                "tempo": 120.0
            },
            {
                "start_time": 47.4727273,
                "end_time": 47.5704545,
                "pitch": 48,
                "velocity": 80,
                "duration": 0.0977273,
                "tempo": 120.0
            },
            {
                "start_time": 47.6386364,
                "end_time": 47.7386364,
                "pitch": 48,
                "velocity": 80,
                "duration": 0.1,
                "tempo": 120.0
            },
            {
                "start_time": 47.8090909,
                "end_time": 47.9090909,
                "pitch": 48,
                "velocity": 80,
                "duration": 0.1,
                "tempo": 120.0
            },
            {
                "start_time": 47.9795455,
                "end_time": 48.0818182,
                "pitch": 48,
                "velocity": 80,
                "duration": 0.1022727,
                "tempo": 120.0
            },
            {
                "start_time": 48.1522727,
                "end_time": 48.25,
                "pitch": 48,
                "velocity": 80,
                "duration": 0.0977273,
                "tempo": 120.0
            },
            {
                "start_time": 48.3204545,
                "end_time": 48.4181818,
                "pitch": 48,
                "velocity": 80,
                "duration": 0.0977273,
                "tempo": 120.0
            },
            {
                "start_time": 48.4886364,
                "end_time": 48.5863636,
                "pitch": 48,
                "velocity": 80,
                "duration": 0.0977273,
                "tempo": 120.0
            },
            {
                "start_time": 48.6545455,
                "end_time": 48.7545455,
                "pitch": 48,
                "velocity": 80,
                "duration": 0.1,
                "tempo": 120.0
            },
            {
                "start_time": 48.825,
                "end_time": 48.925,
                "pitch": 45,
                "velocity": 80,
                "duration": 0.1,
                "tempo": 120.0
            },
            {
                "start_time": 48.9954545,
                "end_time": 49.0977273,
                "pitch": 45,
                "velocity": 80,
                "duration": 0.1022727,
                "tempo": 120.0
            },
            {
                "start_time": 49.1681818,
                "end_time": 49.2659091,
                "pitch": 45,
                "velocity": 80,
                "duration": 0.0977273,
                "tempo": 120.0
            },
            {
                "start_time": 49.3340909,
                "end_time": 49.4340909,
                "pitch": 45,
                "velocity": 80,
                "duration": 0.1,
                "tempo": 120.0
            },
            {
                "start_time": 49.5022727,
                "end_time": 49.6022727,
                "pitch": 45,
                "velocity": 80,
                "duration": 0.1,
                "tempo": 120.0
            },
            {
                "start_time": 49.6704545,
                "end_time": 49.7681818,
                "pitch": 45,
                "velocity": 80,
                "duration": 0.0977273,
                "tempo": 120.0
            },
            {
                "start_time": 49.8386364,
                "end_time": 49.9409091,
                "pitch": 45,
                "velocity": 80,
                "duration": 0.1022727,
                "tempo": 120.0
            },
            {
                "start_time": 50.0113636,
                "end_time": 50.1136364,
                "pitch": 45,
                "velocity": 80,
                "duration": 0.1022727,
                "tempo": 120.0
            },
            {
                "start_time": 50.1840909,
                "end_time": 50.2818182,
                "pitch": 46,
                "velocity": 80,
                "duration": 0.0977273,
                "tempo": 120.0
            },
            {
                "start_time": 50.35,
                "end_time": 50.45,
                "pitch": 46,
                "velocity": 80,
                "duration": 0.1,
                "tempo": 120.0
            },
            {
                "start_time": 50.5181818,
                "end_time": 50.6204545,
                "pitch": 46,
                "velocity": 80,
                "duration": 0.1022727,
                "tempo": 120.0
            },
            {
                "start_time": 50.6909091,
                "end_time": 50.7931818,
                "pitch": 46,
                "velocity": 80,
                "duration": 0.1022727,
                "tempo": 120.0
            },
            {
                "start_time": 50.8636364,
                "end_time": 50.9613636,
                "pitch": 46,
                "velocity": 80,
                "duration": 0.0977273,
                "tempo": 120.0
            },
            {
                "start_time": 51.0318182,
                "end_time": 51.1295455,
                "pitch": 46,
                "velocity": 80,
                "duration": 0.0977273,
                "tempo": 120.0
            },
            {
                "start_time": 51.2,
                "end_time": 51.2977273,
                "pitch": 46,
                "velocity": 80,
                "duration": 0.0977273,
                "tempo": 120.0
            },
            {
                "start_time": 51.3659091,
                "end_time": 51.4659091,
                "pitch": 46,
                "velocity": 80,
                "duration": 0.1,
                "tempo": 120.0
            },
            {
                "start_time": 51.5340909,
                "end_time": 51.6363636,
                "pitch": 43,
                "velocity": 80,
                "duration": 0.1022727,
                "tempo": 120.0
            },
            {
                "start_time": 51.7068182,
                "end_time": 51.8068182,
                "pitch": 43,
                "velocity": 80,
                "duration": 0.1,
                "tempo": 120.0
            },
            {
                "start_time": 51.8795455,
                "end_time": 51.9772727,
                "pitch": 43,
                "velocity": 80,
                "duration": 0.0977273,
                "tempo": 120.0
            },
            {
                "start_time": 52.0454545,
                "end_time": 52.1454545,
                "pitch": 43,
                "velocity": 80,
                "duration": 0.1,
                "tempo": 120.0
            },
            {
                "start_time": 52.2136364,
                "end_time": 52.3136364,
                "pitch": 43,
                "velocity": 80,
                "duration": 0.1,
                "tempo": 120.0
            },
            {
                "start_time": 52.3818182,
                "end_time": 52.4795455,
                "pitch": 43,
                "velocity": 80,
                "duration": 0.0977273,
                "tempo": 120.0
            },
            {
                "start_time": 52.55,
                "end_time": 52.6522727,
                "pitch": 43,
                "velocity": 80,
                "duration": 0.1022727,
                "tempo": 120.0
            },
            {
                "start_time": 52.7204545,
                "end_time": 52.8227273,
                "pitch": 43,
                "velocity": 80,
                "duration": 0.1022727,
                "tempo": 120.0
            },
            {
                "start_time": 52.8931818,
                "end_time": 52.9909091,
                "pitch": 45,
                "velocity": 80,
                "duration": 0.0977273,
                "tempo": 120.0
            },
            {
                "start_time": 53.0613636,
                "end_time": 53.1613636,
                "pitch": 45,
                "velocity": 80,
                "duration": 0.1,
                "tempo": 120.0
            },
            {
                "start_time": 53.2295455,
                "end_time": 53.3318182,
                "pitch": 45,
                "velocity": 80,
                "duration": 0.1022727,
                "tempo": 120.0
            },
            {
                "start_time": 53.4022727,
                "end_time": 53.5045455,
                "pitch": 45,
                "velocity": 80,
                "duration": 0.1022727,
                "tempo": 120.0
            },
            {
                "start_time": 53.575,
                "end_time": 53.6727273,
                "pitch": 45,
                "velocity": 80,
                "duration": 0.0977273,
                "tempo": 120.0
            },
            {
                "start_time": 53.7409091,
                "end_time": 53.8409091,
                "pitch": 45,
                "velocity": 80,
                "duration": 0.1,
                "tempo": 120.0
            },
            {
                "start_time": 53.9090909,
                "end_time": 54.0113636,
                "pitch": 45,
                "velocity": 80,
                "duration": 0.1022727,
                "tempo": 120.0
            },
            {
                "start_time": 54.0818182,
                "end_time": 54.1840909,
                "pitch": 45,
                "velocity": 80,
                "duration": 0.1022727,
                "tempo": 120.0
            },
            {
                "start_time": 54.2545455,
                "end_time": 54.7568182,
                "pitch": 38,
                "velocity": 80,
                "duration": 0.5022727,
                "tempo": 120.0
            },
            {
                "start_time": 54.7568182,
                "end_time": 55.2681818,
                "pitch": 36,
                "velocity": 80,
                "duration": 0.5113636,
                "tempo": 120.0
            },
            {
                "start_time": 55.2704545,
                "end_time": 55.6045455,
                "pitch": 39,
                "velocity": 80,
                "duration": 0.3340909,
                "tempo": 120.0
            },
            {
                "start_time": 55.6045455,
                "end_time": 55.7704545,
                "pitch": 38,
                "velocity": 80,
                "duration": 0.1659091,
                "tempo": 120.0
            },
            {
                "start_time": 56.9613636,
                "end_time": 57.0568182,
                "pitch": 43,
                "velocity": 80,
                "duration": 0.0954545,
                "tempo": 120.0
            },
            {
                "start_time": 57.1272727,
                "end_time": 57.2272727,
                "pitch": 43,
                "velocity": 80,
                "duration": 0.1,
                "tempo": 120.0
            },
            {
                "start_time": 57.3,
                "end_time": 57.3977273,
                "pitch": 43,
                "velocity": 80,
                "duration": 0.0977273,
                "tempo": 120.0
            },
            {
                "start_time": 57.4659091,
                "end_time": 57.5659091,
                "pitch": 43,
                "velocity": 80,
                "duration": 0.1,
                "tempo": 120.0
            },
            {
                "start_time": 57.6340909,
                "end_time": 57.7363636,
                "pitch": 43,
                "velocity": 80,
                "duration": 0.1022727,
                "tempo": 120.0
            },
            {
                "start_time": 57.8068182,
                "end_time": 57.9090909,
                "pitch": 43,
                "velocity": 80,
                "duration": 0.1022727,
                "tempo": 120.0
            },
            {
                "start_time": 57.9795455,
                "end_time": 58.0772727,
                "pitch": 43,
                "velocity": 80,
                "duration": 0.0977273,
                "tempo": 120.0
            },
            {
                "start_time": 58.1477273,
                "end_time": 58.2454545,
                "pitch": 43,
                "velocity": 80,
                "duration": 0.0977273,
                "tempo": 120.0
            },
            {
                "start_time": 58.3159091,
                "end_time": 58.4136364,
                "pitch": 43,
                "velocity": 80,
                "duration": 0.0977273,
                "tempo": 120.0
            },
            {
                "start_time": 58.4818182,
                "end_time": 58.5818182,
                "pitch": 43,
                "velocity": 80,
                "duration": 0.1,
                "tempo": 120.0
            },
            {
                "start_time": 58.65,
                "end_time": 58.7522727,
                "pitch": 43,
                "velocity": 80,
                "duration": 0.1022727,
                "tempo": 120.0
            },
            {
                "start_time": 58.8227273,
                "end_time": 58.9227273,
                "pitch": 43,
                "velocity": 80,
                "duration": 0.1,
                "tempo": 120.0
            },
            {
                "start_time": 58.9954545,
                "end_time": 59.0931818,
                "pitch": 43,
                "velocity": 80,
                "duration": 0.0977273,
                "tempo": 120.0
            },
            {
                "start_time": 59.1613636,
                "end_time": 59.2613636,
                "pitch": 43,
                "velocity": 80,
                "duration": 0.1,
                "tempo": 120.0
            },
            {
                "start_time": 59.3295455,
                "end_time": 59.4318182,
                "pitch": 43,
                "velocity": 80,
                "duration": 0.1022727,
                "tempo": 120.0
            },
            {
                "start_time": 59.5022727,
                "end_time": 59.6045455,
                "pitch": 43,
                "velocity": 80,
                "duration": 0.1022727,
                "tempo": 120.0
            },
            {
                "start_time": 59.6772727,
                "end_time": 59.7727273,
                "pitch": 43,
                "velocity": 80,
                "duration": 0.0954545,
                "tempo": 120.0
            },
            {
                "start_time": 59.8409091,
                "end_time": 59.9409091,
                "pitch": 43,
                "velocity": 80,
                "duration": 0.1,
                "tempo": 120.0
            },
            {
                "start_time": 60.0090909,
                "end_time": 60.1090909,
                "pitch": 43,
                "velocity": 80,
                "duration": 0.1,
                "tempo": 120.0
            },
            {
                "start_time": 60.1772727,
                "end_time": 60.2772727,
                "pitch": 43,
                "velocity": 80,
                "duration": 0.1,
                "tempo": 120.0
            },
            {
                "start_time": 60.3454545,
                "end_time": 60.4477273,
                "pitch": 43,
                "velocity": 80,
                "duration": 0.1022727,
                "tempo": 120.0
            },
            {
                "start_time": 60.5181818,
                "end_time": 60.6204545,
                "pitch": 43,
                "velocity": 80,
                "duration": 0.1022727,
                "tempo": 120.0
            },
            {
                "start_time": 60.6909091,
                "end_time": 60.7886364,
                "pitch": 43,
                "velocity": 80,
                "duration": 0.0977273,
                "tempo": 120.0
            },
            {
                "start_time": 60.8568182,
                "end_time": 60.9568182,
                "pitch": 43,
                "velocity": 80,
                "duration": 0.1,
                "tempo": 120.0
            },
            {
                "start_time": 61.0272727,
                "end_time": 61.125,
                "pitch": 39,
                "velocity": 80,
                "duration": 0.0977273,
                "tempo": 120.0
            },
            {
                "start_time": 61.1931818,
                "end_time": 61.2909091,
                "pitch": 39,
                "velocity": 80,
                "duration": 0.0977273,
                "tempo": 120.0
            },
            {
                "start_time": 61.3613636,
                "end_time": 61.4613636,
                "pitch": 39,
                "velocity": 80,
                "duration": 0.1,
                "tempo": 120.0
            },
            {
                "start_time": 61.5340909,
                "end_time": 61.6340909,
                "pitch": 39,
                "velocity": 80,
                "duration": 0.1,
                "tempo": 120.0
            },
            {
                "start_time": 61.7068182,
                "end_time": 61.8045455,
                "pitch": 39,
                "velocity": 80,
                "duration": 0.0977273,
                "tempo": 120.0
            },
            {
                "start_time": 61.8727273,
                "end_time": 61.9727273,
                "pitch": 39,
                "velocity": 80,
                "duration": 0.1,
                "tempo": 120.0
            },
            {
                "start_time": 62.0409091,
                "end_time": 62.1386364,
                "pitch": 39,
                "velocity": 80,
                "duration": 0.0977273,
                "tempo": 120.0
            },
            {
                "start_time": 62.2090909,
                "end_time": 62.3068182,
                "pitch": 39,
                "velocity": 80,
                "duration": 0.0977273,
                "tempo": 120.0
            },
            {
                "start_time": 62.3772727,
                "end_time": 62.4772727,
                "pitch": 43,
                "velocity": 80,
                "duration": 0.1,
                "tempo": 120.0
            },
            {
                "start_time": 62.5477273,
                "end_time": 62.65,
                "pitch": 43,
                "velocity": 80,
                "duration": 0.1022727,
                "tempo": 120.0
            },
            {
                "start_time": 62.7204545,
                "end_time": 62.8204545,
                "pitch": 43,
                "velocity": 80,
                "duration": 0.1,
                "tempo": 120.0
            },
            {
                "start_time": 62.8886364,
                "end_time": 62.9886364,
                "pitch": 43,
                "velocity": 80,
                "duration": 0.1,
                "tempo": 120.0
            },
            {
                "start_time": 63.0568182,
                "end_time": 63.1568182,
                "pitch": 43,
                "velocity": 80,
                "duration": 0.1,
                "tempo": 120.0
            },
            {
                "start_time": 63.2295455,
                "end_time": 63.3295455,
                "pitch": 43,
                "velocity": 80,
                "duration": 0.1,
                "tempo": 120.0
            },
            {
                "start_time": 63.4,
                "end_time": 63.5,
                "pitch": 43,
                "velocity": 80,
                "duration": 0.1,
                "tempo": 120.0
            },
            {
                "start_time": 63.5681818,
                "end_time": 63.6681818,
                "pitch": 43,
                "velocity": 80,
                "duration": 0.1,
                "tempo": 120.0
            },
            {
                "start_time": 63.7386364,
                "end_time": 63.8363636,
                "pitch": 43,
                "velocity": 80,
                "duration": 0.0977273,
                "tempo": 120.0
            },
            {
                "start_time": 63.9045455,
                "end_time": 64.0022727,
                "pitch": 43,
                "velocity": 80,
                "duration": 0.0977273,
                "tempo": 120.0
            },
            {
                "start_time": 64.0727273,
                "end_time": 64.1727273,
                "pitch": 43,
                "velocity": 80,
                "duration": 0.1,
                "tempo": 120.0
            },
            {
                "start_time": 64.2431818,
                "end_time": 64.3454545,
                "pitch": 43,
                "velocity": 80,
                "duration": 0.1022727,
                "tempo": 120.0
            },
            {
                "start_time": 64.4181818,
                "end_time": 64.5159091,
                "pitch": 43,
                "velocity": 80,
                "duration": 0.0977273,
                "tempo": 120.0
            },
            {
                "start_time": 64.5840909,
                "end_time": 64.6840909,
                "pitch": 43,
                "velocity": 80,
                "duration": 0.1,
                "tempo": 120.0
            },
            {
                "start_time": 64.7522727,
                "end_time": 64.8545455,
                "pitch": 43,
                "velocity": 80,
                "duration": 0.1022727,
                "tempo": 120.0
            },
            {
                "start_time": 64.925,
                "end_time": 65.025,
                "pitch": 43,
                "velocity": 80,
                "duration": 0.1,
                "tempo": 120.0
            },
            {
                "start_time": 65.0977273,
                "end_time": 65.1954545,
                "pitch": 39,
                "velocity": 80,
                "duration": 0.0977273,
                "tempo": 120.0
            },
            {
                "start_time": 65.2636364,
                "end_time": 65.3636364,
                "pitch": 39,
                "velocity": 80,
                "duration": 0.1,
                "tempo": 120.0
            },
            {
                "start_time": 65.4318182,
                "end_time": 65.5318182,
                "pitch": 39,
                "velocity": 80,
                "duration": 0.1,
                "tempo": 120.0
            },
            {
                "start_time": 65.6,
                "end_time": 65.6977273,
                "pitch": 39,
                "velocity": 80,
                "duration": 0.0977273,
                "tempo": 120.0
            },
            {
                "start_time": 65.7681818,
                "end_time": 65.8681818,
                "pitch": 39,
                "velocity": 80,
                "duration": 0.1,
                "tempo": 120.0
            },
            {
                "start_time": 65.9386364,
                "end_time": 66.0409091,
                "pitch": 39,
                "velocity": 80,
                "duration": 0.1022727,
                "tempo": 120.0
            },
            {
                "start_time": 66.1113636,
                "end_time": 66.2113636,
                "pitch": 39,
                "velocity": 80,
                "duration": 0.1,
                "tempo": 120.0
            },
            {
                "start_time": 66.2795455,
                "end_time": 66.3795455,
                "pitch": 39,
                "velocity": 80,
                "duration": 0.1,
                "tempo": 120.0
            },
            {
                "start_time": 66.45,
                "end_time": 66.5454545,
                "pitch": 36,
                "velocity": 80,
                "duration": 0.0954545,
                "tempo": 120.0
            },
            {
                "start_time": 66.6159091,
                "end_time": 66.7136364,
                "pitch": 36,
                "velocity": 80,
                "duration": 0.0977273,
                "tempo": 120.0
            },
            {
                "start_time": 66.7818182,
                "end_time": 66.8840909,
                "pitch": 38,
                "velocity": 80,
                "duration": 0.1022727,
                "tempo": 120.0
            },
            {
                "start_time": 66.9545455,
                "end_time": 67.0568182,
                "pitch": 38,
                "velocity": 80,
                "duration": 0.1022727,
                "tempo": 120.0
            },
            {
                "start_time": 67.1272727,
                "end_time": 67.2272727,
                "pitch": 39,
                "velocity": 80,
                "duration": 0.1,
                "tempo": 120.0
            },
            {
                "start_time": 67.2954545,
                "end_time": 67.3931818,
                "pitch": 39,
                "velocity": 80,
                "duration": 0.0977273,
                "tempo": 120.0
            },
            {
                "start_time": 67.4613636,
                "end_time": 67.5636364,
                "pitch": 39,
                "velocity": 80,
                "duration": 0.1022727,
                "tempo": 120.0
            },
            {
                "start_time": 67.6340909,
                "end_time": 67.7363636,
                "pitch": 39,
                "velocity": 80,
                "duration": 0.1022727,
                "tempo": 120.0
            },
            {
                "start_time": 67.8090909,
                "end_time": 67.9068182,
                "pitch": 43,
                "velocity": 80,
                "duration": 0.0977273,
                "tempo": 120.0
            },
            {
                "start_time": 67.975,
                "end_time": 68.075,
                "pitch": 43,
                "velocity": 80,
                "duration": 0.1,
                "tempo": 120.0
            },
            {
                "start_time": 68.1431818,
                "end_time": 68.2409091,
                "pitch": 43,
                "velocity": 80,
                "duration": 0.0977273,
                "tempo": 120.0
            },
            {
                "start_time": 68.3113636,
                "end_time": 68.4090909,
                "pitch": 43,
                "velocity": 80,
                "duration": 0.0977273,
                "tempo": 120.0
            },
            {
                "start_time": 68.4795455,
                "end_time": 68.5795455,
                "pitch": 43,
                "velocity": 80,
                "duration": 0.1,
                "tempo": 120.0
            },
            {
                "start_time": 68.65,
                "end_time": 68.7522727,
                "pitch": 43,
                "velocity": 80,
                "duration": 0.1022727,
                "tempo": 120.0
            },
            {
                "start_time": 68.8227273,
                "end_time": 68.9227273,
                "pitch": 43,
                "velocity": 80,
                "duration": 0.1,
                "tempo": 120.0
            },
            {
                "start_time": 68.9909091,
                "end_time": 69.0886364,
                "pitch": 43,
                "velocity": 80,
                "duration": 0.0977273,
                "tempo": 120.0
            },
            {
                "start_time": 69.1590909,
                "end_time": 69.2568182,
                "pitch": 43,
                "velocity": 80,
                "duration": 0.0977273,
                "tempo": 120.0
            },
            {
                "start_time": 69.325,
                "end_time": 69.425,
                "pitch": 43,
                "velocity": 80,
                "duration": 0.1,
                "tempo": 120.0
            },
            {
                "start_time": 69.4931818,
                "end_time": 69.5954545,
                "pitch": 43,
                "velocity": 80,
                "duration": 0.1022727,
                "tempo": 120.0
            },
            {
                "start_time": 69.6659091,
                "end_time": 69.7681818,
                "pitch": 43,
                "velocity": 80,
                "duration": 0.1022727,
                "tempo": 120.0
            },
            {
                "start_time": 69.8386364,
                "end_time": 69.9363636,
                "pitch": 43,
                "velocity": 80,
                "duration": 0.0977273,
                "tempo": 120.0
            },
            {
                "start_time": 70.0068182,
                "end_time": 70.1045455,
                "pitch": 43,
                "velocity": 80,
                "duration": 0.0977273,
                "tempo": 120.0
            },
            {
                "start_time": 70.1727273,
                "end_time": 70.275,
                "pitch": 43,
                "velocity": 80,
                "duration": 0.1022727,
                "tempo": 120.0
            },
            {
                "start_time": 70.3454545,
                "end_time": 70.4477273,
                "pitch": 43,
                "velocity": 80,
                "duration": 0.1022727,
                "tempo": 120.0
            },
            {
                "start_time": 70.5204545,
                "end_time": 70.6181818,
                "pitch": 43,
                "velocity": 80,
                "duration": 0.0977273,
                "tempo": 120.0
            },
            {
                "start_time": 70.6863636,
                "end_time": 70.7840909,
                "pitch": 43,
                "velocity": 80,
                "duration": 0.0977273,
                "tempo": 120.0
            },
            {
                "start_time": 70.8545455,
                "end_time": 70.9522727,
                "pitch": 43,
                "velocity": 80,
                "duration": 0.0977273,
                "tempo": 120.0
            },
            {
                "start_time": 71.0204545,
                "end_time": 71.1204545,
                "pitch": 43,
                "velocity": 80,
                "duration": 0.1,
                "tempo": 120.0
            },
            {
                "start_time": 71.1909091,
                "end_time": 71.2909091,
                "pitch": 43,
                "velocity": 80,
                "duration": 0.1,
                "tempo": 120.0
            },
            {
                "start_time": 71.3613636,
                "end_time": 71.4636364,
                "pitch": 43,
                "velocity": 80,
                "duration": 0.1022727,
                "tempo": 120.0
            },
            {
                "start_time": 71.5340909,
                "end_time": 71.6318182,
                "pitch": 43,
                "velocity": 80,
                "duration": 0.0977273,
                "tempo": 120.0
            },
            {
                "start_time": 71.7022727,
                "end_time": 71.8,
                "pitch": 43,
                "velocity": 80,
                "duration": 0.0977273,
                "tempo": 120.0
            },
            {
                "start_time": 71.8704545,
                "end_time": 71.9681818,
                "pitch": 39,
                "velocity": 80,
                "duration": 0.0977273,
                "tempo": 120.0
            },
            {
                "start_time": 72.0363636,
                "end_time": 72.1363636,
                "pitch": 39,
                "velocity": 80,
                "duration": 0.1,
                "tempo": 120.0
            },
            {
                "start_time": 72.2045455,
                "end_time": 72.3068182,
                "pitch": 39,
                "velocity": 80,
                "duration": 0.1022727,
                "tempo": 120.0
            },
            {
                "start_time": 72.3772727,
                "end_time": 72.4795455,
                "pitch": 39,
                "velocity": 80,
                "duration": 0.1022727,
                "tempo": 120.0
            },
            {
                "start_time": 72.55,
                "end_time": 72.6477273,
                "pitch": 39,
                "velocity": 80,
                "duration": 0.0977273,
                "tempo": 120.0
            },
            {
                "start_time": 72.7181818,
                "end_time": 72.8159091,
                "pitch": 39,
                "velocity": 80,
                "duration": 0.0977273,
                "tempo": 120.0
            },
            {
                "start_time": 72.8840909,
                "end_time": 72.9840909,
                "pitch": 39,
                "velocity": 80,
                "duration": 0.1,
                "tempo": 120.0
            },
            {
                "start_time": 73.0522727,
                "end_time": 73.1522727,
                "pitch": 39,
                "velocity": 80,
                "duration": 0.1,
                "tempo": 120.0
            },
            {
                "start_time": 73.2227273,
                "end_time": 73.3227273,
                "pitch": 43,
                "velocity": 80,
                "duration": 0.1,
                "tempo": 120.0
            },
            {
                "start_time": 73.3931818,
                "end_time": 73.4931818,
                "pitch": 43,
                "velocity": 80,
                "duration": 0.1,
                "tempo": 120.0
            },
            {
                "start_time": 73.5659091,
                "end_time": 73.6636364,
                "pitch": 43,
                "velocity": 80,
                "duration": 0.0977273,
                "tempo": 120.0
            },
            {
                "start_time": 73.7318182,
                "end_time": 73.8318182,
                "pitch": 43,
                "velocity": 80,
                "duration": 0.1,
                "tempo": 120.0
            },
            {
                "start_time": 73.9,
                "end_time": 74.0022727,
                "pitch": 43,
                "velocity": 80,
                "duration": 0.1022727,
                "tempo": 120.0
            },
            {
                "start_time": 74.0727273,
                "end_time": 74.175,
                "pitch": 43,
                "velocity": 80,
                "duration": 0.1022727,
                "tempo": 120.0
            },
            {
                "start_time": 74.2454545,
                "end_time": 74.3431818,
                "pitch": 43,
                "velocity": 80,
                "duration": 0.0977273,
                "tempo": 120.0
            },
            {
                "start_time": 74.4136364,
                "end_time": 74.5113636,
                "pitch": 43,
                "velocity": 80,
                "duration": 0.0977273,
                "tempo": 120.0
            },
            {
                "start_time": 74.5818182,
                "end_time": 74.6795455,
                "pitch": 43,
                "velocity": 80,
                "duration": 0.0977273,
                "tempo": 120.0
            },
            {
                "start_time": 74.7477273,
                "end_time": 74.8477273,
                "pitch": 43,
                "velocity": 80,
                "duration": 0.1,
                "tempo": 120.0
            },
            {
                "start_time": 74.9159091,
                "end_time": 75.0181818,
                "pitch": 43,
                "velocity": 80,
                "duration": 0.1022727,
                "tempo": 120.0
            },
            {
                "start_time": 75.0886364,
                "end_time": 75.1909091,
                "pitch": 43,
                "velocity": 80,
                "duration": 0.1022727,
                "tempo": 120.0
            },
            {
                "start_time": 75.2613636,
                "end_time": 75.3590909,
                "pitch": 43,
                "velocity": 80,
                "duration": 0.0977273,
                "tempo": 120.0
            },
            {
                "start_time": 75.4272727,
                "end_time": 75.5272727,
                "pitch": 43,
                "velocity": 80,
                "duration": 0.1,
                "tempo": 120.0
            },
            {
                "start_time": 75.5954545,
                "end_time": 75.6977273,
                "pitch": 43,
                "velocity": 80,
                "duration": 0.1022727,
                "tempo": 120.0
            },
            {
                "start_time": 75.7681818,
                "end_time": 75.8704545,
                "pitch": 43,
                "velocity": 80,
                "duration": 0.1022727,
                "tempo": 120.0
            },
            {
                "start_time": 75.9431818,
                "end_time": 76.0386364,
                "pitch": 39,
                "velocity": 80,
                "duration": 0.0954545,
                "tempo": 120.0
            },
            {
                "start_time": 76.1068182,
                "end_time": 76.2068182,
                "pitch": 39,
                "velocity": 80,
                "duration": 0.1,
                "tempo": 120.0
            },
            {
                "start_time": 76.275,
                "end_time": 76.375,
                "pitch": 39,
                "velocity": 80,
                "duration": 0.1,
                "tempo": 120.0
            },
            {
                "start_time": 76.4431818,
                "end_time": 76.5431818,
                "pitch": 39,
                "velocity": 80,
                "duration": 0.1,
                "tempo": 120.0
            },
            {
                "start_time": 76.6113636,
                "end_time": 76.7136364,
                "pitch": 39,
                "velocity": 80,
                "duration": 0.1022727,
                "tempo": 120.0
            },
            {
                "start_time": 76.7840909,
                "end_time": 76.8863636,
                "pitch": 39,
                "velocity": 80,
                "duration": 0.1022727,
                "tempo": 120.0
            },
            {
                "start_time": 76.9568182,
                "end_time": 77.0545455,
                "pitch": 39,
                "velocity": 80,
                "duration": 0.0977273,
                "tempo": 120.0
            },
            {
                "start_time": 77.1227273,
                "end_time": 77.2227273,
                "pitch": 39,
                "velocity": 80,
                "duration": 0.1,
                "tempo": 120.0
            },
            {
                "start_time": 77.2931818,
                "end_time": 77.3909091,
                "pitch": 36,
                "velocity": 80,
                "duration": 0.0977273,
                "tempo": 120.0
            }
        ],
        "Electric Piano 1": [
            {
                "start_time": 0.0363636,
                "end_time": 0.2,
                "pitch": 67,
                "velocity": 101,
                "duration": 0.1636364,
                "tempo": 120.0
            },
            {
                "start_time": 0.2,
                "end_time": 0.3659091,
                "pitch": 69,
                "velocity": 101,
                "duration": 0.1659091,
                "tempo": 120.0
            },
            {
                "start_time": 0.3681818,
                "end_time": 0.5340909,
                "pitch": 70,
                "velocity": 101,
                "duration": 0.1659091,
                "tempo": 120.0
            },
            {
                "start_time": 0.5363636,
                "end_time": 0.7022727,
                "pitch": 67,
                "velocity": 101,
                "duration": 0.1659091,
                "tempo": 120.0
            },
            {
                "start_time": 0.7045455,
                "end_time": 0.8704545,
                "pitch": 69,
                "velocity": 101,
                "duration": 0.1659091,
                "tempo": 120.0
            },
            {
                "start_time": 0.8704545,
                "end_time": 1.0386364,
                "pitch": 70,
                "velocity": 101,
                "duration": 0.1681818,
                "tempo": 120.0
            },
            {
                "start_time": 1.0386364,
                "end_time": 1.2090909,
                "pitch": 72,
                "velocity": 101,
                "duration": 0.1704545,
                "tempo": 120.0
            },
            {
                "start_time": 1.2113636,
                "end_time": 1.3818182,
                "pitch": 69,
                "velocity": 101,
                "duration": 0.1704545,
                "tempo": 120.0
            },
            {
                "start_time": 1.3840909,
                "end_time": 1.55,
                "pitch": 70,
                "velocity": 101,
                "duration": 0.1659091,
                "tempo": 120.0
            },
            {
                "start_time": 1.5522727,
                "end_time": 1.7181818,
                "pitch": 72,
                "velocity": 101,
                "duration": 0.1659091,
                "tempo": 120.0
            },
            {
                "start_time": 1.7181818,
                "end_time": 1.8863636,
                "pitch": 74,
                "velocity": 101,
                "duration": 0.1681818,
                "tempo": 120.0
            },
            {
                "start_time": 1.8863636,
                "end_time": 2.0522727,
                "pitch": 70,
                "velocity": 101,
                "duration": 0.1659091,
                "tempo": 120.0
            },
            {
                "start_time": 2.0545455,
                "end_time": 2.225,
                "pitch": 72,
                "velocity": 101,
                "duration": 0.1704545,
                "tempo": 120.0
            },
            {
                "start_time": 2.2272727,
                "end_time": 2.3977273,
                "pitch": 74,
                "velocity": 101,
                "duration": 0.1704545,
                "tempo": 120.0
            },
            {
                "start_time": 2.4,
                "end_time": 2.5659091,
                "pitch": 75,
                "velocity": 101,
                "duration": 0.1659091,
                "tempo": 120.0
            },
            {
                "start_time": 2.5659091,
                "end_time": 2.7340909,
                "pitch": 72,
                "velocity": 101,
                "duration": 0.1681818,
                "tempo": 120.0
            },
            {
                "start_time": 2.7340909,
                "end_time": 2.9045455,
                "pitch": 74,
                "velocity": 101,
                "duration": 0.1704545,
                "tempo": 120.0
            },
            {
                "start_time": 2.9068182,
                "end_time": 3.0772727,
                "pitch": 72,
                "velocity": 101,
                "duration": 0.1704545,
                "tempo": 120.0
            },
            {
                "start_time": 3.0795455,
                "end_time": 3.2454545,
                "pitch": 74,
                "velocity": 101,
                "duration": 0.1659091,
                "tempo": 120.0
            },
            {
                "start_time": 3.2477273,
                "end_time": 3.4136364,
                "pitch": 79,
                "velocity": 101,
                "duration": 0.1659091,
                "tempo": 120.0
            },
            {
                "start_time": 3.4159091,
                "end_time": 3.5818182,
                "pitch": 72,
                "velocity": 101,
                "duration": 0.1659091,
                "tempo": 120.0
            },
            {
                "start_time": 3.5818182,
                "end_time": 3.7477273,
                "pitch": 70,
                "velocity": 101,
                "duration": 0.1659091,
                "tempo": 120.0
            },
            {
                "start_time": 3.75,
                "end_time": 3.9159091,
                "pitch": 72,
                "velocity": 101,
                "duration": 0.1659091,
                "tempo": 120.0
            },
            {
                "start_time": 3.9181818,
                "end_time": 4.0840909,
                "pitch": 79,
                "velocity": 101,
                "duration": 0.1659091,
                "tempo": 120.0
            },
            {
                "start_time": 4.0863636,
                "end_time": 4.2568182,
                "pitch": 70,
                "velocity": 101,
                "duration": 0.1704545,
                "tempo": 120.0
            },
            {
                "start_time": 4.2568182,
                "end_time": 4.4295455,
                "pitch": 69,
                "velocity": 101,
                "duration": 0.1727273,
                "tempo": 120.0
            },
            {
                "start_time": 4.4295455,
                "end_time": 4.5954545,
                "pitch": 70,
                "velocity": 101,
                "duration": 0.1659091,
                "tempo": 120.0
            },
            {
                "start_time": 4.5977273,
                "end_time": 4.7636364,
                "pitch": 74,
                "velocity": 101,
                "duration": 0.1659091,
                "tempo": 120.0
            },
            {
                "start_time": 4.7659091,
                "end_time": 4.9363636,
                "pitch": 69,
                "velocity": 101,
                "duration": 0.1704545,
                "tempo": 120.0
            },
            {
                "start_time": 4.9386364,
                "end_time": 5.1090909,
                "pitch": 67,
                "velocity": 101,
                "duration": 0.1704545,
                "tempo": 120.0
            },
            {
                "start_time": 5.1113636,
                "end_time": 5.2772727,
                "pitch": 69,
                "velocity": 101,
                "duration": 0.1659091,
                "tempo": 120.0
            },
            {
                "start_time": 5.2772727,
                "end_time": 5.4454545,
                "pitch": 70,
                "velocity": 101,
                "duration": 0.1681818,
                "tempo": 120.0
            },
            {
                "start_time": 5.4477273,
                "end_time": 5.6113636,
                "pitch": 67,
                "velocity": 101,
                "duration": 0.1636364,
                "tempo": 120.0
            },
            {
                "start_time": 5.6136364,
                "end_time": 5.7795455,
                "pitch": 69,
                "velocity": 101,
                "duration": 0.1659091,
                "tempo": 120.0
            },
            {
                "start_time": 5.7818182,
                "end_time": 5.9522727,
                "pitch": 70,
                "velocity": 101,
                "duration": 0.1704545,
                "tempo": 120.0
            },
            {
                "start_time": 5.9522727,
                "end_time": 6.125,
                "pitch": 67,
                "velocity": 101,
                "duration": 0.1727273,
                "tempo": 120.0
            },
            {
                "start_time": 6.125,
                "end_time": 6.2909091,
                "pitch": 69,
                "velocity": 101,
                "duration": 0.1659091,
                "tempo": 120.0
            },
            {
                "start_time": 6.2931818,
                "end_time": 6.4590909,
                "pitch": 70,
                "velocity": 101,
                "duration": 0.1659091,
                "tempo": 120.0
            },
            {
                "start_time": 6.4613636,
                "end_time": 6.6318182,
                "pitch": 72,
                "velocity": 101,
                "duration": 0.1704545,
                "tempo": 120.0
            },
            {
                "start_time": 6.6340909,
                "end_time": 6.8045455,
                "pitch": 69,
                "velocity": 101,
                "duration": 0.1704545,
                "tempo": 120.0
            },
            {
                "start_time": 6.8068182,
                "end_time": 6.9727273,
                "pitch": 70,
                "velocity": 101,
                "duration": 0.1659091,
                "tempo": 120.0
            },
            {
                "start_time": 6.9727273,
                "end_time": 7.1386364,
                "pitch": 72,
                "velocity": 101,
                "duration": 0.1659091,
                "tempo": 120.0
            },
            {
                "start_time": 7.1409091,
                "end_time": 7.3068182,
                "pitch": 74,
                "velocity": 101,
                "duration": 0.1659091,
                "tempo": 120.0
            },
            {
                "start_time": 7.3090909,
                "end_time": 7.475,
                "pitch": 70,
                "velocity": 101,
                "duration": 0.1659091,
                "tempo": 120.0
            },
            {
                "start_time": 7.4772727,
                "end_time": 7.6477273,
                "pitch": 72,
                "velocity": 101,
                "duration": 0.1704545,
                "tempo": 120.0
            },
            {
                "start_time": 7.65,
                "end_time": 7.8204545,
                "pitch": 74,
                "velocity": 101,
                "duration": 0.1704545,
                "tempo": 120.0
            },
            {
                "start_time": 7.8204545,
                "end_time": 7.9863636,
                "pitch": 75,
                "velocity": 101,
                "duration": 0.1659091,
                "tempo": 120.0
            },
            {
                "start_time": 7.9886364,
                "end_time": 8.1545455,
                "pitch": 72,
                "velocity": 101,
                "duration": 0.1659091,
                "tempo": 120.0
            },
            {
                "start_time": 8.1568182,
                "end_time": 8.3227273,
                "pitch": 74,
                "velocity": 101,
                "duration": 0.1659091,
                "tempo": 120.0
            },
            {
                "start_time": 8.325,
                "end_time": 8.4909091,
                "pitch": 72,
                "velocity": 101,
                "duration": 0.1659091,
                "tempo": 120.0
            },
            {
                "start_time": 8.4909091,
                "end_time": 8.6590909,
                "pitch": 74,
                "velocity": 101,
                "duration": 0.1681818,
                "tempo": 120.0
            },
            {
                "start_time": 8.6590909,
                "end_time": 8.8272727,
                "pitch": 79,
                "velocity": 101,
                "duration": 0.1681818,
                "tempo": 120.0
            },
            {
                "start_time": 8.8272727,
                "end_time": 8.9977273,
                "pitch": 72,
                "velocity": 101,
                "duration": 0.1704545,
                "tempo": 120.0
            },
            {
                "start_time": 9.0,
                "end_time": 9.1704545,
                "pitch": 70,
                "velocity": 101,
                "duration": 0.1704545,
                "tempo": 120.0
            },
            {
                "start_time": 9.1727273,
                "end_time": 9.3386364,
                "pitch": 72,
                "velocity": 101,
                "duration": 0.1659091,
                "tempo": 120.0
            },
            {
                "start_time": 9.3386364,
                "end_time": 9.5068182,
                "pitch": 79,
                "velocity": 101,
                "duration": 0.1681818,
                "tempo": 120.0
            },
            {
                "start_time": 9.5068182,
                "end_time": 9.6772727,
                "pitch": 70,
                "velocity": 101,
                "duration": 0.1704545,
                "tempo": 120.0
            },
            {
                "start_time": 9.6795455,
                "end_time": 9.85,
                "pitch": 69,
                "velocity": 101,
                "duration": 0.1704545,
                "tempo": 120.0
            },
            {
                "start_time": 9.8522727,
                "end_time": 10.0181818,
                "pitch": 70,
                "velocity": 101,
                "duration": 0.1659091,
                "tempo": 120.0
            },
            {
                "start_time": 10.0204545,
                "end_time": 10.1863636,
                "pitch": 74,
                "velocity": 101,
                "duration": 0.1659091,
                "tempo": 120.0
            },
            {
                "start_time": 10.1886364,
                "end_time": 10.3590909,
                "pitch": 69,
                "velocity": 101,
                "duration": 0.1704545,
                "tempo": 120.0
            },
            {
                "start_time": 10.3590909,
                "end_time": 10.5318182,
                "pitch": 67,
                "velocity": 101,
                "duration": 0.1727273,
                "tempo": 120.0
            },
            {
                "start_time": 10.5318182,
                "end_time": 10.6977273,
                "pitch": 69,
                "velocity": 101,
                "duration": 0.1659091,
                "tempo": 120.0
            },
            {
                "start_time": 10.7,
                "end_time": 10.8659091,
                "pitch": 70,
                "velocity": 101,
                "duration": 0.1659091,
                "tempo": 120.0
            },
            {
                "start_time": 10.8681818,
                "end_time": 11.2113636,
                "pitch": 67,
                "velocity": 101,
                "duration": 0.3431818,
                "tempo": 120.0
            },
            {
                "start_time": 11.2113636,
                "end_time": 11.2272727,
                "pitch": 67,
                "velocity": 101,
                "duration": 0.0159091,
                "tempo": 120.0
            },
            {
                "start_time": 11.2272727,
                "end_time": 11.3409091,
                "pitch": 67,
                "velocity": 101,
                "duration": 0.1136364,
                "tempo": 120.0
            },
            {
                "start_time": 11.2113636,
                "end_time": 11.3409091,
                "pitch": 79,
                "velocity": 101,
                "duration": 0.1295455,
                "tempo": 120.0
            },
            {
                "start_time": 11.2272727,
                "end_time": 11.3568182,
                "pitch": 55,
                "velocity": 101,
                "duration": 0.1295455,
                "tempo": 120.0
            },
            {
                "start_time": 11.3409091,
                "end_time": 11.3568182,
                "pitch": 67,
                "velocity": 101,
                "duration": 0.0159091,
                "tempo": 120.0
            },
            {
                "start_time": 11.3568182,
                "end_time": 11.4704545,
                "pitch": 67,
                "velocity": 101,
                "duration": 0.1136364,
                "tempo": 120.0
            },
            {
                "start_time": 11.3409091,
                "end_time": 11.4704545,
                "pitch": 79,
                "velocity": 101,
                "duration": 0.1295455,
                "tempo": 120.0
            },
            {
                "start_time": 11.3568182,
                "end_time": 11.4863636,
                "pitch": 55,
                "velocity": 101,
                "duration": 0.1295455,
                "tempo": 120.0
            },
            {
                "start_time": 11.4704545,
                "end_time": 11.4863636,
                "pitch": 67,
                "velocity": 101,
                "duration": 0.0159091,
                "tempo": 120.0
            },
            {
                "start_time": 11.4863636,
                "end_time": 11.6022727,
                "pitch": 67,
                "velocity": 101,
                "duration": 0.1159091,
                "tempo": 120.0
            },
            {
                "start_time": 11.4704545,
                "end_time": 11.6022727,
                "pitch": 79,
                "velocity": 101,
                "duration": 0.1318182,
                "tempo": 120.0
            },
            {
                "start_time": 11.4863636,
                "end_time": 11.6204545,
                "pitch": 55,
                "velocity": 101,
                "duration": 0.1340909,
                "tempo": 120.0
            },
            {
                "start_time": 11.6022727,
                "end_time": 11.6204545,
                "pitch": 67,
                "velocity": 101,
                "duration": 0.0181818,
                "tempo": 120.0
            },
            {
                "start_time": 11.6204545,
                "end_time": 11.7363636,
                "pitch": 67,
                "velocity": 101,
                "duration": 0.1159091,
                "tempo": 120.0
            },
            {
                "start_time": 11.6022727,
                "end_time": 11.7386364,
                "pitch": 79,
                "velocity": 101,
                "duration": 0.1363636,
                "tempo": 120.0
            },
            {
                "start_time": 11.7363636,
                "end_time": 11.7386364,
                "pitch": 79,
                "velocity": 101,
                "duration": 0.0022727,
                "tempo": 120.0
            },
            {
                "start_time": 11.6204545,
                "end_time": 11.7545455,
                "pitch": 55,
                "velocity": 101,
                "duration": 0.1340909,
                "tempo": 120.0
            },
            {
                "start_time": 11.7386364,
                "end_time": 11.7545455,
                "pitch": 67,
                "velocity": 101,
                "duration": 0.0159091,
                "tempo": 120.0
            },
            {
                "start_time": 11.7545455,
                "end_time": 11.8727273,
                "pitch": 67,
                "velocity": 101,
                "duration": 0.1181818,
                "tempo": 120.0
            },
            {
                "start_time": 11.7545455,
                "end_time": 11.8886364,
                "pitch": 55,
                "velocity": 101,
                "duration": 0.1340909,
                "tempo": 120.0
            },
            {
                "start_time": 11.8727273,
                "end_time": 11.8886364,
                "pitch": 67,
                "velocity": 101,
                "duration": 0.0159091,
                "tempo": 120.0
            },
            {
                "start_time": 11.8886364,
                "end_time": 12.0136364,
                "pitch": 67,
                "velocity": 101,
                "duration": 0.125,
                "tempo": 120.0
            },
            {
                "start_time": 11.8727273,
                "end_time": 12.0136364,
                "pitch": 79,
                "velocity": 101,
                "duration": 0.1409091,
                "tempo": 120.0
            },
            {
                "start_time": 11.8886364,
                "end_time": 12.0318182,
                "pitch": 55,
                "velocity": 101,
                "duration": 0.1431818,
                "tempo": 120.0
            },
            {
                "start_time": 12.0136364,
                "end_time": 12.0318182,
                "pitch": 67,
                "velocity": 101,
                "duration": 0.0181818,
                "tempo": 120.0
            },
            {
                "start_time": 12.0318182,
                "end_time": 12.1545455,
                "pitch": 67,
                "velocity": 101,
                "duration": 0.1227273,
                "tempo": 120.0
            },
            {
                "start_time": 12.0136364,
                "end_time": 12.1545455,
                "pitch": 79,
                "velocity": 101,
                "duration": 0.1409091,
                "tempo": 120.0
            },
            {
                "start_time": 12.0318182,
                "end_time": 12.1727273,
                "pitch": 55,
                "velocity": 101,
                "duration": 0.1409091,
                "tempo": 120.0
            },
            {
                "start_time": 12.1545455,
                "end_time": 12.1727273,
                "pitch": 67,
                "velocity": 101,
                "duration": 0.0181818,
                "tempo": 120.0
            },
            {
                "start_time": 12.1727273,
                "end_time": 12.225,
                "pitch": 67,
                "velocity": 101,
                "duration": 0.0522727,
                "tempo": 120.0
            },
            {
                "start_time": 13.0704545,
                "end_time": 13.1545455,
                "pitch": 85,
                "velocity": 80,
                "duration": 0.0840909,
                "tempo": 120.0
            },
            {
                "start_time": 13.1568182,
                "end_time": 13.2409091,
                "pitch": 85,
                "velocity": 80,
                "duration": 0.0840909,
                "tempo": 120.0
            },
            {
                "start_time": 13.2431818,
                "end_time": 13.325,
                "pitch": 61,
                "velocity": 80,
                "duration": 0.0818182,
                "tempo": 120.0
            },
            {
                "start_time": 13.3272727,
                "end_time": 13.4090909,
                "pitch": 62,
                "velocity": 80,
                "duration": 0.0818182,
                "tempo": 120.0
            },
            {
                "start_time": 13.4113636,
                "end_time": 13.4931818,
                "pitch": 50,
                "velocity": 80,
                "duration": 0.0818182,
                "tempo": 120.0
            },
            {
                "start_time": 13.4931818,
                "end_time": 13.5772727,
                "pitch": 50,
                "velocity": 80,
                "duration": 0.0840909,
                "tempo": 120.0
            },
            {
                "start_time": 12.1727273,
                "end_time": 13.7477273,
                "pitch": 55,
                "velocity": 101,
                "duration": 1.575,
                "tempo": 120.0
            },
            {
                "start_time": 13.5795455,
                "end_time": 13.7477273,
                "pitch": 55,
                "velocity": 101,
                "duration": 0.1681818,
                "tempo": 120.0
            },
            {
                "start_time": 13.75,
                "end_time": 13.9204545,
                "pitch": 57,
                "velocity": 101,
                "duration": 0.1704545,
                "tempo": 120.0
            },
            {
                "start_time": 13.9227273,
                "end_time": 14.0886364,
                "pitch": 58,
                "velocity": 101,
                "duration": 0.1659091,
                "tempo": 120.0
            },
            {
                "start_time": 14.0909091,
                "end_time": 14.2568182,
                "pitch": 55,
                "velocity": 101,
                "duration": 0.1659091,
                "tempo": 120.0
            },
            {
                "start_time": 14.2568182,
                "end_time": 14.425,
                "pitch": 57,
                "velocity": 101,
                "duration": 0.1681818,
                "tempo": 120.0
            },
            {
                "start_time": 14.425,
                "end_time": 14.5909091,
                "pitch": 58,
                "velocity": 101,
                "duration": 0.1659091,
                "tempo": 120.0
            },
            {
                "start_time": 14.5931818,
                "end_time": 14.7636364,
                "pitch": 60,
                "velocity": 101,
                "duration": 0.1704545,
                "tempo": 120.0
            },
            {
                "start_time": 14.7659091,
                "end_time": 14.9363636,
                "pitch": 57,
                "velocity": 101,
                "duration": 0.1704545,
                "tempo": 120.0
            },
            {
                "start_time": 14.9386364,
                "end_time": 15.1045455,
                "pitch": 58,
                "velocity": 101,
                "duration": 0.1659091,
                "tempo": 120.0
            },
            {
                "start_time": 15.1068182,
                "end_time": 15.2727273,
                "pitch": 60,
                "velocity": 101,
                "duration": 0.1659091,
                "tempo": 120.0
            },
            {
                "start_time": 15.2727273,
                "end_time": 15.4431818,
                "pitch": 62,
                "velocity": 101,
                "duration": 0.1704545,
                "tempo": 120.0
            },
            {
                "start_time": 15.4454545,
                "end_time": 15.6159091,
                "pitch": 58,
                "velocity": 101,
                "duration": 0.1704545,
                "tempo": 120.0
            },
            {
                "start_time": 15.6181818,
                "end_time": 15.7840909,
                "pitch": 60,
                "velocity": 101,
                "duration": 0.1659091,
                "tempo": 120.0
            },
            {
                "start_time": 15.7863636,
                "end_time": 15.9522727,
                "pitch": 62,
                "velocity": 101,
                "duration": 0.1659091,
                "tempo": 120.0
            },
            {
                "start_time": 15.9545455,
                "end_time": 16.1204545,
                "pitch": 63,
                "velocity": 101,
                "duration": 0.1659091,
                "tempo": 120.0
            },
            {
                "start_time": 16.1204545,
                "end_time": 16.2886364,
                "pitch": 60,
                "velocity": 101,
                "duration": 0.1681818,
                "tempo": 120.0
            },
            {
                "start_time": 16.2886364,
                "end_time": 16.6318182,
                "pitch": 62,
                "velocity": 101,
                "duration": 0.3431818,
                "tempo": 120.0
            },
            {
                "start_time": 16.6340909,
                "end_time": 16.9681818,
                "pitch": 67,
                "velocity": 101,
                "duration": 0.3340909,
                "tempo": 120.0
            },
            {
                "start_time": 16.9681818,
                "end_time": 17.3022727,
                "pitch": 66,
                "velocity": 101,
                "duration": 0.3340909,
                "tempo": 120.0
            },
            {
                "start_time": 17.3045455,
                "end_time": 17.6477273,
                "pitch": 67,
                "velocity": 101,
                "duration": 0.3431818,
                "tempo": 120.0
            },
            {
                "start_time": 17.65,
                "end_time": 17.8159091,
                "pitch": 63,
                "velocity": 101,
                "duration": 0.1659091,
                "tempo": 120.0
            },
            {
                "start_time": 17.8159091,
                "end_time": 17.9818182,
                "pitch": 62,
                "velocity": 101,
                "duration": 0.1659091,
                "tempo": 120.0
            },
            {
                "start_time": 17.9840909,
                "end_time": 18.1545455,
                "pitch": 60,
                "velocity": 101,
                "duration": 0.1704545,
                "tempo": 120.0
            },
            {
                "start_time": 18.1568182,
                "end_time": 18.3272727,
                "pitch": 58,
                "velocity": 101,
                "duration": 0.1704545,
                "tempo": 120.0
            },
            {
                "start_time": 18.3295455,
                "end_time": 18.4113636,
                "pitch": 57,
                "velocity": 101,
                "duration": 0.0818182,
                "tempo": 120.0
            },
            {
                "start_time": 18.4136364,
                "end_time": 18.4954545,
                "pitch": 58,
                "velocity": 101,
                "duration": 0.0818182,
                "tempo": 120.0
            },
            {
                "start_time": 18.4977273,
                "end_time": 18.5795455,
                "pitch": 57,
                "velocity": 101,
                "duration": 0.0818182,
                "tempo": 120.0
            },
            {
                "start_time": 18.5795455,
                "end_time": 18.6636364,
                "pitch": 58,
                "velocity": 101,
                "duration": 0.0840909,
                "tempo": 120.0
            },
            {
                "start_time": 18.6636364,
                "end_time": 18.8318182,
                "pitch": 57,
                "velocity": 101,
                "duration": 0.1681818,
                "tempo": 120.0
            },
            {
                "start_time": 18.8318182,
                "end_time": 18.9136364,
                "pitch": 55,
                "velocity": 101,
                "duration": 0.0818182,
                "tempo": 120.0
            },
            {
                "start_time": 18.9159091,
                "end_time": 18.9977273,
                "pitch": 54,
                "velocity": 101,
                "duration": 0.0818182,
                "tempo": 120.0
            },
            {
                "start_time": 19.0,
                "end_time": 19.1704545,
                "pitch": 55,
                "velocity": 101,
                "duration": 0.1704545,
                "tempo": 120.0
            },
            {
                "start_time": 19.1727273,
                "end_time": 19.3431818,
                "pitch": 57,
                "velocity": 101,
                "duration": 0.1704545,
                "tempo": 120.0
            },
            {
                "start_time": 19.3454545,
                "end_time": 19.5113636,
                "pitch": 58,
                "velocity": 101,
                "duration": 0.1659091,
                "tempo": 120.0
            },
            {
                "start_time": 19.5113636,
                "end_time": 19.6795455,
                "pitch": 55,
                "velocity": 101,
                "duration": 0.1681818,
                "tempo": 120.0
            },
            {
                "start_time": 19.6795455,
                "end_time": 19.8454545,
                "pitch": 57,
                "velocity": 101,
                "duration": 0.1659091,
                "tempo": 120.0
            },
            {
                "start_time": 19.8477273,
                "end_time": 20.0136364,
                "pitch": 58,
                "velocity": 101,
                "duration": 0.1659091,
                "tempo": 120.0
            },
            {
                "start_time": 20.0159091,
                "end_time": 20.1863636,
                "pitch": 60,
                "velocity": 101,
                "duration": 0.1704545,
                "tempo": 120.0
            },
            {
                "start_time": 20.1863636,
                "end_time": 20.3590909,
                "pitch": 57,
                "velocity": 101,
                "duration": 0.1727273,
                "tempo": 120.0
            },
            {
                "start_time": 20.3613636,
                "end_time": 20.5272727,
                "pitch": 58,
                "velocity": 101,
                "duration": 0.1659091,
                "tempo": 120.0
            },
            {
                "start_time": 20.5272727,
                "end_time": 20.6931818,
                "pitch": 60,
                "velocity": 101,
                "duration": 0.1659091,
                "tempo": 120.0
            },
            {
                "start_time": 20.6954545,
                "end_time": 20.8659091,
                "pitch": 62,
                "velocity": 101,
                "duration": 0.1704545,
                "tempo": 120.0
            },
            {
                "start_time": 20.8681818,
                "end_time": 21.0386364,
                "pitch": 58,
                "velocity": 101,
                "duration": 0.1704545,
                "tempo": 120.0
            },
            {
                "start_time": 21.0409091,
                "end_time": 21.2068182,
                "pitch": 60,
                "velocity": 101,
                "duration": 0.1659091,
                "tempo": 120.0
            },
            {
                "start_time": 21.2068182,
                "end_time": 21.375,
                "pitch": 62,
                "velocity": 101,
                "duration": 0.1681818,
                "tempo": 120.0
            },
            {
                "start_time": 21.375,
                "end_time": 21.5409091,
                "pitch": 63,
                "velocity": 101,
                "duration": 0.1659091,
                "tempo": 120.0
            },
            {
                "start_time": 21.5431818,
                "end_time": 21.7090909,
                "pitch": 60,
                "velocity": 101,
                "duration": 0.1659091,
                "tempo": 120.0
            },
            {
                "start_time": 21.7113636,
                "end_time": 22.0545455,
                "pitch": 62,
                "velocity": 101,
                "duration": 0.3431818,
                "tempo": 120.0
            },
            {
                "start_time": 22.0545455,
                "end_time": 22.3886364,
                "pitch": 55,
                "velocity": 101,
                "duration": 0.3340909,
                "tempo": 120.0
            },
            {
                "start_time": 22.3909091,
                "end_time": 22.725,
                "pitch": 54,
                "velocity": 101,
                "duration": 0.3340909,
                "tempo": 120.0
            },
            {
                "start_time": 22.7272727,
                "end_time": 23.0704545,
                "pitch": 55,
                "velocity": 101,
                "duration": 0.3431818,
                "tempo": 120.0
            },
            {
                "start_time": 23.0704545,
                "end_time": 23.2363636,
                "pitch": 60,
                "velocity": 101,
                "duration": 0.1659091,
                "tempo": 120.0
            },
            {
                "start_time": 23.2386364,
                "end_time": 23.4045455,
                "pitch": 58,
                "velocity": 101,
                "duration": 0.1659091,
                "tempo": 120.0
            },
            {
                "start_time": 23.4068182,
                "end_time": 23.5772727,
                "pitch": 57,
                "velocity": 101,
                "duration": 0.1704545,
                "tempo": 120.0
            },
            {
                "start_time": 23.5795455,
                "end_time": 23.75,
                "pitch": 55,
                "velocity": 101,
                "duration": 0.1704545,
                "tempo": 120.0
            },
            {
                "start_time": 23.75,
                "end_time": 24.0840909,
                "pitch": 54,
                "velocity": 101,
                "duration": 0.3340909,
                "tempo": 120.0
            },
            {
                "start_time": 24.4227273,
                "end_time": 24.5931818,
                "pitch": 55,
                "velocity": 101,
                "duration": 0.1704545,
                "tempo": 120.0
            },
            {
                "start_time": 24.5931818,
                "end_time": 24.7659091,
                "pitch": 57,
                "velocity": 101,
                "duration": 0.1727273,
                "tempo": 120.0
            },
            {
                "start_time": 24.7659091,
                "end_time": 24.9318182,
                "pitch": 58,
                "velocity": 101,
                "duration": 0.1659091,
                "tempo": 120.0
            },
            {
                "start_time": 24.9340909,
                "end_time": 25.1,
                "pitch": 55,
                "velocity": 101,
                "duration": 0.1659091,
                "tempo": 120.0
            },
            {
                "start_time": 25.1022727,
                "end_time": 25.2681818,
                "pitch": 57,
                "velocity": 101,
                "duration": 0.1659091,
                "tempo": 120.0
            },
            {
                "start_time": 25.2704545,
                "end_time": 25.4363636,
                "pitch": 58,
                "velocity": 101,
                "duration": 0.1659091,
                "tempo": 120.0
            },
            {
                "start_time": 25.4363636,
                "end_time": 25.6090909,
                "pitch": 60,
                "velocity": 101,
                "duration": 0.1727273,
                "tempo": 120.0
            },
            {
                "start_time": 25.6090909,
                "end_time": 25.7818182,
                "pitch": 57,
                "velocity": 101,
                "duration": 0.1727273,
                "tempo": 120.0
            },
            {
                "start_time": 25.7818182,
                "end_time": 25.9477273,
                "pitch": 58,
                "velocity": 101,
                "duration": 0.1659091,
                "tempo": 120.0
            },
            {
                "start_time": 25.95,
                "end_time": 26.1159091,
                "pitch": 60,
                "velocity": 101,
                "duration": 0.1659091,
                "tempo": 120.0
            },
            {
                "start_time": 26.1181818,
                "end_time": 26.2886364,
                "pitch": 62,
                "velocity": 101,
                "duration": 0.1704545,
                "tempo": 120.0
            },
            {
                "start_time": 26.2886364,
                "end_time": 26.4613636,
                "pitch": 58,
                "velocity": 101,
                "duration": 0.1727273,
                "tempo": 120.0
            },
            {
                "start_time": 26.4613636,
                "end_time": 26.6272727,
                "pitch": 60,
                "velocity": 101,
                "duration": 0.1659091,
                "tempo": 120.0
            },
            {
                "start_time": 26.6295455,
                "end_time": 26.7954545,
                "pitch": 62,
                "velocity": 101,
                "duration": 0.1659091,
                "tempo": 120.0
            },
            {
                "start_time": 26.7977273,
                "end_time": 26.9636364,
                "pitch": 63,
                "velocity": 101,
                "duration": 0.1659091,
                "tempo": 120.0
            },
            {
                "start_time": 26.9659091,
                "end_time": 27.1318182,
                "pitch": 60,
                "velocity": 101,
                "duration": 0.1659091,
                "tempo": 120.0
            },
            {
                "start_time": 27.1340909,
                "end_time": 27.475,
                "pitch": 62,
                "velocity": 101,
                "duration": 0.3409091,
                "tempo": 120.0
            },
            {
                "start_time": 27.4772727,
                "end_time": 27.8113636,
                "pitch": 67,
                "velocity": 101,
                "duration": 0.3340909,
                "tempo": 120.0
            },
            {
                "start_time": 27.8136364,
                "end_time": 28.1477273,
                "pitch": 66,
                "velocity": 101,
                "duration": 0.3340909,
                "tempo": 120.0
            },
            {
                "start_time": 28.1477273,
                "end_time": 28.4909091,
                "pitch": 67,
                "velocity": 101,
                "duration": 0.3431818,
                "tempo": 120.0
            },
            {
                "start_time": 28.4931818,
                "end_time": 28.6590909,
                "pitch": 63,
                "velocity": 101,
                "duration": 0.1659091,
                "tempo": 120.0
            },
            {
                "start_time": 28.6613636,
                "end_time": 28.8272727,
                "pitch": 62,
                "velocity": 101,
                "duration": 0.1659091,
                "tempo": 120.0
            },
            {
                "start_time": 28.8272727,
                "end_time": 29.0,
                "pitch": 60,
                "velocity": 101,
                "duration": 0.1727273,
                "tempo": 120.0
            },
            {
                "start_time": 29.0,
                "end_time": 29.1704545,
                "pitch": 58,
                "velocity": 101,
                "duration": 0.1704545,
                "tempo": 120.0
            },
            {
                "start_time": 29.1727273,
                "end_time": 29.2545455,
                "pitch": 57,
                "velocity": 101,
                "duration": 0.0818182,
                "tempo": 120.0
            },
            {
                "start_time": 29.2568182,
                "end_time": 29.3386364,
                "pitch": 58,
                "velocity": 101,
                "duration": 0.0818182,
                "tempo": 120.0
            },
            {
                "start_time": 29.3409091,
                "end_time": 29.4227273,
                "pitch": 57,
                "velocity": 101,
                "duration": 0.0818182,
                "tempo": 120.0
            },
            {
                "start_time": 29.425,
                "end_time": 29.5068182,
                "pitch": 58,
                "velocity": 101,
                "duration": 0.0818182,
                "tempo": 120.0
            },
            {
                "start_time": 29.5090909,
                "end_time": 29.675,
                "pitch": 57,
                "velocity": 101,
                "duration": 0.1659091,
                "tempo": 120.0
            },
            {
                "start_time": 29.675,
                "end_time": 29.7590909,
                "pitch": 55,
                "velocity": 101,
                "duration": 0.0840909,
                "tempo": 120.0
            },
            {
                "start_time": 29.7590909,
                "end_time": 29.8431818,
                "pitch": 54,
                "velocity": 101,
                "duration": 0.0840909,
                "tempo": 120.0
            },
            {
                "start_time": 29.8431818,
                "end_time": 30.0136364,
                "pitch": 55,
                "velocity": 101,
                "duration": 0.1704545,
                "tempo": 120.0
            },
            {
                "start_time": 30.0159091,
                "end_time": 30.1863636,
                "pitch": 57,
                "velocity": 101,
                "duration": 0.1704545,
                "tempo": 120.0
            },
            {
                "start_time": 30.1886364,
                "end_time": 30.3545455,
                "pitch": 58,
                "velocity": 101,
                "duration": 0.1659091,
                "tempo": 120.0
            },
            {
                "start_time": 30.3568182,
                "end_time": 30.5227273,
                "pitch": 55,
                "velocity": 101,
                "duration": 0.1659091,
                "tempo": 120.0
            },
            {
                "start_time": 30.5227273,
                "end_time": 30.6909091,
                "pitch": 57,
                "velocity": 101,
                "duration": 0.1681818,
                "tempo": 120.0
            },
            {
                "start_time": 30.6909091,
                "end_time": 30.8568182,
                "pitch": 58,
                "velocity": 101,
                "duration": 0.1659091,
                "tempo": 120.0
            },
            {
                "start_time": 30.8590909,
                "end_time": 31.0295455,
                "pitch": 60,
                "velocity": 101,
                "duration": 0.1704545,
                "tempo": 120.0
            },
            {
                "start_time": 31.0318182,
                "end_time": 31.2022727,
                "pitch": 57,
                "velocity": 101,
                "duration": 0.1704545,
                "tempo": 120.0
            },
            {
                "start_time": 31.2045455,
                "end_time": 31.3704545,
                "pitch": 58,
                "velocity": 101,
                "duration": 0.1659091,
                "tempo": 120.0
            },
            {
                "start_time": 31.3727273,
                "end_time": 31.5386364,
                "pitch": 60,
                "velocity": 101,
                "duration": 0.1659091,
                "tempo": 120.0
            },
            {
                "start_time": 31.5386364,
                "end_time": 31.7090909,
                "pitch": 62,
                "velocity": 101,
                "duration": 0.1704545,
                "tempo": 120.0
            },
            {
                "start_time": 31.7113636,
                "end_time": 31.8818182,
                "pitch": 58,
                "velocity": 101,
                "duration": 0.1704545,
                "tempo": 120.0
            },
            {
                "start_time": 31.8840909,
                "end_time": 32.05,
                "pitch": 60,
                "velocity": 101,
                "duration": 0.1659091,
                "tempo": 120.0
            },
            {
                "start_time": 32.0522727,
                "end_time": 32.2181818,
                "pitch": 62,
                "velocity": 101,
                "duration": 0.1659091,
                "tempo": 120.0
            },
            {
                "start_time": 32.2204545,
                "end_time": 32.3863636,
                "pitch": 63,
                "velocity": 101,
                "duration": 0.1659091,
                "tempo": 120.0
            },
            {
                "start_time": 32.3863636,
                "end_time": 32.5545455,
                "pitch": 60,
                "velocity": 101,
                "duration": 0.1681818,
                "tempo": 120.0
            },
            {
                "start_time": 32.5545455,
                "end_time": 32.8977273,
                "pitch": 62,
                "velocity": 101,
                "duration": 0.3431818,
                "tempo": 120.0
            },
            {
                "start_time": 32.9,
                "end_time": 33.2340909,
                "pitch": 55,
                "velocity": 101,
                "duration": 0.3340909,
                "tempo": 120.0
            },
            {
                "start_time": 33.2340909,
                "end_time": 33.5772727,
                "pitch": 54,
                "velocity": 101,
                "duration": 0.3431818,
                "tempo": 120.0
            },
            {
                "start_time": 33.5795455,
                "end_time": 33.9136364,
                "pitch": 55,
                "velocity": 101,
                "duration": 0.3340909,
                "tempo": 120.0
            },
            {
                "start_time": 33.9159091,
                "end_time": 34.0818182,
                "pitch": 60,
                "velocity": 101,
                "duration": 0.1659091,
                "tempo": 120.0
            },
            {
                "start_time": 34.0818182,
                "end_time": 34.2477273,
                "pitch": 58,
                "velocity": 101,
                "duration": 0.1659091,
                "tempo": 120.0
            },
            {
                "start_time": 34.25,
                "end_time": 34.4204545,
                "pitch": 57,
                "velocity": 101,
                "duration": 0.1704545,
                "tempo": 120.0
            },
            {
                "start_time": 34.4227273,
                "end_time": 34.5931818,
                "pitch": 55,
                "velocity": 101,
                "duration": 0.1704545,
                "tempo": 120.0
            },
            {
                "start_time": 34.5954545,
                "end_time": 34.7613636,
                "pitch": 54,
                "velocity": 101,
                "duration": 0.1659091,
                "tempo": 120.0
            },
            {
                "start_time": 34.7636364,
                "end_time": 34.9295455,
                "pitch": 55,
                "velocity": 101,
                "duration": 0.1659091,
                "tempo": 120.0
            },
            {
                "start_time": 34.9295455,
                "end_time": 35.0977273,
                "pitch": 57,
                "velocity": 101,
                "duration": 0.1681818,
                "tempo": 120.0
            },
            {
                "start_time": 35.0977273,
                "end_time": 35.2636364,
                "pitch": 54,
                "velocity": 101,
                "duration": 0.1659091,
                "tempo": 120.0
            },
            {
                "start_time": 35.2659091,
                "end_time": 35.6090909,
                "pitch": 67,
                "velocity": 101,
                "duration": 0.3431818,
                "tempo": 120.0
            },
            {
                "start_time": 12.1545455,
                "end_time": 35.6090909,
                "pitch": 79,
                "velocity": 101,
                "duration": 23.4545455,
                "tempo": 120.0
            },
            {
                "start_time": 35.6090909,
                "end_time": 35.6272727,
                "pitch": 67,
                "velocity": 101,
                "duration": 0.0181818,
                "tempo": 120.0
            },
            {
                "start_time": 35.6272727,
                "end_time": 35.7431818,
                "pitch": 67,
                "velocity": 101,
                "duration": 0.1159091,
                "tempo": 120.0
            },
            {
                "start_time": 35.6090909,
                "end_time": 35.7431818,
                "pitch": 79,
                "velocity": 101,
                "duration": 0.1340909,
                "tempo": 120.0
            },
            {
                "start_time": 35.6272727,
                "end_time": 35.7613636,
                "pitch": 55,
                "velocity": 101,
                "duration": 0.1340909,
                "tempo": 120.0
            },
            {
                "start_time": 35.7431818,
                "end_time": 35.7613636,
                "pitch": 67,
                "velocity": 101,
                "duration": 0.0181818,
                "tempo": 120.0
            },
            {
                "start_time": 35.7613636,
                "end_time": 35.8772727,
                "pitch": 67,
                "velocity": 101,
                "duration": 0.1159091,
                "tempo": 120.0
            },
            {
                "start_time": 35.7431818,
                "end_time": 35.8772727,
                "pitch": 79,
                "velocity": 101,
                "duration": 0.1340909,
                "tempo": 120.0
            },
            {
                "start_time": 35.7613636,
                "end_time": 35.8954545,
                "pitch": 55,
                "velocity": 101,
                "duration": 0.1340909,
                "tempo": 120.0
            },
            {
                "start_time": 35.8772727,
                "end_time": 35.8954545,
                "pitch": 67,
                "velocity": 101,
                "duration": 0.0181818,
                "tempo": 120.0
            },
            {
                "start_time": 35.8954545,
                "end_time": 36.0113636,
                "pitch": 67,
                "velocity": 101,
                "duration": 0.1159091,
                "tempo": 120.0
            },
            {
                "start_time": 35.8772727,
                "end_time": 36.0113636,
                "pitch": 79,
                "velocity": 101,
                "duration": 0.1340909,
                "tempo": 120.0
            },
            {
                "start_time": 35.8954545,
                "end_time": 36.0295455,
                "pitch": 55,
                "velocity": 101,
                "duration": 0.1340909,
                "tempo": 120.0
            },
            {
                "start_time": 36.0113636,
                "end_time": 36.0295455,
                "pitch": 67,
                "velocity": 101,
                "duration": 0.0181818,
                "tempo": 120.0
            },
            {
                "start_time": 36.0295455,
                "end_time": 36.1454545,
                "pitch": 67,
                "velocity": 101,
                "duration": 0.1159091,
                "tempo": 120.0
            },
            {
                "start_time": 36.0113636,
                "end_time": 36.1454545,
                "pitch": 79,
                "velocity": 101,
                "duration": 0.1340909,
                "tempo": 120.0
            },
            {
                "start_time": 36.0295455,
                "end_time": 36.1636364,
                "pitch": 55,
                "velocity": 101,
                "duration": 0.1340909,
                "tempo": 120.0
            },
            {
                "start_time": 36.1454545,
                "end_time": 36.1636364,
                "pitch": 67,
                "velocity": 101,
                "duration": 0.0181818,
                "tempo": 120.0
            },
            {
                "start_time": 36.1636364,
                "end_time": 36.2795455,
                "pitch": 67,
                "velocity": 101,
                "duration": 0.1159091,
                "tempo": 120.0
            },
            {
                "start_time": 36.1454545,
                "end_time": 36.2818182,
                "pitch": 79,
                "velocity": 101,
                "duration": 0.1363636,
                "tempo": 120.0
            },
            {
                "start_time": 36.2795455,
                "end_time": 36.2818182,
                "pitch": 79,
                "velocity": 101,
                "duration": 0.0022727,
                "tempo": 120.0
            },
            {
                "start_time": 36.1636364,
                "end_time": 36.2977273,
                "pitch": 55,
                "velocity": 101,
                "duration": 0.1340909,
                "tempo": 120.0
            },
            {
                "start_time": 36.2818182,
                "end_time": 36.2977273,
                "pitch": 67,
                "velocity": 101,
                "duration": 0.0159091,
                "tempo": 120.0
            },
            {
                "start_time": 36.2977273,
                "end_time": 36.4181818,
                "pitch": 67,
                "velocity": 101,
                "duration": 0.1204545,
                "tempo": 120.0
            },
            {
                "start_time": 36.2977273,
                "end_time": 36.4363636,
                "pitch": 55,
                "velocity": 101,
                "duration": 0.1386364,
                "tempo": 120.0
            },
            {
                "start_time": 36.4181818,
                "end_time": 36.4363636,
                "pitch": 67,
                "velocity": 101,
                "duration": 0.0181818,
                "tempo": 120.0
            },
            {
                "start_time": 36.4363636,
                "end_time": 36.5568182,
                "pitch": 67,
                "velocity": 101,
                "duration": 0.1204545,
                "tempo": 120.0
            },
            {
                "start_time": 36.4181818,
                "end_time": 36.5568182,
                "pitch": 79,
                "velocity": 101,
                "duration": 0.1386364,
                "tempo": 120.0
            },
            {
                "start_time": 36.4363636,
                "end_time": 36.5727273,
                "pitch": 55,
                "velocity": 101,
                "duration": 0.1363636,
                "tempo": 120.0
            },
            {
                "start_time": 36.5568182,
                "end_time": 36.5727273,
                "pitch": 67,
                "velocity": 101,
                "duration": 0.0159091,
                "tempo": 120.0
            },
            {
                "start_time": 36.5727273,
                "end_time": 36.625,
                "pitch": 67,
                "velocity": 101,
                "duration": 0.0522727,
                "tempo": 120.0
            },
            {
                "start_time": 36.7931818,
                "end_time": 36.9590909,
                "pitch": 70,
                "velocity": 101,
                "duration": 0.1659091,
                "tempo": 120.0
            },
            {
                "start_time": 36.9613636,
                "end_time": 37.1318182,
                "pitch": 72,
                "velocity": 101,
                "duration": 0.1704545,
                "tempo": 120.0
            },
            {
                "start_time": 37.1340909,
                "end_time": 37.3045455,
                "pitch": 74,
                "velocity": 101,
                "duration": 0.1704545,
                "tempo": 120.0
            },
            {
                "start_time": 37.3068182,
                "end_time": 37.4727273,
                "pitch": 75,
                "velocity": 101,
                "duration": 0.1659091,
                "tempo": 120.0
            },
            {
                "start_time": 37.4727273,
                "end_time": 37.6409091,
                "pitch": 74,
                "velocity": 101,
                "duration": 0.1681818,
                "tempo": 120.0
            },
            {
                "start_time": 37.6409091,
                "end_time": 37.8068182,
                "pitch": 75,
                "velocity": 101,
                "duration": 0.1659091,
                "tempo": 120.0
            },
            {
                "start_time": 37.8090909,
                "end_time": 37.975,
                "pitch": 72,
                "velocity": 101,
                "duration": 0.1659091,
                "tempo": 120.0
            },
            {
                "start_time": 37.9772727,
                "end_time": 39.3363636,
                "pitch": 69,
                "velocity": 101,
                "duration": 1.3590909,
                "tempo": 120.0
            },
            {
                "start_time": 39.5045455,
                "end_time": 39.6704545,
                "pitch": 67,
                "velocity": 101,
                "duration": 0.1659091,
                "tempo": 120.0
            },
            {
                "start_time": 39.6727273,
                "end_time": 39.8431818,
                "pitch": 70,
                "velocity": 101,
                "duration": 0.1704545,
                "tempo": 120.0
            },
            {
                "start_time": 39.8454545,
                "end_time": 40.0159091,
                "pitch": 72,
                "velocity": 101,
                "duration": 0.1704545,
                "tempo": 120.0
            },
            {
                "start_time": 40.0159091,
                "end_time": 40.1840909,
                "pitch": 74,
                "velocity": 101,
                "duration": 0.1681818,
                "tempo": 120.0
            },
            {
                "start_time": 40.1840909,
                "end_time": 40.35,
                "pitch": 72,
                "velocity": 101,
                "duration": 0.1659091,
                "tempo": 120.0
            },
            {
                "start_time": 40.3522727,
                "end_time": 40.5181818,
                "pitch": 74,
                "velocity": 101,
                "duration": 0.1659091,
                "tempo": 120.0
            },
            {
                "start_time": 40.5204545,
                "end_time": 40.6863636,
                "pitch": 70,
                "velocity": 101,
                "duration": 0.1659091,
                "tempo": 120.0
            },
            {
                "start_time": 40.6886364,
                "end_time": 41.0318182,
                "pitch": 67,
                "velocity": 101,
                "duration": 0.3431818,
                "tempo": 120.0
            },
            {
                "start_time": 36.5568182,
                "end_time": 41.0318182,
                "pitch": 79,
                "velocity": 101,
                "duration": 4.475,
                "tempo": 120.0
            },
            {
                "start_time": 36.5727273,
                "end_time": 41.0477273,
                "pitch": 55,
                "velocity": 101,
                "duration": 4.475,
                "tempo": 120.0
            },
            {
                "start_time": 41.0318182,
                "end_time": 41.0477273,
                "pitch": 67,
                "velocity": 101,
                "duration": 0.0159091,
                "tempo": 120.0
            },
            {
                "start_time": 41.0477273,
                "end_time": 41.1659091,
                "pitch": 67,
                "velocity": 101,
                "duration": 0.1181818,
                "tempo": 120.0
            },
            {
                "start_time": 41.0318182,
                "end_time": 41.1659091,
                "pitch": 79,
                "velocity": 101,
                "duration": 0.1340909,
                "tempo": 120.0
            },
            {
                "start_time": 41.0477273,
                "end_time": 41.1818182,
                "pitch": 55,
                "velocity": 101,
                "duration": 0.1340909,
                "tempo": 120.0
            },
            {
                "start_time": 41.1659091,
                "end_time": 41.1818182,
                "pitch": 67,
                "velocity": 101,
                "duration": 0.0159091,
                "tempo": 120.0
            },
            {
                "start_time": 41.1818182,
                "end_time": 41.3,
                "pitch": 67,
                "velocity": 101,
                "duration": 0.1181818,
                "tempo": 120.0
            },
            {
                "start_time": 41.1659091,
                "end_time": 41.3,
                "pitch": 79,
                "velocity": 101,
                "duration": 0.1340909,
                "tempo": 120.0
            },
            {
                "start_time": 41.1818182,
                "end_time": 41.3159091,
                "pitch": 55,
                "velocity": 101,
                "duration": 0.1340909,
                "tempo": 120.0
            },
            {
                "start_time": 41.3,
                "end_time": 41.3159091,
                "pitch": 67,
                "velocity": 101,
                "duration": 0.0159091,
                "tempo": 120.0
            },
            {
                "start_time": 41.3159091,
                "end_time": 41.4340909,
                "pitch": 67,
                "velocity": 101,
                "duration": 0.1181818,
                "tempo": 120.0
            },
            {
                "start_time": 41.3,
                "end_time": 41.4340909,
                "pitch": 79,
                "velocity": 101,
                "duration": 0.1340909,
                "tempo": 120.0
            },
            {
                "start_time": 41.3159091,
                "end_time": 41.45,
                "pitch": 55,
                "velocity": 101,
                "duration": 0.1340909,
                "tempo": 120.0
            },
            {
                "start_time": 41.4340909,
                "end_time": 41.45,
                "pitch": 67,
                "velocity": 101,
                "duration": 0.0159091,
                "tempo": 120.0
            },
            {
                "start_time": 41.45,
                "end_time": 41.5681818,
                "pitch": 67,
                "velocity": 101,
                "duration": 0.1181818,
                "tempo": 120.0
            },
            {
                "start_time": 41.4340909,
                "end_time": 41.5681818,
                "pitch": 79,
                "velocity": 101,
                "duration": 0.1340909,
                "tempo": 120.0
            },
            {
                "start_time": 41.45,
                "end_time": 41.5840909,
                "pitch": 55,
                "velocity": 101,
                "duration": 0.1340909,
                "tempo": 120.0
            },
            {
                "start_time": 41.5681818,
                "end_time": 41.5840909,
                "pitch": 67,
                "velocity": 101,
                "duration": 0.0159091,
                "tempo": 120.0
            },
            {
                "start_time": 41.5840909,
                "end_time": 41.7022727,
                "pitch": 67,
                "velocity": 101,
                "duration": 0.1181818,
                "tempo": 120.0
            },
            {
                "start_time": 41.5681818,
                "end_time": 41.7022727,
                "pitch": 79,
                "velocity": 101,
                "duration": 0.1340909,
                "tempo": 120.0
            },
            {
                "start_time": 41.5840909,
                "end_time": 41.7204545,
                "pitch": 55,
                "velocity": 101,
                "duration": 0.1363636,
                "tempo": 120.0
            },
            {
                "start_time": 41.7022727,
                "end_time": 41.7204545,
                "pitch": 67,
                "velocity": 101,
                "duration": 0.0181818,
                "tempo": 120.0
            },
            {
                "start_time": 41.7204545,
                "end_time": 41.8409091,
                "pitch": 67,
                "velocity": 101,
                "duration": 0.1204545,
                "tempo": 120.0
            },
            {
                "start_time": 41.7022727,
                "end_time": 41.8409091,
                "pitch": 79,
                "velocity": 101,
                "duration": 0.1386364,
                "tempo": 120.0
            },
            {
                "start_time": 41.7204545,
                "end_time": 41.8568182,
                "pitch": 55,
                "velocity": 101,
                "duration": 0.1363636,
                "tempo": 120.0
            },
            {
                "start_time": 41.8409091,
                "end_time": 41.8568182,
                "pitch": 67,
                "velocity": 101,
                "duration": 0.0159091,
                "tempo": 120.0
            },
            {
                "start_time": 41.8568182,
                "end_time": 41.9772727,
                "pitch": 67,
                "velocity": 101,
                "duration": 0.1204545,
                "tempo": 120.0
            },
            {
                "start_time": 41.8409091,
                "end_time": 41.9772727,
                "pitch": 79,
                "velocity": 101,
                "duration": 0.1363636,
                "tempo": 120.0
            },
            {
                "start_time": 41.8568182,
                "end_time": 41.9954545,
                "pitch": 55,
                "velocity": 101,
                "duration": 0.1386364,
                "tempo": 120.0
            },
            {
                "start_time": 41.9772727,
                "end_time": 41.9954545,
                "pitch": 67,
                "velocity": 101,
                "duration": 0.0181818,
                "tempo": 120.0
            },
            {
                "start_time": 41.9954545,
                "end_time": 42.0477273,
                "pitch": 67,
                "velocity": 101,
                "duration": 0.0522727,
                "tempo": 120.0
            },
            {
                "start_time": 42.2159091,
                "end_time": 42.3818182,
                "pitch": 63,
                "velocity": 101,
                "duration": 0.1659091,
                "tempo": 120.0
            },
            {
                "start_time": 42.3840909,
                "end_time": 42.5545455,
                "pitch": 67,
                "velocity": 101,
                "duration": 0.1704545,
                "tempo": 120.0
            },
            {
                "start_time": 42.5545455,
                "end_time": 42.7272727,
                "pitch": 70,
                "velocity": 101,
                "duration": 0.1727273,
                "tempo": 120.0
            },
            {
                "start_time": 42.7272727,
                "end_time": 42.8931818,
                "pitch": 72,
                "velocity": 101,
                "duration": 0.1659091,
                "tempo": 120.0
            },
            {
                "start_time": 42.8954545,
                "end_time": 43.0613636,
                "pitch": 70,
                "velocity": 101,
                "duration": 0.1659091,
                "tempo": 120.0
            },
            {
                "start_time": 43.0636364,
                "end_time": 43.2295455,
                "pitch": 72,
                "velocity": 101,
                "duration": 0.1659091,
                "tempo": 120.0
            },
            {
                "start_time": 43.2318182,
                "end_time": 43.3977273,
                "pitch": 75,
                "velocity": 101,
                "duration": 0.1659091,
                "tempo": 120.0
            },
            {
                "start_time": 43.4,
                "end_time": 44.0772727,
                "pitch": 74,
                "velocity": 101,
                "duration": 0.6772727,
                "tempo": 120.0
            },
            {
                "start_time": 44.0795455,
                "end_time": 44.7568182,
                "pitch": 66,
                "velocity": 101,
                "duration": 0.6772727,
                "tempo": 120.0
            },
            {
                "start_time": 44.7590909,
                "end_time": 45.0931818,
                "pitch": 67,
                "velocity": 101,
                "duration": 0.3340909,
                "tempo": 120.0
            },
            {
                "start_time": 45.0931818,
                "end_time": 45.4386364,
                "pitch": 69,
                "velocity": 101,
                "duration": 0.3454545,
                "tempo": 120.0
            },
            {
                "start_time": 45.4386364,
                "end_time": 45.7727273,
                "pitch": 70,
                "velocity": 101,
                "duration": 0.3340909,
                "tempo": 120.0
            },
            {
                "start_time": 45.775,
                "end_time": 46.1090909,
                "pitch": 67,
                "velocity": 101,
                "duration": 0.3340909,
                "tempo": 120.0
            },
            {
                "start_time": 46.1090909,
                "end_time": 47.4681818,
                "pitch": 62,
                "velocity": 101,
                "duration": 1.3590909,
                "tempo": 120.0
            },
            {
                "start_time": 41.9772727,
                "end_time": 47.8045455,
                "pitch": 79,
                "velocity": 101,
                "duration": 5.8272727,
                "tempo": 120.0
            },
            {
                "start_time": 47.6386364,
                "end_time": 47.8045455,
                "pitch": 79,
                "velocity": 101,
                "duration": 0.1659091,
                "tempo": 120.0
            },
            {
                "start_time": 47.8045455,
                "end_time": 47.975,
                "pitch": 77,
                "velocity": 101,
                "duration": 0.1704545,
                "tempo": 120.0
            },
            {
                "start_time": 47.9772727,
                "end_time": 48.1477273,
                "pitch": 79,
                "velocity": 101,
                "duration": 0.1704545,
                "tempo": 120.0
            },
            {
                "start_time": 48.15,
                "end_time": 48.3159091,
                "pitch": 75,
                "velocity": 101,
                "duration": 0.1659091,
                "tempo": 120.0
            },
            {
                "start_time": 48.3181818,
                "end_time": 48.4840909,
                "pitch": 79,
                "velocity": 101,
                "duration": 0.1659091,
                "tempo": 120.0
            },
            {
                "start_time": 48.4863636,
                "end_time": 48.6522727,
                "pitch": 78,
                "velocity": 101,
                "duration": 0.1659091,
                "tempo": 120.0
            },
            {
                "start_time": 48.6522727,
                "end_time": 48.8204545,
                "pitch": 79,
                "velocity": 101,
                "duration": 0.1681818,
                "tempo": 120.0
            },
            {
                "start_time": 48.8204545,
                "end_time": 50.1795455,
                "pitch": 72,
                "velocity": 101,
                "duration": 1.3590909,
                "tempo": 120.0
            },
            {
                "start_time": 50.3477273,
                "end_time": 50.5159091,
                "pitch": 77,
                "velocity": 101,
                "duration": 0.1681818,
                "tempo": 120.0
            },
            {
                "start_time": 50.5159091,
                "end_time": 50.6863636,
                "pitch": 75,
                "velocity": 101,
                "duration": 0.1704545,
                "tempo": 120.0
            },
            {
                "start_time": 50.6886364,
                "end_time": 50.8590909,
                "pitch": 77,
                "velocity": 101,
                "duration": 0.1704545,
                "tempo": 120.0
            },
            {
                "start_time": 50.8613636,
                "end_time": 51.0272727,
                "pitch": 74,
                "velocity": 101,
                "duration": 0.1659091,
                "tempo": 120.0
            },
            {
                "start_time": 51.0295455,
                "end_time": 51.1954545,
                "pitch": 77,
                "velocity": 101,
                "duration": 0.1659091,
                "tempo": 120.0
            },
            {
                "start_time": 51.1954545,
                "end_time": 51.3636364,
                "pitch": 72,
                "velocity": 101,
                "duration": 0.1681818,
                "tempo": 120.0
            },
            {
                "start_time": 51.3636364,
                "end_time": 51.5295455,
                "pitch": 77,
                "velocity": 101,
                "duration": 0.1659091,
                "tempo": 120.0
            },
            {
                "start_time": 51.5318182,
                "end_time": 52.8909091,
                "pitch": 70,
                "velocity": 101,
                "duration": 1.3590909,
                "tempo": 120.0
            },
            {
                "start_time": 53.0590909,
                "end_time": 53.225,
                "pitch": 75,
                "velocity": 101,
                "duration": 0.1659091,
                "tempo": 120.0
            },
            {
                "start_time": 53.2272727,
                "end_time": 53.3977273,
                "pitch": 74,
                "velocity": 101,
                "duration": 0.1704545,
                "tempo": 120.0
            },
            {
                "start_time": 53.4,
                "end_time": 53.5704545,
                "pitch": 75,
                "velocity": 101,
                "duration": 0.1704545,
                "tempo": 120.0
            },
            {
                "start_time": 53.5727273,
                "end_time": 53.7386364,
                "pitch": 72,
                "velocity": 101,
                "duration": 0.1659091,
                "tempo": 120.0
            },
            {
                "start_time": 53.7386364,
                "end_time": 53.9068182,
                "pitch": 75,
                "velocity": 101,
                "duration": 0.1681818,
                "tempo": 120.0
            },
            {
                "start_time": 53.9068182,
                "end_time": 54.0772727,
                "pitch": 70,
                "velocity": 101,
                "duration": 0.1704545,
                "tempo": 120.0
            },
            {
                "start_time": 54.0795455,
                "end_time": 54.25,
                "pitch": 75,
                "velocity": 101,
                "duration": 0.1704545,
                "tempo": 120.0
            },
            {
                "start_time": 54.2522727,
                "end_time": 54.7545455,
                "pitch": 74,
                "velocity": 101,
                "duration": 0.5022727,
                "tempo": 120.0
            },
            {
                "start_time": 54.7545455,
                "end_time": 55.2659091,
                "pitch": 72,
                "velocity": 101,
                "duration": 0.5113636,
                "tempo": 120.0
            },
            {
                "start_time": 55.2681818,
                "end_time": 55.6022727,
                "pitch": 75,
                "velocity": 101,
                "duration": 0.3340909,
                "tempo": 120.0
            },
            {
                "start_time": 55.6022727,
                "end_time": 55.7681818,
                "pitch": 74,
                "velocity": 101,
                "duration": 0.1659091,
                "tempo": 120.0
            },
            {
                "start_time": 41.9954545,
                "end_time": 57.125,
                "pitch": 55,
                "velocity": 101,
                "duration": 15.1295455,
                "tempo": 120.0
            },
            {
                "start_time": 56.9590909,
                "end_time": 57.125,
                "pitch": 55,
                "velocity": 101,
                "duration": 0.1659091,
                "tempo": 120.0
            },
            {
                "start_time": 57.125,
                "end_time": 57.2977273,
                "pitch": 57,
                "velocity": 101,
                "duration": 0.1727273,
                "tempo": 120.0
            },
            {
                "start_time": 57.2977273,
                "end_time": 57.4636364,
                "pitch": 58,
                "velocity": 101,
                "duration": 0.1659091,
                "tempo": 120.0
            },
            {
                "start_time": 57.4659091,
                "end_time": 57.6318182,
                "pitch": 55,
                "velocity": 101,
                "duration": 0.1659091,
                "tempo": 120.0
            },
            {
                "start_time": 57.6340909,
                "end_time": 57.8045455,
                "pitch": 57,
                "velocity": 101,
                "duration": 0.1704545,
                "tempo": 120.0
            },
            {
                "start_time": 57.8045455,
                "end_time": 57.9772727,
                "pitch": 58,
                "velocity": 101,
                "duration": 0.1727273,
                "tempo": 120.0
            },
            {
                "start_time": 57.9772727,
                "end_time": 58.1454545,
                "pitch": 60,
                "velocity": 101,
                "duration": 0.1681818,
                "tempo": 120.0
            },
            {
                "start_time": 58.1454545,
                "end_time": 58.3136364,
                "pitch": 57,
                "velocity": 101,
                "duration": 0.1681818,
                "tempo": 120.0
            },
            {
                "start_time": 58.3136364,
                "end_time": 58.4795455,
                "pitch": 58,
                "velocity": 101,
                "duration": 0.1659091,
                "tempo": 120.0
            },
            {
                "start_time": 58.4818182,
                "end_time": 58.6477273,
                "pitch": 60,
                "velocity": 101,
                "duration": 0.1659091,
                "tempo": 120.0
            },
            {
                "start_time": 58.6477273,
                "end_time": 58.8204545,
                "pitch": 62,
                "velocity": 101,
                "duration": 0.1727273,
                "tempo": 120.0
            },
            {
                "start_time": 58.8204545,
                "end_time": 58.9931818,
                "pitch": 58,
                "velocity": 101,
                "duration": 0.1727273,
                "tempo": 120.0
            },
            {
                "start_time": 58.9931818,
                "end_time": 59.1590909,
                "pitch": 60,
                "velocity": 101,
                "duration": 0.1659091,
                "tempo": 120.0
            },
            {
                "start_time": 59.1613636,
                "end_time": 59.3272727,
                "pitch": 62,
                "velocity": 101,
                "duration": 0.1659091,
                "tempo": 120.0
            },
            {
                "start_time": 59.3295455,
                "end_time": 59.5,
                "pitch": 63,
                "velocity": 101,
                "duration": 0.1704545,
                "tempo": 120.0
            },
            {
                "start_time": 59.5,
                "end_time": 59.6727273,
                "pitch": 60,
                "velocity": 101,
                "duration": 0.1727273,
                "tempo": 120.0
            },
            {
                "start_time": 59.675,
                "end_time": 60.0068182,
                "pitch": 62,
                "velocity": 101,
                "duration": 0.3318182,
                "tempo": 120.0
            },
            {
                "start_time": 60.0090909,
                "end_time": 60.3431818,
                "pitch": 67,
                "velocity": 101,
                "duration": 0.3340909,
                "tempo": 120.0
            },
            {
                "start_time": 60.3431818,
                "end_time": 60.6886364,
                "pitch": 66,
                "velocity": 101,
                "duration": 0.3454545,
                "tempo": 120.0
            },
            {
                "start_time": 60.6886364,
                "end_time": 61.025,
                "pitch": 67,
                "velocity": 101,
                "duration": 0.3363636,
                "tempo": 120.0
            },
            {
                "start_time": 61.025,
                "end_time": 61.1909091,
                "pitch": 63,
                "velocity": 101,
                "duration": 0.1659091,
                "tempo": 120.0
            },
            {
                "start_time": 61.1909091,
                "end_time": 61.3590909,
                "pitch": 62,
                "velocity": 101,
                "duration": 0.1681818,
                "tempo": 120.0
            },
            {
                "start_time": 61.3590909,
                "end_time": 61.5318182,
                "pitch": 60,
                "velocity": 101,
                "duration": 0.1727273,
                "tempo": 120.0
            },
            {
                "start_time": 61.5318182,
                "end_time": 61.7045455,
                "pitch": 58,
                "velocity": 101,
                "duration": 0.1727273,
                "tempo": 120.0
            },
            {
                "start_time": 61.7045455,
                "end_time": 61.7863636,
                "pitch": 57,
                "velocity": 101,
                "duration": 0.0818182,
                "tempo": 120.0
            },
            {
                "start_time": 61.7886364,
                "end_time": 61.8704545,
                "pitch": 58,
                "velocity": 101,
                "duration": 0.0818182,
                "tempo": 120.0
            },
            {
                "start_time": 61.8727273,
                "end_time": 61.9545455,
                "pitch": 57,
                "velocity": 101,
                "duration": 0.0818182,
                "tempo": 120.0
            },
            {
                "start_time": 61.9545455,
                "end_time": 62.0386364,
                "pitch": 58,
                "velocity": 101,
                "duration": 0.0840909,
                "tempo": 120.0
            },
            {
                "start_time": 62.0386364,
                "end_time": 62.2068182,
                "pitch": 57,
                "velocity": 101,
                "duration": 0.1681818,
                "tempo": 120.0
            },
            {
                "start_time": 62.2068182,
                "end_time": 62.2909091,
                "pitch": 55,
                "velocity": 101,
                "duration": 0.0840909,
                "tempo": 120.0
            },
            {
                "start_time": 62.2909091,
                "end_time": 62.375,
                "pitch": 54,
                "velocity": 101,
                "duration": 0.0840909,
                "tempo": 120.0
            },
            {
                "start_time": 62.375,
                "end_time": 62.5454545,
                "pitch": 55,
                "velocity": 101,
                "duration": 0.1704545,
                "tempo": 120.0
            },
            {
                "start_time": 62.5477273,
                "end_time": 62.7181818,
                "pitch": 57,
                "velocity": 101,
                "duration": 0.1704545,
                "tempo": 120.0
            },
            {
                "start_time": 62.7204545,
                "end_time": 62.8863636,
                "pitch": 58,
                "velocity": 101,
                "duration": 0.1659091,
                "tempo": 120.0
            },
            {
                "start_time": 62.8863636,
                "end_time": 63.0545455,
                "pitch": 55,
                "velocity": 101,
                "duration": 0.1681818,
                "tempo": 120.0
            },
            {
                "start_time": 63.0545455,
                "end_time": 63.2272727,
                "pitch": 57,
                "velocity": 101,
                "duration": 0.1727273,
                "tempo": 120.0
            },
            {
                "start_time": 63.2272727,
                "end_time": 63.4,
                "pitch": 58,
                "velocity": 101,
                "duration": 0.1727273,
                "tempo": 120.0
            },
            {
                "start_time": 63.4,
                "end_time": 63.5659091,
                "pitch": 60,
                "velocity": 101,
                "duration": 0.1659091,
                "tempo": 120.0
            },
            {
                "start_time": 63.5681818,
                "end_time": 63.7340909,
                "pitch": 57,
                "velocity": 101,
                "duration": 0.1659091,
                "tempo": 120.0
            },
            {
                "start_time": 63.7363636,
                "end_time": 63.9022727,
                "pitch": 58,
                "velocity": 101,
                "duration": 0.1659091,
                "tempo": 120.0
            },
            {
                "start_time": 63.9022727,
                "end_time": 64.0704545,
                "pitch": 60,
                "velocity": 101,
                "duration": 0.1681818,
                "tempo": 120.0
            },
            {
                "start_time": 64.0704545,
                "end_time": 64.2431818,
                "pitch": 62,
                "velocity": 101,
                "duration": 0.1727273,
                "tempo": 120.0
            },
            {
                "start_time": 64.2431818,
                "end_time": 64.4136364,
                "pitch": 58,
                "velocity": 101,
                "duration": 0.1704545,
                "tempo": 120.0
            },
            {
                "start_time": 64.4159091,
                "end_time": 64.5818182,
                "pitch": 60,
                "velocity": 101,
                "duration": 0.1659091,
                "tempo": 120.0
            },
            {
                "start_time": 64.5840909,
                "end_time": 64.75,
                "pitch": 62,
                "velocity": 101,
                "duration": 0.1659091,
                "tempo": 120.0
            },
            {
                "start_time": 64.75,
                "end_time": 64.9227273,
                "pitch": 63,
                "velocity": 101,
                "duration": 0.1727273,
                "tempo": 120.0
            },
            {
                "start_time": 64.9227273,
                "end_time": 65.0954545,
                "pitch": 60,
                "velocity": 101,
                "duration": 0.1727273,
                "tempo": 120.0
            },
            {
                "start_time": 65.0954545,
                "end_time": 65.4295455,
                "pitch": 62,
                "velocity": 101,
                "duration": 0.3340909,
                "tempo": 120.0
            },
            {
                "start_time": 65.4318182,
                "end_time": 65.7659091,
                "pitch": 55,
                "velocity": 101,
                "duration": 0.3340909,
                "tempo": 120.0
            },
            {
                "start_time": 65.7659091,
                "end_time": 66.1090909,
                "pitch": 54,
                "velocity": 101,
                "duration": 0.3431818,
                "tempo": 120.0
            },
            {
                "start_time": 66.1113636,
                "end_time": 66.4454545,
                "pitch": 55,
                "velocity": 101,
                "duration": 0.3340909,
                "tempo": 120.0
            },
            {
                "start_time": 66.4477273,
                "end_time": 66.6136364,
                "pitch": 60,
                "velocity": 101,
                "duration": 0.1659091,
                "tempo": 120.0
            },
            {
                "start_time": 66.6136364,
                "end_time": 66.7818182,
                "pitch": 58,
                "velocity": 101,
                "duration": 0.1681818,
                "tempo": 120.0
            },
            {
                "start_time": 66.7818182,
                "end_time": 66.9522727,
                "pitch": 57,
                "velocity": 101,
                "duration": 0.1704545,
                "tempo": 120.0
            },
            {
                "start_time": 66.9545455,
                "end_time": 67.125,
                "pitch": 55,
                "velocity": 101,
                "duration": 0.1704545,
                "tempo": 120.0
            },
            {
                "start_time": 67.1272727,
                "end_time": 67.4613636,
                "pitch": 54,
                "velocity": 101,
                "duration": 0.3340909,
                "tempo": 120.0
            },
            {
                "start_time": 67.8068182,
                "end_time": 67.9727273,
                "pitch": 55,
                "velocity": 101,
                "duration": 0.1659091,
                "tempo": 120.0
            },
            {
                "start_time": 67.975,
                "end_time": 68.1409091,
                "pitch": 57,
                "velocity": 101,
                "duration": 0.1659091,
                "tempo": 120.0
            },
            {
                "start_time": 68.1409091,
                "end_time": 68.3090909,
                "pitch": 58,
                "velocity": 101,
                "duration": 0.1681818,
                "tempo": 120.0
            },
            {
                "start_time": 68.3090909,
                "end_time": 68.4772727,
                "pitch": 55,
                "velocity": 101,
                "duration": 0.1681818,
                "tempo": 120.0
            },
            {
                "start_time": 68.4772727,
                "end_time": 68.6477273,
                "pitch": 57,
                "velocity": 101,
                "duration": 0.1704545,
                "tempo": 120.0
            },
            {
                "start_time": 68.65,
                "end_time": 68.8204545,
                "pitch": 58,
                "velocity": 101,
                "duration": 0.1704545,
                "tempo": 120.0
            },
            {
                "start_time": 68.8227273,
                "end_time": 68.9886364,
                "pitch": 60,
                "velocity": 101,
                "duration": 0.1659091,
                "tempo": 120.0
            },
            {
                "start_time": 68.9886364,
                "end_time": 69.1568182,
                "pitch": 57,
                "velocity": 101,
                "duration": 0.1681818,
                "tempo": 120.0
            },
            {
                "start_time": 69.1568182,
                "end_time": 69.325,
                "pitch": 58,
                "velocity": 101,
                "duration": 0.1681818,
                "tempo": 120.0
            },
            {
                "start_time": 69.325,
                "end_time": 69.4909091,
                "pitch": 60,
                "velocity": 101,
                "duration": 0.1659091,
                "tempo": 120.0
            },
            {
                "start_time": 69.4931818,
                "end_time": 69.6636364,
                "pitch": 62,
                "velocity": 101,
                "duration": 0.1704545,
                "tempo": 120.0
            },
            {
                "start_time": 69.6659091,
                "end_time": 69.8363636,
                "pitch": 58,
                "velocity": 101,
                "duration": 0.1704545,
                "tempo": 120.0
            },
            {
                "start_time": 69.8363636,
                "end_time": 70.0045455,
                "pitch": 60,
                "velocity": 101,
                "duration": 0.1681818,
                "tempo": 120.0
            },
            {
                "start_time": 70.0045455,
                "end_time": 70.1727273,
                "pitch": 62,
                "velocity": 101,
                "duration": 0.1681818,
                "tempo": 120.0
            },
            {
                "start_time": 70.1727273,
                "end_time": 70.3431818,
                "pitch": 63,
                "velocity": 101,
                "duration": 0.1704545,
                "tempo": 120.0
            },
            {
                "start_time": 70.3454545,
                "end_time": 70.5159091,
                "pitch": 60,
                "velocity": 101,
                "duration": 0.1704545,
                "tempo": 120.0
            },
            {
                "start_time": 70.5181818,
                "end_time": 70.8522727,
                "pitch": 62,
                "velocity": 101,
                "duration": 0.3340909,
                "tempo": 120.0
            },
            {
                "start_time": 70.8522727,
                "end_time": 71.1863636,
                "pitch": 67,
                "velocity": 101,
                "duration": 0.3340909,
                "tempo": 120.0
            },
            {
                "start_time": 71.1886364,
                "end_time": 71.5318182,
                "pitch": 66,
                "velocity": 101,
                "duration": 0.3431818,
                "tempo": 120.0
            },
            {
                "start_time": 71.5318182,
                "end_time": 71.8681818,
                "pitch": 67,
                "velocity": 101,
                "duration": 0.3363636,
                "tempo": 120.0
            },
            {
                "start_time": 71.8681818,
                "end_time": 72.0340909,
                "pitch": 63,
                "velocity": 101,
                "duration": 0.1659091,
                "tempo": 120.0
            },
            {
                "start_time": 72.0363636,
                "end_time": 72.2022727,
                "pitch": 62,
                "velocity": 101,
                "duration": 0.1659091,
                "tempo": 120.0
            },
            {
                "start_time": 72.2045455,
                "end_time": 72.375,
                "pitch": 60,
                "velocity": 101,
                "duration": 0.1704545,
                "tempo": 120.0
            },
            {
                "start_time": 72.375,
                "end_time": 72.5477273,
                "pitch": 58,
                "velocity": 101,
                "duration": 0.1727273,
                "tempo": 120.0
            },
            {
                "start_time": 72.5477273,
                "end_time": 72.6318182,
                "pitch": 57,
                "velocity": 101,
                "duration": 0.0840909,
                "tempo": 120.0
            },
            {
                "start_time": 72.6318182,
                "end_time": 72.7159091,
                "pitch": 58,
                "velocity": 101,
                "duration": 0.0840909,
                "tempo": 120.0
            },
            {
                "start_time": 72.7159091,
                "end_time": 72.7977273,
                "pitch": 57,
                "velocity": 101,
                "duration": 0.0818182,
                "tempo": 120.0
            },
            {
                "start_time": 72.8,
                "end_time": 72.8818182,
                "pitch": 58,
                "velocity": 101,
                "duration": 0.0818182,
                "tempo": 120.0
            },
            {
                "start_time": 72.8840909,
                "end_time": 73.05,
                "pitch": 57,
                "velocity": 101,
                "duration": 0.1659091,
                "tempo": 120.0
            },
            {
                "start_time": 73.0522727,
                "end_time": 73.1340909,
                "pitch": 55,
                "velocity": 101,
                "duration": 0.0818182,
                "tempo": 120.0
            },
            {
                "start_time": 73.1340909,
                "end_time": 73.2181818,
                "pitch": 54,
                "velocity": 101,
                "duration": 0.0840909,
                "tempo": 120.0
            },
            {
                "start_time": 73.2204545,
                "end_time": 73.3909091,
                "pitch": 55,
                "velocity": 101,
                "duration": 0.1704545,
                "tempo": 120.0
            },
            {
                "start_time": 73.3909091,
                "end_time": 73.5636364,
                "pitch": 57,
                "velocity": 101,
                "duration": 0.1727273,
                "tempo": 120.0
            },
            {
                "start_time": 73.5636364,
                "end_time": 73.7295455,
                "pitch": 58,
                "velocity": 101,
                "duration": 0.1659091,
                "tempo": 120.0
            },
            {
                "start_time": 73.7318182,
                "end_time": 73.8977273,
                "pitch": 55,
                "velocity": 101,
                "duration": 0.1659091,
                "tempo": 120.0
            },
            {
                "start_time": 73.9,
                "end_time": 74.0704545,
                "pitch": 57,
                "velocity": 101,
                "duration": 0.1704545,
                "tempo": 120.0
            },
            {
                "start_time": 74.0704545,
                "end_time": 74.2431818,
                "pitch": 58,
                "velocity": 101,
                "duration": 0.1727273,
                "tempo": 120.0
            },
            {
                "start_time": 74.2431818,
                "end_time": 74.4113636,
                "pitch": 60,
                "velocity": 101,
                "duration": 0.1681818,
                "tempo": 120.0
            },
            {
                "start_time": 74.4113636,
                "end_time": 74.5795455,
                "pitch": 57,
                "velocity": 101,
                "duration": 0.1681818,
                "tempo": 120.0
            },
            {
                "start_time": 74.5795455,
                "end_time": 74.7454545,
                "pitch": 58,
                "velocity": 101,
                "duration": 0.1659091,
                "tempo": 120.0
            },
            {
                "start_time": 74.7477273,
                "end_time": 74.9136364,
                "pitch": 60,
                "velocity": 101,
                "duration": 0.1659091,
                "tempo": 120.0
            },
            {
                "start_time": 74.9136364,
                "end_time": 75.0863636,
                "pitch": 62,
                "velocity": 101,
                "duration": 0.1727273,
                "tempo": 120.0
            },
            {
                "start_time": 75.0863636,
                "end_time": 75.2590909,
                "pitch": 58,
                "velocity": 101,
                "duration": 0.1727273,
                "tempo": 120.0
            },
            {
                "start_time": 75.2590909,
                "end_time": 75.425,
                "pitch": 60,
                "velocity": 101,
                "duration": 0.1659091,
                "tempo": 120.0
            },
            {
                "start_time": 75.4272727,
                "end_time": 75.5931818,
                "pitch": 62,
                "velocity": 101,
                "duration": 0.1659091,
                "tempo": 120.0
            },
            {
                "start_time": 75.5954545,
                "end_time": 75.7659091,
                "pitch": 63,
                "velocity": 101,
                "duration": 0.1704545,
                "tempo": 120.0
            },
            {
                "start_time": 75.7659091,
                "end_time": 75.9386364,
                "pitch": 60,
                "velocity": 101,
                "duration": 0.1727273,
                "tempo": 120.0
            },
            {
                "start_time": 75.9409091,
                "end_time": 76.275,
                "pitch": 62,
                "velocity": 101,
                "duration": 0.3340909,
                "tempo": 120.0
            },
            {
                "start_time": 76.275,
                "end_time": 76.6090909,
                "pitch": 55,
                "velocity": 101,
                "duration": 0.3340909,
                "tempo": 120.0
            },
            {
                "start_time": 76.6090909,
                "end_time": 76.9545455,
                "pitch": 54,
                "velocity": 101,
                "duration": 0.3454545,
                "tempo": 120.0
            },
            {
                "start_time": 76.9545455,
                "end_time": 77.2886364,
                "pitch": 55,
                "velocity": 101,
                "duration": 0.3340909,
                "tempo": 120.0
            },
            {
                "start_time": 77.2909091,
                "end_time": 77.4568182,
                "pitch": 60,
                "velocity": 101,
                "duration": 0.1659091,
                "tempo": 120.0
            }
        ],
        "Church Organ": [
            {
                "start_time": 35.4386364,
                "end_time": 35.6090909,
                "pitch": 79,
                "velocity": 101,
                "duration": 0.1704545,
                "tempo": 120.0
            },
            {
                "start_time": 35.6113636,
                "end_time": 35.7772727,
                "pitch": 74,
                "velocity": 101,
                "duration": 0.1659091,
                "tempo": 120.0
            },
            {
                "start_time": 35.7795455,
                "end_time": 35.9454545,
                "pitch": 79,
                "velocity": 101,
                "duration": 0.1659091,
                "tempo": 120.0
            },
            {
                "start_time": 35.9477273,
                "end_time": 36.1136364,
                "pitch": 70,
                "velocity": 101,
                "duration": 0.1659091,
                "tempo": 120.0
            },
            {
                "start_time": 36.1136364,
                "end_time": 36.2818182,
                "pitch": 79,
                "velocity": 101,
                "duration": 0.1681818,
                "tempo": 120.0
            },
            {
                "start_time": 36.2818182,
                "end_time": 36.4522727,
                "pitch": 74,
                "velocity": 101,
                "duration": 0.1704545,
                "tempo": 120.0
            },
            {
                "start_time": 36.4545455,
                "end_time": 36.625,
                "pitch": 79,
                "velocity": 101,
                "duration": 0.1704545,
                "tempo": 120.0
            },
            {
                "start_time": 37.9795455,
                "end_time": 38.1477273,
                "pitch": 69,
                "velocity": 101,
                "duration": 0.1681818,
                "tempo": 120.0
            },
            {
                "start_time": 38.15,
                "end_time": 38.3204545,
                "pitch": 77,
                "velocity": 101,
                "duration": 0.1704545,
                "tempo": 120.0
            },
            {
                "start_time": 38.3227273,
                "end_time": 38.4886364,
                "pitch": 72,
                "velocity": 101,
                "duration": 0.1659091,
                "tempo": 120.0
            },
            {
                "start_time": 38.4909091,
                "end_time": 38.6568182,
                "pitch": 77,
                "velocity": 101,
                "duration": 0.1659091,
                "tempo": 120.0
            },
            {
                "start_time": 38.6568182,
                "end_time": 38.825,
                "pitch": 69,
                "velocity": 101,
                "duration": 0.1681818,
                "tempo": 120.0
            },
            {
                "start_time": 38.825,
                "end_time": 38.9909091,
                "pitch": 77,
                "velocity": 101,
                "duration": 0.1659091,
                "tempo": 120.0
            },
            {
                "start_time": 38.9931818,
                "end_time": 39.1636364,
                "pitch": 72,
                "velocity": 101,
                "duration": 0.1704545,
                "tempo": 120.0
            },
            {
                "start_time": 39.1659091,
                "end_time": 39.3363636,
                "pitch": 77,
                "velocity": 101,
                "duration": 0.1704545,
                "tempo": 120.0
            },
            {
                "start_time": 40.6886364,
                "end_time": 40.8590909,
                "pitch": 67,
                "velocity": 101,
                "duration": 0.1704545,
                "tempo": 120.0
            },
            {
                "start_time": 40.8613636,
                "end_time": 41.0318182,
                "pitch": 75,
                "velocity": 101,
                "duration": 0.1704545,
                "tempo": 120.0
            },
            {
                "start_time": 41.0340909,
                "end_time": 41.2,
                "pitch": 70,
                "velocity": 101,
                "duration": 0.1659091,
                "tempo": 120.0
            },
            {
                "start_time": 41.2,
                "end_time": 41.3681818,
                "pitch": 75,
                "velocity": 101,
                "duration": 0.1681818,
                "tempo": 120.0
            },
            {
                "start_time": 41.3681818,
                "end_time": 41.5340909,
                "pitch": 67,
                "velocity": 101,
                "duration": 0.1659091,
                "tempo": 120.0
            },
            {
                "start_time": 41.5363636,
                "end_time": 41.7022727,
                "pitch": 75,
                "velocity": 101,
                "duration": 0.1659091,
                "tempo": 120.0
            },
            {
                "start_time": 41.7045455,
                "end_time": 41.875,
                "pitch": 70,
                "velocity": 101,
                "duration": 0.1704545,
                "tempo": 120.0
            },
            {
                "start_time": 41.8772727,
                "end_time": 42.0477273,
                "pitch": 75,
                "velocity": 101,
                "duration": 0.1704545,
                "tempo": 120.0
            },
            {
                "start_time": 43.4,
                "end_time": 43.5704545,
                "pitch": 66,
                "velocity": 101,
                "duration": 0.1704545,
                "tempo": 120.0
            },
            {
                "start_time": 43.5727273,
                "end_time": 43.7431818,
                "pitch": 74,
                "velocity": 101,
                "duration": 0.1704545,
                "tempo": 120.0
            },
            {
                "start_time": 43.7454545,
                "end_time": 43.9113636,
                "pitch": 69,
                "velocity": 101,
                "duration": 0.1659091,
                "tempo": 120.0
            },
            {
                "start_time": 43.9113636,
                "end_time": 44.0795455,
                "pitch": 74,
                "velocity": 101,
                "duration": 0.1681818,
                "tempo": 120.0
            },
            {
                "start_time": 44.0795455,
                "end_time": 44.2454545,
                "pitch": 66,
                "velocity": 101,
                "duration": 0.1659091,
                "tempo": 120.0
            },
            {
                "start_time": 44.2477273,
                "end_time": 44.4136364,
                "pitch": 74,
                "velocity": 101,
                "duration": 0.1659091,
                "tempo": 120.0
            },
            {
                "start_time": 44.4159091,
                "end_time": 44.5863636,
                "pitch": 69,
                "velocity": 101,
                "duration": 0.1704545,
                "tempo": 120.0
            },
            {
                "start_time": 44.5863636,
                "end_time": 44.7590909,
                "pitch": 74,
                "velocity": 101,
                "duration": 0.1727273,
                "tempo": 120.0
            },
            {
                "start_time": 46.2840909,
                "end_time": 46.4545455,
                "pitch": 79,
                "velocity": 101,
                "duration": 0.1704545,
                "tempo": 120.0
            },
            {
                "start_time": 46.4545455,
                "end_time": 46.6204545,
                "pitch": 74,
                "velocity": 101,
                "duration": 0.1659091,
                "tempo": 120.0
            },
            {
                "start_time": 46.6227273,
                "end_time": 46.7886364,
                "pitch": 79,
                "velocity": 101,
                "duration": 0.1659091,
                "tempo": 120.0
            },
            {
                "start_time": 46.7909091,
                "end_time": 46.9568182,
                "pitch": 70,
                "velocity": 101,
                "duration": 0.1659091,
                "tempo": 120.0
            },
            {
                "start_time": 46.9590909,
                "end_time": 47.125,
                "pitch": 79,
                "velocity": 101,
                "duration": 0.1659091,
                "tempo": 120.0
            },
            {
                "start_time": 47.1272727,
                "end_time": 47.2977273,
                "pitch": 74,
                "velocity": 101,
                "duration": 0.1704545,
                "tempo": 120.0
            },
            {
                "start_time": 47.2977273,
                "end_time": 47.4681818,
                "pitch": 79,
                "velocity": 101,
                "duration": 0.1704545,
                "tempo": 120.0
            },
            {
                "start_time": 48.8227273,
                "end_time": 48.9931818,
                "pitch": 69,
                "velocity": 101,
                "duration": 0.1704545,
                "tempo": 120.0
            },
            {
                "start_time": 48.9931818,
                "end_time": 49.1659091,
                "pitch": 77,
                "velocity": 101,
                "duration": 0.1727273,
                "tempo": 120.0
            },
            {
                "start_time": 49.1659091,
                "end_time": 49.3318182,
                "pitch": 72,
                "velocity": 101,
                "duration": 0.1659091,
                "tempo": 120.0
            },
            {
                "start_time": 49.3340909,
                "end_time": 49.5,
                "pitch": 77,
                "velocity": 101,
                "duration": 0.1659091,
                "tempo": 120.0
            },
            {
                "start_time": 49.5022727,
                "end_time": 49.6681818,
                "pitch": 69,
                "velocity": 101,
                "duration": 0.1659091,
                "tempo": 120.0
            },
            {
                "start_time": 49.6704545,
                "end_time": 49.8363636,
                "pitch": 77,
                "velocity": 101,
                "duration": 0.1659091,
                "tempo": 120.0
            },
            {
                "start_time": 49.8363636,
                "end_time": 50.0090909,
                "pitch": 72,
                "velocity": 101,
                "duration": 0.1727273,
                "tempo": 120.0
            },
            {
                "start_time": 50.0090909,
                "end_time": 50.1795455,
                "pitch": 77,
                "velocity": 101,
                "duration": 0.1704545,
                "tempo": 120.0
            },
            {
                "start_time": 51.5340909,
                "end_time": 51.7045455,
                "pitch": 67,
                "velocity": 101,
                "duration": 0.1704545,
                "tempo": 120.0
            },
            {
                "start_time": 51.7045455,
                "end_time": 51.875,
                "pitch": 75,
                "velocity": 101,
                "duration": 0.1704545,
                "tempo": 120.0
            },
            {
                "start_time": 51.8772727,
                "end_time": 52.0431818,
                "pitch": 70,
                "velocity": 101,
                "duration": 0.1659091,
                "tempo": 120.0
            },
            {
                "start_time": 52.0454545,
                "end_time": 52.2113636,
                "pitch": 75,
                "velocity": 101,
                "duration": 0.1659091,
                "tempo": 120.0
            },
            {
                "start_time": 52.2136364,
                "end_time": 52.3795455,
                "pitch": 67,
                "velocity": 101,
                "duration": 0.1659091,
                "tempo": 120.0
            },
            {
                "start_time": 52.3795455,
                "end_time": 52.5477273,
                "pitch": 75,
                "velocity": 101,
                "duration": 0.1681818,
                "tempo": 120.0
            },
            {
                "start_time": 52.5477273,
                "end_time": 52.7181818,
                "pitch": 70,
                "velocity": 101,
                "duration": 0.1704545,
                "tempo": 120.0
            },
            {
                "start_time": 52.7204545,
                "end_time": 52.8909091,
                "pitch": 75,
                "velocity": 101,
                "duration": 0.1704545,
                "tempo": 120.0
            }
        ],
        "Lead 2 (sawtooth)": [
            {
                "start_time": 36.6272727,
                "end_time": 36.9613636,
                "pitch": 60,
                "velocity": 80,
                "duration": 0.3340909,
                "tempo": 120.0
            },
            {
                "start_time": 36.9636364,
                "end_time": 37.3068182,
                "pitch": 55,
                "velocity": 80,
                "duration": 0.3431818,
                "tempo": 120.0
            },
            {
                "start_time": 37.3068182,
                "end_time": 37.6409091,
                "pitch": 60,
                "velocity": 80,
                "duration": 0.3340909,
                "tempo": 120.0
            },
            {
                "start_time": 37.6431818,
                "end_time": 37.9772727,
                "pitch": 58,
                "velocity": 80,
                "duration": 0.3340909,
                "tempo": 120.0
            },
            {
                "start_time": 39.3386364,
                "end_time": 39.6727273,
                "pitch": 58,
                "velocity": 80,
                "duration": 0.3340909,
                "tempo": 120.0
            },
            {
                "start_time": 39.675,
                "end_time": 40.0159091,
                "pitch": 53,
                "velocity": 80,
                "duration": 0.3409091,
                "tempo": 120.0
            },
            {
                "start_time": 40.0181818,
                "end_time": 40.3522727,
                "pitch": 58,
                "velocity": 80,
                "duration": 0.3340909,
                "tempo": 120.0
            },
            {
                "start_time": 40.3545455,
                "end_time": 40.6886364,
                "pitch": 57,
                "velocity": 80,
                "duration": 0.3340909,
                "tempo": 120.0
            },
            {
                "start_time": 42.05,
                "end_time": 42.3840909,
                "pitch": 57,
                "velocity": 80,
                "duration": 0.3340909,
                "tempo": 120.0
            },
            {
                "start_time": 42.3840909,
                "end_time": 42.7272727,
                "pitch": 51,
                "velocity": 80,
                "duration": 0.3431818,
                "tempo": 120.0
            },
            {
                "start_time": 42.7295455,
                "end_time": 43.0636364,
                "pitch": 57,
                "velocity": 80,
                "duration": 0.3340909,
                "tempo": 120.0
            },
            {
                "start_time": 43.0659091,
                "end_time": 43.4,
                "pitch": 55,
                "velocity": 80,
                "duration": 0.3340909,
                "tempo": 120.0
            },
            {
                "start_time": 44.9272727,
                "end_time": 45.0954545,
                "pitch": 50,
                "velocity": 80,
                "duration": 0.1681818,
                "tempo": 120.0
            },
            {
                "start_time": 45.0954545,
                "end_time": 45.2659091,
                "pitch": 51,
                "velocity": 80,
                "duration": 0.1704545,
                "tempo": 120.0
            },
            {
                "start_time": 45.2681818,
                "end_time": 45.4386364,
                "pitch": 53,
                "velocity": 80,
                "duration": 0.1704545,
                "tempo": 120.0
            },
            {
                "start_time": 45.4409091,
                "end_time": 45.6068182,
                "pitch": 55,
                "velocity": 80,
                "duration": 0.1659091,
                "tempo": 120.0
            },
            {
                "start_time": 45.6068182,
                "end_time": 45.775,
                "pitch": 57,
                "velocity": 80,
                "duration": 0.1681818,
                "tempo": 120.0
            },
            {
                "start_time": 45.775,
                "end_time": 45.9409091,
                "pitch": 58,
                "velocity": 80,
                "duration": 0.1659091,
                "tempo": 120.0
            },
            {
                "start_time": 45.9431818,
                "end_time": 46.1090909,
                "pitch": 60,
                "velocity": 80,
                "duration": 0.1659091,
                "tempo": 120.0
            },
            {
                "start_time": 47.4704545,
                "end_time": 47.8045455,
                "pitch": 60,
                "velocity": 80,
                "duration": 0.3340909,
                "tempo": 120.0
            },
            {
                "start_time": 47.8068182,
                "end_time": 48.15,
                "pitch": 55,
                "velocity": 80,
                "duration": 0.3431818,
                "tempo": 120.0
            },
            {
                "start_time": 48.1522727,
                "end_time": 48.4863636,
                "pitch": 60,
                "velocity": 80,
                "duration": 0.3340909,
                "tempo": 120.0
            },
            {
                "start_time": 48.4863636,
                "end_time": 48.8204545,
                "pitch": 58,
                "velocity": 80,
                "duration": 0.3340909,
                "tempo": 120.0
            },
            {
                "start_time": 50.1818182,
                "end_time": 50.5159091,
                "pitch": 58,
                "velocity": 80,
                "duration": 0.3340909,
                "tempo": 120.0
            },
            {
                "start_time": 50.5181818,
                "end_time": 50.8613636,
                "pitch": 53,
                "velocity": 80,
                "duration": 0.3431818,
                "tempo": 120.0
            },
            {
                "start_time": 50.8613636,
                "end_time": 51.1954545,
                "pitch": 58,
                "velocity": 80,
                "duration": 0.3340909,
                "tempo": 120.0
            },
            {
                "start_time": 51.1977273,
                "end_time": 51.5318182,
                "pitch": 57,
                "velocity": 80,
                "duration": 0.3340909,
                "tempo": 120.0
            },
            {
                "start_time": 52.8931818,
                "end_time": 53.2272727,
                "pitch": 57,
                "velocity": 80,
                "duration": 0.3340909,
                "tempo": 120.0
            },
            {
                "start_time": 53.2295455,
                "end_time": 53.5727273,
                "pitch": 51,
                "velocity": 80,
                "duration": 0.3431818,
                "tempo": 120.0
            },
            {
                "start_time": 53.5727273,
                "end_time": 53.9068182,
                "pitch": 57,
                "velocity": 80,
                "duration": 0.3340909,
                "tempo": 120.0
            },
            {
                "start_time": 53.9090909,
                "end_time": 54.2522727,
                "pitch": 55,
                "velocity": 80,
                "duration": 0.3431818,
                "tempo": 120.0
            }
        ]
    }
}