{
    "mood": "angry",
    "instruments": {
        "Acoustic Bass": [
            {
                "start_time": 0.0227273,
                "end_time": 0.1295455,
                "pitch": 43,
                "velocity": 80,
                "duration": 0.1068182,
                "tempo": 120.0
            },
            {
                "start_time": 0.3863636,
                "end_time": 1.1409091,
                "pitch": 45,
                "velocity": 80,
                "duration": 0.7545455,
                "tempo": 120.0
            },
            {
                "start_time": 1.1409091,
                "end_time": 1.2863636,
                "pitch": 45,
                "velocity": 80,
                "duration": 0.1454545,
                "tempo": 120.0
            },
            {
                "start_time": 1.5931818,
                "end_time": 2.3545455,
                "pitch": 47,
                "velocity": 80,
                "duration": 0.7613636,
                "tempo": 120.0
            },
            {
                "start_time": 2.3545455,
                "end_time": 2.5045455,
                "pitch": 47,
                "velocity": 80,
                "duration": 0.15,
                "tempo": 120.0
            },
            {
                "start_time": 2.8090909,
                "end_time": 3.5613636,
                "pitch": 48,
                "velocity": 80,
                "duration": 0.7522727,
                "tempo": 120.0
            },
            {
                "start_time": 3.5636364,
                "end_time": 3.7113636,
                "pitch": 50,
                "velocity": 80,
                "duration": 0.1477273,
                "tempo": 120.0
            },
            {
                "start_time": 4.0181818,
                "end_time": 4.7681818,
                "pitch": 52,
                "velocity": 80,
                "duration": 0.75,
                "tempo": 120.0
            },
            {
                "start_time": 4.7704545,
                "end_time": 4.9181818,
                "pitch": 43,
                "velocity": 80,
                "duration": 0.1477273,
                "tempo": 120.0
            },
            {
                "start_time": 5.2272727,
                "end_time": 5.9818182,
                "pitch": 45,
                "velocity": 80,
                "duration": 0.7545455,
                "tempo": 120.0
            },
            {
                "start_time": 5.9840909,
                "end_time": 6.1295455,
                "pitch": 45,
                "velocity": 80,
                "duration": 0.1454545,
                "tempo": 120.0
            },
            {
                "start_time": 6.4340909,
                "end_time": 7.1863636,
                "pitch": 47,
                "velocity": 80,
                "duration": 0.7522727,
                "tempo": 120.0
            },
            {
                "start_time": 7.1886364,
                "end_time": 7.3363636,
                "pitch": 47,
                "velocity": 80,
                "duration": 0.1477273,
                "tempo": 120.0
            },
            {
                "start_time": 7.6409091,
                "end_time": 8.3954545,
                "pitch": 48,
                "velocity": 80,
                "duration": 0.7545455,
                "tempo": 120.0
            },
            {
                "start_time": 8.3954545,
                "end_time": 8.5431818,
                "pitch": 50,
                "velocity": 80,
                "duration": 0.1477273,
                "tempo": 120.0
            },
            {
                "start_time": 8.85,
                "end_time": 8.9954545,
                "pitch": 51,
                "velocity": 80,
                "duration": 0.1454545,
                "tempo": 120.0
            },
            {
                "start_time": 9.3,
                "end_time": 12.0159091,
                "pitch": 52,
                "velocity": 80,
                "duration": 2.7159091,
                "tempo": 120.0
            },
            {
                "start_time": 12.0159091,
                "end_time": 12.1681818,
                "pitch": 45,
                "velocity": 80,
                "duration": 0.1522727,
                "tempo": 120.0
            },
            {
                "start_time": 12.1681818,
                "end_time": 12.3204545,
                "pitch": 45,
                "velocity": 80,
                "duration": 0.1522727,
                "tempo": 120.0
            },
            {
                "start_time": 12.3204545,
                "end_time": 12.4704545,
                "pitch": 45,
                "velocity": 80,
                "duration": 0.15,
                "tempo": 120.0
            },
            {
                "start_time": 12.4727273,
                "end_time": 12.6204545,
                "pitch": 45,
                "velocity": 80,
                "duration": 0.1477273,
                "tempo": 120.0
            },
            {
                "start_time": 12.6227273,
                "end_time": 12.7704545,
                "pitch": 45,
                "velocity": 80,
                "duration": 0.1477273,
                "tempo": 120.0
            },
            {
                "start_time": 12.7727273,
                "end_time": 12.9227273,
                "pitch": 45,
                "velocity": 80,
                "duration": 0.15,
                "tempo": 120.0
            },
            {
                "start_time": 12.9227273,
                "end_time": 13.0727273,
                "pitch": 45,
                "velocity": 80,
                "duration": 0.15,
                "tempo": 120.0
            },
            {
                "start_time": 13.075,
                "end_time": 13.225,
                "pitch": 45,
                "velocity": 80,
                "duration": 0.15,
                "tempo": 120.0
            },
            {
                "start_time": 13.2272727,
                "end_time": 13.3772727,
                "pitch": 45,
                "velocity": 80,
                "duration": 0.15,
                "tempo": 120.0
            },
            {
                "start_time": 13.3772727,
                "end_time": 13.5272727,
                "pitch": 45,
                "velocity": 80,
                "duration": 0.15,
                "tempo": 120.0
            },
            {
                "start_time": 13.5295455,
                "end_time": 13.6795455,
                "pitch": 45,
                "velocity": 80,
                "duration": 0.15,
                "tempo": 120.0
            },
            {
                "start_time": 13.6795455,
                "end_time": 13.8272727,
                "pitch": 45,
                "velocity": 80,
                "duration": 0.1477273,
                "tempo": 120.0
            },
            {
                "start_time": 13.8295455,
                "end_time": 13.9795455,
                "pitch": 45,
                "velocity": 80,
                "duration": 0.15,
                "tempo": 120.0
            },
            {
                "start_time": 13.9795455,
                "end_time": 14.1295455,
                "pitch": 45,
                "velocity": 80,
                "duration": 0.15,
                "tempo": 120.0
            },
            {
                "start_time": 14.1295455,
                "end_time": 14.2795455,
                "pitch": 45,
                "velocity": 80,
                "duration": 0.15,
                "tempo": 120.0
            },
            {
                "start_time": 14.2795455,
                "end_time": 14.4318182,
                "pitch": 45,
                "velocity": 80,
                "duration": 0.1522727,
                "tempo": 120.0
            },
            {
                "start_time": 14.4318182,
                "end_time": 14.5795455,
                "pitch": 45,
                "velocity": 80,
                "duration": 0.1477273,
                "tempo": 120.0
            },
            {
                "start_time": 14.5795455,
                "end_time": 14.7295455,
                "pitch": 45,
                "velocity": 80,
                "duration": 0.15,
                "tempo": 120.0
            },
            {
                "start_time": 14.7295455,
                "end_time": 14.8795455,
                "pitch": 45,
                "velocity": 80,
                "duration": 0.15,
                "tempo": 120.0
            },
            {
                "start_time": 14.8818182,
                "end_time": 15.0295455,
                "pitch": 45,
                "velocity": 80,
                "duration": 0.1477273,
                "tempo": 120.0
            },
            {
                "start_time": 15.0318182,
                "end_time": 15.1795455,
                "pitch": 45,
                "velocity": 80,
                "duration": 0.1477273,
                "tempo": 120.0
            },
            {
                "start_time": 15.1795455,
                "end_time": 15.3295455,
                "pitch": 45,
                "velocity": 80,
                "duration": 0.15,
                "tempo": 120.0
            },
            {
                "start_time": 15.3318182,
                "end_time": 15.4818182,
                "pitch": 45,
                "velocity": 80,
                "duration": 0.15,
                "tempo": 120.0
            },
            {
                "start_time": 15.4818182,
                "end_time": 15.6318182,
                "pitch": 45,
                "velocity": 80,
                "duration": 0.15,
                "tempo": 120.0
            },
            {
                "start_time": 15.6340909,
                "end_time": 15.7818182,
                "pitch": 45,
                "velocity": 80,
                "duration": 0.1477273,
                "tempo": 120.0
            },
            {
                "start_time": 15.7818182,
                "end_time": 15.9318182,
                "pitch": 45,
                "velocity": 80,
                "duration": 0.15,
                "tempo": 120.0
            },
            {
                "start_time": 15.9318182,
                "end_time": 16.0840909,
                "pitch": 45,
                "velocity": 80,
                "duration": 0.1522727,
                "tempo": 120.0
            },
            {
                "start_time": 16.0840909,
                "end_time": 16.2340909,
                "pitch": 45,
                "velocity": 80,
                "duration": 0.15,
                "tempo": 120.0
            },
            {
                "start_time": 16.2340909,
                "end_time": 16.3863636,
                "pitch": 45,
                "velocity": 80,
                "duration": 0.1522727,
                "tempo": 120.0
            },
            {
                "start_time": 16.3863636,
                "end_time": 16.5386364,
                "pitch": 45,
                "velocity": 80,
                "duration": 0.1522727,
                "tempo": 120.0
            },
            {
                "start_time": 16.5386364,
                "end_time": 16.6886364,
                "pitch": 45,
                "velocity": 80,
                "duration": 0.15,
                "tempo": 120.0
            },
            {
                "start_time": 16.6886364,
                "end_time": 16.8386364,
                "pitch": 45,
                "velocity": 80,
                "duration": 0.15,
                "tempo": 120.0
            },
            {
                "start_time": 16.8409091,
                "end_time": 16.9886364,
                "pitch": 47,
                "velocity": 80,
                "duration": 0.1477273,
                "tempo": 120.0
            },
            {
                "start_time": 16.9909091,
                "end_time": 17.1386364,
                "pitch": 47,
                "velocity": 80,
                "duration": 0.1477273,
                "tempo": 120.0
            },
            {
                "start_time": 17.1409091,
                "end_time": 17.2931818,
                "pitch": 47,
                "velocity": 80,
                "duration": 0.1522727,
                "tempo": 120.0
            },
            {
                "start_time": 17.2931818,
                "end_time": 17.4454545,
                "pitch": 47,
                "velocity": 80,
                "duration": 0.1522727,
                "tempo": 120.0
            },
            {
                "start_time": 17.4454545,
                "end_time": 17.6,
                "pitch": 47,
                "velocity": 80,
                "duration": 0.1545455,
                "tempo": 120.0
            },
            {
                "start_time": 17.6,
                "end_time": 17.7522727,
                "pitch": 47,
                "velocity": 80,
                "duration": 0.1522727,
                "tempo": 120.0
            },
            {
                "start_time": 17.7522727,
                "end_time": 17.9022727,
                "pitch": 47,
                "velocity": 80,
                "duration": 0.15,
                "tempo": 120.0
            },
            {
                "start_time": 17.9022727,
                "end_time": 18.0522727,
                "pitch": 47,
                "velocity": 80,
                "duration": 0.15,
                "tempo": 120.0
            },
            {
                "start_time": 18.0545455,
                "end_time": 18.2022727,
                "pitch": 48,
                "velocity": 80,
                "duration": 0.1477273,
                "tempo": 120.0
            },
            {
                "start_time": 18.2022727,
                "end_time": 18.3522727,
                "pitch": 48,
                "velocity": 80,
                "duration": 0.15,
                "tempo": 120.0
            },
            {
                "start_time": 18.3522727,
                "end_time": 18.5045455,
                "pitch": 48,
                "velocity": 80,
                "duration": 0.1522727,
                "tempo": 120.0
            },
            {
                "start_time": 18.5068182,
                "end_time": 18.6568182,
                "pitch": 48,
                "velocity": 80,
                "duration": 0.15,
                "tempo": 120.0
            },
            {
                "start_time": 18.6568182,
                "end_time": 18.8090909,
                "pitch": 48,
                "velocity": 80,
                "duration": 0.1522727,
                "tempo": 120.0
            },
            {
                "start_time": 18.8090909,
                "end_time": 18.9613636,
                "pitch": 48,
                "velocity": 80,
                "duration": 0.1522727,
                "tempo": 120.0
            },
            {
                "start_time": 18.9613636,
                "end_time": 19.1090909,
                "pitch": 48,
                "velocity": 80,
                "duration": 0.1477273,
                "tempo": 120.0
            },
            {
                "start_time": 19.1113636,
                "end_time": 19.2590909,
                "pitch": 48,
                "velocity": 80,
                "duration": 0.1477273,
                "tempo": 120.0
            },
            {
                "start_time": 19.5613636,
                "end_time": 19.7090909,
                "pitch": 33,
                "velocity": 80,
                "duration": 0.1477273,
                "tempo": 120.0
            },
            {
                "start_time": 19.8659091,
                "end_time": 20.3204545,
                "pitch": 36,
                "velocity": 80,
                "duration": 0.4545455,
                "tempo": 120.0
            },
            {
                "start_time": 20.3204545,
                "end_time": 20.4681818,
                "pitch": 38,
                "velocity": 80,
                "duration": 0.1477273,
                "tempo": 120.0
            },
            {
                "start_time": 20.6227273,
                "end_time": 20.7704545,
                "pitch": 38,
                "velocity": 80,
                "duration": 0.1477273,
                "tempo": 120.0
            },
            {
                "start_time": 20.9227273,
                "end_time": 21.0727273,
                "pitch": 38,
                "velocity": 80,
                "duration": 0.15,
                "tempo": 120.0
            },
            {
                "start_time": 21.0727273,
                "end_time": 21.3704545,
                "pitch": 41,
                "velocity": 80,
                "duration": 0.2977273,
                "tempo": 120.0
            },
            {
                "start_time": 21.3704545,
                "end_time": 21.5204545,
                "pitch": 40,
                "velocity": 80,
                "duration": 0.15,
                "tempo": 120.0
            },
            {
                "start_time": 21.6772727,
                "end_time": 21.8295455,
                "pitch": 45,
                "velocity": 80,
                "duration": 0.1522727,
                "tempo": 120.0
            },
            {
                "start_time": 21.8295455,
                "end_time": 21.9818182,
                "pitch": 45,
                "velocity": 80,
                "duration": 0.1522727,
                "tempo": 120.0
            },
            {
                "start_time": 21.9818182,
                "end_time": 22.1318182,
                "pitch": 45,
                "velocity": 80,
                "duration": 0.15,
                "tempo": 120.0
            },
            {
                "start_time": 22.1318182,
                "end_time": 22.2818182,
                "pitch": 45,
                "velocity": 80,
                "duration": 0.15,
                "tempo": 120.0
            },
            {
                "start_time": 22.2818182,
                "end_time": 22.4318182,
                "pitch": 45,
                "velocity": 80,
                "duration": 0.15,
                "tempo": 120.0
            },
            {
                "start_time": 22.4318182,
                "end_time": 22.5818182,
                "pitch": 45,
                "velocity": 80,
                "duration": 0.15,
                "tempo": 120.0
            },
            {
                "start_time": 22.5840909,
                "end_time": 22.7340909,
                "pitch": 45,
                "velocity": 80,
                "duration": 0.15,
                "tempo": 120.0
            },
            {
                "start_time": 22.7340909,
                "end_time": 22.8863636,
                "pitch": 45,
                "velocity": 80,
                "duration": 0.1522727,
                "tempo": 120.0
            },
            {
                "start_time": 22.8886364,
                "end_time": 23.0386364,
                "pitch": 45,
                "velocity": 80,
                "duration": 0.15,
                "tempo": 120.0
            },
            {
                "start_time": 23.0386364,
                "end_time": 23.1886364,
                "pitch": 45,
                "velocity": 80,
                "duration": 0.15,
                "tempo": 120.0
            },
            {
                "start_time": 23.1909091,
                "end_time": 23.3409091,
                "pitch": 45,
                "velocity": 80,
                "duration": 0.15,
                "tempo": 120.0
            },
            {
                "start_time": 23.3431818,
                "end_time": 23.4931818,
                "pitch": 45,
                "velocity": 80,
                "duration": 0.15,
                "tempo": 120.0
            },
            {
                "start_time": 23.4931818,
                "end_time": 23.6431818,
                "pitch": 45,
                "velocity": 80,
                "duration": 0.15,
                "tempo": 120.0
            },
            {
                "start_time": 23.6454545,
                "end_time": 23.7954545,
                "pitch": 45,
                "velocity": 80,
                "duration": 0.15,
                "tempo": 120.0
            },
            {
                "start_time": 23.7977273,
                "end_time": 23.9454545,
                "pitch": 45,
                "velocity": 80,
                "duration": 0.1477273,
                "tempo": 120.0
            },
            {
                "start_time": 23.9477273,
                "end_time": 24.0977273,
                "pitch": 45,
                "velocity": 80,
                "duration": 0.15,
                "tempo": 120.0
            },
            {
                "start_time": 24.1,
                "end_time": 24.2477273,
                "pitch": 45,
                "velocity": 80,
                "duration": 0.1477273,
                "tempo": 120.0
            },
            {
                "start_time": 24.2477273,
                "end_time": 24.3977273,
                "pitch": 45,
                "velocity": 80,
                "duration": 0.15,
                "tempo": 120.0
            },
            {
                "start_time": 24.3977273,
                "end_time": 24.55,
                "pitch": 45,
                "velocity": 80,
                "duration": 0.1522727,
                "tempo": 120.0
            },
            {
                "start_time": 24.55,
                "end_time": 24.7,
                "pitch": 45,
                "velocity": 80,
                "duration": 0.15,
                "tempo": 120.0
            },
            {
                "start_time": 24.7022727,
                "end_time": 24.8522727,
                "pitch": 45,
                "velocity": 80,
                "duration": 0.15,
                "tempo": 120.0
            },
            {
                "start_time": 24.8522727,
                "end_time": 25.0045455,
                "pitch": 45,
                "velocity": 80,
                "duration": 0.1522727,
                "tempo": 120.0
            },
            {
                "start_time": 25.0045455,
                "end_time": 25.1568182,
                "pitch": 45,
                "velocity": 80,
                "duration": 0.1522727,
                "tempo": 120.0
            },
            {
                "start_time": 25.1590909,
                "end_time": 25.3113636,
                "pitch": 45,
                "velocity": 80,
                "duration": 0.1522727,
                "tempo": 120.0
            },
            {
                "start_time": 25.3113636,
                "end_time": 25.4636364,
                "pitch": 45,
                "velocity": 80,
                "duration": 0.1522727,
                "tempo": 120.0
            },
            {
                "start_time": 25.4636364,
                "end_time": 25.6159091,
                "pitch": 45,
                "velocity": 80,
                "duration": 0.1522727,
                "tempo": 120.0
            },
            {
                "start_time": 25.6181818,
                "end_time": 25.7681818,
                "pitch": 45,
                "velocity": 80,
                "duration": 0.15,
                "tempo": 120.0
            },
            {
                "start_time": 25.7681818,
                "end_time": 25.9159091,
                "pitch": 45,
                "velocity": 80,
                "duration": 0.1477273,
                "tempo": 120.0
            },
            {
                "start_time": 25.9181818,
                "end_time": 26.0681818,
                "pitch": 45,
                "velocity": 80,
                "duration": 0.15,
                "tempo": 120.0
            },
            {
                "start_time": 26.0681818,
                "end_time": 26.2181818,
                "pitch": 45,
                "velocity": 80,
                "duration": 0.15,
                "tempo": 120.0
            },
            {
                "start_time": 26.2181818,
                "end_time": 26.3681818,
                "pitch": 45,
                "velocity": 80,
                "duration": 0.15,
                "tempo": 120.0
            },
            {
                "start_time": 26.3704545,
                "end_time": 26.5227273,
                "pitch": 45,
                "velocity": 80,
                "duration": 0.1522727,
                "tempo": 120.0
            },
            {
                "start_time": 26.5227273,
                "end_time": 26.6727273,
                "pitch": 47,
                "velocity": 80,
                "duration": 0.15,
                "tempo": 120.0
            },
            {
                "start_time": 26.6727273,
                "end_time": 26.825,
                "pitch": 47,
                "velocity": 80,
                "duration": 0.1522727,
                "tempo": 120.0
            },
            {
                "start_time": 26.825,
                "end_time": 26.975,
                "pitch": 47,
                "velocity": 80,
                "duration": 0.15,
                "tempo": 120.0
            },
            {
                "start_time": 26.9772727,
                "end_time": 27.1272727,
                "pitch": 47,
                "velocity": 80,
                "duration": 0.15,
                "tempo": 120.0
            },
            {
                "start_time": 27.1295455,
                "end_time": 27.2795455,
                "pitch": 47,
                "velocity": 80,
                "duration": 0.15,
                "tempo": 120.0
            },
            {
                "start_time": 27.2795455,
                "end_time": 27.4318182,
                "pitch": 47,
                "velocity": 80,
                "duration": 0.1522727,
                "tempo": 120.0
            },
            {
                "start_time": 27.4318182,
                "end_time": 27.5818182,
                "pitch": 47,
                "velocity": 80,
                "duration": 0.15,
                "tempo": 120.0
            },
            {
                "start_time": 27.5818182,
                "end_time": 27.7318182,
                "pitch": 47,
                "velocity": 80,
                "duration": 0.15,
                "tempo": 120.0
            },
            {
                "start_time": 27.7340909,
                "end_time": 27.8818182,
                "pitch": 48,
                "velocity": 80,
                "duration": 0.1477273,
                "tempo": 120.0
            },
            {
                "start_time": 27.8818182,
                "end_time": 28.0318182,
                "pitch": 48,
                "velocity": 80,
                "duration": 0.15,
                "tempo": 120.0
            },
            {
                "start_time": 28.0340909,
                "end_time": 28.1840909,
                "pitch": 48,
                "velocity": 80,
                "duration": 0.15,
                "tempo": 120.0
            },
            {
                "start_time": 28.1840909,
                "end_time": 28.3340909,
                "pitch": 48,
                "velocity": 80,
                "duration": 0.15,
                "tempo": 120.0
            },
            {
                "start_time": 28.3363636,
                "end_time": 28.4863636,
                "pitch": 48,
                "velocity": 80,
                "duration": 0.15,
                "tempo": 120.0
            },
            {
                "start_time": 28.4886364,
                "end_time": 28.6386364,
                "pitch": 48,
                "velocity": 80,
                "duration": 0.15,
                "tempo": 120.0
            },
            {
                "start_time": 28.6409091,
                "end_time": 28.7886364,
                "pitch": 48,
                "velocity": 80,
                "duration": 0.1477273,
                "tempo": 120.0
            },
            {
                "start_time": 28.7886364,
                "end_time": 28.9409091,
                "pitch": 48,
                "velocity": 80,
                "duration": 0.1522727,
                "tempo": 120.0
            },
            {
                "start_time": 28.9409091,
                "end_time": 29.0909091,
                "pitch": 43,
                "velocity": 80,
                "duration": 0.15,
                "tempo": 120.0
            },
            {
                "start_time": 29.0909091,
                "end_time": 29.2409091,
                "pitch": 43,
                "velocity": 80,
                "duration": 0.15,
                "tempo": 120.0
            },
            {
                "start_time": 29.2409091,
                "end_time": 29.3909091,
                "pitch": 43,
                "velocity": 80,
                "duration": 0.15,
                "tempo": 120.0
            },
            {
                "start_time": 29.3931818,
                "end_time": 29.5431818,
                "pitch": 43,
                "velocity": 80,
                "duration": 0.15,
                "tempo": 120.0
            },
            {
                "start_time": 29.5431818,
                "end_time": 29.6954545,
                "pitch": 43,
                "velocity": 80,
                "duration": 0.1522727,
                "tempo": 120.0
            },
            {
                "start_time": 29.6954545,
                "end_time": 29.8477273,
                "pitch": 43,
                "velocity": 80,
                "duration": 0.1522727,
                "tempo": 120.0
            },
            {
                "start_time": 29.8477273,
                "end_time": 29.9954545,
                "pitch": 43,
                "velocity": 80,
                "duration": 0.1477273,
                "tempo": 120.0
            },
            {
                "start_time": 29.9977273,
                "end_time": 30.15,
                "pitch": 43,
                "velocity": 80,
                "duration": 0.1522727,
                "tempo": 120.0
            },
            {
                "start_time": 31.3613636,
                "end_time": 31.5090909,
                "pitch": 40,
                "velocity": 80,
                "duration": 0.1477273,
                "tempo": 120.0
            },
            {
                "start_time": 31.5090909,
                "end_time": 31.6613636,
                "pitch": 40,
                "velocity": 80,
                "duration": 0.1522727,
                "tempo": 120.0
            },
            {
                "start_time": 31.6613636,
                "end_time": 31.8113636,
                "pitch": 40,
                "velocity": 80,
                "duration": 0.15,
                "tempo": 120.0
            },
            {
                "start_time": 31.8113636,
                "end_time": 31.9613636,
                "pitch": 40,
                "velocity": 80,
                "duration": 0.15,
                "tempo": 120.0
            },
            {
                "start_time": 31.9613636,
                "end_time": 32.1113636,
                "pitch": 40,
                "velocity": 80,
                "duration": 0.15,
                "tempo": 120.0
            },
            {
                "start_time": 32.1113636,
                "end_time": 32.2613636,
                "pitch": 40,
                "velocity": 80,
                "duration": 0.15,
                "tempo": 120.0
            },
            {
                "start_time": 32.2613636,
                "end_time": 32.4136364,
                "pitch": 40,
                "velocity": 80,
                "duration": 0.1522727,
                "tempo": 120.0
            },
            {
                "start_time": 32.4136364,
                "end_time": 32.5659091,
                "pitch": 40,
                "velocity": 80,
                "duration": 0.1522727,
                "tempo": 120.0
            },
            {
                "start_time": 32.5681818,
                "end_time": 32.7159091,
                "pitch": 40,
                "velocity": 80,
                "duration": 0.1477273,
                "tempo": 120.0
            },
            {
                "start_time": 32.7181818,
                "end_time": 32.8681818,
                "pitch": 40,
                "velocity": 80,
                "duration": 0.15,
                "tempo": 120.0
            },
            {
                "start_time": 32.8681818,
                "end_time": 33.0204545,
                "pitch": 40,
                "velocity": 80,
                "duration": 0.1522727,
                "tempo": 120.0
            },
            {
                "start_time": 33.0204545,
                "end_time": 33.1727273,
                "pitch": 40,
                "velocity": 80,
                "duration": 0.1522727,
                "tempo": 120.0
            },
            {
                "start_time": 33.1727273,
                "end_time": 33.3227273,
                "pitch": 40,
                "velocity": 80,
                "duration": 0.15,
                "tempo": 120.0
            },
            {
                "start_time": 33.325,
                "end_time": 33.475,
                "pitch": 40,
                "velocity": 80,
                "duration": 0.15,
                "tempo": 120.0
            },
            {
                "start_time": 33.475,
                "end_time": 33.6295455,
                "pitch": 40,
                "velocity": 80,
                "duration": 0.1545455,
                "tempo": 120.0
            },
            {
                "start_time": 33.6295455,
                "end_time": 33.7818182,
                "pitch": 40,
                "velocity": 80,
                "duration": 0.1522727,
                "tempo": 120.0
            },
            {
                "start_time": 33.7840909,
                "end_time": 33.9340909,
                "pitch": 38,
                "velocity": 80,
                "duration": 0.15,
                "tempo": 120.0
            },
            {
                "start_time": 33.9363636,
                "end_time": 34.0886364,
                "pitch": 38,
                "velocity": 80,
                "duration": 0.1522727,
                "tempo": 120.0
            },
            {
                "start_time": 34.0886364,
                "end_time": 34.2386364,
                "pitch": 38,
                "velocity": 80,
                "duration": 0.15,
                "tempo": 120.0
            },
            {
                "start_time": 34.2409091,
                "end_time": 34.3909091,
                "pitch": 38,
                "velocity": 80,
                "duration": 0.15,
                "tempo": 120.0
            },
            {
                "start_time": 34.3931818,
                "end_time": 34.5431818,
                "pitch": 38,
                "velocity": 80,
                "duration": 0.15,
                "tempo": 120.0
            },
            {
                "start_time": 34.5431818,
                "end_time": 34.6954545,
                "pitch": 38,
                "velocity": 80,
                "duration": 0.1522727,
                "tempo": 120.0
            },
            {
                "start_time": 34.6954545,
                "end_time": 34.8477273,
                "pitch": 38,
                "velocity": 80,
                "duration": 0.1522727,
                "tempo": 120.0
            },
            {
                "start_time": 34.8477273,
                "end_time": 35.0,
                "pitch": 38,
                "velocity": 80,
                "duration": 0.1522727,
                "tempo": 120.0
            },
            {
                "start_time": 35.0,
                "end_time": 35.15,
                "pitch": 38,
                "velocity": 80,
                "duration": 0.15,
                "tempo": 120.0
            },
            {
                "start_time": 35.15,
                "end_time": 35.3022727,
                "pitch": 38,
                "velocity": 80,
                "duration": 0.1522727,
                "tempo": 120.0
            },
            {
                "start_time": 35.3022727,
                "end_time": 35.4522727,
                "pitch": 38,
                "velocity": 80,
                "duration": 0.15,
                "tempo": 120.0
            },
            {
                "start_time": 35.4522727,
                "end_time": 35.6022727,
                "pitch": 38,
                "velocity": 80,
                "duration": 0.15,
                "tempo": 120.0
            },
            {
                "start_time": 35.6022727,
                "end_time": 35.7522727,
                "pitch": 38,
                "velocity": 80,
                "duration": 0.15,
                "tempo": 120.0
            },
            {
                "start_time": 35.7522727,
                "end_time": 35.9022727,
                "pitch": 38,
                "velocity": 80,
                "duration": 0.15,
                "tempo": 120.0
            },
            {
                "start_time": 35.9022727,
                "end_time": 36.0545455,
                "pitch": 38,
                "velocity": 80,
                "duration": 0.1522727,
                "tempo": 120.0
            },
            {
                "start_time": 36.0545455,
                "end_time": 36.2068182,
                "pitch": 38,
                "velocity": 80,
                "duration": 0.1522727,
                "tempo": 120.0
            },
            {
                "start_time": 36.2090909,
                "end_time": 36.3568182,
                "pitch": 40,
                "velocity": 80,
                "duration": 0.1477273,
                "tempo": 120.0
            },
            {
                "start_time": 36.3590909,
                "end_time": 36.5090909,
                "pitch": 40,
                "velocity": 80,
                "duration": 0.15,
                "tempo": 120.0
            },
            {
                "start_time": 36.5113636,
                "end_time": 36.6613636,
                "pitch": 40,
                "velocity": 80,
                "duration": 0.15,
                "tempo": 120.0
            },
            {
                "start_time": 36.6613636,
                "end_time": 36.8136364,
                "pitch": 40,
                "velocity": 80,
                "duration": 0.1522727,
                "tempo": 120.0
            },
            {
                "start_time": 36.8136364,
                "end_time": 36.9636364,
                "pitch": 40,
                "velocity": 80,
                "duration": 0.15,
                "tempo": 120.0
            },
            {
                "start_time": 36.9659091,
                "end_time": 37.1159091,
                "pitch": 40,
                "velocity": 80,
                "duration": 0.15,
                "tempo": 120.0
            },
            {
                "start_time": 37.1159091,
                "end_time": 37.2681818,
                "pitch": 40,
                "velocity": 80,
                "duration": 0.1522727,
                "tempo": 120.0
            },
            {
                "start_time": 37.2681818,
                "end_time": 37.4204545,
                "pitch": 40,
                "velocity": 80,
                "duration": 0.1522727,
                "tempo": 120.0
            },
            {
                "start_time": 37.4227273,
                "end_time": 37.5704545,
                "pitch": 40,
                "velocity": 80,
                "duration": 0.1477273,
                "tempo": 120.0
            },
            {
                "start_time": 37.5727273,
                "end_time": 37.7227273,
                "pitch": 40,
                "velocity": 80,
                "duration": 0.15,
                "tempo": 120.0
            },
            {
                "start_time": 37.725,
                "end_time": 37.875,
                "pitch": 40,
                "velocity": 80,
                "duration": 0.15,
                "tempo": 120.0
            },
            {
                "start_time": 37.875,
                "end_time": 38.0272727,
                "pitch": 40,
                "velocity": 80,
                "duration": 0.1522727,
                "tempo": 120.0
            },
            {
                "start_time": 38.0272727,
                "end_time": 38.1772727,
                "pitch": 40,
                "velocity": 80,
                "duration": 0.15,
                "tempo": 120.0
            },
            {
                "start_time": 38.1795455,
                "end_time": 38.3295455,
                "pitch": 40,
                "velocity": 80,
                "duration": 0.15,
                "tempo": 120.0
            },
            {
                "start_time": 38.3318182,
                "end_time": 38.4795455,
                "pitch": 40,
                "velocity": 80,
                "duration": 0.1477273,
                "tempo": 120.0
            },
            {
                "start_time": 38.4818182,
                "end_time": 38.6318182,
                "pitch": 40,
                "velocity": 80,
                "duration": 0.15,
                "tempo": 120.0
            },
            {
                "start_time": 38.6318182,
                "end_time": 38.7795455,
                "pitch": 38,
                "velocity": 80,
                "duration": 0.1477273,
                "tempo": 120.0
            },
            {
                "start_time": 38.7818182,
                "end_time": 38.9295455,
                "pitch": 38,
                "velocity": 80,
                "duration": 0.1477273,
                "tempo": 120.0
            },
            {
                "start_time": 38.9318182,
                "end_time": 39.0818182,
                "pitch": 38,
                "velocity": 80,
                "duration": 0.15,
                "tempo": 120.0
            },
            {
                "start_time": 39.0840909,
                "end_time": 39.2340909,
                "pitch": 38,
                "velocity": 80,
                "duration": 0.15,
                "tempo": 120.0
            },
            {
                "start_time": 39.2363636,
                "end_time": 39.3863636,
                "pitch": 38,
                "velocity": 80,
                "duration": 0.15,
                "tempo": 120.0
            },
            {
                "start_time": 39.3863636,
                "end_time": 39.5386364,
                "pitch": 38,
                "velocity": 80,
                "duration": 0.1522727,
                "tempo": 120.0
            },
            {
                "start_time": 39.5386364,
                "end_time": 39.6886364,
                "pitch": 38,
                "velocity": 80,
                "duration": 0.15,
                "tempo": 120.0
            },
            {
                "start_time": 39.6909091,
                "end_time": 39.8409091,
                "pitch": 38,
                "velocity": 80,
                "duration": 0.15,
                "tempo": 120.0
            },
            {
                "start_time": 39.8431818,
                "end_time": 39.9931818,
                "pitch": 38,
                "velocity": 80,
                "duration": 0.15,
                "tempo": 120.0
            },
            {
                "start_time": 39.9931818,
                "end_time": 40.1454545,
                "pitch": 38,
                "velocity": 80,
                "duration": 0.1522727,
                "tempo": 120.0
            },
            {
                "start_time": 40.1454545,
                "end_time": 40.2954545,
                "pitch": 38,
                "velocity": 80,
                "duration": 0.15,
                "tempo": 120.0
            },
            {
                "start_time": 40.2977273,
                "end_time": 40.4477273,
                "pitch": 38,
                "velocity": 80,
                "duration": 0.15,
                "tempo": 120.0
            },
            {
                "start_time": 40.4477273,
                "end_time": 40.6,
                "pitch": 38,
                "velocity": 80,
                "duration": 0.1522727,
                "tempo": 120.0
            },
            {
                "start_time": 40.6,
                "end_time": 40.7522727,
                "pitch": 38,
                "velocity": 80,
                "duration": 0.1522727,
                "tempo": 120.0
            },
            {
                "start_time": 40.7522727,
                "end_time": 40.9045455,
                "pitch": 38,
                "velocity": 80,
                "duration": 0.1522727,
                "tempo": 120.0
            },
            {
                "start_time": 40.9045455,
                "end_time": 41.0613636,
                "pitch": 38,
                "velocity": 80,
                "duration": 0.1568182,
                "tempo": 120.0
            },
            {
                "start_time": 41.0613636,
                "end_time": 41.2113636,
                "pitch": 40,
                "velocity": 80,
                "duration": 0.15,
                "tempo": 120.0
            },
            {
                "start_time": 41.2136364,
                "end_time": 41.3659091,
                "pitch": 40,
                "velocity": 80,
                "duration": 0.1522727,
                "tempo": 120.0
            },
            {
                "start_time": 41.3659091,
                "end_time": 41.5159091,
                "pitch": 40,
                "velocity": 80,
                "duration": 0.15,
                "tempo": 120.0
            },
            {
                "start_time": 41.5181818,
                "end_time": 41.6681818,
                "pitch": 40,
                "velocity": 80,
                "duration": 0.15,
                "tempo": 120.0
            },
            {
                "start_time": 41.6681818,
                "end_time": 41.8204545,
                "pitch": 40,
                "velocity": 80,
                "duration": 0.1522727,
                "tempo": 120.0
            },
            {
                "start_time": 41.8204545,
                "end_time": 41.9704545,
                "pitch": 40,
                "velocity": 80,
                "duration": 0.15,
                "tempo": 120.0
            },
            {
                "start_time": 41.9727273,
                "end_time": 42.1204545,
                "pitch": 40,
                "velocity": 80,
                "duration": 0.1477273,
                "tempo": 120.0
            },
            {
                "start_time": 42.1227273,
                "end_time": 42.2727273,
                "pitch": 40,
                "velocity": 80,
                "duration": 0.15,
                "tempo": 120.0
            },
            {
                "start_time": 42.2727273,
                "end_time": 42.4227273,
                "pitch": 38,
                "velocity": 80,
                "duration": 0.15,
                "tempo": 120.0
            },
            {
                "start_time": 42.4227273,
                "end_time": 42.5727273,
                "pitch": 38,
                "velocity": 80,
                "duration": 0.15,
                "tempo": 120.0
            },
            {
                "start_time": 42.5727273,
                "end_time": 42.725,
                "pitch": 38,
                "velocity": 80,
                "duration": 0.1522727,
                "tempo": 120.0
            },
            {
                "start_time": 42.725,
                "end_time": 42.875,
                "pitch": 38,
                "velocity": 80,
                "duration": 0.15,
                "tempo": 120.0
            },
            {
                "start_time": 42.8772727,
                "end_time": 43.0272727,
                "pitch": 38,
                "velocity": 80,
                "duration": 0.15,
                "tempo": 120.0
            },
            {
                "start_time": 43.0272727,
                "end_time": 43.1795455,
                "pitch": 38,
                "velocity": 80,
                "duration": 0.1522727,
                "tempo": 120.0
            },
            {
                "start_time": 43.1795455,
                "end_time": 43.3295455,
                "pitch": 38,
                "velocity": 80,
                "duration": 0.15,
                "tempo": 120.0
            },
            {
                "start_time": 43.3318182,
                "end_time": 43.4840909,
                "pitch": 38,
                "velocity": 80,
                "duration": 0.1522727,
                "tempo": 120.0
            },
            {
                "start_time": 43.4840909,
                "end_time": 43.6340909,
                "pitch": 36,
                "velocity": 80,
                "duration": 0.15,
                "tempo": 120.0
            },
            {
                "start_time": 43.6363636,
                "end_time": 43.7863636,
                "pitch": 36,
                "velocity": 80,
                "duration": 0.15,
                "tempo": 120.0
            },
            {
                "start_time": 43.7863636,
                "end_time": 43.9386364,
                "pitch": 36,
                "velocity": 80,
                "duration": 0.1522727,
                "tempo": 120.0
            },
            {
                "start_time": 43.9386364,
                "end_time": 44.0886364,
                "pitch": 36,
                "velocity": 80,
                "duration": 0.15,
                "tempo": 120.0
            },
            {
                "start_time": 44.0909091,
                "end_time": 44.2409091,
                "pitch": 36,
                "velocity": 80,
                "duration": 0.15,
                "tempo": 120.0
            },
            {
                "start_time": 44.2409091,
                "end_time": 44.3931818,
                "pitch": 36,
                "velocity": 80,
                "duration": 0.1522727,
                "tempo": 120.0
            },
            {
                "start_time": 44.3931818,
                "end_time": 44.5431818,
                "pitch": 36,
                "velocity": 80,
                "duration": 0.15,
                "tempo": 120.0
            },
            {
                "start_time": 44.5454545,
                "end_time": 44.6977273,
                "pitch": 36,
                "velocity": 80,
                "duration": 0.1522727,
                "tempo": 120.0
            },
            {
                "start_time": 44.6977273,
                "end_time": 44.8477273,
                "pitch": 38,
                "velocity": 80,
                "duration": 0.15,
                "tempo": 120.0
            },
            {
                "start_time": 44.85,
                "end_time": 45.0,
                "pitch": 40,
                "velocity": 80,
                "duration": 0.15,
                "tempo": 120.0
            },
            {
                "start_time": 45.0,
                "end_time": 45.15,
                "pitch": 43,
                "velocity": 80,
                "duration": 0.15,
                "tempo": 120.0
            },
            {
                "start_time": 45.15,
                "end_time": 45.3,
                "pitch": 45,
                "velocity": 80,
                "duration": 0.15,
                "tempo": 120.0
            },
            {
                "start_time": 45.3,
                "end_time": 45.45,
                "pitch": 45,
                "velocity": 80,
                "duration": 0.15,
                "tempo": 120.0
            },
            {
                "start_time": 45.45,
                "end_time": 45.6,
                "pitch": 45,
                "velocity": 80,
                "duration": 0.15,
                "tempo": 120.0
            },
            {
                "start_time": 45.6022727,
                "end_time": 45.7522727,
                "pitch": 45,
                "velocity": 80,
                "duration": 0.15,
                "tempo": 120.0
            },
            {
                "start_time": 45.7522727,
                "end_time": 45.9045455,
                "pitch": 45,
                "velocity": 80,
                "duration": 0.1522727,
                "tempo": 120.0
            },
            {
                "start_time": 45.9068182,
                "end_time": 46.0568182,
                "pitch": 40,
                "velocity": 80,
                "duration": 0.15,
                "tempo": 120.0
            },
            {
                "start_time": 46.0568182,
                "end_time": 46.2068182,
                "pitch": 40,
                "velocity": 80,
                "duration": 0.15,
                "tempo": 120.0
            },
            {
                "start_time": 46.2090909,
                "end_time": 46.3590909,
                "pitch": 40,
                "velocity": 80,
                "duration": 0.15,
                "tempo": 120.0
            },
            {
                "start_time": 46.3590909,
                "end_time": 46.5090909,
                "pitch": 40,
                "velocity": 80,
                "duration": 0.15,
                "tempo": 120.0
            },
            {
                "start_time": 46.5113636,
                "end_time": 46.6613636,
                "pitch": 40,
                "velocity": 80,
                "duration": 0.15,
                "tempo": 120.0
            },
            {
                "start_time": 46.6636364,
                "end_time": 46.8136364,
                "pitch": 40,
                "velocity": 80,
                "duration": 0.15,
                "tempo": 120.0
            },
            {
                "start_time": 46.8159091,
                "end_time": 46.9659091,
                "pitch": 40,
                "velocity": 80,
                "duration": 0.15,
                "tempo": 120.0
            },
            {
                "start_time": 46.9659091,
                "end_time": 47.1181818,
                "pitch": 40,
                "velocity": 80,
                "duration": 0.1522727,
                "tempo": 120.0
            },
            {
                "start_time": 47.1204545,
                "end_time": 47.2704545,
                "pitch": 38,
                "velocity": 80,
                "duration": 0.15,
                "tempo": 120.0
            },
            {
                "start_time": 47.2704545,
                "end_time": 47.4204545,
                "pitch": 38,
                "velocity": 80,
                "duration": 0.15,
                "tempo": 120.0
            },
            {
                "start_time": 47.4227273,
                "end_time": 47.5727273,
                "pitch": 38,
                "velocity": 80,
                "duration": 0.15,
                "tempo": 120.0
            },
            {
                "start_time": 47.5727273,
                "end_time": 47.725,
                "pitch": 38,
                "velocity": 80,
                "duration": 0.1522727,
                "tempo": 120.0
            },
            {
                "start_time": 47.725,
                "end_time": 47.875,
                "pitch": 38,
                "velocity": 80,
                "duration": 0.15,
                "tempo": 120.0
            },
            {
                "start_time": 47.8772727,
                "end_time": 48.0272727,
                "pitch": 38,
                "velocity": 80,
                "duration": 0.15,
                "tempo": 120.0
            },
            {
                "start_time": 48.0272727,
                "end_time": 48.1772727,
                "pitch": 38,
                "velocity": 80,
                "duration": 0.15,
                "tempo": 120.0
            },
            {
                "start_time": 48.1772727,
                "end_time": 48.3295455,
                "pitch": 38,
                "velocity": 80,
                "duration": 0.1522727,
                "tempo": 120.0
            },
            {
                "start_time": 48.3295455,
                "end_time": 48.4795455,
                "pitch": 36,
                "velocity": 80,
                "duration": 0.15,
                "tempo": 120.0
            },
            {
                "start_time": 48.4795455,
                "end_time": 48.6295455,
                "pitch": 36,
                "velocity": 80,
                "duration": 0.15,
                "tempo": 120.0
            },
            {
                "start_time": 48.6295455,
                "end_time": 48.7818182,
                "pitch": 36,
                "velocity": 80,
                "duration": 0.1522727,
                "tempo": 120.0
            },
            {
                "start_time": 48.7818182,
                "end_time": 48.9340909,
                "pitch": 36,
                "velocity": 80,
                "duration": 0.1522727,
                "tempo": 120.0
            },
            {
                "start_time": 48.9363636,
                "end_time": 49.0886364,
                "pitch": 36,
                "velocity": 80,
                "duration": 0.1522727,
                "tempo": 120.0
            },
            {
                "start_time": 49.0886364,
                "end_time": 49.2409091,
                "pitch": 36,
                "velocity": 80,
                "duration": 0.1522727,
                "tempo": 120.0
            },
            {
                "start_time": 49.2431818,
                "end_time": 49.3931818,
                "pitch": 36,
                "velocity": 80,
                "duration": 0.15,
                "tempo": 120.0
            },
            {
                "start_time": 49.3931818,
                "end_time": 49.5454545,
                "pitch": 36,
                "velocity": 80,
                "duration": 0.1522727,
                "tempo": 120.0
            },
            {
                "start_time": 49.5454545,
                "end_time": 49.6977273,
                "pitch": 38,
                "velocity": 80,
                "duration": 0.1522727,
                "tempo": 120.0
            },
            {
                "start_time": 49.6977273,
                "end_time": 49.8477273,
                "pitch": 40,
                "velocity": 80,
                "duration": 0.15,
                "tempo": 120.0
            },
            {
                "start_time": 49.85,
                "end_time": 50.0,
                "pitch": 43,
                "velocity": 80,
                "duration": 0.15,
                "tempo": 120.0
            },
            {
                "start_time": 50.0,
                "end_time": 50.1522727,
                "pitch": 45,
                "velocity": 80,
                "duration": 0.1522727,
                "tempo": 120.0
            },
            {
                "start_time": 50.1522727,
                "end_time": 50.3045455,
                "pitch": 45,
                "velocity": 80,
                "duration": 0.1522727,
                "tempo": 120.0
            },
            {
                "start_time": 50.3045455,
                "end_time": 50.4545455,
                "pitch": 45,
                "velocity": 80,
                "duration": 0.15,
                "tempo": 120.0
            },
            {
                "start_time": 50.4568182,
                "end_time": 50.6068182,
                "pitch": 45,
                "velocity": 80,
                "duration": 0.15,
                "tempo": 120.0
            },
            {
                "start_time": 50.6068182,
                "end_time": 50.7590909,
                "pitch": 45,
                "velocity": 80,
                "duration": 0.1522727,
                "tempo": 120.0
            },
            {
                "start_time": 50.7613636,
                "end_time": 51.0613636,
                "pitch": 45,
                "velocity": 80,
                "duration": 0.3,
                "tempo": 120.0
            },
            {
                "start_time": 51.0613636,
                "end_time": 51.2136364,
                "pitch": 43,
                "velocity": 80,
                "duration": 0.1522727,
                "tempo": 120.0
            },
            {
                "start_time": 51.2136364,
                "end_time": 51.5159091,
                "pitch": 40,
                "velocity": 80,
                "duration": 0.3022727,
                "tempo": 120.0
            },
            {
                "start_time": 51.5181818,
                "end_time": 51.6681818,
                "pitch": 38,
                "velocity": 80,
                "duration": 0.15,
                "tempo": 120.0
            },
            {
                "start_time": 51.6681818,
                "end_time": 51.8181818,
                "pitch": 36,
                "velocity": 80,
                "duration": 0.15,
                "tempo": 120.0
            },
            {
                "start_time": 51.8181818,
                "end_time": 51.9681818,
                "pitch": 38,
                "velocity": 80,
                "duration": 0.15,
                "tempo": 120.0
            },
            {
                "start_time": 51.9704545,
                "end_time": 52.1181818,
                "pitch": 40,
                "velocity": 80,
                "duration": 0.1477273,
                "tempo": 120.0
            },
            {
                "start_time": 52.1204545,
                "end_time": 52.2681818,
                "pitch": 38,
                "velocity": 80,
                "duration": 0.1477273,
                "tempo": 120.0
            },
            {
                "start_time": 52.2704545,
                "end_time": 52.4204545,
                "pitch": 36,
                "velocity": 80,
                "duration": 0.15,
                "tempo": 120.0
            },
            {
                "start_time": 52.4204545,
                "end_time": 53.025,
                "pitch": 33,
                "velocity": 80,
                "duration": 0.6045455,
                "tempo": 120.0
            },
            {
                "start_time": 53.1818182,
                "end_time": 53.4818182,
                "pitch": 45,
                "velocity": 80,
                "duration": 0.3,
                "tempo": 120.0
            },
            {
                "start_time": 53.4840909,
                "end_time": 53.6340909,
                "pitch": 43,
                "velocity": 80,
                "duration": 0.15,
                "tempo": 120.0
            },
            {
                "start_time": 53.6340909,
                "end_time": 53.9386364,
                "pitch": 40,
                "velocity": 80,
                "duration": 0.3045455,
                "tempo": 120.0
            },
            {
                "start_time": 53.9386364,
                "end_time": 54.0886364,
                "pitch": 38,
                "velocity": 80,
                "duration": 0.15,
                "tempo": 120.0
            },
            {
                "start_time": 54.0909091,
                "end_time": 54.2409091,
                "pitch": 36,
                "velocity": 80,
                "duration": 0.15,
                "tempo": 120.0
            },
            {
                "start_time": 54.2409091,
                "end_time": 54.3931818,
                "pitch": 38,
                "velocity": 80,
                "duration": 0.1522727,
                "tempo": 120.0
            },
            {
                "start_time": 54.3931818,
                "end_time": 54.5454545,
                "pitch": 40,
                "velocity": 80,
                "duration": 0.1522727,
                "tempo": 120.0
            },
            {
                "start_time": 54.5454545,
                "end_time": 54.6954545,
                "pitch": 38,
                "velocity": 80,
                "duration": 0.15,
                "tempo": 120.0
            },
            {
                "start_time": 54.6977273,
                "end_time": 54.8477273,
                "pitch": 36,
                "velocity": 80,
                "duration": 0.15,
                "tempo": 120.0
            },
            {
                "start_time": 54.8477273,
                "end_time": 55.45,
                "pitch": 33,
                "velocity": 80,
                "duration": 0.6022727,
                "tempo": 120.0
            }
        ],
        "Acoustic Grand Piano": [
            {
                "start_time": 12.0159091,
                "end_time": 12.6204545,
                "pitch": 48,
                "velocity": 64,
                "duration": 0.6045455,
                "tempo": 120.0
            },
            {
                "start_time": 12.6204545,
                "end_time": 13.225,
                "pitch": 50,
                "velocity": 64,
                "duration": 0.6045455,
                "tempo": 120.0
            },
            {
                "start_time": 13.225,
                "end_time": 13.6772727,
                "pitch": 52,
                "velocity": 64,
                "duration": 0.4522727,
                "tempo": 120.0
            },
            {
                "start_time": 13.6795455,
                "end_time": 14.1272727,
                "pitch": 53,
                "velocity": 64,
                "duration": 0.4477273,
                "tempo": 120.0
            },
            {
                "start_time": 14.1295455,
                "end_time": 14.4295455,
                "pitch": 55,
                "velocity": 64,
                "duration": 0.3,
                "tempo": 120.0
            },
            {
                "start_time": 14.4318182,
                "end_time": 15.0295455,
                "pitch": 48,
                "velocity": 64,
                "duration": 0.5977273,
                "tempo": 120.0
            },
            {
                "start_time": 15.0295455,
                "end_time": 15.6295455,
                "pitch": 50,
                "velocity": 64,
                "duration": 0.6,
                "tempo": 120.0
            },
            {
                "start_time": 15.6318182,
                "end_time": 16.0818182,
                "pitch": 52,
                "velocity": 64,
                "duration": 0.45,
                "tempo": 120.0
            },
            {
                "start_time": 16.0840909,
                "end_time": 16.5363636,
                "pitch": 53,
                "velocity": 64,
                "duration": 0.4522727,
                "tempo": 120.0
            },
            {
                "start_time": 16.5386364,
                "end_time": 16.8386364,
                "pitch": 55,
                "velocity": 64,
                "duration": 0.3,
                "tempo": 120.0
            },
            {
                "start_time": 16.8386364,
                "end_time": 17.4431818,
                "pitch": 50,
                "velocity": 64,
                "duration": 0.6045455,
                "tempo": 120.0
            },
            {
                "start_time": 17.4454545,
                "end_time": 18.0522727,
                "pitch": 52,
                "velocity": 64,
                "duration": 0.6068182,
                "tempo": 120.0
            },
            {
                "start_time": 18.0522727,
                "end_time": 18.5022727,
                "pitch": 53,
                "velocity": 64,
                "duration": 0.45,
                "tempo": 120.0
            },
            {
                "start_time": 18.5045455,
                "end_time": 18.9590909,
                "pitch": 55,
                "velocity": 64,
                "duration": 0.4545455,
                "tempo": 120.0
            },
            {
                "start_time": 18.9590909,
                "end_time": 19.2568182,
                "pitch": 53,
                "velocity": 64,
                "duration": 0.2977273,
                "tempo": 120.0
            },
            {
                "start_time": 41.0613636,
                "end_time": 41.2090909,
                "pitch": 59,
                "velocity": 64,
                "duration": 0.1477273,
                "tempo": 120.0
            },
            {
                "start_time": 41.2113636,
                "end_time": 41.3636364,
                "pitch": 64,
                "velocity": 64,
                "duration": 0.1522727,
                "tempo": 120.0
            },
            {
                "start_time": 41.3659091,
                "end_time": 41.5159091,
                "pitch": 67,
                "velocity": 64,
                "duration": 0.15,
                "tempo": 120.0
            },
            {
                "start_time": 41.5159091,
                "end_time": 41.6659091,
                "pitch": 71,
                "velocity": 64,
                "duration": 0.15,
                "tempo": 120.0
            },
            {
                "start_time": 41.6681818,
                "end_time": 41.8181818,
                "pitch": 67,
                "velocity": 64,
                "duration": 0.15,
                "tempo": 120.0
            },
            {
                "start_time": 41.8204545,
                "end_time": 41.9704545,
                "pitch": 71,
                "velocity": 64,
                "duration": 0.15,
                "tempo": 120.0
            },
            {
                "start_time": 41.9704545,
                "end_time": 42.1204545,
                "pitch": 67,
                "velocity": 64,
                "duration": 0.15,
                "tempo": 120.0
            },
            {
                "start_time": 42.1204545,
                "end_time": 42.2704545,
                "pitch": 64,
                "velocity": 64,
                "duration": 0.15,
                "tempo": 120.0
            },
            {
                "start_time": 42.2727273,
                "end_time": 42.4204545,
                "pitch": 59,
                "velocity": 64,
                "duration": 0.1477273,
                "tempo": 120.0
            },
            {
                "start_time": 42.4227273,
                "end_time": 42.5704545,
                "pitch": 62,
                "velocity": 64,
                "duration": 0.1477273,
                "tempo": 120.0
            },
            {
                "start_time": 42.5727273,
                "end_time": 42.7227273,
                "pitch": 67,
                "velocity": 64,
                "duration": 0.15,
                "tempo": 120.0
            },
            {
                "start_time": 42.725,
                "end_time": 42.8727273,
                "pitch": 71,
                "velocity": 64,
                "duration": 0.1477273,
                "tempo": 120.0
            },
            {
                "start_time": 42.875,
                "end_time": 43.025,
                "pitch": 67,
                "velocity": 64,
                "duration": 0.15,
                "tempo": 120.0
            },
            {
                "start_time": 43.0272727,
                "end_time": 43.1772727,
                "pitch": 71,
                "velocity": 64,
                "duration": 0.15,
                "tempo": 120.0
            },
            {
                "start_time": 43.1795455,
                "end_time": 43.3295455,
                "pitch": 67,
                "velocity": 64,
                "duration": 0.15,
                "tempo": 120.0
            },
            {
                "start_time": 43.3295455,
                "end_time": 43.4818182,
                "pitch": 62,
                "velocity": 64,
                "duration": 0.1522727,
                "tempo": 120.0
            },
            {
                "start_time": 43.4818182,
                "end_time": 43.6318182,
                "pitch": 57,
                "velocity": 64,
                "duration": 0.15,
                "tempo": 120.0
            },
            {
                "start_time": 43.6340909,
                "end_time": 43.7840909,
                "pitch": 60,
                "velocity": 64,
                "duration": 0.15,
                "tempo": 120.0
            },
            {
                "start_time": 43.7863636,
                "end_time": 43.9363636,
                "pitch": 64,
                "velocity": 64,
                "duration": 0.15,
                "tempo": 120.0
            },
            {
                "start_time": 43.9386364,
                "end_time": 44.0863636,
                "pitch": 69,
                "velocity": 64,
                "duration": 0.1477273,
                "tempo": 120.0
            },
            {
                "start_time": 44.0886364,
                "end_time": 44.2386364,
                "pitch": 64,
                "velocity": 64,
                "duration": 0.15,
                "tempo": 120.0
            },
            {
                "start_time": 44.2409091,
                "end_time": 44.3909091,
                "pitch": 69,
                "velocity": 64,
                "duration": 0.15,
                "tempo": 120.0
            },
            {
                "start_time": 44.3931818,
                "end_time": 44.5431818,
                "pitch": 64,
                "velocity": 64,
                "duration": 0.15,
                "tempo": 120.0
            },
            {
                "start_time": 44.5431818,
                "end_time": 44.6954545,
                "pitch": 60,
                "velocity": 64,
                "duration": 0.1522727,
                "tempo": 120.0
            },
            {
                "start_time": 44.6977273,
                "end_time": 44.8454545,
                "pitch": 62,
                "velocity": 64,
                "duration": 0.1477273,
                "tempo": 120.0
            },
            {
                "start_time": 44.8477273,
                "end_time": 44.9977273,
                "pitch": 64,
                "velocity": 64,
                "duration": 0.15,
                "tempo": 120.0
            },
            {
                "start_time": 45.0,
                "end_time": 45.1477273,
                "pitch": 67,
                "velocity": 64,
                "duration": 0.1477273,
                "tempo": 120.0
            },
            {
                "start_time": 45.15,
                "end_time": 45.2977273,
                "pitch": 69,
                "velocity": 64,
                "duration": 0.1477273,
                "tempo": 120.0
            },
            {
                "start_time": 45.3,
                "end_time": 45.4477273,
                "pitch": 67,
                "velocity": 64,
                "duration": 0.1477273,
                "tempo": 120.0
            },
            {
                "start_time": 45.45,
                "end_time": 45.5977273,
                "pitch": 64,
                "velocity": 64,
                "duration": 0.1477273,
                "tempo": 120.0
            },
            {
                "start_time": 45.6,
                "end_time": 45.75,
                "pitch": 67,
                "velocity": 64,
                "duration": 0.15,
                "tempo": 120.0
            },
            {
                "start_time": 45.7522727,
                "end_time": 45.9022727,
                "pitch": 69,
                "velocity": 64,
                "duration": 0.15,
                "tempo": 120.0
            },
            {
                "start_time": 45.9045455,
                "end_time": 46.0545455,
                "pitch": 59,
                "velocity": 64,
                "duration": 0.15,
                "tempo": 120.0
            },
            {
                "start_time": 46.0568182,
                "end_time": 46.2068182,
                "pitch": 64,
                "velocity": 64,
                "duration": 0.15,
                "tempo": 120.0
            },
            {
                "start_time": 46.2068182,
                "end_time": 46.3568182,
                "pitch": 67,
                "velocity": 64,
                "duration": 0.15,
                "tempo": 120.0
            },
            {
                "start_time": 46.3590909,
                "end_time": 46.5090909,
                "pitch": 71,
                "velocity": 64,
                "duration": 0.15,
                "tempo": 120.0
            },
            {
                "start_time": 46.5090909,
                "end_time": 46.6613636,
                "pitch": 67,
                "velocity": 64,
                "duration": 0.1522727,
                "tempo": 120.0
            },
            {
                "start_time": 46.6613636,
                "end_time": 46.8113636,
                "pitch": 71,
                "velocity": 64,
                "duration": 0.15,
                "tempo": 120.0
            },
            {
                "start_time": 46.8136364,
                "end_time": 46.9636364,
                "pitch": 67,
                "velocity": 64,
                "duration": 0.15,
                "tempo": 120.0
            },
            {
                "start_time": 46.9659091,
                "end_time": 47.1159091,
                "pitch": 64,
                "velocity": 64,
                "duration": 0.15,
                "tempo": 120.0
            },
            {
                "start_time": 47.1181818,
                "end_time": 47.2681818,
                "pitch": 59,
                "velocity": 64,
                "duration": 0.15,
                "tempo": 120.0
            },
            {
                "start_time": 47.2704545,
                "end_time": 47.4204545,
                "pitch": 62,
                "velocity": 64,
                "duration": 0.15,
                "tempo": 120.0
            },
            {
                "start_time": 47.4204545,
                "end_time": 47.5704545,
                "pitch": 67,
                "velocity": 64,
                "duration": 0.15,
                "tempo": 120.0
            },
            {
                "start_time": 47.5727273,
                "end_time": 47.7227273,
                "pitch": 71,
                "velocity": 64,
                "duration": 0.15,
                "tempo": 120.0
            },
            {
                "start_time": 47.7227273,
                "end_time": 47.875,
                "pitch": 67,
                "velocity": 64,
                "duration": 0.1522727,
                "tempo": 120.0
            },
            {
                "start_time": 47.875,
                "end_time": 48.025,
                "pitch": 71,
                "velocity": 64,
                "duration": 0.15,
                "tempo": 120.0
            },
            {
                "start_time": 48.0272727,
                "end_time": 48.175,
                "pitch": 67,
                "velocity": 64,
                "duration": 0.1477273,
                "tempo": 120.0
            },
            {
                "start_time": 48.1772727,
                "end_time": 48.3272727,
                "pitch": 62,
                "velocity": 64,
                "duration": 0.15,
                "tempo": 120.0
            },
            {
                "start_time": 48.3295455,
                "end_time": 48.4772727,
                "pitch": 57,
                "velocity": 64,
                "duration": 0.1477273,
                "tempo": 120.0
            },
            {
                "start_time": 48.4795455,
                "end_time": 48.6272727,
                "pitch": 60,
                "velocity": 64,
                "duration": 0.1477273,
                "tempo": 120.0
            },
            {
                "start_time": 48.6295455,
                "end_time": 48.7795455,
                "pitch": 64,
                "velocity": 64,
                "duration": 0.15,
                "tempo": 120.0
            },
            {
                "start_time": 48.7818182,
                "end_time": 48.9318182,
                "pitch": 69,
                "velocity": 64,
                "duration": 0.15,
                "tempo": 120.0
            },
            {
                "start_time": 48.9340909,
                "end_time": 49.0863636,
                "pitch": 64,
                "velocity": 64,
                "duration": 0.1522727,
                "tempo": 120.0
            },
            {
                "start_time": 49.0886364,
                "end_time": 49.2386364,
                "pitch": 69,
                "velocity": 64,
                "duration": 0.15,
                "tempo": 120.0
            },
            {
                "start_time": 49.2409091,
                "end_time": 49.3909091,
                "pitch": 64,
                "velocity": 64,
                "duration": 0.15,
                "tempo": 120.0
            },
            {
                "start_time": 49.3931818,
                "end_time": 49.5431818,
                "pitch": 60,
                "velocity": 64,
                "duration": 0.15,
                "tempo": 120.0
            },
            {
                "start_time": 49.5454545,
                "end_time": 49.6954545,
                "pitch": 62,
                "velocity": 64,
                "duration": 0.15,
                "tempo": 120.0
            },
            {
                "start_time": 49.6977273,
                "end_time": 49.8477273,
                "pitch": 64,
                "velocity": 64,
                "duration": 0.15,
                "tempo": 120.0
            },
            {
                "start_time": 49.8477273,
                "end_time": 49.9977273,
                "pitch": 67,
                "velocity": 64,
                "duration": 0.15,
                "tempo": 120.0
            },
            {
                "start_time": 50.0,
                "end_time": 50.15,
                "pitch": 69,
                "velocity": 64,
                "duration": 0.15,
                "tempo": 120.0
            },
            {
                "start_time": 50.1522727,
                "end_time": 50.3022727,
                "pitch": 67,
                "velocity": 64,
                "duration": 0.15,
                "tempo": 120.0
            },
            {
                "start_time": 50.3022727,
                "end_time": 50.4522727,
                "pitch": 64,
                "velocity": 64,
                "duration": 0.15,
                "tempo": 120.0
            },
            {
                "start_time": 50.4545455,
                "end_time": 50.6045455,
                "pitch": 67,
                "velocity": 64,
                "duration": 0.15,
                "tempo": 120.0
            },
            {
                "start_time": 50.6068182,
                "end_time": 50.7568182,
                "pitch": 69,
                "velocity": 64,
                "duration": 0.15,
                "tempo": 120.0
            }
        ],
        "Electric Piano 1": [
            {
                "start_time": 0.0204545,
                "end_time": 0.1272727,
                "pitch": 55,
                "velocity": 80,
                "duration": 0.1068182,
                "tempo": 120.0
            },
            {
                "start_time": 0.3818182,
                "end_time": 1.1363636,
                "pitch": 57,
                "velocity": 80,
                "duration": 0.7545455,
                "tempo": 120.0
            },
            {
                "start_time": 1.1386364,
                "end_time": 1.2863636,
                "pitch": 57,
                "velocity": 80,
                "duration": 0.1477273,
                "tempo": 120.0
            },
            {
                "start_time": 1.5909091,
                "end_time": 2.35,
                "pitch": 59,
                "velocity": 80,
                "duration": 0.7590909,
                "tempo": 120.0
            },
            {
                "start_time": 2.3522727,
                "end_time": 2.5022727,
                "pitch": 59,
                "velocity": 80,
                "duration": 0.15,
                "tempo": 120.0
            },
            {
                "start_time": 2.8068182,
                "end_time": 3.5590909,
                "pitch": 60,
                "velocity": 80,
                "duration": 0.7522727,
                "tempo": 120.0
            },
            {
                "start_time": 3.5590909,
                "end_time": 3.7113636,
                "pitch": 62,
                "velocity": 80,
                "duration": 0.1522727,
                "tempo": 120.0
            },
            {
                "start_time": 4.0136364,
                "end_time": 4.7659091,
                "pitch": 64,
                "velocity": 80,
                "duration": 0.7522727,
                "tempo": 120.0
            },
            {
                "start_time": 4.7681818,
                "end_time": 4.9181818,
                "pitch": 55,
                "velocity": 80,
                "duration": 0.15,
                "tempo": 120.0
            },
            {
                "start_time": 5.225,
                "end_time": 5.9795455,
                "pitch": 57,
                "velocity": 80,
                "duration": 0.7545455,
                "tempo": 120.0
            },
            {
                "start_time": 5.9818182,
                "end_time": 6.1295455,
                "pitch": 57,
                "velocity": 80,
                "duration": 0.1477273,
                "tempo": 120.0
            },
            {
                "start_time": 6.4318182,
                "end_time": 7.1840909,
                "pitch": 59,
                "velocity": 80,
                "duration": 0.7522727,
                "tempo": 120.0
            },
            {
                "start_time": 7.1863636,
                "end_time": 7.3363636,
                "pitch": 59,
                "velocity": 80,
                "duration": 0.15,
                "tempo": 120.0
            },
            {
                "start_time": 7.6386364,
                "end_time": 8.3909091,
                "pitch": 60,
                "velocity": 80,
                "duration": 0.7522727,
                "tempo": 120.0
            },
            {
                "start_time": 8.3931818,
                "end_time": 8.5431818,
                "pitch": 62,
                "velocity": 80,
                "duration": 0.15,
                "tempo": 120.0
            },
            {
                "start_time": 8.8454545,
                "end_time": 8.9954545,
                "pitch": 63,
                "velocity": 80,
                "duration": 0.15,
                "tempo": 120.0
            },
            {
                "start_time": 9.2977273,
                "end_time": 12.0113636,
                "pitch": 64,
                "velocity": 80,
                "duration": 2.7136364,
                "tempo": 120.0
            },
            {
                "start_time": 12.0136364,
                "end_time": 12.1636364,
                "pitch": 57,
                "velocity": 101,
                "duration": 0.15,
                "tempo": 120.0
            },
            {
                "start_time": 12.1659091,
                "end_time": 12.3181818,
                "pitch": 59,
                "velocity": 101,
                "duration": 0.1522727,
                "tempo": 120.0
            },
            {
                "start_time": 12.3181818,
                "end_time": 12.4681818,
                "pitch": 60,
                "velocity": 101,
                "duration": 0.15,
                "tempo": 120.0
            },
            {
                "start_time": 12.4704545,
                "end_time": 12.9181818,
                "pitch": 62,
                "velocity": 101,
                "duration": 0.4477273,
                "tempo": 120.0
            },
            {
                "start_time": 12.9204545,
                "end_time": 13.0704545,
                "pitch": 60,
                "velocity": 101,
                "duration": 0.15,
                "tempo": 120.0
            },
            {
                "start_time": 13.0727273,
                "end_time": 13.2227273,
                "pitch": 59,
                "velocity": 101,
                "duration": 0.15,
                "tempo": 120.0
            },
            {
                "start_time": 13.225,
                "end_time": 13.3727273,
                "pitch": 60,
                "velocity": 101,
                "duration": 0.1477273,
                "tempo": 120.0
            },
            {
                "start_time": 13.375,
                "end_time": 13.525,
                "pitch": 62,
                "velocity": 101,
                "duration": 0.15,
                "tempo": 120.0
            },
            {
                "start_time": 13.5272727,
                "end_time": 13.675,
                "pitch": 65,
                "velocity": 101,
                "duration": 0.1477273,
                "tempo": 120.0
            },
            {
                "start_time": 13.6772727,
                "end_time": 14.4272727,
                "pitch": 64,
                "velocity": 101,
                "duration": 0.75,
                "tempo": 120.0
            },
            {
                "start_time": 14.4295455,
                "end_time": 14.5772727,
                "pitch": 57,
                "velocity": 101,
                "duration": 0.1477273,
                "tempo": 120.0
            },
            {
                "start_time": 14.5772727,
                "end_time": 14.7272727,
                "pitch": 59,
                "velocity": 101,
                "duration": 0.15,
                "tempo": 120.0
            },
            {
                "start_time": 14.7272727,
                "end_time": 14.8772727,
                "pitch": 60,
                "velocity": 101,
                "duration": 0.15,
                "tempo": 120.0
            },
            {
                "start_time": 14.8795455,
                "end_time": 15.3272727,
                "pitch": 62,
                "velocity": 101,
                "duration": 0.4477273,
                "tempo": 120.0
            },
            {
                "start_time": 15.3295455,
                "end_time": 15.4772727,
                "pitch": 60,
                "velocity": 101,
                "duration": 0.1477273,
                "tempo": 120.0
            },
            {
                "start_time": 15.4795455,
                "end_time": 15.6295455,
                "pitch": 59,
                "velocity": 101,
                "duration": 0.15,
                "tempo": 120.0
            },
            {
                "start_time": 15.6295455,
                "end_time": 15.7772727,
                "pitch": 60,
                "velocity": 101,
                "duration": 0.1477273,
                "tempo": 120.0
            },
            {
                "start_time": 15.7795455,
                "end_time": 15.9272727,
                "pitch": 62,
                "velocity": 101,
                "duration": 0.1477273,
                "tempo": 120.0
            },
            {
                "start_time": 15.9295455,
                "end_time": 16.0795455,
                "pitch": 65,
                "velocity": 101,
                "duration": 0.15,
                "tempo": 120.0
            },
            {
                "start_time": 16.0818182,
                "end_time": 16.8363636,
                "pitch": 64,
                "velocity": 101,
                "duration": 0.7545455,
                "tempo": 120.0
            },
            {
                "start_time": 16.8386364,
                "end_time": 16.9863636,
                "pitch": 64,
                "velocity": 101,
                "duration": 0.1477273,
                "tempo": 120.0
            },
            {
                "start_time": 16.9863636,
                "end_time": 17.1363636,
                "pitch": 62,
                "velocity": 101,
                "duration": 0.15,
                "tempo": 120.0
            },
            {
                "start_time": 17.1386364,
                "end_time": 17.2886364,
                "pitch": 60,
                "velocity": 101,
                "duration": 0.15,
                "tempo": 120.0
            },
            {
                "start_time": 17.2909091,
                "end_time": 17.5954545,
                "pitch": 62,
                "velocity": 101,
                "duration": 0.3045455,
                "tempo": 120.0
            },
            {
                "start_time": 17.5977273,
                "end_time": 17.7477273,
                "pitch": 60,
                "velocity": 101,
                "duration": 0.15,
                "tempo": 120.0
            },
            {
                "start_time": 17.75,
                "end_time": 18.05,
                "pitch": 59,
                "velocity": 101,
                "duration": 0.3,
                "tempo": 120.0
            },
            {
                "start_time": 18.0522727,
                "end_time": 18.2,
                "pitch": 60,
                "velocity": 101,
                "duration": 0.1477273,
                "tempo": 120.0
            },
            {
                "start_time": 18.2,
                "end_time": 18.35,
                "pitch": 59,
                "velocity": 101,
                "duration": 0.15,
                "tempo": 120.0
            },
            {
                "start_time": 18.3522727,
                "end_time": 18.5022727,
                "pitch": 57,
                "velocity": 101,
                "duration": 0.15,
                "tempo": 120.0
            },
            {
                "start_time": 18.5022727,
                "end_time": 18.8045455,
                "pitch": 59,
                "velocity": 101,
                "duration": 0.3022727,
                "tempo": 120.0
            },
            {
                "start_time": 18.8068182,
                "end_time": 18.9568182,
                "pitch": 57,
                "velocity": 101,
                "duration": 0.15,
                "tempo": 120.0
            },
            {
                "start_time": 18.9590909,
                "end_time": 19.2568182,
                "pitch": 55,
                "velocity": 101,
                "duration": 0.2977273,
                "tempo": 120.0
            },
            {
                "start_time": 19.5590909,
                "end_time": 19.7090909,
                "pitch": 57,
                "velocity": 101,
                "duration": 0.15,
                "tempo": 120.0
            },
            {
                "start_time": 19.8613636,
                "end_time": 20.3159091,
                "pitch": 60,
                "velocity": 101,
                "duration": 0.4545455,
                "tempo": 120.0
            },
            {
                "start_time": 20.3181818,
                "end_time": 20.4681818,
                "pitch": 62,
                "velocity": 101,
                "duration": 0.15,
                "tempo": 120.0
            },
            {
                "start_time": 20.6204545,
                "end_time": 20.7704545,
                "pitch": 62,
                "velocity": 101,
                "duration": 0.15,
                "tempo": 120.0
            },
            {
                "start_time": 20.9204545,
                "end_time": 21.0681818,
                "pitch": 62,
                "velocity": 101,
                "duration": 0.1477273,
                "tempo": 120.0
            },
            {
                "start_time": 21.0704545,
                "end_time": 21.3659091,
                "pitch": 65,
                "velocity": 101,
                "duration": 0.2954545,
                "tempo": 120.0
            },
            {
                "start_time": 21.3681818,
                "end_time": 21.5181818,
                "pitch": 64,
                "velocity": 101,
                "duration": 0.15,
                "tempo": 120.0
            },
            {
                "start_time": 21.675,
                "end_time": 21.825,
                "pitch": 57,
                "velocity": 101,
                "duration": 0.15,
                "tempo": 120.0
            },
            {
                "start_time": 21.8272727,
                "end_time": 21.9795455,
                "pitch": 59,
                "velocity": 101,
                "duration": 0.1522727,
                "tempo": 120.0
            },
            {
                "start_time": 21.9795455,
                "end_time": 22.1295455,
                "pitch": 60,
                "velocity": 101,
                "duration": 0.15,
                "tempo": 120.0
            },
            {
                "start_time": 22.1295455,
                "end_time": 22.5795455,
                "pitch": 62,
                "velocity": 101,
                "duration": 0.45,
                "tempo": 120.0
            },
            {
                "start_time": 22.5818182,
                "end_time": 22.7318182,
                "pitch": 60,
                "velocity": 101,
                "duration": 0.15,
                "tempo": 120.0
            },
            {
                "start_time": 22.7318182,
                "end_time": 22.8840909,
                "pitch": 59,
                "velocity": 101,
                "duration": 0.1522727,
                "tempo": 120.0
            },
            {
                "start_time": 22.8840909,
                "end_time": 23.0340909,
                "pitch": 60,
                "velocity": 101,
                "duration": 0.15,
                "tempo": 120.0
            },
            {
                "start_time": 23.0363636,
                "end_time": 23.1863636,
                "pitch": 62,
                "velocity": 101,
                "duration": 0.15,
                "tempo": 120.0
            },
            {
                "start_time": 23.1886364,
                "end_time": 23.3386364,
                "pitch": 65,
                "velocity": 101,
                "duration": 0.15,
                "tempo": 120.0
            },
            {
                "start_time": 23.3386364,
                "end_time": 24.0931818,
                "pitch": 64,
                "velocity": 101,
                "duration": 0.7545455,
                "tempo": 120.0
            },
            {
                "start_time": 24.0954545,
                "end_time": 24.2431818,
                "pitch": 57,
                "velocity": 101,
                "duration": 0.1477273,
                "tempo": 120.0
            },
            {
                "start_time": 24.2454545,
                "end_time": 24.3931818,
                "pitch": 59,
                "velocity": 101,
                "duration": 0.1477273,
                "tempo": 120.0
            },
            {
                "start_time": 24.3954545,
                "end_time": 24.5454545,
                "pitch": 60,
                "velocity": 101,
                "duration": 0.15,
                "tempo": 120.0
            },
            {
                "start_time": 24.5477273,
                "end_time": 25.0,
                "pitch": 62,
                "velocity": 101,
                "duration": 0.4522727,
                "tempo": 120.0
            },
            {
                "start_time": 25.0022727,
                "end_time": 25.1545455,
                "pitch": 60,
                "velocity": 101,
                "duration": 0.1522727,
                "tempo": 120.0
            },
            {
                "start_time": 25.1568182,
                "end_time": 25.3068182,
                "pitch": 59,
                "velocity": 101,
                "duration": 0.15,
                "tempo": 120.0
            },
            {
                "start_time": 25.3090909,
                "end_time": 25.4613636,
                "pitch": 60,
                "velocity": 101,
                "duration": 0.1522727,
                "tempo": 120.0
            },
            {
                "start_time": 25.4613636,
                "end_time": 25.6136364,
                "pitch": 62,
                "velocity": 101,
                "duration": 0.1522727,
                "tempo": 120.0
            },
            {
                "start_time": 25.6159091,
                "end_time": 25.7636364,
                "pitch": 65,
                "velocity": 101,
                "duration": 0.1477273,
                "tempo": 120.0
            },
            {
                "start_time": 25.7659091,
                "end_time": 26.5181818,
                "pitch": 64,
                "velocity": 101,
                "duration": 0.7522727,
                "tempo": 120.0
            },
            {
                "start_time": 26.5204545,
                "end_time": 26.6704545,
                "pitch": 64,
                "velocity": 101,
                "duration": 0.15,
                "tempo": 120.0
            },
            {
                "start_time": 26.6704545,
                "end_time": 26.8204545,
                "pitch": 62,
                "velocity": 101,
                "duration": 0.15,
                "tempo": 120.0
            },
            {
                "start_time": 26.8227273,
                "end_time": 26.9727273,
                "pitch": 60,
                "velocity": 101,
                "duration": 0.15,
                "tempo": 120.0
            },
            {
                "start_time": 26.975,
                "end_time": 27.2772727,
                "pitch": 62,
                "velocity": 101,
                "duration": 0.3022727,
                "tempo": 120.0
            },
            {
                "start_time": 27.2772727,
                "end_time": 27.4272727,
                "pitch": 60,
                "velocity": 101,
                "duration": 0.15,
                "tempo": 120.0
            },
            {
                "start_time": 27.4295455,
                "end_time": 27.7295455,
                "pitch": 59,
                "velocity": 101,
                "duration": 0.3,
                "tempo": 120.0
            },
            {
                "start_time": 27.7318182,
                "end_time": 27.8795455,
                "pitch": 60,
                "velocity": 101,
                "duration": 0.1477273,
                "tempo": 120.0
            },
            {
                "start_time": 27.8795455,
                "end_time": 28.0295455,
                "pitch": 59,
                "velocity": 101,
                "duration": 0.15,
                "tempo": 120.0
            },
            {
                "start_time": 28.0318182,
                "end_time": 28.1818182,
                "pitch": 57,
                "velocity": 101,
                "duration": 0.15,
                "tempo": 120.0
            },
            {
                "start_time": 28.1818182,
                "end_time": 28.4840909,
                "pitch": 59,
                "velocity": 101,
                "duration": 0.3022727,
                "tempo": 120.0
            },
            {
                "start_time": 28.4863636,
                "end_time": 28.6363636,
                "pitch": 57,
                "velocity": 101,
                "duration": 0.15,
                "tempo": 120.0
            },
            {
                "start_time": 28.6363636,
                "end_time": 28.9363636,
                "pitch": 55,
                "velocity": 101,
                "duration": 0.3,
                "tempo": 120.0
            },
            {
                "start_time": 28.9386364,
                "end_time": 29.0863636,
                "pitch": 57,
                "velocity": 101,
                "duration": 0.1477273,
                "tempo": 120.0
            },
            {
                "start_time": 29.0886364,
                "end_time": 29.2363636,
                "pitch": 59,
                "velocity": 101,
                "duration": 0.1477273,
                "tempo": 120.0
            },
            {
                "start_time": 29.2386364,
                "end_time": 29.3886364,
                "pitch": 57,
                "velocity": 101,
                "duration": 0.15,
                "tempo": 120.0
            },
            {
                "start_time": 29.3909091,
                "end_time": 29.6909091,
                "pitch": 55,
                "velocity": 101,
                "duration": 0.3,
                "tempo": 120.0
            },
            {
                "start_time": 29.6931818,
                "end_time": 29.8431818,
                "pitch": 59,
                "velocity": 101,
                "duration": 0.15,
                "tempo": 120.0
            },
            {
                "start_time": 29.8454545,
                "end_time": 29.9954545,
                "pitch": 57,
                "velocity": 101,
                "duration": 0.15,
                "tempo": 120.0
            },
            {
                "start_time": 30.15,
                "end_time": 30.2136364,
                "pitch": 87,
                "velocity": 80,
                "duration": 0.0636364,
                "tempo": 120.0
            },
            {
                "start_time": 30.2159091,
                "end_time": 30.2818182,
                "pitch": 63,
                "velocity": 80,
                "duration": 0.0659091,
                "tempo": 120.0
            },
            {
                "start_time": 30.2818182,
                "end_time": 30.2977273,
                "pitch": 61,
                "velocity": 80,
                "duration": 0.0159091,
                "tempo": 120.0
            },
            {
                "start_time": 30.3,
                "end_time": 30.3159091,
                "pitch": 49,
                "velocity": 80,
                "duration": 0.0159091,
                "tempo": 120.0
            },
            {
                "start_time": 30.3159091,
                "end_time": 30.3840909,
                "pitch": 51,
                "velocity": 80,
                "duration": 0.0681818,
                "tempo": 120.0
            },
            {
                "start_time": 30.3840909,
                "end_time": 30.4,
                "pitch": 49,
                "velocity": 80,
                "duration": 0.0159091,
                "tempo": 120.0
            },
            {
                "start_time": 30.4,
                "end_time": 30.45,
                "pitch": 51,
                "velocity": 80,
                "duration": 0.05,
                "tempo": 120.0
            },
            {
                "start_time": 30.6022727,
                "end_time": 30.6681818,
                "pitch": 87,
                "velocity": 80,
                "duration": 0.0659091,
                "tempo": 120.0
            },
            {
                "start_time": 30.6681818,
                "end_time": 30.7340909,
                "pitch": 63,
                "velocity": 80,
                "duration": 0.0659091,
                "tempo": 120.0
            },
            {
                "start_time": 30.7340909,
                "end_time": 30.75,
                "pitch": 61,
                "velocity": 80,
                "duration": 0.0159091,
                "tempo": 120.0
            },
            {
                "start_time": 30.7522727,
                "end_time": 30.8181818,
                "pitch": 51,
                "velocity": 80,
                "duration": 0.0659091,
                "tempo": 120.0
            },
            {
                "start_time": 30.8181818,
                "end_time": 30.9,
                "pitch": 49,
                "velocity": 80,
                "duration": 0.0818182,
                "tempo": 120.0
            },
            {
                "start_time": 31.0522727,
                "end_time": 31.1181818,
                "pitch": 86,
                "velocity": 80,
                "duration": 0.0659091,
                "tempo": 120.0
            },
            {
                "start_time": 31.1204545,
                "end_time": 31.1863636,
                "pitch": 63,
                "velocity": 80,
                "duration": 0.0659091,
                "tempo": 120.0
            },
            {
                "start_time": 31.1863636,
                "end_time": 31.2022727,
                "pitch": 61,
                "velocity": 80,
                "duration": 0.0159091,
                "tempo": 120.0
            },
            {
                "start_time": 31.2045455,
                "end_time": 31.2704545,
                "pitch": 51,
                "velocity": 80,
                "duration": 0.0659091,
                "tempo": 120.0
            },
            {
                "start_time": 31.2704545,
                "end_time": 31.2886364,
                "pitch": 49,
                "velocity": 80,
                "duration": 0.0181818,
                "tempo": 120.0
            },
            {
                "start_time": 31.2886364,
                "end_time": 31.3545455,
                "pitch": 51,
                "velocity": 80,
                "duration": 0.0659091,
                "tempo": 120.0
            },
            {
                "start_time": 31.3568182,
                "end_time": 31.5068182,
                "pitch": 69,
                "velocity": 80,
                "duration": 0.15,
                "tempo": 120.0
            },
            {
                "start_time": 31.5068182,
                "end_time": 31.6568182,
                "pitch": 71,
                "velocity": 80,
                "duration": 0.15,
                "tempo": 120.0
            },
            {
                "start_time": 31.6590909,
                "end_time": 31.8090909,
                "pitch": 71,
                "velocity": 80,
                "duration": 0.15,
                "tempo": 120.0
            },
            {
                "start_time": 31.8090909,
                "end_time": 31.9590909,
                "pitch": 71,
                "velocity": 80,
                "duration": 0.15,
                "tempo": 120.0
            },
            {
                "start_time": 31.9590909,
                "end_time": 32.1090909,
                "pitch": 69,
                "velocity": 80,
                "duration": 0.15,
                "tempo": 120.0
            },
            {
                "start_time": 32.1090909,
                "end_time": 32.2590909,
                "pitch": 71,
                "velocity": 80,
                "duration": 0.15,
                "tempo": 120.0
            },
            {
                "start_time": 32.2590909,
                "end_time": 32.4113636,
                "pitch": 71,
                "velocity": 80,
                "duration": 0.1522727,
                "tempo": 120.0
            },
            {
                "start_time": 32.4113636,
                "end_time": 32.5636364,
                "pitch": 71,
                "velocity": 80,
                "duration": 0.1522727,
                "tempo": 120.0
            },
            {
                "start_time": 32.5636364,
                "end_time": 32.7136364,
                "pitch": 69,
                "velocity": 80,
                "duration": 0.15,
                "tempo": 120.0
            },
            {
                "start_time": 32.7136364,
                "end_time": 32.8659091,
                "pitch": 71,
                "velocity": 80,
                "duration": 0.1522727,
                "tempo": 120.0
            },
            {
                "start_time": 32.8659091,
                "end_time": 33.0181818,
                "pitch": 71,
                "velocity": 80,
                "duration": 0.1522727,
                "tempo": 120.0
            },
            {
                "start_time": 33.0181818,
                "end_time": 33.1681818,
                "pitch": 71,
                "velocity": 80,
                "duration": 0.15,
                "tempo": 120.0
            },
            {
                "start_time": 33.1704545,
                "end_time": 33.3204545,
                "pitch": 74,
                "velocity": 80,
                "duration": 0.15,
                "tempo": 120.0
            },
            {
                "start_time": 33.3204545,
                "end_time": 33.4727273,
                "pitch": 72,
                "velocity": 80,
                "duration": 0.1522727,
                "tempo": 120.0
            },
            {
                "start_time": 33.4727273,
                "end_time": 33.625,
                "pitch": 71,
                "velocity": 80,
                "duration": 0.1522727,
                "tempo": 120.0
            },
            {
                "start_time": 33.6272727,
                "end_time": 33.7795455,
                "pitch": 67,
                "velocity": 80,
                "duration": 0.1522727,
                "tempo": 120.0
            },
            {
                "start_time": 33.7795455,
                "end_time": 33.9318182,
                "pitch": 67,
                "velocity": 80,
                "duration": 0.1522727,
                "tempo": 120.0
            },
            {
                "start_time": 33.9340909,
                "end_time": 34.0863636,
                "pitch": 69,
                "velocity": 80,
                "duration": 0.1522727,
                "tempo": 120.0
            },
            {
                "start_time": 34.0863636,
                "end_time": 34.2363636,
                "pitch": 69,
                "velocity": 80,
                "duration": 0.15,
                "tempo": 120.0
            },
            {
                "start_time": 34.2386364,
                "end_time": 34.3886364,
                "pitch": 69,
                "velocity": 80,
                "duration": 0.15,
                "tempo": 120.0
            },
            {
                "start_time": 34.3909091,
                "end_time": 34.5409091,
                "pitch": 67,
                "velocity": 80,
                "duration": 0.15,
                "tempo": 120.0
            },
            {
                "start_time": 34.5409091,
                "end_time": 34.6931818,
                "pitch": 69,
                "velocity": 80,
                "duration": 0.1522727,
                "tempo": 120.0
            },
            {
                "start_time": 34.6931818,
                "end_time": 34.8431818,
                "pitch": 69,
                "velocity": 80,
                "duration": 0.15,
                "tempo": 120.0
            },
            {
                "start_time": 34.8454545,
                "end_time": 34.9954545,
                "pitch": 69,
                "velocity": 80,
                "duration": 0.15,
                "tempo": 120.0
            },
            {
                "start_time": 34.9977273,
                "end_time": 35.1477273,
                "pitch": 67,
                "velocity": 80,
                "duration": 0.15,
                "tempo": 120.0
            },
            {
                "start_time": 35.1477273,
                "end_time": 35.3,
                "pitch": 69,
                "velocity": 80,
                "duration": 0.1522727,
                "tempo": 120.0
            },
            {
                "start_time": 35.3,
                "end_time": 35.45,
                "pitch": 69,
                "velocity": 80,
                "duration": 0.15,
                "tempo": 120.0
            },
            {
                "start_time": 35.45,
                "end_time": 35.6,
                "pitch": 69,
                "velocity": 80,
                "duration": 0.15,
                "tempo": 120.0
            },
            {
                "start_time": 35.6,
                "end_time": 35.75,
                "pitch": 67,
                "velocity": 80,
                "duration": 0.15,
                "tempo": 120.0
            },
            {
                "start_time": 35.75,
                "end_time": 35.9,
                "pitch": 64,
                "velocity": 80,
                "duration": 0.15,
                "tempo": 120.0
            },
            {
                "start_time": 35.9,
                "end_time": 36.0522727,
                "pitch": 67,
                "velocity": 80,
                "duration": 0.1522727,
                "tempo": 120.0
            },
            {
                "start_time": 36.0522727,
                "end_time": 36.2045455,
                "pitch": 69,
                "velocity": 80,
                "duration": 0.1522727,
                "tempo": 120.0
            },
            {
                "start_time": 36.2045455,
                "end_time": 36.3545455,
                "pitch": 69,
                "velocity": 80,
                "duration": 0.15,
                "tempo": 120.0
            },
            {
                "start_time": 36.3568182,
                "end_time": 36.5068182,
                "pitch": 71,
                "velocity": 80,
                "duration": 0.15,
                "tempo": 120.0
            },
            {
                "start_time": 36.5068182,
                "end_time": 36.6590909,
                "pitch": 71,
                "velocity": 80,
                "duration": 0.1522727,
                "tempo": 120.0
            },
            {
                "start_time": 36.6590909,
                "end_time": 36.8090909,
                "pitch": 71,
                "velocity": 80,
                "duration": 0.15,
                "tempo": 120.0
            },
            {
                "start_time": 36.8113636,
                "end_time": 36.9613636,
                "pitch": 69,
                "velocity": 80,
                "duration": 0.15,
                "tempo": 120.0
            },
            {
                "start_time": 36.9636364,
                "end_time": 37.1136364,
                "pitch": 71,
                "velocity": 80,
                "duration": 0.15,
                "tempo": 120.0
            },
            {
                "start_time": 37.1136364,
                "end_time": 37.2659091,
                "pitch": 71,
                "velocity": 80,
                "duration": 0.1522727,
                "tempo": 120.0
            },
            {
                "start_time": 37.2659091,
                "end_time": 37.4181818,
                "pitch": 71,
                "velocity": 80,
                "duration": 0.1522727,
                "tempo": 120.0
            },
            {
                "start_time": 37.4181818,
                "end_time": 37.5681818,
                "pitch": 69,
                "velocity": 80,
                "duration": 0.15,
                "tempo": 120.0
            },
            {
                "start_time": 37.5704545,
                "end_time": 37.7204545,
                "pitch": 71,
                "velocity": 80,
                "duration": 0.15,
                "tempo": 120.0
            },
            {
                "start_time": 37.7204545,
                "end_time": 37.8727273,
                "pitch": 71,
                "velocity": 80,
                "duration": 0.1522727,
                "tempo": 120.0
            },
            {
                "start_time": 37.8727273,
                "end_time": 38.025,
                "pitch": 71,
                "velocity": 80,
                "duration": 0.1522727,
                "tempo": 120.0
            },
            {
                "start_time": 38.025,
                "end_time": 38.175,
                "pitch": 74,
                "velocity": 80,
                "duration": 0.15,
                "tempo": 120.0
            },
            {
                "start_time": 38.1772727,
                "end_time": 38.3272727,
                "pitch": 72,
                "velocity": 80,
                "duration": 0.15,
                "tempo": 120.0
            },
            {
                "start_time": 38.3272727,
                "end_time": 38.4772727,
                "pitch": 71,
                "velocity": 80,
                "duration": 0.15,
                "tempo": 120.0
            },
            {
                "start_time": 38.4772727,
                "end_time": 38.6272727,
                "pitch": 67,
                "velocity": 80,
                "duration": 0.15,
                "tempo": 120.0
            },
            {
                "start_time": 38.6295455,
                "end_time": 38.7772727,
                "pitch": 67,
                "velocity": 80,
                "duration": 0.1477273,
                "tempo": 120.0
            },
            {
                "start_time": 38.7795455,
                "end_time": 38.9272727,
                "pitch": 69,
                "velocity": 80,
                "duration": 0.1477273,
                "tempo": 120.0
            },
            {
                "start_time": 38.9295455,
                "end_time": 39.0795455,
                "pitch": 69,
                "velocity": 80,
                "duration": 0.15,
                "tempo": 120.0
            },
            {
                "start_time": 39.0795455,
                "end_time": 39.2318182,
                "pitch": 69,
                "velocity": 80,
                "duration": 0.1522727,
                "tempo": 120.0
            },
            {
                "start_time": 39.2318182,
                "end_time": 39.3840909,
                "pitch": 67,
                "velocity": 80,
                "duration": 0.1522727,
                "tempo": 120.0
            },
            {
                "start_time": 39.3840909,
                "end_time": 39.5340909,
                "pitch": 69,
                "velocity": 80,
                "duration": 0.15,
                "tempo": 120.0
            },
            {
                "start_time": 39.5363636,
                "end_time": 39.6863636,
                "pitch": 69,
                "velocity": 80,
                "duration": 0.15,
                "tempo": 120.0
            },
            {
                "start_time": 39.6863636,
                "end_time": 39.8386364,
                "pitch": 69,
                "velocity": 80,
                "duration": 0.1522727,
                "tempo": 120.0
            },
            {
                "start_time": 39.8386364,
                "end_time": 39.9909091,
                "pitch": 67,
                "velocity": 80,
                "duration": 0.1522727,
                "tempo": 120.0
            },
            {
                "start_time": 39.9909091,
                "end_time": 40.1409091,
                "pitch": 69,
                "velocity": 80,
                "duration": 0.15,
                "tempo": 120.0
            },
            {
                "start_time": 40.1431818,
                "end_time": 40.2931818,
                "pitch": 69,
                "velocity": 80,
                "duration": 0.15,
                "tempo": 120.0
            },
            {
                "start_time": 40.2931818,
                "end_time": 40.4454545,
                "pitch": 69,
                "velocity": 80,
                "duration": 0.1522727,
                "tempo": 120.0
            },
            {
                "start_time": 40.4454545,
                "end_time": 40.5977273,
                "pitch": 67,
                "velocity": 80,
                "duration": 0.1522727,
                "tempo": 120.0
            },
            {
                "start_time": 40.5977273,
                "end_time": 40.7477273,
                "pitch": 69,
                "velocity": 80,
                "duration": 0.15,
                "tempo": 120.0
            },
            {
                "start_time": 40.75,
                "end_time": 40.9022727,
                "pitch": 71,
                "velocity": 80,
                "duration": 0.1522727,
                "tempo": 120.0
            },
            {
                "start_time": 40.9022727,
                "end_time": 41.0545455,
                "pitch": 69,
                "velocity": 80,
                "duration": 0.1522727,
                "tempo": 120.0
            },
            {
                "start_time": 41.0568182,
                "end_time": 41.2090909,
                "pitch": 76,
                "velocity": 64,
                "duration": 0.1522727,
                "tempo": 120.0
            },
            {
                "start_time": 41.2090909,
                "end_time": 41.3613636,
                "pitch": 74,
                "velocity": 64,
                "duration": 0.1522727,
                "tempo": 120.0
            },
            {
                "start_time": 41.3636364,
                "end_time": 41.5136364,
                "pitch": 72,
                "velocity": 64,
                "duration": 0.15,
                "tempo": 120.0
            },
            {
                "start_time": 41.5136364,
                "end_time": 42.2704545,
                "pitch": 71,
                "velocity": 64,
                "duration": 0.7568182,
                "tempo": 120.0
            },
            {
                "start_time": 42.2704545,
                "end_time": 42.4181818,
                "pitch": 74,
                "velocity": 64,
                "duration": 0.1477273,
                "tempo": 120.0
            },
            {
                "start_time": 42.4204545,
                "end_time": 42.5681818,
                "pitch": 72,
                "velocity": 64,
                "duration": 0.1477273,
                "tempo": 120.0
            },
            {
                "start_time": 42.5704545,
                "end_time": 42.7204545,
                "pitch": 71,
                "velocity": 64,
                "duration": 0.15,
                "tempo": 120.0
            },
            {
                "start_time": 42.7227273,
                "end_time": 43.1931818,
                "pitch": 67,
                "velocity": 64,
                "duration": 0.4704545,
                "tempo": 120.0
            },
            {
                "start_time": 43.1931818,
                "end_time": 43.2613636,
                "pitch": 67,
                "velocity": 64,
                "duration": 0.0681818,
                "tempo": 120.0
            },
            {
                "start_time": 43.2613636,
                "end_time": 43.3954545,
                "pitch": 67,
                "velocity": 64,
                "duration": 0.1340909,
                "tempo": 120.0
            },
            {
                "start_time": 43.1931818,
                "end_time": 43.3954545,
                "pitch": 79,
                "velocity": 64,
                "duration": 0.2022727,
                "tempo": 120.0
            },
            {
                "start_time": 43.2613636,
                "end_time": 43.4636364,
                "pitch": 55,
                "velocity": 64,
                "duration": 0.2022727,
                "tempo": 120.0
            },
            {
                "start_time": 43.3954545,
                "end_time": 43.4636364,
                "pitch": 67,
                "velocity": 64,
                "duration": 0.0681818,
                "tempo": 120.0
            },
            {
                "start_time": 43.4636364,
                "end_time": 43.4795455,
                "pitch": 67,
                "velocity": 64,
                "duration": 0.0159091,
                "tempo": 120.0
            },
            {
                "start_time": 43.4818182,
                "end_time": 43.6318182,
                "pitch": 67,
                "velocity": 64,
                "duration": 0.15,
                "tempo": 120.0
            },
            {
                "start_time": 43.6318182,
                "end_time": 43.7818182,
                "pitch": 69,
                "velocity": 64,
                "duration": 0.15,
                "tempo": 120.0
            },
            {
                "start_time": 43.7840909,
                "end_time": 43.9340909,
                "pitch": 72,
                "velocity": 64,
                "duration": 0.15,
                "tempo": 120.0
            },
            {
                "start_time": 43.9363636,
                "end_time": 44.6931818,
                "pitch": 74,
                "velocity": 64,
                "duration": 0.7568182,
                "tempo": 120.0
            },
            {
                "start_time": 44.6954545,
                "end_time": 44.8454545,
                "pitch": 74,
                "velocity": 64,
                "duration": 0.15,
                "tempo": 120.0
            },
            {
                "start_time": 44.8454545,
                "end_time": 44.9977273,
                "pitch": 76,
                "velocity": 64,
                "duration": 0.1522727,
                "tempo": 120.0
            },
            {
                "start_time": 43.3954545,
                "end_time": 45.1477273,
                "pitch": 79,
                "velocity": 64,
                "duration": 1.7522727,
                "tempo": 120.0
            },
            {
                "start_time": 44.9977273,
                "end_time": 45.1477273,
                "pitch": 79,
                "velocity": 64,
                "duration": 0.15,
                "tempo": 120.0
            },
            {
                "start_time": 45.1477273,
                "end_time": 45.9022727,
                "pitch": 81,
                "velocity": 64,
                "duration": 0.7545455,
                "tempo": 120.0
            },
            {
                "start_time": 45.9022727,
                "end_time": 46.0522727,
                "pitch": 76,
                "velocity": 64,
                "duration": 0.15,
                "tempo": 120.0
            },
            {
                "start_time": 46.0545455,
                "end_time": 46.2045455,
                "pitch": 74,
                "velocity": 64,
                "duration": 0.15,
                "tempo": 120.0
            },
            {
                "start_time": 46.2068182,
                "end_time": 46.3568182,
                "pitch": 72,
                "velocity": 64,
                "duration": 0.15,
                "tempo": 120.0
            },
            {
                "start_time": 46.3568182,
                "end_time": 47.1159091,
                "pitch": 71,
                "velocity": 64,
                "duration": 0.7590909,
                "tempo": 120.0
            },
            {
                "start_time": 47.1159091,
                "end_time": 47.2659091,
                "pitch": 74,
                "velocity": 64,
                "duration": 0.15,
                "tempo": 120.0
            },
            {
                "start_time": 47.2681818,
                "end_time": 47.4181818,
                "pitch": 72,
                "velocity": 64,
                "duration": 0.15,
                "tempo": 120.0
            },
            {
                "start_time": 47.4204545,
                "end_time": 47.5704545,
                "pitch": 71,
                "velocity": 64,
                "duration": 0.15,
                "tempo": 120.0
            },
            {
                "start_time": 47.5704545,
                "end_time": 48.0431818,
                "pitch": 67,
                "velocity": 64,
                "duration": 0.4727273,
                "tempo": 120.0
            },
            {
                "start_time": 43.4636364,
                "end_time": 48.1090909,
                "pitch": 55,
                "velocity": 64,
                "duration": 4.6454545,
                "tempo": 120.0
            },
            {
                "start_time": 48.0431818,
                "end_time": 48.1090909,
                "pitch": 67,
                "velocity": 64,
                "duration": 0.0659091,
                "tempo": 120.0
            },
            {
                "start_time": 48.1090909,
                "end_time": 48.2431818,
                "pitch": 67,
                "velocity": 64,
                "duration": 0.1340909,
                "tempo": 120.0
            },
            {
                "start_time": 48.0431818,
                "end_time": 48.2431818,
                "pitch": 79,
                "velocity": 64,
                "duration": 0.2,
                "tempo": 120.0
            },
            {
                "start_time": 48.1090909,
                "end_time": 48.3090909,
                "pitch": 55,
                "velocity": 64,
                "duration": 0.2,
                "tempo": 120.0
            },
            {
                "start_time": 48.2431818,
                "end_time": 48.3090909,
                "pitch": 67,
                "velocity": 64,
                "duration": 0.0659091,
                "tempo": 120.0
            },
            {
                "start_time": 48.3090909,
                "end_time": 48.325,
                "pitch": 67,
                "velocity": 64,
                "duration": 0.0159091,
                "tempo": 120.0
            },
            {
                "start_time": 48.3272727,
                "end_time": 48.475,
                "pitch": 67,
                "velocity": 64,
                "duration": 0.1477273,
                "tempo": 120.0
            },
            {
                "start_time": 48.4772727,
                "end_time": 48.625,
                "pitch": 69,
                "velocity": 64,
                "duration": 0.1477273,
                "tempo": 120.0
            },
            {
                "start_time": 48.6272727,
                "end_time": 48.7795455,
                "pitch": 72,
                "velocity": 64,
                "duration": 0.1522727,
                "tempo": 120.0
            },
            {
                "start_time": 48.7795455,
                "end_time": 49.5409091,
                "pitch": 74,
                "velocity": 64,
                "duration": 0.7613636,
                "tempo": 120.0
            },
            {
                "start_time": 49.5431818,
                "end_time": 49.6931818,
                "pitch": 74,
                "velocity": 64,
                "duration": 0.15,
                "tempo": 120.0
            },
            {
                "start_time": 49.6954545,
                "end_time": 49.8454545,
                "pitch": 76,
                "velocity": 64,
                "duration": 0.15,
                "tempo": 120.0
            },
            {
                "start_time": 48.2431818,
                "end_time": 49.9977273,
                "pitch": 79,
                "velocity": 64,
                "duration": 1.7545455,
                "tempo": 120.0
            },
            {
                "start_time": 49.8477273,
                "end_time": 49.9977273,
                "pitch": 79,
                "velocity": 64,
                "duration": 0.15,
                "tempo": 120.0
            },
            {
                "start_time": 49.9977273,
                "end_time": 50.7568182,
                "pitch": 81,
                "velocity": 64,
                "duration": 0.7590909,
                "tempo": 120.0
            }
        ],
        "Lead 2 (sawtooth)": [
            {
                "start_time": 21.6772727,
                "end_time": 22.2795455,
                "pitch": 48,
                "velocity": 80,
                "duration": 0.6022727,
                "tempo": 120.0
            },
            {
                "start_time": 22.2818182,
                "end_time": 22.8840909,
                "pitch": 50,
                "velocity": 80,
                "duration": 0.6022727,
                "tempo": 120.0
            },
            {
                "start_time": 22.8863636,
                "end_time": 23.3409091,
                "pitch": 52,
                "velocity": 80,
                "duration": 0.4545455,
                "tempo": 120.0
            },
            {
                "start_time": 23.3409091,
                "end_time": 23.7954545,
                "pitch": 53,
                "velocity": 80,
                "duration": 0.4545455,
                "tempo": 120.0
            },
            {
                "start_time": 23.7954545,
                "end_time": 24.0954545,
                "pitch": 55,
                "velocity": 80,
                "duration": 0.3,
                "tempo": 120.0
            },
            {
                "start_time": 24.0977273,
                "end_time": 24.6977273,
                "pitch": 48,
                "velocity": 80,
                "duration": 0.6,
                "tempo": 120.0
            },
            {
                "start_time": 24.7,
                "end_time": 25.3090909,
                "pitch": 50,
                "velocity": 80,
                "duration": 0.6090909,
                "tempo": 120.0
            },
            {
                "start_time": 25.3113636,
                "end_time": 25.7659091,
                "pitch": 52,
                "velocity": 80,
                "duration": 0.4545455,
                "tempo": 120.0
            },
            {
                "start_time": 25.7681818,
                "end_time": 26.2159091,
                "pitch": 53,
                "velocity": 80,
                "duration": 0.4477273,
                "tempo": 120.0
            },
            {
                "start_time": 26.2181818,
                "end_time": 26.5204545,
                "pitch": 55,
                "velocity": 80,
                "duration": 0.3022727,
                "tempo": 120.0
            },
            {
                "start_time": 26.5227273,
                "end_time": 27.125,
                "pitch": 50,
                "velocity": 80,
                "duration": 0.6022727,
                "tempo": 120.0
            },
            {
                "start_time": 27.1272727,
                "end_time": 27.7318182,
                "pitch": 52,
                "velocity": 80,
                "duration": 0.6045455,
                "tempo": 120.0
            },
            {
                "start_time": 27.7318182,
                "end_time": 28.1818182,
                "pitch": 53,
                "velocity": 80,
                "duration": 0.45,
                "tempo": 120.0
            },
            {
                "start_time": 28.1840909,
                "end_time": 28.6045455,
                "pitch": 55,
                "velocity": 80,
                "duration": 0.4204545,
                "tempo": 120.0
            },
            {
                "start_time": 28.6045455,
                "end_time": 28.6386364,
                "pitch": 55,
                "velocity": 80,
                "duration": 0.0340909,
                "tempo": 120.0
            },
            {
                "start_time": 28.6386364,
                "end_time": 28.9386364,
                "pitch": 53,
                "velocity": 80,
                "duration": 0.3,
                "tempo": 120.0
            },
            {
                "start_time": 28.9386364,
                "end_time": 29.0886364,
                "pitch": 57,
                "velocity": 80,
                "duration": 0.15,
                "tempo": 120.0
            },
            {
                "start_time": 29.0909091,
                "end_time": 29.2386364,
                "pitch": 59,
                "velocity": 80,
                "duration": 0.1477273,
                "tempo": 120.0
            },
            {
                "start_time": 29.2409091,
                "end_time": 29.3909091,
                "pitch": 57,
                "velocity": 80,
                "duration": 0.15,
                "tempo": 120.0
            },
            {
                "start_time": 29.3909091,
                "end_time": 29.6931818,
                "pitch": 55,
                "velocity": 80,
                "duration": 0.3022727,
                "tempo": 120.0
            },
            {
                "start_time": 29.6954545,
                "end_time": 29.8454545,
                "pitch": 59,
                "velocity": 80,
                "duration": 0.15,
                "tempo": 120.0
            },
            {
                "start_time": 29.8477273,
                "end_time": 29.9954545,
                "pitch": 57,
                "velocity": 80,
                "duration": 0.1477273,
                "tempo": 120.0
            }
        ],
        "Vibraphone": [
            {
                "start_time": 31.3590909,
                "end_time": 31.5068182,
                "pitch": 64,
                "velocity": 80,
                "duration": 0.1477273,
                "tempo": 120.0
            },
            {
                "start_time": 31.5090909,
                "end_time": 31.6590909,
                "pitch": 64,
                "velocity": 80,
                "duration": 0.15,
                "tempo": 120.0
            },
            {
                "start_time": 31.6613636,
                "end_time": 31.8090909,
                "pitch": 64,
                "velocity": 80,
                "duration": 0.1477273,
                "tempo": 120.0
            },
            {
                "start_time": 31.8113636,
                "end_time": 31.9590909,
                "pitch": 64,
                "velocity": 80,
                "duration": 0.1477273,
                "tempo": 120.0
            },
            {
                "start_time": 31.9613636,
                "end_time": 32.1090909,
                "pitch": 64,
                "velocity": 80,
                "duration": 0.1477273,
                "tempo": 120.0
            },
            {
                "start_time": 32.1113636,
                "end_time": 32.2590909,
                "pitch": 64,
                "velocity": 80,
                "duration": 0.1477273,
                "tempo": 120.0
            },
            {
                "start_time": 32.2613636,
                "end_time": 32.4113636,
                "pitch": 64,
                "velocity": 80,
                "duration": 0.15,
                "tempo": 120.0
            },
            {
                "start_time": 32.4136364,
                "end_time": 32.5636364,
                "pitch": 64,
                "velocity": 80,
                "duration": 0.15,
                "tempo": 120.0
            },
            {
                "start_time": 32.5659091,
                "end_time": 32.7159091,
                "pitch": 64,
                "velocity": 80,
                "duration": 0.15,
                "tempo": 120.0
            },
            {
                "start_time": 32.7159091,
                "end_time": 32.8659091,
                "pitch": 64,
                "velocity": 80,
                "duration": 0.15,
                "tempo": 120.0
            },
            {
                "start_time": 32.8681818,
                "end_time": 33.0181818,
                "pitch": 64,
                "velocity": 80,
                "duration": 0.15,
                "tempo": 120.0
            },
            {
                "start_time": 33.0204545,
                "end_time": 33.1704545,
                "pitch": 64,
                "velocity": 80,
                "duration": 0.15,
                "tempo": 120.0
            },
            {
                "start_time": 33.1727273,
                "end_time": 33.3227273,
                "pitch": 64,
                "velocity": 80,
                "duration": 0.15,
                "tempo": 120.0
            },
            {
                "start_time": 33.3227273,
                "end_time": 33.4727273,
                "pitch": 64,
                "velocity": 80,
                "duration": 0.15,
                "tempo": 120.0
            },
            {
                "start_time": 33.475,
                "end_time": 33.6272727,
                "pitch": 64,
                "velocity": 80,
                "duration": 0.1522727,
                "tempo": 120.0
            },
            {
                "start_time": 33.6272727,
                "end_time": 33.7795455,
                "pitch": 64,
                "velocity": 80,
                "duration": 0.1522727,
                "tempo": 120.0
            },
            {
                "start_time": 33.7818182,
                "end_time": 33.9340909,
                "pitch": 62,
                "velocity": 80,
                "duration": 0.1522727,
                "tempo": 120.0
            },
            {
                "start_time": 33.9340909,
                "end_time": 34.0863636,
                "pitch": 62,
                "velocity": 80,
                "duration": 0.1522727,
                "tempo": 120.0
            },
            {
                "start_time": 34.0886364,
                "end_time": 34.2386364,
                "pitch": 62,
                "velocity": 80,
                "duration": 0.15,
                "tempo": 120.0
            },
            {
                "start_time": 34.2386364,
                "end_time": 34.3909091,
                "pitch": 62,
                "velocity": 80,
                "duration": 0.1522727,
                "tempo": 120.0
            },
            {
                "start_time": 34.3909091,
                "end_time": 34.5409091,
                "pitch": 62,
                "velocity": 80,
                "duration": 0.15,
                "tempo": 120.0
            },
            {
                "start_time": 34.5431818,
                "end_time": 34.6931818,
                "pitch": 62,
                "velocity": 80,
                "duration": 0.15,
                "tempo": 120.0
            },
            {
                "start_time": 34.6954545,
                "end_time": 34.8454545,
                "pitch": 62,
                "velocity": 80,
                "duration": 0.15,
                "tempo": 120.0
            },
            {
                "start_time": 34.8477273,
                "end_time": 34.9977273,
                "pitch": 62,
                "velocity": 80,
                "duration": 0.15,
                "tempo": 120.0
            },
            {
                "start_time": 35.0,
                "end_time": 35.1477273,
                "pitch": 62,
                "velocity": 80,
                "duration": 0.1477273,
                "tempo": 120.0
            },
            {
                "start_time": 35.15,
                "end_time": 35.3,
                "pitch": 62,
                "velocity": 80,
                "duration": 0.15,
                "tempo": 120.0
            },
            {
                "start_time": 35.3022727,
                "end_time": 35.45,
                "pitch": 62,
                "velocity": 80,
                "duration": 0.1477273,
                "tempo": 120.0
            },
            {
                "start_time": 35.4522727,
                "end_time": 35.6,
                "pitch": 62,
                "velocity": 80,
                "duration": 0.1477273,
                "tempo": 120.0
            },
            {
                "start_time": 35.6022727,
                "end_time": 35.75,
                "pitch": 62,
                "velocity": 80,
                "duration": 0.1477273,
                "tempo": 120.0
            },
            {
                "start_time": 35.7522727,
                "end_time": 35.9,
                "pitch": 62,
                "velocity": 80,
                "duration": 0.1477273,
                "tempo": 120.0
            },
            {
                "start_time": 35.9022727,
                "end_time": 36.0522727,
                "pitch": 62,
                "velocity": 80,
                "duration": 0.15,
                "tempo": 120.0
            },
            {
                "start_time": 36.0545455,
                "end_time": 36.2045455,
                "pitch": 62,
                "velocity": 80,
                "duration": 0.15,
                "tempo": 120.0
            },
            {
                "start_time": 36.2068182,
                "end_time": 36.3568182,
                "pitch": 64,
                "velocity": 80,
                "duration": 0.15,
                "tempo": 120.0
            },
            {
                "start_time": 36.3568182,
                "end_time": 36.5068182,
                "pitch": 64,
                "velocity": 80,
                "duration": 0.15,
                "tempo": 120.0
            },
            {
                "start_time": 36.5090909,
                "end_time": 36.6590909,
                "pitch": 64,
                "velocity": 80,
                "duration": 0.15,
                "tempo": 120.0
            },
            {
                "start_time": 36.6613636,
                "end_time": 36.8113636,
                "pitch": 64,
                "velocity": 80,
                "duration": 0.15,
                "tempo": 120.0
            },
            {
                "start_time": 36.8136364,
                "end_time": 36.9636364,
                "pitch": 64,
                "velocity": 80,
                "duration": 0.15,
                "tempo": 120.0
            },
            {
                "start_time": 36.9636364,
                "end_time": 37.1136364,
                "pitch": 64,
                "velocity": 80,
                "duration": 0.15,
                "tempo": 120.0
            },
            {
                "start_time": 37.1159091,
                "end_time": 37.2659091,
                "pitch": 64,
                "velocity": 80,
                "duration": 0.15,
                "tempo": 120.0
            },
            {
                "start_time": 37.2681818,
                "end_time": 37.4181818,
                "pitch": 64,
                "velocity": 80,
                "duration": 0.15,
                "tempo": 120.0
            },
            {
                "start_time": 37.4204545,
                "end_time": 37.5704545,
                "pitch": 64,
                "velocity": 80,
                "duration": 0.15,
                "tempo": 120.0
            },
            {
                "start_time": 37.5704545,
                "end_time": 37.7204545,
                "pitch": 64,
                "velocity": 80,
                "duration": 0.15,
                "tempo": 120.0
            },
            {
                "start_time": 37.7227273,
                "end_time": 37.8727273,
                "pitch": 64,
                "velocity": 80,
                "duration": 0.15,
                "tempo": 120.0
            },
            {
                "start_time": 37.875,
                "end_time": 38.025,
                "pitch": 64,
                "velocity": 80,
                "duration": 0.15,
                "tempo": 120.0
            },
            {
                "start_time": 38.0272727,
                "end_time": 38.1772727,
                "pitch": 64,
                "velocity": 80,
                "duration": 0.15,
                "tempo": 120.0
            },
            {
                "start_time": 38.1772727,
                "end_time": 38.3272727,
                "pitch": 64,
                "velocity": 80,
                "duration": 0.15,
                "tempo": 120.0
            },
            {
                "start_time": 38.3295455,
                "end_time": 38.4795455,
                "pitch": 64,
                "velocity": 80,
                "duration": 0.15,
                "tempo": 120.0
            },
            {
                "start_time": 38.4795455,
                "end_time": 38.6295455,
                "pitch": 64,
                "velocity": 80,
                "duration": 0.15,
                "tempo": 120.0
            },
            {
                "start_time": 38.6318182,
                "end_time": 38.7795455,
                "pitch": 62,
                "velocity": 80,
                "duration": 0.1477273,
                "tempo": 120.0
            },
            {
                "start_time": 38.7795455,
                "end_time": 38.9295455,
                "pitch": 62,
                "velocity": 80,
                "duration": 0.15,
                "tempo": 120.0
            },
            {
                "start_time": 38.9295455,
                "end_time": 39.0818182,
                "pitch": 62,
                "velocity": 80,
                "duration": 0.1522727,
                "tempo": 120.0
            },
            {
                "start_time": 39.0818182,
                "end_time": 39.2318182,
                "pitch": 62,
                "velocity": 80,
                "duration": 0.15,
                "tempo": 120.0
            },
            {
                "start_time": 39.2340909,
                "end_time": 39.3840909,
                "pitch": 62,
                "velocity": 80,
                "duration": 0.15,
                "tempo": 120.0
            },
            {
                "start_time": 39.3863636,
                "end_time": 39.5363636,
                "pitch": 62,
                "velocity": 80,
                "duration": 0.15,
                "tempo": 120.0
            },
            {
                "start_time": 39.5386364,
                "end_time": 39.6886364,
                "pitch": 62,
                "velocity": 80,
                "duration": 0.15,
                "tempo": 120.0
            },
            {
                "start_time": 39.6886364,
                "end_time": 39.8409091,
                "pitch": 62,
                "velocity": 80,
                "duration": 0.1522727,
                "tempo": 120.0
            },
            {
                "start_time": 39.8409091,
                "end_time": 39.9909091,
                "pitch": 62,
                "velocity": 80,
                "duration": 0.15,
                "tempo": 120.0
            },
            {
                "start_time": 39.9931818,
                "end_time": 40.1431818,
                "pitch": 62,
                "velocity": 80,
                "duration": 0.15,
                "tempo": 120.0
            },
            {
                "start_time": 40.1431818,
                "end_time": 40.2954545,
                "pitch": 62,
                "velocity": 80,
                "duration": 0.1522727,
                "tempo": 120.0
            },
            {
                "start_time": 40.2954545,
                "end_time": 40.4454545,
                "pitch": 62,
                "velocity": 80,
                "duration": 0.15,
                "tempo": 120.0
            },
            {
                "start_time": 40.4477273,
                "end_time": 40.5977273,
                "pitch": 62,
                "velocity": 80,
                "duration": 0.15,
                "tempo": 120.0
            },
            {
                "start_time": 40.6,
                "end_time": 40.75,
                "pitch": 62,
                "velocity": 80,
                "duration": 0.15,
                "tempo": 120.0
            },
            {
                "start_time": 40.7522727,
                "end_time": 40.9022727,
                "pitch": 62,
                "velocity": 80,
                "duration": 0.15,
                "tempo": 120.0
            },
            {
                "start_time": 40.9045455,
                "end_time": 41.0568182,
                "pitch": 62,
                "velocity": 80,
                "duration": 0.1522727,
                "tempo": 120.0
            }
        ],
        "Harpsichord": [
            {
                "start_time": 50.7568182,
                "end_time": 51.0590909,
                "pitch": 57,
                "velocity": 101,
                "duration": 0.3022727,
                "tempo": 120.0
            },
            {
                "start_time": 51.0613636,
                "end_time": 51.2113636,
                "pitch": 55,
                "velocity": 101,
                "duration": 0.15,
                "tempo": 120.0
            },
            {
                "start_time": 51.2113636,
                "end_time": 51.5136364,
                "pitch": 52,
                "velocity": 101,
                "duration": 0.3022727,
                "tempo": 120.0
            },
            {
                "start_time": 51.5159091,
                "end_time": 51.6659091,
                "pitch": 50,
                "velocity": 101,
                "duration": 0.15,
                "tempo": 120.0
            },
            {
                "start_time": 51.6681818,
                "end_time": 51.8159091,
                "pitch": 48,
                "velocity": 101,
                "duration": 0.1477273,
                "tempo": 120.0
            },
            {
                "start_time": 51.8181818,
                "end_time": 51.9659091,
                "pitch": 50,
                "velocity": 101,
                "duration": 0.1477273,
                "tempo": 120.0
            },
            {
                "start_time": 51.9681818,
                "end_time": 52.1159091,
                "pitch": 52,
                "velocity": 101,
                "duration": 0.1477273,
                "tempo": 120.0
            },
            {
                "start_time": 52.1181818,
                "end_time": 52.2659091,
                "pitch": 50,
                "velocity": 101,
                "duration": 0.1477273,
                "tempo": 120.0
            },
            {
                "start_time": 52.2681818,
                "end_time": 52.4181818,
                "pitch": 48,
                "velocity": 101,
                "duration": 0.15,
                "tempo": 120.0
            },
            {
                "start_time": 52.4204545,
                "end_time": 53.025,
                "pitch": 45,
                "velocity": 101,
                "duration": 0.6045455,
                "tempo": 120.0
            },
            {
                "start_time": 53.1795455,
                "end_time": 53.4795455,
                "pitch": 57,
                "velocity": 101,
                "duration": 0.3,
                "tempo": 120.0
            },
            {
                "start_time": 53.4818182,
                "end_time": 53.6318182,
                "pitch": 55,
                "velocity": 101,
                "duration": 0.15,
                "tempo": 120.0
            },
            {
                "start_time": 53.6340909,
                "end_time": 53.9363636,
                "pitch": 52,
                "velocity": 101,
                "duration": 0.3022727,
                "tempo": 120.0
            },
            {
                "start_time": 53.9363636,
                "end_time": 54.0863636,
                "pitch": 50,
                "velocity": 101,
                "duration": 0.15,
                "tempo": 120.0
            },
            {
                "start_time": 54.0886364,
                "end_time": 54.2386364,
                "pitch": 48,
                "velocity": 101,
                "duration": 0.15,
                "tempo": 120.0
            },
            {
                "start_time": 54.2409091,
                "end_time": 54.3909091,
                "pitch": 50,
                "velocity": 101,
                "duration": 0.15,
                "tempo": 120.0
            },
            {
                "start_time": 54.3909091,
                "end_time": 54.5431818,
                "pitch": 52,
                "velocity": 101,
                "duration": 0.1522727,
                "tempo": 120.0
            },
            {
                "start_time": 54.5431818,
                "end_time": 54.6931818,
                "pitch": 50,
                "velocity": 101,
                "duration": 0.15,
                "tempo": 120.0
            },
            {
                "start_time": 54.6954545,
                "end_time": 54.8431818,
                "pitch": 48,
                "velocity": 101,
                "duration": 0.1477273,
                "tempo": 120.0
            },
            {
                "start_time": 54.8454545,
                "end_time": 55.4477273,
                "pitch": 45,
                "velocity": 101,
                "duration": 0.6022727,
                "tempo": 120.0
            }
        ]
    }
}