{
    "mood": "angry",
    "instruments": {
        "Acoustic Bass": [
            {
                "start_time": 0.0318182,
                "end_time": 0.1272727,
                "pitch": 43,
                "velocity": 80,
                "duration": 0.0954545,
                "tempo": 120.0
            },
            {
                "start_time": 0.1295455,
                "end_time": 0.2272727,
                "pitch": 43,
                "velocity": 80,
                "duration": 0.0977273,
                "tempo": 120.0
            },
            {
                "start_time": 0.2272727,
                "end_time": 0.3272727,
                "pitch": 43,
                "velocity": 80,
                "duration": 0.1,
                "tempo": 120.0
            },
            {
                "start_time": 0.3295455,
                "end_time": 0.4272727,
                "pitch": 43,
                "velocity": 80,
                "duration": 0.0977273,
                "tempo": 120.0
            },
            {
                "start_time": 0.6295455,
                "end_time": 0.8272727,
                "pitch": 43,
                "velocity": 80,
                "duration": 0.1977273,
                "tempo": 120.0
            },
            {
                "start_time": 0.8295455,
                "end_time": 0.9295455,
                "pitch": 43,
                "velocity": 80,
                "duration": 0.1,
                "tempo": 120.0
            },
            {
                "start_time": 0.9295455,
                "end_time": 1.0272727,
                "pitch": 43,
                "velocity": 80,
                "duration": 0.0977273,
                "tempo": 120.0
            },
            {
                "start_time": 1.0295455,
                "end_time": 1.1295455,
                "pitch": 43,
                "velocity": 80,
                "duration": 0.1,
                "tempo": 120.0
            },
            {
                "start_time": 1.1295455,
                "end_time": 1.2295455,
                "pitch": 43,
                "velocity": 80,
                "duration": 0.1,
                "tempo": 120.0
            },
            {
                "start_time": 1.6295455,
                "end_time": 1.7295455,
                "pitch": 41,
                "velocity": 80,
                "duration": 0.1,
                "tempo": 120.0
            },
            {
                "start_time": 1.7318182,
                "end_time": 1.8318182,
                "pitch": 41,
                "velocity": 80,
                "duration": 0.1,
                "tempo": 120.0
            },
            {
                "start_time": 1.8318182,
                "end_time": 1.9318182,
                "pitch": 41,
                "velocity": 80,
                "duration": 0.1,
                "tempo": 120.0
            },
            {
                "start_time": 1.9318182,
                "end_time": 2.0318182,
                "pitch": 41,
                "velocity": 80,
                "duration": 0.1,
                "tempo": 120.0
            },
            {
                "start_time": 2.2340909,
                "end_time": 2.4318182,
                "pitch": 41,
                "velocity": 80,
                "duration": 0.1977273,
                "tempo": 120.0
            },
            {
                "start_time": 2.4340909,
                "end_time": 2.5340909,
                "pitch": 41,
                "velocity": 80,
                "duration": 0.1,
                "tempo": 120.0
            },
            {
                "start_time": 2.5340909,
                "end_time": 2.6340909,
                "pitch": 41,
                "velocity": 80,
                "duration": 0.1,
                "tempo": 120.0
            },
            {
                "start_time": 2.6340909,
                "end_time": 2.7340909,
                "pitch": 41,
                "velocity": 80,
                "duration": 0.1,
                "tempo": 120.0
            },
            {
                "start_time": 2.7340909,
                "end_time": 2.8340909,
                "pitch": 41,
                "velocity": 80,
                "duration": 0.1,
                "tempo": 120.0
            },
            {
                "start_time": 3.2340909,
                "end_time": 3.3363636,
                "pitch": 39,
                "velocity": 80,
                "duration": 0.1022727,
                "tempo": 120.0
            },
            {
                "start_time": 3.3386364,
                "end_time": 3.4386364,
                "pitch": 39,
                "velocity": 80,
                "duration": 0.1,
                "tempo": 120.0
            },
            {
                "start_time": 3.4409091,
                "end_time": 3.5431818,
                "pitch": 39,
                "velocity": 80,
                "duration": 0.1022727,
                "tempo": 120.0
            },
            {
                "start_time": 3.5431818,
                "end_time": 3.6454545,
                "pitch": 39,
                "velocity": 80,
                "duration": 0.1022727,
                "tempo": 120.0
            },
            {
                "start_time": 3.8454545,
                "end_time": 4.0454545,
                "pitch": 39,
                "velocity": 80,
                "duration": 0.2,
                "tempo": 120.0
            },
            {
                "start_time": 4.0454545,
                "end_time": 4.1431818,
                "pitch": 39,
                "velocity": 80,
                "duration": 0.0977273,
                "tempo": 120.0
            },
            {
                "start_time": 4.1454545,
                "end_time": 4.2409091,
                "pitch": 39,
                "velocity": 80,
                "duration": 0.0954545,
                "tempo": 120.0
            },
            {
                "start_time": 4.2431818,
                "end_time": 4.3409091,
                "pitch": 39,
                "velocity": 80,
                "duration": 0.0977273,
                "tempo": 120.0
            },
            {
                "start_time": 4.3409091,
                "end_time": 4.4386364,
                "pitch": 39,
                "velocity": 80,
                "duration": 0.0977273,
                "tempo": 120.0
            },
            {
                "start_time": 4.8431818,
                "end_time": 4.9454545,
                "pitch": 38,
                "velocity": 80,
                "duration": 0.1022727,
                "tempo": 120.0
            },
            {
                "start_time": 4.9454545,
                "end_time": 5.0477273,
                "pitch": 38,
                "velocity": 80,
                "duration": 0.1022727,
                "tempo": 120.0
            },
            {
                "start_time": 5.0477273,
                "end_time": 5.15,
                "pitch": 38,
                "velocity": 80,
                "duration": 0.1022727,
                "tempo": 120.0
            },
            {
                "start_time": 5.1522727,
                "end_time": 5.2522727,
                "pitch": 38,
                "velocity": 80,
                "duration": 0.1,
                "tempo": 120.0
            },
            {
                "start_time": 5.4568182,
                "end_time": 5.6568182,
                "pitch": 38,
                "velocity": 80,
                "duration": 0.2,
                "tempo": 120.0
            },
            {
                "start_time": 5.6568182,
                "end_time": 5.7568182,
                "pitch": 38,
                "velocity": 80,
                "duration": 0.1,
                "tempo": 120.0
            },
            {
                "start_time": 5.7568182,
                "end_time": 5.8568182,
                "pitch": 38,
                "velocity": 80,
                "duration": 0.1,
                "tempo": 120.0
            },
            {
                "start_time": 5.8568182,
                "end_time": 5.9568182,
                "pitch": 38,
                "velocity": 80,
                "duration": 0.1,
                "tempo": 120.0
            },
            {
                "start_time": 5.9590909,
                "end_time": 6.0568182,
                "pitch": 38,
                "velocity": 80,
                "duration": 0.0977273,
                "tempo": 120.0
            },
            {
                "start_time": 6.4613636,
                "end_time": 6.5613636,
                "pitch": 43,
                "velocity": 80,
                "duration": 0.1,
                "tempo": 120.0
            },
            {
                "start_time": 6.5613636,
                "end_time": 6.6613636,
                "pitch": 43,
                "velocity": 80,
                "duration": 0.1,
                "tempo": 120.0
            },
            {
                "start_time": 6.6613636,
                "end_time": 6.7613636,
                "pitch": 43,
                "velocity": 80,
                "duration": 0.1,
                "tempo": 120.0
            },
            {
                "start_time": 6.7613636,
                "end_time": 6.8613636,
                "pitch": 43,
                "velocity": 80,
                "duration": 0.1,
                "tempo": 120.0
            },
            {
                "start_time": 7.0636364,
                "end_time": 7.2636364,
                "pitch": 43,
                "velocity": 80,
                "duration": 0.2,
                "tempo": 120.0
            },
            {
                "start_time": 7.2636364,
                "end_time": 7.3659091,
                "pitch": 43,
                "velocity": 80,
                "duration": 0.1022727,
                "tempo": 120.0
            },
            {
                "start_time": 7.3659091,
                "end_time": 7.4659091,
                "pitch": 43,
                "velocity": 80,
                "duration": 0.1,
                "tempo": 120.0
            },
            {
                "start_time": 7.4659091,
                "end_time": 7.5659091,
                "pitch": 43,
                "velocity": 80,
                "duration": 0.1,
                "tempo": 120.0
            },
            {
                "start_time": 7.5681818,
                "end_time": 7.6659091,
                "pitch": 43,
                "velocity": 80,
                "duration": 0.0977273,
                "tempo": 120.0
            },
            {
                "start_time": 8.0681818,
                "end_time": 8.1681818,
                "pitch": 41,
                "velocity": 80,
                "duration": 0.1,
                "tempo": 120.0
            },
            {
                "start_time": 8.1681818,
                "end_time": 8.2681818,
                "pitch": 41,
                "velocity": 80,
                "duration": 0.1,
                "tempo": 120.0
            },
            {
                "start_time": 8.2681818,
                "end_time": 8.3681818,
                "pitch": 41,
                "velocity": 80,
                "duration": 0.1,
                "tempo": 120.0
            },
            {
                "start_time": 8.3681818,
                "end_time": 8.4681818,
                "pitch": 41,
                "velocity": 80,
                "duration": 0.1,
                "tempo": 120.0
            },
            {
                "start_time": 8.6704545,
                "end_time": 8.8704545,
                "pitch": 41,
                "velocity": 80,
                "duration": 0.2,
                "tempo": 120.0
            },
            {
                "start_time": 8.8727273,
                "end_time": 8.9727273,
                "pitch": 41,
                "velocity": 80,
                "duration": 0.1,
                "tempo": 120.0
            },
            {
                "start_time": 8.9727273,
                "end_time": 9.0727273,
                "pitch": 41,
                "velocity": 80,
                "duration": 0.1,
                "tempo": 120.0
            },
            {
                "start_time": 9.0727273,
                "end_time": 9.175,
                "pitch": 41,
                "velocity": 80,
                "duration": 0.1022727,
                "tempo": 120.0
            },
            {
                "start_time": 9.175,
                "end_time": 9.275,
                "pitch": 41,
                "velocity": 80,
                "duration": 0.1,
                "tempo": 120.0
            },
            {
                "start_time": 9.6795455,
                "end_time": 9.7818182,
                "pitch": 39,
                "velocity": 80,
                "duration": 0.1022727,
                "tempo": 120.0
            },
            {
                "start_time": 9.7818182,
                "end_time": 9.8840909,
                "pitch": 39,
                "velocity": 80,
                "duration": 0.1022727,
                "tempo": 120.0
            },
            {
                "start_time": 9.8840909,
                "end_time": 9.9863636,
                "pitch": 39,
                "velocity": 80,
                "duration": 0.1022727,
                "tempo": 120.0
            },
            {
                "start_time": 9.9886364,
                "end_time": 10.0886364,
                "pitch": 39,
                "velocity": 80,
                "duration": 0.1,
                "tempo": 120.0
            },
            {
                "start_time": 10.2863636,
                "end_time": 10.4818182,
                "pitch": 39,
                "velocity": 80,
                "duration": 0.1954545,
                "tempo": 120.0
            },
            {
                "start_time": 10.4818182,
                "end_time": 10.5840909,
                "pitch": 39,
                "velocity": 80,
                "duration": 0.1022727,
                "tempo": 120.0
            },
            {
                "start_time": 10.5840909,
                "end_time": 10.6840909,
                "pitch": 39,
                "velocity": 80,
                "duration": 0.1,
                "tempo": 120.0
            },
            {
                "start_time": 10.6840909,
                "end_time": 10.7840909,
                "pitch": 39,
                "velocity": 80,
                "duration": 0.1,
                "tempo": 120.0
            },
            {
                "start_time": 10.7863636,
                "end_time": 10.8840909,
                "pitch": 39,
                "velocity": 80,
                "duration": 0.0977273,
                "tempo": 120.0
            },
            {
                "start_time": 11.2886364,
                "end_time": 11.3909091,
                "pitch": 38,
                "velocity": 80,
                "duration": 0.1022727,
                "tempo": 120.0
            },
            {
                "start_time": 11.3931818,
                "end_time": 11.4931818,
                "pitch": 38,
                "velocity": 80,
                "duration": 0.1,
                "tempo": 120.0
            },
            {
                "start_time": 11.4954545,
                "end_time": 11.5977273,
                "pitch": 38,
                "velocity": 80,
                "duration": 0.1022727,
                "tempo": 120.0
            },
            {
                "start_time": 11.5977273,
                "end_time": 11.7,
                "pitch": 38,
                "velocity": 80,
                "duration": 0.1022727,
                "tempo": 120.0
            },
            {
                "start_time": 11.9022727,
                "end_time": 12.1022727,
                "pitch": 38,
                "velocity": 80,
                "duration": 0.2,
                "tempo": 120.0
            },
            {
                "start_time": 12.1045455,
                "end_time": 12.2022727,
                "pitch": 38,
                "velocity": 80,
                "duration": 0.0977273,
                "tempo": 120.0
            },
            {
                "start_time": 12.2045455,
                "end_time": 12.3022727,
                "pitch": 38,
                "velocity": 80,
                "duration": 0.0977273,
                "tempo": 120.0
            },
            {
                "start_time": 12.3045455,
                "end_time": 12.4045455,
                "pitch": 38,
                "velocity": 80,
                "duration": 0.1,
                "tempo": 120.0
            },
            {
                "start_time": 12.4045455,
                "end_time": 12.5022727,
                "pitch": 38,
                "velocity": 80,
                "duration": 0.0977273,
                "tempo": 120.0
            },
            {
                "start_time": 12.9,
                "end_time": 12.9977273,
                "pitch": 43,
                "velocity": 80,
                "duration": 0.0977273,
                "tempo": 120.0
            },
            {
                "start_time": 13.0,
                "end_time": 13.1022727,
                "pitch": 43,
                "velocity": 80,
                "duration": 0.1022727,
                "tempo": 120.0
            },
            {
                "start_time": 13.1022727,
                "end_time": 13.2045455,
                "pitch": 43,
                "velocity": 80,
                "duration": 0.1022727,
                "tempo": 120.0
            },
            {
                "start_time": 13.2045455,
                "end_time": 13.3113636,
                "pitch": 43,
                "velocity": 80,
                "duration": 0.1068182,
                "tempo": 120.0
            },
            {
                "start_time": 13.5136364,
                "end_time": 13.7136364,
                "pitch": 43,
                "velocity": 80,
                "duration": 0.2,
                "tempo": 120.0
            },
            {
                "start_time": 13.7136364,
                "end_time": 13.8136364,
                "pitch": 43,
                "velocity": 80,
                "duration": 0.1,
                "tempo": 120.0
            },
            {
                "start_time": 13.8136364,
                "end_time": 13.9136364,
                "pitch": 43,
                "velocity": 80,
                "duration": 0.1,
                "tempo": 120.0
            },
            {
                "start_time": 13.9159091,
                "end_time": 14.0136364,
                "pitch": 43,
                "velocity": 80,
                "duration": 0.0977273,
                "tempo": 120.0
            },
            {
                "start_time": 14.0159091,
                "end_time": 14.1159091,
                "pitch": 43,
                "velocity": 80,
                "duration": 0.1,
                "tempo": 120.0
            },
            {
                "start_time": 14.5181818,
                "end_time": 14.6159091,
                "pitch": 43,
                "velocity": 80,
                "duration": 0.0977273,
                "tempo": 120.0
            },
            {
                "start_time": 14.6159091,
                "end_time": 14.7159091,
                "pitch": 43,
                "velocity": 80,
                "duration": 0.1,
                "tempo": 120.0
            },
            {
                "start_time": 14.7181818,
                "end_time": 14.8181818,
                "pitch": 43,
                "velocity": 80,
                "duration": 0.1,
                "tempo": 120.0
            },
            {
                "start_time": 14.8181818,
                "end_time": 14.9204545,
                "pitch": 43,
                "velocity": 80,
                "duration": 0.1022727,
                "tempo": 120.0
            },
            {
                "start_time": 15.1204545,
                "end_time": 15.3227273,
                "pitch": 43,
                "velocity": 80,
                "duration": 0.2022727,
                "tempo": 120.0
            },
            {
                "start_time": 15.325,
                "end_time": 15.4227273,
                "pitch": 43,
                "velocity": 80,
                "duration": 0.0977273,
                "tempo": 120.0
            },
            {
                "start_time": 15.4227273,
                "end_time": 15.525,
                "pitch": 43,
                "velocity": 80,
                "duration": 0.1022727,
                "tempo": 120.0
            },
            {
                "start_time": 15.525,
                "end_time": 15.625,
                "pitch": 43,
                "velocity": 80,
                "duration": 0.1,
                "tempo": 120.0
            },
            {
                "start_time": 15.625,
                "end_time": 15.725,
                "pitch": 43,
                "velocity": 80,
                "duration": 0.1,
                "tempo": 120.0
            },
            {
                "start_time": 16.1295455,
                "end_time": 16.2272727,
                "pitch": 46,
                "velocity": 80,
                "duration": 0.0977273,
                "tempo": 120.0
            },
            {
                "start_time": 16.2295455,
                "end_time": 16.3295455,
                "pitch": 46,
                "velocity": 80,
                "duration": 0.1,
                "tempo": 120.0
            },
            {
                "start_time": 16.3295455,
                "end_time": 16.4295455,
                "pitch": 46,
                "velocity": 80,
                "duration": 0.1,
                "tempo": 120.0
            },
            {
                "start_time": 16.4295455,
                "end_time": 16.5295455,
                "pitch": 46,
                "velocity": 80,
                "duration": 0.1,
                "tempo": 120.0
            },
            {
                "start_time": 16.7318182,
                "end_time": 16.9318182,
                "pitch": 46,
                "velocity": 80,
                "duration": 0.2,
                "tempo": 120.0
            },
            {
                "start_time": 16.9340909,
                "end_time": 17.0318182,
                "pitch": 46,
                "velocity": 80,
                "duration": 0.0977273,
                "tempo": 120.0
            },
            {
                "start_time": 17.0340909,
                "end_time": 17.1340909,
                "pitch": 46,
                "velocity": 80,
                "duration": 0.1,
                "tempo": 120.0
            },
            {
                "start_time": 17.1340909,
                "end_time": 17.2318182,
                "pitch": 46,
                "velocity": 80,
                "duration": 0.0977273,
                "tempo": 120.0
            },
            {
                "start_time": 17.2318182,
                "end_time": 17.3318182,
                "pitch": 46,
                "velocity": 80,
                "duration": 0.1,
                "tempo": 120.0
            },
            {
                "start_time": 17.7340909,
                "end_time": 17.8363636,
                "pitch": 46,
                "velocity": 80,
                "duration": 0.1022727,
                "tempo": 120.0
            },
            {
                "start_time": 17.8363636,
                "end_time": 17.9409091,
                "pitch": 46,
                "velocity": 80,
                "duration": 0.1045455,
                "tempo": 120.0
            },
            {
                "start_time": 17.9409091,
                "end_time": 18.0409091,
                "pitch": 46,
                "velocity": 80,
                "duration": 0.1,
                "tempo": 120.0
            },
            {
                "start_time": 18.0431818,
                "end_time": 18.1454545,
                "pitch": 46,
                "velocity": 80,
                "duration": 0.1022727,
                "tempo": 120.0
            },
            {
                "start_time": 18.3477273,
                "end_time": 18.55,
                "pitch": 46,
                "velocity": 80,
                "duration": 0.2022727,
                "tempo": 120.0
            },
            {
                "start_time": 18.55,
                "end_time": 18.6477273,
                "pitch": 46,
                "velocity": 80,
                "duration": 0.0977273,
                "tempo": 120.0
            },
            {
                "start_time": 18.6477273,
                "end_time": 18.75,
                "pitch": 46,
                "velocity": 80,
                "duration": 0.1022727,
                "tempo": 120.0
            },
            {
                "start_time": 18.75,
                "end_time": 18.8477273,
                "pitch": 46,
                "velocity": 80,
                "duration": 0.0977273,
                "tempo": 120.0
            },
            {
                "start_time": 18.85,
                "end_time": 18.95,
                "pitch": 46,
                "velocity": 80,
                "duration": 0.1,
                "tempo": 120.0
            },
            {
                "start_time": 19.3545455,
                "end_time": 19.4522727,
                "pitch": 43,
                "velocity": 80,
                "duration": 0.0977273,
                "tempo": 120.0
            },
            {
                "start_time": 19.4522727,
                "end_time": 19.5522727,
                "pitch": 43,
                "velocity": 80,
                "duration": 0.1,
                "tempo": 120.0
            },
            {
                "start_time": 19.5522727,
                "end_time": 19.6522727,
                "pitch": 43,
                "velocity": 80,
                "duration": 0.1,
                "tempo": 120.0
            },
            {
                "start_time": 19.6522727,
                "end_time": 19.7545455,
                "pitch": 43,
                "velocity": 80,
                "duration": 0.1022727,
                "tempo": 120.0
            },
            {
                "start_time": 19.9522727,
                "end_time": 20.1545455,
                "pitch": 43,
                "velocity": 80,
                "duration": 0.2022727,
                "tempo": 120.0
            },
            {
                "start_time": 20.1545455,
                "end_time": 20.2522727,
                "pitch": 43,
                "velocity": 80,
                "duration": 0.0977273,
                "tempo": 120.0
            },
            {
                "start_time": 20.2545455,
                "end_time": 20.3545455,
                "pitch": 43,
                "velocity": 80,
                "duration": 0.1,
                "tempo": 120.0
            },
            {
                "start_time": 20.3568182,
                "end_time": 20.4545455,
                "pitch": 43,
                "velocity": 80,
                "duration": 0.0977273,
                "tempo": 120.0
            },
            {
                "start_time": 20.4545455,
                "end_time": 20.5568182,
                "pitch": 43,
                "velocity": 80,
                "duration": 0.1022727,
                "tempo": 120.0
            },
            {
                "start_time": 20.9568182,
                "end_time": 21.0568182,
                "pitch": 43,
                "velocity": 80,
                "duration": 0.1,
                "tempo": 120.0
            },
            {
                "start_time": 21.0568182,
                "end_time": 21.1590909,
                "pitch": 43,
                "velocity": 80,
                "duration": 0.1022727,
                "tempo": 120.0
            },
            {
                "start_time": 21.1590909,
                "end_time": 21.2590909,
                "pitch": 43,
                "velocity": 80,
                "duration": 0.1,
                "tempo": 120.0
            },
            {
                "start_time": 21.2590909,
                "end_time": 21.3590909,
                "pitch": 43,
                "velocity": 80,
                "duration": 0.1,
                "tempo": 120.0
            },
            {
                "start_time": 21.5613636,
                "end_time": 21.7613636,
                "pitch": 43,
                "velocity": 80,
                "duration": 0.2,
                "tempo": 120.0
            },
            {
                "start_time": 21.7613636,
                "end_time": 21.8590909,
                "pitch": 43,
                "velocity": 80,
                "duration": 0.0977273,
                "tempo": 120.0
            },
            {
                "start_time": 21.8613636,
                "end_time": 21.9613636,
                "pitch": 43,
                "velocity": 80,
                "duration": 0.1,
                "tempo": 120.0
            },
            {
                "start_time": 21.9613636,
                "end_time": 22.0613636,
                "pitch": 43,
                "velocity": 80,
                "duration": 0.1,
                "tempo": 120.0
            },
            {
                "start_time": 22.0613636,
                "end_time": 22.1613636,
                "pitch": 43,
                "velocity": 80,
                "duration": 0.1,
                "tempo": 120.0
            },
            {
                "start_time": 22.5659091,
                "end_time": 22.6636364,
                "pitch": 39,
                "velocity": 80,
                "duration": 0.0977273,
                "tempo": 120.0
            },
            {
                "start_time": 22.6636364,
                "end_time": 22.7636364,
                "pitch": 39,
                "velocity": 80,
                "duration": 0.1,
                "tempo": 120.0
            },
            {
                "start_time": 22.7636364,
                "end_time": 22.8636364,
                "pitch": 39,
                "velocity": 80,
                "duration": 0.1,
                "tempo": 120.0
            },
            {
                "start_time": 22.8659091,
                "end_time": 22.9659091,
                "pitch": 39,
                "velocity": 80,
                "duration": 0.1,
                "tempo": 120.0
            },
            {
                "start_time": 23.1659091,
                "end_time": 23.3681818,
                "pitch": 39,
                "velocity": 80,
                "duration": 0.2022727,
                "tempo": 120.0
            },
            {
                "start_time": 23.3704545,
                "end_time": 23.4681818,
                "pitch": 39,
                "velocity": 80,
                "duration": 0.0977273,
                "tempo": 120.0
            },
            {
                "start_time": 23.4681818,
                "end_time": 23.5681818,
                "pitch": 39,
                "velocity": 80,
                "duration": 0.1,
                "tempo": 120.0
            },
            {
                "start_time": 23.5681818,
                "end_time": 23.6681818,
                "pitch": 39,
                "velocity": 80,
                "duration": 0.1,
                "tempo": 120.0
            },
            {
                "start_time": 23.6681818,
                "end_time": 23.7681818,
                "pitch": 39,
                "velocity": 80,
                "duration": 0.1,
                "tempo": 120.0
            },
            {
                "start_time": 24.1704545,
                "end_time": 24.2681818,
                "pitch": 39,
                "velocity": 80,
                "duration": 0.0977273,
                "tempo": 120.0
            },
            {
                "start_time": 24.2704545,
                "end_time": 24.3704545,
                "pitch": 39,
                "velocity": 80,
                "duration": 0.1,
                "tempo": 120.0
            },
            {
                "start_time": 24.3727273,
                "end_time": 24.4704545,
                "pitch": 39,
                "velocity": 80,
                "duration": 0.0977273,
                "tempo": 120.0
            },
            {
                "start_time": 24.4704545,
                "end_time": 24.5727273,
                "pitch": 39,
                "velocity": 80,
                "duration": 0.1022727,
                "tempo": 120.0
            },
            {
                "start_time": 24.7772727,
                "end_time": 24.9863636,
                "pitch": 39,
                "velocity": 80,
                "duration": 0.2090909,
                "tempo": 120.0
            },
            {
                "start_time": 24.9863636,
                "end_time": 25.0840909,
                "pitch": 39,
                "velocity": 80,
                "duration": 0.0977273,
                "tempo": 120.0
            },
            {
                "start_time": 25.0840909,
                "end_time": 25.1840909,
                "pitch": 39,
                "velocity": 80,
                "duration": 0.1,
                "tempo": 120.0
            },
            {
                "start_time": 25.1840909,
                "end_time": 25.2840909,
                "pitch": 39,
                "velocity": 80,
                "duration": 0.1,
                "tempo": 120.0
            },
            {
                "start_time": 25.2863636,
                "end_time": 25.3840909,
                "pitch": 39,
                "velocity": 80,
                "duration": 0.0977273,
                "tempo": 120.0
            },
            {
                "start_time": 25.7795455,
                "end_time": 25.875,
                "pitch": 43,
                "velocity": 80,
                "duration": 0.0954545,
                "tempo": 120.0
            },
            {
                "start_time": 25.875,
                "end_time": 25.975,
                "pitch": 43,
                "velocity": 80,
                "duration": 0.1,
                "tempo": 120.0
            },
            {
                "start_time": 25.9772727,
                "end_time": 26.075,
                "pitch": 43,
                "velocity": 80,
                "duration": 0.0977273,
                "tempo": 120.0
            },
            {
                "start_time": 26.0772727,
                "end_time": 26.1795455,
                "pitch": 43,
                "velocity": 80,
                "duration": 0.1022727,
                "tempo": 120.0
            },
            {
                "start_time": 26.3840909,
                "end_time": 26.5909091,
                "pitch": 43,
                "velocity": 80,
                "duration": 0.2068182,
                "tempo": 120.0
            },
            {
                "start_time": 26.5909091,
                "end_time": 26.6886364,
                "pitch": 43,
                "velocity": 80,
                "duration": 0.0977273,
                "tempo": 120.0
            },
            {
                "start_time": 26.6909091,
                "end_time": 26.7909091,
                "pitch": 43,
                "velocity": 80,
                "duration": 0.1,
                "tempo": 120.0
            },
            {
                "start_time": 26.7909091,
                "end_time": 26.8909091,
                "pitch": 43,
                "velocity": 80,
                "duration": 0.1,
                "tempo": 120.0
            },
            {
                "start_time": 26.8909091,
                "end_time": 26.9931818,
                "pitch": 43,
                "velocity": 80,
                "duration": 0.1022727,
                "tempo": 120.0
            },
            {
                "start_time": 27.3954545,
                "end_time": 27.4931818,
                "pitch": 43,
                "velocity": 80,
                "duration": 0.0977273,
                "tempo": 120.0
            },
            {
                "start_time": 27.4931818,
                "end_time": 27.5931818,
                "pitch": 43,
                "velocity": 80,
                "duration": 0.1,
                "tempo": 120.0
            },
            {
                "start_time": 27.5954545,
                "end_time": 27.6954545,
                "pitch": 43,
                "velocity": 80,
                "duration": 0.1,
                "tempo": 120.0
            },
            {
                "start_time": 27.6954545,
                "end_time": 27.7977273,
                "pitch": 43,
                "velocity": 80,
                "duration": 0.1022727,
                "tempo": 120.0
            },
            {
                "start_time": 27.9954545,
                "end_time": 28.1977273,
                "pitch": 43,
                "velocity": 80,
                "duration": 0.2022727,
                "tempo": 120.0
            },
            {
                "start_time": 28.1977273,
                "end_time": 28.2954545,
                "pitch": 43,
                "velocity": 80,
                "duration": 0.0977273,
                "tempo": 120.0
            },
            {
                "start_time": 28.2954545,
                "end_time": 28.3977273,
                "pitch": 43,
                "velocity": 80,
                "duration": 0.1022727,
                "tempo": 120.0
            },
            {
                "start_time": 28.3977273,
                "end_time": 28.4954545,
                "pitch": 43,
                "velocity": 80,
                "duration": 0.0977273,
                "tempo": 120.0
            },
            {
                "start_time": 28.4977273,
                "end_time": 28.5977273,
                "pitch": 43,
                "velocity": 80,
                "duration": 0.1,
                "tempo": 120.0
            },
            {
                "start_time": 29.0,
                "end_time": 29.1,
                "pitch": 46,
                "velocity": 80,
                "duration": 0.1,
                "tempo": 120.0
            },
            {
                "start_time": 29.1,
                "end_time": 29.2,
                "pitch": 46,
                "velocity": 80,
                "duration": 0.1,
                "tempo": 120.0
            },
            {
                "start_time": 29.2,
                "end_time": 29.3,
                "pitch": 46,
                "velocity": 80,
                "duration": 0.1,
                "tempo": 120.0
            },
            {
                "start_time": 29.3,
                "end_time": 29.4022727,
                "pitch": 46,
                "velocity": 80,
                "duration": 0.1022727,
                "tempo": 120.0
            },
            {
                "start_time": 29.6022727,
                "end_time": 29.8045455,
                "pitch": 46,
                "velocity": 80,
                "duration": 0.2022727,
                "tempo": 120.0
            },
            {
                "start_time": 29.8045455,
                "end_time": 29.9022727,
                "pitch": 46,
                "velocity": 80,
                "duration": 0.0977273,
                "tempo": 120.0
            },
            {
                "start_time": 29.9045455,
                "end_time": 30.0045455,
                "pitch": 46,
                "velocity": 80,
                "duration": 0.1,
                "tempo": 120.0
            },
            {
                "start_time": 30.0068182,
                "end_time": 30.1045455,
                "pitch": 46,
                "velocity": 80,
                "duration": 0.0977273,
                "tempo": 120.0
            },
            {
                "start_time": 30.1045455,
                "end_time": 30.2045455,
                "pitch": 46,
                "velocity": 80,
                "duration": 0.1,
                "tempo": 120.0
            },
            {
                "start_time": 30.6045455,
                "end_time": 30.7045455,
                "pitch": 46,
                "velocity": 80,
                "duration": 0.1,
                "tempo": 120.0
            },
            {
                "start_time": 30.7068182,
                "end_time": 30.8068182,
                "pitch": 46,
                "velocity": 80,
                "duration": 0.1,
                "tempo": 120.0
            },
            {
                "start_time": 30.8068182,
                "end_time": 30.9068182,
                "pitch": 46,
                "velocity": 80,
                "duration": 0.1,
                "tempo": 120.0
            },
            {
                "start_time": 30.9068182,
                "end_time": 31.0068182,
                "pitch": 46,
                "velocity": 80,
                "duration": 0.1,
                "tempo": 120.0
            },
            {
                "start_time": 31.2090909,
                "end_time": 31.4090909,
                "pitch": 46,
                "velocity": 80,
                "duration": 0.2,
                "tempo": 120.0
            },
            {
                "start_time": 31.4113636,
                "end_time": 31.5090909,
                "pitch": 46,
                "velocity": 80,
                "duration": 0.0977273,
                "tempo": 120.0
            },
            {
                "start_time": 31.5090909,
                "end_time": 31.6113636,
                "pitch": 46,
                "velocity": 80,
                "duration": 0.1022727,
                "tempo": 120.0
            },
            {
                "start_time": 31.6113636,
                "end_time": 31.7113636,
                "pitch": 46,
                "velocity": 80,
                "duration": 0.1,
                "tempo": 120.0
            },
            {
                "start_time": 31.7113636,
                "end_time": 31.8113636,
                "pitch": 46,
                "velocity": 80,
                "duration": 0.1,
                "tempo": 120.0
            },
            {
                "start_time": 32.2136364,
                "end_time": 32.3113636,
                "pitch": 43,
                "velocity": 80,
                "duration": 0.0977273,
                "tempo": 120.0
            },
            {
                "start_time": 32.3136364,
                "end_time": 32.4136364,
                "pitch": 43,
                "velocity": 80,
                "duration": 0.1,
                "tempo": 120.0
            },
            {
                "start_time": 32.4136364,
                "end_time": 32.5136364,
                "pitch": 43,
                "velocity": 80,
                "duration": 0.1,
                "tempo": 120.0
            },
            {
                "start_time": 32.5136364,
                "end_time": 32.6159091,
                "pitch": 43,
                "velocity": 80,
                "duration": 0.1022727,
                "tempo": 120.0
            },
            {
                "start_time": 32.8204545,
                "end_time": 33.0272727,
                "pitch": 43,
                "velocity": 80,
                "duration": 0.2068182,
                "tempo": 120.0
            },
            {
                "start_time": 33.0295455,
                "end_time": 33.1272727,
                "pitch": 43,
                "velocity": 80,
                "duration": 0.0977273,
                "tempo": 120.0
            },
            {
                "start_time": 33.1272727,
                "end_time": 33.2272727,
                "pitch": 43,
                "velocity": 80,
                "duration": 0.1,
                "tempo": 120.0
            },
            {
                "start_time": 33.2272727,
                "end_time": 33.3272727,
                "pitch": 43,
                "velocity": 80,
                "duration": 0.1,
                "tempo": 120.0
            },
            {
                "start_time": 33.3272727,
                "end_time": 33.4272727,
                "pitch": 43,
                "velocity": 80,
                "duration": 0.1,
                "tempo": 120.0
            },
            {
                "start_time": 33.8204545,
                "end_time": 33.9227273,
                "pitch": 43,
                "velocity": 80,
                "duration": 0.1022727,
                "tempo": 120.0
            },
            {
                "start_time": 33.9227273,
                "end_time": 34.025,
                "pitch": 43,
                "velocity": 80,
                "duration": 0.1022727,
                "tempo": 120.0
            },
            {
                "start_time": 34.0272727,
                "end_time": 34.1272727,
                "pitch": 43,
                "velocity": 80,
                "duration": 0.1,
                "tempo": 120.0
            },
            {
                "start_time": 34.1295455,
                "end_time": 34.2318182,
                "pitch": 43,
                "velocity": 80,
                "duration": 0.1022727,
                "tempo": 120.0
            },
            {
                "start_time": 34.4318182,
                "end_time": 34.6340909,
                "pitch": 43,
                "velocity": 80,
                "duration": 0.2022727,
                "tempo": 120.0
            },
            {
                "start_time": 34.6340909,
                "end_time": 34.7318182,
                "pitch": 43,
                "velocity": 80,
                "duration": 0.0977273,
                "tempo": 120.0
            },
            {
                "start_time": 34.7318182,
                "end_time": 34.8318182,
                "pitch": 43,
                "velocity": 80,
                "duration": 0.1,
                "tempo": 120.0
            },
            {
                "start_time": 34.8318182,
                "end_time": 34.9318182,
                "pitch": 43,
                "velocity": 80,
                "duration": 0.1,
                "tempo": 120.0
            },
            {
                "start_time": 34.9318182,
                "end_time": 35.0318182,
                "pitch": 43,
                "velocity": 80,
                "duration": 0.1,
                "tempo": 120.0
            },
            {
                "start_time": 35.4272727,
                "end_time": 35.5272727,
                "pitch": 39,
                "velocity": 80,
                "duration": 0.1,
                "tempo": 120.0
            },
            {
                "start_time": 35.5272727,
                "end_time": 35.6295455,
                "pitch": 39,
                "velocity": 80,
                "duration": 0.1022727,
                "tempo": 120.0
            },
            {
                "start_time": 35.6318182,
                "end_time": 35.7340909,
                "pitch": 39,
                "velocity": 80,
                "duration": 0.1022727,
                "tempo": 120.0
            },
            {
                "start_time": 35.7340909,
                "end_time": 35.8363636,
                "pitch": 39,
                "velocity": 80,
                "duration": 0.1022727,
                "tempo": 120.0
            },
            {
                "start_time": 36.0363636,
                "end_time": 36.2386364,
                "pitch": 39,
                "velocity": 80,
                "duration": 0.2022727,
                "tempo": 120.0
            },
            {
                "start_time": 36.2386364,
                "end_time": 36.3363636,
                "pitch": 39,
                "velocity": 80,
                "duration": 0.0977273,
                "tempo": 120.0
            },
            {
                "start_time": 36.3363636,
                "end_time": 36.4363636,
                "pitch": 39,
                "velocity": 80,
                "duration": 0.1,
                "tempo": 120.0
            },
            {
                "start_time": 36.4386364,
                "end_time": 36.5363636,
                "pitch": 39,
                "velocity": 80,
                "duration": 0.0977273,
                "tempo": 120.0
            },
            {
                "start_time": 36.5363636,
                "end_time": 36.6386364,
                "pitch": 39,
                "velocity": 80,
                "duration": 0.1022727,
                "tempo": 120.0
            },
            {
                "start_time": 37.0386364,
                "end_time": 37.1386364,
                "pitch": 39,
                "velocity": 80,
                "duration": 0.1,
                "tempo": 120.0
            },
            {
                "start_time": 37.1386364,
                "end_time": 37.2386364,
                "pitch": 39,
                "velocity": 80,
                "duration": 0.1,
                "tempo": 120.0
            },
            {
                "start_time": 37.2386364,
                "end_time": 37.3363636,
                "pitch": 39,
                "velocity": 80,
                "duration": 0.0977273,
                "tempo": 120.0
            },
            {
                "start_time": 37.3386364,
                "end_time": 37.4386364,
                "pitch": 39,
                "velocity": 80,
                "duration": 0.1,
                "tempo": 120.0
            },
            {
                "start_time": 37.6409091,
                "end_time": 37.8431818,
                "pitch": 39,
                "velocity": 80,
                "duration": 0.2022727,
                "tempo": 120.0
            },
            {
                "start_time": 37.8431818,
                "end_time": 37.9409091,
                "pitch": 39,
                "velocity": 80,
                "duration": 0.0977273,
                "tempo": 120.0
            },
            {
                "start_time": 37.9431818,
                "end_time": 38.0409091,
                "pitch": 39,
                "velocity": 80,
                "duration": 0.0977273,
                "tempo": 120.0
            },
            {
                "start_time": 38.0431818,
                "end_time": 38.1409091,
                "pitch": 39,
                "velocity": 80,
                "duration": 0.0977273,
                "tempo": 120.0
            },
            {
                "start_time": 38.1431818,
                "end_time": 38.2431818,
                "pitch": 39,
                "velocity": 80,
                "duration": 0.1,
                "tempo": 120.0
            },
            {
                "start_time": 38.6454545,
                "end_time": 38.7409091,
                "pitch": 41,
                "velocity": 80,
                "duration": 0.0954545,
                "tempo": 120.0
            },
            {
                "start_time": 38.7409091,
                "end_time": 38.8409091,
                "pitch": 41,
                "velocity": 80,
                "duration": 0.1,
                "tempo": 120.0
            },
            {
                "start_time": 38.8409091,
                "end_time": 38.9409091,
                "pitch": 41,
                "velocity": 80,
                "duration": 0.1,
                "tempo": 120.0
            },
            {
                "start_time": 38.9431818,
                "end_time": 39.0431818,
                "pitch": 41,
                "velocity": 80,
                "duration": 0.1,
                "tempo": 120.0
            },
            {
                "start_time": 39.2431818,
                "end_time": 39.4431818,
                "pitch": 41,
                "velocity": 80,
                "duration": 0.2,
                "tempo": 120.0
            },
            {
                "start_time": 39.4431818,
                "end_time": 39.5431818,
                "pitch": 41,
                "velocity": 80,
                "duration": 0.1,
                "tempo": 120.0
            },
            {
                "start_time": 39.5454545,
                "end_time": 39.6454545,
                "pitch": 41,
                "velocity": 80,
                "duration": 0.1,
                "tempo": 120.0
            },
            {
                "start_time": 39.6454545,
                "end_time": 39.7454545,
                "pitch": 41,
                "velocity": 80,
                "duration": 0.1,
                "tempo": 120.0
            },
            {
                "start_time": 39.7454545,
                "end_time": 39.8454545,
                "pitch": 41,
                "velocity": 80,
                "duration": 0.1,
                "tempo": 120.0
            },
            {
                "start_time": 40.25,
                "end_time": 40.3477273,
                "pitch": 41,
                "velocity": 80,
                "duration": 0.0977273,
                "tempo": 120.0
            },
            {
                "start_time": 40.3477273,
                "end_time": 40.4477273,
                "pitch": 41,
                "velocity": 80,
                "duration": 0.1,
                "tempo": 120.0
            },
            {
                "start_time": 40.45,
                "end_time": 40.5477273,
                "pitch": 41,
                "velocity": 80,
                "duration": 0.0977273,
                "tempo": 120.0
            },
            {
                "start_time": 40.5477273,
                "end_time": 40.6477273,
                "pitch": 41,
                "velocity": 80,
                "duration": 0.1,
                "tempo": 120.0
            },
            {
                "start_time": 40.8477273,
                "end_time": 41.0477273,
                "pitch": 41,
                "velocity": 80,
                "duration": 0.2,
                "tempo": 120.0
            },
            {
                "start_time": 41.0477273,
                "end_time": 41.15,
                "pitch": 41,
                "velocity": 80,
                "duration": 0.1022727,
                "tempo": 120.0
            },
            {
                "start_time": 41.1522727,
                "end_time": 41.2545455,
                "pitch": 41,
                "velocity": 80,
                "duration": 0.1022727,
                "tempo": 120.0
            },
            {
                "start_time": 41.2545455,
                "end_time": 41.3568182,
                "pitch": 41,
                "velocity": 80,
                "duration": 0.1022727,
                "tempo": 120.0
            },
            {
                "start_time": 41.3568182,
                "end_time": 41.4590909,
                "pitch": 41,
                "velocity": 80,
                "duration": 0.1022727,
                "tempo": 120.0
            },
            {
                "start_time": 41.8545455,
                "end_time": 41.9545455,
                "pitch": 38,
                "velocity": 80,
                "duration": 0.1,
                "tempo": 120.0
            },
            {
                "start_time": 41.9545455,
                "end_time": 42.0568182,
                "pitch": 38,
                "velocity": 80,
                "duration": 0.1022727,
                "tempo": 120.0
            },
            {
                "start_time": 42.0568182,
                "end_time": 42.1613636,
                "pitch": 38,
                "velocity": 80,
                "duration": 0.1045455,
                "tempo": 120.0
            },
            {
                "start_time": 42.1613636,
                "end_time": 42.2636364,
                "pitch": 38,
                "velocity": 80,
                "duration": 0.1022727,
                "tempo": 120.0
            },
            {
                "start_time": 42.4636364,
                "end_time": 42.6636364,
                "pitch": 38,
                "velocity": 80,
                "duration": 0.2,
                "tempo": 120.0
            },
            {
                "start_time": 42.6636364,
                "end_time": 42.7636364,
                "pitch": 38,
                "velocity": 80,
                "duration": 0.1,
                "tempo": 120.0
            },
            {
                "start_time": 42.7636364,
                "end_time": 42.8636364,
                "pitch": 38,
                "velocity": 80,
                "duration": 0.1,
                "tempo": 120.0
            },
            {
                "start_time": 42.8636364,
                "end_time": 42.9636364,
                "pitch": 38,
                "velocity": 80,
                "duration": 0.1,
                "tempo": 120.0
            },
            {
                "start_time": 42.9659091,
                "end_time": 43.0636364,
                "pitch": 38,
                "velocity": 80,
                "duration": 0.0977273,
                "tempo": 120.0
            },
            {
                "start_time": 43.4590909,
                "end_time": 43.5590909,
                "pitch": 38,
                "velocity": 80,
                "duration": 0.1,
                "tempo": 120.0
            },
            {
                "start_time": 43.5590909,
                "end_time": 43.6613636,
                "pitch": 38,
                "velocity": 80,
                "duration": 0.1022727,
                "tempo": 120.0
            },
            {
                "start_time": 43.6636364,
                "end_time": 43.7659091,
                "pitch": 38,
                "velocity": 80,
                "duration": 0.1022727,
                "tempo": 120.0
            },
            {
                "start_time": 43.7659091,
                "end_time": 43.8681818,
                "pitch": 38,
                "velocity": 80,
                "duration": 0.1022727,
                "tempo": 120.0
            },
            {
                "start_time": 44.0681818,
                "end_time": 44.2681818,
                "pitch": 38,
                "velocity": 80,
                "duration": 0.2,
                "tempo": 120.0
            },
            {
                "start_time": 44.2704545,
                "end_time": 44.3681818,
                "pitch": 38,
                "velocity": 80,
                "duration": 0.0977273,
                "tempo": 120.0
            },
            {
                "start_time": 44.3681818,
                "end_time": 44.4681818,
                "pitch": 38,
                "velocity": 80,
                "duration": 0.1,
                "tempo": 120.0
            },
            {
                "start_time": 44.4704545,
                "end_time": 44.5681818,
                "pitch": 38,
                "velocity": 80,
                "duration": 0.0977273,
                "tempo": 120.0
            },
            {
                "start_time": 44.5704545,
                "end_time": 44.6704545,
                "pitch": 38,
                "velocity": 80,
                "duration": 0.1,
                "tempo": 120.0
            },
            {
                "start_time": 45.0727273,
                "end_time": 45.1704545,
                "pitch": 41,
                "velocity": 80,
                "duration": 0.0977273,
                "tempo": 120.0
            },
            {
                "start_time": 45.1704545,
                "end_time": 45.2704545,
                "pitch": 41,
                "velocity": 80,
                "duration": 0.1,
                "tempo": 120.0
            },
            {
                "start_time": 45.2727273,
                "end_time": 45.3727273,
                "pitch": 41,
                "velocity": 80,
                "duration": 0.1,
                "tempo": 120.0
            },
            {
                "start_time": 45.3727273,
                "end_time": 45.4727273,
                "pitch": 41,
                "velocity": 80,
                "duration": 0.1,
                "tempo": 120.0
            },
            {
                "start_time": 45.675,
                "end_time": 45.8727273,
                "pitch": 41,
                "velocity": 80,
                "duration": 0.1977273,
                "tempo": 120.0
            },
            {
                "start_time": 45.875,
                "end_time": 45.9727273,
                "pitch": 41,
                "velocity": 80,
                "duration": 0.0977273,
                "tempo": 120.0
            },
            {
                "start_time": 45.975,
                "end_time": 46.0727273,
                "pitch": 41,
                "velocity": 80,
                "duration": 0.0977273,
                "tempo": 120.0
            },
            {
                "start_time": 46.075,
                "end_time": 46.175,
                "pitch": 41,
                "velocity": 80,
                "duration": 0.1,
                "tempo": 120.0
            },
            {
                "start_time": 46.175,
                "end_time": 46.275,
                "pitch": 41,
                "velocity": 80,
                "duration": 0.1,
                "tempo": 120.0
            },
            {
                "start_time": 46.6772727,
                "end_time": 46.775,
                "pitch": 41,
                "velocity": 80,
                "duration": 0.0977273,
                "tempo": 120.0
            },
            {
                "start_time": 46.775,
                "end_time": 46.875,
                "pitch": 41,
                "velocity": 80,
                "duration": 0.1,
                "tempo": 120.0
            },
            {
                "start_time": 46.875,
                "end_time": 46.975,
                "pitch": 41,
                "velocity": 80,
                "duration": 0.1,
                "tempo": 120.0
            },
            {
                "start_time": 46.975,
                "end_time": 47.075,
                "pitch": 41,
                "velocity": 80,
                "duration": 0.1,
                "tempo": 120.0
            },
            {
                "start_time": 47.2772727,
                "end_time": 47.4772727,
                "pitch": 41,
                "velocity": 80,
                "duration": 0.2,
                "tempo": 120.0
            },
            {
                "start_time": 47.4795455,
                "end_time": 47.5772727,
                "pitch": 41,
                "velocity": 80,
                "duration": 0.0977273,
                "tempo": 120.0
            },
            {
                "start_time": 47.5795455,
                "end_time": 47.6772727,
                "pitch": 41,
                "velocity": 80,
                "duration": 0.0977273,
                "tempo": 120.0
            },
            {
                "start_time": 47.6795455,
                "end_time": 47.7795455,
                "pitch": 41,
                "velocity": 80,
                "duration": 0.1,
                "tempo": 120.0
            },
            {
                "start_time": 47.7795455,
                "end_time": 47.8795455,
                "pitch": 41,
                "velocity": 80,
                "duration": 0.1,
                "tempo": 120.0
            },
            {
                "start_time": 48.2818182,
                "end_time": 48.3795455,
                "pitch": 45,
                "velocity": 80,
                "duration": 0.0977273,
                "tempo": 120.0
            },
            {
                "start_time": 48.3795455,
                "end_time": 48.4795455,
                "pitch": 45,
                "velocity": 80,
                "duration": 0.1,
                "tempo": 120.0
            },
            {
                "start_time": 48.4818182,
                "end_time": 48.5795455,
                "pitch": 45,
                "velocity": 80,
                "duration": 0.0977273,
                "tempo": 120.0
            },
            {
                "start_time": 48.5795455,
                "end_time": 48.6795455,
                "pitch": 45,
                "velocity": 80,
                "duration": 0.1,
                "tempo": 120.0
            },
            {
                "start_time": 48.8795455,
                "end_time": 49.0795455,
                "pitch": 45,
                "velocity": 80,
                "duration": 0.2,
                "tempo": 120.0
            },
            {
                "start_time": 49.0818182,
                "end_time": 49.1818182,
                "pitch": 45,
                "velocity": 80,
                "duration": 0.1,
                "tempo": 120.0
            },
            {
                "start_time": 49.1818182,
                "end_time": 49.2818182,
                "pitch": 45,
                "velocity": 80,
                "duration": 0.1,
                "tempo": 120.0
            },
            {
                "start_time": 49.2818182,
                "end_time": 49.3818182,
                "pitch": 45,
                "velocity": 80,
                "duration": 0.1,
                "tempo": 120.0
            },
            {
                "start_time": 49.3840909,
                "end_time": 49.4840909,
                "pitch": 45,
                "velocity": 80,
                "duration": 0.1,
                "tempo": 120.0
            },
            {
                "start_time": 49.8863636,
                "end_time": 50.0886364,
                "pitch": 45,
                "velocity": 80,
                "duration": 0.2022727,
                "tempo": 120.0
            },
            {
                "start_time": 50.0909091,
                "end_time": 50.2954545,
                "pitch": 57,
                "velocity": 80,
                "duration": 0.2045455,
                "tempo": 120.0
            },
            {
                "start_time": 50.2977273,
                "end_time": 50.4977273,
                "pitch": 43,
                "velocity": 80,
                "duration": 0.2,
                "tempo": 120.0
            },
            {
                "start_time": 50.4977273,
                "end_time": 50.6977273,
                "pitch": 55,
                "velocity": 80,
                "duration": 0.2,
                "tempo": 120.0
            },
            {
                "start_time": 50.7,
                "end_time": 50.8977273,
                "pitch": 41,
                "velocity": 80,
                "duration": 0.1977273,
                "tempo": 120.0
            },
            {
                "start_time": 50.9,
                "end_time": 51.0977273,
                "pitch": 53,
                "velocity": 80,
                "duration": 0.1977273,
                "tempo": 120.0
            },
            {
                "start_time": 51.1,
                "end_time": 51.2954545,
                "pitch": 39,
                "velocity": 80,
                "duration": 0.1954545,
                "tempo": 120.0
            },
            {
                "start_time": 51.2954545,
                "end_time": 51.4909091,
                "pitch": 51,
                "velocity": 80,
                "duration": 0.1954545,
                "tempo": 120.0
            },
            {
                "start_time": 51.4931818,
                "end_time": 51.5886364,
                "pitch": 38,
                "velocity": 101,
                "duration": 0.0954545,
                "tempo": 120.0
            },
            {
                "start_time": 51.5909091,
                "end_time": 51.7886364,
                "pitch": 38,
                "velocity": 101,
                "duration": 0.1977273,
                "tempo": 120.0
            },
            {
                "start_time": 51.7909091,
                "end_time": 51.9931818,
                "pitch": 38,
                "velocity": 101,
                "duration": 0.2022727,
                "tempo": 120.0
            },
            {
                "start_time": 51.9931818,
                "end_time": 52.0954545,
                "pitch": 48,
                "velocity": 101,
                "duration": 0.1022727,
                "tempo": 120.0
            },
            {
                "start_time": 52.0954545,
                "end_time": 52.2,
                "pitch": 50,
                "velocity": 101,
                "duration": 0.1045455,
                "tempo": 120.0
            },
            {
                "start_time": 52.2,
                "end_time": 52.3022727,
                "pitch": 38,
                "velocity": 101,
                "duration": 0.1022727,
                "tempo": 120.0
            },
            {
                "start_time": 52.3022727,
                "end_time": 52.5068182,
                "pitch": 48,
                "velocity": 101,
                "duration": 0.2045455,
                "tempo": 120.0
            },
            {
                "start_time": 52.5068182,
                "end_time": 52.6068182,
                "pitch": 38,
                "velocity": 101,
                "duration": 0.1,
                "tempo": 120.0
            },
            {
                "start_time": 52.6090909,
                "end_time": 52.7045455,
                "pitch": 36,
                "velocity": 101,
                "duration": 0.0954545,
                "tempo": 120.0
            },
            {
                "start_time": 52.7045455,
                "end_time": 53.0045455,
                "pitch": 46,
                "velocity": 101,
                "duration": 0.3,
                "tempo": 120.0
            },
            {
                "start_time": 53.0045455,
                "end_time": 53.1068182,
                "pitch": 38,
                "velocity": 101,
                "duration": 0.1022727,
                "tempo": 120.0
            },
            {
                "start_time": 53.1068182,
                "end_time": 53.2045455,
                "pitch": 46,
                "velocity": 101,
                "duration": 0.0977273,
                "tempo": 120.0
            },
            {
                "start_time": 53.2068182,
                "end_time": 53.4045455,
                "pitch": 45,
                "velocity": 101,
                "duration": 0.1977273,
                "tempo": 120.0
            },
            {
                "start_time": 53.4068182,
                "end_time": 53.7045455,
                "pitch": 38,
                "velocity": 101,
                "duration": 0.2977273,
                "tempo": 120.0
            },
            {
                "start_time": 53.7068182,
                "end_time": 53.9068182,
                "pitch": 43,
                "velocity": 101,
                "duration": 0.2,
                "tempo": 120.0
            },
            {
                "start_time": 53.9068182,
                "end_time": 54.0068182,
                "pitch": 53,
                "velocity": 101,
                "duration": 0.1,
                "tempo": 120.0
            },
            {
                "start_time": 54.0068182,
                "end_time": 54.1113636,
                "pitch": 55,
                "velocity": 101,
                "duration": 0.1045455,
                "tempo": 120.0
            },
            {
                "start_time": 54.0068182,
                "end_time": 54.2113636,
                "pitch": 43,
                "velocity": 101,
                "duration": 0.2045455,
                "tempo": 120.0
            },
            {
                "start_time": 54.1113636,
                "end_time": 54.2113636,
                "pitch": 43,
                "velocity": 101,
                "duration": 0.1,
                "tempo": 120.0
            },
            {
                "start_time": 54.2113636,
                "end_time": 54.3068182,
                "pitch": 53,
                "velocity": 101,
                "duration": 0.0954545,
                "tempo": 120.0
            },
            {
                "start_time": 54.3068182,
                "end_time": 54.4090909,
                "pitch": 55,
                "velocity": 101,
                "duration": 0.1022727,
                "tempo": 120.0
            },
            {
                "start_time": 54.3068182,
                "end_time": 54.5090909,
                "pitch": 43,
                "velocity": 101,
                "duration": 0.2022727,
                "tempo": 120.0
            },
            {
                "start_time": 54.4090909,
                "end_time": 54.5090909,
                "pitch": 43,
                "velocity": 101,
                "duration": 0.1,
                "tempo": 120.0
            },
            {
                "start_time": 54.5090909,
                "end_time": 54.6090909,
                "pitch": 55,
                "velocity": 101,
                "duration": 0.1,
                "tempo": 120.0
            },
            {
                "start_time": 53.0045455,
                "end_time": 54.7113636,
                "pitch": 50,
                "velocity": 101,
                "duration": 1.7068182,
                "tempo": 120.0
            },
            {
                "start_time": 54.6090909,
                "end_time": 54.7113636,
                "pitch": 50,
                "velocity": 101,
                "duration": 0.1022727,
                "tempo": 120.0
            },
            {
                "start_time": 54.7113636,
                "end_time": 54.8090909,
                "pitch": 36,
                "velocity": 101,
                "duration": 0.0977273,
                "tempo": 120.0
            },
            {
                "start_time": 54.8113636,
                "end_time": 55.0090909,
                "pitch": 36,
                "velocity": 101,
                "duration": 0.1977273,
                "tempo": 120.0
            },
            {
                "start_time": 55.0113636,
                "end_time": 55.1090909,
                "pitch": 36,
                "velocity": 101,
                "duration": 0.0977273,
                "tempo": 120.0
            },
            {
                "start_time": 55.1113636,
                "end_time": 55.3113636,
                "pitch": 46,
                "velocity": 101,
                "duration": 0.2,
                "tempo": 120.0
            },
            {
                "start_time": 55.3113636,
                "end_time": 55.4113636,
                "pitch": 36,
                "velocity": 101,
                "duration": 0.1,
                "tempo": 120.0
            },
            {
                "start_time": 55.4113636,
                "end_time": 55.5113636,
                "pitch": 36,
                "velocity": 101,
                "duration": 0.1,
                "tempo": 120.0
            },
            {
                "start_time": 55.5113636,
                "end_time": 55.7159091,
                "pitch": 46,
                "velocity": 101,
                "duration": 0.2045455,
                "tempo": 120.0
            },
            {
                "start_time": 55.7159091,
                "end_time": 55.8159091,
                "pitch": 36,
                "velocity": 101,
                "duration": 0.1,
                "tempo": 120.0
            },
            {
                "start_time": 55.8159091,
                "end_time": 55.9113636,
                "pitch": 34,
                "velocity": 101,
                "duration": 0.0954545,
                "tempo": 120.0
            },
            {
                "start_time": 55.9136364,
                "end_time": 56.1159091,
                "pitch": 45,
                "velocity": 101,
                "duration": 0.2022727,
                "tempo": 120.0
            },
            {
                "start_time": 56.1181818,
                "end_time": 56.2204545,
                "pitch": 41,
                "velocity": 101,
                "duration": 0.1022727,
                "tempo": 120.0
            },
            {
                "start_time": 56.2204545,
                "end_time": 56.3227273,
                "pitch": 36,
                "velocity": 101,
                "duration": 0.1022727,
                "tempo": 120.0
            },
            {
                "start_time": 56.325,
                "end_time": 56.5181818,
                "pitch": 41,
                "velocity": 101,
                "duration": 0.1931818,
                "tempo": 120.0
            },
            {
                "start_time": 56.5204545,
                "end_time": 56.7159091,
                "pitch": 53,
                "velocity": 101,
                "duration": 0.1954545,
                "tempo": 120.0
            },
            {
                "start_time": 56.7159091,
                "end_time": 56.8159091,
                "pitch": 39,
                "velocity": 101,
                "duration": 0.1,
                "tempo": 120.0
            },
            {
                "start_time": 56.8159091,
                "end_time": 57.0159091,
                "pitch": 51,
                "velocity": 101,
                "duration": 0.2,
                "tempo": 120.0
            },
            {
                "start_time": 57.0159091,
                "end_time": 57.1159091,
                "pitch": 36,
                "velocity": 101,
                "duration": 0.1,
                "tempo": 120.0
            },
            {
                "start_time": 57.1159091,
                "end_time": 57.2159091,
                "pitch": 48,
                "velocity": 101,
                "duration": 0.1,
                "tempo": 120.0
            },
            {
                "start_time": 57.2159091,
                "end_time": 57.3204545,
                "pitch": 50,
                "velocity": 101,
                "duration": 0.1045455,
                "tempo": 120.0
            },
            {
                "start_time": 57.3204545,
                "end_time": 57.4204545,
                "pitch": 36,
                "velocity": 101,
                "duration": 0.1,
                "tempo": 120.0
            },
            {
                "start_time": 57.4204545,
                "end_time": 57.5159091,
                "pitch": 36,
                "velocity": 101,
                "duration": 0.0954545,
                "tempo": 120.0
            },
            {
                "start_time": 57.5181818,
                "end_time": 57.6159091,
                "pitch": 50,
                "velocity": 101,
                "duration": 0.0977273,
                "tempo": 120.0
            },
            {
                "start_time": 57.6159091,
                "end_time": 57.7159091,
                "pitch": 38,
                "velocity": 101,
                "duration": 0.1,
                "tempo": 120.0
            },
            {
                "start_time": 57.7181818,
                "end_time": 57.9181818,
                "pitch": 51,
                "velocity": 101,
                "duration": 0.2,
                "tempo": 120.0
            },
            {
                "start_time": 57.9181818,
                "end_time": 58.0159091,
                "pitch": 38,
                "velocity": 101,
                "duration": 0.0977273,
                "tempo": 120.0
            },
            {
                "start_time": 58.0181818,
                "end_time": 58.2159091,
                "pitch": 38,
                "velocity": 101,
                "duration": 0.1977273,
                "tempo": 120.0
            },
            {
                "start_time": 58.2181818,
                "end_time": 58.4181818,
                "pitch": 38,
                "velocity": 101,
                "duration": 0.2,
                "tempo": 120.0
            },
            {
                "start_time": 57.3204545,
                "end_time": 58.5204545,
                "pitch": 48,
                "velocity": 101,
                "duration": 1.2,
                "tempo": 120.0
            },
            {
                "start_time": 58.4181818,
                "end_time": 58.5204545,
                "pitch": 48,
                "velocity": 101,
                "duration": 0.1022727,
                "tempo": 120.0
            },
            {
                "start_time": 58.5204545,
                "end_time": 58.6204545,
                "pitch": 50,
                "velocity": 101,
                "duration": 0.1,
                "tempo": 120.0
            },
            {
                "start_time": 58.6204545,
                "end_time": 58.7204545,
                "pitch": 38,
                "velocity": 101,
                "duration": 0.1,
                "tempo": 120.0
            },
            {
                "start_time": 58.7227273,
                "end_time": 58.925,
                "pitch": 48,
                "velocity": 101,
                "duration": 0.2022727,
                "tempo": 120.0
            },
            {
                "start_time": 58.925,
                "end_time": 59.025,
                "pitch": 38,
                "velocity": 101,
                "duration": 0.1,
                "tempo": 120.0
            },
            {
                "start_time": 59.025,
                "end_time": 59.1204545,
                "pitch": 36,
                "velocity": 101,
                "duration": 0.0954545,
                "tempo": 120.0
            },
            {
                "start_time": 59.1227273,
                "end_time": 59.4227273,
                "pitch": 46,
                "velocity": 101,
                "duration": 0.3,
                "tempo": 120.0
            },
            {
                "start_time": 59.4227273,
                "end_time": 59.5227273,
                "pitch": 38,
                "velocity": 101,
                "duration": 0.1,
                "tempo": 120.0
            },
            {
                "start_time": 59.5227273,
                "end_time": 59.6204545,
                "pitch": 46,
                "velocity": 101,
                "duration": 0.0977273,
                "tempo": 120.0
            },
            {
                "start_time": 59.6227273,
                "end_time": 59.8227273,
                "pitch": 45,
                "velocity": 101,
                "duration": 0.2,
                "tempo": 120.0
            },
            {
                "start_time": 59.8227273,
                "end_time": 60.1272727,
                "pitch": 38,
                "velocity": 101,
                "duration": 0.3045455,
                "tempo": 120.0
            },
            {
                "start_time": 60.1295455,
                "end_time": 60.3340909,
                "pitch": 43,
                "velocity": 101,
                "duration": 0.2045455,
                "tempo": 120.0
            },
            {
                "start_time": 60.3340909,
                "end_time": 60.4340909,
                "pitch": 53,
                "velocity": 101,
                "duration": 0.1,
                "tempo": 120.0
            },
            {
                "start_time": 60.4340909,
                "end_time": 60.5386364,
                "pitch": 55,
                "velocity": 101,
                "duration": 0.1045455,
                "tempo": 120.0
            },
            {
                "start_time": 60.4340909,
                "end_time": 60.6363636,
                "pitch": 43,
                "velocity": 101,
                "duration": 0.2022727,
                "tempo": 120.0
            },
            {
                "start_time": 60.5386364,
                "end_time": 60.6363636,
                "pitch": 43,
                "velocity": 101,
                "duration": 0.0977273,
                "tempo": 120.0
            },
            {
                "start_time": 60.6386364,
                "end_time": 60.7340909,
                "pitch": 53,
                "velocity": 101,
                "duration": 0.0954545,
                "tempo": 120.0
            },
            {
                "start_time": 60.7340909,
                "end_time": 60.8340909,
                "pitch": 55,
                "velocity": 101,
                "duration": 0.1,
                "tempo": 120.0
            },
            {
                "start_time": 60.7340909,
                "end_time": 60.9340909,
                "pitch": 43,
                "velocity": 101,
                "duration": 0.2,
                "tempo": 120.0
            },
            {
                "start_time": 60.8340909,
                "end_time": 60.9340909,
                "pitch": 43,
                "velocity": 101,
                "duration": 0.1,
                "tempo": 120.0
            },
            {
                "start_time": 60.9340909,
                "end_time": 61.0340909,
                "pitch": 55,
                "velocity": 101,
                "duration": 0.1,
                "tempo": 120.0
            },
            {
                "start_time": 59.4227273,
                "end_time": 61.1340909,
                "pitch": 50,
                "velocity": 101,
                "duration": 1.7113636,
                "tempo": 120.0
            },
            {
                "start_time": 61.0340909,
                "end_time": 61.1340909,
                "pitch": 50,
                "velocity": 101,
                "duration": 0.1,
                "tempo": 120.0
            },
            {
                "start_time": 61.1363636,
                "end_time": 61.2340909,
                "pitch": 46,
                "velocity": 101,
                "duration": 0.0977273,
                "tempo": 120.0
            },
            {
                "start_time": 61.2363636,
                "end_time": 61.4340909,
                "pitch": 53,
                "velocity": 101,
                "duration": 0.1977273,
                "tempo": 120.0
            },
            {
                "start_time": 61.4363636,
                "end_time": 61.7340909,
                "pitch": 50,
                "velocity": 101,
                "duration": 0.2977273,
                "tempo": 120.0
            },
            {
                "start_time": 61.7363636,
                "end_time": 61.9363636,
                "pitch": 46,
                "velocity": 101,
                "duration": 0.2,
                "tempo": 120.0
            },
            {
                "start_time": 61.9363636,
                "end_time": 62.2409091,
                "pitch": 44,
                "velocity": 101,
                "duration": 0.3045455,
                "tempo": 120.0
            },
            {
                "start_time": 62.2431818,
                "end_time": 62.5386364,
                "pitch": 45,
                "velocity": 101,
                "duration": 0.2954545,
                "tempo": 120.0
            },
            {
                "start_time": 62.5386364,
                "end_time": 62.7409091,
                "pitch": 46,
                "velocity": 101,
                "duration": 0.2022727,
                "tempo": 120.0
            }
        ],
        "Electric Piano 1": [
            {
                "start_time": 12.8977273,
                "end_time": 13.1,
                "pitch": 55,
                "velocity": 80,
                "duration": 0.2022727,
                "tempo": 120.0
            },
            {
                "start_time": 13.1022727,
                "end_time": 13.3068182,
                "pitch": 57,
                "velocity": 80,
                "duration": 0.2045455,
                "tempo": 120.0
            },
            {
                "start_time": 13.3068182,
                "end_time": 13.5068182,
                "pitch": 58,
                "velocity": 80,
                "duration": 0.2,
                "tempo": 120.0
            },
            {
                "start_time": 13.5090909,
                "end_time": 13.7090909,
                "pitch": 60,
                "velocity": 80,
                "duration": 0.2,
                "tempo": 120.0
            },
            {
                "start_time": 13.7113636,
                "end_time": 14.1113636,
                "pitch": 62,
                "velocity": 80,
                "duration": 0.4,
                "tempo": 120.0
            },
            {
                "start_time": 14.1136364,
                "end_time": 14.5136364,
                "pitch": 60,
                "velocity": 80,
                "duration": 0.4,
                "tempo": 120.0
            },
            {
                "start_time": 14.5159091,
                "end_time": 14.9159091,
                "pitch": 58,
                "velocity": 80,
                "duration": 0.4,
                "tempo": 120.0
            },
            {
                "start_time": 14.9181818,
                "end_time": 15.3181818,
                "pitch": 65,
                "velocity": 80,
                "duration": 0.4,
                "tempo": 120.0
            },
            {
                "start_time": 15.3204545,
                "end_time": 15.5204545,
                "pitch": 63,
                "velocity": 80,
                "duration": 0.2,
                "tempo": 120.0
            },
            {
                "start_time": 15.5227273,
                "end_time": 16.125,
                "pitch": 62,
                "velocity": 80,
                "duration": 0.6022727,
                "tempo": 120.0
            },
            {
                "start_time": 16.1272727,
                "end_time": 16.525,
                "pitch": 63,
                "velocity": 80,
                "duration": 0.3977273,
                "tempo": 120.0
            },
            {
                "start_time": 16.5272727,
                "end_time": 16.7272727,
                "pitch": 65,
                "velocity": 80,
                "duration": 0.2,
                "tempo": 120.0
            },
            {
                "start_time": 16.7295455,
                "end_time": 17.1295455,
                "pitch": 58,
                "velocity": 80,
                "duration": 0.4,
                "tempo": 120.0
            },
            {
                "start_time": 17.1318182,
                "end_time": 17.5295455,
                "pitch": 60,
                "velocity": 80,
                "duration": 0.3977273,
                "tempo": 120.0
            },
            {
                "start_time": 17.5318182,
                "end_time": 17.9363636,
                "pitch": 62,
                "velocity": 80,
                "duration": 0.4045455,
                "tempo": 120.0
            },
            {
                "start_time": 17.9386364,
                "end_time": 18.1409091,
                "pitch": 60,
                "velocity": 80,
                "duration": 0.2022727,
                "tempo": 120.0
            },
            {
                "start_time": 18.1431818,
                "end_time": 18.3431818,
                "pitch": 62,
                "velocity": 80,
                "duration": 0.2,
                "tempo": 120.0
            },
            {
                "start_time": 18.3454545,
                "end_time": 18.5454545,
                "pitch": 60,
                "velocity": 80,
                "duration": 0.2,
                "tempo": 120.0
            },
            {
                "start_time": 18.5477273,
                "end_time": 18.7454545,
                "pitch": 58,
                "velocity": 80,
                "duration": 0.1977273,
                "tempo": 120.0
            },
            {
                "start_time": 18.7477273,
                "end_time": 19.1818182,
                "pitch": 55,
                "velocity": 80,
                "duration": 0.4340909,
                "tempo": 120.0
            },
            {
                "start_time": 19.1818182,
                "end_time": 19.2159091,
                "pitch": 55,
                "velocity": 80,
                "duration": 0.0340909,
                "tempo": 120.0
            },
            {
                "start_time": 19.2159091,
                "end_time": 19.35,
                "pitch": 55,
                "velocity": 80,
                "duration": 0.1340909,
                "tempo": 120.0
            },
            {
                "start_time": 19.3522727,
                "end_time": 19.75,
                "pitch": 55,
                "velocity": 80,
                "duration": 0.3977273,
                "tempo": 120.0
            },
            {
                "start_time": 19.75,
                "end_time": 20.15,
                "pitch": 62,
                "velocity": 80,
                "duration": 0.4,
                "tempo": 120.0
            },
            {
                "start_time": 20.1522727,
                "end_time": 20.3522727,
                "pitch": 58,
                "velocity": 80,
                "duration": 0.2,
                "tempo": 120.0
            },
            {
                "start_time": 20.3522727,
                "end_time": 20.7522727,
                "pitch": 60,
                "velocity": 80,
                "duration": 0.4,
                "tempo": 120.0
            },
            {
                "start_time": 20.7545455,
                "end_time": 21.3568182,
                "pitch": 62,
                "velocity": 80,
                "duration": 0.6022727,
                "tempo": 120.0
            },
            {
                "start_time": 21.3590909,
                "end_time": 21.7568182,
                "pitch": 65,
                "velocity": 80,
                "duration": 0.3977273,
                "tempo": 120.0
            },
            {
                "start_time": 21.7590909,
                "end_time": 21.9568182,
                "pitch": 63,
                "velocity": 80,
                "duration": 0.1977273,
                "tempo": 120.0
            },
            {
                "start_time": 21.9590909,
                "end_time": 22.5613636,
                "pitch": 58,
                "velocity": 80,
                "duration": 0.6022727,
                "tempo": 120.0
            },
            {
                "start_time": 22.5636364,
                "end_time": 22.9613636,
                "pitch": 60,
                "velocity": 80,
                "duration": 0.3977273,
                "tempo": 120.0
            },
            {
                "start_time": 22.9636364,
                "end_time": 23.3636364,
                "pitch": 58,
                "velocity": 80,
                "duration": 0.4,
                "tempo": 120.0
            },
            {
                "start_time": 23.3659091,
                "end_time": 23.5636364,
                "pitch": 57,
                "velocity": 80,
                "duration": 0.1977273,
                "tempo": 120.0
            },
            {
                "start_time": 23.5659091,
                "end_time": 23.7659091,
                "pitch": 58,
                "velocity": 80,
                "duration": 0.2,
                "tempo": 120.0
            },
            {
                "start_time": 23.7659091,
                "end_time": 23.9659091,
                "pitch": 57,
                "velocity": 80,
                "duration": 0.2,
                "tempo": 120.0
            },
            {
                "start_time": 23.9681818,
                "end_time": 24.3681818,
                "pitch": 55,
                "velocity": 80,
                "duration": 0.4,
                "tempo": 120.0
            },
            {
                "start_time": 19.1818182,
                "end_time": 24.3681818,
                "pitch": 67,
                "velocity": 80,
                "duration": 5.1863636,
                "tempo": 120.0
            },
            {
                "start_time": 19.2159091,
                "end_time": 24.4022727,
                "pitch": 43,
                "velocity": 80,
                "duration": 5.1863636,
                "tempo": 120.0
            },
            {
                "start_time": 24.3681818,
                "end_time": 24.4022727,
                "pitch": 55,
                "velocity": 80,
                "duration": 0.0340909,
                "tempo": 120.0
            },
            {
                "start_time": 24.4022727,
                "end_time": 24.5363636,
                "pitch": 55,
                "velocity": 80,
                "duration": 0.1340909,
                "tempo": 120.0
            },
            {
                "start_time": 24.3681818,
                "end_time": 24.5363636,
                "pitch": 67,
                "velocity": 80,
                "duration": 0.1681818,
                "tempo": 120.0
            },
            {
                "start_time": 24.4022727,
                "end_time": 24.5704545,
                "pitch": 43,
                "velocity": 80,
                "duration": 0.1681818,
                "tempo": 120.0
            },
            {
                "start_time": 24.5363636,
                "end_time": 24.5704545,
                "pitch": 55,
                "velocity": 80,
                "duration": 0.0340909,
                "tempo": 120.0
            },
            {
                "start_time": 24.5704545,
                "end_time": 24.7068182,
                "pitch": 55,
                "velocity": 80,
                "duration": 0.1363636,
                "tempo": 120.0
            },
            {
                "start_time": 24.5363636,
                "end_time": 24.7068182,
                "pitch": 67,
                "velocity": 80,
                "duration": 0.1704545,
                "tempo": 120.0
            },
            {
                "start_time": 24.5704545,
                "end_time": 24.7409091,
                "pitch": 43,
                "velocity": 80,
                "duration": 0.1704545,
                "tempo": 120.0
            },
            {
                "start_time": 24.7068182,
                "end_time": 24.7409091,
                "pitch": 55,
                "velocity": 80,
                "duration": 0.0340909,
                "tempo": 120.0
            },
            {
                "start_time": 24.7409091,
                "end_time": 24.8795455,
                "pitch": 55,
                "velocity": 80,
                "duration": 0.1386364,
                "tempo": 120.0
            },
            {
                "start_time": 24.7068182,
                "end_time": 24.8795455,
                "pitch": 67,
                "velocity": 80,
                "duration": 0.1727273,
                "tempo": 120.0
            },
            {
                "start_time": 24.7409091,
                "end_time": 24.9136364,
                "pitch": 43,
                "velocity": 80,
                "duration": 0.1727273,
                "tempo": 120.0
            },
            {
                "start_time": 24.8795455,
                "end_time": 24.9136364,
                "pitch": 55,
                "velocity": 80,
                "duration": 0.0340909,
                "tempo": 120.0
            },
            {
                "start_time": 24.9136364,
                "end_time": 24.9795455,
                "pitch": 55,
                "velocity": 80,
                "duration": 0.0659091,
                "tempo": 120.0
            },
            {
                "start_time": 24.9818182,
                "end_time": 25.0795455,
                "pitch": 70,
                "velocity": 101,
                "duration": 0.0977273,
                "tempo": 120.0
            },
            {
                "start_time": 25.0818182,
                "end_time": 25.1795455,
                "pitch": 69,
                "velocity": 101,
                "duration": 0.0977273,
                "tempo": 120.0
            },
            {
                "start_time": 24.8795455,
                "end_time": 25.2795455,
                "pitch": 67,
                "velocity": 80,
                "duration": 0.4,
                "tempo": 120.0
            },
            {
                "start_time": 25.1818182,
                "end_time": 25.2795455,
                "pitch": 67,
                "velocity": 101,
                "duration": 0.0977273,
                "tempo": 120.0
            },
            {
                "start_time": 25.2818182,
                "end_time": 25.3795455,
                "pitch": 65,
                "velocity": 101,
                "duration": 0.0977273,
                "tempo": 120.0
            },
            {
                "start_time": 25.3818182,
                "end_time": 25.4795455,
                "pitch": 67,
                "velocity": 101,
                "duration": 0.0977273,
                "tempo": 120.0
            },
            {
                "start_time": 25.4795455,
                "end_time": 25.5772727,
                "pitch": 69,
                "velocity": 101,
                "duration": 0.0977273,
                "tempo": 120.0
            },
            {
                "start_time": 25.5795455,
                "end_time": 25.675,
                "pitch": 70,
                "velocity": 101,
                "duration": 0.0954545,
                "tempo": 120.0
            },
            {
                "start_time": 25.6772727,
                "end_time": 25.7727273,
                "pitch": 72,
                "velocity": 101,
                "duration": 0.0954545,
                "tempo": 120.0
            },
            {
                "start_time": 25.7772727,
                "end_time": 25.9727273,
                "pitch": 55,
                "velocity": 80,
                "duration": 0.1954545,
                "tempo": 120.0
            },
            {
                "start_time": 25.975,
                "end_time": 26.175,
                "pitch": 57,
                "velocity": 80,
                "duration": 0.2,
                "tempo": 120.0
            },
            {
                "start_time": 26.175,
                "end_time": 26.3795455,
                "pitch": 58,
                "velocity": 80,
                "duration": 0.2045455,
                "tempo": 120.0
            },
            {
                "start_time": 26.3818182,
                "end_time": 26.5863636,
                "pitch": 60,
                "velocity": 80,
                "duration": 0.2045455,
                "tempo": 120.0
            },
            {
                "start_time": 26.5863636,
                "end_time": 26.9886364,
                "pitch": 62,
                "velocity": 80,
                "duration": 0.4022727,
                "tempo": 120.0
            },
            {
                "start_time": 26.9909091,
                "end_time": 27.3886364,
                "pitch": 60,
                "velocity": 80,
                "duration": 0.3977273,
                "tempo": 120.0
            },
            {
                "start_time": 27.3909091,
                "end_time": 27.7931818,
                "pitch": 58,
                "velocity": 80,
                "duration": 0.4022727,
                "tempo": 120.0
            },
            {
                "start_time": 27.7931818,
                "end_time": 28.1931818,
                "pitch": 65,
                "velocity": 80,
                "duration": 0.4,
                "tempo": 120.0
            },
            {
                "start_time": 28.1954545,
                "end_time": 28.3931818,
                "pitch": 63,
                "velocity": 80,
                "duration": 0.1977273,
                "tempo": 120.0
            },
            {
                "start_time": 28.3954545,
                "end_time": 28.9977273,
                "pitch": 62,
                "velocity": 80,
                "duration": 0.6022727,
                "tempo": 120.0
            },
            {
                "start_time": 29.0,
                "end_time": 29.3977273,
                "pitch": 63,
                "velocity": 80,
                "duration": 0.3977273,
                "tempo": 120.0
            },
            {
                "start_time": 29.4,
                "end_time": 29.5977273,
                "pitch": 65,
                "velocity": 80,
                "duration": 0.1977273,
                "tempo": 120.0
            },
            {
                "start_time": 29.6,
                "end_time": 30.0,
                "pitch": 58,
                "velocity": 80,
                "duration": 0.4,
                "tempo": 120.0
            },
            {
                "start_time": 30.0022727,
                "end_time": 30.4,
                "pitch": 60,
                "velocity": 80,
                "duration": 0.3977273,
                "tempo": 120.0
            },
            {
                "start_time": 30.4022727,
                "end_time": 30.8022727,
                "pitch": 62,
                "velocity": 80,
                "duration": 0.4,
                "tempo": 120.0
            },
            {
                "start_time": 30.8045455,
                "end_time": 31.0045455,
                "pitch": 60,
                "velocity": 80,
                "duration": 0.2,
                "tempo": 120.0
            },
            {
                "start_time": 31.0068182,
                "end_time": 31.2045455,
                "pitch": 62,
                "velocity": 80,
                "duration": 0.1977273,
                "tempo": 120.0
            },
            {
                "start_time": 31.2068182,
                "end_time": 31.4045455,
                "pitch": 60,
                "velocity": 80,
                "duration": 0.1977273,
                "tempo": 120.0
            },
            {
                "start_time": 31.4068182,
                "end_time": 31.6068182,
                "pitch": 58,
                "velocity": 80,
                "duration": 0.2,
                "tempo": 120.0
            },
            {
                "start_time": 31.6090909,
                "end_time": 32.0590909,
                "pitch": 55,
                "velocity": 80,
                "duration": 0.45,
                "tempo": 120.0
            },
            {
                "start_time": 24.9136364,
                "end_time": 32.0931818,
                "pitch": 43,
                "velocity": 80,
                "duration": 7.1795455,
                "tempo": 120.0
            },
            {
                "start_time": 32.0590909,
                "end_time": 32.0931818,
                "pitch": 55,
                "velocity": 80,
                "duration": 0.0340909,
                "tempo": 120.0
            },
            {
                "start_time": 32.0931818,
                "end_time": 32.2090909,
                "pitch": 55,
                "velocity": 80,
                "duration": 0.1159091,
                "tempo": 120.0
            },
            {
                "start_time": 32.2113636,
                "end_time": 32.6113636,
                "pitch": 55,
                "velocity": 80,
                "duration": 0.4,
                "tempo": 120.0
            },
            {
                "start_time": 32.6136364,
                "end_time": 33.0227273,
                "pitch": 62,
                "velocity": 80,
                "duration": 0.4090909,
                "tempo": 120.0
            },
            {
                "start_time": 33.025,
                "end_time": 33.2227273,
                "pitch": 58,
                "velocity": 80,
                "duration": 0.1977273,
                "tempo": 120.0
            },
            {
                "start_time": 33.225,
                "end_time": 33.6204545,
                "pitch": 60,
                "velocity": 80,
                "duration": 0.3954545,
                "tempo": 120.0
            },
            {
                "start_time": 33.6227273,
                "end_time": 34.2272727,
                "pitch": 62,
                "velocity": 80,
                "duration": 0.6045455,
                "tempo": 120.0
            },
            {
                "start_time": 34.2295455,
                "end_time": 34.6295455,
                "pitch": 65,
                "velocity": 80,
                "duration": 0.4,
                "tempo": 120.0
            },
            {
                "start_time": 34.6295455,
                "end_time": 34.8295455,
                "pitch": 63,
                "velocity": 80,
                "duration": 0.2,
                "tempo": 120.0
            },
            {
                "start_time": 34.8295455,
                "end_time": 35.4227273,
                "pitch": 62,
                "velocity": 80,
                "duration": 0.5931818,
                "tempo": 120.0
            },
            {
                "start_time": 35.425,
                "end_time": 35.8318182,
                "pitch": 60,
                "velocity": 80,
                "duration": 0.4068182,
                "tempo": 120.0
            },
            {
                "start_time": 35.8340909,
                "end_time": 36.2340909,
                "pitch": 58,
                "velocity": 80,
                "duration": 0.4,
                "tempo": 120.0
            },
            {
                "start_time": 36.2363636,
                "end_time": 36.4340909,
                "pitch": 57,
                "velocity": 80,
                "duration": 0.1977273,
                "tempo": 120.0
            },
            {
                "start_time": 36.4363636,
                "end_time": 36.8340909,
                "pitch": 55,
                "velocity": 80,
                "duration": 0.3977273,
                "tempo": 120.0
            },
            {
                "start_time": 36.8363636,
                "end_time": 37.4340909,
                "pitch": 63,
                "velocity": 80,
                "duration": 0.5977273,
                "tempo": 120.0
            },
            {
                "start_time": 37.4363636,
                "end_time": 37.8386364,
                "pitch": 62,
                "velocity": 80,
                "duration": 0.4022727,
                "tempo": 120.0
            },
            {
                "start_time": 37.8409091,
                "end_time": 38.0386364,
                "pitch": 58,
                "velocity": 80,
                "duration": 0.1977273,
                "tempo": 120.0
            },
            {
                "start_time": 38.0409091,
                "end_time": 38.6386364,
                "pitch": 60,
                "velocity": 80,
                "duration": 0.5977273,
                "tempo": 120.0
            },
            {
                "start_time": 38.6431818,
                "end_time": 40.0431818,
                "pitch": 60,
                "velocity": 101,
                "duration": 1.4,
                "tempo": 120.0
            },
            {
                "start_time": 40.0454545,
                "end_time": 40.1431818,
                "pitch": 62,
                "velocity": 101,
                "duration": 0.0977273,
                "tempo": 120.0
            },
            {
                "start_time": 40.1454545,
                "end_time": 40.2454545,
                "pitch": 63,
                "velocity": 101,
                "duration": 0.1,
                "tempo": 120.0
            },
            {
                "start_time": 40.2454545,
                "end_time": 41.4568182,
                "pitch": 65,
                "velocity": 101,
                "duration": 1.2113636,
                "tempo": 120.0
            },
            {
                "start_time": 32.0590909,
                "end_time": 41.85,
                "pitch": 67,
                "velocity": 80,
                "duration": 9.7909091,
                "tempo": 120.0
            },
            {
                "start_time": 41.4590909,
                "end_time": 41.85,
                "pitch": 67,
                "velocity": 101,
                "duration": 0.3909091,
                "tempo": 120.0
            },
            {
                "start_time": 41.85,
                "end_time": 43.4545455,
                "pitch": 65,
                "velocity": 101,
                "duration": 1.6045455,
                "tempo": 120.0
            },
            {
                "start_time": 43.4568182,
                "end_time": 44.6659091,
                "pitch": 58,
                "velocity": 101,
                "duration": 1.2090909,
                "tempo": 120.0
            },
            {
                "start_time": 44.6681818,
                "end_time": 45.0681818,
                "pitch": 60,
                "velocity": 101,
                "duration": 0.4,
                "tempo": 120.0
            },
            {
                "start_time": 45.0681818,
                "end_time": 45.8704545,
                "pitch": 62,
                "velocity": 101,
                "duration": 0.8022727,
                "tempo": 120.0
            },
            {
                "start_time": 45.8727273,
                "end_time": 46.1704545,
                "pitch": 63,
                "velocity": 101,
                "duration": 0.2977273,
                "tempo": 120.0
            },
            {
                "start_time": 46.1727273,
                "end_time": 46.4704545,
                "pitch": 62,
                "velocity": 101,
                "duration": 0.2977273,
                "tempo": 120.0
            },
            {
                "start_time": 46.4727273,
                "end_time": 46.6727273,
                "pitch": 60,
                "velocity": 101,
                "duration": 0.2,
                "tempo": 120.0
            },
            {
                "start_time": 46.675,
                "end_time": 47.875,
                "pitch": 67,
                "velocity": 101,
                "duration": 1.2,
                "tempo": 120.0
            },
            {
                "start_time": 47.8772727,
                "end_time": 48.075,
                "pitch": 69,
                "velocity": 101,
                "duration": 0.1977273,
                "tempo": 120.0
            },
            {
                "start_time": 48.0772727,
                "end_time": 48.2772727,
                "pitch": 70,
                "velocity": 101,
                "duration": 0.2,
                "tempo": 120.0
            },
            {
                "start_time": 48.2795455,
                "end_time": 49.4795455,
                "pitch": 72,
                "velocity": 101,
                "duration": 1.2,
                "tempo": 120.0
            },
            {
                "start_time": 49.4818182,
                "end_time": 49.8818182,
                "pitch": 69,
                "velocity": 101,
                "duration": 0.4,
                "tempo": 120.0
            },
            {
                "start_time": 49.8840909,
                "end_time": 51.4886364,
                "pitch": 74,
                "velocity": 101,
                "duration": 1.6045455,
                "tempo": 120.0
            },
            {
                "start_time": 63.9454545,
                "end_time": 64.0431818,
                "pitch": 74,
                "velocity": 101,
                "duration": 0.0977273,
                "tempo": 120.0
            },
            {
                "start_time": 64.0454545,
                "end_time": 64.1454545,
                "pitch": 74,
                "velocity": 101,
                "duration": 0.1,
                "tempo": 120.0
            }
        ],
        "Harpsichord": [
            {
                "start_time": 52.5045455,
                "end_time": 52.5704545,
                "pitch": 67,
                "velocity": 127,
                "duration": 0.0659091,
                "tempo": 120.0
            },
            {
                "start_time": 52.6045455,
                "end_time": 52.6704545,
                "pitch": 67,
                "velocity": 127,
                "duration": 0.0659091,
                "tempo": 120.0
            },
            {
                "start_time": 54.1068182,
                "end_time": 54.1727273,
                "pitch": 67,
                "velocity": 127,
                "duration": 0.0659091,
                "tempo": 120.0
            },
            {
                "start_time": 54.2068182,
                "end_time": 54.2727273,
                "pitch": 67,
                "velocity": 127,
                "duration": 0.0659091,
                "tempo": 120.0
            },
            {
                "start_time": 55.7136364,
                "end_time": 55.7772727,
                "pitch": 65,
                "velocity": 127,
                "duration": 0.0636364,
                "tempo": 120.0
            },
            {
                "start_time": 55.8136364,
                "end_time": 55.8772727,
                "pitch": 65,
                "velocity": 127,
                "duration": 0.0636364,
                "tempo": 120.0
            },
            {
                "start_time": 57.3181818,
                "end_time": 57.3818182,
                "pitch": 65,
                "velocity": 127,
                "duration": 0.0636364,
                "tempo": 120.0
            },
            {
                "start_time": 57.4181818,
                "end_time": 57.4818182,
                "pitch": 65,
                "velocity": 127,
                "duration": 0.0636364,
                "tempo": 120.0
            },
            {
                "start_time": 58.9227273,
                "end_time": 58.9863636,
                "pitch": 67,
                "velocity": 127,
                "duration": 0.0636364,
                "tempo": 120.0
            },
            {
                "start_time": 59.0227273,
                "end_time": 59.0863636,
                "pitch": 67,
                "velocity": 127,
                "duration": 0.0636364,
                "tempo": 120.0
            },
            {
                "start_time": 60.5363636,
                "end_time": 60.6,
                "pitch": 67,
                "velocity": 127,
                "duration": 0.0636364,
                "tempo": 120.0
            },
            {
                "start_time": 60.6340909,
                "end_time": 60.7,
                "pitch": 67,
                "velocity": 127,
                "duration": 0.0659091,
                "tempo": 120.0
            },
            {
                "start_time": 62.1386364,
                "end_time": 62.2045455,
                "pitch": 70,
                "velocity": 127,
                "duration": 0.0659091,
                "tempo": 120.0
            },
            {
                "start_time": 62.2386364,
                "end_time": 62.3045455,
                "pitch": 70,
                "velocity": 127,
                "duration": 0.0659091,
                "tempo": 120.0
            }
        ],
        "Acoustic Grand Piano": [
            {
                "start_time": 0.0295455,
                "end_time": 0.225,
                "pitch": 62,
                "velocity": 80,
                "duration": 0.1954545,
                "tempo": 120.0
            },
            {
                "start_time": 0.2272727,
                "end_time": 0.425,
                "pitch": 67,
                "velocity": 80,
                "duration": 0.1977273,
                "tempo": 120.0
            },
            {
                "start_time": 0.4272727,
                "end_time": 0.6272727,
                "pitch": 62,
                "velocity": 80,
                "duration": 0.2,
                "tempo": 120.0
            },
            {
                "start_time": 0.6272727,
                "end_time": 0.8272727,
                "pitch": 69,
                "velocity": 80,
                "duration": 0.2,
                "tempo": 120.0
            },
            {
                "start_time": 0.8272727,
                "end_time": 1.0272727,
                "pitch": 62,
                "velocity": 80,
                "duration": 0.2,
                "tempo": 120.0
            },
            {
                "start_time": 1.0272727,
                "end_time": 1.2272727,
                "pitch": 70,
                "velocity": 80,
                "duration": 0.2,
                "tempo": 120.0
            },
            {
                "start_time": 1.2272727,
                "end_time": 1.4272727,
                "pitch": 62,
                "velocity": 80,
                "duration": 0.2,
                "tempo": 120.0
            },
            {
                "start_time": 1.4272727,
                "end_time": 1.6272727,
                "pitch": 69,
                "velocity": 80,
                "duration": 0.2,
                "tempo": 120.0
            },
            {
                "start_time": 1.6295455,
                "end_time": 1.8295455,
                "pitch": 60,
                "velocity": 80,
                "duration": 0.2,
                "tempo": 120.0
            },
            {
                "start_time": 1.8295455,
                "end_time": 2.0318182,
                "pitch": 65,
                "velocity": 80,
                "duration": 0.2022727,
                "tempo": 120.0
            },
            {
                "start_time": 2.0318182,
                "end_time": 2.2318182,
                "pitch": 60,
                "velocity": 80,
                "duration": 0.2,
                "tempo": 120.0
            },
            {
                "start_time": 2.2318182,
                "end_time": 2.4318182,
                "pitch": 67,
                "velocity": 80,
                "duration": 0.2,
                "tempo": 120.0
            },
            {
                "start_time": 2.4318182,
                "end_time": 2.6318182,
                "pitch": 60,
                "velocity": 80,
                "duration": 0.2,
                "tempo": 120.0
            },
            {
                "start_time": 2.6318182,
                "end_time": 2.8318182,
                "pitch": 69,
                "velocity": 80,
                "duration": 0.2,
                "tempo": 120.0
            },
            {
                "start_time": 2.8318182,
                "end_time": 3.0318182,
                "pitch": 60,
                "velocity": 80,
                "duration": 0.2,
                "tempo": 120.0
            },
            {
                "start_time": 3.0340909,
                "end_time": 3.2318182,
                "pitch": 67,
                "velocity": 80,
                "duration": 0.1977273,
                "tempo": 120.0
            },
            {
                "start_time": 3.2340909,
                "end_time": 3.4386364,
                "pitch": 58,
                "velocity": 80,
                "duration": 0.2045455,
                "tempo": 120.0
            },
            {
                "start_time": 3.4386364,
                "end_time": 3.6431818,
                "pitch": 63,
                "velocity": 80,
                "duration": 0.2045455,
                "tempo": 120.0
            },
            {
                "start_time": 3.6454545,
                "end_time": 3.8431818,
                "pitch": 58,
                "velocity": 80,
                "duration": 0.1977273,
                "tempo": 120.0
            },
            {
                "start_time": 3.8454545,
                "end_time": 4.0431818,
                "pitch": 65,
                "velocity": 80,
                "duration": 0.1977273,
                "tempo": 120.0
            },
            {
                "start_time": 4.0454545,
                "end_time": 4.2409091,
                "pitch": 58,
                "velocity": 80,
                "duration": 0.1954545,
                "tempo": 120.0
            },
            {
                "start_time": 4.2409091,
                "end_time": 4.4363636,
                "pitch": 67,
                "velocity": 80,
                "duration": 0.1954545,
                "tempo": 120.0
            },
            {
                "start_time": 4.4386364,
                "end_time": 4.6386364,
                "pitch": 58,
                "velocity": 80,
                "duration": 0.2,
                "tempo": 120.0
            },
            {
                "start_time": 4.6409091,
                "end_time": 4.8409091,
                "pitch": 65,
                "velocity": 80,
                "duration": 0.2,
                "tempo": 120.0
            },
            {
                "start_time": 4.8409091,
                "end_time": 5.0454545,
                "pitch": 57,
                "velocity": 80,
                "duration": 0.2045455,
                "tempo": 120.0
            },
            {
                "start_time": 5.0477273,
                "end_time": 5.2522727,
                "pitch": 62,
                "velocity": 80,
                "duration": 0.2045455,
                "tempo": 120.0
            },
            {
                "start_time": 5.2522727,
                "end_time": 5.4522727,
                "pitch": 57,
                "velocity": 80,
                "duration": 0.2,
                "tempo": 120.0
            },
            {
                "start_time": 5.4545455,
                "end_time": 5.6545455,
                "pitch": 63,
                "velocity": 80,
                "duration": 0.2,
                "tempo": 120.0
            },
            {
                "start_time": 5.6568182,
                "end_time": 5.8545455,
                "pitch": 57,
                "velocity": 80,
                "duration": 0.1977273,
                "tempo": 120.0
            },
            {
                "start_time": 5.8568182,
                "end_time": 6.0545455,
                "pitch": 65,
                "velocity": 80,
                "duration": 0.1977273,
                "tempo": 120.0
            },
            {
                "start_time": 6.0568182,
                "end_time": 6.2568182,
                "pitch": 57,
                "velocity": 80,
                "duration": 0.2,
                "tempo": 120.0
            },
            {
                "start_time": 6.2590909,
                "end_time": 6.4590909,
                "pitch": 67,
                "velocity": 80,
                "duration": 0.2,
                "tempo": 120.0
            },
            {
                "start_time": 6.4613636,
                "end_time": 6.6590909,
                "pitch": 62,
                "velocity": 80,
                "duration": 0.1977273,
                "tempo": 120.0
            },
            {
                "start_time": 6.6590909,
                "end_time": 6.8590909,
                "pitch": 67,
                "velocity": 80,
                "duration": 0.2,
                "tempo": 120.0
            },
            {
                "start_time": 6.8613636,
                "end_time": 7.0613636,
                "pitch": 62,
                "velocity": 80,
                "duration": 0.2,
                "tempo": 120.0
            },
            {
                "start_time": 7.0613636,
                "end_time": 7.2613636,
                "pitch": 69,
                "velocity": 80,
                "duration": 0.2,
                "tempo": 120.0
            },
            {
                "start_time": 7.2636364,
                "end_time": 7.4636364,
                "pitch": 62,
                "velocity": 80,
                "duration": 0.2,
                "tempo": 120.0
            },
            {
                "start_time": 7.4659091,
                "end_time": 7.6659091,
                "pitch": 70,
                "velocity": 80,
                "duration": 0.2,
                "tempo": 120.0
            },
            {
                "start_time": 7.6659091,
                "end_time": 7.8659091,
                "pitch": 62,
                "velocity": 80,
                "duration": 0.2,
                "tempo": 120.0
            },
            {
                "start_time": 7.8659091,
                "end_time": 8.0659091,
                "pitch": 69,
                "velocity": 80,
                "duration": 0.2,
                "tempo": 120.0
            },
            {
                "start_time": 8.0681818,
                "end_time": 8.2659091,
                "pitch": 60,
                "velocity": 80,
                "duration": 0.1977273,
                "tempo": 120.0
            },
            {
                "start_time": 8.2681818,
                "end_time": 8.4659091,
                "pitch": 65,
                "velocity": 80,
                "duration": 0.1977273,
                "tempo": 120.0
            },
            {
                "start_time": 8.4681818,
                "end_time": 8.6681818,
                "pitch": 60,
                "velocity": 80,
                "duration": 0.2,
                "tempo": 120.0
            },
            {
                "start_time": 8.6681818,
                "end_time": 8.8704545,
                "pitch": 67,
                "velocity": 80,
                "duration": 0.2022727,
                "tempo": 120.0
            },
            {
                "start_time": 8.8704545,
                "end_time": 9.0704545,
                "pitch": 60,
                "velocity": 80,
                "duration": 0.2,
                "tempo": 120.0
            },
            {
                "start_time": 9.0727273,
                "end_time": 9.2727273,
                "pitch": 69,
                "velocity": 80,
                "duration": 0.2,
                "tempo": 120.0
            },
            {
                "start_time": 9.275,
                "end_time": 9.475,
                "pitch": 60,
                "velocity": 80,
                "duration": 0.2,
                "tempo": 120.0
            },
            {
                "start_time": 9.475,
                "end_time": 9.6772727,
                "pitch": 67,
                "velocity": 80,
                "duration": 0.2022727,
                "tempo": 120.0
            },
            {
                "start_time": 9.6772727,
                "end_time": 9.8818182,
                "pitch": 58,
                "velocity": 80,
                "duration": 0.2045455,
                "tempo": 120.0
            },
            {
                "start_time": 9.8840909,
                "end_time": 10.0863636,
                "pitch": 63,
                "velocity": 80,
                "duration": 0.2022727,
                "tempo": 120.0
            },
            {
                "start_time": 10.0886364,
                "end_time": 10.2840909,
                "pitch": 58,
                "velocity": 80,
                "duration": 0.1954545,
                "tempo": 120.0
            },
            {
                "start_time": 10.2840909,
                "end_time": 10.4795455,
                "pitch": 65,
                "velocity": 80,
                "duration": 0.1954545,
                "tempo": 120.0
            },
            {
                "start_time": 10.4818182,
                "end_time": 10.6818182,
                "pitch": 58,
                "velocity": 80,
                "duration": 0.2,
                "tempo": 120.0
            },
            {
                "start_time": 10.6818182,
                "end_time": 10.8840909,
                "pitch": 67,
                "velocity": 80,
                "duration": 0.2022727,
                "tempo": 120.0
            },
            {
                "start_time": 10.8840909,
                "end_time": 11.0840909,
                "pitch": 58,
                "velocity": 80,
                "duration": 0.2,
                "tempo": 120.0
            },
            {
                "start_time": 11.0863636,
                "end_time": 11.2863636,
                "pitch": 65,
                "velocity": 80,
                "duration": 0.2,
                "tempo": 120.0
            },
            {
                "start_time": 11.2886364,
                "end_time": 11.4931818,
                "pitch": 57,
                "velocity": 80,
                "duration": 0.2045455,
                "tempo": 120.0
            },
            {
                "start_time": 11.4931818,
                "end_time": 11.6977273,
                "pitch": 62,
                "velocity": 80,
                "duration": 0.2045455,
                "tempo": 120.0
            },
            {
                "start_time": 11.7,
                "end_time": 11.9,
                "pitch": 57,
                "velocity": 80,
                "duration": 0.2,
                "tempo": 120.0
            },
            {
                "start_time": 11.9,
                "end_time": 12.1022727,
                "pitch": 63,
                "velocity": 80,
                "duration": 0.2022727,
                "tempo": 120.0
            },
            {
                "start_time": 12.1022727,
                "end_time": 12.3022727,
                "pitch": 57,
                "velocity": 80,
                "duration": 0.2,
                "tempo": 120.0
            },
            {
                "start_time": 12.3022727,
                "end_time": 12.5022727,
                "pitch": 65,
                "velocity": 80,
                "duration": 0.2,
                "tempo": 120.0
            },
            {
                "start_time": 12.5022727,
                "end_time": 12.6977273,
                "pitch": 57,
                "velocity": 80,
                "duration": 0.1954545,
                "tempo": 120.0
            },
            {
                "start_time": 12.7,
                "end_time": 12.8954545,
                "pitch": 67,
                "velocity": 80,
                "duration": 0.1954545,
                "tempo": 120.0
            }
        ]
    }
}