{
    "mood": "angry",
    "instruments": {
        "Vibraphone": [
            {
                "start_time": 0.0,
                "end_time": 0.2181818,
                "pitch": 69,
                "velocity": 127,
                "duration": 0.2181818,
                "tempo": 120.0
            },
            {
                "start_time": 0.2181818,
                "end_time": 0.3840909,
                "pitch": 72,
                "velocity": 127,
                "duration": 0.1659091,
                "tempo": 120.0
            },
            {
                "start_time": 0.3840909,
                "end_time": 0.5477273,
                "pitch": 76,
                "velocity": 127,
                "duration": 0.1636364,
                "tempo": 120.0
            },
            {
                "start_time": 0.2181818,
                "end_time": 0.7181818,
                "pitch": 69,
                "velocity": 127,
                "duration": 0.5,
                "tempo": 120.0
            },
            {
                "start_time": 0.5477273,
                "end_time": 0.7181818,
                "pitch": 69,
                "velocity": 127,
                "duration": 0.1704545,
                "tempo": 120.0
            },
            {
                "start_time": 0.7181818,
                "end_time": 0.8886364,
                "pitch": 74,
                "velocity": 127,
                "duration": 0.1704545,
                "tempo": 120.0
            },
            {
                "start_time": 0.8886364,
                "end_time": 1.0522727,
                "pitch": 78,
                "velocity": 127,
                "duration": 0.1636364,
                "tempo": 120.0
            },
            {
                "start_time": 1.0522727,
                "end_time": 1.0545455,
                "pitch": 78,
                "velocity": 127,
                "duration": 0.0022727,
                "tempo": 120.0
            },
            {
                "start_time": 0.7181818,
                "end_time": 1.2181818,
                "pitch": 69,
                "velocity": 127,
                "duration": 0.5,
                "tempo": 120.0
            },
            {
                "start_time": 1.0545455,
                "end_time": 1.2181818,
                "pitch": 69,
                "velocity": 127,
                "duration": 0.1636364,
                "tempo": 120.0
            },
            {
                "start_time": 0.5477273,
                "end_time": 1.3886364,
                "pitch": 76,
                "velocity": 127,
                "duration": 0.8409091,
                "tempo": 120.0
            },
            {
                "start_time": 1.2181818,
                "end_time": 1.3886364,
                "pitch": 76,
                "velocity": 127,
                "duration": 0.1704545,
                "tempo": 120.0
            },
            {
                "start_time": 0.0,
                "end_time": 1.5590909,
                "pitch": 79,
                "velocity": 127,
                "duration": 1.5590909,
                "tempo": 120.0
            },
            {
                "start_time": 1.3886364,
                "end_time": 1.5590909,
                "pitch": 79,
                "velocity": 127,
                "duration": 0.1704545,
                "tempo": 120.0
            },
            {
                "start_time": 1.5590909,
                "end_time": 1.7227273,
                "pitch": 67,
                "velocity": 127,
                "duration": 0.1636364,
                "tempo": 120.0
            },
            {
                "start_time": 1.2181818,
                "end_time": 1.7227273,
                "pitch": 69,
                "velocity": 127,
                "duration": 0.5045455,
                "tempo": 120.0
            },
            {
                "start_time": 1.7227273,
                "end_time": 1.8886364,
                "pitch": 78,
                "velocity": 127,
                "duration": 0.1659091,
                "tempo": 120.0
            },
            {
                "start_time": 1.8886364,
                "end_time": 2.0545455,
                "pitch": 81,
                "velocity": 127,
                "duration": 0.1659091,
                "tempo": 120.0
            },
            {
                "start_time": 1.7227273,
                "end_time": 2.2181818,
                "pitch": 69,
                "velocity": 127,
                "duration": 0.4954545,
                "tempo": 120.0
            },
            {
                "start_time": 2.0545455,
                "end_time": 2.2181818,
                "pitch": 69,
                "velocity": 127,
                "duration": 0.1636364,
                "tempo": 120.0
            },
            {
                "start_time": 0.3840909,
                "end_time": 2.3886364,
                "pitch": 72,
                "velocity": 127,
                "duration": 2.0045455,
                "tempo": 120.0
            },
            {
                "start_time": 2.2181818,
                "end_time": 2.3886364,
                "pitch": 72,
                "velocity": 127,
                "duration": 0.1704545,
                "tempo": 120.0
            },
            {
                "start_time": 2.3886364,
                "end_time": 2.5590909,
                "pitch": 76,
                "velocity": 127,
                "duration": 0.1704545,
                "tempo": 120.0
            },
            {
                "start_time": 2.2181818,
                "end_time": 2.7227273,
                "pitch": 69,
                "velocity": 127,
                "duration": 0.5045455,
                "tempo": 120.0
            },
            {
                "start_time": 2.5590909,
                "end_time": 2.7227273,
                "pitch": 69,
                "velocity": 127,
                "duration": 0.1636364,
                "tempo": 120.0
            },
            {
                "start_time": 0.8886364,
                "end_time": 2.8886364,
                "pitch": 74,
                "velocity": 127,
                "duration": 2.0,
                "tempo": 120.0
            },
            {
                "start_time": 2.7227273,
                "end_time": 2.8886364,
                "pitch": 74,
                "velocity": 127,
                "duration": 0.1659091,
                "tempo": 120.0
            },
            {
                "start_time": 2.8886364,
                "end_time": 3.0590909,
                "pitch": 78,
                "velocity": 127,
                "duration": 0.1704545,
                "tempo": 120.0
            },
            {
                "start_time": 2.7227273,
                "end_time": 3.2272727,
                "pitch": 69,
                "velocity": 127,
                "duration": 0.5045455,
                "tempo": 120.0
            },
            {
                "start_time": 3.0590909,
                "end_time": 3.2272727,
                "pitch": 69,
                "velocity": 127,
                "duration": 0.1681818,
                "tempo": 120.0
            },
            {
                "start_time": 2.5590909,
                "end_time": 3.3931818,
                "pitch": 76,
                "velocity": 127,
                "duration": 0.8340909,
                "tempo": 120.0
            },
            {
                "start_time": 3.2295455,
                "end_time": 3.3931818,
                "pitch": 76,
                "velocity": 127,
                "duration": 0.1636364,
                "tempo": 120.0
            },
            {
                "start_time": 1.3886364,
                "end_time": 3.3931818,
                "pitch": 88,
                "velocity": 127,
                "duration": 2.0045455,
                "tempo": 120.0
            },
            {
                "start_time": 3.3931818,
                "end_time": 3.5590909,
                "pitch": 79,
                "velocity": 127,
                "duration": 0.1659091,
                "tempo": 120.0
            },
            {
                "start_time": 3.5590909,
                "end_time": 3.725,
                "pitch": 67,
                "velocity": 127,
                "duration": 0.1659091,
                "tempo": 120.0
            },
            {
                "start_time": 3.2295455,
                "end_time": 3.725,
                "pitch": 69,
                "velocity": 127,
                "duration": 0.4954545,
                "tempo": 120.0
            },
            {
                "start_time": 3.0590909,
                "end_time": 3.8886364,
                "pitch": 78,
                "velocity": 127,
                "duration": 0.8295455,
                "tempo": 120.0
            },
            {
                "start_time": 3.725,
                "end_time": 3.8886364,
                "pitch": 78,
                "velocity": 127,
                "duration": 0.1636364,
                "tempo": 120.0
            },
            {
                "start_time": 1.8886364,
                "end_time": 3.8886364,
                "pitch": 90,
                "velocity": 127,
                "duration": 2.0,
                "tempo": 120.0
            },
            {
                "start_time": 3.8886364,
                "end_time": 4.0590909,
                "pitch": 81,
                "velocity": 127,
                "duration": 0.1704545,
                "tempo": 120.0
            },
            {
                "start_time": 4.0590909,
                "end_time": 4.2295455,
                "pitch": 62,
                "velocity": 127,
                "duration": 0.1704545,
                "tempo": 120.0
            },
            {
                "start_time": 4.2295455,
                "end_time": 4.4159091,
                "pitch": 65,
                "velocity": 127,
                "duration": 0.1863636,
                "tempo": 120.0
            },
            {
                "start_time": 4.0590909,
                "end_time": 4.5863636,
                "pitch": 57,
                "velocity": 127,
                "duration": 0.5272727,
                "tempo": 120.0
            },
            {
                "start_time": 3.725,
                "end_time": 4.5863636,
                "pitch": 69,
                "velocity": 127,
                "duration": 0.8613636,
                "tempo": 120.0
            },
            {
                "start_time": 4.4159091,
                "end_time": 4.5863636,
                "pitch": 69,
                "velocity": 127,
                "duration": 0.1704545,
                "tempo": 120.0
            },
            {
                "start_time": 4.2295455,
                "end_time": 4.7545455,
                "pitch": 62,
                "velocity": 127,
                "duration": 0.525,
                "tempo": 120.0
            },
            {
                "start_time": 4.5863636,
                "end_time": 4.7545455,
                "pitch": 62,
                "velocity": 127,
                "duration": 0.1681818,
                "tempo": 120.0
            },
            {
                "start_time": 2.8886364,
                "end_time": 4.7545455,
                "pitch": 74,
                "velocity": 127,
                "duration": 1.8659091,
                "tempo": 120.0
            },
            {
                "start_time": 4.7545455,
                "end_time": 4.925,
                "pitch": 67,
                "velocity": 127,
                "duration": 0.1704545,
                "tempo": 120.0
            },
            {
                "start_time": 4.925,
                "end_time": 5.0909091,
                "pitch": 71,
                "velocity": 127,
                "duration": 0.1659091,
                "tempo": 120.0
            },
            {
                "start_time": 5.0909091,
                "end_time": 5.2545455,
                "pitch": 62,
                "velocity": 127,
                "duration": 0.1636364,
                "tempo": 120.0
            },
            {
                "start_time": 4.7545455,
                "end_time": 5.2545455,
                "pitch": 74,
                "velocity": 127,
                "duration": 0.5,
                "tempo": 120.0
            },
            {
                "start_time": 5.2545455,
                "end_time": 5.425,
                "pitch": 69,
                "velocity": 127,
                "duration": 0.1704545,
                "tempo": 120.0
            },
            {
                "start_time": 2.3886364,
                "end_time": 5.5954545,
                "pitch": 72,
                "velocity": 127,
                "duration": 3.2068182,
                "tempo": 120.0
            },
            {
                "start_time": 5.425,
                "end_time": 5.5954545,
                "pitch": 72,
                "velocity": 127,
                "duration": 0.1704545,
                "tempo": 120.0
            },
            {
                "start_time": 5.5954545,
                "end_time": 5.7613636,
                "pitch": 62,
                "velocity": 127,
                "duration": 0.1659091,
                "tempo": 120.0
            },
            {
                "start_time": 5.2545455,
                "end_time": 5.7613636,
                "pitch": 74,
                "velocity": 127,
                "duration": 0.5068182,
                "tempo": 120.0
            },
            {
                "start_time": 5.7613636,
                "end_time": 5.925,
                "pitch": 71,
                "velocity": 127,
                "duration": 0.1636364,
                "tempo": 120.0
            },
            {
                "start_time": 5.7613636,
                "end_time": 6.0909091,
                "pitch": 74,
                "velocity": 127,
                "duration": 0.3295455,
                "tempo": 120.0
            },
            {
                "start_time": 5.925,
                "end_time": 6.0909091,
                "pitch": 74,
                "velocity": 127,
                "duration": 0.1659091,
                "tempo": 120.0
            },
            {
                "start_time": 6.0909091,
                "end_time": 6.2568182,
                "pitch": 62,
                "velocity": 127,
                "duration": 0.1659091,
                "tempo": 120.0
            },
            {
                "start_time": 6.2568182,
                "end_time": 6.425,
                "pitch": 65,
                "velocity": 127,
                "duration": 0.1681818,
                "tempo": 120.0
            },
            {
                "start_time": 4.4159091,
                "end_time": 6.425,
                "pitch": 77,
                "velocity": 127,
                "duration": 2.0090909,
                "tempo": 120.0
            },
            {
                "start_time": 4.5863636,
                "end_time": 6.5954545,
                "pitch": 57,
                "velocity": 127,
                "duration": 2.0090909,
                "tempo": 120.0
            },
            {
                "start_time": 5.425,
                "end_time": 6.5954545,
                "pitch": 69,
                "velocity": 127,
                "duration": 1.1704545,
                "tempo": 120.0
            },
            {
                "start_time": 6.425,
                "end_time": 6.5954545,
                "pitch": 69,
                "velocity": 127,
                "duration": 0.1704545,
                "tempo": 120.0
            },
            {
                "start_time": 6.2568182,
                "end_time": 6.7659091,
                "pitch": 62,
                "velocity": 127,
                "duration": 0.5090909,
                "tempo": 120.0
            },
            {
                "start_time": 6.5954545,
                "end_time": 6.7659091,
                "pitch": 62,
                "velocity": 127,
                "duration": 0.1704545,
                "tempo": 120.0
            },
            {
                "start_time": 4.925,
                "end_time": 6.9340909,
                "pitch": 67,
                "velocity": 127,
                "duration": 2.0090909,
                "tempo": 120.0
            },
            {
                "start_time": 6.7659091,
                "end_time": 6.9340909,
                "pitch": 67,
                "velocity": 127,
                "duration": 0.1681818,
                "tempo": 120.0
            },
            {
                "start_time": 5.0909091,
                "end_time": 7.1,
                "pitch": 59,
                "velocity": 127,
                "duration": 2.0090909,
                "tempo": 120.0
            },
            {
                "start_time": 5.925,
                "end_time": 7.1,
                "pitch": 71,
                "velocity": 127,
                "duration": 1.175,
                "tempo": 120.0
            },
            {
                "start_time": 6.9340909,
                "end_time": 7.1,
                "pitch": 71,
                "velocity": 127,
                "duration": 0.1659091,
                "tempo": 120.0
            },
            {
                "start_time": 7.1,
                "end_time": 7.2659091,
                "pitch": 62,
                "velocity": 127,
                "duration": 0.1659091,
                "tempo": 120.0
            },
            {
                "start_time": 6.7659091,
                "end_time": 7.2659091,
                "pitch": 74,
                "velocity": 127,
                "duration": 0.5,
                "tempo": 120.0
            },
            {
                "start_time": 7.2659091,
                "end_time": 7.4318182,
                "pitch": 69,
                "velocity": 127,
                "duration": 0.1659091,
                "tempo": 120.0
            },
            {
                "start_time": 5.5954545,
                "end_time": 7.5954545,
                "pitch": 60,
                "velocity": 127,
                "duration": 2.0,
                "tempo": 120.0
            },
            {
                "start_time": 7.4318182,
                "end_time": 7.5954545,
                "pitch": 72,
                "velocity": 127,
                "duration": 0.1636364,
                "tempo": 120.0
            },
            {
                "start_time": 7.5954545,
                "end_time": 7.7613636,
                "pitch": 62,
                "velocity": 127,
                "duration": 0.1659091,
                "tempo": 120.0
            },
            {
                "start_time": 7.2659091,
                "end_time": 7.7613636,
                "pitch": 74,
                "velocity": 127,
                "duration": 0.4954545,
                "tempo": 120.0
            },
            {
                "start_time": 7.7613636,
                "end_time": 7.9272727,
                "pitch": 71,
                "velocity": 127,
                "duration": 0.1659091,
                "tempo": 120.0
            },
            {
                "start_time": 7.7613636,
                "end_time": 8.0977273,
                "pitch": 74,
                "velocity": 127,
                "duration": 0.3363636,
                "tempo": 120.0
            },
            {
                "start_time": 7.9272727,
                "end_time": 8.0977273,
                "pitch": 74,
                "velocity": 127,
                "duration": 0.1704545,
                "tempo": 120.0
            },
            {
                "start_time": 7.4318182,
                "end_time": 8.2659091,
                "pitch": 69,
                "velocity": 127,
                "duration": 0.8340909,
                "tempo": 120.0
            },
            {
                "start_time": 8.0977273,
                "end_time": 8.2659091,
                "pitch": 69,
                "velocity": 127,
                "duration": 0.1681818,
                "tempo": 120.0
            },
            {
                "start_time": 8.2659091,
                "end_time": 8.4318182,
                "pitch": 72,
                "velocity": 127,
                "duration": 0.1659091,
                "tempo": 120.0
            },
            {
                "start_time": 8.4318182,
                "end_time": 8.5954545,
                "pitch": 76,
                "velocity": 127,
                "duration": 0.1636364,
                "tempo": 120.0
            },
            {
                "start_time": 8.2659091,
                "end_time": 8.7477273,
                "pitch": 69,
                "velocity": 127,
                "duration": 0.4818182,
                "tempo": 120.0
            },
            {
                "start_time": 8.5954545,
                "end_time": 8.7477273,
                "pitch": 69,
                "velocity": 127,
                "duration": 0.1522727,
                "tempo": 120.0
            }
        ],
        "Electric Guitar (clean)": [
            {
                "start_time": 0.0,
                "end_time": 0.2181818,
                "pitch": 45,
                "velocity": 127,
                "duration": 0.2181818,
                "tempo": 120.0
            },
            {
                "start_time": 0.2181818,
                "end_time": 0.3840909,
                "pitch": 45,
                "velocity": 127,
                "duration": 0.1659091,
                "tempo": 120.0
            },
            {
                "start_time": 0.3840909,
                "end_time": 0.5477273,
                "pitch": 57,
                "velocity": 127,
                "duration": 0.1636364,
                "tempo": 120.0
            },
            {
                "start_time": 0.5477273,
                "end_time": 0.7181818,
                "pitch": 45,
                "velocity": 127,
                "duration": 0.1704545,
                "tempo": 120.0
            },
            {
                "start_time": 0.0,
                "end_time": 0.8886364,
                "pitch": 50,
                "velocity": 127,
                "duration": 0.8886364,
                "tempo": 120.0
            },
            {
                "start_time": 0.7181818,
                "end_time": 0.8886364,
                "pitch": 50,
                "velocity": 127,
                "duration": 0.1704545,
                "tempo": 120.0
            },
            {
                "start_time": 0.7181818,
                "end_time": 1.0545455,
                "pitch": 45,
                "velocity": 127,
                "duration": 0.3363636,
                "tempo": 120.0
            },
            {
                "start_time": 0.8886364,
                "end_time": 1.0545455,
                "pitch": 45,
                "velocity": 127,
                "duration": 0.1659091,
                "tempo": 120.0
            },
            {
                "start_time": 1.0545455,
                "end_time": 1.2181818,
                "pitch": 48,
                "velocity": 127,
                "duration": 0.1636364,
                "tempo": 120.0
            },
            {
                "start_time": 1.0545455,
                "end_time": 1.3886364,
                "pitch": 45,
                "velocity": 127,
                "duration": 0.3340909,
                "tempo": 120.0
            },
            {
                "start_time": 1.2181818,
                "end_time": 1.3886364,
                "pitch": 45,
                "velocity": 127,
                "duration": 0.1704545,
                "tempo": 120.0
            },
            {
                "start_time": 1.3886364,
                "end_time": 1.5590909,
                "pitch": 45,
                "velocity": 127,
                "duration": 0.1704545,
                "tempo": 120.0
            },
            {
                "start_time": 1.5590909,
                "end_time": 1.7227273,
                "pitch": 45,
                "velocity": 127,
                "duration": 0.1636364,
                "tempo": 120.0
            },
            {
                "start_time": 1.7227273,
                "end_time": 1.8886364,
                "pitch": 57,
                "velocity": 127,
                "duration": 0.1659091,
                "tempo": 120.0
            },
            {
                "start_time": 1.8886364,
                "end_time": 2.0545455,
                "pitch": 57,
                "velocity": 127,
                "duration": 0.1659091,
                "tempo": 120.0
            },
            {
                "start_time": 2.0545455,
                "end_time": 2.2181818,
                "pitch": 45,
                "velocity": 127,
                "duration": 0.1636364,
                "tempo": 120.0
            },
            {
                "start_time": 2.2181818,
                "end_time": 2.3886364,
                "pitch": 45,
                "velocity": 127,
                "duration": 0.1704545,
                "tempo": 120.0
            },
            {
                "start_time": 2.3886364,
                "end_time": 2.5590909,
                "pitch": 57,
                "velocity": 127,
                "duration": 0.1704545,
                "tempo": 120.0
            },
            {
                "start_time": 2.5590909,
                "end_time": 2.7227273,
                "pitch": 45,
                "velocity": 127,
                "duration": 0.1636364,
                "tempo": 120.0
            },
            {
                "start_time": 0.8886364,
                "end_time": 2.8886364,
                "pitch": 50,
                "velocity": 127,
                "duration": 2.0,
                "tempo": 120.0
            },
            {
                "start_time": 2.7227273,
                "end_time": 2.8886364,
                "pitch": 50,
                "velocity": 127,
                "duration": 0.1659091,
                "tempo": 120.0
            },
            {
                "start_time": 2.7227273,
                "end_time": 3.0590909,
                "pitch": 45,
                "velocity": 127,
                "duration": 0.3363636,
                "tempo": 120.0
            },
            {
                "start_time": 2.8886364,
                "end_time": 3.0590909,
                "pitch": 45,
                "velocity": 127,
                "duration": 0.1704545,
                "tempo": 120.0
            },
            {
                "start_time": 1.2181818,
                "end_time": 3.2295455,
                "pitch": 48,
                "velocity": 127,
                "duration": 2.0113636,
                "tempo": 120.0
            },
            {
                "start_time": 3.0590909,
                "end_time": 3.2295455,
                "pitch": 48,
                "velocity": 127,
                "duration": 0.1704545,
                "tempo": 120.0
            },
            {
                "start_time": 3.0590909,
                "end_time": 3.3931818,
                "pitch": 45,
                "velocity": 127,
                "duration": 0.3340909,
                "tempo": 120.0
            },
            {
                "start_time": 3.2295455,
                "end_time": 3.3931818,
                "pitch": 45,
                "velocity": 127,
                "duration": 0.1636364,
                "tempo": 120.0
            },
            {
                "start_time": 3.3931818,
                "end_time": 3.5590909,
                "pitch": 45,
                "velocity": 127,
                "duration": 0.1659091,
                "tempo": 120.0
            },
            {
                "start_time": 3.5590909,
                "end_time": 3.725,
                "pitch": 45,
                "velocity": 127,
                "duration": 0.1659091,
                "tempo": 120.0
            },
            {
                "start_time": 3.725,
                "end_time": 3.8886364,
                "pitch": 57,
                "velocity": 127,
                "duration": 0.1636364,
                "tempo": 120.0
            },
            {
                "start_time": 3.8886364,
                "end_time": 4.0590909,
                "pitch": 57,
                "velocity": 127,
                "duration": 0.1704545,
                "tempo": 120.0
            },
            {
                "start_time": 4.0590909,
                "end_time": 4.2295455,
                "pitch": 38,
                "velocity": 127,
                "duration": 0.1704545,
                "tempo": 120.0
            },
            {
                "start_time": 4.2295455,
                "end_time": 4.4159091,
                "pitch": 38,
                "velocity": 127,
                "duration": 0.1863636,
                "tempo": 120.0
            },
            {
                "start_time": 2.8886364,
                "end_time": 4.5863636,
                "pitch": 50,
                "velocity": 127,
                "duration": 1.6977273,
                "tempo": 120.0
            },
            {
                "start_time": 4.4159091,
                "end_time": 4.5863636,
                "pitch": 50,
                "velocity": 127,
                "duration": 0.1704545,
                "tempo": 120.0
            },
            {
                "start_time": 4.5863636,
                "end_time": 4.7545455,
                "pitch": 38,
                "velocity": 127,
                "duration": 0.1681818,
                "tempo": 120.0
            },
            {
                "start_time": 4.7545455,
                "end_time": 4.925,
                "pitch": 43,
                "velocity": 127,
                "duration": 0.1704545,
                "tempo": 120.0
            },
            {
                "start_time": 4.925,
                "end_time": 5.0909091,
                "pitch": 38,
                "velocity": 127,
                "duration": 0.1659091,
                "tempo": 120.0
            },
            {
                "start_time": 5.0909091,
                "end_time": 5.2545455,
                "pitch": 41,
                "velocity": 127,
                "duration": 0.1636364,
                "tempo": 120.0
            },
            {
                "start_time": 5.0909091,
                "end_time": 5.425,
                "pitch": 38,
                "velocity": 127,
                "duration": 0.3340909,
                "tempo": 120.0
            },
            {
                "start_time": 5.2545455,
                "end_time": 5.425,
                "pitch": 38,
                "velocity": 127,
                "duration": 0.1704545,
                "tempo": 120.0
            },
            {
                "start_time": 5.425,
                "end_time": 5.5954545,
                "pitch": 38,
                "velocity": 127,
                "duration": 0.1704545,
                "tempo": 120.0
            },
            {
                "start_time": 5.5954545,
                "end_time": 5.7613636,
                "pitch": 38,
                "velocity": 127,
                "duration": 0.1659091,
                "tempo": 120.0
            },
            {
                "start_time": 4.7545455,
                "end_time": 5.925,
                "pitch": 50,
                "velocity": 127,
                "duration": 1.1704545,
                "tempo": 120.0
            },
            {
                "start_time": 5.7613636,
                "end_time": 5.925,
                "pitch": 50,
                "velocity": 127,
                "duration": 0.1636364,
                "tempo": 120.0
            },
            {
                "start_time": 5.925,
                "end_time": 6.0909091,
                "pitch": 50,
                "velocity": 127,
                "duration": 0.1659091,
                "tempo": 120.0
            },
            {
                "start_time": 6.0909091,
                "end_time": 6.2568182,
                "pitch": 38,
                "velocity": 127,
                "duration": 0.1659091,
                "tempo": 120.0
            },
            {
                "start_time": 6.2568182,
                "end_time": 6.425,
                "pitch": 38,
                "velocity": 127,
                "duration": 0.1681818,
                "tempo": 120.0
            },
            {
                "start_time": 6.425,
                "end_time": 6.5954545,
                "pitch": 50,
                "velocity": 127,
                "duration": 0.1704545,
                "tempo": 120.0
            },
            {
                "start_time": 6.5954545,
                "end_time": 6.7659091,
                "pitch": 38,
                "velocity": 127,
                "duration": 0.1704545,
                "tempo": 120.0
            },
            {
                "start_time": 4.925,
                "end_time": 6.9363636,
                "pitch": 31,
                "velocity": 127,
                "duration": 2.0113636,
                "tempo": 120.0
            },
            {
                "start_time": 6.7659091,
                "end_time": 6.9363636,
                "pitch": 43,
                "velocity": 127,
                "duration": 0.1704545,
                "tempo": 120.0
            },
            {
                "start_time": 6.9363636,
                "end_time": 7.1,
                "pitch": 38,
                "velocity": 127,
                "duration": 0.1636364,
                "tempo": 120.0
            },
            {
                "start_time": 5.2545455,
                "end_time": 7.2659091,
                "pitch": 41,
                "velocity": 127,
                "duration": 2.0113636,
                "tempo": 120.0
            },
            {
                "start_time": 7.1,
                "end_time": 7.2659091,
                "pitch": 41,
                "velocity": 127,
                "duration": 0.1659091,
                "tempo": 120.0
            },
            {
                "start_time": 7.1,
                "end_time": 7.4318182,
                "pitch": 38,
                "velocity": 127,
                "duration": 0.3318182,
                "tempo": 120.0
            },
            {
                "start_time": 7.2659091,
                "end_time": 7.4318182,
                "pitch": 38,
                "velocity": 127,
                "duration": 0.1659091,
                "tempo": 120.0
            },
            {
                "start_time": 7.4318182,
                "end_time": 7.5954545,
                "pitch": 38,
                "velocity": 127,
                "duration": 0.1636364,
                "tempo": 120.0
            },
            {
                "start_time": 7.5954545,
                "end_time": 7.7613636,
                "pitch": 38,
                "velocity": 127,
                "duration": 0.1659091,
                "tempo": 120.0
            },
            {
                "start_time": 6.7659091,
                "end_time": 7.9272727,
                "pitch": 50,
                "velocity": 127,
                "duration": 1.1613636,
                "tempo": 120.0
            },
            {
                "start_time": 7.7613636,
                "end_time": 7.9272727,
                "pitch": 50,
                "velocity": 127,
                "duration": 0.1659091,
                "tempo": 120.0
            },
            {
                "start_time": 7.9272727,
                "end_time": 8.0977273,
                "pitch": 50,
                "velocity": 127,
                "duration": 0.1704545,
                "tempo": 120.0
            },
            {
                "start_time": 8.0977273,
                "end_time": 8.2659091,
                "pitch": 45,
                "velocity": 127,
                "duration": 0.1681818,
                "tempo": 120.0
            },
            {
                "start_time": 8.2659091,
                "end_time": 8.4318182,
                "pitch": 45,
                "velocity": 127,
                "duration": 0.1659091,
                "tempo": 120.0
            },
            {
                "start_time": 8.4318182,
                "end_time": 8.5954545,
                "pitch": 57,
                "velocity": 127,
                "duration": 0.1636364,
                "tempo": 120.0
            },
            {
                "start_time": 8.5954545,
                "end_time": 8.7477273,
                "pitch": 45,
                "velocity": 127,
                "duration": 0.1522727,
                "tempo": 120.0
            }
        ],
        "Acoustic Guitar (nylon)": [
            {
                "start_time": 0.3,
                "end_time": 0.4659091,
                "pitch": 57,
                "velocity": 101,
                "duration": 0.1659091,
                "tempo": 120.0
            },
            {
                "start_time": 0.4659091,
                "end_time": 0.6340909,
                "pitch": 60,
                "velocity": 101,
                "duration": 0.1681818,
                "tempo": 120.0
            },
            {
                "start_time": 0.6340909,
                "end_time": 0.8022727,
                "pitch": 64,
                "velocity": 101,
                "duration": 0.1681818,
                "tempo": 120.0
            },
            {
                "start_time": 0.4659091,
                "end_time": 0.9704545,
                "pitch": 57,
                "velocity": 101,
                "duration": 0.5045455,
                "tempo": 120.0
            },
            {
                "start_time": 0.8022727,
                "end_time": 0.9704545,
                "pitch": 57,
                "velocity": 101,
                "duration": 0.1681818,
                "tempo": 120.0
            },
            {
                "start_time": 0.3,
                "end_time": 1.1363636,
                "pitch": 62,
                "velocity": 101,
                "duration": 0.8363636,
                "tempo": 120.0
            },
            {
                "start_time": 0.9704545,
                "end_time": 1.1363636,
                "pitch": 62,
                "velocity": 101,
                "duration": 0.1659091,
                "tempo": 120.0
            },
            {
                "start_time": 1.1363636,
                "end_time": 1.3022727,
                "pitch": 66,
                "velocity": 101,
                "duration": 0.1659091,
                "tempo": 120.0
            },
            {
                "start_time": 0.9704545,
                "end_time": 1.4727273,
                "pitch": 57,
                "velocity": 101,
                "duration": 0.5022727,
                "tempo": 120.0
            },
            {
                "start_time": 1.3022727,
                "end_time": 1.4727273,
                "pitch": 57,
                "velocity": 101,
                "duration": 0.1704545,
                "tempo": 120.0
            },
            {
                "start_time": 0.8022727,
                "end_time": 1.6409091,
                "pitch": 64,
                "velocity": 101,
                "duration": 0.8386364,
                "tempo": 120.0
            },
            {
                "start_time": 1.4727273,
                "end_time": 1.6409091,
                "pitch": 64,
                "velocity": 101,
                "duration": 0.1681818,
                "tempo": 120.0
            },
            {
                "start_time": 1.6409091,
                "end_time": 1.8068182,
                "pitch": 67,
                "velocity": 101,
                "duration": 0.1659091,
                "tempo": 120.0
            },
            {
                "start_time": 1.8068182,
                "end_time": 1.9704545,
                "pitch": 55,
                "velocity": 101,
                "duration": 0.1636364,
                "tempo": 120.0
            },
            {
                "start_time": 1.4727273,
                "end_time": 1.9704545,
                "pitch": 57,
                "velocity": 101,
                "duration": 0.4977273,
                "tempo": 120.0
            },
            {
                "start_time": 1.3022727,
                "end_time": 2.1363636,
                "pitch": 66,
                "velocity": 101,
                "duration": 0.8340909,
                "tempo": 120.0
            },
            {
                "start_time": 1.9704545,
                "end_time": 2.1363636,
                "pitch": 66,
                "velocity": 101,
                "duration": 0.1659091,
                "tempo": 120.0
            },
            {
                "start_time": 2.1363636,
                "end_time": 2.3045455,
                "pitch": 69,
                "velocity": 101,
                "duration": 0.1681818,
                "tempo": 120.0
            },
            {
                "start_time": 1.9704545,
                "end_time": 2.4727273,
                "pitch": 57,
                "velocity": 101,
                "duration": 0.5022727,
                "tempo": 120.0
            },
            {
                "start_time": 2.3045455,
                "end_time": 2.4727273,
                "pitch": 57,
                "velocity": 101,
                "duration": 0.1681818,
                "tempo": 120.0
            },
            {
                "start_time": 0.6340909,
                "end_time": 2.6409091,
                "pitch": 60,
                "velocity": 101,
                "duration": 2.0068182,
                "tempo": 120.0
            },
            {
                "start_time": 2.4727273,
                "end_time": 2.6409091,
                "pitch": 60,
                "velocity": 101,
                "duration": 0.1681818,
                "tempo": 120.0
            },
            {
                "start_time": 2.6409091,
                "end_time": 2.8068182,
                "pitch": 64,
                "velocity": 101,
                "duration": 0.1659091,
                "tempo": 120.0
            },
            {
                "start_time": 2.4727273,
                "end_time": 2.9727273,
                "pitch": 57,
                "velocity": 101,
                "duration": 0.5,
                "tempo": 120.0
            },
            {
                "start_time": 2.8068182,
                "end_time": 2.9727273,
                "pitch": 57,
                "velocity": 101,
                "duration": 0.1659091,
                "tempo": 120.0
            },
            {
                "start_time": 1.1363636,
                "end_time": 3.1431818,
                "pitch": 62,
                "velocity": 101,
                "duration": 2.0068182,
                "tempo": 120.0
            },
            {
                "start_time": 2.9727273,
                "end_time": 3.1431818,
                "pitch": 62,
                "velocity": 101,
                "duration": 0.1704545,
                "tempo": 120.0
            },
            {
                "start_time": 3.1431818,
                "end_time": 3.3113636,
                "pitch": 66,
                "velocity": 101,
                "duration": 0.1681818,
                "tempo": 120.0
            },
            {
                "start_time": 2.9727273,
                "end_time": 3.475,
                "pitch": 57,
                "velocity": 101,
                "duration": 0.5022727,
                "tempo": 120.0
            },
            {
                "start_time": 3.3113636,
                "end_time": 3.475,
                "pitch": 57,
                "velocity": 101,
                "duration": 0.1636364,
                "tempo": 120.0
            },
            {
                "start_time": 3.475,
                "end_time": 3.4772727,
                "pitch": 57,
                "velocity": 101,
                "duration": 0.0022727,
                "tempo": 120.0
            },
            {
                "start_time": 2.8068182,
                "end_time": 3.6409091,
                "pitch": 64,
                "velocity": 101,
                "duration": 0.8340909,
                "tempo": 120.0
            },
            {
                "start_time": 3.4772727,
                "end_time": 3.6409091,
                "pitch": 64,
                "velocity": 101,
                "duration": 0.1636364,
                "tempo": 120.0
            },
            {
                "start_time": 1.6409091,
                "end_time": 3.6409091,
                "pitch": 76,
                "velocity": 101,
                "duration": 2.0,
                "tempo": 120.0
            },
            {
                "start_time": 3.6409091,
                "end_time": 3.8068182,
                "pitch": 67,
                "velocity": 101,
                "duration": 0.1659091,
                "tempo": 120.0
            },
            {
                "start_time": 3.8068182,
                "end_time": 3.9727273,
                "pitch": 55,
                "velocity": 101,
                "duration": 0.1659091,
                "tempo": 120.0
            },
            {
                "start_time": 3.3113636,
                "end_time": 4.1431818,
                "pitch": 66,
                "velocity": 101,
                "duration": 0.8318182,
                "tempo": 120.0
            },
            {
                "start_time": 3.9727273,
                "end_time": 4.1431818,
                "pitch": 66,
                "velocity": 101,
                "duration": 0.1704545,
                "tempo": 120.0
            },
            {
                "start_time": 2.1363636,
                "end_time": 4.1431818,
                "pitch": 78,
                "velocity": 101,
                "duration": 2.0068182,
                "tempo": 120.0
            },
            {
                "start_time": 4.1431818,
                "end_time": 4.3136364,
                "pitch": 69,
                "velocity": 101,
                "duration": 0.1704545,
                "tempo": 120.0
            },
            {
                "start_time": 4.3136364,
                "end_time": 4.5,
                "pitch": 50,
                "velocity": 101,
                "duration": 0.1863636,
                "tempo": 120.0
            },
            {
                "start_time": 4.5,
                "end_time": 4.6704545,
                "pitch": 53,
                "velocity": 101,
                "duration": 0.1704545,
                "tempo": 120.0
            },
            {
                "start_time": 4.3136364,
                "end_time": 4.8409091,
                "pitch": 45,
                "velocity": 101,
                "duration": 0.5272727,
                "tempo": 120.0
            },
            {
                "start_time": 3.9727273,
                "end_time": 4.8409091,
                "pitch": 57,
                "velocity": 101,
                "duration": 0.8681818,
                "tempo": 120.0
            },
            {
                "start_time": 4.6704545,
                "end_time": 4.8409091,
                "pitch": 57,
                "velocity": 101,
                "duration": 0.1704545,
                "tempo": 120.0
            },
            {
                "start_time": 4.5,
                "end_time": 5.0068182,
                "pitch": 50,
                "velocity": 101,
                "duration": 0.5068182,
                "tempo": 120.0
            },
            {
                "start_time": 4.8409091,
                "end_time": 5.0068182,
                "pitch": 50,
                "velocity": 101,
                "duration": 0.1659091,
                "tempo": 120.0
            },
            {
                "start_time": 3.1431818,
                "end_time": 5.0068182,
                "pitch": 62,
                "velocity": 101,
                "duration": 1.8636364,
                "tempo": 120.0
            },
            {
                "start_time": 5.0068182,
                "end_time": 5.1727273,
                "pitch": 55,
                "velocity": 101,
                "duration": 0.1659091,
                "tempo": 120.0
            },
            {
                "start_time": 5.1727273,
                "end_time": 5.3409091,
                "pitch": 59,
                "velocity": 101,
                "duration": 0.1681818,
                "tempo": 120.0
            },
            {
                "start_time": 5.3409091,
                "end_time": 5.5090909,
                "pitch": 50,
                "velocity": 101,
                "duration": 0.1681818,
                "tempo": 120.0
            },
            {
                "start_time": 5.0068182,
                "end_time": 5.5090909,
                "pitch": 62,
                "velocity": 101,
                "duration": 0.5022727,
                "tempo": 120.0
            },
            {
                "start_time": 5.5090909,
                "end_time": 5.6772727,
                "pitch": 57,
                "velocity": 101,
                "duration": 0.1681818,
                "tempo": 120.0
            },
            {
                "start_time": 2.6409091,
                "end_time": 5.8431818,
                "pitch": 60,
                "velocity": 101,
                "duration": 3.2022727,
                "tempo": 120.0
            },
            {
                "start_time": 5.6772727,
                "end_time": 5.8431818,
                "pitch": 60,
                "velocity": 101,
                "duration": 0.1659091,
                "tempo": 120.0
            },
            {
                "start_time": 5.8431818,
                "end_time": 6.0068182,
                "pitch": 50,
                "velocity": 101,
                "duration": 0.1636364,
                "tempo": 120.0
            },
            {
                "start_time": 5.5090909,
                "end_time": 6.0068182,
                "pitch": 62,
                "velocity": 101,
                "duration": 0.4977273,
                "tempo": 120.0
            },
            {
                "start_time": 6.0068182,
                "end_time": 6.1727273,
                "pitch": 59,
                "velocity": 101,
                "duration": 0.1659091,
                "tempo": 120.0
            },
            {
                "start_time": 6.0068182,
                "end_time": 6.3409091,
                "pitch": 62,
                "velocity": 101,
                "duration": 0.3340909,
                "tempo": 120.0
            },
            {
                "start_time": 6.1727273,
                "end_time": 6.3409091,
                "pitch": 62,
                "velocity": 101,
                "duration": 0.1681818,
                "tempo": 120.0
            },
            {
                "start_time": 6.3409091,
                "end_time": 6.5113636,
                "pitch": 50,
                "velocity": 101,
                "duration": 0.1704545,
                "tempo": 120.0
            },
            {
                "start_time": 6.5113636,
                "end_time": 6.6795455,
                "pitch": 53,
                "velocity": 101,
                "duration": 0.1681818,
                "tempo": 120.0
            },
            {
                "start_time": 4.6704545,
                "end_time": 6.6795455,
                "pitch": 65,
                "velocity": 101,
                "duration": 2.0090909,
                "tempo": 120.0
            },
            {
                "start_time": 4.8409091,
                "end_time": 6.85,
                "pitch": 45,
                "velocity": 101,
                "duration": 2.0090909,
                "tempo": 120.0
            },
            {
                "start_time": 5.6772727,
                "end_time": 6.85,
                "pitch": 57,
                "velocity": 101,
                "duration": 1.1727273,
                "tempo": 120.0
            },
            {
                "start_time": 6.6795455,
                "end_time": 6.85,
                "pitch": 57,
                "velocity": 101,
                "duration": 0.1704545,
                "tempo": 120.0
            },
            {
                "start_time": 6.5113636,
                "end_time": 7.0181818,
                "pitch": 50,
                "velocity": 101,
                "duration": 0.5068182,
                "tempo": 120.0
            },
            {
                "start_time": 6.85,
                "end_time": 7.0181818,
                "pitch": 50,
                "velocity": 101,
                "duration": 0.1681818,
                "tempo": 120.0
            },
            {
                "start_time": 5.1727273,
                "end_time": 7.1818182,
                "pitch": 55,
                "velocity": 101,
                "duration": 2.0090909,
                "tempo": 120.0
            },
            {
                "start_time": 7.0181818,
                "end_time": 7.1818182,
                "pitch": 55,
                "velocity": 101,
                "duration": 0.1636364,
                "tempo": 120.0
            },
            {
                "start_time": 7.1818182,
                "end_time": 7.1840909,
                "pitch": 55,
                "velocity": 101,
                "duration": 0.0022727,
                "tempo": 120.0
            },
            {
                "start_time": 5.3409091,
                "end_time": 7.3477273,
                "pitch": 47,
                "velocity": 101,
                "duration": 2.0068182,
                "tempo": 120.0
            },
            {
                "start_time": 6.1727273,
                "end_time": 7.3477273,
                "pitch": 59,
                "velocity": 101,
                "duration": 1.175,
                "tempo": 120.0
            },
            {
                "start_time": 7.1840909,
                "end_time": 7.3477273,
                "pitch": 59,
                "velocity": 101,
                "duration": 0.1636364,
                "tempo": 120.0
            },
            {
                "start_time": 7.3477273,
                "end_time": 7.5136364,
                "pitch": 50,
                "velocity": 101,
                "duration": 0.1659091,
                "tempo": 120.0
            },
            {
                "start_time": 7.0181818,
                "end_time": 7.5136364,
                "pitch": 62,
                "velocity": 101,
                "duration": 0.4954545,
                "tempo": 120.0
            },
            {
                "start_time": 7.5136364,
                "end_time": 7.6795455,
                "pitch": 57,
                "velocity": 101,
                "duration": 0.1659091,
                "tempo": 120.0
            },
            {
                "start_time": 5.8431818,
                "end_time": 7.8431818,
                "pitch": 48,
                "velocity": 101,
                "duration": 2.0,
                "tempo": 120.0
            },
            {
                "start_time": 7.6795455,
                "end_time": 7.8431818,
                "pitch": 60,
                "velocity": 101,
                "duration": 0.1636364,
                "tempo": 120.0
            },
            {
                "start_time": 7.8431818,
                "end_time": 8.0113636,
                "pitch": 50,
                "velocity": 101,
                "duration": 0.1681818,
                "tempo": 120.0
            },
            {
                "start_time": 7.5136364,
                "end_time": 8.0113636,
                "pitch": 62,
                "velocity": 101,
                "duration": 0.4977273,
                "tempo": 120.0
            },
            {
                "start_time": 8.0113636,
                "end_time": 8.1818182,
                "pitch": 59,
                "velocity": 101,
                "duration": 0.1704545,
                "tempo": 120.0
            },
            {
                "start_time": 8.0113636,
                "end_time": 8.3477273,
                "pitch": 62,
                "velocity": 101,
                "duration": 0.3363636,
                "tempo": 120.0
            },
            {
                "start_time": 8.1818182,
                "end_time": 8.3477273,
                "pitch": 62,
                "velocity": 101,
                "duration": 0.1659091,
                "tempo": 120.0
            },
            {
                "start_time": 7.6795455,
                "end_time": 8.5136364,
                "pitch": 57,
                "velocity": 101,
                "duration": 0.8340909,
                "tempo": 120.0
            },
            {
                "start_time": 8.3477273,
                "end_time": 8.5136364,
                "pitch": 57,
                "velocity": 101,
                "duration": 0.1659091,
                "tempo": 120.0
            },
            {
                "start_time": 8.5136364,
                "end_time": 8.6977273,
                "pitch": 60,
                "velocity": 101,
                "duration": 0.1840909,
                "tempo": 120.0
            },
            {
                "start_time": 8.6977273,
                "end_time": 8.7477273,
                "pitch": 64,
                "velocity": 101,
                "duration": 0.05,
                "tempo": 120.0
            }
        ],
        "Harpsichord": [
            {
                "start_time": 0.0,
                "end_time": 0.2181818,
                "pitch": 57,
                "velocity": 101,
                "duration": 0.2181818,
                "tempo": 120.0
            },
            {
                "start_time": 0.2181818,
                "end_time": 0.3840909,
                "pitch": 57,
                "velocity": 101,
                "duration": 0.1659091,
                "tempo": 120.0
            },
            {
                "start_time": 0.3840909,
                "end_time": 0.55,
                "pitch": 69,
                "velocity": 101,
                "duration": 0.1659091,
                "tempo": 120.0
            },
            {
                "start_time": 0.55,
                "end_time": 0.7181818,
                "pitch": 57,
                "velocity": 101,
                "duration": 0.1681818,
                "tempo": 120.0
            },
            {
                "start_time": 0.7181818,
                "end_time": 0.8886364,
                "pitch": 62,
                "velocity": 101,
                "duration": 0.1704545,
                "tempo": 120.0
            },
            {
                "start_time": 0.7181818,
                "end_time": 1.0545455,
                "pitch": 57,
                "velocity": 101,
                "duration": 0.3363636,
                "tempo": 120.0
            },
            {
                "start_time": 0.8886364,
                "end_time": 1.0545455,
                "pitch": 57,
                "velocity": 101,
                "duration": 0.1659091,
                "tempo": 120.0
            },
            {
                "start_time": 1.0545455,
                "end_time": 1.2181818,
                "pitch": 60,
                "velocity": 101,
                "duration": 0.1636364,
                "tempo": 120.0
            },
            {
                "start_time": 1.0545455,
                "end_time": 1.3886364,
                "pitch": 57,
                "velocity": 101,
                "duration": 0.3340909,
                "tempo": 120.0
            },
            {
                "start_time": 1.2181818,
                "end_time": 1.3886364,
                "pitch": 57,
                "velocity": 101,
                "duration": 0.1704545,
                "tempo": 120.0
            },
            {
                "start_time": 1.3886364,
                "end_time": 1.5590909,
                "pitch": 57,
                "velocity": 101,
                "duration": 0.1704545,
                "tempo": 120.0
            },
            {
                "start_time": 1.5590909,
                "end_time": 1.7227273,
                "pitch": 57,
                "velocity": 101,
                "duration": 0.1636364,
                "tempo": 120.0
            },
            {
                "start_time": 1.7227273,
                "end_time": 1.8886364,
                "pitch": 69,
                "velocity": 101,
                "duration": 0.1659091,
                "tempo": 120.0
            },
            {
                "start_time": 1.8886364,
                "end_time": 2.0545455,
                "pitch": 69,
                "velocity": 101,
                "duration": 0.1659091,
                "tempo": 120.0
            },
            {
                "start_time": 2.0545455,
                "end_time": 2.2181818,
                "pitch": 57,
                "velocity": 101,
                "duration": 0.1636364,
                "tempo": 120.0
            },
            {
                "start_time": 2.2181818,
                "end_time": 2.3886364,
                "pitch": 57,
                "velocity": 101,
                "duration": 0.1704545,
                "tempo": 120.0
            },
            {
                "start_time": 2.3886364,
                "end_time": 2.5590909,
                "pitch": 69,
                "velocity": 101,
                "duration": 0.1704545,
                "tempo": 120.0
            },
            {
                "start_time": 2.5590909,
                "end_time": 2.725,
                "pitch": 57,
                "velocity": 101,
                "duration": 0.1659091,
                "tempo": 120.0
            },
            {
                "start_time": 0.8886364,
                "end_time": 2.8886364,
                "pitch": 62,
                "velocity": 101,
                "duration": 2.0,
                "tempo": 120.0
            },
            {
                "start_time": 2.725,
                "end_time": 2.8886364,
                "pitch": 62,
                "velocity": 101,
                "duration": 0.1636364,
                "tempo": 120.0
            },
            {
                "start_time": 2.725,
                "end_time": 3.0590909,
                "pitch": 57,
                "velocity": 101,
                "duration": 0.3340909,
                "tempo": 120.0
            },
            {
                "start_time": 2.8886364,
                "end_time": 3.0590909,
                "pitch": 57,
                "velocity": 101,
                "duration": 0.1704545,
                "tempo": 120.0
            },
            {
                "start_time": 1.2181818,
                "end_time": 3.2295455,
                "pitch": 60,
                "velocity": 101,
                "duration": 2.0113636,
                "tempo": 120.0
            },
            {
                "start_time": 3.0590909,
                "end_time": 3.2295455,
                "pitch": 60,
                "velocity": 101,
                "duration": 0.1704545,
                "tempo": 120.0
            },
            {
                "start_time": 3.0590909,
                "end_time": 3.3931818,
                "pitch": 57,
                "velocity": 101,
                "duration": 0.3340909,
                "tempo": 120.0
            },
            {
                "start_time": 3.2295455,
                "end_time": 3.3931818,
                "pitch": 57,
                "velocity": 101,
                "duration": 0.1636364,
                "tempo": 120.0
            },
            {
                "start_time": 3.3931818,
                "end_time": 3.5590909,
                "pitch": 57,
                "velocity": 101,
                "duration": 0.1659091,
                "tempo": 120.0
            },
            {
                "start_time": 3.5590909,
                "end_time": 3.725,
                "pitch": 57,
                "velocity": 101,
                "duration": 0.1659091,
                "tempo": 120.0
            },
            {
                "start_time": 3.725,
                "end_time": 3.8886364,
                "pitch": 69,
                "velocity": 101,
                "duration": 0.1636364,
                "tempo": 120.0
            },
            {
                "start_time": 3.8886364,
                "end_time": 4.0590909,
                "pitch": 69,
                "velocity": 101,
                "duration": 0.1704545,
                "tempo": 120.0
            },
            {
                "start_time": 4.0590909,
                "end_time": 4.2295455,
                "pitch": 50,
                "velocity": 101,
                "duration": 0.1704545,
                "tempo": 120.0
            },
            {
                "start_time": 4.2295455,
                "end_time": 4.4159091,
                "pitch": 50,
                "velocity": 101,
                "duration": 0.1863636,
                "tempo": 120.0
            },
            {
                "start_time": 2.8886364,
                "end_time": 4.5863636,
                "pitch": 62,
                "velocity": 101,
                "duration": 1.6977273,
                "tempo": 120.0
            },
            {
                "start_time": 4.4159091,
                "end_time": 4.5863636,
                "pitch": 62,
                "velocity": 101,
                "duration": 0.1704545,
                "tempo": 120.0
            },
            {
                "start_time": 4.5863636,
                "end_time": 4.7545455,
                "pitch": 50,
                "velocity": 101,
                "duration": 0.1681818,
                "tempo": 120.0
            },
            {
                "start_time": 4.7545455,
                "end_time": 4.7568182,
                "pitch": 62,
                "velocity": 101,
                "duration": 0.0022727,
                "tempo": 120.0
            },
            {
                "start_time": 0.0,
                "end_time": 4.925,
                "pitch": 55,
                "velocity": 101,
                "duration": 4.925,
                "tempo": 120.0
            },
            {
                "start_time": 4.7568182,
                "end_time": 4.925,
                "pitch": 55,
                "velocity": 101,
                "duration": 0.1681818,
                "tempo": 120.0
            },
            {
                "start_time": 4.925,
                "end_time": 5.0909091,
                "pitch": 50,
                "velocity": 101,
                "duration": 0.1659091,
                "tempo": 120.0
            },
            {
                "start_time": 5.0909091,
                "end_time": 5.2568182,
                "pitch": 53,
                "velocity": 101,
                "duration": 0.1659091,
                "tempo": 120.0
            },
            {
                "start_time": 5.0909091,
                "end_time": 5.425,
                "pitch": 50,
                "velocity": 101,
                "duration": 0.3340909,
                "tempo": 120.0
            },
            {
                "start_time": 5.2568182,
                "end_time": 5.425,
                "pitch": 50,
                "velocity": 101,
                "duration": 0.1681818,
                "tempo": 120.0
            },
            {
                "start_time": 5.425,
                "end_time": 5.5954545,
                "pitch": 50,
                "velocity": 101,
                "duration": 0.1704545,
                "tempo": 120.0
            },
            {
                "start_time": 5.5954545,
                "end_time": 5.7613636,
                "pitch": 50,
                "velocity": 101,
                "duration": 0.1659091,
                "tempo": 120.0
            },
            {
                "start_time": 5.7613636,
                "end_time": 5.925,
                "pitch": 62,
                "velocity": 101,
                "duration": 0.1636364,
                "tempo": 120.0
            },
            {
                "start_time": 5.925,
                "end_time": 6.0909091,
                "pitch": 62,
                "velocity": 101,
                "duration": 0.1659091,
                "tempo": 120.0
            },
            {
                "start_time": 6.0909091,
                "end_time": 6.2568182,
                "pitch": 50,
                "velocity": 101,
                "duration": 0.1659091,
                "tempo": 120.0
            },
            {
                "start_time": 6.2568182,
                "end_time": 6.425,
                "pitch": 50,
                "velocity": 101,
                "duration": 0.1681818,
                "tempo": 120.0
            },
            {
                "start_time": 6.425,
                "end_time": 6.5954545,
                "pitch": 62,
                "velocity": 101,
                "duration": 0.1704545,
                "tempo": 120.0
            },
            {
                "start_time": 6.5954545,
                "end_time": 6.7659091,
                "pitch": 50,
                "velocity": 101,
                "duration": 0.1704545,
                "tempo": 120.0
            },
            {
                "start_time": 4.925,
                "end_time": 6.9363636,
                "pitch": 43,
                "velocity": 101,
                "duration": 2.0113636,
                "tempo": 120.0
            },
            {
                "start_time": 6.7659091,
                "end_time": 6.9363636,
                "pitch": 55,
                "velocity": 101,
                "duration": 0.1704545,
                "tempo": 120.0
            },
            {
                "start_time": 6.9363636,
                "end_time": 7.1,
                "pitch": 50,
                "velocity": 101,
                "duration": 0.1636364,
                "tempo": 120.0
            },
            {
                "start_time": 5.2568182,
                "end_time": 7.2659091,
                "pitch": 53,
                "velocity": 101,
                "duration": 2.0090909,
                "tempo": 120.0
            },
            {
                "start_time": 7.1,
                "end_time": 7.2659091,
                "pitch": 53,
                "velocity": 101,
                "duration": 0.1659091,
                "tempo": 120.0
            },
            {
                "start_time": 7.1,
                "end_time": 7.4318182,
                "pitch": 50,
                "velocity": 101,
                "duration": 0.3318182,
                "tempo": 120.0
            },
            {
                "start_time": 7.2659091,
                "end_time": 7.4318182,
                "pitch": 50,
                "velocity": 101,
                "duration": 0.1659091,
                "tempo": 120.0
            },
            {
                "start_time": 7.4318182,
                "end_time": 7.5954545,
                "pitch": 50,
                "velocity": 101,
                "duration": 0.1636364,
                "tempo": 120.0
            },
            {
                "start_time": 7.5954545,
                "end_time": 7.7613636,
                "pitch": 50,
                "velocity": 101,
                "duration": 0.1659091,
                "tempo": 120.0
            },
            {
                "start_time": 6.7659091,
                "end_time": 7.9272727,
                "pitch": 62,
                "velocity": 101,
                "duration": 1.1613636,
                "tempo": 120.0
            },
            {
                "start_time": 7.7613636,
                "end_time": 7.9272727,
                "pitch": 62,
                "velocity": 101,
                "duration": 0.1659091,
                "tempo": 120.0
            },
            {
                "start_time": 7.9272727,
                "end_time": 8.0977273,
                "pitch": 62,
                "velocity": 101,
                "duration": 0.1704545,
                "tempo": 120.0
            },
            {
                "start_time": 8.0977273,
                "end_time": 8.2659091,
                "pitch": 57,
                "velocity": 101,
                "duration": 0.1681818,
                "tempo": 120.0
            },
            {
                "start_time": 8.2659091,
                "end_time": 8.4318182,
                "pitch": 57,
                "velocity": 101,
                "duration": 0.1659091,
                "tempo": 120.0
            },
            {
                "start_time": 8.4318182,
                "end_time": 8.5977273,
                "pitch": 69,
                "velocity": 101,
                "duration": 0.1659091,
                "tempo": 120.0
            },
            {
                "start_time": 8.5977273,
                "end_time": 8.7477273,
                "pitch": 57,
                "velocity": 101,
                "duration": 0.15,
                "tempo": 120.0
            }
        ]
    }
}