{
    "mood": "angry",
    "instruments": {
        "Lead 2 (sawtooth)": [
            {
                "start_time": 0.5545455,
                "end_time": 2.2704545,
                "pitch": 65,
                "velocity": 64,
                "duration": 1.7159091,
                "tempo": 120.0
            },
            {
                "start_time": 2.2704545,
                "end_time": 3.7454545,
                "pitch": 63,
                "velocity": 64,
                "duration": 1.475,
                "tempo": 120.0
            },
            {
                "start_time": 2.2704545,
                "end_time": 3.7454545,
                "pitch": 65,
                "velocity": 64,
                "duration": 1.475,
                "tempo": 120.0
            },
            {
                "start_time": 3.7454545,
                "end_time": 3.9590909,
                "pitch": 58,
                "velocity": 64,
                "duration": 0.2136364,
                "tempo": 120.0
            },
            {
                "start_time": 3.9590909,
                "end_time": 4.6159091,
                "pitch": 61,
                "velocity": 64,
                "duration": 0.6568182,
                "tempo": 120.0
            },
            {
                "start_time": 4.6159091,
                "end_time": 5.6681818,
                "pitch": 61,
                "velocity": 64,
                "duration": 1.0522727,
                "tempo": 120.0
            },
            {
                "start_time": 5.6681818,
                "end_time": 6.3227273,
                "pitch": 60,
                "velocity": 64,
                "duration": 0.6545455,
                "tempo": 120.0
            },
            {
                "start_time": 6.3227273,
                "end_time": 7.3818182,
                "pitch": 63,
                "velocity": 64,
                "duration": 1.0590909,
                "tempo": 120.0
            },
            {
                "start_time": 3.7454545,
                "end_time": 9.0840909,
                "pitch": 65,
                "velocity": 64,
                "duration": 5.3386364,
                "tempo": 120.0
            },
            {
                "start_time": 7.3840909,
                "end_time": 9.0840909,
                "pitch": 65,
                "velocity": 64,
                "duration": 1.7,
                "tempo": 120.0
            },
            {
                "start_time": 7.3840909,
                "end_time": 10.5840909,
                "pitch": 63,
                "velocity": 64,
                "duration": 3.2,
                "tempo": 120.0
            },
            {
                "start_time": 9.0840909,
                "end_time": 10.5840909,
                "pitch": 63,
                "velocity": 64,
                "duration": 1.5,
                "tempo": 120.0
            },
            {
                "start_time": 6.3227273,
                "end_time": 10.65,
                "pitch": 61,
                "velocity": 64,
                "duration": 4.3272727,
                "tempo": 120.0
            },
            {
                "start_time": 10.5840909,
                "end_time": 10.65,
                "pitch": 61,
                "velocity": 51,
                "duration": 0.0659091,
                "tempo": 120.0
            },
            {
                "start_time": 10.6522727,
                "end_time": 10.7181818,
                "pitch": 61,
                "velocity": 51,
                "duration": 0.0659091,
                "tempo": 120.0
            },
            {
                "start_time": 3.9590909,
                "end_time": 10.8022727,
                "pitch": 37,
                "velocity": 64,
                "duration": 6.8431818,
                "tempo": 120.0
            },
            {
                "start_time": 10.7181818,
                "end_time": 10.8022727,
                "pitch": 58,
                "velocity": 51,
                "duration": 0.0840909,
                "tempo": 120.0
            },
            {
                "start_time": 10.8022727,
                "end_time": 12.4840909,
                "pitch": 60,
                "velocity": 64,
                "duration": 1.6818182,
                "tempo": 120.0
            },
            {
                "start_time": 12.4840909,
                "end_time": 12.9159091,
                "pitch": 77,
                "velocity": 80,
                "duration": 0.4318182,
                "tempo": 120.0
            },
            {
                "start_time": 12.9159091,
                "end_time": 13.35,
                "pitch": 75,
                "velocity": 80,
                "duration": 0.4340909,
                "tempo": 120.0
            },
            {
                "start_time": 13.35,
                "end_time": 13.775,
                "pitch": 80,
                "velocity": 80,
                "duration": 0.425,
                "tempo": 120.0
            },
            {
                "start_time": 13.775,
                "end_time": 14.2022727,
                "pitch": 78,
                "velocity": 80,
                "duration": 0.4272727,
                "tempo": 120.0
            },
            {
                "start_time": 14.2022727,
                "end_time": 14.3113636,
                "pitch": 78,
                "velocity": 80,
                "duration": 0.1090909,
                "tempo": 120.0
            },
            {
                "start_time": 12.9159091,
                "end_time": 14.4068182,
                "pitch": 77,
                "velocity": 80,
                "duration": 1.4909091,
                "tempo": 120.0
            },
            {
                "start_time": 14.3113636,
                "end_time": 14.4068182,
                "pitch": 77,
                "velocity": 80,
                "duration": 0.0954545,
                "tempo": 120.0
            },
            {
                "start_time": 14.4068182,
                "end_time": 14.5181818,
                "pitch": 75,
                "velocity": 80,
                "duration": 0.1113636,
                "tempo": 120.0
            },
            {
                "start_time": 14.4068182,
                "end_time": 15.0568182,
                "pitch": 77,
                "velocity": 80,
                "duration": 0.65,
                "tempo": 120.0
            },
            {
                "start_time": 14.5181818,
                "end_time": 15.0568182,
                "pitch": 77,
                "velocity": 80,
                "duration": 0.5386364,
                "tempo": 120.0
            },
            {
                "start_time": 15.0568182,
                "end_time": 15.375,
                "pitch": 77,
                "velocity": 80,
                "duration": 0.3181818,
                "tempo": 120.0
            },
            {
                "start_time": 15.375,
                "end_time": 15.6795455,
                "pitch": 77,
                "velocity": 80,
                "duration": 0.3045455,
                "tempo": 120.0
            },
            {
                "start_time": 15.6795455,
                "end_time": 15.6818182,
                "pitch": 90,
                "velocity": 80,
                "duration": 0.0022727,
                "tempo": 120.0
            },
            {
                "start_time": 13.775,
                "end_time": 15.8863636,
                "pitch": 27,
                "velocity": 80,
                "duration": 2.1113636,
                "tempo": 120.0
            },
            {
                "start_time": 15.6818182,
                "end_time": 15.8863636,
                "pitch": 80,
                "velocity": 80,
                "duration": 0.2045455,
                "tempo": 120.0
            },
            {
                "start_time": 15.8863636,
                "end_time": 16.0045455,
                "pitch": 77,
                "velocity": 80,
                "duration": 0.1181818,
                "tempo": 120.0
            },
            {
                "start_time": 16.0045455,
                "end_time": 16.1045455,
                "pitch": 77,
                "velocity": 80,
                "duration": 0.1,
                "tempo": 120.0
            },
            {
                "start_time": 14.5181818,
                "end_time": 16.2045455,
                "pitch": 75,
                "velocity": 80,
                "duration": 1.6863636,
                "tempo": 120.0
            },
            {
                "start_time": 16.1045455,
                "end_time": 16.2045455,
                "pitch": 75,
                "velocity": 80,
                "duration": 0.1,
                "tempo": 120.0
            },
            {
                "start_time": 16.1045455,
                "end_time": 16.7636364,
                "pitch": 77,
                "velocity": 80,
                "duration": 0.6590909,
                "tempo": 120.0
            },
            {
                "start_time": 16.2045455,
                "end_time": 16.7636364,
                "pitch": 77,
                "velocity": 80,
                "duration": 0.5590909,
                "tempo": 120.0
            },
            {
                "start_time": 16.7636364,
                "end_time": 17.0818182,
                "pitch": 70,
                "velocity": 80,
                "duration": 0.3181818,
                "tempo": 120.0
            },
            {
                "start_time": 12.4840909,
                "end_time": 17.3886364,
                "pitch": 72,
                "velocity": 80,
                "duration": 4.9045455,
                "tempo": 120.0
            },
            {
                "start_time": 17.0818182,
                "end_time": 17.3886364,
                "pitch": 72,
                "velocity": 80,
                "duration": 0.3068182,
                "tempo": 120.0
            },
            {
                "start_time": 17.3886364,
                "end_time": 17.5931818,
                "pitch": 72,
                "velocity": 80,
                "duration": 0.2045455,
                "tempo": 120.0
            },
            {
                "start_time": 17.5931818,
                "end_time": 17.6954545,
                "pitch": 73,
                "velocity": 80,
                "duration": 0.1022727,
                "tempo": 120.0
            },
            {
                "start_time": 16.2045455,
                "end_time": 17.8159091,
                "pitch": 75,
                "velocity": 80,
                "duration": 1.6113636,
                "tempo": 120.0
            },
            {
                "start_time": 17.6954545,
                "end_time": 17.8159091,
                "pitch": 75,
                "velocity": 80,
                "duration": 0.1204545,
                "tempo": 120.0
            },
            {
                "start_time": 17.8159091,
                "end_time": 17.9181818,
                "pitch": 75,
                "velocity": 80,
                "duration": 0.1022727,
                "tempo": 120.0
            },
            {
                "start_time": 17.9181818,
                "end_time": 18.4545455,
                "pitch": 73,
                "velocity": 80,
                "duration": 0.5363636,
                "tempo": 120.0
            },
            {
                "start_time": 18.4545455,
                "end_time": 18.7727273,
                "pitch": 75,
                "velocity": 80,
                "duration": 0.3181818,
                "tempo": 120.0
            },
            {
                "start_time": 18.7727273,
                "end_time": 19.0886364,
                "pitch": 77,
                "velocity": 80,
                "duration": 0.3159091,
                "tempo": 120.0
            },
            {
                "start_time": 18.7727273,
                "end_time": 19.3090909,
                "pitch": 75,
                "velocity": 80,
                "duration": 0.5363636,
                "tempo": 120.0
            },
            {
                "start_time": 19.0886364,
                "end_time": 19.3090909,
                "pitch": 75,
                "velocity": 80,
                "duration": 0.2204545,
                "tempo": 120.0
            },
            {
                "start_time": 19.3090909,
                "end_time": 19.625,
                "pitch": 72,
                "velocity": 80,
                "duration": 0.3159091,
                "tempo": 120.0
            },
            {
                "start_time": 17.0818182,
                "end_time": 19.9431818,
                "pitch": 49,
                "velocity": 80,
                "duration": 2.8613636,
                "tempo": 120.0
            },
            {
                "start_time": 19.625,
                "end_time": 19.9431818,
                "pitch": 70,
                "velocity": 80,
                "duration": 0.3181818,
                "tempo": 120.0
            },
            {
                "start_time": 19.9431818,
                "end_time": 21.0068182,
                "pitch": 72,
                "velocity": 80,
                "duration": 1.0636364,
                "tempo": 120.0
            },
            {
                "start_time": 19.0886364,
                "end_time": 21.1090909,
                "pitch": 77,
                "velocity": 80,
                "duration": 2.0204545,
                "tempo": 120.0
            },
            {
                "start_time": 21.0068182,
                "end_time": 21.1090909,
                "pitch": 77,
                "velocity": 80,
                "duration": 0.1022727,
                "tempo": 120.0
            },
            {
                "start_time": 21.1090909,
                "end_time": 21.2295455,
                "pitch": 77,
                "velocity": 80,
                "duration": 0.1204545,
                "tempo": 120.0
            },
            {
                "start_time": 19.3090909,
                "end_time": 21.3318182,
                "pitch": 75,
                "velocity": 80,
                "duration": 2.0227273,
                "tempo": 120.0
            },
            {
                "start_time": 21.2295455,
                "end_time": 21.3318182,
                "pitch": 75,
                "velocity": 80,
                "duration": 0.1022727,
                "tempo": 120.0
            },
            {
                "start_time": 21.2295455,
                "end_time": 21.8477273,
                "pitch": 77,
                "velocity": 80,
                "duration": 0.6181818,
                "tempo": 120.0
            },
            {
                "start_time": 21.3318182,
                "end_time": 21.8477273,
                "pitch": 77,
                "velocity": 80,
                "duration": 0.5159091,
                "tempo": 120.0
            },
            {
                "start_time": 21.8477273,
                "end_time": 22.1636364,
                "pitch": 77,
                "velocity": 80,
                "duration": 0.3159091,
                "tempo": 120.0
            },
            {
                "start_time": 22.1636364,
                "end_time": 22.5022727,
                "pitch": 77,
                "velocity": 80,
                "duration": 0.3386364,
                "tempo": 120.0
            },
            {
                "start_time": 22.5022727,
                "end_time": 22.7227273,
                "pitch": 80,
                "velocity": 80,
                "duration": 0.2204545,
                "tempo": 120.0
            },
            {
                "start_time": 15.8863636,
                "end_time": 22.725,
                "pitch": 27,
                "velocity": 80,
                "duration": 6.8386364,
                "tempo": 120.0
            },
            {
                "start_time": 22.7227273,
                "end_time": 22.725,
                "pitch": 27,
                "velocity": 80,
                "duration": 0.0022727,
                "tempo": 120.0
            },
            {
                "start_time": 22.725,
                "end_time": 22.8227273,
                "pitch": 77,
                "velocity": 80,
                "duration": 0.0977273,
                "tempo": 120.0
            },
            {
                "start_time": 22.825,
                "end_time": 22.9227273,
                "pitch": 77,
                "velocity": 80,
                "duration": 0.0977273,
                "tempo": 120.0
            },
            {
                "start_time": 21.3318182,
                "end_time": 23.0409091,
                "pitch": 75,
                "velocity": 80,
                "duration": 1.7090909,
                "tempo": 120.0
            },
            {
                "start_time": 22.9227273,
                "end_time": 23.0409091,
                "pitch": 75,
                "velocity": 80,
                "duration": 0.1181818,
                "tempo": 120.0
            },
            {
                "start_time": 22.9227273,
                "end_time": 23.5659091,
                "pitch": 77,
                "velocity": 80,
                "duration": 0.6431818,
                "tempo": 120.0
            },
            {
                "start_time": 23.0409091,
                "end_time": 23.5659091,
                "pitch": 77,
                "velocity": 80,
                "duration": 0.525,
                "tempo": 120.0
            },
            {
                "start_time": 23.5659091,
                "end_time": 23.875,
                "pitch": 77,
                "velocity": 80,
                "duration": 0.3090909,
                "tempo": 120.0
            },
            {
                "start_time": 23.0409091,
                "end_time": 24.2068182,
                "pitch": 75,
                "velocity": 80,
                "duration": 1.1659091,
                "tempo": 120.0
            },
            {
                "start_time": 23.875,
                "end_time": 24.2068182,
                "pitch": 75,
                "velocity": 80,
                "duration": 0.3318182,
                "tempo": 120.0
            },
            {
                "start_time": 23.875,
                "end_time": 24.4068182,
                "pitch": 77,
                "velocity": 80,
                "duration": 0.5318182,
                "tempo": 120.0
            },
            {
                "start_time": 24.2068182,
                "end_time": 24.4068182,
                "pitch": 77,
                "velocity": 80,
                "duration": 0.2,
                "tempo": 120.0
            },
            {
                "start_time": 24.4068182,
                "end_time": 24.7340909,
                "pitch": 73,
                "velocity": 80,
                "duration": 0.3272727,
                "tempo": 120.0
            },
            {
                "start_time": 19.625,
                "end_time": 24.7340909,
                "pitch": 76,
                "velocity": 80,
                "duration": 5.1090909,
                "tempo": 120.0
            },
            {
                "start_time": 24.7340909,
                "end_time": 25.0522727,
                "pitch": 70,
                "velocity": 80,
                "duration": 0.3181818,
                "tempo": 120.0
            },
            {
                "start_time": 19.9431818,
                "end_time": 25.0545455,
                "pitch": 49,
                "velocity": 80,
                "duration": 5.1113636,
                "tempo": 120.0
            },
            {
                "start_time": 25.0522727,
                "end_time": 25.0545455,
                "pitch": 49,
                "velocity": 80,
                "duration": 0.0022727,
                "tempo": 120.0
            },
            {
                "start_time": 25.0545455,
                "end_time": 25.7090909,
                "pitch": 73,
                "velocity": 80,
                "duration": 0.6545455,
                "tempo": 120.0
            },
            {
                "start_time": 24.7340909,
                "end_time": 25.7090909,
                "pitch": 76,
                "velocity": 80,
                "duration": 0.975,
                "tempo": 120.0
            },
            {
                "start_time": 25.7090909,
                "end_time": 25.8090909,
                "pitch": 70,
                "velocity": 80,
                "duration": 0.1,
                "tempo": 120.0
            },
            {
                "start_time": 21.0068182,
                "end_time": 25.9090909,
                "pitch": 72,
                "velocity": 80,
                "duration": 4.9022727,
                "tempo": 120.0
            },
            {
                "start_time": 25.8090909,
                "end_time": 25.9090909,
                "pitch": 72,
                "velocity": 80,
                "duration": 0.1,
                "tempo": 120.0
            },
            {
                "start_time": 25.9090909,
                "end_time": 26.125,
                "pitch": 72,
                "velocity": 80,
                "duration": 0.2159091,
                "tempo": 120.0
            },
            {
                "start_time": 26.125,
                "end_time": 26.4522727,
                "pitch": 73,
                "velocity": 80,
                "duration": 0.3272727,
                "tempo": 120.0
            },
            {
                "start_time": 24.2068182,
                "end_time": 26.4522727,
                "pitch": 75,
                "velocity": 80,
                "duration": 2.2454545,
                "tempo": 120.0
            },
            {
                "start_time": 26.4522727,
                "end_time": 26.7681818,
                "pitch": 72,
                "velocity": 80,
                "duration": 0.3159091,
                "tempo": 120.0
            },
            {
                "start_time": 9.0840909,
                "end_time": 27.8136364,
                "pitch": 65,
                "velocity": 64,
                "duration": 18.7295455,
                "tempo": 120.0
            },
            {
                "start_time": 26.4522727,
                "end_time": 27.8136364,
                "pitch": 75,
                "velocity": 80,
                "duration": 1.3613636,
                "tempo": 120.0
            },
            {
                "start_time": 26.7681818,
                "end_time": 27.8136364,
                "pitch": 75,
                "velocity": 80,
                "duration": 1.0454545,
                "tempo": 120.0
            },
            {
                "start_time": 10.8022727,
                "end_time": 27.9318182,
                "pitch": 37,
                "velocity": 64,
                "duration": 17.1295455,
                "tempo": 120.0
            },
            {
                "start_time": 27.8136364,
                "end_time": 27.9318182,
                "pitch": 58,
                "velocity": 101,
                "duration": 0.1181818,
                "tempo": 120.0
            },
            {
                "start_time": 27.9318182,
                "end_time": 28.0340909,
                "pitch": 60,
                "velocity": 101,
                "duration": 0.1022727,
                "tempo": 120.0
            },
            {
                "start_time": 28.0340909,
                "end_time": 28.1363636,
                "pitch": 60,
                "velocity": 101,
                "duration": 0.1022727,
                "tempo": 120.0
            },
            {
                "start_time": 10.5840909,
                "end_time": 28.2568182,
                "pitch": 63,
                "velocity": 51,
                "duration": 17.6727273,
                "tempo": 120.0
            },
            {
                "start_time": 28.1363636,
                "end_time": 28.2568182,
                "pitch": 63,
                "velocity": 101,
                "duration": 0.1204545,
                "tempo": 120.0
            },
            {
                "start_time": 27.8136364,
                "end_time": 28.7,
                "pitch": 65,
                "velocity": 101,
                "duration": 0.8863636,
                "tempo": 120.0
            },
            {
                "start_time": 28.2568182,
                "end_time": 28.7,
                "pitch": 65,
                "velocity": 101,
                "duration": 0.4431818,
                "tempo": 120.0
            },
            {
                "start_time": 28.7,
                "end_time": 29.0090909,
                "pitch": 65,
                "velocity": 101,
                "duration": 0.3090909,
                "tempo": 120.0
            },
            {
                "start_time": 28.2568182,
                "end_time": 29.3204545,
                "pitch": 63,
                "velocity": 101,
                "duration": 1.0636364,
                "tempo": 120.0
            },
            {
                "start_time": 29.0090909,
                "end_time": 29.3204545,
                "pitch": 63,
                "velocity": 101,
                "duration": 0.3113636,
                "tempo": 120.0
            },
            {
                "start_time": 28.1363636,
                "end_time": 29.5340909,
                "pitch": 61,
                "velocity": 101,
                "duration": 1.3977273,
                "tempo": 120.0
            },
            {
                "start_time": 29.3204545,
                "end_time": 29.5340909,
                "pitch": 61,
                "velocity": 101,
                "duration": 0.2136364,
                "tempo": 120.0
            },
            {
                "start_time": 29.3204545,
                "end_time": 29.6318182,
                "pitch": 63,
                "velocity": 101,
                "duration": 0.3113636,
                "tempo": 120.0
            },
            {
                "start_time": 29.5340909,
                "end_time": 29.6318182,
                "pitch": 63,
                "velocity": 101,
                "duration": 0.0977273,
                "tempo": 120.0
            },
            {
                "start_time": 29.0090909,
                "end_time": 29.6318182,
                "pitch": 65,
                "velocity": 101,
                "duration": 0.6227273,
                "tempo": 120.0
            },
            {
                "start_time": 29.6318182,
                "end_time": 29.75,
                "pitch": 58,
                "velocity": 101,
                "duration": 0.1181818,
                "tempo": 120.0
            },
            {
                "start_time": 29.75,
                "end_time": 29.85,
                "pitch": 55,
                "velocity": 101,
                "duration": 0.1,
                "tempo": 120.0
            },
            {
                "start_time": 29.85,
                "end_time": 29.9659091,
                "pitch": 55,
                "velocity": 101,
                "duration": 0.1159091,
                "tempo": 120.0
            },
            {
                "start_time": 29.9659091,
                "end_time": 30.0681818,
                "pitch": 51,
                "velocity": 101,
                "duration": 0.1022727,
                "tempo": 120.0
            },
            {
                "start_time": 29.9659091,
                "end_time": 30.1863636,
                "pitch": 53,
                "velocity": 101,
                "duration": 0.2204545,
                "tempo": 120.0
            },
            {
                "start_time": 30.0681818,
                "end_time": 30.1863636,
                "pitch": 53,
                "velocity": 101,
                "duration": 0.1181818,
                "tempo": 120.0
            },
            {
                "start_time": 30.1863636,
                "end_time": 30.2886364,
                "pitch": 53,
                "velocity": 101,
                "duration": 0.1022727,
                "tempo": 120.0
            },
            {
                "start_time": 30.2886364,
                "end_time": 30.2909091,
                "pitch": 67,
                "velocity": 101,
                "duration": 0.0022727,
                "tempo": 120.0
            },
            {
                "start_time": 27.9318182,
                "end_time": 30.3931818,
                "pitch": 37,
                "velocity": 101,
                "duration": 2.4613636,
                "tempo": 120.0
            },
            {
                "start_time": 30.2909091,
                "end_time": 30.3931818,
                "pitch": 58,
                "velocity": 101,
                "duration": 0.1022727,
                "tempo": 120.0
            },
            {
                "start_time": 29.5340909,
                "end_time": 30.5045455,
                "pitch": 61,
                "velocity": 101,
                "duration": 0.9704545,
                "tempo": 120.0
            },
            {
                "start_time": 30.3931818,
                "end_time": 30.5045455,
                "pitch": 61,
                "velocity": 101,
                "duration": 0.1113636,
                "tempo": 120.0
            },
            {
                "start_time": 10.7181818,
                "end_time": 30.5045455,
                "pitch": 64,
                "velocity": 51,
                "duration": 19.7863636,
                "tempo": 120.0
            },
            {
                "start_time": 30.5045455,
                "end_time": 30.5977273,
                "pitch": 58,
                "velocity": 101,
                "duration": 0.0931818,
                "tempo": 120.0
            },
            {
                "start_time": 30.3931818,
                "end_time": 30.6,
                "pitch": 37,
                "velocity": 101,
                "duration": 0.2068182,
                "tempo": 120.0
            },
            {
                "start_time": 30.6,
                "end_time": 30.7090909,
                "pitch": 61,
                "velocity": 101,
                "duration": 0.1090909,
                "tempo": 120.0
            },
            {
                "start_time": 30.7090909,
                "end_time": 30.8068182,
                "pitch": 66,
                "velocity": 101,
                "duration": 0.0977273,
                "tempo": 120.0
            },
            {
                "start_time": 29.6318182,
                "end_time": 30.9227273,
                "pitch": 65,
                "velocity": 101,
                "duration": 1.2909091,
                "tempo": 120.0
            },
            {
                "start_time": 30.8068182,
                "end_time": 30.9227273,
                "pitch": 66,
                "velocity": 101,
                "duration": 0.1159091,
                "tempo": 120.0
            },
            {
                "start_time": 30.9227273,
                "end_time": 31.0227273,
                "pitch": 63,
                "velocity": 101,
                "duration": 0.1,
                "tempo": 120.0
            },
            {
                "start_time": 30.7090909,
                "end_time": 31.1227273,
                "pitch": 61,
                "velocity": 101,
                "duration": 0.4136364,
                "tempo": 120.0
            },
            {
                "start_time": 31.0227273,
                "end_time": 31.1227273,
                "pitch": 61,
                "velocity": 101,
                "duration": 0.1,
                "tempo": 120.0
            },
            {
                "start_time": 31.1227273,
                "end_time": 31.2409091,
                "pitch": 61,
                "velocity": 101,
                "duration": 0.1181818,
                "tempo": 120.0
            },
            {
                "start_time": 26.7681818,
                "end_time": 34.75,
                "pitch": 72,
                "velocity": 80,
                "duration": 7.9818182,
                "tempo": 120.0
            },
            {
                "start_time": 34.65,
                "end_time": 34.75,
                "pitch": 72,
                "velocity": 80,
                "duration": 0.1,
                "tempo": 120.0
            },
            {
                "start_time": 34.75,
                "end_time": 34.8522727,
                "pitch": 73,
                "velocity": 80,
                "duration": 0.1022727,
                "tempo": 120.0
            },
            {
                "start_time": 25.7090909,
                "end_time": 34.8522727,
                "pitch": 76,
                "velocity": 80,
                "duration": 9.1431818,
                "tempo": 120.0
            },
            {
                "start_time": 25.8090909,
                "end_time": 34.9727273,
                "pitch": 49,
                "velocity": 80,
                "duration": 9.1636364,
                "tempo": 120.0
            },
            {
                "start_time": 34.8522727,
                "end_time": 34.9727273,
                "pitch": 70,
                "velocity": 80,
                "duration": 0.1204545,
                "tempo": 120.0
            },
            {
                "start_time": 34.9727273,
                "end_time": 35.1886364,
                "pitch": 73,
                "velocity": 80,
                "duration": 0.2159091,
                "tempo": 120.0
            },
            {
                "start_time": 34.8522727,
                "end_time": 35.1886364,
                "pitch": 76,
                "velocity": 80,
                "duration": 0.3363636,
                "tempo": 120.0
            },
            {
                "start_time": 34.9727273,
                "end_time": 35.5,
                "pitch": 49,
                "velocity": 80,
                "duration": 0.5272727,
                "tempo": 120.0
            },
            {
                "start_time": 35.1886364,
                "end_time": 35.5,
                "pitch": 70,
                "velocity": 80,
                "duration": 0.3113636,
                "tempo": 120.0
            },
            {
                "start_time": 35.5,
                "end_time": 35.6,
                "pitch": 73,
                "velocity": 64,
                "duration": 0.1,
                "tempo": 120.0
            },
            {
                "start_time": 35.6,
                "end_time": 35.7159091,
                "pitch": 73,
                "velocity": 64,
                "duration": 0.1159091,
                "tempo": 120.0
            },
            {
                "start_time": 35.1886364,
                "end_time": 35.7159091,
                "pitch": 76,
                "velocity": 80,
                "duration": 0.5272727,
                "tempo": 120.0
            },
            {
                "start_time": 35.7159091,
                "end_time": 35.8159091,
                "pitch": 70,
                "velocity": 64,
                "duration": 0.1,
                "tempo": 120.0
            },
            {
                "start_time": 35.5,
                "end_time": 35.8181818,
                "pitch": 49,
                "velocity": 64,
                "duration": 0.3181818,
                "tempo": 120.0
            },
            {
                "start_time": 35.8181818,
                "end_time": 36.0340909,
                "pitch": 73,
                "velocity": 64,
                "duration": 0.2159091,
                "tempo": 120.0
            },
            {
                "start_time": 35.7159091,
                "end_time": 36.0340909,
                "pitch": 76,
                "velocity": 64,
                "duration": 0.3181818,
                "tempo": 120.0
            },
            {
                "start_time": 36.0340909,
                "end_time": 36.3590909,
                "pitch": 70,
                "velocity": 64,
                "duration": 0.325,
                "tempo": 120.0
            },
            {
                "start_time": 35.8181818,
                "end_time": 36.3613636,
                "pitch": 49,
                "velocity": 64,
                "duration": 0.5431818,
                "tempo": 120.0
            },
            {
                "start_time": 36.3613636,
                "end_time": 36.4704545,
                "pitch": 75,
                "velocity": 80,
                "duration": 0.1090909,
                "tempo": 120.0
            },
            {
                "start_time": 36.4704545,
                "end_time": 36.5659091,
                "pitch": 75,
                "velocity": 80,
                "duration": 0.0954545,
                "tempo": 120.0
            },
            {
                "start_time": 36.5659091,
                "end_time": 36.6772727,
                "pitch": 73,
                "velocity": 80,
                "duration": 0.1113636,
                "tempo": 120.0
            },
            {
                "start_time": 36.6772727,
                "end_time": 36.8886364,
                "pitch": 75,
                "velocity": 80,
                "duration": 0.2113636,
                "tempo": 120.0
            },
            {
                "start_time": 36.6772727,
                "end_time": 37.2068182,
                "pitch": 72,
                "velocity": 80,
                "duration": 0.5295455,
                "tempo": 120.0
            },
            {
                "start_time": 36.8886364,
                "end_time": 37.2068182,
                "pitch": 72,
                "velocity": 80,
                "duration": 0.3181818,
                "tempo": 120.0
            },
            {
                "start_time": 36.8886364,
                "end_time": 37.3045455,
                "pitch": 75,
                "velocity": 80,
                "duration": 0.4159091,
                "tempo": 120.0
            },
            {
                "start_time": 37.2068182,
                "end_time": 37.3045455,
                "pitch": 75,
                "velocity": 64,
                "duration": 0.0977273,
                "tempo": 120.0
            },
            {
                "start_time": 37.3068182,
                "end_time": 37.4227273,
                "pitch": 75,
                "velocity": 64,
                "duration": 0.1159091,
                "tempo": 120.0
            },
            {
                "start_time": 37.2068182,
                "end_time": 37.5227273,
                "pitch": 72,
                "velocity": 64,
                "duration": 0.3159091,
                "tempo": 120.0
            },
            {
                "start_time": 37.4227273,
                "end_time": 37.5227273,
                "pitch": 73,
                "velocity": 64,
                "duration": 0.1,
                "tempo": 120.0
            },
            {
                "start_time": 37.5227273,
                "end_time": 37.7386364,
                "pitch": 75,
                "velocity": 64,
                "duration": 0.2159091,
                "tempo": 120.0
            },
            {
                "start_time": 37.5227273,
                "end_time": 38.0568182,
                "pitch": 72,
                "velocity": 64,
                "duration": 0.5340909,
                "tempo": 120.0
            },
            {
                "start_time": 37.7386364,
                "end_time": 38.0568182,
                "pitch": 72,
                "velocity": 64,
                "duration": 0.3181818,
                "tempo": 120.0
            },
            {
                "start_time": 24.4068182,
                "end_time": 38.1704545,
                "pitch": 77,
                "velocity": 80,
                "duration": 13.7636364,
                "tempo": 120.0
            },
            {
                "start_time": 38.0590909,
                "end_time": 38.1704545,
                "pitch": 77,
                "velocity": 80,
                "duration": 0.1113636,
                "tempo": 120.0
            },
            {
                "start_time": 37.7386364,
                "end_time": 38.2681818,
                "pitch": 75,
                "velocity": 64,
                "duration": 0.5295455,
                "tempo": 120.0
            },
            {
                "start_time": 38.1704545,
                "end_time": 38.2681818,
                "pitch": 75,
                "velocity": 80,
                "duration": 0.0977273,
                "tempo": 120.0
            },
            {
                "start_time": 38.0590909,
                "end_time": 38.3840909,
                "pitch": 72,
                "velocity": 80,
                "duration": 0.325,
                "tempo": 120.0
            },
            {
                "start_time": 38.2681818,
                "end_time": 38.3840909,
                "pitch": 72,
                "velocity": 80,
                "duration": 0.1159091,
                "tempo": 120.0
            },
            {
                "start_time": 38.3840909,
                "end_time": 38.4818182,
                "pitch": 72,
                "velocity": 80,
                "duration": 0.0977273,
                "tempo": 120.0
            },
            {
                "start_time": 38.1704545,
                "end_time": 38.5818182,
                "pitch": 77,
                "velocity": 80,
                "duration": 0.4113636,
                "tempo": 120.0
            },
            {
                "start_time": 38.4818182,
                "end_time": 38.5818182,
                "pitch": 77,
                "velocity": 80,
                "duration": 0.1,
                "tempo": 120.0
            },
            {
                "start_time": 38.2681818,
                "end_time": 38.6977273,
                "pitch": 75,
                "velocity": 80,
                "duration": 0.4295455,
                "tempo": 120.0
            },
            {
                "start_time": 38.5818182,
                "end_time": 38.6977273,
                "pitch": 75,
                "velocity": 80,
                "duration": 0.1159091,
                "tempo": 120.0
            },
            {
                "start_time": 13.35,
                "end_time": 38.6977273,
                "pitch": 89,
                "velocity": 80,
                "duration": 25.3477273,
                "tempo": 120.0
            },
            {
                "start_time": 38.6977273,
                "end_time": 38.7977273,
                "pitch": 80,
                "velocity": 80,
                "duration": 0.1,
                "tempo": 120.0
            },
            {
                "start_time": 16.7636364,
                "end_time": 38.9159091,
                "pitch": 78,
                "velocity": 80,
                "duration": 22.1522727,
                "tempo": 120.0
            },
            {
                "start_time": 38.7977273,
                "end_time": 38.9159091,
                "pitch": 78,
                "velocity": 80,
                "duration": 0.1181818,
                "tempo": 120.0
            },
            {
                "start_time": 38.9159091,
                "end_time": 39.0159091,
                "pitch": 78,
                "velocity": 80,
                "duration": 0.1,
                "tempo": 120.0
            },
            {
                "start_time": 38.5818182,
                "end_time": 39.1318182,
                "pitch": 77,
                "velocity": 80,
                "duration": 0.55,
                "tempo": 120.0
            },
            {
                "start_time": 39.0159091,
                "end_time": 39.1318182,
                "pitch": 77,
                "velocity": 80,
                "duration": 0.1159091,
                "tempo": 120.0
            },
            {
                "start_time": 39.1318182,
                "end_time": 39.2318182,
                "pitch": 75,
                "velocity": 80,
                "duration": 0.1,
                "tempo": 120.0
            },
            {
                "start_time": 39.2318182,
                "end_time": 39.3318182,
                "pitch": 77,
                "velocity": 80,
                "duration": 0.1,
                "tempo": 120.0
            },
            {
                "start_time": 38.4818182,
                "end_time": 39.4454545,
                "pitch": 73,
                "velocity": 80,
                "duration": 0.9636364,
                "tempo": 120.0
            },
            {
                "start_time": 39.3340909,
                "end_time": 39.4454545,
                "pitch": 73,
                "velocity": 80,
                "duration": 0.1113636,
                "tempo": 120.0
            },
            {
                "start_time": 39.4454545,
                "end_time": 39.5454545,
                "pitch": 73,
                "velocity": 80,
                "duration": 0.1,
                "tempo": 120.0
            },
            {
                "start_time": 39.2318182,
                "end_time": 39.5454545,
                "pitch": 75,
                "velocity": 80,
                "duration": 0.3136364,
                "tempo": 120.0
            },
            {
                "start_time": 39.5454545,
                "end_time": 39.6590909,
                "pitch": 72,
                "velocity": 80,
                "duration": 0.1136364,
                "tempo": 120.0
            },
            {
                "start_time": 39.6590909,
                "end_time": 39.7568182,
                "pitch": 72,
                "velocity": 80,
                "duration": 0.0977273,
                "tempo": 120.0
            },
            {
                "start_time": 30.9227273,
                "end_time": 39.8727273,
                "pitch": 65,
                "velocity": 101,
                "duration": 8.95,
                "tempo": 120.0
            },
            {
                "start_time": 39.7568182,
                "end_time": 39.8727273,
                "pitch": 65,
                "velocity": 80,
                "duration": 0.1159091,
                "tempo": 120.0
            },
            {
                "start_time": 31.0227273,
                "end_time": 39.9727273,
                "pitch": 63,
                "velocity": 101,
                "duration": 8.95,
                "tempo": 120.0
            },
            {
                "start_time": 39.8727273,
                "end_time": 39.9727273,
                "pitch": 63,
                "velocity": 80,
                "duration": 0.1,
                "tempo": 120.0
            },
            {
                "start_time": 39.9727273,
                "end_time": 40.0727273,
                "pitch": 60,
                "velocity": 80,
                "duration": 0.1,
                "tempo": 120.0
            },
            {
                "start_time": 40.0727273,
                "end_time": 40.1909091,
                "pitch": 60,
                "velocity": 80,
                "duration": 0.1181818,
                "tempo": 120.0
            },
            {
                "start_time": 39.7568182,
                "end_time": 40.1909091,
                "pitch": 61,
                "velocity": 80,
                "duration": 0.4340909,
                "tempo": 120.0
            },
            {
                "start_time": 39.8727273,
                "end_time": 40.2931818,
                "pitch": 65,
                "velocity": 80,
                "duration": 0.4204545,
                "tempo": 120.0
            },
            {
                "start_time": 40.1909091,
                "end_time": 40.2931818,
                "pitch": 65,
                "velocity": 80,
                "duration": 0.1022727,
                "tempo": 120.0
            },
            {
                "start_time": 39.9727273,
                "end_time": 40.4113636,
                "pitch": 63,
                "velocity": 80,
                "duration": 0.4386364,
                "tempo": 120.0
            },
            {
                "start_time": 40.2931818,
                "end_time": 40.4113636,
                "pitch": 63,
                "velocity": 80,
                "duration": 0.1181818,
                "tempo": 120.0
            },
            {
                "start_time": 39.3340909,
                "end_time": 40.4113636,
                "pitch": 77,
                "velocity": 80,
                "duration": 1.0772727,
                "tempo": 120.0
            },
            {
                "start_time": 40.4113636,
                "end_time": 40.5136364,
                "pitch": 68,
                "velocity": 80,
                "duration": 0.1022727,
                "tempo": 120.0
            },
            {
                "start_time": 40.2931818,
                "end_time": 40.6340909,
                "pitch": 65,
                "velocity": 80,
                "duration": 0.3409091,
                "tempo": 120.0
            },
            {
                "start_time": 40.5136364,
                "end_time": 40.6340909,
                "pitch": 65,
                "velocity": 80,
                "duration": 0.1204545,
                "tempo": 120.0
            },
            {
                "start_time": 39.1318182,
                "end_time": 40.6340909,
                "pitch": 78,
                "velocity": 80,
                "duration": 1.5022727,
                "tempo": 120.0
            },
            {
                "start_time": 36.3613636,
                "end_time": 41.4772727,
                "pitch": 49,
                "velocity": 80,
                "duration": 5.1159091,
                "tempo": 120.0
            },
            {
                "start_time": 40.6340909,
                "end_time": 41.4772727,
                "pitch": 70,
                "velocity": 80,
                "duration": 0.8431818,
                "tempo": 120.0
            },
            {
                "start_time": 41.4772727,
                "end_time": 41.5727273,
                "pitch": 73,
                "velocity": 80,
                "duration": 0.0954545,
                "tempo": 120.0
            },
            {
                "start_time": 41.5727273,
                "end_time": 41.6886364,
                "pitch": 73,
                "velocity": 80,
                "duration": 0.1159091,
                "tempo": 120.0
            },
            {
                "start_time": 36.0340909,
                "end_time": 41.6886364,
                "pitch": 76,
                "velocity": 64,
                "duration": 5.6545455,
                "tempo": 120.0
            },
            {
                "start_time": 41.4772727,
                "end_time": 41.7863636,
                "pitch": 49,
                "velocity": 80,
                "duration": 0.3090909,
                "tempo": 120.0
            },
            {
                "start_time": 41.6886364,
                "end_time": 41.7863636,
                "pitch": 70,
                "velocity": 80,
                "duration": 0.0977273,
                "tempo": 120.0
            },
            {
                "start_time": 41.7863636,
                "end_time": 42.0,
                "pitch": 73,
                "velocity": 80,
                "duration": 0.2136364,
                "tempo": 120.0
            },
            {
                "start_time": 41.6886364,
                "end_time": 42.0,
                "pitch": 76,
                "velocity": 80,
                "duration": 0.3113636,
                "tempo": 120.0
            },
            {
                "start_time": 41.7863636,
                "end_time": 42.3181818,
                "pitch": 49,
                "velocity": 80,
                "duration": 0.5318182,
                "tempo": 120.0
            },
            {
                "start_time": 42.0,
                "end_time": 42.3181818,
                "pitch": 70,
                "velocity": 80,
                "duration": 0.3181818,
                "tempo": 120.0
            },
            {
                "start_time": 42.3181818,
                "end_time": 42.4318182,
                "pitch": 73,
                "velocity": 64,
                "duration": 0.1136364,
                "tempo": 120.0
            },
            {
                "start_time": 42.4318182,
                "end_time": 42.5295455,
                "pitch": 73,
                "velocity": 64,
                "duration": 0.0977273,
                "tempo": 120.0
            },
            {
                "start_time": 42.0,
                "end_time": 42.5295455,
                "pitch": 76,
                "velocity": 80,
                "duration": 0.5295455,
                "tempo": 120.0
            },
            {
                "start_time": 42.3181818,
                "end_time": 42.6454545,
                "pitch": 49,
                "velocity": 64,
                "duration": 0.3272727,
                "tempo": 120.0
            },
            {
                "start_time": 42.5295455,
                "end_time": 42.6454545,
                "pitch": 70,
                "velocity": 64,
                "duration": 0.1159091,
                "tempo": 120.0
            },
            {
                "start_time": 42.6454545,
                "end_time": 42.8590909,
                "pitch": 73,
                "velocity": 64,
                "duration": 0.2136364,
                "tempo": 120.0
            },
            {
                "start_time": 42.5295455,
                "end_time": 42.8590909,
                "pitch": 76,
                "velocity": 64,
                "duration": 0.3295455,
                "tempo": 120.0
            },
            {
                "start_time": 42.6454545,
                "end_time": 43.1772727,
                "pitch": 49,
                "velocity": 64,
                "duration": 0.5318182,
                "tempo": 120.0
            },
            {
                "start_time": 42.8590909,
                "end_time": 43.1772727,
                "pitch": 70,
                "velocity": 64,
                "duration": 0.3181818,
                "tempo": 120.0
            },
            {
                "start_time": 39.5454545,
                "end_time": 43.275,
                "pitch": 75,
                "velocity": 80,
                "duration": 3.7295455,
                "tempo": 120.0
            },
            {
                "start_time": 43.1772727,
                "end_time": 43.275,
                "pitch": 75,
                "velocity": 80,
                "duration": 0.0977273,
                "tempo": 120.0
            },
            {
                "start_time": 43.275,
                "end_time": 43.3931818,
                "pitch": 75,
                "velocity": 80,
                "duration": 0.1181818,
                "tempo": 120.0
            },
            {
                "start_time": 43.3931818,
                "end_time": 43.4931818,
                "pitch": 73,
                "velocity": 80,
                "duration": 0.1,
                "tempo": 120.0
            },
            {
                "start_time": 43.4931818,
                "end_time": 43.7090909,
                "pitch": 75,
                "velocity": 80,
                "duration": 0.2159091,
                "tempo": 120.0
            },
            {
                "start_time": 43.4931818,
                "end_time": 44.0272727,
                "pitch": 72,
                "velocity": 80,
                "duration": 0.5340909,
                "tempo": 120.0
            },
            {
                "start_time": 43.7090909,
                "end_time": 44.0272727,
                "pitch": 72,
                "velocity": 80,
                "duration": 0.3181818,
                "tempo": 120.0
            },
            {
                "start_time": 43.7090909,
                "end_time": 44.1409091,
                "pitch": 75,
                "velocity": 80,
                "duration": 0.4318182,
                "tempo": 120.0
            },
            {
                "start_time": 44.0272727,
                "end_time": 44.1409091,
                "pitch": 75,
                "velocity": 64,
                "duration": 0.1136364,
                "tempo": 120.0
            },
            {
                "start_time": 44.1409091,
                "end_time": 44.2386364,
                "pitch": 75,
                "velocity": 64,
                "duration": 0.0977273,
                "tempo": 120.0
            },
            {
                "start_time": 44.0272727,
                "end_time": 44.3522727,
                "pitch": 72,
                "velocity": 64,
                "duration": 0.325,
                "tempo": 120.0
            },
            {
                "start_time": 44.2386364,
                "end_time": 44.3522727,
                "pitch": 73,
                "velocity": 64,
                "duration": 0.1136364,
                "tempo": 120.0
            },
            {
                "start_time": 44.3522727,
                "end_time": 44.55,
                "pitch": 75,
                "velocity": 64,
                "duration": 0.1977273,
                "tempo": 120.0
            },
            {
                "start_time": 44.3522727,
                "end_time": 44.8863636,
                "pitch": 72,
                "velocity": 64,
                "duration": 0.5340909,
                "tempo": 120.0
            },
            {
                "start_time": 44.55,
                "end_time": 44.8863636,
                "pitch": 72,
                "velocity": 64,
                "duration": 0.3363636,
                "tempo": 120.0
            },
            {
                "start_time": 42.8590909,
                "end_time": 44.8863636,
                "pitch": 76,
                "velocity": 64,
                "duration": 2.0272727,
                "tempo": 120.0
            },
            {
                "start_time": 43.1772727,
                "end_time": 46.6022727,
                "pitch": 49,
                "velocity": 80,
                "duration": 3.425,
                "tempo": 120.0
            },
            {
                "start_time": 44.8863636,
                "end_time": 46.6022727,
                "pitch": 70,
                "velocity": 80,
                "duration": 1.7159091,
                "tempo": 120.0
            },
            {
                "start_time": 40.4113636,
                "end_time": 47.0181818,
                "pitch": 77,
                "velocity": 80,
                "duration": 6.6068182,
                "tempo": 120.0
            },
            {
                "start_time": 46.6022727,
                "end_time": 47.0181818,
                "pitch": 77,
                "velocity": 80,
                "duration": 0.4159091,
                "tempo": 120.0
            },
            {
                "start_time": 44.55,
                "end_time": 47.4431818,
                "pitch": 75,
                "velocity": 64,
                "duration": 2.8931818,
                "tempo": 120.0
            },
            {
                "start_time": 47.0181818,
                "end_time": 47.4431818,
                "pitch": 75,
                "velocity": 80,
                "duration": 0.425,
                "tempo": 120.0
            },
            {
                "start_time": 38.6977273,
                "end_time": 47.4431818,
                "pitch": 89,
                "velocity": 80,
                "duration": 8.7454545,
                "tempo": 120.0
            },
            {
                "start_time": 38.7977273,
                "end_time": 47.8772727,
                "pitch": 27,
                "velocity": 80,
                "duration": 9.0795455,
                "tempo": 120.0
            },
            {
                "start_time": 47.4431818,
                "end_time": 47.8772727,
                "pitch": 80,
                "velocity": 80,
                "duration": 0.4340909,
                "tempo": 120.0
            },
            {
                "start_time": 40.6340909,
                "end_time": 48.2954545,
                "pitch": 78,
                "velocity": 80,
                "duration": 7.6613636,
                "tempo": 120.0
            },
            {
                "start_time": 47.8772727,
                "end_time": 48.2954545,
                "pitch": 78,
                "velocity": 80,
                "duration": 0.4181818,
                "tempo": 120.0
            }
        ],
        "Acoustic Guitar (nylon)": [
            {
                "start_time": 31.2409091,
                "end_time": 31.3386364,
                "pitch": 58,
                "velocity": 101,
                "duration": 0.0977273,
                "tempo": 120.0
            },
            {
                "start_time": 31.3386364,
                "end_time": 31.4545455,
                "pitch": 60,
                "velocity": 101,
                "duration": 0.1159091,
                "tempo": 120.0
            },
            {
                "start_time": 31.4568182,
                "end_time": 31.5568182,
                "pitch": 60,
                "velocity": 101,
                "duration": 0.1,
                "tempo": 120.0
            },
            {
                "start_time": 31.5568182,
                "end_time": 31.6727273,
                "pitch": 63,
                "velocity": 101,
                "duration": 0.1159091,
                "tempo": 120.0
            },
            {
                "start_time": 31.6727273,
                "end_time": 32.0909091,
                "pitch": 65,
                "velocity": 101,
                "duration": 0.4181818,
                "tempo": 120.0
            },
            {
                "start_time": 32.0909091,
                "end_time": 32.4159091,
                "pitch": 65,
                "velocity": 101,
                "duration": 0.325,
                "tempo": 120.0
            },
            {
                "start_time": 31.6727273,
                "end_time": 32.7318182,
                "pitch": 63,
                "velocity": 101,
                "duration": 1.0590909,
                "tempo": 120.0
            },
            {
                "start_time": 32.4159091,
                "end_time": 32.7318182,
                "pitch": 63,
                "velocity": 101,
                "duration": 0.3159091,
                "tempo": 120.0
            },
            {
                "start_time": 31.5568182,
                "end_time": 32.95,
                "pitch": 61,
                "velocity": 101,
                "duration": 1.3931818,
                "tempo": 120.0
            },
            {
                "start_time": 32.7318182,
                "end_time": 32.95,
                "pitch": 61,
                "velocity": 101,
                "duration": 0.2181818,
                "tempo": 120.0
            },
            {
                "start_time": 32.7318182,
                "end_time": 33.0477273,
                "pitch": 63,
                "velocity": 101,
                "duration": 0.3159091,
                "tempo": 120.0
            },
            {
                "start_time": 32.95,
                "end_time": 33.0477273,
                "pitch": 63,
                "velocity": 101,
                "duration": 0.0977273,
                "tempo": 120.0
            },
            {
                "start_time": 32.4159091,
                "end_time": 33.0477273,
                "pitch": 65,
                "velocity": 101,
                "duration": 0.6318182,
                "tempo": 120.0
            },
            {
                "start_time": 33.0477273,
                "end_time": 33.1659091,
                "pitch": 58,
                "velocity": 101,
                "duration": 0.1181818,
                "tempo": 120.0
            },
            {
                "start_time": 33.1659091,
                "end_time": 33.2659091,
                "pitch": 55,
                "velocity": 101,
                "duration": 0.1,
                "tempo": 120.0
            },
            {
                "start_time": 33.2659091,
                "end_time": 33.3659091,
                "pitch": 55,
                "velocity": 101,
                "duration": 0.1,
                "tempo": 120.0
            },
            {
                "start_time": 33.3659091,
                "end_time": 33.4795455,
                "pitch": 51,
                "velocity": 101,
                "duration": 0.1136364,
                "tempo": 120.0
            },
            {
                "start_time": 33.3659091,
                "end_time": 33.5772727,
                "pitch": 53,
                "velocity": 101,
                "duration": 0.2113636,
                "tempo": 120.0
            },
            {
                "start_time": 33.4795455,
                "end_time": 33.5772727,
                "pitch": 53,
                "velocity": 101,
                "duration": 0.0977273,
                "tempo": 120.0
            },
            {
                "start_time": 33.5772727,
                "end_time": 33.6909091,
                "pitch": 53,
                "velocity": 101,
                "duration": 0.1136364,
                "tempo": 120.0
            },
            {
                "start_time": 33.6909091,
                "end_time": 33.6931818,
                "pitch": 67,
                "velocity": 101,
                "duration": 0.0022727,
                "tempo": 120.0
            },
            {
                "start_time": 31.3386364,
                "end_time": 33.7909091,
                "pitch": 37,
                "velocity": 101,
                "duration": 2.4522727,
                "tempo": 120.0
            },
            {
                "start_time": 33.6931818,
                "end_time": 33.7909091,
                "pitch": 58,
                "velocity": 101,
                "duration": 0.0977273,
                "tempo": 120.0
            },
            {
                "start_time": 32.95,
                "end_time": 33.9068182,
                "pitch": 61,
                "velocity": 101,
                "duration": 0.9568182,
                "tempo": 120.0
            },
            {
                "start_time": 33.7909091,
                "end_time": 33.9068182,
                "pitch": 61,
                "velocity": 101,
                "duration": 0.1159091,
                "tempo": 120.0
            },
            {
                "start_time": 31.2409091,
                "end_time": 33.9068182,
                "pitch": 64,
                "velocity": 101,
                "duration": 2.6659091,
                "tempo": 120.0
            },
            {
                "start_time": 33.7909091,
                "end_time": 34.0068182,
                "pitch": 37,
                "velocity": 101,
                "duration": 0.2159091,
                "tempo": 120.0
            },
            {
                "start_time": 33.9068182,
                "end_time": 34.0068182,
                "pitch": 58,
                "velocity": 101,
                "duration": 0.1,
                "tempo": 120.0
            },
            {
                "start_time": 34.0068182,
                "end_time": 34.1068182,
                "pitch": 61,
                "velocity": 101,
                "duration": 0.1,
                "tempo": 120.0
            },
            {
                "start_time": 34.1068182,
                "end_time": 34.225,
                "pitch": 66,
                "velocity": 101,
                "duration": 0.1181818,
                "tempo": 120.0
            },
            {
                "start_time": 33.0477273,
                "end_time": 34.3204545,
                "pitch": 65,
                "velocity": 101,
                "duration": 1.2727273,
                "tempo": 120.0
            },
            {
                "start_time": 34.225,
                "end_time": 34.3204545,
                "pitch": 66,
                "velocity": 101,
                "duration": 0.0954545,
                "tempo": 120.0
            },
            {
                "start_time": 34.3204545,
                "end_time": 34.4363636,
                "pitch": 63,
                "velocity": 101,
                "duration": 0.1159091,
                "tempo": 120.0
            },
            {
                "start_time": 34.1068182,
                "end_time": 34.5340909,
                "pitch": 61,
                "velocity": 101,
                "duration": 0.4272727,
                "tempo": 120.0
            },
            {
                "start_time": 34.4363636,
                "end_time": 34.5340909,
                "pitch": 61,
                "velocity": 101,
                "duration": 0.0977273,
                "tempo": 120.0
            },
            {
                "start_time": 34.5340909,
                "end_time": 34.65,
                "pitch": 61,
                "velocity": 101,
                "duration": 0.1159091,
                "tempo": 120.0
            }
        ],
        "Electric Guitar (clean)": [
            {
                "start_time": 0.5545455,
                "end_time": 0.7590909,
                "pitch": 46,
                "velocity": 25,
                "duration": 0.2045455,
                "tempo": 120.0
            },
            {
                "start_time": 0.7590909,
                "end_time": 0.8704545,
                "pitch": 46,
                "velocity": 25,
                "duration": 0.1113636,
                "tempo": 120.0
            },
            {
                "start_time": 0.8704545,
                "end_time": 0.9659091,
                "pitch": 46,
                "velocity": 25,
                "duration": 0.0954545,
                "tempo": 120.0
            },
            {
                "start_time": 0.9659091,
                "end_time": 1.1818182,
                "pitch": 46,
                "velocity": 25,
                "duration": 0.2159091,
                "tempo": 120.0
            },
            {
                "start_time": 1.1818182,
                "end_time": 1.5022727,
                "pitch": 53,
                "velocity": 25,
                "duration": 0.3204545,
                "tempo": 120.0
            },
            {
                "start_time": 1.5022727,
                "end_time": 1.7227273,
                "pitch": 46,
                "velocity": 25,
                "duration": 0.2204545,
                "tempo": 120.0
            },
            {
                "start_time": 1.1818182,
                "end_time": 1.8431818,
                "pitch": 25,
                "velocity": 25,
                "duration": 0.6613636,
                "tempo": 120.0
            },
            {
                "start_time": 1.7227273,
                "end_time": 1.8431818,
                "pitch": 46,
                "velocity": 25,
                "duration": 0.1204545,
                "tempo": 120.0
            },
            {
                "start_time": 1.8431818,
                "end_time": 2.0477273,
                "pitch": 49,
                "velocity": 25,
                "duration": 0.2045455,
                "tempo": 120.0
            },
            {
                "start_time": 2.0477273,
                "end_time": 2.2704545,
                "pitch": 51,
                "velocity": 25,
                "duration": 0.2227273,
                "tempo": 120.0
            },
            {
                "start_time": 2.2704545,
                "end_time": 2.4772727,
                "pitch": 46,
                "velocity": 25,
                "duration": 0.2068182,
                "tempo": 120.0
            },
            {
                "start_time": 2.4772727,
                "end_time": 2.5886364,
                "pitch": 46,
                "velocity": 25,
                "duration": 0.1113636,
                "tempo": 120.0
            },
            {
                "start_time": 2.5886364,
                "end_time": 2.6818182,
                "pitch": 46,
                "velocity": 25,
                "duration": 0.0931818,
                "tempo": 120.0
            },
            {
                "start_time": 1.8431818,
                "end_time": 2.9,
                "pitch": 25,
                "velocity": 25,
                "duration": 1.0568182,
                "tempo": 120.0
            },
            {
                "start_time": 2.6840909,
                "end_time": 2.9,
                "pitch": 46,
                "velocity": 25,
                "duration": 0.2159091,
                "tempo": 120.0
            },
            {
                "start_time": 2.2704545,
                "end_time": 3.2159091,
                "pitch": 53,
                "velocity": 25,
                "duration": 0.9454545,
                "tempo": 120.0
            },
            {
                "start_time": 2.9,
                "end_time": 3.2159091,
                "pitch": 53,
                "velocity": 25,
                "duration": 0.3159091,
                "tempo": 120.0
            },
            {
                "start_time": 1.5022727,
                "end_time": 3.2159091,
                "pitch": 54,
                "velocity": 25,
                "duration": 1.7136364,
                "tempo": 120.0
            },
            {
                "start_time": 3.2159091,
                "end_time": 3.4340909,
                "pitch": 46,
                "velocity": 25,
                "duration": 0.2181818,
                "tempo": 120.0
            },
            {
                "start_time": 2.9,
                "end_time": 3.5340909,
                "pitch": 25,
                "velocity": 25,
                "duration": 0.6340909,
                "tempo": 120.0
            },
            {
                "start_time": 3.4340909,
                "end_time": 3.5340909,
                "pitch": 46,
                "velocity": 25,
                "duration": 0.1,
                "tempo": 120.0
            },
            {
                "start_time": 2.0477273,
                "end_time": 3.7477273,
                "pitch": 49,
                "velocity": 25,
                "duration": 1.7,
                "tempo": 120.0
            },
            {
                "start_time": 3.5340909,
                "end_time": 3.7477273,
                "pitch": 49,
                "velocity": 25,
                "duration": 0.2136364,
                "tempo": 120.0
            },
            {
                "start_time": 3.7477273,
                "end_time": 3.9590909,
                "pitch": 51,
                "velocity": 25,
                "duration": 0.2113636,
                "tempo": 120.0
            },
            {
                "start_time": 3.2159091,
                "end_time": 4.175,
                "pitch": 54,
                "velocity": 25,
                "duration": 0.9590909,
                "tempo": 120.0
            },
            {
                "start_time": 3.9613636,
                "end_time": 4.175,
                "pitch": 54,
                "velocity": 25,
                "duration": 0.2136364,
                "tempo": 120.0
            },
            {
                "start_time": 4.175,
                "end_time": 4.275,
                "pitch": 54,
                "velocity": 25,
                "duration": 0.1,
                "tempo": 120.0
            },
            {
                "start_time": 4.275,
                "end_time": 4.3931818,
                "pitch": 54,
                "velocity": 25,
                "duration": 0.1181818,
                "tempo": 120.0
            },
            {
                "start_time": 4.3931818,
                "end_time": 4.6159091,
                "pitch": 54,
                "velocity": 25,
                "duration": 0.2227273,
                "tempo": 120.0
            },
            {
                "start_time": 3.7477273,
                "end_time": 4.9363636,
                "pitch": 49,
                "velocity": 25,
                "duration": 1.1886364,
                "tempo": 120.0
            },
            {
                "start_time": 4.6159091,
                "end_time": 4.9363636,
                "pitch": 61,
                "velocity": 25,
                "duration": 0.3204545,
                "tempo": 120.0
            },
            {
                "start_time": 4.9363636,
                "end_time": 5.1522727,
                "pitch": 54,
                "velocity": 25,
                "duration": 0.2159091,
                "tempo": 120.0
            },
            {
                "start_time": 5.1522727,
                "end_time": 5.2522727,
                "pitch": 54,
                "velocity": 25,
                "duration": 0.1,
                "tempo": 120.0
            },
            {
                "start_time": 4.6159091,
                "end_time": 5.2522727,
                "pitch": 66,
                "velocity": 25,
                "duration": 0.6363636,
                "tempo": 120.0
            },
            {
                "start_time": 5.2522727,
                "end_time": 5.4590909,
                "pitch": 58,
                "velocity": 25,
                "duration": 0.2068182,
                "tempo": 120.0
            },
            {
                "start_time": 5.4590909,
                "end_time": 5.6681818,
                "pitch": 60,
                "velocity": 25,
                "duration": 0.2090909,
                "tempo": 120.0
            },
            {
                "start_time": 5.6681818,
                "end_time": 5.8818182,
                "pitch": 54,
                "velocity": 25,
                "duration": 0.2136364,
                "tempo": 120.0
            },
            {
                "start_time": 5.8818182,
                "end_time": 5.9818182,
                "pitch": 54,
                "velocity": 25,
                "duration": 0.1,
                "tempo": 120.0
            },
            {
                "start_time": 5.9840909,
                "end_time": 6.1,
                "pitch": 54,
                "velocity": 25,
                "duration": 0.1159091,
                "tempo": 120.0
            },
            {
                "start_time": 6.1,
                "end_time": 6.3227273,
                "pitch": 54,
                "velocity": 25,
                "duration": 0.2227273,
                "tempo": 120.0
            },
            {
                "start_time": 5.2522727,
                "end_time": 6.3227273,
                "pitch": 66,
                "velocity": 25,
                "duration": 1.0704545,
                "tempo": 120.0
            },
            {
                "start_time": 6.3227273,
                "end_time": 6.6363636,
                "pitch": 61,
                "velocity": 25,
                "duration": 0.3136364,
                "tempo": 120.0
            },
            {
                "start_time": 4.9363636,
                "end_time": 6.6386364,
                "pitch": 49,
                "velocity": 25,
                "duration": 1.7022727,
                "tempo": 120.0
            },
            {
                "start_time": 6.6386364,
                "end_time": 6.8431818,
                "pitch": 54,
                "velocity": 25,
                "duration": 0.2045455,
                "tempo": 120.0
            },
            {
                "start_time": 6.8431818,
                "end_time": 6.9386364,
                "pitch": 54,
                "velocity": 25,
                "duration": 0.0954545,
                "tempo": 120.0
            },
            {
                "start_time": 6.3227273,
                "end_time": 6.9386364,
                "pitch": 66,
                "velocity": 25,
                "duration": 0.6159091,
                "tempo": 120.0
            },
            {
                "start_time": 6.9386364,
                "end_time": 7.1590909,
                "pitch": 58,
                "velocity": 25,
                "duration": 0.2204545,
                "tempo": 120.0
            },
            {
                "start_time": 5.4590909,
                "end_time": 7.1613636,
                "pitch": 37,
                "velocity": 25,
                "duration": 1.7022727,
                "tempo": 120.0
            },
            {
                "start_time": 7.1590909,
                "end_time": 7.1613636,
                "pitch": 37,
                "velocity": 25,
                "duration": 0.0022727,
                "tempo": 120.0
            },
            {
                "start_time": 7.1613636,
                "end_time": 7.3840909,
                "pitch": 60,
                "velocity": 25,
                "duration": 0.2227273,
                "tempo": 120.0
            },
            {
                "start_time": 7.3840909,
                "end_time": 7.5931818,
                "pitch": 46,
                "velocity": 25,
                "duration": 0.2090909,
                "tempo": 120.0
            },
            {
                "start_time": 7.5931818,
                "end_time": 7.6931818,
                "pitch": 46,
                "velocity": 25,
                "duration": 0.1,
                "tempo": 120.0
            },
            {
                "start_time": 7.6931818,
                "end_time": 7.8068182,
                "pitch": 46,
                "velocity": 25,
                "duration": 0.1136364,
                "tempo": 120.0
            },
            {
                "start_time": 3.5340909,
                "end_time": 8.0113636,
                "pitch": 25,
                "velocity": 25,
                "duration": 4.4772727,
                "tempo": 120.0
            },
            {
                "start_time": 7.8068182,
                "end_time": 8.0113636,
                "pitch": 46,
                "velocity": 25,
                "duration": 0.2045455,
                "tempo": 120.0
            },
            {
                "start_time": 8.0113636,
                "end_time": 8.3477273,
                "pitch": 53,
                "velocity": 25,
                "duration": 0.3363636,
                "tempo": 120.0
            },
            {
                "start_time": 8.3477273,
                "end_time": 8.5590909,
                "pitch": 46,
                "velocity": 25,
                "duration": 0.2113636,
                "tempo": 120.0
            },
            {
                "start_time": 8.5590909,
                "end_time": 8.6568182,
                "pitch": 46,
                "velocity": 25,
                "duration": 0.0977273,
                "tempo": 120.0
            },
            {
                "start_time": 8.0113636,
                "end_time": 8.6590909,
                "pitch": 25,
                "velocity": 25,
                "duration": 0.6477273,
                "tempo": 120.0
            },
            {
                "start_time": 6.6386364,
                "end_time": 8.8704545,
                "pitch": 49,
                "velocity": 25,
                "duration": 2.2318182,
                "tempo": 120.0
            },
            {
                "start_time": 8.6590909,
                "end_time": 8.8704545,
                "pitch": 49,
                "velocity": 25,
                "duration": 0.2113636,
                "tempo": 120.0
            },
            {
                "start_time": 3.9613636,
                "end_time": 9.0840909,
                "pitch": 51,
                "velocity": 25,
                "duration": 5.1227273,
                "tempo": 120.0
            },
            {
                "start_time": 8.8704545,
                "end_time": 9.0840909,
                "pitch": 51,
                "velocity": 25,
                "duration": 0.2136364,
                "tempo": 120.0
            },
            {
                "start_time": 9.0840909,
                "end_time": 9.3,
                "pitch": 46,
                "velocity": 25,
                "duration": 0.2159091,
                "tempo": 120.0
            },
            {
                "start_time": 9.3,
                "end_time": 9.4,
                "pitch": 46,
                "velocity": 25,
                "duration": 0.1,
                "tempo": 120.0
            },
            {
                "start_time": 9.4,
                "end_time": 9.5,
                "pitch": 46,
                "velocity": 25,
                "duration": 0.1,
                "tempo": 120.0
            },
            {
                "start_time": 8.6590909,
                "end_time": 9.7159091,
                "pitch": 25,
                "velocity": 25,
                "duration": 1.0568182,
                "tempo": 120.0
            },
            {
                "start_time": 9.5,
                "end_time": 9.7159091,
                "pitch": 46,
                "velocity": 25,
                "duration": 0.2159091,
                "tempo": 120.0
            },
            {
                "start_time": 9.0840909,
                "end_time": 10.05,
                "pitch": 53,
                "velocity": 25,
                "duration": 0.9659091,
                "tempo": 120.0
            },
            {
                "start_time": 9.7159091,
                "end_time": 10.05,
                "pitch": 53,
                "velocity": 25,
                "duration": 0.3340909,
                "tempo": 120.0
            },
            {
                "start_time": 8.3477273,
                "end_time": 10.05,
                "pitch": 54,
                "velocity": 25,
                "duration": 1.7022727,
                "tempo": 120.0
            },
            {
                "start_time": 10.05,
                "end_time": 10.25,
                "pitch": 46,
                "velocity": 25,
                "duration": 0.2,
                "tempo": 120.0
            },
            {
                "start_time": 9.7159091,
                "end_time": 10.3681818,
                "pitch": 25,
                "velocity": 25,
                "duration": 0.6522727,
                "tempo": 120.0
            },
            {
                "start_time": 10.25,
                "end_time": 10.3681818,
                "pitch": 46,
                "velocity": 25,
                "duration": 0.1181818,
                "tempo": 120.0
            },
            {
                "start_time": 8.8704545,
                "end_time": 10.5840909,
                "pitch": 49,
                "velocity": 25,
                "duration": 1.7136364,
                "tempo": 120.0
            },
            {
                "start_time": 10.3681818,
                "end_time": 10.5840909,
                "pitch": 49,
                "velocity": 25,
                "duration": 0.2159091,
                "tempo": 120.0
            },
            {
                "start_time": 10.5863636,
                "end_time": 10.8022727,
                "pitch": 51,
                "velocity": 25,
                "duration": 0.2159091,
                "tempo": 120.0
            },
            {
                "start_time": 10.8045455,
                "end_time": 11.0022727,
                "pitch": 53,
                "velocity": 25,
                "duration": 0.1977273,
                "tempo": 120.0
            },
            {
                "start_time": 11.0022727,
                "end_time": 11.1204545,
                "pitch": 53,
                "velocity": 25,
                "duration": 0.1181818,
                "tempo": 120.0
            },
            {
                "start_time": 11.1204545,
                "end_time": 11.2204545,
                "pitch": 53,
                "velocity": 25,
                "duration": 0.1,
                "tempo": 120.0
            },
            {
                "start_time": 6.9386364,
                "end_time": 11.2204545,
                "pitch": 66,
                "velocity": 25,
                "duration": 4.2818182,
                "tempo": 120.0
            },
            {
                "start_time": 11.2204545,
                "end_time": 11.4272727,
                "pitch": 58,
                "velocity": 25,
                "duration": 0.2068182,
                "tempo": 120.0
            },
            {
                "start_time": 5.6681818,
                "end_time": 11.7318182,
                "pitch": 48,
                "velocity": 25,
                "duration": 6.0636364,
                "tempo": 120.0
            },
            {
                "start_time": 11.4272727,
                "end_time": 11.7318182,
                "pitch": 60,
                "velocity": 25,
                "duration": 0.3045455,
                "tempo": 120.0
            },
            {
                "start_time": 11.7318182,
                "end_time": 11.9477273,
                "pitch": 53,
                "velocity": 25,
                "duration": 0.2159091,
                "tempo": 120.0
            },
            {
                "start_time": 11.95,
                "end_time": 12.0659091,
                "pitch": 53,
                "velocity": 25,
                "duration": 0.1159091,
                "tempo": 120.0
            },
            {
                "start_time": 10.8045455,
                "end_time": 12.2818182,
                "pitch": 51,
                "velocity": 25,
                "duration": 1.4772727,
                "tempo": 120.0
            },
            {
                "start_time": 12.0659091,
                "end_time": 12.2818182,
                "pitch": 51,
                "velocity": 25,
                "duration": 0.2159091,
                "tempo": 120.0
            },
            {
                "start_time": 12.2818182,
                "end_time": 12.4840909,
                "pitch": 51,
                "velocity": 25,
                "duration": 0.2022727,
                "tempo": 120.0
            },
            {
                "start_time": 7.3840909,
                "end_time": 12.6977273,
                "pitch": 52,
                "velocity": 25,
                "duration": 5.3136364,
                "tempo": 120.0
            },
            {
                "start_time": 12.4840909,
                "end_time": 12.6977273,
                "pitch": 52,
                "velocity": 25,
                "duration": 0.2136364,
                "tempo": 120.0
            },
            {
                "start_time": 12.0659091,
                "end_time": 12.8159091,
                "pitch": 53,
                "velocity": 25,
                "duration": 0.75,
                "tempo": 120.0
            },
            {
                "start_time": 12.6977273,
                "end_time": 12.8159091,
                "pitch": 53,
                "velocity": 25,
                "duration": 0.1181818,
                "tempo": 120.0
            },
            {
                "start_time": 12.8159091,
                "end_time": 12.9159091,
                "pitch": 53,
                "velocity": 25,
                "duration": 0.1,
                "tempo": 120.0
            },
            {
                "start_time": 11.2204545,
                "end_time": 12.9181818,
                "pitch": 66,
                "velocity": 25,
                "duration": 1.6977273,
                "tempo": 120.0
            },
            {
                "start_time": 11.4272727,
                "end_time": 13.1318182,
                "pitch": 37,
                "velocity": 25,
                "duration": 1.7045455,
                "tempo": 120.0
            },
            {
                "start_time": 12.9181818,
                "end_time": 13.1318182,
                "pitch": 58,
                "velocity": 25,
                "duration": 0.2136364,
                "tempo": 120.0
            },
            {
                "start_time": 11.7318182,
                "end_time": 13.4477273,
                "pitch": 48,
                "velocity": 25,
                "duration": 1.7159091,
                "tempo": 120.0
            },
            {
                "start_time": 13.1318182,
                "end_time": 13.4477273,
                "pitch": 60,
                "velocity": 25,
                "duration": 0.3159091,
                "tempo": 120.0
            },
            {
                "start_time": 13.4477273,
                "end_time": 13.5613636,
                "pitch": 53,
                "velocity": 25,
                "duration": 0.1136364,
                "tempo": 120.0
            },
            {
                "start_time": 13.5613636,
                "end_time": 13.6590909,
                "pitch": 51,
                "velocity": 25,
                "duration": 0.0977273,
                "tempo": 120.0
            },
            {
                "start_time": 13.4477273,
                "end_time": 13.775,
                "pitch": 48,
                "velocity": 25,
                "duration": 0.3272727,
                "tempo": 120.0
            },
            {
                "start_time": 13.6590909,
                "end_time": 13.775,
                "pitch": 48,
                "velocity": 25,
                "duration": 0.1159091,
                "tempo": 120.0
            },
            {
                "start_time": 13.775,
                "end_time": 13.875,
                "pitch": 46,
                "velocity": 25,
                "duration": 0.1,
                "tempo": 120.0
            },
            {
                "start_time": 10.3681818,
                "end_time": 13.8772727,
                "pitch": 25,
                "velocity": 25,
                "duration": 3.5090909,
                "tempo": 120.0
            },
            {
                "start_time": 13.8772727,
                "end_time": 13.9772727,
                "pitch": 48,
                "velocity": 25,
                "duration": 0.1,
                "tempo": 120.0
            },
            {
                "start_time": 13.6590909,
                "end_time": 14.0977273,
                "pitch": 51,
                "velocity": 25,
                "duration": 0.4386364,
                "tempo": 120.0
            },
            {
                "start_time": 13.9795455,
                "end_time": 14.0977273,
                "pitch": 51,
                "velocity": 25,
                "duration": 0.1181818,
                "tempo": 120.0
            },
            {
                "start_time": 13.5613636,
                "end_time": 14.2022727,
                "pitch": 53,
                "velocity": 25,
                "duration": 0.6409091,
                "tempo": 120.0
            },
            {
                "start_time": 14.0977273,
                "end_time": 14.2022727,
                "pitch": 53,
                "velocity": 25,
                "duration": 0.1045455,
                "tempo": 120.0
            },
            {
                "start_time": 14.2022727,
                "end_time": 14.4068182,
                "pitch": 34,
                "velocity": 25,
                "duration": 0.2045455,
                "tempo": 120.0
            },
            {
                "start_time": 14.4068182,
                "end_time": 14.5181818,
                "pitch": 34,
                "velocity": 25,
                "duration": 0.1113636,
                "tempo": 120.0
            },
            {
                "start_time": 14.5181818,
                "end_time": 14.6136364,
                "pitch": 34,
                "velocity": 25,
                "duration": 0.0954545,
                "tempo": 120.0
            },
            {
                "start_time": 14.6136364,
                "end_time": 14.8340909,
                "pitch": 34,
                "velocity": 25,
                "duration": 0.2204545,
                "tempo": 120.0
            },
            {
                "start_time": 14.8340909,
                "end_time": 15.1568182,
                "pitch": 41,
                "velocity": 25,
                "duration": 0.3227273,
                "tempo": 120.0
            },
            {
                "start_time": 14.2022727,
                "end_time": 15.1568182,
                "pitch": 42,
                "velocity": 25,
                "duration": 0.9545455,
                "tempo": 120.0
            },
            {
                "start_time": 15.1568182,
                "end_time": 15.375,
                "pitch": 34,
                "velocity": 25,
                "duration": 0.2181818,
                "tempo": 120.0
            },
            {
                "start_time": 14.8340909,
                "end_time": 15.4727273,
                "pitch": 13,
                "velocity": 25,
                "duration": 0.6386364,
                "tempo": 120.0
            },
            {
                "start_time": 15.375,
                "end_time": 15.4727273,
                "pitch": 34,
                "velocity": 25,
                "duration": 0.0977273,
                "tempo": 120.0
            },
            {
                "start_time": 13.1318182,
                "end_time": 15.6818182,
                "pitch": 37,
                "velocity": 25,
                "duration": 2.55,
                "tempo": 120.0
            },
            {
                "start_time": 15.4727273,
                "end_time": 15.6818182,
                "pitch": 37,
                "velocity": 25,
                "duration": 0.2090909,
                "tempo": 120.0
            },
            {
                "start_time": 15.6818182,
                "end_time": 15.8886364,
                "pitch": 39,
                "velocity": 25,
                "duration": 0.2068182,
                "tempo": 120.0
            },
            {
                "start_time": 15.8886364,
                "end_time": 16.1045455,
                "pitch": 34,
                "velocity": 25,
                "duration": 0.2159091,
                "tempo": 120.0
            },
            {
                "start_time": 16.1045455,
                "end_time": 16.2045455,
                "pitch": 34,
                "velocity": 25,
                "duration": 0.1,
                "tempo": 120.0
            },
            {
                "start_time": 16.2045455,
                "end_time": 16.3204545,
                "pitch": 34,
                "velocity": 25,
                "duration": 0.1159091,
                "tempo": 120.0
            },
            {
                "start_time": 15.4727273,
                "end_time": 16.5409091,
                "pitch": 13,
                "velocity": 25,
                "duration": 1.0681818,
                "tempo": 120.0
            },
            {
                "start_time": 16.3204545,
                "end_time": 16.5409091,
                "pitch": 34,
                "velocity": 25,
                "duration": 0.2204545,
                "tempo": 120.0
            },
            {
                "start_time": 15.8886364,
                "end_time": 16.8636364,
                "pitch": 41,
                "velocity": 25,
                "duration": 0.975,
                "tempo": 120.0
            },
            {
                "start_time": 16.5409091,
                "end_time": 16.8636364,
                "pitch": 41,
                "velocity": 25,
                "duration": 0.3227273,
                "tempo": 120.0
            },
            {
                "start_time": 15.1568182,
                "end_time": 16.8636364,
                "pitch": 42,
                "velocity": 25,
                "duration": 1.7068182,
                "tempo": 120.0
            },
            {
                "start_time": 16.8636364,
                "end_time": 17.0818182,
                "pitch": 34,
                "velocity": 25,
                "duration": 0.2181818,
                "tempo": 120.0
            },
            {
                "start_time": 16.5409091,
                "end_time": 17.1795455,
                "pitch": 13,
                "velocity": 25,
                "duration": 0.6386364,
                "tempo": 120.0
            },
            {
                "start_time": 17.0818182,
                "end_time": 17.1795455,
                "pitch": 34,
                "velocity": 25,
                "duration": 0.0977273,
                "tempo": 120.0
            },
            {
                "start_time": 15.6818182,
                "end_time": 17.3886364,
                "pitch": 37,
                "velocity": 25,
                "duration": 1.7068182,
                "tempo": 120.0
            },
            {
                "start_time": 17.1795455,
                "end_time": 17.3886364,
                "pitch": 37,
                "velocity": 25,
                "duration": 0.2090909,
                "tempo": 120.0
            },
            {
                "start_time": 17.3886364,
                "end_time": 17.5954545,
                "pitch": 39,
                "velocity": 25,
                "duration": 0.2068182,
                "tempo": 120.0
            },
            {
                "start_time": 17.5954545,
                "end_time": 17.8159091,
                "pitch": 32,
                "velocity": 25,
                "duration": 0.2204545,
                "tempo": 120.0
            },
            {
                "start_time": 17.8159091,
                "end_time": 17.9181818,
                "pitch": 32,
                "velocity": 25,
                "duration": 0.1022727,
                "tempo": 120.0
            },
            {
                "start_time": 17.9181818,
                "end_time": 18.0363636,
                "pitch": 32,
                "velocity": 25,
                "duration": 0.1181818,
                "tempo": 120.0
            },
            {
                "start_time": 18.0363636,
                "end_time": 18.2522727,
                "pitch": 32,
                "velocity": 25,
                "duration": 0.2159091,
                "tempo": 120.0
            },
            {
                "start_time": 17.5954545,
                "end_time": 18.5636364,
                "pitch": 41,
                "velocity": 25,
                "duration": 0.9681818,
                "tempo": 120.0
            },
            {
                "start_time": 18.5636364,
                "end_time": 18.7727273,
                "pitch": 32,
                "velocity": 25,
                "duration": 0.2090909,
                "tempo": 120.0
            },
            {
                "start_time": 18.7727273,
                "end_time": 18.8659091,
                "pitch": 32,
                "velocity": 25,
                "duration": 0.0931818,
                "tempo": 120.0
            },
            {
                "start_time": 17.1795455,
                "end_time": 19.0886364,
                "pitch": 13,
                "velocity": 25,
                "duration": 1.9090909,
                "tempo": 120.0
            },
            {
                "start_time": 18.8659091,
                "end_time": 19.0886364,
                "pitch": 32,
                "velocity": 25,
                "duration": 0.2227273,
                "tempo": 120.0
            },
            {
                "start_time": 19.0886364,
                "end_time": 19.3090909,
                "pitch": 36,
                "velocity": 25,
                "duration": 0.2204545,
                "tempo": 120.0
            },
            {
                "start_time": 18.5636364,
                "end_time": 19.525,
                "pitch": 41,
                "velocity": 25,
                "duration": 0.9613636,
                "tempo": 120.0
            },
            {
                "start_time": 19.3113636,
                "end_time": 19.525,
                "pitch": 41,
                "velocity": 25,
                "duration": 0.2136364,
                "tempo": 120.0
            },
            {
                "start_time": 19.525,
                "end_time": 19.6272727,
                "pitch": 41,
                "velocity": 25,
                "duration": 0.1022727,
                "tempo": 120.0
            },
            {
                "start_time": 19.6272727,
                "end_time": 19.7431818,
                "pitch": 41,
                "velocity": 25,
                "duration": 0.1159091,
                "tempo": 120.0
            },
            {
                "start_time": 10.05,
                "end_time": 19.7431818,
                "pitch": 54,
                "velocity": 25,
                "duration": 9.6931818,
                "tempo": 120.0
            },
            {
                "start_time": 13.8772727,
                "end_time": 19.9431818,
                "pitch": 25,
                "velocity": 25,
                "duration": 6.0659091,
                "tempo": 120.0
            },
            {
                "start_time": 19.7431818,
                "end_time": 19.9431818,
                "pitch": 46,
                "velocity": 25,
                "duration": 0.2,
                "tempo": 120.0
            },
            {
                "start_time": 19.3113636,
                "end_time": 20.2704545,
                "pitch": 36,
                "velocity": 25,
                "duration": 0.9590909,
                "tempo": 120.0
            },
            {
                "start_time": 13.9795455,
                "end_time": 20.2704545,
                "pitch": 48,
                "velocity": 25,
                "duration": 6.2909091,
                "tempo": 120.0
            },
            {
                "start_time": 19.9431818,
                "end_time": 20.2704545,
                "pitch": 48,
                "velocity": 25,
                "duration": 0.3272727,
                "tempo": 120.0
            },
            {
                "start_time": 20.2704545,
                "end_time": 20.4772727,
                "pitch": 41,
                "velocity": 25,
                "duration": 0.2068182,
                "tempo": 120.0
            },
            {
                "start_time": 20.4772727,
                "end_time": 20.575,
                "pitch": 41,
                "velocity": 25,
                "duration": 0.0977273,
                "tempo": 120.0
            },
            {
                "start_time": 20.575,
                "end_time": 20.7886364,
                "pitch": 41,
                "velocity": 25,
                "duration": 0.2136364,
                "tempo": 120.0
            },
            {
                "start_time": 20.7886364,
                "end_time": 21.0090909,
                "pitch": 39,
                "velocity": 25,
                "duration": 0.2204545,
                "tempo": 120.0
            },
            {
                "start_time": 21.0090909,
                "end_time": 21.2295455,
                "pitch": 46,
                "velocity": 25,
                "duration": 0.2204545,
                "tempo": 120.0
            },
            {
                "start_time": 21.2295455,
                "end_time": 21.3318182,
                "pitch": 46,
                "velocity": 25,
                "duration": 0.1022727,
                "tempo": 120.0
            },
            {
                "start_time": 21.3318182,
                "end_time": 21.4318182,
                "pitch": 46,
                "velocity": 25,
                "duration": 0.1,
                "tempo": 120.0
            },
            {
                "start_time": 19.9431818,
                "end_time": 21.6386364,
                "pitch": 25,
                "velocity": 25,
                "duration": 1.6954545,
                "tempo": 120.0
            },
            {
                "start_time": 21.4318182,
                "end_time": 21.6386364,
                "pitch": 46,
                "velocity": 25,
                "duration": 0.2068182,
                "tempo": 120.0
            },
            {
                "start_time": 21.0090909,
                "end_time": 21.9613636,
                "pitch": 53,
                "velocity": 25,
                "duration": 0.9522727,
                "tempo": 120.0
            },
            {
                "start_time": 21.6386364,
                "end_time": 21.9613636,
                "pitch": 53,
                "velocity": 25,
                "duration": 0.3227273,
                "tempo": 120.0
            },
            {
                "start_time": 19.7431818,
                "end_time": 21.9636364,
                "pitch": 54,
                "velocity": 25,
                "duration": 2.2204545,
                "tempo": 120.0
            },
            {
                "start_time": 21.9613636,
                "end_time": 21.9636364,
                "pitch": 54,
                "velocity": 25,
                "duration": 0.0022727,
                "tempo": 120.0
            },
            {
                "start_time": 21.9636364,
                "end_time": 22.1636364,
                "pitch": 46,
                "velocity": 25,
                "duration": 0.2,
                "tempo": 120.0
            },
            {
                "start_time": 21.6386364,
                "end_time": 22.2795455,
                "pitch": 25,
                "velocity": 25,
                "duration": 0.6409091,
                "tempo": 120.0
            },
            {
                "start_time": 22.1636364,
                "end_time": 22.2795455,
                "pitch": 46,
                "velocity": 25,
                "duration": 0.1159091,
                "tempo": 120.0
            },
            {
                "start_time": 10.5863636,
                "end_time": 22.5022727,
                "pitch": 49,
                "velocity": 25,
                "duration": 11.9159091,
                "tempo": 120.0
            },
            {
                "start_time": 22.2795455,
                "end_time": 22.5022727,
                "pitch": 49,
                "velocity": 25,
                "duration": 0.2227273,
                "tempo": 120.0
            },
            {
                "start_time": 14.0977273,
                "end_time": 22.725,
                "pitch": 51,
                "velocity": 25,
                "duration": 8.6272727,
                "tempo": 120.0
            },
            {
                "start_time": 22.5022727,
                "end_time": 22.725,
                "pitch": 51,
                "velocity": 25,
                "duration": 0.2227273,
                "tempo": 120.0
            },
            {
                "start_time": 22.725,
                "end_time": 22.925,
                "pitch": 46,
                "velocity": 25,
                "duration": 0.2,
                "tempo": 120.0
            },
            {
                "start_time": 22.925,
                "end_time": 23.0409091,
                "pitch": 46,
                "velocity": 25,
                "duration": 0.1159091,
                "tempo": 120.0
            },
            {
                "start_time": 23.0409091,
                "end_time": 23.1386364,
                "pitch": 46,
                "velocity": 25,
                "duration": 0.0977273,
                "tempo": 120.0
            },
            {
                "start_time": 22.2795455,
                "end_time": 23.3522727,
                "pitch": 25,
                "velocity": 25,
                "duration": 1.0727273,
                "tempo": 120.0
            },
            {
                "start_time": 23.1386364,
                "end_time": 23.3522727,
                "pitch": 46,
                "velocity": 25,
                "duration": 0.2136364,
                "tempo": 120.0
            },
            {
                "start_time": 22.725,
                "end_time": 23.6613636,
                "pitch": 53,
                "velocity": 25,
                "duration": 0.9363636,
                "tempo": 120.0
            },
            {
                "start_time": 23.3522727,
                "end_time": 23.6613636,
                "pitch": 53,
                "velocity": 25,
                "duration": 0.3090909,
                "tempo": 120.0
            },
            {
                "start_time": 23.6636364,
                "end_time": 23.8772727,
                "pitch": 46,
                "velocity": 25,
                "duration": 0.2136364,
                "tempo": 120.0
            },
            {
                "start_time": 23.3522727,
                "end_time": 23.9886364,
                "pitch": 25,
                "velocity": 25,
                "duration": 0.6363636,
                "tempo": 120.0
            },
            {
                "start_time": 23.8772727,
                "end_time": 23.9886364,
                "pitch": 46,
                "velocity": 25,
                "duration": 0.1113636,
                "tempo": 120.0
            },
            {
                "start_time": 22.5022727,
                "end_time": 24.2068182,
                "pitch": 49,
                "velocity": 25,
                "duration": 1.7045455,
                "tempo": 120.0
            },
            {
                "start_time": 23.9886364,
                "end_time": 24.2068182,
                "pitch": 49,
                "velocity": 25,
                "duration": 0.2181818,
                "tempo": 120.0
            },
            {
                "start_time": 24.2068182,
                "end_time": 24.4068182,
                "pitch": 51,
                "velocity": 25,
                "duration": 0.2,
                "tempo": 120.0
            },
            {
                "start_time": 23.6636364,
                "end_time": 24.6181818,
                "pitch": 54,
                "velocity": 25,
                "duration": 0.9545455,
                "tempo": 120.0
            },
            {
                "start_time": 24.4090909,
                "end_time": 24.6181818,
                "pitch": 54,
                "velocity": 25,
                "duration": 0.2090909,
                "tempo": 120.0
            },
            {
                "start_time": 24.6181818,
                "end_time": 24.7340909,
                "pitch": 54,
                "velocity": 25,
                "duration": 0.1159091,
                "tempo": 120.0
            },
            {
                "start_time": 24.7340909,
                "end_time": 24.8318182,
                "pitch": 54,
                "velocity": 25,
                "duration": 0.0977273,
                "tempo": 120.0
            },
            {
                "start_time": 24.8318182,
                "end_time": 25.0545455,
                "pitch": 54,
                "velocity": 25,
                "duration": 0.2227273,
                "tempo": 120.0
            },
            {
                "start_time": 12.9181818,
                "end_time": 25.0545455,
                "pitch": 66,
                "velocity": 25,
                "duration": 12.1363636,
                "tempo": 120.0
            },
            {
                "start_time": 24.2068182,
                "end_time": 25.375,
                "pitch": 49,
                "velocity": 25,
                "duration": 1.1681818,
                "tempo": 120.0
            },
            {
                "start_time": 25.0545455,
                "end_time": 25.375,
                "pitch": 61,
                "velocity": 25,
                "duration": 0.3204545,
                "tempo": 120.0
            },
            {
                "start_time": 25.375,
                "end_time": 25.5909091,
                "pitch": 54,
                "velocity": 25,
                "duration": 0.2159091,
                "tempo": 120.0
            },
            {
                "start_time": 25.5909091,
                "end_time": 25.7090909,
                "pitch": 54,
                "velocity": 25,
                "duration": 0.1181818,
                "tempo": 120.0
            },
            {
                "start_time": 25.0545455,
                "end_time": 25.7090909,
                "pitch": 66,
                "velocity": 25,
                "duration": 0.6545455,
                "tempo": 120.0
            },
            {
                "start_time": 25.7090909,
                "end_time": 25.9090909,
                "pitch": 56,
                "velocity": 25,
                "duration": 0.2,
                "tempo": 120.0
            },
            {
                "start_time": 25.9090909,
                "end_time": 26.1272727,
                "pitch": 56,
                "velocity": 25,
                "duration": 0.2181818,
                "tempo": 120.0
            },
            {
                "start_time": 26.1272727,
                "end_time": 26.3363636,
                "pitch": 44,
                "velocity": 25,
                "duration": 0.2090909,
                "tempo": 120.0
            },
            {
                "start_time": 26.3363636,
                "end_time": 26.4522727,
                "pitch": 56,
                "velocity": 25,
                "duration": 0.1159091,
                "tempo": 120.0
            },
            {
                "start_time": 26.4522727,
                "end_time": 26.65,
                "pitch": 44,
                "velocity": 25,
                "duration": 0.1977273,
                "tempo": 120.0
            },
            {
                "start_time": 26.65,
                "end_time": 26.7681818,
                "pitch": 48,
                "velocity": 25,
                "duration": 0.1181818,
                "tempo": 120.0
            },
            {
                "start_time": 24.4090909,
                "end_time": 26.9840909,
                "pitch": 51,
                "velocity": 25,
                "duration": 2.575,
                "tempo": 120.0
            },
            {
                "start_time": 26.7681818,
                "end_time": 26.9840909,
                "pitch": 51,
                "velocity": 25,
                "duration": 0.2159091,
                "tempo": 120.0
            },
            {
                "start_time": 26.9840909,
                "end_time": 27.2,
                "pitch": 44,
                "velocity": 25,
                "duration": 0.2159091,
                "tempo": 120.0
            },
            {
                "start_time": 27.2022727,
                "end_time": 27.3,
                "pitch": 56,
                "velocity": 25,
                "duration": 0.0977273,
                "tempo": 120.0
            },
            {
                "start_time": 27.3,
                "end_time": 27.4,
                "pitch": 56,
                "velocity": 25,
                "duration": 0.1,
                "tempo": 120.0
            },
            {
                "start_time": 27.4022727,
                "end_time": 27.6068182,
                "pitch": 44,
                "velocity": 25,
                "duration": 0.2045455,
                "tempo": 120.0
            },
            {
                "start_time": 27.6068182,
                "end_time": 27.7181818,
                "pitch": 57,
                "velocity": 25,
                "duration": 0.1113636,
                "tempo": 120.0
            },
            {
                "start_time": 27.7181818,
                "end_time": 27.8159091,
                "pitch": 57,
                "velocity": 25,
                "duration": 0.0977273,
                "tempo": 120.0
            },
            {
                "start_time": 27.8159091,
                "end_time": 27.9318182,
                "pitch": 45,
                "velocity": 25,
                "duration": 0.1159091,
                "tempo": 120.0
            },
            {
                "start_time": 26.1272727,
                "end_time": 28.0340909,
                "pitch": 46,
                "velocity": 25,
                "duration": 1.9068182,
                "tempo": 120.0
            },
            {
                "start_time": 27.9318182,
                "end_time": 28.0340909,
                "pitch": 46,
                "velocity": 25,
                "duration": 0.1022727,
                "tempo": 120.0
            },
            {
                "start_time": 28.0340909,
                "end_time": 28.1363636,
                "pitch": 58,
                "velocity": 25,
                "duration": 0.1022727,
                "tempo": 120.0
            },
            {
                "start_time": 28.1363636,
                "end_time": 28.2568182,
                "pitch": 46,
                "velocity": 25,
                "duration": 0.1204545,
                "tempo": 120.0
            },
            {
                "start_time": 28.2568182,
                "end_time": 28.3590909,
                "pitch": 46,
                "velocity": 25,
                "duration": 0.1022727,
                "tempo": 120.0
            },
            {
                "start_time": 28.3590909,
                "end_time": 28.4772727,
                "pitch": 58,
                "velocity": 25,
                "duration": 0.1181818,
                "tempo": 120.0
            },
            {
                "start_time": 28.4772727,
                "end_time": 28.5795455,
                "pitch": 46,
                "velocity": 25,
                "duration": 0.1022727,
                "tempo": 120.0
            },
            {
                "start_time": 28.5795455,
                "end_time": 28.7,
                "pitch": 58,
                "velocity": 25,
                "duration": 0.1204545,
                "tempo": 120.0
            },
            {
                "start_time": 28.7,
                "end_time": 28.7022727,
                "pitch": 46,
                "velocity": 25,
                "duration": 0.0022727,
                "tempo": 120.0
            },
            {
                "start_time": 28.4772727,
                "end_time": 28.7977273,
                "pitch": 44,
                "velocity": 25,
                "duration": 0.3204545,
                "tempo": 120.0
            },
            {
                "start_time": 28.7022727,
                "end_time": 28.7977273,
                "pitch": 44,
                "velocity": 25,
                "duration": 0.0954545,
                "tempo": 120.0
            },
            {
                "start_time": 28.7977273,
                "end_time": 28.8954545,
                "pitch": 44,
                "velocity": 25,
                "duration": 0.0977273,
                "tempo": 120.0
            },
            {
                "start_time": 28.8954545,
                "end_time": 29.0090909,
                "pitch": 56,
                "velocity": 25,
                "duration": 0.1136364,
                "tempo": 120.0
            },
            {
                "start_time": 29.0113636,
                "end_time": 29.1068182,
                "pitch": 44,
                "velocity": 25,
                "duration": 0.0954545,
                "tempo": 120.0
            },
            {
                "start_time": 29.1068182,
                "end_time": 29.2227273,
                "pitch": 44,
                "velocity": 25,
                "duration": 0.1159091,
                "tempo": 120.0
            },
            {
                "start_time": 29.2227273,
                "end_time": 29.3204545,
                "pitch": 56,
                "velocity": 25,
                "duration": 0.0977273,
                "tempo": 120.0
            },
            {
                "start_time": 29.3204545,
                "end_time": 29.4340909,
                "pitch": 44,
                "velocity": 25,
                "duration": 0.1136364,
                "tempo": 120.0
            },
            {
                "start_time": 29.4340909,
                "end_time": 29.5340909,
                "pitch": 56,
                "velocity": 25,
                "duration": 0.1,
                "tempo": 120.0
            },
            {
                "start_time": 0.5545455,
                "end_time": 29.75,
                "pitch": 43,
                "velocity": 25,
                "duration": 29.1954545,
                "tempo": 120.0
            },
            {
                "start_time": 29.6318182,
                "end_time": 29.75,
                "pitch": 43,
                "velocity": 25,
                "duration": 0.1181818,
                "tempo": 120.0
            },
            {
                "start_time": 29.75,
                "end_time": 29.85,
                "pitch": 55,
                "velocity": 25,
                "duration": 0.1,
                "tempo": 120.0
            },
            {
                "start_time": 29.85,
                "end_time": 29.9659091,
                "pitch": 43,
                "velocity": 25,
                "duration": 0.1159091,
                "tempo": 120.0
            },
            {
                "start_time": 29.9659091,
                "end_time": 30.0681818,
                "pitch": 43,
                "velocity": 25,
                "duration": 0.1022727,
                "tempo": 120.0
            },
            {
                "start_time": 30.0681818,
                "end_time": 30.1886364,
                "pitch": 55,
                "velocity": 25,
                "duration": 0.1204545,
                "tempo": 120.0
            },
            {
                "start_time": 30.1886364,
                "end_time": 30.2909091,
                "pitch": 43,
                "velocity": 25,
                "duration": 0.1022727,
                "tempo": 120.0
            },
            {
                "start_time": 30.2909091,
                "end_time": 30.3931818,
                "pitch": 55,
                "velocity": 25,
                "duration": 0.1022727,
                "tempo": 120.0
            },
            {
                "start_time": 30.3931818,
                "end_time": 30.5045455,
                "pitch": 43,
                "velocity": 25,
                "duration": 0.1113636,
                "tempo": 120.0
            },
            {
                "start_time": 16.8636364,
                "end_time": 30.6,
                "pitch": 42,
                "velocity": 25,
                "duration": 13.7363636,
                "tempo": 120.0
            },
            {
                "start_time": 30.5045455,
                "end_time": 30.6,
                "pitch": 42,
                "velocity": 25,
                "duration": 0.0954545,
                "tempo": 120.0
            },
            {
                "start_time": 30.6,
                "end_time": 30.7113636,
                "pitch": 54,
                "velocity": 25,
                "duration": 0.1113636,
                "tempo": 120.0
            },
            {
                "start_time": 30.7113636,
                "end_time": 30.8068182,
                "pitch": 54,
                "velocity": 25,
                "duration": 0.0954545,
                "tempo": 120.0
            },
            {
                "start_time": 30.8068182,
                "end_time": 30.9227273,
                "pitch": 42,
                "velocity": 25,
                "duration": 0.1159091,
                "tempo": 120.0
            },
            {
                "start_time": 30.9227273,
                "end_time": 31.0227273,
                "pitch": 41,
                "velocity": 25,
                "duration": 0.1,
                "tempo": 120.0
            },
            {
                "start_time": 26.9840909,
                "end_time": 31.1227273,
                "pitch": 53,
                "velocity": 25,
                "duration": 4.1386364,
                "tempo": 120.0
            },
            {
                "start_time": 31.0227273,
                "end_time": 31.1227273,
                "pitch": 53,
                "velocity": 25,
                "duration": 0.1,
                "tempo": 120.0
            },
            {
                "start_time": 31.1227273,
                "end_time": 31.2409091,
                "pitch": 53,
                "velocity": 25,
                "duration": 0.1181818,
                "tempo": 120.0
            },
            {
                "start_time": 31.2409091,
                "end_time": 31.3386364,
                "pitch": 46,
                "velocity": 25,
                "duration": 0.0977273,
                "tempo": 120.0
            },
            {
                "start_time": 31.3386364,
                "end_time": 31.4568182,
                "pitch": 46,
                "velocity": 25,
                "duration": 0.1181818,
                "tempo": 120.0
            },
            {
                "start_time": 31.4568182,
                "end_time": 31.5568182,
                "pitch": 58,
                "velocity": 25,
                "duration": 0.1,
                "tempo": 120.0
            },
            {
                "start_time": 31.5568182,
                "end_time": 31.6727273,
                "pitch": 46,
                "velocity": 25,
                "duration": 0.1159091,
                "tempo": 120.0
            },
            {
                "start_time": 31.6727273,
                "end_time": 31.7727273,
                "pitch": 46,
                "velocity": 25,
                "duration": 0.1,
                "tempo": 120.0
            },
            {
                "start_time": 31.7727273,
                "end_time": 31.8727273,
                "pitch": 58,
                "velocity": 25,
                "duration": 0.1,
                "tempo": 120.0
            },
            {
                "start_time": 31.8727273,
                "end_time": 31.9886364,
                "pitch": 46,
                "velocity": 25,
                "duration": 0.1159091,
                "tempo": 120.0
            },
            {
                "start_time": 31.9886364,
                "end_time": 32.0909091,
                "pitch": 58,
                "velocity": 25,
                "duration": 0.1022727,
                "tempo": 120.0
            },
            {
                "start_time": 31.8727273,
                "end_time": 32.2045455,
                "pitch": 44,
                "velocity": 25,
                "duration": 0.3318182,
                "tempo": 120.0
            },
            {
                "start_time": 32.0909091,
                "end_time": 32.2045455,
                "pitch": 44,
                "velocity": 25,
                "duration": 0.1136364,
                "tempo": 120.0
            },
            {
                "start_time": 32.2045455,
                "end_time": 32.3022727,
                "pitch": 44,
                "velocity": 25,
                "duration": 0.0977273,
                "tempo": 120.0
            },
            {
                "start_time": 32.3022727,
                "end_time": 32.4159091,
                "pitch": 56,
                "velocity": 25,
                "duration": 0.1136364,
                "tempo": 120.0
            },
            {
                "start_time": 32.4159091,
                "end_time": 32.5136364,
                "pitch": 44,
                "velocity": 25,
                "duration": 0.0977273,
                "tempo": 120.0
            },
            {
                "start_time": 32.5136364,
                "end_time": 32.6136364,
                "pitch": 44,
                "velocity": 25,
                "duration": 0.1,
                "tempo": 120.0
            },
            {
                "start_time": 32.6136364,
                "end_time": 32.7318182,
                "pitch": 56,
                "velocity": 25,
                "duration": 0.1181818,
                "tempo": 120.0
            },
            {
                "start_time": 32.7318182,
                "end_time": 32.8318182,
                "pitch": 44,
                "velocity": 25,
                "duration": 0.1,
                "tempo": 120.0
            },
            {
                "start_time": 32.8318182,
                "end_time": 32.95,
                "pitch": 56,
                "velocity": 25,
                "duration": 0.1181818,
                "tempo": 120.0
            },
            {
                "start_time": 33.0477273,
                "end_time": 33.1659091,
                "pitch": 43,
                "velocity": 25,
                "duration": 0.1181818,
                "tempo": 120.0
            },
            {
                "start_time": 33.1659091,
                "end_time": 33.2659091,
                "pitch": 55,
                "velocity": 25,
                "duration": 0.1,
                "tempo": 120.0
            },
            {
                "start_time": 33.2659091,
                "end_time": 33.3659091,
                "pitch": 43,
                "velocity": 25,
                "duration": 0.1,
                "tempo": 120.0
            },
            {
                "start_time": 33.3659091,
                "end_time": 33.4795455,
                "pitch": 43,
                "velocity": 25,
                "duration": 0.1136364,
                "tempo": 120.0
            },
            {
                "start_time": 33.4795455,
                "end_time": 33.5772727,
                "pitch": 55,
                "velocity": 25,
                "duration": 0.0977273,
                "tempo": 120.0
            },
            {
                "start_time": 33.5772727,
                "end_time": 33.6931818,
                "pitch": 43,
                "velocity": 25,
                "duration": 0.1159091,
                "tempo": 120.0
            },
            {
                "start_time": 33.6931818,
                "end_time": 33.7909091,
                "pitch": 55,
                "velocity": 25,
                "duration": 0.0977273,
                "tempo": 120.0
            },
            {
                "start_time": 33.7909091,
                "end_time": 33.9068182,
                "pitch": 43,
                "velocity": 25,
                "duration": 0.1159091,
                "tempo": 120.0
            },
            {
                "start_time": 33.9068182,
                "end_time": 34.0068182,
                "pitch": 42,
                "velocity": 25,
                "duration": 0.1,
                "tempo": 120.0
            },
            {
                "start_time": 31.2409091,
                "end_time": 34.1068182,
                "pitch": 54,
                "velocity": 25,
                "duration": 2.8659091,
                "tempo": 120.0
            },
            {
                "start_time": 34.0068182,
                "end_time": 34.1068182,
                "pitch": 54,
                "velocity": 25,
                "duration": 0.1,
                "tempo": 120.0
            },
            {
                "start_time": 34.1068182,
                "end_time": 34.225,
                "pitch": 54,
                "velocity": 25,
                "duration": 0.1181818,
                "tempo": 120.0
            },
            {
                "start_time": 34.225,
                "end_time": 34.3227273,
                "pitch": 42,
                "velocity": 25,
                "duration": 0.0977273,
                "tempo": 120.0
            },
            {
                "start_time": 34.3227273,
                "end_time": 34.4363636,
                "pitch": 41,
                "velocity": 25,
                "duration": 0.1136364,
                "tempo": 120.0
            },
            {
                "start_time": 34.4363636,
                "end_time": 34.5340909,
                "pitch": 53,
                "velocity": 25,
                "duration": 0.0977273,
                "tempo": 120.0
            },
            {
                "start_time": 34.5340909,
                "end_time": 34.65,
                "pitch": 53,
                "velocity": 25,
                "duration": 0.1159091,
                "tempo": 120.0
            },
            {
                "start_time": 34.65,
                "end_time": 34.8522727,
                "pitch": 41,
                "velocity": 25,
                "duration": 0.2022727,
                "tempo": 120.0
            },
            {
                "start_time": 34.8522727,
                "end_time": 34.9727273,
                "pitch": 42,
                "velocity": 25,
                "duration": 0.1204545,
                "tempo": 120.0
            },
            {
                "start_time": 17.3886364,
                "end_time": 35.1886364,
                "pitch": 37,
                "velocity": 25,
                "duration": 17.8,
                "tempo": 120.0
            },
            {
                "start_time": 25.375,
                "end_time": 35.1886364,
                "pitch": 49,
                "velocity": 25,
                "duration": 9.8136364,
                "tempo": 120.0
            },
            {
                "start_time": 34.9727273,
                "end_time": 35.1886364,
                "pitch": 49,
                "velocity": 25,
                "duration": 0.2159091,
                "tempo": 120.0
            },
            {
                "start_time": 35.1886364,
                "end_time": 35.2863636,
                "pitch": 42,
                "velocity": 25,
                "duration": 0.0977273,
                "tempo": 120.0
            },
            {
                "start_time": 35.2863636,
                "end_time": 35.4,
                "pitch": 40,
                "velocity": 25,
                "duration": 0.1136364,
                "tempo": 120.0
            },
            {
                "start_time": 35.4022727,
                "end_time": 35.5,
                "pitch": 40,
                "velocity": 25,
                "duration": 0.0977273,
                "tempo": 120.0
            },
            {
                "start_time": 35.5,
                "end_time": 35.7159091,
                "pitch": 41,
                "velocity": 25,
                "duration": 0.2159091,
                "tempo": 120.0
            },
            {
                "start_time": 35.2863636,
                "end_time": 35.8181818,
                "pitch": 42,
                "velocity": 25,
                "duration": 0.5318182,
                "tempo": 120.0
            },
            {
                "start_time": 35.7159091,
                "end_time": 35.8181818,
                "pitch": 42,
                "velocity": 25,
                "duration": 0.1022727,
                "tempo": 120.0
            },
            {
                "start_time": 34.9727273,
                "end_time": 35.8181818,
                "pitch": 54,
                "velocity": 25,
                "duration": 0.8454545,
                "tempo": 120.0
            },
            {
                "start_time": 35.1886364,
                "end_time": 36.0363636,
                "pitch": 37,
                "velocity": 25,
                "duration": 0.8477273,
                "tempo": 120.0
            },
            {
                "start_time": 35.8181818,
                "end_time": 36.0363636,
                "pitch": 49,
                "velocity": 25,
                "duration": 0.2181818,
                "tempo": 120.0
            },
            {
                "start_time": 36.0363636,
                "end_time": 36.1545455,
                "pitch": 42,
                "velocity": 25,
                "duration": 0.1181818,
                "tempo": 120.0
            },
            {
                "start_time": 35.8181818,
                "end_time": 36.1545455,
                "pitch": 54,
                "velocity": 25,
                "duration": 0.3363636,
                "tempo": 120.0
            },
            {
                "start_time": 36.1545455,
                "end_time": 36.2568182,
                "pitch": 44,
                "velocity": 25,
                "duration": 0.1022727,
                "tempo": 120.0
            },
            {
                "start_time": 32.0909091,
                "end_time": 36.3613636,
                "pitch": 46,
                "velocity": 25,
                "duration": 4.2704545,
                "tempo": 120.0
            },
            {
                "start_time": 36.2568182,
                "end_time": 36.3613636,
                "pitch": 46,
                "velocity": 25,
                "duration": 0.1045455,
                "tempo": 120.0
            },
            {
                "start_time": 36.2568182,
                "end_time": 36.5659091,
                "pitch": 44,
                "velocity": 25,
                "duration": 0.3090909,
                "tempo": 120.0
            },
            {
                "start_time": 36.3613636,
                "end_time": 36.5659091,
                "pitch": 44,
                "velocity": 25,
                "duration": 0.2045455,
                "tempo": 120.0
            },
            {
                "start_time": 26.65,
                "end_time": 36.6772727,
                "pitch": 2,
                "velocity": 25,
                "duration": 10.0272727,
                "tempo": 120.0
            },
            {
                "start_time": 36.5659091,
                "end_time": 36.6772727,
                "pitch": 44,
                "velocity": 25,
                "duration": 0.1113636,
                "tempo": 120.0
            },
            {
                "start_time": 36.6772727,
                "end_time": 36.8886364,
                "pitch": 51,
                "velocity": 25,
                "duration": 0.2113636,
                "tempo": 120.0
            },
            {
                "start_time": 36.8886364,
                "end_time": 36.9886364,
                "pitch": 44,
                "velocity": 25,
                "duration": 0.1,
                "tempo": 120.0
            },
            {
                "start_time": 37.0886364,
                "end_time": 37.2068182,
                "pitch": 39,
                "velocity": 25,
                "duration": 0.1181818,
                "tempo": 120.0
            },
            {
                "start_time": 36.1545455,
                "end_time": 37.2068182,
                "pitch": 54,
                "velocity": 25,
                "duration": 1.0522727,
                "tempo": 120.0
            },
            {
                "start_time": 37.2068182,
                "end_time": 37.4227273,
                "pitch": 44,
                "velocity": 25,
                "duration": 0.2159091,
                "tempo": 120.0
            },
            {
                "start_time": 37.4227273,
                "end_time": 37.5227273,
                "pitch": 44,
                "velocity": 25,
                "duration": 0.1,
                "tempo": 120.0
            },
            {
                "start_time": 37.5227273,
                "end_time": 37.7409091,
                "pitch": 44,
                "velocity": 25,
                "duration": 0.2181818,
                "tempo": 120.0
            },
            {
                "start_time": 37.7409091,
                "end_time": 37.8386364,
                "pitch": 56,
                "velocity": 25,
                "duration": 0.0977273,
                "tempo": 120.0
            },
            {
                "start_time": 37.8386364,
                "end_time": 37.9568182,
                "pitch": 44,
                "velocity": 25,
                "duration": 0.1181818,
                "tempo": 120.0
            },
            {
                "start_time": 37.9568182,
                "end_time": 38.0590909,
                "pitch": 57,
                "velocity": 25,
                "duration": 0.1022727,
                "tempo": 120.0
            },
            {
                "start_time": 38.0590909,
                "end_time": 38.2704545,
                "pitch": 45,
                "velocity": 25,
                "duration": 0.2113636,
                "tempo": 120.0
            },
            {
                "start_time": 38.2704545,
                "end_time": 38.3840909,
                "pitch": 58,
                "velocity": 25,
                "duration": 0.1136364,
                "tempo": 120.0
            },
            {
                "start_time": 23.9886364,
                "end_time": 38.5818182,
                "pitch": 25,
                "velocity": 25,
                "duration": 14.5931818,
                "tempo": 120.0
            },
            {
                "start_time": 36.3613636,
                "end_time": 38.5818182,
                "pitch": 46,
                "velocity": 25,
                "duration": 2.2204545,
                "tempo": 120.0
            },
            {
                "start_time": 38.3840909,
                "end_time": 38.5818182,
                "pitch": 46,
                "velocity": 25,
                "duration": 0.1977273,
                "tempo": 120.0
            },
            {
                "start_time": 38.5818182,
                "end_time": 38.6977273,
                "pitch": 49,
                "velocity": 25,
                "duration": 0.1159091,
                "tempo": 120.0
            },
            {
                "start_time": 38.6977273,
                "end_time": 38.7977273,
                "pitch": 49,
                "velocity": 25,
                "duration": 0.1,
                "tempo": 120.0
            },
            {
                "start_time": 26.7681818,
                "end_time": 38.9159091,
                "pitch": 48,
                "velocity": 25,
                "duration": 12.1477273,
                "tempo": 120.0
            },
            {
                "start_time": 38.7977273,
                "end_time": 38.9159091,
                "pitch": 48,
                "velocity": 25,
                "duration": 0.1181818,
                "tempo": 120.0
            },
            {
                "start_time": 13.775,
                "end_time": 38.9159091,
                "pitch": 52,
                "velocity": 25,
                "duration": 25.1409091,
                "tempo": 120.0
            },
            {
                "start_time": 38.9159091,
                "end_time": 39.0159091,
                "pitch": 46,
                "velocity": 25,
                "duration": 0.1,
                "tempo": 120.0
            },
            {
                "start_time": 39.0159091,
                "end_time": 39.1340909,
                "pitch": 58,
                "velocity": 25,
                "duration": 0.1181818,
                "tempo": 120.0
            },
            {
                "start_time": 39.1340909,
                "end_time": 39.2318182,
                "pitch": 46,
                "velocity": 25,
                "duration": 0.0977273,
                "tempo": 120.0
            },
            {
                "start_time": 38.5818182,
                "end_time": 39.3340909,
                "pitch": 25,
                "velocity": 25,
                "duration": 0.7522727,
                "tempo": 120.0
            },
            {
                "start_time": 39.2318182,
                "end_time": 39.3340909,
                "pitch": 58,
                "velocity": 25,
                "duration": 0.1022727,
                "tempo": 120.0
            },
            {
                "start_time": 39.3340909,
                "end_time": 39.4477273,
                "pitch": 48,
                "velocity": 25,
                "duration": 0.1136364,
                "tempo": 120.0
            },
            {
                "start_time": 39.4477273,
                "end_time": 39.5454545,
                "pitch": 60,
                "velocity": 25,
                "duration": 0.0977273,
                "tempo": 120.0
            },
            {
                "start_time": 39.5454545,
                "end_time": 39.6590909,
                "pitch": 48,
                "velocity": 25,
                "duration": 0.1136364,
                "tempo": 120.0
            },
            {
                "start_time": 38.9159091,
                "end_time": 39.7590909,
                "pitch": 52,
                "velocity": 25,
                "duration": 0.8431818,
                "tempo": 120.0
            },
            {
                "start_time": 39.6590909,
                "end_time": 39.7590909,
                "pitch": 61,
                "velocity": 25,
                "duration": 0.1,
                "tempo": 120.0
            },
            {
                "start_time": 39.7590909,
                "end_time": 39.9727273,
                "pitch": 46,
                "velocity": 25,
                "duration": 0.2136364,
                "tempo": 120.0
            },
            {
                "start_time": 39.9727273,
                "end_time": 40.0727273,
                "pitch": 58,
                "velocity": 25,
                "duration": 0.1,
                "tempo": 120.0
            },
            {
                "start_time": 39.3340909,
                "end_time": 40.2931818,
                "pitch": 25,
                "velocity": 25,
                "duration": 0.9590909,
                "tempo": 120.0
            },
            {
                "start_time": 40.075,
                "end_time": 40.2931818,
                "pitch": 46,
                "velocity": 25,
                "duration": 0.2181818,
                "tempo": 120.0
            },
            {
                "start_time": 40.2931818,
                "end_time": 40.4113636,
                "pitch": 49,
                "velocity": 25,
                "duration": 0.1181818,
                "tempo": 120.0
            },
            {
                "start_time": 40.4113636,
                "end_time": 40.5136364,
                "pitch": 49,
                "velocity": 25,
                "duration": 0.1022727,
                "tempo": 120.0
            },
            {
                "start_time": 40.5136364,
                "end_time": 40.6340909,
                "pitch": 48,
                "velocity": 25,
                "duration": 0.1204545,
                "tempo": 120.0
            },
            {
                "start_time": 39.7590909,
                "end_time": 40.6340909,
                "pitch": 52,
                "velocity": 25,
                "duration": 0.875,
                "tempo": 120.0
            },
            {
                "start_time": 40.6340909,
                "end_time": 40.8340909,
                "pitch": 46,
                "velocity": 25,
                "duration": 0.2,
                "tempo": 120.0
            },
            {
                "start_time": 40.8340909,
                "end_time": 40.9522727,
                "pitch": 58,
                "velocity": 25,
                "duration": 0.1181818,
                "tempo": 120.0
            },
            {
                "start_time": 40.2931818,
                "end_time": 41.1659091,
                "pitch": 25,
                "velocity": 25,
                "duration": 0.8727273,
                "tempo": 120.0
            },
            {
                "start_time": 40.9522727,
                "end_time": 41.1659091,
                "pitch": 46,
                "velocity": 25,
                "duration": 0.2136364,
                "tempo": 120.0
            },
            {
                "start_time": 41.1659091,
                "end_time": 41.2636364,
                "pitch": 49,
                "velocity": 25,
                "duration": 0.0977273,
                "tempo": 120.0
            },
            {
                "start_time": 41.2636364,
                "end_time": 41.3772727,
                "pitch": 51,
                "velocity": 25,
                "duration": 0.1136364,
                "tempo": 120.0
            },
            {
                "start_time": 36.8886364,
                "end_time": 41.4772727,
                "pitch": 53,
                "velocity": 25,
                "duration": 4.5886364,
                "tempo": 120.0
            },
            {
                "start_time": 41.3772727,
                "end_time": 41.4772727,
                "pitch": 53,
                "velocity": 25,
                "duration": 0.1,
                "tempo": 120.0
            },
            {
                "start_time": 41.4772727,
                "end_time": 41.6886364,
                "pitch": 41,
                "velocity": 25,
                "duration": 0.2113636,
                "tempo": 120.0
            },
            {
                "start_time": 41.6886364,
                "end_time": 41.7863636,
                "pitch": 42,
                "velocity": 25,
                "duration": 0.0977273,
                "tempo": 120.0
            },
            {
                "start_time": 37.2068182,
                "end_time": 41.7863636,
                "pitch": 54,
                "velocity": 25,
                "duration": 4.5795455,
                "tempo": 120.0
            },
            {
                "start_time": 36.0363636,
                "end_time": 42.0,
                "pitch": 37,
                "velocity": 25,
                "duration": 5.9636364,
                "tempo": 120.0
            },
            {
                "start_time": 41.2636364,
                "end_time": 42.0,
                "pitch": 49,
                "velocity": 25,
                "duration": 0.7363636,
                "tempo": 120.0
            },
            {
                "start_time": 41.7863636,
                "end_time": 42.0,
                "pitch": 49,
                "velocity": 25,
                "duration": 0.2136364,
                "tempo": 120.0
            },
            {
                "start_time": 42.0,
                "end_time": 42.1159091,
                "pitch": 42,
                "velocity": 25,
                "duration": 0.1159091,
                "tempo": 120.0
            },
            {
                "start_time": 42.1159091,
                "end_time": 42.1181818,
                "pitch": 42,
                "velocity": 25,
                "duration": 0.0022727,
                "tempo": 120.0
            },
            {
                "start_time": 42.1181818,
                "end_time": 42.2159091,
                "pitch": 40,
                "velocity": 25,
                "duration": 0.0977273,
                "tempo": 120.0
            },
            {
                "start_time": 42.2181818,
                "end_time": 42.3181818,
                "pitch": 40,
                "velocity": 25,
                "duration": 0.1,
                "tempo": 120.0
            },
            {
                "start_time": 42.3181818,
                "end_time": 42.5295455,
                "pitch": 41,
                "velocity": 25,
                "duration": 0.2113636,
                "tempo": 120.0
            },
            {
                "start_time": 42.5295455,
                "end_time": 42.6454545,
                "pitch": 42,
                "velocity": 25,
                "duration": 0.1159091,
                "tempo": 120.0
            },
            {
                "start_time": 41.7863636,
                "end_time": 42.6454545,
                "pitch": 54,
                "velocity": 25,
                "duration": 0.8590909,
                "tempo": 120.0
            },
            {
                "start_time": 42.0,
                "end_time": 42.8590909,
                "pitch": 37,
                "velocity": 25,
                "duration": 0.8590909,
                "tempo": 120.0
            },
            {
                "start_time": 42.6454545,
                "end_time": 42.8590909,
                "pitch": 49,
                "velocity": 25,
                "duration": 0.2136364,
                "tempo": 120.0
            },
            {
                "start_time": 42.8590909,
                "end_time": 42.9590909,
                "pitch": 42,
                "velocity": 25,
                "duration": 0.1,
                "tempo": 120.0
            },
            {
                "start_time": 42.6454545,
                "end_time": 42.9590909,
                "pitch": 54,
                "velocity": 25,
                "duration": 0.3136364,
                "tempo": 120.0
            },
            {
                "start_time": 42.9590909,
                "end_time": 43.0590909,
                "pitch": 44,
                "velocity": 25,
                "duration": 0.1,
                "tempo": 120.0
            },
            {
                "start_time": 43.0590909,
                "end_time": 43.1772727,
                "pitch": 46,
                "velocity": 25,
                "duration": 0.1181818,
                "tempo": 120.0
            },
            {
                "start_time": 43.0590909,
                "end_time": 43.3931818,
                "pitch": 44,
                "velocity": 25,
                "duration": 0.3340909,
                "tempo": 120.0
            },
            {
                "start_time": 43.1772727,
                "end_time": 43.3931818,
                "pitch": 44,
                "velocity": 25,
                "duration": 0.2159091,
                "tempo": 120.0
            },
            {
                "start_time": 36.6772727,
                "end_time": 43.4931818,
                "pitch": 2,
                "velocity": 25,
                "duration": 6.8159091,
                "tempo": 120.0
            },
            {
                "start_time": 43.3931818,
                "end_time": 43.4931818,
                "pitch": 44,
                "velocity": 25,
                "duration": 0.1,
                "tempo": 120.0
            },
            {
                "start_time": 41.3772727,
                "end_time": 43.7090909,
                "pitch": 51,
                "velocity": 25,
                "duration": 2.3318182,
                "tempo": 120.0
            },
            {
                "start_time": 43.4931818,
                "end_time": 43.7090909,
                "pitch": 51,
                "velocity": 25,
                "duration": 0.2159091,
                "tempo": 120.0
            },
            {
                "start_time": 43.7090909,
                "end_time": 43.8090909,
                "pitch": 44,
                "velocity": 25,
                "duration": 0.1,
                "tempo": 120.0
            },
            {
                "start_time": 43.9272727,
                "end_time": 44.0272727,
                "pitch": 39,
                "velocity": 25,
                "duration": 0.1,
                "tempo": 120.0
            },
            {
                "start_time": 42.9590909,
                "end_time": 44.0295455,
                "pitch": 54,
                "velocity": 25,
                "duration": 1.0704545,
                "tempo": 120.0
            },
            {
                "start_time": 44.0272727,
                "end_time": 44.0295455,
                "pitch": 54,
                "velocity": 25,
                "duration": 0.0022727,
                "tempo": 120.0
            },
            {
                "start_time": 44.0295455,
                "end_time": 44.2386364,
                "pitch": 44,
                "velocity": 25,
                "duration": 0.2090909,
                "tempo": 120.0
            },
            {
                "start_time": 44.2386364,
                "end_time": 44.3522727,
                "pitch": 44,
                "velocity": 25,
                "duration": 0.1136364,
                "tempo": 120.0
            },
            {
                "start_time": 44.3545455,
                "end_time": 44.5522727,
                "pitch": 44,
                "velocity": 25,
                "duration": 0.1977273,
                "tempo": 120.0
            },
            {
                "start_time": 44.5522727,
                "end_time": 44.6681818,
                "pitch": 56,
                "velocity": 25,
                "duration": 0.1159091,
                "tempo": 120.0
            },
            {
                "start_time": 44.6681818,
                "end_time": 44.7681818,
                "pitch": 44,
                "velocity": 25,
                "duration": 0.1,
                "tempo": 120.0
            },
            {
                "start_time": 44.7681818,
                "end_time": 44.8863636,
                "pitch": 57,
                "velocity": 25,
                "duration": 0.1181818,
                "tempo": 120.0
            },
            {
                "start_time": 44.8863636,
                "end_time": 45.1068182,
                "pitch": 45,
                "velocity": 25,
                "duration": 0.2204545,
                "tempo": 120.0
            },
            {
                "start_time": 45.1068182,
                "end_time": 45.2090909,
                "pitch": 58,
                "velocity": 25,
                "duration": 0.1022727,
                "tempo": 120.0
            },
            {
                "start_time": 43.1772727,
                "end_time": 45.4227273,
                "pitch": 46,
                "velocity": 25,
                "duration": 2.2454545,
                "tempo": 120.0
            },
            {
                "start_time": 45.2090909,
                "end_time": 45.4227273,
                "pitch": 46,
                "velocity": 25,
                "duration": 0.2136364,
                "tempo": 120.0
            },
            {
                "start_time": 45.4227273,
                "end_time": 45.5181818,
                "pitch": 46,
                "velocity": 25,
                "duration": 0.0954545,
                "tempo": 120.0
            },
            {
                "start_time": 45.5181818,
                "end_time": 45.6295455,
                "pitch": 58,
                "velocity": 25,
                "duration": 0.1113636,
                "tempo": 120.0
            },
            {
                "start_time": 45.6295455,
                "end_time": 45.725,
                "pitch": 46,
                "velocity": 25,
                "duration": 0.0954545,
                "tempo": 120.0
            },
            {
                "start_time": 45.725,
                "end_time": 45.8431818,
                "pitch": 46,
                "velocity": 25,
                "duration": 0.1181818,
                "tempo": 120.0
            },
            {
                "start_time": 41.1659091,
                "end_time": 45.9454545,
                "pitch": 25,
                "velocity": 25,
                "duration": 4.7795455,
                "tempo": 120.0
            },
            {
                "start_time": 45.8431818,
                "end_time": 45.9454545,
                "pitch": 58,
                "velocity": 25,
                "duration": 0.1022727,
                "tempo": 120.0
            },
            {
                "start_time": 45.9454545,
                "end_time": 46.0477273,
                "pitch": 50,
                "velocity": 25,
                "duration": 0.1022727,
                "tempo": 120.0
            },
            {
                "start_time": 46.0477273,
                "end_time": 46.1659091,
                "pitch": 62,
                "velocity": 25,
                "duration": 0.1181818,
                "tempo": 120.0
            },
            {
                "start_time": 46.1659091,
                "end_time": 46.2659091,
                "pitch": 50,
                "velocity": 25,
                "duration": 0.1,
                "tempo": 120.0
            },
            {
                "start_time": 46.2681818,
                "end_time": 46.3840909,
                "pitch": 63,
                "velocity": 25,
                "duration": 0.1159091,
                "tempo": 120.0
            },
            {
                "start_time": 46.3840909,
                "end_time": 46.4840909,
                "pitch": 51,
                "velocity": 25,
                "duration": 0.1,
                "tempo": 120.0
            },
            {
                "start_time": 46.4840909,
                "end_time": 46.6022727,
                "pitch": 64,
                "velocity": 25,
                "duration": 0.1181818,
                "tempo": 120.0
            },
            {
                "start_time": 40.6340909,
                "end_time": 46.8,
                "pitch": 52,
                "velocity": 25,
                "duration": 6.1659091,
                "tempo": 120.0
            },
            {
                "start_time": 46.6022727,
                "end_time": 46.8,
                "pitch": 52,
                "velocity": 25,
                "duration": 0.1977273,
                "tempo": 120.0
            },
            {
                "start_time": 46.8,
                "end_time": 46.9181818,
                "pitch": 65,
                "velocity": 25,
                "duration": 0.1181818,
                "tempo": 120.0
            },
            {
                "start_time": 43.7090909,
                "end_time": 47.1318182,
                "pitch": 53,
                "velocity": 25,
                "duration": 3.4227273,
                "tempo": 120.0
            },
            {
                "start_time": 46.9181818,
                "end_time": 47.1318182,
                "pitch": 53,
                "velocity": 25,
                "duration": 0.2136364,
                "tempo": 120.0
            },
            {
                "start_time": 47.1318182,
                "end_time": 47.2295455,
                "pitch": 53,
                "velocity": 25,
                "duration": 0.0977273,
                "tempo": 120.0
            },
            {
                "start_time": 25.7090909,
                "end_time": 47.2295455,
                "pitch": 66,
                "velocity": 25,
                "duration": 21.5204545,
                "tempo": 120.0
            },
            {
                "start_time": 42.8590909,
                "end_time": 47.3454545,
                "pitch": 37,
                "velocity": 25,
                "duration": 4.4863636,
                "tempo": 120.0
            },
            {
                "start_time": 47.2295455,
                "end_time": 47.3454545,
                "pitch": 58,
                "velocity": 25,
                "duration": 0.1159091,
                "tempo": 120.0
            },
            {
                "start_time": 47.3454545,
                "end_time": 47.4431818,
                "pitch": 60,
                "velocity": 25,
                "duration": 0.0977273,
                "tempo": 120.0
            },
            {
                "start_time": 47.4454545,
                "end_time": 47.6590909,
                "pitch": 53,
                "velocity": 25,
                "duration": 0.2136364,
                "tempo": 120.0
            },
            {
                "start_time": 47.6590909,
                "end_time": 47.7590909,
                "pitch": 65,
                "velocity": 25,
                "duration": 0.1,
                "tempo": 120.0
            },
            {
                "start_time": 47.7590909,
                "end_time": 47.9772727,
                "pitch": 53,
                "velocity": 25,
                "duration": 0.2181818,
                "tempo": 120.0
            },
            {
                "start_time": 47.9772727,
                "end_time": 48.0931818,
                "pitch": 53,
                "velocity": 25,
                "duration": 0.1159091,
                "tempo": 120.0
            },
            {
                "start_time": 48.0931818,
                "end_time": 48.1931818,
                "pitch": 51,
                "velocity": 25,
                "duration": 0.1,
                "tempo": 120.0
            },
            {
                "start_time": 48.1931818,
                "end_time": 48.2954545,
                "pitch": 51,
                "velocity": 25,
                "duration": 0.1022727,
                "tempo": 120.0
            }
        ],
        "Acoustic Grand Piano": [
            {
                "start_time": 0.5568182,
                "end_time": 0.6636364,
                "pitch": 34,
                "velocity": 51,
                "duration": 0.1068182,
                "tempo": 120.0
            },
            {
                "start_time": 0.8704545,
                "end_time": 0.9659091,
                "pitch": 34,
                "velocity": 51,
                "duration": 0.0954545,
                "tempo": 120.0
            },
            {
                "start_time": 0.9659091,
                "end_time": 1.0818182,
                "pitch": 41,
                "velocity": 51,
                "duration": 0.1159091,
                "tempo": 120.0
            },
            {
                "start_time": 1.1840909,
                "end_time": 1.2818182,
                "pitch": 46,
                "velocity": 51,
                "duration": 0.0977273,
                "tempo": 120.0
            },
            {
                "start_time": 0.9659091,
                "end_time": 1.2840909,
                "pitch": 13,
                "velocity": 51,
                "duration": 0.3181818,
                "tempo": 120.0
            },
            {
                "start_time": 1.2840909,
                "end_time": 1.4,
                "pitch": 41,
                "velocity": 51,
                "duration": 0.1159091,
                "tempo": 120.0
            },
            {
                "start_time": 0.8704545,
                "end_time": 1.4,
                "pitch": 42,
                "velocity": 51,
                "duration": 0.5295455,
                "tempo": 120.0
            },
            {
                "start_time": 1.4,
                "end_time": 1.5022727,
                "pitch": 34,
                "velocity": 51,
                "duration": 0.1022727,
                "tempo": 120.0
            },
            {
                "start_time": 1.4,
                "end_time": 1.725,
                "pitch": 42,
                "velocity": 51,
                "duration": 0.325,
                "tempo": 120.0
            },
            {
                "start_time": 1.2840909,
                "end_time": 1.8431818,
                "pitch": 13,
                "velocity": 51,
                "duration": 0.5590909,
                "tempo": 120.0
            },
            {
                "start_time": 1.725,
                "end_time": 1.8431818,
                "pitch": 34,
                "velocity": 51,
                "duration": 0.1181818,
                "tempo": 120.0
            },
            {
                "start_time": 1.8431818,
                "end_time": 1.9454545,
                "pitch": 41,
                "velocity": 51,
                "duration": 0.1022727,
                "tempo": 120.0
            },
            {
                "start_time": 1.1840909,
                "end_time": 2.0477273,
                "pitch": 54,
                "velocity": 51,
                "duration": 0.8636364,
                "tempo": 120.0
            },
            {
                "start_time": 1.8431818,
                "end_time": 2.1681818,
                "pitch": 13,
                "velocity": 51,
                "duration": 0.325,
                "tempo": 120.0
            },
            {
                "start_time": 2.0477273,
                "end_time": 2.1681818,
                "pitch": 46,
                "velocity": 51,
                "duration": 0.1204545,
                "tempo": 120.0
            },
            {
                "start_time": 2.1681818,
                "end_time": 2.2727273,
                "pitch": 41,
                "velocity": 51,
                "duration": 0.1045455,
                "tempo": 120.0
            },
            {
                "start_time": 1.725,
                "end_time": 2.2727273,
                "pitch": 42,
                "velocity": 51,
                "duration": 0.5477273,
                "tempo": 120.0
            },
            {
                "start_time": 2.2727273,
                "end_time": 2.3818182,
                "pitch": 34,
                "velocity": 51,
                "duration": 0.1090909,
                "tempo": 120.0
            },
            {
                "start_time": 2.2727273,
                "end_time": 2.5886364,
                "pitch": 42,
                "velocity": 51,
                "duration": 0.3159091,
                "tempo": 120.0
            },
            {
                "start_time": 2.1681818,
                "end_time": 2.6840909,
                "pitch": 13,
                "velocity": 51,
                "duration": 0.5159091,
                "tempo": 120.0
            },
            {
                "start_time": 2.5886364,
                "end_time": 2.6840909,
                "pitch": 34,
                "velocity": 51,
                "duration": 0.0954545,
                "tempo": 120.0
            },
            {
                "start_time": 2.6840909,
                "end_time": 2.7818182,
                "pitch": 41,
                "velocity": 51,
                "duration": 0.0977273,
                "tempo": 120.0
            },
            {
                "start_time": 2.0477273,
                "end_time": 2.9,
                "pitch": 54,
                "velocity": 51,
                "duration": 0.8522727,
                "tempo": 120.0
            },
            {
                "start_time": 2.6840909,
                "end_time": 3.0,
                "pitch": 13,
                "velocity": 51,
                "duration": 0.3159091,
                "tempo": 120.0
            },
            {
                "start_time": 2.9,
                "end_time": 3.0,
                "pitch": 46,
                "velocity": 51,
                "duration": 0.1,
                "tempo": 120.0
            },
            {
                "start_time": 3.0,
                "end_time": 3.1159091,
                "pitch": 41,
                "velocity": 51,
                "duration": 0.1159091,
                "tempo": 120.0
            },
            {
                "start_time": 2.5886364,
                "end_time": 3.1181818,
                "pitch": 42,
                "velocity": 51,
                "duration": 0.5295455,
                "tempo": 120.0
            },
            {
                "start_time": 3.1181818,
                "end_time": 3.2181818,
                "pitch": 34,
                "velocity": 51,
                "duration": 0.1,
                "tempo": 120.0
            },
            {
                "start_time": 3.1181818,
                "end_time": 3.4340909,
                "pitch": 42,
                "velocity": 51,
                "duration": 0.3159091,
                "tempo": 120.0
            },
            {
                "start_time": 3.0,
                "end_time": 3.5340909,
                "pitch": 13,
                "velocity": 51,
                "duration": 0.5340909,
                "tempo": 120.0
            },
            {
                "start_time": 3.4340909,
                "end_time": 3.5340909,
                "pitch": 34,
                "velocity": 51,
                "duration": 0.1,
                "tempo": 120.0
            },
            {
                "start_time": 3.5340909,
                "end_time": 3.6477273,
                "pitch": 41,
                "velocity": 51,
                "duration": 0.1136364,
                "tempo": 120.0
            },
            {
                "start_time": 2.9,
                "end_time": 3.7477273,
                "pitch": 54,
                "velocity": 51,
                "duration": 0.8477273,
                "tempo": 120.0
            },
            {
                "start_time": 3.5340909,
                "end_time": 3.8613636,
                "pitch": 13,
                "velocity": 51,
                "duration": 0.3272727,
                "tempo": 120.0
            },
            {
                "start_time": 3.7477273,
                "end_time": 3.8613636,
                "pitch": 46,
                "velocity": 51,
                "duration": 0.1136364,
                "tempo": 120.0
            },
            {
                "start_time": 3.8613636,
                "end_time": 3.9613636,
                "pitch": 41,
                "velocity": 51,
                "duration": 0.1,
                "tempo": 120.0
            },
            {
                "start_time": 3.4340909,
                "end_time": 3.9613636,
                "pitch": 42,
                "velocity": 51,
                "duration": 0.5272727,
                "tempo": 120.0
            },
            {
                "start_time": 3.9613636,
                "end_time": 4.075,
                "pitch": 34,
                "velocity": 51,
                "duration": 0.1136364,
                "tempo": 120.0
            },
            {
                "start_time": 3.9613636,
                "end_time": 4.2772727,
                "pitch": 42,
                "velocity": 51,
                "duration": 0.3159091,
                "tempo": 120.0
            },
            {
                "start_time": 3.8613636,
                "end_time": 4.3931818,
                "pitch": 13,
                "velocity": 51,
                "duration": 0.5318182,
                "tempo": 120.0
            },
            {
                "start_time": 4.2772727,
                "end_time": 4.3931818,
                "pitch": 34,
                "velocity": 51,
                "duration": 0.1159091,
                "tempo": 120.0
            },
            {
                "start_time": 4.3931818,
                "end_time": 4.4954545,
                "pitch": 41,
                "velocity": 51,
                "duration": 0.1022727,
                "tempo": 120.0
            },
            {
                "start_time": 3.7477273,
                "end_time": 4.6159091,
                "pitch": 54,
                "velocity": 51,
                "duration": 0.8681818,
                "tempo": 120.0
            },
            {
                "start_time": 4.3931818,
                "end_time": 4.7159091,
                "pitch": 13,
                "velocity": 51,
                "duration": 0.3227273,
                "tempo": 120.0
            },
            {
                "start_time": 4.6159091,
                "end_time": 4.7159091,
                "pitch": 46,
                "velocity": 51,
                "duration": 0.1,
                "tempo": 120.0
            },
            {
                "start_time": 4.7159091,
                "end_time": 4.8363636,
                "pitch": 41,
                "velocity": 51,
                "duration": 0.1204545,
                "tempo": 120.0
            },
            {
                "start_time": 4.2772727,
                "end_time": 4.8363636,
                "pitch": 42,
                "velocity": 51,
                "duration": 0.5590909,
                "tempo": 120.0
            },
            {
                "start_time": 4.8363636,
                "end_time": 4.9363636,
                "pitch": 34,
                "velocity": 51,
                "duration": 0.1,
                "tempo": 120.0
            },
            {
                "start_time": 4.8363636,
                "end_time": 5.1545455,
                "pitch": 42,
                "velocity": 51,
                "duration": 0.3181818,
                "tempo": 120.0
            },
            {
                "start_time": 5.1545455,
                "end_time": 5.2522727,
                "pitch": 34,
                "velocity": 51,
                "duration": 0.0977273,
                "tempo": 120.0
            },
            {
                "start_time": 4.7159091,
                "end_time": 5.2545455,
                "pitch": 13,
                "velocity": 51,
                "duration": 0.5386364,
                "tempo": 120.0
            },
            {
                "start_time": 5.2545455,
                "end_time": 5.3636364,
                "pitch": 41,
                "velocity": 51,
                "duration": 0.1090909,
                "tempo": 120.0
            },
            {
                "start_time": 4.6159091,
                "end_time": 5.4613636,
                "pitch": 54,
                "velocity": 51,
                "duration": 0.8454545,
                "tempo": 120.0
            },
            {
                "start_time": 5.2545455,
                "end_time": 5.5704545,
                "pitch": 13,
                "velocity": 51,
                "duration": 0.3159091,
                "tempo": 120.0
            },
            {
                "start_time": 5.4613636,
                "end_time": 5.5704545,
                "pitch": 46,
                "velocity": 51,
                "duration": 0.1090909,
                "tempo": 120.0
            },
            {
                "start_time": 5.5704545,
                "end_time": 5.6681818,
                "pitch": 41,
                "velocity": 51,
                "duration": 0.0977273,
                "tempo": 120.0
            },
            {
                "start_time": 5.1545455,
                "end_time": 5.6681818,
                "pitch": 42,
                "velocity": 51,
                "duration": 0.5136364,
                "tempo": 120.0
            },
            {
                "start_time": 5.6681818,
                "end_time": 5.7659091,
                "pitch": 34,
                "velocity": 51,
                "duration": 0.0977273,
                "tempo": 120.0
            },
            {
                "start_time": 5.6681818,
                "end_time": 5.9840909,
                "pitch": 42,
                "velocity": 51,
                "duration": 0.3159091,
                "tempo": 120.0
            },
            {
                "start_time": 5.5704545,
                "end_time": 6.1,
                "pitch": 13,
                "velocity": 51,
                "duration": 0.5295455,
                "tempo": 120.0
            },
            {
                "start_time": 5.9840909,
                "end_time": 6.1,
                "pitch": 34,
                "velocity": 51,
                "duration": 0.1159091,
                "tempo": 120.0
            },
            {
                "start_time": 6.1,
                "end_time": 6.2022727,
                "pitch": 41,
                "velocity": 51,
                "duration": 0.1022727,
                "tempo": 120.0
            },
            {
                "start_time": 5.4613636,
                "end_time": 6.3227273,
                "pitch": 54,
                "velocity": 51,
                "duration": 0.8613636,
                "tempo": 120.0
            },
            {
                "start_time": 6.1,
                "end_time": 6.4227273,
                "pitch": 13,
                "velocity": 51,
                "duration": 0.3227273,
                "tempo": 120.0
            },
            {
                "start_time": 6.3227273,
                "end_time": 6.4227273,
                "pitch": 46,
                "velocity": 51,
                "duration": 0.1,
                "tempo": 120.0
            },
            {
                "start_time": 6.4227273,
                "end_time": 6.525,
                "pitch": 41,
                "velocity": 51,
                "duration": 0.1022727,
                "tempo": 120.0
            },
            {
                "start_time": 5.9840909,
                "end_time": 6.5272727,
                "pitch": 42,
                "velocity": 51,
                "duration": 0.5431818,
                "tempo": 120.0
            },
            {
                "start_time": 6.5272727,
                "end_time": 6.6386364,
                "pitch": 34,
                "velocity": 51,
                "duration": 0.1113636,
                "tempo": 120.0
            },
            {
                "start_time": 6.5272727,
                "end_time": 6.8454545,
                "pitch": 42,
                "velocity": 51,
                "duration": 0.3181818,
                "tempo": 120.0
            },
            {
                "start_time": 6.4227273,
                "end_time": 6.9409091,
                "pitch": 13,
                "velocity": 51,
                "duration": 0.5181818,
                "tempo": 120.0
            },
            {
                "start_time": 6.8454545,
                "end_time": 6.9409091,
                "pitch": 34,
                "velocity": 51,
                "duration": 0.0954545,
                "tempo": 120.0
            },
            {
                "start_time": 6.9409091,
                "end_time": 7.0568182,
                "pitch": 41,
                "velocity": 51,
                "duration": 0.1159091,
                "tempo": 120.0
            },
            {
                "start_time": 6.3227273,
                "end_time": 7.1613636,
                "pitch": 54,
                "velocity": 51,
                "duration": 0.8386364,
                "tempo": 120.0
            },
            {
                "start_time": 7.1613636,
                "end_time": 7.2613636,
                "pitch": 46,
                "velocity": 51,
                "duration": 0.1,
                "tempo": 120.0
            },
            {
                "start_time": 6.9409091,
                "end_time": 7.2636364,
                "pitch": 13,
                "velocity": 51,
                "duration": 0.3227273,
                "tempo": 120.0
            },
            {
                "start_time": 7.2636364,
                "end_time": 7.3840909,
                "pitch": 41,
                "velocity": 51,
                "duration": 0.1204545,
                "tempo": 120.0
            },
            {
                "start_time": 6.8454545,
                "end_time": 7.3840909,
                "pitch": 42,
                "velocity": 51,
                "duration": 0.5386364,
                "tempo": 120.0
            },
            {
                "start_time": 7.3840909,
                "end_time": 7.4795455,
                "pitch": 34,
                "velocity": 51,
                "duration": 0.0954545,
                "tempo": 120.0
            },
            {
                "start_time": 7.3840909,
                "end_time": 7.6931818,
                "pitch": 42,
                "velocity": 51,
                "duration": 0.3090909,
                "tempo": 120.0
            },
            {
                "start_time": 7.2636364,
                "end_time": 7.8068182,
                "pitch": 13,
                "velocity": 51,
                "duration": 0.5431818,
                "tempo": 120.0
            },
            {
                "start_time": 7.6931818,
                "end_time": 7.8068182,
                "pitch": 34,
                "velocity": 51,
                "duration": 0.1136364,
                "tempo": 120.0
            },
            {
                "start_time": 7.8068182,
                "end_time": 7.9090909,
                "pitch": 41,
                "velocity": 51,
                "duration": 0.1022727,
                "tempo": 120.0
            },
            {
                "start_time": 7.1613636,
                "end_time": 8.0113636,
                "pitch": 54,
                "velocity": 51,
                "duration": 0.85,
                "tempo": 120.0
            },
            {
                "start_time": 7.8068182,
                "end_time": 8.1295455,
                "pitch": 13,
                "velocity": 51,
                "duration": 0.3227273,
                "tempo": 120.0
            },
            {
                "start_time": 8.0113636,
                "end_time": 8.1295455,
                "pitch": 46,
                "velocity": 51,
                "duration": 0.1181818,
                "tempo": 120.0
            },
            {
                "start_time": 8.1295455,
                "end_time": 8.2318182,
                "pitch": 41,
                "velocity": 51,
                "duration": 0.1022727,
                "tempo": 120.0
            },
            {
                "start_time": 7.6931818,
                "end_time": 8.2340909,
                "pitch": 42,
                "velocity": 51,
                "duration": 0.5409091,
                "tempo": 120.0
            },
            {
                "start_time": 8.2340909,
                "end_time": 8.3477273,
                "pitch": 34,
                "velocity": 51,
                "duration": 0.1136364,
                "tempo": 120.0
            },
            {
                "start_time": 8.2340909,
                "end_time": 8.5613636,
                "pitch": 42,
                "velocity": 51,
                "duration": 0.3272727,
                "tempo": 120.0
            },
            {
                "start_time": 8.1295455,
                "end_time": 8.6590909,
                "pitch": 13,
                "velocity": 51,
                "duration": 0.5295455,
                "tempo": 120.0
            },
            {
                "start_time": 8.5613636,
                "end_time": 8.6590909,
                "pitch": 34,
                "velocity": 51,
                "duration": 0.0977273,
                "tempo": 120.0
            },
            {
                "start_time": 8.6590909,
                "end_time": 8.7568182,
                "pitch": 41,
                "velocity": 51,
                "duration": 0.0977273,
                "tempo": 120.0
            },
            {
                "start_time": 8.0113636,
                "end_time": 8.8704545,
                "pitch": 54,
                "velocity": 51,
                "duration": 0.8590909,
                "tempo": 120.0
            },
            {
                "start_time": 8.6590909,
                "end_time": 8.9681818,
                "pitch": 13,
                "velocity": 51,
                "duration": 0.3090909,
                "tempo": 120.0
            },
            {
                "start_time": 8.8704545,
                "end_time": 8.9681818,
                "pitch": 46,
                "velocity": 51,
                "duration": 0.0977273,
                "tempo": 120.0
            },
            {
                "start_time": 8.9681818,
                "end_time": 9.0840909,
                "pitch": 41,
                "velocity": 51,
                "duration": 0.1159091,
                "tempo": 120.0
            },
            {
                "start_time": 8.5613636,
                "end_time": 9.0863636,
                "pitch": 42,
                "velocity": 51,
                "duration": 0.525,
                "tempo": 120.0
            },
            {
                "start_time": 9.0863636,
                "end_time": 9.1818182,
                "pitch": 34,
                "velocity": 51,
                "duration": 0.0954545,
                "tempo": 120.0
            },
            {
                "start_time": 9.0863636,
                "end_time": 9.4,
                "pitch": 42,
                "velocity": 51,
                "duration": 0.3136364,
                "tempo": 120.0
            },
            {
                "start_time": 8.9681818,
                "end_time": 9.5,
                "pitch": 13,
                "velocity": 51,
                "duration": 0.5318182,
                "tempo": 120.0
            },
            {
                "start_time": 9.4,
                "end_time": 9.5,
                "pitch": 34,
                "velocity": 51,
                "duration": 0.1,
                "tempo": 120.0
            },
            {
                "start_time": 9.5,
                "end_time": 9.6159091,
                "pitch": 41,
                "velocity": 51,
                "duration": 0.1159091,
                "tempo": 120.0
            },
            {
                "start_time": 8.8704545,
                "end_time": 9.7181818,
                "pitch": 54,
                "velocity": 51,
                "duration": 0.8477273,
                "tempo": 120.0
            },
            {
                "start_time": 9.5,
                "end_time": 9.8340909,
                "pitch": 13,
                "velocity": 51,
                "duration": 0.3340909,
                "tempo": 120.0
            },
            {
                "start_time": 9.7181818,
                "end_time": 9.8340909,
                "pitch": 46,
                "velocity": 51,
                "duration": 0.1159091,
                "tempo": 120.0
            },
            {
                "start_time": 9.8340909,
                "end_time": 9.9340909,
                "pitch": 41,
                "velocity": 51,
                "duration": 0.1,
                "tempo": 120.0
            },
            {
                "start_time": 9.4,
                "end_time": 9.9340909,
                "pitch": 42,
                "velocity": 51,
                "duration": 0.5340909,
                "tempo": 120.0
            },
            {
                "start_time": 9.9340909,
                "end_time": 10.05,
                "pitch": 34,
                "velocity": 51,
                "duration": 0.1159091,
                "tempo": 120.0
            },
            {
                "start_time": 9.9340909,
                "end_time": 10.2522727,
                "pitch": 42,
                "velocity": 51,
                "duration": 0.3181818,
                "tempo": 120.0
            },
            {
                "start_time": 9.8340909,
                "end_time": 10.3681818,
                "pitch": 13,
                "velocity": 51,
                "duration": 0.5340909,
                "tempo": 120.0
            },
            {
                "start_time": 10.2522727,
                "end_time": 10.3681818,
                "pitch": 34,
                "velocity": 51,
                "duration": 0.1159091,
                "tempo": 120.0
            },
            {
                "start_time": 10.3681818,
                "end_time": 10.4681818,
                "pitch": 41,
                "velocity": 51,
                "duration": 0.1,
                "tempo": 120.0
            },
            {
                "start_time": 9.7181818,
                "end_time": 10.5863636,
                "pitch": 54,
                "velocity": 51,
                "duration": 0.8681818,
                "tempo": 120.0
            },
            {
                "start_time": 10.3681818,
                "end_time": 10.6840909,
                "pitch": 13,
                "velocity": 51,
                "duration": 0.3159091,
                "tempo": 120.0
            },
            {
                "start_time": 10.5863636,
                "end_time": 10.6840909,
                "pitch": 46,
                "velocity": 51,
                "duration": 0.0977273,
                "tempo": 120.0
            },
            {
                "start_time": 10.6840909,
                "end_time": 10.8045455,
                "pitch": 41,
                "velocity": 51,
                "duration": 0.1204545,
                "tempo": 120.0
            },
            {
                "start_time": 10.2522727,
                "end_time": 10.8045455,
                "pitch": 42,
                "velocity": 51,
                "duration": 0.5522727,
                "tempo": 120.0
            },
            {
                "start_time": 10.8045455,
                "end_time": 10.9022727,
                "pitch": 34,
                "velocity": 51,
                "duration": 0.0977273,
                "tempo": 120.0
            },
            {
                "start_time": 10.8045455,
                "end_time": 11.1204545,
                "pitch": 42,
                "velocity": 51,
                "duration": 0.3159091,
                "tempo": 120.0
            },
            {
                "start_time": 10.6840909,
                "end_time": 11.2204545,
                "pitch": 13,
                "velocity": 51,
                "duration": 0.5363636,
                "tempo": 120.0
            },
            {
                "start_time": 11.1204545,
                "end_time": 11.2204545,
                "pitch": 34,
                "velocity": 51,
                "duration": 0.1,
                "tempo": 120.0
            },
            {
                "start_time": 11.2204545,
                "end_time": 11.3318182,
                "pitch": 41,
                "velocity": 51,
                "duration": 0.1113636,
                "tempo": 120.0
            },
            {
                "start_time": 10.5863636,
                "end_time": 11.4272727,
                "pitch": 54,
                "velocity": 51,
                "duration": 0.8409091,
                "tempo": 120.0
            },
            {
                "start_time": 11.2204545,
                "end_time": 11.5386364,
                "pitch": 13,
                "velocity": 51,
                "duration": 0.3181818,
                "tempo": 120.0
            },
            {
                "start_time": 11.4272727,
                "end_time": 11.5386364,
                "pitch": 46,
                "velocity": 51,
                "duration": 0.1113636,
                "tempo": 120.0
            },
            {
                "start_time": 11.5386364,
                "end_time": 11.6340909,
                "pitch": 41,
                "velocity": 51,
                "duration": 0.0954545,
                "tempo": 120.0
            },
            {
                "start_time": 11.1204545,
                "end_time": 11.6340909,
                "pitch": 42,
                "velocity": 51,
                "duration": 0.5136364,
                "tempo": 120.0
            },
            {
                "start_time": 11.6340909,
                "end_time": 11.7318182,
                "pitch": 34,
                "velocity": 51,
                "duration": 0.0977273,
                "tempo": 120.0
            },
            {
                "start_time": 11.6340909,
                "end_time": 11.95,
                "pitch": 42,
                "velocity": 51,
                "duration": 0.3159091,
                "tempo": 120.0
            },
            {
                "start_time": 11.5386364,
                "end_time": 12.0659091,
                "pitch": 13,
                "velocity": 51,
                "duration": 0.5272727,
                "tempo": 120.0
            },
            {
                "start_time": 11.95,
                "end_time": 12.0659091,
                "pitch": 34,
                "velocity": 51,
                "duration": 0.1159091,
                "tempo": 120.0
            },
            {
                "start_time": 12.0659091,
                "end_time": 12.1659091,
                "pitch": 41,
                "velocity": 51,
                "duration": 0.1,
                "tempo": 120.0
            },
            {
                "start_time": 11.4272727,
                "end_time": 12.2840909,
                "pitch": 54,
                "velocity": 51,
                "duration": 0.8568182,
                "tempo": 120.0
            },
            {
                "start_time": 12.0659091,
                "end_time": 12.3818182,
                "pitch": 13,
                "velocity": 51,
                "duration": 0.3159091,
                "tempo": 120.0
            },
            {
                "start_time": 12.2840909,
                "end_time": 12.3818182,
                "pitch": 46,
                "velocity": 51,
                "duration": 0.0977273,
                "tempo": 120.0
            },
            {
                "start_time": 12.3818182,
                "end_time": 12.4840909,
                "pitch": 41,
                "velocity": 51,
                "duration": 0.1022727,
                "tempo": 120.0
            },
            {
                "start_time": 11.95,
                "end_time": 12.4863636,
                "pitch": 42,
                "velocity": 51,
                "duration": 0.5363636,
                "tempo": 120.0
            },
            {
                "start_time": 12.4863636,
                "end_time": 12.5977273,
                "pitch": 34,
                "velocity": 51,
                "duration": 0.1113636,
                "tempo": 120.0
            },
            {
                "start_time": 12.4863636,
                "end_time": 12.8159091,
                "pitch": 42,
                "velocity": 51,
                "duration": 0.3295455,
                "tempo": 120.0
            },
            {
                "start_time": 12.3818182,
                "end_time": 12.9181818,
                "pitch": 13,
                "velocity": 51,
                "duration": 0.5363636,
                "tempo": 120.0
            },
            {
                "start_time": 12.8159091,
                "end_time": 12.9181818,
                "pitch": 34,
                "velocity": 51,
                "duration": 0.1022727,
                "tempo": 120.0
            },
            {
                "start_time": 12.9181818,
                "end_time": 13.0318182,
                "pitch": 41,
                "velocity": 51,
                "duration": 0.1136364,
                "tempo": 120.0
            },
            {
                "start_time": 12.2840909,
                "end_time": 13.1340909,
                "pitch": 54,
                "velocity": 51,
                "duration": 0.85,
                "tempo": 120.0
            },
            {
                "start_time": 12.9181818,
                "end_time": 13.2318182,
                "pitch": 13,
                "velocity": 51,
                "duration": 0.3136364,
                "tempo": 120.0
            },
            {
                "start_time": 13.1340909,
                "end_time": 13.2318182,
                "pitch": 46,
                "velocity": 51,
                "duration": 0.0977273,
                "tempo": 120.0
            },
            {
                "start_time": 13.2318182,
                "end_time": 13.3522727,
                "pitch": 41,
                "velocity": 51,
                "duration": 0.1204545,
                "tempo": 120.0
            },
            {
                "start_time": 12.8159091,
                "end_time": 13.3522727,
                "pitch": 42,
                "velocity": 51,
                "duration": 0.5363636,
                "tempo": 120.0
            },
            {
                "start_time": 13.3522727,
                "end_time": 13.4477273,
                "pitch": 34,
                "velocity": 51,
                "duration": 0.0954545,
                "tempo": 120.0
            },
            {
                "start_time": 13.5636364,
                "end_time": 13.6613636,
                "pitch": 25,
                "velocity": 51,
                "duration": 0.0977273,
                "tempo": 120.0
            },
            {
                "start_time": 13.6613636,
                "end_time": 13.7772727,
                "pitch": 34,
                "velocity": 51,
                "duration": 0.1159091,
                "tempo": 120.0
            },
            {
                "start_time": 13.5636364,
                "end_time": 13.8772727,
                "pitch": 29,
                "velocity": 51,
                "duration": 0.3136364,
                "tempo": 120.0
            },
            {
                "start_time": 13.8772727,
                "end_time": 13.9795455,
                "pitch": 25,
                "velocity": 51,
                "duration": 0.1022727,
                "tempo": 120.0
            },
            {
                "start_time": 13.8772727,
                "end_time": 14.0977273,
                "pitch": 29,
                "velocity": 51,
                "duration": 0.2204545,
                "tempo": 120.0
            },
            {
                "start_time": 13.9795455,
                "end_time": 14.0977273,
                "pitch": 29,
                "velocity": 51,
                "duration": 0.1181818,
                "tempo": 120.0
            },
            {
                "start_time": 14.0977273,
                "end_time": 14.2022727,
                "pitch": 29,
                "velocity": 51,
                "duration": 0.1045455,
                "tempo": 120.0
            },
            {
                "start_time": 14.2022727,
                "end_time": 14.3136364,
                "pitch": 58,
                "velocity": 51,
                "duration": 0.1113636,
                "tempo": 120.0
            },
            {
                "start_time": 14.2022727,
                "end_time": 14.5204545,
                "pitch": 66,
                "velocity": 51,
                "duration": 0.3181818,
                "tempo": 120.0
            },
            {
                "start_time": 14.5204545,
                "end_time": 14.6136364,
                "pitch": 58,
                "velocity": 51,
                "duration": 0.0931818,
                "tempo": 120.0
            },
            {
                "start_time": 14.6136364,
                "end_time": 14.7136364,
                "pitch": 65,
                "velocity": 51,
                "duration": 0.1,
                "tempo": 120.0
            },
            {
                "start_time": 14.6136364,
                "end_time": 14.9363636,
                "pitch": 37,
                "velocity": 51,
                "duration": 0.3227273,
                "tempo": 120.0
            },
            {
                "start_time": 14.8340909,
                "end_time": 14.9363636,
                "pitch": 70,
                "velocity": 51,
                "duration": 0.1022727,
                "tempo": 120.0
            },
            {
                "start_time": 14.9363636,
                "end_time": 15.0568182,
                "pitch": 65,
                "velocity": 51,
                "duration": 0.1204545,
                "tempo": 120.0
            },
            {
                "start_time": 14.5204545,
                "end_time": 15.0590909,
                "pitch": 66,
                "velocity": 51,
                "duration": 0.5386364,
                "tempo": 120.0
            },
            {
                "start_time": 15.0568182,
                "end_time": 15.0590909,
                "pitch": 66,
                "velocity": 51,
                "duration": 0.0022727,
                "tempo": 120.0
            },
            {
                "start_time": 15.0590909,
                "end_time": 15.1568182,
                "pitch": 58,
                "velocity": 51,
                "duration": 0.0977273,
                "tempo": 120.0
            },
            {
                "start_time": 14.9363636,
                "end_time": 15.4727273,
                "pitch": 37,
                "velocity": 51,
                "duration": 0.5363636,
                "tempo": 120.0
            },
            {
                "start_time": 15.375,
                "end_time": 15.4727273,
                "pitch": 58,
                "velocity": 51,
                "duration": 0.0977273,
                "tempo": 120.0
            },
            {
                "start_time": 15.4727273,
                "end_time": 15.5840909,
                "pitch": 65,
                "velocity": 51,
                "duration": 0.1113636,
                "tempo": 120.0
            },
            {
                "start_time": 14.8340909,
                "end_time": 15.6818182,
                "pitch": 78,
                "velocity": 51,
                "duration": 0.8477273,
                "tempo": 120.0
            },
            {
                "start_time": 15.4727273,
                "end_time": 15.7909091,
                "pitch": 37,
                "velocity": 51,
                "duration": 0.3181818,
                "tempo": 120.0
            },
            {
                "start_time": 15.6818182,
                "end_time": 15.7909091,
                "pitch": 70,
                "velocity": 51,
                "duration": 0.1090909,
                "tempo": 120.0
            },
            {
                "start_time": 15.7909091,
                "end_time": 15.8886364,
                "pitch": 65,
                "velocity": 51,
                "duration": 0.0977273,
                "tempo": 120.0
            },
            {
                "start_time": 15.375,
                "end_time": 15.8886364,
                "pitch": 66,
                "velocity": 51,
                "duration": 0.5136364,
                "tempo": 120.0
            },
            {
                "start_time": 15.8886364,
                "end_time": 16.0045455,
                "pitch": 58,
                "velocity": 51,
                "duration": 0.1159091,
                "tempo": 120.0
            },
            {
                "start_time": 15.8886364,
                "end_time": 16.2045455,
                "pitch": 66,
                "velocity": 51,
                "duration": 0.3159091,
                "tempo": 120.0
            },
            {
                "start_time": 15.7909091,
                "end_time": 16.3204545,
                "pitch": 37,
                "velocity": 51,
                "duration": 0.5295455,
                "tempo": 120.0
            },
            {
                "start_time": 16.2045455,
                "end_time": 16.3204545,
                "pitch": 58,
                "velocity": 51,
                "duration": 0.1159091,
                "tempo": 120.0
            },
            {
                "start_time": 16.3204545,
                "end_time": 16.4227273,
                "pitch": 65,
                "velocity": 51,
                "duration": 0.1022727,
                "tempo": 120.0
            },
            {
                "start_time": 15.6818182,
                "end_time": 16.5431818,
                "pitch": 78,
                "velocity": 51,
                "duration": 0.8613636,
                "tempo": 120.0
            },
            {
                "start_time": 16.3204545,
                "end_time": 16.6431818,
                "pitch": 37,
                "velocity": 51,
                "duration": 0.3227273,
                "tempo": 120.0
            },
            {
                "start_time": 16.5431818,
                "end_time": 16.6431818,
                "pitch": 70,
                "velocity": 51,
                "duration": 0.1,
                "tempo": 120.0
            },
            {
                "start_time": 16.6431818,
                "end_time": 16.7636364,
                "pitch": 65,
                "velocity": 51,
                "duration": 0.1204545,
                "tempo": 120.0
            },
            {
                "start_time": 16.2045455,
                "end_time": 16.7659091,
                "pitch": 66,
                "velocity": 51,
                "duration": 0.5613636,
                "tempo": 120.0
            },
            {
                "start_time": 16.7636364,
                "end_time": 16.7659091,
                "pitch": 66,
                "velocity": 51,
                "duration": 0.0022727,
                "tempo": 120.0
            },
            {
                "start_time": 16.7659091,
                "end_time": 16.8636364,
                "pitch": 58,
                "velocity": 51,
                "duration": 0.0977273,
                "tempo": 120.0
            },
            {
                "start_time": 17.0818182,
                "end_time": 17.1795455,
                "pitch": 58,
                "velocity": 51,
                "duration": 0.0977273,
                "tempo": 120.0
            },
            {
                "start_time": 16.6431818,
                "end_time": 17.1818182,
                "pitch": 37,
                "velocity": 51,
                "duration": 0.5386364,
                "tempo": 120.0
            },
            {
                "start_time": 17.1818182,
                "end_time": 17.2909091,
                "pitch": 65,
                "velocity": 51,
                "duration": 0.1090909,
                "tempo": 120.0
            },
            {
                "start_time": 16.5431818,
                "end_time": 17.3886364,
                "pitch": 78,
                "velocity": 51,
                "duration": 0.8454545,
                "tempo": 120.0
            },
            {
                "start_time": 17.1818182,
                "end_time": 17.4977273,
                "pitch": 37,
                "velocity": 51,
                "duration": 0.3159091,
                "tempo": 120.0
            },
            {
                "start_time": 17.3886364,
                "end_time": 17.4977273,
                "pitch": 70,
                "velocity": 51,
                "duration": 0.1090909,
                "tempo": 120.0
            },
            {
                "start_time": 17.4977273,
                "end_time": 17.5954545,
                "pitch": 65,
                "velocity": 51,
                "duration": 0.0977273,
                "tempo": 120.0
            },
            {
                "start_time": 17.0818182,
                "end_time": 17.5954545,
                "pitch": 66,
                "velocity": 51,
                "duration": 0.5136364,
                "tempo": 120.0
            },
            {
                "start_time": 17.5954545,
                "end_time": 17.6954545,
                "pitch": 58,
                "velocity": 51,
                "duration": 0.1,
                "tempo": 120.0
            },
            {
                "start_time": 17.5954545,
                "end_time": 17.9181818,
                "pitch": 66,
                "velocity": 51,
                "duration": 0.3227273,
                "tempo": 120.0
            },
            {
                "start_time": 17.4977273,
                "end_time": 18.0363636,
                "pitch": 37,
                "velocity": 51,
                "duration": 0.5386364,
                "tempo": 120.0
            },
            {
                "start_time": 17.9181818,
                "end_time": 18.0363636,
                "pitch": 58,
                "velocity": 51,
                "duration": 0.1181818,
                "tempo": 120.0
            },
            {
                "start_time": 18.0363636,
                "end_time": 18.1363636,
                "pitch": 65,
                "velocity": 51,
                "duration": 0.1,
                "tempo": 120.0
            },
            {
                "start_time": 17.3886364,
                "end_time": 18.2545455,
                "pitch": 78,
                "velocity": 51,
                "duration": 0.8659091,
                "tempo": 120.0
            },
            {
                "start_time": 18.0363636,
                "end_time": 18.3522727,
                "pitch": 37,
                "velocity": 51,
                "duration": 0.3159091,
                "tempo": 120.0
            },
            {
                "start_time": 18.2545455,
                "end_time": 18.3522727,
                "pitch": 70,
                "velocity": 51,
                "duration": 0.0977273,
                "tempo": 120.0
            },
            {
                "start_time": 18.3522727,
                "end_time": 18.4545455,
                "pitch": 65,
                "velocity": 51,
                "duration": 0.1022727,
                "tempo": 120.0
            },
            {
                "start_time": 17.9181818,
                "end_time": 18.4545455,
                "pitch": 66,
                "velocity": 51,
                "duration": 0.5363636,
                "tempo": 120.0
            },
            {
                "start_time": 18.4545455,
                "end_time": 18.5636364,
                "pitch": 58,
                "velocity": 51,
                "duration": 0.1090909,
                "tempo": 120.0
            },
            {
                "start_time": 18.4545455,
                "end_time": 18.7727273,
                "pitch": 66,
                "velocity": 51,
                "duration": 0.3181818,
                "tempo": 120.0
            },
            {
                "start_time": 18.3522727,
                "end_time": 18.8659091,
                "pitch": 37,
                "velocity": 51,
                "duration": 0.5136364,
                "tempo": 120.0
            },
            {
                "start_time": 18.7727273,
                "end_time": 18.8659091,
                "pitch": 58,
                "velocity": 51,
                "duration": 0.0931818,
                "tempo": 120.0
            },
            {
                "start_time": 18.8659091,
                "end_time": 18.9840909,
                "pitch": 65,
                "velocity": 51,
                "duration": 0.1181818,
                "tempo": 120.0
            },
            {
                "start_time": 18.2545455,
                "end_time": 19.0886364,
                "pitch": 78,
                "velocity": 51,
                "duration": 0.8340909,
                "tempo": 120.0
            },
            {
                "start_time": 18.8659091,
                "end_time": 19.1886364,
                "pitch": 37,
                "velocity": 51,
                "duration": 0.3227273,
                "tempo": 120.0
            },
            {
                "start_time": 19.0886364,
                "end_time": 19.1886364,
                "pitch": 70,
                "velocity": 51,
                "duration": 0.1,
                "tempo": 120.0
            },
            {
                "start_time": 19.1886364,
                "end_time": 19.3113636,
                "pitch": 65,
                "velocity": 51,
                "duration": 0.1227273,
                "tempo": 120.0
            },
            {
                "start_time": 18.7727273,
                "end_time": 19.3113636,
                "pitch": 66,
                "velocity": 51,
                "duration": 0.5386364,
                "tempo": 120.0
            },
            {
                "start_time": 19.3113636,
                "end_time": 19.4090909,
                "pitch": 58,
                "velocity": 51,
                "duration": 0.0977273,
                "tempo": 120.0
            },
            {
                "start_time": 19.3113636,
                "end_time": 19.6272727,
                "pitch": 66,
                "velocity": 51,
                "duration": 0.3159091,
                "tempo": 120.0
            },
            {
                "start_time": 19.6272727,
                "end_time": 19.7431818,
                "pitch": 58,
                "velocity": 51,
                "duration": 0.1159091,
                "tempo": 120.0
            },
            {
                "start_time": 19.1886364,
                "end_time": 19.7454545,
                "pitch": 37,
                "velocity": 51,
                "duration": 0.5568182,
                "tempo": 120.0
            },
            {
                "start_time": 19.7454545,
                "end_time": 19.8431818,
                "pitch": 65,
                "velocity": 51,
                "duration": 0.0977273,
                "tempo": 120.0
            },
            {
                "start_time": 19.0886364,
                "end_time": 19.9431818,
                "pitch": 78,
                "velocity": 51,
                "duration": 0.8545455,
                "tempo": 120.0
            },
            {
                "start_time": 19.7454545,
                "end_time": 20.0613636,
                "pitch": 37,
                "velocity": 51,
                "duration": 0.3159091,
                "tempo": 120.0
            },
            {
                "start_time": 19.9431818,
                "end_time": 20.0613636,
                "pitch": 70,
                "velocity": 51,
                "duration": 0.1181818,
                "tempo": 120.0
            },
            {
                "start_time": 20.0613636,
                "end_time": 20.1613636,
                "pitch": 65,
                "velocity": 51,
                "duration": 0.1,
                "tempo": 120.0
            },
            {
                "start_time": 19.6272727,
                "end_time": 20.1613636,
                "pitch": 66,
                "velocity": 51,
                "duration": 0.5340909,
                "tempo": 120.0
            },
            {
                "start_time": 20.1613636,
                "end_time": 20.2727273,
                "pitch": 58,
                "velocity": 51,
                "duration": 0.1113636,
                "tempo": 120.0
            },
            {
                "start_time": 20.1613636,
                "end_time": 20.4795455,
                "pitch": 66,
                "velocity": 51,
                "duration": 0.3181818,
                "tempo": 120.0
            },
            {
                "start_time": 20.0613636,
                "end_time": 20.575,
                "pitch": 37,
                "velocity": 51,
                "duration": 0.5136364,
                "tempo": 120.0
            },
            {
                "start_time": 20.4795455,
                "end_time": 20.575,
                "pitch": 58,
                "velocity": 51,
                "duration": 0.0954545,
                "tempo": 120.0
            },
            {
                "start_time": 20.575,
                "end_time": 20.6727273,
                "pitch": 65,
                "velocity": 51,
                "duration": 0.0977273,
                "tempo": 120.0
            },
            {
                "start_time": 19.9431818,
                "end_time": 20.7909091,
                "pitch": 78,
                "velocity": 51,
                "duration": 0.8477273,
                "tempo": 120.0
            },
            {
                "start_time": 20.7909091,
                "end_time": 20.8886364,
                "pitch": 70,
                "velocity": 51,
                "duration": 0.0977273,
                "tempo": 120.0
            },
            {
                "start_time": 20.575,
                "end_time": 20.8909091,
                "pitch": 37,
                "velocity": 51,
                "duration": 0.3159091,
                "tempo": 120.0
            },
            {
                "start_time": 20.8909091,
                "end_time": 21.0090909,
                "pitch": 65,
                "velocity": 51,
                "duration": 0.1181818,
                "tempo": 120.0
            },
            {
                "start_time": 20.4795455,
                "end_time": 21.0090909,
                "pitch": 66,
                "velocity": 51,
                "duration": 0.5295455,
                "tempo": 120.0
            },
            {
                "start_time": 21.0090909,
                "end_time": 21.1113636,
                "pitch": 58,
                "velocity": 51,
                "duration": 0.1022727,
                "tempo": 120.0
            },
            {
                "start_time": 21.0090909,
                "end_time": 21.3318182,
                "pitch": 66,
                "velocity": 51,
                "duration": 0.3227273,
                "tempo": 120.0
            },
            {
                "start_time": 20.8909091,
                "end_time": 21.4340909,
                "pitch": 37,
                "velocity": 51,
                "duration": 0.5431818,
                "tempo": 120.0
            },
            {
                "start_time": 21.3318182,
                "end_time": 21.4340909,
                "pitch": 58,
                "velocity": 51,
                "duration": 0.1022727,
                "tempo": 120.0
            },
            {
                "start_time": 21.4340909,
                "end_time": 21.5431818,
                "pitch": 65,
                "velocity": 51,
                "duration": 0.1090909,
                "tempo": 120.0
            },
            {
                "start_time": 20.7909091,
                "end_time": 21.6409091,
                "pitch": 78,
                "velocity": 51,
                "duration": 0.85,
                "tempo": 120.0
            },
            {
                "start_time": 21.4340909,
                "end_time": 21.75,
                "pitch": 37,
                "velocity": 51,
                "duration": 0.3159091,
                "tempo": 120.0
            },
            {
                "start_time": 21.6409091,
                "end_time": 21.75,
                "pitch": 70,
                "velocity": 51,
                "duration": 0.1090909,
                "tempo": 120.0
            },
            {
                "start_time": 21.75,
                "end_time": 21.8477273,
                "pitch": 65,
                "velocity": 51,
                "duration": 0.0977273,
                "tempo": 120.0
            },
            {
                "start_time": 21.3318182,
                "end_time": 21.8477273,
                "pitch": 66,
                "velocity": 51,
                "duration": 0.5159091,
                "tempo": 120.0
            },
            {
                "start_time": 21.8477273,
                "end_time": 21.9636364,
                "pitch": 58,
                "velocity": 51,
                "duration": 0.1159091,
                "tempo": 120.0
            },
            {
                "start_time": 21.8477273,
                "end_time": 22.1659091,
                "pitch": 66,
                "velocity": 51,
                "duration": 0.3181818,
                "tempo": 120.0
            },
            {
                "start_time": 21.75,
                "end_time": 22.2795455,
                "pitch": 37,
                "velocity": 51,
                "duration": 0.5295455,
                "tempo": 120.0
            },
            {
                "start_time": 22.1659091,
                "end_time": 22.2795455,
                "pitch": 58,
                "velocity": 51,
                "duration": 0.1136364,
                "tempo": 120.0
            },
            {
                "start_time": 22.2795455,
                "end_time": 22.3818182,
                "pitch": 65,
                "velocity": 51,
                "duration": 0.1022727,
                "tempo": 120.0
            },
            {
                "start_time": 21.6409091,
                "end_time": 22.5045455,
                "pitch": 78,
                "velocity": 51,
                "duration": 0.8636364,
                "tempo": 120.0
            },
            {
                "start_time": 22.5045455,
                "end_time": 22.6022727,
                "pitch": 70,
                "velocity": 51,
                "duration": 0.0977273,
                "tempo": 120.0
            },
            {
                "start_time": 22.2795455,
                "end_time": 22.6045455,
                "pitch": 37,
                "velocity": 51,
                "duration": 0.325,
                "tempo": 120.0
            },
            {
                "start_time": 22.6045455,
                "end_time": 22.725,
                "pitch": 65,
                "velocity": 51,
                "duration": 0.1204545,
                "tempo": 120.0
            },
            {
                "start_time": 22.1659091,
                "end_time": 22.725,
                "pitch": 66,
                "velocity": 51,
                "duration": 0.5590909,
                "tempo": 120.0
            },
            {
                "start_time": 22.725,
                "end_time": 22.825,
                "pitch": 58,
                "velocity": 51,
                "duration": 0.1,
                "tempo": 120.0
            },
            {
                "start_time": 22.725,
                "end_time": 23.0431818,
                "pitch": 66,
                "velocity": 51,
                "duration": 0.3181818,
                "tempo": 120.0
            },
            {
                "start_time": 22.6045455,
                "end_time": 23.1409091,
                "pitch": 37,
                "velocity": 51,
                "duration": 0.5363636,
                "tempo": 120.0
            },
            {
                "start_time": 23.0431818,
                "end_time": 23.1409091,
                "pitch": 58,
                "velocity": 51,
                "duration": 0.0977273,
                "tempo": 120.0
            },
            {
                "start_time": 23.1409091,
                "end_time": 23.2545455,
                "pitch": 65,
                "velocity": 51,
                "duration": 0.1136364,
                "tempo": 120.0
            },
            {
                "start_time": 22.5045455,
                "end_time": 23.3522727,
                "pitch": 78,
                "velocity": 51,
                "duration": 0.8477273,
                "tempo": 120.0
            },
            {
                "start_time": 23.1409091,
                "end_time": 23.4659091,
                "pitch": 37,
                "velocity": 51,
                "duration": 0.325,
                "tempo": 120.0
            },
            {
                "start_time": 23.3522727,
                "end_time": 23.4659091,
                "pitch": 70,
                "velocity": 51,
                "duration": 0.1136364,
                "tempo": 120.0
            },
            {
                "start_time": 23.4659091,
                "end_time": 23.5659091,
                "pitch": 65,
                "velocity": 51,
                "duration": 0.1,
                "tempo": 120.0
            },
            {
                "start_time": 23.0431818,
                "end_time": 23.5659091,
                "pitch": 66,
                "velocity": 51,
                "duration": 0.5227273,
                "tempo": 120.0
            },
            {
                "start_time": 23.5659091,
                "end_time": 23.6636364,
                "pitch": 58,
                "velocity": 51,
                "duration": 0.0977273,
                "tempo": 120.0
            },
            {
                "start_time": 23.5659091,
                "end_time": 23.8772727,
                "pitch": 66,
                "velocity": 51,
                "duration": 0.3113636,
                "tempo": 120.0
            },
            {
                "start_time": 23.8772727,
                "end_time": 23.9886364,
                "pitch": 58,
                "velocity": 51,
                "duration": 0.1113636,
                "tempo": 120.0
            },
            {
                "start_time": 23.4659091,
                "end_time": 23.9909091,
                "pitch": 37,
                "velocity": 51,
                "duration": 0.525,
                "tempo": 120.0
            },
            {
                "start_time": 23.9909091,
                "end_time": 24.0886364,
                "pitch": 65,
                "velocity": 51,
                "duration": 0.0977273,
                "tempo": 120.0
            },
            {
                "start_time": 23.3522727,
                "end_time": 24.2090909,
                "pitch": 78,
                "velocity": 51,
                "duration": 0.8568182,
                "tempo": 120.0
            },
            {
                "start_time": 23.9909091,
                "end_time": 24.3068182,
                "pitch": 37,
                "velocity": 51,
                "duration": 0.3159091,
                "tempo": 120.0
            },
            {
                "start_time": 24.2090909,
                "end_time": 24.3068182,
                "pitch": 70,
                "velocity": 51,
                "duration": 0.0977273,
                "tempo": 120.0
            },
            {
                "start_time": 24.3068182,
                "end_time": 24.4090909,
                "pitch": 65,
                "velocity": 51,
                "duration": 0.1022727,
                "tempo": 120.0
            },
            {
                "start_time": 23.8772727,
                "end_time": 24.4090909,
                "pitch": 66,
                "velocity": 51,
                "duration": 0.5318182,
                "tempo": 120.0
            },
            {
                "start_time": 24.4090909,
                "end_time": 24.5204545,
                "pitch": 58,
                "velocity": 51,
                "duration": 0.1113636,
                "tempo": 120.0
            },
            {
                "start_time": 24.4090909,
                "end_time": 24.7363636,
                "pitch": 66,
                "velocity": 51,
                "duration": 0.3272727,
                "tempo": 120.0
            },
            {
                "start_time": 24.3068182,
                "end_time": 24.8318182,
                "pitch": 37,
                "velocity": 51,
                "duration": 0.525,
                "tempo": 120.0
            },
            {
                "start_time": 24.7363636,
                "end_time": 24.8318182,
                "pitch": 58,
                "velocity": 51,
                "duration": 0.0954545,
                "tempo": 120.0
            },
            {
                "start_time": 24.8318182,
                "end_time": 24.95,
                "pitch": 65,
                "velocity": 51,
                "duration": 0.1181818,
                "tempo": 120.0
            },
            {
                "start_time": 24.2090909,
                "end_time": 25.0545455,
                "pitch": 78,
                "velocity": 51,
                "duration": 0.8454545,
                "tempo": 120.0
            },
            {
                "start_time": 24.8318182,
                "end_time": 25.1545455,
                "pitch": 37,
                "velocity": 51,
                "duration": 0.3227273,
                "tempo": 120.0
            },
            {
                "start_time": 25.0545455,
                "end_time": 25.1545455,
                "pitch": 70,
                "velocity": 51,
                "duration": 0.1,
                "tempo": 120.0
            },
            {
                "start_time": 25.1545455,
                "end_time": 25.275,
                "pitch": 65,
                "velocity": 51,
                "duration": 0.1204545,
                "tempo": 120.0
            },
            {
                "start_time": 24.7363636,
                "end_time": 25.275,
                "pitch": 66,
                "velocity": 51,
                "duration": 0.5386364,
                "tempo": 120.0
            },
            {
                "start_time": 25.275,
                "end_time": 25.375,
                "pitch": 58,
                "velocity": 51,
                "duration": 0.1,
                "tempo": 120.0
            },
            {
                "start_time": 25.275,
                "end_time": 25.5909091,
                "pitch": 66,
                "velocity": 51,
                "duration": 0.3159091,
                "tempo": 120.0
            },
            {
                "start_time": 25.1545455,
                "end_time": 25.7090909,
                "pitch": 37,
                "velocity": 51,
                "duration": 0.5545455,
                "tempo": 120.0
            },
            {
                "start_time": 25.5909091,
                "end_time": 25.7090909,
                "pitch": 58,
                "velocity": 51,
                "duration": 0.1181818,
                "tempo": 120.0
            },
            {
                "start_time": 25.7090909,
                "end_time": 25.8090909,
                "pitch": 65,
                "velocity": 51,
                "duration": 0.1,
                "tempo": 120.0
            },
            {
                "start_time": 25.0545455,
                "end_time": 25.9113636,
                "pitch": 78,
                "velocity": 51,
                "duration": 0.8568182,
                "tempo": 120.0
            },
            {
                "start_time": 25.7090909,
                "end_time": 26.025,
                "pitch": 37,
                "velocity": 51,
                "duration": 0.3159091,
                "tempo": 120.0
            },
            {
                "start_time": 25.9113636,
                "end_time": 26.025,
                "pitch": 70,
                "velocity": 51,
                "duration": 0.1136364,
                "tempo": 120.0
            },
            {
                "start_time": 26.025,
                "end_time": 26.1272727,
                "pitch": 65,
                "velocity": 51,
                "duration": 0.1022727,
                "tempo": 120.0
            },
            {
                "start_time": 25.5909091,
                "end_time": 26.1272727,
                "pitch": 66,
                "velocity": 51,
                "duration": 0.5363636,
                "tempo": 120.0
            },
            {
                "start_time": 26.1272727,
                "end_time": 26.2386364,
                "pitch": 58,
                "velocity": 51,
                "duration": 0.1113636,
                "tempo": 120.0
            },
            {
                "start_time": 26.1272727,
                "end_time": 26.4545455,
                "pitch": 66,
                "velocity": 51,
                "duration": 0.3272727,
                "tempo": 120.0
            },
            {
                "start_time": 26.025,
                "end_time": 26.55,
                "pitch": 37,
                "velocity": 51,
                "duration": 0.525,
                "tempo": 120.0
            },
            {
                "start_time": 26.4545455,
                "end_time": 26.55,
                "pitch": 58,
                "velocity": 51,
                "duration": 0.0954545,
                "tempo": 120.0
            },
            {
                "start_time": 26.55,
                "end_time": 26.65,
                "pitch": 65,
                "velocity": 51,
                "duration": 0.1,
                "tempo": 120.0
            },
            {
                "start_time": 25.9113636,
                "end_time": 26.7681818,
                "pitch": 78,
                "velocity": 51,
                "duration": 0.8568182,
                "tempo": 120.0
            },
            {
                "start_time": 26.55,
                "end_time": 26.8659091,
                "pitch": 37,
                "velocity": 51,
                "duration": 0.3159091,
                "tempo": 120.0
            },
            {
                "start_time": 26.7681818,
                "end_time": 26.8659091,
                "pitch": 70,
                "velocity": 51,
                "duration": 0.0977273,
                "tempo": 120.0
            },
            {
                "start_time": 26.8659091,
                "end_time": 26.9840909,
                "pitch": 65,
                "velocity": 51,
                "duration": 0.1181818,
                "tempo": 120.0
            },
            {
                "start_time": 26.9863636,
                "end_time": 27.0840909,
                "pitch": 53,
                "velocity": 51,
                "duration": 0.0977273,
                "tempo": 120.0
            },
            {
                "start_time": 27.2022727,
                "end_time": 27.3,
                "pitch": 65,
                "velocity": 51,
                "duration": 0.0977273,
                "tempo": 120.0
            },
            {
                "start_time": 27.3,
                "end_time": 27.4022727,
                "pitch": 65,
                "velocity": 51,
                "duration": 0.1022727,
                "tempo": 120.0
            },
            {
                "start_time": 27.4022727,
                "end_time": 27.5113636,
                "pitch": 73,
                "velocity": 51,
                "duration": 0.1090909,
                "tempo": 120.0
            },
            {
                "start_time": 26.8659091,
                "end_time": 27.6068182,
                "pitch": 37,
                "velocity": 51,
                "duration": 0.7409091,
                "tempo": 120.0
            },
            {
                "start_time": 27.5113636,
                "end_time": 27.6068182,
                "pitch": 70,
                "velocity": 51,
                "duration": 0.0954545,
                "tempo": 120.0
            },
            {
                "start_time": 27.6068182,
                "end_time": 27.7181818,
                "pitch": 65,
                "velocity": 51,
                "duration": 0.1113636,
                "tempo": 120.0
            },
            {
                "start_time": 13.6613636,
                "end_time": 27.8159091,
                "pitch": 40,
                "velocity": 51,
                "duration": 14.1545455,
                "tempo": 120.0
            },
            {
                "start_time": 27.7181818,
                "end_time": 27.8159091,
                "pitch": 61,
                "velocity": 51,
                "duration": 0.0977273,
                "tempo": 120.0
            },
            {
                "start_time": 27.8159091,
                "end_time": 27.9340909,
                "pitch": 34,
                "velocity": 51,
                "duration": 0.1181818,
                "tempo": 120.0
            },
            {
                "start_time": 28.2568182,
                "end_time": 28.3590909,
                "pitch": 41,
                "velocity": 51,
                "duration": 0.1022727,
                "tempo": 120.0
            },
            {
                "start_time": 13.3522727,
                "end_time": 28.7022727,
                "pitch": 42,
                "velocity": 51,
                "duration": 15.35,
                "tempo": 120.0
            },
            {
                "start_time": 28.7022727,
                "end_time": 28.7977273,
                "pitch": 34,
                "velocity": 51,
                "duration": 0.0954545,
                "tempo": 120.0
            },
            {
                "start_time": 29.1090909,
                "end_time": 29.2227273,
                "pitch": 41,
                "velocity": 51,
                "duration": 0.1136364,
                "tempo": 120.0
            },
            {
                "start_time": 28.7022727,
                "end_time": 29.5340909,
                "pitch": 42,
                "velocity": 51,
                "duration": 0.8318182,
                "tempo": 120.0
            },
            {
                "start_time": 29.5340909,
                "end_time": 29.6340909,
                "pitch": 34,
                "velocity": 51,
                "duration": 0.1,
                "tempo": 120.0
            },
            {
                "start_time": 29.9681818,
                "end_time": 30.0681818,
                "pitch": 41,
                "velocity": 51,
                "duration": 0.1,
                "tempo": 120.0
            },
            {
                "start_time": 29.5340909,
                "end_time": 30.3954545,
                "pitch": 42,
                "velocity": 51,
                "duration": 0.8613636,
                "tempo": 120.0
            },
            {
                "start_time": 30.3954545,
                "end_time": 30.5045455,
                "pitch": 34,
                "velocity": 51,
                "duration": 0.1090909,
                "tempo": 120.0
            },
            {
                "start_time": 30.8068182,
                "end_time": 30.9227273,
                "pitch": 41,
                "velocity": 51,
                "duration": 0.1159091,
                "tempo": 120.0
            },
            {
                "start_time": 30.3954545,
                "end_time": 31.2409091,
                "pitch": 42,
                "velocity": 51,
                "duration": 0.8454545,
                "tempo": 120.0
            },
            {
                "start_time": 31.2409091,
                "end_time": 31.3409091,
                "pitch": 34,
                "velocity": 51,
                "duration": 0.1,
                "tempo": 120.0
            },
            {
                "start_time": 31.675,
                "end_time": 31.7727273,
                "pitch": 41,
                "velocity": 51,
                "duration": 0.0977273,
                "tempo": 120.0
            },
            {
                "start_time": 31.2409091,
                "end_time": 32.0931818,
                "pitch": 42,
                "velocity": 51,
                "duration": 0.8522727,
                "tempo": 120.0
            },
            {
                "start_time": 32.0931818,
                "end_time": 32.2045455,
                "pitch": 34,
                "velocity": 51,
                "duration": 0.1113636,
                "tempo": 120.0
            },
            {
                "start_time": 32.5159091,
                "end_time": 32.6159091,
                "pitch": 41,
                "velocity": 51,
                "duration": 0.1,
                "tempo": 120.0
            },
            {
                "start_time": 32.0931818,
                "end_time": 32.95,
                "pitch": 42,
                "velocity": 51,
                "duration": 0.8568182,
                "tempo": 120.0
            },
            {
                "start_time": 32.95,
                "end_time": 33.05,
                "pitch": 34,
                "velocity": 51,
                "duration": 0.1,
                "tempo": 120.0
            },
            {
                "start_time": 33.3659091,
                "end_time": 33.4818182,
                "pitch": 41,
                "velocity": 51,
                "duration": 0.1159091,
                "tempo": 120.0
            },
            {
                "start_time": 33.7931818,
                "end_time": 33.9068182,
                "pitch": 29,
                "velocity": 51,
                "duration": 0.1136364,
                "tempo": 120.0
            },
            {
                "start_time": 13.1340909,
                "end_time": 33.9068182,
                "pitch": 54,
                "velocity": 51,
                "duration": 20.7727273,
                "tempo": 120.0
            },
            {
                "start_time": 33.9068182,
                "end_time": 34.0068182,
                "pitch": 46,
                "velocity": 51,
                "duration": 0.1,
                "tempo": 120.0
            },
            {
                "start_time": 34.0068182,
                "end_time": 34.1068182,
                "pitch": 46,
                "velocity": 51,
                "duration": 0.1,
                "tempo": 120.0
            },
            {
                "start_time": 13.2318182,
                "end_time": 34.225,
                "pitch": 13,
                "velocity": 51,
                "duration": 20.9931818,
                "tempo": 120.0
            },
            {
                "start_time": 34.1090909,
                "end_time": 34.225,
                "pitch": 46,
                "velocity": 51,
                "duration": 0.1159091,
                "tempo": 120.0
            },
            {
                "start_time": 34.225,
                "end_time": 34.3227273,
                "pitch": 41,
                "velocity": 51,
                "duration": 0.0977273,
                "tempo": 120.0
            },
            {
                "start_time": 34.3227273,
                "end_time": 34.4363636,
                "pitch": 41,
                "velocity": 51,
                "duration": 0.1136364,
                "tempo": 120.0
            },
            {
                "start_time": 27.6068182,
                "end_time": 34.5340909,
                "pitch": 37,
                "velocity": 51,
                "duration": 6.9272727,
                "tempo": 120.0
            },
            {
                "start_time": 34.4363636,
                "end_time": 34.5340909,
                "pitch": 37,
                "velocity": 51,
                "duration": 0.0977273,
                "tempo": 120.0
            },
            {
                "start_time": 34.5340909,
                "end_time": 34.65,
                "pitch": 37,
                "velocity": 51,
                "duration": 0.1159091,
                "tempo": 120.0
            },
            {
                "start_time": 27.8159091,
                "end_time": 34.6522727,
                "pitch": 40,
                "velocity": 51,
                "duration": 6.8363636,
                "tempo": 120.0
            },
            {
                "start_time": 34.6522727,
                "end_time": 34.75,
                "pitch": 34,
                "velocity": 51,
                "duration": 0.0977273,
                "tempo": 120.0
            },
            {
                "start_time": 34.4363636,
                "end_time": 35.1909091,
                "pitch": 41,
                "velocity": 51,
                "duration": 0.7545455,
                "tempo": 120.0
            },
            {
                "start_time": 35.075,
                "end_time": 35.1909091,
                "pitch": 41,
                "velocity": 51,
                "duration": 0.1159091,
                "tempo": 120.0
            },
            {
                "start_time": 32.95,
                "end_time": 35.5022727,
                "pitch": 42,
                "velocity": 51,
                "duration": 2.5522727,
                "tempo": 120.0
            },
            {
                "start_time": 35.5022727,
                "end_time": 35.6,
                "pitch": 34,
                "velocity": 51,
                "duration": 0.0977273,
                "tempo": 120.0
            },
            {
                "start_time": 35.9340909,
                "end_time": 36.0363636,
                "pitch": 41,
                "velocity": 51,
                "duration": 0.1022727,
                "tempo": 120.0
            },
            {
                "start_time": 35.5022727,
                "end_time": 36.3613636,
                "pitch": 42,
                "velocity": 51,
                "duration": 0.8590909,
                "tempo": 120.0
            },
            {
                "start_time": 36.3613636,
                "end_time": 36.4704545,
                "pitch": 34,
                "velocity": 51,
                "duration": 0.1090909,
                "tempo": 120.0
            },
            {
                "start_time": 36.7727273,
                "end_time": 36.8909091,
                "pitch": 41,
                "velocity": 51,
                "duration": 0.1181818,
                "tempo": 120.0
            },
            {
                "start_time": 36.3613636,
                "end_time": 37.2090909,
                "pitch": 42,
                "velocity": 51,
                "duration": 0.8477273,
                "tempo": 120.0
            },
            {
                "start_time": 37.2090909,
                "end_time": 37.3068182,
                "pitch": 34,
                "velocity": 51,
                "duration": 0.0977273,
                "tempo": 120.0
            },
            {
                "start_time": 37.6409091,
                "end_time": 37.7409091,
                "pitch": 41,
                "velocity": 51,
                "duration": 0.1,
                "tempo": 120.0
            },
            {
                "start_time": 37.2090909,
                "end_time": 38.0590909,
                "pitch": 42,
                "velocity": 51,
                "duration": 0.85,
                "tempo": 120.0
            },
            {
                "start_time": 38.0590909,
                "end_time": 38.1704545,
                "pitch": 34,
                "velocity": 51,
                "duration": 0.1113636,
                "tempo": 120.0
            },
            {
                "start_time": 38.4818182,
                "end_time": 38.5818182,
                "pitch": 41,
                "velocity": 51,
                "duration": 0.1,
                "tempo": 120.0
            },
            {
                "start_time": 38.0590909,
                "end_time": 38.9181818,
                "pitch": 42,
                "velocity": 51,
                "duration": 0.8590909,
                "tempo": 120.0
            },
            {
                "start_time": 38.9181818,
                "end_time": 39.0159091,
                "pitch": 34,
                "velocity": 51,
                "duration": 0.0977273,
                "tempo": 120.0
            },
            {
                "start_time": 39.3340909,
                "end_time": 39.4477273,
                "pitch": 41,
                "velocity": 51,
                "duration": 0.1136364,
                "tempo": 120.0
            },
            {
                "start_time": 38.9181818,
                "end_time": 39.7590909,
                "pitch": 42,
                "velocity": 51,
                "duration": 0.8409091,
                "tempo": 120.0
            },
            {
                "start_time": 39.7590909,
                "end_time": 39.8727273,
                "pitch": 34,
                "velocity": 51,
                "duration": 0.1136364,
                "tempo": 120.0
            },
            {
                "start_time": 40.1909091,
                "end_time": 40.2931818,
                "pitch": 41,
                "velocity": 51,
                "duration": 0.1022727,
                "tempo": 120.0
            },
            {
                "start_time": 33.9068182,
                "end_time": 40.6363636,
                "pitch": 54,
                "velocity": 51,
                "duration": 6.7295455,
                "tempo": 120.0
            },
            {
                "start_time": 34.225,
                "end_time": 40.7340909,
                "pitch": 13,
                "velocity": 51,
                "duration": 6.5090909,
                "tempo": 120.0
            },
            {
                "start_time": 40.6363636,
                "end_time": 40.7340909,
                "pitch": 46,
                "velocity": 51,
                "duration": 0.0977273,
                "tempo": 120.0
            },
            {
                "start_time": 40.7340909,
                "end_time": 40.8340909,
                "pitch": 37,
                "velocity": 51,
                "duration": 0.1,
                "tempo": 120.0
            },
            {
                "start_time": 40.8340909,
                "end_time": 40.9522727,
                "pitch": 37,
                "velocity": 51,
                "duration": 0.1181818,
                "tempo": 120.0
            },
            {
                "start_time": 40.7340909,
                "end_time": 41.05,
                "pitch": 13,
                "velocity": 51,
                "duration": 0.3159091,
                "tempo": 120.0
            },
            {
                "start_time": 40.9522727,
                "end_time": 41.05,
                "pitch": 46,
                "velocity": 51,
                "duration": 0.0977273,
                "tempo": 120.0
            },
            {
                "start_time": 41.05,
                "end_time": 41.1659091,
                "pitch": 37,
                "velocity": 51,
                "duration": 0.1159091,
                "tempo": 120.0
            },
            {
                "start_time": 41.1659091,
                "end_time": 41.2636364,
                "pitch": 37,
                "velocity": 51,
                "duration": 0.0977273,
                "tempo": 120.0
            },
            {
                "start_time": 40.9522727,
                "end_time": 41.2659091,
                "pitch": 52,
                "velocity": 51,
                "duration": 0.3136364,
                "tempo": 120.0
            },
            {
                "start_time": 41.05,
                "end_time": 41.3772727,
                "pitch": 13,
                "velocity": 51,
                "duration": 0.3272727,
                "tempo": 120.0
            },
            {
                "start_time": 41.2659091,
                "end_time": 41.3772727,
                "pitch": 46,
                "velocity": 51,
                "duration": 0.1113636,
                "tempo": 120.0
            },
            {
                "start_time": 41.3772727,
                "end_time": 41.4772727,
                "pitch": 37,
                "velocity": 51,
                "duration": 0.1,
                "tempo": 120.0
            },
            {
                "start_time": 34.6522727,
                "end_time": 41.4772727,
                "pitch": 40,
                "velocity": 51,
                "duration": 6.825,
                "tempo": 120.0
            },
            {
                "start_time": 41.4772727,
                "end_time": 41.575,
                "pitch": 34,
                "velocity": 51,
                "duration": 0.0977273,
                "tempo": 120.0
            },
            {
                "start_time": 41.9,
                "end_time": 42.0022727,
                "pitch": 41,
                "velocity": 51,
                "duration": 0.1022727,
                "tempo": 120.0
            },
            {
                "start_time": 39.7590909,
                "end_time": 42.3204545,
                "pitch": 42,
                "velocity": 51,
                "duration": 2.5613636,
                "tempo": 120.0
            },
            {
                "start_time": 42.3204545,
                "end_time": 42.4318182,
                "pitch": 34,
                "velocity": 51,
                "duration": 0.1113636,
                "tempo": 120.0
            },
            {
                "start_time": 42.7431818,
                "end_time": 42.8590909,
                "pitch": 41,
                "velocity": 51,
                "duration": 0.1159091,
                "tempo": 120.0
            },
            {
                "start_time": 42.3204545,
                "end_time": 43.1795455,
                "pitch": 42,
                "velocity": 51,
                "duration": 0.8590909,
                "tempo": 120.0
            },
            {
                "start_time": 43.1795455,
                "end_time": 43.275,
                "pitch": 34,
                "velocity": 51,
                "duration": 0.0954545,
                "tempo": 120.0
            },
            {
                "start_time": 43.6090909,
                "end_time": 43.7113636,
                "pitch": 41,
                "velocity": 51,
                "duration": 0.1022727,
                "tempo": 120.0
            },
            {
                "start_time": 43.1795455,
                "end_time": 44.0295455,
                "pitch": 42,
                "velocity": 51,
                "duration": 0.85,
                "tempo": 120.0
            },
            {
                "start_time": 44.0295455,
                "end_time": 44.1409091,
                "pitch": 34,
                "velocity": 51,
                "duration": 0.1113636,
                "tempo": 120.0
            },
            {
                "start_time": 44.4522727,
                "end_time": 44.5522727,
                "pitch": 41,
                "velocity": 51,
                "duration": 0.1,
                "tempo": 120.0
            },
            {
                "start_time": 44.0295455,
                "end_time": 44.8886364,
                "pitch": 42,
                "velocity": 51,
                "duration": 0.8590909,
                "tempo": 120.0
            },
            {
                "start_time": 44.8886364,
                "end_time": 44.9863636,
                "pitch": 34,
                "velocity": 51,
                "duration": 0.0977273,
                "tempo": 120.0
            },
            {
                "start_time": 45.3113636,
                "end_time": 45.4227273,
                "pitch": 41,
                "velocity": 51,
                "duration": 0.1113636,
                "tempo": 120.0
            },
            {
                "start_time": 44.8886364,
                "end_time": 45.725,
                "pitch": 42,
                "velocity": 51,
                "duration": 0.8363636,
                "tempo": 120.0
            },
            {
                "start_time": 45.725,
                "end_time": 45.8431818,
                "pitch": 34,
                "velocity": 51,
                "duration": 0.1181818,
                "tempo": 120.0
            },
            {
                "start_time": 46.1681818,
                "end_time": 46.2681818,
                "pitch": 41,
                "velocity": 51,
                "duration": 0.1,
                "tempo": 120.0
            },
            {
                "start_time": 45.725,
                "end_time": 46.6045455,
                "pitch": 42,
                "velocity": 51,
                "duration": 0.8795455,
                "tempo": 120.0
            },
            {
                "start_time": 46.6045455,
                "end_time": 46.7,
                "pitch": 34,
                "velocity": 51,
                "duration": 0.0954545,
                "tempo": 120.0
            },
            {
                "start_time": 47.0204545,
                "end_time": 47.1340909,
                "pitch": 41,
                "velocity": 51,
                "duration": 0.1136364,
                "tempo": 120.0
            },
            {
                "start_time": 40.6363636,
                "end_time": 47.4454545,
                "pitch": 54,
                "velocity": 51,
                "duration": 6.8090909,
                "tempo": 120.0
            },
            {
                "start_time": 41.3772727,
                "end_time": 47.5431818,
                "pitch": 13,
                "velocity": 51,
                "duration": 6.1659091,
                "tempo": 120.0
            },
            {
                "start_time": 47.4454545,
                "end_time": 47.5431818,
                "pitch": 46,
                "velocity": 51,
                "duration": 0.0977273,
                "tempo": 120.0
            },
            {
                "start_time": 47.5431818,
                "end_time": 47.6590909,
                "pitch": 37,
                "velocity": 51,
                "duration": 0.1159091,
                "tempo": 120.0
            },
            {
                "start_time": 47.6590909,
                "end_time": 47.7590909,
                "pitch": 37,
                "velocity": 51,
                "duration": 0.1,
                "tempo": 120.0
            },
            {
                "start_time": 41.2659091,
                "end_time": 47.7613636,
                "pitch": 52,
                "velocity": 51,
                "duration": 6.4954545,
                "tempo": 120.0
            },
            {
                "start_time": 47.5431818,
                "end_time": 47.8772727,
                "pitch": 13,
                "velocity": 51,
                "duration": 0.3340909,
                "tempo": 120.0
            },
            {
                "start_time": 47.7613636,
                "end_time": 47.8772727,
                "pitch": 46,
                "velocity": 51,
                "duration": 0.1159091,
                "tempo": 120.0
            },
            {
                "start_time": 47.8772727,
                "end_time": 47.9772727,
                "pitch": 37,
                "velocity": 51,
                "duration": 0.1,
                "tempo": 120.0
            },
            {
                "start_time": 47.9772727,
                "end_time": 48.0931818,
                "pitch": 37,
                "velocity": 51,
                "duration": 0.1159091,
                "tempo": 120.0
            },
            {
                "start_time": 47.7613636,
                "end_time": 48.0931818,
                "pitch": 52,
                "velocity": 51,
                "duration": 0.3318182,
                "tempo": 120.0
            },
            {
                "start_time": 47.8772727,
                "end_time": 48.1931818,
                "pitch": 13,
                "velocity": 51,
                "duration": 0.3159091,
                "tempo": 120.0
            },
            {
                "start_time": 48.0931818,
                "end_time": 48.1931818,
                "pitch": 46,
                "velocity": 51,
                "duration": 0.1,
                "tempo": 120.0
            },
            {
                "start_time": 48.1931818,
                "end_time": 48.2954545,
                "pitch": 37,
                "velocity": 51,
                "duration": 0.1022727,
                "tempo": 120.0
            }
        ],
        "Clarinet": [
            {
                "start_time": 0.7590909,
                "end_time": 0.8704545,
                "pitch": 29,
                "velocity": 51,
                "duration": 0.1113636,
                "tempo": 120.0
            },
            {
                "start_time": 1.0840909,
                "end_time": 1.1840909,
                "pitch": 41,
                "velocity": 51,
                "duration": 0.1,
                "tempo": 120.0
            },
            {
                "start_time": 1.6204545,
                "end_time": 1.725,
                "pitch": 29,
                "velocity": 51,
                "duration": 0.1045455,
                "tempo": 120.0
            },
            {
                "start_time": 1.9454545,
                "end_time": 2.0477273,
                "pitch": 41,
                "velocity": 51,
                "duration": 0.1022727,
                "tempo": 120.0
            },
            {
                "start_time": 2.4772727,
                "end_time": 2.5886364,
                "pitch": 29,
                "velocity": 51,
                "duration": 0.1113636,
                "tempo": 120.0
            },
            {
                "start_time": 2.7840909,
                "end_time": 2.9,
                "pitch": 41,
                "velocity": 51,
                "duration": 0.1159091,
                "tempo": 120.0
            },
            {
                "start_time": 3.3340909,
                "end_time": 3.4340909,
                "pitch": 29,
                "velocity": 51,
                "duration": 0.1,
                "tempo": 120.0
            },
            {
                "start_time": 3.6477273,
                "end_time": 3.7477273,
                "pitch": 41,
                "velocity": 51,
                "duration": 0.1,
                "tempo": 120.0
            },
            {
                "start_time": 4.175,
                "end_time": 4.275,
                "pitch": 29,
                "velocity": 51,
                "duration": 0.1,
                "tempo": 120.0
            },
            {
                "start_time": 4.4954545,
                "end_time": 4.6159091,
                "pitch": 41,
                "velocity": 51,
                "duration": 0.1204545,
                "tempo": 120.0
            },
            {
                "start_time": 5.0363636,
                "end_time": 5.1522727,
                "pitch": 29,
                "velocity": 51,
                "duration": 0.1159091,
                "tempo": 120.0
            },
            {
                "start_time": 5.3636364,
                "end_time": 5.4590909,
                "pitch": 41,
                "velocity": 51,
                "duration": 0.0954545,
                "tempo": 120.0
            },
            {
                "start_time": 5.8840909,
                "end_time": 5.9840909,
                "pitch": 29,
                "velocity": 51,
                "duration": 0.1,
                "tempo": 120.0
            },
            {
                "start_time": 6.2022727,
                "end_time": 6.3227273,
                "pitch": 41,
                "velocity": 51,
                "duration": 0.1204545,
                "tempo": 120.0
            },
            {
                "start_time": 6.7340909,
                "end_time": 6.8454545,
                "pitch": 29,
                "velocity": 51,
                "duration": 0.1113636,
                "tempo": 120.0
            },
            {
                "start_time": 7.0590909,
                "end_time": 7.1613636,
                "pitch": 41,
                "velocity": 51,
                "duration": 0.1022727,
                "tempo": 120.0
            },
            {
                "start_time": 7.5954545,
                "end_time": 7.6931818,
                "pitch": 29,
                "velocity": 51,
                "duration": 0.0977273,
                "tempo": 120.0
            },
            {
                "start_time": 7.9090909,
                "end_time": 8.0113636,
                "pitch": 41,
                "velocity": 51,
                "duration": 0.1022727,
                "tempo": 120.0
            },
            {
                "start_time": 8.4454545,
                "end_time": 8.5613636,
                "pitch": 29,
                "velocity": 51,
                "duration": 0.1159091,
                "tempo": 120.0
            },
            {
                "start_time": 8.7568182,
                "end_time": 8.8704545,
                "pitch": 41,
                "velocity": 51,
                "duration": 0.1136364,
                "tempo": 120.0
            },
            {
                "start_time": 9.3,
                "end_time": 9.4,
                "pitch": 29,
                "velocity": 51,
                "duration": 0.1,
                "tempo": 120.0
            },
            {
                "start_time": 9.6159091,
                "end_time": 9.7181818,
                "pitch": 41,
                "velocity": 51,
                "duration": 0.1022727,
                "tempo": 120.0
            },
            {
                "start_time": 10.15,
                "end_time": 10.2522727,
                "pitch": 29,
                "velocity": 51,
                "duration": 0.1022727,
                "tempo": 120.0
            },
            {
                "start_time": 10.4681818,
                "end_time": 10.5863636,
                "pitch": 41,
                "velocity": 51,
                "duration": 0.1181818,
                "tempo": 120.0
            },
            {
                "start_time": 11.0045455,
                "end_time": 11.1204545,
                "pitch": 29,
                "velocity": 51,
                "duration": 0.1159091,
                "tempo": 120.0
            },
            {
                "start_time": 11.3318182,
                "end_time": 11.4272727,
                "pitch": 41,
                "velocity": 51,
                "duration": 0.0954545,
                "tempo": 120.0
            },
            {
                "start_time": 11.85,
                "end_time": 11.95,
                "pitch": 29,
                "velocity": 51,
                "duration": 0.1,
                "tempo": 120.0
            },
            {
                "start_time": 12.1659091,
                "end_time": 12.2840909,
                "pitch": 41,
                "velocity": 51,
                "duration": 0.1181818,
                "tempo": 120.0
            },
            {
                "start_time": 12.7,
                "end_time": 12.8159091,
                "pitch": 29,
                "velocity": 51,
                "duration": 0.1159091,
                "tempo": 120.0
            },
            {
                "start_time": 13.0318182,
                "end_time": 13.1340909,
                "pitch": 41,
                "velocity": 51,
                "duration": 0.1022727,
                "tempo": 120.0
            },
            {
                "start_time": 14.3136364,
                "end_time": 14.4090909,
                "pitch": 53,
                "velocity": 51,
                "duration": 0.0954545,
                "tempo": 120.0
            },
            {
                "start_time": 14.4090909,
                "end_time": 14.5204545,
                "pitch": 53,
                "velocity": 51,
                "duration": 0.1113636,
                "tempo": 120.0
            },
            {
                "start_time": 14.7159091,
                "end_time": 14.8340909,
                "pitch": 65,
                "velocity": 51,
                "duration": 0.1181818,
                "tempo": 120.0
            },
            {
                "start_time": 14.3136364,
                "end_time": 15.1568182,
                "pitch": 25,
                "velocity": 51,
                "duration": 0.8431818,
                "tempo": 120.0
            },
            {
                "start_time": 15.1568182,
                "end_time": 15.2727273,
                "pitch": 53,
                "velocity": 51,
                "duration": 0.1159091,
                "tempo": 120.0
            },
            {
                "start_time": 15.2727273,
                "end_time": 15.375,
                "pitch": 53,
                "velocity": 51,
                "duration": 0.1022727,
                "tempo": 120.0
            },
            {
                "start_time": 15.5840909,
                "end_time": 15.6818182,
                "pitch": 65,
                "velocity": 51,
                "duration": 0.0977273,
                "tempo": 120.0
            },
            {
                "start_time": 15.1568182,
                "end_time": 16.0045455,
                "pitch": 25,
                "velocity": 51,
                "duration": 0.8477273,
                "tempo": 120.0
            },
            {
                "start_time": 16.0045455,
                "end_time": 16.1045455,
                "pitch": 53,
                "velocity": 51,
                "duration": 0.1,
                "tempo": 120.0
            },
            {
                "start_time": 16.1045455,
                "end_time": 16.2045455,
                "pitch": 53,
                "velocity": 51,
                "duration": 0.1,
                "tempo": 120.0
            },
            {
                "start_time": 16.4227273,
                "end_time": 16.5409091,
                "pitch": 65,
                "velocity": 51,
                "duration": 0.1181818,
                "tempo": 120.0
            },
            {
                "start_time": 16.0045455,
                "end_time": 16.8636364,
                "pitch": 25,
                "velocity": 51,
                "duration": 0.8590909,
                "tempo": 120.0
            },
            {
                "start_time": 16.8636364,
                "end_time": 16.9636364,
                "pitch": 53,
                "velocity": 51,
                "duration": 0.1,
                "tempo": 120.0
            },
            {
                "start_time": 16.9636364,
                "end_time": 17.0818182,
                "pitch": 53,
                "velocity": 51,
                "duration": 0.1181818,
                "tempo": 120.0
            },
            {
                "start_time": 17.2909091,
                "end_time": 17.3886364,
                "pitch": 65,
                "velocity": 51,
                "duration": 0.0977273,
                "tempo": 120.0
            },
            {
                "start_time": 16.8636364,
                "end_time": 17.6977273,
                "pitch": 25,
                "velocity": 51,
                "duration": 0.8340909,
                "tempo": 120.0
            },
            {
                "start_time": 17.6977273,
                "end_time": 17.8159091,
                "pitch": 53,
                "velocity": 51,
                "duration": 0.1181818,
                "tempo": 120.0
            },
            {
                "start_time": 17.8159091,
                "end_time": 17.9181818,
                "pitch": 53,
                "velocity": 51,
                "duration": 0.1022727,
                "tempo": 120.0
            },
            {
                "start_time": 18.1363636,
                "end_time": 18.2522727,
                "pitch": 65,
                "velocity": 51,
                "duration": 0.1159091,
                "tempo": 120.0
            },
            {
                "start_time": 17.6977273,
                "end_time": 18.5659091,
                "pitch": 25,
                "velocity": 51,
                "duration": 0.8681818,
                "tempo": 120.0
            },
            {
                "start_time": 18.5659091,
                "end_time": 18.6590909,
                "pitch": 53,
                "velocity": 51,
                "duration": 0.0931818,
                "tempo": 120.0
            },
            {
                "start_time": 18.6590909,
                "end_time": 18.7727273,
                "pitch": 53,
                "velocity": 51,
                "duration": 0.1136364,
                "tempo": 120.0
            },
            {
                "start_time": 18.9840909,
                "end_time": 19.0886364,
                "pitch": 65,
                "velocity": 51,
                "duration": 0.1045455,
                "tempo": 120.0
            },
            {
                "start_time": 18.5659091,
                "end_time": 19.4090909,
                "pitch": 25,
                "velocity": 51,
                "duration": 0.8431818,
                "tempo": 120.0
            },
            {
                "start_time": 19.4090909,
                "end_time": 19.5272727,
                "pitch": 53,
                "velocity": 51,
                "duration": 0.1181818,
                "tempo": 120.0
            },
            {
                "start_time": 19.5272727,
                "end_time": 19.6272727,
                "pitch": 53,
                "velocity": 51,
                "duration": 0.1,
                "tempo": 120.0
            },
            {
                "start_time": 19.8431818,
                "end_time": 19.9431818,
                "pitch": 65,
                "velocity": 51,
                "duration": 0.1,
                "tempo": 120.0
            },
            {
                "start_time": 19.4090909,
                "end_time": 20.2727273,
                "pitch": 25,
                "velocity": 51,
                "duration": 0.8636364,
                "tempo": 120.0
            },
            {
                "start_time": 20.2727273,
                "end_time": 20.3659091,
                "pitch": 53,
                "velocity": 51,
                "duration": 0.0931818,
                "tempo": 120.0
            },
            {
                "start_time": 20.3659091,
                "end_time": 20.4795455,
                "pitch": 53,
                "velocity": 51,
                "duration": 0.1136364,
                "tempo": 120.0
            },
            {
                "start_time": 20.6727273,
                "end_time": 20.7909091,
                "pitch": 65,
                "velocity": 51,
                "duration": 0.1181818,
                "tempo": 120.0
            },
            {
                "start_time": 20.2727273,
                "end_time": 21.1113636,
                "pitch": 25,
                "velocity": 51,
                "duration": 0.8386364,
                "tempo": 120.0
            },
            {
                "start_time": 21.1113636,
                "end_time": 21.2295455,
                "pitch": 53,
                "velocity": 51,
                "duration": 0.1181818,
                "tempo": 120.0
            },
            {
                "start_time": 21.2295455,
                "end_time": 21.3318182,
                "pitch": 53,
                "velocity": 51,
                "duration": 0.1022727,
                "tempo": 120.0
            },
            {
                "start_time": 21.5431818,
                "end_time": 21.6386364,
                "pitch": 65,
                "velocity": 51,
                "duration": 0.0954545,
                "tempo": 120.0
            },
            {
                "start_time": 21.1113636,
                "end_time": 21.9636364,
                "pitch": 25,
                "velocity": 51,
                "duration": 0.8522727,
                "tempo": 120.0
            },
            {
                "start_time": 21.9636364,
                "end_time": 22.0636364,
                "pitch": 53,
                "velocity": 51,
                "duration": 0.1,
                "tempo": 120.0
            },
            {
                "start_time": 22.0636364,
                "end_time": 22.1659091,
                "pitch": 53,
                "velocity": 51,
                "duration": 0.1022727,
                "tempo": 120.0
            },
            {
                "start_time": 22.3818182,
                "end_time": 22.5022727,
                "pitch": 65,
                "velocity": 51,
                "duration": 0.1204545,
                "tempo": 120.0
            },
            {
                "start_time": 21.9636364,
                "end_time": 22.825,
                "pitch": 25,
                "velocity": 51,
                "duration": 0.8613636,
                "tempo": 120.0
            },
            {
                "start_time": 22.825,
                "end_time": 22.925,
                "pitch": 53,
                "velocity": 51,
                "duration": 0.1,
                "tempo": 120.0
            },
            {
                "start_time": 22.925,
                "end_time": 23.0409091,
                "pitch": 53,
                "velocity": 51,
                "duration": 0.1159091,
                "tempo": 120.0
            },
            {
                "start_time": 23.2545455,
                "end_time": 23.3522727,
                "pitch": 65,
                "velocity": 51,
                "duration": 0.0977273,
                "tempo": 120.0
            },
            {
                "start_time": 22.825,
                "end_time": 23.6636364,
                "pitch": 25,
                "velocity": 51,
                "duration": 0.8386364,
                "tempo": 120.0
            },
            {
                "start_time": 23.6636364,
                "end_time": 23.7772727,
                "pitch": 53,
                "velocity": 51,
                "duration": 0.1136364,
                "tempo": 120.0
            },
            {
                "start_time": 23.7772727,
                "end_time": 23.8772727,
                "pitch": 53,
                "velocity": 51,
                "duration": 0.1,
                "tempo": 120.0
            },
            {
                "start_time": 24.0886364,
                "end_time": 24.2090909,
                "pitch": 65,
                "velocity": 51,
                "duration": 0.1204545,
                "tempo": 120.0
            },
            {
                "start_time": 23.6636364,
                "end_time": 24.5204545,
                "pitch": 25,
                "velocity": 51,
                "duration": 0.8568182,
                "tempo": 120.0
            },
            {
                "start_time": 24.5204545,
                "end_time": 24.6181818,
                "pitch": 53,
                "velocity": 51,
                "duration": 0.0977273,
                "tempo": 120.0
            },
            {
                "start_time": 24.6181818,
                "end_time": 24.7340909,
                "pitch": 53,
                "velocity": 51,
                "duration": 0.1159091,
                "tempo": 120.0
            },
            {
                "start_time": 24.95,
                "end_time": 25.0545455,
                "pitch": 65,
                "velocity": 51,
                "duration": 0.1045455,
                "tempo": 120.0
            },
            {
                "start_time": 24.5204545,
                "end_time": 25.375,
                "pitch": 25,
                "velocity": 51,
                "duration": 0.8545455,
                "tempo": 120.0
            },
            {
                "start_time": 25.375,
                "end_time": 25.4909091,
                "pitch": 53,
                "velocity": 51,
                "duration": 0.1159091,
                "tempo": 120.0
            },
            {
                "start_time": 25.4909091,
                "end_time": 25.5909091,
                "pitch": 53,
                "velocity": 51,
                "duration": 0.1,
                "tempo": 120.0
            },
            {
                "start_time": 25.8090909,
                "end_time": 25.9090909,
                "pitch": 65,
                "velocity": 51,
                "duration": 0.1,
                "tempo": 120.0
            },
            {
                "start_time": 25.375,
                "end_time": 26.2386364,
                "pitch": 25,
                "velocity": 51,
                "duration": 0.8636364,
                "tempo": 120.0
            },
            {
                "start_time": 26.2386364,
                "end_time": 26.3386364,
                "pitch": 53,
                "velocity": 51,
                "duration": 0.1,
                "tempo": 120.0
            },
            {
                "start_time": 26.3386364,
                "end_time": 26.4545455,
                "pitch": 53,
                "velocity": 51,
                "duration": 0.1159091,
                "tempo": 120.0
            },
            {
                "start_time": 26.65,
                "end_time": 26.7681818,
                "pitch": 65,
                "velocity": 51,
                "duration": 0.1181818,
                "tempo": 120.0
            },
            {
                "start_time": 27.0840909,
                "end_time": 27.2022727,
                "pitch": 53,
                "velocity": 51,
                "duration": 0.1181818,
                "tempo": 120.0
            },
            {
                "start_time": 28.0363636,
                "end_time": 28.1386364,
                "pitch": 29,
                "velocity": 51,
                "duration": 0.1022727,
                "tempo": 120.0
            },
            {
                "start_time": 28.1386364,
                "end_time": 28.2568182,
                "pitch": 29,
                "velocity": 51,
                "duration": 0.1181818,
                "tempo": 120.0
            },
            {
                "start_time": 28.3590909,
                "end_time": 28.4772727,
                "pitch": 41,
                "velocity": 51,
                "duration": 0.1181818,
                "tempo": 120.0
            },
            {
                "start_time": 28.4772727,
                "end_time": 28.5795455,
                "pitch": 41,
                "velocity": 51,
                "duration": 0.1022727,
                "tempo": 120.0
            },
            {
                "start_time": 28.5818182,
                "end_time": 28.7022727,
                "pitch": 41,
                "velocity": 51,
                "duration": 0.1204545,
                "tempo": 120.0
            },
            {
                "start_time": 28.8954545,
                "end_time": 29.0113636,
                "pitch": 29,
                "velocity": 51,
                "duration": 0.1159091,
                "tempo": 120.0
            },
            {
                "start_time": 29.0113636,
                "end_time": 29.1090909,
                "pitch": 29,
                "velocity": 51,
                "duration": 0.0977273,
                "tempo": 120.0
            },
            {
                "start_time": 29.2227273,
                "end_time": 29.3204545,
                "pitch": 41,
                "velocity": 51,
                "duration": 0.0977273,
                "tempo": 120.0
            },
            {
                "start_time": 29.3204545,
                "end_time": 29.4340909,
                "pitch": 41,
                "velocity": 51,
                "duration": 0.1136364,
                "tempo": 120.0
            },
            {
                "start_time": 29.4340909,
                "end_time": 29.5340909,
                "pitch": 41,
                "velocity": 51,
                "duration": 0.1,
                "tempo": 120.0
            },
            {
                "start_time": 29.75,
                "end_time": 29.85,
                "pitch": 29,
                "velocity": 51,
                "duration": 0.1,
                "tempo": 120.0
            },
            {
                "start_time": 29.85,
                "end_time": 29.9681818,
                "pitch": 29,
                "velocity": 51,
                "duration": 0.1181818,
                "tempo": 120.0
            },
            {
                "start_time": 30.0704545,
                "end_time": 30.1886364,
                "pitch": 41,
                "velocity": 51,
                "duration": 0.1181818,
                "tempo": 120.0
            },
            {
                "start_time": 30.1886364,
                "end_time": 30.2909091,
                "pitch": 41,
                "velocity": 51,
                "duration": 0.1022727,
                "tempo": 120.0
            },
            {
                "start_time": 30.2909091,
                "end_time": 30.3931818,
                "pitch": 41,
                "velocity": 51,
                "duration": 0.1022727,
                "tempo": 120.0
            },
            {
                "start_time": 30.6,
                "end_time": 30.7113636,
                "pitch": 29,
                "velocity": 51,
                "duration": 0.1113636,
                "tempo": 120.0
            },
            {
                "start_time": 30.7113636,
                "end_time": 30.8068182,
                "pitch": 29,
                "velocity": 51,
                "duration": 0.0954545,
                "tempo": 120.0
            },
            {
                "start_time": 30.9227273,
                "end_time": 31.0227273,
                "pitch": 41,
                "velocity": 51,
                "duration": 0.1,
                "tempo": 120.0
            },
            {
                "start_time": 31.0227273,
                "end_time": 31.1227273,
                "pitch": 41,
                "velocity": 51,
                "duration": 0.1,
                "tempo": 120.0
            },
            {
                "start_time": 31.1227273,
                "end_time": 31.2409091,
                "pitch": 41,
                "velocity": 51,
                "duration": 0.1181818,
                "tempo": 120.0
            },
            {
                "start_time": 31.4568182,
                "end_time": 31.5568182,
                "pitch": 29,
                "velocity": 51,
                "duration": 0.1,
                "tempo": 120.0
            },
            {
                "start_time": 31.5568182,
                "end_time": 31.6727273,
                "pitch": 29,
                "velocity": 51,
                "duration": 0.1159091,
                "tempo": 120.0
            },
            {
                "start_time": 31.7727273,
                "end_time": 31.8727273,
                "pitch": 41,
                "velocity": 51,
                "duration": 0.1,
                "tempo": 120.0
            },
            {
                "start_time": 31.8727273,
                "end_time": 31.9909091,
                "pitch": 41,
                "velocity": 51,
                "duration": 0.1181818,
                "tempo": 120.0
            },
            {
                "start_time": 31.9909091,
                "end_time": 32.0909091,
                "pitch": 41,
                "velocity": 51,
                "duration": 0.1,
                "tempo": 120.0
            },
            {
                "start_time": 32.3022727,
                "end_time": 32.4181818,
                "pitch": 29,
                "velocity": 51,
                "duration": 0.1159091,
                "tempo": 120.0
            },
            {
                "start_time": 32.4181818,
                "end_time": 32.5159091,
                "pitch": 29,
                "velocity": 51,
                "duration": 0.0977273,
                "tempo": 120.0
            },
            {
                "start_time": 32.6159091,
                "end_time": 32.7318182,
                "pitch": 41,
                "velocity": 51,
                "duration": 0.1159091,
                "tempo": 120.0
            },
            {
                "start_time": 32.7318182,
                "end_time": 32.8318182,
                "pitch": 41,
                "velocity": 51,
                "duration": 0.1,
                "tempo": 120.0
            },
            {
                "start_time": 32.8318182,
                "end_time": 32.95,
                "pitch": 41,
                "velocity": 51,
                "duration": 0.1181818,
                "tempo": 120.0
            },
            {
                "start_time": 33.1659091,
                "end_time": 33.2659091,
                "pitch": 29,
                "velocity": 51,
                "duration": 0.1,
                "tempo": 120.0
            },
            {
                "start_time": 33.2659091,
                "end_time": 33.3659091,
                "pitch": 29,
                "velocity": 51,
                "duration": 0.1,
                "tempo": 120.0
            },
            {
                "start_time": 33.4818182,
                "end_time": 33.5795455,
                "pitch": 41,
                "velocity": 51,
                "duration": 0.0977273,
                "tempo": 120.0
            },
            {
                "start_time": 33.5795455,
                "end_time": 33.6931818,
                "pitch": 41,
                "velocity": 51,
                "duration": 0.1136364,
                "tempo": 120.0
            },
            {
                "start_time": 33.6931818,
                "end_time": 33.7931818,
                "pitch": 41,
                "velocity": 51,
                "duration": 0.1,
                "tempo": 120.0
            },
            {
                "start_time": 34.8545455,
                "end_time": 34.9727273,
                "pitch": 29,
                "velocity": 51,
                "duration": 0.1181818,
                "tempo": 120.0
            },
            {
                "start_time": 34.9727273,
                "end_time": 35.075,
                "pitch": 29,
                "velocity": 51,
                "duration": 0.1022727,
                "tempo": 120.0
            },
            {
                "start_time": 35.1909091,
                "end_time": 35.2863636,
                "pitch": 41,
                "velocity": 51,
                "duration": 0.0954545,
                "tempo": 120.0
            },
            {
                "start_time": 35.2863636,
                "end_time": 35.4022727,
                "pitch": 41,
                "velocity": 51,
                "duration": 0.1159091,
                "tempo": 120.0
            },
            {
                "start_time": 35.4022727,
                "end_time": 35.5022727,
                "pitch": 41,
                "velocity": 51,
                "duration": 0.1,
                "tempo": 120.0
            },
            {
                "start_time": 35.7181818,
                "end_time": 35.8181818,
                "pitch": 29,
                "velocity": 51,
                "duration": 0.1,
                "tempo": 120.0
            },
            {
                "start_time": 35.8181818,
                "end_time": 35.9318182,
                "pitch": 29,
                "velocity": 51,
                "duration": 0.1136364,
                "tempo": 120.0
            },
            {
                "start_time": 36.0363636,
                "end_time": 36.1568182,
                "pitch": 41,
                "velocity": 51,
                "duration": 0.1204545,
                "tempo": 120.0
            },
            {
                "start_time": 36.1568182,
                "end_time": 36.2568182,
                "pitch": 41,
                "velocity": 51,
                "duration": 0.1,
                "tempo": 120.0
            },
            {
                "start_time": 36.2568182,
                "end_time": 36.3613636,
                "pitch": 41,
                "velocity": 51,
                "duration": 0.1045455,
                "tempo": 120.0
            },
            {
                "start_time": 36.5659091,
                "end_time": 36.6772727,
                "pitch": 29,
                "velocity": 51,
                "duration": 0.1113636,
                "tempo": 120.0
            },
            {
                "start_time": 36.6772727,
                "end_time": 36.7727273,
                "pitch": 29,
                "velocity": 51,
                "duration": 0.0954545,
                "tempo": 120.0
            },
            {
                "start_time": 36.8909091,
                "end_time": 36.9886364,
                "pitch": 41,
                "velocity": 51,
                "duration": 0.0977273,
                "tempo": 120.0
            },
            {
                "start_time": 36.9886364,
                "end_time": 37.0886364,
                "pitch": 41,
                "velocity": 51,
                "duration": 0.1,
                "tempo": 120.0
            },
            {
                "start_time": 37.0886364,
                "end_time": 37.2090909,
                "pitch": 41,
                "velocity": 51,
                "duration": 0.1204545,
                "tempo": 120.0
            },
            {
                "start_time": 37.4227273,
                "end_time": 37.5227273,
                "pitch": 29,
                "velocity": 51,
                "duration": 0.1,
                "tempo": 120.0
            },
            {
                "start_time": 37.5227273,
                "end_time": 37.6386364,
                "pitch": 29,
                "velocity": 51,
                "duration": 0.1159091,
                "tempo": 120.0
            },
            {
                "start_time": 37.7409091,
                "end_time": 37.8409091,
                "pitch": 41,
                "velocity": 51,
                "duration": 0.1,
                "tempo": 120.0
            },
            {
                "start_time": 37.8409091,
                "end_time": 37.9568182,
                "pitch": 41,
                "velocity": 51,
                "duration": 0.1159091,
                "tempo": 120.0
            },
            {
                "start_time": 37.9568182,
                "end_time": 38.0590909,
                "pitch": 41,
                "velocity": 51,
                "duration": 0.1022727,
                "tempo": 120.0
            },
            {
                "start_time": 38.2704545,
                "end_time": 38.3840909,
                "pitch": 29,
                "velocity": 51,
                "duration": 0.1136364,
                "tempo": 120.0
            },
            {
                "start_time": 38.3840909,
                "end_time": 38.4818182,
                "pitch": 29,
                "velocity": 51,
                "duration": 0.0977273,
                "tempo": 120.0
            },
            {
                "start_time": 38.5818182,
                "end_time": 38.7,
                "pitch": 41,
                "velocity": 51,
                "duration": 0.1181818,
                "tempo": 120.0
            },
            {
                "start_time": 38.7,
                "end_time": 38.8,
                "pitch": 41,
                "velocity": 51,
                "duration": 0.1,
                "tempo": 120.0
            },
            {
                "start_time": 38.8,
                "end_time": 38.9181818,
                "pitch": 41,
                "velocity": 51,
                "duration": 0.1181818,
                "tempo": 120.0
            },
            {
                "start_time": 39.1340909,
                "end_time": 39.2318182,
                "pitch": 29,
                "velocity": 51,
                "duration": 0.0977273,
                "tempo": 120.0
            },
            {
                "start_time": 39.2340909,
                "end_time": 39.3340909,
                "pitch": 29,
                "velocity": 51,
                "duration": 0.1,
                "tempo": 120.0
            },
            {
                "start_time": 39.4477273,
                "end_time": 39.5454545,
                "pitch": 41,
                "velocity": 51,
                "duration": 0.0977273,
                "tempo": 120.0
            },
            {
                "start_time": 39.5454545,
                "end_time": 39.6590909,
                "pitch": 41,
                "velocity": 51,
                "duration": 0.1136364,
                "tempo": 120.0
            },
            {
                "start_time": 39.6590909,
                "end_time": 39.7590909,
                "pitch": 41,
                "velocity": 51,
                "duration": 0.1,
                "tempo": 120.0
            },
            {
                "start_time": 39.975,
                "end_time": 40.075,
                "pitch": 29,
                "velocity": 51,
                "duration": 0.1,
                "tempo": 120.0
            },
            {
                "start_time": 40.075,
                "end_time": 40.1909091,
                "pitch": 29,
                "velocity": 51,
                "duration": 0.1159091,
                "tempo": 120.0
            },
            {
                "start_time": 40.2931818,
                "end_time": 40.4136364,
                "pitch": 41,
                "velocity": 51,
                "duration": 0.1204545,
                "tempo": 120.0
            },
            {
                "start_time": 40.4136364,
                "end_time": 40.5159091,
                "pitch": 41,
                "velocity": 51,
                "duration": 0.1022727,
                "tempo": 120.0
            },
            {
                "start_time": 40.5159091,
                "end_time": 40.6363636,
                "pitch": 41,
                "velocity": 51,
                "duration": 0.1204545,
                "tempo": 120.0
            },
            {
                "start_time": 41.6886364,
                "end_time": 41.7863636,
                "pitch": 29,
                "velocity": 51,
                "duration": 0.0977273,
                "tempo": 120.0
            },
            {
                "start_time": 41.7863636,
                "end_time": 41.9,
                "pitch": 29,
                "velocity": 51,
                "duration": 0.1136364,
                "tempo": 120.0
            },
            {
                "start_time": 42.0022727,
                "end_time": 42.1181818,
                "pitch": 41,
                "velocity": 51,
                "duration": 0.1159091,
                "tempo": 120.0
            },
            {
                "start_time": 42.1181818,
                "end_time": 42.2181818,
                "pitch": 41,
                "velocity": 51,
                "duration": 0.1,
                "tempo": 120.0
            },
            {
                "start_time": 42.2181818,
                "end_time": 42.3204545,
                "pitch": 41,
                "velocity": 51,
                "duration": 0.1022727,
                "tempo": 120.0
            },
            {
                "start_time": 42.5295455,
                "end_time": 42.6454545,
                "pitch": 29,
                "velocity": 51,
                "duration": 0.1159091,
                "tempo": 120.0
            },
            {
                "start_time": 42.6454545,
                "end_time": 42.7409091,
                "pitch": 29,
                "velocity": 51,
                "duration": 0.0954545,
                "tempo": 120.0
            },
            {
                "start_time": 42.8590909,
                "end_time": 42.9590909,
                "pitch": 41,
                "velocity": 51,
                "duration": 0.1,
                "tempo": 120.0
            },
            {
                "start_time": 42.9613636,
                "end_time": 43.0590909,
                "pitch": 41,
                "velocity": 51,
                "duration": 0.0977273,
                "tempo": 120.0
            },
            {
                "start_time": 43.0590909,
                "end_time": 43.1772727,
                "pitch": 41,
                "velocity": 51,
                "duration": 0.1181818,
                "tempo": 120.0
            },
            {
                "start_time": 43.3931818,
                "end_time": 43.4931818,
                "pitch": 29,
                "velocity": 51,
                "duration": 0.1,
                "tempo": 120.0
            },
            {
                "start_time": 43.4931818,
                "end_time": 43.6090909,
                "pitch": 29,
                "velocity": 51,
                "duration": 0.1159091,
                "tempo": 120.0
            },
            {
                "start_time": 43.7113636,
                "end_time": 43.8090909,
                "pitch": 41,
                "velocity": 51,
                "duration": 0.0977273,
                "tempo": 120.0
            },
            {
                "start_time": 43.8090909,
                "end_time": 43.9272727,
                "pitch": 41,
                "velocity": 51,
                "duration": 0.1181818,
                "tempo": 120.0
            },
            {
                "start_time": 43.9272727,
                "end_time": 44.0295455,
                "pitch": 41,
                "velocity": 51,
                "duration": 0.1022727,
                "tempo": 120.0
            },
            {
                "start_time": 44.2386364,
                "end_time": 44.3545455,
                "pitch": 29,
                "velocity": 51,
                "duration": 0.1159091,
                "tempo": 120.0
            },
            {
                "start_time": 44.3545455,
                "end_time": 44.45,
                "pitch": 29,
                "velocity": 51,
                "duration": 0.0954545,
                "tempo": 120.0
            },
            {
                "start_time": 44.5522727,
                "end_time": 44.6681818,
                "pitch": 41,
                "velocity": 51,
                "duration": 0.1159091,
                "tempo": 120.0
            },
            {
                "start_time": 44.6681818,
                "end_time": 44.7681818,
                "pitch": 41,
                "velocity": 51,
                "duration": 0.1,
                "tempo": 120.0
            },
            {
                "start_time": 44.7681818,
                "end_time": 44.8886364,
                "pitch": 41,
                "velocity": 51,
                "duration": 0.1204545,
                "tempo": 120.0
            },
            {
                "start_time": 45.1068182,
                "end_time": 45.2090909,
                "pitch": 29,
                "velocity": 51,
                "duration": 0.1022727,
                "tempo": 120.0
            },
            {
                "start_time": 45.2090909,
                "end_time": 45.3113636,
                "pitch": 29,
                "velocity": 51,
                "duration": 0.1022727,
                "tempo": 120.0
            },
            {
                "start_time": 45.4227273,
                "end_time": 45.5181818,
                "pitch": 41,
                "velocity": 51,
                "duration": 0.0954545,
                "tempo": 120.0
            },
            {
                "start_time": 45.5181818,
                "end_time": 45.6295455,
                "pitch": 41,
                "velocity": 51,
                "duration": 0.1113636,
                "tempo": 120.0
            },
            {
                "start_time": 45.6295455,
                "end_time": 45.725,
                "pitch": 41,
                "velocity": 51,
                "duration": 0.0954545,
                "tempo": 120.0
            },
            {
                "start_time": 45.9454545,
                "end_time": 46.0477273,
                "pitch": 29,
                "velocity": 51,
                "duration": 0.1022727,
                "tempo": 120.0
            },
            {
                "start_time": 46.0477273,
                "end_time": 46.1681818,
                "pitch": 29,
                "velocity": 51,
                "duration": 0.1204545,
                "tempo": 120.0
            },
            {
                "start_time": 46.2681818,
                "end_time": 46.3840909,
                "pitch": 41,
                "velocity": 51,
                "duration": 0.1159091,
                "tempo": 120.0
            },
            {
                "start_time": 46.3840909,
                "end_time": 46.4840909,
                "pitch": 41,
                "velocity": 51,
                "duration": 0.1,
                "tempo": 120.0
            },
            {
                "start_time": 46.4840909,
                "end_time": 46.6045455,
                "pitch": 41,
                "velocity": 51,
                "duration": 0.1204545,
                "tempo": 120.0
            },
            {
                "start_time": 46.8022727,
                "end_time": 46.9181818,
                "pitch": 29,
                "velocity": 51,
                "duration": 0.1159091,
                "tempo": 120.0
            },
            {
                "start_time": 46.9181818,
                "end_time": 47.0204545,
                "pitch": 29,
                "velocity": 51,
                "duration": 0.1022727,
                "tempo": 120.0
            },
            {
                "start_time": 47.1340909,
                "end_time": 47.2318182,
                "pitch": 41,
                "velocity": 51,
                "duration": 0.0977273,
                "tempo": 120.0
            },
            {
                "start_time": 47.2318182,
                "end_time": 47.3454545,
                "pitch": 41,
                "velocity": 51,
                "duration": 0.1136364,
                "tempo": 120.0
            },
            {
                "start_time": 47.3454545,
                "end_time": 47.4454545,
                "pitch": 41,
                "velocity": 51,
                "duration": 0.1,
                "tempo": 120.0
            }
        ]
    }
}