{
    "mood": "angry",
    "instruments": {
        "French Horn": [
            {
                "start_time": 5.6977273,
                "end_time": 6.5590909,
                "pitch": 60,
                "velocity": 64,
                "duration": 0.8613636,
                "tempo": 120.0
            },
            {
                "start_time": 6.5931818,
                "end_time": 6.7386364,
                "pitch": 62,
                "velocity": 64,
                "duration": 0.1454545,
                "tempo": 120.0
            },
            {
                "start_time": 6.7727273,
                "end_time": 6.925,
                "pitch": 64,
                "velocity": 64,
                "duration": 0.1522727,
                "tempo": 120.0
            },
            {
                "start_time": 6.9613636,
                "end_time": 7.9863636,
                "pitch": 62,
                "velocity": 64,
                "duration": 1.025,
                "tempo": 120.0
            },
            {
                "start_time": 8.0181818,
                "end_time": 8.1636364,
                "pitch": 64,
                "velocity": 64,
                "duration": 0.1454545,
                "tempo": 120.0
            },
            {
                "start_time": 8.1977273,
                "end_time": 8.3522727,
                "pitch": 65,
                "velocity": 64,
                "duration": 0.1545455,
                "tempo": 120.0
            },
            {
                "start_time": 8.3681818,
                "end_time": 10.85,
                "pitch": 67,
                "velocity": 64,
                "duration": 2.4818182,
                "tempo": 120.0
            },
            {
                "start_time": 10.8818182,
                "end_time": 11.0272727,
                "pitch": 67,
                "velocity": 64,
                "duration": 0.1454545,
                "tempo": 120.0
            },
            {
                "start_time": 11.0613636,
                "end_time": 11.3863636,
                "pitch": 67,
                "velocity": 64,
                "duration": 0.325,
                "tempo": 120.0
            },
            {
                "start_time": 11.4227273,
                "end_time": 11.7454545,
                "pitch": 74,
                "velocity": 64,
                "duration": 0.3227273,
                "tempo": 120.0
            },
            {
                "start_time": 11.7795455,
                "end_time": 12.1045455,
                "pitch": 72,
                "velocity": 64,
                "duration": 0.325,
                "tempo": 120.0
            },
            {
                "start_time": 12.1386364,
                "end_time": 12.4636364,
                "pitch": 71,
                "velocity": 64,
                "duration": 0.325,
                "tempo": 120.0
            },
            {
                "start_time": 12.4818182,
                "end_time": 12.8068182,
                "pitch": 69,
                "velocity": 64,
                "duration": 0.325,
                "tempo": 120.0
            },
            {
                "start_time": 12.8386364,
                "end_time": 13.525,
                "pitch": 68,
                "velocity": 64,
                "duration": 0.6863636,
                "tempo": 120.0
            },
            {
                "start_time": 13.5568182,
                "end_time": 13.9,
                "pitch": 64,
                "velocity": 64,
                "duration": 0.3431818,
                "tempo": 120.0
            },
            {
                "start_time": 13.9181818,
                "end_time": 14.2431818,
                "pitch": 68,
                "velocity": 64,
                "duration": 0.325,
                "tempo": 120.0
            },
            {
                "start_time": 14.2772727,
                "end_time": 14.6181818,
                "pitch": 69,
                "velocity": 64,
                "duration": 0.3409091,
                "tempo": 120.0
            },
            {
                "start_time": 14.6363636,
                "end_time": 14.7818182,
                "pitch": 71,
                "velocity": 64,
                "duration": 0.1454545,
                "tempo": 120.0
            },
            {
                "start_time": 14.8159091,
                "end_time": 17.1068182,
                "pitch": 72,
                "velocity": 64,
                "duration": 2.2909091,
                "tempo": 120.0
            },
            {
                "start_time": 17.1409091,
                "end_time": 18.1772727,
                "pitch": 69,
                "velocity": 64,
                "duration": 1.0363636,
                "tempo": 120.0
            },
            {
                "start_time": 18.2113636,
                "end_time": 18.5363636,
                "pitch": 67,
                "velocity": 64,
                "duration": 0.325,
                "tempo": 120.0
            },
            {
                "start_time": 18.5704545,
                "end_time": 18.8954545,
                "pitch": 66,
                "velocity": 64,
                "duration": 0.325,
                "tempo": 120.0
            },
            {
                "start_time": 18.9295455,
                "end_time": 19.2545455,
                "pitch": 62,
                "velocity": 64,
                "duration": 0.325,
                "tempo": 120.0
            },
            {
                "start_time": 19.2886364,
                "end_time": 19.6136364,
                "pitch": 66,
                "velocity": 64,
                "duration": 0.325,
                "tempo": 120.0
            },
            {
                "start_time": 19.6477273,
                "end_time": 19.9727273,
                "pitch": 69,
                "velocity": 64,
                "duration": 0.325,
                "tempo": 120.0
            },
            {
                "start_time": 20.0068182,
                "end_time": 20.5068182,
                "pitch": 67,
                "velocity": 64,
                "duration": 0.5,
                "tempo": 120.0
            },
            {
                "start_time": 20.5409091,
                "end_time": 21.0431818,
                "pitch": 62,
                "velocity": 64,
                "duration": 0.5022727,
                "tempo": 120.0
            },
            {
                "start_time": 21.0772727,
                "end_time": 21.4022727,
                "pitch": 67,
                "velocity": 64,
                "duration": 0.325,
                "tempo": 120.0
            },
            {
                "start_time": 21.4363636,
                "end_time": 21.9409091,
                "pitch": 68,
                "velocity": 64,
                "duration": 0.5045455,
                "tempo": 120.0
            },
            {
                "start_time": 21.975,
                "end_time": 22.8409091,
                "pitch": 68,
                "velocity": 64,
                "duration": 0.8659091,
                "tempo": 120.0
            },
            {
                "start_time": 22.8590909,
                "end_time": 23.7136364,
                "pitch": 60,
                "velocity": 64,
                "duration": 0.8545455,
                "tempo": 120.0
            },
            {
                "start_time": 23.7454545,
                "end_time": 23.8909091,
                "pitch": 62,
                "velocity": 64,
                "duration": 0.1454545,
                "tempo": 120.0
            },
            {
                "start_time": 23.925,
                "end_time": 24.0795455,
                "pitch": 64,
                "velocity": 64,
                "duration": 0.1545455,
                "tempo": 120.0
            },
            {
                "start_time": 24.1136364,
                "end_time": 25.15,
                "pitch": 62,
                "velocity": 64,
                "duration": 1.0363636,
                "tempo": 120.0
            },
            {
                "start_time": 25.1818182,
                "end_time": 25.3272727,
                "pitch": 64,
                "velocity": 64,
                "duration": 0.1454545,
                "tempo": 120.0
            },
            {
                "start_time": 25.3613636,
                "end_time": 25.5159091,
                "pitch": 65,
                "velocity": 64,
                "duration": 0.1545455,
                "tempo": 120.0
            },
            {
                "start_time": 25.55,
                "end_time": 28.0136364,
                "pitch": 67,
                "velocity": 64,
                "duration": 2.4636364,
                "tempo": 120.0
            },
            {
                "start_time": 28.0454545,
                "end_time": 28.1931818,
                "pitch": 67,
                "velocity": 64,
                "duration": 0.1477273,
                "tempo": 120.0
            },
            {
                "start_time": 28.225,
                "end_time": 28.55,
                "pitch": 67,
                "velocity": 64,
                "duration": 0.325,
                "tempo": 120.0
            },
            {
                "start_time": 28.5863636,
                "end_time": 28.9113636,
                "pitch": 74,
                "velocity": 64,
                "duration": 0.325,
                "tempo": 120.0
            },
            {
                "start_time": 28.9431818,
                "end_time": 29.2681818,
                "pitch": 72,
                "velocity": 64,
                "duration": 0.325,
                "tempo": 120.0
            },
            {
                "start_time": 29.3022727,
                "end_time": 29.6295455,
                "pitch": 71,
                "velocity": 64,
                "duration": 0.3272727,
                "tempo": 120.0
            },
            {
                "start_time": 29.6613636,
                "end_time": 29.9795455,
                "pitch": 69,
                "velocity": 64,
                "duration": 0.3181818,
                "tempo": 120.0
            },
            {
                "start_time": 30.0136364,
                "end_time": 30.7,
                "pitch": 68,
                "velocity": 64,
                "duration": 0.6863636,
                "tempo": 120.0
            },
            {
                "start_time": 30.7340909,
                "end_time": 31.0590909,
                "pitch": 64,
                "velocity": 64,
                "duration": 0.325,
                "tempo": 120.0
            },
            {
                "start_time": 31.0909091,
                "end_time": 31.4159091,
                "pitch": 68,
                "velocity": 64,
                "duration": 0.325,
                "tempo": 120.0
            },
            {
                "start_time": 31.4522727,
                "end_time": 33.9204545,
                "pitch": 64,
                "velocity": 64,
                "duration": 2.4681818,
                "tempo": 120.0
            },
            {
                "start_time": 34.3068182,
                "end_time": 34.8045455,
                "pitch": 65,
                "velocity": 64,
                "duration": 0.4977273,
                "tempo": 120.0
            },
            {
                "start_time": 34.8363636,
                "end_time": 35.3568182,
                "pitch": 67,
                "velocity": 64,
                "duration": 0.5204545,
                "tempo": 120.0
            },
            {
                "start_time": 35.375,
                "end_time": 35.7,
                "pitch": 69,
                "velocity": 64,
                "duration": 0.325,
                "tempo": 120.0
            },
            {
                "start_time": 35.7340909,
                "end_time": 36.2318182,
                "pitch": 67,
                "velocity": 64,
                "duration": 0.4977273,
                "tempo": 120.0
            },
            {
                "start_time": 36.2636364,
                "end_time": 36.7863636,
                "pitch": 69,
                "velocity": 64,
                "duration": 0.5227273,
                "tempo": 120.0
            },
            {
                "start_time": 36.8045455,
                "end_time": 37.1295455,
                "pitch": 71,
                "velocity": 64,
                "duration": 0.325,
                "tempo": 120.0
            },
            {
                "start_time": 37.1613636,
                "end_time": 37.6681818,
                "pitch": 69,
                "velocity": 64,
                "duration": 0.5068182,
                "tempo": 120.0
            },
            {
                "start_time": 37.7,
                "end_time": 38.2045455,
                "pitch": 67,
                "velocity": 64,
                "duration": 0.5045455,
                "tempo": 120.0
            },
            {
                "start_time": 38.2386364,
                "end_time": 38.5636364,
                "pitch": 65,
                "velocity": 64,
                "duration": 0.325,
                "tempo": 120.0
            },
            {
                "start_time": 38.5977273,
                "end_time": 38.9159091,
                "pitch": 67,
                "velocity": 64,
                "duration": 0.3181818,
                "tempo": 120.0
            },
            {
                "start_time": 38.95,
                "end_time": 39.1,
                "pitch": 65,
                "velocity": 64,
                "duration": 0.15,
                "tempo": 120.0
            },
            {
                "start_time": 39.1340909,
                "end_time": 39.9954545,
                "pitch": 64,
                "velocity": 64,
                "duration": 0.8613636,
                "tempo": 120.0
            },
            {
                "start_time": 40.0272727,
                "end_time": 40.5340909,
                "pitch": 65,
                "velocity": 64,
                "duration": 0.5068182,
                "tempo": 120.0
            },
            {
                "start_time": 40.5659091,
                "end_time": 41.0704545,
                "pitch": 67,
                "velocity": 64,
                "duration": 0.5045455,
                "tempo": 120.0
            },
            {
                "start_time": 41.1068182,
                "end_time": 41.4318182,
                "pitch": 69,
                "velocity": 64,
                "duration": 0.325,
                "tempo": 120.0
            },
            {
                "start_time": 41.4636364,
                "end_time": 41.9613636,
                "pitch": 67,
                "velocity": 64,
                "duration": 0.4977273,
                "tempo": 120.0
            },
            {
                "start_time": 41.9954545,
                "end_time": 42.5,
                "pitch": 69,
                "velocity": 64,
                "duration": 0.5045455,
                "tempo": 120.0
            },
            {
                "start_time": 42.5340909,
                "end_time": 42.8590909,
                "pitch": 71,
                "velocity": 64,
                "duration": 0.325,
                "tempo": 120.0
            },
            {
                "start_time": 42.8909091,
                "end_time": 43.3977273,
                "pitch": 72,
                "velocity": 64,
                "duration": 0.5068182,
                "tempo": 120.0
            },
            {
                "start_time": 43.4318182,
                "end_time": 43.9181818,
                "pitch": 71,
                "velocity": 64,
                "duration": 0.4863636,
                "tempo": 120.0
            },
            {
                "start_time": 43.9522727,
                "end_time": 44.2931818,
                "pitch": 69,
                "velocity": 64,
                "duration": 0.3409091,
                "tempo": 120.0
            },
            {
                "start_time": 44.3113636,
                "end_time": 44.6363636,
                "pitch": 68,
                "velocity": 64,
                "duration": 0.325,
                "tempo": 120.0
            },
            {
                "start_time": 44.6704545,
                "end_time": 44.8227273,
                "pitch": 64,
                "velocity": 64,
                "duration": 0.1522727,
                "tempo": 120.0
            },
            {
                "start_time": 44.8568182,
                "end_time": 45.7295455,
                "pitch": 68,
                "velocity": 64,
                "duration": 0.8727273,
                "tempo": 120.0
            },
            {
                "start_time": 45.7477273,
                "end_time": 45.8954545,
                "pitch": 69,
                "velocity": 64,
                "duration": 0.1477273,
                "tempo": 120.0
            },
            {
                "start_time": 45.9272727,
                "end_time": 46.0727273,
                "pitch": 64,
                "velocity": 64,
                "duration": 0.1454545,
                "tempo": 120.0
            },
            {
                "start_time": 46.1068182,
                "end_time": 46.2568182,
                "pitch": 60,
                "velocity": 64,
                "duration": 0.15,
                "tempo": 120.0
            },
            {
                "start_time": 46.2909091,
                "end_time": 46.6045455,
                "pitch": 69,
                "velocity": 64,
                "duration": 0.3136364,
                "tempo": 120.0
            },
            {
                "start_time": 46.6363636,
                "end_time": 46.7818182,
                "pitch": 64,
                "velocity": 64,
                "duration": 0.1454545,
                "tempo": 120.0
            },
            {
                "start_time": 46.8159091,
                "end_time": 46.9704545,
                "pitch": 60,
                "velocity": 64,
                "duration": 0.1545455,
                "tempo": 120.0
            },
            {
                "start_time": 47.0045455,
                "end_time": 47.3227273,
                "pitch": 67,
                "velocity": 64,
                "duration": 0.3181818,
                "tempo": 120.0
            },
            {
                "start_time": 47.3545455,
                "end_time": 47.5,
                "pitch": 64,
                "velocity": 64,
                "duration": 0.1454545,
                "tempo": 120.0
            },
            {
                "start_time": 47.5340909,
                "end_time": 47.6863636,
                "pitch": 60,
                "velocity": 64,
                "duration": 0.1522727,
                "tempo": 120.0
            },
            {
                "start_time": 47.7227273,
                "end_time": 48.0363636,
                "pitch": 67,
                "velocity": 64,
                "duration": 0.3136364,
                "tempo": 120.0
            },
            {
                "start_time": 48.0681818,
                "end_time": 48.2090909,
                "pitch": 64,
                "velocity": 64,
                "duration": 0.1409091,
                "tempo": 120.0
            },
            {
                "start_time": 48.2409091,
                "end_time": 48.4,
                "pitch": 60,
                "velocity": 64,
                "duration": 0.1590909,
                "tempo": 120.0
            },
            {
                "start_time": 48.4181818,
                "end_time": 48.7545455,
                "pitch": 69,
                "velocity": 64,
                "duration": 0.3363636,
                "tempo": 120.0
            },
            {
                "start_time": 48.7863636,
                "end_time": 48.9272727,
                "pitch": 66,
                "velocity": 64,
                "duration": 0.1409091,
                "tempo": 120.0
            },
            {
                "start_time": 48.9590909,
                "end_time": 49.1136364,
                "pitch": 62,
                "velocity": 64,
                "duration": 0.1545455,
                "tempo": 120.0
            },
            {
                "start_time": 49.1318182,
                "end_time": 49.4659091,
                "pitch": 69,
                "velocity": 64,
                "duration": 0.3340909,
                "tempo": 120.0
            },
            {
                "start_time": 49.4977273,
                "end_time": 49.6454545,
                "pitch": 66,
                "velocity": 64,
                "duration": 0.1477273,
                "tempo": 120.0
            },
            {
                "start_time": 49.6772727,
                "end_time": 49.8318182,
                "pitch": 62,
                "velocity": 64,
                "duration": 0.1545455,
                "tempo": 120.0
            },
            {
                "start_time": 49.85,
                "end_time": 50.0022727,
                "pitch": 69,
                "velocity": 64,
                "duration": 0.1522727,
                "tempo": 120.0
            },
            {
                "start_time": 50.0386364,
                "end_time": 50.1840909,
                "pitch": 68,
                "velocity": 64,
                "duration": 0.1454545,
                "tempo": 120.0
            },
            {
                "start_time": 50.2159091,
                "end_time": 50.3636364,
                "pitch": 62,
                "velocity": 64,
                "duration": 0.1477273,
                "tempo": 120.0
            },
            {
                "start_time": 50.3954545,
                "end_time": 50.55,
                "pitch": 66,
                "velocity": 64,
                "duration": 0.1545455,
                "tempo": 120.0
            },
            {
                "start_time": 50.5681818,
                "end_time": 50.9022727,
                "pitch": 68,
                "velocity": 64,
                "duration": 0.3340909,
                "tempo": 120.0
            },
            {
                "start_time": 50.9340909,
                "end_time": 51.0818182,
                "pitch": 62,
                "velocity": 64,
                "duration": 0.1477273,
                "tempo": 120.0
            },
            {
                "start_time": 51.1136364,
                "end_time": 51.2636364,
                "pitch": 66,
                "velocity": 64,
                "duration": 0.15,
                "tempo": 120.0
            },
            {
                "start_time": 51.2818182,
                "end_time": 51.4318182,
                "pitch": 68,
                "velocity": 64,
                "duration": 0.15,
                "tempo": 120.0
            },
            {
                "start_time": 51.4659091,
                "end_time": 51.6159091,
                "pitch": 69,
                "velocity": 64,
                "duration": 0.15,
                "tempo": 120.0
            },
            {
                "start_time": 51.65,
                "end_time": 51.8,
                "pitch": 64,
                "velocity": 64,
                "duration": 0.15,
                "tempo": 120.0
            },
            {
                "start_time": 51.8340909,
                "end_time": 51.9840909,
                "pitch": 60,
                "velocity": 64,
                "duration": 0.15,
                "tempo": 120.0
            },
            {
                "start_time": 52.0022727,
                "end_time": 52.3318182,
                "pitch": 69,
                "velocity": 64,
                "duration": 0.3295455,
                "tempo": 120.0
            },
            {
                "start_time": 52.3659091,
                "end_time": 52.5113636,
                "pitch": 64,
                "velocity": 64,
                "duration": 0.1454545,
                "tempo": 120.0
            },
            {
                "start_time": 52.5431818,
                "end_time": 52.6795455,
                "pitch": 60,
                "velocity": 64,
                "duration": 0.1363636,
                "tempo": 120.0
            },
            {
                "start_time": 52.7159091,
                "end_time": 53.05,
                "pitch": 67,
                "velocity": 64,
                "duration": 0.3340909,
                "tempo": 120.0
            },
            {
                "start_time": 53.0840909,
                "end_time": 53.2295455,
                "pitch": 64,
                "velocity": 64,
                "duration": 0.1454545,
                "tempo": 120.0
            },
            {
                "start_time": 53.2454545,
                "end_time": 53.3909091,
                "pitch": 60,
                "velocity": 64,
                "duration": 0.1454545,
                "tempo": 120.0
            },
            {
                "start_time": 53.425,
                "end_time": 53.7545455,
                "pitch": 67,
                "velocity": 64,
                "duration": 0.3295455,
                "tempo": 120.0
            },
            {
                "start_time": 53.7886364,
                "end_time": 53.9386364,
                "pitch": 64,
                "velocity": 64,
                "duration": 0.15,
                "tempo": 120.0
            },
            {
                "start_time": 53.9545455,
                "end_time": 54.1068182,
                "pitch": 60,
                "velocity": 64,
                "duration": 0.1522727,
                "tempo": 120.0
            },
            {
                "start_time": 54.1409091,
                "end_time": 54.475,
                "pitch": 69,
                "velocity": 64,
                "duration": 0.3340909,
                "tempo": 120.0
            },
            {
                "start_time": 54.5090909,
                "end_time": 54.6590909,
                "pitch": 66,
                "velocity": 64,
                "duration": 0.15,
                "tempo": 120.0
            },
            {
                "start_time": 54.675,
                "end_time": 54.825,
                "pitch": 62,
                "velocity": 64,
                "duration": 0.15,
                "tempo": 120.0
            },
            {
                "start_time": 54.8590909,
                "end_time": 55.1954545,
                "pitch": 69,
                "velocity": 64,
                "duration": 0.3363636,
                "tempo": 120.0
            },
            {
                "start_time": 55.2295455,
                "end_time": 55.3795455,
                "pitch": 66,
                "velocity": 64,
                "duration": 0.15,
                "tempo": 120.0
            },
            {
                "start_time": 55.3954545,
                "end_time": 55.5409091,
                "pitch": 62,
                "velocity": 64,
                "duration": 0.1454545,
                "tempo": 120.0
            },
            {
                "start_time": 55.575,
                "end_time": 55.7204545,
                "pitch": 69,
                "velocity": 64,
                "duration": 0.1454545,
                "tempo": 120.0
            },
            {
                "start_time": 55.7545455,
                "end_time": 55.9068182,
                "pitch": 68,
                "velocity": 64,
                "duration": 0.1522727,
                "tempo": 120.0
            },
            {
                "start_time": 55.9431818,
                "end_time": 56.0954545,
                "pitch": 62,
                "velocity": 64,
                "duration": 0.1522727,
                "tempo": 120.0
            },
            {
                "start_time": 56.1136364,
                "end_time": 56.2590909,
                "pitch": 66,
                "velocity": 64,
                "duration": 0.1454545,
                "tempo": 120.0
            },
            {
                "start_time": 56.2931818,
                "end_time": 56.6227273,
                "pitch": 68,
                "velocity": 64,
                "duration": 0.3295455,
                "tempo": 120.0
            },
            {
                "start_time": 56.6568182,
                "end_time": 56.8068182,
                "pitch": 62,
                "velocity": 64,
                "duration": 0.15,
                "tempo": 120.0
            },
            {
                "start_time": 56.825,
                "end_time": 56.975,
                "pitch": 66,
                "velocity": 64,
                "duration": 0.15,
                "tempo": 120.0
            },
            {
                "start_time": 57.0090909,
                "end_time": 57.1590909,
                "pitch": 68,
                "velocity": 64,
                "duration": 0.15,
                "tempo": 120.0
            },
            {
                "start_time": 57.1931818,
                "end_time": 59.6568182,
                "pitch": 64,
                "velocity": 64,
                "duration": 2.4636364,
                "tempo": 120.0
            },
            {
                "start_time": 62.9295455,
                "end_time": 63.0113636,
                "pitch": 60,
                "velocity": 64,
                "duration": 0.0818182,
                "tempo": 120.0
            }
        ],
        "Acoustic Bass": [
            {
                "start_time": 0.0068182,
                "end_time": 0.15,
                "pitch": 33,
                "velocity": 64,
                "duration": 0.1431818,
                "tempo": 120.0
            },
            {
                "start_time": 0.1681818,
                "end_time": 0.3136364,
                "pitch": 33,
                "velocity": 64,
                "duration": 0.1454545,
                "tempo": 120.0
            },
            {
                "start_time": 0.3454545,
                "end_time": 0.4931818,
                "pitch": 33,
                "velocity": 64,
                "duration": 0.1477273,
                "tempo": 120.0
            },
            {
                "start_time": 0.525,
                "end_time": 0.6704545,
                "pitch": 33,
                "velocity": 64,
                "duration": 0.1454545,
                "tempo": 120.0
            },
            {
                "start_time": 0.7045455,
                "end_time": 0.8545455,
                "pitch": 33,
                "velocity": 64,
                "duration": 0.15,
                "tempo": 120.0
            },
            {
                "start_time": 0.8704545,
                "end_time": 1.0227273,
                "pitch": 33,
                "velocity": 64,
                "duration": 0.1522727,
                "tempo": 120.0
            },
            {
                "start_time": 1.0568182,
                "end_time": 1.2022727,
                "pitch": 33,
                "velocity": 64,
                "duration": 0.1454545,
                "tempo": 120.0
            },
            {
                "start_time": 1.2340909,
                "end_time": 1.3818182,
                "pitch": 33,
                "velocity": 64,
                "duration": 0.1477273,
                "tempo": 120.0
            },
            {
                "start_time": 1.4136364,
                "end_time": 1.55,
                "pitch": 31,
                "velocity": 64,
                "duration": 0.1363636,
                "tempo": 120.0
            },
            {
                "start_time": 1.5840909,
                "end_time": 1.7386364,
                "pitch": 31,
                "velocity": 64,
                "duration": 0.1545455,
                "tempo": 120.0
            },
            {
                "start_time": 1.775,
                "end_time": 1.9204545,
                "pitch": 31,
                "velocity": 64,
                "duration": 0.1454545,
                "tempo": 120.0
            },
            {
                "start_time": 1.9522727,
                "end_time": 2.1,
                "pitch": 31,
                "velocity": 64,
                "duration": 0.1477273,
                "tempo": 120.0
            },
            {
                "start_time": 2.1159091,
                "end_time": 2.2613636,
                "pitch": 31,
                "velocity": 64,
                "duration": 0.1454545,
                "tempo": 120.0
            },
            {
                "start_time": 2.2931818,
                "end_time": 2.4409091,
                "pitch": 31,
                "velocity": 64,
                "duration": 0.1477273,
                "tempo": 120.0
            },
            {
                "start_time": 2.4727273,
                "end_time": 2.6272727,
                "pitch": 31,
                "velocity": 64,
                "duration": 0.1545455,
                "tempo": 120.0
            },
            {
                "start_time": 2.6613636,
                "end_time": 2.8159091,
                "pitch": 31,
                "velocity": 64,
                "duration": 0.1545455,
                "tempo": 120.0
            },
            {
                "start_time": 2.8340909,
                "end_time": 2.9795455,
                "pitch": 29,
                "velocity": 64,
                "duration": 0.1454545,
                "tempo": 120.0
            },
            {
                "start_time": 3.0113636,
                "end_time": 3.1590909,
                "pitch": 29,
                "velocity": 64,
                "duration": 0.1477273,
                "tempo": 120.0
            },
            {
                "start_time": 3.1909091,
                "end_time": 3.3454545,
                "pitch": 29,
                "velocity": 64,
                "duration": 0.1545455,
                "tempo": 120.0
            },
            {
                "start_time": 3.3795455,
                "end_time": 3.5340909,
                "pitch": 29,
                "velocity": 64,
                "duration": 0.1545455,
                "tempo": 120.0
            },
            {
                "start_time": 3.55,
                "end_time": 3.6931818,
                "pitch": 29,
                "velocity": 64,
                "duration": 0.1431818,
                "tempo": 120.0
            },
            {
                "start_time": 3.725,
                "end_time": 3.8659091,
                "pitch": 29,
                "velocity": 64,
                "duration": 0.1409091,
                "tempo": 120.0
            },
            {
                "start_time": 3.8977273,
                "end_time": 4.0522727,
                "pitch": 29,
                "velocity": 64,
                "duration": 0.1545455,
                "tempo": 120.0
            },
            {
                "start_time": 4.0886364,
                "end_time": 4.2409091,
                "pitch": 29,
                "velocity": 64,
                "duration": 0.1522727,
                "tempo": 120.0
            },
            {
                "start_time": 4.2590909,
                "end_time": 4.4045455,
                "pitch": 28,
                "velocity": 64,
                "duration": 0.1454545,
                "tempo": 120.0
            },
            {
                "start_time": 4.4386364,
                "end_time": 4.5840909,
                "pitch": 28,
                "velocity": 64,
                "duration": 0.1454545,
                "tempo": 120.0
            },
            {
                "start_time": 4.6159091,
                "end_time": 4.7704545,
                "pitch": 28,
                "velocity": 64,
                "duration": 0.1545455,
                "tempo": 120.0
            },
            {
                "start_time": 4.8068182,
                "end_time": 4.9590909,
                "pitch": 28,
                "velocity": 64,
                "duration": 0.1522727,
                "tempo": 120.0
            },
            {
                "start_time": 4.9772727,
                "end_time": 5.1227273,
                "pitch": 28,
                "velocity": 64,
                "duration": 0.1454545,
                "tempo": 120.0
            },
            {
                "start_time": 5.1568182,
                "end_time": 5.3022727,
                "pitch": 28,
                "velocity": 64,
                "duration": 0.1454545,
                "tempo": 120.0
            },
            {
                "start_time": 5.3340909,
                "end_time": 5.4886364,
                "pitch": 28,
                "velocity": 64,
                "duration": 0.1545455,
                "tempo": 120.0
            },
            {
                "start_time": 5.5227273,
                "end_time": 5.6772727,
                "pitch": 28,
                "velocity": 64,
                "duration": 0.1545455,
                "tempo": 120.0
            },
            {
                "start_time": 5.6977273,
                "end_time": 5.8409091,
                "pitch": 33,
                "velocity": 64,
                "duration": 0.1431818,
                "tempo": 120.0
            },
            {
                "start_time": 5.875,
                "end_time": 6.0204545,
                "pitch": 33,
                "velocity": 64,
                "duration": 0.1454545,
                "tempo": 120.0
            },
            {
                "start_time": 6.0522727,
                "end_time": 6.2068182,
                "pitch": 33,
                "velocity": 64,
                "duration": 0.1545455,
                "tempo": 120.0
            },
            {
                "start_time": 6.2409091,
                "end_time": 6.3795455,
                "pitch": 33,
                "velocity": 64,
                "duration": 0.1386364,
                "tempo": 120.0
            },
            {
                "start_time": 6.4136364,
                "end_time": 6.4795455,
                "pitch": 33,
                "velocity": 64,
                "duration": 0.0659091,
                "tempo": 120.0
            },
            {
                "start_time": 6.5113636,
                "end_time": 6.5590909,
                "pitch": 33,
                "velocity": 64,
                "duration": 0.0477273,
                "tempo": 120.0
            },
            {
                "start_time": 6.5931818,
                "end_time": 6.7386364,
                "pitch": 33,
                "velocity": 64,
                "duration": 0.1454545,
                "tempo": 120.0
            },
            {
                "start_time": 6.7727273,
                "end_time": 6.925,
                "pitch": 33,
                "velocity": 64,
                "duration": 0.1522727,
                "tempo": 120.0
            },
            {
                "start_time": 6.9613636,
                "end_time": 7.0977273,
                "pitch": 33,
                "velocity": 64,
                "duration": 0.1363636,
                "tempo": 120.0
            },
            {
                "start_time": 7.1318182,
                "end_time": 7.2727273,
                "pitch": 31,
                "velocity": 64,
                "duration": 0.1409091,
                "tempo": 120.0
            },
            {
                "start_time": 7.3045455,
                "end_time": 7.4477273,
                "pitch": 31,
                "velocity": 64,
                "duration": 0.1431818,
                "tempo": 120.0
            },
            {
                "start_time": 7.4795455,
                "end_time": 7.6340909,
                "pitch": 31,
                "velocity": 64,
                "duration": 0.1545455,
                "tempo": 120.0
            },
            {
                "start_time": 7.65,
                "end_time": 7.8045455,
                "pitch": 31,
                "velocity": 64,
                "duration": 0.1545455,
                "tempo": 120.0
            },
            {
                "start_time": 7.8386364,
                "end_time": 7.9045455,
                "pitch": 31,
                "velocity": 64,
                "duration": 0.0659091,
                "tempo": 120.0
            },
            {
                "start_time": 7.9363636,
                "end_time": 7.9863636,
                "pitch": 31,
                "velocity": 64,
                "duration": 0.05,
                "tempo": 120.0
            },
            {
                "start_time": 8.0181818,
                "end_time": 8.1636364,
                "pitch": 31,
                "velocity": 64,
                "duration": 0.1454545,
                "tempo": 120.0
            },
            {
                "start_time": 8.1977273,
                "end_time": 8.3522727,
                "pitch": 31,
                "velocity": 64,
                "duration": 0.1545455,
                "tempo": 120.0
            },
            {
                "start_time": 8.3704545,
                "end_time": 8.5227273,
                "pitch": 31,
                "velocity": 64,
                "duration": 0.1522727,
                "tempo": 120.0
            },
            {
                "start_time": 8.5568182,
                "end_time": 8.7045455,
                "pitch": 36,
                "velocity": 64,
                "duration": 0.1477273,
                "tempo": 120.0
            },
            {
                "start_time": 8.7363636,
                "end_time": 8.8818182,
                "pitch": 36,
                "velocity": 64,
                "duration": 0.1454545,
                "tempo": 120.0
            },
            {
                "start_time": 8.9159091,
                "end_time": 9.0681818,
                "pitch": 36,
                "velocity": 64,
                "duration": 0.1522727,
                "tempo": 120.0
            },
            {
                "start_time": 9.0863636,
                "end_time": 9.2409091,
                "pitch": 36,
                "velocity": 64,
                "duration": 0.1545455,
                "tempo": 120.0
            },
            {
                "start_time": 9.275,
                "end_time": 9.4227273,
                "pitch": 36,
                "velocity": 64,
                "duration": 0.1477273,
                "tempo": 120.0
            },
            {
                "start_time": 9.4545455,
                "end_time": 9.6,
                "pitch": 36,
                "velocity": 64,
                "duration": 0.1454545,
                "tempo": 120.0
            },
            {
                "start_time": 9.6340909,
                "end_time": 9.7863636,
                "pitch": 36,
                "velocity": 64,
                "duration": 0.1522727,
                "tempo": 120.0
            },
            {
                "start_time": 9.8045455,
                "end_time": 9.8727273,
                "pitch": 31,
                "velocity": 64,
                "duration": 0.0681818,
                "tempo": 120.0
            },
            {
                "start_time": 9.9068182,
                "end_time": 9.9590909,
                "pitch": 33,
                "velocity": 64,
                "duration": 0.0522727,
                "tempo": 120.0
            },
            {
                "start_time": 9.9931818,
                "end_time": 10.1409091,
                "pitch": 36,
                "velocity": 64,
                "duration": 0.1477273,
                "tempo": 120.0
            },
            {
                "start_time": 10.1727273,
                "end_time": 10.3181818,
                "pitch": 36,
                "velocity": 64,
                "duration": 0.1454545,
                "tempo": 120.0
            },
            {
                "start_time": 10.3522727,
                "end_time": 10.5022727,
                "pitch": 36,
                "velocity": 64,
                "duration": 0.15,
                "tempo": 120.0
            },
            {
                "start_time": 10.5181818,
                "end_time": 10.6704545,
                "pitch": 36,
                "velocity": 64,
                "duration": 0.1522727,
                "tempo": 120.0
            },
            {
                "start_time": 10.7022727,
                "end_time": 10.7681818,
                "pitch": 36,
                "velocity": 64,
                "duration": 0.0659091,
                "tempo": 120.0
            },
            {
                "start_time": 10.7840909,
                "end_time": 10.85,
                "pitch": 36,
                "velocity": 64,
                "duration": 0.0659091,
                "tempo": 120.0
            },
            {
                "start_time": 10.8840909,
                "end_time": 11.0295455,
                "pitch": 31,
                "velocity": 64,
                "duration": 0.1454545,
                "tempo": 120.0
            },
            {
                "start_time": 11.0613636,
                "end_time": 11.2159091,
                "pitch": 33,
                "velocity": 64,
                "duration": 0.1545455,
                "tempo": 120.0
            },
            {
                "start_time": 11.2318182,
                "end_time": 11.3863636,
                "pitch": 36,
                "velocity": 64,
                "duration": 0.1545455,
                "tempo": 120.0
            },
            {
                "start_time": 11.4227273,
                "end_time": 11.5681818,
                "pitch": 35,
                "velocity": 64,
                "duration": 0.1454545,
                "tempo": 120.0
            },
            {
                "start_time": 11.6,
                "end_time": 11.7477273,
                "pitch": 35,
                "velocity": 64,
                "duration": 0.1477273,
                "tempo": 120.0
            },
            {
                "start_time": 11.7795455,
                "end_time": 11.9159091,
                "pitch": 35,
                "velocity": 64,
                "duration": 0.1363636,
                "tempo": 120.0
            },
            {
                "start_time": 11.95,
                "end_time": 12.1045455,
                "pitch": 35,
                "velocity": 64,
                "duration": 0.1545455,
                "tempo": 120.0
            },
            {
                "start_time": 12.1409091,
                "end_time": 12.2045455,
                "pitch": 35,
                "velocity": 64,
                "duration": 0.0636364,
                "tempo": 120.0
            },
            {
                "start_time": 12.2204545,
                "end_time": 12.2863636,
                "pitch": 35,
                "velocity": 64,
                "duration": 0.0659091,
                "tempo": 120.0
            },
            {
                "start_time": 12.3181818,
                "end_time": 12.4659091,
                "pitch": 35,
                "velocity": 64,
                "duration": 0.1477273,
                "tempo": 120.0
            },
            {
                "start_time": 12.4818182,
                "end_time": 12.6272727,
                "pitch": 35,
                "velocity": 64,
                "duration": 0.1454545,
                "tempo": 120.0
            },
            {
                "start_time": 12.6613636,
                "end_time": 12.8068182,
                "pitch": 35,
                "velocity": 64,
                "duration": 0.1454545,
                "tempo": 120.0
            },
            {
                "start_time": 12.8386364,
                "end_time": 12.9931818,
                "pitch": 40,
                "velocity": 64,
                "duration": 0.1545455,
                "tempo": 120.0
            },
            {
                "start_time": 13.0272727,
                "end_time": 13.1818182,
                "pitch": 40,
                "velocity": 64,
                "duration": 0.1545455,
                "tempo": 120.0
            },
            {
                "start_time": 13.2,
                "end_time": 13.3454545,
                "pitch": 40,
                "velocity": 64,
                "duration": 0.1454545,
                "tempo": 120.0
            },
            {
                "start_time": 13.3772727,
                "end_time": 13.4431818,
                "pitch": 35,
                "velocity": 64,
                "duration": 0.0659091,
                "tempo": 120.0
            },
            {
                "start_time": 13.475,
                "end_time": 13.525,
                "pitch": 38,
                "velocity": 64,
                "duration": 0.05,
                "tempo": 120.0
            },
            {
                "start_time": 13.5568182,
                "end_time": 13.7113636,
                "pitch": 40,
                "velocity": 64,
                "duration": 0.1545455,
                "tempo": 120.0
            },
            {
                "start_time": 13.7454545,
                "end_time": 13.9,
                "pitch": 35,
                "velocity": 64,
                "duration": 0.1545455,
                "tempo": 120.0
            },
            {
                "start_time": 13.9181818,
                "end_time": 13.9818182,
                "pitch": 38,
                "velocity": 64,
                "duration": 0.0636364,
                "tempo": 120.0
            },
            {
                "start_time": 14.0159091,
                "end_time": 14.0636364,
                "pitch": 40,
                "velocity": 64,
                "duration": 0.0477273,
                "tempo": 120.0
            },
            {
                "start_time": 14.0954545,
                "end_time": 14.2431818,
                "pitch": 35,
                "velocity": 64,
                "duration": 0.1477273,
                "tempo": 120.0
            },
            {
                "start_time": 14.2772727,
                "end_time": 14.4295455,
                "pitch": 33,
                "velocity": 64,
                "duration": 0.1522727,
                "tempo": 120.0
            },
            {
                "start_time": 14.4636364,
                "end_time": 14.6181818,
                "pitch": 33,
                "velocity": 64,
                "duration": 0.1545455,
                "tempo": 120.0
            },
            {
                "start_time": 14.6363636,
                "end_time": 14.7818182,
                "pitch": 33,
                "velocity": 64,
                "duration": 0.1454545,
                "tempo": 120.0
            },
            {
                "start_time": 14.8159091,
                "end_time": 14.9613636,
                "pitch": 33,
                "velocity": 64,
                "duration": 0.1454545,
                "tempo": 120.0
            },
            {
                "start_time": 14.9931818,
                "end_time": 15.1431818,
                "pitch": 33,
                "velocity": 64,
                "duration": 0.15,
                "tempo": 120.0
            },
            {
                "start_time": 15.1772727,
                "end_time": 15.3272727,
                "pitch": 33,
                "velocity": 64,
                "duration": 0.15,
                "tempo": 120.0
            },
            {
                "start_time": 15.3454545,
                "end_time": 15.4909091,
                "pitch": 33,
                "velocity": 64,
                "duration": 0.1454545,
                "tempo": 120.0
            },
            {
                "start_time": 15.525,
                "end_time": 15.6704545,
                "pitch": 33,
                "velocity": 64,
                "duration": 0.1454545,
                "tempo": 120.0
            },
            {
                "start_time": 15.7022727,
                "end_time": 15.8568182,
                "pitch": 31,
                "velocity": 64,
                "duration": 0.1545455,
                "tempo": 120.0
            },
            {
                "start_time": 15.8909091,
                "end_time": 16.0454545,
                "pitch": 31,
                "velocity": 64,
                "duration": 0.1545455,
                "tempo": 120.0
            },
            {
                "start_time": 16.0636364,
                "end_time": 16.2090909,
                "pitch": 31,
                "velocity": 64,
                "duration": 0.1454545,
                "tempo": 120.0
            },
            {
                "start_time": 16.2431818,
                "end_time": 16.3068182,
                "pitch": 31,
                "velocity": 64,
                "duration": 0.0636364,
                "tempo": 120.0
            },
            {
                "start_time": 16.3227273,
                "end_time": 16.3886364,
                "pitch": 31,
                "velocity": 64,
                "duration": 0.0659091,
                "tempo": 120.0
            },
            {
                "start_time": 16.4204545,
                "end_time": 16.5727273,
                "pitch": 31,
                "velocity": 64,
                "duration": 0.1522727,
                "tempo": 120.0
            },
            {
                "start_time": 16.6045455,
                "end_time": 16.7386364,
                "pitch": 31,
                "velocity": 64,
                "duration": 0.1340909,
                "tempo": 120.0
            },
            {
                "start_time": 16.7727273,
                "end_time": 16.8386364,
                "pitch": 31,
                "velocity": 64,
                "duration": 0.0659091,
                "tempo": 120.0
            },
            {
                "start_time": 16.8727273,
                "end_time": 16.9227273,
                "pitch": 43,
                "velocity": 64,
                "duration": 0.05,
                "tempo": 120.0
            },
            {
                "start_time": 16.9568182,
                "end_time": 17.1090909,
                "pitch": 31,
                "velocity": 64,
                "duration": 0.1522727,
                "tempo": 120.0
            },
            {
                "start_time": 17.1431818,
                "end_time": 17.2909091,
                "pitch": 30,
                "velocity": 64,
                "duration": 0.1477273,
                "tempo": 120.0
            },
            {
                "start_time": 17.325,
                "end_time": 17.4590909,
                "pitch": 30,
                "velocity": 64,
                "duration": 0.1340909,
                "tempo": 120.0
            },
            {
                "start_time": 17.4931818,
                "end_time": 17.6386364,
                "pitch": 30,
                "velocity": 64,
                "duration": 0.1454545,
                "tempo": 120.0
            },
            {
                "start_time": 17.6727273,
                "end_time": 17.8181818,
                "pitch": 30,
                "velocity": 64,
                "duration": 0.1454545,
                "tempo": 120.0
            },
            {
                "start_time": 17.85,
                "end_time": 17.9022727,
                "pitch": 30,
                "velocity": 64,
                "duration": 0.0522727,
                "tempo": 120.0
            },
            {
                "start_time": 17.9363636,
                "end_time": 18.0045455,
                "pitch": 30,
                "velocity": 64,
                "duration": 0.0681818,
                "tempo": 120.0
            },
            {
                "start_time": 18.0227273,
                "end_time": 18.1772727,
                "pitch": 30,
                "velocity": 64,
                "duration": 0.1545455,
                "tempo": 120.0
            },
            {
                "start_time": 18.2113636,
                "end_time": 18.3568182,
                "pitch": 30,
                "velocity": 64,
                "duration": 0.1454545,
                "tempo": 120.0
            },
            {
                "start_time": 18.3909091,
                "end_time": 18.5363636,
                "pitch": 30,
                "velocity": 64,
                "duration": 0.1454545,
                "tempo": 120.0
            },
            {
                "start_time": 18.5704545,
                "end_time": 18.7227273,
                "pitch": 38,
                "velocity": 64,
                "duration": 0.1522727,
                "tempo": 120.0
            },
            {
                "start_time": 18.7409091,
                "end_time": 18.8954545,
                "pitch": 38,
                "velocity": 64,
                "duration": 0.1545455,
                "tempo": 120.0
            },
            {
                "start_time": 18.9295455,
                "end_time": 19.075,
                "pitch": 38,
                "velocity": 64,
                "duration": 0.1454545,
                "tempo": 120.0
            },
            {
                "start_time": 19.1090909,
                "end_time": 19.2545455,
                "pitch": 38,
                "velocity": 64,
                "duration": 0.1454545,
                "tempo": 120.0
            },
            {
                "start_time": 19.2886364,
                "end_time": 19.3386364,
                "pitch": 38,
                "velocity": 64,
                "duration": 0.05,
                "tempo": 120.0
            },
            {
                "start_time": 19.3727273,
                "end_time": 19.4409091,
                "pitch": 38,
                "velocity": 64,
                "duration": 0.0681818,
                "tempo": 120.0
            },
            {
                "start_time": 19.4590909,
                "end_time": 19.6136364,
                "pitch": 26,
                "velocity": 64,
                "duration": 0.1545455,
                "tempo": 120.0
            },
            {
                "start_time": 19.6477273,
                "end_time": 19.7931818,
                "pitch": 28,
                "velocity": 64,
                "duration": 0.1454545,
                "tempo": 120.0
            },
            {
                "start_time": 19.8272727,
                "end_time": 19.9727273,
                "pitch": 30,
                "velocity": 64,
                "duration": 0.1454545,
                "tempo": 120.0
            },
            {
                "start_time": 20.0068182,
                "end_time": 20.1568182,
                "pitch": 31,
                "velocity": 64,
                "duration": 0.15,
                "tempo": 120.0
            },
            {
                "start_time": 20.1727273,
                "end_time": 20.3227273,
                "pitch": 31,
                "velocity": 64,
                "duration": 0.15,
                "tempo": 120.0
            },
            {
                "start_time": 20.3568182,
                "end_time": 20.5090909,
                "pitch": 31,
                "velocity": 64,
                "duration": 0.1522727,
                "tempo": 120.0
            },
            {
                "start_time": 20.5431818,
                "end_time": 20.6909091,
                "pitch": 31,
                "velocity": 64,
                "duration": 0.1477273,
                "tempo": 120.0
            },
            {
                "start_time": 20.725,
                "end_time": 20.775,
                "pitch": 31,
                "velocity": 64,
                "duration": 0.05,
                "tempo": 120.0
            },
            {
                "start_time": 20.8090909,
                "end_time": 20.8772727,
                "pitch": 31,
                "velocity": 64,
                "duration": 0.0681818,
                "tempo": 120.0
            },
            {
                "start_time": 20.8931818,
                "end_time": 21.0431818,
                "pitch": 31,
                "velocity": 64,
                "duration": 0.15,
                "tempo": 120.0
            },
            {
                "start_time": 21.0772727,
                "end_time": 21.2227273,
                "pitch": 31,
                "velocity": 64,
                "duration": 0.1454545,
                "tempo": 120.0
            },
            {
                "start_time": 21.2568182,
                "end_time": 21.4022727,
                "pitch": 31,
                "velocity": 64,
                "duration": 0.1454545,
                "tempo": 120.0
            },
            {
                "start_time": 21.4363636,
                "end_time": 21.5886364,
                "pitch": 32,
                "velocity": 64,
                "duration": 0.1522727,
                "tempo": 120.0
            },
            {
                "start_time": 21.6068182,
                "end_time": 21.7613636,
                "pitch": 32,
                "velocity": 64,
                "duration": 0.1545455,
                "tempo": 120.0
            },
            {
                "start_time": 21.7954545,
                "end_time": 21.9431818,
                "pitch": 32,
                "velocity": 64,
                "duration": 0.1477273,
                "tempo": 120.0
            },
            {
                "start_time": 21.975,
                "end_time": 22.2863636,
                "pitch": 28,
                "velocity": 64,
                "duration": 0.3113636,
                "tempo": 120.0
            },
            {
                "start_time": 22.3204545,
                "end_time": 22.4727273,
                "pitch": 28,
                "velocity": 64,
                "duration": 0.1522727,
                "tempo": 120.0
            },
            {
                "start_time": 22.5045455,
                "end_time": 22.6568182,
                "pitch": 28,
                "velocity": 64,
                "duration": 0.1522727,
                "tempo": 120.0
            },
            {
                "start_time": 22.6886364,
                "end_time": 22.8409091,
                "pitch": 28,
                "velocity": 64,
                "duration": 0.1522727,
                "tempo": 120.0
            },
            {
                "start_time": 22.8590909,
                "end_time": 23.0045455,
                "pitch": 33,
                "velocity": 64,
                "duration": 0.1454545,
                "tempo": 120.0
            },
            {
                "start_time": 23.0363636,
                "end_time": 23.1818182,
                "pitch": 33,
                "velocity": 64,
                "duration": 0.1454545,
                "tempo": 120.0
            },
            {
                "start_time": 23.2159091,
                "end_time": 23.3659091,
                "pitch": 33,
                "velocity": 64,
                "duration": 0.15,
                "tempo": 120.0
            },
            {
                "start_time": 23.4,
                "end_time": 23.55,
                "pitch": 33,
                "velocity": 64,
                "duration": 0.15,
                "tempo": 120.0
            },
            {
                "start_time": 23.5659091,
                "end_time": 23.6318182,
                "pitch": 33,
                "velocity": 64,
                "duration": 0.0659091,
                "tempo": 120.0
            },
            {
                "start_time": 23.6636364,
                "end_time": 23.7136364,
                "pitch": 33,
                "velocity": 64,
                "duration": 0.05,
                "tempo": 120.0
            },
            {
                "start_time": 23.7454545,
                "end_time": 23.8931818,
                "pitch": 33,
                "velocity": 64,
                "duration": 0.1477273,
                "tempo": 120.0
            },
            {
                "start_time": 23.925,
                "end_time": 24.0795455,
                "pitch": 33,
                "velocity": 64,
                "duration": 0.1545455,
                "tempo": 120.0
            },
            {
                "start_time": 24.1136364,
                "end_time": 24.2681818,
                "pitch": 33,
                "velocity": 64,
                "duration": 0.1545455,
                "tempo": 120.0
            },
            {
                "start_time": 24.2840909,
                "end_time": 24.4318182,
                "pitch": 31,
                "velocity": 64,
                "duration": 0.1477273,
                "tempo": 120.0
            },
            {
                "start_time": 24.4636364,
                "end_time": 24.6090909,
                "pitch": 31,
                "velocity": 64,
                "duration": 0.1454545,
                "tempo": 120.0
            },
            {
                "start_time": 24.6431818,
                "end_time": 24.7977273,
                "pitch": 31,
                "velocity": 64,
                "duration": 0.1545455,
                "tempo": 120.0
            },
            {
                "start_time": 24.8318182,
                "end_time": 24.9863636,
                "pitch": 31,
                "velocity": 64,
                "duration": 0.1545455,
                "tempo": 120.0
            },
            {
                "start_time": 25.0022727,
                "end_time": 25.0681818,
                "pitch": 31,
                "velocity": 64,
                "duration": 0.0659091,
                "tempo": 120.0
            },
            {
                "start_time": 25.1,
                "end_time": 25.15,
                "pitch": 31,
                "velocity": 64,
                "duration": 0.05,
                "tempo": 120.0
            },
            {
                "start_time": 25.1818182,
                "end_time": 25.3295455,
                "pitch": 31,
                "velocity": 64,
                "duration": 0.1477273,
                "tempo": 120.0
            },
            {
                "start_time": 25.3613636,
                "end_time": 25.5159091,
                "pitch": 31,
                "velocity": 64,
                "duration": 0.1545455,
                "tempo": 120.0
            },
            {
                "start_time": 25.55,
                "end_time": 25.7045455,
                "pitch": 31,
                "velocity": 64,
                "duration": 0.1545455,
                "tempo": 120.0
            },
            {
                "start_time": 25.7204545,
                "end_time": 25.8681818,
                "pitch": 36,
                "velocity": 64,
                "duration": 0.1477273,
                "tempo": 120.0
            },
            {
                "start_time": 25.9,
                "end_time": 26.0454545,
                "pitch": 36,
                "velocity": 64,
                "duration": 0.1454545,
                "tempo": 120.0
            },
            {
                "start_time": 26.0795455,
                "end_time": 26.2295455,
                "pitch": 36,
                "velocity": 64,
                "duration": 0.15,
                "tempo": 120.0
            },
            {
                "start_time": 26.2636364,
                "end_time": 26.4136364,
                "pitch": 36,
                "velocity": 64,
                "duration": 0.15,
                "tempo": 120.0
            },
            {
                "start_time": 26.4318182,
                "end_time": 26.5772727,
                "pitch": 36,
                "velocity": 64,
                "duration": 0.1454545,
                "tempo": 120.0
            },
            {
                "start_time": 26.6090909,
                "end_time": 26.7568182,
                "pitch": 36,
                "velocity": 64,
                "duration": 0.1477273,
                "tempo": 120.0
            },
            {
                "start_time": 26.7886364,
                "end_time": 26.9431818,
                "pitch": 36,
                "velocity": 64,
                "duration": 0.1545455,
                "tempo": 120.0
            },
            {
                "start_time": 26.9772727,
                "end_time": 27.0295455,
                "pitch": 31,
                "velocity": 64,
                "duration": 0.0522727,
                "tempo": 120.0
            },
            {
                "start_time": 27.0636364,
                "end_time": 27.1136364,
                "pitch": 33,
                "velocity": 64,
                "duration": 0.05,
                "tempo": 120.0
            },
            {
                "start_time": 27.15,
                "end_time": 27.2954545,
                "pitch": 36,
                "velocity": 64,
                "duration": 0.1454545,
                "tempo": 120.0
            },
            {
                "start_time": 27.3272727,
                "end_time": 27.475,
                "pitch": 36,
                "velocity": 64,
                "duration": 0.1477273,
                "tempo": 120.0
            },
            {
                "start_time": 27.5068182,
                "end_time": 27.6613636,
                "pitch": 36,
                "velocity": 64,
                "duration": 0.1545455,
                "tempo": 120.0
            },
            {
                "start_time": 27.6772727,
                "end_time": 27.8318182,
                "pitch": 36,
                "velocity": 64,
                "duration": 0.1545455,
                "tempo": 120.0
            },
            {
                "start_time": 27.8659091,
                "end_time": 27.9318182,
                "pitch": 36,
                "velocity": 64,
                "duration": 0.0659091,
                "tempo": 120.0
            },
            {
                "start_time": 27.9659091,
                "end_time": 28.0136364,
                "pitch": 36,
                "velocity": 64,
                "duration": 0.0477273,
                "tempo": 120.0
            },
            {
                "start_time": 28.0477273,
                "end_time": 28.1931818,
                "pitch": 31,
                "velocity": 64,
                "duration": 0.1454545,
                "tempo": 120.0
            },
            {
                "start_time": 28.225,
                "end_time": 28.3795455,
                "pitch": 33,
                "velocity": 64,
                "duration": 0.1545455,
                "tempo": 120.0
            },
            {
                "start_time": 28.3954545,
                "end_time": 28.55,
                "pitch": 36,
                "velocity": 64,
                "duration": 0.1545455,
                "tempo": 120.0
            },
            {
                "start_time": 28.5863636,
                "end_time": 28.7318182,
                "pitch": 35,
                "velocity": 64,
                "duration": 0.1454545,
                "tempo": 120.0
            },
            {
                "start_time": 28.7636364,
                "end_time": 28.9113636,
                "pitch": 35,
                "velocity": 64,
                "duration": 0.1477273,
                "tempo": 120.0
            },
            {
                "start_time": 28.9431818,
                "end_time": 29.0977273,
                "pitch": 35,
                "velocity": 64,
                "duration": 0.1545455,
                "tempo": 120.0
            },
            {
                "start_time": 29.1136364,
                "end_time": 29.2681818,
                "pitch": 35,
                "velocity": 64,
                "duration": 0.1545455,
                "tempo": 120.0
            },
            {
                "start_time": 29.3045455,
                "end_time": 29.3681818,
                "pitch": 35,
                "velocity": 64,
                "duration": 0.0636364,
                "tempo": 120.0
            },
            {
                "start_time": 29.4022727,
                "end_time": 29.45,
                "pitch": 35,
                "velocity": 64,
                "duration": 0.0477273,
                "tempo": 120.0
            },
            {
                "start_time": 29.4818182,
                "end_time": 29.6295455,
                "pitch": 35,
                "velocity": 64,
                "duration": 0.1477273,
                "tempo": 120.0
            },
            {
                "start_time": 29.6613636,
                "end_time": 29.8113636,
                "pitch": 35,
                "velocity": 64,
                "duration": 0.15,
                "tempo": 120.0
            },
            {
                "start_time": 29.8295455,
                "end_time": 29.9795455,
                "pitch": 35,
                "velocity": 64,
                "duration": 0.15,
                "tempo": 120.0
            },
            {
                "start_time": 30.0136364,
                "end_time": 30.1636364,
                "pitch": 40,
                "velocity": 64,
                "duration": 0.15,
                "tempo": 120.0
            },
            {
                "start_time": 30.1977273,
                "end_time": 30.3477273,
                "pitch": 40,
                "velocity": 64,
                "duration": 0.15,
                "tempo": 120.0
            },
            {
                "start_time": 30.3818182,
                "end_time": 30.5318182,
                "pitch": 40,
                "velocity": 64,
                "duration": 0.15,
                "tempo": 120.0
            },
            {
                "start_time": 30.55,
                "end_time": 30.6159091,
                "pitch": 35,
                "velocity": 64,
                "duration": 0.0659091,
                "tempo": 120.0
            },
            {
                "start_time": 30.65,
                "end_time": 30.7,
                "pitch": 38,
                "velocity": 64,
                "duration": 0.05,
                "tempo": 120.0
            },
            {
                "start_time": 30.7340909,
                "end_time": 30.8795455,
                "pitch": 40,
                "velocity": 64,
                "duration": 0.1454545,
                "tempo": 120.0
            },
            {
                "start_time": 30.9113636,
                "end_time": 31.0590909,
                "pitch": 35,
                "velocity": 64,
                "duration": 0.1477273,
                "tempo": 120.0
            },
            {
                "start_time": 31.0931818,
                "end_time": 31.1431818,
                "pitch": 38,
                "velocity": 64,
                "duration": 0.05,
                "tempo": 120.0
            },
            {
                "start_time": 31.1772727,
                "end_time": 31.2454545,
                "pitch": 40,
                "velocity": 64,
                "duration": 0.0681818,
                "tempo": 120.0
            },
            {
                "start_time": 31.2636364,
                "end_time": 31.4181818,
                "pitch": 35,
                "velocity": 64,
                "duration": 0.1545455,
                "tempo": 120.0
            },
            {
                "start_time": 31.4522727,
                "end_time": 31.5977273,
                "pitch": 33,
                "velocity": 64,
                "duration": 0.1454545,
                "tempo": 120.0
            },
            {
                "start_time": 31.6295455,
                "end_time": 31.7772727,
                "pitch": 33,
                "velocity": 64,
                "duration": 0.1477273,
                "tempo": 120.0
            },
            {
                "start_time": 31.8090909,
                "end_time": 31.9454545,
                "pitch": 33,
                "velocity": 64,
                "duration": 0.1363636,
                "tempo": 120.0
            },
            {
                "start_time": 31.9795455,
                "end_time": 32.1340909,
                "pitch": 33,
                "velocity": 64,
                "duration": 0.1545455,
                "tempo": 120.0
            },
            {
                "start_time": 32.1681818,
                "end_time": 32.3113636,
                "pitch": 33,
                "velocity": 64,
                "duration": 0.1431818,
                "tempo": 120.0
            },
            {
                "start_time": 32.3431818,
                "end_time": 32.4840909,
                "pitch": 33,
                "velocity": 64,
                "duration": 0.1409091,
                "tempo": 120.0
            },
            {
                "start_time": 32.5159091,
                "end_time": 32.6545455,
                "pitch": 33,
                "velocity": 64,
                "duration": 0.1386364,
                "tempo": 120.0
            },
            {
                "start_time": 32.6886364,
                "end_time": 32.7568182,
                "pitch": 28,
                "velocity": 64,
                "duration": 0.0681818,
                "tempo": 120.0
            },
            {
                "start_time": 32.7909091,
                "end_time": 32.8431818,
                "pitch": 31,
                "velocity": 64,
                "duration": 0.0522727,
                "tempo": 120.0
            },
            {
                "start_time": 32.8772727,
                "end_time": 33.0227273,
                "pitch": 33,
                "velocity": 64,
                "duration": 0.1454545,
                "tempo": 120.0
            },
            {
                "start_time": 33.0568182,
                "end_time": 33.2022727,
                "pitch": 33,
                "velocity": 64,
                "duration": 0.1454545,
                "tempo": 120.0
            },
            {
                "start_time": 33.2181818,
                "end_time": 33.3659091,
                "pitch": 33,
                "velocity": 64,
                "duration": 0.1477273,
                "tempo": 120.0
            },
            {
                "start_time": 33.3977273,
                "end_time": 33.5431818,
                "pitch": 33,
                "velocity": 64,
                "duration": 0.1454545,
                "tempo": 120.0
            },
            {
                "start_time": 33.5772727,
                "end_time": 33.7295455,
                "pitch": 33,
                "velocity": 64,
                "duration": 0.1522727,
                "tempo": 120.0
            },
            {
                "start_time": 33.7659091,
                "end_time": 33.8159091,
                "pitch": 43,
                "velocity": 64,
                "duration": 0.05,
                "tempo": 120.0
            },
            {
                "start_time": 33.85,
                "end_time": 33.9204545,
                "pitch": 45,
                "velocity": 64,
                "duration": 0.0704545,
                "tempo": 120.0
            },
            {
                "start_time": 33.9363636,
                "end_time": 34.0886364,
                "pitch": 31,
                "velocity": 64,
                "duration": 0.1522727,
                "tempo": 120.0
            },
            {
                "start_time": 34.1204545,
                "end_time": 34.2727273,
                "pitch": 43,
                "velocity": 64,
                "duration": 0.1522727,
                "tempo": 120.0
            },
            {
                "start_time": 34.3068182,
                "end_time": 34.6409091,
                "pitch": 29,
                "velocity": 64,
                "duration": 0.3340909,
                "tempo": 120.0
            },
            {
                "start_time": 34.8363636,
                "end_time": 35.7,
                "pitch": 29,
                "velocity": 64,
                "duration": 0.8636364,
                "tempo": 120.0
            },
            {
                "start_time": 35.7340909,
                "end_time": 36.0681818,
                "pitch": 29,
                "velocity": 64,
                "duration": 0.3340909,
                "tempo": 120.0
            },
            {
                "start_time": 36.2659091,
                "end_time": 37.1295455,
                "pitch": 29,
                "velocity": 64,
                "duration": 0.8636364,
                "tempo": 120.0
            },
            {
                "start_time": 37.1613636,
                "end_time": 37.4863636,
                "pitch": 29,
                "velocity": 64,
                "duration": 0.325,
                "tempo": 120.0
            },
            {
                "start_time": 37.7022727,
                "end_time": 38.5659091,
                "pitch": 29,
                "velocity": 64,
                "duration": 0.8636364,
                "tempo": 120.0
            },
            {
                "start_time": 38.5977273,
                "end_time": 38.9159091,
                "pitch": 29,
                "velocity": 64,
                "duration": 0.3181818,
                "tempo": 120.0
            },
            {
                "start_time": 39.1340909,
                "end_time": 39.6363636,
                "pitch": 29,
                "velocity": 64,
                "duration": 0.5022727,
                "tempo": 120.0
            },
            {
                "start_time": 39.6704545,
                "end_time": 39.9954545,
                "pitch": 28,
                "velocity": 64,
                "duration": 0.325,
                "tempo": 120.0
            },
            {
                "start_time": 40.0272727,
                "end_time": 40.3522727,
                "pitch": 26,
                "velocity": 64,
                "duration": 0.325,
                "tempo": 120.0
            },
            {
                "start_time": 40.5681818,
                "end_time": 41.4318182,
                "pitch": 26,
                "velocity": 64,
                "duration": 0.8636364,
                "tempo": 120.0
            },
            {
                "start_time": 41.4636364,
                "end_time": 41.7818182,
                "pitch": 26,
                "velocity": 64,
                "duration": 0.3181818,
                "tempo": 120.0
            },
            {
                "start_time": 41.9954545,
                "end_time": 42.8590909,
                "pitch": 26,
                "velocity": 64,
                "duration": 0.8636364,
                "tempo": 120.0
            },
            {
                "start_time": 42.8931818,
                "end_time": 43.2159091,
                "pitch": 26,
                "velocity": 64,
                "duration": 0.3227273,
                "tempo": 120.0
            },
            {
                "start_time": 43.4318182,
                "end_time": 44.2931818,
                "pitch": 26,
                "velocity": 64,
                "duration": 0.8613636,
                "tempo": 120.0
            },
            {
                "start_time": 44.3113636,
                "end_time": 44.6363636,
                "pitch": 28,
                "velocity": 64,
                "duration": 0.325,
                "tempo": 120.0
            },
            {
                "start_time": 44.8590909,
                "end_time": 45.7295455,
                "pitch": 28,
                "velocity": 64,
                "duration": 0.8704545,
                "tempo": 120.0
            },
            {
                "start_time": 45.75,
                "end_time": 45.8954545,
                "pitch": 33,
                "velocity": 64,
                "duration": 0.1454545,
                "tempo": 120.0
            },
            {
                "start_time": 45.9272727,
                "end_time": 46.0727273,
                "pitch": 33,
                "velocity": 64,
                "duration": 0.1454545,
                "tempo": 120.0
            },
            {
                "start_time": 46.1068182,
                "end_time": 46.2568182,
                "pitch": 33,
                "velocity": 64,
                "duration": 0.15,
                "tempo": 120.0
            },
            {
                "start_time": 46.2909091,
                "end_time": 46.4409091,
                "pitch": 33,
                "velocity": 64,
                "duration": 0.15,
                "tempo": 120.0
            },
            {
                "start_time": 46.4568182,
                "end_time": 46.6045455,
                "pitch": 33,
                "velocity": 64,
                "duration": 0.1477273,
                "tempo": 120.0
            },
            {
                "start_time": 46.6363636,
                "end_time": 46.7840909,
                "pitch": 33,
                "velocity": 64,
                "duration": 0.1477273,
                "tempo": 120.0
            },
            {
                "start_time": 46.8159091,
                "end_time": 46.9704545,
                "pitch": 33,
                "velocity": 64,
                "duration": 0.1545455,
                "tempo": 120.0
            },
            {
                "start_time": 47.0045455,
                "end_time": 47.1590909,
                "pitch": 33,
                "velocity": 64,
                "duration": 0.1545455,
                "tempo": 120.0
            },
            {
                "start_time": 47.175,
                "end_time": 47.3227273,
                "pitch": 36,
                "velocity": 64,
                "duration": 0.1477273,
                "tempo": 120.0
            },
            {
                "start_time": 47.3545455,
                "end_time": 47.5022727,
                "pitch": 36,
                "velocity": 64,
                "duration": 0.1477273,
                "tempo": 120.0
            },
            {
                "start_time": 47.5340909,
                "end_time": 47.6886364,
                "pitch": 36,
                "velocity": 64,
                "duration": 0.1545455,
                "tempo": 120.0
            },
            {
                "start_time": 47.7227273,
                "end_time": 47.8590909,
                "pitch": 36,
                "velocity": 64,
                "duration": 0.1363636,
                "tempo": 120.0
            },
            {
                "start_time": 47.8931818,
                "end_time": 48.0363636,
                "pitch": 36,
                "velocity": 64,
                "duration": 0.1431818,
                "tempo": 120.0
            },
            {
                "start_time": 48.0681818,
                "end_time": 48.2090909,
                "pitch": 36,
                "velocity": 64,
                "duration": 0.1409091,
                "tempo": 120.0
            },
            {
                "start_time": 48.2409091,
                "end_time": 48.4,
                "pitch": 36,
                "velocity": 64,
                "duration": 0.1590909,
                "tempo": 120.0
            },
            {
                "start_time": 48.4181818,
                "end_time": 48.575,
                "pitch": 36,
                "velocity": 64,
                "duration": 0.1568182,
                "tempo": 120.0
            },
            {
                "start_time": 48.6113636,
                "end_time": 48.7545455,
                "pitch": 38,
                "velocity": 64,
                "duration": 0.1431818,
                "tempo": 120.0
            },
            {
                "start_time": 48.7863636,
                "end_time": 48.9272727,
                "pitch": 38,
                "velocity": 64,
                "duration": 0.1409091,
                "tempo": 120.0
            },
            {
                "start_time": 48.9590909,
                "end_time": 49.1136364,
                "pitch": 38,
                "velocity": 64,
                "duration": 0.1545455,
                "tempo": 120.0
            },
            {
                "start_time": 49.1318182,
                "end_time": 49.2840909,
                "pitch": 38,
                "velocity": 64,
                "duration": 0.1522727,
                "tempo": 120.0
            },
            {
                "start_time": 49.3204545,
                "end_time": 49.4659091,
                "pitch": 38,
                "velocity": 64,
                "duration": 0.1454545,
                "tempo": 120.0
            },
            {
                "start_time": 49.5,
                "end_time": 49.6454545,
                "pitch": 38,
                "velocity": 64,
                "duration": 0.1454545,
                "tempo": 120.0
            },
            {
                "start_time": 49.6772727,
                "end_time": 49.8318182,
                "pitch": 38,
                "velocity": 64,
                "duration": 0.1545455,
                "tempo": 120.0
            },
            {
                "start_time": 49.85,
                "end_time": 50.0022727,
                "pitch": 38,
                "velocity": 64,
                "duration": 0.1522727,
                "tempo": 120.0
            },
            {
                "start_time": 50.0386364,
                "end_time": 50.1840909,
                "pitch": 40,
                "velocity": 64,
                "duration": 0.1454545,
                "tempo": 120.0
            },
            {
                "start_time": 50.2181818,
                "end_time": 50.3636364,
                "pitch": 40,
                "velocity": 64,
                "duration": 0.1454545,
                "tempo": 120.0
            },
            {
                "start_time": 50.3954545,
                "end_time": 50.55,
                "pitch": 40,
                "velocity": 64,
                "duration": 0.1545455,
                "tempo": 120.0
            },
            {
                "start_time": 50.5681818,
                "end_time": 50.7204545,
                "pitch": 40,
                "velocity": 64,
                "duration": 0.1522727,
                "tempo": 120.0
            },
            {
                "start_time": 50.7545455,
                "end_time": 50.9022727,
                "pitch": 40,
                "velocity": 64,
                "duration": 0.1477273,
                "tempo": 120.0
            },
            {
                "start_time": 50.9363636,
                "end_time": 51.0818182,
                "pitch": 40,
                "velocity": 64,
                "duration": 0.1454545,
                "tempo": 120.0
            },
            {
                "start_time": 51.1136364,
                "end_time": 51.2636364,
                "pitch": 40,
                "velocity": 64,
                "duration": 0.15,
                "tempo": 120.0
            },
            {
                "start_time": 51.2818182,
                "end_time": 51.4318182,
                "pitch": 40,
                "velocity": 64,
                "duration": 0.15,
                "tempo": 120.0
            },
            {
                "start_time": 51.4681818,
                "end_time": 51.6159091,
                "pitch": 33,
                "velocity": 64,
                "duration": 0.1477273,
                "tempo": 120.0
            },
            {
                "start_time": 51.65,
                "end_time": 51.8,
                "pitch": 33,
                "velocity": 64,
                "duration": 0.15,
                "tempo": 120.0
            },
            {
                "start_time": 51.8340909,
                "end_time": 51.9840909,
                "pitch": 33,
                "velocity": 64,
                "duration": 0.15,
                "tempo": 120.0
            },
            {
                "start_time": 52.0022727,
                "end_time": 52.1522727,
                "pitch": 33,
                "velocity": 64,
                "duration": 0.15,
                "tempo": 120.0
            },
            {
                "start_time": 52.1863636,
                "end_time": 52.3318182,
                "pitch": 33,
                "velocity": 64,
                "duration": 0.1454545,
                "tempo": 120.0
            },
            {
                "start_time": 52.3659091,
                "end_time": 52.5113636,
                "pitch": 33,
                "velocity": 64,
                "duration": 0.1454545,
                "tempo": 120.0
            },
            {
                "start_time": 52.5454545,
                "end_time": 52.6818182,
                "pitch": 33,
                "velocity": 64,
                "duration": 0.1363636,
                "tempo": 120.0
            },
            {
                "start_time": 52.7159091,
                "end_time": 52.8681818,
                "pitch": 33,
                "velocity": 64,
                "duration": 0.1522727,
                "tempo": 120.0
            },
            {
                "start_time": 52.9045455,
                "end_time": 53.05,
                "pitch": 36,
                "velocity": 64,
                "duration": 0.1454545,
                "tempo": 120.0
            },
            {
                "start_time": 53.0840909,
                "end_time": 53.2295455,
                "pitch": 36,
                "velocity": 64,
                "duration": 0.1454545,
                "tempo": 120.0
            },
            {
                "start_time": 53.2454545,
                "end_time": 53.3909091,
                "pitch": 36,
                "velocity": 64,
                "duration": 0.1454545,
                "tempo": 120.0
            },
            {
                "start_time": 53.425,
                "end_time": 53.5704545,
                "pitch": 36,
                "velocity": 64,
                "duration": 0.1454545,
                "tempo": 120.0
            },
            {
                "start_time": 53.6022727,
                "end_time": 53.7545455,
                "pitch": 36,
                "velocity": 64,
                "duration": 0.1522727,
                "tempo": 120.0
            },
            {
                "start_time": 53.7886364,
                "end_time": 53.9386364,
                "pitch": 36,
                "velocity": 64,
                "duration": 0.15,
                "tempo": 120.0
            },
            {
                "start_time": 53.9568182,
                "end_time": 54.1068182,
                "pitch": 36,
                "velocity": 64,
                "duration": 0.15,
                "tempo": 120.0
            },
            {
                "start_time": 54.1409091,
                "end_time": 54.2909091,
                "pitch": 36,
                "velocity": 64,
                "duration": 0.15,
                "tempo": 120.0
            },
            {
                "start_time": 54.3227273,
                "end_time": 54.475,
                "pitch": 38,
                "velocity": 64,
                "duration": 0.1522727,
                "tempo": 120.0
            },
            {
                "start_time": 54.5090909,
                "end_time": 54.6590909,
                "pitch": 38,
                "velocity": 64,
                "duration": 0.15,
                "tempo": 120.0
            },
            {
                "start_time": 54.6772727,
                "end_time": 54.8272727,
                "pitch": 38,
                "velocity": 64,
                "duration": 0.15,
                "tempo": 120.0
            },
            {
                "start_time": 54.8613636,
                "end_time": 55.0113636,
                "pitch": 38,
                "velocity": 64,
                "duration": 0.15,
                "tempo": 120.0
            },
            {
                "start_time": 55.0431818,
                "end_time": 55.1954545,
                "pitch": 38,
                "velocity": 64,
                "duration": 0.1522727,
                "tempo": 120.0
            },
            {
                "start_time": 55.2295455,
                "end_time": 55.3795455,
                "pitch": 38,
                "velocity": 64,
                "duration": 0.15,
                "tempo": 120.0
            },
            {
                "start_time": 55.3977273,
                "end_time": 55.5431818,
                "pitch": 38,
                "velocity": 64,
                "duration": 0.1454545,
                "tempo": 120.0
            },
            {
                "start_time": 55.575,
                "end_time": 55.7204545,
                "pitch": 38,
                "velocity": 64,
                "duration": 0.1454545,
                "tempo": 120.0
            },
            {
                "start_time": 55.7545455,
                "end_time": 55.9068182,
                "pitch": 40,
                "velocity": 64,
                "duration": 0.1522727,
                "tempo": 120.0
            },
            {
                "start_time": 55.9431818,
                "end_time": 56.0977273,
                "pitch": 40,
                "velocity": 64,
                "duration": 0.1545455,
                "tempo": 120.0
            },
            {
                "start_time": 56.1136364,
                "end_time": 56.2613636,
                "pitch": 40,
                "velocity": 64,
                "duration": 0.1477273,
                "tempo": 120.0
            },
            {
                "start_time": 56.2931818,
                "end_time": 56.4386364,
                "pitch": 40,
                "velocity": 64,
                "duration": 0.1454545,
                "tempo": 120.0
            },
            {
                "start_time": 56.4727273,
                "end_time": 56.6227273,
                "pitch": 40,
                "velocity": 64,
                "duration": 0.15,
                "tempo": 120.0
            },
            {
                "start_time": 56.6568182,
                "end_time": 56.8068182,
                "pitch": 40,
                "velocity": 64,
                "duration": 0.15,
                "tempo": 120.0
            },
            {
                "start_time": 56.825,
                "end_time": 56.975,
                "pitch": 40,
                "velocity": 64,
                "duration": 0.15,
                "tempo": 120.0
            },
            {
                "start_time": 57.0090909,
                "end_time": 57.1590909,
                "pitch": 40,
                "velocity": 64,
                "duration": 0.15,
                "tempo": 120.0
            },
            {
                "start_time": 57.1954545,
                "end_time": 57.3454545,
                "pitch": 33,
                "velocity": 64,
                "duration": 0.15,
                "tempo": 120.0
            },
            {
                "start_time": 57.3795455,
                "end_time": 57.5181818,
                "pitch": 33,
                "velocity": 64,
                "duration": 0.1386364,
                "tempo": 120.0
            },
            {
                "start_time": 57.5522727,
                "end_time": 57.7,
                "pitch": 33,
                "velocity": 64,
                "duration": 0.1477273,
                "tempo": 120.0
            },
            {
                "start_time": 57.7318182,
                "end_time": 57.8772727,
                "pitch": 33,
                "velocity": 64,
                "duration": 0.1454545,
                "tempo": 120.0
            },
            {
                "start_time": 57.9113636,
                "end_time": 58.0613636,
                "pitch": 33,
                "velocity": 64,
                "duration": 0.15,
                "tempo": 120.0
            },
            {
                "start_time": 58.0954545,
                "end_time": 58.2295455,
                "pitch": 33,
                "velocity": 64,
                "duration": 0.1340909,
                "tempo": 120.0
            },
            {
                "start_time": 58.2613636,
                "end_time": 58.4090909,
                "pitch": 33,
                "velocity": 64,
                "duration": 0.1477273,
                "tempo": 120.0
            },
            {
                "start_time": 58.4409091,
                "end_time": 58.5863636,
                "pitch": 33,
                "velocity": 64,
                "duration": 0.1454545,
                "tempo": 120.0
            },
            {
                "start_time": 58.6204545,
                "end_time": 58.775,
                "pitch": 31,
                "velocity": 64,
                "duration": 0.1545455,
                "tempo": 120.0
            },
            {
                "start_time": 58.7909091,
                "end_time": 58.9454545,
                "pitch": 31,
                "velocity": 64,
                "duration": 0.1545455,
                "tempo": 120.0
            },
            {
                "start_time": 58.9795455,
                "end_time": 59.1272727,
                "pitch": 31,
                "velocity": 64,
                "duration": 0.1477273,
                "tempo": 120.0
            },
            {
                "start_time": 59.1590909,
                "end_time": 59.3045455,
                "pitch": 31,
                "velocity": 64,
                "duration": 0.1454545,
                "tempo": 120.0
            },
            {
                "start_time": 59.3386364,
                "end_time": 59.4886364,
                "pitch": 31,
                "velocity": 64,
                "duration": 0.15,
                "tempo": 120.0
            },
            {
                "start_time": 59.5068182,
                "end_time": 59.6568182,
                "pitch": 31,
                "velocity": 64,
                "duration": 0.15,
                "tempo": 120.0
            },
            {
                "start_time": 59.6909091,
                "end_time": 59.8409091,
                "pitch": 31,
                "velocity": 64,
                "duration": 0.15,
                "tempo": 120.0
            },
            {
                "start_time": 59.875,
                "end_time": 60.025,
                "pitch": 31,
                "velocity": 64,
                "duration": 0.15,
                "tempo": 120.0
            },
            {
                "start_time": 60.0590909,
                "end_time": 60.2090909,
                "pitch": 29,
                "velocity": 64,
                "duration": 0.15,
                "tempo": 120.0
            },
            {
                "start_time": 60.225,
                "end_time": 60.3772727,
                "pitch": 29,
                "velocity": 64,
                "duration": 0.1522727,
                "tempo": 120.0
            },
            {
                "start_time": 60.4113636,
                "end_time": 60.5568182,
                "pitch": 29,
                "velocity": 64,
                "duration": 0.1454545,
                "tempo": 120.0
            },
            {
                "start_time": 60.5886364,
                "end_time": 60.7363636,
                "pitch": 29,
                "velocity": 64,
                "duration": 0.1477273,
                "tempo": 120.0
            },
            {
                "start_time": 60.7681818,
                "end_time": 60.9227273,
                "pitch": 29,
                "velocity": 64,
                "duration": 0.1545455,
                "tempo": 120.0
            },
            {
                "start_time": 60.9386364,
                "end_time": 61.0931818,
                "pitch": 29,
                "velocity": 64,
                "duration": 0.1545455,
                "tempo": 120.0
            },
            {
                "start_time": 61.1295455,
                "end_time": 61.275,
                "pitch": 29,
                "velocity": 64,
                "duration": 0.1454545,
                "tempo": 120.0
            },
            {
                "start_time": 61.3068182,
                "end_time": 61.4545455,
                "pitch": 29,
                "velocity": 64,
                "duration": 0.1477273,
                "tempo": 120.0
            },
            {
                "start_time": 61.4863636,
                "end_time": 61.6363636,
                "pitch": 28,
                "velocity": 64,
                "duration": 0.15,
                "tempo": 120.0
            },
            {
                "start_time": 61.6545455,
                "end_time": 61.8045455,
                "pitch": 28,
                "velocity": 64,
                "duration": 0.15,
                "tempo": 120.0
            },
            {
                "start_time": 61.8386364,
                "end_time": 61.9886364,
                "pitch": 28,
                "velocity": 64,
                "duration": 0.15,
                "tempo": 120.0
            },
            {
                "start_time": 62.0227273,
                "end_time": 62.1727273,
                "pitch": 28,
                "velocity": 64,
                "duration": 0.15,
                "tempo": 120.0
            },
            {
                "start_time": 62.2068182,
                "end_time": 62.3568182,
                "pitch": 28,
                "velocity": 64,
                "duration": 0.15,
                "tempo": 120.0
            },
            {
                "start_time": 62.375,
                "end_time": 62.525,
                "pitch": 28,
                "velocity": 64,
                "duration": 0.15,
                "tempo": 120.0
            },
            {
                "start_time": 62.5590909,
                "end_time": 62.7090909,
                "pitch": 28,
                "velocity": 64,
                "duration": 0.15,
                "tempo": 120.0
            },
            {
                "start_time": 62.7431818,
                "end_time": 62.8931818,
                "pitch": 28,
                "velocity": 64,
                "duration": 0.15,
                "tempo": 120.0
            },
            {
                "start_time": 62.9295455,
                "end_time": 63.0113636,
                "pitch": 33,
                "velocity": 64,
                "duration": 0.0818182,
                "tempo": 120.0
            }
        ],
        "Violin": [
            {
                "start_time": 5.7,
                "end_time": 5.7931818,
                "pitch": 81,
                "velocity": 64,
                "duration": 0.0931818,
                "tempo": 120.0
            },
            {
                "start_time": 5.875,
                "end_time": 5.9545455,
                "pitch": 72,
                "velocity": 64,
                "duration": 0.0795455,
                "tempo": 120.0
            },
            {
                "start_time": 6.0545455,
                "end_time": 6.1386364,
                "pitch": 76,
                "velocity": 64,
                "duration": 0.0840909,
                "tempo": 120.0
            },
            {
                "start_time": 6.2431818,
                "end_time": 6.3272727,
                "pitch": 81,
                "velocity": 64,
                "duration": 0.0840909,
                "tempo": 120.0
            },
            {
                "start_time": 6.4136364,
                "end_time": 6.5113636,
                "pitch": 76,
                "velocity": 64,
                "duration": 0.0977273,
                "tempo": 120.0
            },
            {
                "start_time": 6.5931818,
                "end_time": 6.6727273,
                "pitch": 72,
                "velocity": 64,
                "duration": 0.0795455,
                "tempo": 120.0
            },
            {
                "start_time": 6.7727273,
                "end_time": 6.8568182,
                "pitch": 81,
                "velocity": 64,
                "duration": 0.0840909,
                "tempo": 120.0
            },
            {
                "start_time": 6.9613636,
                "end_time": 7.0454545,
                "pitch": 72,
                "velocity": 64,
                "duration": 0.0840909,
                "tempo": 120.0
            },
            {
                "start_time": 7.1318182,
                "end_time": 7.225,
                "pitch": 79,
                "velocity": 64,
                "duration": 0.0931818,
                "tempo": 120.0
            },
            {
                "start_time": 7.3045455,
                "end_time": 7.3840909,
                "pitch": 71,
                "velocity": 64,
                "duration": 0.0795455,
                "tempo": 120.0
            },
            {
                "start_time": 7.4795455,
                "end_time": 7.5636364,
                "pitch": 74,
                "velocity": 64,
                "duration": 0.0840909,
                "tempo": 120.0
            },
            {
                "start_time": 7.65,
                "end_time": 7.7522727,
                "pitch": 79,
                "velocity": 64,
                "duration": 0.1022727,
                "tempo": 120.0
            },
            {
                "start_time": 7.8386364,
                "end_time": 7.9363636,
                "pitch": 74,
                "velocity": 64,
                "duration": 0.0977273,
                "tempo": 120.0
            },
            {
                "start_time": 8.0204545,
                "end_time": 8.1,
                "pitch": 71,
                "velocity": 64,
                "duration": 0.0795455,
                "tempo": 120.0
            },
            {
                "start_time": 8.1977273,
                "end_time": 8.2818182,
                "pitch": 79,
                "velocity": 64,
                "duration": 0.0840909,
                "tempo": 120.0
            },
            {
                "start_time": 8.3704545,
                "end_time": 8.4704545,
                "pitch": 71,
                "velocity": 64,
                "duration": 0.1,
                "tempo": 120.0
            },
            {
                "start_time": 8.5590909,
                "end_time": 8.6545455,
                "pitch": 79,
                "velocity": 64,
                "duration": 0.0954545,
                "tempo": 120.0
            },
            {
                "start_time": 8.7363636,
                "end_time": 8.8181818,
                "pitch": 67,
                "velocity": 64,
                "duration": 0.0818182,
                "tempo": 120.0
            },
            {
                "start_time": 8.9159091,
                "end_time": 9.0,
                "pitch": 72,
                "velocity": 64,
                "duration": 0.0840909,
                "tempo": 120.0
            },
            {
                "start_time": 9.0863636,
                "end_time": 9.1886364,
                "pitch": 79,
                "velocity": 64,
                "duration": 0.1022727,
                "tempo": 120.0
            },
            {
                "start_time": 9.275,
                "end_time": 9.3727273,
                "pitch": 76,
                "velocity": 64,
                "duration": 0.0977273,
                "tempo": 120.0
            },
            {
                "start_time": 9.4545455,
                "end_time": 9.5363636,
                "pitch": 67,
                "velocity": 64,
                "duration": 0.0818182,
                "tempo": 120.0
            },
            {
                "start_time": 9.6340909,
                "end_time": 9.7181818,
                "pitch": 79,
                "velocity": 64,
                "duration": 0.0840909,
                "tempo": 120.0
            },
            {
                "start_time": 9.8045455,
                "end_time": 9.9068182,
                "pitch": 67,
                "velocity": 64,
                "duration": 0.1022727,
                "tempo": 120.0
            },
            {
                "start_time": 9.9931818,
                "end_time": 10.075,
                "pitch": 79,
                "velocity": 64,
                "duration": 0.0818182,
                "tempo": 120.0
            },
            {
                "start_time": 10.1727273,
                "end_time": 10.2545455,
                "pitch": 67,
                "velocity": 64,
                "duration": 0.0818182,
                "tempo": 120.0
            },
            {
                "start_time": 10.3522727,
                "end_time": 10.4340909,
                "pitch": 72,
                "velocity": 64,
                "duration": 0.0818182,
                "tempo": 120.0
            },
            {
                "start_time": 10.5204545,
                "end_time": 10.6204545,
                "pitch": 79,
                "velocity": 64,
                "duration": 0.1,
                "tempo": 120.0
            },
            {
                "start_time": 10.7045455,
                "end_time": 10.7840909,
                "pitch": 76,
                "velocity": 64,
                "duration": 0.0795455,
                "tempo": 120.0
            },
            {
                "start_time": 10.8840909,
                "end_time": 10.9636364,
                "pitch": 67,
                "velocity": 64,
                "duration": 0.0795455,
                "tempo": 120.0
            },
            {
                "start_time": 11.0613636,
                "end_time": 11.1477273,
                "pitch": 79,
                "velocity": 64,
                "duration": 0.0863636,
                "tempo": 120.0
            },
            {
                "start_time": 11.2340909,
                "end_time": 11.3363636,
                "pitch": 67,
                "velocity": 64,
                "duration": 0.1022727,
                "tempo": 120.0
            },
            {
                "start_time": 11.4227273,
                "end_time": 11.5022727,
                "pitch": 77,
                "velocity": 64,
                "duration": 0.0795455,
                "tempo": 120.0
            },
            {
                "start_time": 11.6,
                "end_time": 11.6818182,
                "pitch": 71,
                "velocity": 64,
                "duration": 0.0818182,
                "tempo": 120.0
            },
            {
                "start_time": 11.7795455,
                "end_time": 11.8636364,
                "pitch": 74,
                "velocity": 64,
                "duration": 0.0840909,
                "tempo": 120.0
            },
            {
                "start_time": 11.95,
                "end_time": 12.0545455,
                "pitch": 81,
                "velocity": 64,
                "duration": 0.1045455,
                "tempo": 120.0
            },
            {
                "start_time": 12.1409091,
                "end_time": 12.2204545,
                "pitch": 77,
                "velocity": 64,
                "duration": 0.0795455,
                "tempo": 120.0
            },
            {
                "start_time": 12.3181818,
                "end_time": 12.4,
                "pitch": 71,
                "velocity": 64,
                "duration": 0.0818182,
                "tempo": 120.0
            },
            {
                "start_time": 12.4818182,
                "end_time": 12.5795455,
                "pitch": 74,
                "velocity": 64,
                "duration": 0.0977273,
                "tempo": 120.0
            },
            {
                "start_time": 12.6613636,
                "end_time": 12.7568182,
                "pitch": 71,
                "velocity": 64,
                "duration": 0.0954545,
                "tempo": 120.0
            },
            {
                "start_time": 12.8409091,
                "end_time": 12.925,
                "pitch": 76,
                "velocity": 64,
                "duration": 0.0840909,
                "tempo": 120.0
            },
            {
                "start_time": 13.0272727,
                "end_time": 13.1136364,
                "pitch": 68,
                "velocity": 64,
                "duration": 0.0863636,
                "tempo": 120.0
            },
            {
                "start_time": 13.2,
                "end_time": 13.2977273,
                "pitch": 71,
                "velocity": 64,
                "duration": 0.0977273,
                "tempo": 120.0
            },
            {
                "start_time": 13.3795455,
                "end_time": 13.475,
                "pitch": 76,
                "velocity": 64,
                "duration": 0.0954545,
                "tempo": 120.0
            },
            {
                "start_time": 13.5590909,
                "end_time": 13.6431818,
                "pitch": 71,
                "velocity": 64,
                "duration": 0.0840909,
                "tempo": 120.0
            },
            {
                "start_time": 13.7454545,
                "end_time": 13.8318182,
                "pitch": 68,
                "velocity": 64,
                "duration": 0.0863636,
                "tempo": 120.0
            },
            {
                "start_time": 13.9181818,
                "end_time": 14.0159091,
                "pitch": 76,
                "velocity": 64,
                "duration": 0.0977273,
                "tempo": 120.0
            },
            {
                "start_time": 14.0977273,
                "end_time": 14.1931818,
                "pitch": 68,
                "velocity": 64,
                "duration": 0.0954545,
                "tempo": 120.0
            },
            {
                "start_time": 14.2772727,
                "end_time": 14.3613636,
                "pitch": 81,
                "velocity": 64,
                "duration": 0.0840909,
                "tempo": 120.0
            },
            {
                "start_time": 14.4636364,
                "end_time": 14.55,
                "pitch": 72,
                "velocity": 64,
                "duration": 0.0863636,
                "tempo": 120.0
            },
            {
                "start_time": 14.6363636,
                "end_time": 14.7340909,
                "pitch": 76,
                "velocity": 64,
                "duration": 0.0977273,
                "tempo": 120.0
            },
            {
                "start_time": 14.8159091,
                "end_time": 14.8954545,
                "pitch": 81,
                "velocity": 64,
                "duration": 0.0795455,
                "tempo": 120.0
            },
            {
                "start_time": 14.9931818,
                "end_time": 15.0772727,
                "pitch": 76,
                "velocity": 64,
                "duration": 0.0840909,
                "tempo": 120.0
            },
            {
                "start_time": 15.1772727,
                "end_time": 15.2613636,
                "pitch": 72,
                "velocity": 64,
                "duration": 0.0840909,
                "tempo": 120.0
            },
            {
                "start_time": 15.3454545,
                "end_time": 15.4431818,
                "pitch": 81,
                "velocity": 64,
                "duration": 0.0977273,
                "tempo": 120.0
            },
            {
                "start_time": 15.525,
                "end_time": 15.6045455,
                "pitch": 76,
                "velocity": 64,
                "duration": 0.0795455,
                "tempo": 120.0
            },
            {
                "start_time": 15.7022727,
                "end_time": 15.7886364,
                "pitch": 81,
                "velocity": 64,
                "duration": 0.0863636,
                "tempo": 120.0
            },
            {
                "start_time": 15.8909091,
                "end_time": 15.9772727,
                "pitch": 72,
                "velocity": 64,
                "duration": 0.0863636,
                "tempo": 120.0
            },
            {
                "start_time": 16.0636364,
                "end_time": 16.1613636,
                "pitch": 76,
                "velocity": 64,
                "duration": 0.0977273,
                "tempo": 120.0
            },
            {
                "start_time": 16.2431818,
                "end_time": 16.3227273,
                "pitch": 81,
                "velocity": 64,
                "duration": 0.0795455,
                "tempo": 120.0
            },
            {
                "start_time": 16.4227273,
                "end_time": 16.5045455,
                "pitch": 76,
                "velocity": 64,
                "duration": 0.0818182,
                "tempo": 120.0
            },
            {
                "start_time": 16.6068182,
                "end_time": 16.6886364,
                "pitch": 72,
                "velocity": 64,
                "duration": 0.0818182,
                "tempo": 120.0
            },
            {
                "start_time": 16.7727273,
                "end_time": 16.8727273,
                "pitch": 81,
                "velocity": 64,
                "duration": 0.1,
                "tempo": 120.0
            },
            {
                "start_time": 16.9568182,
                "end_time": 17.0409091,
                "pitch": 76,
                "velocity": 64,
                "duration": 0.0840909,
                "tempo": 120.0
            },
            {
                "start_time": 17.1431818,
                "end_time": 17.225,
                "pitch": 81,
                "velocity": 64,
                "duration": 0.0818182,
                "tempo": 120.0
            },
            {
                "start_time": 17.3272727,
                "end_time": 17.4090909,
                "pitch": 69,
                "velocity": 64,
                "duration": 0.0818182,
                "tempo": 120.0
            },
            {
                "start_time": 17.4931818,
                "end_time": 17.5909091,
                "pitch": 74,
                "velocity": 64,
                "duration": 0.0977273,
                "tempo": 120.0
            },
            {
                "start_time": 17.6727273,
                "end_time": 17.7522727,
                "pitch": 81,
                "velocity": 64,
                "duration": 0.0795455,
                "tempo": 120.0
            },
            {
                "start_time": 17.8522727,
                "end_time": 17.9363636,
                "pitch": 78,
                "velocity": 64,
                "duration": 0.0840909,
                "tempo": 120.0
            },
            {
                "start_time": 18.0227273,
                "end_time": 18.125,
                "pitch": 69,
                "velocity": 64,
                "duration": 0.1022727,
                "tempo": 120.0
            },
            {
                "start_time": 18.2136364,
                "end_time": 18.3090909,
                "pitch": 81,
                "velocity": 64,
                "duration": 0.0954545,
                "tempo": 120.0
            },
            {
                "start_time": 18.3909091,
                "end_time": 18.4704545,
                "pitch": 69,
                "velocity": 64,
                "duration": 0.0795455,
                "tempo": 120.0
            },
            {
                "start_time": 18.5704545,
                "end_time": 18.6545455,
                "pitch": 78,
                "velocity": 64,
                "duration": 0.0840909,
                "tempo": 120.0
            },
            {
                "start_time": 18.7409091,
                "end_time": 18.8431818,
                "pitch": 69,
                "velocity": 64,
                "duration": 0.1022727,
                "tempo": 120.0
            },
            {
                "start_time": 18.9318182,
                "end_time": 19.0272727,
                "pitch": 74,
                "velocity": 64,
                "duration": 0.0954545,
                "tempo": 120.0
            },
            {
                "start_time": 19.1090909,
                "end_time": 19.1886364,
                "pitch": 81,
                "velocity": 64,
                "duration": 0.0795455,
                "tempo": 120.0
            },
            {
                "start_time": 19.2886364,
                "end_time": 19.3727273,
                "pitch": 78,
                "velocity": 64,
                "duration": 0.0840909,
                "tempo": 120.0
            },
            {
                "start_time": 19.4590909,
                "end_time": 19.5613636,
                "pitch": 69,
                "velocity": 64,
                "duration": 0.1022727,
                "tempo": 120.0
            },
            {
                "start_time": 19.6477273,
                "end_time": 19.7454545,
                "pitch": 74,
                "velocity": 64,
                "duration": 0.0977273,
                "tempo": 120.0
            },
            {
                "start_time": 19.8272727,
                "end_time": 19.9068182,
                "pitch": 69,
                "velocity": 64,
                "duration": 0.0795455,
                "tempo": 120.0
            },
            {
                "start_time": 20.0068182,
                "end_time": 20.0886364,
                "pitch": 79,
                "velocity": 64,
                "duration": 0.0818182,
                "tempo": 120.0
            },
            {
                "start_time": 20.175,
                "end_time": 20.2727273,
                "pitch": 74,
                "velocity": 64,
                "duration": 0.0977273,
                "tempo": 120.0
            },
            {
                "start_time": 20.3590909,
                "end_time": 20.4409091,
                "pitch": 71,
                "velocity": 64,
                "duration": 0.0818182,
                "tempo": 120.0
            },
            {
                "start_time": 20.5431818,
                "end_time": 20.625,
                "pitch": 79,
                "velocity": 64,
                "duration": 0.0818182,
                "tempo": 120.0
            },
            {
                "start_time": 20.7272727,
                "end_time": 20.8090909,
                "pitch": 74,
                "velocity": 64,
                "duration": 0.0818182,
                "tempo": 120.0
            },
            {
                "start_time": 20.8931818,
                "end_time": 20.9931818,
                "pitch": 79,
                "velocity": 64,
                "duration": 0.1,
                "tempo": 120.0
            },
            {
                "start_time": 21.0795455,
                "end_time": 21.1590909,
                "pitch": 74,
                "velocity": 64,
                "duration": 0.0795455,
                "tempo": 120.0
            },
            {
                "start_time": 21.2568182,
                "end_time": 21.3386364,
                "pitch": 71,
                "velocity": 64,
                "duration": 0.0818182,
                "tempo": 120.0
            },
            {
                "start_time": 21.4363636,
                "end_time": 21.5204545,
                "pitch": 80,
                "velocity": 64,
                "duration": 0.0840909,
                "tempo": 120.0
            },
            {
                "start_time": 21.6068182,
                "end_time": 21.7090909,
                "pitch": 71,
                "velocity": 64,
                "duration": 0.1022727,
                "tempo": 120.0
            },
            {
                "start_time": 21.7954545,
                "end_time": 21.8772727,
                "pitch": 76,
                "velocity": 64,
                "duration": 0.0818182,
                "tempo": 120.0
            },
            {
                "start_time": 21.975,
                "end_time": 22.0568182,
                "pitch": 83,
                "velocity": 64,
                "duration": 0.0818182,
                "tempo": 120.0
            },
            {
                "start_time": 22.1545455,
                "end_time": 22.2363636,
                "pitch": 80,
                "velocity": 64,
                "duration": 0.0818182,
                "tempo": 120.0
            },
            {
                "start_time": 22.3227273,
                "end_time": 22.4204545,
                "pitch": 71,
                "velocity": 64,
                "duration": 0.0977273,
                "tempo": 120.0
            },
            {
                "start_time": 22.5068182,
                "end_time": 22.5886364,
                "pitch": 76,
                "velocity": 64,
                "duration": 0.0818182,
                "tempo": 120.0
            },
            {
                "start_time": 22.6909091,
                "end_time": 22.7727273,
                "pitch": 71,
                "velocity": 64,
                "duration": 0.0818182,
                "tempo": 120.0
            },
            {
                "start_time": 22.8590909,
                "end_time": 22.9545455,
                "pitch": 81,
                "velocity": 64,
                "duration": 0.0954545,
                "tempo": 120.0
            },
            {
                "start_time": 23.0363636,
                "end_time": 23.1340909,
                "pitch": 72,
                "velocity": 64,
                "duration": 0.0977273,
                "tempo": 120.0
            },
            {
                "start_time": 23.2159091,
                "end_time": 23.2977273,
                "pitch": 76,
                "velocity": 64,
                "duration": 0.0818182,
                "tempo": 120.0
            },
            {
                "start_time": 23.4,
                "end_time": 23.4818182,
                "pitch": 81,
                "velocity": 64,
                "duration": 0.0818182,
                "tempo": 120.0
            },
            {
                "start_time": 23.5681818,
                "end_time": 23.6636364,
                "pitch": 76,
                "velocity": 64,
                "duration": 0.0954545,
                "tempo": 120.0
            },
            {
                "start_time": 23.7477273,
                "end_time": 23.8431818,
                "pitch": 72,
                "velocity": 64,
                "duration": 0.0954545,
                "tempo": 120.0
            },
            {
                "start_time": 23.925,
                "end_time": 24.0090909,
                "pitch": 81,
                "velocity": 64,
                "duration": 0.0840909,
                "tempo": 120.0
            },
            {
                "start_time": 24.1136364,
                "end_time": 24.2,
                "pitch": 72,
                "velocity": 64,
                "duration": 0.0863636,
                "tempo": 120.0
            },
            {
                "start_time": 24.2863636,
                "end_time": 24.3818182,
                "pitch": 79,
                "velocity": 64,
                "duration": 0.0954545,
                "tempo": 120.0
            },
            {
                "start_time": 24.4636364,
                "end_time": 24.5613636,
                "pitch": 71,
                "velocity": 64,
                "duration": 0.0977273,
                "tempo": 120.0
            },
            {
                "start_time": 24.6431818,
                "end_time": 24.7272727,
                "pitch": 74,
                "velocity": 64,
                "duration": 0.0840909,
                "tempo": 120.0
            },
            {
                "start_time": 24.8318182,
                "end_time": 24.9159091,
                "pitch": 79,
                "velocity": 64,
                "duration": 0.0840909,
                "tempo": 120.0
            },
            {
                "start_time": 25.0045455,
                "end_time": 25.1,
                "pitch": 74,
                "velocity": 64,
                "duration": 0.0954545,
                "tempo": 120.0
            },
            {
                "start_time": 25.1840909,
                "end_time": 25.2636364,
                "pitch": 71,
                "velocity": 64,
                "duration": 0.0795455,
                "tempo": 120.0
            },
            {
                "start_time": 25.3613636,
                "end_time": 25.4454545,
                "pitch": 79,
                "velocity": 64,
                "duration": 0.0840909,
                "tempo": 120.0
            },
            {
                "start_time": 25.55,
                "end_time": 25.6340909,
                "pitch": 71,
                "velocity": 64,
                "duration": 0.0840909,
                "tempo": 120.0
            },
            {
                "start_time": 25.7227273,
                "end_time": 25.8181818,
                "pitch": 79,
                "velocity": 64,
                "duration": 0.0954545,
                "tempo": 120.0
            },
            {
                "start_time": 25.9,
                "end_time": 25.9818182,
                "pitch": 67,
                "velocity": 64,
                "duration": 0.0818182,
                "tempo": 120.0
            },
            {
                "start_time": 26.0795455,
                "end_time": 26.1636364,
                "pitch": 72,
                "velocity": 64,
                "duration": 0.0840909,
                "tempo": 120.0
            },
            {
                "start_time": 26.2636364,
                "end_time": 26.3477273,
                "pitch": 79,
                "velocity": 64,
                "duration": 0.0840909,
                "tempo": 120.0
            },
            {
                "start_time": 26.4318182,
                "end_time": 26.5272727,
                "pitch": 76,
                "velocity": 64,
                "duration": 0.0954545,
                "tempo": 120.0
            },
            {
                "start_time": 26.6113636,
                "end_time": 26.6909091,
                "pitch": 67,
                "velocity": 64,
                "duration": 0.0795455,
                "tempo": 120.0
            },
            {
                "start_time": 26.7886364,
                "end_time": 26.875,
                "pitch": 79,
                "velocity": 64,
                "duration": 0.0863636,
                "tempo": 120.0
            },
            {
                "start_time": 26.9772727,
                "end_time": 27.0636364,
                "pitch": 67,
                "velocity": 64,
                "duration": 0.0863636,
                "tempo": 120.0
            },
            {
                "start_time": 27.15,
                "end_time": 27.2454545,
                "pitch": 79,
                "velocity": 64,
                "duration": 0.0954545,
                "tempo": 120.0
            },
            {
                "start_time": 27.3295455,
                "end_time": 27.4090909,
                "pitch": 67,
                "velocity": 64,
                "duration": 0.0795455,
                "tempo": 120.0
            },
            {
                "start_time": 27.5068182,
                "end_time": 27.5931818,
                "pitch": 72,
                "velocity": 64,
                "duration": 0.0863636,
                "tempo": 120.0
            },
            {
                "start_time": 27.6795455,
                "end_time": 27.7818182,
                "pitch": 79,
                "velocity": 64,
                "duration": 0.1022727,
                "tempo": 120.0
            },
            {
                "start_time": 27.8681818,
                "end_time": 27.9659091,
                "pitch": 76,
                "velocity": 64,
                "duration": 0.0977273,
                "tempo": 120.0
            },
            {
                "start_time": 28.0477273,
                "end_time": 28.1272727,
                "pitch": 67,
                "velocity": 64,
                "duration": 0.0795455,
                "tempo": 120.0
            },
            {
                "start_time": 28.2272727,
                "end_time": 28.3113636,
                "pitch": 79,
                "velocity": 64,
                "duration": 0.0840909,
                "tempo": 120.0
            },
            {
                "start_time": 28.3977273,
                "end_time": 28.5,
                "pitch": 67,
                "velocity": 64,
                "duration": 0.1022727,
                "tempo": 120.0
            },
            {
                "start_time": 28.5863636,
                "end_time": 28.6818182,
                "pitch": 77,
                "velocity": 64,
                "duration": 0.0954545,
                "tempo": 120.0
            },
            {
                "start_time": 28.7659091,
                "end_time": 28.8454545,
                "pitch": 71,
                "velocity": 64,
                "duration": 0.0795455,
                "tempo": 120.0
            },
            {
                "start_time": 28.9431818,
                "end_time": 29.0272727,
                "pitch": 74,
                "velocity": 64,
                "duration": 0.0840909,
                "tempo": 120.0
            },
            {
                "start_time": 29.1159091,
                "end_time": 29.2181818,
                "pitch": 81,
                "velocity": 64,
                "duration": 0.1022727,
                "tempo": 120.0
            },
            {
                "start_time": 29.3045455,
                "end_time": 29.4022727,
                "pitch": 77,
                "velocity": 64,
                "duration": 0.0977273,
                "tempo": 120.0
            },
            {
                "start_time": 29.4840909,
                "end_time": 29.5636364,
                "pitch": 71,
                "velocity": 64,
                "duration": 0.0795455,
                "tempo": 120.0
            },
            {
                "start_time": 29.6636364,
                "end_time": 29.7454545,
                "pitch": 74,
                "velocity": 64,
                "duration": 0.0818182,
                "tempo": 120.0
            },
            {
                "start_time": 29.8295455,
                "end_time": 29.9295455,
                "pitch": 71,
                "velocity": 64,
                "duration": 0.1,
                "tempo": 120.0
            },
            {
                "start_time": 30.0136364,
                "end_time": 30.1136364,
                "pitch": 76,
                "velocity": 64,
                "duration": 0.1,
                "tempo": 120.0
            },
            {
                "start_time": 30.1977273,
                "end_time": 30.2818182,
                "pitch": 68,
                "velocity": 64,
                "duration": 0.0840909,
                "tempo": 120.0
            },
            {
                "start_time": 30.3818182,
                "end_time": 30.4659091,
                "pitch": 71,
                "velocity": 64,
                "duration": 0.0840909,
                "tempo": 120.0
            },
            {
                "start_time": 30.55,
                "end_time": 30.65,
                "pitch": 76,
                "velocity": 64,
                "duration": 0.1,
                "tempo": 120.0
            },
            {
                "start_time": 30.7340909,
                "end_time": 30.8136364,
                "pitch": 71,
                "velocity": 64,
                "duration": 0.0795455,
                "tempo": 120.0
            },
            {
                "start_time": 30.9136364,
                "end_time": 30.9931818,
                "pitch": 68,
                "velocity": 64,
                "duration": 0.0795455,
                "tempo": 120.0
            },
            {
                "start_time": 31.0931818,
                "end_time": 31.1772727,
                "pitch": 76,
                "velocity": 64,
                "duration": 0.0840909,
                "tempo": 120.0
            },
            {
                "start_time": 31.2636364,
                "end_time": 31.3659091,
                "pitch": 68,
                "velocity": 64,
                "duration": 0.1022727,
                "tempo": 120.0
            },
            {
                "start_time": 31.4545455,
                "end_time": 31.5318182,
                "pitch": 81,
                "velocity": 64,
                "duration": 0.0772727,
                "tempo": 120.0
            },
            {
                "start_time": 31.6318182,
                "end_time": 31.7113636,
                "pitch": 72,
                "velocity": 64,
                "duration": 0.0795455,
                "tempo": 120.0
            },
            {
                "start_time": 31.8090909,
                "end_time": 31.8954545,
                "pitch": 76,
                "velocity": 64,
                "duration": 0.0863636,
                "tempo": 120.0
            },
            {
                "start_time": 31.9818182,
                "end_time": 32.0840909,
                "pitch": 81,
                "velocity": 64,
                "duration": 0.1022727,
                "tempo": 120.0
            },
            {
                "start_time": 32.1704545,
                "end_time": 32.2477273,
                "pitch": 76,
                "velocity": 64,
                "duration": 0.0772727,
                "tempo": 120.0
            },
            {
                "start_time": 32.3431818,
                "end_time": 32.4227273,
                "pitch": 72,
                "velocity": 64,
                "duration": 0.0795455,
                "tempo": 120.0
            },
            {
                "start_time": 32.5181818,
                "end_time": 32.6022727,
                "pitch": 81,
                "velocity": 64,
                "duration": 0.0840909,
                "tempo": 120.0
            },
            {
                "start_time": 32.6886364,
                "end_time": 32.7909091,
                "pitch": 72,
                "velocity": 64,
                "duration": 0.1022727,
                "tempo": 120.0
            },
            {
                "start_time": 32.8772727,
                "end_time": 32.9590909,
                "pitch": 81,
                "velocity": 64,
                "duration": 0.0818182,
                "tempo": 120.0
            },
            {
                "start_time": 33.0568182,
                "end_time": 33.1363636,
                "pitch": 72,
                "velocity": 64,
                "duration": 0.0795455,
                "tempo": 120.0
            },
            {
                "start_time": 33.2181818,
                "end_time": 33.3159091,
                "pitch": 76,
                "velocity": 64,
                "duration": 0.0977273,
                "tempo": 120.0
            },
            {
                "start_time": 33.3977273,
                "end_time": 33.4954545,
                "pitch": 81,
                "velocity": 64,
                "duration": 0.0977273,
                "tempo": 120.0
            },
            {
                "start_time": 33.5772727,
                "end_time": 33.6613636,
                "pitch": 84,
                "velocity": 64,
                "duration": 0.0840909,
                "tempo": 120.0
            },
            {
                "start_time": 33.7659091,
                "end_time": 33.8522727,
                "pitch": 81,
                "velocity": 64,
                "duration": 0.0863636,
                "tempo": 120.0
            },
            {
                "start_time": 33.9386364,
                "end_time": 34.0363636,
                "pitch": 76,
                "velocity": 64,
                "duration": 0.0977273,
                "tempo": 120.0
            },
            {
                "start_time": 34.1227273,
                "end_time": 34.2227273,
                "pitch": 72,
                "velocity": 64,
                "duration": 0.1,
                "tempo": 120.0
            },
            {
                "start_time": 45.75,
                "end_time": 45.8136364,
                "pitch": 81,
                "velocity": 64,
                "duration": 0.0636364,
                "tempo": 120.0
            },
            {
                "start_time": 45.8454545,
                "end_time": 45.8954545,
                "pitch": 76,
                "velocity": 64,
                "duration": 0.05,
                "tempo": 120.0
            },
            {
                "start_time": 45.9272727,
                "end_time": 45.9909091,
                "pitch": 72,
                "velocity": 64,
                "duration": 0.0636364,
                "tempo": 120.0
            },
            {
                "start_time": 46.0090909,
                "end_time": 46.0727273,
                "pitch": 69,
                "velocity": 64,
                "duration": 0.0636364,
                "tempo": 120.0
            },
            {
                "start_time": 46.1068182,
                "end_time": 46.1568182,
                "pitch": 81,
                "velocity": 64,
                "duration": 0.05,
                "tempo": 120.0
            },
            {
                "start_time": 46.1886364,
                "end_time": 46.2568182,
                "pitch": 76,
                "velocity": 64,
                "duration": 0.0681818,
                "tempo": 120.0
            },
            {
                "start_time": 46.2909091,
                "end_time": 46.3409091,
                "pitch": 72,
                "velocity": 64,
                "duration": 0.05,
                "tempo": 120.0
            },
            {
                "start_time": 46.375,
                "end_time": 46.4409091,
                "pitch": 69,
                "velocity": 64,
                "duration": 0.0659091,
                "tempo": 120.0
            },
            {
                "start_time": 46.4590909,
                "end_time": 46.5227273,
                "pitch": 81,
                "velocity": 64,
                "duration": 0.0636364,
                "tempo": 120.0
            },
            {
                "start_time": 46.5545455,
                "end_time": 46.6045455,
                "pitch": 76,
                "velocity": 64,
                "duration": 0.05,
                "tempo": 120.0
            },
            {
                "start_time": 46.6386364,
                "end_time": 46.7022727,
                "pitch": 72,
                "velocity": 64,
                "duration": 0.0636364,
                "tempo": 120.0
            },
            {
                "start_time": 46.7181818,
                "end_time": 46.7840909,
                "pitch": 69,
                "velocity": 64,
                "duration": 0.0659091,
                "tempo": 120.0
            },
            {
                "start_time": 46.8159091,
                "end_time": 46.8659091,
                "pitch": 81,
                "velocity": 64,
                "duration": 0.05,
                "tempo": 120.0
            },
            {
                "start_time": 46.9,
                "end_time": 46.9704545,
                "pitch": 76,
                "velocity": 64,
                "duration": 0.0704545,
                "tempo": 120.0
            },
            {
                "start_time": 47.0045455,
                "end_time": 47.0545455,
                "pitch": 72,
                "velocity": 64,
                "duration": 0.05,
                "tempo": 120.0
            },
            {
                "start_time": 47.0909091,
                "end_time": 47.1590909,
                "pitch": 69,
                "velocity": 64,
                "duration": 0.0681818,
                "tempo": 120.0
            },
            {
                "start_time": 47.1772727,
                "end_time": 47.2409091,
                "pitch": 79,
                "velocity": 64,
                "duration": 0.0636364,
                "tempo": 120.0
            },
            {
                "start_time": 47.2727273,
                "end_time": 47.3227273,
                "pitch": 76,
                "velocity": 64,
                "duration": 0.05,
                "tempo": 120.0
            },
            {
                "start_time": 47.3568182,
                "end_time": 47.4204545,
                "pitch": 72,
                "velocity": 64,
                "duration": 0.0636364,
                "tempo": 120.0
            },
            {
                "start_time": 47.4363636,
                "end_time": 47.5022727,
                "pitch": 67,
                "velocity": 64,
                "duration": 0.0659091,
                "tempo": 120.0
            },
            {
                "start_time": 47.5340909,
                "end_time": 47.5840909,
                "pitch": 79,
                "velocity": 64,
                "duration": 0.05,
                "tempo": 120.0
            },
            {
                "start_time": 47.6181818,
                "end_time": 47.6886364,
                "pitch": 76,
                "velocity": 64,
                "duration": 0.0704545,
                "tempo": 120.0
            },
            {
                "start_time": 47.7227273,
                "end_time": 47.7727273,
                "pitch": 72,
                "velocity": 64,
                "duration": 0.05,
                "tempo": 120.0
            },
            {
                "start_time": 47.8068182,
                "end_time": 47.8590909,
                "pitch": 67,
                "velocity": 64,
                "duration": 0.0522727,
                "tempo": 120.0
            },
            {
                "start_time": 47.8931818,
                "end_time": 47.9568182,
                "pitch": 79,
                "velocity": 64,
                "duration": 0.0636364,
                "tempo": 120.0
            },
            {
                "start_time": 47.9886364,
                "end_time": 48.0363636,
                "pitch": 76,
                "velocity": 64,
                "duration": 0.0477273,
                "tempo": 120.0
            },
            {
                "start_time": 48.0681818,
                "end_time": 48.1295455,
                "pitch": 72,
                "velocity": 64,
                "duration": 0.0613636,
                "tempo": 120.0
            },
            {
                "start_time": 48.1454545,
                "end_time": 48.2090909,
                "pitch": 67,
                "velocity": 64,
                "duration": 0.0636364,
                "tempo": 120.0
            },
            {
                "start_time": 48.2431818,
                "end_time": 48.2931818,
                "pitch": 79,
                "velocity": 64,
                "duration": 0.05,
                "tempo": 120.0
            },
            {
                "start_time": 48.3295455,
                "end_time": 48.4,
                "pitch": 76,
                "velocity": 64,
                "duration": 0.0704545,
                "tempo": 120.0
            },
            {
                "start_time": 48.4181818,
                "end_time": 48.4886364,
                "pitch": 72,
                "velocity": 64,
                "duration": 0.0704545,
                "tempo": 120.0
            },
            {
                "start_time": 48.5227273,
                "end_time": 48.5772727,
                "pitch": 67,
                "velocity": 64,
                "duration": 0.0545455,
                "tempo": 120.0
            },
            {
                "start_time": 48.6113636,
                "end_time": 48.675,
                "pitch": 78,
                "velocity": 64,
                "duration": 0.0636364,
                "tempo": 120.0
            },
            {
                "start_time": 48.7068182,
                "end_time": 48.7545455,
                "pitch": 74,
                "velocity": 64,
                "duration": 0.0477273,
                "tempo": 120.0
            },
            {
                "start_time": 48.7863636,
                "end_time": 48.8477273,
                "pitch": 69,
                "velocity": 64,
                "duration": 0.0613636,
                "tempo": 120.0
            },
            {
                "start_time": 48.8636364,
                "end_time": 48.9272727,
                "pitch": 66,
                "velocity": 64,
                "duration": 0.0636364,
                "tempo": 120.0
            },
            {
                "start_time": 48.9613636,
                "end_time": 49.0113636,
                "pitch": 78,
                "velocity": 64,
                "duration": 0.05,
                "tempo": 120.0
            },
            {
                "start_time": 49.0454545,
                "end_time": 49.1136364,
                "pitch": 74,
                "velocity": 64,
                "duration": 0.0681818,
                "tempo": 120.0
            },
            {
                "start_time": 49.1318182,
                "end_time": 49.2,
                "pitch": 69,
                "velocity": 64,
                "duration": 0.0681818,
                "tempo": 120.0
            },
            {
                "start_time": 49.2340909,
                "end_time": 49.2863636,
                "pitch": 66,
                "velocity": 64,
                "duration": 0.0522727,
                "tempo": 120.0
            },
            {
                "start_time": 49.3204545,
                "end_time": 49.3840909,
                "pitch": 78,
                "velocity": 64,
                "duration": 0.0636364,
                "tempo": 120.0
            },
            {
                "start_time": 49.4181818,
                "end_time": 49.4659091,
                "pitch": 74,
                "velocity": 64,
                "duration": 0.0477273,
                "tempo": 120.0
            },
            {
                "start_time": 49.5,
                "end_time": 49.5636364,
                "pitch": 69,
                "velocity": 64,
                "duration": 0.0636364,
                "tempo": 120.0
            },
            {
                "start_time": 49.5795455,
                "end_time": 49.6454545,
                "pitch": 66,
                "velocity": 64,
                "duration": 0.0659091,
                "tempo": 120.0
            },
            {
                "start_time": 49.6795455,
                "end_time": 49.7295455,
                "pitch": 78,
                "velocity": 64,
                "duration": 0.05,
                "tempo": 120.0
            },
            {
                "start_time": 49.7636364,
                "end_time": 49.8318182,
                "pitch": 74,
                "velocity": 64,
                "duration": 0.0681818,
                "tempo": 120.0
            },
            {
                "start_time": 49.85,
                "end_time": 49.9181818,
                "pitch": 69,
                "velocity": 64,
                "duration": 0.0681818,
                "tempo": 120.0
            },
            {
                "start_time": 49.9522727,
                "end_time": 50.0045455,
                "pitch": 66,
                "velocity": 64,
                "duration": 0.0522727,
                "tempo": 120.0
            },
            {
                "start_time": 50.0386364,
                "end_time": 50.1022727,
                "pitch": 80,
                "velocity": 64,
                "duration": 0.0636364,
                "tempo": 120.0
            },
            {
                "start_time": 50.1363636,
                "end_time": 50.1840909,
                "pitch": 76,
                "velocity": 64,
                "duration": 0.0477273,
                "tempo": 120.0
            },
            {
                "start_time": 50.2181818,
                "end_time": 50.2659091,
                "pitch": 71,
                "velocity": 64,
                "duration": 0.0477273,
                "tempo": 120.0
            },
            {
                "start_time": 50.2977273,
                "end_time": 50.3636364,
                "pitch": 68,
                "velocity": 64,
                "duration": 0.0659091,
                "tempo": 120.0
            },
            {
                "start_time": 50.3977273,
                "end_time": 50.4454545,
                "pitch": 80,
                "velocity": 64,
                "duration": 0.0477273,
                "tempo": 120.0
            },
            {
                "start_time": 50.4818182,
                "end_time": 50.55,
                "pitch": 76,
                "velocity": 64,
                "duration": 0.0681818,
                "tempo": 120.0
            },
            {
                "start_time": 50.5681818,
                "end_time": 50.6363636,
                "pitch": 71,
                "velocity": 64,
                "duration": 0.0681818,
                "tempo": 120.0
            },
            {
                "start_time": 50.6704545,
                "end_time": 50.7204545,
                "pitch": 68,
                "velocity": 64,
                "duration": 0.05,
                "tempo": 120.0
            },
            {
                "start_time": 50.7568182,
                "end_time": 50.8204545,
                "pitch": 80,
                "velocity": 64,
                "duration": 0.0636364,
                "tempo": 120.0
            },
            {
                "start_time": 50.8363636,
                "end_time": 50.9022727,
                "pitch": 76,
                "velocity": 64,
                "duration": 0.0659091,
                "tempo": 120.0
            },
            {
                "start_time": 50.9363636,
                "end_time": 50.9840909,
                "pitch": 71,
                "velocity": 64,
                "duration": 0.0477273,
                "tempo": 120.0
            },
            {
                "start_time": 51.0159091,
                "end_time": 51.0818182,
                "pitch": 68,
                "velocity": 64,
                "duration": 0.0659091,
                "tempo": 120.0
            },
            {
                "start_time": 51.1159091,
                "end_time": 51.1636364,
                "pitch": 80,
                "velocity": 64,
                "duration": 0.0477273,
                "tempo": 120.0
            },
            {
                "start_time": 51.1977273,
                "end_time": 51.2659091,
                "pitch": 76,
                "velocity": 64,
                "duration": 0.0681818,
                "tempo": 120.0
            },
            {
                "start_time": 51.2818182,
                "end_time": 51.3477273,
                "pitch": 71,
                "velocity": 64,
                "duration": 0.0659091,
                "tempo": 120.0
            },
            {
                "start_time": 51.3818182,
                "end_time": 51.4318182,
                "pitch": 68,
                "velocity": 64,
                "duration": 0.05,
                "tempo": 120.0
            },
            {
                "start_time": 51.4681818,
                "end_time": 51.5318182,
                "pitch": 81,
                "velocity": 64,
                "duration": 0.0636364,
                "tempo": 120.0
            },
            {
                "start_time": 51.55,
                "end_time": 51.6159091,
                "pitch": 76,
                "velocity": 64,
                "duration": 0.0659091,
                "tempo": 120.0
            },
            {
                "start_time": 51.6522727,
                "end_time": 51.7,
                "pitch": 72,
                "velocity": 64,
                "duration": 0.0477273,
                "tempo": 120.0
            },
            {
                "start_time": 51.7340909,
                "end_time": 51.8,
                "pitch": 69,
                "velocity": 64,
                "duration": 0.0659091,
                "tempo": 120.0
            },
            {
                "start_time": 51.8363636,
                "end_time": 51.8840909,
                "pitch": 81,
                "velocity": 64,
                "duration": 0.0477273,
                "tempo": 120.0
            },
            {
                "start_time": 51.9181818,
                "end_time": 51.9840909,
                "pitch": 76,
                "velocity": 64,
                "duration": 0.0659091,
                "tempo": 120.0
            },
            {
                "start_time": 52.0022727,
                "end_time": 52.0681818,
                "pitch": 72,
                "velocity": 64,
                "duration": 0.0659091,
                "tempo": 120.0
            },
            {
                "start_time": 52.1022727,
                "end_time": 52.1522727,
                "pitch": 69,
                "velocity": 64,
                "duration": 0.05,
                "tempo": 120.0
            },
            {
                "start_time": 52.1863636,
                "end_time": 52.25,
                "pitch": 81,
                "velocity": 64,
                "duration": 0.0636364,
                "tempo": 120.0
            },
            {
                "start_time": 52.2681818,
                "end_time": 52.3318182,
                "pitch": 76,
                "velocity": 64,
                "duration": 0.0636364,
                "tempo": 120.0
            },
            {
                "start_time": 52.3659091,
                "end_time": 52.4136364,
                "pitch": 72,
                "velocity": 64,
                "duration": 0.0477273,
                "tempo": 120.0
            },
            {
                "start_time": 52.4454545,
                "end_time": 52.5113636,
                "pitch": 69,
                "velocity": 64,
                "duration": 0.0659091,
                "tempo": 120.0
            },
            {
                "start_time": 52.5454545,
                "end_time": 52.5954545,
                "pitch": 81,
                "velocity": 64,
                "duration": 0.05,
                "tempo": 120.0
            },
            {
                "start_time": 52.6295455,
                "end_time": 52.6818182,
                "pitch": 76,
                "velocity": 64,
                "duration": 0.0522727,
                "tempo": 120.0
            },
            {
                "start_time": 52.7159091,
                "end_time": 52.7840909,
                "pitch": 72,
                "velocity": 64,
                "duration": 0.0681818,
                "tempo": 120.0
            },
            {
                "start_time": 52.8181818,
                "end_time": 52.8704545,
                "pitch": 69,
                "velocity": 64,
                "duration": 0.0522727,
                "tempo": 120.0
            },
            {
                "start_time": 52.9045455,
                "end_time": 52.9681818,
                "pitch": 79,
                "velocity": 64,
                "duration": 0.0636364,
                "tempo": 120.0
            },
            {
                "start_time": 52.9863636,
                "end_time": 53.05,
                "pitch": 76,
                "velocity": 64,
                "duration": 0.0636364,
                "tempo": 120.0
            },
            {
                "start_time": 53.0840909,
                "end_time": 53.1318182,
                "pitch": 72,
                "velocity": 64,
                "duration": 0.0477273,
                "tempo": 120.0
            },
            {
                "start_time": 53.1636364,
                "end_time": 53.2295455,
                "pitch": 67,
                "velocity": 64,
                "duration": 0.0659091,
                "tempo": 120.0
            },
            {
                "start_time": 53.2477273,
                "end_time": 53.3113636,
                "pitch": 79,
                "velocity": 64,
                "duration": 0.0636364,
                "tempo": 120.0
            },
            {
                "start_time": 53.3431818,
                "end_time": 53.3931818,
                "pitch": 76,
                "velocity": 64,
                "duration": 0.05,
                "tempo": 120.0
            },
            {
                "start_time": 53.425,
                "end_time": 53.4886364,
                "pitch": 72,
                "velocity": 64,
                "duration": 0.0636364,
                "tempo": 120.0
            },
            {
                "start_time": 53.5227273,
                "end_time": 53.5704545,
                "pitch": 67,
                "velocity": 64,
                "duration": 0.0477273,
                "tempo": 120.0
            },
            {
                "start_time": 53.6045455,
                "end_time": 53.6704545,
                "pitch": 79,
                "velocity": 64,
                "duration": 0.0659091,
                "tempo": 120.0
            },
            {
                "start_time": 53.6863636,
                "end_time": 53.7545455,
                "pitch": 76,
                "velocity": 64,
                "duration": 0.0681818,
                "tempo": 120.0
            },
            {
                "start_time": 53.7886364,
                "end_time": 53.8386364,
                "pitch": 72,
                "velocity": 64,
                "duration": 0.05,
                "tempo": 120.0
            },
            {
                "start_time": 53.8704545,
                "end_time": 53.9386364,
                "pitch": 67,
                "velocity": 64,
                "duration": 0.0681818,
                "tempo": 120.0
            },
            {
                "start_time": 53.9568182,
                "end_time": 54.0227273,
                "pitch": 79,
                "velocity": 64,
                "duration": 0.0659091,
                "tempo": 120.0
            },
            {
                "start_time": 54.0568182,
                "end_time": 54.1068182,
                "pitch": 76,
                "velocity": 64,
                "duration": 0.05,
                "tempo": 120.0
            },
            {
                "start_time": 54.1409091,
                "end_time": 54.2068182,
                "pitch": 72,
                "velocity": 64,
                "duration": 0.0659091,
                "tempo": 120.0
            },
            {
                "start_time": 54.2409091,
                "end_time": 54.2909091,
                "pitch": 67,
                "velocity": 64,
                "duration": 0.05,
                "tempo": 120.0
            },
            {
                "start_time": 54.325,
                "end_time": 54.3909091,
                "pitch": 78,
                "velocity": 64,
                "duration": 0.0659091,
                "tempo": 120.0
            },
            {
                "start_time": 54.4068182,
                "end_time": 54.475,
                "pitch": 74,
                "velocity": 64,
                "duration": 0.0681818,
                "tempo": 120.0
            },
            {
                "start_time": 54.5090909,
                "end_time": 54.5590909,
                "pitch": 69,
                "velocity": 64,
                "duration": 0.05,
                "tempo": 120.0
            },
            {
                "start_time": 54.5909091,
                "end_time": 54.6590909,
                "pitch": 66,
                "velocity": 64,
                "duration": 0.0681818,
                "tempo": 120.0
            },
            {
                "start_time": 54.6772727,
                "end_time": 54.7431818,
                "pitch": 78,
                "velocity": 64,
                "duration": 0.0659091,
                "tempo": 120.0
            },
            {
                "start_time": 54.775,
                "end_time": 54.8272727,
                "pitch": 74,
                "velocity": 64,
                "duration": 0.0522727,
                "tempo": 120.0
            },
            {
                "start_time": 54.8613636,
                "end_time": 54.9272727,
                "pitch": 69,
                "velocity": 64,
                "duration": 0.0659091,
                "tempo": 120.0
            },
            {
                "start_time": 54.9613636,
                "end_time": 55.0113636,
                "pitch": 66,
                "velocity": 64,
                "duration": 0.05,
                "tempo": 120.0
            },
            {
                "start_time": 55.0454545,
                "end_time": 55.0931818,
                "pitch": 78,
                "velocity": 64,
                "duration": 0.0477273,
                "tempo": 120.0
            },
            {
                "start_time": 55.1272727,
                "end_time": 55.1954545,
                "pitch": 74,
                "velocity": 64,
                "duration": 0.0681818,
                "tempo": 120.0
            },
            {
                "start_time": 55.2295455,
                "end_time": 55.2772727,
                "pitch": 69,
                "velocity": 64,
                "duration": 0.0477273,
                "tempo": 120.0
            },
            {
                "start_time": 55.3113636,
                "end_time": 55.3795455,
                "pitch": 66,
                "velocity": 64,
                "duration": 0.0681818,
                "tempo": 120.0
            },
            {
                "start_time": 55.3977273,
                "end_time": 55.4613636,
                "pitch": 78,
                "velocity": 64,
                "duration": 0.0636364,
                "tempo": 120.0
            },
            {
                "start_time": 55.4931818,
                "end_time": 55.5431818,
                "pitch": 74,
                "velocity": 64,
                "duration": 0.05,
                "tempo": 120.0
            },
            {
                "start_time": 55.575,
                "end_time": 55.6386364,
                "pitch": 69,
                "velocity": 64,
                "duration": 0.0636364,
                "tempo": 120.0
            },
            {
                "start_time": 55.6727273,
                "end_time": 55.7204545,
                "pitch": 66,
                "velocity": 64,
                "duration": 0.0477273,
                "tempo": 120.0
            },
            {
                "start_time": 55.7545455,
                "end_time": 55.8045455,
                "pitch": 80,
                "velocity": 64,
                "duration": 0.05,
                "tempo": 120.0
            },
            {
                "start_time": 55.8386364,
                "end_time": 55.9090909,
                "pitch": 76,
                "velocity": 64,
                "duration": 0.0704545,
                "tempo": 120.0
            },
            {
                "start_time": 55.9431818,
                "end_time": 55.9931818,
                "pitch": 71,
                "velocity": 64,
                "duration": 0.05,
                "tempo": 120.0
            },
            {
                "start_time": 56.0272727,
                "end_time": 56.0977273,
                "pitch": 68,
                "velocity": 64,
                "duration": 0.0704545,
                "tempo": 120.0
            },
            {
                "start_time": 56.1159091,
                "end_time": 56.1795455,
                "pitch": 80,
                "velocity": 64,
                "duration": 0.0636364,
                "tempo": 120.0
            },
            {
                "start_time": 56.2113636,
                "end_time": 56.2613636,
                "pitch": 76,
                "velocity": 64,
                "duration": 0.05,
                "tempo": 120.0
            },
            {
                "start_time": 56.2931818,
                "end_time": 56.3568182,
                "pitch": 71,
                "velocity": 64,
                "duration": 0.0636364,
                "tempo": 120.0
            },
            {
                "start_time": 56.375,
                "end_time": 56.4386364,
                "pitch": 68,
                "velocity": 64,
                "duration": 0.0636364,
                "tempo": 120.0
            },
            {
                "start_time": 56.4727273,
                "end_time": 56.5227273,
                "pitch": 80,
                "velocity": 64,
                "duration": 0.05,
                "tempo": 120.0
            },
            {
                "start_time": 56.5545455,
                "end_time": 56.6227273,
                "pitch": 76,
                "velocity": 64,
                "duration": 0.0681818,
                "tempo": 120.0
            },
            {
                "start_time": 56.6568182,
                "end_time": 56.7068182,
                "pitch": 71,
                "velocity": 64,
                "duration": 0.05,
                "tempo": 120.0
            },
            {
                "start_time": 56.7409091,
                "end_time": 56.8068182,
                "pitch": 68,
                "velocity": 64,
                "duration": 0.0659091,
                "tempo": 120.0
            },
            {
                "start_time": 56.825,
                "end_time": 56.8909091,
                "pitch": 80,
                "velocity": 64,
                "duration": 0.0659091,
                "tempo": 120.0
            },
            {
                "start_time": 56.925,
                "end_time": 56.975,
                "pitch": 76,
                "velocity": 64,
                "duration": 0.05,
                "tempo": 120.0
            },
            {
                "start_time": 57.0090909,
                "end_time": 57.075,
                "pitch": 71,
                "velocity": 64,
                "duration": 0.0659091,
                "tempo": 120.0
            },
            {
                "start_time": 57.0909091,
                "end_time": 57.1590909,
                "pitch": 68,
                "velocity": 64,
                "duration": 0.0681818,
                "tempo": 120.0
            },
            {
                "start_time": 62.9318182,
                "end_time": 63.0113636,
                "pitch": 81,
                "velocity": 64,
                "duration": 0.0795455,
                "tempo": 120.0
            }
        ],
        "Flute": [
            {
                "start_time": 34.3090909,
                "end_time": 34.4568182,
                "pitch": 77,
                "velocity": 40,
                "duration": 0.1477273,
                "tempo": 120.0
            },
            {
                "start_time": 34.4909091,
                "end_time": 34.6409091,
                "pitch": 79,
                "velocity": 40,
                "duration": 0.15,
                "tempo": 120.0
            },
            {
                "start_time": 34.6590909,
                "end_time": 34.8045455,
                "pitch": 81,
                "velocity": 40,
                "duration": 0.1454545,
                "tempo": 120.0
            },
            {
                "start_time": 34.8386364,
                "end_time": 34.9818182,
                "pitch": 83,
                "velocity": 40,
                "duration": 0.1431818,
                "tempo": 120.0
            },
            {
                "start_time": 35.0159091,
                "end_time": 35.1704545,
                "pitch": 77,
                "velocity": 32,
                "duration": 0.1545455,
                "tempo": 120.0
            },
            {
                "start_time": 35.2045455,
                "end_time": 35.3590909,
                "pitch": 79,
                "velocity": 32,
                "duration": 0.1545455,
                "tempo": 120.0
            },
            {
                "start_time": 35.3772727,
                "end_time": 35.5227273,
                "pitch": 81,
                "velocity": 32,
                "duration": 0.1454545,
                "tempo": 120.0
            },
            {
                "start_time": 35.5545455,
                "end_time": 35.7022727,
                "pitch": 83,
                "velocity": 32,
                "duration": 0.1477273,
                "tempo": 120.0
            },
            {
                "start_time": 35.7363636,
                "end_time": 35.8840909,
                "pitch": 77,
                "velocity": 40,
                "duration": 0.1477273,
                "tempo": 120.0
            },
            {
                "start_time": 35.9181818,
                "end_time": 36.0681818,
                "pitch": 79,
                "velocity": 40,
                "duration": 0.15,
                "tempo": 120.0
            },
            {
                "start_time": 36.0863636,
                "end_time": 36.2318182,
                "pitch": 81,
                "velocity": 40,
                "duration": 0.1454545,
                "tempo": 120.0
            },
            {
                "start_time": 36.2659091,
                "end_time": 36.4113636,
                "pitch": 83,
                "velocity": 40,
                "duration": 0.1454545,
                "tempo": 120.0
            },
            {
                "start_time": 36.4431818,
                "end_time": 36.5977273,
                "pitch": 77,
                "velocity": 32,
                "duration": 0.1545455,
                "tempo": 120.0
            },
            {
                "start_time": 36.6318182,
                "end_time": 36.7863636,
                "pitch": 79,
                "velocity": 32,
                "duration": 0.1545455,
                "tempo": 120.0
            },
            {
                "start_time": 36.8045455,
                "end_time": 36.95,
                "pitch": 81,
                "velocity": 32,
                "duration": 0.1454545,
                "tempo": 120.0
            },
            {
                "start_time": 36.9818182,
                "end_time": 37.1295455,
                "pitch": 83,
                "velocity": 32,
                "duration": 0.1477273,
                "tempo": 120.0
            },
            {
                "start_time": 37.1636364,
                "end_time": 37.3159091,
                "pitch": 77,
                "velocity": 40,
                "duration": 0.1522727,
                "tempo": 120.0
            },
            {
                "start_time": 37.35,
                "end_time": 37.4863636,
                "pitch": 79,
                "velocity": 40,
                "duration": 0.1363636,
                "tempo": 120.0
            },
            {
                "start_time": 37.5227273,
                "end_time": 37.6681818,
                "pitch": 81,
                "velocity": 40,
                "duration": 0.1454545,
                "tempo": 120.0
            },
            {
                "start_time": 37.7022727,
                "end_time": 37.8477273,
                "pitch": 83,
                "velocity": 40,
                "duration": 0.1454545,
                "tempo": 120.0
            },
            {
                "start_time": 37.8795455,
                "end_time": 38.0340909,
                "pitch": 77,
                "velocity": 32,
                "duration": 0.1545455,
                "tempo": 120.0
            },
            {
                "start_time": 38.05,
                "end_time": 38.2045455,
                "pitch": 79,
                "velocity": 32,
                "duration": 0.1545455,
                "tempo": 120.0
            },
            {
                "start_time": 38.2409091,
                "end_time": 38.3863636,
                "pitch": 81,
                "velocity": 32,
                "duration": 0.1454545,
                "tempo": 120.0
            },
            {
                "start_time": 38.4181818,
                "end_time": 38.5659091,
                "pitch": 83,
                "velocity": 32,
                "duration": 0.1477273,
                "tempo": 120.0
            },
            {
                "start_time": 38.6,
                "end_time": 38.7477273,
                "pitch": 77,
                "velocity": 40,
                "duration": 0.1477273,
                "tempo": 120.0
            },
            {
                "start_time": 38.7659091,
                "end_time": 38.9159091,
                "pitch": 79,
                "velocity": 40,
                "duration": 0.15,
                "tempo": 120.0
            },
            {
                "start_time": 38.95,
                "end_time": 39.1,
                "pitch": 81,
                "velocity": 40,
                "duration": 0.15,
                "tempo": 120.0
            },
            {
                "start_time": 39.1363636,
                "end_time": 39.2840909,
                "pitch": 83,
                "velocity": 40,
                "duration": 0.1477273,
                "tempo": 120.0
            },
            {
                "start_time": 39.3181818,
                "end_time": 39.4681818,
                "pitch": 77,
                "velocity": 32,
                "duration": 0.15,
                "tempo": 120.0
            },
            {
                "start_time": 39.4863636,
                "end_time": 39.6363636,
                "pitch": 79,
                "velocity": 32,
                "duration": 0.15,
                "tempo": 120.0
            },
            {
                "start_time": 39.6704545,
                "end_time": 39.8159091,
                "pitch": 81,
                "velocity": 32,
                "duration": 0.1454545,
                "tempo": 120.0
            },
            {
                "start_time": 39.85,
                "end_time": 39.9954545,
                "pitch": 83,
                "velocity": 32,
                "duration": 0.1454545,
                "tempo": 120.0
            },
            {
                "start_time": 40.0295455,
                "end_time": 40.1818182,
                "pitch": 77,
                "velocity": 40,
                "duration": 0.1522727,
                "tempo": 120.0
            },
            {
                "start_time": 40.2,
                "end_time": 40.3545455,
                "pitch": 79,
                "velocity": 40,
                "duration": 0.1545455,
                "tempo": 120.0
            },
            {
                "start_time": 40.3886364,
                "end_time": 40.5340909,
                "pitch": 81,
                "velocity": 40,
                "duration": 0.1454545,
                "tempo": 120.0
            },
            {
                "start_time": 40.5681818,
                "end_time": 40.7136364,
                "pitch": 83,
                "velocity": 40,
                "duration": 0.1454545,
                "tempo": 120.0
            },
            {
                "start_time": 40.7454545,
                "end_time": 40.9,
                "pitch": 77,
                "velocity": 32,
                "duration": 0.1545455,
                "tempo": 120.0
            },
            {
                "start_time": 40.9181818,
                "end_time": 41.0727273,
                "pitch": 79,
                "velocity": 32,
                "duration": 0.1545455,
                "tempo": 120.0
            },
            {
                "start_time": 41.1068182,
                "end_time": 41.2522727,
                "pitch": 81,
                "velocity": 32,
                "duration": 0.1454545,
                "tempo": 120.0
            },
            {
                "start_time": 41.2863636,
                "end_time": 41.4318182,
                "pitch": 83,
                "velocity": 32,
                "duration": 0.1454545,
                "tempo": 120.0
            },
            {
                "start_time": 41.4659091,
                "end_time": 41.6136364,
                "pitch": 77,
                "velocity": 40,
                "duration": 0.1477273,
                "tempo": 120.0
            },
            {
                "start_time": 41.6318182,
                "end_time": 41.7818182,
                "pitch": 79,
                "velocity": 40,
                "duration": 0.15,
                "tempo": 120.0
            },
            {
                "start_time": 41.8159091,
                "end_time": 41.9613636,
                "pitch": 81,
                "velocity": 40,
                "duration": 0.1454545,
                "tempo": 120.0
            },
            {
                "start_time": 41.9954545,
                "end_time": 42.1409091,
                "pitch": 83,
                "velocity": 40,
                "duration": 0.1454545,
                "tempo": 120.0
            },
            {
                "start_time": 42.175,
                "end_time": 42.3113636,
                "pitch": 77,
                "velocity": 32,
                "duration": 0.1363636,
                "tempo": 120.0
            },
            {
                "start_time": 42.3454545,
                "end_time": 42.5,
                "pitch": 79,
                "velocity": 32,
                "duration": 0.1545455,
                "tempo": 120.0
            },
            {
                "start_time": 42.5340909,
                "end_time": 42.6795455,
                "pitch": 81,
                "velocity": 32,
                "duration": 0.1454545,
                "tempo": 120.0
            },
            {
                "start_time": 42.7136364,
                "end_time": 42.8590909,
                "pitch": 83,
                "velocity": 32,
                "duration": 0.1454545,
                "tempo": 120.0
            },
            {
                "start_time": 42.8931818,
                "end_time": 43.0295455,
                "pitch": 77,
                "velocity": 40,
                "duration": 0.1363636,
                "tempo": 120.0
            },
            {
                "start_time": 43.0636364,
                "end_time": 43.2181818,
                "pitch": 79,
                "velocity": 40,
                "duration": 0.1545455,
                "tempo": 120.0
            },
            {
                "start_time": 43.2522727,
                "end_time": 43.3977273,
                "pitch": 81,
                "velocity": 40,
                "duration": 0.1454545,
                "tempo": 120.0
            },
            {
                "start_time": 43.4318182,
                "end_time": 43.5772727,
                "pitch": 83,
                "velocity": 40,
                "duration": 0.1454545,
                "tempo": 120.0
            },
            {
                "start_time": 43.5931818,
                "end_time": 43.7386364,
                "pitch": 77,
                "velocity": 32,
                "duration": 0.1454545,
                "tempo": 120.0
            },
            {
                "start_time": 43.7727273,
                "end_time": 43.9181818,
                "pitch": 79,
                "velocity": 32,
                "duration": 0.1454545,
                "tempo": 120.0
            },
            {
                "start_time": 43.9522727,
                "end_time": 44.1045455,
                "pitch": 81,
                "velocity": 32,
                "duration": 0.1522727,
                "tempo": 120.0
            },
            {
                "start_time": 44.1409091,
                "end_time": 44.2954545,
                "pitch": 83,
                "velocity": 32,
                "duration": 0.1545455,
                "tempo": 120.0
            },
            {
                "start_time": 44.3136364,
                "end_time": 44.4568182,
                "pitch": 76,
                "velocity": 40,
                "duration": 0.1431818,
                "tempo": 120.0
            },
            {
                "start_time": 44.4909091,
                "end_time": 44.6363636,
                "pitch": 76,
                "velocity": 40,
                "duration": 0.1454545,
                "tempo": 120.0
            },
            {
                "start_time": 44.6704545,
                "end_time": 44.8227273,
                "pitch": 78,
                "velocity": 40,
                "duration": 0.1522727,
                "tempo": 120.0
            },
            {
                "start_time": 44.8590909,
                "end_time": 45.0113636,
                "pitch": 80,
                "velocity": 40,
                "duration": 0.1522727,
                "tempo": 120.0
            },
            {
                "start_time": 45.0295455,
                "end_time": 45.1704545,
                "pitch": 76,
                "velocity": 32,
                "duration": 0.1409091,
                "tempo": 120.0
            },
            {
                "start_time": 45.2022727,
                "end_time": 45.3454545,
                "pitch": 76,
                "velocity": 32,
                "duration": 0.1431818,
                "tempo": 120.0
            },
            {
                "start_time": 45.3772727,
                "end_time": 45.5340909,
                "pitch": 78,
                "velocity": 32,
                "duration": 0.1568182,
                "tempo": 120.0
            },
            {
                "start_time": 45.5704545,
                "end_time": 45.7295455,
                "pitch": 80,
                "velocity": 32,
                "duration": 0.1590909,
                "tempo": 120.0
            },
            {
                "start_time": 57.1977273,
                "end_time": 57.2431818,
                "pitch": 57,
                "velocity": 40,
                "duration": 0.0454545,
                "tempo": 120.0
            },
            {
                "start_time": 57.2772727,
                "end_time": 57.3477273,
                "pitch": 57,
                "velocity": 40,
                "duration": 0.0704545,
                "tempo": 120.0
            },
            {
                "start_time": 57.3818182,
                "end_time": 57.4318182,
                "pitch": 57,
                "velocity": 40,
                "duration": 0.05,
                "tempo": 120.0
            },
            {
                "start_time": 57.4681818,
                "end_time": 57.5181818,
                "pitch": 57,
                "velocity": 40,
                "duration": 0.05,
                "tempo": 120.0
            },
            {
                "start_time": 57.5545455,
                "end_time": 57.6181818,
                "pitch": 57,
                "velocity": 40,
                "duration": 0.0636364,
                "tempo": 120.0
            },
            {
                "start_time": 57.65,
                "end_time": 57.7,
                "pitch": 57,
                "velocity": 40,
                "duration": 0.05,
                "tempo": 120.0
            },
            {
                "start_time": 57.7318182,
                "end_time": 57.7977273,
                "pitch": 57,
                "velocity": 40,
                "duration": 0.0659091,
                "tempo": 120.0
            },
            {
                "start_time": 57.8136364,
                "end_time": 57.8772727,
                "pitch": 57,
                "velocity": 40,
                "duration": 0.0636364,
                "tempo": 120.0
            },
            {
                "start_time": 57.9113636,
                "end_time": 57.9613636,
                "pitch": 57,
                "velocity": 40,
                "duration": 0.05,
                "tempo": 120.0
            },
            {
                "start_time": 57.9954545,
                "end_time": 58.0613636,
                "pitch": 57,
                "velocity": 40,
                "duration": 0.0659091,
                "tempo": 120.0
            },
            {
                "start_time": 58.0954545,
                "end_time": 58.1454545,
                "pitch": 57,
                "velocity": 40,
                "duration": 0.05,
                "tempo": 120.0
            },
            {
                "start_time": 58.1795455,
                "end_time": 58.2295455,
                "pitch": 57,
                "velocity": 40,
                "duration": 0.05,
                "tempo": 120.0
            },
            {
                "start_time": 58.2636364,
                "end_time": 58.3272727,
                "pitch": 57,
                "velocity": 40,
                "duration": 0.0636364,
                "tempo": 120.0
            },
            {
                "start_time": 58.3613636,
                "end_time": 58.4090909,
                "pitch": 57,
                "velocity": 40,
                "duration": 0.0477273,
                "tempo": 120.0
            },
            {
                "start_time": 58.4431818,
                "end_time": 58.5068182,
                "pitch": 57,
                "velocity": 40,
                "duration": 0.0636364,
                "tempo": 120.0
            },
            {
                "start_time": 58.5227273,
                "end_time": 58.5886364,
                "pitch": 57,
                "velocity": 40,
                "duration": 0.0659091,
                "tempo": 120.0
            },
            {
                "start_time": 58.6204545,
                "end_time": 58.6704545,
                "pitch": 57,
                "velocity": 40,
                "duration": 0.05,
                "tempo": 120.0
            },
            {
                "start_time": 58.7068182,
                "end_time": 58.775,
                "pitch": 57,
                "velocity": 40,
                "duration": 0.0681818,
                "tempo": 120.0
            },
            {
                "start_time": 58.7931818,
                "end_time": 58.8613636,
                "pitch": 57,
                "velocity": 40,
                "duration": 0.0681818,
                "tempo": 120.0
            },
            {
                "start_time": 58.8954545,
                "end_time": 58.9454545,
                "pitch": 57,
                "velocity": 40,
                "duration": 0.05,
                "tempo": 120.0
            },
            {
                "start_time": 58.9818182,
                "end_time": 59.0454545,
                "pitch": 57,
                "velocity": 40,
                "duration": 0.0636364,
                "tempo": 120.0
            },
            {
                "start_time": 59.0795455,
                "end_time": 59.1272727,
                "pitch": 57,
                "velocity": 40,
                "duration": 0.0477273,
                "tempo": 120.0
            },
            {
                "start_time": 59.1613636,
                "end_time": 59.225,
                "pitch": 57,
                "velocity": 40,
                "duration": 0.0636364,
                "tempo": 120.0
            },
            {
                "start_time": 59.2409091,
                "end_time": 59.3068182,
                "pitch": 57,
                "velocity": 40,
                "duration": 0.0659091,
                "tempo": 120.0
            },
            {
                "start_time": 59.3409091,
                "end_time": 59.3886364,
                "pitch": 57,
                "velocity": 40,
                "duration": 0.0477273,
                "tempo": 120.0
            },
            {
                "start_time": 59.4227273,
                "end_time": 59.4886364,
                "pitch": 57,
                "velocity": 40,
                "duration": 0.0659091,
                "tempo": 120.0
            },
            {
                "start_time": 59.5068182,
                "end_time": 59.5727273,
                "pitch": 57,
                "velocity": 40,
                "duration": 0.0659091,
                "tempo": 120.0
            },
            {
                "start_time": 59.6068182,
                "end_time": 59.6568182,
                "pitch": 57,
                "velocity": 40,
                "duration": 0.05,
                "tempo": 120.0
            },
            {
                "start_time": 59.6931818,
                "end_time": 59.7568182,
                "pitch": 57,
                "velocity": 40,
                "duration": 0.0636364,
                "tempo": 120.0
            },
            {
                "start_time": 59.7909091,
                "end_time": 59.8409091,
                "pitch": 57,
                "velocity": 40,
                "duration": 0.05,
                "tempo": 120.0
            },
            {
                "start_time": 59.875,
                "end_time": 59.9409091,
                "pitch": 57,
                "velocity": 40,
                "duration": 0.0659091,
                "tempo": 120.0
            },
            {
                "start_time": 59.9590909,
                "end_time": 60.025,
                "pitch": 57,
                "velocity": 40,
                "duration": 0.0659091,
                "tempo": 120.0
            },
            {
                "start_time": 60.0590909,
                "end_time": 60.1090909,
                "pitch": 57,
                "velocity": 40,
                "duration": 0.05,
                "tempo": 120.0
            },
            {
                "start_time": 60.1431818,
                "end_time": 60.2090909,
                "pitch": 57,
                "velocity": 40,
                "duration": 0.0659091,
                "tempo": 120.0
            },
            {
                "start_time": 60.2272727,
                "end_time": 60.2931818,
                "pitch": 57,
                "velocity": 40,
                "duration": 0.0659091,
                "tempo": 120.0
            },
            {
                "start_time": 60.3272727,
                "end_time": 60.3772727,
                "pitch": 57,
                "velocity": 40,
                "duration": 0.05,
                "tempo": 120.0
            },
            {
                "start_time": 60.4113636,
                "end_time": 60.475,
                "pitch": 57,
                "velocity": 40,
                "duration": 0.0636364,
                "tempo": 120.0
            },
            {
                "start_time": 60.5090909,
                "end_time": 60.5568182,
                "pitch": 57,
                "velocity": 40,
                "duration": 0.0477273,
                "tempo": 120.0
            },
            {
                "start_time": 60.5909091,
                "end_time": 60.6386364,
                "pitch": 57,
                "velocity": 40,
                "duration": 0.0477273,
                "tempo": 120.0
            },
            {
                "start_time": 60.6704545,
                "end_time": 60.7363636,
                "pitch": 57,
                "velocity": 40,
                "duration": 0.0659091,
                "tempo": 120.0
            },
            {
                "start_time": 60.7704545,
                "end_time": 60.8204545,
                "pitch": 57,
                "velocity": 40,
                "duration": 0.05,
                "tempo": 120.0
            },
            {
                "start_time": 60.8545455,
                "end_time": 60.9227273,
                "pitch": 57,
                "velocity": 40,
                "duration": 0.0681818,
                "tempo": 120.0
            },
            {
                "start_time": 60.9409091,
                "end_time": 61.0090909,
                "pitch": 57,
                "velocity": 40,
                "duration": 0.0681818,
                "tempo": 120.0
            },
            {
                "start_time": 61.0431818,
                "end_time": 61.0954545,
                "pitch": 57,
                "velocity": 40,
                "duration": 0.0522727,
                "tempo": 120.0
            },
            {
                "start_time": 61.1295455,
                "end_time": 61.1931818,
                "pitch": 57,
                "velocity": 40,
                "duration": 0.0636364,
                "tempo": 120.0
            },
            {
                "start_time": 61.2113636,
                "end_time": 61.275,
                "pitch": 57,
                "velocity": 40,
                "duration": 0.0636364,
                "tempo": 120.0
            },
            {
                "start_time": 61.3090909,
                "end_time": 61.3568182,
                "pitch": 57,
                "velocity": 40,
                "duration": 0.0477273,
                "tempo": 120.0
            },
            {
                "start_time": 61.3886364,
                "end_time": 61.4545455,
                "pitch": 57,
                "velocity": 40,
                "duration": 0.0659091,
                "tempo": 120.0
            },
            {
                "start_time": 61.4886364,
                "end_time": 61.5363636,
                "pitch": 57,
                "velocity": 40,
                "duration": 0.0477273,
                "tempo": 120.0
            },
            {
                "start_time": 61.5704545,
                "end_time": 61.6363636,
                "pitch": 57,
                "velocity": 40,
                "duration": 0.0659091,
                "tempo": 120.0
            },
            {
                "start_time": 61.6545455,
                "end_time": 61.7204545,
                "pitch": 57,
                "velocity": 40,
                "duration": 0.0659091,
                "tempo": 120.0
            },
            {
                "start_time": 61.7545455,
                "end_time": 61.8045455,
                "pitch": 57,
                "velocity": 40,
                "duration": 0.05,
                "tempo": 120.0
            },
            {
                "start_time": 61.8386364,
                "end_time": 61.9045455,
                "pitch": 57,
                "velocity": 40,
                "duration": 0.0659091,
                "tempo": 120.0
            },
            {
                "start_time": 61.9227273,
                "end_time": 61.9886364,
                "pitch": 57,
                "velocity": 40,
                "duration": 0.0659091,
                "tempo": 120.0
            },
            {
                "start_time": 62.0227273,
                "end_time": 62.0727273,
                "pitch": 57,
                "velocity": 40,
                "duration": 0.05,
                "tempo": 120.0
            },
            {
                "start_time": 62.1068182,
                "end_time": 62.1727273,
                "pitch": 57,
                "velocity": 40,
                "duration": 0.0659091,
                "tempo": 120.0
            },
            {
                "start_time": 62.2090909,
                "end_time": 62.2568182,
                "pitch": 56,
                "velocity": 40,
                "duration": 0.0477273,
                "tempo": 120.0
            },
            {
                "start_time": 62.2909091,
                "end_time": 62.3568182,
                "pitch": 56,
                "velocity": 40,
                "duration": 0.0659091,
                "tempo": 120.0
            },
            {
                "start_time": 62.375,
                "end_time": 62.4409091,
                "pitch": 56,
                "velocity": 40,
                "duration": 0.0659091,
                "tempo": 120.0
            },
            {
                "start_time": 62.475,
                "end_time": 62.525,
                "pitch": 56,
                "velocity": 40,
                "duration": 0.05,
                "tempo": 120.0
            },
            {
                "start_time": 62.5590909,
                "end_time": 62.625,
                "pitch": 56,
                "velocity": 40,
                "duration": 0.0659091,
                "tempo": 120.0
            },
            {
                "start_time": 62.6431818,
                "end_time": 62.7090909,
                "pitch": 56,
                "velocity": 40,
                "duration": 0.0659091,
                "tempo": 120.0
            },
            {
                "start_time": 62.7431818,
                "end_time": 62.7931818,
                "pitch": 56,
                "velocity": 40,
                "duration": 0.05,
                "tempo": 120.0
            },
            {
                "start_time": 62.8272727,
                "end_time": 62.8931818,
                "pitch": 56,
                "velocity": 40,
                "duration": 0.0659091,
                "tempo": 120.0
            }
        ],
        "Vibraphone": [
            {
                "start_time": 5.7022727,
                "end_time": 6.5613636,
                "pitch": 93,
                "velocity": 51,
                "duration": 0.8590909,
                "tempo": 120.0
            },
            {
                "start_time": 6.5954545,
                "end_time": 6.7409091,
                "pitch": 95,
                "velocity": 51,
                "duration": 0.1454545,
                "tempo": 120.0
            },
            {
                "start_time": 6.7727273,
                "end_time": 6.9272727,
                "pitch": 96,
                "velocity": 51,
                "duration": 0.1545455,
                "tempo": 120.0
            },
            {
                "start_time": 6.9613636,
                "end_time": 7.9863636,
                "pitch": 95,
                "velocity": 51,
                "duration": 1.025,
                "tempo": 120.0
            },
            {
                "start_time": 8.0204545,
                "end_time": 8.1659091,
                "pitch": 96,
                "velocity": 51,
                "duration": 0.1454545,
                "tempo": 120.0
            },
            {
                "start_time": 8.2,
                "end_time": 8.3522727,
                "pitch": 98,
                "velocity": 51,
                "duration": 0.1522727,
                "tempo": 120.0
            },
            {
                "start_time": 8.3704545,
                "end_time": 10.85,
                "pitch": 100,
                "velocity": 51,
                "duration": 2.4795455,
                "tempo": 120.0
            },
            {
                "start_time": 10.8840909,
                "end_time": 11.0295455,
                "pitch": 98,
                "velocity": 51,
                "duration": 0.1454545,
                "tempo": 120.0
            },
            {
                "start_time": 11.0636364,
                "end_time": 11.3886364,
                "pitch": 100,
                "velocity": 51,
                "duration": 0.325,
                "tempo": 120.0
            },
            {
                "start_time": 11.425,
                "end_time": 12.4659091,
                "pitch": 101,
                "velocity": 51,
                "duration": 1.0409091,
                "tempo": 120.0
            },
            {
                "start_time": 12.4840909,
                "end_time": 12.6272727,
                "pitch": 100,
                "velocity": 51,
                "duration": 0.1431818,
                "tempo": 120.0
            },
            {
                "start_time": 12.6613636,
                "end_time": 12.8068182,
                "pitch": 98,
                "velocity": 51,
                "duration": 0.1454545,
                "tempo": 120.0
            },
            {
                "start_time": 12.8409091,
                "end_time": 13.1818182,
                "pitch": 100,
                "velocity": 51,
                "duration": 0.3409091,
                "tempo": 120.0
            },
            {
                "start_time": 13.2,
                "end_time": 13.525,
                "pitch": 98,
                "velocity": 51,
                "duration": 0.325,
                "tempo": 120.0
            },
            {
                "start_time": 13.5590909,
                "end_time": 13.9,
                "pitch": 96,
                "velocity": 51,
                "duration": 0.3409091,
                "tempo": 120.0
            },
            {
                "start_time": 13.9204545,
                "end_time": 14.2431818,
                "pitch": 95,
                "velocity": 51,
                "duration": 0.3227273,
                "tempo": 120.0
            },
            {
                "start_time": 14.2795455,
                "end_time": 14.6181818,
                "pitch": 96,
                "velocity": 51,
                "duration": 0.3386364,
                "tempo": 120.0
            },
            {
                "start_time": 14.6363636,
                "end_time": 14.7818182,
                "pitch": 98,
                "velocity": 51,
                "duration": 0.1454545,
                "tempo": 120.0
            },
            {
                "start_time": 14.8159091,
                "end_time": 17.1090909,
                "pitch": 100,
                "velocity": 51,
                "duration": 2.2931818,
                "tempo": 120.0
            },
            {
                "start_time": 17.1431818,
                "end_time": 18.1772727,
                "pitch": 98,
                "velocity": 51,
                "duration": 1.0340909,
                "tempo": 120.0
            },
            {
                "start_time": 18.2136364,
                "end_time": 18.3590909,
                "pitch": 96,
                "velocity": 51,
                "duration": 0.1454545,
                "tempo": 120.0
            },
            {
                "start_time": 18.3931818,
                "end_time": 18.5363636,
                "pitch": 95,
                "velocity": 51,
                "duration": 0.1431818,
                "tempo": 120.0
            },
            {
                "start_time": 18.5727273,
                "end_time": 18.8954545,
                "pitch": 96,
                "velocity": 51,
                "duration": 0.3227273,
                "tempo": 120.0
            },
            {
                "start_time": 18.9318182,
                "end_time": 19.2545455,
                "pitch": 90,
                "velocity": 51,
                "duration": 0.3227273,
                "tempo": 120.0
            },
            {
                "start_time": 19.2886364,
                "end_time": 19.6136364,
                "pitch": 93,
                "velocity": 51,
                "duration": 0.325,
                "tempo": 120.0
            },
            {
                "start_time": 19.65,
                "end_time": 19.9727273,
                "pitch": 96,
                "velocity": 51,
                "duration": 0.3227273,
                "tempo": 120.0
            },
            {
                "start_time": 20.0068182,
                "end_time": 20.1568182,
                "pitch": 96,
                "velocity": 51,
                "duration": 0.15,
                "tempo": 120.0
            },
            {
                "start_time": 20.175,
                "end_time": 20.325,
                "pitch": 95,
                "velocity": 51,
                "duration": 0.15,
                "tempo": 120.0
            },
            {
                "start_time": 20.3590909,
                "end_time": 20.5090909,
                "pitch": 93,
                "velocity": 51,
                "duration": 0.15,
                "tempo": 120.0
            },
            {
                "start_time": 20.5431818,
                "end_time": 21.4045455,
                "pitch": 95,
                "velocity": 51,
                "duration": 0.8613636,
                "tempo": 120.0
            },
            {
                "start_time": 21.4386364,
                "end_time": 21.5909091,
                "pitch": 98,
                "velocity": 51,
                "duration": 0.1522727,
                "tempo": 120.0
            },
            {
                "start_time": 21.6090909,
                "end_time": 21.7613636,
                "pitch": 96,
                "velocity": 51,
                "duration": 0.1522727,
                "tempo": 120.0
            },
            {
                "start_time": 21.7977273,
                "end_time": 21.9431818,
                "pitch": 95,
                "velocity": 51,
                "duration": 0.1454545,
                "tempo": 120.0
            },
            {
                "start_time": 21.9772727,
                "end_time": 22.4727273,
                "pitch": 100,
                "velocity": 51,
                "duration": 0.4954545,
                "tempo": 120.0
            },
            {
                "start_time": 22.8613636,
                "end_time": 23.7136364,
                "pitch": 93,
                "velocity": 51,
                "duration": 0.8522727,
                "tempo": 120.0
            },
            {
                "start_time": 23.7477273,
                "end_time": 23.8931818,
                "pitch": 95,
                "velocity": 51,
                "duration": 0.1454545,
                "tempo": 120.0
            },
            {
                "start_time": 23.9272727,
                "end_time": 24.0795455,
                "pitch": 96,
                "velocity": 51,
                "duration": 0.1522727,
                "tempo": 120.0
            },
            {
                "start_time": 24.1159091,
                "end_time": 25.15,
                "pitch": 95,
                "velocity": 51,
                "duration": 1.0340909,
                "tempo": 120.0
            },
            {
                "start_time": 25.1840909,
                "end_time": 25.3295455,
                "pitch": 96,
                "velocity": 51,
                "duration": 0.1454545,
                "tempo": 120.0
            },
            {
                "start_time": 25.3636364,
                "end_time": 25.5159091,
                "pitch": 98,
                "velocity": 51,
                "duration": 0.1522727,
                "tempo": 120.0
            },
            {
                "start_time": 25.5522727,
                "end_time": 28.0136364,
                "pitch": 100,
                "velocity": 51,
                "duration": 2.4613636,
                "tempo": 120.0
            },
            {
                "start_time": 28.0477273,
                "end_time": 28.1931818,
                "pitch": 98,
                "velocity": 51,
                "duration": 0.1454545,
                "tempo": 120.0
            },
            {
                "start_time": 28.2272727,
                "end_time": 28.5522727,
                "pitch": 100,
                "velocity": 51,
                "duration": 0.325,
                "tempo": 120.0
            },
            {
                "start_time": 28.5886364,
                "end_time": 29.6295455,
                "pitch": 101,
                "velocity": 51,
                "duration": 1.0409091,
                "tempo": 120.0
            },
            {
                "start_time": 29.6636364,
                "end_time": 29.8136364,
                "pitch": 100,
                "velocity": 51,
                "duration": 0.15,
                "tempo": 120.0
            },
            {
                "start_time": 29.8318182,
                "end_time": 29.9795455,
                "pitch": 98,
                "velocity": 51,
                "duration": 0.1477273,
                "tempo": 120.0
            },
            {
                "start_time": 30.0159091,
                "end_time": 30.3477273,
                "pitch": 100,
                "velocity": 51,
                "duration": 0.3318182,
                "tempo": 120.0
            },
            {
                "start_time": 30.3840909,
                "end_time": 30.7,
                "pitch": 98,
                "velocity": 51,
                "duration": 0.3159091,
                "tempo": 120.0
            },
            {
                "start_time": 30.7363636,
                "end_time": 31.0590909,
                "pitch": 96,
                "velocity": 51,
                "duration": 0.3227273,
                "tempo": 120.0
            },
            {
                "start_time": 31.0931818,
                "end_time": 31.4181818,
                "pitch": 95,
                "velocity": 51,
                "duration": 0.325,
                "tempo": 120.0
            },
            {
                "start_time": 31.4545455,
                "end_time": 33.9204545,
                "pitch": 93,
                "velocity": 51,
                "duration": 2.4659091,
                "tempo": 120.0
            },
            {
                "start_time": 34.3113636,
                "end_time": 34.8045455,
                "pitch": 93,
                "velocity": 51,
                "duration": 0.4931818,
                "tempo": 120.0
            },
            {
                "start_time": 34.8386364,
                "end_time": 35.3590909,
                "pitch": 95,
                "velocity": 51,
                "duration": 0.5204545,
                "tempo": 120.0
            },
            {
                "start_time": 35.3772727,
                "end_time": 35.7022727,
                "pitch": 96,
                "velocity": 51,
                "duration": 0.325,
                "tempo": 120.0
            },
            {
                "start_time": 35.7363636,
                "end_time": 36.2318182,
                "pitch": 95,
                "velocity": 51,
                "duration": 0.4954545,
                "tempo": 120.0
            },
            {
                "start_time": 36.2659091,
                "end_time": 36.7863636,
                "pitch": 96,
                "velocity": 51,
                "duration": 0.5204545,
                "tempo": 120.0
            },
            {
                "start_time": 36.8045455,
                "end_time": 37.1295455,
                "pitch": 98,
                "velocity": 51,
                "duration": 0.325,
                "tempo": 120.0
            },
            {
                "start_time": 37.1636364,
                "end_time": 37.6681818,
                "pitch": 96,
                "velocity": 51,
                "duration": 0.5045455,
                "tempo": 120.0
            },
            {
                "start_time": 37.7022727,
                "end_time": 38.2068182,
                "pitch": 95,
                "velocity": 51,
                "duration": 0.5045455,
                "tempo": 120.0
            },
            {
                "start_time": 38.2409091,
                "end_time": 38.5659091,
                "pitch": 93,
                "velocity": 51,
                "duration": 0.325,
                "tempo": 120.0
            },
            {
                "start_time": 38.6,
                "end_time": 38.9159091,
                "pitch": 95,
                "velocity": 51,
                "duration": 0.3159091,
                "tempo": 120.0
            },
            {
                "start_time": 38.9522727,
                "end_time": 39.1,
                "pitch": 93,
                "velocity": 51,
                "duration": 0.1477273,
                "tempo": 120.0
            },
            {
                "start_time": 39.1363636,
                "end_time": 39.9954545,
                "pitch": 91,
                "velocity": 51,
                "duration": 0.8590909,
                "tempo": 120.0
            },
            {
                "start_time": 40.0295455,
                "end_time": 40.5340909,
                "pitch": 93,
                "velocity": 51,
                "duration": 0.5045455,
                "tempo": 120.0
            },
            {
                "start_time": 40.5681818,
                "end_time": 41.0727273,
                "pitch": 95,
                "velocity": 51,
                "duration": 0.5045455,
                "tempo": 120.0
            },
            {
                "start_time": 41.1068182,
                "end_time": 41.4318182,
                "pitch": 96,
                "velocity": 51,
                "duration": 0.325,
                "tempo": 120.0
            },
            {
                "start_time": 41.4659091,
                "end_time": 41.9636364,
                "pitch": 95,
                "velocity": 51,
                "duration": 0.4977273,
                "tempo": 120.0
            },
            {
                "start_time": 41.9977273,
                "end_time": 42.5,
                "pitch": 96,
                "velocity": 51,
                "duration": 0.5022727,
                "tempo": 120.0
            },
            {
                "start_time": 42.5363636,
                "end_time": 42.8590909,
                "pitch": 98,
                "velocity": 51,
                "duration": 0.3227273,
                "tempo": 120.0
            },
            {
                "start_time": 42.8954545,
                "end_time": 43.4,
                "pitch": 100,
                "velocity": 51,
                "duration": 0.5045455,
                "tempo": 120.0
            },
            {
                "start_time": 43.4318182,
                "end_time": 43.9181818,
                "pitch": 98,
                "velocity": 51,
                "duration": 0.4863636,
                "tempo": 120.0
            },
            {
                "start_time": 43.9522727,
                "end_time": 44.2954545,
                "pitch": 96,
                "velocity": 51,
                "duration": 0.3431818,
                "tempo": 120.0
            },
            {
                "start_time": 44.3136364,
                "end_time": 44.6386364,
                "pitch": 98,
                "velocity": 51,
                "duration": 0.325,
                "tempo": 120.0
            },
            {
                "start_time": 44.6704545,
                "end_time": 44.825,
                "pitch": 96,
                "velocity": 51,
                "duration": 0.1545455,
                "tempo": 120.0
            },
            {
                "start_time": 44.8590909,
                "end_time": 45.7295455,
                "pitch": 95,
                "velocity": 51,
                "duration": 0.8704545,
                "tempo": 120.0
            },
            {
                "start_time": 45.7545455,
                "end_time": 45.8954545,
                "pitch": 96,
                "velocity": 51,
                "duration": 0.1409091,
                "tempo": 120.0
            },
            {
                "start_time": 45.9295455,
                "end_time": 46.075,
                "pitch": 95,
                "velocity": 51,
                "duration": 0.1454545,
                "tempo": 120.0
            },
            {
                "start_time": 46.1090909,
                "end_time": 46.2568182,
                "pitch": 93,
                "velocity": 51,
                "duration": 0.1477273,
                "tempo": 120.0
            },
            {
                "start_time": 46.2931818,
                "end_time": 46.6045455,
                "pitch": 96,
                "velocity": 51,
                "duration": 0.3113636,
                "tempo": 120.0
            },
            {
                "start_time": 46.6386364,
                "end_time": 46.7840909,
                "pitch": 95,
                "velocity": 51,
                "duration": 0.1454545,
                "tempo": 120.0
            },
            {
                "start_time": 46.8181818,
                "end_time": 46.9704545,
                "pitch": 93,
                "velocity": 51,
                "duration": 0.1522727,
                "tempo": 120.0
            },
            {
                "start_time": 47.0068182,
                "end_time": 47.3227273,
                "pitch": 96,
                "velocity": 51,
                "duration": 0.3159091,
                "tempo": 120.0
            },
            {
                "start_time": 47.3568182,
                "end_time": 47.5022727,
                "pitch": 95,
                "velocity": 51,
                "duration": 0.1454545,
                "tempo": 120.0
            },
            {
                "start_time": 47.5363636,
                "end_time": 47.6886364,
                "pitch": 93,
                "velocity": 51,
                "duration": 0.1522727,
                "tempo": 120.0
            },
            {
                "start_time": 47.725,
                "end_time": 48.0363636,
                "pitch": 96,
                "velocity": 51,
                "duration": 0.3113636,
                "tempo": 120.0
            },
            {
                "start_time": 48.0704545,
                "end_time": 48.2113636,
                "pitch": 95,
                "velocity": 51,
                "duration": 0.1409091,
                "tempo": 120.0
            },
            {
                "start_time": 48.2431818,
                "end_time": 48.4,
                "pitch": 93,
                "velocity": 51,
                "duration": 0.1568182,
                "tempo": 120.0
            },
            {
                "start_time": 48.4204545,
                "end_time": 48.7545455,
                "pitch": 98,
                "velocity": 51,
                "duration": 0.3340909,
                "tempo": 120.0
            },
            {
                "start_time": 48.7886364,
                "end_time": 48.9295455,
                "pitch": 96,
                "velocity": 51,
                "duration": 0.1409091,
                "tempo": 120.0
            },
            {
                "start_time": 48.9613636,
                "end_time": 49.1136364,
                "pitch": 93,
                "velocity": 51,
                "duration": 0.1522727,
                "tempo": 120.0
            },
            {
                "start_time": 49.1340909,
                "end_time": 49.4659091,
                "pitch": 98,
                "velocity": 51,
                "duration": 0.3318182,
                "tempo": 120.0
            },
            {
                "start_time": 49.5,
                "end_time": 49.6454545,
                "pitch": 96,
                "velocity": 51,
                "duration": 0.1454545,
                "tempo": 120.0
            },
            {
                "start_time": 49.6795455,
                "end_time": 49.8318182,
                "pitch": 93,
                "velocity": 51,
                "duration": 0.1522727,
                "tempo": 120.0
            },
            {
                "start_time": 49.8522727,
                "end_time": 50.0045455,
                "pitch": 96,
                "velocity": 51,
                "duration": 0.1522727,
                "tempo": 120.0
            },
            {
                "start_time": 50.0409091,
                "end_time": 50.1840909,
                "pitch": 95,
                "velocity": 51,
                "duration": 0.1431818,
                "tempo": 120.0
            },
            {
                "start_time": 50.2181818,
                "end_time": 50.3636364,
                "pitch": 92,
                "velocity": 51,
                "duration": 0.1454545,
                "tempo": 120.0
            },
            {
                "start_time": 50.3977273,
                "end_time": 50.55,
                "pitch": 93,
                "velocity": 51,
                "duration": 0.1522727,
                "tempo": 120.0
            },
            {
                "start_time": 50.5681818,
                "end_time": 50.9022727,
                "pitch": 95,
                "velocity": 51,
                "duration": 0.3340909,
                "tempo": 120.0
            },
            {
                "start_time": 50.9363636,
                "end_time": 51.0818182,
                "pitch": 92,
                "velocity": 51,
                "duration": 0.1454545,
                "tempo": 120.0
            },
            {
                "start_time": 51.1159091,
                "end_time": 51.2659091,
                "pitch": 93,
                "velocity": 51,
                "duration": 0.15,
                "tempo": 120.0
            },
            {
                "start_time": 51.2840909,
                "end_time": 51.4318182,
                "pitch": 95,
                "velocity": 51,
                "duration": 0.1477273,
                "tempo": 120.0
            },
            {
                "start_time": 51.4704545,
                "end_time": 51.6181818,
                "pitch": 96,
                "velocity": 51,
                "duration": 0.1477273,
                "tempo": 120.0
            },
            {
                "start_time": 51.6522727,
                "end_time": 51.8022727,
                "pitch": 95,
                "velocity": 51,
                "duration": 0.15,
                "tempo": 120.0
            },
            {
                "start_time": 51.8363636,
                "end_time": 51.9863636,
                "pitch": 93,
                "velocity": 51,
                "duration": 0.15,
                "tempo": 120.0
            },
            {
                "start_time": 52.0045455,
                "end_time": 52.3340909,
                "pitch": 96,
                "velocity": 51,
                "duration": 0.3295455,
                "tempo": 120.0
            },
            {
                "start_time": 52.3681818,
                "end_time": 52.5113636,
                "pitch": 95,
                "velocity": 51,
                "duration": 0.1431818,
                "tempo": 120.0
            },
            {
                "start_time": 52.5454545,
                "end_time": 52.6818182,
                "pitch": 93,
                "velocity": 51,
                "duration": 0.1363636,
                "tempo": 120.0
            },
            {
                "start_time": 52.7181818,
                "end_time": 53.0522727,
                "pitch": 96,
                "velocity": 51,
                "duration": 0.3340909,
                "tempo": 120.0
            },
            {
                "start_time": 53.0863636,
                "end_time": 53.2295455,
                "pitch": 95,
                "velocity": 51,
                "duration": 0.1431818,
                "tempo": 120.0
            },
            {
                "start_time": 53.2477273,
                "end_time": 53.3931818,
                "pitch": 93,
                "velocity": 51,
                "duration": 0.1454545,
                "tempo": 120.0
            },
            {
                "start_time": 53.4272727,
                "end_time": 53.7545455,
                "pitch": 96,
                "velocity": 51,
                "duration": 0.3272727,
                "tempo": 120.0
            },
            {
                "start_time": 53.7909091,
                "end_time": 53.9386364,
                "pitch": 95,
                "velocity": 51,
                "duration": 0.1477273,
                "tempo": 120.0
            },
            {
                "start_time": 53.9568182,
                "end_time": 54.1068182,
                "pitch": 93,
                "velocity": 51,
                "duration": 0.15,
                "tempo": 120.0
            },
            {
                "start_time": 54.1409091,
                "end_time": 54.475,
                "pitch": 98,
                "velocity": 51,
                "duration": 0.3340909,
                "tempo": 120.0
            },
            {
                "start_time": 54.5113636,
                "end_time": 54.6590909,
                "pitch": 96,
                "velocity": 51,
                "duration": 0.1477273,
                "tempo": 120.0
            },
            {
                "start_time": 54.6772727,
                "end_time": 54.8272727,
                "pitch": 93,
                "velocity": 51,
                "duration": 0.15,
                "tempo": 120.0
            },
            {
                "start_time": 54.8613636,
                "end_time": 55.1954545,
                "pitch": 98,
                "velocity": 51,
                "duration": 0.3340909,
                "tempo": 120.0
            },
            {
                "start_time": 55.2295455,
                "end_time": 55.3795455,
                "pitch": 96,
                "velocity": 51,
                "duration": 0.15,
                "tempo": 120.0
            },
            {
                "start_time": 55.3977273,
                "end_time": 55.5431818,
                "pitch": 93,
                "velocity": 51,
                "duration": 0.1454545,
                "tempo": 120.0
            },
            {
                "start_time": 55.5772727,
                "end_time": 55.7227273,
                "pitch": 96,
                "velocity": 51,
                "duration": 0.1454545,
                "tempo": 120.0
            },
            {
                "start_time": 55.7568182,
                "end_time": 55.9090909,
                "pitch": 95,
                "velocity": 51,
                "duration": 0.1522727,
                "tempo": 120.0
            },
            {
                "start_time": 55.9454545,
                "end_time": 56.0977273,
                "pitch": 92,
                "velocity": 51,
                "duration": 0.1522727,
                "tempo": 120.0
            },
            {
                "start_time": 56.1159091,
                "end_time": 56.2613636,
                "pitch": 93,
                "velocity": 51,
                "duration": 0.1454545,
                "tempo": 120.0
            },
            {
                "start_time": 56.2954545,
                "end_time": 56.6227273,
                "pitch": 95,
                "velocity": 51,
                "duration": 0.3272727,
                "tempo": 120.0
            },
            {
                "start_time": 56.6590909,
                "end_time": 56.8068182,
                "pitch": 92,
                "velocity": 51,
                "duration": 0.1477273,
                "tempo": 120.0
            },
            {
                "start_time": 56.825,
                "end_time": 56.975,
                "pitch": 93,
                "velocity": 51,
                "duration": 0.15,
                "tempo": 120.0
            },
            {
                "start_time": 57.0113636,
                "end_time": 57.1590909,
                "pitch": 95,
                "velocity": 51,
                "duration": 0.1477273,
                "tempo": 120.0
            },
            {
                "start_time": 57.1977273,
                "end_time": 59.6568182,
                "pitch": 93,
                "velocity": 51,
                "duration": 2.4590909,
                "tempo": 120.0
            },
            {
                "start_time": 62.9340909,
                "end_time": 63.0113636,
                "pitch": 93,
                "velocity": 51,
                "duration": 0.0772727,
                "tempo": 120.0
            }
        ],
        "Electric Piano 1": [
            {
                "start_time": 22.5090909,
                "end_time": 22.5227273,
                "pitch": 32,
                "velocity": 64,
                "duration": 0.0136364,
                "tempo": 120.0
            },
            {
                "start_time": 22.5227273,
                "end_time": 22.5545455,
                "pitch": 30,
                "velocity": 64,
                "duration": 0.0318182,
                "tempo": 120.0
            },
            {
                "start_time": 22.5545455,
                "end_time": 22.5727273,
                "pitch": 27,
                "velocity": 64,
                "duration": 0.0181818,
                "tempo": 120.0
            },
            {
                "start_time": 22.5886364,
                "end_time": 22.6068182,
                "pitch": 32,
                "velocity": 64,
                "duration": 0.0181818,
                "tempo": 120.0
            },
            {
                "start_time": 22.5227273,
                "end_time": 22.6068182,
                "pitch": 42,
                "velocity": 64,
                "duration": 0.0840909,
                "tempo": 120.0
            },
            {
                "start_time": 22.6068182,
                "end_time": 22.6386364,
                "pitch": 30,
                "velocity": 64,
                "duration": 0.0318182,
                "tempo": 120.0
            },
            {
                "start_time": 22.6386364,
                "end_time": 22.6568182,
                "pitch": 27,
                "velocity": 64,
                "duration": 0.0181818,
                "tempo": 120.0
            },
            {
                "start_time": 22.6909091,
                "end_time": 22.7068182,
                "pitch": 28,
                "velocity": 64,
                "duration": 0.0159091,
                "tempo": 120.0
            },
            {
                "start_time": 22.7068182,
                "end_time": 22.7409091,
                "pitch": 26,
                "velocity": 64,
                "duration": 0.0340909,
                "tempo": 120.0
            },
            {
                "start_time": 22.775,
                "end_time": 22.7909091,
                "pitch": 28,
                "velocity": 64,
                "duration": 0.0159091,
                "tempo": 120.0
            },
            {
                "start_time": 22.7909091,
                "end_time": 22.8227273,
                "pitch": 26,
                "velocity": 64,
                "duration": 0.0318182,
                "tempo": 120.0
            },
            {
                "start_time": 22.8227273,
                "end_time": 22.8409091,
                "pitch": 23,
                "velocity": 64,
                "duration": 0.0181818,
                "tempo": 120.0
            },
            {
                "start_time": 34.1227273,
                "end_time": 34.1386364,
                "pitch": 28,
                "velocity": 64,
                "duration": 0.0159091,
                "tempo": 120.0
            },
            {
                "start_time": 34.1386364,
                "end_time": 34.1704545,
                "pitch": 26,
                "velocity": 64,
                "duration": 0.0318182,
                "tempo": 120.0
            },
            {
                "start_time": 34.1704545,
                "end_time": 34.1886364,
                "pitch": 23,
                "velocity": 64,
                "duration": 0.0181818,
                "tempo": 120.0
            },
            {
                "start_time": 34.2227273,
                "end_time": 34.2386364,
                "pitch": 28,
                "velocity": 64,
                "duration": 0.0159091,
                "tempo": 120.0
            },
            {
                "start_time": 34.2386364,
                "end_time": 34.2727273,
                "pitch": 26,
                "velocity": 64,
                "duration": 0.0340909,
                "tempo": 120.0
            }
        ]
    }
}