{
    "mood": "angry",
    "instruments": {
        "Lead 2 (sawtooth)": [
            {
                "start_time": 7.2181818,
                "end_time": 9.0454545,
                "pitch": 60,
                "velocity": 127,
                "duration": 1.8272727,
                "tempo": 120.0
            },
            {
                "start_time": 9.1818182,
                "end_time": 9.3340909,
                "pitch": 57,
                "velocity": 127,
                "duration": 0.1522727,
                "tempo": 120.0
            },
            {
                "start_time": 9.3340909,
                "end_time": 9.5,
                "pitch": 59,
                "velocity": 127,
                "duration": 0.1659091,
                "tempo": 120.0
            },
            {
                "start_time": 9.3340909,
                "end_time": 9.5,
                "pitch": 59,
                "velocity": 127,
                "duration": 0.1659091,
                "tempo": 120.0
            },
            {
                "start_time": 9.6340909,
                "end_time": 11.4522727,
                "pitch": 60,
                "velocity": 127,
                "duration": 1.8181818,
                "tempo": 120.0
            },
            {
                "start_time": 11.5863636,
                "end_time": 11.7386364,
                "pitch": 59,
                "velocity": 127,
                "duration": 0.1522727,
                "tempo": 120.0
            },
            {
                "start_time": 11.7386364,
                "end_time": 11.9068182,
                "pitch": 57,
                "velocity": 127,
                "duration": 0.1681818,
                "tempo": 120.0
            },
            {
                "start_time": 11.7386364,
                "end_time": 11.9068182,
                "pitch": 57,
                "velocity": 127,
                "duration": 0.1681818,
                "tempo": 120.0
            },
            {
                "start_time": 12.0409091,
                "end_time": 13.2454545,
                "pitch": 52,
                "velocity": 127,
                "duration": 1.2045455,
                "tempo": 120.0
            },
            {
                "start_time": 13.2454545,
                "end_time": 13.3954545,
                "pitch": 53,
                "velocity": 127,
                "duration": 0.15,
                "tempo": 120.0
            },
            {
                "start_time": 13.3954545,
                "end_time": 13.5454545,
                "pitch": 55,
                "velocity": 127,
                "duration": 0.15,
                "tempo": 120.0
            },
            {
                "start_time": 13.5454545,
                "end_time": 13.5477273,
                "pitch": 57,
                "velocity": 127,
                "duration": 0.0022727,
                "tempo": 120.0
            },
            {
                "start_time": 13.5477273,
                "end_time": 13.7,
                "pitch": 57,
                "velocity": 127,
                "duration": 0.1522727,
                "tempo": 120.0
            },
            {
                "start_time": 13.7,
                "end_time": 13.8522727,
                "pitch": 55,
                "velocity": 127,
                "duration": 0.1522727,
                "tempo": 120.0
            },
            {
                "start_time": 13.7,
                "end_time": 13.8522727,
                "pitch": 55,
                "velocity": 127,
                "duration": 0.1522727,
                "tempo": 120.0
            },
            {
                "start_time": 13.8522727,
                "end_time": 14.0068182,
                "pitch": 57,
                "velocity": 127,
                "duration": 0.1545455,
                "tempo": 120.0
            },
            {
                "start_time": 13.8522727,
                "end_time": 14.0068182,
                "pitch": 57,
                "velocity": 127,
                "duration": 0.1545455,
                "tempo": 120.0
            },
            {
                "start_time": 14.0068182,
                "end_time": 14.1568182,
                "pitch": 59,
                "velocity": 127,
                "duration": 0.15,
                "tempo": 120.0
            },
            {
                "start_time": 14.0068182,
                "end_time": 14.1568182,
                "pitch": 59,
                "velocity": 127,
                "duration": 0.15,
                "tempo": 120.0
            },
            {
                "start_time": 14.1568182,
                "end_time": 14.3068182,
                "pitch": 57,
                "velocity": 127,
                "duration": 0.15,
                "tempo": 120.0
            },
            {
                "start_time": 14.1568182,
                "end_time": 14.3068182,
                "pitch": 57,
                "velocity": 127,
                "duration": 0.15,
                "tempo": 120.0
            },
            {
                "start_time": 14.3068182,
                "end_time": 14.4545455,
                "pitch": 59,
                "velocity": 127,
                "duration": 0.1477273,
                "tempo": 120.0
            },
            {
                "start_time": 14.3068182,
                "end_time": 14.4545455,
                "pitch": 59,
                "velocity": 127,
                "duration": 0.1477273,
                "tempo": 120.0
            },
            {
                "start_time": 14.4545455,
                "end_time": 16.875,
                "pitch": 60,
                "velocity": 127,
                "duration": 2.4204545,
                "tempo": 120.0
            },
            {
                "start_time": 16.875,
                "end_time": 18.3818182,
                "pitch": 59,
                "velocity": 127,
                "duration": 1.5068182,
                "tempo": 120.0
            },
            {
                "start_time": 14.4545455,
                "end_time": 18.3818182,
                "pitch": 64,
                "velocity": 127,
                "duration": 3.9272727,
                "tempo": 120.0
            },
            {
                "start_time": 18.3840909,
                "end_time": 18.6863636,
                "pitch": 60,
                "velocity": 127,
                "duration": 0.3022727,
                "tempo": 120.0
            },
            {
                "start_time": 18.6863636,
                "end_time": 18.9886364,
                "pitch": 62,
                "velocity": 127,
                "duration": 0.3022727,
                "tempo": 120.0
            },
            {
                "start_time": 18.3818182,
                "end_time": 18.9909091,
                "pitch": 64,
                "velocity": 127,
                "duration": 0.6090909,
                "tempo": 120.0
            },
            {
                "start_time": 18.9886364,
                "end_time": 18.9909091,
                "pitch": 64,
                "velocity": 127,
                "duration": 0.0022727,
                "tempo": 120.0
            },
            {
                "start_time": 18.9909091,
                "end_time": 19.2931818,
                "pitch": 64,
                "velocity": 127,
                "duration": 0.3022727,
                "tempo": 120.0
            },
            {
                "start_time": 19.2931818,
                "end_time": 19.7477273,
                "pitch": 62,
                "velocity": 127,
                "duration": 0.4545455,
                "tempo": 120.0
            },
            {
                "start_time": 19.2931818,
                "end_time": 19.7477273,
                "pitch": 62,
                "velocity": 127,
                "duration": 0.4545455,
                "tempo": 120.0
            },
            {
                "start_time": 19.7477273,
                "end_time": 20.8045455,
                "pitch": 60,
                "velocity": 127,
                "duration": 1.0568182,
                "tempo": 120.0
            },
            {
                "start_time": 20.8045455,
                "end_time": 21.1045455,
                "pitch": 62,
                "velocity": 127,
                "duration": 0.3,
                "tempo": 120.0
            },
            {
                "start_time": 21.1045455,
                "end_time": 21.4045455,
                "pitch": 64,
                "velocity": 127,
                "duration": 0.3,
                "tempo": 120.0
            },
            {
                "start_time": 21.1045455,
                "end_time": 21.4045455,
                "pitch": 64,
                "velocity": 127,
                "duration": 0.3,
                "tempo": 120.0
            },
            {
                "start_time": 21.4045455,
                "end_time": 21.7090909,
                "pitch": 65,
                "velocity": 127,
                "duration": 0.3045455,
                "tempo": 120.0
            },
            {
                "start_time": 21.7090909,
                "end_time": 24.1363636,
                "pitch": 64,
                "velocity": 127,
                "duration": 2.4272727,
                "tempo": 120.0
            },
            {
                "start_time": 16.875,
                "end_time": 25.0409091,
                "pitch": 44,
                "velocity": 127,
                "duration": 8.1659091,
                "tempo": 120.0
            },
            {
                "start_time": 24.1363636,
                "end_time": 25.0409091,
                "pitch": 60,
                "velocity": 127,
                "duration": 0.9045455,
                "tempo": 120.0
            },
            {
                "start_time": 24.1363636,
                "end_time": 25.0409091,
                "pitch": 60,
                "velocity": 127,
                "duration": 0.9045455,
                "tempo": 120.0
            },
            {
                "start_time": 25.0409091,
                "end_time": 25.3431818,
                "pitch": 59,
                "velocity": 127,
                "duration": 0.3022727,
                "tempo": 120.0
            },
            {
                "start_time": 25.3431818,
                "end_time": 25.6477273,
                "pitch": 57,
                "velocity": 127,
                "duration": 0.3045455,
                "tempo": 120.0
            },
            {
                "start_time": 25.3431818,
                "end_time": 25.6477273,
                "pitch": 57,
                "velocity": 127,
                "duration": 0.3045455,
                "tempo": 120.0
            },
            {
                "start_time": 25.6477273,
                "end_time": 25.7977273,
                "pitch": 59,
                "velocity": 127,
                "duration": 0.15,
                "tempo": 120.0
            },
            {
                "start_time": 25.6477273,
                "end_time": 25.7977273,
                "pitch": 59,
                "velocity": 127,
                "duration": 0.15,
                "tempo": 120.0
            },
            {
                "start_time": 25.7977273,
                "end_time": 25.9659091,
                "pitch": 60,
                "velocity": 127,
                "duration": 0.1681818,
                "tempo": 120.0
            },
            {
                "start_time": 26.1022727,
                "end_time": 26.2522727,
                "pitch": 59,
                "velocity": 127,
                "duration": 0.15,
                "tempo": 120.0
            },
            {
                "start_time": 26.2522727,
                "end_time": 26.5545455,
                "pitch": 57,
                "velocity": 127,
                "duration": 0.3022727,
                "tempo": 120.0
            },
            {
                "start_time": 26.2522727,
                "end_time": 26.5545455,
                "pitch": 57,
                "velocity": 127,
                "duration": 0.3022727,
                "tempo": 120.0
            },
            {
                "start_time": 26.5545455,
                "end_time": 28.0613636,
                "pitch": 55,
                "velocity": 127,
                "duration": 1.5068182,
                "tempo": 120.0
            },
            {
                "start_time": 26.5545455,
                "end_time": 28.0613636,
                "pitch": 55,
                "velocity": 127,
                "duration": 1.5068182,
                "tempo": 120.0
            },
            {
                "start_time": 28.0613636,
                "end_time": 28.3659091,
                "pitch": 59,
                "velocity": 127,
                "duration": 0.3045455,
                "tempo": 120.0
            },
            {
                "start_time": 28.0613636,
                "end_time": 28.3659091,
                "pitch": 59,
                "velocity": 127,
                "duration": 0.3045455,
                "tempo": 120.0
            },
            {
                "start_time": 25.7977273,
                "end_time": 28.3659091,
                "pitch": 64,
                "velocity": 127,
                "duration": 2.5681818,
                "tempo": 120.0
            },
            {
                "start_time": 28.3659091,
                "end_time": 28.6704545,
                "pitch": 60,
                "velocity": 127,
                "duration": 0.3045455,
                "tempo": 120.0
            },
            {
                "start_time": 28.3659091,
                "end_time": 28.6704545,
                "pitch": 64,
                "velocity": 127,
                "duration": 0.3045455,
                "tempo": 120.0
            },
            {
                "start_time": 28.6704545,
                "end_time": 28.9772727,
                "pitch": 64,
                "velocity": 127,
                "duration": 0.3068182,
                "tempo": 120.0
            },
            {
                "start_time": 28.6704545,
                "end_time": 28.9772727,
                "pitch": 64,
                "velocity": 127,
                "duration": 0.3068182,
                "tempo": 120.0
            },
            {
                "start_time": 28.9772727,
                "end_time": 29.4295455,
                "pitch": 62,
                "velocity": 127,
                "duration": 0.4522727,
                "tempo": 120.0
            },
            {
                "start_time": 28.9772727,
                "end_time": 29.4295455,
                "pitch": 62,
                "velocity": 127,
                "duration": 0.4522727,
                "tempo": 120.0
            },
            {
                "start_time": 29.4295455,
                "end_time": 30.4818182,
                "pitch": 60,
                "velocity": 127,
                "duration": 1.0522727,
                "tempo": 120.0
            },
            {
                "start_time": 30.4840909,
                "end_time": 30.7840909,
                "pitch": 62,
                "velocity": 127,
                "duration": 0.3,
                "tempo": 120.0
            },
            {
                "start_time": 30.7840909,
                "end_time": 31.0840909,
                "pitch": 64,
                "velocity": 127,
                "duration": 0.3,
                "tempo": 120.0
            },
            {
                "start_time": 30.7840909,
                "end_time": 31.0840909,
                "pitch": 64,
                "velocity": 127,
                "duration": 0.3,
                "tempo": 120.0
            },
            {
                "start_time": 31.0840909,
                "end_time": 31.3909091,
                "pitch": 65,
                "velocity": 127,
                "duration": 0.3068182,
                "tempo": 120.0
            },
            {
                "start_time": 31.3909091,
                "end_time": 32.9045455,
                "pitch": 64,
                "velocity": 127,
                "duration": 1.5136364,
                "tempo": 120.0
            },
            {
                "start_time": 32.9045455,
                "end_time": 33.2090909,
                "pitch": 62,
                "velocity": 127,
                "duration": 0.3045455,
                "tempo": 120.0
            },
            {
                "start_time": 32.9045455,
                "end_time": 33.2090909,
                "pitch": 62,
                "velocity": 127,
                "duration": 0.3045455,
                "tempo": 120.0
            },
            {
                "start_time": 25.0409091,
                "end_time": 33.5113636,
                "pitch": 44,
                "velocity": 127,
                "duration": 8.4704545,
                "tempo": 120.0
            },
            {
                "start_time": 33.2090909,
                "end_time": 33.5113636,
                "pitch": 60,
                "velocity": 127,
                "duration": 0.3022727,
                "tempo": 120.0
            },
            {
                "start_time": 33.5113636,
                "end_time": 62.8886364,
                "pitch": 59,
                "velocity": 127,
                "duration": 29.3772727,
                "tempo": 120.0
            },
            {
                "start_time": 62.8886364,
                "end_time": 65.0068182,
                "pitch": 72,
                "velocity": 80,
                "duration": 2.1181818,
                "tempo": 120.0
            },
            {
                "start_time": 65.0068182,
                "end_time": 65.175,
                "pitch": 71,
                "velocity": 80,
                "duration": 0.1681818,
                "tempo": 120.0
            },
            {
                "start_time": 65.0068182,
                "end_time": 67.4227273,
                "pitch": 56,
                "velocity": 80,
                "duration": 2.4159091,
                "tempo": 120.0
            },
            {
                "start_time": 65.3113636,
                "end_time": 67.4227273,
                "pitch": 72,
                "velocity": 80,
                "duration": 2.1113636,
                "tempo": 120.0
            },
            {
                "start_time": 67.4227273,
                "end_time": 67.5909091,
                "pitch": 71,
                "velocity": 80,
                "duration": 0.1681818,
                "tempo": 120.0
            },
            {
                "start_time": 67.7272727,
                "end_time": 69.0840909,
                "pitch": 69,
                "velocity": 80,
                "duration": 1.3568182,
                "tempo": 120.0
            },
            {
                "start_time": 69.0840909,
                "end_time": 69.2363636,
                "pitch": 69,
                "velocity": 80,
                "duration": 0.1522727,
                "tempo": 120.0
            },
            {
                "start_time": 69.2363636,
                "end_time": 69.3863636,
                "pitch": 67,
                "velocity": 80,
                "duration": 0.15,
                "tempo": 120.0
            },
            {
                "start_time": 69.3863636,
                "end_time": 69.5363636,
                "pitch": 64,
                "velocity": 80,
                "duration": 0.15,
                "tempo": 120.0
            },
            {
                "start_time": 69.5363636,
                "end_time": 69.6863636,
                "pitch": 62,
                "velocity": 80,
                "duration": 0.15,
                "tempo": 120.0
            },
            {
                "start_time": 69.5363636,
                "end_time": 69.6863636,
                "pitch": 62,
                "velocity": 80,
                "duration": 0.15,
                "tempo": 120.0
            },
            {
                "start_time": 33.5113636,
                "end_time": 69.9909091,
                "pitch": 44,
                "velocity": 127,
                "duration": 36.4795455,
                "tempo": 120.0
            },
            {
                "start_time": 69.6863636,
                "end_time": 69.9909091,
                "pitch": 60,
                "velocity": 80,
                "duration": 0.3045455,
                "tempo": 120.0
            },
            {
                "start_time": 69.9909091,
                "end_time": 70.1090909,
                "pitch": 59,
                "velocity": 80,
                "duration": 0.1181818,
                "tempo": 120.0
            }
        ],
        "Electric Guitar (clean)": [
            {
                "start_time": 0.2113636,
                "end_time": 0.3113636,
                "pitch": 57,
                "velocity": 101,
                "duration": 0.1,
                "tempo": 120.0
            },
            {
                "start_time": 0.6613636,
                "end_time": 0.7613636,
                "pitch": 57,
                "velocity": 101,
                "duration": 0.1,
                "tempo": 120.0
            },
            {
                "start_time": 1.1204545,
                "end_time": 1.5227273,
                "pitch": 55,
                "velocity": 101,
                "duration": 0.4022727,
                "tempo": 120.0
            },
            {
                "start_time": 1.575,
                "end_time": 1.9704545,
                "pitch": 53,
                "velocity": 101,
                "duration": 0.3954545,
                "tempo": 120.0
            },
            {
                "start_time": 2.0204545,
                "end_time": 2.275,
                "pitch": 52,
                "velocity": 101,
                "duration": 0.2545455,
                "tempo": 120.0
            },
            {
                "start_time": 2.6340909,
                "end_time": 2.7340909,
                "pitch": 57,
                "velocity": 101,
                "duration": 0.1,
                "tempo": 120.0
            },
            {
                "start_time": 3.0886364,
                "end_time": 3.1886364,
                "pitch": 57,
                "velocity": 101,
                "duration": 0.1,
                "tempo": 120.0
            },
            {
                "start_time": 3.5409091,
                "end_time": 3.9409091,
                "pitch": 55,
                "velocity": 101,
                "duration": 0.4,
                "tempo": 120.0
            },
            {
                "start_time": 3.9931818,
                "end_time": 4.3954545,
                "pitch": 53,
                "velocity": 101,
                "duration": 0.4022727,
                "tempo": 120.0
            },
            {
                "start_time": 4.4477273,
                "end_time": 4.7,
                "pitch": 52,
                "velocity": 101,
                "duration": 0.2522727,
                "tempo": 120.0
            },
            {
                "start_time": 5.0545455,
                "end_time": 5.1545455,
                "pitch": 53,
                "velocity": 101,
                "duration": 0.1,
                "tempo": 120.0
            },
            {
                "start_time": 5.5045455,
                "end_time": 5.6045455,
                "pitch": 53,
                "velocity": 101,
                "duration": 0.1,
                "tempo": 120.0
            },
            {
                "start_time": 5.9590909,
                "end_time": 6.3613636,
                "pitch": 55,
                "velocity": 101,
                "duration": 0.4022727,
                "tempo": 120.0
            },
            {
                "start_time": 6.4113636,
                "end_time": 6.8113636,
                "pitch": 53,
                "velocity": 101,
                "duration": 0.4,
                "tempo": 120.0
            },
            {
                "start_time": 6.8636364,
                "end_time": 7.1159091,
                "pitch": 55,
                "velocity": 101,
                "duration": 0.2522727,
                "tempo": 120.0
            },
            {
                "start_time": 7.3181818,
                "end_time": 7.4181818,
                "pitch": 57,
                "velocity": 64,
                "duration": 0.1,
                "tempo": 120.0
            },
            {
                "start_time": 7.7704545,
                "end_time": 7.8681818,
                "pitch": 57,
                "velocity": 64,
                "duration": 0.0977273,
                "tempo": 120.0
            },
            {
                "start_time": 8.3704545,
                "end_time": 8.4704545,
                "pitch": 57,
                "velocity": 64,
                "duration": 0.1,
                "tempo": 120.0
            },
            {
                "start_time": 8.825,
                "end_time": 9.0795455,
                "pitch": 53,
                "velocity": 64,
                "duration": 0.2545455,
                "tempo": 120.0
            },
            {
                "start_time": 9.1318182,
                "end_time": 9.2318182,
                "pitch": 53,
                "velocity": 64,
                "duration": 0.1,
                "tempo": 120.0
            },
            {
                "start_time": 9.2840909,
                "end_time": 9.5340909,
                "pitch": 55,
                "velocity": 64,
                "duration": 0.25,
                "tempo": 120.0
            },
            {
                "start_time": 9.7340909,
                "end_time": 9.8340909,
                "pitch": 57,
                "velocity": 64,
                "duration": 0.1,
                "tempo": 120.0
            },
            {
                "start_time": 10.1840909,
                "end_time": 10.2840909,
                "pitch": 57,
                "velocity": 64,
                "duration": 0.1,
                "tempo": 120.0
            },
            {
                "start_time": 10.7863636,
                "end_time": 10.8863636,
                "pitch": 57,
                "velocity": 64,
                "duration": 0.1,
                "tempo": 120.0
            },
            {
                "start_time": 11.2363636,
                "end_time": 11.4863636,
                "pitch": 53,
                "velocity": 64,
                "duration": 0.25,
                "tempo": 120.0
            },
            {
                "start_time": 11.5363636,
                "end_time": 11.6363636,
                "pitch": 53,
                "velocity": 64,
                "duration": 0.1,
                "tempo": 120.0
            },
            {
                "start_time": 11.6863636,
                "end_time": 11.9386364,
                "pitch": 55,
                "velocity": 64,
                "duration": 0.2522727,
                "tempo": 120.0
            },
            {
                "start_time": 12.1431818,
                "end_time": 12.2431818,
                "pitch": 52,
                "velocity": 64,
                "duration": 0.1,
                "tempo": 120.0
            },
            {
                "start_time": 12.5931818,
                "end_time": 12.6931818,
                "pitch": 52,
                "velocity": 64,
                "duration": 0.1,
                "tempo": 120.0
            },
            {
                "start_time": 13.1954545,
                "end_time": 13.2954545,
                "pitch": 53,
                "velocity": 64,
                "duration": 0.1,
                "tempo": 120.0
            },
            {
                "start_time": 13.8022727,
                "end_time": 14.0568182,
                "pitch": 53,
                "velocity": 64,
                "duration": 0.2545455,
                "tempo": 120.0
            },
            {
                "start_time": 14.1090909,
                "end_time": 14.3545455,
                "pitch": 55,
                "velocity": 64,
                "duration": 0.2454545,
                "tempo": 120.0
            },
            {
                "start_time": 14.7022727,
                "end_time": 14.8045455,
                "pitch": 57,
                "velocity": 64,
                "duration": 0.1022727,
                "tempo": 120.0
            },
            {
                "start_time": 15.1636364,
                "end_time": 15.5636364,
                "pitch": 57,
                "velocity": 64,
                "duration": 0.4,
                "tempo": 120.0
            },
            {
                "start_time": 15.9113636,
                "end_time": 16.0113636,
                "pitch": 57,
                "velocity": 64,
                "duration": 0.1,
                "tempo": 120.0
            },
            {
                "start_time": 16.3704545,
                "end_time": 16.4386364,
                "pitch": 57,
                "velocity": 64,
                "duration": 0.0681818,
                "tempo": 120.0
            },
            {
                "start_time": 16.5227273,
                "end_time": 16.5886364,
                "pitch": 57,
                "velocity": 64,
                "duration": 0.0659091,
                "tempo": 120.0
            },
            {
                "start_time": 16.6727273,
                "end_time": 16.7409091,
                "pitch": 57,
                "velocity": 64,
                "duration": 0.0681818,
                "tempo": 120.0
            },
            {
                "start_time": 17.125,
                "end_time": 17.225,
                "pitch": 55,
                "velocity": 64,
                "duration": 0.1,
                "tempo": 120.0
            },
            {
                "start_time": 17.5795455,
                "end_time": 17.9818182,
                "pitch": 55,
                "velocity": 64,
                "duration": 0.4022727,
                "tempo": 120.0
            },
            {
                "start_time": 18.3318182,
                "end_time": 18.4318182,
                "pitch": 55,
                "velocity": 64,
                "duration": 0.1,
                "tempo": 120.0
            },
            {
                "start_time": 18.7863636,
                "end_time": 18.8545455,
                "pitch": 55,
                "velocity": 64,
                "duration": 0.0681818,
                "tempo": 120.0
            },
            {
                "start_time": 18.9386364,
                "end_time": 19.0068182,
                "pitch": 55,
                "velocity": 64,
                "duration": 0.0681818,
                "tempo": 120.0
            },
            {
                "start_time": 19.0909091,
                "end_time": 19.1568182,
                "pitch": 55,
                "velocity": 64,
                "duration": 0.0659091,
                "tempo": 120.0
            },
            {
                "start_time": 19.5454545,
                "end_time": 19.6454545,
                "pitch": 53,
                "velocity": 64,
                "duration": 0.1,
                "tempo": 120.0
            },
            {
                "start_time": 19.9977273,
                "end_time": 20.3977273,
                "pitch": 53,
                "velocity": 64,
                "duration": 0.4,
                "tempo": 120.0
            },
            {
                "start_time": 20.7522727,
                "end_time": 20.8522727,
                "pitch": 53,
                "velocity": 64,
                "duration": 0.1,
                "tempo": 120.0
            },
            {
                "start_time": 21.2045455,
                "end_time": 21.2704545,
                "pitch": 53,
                "velocity": 64,
                "duration": 0.0659091,
                "tempo": 120.0
            },
            {
                "start_time": 21.3545455,
                "end_time": 21.4204545,
                "pitch": 53,
                "velocity": 64,
                "duration": 0.0659091,
                "tempo": 120.0
            },
            {
                "start_time": 21.5068182,
                "end_time": 21.5727273,
                "pitch": 53,
                "velocity": 64,
                "duration": 0.0659091,
                "tempo": 120.0
            },
            {
                "start_time": 21.9613636,
                "end_time": 22.0636364,
                "pitch": 52,
                "velocity": 64,
                "duration": 0.1022727,
                "tempo": 120.0
            },
            {
                "start_time": 22.4204545,
                "end_time": 22.8204545,
                "pitch": 52,
                "velocity": 64,
                "duration": 0.4,
                "tempo": 120.0
            },
            {
                "start_time": 23.1681818,
                "end_time": 23.2704545,
                "pitch": 52,
                "velocity": 64,
                "duration": 0.1022727,
                "tempo": 120.0
            },
            {
                "start_time": 23.6295455,
                "end_time": 23.6954545,
                "pitch": 52,
                "velocity": 64,
                "duration": 0.0659091,
                "tempo": 120.0
            },
            {
                "start_time": 23.7818182,
                "end_time": 23.8477273,
                "pitch": 52,
                "velocity": 64,
                "duration": 0.0659091,
                "tempo": 120.0
            },
            {
                "start_time": 23.9340909,
                "end_time": 24.0,
                "pitch": 52,
                "velocity": 64,
                "duration": 0.0659091,
                "tempo": 120.0
            },
            {
                "start_time": 24.3886364,
                "end_time": 24.4886364,
                "pitch": 57,
                "velocity": 64,
                "duration": 0.1,
                "tempo": 120.0
            },
            {
                "start_time": 24.8386364,
                "end_time": 25.2409091,
                "pitch": 57,
                "velocity": 64,
                "duration": 0.4022727,
                "tempo": 120.0
            },
            {
                "start_time": 25.5954545,
                "end_time": 25.6954545,
                "pitch": 57,
                "velocity": 64,
                "duration": 0.1,
                "tempo": 120.0
            },
            {
                "start_time": 26.0522727,
                "end_time": 26.1181818,
                "pitch": 57,
                "velocity": 64,
                "duration": 0.0659091,
                "tempo": 120.0
            },
            {
                "start_time": 26.2022727,
                "end_time": 26.2681818,
                "pitch": 57,
                "velocity": 64,
                "duration": 0.0659091,
                "tempo": 120.0
            },
            {
                "start_time": 26.3522727,
                "end_time": 26.4181818,
                "pitch": 57,
                "velocity": 64,
                "duration": 0.0659091,
                "tempo": 120.0
            },
            {
                "start_time": 26.8045455,
                "end_time": 26.9045455,
                "pitch": 55,
                "velocity": 64,
                "duration": 0.1,
                "tempo": 120.0
            },
            {
                "start_time": 27.2590909,
                "end_time": 27.6590909,
                "pitch": 55,
                "velocity": 64,
                "duration": 0.4,
                "tempo": 120.0
            },
            {
                "start_time": 28.0113636,
                "end_time": 28.1113636,
                "pitch": 55,
                "velocity": 64,
                "duration": 0.1,
                "tempo": 120.0
            },
            {
                "start_time": 28.4659091,
                "end_time": 28.5340909,
                "pitch": 55,
                "velocity": 64,
                "duration": 0.0681818,
                "tempo": 120.0
            },
            {
                "start_time": 28.6181818,
                "end_time": 28.6863636,
                "pitch": 55,
                "velocity": 64,
                "duration": 0.0681818,
                "tempo": 120.0
            },
            {
                "start_time": 28.7704545,
                "end_time": 28.8386364,
                "pitch": 55,
                "velocity": 64,
                "duration": 0.0681818,
                "tempo": 120.0
            },
            {
                "start_time": 29.2318182,
                "end_time": 29.3295455,
                "pitch": 53,
                "velocity": 64,
                "duration": 0.0977273,
                "tempo": 120.0
            },
            {
                "start_time": 29.6772727,
                "end_time": 30.0772727,
                "pitch": 53,
                "velocity": 64,
                "duration": 0.4,
                "tempo": 120.0
            },
            {
                "start_time": 30.4318182,
                "end_time": 30.5318182,
                "pitch": 53,
                "velocity": 64,
                "duration": 0.1,
                "tempo": 120.0
            },
            {
                "start_time": 30.8840909,
                "end_time": 30.95,
                "pitch": 53,
                "velocity": 64,
                "duration": 0.0659091,
                "tempo": 120.0
            },
            {
                "start_time": 31.0340909,
                "end_time": 31.1,
                "pitch": 53,
                "velocity": 64,
                "duration": 0.0659091,
                "tempo": 120.0
            },
            {
                "start_time": 31.1863636,
                "end_time": 31.2545455,
                "pitch": 53,
                "velocity": 64,
                "duration": 0.0681818,
                "tempo": 120.0
            },
            {
                "start_time": 31.6454545,
                "end_time": 31.7454545,
                "pitch": 52,
                "velocity": 64,
                "duration": 0.1,
                "tempo": 120.0
            },
            {
                "start_time": 32.0977273,
                "end_time": 32.5,
                "pitch": 52,
                "velocity": 64,
                "duration": 0.4022727,
                "tempo": 120.0
            },
            {
                "start_time": 32.8545455,
                "end_time": 32.9545455,
                "pitch": 52,
                "velocity": 64,
                "duration": 0.1,
                "tempo": 120.0
            },
            {
                "start_time": 33.3090909,
                "end_time": 33.375,
                "pitch": 52,
                "velocity": 64,
                "duration": 0.0659091,
                "tempo": 120.0
            },
            {
                "start_time": 33.4613636,
                "end_time": 33.5272727,
                "pitch": 52,
                "velocity": 64,
                "duration": 0.0659091,
                "tempo": 120.0
            },
            {
                "start_time": 33.6136364,
                "end_time": 33.6795455,
                "pitch": 52,
                "velocity": 64,
                "duration": 0.0659091,
                "tempo": 120.0
            },
            {
                "start_time": 63.1409091,
                "end_time": 63.2431818,
                "pitch": 57,
                "velocity": 101,
                "duration": 0.1022727,
                "tempo": 120.0
            },
            {
                "start_time": 63.5977273,
                "end_time": 63.6977273,
                "pitch": 57,
                "velocity": 101,
                "duration": 0.1,
                "tempo": 120.0
            },
            {
                "start_time": 64.0522727,
                "end_time": 64.4545455,
                "pitch": 55,
                "velocity": 101,
                "duration": 0.4022727,
                "tempo": 120.0
            },
            {
                "start_time": 64.5068182,
                "end_time": 64.9045455,
                "pitch": 53,
                "velocity": 101,
                "duration": 0.3977273,
                "tempo": 120.0
            },
            {
                "start_time": 64.9568182,
                "end_time": 65.2090909,
                "pitch": 52,
                "velocity": 101,
                "duration": 0.2522727,
                "tempo": 120.0
            },
            {
                "start_time": 65.5636364,
                "end_time": 65.6636364,
                "pitch": 57,
                "velocity": 101,
                "duration": 0.1,
                "tempo": 120.0
            },
            {
                "start_time": 66.0181818,
                "end_time": 66.1181818,
                "pitch": 57,
                "velocity": 101,
                "duration": 0.1,
                "tempo": 120.0
            },
            {
                "start_time": 66.4704545,
                "end_time": 66.8704545,
                "pitch": 55,
                "velocity": 101,
                "duration": 0.4,
                "tempo": 120.0
            },
            {
                "start_time": 66.9204545,
                "end_time": 67.3204545,
                "pitch": 53,
                "velocity": 101,
                "duration": 0.4,
                "tempo": 120.0
            },
            {
                "start_time": 67.3727273,
                "end_time": 67.625,
                "pitch": 52,
                "velocity": 101,
                "duration": 0.2522727,
                "tempo": 120.0
            },
            {
                "start_time": 67.9795455,
                "end_time": 68.0772727,
                "pitch": 53,
                "velocity": 101,
                "duration": 0.0977273,
                "tempo": 120.0
            },
            {
                "start_time": 68.4295455,
                "end_time": 68.5295455,
                "pitch": 53,
                "velocity": 101,
                "duration": 0.1,
                "tempo": 120.0
            },
            {
                "start_time": 68.8840909,
                "end_time": 69.2863636,
                "pitch": 55,
                "velocity": 101,
                "duration": 0.4022727,
                "tempo": 120.0
            },
            {
                "start_time": 69.3363636,
                "end_time": 69.7363636,
                "pitch": 53,
                "velocity": 101,
                "duration": 0.4,
                "tempo": 120.0
            },
            {
                "start_time": 69.7863636,
                "end_time": 70.0409091,
                "pitch": 55,
                "velocity": 101,
                "duration": 0.2545455,
                "tempo": 120.0
            }
        ],
        "Violin": [
            {
                "start_time": 40.725,
                "end_time": 40.975,
                "pitch": 55,
                "velocity": 80,
                "duration": 0.25,
                "tempo": 120.0
            },
            {
                "start_time": 41.025,
                "end_time": 42.7909091,
                "pitch": 57,
                "velocity": 80,
                "duration": 1.7659091,
                "tempo": 120.0
            },
            {
                "start_time": 42.8431818,
                "end_time": 43.3977273,
                "pitch": 55,
                "velocity": 80,
                "duration": 0.5545455,
                "tempo": 120.0
            },
            {
                "start_time": 43.45,
                "end_time": 45.5159091,
                "pitch": 57,
                "velocity": 80,
                "duration": 2.0659091,
                "tempo": 120.0
            },
            {
                "start_time": 45.5681818,
                "end_time": 45.8204545,
                "pitch": 55,
                "velocity": 80,
                "duration": 0.2522727,
                "tempo": 120.0
            },
            {
                "start_time": 45.8704545,
                "end_time": 47.6363636,
                "pitch": 57,
                "velocity": 80,
                "duration": 1.7659091,
                "tempo": 120.0
            },
            {
                "start_time": 47.6886364,
                "end_time": 48.2409091,
                "pitch": 55,
                "velocity": 80,
                "duration": 0.5522727,
                "tempo": 120.0
            },
            {
                "start_time": 48.2931818,
                "end_time": 50.6659091,
                "pitch": 57,
                "velocity": 80,
                "duration": 2.3727273,
                "tempo": 120.0
            },
            {
                "start_time": 50.7181818,
                "end_time": 52.4840909,
                "pitch": 53,
                "velocity": 101,
                "duration": 1.7659091,
                "tempo": 120.0
            },
            {
                "start_time": 52.5340909,
                "end_time": 52.6340909,
                "pitch": 53,
                "velocity": 101,
                "duration": 0.1,
                "tempo": 120.0
            },
            {
                "start_time": 52.6863636,
                "end_time": 53.0909091,
                "pitch": 53,
                "velocity": 101,
                "duration": 0.4045455,
                "tempo": 120.0
            },
            {
                "start_time": 53.1409091,
                "end_time": 54.9068182,
                "pitch": 52,
                "velocity": 101,
                "duration": 1.7659091,
                "tempo": 120.0
            },
            {
                "start_time": 54.9590909,
                "end_time": 55.5113636,
                "pitch": 52,
                "velocity": 101,
                "duration": 0.5522727,
                "tempo": 120.0
            },
            {
                "start_time": 55.5636364,
                "end_time": 56.725,
                "pitch": 53,
                "velocity": 101,
                "duration": 1.1613636,
                "tempo": 120.0
            },
            {
                "start_time": 56.7772727,
                "end_time": 57.3318182,
                "pitch": 55,
                "velocity": 101,
                "duration": 0.5545455,
                "tempo": 120.0
            },
            {
                "start_time": 57.3840909,
                "end_time": 57.9363636,
                "pitch": 53,
                "velocity": 101,
                "duration": 0.5522727,
                "tempo": 120.0
            },
            {
                "start_time": 57.9863636,
                "end_time": 59.7522727,
                "pitch": 52,
                "velocity": 101,
                "duration": 1.7659091,
                "tempo": 120.0
            },
            {
                "start_time": 59.8045455,
                "end_time": 60.3590909,
                "pitch": 52,
                "velocity": 101,
                "duration": 0.5545455,
                "tempo": 120.0
            },
            {
                "start_time": 60.4113636,
                "end_time": 61.5681818,
                "pitch": 53,
                "velocity": 101,
                "duration": 1.1568182,
                "tempo": 120.0
            },
            {
                "start_time": 61.6181818,
                "end_time": 62.175,
                "pitch": 55,
                "velocity": 101,
                "duration": 0.5568182,
                "tempo": 120.0
            },
            {
                "start_time": 62.225,
                "end_time": 62.4772727,
                "pitch": 53,
                "velocity": 101,
                "duration": 0.2522727,
                "tempo": 120.0
            },
            {
                "start_time": 62.5295455,
                "end_time": 62.7840909,
                "pitch": 55,
                "velocity": 101,
                "duration": 0.2545455,
                "tempo": 120.0
            }
        ],
        "Harpsichord": [
            {
                "start_time": 33.8159091,
                "end_time": 33.9659091,
                "pitch": 57,
                "velocity": 51,
                "duration": 0.15,
                "tempo": 120.0
            },
            {
                "start_time": 33.9659091,
                "end_time": 34.1181818,
                "pitch": 59,
                "velocity": 51,
                "duration": 0.1522727,
                "tempo": 120.0
            },
            {
                "start_time": 33.9659091,
                "end_time": 34.1181818,
                "pitch": 59,
                "velocity": 51,
                "duration": 0.1522727,
                "tempo": 120.0
            },
            {
                "start_time": 34.1181818,
                "end_time": 34.2681818,
                "pitch": 60,
                "velocity": 51,
                "duration": 0.15,
                "tempo": 120.0
            },
            {
                "start_time": 34.2681818,
                "end_time": 34.5681818,
                "pitch": 59,
                "velocity": 51,
                "duration": 0.3,
                "tempo": 120.0
            },
            {
                "start_time": 34.5681818,
                "end_time": 35.0227273,
                "pitch": 57,
                "velocity": 51,
                "duration": 0.4545455,
                "tempo": 120.0
            },
            {
                "start_time": 34.5681818,
                "end_time": 35.0227273,
                "pitch": 57,
                "velocity": 51,
                "duration": 0.4545455,
                "tempo": 120.0
            },
            {
                "start_time": 35.0227273,
                "end_time": 35.175,
                "pitch": 55,
                "velocity": 51,
                "duration": 0.1522727,
                "tempo": 120.0
            },
            {
                "start_time": 35.0227273,
                "end_time": 35.175,
                "pitch": 55,
                "velocity": 51,
                "duration": 0.1522727,
                "tempo": 120.0
            },
            {
                "start_time": 35.175,
                "end_time": 35.225,
                "pitch": 57,
                "velocity": 51,
                "duration": 0.05,
                "tempo": 120.0
            },
            {
                "start_time": 35.175,
                "end_time": 35.225,
                "pitch": 57,
                "velocity": 51,
                "duration": 0.05,
                "tempo": 120.0
            },
            {
                "start_time": 35.225,
                "end_time": 35.275,
                "pitch": 59,
                "velocity": 51,
                "duration": 0.05,
                "tempo": 120.0
            },
            {
                "start_time": 35.225,
                "end_time": 35.275,
                "pitch": 59,
                "velocity": 51,
                "duration": 0.05,
                "tempo": 120.0
            },
            {
                "start_time": 35.275,
                "end_time": 35.325,
                "pitch": 57,
                "velocity": 51,
                "duration": 0.05,
                "tempo": 120.0
            },
            {
                "start_time": 35.275,
                "end_time": 35.325,
                "pitch": 57,
                "velocity": 51,
                "duration": 0.05,
                "tempo": 120.0
            },
            {
                "start_time": 35.325,
                "end_time": 35.4772727,
                "pitch": 55,
                "velocity": 51,
                "duration": 0.1522727,
                "tempo": 120.0
            },
            {
                "start_time": 35.325,
                "end_time": 35.4772727,
                "pitch": 55,
                "velocity": 51,
                "duration": 0.1522727,
                "tempo": 120.0
            },
            {
                "start_time": 35.4772727,
                "end_time": 35.7818182,
                "pitch": 53,
                "velocity": 51,
                "duration": 0.3045455,
                "tempo": 120.0
            },
            {
                "start_time": 35.7818182,
                "end_time": 36.2409091,
                "pitch": 52,
                "velocity": 51,
                "duration": 0.4590909,
                "tempo": 120.0
            },
            {
                "start_time": 36.2409091,
                "end_time": 36.3931818,
                "pitch": 57,
                "velocity": 51,
                "duration": 0.1522727,
                "tempo": 120.0
            },
            {
                "start_time": 36.3931818,
                "end_time": 36.5454545,
                "pitch": 59,
                "velocity": 51,
                "duration": 0.1522727,
                "tempo": 120.0
            },
            {
                "start_time": 36.3931818,
                "end_time": 36.5454545,
                "pitch": 59,
                "velocity": 51,
                "duration": 0.1522727,
                "tempo": 120.0
            },
            {
                "start_time": 34.1181818,
                "end_time": 36.5454545,
                "pitch": 64,
                "velocity": 51,
                "duration": 2.4272727,
                "tempo": 120.0
            },
            {
                "start_time": 34.2681818,
                "end_time": 36.6931818,
                "pitch": 44,
                "velocity": 51,
                "duration": 2.425,
                "tempo": 120.0
            },
            {
                "start_time": 36.5454545,
                "end_time": 36.6931818,
                "pitch": 60,
                "velocity": 51,
                "duration": 0.1477273,
                "tempo": 120.0
            },
            {
                "start_time": 36.6931818,
                "end_time": 36.9909091,
                "pitch": 59,
                "velocity": 51,
                "duration": 0.2977273,
                "tempo": 120.0
            },
            {
                "start_time": 36.9909091,
                "end_time": 37.4409091,
                "pitch": 57,
                "velocity": 51,
                "duration": 0.45,
                "tempo": 120.0
            },
            {
                "start_time": 36.9909091,
                "end_time": 37.4409091,
                "pitch": 57,
                "velocity": 51,
                "duration": 0.45,
                "tempo": 120.0
            },
            {
                "start_time": 37.4409091,
                "end_time": 37.5909091,
                "pitch": 55,
                "velocity": 51,
                "duration": 0.15,
                "tempo": 120.0
            },
            {
                "start_time": 37.4409091,
                "end_time": 37.5909091,
                "pitch": 55,
                "velocity": 51,
                "duration": 0.15,
                "tempo": 120.0
            },
            {
                "start_time": 37.5909091,
                "end_time": 37.6409091,
                "pitch": 57,
                "velocity": 51,
                "duration": 0.05,
                "tempo": 120.0
            },
            {
                "start_time": 37.5909091,
                "end_time": 37.6409091,
                "pitch": 57,
                "velocity": 51,
                "duration": 0.05,
                "tempo": 120.0
            },
            {
                "start_time": 37.6409091,
                "end_time": 37.6909091,
                "pitch": 59,
                "velocity": 51,
                "duration": 0.05,
                "tempo": 120.0
            },
            {
                "start_time": 37.6409091,
                "end_time": 37.6909091,
                "pitch": 59,
                "velocity": 51,
                "duration": 0.05,
                "tempo": 120.0
            },
            {
                "start_time": 37.6909091,
                "end_time": 37.7409091,
                "pitch": 57,
                "velocity": 51,
                "duration": 0.05,
                "tempo": 120.0
            },
            {
                "start_time": 37.6909091,
                "end_time": 37.7409091,
                "pitch": 57,
                "velocity": 51,
                "duration": 0.05,
                "tempo": 120.0
            },
            {
                "start_time": 37.7409091,
                "end_time": 37.8954545,
                "pitch": 55,
                "velocity": 51,
                "duration": 0.1545455,
                "tempo": 120.0
            },
            {
                "start_time": 37.7409091,
                "end_time": 37.8954545,
                "pitch": 55,
                "velocity": 51,
                "duration": 0.1545455,
                "tempo": 120.0
            },
            {
                "start_time": 35.4772727,
                "end_time": 37.8954545,
                "pitch": 66,
                "velocity": 51,
                "duration": 2.4181818,
                "tempo": 120.0
            },
            {
                "start_time": 37.8954545,
                "end_time": 38.2022727,
                "pitch": 53,
                "velocity": 51,
                "duration": 0.3068182,
                "tempo": 120.0
            }
        ],
        "Trumpet": [
            {
                "start_time": 38.6590909,
                "end_time": 39.1090909,
                "pitch": 48,
                "velocity": 101,
                "duration": 0.45,
                "tempo": 120.0
            },
            {
                "start_time": 39.1090909,
                "end_time": 39.5568182,
                "pitch": 50,
                "velocity": 101,
                "duration": 0.4477273,
                "tempo": 120.0
            },
            {
                "start_time": 39.5568182,
                "end_time": 39.8636364,
                "pitch": 52,
                "velocity": 101,
                "duration": 0.3068182,
                "tempo": 120.0
            },
            {
                "start_time": 39.5568182,
                "end_time": 39.8636364,
                "pitch": 52,
                "velocity": 101,
                "duration": 0.3068182,
                "tempo": 120.0
            },
            {
                "start_time": 39.8636364,
                "end_time": 40.3204545,
                "pitch": 50,
                "velocity": 101,
                "duration": 0.4568182,
                "tempo": 120.0
            },
            {
                "start_time": 39.8636364,
                "end_time": 40.3204545,
                "pitch": 50,
                "velocity": 101,
                "duration": 0.4568182,
                "tempo": 120.0
            },
            {
                "start_time": 40.3204545,
                "end_time": 40.775,
                "pitch": 52,
                "velocity": 101,
                "duration": 0.4545455,
                "tempo": 120.0
            },
            {
                "start_time": 40.3204545,
                "end_time": 40.775,
                "pitch": 52,
                "velocity": 101,
                "duration": 0.4545455,
                "tempo": 120.0
            },
            {
                "start_time": 40.775,
                "end_time": 41.075,
                "pitch": 55,
                "velocity": 101,
                "duration": 0.3,
                "tempo": 120.0
            },
            {
                "start_time": 41.075,
                "end_time": 42.8931818,
                "pitch": 57,
                "velocity": 101,
                "duration": 1.8181818,
                "tempo": 120.0
            },
            {
                "start_time": 41.075,
                "end_time": 42.8931818,
                "pitch": 57,
                "velocity": 101,
                "duration": 1.8181818,
                "tempo": 120.0
            },
            {
                "start_time": 42.8931818,
                "end_time": 43.5022727,
                "pitch": 59,
                "velocity": 101,
                "duration": 0.6090909,
                "tempo": 120.0
            },
            {
                "start_time": 42.8931818,
                "end_time": 43.5022727,
                "pitch": 59,
                "velocity": 101,
                "duration": 0.6090909,
                "tempo": 120.0
            },
            {
                "start_time": 43.5022727,
                "end_time": 45.6181818,
                "pitch": 60,
                "velocity": 101,
                "duration": 2.1159091,
                "tempo": 120.0
            },
            {
                "start_time": 45.6181818,
                "end_time": 45.9227273,
                "pitch": 62,
                "velocity": 101,
                "duration": 0.3045455,
                "tempo": 120.0
            },
            {
                "start_time": 43.5022727,
                "end_time": 45.9227273,
                "pitch": 64,
                "velocity": 101,
                "duration": 2.4204545,
                "tempo": 120.0
            },
            {
                "start_time": 45.9227273,
                "end_time": 47.7409091,
                "pitch": 64,
                "velocity": 101,
                "duration": 1.8181818,
                "tempo": 120.0
            },
            {
                "start_time": 45.9227273,
                "end_time": 47.7409091,
                "pitch": 64,
                "velocity": 101,
                "duration": 1.8181818,
                "tempo": 120.0
            },
            {
                "start_time": 47.7409091,
                "end_time": 48.3431818,
                "pitch": 67,
                "velocity": 101,
                "duration": 0.6022727,
                "tempo": 120.0
            },
            {
                "start_time": 48.3431818,
                "end_time": 49.7090909,
                "pitch": 69,
                "velocity": 101,
                "duration": 1.3659091,
                "tempo": 120.0
            },
            {
                "start_time": 49.7090909,
                "end_time": 49.8590909,
                "pitch": 69,
                "velocity": 101,
                "duration": 0.15,
                "tempo": 120.0
            },
            {
                "start_time": 49.8590909,
                "end_time": 50.0113636,
                "pitch": 67,
                "velocity": 101,
                "duration": 0.1522727,
                "tempo": 120.0
            },
            {
                "start_time": 50.0113636,
                "end_time": 50.1636364,
                "pitch": 64,
                "velocity": 101,
                "duration": 0.1522727,
                "tempo": 120.0
            },
            {
                "start_time": 50.1636364,
                "end_time": 50.3159091,
                "pitch": 62,
                "velocity": 101,
                "duration": 0.1522727,
                "tempo": 120.0
            },
            {
                "start_time": 50.1636364,
                "end_time": 50.3159091,
                "pitch": 62,
                "velocity": 101,
                "duration": 0.1522727,
                "tempo": 120.0
            },
            {
                "start_time": 50.3159091,
                "end_time": 50.4159091,
                "pitch": 60,
                "velocity": 101,
                "duration": 0.1,
                "tempo": 120.0
            },
            {
                "start_time": 50.4159091,
                "end_time": 50.5159091,
                "pitch": 62,
                "velocity": 101,
                "duration": 0.1,
                "tempo": 120.0
            },
            {
                "start_time": 50.5159091,
                "end_time": 50.6159091,
                "pitch": 60,
                "velocity": 101,
                "duration": 0.1,
                "tempo": 120.0
            },
            {
                "start_time": 50.6159091,
                "end_time": 50.7681818,
                "pitch": 59,
                "velocity": 101,
                "duration": 0.1522727,
                "tempo": 120.0
            },
            {
                "start_time": 50.7681818,
                "end_time": 51.2204545,
                "pitch": 60,
                "velocity": 101,
                "duration": 0.4522727,
                "tempo": 120.0
            },
            {
                "start_time": 51.2204545,
                "end_time": 51.675,
                "pitch": 62,
                "velocity": 101,
                "duration": 0.4545455,
                "tempo": 120.0
            },
            {
                "start_time": 50.7681818,
                "end_time": 51.675,
                "pitch": 64,
                "velocity": 101,
                "duration": 0.9068182,
                "tempo": 120.0
            },
            {
                "start_time": 51.675,
                "end_time": 51.9772727,
                "pitch": 64,
                "velocity": 101,
                "duration": 0.3022727,
                "tempo": 120.0
            },
            {
                "start_time": 51.675,
                "end_time": 51.9772727,
                "pitch": 64,
                "velocity": 101,
                "duration": 0.3022727,
                "tempo": 120.0
            },
            {
                "start_time": 51.9772727,
                "end_time": 51.9795455,
                "pitch": 62,
                "velocity": 101,
                "duration": 0.0022727,
                "tempo": 120.0
            },
            {
                "start_time": 51.9795455,
                "end_time": 52.4340909,
                "pitch": 62,
                "velocity": 101,
                "duration": 0.4545455,
                "tempo": 120.0
            },
            {
                "start_time": 50.6159091,
                "end_time": 52.8886364,
                "pitch": 44,
                "velocity": 101,
                "duration": 2.2727273,
                "tempo": 120.0
            },
            {
                "start_time": 52.4340909,
                "end_time": 52.8886364,
                "pitch": 60,
                "velocity": 101,
                "duration": 0.4545455,
                "tempo": 120.0
            },
            {
                "start_time": 52.8886364,
                "end_time": 53.1909091,
                "pitch": 59,
                "velocity": 101,
                "duration": 0.3022727,
                "tempo": 120.0
            },
            {
                "start_time": 53.1909091,
                "end_time": 53.3431818,
                "pitch": 59,
                "velocity": 101,
                "duration": 0.1522727,
                "tempo": 120.0
            },
            {
                "start_time": 52.8886364,
                "end_time": 53.4954545,
                "pitch": 44,
                "velocity": 101,
                "duration": 0.6068182,
                "tempo": 120.0
            },
            {
                "start_time": 53.3431818,
                "end_time": 53.4954545,
                "pitch": 60,
                "velocity": 101,
                "duration": 0.1522727,
                "tempo": 120.0
            },
            {
                "start_time": 53.4954545,
                "end_time": 53.6454545,
                "pitch": 59,
                "velocity": 101,
                "duration": 0.15,
                "tempo": 120.0
            },
            {
                "start_time": 53.6454545,
                "end_time": 53.7954545,
                "pitch": 57,
                "velocity": 101,
                "duration": 0.15,
                "tempo": 120.0
            },
            {
                "start_time": 53.6454545,
                "end_time": 53.7954545,
                "pitch": 57,
                "velocity": 101,
                "duration": 0.15,
                "tempo": 120.0
            },
            {
                "start_time": 53.7954545,
                "end_time": 53.9454545,
                "pitch": 59,
                "velocity": 101,
                "duration": 0.15,
                "tempo": 120.0
            },
            {
                "start_time": 53.7954545,
                "end_time": 53.9454545,
                "pitch": 59,
                "velocity": 101,
                "duration": 0.15,
                "tempo": 120.0
            },
            {
                "start_time": 53.3431818,
                "end_time": 53.9454545,
                "pitch": 64,
                "velocity": 101,
                "duration": 0.6022727,
                "tempo": 120.0
            },
            {
                "start_time": 53.4954545,
                "end_time": 54.0954545,
                "pitch": 44,
                "velocity": 101,
                "duration": 0.6,
                "tempo": 120.0
            },
            {
                "start_time": 53.9454545,
                "end_time": 54.0954545,
                "pitch": 60,
                "velocity": 101,
                "duration": 0.15,
                "tempo": 120.0
            },
            {
                "start_time": 54.0954545,
                "end_time": 54.25,
                "pitch": 59,
                "velocity": 101,
                "duration": 0.1545455,
                "tempo": 120.0
            },
            {
                "start_time": 54.25,
                "end_time": 54.4022727,
                "pitch": 55,
                "velocity": 101,
                "duration": 0.1522727,
                "tempo": 120.0
            },
            {
                "start_time": 54.25,
                "end_time": 54.4022727,
                "pitch": 55,
                "velocity": 101,
                "duration": 0.1522727,
                "tempo": 120.0
            },
            {
                "start_time": 54.4022727,
                "end_time": 54.5568182,
                "pitch": 59,
                "velocity": 101,
                "duration": 0.1545455,
                "tempo": 120.0
            },
            {
                "start_time": 54.4022727,
                "end_time": 54.5568182,
                "pitch": 59,
                "velocity": 101,
                "duration": 0.1545455,
                "tempo": 120.0
            },
            {
                "start_time": 53.9454545,
                "end_time": 54.5568182,
                "pitch": 64,
                "velocity": 101,
                "duration": 0.6113636,
                "tempo": 120.0
            },
            {
                "start_time": 54.0954545,
                "end_time": 54.7090909,
                "pitch": 44,
                "velocity": 101,
                "duration": 0.6136364,
                "tempo": 120.0
            },
            {
                "start_time": 54.5568182,
                "end_time": 54.7090909,
                "pitch": 60,
                "velocity": 101,
                "duration": 0.1522727,
                "tempo": 120.0
            },
            {
                "start_time": 54.7090909,
                "end_time": 54.8590909,
                "pitch": 59,
                "velocity": 101,
                "duration": 0.15,
                "tempo": 120.0
            },
            {
                "start_time": 54.8590909,
                "end_time": 55.0090909,
                "pitch": 57,
                "velocity": 101,
                "duration": 0.15,
                "tempo": 120.0
            },
            {
                "start_time": 54.8590909,
                "end_time": 55.0090909,
                "pitch": 57,
                "velocity": 101,
                "duration": 0.15,
                "tempo": 120.0
            },
            {
                "start_time": 55.0090909,
                "end_time": 55.1590909,
                "pitch": 59,
                "velocity": 101,
                "duration": 0.15,
                "tempo": 120.0
            },
            {
                "start_time": 55.0090909,
                "end_time": 55.1590909,
                "pitch": 59,
                "velocity": 101,
                "duration": 0.15,
                "tempo": 120.0
            },
            {
                "start_time": 54.5568182,
                "end_time": 55.1590909,
                "pitch": 64,
                "velocity": 101,
                "duration": 0.6022727,
                "tempo": 120.0
            },
            {
                "start_time": 54.7090909,
                "end_time": 55.3090909,
                "pitch": 44,
                "velocity": 101,
                "duration": 0.6,
                "tempo": 120.0
            },
            {
                "start_time": 55.1590909,
                "end_time": 55.3090909,
                "pitch": 60,
                "velocity": 101,
                "duration": 0.15,
                "tempo": 120.0
            },
            {
                "start_time": 55.3090909,
                "end_time": 55.4613636,
                "pitch": 59,
                "velocity": 101,
                "duration": 0.1522727,
                "tempo": 120.0
            },
            {
                "start_time": 55.4613636,
                "end_time": 55.6136364,
                "pitch": 52,
                "velocity": 101,
                "duration": 0.1522727,
                "tempo": 120.0
            },
            {
                "start_time": 55.6136364,
                "end_time": 56.0681818,
                "pitch": 60,
                "velocity": 101,
                "duration": 0.4545455,
                "tempo": 120.0
            },
            {
                "start_time": 56.0681818,
                "end_time": 56.5227273,
                "pitch": 62,
                "velocity": 101,
                "duration": 0.4545455,
                "tempo": 120.0
            },
            {
                "start_time": 55.1590909,
                "end_time": 56.5227273,
                "pitch": 64,
                "velocity": 101,
                "duration": 1.3636364,
                "tempo": 120.0
            },
            {
                "start_time": 56.5227273,
                "end_time": 56.8272727,
                "pitch": 64,
                "velocity": 101,
                "duration": 0.3045455,
                "tempo": 120.0
            },
            {
                "start_time": 56.5227273,
                "end_time": 56.8272727,
                "pitch": 64,
                "velocity": 101,
                "duration": 0.3045455,
                "tempo": 120.0
            },
            {
                "start_time": 56.8272727,
                "end_time": 57.4340909,
                "pitch": 62,
                "velocity": 101,
                "duration": 0.6068182,
                "tempo": 120.0
            },
            {
                "start_time": 56.8272727,
                "end_time": 57.4340909,
                "pitch": 62,
                "velocity": 101,
                "duration": 0.6068182,
                "tempo": 120.0
            },
            {
                "start_time": 55.3090909,
                "end_time": 58.0363636,
                "pitch": 44,
                "velocity": 101,
                "duration": 2.7272727,
                "tempo": 120.0
            },
            {
                "start_time": 57.4340909,
                "end_time": 58.0363636,
                "pitch": 60,
                "velocity": 101,
                "duration": 0.6022727,
                "tempo": 120.0
            },
            {
                "start_time": 58.0363636,
                "end_time": 58.1863636,
                "pitch": 59,
                "velocity": 101,
                "duration": 0.15,
                "tempo": 120.0
            },
            {
                "start_time": 58.0363636,
                "end_time": 58.3386364,
                "pitch": 44,
                "velocity": 101,
                "duration": 0.3022727,
                "tempo": 120.0
            },
            {
                "start_time": 58.1863636,
                "end_time": 58.3386364,
                "pitch": 60,
                "velocity": 101,
                "duration": 0.1522727,
                "tempo": 120.0
            },
            {
                "start_time": 58.3386364,
                "end_time": 58.4886364,
                "pitch": 59,
                "velocity": 101,
                "duration": 0.15,
                "tempo": 120.0
            },
            {
                "start_time": 58.4886364,
                "end_time": 58.6409091,
                "pitch": 57,
                "velocity": 101,
                "duration": 0.1522727,
                "tempo": 120.0
            },
            {
                "start_time": 58.4886364,
                "end_time": 58.6409091,
                "pitch": 57,
                "velocity": 101,
                "duration": 0.1522727,
                "tempo": 120.0
            },
            {
                "start_time": 58.6409091,
                "end_time": 58.7931818,
                "pitch": 59,
                "velocity": 101,
                "duration": 0.1522727,
                "tempo": 120.0
            },
            {
                "start_time": 58.6409091,
                "end_time": 58.7931818,
                "pitch": 59,
                "velocity": 101,
                "duration": 0.1522727,
                "tempo": 120.0
            },
            {
                "start_time": 58.1863636,
                "end_time": 58.7931818,
                "pitch": 64,
                "velocity": 101,
                "duration": 0.6068182,
                "tempo": 120.0
            },
            {
                "start_time": 58.3386364,
                "end_time": 58.9454545,
                "pitch": 44,
                "velocity": 101,
                "duration": 0.6068182,
                "tempo": 120.0
            },
            {
                "start_time": 58.7931818,
                "end_time": 58.9454545,
                "pitch": 60,
                "velocity": 101,
                "duration": 0.1522727,
                "tempo": 120.0
            },
            {
                "start_time": 58.9454545,
                "end_time": 59.0954545,
                "pitch": 59,
                "velocity": 101,
                "duration": 0.15,
                "tempo": 120.0
            },
            {
                "start_time": 55.4613636,
                "end_time": 59.0954545,
                "pitch": 66,
                "velocity": 101,
                "duration": 3.6340909,
                "tempo": 120.0
            },
            {
                "start_time": 59.0954545,
                "end_time": 59.2477273,
                "pitch": 52,
                "velocity": 101,
                "duration": 0.1522727,
                "tempo": 120.0
            },
            {
                "start_time": 59.2477273,
                "end_time": 59.4,
                "pitch": 59,
                "velocity": 101,
                "duration": 0.1522727,
                "tempo": 120.0
            },
            {
                "start_time": 58.7931818,
                "end_time": 59.4,
                "pitch": 64,
                "velocity": 101,
                "duration": 0.6068182,
                "tempo": 120.0
            },
            {
                "start_time": 58.9454545,
                "end_time": 59.5522727,
                "pitch": 44,
                "velocity": 101,
                "duration": 0.6068182,
                "tempo": 120.0
            },
            {
                "start_time": 59.4,
                "end_time": 59.5522727,
                "pitch": 60,
                "velocity": 101,
                "duration": 0.1522727,
                "tempo": 120.0
            },
            {
                "start_time": 59.5522727,
                "end_time": 59.7022727,
                "pitch": 59,
                "velocity": 101,
                "duration": 0.15,
                "tempo": 120.0
            },
            {
                "start_time": 59.7022727,
                "end_time": 59.8545455,
                "pitch": 57,
                "velocity": 101,
                "duration": 0.1522727,
                "tempo": 120.0
            },
            {
                "start_time": 59.7022727,
                "end_time": 59.8545455,
                "pitch": 57,
                "velocity": 101,
                "duration": 0.1522727,
                "tempo": 120.0
            },
            {
                "start_time": 59.8545455,
                "end_time": 60.0068182,
                "pitch": 59,
                "velocity": 101,
                "duration": 0.1522727,
                "tempo": 120.0
            },
            {
                "start_time": 59.8545455,
                "end_time": 60.0068182,
                "pitch": 59,
                "velocity": 101,
                "duration": 0.1522727,
                "tempo": 120.0
            },
            {
                "start_time": 59.4,
                "end_time": 60.0068182,
                "pitch": 64,
                "velocity": 101,
                "duration": 0.6068182,
                "tempo": 120.0
            },
            {
                "start_time": 59.5522727,
                "end_time": 60.1590909,
                "pitch": 44,
                "velocity": 101,
                "duration": 0.6068182,
                "tempo": 120.0
            },
            {
                "start_time": 60.0068182,
                "end_time": 60.1590909,
                "pitch": 60,
                "velocity": 101,
                "duration": 0.1522727,
                "tempo": 120.0
            },
            {
                "start_time": 60.1590909,
                "end_time": 60.3090909,
                "pitch": 59,
                "velocity": 101,
                "duration": 0.15,
                "tempo": 120.0
            },
            {
                "start_time": 59.0954545,
                "end_time": 60.3090909,
                "pitch": 66,
                "velocity": 101,
                "duration": 1.2136364,
                "tempo": 120.0
            },
            {
                "start_time": 55.6136364,
                "end_time": 60.4613636,
                "pitch": 48,
                "velocity": 101,
                "duration": 4.8477273,
                "tempo": 120.0
            },
            {
                "start_time": 60.3090909,
                "end_time": 60.4613636,
                "pitch": 52,
                "velocity": 101,
                "duration": 0.1522727,
                "tempo": 120.0
            },
            {
                "start_time": 60.4613636,
                "end_time": 60.9159091,
                "pitch": 60,
                "velocity": 101,
                "duration": 0.4545455,
                "tempo": 120.0
            },
            {
                "start_time": 60.9159091,
                "end_time": 61.3659091,
                "pitch": 62,
                "velocity": 101,
                "duration": 0.45,
                "tempo": 120.0
            },
            {
                "start_time": 60.0068182,
                "end_time": 61.3659091,
                "pitch": 64,
                "velocity": 101,
                "duration": 1.3590909,
                "tempo": 120.0
            },
            {
                "start_time": 61.3659091,
                "end_time": 61.6681818,
                "pitch": 64,
                "velocity": 101,
                "duration": 0.3022727,
                "tempo": 120.0
            },
            {
                "start_time": 61.3659091,
                "end_time": 61.6681818,
                "pitch": 64,
                "velocity": 101,
                "duration": 0.3022727,
                "tempo": 120.0
            },
            {
                "start_time": 61.6681818,
                "end_time": 61.6704545,
                "pitch": 62,
                "velocity": 101,
                "duration": 0.0022727,
                "tempo": 120.0
            },
            {
                "start_time": 61.6704545,
                "end_time": 61.8204545,
                "pitch": 62,
                "velocity": 101,
                "duration": 0.15,
                "tempo": 120.0
            },
            {
                "start_time": 61.8204545,
                "end_time": 61.9727273,
                "pitch": 64,
                "velocity": 101,
                "duration": 0.1522727,
                "tempo": 120.0
            },
            {
                "start_time": 61.8204545,
                "end_time": 61.9727273,
                "pitch": 64,
                "velocity": 101,
                "duration": 0.1522727,
                "tempo": 120.0
            },
            {
                "start_time": 61.9727273,
                "end_time": 62.125,
                "pitch": 65,
                "velocity": 101,
                "duration": 0.1522727,
                "tempo": 120.0
            },
            {
                "start_time": 62.125,
                "end_time": 62.2772727,
                "pitch": 64,
                "velocity": 101,
                "duration": 0.1522727,
                "tempo": 120.0
            },
            {
                "start_time": 62.2772727,
                "end_time": 62.4272727,
                "pitch": 65,
                "velocity": 101,
                "duration": 0.15,
                "tempo": 120.0
            },
            {
                "start_time": 62.4272727,
                "end_time": 62.5795455,
                "pitch": 67,
                "velocity": 101,
                "duration": 0.1522727,
                "tempo": 120.0
            },
            {
                "start_time": 50.0113636,
                "end_time": 62.5795455,
                "pitch": 78,
                "velocity": 101,
                "duration": 12.5681818,
                "tempo": 120.0
            },
            {
                "start_time": 60.1590909,
                "end_time": 62.7340909,
                "pitch": 44,
                "velocity": 101,
                "duration": 2.575,
                "tempo": 120.0
            },
            {
                "start_time": 62.5795455,
                "end_time": 62.7340909,
                "pitch": 65,
                "velocity": 101,
                "duration": 0.1545455,
                "tempo": 120.0
            }
        ]
    }
}