{
    "mood": "angry",
    "instruments": {
        "Electric Piano 1": [
            {
                "start_time": 0.0295455,
                "end_time": 0.1272727,
                "pitch": 31,
                "velocity": 64,
                "duration": 0.0977273,
                "tempo": 120.0
            },
            {
                "start_time": 0.1295455,
                "end_time": 0.3454545,
                "pitch": 31,
                "velocity": 64,
                "duration": 0.2159091,
                "tempo": 120.0
            },
            {
                "start_time": 0.3454545,
                "end_time": 0.6795455,
                "pitch": 31,
                "velocity": 64,
                "duration": 0.3340909,
                "tempo": 120.0
            },
            {
                "start_time": 0.6795455,
                "end_time": 0.8795455,
                "pitch": 31,
                "velocity": 64,
                "duration": 0.2,
                "tempo": 120.0
            },
            {
                "start_time": 1.0931818,
                "end_time": 1.3045455,
                "pitch": 31,
                "velocity": 64,
                "duration": 0.2113636,
                "tempo": 120.0
            },
            {
                "start_time": 1.5227273,
                "end_time": 1.7386364,
                "pitch": 31,
                "velocity": 64,
                "duration": 0.2159091,
                "tempo": 120.0
            },
            {
                "start_time": 1.7409091,
                "end_time": 2.0568182,
                "pitch": 31,
                "velocity": 64,
                "duration": 0.3159091,
                "tempo": 120.0
            },
            {
                "start_time": 2.0568182,
                "end_time": 2.3772727,
                "pitch": 31,
                "velocity": 64,
                "duration": 0.3204545,
                "tempo": 120.0
            },
            {
                "start_time": 2.3795455,
                "end_time": 2.6,
                "pitch": 31,
                "velocity": 64,
                "duration": 0.2204545,
                "tempo": 120.0
            },
            {
                "start_time": 2.8068182,
                "end_time": 2.9181818,
                "pitch": 31,
                "velocity": 64,
                "duration": 0.1113636,
                "tempo": 120.0
            },
            {
                "start_time": 2.9181818,
                "end_time": 3.0136364,
                "pitch": 31,
                "velocity": 64,
                "duration": 0.0954545,
                "tempo": 120.0
            },
            {
                "start_time": 3.2363636,
                "end_time": 3.4568182,
                "pitch": 31,
                "velocity": 64,
                "duration": 0.2204545,
                "tempo": 120.0
            },
            {
                "start_time": 3.4590909,
                "end_time": 3.5568182,
                "pitch": 31,
                "velocity": 64,
                "duration": 0.0977273,
                "tempo": 120.0
            },
            {
                "start_time": 3.5568182,
                "end_time": 3.775,
                "pitch": 31,
                "velocity": 64,
                "duration": 0.2181818,
                "tempo": 120.0
            },
            {
                "start_time": 3.775,
                "end_time": 4.1090909,
                "pitch": 31,
                "velocity": 64,
                "duration": 0.3340909,
                "tempo": 120.0
            },
            {
                "start_time": 4.1090909,
                "end_time": 4.3090909,
                "pitch": 31,
                "velocity": 64,
                "duration": 0.2,
                "tempo": 120.0
            },
            {
                "start_time": 4.5204545,
                "end_time": 4.7340909,
                "pitch": 31,
                "velocity": 64,
                "duration": 0.2136364,
                "tempo": 120.0
            },
            {
                "start_time": 4.9522727,
                "end_time": 5.1681818,
                "pitch": 31,
                "velocity": 64,
                "duration": 0.2159091,
                "tempo": 120.0
            },
            {
                "start_time": 5.1681818,
                "end_time": 5.4840909,
                "pitch": 31,
                "velocity": 64,
                "duration": 0.3159091,
                "tempo": 120.0
            },
            {
                "start_time": 5.4863636,
                "end_time": 5.8068182,
                "pitch": 31,
                "velocity": 64,
                "duration": 0.3204545,
                "tempo": 120.0
            },
            {
                "start_time": 5.8068182,
                "end_time": 6.0295455,
                "pitch": 31,
                "velocity": 64,
                "duration": 0.2227273,
                "tempo": 120.0
            },
            {
                "start_time": 6.2363636,
                "end_time": 6.3477273,
                "pitch": 31,
                "velocity": 64,
                "duration": 0.1113636,
                "tempo": 120.0
            },
            {
                "start_time": 6.3477273,
                "end_time": 6.4431818,
                "pitch": 31,
                "velocity": 64,
                "duration": 0.0954545,
                "tempo": 120.0
            },
            {
                "start_time": 6.6590909,
                "end_time": 6.8772727,
                "pitch": 31,
                "velocity": 64,
                "duration": 0.2181818,
                "tempo": 120.0
            },
            {
                "start_time": 6.8772727,
                "end_time": 6.975,
                "pitch": 33,
                "velocity": 64,
                "duration": 0.0977273,
                "tempo": 120.0
            },
            {
                "start_time": 6.9772727,
                "end_time": 7.1931818,
                "pitch": 33,
                "velocity": 64,
                "duration": 0.2159091,
                "tempo": 120.0
            },
            {
                "start_time": 7.1954545,
                "end_time": 7.2931818,
                "pitch": 33,
                "velocity": 64,
                "duration": 0.0977273,
                "tempo": 120.0
            },
            {
                "start_time": 7.5159091,
                "end_time": 7.7363636,
                "pitch": 33,
                "velocity": 64,
                "duration": 0.2204545,
                "tempo": 120.0
            },
            {
                "start_time": 7.9431818,
                "end_time": 8.15,
                "pitch": 33,
                "velocity": 64,
                "duration": 0.2068182,
                "tempo": 120.0
            },
            {
                "start_time": 8.3727273,
                "end_time": 8.5931818,
                "pitch": 33,
                "velocity": 64,
                "duration": 0.2204545,
                "tempo": 120.0
            },
            {
                "start_time": 8.5954545,
                "end_time": 8.9113636,
                "pitch": 33,
                "velocity": 64,
                "duration": 0.3159091,
                "tempo": 120.0
            },
            {
                "start_time": 8.9113636,
                "end_time": 9.0113636,
                "pitch": 33,
                "velocity": 64,
                "duration": 0.1,
                "tempo": 120.0
            },
            {
                "start_time": 9.2295455,
                "end_time": 9.4454545,
                "pitch": 33,
                "velocity": 64,
                "duration": 0.2159091,
                "tempo": 120.0
            },
            {
                "start_time": 9.6590909,
                "end_time": 9.7568182,
                "pitch": 33,
                "velocity": 64,
                "duration": 0.0977273,
                "tempo": 120.0
            },
            {
                "start_time": 9.7568182,
                "end_time": 9.8704545,
                "pitch": 33,
                "velocity": 64,
                "duration": 0.1136364,
                "tempo": 120.0
            },
            {
                "start_time": 10.0886364,
                "end_time": 10.2886364,
                "pitch": 33,
                "velocity": 64,
                "duration": 0.2,
                "tempo": 120.0
            },
            {
                "start_time": 10.2886364,
                "end_time": 10.4045455,
                "pitch": 33,
                "velocity": 64,
                "duration": 0.1159091,
                "tempo": 120.0
            },
            {
                "start_time": 10.4045455,
                "end_time": 10.6227273,
                "pitch": 33,
                "velocity": 64,
                "duration": 0.2181818,
                "tempo": 120.0
            },
            {
                "start_time": 10.6227273,
                "end_time": 10.7227273,
                "pitch": 33,
                "velocity": 64,
                "duration": 0.1,
                "tempo": 120.0
            },
            {
                "start_time": 10.9363636,
                "end_time": 11.1477273,
                "pitch": 33,
                "velocity": 64,
                "duration": 0.2113636,
                "tempo": 120.0
            },
            {
                "start_time": 11.3659091,
                "end_time": 11.5818182,
                "pitch": 33,
                "velocity": 64,
                "duration": 0.2159091,
                "tempo": 120.0
            },
            {
                "start_time": 11.7818182,
                "end_time": 12.0,
                "pitch": 33,
                "velocity": 64,
                "duration": 0.2181818,
                "tempo": 120.0
            },
            {
                "start_time": 12.0,
                "end_time": 12.3340909,
                "pitch": 33,
                "velocity": 64,
                "duration": 0.3340909,
                "tempo": 120.0
            },
            {
                "start_time": 12.3340909,
                "end_time": 12.6454545,
                "pitch": 33,
                "velocity": 64,
                "duration": 0.3113636,
                "tempo": 120.0
            },
            {
                "start_time": 12.6477273,
                "end_time": 12.8590909,
                "pitch": 33,
                "velocity": 64,
                "duration": 0.2113636,
                "tempo": 120.0
            },
            {
                "start_time": 12.8590909,
                "end_time": 13.075,
                "pitch": 29,
                "velocity": 64,
                "duration": 0.2159091,
                "tempo": 120.0
            },
            {
                "start_time": 13.0772727,
                "end_time": 13.175,
                "pitch": 29,
                "velocity": 64,
                "duration": 0.0977273,
                "tempo": 120.0
            },
            {
                "start_time": 13.1772727,
                "end_time": 13.2772727,
                "pitch": 28,
                "velocity": 64,
                "duration": 0.1,
                "tempo": 120.0
            },
            {
                "start_time": 13.2772727,
                "end_time": 13.7113636,
                "pitch": 28,
                "velocity": 64,
                "duration": 0.4340909,
                "tempo": 120.0
            },
            {
                "start_time": 13.7113636,
                "end_time": 13.825,
                "pitch": 27,
                "velocity": 64,
                "duration": 0.1136364,
                "tempo": 120.0
            },
            {
                "start_time": 13.825,
                "end_time": 14.0204545,
                "pitch": 27,
                "velocity": 64,
                "duration": 0.1954545,
                "tempo": 120.0
            },
            {
                "start_time": 14.0204545,
                "end_time": 14.1340909,
                "pitch": 27,
                "velocity": 64,
                "duration": 0.1136364,
                "tempo": 120.0
            },
            {
                "start_time": 14.1363636,
                "end_time": 14.3522727,
                "pitch": 27,
                "velocity": 64,
                "duration": 0.2159091,
                "tempo": 120.0
            },
            {
                "start_time": 14.3522727,
                "end_time": 14.5704545,
                "pitch": 27,
                "velocity": 64,
                "duration": 0.2181818,
                "tempo": 120.0
            },
            {
                "start_time": 14.5704545,
                "end_time": 14.775,
                "pitch": 29,
                "velocity": 64,
                "duration": 0.2045455,
                "tempo": 120.0
            },
            {
                "start_time": 14.775,
                "end_time": 14.8931818,
                "pitch": 29,
                "velocity": 64,
                "duration": 0.1181818,
                "tempo": 120.0
            },
            {
                "start_time": 14.8954545,
                "end_time": 14.9954545,
                "pitch": 29,
                "velocity": 64,
                "duration": 0.1,
                "tempo": 120.0
            },
            {
                "start_time": 15.2136364,
                "end_time": 15.3295455,
                "pitch": 29,
                "velocity": 64,
                "duration": 0.1159091,
                "tempo": 120.0
            },
            {
                "start_time": 15.3318182,
                "end_time": 15.4318182,
                "pitch": 30,
                "velocity": 64,
                "duration": 0.1,
                "tempo": 120.0
            },
            {
                "start_time": 15.4318182,
                "end_time": 15.6363636,
                "pitch": 31,
                "velocity": 64,
                "duration": 0.2045455,
                "tempo": 120.0
            },
            {
                "start_time": 15.6386364,
                "end_time": 15.8431818,
                "pitch": 31,
                "velocity": 64,
                "duration": 0.2045455,
                "tempo": 120.0
            },
            {
                "start_time": 16.0659091,
                "end_time": 16.2704545,
                "pitch": 31,
                "velocity": 64,
                "duration": 0.2045455,
                "tempo": 120.0
            },
            {
                "start_time": 16.2704545,
                "end_time": 16.4886364,
                "pitch": 34,
                "velocity": 64,
                "duration": 0.2181818,
                "tempo": 120.0
            },
            {
                "start_time": 16.4886364,
                "end_time": 16.6045455,
                "pitch": 34,
                "velocity": 64,
                "duration": 0.1159091,
                "tempo": 120.0
            },
            {
                "start_time": 16.6045455,
                "end_time": 16.9181818,
                "pitch": 33,
                "velocity": 64,
                "duration": 0.3136364,
                "tempo": 120.0
            },
            {
                "start_time": 16.9181818,
                "end_time": 17.1295455,
                "pitch": 31,
                "velocity": 64,
                "duration": 0.2113636,
                "tempo": 120.0
            },
            {
                "start_time": 17.1318182,
                "end_time": 17.2295455,
                "pitch": 27,
                "velocity": 64,
                "duration": 0.0977273,
                "tempo": 120.0
            },
            {
                "start_time": 17.2318182,
                "end_time": 17.4477273,
                "pitch": 27,
                "velocity": 64,
                "duration": 0.2159091,
                "tempo": 120.0
            },
            {
                "start_time": 17.4477273,
                "end_time": 17.7659091,
                "pitch": 27,
                "velocity": 64,
                "duration": 0.3181818,
                "tempo": 120.0
            },
            {
                "start_time": 17.7659091,
                "end_time": 17.9818182,
                "pitch": 27,
                "velocity": 64,
                "duration": 0.2159091,
                "tempo": 120.0
            },
            {
                "start_time": 17.9818182,
                "end_time": 18.2,
                "pitch": 29,
                "velocity": 64,
                "duration": 0.2181818,
                "tempo": 120.0
            },
            {
                "start_time": 18.2,
                "end_time": 18.3159091,
                "pitch": 29,
                "velocity": 64,
                "duration": 0.1159091,
                "tempo": 120.0
            },
            {
                "start_time": 18.3159091,
                "end_time": 18.6295455,
                "pitch": 29,
                "velocity": 64,
                "duration": 0.3136364,
                "tempo": 120.0
            },
            {
                "start_time": 18.6295455,
                "end_time": 18.7272727,
                "pitch": 29,
                "velocity": 64,
                "duration": 0.0977273,
                "tempo": 120.0
            },
            {
                "start_time": 18.7272727,
                "end_time": 18.8409091,
                "pitch": 30,
                "velocity": 64,
                "duration": 0.1136364,
                "tempo": 120.0
            },
            {
                "start_time": 18.8431818,
                "end_time": 19.0590909,
                "pitch": 31,
                "velocity": 64,
                "duration": 0.2159091,
                "tempo": 120.0
            },
            {
                "start_time": 19.0590909,
                "end_time": 19.1590909,
                "pitch": 31,
                "velocity": 64,
                "duration": 0.1,
                "tempo": 120.0
            },
            {
                "start_time": 19.1590909,
                "end_time": 19.375,
                "pitch": 33,
                "velocity": 64,
                "duration": 0.2159091,
                "tempo": 120.0
            },
            {
                "start_time": 19.3772727,
                "end_time": 19.475,
                "pitch": 33,
                "velocity": 64,
                "duration": 0.0977273,
                "tempo": 120.0
            },
            {
                "start_time": 19.4772727,
                "end_time": 19.6931818,
                "pitch": 34,
                "velocity": 64,
                "duration": 0.2159091,
                "tempo": 120.0
            },
            {
                "start_time": 19.6931818,
                "end_time": 19.9045455,
                "pitch": 31,
                "velocity": 64,
                "duration": 0.2113636,
                "tempo": 120.0
            },
            {
                "start_time": 19.9068182,
                "end_time": 20.0022727,
                "pitch": 41,
                "velocity": 64,
                "duration": 0.0954545,
                "tempo": 120.0
            },
            {
                "start_time": 20.0045455,
                "end_time": 20.1181818,
                "pitch": 43,
                "velocity": 64,
                "duration": 0.1136364,
                "tempo": 120.0
            },
            {
                "start_time": 20.3363636,
                "end_time": 20.5522727,
                "pitch": 31,
                "velocity": 64,
                "duration": 0.2159091,
                "tempo": 120.0
            },
            {
                "start_time": 20.5522727,
                "end_time": 20.6522727,
                "pitch": 27,
                "velocity": 64,
                "duration": 0.1,
                "tempo": 120.0
            },
            {
                "start_time": 20.6522727,
                "end_time": 20.8704545,
                "pitch": 27,
                "velocity": 64,
                "duration": 0.2181818,
                "tempo": 120.0
            },
            {
                "start_time": 20.8704545,
                "end_time": 20.9704545,
                "pitch": 27,
                "velocity": 64,
                "duration": 0.1,
                "tempo": 120.0
            },
            {
                "start_time": 20.9704545,
                "end_time": 21.1909091,
                "pitch": 27,
                "velocity": 64,
                "duration": 0.2204545,
                "tempo": 120.0
            },
            {
                "start_time": 21.1931818,
                "end_time": 21.4136364,
                "pitch": 27,
                "velocity": 64,
                "duration": 0.2204545,
                "tempo": 120.0
            },
            {
                "start_time": 21.4136364,
                "end_time": 21.625,
                "pitch": 29,
                "velocity": 64,
                "duration": 0.2113636,
                "tempo": 120.0
            },
            {
                "start_time": 21.6272727,
                "end_time": 21.725,
                "pitch": 29,
                "velocity": 64,
                "duration": 0.0977273,
                "tempo": 120.0
            },
            {
                "start_time": 21.725,
                "end_time": 21.8386364,
                "pitch": 29,
                "velocity": 64,
                "duration": 0.1136364,
                "tempo": 120.0
            },
            {
                "start_time": 22.0568182,
                "end_time": 22.1545455,
                "pitch": 29,
                "velocity": 64,
                "duration": 0.0977273,
                "tempo": 120.0
            },
            {
                "start_time": 22.1568182,
                "end_time": 22.2568182,
                "pitch": 30,
                "velocity": 64,
                "duration": 0.1,
                "tempo": 120.0
            },
            {
                "start_time": 22.2568182,
                "end_time": 22.4681818,
                "pitch": 31,
                "velocity": 64,
                "duration": 0.2113636,
                "tempo": 120.0
            },
            {
                "start_time": 22.4681818,
                "end_time": 22.6818182,
                "pitch": 31,
                "velocity": 64,
                "duration": 0.2136364,
                "tempo": 120.0
            },
            {
                "start_time": 22.8954545,
                "end_time": 23.1068182,
                "pitch": 31,
                "velocity": 64,
                "duration": 0.2113636,
                "tempo": 120.0
            },
            {
                "start_time": 23.1068182,
                "end_time": 23.3227273,
                "pitch": 34,
                "velocity": 64,
                "duration": 0.2159091,
                "tempo": 120.0
            },
            {
                "start_time": 23.325,
                "end_time": 23.4227273,
                "pitch": 34,
                "velocity": 64,
                "duration": 0.0977273,
                "tempo": 120.0
            },
            {
                "start_time": 23.425,
                "end_time": 23.7454545,
                "pitch": 33,
                "velocity": 64,
                "duration": 0.3204545,
                "tempo": 120.0
            },
            {
                "start_time": 23.7454545,
                "end_time": 23.9681818,
                "pitch": 31,
                "velocity": 64,
                "duration": 0.2227273,
                "tempo": 120.0
            },
            {
                "start_time": 23.9681818,
                "end_time": 24.0772727,
                "pitch": 39,
                "velocity": 64,
                "duration": 0.1090909,
                "tempo": 120.0
            },
            {
                "start_time": 24.0795455,
                "end_time": 24.2840909,
                "pitch": 39,
                "velocity": 64,
                "duration": 0.2045455,
                "tempo": 120.0
            },
            {
                "start_time": 24.2863636,
                "end_time": 24.6022727,
                "pitch": 39,
                "velocity": 64,
                "duration": 0.3159091,
                "tempo": 120.0
            },
            {
                "start_time": 24.6022727,
                "end_time": 24.7045455,
                "pitch": 39,
                "velocity": 64,
                "duration": 0.1022727,
                "tempo": 120.0
            },
            {
                "start_time": 24.7045455,
                "end_time": 25.0409091,
                "pitch": 38,
                "velocity": 64,
                "duration": 0.3363636,
                "tempo": 120.0
            },
            {
                "start_time": 25.0431818,
                "end_time": 25.2409091,
                "pitch": 36,
                "velocity": 64,
                "duration": 0.1977273,
                "tempo": 120.0
            },
            {
                "start_time": 25.2431818,
                "end_time": 25.4590909,
                "pitch": 34,
                "velocity": 64,
                "duration": 0.2159091,
                "tempo": 120.0
            },
            {
                "start_time": 25.4590909,
                "end_time": 25.675,
                "pitch": 33,
                "velocity": 64,
                "duration": 0.2159091,
                "tempo": 120.0
            },
            {
                "start_time": 25.6772727,
                "end_time": 25.8886364,
                "pitch": 31,
                "velocity": 64,
                "duration": 0.2113636,
                "tempo": 120.0
            },
            {
                "start_time": 25.8886364,
                "end_time": 25.9863636,
                "pitch": 31,
                "velocity": 64,
                "duration": 0.0977273,
                "tempo": 120.0
            },
            {
                "start_time": 25.9863636,
                "end_time": 26.2,
                "pitch": 31,
                "velocity": 64,
                "duration": 0.2136364,
                "tempo": 120.0
            },
            {
                "start_time": 26.2022727,
                "end_time": 26.3181818,
                "pitch": 31,
                "velocity": 64,
                "duration": 0.1159091,
                "tempo": 120.0
            },
            {
                "start_time": 26.3181818,
                "end_time": 26.5340909,
                "pitch": 31,
                "velocity": 64,
                "duration": 0.2159091,
                "tempo": 120.0
            },
            {
                "start_time": 26.5363636,
                "end_time": 26.6340909,
                "pitch": 36,
                "velocity": 64,
                "duration": 0.0977273,
                "tempo": 120.0
            },
            {
                "start_time": 26.6363636,
                "end_time": 26.7340909,
                "pitch": 37,
                "velocity": 64,
                "duration": 0.0977273,
                "tempo": 120.0
            },
            {
                "start_time": 26.7363636,
                "end_time": 26.8522727,
                "pitch": 36,
                "velocity": 64,
                "duration": 0.1159091,
                "tempo": 120.0
            },
            {
                "start_time": 26.8522727,
                "end_time": 26.9522727,
                "pitch": 34,
                "velocity": 64,
                "duration": 0.1,
                "tempo": 120.0
            },
            {
                "start_time": 27.1659091,
                "end_time": 27.3772727,
                "pitch": 31,
                "velocity": 64,
                "duration": 0.2113636,
                "tempo": 120.0
            },
            {
                "start_time": 27.3795455,
                "end_time": 27.5954545,
                "pitch": 36,
                "velocity": 64,
                "duration": 0.2159091,
                "tempo": 120.0
            },
            {
                "start_time": 27.5954545,
                "end_time": 27.8113636,
                "pitch": 36,
                "velocity": 64,
                "duration": 0.2159091,
                "tempo": 120.0
            },
            {
                "start_time": 28.0295455,
                "end_time": 28.2295455,
                "pitch": 36,
                "velocity": 64,
                "duration": 0.2,
                "tempo": 120.0
            },
            {
                "start_time": 28.2295455,
                "end_time": 28.4454545,
                "pitch": 36,
                "velocity": 64,
                "duration": 0.2159091,
                "tempo": 120.0
            },
            {
                "start_time": 28.4477273,
                "end_time": 28.5636364,
                "pitch": 36,
                "velocity": 64,
                "duration": 0.1159091,
                "tempo": 120.0
            },
            {
                "start_time": 28.5636364,
                "end_time": 28.6636364,
                "pitch": 36,
                "velocity": 64,
                "duration": 0.1,
                "tempo": 120.0
            },
            {
                "start_time": 28.8772727,
                "end_time": 29.0886364,
                "pitch": 36,
                "velocity": 64,
                "duration": 0.2113636,
                "tempo": 120.0
            },
            {
                "start_time": 29.0886364,
                "end_time": 29.1886364,
                "pitch": 36,
                "velocity": 64,
                "duration": 0.1,
                "tempo": 120.0
            },
            {
                "start_time": 29.1886364,
                "end_time": 29.4068182,
                "pitch": 36,
                "velocity": 64,
                "duration": 0.2181818,
                "tempo": 120.0
            },
            {
                "start_time": 29.4068182,
                "end_time": 29.7272727,
                "pitch": 36,
                "velocity": 64,
                "duration": 0.3204545,
                "tempo": 120.0
            },
            {
                "start_time": 29.7272727,
                "end_time": 29.95,
                "pitch": 36,
                "velocity": 64,
                "duration": 0.2227273,
                "tempo": 120.0
            },
            {
                "start_time": 29.95,
                "end_time": 30.1613636,
                "pitch": 36,
                "velocity": 64,
                "duration": 0.2113636,
                "tempo": 120.0
            },
            {
                "start_time": 30.1636364,
                "end_time": 30.2772727,
                "pitch": 36,
                "velocity": 64,
                "duration": 0.1136364,
                "tempo": 120.0
            },
            {
                "start_time": 30.2772727,
                "end_time": 30.5909091,
                "pitch": 36,
                "velocity": 64,
                "duration": 0.3136364,
                "tempo": 120.0
            },
            {
                "start_time": 30.5931818,
                "end_time": 30.6909091,
                "pitch": 34,
                "velocity": 64,
                "duration": 0.0977273,
                "tempo": 120.0
            },
            {
                "start_time": 30.6931818,
                "end_time": 30.8090909,
                "pitch": 33,
                "velocity": 64,
                "duration": 0.1159091,
                "tempo": 120.0
            },
            {
                "start_time": 30.8090909,
                "end_time": 31.0204545,
                "pitch": 31,
                "velocity": 64,
                "duration": 0.2113636,
                "tempo": 120.0
            },
            {
                "start_time": 31.0227273,
                "end_time": 31.2181818,
                "pitch": 31,
                "velocity": 64,
                "duration": 0.1954545,
                "tempo": 120.0
            },
            {
                "start_time": 31.4386364,
                "end_time": 31.6613636,
                "pitch": 31,
                "velocity": 64,
                "duration": 0.2227273,
                "tempo": 120.0
            },
            {
                "start_time": 31.6613636,
                "end_time": 31.8772727,
                "pitch": 31,
                "velocity": 64,
                "duration": 0.2159091,
                "tempo": 120.0
            },
            {
                "start_time": 31.8795455,
                "end_time": 31.9795455,
                "pitch": 31,
                "velocity": 64,
                "duration": 0.1,
                "tempo": 120.0
            },
            {
                "start_time": 31.9795455,
                "end_time": 32.0954545,
                "pitch": 31,
                "velocity": 64,
                "duration": 0.1159091,
                "tempo": 120.0
            },
            {
                "start_time": 32.3090909,
                "end_time": 32.5204545,
                "pitch": 31,
                "velocity": 64,
                "duration": 0.2113636,
                "tempo": 120.0
            },
            {
                "start_time": 32.5204545,
                "end_time": 32.6204545,
                "pitch": 31,
                "velocity": 64,
                "duration": 0.1,
                "tempo": 120.0
            },
            {
                "start_time": 32.6204545,
                "end_time": 32.8386364,
                "pitch": 31,
                "velocity": 64,
                "duration": 0.2181818,
                "tempo": 120.0
            },
            {
                "start_time": 32.8386364,
                "end_time": 33.1545455,
                "pitch": 31,
                "velocity": 64,
                "duration": 0.3159091,
                "tempo": 120.0
            },
            {
                "start_time": 33.1568182,
                "end_time": 33.3727273,
                "pitch": 31,
                "velocity": 64,
                "duration": 0.2159091,
                "tempo": 120.0
            },
            {
                "start_time": 33.3727273,
                "end_time": 33.5886364,
                "pitch": 31,
                "velocity": 64,
                "duration": 0.2159091,
                "tempo": 120.0
            },
            {
                "start_time": 33.5909091,
                "end_time": 33.6909091,
                "pitch": 31,
                "velocity": 64,
                "duration": 0.1,
                "tempo": 120.0
            },
            {
                "start_time": 33.6909091,
                "end_time": 33.8068182,
                "pitch": 31,
                "velocity": 64,
                "duration": 0.1159091,
                "tempo": 120.0
            },
            {
                "start_time": 34.0204545,
                "end_time": 34.1159091,
                "pitch": 31,
                "velocity": 64,
                "duration": 0.0954545,
                "tempo": 120.0
            },
            {
                "start_time": 34.1181818,
                "end_time": 34.2159091,
                "pitch": 34,
                "velocity": 64,
                "duration": 0.0977273,
                "tempo": 120.0
            },
            {
                "start_time": 34.2159091,
                "end_time": 34.4318182,
                "pitch": 36,
                "velocity": 64,
                "duration": 0.2159091,
                "tempo": 120.0
            },
            {
                "start_time": 34.4318182,
                "end_time": 34.65,
                "pitch": 36,
                "velocity": 64,
                "duration": 0.2181818,
                "tempo": 120.0
            },
            {
                "start_time": 34.8659091,
                "end_time": 35.0840909,
                "pitch": 36,
                "velocity": 64,
                "duration": 0.2181818,
                "tempo": 120.0
            },
            {
                "start_time": 35.0840909,
                "end_time": 35.3,
                "pitch": 36,
                "velocity": 64,
                "duration": 0.2159091,
                "tempo": 120.0
            },
            {
                "start_time": 35.3,
                "end_time": 35.4,
                "pitch": 36,
                "velocity": 64,
                "duration": 0.1,
                "tempo": 120.0
            },
            {
                "start_time": 35.4022727,
                "end_time": 35.5181818,
                "pitch": 36,
                "velocity": 64,
                "duration": 0.1159091,
                "tempo": 120.0
            },
            {
                "start_time": 35.7181818,
                "end_time": 35.9340909,
                "pitch": 38,
                "velocity": 64,
                "duration": 0.2159091,
                "tempo": 120.0
            },
            {
                "start_time": 35.9363636,
                "end_time": 36.05,
                "pitch": 39,
                "velocity": 64,
                "duration": 0.1136364,
                "tempo": 120.0
            },
            {
                "start_time": 36.05,
                "end_time": 36.2613636,
                "pitch": 39,
                "velocity": 64,
                "duration": 0.2113636,
                "tempo": 120.0
            },
            {
                "start_time": 36.2636364,
                "end_time": 36.5818182,
                "pitch": 39,
                "velocity": 64,
                "duration": 0.3181818,
                "tempo": 120.0
            },
            {
                "start_time": 36.5818182,
                "end_time": 36.8022727,
                "pitch": 39,
                "velocity": 64,
                "duration": 0.2204545,
                "tempo": 120.0
            },
            {
                "start_time": 36.8022727,
                "end_time": 37.0090909,
                "pitch": 29,
                "velocity": 64,
                "duration": 0.2068182,
                "tempo": 120.0
            },
            {
                "start_time": 37.0090909,
                "end_time": 37.1045455,
                "pitch": 29,
                "velocity": 64,
                "duration": 0.0954545,
                "tempo": 120.0
            },
            {
                "start_time": 37.1068182,
                "end_time": 37.4204545,
                "pitch": 29,
                "velocity": 64,
                "duration": 0.3136364,
                "tempo": 120.0
            },
            {
                "start_time": 37.4227273,
                "end_time": 37.6431818,
                "pitch": 29,
                "velocity": 64,
                "duration": 0.2204545,
                "tempo": 120.0
            },
            {
                "start_time": 37.6431818,
                "end_time": 37.8613636,
                "pitch": 31,
                "velocity": 64,
                "duration": 0.2181818,
                "tempo": 120.0
            },
            {
                "start_time": 37.8613636,
                "end_time": 38.0772727,
                "pitch": 31,
                "velocity": 64,
                "duration": 0.2159091,
                "tempo": 120.0
            },
            {
                "start_time": 38.2954545,
                "end_time": 38.5113636,
                "pitch": 31,
                "velocity": 64,
                "duration": 0.2159091,
                "tempo": 120.0
            },
            {
                "start_time": 38.5113636,
                "end_time": 38.7113636,
                "pitch": 31,
                "velocity": 64,
                "duration": 0.2,
                "tempo": 120.0
            },
            {
                "start_time": 38.7113636,
                "end_time": 38.8295455,
                "pitch": 31,
                "velocity": 64,
                "duration": 0.1181818,
                "tempo": 120.0
            },
            {
                "start_time": 38.8295455,
                "end_time": 39.1431818,
                "pitch": 31,
                "velocity": 64,
                "duration": 0.3136364,
                "tempo": 120.0
            },
            {
                "start_time": 39.1431818,
                "end_time": 39.3545455,
                "pitch": 31,
                "velocity": 64,
                "duration": 0.2113636,
                "tempo": 120.0
            },
            {
                "start_time": 39.3545455,
                "end_time": 39.4545455,
                "pitch": 36,
                "velocity": 64,
                "duration": 0.1,
                "tempo": 120.0
            },
            {
                "start_time": 39.4545455,
                "end_time": 39.6727273,
                "pitch": 36,
                "velocity": 64,
                "duration": 0.2181818,
                "tempo": 120.0
            },
            {
                "start_time": 39.6727273,
                "end_time": 40.0045455,
                "pitch": 36,
                "velocity": 64,
                "duration": 0.3318182,
                "tempo": 120.0
            },
            {
                "start_time": 40.0068182,
                "end_time": 40.2068182,
                "pitch": 36,
                "velocity": 64,
                "duration": 0.2,
                "tempo": 120.0
            },
            {
                "start_time": 40.2068182,
                "end_time": 40.4181818,
                "pitch": 26,
                "velocity": 64,
                "duration": 0.2113636,
                "tempo": 120.0
            },
            {
                "start_time": 40.4204545,
                "end_time": 40.5340909,
                "pitch": 26,
                "velocity": 64,
                "duration": 0.1136364,
                "tempo": 120.0
            },
            {
                "start_time": 40.5340909,
                "end_time": 40.8522727,
                "pitch": 26,
                "velocity": 64,
                "duration": 0.3181818,
                "tempo": 120.0
            },
            {
                "start_time": 40.8522727,
                "end_time": 41.075,
                "pitch": 26,
                "velocity": 64,
                "duration": 0.2227273,
                "tempo": 120.0
            },
            {
                "start_time": 41.075,
                "end_time": 41.2863636,
                "pitch": 27,
                "velocity": 64,
                "duration": 0.2113636,
                "tempo": 120.0
            },
            {
                "start_time": 41.2886364,
                "end_time": 41.5,
                "pitch": 27,
                "velocity": 64,
                "duration": 0.2113636,
                "tempo": 120.0
            },
            {
                "start_time": 41.7045455,
                "end_time": 41.9272727,
                "pitch": 27,
                "velocity": 64,
                "duration": 0.2227273,
                "tempo": 120.0
            },
            {
                "start_time": 41.9272727,
                "end_time": 42.1340909,
                "pitch": 28,
                "velocity": 64,
                "duration": 0.2068182,
                "tempo": 120.0
            },
            {
                "start_time": 42.5613636,
                "end_time": 42.7818182,
                "pitch": 28,
                "velocity": 64,
                "duration": 0.2204545,
                "tempo": 120.0
            },
            {
                "start_time": 42.7840909,
                "end_time": 42.9954545,
                "pitch": 26,
                "velocity": 64,
                "duration": 0.2113636,
                "tempo": 120.0
            },
            {
                "start_time": 42.9954545,
                "end_time": 43.1909091,
                "pitch": 26,
                "velocity": 64,
                "duration": 0.1954545,
                "tempo": 120.0
            },
            {
                "start_time": 43.4090909,
                "end_time": 43.625,
                "pitch": 26,
                "velocity": 64,
                "duration": 0.2159091,
                "tempo": 120.0
            },
            {
                "start_time": 43.6272727,
                "end_time": 43.7431818,
                "pitch": 27,
                "velocity": 64,
                "duration": 0.1159091,
                "tempo": 120.0
            },
            {
                "start_time": 43.7431818,
                "end_time": 43.8431818,
                "pitch": 28,
                "velocity": 64,
                "duration": 0.1,
                "tempo": 120.0
            },
            {
                "start_time": 43.8431818,
                "end_time": 43.9431818,
                "pitch": 27,
                "velocity": 64,
                "duration": 0.1,
                "tempo": 120.0
            },
            {
                "start_time": 43.9431818,
                "end_time": 44.0590909,
                "pitch": 23,
                "velocity": 64,
                "duration": 0.1159091,
                "tempo": 120.0
            },
            {
                "start_time": 44.2772727,
                "end_time": 44.4772727,
                "pitch": 23,
                "velocity": 64,
                "duration": 0.2,
                "tempo": 120.0
            },
            {
                "start_time": 44.4772727,
                "end_time": 44.5931818,
                "pitch": 36,
                "velocity": 64,
                "duration": 0.1159091,
                "tempo": 120.0
            },
            {
                "start_time": 44.5954545,
                "end_time": 44.8113636,
                "pitch": 36,
                "velocity": 64,
                "duration": 0.2159091,
                "tempo": 120.0
            },
            {
                "start_time": 44.8113636,
                "end_time": 45.125,
                "pitch": 36,
                "velocity": 64,
                "duration": 0.3136364,
                "tempo": 120.0
            },
            {
                "start_time": 45.125,
                "end_time": 45.3363636,
                "pitch": 36,
                "velocity": 64,
                "duration": 0.2113636,
                "tempo": 120.0
            },
            {
                "start_time": 45.3386364,
                "end_time": 45.5545455,
                "pitch": 38,
                "velocity": 64,
                "duration": 0.2159091,
                "tempo": 120.0
            },
            {
                "start_time": 45.5545455,
                "end_time": 45.6545455,
                "pitch": 38,
                "velocity": 64,
                "duration": 0.1,
                "tempo": 120.0
            },
            {
                "start_time": 45.6545455,
                "end_time": 45.9704545,
                "pitch": 38,
                "velocity": 64,
                "duration": 0.3159091,
                "tempo": 120.0
            },
            {
                "start_time": 45.9727273,
                "end_time": 46.0886364,
                "pitch": 38,
                "velocity": 64,
                "duration": 0.1159091,
                "tempo": 120.0
            },
            {
                "start_time": 46.0886364,
                "end_time": 46.1886364,
                "pitch": 39,
                "velocity": 64,
                "duration": 0.1,
                "tempo": 120.0
            },
            {
                "start_time": 46.1886364,
                "end_time": 46.4,
                "pitch": 40,
                "velocity": 64,
                "duration": 0.2113636,
                "tempo": 120.0
            },
            {
                "start_time": 46.4022727,
                "end_time": 46.6136364,
                "pitch": 40,
                "velocity": 64,
                "duration": 0.2113636,
                "tempo": 120.0
            },
            {
                "start_time": 46.8318182,
                "end_time": 47.0477273,
                "pitch": 40,
                "velocity": 64,
                "duration": 0.2159091,
                "tempo": 120.0
            },
            {
                "start_time": 47.0477273,
                "end_time": 47.2636364,
                "pitch": 43,
                "velocity": 64,
                "duration": 0.2159091,
                "tempo": 120.0
            },
            {
                "start_time": 47.2659091,
                "end_time": 47.3636364,
                "pitch": 43,
                "velocity": 64,
                "duration": 0.0977273,
                "tempo": 120.0
            },
            {
                "start_time": 47.3659091,
                "end_time": 47.6863636,
                "pitch": 42,
                "velocity": 64,
                "duration": 0.3204545,
                "tempo": 120.0
            },
            {
                "start_time": 47.6863636,
                "end_time": 47.9090909,
                "pitch": 40,
                "velocity": 64,
                "duration": 0.2227273,
                "tempo": 120.0
            },
            {
                "start_time": 47.9090909,
                "end_time": 48.0204545,
                "pitch": 36,
                "velocity": 64,
                "duration": 0.1113636,
                "tempo": 120.0
            },
            {
                "start_time": 48.0204545,
                "end_time": 48.2113636,
                "pitch": 36,
                "velocity": 64,
                "duration": 0.1909091,
                "tempo": 120.0
            },
            {
                "start_time": 48.2113636,
                "end_time": 48.5386364,
                "pitch": 36,
                "velocity": 64,
                "duration": 0.3272727,
                "tempo": 120.0
            },
            {
                "start_time": 48.5386364,
                "end_time": 48.7568182,
                "pitch": 36,
                "velocity": 64,
                "duration": 0.2181818,
                "tempo": 120.0
            },
            {
                "start_time": 48.7568182,
                "end_time": 48.9613636,
                "pitch": 38,
                "velocity": 64,
                "duration": 0.2045455,
                "tempo": 120.0
            },
            {
                "start_time": 48.9613636,
                "end_time": 49.0795455,
                "pitch": 38,
                "velocity": 64,
                "duration": 0.1181818,
                "tempo": 120.0
            },
            {
                "start_time": 49.0795455,
                "end_time": 49.3909091,
                "pitch": 38,
                "velocity": 64,
                "duration": 0.3113636,
                "tempo": 120.0
            },
            {
                "start_time": 49.3909091,
                "end_time": 49.5,
                "pitch": 38,
                "velocity": 64,
                "duration": 0.1090909,
                "tempo": 120.0
            },
            {
                "start_time": 49.5022727,
                "end_time": 49.5977273,
                "pitch": 39,
                "velocity": 64,
                "duration": 0.0954545,
                "tempo": 120.0
            },
            {
                "start_time": 49.5977273,
                "end_time": 49.8136364,
                "pitch": 40,
                "velocity": 64,
                "duration": 0.2159091,
                "tempo": 120.0
            },
            {
                "start_time": 49.8136364,
                "end_time": 49.9136364,
                "pitch": 40,
                "velocity": 64,
                "duration": 0.1,
                "tempo": 120.0
            },
            {
                "start_time": 49.9136364,
                "end_time": 50.1318182,
                "pitch": 42,
                "velocity": 64,
                "duration": 0.2181818,
                "tempo": 120.0
            },
            {
                "start_time": 50.1318182,
                "end_time": 50.2522727,
                "pitch": 42,
                "velocity": 64,
                "duration": 0.1204545,
                "tempo": 120.0
            },
            {
                "start_time": 50.2522727,
                "end_time": 50.4568182,
                "pitch": 43,
                "velocity": 64,
                "duration": 0.2045455,
                "tempo": 120.0
            },
            {
                "start_time": 50.4568182,
                "end_time": 50.675,
                "pitch": 40,
                "velocity": 64,
                "duration": 0.2181818,
                "tempo": 120.0
            },
            {
                "start_time": 50.675,
                "end_time": 50.7909091,
                "pitch": 50,
                "velocity": 64,
                "duration": 0.1159091,
                "tempo": 120.0
            },
            {
                "start_time": 50.7909091,
                "end_time": 50.8909091,
                "pitch": 52,
                "velocity": 64,
                "duration": 0.1,
                "tempo": 120.0
            },
            {
                "start_time": 51.1,
                "end_time": 51.3045455,
                "pitch": 40,
                "velocity": 64,
                "duration": 0.2045455,
                "tempo": 120.0
            },
            {
                "start_time": 51.3068182,
                "end_time": 51.4068182,
                "pitch": 36,
                "velocity": 64,
                "duration": 0.1,
                "tempo": 120.0
            },
            {
                "start_time": 51.4068182,
                "end_time": 51.6295455,
                "pitch": 36,
                "velocity": 64,
                "duration": 0.2227273,
                "tempo": 120.0
            },
            {
                "start_time": 51.6295455,
                "end_time": 51.95,
                "pitch": 36,
                "velocity": 64,
                "duration": 0.3204545,
                "tempo": 120.0
            },
            {
                "start_time": 51.95,
                "end_time": 52.1659091,
                "pitch": 36,
                "velocity": 64,
                "duration": 0.2159091,
                "tempo": 120.0
            },
            {
                "start_time": 52.1659091,
                "end_time": 52.3727273,
                "pitch": 38,
                "velocity": 64,
                "duration": 0.2068182,
                "tempo": 120.0
            },
            {
                "start_time": 52.3727273,
                "end_time": 52.4840909,
                "pitch": 38,
                "velocity": 64,
                "duration": 0.1113636,
                "tempo": 120.0
            },
            {
                "start_time": 52.4840909,
                "end_time": 52.8,
                "pitch": 38,
                "velocity": 64,
                "duration": 0.3159091,
                "tempo": 120.0
            },
            {
                "start_time": 52.8,
                "end_time": 52.9022727,
                "pitch": 38,
                "velocity": 64,
                "duration": 0.1022727,
                "tempo": 120.0
            },
            {
                "start_time": 52.9022727,
                "end_time": 53.0227273,
                "pitch": 39,
                "velocity": 64,
                "duration": 0.1204545,
                "tempo": 120.0
            },
            {
                "start_time": 53.0227273,
                "end_time": 53.2386364,
                "pitch": 40,
                "velocity": 64,
                "duration": 0.2159091,
                "tempo": 120.0
            },
            {
                "start_time": 53.2409091,
                "end_time": 53.4409091,
                "pitch": 40,
                "velocity": 64,
                "duration": 0.2,
                "tempo": 120.0
            },
            {
                "start_time": 53.6590909,
                "end_time": 53.875,
                "pitch": 40,
                "velocity": 64,
                "duration": 0.2159091,
                "tempo": 120.0
            },
            {
                "start_time": 53.875,
                "end_time": 54.0863636,
                "pitch": 43,
                "velocity": 64,
                "duration": 0.2113636,
                "tempo": 120.0
            },
            {
                "start_time": 54.0886364,
                "end_time": 54.1840909,
                "pitch": 43,
                "velocity": 64,
                "duration": 0.0954545,
                "tempo": 120.0
            },
            {
                "start_time": 54.1863636,
                "end_time": 54.5159091,
                "pitch": 42,
                "velocity": 64,
                "duration": 0.3295455,
                "tempo": 120.0
            },
            {
                "start_time": 54.5159091,
                "end_time": 54.7340909,
                "pitch": 40,
                "velocity": 64,
                "duration": 0.2181818,
                "tempo": 120.0
            },
            {
                "start_time": 54.7340909,
                "end_time": 54.8340909,
                "pitch": 36,
                "velocity": 64,
                "duration": 0.1,
                "tempo": 120.0
            },
            {
                "start_time": 54.8340909,
                "end_time": 55.05,
                "pitch": 36,
                "velocity": 64,
                "duration": 0.2159091,
                "tempo": 120.0
            },
            {
                "start_time": 55.0522727,
                "end_time": 55.3636364,
                "pitch": 36,
                "velocity": 64,
                "duration": 0.3113636,
                "tempo": 120.0
            },
            {
                "start_time": 55.3659091,
                "end_time": 55.5772727,
                "pitch": 36,
                "velocity": 64,
                "duration": 0.2113636,
                "tempo": 120.0
            },
            {
                "start_time": 55.5772727,
                "end_time": 55.7931818,
                "pitch": 38,
                "velocity": 64,
                "duration": 0.2159091,
                "tempo": 120.0
            },
            {
                "start_time": 55.7931818,
                "end_time": 55.8931818,
                "pitch": 38,
                "velocity": 64,
                "duration": 0.1,
                "tempo": 120.0
            },
            {
                "start_time": 55.8931818,
                "end_time": 56.2318182,
                "pitch": 38,
                "velocity": 64,
                "duration": 0.3386364,
                "tempo": 120.0
            },
            {
                "start_time": 56.2318182,
                "end_time": 56.4363636,
                "pitch": 38,
                "velocity": 64,
                "duration": 0.2045455,
                "tempo": 120.0
            },
            {
                "start_time": 56.4386364,
                "end_time": 56.55,
                "pitch": 39,
                "velocity": 64,
                "duration": 0.1113636,
                "tempo": 120.0
            },
            {
                "start_time": 56.55,
                "end_time": 56.7545455,
                "pitch": 39,
                "velocity": 64,
                "duration": 0.2045455,
                "tempo": 120.0
            },
            {
                "start_time": 56.7568182,
                "end_time": 57.0681818,
                "pitch": 39,
                "velocity": 64,
                "duration": 0.3113636,
                "tempo": 120.0
            },
            {
                "start_time": 57.0681818,
                "end_time": 57.2840909,
                "pitch": 39,
                "velocity": 64,
                "duration": 0.2159091,
                "tempo": 120.0
            },
            {
                "start_time": 57.2863636,
                "end_time": 57.5022727,
                "pitch": 41,
                "velocity": 64,
                "duration": 0.2159091,
                "tempo": 120.0
            },
            {
                "start_time": 57.5022727,
                "end_time": 57.6022727,
                "pitch": 41,
                "velocity": 64,
                "duration": 0.1,
                "tempo": 120.0
            },
            {
                "start_time": 57.6022727,
                "end_time": 57.9204545,
                "pitch": 41,
                "velocity": 64,
                "duration": 0.3181818,
                "tempo": 120.0
            },
            {
                "start_time": 57.9204545,
                "end_time": 58.1363636,
                "pitch": 41,
                "velocity": 64,
                "duration": 0.2159091,
                "tempo": 120.0
            }
        ]
    }
}