{
    "mood": "angry",
    "instruments": {
        "Electric Piano 1": [
            {
                "start_time": 21.3886364,
                "end_time": 21.9613636,
                "pitch": 54,
                "velocity": 51,
                "duration": 0.5727273,
                "tempo": 120.0
            },
            {
                "start_time": 21.9613636,
                "end_time": 22.5409091,
                "pitch": 54,
                "velocity": 51,
                "duration": 0.5795455,
                "tempo": 120.0
            },
            {
                "start_time": 22.5409091,
                "end_time": 22.925,
                "pitch": 54,
                "velocity": 51,
                "duration": 0.3840909,
                "tempo": 120.0
            },
            {
                "start_time": 22.925,
                "end_time": 23.4863636,
                "pitch": 54,
                "velocity": 51,
                "duration": 0.5613636,
                "tempo": 120.0
            },
            {
                "start_time": 23.4863636,
                "end_time": 24.0659091,
                "pitch": 54,
                "velocity": 51,
                "duration": 0.5795455,
                "tempo": 120.0
            },
            {
                "start_time": 24.0681818,
                "end_time": 24.45,
                "pitch": 54,
                "velocity": 51,
                "duration": 0.3818182,
                "tempo": 120.0
            },
            {
                "start_time": 24.4522727,
                "end_time": 25.0181818,
                "pitch": 54,
                "velocity": 51,
                "duration": 0.5659091,
                "tempo": 120.0
            },
            {
                "start_time": 25.0181818,
                "end_time": 25.6022727,
                "pitch": 54,
                "velocity": 51,
                "duration": 0.5840909,
                "tempo": 120.0
            },
            {
                "start_time": 25.6022727,
                "end_time": 25.9568182,
                "pitch": 54,
                "velocity": 51,
                "duration": 0.3545455,
                "tempo": 120.0
            },
            {
                "start_time": 25.9568182,
                "end_time": 26.4272727,
                "pitch": 54,
                "velocity": 51,
                "duration": 0.4704545,
                "tempo": 120.0
            },
            {
                "start_time": 26.4272727,
                "end_time": 26.95,
                "pitch": 54,
                "velocity": 51,
                "duration": 0.5227273,
                "tempo": 120.0
            },
            {
                "start_time": 26.95,
                "end_time": 27.3409091,
                "pitch": 54,
                "velocity": 51,
                "duration": 0.3909091,
                "tempo": 120.0
            }
        ],
        "Harpsichord": [
            {
                "start_time": 0.0045455,
                "end_time": 0.0840909,
                "pitch": 55,
                "velocity": 51,
                "duration": 0.0795455,
                "tempo": 120.0
            },
            {
                "start_time": 0.1863636,
                "end_time": 0.2681818,
                "pitch": 55,
                "velocity": 51,
                "duration": 0.0818182,
                "tempo": 120.0
            },
            {
                "start_time": 0.3681818,
                "end_time": 0.4522727,
                "pitch": 55,
                "velocity": 51,
                "duration": 0.0840909,
                "tempo": 120.0
            },
            {
                "start_time": 0.5522727,
                "end_time": 0.6522727,
                "pitch": 55,
                "velocity": 51,
                "duration": 0.1,
                "tempo": 120.0
            },
            {
                "start_time": 0.7545455,
                "end_time": 0.8409091,
                "pitch": 55,
                "velocity": 51,
                "duration": 0.0863636,
                "tempo": 120.0
            },
            {
                "start_time": 0.9477273,
                "end_time": 1.0340909,
                "pitch": 55,
                "velocity": 51,
                "duration": 0.0863636,
                "tempo": 120.0
            },
            {
                "start_time": 1.1431818,
                "end_time": 1.2227273,
                "pitch": 55,
                "velocity": 51,
                "duration": 0.0795455,
                "tempo": 120.0
            },
            {
                "start_time": 1.3204545,
                "end_time": 1.3681818,
                "pitch": 55,
                "velocity": 51,
                "duration": 0.0477273,
                "tempo": 120.0
            },
            {
                "start_time": 1.4181818,
                "end_time": 1.4659091,
                "pitch": 55,
                "velocity": 51,
                "duration": 0.0477273,
                "tempo": 120.0
            },
            {
                "start_time": 1.5181818,
                "end_time": 1.6022727,
                "pitch": 54,
                "velocity": 51,
                "duration": 0.0840909,
                "tempo": 120.0
            },
            {
                "start_time": 1.7068182,
                "end_time": 1.7909091,
                "pitch": 54,
                "velocity": 51,
                "duration": 0.0840909,
                "tempo": 120.0
            },
            {
                "start_time": 1.8954545,
                "end_time": 1.9795455,
                "pitch": 54,
                "velocity": 51,
                "duration": 0.0840909,
                "tempo": 120.0
            },
            {
                "start_time": 2.0795455,
                "end_time": 2.1795455,
                "pitch": 54,
                "velocity": 51,
                "duration": 0.1,
                "tempo": 120.0
            },
            {
                "start_time": 2.2795455,
                "end_time": 2.3681818,
                "pitch": 54,
                "velocity": 51,
                "duration": 0.0886364,
                "tempo": 120.0
            },
            {
                "start_time": 2.475,
                "end_time": 2.5613636,
                "pitch": 54,
                "velocity": 51,
                "duration": 0.0863636,
                "tempo": 120.0
            },
            {
                "start_time": 2.6681818,
                "end_time": 2.75,
                "pitch": 54,
                "velocity": 51,
                "duration": 0.0818182,
                "tempo": 120.0
            },
            {
                "start_time": 2.8477273,
                "end_time": 2.8954545,
                "pitch": 54,
                "velocity": 51,
                "duration": 0.0477273,
                "tempo": 120.0
            },
            {
                "start_time": 2.9454545,
                "end_time": 2.9931818,
                "pitch": 54,
                "velocity": 51,
                "duration": 0.0477273,
                "tempo": 120.0
            },
            {
                "start_time": 3.0431818,
                "end_time": 3.1318182,
                "pitch": 53,
                "velocity": 51,
                "duration": 0.0886364,
                "tempo": 120.0
            },
            {
                "start_time": 3.2386364,
                "end_time": 3.325,
                "pitch": 53,
                "velocity": 51,
                "duration": 0.0863636,
                "tempo": 120.0
            },
            {
                "start_time": 3.4318182,
                "end_time": 3.5136364,
                "pitch": 53,
                "velocity": 51,
                "duration": 0.0818182,
                "tempo": 120.0
            },
            {
                "start_time": 3.6113636,
                "end_time": 3.7090909,
                "pitch": 53,
                "velocity": 51,
                "duration": 0.0977273,
                "tempo": 120.0
            },
            {
                "start_time": 3.8068182,
                "end_time": 3.8931818,
                "pitch": 53,
                "velocity": 51,
                "duration": 0.0863636,
                "tempo": 120.0
            },
            {
                "start_time": 4.0022727,
                "end_time": 4.0886364,
                "pitch": 53,
                "velocity": 51,
                "duration": 0.0863636,
                "tempo": 120.0
            },
            {
                "start_time": 4.1954545,
                "end_time": 4.2795455,
                "pitch": 53,
                "velocity": 51,
                "duration": 0.0840909,
                "tempo": 120.0
            },
            {
                "start_time": 4.3795455,
                "end_time": 4.4295455,
                "pitch": 53,
                "velocity": 51,
                "duration": 0.05,
                "tempo": 120.0
            },
            {
                "start_time": 4.4795455,
                "end_time": 4.5295455,
                "pitch": 53,
                "velocity": 51,
                "duration": 0.05,
                "tempo": 120.0
            },
            {
                "start_time": 4.5818182,
                "end_time": 4.6659091,
                "pitch": 54,
                "velocity": 51,
                "duration": 0.0840909,
                "tempo": 120.0
            },
            {
                "start_time": 4.7704545,
                "end_time": 4.8545455,
                "pitch": 54,
                "velocity": 51,
                "duration": 0.0840909,
                "tempo": 120.0
            },
            {
                "start_time": 4.9590909,
                "end_time": 5.0431818,
                "pitch": 54,
                "velocity": 51,
                "duration": 0.0840909,
                "tempo": 120.0
            },
            {
                "start_time": 5.1431818,
                "end_time": 5.2431818,
                "pitch": 54,
                "velocity": 51,
                "duration": 0.1,
                "tempo": 120.0
            },
            {
                "start_time": 5.3431818,
                "end_time": 5.4295455,
                "pitch": 54,
                "velocity": 51,
                "duration": 0.0863636,
                "tempo": 120.0
            },
            {
                "start_time": 5.5340909,
                "end_time": 5.6181818,
                "pitch": 54,
                "velocity": 51,
                "duration": 0.0840909,
                "tempo": 120.0
            },
            {
                "start_time": 5.7227273,
                "end_time": 5.8068182,
                "pitch": 54,
                "velocity": 51,
                "duration": 0.0840909,
                "tempo": 120.0
            },
            {
                "start_time": 5.9068182,
                "end_time": 6.0068182,
                "pitch": 54,
                "velocity": 51,
                "duration": 0.1,
                "tempo": 120.0
            },
            {
                "start_time": 6.1068182,
                "end_time": 6.1931818,
                "pitch": 55,
                "velocity": 51,
                "duration": 0.0863636,
                "tempo": 120.0
            },
            {
                "start_time": 6.2977273,
                "end_time": 6.3818182,
                "pitch": 55,
                "velocity": 51,
                "duration": 0.0840909,
                "tempo": 120.0
            },
            {
                "start_time": 6.4863636,
                "end_time": 6.5681818,
                "pitch": 55,
                "velocity": 51,
                "duration": 0.0818182,
                "tempo": 120.0
            },
            {
                "start_time": 6.6704545,
                "end_time": 6.7704545,
                "pitch": 55,
                "velocity": 51,
                "duration": 0.1,
                "tempo": 120.0
            },
            {
                "start_time": 6.8704545,
                "end_time": 6.9568182,
                "pitch": 55,
                "velocity": 51,
                "duration": 0.0863636,
                "tempo": 120.0
            },
            {
                "start_time": 7.0659091,
                "end_time": 7.1522727,
                "pitch": 55,
                "velocity": 51,
                "duration": 0.0863636,
                "tempo": 120.0
            },
            {
                "start_time": 7.2590909,
                "end_time": 7.3409091,
                "pitch": 55,
                "velocity": 51,
                "duration": 0.0818182,
                "tempo": 120.0
            },
            {
                "start_time": 7.4386364,
                "end_time": 7.4863636,
                "pitch": 55,
                "velocity": 51,
                "duration": 0.0477273,
                "tempo": 120.0
            },
            {
                "start_time": 7.5363636,
                "end_time": 7.5840909,
                "pitch": 55,
                "velocity": 51,
                "duration": 0.0477273,
                "tempo": 120.0
            },
            {
                "start_time": 7.6340909,
                "end_time": 7.7204545,
                "pitch": 54,
                "velocity": 51,
                "duration": 0.0863636,
                "tempo": 120.0
            },
            {
                "start_time": 7.825,
                "end_time": 7.9090909,
                "pitch": 54,
                "velocity": 51,
                "duration": 0.0840909,
                "tempo": 120.0
            },
            {
                "start_time": 8.0136364,
                "end_time": 8.0954545,
                "pitch": 54,
                "velocity": 51,
                "duration": 0.0818182,
                "tempo": 120.0
            },
            {
                "start_time": 8.1977273,
                "end_time": 8.2977273,
                "pitch": 54,
                "velocity": 51,
                "duration": 0.1,
                "tempo": 120.0
            },
            {
                "start_time": 8.3977273,
                "end_time": 8.4840909,
                "pitch": 54,
                "velocity": 51,
                "duration": 0.0863636,
                "tempo": 120.0
            },
            {
                "start_time": 8.5931818,
                "end_time": 8.6795455,
                "pitch": 54,
                "velocity": 51,
                "duration": 0.0863636,
                "tempo": 120.0
            },
            {
                "start_time": 8.7863636,
                "end_time": 8.8681818,
                "pitch": 54,
                "velocity": 51,
                "duration": 0.0818182,
                "tempo": 120.0
            },
            {
                "start_time": 8.9659091,
                "end_time": 9.0136364,
                "pitch": 54,
                "velocity": 51,
                "duration": 0.0477273,
                "tempo": 120.0
            },
            {
                "start_time": 9.0636364,
                "end_time": 9.1113636,
                "pitch": 54,
                "velocity": 51,
                "duration": 0.0477273,
                "tempo": 120.0
            },
            {
                "start_time": 9.1613636,
                "end_time": 9.2477273,
                "pitch": 53,
                "velocity": 51,
                "duration": 0.0863636,
                "tempo": 120.0
            },
            {
                "start_time": 9.3568182,
                "end_time": 9.4431818,
                "pitch": 53,
                "velocity": 51,
                "duration": 0.0863636,
                "tempo": 120.0
            },
            {
                "start_time": 9.55,
                "end_time": 9.6295455,
                "pitch": 53,
                "velocity": 51,
                "duration": 0.0795455,
                "tempo": 120.0
            },
            {
                "start_time": 9.7295455,
                "end_time": 9.825,
                "pitch": 53,
                "velocity": 51,
                "duration": 0.0954545,
                "tempo": 120.0
            },
            {
                "start_time": 9.925,
                "end_time": 10.0113636,
                "pitch": 53,
                "velocity": 51,
                "duration": 0.0863636,
                "tempo": 120.0
            },
            {
                "start_time": 10.1181818,
                "end_time": 10.2068182,
                "pitch": 53,
                "velocity": 51,
                "duration": 0.0886364,
                "tempo": 120.0
            },
            {
                "start_time": 10.3136364,
                "end_time": 10.3931818,
                "pitch": 53,
                "velocity": 51,
                "duration": 0.0795455,
                "tempo": 120.0
            },
            {
                "start_time": 10.4931818,
                "end_time": 10.5409091,
                "pitch": 53,
                "velocity": 51,
                "duration": 0.0477273,
                "tempo": 120.0
            },
            {
                "start_time": 10.5886364,
                "end_time": 10.6386364,
                "pitch": 53,
                "velocity": 51,
                "duration": 0.05,
                "tempo": 120.0
            },
            {
                "start_time": 10.6886364,
                "end_time": 10.775,
                "pitch": 54,
                "velocity": 51,
                "duration": 0.0863636,
                "tempo": 120.0
            },
            {
                "start_time": 10.8818182,
                "end_time": 10.9704545,
                "pitch": 54,
                "velocity": 51,
                "duration": 0.0886364,
                "tempo": 120.0
            },
            {
                "start_time": 11.0772727,
                "end_time": 11.1568182,
                "pitch": 54,
                "velocity": 51,
                "duration": 0.0795455,
                "tempo": 120.0
            },
            {
                "start_time": 11.2568182,
                "end_time": 11.3522727,
                "pitch": 54,
                "velocity": 51,
                "duration": 0.0954545,
                "tempo": 120.0
            },
            {
                "start_time": 11.4522727,
                "end_time": 11.5386364,
                "pitch": 54,
                "velocity": 51,
                "duration": 0.0863636,
                "tempo": 120.0
            },
            {
                "start_time": 11.6454545,
                "end_time": 11.7340909,
                "pitch": 54,
                "velocity": 51,
                "duration": 0.0886364,
                "tempo": 120.0
            },
            {
                "start_time": 11.8409091,
                "end_time": 11.9204545,
                "pitch": 54,
                "velocity": 51,
                "duration": 0.0795455,
                "tempo": 120.0
            },
            {
                "start_time": 12.0204545,
                "end_time": 12.1159091,
                "pitch": 54,
                "velocity": 51,
                "duration": 0.0954545,
                "tempo": 120.0
            },
            {
                "start_time": 12.2159091,
                "end_time": 12.3022727,
                "pitch": 52,
                "velocity": 51,
                "duration": 0.0863636,
                "tempo": 120.0
            },
            {
                "start_time": 12.4090909,
                "end_time": 12.4977273,
                "pitch": 52,
                "velocity": 51,
                "duration": 0.0886364,
                "tempo": 120.0
            },
            {
                "start_time": 12.6045455,
                "end_time": 12.6863636,
                "pitch": 52,
                "velocity": 51,
                "duration": 0.0818182,
                "tempo": 120.0
            },
            {
                "start_time": 12.7886364,
                "end_time": 12.8363636,
                "pitch": 52,
                "velocity": 51,
                "duration": 0.0477273,
                "tempo": 120.0
            },
            {
                "start_time": 12.8863636,
                "end_time": 12.9363636,
                "pitch": 52,
                "velocity": 51,
                "duration": 0.05,
                "tempo": 120.0
            },
            {
                "start_time": 12.9886364,
                "end_time": 13.0727273,
                "pitch": 52,
                "velocity": 51,
                "duration": 0.0840909,
                "tempo": 120.0
            },
            {
                "start_time": 13.1772727,
                "end_time": 13.2636364,
                "pitch": 52,
                "velocity": 51,
                "duration": 0.0863636,
                "tempo": 120.0
            },
            {
                "start_time": 13.3681818,
                "end_time": 13.45,
                "pitch": 52,
                "velocity": 51,
                "duration": 0.0818182,
                "tempo": 120.0
            },
            {
                "start_time": 13.5522727,
                "end_time": 13.6,
                "pitch": 52,
                "velocity": 51,
                "duration": 0.0477273,
                "tempo": 120.0
            },
            {
                "start_time": 13.65,
                "end_time": 13.7,
                "pitch": 52,
                "velocity": 51,
                "duration": 0.05,
                "tempo": 120.0
            },
            {
                "start_time": 13.7522727,
                "end_time": 13.9409091,
                "pitch": 50,
                "velocity": 51,
                "duration": 0.1886364,
                "tempo": 120.0
            },
            {
                "start_time": 14.1318182,
                "end_time": 14.3136364,
                "pitch": 50,
                "velocity": 51,
                "duration": 0.1818182,
                "tempo": 120.0
            },
            {
                "start_time": 14.5159091,
                "end_time": 14.6,
                "pitch": 52,
                "velocity": 51,
                "duration": 0.0840909,
                "tempo": 120.0
            },
            {
                "start_time": 14.7045455,
                "end_time": 14.7909091,
                "pitch": 52,
                "velocity": 51,
                "duration": 0.0863636,
                "tempo": 120.0
            },
            {
                "start_time": 14.8954545,
                "end_time": 14.9772727,
                "pitch": 52,
                "velocity": 51,
                "duration": 0.0818182,
                "tempo": 120.0
            },
            {
                "start_time": 15.0795455,
                "end_time": 15.1272727,
                "pitch": 52,
                "velocity": 51,
                "duration": 0.0477273,
                "tempo": 120.0
            },
            {
                "start_time": 15.1772727,
                "end_time": 15.2272727,
                "pitch": 52,
                "velocity": 51,
                "duration": 0.05,
                "tempo": 120.0
            },
            {
                "start_time": 15.2795455,
                "end_time": 15.3636364,
                "pitch": 52,
                "velocity": 51,
                "duration": 0.0840909,
                "tempo": 120.0
            },
            {
                "start_time": 15.4681818,
                "end_time": 15.5545455,
                "pitch": 52,
                "velocity": 51,
                "duration": 0.0863636,
                "tempo": 120.0
            },
            {
                "start_time": 15.6590909,
                "end_time": 15.7409091,
                "pitch": 52,
                "velocity": 51,
                "duration": 0.0818182,
                "tempo": 120.0
            },
            {
                "start_time": 15.8409091,
                "end_time": 15.8909091,
                "pitch": 52,
                "velocity": 51,
                "duration": 0.05,
                "tempo": 120.0
            },
            {
                "start_time": 15.9409091,
                "end_time": 15.9909091,
                "pitch": 52,
                "velocity": 51,
                "duration": 0.05,
                "tempo": 120.0
            },
            {
                "start_time": 16.0431818,
                "end_time": 16.2318182,
                "pitch": 50,
                "velocity": 51,
                "duration": 0.1886364,
                "tempo": 120.0
            },
            {
                "start_time": 16.4227273,
                "end_time": 16.6045455,
                "pitch": 50,
                "velocity": 51,
                "duration": 0.1818182,
                "tempo": 120.0
            },
            {
                "start_time": 16.8068182,
                "end_time": 16.8909091,
                "pitch": 52,
                "velocity": 51,
                "duration": 0.0840909,
                "tempo": 120.0
            },
            {
                "start_time": 16.9954545,
                "end_time": 17.0795455,
                "pitch": 52,
                "velocity": 51,
                "duration": 0.0840909,
                "tempo": 120.0
            },
            {
                "start_time": 17.1840909,
                "end_time": 17.2681818,
                "pitch": 52,
                "velocity": 51,
                "duration": 0.0840909,
                "tempo": 120.0
            },
            {
                "start_time": 17.3681818,
                "end_time": 17.4181818,
                "pitch": 52,
                "velocity": 51,
                "duration": 0.05,
                "tempo": 120.0
            },
            {
                "start_time": 17.4681818,
                "end_time": 17.5181818,
                "pitch": 52,
                "velocity": 51,
                "duration": 0.05,
                "tempo": 120.0
            },
            {
                "start_time": 17.5681818,
                "end_time": 17.6568182,
                "pitch": 52,
                "velocity": 51,
                "duration": 0.0886364,
                "tempo": 120.0
            },
            {
                "start_time": 17.7636364,
                "end_time": 17.85,
                "pitch": 52,
                "velocity": 51,
                "duration": 0.0863636,
                "tempo": 120.0
            },
            {
                "start_time": 17.9568182,
                "end_time": 18.0386364,
                "pitch": 52,
                "velocity": 51,
                "duration": 0.0818182,
                "tempo": 120.0
            },
            {
                "start_time": 18.1363636,
                "end_time": 18.1840909,
                "pitch": 52,
                "velocity": 51,
                "duration": 0.0477273,
                "tempo": 120.0
            },
            {
                "start_time": 18.2340909,
                "end_time": 18.2818182,
                "pitch": 52,
                "velocity": 51,
                "duration": 0.0477273,
                "tempo": 120.0
            },
            {
                "start_time": 18.3318182,
                "end_time": 18.5272727,
                "pitch": 50,
                "velocity": 51,
                "duration": 0.1954545,
                "tempo": 120.0
            },
            {
                "start_time": 18.7204545,
                "end_time": 18.9,
                "pitch": 50,
                "velocity": 51,
                "duration": 0.1795455,
                "tempo": 120.0
            },
            {
                "start_time": 19.0954545,
                "end_time": 19.1840909,
                "pitch": 52,
                "velocity": 51,
                "duration": 0.0886364,
                "tempo": 120.0
            },
            {
                "start_time": 19.2909091,
                "end_time": 19.3772727,
                "pitch": 52,
                "velocity": 51,
                "duration": 0.0863636,
                "tempo": 120.0
            },
            {
                "start_time": 19.4840909,
                "end_time": 19.5681818,
                "pitch": 52,
                "velocity": 51,
                "duration": 0.0840909,
                "tempo": 120.0
            },
            {
                "start_time": 19.6681818,
                "end_time": 19.7181818,
                "pitch": 52,
                "velocity": 51,
                "duration": 0.05,
                "tempo": 120.0
            },
            {
                "start_time": 19.7681818,
                "end_time": 19.8181818,
                "pitch": 52,
                "velocity": 51,
                "duration": 0.05,
                "tempo": 120.0
            },
            {
                "start_time": 19.8704545,
                "end_time": 19.9545455,
                "pitch": 52,
                "velocity": 51,
                "duration": 0.0840909,
                "tempo": 120.0
            },
            {
                "start_time": 20.0590909,
                "end_time": 20.1431818,
                "pitch": 52,
                "velocity": 51,
                "duration": 0.0840909,
                "tempo": 120.0
            },
            {
                "start_time": 20.2477273,
                "end_time": 20.3318182,
                "pitch": 52,
                "velocity": 51,
                "duration": 0.0840909,
                "tempo": 120.0
            },
            {
                "start_time": 20.4318182,
                "end_time": 20.4818182,
                "pitch": 52,
                "velocity": 51,
                "duration": 0.05,
                "tempo": 120.0
            },
            {
                "start_time": 20.5318182,
                "end_time": 20.5818182,
                "pitch": 52,
                "velocity": 51,
                "duration": 0.05,
                "tempo": 120.0
            },
            {
                "start_time": 20.6318182,
                "end_time": 20.8227273,
                "pitch": 50,
                "velocity": 51,
                "duration": 0.1909091,
                "tempo": 120.0
            },
            {
                "start_time": 21.0113636,
                "end_time": 21.1909091,
                "pitch": 50,
                "velocity": 51,
                "duration": 0.1795455,
                "tempo": 120.0
            },
            {
                "start_time": 21.3863636,
                "end_time": 21.4727273,
                "pitch": 49,
                "velocity": 51,
                "duration": 0.0863636,
                "tempo": 120.0
            },
            {
                "start_time": 21.5818182,
                "end_time": 21.6681818,
                "pitch": 49,
                "velocity": 51,
                "duration": 0.0863636,
                "tempo": 120.0
            },
            {
                "start_time": 21.775,
                "end_time": 21.8590909,
                "pitch": 49,
                "velocity": 51,
                "duration": 0.0840909,
                "tempo": 120.0
            },
            {
                "start_time": 21.9590909,
                "end_time": 22.0590909,
                "pitch": 49,
                "velocity": 51,
                "duration": 0.1,
                "tempo": 120.0
            },
            {
                "start_time": 22.1590909,
                "end_time": 22.2454545,
                "pitch": 49,
                "velocity": 51,
                "duration": 0.0863636,
                "tempo": 120.0
            },
            {
                "start_time": 22.35,
                "end_time": 22.4340909,
                "pitch": 49,
                "velocity": 51,
                "duration": 0.0840909,
                "tempo": 120.0
            },
            {
                "start_time": 22.5386364,
                "end_time": 22.6204545,
                "pitch": 49,
                "velocity": 51,
                "duration": 0.0818182,
                "tempo": 120.0
            },
            {
                "start_time": 22.7227273,
                "end_time": 22.7727273,
                "pitch": 49,
                "velocity": 51,
                "duration": 0.05,
                "tempo": 120.0
            },
            {
                "start_time": 22.8227273,
                "end_time": 22.8727273,
                "pitch": 49,
                "velocity": 51,
                "duration": 0.05,
                "tempo": 120.0
            },
            {
                "start_time": 22.9227273,
                "end_time": 23.0090909,
                "pitch": 49,
                "velocity": 51,
                "duration": 0.0863636,
                "tempo": 120.0
            },
            {
                "start_time": 23.1136364,
                "end_time": 23.1977273,
                "pitch": 49,
                "velocity": 51,
                "duration": 0.0840909,
                "tempo": 120.0
            },
            {
                "start_time": 23.3022727,
                "end_time": 23.3840909,
                "pitch": 49,
                "velocity": 51,
                "duration": 0.0818182,
                "tempo": 120.0
            },
            {
                "start_time": 23.4863636,
                "end_time": 23.5863636,
                "pitch": 49,
                "velocity": 51,
                "duration": 0.1,
                "tempo": 120.0
            },
            {
                "start_time": 23.6863636,
                "end_time": 23.7727273,
                "pitch": 49,
                "velocity": 51,
                "duration": 0.0863636,
                "tempo": 120.0
            },
            {
                "start_time": 23.8772727,
                "end_time": 23.9613636,
                "pitch": 49,
                "velocity": 51,
                "duration": 0.0840909,
                "tempo": 120.0
            },
            {
                "start_time": 24.0659091,
                "end_time": 24.1477273,
                "pitch": 49,
                "velocity": 51,
                "duration": 0.0818182,
                "tempo": 120.0
            },
            {
                "start_time": 24.25,
                "end_time": 24.2977273,
                "pitch": 49,
                "velocity": 51,
                "duration": 0.0477273,
                "tempo": 120.0
            },
            {
                "start_time": 24.35,
                "end_time": 24.4,
                "pitch": 49,
                "velocity": 51,
                "duration": 0.05,
                "tempo": 120.0
            },
            {
                "start_time": 24.45,
                "end_time": 24.5363636,
                "pitch": 49,
                "velocity": 51,
                "duration": 0.0863636,
                "tempo": 120.0
            },
            {
                "start_time": 24.6454545,
                "end_time": 24.7318182,
                "pitch": 49,
                "velocity": 51,
                "duration": 0.0863636,
                "tempo": 120.0
            },
            {
                "start_time": 24.8386364,
                "end_time": 24.9181818,
                "pitch": 49,
                "velocity": 51,
                "duration": 0.0795455,
                "tempo": 120.0
            },
            {
                "start_time": 25.0181818,
                "end_time": 25.1159091,
                "pitch": 49,
                "velocity": 51,
                "duration": 0.0977273,
                "tempo": 120.0
            },
            {
                "start_time": 25.2136364,
                "end_time": 25.3,
                "pitch": 49,
                "velocity": 51,
                "duration": 0.0863636,
                "tempo": 120.0
            },
            {
                "start_time": 25.4090909,
                "end_time": 25.4954545,
                "pitch": 49,
                "velocity": 51,
                "duration": 0.0863636,
                "tempo": 120.0
            },
            {
                "start_time": 25.6022727,
                "end_time": 25.6795455,
                "pitch": 49,
                "velocity": 51,
                "duration": 0.0772727,
                "tempo": 120.0
            },
            {
                "start_time": 25.775,
                "end_time": 25.8204545,
                "pitch": 49,
                "velocity": 51,
                "duration": 0.0454545,
                "tempo": 120.0
            },
            {
                "start_time": 25.8681818,
                "end_time": 25.9136364,
                "pitch": 49,
                "velocity": 51,
                "duration": 0.0454545,
                "tempo": 120.0
            },
            {
                "start_time": 25.9568182,
                "end_time": 26.025,
                "pitch": 49,
                "velocity": 51,
                "duration": 0.0681818,
                "tempo": 120.0
            },
            {
                "start_time": 26.1090909,
                "end_time": 26.1795455,
                "pitch": 49,
                "velocity": 51,
                "duration": 0.0704545,
                "tempo": 120.0
            },
            {
                "start_time": 26.2681818,
                "end_time": 26.3386364,
                "pitch": 49,
                "velocity": 51,
                "duration": 0.0704545,
                "tempo": 120.0
            },
            {
                "start_time": 26.4272727,
                "end_time": 26.5136364,
                "pitch": 49,
                "velocity": 51,
                "duration": 0.0863636,
                "tempo": 120.0
            },
            {
                "start_time": 26.6,
                "end_time": 26.6727273,
                "pitch": 49,
                "velocity": 51,
                "duration": 0.0727273,
                "tempo": 120.0
            },
            {
                "start_time": 26.7590909,
                "end_time": 26.8454545,
                "pitch": 49,
                "velocity": 51,
                "duration": 0.0863636,
                "tempo": 120.0
            },
            {
                "start_time": 26.95,
                "end_time": 27.0340909,
                "pitch": 49,
                "velocity": 51,
                "duration": 0.0840909,
                "tempo": 120.0
            },
            {
                "start_time": 27.1386364,
                "end_time": 27.1886364,
                "pitch": 49,
                "velocity": 51,
                "duration": 0.05,
                "tempo": 120.0
            },
            {
                "start_time": 27.2386364,
                "end_time": 27.2886364,
                "pitch": 49,
                "velocity": 51,
                "duration": 0.05,
                "tempo": 120.0
            },
            {
                "start_time": 27.3386364,
                "end_time": 27.4227273,
                "pitch": 57,
                "velocity": 51,
                "duration": 0.0840909,
                "tempo": 120.0
            },
            {
                "start_time": 27.5227273,
                "end_time": 27.6090909,
                "pitch": 57,
                "velocity": 51,
                "duration": 0.0863636,
                "tempo": 120.0
            },
            {
                "start_time": 27.7136364,
                "end_time": 27.7977273,
                "pitch": 57,
                "velocity": 51,
                "duration": 0.0840909,
                "tempo": 120.0
            },
            {
                "start_time": 27.9022727,
                "end_time": 28.0022727,
                "pitch": 57,
                "velocity": 51,
                "duration": 0.1,
                "tempo": 120.0
            },
            {
                "start_time": 28.1022727,
                "end_time": 28.1863636,
                "pitch": 57,
                "velocity": 51,
                "duration": 0.0840909,
                "tempo": 120.0
            },
            {
                "start_time": 28.2863636,
                "end_time": 28.3727273,
                "pitch": 57,
                "velocity": 51,
                "duration": 0.0863636,
                "tempo": 120.0
            },
            {
                "start_time": 28.4772727,
                "end_time": 28.5613636,
                "pitch": 57,
                "velocity": 51,
                "duration": 0.0840909,
                "tempo": 120.0
            },
            {
                "start_time": 28.6659091,
                "end_time": 28.7159091,
                "pitch": 57,
                "velocity": 51,
                "duration": 0.05,
                "tempo": 120.0
            },
            {
                "start_time": 28.7659091,
                "end_time": 28.8159091,
                "pitch": 57,
                "velocity": 51,
                "duration": 0.05,
                "tempo": 120.0
            },
            {
                "start_time": 28.8659091,
                "end_time": 28.9477273,
                "pitch": 57,
                "velocity": 51,
                "duration": 0.0818182,
                "tempo": 120.0
            },
            {
                "start_time": 29.05,
                "end_time": 29.1363636,
                "pitch": 57,
                "velocity": 51,
                "duration": 0.0863636,
                "tempo": 120.0
            },
            {
                "start_time": 29.2454545,
                "end_time": 29.3318182,
                "pitch": 57,
                "velocity": 51,
                "duration": 0.0863636,
                "tempo": 120.0
            },
            {
                "start_time": 29.4386364,
                "end_time": 29.5363636,
                "pitch": 57,
                "velocity": 51,
                "duration": 0.0977273,
                "tempo": 120.0
            },
            {
                "start_time": 29.6340909,
                "end_time": 29.7136364,
                "pitch": 57,
                "velocity": 51,
                "duration": 0.0795455,
                "tempo": 120.0
            },
            {
                "start_time": 29.8136364,
                "end_time": 29.9,
                "pitch": 57,
                "velocity": 51,
                "duration": 0.0863636,
                "tempo": 120.0
            },
            {
                "start_time": 30.0045455,
                "end_time": 30.0886364,
                "pitch": 57,
                "velocity": 51,
                "duration": 0.0840909,
                "tempo": 120.0
            },
            {
                "start_time": 30.1931818,
                "end_time": 30.2409091,
                "pitch": 57,
                "velocity": 51,
                "duration": 0.0477273,
                "tempo": 120.0
            },
            {
                "start_time": 30.2931818,
                "end_time": 30.3431818,
                "pitch": 57,
                "velocity": 51,
                "duration": 0.05,
                "tempo": 120.0
            },
            {
                "start_time": 30.3931818,
                "end_time": 30.475,
                "pitch": 55,
                "velocity": 51,
                "duration": 0.0818182,
                "tempo": 120.0
            },
            {
                "start_time": 30.5772727,
                "end_time": 30.6636364,
                "pitch": 55,
                "velocity": 51,
                "duration": 0.0863636,
                "tempo": 120.0
            },
            {
                "start_time": 30.7727273,
                "end_time": 30.8590909,
                "pitch": 55,
                "velocity": 51,
                "duration": 0.0863636,
                "tempo": 120.0
            },
            {
                "start_time": 30.9659091,
                "end_time": 31.0613636,
                "pitch": 55,
                "velocity": 51,
                "duration": 0.0954545,
                "tempo": 120.0
            },
            {
                "start_time": 31.1613636,
                "end_time": 31.2409091,
                "pitch": 55,
                "velocity": 51,
                "duration": 0.0795455,
                "tempo": 120.0
            },
            {
                "start_time": 31.3409091,
                "end_time": 31.4272727,
                "pitch": 55,
                "velocity": 51,
                "duration": 0.0863636,
                "tempo": 120.0
            },
            {
                "start_time": 31.5340909,
                "end_time": 31.6227273,
                "pitch": 55,
                "velocity": 51,
                "duration": 0.0886364,
                "tempo": 120.0
            },
            {
                "start_time": 31.7295455,
                "end_time": 31.7772727,
                "pitch": 55,
                "velocity": 51,
                "duration": 0.0477273,
                "tempo": 120.0
            },
            {
                "start_time": 31.825,
                "end_time": 31.875,
                "pitch": 55,
                "velocity": 51,
                "duration": 0.05,
                "tempo": 120.0
            },
            {
                "start_time": 31.925,
                "end_time": 32.0045455,
                "pitch": 55,
                "velocity": 51,
                "duration": 0.0795455,
                "tempo": 120.0
            },
            {
                "start_time": 32.1045455,
                "end_time": 32.1909091,
                "pitch": 55,
                "velocity": 51,
                "duration": 0.0863636,
                "tempo": 120.0
            },
            {
                "start_time": 32.2977273,
                "end_time": 32.3863636,
                "pitch": 55,
                "velocity": 51,
                "duration": 0.0886364,
                "tempo": 120.0
            },
            {
                "start_time": 32.4931818,
                "end_time": 32.5931818,
                "pitch": 55,
                "velocity": 51,
                "duration": 0.1,
                "tempo": 120.0
            },
            {
                "start_time": 32.6931818,
                "end_time": 32.775,
                "pitch": 55,
                "velocity": 51,
                "duration": 0.0818182,
                "tempo": 120.0
            },
            {
                "start_time": 32.8772727,
                "end_time": 32.9613636,
                "pitch": 55,
                "velocity": 51,
                "duration": 0.0840909,
                "tempo": 120.0
            },
            {
                "start_time": 33.0681818,
                "end_time": 33.1522727,
                "pitch": 55,
                "velocity": 51,
                "duration": 0.0840909,
                "tempo": 120.0
            },
            {
                "start_time": 33.2568182,
                "end_time": 33.3045455,
                "pitch": 55,
                "velocity": 51,
                "duration": 0.0477273,
                "tempo": 120.0
            },
            {
                "start_time": 33.3568182,
                "end_time": 33.4068182,
                "pitch": 55,
                "velocity": 51,
                "duration": 0.05,
                "tempo": 120.0
            },
            {
                "start_time": 33.4568182,
                "end_time": 33.5386364,
                "pitch": 57,
                "velocity": 51,
                "duration": 0.0818182,
                "tempo": 120.0
            },
            {
                "start_time": 33.6409091,
                "end_time": 33.725,
                "pitch": 57,
                "velocity": 51,
                "duration": 0.0840909,
                "tempo": 120.0
            },
            {
                "start_time": 33.8295455,
                "end_time": 33.9159091,
                "pitch": 57,
                "velocity": 51,
                "duration": 0.0863636,
                "tempo": 120.0
            },
            {
                "start_time": 34.0204545,
                "end_time": 34.1181818,
                "pitch": 57,
                "velocity": 51,
                "duration": 0.0977273,
                "tempo": 120.0
            },
            {
                "start_time": 34.2204545,
                "end_time": 34.3022727,
                "pitch": 57,
                "velocity": 51,
                "duration": 0.0818182,
                "tempo": 120.0
            },
            {
                "start_time": 34.4045455,
                "end_time": 34.4886364,
                "pitch": 57,
                "velocity": 51,
                "duration": 0.0840909,
                "tempo": 120.0
            },
            {
                "start_time": 34.5931818,
                "end_time": 34.6795455,
                "pitch": 57,
                "velocity": 51,
                "duration": 0.0863636,
                "tempo": 120.0
            },
            {
                "start_time": 34.7840909,
                "end_time": 34.8318182,
                "pitch": 57,
                "velocity": 51,
                "duration": 0.0477273,
                "tempo": 120.0
            },
            {
                "start_time": 34.8818182,
                "end_time": 34.9318182,
                "pitch": 57,
                "velocity": 51,
                "duration": 0.05,
                "tempo": 120.0
            },
            {
                "start_time": 34.9840909,
                "end_time": 35.0659091,
                "pitch": 57,
                "velocity": 51,
                "duration": 0.0818182,
                "tempo": 120.0
            },
            {
                "start_time": 35.1681818,
                "end_time": 35.2522727,
                "pitch": 57,
                "velocity": 51,
                "duration": 0.0840909,
                "tempo": 120.0
            },
            {
                "start_time": 35.3568182,
                "end_time": 35.4431818,
                "pitch": 57,
                "velocity": 51,
                "duration": 0.0863636,
                "tempo": 120.0
            },
            {
                "start_time": 35.5477273,
                "end_time": 35.6454545,
                "pitch": 57,
                "velocity": 51,
                "duration": 0.0977273,
                "tempo": 120.0
            },
            {
                "start_time": 35.7477273,
                "end_time": 35.8295455,
                "pitch": 57,
                "velocity": 51,
                "duration": 0.0818182,
                "tempo": 120.0
            },
            {
                "start_time": 35.9318182,
                "end_time": 36.0159091,
                "pitch": 57,
                "velocity": 51,
                "duration": 0.0840909,
                "tempo": 120.0
            },
            {
                "start_time": 36.1204545,
                "end_time": 36.2068182,
                "pitch": 57,
                "velocity": 51,
                "duration": 0.0863636,
                "tempo": 120.0
            },
            {
                "start_time": 36.3113636,
                "end_time": 36.3590909,
                "pitch": 57,
                "velocity": 51,
                "duration": 0.0477273,
                "tempo": 120.0
            },
            {
                "start_time": 36.4090909,
                "end_time": 36.4590909,
                "pitch": 57,
                "velocity": 51,
                "duration": 0.05,
                "tempo": 120.0
            },
            {
                "start_time": 36.5113636,
                "end_time": 36.5931818,
                "pitch": 48,
                "velocity": 51,
                "duration": 0.0818182,
                "tempo": 120.0
            },
            {
                "start_time": 36.6954545,
                "end_time": 36.7818182,
                "pitch": 48,
                "velocity": 51,
                "duration": 0.0863636,
                "tempo": 120.0
            },
            {
                "start_time": 36.8886364,
                "end_time": 36.975,
                "pitch": 48,
                "velocity": 51,
                "duration": 0.0863636,
                "tempo": 120.0
            },
            {
                "start_time": 37.0840909,
                "end_time": 37.1795455,
                "pitch": 48,
                "velocity": 51,
                "duration": 0.0954545,
                "tempo": 120.0
            },
            {
                "start_time": 37.2795455,
                "end_time": 37.3590909,
                "pitch": 48,
                "velocity": 51,
                "duration": 0.0795455,
                "tempo": 120.0
            },
            {
                "start_time": 37.4590909,
                "end_time": 37.5431818,
                "pitch": 48,
                "velocity": 51,
                "duration": 0.0840909,
                "tempo": 120.0
            },
            {
                "start_time": 37.6477273,
                "end_time": 37.7340909,
                "pitch": 48,
                "velocity": 51,
                "duration": 0.0863636,
                "tempo": 120.0
            },
            {
                "start_time": 37.8386364,
                "end_time": 37.8863636,
                "pitch": 48,
                "velocity": 51,
                "duration": 0.0477273,
                "tempo": 120.0
            },
            {
                "start_time": 37.9363636,
                "end_time": 37.9863636,
                "pitch": 48,
                "velocity": 51,
                "duration": 0.05,
                "tempo": 120.0
            },
            {
                "start_time": 38.0386364,
                "end_time": 38.1204545,
                "pitch": 48,
                "velocity": 51,
                "duration": 0.0818182,
                "tempo": 120.0
            },
            {
                "start_time": 38.2227273,
                "end_time": 38.3090909,
                "pitch": 48,
                "velocity": 51,
                "duration": 0.0863636,
                "tempo": 120.0
            },
            {
                "start_time": 38.4159091,
                "end_time": 38.5022727,
                "pitch": 48,
                "velocity": 51,
                "duration": 0.0863636,
                "tempo": 120.0
            },
            {
                "start_time": 38.6113636,
                "end_time": 38.7068182,
                "pitch": 48,
                "velocity": 51,
                "duration": 0.0954545,
                "tempo": 120.0
            },
            {
                "start_time": 38.8068182,
                "end_time": 38.8863636,
                "pitch": 48,
                "velocity": 51,
                "duration": 0.0795455,
                "tempo": 120.0
            },
            {
                "start_time": 38.9863636,
                "end_time": 39.0727273,
                "pitch": 48,
                "velocity": 51,
                "duration": 0.0863636,
                "tempo": 120.0
            },
            {
                "start_time": 39.1795455,
                "end_time": 39.2659091,
                "pitch": 48,
                "velocity": 51,
                "duration": 0.0863636,
                "tempo": 120.0
            },
            {
                "start_time": 39.3727273,
                "end_time": 39.4204545,
                "pitch": 48,
                "velocity": 51,
                "duration": 0.0477273,
                "tempo": 120.0
            },
            {
                "start_time": 39.4704545,
                "end_time": 39.5204545,
                "pitch": 48,
                "velocity": 51,
                "duration": 0.05,
                "tempo": 120.0
            },
            {
                "start_time": 39.5704545,
                "end_time": 39.65,
                "pitch": 50,
                "velocity": 51,
                "duration": 0.0795455,
                "tempo": 120.0
            },
            {
                "start_time": 39.7477273,
                "end_time": 39.8363636,
                "pitch": 50,
                "velocity": 51,
                "duration": 0.0886364,
                "tempo": 120.0
            },
            {
                "start_time": 39.9431818,
                "end_time": 40.0295455,
                "pitch": 50,
                "velocity": 51,
                "duration": 0.0863636,
                "tempo": 120.0
            },
            {
                "start_time": 40.1386364,
                "end_time": 40.2363636,
                "pitch": 50,
                "velocity": 51,
                "duration": 0.0977273,
                "tempo": 120.0
            },
            {
                "start_time": 40.3386364,
                "end_time": 40.4204545,
                "pitch": 50,
                "velocity": 51,
                "duration": 0.0818182,
                "tempo": 120.0
            },
            {
                "start_time": 40.5227273,
                "end_time": 40.6068182,
                "pitch": 50,
                "velocity": 51,
                "duration": 0.0840909,
                "tempo": 120.0
            },
            {
                "start_time": 40.7113636,
                "end_time": 40.7954545,
                "pitch": 50,
                "velocity": 51,
                "duration": 0.0840909,
                "tempo": 120.0
            },
            {
                "start_time": 40.9022727,
                "end_time": 40.95,
                "pitch": 50,
                "velocity": 51,
                "duration": 0.0477273,
                "tempo": 120.0
            },
            {
                "start_time": 41.0,
                "end_time": 41.05,
                "pitch": 50,
                "velocity": 51,
                "duration": 0.05,
                "tempo": 120.0
            },
            {
                "start_time": 41.1022727,
                "end_time": 41.1840909,
                "pitch": 50,
                "velocity": 51,
                "duration": 0.0818182,
                "tempo": 120.0
            },
            {
                "start_time": 41.2863636,
                "end_time": 41.3704545,
                "pitch": 50,
                "velocity": 51,
                "duration": 0.0840909,
                "tempo": 120.0
            },
            {
                "start_time": 41.475,
                "end_time": 41.5590909,
                "pitch": 50,
                "velocity": 51,
                "duration": 0.0840909,
                "tempo": 120.0
            },
            {
                "start_time": 41.6636364,
                "end_time": 41.7636364,
                "pitch": 50,
                "velocity": 51,
                "duration": 0.1,
                "tempo": 120.0
            },
            {
                "start_time": 41.8659091,
                "end_time": 41.9477273,
                "pitch": 50,
                "velocity": 51,
                "duration": 0.0818182,
                "tempo": 120.0
            },
            {
                "start_time": 42.05,
                "end_time": 42.1340909,
                "pitch": 50,
                "velocity": 51,
                "duration": 0.0840909,
                "tempo": 120.0
            },
            {
                "start_time": 42.2386364,
                "end_time": 42.3227273,
                "pitch": 50,
                "velocity": 51,
                "duration": 0.0840909,
                "tempo": 120.0
            },
            {
                "start_time": 42.4272727,
                "end_time": 42.4772727,
                "pitch": 50,
                "velocity": 51,
                "duration": 0.05,
                "tempo": 120.0
            },
            {
                "start_time": 42.5272727,
                "end_time": 42.5772727,
                "pitch": 50,
                "velocity": 51,
                "duration": 0.05,
                "tempo": 120.0
            },
            {
                "start_time": 42.6295455,
                "end_time": 42.7113636,
                "pitch": 52,
                "velocity": 51,
                "duration": 0.0818182,
                "tempo": 120.0
            },
            {
                "start_time": 42.8113636,
                "end_time": 42.8977273,
                "pitch": 52,
                "velocity": 51,
                "duration": 0.0863636,
                "tempo": 120.0
            },
            {
                "start_time": 43.0022727,
                "end_time": 43.0863636,
                "pitch": 52,
                "velocity": 51,
                "duration": 0.0840909,
                "tempo": 120.0
            },
            {
                "start_time": 43.1909091,
                "end_time": 43.2909091,
                "pitch": 52,
                "velocity": 51,
                "duration": 0.1,
                "tempo": 120.0
            },
            {
                "start_time": 43.3909091,
                "end_time": 43.475,
                "pitch": 52,
                "velocity": 51,
                "duration": 0.0840909,
                "tempo": 120.0
            },
            {
                "start_time": 43.575,
                "end_time": 43.6613636,
                "pitch": 52,
                "velocity": 51,
                "duration": 0.0863636,
                "tempo": 120.0
            },
            {
                "start_time": 43.7659091,
                "end_time": 43.85,
                "pitch": 52,
                "velocity": 51,
                "duration": 0.0840909,
                "tempo": 120.0
            },
            {
                "start_time": 43.9545455,
                "end_time": 44.0045455,
                "pitch": 52,
                "velocity": 51,
                "duration": 0.05,
                "tempo": 120.0
            },
            {
                "start_time": 44.0545455,
                "end_time": 44.1045455,
                "pitch": 52,
                "velocity": 51,
                "duration": 0.05,
                "tempo": 120.0
            },
            {
                "start_time": 44.1545455,
                "end_time": 44.2386364,
                "pitch": 52,
                "velocity": 51,
                "duration": 0.0840909,
                "tempo": 120.0
            },
            {
                "start_time": 44.3386364,
                "end_time": 44.425,
                "pitch": 52,
                "velocity": 51,
                "duration": 0.0863636,
                "tempo": 120.0
            },
            {
                "start_time": 44.5340909,
                "end_time": 44.6204545,
                "pitch": 52,
                "velocity": 51,
                "duration": 0.0863636,
                "tempo": 120.0
            },
            {
                "start_time": 44.7272727,
                "end_time": 44.825,
                "pitch": 52,
                "velocity": 51,
                "duration": 0.0977273,
                "tempo": 120.0
            },
            {
                "start_time": 44.9227273,
                "end_time": 45.0045455,
                "pitch": 52,
                "velocity": 51,
                "duration": 0.0818182,
                "tempo": 120.0
            },
            {
                "start_time": 45.1022727,
                "end_time": 45.1886364,
                "pitch": 52,
                "velocity": 51,
                "duration": 0.0863636,
                "tempo": 120.0
            },
            {
                "start_time": 45.2931818,
                "end_time": 45.3772727,
                "pitch": 52,
                "velocity": 51,
                "duration": 0.0840909,
                "tempo": 120.0
            },
            {
                "start_time": 45.4818182,
                "end_time": 45.5318182,
                "pitch": 52,
                "velocity": 51,
                "duration": 0.05,
                "tempo": 120.0
            },
            {
                "start_time": 45.5818182,
                "end_time": 45.6318182,
                "pitch": 52,
                "velocity": 51,
                "duration": 0.05,
                "tempo": 120.0
            },
            {
                "start_time": 45.6818182,
                "end_time": 45.7659091,
                "pitch": 48,
                "velocity": 51,
                "duration": 0.0840909,
                "tempo": 120.0
            },
            {
                "start_time": 45.8545455,
                "end_time": 45.9227273,
                "pitch": 48,
                "velocity": 51,
                "duration": 0.0681818,
                "tempo": 120.0
            },
            {
                "start_time": 46.0090909,
                "end_time": 46.0772727,
                "pitch": 48,
                "velocity": 51,
                "duration": 0.0681818,
                "tempo": 120.0
            },
            {
                "start_time": 46.1659091,
                "end_time": 46.2522727,
                "pitch": 48,
                "velocity": 51,
                "duration": 0.0863636,
                "tempo": 120.0
            },
            {
                "start_time": 46.3386364,
                "end_time": 46.4136364,
                "pitch": 48,
                "velocity": 51,
                "duration": 0.075,
                "tempo": 120.0
            },
            {
                "start_time": 46.5045455,
                "end_time": 46.5772727,
                "pitch": 48,
                "velocity": 51,
                "duration": 0.0727273,
                "tempo": 120.0
            },
            {
                "start_time": 46.6681818,
                "end_time": 46.7477273,
                "pitch": 48,
                "velocity": 51,
                "duration": 0.0795455,
                "tempo": 120.0
            },
            {
                "start_time": 46.8477273,
                "end_time": 46.8954545,
                "pitch": 48,
                "velocity": 51,
                "duration": 0.0477273,
                "tempo": 120.0
            },
            {
                "start_time": 46.9431818,
                "end_time": 46.9931818,
                "pitch": 48,
                "velocity": 51,
                "duration": 0.05,
                "tempo": 120.0
            },
            {
                "start_time": 47.0431818,
                "end_time": 47.1272727,
                "pitch": 48,
                "velocity": 51,
                "duration": 0.0840909,
                "tempo": 120.0
            },
            {
                "start_time": 47.2340909,
                "end_time": 47.3181818,
                "pitch": 48,
                "velocity": 51,
                "duration": 0.0840909,
                "tempo": 120.0
            },
            {
                "start_time": 47.4227273,
                "end_time": 47.5045455,
                "pitch": 48,
                "velocity": 51,
                "duration": 0.0818182,
                "tempo": 120.0
            },
            {
                "start_time": 47.6068182,
                "end_time": 47.7045455,
                "pitch": 48,
                "velocity": 51,
                "duration": 0.0977273,
                "tempo": 120.0
            },
            {
                "start_time": 47.8068182,
                "end_time": 47.8909091,
                "pitch": 48,
                "velocity": 51,
                "duration": 0.0840909,
                "tempo": 120.0
            },
            {
                "start_time": 47.9954545,
                "end_time": 48.0818182,
                "pitch": 48,
                "velocity": 51,
                "duration": 0.0863636,
                "tempo": 120.0
            },
            {
                "start_time": 48.1863636,
                "end_time": 48.2681818,
                "pitch": 48,
                "velocity": 51,
                "duration": 0.0818182,
                "tempo": 120.0
            },
            {
                "start_time": 48.3704545,
                "end_time": 48.4181818,
                "pitch": 48,
                "velocity": 51,
                "duration": 0.0477273,
                "tempo": 120.0
            },
            {
                "start_time": 48.4681818,
                "end_time": 48.5181818,
                "pitch": 48,
                "velocity": 51,
                "duration": 0.05,
                "tempo": 120.0
            }
        ],
        "Acoustic Grand Piano": [
            {
                "start_time": 27.3409091,
                "end_time": 27.525,
                "pitch": 78,
                "velocity": 51,
                "duration": 0.1840909,
                "tempo": 120.0
            },
            {
                "start_time": 27.525,
                "end_time": 27.7136364,
                "pitch": 74,
                "velocity": 51,
                "duration": 0.1886364,
                "tempo": 120.0
            },
            {
                "start_time": 27.7136364,
                "end_time": 27.9045455,
                "pitch": 69,
                "velocity": 51,
                "duration": 0.1909091,
                "tempo": 120.0
            },
            {
                "start_time": 27.9045455,
                "end_time": 28.1045455,
                "pitch": 78,
                "velocity": 51,
                "duration": 0.2,
                "tempo": 120.0
            },
            {
                "start_time": 28.1045455,
                "end_time": 28.2886364,
                "pitch": 74,
                "velocity": 51,
                "duration": 0.1840909,
                "tempo": 120.0
            },
            {
                "start_time": 28.2886364,
                "end_time": 28.4772727,
                "pitch": 69,
                "velocity": 51,
                "duration": 0.1886364,
                "tempo": 120.0
            },
            {
                "start_time": 28.4772727,
                "end_time": 28.5795455,
                "pitch": 78,
                "velocity": 51,
                "duration": 0.1022727,
                "tempo": 120.0
            },
            {
                "start_time": 28.5795455,
                "end_time": 28.6659091,
                "pitch": 74,
                "velocity": 51,
                "duration": 0.0863636,
                "tempo": 120.0
            },
            {
                "start_time": 28.6681818,
                "end_time": 28.8681818,
                "pitch": 69,
                "velocity": 51,
                "duration": 0.2,
                "tempo": 120.0
            },
            {
                "start_time": 28.8681818,
                "end_time": 29.05,
                "pitch": 78,
                "velocity": 51,
                "duration": 0.1818182,
                "tempo": 120.0
            },
            {
                "start_time": 29.0522727,
                "end_time": 29.2454545,
                "pitch": 74,
                "velocity": 51,
                "duration": 0.1931818,
                "tempo": 120.0
            },
            {
                "start_time": 29.2454545,
                "end_time": 29.4386364,
                "pitch": 69,
                "velocity": 51,
                "duration": 0.1931818,
                "tempo": 120.0
            },
            {
                "start_time": 29.4409091,
                "end_time": 29.6340909,
                "pitch": 78,
                "velocity": 51,
                "duration": 0.1931818,
                "tempo": 120.0
            },
            {
                "start_time": 29.6363636,
                "end_time": 29.8159091,
                "pitch": 74,
                "velocity": 51,
                "duration": 0.1795455,
                "tempo": 120.0
            },
            {
                "start_time": 29.8159091,
                "end_time": 30.0045455,
                "pitch": 69,
                "velocity": 51,
                "duration": 0.1886364,
                "tempo": 120.0
            },
            {
                "start_time": 30.0045455,
                "end_time": 30.1068182,
                "pitch": 78,
                "velocity": 51,
                "duration": 0.1022727,
                "tempo": 120.0
            },
            {
                "start_time": 30.1068182,
                "end_time": 30.1931818,
                "pitch": 74,
                "velocity": 51,
                "duration": 0.0863636,
                "tempo": 120.0
            },
            {
                "start_time": 30.1931818,
                "end_time": 30.3954545,
                "pitch": 69,
                "velocity": 51,
                "duration": 0.2022727,
                "tempo": 120.0
            },
            {
                "start_time": 30.3954545,
                "end_time": 30.5772727,
                "pitch": 76,
                "velocity": 51,
                "duration": 0.1818182,
                "tempo": 120.0
            },
            {
                "start_time": 30.5772727,
                "end_time": 30.7727273,
                "pitch": 72,
                "velocity": 51,
                "duration": 0.1954545,
                "tempo": 120.0
            },
            {
                "start_time": 30.7727273,
                "end_time": 30.9659091,
                "pitch": 67,
                "velocity": 51,
                "duration": 0.1931818,
                "tempo": 120.0
            },
            {
                "start_time": 30.9659091,
                "end_time": 31.1613636,
                "pitch": 76,
                "velocity": 51,
                "duration": 0.1954545,
                "tempo": 120.0
            },
            {
                "start_time": 31.1613636,
                "end_time": 31.3409091,
                "pitch": 72,
                "velocity": 51,
                "duration": 0.1795455,
                "tempo": 120.0
            },
            {
                "start_time": 31.3409091,
                "end_time": 31.5363636,
                "pitch": 67,
                "velocity": 51,
                "duration": 0.1954545,
                "tempo": 120.0
            },
            {
                "start_time": 31.5363636,
                "end_time": 31.6409091,
                "pitch": 76,
                "velocity": 51,
                "duration": 0.1045455,
                "tempo": 120.0
            },
            {
                "start_time": 31.6409091,
                "end_time": 31.7295455,
                "pitch": 72,
                "velocity": 51,
                "duration": 0.0886364,
                "tempo": 120.0
            },
            {
                "start_time": 31.7295455,
                "end_time": 31.925,
                "pitch": 67,
                "velocity": 51,
                "duration": 0.1954545,
                "tempo": 120.0
            },
            {
                "start_time": 31.925,
                "end_time": 32.1045455,
                "pitch": 76,
                "velocity": 51,
                "duration": 0.1795455,
                "tempo": 120.0
            },
            {
                "start_time": 32.1045455,
                "end_time": 32.3,
                "pitch": 72,
                "velocity": 51,
                "duration": 0.1954545,
                "tempo": 120.0
            },
            {
                "start_time": 32.3,
                "end_time": 32.4931818,
                "pitch": 67,
                "velocity": 51,
                "duration": 0.1931818,
                "tempo": 120.0
            },
            {
                "start_time": 32.4931818,
                "end_time": 32.6954545,
                "pitch": 76,
                "velocity": 51,
                "duration": 0.2022727,
                "tempo": 120.0
            },
            {
                "start_time": 32.6954545,
                "end_time": 32.8772727,
                "pitch": 72,
                "velocity": 51,
                "duration": 0.1818182,
                "tempo": 120.0
            },
            {
                "start_time": 32.8795455,
                "end_time": 33.0681818,
                "pitch": 67,
                "velocity": 51,
                "duration": 0.1886364,
                "tempo": 120.0
            },
            {
                "start_time": 33.0681818,
                "end_time": 33.1704545,
                "pitch": 76,
                "velocity": 51,
                "duration": 0.1022727,
                "tempo": 120.0
            },
            {
                "start_time": 33.1704545,
                "end_time": 33.2568182,
                "pitch": 72,
                "velocity": 51,
                "duration": 0.0863636,
                "tempo": 120.0
            },
            {
                "start_time": 33.2568182,
                "end_time": 33.4590909,
                "pitch": 67,
                "velocity": 51,
                "duration": 0.2022727,
                "tempo": 120.0
            },
            {
                "start_time": 33.4590909,
                "end_time": 33.6409091,
                "pitch": 78,
                "velocity": 51,
                "duration": 0.1818182,
                "tempo": 120.0
            },
            {
                "start_time": 33.6431818,
                "end_time": 33.8318182,
                "pitch": 74,
                "velocity": 51,
                "duration": 0.1886364,
                "tempo": 120.0
            },
            {
                "start_time": 33.8318182,
                "end_time": 34.0204545,
                "pitch": 69,
                "velocity": 51,
                "duration": 0.1886364,
                "tempo": 120.0
            },
            {
                "start_time": 34.0204545,
                "end_time": 34.2204545,
                "pitch": 78,
                "velocity": 51,
                "duration": 0.2,
                "tempo": 120.0
            },
            {
                "start_time": 34.2227273,
                "end_time": 34.4045455,
                "pitch": 74,
                "velocity": 51,
                "duration": 0.1818182,
                "tempo": 120.0
            },
            {
                "start_time": 34.4045455,
                "end_time": 34.5954545,
                "pitch": 69,
                "velocity": 51,
                "duration": 0.1909091,
                "tempo": 120.0
            },
            {
                "start_time": 34.5954545,
                "end_time": 34.6977273,
                "pitch": 78,
                "velocity": 51,
                "duration": 0.1022727,
                "tempo": 120.0
            },
            {
                "start_time": 34.6977273,
                "end_time": 34.7840909,
                "pitch": 74,
                "velocity": 51,
                "duration": 0.0863636,
                "tempo": 120.0
            },
            {
                "start_time": 34.7840909,
                "end_time": 34.9840909,
                "pitch": 69,
                "velocity": 51,
                "duration": 0.2,
                "tempo": 120.0
            },
            {
                "start_time": 34.9840909,
                "end_time": 35.1681818,
                "pitch": 78,
                "velocity": 51,
                "duration": 0.1840909,
                "tempo": 120.0
            },
            {
                "start_time": 35.1681818,
                "end_time": 35.3590909,
                "pitch": 74,
                "velocity": 51,
                "duration": 0.1909091,
                "tempo": 120.0
            },
            {
                "start_time": 35.3590909,
                "end_time": 35.5477273,
                "pitch": 69,
                "velocity": 51,
                "duration": 0.1886364,
                "tempo": 120.0
            },
            {
                "start_time": 35.5477273,
                "end_time": 35.7477273,
                "pitch": 78,
                "velocity": 51,
                "duration": 0.2,
                "tempo": 120.0
            },
            {
                "start_time": 35.7477273,
                "end_time": 35.9318182,
                "pitch": 74,
                "velocity": 51,
                "duration": 0.1840909,
                "tempo": 120.0
            },
            {
                "start_time": 35.9318182,
                "end_time": 36.1227273,
                "pitch": 69,
                "velocity": 51,
                "duration": 0.1909091,
                "tempo": 120.0
            },
            {
                "start_time": 36.1227273,
                "end_time": 36.225,
                "pitch": 78,
                "velocity": 51,
                "duration": 0.1022727,
                "tempo": 120.0
            },
            {
                "start_time": 36.225,
                "end_time": 36.3113636,
                "pitch": 74,
                "velocity": 51,
                "duration": 0.0863636,
                "tempo": 120.0
            },
            {
                "start_time": 36.3113636,
                "end_time": 36.5113636,
                "pitch": 69,
                "velocity": 51,
                "duration": 0.2,
                "tempo": 120.0
            },
            {
                "start_time": 36.5113636,
                "end_time": 36.6954545,
                "pitch": 81,
                "velocity": 51,
                "duration": 0.1840909,
                "tempo": 120.0
            },
            {
                "start_time": 36.6954545,
                "end_time": 36.8886364,
                "pitch": 77,
                "velocity": 51,
                "duration": 0.1931818,
                "tempo": 120.0
            },
            {
                "start_time": 36.8909091,
                "end_time": 37.0840909,
                "pitch": 72,
                "velocity": 51,
                "duration": 0.1931818,
                "tempo": 120.0
            },
            {
                "start_time": 37.0840909,
                "end_time": 37.2795455,
                "pitch": 81,
                "velocity": 51,
                "duration": 0.1954545,
                "tempo": 120.0
            },
            {
                "start_time": 37.2795455,
                "end_time": 37.4590909,
                "pitch": 77,
                "velocity": 51,
                "duration": 0.1795455,
                "tempo": 120.0
            },
            {
                "start_time": 37.4590909,
                "end_time": 37.65,
                "pitch": 72,
                "velocity": 51,
                "duration": 0.1909091,
                "tempo": 120.0
            },
            {
                "start_time": 37.65,
                "end_time": 37.7522727,
                "pitch": 81,
                "velocity": 51,
                "duration": 0.1022727,
                "tempo": 120.0
            },
            {
                "start_time": 37.7522727,
                "end_time": 37.8386364,
                "pitch": 77,
                "velocity": 51,
                "duration": 0.0863636,
                "tempo": 120.0
            },
            {
                "start_time": 37.8386364,
                "end_time": 38.0386364,
                "pitch": 72,
                "velocity": 51,
                "duration": 0.2,
                "tempo": 120.0
            },
            {
                "start_time": 38.0386364,
                "end_time": 38.2227273,
                "pitch": 81,
                "velocity": 51,
                "duration": 0.1840909,
                "tempo": 120.0
            },
            {
                "start_time": 38.2227273,
                "end_time": 38.4159091,
                "pitch": 77,
                "velocity": 51,
                "duration": 0.1931818,
                "tempo": 120.0
            },
            {
                "start_time": 38.4181818,
                "end_time": 38.6113636,
                "pitch": 72,
                "velocity": 51,
                "duration": 0.1931818,
                "tempo": 120.0
            },
            {
                "start_time": 38.6113636,
                "end_time": 38.8068182,
                "pitch": 81,
                "velocity": 51,
                "duration": 0.1954545,
                "tempo": 120.0
            },
            {
                "start_time": 38.8068182,
                "end_time": 38.9863636,
                "pitch": 77,
                "velocity": 51,
                "duration": 0.1795455,
                "tempo": 120.0
            },
            {
                "start_time": 38.9863636,
                "end_time": 39.1795455,
                "pitch": 72,
                "velocity": 51,
                "duration": 0.1931818,
                "tempo": 120.0
            },
            {
                "start_time": 39.1818182,
                "end_time": 39.2863636,
                "pitch": 81,
                "velocity": 51,
                "duration": 0.1045455,
                "tempo": 120.0
            },
            {
                "start_time": 39.2863636,
                "end_time": 39.375,
                "pitch": 77,
                "velocity": 51,
                "duration": 0.0886364,
                "tempo": 120.0
            },
            {
                "start_time": 39.375,
                "end_time": 39.5704545,
                "pitch": 72,
                "velocity": 51,
                "duration": 0.1954545,
                "tempo": 120.0
            },
            {
                "start_time": 39.5704545,
                "end_time": 39.75,
                "pitch": 74,
                "velocity": 51,
                "duration": 0.1795455,
                "tempo": 120.0
            },
            {
                "start_time": 39.75,
                "end_time": 39.9431818,
                "pitch": 79,
                "velocity": 51,
                "duration": 0.1931818,
                "tempo": 120.0
            },
            {
                "start_time": 39.9431818,
                "end_time": 40.1386364,
                "pitch": 83,
                "velocity": 51,
                "duration": 0.1954545,
                "tempo": 120.0
            },
            {
                "start_time": 40.1386364,
                "end_time": 40.3386364,
                "pitch": 74,
                "velocity": 51,
                "duration": 0.2,
                "tempo": 120.0
            },
            {
                "start_time": 40.3386364,
                "end_time": 40.5227273,
                "pitch": 79,
                "velocity": 51,
                "duration": 0.1840909,
                "tempo": 120.0
            },
            {
                "start_time": 40.5227273,
                "end_time": 40.7113636,
                "pitch": 83,
                "velocity": 51,
                "duration": 0.1886364,
                "tempo": 120.0
            },
            {
                "start_time": 40.7136364,
                "end_time": 40.8159091,
                "pitch": 74,
                "velocity": 51,
                "duration": 0.1022727,
                "tempo": 120.0
            },
            {
                "start_time": 40.8159091,
                "end_time": 40.9022727,
                "pitch": 79,
                "velocity": 51,
                "duration": 0.0863636,
                "tempo": 120.0
            },
            {
                "start_time": 40.9022727,
                "end_time": 41.1022727,
                "pitch": 83,
                "velocity": 51,
                "duration": 0.2,
                "tempo": 120.0
            },
            {
                "start_time": 41.1022727,
                "end_time": 41.2863636,
                "pitch": 74,
                "velocity": 51,
                "duration": 0.1840909,
                "tempo": 120.0
            },
            {
                "start_time": 41.2863636,
                "end_time": 41.475,
                "pitch": 79,
                "velocity": 51,
                "duration": 0.1886364,
                "tempo": 120.0
            },
            {
                "start_time": 41.4772727,
                "end_time": 41.6659091,
                "pitch": 83,
                "velocity": 51,
                "duration": 0.1886364,
                "tempo": 120.0
            },
            {
                "start_time": 41.6659091,
                "end_time": 41.8659091,
                "pitch": 74,
                "velocity": 51,
                "duration": 0.2,
                "tempo": 120.0
            },
            {
                "start_time": 41.8659091,
                "end_time": 42.05,
                "pitch": 79,
                "velocity": 51,
                "duration": 0.1840909,
                "tempo": 120.0
            },
            {
                "start_time": 42.05,
                "end_time": 42.2386364,
                "pitch": 83,
                "velocity": 51,
                "duration": 0.1886364,
                "tempo": 120.0
            },
            {
                "start_time": 42.2386364,
                "end_time": 42.3409091,
                "pitch": 74,
                "velocity": 51,
                "duration": 0.1022727,
                "tempo": 120.0
            },
            {
                "start_time": 42.3409091,
                "end_time": 42.4295455,
                "pitch": 79,
                "velocity": 51,
                "duration": 0.0886364,
                "tempo": 120.0
            },
            {
                "start_time": 42.4295455,
                "end_time": 42.6295455,
                "pitch": 83,
                "velocity": 51,
                "duration": 0.2,
                "tempo": 120.0
            },
            {
                "start_time": 42.6295455,
                "end_time": 42.8136364,
                "pitch": 73,
                "velocity": 51,
                "duration": 0.1840909,
                "tempo": 120.0
            },
            {
                "start_time": 42.8136364,
                "end_time": 43.0022727,
                "pitch": 76,
                "velocity": 51,
                "duration": 0.1886364,
                "tempo": 120.0
            },
            {
                "start_time": 43.0022727,
                "end_time": 43.1931818,
                "pitch": 81,
                "velocity": 51,
                "duration": 0.1909091,
                "tempo": 120.0
            },
            {
                "start_time": 43.1931818,
                "end_time": 43.3931818,
                "pitch": 73,
                "velocity": 51,
                "duration": 0.2,
                "tempo": 120.0
            },
            {
                "start_time": 43.3931818,
                "end_time": 43.5772727,
                "pitch": 76,
                "velocity": 51,
                "duration": 0.1840909,
                "tempo": 120.0
            },
            {
                "start_time": 43.5772727,
                "end_time": 43.7659091,
                "pitch": 81,
                "velocity": 51,
                "duration": 0.1886364,
                "tempo": 120.0
            },
            {
                "start_time": 43.7659091,
                "end_time": 43.8681818,
                "pitch": 73,
                "velocity": 51,
                "duration": 0.1022727,
                "tempo": 120.0
            },
            {
                "start_time": 43.8681818,
                "end_time": 43.9568182,
                "pitch": 76,
                "velocity": 51,
                "duration": 0.0886364,
                "tempo": 120.0
            },
            {
                "start_time": 43.9568182,
                "end_time": 44.1568182,
                "pitch": 81,
                "velocity": 51,
                "duration": 0.2,
                "tempo": 120.0
            },
            {
                "start_time": 44.1568182,
                "end_time": 44.3409091,
                "pitch": 73,
                "velocity": 51,
                "duration": 0.1840909,
                "tempo": 120.0
            },
            {
                "start_time": 44.3409091,
                "end_time": 44.5340909,
                "pitch": 76,
                "velocity": 51,
                "duration": 0.1931818,
                "tempo": 120.0
            },
            {
                "start_time": 44.5340909,
                "end_time": 44.7295455,
                "pitch": 81,
                "velocity": 51,
                "duration": 0.1954545,
                "tempo": 120.0
            },
            {
                "start_time": 44.7295455,
                "end_time": 44.925,
                "pitch": 73,
                "velocity": 51,
                "duration": 0.1954545,
                "tempo": 120.0
            },
            {
                "start_time": 44.925,
                "end_time": 45.1045455,
                "pitch": 76,
                "velocity": 51,
                "duration": 0.1795455,
                "tempo": 120.0
            },
            {
                "start_time": 45.1045455,
                "end_time": 45.2931818,
                "pitch": 81,
                "velocity": 51,
                "duration": 0.1886364,
                "tempo": 120.0
            },
            {
                "start_time": 45.2931818,
                "end_time": 45.3954545,
                "pitch": 73,
                "velocity": 51,
                "duration": 0.1022727,
                "tempo": 120.0
            },
            {
                "start_time": 45.3954545,
                "end_time": 45.4818182,
                "pitch": 76,
                "velocity": 51,
                "duration": 0.0863636,
                "tempo": 120.0
            },
            {
                "start_time": 45.4840909,
                "end_time": 45.6840909,
                "pitch": 81,
                "velocity": 51,
                "duration": 0.2,
                "tempo": 120.0
            },
            {
                "start_time": 45.6840909,
                "end_time": 45.7659091,
                "pitch": 95,
                "velocity": 51,
                "duration": 0.0818182,
                "tempo": 120.0
            },
            {
                "start_time": 45.7659091,
                "end_time": 45.8545455,
                "pitch": 90,
                "velocity": 51,
                "duration": 0.0886364,
                "tempo": 120.0
            },
            {
                "start_time": 45.8545455,
                "end_time": 45.9227273,
                "pitch": 87,
                "velocity": 51,
                "duration": 0.0681818,
                "tempo": 120.0
            },
            {
                "start_time": 45.9227273,
                "end_time": 46.0090909,
                "pitch": 90,
                "velocity": 51,
                "duration": 0.0863636,
                "tempo": 120.0
            },
            {
                "start_time": 46.0090909,
                "end_time": 46.0931818,
                "pitch": 87,
                "velocity": 51,
                "duration": 0.0840909,
                "tempo": 120.0
            },
            {
                "start_time": 46.0931818,
                "end_time": 46.1659091,
                "pitch": 83,
                "velocity": 51,
                "duration": 0.0727273,
                "tempo": 120.0
            },
            {
                "start_time": 46.1659091,
                "end_time": 46.2522727,
                "pitch": 87,
                "velocity": 51,
                "duration": 0.0863636,
                "tempo": 120.0
            },
            {
                "start_time": 46.2522727,
                "end_time": 46.3409091,
                "pitch": 83,
                "velocity": 51,
                "duration": 0.0886364,
                "tempo": 120.0
            },
            {
                "start_time": 46.3409091,
                "end_time": 46.4136364,
                "pitch": 78,
                "velocity": 51,
                "duration": 0.0727273,
                "tempo": 120.0
            },
            {
                "start_time": 46.4136364,
                "end_time": 46.5045455,
                "pitch": 83,
                "velocity": 51,
                "duration": 0.0909091,
                "tempo": 120.0
            },
            {
                "start_time": 46.5045455,
                "end_time": 46.5772727,
                "pitch": 78,
                "velocity": 51,
                "duration": 0.0727273,
                "tempo": 120.0
            },
            {
                "start_time": 46.5772727,
                "end_time": 46.6681818,
                "pitch": 75,
                "velocity": 51,
                "duration": 0.0909091,
                "tempo": 120.0
            },
            {
                "start_time": 46.6681818,
                "end_time": 46.7659091,
                "pitch": 78,
                "velocity": 51,
                "duration": 0.0977273,
                "tempo": 120.0
            },
            {
                "start_time": 46.7659091,
                "end_time": 46.8477273,
                "pitch": 75,
                "velocity": 51,
                "duration": 0.0818182,
                "tempo": 120.0
            },
            {
                "start_time": 46.8477273,
                "end_time": 46.9454545,
                "pitch": 71,
                "velocity": 51,
                "duration": 0.0977273,
                "tempo": 120.0
            },
            {
                "start_time": 46.9454545,
                "end_time": 47.0431818,
                "pitch": 75,
                "velocity": 51,
                "duration": 0.0977273,
                "tempo": 120.0
            },
            {
                "start_time": 47.0454545,
                "end_time": 47.1295455,
                "pitch": 71,
                "velocity": 51,
                "duration": 0.0840909,
                "tempo": 120.0
            },
            {
                "start_time": 47.1295455,
                "end_time": 47.2340909,
                "pitch": 66,
                "velocity": 51,
                "duration": 0.1045455,
                "tempo": 120.0
            },
            {
                "start_time": 47.2340909,
                "end_time": 47.3181818,
                "pitch": 71,
                "velocity": 51,
                "duration": 0.0840909,
                "tempo": 120.0
            },
            {
                "start_time": 47.3181818,
                "end_time": 47.4227273,
                "pitch": 66,
                "velocity": 51,
                "duration": 0.1045455,
                "tempo": 120.0
            },
            {
                "start_time": 47.4227273,
                "end_time": 47.5227273,
                "pitch": 63,
                "velocity": 51,
                "duration": 0.1,
                "tempo": 120.0
            },
            {
                "start_time": 47.5227273,
                "end_time": 47.6068182,
                "pitch": 66,
                "velocity": 51,
                "duration": 0.0840909,
                "tempo": 120.0
            },
            {
                "start_time": 47.6068182,
                "end_time": 47.7068182,
                "pitch": 63,
                "velocity": 51,
                "duration": 0.1,
                "tempo": 120.0
            },
            {
                "start_time": 47.7068182,
                "end_time": 47.8068182,
                "pitch": 59,
                "velocity": 51,
                "duration": 0.1,
                "tempo": 120.0
            },
            {
                "start_time": 47.8068182,
                "end_time": 47.8931818,
                "pitch": 63,
                "velocity": 51,
                "duration": 0.0863636,
                "tempo": 120.0
            },
            {
                "start_time": 47.8931818,
                "end_time": 47.9977273,
                "pitch": 59,
                "velocity": 51,
                "duration": 0.1045455,
                "tempo": 120.0
            },
            {
                "start_time": 47.9977273,
                "end_time": 48.0818182,
                "pitch": 54,
                "velocity": 51,
                "duration": 0.0840909,
                "tempo": 120.0
            },
            {
                "start_time": 48.0818182,
                "end_time": 48.1863636,
                "pitch": 59,
                "velocity": 51,
                "duration": 0.1045455,
                "tempo": 120.0
            },
            {
                "start_time": 48.1863636,
                "end_time": 48.2863636,
                "pitch": 54,
                "velocity": 51,
                "duration": 0.1,
                "tempo": 120.0
            },
            {
                "start_time": 48.2863636,
                "end_time": 48.3704545,
                "pitch": 51,
                "velocity": 51,
                "duration": 0.0840909,
                "tempo": 120.0
            },
            {
                "start_time": 48.3704545,
                "end_time": 48.4704545,
                "pitch": 54,
                "velocity": 51,
                "duration": 0.1,
                "tempo": 120.0
            },
            {
                "start_time": 48.4704545,
                "end_time": 48.5704545,
                "pitch": 51,
                "velocity": 51,
                "duration": 0.1,
                "tempo": 120.0
            }
        ],
        "Acoustic Guitar (nylon)": [
            {
                "start_time": 0.0022727,
                "end_time": 0.1340909,
                "pitch": 36,
                "velocity": 101,
                "duration": 0.1318182,
                "tempo": 120.0
            },
            {
                "start_time": 0.1840909,
                "end_time": 0.3181818,
                "pitch": 36,
                "velocity": 101,
                "duration": 0.1340909,
                "tempo": 120.0
            },
            {
                "start_time": 0.3681818,
                "end_time": 0.5022727,
                "pitch": 36,
                "velocity": 101,
                "duration": 0.1340909,
                "tempo": 120.0
            },
            {
                "start_time": 0.5522727,
                "end_time": 0.7022727,
                "pitch": 36,
                "velocity": 101,
                "duration": 0.15,
                "tempo": 120.0
            },
            {
                "start_time": 0.7522727,
                "end_time": 0.8931818,
                "pitch": 36,
                "velocity": 101,
                "duration": 0.1409091,
                "tempo": 120.0
            },
            {
                "start_time": 0.9477273,
                "end_time": 1.0886364,
                "pitch": 36,
                "velocity": 101,
                "duration": 0.1409091,
                "tempo": 120.0
            },
            {
                "start_time": 1.1409091,
                "end_time": 1.2704545,
                "pitch": 36,
                "velocity": 101,
                "duration": 0.1295455,
                "tempo": 120.0
            },
            {
                "start_time": 1.3204545,
                "end_time": 1.4659091,
                "pitch": 36,
                "velocity": 101,
                "duration": 0.1454545,
                "tempo": 120.0
            },
            {
                "start_time": 1.5159091,
                "end_time": 1.6545455,
                "pitch": 35,
                "velocity": 101,
                "duration": 0.1386364,
                "tempo": 120.0
            },
            {
                "start_time": 1.7068182,
                "end_time": 1.8431818,
                "pitch": 35,
                "velocity": 101,
                "duration": 0.1363636,
                "tempo": 120.0
            },
            {
                "start_time": 1.8954545,
                "end_time": 2.0295455,
                "pitch": 35,
                "velocity": 101,
                "duration": 0.1340909,
                "tempo": 120.0
            },
            {
                "start_time": 2.0795455,
                "end_time": 2.2295455,
                "pitch": 35,
                "velocity": 101,
                "duration": 0.15,
                "tempo": 120.0
            },
            {
                "start_time": 2.2795455,
                "end_time": 2.4204545,
                "pitch": 35,
                "velocity": 101,
                "duration": 0.1409091,
                "tempo": 120.0
            },
            {
                "start_time": 2.475,
                "end_time": 2.6136364,
                "pitch": 35,
                "velocity": 101,
                "duration": 0.1386364,
                "tempo": 120.0
            },
            {
                "start_time": 2.6681818,
                "end_time": 2.7977273,
                "pitch": 35,
                "velocity": 101,
                "duration": 0.1295455,
                "tempo": 120.0
            },
            {
                "start_time": 2.8477273,
                "end_time": 2.9931818,
                "pitch": 35,
                "velocity": 101,
                "duration": 0.1454545,
                "tempo": 120.0
            },
            {
                "start_time": 3.0431818,
                "end_time": 3.1840909,
                "pitch": 34,
                "velocity": 101,
                "duration": 0.1409091,
                "tempo": 120.0
            },
            {
                "start_time": 3.2386364,
                "end_time": 3.3772727,
                "pitch": 34,
                "velocity": 101,
                "duration": 0.1386364,
                "tempo": 120.0
            },
            {
                "start_time": 3.4318182,
                "end_time": 3.5613636,
                "pitch": 34,
                "velocity": 101,
                "duration": 0.1295455,
                "tempo": 120.0
            },
            {
                "start_time": 3.6113636,
                "end_time": 3.7568182,
                "pitch": 34,
                "velocity": 101,
                "duration": 0.1454545,
                "tempo": 120.0
            },
            {
                "start_time": 3.8068182,
                "end_time": 3.9477273,
                "pitch": 34,
                "velocity": 101,
                "duration": 0.1409091,
                "tempo": 120.0
            },
            {
                "start_time": 4.0022727,
                "end_time": 4.1409091,
                "pitch": 34,
                "velocity": 101,
                "duration": 0.1386364,
                "tempo": 120.0
            },
            {
                "start_time": 4.1954545,
                "end_time": 4.3295455,
                "pitch": 34,
                "velocity": 101,
                "duration": 0.1340909,
                "tempo": 120.0
            },
            {
                "start_time": 4.3795455,
                "end_time": 4.5295455,
                "pitch": 34,
                "velocity": 101,
                "duration": 0.15,
                "tempo": 120.0
            },
            {
                "start_time": 4.5795455,
                "end_time": 4.7181818,
                "pitch": 35,
                "velocity": 101,
                "duration": 0.1386364,
                "tempo": 120.0
            },
            {
                "start_time": 4.7704545,
                "end_time": 4.9068182,
                "pitch": 35,
                "velocity": 101,
                "duration": 0.1363636,
                "tempo": 120.0
            },
            {
                "start_time": 4.9590909,
                "end_time": 5.0931818,
                "pitch": 35,
                "velocity": 101,
                "duration": 0.1340909,
                "tempo": 120.0
            },
            {
                "start_time": 5.1431818,
                "end_time": 5.2931818,
                "pitch": 35,
                "velocity": 101,
                "duration": 0.15,
                "tempo": 120.0
            },
            {
                "start_time": 5.3431818,
                "end_time": 5.4795455,
                "pitch": 35,
                "velocity": 101,
                "duration": 0.1363636,
                "tempo": 120.0
            },
            {
                "start_time": 5.5340909,
                "end_time": 5.6704545,
                "pitch": 35,
                "velocity": 101,
                "duration": 0.1363636,
                "tempo": 120.0
            },
            {
                "start_time": 5.7227273,
                "end_time": 5.8568182,
                "pitch": 35,
                "velocity": 101,
                "duration": 0.1340909,
                "tempo": 120.0
            },
            {
                "start_time": 5.9068182,
                "end_time": 6.0568182,
                "pitch": 35,
                "velocity": 101,
                "duration": 0.15,
                "tempo": 120.0
            },
            {
                "start_time": 6.1068182,
                "end_time": 6.2431818,
                "pitch": 36,
                "velocity": 101,
                "duration": 0.1363636,
                "tempo": 120.0
            },
            {
                "start_time": 6.2977273,
                "end_time": 6.4340909,
                "pitch": 36,
                "velocity": 101,
                "duration": 0.1363636,
                "tempo": 120.0
            },
            {
                "start_time": 6.4863636,
                "end_time": 6.6181818,
                "pitch": 36,
                "velocity": 101,
                "duration": 0.1318182,
                "tempo": 120.0
            },
            {
                "start_time": 6.6704545,
                "end_time": 6.8204545,
                "pitch": 36,
                "velocity": 101,
                "duration": 0.15,
                "tempo": 120.0
            },
            {
                "start_time": 6.8704545,
                "end_time": 7.0113636,
                "pitch": 36,
                "velocity": 101,
                "duration": 0.1409091,
                "tempo": 120.0
            },
            {
                "start_time": 7.0636364,
                "end_time": 7.2045455,
                "pitch": 36,
                "velocity": 101,
                "duration": 0.1409091,
                "tempo": 120.0
            },
            {
                "start_time": 7.2590909,
                "end_time": 7.3886364,
                "pitch": 36,
                "velocity": 101,
                "duration": 0.1295455,
                "tempo": 120.0
            },
            {
                "start_time": 7.4386364,
                "end_time": 7.5840909,
                "pitch": 36,
                "velocity": 101,
                "duration": 0.1454545,
                "tempo": 120.0
            },
            {
                "start_time": 7.6340909,
                "end_time": 7.7704545,
                "pitch": 35,
                "velocity": 101,
                "duration": 0.1363636,
                "tempo": 120.0
            },
            {
                "start_time": 7.8227273,
                "end_time": 7.9613636,
                "pitch": 35,
                "velocity": 101,
                "duration": 0.1386364,
                "tempo": 120.0
            },
            {
                "start_time": 8.0136364,
                "end_time": 8.1454545,
                "pitch": 35,
                "velocity": 101,
                "duration": 0.1318182,
                "tempo": 120.0
            },
            {
                "start_time": 8.1977273,
                "end_time": 8.3477273,
                "pitch": 35,
                "velocity": 101,
                "duration": 0.15,
                "tempo": 120.0
            },
            {
                "start_time": 8.3977273,
                "end_time": 8.5386364,
                "pitch": 35,
                "velocity": 101,
                "duration": 0.1409091,
                "tempo": 120.0
            },
            {
                "start_time": 8.5909091,
                "end_time": 8.7318182,
                "pitch": 35,
                "velocity": 101,
                "duration": 0.1409091,
                "tempo": 120.0
            },
            {
                "start_time": 8.7863636,
                "end_time": 8.9159091,
                "pitch": 35,
                "velocity": 101,
                "duration": 0.1295455,
                "tempo": 120.0
            },
            {
                "start_time": 8.9659091,
                "end_time": 9.1113636,
                "pitch": 35,
                "velocity": 101,
                "duration": 0.1454545,
                "tempo": 120.0
            },
            {
                "start_time": 9.1613636,
                "end_time": 9.3022727,
                "pitch": 34,
                "velocity": 101,
                "duration": 0.1409091,
                "tempo": 120.0
            },
            {
                "start_time": 9.3545455,
                "end_time": 9.4954545,
                "pitch": 34,
                "velocity": 101,
                "duration": 0.1409091,
                "tempo": 120.0
            },
            {
                "start_time": 9.55,
                "end_time": 9.6795455,
                "pitch": 34,
                "velocity": 101,
                "duration": 0.1295455,
                "tempo": 120.0
            },
            {
                "start_time": 9.7295455,
                "end_time": 9.875,
                "pitch": 34,
                "velocity": 101,
                "duration": 0.1454545,
                "tempo": 120.0
            },
            {
                "start_time": 9.925,
                "end_time": 10.0636364,
                "pitch": 34,
                "velocity": 101,
                "duration": 0.1386364,
                "tempo": 120.0
            },
            {
                "start_time": 10.1181818,
                "end_time": 10.2590909,
                "pitch": 34,
                "velocity": 101,
                "duration": 0.1409091,
                "tempo": 120.0
            },
            {
                "start_time": 10.3136364,
                "end_time": 10.4431818,
                "pitch": 34,
                "velocity": 101,
                "duration": 0.1295455,
                "tempo": 120.0
            },
            {
                "start_time": 10.4931818,
                "end_time": 10.6386364,
                "pitch": 34,
                "velocity": 101,
                "duration": 0.1454545,
                "tempo": 120.0
            },
            {
                "start_time": 10.6886364,
                "end_time": 10.8272727,
                "pitch": 35,
                "velocity": 101,
                "duration": 0.1386364,
                "tempo": 120.0
            },
            {
                "start_time": 10.8818182,
                "end_time": 11.0227273,
                "pitch": 35,
                "velocity": 101,
                "duration": 0.1409091,
                "tempo": 120.0
            },
            {
                "start_time": 11.0772727,
                "end_time": 11.2068182,
                "pitch": 35,
                "velocity": 101,
                "duration": 0.1295455,
                "tempo": 120.0
            },
            {
                "start_time": 11.2568182,
                "end_time": 11.4022727,
                "pitch": 35,
                "velocity": 101,
                "duration": 0.1454545,
                "tempo": 120.0
            },
            {
                "start_time": 11.4522727,
                "end_time": 11.5909091,
                "pitch": 35,
                "velocity": 101,
                "duration": 0.1386364,
                "tempo": 120.0
            },
            {
                "start_time": 11.6454545,
                "end_time": 11.7863636,
                "pitch": 35,
                "velocity": 101,
                "duration": 0.1409091,
                "tempo": 120.0
            },
            {
                "start_time": 11.8409091,
                "end_time": 11.9704545,
                "pitch": 35,
                "velocity": 101,
                "duration": 0.1295455,
                "tempo": 120.0
            },
            {
                "start_time": 12.0181818,
                "end_time": 12.1659091,
                "pitch": 35,
                "velocity": 101,
                "duration": 0.1477273,
                "tempo": 120.0
            },
            {
                "start_time": 12.2159091,
                "end_time": 12.6363636,
                "pitch": 33,
                "velocity": 101,
                "duration": 0.4204545,
                "tempo": 120.0
            },
            {
                "start_time": 12.7886364,
                "end_time": 13.2113636,
                "pitch": 33,
                "velocity": 101,
                "duration": 0.4227273,
                "tempo": 120.0
            },
            {
                "start_time": 13.3681818,
                "end_time": 13.65,
                "pitch": 33,
                "velocity": 101,
                "duration": 0.2818182,
                "tempo": 120.0
            },
            {
                "start_time": 13.7522727,
                "end_time": 14.0272727,
                "pitch": 31,
                "velocity": 101,
                "duration": 0.275,
                "tempo": 120.0
            },
            {
                "start_time": 14.1318182,
                "end_time": 14.4136364,
                "pitch": 31,
                "velocity": 101,
                "duration": 0.2818182,
                "tempo": 120.0
            },
            {
                "start_time": 14.5159091,
                "end_time": 14.9272727,
                "pitch": 33,
                "velocity": 101,
                "duration": 0.4113636,
                "tempo": 120.0
            },
            {
                "start_time": 15.0772727,
                "end_time": 15.5522727,
                "pitch": 33,
                "velocity": 101,
                "duration": 0.475,
                "tempo": 120.0
            },
            {
                "start_time": 15.6568182,
                "end_time": 15.9409091,
                "pitch": 33,
                "velocity": 101,
                "duration": 0.2840909,
                "tempo": 120.0
            },
            {
                "start_time": 16.0409091,
                "end_time": 16.3159091,
                "pitch": 31,
                "velocity": 101,
                "duration": 0.275,
                "tempo": 120.0
            },
            {
                "start_time": 16.4204545,
                "end_time": 16.7045455,
                "pitch": 31,
                "velocity": 101,
                "duration": 0.2840909,
                "tempo": 120.0
            },
            {
                "start_time": 16.8045455,
                "end_time": 17.2181818,
                "pitch": 33,
                "velocity": 101,
                "duration": 0.4136364,
                "tempo": 120.0
            },
            {
                "start_time": 17.3681818,
                "end_time": 17.7977273,
                "pitch": 33,
                "velocity": 101,
                "duration": 0.4295455,
                "tempo": 120.0
            },
            {
                "start_time": 17.9568182,
                "end_time": 18.2340909,
                "pitch": 33,
                "velocity": 101,
                "duration": 0.2772727,
                "tempo": 120.0
            },
            {
                "start_time": 18.3318182,
                "end_time": 18.6136364,
                "pitch": 31,
                "velocity": 101,
                "duration": 0.2818182,
                "tempo": 120.0
            },
            {
                "start_time": 18.7204545,
                "end_time": 18.9977273,
                "pitch": 31,
                "velocity": 101,
                "duration": 0.2772727,
                "tempo": 120.0
            },
            {
                "start_time": 19.0954545,
                "end_time": 19.5181818,
                "pitch": 33,
                "velocity": 101,
                "duration": 0.4227273,
                "tempo": 120.0
            },
            {
                "start_time": 19.6681818,
                "end_time": 20.1431818,
                "pitch": 33,
                "velocity": 101,
                "duration": 0.475,
                "tempo": 120.0
            },
            {
                "start_time": 20.2477273,
                "end_time": 20.5318182,
                "pitch": 33,
                "velocity": 101,
                "duration": 0.2840909,
                "tempo": 120.0
            },
            {
                "start_time": 20.6318182,
                "end_time": 20.9068182,
                "pitch": 31,
                "velocity": 101,
                "duration": 0.275,
                "tempo": 120.0
            },
            {
                "start_time": 21.0113636,
                "end_time": 21.2863636,
                "pitch": 31,
                "velocity": 101,
                "duration": 0.275,
                "tempo": 120.0
            },
            {
                "start_time": 21.3863636,
                "end_time": 21.5272727,
                "pitch": 30,
                "velocity": 101,
                "duration": 0.1409091,
                "tempo": 120.0
            },
            {
                "start_time": 21.5795455,
                "end_time": 21.7204545,
                "pitch": 30,
                "velocity": 101,
                "duration": 0.1409091,
                "tempo": 120.0
            },
            {
                "start_time": 21.775,
                "end_time": 21.9090909,
                "pitch": 30,
                "velocity": 101,
                "duration": 0.1340909,
                "tempo": 120.0
            },
            {
                "start_time": 21.9590909,
                "end_time": 22.1090909,
                "pitch": 30,
                "velocity": 101,
                "duration": 0.15,
                "tempo": 120.0
            },
            {
                "start_time": 22.1590909,
                "end_time": 22.2954545,
                "pitch": 30,
                "velocity": 101,
                "duration": 0.1363636,
                "tempo": 120.0
            },
            {
                "start_time": 22.35,
                "end_time": 22.4863636,
                "pitch": 30,
                "velocity": 101,
                "duration": 0.1363636,
                "tempo": 120.0
            },
            {
                "start_time": 22.5386364,
                "end_time": 22.6704545,
                "pitch": 30,
                "velocity": 101,
                "duration": 0.1318182,
                "tempo": 120.0
            },
            {
                "start_time": 22.7227273,
                "end_time": 22.8727273,
                "pitch": 30,
                "velocity": 101,
                "duration": 0.15,
                "tempo": 120.0
            },
            {
                "start_time": 22.9227273,
                "end_time": 23.0590909,
                "pitch": 30,
                "velocity": 101,
                "duration": 0.1363636,
                "tempo": 120.0
            },
            {
                "start_time": 23.1136364,
                "end_time": 23.25,
                "pitch": 30,
                "velocity": 101,
                "duration": 0.1363636,
                "tempo": 120.0
            },
            {
                "start_time": 23.3022727,
                "end_time": 23.4340909,
                "pitch": 30,
                "velocity": 101,
                "duration": 0.1318182,
                "tempo": 120.0
            },
            {
                "start_time": 23.4863636,
                "end_time": 23.6363636,
                "pitch": 30,
                "velocity": 101,
                "duration": 0.15,
                "tempo": 120.0
            },
            {
                "start_time": 23.6863636,
                "end_time": 23.8227273,
                "pitch": 30,
                "velocity": 101,
                "duration": 0.1363636,
                "tempo": 120.0
            },
            {
                "start_time": 23.875,
                "end_time": 24.0136364,
                "pitch": 30,
                "velocity": 101,
                "duration": 0.1386364,
                "tempo": 120.0
            },
            {
                "start_time": 24.0659091,
                "end_time": 24.1977273,
                "pitch": 30,
                "velocity": 101,
                "duration": 0.1318182,
                "tempo": 120.0
            },
            {
                "start_time": 24.25,
                "end_time": 24.3977273,
                "pitch": 37,
                "velocity": 101,
                "duration": 0.1477273,
                "tempo": 120.0
            },
            {
                "start_time": 24.45,
                "end_time": 24.5909091,
                "pitch": 42,
                "velocity": 101,
                "duration": 0.1409091,
                "tempo": 120.0
            },
            {
                "start_time": 24.6431818,
                "end_time": 24.7840909,
                "pitch": 42,
                "velocity": 101,
                "duration": 0.1409091,
                "tempo": 120.0
            },
            {
                "start_time": 24.8386364,
                "end_time": 24.9681818,
                "pitch": 42,
                "velocity": 101,
                "duration": 0.1295455,
                "tempo": 120.0
            },
            {
                "start_time": 25.0181818,
                "end_time": 25.1636364,
                "pitch": 42,
                "velocity": 101,
                "duration": 0.1454545,
                "tempo": 120.0
            },
            {
                "start_time": 25.2136364,
                "end_time": 25.3545455,
                "pitch": 42,
                "velocity": 101,
                "duration": 0.1409091,
                "tempo": 120.0
            },
            {
                "start_time": 25.4068182,
                "end_time": 25.5477273,
                "pitch": 42,
                "velocity": 101,
                "duration": 0.1409091,
                "tempo": 120.0
            },
            {
                "start_time": 25.6,
                "end_time": 25.7272727,
                "pitch": 42,
                "velocity": 101,
                "duration": 0.1272727,
                "tempo": 120.0
            },
            {
                "start_time": 25.775,
                "end_time": 25.9136364,
                "pitch": 42,
                "velocity": 101,
                "duration": 0.1386364,
                "tempo": 120.0
            },
            {
                "start_time": 25.9545455,
                "end_time": 26.0659091,
                "pitch": 42,
                "velocity": 101,
                "duration": 0.1113636,
                "tempo": 120.0
            },
            {
                "start_time": 26.1090909,
                "end_time": 26.2227273,
                "pitch": 42,
                "velocity": 101,
                "duration": 0.1136364,
                "tempo": 120.0
            },
            {
                "start_time": 26.2681818,
                "end_time": 26.3818182,
                "pitch": 42,
                "velocity": 101,
                "duration": 0.1136364,
                "tempo": 120.0
            },
            {
                "start_time": 26.4272727,
                "end_time": 26.5568182,
                "pitch": 37,
                "velocity": 101,
                "duration": 0.1295455,
                "tempo": 120.0
            },
            {
                "start_time": 26.6,
                "end_time": 26.7159091,
                "pitch": 37,
                "velocity": 101,
                "duration": 0.1159091,
                "tempo": 120.0
            },
            {
                "start_time": 26.7590909,
                "end_time": 26.8954545,
                "pitch": 37,
                "velocity": 101,
                "duration": 0.1363636,
                "tempo": 120.0
            },
            {
                "start_time": 26.95,
                "end_time": 27.0863636,
                "pitch": 30,
                "velocity": 101,
                "duration": 0.1363636,
                "tempo": 120.0
            },
            {
                "start_time": 27.1386364,
                "end_time": 27.2886364,
                "pitch": 30,
                "velocity": 101,
                "duration": 0.15,
                "tempo": 120.0
            },
            {
                "start_time": 27.3386364,
                "end_time": 27.4727273,
                "pitch": 50,
                "velocity": 101,
                "duration": 0.1340909,
                "tempo": 120.0
            },
            {
                "start_time": 27.5227273,
                "end_time": 27.6590909,
                "pitch": 38,
                "velocity": 101,
                "duration": 0.1363636,
                "tempo": 120.0
            },
            {
                "start_time": 27.7113636,
                "end_time": 27.85,
                "pitch": 38,
                "velocity": 101,
                "duration": 0.1386364,
                "tempo": 120.0
            },
            {
                "start_time": 27.9022727,
                "end_time": 28.0522727,
                "pitch": 50,
                "velocity": 101,
                "duration": 0.15,
                "tempo": 120.0
            },
            {
                "start_time": 28.1022727,
                "end_time": 28.2363636,
                "pitch": 38,
                "velocity": 101,
                "duration": 0.1340909,
                "tempo": 120.0
            },
            {
                "start_time": 28.2863636,
                "end_time": 28.4227273,
                "pitch": 38,
                "velocity": 101,
                "duration": 0.1363636,
                "tempo": 120.0
            },
            {
                "start_time": 28.475,
                "end_time": 28.6136364,
                "pitch": 50,
                "velocity": 101,
                "duration": 0.1386364,
                "tempo": 120.0
            },
            {
                "start_time": 28.6659091,
                "end_time": 28.8159091,
                "pitch": 38,
                "velocity": 101,
                "duration": 0.15,
                "tempo": 120.0
            },
            {
                "start_time": 28.8659091,
                "end_time": 28.9977273,
                "pitch": 50,
                "velocity": 101,
                "duration": 0.1318182,
                "tempo": 120.0
            },
            {
                "start_time": 29.05,
                "end_time": 29.1909091,
                "pitch": 38,
                "velocity": 101,
                "duration": 0.1409091,
                "tempo": 120.0
            },
            {
                "start_time": 29.2431818,
                "end_time": 29.3840909,
                "pitch": 38,
                "velocity": 101,
                "duration": 0.1409091,
                "tempo": 120.0
            },
            {
                "start_time": 29.4386364,
                "end_time": 29.5840909,
                "pitch": 50,
                "velocity": 101,
                "duration": 0.1454545,
                "tempo": 120.0
            },
            {
                "start_time": 29.6340909,
                "end_time": 29.7636364,
                "pitch": 38,
                "velocity": 101,
                "duration": 0.1295455,
                "tempo": 120.0
            },
            {
                "start_time": 29.8136364,
                "end_time": 29.95,
                "pitch": 38,
                "velocity": 101,
                "duration": 0.1363636,
                "tempo": 120.0
            },
            {
                "start_time": 30.0022727,
                "end_time": 30.1409091,
                "pitch": 50,
                "velocity": 101,
                "duration": 0.1386364,
                "tempo": 120.0
            },
            {
                "start_time": 30.1931818,
                "end_time": 30.3431818,
                "pitch": 38,
                "velocity": 101,
                "duration": 0.15,
                "tempo": 120.0
            },
            {
                "start_time": 30.3931818,
                "end_time": 30.525,
                "pitch": 48,
                "velocity": 101,
                "duration": 0.1318182,
                "tempo": 120.0
            },
            {
                "start_time": 30.5772727,
                "end_time": 30.7181818,
                "pitch": 36,
                "velocity": 101,
                "duration": 0.1409091,
                "tempo": 120.0
            },
            {
                "start_time": 30.7704545,
                "end_time": 30.9113636,
                "pitch": 36,
                "velocity": 101,
                "duration": 0.1409091,
                "tempo": 120.0
            },
            {
                "start_time": 30.9659091,
                "end_time": 31.1113636,
                "pitch": 48,
                "velocity": 101,
                "duration": 0.1454545,
                "tempo": 120.0
            },
            {
                "start_time": 31.1613636,
                "end_time": 31.2909091,
                "pitch": 36,
                "velocity": 101,
                "duration": 0.1295455,
                "tempo": 120.0
            },
            {
                "start_time": 31.3409091,
                "end_time": 31.4795455,
                "pitch": 36,
                "velocity": 101,
                "duration": 0.1386364,
                "tempo": 120.0
            },
            {
                "start_time": 31.5340909,
                "end_time": 31.675,
                "pitch": 48,
                "velocity": 101,
                "duration": 0.1409091,
                "tempo": 120.0
            },
            {
                "start_time": 31.7295455,
                "end_time": 31.875,
                "pitch": 36,
                "velocity": 101,
                "duration": 0.1454545,
                "tempo": 120.0
            },
            {
                "start_time": 31.925,
                "end_time": 32.0545455,
                "pitch": 48,
                "velocity": 101,
                "duration": 0.1295455,
                "tempo": 120.0
            },
            {
                "start_time": 32.1045455,
                "end_time": 32.2431818,
                "pitch": 36,
                "velocity": 101,
                "duration": 0.1386364,
                "tempo": 120.0
            },
            {
                "start_time": 32.2977273,
                "end_time": 32.4386364,
                "pitch": 36,
                "velocity": 101,
                "duration": 0.1409091,
                "tempo": 120.0
            },
            {
                "start_time": 32.4931818,
                "end_time": 32.6431818,
                "pitch": 48,
                "velocity": 101,
                "duration": 0.15,
                "tempo": 120.0
            },
            {
                "start_time": 32.6931818,
                "end_time": 32.825,
                "pitch": 36,
                "velocity": 101,
                "duration": 0.1318182,
                "tempo": 120.0
            },
            {
                "start_time": 32.8772727,
                "end_time": 33.0136364,
                "pitch": 36,
                "velocity": 101,
                "duration": 0.1363636,
                "tempo": 120.0
            },
            {
                "start_time": 33.0659091,
                "end_time": 33.2045455,
                "pitch": 48,
                "velocity": 101,
                "duration": 0.1386364,
                "tempo": 120.0
            },
            {
                "start_time": 33.2568182,
                "end_time": 33.4068182,
                "pitch": 36,
                "velocity": 101,
                "duration": 0.15,
                "tempo": 120.0
            },
            {
                "start_time": 33.4568182,
                "end_time": 33.5886364,
                "pitch": 50,
                "velocity": 101,
                "duration": 0.1318182,
                "tempo": 120.0
            },
            {
                "start_time": 33.6409091,
                "end_time": 33.7772727,
                "pitch": 38,
                "velocity": 101,
                "duration": 0.1363636,
                "tempo": 120.0
            },
            {
                "start_time": 33.8295455,
                "end_time": 33.9659091,
                "pitch": 38,
                "velocity": 101,
                "duration": 0.1363636,
                "tempo": 120.0
            },
            {
                "start_time": 34.0204545,
                "end_time": 34.1681818,
                "pitch": 50,
                "velocity": 101,
                "duration": 0.1477273,
                "tempo": 120.0
            },
            {
                "start_time": 34.2204545,
                "end_time": 34.3522727,
                "pitch": 38,
                "velocity": 101,
                "duration": 0.1318182,
                "tempo": 120.0
            },
            {
                "start_time": 34.4045455,
                "end_time": 34.5409091,
                "pitch": 38,
                "velocity": 101,
                "duration": 0.1363636,
                "tempo": 120.0
            },
            {
                "start_time": 34.5931818,
                "end_time": 34.7295455,
                "pitch": 50,
                "velocity": 101,
                "duration": 0.1363636,
                "tempo": 120.0
            },
            {
                "start_time": 34.7840909,
                "end_time": 34.9318182,
                "pitch": 38,
                "velocity": 101,
                "duration": 0.1477273,
                "tempo": 120.0
            },
            {
                "start_time": 34.9840909,
                "end_time": 35.1159091,
                "pitch": 50,
                "velocity": 101,
                "duration": 0.1318182,
                "tempo": 120.0
            },
            {
                "start_time": 35.1681818,
                "end_time": 35.3045455,
                "pitch": 38,
                "velocity": 101,
                "duration": 0.1363636,
                "tempo": 120.0
            },
            {
                "start_time": 35.3568182,
                "end_time": 35.4931818,
                "pitch": 38,
                "velocity": 101,
                "duration": 0.1363636,
                "tempo": 120.0
            },
            {
                "start_time": 35.5454545,
                "end_time": 35.6954545,
                "pitch": 50,
                "velocity": 101,
                "duration": 0.15,
                "tempo": 120.0
            },
            {
                "start_time": 35.7477273,
                "end_time": 35.8795455,
                "pitch": 38,
                "velocity": 101,
                "duration": 0.1318182,
                "tempo": 120.0
            },
            {
                "start_time": 35.9318182,
                "end_time": 36.0681818,
                "pitch": 38,
                "velocity": 101,
                "duration": 0.1363636,
                "tempo": 120.0
            },
            {
                "start_time": 36.1204545,
                "end_time": 36.2568182,
                "pitch": 50,
                "velocity": 101,
                "duration": 0.1363636,
                "tempo": 120.0
            },
            {
                "start_time": 36.3090909,
                "end_time": 36.4590909,
                "pitch": 38,
                "velocity": 101,
                "duration": 0.15,
                "tempo": 120.0
            },
            {
                "start_time": 36.5113636,
                "end_time": 36.6431818,
                "pitch": 53,
                "velocity": 101,
                "duration": 0.1318182,
                "tempo": 120.0
            },
            {
                "start_time": 36.6931818,
                "end_time": 36.8340909,
                "pitch": 41,
                "velocity": 101,
                "duration": 0.1409091,
                "tempo": 120.0
            },
            {
                "start_time": 36.8886364,
                "end_time": 37.0295455,
                "pitch": 41,
                "velocity": 101,
                "duration": 0.1409091,
                "tempo": 120.0
            },
            {
                "start_time": 37.0818182,
                "end_time": 37.2295455,
                "pitch": 53,
                "velocity": 101,
                "duration": 0.1477273,
                "tempo": 120.0
            },
            {
                "start_time": 37.2795455,
                "end_time": 37.4090909,
                "pitch": 41,
                "velocity": 101,
                "duration": 0.1295455,
                "tempo": 120.0
            },
            {
                "start_time": 37.4590909,
                "end_time": 37.5954545,
                "pitch": 41,
                "velocity": 101,
                "duration": 0.1363636,
                "tempo": 120.0
            },
            {
                "start_time": 37.6477273,
                "end_time": 37.7840909,
                "pitch": 53,
                "velocity": 101,
                "duration": 0.1363636,
                "tempo": 120.0
            },
            {
                "start_time": 37.8363636,
                "end_time": 37.9863636,
                "pitch": 41,
                "velocity": 101,
                "duration": 0.15,
                "tempo": 120.0
            },
            {
                "start_time": 38.0386364,
                "end_time": 38.1704545,
                "pitch": 53,
                "velocity": 101,
                "duration": 0.1318182,
                "tempo": 120.0
            },
            {
                "start_time": 38.2204545,
                "end_time": 38.3613636,
                "pitch": 41,
                "velocity": 101,
                "duration": 0.1409091,
                "tempo": 120.0
            },
            {
                "start_time": 38.4159091,
                "end_time": 38.5568182,
                "pitch": 41,
                "velocity": 101,
                "duration": 0.1409091,
                "tempo": 120.0
            },
            {
                "start_time": 38.6090909,
                "end_time": 38.7568182,
                "pitch": 53,
                "velocity": 101,
                "duration": 0.1477273,
                "tempo": 120.0
            },
            {
                "start_time": 38.8045455,
                "end_time": 38.9340909,
                "pitch": 41,
                "velocity": 101,
                "duration": 0.1295455,
                "tempo": 120.0
            },
            {
                "start_time": 38.9840909,
                "end_time": 39.125,
                "pitch": 41,
                "velocity": 101,
                "duration": 0.1409091,
                "tempo": 120.0
            },
            {
                "start_time": 39.1795455,
                "end_time": 39.3204545,
                "pitch": 53,
                "velocity": 101,
                "duration": 0.1409091,
                "tempo": 120.0
            },
            {
                "start_time": 39.3727273,
                "end_time": 39.5181818,
                "pitch": 41,
                "velocity": 101,
                "duration": 0.1454545,
                "tempo": 120.0
            },
            {
                "start_time": 39.5681818,
                "end_time": 39.6977273,
                "pitch": 55,
                "velocity": 101,
                "duration": 0.1295455,
                "tempo": 120.0
            },
            {
                "start_time": 39.7477273,
                "end_time": 39.8886364,
                "pitch": 43,
                "velocity": 101,
                "duration": 0.1409091,
                "tempo": 120.0
            },
            {
                "start_time": 39.9431818,
                "end_time": 40.0840909,
                "pitch": 43,
                "velocity": 101,
                "duration": 0.1409091,
                "tempo": 120.0
            },
            {
                "start_time": 40.1363636,
                "end_time": 40.2863636,
                "pitch": 55,
                "velocity": 101,
                "duration": 0.15,
                "tempo": 120.0
            },
            {
                "start_time": 40.3386364,
                "end_time": 40.4704545,
                "pitch": 43,
                "velocity": 101,
                "duration": 0.1318182,
                "tempo": 120.0
            },
            {
                "start_time": 40.5204545,
                "end_time": 40.6590909,
                "pitch": 43,
                "velocity": 101,
                "duration": 0.1386364,
                "tempo": 120.0
            },
            {
                "start_time": 40.7113636,
                "end_time": 40.8477273,
                "pitch": 55,
                "velocity": 101,
                "duration": 0.1363636,
                "tempo": 120.0
            },
            {
                "start_time": 40.9,
                "end_time": 41.05,
                "pitch": 43,
                "velocity": 101,
                "duration": 0.15,
                "tempo": 120.0
            },
            {
                "start_time": 41.1022727,
                "end_time": 41.2340909,
                "pitch": 55,
                "velocity": 101,
                "duration": 0.1318182,
                "tempo": 120.0
            },
            {
                "start_time": 41.2840909,
                "end_time": 41.4227273,
                "pitch": 43,
                "velocity": 101,
                "duration": 0.1386364,
                "tempo": 120.0
            },
            {
                "start_time": 41.475,
                "end_time": 41.6113636,
                "pitch": 43,
                "velocity": 101,
                "duration": 0.1363636,
                "tempo": 120.0
            },
            {
                "start_time": 41.6636364,
                "end_time": 41.8136364,
                "pitch": 55,
                "velocity": 101,
                "duration": 0.15,
                "tempo": 120.0
            },
            {
                "start_time": 41.8636364,
                "end_time": 41.9977273,
                "pitch": 43,
                "velocity": 101,
                "duration": 0.1340909,
                "tempo": 120.0
            },
            {
                "start_time": 42.0477273,
                "end_time": 42.1863636,
                "pitch": 43,
                "velocity": 101,
                "duration": 0.1386364,
                "tempo": 120.0
            },
            {
                "start_time": 42.2386364,
                "end_time": 42.375,
                "pitch": 55,
                "velocity": 101,
                "duration": 0.1363636,
                "tempo": 120.0
            },
            {
                "start_time": 42.4272727,
                "end_time": 42.5772727,
                "pitch": 43,
                "velocity": 101,
                "duration": 0.15,
                "tempo": 120.0
            },
            {
                "start_time": 42.6272727,
                "end_time": 42.7613636,
                "pitch": 57,
                "velocity": 101,
                "duration": 0.1340909,
                "tempo": 120.0
            },
            {
                "start_time": 42.8113636,
                "end_time": 42.9477273,
                "pitch": 45,
                "velocity": 101,
                "duration": 0.1363636,
                "tempo": 120.0
            },
            {
                "start_time": 43.0022727,
                "end_time": 43.1386364,
                "pitch": 45,
                "velocity": 101,
                "duration": 0.1363636,
                "tempo": 120.0
            },
            {
                "start_time": 43.1909091,
                "end_time": 43.3409091,
                "pitch": 57,
                "velocity": 101,
                "duration": 0.15,
                "tempo": 120.0
            },
            {
                "start_time": 43.3909091,
                "end_time": 43.525,
                "pitch": 45,
                "velocity": 101,
                "duration": 0.1340909,
                "tempo": 120.0
            },
            {
                "start_time": 43.575,
                "end_time": 43.7113636,
                "pitch": 45,
                "velocity": 101,
                "duration": 0.1363636,
                "tempo": 120.0
            },
            {
                "start_time": 43.7659091,
                "end_time": 43.9022727,
                "pitch": 57,
                "velocity": 101,
                "duration": 0.1363636,
                "tempo": 120.0
            },
            {
                "start_time": 43.9545455,
                "end_time": 44.1045455,
                "pitch": 45,
                "velocity": 101,
                "duration": 0.15,
                "tempo": 120.0
            },
            {
                "start_time": 44.1545455,
                "end_time": 44.2886364,
                "pitch": 57,
                "velocity": 101,
                "duration": 0.1340909,
                "tempo": 120.0
            },
            {
                "start_time": 44.3386364,
                "end_time": 44.4795455,
                "pitch": 45,
                "velocity": 101,
                "duration": 0.1409091,
                "tempo": 120.0
            },
            {
                "start_time": 44.5318182,
                "end_time": 44.6727273,
                "pitch": 45,
                "velocity": 101,
                "duration": 0.1409091,
                "tempo": 120.0
            },
            {
                "start_time": 44.7272727,
                "end_time": 44.8727273,
                "pitch": 57,
                "velocity": 101,
                "duration": 0.1454545,
                "tempo": 120.0
            },
            {
                "start_time": 44.9227273,
                "end_time": 45.0522727,
                "pitch": 45,
                "velocity": 101,
                "duration": 0.1295455,
                "tempo": 120.0
            },
            {
                "start_time": 45.1022727,
                "end_time": 45.2386364,
                "pitch": 45,
                "velocity": 101,
                "duration": 0.1363636,
                "tempo": 120.0
            },
            {
                "start_time": 45.2931818,
                "end_time": 45.4295455,
                "pitch": 57,
                "velocity": 101,
                "duration": 0.1363636,
                "tempo": 120.0
            },
            {
                "start_time": 45.4818182,
                "end_time": 45.6318182,
                "pitch": 45,
                "velocity": 101,
                "duration": 0.15,
                "tempo": 120.0
            },
            {
                "start_time": 45.6818182,
                "end_time": 45.8113636,
                "pitch": 54,
                "velocity": 101,
                "duration": 0.1295455,
                "tempo": 120.0
            },
            {
                "start_time": 45.8545455,
                "end_time": 45.9659091,
                "pitch": 42,
                "velocity": 101,
                "duration": 0.1113636,
                "tempo": 120.0
            },
            {
                "start_time": 46.0068182,
                "end_time": 46.1204545,
                "pitch": 42,
                "velocity": 101,
                "duration": 0.1136364,
                "tempo": 120.0
            },
            {
                "start_time": 46.1659091,
                "end_time": 46.2954545,
                "pitch": 54,
                "velocity": 101,
                "duration": 0.1295455,
                "tempo": 120.0
            },
            {
                "start_time": 46.3386364,
                "end_time": 46.4568182,
                "pitch": 42,
                "velocity": 101,
                "duration": 0.1181818,
                "tempo": 120.0
            },
            {
                "start_time": 46.5022727,
                "end_time": 46.6227273,
                "pitch": 42,
                "velocity": 101,
                "duration": 0.1204545,
                "tempo": 120.0
            },
            {
                "start_time": 46.6681818,
                "end_time": 46.7977273,
                "pitch": 54,
                "velocity": 101,
                "duration": 0.1295455,
                "tempo": 120.0
            },
            {
                "start_time": 46.8477273,
                "end_time": 46.9931818,
                "pitch": 42,
                "velocity": 101,
                "duration": 0.1454545,
                "tempo": 120.0
            },
            {
                "start_time": 47.0431818,
                "end_time": 47.1795455,
                "pitch": 54,
                "velocity": 101,
                "duration": 0.1363636,
                "tempo": 120.0
            },
            {
                "start_time": 47.2318182,
                "end_time": 47.3704545,
                "pitch": 42,
                "velocity": 101,
                "duration": 0.1386364,
                "tempo": 120.0
            },
            {
                "start_time": 47.4227273,
                "end_time": 47.5545455,
                "pitch": 42,
                "velocity": 101,
                "duration": 0.1318182,
                "tempo": 120.0
            },
            {
                "start_time": 47.6068182,
                "end_time": 47.7545455,
                "pitch": 54,
                "velocity": 101,
                "duration": 0.1477273,
                "tempo": 120.0
            },
            {
                "start_time": 47.8068182,
                "end_time": 47.9431818,
                "pitch": 42,
                "velocity": 101,
                "duration": 0.1363636,
                "tempo": 120.0
            },
            {
                "start_time": 47.9954545,
                "end_time": 48.1318182,
                "pitch": 42,
                "velocity": 101,
                "duration": 0.1363636,
                "tempo": 120.0
            },
            {
                "start_time": 48.1863636,
                "end_time": 48.3181818,
                "pitch": 54,
                "velocity": 101,
                "duration": 0.1318182,
                "tempo": 120.0
            },
            {
                "start_time": 48.3681818,
                "end_time": 48.5181818,
                "pitch": 42,
                "velocity": 101,
                "duration": 0.15,
                "tempo": 120.0
            }
        ]
    }
}