{
    "mood": "angry",
    "instruments": {
        "Electric Piano 1": [
            {
                "start_time": 0.0113636,
                "end_time": 0.1295455,
                "pitch": 81,
                "velocity": 80,
                "duration": 0.1181818,
                "tempo": 120.0
            },
            {
                "start_time": 0.1295455,
                "end_time": 0.2477273,
                "pitch": 83,
                "velocity": 80,
                "duration": 0.1181818,
                "tempo": 120.0
            },
            {
                "start_time": 0.2477273,
                "end_time": 0.3681818,
                "pitch": 84,
                "velocity": 80,
                "duration": 0.1204545,
                "tempo": 120.0
            },
            {
                "start_time": 0.2477273,
                "end_time": 1.4386364,
                "pitch": 88,
                "velocity": 80,
                "duration": 1.1909091,
                "tempo": 120.0
            },
            {
                "start_time": 0.3681818,
                "end_time": 1.4386364,
                "pitch": 88,
                "velocity": 80,
                "duration": 1.0704545,
                "tempo": 120.0
            },
            {
                "start_time": 1.4386364,
                "end_time": 1.9,
                "pitch": 86,
                "velocity": 80,
                "duration": 0.4613636,
                "tempo": 120.0
            },
            {
                "start_time": 1.9,
                "end_time": 2.3590909,
                "pitch": 81,
                "velocity": 80,
                "duration": 0.4590909,
                "tempo": 120.0
            },
            {
                "start_time": 2.3590909,
                "end_time": 2.8386364,
                "pitch": 79,
                "velocity": 80,
                "duration": 0.4795455,
                "tempo": 120.0
            },
            {
                "start_time": 2.8386364,
                "end_time": 4.2295455,
                "pitch": 77,
                "velocity": 80,
                "duration": 1.3909091,
                "tempo": 120.0
            },
            {
                "start_time": 4.2295455,
                "end_time": 4.3477273,
                "pitch": 88,
                "velocity": 80,
                "duration": 0.1181818,
                "tempo": 120.0
            },
            {
                "start_time": 4.3477273,
                "end_time": 4.5522727,
                "pitch": 86,
                "velocity": 80,
                "duration": 0.2045455,
                "tempo": 120.0
            },
            {
                "start_time": 4.5522727,
                "end_time": 4.5704545,
                "pitch": 84,
                "velocity": 80,
                "duration": 0.0181818,
                "tempo": 120.0
            },
            {
                "start_time": 4.5704545,
                "end_time": 5.6295455,
                "pitch": 83,
                "velocity": 80,
                "duration": 1.0590909,
                "tempo": 120.0
            },
            {
                "start_time": 5.6295455,
                "end_time": 7.0181818,
                "pitch": 81,
                "velocity": 80,
                "duration": 1.3886364,
                "tempo": 120.0
            },
            {
                "start_time": 7.0181818,
                "end_time": 8.4090909,
                "pitch": 93,
                "velocity": 80,
                "duration": 1.3909091,
                "tempo": 120.0
            },
            {
                "start_time": 8.4090909,
                "end_time": 8.4590909,
                "pitch": 92,
                "velocity": 80,
                "duration": 0.05,
                "tempo": 120.0
            },
            {
                "start_time": 8.5272727,
                "end_time": 8.5772727,
                "pitch": 93,
                "velocity": 80,
                "duration": 0.05,
                "tempo": 120.0
            },
            {
                "start_time": 8.6477273,
                "end_time": 8.6977273,
                "pitch": 88,
                "velocity": 80,
                "duration": 0.05,
                "tempo": 120.0
            },
            {
                "start_time": 8.7681818,
                "end_time": 8.8181818,
                "pitch": 89,
                "velocity": 80,
                "duration": 0.05,
                "tempo": 120.0
            },
            {
                "start_time": 8.8886364,
                "end_time": 8.9386364,
                "pitch": 85,
                "velocity": 80,
                "duration": 0.05,
                "tempo": 120.0
            },
            {
                "start_time": 9.0090909,
                "end_time": 11.2090909,
                "pitch": 86,
                "velocity": 80,
                "duration": 2.2,
                "tempo": 120.0
            },
            {
                "start_time": 11.2113636,
                "end_time": 11.325,
                "pitch": 81,
                "velocity": 80,
                "duration": 0.1136364,
                "tempo": 120.0
            },
            {
                "start_time": 11.325,
                "end_time": 11.4431818,
                "pitch": 83,
                "velocity": 80,
                "duration": 0.1181818,
                "tempo": 120.0
            },
            {
                "start_time": 11.4431818,
                "end_time": 11.5613636,
                "pitch": 84,
                "velocity": 80,
                "duration": 0.1181818,
                "tempo": 120.0
            },
            {
                "start_time": 11.4431818,
                "end_time": 12.6,
                "pitch": 88,
                "velocity": 80,
                "duration": 1.1568182,
                "tempo": 120.0
            },
            {
                "start_time": 11.5613636,
                "end_time": 12.6,
                "pitch": 88,
                "velocity": 80,
                "duration": 1.0386364,
                "tempo": 120.0
            },
            {
                "start_time": 12.6,
                "end_time": 13.0772727,
                "pitch": 86,
                "velocity": 80,
                "duration": 0.4772727,
                "tempo": 120.0
            },
            {
                "start_time": 13.0795455,
                "end_time": 13.5568182,
                "pitch": 81,
                "velocity": 80,
                "duration": 0.4772727,
                "tempo": 120.0
            },
            {
                "start_time": 13.5590909,
                "end_time": 13.5909091,
                "pitch": 79,
                "velocity": 80,
                "duration": 0.0318182,
                "tempo": 120.0
            },
            {
                "start_time": 13.5909091,
                "end_time": 13.775,
                "pitch": 79,
                "velocity": 80,
                "duration": 0.1840909,
                "tempo": 120.0
            },
            {
                "start_time": 13.5909091,
                "end_time": 13.775,
                "pitch": 91,
                "velocity": 80,
                "duration": 0.1840909,
                "tempo": 120.0
            },
            {
                "start_time": 13.775,
                "end_time": 13.975,
                "pitch": 79,
                "velocity": 80,
                "duration": 0.2,
                "tempo": 120.0
            },
            {
                "start_time": 13.775,
                "end_time": 13.975,
                "pitch": 91,
                "velocity": 80,
                "duration": 0.2,
                "tempo": 120.0
            },
            {
                "start_time": 13.975,
                "end_time": 14.0113636,
                "pitch": 79,
                "velocity": 80,
                "duration": 0.0363636,
                "tempo": 120.0
            },
            {
                "start_time": 14.0113636,
                "end_time": 15.4,
                "pitch": 77,
                "velocity": 80,
                "duration": 1.3886364,
                "tempo": 120.0
            },
            {
                "start_time": 15.4,
                "end_time": 15.5159091,
                "pitch": 88,
                "velocity": 80,
                "duration": 0.1159091,
                "tempo": 120.0
            },
            {
                "start_time": 15.5159091,
                "end_time": 15.7,
                "pitch": 86,
                "velocity": 80,
                "duration": 0.1840909,
                "tempo": 120.0
            },
            {
                "start_time": 4.5704545,
                "end_time": 15.75,
                "pitch": 69,
                "velocity": 80,
                "duration": 11.1795455,
                "tempo": 120.0
            },
            {
                "start_time": 15.7,
                "end_time": 15.75,
                "pitch": 84,
                "velocity": 80,
                "duration": 0.05,
                "tempo": 120.0
            },
            {
                "start_time": 15.75,
                "end_time": 16.8,
                "pitch": 83,
                "velocity": 80,
                "duration": 1.05,
                "tempo": 120.0
            },
            {
                "start_time": 16.8,
                "end_time": 18.2,
                "pitch": 81,
                "velocity": 80,
                "duration": 1.4,
                "tempo": 120.0
            },
            {
                "start_time": 18.2,
                "end_time": 19.6068182,
                "pitch": 81,
                "velocity": 80,
                "duration": 1.4068182,
                "tempo": 120.0
            },
            {
                "start_time": 19.6068182,
                "end_time": 21.0068182,
                "pitch": 81,
                "velocity": 80,
                "duration": 1.4,
                "tempo": 120.0
            },
            {
                "start_time": 21.0068182,
                "end_time": 22.3977273,
                "pitch": 81,
                "velocity": 80,
                "duration": 1.3909091,
                "tempo": 120.0
            },
            {
                "start_time": 15.75,
                "end_time": 27.9772727,
                "pitch": 69,
                "velocity": 80,
                "duration": 12.2272727,
                "tempo": 120.0
            },
            {
                "start_time": 22.3977273,
                "end_time": 27.9772727,
                "pitch": 69,
                "velocity": 80,
                "duration": 5.5795455,
                "tempo": 120.0
            },
            {
                "start_time": 30.7704545,
                "end_time": 30.8363636,
                "pitch": 92,
                "velocity": 51,
                "duration": 0.0659091,
                "tempo": 120.0
            },
            {
                "start_time": 30.8886364,
                "end_time": 30.9545455,
                "pitch": 93,
                "velocity": 51,
                "duration": 0.0659091,
                "tempo": 120.0
            },
            {
                "start_time": 31.0090909,
                "end_time": 31.0590909,
                "pitch": 88,
                "velocity": 51,
                "duration": 0.05,
                "tempo": 120.0
            },
            {
                "start_time": 31.1272727,
                "end_time": 31.1772727,
                "pitch": 89,
                "velocity": 51,
                "duration": 0.05,
                "tempo": 120.0
            },
            {
                "start_time": 31.2477273,
                "end_time": 31.2977273,
                "pitch": 85,
                "velocity": 51,
                "duration": 0.05,
                "tempo": 120.0
            },
            {
                "start_time": 31.3681818,
                "end_time": 31.4181818,
                "pitch": 86,
                "velocity": 51,
                "duration": 0.05,
                "tempo": 120.0
            },
            {
                "start_time": 31.4886364,
                "end_time": 31.5386364,
                "pitch": 80,
                "velocity": 51,
                "duration": 0.05,
                "tempo": 120.0
            },
            {
                "start_time": 31.6090909,
                "end_time": 31.6590909,
                "pitch": 81,
                "velocity": 51,
                "duration": 0.05,
                "tempo": 120.0
            },
            {
                "start_time": 31.7272727,
                "end_time": 31.7772727,
                "pitch": 76,
                "velocity": 51,
                "duration": 0.05,
                "tempo": 120.0
            },
            {
                "start_time": 31.8295455,
                "end_time": 31.8931818,
                "pitch": 77,
                "velocity": 51,
                "duration": 0.0636364,
                "tempo": 120.0
            },
            {
                "start_time": 31.9454545,
                "end_time": 32.0113636,
                "pitch": 73,
                "velocity": 51,
                "duration": 0.0659091,
                "tempo": 120.0
            },
            {
                "start_time": 32.0636364,
                "end_time": 32.1295455,
                "pitch": 74,
                "velocity": 51,
                "duration": 0.0659091,
                "tempo": 120.0
            },
            {
                "start_time": 32.8840909,
                "end_time": 32.9318182,
                "pitch": 92,
                "velocity": 51,
                "duration": 0.0477273,
                "tempo": 120.0
            },
            {
                "start_time": 33.0,
                "end_time": 33.05,
                "pitch": 93,
                "velocity": 51,
                "duration": 0.05,
                "tempo": 120.0
            },
            {
                "start_time": 33.1181818,
                "end_time": 33.1681818,
                "pitch": 88,
                "velocity": 51,
                "duration": 0.05,
                "tempo": 120.0
            },
            {
                "start_time": 33.2363636,
                "end_time": 33.2863636,
                "pitch": 89,
                "velocity": 51,
                "duration": 0.05,
                "tempo": 120.0
            },
            {
                "start_time": 33.3409091,
                "end_time": 33.4068182,
                "pitch": 85,
                "velocity": 51,
                "duration": 0.0659091,
                "tempo": 120.0
            },
            {
                "start_time": 33.4590909,
                "end_time": 33.5272727,
                "pitch": 86,
                "velocity": 51,
                "duration": 0.0681818,
                "tempo": 120.0
            },
            {
                "start_time": 33.5818182,
                "end_time": 33.6454545,
                "pitch": 80,
                "velocity": 51,
                "duration": 0.0636364,
                "tempo": 120.0
            },
            {
                "start_time": 33.6954545,
                "end_time": 33.7590909,
                "pitch": 81,
                "velocity": 51,
                "duration": 0.0636364,
                "tempo": 120.0
            },
            {
                "start_time": 33.8090909,
                "end_time": 33.8727273,
                "pitch": 76,
                "velocity": 51,
                "duration": 0.0636364,
                "tempo": 120.0
            },
            {
                "start_time": 33.9227273,
                "end_time": 33.9886364,
                "pitch": 77,
                "velocity": 51,
                "duration": 0.0659091,
                "tempo": 120.0
            },
            {
                "start_time": 34.0386364,
                "end_time": 34.0886364,
                "pitch": 73,
                "velocity": 51,
                "duration": 0.05,
                "tempo": 120.0
            },
            {
                "start_time": 34.1590909,
                "end_time": 34.2090909,
                "pitch": 74,
                "velocity": 51,
                "duration": 0.05,
                "tempo": 120.0
            },
            {
                "start_time": 36.3727273,
                "end_time": 36.4840909,
                "pitch": 81,
                "velocity": 80,
                "duration": 0.1113636,
                "tempo": 120.0
            },
            {
                "start_time": 36.4840909,
                "end_time": 36.5659091,
                "pitch": 83,
                "velocity": 80,
                "duration": 0.0818182,
                "tempo": 120.0
            }
        ],
        "Trumpet": [
            {
                "start_time": 0.0772727,
                "end_time": 1.4886364,
                "pitch": 45,
                "velocity": 80,
                "duration": 1.4113636,
                "tempo": 120.0
            },
            {
                "start_time": 1.4886364,
                "end_time": 2.8863636,
                "pitch": 33,
                "velocity": 80,
                "duration": 1.3977273,
                "tempo": 120.0
            },
            {
                "start_time": 2.8886364,
                "end_time": 4.2772727,
                "pitch": 38,
                "velocity": 80,
                "duration": 1.3886364,
                "tempo": 120.0
            },
            {
                "start_time": 4.2795455,
                "end_time": 4.3977273,
                "pitch": 33,
                "velocity": 80,
                "duration": 0.1181818,
                "tempo": 120.0
            },
            {
                "start_time": 4.3977273,
                "end_time": 4.5181818,
                "pitch": 35,
                "velocity": 80,
                "duration": 0.1204545,
                "tempo": 120.0
            },
            {
                "start_time": 4.5181818,
                "end_time": 4.6386364,
                "pitch": 36,
                "velocity": 80,
                "duration": 0.1204545,
                "tempo": 120.0
            },
            {
                "start_time": 4.6386364,
                "end_time": 5.6772727,
                "pitch": 38,
                "velocity": 80,
                "duration": 1.0386364,
                "tempo": 120.0
            },
            {
                "start_time": 5.6772727,
                "end_time": 7.0681818,
                "pitch": 39,
                "velocity": 80,
                "duration": 1.3909091,
                "tempo": 120.0
            },
            {
                "start_time": 7.0681818,
                "end_time": 8.4590909,
                "pitch": 37,
                "velocity": 80,
                "duration": 1.3909091,
                "tempo": 120.0
            },
            {
                "start_time": 8.4590909,
                "end_time": 9.8590909,
                "pitch": 38,
                "velocity": 80,
                "duration": 1.4,
                "tempo": 120.0
            },
            {
                "start_time": 9.8590909,
                "end_time": 10.3386364,
                "pitch": 38,
                "velocity": 80,
                "duration": 0.4795455,
                "tempo": 120.0
            },
            {
                "start_time": 10.3386364,
                "end_time": 11.275,
                "pitch": 57,
                "velocity": 64,
                "duration": 0.9363636,
                "tempo": 120.0
            },
            {
                "start_time": 11.275,
                "end_time": 12.6659091,
                "pitch": 45,
                "velocity": 80,
                "duration": 1.3909091,
                "tempo": 120.0
            },
            {
                "start_time": 12.6659091,
                "end_time": 14.0772727,
                "pitch": 33,
                "velocity": 80,
                "duration": 1.4113636,
                "tempo": 120.0
            },
            {
                "start_time": 14.0772727,
                "end_time": 15.4659091,
                "pitch": 38,
                "velocity": 80,
                "duration": 1.3886364,
                "tempo": 120.0
            },
            {
                "start_time": 15.4659091,
                "end_time": 15.5818182,
                "pitch": 33,
                "velocity": 80,
                "duration": 0.1159091,
                "tempo": 120.0
            },
            {
                "start_time": 15.5840909,
                "end_time": 15.7,
                "pitch": 35,
                "velocity": 80,
                "duration": 0.1159091,
                "tempo": 120.0
            },
            {
                "start_time": 15.7,
                "end_time": 15.8181818,
                "pitch": 36,
                "velocity": 80,
                "duration": 0.1181818,
                "tempo": 120.0
            },
            {
                "start_time": 15.8181818,
                "end_time": 16.8659091,
                "pitch": 38,
                "velocity": 80,
                "duration": 1.0477273,
                "tempo": 120.0
            },
            {
                "start_time": 16.8659091,
                "end_time": 18.2659091,
                "pitch": 39,
                "velocity": 80,
                "duration": 1.4,
                "tempo": 120.0
            },
            {
                "start_time": 18.2659091,
                "end_time": 19.6568182,
                "pitch": 37,
                "velocity": 80,
                "duration": 1.3909091,
                "tempo": 120.0
            },
            {
                "start_time": 19.6568182,
                "end_time": 21.0568182,
                "pitch": 38,
                "velocity": 80,
                "duration": 1.4,
                "tempo": 120.0
            },
            {
                "start_time": 21.0590909,
                "end_time": 21.5340909,
                "pitch": 38,
                "velocity": 80,
                "duration": 0.475,
                "tempo": 120.0
            },
            {
                "start_time": 21.5340909,
                "end_time": 22.4477273,
                "pitch": 57,
                "velocity": 64,
                "duration": 0.9136364,
                "tempo": 120.0
            },
            {
                "start_time": 22.4477273,
                "end_time": 22.4818182,
                "pitch": 45,
                "velocity": 101,
                "duration": 0.0340909,
                "tempo": 120.0
            },
            {
                "start_time": 22.4818182,
                "end_time": 22.5340909,
                "pitch": 33,
                "velocity": 101,
                "duration": 0.0522727,
                "tempo": 120.0
            },
            {
                "start_time": 22.5340909,
                "end_time": 22.5681818,
                "pitch": 45,
                "velocity": 101,
                "duration": 0.0340909,
                "tempo": 120.0
            },
            {
                "start_time": 22.5681818,
                "end_time": 22.6022727,
                "pitch": 33,
                "velocity": 101,
                "duration": 0.0340909,
                "tempo": 120.0
            },
            {
                "start_time": 22.6022727,
                "end_time": 22.6522727,
                "pitch": 45,
                "velocity": 101,
                "duration": 0.05,
                "tempo": 120.0
            },
            {
                "start_time": 22.6522727,
                "end_time": 22.6863636,
                "pitch": 33,
                "velocity": 101,
                "duration": 0.0340909,
                "tempo": 120.0
            },
            {
                "start_time": 22.6863636,
                "end_time": 22.7227273,
                "pitch": 45,
                "velocity": 101,
                "duration": 0.0363636,
                "tempo": 120.0
            },
            {
                "start_time": 22.7227273,
                "end_time": 22.7727273,
                "pitch": 33,
                "velocity": 101,
                "duration": 0.05,
                "tempo": 120.0
            },
            {
                "start_time": 22.7727273,
                "end_time": 22.8068182,
                "pitch": 45,
                "velocity": 101,
                "duration": 0.0340909,
                "tempo": 120.0
            },
            {
                "start_time": 22.8068182,
                "end_time": 22.8409091,
                "pitch": 33,
                "velocity": 101,
                "duration": 0.0340909,
                "tempo": 120.0
            },
            {
                "start_time": 22.8409091,
                "end_time": 22.8909091,
                "pitch": 45,
                "velocity": 101,
                "duration": 0.05,
                "tempo": 120.0
            },
            {
                "start_time": 22.8909091,
                "end_time": 22.925,
                "pitch": 33,
                "velocity": 101,
                "duration": 0.0340909,
                "tempo": 120.0
            },
            {
                "start_time": 22.925,
                "end_time": 22.9568182,
                "pitch": 45,
                "velocity": 101,
                "duration": 0.0318182,
                "tempo": 120.0
            },
            {
                "start_time": 22.9568182,
                "end_time": 22.9909091,
                "pitch": 33,
                "velocity": 101,
                "duration": 0.0340909,
                "tempo": 120.0
            },
            {
                "start_time": 22.9909091,
                "end_time": 23.0386364,
                "pitch": 45,
                "velocity": 101,
                "duration": 0.0477273,
                "tempo": 120.0
            },
            {
                "start_time": 23.0386364,
                "end_time": 23.0727273,
                "pitch": 33,
                "velocity": 101,
                "duration": 0.0340909,
                "tempo": 120.0
            },
            {
                "start_time": 23.0727273,
                "end_time": 23.1045455,
                "pitch": 45,
                "velocity": 101,
                "duration": 0.0318182,
                "tempo": 120.0
            },
            {
                "start_time": 23.1045455,
                "end_time": 23.1522727,
                "pitch": 33,
                "velocity": 101,
                "duration": 0.0477273,
                "tempo": 120.0
            },
            {
                "start_time": 23.1522727,
                "end_time": 23.1863636,
                "pitch": 45,
                "velocity": 101,
                "duration": 0.0340909,
                "tempo": 120.0
            },
            {
                "start_time": 23.1863636,
                "end_time": 23.2181818,
                "pitch": 33,
                "velocity": 101,
                "duration": 0.0318182,
                "tempo": 120.0
            },
            {
                "start_time": 23.2181818,
                "end_time": 23.2681818,
                "pitch": 45,
                "velocity": 101,
                "duration": 0.05,
                "tempo": 120.0
            },
            {
                "start_time": 23.2681818,
                "end_time": 23.3,
                "pitch": 33,
                "velocity": 101,
                "duration": 0.0318182,
                "tempo": 120.0
            },
            {
                "start_time": 23.3,
                "end_time": 23.3340909,
                "pitch": 45,
                "velocity": 101,
                "duration": 0.0340909,
                "tempo": 120.0
            },
            {
                "start_time": 23.3340909,
                "end_time": 23.3840909,
                "pitch": 33,
                "velocity": 101,
                "duration": 0.05,
                "tempo": 120.0
            },
            {
                "start_time": 23.3840909,
                "end_time": 23.4181818,
                "pitch": 45,
                "velocity": 101,
                "duration": 0.0340909,
                "tempo": 120.0
            },
            {
                "start_time": 23.4181818,
                "end_time": 23.45,
                "pitch": 33,
                "velocity": 101,
                "duration": 0.0318182,
                "tempo": 120.0
            },
            {
                "start_time": 23.45,
                "end_time": 23.4840909,
                "pitch": 45,
                "velocity": 101,
                "duration": 0.0340909,
                "tempo": 120.0
            },
            {
                "start_time": 23.4840909,
                "end_time": 23.5340909,
                "pitch": 33,
                "velocity": 101,
                "duration": 0.05,
                "tempo": 120.0
            },
            {
                "start_time": 23.5340909,
                "end_time": 23.5681818,
                "pitch": 45,
                "velocity": 101,
                "duration": 0.0340909,
                "tempo": 120.0
            },
            {
                "start_time": 23.5681818,
                "end_time": 23.6022727,
                "pitch": 33,
                "velocity": 101,
                "duration": 0.0340909,
                "tempo": 120.0
            },
            {
                "start_time": 23.6022727,
                "end_time": 23.6522727,
                "pitch": 45,
                "velocity": 101,
                "duration": 0.05,
                "tempo": 120.0
            },
            {
                "start_time": 23.6522727,
                "end_time": 23.6863636,
                "pitch": 33,
                "velocity": 101,
                "duration": 0.0340909,
                "tempo": 120.0
            },
            {
                "start_time": 23.6863636,
                "end_time": 23.7181818,
                "pitch": 45,
                "velocity": 101,
                "duration": 0.0318182,
                "tempo": 120.0
            },
            {
                "start_time": 23.7181818,
                "end_time": 23.7681818,
                "pitch": 33,
                "velocity": 101,
                "duration": 0.05,
                "tempo": 120.0
            },
            {
                "start_time": 23.7681818,
                "end_time": 23.8022727,
                "pitch": 45,
                "velocity": 101,
                "duration": 0.0340909,
                "tempo": 120.0
            },
            {
                "start_time": 23.8022727,
                "end_time": 23.8386364,
                "pitch": 33,
                "velocity": 101,
                "duration": 0.0363636,
                "tempo": 120.0
            },
            {
                "start_time": 23.8386364,
                "end_time": 23.8909091,
                "pitch": 38,
                "velocity": 101,
                "duration": 0.0522727,
                "tempo": 120.0
            },
            {
                "start_time": 23.8909091,
                "end_time": 23.925,
                "pitch": 26,
                "velocity": 101,
                "duration": 0.0340909,
                "tempo": 120.0
            },
            {
                "start_time": 23.925,
                "end_time": 23.9613636,
                "pitch": 38,
                "velocity": 101,
                "duration": 0.0363636,
                "tempo": 120.0
            },
            {
                "start_time": 23.9613636,
                "end_time": 23.9954545,
                "pitch": 26,
                "velocity": 101,
                "duration": 0.0340909,
                "tempo": 120.0
            },
            {
                "start_time": 23.9954545,
                "end_time": 24.0477273,
                "pitch": 38,
                "velocity": 101,
                "duration": 0.0522727,
                "tempo": 120.0
            },
            {
                "start_time": 24.0477273,
                "end_time": 24.0840909,
                "pitch": 26,
                "velocity": 101,
                "duration": 0.0363636,
                "tempo": 120.0
            },
            {
                "start_time": 24.0840909,
                "end_time": 24.1181818,
                "pitch": 38,
                "velocity": 101,
                "duration": 0.0340909,
                "tempo": 120.0
            },
            {
                "start_time": 24.1181818,
                "end_time": 24.1727273,
                "pitch": 26,
                "velocity": 101,
                "duration": 0.0545455,
                "tempo": 120.0
            },
            {
                "start_time": 24.1727273,
                "end_time": 24.2068182,
                "pitch": 38,
                "velocity": 101,
                "duration": 0.0340909,
                "tempo": 120.0
            },
            {
                "start_time": 24.2068182,
                "end_time": 24.2409091,
                "pitch": 26,
                "velocity": 101,
                "duration": 0.0340909,
                "tempo": 120.0
            },
            {
                "start_time": 24.2409091,
                "end_time": 24.2931818,
                "pitch": 38,
                "velocity": 101,
                "duration": 0.0522727,
                "tempo": 120.0
            },
            {
                "start_time": 24.2931818,
                "end_time": 24.325,
                "pitch": 26,
                "velocity": 101,
                "duration": 0.0318182,
                "tempo": 120.0
            },
            {
                "start_time": 24.325,
                "end_time": 24.3590909,
                "pitch": 38,
                "velocity": 101,
                "duration": 0.0340909,
                "tempo": 120.0
            },
            {
                "start_time": 24.3590909,
                "end_time": 24.4068182,
                "pitch": 26,
                "velocity": 101,
                "duration": 0.0477273,
                "tempo": 120.0
            },
            {
                "start_time": 24.4068182,
                "end_time": 24.4409091,
                "pitch": 38,
                "velocity": 101,
                "duration": 0.0340909,
                "tempo": 120.0
            },
            {
                "start_time": 24.4409091,
                "end_time": 24.4727273,
                "pitch": 26,
                "velocity": 101,
                "duration": 0.0318182,
                "tempo": 120.0
            },
            {
                "start_time": 24.4727273,
                "end_time": 24.5045455,
                "pitch": 38,
                "velocity": 101,
                "duration": 0.0318182,
                "tempo": 120.0
            },
            {
                "start_time": 24.5045455,
                "end_time": 24.5545455,
                "pitch": 26,
                "velocity": 101,
                "duration": 0.05,
                "tempo": 120.0
            },
            {
                "start_time": 24.5545455,
                "end_time": 24.5863636,
                "pitch": 38,
                "velocity": 101,
                "duration": 0.0318182,
                "tempo": 120.0
            },
            {
                "start_time": 24.5863636,
                "end_time": 24.6204545,
                "pitch": 26,
                "velocity": 101,
                "duration": 0.0340909,
                "tempo": 120.0
            },
            {
                "start_time": 24.6204545,
                "end_time": 24.6681818,
                "pitch": 38,
                "velocity": 101,
                "duration": 0.0477273,
                "tempo": 120.0
            },
            {
                "start_time": 24.6681818,
                "end_time": 24.7022727,
                "pitch": 26,
                "velocity": 101,
                "duration": 0.0340909,
                "tempo": 120.0
            },
            {
                "start_time": 24.7022727,
                "end_time": 24.7340909,
                "pitch": 38,
                "velocity": 101,
                "duration": 0.0318182,
                "tempo": 120.0
            },
            {
                "start_time": 24.7340909,
                "end_time": 24.7840909,
                "pitch": 26,
                "velocity": 101,
                "duration": 0.05,
                "tempo": 120.0
            },
            {
                "start_time": 24.7840909,
                "end_time": 24.8181818,
                "pitch": 38,
                "velocity": 101,
                "duration": 0.0340909,
                "tempo": 120.0
            },
            {
                "start_time": 24.8181818,
                "end_time": 24.8522727,
                "pitch": 26,
                "velocity": 101,
                "duration": 0.0340909,
                "tempo": 120.0
            },
            {
                "start_time": 24.8522727,
                "end_time": 24.9022727,
                "pitch": 38,
                "velocity": 101,
                "duration": 0.05,
                "tempo": 120.0
            },
            {
                "start_time": 24.9022727,
                "end_time": 24.9363636,
                "pitch": 26,
                "velocity": 101,
                "duration": 0.0340909,
                "tempo": 120.0
            },
            {
                "start_time": 24.9363636,
                "end_time": 24.9681818,
                "pitch": 38,
                "velocity": 101,
                "duration": 0.0318182,
                "tempo": 120.0
            },
            {
                "start_time": 24.9681818,
                "end_time": 25.0022727,
                "pitch": 26,
                "velocity": 101,
                "duration": 0.0340909,
                "tempo": 120.0
            },
            {
                "start_time": 25.0022727,
                "end_time": 25.0522727,
                "pitch": 38,
                "velocity": 101,
                "duration": 0.05,
                "tempo": 120.0
            },
            {
                "start_time": 25.0522727,
                "end_time": 25.0863636,
                "pitch": 26,
                "velocity": 101,
                "duration": 0.0340909,
                "tempo": 120.0
            },
            {
                "start_time": 25.0863636,
                "end_time": 25.1204545,
                "pitch": 38,
                "velocity": 101,
                "duration": 0.0340909,
                "tempo": 120.0
            },
            {
                "start_time": 25.1204545,
                "end_time": 25.1704545,
                "pitch": 26,
                "velocity": 101,
                "duration": 0.05,
                "tempo": 120.0
            },
            {
                "start_time": 25.1704545,
                "end_time": 25.2045455,
                "pitch": 38,
                "velocity": 101,
                "duration": 0.0340909,
                "tempo": 120.0
            },
            {
                "start_time": 25.2045455,
                "end_time": 25.2386364,
                "pitch": 26,
                "velocity": 101,
                "duration": 0.0340909,
                "tempo": 120.0
            },
            {
                "start_time": 36.4363636,
                "end_time": 36.5659091,
                "pitch": 45,
                "velocity": 80,
                "duration": 0.1295455,
                "tempo": 120.0
            }
        ],
        "Acoustic Guitar (nylon)": [
            {
                "start_time": 25.2386364,
                "end_time": 25.3068182,
                "pitch": 74,
                "velocity": 51,
                "duration": 0.0681818,
                "tempo": 120.0
            },
            {
                "start_time": 25.3090909,
                "end_time": 25.3590909,
                "pitch": 74,
                "velocity": 25,
                "duration": 0.05,
                "tempo": 120.0
            },
            {
                "start_time": 25.3590909,
                "end_time": 25.4272727,
                "pitch": 69,
                "velocity": 51,
                "duration": 0.0681818,
                "tempo": 120.0
            },
            {
                "start_time": 25.4272727,
                "end_time": 25.4795455,
                "pitch": 74,
                "velocity": 25,
                "duration": 0.0522727,
                "tempo": 120.0
            },
            {
                "start_time": 25.4795455,
                "end_time": 25.5477273,
                "pitch": 65,
                "velocity": 51,
                "duration": 0.0681818,
                "tempo": 120.0
            },
            {
                "start_time": 25.5477273,
                "end_time": 25.5977273,
                "pitch": 69,
                "velocity": 25,
                "duration": 0.05,
                "tempo": 120.0
            },
            {
                "start_time": 25.6,
                "end_time": 25.6681818,
                "pitch": 72,
                "velocity": 51,
                "duration": 0.0681818,
                "tempo": 120.0
            },
            {
                "start_time": 25.6681818,
                "end_time": 25.7181818,
                "pitch": 65,
                "velocity": 25,
                "duration": 0.05,
                "tempo": 120.0
            },
            {
                "start_time": 25.7181818,
                "end_time": 25.7340909,
                "pitch": 67,
                "velocity": 51,
                "duration": 0.0159091,
                "tempo": 120.0
            },
            {
                "start_time": 25.7340909,
                "end_time": 25.7704545,
                "pitch": 67,
                "velocity": 51,
                "duration": 0.0363636,
                "tempo": 120.0
            },
            {
                "start_time": 25.7704545,
                "end_time": 25.8386364,
                "pitch": 72,
                "velocity": 25,
                "duration": 0.0681818,
                "tempo": 120.0
            },
            {
                "start_time": 25.8386364,
                "end_time": 25.8909091,
                "pitch": 64,
                "velocity": 51,
                "duration": 0.0522727,
                "tempo": 120.0
            },
            {
                "start_time": 25.8909091,
                "end_time": 25.9409091,
                "pitch": 67,
                "velocity": 25,
                "duration": 0.05,
                "tempo": 120.0
            },
            {
                "start_time": 25.7340909,
                "end_time": 25.9409091,
                "pitch": 79,
                "velocity": 51,
                "duration": 0.2068182,
                "tempo": 120.0
            },
            {
                "start_time": 25.9409091,
                "end_time": 25.9590909,
                "pitch": 67,
                "velocity": 25,
                "duration": 0.0181818,
                "tempo": 120.0
            },
            {
                "start_time": 25.9590909,
                "end_time": 26.0113636,
                "pitch": 70,
                "velocity": 51,
                "duration": 0.0522727,
                "tempo": 120.0
            },
            {
                "start_time": 26.0113636,
                "end_time": 26.0772727,
                "pitch": 64,
                "velocity": 25,
                "duration": 0.0659091,
                "tempo": 120.0
            },
            {
                "start_time": 26.0795455,
                "end_time": 26.1295455,
                "pitch": 65,
                "velocity": 51,
                "duration": 0.05,
                "tempo": 120.0
            },
            {
                "start_time": 26.1295455,
                "end_time": 26.1954545,
                "pitch": 70,
                "velocity": 25,
                "duration": 0.0659091,
                "tempo": 120.0
            },
            {
                "start_time": 26.1954545,
                "end_time": 26.2454545,
                "pitch": 62,
                "velocity": 51,
                "duration": 0.05,
                "tempo": 120.0
            },
            {
                "start_time": 26.2454545,
                "end_time": 26.3090909,
                "pitch": 65,
                "velocity": 25,
                "duration": 0.0636364,
                "tempo": 120.0
            },
            {
                "start_time": 26.3113636,
                "end_time": 26.3590909,
                "pitch": 65,
                "velocity": 51,
                "duration": 0.0477273,
                "tempo": 120.0
            },
            {
                "start_time": 26.3590909,
                "end_time": 26.425,
                "pitch": 62,
                "velocity": 25,
                "duration": 0.0659091,
                "tempo": 120.0
            },
            {
                "start_time": 26.425,
                "end_time": 26.475,
                "pitch": 64,
                "velocity": 51,
                "duration": 0.05,
                "tempo": 120.0
            },
            {
                "start_time": 26.475,
                "end_time": 26.5227273,
                "pitch": 65,
                "velocity": 25,
                "duration": 0.0477273,
                "tempo": 120.0
            },
            {
                "start_time": 26.5227273,
                "end_time": 26.5886364,
                "pitch": 69,
                "velocity": 51,
                "duration": 0.0659091,
                "tempo": 120.0
            },
            {
                "start_time": 26.5909091,
                "end_time": 26.6386364,
                "pitch": 64,
                "velocity": 25,
                "duration": 0.0477273,
                "tempo": 120.0
            },
            {
                "start_time": 26.6386364,
                "end_time": 26.8795455,
                "pitch": 65,
                "velocity": 51,
                "duration": 0.2409091,
                "tempo": 120.0
            },
            {
                "start_time": 26.8795455,
                "end_time": 27.1181818,
                "pitch": 65,
                "velocity": 25,
                "duration": 0.2386364,
                "tempo": 120.0
            },
            {
                "start_time": 27.1181818,
                "end_time": 27.3522727,
                "pitch": 64,
                "velocity": 51,
                "duration": 0.2340909,
                "tempo": 120.0
            },
            {
                "start_time": 27.3522727,
                "end_time": 27.5840909,
                "pitch": 64,
                "velocity": 25,
                "duration": 0.2318182,
                "tempo": 120.0
            },
            {
                "start_time": 27.5840909,
                "end_time": 27.7,
                "pitch": 65,
                "velocity": 51,
                "duration": 0.1159091,
                "tempo": 120.0
            },
            {
                "start_time": 27.7,
                "end_time": 27.8136364,
                "pitch": 64,
                "velocity": 25,
                "duration": 0.1136364,
                "tempo": 120.0
            },
            {
                "start_time": 27.8136364,
                "end_time": 27.8636364,
                "pitch": 67,
                "velocity": 51,
                "duration": 0.05,
                "tempo": 120.0
            },
            {
                "start_time": 25.9409091,
                "end_time": 27.8636364,
                "pitch": 79,
                "velocity": 25,
                "duration": 1.9227273,
                "tempo": 120.0
            },
            {
                "start_time": 27.8636364,
                "end_time": 27.9272727,
                "pitch": 67,
                "velocity": 51,
                "duration": 0.0636364,
                "tempo": 120.0
            },
            {
                "start_time": 27.9295455,
                "end_time": 28.0295455,
                "pitch": 65,
                "velocity": 25,
                "duration": 0.1,
                "tempo": 120.0
            },
            {
                "start_time": 28.0295455,
                "end_time": 28.0977273,
                "pitch": 74,
                "velocity": 51,
                "duration": 0.0681818,
                "tempo": 120.0
            },
            {
                "start_time": 28.0977273,
                "end_time": 28.15,
                "pitch": 74,
                "velocity": 25,
                "duration": 0.0522727,
                "tempo": 120.0
            },
            {
                "start_time": 28.15,
                "end_time": 28.2181818,
                "pitch": 69,
                "velocity": 51,
                "duration": 0.0681818,
                "tempo": 120.0
            },
            {
                "start_time": 28.2181818,
                "end_time": 28.2681818,
                "pitch": 74,
                "velocity": 25,
                "duration": 0.05,
                "tempo": 120.0
            },
            {
                "start_time": 28.2681818,
                "end_time": 28.3386364,
                "pitch": 65,
                "velocity": 51,
                "duration": 0.0704545,
                "tempo": 120.0
            },
            {
                "start_time": 28.3386364,
                "end_time": 28.3886364,
                "pitch": 69,
                "velocity": 25,
                "duration": 0.05,
                "tempo": 120.0
            },
            {
                "start_time": 28.3886364,
                "end_time": 28.4590909,
                "pitch": 72,
                "velocity": 51,
                "duration": 0.0704545,
                "tempo": 120.0
            },
            {
                "start_time": 28.4590909,
                "end_time": 28.5090909,
                "pitch": 65,
                "velocity": 25,
                "duration": 0.05,
                "tempo": 120.0
            },
            {
                "start_time": 28.5090909,
                "end_time": 28.5772727,
                "pitch": 67,
                "velocity": 51,
                "duration": 0.0681818,
                "tempo": 120.0
            },
            {
                "start_time": 28.5795455,
                "end_time": 28.6295455,
                "pitch": 72,
                "velocity": 25,
                "duration": 0.05,
                "tempo": 120.0
            },
            {
                "start_time": 28.6295455,
                "end_time": 28.6977273,
                "pitch": 64,
                "velocity": 51,
                "duration": 0.0681818,
                "tempo": 120.0
            },
            {
                "start_time": 27.8636364,
                "end_time": 28.6977273,
                "pitch": 79,
                "velocity": 51,
                "duration": 0.8340909,
                "tempo": 120.0
            },
            {
                "start_time": 28.6977273,
                "end_time": 28.7477273,
                "pitch": 67,
                "velocity": 25,
                "duration": 0.05,
                "tempo": 120.0
            },
            {
                "start_time": 28.6977273,
                "end_time": 28.7477273,
                "pitch": 67,
                "velocity": 25,
                "duration": 0.05,
                "tempo": 120.0
            },
            {
                "start_time": 28.75,
                "end_time": 28.8,
                "pitch": 70,
                "velocity": 51,
                "duration": 0.05,
                "tempo": 120.0
            },
            {
                "start_time": 28.8,
                "end_time": 28.8681818,
                "pitch": 64,
                "velocity": 25,
                "duration": 0.0681818,
                "tempo": 120.0
            },
            {
                "start_time": 28.8681818,
                "end_time": 28.9204545,
                "pitch": 65,
                "velocity": 51,
                "duration": 0.0522727,
                "tempo": 120.0
            },
            {
                "start_time": 28.9204545,
                "end_time": 28.9863636,
                "pitch": 70,
                "velocity": 25,
                "duration": 0.0659091,
                "tempo": 120.0
            },
            {
                "start_time": 28.9863636,
                "end_time": 29.0363636,
                "pitch": 62,
                "velocity": 51,
                "duration": 0.05,
                "tempo": 120.0
            },
            {
                "start_time": 29.0363636,
                "end_time": 29.1,
                "pitch": 65,
                "velocity": 25,
                "duration": 0.0636364,
                "tempo": 120.0
            },
            {
                "start_time": 29.1,
                "end_time": 29.15,
                "pitch": 65,
                "velocity": 51,
                "duration": 0.05,
                "tempo": 120.0
            },
            {
                "start_time": 29.15,
                "end_time": 29.2159091,
                "pitch": 62,
                "velocity": 25,
                "duration": 0.0659091,
                "tempo": 120.0
            },
            {
                "start_time": 29.2159091,
                "end_time": 29.2636364,
                "pitch": 64,
                "velocity": 51,
                "duration": 0.0477273,
                "tempo": 120.0
            },
            {
                "start_time": 29.2636364,
                "end_time": 29.3295455,
                "pitch": 65,
                "velocity": 25,
                "duration": 0.0659091,
                "tempo": 120.0
            },
            {
                "start_time": 29.3295455,
                "end_time": 29.3795455,
                "pitch": 69,
                "velocity": 51,
                "duration": 0.05,
                "tempo": 120.0
            },
            {
                "start_time": 29.3795455,
                "end_time": 29.4454545,
                "pitch": 64,
                "velocity": 25,
                "duration": 0.0659091,
                "tempo": 120.0
            },
            {
                "start_time": 29.4454545,
                "end_time": 29.5477273,
                "pitch": 65,
                "velocity": 51,
                "duration": 0.1022727,
                "tempo": 120.0
            },
            {
                "start_time": 29.55,
                "end_time": 29.6681818,
                "pitch": 69,
                "velocity": 25,
                "duration": 0.1181818,
                "tempo": 120.0
            },
            {
                "start_time": 29.6681818,
                "end_time": 29.7886364,
                "pitch": 65,
                "velocity": 51,
                "duration": 0.1204545,
                "tempo": 120.0
            },
            {
                "start_time": 29.7886364,
                "end_time": 29.9068182,
                "pitch": 65,
                "velocity": 25,
                "duration": 0.1181818,
                "tempo": 120.0
            },
            {
                "start_time": 29.9090909,
                "end_time": 30.025,
                "pitch": 64,
                "velocity": 51,
                "duration": 0.1159091,
                "tempo": 120.0
            },
            {
                "start_time": 30.025,
                "end_time": 30.1409091,
                "pitch": 65,
                "velocity": 25,
                "duration": 0.1159091,
                "tempo": 120.0
            },
            {
                "start_time": 30.1431818,
                "end_time": 30.2590909,
                "pitch": 65,
                "velocity": 51,
                "duration": 0.1159091,
                "tempo": 120.0
            },
            {
                "start_time": 30.2590909,
                "end_time": 30.375,
                "pitch": 64,
                "velocity": 25,
                "duration": 0.1159091,
                "tempo": 120.0
            },
            {
                "start_time": 30.375,
                "end_time": 30.425,
                "pitch": 74,
                "velocity": 51,
                "duration": 0.05,
                "tempo": 120.0
            },
            {
                "start_time": 30.425,
                "end_time": 30.4909091,
                "pitch": 65,
                "velocity": 25,
                "duration": 0.0659091,
                "tempo": 120.0
            },
            {
                "start_time": 30.4909091,
                "end_time": 30.5386364,
                "pitch": 69,
                "velocity": 51,
                "duration": 0.0477273,
                "tempo": 120.0
            },
            {
                "start_time": 30.5409091,
                "end_time": 30.6045455,
                "pitch": 74,
                "velocity": 25,
                "duration": 0.0636364,
                "tempo": 120.0
            },
            {
                "start_time": 30.6045455,
                "end_time": 30.6545455,
                "pitch": 65,
                "velocity": 51,
                "duration": 0.05,
                "tempo": 120.0
            },
            {
                "start_time": 30.6545455,
                "end_time": 30.7181818,
                "pitch": 69,
                "velocity": 25,
                "duration": 0.0636364,
                "tempo": 120.0
            },
            {
                "start_time": 30.7181818,
                "end_time": 30.7704545,
                "pitch": 62,
                "velocity": 51,
                "duration": 0.0522727,
                "tempo": 120.0
            },
            {
                "start_time": 30.7704545,
                "end_time": 30.8363636,
                "pitch": 65,
                "velocity": 25,
                "duration": 0.0659091,
                "tempo": 120.0
            },
            {
                "start_time": 30.8363636,
                "end_time": 30.8886364,
                "pitch": 74,
                "velocity": 51,
                "duration": 0.0522727,
                "tempo": 120.0
            },
            {
                "start_time": 30.8909091,
                "end_time": 30.9568182,
                "pitch": 74,
                "velocity": 25,
                "duration": 0.0659091,
                "tempo": 120.0
            },
            {
                "start_time": 30.9568182,
                "end_time": 31.0090909,
                "pitch": 69,
                "velocity": 51,
                "duration": 0.0522727,
                "tempo": 120.0
            },
            {
                "start_time": 31.0090909,
                "end_time": 31.0590909,
                "pitch": 74,
                "velocity": 25,
                "duration": 0.05,
                "tempo": 120.0
            },
            {
                "start_time": 31.0590909,
                "end_time": 31.1295455,
                "pitch": 65,
                "velocity": 51,
                "duration": 0.0704545,
                "tempo": 120.0
            },
            {
                "start_time": 31.1295455,
                "end_time": 31.1795455,
                "pitch": 69,
                "velocity": 25,
                "duration": 0.05,
                "tempo": 120.0
            },
            {
                "start_time": 31.1795455,
                "end_time": 31.25,
                "pitch": 72,
                "velocity": 51,
                "duration": 0.0704545,
                "tempo": 120.0
            },
            {
                "start_time": 31.25,
                "end_time": 31.3,
                "pitch": 65,
                "velocity": 25,
                "duration": 0.05,
                "tempo": 120.0
            },
            {
                "start_time": 31.3,
                "end_time": 31.3681818,
                "pitch": 67,
                "velocity": 51,
                "duration": 0.0681818,
                "tempo": 120.0
            },
            {
                "start_time": 28.6977273,
                "end_time": 31.3681818,
                "pitch": 79,
                "velocity": 25,
                "duration": 2.6704545,
                "tempo": 120.0
            },
            {
                "start_time": 31.3681818,
                "end_time": 31.3704545,
                "pitch": 67,
                "velocity": 51,
                "duration": 0.0022727,
                "tempo": 120.0
            },
            {
                "start_time": 31.3704545,
                "end_time": 31.4181818,
                "pitch": 72,
                "velocity": 25,
                "duration": 0.0477273,
                "tempo": 120.0
            },
            {
                "start_time": 31.4204545,
                "end_time": 31.4886364,
                "pitch": 64,
                "velocity": 51,
                "duration": 0.0681818,
                "tempo": 120.0
            },
            {
                "start_time": 31.4909091,
                "end_time": 31.5386364,
                "pitch": 67,
                "velocity": 25,
                "duration": 0.0477273,
                "tempo": 120.0
            },
            {
                "start_time": 31.5386364,
                "end_time": 31.6090909,
                "pitch": 70,
                "velocity": 51,
                "duration": 0.0704545,
                "tempo": 120.0
            },
            {
                "start_time": 31.6090909,
                "end_time": 31.6590909,
                "pitch": 64,
                "velocity": 25,
                "duration": 0.05,
                "tempo": 120.0
            },
            {
                "start_time": 31.6590909,
                "end_time": 31.7295455,
                "pitch": 65,
                "velocity": 51,
                "duration": 0.0704545,
                "tempo": 120.0
            },
            {
                "start_time": 31.7295455,
                "end_time": 31.7772727,
                "pitch": 70,
                "velocity": 25,
                "duration": 0.0477273,
                "tempo": 120.0
            },
            {
                "start_time": 31.7772727,
                "end_time": 31.8295455,
                "pitch": 62,
                "velocity": 51,
                "duration": 0.0522727,
                "tempo": 120.0
            },
            {
                "start_time": 31.8295455,
                "end_time": 31.8954545,
                "pitch": 65,
                "velocity": 25,
                "duration": 0.0659091,
                "tempo": 120.0
            },
            {
                "start_time": 31.8954545,
                "end_time": 31.9477273,
                "pitch": 65,
                "velocity": 51,
                "duration": 0.0522727,
                "tempo": 120.0
            },
            {
                "start_time": 31.9477273,
                "end_time": 32.0113636,
                "pitch": 62,
                "velocity": 25,
                "duration": 0.0636364,
                "tempo": 120.0
            },
            {
                "start_time": 32.0136364,
                "end_time": 32.0636364,
                "pitch": 64,
                "velocity": 51,
                "duration": 0.05,
                "tempo": 120.0
            },
            {
                "start_time": 32.0636364,
                "end_time": 32.1295455,
                "pitch": 65,
                "velocity": 25,
                "duration": 0.0659091,
                "tempo": 120.0
            },
            {
                "start_time": 32.1295455,
                "end_time": 32.1818182,
                "pitch": 69,
                "velocity": 51,
                "duration": 0.0522727,
                "tempo": 120.0
            },
            {
                "start_time": 32.1818182,
                "end_time": 32.2454545,
                "pitch": 64,
                "velocity": 25,
                "duration": 0.0636364,
                "tempo": 120.0
            },
            {
                "start_time": 32.2454545,
                "end_time": 32.4795455,
                "pitch": 65,
                "velocity": 51,
                "duration": 0.2340909,
                "tempo": 120.0
            },
            {
                "start_time": 32.4795455,
                "end_time": 32.6977273,
                "pitch": 65,
                "velocity": 25,
                "duration": 0.2181818,
                "tempo": 120.0
            },
            {
                "start_time": 32.6977273,
                "end_time": 32.9318182,
                "pitch": 64,
                "velocity": 51,
                "duration": 0.2340909,
                "tempo": 120.0
            },
            {
                "start_time": 32.9318182,
                "end_time": 33.1681818,
                "pitch": 64,
                "velocity": 25,
                "duration": 0.2363636,
                "tempo": 120.0
            },
            {
                "start_time": 33.1681818,
                "end_time": 33.2886364,
                "pitch": 65,
                "velocity": 51,
                "duration": 0.1204545,
                "tempo": 120.0
            },
            {
                "start_time": 33.2886364,
                "end_time": 33.4068182,
                "pitch": 64,
                "velocity": 25,
                "duration": 0.1181818,
                "tempo": 120.0
            },
            {
                "start_time": 33.4090909,
                "end_time": 33.5113636,
                "pitch": 67,
                "velocity": 51,
                "duration": 0.1022727,
                "tempo": 120.0
            },
            {
                "start_time": 31.3681818,
                "end_time": 33.5113636,
                "pitch": 79,
                "velocity": 51,
                "duration": 2.1431818,
                "tempo": 120.0
            },
            {
                "start_time": 33.5113636,
                "end_time": 33.5272727,
                "pitch": 67,
                "velocity": 51,
                "duration": 0.0159091,
                "tempo": 120.0
            },
            {
                "start_time": 33.5272727,
                "end_time": 33.6454545,
                "pitch": 65,
                "velocity": 25,
                "duration": 0.1181818,
                "tempo": 120.0
            },
            {
                "start_time": 33.6454545,
                "end_time": 33.6954545,
                "pitch": 74,
                "velocity": 51,
                "duration": 0.05,
                "tempo": 120.0
            },
            {
                "start_time": 33.6954545,
                "end_time": 33.7590909,
                "pitch": 74,
                "velocity": 25,
                "duration": 0.0636364,
                "tempo": 120.0
            },
            {
                "start_time": 33.7613636,
                "end_time": 33.8113636,
                "pitch": 69,
                "velocity": 51,
                "duration": 0.05,
                "tempo": 120.0
            },
            {
                "start_time": 33.8113636,
                "end_time": 33.875,
                "pitch": 74,
                "velocity": 25,
                "duration": 0.0636364,
                "tempo": 120.0
            },
            {
                "start_time": 33.875,
                "end_time": 33.925,
                "pitch": 65,
                "velocity": 51,
                "duration": 0.05,
                "tempo": 120.0
            },
            {
                "start_time": 33.925,
                "end_time": 33.9886364,
                "pitch": 69,
                "velocity": 25,
                "duration": 0.0636364,
                "tempo": 120.0
            },
            {
                "start_time": 33.9886364,
                "end_time": 34.0386364,
                "pitch": 72,
                "velocity": 51,
                "duration": 0.05,
                "tempo": 120.0
            },
            {
                "start_time": 34.0409091,
                "end_time": 34.0886364,
                "pitch": 65,
                "velocity": 25,
                "duration": 0.0477273,
                "tempo": 120.0
            },
            {
                "start_time": 33.5113636,
                "end_time": 34.0886364,
                "pitch": 79,
                "velocity": 51,
                "duration": 0.5772727,
                "tempo": 120.0
            },
            {
                "start_time": 34.0886364,
                "end_time": 34.1590909,
                "pitch": 67,
                "velocity": 51,
                "duration": 0.0704545,
                "tempo": 120.0
            },
            {
                "start_time": 34.0886364,
                "end_time": 34.1590909,
                "pitch": 67,
                "velocity": 51,
                "duration": 0.0704545,
                "tempo": 120.0
            },
            {
                "start_time": 34.1590909,
                "end_time": 34.2090909,
                "pitch": 72,
                "velocity": 25,
                "duration": 0.05,
                "tempo": 120.0
            },
            {
                "start_time": 34.2090909,
                "end_time": 34.2795455,
                "pitch": 64,
                "velocity": 51,
                "duration": 0.0704545,
                "tempo": 120.0
            },
            {
                "start_time": 34.0886364,
                "end_time": 34.2795455,
                "pitch": 79,
                "velocity": 51,
                "duration": 0.1909091,
                "tempo": 120.0
            },
            {
                "start_time": 34.2795455,
                "end_time": 34.3295455,
                "pitch": 67,
                "velocity": 25,
                "duration": 0.05,
                "tempo": 120.0
            },
            {
                "start_time": 34.2795455,
                "end_time": 34.3295455,
                "pitch": 67,
                "velocity": 25,
                "duration": 0.05,
                "tempo": 120.0
            },
            {
                "start_time": 34.3295455,
                "end_time": 34.3977273,
                "pitch": 70,
                "velocity": 51,
                "duration": 0.0681818,
                "tempo": 120.0
            },
            {
                "start_time": 34.3977273,
                "end_time": 34.45,
                "pitch": 64,
                "velocity": 25,
                "duration": 0.0522727,
                "tempo": 120.0
            },
            {
                "start_time": 34.45,
                "end_time": 34.5181818,
                "pitch": 65,
                "velocity": 51,
                "duration": 0.0681818,
                "tempo": 120.0
            },
            {
                "start_time": 34.5181818,
                "end_time": 34.5681818,
                "pitch": 70,
                "velocity": 25,
                "duration": 0.05,
                "tempo": 120.0
            },
            {
                "start_time": 34.5681818,
                "end_time": 34.6386364,
                "pitch": 62,
                "velocity": 51,
                "duration": 0.0704545,
                "tempo": 120.0
            },
            {
                "start_time": 34.6386364,
                "end_time": 34.6886364,
                "pitch": 65,
                "velocity": 25,
                "duration": 0.05,
                "tempo": 120.0
            },
            {
                "start_time": 34.6886364,
                "end_time": 34.7568182,
                "pitch": 65,
                "velocity": 51,
                "duration": 0.0681818,
                "tempo": 120.0
            },
            {
                "start_time": 34.7590909,
                "end_time": 34.8090909,
                "pitch": 62,
                "velocity": 25,
                "duration": 0.05,
                "tempo": 120.0
            },
            {
                "start_time": 34.8090909,
                "end_time": 34.8613636,
                "pitch": 64,
                "velocity": 51,
                "duration": 0.0522727,
                "tempo": 120.0
            },
            {
                "start_time": 34.8613636,
                "end_time": 34.9295455,
                "pitch": 65,
                "velocity": 25,
                "duration": 0.0681818,
                "tempo": 120.0
            },
            {
                "start_time": 34.9295455,
                "end_time": 34.9818182,
                "pitch": 69,
                "velocity": 51,
                "duration": 0.0522727,
                "tempo": 120.0
            },
            {
                "start_time": 34.9818182,
                "end_time": 35.0454545,
                "pitch": 64,
                "velocity": 25,
                "duration": 0.0636364,
                "tempo": 120.0
            },
            {
                "start_time": 35.0454545,
                "end_time": 35.1590909,
                "pitch": 65,
                "velocity": 51,
                "duration": 0.1136364,
                "tempo": 120.0
            },
            {
                "start_time": 35.1613636,
                "end_time": 35.275,
                "pitch": 69,
                "velocity": 25,
                "duration": 0.1136364,
                "tempo": 120.0
            },
            {
                "start_time": 35.275,
                "end_time": 35.3886364,
                "pitch": 65,
                "velocity": 51,
                "duration": 0.1136364,
                "tempo": 120.0
            },
            {
                "start_time": 35.3886364,
                "end_time": 35.5045455,
                "pitch": 65,
                "velocity": 25,
                "duration": 0.1159091,
                "tempo": 120.0
            },
            {
                "start_time": 35.5045455,
                "end_time": 35.6045455,
                "pitch": 64,
                "velocity": 51,
                "duration": 0.1,
                "tempo": 120.0
            },
            {
                "start_time": 35.6068182,
                "end_time": 35.7227273,
                "pitch": 65,
                "velocity": 25,
                "duration": 0.1159091,
                "tempo": 120.0
            },
            {
                "start_time": 35.7227273,
                "end_time": 35.8409091,
                "pitch": 65,
                "velocity": 51,
                "duration": 0.1181818,
                "tempo": 120.0
            },
            {
                "start_time": 35.8409091,
                "end_time": 35.9590909,
                "pitch": 64,
                "velocity": 25,
                "duration": 0.1181818,
                "tempo": 120.0
            },
            {
                "start_time": 35.9590909,
                "end_time": 36.0272727,
                "pitch": 74,
                "velocity": 51,
                "duration": 0.0681818,
                "tempo": 120.0
            },
            {
                "start_time": 36.0272727,
                "end_time": 36.0795455,
                "pitch": 65,
                "velocity": 25,
                "duration": 0.0522727,
                "tempo": 120.0
            },
            {
                "start_time": 36.0795455,
                "end_time": 36.1477273,
                "pitch": 69,
                "velocity": 51,
                "duration": 0.0681818,
                "tempo": 120.0
            },
            {
                "start_time": 36.1477273,
                "end_time": 36.1977273,
                "pitch": 74,
                "velocity": 25,
                "duration": 0.05,
                "tempo": 120.0
            },
            {
                "start_time": 36.2,
                "end_time": 36.2681818,
                "pitch": 65,
                "velocity": 51,
                "duration": 0.0681818,
                "tempo": 120.0
            },
            {
                "start_time": 36.2681818,
                "end_time": 36.3181818,
                "pitch": 69,
                "velocity": 25,
                "duration": 0.05,
                "tempo": 120.0
            },
            {
                "start_time": 36.3181818,
                "end_time": 36.375,
                "pitch": 62,
                "velocity": 51,
                "duration": 0.0568182,
                "tempo": 120.0
            },
            {
                "start_time": 36.375,
                "end_time": 36.4340909,
                "pitch": 65,
                "velocity": 25,
                "duration": 0.0590909,
                "tempo": 120.0
            }
        ],
        "Lead 2 (sawtooth)": [
            {
                "start_time": 36.2681818,
                "end_time": 36.3340909,
                "pitch": 45,
                "velocity": 51,
                "duration": 0.0659091,
                "tempo": 120.0
            },
            {
                "start_time": 36.375,
                "end_time": 36.4522727,
                "pitch": 45,
                "velocity": 101,
                "duration": 0.0772727,
                "tempo": 120.0
            },
            {
                "start_time": 36.4863636,
                "end_time": 36.5659091,
                "pitch": 45,
                "velocity": 64,
                "duration": 0.0795455,
                "tempo": 120.0
            }
        ]
    }
}