{
    "mood": "angry",
    "instruments": {
        "Lead 2 (sawtooth)": [
            {
                "start_time": 0.0090909,
                "end_time": 0.1022727,
                "pitch": 55,
                "velocity": 64,
                "duration": 0.0931818,
                "tempo": 120.0
            },
            {
                "start_time": 0.1022727,
                "end_time": 0.2204545,
                "pitch": 61,
                "velocity": 64,
                "duration": 0.1181818,
                "tempo": 120.0
            },
            {
                "start_time": 0.2204545,
                "end_time": 0.3204545,
                "pitch": 67,
                "velocity": 64,
                "duration": 0.1,
                "tempo": 120.0
            },
            {
                "start_time": 0.3204545,
                "end_time": 0.4340909,
                "pitch": 60,
                "velocity": 64,
                "duration": 0.1136364,
                "tempo": 120.0
            },
            {
                "start_time": 0.4340909,
                "end_time": 0.5477273,
                "pitch": 66,
                "velocity": 64,
                "duration": 0.1136364,
                "tempo": 120.0
            },
            {
                "start_time": 0.5477273,
                "end_time": 0.6454545,
                "pitch": 72,
                "velocity": 64,
                "duration": 0.0977273,
                "tempo": 120.0
            },
            {
                "start_time": 0.6454545,
                "end_time": 0.7636364,
                "pitch": 65,
                "velocity": 64,
                "duration": 0.1181818,
                "tempo": 120.0
            },
            {
                "start_time": 0.7636364,
                "end_time": 0.8795455,
                "pitch": 71,
                "velocity": 64,
                "duration": 0.1159091,
                "tempo": 120.0
            },
            {
                "start_time": 0.8795455,
                "end_time": 0.9818182,
                "pitch": 77,
                "velocity": 64,
                "duration": 0.1022727,
                "tempo": 120.0
            },
            {
                "start_time": 0.9818182,
                "end_time": 1.1,
                "pitch": 70,
                "velocity": 64,
                "duration": 0.1181818,
                "tempo": 120.0
            },
            {
                "start_time": 1.1022727,
                "end_time": 1.2227273,
                "pitch": 76,
                "velocity": 64,
                "duration": 0.1204545,
                "tempo": 120.0
            },
            {
                "start_time": 1.2227273,
                "end_time": 1.325,
                "pitch": 82,
                "velocity": 64,
                "duration": 0.1022727,
                "tempo": 120.0
            },
            {
                "start_time": 1.325,
                "end_time": 1.6613636,
                "pitch": 88,
                "velocity": 64,
                "duration": 0.3363636,
                "tempo": 120.0
            },
            {
                "start_time": 1.6613636,
                "end_time": 1.7772727,
                "pitch": 85,
                "velocity": 64,
                "duration": 0.1159091,
                "tempo": 120.0
            },
            {
                "start_time": 1.7795455,
                "end_time": 1.8954545,
                "pitch": 82,
                "velocity": 64,
                "duration": 0.1159091,
                "tempo": 120.0
            },
            {
                "start_time": 1.8954545,
                "end_time": 1.9977273,
                "pitch": 85,
                "velocity": 64,
                "duration": 0.1022727,
                "tempo": 120.0
            },
            {
                "start_time": 1.9977273,
                "end_time": 2.1181818,
                "pitch": 82,
                "velocity": 64,
                "duration": 0.1204545,
                "tempo": 120.0
            },
            {
                "start_time": 2.1181818,
                "end_time": 2.2386364,
                "pitch": 79,
                "velocity": 64,
                "duration": 0.1204545,
                "tempo": 120.0
            },
            {
                "start_time": 2.2386364,
                "end_time": 2.3409091,
                "pitch": 82,
                "velocity": 64,
                "duration": 0.1022727,
                "tempo": 120.0
            },
            {
                "start_time": 2.3409091,
                "end_time": 2.4590909,
                "pitch": 79,
                "velocity": 64,
                "duration": 0.1181818,
                "tempo": 120.0
            },
            {
                "start_time": 2.4590909,
                "end_time": 2.5772727,
                "pitch": 76,
                "velocity": 64,
                "duration": 0.1181818,
                "tempo": 120.0
            },
            {
                "start_time": 2.5772727,
                "end_time": 2.6772727,
                "pitch": 79,
                "velocity": 64,
                "duration": 0.1,
                "tempo": 120.0
            },
            {
                "start_time": 2.6772727,
                "end_time": 2.7977273,
                "pitch": 76,
                "velocity": 64,
                "duration": 0.1204545,
                "tempo": 120.0
            },
            {
                "start_time": 2.7977273,
                "end_time": 2.9181818,
                "pitch": 73,
                "velocity": 64,
                "duration": 0.1204545,
                "tempo": 120.0
            },
            {
                "start_time": 2.9181818,
                "end_time": 3.0204545,
                "pitch": 76,
                "velocity": 64,
                "duration": 0.1022727,
                "tempo": 120.0
            },
            {
                "start_time": 3.0227273,
                "end_time": 3.1386364,
                "pitch": 73,
                "velocity": 64,
                "duration": 0.1159091,
                "tempo": 120.0
            },
            {
                "start_time": 3.1386364,
                "end_time": 3.2568182,
                "pitch": 70,
                "velocity": 64,
                "duration": 0.1181818,
                "tempo": 120.0
            },
            {
                "start_time": 3.2568182,
                "end_time": 3.3568182,
                "pitch": 73,
                "velocity": 64,
                "duration": 0.1,
                "tempo": 120.0
            },
            {
                "start_time": 3.3568182,
                "end_time": 3.475,
                "pitch": 70,
                "velocity": 64,
                "duration": 0.1181818,
                "tempo": 120.0
            },
            {
                "start_time": 3.475,
                "end_time": 3.5909091,
                "pitch": 67,
                "velocity": 64,
                "duration": 0.1159091,
                "tempo": 120.0
            },
            {
                "start_time": 3.5909091,
                "end_time": 3.6931818,
                "pitch": 70,
                "velocity": 64,
                "duration": 0.1022727,
                "tempo": 120.0
            },
            {
                "start_time": 3.6931818,
                "end_time": 3.8113636,
                "pitch": 67,
                "velocity": 64,
                "duration": 0.1181818,
                "tempo": 120.0
            },
            {
                "start_time": 3.8136364,
                "end_time": 3.9340909,
                "pitch": 64,
                "velocity": 64,
                "duration": 0.1204545,
                "tempo": 120.0
            },
            {
                "start_time": 3.9340909,
                "end_time": 4.0363636,
                "pitch": 67,
                "velocity": 64,
                "duration": 0.1022727,
                "tempo": 120.0
            },
            {
                "start_time": 4.0363636,
                "end_time": 4.1545455,
                "pitch": 64,
                "velocity": 64,
                "duration": 0.1181818,
                "tempo": 120.0
            },
            {
                "start_time": 4.1545455,
                "end_time": 4.2727273,
                "pitch": 61,
                "velocity": 64,
                "duration": 0.1181818,
                "tempo": 120.0
            },
            {
                "start_time": 4.2727273,
                "end_time": 4.3727273,
                "pitch": 64,
                "velocity": 64,
                "duration": 0.1,
                "tempo": 120.0
            },
            {
                "start_time": 4.3727273,
                "end_time": 4.4931818,
                "pitch": 61,
                "velocity": 64,
                "duration": 0.1204545,
                "tempo": 120.0
            },
            {
                "start_time": 4.4931818,
                "end_time": 4.6136364,
                "pitch": 58,
                "velocity": 64,
                "duration": 0.1204545,
                "tempo": 120.0
            },
            {
                "start_time": 4.6136364,
                "end_time": 4.7181818,
                "pitch": 61,
                "velocity": 64,
                "duration": 0.1045455,
                "tempo": 120.0
            },
            {
                "start_time": 4.7181818,
                "end_time": 4.8340909,
                "pitch": 58,
                "velocity": 64,
                "duration": 0.1159091,
                "tempo": 120.0
            },
            {
                "start_time": 4.8340909,
                "end_time": 4.9522727,
                "pitch": 55,
                "velocity": 64,
                "duration": 0.1181818,
                "tempo": 120.0
            },
            {
                "start_time": 4.9522727,
                "end_time": 5.0522727,
                "pitch": 58,
                "velocity": 64,
                "duration": 0.1,
                "tempo": 120.0
            },
            {
                "start_time": 5.0522727,
                "end_time": 5.1704545,
                "pitch": 55,
                "velocity": 64,
                "duration": 0.1181818,
                "tempo": 120.0
            },
            {
                "start_time": 5.1704545,
                "end_time": 5.2863636,
                "pitch": 52,
                "velocity": 64,
                "duration": 0.1159091,
                "tempo": 120.0
            },
            {
                "start_time": 5.2886364,
                "end_time": 5.3886364,
                "pitch": 55,
                "velocity": 64,
                "duration": 0.1,
                "tempo": 120.0
            },
            {
                "start_time": 5.3886364,
                "end_time": 5.5090909,
                "pitch": 55,
                "velocity": 64,
                "duration": 0.1204545,
                "tempo": 120.0
            },
            {
                "start_time": 5.5090909,
                "end_time": 5.6295455,
                "pitch": 61,
                "velocity": 64,
                "duration": 0.1204545,
                "tempo": 120.0
            },
            {
                "start_time": 5.6295455,
                "end_time": 5.7318182,
                "pitch": 67,
                "velocity": 64,
                "duration": 0.1022727,
                "tempo": 120.0
            },
            {
                "start_time": 5.7340909,
                "end_time": 5.85,
                "pitch": 60,
                "velocity": 64,
                "duration": 0.1159091,
                "tempo": 120.0
            },
            {
                "start_time": 5.85,
                "end_time": 5.9681818,
                "pitch": 66,
                "velocity": 64,
                "duration": 0.1181818,
                "tempo": 120.0
            },
            {
                "start_time": 5.9681818,
                "end_time": 6.0681818,
                "pitch": 72,
                "velocity": 64,
                "duration": 0.1,
                "tempo": 120.0
            },
            {
                "start_time": 6.0681818,
                "end_time": 6.1886364,
                "pitch": 65,
                "velocity": 64,
                "duration": 0.1204545,
                "tempo": 120.0
            },
            {
                "start_time": 6.1886364,
                "end_time": 6.3090909,
                "pitch": 71,
                "velocity": 64,
                "duration": 0.1204545,
                "tempo": 120.0
            },
            {
                "start_time": 6.3090909,
                "end_time": 6.4136364,
                "pitch": 77,
                "velocity": 64,
                "duration": 0.1045455,
                "tempo": 120.0
            },
            {
                "start_time": 6.4136364,
                "end_time": 6.5295455,
                "pitch": 70,
                "velocity": 64,
                "duration": 0.1159091,
                "tempo": 120.0
            },
            {
                "start_time": 6.5295455,
                "end_time": 6.6477273,
                "pitch": 76,
                "velocity": 64,
                "duration": 0.1181818,
                "tempo": 120.0
            },
            {
                "start_time": 6.6477273,
                "end_time": 6.7477273,
                "pitch": 82,
                "velocity": 64,
                "duration": 0.1,
                "tempo": 120.0
            },
            {
                "start_time": 6.7477273,
                "end_time": 7.0840909,
                "pitch": 88,
                "velocity": 64,
                "duration": 0.3363636,
                "tempo": 120.0
            },
            {
                "start_time": 7.0840909,
                "end_time": 7.2,
                "pitch": 85,
                "velocity": 64,
                "duration": 0.1159091,
                "tempo": 120.0
            },
            {
                "start_time": 7.2,
                "end_time": 7.3181818,
                "pitch": 82,
                "velocity": 64,
                "duration": 0.1181818,
                "tempo": 120.0
            },
            {
                "start_time": 7.3181818,
                "end_time": 7.4181818,
                "pitch": 85,
                "velocity": 64,
                "duration": 0.1,
                "tempo": 120.0
            },
            {
                "start_time": 7.4181818,
                "end_time": 7.5386364,
                "pitch": 82,
                "velocity": 64,
                "duration": 0.1204545,
                "tempo": 120.0
            },
            {
                "start_time": 7.5409091,
                "end_time": 7.6613636,
                "pitch": 79,
                "velocity": 64,
                "duration": 0.1204545,
                "tempo": 120.0
            },
            {
                "start_time": 7.6613636,
                "end_time": 7.7636364,
                "pitch": 82,
                "velocity": 64,
                "duration": 0.1022727,
                "tempo": 120.0
            },
            {
                "start_time": 7.7636364,
                "end_time": 7.8818182,
                "pitch": 79,
                "velocity": 64,
                "duration": 0.1181818,
                "tempo": 120.0
            },
            {
                "start_time": 7.8818182,
                "end_time": 7.9977273,
                "pitch": 76,
                "velocity": 64,
                "duration": 0.1159091,
                "tempo": 120.0
            },
            {
                "start_time": 7.9977273,
                "end_time": 8.1,
                "pitch": 79,
                "velocity": 64,
                "duration": 0.1022727,
                "tempo": 120.0
            },
            {
                "start_time": 8.1,
                "end_time": 8.2181818,
                "pitch": 76,
                "velocity": 64,
                "duration": 0.1181818,
                "tempo": 120.0
            },
            {
                "start_time": 8.2204545,
                "end_time": 8.3409091,
                "pitch": 73,
                "velocity": 64,
                "duration": 0.1204545,
                "tempo": 120.0
            },
            {
                "start_time": 8.3409091,
                "end_time": 8.4431818,
                "pitch": 76,
                "velocity": 64,
                "duration": 0.1022727,
                "tempo": 120.0
            },
            {
                "start_time": 8.4431818,
                "end_time": 8.5613636,
                "pitch": 73,
                "velocity": 64,
                "duration": 0.1181818,
                "tempo": 120.0
            },
            {
                "start_time": 8.5613636,
                "end_time": 8.6795455,
                "pitch": 70,
                "velocity": 64,
                "duration": 0.1181818,
                "tempo": 120.0
            },
            {
                "start_time": 8.6795455,
                "end_time": 8.7795455,
                "pitch": 73,
                "velocity": 64,
                "duration": 0.1,
                "tempo": 120.0
            },
            {
                "start_time": 8.7795455,
                "end_time": 8.8977273,
                "pitch": 70,
                "velocity": 64,
                "duration": 0.1181818,
                "tempo": 120.0
            },
            {
                "start_time": 8.8977273,
                "end_time": 9.0136364,
                "pitch": 67,
                "velocity": 64,
                "duration": 0.1159091,
                "tempo": 120.0
            },
            {
                "start_time": 9.0136364,
                "end_time": 9.1136364,
                "pitch": 70,
                "velocity": 64,
                "duration": 0.1,
                "tempo": 120.0
            },
            {
                "start_time": 9.1159091,
                "end_time": 9.2340909,
                "pitch": 67,
                "velocity": 64,
                "duration": 0.1181818,
                "tempo": 120.0
            },
            {
                "start_time": 9.2340909,
                "end_time": 9.3568182,
                "pitch": 64,
                "velocity": 64,
                "duration": 0.1227273,
                "tempo": 120.0
            },
            {
                "start_time": 9.3568182,
                "end_time": 9.4590909,
                "pitch": 67,
                "velocity": 64,
                "duration": 0.1022727,
                "tempo": 120.0
            },
            {
                "start_time": 9.4590909,
                "end_time": 9.5772727,
                "pitch": 64,
                "velocity": 64,
                "duration": 0.1181818,
                "tempo": 120.0
            },
            {
                "start_time": 9.5772727,
                "end_time": 9.6931818,
                "pitch": 61,
                "velocity": 64,
                "duration": 0.1159091,
                "tempo": 120.0
            },
            {
                "start_time": 9.6954545,
                "end_time": 9.7954545,
                "pitch": 64,
                "velocity": 64,
                "duration": 0.1,
                "tempo": 120.0
            },
            {
                "start_time": 9.7954545,
                "end_time": 9.9159091,
                "pitch": 61,
                "velocity": 64,
                "duration": 0.1204545,
                "tempo": 120.0
            },
            {
                "start_time": 9.9159091,
                "end_time": 10.0363636,
                "pitch": 58,
                "velocity": 64,
                "duration": 0.1204545,
                "tempo": 120.0
            },
            {
                "start_time": 10.0363636,
                "end_time": 10.1386364,
                "pitch": 61,
                "velocity": 64,
                "duration": 0.1022727,
                "tempo": 120.0
            },
            {
                "start_time": 10.1409091,
                "end_time": 10.2568182,
                "pitch": 58,
                "velocity": 64,
                "duration": 0.1159091,
                "tempo": 120.0
            },
            {
                "start_time": 10.2568182,
                "end_time": 10.375,
                "pitch": 55,
                "velocity": 64,
                "duration": 0.1181818,
                "tempo": 120.0
            },
            {
                "start_time": 10.375,
                "end_time": 10.475,
                "pitch": 58,
                "velocity": 64,
                "duration": 0.1,
                "tempo": 120.0
            },
            {
                "start_time": 10.475,
                "end_time": 10.5931818,
                "pitch": 55,
                "velocity": 64,
                "duration": 0.1181818,
                "tempo": 120.0
            },
            {
                "start_time": 10.5931818,
                "end_time": 10.7090909,
                "pitch": 52,
                "velocity": 64,
                "duration": 0.1159091,
                "tempo": 120.0
            },
            {
                "start_time": 10.7090909,
                "end_time": 10.8090909,
                "pitch": 55,
                "velocity": 64,
                "duration": 0.1,
                "tempo": 120.0
            }
        ],
        "Acoustic Guitar (nylon)": [
            {
                "start_time": 0.0045455,
                "end_time": 1.3409091,
                "pitch": 79,
                "velocity": 64,
                "duration": 1.3363636,
                "tempo": 120.0
            },
            {
                "start_time": 1.3409091,
                "end_time": 2.6931818,
                "pitch": 79,
                "velocity": 64,
                "duration": 1.3522727,
                "tempo": 120.0
            },
            {
                "start_time": 2.6931818,
                "end_time": 4.0522727,
                "pitch": 79,
                "velocity": 64,
                "duration": 1.3590909,
                "tempo": 120.0
            },
            {
                "start_time": 4.0522727,
                "end_time": 5.4045455,
                "pitch": 79,
                "velocity": 64,
                "duration": 1.3522727,
                "tempo": 120.0
            },
            {
                "start_time": 5.4045455,
                "end_time": 6.7636364,
                "pitch": 79,
                "velocity": 64,
                "duration": 1.3590909,
                "tempo": 120.0
            },
            {
                "start_time": 6.7636364,
                "end_time": 8.1159091,
                "pitch": 79,
                "velocity": 64,
                "duration": 1.3522727,
                "tempo": 120.0
            },
            {
                "start_time": 8.1159091,
                "end_time": 9.475,
                "pitch": 79,
                "velocity": 64,
                "duration": 1.3590909,
                "tempo": 120.0
            },
            {
                "start_time": 9.475,
                "end_time": 10.8090909,
                "pitch": 79,
                "velocity": 64,
                "duration": 1.3340909,
                "tempo": 120.0
            }
        ],
        "Electric Piano 1": [
            {
                "start_time": 0.0022727,
                "end_time": 0.1022727,
                "pitch": 28,
                "velocity": 64,
                "duration": 0.1,
                "tempo": 120.0
            },
            {
                "start_time": 0.1022727,
                "end_time": 0.2181818,
                "pitch": 40,
                "velocity": 64,
                "duration": 0.1159091,
                "tempo": 120.0
            },
            {
                "start_time": 0.2181818,
                "end_time": 0.3204545,
                "pitch": 28,
                "velocity": 64,
                "duration": 0.1022727,
                "tempo": 120.0
            },
            {
                "start_time": 0.3204545,
                "end_time": 0.5477273,
                "pitch": 40,
                "velocity": 64,
                "duration": 0.2272727,
                "tempo": 120.0
            },
            {
                "start_time": 0.5477273,
                "end_time": 0.6454545,
                "pitch": 40,
                "velocity": 64,
                "duration": 0.0977273,
                "tempo": 120.0
            },
            {
                "start_time": 0.6454545,
                "end_time": 0.7613636,
                "pitch": 28,
                "velocity": 64,
                "duration": 0.1159091,
                "tempo": 120.0
            },
            {
                "start_time": 0.7613636,
                "end_time": 0.8795455,
                "pitch": 40,
                "velocity": 64,
                "duration": 0.1181818,
                "tempo": 120.0
            },
            {
                "start_time": 0.8795455,
                "end_time": 0.9795455,
                "pitch": 28,
                "velocity": 64,
                "duration": 0.1,
                "tempo": 120.0
            },
            {
                "start_time": 0.9795455,
                "end_time": 1.2204545,
                "pitch": 40,
                "velocity": 64,
                "duration": 0.2409091,
                "tempo": 120.0
            },
            {
                "start_time": 1.2204545,
                "end_time": 1.325,
                "pitch": 40,
                "velocity": 64,
                "duration": 0.1045455,
                "tempo": 120.0
            },
            {
                "start_time": 1.325,
                "end_time": 1.4409091,
                "pitch": 28,
                "velocity": 64,
                "duration": 0.1159091,
                "tempo": 120.0
            },
            {
                "start_time": 1.4431818,
                "end_time": 1.5590909,
                "pitch": 40,
                "velocity": 64,
                "duration": 0.1159091,
                "tempo": 120.0
            },
            {
                "start_time": 1.5590909,
                "end_time": 1.6590909,
                "pitch": 28,
                "velocity": 64,
                "duration": 0.1,
                "tempo": 120.0
            },
            {
                "start_time": 1.6590909,
                "end_time": 1.8954545,
                "pitch": 40,
                "velocity": 64,
                "duration": 0.2363636,
                "tempo": 120.0
            },
            {
                "start_time": 1.8954545,
                "end_time": 1.9954545,
                "pitch": 40,
                "velocity": 64,
                "duration": 0.1,
                "tempo": 120.0
            },
            {
                "start_time": 1.9954545,
                "end_time": 2.1159091,
                "pitch": 28,
                "velocity": 64,
                "duration": 0.1204545,
                "tempo": 120.0
            },
            {
                "start_time": 2.1159091,
                "end_time": 2.2363636,
                "pitch": 40,
                "velocity": 64,
                "duration": 0.1204545,
                "tempo": 120.0
            },
            {
                "start_time": 2.2363636,
                "end_time": 2.3409091,
                "pitch": 28,
                "velocity": 64,
                "duration": 0.1045455,
                "tempo": 120.0
            },
            {
                "start_time": 2.3409091,
                "end_time": 2.4568182,
                "pitch": 38,
                "velocity": 64,
                "duration": 0.1159091,
                "tempo": 120.0
            },
            {
                "start_time": 2.4568182,
                "end_time": 2.575,
                "pitch": 39,
                "velocity": 64,
                "duration": 0.1181818,
                "tempo": 120.0
            },
            {
                "start_time": 2.575,
                "end_time": 2.675,
                "pitch": 40,
                "velocity": 64,
                "duration": 0.1,
                "tempo": 120.0
            },
            {
                "start_time": 2.675,
                "end_time": 2.7954545,
                "pitch": 28,
                "velocity": 64,
                "duration": 0.1204545,
                "tempo": 120.0
            },
            {
                "start_time": 2.7954545,
                "end_time": 2.9159091,
                "pitch": 40,
                "velocity": 64,
                "duration": 0.1204545,
                "tempo": 120.0
            },
            {
                "start_time": 2.9159091,
                "end_time": 3.0204545,
                "pitch": 28,
                "velocity": 64,
                "duration": 0.1045455,
                "tempo": 120.0
            },
            {
                "start_time": 3.0204545,
                "end_time": 3.2545455,
                "pitch": 40,
                "velocity": 64,
                "duration": 0.2340909,
                "tempo": 120.0
            },
            {
                "start_time": 3.2545455,
                "end_time": 3.3545455,
                "pitch": 40,
                "velocity": 64,
                "duration": 0.1,
                "tempo": 120.0
            },
            {
                "start_time": 3.3568182,
                "end_time": 3.4727273,
                "pitch": 28,
                "velocity": 64,
                "duration": 0.1159091,
                "tempo": 120.0
            },
            {
                "start_time": 3.4727273,
                "end_time": 3.5909091,
                "pitch": 40,
                "velocity": 64,
                "duration": 0.1181818,
                "tempo": 120.0
            },
            {
                "start_time": 3.5909091,
                "end_time": 3.6909091,
                "pitch": 28,
                "velocity": 64,
                "duration": 0.1,
                "tempo": 120.0
            },
            {
                "start_time": 3.6909091,
                "end_time": 3.9318182,
                "pitch": 40,
                "velocity": 64,
                "duration": 0.2409091,
                "tempo": 120.0
            },
            {
                "start_time": 3.9318182,
                "end_time": 4.0363636,
                "pitch": 40,
                "velocity": 64,
                "duration": 0.1045455,
                "tempo": 120.0
            },
            {
                "start_time": 4.0363636,
                "end_time": 4.1522727,
                "pitch": 28,
                "velocity": 64,
                "duration": 0.1159091,
                "tempo": 120.0
            },
            {
                "start_time": 4.1522727,
                "end_time": 4.2704545,
                "pitch": 40,
                "velocity": 64,
                "duration": 0.1181818,
                "tempo": 120.0
            },
            {
                "start_time": 4.2704545,
                "end_time": 4.3704545,
                "pitch": 28,
                "velocity": 64,
                "duration": 0.1,
                "tempo": 120.0
            },
            {
                "start_time": 4.3704545,
                "end_time": 4.6113636,
                "pitch": 40,
                "velocity": 64,
                "duration": 0.2409091,
                "tempo": 120.0
            },
            {
                "start_time": 4.6136364,
                "end_time": 4.7159091,
                "pitch": 40,
                "velocity": 64,
                "duration": 0.1022727,
                "tempo": 120.0
            },
            {
                "start_time": 4.7159091,
                "end_time": 4.8340909,
                "pitch": 28,
                "velocity": 64,
                "duration": 0.1181818,
                "tempo": 120.0
            },
            {
                "start_time": 4.8340909,
                "end_time": 4.95,
                "pitch": 40,
                "velocity": 64,
                "duration": 0.1159091,
                "tempo": 120.0
            },
            {
                "start_time": 4.95,
                "end_time": 5.0522727,
                "pitch": 28,
                "velocity": 64,
                "duration": 0.1022727,
                "tempo": 120.0
            },
            {
                "start_time": 5.0522727,
                "end_time": 5.1681818,
                "pitch": 38,
                "velocity": 64,
                "duration": 0.1159091,
                "tempo": 120.0
            },
            {
                "start_time": 5.1681818,
                "end_time": 5.2863636,
                "pitch": 39,
                "velocity": 64,
                "duration": 0.1181818,
                "tempo": 120.0
            },
            {
                "start_time": 5.2863636,
                "end_time": 5.3863636,
                "pitch": 40,
                "velocity": 64,
                "duration": 0.1,
                "tempo": 120.0
            },
            {
                "start_time": 5.3863636,
                "end_time": 5.5068182,
                "pitch": 28,
                "velocity": 64,
                "duration": 0.1204545,
                "tempo": 120.0
            },
            {
                "start_time": 5.5068182,
                "end_time": 5.6272727,
                "pitch": 40,
                "velocity": 64,
                "duration": 0.1204545,
                "tempo": 120.0
            },
            {
                "start_time": 5.6272727,
                "end_time": 5.7318182,
                "pitch": 28,
                "velocity": 64,
                "duration": 0.1045455,
                "tempo": 120.0
            },
            {
                "start_time": 5.7318182,
                "end_time": 5.9659091,
                "pitch": 40,
                "velocity": 64,
                "duration": 0.2340909,
                "tempo": 120.0
            },
            {
                "start_time": 5.9659091,
                "end_time": 6.0659091,
                "pitch": 40,
                "velocity": 64,
                "duration": 0.1,
                "tempo": 120.0
            },
            {
                "start_time": 6.0659091,
                "end_time": 6.1863636,
                "pitch": 28,
                "velocity": 64,
                "duration": 0.1204545,
                "tempo": 120.0
            },
            {
                "start_time": 6.1863636,
                "end_time": 6.3068182,
                "pitch": 40,
                "velocity": 64,
                "duration": 0.1204545,
                "tempo": 120.0
            },
            {
                "start_time": 6.3090909,
                "end_time": 6.4113636,
                "pitch": 28,
                "velocity": 64,
                "duration": 0.1022727,
                "tempo": 120.0
            },
            {
                "start_time": 6.4113636,
                "end_time": 6.6454545,
                "pitch": 40,
                "velocity": 64,
                "duration": 0.2340909,
                "tempo": 120.0
            },
            {
                "start_time": 6.6454545,
                "end_time": 6.7477273,
                "pitch": 40,
                "velocity": 64,
                "duration": 0.1022727,
                "tempo": 120.0
            },
            {
                "start_time": 6.7477273,
                "end_time": 6.8636364,
                "pitch": 28,
                "velocity": 64,
                "duration": 0.1159091,
                "tempo": 120.0
            },
            {
                "start_time": 6.8636364,
                "end_time": 6.9818182,
                "pitch": 40,
                "velocity": 64,
                "duration": 0.1181818,
                "tempo": 120.0
            },
            {
                "start_time": 6.9818182,
                "end_time": 7.0818182,
                "pitch": 28,
                "velocity": 64,
                "duration": 0.1,
                "tempo": 120.0
            },
            {
                "start_time": 7.0818182,
                "end_time": 7.3159091,
                "pitch": 40,
                "velocity": 64,
                "duration": 0.2340909,
                "tempo": 120.0
            },
            {
                "start_time": 7.3181818,
                "end_time": 7.4181818,
                "pitch": 40,
                "velocity": 64,
                "duration": 0.1,
                "tempo": 120.0
            },
            {
                "start_time": 7.4181818,
                "end_time": 7.5386364,
                "pitch": 28,
                "velocity": 64,
                "duration": 0.1204545,
                "tempo": 120.0
            },
            {
                "start_time": 7.5386364,
                "end_time": 7.6590909,
                "pitch": 40,
                "velocity": 64,
                "duration": 0.1204545,
                "tempo": 120.0
            },
            {
                "start_time": 7.6590909,
                "end_time": 7.7613636,
                "pitch": 28,
                "velocity": 64,
                "duration": 0.1022727,
                "tempo": 120.0
            },
            {
                "start_time": 7.7636364,
                "end_time": 7.8795455,
                "pitch": 38,
                "velocity": 64,
                "duration": 0.1159091,
                "tempo": 120.0
            },
            {
                "start_time": 7.8795455,
                "end_time": 7.9977273,
                "pitch": 39,
                "velocity": 64,
                "duration": 0.1181818,
                "tempo": 120.0
            },
            {
                "start_time": 7.9977273,
                "end_time": 8.0977273,
                "pitch": 40,
                "velocity": 64,
                "duration": 0.1,
                "tempo": 120.0
            },
            {
                "start_time": 8.0977273,
                "end_time": 8.2181818,
                "pitch": 28,
                "velocity": 64,
                "duration": 0.1204545,
                "tempo": 120.0
            },
            {
                "start_time": 8.2181818,
                "end_time": 8.3386364,
                "pitch": 40,
                "velocity": 64,
                "duration": 0.1204545,
                "tempo": 120.0
            },
            {
                "start_time": 8.3386364,
                "end_time": 8.4431818,
                "pitch": 28,
                "velocity": 64,
                "duration": 0.1045455,
                "tempo": 120.0
            },
            {
                "start_time": 8.4431818,
                "end_time": 8.6772727,
                "pitch": 40,
                "velocity": 64,
                "duration": 0.2340909,
                "tempo": 120.0
            },
            {
                "start_time": 8.6772727,
                "end_time": 8.7772727,
                "pitch": 40,
                "velocity": 64,
                "duration": 0.1,
                "tempo": 120.0
            },
            {
                "start_time": 8.7772727,
                "end_time": 8.8954545,
                "pitch": 28,
                "velocity": 64,
                "duration": 0.1181818,
                "tempo": 120.0
            },
            {
                "start_time": 8.8954545,
                "end_time": 9.0136364,
                "pitch": 40,
                "velocity": 64,
                "duration": 0.1181818,
                "tempo": 120.0
            },
            {
                "start_time": 9.0136364,
                "end_time": 9.1136364,
                "pitch": 28,
                "velocity": 64,
                "duration": 0.1,
                "tempo": 120.0
            },
            {
                "start_time": 9.1136364,
                "end_time": 9.3545455,
                "pitch": 40,
                "velocity": 64,
                "duration": 0.2409091,
                "tempo": 120.0
            },
            {
                "start_time": 9.3545455,
                "end_time": 9.4590909,
                "pitch": 40,
                "velocity": 64,
                "duration": 0.1045455,
                "tempo": 120.0
            },
            {
                "start_time": 9.4590909,
                "end_time": 9.575,
                "pitch": 28,
                "velocity": 64,
                "duration": 0.1159091,
                "tempo": 120.0
            },
            {
                "start_time": 9.575,
                "end_time": 9.6931818,
                "pitch": 40,
                "velocity": 64,
                "duration": 0.1181818,
                "tempo": 120.0
            },
            {
                "start_time": 9.6931818,
                "end_time": 9.7931818,
                "pitch": 28,
                "velocity": 64,
                "duration": 0.1,
                "tempo": 120.0
            },
            {
                "start_time": 9.7931818,
                "end_time": 10.0340909,
                "pitch": 40,
                "velocity": 64,
                "duration": 0.2409091,
                "tempo": 120.0
            },
            {
                "start_time": 10.0340909,
                "end_time": 10.1386364,
                "pitch": 40,
                "velocity": 64,
                "duration": 0.1045455,
                "tempo": 120.0
            },
            {
                "start_time": 10.1386364,
                "end_time": 10.2545455,
                "pitch": 28,
                "velocity": 64,
                "duration": 0.1159091,
                "tempo": 120.0
            },
            {
                "start_time": 10.2568182,
                "end_time": 10.3727273,
                "pitch": 40,
                "velocity": 64,
                "duration": 0.1159091,
                "tempo": 120.0
            },
            {
                "start_time": 10.3727273,
                "end_time": 10.4727273,
                "pitch": 28,
                "velocity": 64,
                "duration": 0.1,
                "tempo": 120.0
            },
            {
                "start_time": 10.4727273,
                "end_time": 10.5909091,
                "pitch": 38,
                "velocity": 64,
                "duration": 0.1181818,
                "tempo": 120.0
            },
            {
                "start_time": 10.5909091,
                "end_time": 10.7090909,
                "pitch": 39,
                "velocity": 64,
                "duration": 0.1181818,
                "tempo": 120.0
            },
            {
                "start_time": 10.7090909,
                "end_time": 10.8090909,
                "pitch": 40,
                "velocity": 64,
                "duration": 0.1,
                "tempo": 120.0
            }
        ]
    }
}