{
    "mood": "angry",
    "instruments": {
        "Harpsichord": [
            {
                "start_time": 0.1181818,
                "end_time": 0.2227273,
                "pitch": 47,
                "velocity": 40,
                "duration": 0.1045455,
                "tempo": 120.0
            },
            {
                "start_time": 0.2227273,
                "end_time": 0.3545455,
                "pitch": 47,
                "velocity": 40,
                "duration": 0.1318182,
                "tempo": 120.0
            },
            {
                "start_time": 0.3545455,
                "end_time": 0.4727273,
                "pitch": 51,
                "velocity": 40,
                "duration": 0.1181818,
                "tempo": 120.0
            },
            {
                "start_time": 0.4727273,
                "end_time": 0.6068182,
                "pitch": 51,
                "velocity": 40,
                "duration": 0.1340909,
                "tempo": 120.0
            },
            {
                "start_time": 0.6068182,
                "end_time": 0.7386364,
                "pitch": 57,
                "velocity": 40,
                "duration": 0.1318182,
                "tempo": 120.0
            },
            {
                "start_time": 0.7386364,
                "end_time": 0.8590909,
                "pitch": 57,
                "velocity": 40,
                "duration": 0.1204545,
                "tempo": 120.0
            },
            {
                "start_time": 0.8590909,
                "end_time": 0.9954545,
                "pitch": 62,
                "velocity": 40,
                "duration": 0.1363636,
                "tempo": 120.0
            },
            {
                "start_time": 0.9954545,
                "end_time": 1.1295455,
                "pitch": 62,
                "velocity": 40,
                "duration": 0.1340909,
                "tempo": 120.0
            },
            {
                "start_time": 0.3545455,
                "end_time": 1.25,
                "pitch": 47,
                "velocity": 40,
                "duration": 0.8954545,
                "tempo": 120.0
            },
            {
                "start_time": 1.1295455,
                "end_time": 1.25,
                "pitch": 47,
                "velocity": 40,
                "duration": 0.1204545,
                "tempo": 120.0
            },
            {
                "start_time": 1.25,
                "end_time": 1.3795455,
                "pitch": 47,
                "velocity": 40,
                "duration": 0.1295455,
                "tempo": 120.0
            },
            {
                "start_time": 1.3795455,
                "end_time": 1.5113636,
                "pitch": 51,
                "velocity": 40,
                "duration": 0.1318182,
                "tempo": 120.0
            },
            {
                "start_time": 1.5113636,
                "end_time": 1.625,
                "pitch": 51,
                "velocity": 40,
                "duration": 0.1136364,
                "tempo": 120.0
            },
            {
                "start_time": 0.8590909,
                "end_time": 1.7545455,
                "pitch": 57,
                "velocity": 40,
                "duration": 0.8954545,
                "tempo": 120.0
            },
            {
                "start_time": 1.625,
                "end_time": 1.7545455,
                "pitch": 57,
                "velocity": 40,
                "duration": 0.1295455,
                "tempo": 120.0
            },
            {
                "start_time": 1.7545455,
                "end_time": 1.8886364,
                "pitch": 57,
                "velocity": 40,
                "duration": 0.1340909,
                "tempo": 120.0
            },
            {
                "start_time": 1.8886364,
                "end_time": 2.0045455,
                "pitch": 62,
                "velocity": 40,
                "duration": 0.1159091,
                "tempo": 120.0
            },
            {
                "start_time": 2.0045455,
                "end_time": 2.1386364,
                "pitch": 62,
                "velocity": 40,
                "duration": 0.1340909,
                "tempo": 120.0
            },
            {
                "start_time": 2.1386364,
                "end_time": 2.2727273,
                "pitch": 47,
                "velocity": 40,
                "duration": 0.1340909,
                "tempo": 120.0
            },
            {
                "start_time": 2.2727273,
                "end_time": 2.3909091,
                "pitch": 47,
                "velocity": 40,
                "duration": 0.1181818,
                "tempo": 120.0
            },
            {
                "start_time": 2.3909091,
                "end_time": 2.5227273,
                "pitch": 51,
                "velocity": 40,
                "duration": 0.1318182,
                "tempo": 120.0
            },
            {
                "start_time": 2.5227273,
                "end_time": 2.6568182,
                "pitch": 51,
                "velocity": 40,
                "duration": 0.1340909,
                "tempo": 120.0
            },
            {
                "start_time": 2.6568182,
                "end_time": 2.775,
                "pitch": 57,
                "velocity": 40,
                "duration": 0.1181818,
                "tempo": 120.0
            },
            {
                "start_time": 2.775,
                "end_time": 2.9068182,
                "pitch": 57,
                "velocity": 40,
                "duration": 0.1318182,
                "tempo": 120.0
            },
            {
                "start_time": 2.9068182,
                "end_time": 2.9090909,
                "pitch": 57,
                "velocity": 40,
                "duration": 0.0022727,
                "tempo": 120.0
            },
            {
                "start_time": 2.9090909,
                "end_time": 3.0409091,
                "pitch": 62,
                "velocity": 40,
                "duration": 0.1318182,
                "tempo": 120.0
            },
            {
                "start_time": 3.0409091,
                "end_time": 3.1590909,
                "pitch": 62,
                "velocity": 40,
                "duration": 0.1181818,
                "tempo": 120.0
            },
            {
                "start_time": 3.1590909,
                "end_time": 3.2931818,
                "pitch": 47,
                "velocity": 40,
                "duration": 0.1340909,
                "tempo": 120.0
            },
            {
                "start_time": 3.2931818,
                "end_time": 3.425,
                "pitch": 47,
                "velocity": 40,
                "duration": 0.1318182,
                "tempo": 120.0
            },
            {
                "start_time": 3.425,
                "end_time": 3.5590909,
                "pitch": 51,
                "velocity": 40,
                "duration": 0.1340909,
                "tempo": 120.0
            },
            {
                "start_time": 3.5590909,
                "end_time": 3.6772727,
                "pitch": 63,
                "velocity": 40,
                "duration": 0.1181818,
                "tempo": 120.0
            },
            {
                "start_time": 3.6772727,
                "end_time": 3.8113636,
                "pitch": 62,
                "velocity": 40,
                "duration": 0.1340909,
                "tempo": 120.0
            },
            {
                "start_time": 3.8113636,
                "end_time": 3.9431818,
                "pitch": 61,
                "velocity": 40,
                "duration": 0.1318182,
                "tempo": 120.0
            },
            {
                "start_time": 3.9431818,
                "end_time": 4.0613636,
                "pitch": 57,
                "velocity": 40,
                "duration": 0.1181818,
                "tempo": 120.0
            },
            {
                "start_time": 4.0613636,
                "end_time": 4.1954545,
                "pitch": 54,
                "velocity": 40,
                "duration": 0.1340909,
                "tempo": 120.0
            },
            {
                "start_time": 4.1954545,
                "end_time": 4.3295455,
                "pitch": 47,
                "velocity": 40,
                "duration": 0.1340909,
                "tempo": 120.0
            },
            {
                "start_time": 4.3295455,
                "end_time": 4.4477273,
                "pitch": 47,
                "velocity": 40,
                "duration": 0.1181818,
                "tempo": 120.0
            },
            {
                "start_time": 4.4477273,
                "end_time": 4.5840909,
                "pitch": 51,
                "velocity": 40,
                "duration": 0.1363636,
                "tempo": 120.0
            },
            {
                "start_time": 4.5840909,
                "end_time": 4.7204545,
                "pitch": 51,
                "velocity": 40,
                "duration": 0.1363636,
                "tempo": 120.0
            },
            {
                "start_time": 4.7204545,
                "end_time": 4.8386364,
                "pitch": 57,
                "velocity": 40,
                "duration": 0.1181818,
                "tempo": 120.0
            },
            {
                "start_time": 4.8386364,
                "end_time": 4.9681818,
                "pitch": 57,
                "velocity": 40,
                "duration": 0.1295455,
                "tempo": 120.0
            },
            {
                "start_time": 4.9681818,
                "end_time": 5.1,
                "pitch": 62,
                "velocity": 40,
                "duration": 0.1318182,
                "tempo": 120.0
            },
            {
                "start_time": 5.1,
                "end_time": 5.2136364,
                "pitch": 62,
                "velocity": 40,
                "duration": 0.1136364,
                "tempo": 120.0
            },
            {
                "start_time": 5.2136364,
                "end_time": 5.3431818,
                "pitch": 47,
                "velocity": 40,
                "duration": 0.1295455,
                "tempo": 120.0
            },
            {
                "start_time": 5.3431818,
                "end_time": 5.4795455,
                "pitch": 47,
                "velocity": 40,
                "duration": 0.1363636,
                "tempo": 120.0
            },
            {
                "start_time": 5.4795455,
                "end_time": 5.5977273,
                "pitch": 51,
                "velocity": 40,
                "duration": 0.1181818,
                "tempo": 120.0
            },
            {
                "start_time": 5.5977273,
                "end_time": 5.7340909,
                "pitch": 51,
                "velocity": 40,
                "duration": 0.1363636,
                "tempo": 120.0
            },
            {
                "start_time": 4.9681818,
                "end_time": 5.8704545,
                "pitch": 57,
                "velocity": 40,
                "duration": 0.9022727,
                "tempo": 120.0
            },
            {
                "start_time": 5.7340909,
                "end_time": 5.8704545,
                "pitch": 57,
                "velocity": 40,
                "duration": 0.1363636,
                "tempo": 120.0
            },
            {
                "start_time": 5.8704545,
                "end_time": 5.9863636,
                "pitch": 57,
                "velocity": 40,
                "duration": 0.1159091,
                "tempo": 120.0
            },
            {
                "start_time": 5.9863636,
                "end_time": 6.1204545,
                "pitch": 62,
                "velocity": 40,
                "duration": 0.1340909,
                "tempo": 120.0
            },
            {
                "start_time": 2.1386364,
                "end_time": 6.2545455,
                "pitch": 50,
                "velocity": 40,
                "duration": 4.1159091,
                "tempo": 120.0
            },
            {
                "start_time": 6.1204545,
                "end_time": 6.2545455,
                "pitch": 62,
                "velocity": 40,
                "duration": 0.1340909,
                "tempo": 120.0
            },
            {
                "start_time": 5.4795455,
                "end_time": 6.3727273,
                "pitch": 47,
                "velocity": 40,
                "duration": 0.8931818,
                "tempo": 120.0
            },
            {
                "start_time": 6.2545455,
                "end_time": 6.3727273,
                "pitch": 47,
                "velocity": 40,
                "duration": 0.1181818,
                "tempo": 120.0
            },
            {
                "start_time": 6.3727273,
                "end_time": 6.5,
                "pitch": 47,
                "velocity": 40,
                "duration": 0.1272727,
                "tempo": 120.0
            },
            {
                "start_time": 6.5,
                "end_time": 6.6272727,
                "pitch": 51,
                "velocity": 40,
                "duration": 0.1272727,
                "tempo": 120.0
            },
            {
                "start_time": 6.6272727,
                "end_time": 6.7568182,
                "pitch": 51,
                "velocity": 40,
                "duration": 0.1295455,
                "tempo": 120.0
            },
            {
                "start_time": 6.7568182,
                "end_time": 6.8681818,
                "pitch": 57,
                "velocity": 40,
                "duration": 0.1113636,
                "tempo": 120.0
            },
            {
                "start_time": 6.8681818,
                "end_time": 7.0045455,
                "pitch": 57,
                "velocity": 40,
                "duration": 0.1363636,
                "tempo": 120.0
            },
            {
                "start_time": 7.0045455,
                "end_time": 7.1409091,
                "pitch": 62,
                "velocity": 40,
                "duration": 0.1363636,
                "tempo": 120.0
            },
            {
                "start_time": 7.1409091,
                "end_time": 7.2590909,
                "pitch": 62,
                "velocity": 40,
                "duration": 0.1181818,
                "tempo": 120.0
            },
            {
                "start_time": 7.2590909,
                "end_time": 7.3954545,
                "pitch": 47,
                "velocity": 40,
                "duration": 0.1363636,
                "tempo": 120.0
            },
            {
                "start_time": 7.3954545,
                "end_time": 7.5318182,
                "pitch": 47,
                "velocity": 40,
                "duration": 0.1363636,
                "tempo": 120.0
            },
            {
                "start_time": 7.5318182,
                "end_time": 7.65,
                "pitch": 51,
                "velocity": 40,
                "duration": 0.1181818,
                "tempo": 120.0
            },
            {
                "start_time": 5.7340909,
                "end_time": 7.7863636,
                "pitch": 63,
                "velocity": 40,
                "duration": 2.0522727,
                "tempo": 120.0
            },
            {
                "start_time": 7.65,
                "end_time": 7.7863636,
                "pitch": 63,
                "velocity": 40,
                "duration": 0.1363636,
                "tempo": 120.0
            },
            {
                "start_time": 7.7863636,
                "end_time": 7.9227273,
                "pitch": 62,
                "velocity": 40,
                "duration": 0.1363636,
                "tempo": 120.0
            },
            {
                "start_time": 7.9227273,
                "end_time": 8.0386364,
                "pitch": 61,
                "velocity": 40,
                "duration": 0.1159091,
                "tempo": 120.0
            },
            {
                "start_time": 7.0045455,
                "end_time": 8.1727273,
                "pitch": 57,
                "velocity": 40,
                "duration": 1.1681818,
                "tempo": 120.0
            },
            {
                "start_time": 8.0386364,
                "end_time": 8.1727273,
                "pitch": 57,
                "velocity": 40,
                "duration": 0.1340909,
                "tempo": 120.0
            },
            {
                "start_time": 4.1954545,
                "end_time": 8.3068182,
                "pitch": 54,
                "velocity": 40,
                "duration": 4.1113636,
                "tempo": 120.0
            },
            {
                "start_time": 8.1727273,
                "end_time": 8.3068182,
                "pitch": 54,
                "velocity": 40,
                "duration": 0.1340909,
                "tempo": 120.0
            },
            {
                "start_time": 8.3068182,
                "end_time": 8.4227273,
                "pitch": 45,
                "velocity": 40,
                "duration": 0.1159091,
                "tempo": 120.0
            },
            {
                "start_time": 8.4227273,
                "end_time": 8.5545455,
                "pitch": 45,
                "velocity": 40,
                "duration": 0.1318182,
                "tempo": 120.0
            },
            {
                "start_time": 8.5545455,
                "end_time": 8.6840909,
                "pitch": 45,
                "velocity": 40,
                "duration": 0.1295455,
                "tempo": 120.0
            },
            {
                "start_time": 8.6840909,
                "end_time": 8.7977273,
                "pitch": 49,
                "velocity": 40,
                "duration": 0.1136364,
                "tempo": 120.0
            },
            {
                "start_time": 8.7977273,
                "end_time": 8.9295455,
                "pitch": 49,
                "velocity": 40,
                "duration": 0.1318182,
                "tempo": 120.0
            },
            {
                "start_time": 8.9295455,
                "end_time": 9.0636364,
                "pitch": 49,
                "velocity": 40,
                "duration": 0.1340909,
                "tempo": 120.0
            },
            {
                "start_time": 9.0636364,
                "end_time": 9.1840909,
                "pitch": 55,
                "velocity": 40,
                "duration": 0.1204545,
                "tempo": 120.0
            },
            {
                "start_time": 9.1840909,
                "end_time": 9.3204545,
                "pitch": 55,
                "velocity": 40,
                "duration": 0.1363636,
                "tempo": 120.0
            },
            {
                "start_time": 9.3204545,
                "end_time": 9.4545455,
                "pitch": 55,
                "velocity": 40,
                "duration": 0.1340909,
                "tempo": 120.0
            },
            {
                "start_time": 3.9431818,
                "end_time": 9.5727273,
                "pitch": 59,
                "velocity": 40,
                "duration": 5.6295455,
                "tempo": 120.0
            },
            {
                "start_time": 9.4545455,
                "end_time": 9.5727273,
                "pitch": 59,
                "velocity": 40,
                "duration": 0.1181818,
                "tempo": 120.0
            },
            {
                "start_time": 9.5727273,
                "end_time": 9.7068182,
                "pitch": 59,
                "velocity": 40,
                "duration": 0.1340909,
                "tempo": 120.0
            },
            {
                "start_time": 9.7068182,
                "end_time": 9.8409091,
                "pitch": 59,
                "velocity": 40,
                "duration": 0.1340909,
                "tempo": 120.0
            },
            {
                "start_time": 9.8409091,
                "end_time": 9.9727273,
                "pitch": 57,
                "velocity": 40,
                "duration": 0.1318182,
                "tempo": 120.0
            },
            {
                "start_time": 9.9727273,
                "end_time": 10.0931818,
                "pitch": 57,
                "velocity": 40,
                "duration": 0.1204545,
                "tempo": 120.0
            },
            {
                "start_time": 10.0931818,
                "end_time": 10.2295455,
                "pitch": 57,
                "velocity": 40,
                "duration": 0.1363636,
                "tempo": 120.0
            },
            {
                "start_time": 9.0636364,
                "end_time": 10.3636364,
                "pitch": 61,
                "velocity": 40,
                "duration": 1.3,
                "tempo": 120.0
            },
            {
                "start_time": 10.2295455,
                "end_time": 10.3636364,
                "pitch": 61,
                "velocity": 40,
                "duration": 0.1340909,
                "tempo": 120.0
            },
            {
                "start_time": 10.3636364,
                "end_time": 10.4840909,
                "pitch": 61,
                "velocity": 40,
                "duration": 0.1204545,
                "tempo": 120.0
            },
            {
                "start_time": 10.4840909,
                "end_time": 10.6113636,
                "pitch": 61,
                "velocity": 40,
                "duration": 0.1272727,
                "tempo": 120.0
            },
            {
                "start_time": 10.6113636,
                "end_time": 10.7409091,
                "pitch": 67,
                "velocity": 40,
                "duration": 0.1295455,
                "tempo": 120.0
            },
            {
                "start_time": 10.7409091,
                "end_time": 10.8522727,
                "pitch": 67,
                "velocity": 40,
                "duration": 0.1113636,
                "tempo": 120.0
            },
            {
                "start_time": 10.8522727,
                "end_time": 10.9795455,
                "pitch": 67,
                "velocity": 40,
                "duration": 0.1272727,
                "tempo": 120.0
            },
            {
                "start_time": 10.9795455,
                "end_time": 11.1159091,
                "pitch": 71,
                "velocity": 40,
                "duration": 0.1363636,
                "tempo": 120.0
            },
            {
                "start_time": 11.1159091,
                "end_time": 11.2363636,
                "pitch": 71,
                "velocity": 40,
                "duration": 0.1204545,
                "tempo": 120.0
            },
            {
                "start_time": 11.2363636,
                "end_time": 11.3704545,
                "pitch": 71,
                "velocity": 40,
                "duration": 0.1340909,
                "tempo": 120.0
            },
            {
                "start_time": 11.3704545,
                "end_time": 11.5068182,
                "pitch": 74,
                "velocity": 40,
                "duration": 0.1363636,
                "tempo": 120.0
            },
            {
                "start_time": 11.5068182,
                "end_time": 11.625,
                "pitch": 74,
                "velocity": 40,
                "duration": 0.1181818,
                "tempo": 120.0
            },
            {
                "start_time": 11.625,
                "end_time": 11.7568182,
                "pitch": 74,
                "velocity": 40,
                "duration": 0.1318182,
                "tempo": 120.0
            },
            {
                "start_time": 11.7568182,
                "end_time": 11.8909091,
                "pitch": 81,
                "velocity": 40,
                "duration": 0.1340909,
                "tempo": 120.0
            },
            {
                "start_time": 11.8909091,
                "end_time": 12.0090909,
                "pitch": 81,
                "velocity": 40,
                "duration": 0.1181818,
                "tempo": 120.0
            },
            {
                "start_time": 12.0090909,
                "end_time": 12.1386364,
                "pitch": 81,
                "velocity": 40,
                "duration": 0.1295455,
                "tempo": 120.0
            },
            {
                "start_time": 12.1386364,
                "end_time": 12.2704545,
                "pitch": 81,
                "velocity": 40,
                "duration": 0.1318182,
                "tempo": 120.0
            },
            {
                "start_time": 12.2704545,
                "end_time": 15.8636364,
                "pitch": 81,
                "velocity": 40,
                "duration": 3.5931818,
                "tempo": 120.0
            },
            {
                "start_time": 15.8636364,
                "end_time": 15.9772727,
                "pitch": 62,
                "velocity": 40,
                "duration": 0.1136364,
                "tempo": 120.0
            },
            {
                "start_time": 15.9772727,
                "end_time": 16.1068182,
                "pitch": 62,
                "velocity": 40,
                "duration": 0.1295455,
                "tempo": 120.0
            },
            {
                "start_time": 9.8409091,
                "end_time": 16.2409091,
                "pitch": 59,
                "velocity": 40,
                "duration": 6.4,
                "tempo": 120.0
            },
            {
                "start_time": 16.1068182,
                "end_time": 16.2409091,
                "pitch": 61,
                "velocity": 40,
                "duration": 0.1340909,
                "tempo": 120.0
            },
            {
                "start_time": 10.2295455,
                "end_time": 16.375,
                "pitch": 57,
                "velocity": 40,
                "duration": 6.1454545,
                "tempo": 120.0
            },
            {
                "start_time": 16.2409091,
                "end_time": 16.375,
                "pitch": 57,
                "velocity": 40,
                "duration": 0.1340909,
                "tempo": 120.0
            },
            {
                "start_time": 16.375,
                "end_time": 16.475,
                "pitch": 57,
                "velocity": 40,
                "duration": 0.1,
                "tempo": 120.0
            }
        ],
        "Synth Bass 1": [
            {
                "start_time": 12.3840909,
                "end_time": 12.5136364,
                "pitch": 35,
                "velocity": 20,
                "duration": 0.1295455,
                "tempo": 120.0
            },
            {
                "start_time": 12.5136364,
                "end_time": 12.65,
                "pitch": 35,
                "velocity": 20,
                "duration": 0.1363636,
                "tempo": 120.0
            },
            {
                "start_time": 12.65,
                "end_time": 12.7681818,
                "pitch": 47,
                "velocity": 20,
                "duration": 0.1181818,
                "tempo": 120.0
            },
            {
                "start_time": 12.7681818,
                "end_time": 12.9045455,
                "pitch": 35,
                "velocity": 20,
                "duration": 0.1363636,
                "tempo": 120.0
            },
            {
                "start_time": 12.9045455,
                "end_time": 13.0409091,
                "pitch": 35,
                "velocity": 20,
                "duration": 0.1363636,
                "tempo": 120.0
            },
            {
                "start_time": 12.3840909,
                "end_time": 13.1772727,
                "pitch": 33,
                "velocity": 20,
                "duration": 0.7931818,
                "tempo": 120.0
            },
            {
                "start_time": 13.0409091,
                "end_time": 13.1772727,
                "pitch": 45,
                "velocity": 20,
                "duration": 0.1363636,
                "tempo": 120.0
            },
            {
                "start_time": 13.1772727,
                "end_time": 13.2954545,
                "pitch": 35,
                "velocity": 20,
                "duration": 0.1181818,
                "tempo": 120.0
            },
            {
                "start_time": 13.2954545,
                "end_time": 13.4318182,
                "pitch": 35,
                "velocity": 20,
                "duration": 0.1363636,
                "tempo": 120.0
            },
            {
                "start_time": 13.0409091,
                "end_time": 13.5681818,
                "pitch": 47,
                "velocity": 20,
                "duration": 0.5272727,
                "tempo": 120.0
            },
            {
                "start_time": 13.4318182,
                "end_time": 13.5681818,
                "pitch": 47,
                "velocity": 20,
                "duration": 0.1363636,
                "tempo": 120.0
            },
            {
                "start_time": 13.5681818,
                "end_time": 13.6840909,
                "pitch": 35,
                "velocity": 20,
                "duration": 0.1159091,
                "tempo": 120.0
            },
            {
                "start_time": 13.6840909,
                "end_time": 13.8181818,
                "pitch": 35,
                "velocity": 20,
                "duration": 0.1340909,
                "tempo": 120.0
            },
            {
                "start_time": 13.8181818,
                "end_time": 13.9522727,
                "pitch": 45,
                "velocity": 20,
                "duration": 0.1340909,
                "tempo": 120.0
            },
            {
                "start_time": 13.9522727,
                "end_time": 14.0681818,
                "pitch": 35,
                "velocity": 20,
                "duration": 0.1159091,
                "tempo": 120.0
            },
            {
                "start_time": 14.0681818,
                "end_time": 14.2,
                "pitch": 35,
                "velocity": 20,
                "duration": 0.1318182,
                "tempo": 120.0
            },
            {
                "start_time": 13.8181818,
                "end_time": 14.2,
                "pitch": 47,
                "velocity": 20,
                "duration": 0.3818182,
                "tempo": 120.0
            },
            {
                "start_time": 14.2,
                "end_time": 14.3295455,
                "pitch": 44,
                "velocity": 20,
                "duration": 0.1295455,
                "tempo": 120.0
            },
            {
                "start_time": 14.3295455,
                "end_time": 14.4431818,
                "pitch": 35,
                "velocity": 20,
                "duration": 0.1136364,
                "tempo": 120.0
            },
            {
                "start_time": 14.4431818,
                "end_time": 14.575,
                "pitch": 35,
                "velocity": 20,
                "duration": 0.1318182,
                "tempo": 120.0
            },
            {
                "start_time": 14.575,
                "end_time": 14.7068182,
                "pitch": 35,
                "velocity": 20,
                "duration": 0.1318182,
                "tempo": 120.0
            },
            {
                "start_time": 14.2,
                "end_time": 14.825,
                "pitch": 47,
                "velocity": 20,
                "duration": 0.625,
                "tempo": 120.0
            },
            {
                "start_time": 14.7090909,
                "end_time": 14.825,
                "pitch": 47,
                "velocity": 20,
                "duration": 0.1159091,
                "tempo": 120.0
            },
            {
                "start_time": 14.825,
                "end_time": 14.9590909,
                "pitch": 35,
                "velocity": 20,
                "duration": 0.1340909,
                "tempo": 120.0
            },
            {
                "start_time": 14.9590909,
                "end_time": 15.0931818,
                "pitch": 35,
                "velocity": 20,
                "duration": 0.1340909,
                "tempo": 120.0
            },
            {
                "start_time": 15.0931818,
                "end_time": 15.2113636,
                "pitch": 45,
                "velocity": 20,
                "duration": 0.1181818,
                "tempo": 120.0
            },
            {
                "start_time": 15.2113636,
                "end_time": 15.3477273,
                "pitch": 35,
                "velocity": 20,
                "duration": 0.1363636,
                "tempo": 120.0
            },
            {
                "start_time": 15.3477273,
                "end_time": 15.4840909,
                "pitch": 35,
                "velocity": 20,
                "duration": 0.1363636,
                "tempo": 120.0
            },
            {
                "start_time": 15.0931818,
                "end_time": 15.6022727,
                "pitch": 47,
                "velocity": 20,
                "duration": 0.5090909,
                "tempo": 120.0
            },
            {
                "start_time": 15.4840909,
                "end_time": 15.6022727,
                "pitch": 47,
                "velocity": 20,
                "duration": 0.1181818,
                "tempo": 120.0
            },
            {
                "start_time": 15.6022727,
                "end_time": 15.7340909,
                "pitch": 35,
                "velocity": 20,
                "duration": 0.1318182,
                "tempo": 120.0
            }
        ],
        "Electric Guitar (clean)": [
            {
                "start_time": 0.0136364,
                "end_time": 0.1181818,
                "pitch": 35,
                "velocity": 80,
                "duration": 0.1045455,
                "tempo": 120.0
            },
            {
                "start_time": 0.1181818,
                "end_time": 0.2227273,
                "pitch": 35,
                "velocity": 80,
                "duration": 0.1045455,
                "tempo": 120.0
            },
            {
                "start_time": 0.2227273,
                "end_time": 0.3545455,
                "pitch": 47,
                "velocity": 80,
                "duration": 0.1318182,
                "tempo": 120.0
            },
            {
                "start_time": 0.3545455,
                "end_time": 0.4727273,
                "pitch": 35,
                "velocity": 80,
                "duration": 0.1181818,
                "tempo": 120.0
            },
            {
                "start_time": 0.4727273,
                "end_time": 0.6068182,
                "pitch": 35,
                "velocity": 80,
                "duration": 0.1340909,
                "tempo": 120.0
            },
            {
                "start_time": 0.6068182,
                "end_time": 0.7386364,
                "pitch": 45,
                "velocity": 80,
                "duration": 0.1318182,
                "tempo": 120.0
            },
            {
                "start_time": 0.7386364,
                "end_time": 0.8590909,
                "pitch": 35,
                "velocity": 80,
                "duration": 0.1204545,
                "tempo": 120.0
            },
            {
                "start_time": 0.8590909,
                "end_time": 0.9954545,
                "pitch": 35,
                "velocity": 80,
                "duration": 0.1363636,
                "tempo": 120.0
            },
            {
                "start_time": 0.9954545,
                "end_time": 1.1295455,
                "pitch": 47,
                "velocity": 80,
                "duration": 0.1340909,
                "tempo": 120.0
            },
            {
                "start_time": 1.1295455,
                "end_time": 1.25,
                "pitch": 35,
                "velocity": 80,
                "duration": 0.1204545,
                "tempo": 120.0
            },
            {
                "start_time": 1.25,
                "end_time": 1.3795455,
                "pitch": 35,
                "velocity": 80,
                "duration": 0.1295455,
                "tempo": 120.0
            },
            {
                "start_time": 0.7386364,
                "end_time": 1.5113636,
                "pitch": 33,
                "velocity": 80,
                "duration": 0.7727273,
                "tempo": 120.0
            },
            {
                "start_time": 1.3795455,
                "end_time": 1.5113636,
                "pitch": 45,
                "velocity": 80,
                "duration": 0.1318182,
                "tempo": 120.0
            },
            {
                "start_time": 1.5113636,
                "end_time": 1.625,
                "pitch": 35,
                "velocity": 80,
                "duration": 0.1136364,
                "tempo": 120.0
            },
            {
                "start_time": 1.625,
                "end_time": 1.7545455,
                "pitch": 35,
                "velocity": 80,
                "duration": 0.1295455,
                "tempo": 120.0
            },
            {
                "start_time": 1.7545455,
                "end_time": 1.8886364,
                "pitch": 44,
                "velocity": 80,
                "duration": 0.1340909,
                "tempo": 120.0
            },
            {
                "start_time": 1.8886364,
                "end_time": 2.0045455,
                "pitch": 35,
                "velocity": 80,
                "duration": 0.1159091,
                "tempo": 120.0
            },
            {
                "start_time": 2.0045455,
                "end_time": 2.1386364,
                "pitch": 35,
                "velocity": 80,
                "duration": 0.1340909,
                "tempo": 120.0
            },
            {
                "start_time": 2.1386364,
                "end_time": 2.2727273,
                "pitch": 35,
                "velocity": 80,
                "duration": 0.1340909,
                "tempo": 120.0
            },
            {
                "start_time": 1.7545455,
                "end_time": 2.3909091,
                "pitch": 47,
                "velocity": 80,
                "duration": 0.6363636,
                "tempo": 120.0
            },
            {
                "start_time": 2.2727273,
                "end_time": 2.3909091,
                "pitch": 47,
                "velocity": 80,
                "duration": 0.1181818,
                "tempo": 120.0
            },
            {
                "start_time": 2.3909091,
                "end_time": 2.5227273,
                "pitch": 35,
                "velocity": 80,
                "duration": 0.1318182,
                "tempo": 120.0
            },
            {
                "start_time": 2.5227273,
                "end_time": 2.6568182,
                "pitch": 35,
                "velocity": 80,
                "duration": 0.1340909,
                "tempo": 120.0
            },
            {
                "start_time": 1.5113636,
                "end_time": 2.775,
                "pitch": 33,
                "velocity": 80,
                "duration": 1.2636364,
                "tempo": 120.0
            },
            {
                "start_time": 2.6568182,
                "end_time": 2.775,
                "pitch": 45,
                "velocity": 80,
                "duration": 0.1181818,
                "tempo": 120.0
            },
            {
                "start_time": 2.775,
                "end_time": 2.9090909,
                "pitch": 35,
                "velocity": 80,
                "duration": 0.1340909,
                "tempo": 120.0
            },
            {
                "start_time": 2.9090909,
                "end_time": 3.0409091,
                "pitch": 35,
                "velocity": 80,
                "duration": 0.1318182,
                "tempo": 120.0
            },
            {
                "start_time": 3.0409091,
                "end_time": 3.1590909,
                "pitch": 47,
                "velocity": 80,
                "duration": 0.1181818,
                "tempo": 120.0
            },
            {
                "start_time": 3.1590909,
                "end_time": 3.2931818,
                "pitch": 35,
                "velocity": 80,
                "duration": 0.1340909,
                "tempo": 120.0
            },
            {
                "start_time": 3.2931818,
                "end_time": 3.4272727,
                "pitch": 35,
                "velocity": 80,
                "duration": 0.1340909,
                "tempo": 120.0
            },
            {
                "start_time": 3.4272727,
                "end_time": 3.5590909,
                "pitch": 50,
                "velocity": 80,
                "duration": 0.1318182,
                "tempo": 120.0
            },
            {
                "start_time": 3.5590909,
                "end_time": 3.6772727,
                "pitch": 50,
                "velocity": 80,
                "duration": 0.1181818,
                "tempo": 120.0
            },
            {
                "start_time": 3.4272727,
                "end_time": 3.8113636,
                "pitch": 47,
                "velocity": 80,
                "duration": 0.3840909,
                "tempo": 120.0
            },
            {
                "start_time": 3.6772727,
                "end_time": 3.8113636,
                "pitch": 49,
                "velocity": 80,
                "duration": 0.1340909,
                "tempo": 120.0
            },
            {
                "start_time": 2.775,
                "end_time": 3.9431818,
                "pitch": 33,
                "velocity": 80,
                "duration": 1.1681818,
                "tempo": 120.0
            },
            {
                "start_time": 3.8113636,
                "end_time": 3.9431818,
                "pitch": 45,
                "velocity": 80,
                "duration": 0.1318182,
                "tempo": 120.0
            },
            {
                "start_time": 3.9431818,
                "end_time": 4.0613636,
                "pitch": 42,
                "velocity": 80,
                "duration": 0.1181818,
                "tempo": 120.0
            },
            {
                "start_time": 4.0613636,
                "end_time": 4.1954545,
                "pitch": 35,
                "velocity": 80,
                "duration": 0.1340909,
                "tempo": 120.0
            },
            {
                "start_time": 4.1954545,
                "end_time": 4.3295455,
                "pitch": 35,
                "velocity": 80,
                "duration": 0.1340909,
                "tempo": 120.0
            },
            {
                "start_time": 3.8113636,
                "end_time": 4.4477273,
                "pitch": 47,
                "velocity": 80,
                "duration": 0.6363636,
                "tempo": 120.0
            },
            {
                "start_time": 4.3295455,
                "end_time": 4.4477273,
                "pitch": 47,
                "velocity": 80,
                "duration": 0.1181818,
                "tempo": 120.0
            },
            {
                "start_time": 4.4477273,
                "end_time": 4.5840909,
                "pitch": 35,
                "velocity": 80,
                "duration": 0.1363636,
                "tempo": 120.0
            },
            {
                "start_time": 4.5840909,
                "end_time": 4.7204545,
                "pitch": 35,
                "velocity": 80,
                "duration": 0.1363636,
                "tempo": 120.0
            },
            {
                "start_time": 3.9431818,
                "end_time": 4.8386364,
                "pitch": 33,
                "velocity": 80,
                "duration": 0.8954545,
                "tempo": 120.0
            },
            {
                "start_time": 4.7204545,
                "end_time": 4.8386364,
                "pitch": 45,
                "velocity": 80,
                "duration": 0.1181818,
                "tempo": 120.0
            },
            {
                "start_time": 4.8386364,
                "end_time": 4.9681818,
                "pitch": 35,
                "velocity": 80,
                "duration": 0.1295455,
                "tempo": 120.0
            },
            {
                "start_time": 4.9681818,
                "end_time": 5.1,
                "pitch": 35,
                "velocity": 80,
                "duration": 0.1318182,
                "tempo": 120.0
            },
            {
                "start_time": 5.1,
                "end_time": 5.2136364,
                "pitch": 47,
                "velocity": 80,
                "duration": 0.1136364,
                "tempo": 120.0
            },
            {
                "start_time": 5.2136364,
                "end_time": 5.3431818,
                "pitch": 35,
                "velocity": 80,
                "duration": 0.1295455,
                "tempo": 120.0
            },
            {
                "start_time": 5.3431818,
                "end_time": 5.4795455,
                "pitch": 35,
                "velocity": 80,
                "duration": 0.1363636,
                "tempo": 120.0
            },
            {
                "start_time": 4.8386364,
                "end_time": 5.5977273,
                "pitch": 33,
                "velocity": 80,
                "duration": 0.7590909,
                "tempo": 120.0
            },
            {
                "start_time": 5.4795455,
                "end_time": 5.5977273,
                "pitch": 45,
                "velocity": 80,
                "duration": 0.1181818,
                "tempo": 120.0
            },
            {
                "start_time": 5.5977273,
                "end_time": 5.7340909,
                "pitch": 35,
                "velocity": 80,
                "duration": 0.1363636,
                "tempo": 120.0
            },
            {
                "start_time": 5.7340909,
                "end_time": 5.8704545,
                "pitch": 35,
                "velocity": 80,
                "duration": 0.1363636,
                "tempo": 120.0
            },
            {
                "start_time": 5.4795455,
                "end_time": 5.8704545,
                "pitch": 47,
                "velocity": 80,
                "duration": 0.3909091,
                "tempo": 120.0
            },
            {
                "start_time": 5.8704545,
                "end_time": 5.9863636,
                "pitch": 44,
                "velocity": 80,
                "duration": 0.1159091,
                "tempo": 120.0
            },
            {
                "start_time": 5.9886364,
                "end_time": 6.1204545,
                "pitch": 35,
                "velocity": 80,
                "duration": 0.1318182,
                "tempo": 120.0
            },
            {
                "start_time": 6.1204545,
                "end_time": 6.2545455,
                "pitch": 35,
                "velocity": 80,
                "duration": 0.1340909,
                "tempo": 120.0
            },
            {
                "start_time": 6.2545455,
                "end_time": 6.3727273,
                "pitch": 35,
                "velocity": 80,
                "duration": 0.1181818,
                "tempo": 120.0
            },
            {
                "start_time": 5.8704545,
                "end_time": 6.5,
                "pitch": 47,
                "velocity": 80,
                "duration": 0.6295455,
                "tempo": 120.0
            },
            {
                "start_time": 6.3727273,
                "end_time": 6.5,
                "pitch": 47,
                "velocity": 80,
                "duration": 0.1272727,
                "tempo": 120.0
            },
            {
                "start_time": 6.5,
                "end_time": 6.6272727,
                "pitch": 35,
                "velocity": 80,
                "duration": 0.1272727,
                "tempo": 120.0
            },
            {
                "start_time": 6.6272727,
                "end_time": 6.7568182,
                "pitch": 35,
                "velocity": 80,
                "duration": 0.1295455,
                "tempo": 120.0
            },
            {
                "start_time": 5.5977273,
                "end_time": 6.8681818,
                "pitch": 33,
                "velocity": 80,
                "duration": 1.2704545,
                "tempo": 120.0
            },
            {
                "start_time": 6.7568182,
                "end_time": 6.8681818,
                "pitch": 45,
                "velocity": 80,
                "duration": 0.1113636,
                "tempo": 120.0
            },
            {
                "start_time": 6.8681818,
                "end_time": 7.0045455,
                "pitch": 35,
                "velocity": 80,
                "duration": 0.1363636,
                "tempo": 120.0
            },
            {
                "start_time": 7.0045455,
                "end_time": 7.1409091,
                "pitch": 35,
                "velocity": 80,
                "duration": 0.1363636,
                "tempo": 120.0
            },
            {
                "start_time": 7.1409091,
                "end_time": 7.2590909,
                "pitch": 47,
                "velocity": 80,
                "duration": 0.1181818,
                "tempo": 120.0
            },
            {
                "start_time": 7.2590909,
                "end_time": 7.3954545,
                "pitch": 35,
                "velocity": 80,
                "duration": 0.1363636,
                "tempo": 120.0
            },
            {
                "start_time": 7.3954545,
                "end_time": 7.5318182,
                "pitch": 35,
                "velocity": 80,
                "duration": 0.1363636,
                "tempo": 120.0
            },
            {
                "start_time": 7.5318182,
                "end_time": 7.65,
                "pitch": 50,
                "velocity": 80,
                "duration": 0.1181818,
                "tempo": 120.0
            },
            {
                "start_time": 7.65,
                "end_time": 7.7863636,
                "pitch": 50,
                "velocity": 80,
                "duration": 0.1363636,
                "tempo": 120.0
            },
            {
                "start_time": 7.5318182,
                "end_time": 7.9227273,
                "pitch": 47,
                "velocity": 80,
                "duration": 0.3909091,
                "tempo": 120.0
            },
            {
                "start_time": 7.7863636,
                "end_time": 7.9227273,
                "pitch": 49,
                "velocity": 80,
                "duration": 0.1363636,
                "tempo": 120.0
            },
            {
                "start_time": 6.8681818,
                "end_time": 8.0386364,
                "pitch": 33,
                "velocity": 80,
                "duration": 1.1704545,
                "tempo": 120.0
            },
            {
                "start_time": 7.9227273,
                "end_time": 8.0386364,
                "pitch": 45,
                "velocity": 80,
                "duration": 0.1159091,
                "tempo": 120.0
            },
            {
                "start_time": 4.0613636,
                "end_time": 8.1727273,
                "pitch": 42,
                "velocity": 80,
                "duration": 4.1113636,
                "tempo": 120.0
            },
            {
                "start_time": 8.0386364,
                "end_time": 8.1727273,
                "pitch": 42,
                "velocity": 80,
                "duration": 0.1340909,
                "tempo": 120.0
            },
            {
                "start_time": 8.0386364,
                "end_time": 8.3068182,
                "pitch": 33,
                "velocity": 80,
                "duration": 0.2681818,
                "tempo": 120.0
            },
            {
                "start_time": 8.1727273,
                "end_time": 8.3068182,
                "pitch": 33,
                "velocity": 80,
                "duration": 0.1340909,
                "tempo": 120.0
            },
            {
                "start_time": 8.3068182,
                "end_time": 8.425,
                "pitch": 33,
                "velocity": 80,
                "duration": 0.1181818,
                "tempo": 120.0
            },
            {
                "start_time": 8.425,
                "end_time": 8.5545455,
                "pitch": 45,
                "velocity": 80,
                "duration": 0.1295455,
                "tempo": 120.0
            },
            {
                "start_time": 8.5545455,
                "end_time": 8.6840909,
                "pitch": 33,
                "velocity": 80,
                "duration": 0.1295455,
                "tempo": 120.0
            },
            {
                "start_time": 8.6840909,
                "end_time": 8.7977273,
                "pitch": 33,
                "velocity": 80,
                "duration": 0.1136364,
                "tempo": 120.0
            },
            {
                "start_time": 8.7977273,
                "end_time": 8.9295455,
                "pitch": 45,
                "velocity": 80,
                "duration": 0.1318182,
                "tempo": 120.0
            },
            {
                "start_time": 0.0136364,
                "end_time": 9.0636364,
                "pitch": 31,
                "velocity": 80,
                "duration": 9.05,
                "tempo": 120.0
            },
            {
                "start_time": 8.9295455,
                "end_time": 9.0636364,
                "pitch": 31,
                "velocity": 80,
                "duration": 0.1340909,
                "tempo": 120.0
            },
            {
                "start_time": 9.0636364,
                "end_time": 9.1840909,
                "pitch": 33,
                "velocity": 80,
                "duration": 0.1204545,
                "tempo": 120.0
            },
            {
                "start_time": 9.1840909,
                "end_time": 9.3204545,
                "pitch": 45,
                "velocity": 80,
                "duration": 0.1363636,
                "tempo": 120.0
            },
            {
                "start_time": 9.3204545,
                "end_time": 9.4568182,
                "pitch": 33,
                "velocity": 80,
                "duration": 0.1363636,
                "tempo": 120.0
            },
            {
                "start_time": 9.4568182,
                "end_time": 9.5727273,
                "pitch": 33,
                "velocity": 80,
                "duration": 0.1159091,
                "tempo": 120.0
            },
            {
                "start_time": 9.5727273,
                "end_time": 9.7068182,
                "pitch": 45,
                "velocity": 80,
                "duration": 0.1340909,
                "tempo": 120.0
            },
            {
                "start_time": 9.7068182,
                "end_time": 9.8409091,
                "pitch": 31,
                "velocity": 80,
                "duration": 0.1340909,
                "tempo": 120.0
            },
            {
                "start_time": 9.8409091,
                "end_time": 9.975,
                "pitch": 33,
                "velocity": 80,
                "duration": 0.1340909,
                "tempo": 120.0
            },
            {
                "start_time": 8.1727273,
                "end_time": 10.0931818,
                "pitch": 42,
                "velocity": 80,
                "duration": 1.9204545,
                "tempo": 120.0
            },
            {
                "start_time": 9.975,
                "end_time": 10.0931818,
                "pitch": 42,
                "velocity": 80,
                "duration": 0.1181818,
                "tempo": 120.0
            },
            {
                "start_time": 10.0931818,
                "end_time": 10.2295455,
                "pitch": 33,
                "velocity": 80,
                "duration": 0.1363636,
                "tempo": 120.0
            },
            {
                "start_time": 10.2295455,
                "end_time": 10.3636364,
                "pitch": 33,
                "velocity": 80,
                "duration": 0.1340909,
                "tempo": 120.0
            },
            {
                "start_time": 10.3636364,
                "end_time": 10.4840909,
                "pitch": 33,
                "velocity": 80,
                "duration": 0.1204545,
                "tempo": 120.0
            },
            {
                "start_time": 10.4840909,
                "end_time": 10.6113636,
                "pitch": 45,
                "velocity": 80,
                "duration": 0.1272727,
                "tempo": 120.0
            },
            {
                "start_time": 10.6113636,
                "end_time": 10.7409091,
                "pitch": 33,
                "velocity": 80,
                "duration": 0.1295455,
                "tempo": 120.0
            },
            {
                "start_time": 10.7409091,
                "end_time": 10.8522727,
                "pitch": 33,
                "velocity": 80,
                "duration": 0.1113636,
                "tempo": 120.0
            },
            {
                "start_time": 10.8522727,
                "end_time": 10.9818182,
                "pitch": 45,
                "velocity": 80,
                "duration": 0.1295455,
                "tempo": 120.0
            },
            {
                "start_time": 10.9818182,
                "end_time": 11.1159091,
                "pitch": 31,
                "velocity": 80,
                "duration": 0.1340909,
                "tempo": 120.0
            },
            {
                "start_time": 11.1159091,
                "end_time": 11.2363636,
                "pitch": 33,
                "velocity": 80,
                "duration": 0.1204545,
                "tempo": 120.0
            },
            {
                "start_time": 11.2363636,
                "end_time": 11.3704545,
                "pitch": 45,
                "velocity": 80,
                "duration": 0.1340909,
                "tempo": 120.0
            },
            {
                "start_time": 11.3704545,
                "end_time": 11.5068182,
                "pitch": 33,
                "velocity": 80,
                "duration": 0.1363636,
                "tempo": 120.0
            },
            {
                "start_time": 11.5068182,
                "end_time": 11.625,
                "pitch": 33,
                "velocity": 80,
                "duration": 0.1181818,
                "tempo": 120.0
            },
            {
                "start_time": 11.625,
                "end_time": 11.7590909,
                "pitch": 48,
                "velocity": 80,
                "duration": 0.1340909,
                "tempo": 120.0
            },
            {
                "start_time": 11.7590909,
                "end_time": 11.8909091,
                "pitch": 48,
                "velocity": 80,
                "duration": 0.1318182,
                "tempo": 120.0
            },
            {
                "start_time": 11.625,
                "end_time": 12.0090909,
                "pitch": 45,
                "velocity": 80,
                "duration": 0.3840909,
                "tempo": 120.0
            },
            {
                "start_time": 11.8909091,
                "end_time": 12.0090909,
                "pitch": 45,
                "velocity": 80,
                "duration": 0.1181818,
                "tempo": 120.0
            },
            {
                "start_time": 12.0090909,
                "end_time": 12.1386364,
                "pitch": 45,
                "velocity": 80,
                "duration": 0.1295455,
                "tempo": 120.0
            },
            {
                "start_time": 12.1386364,
                "end_time": 12.2704545,
                "pitch": 40,
                "velocity": 80,
                "duration": 0.1318182,
                "tempo": 120.0
            },
            {
                "start_time": 12.2704545,
                "end_time": 12.3840909,
                "pitch": 35,
                "velocity": 80,
                "duration": 0.1136364,
                "tempo": 120.0
            },
            {
                "start_time": 12.3840909,
                "end_time": 12.5136364,
                "pitch": 35,
                "velocity": 80,
                "duration": 0.1295455,
                "tempo": 120.0
            },
            {
                "start_time": 7.9227273,
                "end_time": 12.65,
                "pitch": 47,
                "velocity": 80,
                "duration": 4.7272727,
                "tempo": 120.0
            },
            {
                "start_time": 12.5136364,
                "end_time": 12.65,
                "pitch": 47,
                "velocity": 80,
                "duration": 0.1363636,
                "tempo": 120.0
            },
            {
                "start_time": 12.65,
                "end_time": 12.7681818,
                "pitch": 35,
                "velocity": 80,
                "duration": 0.1181818,
                "tempo": 120.0
            },
            {
                "start_time": 12.7681818,
                "end_time": 12.9045455,
                "pitch": 35,
                "velocity": 80,
                "duration": 0.1363636,
                "tempo": 120.0
            },
            {
                "start_time": 12.9045455,
                "end_time": 13.0409091,
                "pitch": 45,
                "velocity": 80,
                "duration": 0.1363636,
                "tempo": 120.0
            },
            {
                "start_time": 13.0409091,
                "end_time": 13.1772727,
                "pitch": 35,
                "velocity": 80,
                "duration": 0.1363636,
                "tempo": 120.0
            },
            {
                "start_time": 13.1772727,
                "end_time": 13.2954545,
                "pitch": 35,
                "velocity": 80,
                "duration": 0.1181818,
                "tempo": 120.0
            },
            {
                "start_time": 13.2954545,
                "end_time": 13.4318182,
                "pitch": 47,
                "velocity": 80,
                "duration": 0.1363636,
                "tempo": 120.0
            },
            {
                "start_time": 13.4318182,
                "end_time": 13.5681818,
                "pitch": 35,
                "velocity": 80,
                "duration": 0.1363636,
                "tempo": 120.0
            },
            {
                "start_time": 13.5681818,
                "end_time": 13.6840909,
                "pitch": 35,
                "velocity": 80,
                "duration": 0.1159091,
                "tempo": 120.0
            },
            {
                "start_time": 13.0409091,
                "end_time": 13.8181818,
                "pitch": 33,
                "velocity": 80,
                "duration": 0.7772727,
                "tempo": 120.0
            },
            {
                "start_time": 13.6840909,
                "end_time": 13.8181818,
                "pitch": 45,
                "velocity": 80,
                "duration": 0.1340909,
                "tempo": 120.0
            },
            {
                "start_time": 13.8181818,
                "end_time": 13.9522727,
                "pitch": 35,
                "velocity": 80,
                "duration": 0.1340909,
                "tempo": 120.0
            },
            {
                "start_time": 13.9522727,
                "end_time": 14.0681818,
                "pitch": 35,
                "velocity": 80,
                "duration": 0.1159091,
                "tempo": 120.0
            },
            {
                "start_time": 14.0681818,
                "end_time": 14.2,
                "pitch": 44,
                "velocity": 80,
                "duration": 0.1318182,
                "tempo": 120.0
            },
            {
                "start_time": 14.2,
                "end_time": 14.3295455,
                "pitch": 35,
                "velocity": 80,
                "duration": 0.1295455,
                "tempo": 120.0
            },
            {
                "start_time": 14.3295455,
                "end_time": 14.4431818,
                "pitch": 35,
                "velocity": 80,
                "duration": 0.1136364,
                "tempo": 120.0
            },
            {
                "start_time": 14.4431818,
                "end_time": 14.575,
                "pitch": 35,
                "velocity": 80,
                "duration": 0.1318182,
                "tempo": 120.0
            },
            {
                "start_time": 13.6840909,
                "end_time": 14.7090909,
                "pitch": 47,
                "velocity": 80,
                "duration": 1.025,
                "tempo": 120.0
            },
            {
                "start_time": 14.575,
                "end_time": 14.7090909,
                "pitch": 47,
                "velocity": 80,
                "duration": 0.1340909,
                "tempo": 120.0
            },
            {
                "start_time": 14.7090909,
                "end_time": 14.825,
                "pitch": 35,
                "velocity": 80,
                "duration": 0.1159091,
                "tempo": 120.0
            },
            {
                "start_time": 14.825,
                "end_time": 14.9590909,
                "pitch": 35,
                "velocity": 80,
                "duration": 0.1340909,
                "tempo": 120.0
            },
            {
                "start_time": 14.9590909,
                "end_time": 15.0931818,
                "pitch": 45,
                "velocity": 80,
                "duration": 0.1340909,
                "tempo": 120.0
            },
            {
                "start_time": 15.0931818,
                "end_time": 15.2113636,
                "pitch": 35,
                "velocity": 80,
                "duration": 0.1181818,
                "tempo": 120.0
            },
            {
                "start_time": 15.2113636,
                "end_time": 15.3477273,
                "pitch": 35,
                "velocity": 80,
                "duration": 0.1363636,
                "tempo": 120.0
            },
            {
                "start_time": 14.9590909,
                "end_time": 15.4840909,
                "pitch": 47,
                "velocity": 80,
                "duration": 0.525,
                "tempo": 120.0
            },
            {
                "start_time": 15.3477273,
                "end_time": 15.4840909,
                "pitch": 47,
                "velocity": 80,
                "duration": 0.1363636,
                "tempo": 120.0
            },
            {
                "start_time": 15.4840909,
                "end_time": 15.6022727,
                "pitch": 35,
                "velocity": 80,
                "duration": 0.1181818,
                "tempo": 120.0
            },
            {
                "start_time": 15.6022727,
                "end_time": 15.7340909,
                "pitch": 35,
                "velocity": 80,
                "duration": 0.1318182,
                "tempo": 120.0
            },
            {
                "start_time": 15.7340909,
                "end_time": 15.8636364,
                "pitch": 50,
                "velocity": 80,
                "duration": 0.1295455,
                "tempo": 120.0
            },
            {
                "start_time": 15.8636364,
                "end_time": 15.9772727,
                "pitch": 50,
                "velocity": 80,
                "duration": 0.1136364,
                "tempo": 120.0
            },
            {
                "start_time": 15.7340909,
                "end_time": 16.1090909,
                "pitch": 47,
                "velocity": 80,
                "duration": 0.375,
                "tempo": 120.0
            },
            {
                "start_time": 15.9772727,
                "end_time": 16.1090909,
                "pitch": 49,
                "velocity": 80,
                "duration": 0.1318182,
                "tempo": 120.0
            },
            {
                "start_time": 13.8181818,
                "end_time": 16.2409091,
                "pitch": 33,
                "velocity": 80,
                "duration": 2.4227273,
                "tempo": 120.0
            },
            {
                "start_time": 16.1090909,
                "end_time": 16.2409091,
                "pitch": 45,
                "velocity": 80,
                "duration": 0.1318182,
                "tempo": 120.0
            },
            {
                "start_time": 10.0931818,
                "end_time": 16.375,
                "pitch": 42,
                "velocity": 80,
                "duration": 6.2818182,
                "tempo": 120.0
            },
            {
                "start_time": 16.2409091,
                "end_time": 16.375,
                "pitch": 42,
                "velocity": 80,
                "duration": 0.1340909,
                "tempo": 120.0
            },
            {
                "start_time": 16.375,
                "end_time": 16.475,
                "pitch": 35,
                "velocity": 80,
                "duration": 0.1,
                "tempo": 120.0
            }
        ]
    }
}