{
    "mood": "angry",
    "instruments": {
        "Vibraphone": [
            {
                "start_time": 0.525,
                "end_time": 1.5295455,
                "pitch": 72,
                "velocity": 16,
                "duration": 1.0045455,
                "tempo": 120.0
            },
            {
                "start_time": 1.5318182,
                "end_time": 1.7318182,
                "pitch": 79,
                "velocity": 16,
                "duration": 0.2,
                "tempo": 120.0
            },
            {
                "start_time": 1.7318182,
                "end_time": 1.9181818,
                "pitch": 79,
                "velocity": 16,
                "duration": 0.1863636,
                "tempo": 120.0
            },
            {
                "start_time": 1.9181818,
                "end_time": 2.2068182,
                "pitch": 79,
                "velocity": 16,
                "duration": 0.2886364,
                "tempo": 120.0
            },
            {
                "start_time": 1.7318182,
                "end_time": 2.2068182,
                "pitch": 91,
                "velocity": 16,
                "duration": 0.475,
                "tempo": 120.0
            },
            {
                "start_time": 1.9181818,
                "end_time": 2.3954545,
                "pitch": 0,
                "velocity": 16,
                "duration": 0.4772727,
                "tempo": 120.0
            },
            {
                "start_time": 2.2068182,
                "end_time": 2.3954545,
                "pitch": 79,
                "velocity": 16,
                "duration": 0.1886364,
                "tempo": 120.0
            },
            {
                "start_time": 2.3954545,
                "end_time": 2.5477273,
                "pitch": 79,
                "velocity": 16,
                "duration": 0.1522727,
                "tempo": 120.0
            },
            {
                "start_time": 2.5477273,
                "end_time": 3.5590909,
                "pitch": 72,
                "velocity": 20,
                "duration": 1.0113636,
                "tempo": 120.0
            },
            {
                "start_time": 3.5590909,
                "end_time": 3.6272727,
                "pitch": 79,
                "velocity": 20,
                "duration": 0.0681818,
                "tempo": 120.0
            },
            {
                "start_time": 2.2068182,
                "end_time": 3.6272727,
                "pitch": 91,
                "velocity": 16,
                "duration": 1.4204545,
                "tempo": 120.0
            },
            {
                "start_time": 2.3954545,
                "end_time": 3.8113636,
                "pitch": 0,
                "velocity": 16,
                "duration": 1.4159091,
                "tempo": 120.0
            },
            {
                "start_time": 3.6272727,
                "end_time": 3.8113636,
                "pitch": 79,
                "velocity": 20,
                "duration": 0.1840909,
                "tempo": 120.0
            },
            {
                "start_time": 3.8113636,
                "end_time": 4.0954545,
                "pitch": 79,
                "velocity": 20,
                "duration": 0.2840909,
                "tempo": 120.0
            },
            {
                "start_time": 3.6272727,
                "end_time": 4.0954545,
                "pitch": 91,
                "velocity": 20,
                "duration": 0.4681818,
                "tempo": 120.0
            },
            {
                "start_time": 3.8113636,
                "end_time": 4.2795455,
                "pitch": 0,
                "velocity": 20,
                "duration": 0.4681818,
                "tempo": 120.0
            },
            {
                "start_time": 4.0954545,
                "end_time": 4.2795455,
                "pitch": 79,
                "velocity": 20,
                "duration": 0.1840909,
                "tempo": 120.0
            },
            {
                "start_time": 4.2795455,
                "end_time": 4.5659091,
                "pitch": 79,
                "velocity": 20,
                "duration": 0.2863636,
                "tempo": 120.0
            },
            {
                "start_time": 4.0954545,
                "end_time": 4.5659091,
                "pitch": 91,
                "velocity": 20,
                "duration": 0.4704545,
                "tempo": 120.0
            },
            {
                "start_time": 4.5659091,
                "end_time": 5.5704545,
                "pitch": 72,
                "velocity": 25,
                "duration": 1.0045455,
                "tempo": 120.0
            },
            {
                "start_time": 4.5659091,
                "end_time": 5.5704545,
                "pitch": 79,
                "velocity": 20,
                "duration": 1.0045455,
                "tempo": 120.0
            },
            {
                "start_time": 4.5659091,
                "end_time": 5.5704545,
                "pitch": 91,
                "velocity": 20,
                "duration": 1.0045455,
                "tempo": 120.0
            },
            {
                "start_time": 4.2795455,
                "end_time": 5.6863636,
                "pitch": 0,
                "velocity": 20,
                "duration": 1.4068182,
                "tempo": 120.0
            },
            {
                "start_time": 5.5704545,
                "end_time": 5.6863636,
                "pitch": 79,
                "velocity": 25,
                "duration": 0.1159091,
                "tempo": 120.0
            },
            {
                "start_time": 5.5704545,
                "end_time": 5.6863636,
                "pitch": 79,
                "velocity": 25,
                "duration": 0.1159091,
                "tempo": 120.0
            },
            {
                "start_time": 5.6863636,
                "end_time": 5.9704545,
                "pitch": 79,
                "velocity": 25,
                "duration": 0.2840909,
                "tempo": 120.0
            },
            {
                "start_time": 5.5704545,
                "end_time": 5.9704545,
                "pitch": 91,
                "velocity": 25,
                "duration": 0.4,
                "tempo": 120.0
            },
            {
                "start_time": 5.6863636,
                "end_time": 6.1545455,
                "pitch": 0,
                "velocity": 25,
                "duration": 0.4681818,
                "tempo": 120.0
            },
            {
                "start_time": 5.9704545,
                "end_time": 6.1545455,
                "pitch": 79,
                "velocity": 25,
                "duration": 0.1840909,
                "tempo": 120.0
            },
            {
                "start_time": 6.1545455,
                "end_time": 6.4409091,
                "pitch": 79,
                "velocity": 25,
                "duration": 0.2863636,
                "tempo": 120.0
            },
            {
                "start_time": 5.9704545,
                "end_time": 6.4409091,
                "pitch": 91,
                "velocity": 25,
                "duration": 0.4704545,
                "tempo": 120.0
            },
            {
                "start_time": 6.4409091,
                "end_time": 6.575,
                "pitch": 79,
                "velocity": 25,
                "duration": 0.1340909,
                "tempo": 120.0
            },
            {
                "start_time": 6.5772727,
                "end_time": 7.5818182,
                "pitch": 72,
                "velocity": 32,
                "duration": 1.0045455,
                "tempo": 120.0
            },
            {
                "start_time": 7.5818182,
                "end_time": 7.85,
                "pitch": 79,
                "velocity": 32,
                "duration": 0.2681818,
                "tempo": 120.0
            },
            {
                "start_time": 6.4409091,
                "end_time": 7.85,
                "pitch": 91,
                "velocity": 25,
                "duration": 1.4090909,
                "tempo": 120.0
            },
            {
                "start_time": 6.1545455,
                "end_time": 8.0363636,
                "pitch": 0,
                "velocity": 25,
                "duration": 1.8818182,
                "tempo": 120.0
            },
            {
                "start_time": 7.85,
                "end_time": 8.0363636,
                "pitch": 79,
                "velocity": 32,
                "duration": 0.1863636,
                "tempo": 120.0
            },
            {
                "start_time": 8.0363636,
                "end_time": 8.3181818,
                "pitch": 79,
                "velocity": 32,
                "duration": 0.2818182,
                "tempo": 120.0
            },
            {
                "start_time": 7.85,
                "end_time": 8.3181818,
                "pitch": 91,
                "velocity": 32,
                "duration": 0.4681818,
                "tempo": 120.0
            },
            {
                "start_time": 8.0363636,
                "end_time": 8.5022727,
                "pitch": 0,
                "velocity": 32,
                "duration": 0.4659091,
                "tempo": 120.0
            },
            {
                "start_time": 8.3181818,
                "end_time": 8.5022727,
                "pitch": 79,
                "velocity": 32,
                "duration": 0.1840909,
                "tempo": 120.0
            },
            {
                "start_time": 8.5022727,
                "end_time": 8.5863636,
                "pitch": 79,
                "velocity": 32,
                "duration": 0.0840909,
                "tempo": 120.0
            },
            {
                "start_time": 8.5863636,
                "end_time": 9.6022727,
                "pitch": 72,
                "velocity": 32,
                "duration": 1.0159091,
                "tempo": 120.0
            },
            {
                "start_time": 9.6022727,
                "end_time": 9.7386364,
                "pitch": 79,
                "velocity": 32,
                "duration": 0.1363636,
                "tempo": 120.0
            },
            {
                "start_time": 8.3181818,
                "end_time": 9.7386364,
                "pitch": 91,
                "velocity": 32,
                "duration": 1.4204545,
                "tempo": 120.0
            },
            {
                "start_time": 8.5022727,
                "end_time": 9.9227273,
                "pitch": 0,
                "velocity": 32,
                "duration": 1.4204545,
                "tempo": 120.0
            },
            {
                "start_time": 9.7386364,
                "end_time": 9.9227273,
                "pitch": 79,
                "velocity": 32,
                "duration": 0.1840909,
                "tempo": 120.0
            },
            {
                "start_time": 9.9227273,
                "end_time": 10.2068182,
                "pitch": 79,
                "velocity": 32,
                "duration": 0.2840909,
                "tempo": 120.0
            },
            {
                "start_time": 9.7386364,
                "end_time": 10.2068182,
                "pitch": 91,
                "velocity": 32,
                "duration": 0.4681818,
                "tempo": 120.0
            },
            {
                "start_time": 9.9227273,
                "end_time": 10.3909091,
                "pitch": 0,
                "velocity": 32,
                "duration": 0.4681818,
                "tempo": 120.0
            },
            {
                "start_time": 10.2068182,
                "end_time": 10.3909091,
                "pitch": 79,
                "velocity": 32,
                "duration": 0.1840909,
                "tempo": 120.0
            },
            {
                "start_time": 10.3909091,
                "end_time": 10.6068182,
                "pitch": 79,
                "velocity": 32,
                "duration": 0.2159091,
                "tempo": 120.0
            },
            {
                "start_time": 10.6068182,
                "end_time": 11.6113636,
                "pitch": 72,
                "velocity": 32,
                "duration": 1.0045455,
                "tempo": 120.0
            },
            {
                "start_time": 10.2068182,
                "end_time": 11.6113636,
                "pitch": 91,
                "velocity": 32,
                "duration": 1.4045455,
                "tempo": 120.0
            },
            {
                "start_time": 10.3909091,
                "end_time": 11.7863636,
                "pitch": 0,
                "velocity": 32,
                "duration": 1.3954545,
                "tempo": 120.0
            },
            {
                "start_time": 11.6113636,
                "end_time": 11.7863636,
                "pitch": 79,
                "velocity": 32,
                "duration": 0.175,
                "tempo": 120.0
            },
            {
                "start_time": 11.6113636,
                "end_time": 11.7863636,
                "pitch": 79,
                "velocity": 32,
                "duration": 0.175,
                "tempo": 120.0
            },
            {
                "start_time": 11.7863636,
                "end_time": 12.0568182,
                "pitch": 79,
                "velocity": 32,
                "duration": 0.2704545,
                "tempo": 120.0
            },
            {
                "start_time": 11.6113636,
                "end_time": 12.0568182,
                "pitch": 91,
                "velocity": 32,
                "duration": 0.4454545,
                "tempo": 120.0
            },
            {
                "start_time": 11.7863636,
                "end_time": 12.2386364,
                "pitch": 0,
                "velocity": 32,
                "duration": 0.4522727,
                "tempo": 120.0
            },
            {
                "start_time": 12.0568182,
                "end_time": 12.2386364,
                "pitch": 79,
                "velocity": 32,
                "duration": 0.1818182,
                "tempo": 120.0
            },
            {
                "start_time": 12.2386364,
                "end_time": 12.5431818,
                "pitch": 79,
                "velocity": 32,
                "duration": 0.3045455,
                "tempo": 120.0
            },
            {
                "start_time": 12.0568182,
                "end_time": 12.5431818,
                "pitch": 91,
                "velocity": 32,
                "duration": 0.4863636,
                "tempo": 120.0
            },
            {
                "start_time": 12.5431818,
                "end_time": 12.6159091,
                "pitch": 79,
                "velocity": 32,
                "duration": 0.0727273,
                "tempo": 120.0
            },
            {
                "start_time": 12.6159091,
                "end_time": 13.6295455,
                "pitch": 72,
                "velocity": 32,
                "duration": 1.0136364,
                "tempo": 120.0
            },
            {
                "start_time": 12.5431818,
                "end_time": 13.6295455,
                "pitch": 91,
                "velocity": 32,
                "duration": 1.0863636,
                "tempo": 120.0
            },
            {
                "start_time": 12.2386364,
                "end_time": 13.6795455,
                "pitch": 0,
                "velocity": 32,
                "duration": 1.4409091,
                "tempo": 120.0
            },
            {
                "start_time": 13.6295455,
                "end_time": 13.6795455,
                "pitch": 79,
                "velocity": 32,
                "duration": 0.05,
                "tempo": 120.0
            },
            {
                "start_time": 13.6295455,
                "end_time": 13.6795455,
                "pitch": 79,
                "velocity": 32,
                "duration": 0.05,
                "tempo": 120.0
            },
            {
                "start_time": 13.6795455,
                "end_time": 13.9590909,
                "pitch": 79,
                "velocity": 32,
                "duration": 0.2795455,
                "tempo": 120.0
            },
            {
                "start_time": 13.6295455,
                "end_time": 13.9590909,
                "pitch": 91,
                "velocity": 32,
                "duration": 0.3295455,
                "tempo": 120.0
            },
            {
                "start_time": 13.6795455,
                "end_time": 14.1431818,
                "pitch": 0,
                "velocity": 32,
                "duration": 0.4636364,
                "tempo": 120.0
            },
            {
                "start_time": 13.9590909,
                "end_time": 14.1431818,
                "pitch": 79,
                "velocity": 32,
                "duration": 0.1840909,
                "tempo": 120.0
            },
            {
                "start_time": 14.1431818,
                "end_time": 14.4295455,
                "pitch": 79,
                "velocity": 32,
                "duration": 0.2863636,
                "tempo": 120.0
            },
            {
                "start_time": 13.9590909,
                "end_time": 14.4295455,
                "pitch": 91,
                "velocity": 32,
                "duration": 0.4704545,
                "tempo": 120.0
            },
            {
                "start_time": 14.1431818,
                "end_time": 14.6159091,
                "pitch": 0,
                "velocity": 32,
                "duration": 0.4727273,
                "tempo": 120.0
            },
            {
                "start_time": 14.4295455,
                "end_time": 14.6159091,
                "pitch": 79,
                "velocity": 32,
                "duration": 0.1863636,
                "tempo": 120.0
            },
            {
                "start_time": 14.6159091,
                "end_time": 14.6340909,
                "pitch": 79,
                "velocity": 32,
                "duration": 0.0181818,
                "tempo": 120.0
            },
            {
                "start_time": 14.6340909,
                "end_time": 15.6454545,
                "pitch": 72,
                "velocity": 32,
                "duration": 1.0113636,
                "tempo": 120.0
            },
            {
                "start_time": 15.6454545,
                "end_time": 15.8409091,
                "pitch": 79,
                "velocity": 32,
                "duration": 0.1954545,
                "tempo": 120.0
            },
            {
                "start_time": 14.4295455,
                "end_time": 15.8409091,
                "pitch": 91,
                "velocity": 32,
                "duration": 1.4113636,
                "tempo": 120.0
            },
            {
                "start_time": 14.6159091,
                "end_time": 16.025,
                "pitch": 0,
                "velocity": 32,
                "duration": 1.4090909,
                "tempo": 120.0
            },
            {
                "start_time": 15.8409091,
                "end_time": 16.025,
                "pitch": 79,
                "velocity": 32,
                "duration": 0.1840909,
                "tempo": 120.0
            },
            {
                "start_time": 16.025,
                "end_time": 16.3090909,
                "pitch": 79,
                "velocity": 32,
                "duration": 0.2840909,
                "tempo": 120.0
            },
            {
                "start_time": 15.8409091,
                "end_time": 16.3090909,
                "pitch": 91,
                "velocity": 32,
                "duration": 0.4681818,
                "tempo": 120.0
            },
            {
                "start_time": 16.025,
                "end_time": 16.4931818,
                "pitch": 0,
                "velocity": 32,
                "duration": 0.4681818,
                "tempo": 120.0
            },
            {
                "start_time": 16.3090909,
                "end_time": 16.4931818,
                "pitch": 79,
                "velocity": 32,
                "duration": 0.1840909,
                "tempo": 120.0
            },
            {
                "start_time": 16.4931818,
                "end_time": 16.6454545,
                "pitch": 79,
                "velocity": 32,
                "duration": 0.1522727,
                "tempo": 120.0
            },
            {
                "start_time": 16.6477273,
                "end_time": 17.65,
                "pitch": 72,
                "velocity": 32,
                "duration": 1.0022727,
                "tempo": 120.0
            },
            {
                "start_time": 17.65,
                "end_time": 17.7181818,
                "pitch": 79,
                "velocity": 32,
                "duration": 0.0681818,
                "tempo": 120.0
            },
            {
                "start_time": 16.3090909,
                "end_time": 17.7181818,
                "pitch": 91,
                "velocity": 32,
                "duration": 1.4090909,
                "tempo": 120.0
            },
            {
                "start_time": 16.4931818,
                "end_time": 17.9045455,
                "pitch": 0,
                "velocity": 32,
                "duration": 1.4113636,
                "tempo": 120.0
            },
            {
                "start_time": 17.7181818,
                "end_time": 17.9045455,
                "pitch": 79,
                "velocity": 32,
                "duration": 0.1863636,
                "tempo": 120.0
            },
            {
                "start_time": 17.9045455,
                "end_time": 18.1954545,
                "pitch": 79,
                "velocity": 32,
                "duration": 0.2909091,
                "tempo": 120.0
            },
            {
                "start_time": 17.7181818,
                "end_time": 18.1954545,
                "pitch": 91,
                "velocity": 32,
                "duration": 0.4772727,
                "tempo": 120.0
            },
            {
                "start_time": 17.9045455,
                "end_time": 18.3795455,
                "pitch": 0,
                "velocity": 32,
                "duration": 0.475,
                "tempo": 120.0
            },
            {
                "start_time": 18.1954545,
                "end_time": 18.3795455,
                "pitch": 79,
                "velocity": 32,
                "duration": 0.1840909,
                "tempo": 120.0
            },
            {
                "start_time": 18.3795455,
                "end_time": 18.6681818,
                "pitch": 79,
                "velocity": 32,
                "duration": 0.2886364,
                "tempo": 120.0
            },
            {
                "start_time": 18.1954545,
                "end_time": 18.6681818,
                "pitch": 91,
                "velocity": 32,
                "duration": 0.4727273,
                "tempo": 120.0
            },
            {
                "start_time": 18.6681818,
                "end_time": 19.675,
                "pitch": 72,
                "velocity": 32,
                "duration": 1.0068182,
                "tempo": 120.0
            },
            {
                "start_time": 18.6681818,
                "end_time": 19.675,
                "pitch": 79,
                "velocity": 32,
                "duration": 1.0068182,
                "tempo": 120.0
            },
            {
                "start_time": 18.6681818,
                "end_time": 19.675,
                "pitch": 91,
                "velocity": 32,
                "duration": 1.0068182,
                "tempo": 120.0
            },
            {
                "start_time": 18.3795455,
                "end_time": 19.7886364,
                "pitch": 0,
                "velocity": 32,
                "duration": 1.4090909,
                "tempo": 120.0
            },
            {
                "start_time": 19.675,
                "end_time": 19.7886364,
                "pitch": 79,
                "velocity": 32,
                "duration": 0.1136364,
                "tempo": 120.0
            },
            {
                "start_time": 19.675,
                "end_time": 19.7886364,
                "pitch": 79,
                "velocity": 32,
                "duration": 0.1136364,
                "tempo": 120.0
            },
            {
                "start_time": 19.7886364,
                "end_time": 20.0704545,
                "pitch": 79,
                "velocity": 32,
                "duration": 0.2818182,
                "tempo": 120.0
            },
            {
                "start_time": 19.675,
                "end_time": 20.0704545,
                "pitch": 91,
                "velocity": 32,
                "duration": 0.3954545,
                "tempo": 120.0
            },
            {
                "start_time": 19.7886364,
                "end_time": 20.2545455,
                "pitch": 0,
                "velocity": 32,
                "duration": 0.4659091,
                "tempo": 120.0
            },
            {
                "start_time": 20.0704545,
                "end_time": 20.2545455,
                "pitch": 79,
                "velocity": 32,
                "duration": 0.1840909,
                "tempo": 120.0
            },
            {
                "start_time": 20.2545455,
                "end_time": 20.5386364,
                "pitch": 79,
                "velocity": 32,
                "duration": 0.2840909,
                "tempo": 120.0
            },
            {
                "start_time": 20.0704545,
                "end_time": 20.5386364,
                "pitch": 91,
                "velocity": 32,
                "duration": 0.4681818,
                "tempo": 120.0
            },
            {
                "start_time": 20.5386364,
                "end_time": 20.6727273,
                "pitch": 79,
                "velocity": 32,
                "duration": 0.1340909,
                "tempo": 120.0
            },
            {
                "start_time": 20.6727273,
                "end_time": 21.6886364,
                "pitch": 72,
                "velocity": 32,
                "duration": 1.0159091,
                "tempo": 120.0
            },
            {
                "start_time": 21.6909091,
                "end_time": 21.9590909,
                "pitch": 79,
                "velocity": 32,
                "duration": 0.2681818,
                "tempo": 120.0
            },
            {
                "start_time": 20.5386364,
                "end_time": 21.9590909,
                "pitch": 91,
                "velocity": 32,
                "duration": 1.4204545,
                "tempo": 120.0
            },
            {
                "start_time": 20.2545455,
                "end_time": 22.1454545,
                "pitch": 0,
                "velocity": 32,
                "duration": 1.8909091,
                "tempo": 120.0
            },
            {
                "start_time": 21.9590909,
                "end_time": 22.1454545,
                "pitch": 79,
                "velocity": 32,
                "duration": 0.1863636,
                "tempo": 120.0
            },
            {
                "start_time": 22.1454545,
                "end_time": 22.4318182,
                "pitch": 79,
                "velocity": 32,
                "duration": 0.2863636,
                "tempo": 120.0
            },
            {
                "start_time": 21.9590909,
                "end_time": 22.4318182,
                "pitch": 91,
                "velocity": 32,
                "duration": 0.4727273,
                "tempo": 120.0
            },
            {
                "start_time": 22.1454545,
                "end_time": 22.6159091,
                "pitch": 0,
                "velocity": 32,
                "duration": 0.4704545,
                "tempo": 120.0
            },
            {
                "start_time": 22.4318182,
                "end_time": 22.6159091,
                "pitch": 79,
                "velocity": 32,
                "duration": 0.1840909,
                "tempo": 120.0
            },
            {
                "start_time": 22.6159091,
                "end_time": 22.6977273,
                "pitch": 79,
                "velocity": 32,
                "duration": 0.0818182,
                "tempo": 120.0
            },
            {
                "start_time": 22.7,
                "end_time": 23.7068182,
                "pitch": 72,
                "velocity": 32,
                "duration": 1.0068182,
                "tempo": 120.0
            },
            {
                "start_time": 23.7068182,
                "end_time": 23.8386364,
                "pitch": 79,
                "velocity": 32,
                "duration": 0.1318182,
                "tempo": 120.0
            },
            {
                "start_time": 22.4318182,
                "end_time": 23.8386364,
                "pitch": 91,
                "velocity": 32,
                "duration": 1.4068182,
                "tempo": 120.0
            },
            {
                "start_time": 22.6159091,
                "end_time": 24.0227273,
                "pitch": 0,
                "velocity": 32,
                "duration": 1.4068182,
                "tempo": 120.0
            },
            {
                "start_time": 23.8386364,
                "end_time": 24.0227273,
                "pitch": 79,
                "velocity": 32,
                "duration": 0.1840909,
                "tempo": 120.0
            },
            {
                "start_time": 24.0227273,
                "end_time": 24.3068182,
                "pitch": 79,
                "velocity": 32,
                "duration": 0.2840909,
                "tempo": 120.0
            },
            {
                "start_time": 23.8386364,
                "end_time": 24.3068182,
                "pitch": 91,
                "velocity": 32,
                "duration": 0.4681818,
                "tempo": 120.0
            },
            {
                "start_time": 24.0227273,
                "end_time": 24.4954545,
                "pitch": 0,
                "velocity": 32,
                "duration": 0.4727273,
                "tempo": 120.0
            },
            {
                "start_time": 24.3068182,
                "end_time": 24.4954545,
                "pitch": 79,
                "velocity": 32,
                "duration": 0.1886364,
                "tempo": 120.0
            },
            {
                "start_time": 24.4954545,
                "end_time": 24.7159091,
                "pitch": 79,
                "velocity": 32,
                "duration": 0.2204545,
                "tempo": 120.0
            },
            {
                "start_time": 24.7159091,
                "end_time": 25.7090909,
                "pitch": 72,
                "velocity": 32,
                "duration": 0.9931818,
                "tempo": 120.0
            },
            {
                "start_time": 24.3068182,
                "end_time": 25.7090909,
                "pitch": 91,
                "velocity": 32,
                "duration": 1.4022727,
                "tempo": 120.0
            },
            {
                "start_time": 24.4954545,
                "end_time": 25.8840909,
                "pitch": 0,
                "velocity": 32,
                "duration": 1.3886364,
                "tempo": 120.0
            },
            {
                "start_time": 25.7090909,
                "end_time": 25.8840909,
                "pitch": 79,
                "velocity": 32,
                "duration": 0.175,
                "tempo": 120.0
            },
            {
                "start_time": 25.7090909,
                "end_time": 25.8840909,
                "pitch": 79,
                "velocity": 32,
                "duration": 0.175,
                "tempo": 120.0
            },
            {
                "start_time": 25.8840909,
                "end_time": 26.1613636,
                "pitch": 79,
                "velocity": 32,
                "duration": 0.2772727,
                "tempo": 120.0
            },
            {
                "start_time": 25.7090909,
                "end_time": 26.1613636,
                "pitch": 91,
                "velocity": 32,
                "duration": 0.4522727,
                "tempo": 120.0
            },
            {
                "start_time": 25.8840909,
                "end_time": 26.3545455,
                "pitch": 0,
                "velocity": 32,
                "duration": 0.4704545,
                "tempo": 120.0
            },
            {
                "start_time": 26.1613636,
                "end_time": 26.3545455,
                "pitch": 79,
                "velocity": 32,
                "duration": 0.1931818,
                "tempo": 120.0
            },
            {
                "start_time": 26.3545455,
                "end_time": 26.65,
                "pitch": 79,
                "velocity": 32,
                "duration": 0.2954545,
                "tempo": 120.0
            },
            {
                "start_time": 26.1613636,
                "end_time": 26.65,
                "pitch": 91,
                "velocity": 32,
                "duration": 0.4886364,
                "tempo": 120.0
            },
            {
                "start_time": 26.65,
                "end_time": 26.7113636,
                "pitch": 79,
                "velocity": 32,
                "duration": 0.0613636,
                "tempo": 120.0
            },
            {
                "start_time": 26.7113636,
                "end_time": 27.6818182,
                "pitch": 72,
                "velocity": 32,
                "duration": 0.9704545,
                "tempo": 120.0
            },
            {
                "start_time": 26.65,
                "end_time": 27.6840909,
                "pitch": 91,
                "velocity": 32,
                "duration": 1.0340909,
                "tempo": 120.0
            },
            {
                "start_time": 26.3545455,
                "end_time": 27.7340909,
                "pitch": 0,
                "velocity": 32,
                "duration": 1.3795455,
                "tempo": 120.0
            },
            {
                "start_time": 27.6840909,
                "end_time": 27.7340909,
                "pitch": 79,
                "velocity": 32,
                "duration": 0.05,
                "tempo": 120.0
            },
            {
                "start_time": 27.6840909,
                "end_time": 27.7340909,
                "pitch": 79,
                "velocity": 32,
                "duration": 0.05,
                "tempo": 120.0
            },
            {
                "start_time": 27.7340909,
                "end_time": 28.025,
                "pitch": 79,
                "velocity": 32,
                "duration": 0.2909091,
                "tempo": 120.0
            },
            {
                "start_time": 27.6840909,
                "end_time": 28.025,
                "pitch": 91,
                "velocity": 32,
                "duration": 0.3409091,
                "tempo": 120.0
            },
            {
                "start_time": 27.7340909,
                "end_time": 28.2159091,
                "pitch": 0,
                "velocity": 32,
                "duration": 0.4818182,
                "tempo": 120.0
            },
            {
                "start_time": 28.025,
                "end_time": 28.2159091,
                "pitch": 79,
                "velocity": 32,
                "duration": 0.1909091,
                "tempo": 120.0
            },
            {
                "start_time": 28.2159091,
                "end_time": 28.5090909,
                "pitch": 79,
                "velocity": 32,
                "duration": 0.2931818,
                "tempo": 120.0
            },
            {
                "start_time": 28.025,
                "end_time": 28.5113636,
                "pitch": 91,
                "velocity": 32,
                "duration": 0.4863636,
                "tempo": 120.0
            },
            {
                "start_time": 28.5090909,
                "end_time": 28.5113636,
                "pitch": 91,
                "velocity": 32,
                "duration": 0.0022727,
                "tempo": 120.0
            },
            {
                "start_time": 28.2159091,
                "end_time": 28.6931818,
                "pitch": 0,
                "velocity": 32,
                "duration": 0.4772727,
                "tempo": 120.0
            },
            {
                "start_time": 28.5113636,
                "end_time": 28.6931818,
                "pitch": 79,
                "velocity": 32,
                "duration": 0.1818182,
                "tempo": 120.0
            },
            {
                "start_time": 28.6931818,
                "end_time": 28.7113636,
                "pitch": 79,
                "velocity": 32,
                "duration": 0.0181818,
                "tempo": 120.0
            },
            {
                "start_time": 28.7113636,
                "end_time": 29.7431818,
                "pitch": 72,
                "velocity": 32,
                "duration": 1.0318182,
                "tempo": 120.0
            },
            {
                "start_time": 29.7431818,
                "end_time": 29.9454545,
                "pitch": 79,
                "velocity": 32,
                "duration": 0.2022727,
                "tempo": 120.0
            },
            {
                "start_time": 28.6931818,
                "end_time": 30.1318182,
                "pitch": 0,
                "velocity": 32,
                "duration": 1.4386364,
                "tempo": 120.0
            },
            {
                "start_time": 29.9454545,
                "end_time": 30.1318182,
                "pitch": 79,
                "velocity": 32,
                "duration": 0.1863636,
                "tempo": 120.0
            },
            {
                "start_time": 30.1318182,
                "end_time": 30.4181818,
                "pitch": 79,
                "velocity": 32,
                "duration": 0.2863636,
                "tempo": 120.0
            },
            {
                "start_time": 29.9454545,
                "end_time": 30.4181818,
                "pitch": 91,
                "velocity": 32,
                "duration": 0.4727273,
                "tempo": 120.0
            },
            {
                "start_time": 30.1318182,
                "end_time": 30.6022727,
                "pitch": 0,
                "velocity": 32,
                "duration": 0.4704545,
                "tempo": 120.0
            },
            {
                "start_time": 30.4181818,
                "end_time": 30.6022727,
                "pitch": 79,
                "velocity": 32,
                "duration": 0.1840909,
                "tempo": 120.0
            },
            {
                "start_time": 30.6022727,
                "end_time": 30.7545455,
                "pitch": 79,
                "velocity": 32,
                "duration": 0.1522727,
                "tempo": 120.0
            },
            {
                "start_time": 30.7545455,
                "end_time": 31.7613636,
                "pitch": 72,
                "velocity": 32,
                "duration": 1.0068182,
                "tempo": 120.0
            },
            {
                "start_time": 31.7613636,
                "end_time": 31.8272727,
                "pitch": 79,
                "velocity": 32,
                "duration": 0.0659091,
                "tempo": 120.0
            },
            {
                "start_time": 30.4181818,
                "end_time": 31.8272727,
                "pitch": 91,
                "velocity": 32,
                "duration": 1.4090909,
                "tempo": 120.0
            },
            {
                "start_time": 30.6022727,
                "end_time": 32.0136364,
                "pitch": 0,
                "velocity": 32,
                "duration": 1.4113636,
                "tempo": 120.0
            },
            {
                "start_time": 31.8272727,
                "end_time": 32.0136364,
                "pitch": 79,
                "velocity": 32,
                "duration": 0.1863636,
                "tempo": 120.0
            },
            {
                "start_time": 32.0136364,
                "end_time": 32.2977273,
                "pitch": 79,
                "velocity": 32,
                "duration": 0.2840909,
                "tempo": 120.0
            },
            {
                "start_time": 31.8272727,
                "end_time": 32.2977273,
                "pitch": 91,
                "velocity": 32,
                "duration": 0.4704545,
                "tempo": 120.0
            },
            {
                "start_time": 32.0136364,
                "end_time": 32.4818182,
                "pitch": 0,
                "velocity": 32,
                "duration": 0.4681818,
                "tempo": 120.0
            },
            {
                "start_time": 32.2977273,
                "end_time": 32.4818182,
                "pitch": 79,
                "velocity": 32,
                "duration": 0.1840909,
                "tempo": 120.0
            },
            {
                "start_time": 32.4818182,
                "end_time": 32.7659091,
                "pitch": 79,
                "velocity": 32,
                "duration": 0.2840909,
                "tempo": 120.0
            },
            {
                "start_time": 32.2977273,
                "end_time": 32.7659091,
                "pitch": 91,
                "velocity": 32,
                "duration": 0.4681818,
                "tempo": 120.0
            },
            {
                "start_time": 32.7659091,
                "end_time": 33.7863636,
                "pitch": 72,
                "velocity": 32,
                "duration": 1.0204545,
                "tempo": 120.0
            },
            {
                "start_time": 32.7659091,
                "end_time": 33.7886364,
                "pitch": 79,
                "velocity": 32,
                "duration": 1.0227273,
                "tempo": 120.0
            },
            {
                "start_time": 32.7659091,
                "end_time": 33.7886364,
                "pitch": 91,
                "velocity": 32,
                "duration": 1.0227273,
                "tempo": 120.0
            },
            {
                "start_time": 32.4818182,
                "end_time": 33.9022727,
                "pitch": 0,
                "velocity": 32,
                "duration": 1.4204545,
                "tempo": 120.0
            },
            {
                "start_time": 33.7886364,
                "end_time": 33.9022727,
                "pitch": 79,
                "velocity": 32,
                "duration": 0.1136364,
                "tempo": 120.0
            },
            {
                "start_time": 33.7886364,
                "end_time": 33.9022727,
                "pitch": 79,
                "velocity": 32,
                "duration": 0.1136364,
                "tempo": 120.0
            },
            {
                "start_time": 33.9022727,
                "end_time": 34.1863636,
                "pitch": 79,
                "velocity": 32,
                "duration": 0.2840909,
                "tempo": 120.0
            },
            {
                "start_time": 33.7886364,
                "end_time": 34.1863636,
                "pitch": 91,
                "velocity": 32,
                "duration": 0.3977273,
                "tempo": 120.0
            },
            {
                "start_time": 33.9022727,
                "end_time": 34.3704545,
                "pitch": 0,
                "velocity": 32,
                "duration": 0.4681818,
                "tempo": 120.0
            },
            {
                "start_time": 34.1863636,
                "end_time": 34.3704545,
                "pitch": 79,
                "velocity": 32,
                "duration": 0.1840909,
                "tempo": 120.0
            },
            {
                "start_time": 34.3704545,
                "end_time": 34.65,
                "pitch": 79,
                "velocity": 32,
                "duration": 0.2795455,
                "tempo": 120.0
            },
            {
                "start_time": 34.1863636,
                "end_time": 34.65,
                "pitch": 91,
                "velocity": 32,
                "duration": 0.4636364,
                "tempo": 120.0
            },
            {
                "start_time": 34.65,
                "end_time": 34.7795455,
                "pitch": 79,
                "velocity": 32,
                "duration": 0.1295455,
                "tempo": 120.0
            },
            {
                "start_time": 34.7795455,
                "end_time": 35.7954545,
                "pitch": 72,
                "velocity": 32,
                "duration": 1.0159091,
                "tempo": 120.0
            },
            {
                "start_time": 35.7954545,
                "end_time": 36.0636364,
                "pitch": 79,
                "velocity": 32,
                "duration": 0.2681818,
                "tempo": 120.0
            },
            {
                "start_time": 34.65,
                "end_time": 36.0636364,
                "pitch": 91,
                "velocity": 32,
                "duration": 1.4136364,
                "tempo": 120.0
            },
            {
                "start_time": 34.3704545,
                "end_time": 36.25,
                "pitch": 0,
                "velocity": 32,
                "duration": 1.8795455,
                "tempo": 120.0
            },
            {
                "start_time": 36.0636364,
                "end_time": 36.25,
                "pitch": 79,
                "velocity": 32,
                "duration": 0.1863636,
                "tempo": 120.0
            },
            {
                "start_time": 36.25,
                "end_time": 36.5363636,
                "pitch": 79,
                "velocity": 32,
                "duration": 0.2863636,
                "tempo": 120.0
            },
            {
                "start_time": 36.0636364,
                "end_time": 36.5363636,
                "pitch": 91,
                "velocity": 32,
                "duration": 0.4727273,
                "tempo": 120.0
            },
            {
                "start_time": 36.25,
                "end_time": 36.7227273,
                "pitch": 0,
                "velocity": 32,
                "duration": 0.4727273,
                "tempo": 120.0
            },
            {
                "start_time": 36.5363636,
                "end_time": 36.7227273,
                "pitch": 79,
                "velocity": 32,
                "duration": 0.1863636,
                "tempo": 120.0
            },
            {
                "start_time": 36.7227273,
                "end_time": 36.8068182,
                "pitch": 79,
                "velocity": 32,
                "duration": 0.0840909,
                "tempo": 120.0
            },
            {
                "start_time": 36.8068182,
                "end_time": 37.8113636,
                "pitch": 72,
                "velocity": 32,
                "duration": 1.0045455,
                "tempo": 120.0
            },
            {
                "start_time": 37.8113636,
                "end_time": 37.9454545,
                "pitch": 79,
                "velocity": 32,
                "duration": 0.1340909,
                "tempo": 120.0
            },
            {
                "start_time": 36.5363636,
                "end_time": 37.9477273,
                "pitch": 91,
                "velocity": 32,
                "duration": 1.4113636,
                "tempo": 120.0
            },
            {
                "start_time": 37.9454545,
                "end_time": 37.9477273,
                "pitch": 91,
                "velocity": 32,
                "duration": 0.0022727,
                "tempo": 120.0
            },
            {
                "start_time": 36.7227273,
                "end_time": 38.1318182,
                "pitch": 0,
                "velocity": 32,
                "duration": 1.4090909,
                "tempo": 120.0
            },
            {
                "start_time": 37.9477273,
                "end_time": 38.1318182,
                "pitch": 79,
                "velocity": 32,
                "duration": 0.1840909,
                "tempo": 120.0
            },
            {
                "start_time": 38.1318182,
                "end_time": 38.4181818,
                "pitch": 79,
                "velocity": 32,
                "duration": 0.2863636,
                "tempo": 120.0
            },
            {
                "start_time": 38.1318182,
                "end_time": 38.6045455,
                "pitch": 0,
                "velocity": 32,
                "duration": 0.4727273,
                "tempo": 120.0
            },
            {
                "start_time": 38.4181818,
                "end_time": 38.6045455,
                "pitch": 79,
                "velocity": 32,
                "duration": 0.1863636,
                "tempo": 120.0
            },
            {
                "start_time": 38.6045455,
                "end_time": 38.8227273,
                "pitch": 79,
                "velocity": 32,
                "duration": 0.2181818,
                "tempo": 120.0
            },
            {
                "start_time": 38.8227273,
                "end_time": 39.8318182,
                "pitch": 72,
                "velocity": 32,
                "duration": 1.0090909,
                "tempo": 120.0
            },
            {
                "start_time": 38.4181818,
                "end_time": 39.8318182,
                "pitch": 91,
                "velocity": 32,
                "duration": 1.4136364,
                "tempo": 120.0
            },
            {
                "start_time": 38.6045455,
                "end_time": 40.0136364,
                "pitch": 0,
                "velocity": 32,
                "duration": 1.4090909,
                "tempo": 120.0
            },
            {
                "start_time": 39.8318182,
                "end_time": 40.0136364,
                "pitch": 79,
                "velocity": 32,
                "duration": 0.1818182,
                "tempo": 120.0
            },
            {
                "start_time": 39.8318182,
                "end_time": 40.0136364,
                "pitch": 79,
                "velocity": 32,
                "duration": 0.1818182,
                "tempo": 120.0
            },
            {
                "start_time": 40.0136364,
                "end_time": 40.3022727,
                "pitch": 79,
                "velocity": 32,
                "duration": 0.2886364,
                "tempo": 120.0
            },
            {
                "start_time": 39.8318182,
                "end_time": 40.3022727,
                "pitch": 91,
                "velocity": 32,
                "duration": 0.4704545,
                "tempo": 120.0
            },
            {
                "start_time": 40.0136364,
                "end_time": 40.4909091,
                "pitch": 0,
                "velocity": 32,
                "duration": 0.4772727,
                "tempo": 120.0
            },
            {
                "start_time": 40.3022727,
                "end_time": 40.4909091,
                "pitch": 79,
                "velocity": 32,
                "duration": 0.1886364,
                "tempo": 120.0
            },
            {
                "start_time": 40.4909091,
                "end_time": 40.7772727,
                "pitch": 79,
                "velocity": 32,
                "duration": 0.2863636,
                "tempo": 120.0
            },
            {
                "start_time": 40.3022727,
                "end_time": 40.7772727,
                "pitch": 91,
                "velocity": 32,
                "duration": 0.475,
                "tempo": 120.0
            },
            {
                "start_time": 40.7772727,
                "end_time": 40.8431818,
                "pitch": 79,
                "velocity": 32,
                "duration": 0.0659091,
                "tempo": 120.0
            },
            {
                "start_time": 40.8454545,
                "end_time": 41.8681818,
                "pitch": 72,
                "velocity": 32,
                "duration": 1.0227273,
                "tempo": 120.0
            },
            {
                "start_time": 40.7772727,
                "end_time": 41.8704545,
                "pitch": 91,
                "velocity": 32,
                "duration": 1.0931818,
                "tempo": 120.0
            },
            {
                "start_time": 40.4909091,
                "end_time": 41.9181818,
                "pitch": 0,
                "velocity": 32,
                "duration": 1.4272727,
                "tempo": 120.0
            },
            {
                "start_time": 41.8704545,
                "end_time": 41.9181818,
                "pitch": 79,
                "velocity": 32,
                "duration": 0.0477273,
                "tempo": 120.0
            },
            {
                "start_time": 41.8704545,
                "end_time": 41.9181818,
                "pitch": 79,
                "velocity": 32,
                "duration": 0.0477273,
                "tempo": 120.0
            },
            {
                "start_time": 41.9181818,
                "end_time": 42.1931818,
                "pitch": 79,
                "velocity": 32,
                "duration": 0.275,
                "tempo": 120.0
            },
            {
                "start_time": 41.8704545,
                "end_time": 42.1931818,
                "pitch": 91,
                "velocity": 32,
                "duration": 0.3227273,
                "tempo": 120.0
            },
            {
                "start_time": 41.9181818,
                "end_time": 42.3704545,
                "pitch": 0,
                "velocity": 32,
                "duration": 0.4522727,
                "tempo": 120.0
            },
            {
                "start_time": 42.1931818,
                "end_time": 42.3704545,
                "pitch": 79,
                "velocity": 32,
                "duration": 0.1772727,
                "tempo": 120.0
            },
            {
                "start_time": 42.3704545,
                "end_time": 42.6545455,
                "pitch": 79,
                "velocity": 32,
                "duration": 0.2840909,
                "tempo": 120.0
            },
            {
                "start_time": 42.1931818,
                "end_time": 42.6545455,
                "pitch": 91,
                "velocity": 32,
                "duration": 0.4613636,
                "tempo": 120.0
            },
            {
                "start_time": 42.3704545,
                "end_time": 42.8409091,
                "pitch": 0,
                "velocity": 32,
                "duration": 0.4704545,
                "tempo": 120.0
            },
            {
                "start_time": 42.6545455,
                "end_time": 42.8409091,
                "pitch": 79,
                "velocity": 32,
                "duration": 0.1863636,
                "tempo": 120.0
            },
            {
                "start_time": 42.8409091,
                "end_time": 42.8568182,
                "pitch": 79,
                "velocity": 32,
                "duration": 0.0159091,
                "tempo": 120.0
            },
            {
                "start_time": 42.8568182,
                "end_time": 43.8659091,
                "pitch": 72,
                "velocity": 32,
                "duration": 1.0090909,
                "tempo": 120.0
            },
            {
                "start_time": 43.8659091,
                "end_time": 44.0659091,
                "pitch": 79,
                "velocity": 32,
                "duration": 0.2,
                "tempo": 120.0
            },
            {
                "start_time": 42.6545455,
                "end_time": 44.0659091,
                "pitch": 91,
                "velocity": 32,
                "duration": 1.4113636,
                "tempo": 120.0
            },
            {
                "start_time": 42.8409091,
                "end_time": 44.25,
                "pitch": 0,
                "velocity": 32,
                "duration": 1.4090909,
                "tempo": 120.0
            },
            {
                "start_time": 44.0659091,
                "end_time": 44.25,
                "pitch": 79,
                "velocity": 32,
                "duration": 0.1840909,
                "tempo": 120.0
            },
            {
                "start_time": 44.25,
                "end_time": 44.5363636,
                "pitch": 79,
                "velocity": 32,
                "duration": 0.2863636,
                "tempo": 120.0
            },
            {
                "start_time": 44.0659091,
                "end_time": 44.5363636,
                "pitch": 91,
                "velocity": 32,
                "duration": 0.4704545,
                "tempo": 120.0
            },
            {
                "start_time": 44.25,
                "end_time": 44.7227273,
                "pitch": 0,
                "velocity": 32,
                "duration": 0.4727273,
                "tempo": 120.0
            },
            {
                "start_time": 44.5363636,
                "end_time": 44.7227273,
                "pitch": 79,
                "velocity": 32,
                "duration": 0.1863636,
                "tempo": 120.0
            },
            {
                "start_time": 44.7227273,
                "end_time": 44.875,
                "pitch": 79,
                "velocity": 32,
                "duration": 0.1522727,
                "tempo": 120.0
            },
            {
                "start_time": 44.875,
                "end_time": 45.8863636,
                "pitch": 72,
                "velocity": 32,
                "duration": 1.0113636,
                "tempo": 120.0
            },
            {
                "start_time": 45.8863636,
                "end_time": 45.9522727,
                "pitch": 79,
                "velocity": 32,
                "duration": 0.0659091,
                "tempo": 120.0
            },
            {
                "start_time": 44.5363636,
                "end_time": 45.9522727,
                "pitch": 91,
                "velocity": 32,
                "duration": 1.4159091,
                "tempo": 120.0
            },
            {
                "start_time": 44.7227273,
                "end_time": 46.1386364,
                "pitch": 0,
                "velocity": 32,
                "duration": 1.4159091,
                "tempo": 120.0
            },
            {
                "start_time": 45.9522727,
                "end_time": 46.1386364,
                "pitch": 79,
                "velocity": 32,
                "duration": 0.1863636,
                "tempo": 120.0
            },
            {
                "start_time": 46.1386364,
                "end_time": 46.425,
                "pitch": 79,
                "velocity": 32,
                "duration": 0.2863636,
                "tempo": 120.0
            },
            {
                "start_time": 45.9522727,
                "end_time": 46.425,
                "pitch": 91,
                "velocity": 32,
                "duration": 0.4727273,
                "tempo": 120.0
            },
            {
                "start_time": 46.1386364,
                "end_time": 46.6113636,
                "pitch": 0,
                "velocity": 32,
                "duration": 0.4727273,
                "tempo": 120.0
            },
            {
                "start_time": 46.425,
                "end_time": 46.6113636,
                "pitch": 79,
                "velocity": 32,
                "duration": 0.1863636,
                "tempo": 120.0
            },
            {
                "start_time": 46.6113636,
                "end_time": 46.8954545,
                "pitch": 79,
                "velocity": 32,
                "duration": 0.2840909,
                "tempo": 120.0
            },
            {
                "start_time": 46.425,
                "end_time": 46.8954545,
                "pitch": 91,
                "velocity": 32,
                "duration": 0.4704545,
                "tempo": 120.0
            },
            {
                "start_time": 46.8954545,
                "end_time": 47.9022727,
                "pitch": 72,
                "velocity": 32,
                "duration": 1.0068182,
                "tempo": 120.0
            },
            {
                "start_time": 46.8954545,
                "end_time": 47.9022727,
                "pitch": 79,
                "velocity": 32,
                "duration": 1.0068182,
                "tempo": 120.0
            },
            {
                "start_time": 46.8954545,
                "end_time": 47.9022727,
                "pitch": 91,
                "velocity": 32,
                "duration": 1.0068182,
                "tempo": 120.0
            },
            {
                "start_time": 46.6113636,
                "end_time": 48.0204545,
                "pitch": 0,
                "velocity": 32,
                "duration": 1.4090909,
                "tempo": 120.0
            },
            {
                "start_time": 47.9022727,
                "end_time": 48.0204545,
                "pitch": 79,
                "velocity": 32,
                "duration": 0.1181818,
                "tempo": 120.0
            },
            {
                "start_time": 47.9022727,
                "end_time": 48.0204545,
                "pitch": 79,
                "velocity": 32,
                "duration": 0.1181818,
                "tempo": 120.0
            },
            {
                "start_time": 48.0204545,
                "end_time": 48.3113636,
                "pitch": 79,
                "velocity": 32,
                "duration": 0.2909091,
                "tempo": 120.0
            },
            {
                "start_time": 47.9022727,
                "end_time": 48.3113636,
                "pitch": 91,
                "velocity": 32,
                "duration": 0.4090909,
                "tempo": 120.0
            },
            {
                "start_time": 48.0204545,
                "end_time": 48.5,
                "pitch": 0,
                "velocity": 32,
                "duration": 0.4795455,
                "tempo": 120.0
            },
            {
                "start_time": 48.3113636,
                "end_time": 48.5,
                "pitch": 79,
                "velocity": 32,
                "duration": 0.1886364,
                "tempo": 120.0
            },
            {
                "start_time": 48.5,
                "end_time": 48.7840909,
                "pitch": 79,
                "velocity": 32,
                "duration": 0.2840909,
                "tempo": 120.0
            },
            {
                "start_time": 48.3113636,
                "end_time": 48.7840909,
                "pitch": 91,
                "velocity": 32,
                "duration": 0.4727273,
                "tempo": 120.0
            },
            {
                "start_time": 48.7840909,
                "end_time": 48.9204545,
                "pitch": 79,
                "velocity": 32,
                "duration": 0.1363636,
                "tempo": 120.0
            },
            {
                "start_time": 48.9204545,
                "end_time": 49.9318182,
                "pitch": 72,
                "velocity": 32,
                "duration": 1.0113636,
                "tempo": 120.0
            },
            {
                "start_time": 49.9318182,
                "end_time": 50.2,
                "pitch": 79,
                "velocity": 32,
                "duration": 0.2681818,
                "tempo": 120.0
            },
            {
                "start_time": 48.7840909,
                "end_time": 50.2,
                "pitch": 91,
                "velocity": 32,
                "duration": 1.4159091,
                "tempo": 120.0
            },
            {
                "start_time": 48.5,
                "end_time": 50.3863636,
                "pitch": 0,
                "velocity": 32,
                "duration": 1.8863636,
                "tempo": 120.0
            },
            {
                "start_time": 50.2,
                "end_time": 50.3863636,
                "pitch": 79,
                "velocity": 32,
                "duration": 0.1863636,
                "tempo": 120.0
            },
            {
                "start_time": 50.3863636,
                "end_time": 50.6727273,
                "pitch": 79,
                "velocity": 32,
                "duration": 0.2863636,
                "tempo": 120.0
            },
            {
                "start_time": 50.2,
                "end_time": 50.6727273,
                "pitch": 91,
                "velocity": 32,
                "duration": 0.4727273,
                "tempo": 120.0
            },
            {
                "start_time": 50.3863636,
                "end_time": 50.8590909,
                "pitch": 0,
                "velocity": 32,
                "duration": 0.4727273,
                "tempo": 120.0
            },
            {
                "start_time": 50.6727273,
                "end_time": 50.8590909,
                "pitch": 79,
                "velocity": 32,
                "duration": 0.1863636,
                "tempo": 120.0
            },
            {
                "start_time": 50.8590909,
                "end_time": 50.9431818,
                "pitch": 79,
                "velocity": 32,
                "duration": 0.0840909,
                "tempo": 120.0
            },
            {
                "start_time": 50.9431818,
                "end_time": 51.3068182,
                "pitch": 72,
                "velocity": 32,
                "duration": 0.3636364,
                "tempo": 120.0
            }
        ],
        "Acoustic Bass": [
            {
                "start_time": 12.7068182,
                "end_time": 13.5954545,
                "pitch": 50,
                "velocity": 80,
                "duration": 0.8886364,
                "tempo": 120.0
            },
            {
                "start_time": 13.5977273,
                "end_time": 13.6613636,
                "pitch": 46,
                "velocity": 80,
                "duration": 0.0636364,
                "tempo": 120.0
            },
            {
                "start_time": 13.6795455,
                "end_time": 13.7454545,
                "pitch": 45,
                "velocity": 80,
                "duration": 0.0659091,
                "tempo": 120.0
            },
            {
                "start_time": 13.7613636,
                "end_time": 13.8272727,
                "pitch": 43,
                "velocity": 80,
                "duration": 0.0659091,
                "tempo": 120.0
            },
            {
                "start_time": 13.8454545,
                "end_time": 13.9090909,
                "pitch": 40,
                "velocity": 80,
                "duration": 0.0636364,
                "tempo": 120.0
            },
            {
                "start_time": 13.9272727,
                "end_time": 13.9931818,
                "pitch": 39,
                "velocity": 80,
                "duration": 0.0659091,
                "tempo": 120.0
            },
            {
                "start_time": 14.0113636,
                "end_time": 14.65,
                "pitch": 38,
                "velocity": 80,
                "duration": 0.6386364,
                "tempo": 120.0
            },
            {
                "start_time": 14.65,
                "end_time": 14.9295455,
                "pitch": 36,
                "velocity": 80,
                "duration": 0.2795455,
                "tempo": 120.0
            },
            {
                "start_time": 14.9295455,
                "end_time": 16.9363636,
                "pitch": 38,
                "velocity": 80,
                "duration": 2.0068182,
                "tempo": 120.0
            },
            {
                "start_time": 16.9363636,
                "end_time": 17.5340909,
                "pitch": 36,
                "velocity": 80,
                "duration": 0.5977273,
                "tempo": 120.0
            },
            {
                "start_time": 17.5340909,
                "end_time": 19.0545455,
                "pitch": 38,
                "velocity": 80,
                "duration": 1.5204545,
                "tempo": 120.0
            },
            {
                "start_time": 19.0545455,
                "end_time": 19.1909091,
                "pitch": 43,
                "velocity": 80,
                "duration": 0.1363636,
                "tempo": 120.0
            },
            {
                "start_time": 19.225,
                "end_time": 19.3590909,
                "pitch": 42,
                "velocity": 80,
                "duration": 0.1340909,
                "tempo": 120.0
            },
            {
                "start_time": 19.3931818,
                "end_time": 19.525,
                "pitch": 41,
                "velocity": 80,
                "duration": 0.1318182,
                "tempo": 120.0
            },
            {
                "start_time": 19.5590909,
                "end_time": 20.0545455,
                "pitch": 38,
                "velocity": 80,
                "duration": 0.4954545,
                "tempo": 120.0
            },
            {
                "start_time": 20.0545455,
                "end_time": 20.5545455,
                "pitch": 36,
                "velocity": 80,
                "duration": 0.5,
                "tempo": 120.0
            },
            {
                "start_time": 20.5545455,
                "end_time": 22.5818182,
                "pitch": 38,
                "velocity": 80,
                "duration": 2.0272727,
                "tempo": 120.0
            },
            {
                "start_time": 22.5818182,
                "end_time": 23.5886364,
                "pitch": 39,
                "velocity": 80,
                "duration": 1.0068182,
                "tempo": 120.0
            },
            {
                "start_time": 23.5886364,
                "end_time": 24.0909091,
                "pitch": 36,
                "velocity": 80,
                "duration": 0.5022727,
                "tempo": 120.0
            },
            {
                "start_time": 24.0909091,
                "end_time": 25.9159091,
                "pitch": 38,
                "velocity": 80,
                "duration": 1.825,
                "tempo": 120.0
            },
            {
                "start_time": 25.9159091,
                "end_time": 26.1613636,
                "pitch": 26,
                "velocity": 101,
                "duration": 0.2454545,
                "tempo": 120.0
            },
            {
                "start_time": 26.3181818,
                "end_time": 26.5795455,
                "pitch": 26,
                "velocity": 101,
                "duration": 0.2613636,
                "tempo": 120.0
            },
            {
                "start_time": 28.0431818,
                "end_time": 28.3045455,
                "pitch": 26,
                "velocity": 101,
                "duration": 0.2613636,
                "tempo": 120.0
            },
            {
                "start_time": 28.4613636,
                "end_time": 28.7113636,
                "pitch": 26,
                "velocity": 101,
                "duration": 0.25,
                "tempo": 120.0
            },
            {
                "start_time": 30.2318182,
                "end_time": 30.4863636,
                "pitch": 26,
                "velocity": 101,
                "duration": 0.2545455,
                "tempo": 120.0
            },
            {
                "start_time": 30.6363636,
                "end_time": 30.8909091,
                "pitch": 26,
                "velocity": 101,
                "duration": 0.2545455,
                "tempo": 120.0
            },
            {
                "start_time": 32.3818182,
                "end_time": 32.6318182,
                "pitch": 26,
                "velocity": 101,
                "duration": 0.25,
                "tempo": 120.0
            },
            {
                "start_time": 32.7840909,
                "end_time": 33.0431818,
                "pitch": 26,
                "velocity": 101,
                "duration": 0.2590909,
                "tempo": 120.0
            },
            {
                "start_time": 34.5363636,
                "end_time": 37.8954545,
                "pitch": 26,
                "velocity": 101,
                "duration": 3.3590909,
                "tempo": 120.0
            },
            {
                "start_time": 37.8954545,
                "end_time": 41.2613636,
                "pitch": 26,
                "velocity": 101,
                "duration": 3.3659091,
                "tempo": 120.0
            },
            {
                "start_time": 41.2613636,
                "end_time": 43.9340909,
                "pitch": 26,
                "velocity": 101,
                "duration": 2.6727273,
                "tempo": 120.0
            },
            {
                "start_time": 43.9340909,
                "end_time": 43.95,
                "pitch": 26,
                "velocity": 4,
                "duration": 0.0159091,
                "tempo": 120.0
            }
        ],
        "Electric Piano 1": [
            {
                "start_time": 6.8318182,
                "end_time": 9.4659091,
                "pitch": 69,
                "velocity": 10,
                "duration": 2.6340909,
                "tempo": 120.0
            },
            {
                "start_time": 9.4659091,
                "end_time": 9.6363636,
                "pitch": 67,
                "velocity": 10,
                "duration": 0.1704545,
                "tempo": 120.0
            },
            {
                "start_time": 9.4659091,
                "end_time": 9.6363636,
                "pitch": 79,
                "velocity": 10,
                "duration": 0.1704545,
                "tempo": 120.0
            },
            {
                "start_time": 9.6363636,
                "end_time": 9.8068182,
                "pitch": 67,
                "velocity": 10,
                "duration": 0.1704545,
                "tempo": 120.0
            },
            {
                "start_time": 9.6363636,
                "end_time": 9.8068182,
                "pitch": 79,
                "velocity": 10,
                "duration": 0.1704545,
                "tempo": 120.0
            },
            {
                "start_time": 9.8068182,
                "end_time": 9.9727273,
                "pitch": 67,
                "velocity": 10,
                "duration": 0.1659091,
                "tempo": 120.0
            },
            {
                "start_time": 9.8068182,
                "end_time": 9.9727273,
                "pitch": 79,
                "velocity": 10,
                "duration": 0.1659091,
                "tempo": 120.0
            },
            {
                "start_time": 9.9727273,
                "end_time": 10.1409091,
                "pitch": 67,
                "velocity": 10,
                "duration": 0.1681818,
                "tempo": 120.0
            },
            {
                "start_time": 9.9727273,
                "end_time": 10.1409091,
                "pitch": 79,
                "velocity": 10,
                "duration": 0.1681818,
                "tempo": 120.0
            },
            {
                "start_time": 10.1409091,
                "end_time": 10.3068182,
                "pitch": 67,
                "velocity": 10,
                "duration": 0.1659091,
                "tempo": 120.0
            },
            {
                "start_time": 10.1409091,
                "end_time": 10.3068182,
                "pitch": 79,
                "velocity": 10,
                "duration": 0.1659091,
                "tempo": 120.0
            },
            {
                "start_time": 10.3068182,
                "end_time": 10.475,
                "pitch": 67,
                "velocity": 10,
                "duration": 0.1681818,
                "tempo": 120.0
            },
            {
                "start_time": 10.3068182,
                "end_time": 10.475,
                "pitch": 79,
                "velocity": 10,
                "duration": 0.1681818,
                "tempo": 120.0
            },
            {
                "start_time": 10.475,
                "end_time": 10.6409091,
                "pitch": 67,
                "velocity": 10,
                "duration": 0.1659091,
                "tempo": 120.0
            },
            {
                "start_time": 10.475,
                "end_time": 10.6409091,
                "pitch": 79,
                "velocity": 10,
                "duration": 0.1659091,
                "tempo": 120.0
            },
            {
                "start_time": 10.6409091,
                "end_time": 10.8068182,
                "pitch": 67,
                "velocity": 10,
                "duration": 0.1659091,
                "tempo": 120.0
            },
            {
                "start_time": 10.6409091,
                "end_time": 10.8068182,
                "pitch": 79,
                "velocity": 10,
                "duration": 0.1659091,
                "tempo": 120.0
            },
            {
                "start_time": 10.8068182,
                "end_time": 10.975,
                "pitch": 67,
                "velocity": 10,
                "duration": 0.1681818,
                "tempo": 120.0
            },
            {
                "start_time": 10.8068182,
                "end_time": 10.975,
                "pitch": 79,
                "velocity": 10,
                "duration": 0.1681818,
                "tempo": 120.0
            },
            {
                "start_time": 10.975,
                "end_time": 11.1431818,
                "pitch": 67,
                "velocity": 10,
                "duration": 0.1681818,
                "tempo": 120.0
            },
            {
                "start_time": 10.975,
                "end_time": 11.1431818,
                "pitch": 79,
                "velocity": 10,
                "duration": 0.1681818,
                "tempo": 120.0
            },
            {
                "start_time": 11.1431818,
                "end_time": 11.3113636,
                "pitch": 67,
                "velocity": 10,
                "duration": 0.1681818,
                "tempo": 120.0
            },
            {
                "start_time": 11.1431818,
                "end_time": 11.3113636,
                "pitch": 79,
                "velocity": 10,
                "duration": 0.1681818,
                "tempo": 120.0
            },
            {
                "start_time": 11.3113636,
                "end_time": 11.4795455,
                "pitch": 67,
                "velocity": 10,
                "duration": 0.1681818,
                "tempo": 120.0
            },
            {
                "start_time": 11.3113636,
                "end_time": 11.4795455,
                "pitch": 79,
                "velocity": 10,
                "duration": 0.1681818,
                "tempo": 120.0
            },
            {
                "start_time": 11.4795455,
                "end_time": 11.6431818,
                "pitch": 67,
                "velocity": 10,
                "duration": 0.1636364,
                "tempo": 120.0
            },
            {
                "start_time": 11.4795455,
                "end_time": 11.6431818,
                "pitch": 79,
                "velocity": 10,
                "duration": 0.1636364,
                "tempo": 120.0
            },
            {
                "start_time": 11.6431818,
                "end_time": 11.8022727,
                "pitch": 67,
                "velocity": 10,
                "duration": 0.1590909,
                "tempo": 120.0
            },
            {
                "start_time": 11.6431818,
                "end_time": 11.8022727,
                "pitch": 79,
                "velocity": 10,
                "duration": 0.1590909,
                "tempo": 120.0
            },
            {
                "start_time": 11.8022727,
                "end_time": 11.9613636,
                "pitch": 67,
                "velocity": 10,
                "duration": 0.1590909,
                "tempo": 120.0
            },
            {
                "start_time": 11.8022727,
                "end_time": 11.9613636,
                "pitch": 79,
                "velocity": 10,
                "duration": 0.1590909,
                "tempo": 120.0
            },
            {
                "start_time": 11.9613636,
                "end_time": 12.075,
                "pitch": 67,
                "velocity": 10,
                "duration": 0.1136364,
                "tempo": 120.0
            },
            {
                "start_time": 12.075,
                "end_time": 14.7022727,
                "pitch": 69,
                "velocity": 10,
                "duration": 2.6272727,
                "tempo": 120.0
            },
            {
                "start_time": 11.9613636,
                "end_time": 14.7022727,
                "pitch": 79,
                "velocity": 10,
                "duration": 2.7409091,
                "tempo": 120.0
            },
            {
                "start_time": 14.7022727,
                "end_time": 14.8409091,
                "pitch": 67,
                "velocity": 10,
                "duration": 0.1386364,
                "tempo": 120.0
            },
            {
                "start_time": 14.7022727,
                "end_time": 14.8409091,
                "pitch": 79,
                "velocity": 10,
                "duration": 0.1386364,
                "tempo": 120.0
            },
            {
                "start_time": 14.8409091,
                "end_time": 15.0159091,
                "pitch": 67,
                "velocity": 10,
                "duration": 0.175,
                "tempo": 120.0
            },
            {
                "start_time": 14.8409091,
                "end_time": 15.0159091,
                "pitch": 79,
                "velocity": 10,
                "duration": 0.175,
                "tempo": 120.0
            },
            {
                "start_time": 15.0159091,
                "end_time": 15.05,
                "pitch": 67,
                "velocity": 10,
                "duration": 0.0340909,
                "tempo": 120.0
            },
            {
                "start_time": 15.0159091,
                "end_time": 15.05,
                "pitch": 79,
                "velocity": 10,
                "duration": 0.0340909,
                "tempo": 120.0
            },
            {
                "start_time": 15.05,
                "end_time": 15.1886364,
                "pitch": 67,
                "velocity": 10,
                "duration": 0.1386364,
                "tempo": 120.0
            },
            {
                "start_time": 15.05,
                "end_time": 15.1886364,
                "pitch": 79,
                "velocity": 10,
                "duration": 0.1386364,
                "tempo": 120.0
            },
            {
                "start_time": 15.1886364,
                "end_time": 15.3545455,
                "pitch": 67,
                "velocity": 10,
                "duration": 0.1659091,
                "tempo": 120.0
            },
            {
                "start_time": 15.1886364,
                "end_time": 15.3545455,
                "pitch": 79,
                "velocity": 10,
                "duration": 0.1659091,
                "tempo": 120.0
            },
            {
                "start_time": 15.3545455,
                "end_time": 15.3863636,
                "pitch": 67,
                "velocity": 10,
                "duration": 0.0318182,
                "tempo": 120.0
            },
            {
                "start_time": 15.3545455,
                "end_time": 15.3863636,
                "pitch": 79,
                "velocity": 10,
                "duration": 0.0318182,
                "tempo": 120.0
            },
            {
                "start_time": 15.3863636,
                "end_time": 15.5159091,
                "pitch": 67,
                "velocity": 10,
                "duration": 0.1295455,
                "tempo": 120.0
            },
            {
                "start_time": 15.3863636,
                "end_time": 15.5159091,
                "pitch": 79,
                "velocity": 10,
                "duration": 0.1295455,
                "tempo": 120.0
            },
            {
                "start_time": 15.5159091,
                "end_time": 15.6795455,
                "pitch": 67,
                "velocity": 10,
                "duration": 0.1636364,
                "tempo": 120.0
            },
            {
                "start_time": 15.5159091,
                "end_time": 15.6795455,
                "pitch": 79,
                "velocity": 10,
                "duration": 0.1636364,
                "tempo": 120.0
            },
            {
                "start_time": 15.6795455,
                "end_time": 15.7113636,
                "pitch": 67,
                "velocity": 10,
                "duration": 0.0318182,
                "tempo": 120.0
            },
            {
                "start_time": 15.6795455,
                "end_time": 15.7113636,
                "pitch": 79,
                "velocity": 10,
                "duration": 0.0318182,
                "tempo": 120.0
            },
            {
                "start_time": 15.7113636,
                "end_time": 15.8409091,
                "pitch": 67,
                "velocity": 10,
                "duration": 0.1295455,
                "tempo": 120.0
            },
            {
                "start_time": 15.7113636,
                "end_time": 15.8409091,
                "pitch": 79,
                "velocity": 10,
                "duration": 0.1295455,
                "tempo": 120.0
            },
            {
                "start_time": 15.8409091,
                "end_time": 16.0090909,
                "pitch": 67,
                "velocity": 10,
                "duration": 0.1681818,
                "tempo": 120.0
            },
            {
                "start_time": 15.8409091,
                "end_time": 16.0090909,
                "pitch": 79,
                "velocity": 10,
                "duration": 0.1681818,
                "tempo": 120.0
            },
            {
                "start_time": 16.0090909,
                "end_time": 16.0409091,
                "pitch": 67,
                "velocity": 10,
                "duration": 0.0318182,
                "tempo": 120.0
            },
            {
                "start_time": 16.0090909,
                "end_time": 16.0409091,
                "pitch": 79,
                "velocity": 10,
                "duration": 0.0318182,
                "tempo": 120.0
            },
            {
                "start_time": 16.0409091,
                "end_time": 16.175,
                "pitch": 67,
                "velocity": 10,
                "duration": 0.1340909,
                "tempo": 120.0
            },
            {
                "start_time": 16.0409091,
                "end_time": 16.175,
                "pitch": 79,
                "velocity": 10,
                "duration": 0.1340909,
                "tempo": 120.0
            },
            {
                "start_time": 16.175,
                "end_time": 16.3431818,
                "pitch": 67,
                "velocity": 10,
                "duration": 0.1681818,
                "tempo": 120.0
            },
            {
                "start_time": 16.175,
                "end_time": 16.3431818,
                "pitch": 79,
                "velocity": 10,
                "duration": 0.1681818,
                "tempo": 120.0
            },
            {
                "start_time": 16.3431818,
                "end_time": 16.375,
                "pitch": 67,
                "velocity": 10,
                "duration": 0.0318182,
                "tempo": 120.0
            },
            {
                "start_time": 16.3431818,
                "end_time": 16.375,
                "pitch": 79,
                "velocity": 10,
                "duration": 0.0318182,
                "tempo": 120.0
            },
            {
                "start_time": 16.375,
                "end_time": 16.5113636,
                "pitch": 67,
                "velocity": 10,
                "duration": 0.1363636,
                "tempo": 120.0
            },
            {
                "start_time": 16.375,
                "end_time": 16.5113636,
                "pitch": 79,
                "velocity": 10,
                "duration": 0.1363636,
                "tempo": 120.0
            },
            {
                "start_time": 16.5113636,
                "end_time": 16.6818182,
                "pitch": 67,
                "velocity": 10,
                "duration": 0.1704545,
                "tempo": 120.0
            },
            {
                "start_time": 16.5113636,
                "end_time": 16.6818182,
                "pitch": 79,
                "velocity": 10,
                "duration": 0.1704545,
                "tempo": 120.0
            },
            {
                "start_time": 16.6818182,
                "end_time": 16.7159091,
                "pitch": 67,
                "velocity": 10,
                "duration": 0.0340909,
                "tempo": 120.0
            },
            {
                "start_time": 16.6818182,
                "end_time": 16.7159091,
                "pitch": 79,
                "velocity": 10,
                "duration": 0.0340909,
                "tempo": 120.0
            },
            {
                "start_time": 16.7159091,
                "end_time": 16.8522727,
                "pitch": 67,
                "velocity": 10,
                "duration": 0.1363636,
                "tempo": 120.0
            },
            {
                "start_time": 16.7159091,
                "end_time": 16.8522727,
                "pitch": 79,
                "velocity": 10,
                "duration": 0.1363636,
                "tempo": 120.0
            },
            {
                "start_time": 16.8522727,
                "end_time": 17.0227273,
                "pitch": 67,
                "velocity": 10,
                "duration": 0.1704545,
                "tempo": 120.0
            },
            {
                "start_time": 16.8522727,
                "end_time": 17.0227273,
                "pitch": 79,
                "velocity": 10,
                "duration": 0.1704545,
                "tempo": 120.0
            },
            {
                "start_time": 17.0227273,
                "end_time": 17.0545455,
                "pitch": 67,
                "velocity": 10,
                "duration": 0.0318182,
                "tempo": 120.0
            },
            {
                "start_time": 17.0227273,
                "end_time": 17.0545455,
                "pitch": 79,
                "velocity": 10,
                "duration": 0.0318182,
                "tempo": 120.0
            },
            {
                "start_time": 17.0545455,
                "end_time": 17.1863636,
                "pitch": 67,
                "velocity": 10,
                "duration": 0.1318182,
                "tempo": 120.0
            },
            {
                "start_time": 17.0545455,
                "end_time": 17.1863636,
                "pitch": 79,
                "velocity": 10,
                "duration": 0.1318182,
                "tempo": 120.0
            },
            {
                "start_time": 17.1863636,
                "end_time": 17.3522727,
                "pitch": 67,
                "velocity": 10,
                "duration": 0.1659091,
                "tempo": 120.0
            },
            {
                "start_time": 17.1863636,
                "end_time": 17.3522727,
                "pitch": 79,
                "velocity": 10,
                "duration": 0.1659091,
                "tempo": 120.0
            },
            {
                "start_time": 17.3522727,
                "end_time": 17.3704545,
                "pitch": 67,
                "velocity": 10,
                "duration": 0.0181818,
                "tempo": 120.0
            },
            {
                "start_time": 17.3704545,
                "end_time": 20.0386364,
                "pitch": 69,
                "velocity": 10,
                "duration": 2.6681818,
                "tempo": 120.0
            },
            {
                "start_time": 17.3522727,
                "end_time": 20.0386364,
                "pitch": 79,
                "velocity": 10,
                "duration": 2.6863636,
                "tempo": 120.0
            },
            {
                "start_time": 20.0386364,
                "end_time": 20.2045455,
                "pitch": 67,
                "velocity": 10,
                "duration": 0.1659091,
                "tempo": 120.0
            },
            {
                "start_time": 20.0386364,
                "end_time": 20.2045455,
                "pitch": 79,
                "velocity": 10,
                "duration": 0.1659091,
                "tempo": 120.0
            },
            {
                "start_time": 20.2045455,
                "end_time": 20.3727273,
                "pitch": 67,
                "velocity": 10,
                "duration": 0.1681818,
                "tempo": 120.0
            },
            {
                "start_time": 20.2045455,
                "end_time": 20.3727273,
                "pitch": 79,
                "velocity": 10,
                "duration": 0.1681818,
                "tempo": 120.0
            },
            {
                "start_time": 20.3727273,
                "end_time": 20.5386364,
                "pitch": 67,
                "velocity": 10,
                "duration": 0.1659091,
                "tempo": 120.0
            },
            {
                "start_time": 20.3727273,
                "end_time": 20.5386364,
                "pitch": 79,
                "velocity": 10,
                "duration": 0.1659091,
                "tempo": 120.0
            },
            {
                "start_time": 20.5386364,
                "end_time": 20.7068182,
                "pitch": 67,
                "velocity": 10,
                "duration": 0.1681818,
                "tempo": 120.0
            },
            {
                "start_time": 20.5386364,
                "end_time": 20.7068182,
                "pitch": 79,
                "velocity": 10,
                "duration": 0.1681818,
                "tempo": 120.0
            },
            {
                "start_time": 20.7068182,
                "end_time": 20.8772727,
                "pitch": 67,
                "velocity": 10,
                "duration": 0.1704545,
                "tempo": 120.0
            },
            {
                "start_time": 20.7068182,
                "end_time": 20.8772727,
                "pitch": 79,
                "velocity": 10,
                "duration": 0.1704545,
                "tempo": 120.0
            },
            {
                "start_time": 20.8772727,
                "end_time": 21.0477273,
                "pitch": 67,
                "velocity": 10,
                "duration": 0.1704545,
                "tempo": 120.0
            },
            {
                "start_time": 20.8772727,
                "end_time": 21.0477273,
                "pitch": 79,
                "velocity": 10,
                "duration": 0.1704545,
                "tempo": 120.0
            },
            {
                "start_time": 21.0477273,
                "end_time": 21.2181818,
                "pitch": 67,
                "velocity": 10,
                "duration": 0.1704545,
                "tempo": 120.0
            },
            {
                "start_time": 21.0477273,
                "end_time": 21.2181818,
                "pitch": 79,
                "velocity": 10,
                "duration": 0.1704545,
                "tempo": 120.0
            },
            {
                "start_time": 21.2181818,
                "end_time": 21.3863636,
                "pitch": 67,
                "velocity": 10,
                "duration": 0.1681818,
                "tempo": 120.0
            },
            {
                "start_time": 21.2181818,
                "end_time": 21.3863636,
                "pitch": 79,
                "velocity": 10,
                "duration": 0.1681818,
                "tempo": 120.0
            },
            {
                "start_time": 21.3863636,
                "end_time": 21.5545455,
                "pitch": 67,
                "velocity": 10,
                "duration": 0.1681818,
                "tempo": 120.0
            },
            {
                "start_time": 21.3863636,
                "end_time": 21.5545455,
                "pitch": 79,
                "velocity": 10,
                "duration": 0.1681818,
                "tempo": 120.0
            },
            {
                "start_time": 21.5545455,
                "end_time": 21.7227273,
                "pitch": 67,
                "velocity": 10,
                "duration": 0.1681818,
                "tempo": 120.0
            },
            {
                "start_time": 21.5545455,
                "end_time": 21.7227273,
                "pitch": 79,
                "velocity": 10,
                "duration": 0.1681818,
                "tempo": 120.0
            },
            {
                "start_time": 21.7227273,
                "end_time": 21.8931818,
                "pitch": 67,
                "velocity": 10,
                "duration": 0.1704545,
                "tempo": 120.0
            },
            {
                "start_time": 21.7227273,
                "end_time": 21.8931818,
                "pitch": 79,
                "velocity": 10,
                "duration": 0.1704545,
                "tempo": 120.0
            },
            {
                "start_time": 21.8931818,
                "end_time": 22.0613636,
                "pitch": 67,
                "velocity": 10,
                "duration": 0.1681818,
                "tempo": 120.0
            },
            {
                "start_time": 21.8931818,
                "end_time": 22.0613636,
                "pitch": 79,
                "velocity": 10,
                "duration": 0.1681818,
                "tempo": 120.0
            },
            {
                "start_time": 22.0613636,
                "end_time": 22.2295455,
                "pitch": 67,
                "velocity": 10,
                "duration": 0.1681818,
                "tempo": 120.0
            },
            {
                "start_time": 22.0613636,
                "end_time": 22.2295455,
                "pitch": 79,
                "velocity": 10,
                "duration": 0.1681818,
                "tempo": 120.0
            },
            {
                "start_time": 22.2295455,
                "end_time": 22.3977273,
                "pitch": 67,
                "velocity": 10,
                "duration": 0.1681818,
                "tempo": 120.0
            },
            {
                "start_time": 22.2295455,
                "end_time": 22.3977273,
                "pitch": 79,
                "velocity": 10,
                "duration": 0.1681818,
                "tempo": 120.0
            },
            {
                "start_time": 22.3977273,
                "end_time": 22.5659091,
                "pitch": 67,
                "velocity": 10,
                "duration": 0.1681818,
                "tempo": 120.0
            },
            {
                "start_time": 22.3977273,
                "end_time": 22.5659091,
                "pitch": 79,
                "velocity": 10,
                "duration": 0.1681818,
                "tempo": 120.0
            },
            {
                "start_time": 22.5659091,
                "end_time": 22.65,
                "pitch": 67,
                "velocity": 10,
                "duration": 0.0840909,
                "tempo": 120.0
            },
            {
                "start_time": 22.65,
                "end_time": 25.2545455,
                "pitch": 69,
                "velocity": 10,
                "duration": 2.6045455,
                "tempo": 120.0
            },
            {
                "start_time": 22.5659091,
                "end_time": 25.2545455,
                "pitch": 79,
                "velocity": 10,
                "duration": 2.6886364,
                "tempo": 120.0
            },
            {
                "start_time": 25.2545455,
                "end_time": 25.4204545,
                "pitch": 67,
                "velocity": 10,
                "duration": 0.1659091,
                "tempo": 120.0
            },
            {
                "start_time": 25.2545455,
                "end_time": 25.4204545,
                "pitch": 79,
                "velocity": 10,
                "duration": 0.1659091,
                "tempo": 120.0
            },
            {
                "start_time": 25.4204545,
                "end_time": 25.5818182,
                "pitch": 67,
                "velocity": 10,
                "duration": 0.1613636,
                "tempo": 120.0
            },
            {
                "start_time": 25.4204545,
                "end_time": 25.5818182,
                "pitch": 79,
                "velocity": 10,
                "duration": 0.1613636,
                "tempo": 120.0
            },
            {
                "start_time": 25.5818182,
                "end_time": 25.7409091,
                "pitch": 67,
                "velocity": 10,
                "duration": 0.1590909,
                "tempo": 120.0
            },
            {
                "start_time": 25.5818182,
                "end_time": 25.7409091,
                "pitch": 79,
                "velocity": 10,
                "duration": 0.1590909,
                "tempo": 120.0
            },
            {
                "start_time": 25.7409091,
                "end_time": 25.9,
                "pitch": 67,
                "velocity": 10,
                "duration": 0.1590909,
                "tempo": 120.0
            },
            {
                "start_time": 25.7409091,
                "end_time": 25.9,
                "pitch": 79,
                "velocity": 10,
                "duration": 0.1590909,
                "tempo": 120.0
            },
            {
                "start_time": 25.9,
                "end_time": 26.0590909,
                "pitch": 67,
                "velocity": 10,
                "duration": 0.1590909,
                "tempo": 120.0
            },
            {
                "start_time": 25.9,
                "end_time": 26.0590909,
                "pitch": 79,
                "velocity": 10,
                "duration": 0.1590909,
                "tempo": 120.0
            },
            {
                "start_time": 26.0590909,
                "end_time": 26.2318182,
                "pitch": 67,
                "velocity": 10,
                "duration": 0.1727273,
                "tempo": 120.0
            },
            {
                "start_time": 26.0590909,
                "end_time": 26.2318182,
                "pitch": 79,
                "velocity": 10,
                "duration": 0.1727273,
                "tempo": 120.0
            },
            {
                "start_time": 26.2318182,
                "end_time": 26.4068182,
                "pitch": 67,
                "velocity": 10,
                "duration": 0.175,
                "tempo": 120.0
            },
            {
                "start_time": 26.2318182,
                "end_time": 26.4068182,
                "pitch": 79,
                "velocity": 10,
                "duration": 0.175,
                "tempo": 120.0
            },
            {
                "start_time": 26.4068182,
                "end_time": 26.5795455,
                "pitch": 67,
                "velocity": 10,
                "duration": 0.1727273,
                "tempo": 120.0
            },
            {
                "start_time": 26.4068182,
                "end_time": 26.5795455,
                "pitch": 79,
                "velocity": 10,
                "duration": 0.1727273,
                "tempo": 120.0
            },
            {
                "start_time": 26.5795455,
                "end_time": 26.7431818,
                "pitch": 67,
                "velocity": 10,
                "duration": 0.1636364,
                "tempo": 120.0
            },
            {
                "start_time": 26.5795455,
                "end_time": 26.7431818,
                "pitch": 79,
                "velocity": 10,
                "duration": 0.1636364,
                "tempo": 120.0
            },
            {
                "start_time": 26.7431818,
                "end_time": 26.9,
                "pitch": 67,
                "velocity": 10,
                "duration": 0.1568182,
                "tempo": 120.0
            },
            {
                "start_time": 26.7431818,
                "end_time": 26.9,
                "pitch": 79,
                "velocity": 10,
                "duration": 0.1568182,
                "tempo": 120.0
            },
            {
                "start_time": 26.9,
                "end_time": 27.0545455,
                "pitch": 67,
                "velocity": 10,
                "duration": 0.1545455,
                "tempo": 120.0
            },
            {
                "start_time": 26.9,
                "end_time": 27.0545455,
                "pitch": 79,
                "velocity": 10,
                "duration": 0.1545455,
                "tempo": 120.0
            },
            {
                "start_time": 27.0545455,
                "end_time": 27.2113636,
                "pitch": 67,
                "velocity": 10,
                "duration": 0.1568182,
                "tempo": 120.0
            },
            {
                "start_time": 27.0545455,
                "end_time": 27.2113636,
                "pitch": 79,
                "velocity": 10,
                "duration": 0.1568182,
                "tempo": 120.0
            },
            {
                "start_time": 27.2113636,
                "end_time": 27.3795455,
                "pitch": 67,
                "velocity": 10,
                "duration": 0.1681818,
                "tempo": 120.0
            },
            {
                "start_time": 27.2113636,
                "end_time": 27.3795455,
                "pitch": 79,
                "velocity": 10,
                "duration": 0.1681818,
                "tempo": 120.0
            },
            {
                "start_time": 27.3795455,
                "end_time": 27.5477273,
                "pitch": 67,
                "velocity": 10,
                "duration": 0.1681818,
                "tempo": 120.0
            },
            {
                "start_time": 27.3795455,
                "end_time": 27.5477273,
                "pitch": 79,
                "velocity": 10,
                "duration": 0.1681818,
                "tempo": 120.0
            },
            {
                "start_time": 27.5477273,
                "end_time": 27.7159091,
                "pitch": 67,
                "velocity": 10,
                "duration": 0.1681818,
                "tempo": 120.0
            },
            {
                "start_time": 27.5477273,
                "end_time": 27.7159091,
                "pitch": 79,
                "velocity": 10,
                "duration": 0.1681818,
                "tempo": 120.0
            },
            {
                "start_time": 27.7159091,
                "end_time": 27.8727273,
                "pitch": 67,
                "velocity": 10,
                "duration": 0.1568182,
                "tempo": 120.0
            },
            {
                "start_time": 27.8727273,
                "end_time": 30.6204545,
                "pitch": 69,
                "velocity": 10,
                "duration": 2.7477273,
                "tempo": 120.0
            },
            {
                "start_time": 27.7159091,
                "end_time": 30.6204545,
                "pitch": 79,
                "velocity": 10,
                "duration": 2.9045455,
                "tempo": 120.0
            },
            {
                "start_time": 30.6204545,
                "end_time": 30.7886364,
                "pitch": 67,
                "velocity": 10,
                "duration": 0.1681818,
                "tempo": 120.0
            },
            {
                "start_time": 30.6204545,
                "end_time": 30.7886364,
                "pitch": 79,
                "velocity": 10,
                "duration": 0.1681818,
                "tempo": 120.0
            },
            {
                "start_time": 30.7886364,
                "end_time": 30.9568182,
                "pitch": 67,
                "velocity": 10,
                "duration": 0.1681818,
                "tempo": 120.0
            },
            {
                "start_time": 30.7886364,
                "end_time": 30.9568182,
                "pitch": 79,
                "velocity": 10,
                "duration": 0.1681818,
                "tempo": 120.0
            },
            {
                "start_time": 30.9568182,
                "end_time": 31.125,
                "pitch": 67,
                "velocity": 10,
                "duration": 0.1681818,
                "tempo": 120.0
            },
            {
                "start_time": 30.9568182,
                "end_time": 31.125,
                "pitch": 79,
                "velocity": 10,
                "duration": 0.1681818,
                "tempo": 120.0
            },
            {
                "start_time": 31.125,
                "end_time": 31.2909091,
                "pitch": 67,
                "velocity": 10,
                "duration": 0.1659091,
                "tempo": 120.0
            },
            {
                "start_time": 31.125,
                "end_time": 31.2909091,
                "pitch": 79,
                "velocity": 10,
                "duration": 0.1659091,
                "tempo": 120.0
            },
            {
                "start_time": 31.2909091,
                "end_time": 31.4590909,
                "pitch": 67,
                "velocity": 10,
                "duration": 0.1681818,
                "tempo": 120.0
            },
            {
                "start_time": 31.2909091,
                "end_time": 31.4590909,
                "pitch": 79,
                "velocity": 10,
                "duration": 0.1681818,
                "tempo": 120.0
            },
            {
                "start_time": 31.4590909,
                "end_time": 31.625,
                "pitch": 67,
                "velocity": 10,
                "duration": 0.1659091,
                "tempo": 120.0
            },
            {
                "start_time": 31.4590909,
                "end_time": 31.625,
                "pitch": 79,
                "velocity": 10,
                "duration": 0.1659091,
                "tempo": 120.0
            },
            {
                "start_time": 31.625,
                "end_time": 31.7954545,
                "pitch": 67,
                "velocity": 10,
                "duration": 0.1704545,
                "tempo": 120.0
            },
            {
                "start_time": 31.625,
                "end_time": 31.7954545,
                "pitch": 79,
                "velocity": 10,
                "duration": 0.1704545,
                "tempo": 120.0
            },
            {
                "start_time": 31.7954545,
                "end_time": 31.9636364,
                "pitch": 67,
                "velocity": 10,
                "duration": 0.1681818,
                "tempo": 120.0
            },
            {
                "start_time": 31.7954545,
                "end_time": 31.9636364,
                "pitch": 79,
                "velocity": 10,
                "duration": 0.1681818,
                "tempo": 120.0
            },
            {
                "start_time": 31.9636364,
                "end_time": 32.1318182,
                "pitch": 67,
                "velocity": 10,
                "duration": 0.1681818,
                "tempo": 120.0
            },
            {
                "start_time": 31.9636364,
                "end_time": 32.1318182,
                "pitch": 79,
                "velocity": 10,
                "duration": 0.1681818,
                "tempo": 120.0
            },
            {
                "start_time": 32.1318182,
                "end_time": 32.2977273,
                "pitch": 67,
                "velocity": 10,
                "duration": 0.1659091,
                "tempo": 120.0
            },
            {
                "start_time": 32.1318182,
                "end_time": 32.2977273,
                "pitch": 79,
                "velocity": 10,
                "duration": 0.1659091,
                "tempo": 120.0
            },
            {
                "start_time": 32.2977273,
                "end_time": 32.4659091,
                "pitch": 67,
                "velocity": 10,
                "duration": 0.1681818,
                "tempo": 120.0
            },
            {
                "start_time": 32.2977273,
                "end_time": 32.4659091,
                "pitch": 79,
                "velocity": 10,
                "duration": 0.1681818,
                "tempo": 120.0
            },
            {
                "start_time": 32.4659091,
                "end_time": 32.6318182,
                "pitch": 67,
                "velocity": 10,
                "duration": 0.1659091,
                "tempo": 120.0
            },
            {
                "start_time": 32.4659091,
                "end_time": 32.6318182,
                "pitch": 79,
                "velocity": 10,
                "duration": 0.1659091,
                "tempo": 120.0
            },
            {
                "start_time": 32.6318182,
                "end_time": 32.8,
                "pitch": 67,
                "velocity": 10,
                "duration": 0.1681818,
                "tempo": 120.0
            },
            {
                "start_time": 32.6318182,
                "end_time": 32.8,
                "pitch": 79,
                "velocity": 10,
                "duration": 0.1681818,
                "tempo": 120.0
            },
            {
                "start_time": 32.8,
                "end_time": 32.975,
                "pitch": 67,
                "velocity": 10,
                "duration": 0.175,
                "tempo": 120.0
            },
            {
                "start_time": 32.8,
                "end_time": 32.975,
                "pitch": 79,
                "velocity": 10,
                "duration": 0.175,
                "tempo": 120.0
            },
            {
                "start_time": 32.975,
                "end_time": 33.1477273,
                "pitch": 67,
                "velocity": 10,
                "duration": 0.1727273,
                "tempo": 120.0
            },
            {
                "start_time": 32.975,
                "end_time": 33.1477273,
                "pitch": 79,
                "velocity": 10,
                "duration": 0.1727273,
                "tempo": 120.0
            },
            {
                "start_time": 33.1477273,
                "end_time": 33.3227273,
                "pitch": 67,
                "velocity": 10,
                "duration": 0.175,
                "tempo": 120.0
            },
            {
                "start_time": 33.1477273,
                "end_time": 33.3227273,
                "pitch": 79,
                "velocity": 10,
                "duration": 0.175,
                "tempo": 120.0
            },
            {
                "start_time": 33.3227273,
                "end_time": 33.4909091,
                "pitch": 67,
                "velocity": 10,
                "duration": 0.1681818,
                "tempo": 120.0
            },
            {
                "start_time": 33.3227273,
                "end_time": 33.4909091,
                "pitch": 79,
                "velocity": 10,
                "duration": 0.1681818,
                "tempo": 120.0
            },
            {
                "start_time": 33.4909091,
                "end_time": 33.6545455,
                "pitch": 67,
                "velocity": 10,
                "duration": 0.1636364,
                "tempo": 120.0
            },
            {
                "start_time": 33.4909091,
                "end_time": 33.6545455,
                "pitch": 79,
                "velocity": 10,
                "duration": 0.1636364,
                "tempo": 120.0
            },
            {
                "start_time": 33.6545455,
                "end_time": 33.8204545,
                "pitch": 67,
                "velocity": 10,
                "duration": 0.1659091,
                "tempo": 120.0
            },
            {
                "start_time": 33.6545455,
                "end_time": 33.8204545,
                "pitch": 79,
                "velocity": 10,
                "duration": 0.1659091,
                "tempo": 120.0
            },
            {
                "start_time": 33.8204545,
                "end_time": 33.9863636,
                "pitch": 67,
                "velocity": 10,
                "duration": 0.1659091,
                "tempo": 120.0
            },
            {
                "start_time": 33.8204545,
                "end_time": 33.9863636,
                "pitch": 79,
                "velocity": 10,
                "duration": 0.1659091,
                "tempo": 120.0
            },
            {
                "start_time": 33.9863636,
                "end_time": 34.1522727,
                "pitch": 67,
                "velocity": 10,
                "duration": 0.1659091,
                "tempo": 120.0
            },
            {
                "start_time": 33.9863636,
                "end_time": 34.1522727,
                "pitch": 79,
                "velocity": 10,
                "duration": 0.1659091,
                "tempo": 120.0
            },
            {
                "start_time": 34.1522727,
                "end_time": 34.3204545,
                "pitch": 67,
                "velocity": 10,
                "duration": 0.1681818,
                "tempo": 120.0
            },
            {
                "start_time": 34.1522727,
                "end_time": 34.3204545,
                "pitch": 79,
                "velocity": 10,
                "duration": 0.1681818,
                "tempo": 120.0
            },
            {
                "start_time": 34.3204545,
                "end_time": 34.4863636,
                "pitch": 67,
                "velocity": 10,
                "duration": 0.1659091,
                "tempo": 120.0
            },
            {
                "start_time": 34.3204545,
                "end_time": 34.4863636,
                "pitch": 79,
                "velocity": 10,
                "duration": 0.1659091,
                "tempo": 120.0
            },
            {
                "start_time": 34.4863636,
                "end_time": 34.65,
                "pitch": 67,
                "velocity": 10,
                "duration": 0.1636364,
                "tempo": 120.0
            },
            {
                "start_time": 34.4863636,
                "end_time": 34.65,
                "pitch": 79,
                "velocity": 10,
                "duration": 0.1636364,
                "tempo": 120.0
            },
            {
                "start_time": 34.65,
                "end_time": 34.8136364,
                "pitch": 67,
                "velocity": 10,
                "duration": 0.1636364,
                "tempo": 120.0
            },
            {
                "start_time": 34.65,
                "end_time": 34.8136364,
                "pitch": 79,
                "velocity": 10,
                "duration": 0.1636364,
                "tempo": 120.0
            },
            {
                "start_time": 34.8136364,
                "end_time": 34.975,
                "pitch": 67,
                "velocity": 10,
                "duration": 0.1613636,
                "tempo": 120.0
            },
            {
                "start_time": 34.8136364,
                "end_time": 34.975,
                "pitch": 79,
                "velocity": 10,
                "duration": 0.1613636,
                "tempo": 120.0
            },
            {
                "start_time": 34.975,
                "end_time": 35.1363636,
                "pitch": 67,
                "velocity": 10,
                "duration": 0.1613636,
                "tempo": 120.0
            },
            {
                "start_time": 34.975,
                "end_time": 35.1363636,
                "pitch": 79,
                "velocity": 10,
                "duration": 0.1613636,
                "tempo": 120.0
            },
            {
                "start_time": 35.1363636,
                "end_time": 35.3090909,
                "pitch": 67,
                "velocity": 10,
                "duration": 0.1727273,
                "tempo": 120.0
            },
            {
                "start_time": 35.1363636,
                "end_time": 35.3090909,
                "pitch": 79,
                "velocity": 10,
                "duration": 0.1727273,
                "tempo": 120.0
            },
            {
                "start_time": 35.3090909,
                "end_time": 35.4840909,
                "pitch": 67,
                "velocity": 10,
                "duration": 0.175,
                "tempo": 120.0
            },
            {
                "start_time": 35.3090909,
                "end_time": 35.4840909,
                "pitch": 79,
                "velocity": 10,
                "duration": 0.175,
                "tempo": 120.0
            },
            {
                "start_time": 35.4840909,
                "end_time": 35.6568182,
                "pitch": 67,
                "velocity": 10,
                "duration": 0.1727273,
                "tempo": 120.0
            },
            {
                "start_time": 35.4840909,
                "end_time": 35.6568182,
                "pitch": 79,
                "velocity": 10,
                "duration": 0.1727273,
                "tempo": 120.0
            },
            {
                "start_time": 35.6568182,
                "end_time": 35.8295455,
                "pitch": 67,
                "velocity": 10,
                "duration": 0.1727273,
                "tempo": 120.0
            },
            {
                "start_time": 35.6568182,
                "end_time": 35.8295455,
                "pitch": 79,
                "velocity": 10,
                "duration": 0.1727273,
                "tempo": 120.0
            },
            {
                "start_time": 35.8295455,
                "end_time": 35.8795455,
                "pitch": 67,
                "velocity": 10,
                "duration": 0.05,
                "tempo": 120.0
            },
            {
                "start_time": 38.675,
                "end_time": 41.3840909,
                "pitch": 45,
                "velocity": 10,
                "duration": 2.7090909,
                "tempo": 120.0
            },
            {
                "start_time": 41.3840909,
                "end_time": 41.4363636,
                "pitch": 43,
                "velocity": 10,
                "duration": 0.0522727,
                "tempo": 120.0
            },
            {
                "start_time": 41.4363636,
                "end_time": 41.5568182,
                "pitch": 43,
                "velocity": 10,
                "duration": 0.1204545,
                "tempo": 120.0
            },
            {
                "start_time": 41.3840909,
                "end_time": 41.5568182,
                "pitch": 55,
                "velocity": 10,
                "duration": 0.1727273,
                "tempo": 120.0
            },
            {
                "start_time": 41.4363636,
                "end_time": 41.6113636,
                "pitch": 0,
                "velocity": 10,
                "duration": 0.175,
                "tempo": 120.0
            },
            {
                "start_time": 41.5568182,
                "end_time": 41.6113636,
                "pitch": 43,
                "velocity": 10,
                "duration": 0.0545455,
                "tempo": 120.0
            },
            {
                "start_time": 41.6113636,
                "end_time": 41.7318182,
                "pitch": 43,
                "velocity": 10,
                "duration": 0.1204545,
                "tempo": 120.0
            },
            {
                "start_time": 41.5568182,
                "end_time": 41.7318182,
                "pitch": 55,
                "velocity": 10,
                "duration": 0.175,
                "tempo": 120.0
            },
            {
                "start_time": 41.6113636,
                "end_time": 41.7840909,
                "pitch": 0,
                "velocity": 10,
                "duration": 0.1727273,
                "tempo": 120.0
            },
            {
                "start_time": 41.7318182,
                "end_time": 41.7840909,
                "pitch": 43,
                "velocity": 10,
                "duration": 0.0522727,
                "tempo": 120.0
            },
            {
                "start_time": 41.7840909,
                "end_time": 41.9022727,
                "pitch": 43,
                "velocity": 10,
                "duration": 0.1181818,
                "tempo": 120.0
            },
            {
                "start_time": 41.7318182,
                "end_time": 41.9022727,
                "pitch": 55,
                "velocity": 10,
                "duration": 0.1704545,
                "tempo": 120.0
            },
            {
                "start_time": 41.7840909,
                "end_time": 41.9522727,
                "pitch": 0,
                "velocity": 10,
                "duration": 0.1681818,
                "tempo": 120.0
            },
            {
                "start_time": 41.9022727,
                "end_time": 41.9522727,
                "pitch": 43,
                "velocity": 10,
                "duration": 0.05,
                "tempo": 120.0
            },
            {
                "start_time": 41.9522727,
                "end_time": 42.0636364,
                "pitch": 43,
                "velocity": 10,
                "duration": 0.1113636,
                "tempo": 120.0
            },
            {
                "start_time": 41.9022727,
                "end_time": 42.0636364,
                "pitch": 55,
                "velocity": 10,
                "duration": 0.1613636,
                "tempo": 120.0
            },
            {
                "start_time": 41.9522727,
                "end_time": 42.1136364,
                "pitch": 0,
                "velocity": 10,
                "duration": 0.1613636,
                "tempo": 120.0
            },
            {
                "start_time": 42.0636364,
                "end_time": 42.1136364,
                "pitch": 43,
                "velocity": 10,
                "duration": 0.05,
                "tempo": 120.0
            },
            {
                "start_time": 42.1136364,
                "end_time": 42.225,
                "pitch": 43,
                "velocity": 10,
                "duration": 0.1113636,
                "tempo": 120.0
            },
            {
                "start_time": 42.0636364,
                "end_time": 42.225,
                "pitch": 55,
                "velocity": 10,
                "duration": 0.1613636,
                "tempo": 120.0
            },
            {
                "start_time": 42.1136364,
                "end_time": 42.275,
                "pitch": 0,
                "velocity": 10,
                "duration": 0.1613636,
                "tempo": 120.0
            },
            {
                "start_time": 42.225,
                "end_time": 42.275,
                "pitch": 43,
                "velocity": 10,
                "duration": 0.05,
                "tempo": 120.0
            },
            {
                "start_time": 42.275,
                "end_time": 42.3886364,
                "pitch": 43,
                "velocity": 10,
                "duration": 0.1136364,
                "tempo": 120.0
            },
            {
                "start_time": 42.225,
                "end_time": 42.3886364,
                "pitch": 55,
                "velocity": 10,
                "duration": 0.1636364,
                "tempo": 120.0
            },
            {
                "start_time": 42.275,
                "end_time": 42.4363636,
                "pitch": 0,
                "velocity": 10,
                "duration": 0.1613636,
                "tempo": 120.0
            },
            {
                "start_time": 42.3886364,
                "end_time": 42.4363636,
                "pitch": 43,
                "velocity": 10,
                "duration": 0.0477273,
                "tempo": 120.0
            },
            {
                "start_time": 42.4363636,
                "end_time": 42.5545455,
                "pitch": 43,
                "velocity": 10,
                "duration": 0.1181818,
                "tempo": 120.0
            },
            {
                "start_time": 42.3886364,
                "end_time": 42.5545455,
                "pitch": 55,
                "velocity": 10,
                "duration": 0.1659091,
                "tempo": 120.0
            },
            {
                "start_time": 42.4363636,
                "end_time": 42.6068182,
                "pitch": 0,
                "velocity": 10,
                "duration": 0.1704545,
                "tempo": 120.0
            },
            {
                "start_time": 42.5545455,
                "end_time": 42.6068182,
                "pitch": 43,
                "velocity": 10,
                "duration": 0.0522727,
                "tempo": 120.0
            },
            {
                "start_time": 42.6068182,
                "end_time": 42.7227273,
                "pitch": 43,
                "velocity": 10,
                "duration": 0.1159091,
                "tempo": 120.0
            },
            {
                "start_time": 42.5545455,
                "end_time": 42.7227273,
                "pitch": 55,
                "velocity": 10,
                "duration": 0.1681818,
                "tempo": 120.0
            },
            {
                "start_time": 42.6068182,
                "end_time": 42.7727273,
                "pitch": 0,
                "velocity": 10,
                "duration": 0.1659091,
                "tempo": 120.0
            },
            {
                "start_time": 42.7227273,
                "end_time": 42.7727273,
                "pitch": 43,
                "velocity": 10,
                "duration": 0.05,
                "tempo": 120.0
            },
            {
                "start_time": 42.7727273,
                "end_time": 42.8909091,
                "pitch": 43,
                "velocity": 10,
                "duration": 0.1181818,
                "tempo": 120.0
            },
            {
                "start_time": 42.7227273,
                "end_time": 42.8909091,
                "pitch": 55,
                "velocity": 10,
                "duration": 0.1681818,
                "tempo": 120.0
            },
            {
                "start_time": 42.7727273,
                "end_time": 42.9431818,
                "pitch": 0,
                "velocity": 10,
                "duration": 0.1704545,
                "tempo": 120.0
            },
            {
                "start_time": 42.8909091,
                "end_time": 42.9431818,
                "pitch": 43,
                "velocity": 10,
                "duration": 0.0522727,
                "tempo": 120.0
            },
            {
                "start_time": 42.9431818,
                "end_time": 43.0590909,
                "pitch": 43,
                "velocity": 10,
                "duration": 0.1159091,
                "tempo": 120.0
            },
            {
                "start_time": 42.8909091,
                "end_time": 43.0590909,
                "pitch": 55,
                "velocity": 10,
                "duration": 0.1681818,
                "tempo": 120.0
            },
            {
                "start_time": 42.9431818,
                "end_time": 43.1113636,
                "pitch": 0,
                "velocity": 10,
                "duration": 0.1681818,
                "tempo": 120.0
            },
            {
                "start_time": 43.0590909,
                "end_time": 43.1113636,
                "pitch": 43,
                "velocity": 10,
                "duration": 0.0522727,
                "tempo": 120.0
            },
            {
                "start_time": 43.1113636,
                "end_time": 43.2295455,
                "pitch": 43,
                "velocity": 10,
                "duration": 0.1181818,
                "tempo": 120.0
            },
            {
                "start_time": 43.0590909,
                "end_time": 43.2295455,
                "pitch": 55,
                "velocity": 10,
                "duration": 0.1704545,
                "tempo": 120.0
            },
            {
                "start_time": 43.1113636,
                "end_time": 43.2795455,
                "pitch": 0,
                "velocity": 10,
                "duration": 0.1681818,
                "tempo": 120.0
            },
            {
                "start_time": 43.2295455,
                "end_time": 43.2795455,
                "pitch": 43,
                "velocity": 10,
                "duration": 0.05,
                "tempo": 120.0
            },
            {
                "start_time": 43.2795455,
                "end_time": 43.3977273,
                "pitch": 43,
                "velocity": 10,
                "duration": 0.1181818,
                "tempo": 120.0
            },
            {
                "start_time": 43.2295455,
                "end_time": 43.3977273,
                "pitch": 55,
                "velocity": 10,
                "duration": 0.1681818,
                "tempo": 120.0
            },
            {
                "start_time": 43.2795455,
                "end_time": 43.4477273,
                "pitch": 0,
                "velocity": 10,
                "duration": 0.1681818,
                "tempo": 120.0
            },
            {
                "start_time": 43.3977273,
                "end_time": 43.4477273,
                "pitch": 43,
                "velocity": 10,
                "duration": 0.05,
                "tempo": 120.0
            },
            {
                "start_time": 43.4477273,
                "end_time": 43.5659091,
                "pitch": 43,
                "velocity": 10,
                "duration": 0.1181818,
                "tempo": 120.0
            },
            {
                "start_time": 43.3977273,
                "end_time": 43.5659091,
                "pitch": 55,
                "velocity": 10,
                "duration": 0.1681818,
                "tempo": 120.0
            },
            {
                "start_time": 43.4477273,
                "end_time": 43.6181818,
                "pitch": 0,
                "velocity": 10,
                "duration": 0.1704545,
                "tempo": 120.0
            },
            {
                "start_time": 43.5659091,
                "end_time": 43.6181818,
                "pitch": 43,
                "velocity": 10,
                "duration": 0.0522727,
                "tempo": 120.0
            },
            {
                "start_time": 43.6181818,
                "end_time": 43.7340909,
                "pitch": 43,
                "velocity": 10,
                "duration": 0.1159091,
                "tempo": 120.0
            },
            {
                "start_time": 43.5659091,
                "end_time": 43.7340909,
                "pitch": 55,
                "velocity": 10,
                "duration": 0.1681818,
                "tempo": 120.0
            },
            {
                "start_time": 43.6181818,
                "end_time": 43.7840909,
                "pitch": 0,
                "velocity": 10,
                "duration": 0.1659091,
                "tempo": 120.0
            },
            {
                "start_time": 43.7340909,
                "end_time": 43.7840909,
                "pitch": 43,
                "velocity": 10,
                "duration": 0.05,
                "tempo": 120.0
            },
            {
                "start_time": 43.7840909,
                "end_time": 43.9,
                "pitch": 43,
                "velocity": 10,
                "duration": 0.1159091,
                "tempo": 120.0
            },
            {
                "start_time": 43.7340909,
                "end_time": 43.9,
                "pitch": 55,
                "velocity": 10,
                "duration": 0.1659091,
                "tempo": 120.0
            },
            {
                "start_time": 43.7840909,
                "end_time": 43.9522727,
                "pitch": 0,
                "velocity": 10,
                "duration": 0.1681818,
                "tempo": 120.0
            },
            {
                "start_time": 43.9,
                "end_time": 43.9522727,
                "pitch": 43,
                "velocity": 10,
                "duration": 0.0522727,
                "tempo": 120.0
            },
            {
                "start_time": 43.9522727,
                "end_time": 44.0681818,
                "pitch": 43,
                "velocity": 10,
                "duration": 0.1159091,
                "tempo": 120.0
            },
            {
                "start_time": 43.9,
                "end_time": 44.0681818,
                "pitch": 55,
                "velocity": 10,
                "duration": 0.1681818,
                "tempo": 120.0
            },
            {
                "start_time": 43.9522727,
                "end_time": 44.1181818,
                "pitch": 0,
                "velocity": 10,
                "duration": 0.1659091,
                "tempo": 120.0
            },
            {
                "start_time": 44.0681818,
                "end_time": 44.1181818,
                "pitch": 43,
                "velocity": 10,
                "duration": 0.05,
                "tempo": 120.0
            },
            {
                "start_time": 44.1181818,
                "end_time": 44.2340909,
                "pitch": 43,
                "velocity": 10,
                "duration": 0.1159091,
                "tempo": 120.0
            },
            {
                "start_time": 44.0681818,
                "end_time": 44.2340909,
                "pitch": 55,
                "velocity": 10,
                "duration": 0.1659091,
                "tempo": 120.0
            },
            {
                "start_time": 44.1181818,
                "end_time": 44.2840909,
                "pitch": 0,
                "velocity": 10,
                "duration": 0.1659091,
                "tempo": 120.0
            },
            {
                "start_time": 44.2340909,
                "end_time": 44.2840909,
                "pitch": 43,
                "velocity": 10,
                "duration": 0.05,
                "tempo": 120.0
            },
            {
                "start_time": 44.2840909,
                "end_time": 44.4022727,
                "pitch": 43,
                "velocity": 10,
                "duration": 0.1181818,
                "tempo": 120.0
            },
            {
                "start_time": 44.2340909,
                "end_time": 44.4022727,
                "pitch": 55,
                "velocity": 10,
                "duration": 0.1681818,
                "tempo": 120.0
            },
            {
                "start_time": 44.2840909,
                "end_time": 44.4522727,
                "pitch": 0,
                "velocity": 10,
                "duration": 0.1681818,
                "tempo": 120.0
            },
            {
                "start_time": 44.4022727,
                "end_time": 44.4522727,
                "pitch": 43,
                "velocity": 10,
                "duration": 0.05,
                "tempo": 120.0
            },
            {
                "start_time": 44.4522727,
                "end_time": 44.5704545,
                "pitch": 43,
                "velocity": 10,
                "duration": 0.1181818,
                "tempo": 120.0
            },
            {
                "start_time": 44.4022727,
                "end_time": 44.5704545,
                "pitch": 55,
                "velocity": 10,
                "duration": 0.1681818,
                "tempo": 120.0
            },
            {
                "start_time": 44.4522727,
                "end_time": 44.6227273,
                "pitch": 0,
                "velocity": 10,
                "duration": 0.1704545,
                "tempo": 120.0
            },
            {
                "start_time": 44.5704545,
                "end_time": 44.6227273,
                "pitch": 43,
                "velocity": 10,
                "duration": 0.0522727,
                "tempo": 120.0
            },
            {
                "start_time": 44.6227273,
                "end_time": 44.7386364,
                "pitch": 43,
                "velocity": 10,
                "duration": 0.1159091,
                "tempo": 120.0
            },
            {
                "start_time": 44.5704545,
                "end_time": 44.7386364,
                "pitch": 55,
                "velocity": 10,
                "duration": 0.1681818,
                "tempo": 120.0
            },
            {
                "start_time": 44.6227273,
                "end_time": 44.7909091,
                "pitch": 0,
                "velocity": 10,
                "duration": 0.1681818,
                "tempo": 120.0
            },
            {
                "start_time": 44.7386364,
                "end_time": 44.7909091,
                "pitch": 43,
                "velocity": 10,
                "duration": 0.0522727,
                "tempo": 120.0
            },
            {
                "start_time": 44.7909091,
                "end_time": 44.9090909,
                "pitch": 43,
                "velocity": 10,
                "duration": 0.1181818,
                "tempo": 120.0
            },
            {
                "start_time": 44.7386364,
                "end_time": 44.9090909,
                "pitch": 55,
                "velocity": 10,
                "duration": 0.1704545,
                "tempo": 120.0
            },
            {
                "start_time": 44.7909091,
                "end_time": 44.9590909,
                "pitch": 0,
                "velocity": 10,
                "duration": 0.1681818,
                "tempo": 120.0
            },
            {
                "start_time": 44.9090909,
                "end_time": 44.9590909,
                "pitch": 43,
                "velocity": 10,
                "duration": 0.05,
                "tempo": 120.0
            },
            {
                "start_time": 44.9590909,
                "end_time": 45.0772727,
                "pitch": 43,
                "velocity": 10,
                "duration": 0.1181818,
                "tempo": 120.0
            },
            {
                "start_time": 44.9090909,
                "end_time": 45.0772727,
                "pitch": 55,
                "velocity": 10,
                "duration": 0.1681818,
                "tempo": 120.0
            },
            {
                "start_time": 44.9590909,
                "end_time": 45.1272727,
                "pitch": 0,
                "velocity": 10,
                "duration": 0.1681818,
                "tempo": 120.0
            },
            {
                "start_time": 45.0772727,
                "end_time": 45.1272727,
                "pitch": 43,
                "velocity": 10,
                "duration": 0.05,
                "tempo": 120.0
            },
            {
                "start_time": 45.1272727,
                "end_time": 45.2454545,
                "pitch": 43,
                "velocity": 10,
                "duration": 0.1181818,
                "tempo": 120.0
            },
            {
                "start_time": 45.0772727,
                "end_time": 45.2454545,
                "pitch": 55,
                "velocity": 10,
                "duration": 0.1681818,
                "tempo": 120.0
            },
            {
                "start_time": 45.2454545,
                "end_time": 45.2954545,
                "pitch": 43,
                "velocity": 10,
                "duration": 0.05,
                "tempo": 120.0
            },
            {
                "start_time": 45.1272727,
                "end_time": 45.2977273,
                "pitch": 0,
                "velocity": 10,
                "duration": 0.1704545,
                "tempo": 120.0
            },
            {
                "start_time": 45.2954545,
                "end_time": 45.2977273,
                "pitch": 0,
                "velocity": 10,
                "duration": 0.0022727,
                "tempo": 120.0
            },
            {
                "start_time": 45.2977273,
                "end_time": 45.4136364,
                "pitch": 43,
                "velocity": 10,
                "duration": 0.1159091,
                "tempo": 120.0
            },
            {
                "start_time": 45.2454545,
                "end_time": 45.4136364,
                "pitch": 55,
                "velocity": 10,
                "duration": 0.1681818,
                "tempo": 120.0
            },
            {
                "start_time": 45.4136364,
                "end_time": 45.4659091,
                "pitch": 43,
                "velocity": 10,
                "duration": 0.0522727,
                "tempo": 120.0
            },
            {
                "start_time": 45.4659091,
                "end_time": 45.5818182,
                "pitch": 43,
                "velocity": 10,
                "duration": 0.1159091,
                "tempo": 120.0
            },
            {
                "start_time": 45.4136364,
                "end_time": 45.5818182,
                "pitch": 55,
                "velocity": 10,
                "duration": 0.1681818,
                "tempo": 120.0
            },
            {
                "start_time": 45.4659091,
                "end_time": 45.6340909,
                "pitch": 0,
                "velocity": 10,
                "duration": 0.1681818,
                "tempo": 120.0
            },
            {
                "start_time": 45.5818182,
                "end_time": 45.6340909,
                "pitch": 43,
                "velocity": 10,
                "duration": 0.0522727,
                "tempo": 120.0
            },
            {
                "start_time": 45.6340909,
                "end_time": 45.75,
                "pitch": 43,
                "velocity": 10,
                "duration": 0.1159091,
                "tempo": 120.0
            },
            {
                "start_time": 45.5818182,
                "end_time": 45.7522727,
                "pitch": 55,
                "velocity": 10,
                "duration": 0.1704545,
                "tempo": 120.0
            },
            {
                "start_time": 45.75,
                "end_time": 45.7522727,
                "pitch": 55,
                "velocity": 10,
                "duration": 0.0022727,
                "tempo": 120.0
            },
            {
                "start_time": 45.6340909,
                "end_time": 45.8022727,
                "pitch": 0,
                "velocity": 10,
                "duration": 0.1681818,
                "tempo": 120.0
            },
            {
                "start_time": 45.7522727,
                "end_time": 45.8022727,
                "pitch": 43,
                "velocity": 10,
                "duration": 0.05,
                "tempo": 120.0
            },
            {
                "start_time": 45.8022727,
                "end_time": 45.9204545,
                "pitch": 43,
                "velocity": 10,
                "duration": 0.1181818,
                "tempo": 120.0
            },
            {
                "start_time": 45.8022727,
                "end_time": 45.9704545,
                "pitch": 0,
                "velocity": 10,
                "duration": 0.1681818,
                "tempo": 120.0
            },
            {
                "start_time": 45.9204545,
                "end_time": 45.9704545,
                "pitch": 43,
                "velocity": 10,
                "duration": 0.05,
                "tempo": 120.0
            },
            {
                "start_time": 45.9704545,
                "end_time": 46.0886364,
                "pitch": 43,
                "velocity": 10,
                "duration": 0.1181818,
                "tempo": 120.0
            },
            {
                "start_time": 45.9204545,
                "end_time": 46.0886364,
                "pitch": 55,
                "velocity": 10,
                "duration": 0.1681818,
                "tempo": 120.0
            },
            {
                "start_time": 45.9704545,
                "end_time": 46.1386364,
                "pitch": 0,
                "velocity": 10,
                "duration": 0.1681818,
                "tempo": 120.0
            },
            {
                "start_time": 46.0886364,
                "end_time": 46.1386364,
                "pitch": 43,
                "velocity": 10,
                "duration": 0.05,
                "tempo": 120.0
            },
            {
                "start_time": 46.1386364,
                "end_time": 46.2568182,
                "pitch": 43,
                "velocity": 10,
                "duration": 0.1181818,
                "tempo": 120.0
            },
            {
                "start_time": 46.0886364,
                "end_time": 46.2568182,
                "pitch": 55,
                "velocity": 10,
                "duration": 0.1681818,
                "tempo": 120.0
            },
            {
                "start_time": 46.1386364,
                "end_time": 46.3090909,
                "pitch": 0,
                "velocity": 10,
                "duration": 0.1704545,
                "tempo": 120.0
            },
            {
                "start_time": 46.2568182,
                "end_time": 46.3090909,
                "pitch": 43,
                "velocity": 10,
                "duration": 0.0522727,
                "tempo": 120.0
            },
            {
                "start_time": 46.3090909,
                "end_time": 46.425,
                "pitch": 43,
                "velocity": 10,
                "duration": 0.1159091,
                "tempo": 120.0
            },
            {
                "start_time": 46.2568182,
                "end_time": 46.425,
                "pitch": 55,
                "velocity": 10,
                "duration": 0.1681818,
                "tempo": 120.0
            },
            {
                "start_time": 46.3090909,
                "end_time": 46.475,
                "pitch": 0,
                "velocity": 10,
                "duration": 0.1659091,
                "tempo": 120.0
            },
            {
                "start_time": 46.425,
                "end_time": 46.475,
                "pitch": 43,
                "velocity": 10,
                "duration": 0.05,
                "tempo": 120.0
            },
            {
                "start_time": 46.475,
                "end_time": 46.5931818,
                "pitch": 43,
                "velocity": 10,
                "duration": 0.1181818,
                "tempo": 120.0
            },
            {
                "start_time": 46.425,
                "end_time": 46.5931818,
                "pitch": 55,
                "velocity": 10,
                "duration": 0.1681818,
                "tempo": 120.0
            },
            {
                "start_time": 46.475,
                "end_time": 46.6454545,
                "pitch": 0,
                "velocity": 10,
                "duration": 0.1704545,
                "tempo": 120.0
            },
            {
                "start_time": 46.5931818,
                "end_time": 46.6454545,
                "pitch": 43,
                "velocity": 10,
                "duration": 0.0522727,
                "tempo": 120.0
            },
            {
                "start_time": 50.6931818,
                "end_time": 51.3068182,
                "pitch": 69,
                "velocity": 10,
                "duration": 0.6136364,
                "tempo": 120.0
            }
        ]
    }
}