{
    "mood": "angry",
    "instruments": {
        "Electric Piano 1": [
            {
                "start_time": 30.1340909,
                "end_time": 30.2318182,
                "pitch": 91,
                "velocity": 51,
                "duration": 0.0977273,
                "tempo": 120.0
            },
            {
                "start_time": 30.2318182,
                "end_time": 30.3295455,
                "pitch": 91,
                "velocity": 51,
                "duration": 0.0977273,
                "tempo": 120.0
            },
            {
                "start_time": 30.3318182,
                "end_time": 30.4295455,
                "pitch": 88,
                "velocity": 51,
                "duration": 0.0977273,
                "tempo": 120.0
            },
            {
                "start_time": 30.4318182,
                "end_time": 30.5295455,
                "pitch": 84,
                "velocity": 51,
                "duration": 0.0977273,
                "tempo": 120.0
            },
            {
                "start_time": 30.5318182,
                "end_time": 30.6295455,
                "pitch": 81,
                "velocity": 51,
                "duration": 0.0977273,
                "tempo": 120.0
            },
            {
                "start_time": 30.6318182,
                "end_time": 30.7318182,
                "pitch": 77,
                "velocity": 51,
                "duration": 0.1,
                "tempo": 120.0
            },
            {
                "start_time": 30.7318182,
                "end_time": 30.8340909,
                "pitch": 76,
                "velocity": 51,
                "duration": 0.1022727,
                "tempo": 120.0
            },
            {
                "start_time": 30.8340909,
                "end_time": 30.9363636,
                "pitch": 72,
                "velocity": 51,
                "duration": 0.1022727,
                "tempo": 120.0
            },
            {
                "start_time": 30.9363636,
                "end_time": 31.0386364,
                "pitch": 69,
                "velocity": 51,
                "duration": 0.1022727,
                "tempo": 120.0
            },
            {
                "start_time": 31.0386364,
                "end_time": 31.1431818,
                "pitch": 67,
                "velocity": 51,
                "duration": 0.1045455,
                "tempo": 120.0
            },
            {
                "start_time": 31.1431818,
                "end_time": 31.1931818,
                "pitch": 67,
                "velocity": 51,
                "duration": 0.05,
                "tempo": 120.0
            },
            {
                "start_time": 31.1931818,
                "end_time": 31.2431818,
                "pitch": 69,
                "velocity": 51,
                "duration": 0.05,
                "tempo": 120.0
            },
            {
                "start_time": 31.2431818,
                "end_time": 31.2931818,
                "pitch": 72,
                "velocity": 51,
                "duration": 0.05,
                "tempo": 120.0
            },
            {
                "start_time": 31.2931818,
                "end_time": 31.3431818,
                "pitch": 76,
                "velocity": 51,
                "duration": 0.05,
                "tempo": 120.0
            },
            {
                "start_time": 31.3431818,
                "end_time": 31.3931818,
                "pitch": 77,
                "velocity": 51,
                "duration": 0.05,
                "tempo": 120.0
            },
            {
                "start_time": 31.3931818,
                "end_time": 31.4431818,
                "pitch": 81,
                "velocity": 51,
                "duration": 0.05,
                "tempo": 120.0
            },
            {
                "start_time": 31.4431818,
                "end_time": 31.4931818,
                "pitch": 84,
                "velocity": 51,
                "duration": 0.05,
                "tempo": 120.0
            },
            {
                "start_time": 31.4931818,
                "end_time": 31.5431818,
                "pitch": 88,
                "velocity": 51,
                "duration": 0.05,
                "tempo": 120.0
            },
            {
                "start_time": 31.5431818,
                "end_time": 31.5931818,
                "pitch": 90,
                "velocity": 51,
                "duration": 0.05,
                "tempo": 120.0
            },
            {
                "start_time": 31.5931818,
                "end_time": 31.6431818,
                "pitch": 93,
                "velocity": 51,
                "duration": 0.05,
                "tempo": 120.0
            },
            {
                "start_time": 31.7454545,
                "end_time": 31.9454545,
                "pitch": 79,
                "velocity": 51,
                "duration": 0.2,
                "tempo": 120.0
            },
            {
                "start_time": 31.9454545,
                "end_time": 32.1454545,
                "pitch": 86,
                "velocity": 51,
                "duration": 0.2,
                "tempo": 120.0
            },
            {
                "start_time": 32.1477273,
                "end_time": 32.3477273,
                "pitch": 79,
                "velocity": 51,
                "duration": 0.2,
                "tempo": 120.0
            },
            {
                "start_time": 32.3477273,
                "end_time": 32.5477273,
                "pitch": 82,
                "velocity": 51,
                "duration": 0.2,
                "tempo": 120.0
            },
            {
                "start_time": 32.5477273,
                "end_time": 32.7477273,
                "pitch": 79,
                "velocity": 51,
                "duration": 0.2,
                "tempo": 120.0
            },
            {
                "start_time": 32.7477273,
                "end_time": 32.9477273,
                "pitch": 84,
                "velocity": 51,
                "duration": 0.2,
                "tempo": 120.0
            },
            {
                "start_time": 32.95,
                "end_time": 33.15,
                "pitch": 79,
                "velocity": 51,
                "duration": 0.2,
                "tempo": 120.0
            },
            {
                "start_time": 33.35,
                "end_time": 33.55,
                "pitch": 79,
                "velocity": 51,
                "duration": 0.2,
                "tempo": 120.0
            },
            {
                "start_time": 33.5522727,
                "end_time": 33.75,
                "pitch": 86,
                "velocity": 51,
                "duration": 0.1977273,
                "tempo": 120.0
            },
            {
                "start_time": 33.7522727,
                "end_time": 33.9522727,
                "pitch": 79,
                "velocity": 51,
                "duration": 0.2,
                "tempo": 120.0
            },
            {
                "start_time": 33.9522727,
                "end_time": 34.1522727,
                "pitch": 82,
                "velocity": 51,
                "duration": 0.2,
                "tempo": 120.0
            },
            {
                "start_time": 34.1522727,
                "end_time": 34.3522727,
                "pitch": 79,
                "velocity": 51,
                "duration": 0.2,
                "tempo": 120.0
            },
            {
                "start_time": 34.3522727,
                "end_time": 34.5522727,
                "pitch": 84,
                "velocity": 51,
                "duration": 0.2,
                "tempo": 120.0
            },
            {
                "start_time": 34.5522727,
                "end_time": 34.7522727,
                "pitch": 79,
                "velocity": 51,
                "duration": 0.2,
                "tempo": 120.0
            },
            {
                "start_time": 34.7522727,
                "end_time": 34.9545455,
                "pitch": 86,
                "velocity": 51,
                "duration": 0.2022727,
                "tempo": 120.0
            },
            {
                "start_time": 34.9545455,
                "end_time": 35.1545455,
                "pitch": 79,
                "velocity": 51,
                "duration": 0.2,
                "tempo": 120.0
            },
            {
                "start_time": 35.1568182,
                "end_time": 35.3568182,
                "pitch": 84,
                "velocity": 51,
                "duration": 0.2,
                "tempo": 120.0
            },
            {
                "start_time": 35.3568182,
                "end_time": 35.5568182,
                "pitch": 79,
                "velocity": 51,
                "duration": 0.2,
                "tempo": 120.0
            },
            {
                "start_time": 35.5568182,
                "end_time": 35.7568182,
                "pitch": 82,
                "velocity": 51,
                "duration": 0.2,
                "tempo": 120.0
            },
            {
                "start_time": 35.7568182,
                "end_time": 35.9568182,
                "pitch": 79,
                "velocity": 51,
                "duration": 0.2,
                "tempo": 120.0
            },
            {
                "start_time": 35.9568182,
                "end_time": 36.1568182,
                "pitch": 84,
                "velocity": 51,
                "duration": 0.2,
                "tempo": 120.0
            },
            {
                "start_time": 36.1568182,
                "end_time": 36.3568182,
                "pitch": 79,
                "velocity": 51,
                "duration": 0.2,
                "tempo": 120.0
            },
            {
                "start_time": 36.5568182,
                "end_time": 36.7568182,
                "pitch": 79,
                "velocity": 51,
                "duration": 0.2,
                "tempo": 120.0
            },
            {
                "start_time": 36.7590909,
                "end_time": 36.9590909,
                "pitch": 82,
                "velocity": 51,
                "duration": 0.2,
                "tempo": 120.0
            },
            {
                "start_time": 36.9590909,
                "end_time": 37.1613636,
                "pitch": 79,
                "velocity": 51,
                "duration": 0.2022727,
                "tempo": 120.0
            },
            {
                "start_time": 37.1613636,
                "end_time": 37.3613636,
                "pitch": 84,
                "velocity": 51,
                "duration": 0.2,
                "tempo": 120.0
            },
            {
                "start_time": 37.3613636,
                "end_time": 37.5613636,
                "pitch": 79,
                "velocity": 51,
                "duration": 0.2,
                "tempo": 120.0
            },
            {
                "start_time": 37.5613636,
                "end_time": 37.7613636,
                "pitch": 86,
                "velocity": 51,
                "duration": 0.2,
                "tempo": 120.0
            },
            {
                "start_time": 37.7613636,
                "end_time": 37.9613636,
                "pitch": 79,
                "velocity": 51,
                "duration": 0.2,
                "tempo": 120.0
            },
            {
                "start_time": 37.9636364,
                "end_time": 38.1681818,
                "pitch": 88,
                "velocity": 51,
                "duration": 0.2045455,
                "tempo": 120.0
            },
            {
                "start_time": 38.1681818,
                "end_time": 38.3727273,
                "pitch": 81,
                "velocity": 51,
                "duration": 0.2045455,
                "tempo": 120.0
            },
            {
                "start_time": 38.3727273,
                "end_time": 38.575,
                "pitch": 86,
                "velocity": 51,
                "duration": 0.2022727,
                "tempo": 120.0
            },
            {
                "start_time": 38.575,
                "end_time": 38.7772727,
                "pitch": 81,
                "velocity": 51,
                "duration": 0.2022727,
                "tempo": 120.0
            },
            {
                "start_time": 38.7772727,
                "end_time": 38.9727273,
                "pitch": 84,
                "velocity": 51,
                "duration": 0.1954545,
                "tempo": 120.0
            },
            {
                "start_time": 38.9727273,
                "end_time": 39.1681818,
                "pitch": 81,
                "velocity": 51,
                "duration": 0.1954545,
                "tempo": 120.0
            },
            {
                "start_time": 39.1704545,
                "end_time": 39.375,
                "pitch": 86,
                "velocity": 51,
                "duration": 0.2045455,
                "tempo": 120.0
            },
            {
                "start_time": 39.375,
                "end_time": 39.5818182,
                "pitch": 81,
                "velocity": 51,
                "duration": 0.2068182,
                "tempo": 120.0
            },
            {
                "start_time": 39.7818182,
                "end_time": 39.9818182,
                "pitch": 81,
                "velocity": 51,
                "duration": 0.2,
                "tempo": 120.0
            },
            {
                "start_time": 39.9818182,
                "end_time": 40.1818182,
                "pitch": 88,
                "velocity": 51,
                "duration": 0.2,
                "tempo": 120.0
            },
            {
                "start_time": 40.1818182,
                "end_time": 40.3818182,
                "pitch": 81,
                "velocity": 51,
                "duration": 0.2,
                "tempo": 120.0
            },
            {
                "start_time": 40.3818182,
                "end_time": 40.5840909,
                "pitch": 84,
                "velocity": 51,
                "duration": 0.2022727,
                "tempo": 120.0
            },
            {
                "start_time": 40.5840909,
                "end_time": 40.7840909,
                "pitch": 81,
                "velocity": 51,
                "duration": 0.2,
                "tempo": 120.0
            },
            {
                "start_time": 40.7840909,
                "end_time": 40.9840909,
                "pitch": 86,
                "velocity": 51,
                "duration": 0.2,
                "tempo": 120.0
            },
            {
                "start_time": 40.9863636,
                "end_time": 41.1863636,
                "pitch": 81,
                "velocity": 51,
                "duration": 0.2,
                "tempo": 120.0
            },
            {
                "start_time": 41.1863636,
                "end_time": 41.3863636,
                "pitch": 88,
                "velocity": 51,
                "duration": 0.2,
                "tempo": 120.0
            },
            {
                "start_time": 41.3863636,
                "end_time": 41.5863636,
                "pitch": 81,
                "velocity": 51,
                "duration": 0.2,
                "tempo": 120.0
            },
            {
                "start_time": 41.5863636,
                "end_time": 41.7863636,
                "pitch": 86,
                "velocity": 51,
                "duration": 0.2,
                "tempo": 120.0
            },
            {
                "start_time": 41.7863636,
                "end_time": 41.9863636,
                "pitch": 81,
                "velocity": 51,
                "duration": 0.2,
                "tempo": 120.0
            },
            {
                "start_time": 41.9863636,
                "end_time": 42.1863636,
                "pitch": 84,
                "velocity": 51,
                "duration": 0.2,
                "tempo": 120.0
            },
            {
                "start_time": 42.1863636,
                "end_time": 42.3863636,
                "pitch": 81,
                "velocity": 51,
                "duration": 0.2,
                "tempo": 120.0
            },
            {
                "start_time": 42.3863636,
                "end_time": 42.5886364,
                "pitch": 86,
                "velocity": 51,
                "duration": 0.2022727,
                "tempo": 120.0
            },
            {
                "start_time": 42.5886364,
                "end_time": 42.7909091,
                "pitch": 81,
                "velocity": 51,
                "duration": 0.2022727,
                "tempo": 120.0
            },
            {
                "start_time": 42.9909091,
                "end_time": 43.1909091,
                "pitch": 81,
                "velocity": 40,
                "duration": 0.2,
                "tempo": 120.0
            },
            {
                "start_time": 73.9454545,
                "end_time": 74.0454545,
                "pitch": 91,
                "velocity": 51,
                "duration": 0.1,
                "tempo": 120.0
            },
            {
                "start_time": 74.0454545,
                "end_time": 74.1454545,
                "pitch": 91,
                "velocity": 51,
                "duration": 0.1,
                "tempo": 120.0
            },
            {
                "start_time": 74.1454545,
                "end_time": 74.2454545,
                "pitch": 88,
                "velocity": 51,
                "duration": 0.1,
                "tempo": 120.0
            },
            {
                "start_time": 74.2454545,
                "end_time": 74.3454545,
                "pitch": 84,
                "velocity": 51,
                "duration": 0.1,
                "tempo": 120.0
            },
            {
                "start_time": 74.3477273,
                "end_time": 74.4477273,
                "pitch": 81,
                "velocity": 51,
                "duration": 0.1,
                "tempo": 120.0
            },
            {
                "start_time": 74.4477273,
                "end_time": 74.5477273,
                "pitch": 77,
                "velocity": 51,
                "duration": 0.1,
                "tempo": 120.0
            },
            {
                "start_time": 74.5477273,
                "end_time": 74.6477273,
                "pitch": 76,
                "velocity": 51,
                "duration": 0.1,
                "tempo": 120.0
            },
            {
                "start_time": 74.6477273,
                "end_time": 74.7477273,
                "pitch": 72,
                "velocity": 51,
                "duration": 0.1,
                "tempo": 120.0
            },
            {
                "start_time": 74.7477273,
                "end_time": 74.8477273,
                "pitch": 69,
                "velocity": 51,
                "duration": 0.1,
                "tempo": 120.0
            },
            {
                "start_time": 74.8477273,
                "end_time": 74.9477273,
                "pitch": 67,
                "velocity": 51,
                "duration": 0.1,
                "tempo": 120.0
            },
            {
                "start_time": 74.95,
                "end_time": 75.0,
                "pitch": 67,
                "velocity": 51,
                "duration": 0.05,
                "tempo": 120.0
            },
            {
                "start_time": 75.0,
                "end_time": 75.05,
                "pitch": 69,
                "velocity": 51,
                "duration": 0.05,
                "tempo": 120.0
            },
            {
                "start_time": 75.05,
                "end_time": 75.1,
                "pitch": 72,
                "velocity": 51,
                "duration": 0.05,
                "tempo": 120.0
            },
            {
                "start_time": 75.1,
                "end_time": 75.15,
                "pitch": 76,
                "velocity": 51,
                "duration": 0.05,
                "tempo": 120.0
            },
            {
                "start_time": 75.15,
                "end_time": 75.2,
                "pitch": 77,
                "velocity": 51,
                "duration": 0.05,
                "tempo": 120.0
            },
            {
                "start_time": 75.2,
                "end_time": 75.25,
                "pitch": 81,
                "velocity": 51,
                "duration": 0.05,
                "tempo": 120.0
            },
            {
                "start_time": 75.2522727,
                "end_time": 75.3022727,
                "pitch": 84,
                "velocity": 51,
                "duration": 0.05,
                "tempo": 120.0
            },
            {
                "start_time": 75.3022727,
                "end_time": 75.3522727,
                "pitch": 88,
                "velocity": 51,
                "duration": 0.05,
                "tempo": 120.0
            },
            {
                "start_time": 75.3522727,
                "end_time": 75.4022727,
                "pitch": 90,
                "velocity": 51,
                "duration": 0.05,
                "tempo": 120.0
            },
            {
                "start_time": 75.4022727,
                "end_time": 75.4522727,
                "pitch": 93,
                "velocity": 51,
                "duration": 0.05,
                "tempo": 120.0
            }
        ],
        "Violin": [
            {
                "start_time": 0.5522727,
                "end_time": 0.6840909,
                "pitch": 33,
                "velocity": 101,
                "duration": 0.1318182,
                "tempo": 120.0
            },
            {
                "start_time": 0.7545455,
                "end_time": 0.8886364,
                "pitch": 33,
                "velocity": 51,
                "duration": 0.1340909,
                "tempo": 120.0
            },
            {
                "start_time": 0.9613636,
                "end_time": 1.0954545,
                "pitch": 33,
                "velocity": 32,
                "duration": 0.1340909,
                "tempo": 120.0
            },
            {
                "start_time": 1.1659091,
                "end_time": 1.3,
                "pitch": 33,
                "velocity": 101,
                "duration": 0.1340909,
                "tempo": 120.0
            },
            {
                "start_time": 1.3727273,
                "end_time": 1.5045455,
                "pitch": 33,
                "velocity": 51,
                "duration": 0.1318182,
                "tempo": 120.0
            },
            {
                "start_time": 1.5727273,
                "end_time": 1.7045455,
                "pitch": 33,
                "velocity": 32,
                "duration": 0.1318182,
                "tempo": 120.0
            },
            {
                "start_time": 1.775,
                "end_time": 1.9068182,
                "pitch": 33,
                "velocity": 32,
                "duration": 0.1318182,
                "tempo": 120.0
            },
            {
                "start_time": 1.975,
                "end_time": 2.1068182,
                "pitch": 33,
                "velocity": 101,
                "duration": 0.1318182,
                "tempo": 120.0
            },
            {
                "start_time": 2.175,
                "end_time": 2.3068182,
                "pitch": 33,
                "velocity": 51,
                "duration": 0.1318182,
                "tempo": 120.0
            },
            {
                "start_time": 2.375,
                "end_time": 2.5068182,
                "pitch": 33,
                "velocity": 32,
                "duration": 0.1318182,
                "tempo": 120.0
            },
            {
                "start_time": 2.5772727,
                "end_time": 2.9772727,
                "pitch": 33,
                "velocity": 101,
                "duration": 0.4,
                "tempo": 120.0
            },
            {
                "start_time": 2.9772727,
                "end_time": 3.0772727,
                "pitch": 33,
                "velocity": 101,
                "duration": 0.1,
                "tempo": 120.0
            },
            {
                "start_time": 3.0772727,
                "end_time": 3.1772727,
                "pitch": 33,
                "velocity": 51,
                "duration": 0.1,
                "tempo": 120.0
            },
            {
                "start_time": 3.1795455,
                "end_time": 3.5795455,
                "pitch": 34,
                "velocity": 101,
                "duration": 0.4,
                "tempo": 120.0
            },
            {
                "start_time": 3.5818182,
                "end_time": 3.7113636,
                "pitch": 33,
                "velocity": 101,
                "duration": 0.1295455,
                "tempo": 120.0
            },
            {
                "start_time": 3.7795455,
                "end_time": 3.9113636,
                "pitch": 33,
                "velocity": 51,
                "duration": 0.1318182,
                "tempo": 120.0
            },
            {
                "start_time": 3.9795455,
                "end_time": 4.1113636,
                "pitch": 33,
                "velocity": 32,
                "duration": 0.1318182,
                "tempo": 120.0
            },
            {
                "start_time": 4.1818182,
                "end_time": 4.3159091,
                "pitch": 33,
                "velocity": 101,
                "duration": 0.1340909,
                "tempo": 120.0
            },
            {
                "start_time": 4.3863636,
                "end_time": 4.5204545,
                "pitch": 33,
                "velocity": 51,
                "duration": 0.1340909,
                "tempo": 120.0
            },
            {
                "start_time": 4.5909091,
                "end_time": 4.7204545,
                "pitch": 33,
                "velocity": 32,
                "duration": 0.1295455,
                "tempo": 120.0
            },
            {
                "start_time": 4.7886364,
                "end_time": 4.9159091,
                "pitch": 33,
                "velocity": 32,
                "duration": 0.1272727,
                "tempo": 120.0
            },
            {
                "start_time": 4.9840909,
                "end_time": 5.1227273,
                "pitch": 33,
                "velocity": 101,
                "duration": 0.1386364,
                "tempo": 120.0
            },
            {
                "start_time": 5.1954545,
                "end_time": 5.3340909,
                "pitch": 33,
                "velocity": 51,
                "duration": 0.1386364,
                "tempo": 120.0
            },
            {
                "start_time": 5.4068182,
                "end_time": 5.5363636,
                "pitch": 33,
                "velocity": 32,
                "duration": 0.1295455,
                "tempo": 120.0
            },
            {
                "start_time": 5.6045455,
                "end_time": 5.9954545,
                "pitch": 33,
                "velocity": 101,
                "duration": 0.3909091,
                "tempo": 120.0
            },
            {
                "start_time": 5.9954545,
                "end_time": 6.0931818,
                "pitch": 33,
                "velocity": 101,
                "duration": 0.0977273,
                "tempo": 120.0
            },
            {
                "start_time": 6.0931818,
                "end_time": 6.1931818,
                "pitch": 33,
                "velocity": 51,
                "duration": 0.1,
                "tempo": 120.0
            },
            {
                "start_time": 6.1931818,
                "end_time": 6.5954545,
                "pitch": 34,
                "velocity": 101,
                "duration": 0.4022727,
                "tempo": 120.0
            },
            {
                "start_time": 6.5977273,
                "end_time": 6.7272727,
                "pitch": 35,
                "velocity": 101,
                "duration": 0.1295455,
                "tempo": 120.0
            },
            {
                "start_time": 6.7954545,
                "end_time": 6.9272727,
                "pitch": 35,
                "velocity": 51,
                "duration": 0.1318182,
                "tempo": 120.0
            },
            {
                "start_time": 6.9954545,
                "end_time": 7.1272727,
                "pitch": 35,
                "velocity": 32,
                "duration": 0.1318182,
                "tempo": 120.0
            },
            {
                "start_time": 7.1977273,
                "end_time": 7.3295455,
                "pitch": 35,
                "velocity": 101,
                "duration": 0.1318182,
                "tempo": 120.0
            },
            {
                "start_time": 7.4,
                "end_time": 7.5340909,
                "pitch": 35,
                "velocity": 51,
                "duration": 0.1340909,
                "tempo": 120.0
            },
            {
                "start_time": 7.6045455,
                "end_time": 7.7386364,
                "pitch": 35,
                "velocity": 32,
                "duration": 0.1340909,
                "tempo": 120.0
            },
            {
                "start_time": 7.8113636,
                "end_time": 7.9409091,
                "pitch": 35,
                "velocity": 32,
                "duration": 0.1295455,
                "tempo": 120.0
            },
            {
                "start_time": 8.0113636,
                "end_time": 8.1431818,
                "pitch": 35,
                "velocity": 101,
                "duration": 0.1318182,
                "tempo": 120.0
            },
            {
                "start_time": 8.2113636,
                "end_time": 8.3431818,
                "pitch": 35,
                "velocity": 51,
                "duration": 0.1318182,
                "tempo": 120.0
            },
            {
                "start_time": 8.4136364,
                "end_time": 8.5454545,
                "pitch": 35,
                "velocity": 32,
                "duration": 0.1318182,
                "tempo": 120.0
            },
            {
                "start_time": 8.6159091,
                "end_time": 9.0181818,
                "pitch": 35,
                "velocity": 101,
                "duration": 0.4022727,
                "tempo": 120.0
            },
            {
                "start_time": 9.0181818,
                "end_time": 9.1181818,
                "pitch": 35,
                "velocity": 101,
                "duration": 0.1,
                "tempo": 120.0
            },
            {
                "start_time": 9.1181818,
                "end_time": 9.2204545,
                "pitch": 35,
                "velocity": 51,
                "duration": 0.1022727,
                "tempo": 120.0
            },
            {
                "start_time": 9.2204545,
                "end_time": 9.6181818,
                "pitch": 36,
                "velocity": 101,
                "duration": 0.3977273,
                "tempo": 120.0
            },
            {
                "start_time": 9.6181818,
                "end_time": 9.7454545,
                "pitch": 35,
                "velocity": 101,
                "duration": 0.1272727,
                "tempo": 120.0
            },
            {
                "start_time": 9.8136364,
                "end_time": 9.9477273,
                "pitch": 35,
                "velocity": 51,
                "duration": 0.1340909,
                "tempo": 120.0
            },
            {
                "start_time": 10.0181818,
                "end_time": 10.1545455,
                "pitch": 35,
                "velocity": 32,
                "duration": 0.1363636,
                "tempo": 120.0
            },
            {
                "start_time": 10.225,
                "end_time": 10.3590909,
                "pitch": 35,
                "velocity": 101,
                "duration": 0.1340909,
                "tempo": 120.0
            },
            {
                "start_time": 10.4295455,
                "end_time": 10.5659091,
                "pitch": 35,
                "velocity": 51,
                "duration": 0.1363636,
                "tempo": 120.0
            },
            {
                "start_time": 10.6363636,
                "end_time": 10.7659091,
                "pitch": 35,
                "velocity": 32,
                "duration": 0.1295455,
                "tempo": 120.0
            },
            {
                "start_time": 10.8318182,
                "end_time": 10.9613636,
                "pitch": 35,
                "velocity": 32,
                "duration": 0.1295455,
                "tempo": 120.0
            },
            {
                "start_time": 11.0295455,
                "end_time": 11.1636364,
                "pitch": 35,
                "velocity": 101,
                "duration": 0.1340909,
                "tempo": 120.0
            },
            {
                "start_time": 11.2340909,
                "end_time": 11.3681818,
                "pitch": 35,
                "velocity": 51,
                "duration": 0.1340909,
                "tempo": 120.0
            },
            {
                "start_time": 11.4409091,
                "end_time": 11.5681818,
                "pitch": 35,
                "velocity": 32,
                "duration": 0.1272727,
                "tempo": 120.0
            },
            {
                "start_time": 11.6363636,
                "end_time": 12.0340909,
                "pitch": 35,
                "velocity": 101,
                "duration": 0.3977273,
                "tempo": 120.0
            },
            {
                "start_time": 12.0340909,
                "end_time": 12.1340909,
                "pitch": 35,
                "velocity": 101,
                "duration": 0.1,
                "tempo": 120.0
            },
            {
                "start_time": 12.1340909,
                "end_time": 12.2363636,
                "pitch": 35,
                "velocity": 51,
                "duration": 0.1022727,
                "tempo": 120.0
            },
            {
                "start_time": 12.2363636,
                "end_time": 12.6477273,
                "pitch": 36,
                "velocity": 101,
                "duration": 0.4113636,
                "tempo": 120.0
            },
            {
                "start_time": 12.6477273,
                "end_time": 12.775,
                "pitch": 37,
                "velocity": 101,
                "duration": 0.1272727,
                "tempo": 120.0
            },
            {
                "start_time": 12.8431818,
                "end_time": 12.9727273,
                "pitch": 37,
                "velocity": 51,
                "duration": 0.1295455,
                "tempo": 120.0
            },
            {
                "start_time": 13.0386364,
                "end_time": 13.1727273,
                "pitch": 37,
                "velocity": 32,
                "duration": 0.1340909,
                "tempo": 120.0
            },
            {
                "start_time": 13.2409091,
                "end_time": 13.3727273,
                "pitch": 37,
                "velocity": 101,
                "duration": 0.1318182,
                "tempo": 120.0
            },
            {
                "start_time": 13.4431818,
                "end_time": 13.575,
                "pitch": 37,
                "velocity": 51,
                "duration": 0.1318182,
                "tempo": 120.0
            },
            {
                "start_time": 13.6431818,
                "end_time": 13.775,
                "pitch": 37,
                "velocity": 32,
                "duration": 0.1318182,
                "tempo": 120.0
            },
            {
                "start_time": 13.8431818,
                "end_time": 13.975,
                "pitch": 37,
                "velocity": 32,
                "duration": 0.1318182,
                "tempo": 120.0
            },
            {
                "start_time": 14.0454545,
                "end_time": 14.1772727,
                "pitch": 37,
                "velocity": 101,
                "duration": 0.1318182,
                "tempo": 120.0
            },
            {
                "start_time": 14.2477273,
                "end_time": 14.3818182,
                "pitch": 37,
                "velocity": 51,
                "duration": 0.1340909,
                "tempo": 120.0
            },
            {
                "start_time": 14.4522727,
                "end_time": 14.5863636,
                "pitch": 37,
                "velocity": 32,
                "duration": 0.1340909,
                "tempo": 120.0
            },
            {
                "start_time": 14.6590909,
                "end_time": 15.05,
                "pitch": 37,
                "velocity": 101,
                "duration": 0.3909091,
                "tempo": 120.0
            },
            {
                "start_time": 15.05,
                "end_time": 15.1522727,
                "pitch": 37,
                "velocity": 101,
                "duration": 0.1022727,
                "tempo": 120.0
            },
            {
                "start_time": 15.1522727,
                "end_time": 15.2568182,
                "pitch": 37,
                "velocity": 51,
                "duration": 0.1045455,
                "tempo": 120.0
            },
            {
                "start_time": 15.2568182,
                "end_time": 15.6636364,
                "pitch": 38,
                "velocity": 101,
                "duration": 0.4068182,
                "tempo": 120.0
            },
            {
                "start_time": 15.6636364,
                "end_time": 15.7931818,
                "pitch": 37,
                "velocity": 101,
                "duration": 0.1295455,
                "tempo": 120.0
            },
            {
                "start_time": 15.8613636,
                "end_time": 15.9954545,
                "pitch": 37,
                "velocity": 51,
                "duration": 0.1340909,
                "tempo": 120.0
            },
            {
                "start_time": 16.0636364,
                "end_time": 16.1954545,
                "pitch": 37,
                "velocity": 32,
                "duration": 0.1318182,
                "tempo": 120.0
            },
            {
                "start_time": 16.2659091,
                "end_time": 16.3977273,
                "pitch": 37,
                "velocity": 101,
                "duration": 0.1318182,
                "tempo": 120.0
            },
            {
                "start_time": 16.4681818,
                "end_time": 16.6,
                "pitch": 37,
                "velocity": 51,
                "duration": 0.1318182,
                "tempo": 120.0
            },
            {
                "start_time": 16.6681818,
                "end_time": 16.8,
                "pitch": 37,
                "velocity": 32,
                "duration": 0.1318182,
                "tempo": 120.0
            },
            {
                "start_time": 16.8681818,
                "end_time": 17.0,
                "pitch": 37,
                "velocity": 32,
                "duration": 0.1318182,
                "tempo": 120.0
            },
            {
                "start_time": 17.0681818,
                "end_time": 17.2045455,
                "pitch": 37,
                "velocity": 101,
                "duration": 0.1363636,
                "tempo": 120.0
            },
            {
                "start_time": 17.275,
                "end_time": 17.4090909,
                "pitch": 37,
                "velocity": 51,
                "duration": 0.1340909,
                "tempo": 120.0
            },
            {
                "start_time": 17.4795455,
                "end_time": 17.6090909,
                "pitch": 37,
                "velocity": 32,
                "duration": 0.1295455,
                "tempo": 120.0
            },
            {
                "start_time": 17.6772727,
                "end_time": 18.0727273,
                "pitch": 37,
                "velocity": 101,
                "duration": 0.3954545,
                "tempo": 120.0
            },
            {
                "start_time": 18.0727273,
                "end_time": 18.1727273,
                "pitch": 37,
                "velocity": 101,
                "duration": 0.1,
                "tempo": 120.0
            },
            {
                "start_time": 18.1727273,
                "end_time": 18.2727273,
                "pitch": 37,
                "velocity": 51,
                "duration": 0.1,
                "tempo": 120.0
            },
            {
                "start_time": 18.275,
                "end_time": 18.6840909,
                "pitch": 37,
                "velocity": 101,
                "duration": 0.4090909,
                "tempo": 120.0
            },
            {
                "start_time": 18.6863636,
                "end_time": 20.2818182,
                "pitch": 37,
                "velocity": 101,
                "duration": 1.5954545,
                "tempo": 120.0
            },
            {
                "start_time": 20.2818182,
                "end_time": 21.8886364,
                "pitch": 36,
                "velocity": 101,
                "duration": 1.6068182,
                "tempo": 120.0
            },
            {
                "start_time": 21.8886364,
                "end_time": 22.7,
                "pitch": 35,
                "velocity": 101,
                "duration": 0.8113636,
                "tempo": 120.0
            },
            {
                "start_time": 22.7022727,
                "end_time": 24.3090909,
                "pitch": 30,
                "velocity": 101,
                "duration": 1.6068182,
                "tempo": 120.0
            },
            {
                "start_time": 24.3090909,
                "end_time": 25.1090909,
                "pitch": 31,
                "velocity": 101,
                "duration": 0.8,
                "tempo": 120.0
            },
            {
                "start_time": 25.1113636,
                "end_time": 26.7181818,
                "pitch": 25,
                "velocity": 101,
                "duration": 1.6068182,
                "tempo": 120.0
            },
            {
                "start_time": 26.7181818,
                "end_time": 28.3318182,
                "pitch": 24,
                "velocity": 101,
                "duration": 1.6136364,
                "tempo": 120.0
            },
            {
                "start_time": 28.3340909,
                "end_time": 29.1363636,
                "pitch": 23,
                "velocity": 101,
                "duration": 0.8022727,
                "tempo": 120.0
            },
            {
                "start_time": 29.1363636,
                "end_time": 30.7340909,
                "pitch": 29,
                "velocity": 101,
                "duration": 1.5977273,
                "tempo": 120.0
            },
            {
                "start_time": 30.7340909,
                "end_time": 31.5454545,
                "pitch": 29,
                "velocity": 101,
                "duration": 0.8113636,
                "tempo": 120.0
            },
            {
                "start_time": 31.5477273,
                "end_time": 33.1522727,
                "pitch": 37,
                "velocity": 101,
                "duration": 1.6045455,
                "tempo": 120.0
            },
            {
                "start_time": 33.1545455,
                "end_time": 34.7545455,
                "pitch": 36,
                "velocity": 101,
                "duration": 1.6,
                "tempo": 120.0
            },
            {
                "start_time": 34.7568182,
                "end_time": 35.5590909,
                "pitch": 35,
                "velocity": 101,
                "duration": 0.8022727,
                "tempo": 120.0
            },
            {
                "start_time": 35.5590909,
                "end_time": 37.1636364,
                "pitch": 30,
                "velocity": 101,
                "duration": 1.6045455,
                "tempo": 120.0
            },
            {
                "start_time": 37.1636364,
                "end_time": 37.9659091,
                "pitch": 31,
                "velocity": 101,
                "duration": 0.8022727,
                "tempo": 120.0
            },
            {
                "start_time": 37.9659091,
                "end_time": 39.5840909,
                "pitch": 25,
                "velocity": 101,
                "duration": 1.6181818,
                "tempo": 120.0
            },
            {
                "start_time": 39.5840909,
                "end_time": 41.1886364,
                "pitch": 24,
                "velocity": 101,
                "duration": 1.6045455,
                "tempo": 120.0
            },
            {
                "start_time": 41.1886364,
                "end_time": 41.9886364,
                "pitch": 23,
                "velocity": 101,
                "duration": 0.8,
                "tempo": 120.0
            },
            {
                "start_time": 41.9886364,
                "end_time": 43.5931818,
                "pitch": 29,
                "velocity": 101,
                "duration": 1.6045455,
                "tempo": 120.0
            },
            {
                "start_time": 43.5931818,
                "end_time": 44.3977273,
                "pitch": 29,
                "velocity": 101,
                "duration": 0.8045455,
                "tempo": 120.0
            },
            {
                "start_time": 44.3977273,
                "end_time": 44.5295455,
                "pitch": 33,
                "velocity": 101,
                "duration": 0.1318182,
                "tempo": 120.0
            },
            {
                "start_time": 44.6,
                "end_time": 44.7340909,
                "pitch": 33,
                "velocity": 51,
                "duration": 0.1340909,
                "tempo": 120.0
            },
            {
                "start_time": 44.8068182,
                "end_time": 44.9340909,
                "pitch": 33,
                "velocity": 32,
                "duration": 0.1272727,
                "tempo": 120.0
            },
            {
                "start_time": 45.0022727,
                "end_time": 45.1295455,
                "pitch": 33,
                "velocity": 101,
                "duration": 0.1272727,
                "tempo": 120.0
            },
            {
                "start_time": 45.1977273,
                "end_time": 45.3295455,
                "pitch": 33,
                "velocity": 51,
                "duration": 0.1318182,
                "tempo": 120.0
            },
            {
                "start_time": 45.3977273,
                "end_time": 45.5295455,
                "pitch": 33,
                "velocity": 32,
                "duration": 0.1318182,
                "tempo": 120.0
            },
            {
                "start_time": 45.6,
                "end_time": 45.7295455,
                "pitch": 33,
                "velocity": 32,
                "duration": 0.1295455,
                "tempo": 120.0
            },
            {
                "start_time": 45.8,
                "end_time": 45.9295455,
                "pitch": 33,
                "velocity": 101,
                "duration": 0.1295455,
                "tempo": 120.0
            },
            {
                "start_time": 46.0,
                "end_time": 46.1340909,
                "pitch": 33,
                "velocity": 51,
                "duration": 0.1340909,
                "tempo": 120.0
            },
            {
                "start_time": 46.2045455,
                "end_time": 46.3409091,
                "pitch": 33,
                "velocity": 32,
                "duration": 0.1363636,
                "tempo": 120.0
            },
            {
                "start_time": 46.4113636,
                "end_time": 46.8113636,
                "pitch": 33,
                "velocity": 101,
                "duration": 0.4,
                "tempo": 120.0
            },
            {
                "start_time": 46.8113636,
                "end_time": 46.9113636,
                "pitch": 33,
                "velocity": 101,
                "duration": 0.1,
                "tempo": 120.0
            },
            {
                "start_time": 46.9113636,
                "end_time": 47.0113636,
                "pitch": 33,
                "velocity": 51,
                "duration": 0.1,
                "tempo": 120.0
            },
            {
                "start_time": 47.0113636,
                "end_time": 47.4136364,
                "pitch": 34,
                "velocity": 101,
                "duration": 0.4022727,
                "tempo": 120.0
            },
            {
                "start_time": 47.4136364,
                "end_time": 47.5431818,
                "pitch": 33,
                "velocity": 101,
                "duration": 0.1295455,
                "tempo": 120.0
            },
            {
                "start_time": 47.6113636,
                "end_time": 47.7431818,
                "pitch": 33,
                "velocity": 51,
                "duration": 0.1318182,
                "tempo": 120.0
            },
            {
                "start_time": 47.8136364,
                "end_time": 47.9431818,
                "pitch": 33,
                "velocity": 32,
                "duration": 0.1295455,
                "tempo": 120.0
            },
            {
                "start_time": 48.0136364,
                "end_time": 48.1454545,
                "pitch": 33,
                "velocity": 101,
                "duration": 0.1318182,
                "tempo": 120.0
            },
            {
                "start_time": 48.2136364,
                "end_time": 48.3477273,
                "pitch": 33,
                "velocity": 51,
                "duration": 0.1340909,
                "tempo": 120.0
            },
            {
                "start_time": 48.4159091,
                "end_time": 48.5477273,
                "pitch": 33,
                "velocity": 32,
                "duration": 0.1318182,
                "tempo": 120.0
            },
            {
                "start_time": 48.6159091,
                "end_time": 48.7477273,
                "pitch": 33,
                "velocity": 32,
                "duration": 0.1318182,
                "tempo": 120.0
            },
            {
                "start_time": 48.8159091,
                "end_time": 48.9522727,
                "pitch": 33,
                "velocity": 101,
                "duration": 0.1363636,
                "tempo": 120.0
            },
            {
                "start_time": 49.0227273,
                "end_time": 49.1568182,
                "pitch": 33,
                "velocity": 51,
                "duration": 0.1340909,
                "tempo": 120.0
            },
            {
                "start_time": 49.2272727,
                "end_time": 49.3568182,
                "pitch": 33,
                "velocity": 32,
                "duration": 0.1295455,
                "tempo": 120.0
            },
            {
                "start_time": 49.425,
                "end_time": 49.8204545,
                "pitch": 33,
                "velocity": 101,
                "duration": 0.3954545,
                "tempo": 120.0
            },
            {
                "start_time": 49.8204545,
                "end_time": 49.9204545,
                "pitch": 33,
                "velocity": 101,
                "duration": 0.1,
                "tempo": 120.0
            },
            {
                "start_time": 49.9204545,
                "end_time": 50.0204545,
                "pitch": 33,
                "velocity": 51,
                "duration": 0.1,
                "tempo": 120.0
            },
            {
                "start_time": 50.0227273,
                "end_time": 50.425,
                "pitch": 34,
                "velocity": 101,
                "duration": 0.4022727,
                "tempo": 120.0
            },
            {
                "start_time": 50.425,
                "end_time": 50.5545455,
                "pitch": 35,
                "velocity": 101,
                "duration": 0.1295455,
                "tempo": 120.0
            },
            {
                "start_time": 50.625,
                "end_time": 50.7568182,
                "pitch": 35,
                "velocity": 51,
                "duration": 0.1318182,
                "tempo": 120.0
            },
            {
                "start_time": 50.825,
                "end_time": 50.9568182,
                "pitch": 35,
                "velocity": 32,
                "duration": 0.1318182,
                "tempo": 120.0
            },
            {
                "start_time": 51.025,
                "end_time": 51.1568182,
                "pitch": 35,
                "velocity": 101,
                "duration": 0.1318182,
                "tempo": 120.0
            },
            {
                "start_time": 51.225,
                "end_time": 51.3568182,
                "pitch": 35,
                "velocity": 51,
                "duration": 0.1318182,
                "tempo": 120.0
            },
            {
                "start_time": 51.425,
                "end_time": 51.5568182,
                "pitch": 35,
                "velocity": 32,
                "duration": 0.1318182,
                "tempo": 120.0
            },
            {
                "start_time": 51.625,
                "end_time": 51.7568182,
                "pitch": 35,
                "velocity": 32,
                "duration": 0.1318182,
                "tempo": 120.0
            },
            {
                "start_time": 51.825,
                "end_time": 51.9568182,
                "pitch": 35,
                "velocity": 101,
                "duration": 0.1318182,
                "tempo": 120.0
            },
            {
                "start_time": 52.0272727,
                "end_time": 52.1590909,
                "pitch": 35,
                "velocity": 51,
                "duration": 0.1318182,
                "tempo": 120.0
            },
            {
                "start_time": 52.2272727,
                "end_time": 52.3590909,
                "pitch": 35,
                "velocity": 32,
                "duration": 0.1318182,
                "tempo": 120.0
            },
            {
                "start_time": 52.4295455,
                "end_time": 52.8295455,
                "pitch": 35,
                "velocity": 101,
                "duration": 0.4,
                "tempo": 120.0
            },
            {
                "start_time": 52.8295455,
                "end_time": 52.9295455,
                "pitch": 35,
                "velocity": 101,
                "duration": 0.1,
                "tempo": 120.0
            },
            {
                "start_time": 52.9295455,
                "end_time": 53.0295455,
                "pitch": 35,
                "velocity": 51,
                "duration": 0.1,
                "tempo": 120.0
            },
            {
                "start_time": 53.0318182,
                "end_time": 53.4318182,
                "pitch": 36,
                "velocity": 101,
                "duration": 0.4,
                "tempo": 120.0
            },
            {
                "start_time": 53.4318182,
                "end_time": 53.5613636,
                "pitch": 35,
                "velocity": 101,
                "duration": 0.1295455,
                "tempo": 120.0
            },
            {
                "start_time": 53.6318182,
                "end_time": 53.7659091,
                "pitch": 35,
                "velocity": 51,
                "duration": 0.1340909,
                "tempo": 120.0
            },
            {
                "start_time": 53.8363636,
                "end_time": 53.9704545,
                "pitch": 35,
                "velocity": 32,
                "duration": 0.1340909,
                "tempo": 120.0
            },
            {
                "start_time": 54.0431818,
                "end_time": 54.1727273,
                "pitch": 35,
                "velocity": 101,
                "duration": 0.1295455,
                "tempo": 120.0
            },
            {
                "start_time": 54.2431818,
                "end_time": 54.375,
                "pitch": 35,
                "velocity": 51,
                "duration": 0.1318182,
                "tempo": 120.0
            },
            {
                "start_time": 54.4431818,
                "end_time": 54.575,
                "pitch": 35,
                "velocity": 32,
                "duration": 0.1318182,
                "tempo": 120.0
            },
            {
                "start_time": 54.6431818,
                "end_time": 54.775,
                "pitch": 35,
                "velocity": 32,
                "duration": 0.1318182,
                "tempo": 120.0
            },
            {
                "start_time": 54.8431818,
                "end_time": 54.9772727,
                "pitch": 35,
                "velocity": 101,
                "duration": 0.1340909,
                "tempo": 120.0
            },
            {
                "start_time": 55.05,
                "end_time": 55.1840909,
                "pitch": 35,
                "velocity": 51,
                "duration": 0.1340909,
                "tempo": 120.0
            },
            {
                "start_time": 55.2545455,
                "end_time": 55.3840909,
                "pitch": 35,
                "velocity": 32,
                "duration": 0.1295455,
                "tempo": 120.0
            },
            {
                "start_time": 55.4522727,
                "end_time": 55.8477273,
                "pitch": 35,
                "velocity": 101,
                "duration": 0.3954545,
                "tempo": 120.0
            },
            {
                "start_time": 55.8477273,
                "end_time": 55.9477273,
                "pitch": 35,
                "velocity": 101,
                "duration": 0.1,
                "tempo": 120.0
            },
            {
                "start_time": 55.9477273,
                "end_time": 56.0477273,
                "pitch": 35,
                "velocity": 51,
                "duration": 0.1,
                "tempo": 120.0
            },
            {
                "start_time": 56.0477273,
                "end_time": 56.4590909,
                "pitch": 36,
                "velocity": 101,
                "duration": 0.4113636,
                "tempo": 120.0
            },
            {
                "start_time": 56.4613636,
                "end_time": 56.5886364,
                "pitch": 37,
                "velocity": 101,
                "duration": 0.1272727,
                "tempo": 120.0
            },
            {
                "start_time": 56.6545455,
                "end_time": 56.7840909,
                "pitch": 37,
                "velocity": 51,
                "duration": 0.1295455,
                "tempo": 120.0
            },
            {
                "start_time": 56.8522727,
                "end_time": 56.9840909,
                "pitch": 37,
                "velocity": 32,
                "duration": 0.1318182,
                "tempo": 120.0
            },
            {
                "start_time": 57.0522727,
                "end_time": 57.1840909,
                "pitch": 37,
                "velocity": 101,
                "duration": 0.1318182,
                "tempo": 120.0
            },
            {
                "start_time": 57.2522727,
                "end_time": 57.3840909,
                "pitch": 37,
                "velocity": 51,
                "duration": 0.1318182,
                "tempo": 120.0
            },
            {
                "start_time": 57.4545455,
                "end_time": 57.5863636,
                "pitch": 37,
                "velocity": 32,
                "duration": 0.1318182,
                "tempo": 120.0
            },
            {
                "start_time": 57.6568182,
                "end_time": 57.7863636,
                "pitch": 37,
                "velocity": 32,
                "duration": 0.1295455,
                "tempo": 120.0
            },
            {
                "start_time": 57.8568182,
                "end_time": 57.9863636,
                "pitch": 37,
                "velocity": 101,
                "duration": 0.1295455,
                "tempo": 120.0
            },
            {
                "start_time": 58.0568182,
                "end_time": 58.1863636,
                "pitch": 37,
                "velocity": 51,
                "duration": 0.1295455,
                "tempo": 120.0
            },
            {
                "start_time": 58.2568182,
                "end_time": 58.3886364,
                "pitch": 37,
                "velocity": 32,
                "duration": 0.1318182,
                "tempo": 120.0
            },
            {
                "start_time": 58.4568182,
                "end_time": 58.8568182,
                "pitch": 37,
                "velocity": 101,
                "duration": 0.4,
                "tempo": 120.0
            },
            {
                "start_time": 58.8568182,
                "end_time": 58.9568182,
                "pitch": 37,
                "velocity": 101,
                "duration": 0.1,
                "tempo": 120.0
            },
            {
                "start_time": 58.9568182,
                "end_time": 59.0568182,
                "pitch": 37,
                "velocity": 51,
                "duration": 0.1,
                "tempo": 120.0
            },
            {
                "start_time": 59.0568182,
                "end_time": 59.4590909,
                "pitch": 38,
                "velocity": 101,
                "duration": 0.4022727,
                "tempo": 120.0
            },
            {
                "start_time": 59.4613636,
                "end_time": 59.5909091,
                "pitch": 37,
                "velocity": 101,
                "duration": 0.1295455,
                "tempo": 120.0
            },
            {
                "start_time": 59.6613636,
                "end_time": 59.7954545,
                "pitch": 37,
                "velocity": 51,
                "duration": 0.1340909,
                "tempo": 120.0
            },
            {
                "start_time": 59.8659091,
                "end_time": 60.0022727,
                "pitch": 37,
                "velocity": 32,
                "duration": 0.1363636,
                "tempo": 120.0
            },
            {
                "start_time": 60.0727273,
                "end_time": 60.2045455,
                "pitch": 37,
                "velocity": 101,
                "duration": 0.1318182,
                "tempo": 120.0
            },
            {
                "start_time": 60.2727273,
                "end_time": 60.4045455,
                "pitch": 37,
                "velocity": 51,
                "duration": 0.1318182,
                "tempo": 120.0
            },
            {
                "start_time": 60.4727273,
                "end_time": 60.6045455,
                "pitch": 37,
                "velocity": 32,
                "duration": 0.1318182,
                "tempo": 120.0
            },
            {
                "start_time": 60.6727273,
                "end_time": 60.8045455,
                "pitch": 37,
                "velocity": 32,
                "duration": 0.1318182,
                "tempo": 120.0
            },
            {
                "start_time": 60.8727273,
                "end_time": 61.0068182,
                "pitch": 37,
                "velocity": 101,
                "duration": 0.1340909,
                "tempo": 120.0
            },
            {
                "start_time": 61.0795455,
                "end_time": 61.2136364,
                "pitch": 37,
                "velocity": 51,
                "duration": 0.1340909,
                "tempo": 120.0
            },
            {
                "start_time": 61.2840909,
                "end_time": 61.4136364,
                "pitch": 37,
                "velocity": 32,
                "duration": 0.1295455,
                "tempo": 120.0
            },
            {
                "start_time": 61.4818182,
                "end_time": 61.8772727,
                "pitch": 37,
                "velocity": 101,
                "duration": 0.3954545,
                "tempo": 120.0
            },
            {
                "start_time": 61.8772727,
                "end_time": 61.9772727,
                "pitch": 37,
                "velocity": 101,
                "duration": 0.1,
                "tempo": 120.0
            },
            {
                "start_time": 61.9772727,
                "end_time": 62.0772727,
                "pitch": 37,
                "velocity": 51,
                "duration": 0.1,
                "tempo": 120.0
            },
            {
                "start_time": 62.0772727,
                "end_time": 62.4886364,
                "pitch": 37,
                "velocity": 101,
                "duration": 0.4113636,
                "tempo": 120.0
            },
            {
                "start_time": 62.4909091,
                "end_time": 64.0863636,
                "pitch": 37,
                "velocity": 101,
                "duration": 1.5954545,
                "tempo": 120.0
            },
            {
                "start_time": 64.0863636,
                "end_time": 65.6931818,
                "pitch": 36,
                "velocity": 101,
                "duration": 1.6068182,
                "tempo": 120.0
            },
            {
                "start_time": 65.6931818,
                "end_time": 66.4954545,
                "pitch": 35,
                "velocity": 101,
                "duration": 0.8022727,
                "tempo": 120.0
            },
            {
                "start_time": 66.4977273,
                "end_time": 68.1068182,
                "pitch": 30,
                "velocity": 101,
                "duration": 1.6090909,
                "tempo": 120.0
            },
            {
                "start_time": 68.1068182,
                "end_time": 68.9181818,
                "pitch": 31,
                "velocity": 101,
                "duration": 0.8113636,
                "tempo": 120.0
            },
            {
                "start_time": 68.9204545,
                "end_time": 70.5295455,
                "pitch": 25,
                "velocity": 101,
                "duration": 1.6090909,
                "tempo": 120.0
            },
            {
                "start_time": 70.5295455,
                "end_time": 72.1363636,
                "pitch": 24,
                "velocity": 101,
                "duration": 1.6068182,
                "tempo": 120.0
            },
            {
                "start_time": 72.1363636,
                "end_time": 72.9409091,
                "pitch": 23,
                "velocity": 101,
                "duration": 0.8045455,
                "tempo": 120.0
            },
            {
                "start_time": 72.9409091,
                "end_time": 74.55,
                "pitch": 29,
                "velocity": 101,
                "duration": 1.6090909,
                "tempo": 120.0
            },
            {
                "start_time": 74.55,
                "end_time": 75.3545455,
                "pitch": 29,
                "velocity": 101,
                "duration": 0.8045455,
                "tempo": 120.0
            },
            {
                "start_time": 75.3568182,
                "end_time": 75.4681818,
                "pitch": 37,
                "velocity": 101,
                "duration": 0.1113636,
                "tempo": 120.0
            }
        ]
    }
}