{
    "mood": "angry",
    "instruments": {
        "Clarinet": [
            {
                "start_time": 0.5613636,
                "end_time": 0.7545455,
                "pitch": 12,
                "velocity": 40,
                "duration": 0.1931818,
                "tempo": 120.0
            },
            {
                "start_time": 0.7568182,
                "end_time": 0.9340909,
                "pitch": 12,
                "velocity": 32,
                "duration": 0.1772727,
                "tempo": 120.0
            },
            {
                "start_time": 0.9340909,
                "end_time": 1.1272727,
                "pitch": 12,
                "velocity": 25,
                "duration": 0.1931818,
                "tempo": 120.0
            },
            {
                "start_time": 1.1272727,
                "end_time": 1.3204545,
                "pitch": 12,
                "velocity": 20,
                "duration": 0.1931818,
                "tempo": 120.0
            },
            {
                "start_time": 1.3227273,
                "end_time": 1.5159091,
                "pitch": 12,
                "velocity": 16,
                "duration": 0.1931818,
                "tempo": 120.0
            },
            {
                "start_time": 1.5159091,
                "end_time": 1.6954545,
                "pitch": 12,
                "velocity": 13,
                "duration": 0.1795455,
                "tempo": 120.0
            },
            {
                "start_time": 1.6954545,
                "end_time": 1.8840909,
                "pitch": 12,
                "velocity": 10,
                "duration": 0.1886364,
                "tempo": 120.0
            },
            {
                "start_time": 1.8840909,
                "end_time": 2.0727273,
                "pitch": 12,
                "velocity": 8,
                "duration": 0.1886364,
                "tempo": 120.0
            },
            {
                "start_time": 2.0727273,
                "end_time": 2.2727273,
                "pitch": 12,
                "velocity": 6,
                "duration": 0.2,
                "tempo": 120.0
            },
            {
                "start_time": 2.2727273,
                "end_time": 2.4545455,
                "pitch": 12,
                "velocity": 5,
                "duration": 0.1818182,
                "tempo": 120.0
            },
            {
                "start_time": 2.4545455,
                "end_time": 2.6431818,
                "pitch": 12,
                "velocity": 4,
                "duration": 0.1886364,
                "tempo": 120.0
            },
            {
                "start_time": 2.6431818,
                "end_time": 2.8318182,
                "pitch": 12,
                "velocity": 4,
                "duration": 0.1886364,
                "tempo": 120.0
            },
            {
                "start_time": 2.8340909,
                "end_time": 3.0318182,
                "pitch": 12,
                "velocity": 4,
                "duration": 0.1977273,
                "tempo": 120.0
            },
            {
                "start_time": 3.0318182,
                "end_time": 3.2136364,
                "pitch": 12,
                "velocity": 4,
                "duration": 0.1818182,
                "tempo": 120.0
            },
            {
                "start_time": 3.2159091,
                "end_time": 3.4022727,
                "pitch": 12,
                "velocity": 4,
                "duration": 0.1863636,
                "tempo": 120.0
            },
            {
                "start_time": 3.4045455,
                "end_time": 3.5931818,
                "pitch": 12,
                "velocity": 4,
                "duration": 0.1886364,
                "tempo": 120.0
            },
            {
                "start_time": 0.5613636,
                "end_time": 82.4295455,
                "pitch": 0,
                "velocity": 40,
                "duration": 81.8681818,
                "tempo": 120.0
            },
            {
                "start_time": 82.4295455,
                "end_time": 82.6272727,
                "pitch": 12,
                "velocity": 40,
                "duration": 0.1977273,
                "tempo": 120.0
            },
            {
                "start_time": 82.6272727,
                "end_time": 82.8113636,
                "pitch": 12,
                "velocity": 32,
                "duration": 0.1840909,
                "tempo": 120.0
            },
            {
                "start_time": 82.8113636,
                "end_time": 83.0,
                "pitch": 12,
                "velocity": 25,
                "duration": 0.1886364,
                "tempo": 120.0
            },
            {
                "start_time": 83.0,
                "end_time": 83.1886364,
                "pitch": 12,
                "velocity": 20,
                "duration": 0.1886364,
                "tempo": 120.0
            },
            {
                "start_time": 83.1886364,
                "end_time": 83.3886364,
                "pitch": 12,
                "velocity": 16,
                "duration": 0.2,
                "tempo": 120.0
            },
            {
                "start_time": 83.3886364,
                "end_time": 83.5704545,
                "pitch": 12,
                "velocity": 13,
                "duration": 0.1818182,
                "tempo": 120.0
            },
            {
                "start_time": 83.5704545,
                "end_time": 83.7590909,
                "pitch": 12,
                "velocity": 10,
                "duration": 0.1886364,
                "tempo": 120.0
            },
            {
                "start_time": 83.7590909,
                "end_time": 83.95,
                "pitch": 12,
                "velocity": 8,
                "duration": 0.1909091,
                "tempo": 120.0
            },
            {
                "start_time": 83.95,
                "end_time": 84.1477273,
                "pitch": 12,
                "velocity": 6,
                "duration": 0.1977273,
                "tempo": 120.0
            },
            {
                "start_time": 84.1477273,
                "end_time": 84.3318182,
                "pitch": 12,
                "velocity": 5,
                "duration": 0.1840909,
                "tempo": 120.0
            },
            {
                "start_time": 84.3318182,
                "end_time": 84.5204545,
                "pitch": 12,
                "velocity": 4,
                "duration": 0.1886364,
                "tempo": 120.0
            },
            {
                "start_time": 84.5204545,
                "end_time": 84.7090909,
                "pitch": 12,
                "velocity": 4,
                "duration": 0.1886364,
                "tempo": 120.0
            },
            {
                "start_time": 84.7090909,
                "end_time": 84.9090909,
                "pitch": 12,
                "velocity": 4,
                "duration": 0.2,
                "tempo": 120.0
            },
            {
                "start_time": 84.9090909,
                "end_time": 85.0909091,
                "pitch": 12,
                "velocity": 4,
                "duration": 0.1818182,
                "tempo": 120.0
            },
            {
                "start_time": 85.0909091,
                "end_time": 85.2727273,
                "pitch": 12,
                "velocity": 4,
                "duration": 0.1818182,
                "tempo": 120.0
            },
            {
                "start_time": 85.275,
                "end_time": 85.4568182,
                "pitch": 12,
                "velocity": 4,
                "duration": 0.1818182,
                "tempo": 120.0
            }
        ],
        "Oboe": [
            {
                "start_time": 6.825,
                "end_time": 12.8886364,
                "pitch": 36,
                "velocity": 10,
                "duration": 6.0636364,
                "tempo": 120.0
            },
            {
                "start_time": 12.8886364,
                "end_time": 25.025,
                "pitch": 48,
                "velocity": 10,
                "duration": 12.1363636,
                "tempo": 120.0
            },
            {
                "start_time": 25.0272727,
                "end_time": 31.0954545,
                "pitch": 48,
                "velocity": 40,
                "duration": 6.0681818,
                "tempo": 120.0
            }
        ],
        "Lead 2 (sawtooth)": [
            {
                "start_time": 32.4136364,
                "end_time": 33.9318182,
                "pitch": 55,
                "velocity": 51,
                "duration": 1.5181818,
                "tempo": 120.0
            },
            {
                "start_time": 35.4431818,
                "end_time": 36.9636364,
                "pitch": 55,
                "velocity": 51,
                "duration": 1.5204545,
                "tempo": 120.0
            },
            {
                "start_time": 36.9636364,
                "end_time": 38.4727273,
                "pitch": 51,
                "velocity": 51,
                "duration": 1.5090909,
                "tempo": 120.0
            },
            {
                "start_time": 38.4727273,
                "end_time": 39.9931818,
                "pitch": 51,
                "velocity": 51,
                "duration": 1.5204545,
                "tempo": 120.0
            },
            {
                "start_time": 41.5136364,
                "end_time": 43.0227273,
                "pitch": 62,
                "velocity": 51,
                "duration": 1.5090909,
                "tempo": 120.0
            },
            {
                "start_time": 44.5431818,
                "end_time": 46.0522727,
                "pitch": 62,
                "velocity": 51,
                "duration": 1.5090909,
                "tempo": 120.0
            },
            {
                "start_time": 46.0545455,
                "end_time": 47.5727273,
                "pitch": 65,
                "velocity": 51,
                "duration": 1.5181818,
                "tempo": 120.0
            },
            {
                "start_time": 46.0545455,
                "end_time": 49.0931818,
                "pitch": 63,
                "velocity": 51,
                "duration": 3.0386364,
                "tempo": 120.0
            },
            {
                "start_time": 47.575,
                "end_time": 49.0931818,
                "pitch": 63,
                "velocity": 51,
                "duration": 1.5181818,
                "tempo": 120.0
            },
            {
                "start_time": 55.1409091,
                "end_time": 55.9,
                "pitch": 55,
                "velocity": 80,
                "duration": 0.7590909,
                "tempo": 120.0
            },
            {
                "start_time": 55.9,
                "end_time": 56.0022727,
                "pitch": 67,
                "velocity": 80,
                "duration": 0.1022727,
                "tempo": 120.0
            },
            {
                "start_time": 56.0022727,
                "end_time": 56.1045455,
                "pitch": 67,
                "velocity": 80,
                "duration": 0.1022727,
                "tempo": 120.0
            },
            {
                "start_time": 47.575,
                "end_time": 58.5659091,
                "pitch": 65,
                "velocity": 51,
                "duration": 10.9909091,
                "tempo": 120.0
            },
            {
                "start_time": 56.1045455,
                "end_time": 58.5659091,
                "pitch": 65,
                "velocity": 80,
                "duration": 2.4613636,
                "tempo": 120.0
            },
            {
                "start_time": 58.5659091,
                "end_time": 58.7545455,
                "pitch": 62,
                "velocity": 80,
                "duration": 0.1886364,
                "tempo": 120.0
            },
            {
                "start_time": 58.7545455,
                "end_time": 58.9431818,
                "pitch": 62,
                "velocity": 80,
                "duration": 0.1886364,
                "tempo": 120.0
            },
            {
                "start_time": 58.5659091,
                "end_time": 59.1431818,
                "pitch": 67,
                "velocity": 80,
                "duration": 0.5772727,
                "tempo": 120.0
            },
            {
                "start_time": 58.9431818,
                "end_time": 59.1431818,
                "pitch": 67,
                "velocity": 80,
                "duration": 0.2,
                "tempo": 120.0
            },
            {
                "start_time": 59.1431818,
                "end_time": 59.325,
                "pitch": 67,
                "velocity": 80,
                "duration": 0.1818182,
                "tempo": 120.0
            },
            {
                "start_time": 59.325,
                "end_time": 59.5136364,
                "pitch": 70,
                "velocity": 80,
                "duration": 0.1886364,
                "tempo": 120.0
            },
            {
                "start_time": 59.5136364,
                "end_time": 59.7045455,
                "pitch": 70,
                "velocity": 80,
                "duration": 0.1909091,
                "tempo": 120.0
            },
            {
                "start_time": 59.7045455,
                "end_time": 59.8022727,
                "pitch": 67,
                "velocity": 80,
                "duration": 0.0977273,
                "tempo": 120.0
            },
            {
                "start_time": 59.8022727,
                "end_time": 59.9022727,
                "pitch": 67,
                "velocity": 80,
                "duration": 0.1,
                "tempo": 120.0
            },
            {
                "start_time": 59.9022727,
                "end_time": 63.1159091,
                "pitch": 65,
                "velocity": 80,
                "duration": 3.2136364,
                "tempo": 120.0
            },
            {
                "start_time": 63.1159091,
                "end_time": 63.3045455,
                "pitch": 62,
                "velocity": 80,
                "duration": 0.1886364,
                "tempo": 120.0
            },
            {
                "start_time": 63.3045455,
                "end_time": 63.4931818,
                "pitch": 62,
                "velocity": 80,
                "duration": 0.1886364,
                "tempo": 120.0
            },
            {
                "start_time": 58.9431818,
                "end_time": 63.6931818,
                "pitch": 63,
                "velocity": 80,
                "duration": 4.75,
                "tempo": 120.0
            },
            {
                "start_time": 63.4931818,
                "end_time": 63.6931818,
                "pitch": 63,
                "velocity": 80,
                "duration": 0.2,
                "tempo": 120.0
            },
            {
                "start_time": 63.6931818,
                "end_time": 63.875,
                "pitch": 62,
                "velocity": 80,
                "duration": 0.1818182,
                "tempo": 120.0
            },
            {
                "start_time": 63.875,
                "end_time": 64.0636364,
                "pitch": 58,
                "velocity": 80,
                "duration": 0.1886364,
                "tempo": 120.0
            },
            {
                "start_time": 64.0636364,
                "end_time": 64.2522727,
                "pitch": 60,
                "velocity": 80,
                "duration": 0.1886364,
                "tempo": 120.0
            },
            {
                "start_time": 64.2522727,
                "end_time": 70.3045455,
                "pitch": 55,
                "velocity": 80,
                "duration": 6.0522727,
                "tempo": 120.0
            }
        ]
    }
}