{
    "mood": "angry",
    "instruments": {
        "Church Organ": [
            {
                "start_time": 0.7909091,
                "end_time": 0.8772727,
                "pitch": 76,
                "velocity": 25,
                "duration": 0.0863636,
                "tempo": 120.0
            },
            {
                "start_time": 0.9977273,
                "end_time": 1.0840909,
                "pitch": 76,
                "velocity": 25,
                "duration": 0.0863636,
                "tempo": 120.0
            },
            {
                "start_time": 1.2022727,
                "end_time": 1.2863636,
                "pitch": 76,
                "velocity": 25,
                "duration": 0.0840909,
                "tempo": 120.0
            },
            {
                "start_time": 1.4022727,
                "end_time": 1.4863636,
                "pitch": 76,
                "velocity": 25,
                "duration": 0.0840909,
                "tempo": 120.0
            },
            {
                "start_time": 1.6022727,
                "end_time": 1.6863636,
                "pitch": 76,
                "velocity": 25,
                "duration": 0.0840909,
                "tempo": 120.0
            },
            {
                "start_time": 1.8045455,
                "end_time": 1.8886364,
                "pitch": 76,
                "velocity": 25,
                "duration": 0.0840909,
                "tempo": 120.0
            },
            {
                "start_time": 2.2045455,
                "end_time": 2.2886364,
                "pitch": 81,
                "velocity": 25,
                "duration": 0.0840909,
                "tempo": 120.0
            },
            {
                "start_time": 2.6045455,
                "end_time": 3.9909091,
                "pitch": 81,
                "velocity": 25,
                "duration": 1.3863636,
                "tempo": 120.0
            },
            {
                "start_time": 4.0090909,
                "end_time": 4.0909091,
                "pitch": 76,
                "velocity": 25,
                "duration": 0.0818182,
                "tempo": 120.0
            },
            {
                "start_time": 4.2090909,
                "end_time": 4.2909091,
                "pitch": 76,
                "velocity": 25,
                "duration": 0.0818182,
                "tempo": 120.0
            },
            {
                "start_time": 4.4090909,
                "end_time": 4.4931818,
                "pitch": 76,
                "velocity": 25,
                "duration": 0.0840909,
                "tempo": 120.0
            },
            {
                "start_time": 4.6090909,
                "end_time": 4.6931818,
                "pitch": 76,
                "velocity": 25,
                "duration": 0.0840909,
                "tempo": 120.0
            },
            {
                "start_time": 4.8113636,
                "end_time": 4.8931818,
                "pitch": 76,
                "velocity": 25,
                "duration": 0.0818182,
                "tempo": 120.0
            },
            {
                "start_time": 5.0113636,
                "end_time": 5.0931818,
                "pitch": 76,
                "velocity": 25,
                "duration": 0.0818182,
                "tempo": 120.0
            },
            {
                "start_time": 5.4113636,
                "end_time": 5.4954545,
                "pitch": 81,
                "velocity": 25,
                "duration": 0.0840909,
                "tempo": 120.0
            },
            {
                "start_time": 5.8136364,
                "end_time": 7.2022727,
                "pitch": 81,
                "velocity": 25,
                "duration": 1.3886364,
                "tempo": 120.0
            },
            {
                "start_time": 7.2181818,
                "end_time": 7.3022727,
                "pitch": 81,
                "velocity": 25,
                "duration": 0.0840909,
                "tempo": 120.0
            },
            {
                "start_time": 7.4204545,
                "end_time": 7.5045455,
                "pitch": 81,
                "velocity": 25,
                "duration": 0.0840909,
                "tempo": 120.0
            },
            {
                "start_time": 7.6227273,
                "end_time": 7.7045455,
                "pitch": 81,
                "velocity": 25,
                "duration": 0.0818182,
                "tempo": 120.0
            },
            {
                "start_time": 7.8227273,
                "end_time": 7.9045455,
                "pitch": 81,
                "velocity": 25,
                "duration": 0.0818182,
                "tempo": 120.0
            },
            {
                "start_time": 8.0227273,
                "end_time": 8.1045455,
                "pitch": 81,
                "velocity": 25,
                "duration": 0.0818182,
                "tempo": 120.0
            },
            {
                "start_time": 8.2227273,
                "end_time": 8.3068182,
                "pitch": 81,
                "velocity": 25,
                "duration": 0.0840909,
                "tempo": 120.0
            },
            {
                "start_time": 8.625,
                "end_time": 8.7090909,
                "pitch": 86,
                "velocity": 25,
                "duration": 0.0840909,
                "tempo": 120.0
            },
            {
                "start_time": 9.0272727,
                "end_time": 10.4181818,
                "pitch": 86,
                "velocity": 25,
                "duration": 1.3909091,
                "tempo": 120.0
            },
            {
                "start_time": 10.4340909,
                "end_time": 10.5181818,
                "pitch": 81,
                "velocity": 25,
                "duration": 0.0840909,
                "tempo": 120.0
            },
            {
                "start_time": 10.6363636,
                "end_time": 10.7204545,
                "pitch": 81,
                "velocity": 25,
                "duration": 0.0840909,
                "tempo": 120.0
            },
            {
                "start_time": 10.8386364,
                "end_time": 10.9227273,
                "pitch": 81,
                "velocity": 25,
                "duration": 0.0840909,
                "tempo": 120.0
            },
            {
                "start_time": 11.0386364,
                "end_time": 11.1227273,
                "pitch": 81,
                "velocity": 25,
                "duration": 0.0840909,
                "tempo": 120.0
            },
            {
                "start_time": 11.2409091,
                "end_time": 11.3227273,
                "pitch": 81,
                "velocity": 25,
                "duration": 0.0818182,
                "tempo": 120.0
            },
            {
                "start_time": 11.4409091,
                "end_time": 11.5227273,
                "pitch": 81,
                "velocity": 25,
                "duration": 0.0818182,
                "tempo": 120.0
            },
            {
                "start_time": 11.8409091,
                "end_time": 11.925,
                "pitch": 86,
                "velocity": 25,
                "duration": 0.0840909,
                "tempo": 120.0
            },
            {
                "start_time": 12.2454545,
                "end_time": 13.6340909,
                "pitch": 86,
                "velocity": 25,
                "duration": 1.3886364,
                "tempo": 120.0
            }
        ],
        "Clarinet": [
            {
                "start_time": 13.8522727,
                "end_time": 14.0363636,
                "pitch": 76,
                "velocity": 40,
                "duration": 0.1840909,
                "tempo": 120.0
            },
            {
                "start_time": 14.0545455,
                "end_time": 14.2386364,
                "pitch": 71,
                "velocity": 40,
                "duration": 0.1840909,
                "tempo": 120.0
            },
            {
                "start_time": 14.2545455,
                "end_time": 14.4409091,
                "pitch": 67,
                "velocity": 40,
                "duration": 0.1863636,
                "tempo": 120.0
            },
            {
                "start_time": 14.4568182,
                "end_time": 14.6409091,
                "pitch": 76,
                "velocity": 40,
                "duration": 0.1840909,
                "tempo": 120.0
            },
            {
                "start_time": 14.6568182,
                "end_time": 15.0431818,
                "pitch": 74,
                "velocity": 40,
                "duration": 0.3863636,
                "tempo": 120.0
            },
            {
                "start_time": 15.0613636,
                "end_time": 15.4454545,
                "pitch": 72,
                "velocity": 40,
                "duration": 0.3840909,
                "tempo": 120.0
            },
            {
                "start_time": 15.4613636,
                "end_time": 15.6454545,
                "pitch": 71,
                "velocity": 40,
                "duration": 0.1840909,
                "tempo": 120.0
            },
            {
                "start_time": 15.6613636,
                "end_time": 15.8454545,
                "pitch": 72,
                "velocity": 40,
                "duration": 0.1840909,
                "tempo": 120.0
            },
            {
                "start_time": 15.8636364,
                "end_time": 16.0477273,
                "pitch": 74,
                "velocity": 40,
                "duration": 0.1840909,
                "tempo": 120.0
            },
            {
                "start_time": 16.0636364,
                "end_time": 16.45,
                "pitch": 72,
                "velocity": 40,
                "duration": 0.3863636,
                "tempo": 120.0
            },
            {
                "start_time": 16.4681818,
                "end_time": 16.85,
                "pitch": 71,
                "velocity": 40,
                "duration": 0.3818182,
                "tempo": 120.0
            },
            {
                "start_time": 16.8681818,
                "end_time": 17.4522727,
                "pitch": 69,
                "velocity": 40,
                "duration": 0.5840909,
                "tempo": 120.0
            },
            {
                "start_time": 17.4704545,
                "end_time": 18.0568182,
                "pitch": 67,
                "velocity": 40,
                "duration": 0.5863636,
                "tempo": 120.0
            },
            {
                "start_time": 18.0727273,
                "end_time": 18.4568182,
                "pitch": 69,
                "velocity": 40,
                "duration": 0.3840909,
                "tempo": 120.0
            },
            {
                "start_time": 18.4727273,
                "end_time": 19.4590909,
                "pitch": 71,
                "velocity": 40,
                "duration": 0.9863636,
                "tempo": 120.0
            },
            {
                "start_time": 19.475,
                "end_time": 19.6590909,
                "pitch": 72,
                "velocity": 40,
                "duration": 0.1840909,
                "tempo": 120.0
            },
            {
                "start_time": 19.675,
                "end_time": 19.8590909,
                "pitch": 74,
                "velocity": 40,
                "duration": 0.1840909,
                "tempo": 120.0
            },
            {
                "start_time": 19.8772727,
                "end_time": 20.0613636,
                "pitch": 76,
                "velocity": 40,
                "duration": 0.1840909,
                "tempo": 120.0
            },
            {
                "start_time": 20.0772727,
                "end_time": 20.6613636,
                "pitch": 77,
                "velocity": 40,
                "duration": 0.5840909,
                "tempo": 120.0
            },
            {
                "start_time": 20.6772727,
                "end_time": 21.2636364,
                "pitch": 74,
                "velocity": 40,
                "duration": 0.5863636,
                "tempo": 120.0
            },
            {
                "start_time": 21.2818182,
                "end_time": 21.8659091,
                "pitch": 81,
                "velocity": 40,
                "duration": 0.5840909,
                "tempo": 120.0
            },
            {
                "start_time": 21.8818182,
                "end_time": 22.0659091,
                "pitch": 79,
                "velocity": 40,
                "duration": 0.1840909,
                "tempo": 120.0
            },
            {
                "start_time": 22.0840909,
                "end_time": 22.2659091,
                "pitch": 77,
                "velocity": 40,
                "duration": 0.1818182,
                "tempo": 120.0
            },
            {
                "start_time": 22.2840909,
                "end_time": 22.4659091,
                "pitch": 76,
                "velocity": 40,
                "duration": 0.1818182,
                "tempo": 120.0
            },
            {
                "start_time": 22.4840909,
                "end_time": 23.0681818,
                "pitch": 77,
                "velocity": 40,
                "duration": 0.5840909,
                "tempo": 120.0
            },
            {
                "start_time": 23.0840909,
                "end_time": 23.6704545,
                "pitch": 74,
                "velocity": 40,
                "duration": 0.5863636,
                "tempo": 120.0
            },
            {
                "start_time": 23.6863636,
                "end_time": 24.6727273,
                "pitch": 76,
                "velocity": 40,
                "duration": 0.9863636,
                "tempo": 120.0
            },
            {
                "start_time": 24.6886364,
                "end_time": 24.8727273,
                "pitch": 77,
                "velocity": 40,
                "duration": 0.1840909,
                "tempo": 120.0
            },
            {
                "start_time": 24.8886364,
                "end_time": 25.0727273,
                "pitch": 76,
                "velocity": 40,
                "duration": 0.1840909,
                "tempo": 120.0
            },
            {
                "start_time": 25.0909091,
                "end_time": 25.275,
                "pitch": 74,
                "velocity": 40,
                "duration": 0.1840909,
                "tempo": 120.0
            },
            {
                "start_time": 25.2909091,
                "end_time": 26.4772727,
                "pitch": 81,
                "velocity": 40,
                "duration": 1.1863636,
                "tempo": 120.0
            },
            {
                "start_time": 26.4931818,
                "end_time": 27.6795455,
                "pitch": 76,
                "velocity": 40,
                "duration": 1.1863636,
                "tempo": 120.0
            },
            {
                "start_time": 27.6977273,
                "end_time": 27.8818182,
                "pitch": 71,
                "velocity": 40,
                "duration": 0.1840909,
                "tempo": 120.0
            },
            {
                "start_time": 27.8977273,
                "end_time": 28.0818182,
                "pitch": 76,
                "velocity": 40,
                "duration": 0.1840909,
                "tempo": 120.0
            },
            {
                "start_time": 28.1,
                "end_time": 29.2863636,
                "pitch": 74,
                "velocity": 40,
                "duration": 1.1863636,
                "tempo": 120.0
            },
            {
                "start_time": 29.3022727,
                "end_time": 29.4863636,
                "pitch": 69,
                "velocity": 40,
                "duration": 0.1840909,
                "tempo": 120.0
            },
            {
                "start_time": 29.5022727,
                "end_time": 29.6863636,
                "pitch": 74,
                "velocity": 40,
                "duration": 0.1840909,
                "tempo": 120.0
            },
            {
                "start_time": 29.7022727,
                "end_time": 30.2886364,
                "pitch": 72,
                "velocity": 40,
                "duration": 0.5863636,
                "tempo": 120.0
            },
            {
                "start_time": 30.3045455,
                "end_time": 30.8886364,
                "pitch": 71,
                "velocity": 40,
                "duration": 0.5840909,
                "tempo": 120.0
            },
            {
                "start_time": 30.9045455,
                "end_time": 31.2909091,
                "pitch": 64,
                "velocity": 40,
                "duration": 0.3863636,
                "tempo": 120.0
            },
            {
                "start_time": 31.3068182,
                "end_time": 31.8931818,
                "pitch": 67,
                "velocity": 40,
                "duration": 0.5863636,
                "tempo": 120.0
            },
            {
                "start_time": 31.9090909,
                "end_time": 32.4931818,
                "pitch": 72,
                "velocity": 40,
                "duration": 0.5840909,
                "tempo": 120.0
            },
            {
                "start_time": 32.5113636,
                "end_time": 32.8931818,
                "pitch": 71,
                "velocity": 40,
                "duration": 0.3818182,
                "tempo": 120.0
            },
            {
                "start_time": 32.9113636,
                "end_time": 33.6954545,
                "pitch": 69,
                "velocity": 40,
                "duration": 0.7840909,
                "tempo": 120.0
            },
            {
                "start_time": 33.7136364,
                "end_time": 33.8954545,
                "pitch": 69,
                "velocity": 40,
                "duration": 0.1818182,
                "tempo": 120.0
            },
            {
                "start_time": 33.9136364,
                "end_time": 34.0954545,
                "pitch": 67,
                "velocity": 40,
                "duration": 0.1818182,
                "tempo": 120.0
            },
            {
                "start_time": 34.1136364,
                "end_time": 34.2954545,
                "pitch": 69,
                "velocity": 40,
                "duration": 0.1818182,
                "tempo": 120.0
            },
            {
                "start_time": 34.3136364,
                "end_time": 35.7,
                "pitch": 76,
                "velocity": 40,
                "duration": 1.3863636,
                "tempo": 120.0
            },
            {
                "start_time": 35.7159091,
                "end_time": 36.1,
                "pitch": 72,
                "velocity": 40,
                "duration": 0.3840909,
                "tempo": 120.0
            },
            {
                "start_time": 36.1159091,
                "end_time": 38.5181818,
                "pitch": 81,
                "velocity": 40,
                "duration": 2.4022727,
                "tempo": 120.0
            },
            {
                "start_time": 38.5181818,
                "end_time": 38.7681818,
                "pitch": 71,
                "velocity": 40,
                "duration": 0.25,
                "tempo": 120.0
            },
            {
                "start_time": 38.7863636,
                "end_time": 39.0363636,
                "pitch": 72,
                "velocity": 40,
                "duration": 0.25,
                "tempo": 120.0
            },
            {
                "start_time": 39.0522727,
                "end_time": 39.3022727,
                "pitch": 74,
                "velocity": 40,
                "duration": 0.25,
                "tempo": 120.0
            },
            {
                "start_time": 39.3181818,
                "end_time": 40.5045455,
                "pitch": 76,
                "velocity": 40,
                "duration": 1.1863636,
                "tempo": 120.0
            },
            {
                "start_time": 40.5204545,
                "end_time": 40.9045455,
                "pitch": 71,
                "velocity": 40,
                "duration": 0.3840909,
                "tempo": 120.0
            },
            {
                "start_time": 40.9204545,
                "end_time": 42.1068182,
                "pitch": 74,
                "velocity": 40,
                "duration": 1.1863636,
                "tempo": 120.0
            },
            {
                "start_time": 42.125,
                "end_time": 42.5068182,
                "pitch": 69,
                "velocity": 40,
                "duration": 0.3818182,
                "tempo": 120.0
            },
            {
                "start_time": 42.525,
                "end_time": 43.7090909,
                "pitch": 72,
                "velocity": 40,
                "duration": 1.1840909,
                "tempo": 120.0
            },
            {
                "start_time": 43.7272727,
                "end_time": 44.1090909,
                "pitch": 69,
                "velocity": 40,
                "duration": 0.3818182,
                "tempo": 120.0
            },
            {
                "start_time": 44.1272727,
                "end_time": 45.1090909,
                "pitch": 71,
                "velocity": 40,
                "duration": 0.9818182,
                "tempo": 120.0
            },
            {
                "start_time": 45.1272727,
                "end_time": 45.3090909,
                "pitch": 69,
                "velocity": 40,
                "duration": 0.1818182,
                "tempo": 120.0
            },
            {
                "start_time": 45.3272727,
                "end_time": 45.5113636,
                "pitch": 71,
                "velocity": 40,
                "duration": 0.1840909,
                "tempo": 120.0
            },
            {
                "start_time": 45.5272727,
                "end_time": 45.7136364,
                "pitch": 76,
                "velocity": 40,
                "duration": 0.1863636,
                "tempo": 120.0
            },
            {
                "start_time": 45.7295455,
                "end_time": 46.3136364,
                "pitch": 74,
                "velocity": 40,
                "duration": 0.5840909,
                "tempo": 120.0
            },
            {
                "start_time": 46.3295455,
                "end_time": 46.9136364,
                "pitch": 72,
                "velocity": 40,
                "duration": 0.5840909,
                "tempo": 120.0
            },
            {
                "start_time": 46.9295455,
                "end_time": 47.3136364,
                "pitch": 69,
                "velocity": 40,
                "duration": 0.3840909,
                "tempo": 120.0
            },
            {
                "start_time": 47.3295455,
                "end_time": 47.9159091,
                "pitch": 64,
                "velocity": 40,
                "duration": 0.5863636,
                "tempo": 120.0
            },
            {
                "start_time": 47.9318182,
                "end_time": 48.5159091,
                "pitch": 72,
                "velocity": 40,
                "duration": 0.5840909,
                "tempo": 120.0
            },
            {
                "start_time": 48.5318182,
                "end_time": 48.9159091,
                "pitch": 71,
                "velocity": 40,
                "duration": 0.3840909,
                "tempo": 120.0
            },
            {
                "start_time": 48.9318182,
                "end_time": 49.7181818,
                "pitch": 69,
                "velocity": 40,
                "duration": 0.7863636,
                "tempo": 120.0
            },
            {
                "start_time": 49.7340909,
                "end_time": 49.9181818,
                "pitch": 69,
                "velocity": 40,
                "duration": 0.1840909,
                "tempo": 120.0
            },
            {
                "start_time": 49.9340909,
                "end_time": 50.1181818,
                "pitch": 67,
                "velocity": 40,
                "duration": 0.1840909,
                "tempo": 120.0
            },
            {
                "start_time": 50.1340909,
                "end_time": 50.3181818,
                "pitch": 69,
                "velocity": 40,
                "duration": 0.1840909,
                "tempo": 120.0
            },
            {
                "start_time": 50.3340909,
                "end_time": 52.1363636,
                "pitch": 81,
                "velocity": 40,
                "duration": 1.8022727,
                "tempo": 120.0
            },
            {
                "start_time": 52.1363636,
                "end_time": 53.7340909,
                "pitch": 52,
                "velocity": 40,
                "duration": 1.5977273,
                "tempo": 120.0
            },
            {
                "start_time": 53.75,
                "end_time": 55.3181818,
                "pitch": 50,
                "velocity": 40,
                "duration": 1.5681818,
                "tempo": 120.0
            },
            {
                "start_time": 55.3363636,
                "end_time": 56.925,
                "pitch": 43,
                "velocity": 40,
                "duration": 1.5886364,
                "tempo": 120.0
            },
            {
                "start_time": 56.9409091,
                "end_time": 58.5272727,
                "pitch": 43,
                "velocity": 40,
                "duration": 1.5863636,
                "tempo": 120.0
            },
            {
                "start_time": 58.5431818,
                "end_time": 58.6295455,
                "pitch": 76,
                "velocity": 40,
                "duration": 0.0863636,
                "tempo": 120.0
            },
            {
                "start_time": 58.6454545,
                "end_time": 58.7318182,
                "pitch": 71,
                "velocity": 40,
                "duration": 0.0863636,
                "tempo": 120.0
            },
            {
                "start_time": 58.75,
                "end_time": 58.8340909,
                "pitch": 67,
                "velocity": 40,
                "duration": 0.0840909,
                "tempo": 120.0
            },
            {
                "start_time": 58.8522727,
                "end_time": 58.9386364,
                "pitch": 76,
                "velocity": 40,
                "duration": 0.0863636,
                "tempo": 120.0
            },
            {
                "start_time": 58.9545455,
                "end_time": 59.0386364,
                "pitch": 71,
                "velocity": 40,
                "duration": 0.0840909,
                "tempo": 120.0
            },
            {
                "start_time": 59.0545455,
                "end_time": 59.1386364,
                "pitch": 67,
                "velocity": 40,
                "duration": 0.0840909,
                "tempo": 120.0
            },
            {
                "start_time": 59.1545455,
                "end_time": 59.2386364,
                "pitch": 76,
                "velocity": 40,
                "duration": 0.0840909,
                "tempo": 120.0
            },
            {
                "start_time": 59.2545455,
                "end_time": 59.3386364,
                "pitch": 71,
                "velocity": 40,
                "duration": 0.0840909,
                "tempo": 120.0
            },
            {
                "start_time": 59.3545455,
                "end_time": 59.4386364,
                "pitch": 67,
                "velocity": 40,
                "duration": 0.0840909,
                "tempo": 120.0
            },
            {
                "start_time": 59.4545455,
                "end_time": 59.5386364,
                "pitch": 76,
                "velocity": 40,
                "duration": 0.0840909,
                "tempo": 120.0
            },
            {
                "start_time": 59.5568182,
                "end_time": 59.6409091,
                "pitch": 71,
                "velocity": 40,
                "duration": 0.0840909,
                "tempo": 120.0
            },
            {
                "start_time": 59.6568182,
                "end_time": 59.7409091,
                "pitch": 67,
                "velocity": 40,
                "duration": 0.0840909,
                "tempo": 120.0
            },
            {
                "start_time": 59.7568182,
                "end_time": 59.8409091,
                "pitch": 76,
                "velocity": 40,
                "duration": 0.0840909,
                "tempo": 120.0
            },
            {
                "start_time": 59.8568182,
                "end_time": 59.9409091,
                "pitch": 71,
                "velocity": 40,
                "duration": 0.0840909,
                "tempo": 120.0
            },
            {
                "start_time": 59.9568182,
                "end_time": 60.0409091,
                "pitch": 67,
                "velocity": 40,
                "duration": 0.0840909,
                "tempo": 120.0
            },
            {
                "start_time": 60.0568182,
                "end_time": 60.1409091,
                "pitch": 64,
                "velocity": 40,
                "duration": 0.0840909,
                "tempo": 120.0
            },
            {
                "start_time": 60.1568182,
                "end_time": 60.2409091,
                "pitch": 74,
                "velocity": 40,
                "duration": 0.0840909,
                "tempo": 120.0
            },
            {
                "start_time": 60.2568182,
                "end_time": 60.3409091,
                "pitch": 69,
                "velocity": 40,
                "duration": 0.0840909,
                "tempo": 120.0
            },
            {
                "start_time": 60.3568182,
                "end_time": 60.4409091,
                "pitch": 65,
                "velocity": 40,
                "duration": 0.0840909,
                "tempo": 120.0
            },
            {
                "start_time": 60.4568182,
                "end_time": 60.5409091,
                "pitch": 74,
                "velocity": 40,
                "duration": 0.0840909,
                "tempo": 120.0
            },
            {
                "start_time": 60.5568182,
                "end_time": 60.6409091,
                "pitch": 69,
                "velocity": 40,
                "duration": 0.0840909,
                "tempo": 120.0
            },
            {
                "start_time": 60.6568182,
                "end_time": 60.7409091,
                "pitch": 65,
                "velocity": 40,
                "duration": 0.0840909,
                "tempo": 120.0
            },
            {
                "start_time": 60.7568182,
                "end_time": 60.8409091,
                "pitch": 74,
                "velocity": 40,
                "duration": 0.0840909,
                "tempo": 120.0
            },
            {
                "start_time": 60.8568182,
                "end_time": 60.9409091,
                "pitch": 69,
                "velocity": 40,
                "duration": 0.0840909,
                "tempo": 120.0
            },
            {
                "start_time": 60.9568182,
                "end_time": 61.0409091,
                "pitch": 65,
                "velocity": 40,
                "duration": 0.0840909,
                "tempo": 120.0
            },
            {
                "start_time": 61.0568182,
                "end_time": 61.1409091,
                "pitch": 74,
                "velocity": 40,
                "duration": 0.0840909,
                "tempo": 120.0
            },
            {
                "start_time": 61.1568182,
                "end_time": 61.2409091,
                "pitch": 69,
                "velocity": 40,
                "duration": 0.0840909,
                "tempo": 120.0
            },
            {
                "start_time": 61.2568182,
                "end_time": 61.3409091,
                "pitch": 65,
                "velocity": 40,
                "duration": 0.0840909,
                "tempo": 120.0
            },
            {
                "start_time": 61.3568182,
                "end_time": 61.4409091,
                "pitch": 74,
                "velocity": 40,
                "duration": 0.0840909,
                "tempo": 120.0
            },
            {
                "start_time": 61.4590909,
                "end_time": 61.5409091,
                "pitch": 69,
                "velocity": 40,
                "duration": 0.0818182,
                "tempo": 120.0
            },
            {
                "start_time": 61.5590909,
                "end_time": 61.6431818,
                "pitch": 65,
                "velocity": 40,
                "duration": 0.0840909,
                "tempo": 120.0
            },
            {
                "start_time": 61.6590909,
                "end_time": 61.7431818,
                "pitch": 62,
                "velocity": 40,
                "duration": 0.0840909,
                "tempo": 120.0
            },
            {
                "start_time": 61.7590909,
                "end_time": 61.8431818,
                "pitch": 74,
                "velocity": 40,
                "duration": 0.0840909,
                "tempo": 120.0
            },
            {
                "start_time": 61.8590909,
                "end_time": 61.9431818,
                "pitch": 71,
                "velocity": 40,
                "duration": 0.0840909,
                "tempo": 120.0
            },
            {
                "start_time": 61.9590909,
                "end_time": 62.0431818,
                "pitch": 67,
                "velocity": 40,
                "duration": 0.0840909,
                "tempo": 120.0
            },
            {
                "start_time": 62.0590909,
                "end_time": 62.1431818,
                "pitch": 74,
                "velocity": 40,
                "duration": 0.0840909,
                "tempo": 120.0
            },
            {
                "start_time": 62.1590909,
                "end_time": 62.2431818,
                "pitch": 71,
                "velocity": 40,
                "duration": 0.0840909,
                "tempo": 120.0
            },
            {
                "start_time": 62.2590909,
                "end_time": 62.3431818,
                "pitch": 67,
                "velocity": 40,
                "duration": 0.0840909,
                "tempo": 120.0
            },
            {
                "start_time": 62.3590909,
                "end_time": 62.4431818,
                "pitch": 74,
                "velocity": 40,
                "duration": 0.0840909,
                "tempo": 120.0
            },
            {
                "start_time": 62.4590909,
                "end_time": 62.5431818,
                "pitch": 71,
                "velocity": 40,
                "duration": 0.0840909,
                "tempo": 120.0
            },
            {
                "start_time": 62.5590909,
                "end_time": 62.6431818,
                "pitch": 67,
                "velocity": 40,
                "duration": 0.0840909,
                "tempo": 120.0
            },
            {
                "start_time": 62.6590909,
                "end_time": 62.7431818,
                "pitch": 74,
                "velocity": 40,
                "duration": 0.0840909,
                "tempo": 120.0
            },
            {
                "start_time": 62.7590909,
                "end_time": 62.8431818,
                "pitch": 71,
                "velocity": 40,
                "duration": 0.0840909,
                "tempo": 120.0
            },
            {
                "start_time": 62.8590909,
                "end_time": 62.9431818,
                "pitch": 67,
                "velocity": 40,
                "duration": 0.0840909,
                "tempo": 120.0
            },
            {
                "start_time": 62.9590909,
                "end_time": 63.0431818,
                "pitch": 74,
                "velocity": 40,
                "duration": 0.0840909,
                "tempo": 120.0
            },
            {
                "start_time": 63.0590909,
                "end_time": 63.1431818,
                "pitch": 71,
                "velocity": 40,
                "duration": 0.0840909,
                "tempo": 120.0
            },
            {
                "start_time": 63.1590909,
                "end_time": 63.2431818,
                "pitch": 67,
                "velocity": 40,
                "duration": 0.0840909,
                "tempo": 120.0
            },
            {
                "start_time": 63.2590909,
                "end_time": 63.3431818,
                "pitch": 62,
                "velocity": 40,
                "duration": 0.0840909,
                "tempo": 120.0
            },
            {
                "start_time": 63.3590909,
                "end_time": 63.4431818,
                "pitch": 76,
                "velocity": 40,
                "duration": 0.0840909,
                "tempo": 120.0
            },
            {
                "start_time": 63.4613636,
                "end_time": 63.5454545,
                "pitch": 72,
                "velocity": 40,
                "duration": 0.0840909,
                "tempo": 120.0
            },
            {
                "start_time": 63.5613636,
                "end_time": 63.6454545,
                "pitch": 69,
                "velocity": 40,
                "duration": 0.0840909,
                "tempo": 120.0
            },
            {
                "start_time": 63.6613636,
                "end_time": 63.7454545,
                "pitch": 76,
                "velocity": 40,
                "duration": 0.0840909,
                "tempo": 120.0
            },
            {
                "start_time": 63.7636364,
                "end_time": 63.8454545,
                "pitch": 72,
                "velocity": 40,
                "duration": 0.0818182,
                "tempo": 120.0
            },
            {
                "start_time": 63.8636364,
                "end_time": 63.9454545,
                "pitch": 69,
                "velocity": 40,
                "duration": 0.0818182,
                "tempo": 120.0
            },
            {
                "start_time": 63.9636364,
                "end_time": 64.0454545,
                "pitch": 76,
                "velocity": 40,
                "duration": 0.0818182,
                "tempo": 120.0
            },
            {
                "start_time": 64.0636364,
                "end_time": 64.1454545,
                "pitch": 72,
                "velocity": 40,
                "duration": 0.0818182,
                "tempo": 120.0
            },
            {
                "start_time": 64.1636364,
                "end_time": 64.2454545,
                "pitch": 69,
                "velocity": 40,
                "duration": 0.0818182,
                "tempo": 120.0
            },
            {
                "start_time": 64.2636364,
                "end_time": 64.3454545,
                "pitch": 76,
                "velocity": 40,
                "duration": 0.0818182,
                "tempo": 120.0
            },
            {
                "start_time": 64.3636364,
                "end_time": 64.4454545,
                "pitch": 72,
                "velocity": 40,
                "duration": 0.0818182,
                "tempo": 120.0
            },
            {
                "start_time": 64.4636364,
                "end_time": 64.5454545,
                "pitch": 69,
                "velocity": 40,
                "duration": 0.0818182,
                "tempo": 120.0
            },
            {
                "start_time": 64.5636364,
                "end_time": 64.6477273,
                "pitch": 76,
                "velocity": 40,
                "duration": 0.0840909,
                "tempo": 120.0
            },
            {
                "start_time": 64.6636364,
                "end_time": 64.7477273,
                "pitch": 72,
                "velocity": 40,
                "duration": 0.0840909,
                "tempo": 120.0
            },
            {
                "start_time": 64.7636364,
                "end_time": 64.8477273,
                "pitch": 69,
                "velocity": 40,
                "duration": 0.0840909,
                "tempo": 120.0
            },
            {
                "start_time": 64.8659091,
                "end_time": 64.9477273,
                "pitch": 64,
                "velocity": 40,
                "duration": 0.0818182,
                "tempo": 120.0
            },
            {
                "start_time": 64.9659091,
                "end_time": 65.0477273,
                "pitch": 76,
                "velocity": 40,
                "duration": 0.0818182,
                "tempo": 120.0
            },
            {
                "start_time": 65.0659091,
                "end_time": 65.1477273,
                "pitch": 71,
                "velocity": 40,
                "duration": 0.0818182,
                "tempo": 120.0
            },
            {
                "start_time": 65.1659091,
                "end_time": 65.2477273,
                "pitch": 67,
                "velocity": 40,
                "duration": 0.0818182,
                "tempo": 120.0
            },
            {
                "start_time": 65.2659091,
                "end_time": 65.3477273,
                "pitch": 76,
                "velocity": 40,
                "duration": 0.0818182,
                "tempo": 120.0
            },
            {
                "start_time": 65.3659091,
                "end_time": 65.45,
                "pitch": 71,
                "velocity": 40,
                "duration": 0.0840909,
                "tempo": 120.0
            },
            {
                "start_time": 65.4659091,
                "end_time": 65.55,
                "pitch": 67,
                "velocity": 40,
                "duration": 0.0840909,
                "tempo": 120.0
            },
            {
                "start_time": 65.5659091,
                "end_time": 65.65,
                "pitch": 76,
                "velocity": 40,
                "duration": 0.0840909,
                "tempo": 120.0
            },
            {
                "start_time": 65.6681818,
                "end_time": 65.7522727,
                "pitch": 71,
                "velocity": 40,
                "duration": 0.0840909,
                "tempo": 120.0
            },
            {
                "start_time": 65.7681818,
                "end_time": 65.8522727,
                "pitch": 67,
                "velocity": 40,
                "duration": 0.0840909,
                "tempo": 120.0
            },
            {
                "start_time": 65.8681818,
                "end_time": 65.9522727,
                "pitch": 76,
                "velocity": 40,
                "duration": 0.0840909,
                "tempo": 120.0
            },
            {
                "start_time": 65.9681818,
                "end_time": 66.0522727,
                "pitch": 71,
                "velocity": 40,
                "duration": 0.0840909,
                "tempo": 120.0
            },
            {
                "start_time": 66.0681818,
                "end_time": 66.1522727,
                "pitch": 67,
                "velocity": 40,
                "duration": 0.0840909,
                "tempo": 120.0
            },
            {
                "start_time": 66.1681818,
                "end_time": 66.2522727,
                "pitch": 76,
                "velocity": 40,
                "duration": 0.0840909,
                "tempo": 120.0
            },
            {
                "start_time": 66.2681818,
                "end_time": 66.3522727,
                "pitch": 71,
                "velocity": 40,
                "duration": 0.0840909,
                "tempo": 120.0
            },
            {
                "start_time": 66.3704545,
                "end_time": 66.4522727,
                "pitch": 67,
                "velocity": 40,
                "duration": 0.0818182,
                "tempo": 120.0
            },
            {
                "start_time": 66.4704545,
                "end_time": 66.5545455,
                "pitch": 64,
                "velocity": 40,
                "duration": 0.0840909,
                "tempo": 120.0
            },
            {
                "start_time": 66.5704545,
                "end_time": 66.6545455,
                "pitch": 74,
                "velocity": 40,
                "duration": 0.0840909,
                "tempo": 120.0
            },
            {
                "start_time": 66.6704545,
                "end_time": 66.7545455,
                "pitch": 69,
                "velocity": 40,
                "duration": 0.0840909,
                "tempo": 120.0
            },
            {
                "start_time": 66.7727273,
                "end_time": 66.8568182,
                "pitch": 65,
                "velocity": 40,
                "duration": 0.0840909,
                "tempo": 120.0
            },
            {
                "start_time": 66.8727273,
                "end_time": 66.9568182,
                "pitch": 74,
                "velocity": 40,
                "duration": 0.0840909,
                "tempo": 120.0
            },
            {
                "start_time": 66.9727273,
                "end_time": 67.0568182,
                "pitch": 69,
                "velocity": 40,
                "duration": 0.0840909,
                "tempo": 120.0
            },
            {
                "start_time": 67.0727273,
                "end_time": 67.1568182,
                "pitch": 65,
                "velocity": 40,
                "duration": 0.0840909,
                "tempo": 120.0
            },
            {
                "start_time": 67.1727273,
                "end_time": 67.2568182,
                "pitch": 74,
                "velocity": 40,
                "duration": 0.0840909,
                "tempo": 120.0
            },
            {
                "start_time": 67.2727273,
                "end_time": 67.3568182,
                "pitch": 69,
                "velocity": 40,
                "duration": 0.0840909,
                "tempo": 120.0
            },
            {
                "start_time": 67.3727273,
                "end_time": 67.4568182,
                "pitch": 65,
                "velocity": 40,
                "duration": 0.0840909,
                "tempo": 120.0
            },
            {
                "start_time": 67.475,
                "end_time": 67.5590909,
                "pitch": 74,
                "velocity": 40,
                "duration": 0.0840909,
                "tempo": 120.0
            },
            {
                "start_time": 67.575,
                "end_time": 67.6590909,
                "pitch": 69,
                "velocity": 40,
                "duration": 0.0840909,
                "tempo": 120.0
            },
            {
                "start_time": 67.675,
                "end_time": 67.7590909,
                "pitch": 65,
                "velocity": 40,
                "duration": 0.0840909,
                "tempo": 120.0
            },
            {
                "start_time": 67.7772727,
                "end_time": 67.8590909,
                "pitch": 74,
                "velocity": 40,
                "duration": 0.0818182,
                "tempo": 120.0
            },
            {
                "start_time": 67.8772727,
                "end_time": 67.9590909,
                "pitch": 69,
                "velocity": 40,
                "duration": 0.0818182,
                "tempo": 120.0
            },
            {
                "start_time": 67.9772727,
                "end_time": 68.0590909,
                "pitch": 65,
                "velocity": 40,
                "duration": 0.0818182,
                "tempo": 120.0
            },
            {
                "start_time": 68.0772727,
                "end_time": 68.1590909,
                "pitch": 62,
                "velocity": 40,
                "duration": 0.0818182,
                "tempo": 120.0
            },
            {
                "start_time": 68.1772727,
                "end_time": 68.2590909,
                "pitch": 74,
                "velocity": 40,
                "duration": 0.0818182,
                "tempo": 120.0
            },
            {
                "start_time": 68.2772727,
                "end_time": 68.3613636,
                "pitch": 71,
                "velocity": 40,
                "duration": 0.0840909,
                "tempo": 120.0
            },
            {
                "start_time": 68.3772727,
                "end_time": 68.4613636,
                "pitch": 67,
                "velocity": 40,
                "duration": 0.0840909,
                "tempo": 120.0
            },
            {
                "start_time": 68.4772727,
                "end_time": 68.5613636,
                "pitch": 74,
                "velocity": 40,
                "duration": 0.0840909,
                "tempo": 120.0
            },
            {
                "start_time": 68.5795455,
                "end_time": 68.6636364,
                "pitch": 71,
                "velocity": 40,
                "duration": 0.0840909,
                "tempo": 120.0
            },
            {
                "start_time": 68.6795455,
                "end_time": 68.7636364,
                "pitch": 67,
                "velocity": 40,
                "duration": 0.0840909,
                "tempo": 120.0
            },
            {
                "start_time": 68.7795455,
                "end_time": 68.8636364,
                "pitch": 74,
                "velocity": 40,
                "duration": 0.0840909,
                "tempo": 120.0
            },
            {
                "start_time": 68.8818182,
                "end_time": 68.9659091,
                "pitch": 71,
                "velocity": 40,
                "duration": 0.0840909,
                "tempo": 120.0
            },
            {
                "start_time": 68.9818182,
                "end_time": 69.0659091,
                "pitch": 67,
                "velocity": 40,
                "duration": 0.0840909,
                "tempo": 120.0
            },
            {
                "start_time": 69.0818182,
                "end_time": 69.1659091,
                "pitch": 74,
                "velocity": 40,
                "duration": 0.0840909,
                "tempo": 120.0
            },
            {
                "start_time": 69.1818182,
                "end_time": 69.2659091,
                "pitch": 71,
                "velocity": 40,
                "duration": 0.0840909,
                "tempo": 120.0
            },
            {
                "start_time": 69.2818182,
                "end_time": 69.3659091,
                "pitch": 67,
                "velocity": 40,
                "duration": 0.0840909,
                "tempo": 120.0
            },
            {
                "start_time": 69.3818182,
                "end_time": 69.4659091,
                "pitch": 74,
                "velocity": 40,
                "duration": 0.0840909,
                "tempo": 120.0
            },
            {
                "start_time": 69.4818182,
                "end_time": 69.5659091,
                "pitch": 71,
                "velocity": 40,
                "duration": 0.0840909,
                "tempo": 120.0
            },
            {
                "start_time": 69.5818182,
                "end_time": 69.6659091,
                "pitch": 67,
                "velocity": 40,
                "duration": 0.0840909,
                "tempo": 120.0
            },
            {
                "start_time": 69.6840909,
                "end_time": 69.7681818,
                "pitch": 62,
                "velocity": 40,
                "duration": 0.0840909,
                "tempo": 120.0
            },
            {
                "start_time": 69.7840909,
                "end_time": 69.8681818,
                "pitch": 76,
                "velocity": 40,
                "duration": 0.0840909,
                "tempo": 120.0
            },
            {
                "start_time": 69.8840909,
                "end_time": 69.9681818,
                "pitch": 72,
                "velocity": 40,
                "duration": 0.0840909,
                "tempo": 120.0
            },
            {
                "start_time": 69.9840909,
                "end_time": 70.0681818,
                "pitch": 69,
                "velocity": 40,
                "duration": 0.0840909,
                "tempo": 120.0
            },
            {
                "start_time": 70.0840909,
                "end_time": 70.1681818,
                "pitch": 76,
                "velocity": 40,
                "duration": 0.0840909,
                "tempo": 120.0
            },
            {
                "start_time": 70.1840909,
                "end_time": 70.2681818,
                "pitch": 72,
                "velocity": 40,
                "duration": 0.0840909,
                "tempo": 120.0
            },
            {
                "start_time": 70.2840909,
                "end_time": 70.3681818,
                "pitch": 69,
                "velocity": 40,
                "duration": 0.0840909,
                "tempo": 120.0
            },
            {
                "start_time": 70.3863636,
                "end_time": 70.4704545,
                "pitch": 76,
                "velocity": 40,
                "duration": 0.0840909,
                "tempo": 120.0
            },
            {
                "start_time": 70.4863636,
                "end_time": 70.5704545,
                "pitch": 72,
                "velocity": 40,
                "duration": 0.0840909,
                "tempo": 120.0
            },
            {
                "start_time": 70.5863636,
                "end_time": 70.6704545,
                "pitch": 69,
                "velocity": 40,
                "duration": 0.0840909,
                "tempo": 120.0
            },
            {
                "start_time": 70.6886364,
                "end_time": 70.7704545,
                "pitch": 76,
                "velocity": 40,
                "duration": 0.0818182,
                "tempo": 120.0
            },
            {
                "start_time": 70.7886364,
                "end_time": 70.8727273,
                "pitch": 72,
                "velocity": 40,
                "duration": 0.0840909,
                "tempo": 120.0
            },
            {
                "start_time": 70.8886364,
                "end_time": 70.9727273,
                "pitch": 69,
                "velocity": 40,
                "duration": 0.0840909,
                "tempo": 120.0
            },
            {
                "start_time": 70.9886364,
                "end_time": 71.0727273,
                "pitch": 76,
                "velocity": 40,
                "duration": 0.0840909,
                "tempo": 120.0
            },
            {
                "start_time": 71.0886364,
                "end_time": 71.1727273,
                "pitch": 72,
                "velocity": 40,
                "duration": 0.0840909,
                "tempo": 120.0
            },
            {
                "start_time": 71.1886364,
                "end_time": 71.2727273,
                "pitch": 69,
                "velocity": 40,
                "duration": 0.0840909,
                "tempo": 120.0
            },
            {
                "start_time": 71.2886364,
                "end_time": 71.3727273,
                "pitch": 64,
                "velocity": 40,
                "duration": 0.0840909,
                "tempo": 120.0
            },
            {
                "start_time": 71.3886364,
                "end_time": 71.4727273,
                "pitch": 76,
                "velocity": 40,
                "duration": 0.0840909,
                "tempo": 120.0
            },
            {
                "start_time": 71.4909091,
                "end_time": 71.575,
                "pitch": 71,
                "velocity": 40,
                "duration": 0.0840909,
                "tempo": 120.0
            },
            {
                "start_time": 71.5909091,
                "end_time": 71.675,
                "pitch": 67,
                "velocity": 40,
                "duration": 0.0840909,
                "tempo": 120.0
            },
            {
                "start_time": 71.6909091,
                "end_time": 71.775,
                "pitch": 76,
                "velocity": 40,
                "duration": 0.0840909,
                "tempo": 120.0
            },
            {
                "start_time": 71.7931818,
                "end_time": 71.875,
                "pitch": 71,
                "velocity": 40,
                "duration": 0.0818182,
                "tempo": 120.0
            },
            {
                "start_time": 71.8931818,
                "end_time": 71.975,
                "pitch": 67,
                "velocity": 40,
                "duration": 0.0818182,
                "tempo": 120.0
            },
            {
                "start_time": 71.9931818,
                "end_time": 72.075,
                "pitch": 76,
                "velocity": 40,
                "duration": 0.0818182,
                "tempo": 120.0
            },
            {
                "start_time": 72.0931818,
                "end_time": 72.175,
                "pitch": 71,
                "velocity": 40,
                "duration": 0.0818182,
                "tempo": 120.0
            },
            {
                "start_time": 72.1931818,
                "end_time": 72.2772727,
                "pitch": 67,
                "velocity": 40,
                "duration": 0.0840909,
                "tempo": 120.0
            },
            {
                "start_time": 72.2931818,
                "end_time": 72.3772727,
                "pitch": 76,
                "velocity": 40,
                "duration": 0.0840909,
                "tempo": 120.0
            },
            {
                "start_time": 72.3931818,
                "end_time": 72.4772727,
                "pitch": 71,
                "velocity": 40,
                "duration": 0.0840909,
                "tempo": 120.0
            },
            {
                "start_time": 72.4954545,
                "end_time": 72.5772727,
                "pitch": 67,
                "velocity": 40,
                "duration": 0.0818182,
                "tempo": 120.0
            },
            {
                "start_time": 72.5954545,
                "end_time": 72.6795455,
                "pitch": 76,
                "velocity": 40,
                "duration": 0.0840909,
                "tempo": 120.0
            },
            {
                "start_time": 72.6954545,
                "end_time": 72.7795455,
                "pitch": 71,
                "velocity": 40,
                "duration": 0.0840909,
                "tempo": 120.0
            },
            {
                "start_time": 72.7954545,
                "end_time": 72.8795455,
                "pitch": 67,
                "velocity": 40,
                "duration": 0.0840909,
                "tempo": 120.0
            },
            {
                "start_time": 72.8977273,
                "end_time": 72.9818182,
                "pitch": 64,
                "velocity": 40,
                "duration": 0.0840909,
                "tempo": 120.0
            },
            {
                "start_time": 72.9977273,
                "end_time": 73.0818182,
                "pitch": 74,
                "velocity": 40,
                "duration": 0.0840909,
                "tempo": 120.0
            },
            {
                "start_time": 73.0977273,
                "end_time": 73.1818182,
                "pitch": 69,
                "velocity": 40,
                "duration": 0.0840909,
                "tempo": 120.0
            },
            {
                "start_time": 73.1977273,
                "end_time": 73.2818182,
                "pitch": 65,
                "velocity": 40,
                "duration": 0.0840909,
                "tempo": 120.0
            },
            {
                "start_time": 73.2977273,
                "end_time": 73.3818182,
                "pitch": 74,
                "velocity": 40,
                "duration": 0.0840909,
                "tempo": 120.0
            },
            {
                "start_time": 73.3977273,
                "end_time": 73.4818182,
                "pitch": 69,
                "velocity": 40,
                "duration": 0.0840909,
                "tempo": 120.0
            },
            {
                "start_time": 73.4977273,
                "end_time": 73.5818182,
                "pitch": 65,
                "velocity": 40,
                "duration": 0.0840909,
                "tempo": 120.0
            },
            {
                "start_time": 73.6,
                "end_time": 73.6818182,
                "pitch": 74,
                "velocity": 40,
                "duration": 0.0818182,
                "tempo": 120.0
            },
            {
                "start_time": 73.7,
                "end_time": 73.7840909,
                "pitch": 69,
                "velocity": 40,
                "duration": 0.0840909,
                "tempo": 120.0
            },
            {
                "start_time": 73.8,
                "end_time": 73.8840909,
                "pitch": 65,
                "velocity": 40,
                "duration": 0.0840909,
                "tempo": 120.0
            },
            {
                "start_time": 73.9,
                "end_time": 73.9840909,
                "pitch": 74,
                "velocity": 40,
                "duration": 0.0840909,
                "tempo": 120.0
            },
            {
                "start_time": 74.0,
                "end_time": 74.0840909,
                "pitch": 69,
                "velocity": 40,
                "duration": 0.0840909,
                "tempo": 120.0
            },
            {
                "start_time": 74.1,
                "end_time": 74.1840909,
                "pitch": 65,
                "velocity": 40,
                "duration": 0.0840909,
                "tempo": 120.0
            },
            {
                "start_time": 74.2,
                "end_time": 74.2840909,
                "pitch": 74,
                "velocity": 40,
                "duration": 0.0840909,
                "tempo": 120.0
            },
            {
                "start_time": 74.3,
                "end_time": 74.3840909,
                "pitch": 69,
                "velocity": 40,
                "duration": 0.0840909,
                "tempo": 120.0
            },
            {
                "start_time": 74.4022727,
                "end_time": 74.4863636,
                "pitch": 65,
                "velocity": 40,
                "duration": 0.0840909,
                "tempo": 120.0
            },
            {
                "start_time": 74.5022727,
                "end_time": 74.5863636,
                "pitch": 62,
                "velocity": 40,
                "duration": 0.0840909,
                "tempo": 120.0
            },
            {
                "start_time": 74.6022727,
                "end_time": 74.6863636,
                "pitch": 74,
                "velocity": 40,
                "duration": 0.0840909,
                "tempo": 120.0
            },
            {
                "start_time": 74.7045455,
                "end_time": 74.7886364,
                "pitch": 71,
                "velocity": 40,
                "duration": 0.0840909,
                "tempo": 120.0
            },
            {
                "start_time": 74.8045455,
                "end_time": 74.8886364,
                "pitch": 67,
                "velocity": 40,
                "duration": 0.0840909,
                "tempo": 120.0
            },
            {
                "start_time": 74.9045455,
                "end_time": 74.9886364,
                "pitch": 74,
                "velocity": 40,
                "duration": 0.0840909,
                "tempo": 120.0
            },
            {
                "start_time": 75.0068182,
                "end_time": 75.0886364,
                "pitch": 71,
                "velocity": 40,
                "duration": 0.0818182,
                "tempo": 120.0
            },
            {
                "start_time": 75.1068182,
                "end_time": 75.1886364,
                "pitch": 67,
                "velocity": 40,
                "duration": 0.0818182,
                "tempo": 120.0
            },
            {
                "start_time": 75.2068182,
                "end_time": 75.2886364,
                "pitch": 74,
                "velocity": 40,
                "duration": 0.0818182,
                "tempo": 120.0
            },
            {
                "start_time": 75.3068182,
                "end_time": 75.3886364,
                "pitch": 71,
                "velocity": 40,
                "duration": 0.0818182,
                "tempo": 120.0
            },
            {
                "start_time": 75.4068182,
                "end_time": 75.4886364,
                "pitch": 67,
                "velocity": 40,
                "duration": 0.0818182,
                "tempo": 120.0
            },
            {
                "start_time": 75.5068182,
                "end_time": 75.5909091,
                "pitch": 74,
                "velocity": 40,
                "duration": 0.0840909,
                "tempo": 120.0
            },
            {
                "start_time": 75.6068182,
                "end_time": 75.6909091,
                "pitch": 71,
                "velocity": 40,
                "duration": 0.0840909,
                "tempo": 120.0
            },
            {
                "start_time": 75.7068182,
                "end_time": 75.7909091,
                "pitch": 67,
                "velocity": 40,
                "duration": 0.0840909,
                "tempo": 120.0
            },
            {
                "start_time": 75.8090909,
                "end_time": 75.8909091,
                "pitch": 74,
                "velocity": 40,
                "duration": 0.0818182,
                "tempo": 120.0
            },
            {
                "start_time": 75.9090909,
                "end_time": 75.9909091,
                "pitch": 71,
                "velocity": 40,
                "duration": 0.0818182,
                "tempo": 120.0
            },
            {
                "start_time": 76.0090909,
                "end_time": 76.0909091,
                "pitch": 67,
                "velocity": 40,
                "duration": 0.0818182,
                "tempo": 120.0
            },
            {
                "start_time": 76.1090909,
                "end_time": 76.1909091,
                "pitch": 62,
                "velocity": 40,
                "duration": 0.0818182,
                "tempo": 120.0
            },
            {
                "start_time": 76.2090909,
                "end_time": 76.2931818,
                "pitch": 76,
                "velocity": 40,
                "duration": 0.0840909,
                "tempo": 120.0
            },
            {
                "start_time": 76.3090909,
                "end_time": 76.3931818,
                "pitch": 72,
                "velocity": 40,
                "duration": 0.0840909,
                "tempo": 120.0
            },
            {
                "start_time": 76.4090909,
                "end_time": 76.4931818,
                "pitch": 69,
                "velocity": 40,
                "duration": 0.0840909,
                "tempo": 120.0
            },
            {
                "start_time": 76.5113636,
                "end_time": 76.5954545,
                "pitch": 76,
                "velocity": 40,
                "duration": 0.0840909,
                "tempo": 120.0
            },
            {
                "start_time": 76.6113636,
                "end_time": 76.6954545,
                "pitch": 72,
                "velocity": 40,
                "duration": 0.0840909,
                "tempo": 120.0
            },
            {
                "start_time": 76.7113636,
                "end_time": 76.7954545,
                "pitch": 69,
                "velocity": 40,
                "duration": 0.0840909,
                "tempo": 120.0
            },
            {
                "start_time": 76.8113636,
                "end_time": 76.8954545,
                "pitch": 76,
                "velocity": 40,
                "duration": 0.0840909,
                "tempo": 120.0
            },
            {
                "start_time": 76.9136364,
                "end_time": 76.9977273,
                "pitch": 72,
                "velocity": 40,
                "duration": 0.0840909,
                "tempo": 120.0
            },
            {
                "start_time": 77.0136364,
                "end_time": 77.0977273,
                "pitch": 69,
                "velocity": 40,
                "duration": 0.0840909,
                "tempo": 120.0
            },
            {
                "start_time": 77.1136364,
                "end_time": 77.1977273,
                "pitch": 76,
                "velocity": 40,
                "duration": 0.0840909,
                "tempo": 120.0
            },
            {
                "start_time": 77.2136364,
                "end_time": 77.2977273,
                "pitch": 72,
                "velocity": 40,
                "duration": 0.0840909,
                "tempo": 120.0
            },
            {
                "start_time": 77.3136364,
                "end_time": 77.3977273,
                "pitch": 69,
                "velocity": 40,
                "duration": 0.0840909,
                "tempo": 120.0
            },
            {
                "start_time": 77.4136364,
                "end_time": 77.5,
                "pitch": 76,
                "velocity": 40,
                "duration": 0.0863636,
                "tempo": 120.0
            },
            {
                "start_time": 77.5159091,
                "end_time": 77.6022727,
                "pitch": 72,
                "velocity": 40,
                "duration": 0.0863636,
                "tempo": 120.0
            },
            {
                "start_time": 77.6181818,
                "end_time": 77.7045455,
                "pitch": 69,
                "velocity": 40,
                "duration": 0.0863636,
                "tempo": 120.0
            },
            {
                "start_time": 77.7227273,
                "end_time": 77.825,
                "pitch": 64,
                "velocity": 40,
                "duration": 0.1022727,
                "tempo": 120.0
            }
        ],
        "Acoustic Bass": [
            {
                "start_time": 0.0,
                "end_time": 0.775,
                "pitch": 31,
                "velocity": 32,
                "duration": 0.775,
                "tempo": 120.0
            },
            {
                "start_time": 0.7909091,
                "end_time": 0.8772727,
                "pitch": 33,
                "velocity": 32,
                "duration": 0.0863636,
                "tempo": 120.0
            },
            {
                "start_time": 0.7909091,
                "end_time": 0.8772727,
                "pitch": 33,
                "velocity": 32,
                "duration": 0.0863636,
                "tempo": 120.0
            },
            {
                "start_time": 0.9977273,
                "end_time": 1.0840909,
                "pitch": 33,
                "velocity": 32,
                "duration": 0.0863636,
                "tempo": 120.0
            },
            {
                "start_time": 1.1,
                "end_time": 1.1863636,
                "pitch": 33,
                "velocity": 32,
                "duration": 0.0863636,
                "tempo": 120.0
            },
            {
                "start_time": 1.2022727,
                "end_time": 1.2863636,
                "pitch": 33,
                "velocity": 32,
                "duration": 0.0840909,
                "tempo": 120.0
            },
            {
                "start_time": 1.4022727,
                "end_time": 1.4863636,
                "pitch": 33,
                "velocity": 32,
                "duration": 0.0840909,
                "tempo": 120.0
            },
            {
                "start_time": 1.5022727,
                "end_time": 1.5863636,
                "pitch": 33,
                "velocity": 32,
                "duration": 0.0840909,
                "tempo": 120.0
            },
            {
                "start_time": 1.6022727,
                "end_time": 1.6863636,
                "pitch": 33,
                "velocity": 32,
                "duration": 0.0840909,
                "tempo": 120.0
            },
            {
                "start_time": 1.8045455,
                "end_time": 1.8886364,
                "pitch": 33,
                "velocity": 32,
                "duration": 0.0840909,
                "tempo": 120.0
            },
            {
                "start_time": 1.9045455,
                "end_time": 1.9886364,
                "pitch": 33,
                "velocity": 32,
                "duration": 0.0840909,
                "tempo": 120.0
            },
            {
                "start_time": 2.0045455,
                "end_time": 2.0886364,
                "pitch": 33,
                "velocity": 32,
                "duration": 0.0840909,
                "tempo": 120.0
            },
            {
                "start_time": 2.1045455,
                "end_time": 2.1886364,
                "pitch": 35,
                "velocity": 32,
                "duration": 0.0840909,
                "tempo": 120.0
            },
            {
                "start_time": 2.2045455,
                "end_time": 2.2886364,
                "pitch": 38,
                "velocity": 32,
                "duration": 0.0840909,
                "tempo": 120.0
            },
            {
                "start_time": 2.3045455,
                "end_time": 2.3886364,
                "pitch": 40,
                "velocity": 32,
                "duration": 0.0840909,
                "tempo": 120.0
            },
            {
                "start_time": 2.4045455,
                "end_time": 2.4886364,
                "pitch": 33,
                "velocity": 32,
                "duration": 0.0840909,
                "tempo": 120.0
            },
            {
                "start_time": 2.5045455,
                "end_time": 2.5886364,
                "pitch": 35,
                "velocity": 32,
                "duration": 0.0840909,
                "tempo": 120.0
            },
            {
                "start_time": 2.6045455,
                "end_time": 2.6886364,
                "pitch": 38,
                "velocity": 32,
                "duration": 0.0840909,
                "tempo": 120.0
            },
            {
                "start_time": 2.7045455,
                "end_time": 2.7886364,
                "pitch": 40,
                "velocity": 32,
                "duration": 0.0840909,
                "tempo": 120.0
            },
            {
                "start_time": 2.8045455,
                "end_time": 2.8886364,
                "pitch": 38,
                "velocity": 32,
                "duration": 0.0840909,
                "tempo": 120.0
            },
            {
                "start_time": 2.9045455,
                "end_time": 2.9886364,
                "pitch": 36,
                "velocity": 32,
                "duration": 0.0840909,
                "tempo": 120.0
            },
            {
                "start_time": 3.0045455,
                "end_time": 3.0886364,
                "pitch": 35,
                "velocity": 32,
                "duration": 0.0840909,
                "tempo": 120.0
            },
            {
                "start_time": 3.1045455,
                "end_time": 3.1886364,
                "pitch": 33,
                "velocity": 32,
                "duration": 0.0840909,
                "tempo": 120.0
            },
            {
                "start_time": 3.2045455,
                "end_time": 3.2886364,
                "pitch": 33,
                "velocity": 32,
                "duration": 0.0840909,
                "tempo": 120.0
            },
            {
                "start_time": 3.3068182,
                "end_time": 3.3909091,
                "pitch": 35,
                "velocity": 32,
                "duration": 0.0840909,
                "tempo": 120.0
            },
            {
                "start_time": 3.4068182,
                "end_time": 3.4909091,
                "pitch": 38,
                "velocity": 32,
                "duration": 0.0840909,
                "tempo": 120.0
            },
            {
                "start_time": 3.5068182,
                "end_time": 3.5909091,
                "pitch": 40,
                "velocity": 32,
                "duration": 0.0840909,
                "tempo": 120.0
            },
            {
                "start_time": 3.6090909,
                "end_time": 3.6909091,
                "pitch": 33,
                "velocity": 32,
                "duration": 0.0818182,
                "tempo": 120.0
            },
            {
                "start_time": 3.7090909,
                "end_time": 3.7909091,
                "pitch": 35,
                "velocity": 32,
                "duration": 0.0818182,
                "tempo": 120.0
            },
            {
                "start_time": 3.8090909,
                "end_time": 3.8909091,
                "pitch": 38,
                "velocity": 32,
                "duration": 0.0818182,
                "tempo": 120.0
            },
            {
                "start_time": 3.9090909,
                "end_time": 3.9909091,
                "pitch": 40,
                "velocity": 32,
                "duration": 0.0818182,
                "tempo": 120.0
            },
            {
                "start_time": 4.0090909,
                "end_time": 4.0909091,
                "pitch": 33,
                "velocity": 32,
                "duration": 0.0818182,
                "tempo": 120.0
            },
            {
                "start_time": 4.2090909,
                "end_time": 4.2909091,
                "pitch": 33,
                "velocity": 32,
                "duration": 0.0818182,
                "tempo": 120.0
            },
            {
                "start_time": 4.3090909,
                "end_time": 4.3909091,
                "pitch": 33,
                "velocity": 32,
                "duration": 0.0818182,
                "tempo": 120.0
            },
            {
                "start_time": 4.4090909,
                "end_time": 4.4931818,
                "pitch": 33,
                "velocity": 32,
                "duration": 0.0840909,
                "tempo": 120.0
            },
            {
                "start_time": 4.6090909,
                "end_time": 4.6931818,
                "pitch": 33,
                "velocity": 32,
                "duration": 0.0840909,
                "tempo": 120.0
            },
            {
                "start_time": 4.7113636,
                "end_time": 4.7931818,
                "pitch": 33,
                "velocity": 32,
                "duration": 0.0818182,
                "tempo": 120.0
            },
            {
                "start_time": 4.8113636,
                "end_time": 4.8931818,
                "pitch": 33,
                "velocity": 32,
                "duration": 0.0818182,
                "tempo": 120.0
            },
            {
                "start_time": 5.0113636,
                "end_time": 5.0931818,
                "pitch": 33,
                "velocity": 32,
                "duration": 0.0818182,
                "tempo": 120.0
            },
            {
                "start_time": 5.1113636,
                "end_time": 5.1931818,
                "pitch": 33,
                "velocity": 32,
                "duration": 0.0818182,
                "tempo": 120.0
            },
            {
                "start_time": 5.2113636,
                "end_time": 5.2954545,
                "pitch": 33,
                "velocity": 32,
                "duration": 0.0840909,
                "tempo": 120.0
            },
            {
                "start_time": 5.3113636,
                "end_time": 5.3954545,
                "pitch": 35,
                "velocity": 32,
                "duration": 0.0840909,
                "tempo": 120.0
            },
            {
                "start_time": 5.4113636,
                "end_time": 5.4954545,
                "pitch": 38,
                "velocity": 32,
                "duration": 0.0840909,
                "tempo": 120.0
            },
            {
                "start_time": 5.5136364,
                "end_time": 5.5977273,
                "pitch": 40,
                "velocity": 32,
                "duration": 0.0840909,
                "tempo": 120.0
            },
            {
                "start_time": 5.6136364,
                "end_time": 5.6977273,
                "pitch": 33,
                "velocity": 32,
                "duration": 0.0840909,
                "tempo": 120.0
            },
            {
                "start_time": 5.7136364,
                "end_time": 5.7977273,
                "pitch": 35,
                "velocity": 32,
                "duration": 0.0840909,
                "tempo": 120.0
            },
            {
                "start_time": 5.8136364,
                "end_time": 5.8977273,
                "pitch": 38,
                "velocity": 32,
                "duration": 0.0840909,
                "tempo": 120.0
            },
            {
                "start_time": 5.9136364,
                "end_time": 5.9977273,
                "pitch": 40,
                "velocity": 32,
                "duration": 0.0840909,
                "tempo": 120.0
            },
            {
                "start_time": 6.0136364,
                "end_time": 6.0977273,
                "pitch": 38,
                "velocity": 32,
                "duration": 0.0840909,
                "tempo": 120.0
            },
            {
                "start_time": 6.1136364,
                "end_time": 6.1977273,
                "pitch": 36,
                "velocity": 32,
                "duration": 0.0840909,
                "tempo": 120.0
            },
            {
                "start_time": 6.2159091,
                "end_time": 6.3,
                "pitch": 35,
                "velocity": 32,
                "duration": 0.0840909,
                "tempo": 120.0
            },
            {
                "start_time": 6.3159091,
                "end_time": 6.4,
                "pitch": 33,
                "velocity": 32,
                "duration": 0.0840909,
                "tempo": 120.0
            },
            {
                "start_time": 6.4159091,
                "end_time": 6.5,
                "pitch": 33,
                "velocity": 32,
                "duration": 0.0840909,
                "tempo": 120.0
            },
            {
                "start_time": 6.5159091,
                "end_time": 6.6,
                "pitch": 35,
                "velocity": 32,
                "duration": 0.0840909,
                "tempo": 120.0
            },
            {
                "start_time": 6.6181818,
                "end_time": 6.7022727,
                "pitch": 38,
                "velocity": 32,
                "duration": 0.0840909,
                "tempo": 120.0
            },
            {
                "start_time": 6.7181818,
                "end_time": 6.8022727,
                "pitch": 40,
                "velocity": 32,
                "duration": 0.0840909,
                "tempo": 120.0
            },
            {
                "start_time": 6.8181818,
                "end_time": 6.9022727,
                "pitch": 33,
                "velocity": 32,
                "duration": 0.0840909,
                "tempo": 120.0
            },
            {
                "start_time": 6.9181818,
                "end_time": 7.0022727,
                "pitch": 35,
                "velocity": 32,
                "duration": 0.0840909,
                "tempo": 120.0
            },
            {
                "start_time": 7.0181818,
                "end_time": 7.1022727,
                "pitch": 38,
                "velocity": 32,
                "duration": 0.0840909,
                "tempo": 120.0
            },
            {
                "start_time": 7.1181818,
                "end_time": 7.2022727,
                "pitch": 40,
                "velocity": 32,
                "duration": 0.0840909,
                "tempo": 120.0
            },
            {
                "start_time": 7.2181818,
                "end_time": 7.3022727,
                "pitch": 38,
                "velocity": 32,
                "duration": 0.0840909,
                "tempo": 120.0
            },
            {
                "start_time": 7.4204545,
                "end_time": 7.5045455,
                "pitch": 38,
                "velocity": 32,
                "duration": 0.0840909,
                "tempo": 120.0
            },
            {
                "start_time": 7.5204545,
                "end_time": 7.6045455,
                "pitch": 38,
                "velocity": 32,
                "duration": 0.0840909,
                "tempo": 120.0
            },
            {
                "start_time": 7.6227273,
                "end_time": 7.7045455,
                "pitch": 38,
                "velocity": 32,
                "duration": 0.0818182,
                "tempo": 120.0
            },
            {
                "start_time": 7.8227273,
                "end_time": 7.9045455,
                "pitch": 38,
                "velocity": 32,
                "duration": 0.0818182,
                "tempo": 120.0
            },
            {
                "start_time": 7.9227273,
                "end_time": 8.0045455,
                "pitch": 38,
                "velocity": 32,
                "duration": 0.0818182,
                "tempo": 120.0
            },
            {
                "start_time": 8.0227273,
                "end_time": 8.1045455,
                "pitch": 38,
                "velocity": 32,
                "duration": 0.0818182,
                "tempo": 120.0
            },
            {
                "start_time": 8.2227273,
                "end_time": 8.3068182,
                "pitch": 38,
                "velocity": 32,
                "duration": 0.0840909,
                "tempo": 120.0
            },
            {
                "start_time": 8.3227273,
                "end_time": 8.4068182,
                "pitch": 38,
                "velocity": 32,
                "duration": 0.0840909,
                "tempo": 120.0
            },
            {
                "start_time": 8.425,
                "end_time": 8.5090909,
                "pitch": 38,
                "velocity": 32,
                "duration": 0.0840909,
                "tempo": 120.0
            },
            {
                "start_time": 8.525,
                "end_time": 8.6090909,
                "pitch": 40,
                "velocity": 32,
                "duration": 0.0840909,
                "tempo": 120.0
            },
            {
                "start_time": 8.625,
                "end_time": 8.7090909,
                "pitch": 43,
                "velocity": 32,
                "duration": 0.0840909,
                "tempo": 120.0
            },
            {
                "start_time": 8.7272727,
                "end_time": 8.8113636,
                "pitch": 45,
                "velocity": 32,
                "duration": 0.0840909,
                "tempo": 120.0
            },
            {
                "start_time": 8.8272727,
                "end_time": 8.9113636,
                "pitch": 38,
                "velocity": 32,
                "duration": 0.0840909,
                "tempo": 120.0
            },
            {
                "start_time": 8.9272727,
                "end_time": 9.0113636,
                "pitch": 40,
                "velocity": 32,
                "duration": 0.0840909,
                "tempo": 120.0
            },
            {
                "start_time": 9.0272727,
                "end_time": 9.1113636,
                "pitch": 43,
                "velocity": 32,
                "duration": 0.0840909,
                "tempo": 120.0
            },
            {
                "start_time": 9.1295455,
                "end_time": 9.2136364,
                "pitch": 45,
                "velocity": 32,
                "duration": 0.0840909,
                "tempo": 120.0
            },
            {
                "start_time": 9.2295455,
                "end_time": 9.3136364,
                "pitch": 40,
                "velocity": 32,
                "duration": 0.0840909,
                "tempo": 120.0
            },
            {
                "start_time": 9.3295455,
                "end_time": 9.4136364,
                "pitch": 38,
                "velocity": 32,
                "duration": 0.0840909,
                "tempo": 120.0
            },
            {
                "start_time": 9.4295455,
                "end_time": 9.5136364,
                "pitch": 36,
                "velocity": 32,
                "duration": 0.0840909,
                "tempo": 120.0
            },
            {
                "start_time": 9.5295455,
                "end_time": 9.6136364,
                "pitch": 35,
                "velocity": 32,
                "duration": 0.0840909,
                "tempo": 120.0
            },
            {
                "start_time": 9.6295455,
                "end_time": 9.7136364,
                "pitch": 38,
                "velocity": 32,
                "duration": 0.0840909,
                "tempo": 120.0
            },
            {
                "start_time": 9.7295455,
                "end_time": 9.8136364,
                "pitch": 40,
                "velocity": 32,
                "duration": 0.0840909,
                "tempo": 120.0
            },
            {
                "start_time": 9.8318182,
                "end_time": 9.9159091,
                "pitch": 43,
                "velocity": 32,
                "duration": 0.0840909,
                "tempo": 120.0
            },
            {
                "start_time": 9.9318182,
                "end_time": 10.0159091,
                "pitch": 45,
                "velocity": 32,
                "duration": 0.0840909,
                "tempo": 120.0
            },
            {
                "start_time": 10.0318182,
                "end_time": 10.1159091,
                "pitch": 38,
                "velocity": 32,
                "duration": 0.0840909,
                "tempo": 120.0
            },
            {
                "start_time": 10.1340909,
                "end_time": 10.2159091,
                "pitch": 40,
                "velocity": 32,
                "duration": 0.0818182,
                "tempo": 120.0
            },
            {
                "start_time": 10.2340909,
                "end_time": 10.3181818,
                "pitch": 43,
                "velocity": 32,
                "duration": 0.0840909,
                "tempo": 120.0
            },
            {
                "start_time": 10.3340909,
                "end_time": 10.4181818,
                "pitch": 45,
                "velocity": 32,
                "duration": 0.0840909,
                "tempo": 120.0
            },
            {
                "start_time": 10.4340909,
                "end_time": 10.5181818,
                "pitch": 38,
                "velocity": 32,
                "duration": 0.0840909,
                "tempo": 120.0
            },
            {
                "start_time": 10.6363636,
                "end_time": 10.7204545,
                "pitch": 38,
                "velocity": 32,
                "duration": 0.0840909,
                "tempo": 120.0
            },
            {
                "start_time": 10.7363636,
                "end_time": 10.8204545,
                "pitch": 38,
                "velocity": 32,
                "duration": 0.0840909,
                "tempo": 120.0
            },
            {
                "start_time": 10.8386364,
                "end_time": 10.9227273,
                "pitch": 38,
                "velocity": 32,
                "duration": 0.0840909,
                "tempo": 120.0
            },
            {
                "start_time": 11.0386364,
                "end_time": 11.1227273,
                "pitch": 38,
                "velocity": 32,
                "duration": 0.0840909,
                "tempo": 120.0
            },
            {
                "start_time": 11.1409091,
                "end_time": 11.2227273,
                "pitch": 38,
                "velocity": 32,
                "duration": 0.0818182,
                "tempo": 120.0
            },
            {
                "start_time": 11.2409091,
                "end_time": 11.3227273,
                "pitch": 38,
                "velocity": 32,
                "duration": 0.0818182,
                "tempo": 120.0
            },
            {
                "start_time": 11.4409091,
                "end_time": 11.5227273,
                "pitch": 38,
                "velocity": 32,
                "duration": 0.0818182,
                "tempo": 120.0
            },
            {
                "start_time": 11.5409091,
                "end_time": 11.6227273,
                "pitch": 38,
                "velocity": 32,
                "duration": 0.0818182,
                "tempo": 120.0
            },
            {
                "start_time": 11.6409091,
                "end_time": 11.725,
                "pitch": 38,
                "velocity": 32,
                "duration": 0.0840909,
                "tempo": 120.0
            },
            {
                "start_time": 11.7409091,
                "end_time": 11.825,
                "pitch": 40,
                "velocity": 32,
                "duration": 0.0840909,
                "tempo": 120.0
            },
            {
                "start_time": 11.8409091,
                "end_time": 11.925,
                "pitch": 43,
                "velocity": 32,
                "duration": 0.0840909,
                "tempo": 120.0
            },
            {
                "start_time": 11.9431818,
                "end_time": 12.0272727,
                "pitch": 45,
                "velocity": 32,
                "duration": 0.0840909,
                "tempo": 120.0
            },
            {
                "start_time": 12.0431818,
                "end_time": 12.1272727,
                "pitch": 38,
                "velocity": 32,
                "duration": 0.0840909,
                "tempo": 120.0
            },
            {
                "start_time": 12.1431818,
                "end_time": 12.2272727,
                "pitch": 40,
                "velocity": 32,
                "duration": 0.0840909,
                "tempo": 120.0
            },
            {
                "start_time": 12.2454545,
                "end_time": 12.3272727,
                "pitch": 43,
                "velocity": 32,
                "duration": 0.0818182,
                "tempo": 120.0
            },
            {
                "start_time": 12.3454545,
                "end_time": 12.4295455,
                "pitch": 45,
                "velocity": 32,
                "duration": 0.0840909,
                "tempo": 120.0
            },
            {
                "start_time": 12.4454545,
                "end_time": 12.5295455,
                "pitch": 40,
                "velocity": 32,
                "duration": 0.0840909,
                "tempo": 120.0
            },
            {
                "start_time": 12.5454545,
                "end_time": 12.6295455,
                "pitch": 38,
                "velocity": 32,
                "duration": 0.0840909,
                "tempo": 120.0
            },
            {
                "start_time": 12.6477273,
                "end_time": 12.7318182,
                "pitch": 36,
                "velocity": 32,
                "duration": 0.0840909,
                "tempo": 120.0
            },
            {
                "start_time": 12.7477273,
                "end_time": 12.8318182,
                "pitch": 35,
                "velocity": 32,
                "duration": 0.0840909,
                "tempo": 120.0
            },
            {
                "start_time": 12.8477273,
                "end_time": 12.9318182,
                "pitch": 38,
                "velocity": 32,
                "duration": 0.0840909,
                "tempo": 120.0
            },
            {
                "start_time": 12.95,
                "end_time": 13.0340909,
                "pitch": 40,
                "velocity": 32,
                "duration": 0.0840909,
                "tempo": 120.0
            },
            {
                "start_time": 13.05,
                "end_time": 13.1340909,
                "pitch": 43,
                "velocity": 32,
                "duration": 0.0840909,
                "tempo": 120.0
            },
            {
                "start_time": 13.15,
                "end_time": 13.2340909,
                "pitch": 45,
                "velocity": 32,
                "duration": 0.0840909,
                "tempo": 120.0
            },
            {
                "start_time": 13.2522727,
                "end_time": 13.3340909,
                "pitch": 38,
                "velocity": 32,
                "duration": 0.0818182,
                "tempo": 120.0
            },
            {
                "start_time": 13.3522727,
                "end_time": 13.4340909,
                "pitch": 40,
                "velocity": 32,
                "duration": 0.0818182,
                "tempo": 120.0
            },
            {
                "start_time": 13.4522727,
                "end_time": 13.5340909,
                "pitch": 43,
                "velocity": 32,
                "duration": 0.0818182,
                "tempo": 120.0
            },
            {
                "start_time": 13.5522727,
                "end_time": 13.6340909,
                "pitch": 45,
                "velocity": 32,
                "duration": 0.0818182,
                "tempo": 120.0
            },
            {
                "start_time": 13.6522727,
                "end_time": 13.7340909,
                "pitch": 40,
                "velocity": 32,
                "duration": 0.0818182,
                "tempo": 120.0
            },
            {
                "start_time": 13.8522727,
                "end_time": 13.9363636,
                "pitch": 40,
                "velocity": 32,
                "duration": 0.0840909,
                "tempo": 120.0
            },
            {
                "start_time": 13.9522727,
                "end_time": 14.0363636,
                "pitch": 40,
                "velocity": 32,
                "duration": 0.0840909,
                "tempo": 120.0
            },
            {
                "start_time": 14.0545455,
                "end_time": 14.1386364,
                "pitch": 40,
                "velocity": 32,
                "duration": 0.0840909,
                "tempo": 120.0
            },
            {
                "start_time": 14.2545455,
                "end_time": 14.3386364,
                "pitch": 40,
                "velocity": 32,
                "duration": 0.0840909,
                "tempo": 120.0
            },
            {
                "start_time": 14.3568182,
                "end_time": 14.4409091,
                "pitch": 40,
                "velocity": 32,
                "duration": 0.0840909,
                "tempo": 120.0
            },
            {
                "start_time": 14.4568182,
                "end_time": 14.5409091,
                "pitch": 40,
                "velocity": 32,
                "duration": 0.0840909,
                "tempo": 120.0
            },
            {
                "start_time": 14.6568182,
                "end_time": 14.7409091,
                "pitch": 40,
                "velocity": 32,
                "duration": 0.0840909,
                "tempo": 120.0
            },
            {
                "start_time": 14.7590909,
                "end_time": 14.8431818,
                "pitch": 40,
                "velocity": 32,
                "duration": 0.0840909,
                "tempo": 120.0
            },
            {
                "start_time": 14.8590909,
                "end_time": 14.9431818,
                "pitch": 40,
                "velocity": 32,
                "duration": 0.0840909,
                "tempo": 120.0
            },
            {
                "start_time": 14.9590909,
                "end_time": 15.0431818,
                "pitch": 41,
                "velocity": 32,
                "duration": 0.0840909,
                "tempo": 120.0
            },
            {
                "start_time": 15.0613636,
                "end_time": 15.1454545,
                "pitch": 43,
                "velocity": 32,
                "duration": 0.0840909,
                "tempo": 120.0
            },
            {
                "start_time": 15.1613636,
                "end_time": 15.2454545,
                "pitch": 45,
                "velocity": 32,
                "duration": 0.0840909,
                "tempo": 120.0
            },
            {
                "start_time": 15.2613636,
                "end_time": 15.3454545,
                "pitch": 38,
                "velocity": 32,
                "duration": 0.0840909,
                "tempo": 120.0
            },
            {
                "start_time": 15.4613636,
                "end_time": 15.5454545,
                "pitch": 38,
                "velocity": 32,
                "duration": 0.0840909,
                "tempo": 120.0
            },
            {
                "start_time": 15.5613636,
                "end_time": 15.6454545,
                "pitch": 38,
                "velocity": 32,
                "duration": 0.0840909,
                "tempo": 120.0
            },
            {
                "start_time": 15.6613636,
                "end_time": 15.7454545,
                "pitch": 38,
                "velocity": 32,
                "duration": 0.0840909,
                "tempo": 120.0
            },
            {
                "start_time": 15.8636364,
                "end_time": 15.9477273,
                "pitch": 38,
                "velocity": 32,
                "duration": 0.0840909,
                "tempo": 120.0
            },
            {
                "start_time": 15.9636364,
                "end_time": 16.0477273,
                "pitch": 38,
                "velocity": 32,
                "duration": 0.0840909,
                "tempo": 120.0
            },
            {
                "start_time": 16.0636364,
                "end_time": 16.1477273,
                "pitch": 38,
                "velocity": 32,
                "duration": 0.0840909,
                "tempo": 120.0
            },
            {
                "start_time": 16.2659091,
                "end_time": 16.35,
                "pitch": 38,
                "velocity": 32,
                "duration": 0.0840909,
                "tempo": 120.0
            },
            {
                "start_time": 16.3659091,
                "end_time": 16.45,
                "pitch": 38,
                "velocity": 32,
                "duration": 0.0840909,
                "tempo": 120.0
            },
            {
                "start_time": 16.4681818,
                "end_time": 16.55,
                "pitch": 38,
                "velocity": 32,
                "duration": 0.0818182,
                "tempo": 120.0
            },
            {
                "start_time": 16.5681818,
                "end_time": 16.65,
                "pitch": 40,
                "velocity": 32,
                "duration": 0.0818182,
                "tempo": 120.0
            },
            {
                "start_time": 16.6681818,
                "end_time": 16.75,
                "pitch": 43,
                "velocity": 32,
                "duration": 0.0818182,
                "tempo": 120.0
            },
            {
                "start_time": 16.7681818,
                "end_time": 16.85,
                "pitch": 45,
                "velocity": 32,
                "duration": 0.0818182,
                "tempo": 120.0
            },
            {
                "start_time": 16.8681818,
                "end_time": 16.9522727,
                "pitch": 33,
                "velocity": 32,
                "duration": 0.0840909,
                "tempo": 120.0
            },
            {
                "start_time": 17.0681818,
                "end_time": 17.1522727,
                "pitch": 33,
                "velocity": 32,
                "duration": 0.0840909,
                "tempo": 120.0
            },
            {
                "start_time": 17.1704545,
                "end_time": 17.2522727,
                "pitch": 33,
                "velocity": 32,
                "duration": 0.0818182,
                "tempo": 120.0
            },
            {
                "start_time": 17.2704545,
                "end_time": 17.3522727,
                "pitch": 33,
                "velocity": 32,
                "duration": 0.0818182,
                "tempo": 120.0
            },
            {
                "start_time": 17.4704545,
                "end_time": 17.5522727,
                "pitch": 33,
                "velocity": 32,
                "duration": 0.0818182,
                "tempo": 120.0
            },
            {
                "start_time": 17.5704545,
                "end_time": 17.6522727,
                "pitch": 33,
                "velocity": 32,
                "duration": 0.0818182,
                "tempo": 120.0
            },
            {
                "start_time": 17.6704545,
                "end_time": 17.7545455,
                "pitch": 33,
                "velocity": 32,
                "duration": 0.0840909,
                "tempo": 120.0
            },
            {
                "start_time": 17.8704545,
                "end_time": 17.9545455,
                "pitch": 33,
                "velocity": 32,
                "duration": 0.0840909,
                "tempo": 120.0
            },
            {
                "start_time": 17.9727273,
                "end_time": 18.0568182,
                "pitch": 33,
                "velocity": 32,
                "duration": 0.0840909,
                "tempo": 120.0
            },
            {
                "start_time": 18.0727273,
                "end_time": 18.1568182,
                "pitch": 33,
                "velocity": 32,
                "duration": 0.0840909,
                "tempo": 120.0
            },
            {
                "start_time": 18.1727273,
                "end_time": 18.2568182,
                "pitch": 35,
                "velocity": 32,
                "duration": 0.0840909,
                "tempo": 120.0
            },
            {
                "start_time": 18.2727273,
                "end_time": 18.3568182,
                "pitch": 38,
                "velocity": 32,
                "duration": 0.0840909,
                "tempo": 120.0
            },
            {
                "start_time": 18.3727273,
                "end_time": 18.4568182,
                "pitch": 40,
                "velocity": 32,
                "duration": 0.0840909,
                "tempo": 120.0
            },
            {
                "start_time": 18.4727273,
                "end_time": 18.5568182,
                "pitch": 40,
                "velocity": 32,
                "duration": 0.0840909,
                "tempo": 120.0
            },
            {
                "start_time": 18.6727273,
                "end_time": 18.7568182,
                "pitch": 40,
                "velocity": 32,
                "duration": 0.0840909,
                "tempo": 120.0
            },
            {
                "start_time": 18.7727273,
                "end_time": 18.8568182,
                "pitch": 40,
                "velocity": 32,
                "duration": 0.0840909,
                "tempo": 120.0
            },
            {
                "start_time": 18.8727273,
                "end_time": 18.9568182,
                "pitch": 40,
                "velocity": 32,
                "duration": 0.0840909,
                "tempo": 120.0
            },
            {
                "start_time": 19.075,
                "end_time": 19.1568182,
                "pitch": 40,
                "velocity": 32,
                "duration": 0.0818182,
                "tempo": 120.0
            },
            {
                "start_time": 19.175,
                "end_time": 19.2590909,
                "pitch": 40,
                "velocity": 32,
                "duration": 0.0840909,
                "tempo": 120.0
            },
            {
                "start_time": 19.275,
                "end_time": 19.3590909,
                "pitch": 40,
                "velocity": 32,
                "duration": 0.0840909,
                "tempo": 120.0
            },
            {
                "start_time": 19.475,
                "end_time": 19.5590909,
                "pitch": 40,
                "velocity": 32,
                "duration": 0.0840909,
                "tempo": 120.0
            },
            {
                "start_time": 19.575,
                "end_time": 19.6590909,
                "pitch": 40,
                "velocity": 32,
                "duration": 0.0840909,
                "tempo": 120.0
            },
            {
                "start_time": 19.675,
                "end_time": 19.7590909,
                "pitch": 40,
                "velocity": 32,
                "duration": 0.0840909,
                "tempo": 120.0
            },
            {
                "start_time": 19.775,
                "end_time": 19.8590909,
                "pitch": 41,
                "velocity": 32,
                "duration": 0.0840909,
                "tempo": 120.0
            },
            {
                "start_time": 19.8772727,
                "end_time": 19.9613636,
                "pitch": 43,
                "velocity": 32,
                "duration": 0.0840909,
                "tempo": 120.0
            },
            {
                "start_time": 19.9772727,
                "end_time": 20.0613636,
                "pitch": 45,
                "velocity": 32,
                "duration": 0.0840909,
                "tempo": 120.0
            },
            {
                "start_time": 20.0772727,
                "end_time": 20.1613636,
                "pitch": 38,
                "velocity": 32,
                "duration": 0.0840909,
                "tempo": 120.0
            },
            {
                "start_time": 20.2772727,
                "end_time": 20.3613636,
                "pitch": 38,
                "velocity": 32,
                "duration": 0.0840909,
                "tempo": 120.0
            },
            {
                "start_time": 20.3772727,
                "end_time": 20.4613636,
                "pitch": 38,
                "velocity": 32,
                "duration": 0.0840909,
                "tempo": 120.0
            },
            {
                "start_time": 20.4772727,
                "end_time": 20.5613636,
                "pitch": 38,
                "velocity": 32,
                "duration": 0.0840909,
                "tempo": 120.0
            },
            {
                "start_time": 20.6772727,
                "end_time": 20.7613636,
                "pitch": 38,
                "velocity": 32,
                "duration": 0.0840909,
                "tempo": 120.0
            },
            {
                "start_time": 20.7772727,
                "end_time": 20.8613636,
                "pitch": 38,
                "velocity": 32,
                "duration": 0.0840909,
                "tempo": 120.0
            },
            {
                "start_time": 20.8772727,
                "end_time": 20.9613636,
                "pitch": 38,
                "velocity": 32,
                "duration": 0.0840909,
                "tempo": 120.0
            },
            {
                "start_time": 21.0795455,
                "end_time": 21.1636364,
                "pitch": 38,
                "velocity": 32,
                "duration": 0.0840909,
                "tempo": 120.0
            },
            {
                "start_time": 21.1795455,
                "end_time": 21.2636364,
                "pitch": 38,
                "velocity": 32,
                "duration": 0.0840909,
                "tempo": 120.0
            },
            {
                "start_time": 21.2818182,
                "end_time": 21.3636364,
                "pitch": 38,
                "velocity": 32,
                "duration": 0.0818182,
                "tempo": 120.0
            },
            {
                "start_time": 21.3818182,
                "end_time": 21.4636364,
                "pitch": 40,
                "velocity": 32,
                "duration": 0.0818182,
                "tempo": 120.0
            },
            {
                "start_time": 21.4818182,
                "end_time": 21.5636364,
                "pitch": 43,
                "velocity": 32,
                "duration": 0.0818182,
                "tempo": 120.0
            },
            {
                "start_time": 21.5818182,
                "end_time": 21.6636364,
                "pitch": 45,
                "velocity": 32,
                "duration": 0.0818182,
                "tempo": 120.0
            },
            {
                "start_time": 21.6818182,
                "end_time": 21.7636364,
                "pitch": 36,
                "velocity": 32,
                "duration": 0.0818182,
                "tempo": 120.0
            },
            {
                "start_time": 21.8818182,
                "end_time": 21.9659091,
                "pitch": 36,
                "velocity": 32,
                "duration": 0.0840909,
                "tempo": 120.0
            },
            {
                "start_time": 21.9818182,
                "end_time": 22.0659091,
                "pitch": 36,
                "velocity": 32,
                "duration": 0.0840909,
                "tempo": 120.0
            },
            {
                "start_time": 22.0840909,
                "end_time": 22.1659091,
                "pitch": 36,
                "velocity": 32,
                "duration": 0.0818182,
                "tempo": 120.0
            },
            {
                "start_time": 22.2840909,
                "end_time": 22.3659091,
                "pitch": 36,
                "velocity": 32,
                "duration": 0.0818182,
                "tempo": 120.0
            },
            {
                "start_time": 22.3840909,
                "end_time": 22.4659091,
                "pitch": 36,
                "velocity": 32,
                "duration": 0.0818182,
                "tempo": 120.0
            },
            {
                "start_time": 22.4840909,
                "end_time": 22.5659091,
                "pitch": 36,
                "velocity": 32,
                "duration": 0.0818182,
                "tempo": 120.0
            },
            {
                "start_time": 22.6840909,
                "end_time": 22.7659091,
                "pitch": 36,
                "velocity": 32,
                "duration": 0.0818182,
                "tempo": 120.0
            },
            {
                "start_time": 22.7840909,
                "end_time": 22.8659091,
                "pitch": 36,
                "velocity": 32,
                "duration": 0.0818182,
                "tempo": 120.0
            },
            {
                "start_time": 22.8840909,
                "end_time": 22.9681818,
                "pitch": 36,
                "velocity": 32,
                "duration": 0.0840909,
                "tempo": 120.0
            },
            {
                "start_time": 22.9840909,
                "end_time": 23.0681818,
                "pitch": 38,
                "velocity": 32,
                "duration": 0.0840909,
                "tempo": 120.0
            },
            {
                "start_time": 23.0840909,
                "end_time": 23.1681818,
                "pitch": 36,
                "velocity": 32,
                "duration": 0.0840909,
                "tempo": 120.0
            },
            {
                "start_time": 23.1863636,
                "end_time": 23.2704545,
                "pitch": 35,
                "velocity": 32,
                "duration": 0.0840909,
                "tempo": 120.0
            },
            {
                "start_time": 23.2863636,
                "end_time": 23.3704545,
                "pitch": 33,
                "velocity": 32,
                "duration": 0.0840909,
                "tempo": 120.0
            },
            {
                "start_time": 23.4863636,
                "end_time": 23.5704545,
                "pitch": 33,
                "velocity": 32,
                "duration": 0.0840909,
                "tempo": 120.0
            },
            {
                "start_time": 23.5863636,
                "end_time": 23.6704545,
                "pitch": 33,
                "velocity": 32,
                "duration": 0.0840909,
                "tempo": 120.0
            },
            {
                "start_time": 23.6863636,
                "end_time": 23.7704545,
                "pitch": 33,
                "velocity": 32,
                "duration": 0.0840909,
                "tempo": 120.0
            },
            {
                "start_time": 23.8863636,
                "end_time": 23.9704545,
                "pitch": 33,
                "velocity": 32,
                "duration": 0.0840909,
                "tempo": 120.0
            },
            {
                "start_time": 23.9886364,
                "end_time": 24.0727273,
                "pitch": 33,
                "velocity": 32,
                "duration": 0.0840909,
                "tempo": 120.0
            },
            {
                "start_time": 24.0886364,
                "end_time": 24.1727273,
                "pitch": 33,
                "velocity": 32,
                "duration": 0.0840909,
                "tempo": 120.0
            },
            {
                "start_time": 24.2886364,
                "end_time": 24.3727273,
                "pitch": 33,
                "velocity": 32,
                "duration": 0.0840909,
                "tempo": 120.0
            },
            {
                "start_time": 24.3886364,
                "end_time": 24.4727273,
                "pitch": 33,
                "velocity": 32,
                "duration": 0.0840909,
                "tempo": 120.0
            },
            {
                "start_time": 24.4886364,
                "end_time": 24.5727273,
                "pitch": 33,
                "velocity": 32,
                "duration": 0.0840909,
                "tempo": 120.0
            },
            {
                "start_time": 24.5886364,
                "end_time": 24.6727273,
                "pitch": 35,
                "velocity": 32,
                "duration": 0.0840909,
                "tempo": 120.0
            },
            {
                "start_time": 24.6886364,
                "end_time": 24.7727273,
                "pitch": 38,
                "velocity": 32,
                "duration": 0.0840909,
                "tempo": 120.0
            },
            {
                "start_time": 24.7886364,
                "end_time": 24.8727273,
                "pitch": 40,
                "velocity": 32,
                "duration": 0.0840909,
                "tempo": 120.0
            },
            {
                "start_time": 24.8886364,
                "end_time": 24.9727273,
                "pitch": 38,
                "velocity": 32,
                "duration": 0.0840909,
                "tempo": 120.0
            },
            {
                "start_time": 25.0909091,
                "end_time": 25.175,
                "pitch": 38,
                "velocity": 32,
                "duration": 0.0840909,
                "tempo": 120.0
            },
            {
                "start_time": 25.1909091,
                "end_time": 25.275,
                "pitch": 38,
                "velocity": 32,
                "duration": 0.0840909,
                "tempo": 120.0
            },
            {
                "start_time": 25.2909091,
                "end_time": 25.375,
                "pitch": 38,
                "velocity": 32,
                "duration": 0.0840909,
                "tempo": 120.0
            },
            {
                "start_time": 25.4909091,
                "end_time": 25.575,
                "pitch": 38,
                "velocity": 32,
                "duration": 0.0840909,
                "tempo": 120.0
            },
            {
                "start_time": 25.5909091,
                "end_time": 25.675,
                "pitch": 38,
                "velocity": 32,
                "duration": 0.0840909,
                "tempo": 120.0
            },
            {
                "start_time": 25.6909091,
                "end_time": 25.775,
                "pitch": 38,
                "velocity": 32,
                "duration": 0.0840909,
                "tempo": 120.0
            },
            {
                "start_time": 25.8931818,
                "end_time": 25.9772727,
                "pitch": 38,
                "velocity": 32,
                "duration": 0.0840909,
                "tempo": 120.0
            },
            {
                "start_time": 25.9931818,
                "end_time": 26.0772727,
                "pitch": 38,
                "velocity": 32,
                "duration": 0.0840909,
                "tempo": 120.0
            },
            {
                "start_time": 26.0931818,
                "end_time": 26.1772727,
                "pitch": 38,
                "velocity": 32,
                "duration": 0.0840909,
                "tempo": 120.0
            },
            {
                "start_time": 26.1931818,
                "end_time": 26.2772727,
                "pitch": 40,
                "velocity": 32,
                "duration": 0.0840909,
                "tempo": 120.0
            },
            {
                "start_time": 26.2931818,
                "end_time": 26.3772727,
                "pitch": 43,
                "velocity": 32,
                "duration": 0.0840909,
                "tempo": 120.0
            },
            {
                "start_time": 26.3931818,
                "end_time": 26.4772727,
                "pitch": 45,
                "velocity": 32,
                "duration": 0.0840909,
                "tempo": 120.0
            },
            {
                "start_time": 26.4931818,
                "end_time": 26.5772727,
                "pitch": 40,
                "velocity": 32,
                "duration": 0.0840909,
                "tempo": 120.0
            },
            {
                "start_time": 26.6931818,
                "end_time": 26.7772727,
                "pitch": 40,
                "velocity": 32,
                "duration": 0.0840909,
                "tempo": 120.0
            },
            {
                "start_time": 26.7931818,
                "end_time": 26.8772727,
                "pitch": 40,
                "velocity": 32,
                "duration": 0.0840909,
                "tempo": 120.0
            },
            {
                "start_time": 26.8931818,
                "end_time": 26.9772727,
                "pitch": 40,
                "velocity": 32,
                "duration": 0.0840909,
                "tempo": 120.0
            },
            {
                "start_time": 27.0954545,
                "end_time": 27.1795455,
                "pitch": 40,
                "velocity": 32,
                "duration": 0.0840909,
                "tempo": 120.0
            },
            {
                "start_time": 27.1954545,
                "end_time": 27.2795455,
                "pitch": 40,
                "velocity": 32,
                "duration": 0.0840909,
                "tempo": 120.0
            },
            {
                "start_time": 27.2977273,
                "end_time": 27.3795455,
                "pitch": 40,
                "velocity": 32,
                "duration": 0.0818182,
                "tempo": 120.0
            },
            {
                "start_time": 27.4977273,
                "end_time": 27.5795455,
                "pitch": 40,
                "velocity": 32,
                "duration": 0.0818182,
                "tempo": 120.0
            },
            {
                "start_time": 27.5977273,
                "end_time": 27.6795455,
                "pitch": 40,
                "velocity": 32,
                "duration": 0.0818182,
                "tempo": 120.0
            },
            {
                "start_time": 27.6977273,
                "end_time": 27.7818182,
                "pitch": 40,
                "velocity": 32,
                "duration": 0.0840909,
                "tempo": 120.0
            },
            {
                "start_time": 27.7977273,
                "end_time": 27.8818182,
                "pitch": 41,
                "velocity": 32,
                "duration": 0.0840909,
                "tempo": 120.0
            },
            {
                "start_time": 27.8977273,
                "end_time": 27.9818182,
                "pitch": 43,
                "velocity": 32,
                "duration": 0.0840909,
                "tempo": 120.0
            },
            {
                "start_time": 28.0,
                "end_time": 28.0818182,
                "pitch": 45,
                "velocity": 32,
                "duration": 0.0818182,
                "tempo": 120.0
            },
            {
                "start_time": 28.1,
                "end_time": 28.1818182,
                "pitch": 38,
                "velocity": 32,
                "duration": 0.0818182,
                "tempo": 120.0
            },
            {
                "start_time": 28.3,
                "end_time": 28.3818182,
                "pitch": 38,
                "velocity": 32,
                "duration": 0.0818182,
                "tempo": 120.0
            },
            {
                "start_time": 28.4,
                "end_time": 28.4818182,
                "pitch": 38,
                "velocity": 32,
                "duration": 0.0818182,
                "tempo": 120.0
            },
            {
                "start_time": 28.5,
                "end_time": 28.5818182,
                "pitch": 38,
                "velocity": 32,
                "duration": 0.0818182,
                "tempo": 120.0
            },
            {
                "start_time": 28.7,
                "end_time": 28.7818182,
                "pitch": 38,
                "velocity": 32,
                "duration": 0.0818182,
                "tempo": 120.0
            },
            {
                "start_time": 28.8,
                "end_time": 28.8818182,
                "pitch": 38,
                "velocity": 32,
                "duration": 0.0818182,
                "tempo": 120.0
            },
            {
                "start_time": 28.9,
                "end_time": 28.9840909,
                "pitch": 38,
                "velocity": 32,
                "duration": 0.0840909,
                "tempo": 120.0
            },
            {
                "start_time": 29.1,
                "end_time": 29.1840909,
                "pitch": 38,
                "velocity": 32,
                "duration": 0.0840909,
                "tempo": 120.0
            },
            {
                "start_time": 29.2022727,
                "end_time": 29.2863636,
                "pitch": 38,
                "velocity": 32,
                "duration": 0.0840909,
                "tempo": 120.0
            },
            {
                "start_time": 29.3022727,
                "end_time": 29.3863636,
                "pitch": 38,
                "velocity": 32,
                "duration": 0.0840909,
                "tempo": 120.0
            },
            {
                "start_time": 29.4022727,
                "end_time": 29.4863636,
                "pitch": 40,
                "velocity": 32,
                "duration": 0.0840909,
                "tempo": 120.0
            },
            {
                "start_time": 29.5022727,
                "end_time": 29.5863636,
                "pitch": 43,
                "velocity": 32,
                "duration": 0.0840909,
                "tempo": 120.0
            },
            {
                "start_time": 29.6022727,
                "end_time": 29.6863636,
                "pitch": 45,
                "velocity": 32,
                "duration": 0.0840909,
                "tempo": 120.0
            },
            {
                "start_time": 29.7022727,
                "end_time": 29.7863636,
                "pitch": 33,
                "velocity": 32,
                "duration": 0.0840909,
                "tempo": 120.0
            },
            {
                "start_time": 29.9045455,
                "end_time": 29.9863636,
                "pitch": 33,
                "velocity": 32,
                "duration": 0.0818182,
                "tempo": 120.0
            },
            {
                "start_time": 30.0045455,
                "end_time": 30.0886364,
                "pitch": 33,
                "velocity": 32,
                "duration": 0.0840909,
                "tempo": 120.0
            },
            {
                "start_time": 30.1045455,
                "end_time": 30.1886364,
                "pitch": 33,
                "velocity": 32,
                "duration": 0.0840909,
                "tempo": 120.0
            },
            {
                "start_time": 30.3045455,
                "end_time": 30.3886364,
                "pitch": 33,
                "velocity": 32,
                "duration": 0.0840909,
                "tempo": 120.0
            },
            {
                "start_time": 30.4045455,
                "end_time": 30.4886364,
                "pitch": 33,
                "velocity": 32,
                "duration": 0.0840909,
                "tempo": 120.0
            },
            {
                "start_time": 30.5045455,
                "end_time": 30.5886364,
                "pitch": 33,
                "velocity": 32,
                "duration": 0.0840909,
                "tempo": 120.0
            },
            {
                "start_time": 30.7045455,
                "end_time": 30.7886364,
                "pitch": 33,
                "velocity": 32,
                "duration": 0.0840909,
                "tempo": 120.0
            },
            {
                "start_time": 30.8045455,
                "end_time": 30.8886364,
                "pitch": 33,
                "velocity": 32,
                "duration": 0.0840909,
                "tempo": 120.0
            },
            {
                "start_time": 30.9045455,
                "end_time": 30.9886364,
                "pitch": 33,
                "velocity": 32,
                "duration": 0.0840909,
                "tempo": 120.0
            },
            {
                "start_time": 31.0045455,
                "end_time": 31.0886364,
                "pitch": 35,
                "velocity": 32,
                "duration": 0.0840909,
                "tempo": 120.0
            },
            {
                "start_time": 31.1068182,
                "end_time": 31.1909091,
                "pitch": 38,
                "velocity": 32,
                "duration": 0.0840909,
                "tempo": 120.0
            },
            {
                "start_time": 31.2068182,
                "end_time": 31.2909091,
                "pitch": 40,
                "velocity": 32,
                "duration": 0.0840909,
                "tempo": 120.0
            },
            {
                "start_time": 31.3068182,
                "end_time": 31.3909091,
                "pitch": 40,
                "velocity": 32,
                "duration": 0.0840909,
                "tempo": 120.0
            },
            {
                "start_time": 31.5068182,
                "end_time": 31.5909091,
                "pitch": 40,
                "velocity": 32,
                "duration": 0.0840909,
                "tempo": 120.0
            },
            {
                "start_time": 31.6068182,
                "end_time": 31.6909091,
                "pitch": 40,
                "velocity": 32,
                "duration": 0.0840909,
                "tempo": 120.0
            },
            {
                "start_time": 31.7068182,
                "end_time": 31.7909091,
                "pitch": 40,
                "velocity": 32,
                "duration": 0.0840909,
                "tempo": 120.0
            },
            {
                "start_time": 31.9090909,
                "end_time": 31.9931818,
                "pitch": 40,
                "velocity": 32,
                "duration": 0.0840909,
                "tempo": 120.0
            },
            {
                "start_time": 32.0090909,
                "end_time": 32.0931818,
                "pitch": 40,
                "velocity": 32,
                "duration": 0.0840909,
                "tempo": 120.0
            },
            {
                "start_time": 32.1113636,
                "end_time": 32.1931818,
                "pitch": 40,
                "velocity": 32,
                "duration": 0.0818182,
                "tempo": 120.0
            },
            {
                "start_time": 32.3113636,
                "end_time": 32.3931818,
                "pitch": 40,
                "velocity": 32,
                "duration": 0.0818182,
                "tempo": 120.0
            },
            {
                "start_time": 32.4113636,
                "end_time": 32.4931818,
                "pitch": 40,
                "velocity": 32,
                "duration": 0.0818182,
                "tempo": 120.0
            },
            {
                "start_time": 32.5113636,
                "end_time": 32.5931818,
                "pitch": 40,
                "velocity": 32,
                "duration": 0.0818182,
                "tempo": 120.0
            },
            {
                "start_time": 32.6113636,
                "end_time": 32.6931818,
                "pitch": 41,
                "velocity": 32,
                "duration": 0.0818182,
                "tempo": 120.0
            },
            {
                "start_time": 32.7113636,
                "end_time": 32.7931818,
                "pitch": 43,
                "velocity": 32,
                "duration": 0.0818182,
                "tempo": 120.0
            },
            {
                "start_time": 32.8113636,
                "end_time": 32.8931818,
                "pitch": 45,
                "velocity": 32,
                "duration": 0.0818182,
                "tempo": 120.0
            },
            {
                "start_time": 32.9113636,
                "end_time": 32.9931818,
                "pitch": 38,
                "velocity": 32,
                "duration": 0.0818182,
                "tempo": 120.0
            },
            {
                "start_time": 33.1113636,
                "end_time": 33.1931818,
                "pitch": 38,
                "velocity": 32,
                "duration": 0.0818182,
                "tempo": 120.0
            },
            {
                "start_time": 33.2113636,
                "end_time": 33.2931818,
                "pitch": 38,
                "velocity": 32,
                "duration": 0.0818182,
                "tempo": 120.0
            },
            {
                "start_time": 33.3113636,
                "end_time": 33.3931818,
                "pitch": 38,
                "velocity": 32,
                "duration": 0.0818182,
                "tempo": 120.0
            },
            {
                "start_time": 33.5113636,
                "end_time": 33.5954545,
                "pitch": 38,
                "velocity": 32,
                "duration": 0.0840909,
                "tempo": 120.0
            },
            {
                "start_time": 33.6113636,
                "end_time": 33.6954545,
                "pitch": 38,
                "velocity": 32,
                "duration": 0.0840909,
                "tempo": 120.0
            },
            {
                "start_time": 33.7136364,
                "end_time": 33.7954545,
                "pitch": 38,
                "velocity": 32,
                "duration": 0.0818182,
                "tempo": 120.0
            },
            {
                "start_time": 33.9136364,
                "end_time": 33.9954545,
                "pitch": 38,
                "velocity": 32,
                "duration": 0.0818182,
                "tempo": 120.0
            },
            {
                "start_time": 34.0136364,
                "end_time": 34.0954545,
                "pitch": 38,
                "velocity": 32,
                "duration": 0.0818182,
                "tempo": 120.0
            },
            {
                "start_time": 34.1136364,
                "end_time": 34.1954545,
                "pitch": 38,
                "velocity": 32,
                "duration": 0.0818182,
                "tempo": 120.0
            },
            {
                "start_time": 34.2136364,
                "end_time": 34.2954545,
                "pitch": 40,
                "velocity": 32,
                "duration": 0.0818182,
                "tempo": 120.0
            },
            {
                "start_time": 34.3136364,
                "end_time": 34.3954545,
                "pitch": 41,
                "velocity": 32,
                "duration": 0.0818182,
                "tempo": 120.0
            },
            {
                "start_time": 34.4136364,
                "end_time": 34.4954545,
                "pitch": 43,
                "velocity": 32,
                "duration": 0.0818182,
                "tempo": 120.0
            },
            {
                "start_time": 34.5136364,
                "end_time": 34.5954545,
                "pitch": 36,
                "velocity": 32,
                "duration": 0.0818182,
                "tempo": 120.0
            },
            {
                "start_time": 34.7136364,
                "end_time": 34.7954545,
                "pitch": 36,
                "velocity": 32,
                "duration": 0.0818182,
                "tempo": 120.0
            },
            {
                "start_time": 34.8136364,
                "end_time": 34.8954545,
                "pitch": 36,
                "velocity": 32,
                "duration": 0.0818182,
                "tempo": 120.0
            },
            {
                "start_time": 34.9136364,
                "end_time": 34.9954545,
                "pitch": 36,
                "velocity": 32,
                "duration": 0.0818182,
                "tempo": 120.0
            },
            {
                "start_time": 35.1136364,
                "end_time": 35.1954545,
                "pitch": 36,
                "velocity": 32,
                "duration": 0.0818182,
                "tempo": 120.0
            },
            {
                "start_time": 35.2136364,
                "end_time": 35.2954545,
                "pitch": 36,
                "velocity": 32,
                "duration": 0.0818182,
                "tempo": 120.0
            },
            {
                "start_time": 35.3136364,
                "end_time": 35.3977273,
                "pitch": 36,
                "velocity": 32,
                "duration": 0.0840909,
                "tempo": 120.0
            },
            {
                "start_time": 35.5136364,
                "end_time": 35.5977273,
                "pitch": 36,
                "velocity": 32,
                "duration": 0.0840909,
                "tempo": 120.0
            },
            {
                "start_time": 35.6159091,
                "end_time": 35.7,
                "pitch": 36,
                "velocity": 32,
                "duration": 0.0840909,
                "tempo": 120.0
            },
            {
                "start_time": 35.7159091,
                "end_time": 35.8,
                "pitch": 36,
                "velocity": 32,
                "duration": 0.0840909,
                "tempo": 120.0
            },
            {
                "start_time": 35.8159091,
                "end_time": 35.9,
                "pitch": 38,
                "velocity": 32,
                "duration": 0.0840909,
                "tempo": 120.0
            },
            {
                "start_time": 35.9159091,
                "end_time": 36.0,
                "pitch": 36,
                "velocity": 32,
                "duration": 0.0840909,
                "tempo": 120.0
            },
            {
                "start_time": 36.0159091,
                "end_time": 36.1,
                "pitch": 35,
                "velocity": 32,
                "duration": 0.0840909,
                "tempo": 120.0
            },
            {
                "start_time": 36.1159091,
                "end_time": 36.2,
                "pitch": 33,
                "velocity": 32,
                "duration": 0.0840909,
                "tempo": 120.0
            },
            {
                "start_time": 36.3159091,
                "end_time": 36.4,
                "pitch": 33,
                "velocity": 32,
                "duration": 0.0840909,
                "tempo": 120.0
            },
            {
                "start_time": 36.4159091,
                "end_time": 36.5,
                "pitch": 33,
                "velocity": 32,
                "duration": 0.0840909,
                "tempo": 120.0
            },
            {
                "start_time": 36.5159091,
                "end_time": 36.6,
                "pitch": 33,
                "velocity": 32,
                "duration": 0.0840909,
                "tempo": 120.0
            },
            {
                "start_time": 36.7159091,
                "end_time": 36.8,
                "pitch": 33,
                "velocity": 32,
                "duration": 0.0840909,
                "tempo": 120.0
            },
            {
                "start_time": 36.8159091,
                "end_time": 36.9,
                "pitch": 33,
                "velocity": 32,
                "duration": 0.0840909,
                "tempo": 120.0
            },
            {
                "start_time": 36.9159091,
                "end_time": 37.0,
                "pitch": 33,
                "velocity": 32,
                "duration": 0.0840909,
                "tempo": 120.0
            },
            {
                "start_time": 37.1159091,
                "end_time": 37.2,
                "pitch": 33,
                "velocity": 32,
                "duration": 0.0840909,
                "tempo": 120.0
            },
            {
                "start_time": 37.2159091,
                "end_time": 37.3,
                "pitch": 33,
                "velocity": 32,
                "duration": 0.0840909,
                "tempo": 120.0
            },
            {
                "start_time": 37.3159091,
                "end_time": 37.3977273,
                "pitch": 33,
                "velocity": 32,
                "duration": 0.0818182,
                "tempo": 120.0
            },
            {
                "start_time": 37.4136364,
                "end_time": 37.4954545,
                "pitch": 35,
                "velocity": 32,
                "duration": 0.0818182,
                "tempo": 120.0
            },
            {
                "start_time": 37.5113636,
                "end_time": 37.5931818,
                "pitch": 36,
                "velocity": 32,
                "duration": 0.0818182,
                "tempo": 120.0
            },
            {
                "start_time": 37.6090909,
                "end_time": 37.6909091,
                "pitch": 38,
                "velocity": 32,
                "duration": 0.0818182,
                "tempo": 120.0
            },
            {
                "start_time": 37.7068182,
                "end_time": 37.7931818,
                "pitch": 33,
                "velocity": 32,
                "duration": 0.0863636,
                "tempo": 120.0
            },
            {
                "start_time": 37.9136364,
                "end_time": 37.9977273,
                "pitch": 33,
                "velocity": 32,
                "duration": 0.0840909,
                "tempo": 120.0
            },
            {
                "start_time": 38.0159091,
                "end_time": 38.1022727,
                "pitch": 33,
                "velocity": 32,
                "duration": 0.0863636,
                "tempo": 120.0
            },
            {
                "start_time": 38.1181818,
                "end_time": 38.2022727,
                "pitch": 33,
                "velocity": 32,
                "duration": 0.0840909,
                "tempo": 120.0
            },
            {
                "start_time": 38.3181818,
                "end_time": 38.4022727,
                "pitch": 33,
                "velocity": 32,
                "duration": 0.0840909,
                "tempo": 120.0
            },
            {
                "start_time": 38.4181818,
                "end_time": 38.5022727,
                "pitch": 33,
                "velocity": 32,
                "duration": 0.0840909,
                "tempo": 120.0
            },
            {
                "start_time": 38.5181818,
                "end_time": 38.6022727,
                "pitch": 33,
                "velocity": 32,
                "duration": 0.0840909,
                "tempo": 120.0
            },
            {
                "start_time": 38.7181818,
                "end_time": 38.8022727,
                "pitch": 33,
                "velocity": 32,
                "duration": 0.0840909,
                "tempo": 120.0
            },
            {
                "start_time": 38.8181818,
                "end_time": 38.9022727,
                "pitch": 33,
                "velocity": 32,
                "duration": 0.0840909,
                "tempo": 120.0
            },
            {
                "start_time": 38.9181818,
                "end_time": 39.0022727,
                "pitch": 33,
                "velocity": 32,
                "duration": 0.0840909,
                "tempo": 120.0
            },
            {
                "start_time": 39.0181818,
                "end_time": 39.1022727,
                "pitch": 35,
                "velocity": 32,
                "duration": 0.0840909,
                "tempo": 120.0
            },
            {
                "start_time": 39.1181818,
                "end_time": 39.2022727,
                "pitch": 36,
                "velocity": 32,
                "duration": 0.0840909,
                "tempo": 120.0
            },
            {
                "start_time": 39.2181818,
                "end_time": 39.3022727,
                "pitch": 38,
                "velocity": 32,
                "duration": 0.0840909,
                "tempo": 120.0
            },
            {
                "start_time": 39.3181818,
                "end_time": 39.4022727,
                "pitch": 40,
                "velocity": 32,
                "duration": 0.0840909,
                "tempo": 120.0
            },
            {
                "start_time": 39.5204545,
                "end_time": 39.6045455,
                "pitch": 40,
                "velocity": 32,
                "duration": 0.0840909,
                "tempo": 120.0
            },
            {
                "start_time": 39.6204545,
                "end_time": 39.7045455,
                "pitch": 40,
                "velocity": 32,
                "duration": 0.0840909,
                "tempo": 120.0
            },
            {
                "start_time": 39.7204545,
                "end_time": 39.8045455,
                "pitch": 40,
                "velocity": 32,
                "duration": 0.0840909,
                "tempo": 120.0
            },
            {
                "start_time": 39.9204545,
                "end_time": 40.0045455,
                "pitch": 40,
                "velocity": 32,
                "duration": 0.0840909,
                "tempo": 120.0
            },
            {
                "start_time": 40.0204545,
                "end_time": 40.1045455,
                "pitch": 40,
                "velocity": 32,
                "duration": 0.0840909,
                "tempo": 120.0
            },
            {
                "start_time": 40.1204545,
                "end_time": 40.2045455,
                "pitch": 40,
                "velocity": 32,
                "duration": 0.0840909,
                "tempo": 120.0
            },
            {
                "start_time": 40.3204545,
                "end_time": 40.4045455,
                "pitch": 40,
                "velocity": 32,
                "duration": 0.0840909,
                "tempo": 120.0
            },
            {
                "start_time": 40.4204545,
                "end_time": 40.5045455,
                "pitch": 40,
                "velocity": 32,
                "duration": 0.0840909,
                "tempo": 120.0
            },
            {
                "start_time": 40.5204545,
                "end_time": 40.6045455,
                "pitch": 40,
                "velocity": 32,
                "duration": 0.0840909,
                "tempo": 120.0
            },
            {
                "start_time": 40.6204545,
                "end_time": 40.7045455,
                "pitch": 41,
                "velocity": 32,
                "duration": 0.0840909,
                "tempo": 120.0
            },
            {
                "start_time": 40.7204545,
                "end_time": 40.8045455,
                "pitch": 43,
                "velocity": 32,
                "duration": 0.0840909,
                "tempo": 120.0
            },
            {
                "start_time": 40.8204545,
                "end_time": 40.9045455,
                "pitch": 45,
                "velocity": 32,
                "duration": 0.0840909,
                "tempo": 120.0
            },
            {
                "start_time": 40.9204545,
                "end_time": 41.0045455,
                "pitch": 38,
                "velocity": 32,
                "duration": 0.0840909,
                "tempo": 120.0
            },
            {
                "start_time": 41.1204545,
                "end_time": 41.2045455,
                "pitch": 38,
                "velocity": 32,
                "duration": 0.0840909,
                "tempo": 120.0
            },
            {
                "start_time": 41.2204545,
                "end_time": 41.3045455,
                "pitch": 38,
                "velocity": 32,
                "duration": 0.0840909,
                "tempo": 120.0
            },
            {
                "start_time": 41.3204545,
                "end_time": 41.4045455,
                "pitch": 38,
                "velocity": 32,
                "duration": 0.0840909,
                "tempo": 120.0
            },
            {
                "start_time": 41.5227273,
                "end_time": 41.6068182,
                "pitch": 38,
                "velocity": 32,
                "duration": 0.0840909,
                "tempo": 120.0
            },
            {
                "start_time": 41.6227273,
                "end_time": 41.7068182,
                "pitch": 38,
                "velocity": 32,
                "duration": 0.0840909,
                "tempo": 120.0
            },
            {
                "start_time": 41.725,
                "end_time": 41.8068182,
                "pitch": 38,
                "velocity": 32,
                "duration": 0.0818182,
                "tempo": 120.0
            },
            {
                "start_time": 41.925,
                "end_time": 42.0068182,
                "pitch": 38,
                "velocity": 32,
                "duration": 0.0818182,
                "tempo": 120.0
            },
            {
                "start_time": 42.025,
                "end_time": 42.1068182,
                "pitch": 38,
                "velocity": 32,
                "duration": 0.0818182,
                "tempo": 120.0
            },
            {
                "start_time": 42.125,
                "end_time": 42.2068182,
                "pitch": 38,
                "velocity": 32,
                "duration": 0.0818182,
                "tempo": 120.0
            },
            {
                "start_time": 42.225,
                "end_time": 42.3068182,
                "pitch": 40,
                "velocity": 32,
                "duration": 0.0818182,
                "tempo": 120.0
            },
            {
                "start_time": 42.325,
                "end_time": 42.4068182,
                "pitch": 43,
                "velocity": 32,
                "duration": 0.0818182,
                "tempo": 120.0
            },
            {
                "start_time": 42.425,
                "end_time": 42.5068182,
                "pitch": 45,
                "velocity": 32,
                "duration": 0.0818182,
                "tempo": 120.0
            },
            {
                "start_time": 42.525,
                "end_time": 42.6068182,
                "pitch": 33,
                "velocity": 32,
                "duration": 0.0818182,
                "tempo": 120.0
            },
            {
                "start_time": 42.725,
                "end_time": 42.8068182,
                "pitch": 33,
                "velocity": 32,
                "duration": 0.0818182,
                "tempo": 120.0
            },
            {
                "start_time": 42.825,
                "end_time": 42.9068182,
                "pitch": 33,
                "velocity": 32,
                "duration": 0.0818182,
                "tempo": 120.0
            },
            {
                "start_time": 42.925,
                "end_time": 43.0068182,
                "pitch": 33,
                "velocity": 32,
                "duration": 0.0818182,
                "tempo": 120.0
            },
            {
                "start_time": 43.125,
                "end_time": 43.2068182,
                "pitch": 33,
                "velocity": 32,
                "duration": 0.0818182,
                "tempo": 120.0
            },
            {
                "start_time": 43.225,
                "end_time": 43.3068182,
                "pitch": 33,
                "velocity": 32,
                "duration": 0.0818182,
                "tempo": 120.0
            },
            {
                "start_time": 43.325,
                "end_time": 43.4068182,
                "pitch": 33,
                "velocity": 32,
                "duration": 0.0818182,
                "tempo": 120.0
            },
            {
                "start_time": 43.525,
                "end_time": 43.6090909,
                "pitch": 33,
                "velocity": 32,
                "duration": 0.0840909,
                "tempo": 120.0
            },
            {
                "start_time": 43.625,
                "end_time": 43.7090909,
                "pitch": 33,
                "velocity": 32,
                "duration": 0.0840909,
                "tempo": 120.0
            },
            {
                "start_time": 43.7272727,
                "end_time": 43.8090909,
                "pitch": 33,
                "velocity": 32,
                "duration": 0.0818182,
                "tempo": 120.0
            },
            {
                "start_time": 43.8272727,
                "end_time": 43.9090909,
                "pitch": 35,
                "velocity": 32,
                "duration": 0.0818182,
                "tempo": 120.0
            },
            {
                "start_time": 43.9272727,
                "end_time": 44.0090909,
                "pitch": 38,
                "velocity": 32,
                "duration": 0.0818182,
                "tempo": 120.0
            },
            {
                "start_time": 44.0272727,
                "end_time": 44.1090909,
                "pitch": 40,
                "velocity": 32,
                "duration": 0.0818182,
                "tempo": 120.0
            },
            {
                "start_time": 44.1272727,
                "end_time": 44.2090909,
                "pitch": 40,
                "velocity": 32,
                "duration": 0.0818182,
                "tempo": 120.0
            },
            {
                "start_time": 44.3272727,
                "end_time": 44.4090909,
                "pitch": 40,
                "velocity": 32,
                "duration": 0.0818182,
                "tempo": 120.0
            },
            {
                "start_time": 44.4272727,
                "end_time": 44.5090909,
                "pitch": 40,
                "velocity": 32,
                "duration": 0.0818182,
                "tempo": 120.0
            },
            {
                "start_time": 44.5272727,
                "end_time": 44.6090909,
                "pitch": 40,
                "velocity": 32,
                "duration": 0.0818182,
                "tempo": 120.0
            },
            {
                "start_time": 44.7272727,
                "end_time": 44.8090909,
                "pitch": 40,
                "velocity": 32,
                "duration": 0.0818182,
                "tempo": 120.0
            },
            {
                "start_time": 44.8272727,
                "end_time": 44.9090909,
                "pitch": 40,
                "velocity": 32,
                "duration": 0.0818182,
                "tempo": 120.0
            },
            {
                "start_time": 44.9272727,
                "end_time": 45.0090909,
                "pitch": 40,
                "velocity": 32,
                "duration": 0.0818182,
                "tempo": 120.0
            },
            {
                "start_time": 45.1272727,
                "end_time": 45.2090909,
                "pitch": 40,
                "velocity": 32,
                "duration": 0.0818182,
                "tempo": 120.0
            },
            {
                "start_time": 45.2272727,
                "end_time": 45.3090909,
                "pitch": 40,
                "velocity": 32,
                "duration": 0.0818182,
                "tempo": 120.0
            },
            {
                "start_time": 45.3272727,
                "end_time": 45.4113636,
                "pitch": 40,
                "velocity": 32,
                "duration": 0.0840909,
                "tempo": 120.0
            },
            {
                "start_time": 45.4272727,
                "end_time": 45.5113636,
                "pitch": 41,
                "velocity": 32,
                "duration": 0.0840909,
                "tempo": 120.0
            },
            {
                "start_time": 45.5272727,
                "end_time": 45.6113636,
                "pitch": 43,
                "velocity": 32,
                "duration": 0.0840909,
                "tempo": 120.0
            },
            {
                "start_time": 45.6295455,
                "end_time": 45.7136364,
                "pitch": 45,
                "velocity": 32,
                "duration": 0.0840909,
                "tempo": 120.0
            },
            {
                "start_time": 45.7295455,
                "end_time": 45.8136364,
                "pitch": 38,
                "velocity": 32,
                "duration": 0.0840909,
                "tempo": 120.0
            },
            {
                "start_time": 45.9295455,
                "end_time": 46.0136364,
                "pitch": 38,
                "velocity": 32,
                "duration": 0.0840909,
                "tempo": 120.0
            },
            {
                "start_time": 46.0295455,
                "end_time": 46.1136364,
                "pitch": 38,
                "velocity": 32,
                "duration": 0.0840909,
                "tempo": 120.0
            },
            {
                "start_time": 46.1295455,
                "end_time": 46.2136364,
                "pitch": 38,
                "velocity": 32,
                "duration": 0.0840909,
                "tempo": 120.0
            },
            {
                "start_time": 46.3295455,
                "end_time": 46.4136364,
                "pitch": 38,
                "velocity": 32,
                "duration": 0.0840909,
                "tempo": 120.0
            },
            {
                "start_time": 46.4295455,
                "end_time": 46.5136364,
                "pitch": 38,
                "velocity": 32,
                "duration": 0.0840909,
                "tempo": 120.0
            },
            {
                "start_time": 46.5295455,
                "end_time": 46.6136364,
                "pitch": 38,
                "velocity": 32,
                "duration": 0.0840909,
                "tempo": 120.0
            },
            {
                "start_time": 46.7295455,
                "end_time": 46.8136364,
                "pitch": 38,
                "velocity": 32,
                "duration": 0.0840909,
                "tempo": 120.0
            },
            {
                "start_time": 46.8295455,
                "end_time": 46.9136364,
                "pitch": 38,
                "velocity": 32,
                "duration": 0.0840909,
                "tempo": 120.0
            },
            {
                "start_time": 46.9295455,
                "end_time": 47.0136364,
                "pitch": 38,
                "velocity": 32,
                "duration": 0.0840909,
                "tempo": 120.0
            },
            {
                "start_time": 47.0295455,
                "end_time": 47.1136364,
                "pitch": 40,
                "velocity": 32,
                "duration": 0.0840909,
                "tempo": 120.0
            },
            {
                "start_time": 47.1295455,
                "end_time": 47.2136364,
                "pitch": 41,
                "velocity": 32,
                "duration": 0.0840909,
                "tempo": 120.0
            },
            {
                "start_time": 47.2295455,
                "end_time": 47.3136364,
                "pitch": 43,
                "velocity": 32,
                "duration": 0.0840909,
                "tempo": 120.0
            },
            {
                "start_time": 47.3295455,
                "end_time": 47.4136364,
                "pitch": 36,
                "velocity": 32,
                "duration": 0.0840909,
                "tempo": 120.0
            },
            {
                "start_time": 47.5295455,
                "end_time": 47.6136364,
                "pitch": 36,
                "velocity": 32,
                "duration": 0.0840909,
                "tempo": 120.0
            },
            {
                "start_time": 47.6318182,
                "end_time": 47.7159091,
                "pitch": 36,
                "velocity": 32,
                "duration": 0.0840909,
                "tempo": 120.0
            },
            {
                "start_time": 47.7318182,
                "end_time": 47.8159091,
                "pitch": 36,
                "velocity": 32,
                "duration": 0.0840909,
                "tempo": 120.0
            },
            {
                "start_time": 47.9318182,
                "end_time": 48.0159091,
                "pitch": 36,
                "velocity": 32,
                "duration": 0.0840909,
                "tempo": 120.0
            },
            {
                "start_time": 48.0318182,
                "end_time": 48.1159091,
                "pitch": 36,
                "velocity": 32,
                "duration": 0.0840909,
                "tempo": 120.0
            },
            {
                "start_time": 48.1318182,
                "end_time": 48.2159091,
                "pitch": 36,
                "velocity": 32,
                "duration": 0.0840909,
                "tempo": 120.0
            },
            {
                "start_time": 48.3318182,
                "end_time": 48.4159091,
                "pitch": 36,
                "velocity": 32,
                "duration": 0.0840909,
                "tempo": 120.0
            },
            {
                "start_time": 48.4318182,
                "end_time": 48.5159091,
                "pitch": 36,
                "velocity": 32,
                "duration": 0.0840909,
                "tempo": 120.0
            },
            {
                "start_time": 48.5318182,
                "end_time": 48.6159091,
                "pitch": 36,
                "velocity": 32,
                "duration": 0.0840909,
                "tempo": 120.0
            },
            {
                "start_time": 48.6318182,
                "end_time": 48.7159091,
                "pitch": 38,
                "velocity": 32,
                "duration": 0.0840909,
                "tempo": 120.0
            },
            {
                "start_time": 48.7318182,
                "end_time": 48.8159091,
                "pitch": 36,
                "velocity": 32,
                "duration": 0.0840909,
                "tempo": 120.0
            },
            {
                "start_time": 48.8318182,
                "end_time": 48.9159091,
                "pitch": 35,
                "velocity": 32,
                "duration": 0.0840909,
                "tempo": 120.0
            },
            {
                "start_time": 48.9318182,
                "end_time": 49.0159091,
                "pitch": 33,
                "velocity": 32,
                "duration": 0.0840909,
                "tempo": 120.0
            },
            {
                "start_time": 49.1318182,
                "end_time": 49.2159091,
                "pitch": 33,
                "velocity": 32,
                "duration": 0.0840909,
                "tempo": 120.0
            },
            {
                "start_time": 49.2318182,
                "end_time": 49.3159091,
                "pitch": 33,
                "velocity": 32,
                "duration": 0.0840909,
                "tempo": 120.0
            },
            {
                "start_time": 49.3318182,
                "end_time": 49.4159091,
                "pitch": 33,
                "velocity": 32,
                "duration": 0.0840909,
                "tempo": 120.0
            },
            {
                "start_time": 49.5340909,
                "end_time": 49.6181818,
                "pitch": 33,
                "velocity": 32,
                "duration": 0.0840909,
                "tempo": 120.0
            },
            {
                "start_time": 49.6340909,
                "end_time": 49.7181818,
                "pitch": 33,
                "velocity": 32,
                "duration": 0.0840909,
                "tempo": 120.0
            },
            {
                "start_time": 49.7340909,
                "end_time": 49.8181818,
                "pitch": 33,
                "velocity": 32,
                "duration": 0.0840909,
                "tempo": 120.0
            },
            {
                "start_time": 49.9340909,
                "end_time": 50.0181818,
                "pitch": 33,
                "velocity": 32,
                "duration": 0.0840909,
                "tempo": 120.0
            },
            {
                "start_time": 50.0340909,
                "end_time": 50.1181818,
                "pitch": 33,
                "velocity": 32,
                "duration": 0.0840909,
                "tempo": 120.0
            },
            {
                "start_time": 50.1340909,
                "end_time": 50.2181818,
                "pitch": 33,
                "velocity": 32,
                "duration": 0.0840909,
                "tempo": 120.0
            },
            {
                "start_time": 50.2340909,
                "end_time": 50.3181818,
                "pitch": 35,
                "velocity": 32,
                "duration": 0.0840909,
                "tempo": 120.0
            },
            {
                "start_time": 50.3340909,
                "end_time": 50.4181818,
                "pitch": 36,
                "velocity": 32,
                "duration": 0.0840909,
                "tempo": 120.0
            },
            {
                "start_time": 50.4340909,
                "end_time": 50.5181818,
                "pitch": 38,
                "velocity": 32,
                "duration": 0.0840909,
                "tempo": 120.0
            },
            {
                "start_time": 50.5340909,
                "end_time": 50.6181818,
                "pitch": 33,
                "velocity": 32,
                "duration": 0.0840909,
                "tempo": 120.0
            },
            {
                "start_time": 50.7340909,
                "end_time": 50.8181818,
                "pitch": 33,
                "velocity": 32,
                "duration": 0.0840909,
                "tempo": 120.0
            },
            {
                "start_time": 50.8340909,
                "end_time": 50.9181818,
                "pitch": 33,
                "velocity": 32,
                "duration": 0.0840909,
                "tempo": 120.0
            },
            {
                "start_time": 50.9340909,
                "end_time": 51.0181818,
                "pitch": 33,
                "velocity": 32,
                "duration": 0.0840909,
                "tempo": 120.0
            },
            {
                "start_time": 51.1340909,
                "end_time": 51.2181818,
                "pitch": 33,
                "velocity": 32,
                "duration": 0.0840909,
                "tempo": 120.0
            },
            {
                "start_time": 51.2340909,
                "end_time": 51.3181818,
                "pitch": 33,
                "velocity": 32,
                "duration": 0.0840909,
                "tempo": 120.0
            },
            {
                "start_time": 51.3340909,
                "end_time": 51.4181818,
                "pitch": 33,
                "velocity": 32,
                "duration": 0.0840909,
                "tempo": 120.0
            },
            {
                "start_time": 51.5363636,
                "end_time": 51.6204545,
                "pitch": 33,
                "velocity": 32,
                "duration": 0.0840909,
                "tempo": 120.0
            },
            {
                "start_time": 51.6363636,
                "end_time": 51.7204545,
                "pitch": 33,
                "velocity": 32,
                "duration": 0.0840909,
                "tempo": 120.0
            },
            {
                "start_time": 51.7363636,
                "end_time": 51.8204545,
                "pitch": 33,
                "velocity": 32,
                "duration": 0.0840909,
                "tempo": 120.0
            },
            {
                "start_time": 51.8363636,
                "end_time": 51.9204545,
                "pitch": 35,
                "velocity": 32,
                "duration": 0.0840909,
                "tempo": 120.0
            },
            {
                "start_time": 51.9363636,
                "end_time": 52.0204545,
                "pitch": 36,
                "velocity": 32,
                "duration": 0.0840909,
                "tempo": 120.0
            },
            {
                "start_time": 52.0363636,
                "end_time": 52.1204545,
                "pitch": 38,
                "velocity": 32,
                "duration": 0.0840909,
                "tempo": 120.0
            },
            {
                "start_time": 58.5431818,
                "end_time": 59.9409091,
                "pitch": 40,
                "velocity": 32,
                "duration": 1.3977273,
                "tempo": 120.0
            },
            {
                "start_time": 59.9568182,
                "end_time": 60.1409091,
                "pitch": 41,
                "velocity": 32,
                "duration": 0.1840909,
                "tempo": 120.0
            },
            {
                "start_time": 60.1568182,
                "end_time": 61.7431818,
                "pitch": 38,
                "velocity": 32,
                "duration": 1.5863636,
                "tempo": 120.0
            },
            {
                "start_time": 61.7590909,
                "end_time": 63.1431818,
                "pitch": 43,
                "velocity": 32,
                "duration": 1.3840909,
                "tempo": 120.0
            },
            {
                "start_time": 63.1590909,
                "end_time": 63.3431818,
                "pitch": 40,
                "velocity": 32,
                "duration": 0.1840909,
                "tempo": 120.0
            },
            {
                "start_time": 63.3590909,
                "end_time": 64.9477273,
                "pitch": 45,
                "velocity": 32,
                "duration": 1.5886364,
                "tempo": 120.0
            },
            {
                "start_time": 64.9659091,
                "end_time": 66.3522727,
                "pitch": 40,
                "velocity": 32,
                "duration": 1.3863636,
                "tempo": 120.0
            },
            {
                "start_time": 66.3704545,
                "end_time": 66.5545455,
                "pitch": 41,
                "velocity": 32,
                "duration": 0.1840909,
                "tempo": 120.0
            },
            {
                "start_time": 66.5704545,
                "end_time": 68.1590909,
                "pitch": 38,
                "velocity": 32,
                "duration": 1.5886364,
                "tempo": 120.0
            },
            {
                "start_time": 68.1772727,
                "end_time": 69.5659091,
                "pitch": 43,
                "velocity": 32,
                "duration": 1.3886364,
                "tempo": 120.0
            },
            {
                "start_time": 69.5818182,
                "end_time": 69.7681818,
                "pitch": 40,
                "velocity": 32,
                "duration": 0.1863636,
                "tempo": 120.0
            },
            {
                "start_time": 69.7840909,
                "end_time": 71.3727273,
                "pitch": 45,
                "velocity": 32,
                "duration": 1.5886364,
                "tempo": 120.0
            },
            {
                "start_time": 71.3886364,
                "end_time": 72.7795455,
                "pitch": 40,
                "velocity": 32,
                "duration": 1.3909091,
                "tempo": 120.0
            },
            {
                "start_time": 72.7954545,
                "end_time": 72.9818182,
                "pitch": 41,
                "velocity": 32,
                "duration": 0.1863636,
                "tempo": 120.0
            },
            {
                "start_time": 72.9977273,
                "end_time": 74.5863636,
                "pitch": 38,
                "velocity": 32,
                "duration": 1.5886364,
                "tempo": 120.0
            },
            {
                "start_time": 74.6022727,
                "end_time": 75.9909091,
                "pitch": 43,
                "velocity": 32,
                "duration": 1.3886364,
                "tempo": 120.0
            },
            {
                "start_time": 76.0090909,
                "end_time": 76.1909091,
                "pitch": 40,
                "velocity": 32,
                "duration": 0.1818182,
                "tempo": 120.0
            },
            {
                "start_time": 76.2090909,
                "end_time": 77.825,
                "pitch": 45,
                "velocity": 32,
                "duration": 1.6159091,
                "tempo": 120.0
            }
        ],
        "Acoustic Grand Piano": [
            {
                "start_time": 26.5931818,
                "end_time": 26.6772727,
                "pitch": 59,
                "velocity": 25,
                "duration": 0.0840909,
                "tempo": 120.0
            },
            {
                "start_time": 26.7931818,
                "end_time": 26.8772727,
                "pitch": 52,
                "velocity": 25,
                "duration": 0.0840909,
                "tempo": 120.0
            },
            {
                "start_time": 26.8931818,
                "end_time": 26.9772727,
                "pitch": 57,
                "velocity": 25,
                "duration": 0.0840909,
                "tempo": 120.0
            },
            {
                "start_time": 27.0954545,
                "end_time": 27.1795455,
                "pitch": 52,
                "velocity": 25,
                "duration": 0.0840909,
                "tempo": 120.0
            },
            {
                "start_time": 27.2977273,
                "end_time": 27.3636364,
                "pitch": 55,
                "velocity": 25,
                "duration": 0.0659091,
                "tempo": 120.0
            },
            {
                "start_time": 27.3636364,
                "end_time": 27.3795455,
                "pitch": 55,
                "velocity": 25,
                "duration": 0.0159091,
                "tempo": 120.0
            },
            {
                "start_time": 27.4977273,
                "end_time": 27.5795455,
                "pitch": 57,
                "velocity": 25,
                "duration": 0.0818182,
                "tempo": 120.0
            },
            {
                "start_time": 27.6977273,
                "end_time": 27.7636364,
                "pitch": 55,
                "velocity": 25,
                "duration": 0.0659091,
                "tempo": 120.0
            },
            {
                "start_time": 27.7636364,
                "end_time": 27.7818182,
                "pitch": 55,
                "velocity": 25,
                "duration": 0.0181818,
                "tempo": 120.0
            },
            {
                "start_time": 27.8977273,
                "end_time": 27.9818182,
                "pitch": 52,
                "velocity": 25,
                "duration": 0.0840909,
                "tempo": 120.0
            },
            {
                "start_time": 28.1,
                "end_time": 28.1818182,
                "pitch": 50,
                "velocity": 25,
                "duration": 0.0818182,
                "tempo": 120.0
            },
            {
                "start_time": 28.2,
                "end_time": 28.2818182,
                "pitch": 57,
                "velocity": 25,
                "duration": 0.0818182,
                "tempo": 120.0
            },
            {
                "start_time": 28.4,
                "end_time": 28.4818182,
                "pitch": 50,
                "velocity": 25,
                "duration": 0.0818182,
                "tempo": 120.0
            },
            {
                "start_time": 28.5,
                "end_time": 28.5659091,
                "pitch": 55,
                "velocity": 25,
                "duration": 0.0659091,
                "tempo": 120.0
            },
            {
                "start_time": 28.5659091,
                "end_time": 28.5818182,
                "pitch": 55,
                "velocity": 25,
                "duration": 0.0159091,
                "tempo": 120.0
            },
            {
                "start_time": 28.7,
                "end_time": 28.7818182,
                "pitch": 50,
                "velocity": 25,
                "duration": 0.0818182,
                "tempo": 120.0
            },
            {
                "start_time": 28.9,
                "end_time": 28.9840909,
                "pitch": 53,
                "velocity": 25,
                "duration": 0.0840909,
                "tempo": 120.0
            },
            {
                "start_time": 29.1,
                "end_time": 29.1681818,
                "pitch": 55,
                "velocity": 25,
                "duration": 0.0681818,
                "tempo": 120.0
            },
            {
                "start_time": 29.1681818,
                "end_time": 29.1840909,
                "pitch": 55,
                "velocity": 25,
                "duration": 0.0159091,
                "tempo": 120.0
            },
            {
                "start_time": 29.3022727,
                "end_time": 29.3863636,
                "pitch": 53,
                "velocity": 25,
                "duration": 0.0840909,
                "tempo": 120.0
            },
            {
                "start_time": 29.5022727,
                "end_time": 29.5863636,
                "pitch": 50,
                "velocity": 25,
                "duration": 0.0840909,
                "tempo": 120.0
            },
            {
                "start_time": 29.7022727,
                "end_time": 29.7704545,
                "pitch": 55,
                "velocity": 25,
                "duration": 0.0681818,
                "tempo": 120.0
            },
            {
                "start_time": 29.7704545,
                "end_time": 29.7863636,
                "pitch": 55,
                "velocity": 25,
                "duration": 0.0159091,
                "tempo": 120.0
            },
            {
                "start_time": 29.8022727,
                "end_time": 29.8863636,
                "pitch": 62,
                "velocity": 25,
                "duration": 0.0840909,
                "tempo": 120.0
            },
            {
                "start_time": 30.0045455,
                "end_time": 30.0704545,
                "pitch": 55,
                "velocity": 25,
                "duration": 0.0659091,
                "tempo": 120.0
            },
            {
                "start_time": 30.0704545,
                "end_time": 30.0886364,
                "pitch": 55,
                "velocity": 25,
                "duration": 0.0181818,
                "tempo": 120.0
            },
            {
                "start_time": 30.1045455,
                "end_time": 30.1886364,
                "pitch": 60,
                "velocity": 25,
                "duration": 0.0840909,
                "tempo": 120.0
            },
            {
                "start_time": 30.3045455,
                "end_time": 30.3727273,
                "pitch": 55,
                "velocity": 25,
                "duration": 0.0681818,
                "tempo": 120.0
            },
            {
                "start_time": 30.3727273,
                "end_time": 30.3886364,
                "pitch": 55,
                "velocity": 25,
                "duration": 0.0159091,
                "tempo": 120.0
            },
            {
                "start_time": 30.5045455,
                "end_time": 30.5886364,
                "pitch": 59,
                "velocity": 25,
                "duration": 0.0840909,
                "tempo": 120.0
            },
            {
                "start_time": 30.7045455,
                "end_time": 30.7886364,
                "pitch": 60,
                "velocity": 25,
                "duration": 0.0840909,
                "tempo": 120.0
            },
            {
                "start_time": 30.9045455,
                "end_time": 30.9886364,
                "pitch": 59,
                "velocity": 25,
                "duration": 0.0840909,
                "tempo": 120.0
            },
            {
                "start_time": 31.1068182,
                "end_time": 31.1727273,
                "pitch": 55,
                "velocity": 25,
                "duration": 0.0659091,
                "tempo": 120.0
            },
            {
                "start_time": 31.1727273,
                "end_time": 31.1909091,
                "pitch": 55,
                "velocity": 25,
                "duration": 0.0181818,
                "tempo": 120.0
            },
            {
                "start_time": 31.3068182,
                "end_time": 31.3909091,
                "pitch": 52,
                "velocity": 25,
                "duration": 0.0840909,
                "tempo": 120.0
            },
            {
                "start_time": 31.4068182,
                "end_time": 31.4909091,
                "pitch": 59,
                "velocity": 25,
                "duration": 0.0840909,
                "tempo": 120.0
            },
            {
                "start_time": 31.6068182,
                "end_time": 31.6909091,
                "pitch": 52,
                "velocity": 25,
                "duration": 0.0840909,
                "tempo": 120.0
            },
            {
                "start_time": 31.7068182,
                "end_time": 31.7909091,
                "pitch": 57,
                "velocity": 25,
                "duration": 0.0840909,
                "tempo": 120.0
            },
            {
                "start_time": 31.9090909,
                "end_time": 31.9931818,
                "pitch": 52,
                "velocity": 25,
                "duration": 0.0840909,
                "tempo": 120.0
            },
            {
                "start_time": 32.1113636,
                "end_time": 32.1772727,
                "pitch": 55,
                "velocity": 25,
                "duration": 0.0659091,
                "tempo": 120.0
            },
            {
                "start_time": 32.1772727,
                "end_time": 32.1931818,
                "pitch": 55,
                "velocity": 25,
                "duration": 0.0159091,
                "tempo": 120.0
            },
            {
                "start_time": 32.3113636,
                "end_time": 32.3931818,
                "pitch": 57,
                "velocity": 25,
                "duration": 0.0818182,
                "tempo": 120.0
            },
            {
                "start_time": 32.5113636,
                "end_time": 32.5772727,
                "pitch": 55,
                "velocity": 25,
                "duration": 0.0659091,
                "tempo": 120.0
            },
            {
                "start_time": 32.5772727,
                "end_time": 32.5931818,
                "pitch": 55,
                "velocity": 25,
                "duration": 0.0159091,
                "tempo": 120.0
            },
            {
                "start_time": 32.7113636,
                "end_time": 32.7931818,
                "pitch": 52,
                "velocity": 25,
                "duration": 0.0818182,
                "tempo": 120.0
            },
            {
                "start_time": 32.9113636,
                "end_time": 32.9931818,
                "pitch": 50,
                "velocity": 25,
                "duration": 0.0818182,
                "tempo": 120.0
            },
            {
                "start_time": 33.0113636,
                "end_time": 33.0931818,
                "pitch": 57,
                "velocity": 25,
                "duration": 0.0818182,
                "tempo": 120.0
            },
            {
                "start_time": 33.2113636,
                "end_time": 33.2931818,
                "pitch": 50,
                "velocity": 25,
                "duration": 0.0818182,
                "tempo": 120.0
            },
            {
                "start_time": 33.3113636,
                "end_time": 33.3772727,
                "pitch": 55,
                "velocity": 25,
                "duration": 0.0659091,
                "tempo": 120.0
            },
            {
                "start_time": 33.3772727,
                "end_time": 33.3931818,
                "pitch": 55,
                "velocity": 25,
                "duration": 0.0159091,
                "tempo": 120.0
            },
            {
                "start_time": 33.5113636,
                "end_time": 33.5954545,
                "pitch": 50,
                "velocity": 25,
                "duration": 0.0840909,
                "tempo": 120.0
            },
            {
                "start_time": 33.7136364,
                "end_time": 33.7954545,
                "pitch": 53,
                "velocity": 25,
                "duration": 0.0818182,
                "tempo": 120.0
            },
            {
                "start_time": 33.9136364,
                "end_time": 33.9795455,
                "pitch": 55,
                "velocity": 25,
                "duration": 0.0659091,
                "tempo": 120.0
            },
            {
                "start_time": 33.9795455,
                "end_time": 33.9954545,
                "pitch": 55,
                "velocity": 25,
                "duration": 0.0159091,
                "tempo": 120.0
            },
            {
                "start_time": 34.1136364,
                "end_time": 34.1954545,
                "pitch": 53,
                "velocity": 25,
                "duration": 0.0818182,
                "tempo": 120.0
            },
            {
                "start_time": 34.3136364,
                "end_time": 34.3954545,
                "pitch": 50,
                "velocity": 25,
                "duration": 0.0818182,
                "tempo": 120.0
            },
            {
                "start_time": 34.5136364,
                "end_time": 34.5954545,
                "pitch": 52,
                "velocity": 25,
                "duration": 0.0818182,
                "tempo": 120.0
            },
            {
                "start_time": 34.6136364,
                "end_time": 34.6954545,
                "pitch": 59,
                "velocity": 25,
                "duration": 0.0818182,
                "tempo": 120.0
            },
            {
                "start_time": 34.8136364,
                "end_time": 34.8954545,
                "pitch": 52,
                "velocity": 25,
                "duration": 0.0818182,
                "tempo": 120.0
            },
            {
                "start_time": 34.9136364,
                "end_time": 34.9954545,
                "pitch": 57,
                "velocity": 25,
                "duration": 0.0818182,
                "tempo": 120.0
            },
            {
                "start_time": 35.1136364,
                "end_time": 35.1954545,
                "pitch": 52,
                "velocity": 25,
                "duration": 0.0818182,
                "tempo": 120.0
            },
            {
                "start_time": 35.3136364,
                "end_time": 35.3795455,
                "pitch": 55,
                "velocity": 25,
                "duration": 0.0659091,
                "tempo": 120.0
            },
            {
                "start_time": 35.3795455,
                "end_time": 35.3977273,
                "pitch": 55,
                "velocity": 25,
                "duration": 0.0181818,
                "tempo": 120.0
            },
            {
                "start_time": 35.5136364,
                "end_time": 35.5977273,
                "pitch": 57,
                "velocity": 25,
                "duration": 0.0840909,
                "tempo": 120.0
            },
            {
                "start_time": 35.7159091,
                "end_time": 35.7818182,
                "pitch": 55,
                "velocity": 25,
                "duration": 0.0659091,
                "tempo": 120.0
            },
            {
                "start_time": 35.7818182,
                "end_time": 35.8,
                "pitch": 55,
                "velocity": 25,
                "duration": 0.0181818,
                "tempo": 120.0
            },
            {
                "start_time": 35.9159091,
                "end_time": 36.0,
                "pitch": 52,
                "velocity": 25,
                "duration": 0.0840909,
                "tempo": 120.0
            },
            {
                "start_time": 36.1159091,
                "end_time": 36.2,
                "pitch": 57,
                "velocity": 25,
                "duration": 0.0840909,
                "tempo": 120.0
            },
            {
                "start_time": 36.2159091,
                "end_time": 36.3,
                "pitch": 64,
                "velocity": 25,
                "duration": 0.0840909,
                "tempo": 120.0
            },
            {
                "start_time": 36.4159091,
                "end_time": 36.5,
                "pitch": 57,
                "velocity": 25,
                "duration": 0.0840909,
                "tempo": 120.0
            },
            {
                "start_time": 36.5159091,
                "end_time": 36.6,
                "pitch": 62,
                "velocity": 25,
                "duration": 0.0840909,
                "tempo": 120.0
            },
            {
                "start_time": 36.7159091,
                "end_time": 36.8,
                "pitch": 57,
                "velocity": 25,
                "duration": 0.0840909,
                "tempo": 120.0
            },
            {
                "start_time": 36.9159091,
                "end_time": 37.0,
                "pitch": 60,
                "velocity": 25,
                "duration": 0.0840909,
                "tempo": 120.0
            },
            {
                "start_time": 37.1159091,
                "end_time": 37.2,
                "pitch": 62,
                "velocity": 25,
                "duration": 0.0840909,
                "tempo": 120.0
            },
            {
                "start_time": 37.3159091,
                "end_time": 37.3818182,
                "pitch": 55,
                "velocity": 25,
                "duration": 0.0659091,
                "tempo": 120.0
            },
            {
                "start_time": 37.3818182,
                "end_time": 37.3977273,
                "pitch": 55,
                "velocity": 25,
                "duration": 0.0159091,
                "tempo": 120.0
            },
            {
                "start_time": 37.5113636,
                "end_time": 37.5931818,
                "pitch": 52,
                "velocity": 25,
                "duration": 0.0818182,
                "tempo": 120.0
            },
            {
                "start_time": 37.7068182,
                "end_time": 37.7931818,
                "pitch": 57,
                "velocity": 25,
                "duration": 0.0863636,
                "tempo": 120.0
            },
            {
                "start_time": 37.8113636,
                "end_time": 37.8954545,
                "pitch": 64,
                "velocity": 25,
                "duration": 0.0840909,
                "tempo": 120.0
            },
            {
                "start_time": 38.0159091,
                "end_time": 38.1022727,
                "pitch": 57,
                "velocity": 25,
                "duration": 0.0863636,
                "tempo": 120.0
            },
            {
                "start_time": 38.1181818,
                "end_time": 38.2022727,
                "pitch": 62,
                "velocity": 25,
                "duration": 0.0840909,
                "tempo": 120.0
            },
            {
                "start_time": 38.3181818,
                "end_time": 38.4022727,
                "pitch": 57,
                "velocity": 25,
                "duration": 0.0840909,
                "tempo": 120.0
            },
            {
                "start_time": 38.5181818,
                "end_time": 38.6022727,
                "pitch": 60,
                "velocity": 25,
                "duration": 0.0840909,
                "tempo": 120.0
            },
            {
                "start_time": 38.7181818,
                "end_time": 38.8022727,
                "pitch": 62,
                "velocity": 25,
                "duration": 0.0840909,
                "tempo": 120.0
            },
            {
                "start_time": 38.9181818,
                "end_time": 38.9863636,
                "pitch": 55,
                "velocity": 25,
                "duration": 0.0681818,
                "tempo": 120.0
            },
            {
                "start_time": 38.9863636,
                "end_time": 39.0022727,
                "pitch": 55,
                "velocity": 25,
                "duration": 0.0159091,
                "tempo": 120.0
            },
            {
                "start_time": 39.1181818,
                "end_time": 39.2022727,
                "pitch": 52,
                "velocity": 25,
                "duration": 0.0840909,
                "tempo": 120.0
            },
            {
                "start_time": 39.3181818,
                "end_time": 39.4022727,
                "pitch": 52,
                "velocity": 25,
                "duration": 0.0840909,
                "tempo": 120.0
            },
            {
                "start_time": 39.4181818,
                "end_time": 39.5022727,
                "pitch": 59,
                "velocity": 25,
                "duration": 0.0840909,
                "tempo": 120.0
            },
            {
                "start_time": 39.6204545,
                "end_time": 39.7045455,
                "pitch": 52,
                "velocity": 25,
                "duration": 0.0840909,
                "tempo": 120.0
            },
            {
                "start_time": 39.7204545,
                "end_time": 39.8045455,
                "pitch": 57,
                "velocity": 25,
                "duration": 0.0840909,
                "tempo": 120.0
            },
            {
                "start_time": 39.9204545,
                "end_time": 40.0045455,
                "pitch": 52,
                "velocity": 25,
                "duration": 0.0840909,
                "tempo": 120.0
            },
            {
                "start_time": 40.1204545,
                "end_time": 40.1886364,
                "pitch": 55,
                "velocity": 25,
                "duration": 0.0681818,
                "tempo": 120.0
            },
            {
                "start_time": 40.1886364,
                "end_time": 40.2045455,
                "pitch": 55,
                "velocity": 25,
                "duration": 0.0159091,
                "tempo": 120.0
            },
            {
                "start_time": 40.3204545,
                "end_time": 40.4045455,
                "pitch": 57,
                "velocity": 25,
                "duration": 0.0840909,
                "tempo": 120.0
            },
            {
                "start_time": 40.5204545,
                "end_time": 40.5886364,
                "pitch": 55,
                "velocity": 25,
                "duration": 0.0681818,
                "tempo": 120.0
            },
            {
                "start_time": 40.5886364,
                "end_time": 40.6045455,
                "pitch": 55,
                "velocity": 25,
                "duration": 0.0159091,
                "tempo": 120.0
            },
            {
                "start_time": 40.7204545,
                "end_time": 40.8045455,
                "pitch": 52,
                "velocity": 25,
                "duration": 0.0840909,
                "tempo": 120.0
            },
            {
                "start_time": 40.9204545,
                "end_time": 41.0045455,
                "pitch": 50,
                "velocity": 25,
                "duration": 0.0840909,
                "tempo": 120.0
            },
            {
                "start_time": 41.0204545,
                "end_time": 41.1045455,
                "pitch": 57,
                "velocity": 25,
                "duration": 0.0840909,
                "tempo": 120.0
            },
            {
                "start_time": 41.2204545,
                "end_time": 41.3045455,
                "pitch": 50,
                "velocity": 25,
                "duration": 0.0840909,
                "tempo": 120.0
            },
            {
                "start_time": 41.3204545,
                "end_time": 41.3886364,
                "pitch": 55,
                "velocity": 25,
                "duration": 0.0681818,
                "tempo": 120.0
            },
            {
                "start_time": 41.3886364,
                "end_time": 41.4045455,
                "pitch": 55,
                "velocity": 25,
                "duration": 0.0159091,
                "tempo": 120.0
            },
            {
                "start_time": 41.5227273,
                "end_time": 41.6068182,
                "pitch": 50,
                "velocity": 25,
                "duration": 0.0840909,
                "tempo": 120.0
            },
            {
                "start_time": 41.725,
                "end_time": 41.8068182,
                "pitch": 53,
                "velocity": 25,
                "duration": 0.0818182,
                "tempo": 120.0
            },
            {
                "start_time": 41.925,
                "end_time": 41.9909091,
                "pitch": 55,
                "velocity": 25,
                "duration": 0.0659091,
                "tempo": 120.0
            },
            {
                "start_time": 41.9909091,
                "end_time": 42.0068182,
                "pitch": 55,
                "velocity": 25,
                "duration": 0.0159091,
                "tempo": 120.0
            },
            {
                "start_time": 42.125,
                "end_time": 42.2068182,
                "pitch": 53,
                "velocity": 25,
                "duration": 0.0818182,
                "tempo": 120.0
            },
            {
                "start_time": 42.325,
                "end_time": 42.4068182,
                "pitch": 50,
                "velocity": 25,
                "duration": 0.0818182,
                "tempo": 120.0
            },
            {
                "start_time": 42.525,
                "end_time": 42.5909091,
                "pitch": 55,
                "velocity": 25,
                "duration": 0.0659091,
                "tempo": 120.0
            },
            {
                "start_time": 42.5909091,
                "end_time": 42.6068182,
                "pitch": 55,
                "velocity": 25,
                "duration": 0.0159091,
                "tempo": 120.0
            },
            {
                "start_time": 42.625,
                "end_time": 42.7068182,
                "pitch": 62,
                "velocity": 25,
                "duration": 0.0818182,
                "tempo": 120.0
            },
            {
                "start_time": 42.825,
                "end_time": 42.8909091,
                "pitch": 55,
                "velocity": 25,
                "duration": 0.0659091,
                "tempo": 120.0
            },
            {
                "start_time": 42.8909091,
                "end_time": 42.9068182,
                "pitch": 55,
                "velocity": 25,
                "duration": 0.0159091,
                "tempo": 120.0
            },
            {
                "start_time": 42.925,
                "end_time": 43.0068182,
                "pitch": 60,
                "velocity": 25,
                "duration": 0.0818182,
                "tempo": 120.0
            },
            {
                "start_time": 43.125,
                "end_time": 43.1909091,
                "pitch": 55,
                "velocity": 25,
                "duration": 0.0659091,
                "tempo": 120.0
            },
            {
                "start_time": 43.1909091,
                "end_time": 43.2068182,
                "pitch": 55,
                "velocity": 25,
                "duration": 0.0159091,
                "tempo": 120.0
            },
            {
                "start_time": 43.325,
                "end_time": 43.4068182,
                "pitch": 59,
                "velocity": 25,
                "duration": 0.0818182,
                "tempo": 120.0
            },
            {
                "start_time": 43.525,
                "end_time": 43.6090909,
                "pitch": 60,
                "velocity": 25,
                "duration": 0.0840909,
                "tempo": 120.0
            },
            {
                "start_time": 43.7272727,
                "end_time": 43.8090909,
                "pitch": 59,
                "velocity": 25,
                "duration": 0.0818182,
                "tempo": 120.0
            },
            {
                "start_time": 43.9272727,
                "end_time": 43.9931818,
                "pitch": 55,
                "velocity": 25,
                "duration": 0.0659091,
                "tempo": 120.0
            },
            {
                "start_time": 43.9931818,
                "end_time": 44.0090909,
                "pitch": 55,
                "velocity": 25,
                "duration": 0.0159091,
                "tempo": 120.0
            },
            {
                "start_time": 44.1272727,
                "end_time": 44.2090909,
                "pitch": 52,
                "velocity": 25,
                "duration": 0.0818182,
                "tempo": 120.0
            },
            {
                "start_time": 44.2272727,
                "end_time": 44.3090909,
                "pitch": 59,
                "velocity": 25,
                "duration": 0.0818182,
                "tempo": 120.0
            },
            {
                "start_time": 44.4272727,
                "end_time": 44.5090909,
                "pitch": 52,
                "velocity": 25,
                "duration": 0.0818182,
                "tempo": 120.0
            },
            {
                "start_time": 44.5272727,
                "end_time": 44.6090909,
                "pitch": 57,
                "velocity": 25,
                "duration": 0.0818182,
                "tempo": 120.0
            },
            {
                "start_time": 44.7272727,
                "end_time": 44.8090909,
                "pitch": 52,
                "velocity": 25,
                "duration": 0.0818182,
                "tempo": 120.0
            },
            {
                "start_time": 44.9272727,
                "end_time": 44.9931818,
                "pitch": 55,
                "velocity": 25,
                "duration": 0.0659091,
                "tempo": 120.0
            },
            {
                "start_time": 44.9931818,
                "end_time": 45.0090909,
                "pitch": 55,
                "velocity": 25,
                "duration": 0.0159091,
                "tempo": 120.0
            },
            {
                "start_time": 45.1272727,
                "end_time": 45.2090909,
                "pitch": 57,
                "velocity": 25,
                "duration": 0.0818182,
                "tempo": 120.0
            },
            {
                "start_time": 45.3272727,
                "end_time": 45.3931818,
                "pitch": 55,
                "velocity": 25,
                "duration": 0.0659091,
                "tempo": 120.0
            },
            {
                "start_time": 45.3931818,
                "end_time": 45.4113636,
                "pitch": 55,
                "velocity": 25,
                "duration": 0.0181818,
                "tempo": 120.0
            },
            {
                "start_time": 45.5272727,
                "end_time": 45.6113636,
                "pitch": 52,
                "velocity": 25,
                "duration": 0.0840909,
                "tempo": 120.0
            },
            {
                "start_time": 45.7295455,
                "end_time": 45.8136364,
                "pitch": 50,
                "velocity": 25,
                "duration": 0.0840909,
                "tempo": 120.0
            },
            {
                "start_time": 45.8295455,
                "end_time": 45.9136364,
                "pitch": 57,
                "velocity": 25,
                "duration": 0.0840909,
                "tempo": 120.0
            },
            {
                "start_time": 46.0295455,
                "end_time": 46.1136364,
                "pitch": 50,
                "velocity": 25,
                "duration": 0.0840909,
                "tempo": 120.0
            },
            {
                "start_time": 46.1295455,
                "end_time": 46.1954545,
                "pitch": 55,
                "velocity": 25,
                "duration": 0.0659091,
                "tempo": 120.0
            },
            {
                "start_time": 46.1954545,
                "end_time": 46.2136364,
                "pitch": 55,
                "velocity": 25,
                "duration": 0.0181818,
                "tempo": 120.0
            },
            {
                "start_time": 46.3295455,
                "end_time": 46.4136364,
                "pitch": 50,
                "velocity": 25,
                "duration": 0.0840909,
                "tempo": 120.0
            },
            {
                "start_time": 46.5295455,
                "end_time": 46.6136364,
                "pitch": 53,
                "velocity": 25,
                "duration": 0.0840909,
                "tempo": 120.0
            },
            {
                "start_time": 46.7295455,
                "end_time": 46.7954545,
                "pitch": 55,
                "velocity": 25,
                "duration": 0.0659091,
                "tempo": 120.0
            },
            {
                "start_time": 46.7954545,
                "end_time": 46.8136364,
                "pitch": 55,
                "velocity": 25,
                "duration": 0.0181818,
                "tempo": 120.0
            },
            {
                "start_time": 46.9295455,
                "end_time": 47.0136364,
                "pitch": 53,
                "velocity": 25,
                "duration": 0.0840909,
                "tempo": 120.0
            },
            {
                "start_time": 47.1295455,
                "end_time": 47.2136364,
                "pitch": 50,
                "velocity": 25,
                "duration": 0.0840909,
                "tempo": 120.0
            },
            {
                "start_time": 47.3295455,
                "end_time": 47.4136364,
                "pitch": 52,
                "velocity": 25,
                "duration": 0.0840909,
                "tempo": 120.0
            },
            {
                "start_time": 47.4295455,
                "end_time": 47.5136364,
                "pitch": 59,
                "velocity": 25,
                "duration": 0.0840909,
                "tempo": 120.0
            },
            {
                "start_time": 47.6318182,
                "end_time": 47.7159091,
                "pitch": 52,
                "velocity": 25,
                "duration": 0.0840909,
                "tempo": 120.0
            },
            {
                "start_time": 47.7318182,
                "end_time": 47.8159091,
                "pitch": 57,
                "velocity": 25,
                "duration": 0.0840909,
                "tempo": 120.0
            },
            {
                "start_time": 47.9318182,
                "end_time": 48.0159091,
                "pitch": 52,
                "velocity": 25,
                "duration": 0.0840909,
                "tempo": 120.0
            },
            {
                "start_time": 48.1318182,
                "end_time": 48.1977273,
                "pitch": 55,
                "velocity": 25,
                "duration": 0.0659091,
                "tempo": 120.0
            },
            {
                "start_time": 48.1977273,
                "end_time": 48.2159091,
                "pitch": 55,
                "velocity": 25,
                "duration": 0.0181818,
                "tempo": 120.0
            },
            {
                "start_time": 48.3318182,
                "end_time": 48.4159091,
                "pitch": 57,
                "velocity": 25,
                "duration": 0.0840909,
                "tempo": 120.0
            },
            {
                "start_time": 48.5318182,
                "end_time": 48.5977273,
                "pitch": 55,
                "velocity": 25,
                "duration": 0.0659091,
                "tempo": 120.0
            },
            {
                "start_time": 48.5977273,
                "end_time": 48.6159091,
                "pitch": 55,
                "velocity": 25,
                "duration": 0.0181818,
                "tempo": 120.0
            },
            {
                "start_time": 48.7318182,
                "end_time": 48.8159091,
                "pitch": 52,
                "velocity": 25,
                "duration": 0.0840909,
                "tempo": 120.0
            },
            {
                "start_time": 48.9318182,
                "end_time": 49.0159091,
                "pitch": 57,
                "velocity": 25,
                "duration": 0.0840909,
                "tempo": 120.0
            },
            {
                "start_time": 49.0318182,
                "end_time": 49.1159091,
                "pitch": 64,
                "velocity": 25,
                "duration": 0.0840909,
                "tempo": 120.0
            },
            {
                "start_time": 49.2318182,
                "end_time": 49.3159091,
                "pitch": 57,
                "velocity": 25,
                "duration": 0.0840909,
                "tempo": 120.0
            },
            {
                "start_time": 49.3318182,
                "end_time": 49.4159091,
                "pitch": 62,
                "velocity": 25,
                "duration": 0.0840909,
                "tempo": 120.0
            },
            {
                "start_time": 49.5340909,
                "end_time": 49.6181818,
                "pitch": 57,
                "velocity": 25,
                "duration": 0.0840909,
                "tempo": 120.0
            },
            {
                "start_time": 49.7340909,
                "end_time": 49.8181818,
                "pitch": 60,
                "velocity": 25,
                "duration": 0.0840909,
                "tempo": 120.0
            },
            {
                "start_time": 49.9340909,
                "end_time": 50.0181818,
                "pitch": 62,
                "velocity": 25,
                "duration": 0.0840909,
                "tempo": 120.0
            },
            {
                "start_time": 50.1340909,
                "end_time": 50.2022727,
                "pitch": 55,
                "velocity": 25,
                "duration": 0.0681818,
                "tempo": 120.0
            },
            {
                "start_time": 50.2022727,
                "end_time": 50.2181818,
                "pitch": 55,
                "velocity": 25,
                "duration": 0.0159091,
                "tempo": 120.0
            },
            {
                "start_time": 50.3340909,
                "end_time": 50.4181818,
                "pitch": 52,
                "velocity": 25,
                "duration": 0.0840909,
                "tempo": 120.0
            },
            {
                "start_time": 50.5340909,
                "end_time": 50.6181818,
                "pitch": 57,
                "velocity": 25,
                "duration": 0.0840909,
                "tempo": 120.0
            },
            {
                "start_time": 50.6340909,
                "end_time": 50.7181818,
                "pitch": 64,
                "velocity": 25,
                "duration": 0.0840909,
                "tempo": 120.0
            },
            {
                "start_time": 50.8340909,
                "end_time": 50.9181818,
                "pitch": 57,
                "velocity": 25,
                "duration": 0.0840909,
                "tempo": 120.0
            },
            {
                "start_time": 50.9340909,
                "end_time": 51.0181818,
                "pitch": 62,
                "velocity": 25,
                "duration": 0.0840909,
                "tempo": 120.0
            },
            {
                "start_time": 51.1340909,
                "end_time": 51.2181818,
                "pitch": 57,
                "velocity": 25,
                "duration": 0.0840909,
                "tempo": 120.0
            },
            {
                "start_time": 51.3340909,
                "end_time": 51.4181818,
                "pitch": 60,
                "velocity": 25,
                "duration": 0.0840909,
                "tempo": 120.0
            },
            {
                "start_time": 51.5363636,
                "end_time": 51.6204545,
                "pitch": 62,
                "velocity": 25,
                "duration": 0.0840909,
                "tempo": 120.0
            },
            {
                "start_time": 51.7363636,
                "end_time": 51.8045455,
                "pitch": 55,
                "velocity": 25,
                "duration": 0.0681818,
                "tempo": 120.0
            },
            {
                "start_time": 51.8045455,
                "end_time": 51.8204545,
                "pitch": 55,
                "velocity": 25,
                "duration": 0.0159091,
                "tempo": 120.0
            },
            {
                "start_time": 51.9363636,
                "end_time": 52.0204545,
                "pitch": 52,
                "velocity": 25,
                "duration": 0.0840909,
                "tempo": 120.0
            }
        ]
    }
}