{
    "mood": "angry",
    "instruments": {
        "Acoustic Bass": [
            {
                "start_time": 0.0,
                "end_time": 0.1795455,
                "pitch": 47,
                "velocity": 51,
                "duration": 0.1795455,
                "tempo": 120.0
            },
            {
                "start_time": 0.1954545,
                "end_time": 0.375,
                "pitch": 47,
                "velocity": 51,
                "duration": 0.1795455,
                "tempo": 120.0
            },
            {
                "start_time": 0.3909091,
                "end_time": 0.5909091,
                "pitch": 47,
                "velocity": 51,
                "duration": 0.2,
                "tempo": 120.0
            },
            {
                "start_time": 0.6068182,
                "end_time": 0.7909091,
                "pitch": 47,
                "velocity": 51,
                "duration": 0.1840909,
                "tempo": 120.0
            },
            {
                "start_time": 0.8068182,
                "end_time": 0.9954545,
                "pitch": 47,
                "velocity": 51,
                "duration": 0.1886364,
                "tempo": 120.0
            },
            {
                "start_time": 1.0136364,
                "end_time": 1.2204545,
                "pitch": 47,
                "velocity": 51,
                "duration": 0.2068182,
                "tempo": 120.0
            },
            {
                "start_time": 1.2363636,
                "end_time": 1.425,
                "pitch": 47,
                "velocity": 51,
                "duration": 0.1886364,
                "tempo": 120.0
            },
            {
                "start_time": 1.4431818,
                "end_time": 1.65,
                "pitch": 47,
                "velocity": 51,
                "duration": 0.2068182,
                "tempo": 120.0
            },
            {
                "start_time": 1.6659091,
                "end_time": 1.85,
                "pitch": 47,
                "velocity": 51,
                "duration": 0.1840909,
                "tempo": 120.0
            },
            {
                "start_time": 1.8659091,
                "end_time": 2.05,
                "pitch": 47,
                "velocity": 51,
                "duration": 0.1840909,
                "tempo": 120.0
            },
            {
                "start_time": 2.0681818,
                "end_time": 2.2636364,
                "pitch": 47,
                "velocity": 51,
                "duration": 0.1954545,
                "tempo": 120.0
            },
            {
                "start_time": 2.2795455,
                "end_time": 2.4613636,
                "pitch": 47,
                "velocity": 51,
                "duration": 0.1818182,
                "tempo": 120.0
            },
            {
                "start_time": 2.4772727,
                "end_time": 2.6659091,
                "pitch": 47,
                "velocity": 51,
                "duration": 0.1886364,
                "tempo": 120.0
            },
            {
                "start_time": 2.7,
                "end_time": 2.8886364,
                "pitch": 47,
                "velocity": 51,
                "duration": 0.1886364,
                "tempo": 120.0
            },
            {
                "start_time": 2.9045455,
                "end_time": 3.0886364,
                "pitch": 45,
                "velocity": 51,
                "duration": 0.1840909,
                "tempo": 120.0
            },
            {
                "start_time": 3.1068182,
                "end_time": 3.3068182,
                "pitch": 46,
                "velocity": 51,
                "duration": 0.2,
                "tempo": 120.0
            },
            {
                "start_time": 3.3227273,
                "end_time": 3.5113636,
                "pitch": 47,
                "velocity": 51,
                "duration": 0.1886364,
                "tempo": 120.0
            },
            {
                "start_time": 3.5295455,
                "end_time": 3.7181818,
                "pitch": 47,
                "velocity": 51,
                "duration": 0.1886364,
                "tempo": 120.0
            },
            {
                "start_time": 3.7363636,
                "end_time": 3.9318182,
                "pitch": 47,
                "velocity": 51,
                "duration": 0.1954545,
                "tempo": 120.0
            },
            {
                "start_time": 3.9477273,
                "end_time": 4.1272727,
                "pitch": 47,
                "velocity": 51,
                "duration": 0.1795455,
                "tempo": 120.0
            },
            {
                "start_time": 4.1431818,
                "end_time": 4.3477273,
                "pitch": 47,
                "velocity": 51,
                "duration": 0.2045455,
                "tempo": 120.0
            },
            {
                "start_time": 4.3659091,
                "end_time": 4.5545455,
                "pitch": 47,
                "velocity": 51,
                "duration": 0.1886364,
                "tempo": 120.0
            },
            {
                "start_time": 4.5704545,
                "end_time": 4.7590909,
                "pitch": 47,
                "velocity": 51,
                "duration": 0.1886364,
                "tempo": 120.0
            },
            {
                "start_time": 4.7772727,
                "end_time": 4.9840909,
                "pitch": 47,
                "velocity": 51,
                "duration": 0.2068182,
                "tempo": 120.0
            },
            {
                "start_time": 5.0,
                "end_time": 5.1840909,
                "pitch": 47,
                "velocity": 51,
                "duration": 0.1840909,
                "tempo": 120.0
            },
            {
                "start_time": 5.2022727,
                "end_time": 5.4022727,
                "pitch": 47,
                "velocity": 51,
                "duration": 0.2,
                "tempo": 120.0
            },
            {
                "start_time": 5.4181818,
                "end_time": 5.6068182,
                "pitch": 47,
                "velocity": 51,
                "duration": 0.1886364,
                "tempo": 120.0
            },
            {
                "start_time": 5.625,
                "end_time": 5.8136364,
                "pitch": 47,
                "velocity": 51,
                "duration": 0.1886364,
                "tempo": 120.0
            },
            {
                "start_time": 5.8295455,
                "end_time": 6.0272727,
                "pitch": 47,
                "velocity": 51,
                "duration": 0.1977273,
                "tempo": 120.0
            },
            {
                "start_time": 6.0431818,
                "end_time": 6.225,
                "pitch": 44,
                "velocity": 51,
                "duration": 0.1818182,
                "tempo": 120.0
            },
            {
                "start_time": 6.2409091,
                "end_time": 6.425,
                "pitch": 45,
                "velocity": 51,
                "duration": 0.1840909,
                "tempo": 120.0
            },
            {
                "start_time": 6.4409091,
                "end_time": 6.6409091,
                "pitch": 46,
                "velocity": 51,
                "duration": 0.2,
                "tempo": 120.0
            },
            {
                "start_time": 6.6568182,
                "end_time": 6.8454545,
                "pitch": 47,
                "velocity": 51,
                "duration": 0.1886364,
                "tempo": 120.0
            },
            {
                "start_time": 6.8636364,
                "end_time": 7.0704545,
                "pitch": 47,
                "velocity": 51,
                "duration": 0.2068182,
                "tempo": 120.0
            },
            {
                "start_time": 7.0863636,
                "end_time": 7.275,
                "pitch": 47,
                "velocity": 51,
                "duration": 0.1886364,
                "tempo": 120.0
            },
            {
                "start_time": 7.2931818,
                "end_time": 7.4818182,
                "pitch": 47,
                "velocity": 51,
                "duration": 0.1886364,
                "tempo": 120.0
            },
            {
                "start_time": 7.5,
                "end_time": 7.6954545,
                "pitch": 47,
                "velocity": 51,
                "duration": 0.1954545,
                "tempo": 120.0
            },
            {
                "start_time": 7.7113636,
                "end_time": 7.8909091,
                "pitch": 47,
                "velocity": 51,
                "duration": 0.1795455,
                "tempo": 120.0
            },
            {
                "start_time": 7.9068182,
                "end_time": 8.1113636,
                "pitch": 47,
                "velocity": 51,
                "duration": 0.2045455,
                "tempo": 120.0
            },
            {
                "start_time": 8.1295455,
                "end_time": 8.3181818,
                "pitch": 47,
                "velocity": 51,
                "duration": 0.1886364,
                "tempo": 120.0
            },
            {
                "start_time": 8.3340909,
                "end_time": 8.5181818,
                "pitch": 47,
                "velocity": 51,
                "duration": 0.1840909,
                "tempo": 120.0
            },
            {
                "start_time": 8.5363636,
                "end_time": 8.7363636,
                "pitch": 47,
                "velocity": 51,
                "duration": 0.2,
                "tempo": 120.0
            },
            {
                "start_time": 8.7522727,
                "end_time": 8.9409091,
                "pitch": 47,
                "velocity": 51,
                "duration": 0.1886364,
                "tempo": 120.0
            },
            {
                "start_time": 8.9590909,
                "end_time": 9.1477273,
                "pitch": 47,
                "velocity": 51,
                "duration": 0.1886364,
                "tempo": 120.0
            },
            {
                "start_time": 9.1818182,
                "end_time": 9.3659091,
                "pitch": 47,
                "velocity": 51,
                "duration": 0.1840909,
                "tempo": 120.0
            },
            {
                "start_time": 9.3818182,
                "end_time": 9.5659091,
                "pitch": 47,
                "velocity": 51,
                "duration": 0.1840909,
                "tempo": 120.0
            },
            {
                "start_time": 9.5840909,
                "end_time": 9.7795455,
                "pitch": 45,
                "velocity": 51,
                "duration": 0.1954545,
                "tempo": 120.0
            },
            {
                "start_time": 9.7954545,
                "end_time": 9.9772727,
                "pitch": 46,
                "velocity": 51,
                "duration": 0.1818182,
                "tempo": 120.0
            },
            {
                "start_time": 9.9931818,
                "end_time": 10.1818182,
                "pitch": 47,
                "velocity": 51,
                "duration": 0.1886364,
                "tempo": 120.0
            },
            {
                "start_time": 10.1977273,
                "end_time": 10.4045455,
                "pitch": 47,
                "velocity": 51,
                "duration": 0.2068182,
                "tempo": 120.0
            },
            {
                "start_time": 10.4204545,
                "end_time": 10.6113636,
                "pitch": 47,
                "velocity": 51,
                "duration": 0.1909091,
                "tempo": 120.0
            },
            {
                "start_time": 10.6272727,
                "end_time": 10.8340909,
                "pitch": 47,
                "velocity": 51,
                "duration": 0.2068182,
                "tempo": 120.0
            },
            {
                "start_time": 10.85,
                "end_time": 11.0340909,
                "pitch": 47,
                "velocity": 51,
                "duration": 0.1840909,
                "tempo": 120.0
            },
            {
                "start_time": 11.0522727,
                "end_time": 11.2363636,
                "pitch": 47,
                "velocity": 51,
                "duration": 0.1840909,
                "tempo": 120.0
            },
            {
                "start_time": 11.2522727,
                "end_time": 11.4522727,
                "pitch": 47,
                "velocity": 51,
                "duration": 0.2,
                "tempo": 120.0
            },
            {
                "start_time": 11.4681818,
                "end_time": 11.6522727,
                "pitch": 47,
                "velocity": 51,
                "duration": 0.1840909,
                "tempo": 120.0
            },
            {
                "start_time": 11.6704545,
                "end_time": 11.8704545,
                "pitch": 47,
                "velocity": 51,
                "duration": 0.2,
                "tempo": 120.0
            },
            {
                "start_time": 11.8863636,
                "end_time": 12.0704545,
                "pitch": 47,
                "velocity": 51,
                "duration": 0.1840909,
                "tempo": 120.0
            },
            {
                "start_time": 12.0863636,
                "end_time": 12.275,
                "pitch": 47,
                "velocity": 51,
                "duration": 0.1886364,
                "tempo": 120.0
            },
            {
                "start_time": 12.2931818,
                "end_time": 12.5,
                "pitch": 47,
                "velocity": 51,
                "duration": 0.2068182,
                "tempo": 120.0
            },
            {
                "start_time": 12.5159091,
                "end_time": 12.7,
                "pitch": 47,
                "velocity": 51,
                "duration": 0.1840909,
                "tempo": 120.0
            },
            {
                "start_time": 12.7181818,
                "end_time": 12.9,
                "pitch": 44,
                "velocity": 51,
                "duration": 0.1818182,
                "tempo": 120.0
            },
            {
                "start_time": 12.9181818,
                "end_time": 13.1136364,
                "pitch": 45,
                "velocity": 51,
                "duration": 0.1954545,
                "tempo": 120.0
            },
            {
                "start_time": 13.1295455,
                "end_time": 13.3090909,
                "pitch": 46,
                "velocity": 51,
                "duration": 0.1795455,
                "tempo": 120.0
            },
            {
                "start_time": 13.325,
                "end_time": 14.9954545,
                "pitch": 47,
                "velocity": 51,
                "duration": 1.6704545,
                "tempo": 120.0
            },
            {
                "start_time": 15.0113636,
                "end_time": 16.6613636,
                "pitch": 50,
                "velocity": 51,
                "duration": 1.65,
                "tempo": 120.0
            },
            {
                "start_time": 16.6772727,
                "end_time": 18.3454545,
                "pitch": 52,
                "velocity": 51,
                "duration": 1.6681818,
                "tempo": 120.0
            },
            {
                "start_time": 18.3636364,
                "end_time": 18.9590909,
                "pitch": 53,
                "velocity": 51,
                "duration": 0.5954545,
                "tempo": 120.0
            },
            {
                "start_time": 18.9772727,
                "end_time": 19.0090909,
                "pitch": 54,
                "velocity": 51,
                "duration": 0.0318182,
                "tempo": 120.0
            },
            {
                "start_time": 19.0090909,
                "end_time": 19.0409091,
                "pitch": 43,
                "velocity": 51,
                "duration": 0.0318182,
                "tempo": 120.0
            },
            {
                "start_time": 19.0409091,
                "end_time": 19.1068182,
                "pitch": 53,
                "velocity": 51,
                "duration": 0.0659091,
                "tempo": 120.0
            },
            {
                "start_time": 19.1068182,
                "end_time": 19.1386364,
                "pitch": 43,
                "velocity": 51,
                "duration": 0.0318182,
                "tempo": 120.0
            },
            {
                "start_time": 19.1386364,
                "end_time": 19.2045455,
                "pitch": 53,
                "velocity": 51,
                "duration": 0.0659091,
                "tempo": 120.0
            },
            {
                "start_time": 19.2045455,
                "end_time": 19.2386364,
                "pitch": 43,
                "velocity": 51,
                "duration": 0.0340909,
                "tempo": 120.0
            },
            {
                "start_time": 19.2386364,
                "end_time": 19.3045455,
                "pitch": 53,
                "velocity": 51,
                "duration": 0.0659091,
                "tempo": 120.0
            },
            {
                "start_time": 19.3045455,
                "end_time": 19.3386364,
                "pitch": 43,
                "velocity": 51,
                "duration": 0.0340909,
                "tempo": 120.0
            },
            {
                "start_time": 19.3386364,
                "end_time": 19.4045455,
                "pitch": 53,
                "velocity": 51,
                "duration": 0.0659091,
                "tempo": 120.0
            },
            {
                "start_time": 19.4045455,
                "end_time": 19.4386364,
                "pitch": 43,
                "velocity": 51,
                "duration": 0.0340909,
                "tempo": 120.0
            },
            {
                "start_time": 19.4386364,
                "end_time": 19.5045455,
                "pitch": 53,
                "velocity": 51,
                "duration": 0.0659091,
                "tempo": 120.0
            },
            {
                "start_time": 19.5045455,
                "end_time": 19.5386364,
                "pitch": 43,
                "velocity": 51,
                "duration": 0.0340909,
                "tempo": 120.0
            },
            {
                "start_time": 19.5386364,
                "end_time": 19.6068182,
                "pitch": 53,
                "velocity": 51,
                "duration": 0.0681818,
                "tempo": 120.0
            },
            {
                "start_time": 19.6068182,
                "end_time": 19.6409091,
                "pitch": 43,
                "velocity": 51,
                "duration": 0.0340909,
                "tempo": 120.0
            },
            {
                "start_time": 19.6409091,
                "end_time": 19.7090909,
                "pitch": 53,
                "velocity": 51,
                "duration": 0.0681818,
                "tempo": 120.0
            },
            {
                "start_time": 19.7090909,
                "end_time": 19.7431818,
                "pitch": 43,
                "velocity": 51,
                "duration": 0.0340909,
                "tempo": 120.0
            },
            {
                "start_time": 19.7431818,
                "end_time": 19.8113636,
                "pitch": 53,
                "velocity": 51,
                "duration": 0.0681818,
                "tempo": 120.0
            },
            {
                "start_time": 19.8113636,
                "end_time": 19.8477273,
                "pitch": 43,
                "velocity": 51,
                "duration": 0.0363636,
                "tempo": 120.0
            },
            {
                "start_time": 19.8477273,
                "end_time": 19.9159091,
                "pitch": 53,
                "velocity": 51,
                "duration": 0.0681818,
                "tempo": 120.0
            },
            {
                "start_time": 19.9159091,
                "end_time": 19.95,
                "pitch": 43,
                "velocity": 51,
                "duration": 0.0340909,
                "tempo": 120.0
            },
            {
                "start_time": 19.95,
                "end_time": 20.0022727,
                "pitch": 53,
                "velocity": 51,
                "duration": 0.0522727,
                "tempo": 120.0
            },
            {
                "start_time": 20.0181818,
                "end_time": 21.6681818,
                "pitch": 59,
                "velocity": 51,
                "duration": 1.65,
                "tempo": 120.0
            },
            {
                "start_time": 21.6840909,
                "end_time": 23.3363636,
                "pitch": 50,
                "velocity": 51,
                "duration": 1.6522727,
                "tempo": 120.0
            },
            {
                "start_time": 23.3522727,
                "end_time": 23.3863636,
                "pitch": 54,
                "velocity": 51,
                "duration": 0.0340909,
                "tempo": 120.0
            },
            {
                "start_time": 23.3863636,
                "end_time": 23.4227273,
                "pitch": 43,
                "velocity": 51,
                "duration": 0.0363636,
                "tempo": 120.0
            },
            {
                "start_time": 23.4227273,
                "end_time": 23.4909091,
                "pitch": 53,
                "velocity": 51,
                "duration": 0.0681818,
                "tempo": 120.0
            },
            {
                "start_time": 23.4909091,
                "end_time": 23.525,
                "pitch": 43,
                "velocity": 51,
                "duration": 0.0340909,
                "tempo": 120.0
            },
            {
                "start_time": 23.525,
                "end_time": 23.5931818,
                "pitch": 53,
                "velocity": 51,
                "duration": 0.0681818,
                "tempo": 120.0
            },
            {
                "start_time": 23.5931818,
                "end_time": 23.6272727,
                "pitch": 43,
                "velocity": 51,
                "duration": 0.0340909,
                "tempo": 120.0
            },
            {
                "start_time": 23.6272727,
                "end_time": 23.6954545,
                "pitch": 53,
                "velocity": 51,
                "duration": 0.0681818,
                "tempo": 120.0
            },
            {
                "start_time": 23.6954545,
                "end_time": 23.7318182,
                "pitch": 43,
                "velocity": 51,
                "duration": 0.0363636,
                "tempo": 120.0
            },
            {
                "start_time": 23.7318182,
                "end_time": 23.8,
                "pitch": 53,
                "velocity": 51,
                "duration": 0.0681818,
                "tempo": 120.0
            },
            {
                "start_time": 23.8,
                "end_time": 23.8318182,
                "pitch": 43,
                "velocity": 51,
                "duration": 0.0318182,
                "tempo": 120.0
            },
            {
                "start_time": 23.8318182,
                "end_time": 23.9,
                "pitch": 53,
                "velocity": 51,
                "duration": 0.0681818,
                "tempo": 120.0
            },
            {
                "start_time": 23.9,
                "end_time": 23.9318182,
                "pitch": 43,
                "velocity": 51,
                "duration": 0.0318182,
                "tempo": 120.0
            },
            {
                "start_time": 23.9318182,
                "end_time": 24.0,
                "pitch": 53,
                "velocity": 51,
                "duration": 0.0681818,
                "tempo": 120.0
            },
            {
                "start_time": 24.0,
                "end_time": 24.0318182,
                "pitch": 43,
                "velocity": 51,
                "duration": 0.0318182,
                "tempo": 120.0
            },
            {
                "start_time": 24.0318182,
                "end_time": 24.1,
                "pitch": 53,
                "velocity": 51,
                "duration": 0.0681818,
                "tempo": 120.0
            },
            {
                "start_time": 24.1,
                "end_time": 24.1340909,
                "pitch": 43,
                "velocity": 51,
                "duration": 0.0340909,
                "tempo": 120.0
            },
            {
                "start_time": 24.1340909,
                "end_time": 24.2,
                "pitch": 53,
                "velocity": 51,
                "duration": 0.0659091,
                "tempo": 120.0
            },
            {
                "start_time": 24.2,
                "end_time": 24.2318182,
                "pitch": 43,
                "velocity": 51,
                "duration": 0.0318182,
                "tempo": 120.0
            },
            {
                "start_time": 24.2318182,
                "end_time": 24.2977273,
                "pitch": 53,
                "velocity": 51,
                "duration": 0.0659091,
                "tempo": 120.0
            },
            {
                "start_time": 24.2977273,
                "end_time": 24.3295455,
                "pitch": 43,
                "velocity": 51,
                "duration": 0.0318182,
                "tempo": 120.0
            },
            {
                "start_time": 24.3295455,
                "end_time": 24.3954545,
                "pitch": 53,
                "velocity": 51,
                "duration": 0.0659091,
                "tempo": 120.0
            },
            {
                "start_time": 24.3954545,
                "end_time": 24.4272727,
                "pitch": 43,
                "velocity": 51,
                "duration": 0.0318182,
                "tempo": 120.0
            },
            {
                "start_time": 24.4272727,
                "end_time": 24.4931818,
                "pitch": 53,
                "velocity": 51,
                "duration": 0.0659091,
                "tempo": 120.0
            },
            {
                "start_time": 24.4931818,
                "end_time": 24.525,
                "pitch": 43,
                "velocity": 51,
                "duration": 0.0318182,
                "tempo": 120.0
            },
            {
                "start_time": 24.525,
                "end_time": 24.5727273,
                "pitch": 53,
                "velocity": 51,
                "duration": 0.0477273,
                "tempo": 120.0
            },
            {
                "start_time": 24.5886364,
                "end_time": 25.0022727,
                "pitch": 57,
                "velocity": 51,
                "duration": 0.4136364,
                "tempo": 120.0
            },
            {
                "start_time": 25.0181818,
                "end_time": 26.0454545,
                "pitch": 59,
                "velocity": 51,
                "duration": 1.0272727,
                "tempo": 120.0
            },
            {
                "start_time": 26.0613636,
                "end_time": 26.0931818,
                "pitch": 54,
                "velocity": 51,
                "duration": 0.0318182,
                "tempo": 120.0
            },
            {
                "start_time": 26.0931818,
                "end_time": 26.125,
                "pitch": 43,
                "velocity": 51,
                "duration": 0.0318182,
                "tempo": 120.0
            },
            {
                "start_time": 26.125,
                "end_time": 26.1909091,
                "pitch": 53,
                "velocity": 51,
                "duration": 0.0659091,
                "tempo": 120.0
            },
            {
                "start_time": 26.1909091,
                "end_time": 26.2227273,
                "pitch": 43,
                "velocity": 51,
                "duration": 0.0318182,
                "tempo": 120.0
            },
            {
                "start_time": 26.2227273,
                "end_time": 26.2386364,
                "pitch": 53,
                "velocity": 51,
                "duration": 0.0159091,
                "tempo": 120.0
            },
            {
                "start_time": 26.2568182,
                "end_time": 26.4613636,
                "pitch": 57,
                "velocity": 51,
                "duration": 0.2045455,
                "tempo": 120.0
            },
            {
                "start_time": 26.4795455,
                "end_time": 26.6681818,
                "pitch": 58,
                "velocity": 51,
                "duration": 0.1886364,
                "tempo": 120.0
            },
            {
                "start_time": 26.6840909,
                "end_time": 28.3340909,
                "pitch": 59,
                "velocity": 51,
                "duration": 1.65,
                "tempo": 120.0
            },
            {
                "start_time": 28.3522727,
                "end_time": 30.0045455,
                "pitch": 52,
                "velocity": 51,
                "duration": 1.6522727,
                "tempo": 120.0
            },
            {
                "start_time": 30.0204545,
                "end_time": 30.0545455,
                "pitch": 54,
                "velocity": 51,
                "duration": 0.0340909,
                "tempo": 120.0
            },
            {
                "start_time": 30.0545455,
                "end_time": 30.0886364,
                "pitch": 43,
                "velocity": 51,
                "duration": 0.0340909,
                "tempo": 120.0
            },
            {
                "start_time": 30.0886364,
                "end_time": 30.1590909,
                "pitch": 53,
                "velocity": 51,
                "duration": 0.0704545,
                "tempo": 120.0
            },
            {
                "start_time": 30.1590909,
                "end_time": 30.1954545,
                "pitch": 43,
                "velocity": 51,
                "duration": 0.0363636,
                "tempo": 120.0
            },
            {
                "start_time": 30.1954545,
                "end_time": 30.2636364,
                "pitch": 53,
                "velocity": 51,
                "duration": 0.0681818,
                "tempo": 120.0
            },
            {
                "start_time": 30.2636364,
                "end_time": 30.3,
                "pitch": 43,
                "velocity": 51,
                "duration": 0.0363636,
                "tempo": 120.0
            },
            {
                "start_time": 30.3,
                "end_time": 30.3704545,
                "pitch": 53,
                "velocity": 51,
                "duration": 0.0704545,
                "tempo": 120.0
            },
            {
                "start_time": 30.3704545,
                "end_time": 30.4045455,
                "pitch": 43,
                "velocity": 51,
                "duration": 0.0340909,
                "tempo": 120.0
            },
            {
                "start_time": 30.4045455,
                "end_time": 30.475,
                "pitch": 53,
                "velocity": 51,
                "duration": 0.0704545,
                "tempo": 120.0
            },
            {
                "start_time": 30.475,
                "end_time": 30.5090909,
                "pitch": 43,
                "velocity": 51,
                "duration": 0.0340909,
                "tempo": 120.0
            },
            {
                "start_time": 30.5090909,
                "end_time": 30.575,
                "pitch": 53,
                "velocity": 51,
                "duration": 0.0659091,
                "tempo": 120.0
            },
            {
                "start_time": 30.575,
                "end_time": 30.6090909,
                "pitch": 43,
                "velocity": 51,
                "duration": 0.0340909,
                "tempo": 120.0
            },
            {
                "start_time": 30.6090909,
                "end_time": 30.675,
                "pitch": 53,
                "velocity": 51,
                "duration": 0.0659091,
                "tempo": 120.0
            },
            {
                "start_time": 30.675,
                "end_time": 30.7090909,
                "pitch": 43,
                "velocity": 51,
                "duration": 0.0340909,
                "tempo": 120.0
            },
            {
                "start_time": 30.7090909,
                "end_time": 30.775,
                "pitch": 53,
                "velocity": 51,
                "duration": 0.0659091,
                "tempo": 120.0
            },
            {
                "start_time": 30.775,
                "end_time": 30.8090909,
                "pitch": 43,
                "velocity": 51,
                "duration": 0.0340909,
                "tempo": 120.0
            },
            {
                "start_time": 30.8090909,
                "end_time": 30.875,
                "pitch": 53,
                "velocity": 51,
                "duration": 0.0659091,
                "tempo": 120.0
            },
            {
                "start_time": 30.875,
                "end_time": 30.9090909,
                "pitch": 43,
                "velocity": 51,
                "duration": 0.0340909,
                "tempo": 120.0
            },
            {
                "start_time": 30.9090909,
                "end_time": 30.975,
                "pitch": 53,
                "velocity": 51,
                "duration": 0.0659091,
                "tempo": 120.0
            },
            {
                "start_time": 30.975,
                "end_time": 31.0090909,
                "pitch": 43,
                "velocity": 51,
                "duration": 0.0340909,
                "tempo": 120.0
            },
            {
                "start_time": 31.0090909,
                "end_time": 31.0772727,
                "pitch": 53,
                "velocity": 51,
                "duration": 0.0681818,
                "tempo": 120.0
            },
            {
                "start_time": 31.0772727,
                "end_time": 31.1090909,
                "pitch": 43,
                "velocity": 51,
                "duration": 0.0318182,
                "tempo": 120.0
            },
            {
                "start_time": 31.1090909,
                "end_time": 31.1772727,
                "pitch": 53,
                "velocity": 51,
                "duration": 0.0681818,
                "tempo": 120.0
            },
            {
                "start_time": 31.1772727,
                "end_time": 31.2090909,
                "pitch": 43,
                "velocity": 51,
                "duration": 0.0318182,
                "tempo": 120.0
            },
            {
                "start_time": 31.2090909,
                "end_time": 31.2772727,
                "pitch": 53,
                "velocity": 51,
                "duration": 0.0681818,
                "tempo": 120.0
            },
            {
                "start_time": 31.2931818,
                "end_time": 31.6886364,
                "pitch": 50,
                "velocity": 51,
                "duration": 0.3954545,
                "tempo": 120.0
            },
            {
                "start_time": 31.7045455,
                "end_time": 33.3568182,
                "pitch": 47,
                "velocity": 51,
                "duration": 1.6522727,
                "tempo": 120.0
            },
            {
                "start_time": 33.3727273,
                "end_time": 33.575,
                "pitch": 47,
                "velocity": 51,
                "duration": 0.2022727,
                "tempo": 120.0
            },
            {
                "start_time": 33.5909091,
                "end_time": 33.775,
                "pitch": 47,
                "velocity": 51,
                "duration": 0.1840909,
                "tempo": 120.0
            },
            {
                "start_time": 33.7909091,
                "end_time": 33.9977273,
                "pitch": 47,
                "velocity": 51,
                "duration": 0.2068182,
                "tempo": 120.0
            },
            {
                "start_time": 34.0136364,
                "end_time": 34.2045455,
                "pitch": 47,
                "velocity": 51,
                "duration": 0.1909091,
                "tempo": 120.0
            },
            {
                "start_time": 34.2204545,
                "end_time": 34.4045455,
                "pitch": 47,
                "velocity": 51,
                "duration": 0.1840909,
                "tempo": 120.0
            },
            {
                "start_time": 34.4227273,
                "end_time": 34.6227273,
                "pitch": 47,
                "velocity": 51,
                "duration": 0.2,
                "tempo": 120.0
            },
            {
                "start_time": 34.6386364,
                "end_time": 34.8272727,
                "pitch": 47,
                "velocity": 51,
                "duration": 0.1886364,
                "tempo": 120.0
            },
            {
                "start_time": 34.8454545,
                "end_time": 35.0340909,
                "pitch": 47,
                "velocity": 51,
                "duration": 0.1886364,
                "tempo": 120.0
            },
            {
                "start_time": 35.0681818,
                "end_time": 35.2522727,
                "pitch": 47,
                "velocity": 51,
                "duration": 0.1840909,
                "tempo": 120.0
            },
            {
                "start_time": 35.2681818,
                "end_time": 35.4522727,
                "pitch": 47,
                "velocity": 51,
                "duration": 0.1840909,
                "tempo": 120.0
            },
            {
                "start_time": 35.4681818,
                "end_time": 35.6704545,
                "pitch": 47,
                "velocity": 51,
                "duration": 0.2022727,
                "tempo": 120.0
            },
            {
                "start_time": 35.6863636,
                "end_time": 35.8704545,
                "pitch": 47,
                "velocity": 51,
                "duration": 0.1840909,
                "tempo": 120.0
            },
            {
                "start_time": 35.8863636,
                "end_time": 36.0704545,
                "pitch": 47,
                "velocity": 51,
                "duration": 0.1840909,
                "tempo": 120.0
            },
            {
                "start_time": 36.0863636,
                "end_time": 36.2886364,
                "pitch": 47,
                "velocity": 51,
                "duration": 0.2022727,
                "tempo": 120.0
            },
            {
                "start_time": 36.3045455,
                "end_time": 36.4886364,
                "pitch": 45,
                "velocity": 51,
                "duration": 0.1840909,
                "tempo": 120.0
            },
            {
                "start_time": 36.5045455,
                "end_time": 36.7045455,
                "pitch": 46,
                "velocity": 51,
                "duration": 0.2,
                "tempo": 120.0
            },
            {
                "start_time": 36.7227273,
                "end_time": 36.9113636,
                "pitch": 47,
                "velocity": 51,
                "duration": 0.1886364,
                "tempo": 120.0
            },
            {
                "start_time": 36.9272727,
                "end_time": 37.1159091,
                "pitch": 47,
                "velocity": 51,
                "duration": 0.1886364,
                "tempo": 120.0
            },
            {
                "start_time": 37.1340909,
                "end_time": 37.3340909,
                "pitch": 47,
                "velocity": 51,
                "duration": 0.2,
                "tempo": 120.0
            },
            {
                "start_time": 37.3522727,
                "end_time": 37.5363636,
                "pitch": 47,
                "velocity": 51,
                "duration": 0.1840909,
                "tempo": 120.0
            },
            {
                "start_time": 37.5522727,
                "end_time": 37.7522727,
                "pitch": 47,
                "velocity": 51,
                "duration": 0.2,
                "tempo": 120.0
            },
            {
                "start_time": 37.7704545,
                "end_time": 37.9522727,
                "pitch": 47,
                "velocity": 51,
                "duration": 0.1818182,
                "tempo": 120.0
            },
            {
                "start_time": 37.9704545,
                "end_time": 38.1590909,
                "pitch": 47,
                "velocity": 51,
                "duration": 0.1886364,
                "tempo": 120.0
            },
            {
                "start_time": 38.175,
                "end_time": 38.3818182,
                "pitch": 47,
                "velocity": 51,
                "duration": 0.2068182,
                "tempo": 120.0
            },
            {
                "start_time": 38.4,
                "end_time": 38.5818182,
                "pitch": 47,
                "velocity": 51,
                "duration": 0.1818182,
                "tempo": 120.0
            },
            {
                "start_time": 38.6,
                "end_time": 38.7840909,
                "pitch": 47,
                "velocity": 51,
                "duration": 0.1840909,
                "tempo": 120.0
            },
            {
                "start_time": 38.8,
                "end_time": 39.0,
                "pitch": 47,
                "velocity": 51,
                "duration": 0.2,
                "tempo": 120.0
            },
            {
                "start_time": 39.0181818,
                "end_time": 39.2,
                "pitch": 47,
                "velocity": 51,
                "duration": 0.1818182,
                "tempo": 120.0
            },
            {
                "start_time": 39.2181818,
                "end_time": 39.4181818,
                "pitch": 47,
                "velocity": 51,
                "duration": 0.2,
                "tempo": 120.0
            },
            {
                "start_time": 39.4340909,
                "end_time": 39.6181818,
                "pitch": 44,
                "velocity": 51,
                "duration": 0.1840909,
                "tempo": 120.0
            },
            {
                "start_time": 39.6363636,
                "end_time": 39.8181818,
                "pitch": 45,
                "velocity": 51,
                "duration": 0.1818182,
                "tempo": 120.0
            },
            {
                "start_time": 39.8363636,
                "end_time": 40.0363636,
                "pitch": 46,
                "velocity": 51,
                "duration": 0.2,
                "tempo": 120.0
            },
            {
                "start_time": 40.0522727,
                "end_time": 40.2454545,
                "pitch": 47,
                "velocity": 51,
                "duration": 0.1931818,
                "tempo": 120.0
            },
            {
                "start_time": 40.2636364,
                "end_time": 40.4727273,
                "pitch": 47,
                "velocity": 51,
                "duration": 0.2090909,
                "tempo": 120.0
            },
            {
                "start_time": 40.4909091,
                "end_time": 40.675,
                "pitch": 47,
                "velocity": 51,
                "duration": 0.1840909,
                "tempo": 120.0
            },
            {
                "start_time": 40.6909091,
                "end_time": 40.875,
                "pitch": 47,
                "velocity": 51,
                "duration": 0.1840909,
                "tempo": 120.0
            },
            {
                "start_time": 40.8931818,
                "end_time": 41.0886364,
                "pitch": 47,
                "velocity": 51,
                "duration": 0.1954545,
                "tempo": 120.0
            },
            {
                "start_time": 41.1045455,
                "end_time": 41.2818182,
                "pitch": 47,
                "velocity": 51,
                "duration": 0.1772727,
                "tempo": 120.0
            },
            {
                "start_time": 41.3,
                "end_time": 41.4863636,
                "pitch": 47,
                "velocity": 51,
                "duration": 0.1863636,
                "tempo": 120.0
            },
            {
                "start_time": 41.5227273,
                "end_time": 41.7113636,
                "pitch": 47,
                "velocity": 51,
                "duration": 0.1886364,
                "tempo": 120.0
            },
            {
                "start_time": 41.7272727,
                "end_time": 41.9113636,
                "pitch": 47,
                "velocity": 51,
                "duration": 0.1840909,
                "tempo": 120.0
            },
            {
                "start_time": 41.9295455,
                "end_time": 42.1295455,
                "pitch": 47,
                "velocity": 51,
                "duration": 0.2,
                "tempo": 120.0
            },
            {
                "start_time": 42.1454545,
                "end_time": 42.3340909,
                "pitch": 47,
                "velocity": 51,
                "duration": 0.1886364,
                "tempo": 120.0
            },
            {
                "start_time": 42.3522727,
                "end_time": 42.5409091,
                "pitch": 47,
                "velocity": 51,
                "duration": 0.1886364,
                "tempo": 120.0
            },
            {
                "start_time": 42.5568182,
                "end_time": 42.7522727,
                "pitch": 47,
                "velocity": 51,
                "duration": 0.1954545,
                "tempo": 120.0
            },
            {
                "start_time": 42.7704545,
                "end_time": 42.9477273,
                "pitch": 47,
                "velocity": 51,
                "duration": 0.1772727,
                "tempo": 120.0
            },
            {
                "start_time": 42.9636364,
                "end_time": 43.1659091,
                "pitch": 45,
                "velocity": 51,
                "duration": 0.2022727,
                "tempo": 120.0
            },
            {
                "start_time": 43.1818182,
                "end_time": 43.3659091,
                "pitch": 46,
                "velocity": 51,
                "duration": 0.1840909,
                "tempo": 120.0
            },
            {
                "start_time": 43.3818182,
                "end_time": 43.5704545,
                "pitch": 47,
                "velocity": 51,
                "duration": 0.1886364,
                "tempo": 120.0
            },
            {
                "start_time": 43.5886364,
                "end_time": 43.7954545,
                "pitch": 47,
                "velocity": 51,
                "duration": 0.2068182,
                "tempo": 120.0
            },
            {
                "start_time": 43.8113636,
                "end_time": 44.0,
                "pitch": 47,
                "velocity": 51,
                "duration": 0.1886364,
                "tempo": 120.0
            },
            {
                "start_time": 44.0181818,
                "end_time": 44.2227273,
                "pitch": 47,
                "velocity": 51,
                "duration": 0.2045455,
                "tempo": 120.0
            },
            {
                "start_time": 44.2409091,
                "end_time": 44.4295455,
                "pitch": 47,
                "velocity": 51,
                "duration": 0.1886364,
                "tempo": 120.0
            },
            {
                "start_time": 44.4477273,
                "end_time": 44.6363636,
                "pitch": 47,
                "velocity": 51,
                "duration": 0.1886364,
                "tempo": 120.0
            },
            {
                "start_time": 44.6522727,
                "end_time": 44.85,
                "pitch": 47,
                "velocity": 51,
                "duration": 0.1977273,
                "tempo": 120.0
            },
            {
                "start_time": 44.8659091,
                "end_time": 45.0431818,
                "pitch": 47,
                "velocity": 51,
                "duration": 0.1772727,
                "tempo": 120.0
            },
            {
                "start_time": 45.0613636,
                "end_time": 45.2431818,
                "pitch": 47,
                "velocity": 51,
                "duration": 0.1818182,
                "tempo": 120.0
            },
            {
                "start_time": 45.2613636,
                "end_time": 45.4613636,
                "pitch": 47,
                "velocity": 51,
                "duration": 0.2,
                "tempo": 120.0
            },
            {
                "start_time": 45.4772727,
                "end_time": 45.6659091,
                "pitch": 47,
                "velocity": 51,
                "duration": 0.1886364,
                "tempo": 120.0
            },
            {
                "start_time": 45.6840909,
                "end_time": 45.8909091,
                "pitch": 47,
                "velocity": 51,
                "duration": 0.2068182,
                "tempo": 120.0
            },
            {
                "start_time": 45.9068182,
                "end_time": 46.0909091,
                "pitch": 47,
                "velocity": 51,
                "duration": 0.1840909,
                "tempo": 120.0
            },
            {
                "start_time": 46.1068182,
                "end_time": 46.2909091,
                "pitch": 44,
                "velocity": 51,
                "duration": 0.1840909,
                "tempo": 120.0
            },
            {
                "start_time": 46.3090909,
                "end_time": 46.5045455,
                "pitch": 45,
                "velocity": 51,
                "duration": 0.1954545,
                "tempo": 120.0
            },
            {
                "start_time": 46.5204545,
                "end_time": 46.6977273,
                "pitch": 46,
                "velocity": 51,
                "duration": 0.1772727,
                "tempo": 120.0
            },
            {
                "start_time": 46.7159091,
                "end_time": 48.375,
                "pitch": 47,
                "velocity": 51,
                "duration": 1.6590909,
                "tempo": 120.0
            },
            {
                "start_time": 48.3909091,
                "end_time": 50.0409091,
                "pitch": 50,
                "velocity": 64,
                "duration": 1.65,
                "tempo": 120.0
            },
            {
                "start_time": 50.0568182,
                "end_time": 51.7068182,
                "pitch": 52,
                "velocity": 64,
                "duration": 1.65,
                "tempo": 120.0
            },
            {
                "start_time": 51.7227273,
                "end_time": 52.3409091,
                "pitch": 53,
                "velocity": 64,
                "duration": 0.6181818,
                "tempo": 120.0
            },
            {
                "start_time": 52.3568182,
                "end_time": 52.3909091,
                "pitch": 54,
                "velocity": 64,
                "duration": 0.0340909,
                "tempo": 120.0
            },
            {
                "start_time": 52.3909091,
                "end_time": 52.425,
                "pitch": 43,
                "velocity": 64,
                "duration": 0.0340909,
                "tempo": 120.0
            },
            {
                "start_time": 52.425,
                "end_time": 52.4909091,
                "pitch": 53,
                "velocity": 64,
                "duration": 0.0659091,
                "tempo": 120.0
            },
            {
                "start_time": 52.4909091,
                "end_time": 52.525,
                "pitch": 43,
                "velocity": 64,
                "duration": 0.0340909,
                "tempo": 120.0
            },
            {
                "start_time": 52.525,
                "end_time": 52.5931818,
                "pitch": 53,
                "velocity": 64,
                "duration": 0.0681818,
                "tempo": 120.0
            },
            {
                "start_time": 52.5931818,
                "end_time": 52.6272727,
                "pitch": 43,
                "velocity": 64,
                "duration": 0.0340909,
                "tempo": 120.0
            },
            {
                "start_time": 52.6272727,
                "end_time": 52.6954545,
                "pitch": 53,
                "velocity": 64,
                "duration": 0.0681818,
                "tempo": 120.0
            },
            {
                "start_time": 52.6954545,
                "end_time": 52.7295455,
                "pitch": 43,
                "velocity": 64,
                "duration": 0.0340909,
                "tempo": 120.0
            },
            {
                "start_time": 52.7295455,
                "end_time": 52.7977273,
                "pitch": 53,
                "velocity": 64,
                "duration": 0.0681818,
                "tempo": 120.0
            },
            {
                "start_time": 52.7977273,
                "end_time": 52.8318182,
                "pitch": 43,
                "velocity": 64,
                "duration": 0.0340909,
                "tempo": 120.0
            },
            {
                "start_time": 52.8318182,
                "end_time": 52.9022727,
                "pitch": 53,
                "velocity": 64,
                "duration": 0.0704545,
                "tempo": 120.0
            },
            {
                "start_time": 52.9022727,
                "end_time": 52.9363636,
                "pitch": 43,
                "velocity": 64,
                "duration": 0.0340909,
                "tempo": 120.0
            },
            {
                "start_time": 52.9363636,
                "end_time": 53.0045455,
                "pitch": 53,
                "velocity": 64,
                "duration": 0.0681818,
                "tempo": 120.0
            },
            {
                "start_time": 53.0045455,
                "end_time": 53.0386364,
                "pitch": 43,
                "velocity": 64,
                "duration": 0.0340909,
                "tempo": 120.0
            },
            {
                "start_time": 53.0386364,
                "end_time": 53.1068182,
                "pitch": 53,
                "velocity": 64,
                "duration": 0.0681818,
                "tempo": 120.0
            },
            {
                "start_time": 53.1068182,
                "end_time": 53.1409091,
                "pitch": 43,
                "velocity": 64,
                "duration": 0.0340909,
                "tempo": 120.0
            },
            {
                "start_time": 53.1409091,
                "end_time": 53.2113636,
                "pitch": 53,
                "velocity": 64,
                "duration": 0.0704545,
                "tempo": 120.0
            },
            {
                "start_time": 53.2113636,
                "end_time": 53.2454545,
                "pitch": 43,
                "velocity": 64,
                "duration": 0.0340909,
                "tempo": 120.0
            },
            {
                "start_time": 53.2454545,
                "end_time": 53.3136364,
                "pitch": 53,
                "velocity": 64,
                "duration": 0.0681818,
                "tempo": 120.0
            },
            {
                "start_time": 53.3136364,
                "end_time": 53.3477273,
                "pitch": 43,
                "velocity": 64,
                "duration": 0.0340909,
                "tempo": 120.0
            },
            {
                "start_time": 53.3477273,
                "end_time": 53.4,
                "pitch": 53,
                "velocity": 64,
                "duration": 0.0522727,
                "tempo": 120.0
            },
            {
                "start_time": 53.4159091,
                "end_time": 55.0681818,
                "pitch": 59,
                "velocity": 64,
                "duration": 1.6522727,
                "tempo": 120.0
            },
            {
                "start_time": 55.0863636,
                "end_time": 56.7363636,
                "pitch": 50,
                "velocity": 64,
                "duration": 1.65,
                "tempo": 120.0
            },
            {
                "start_time": 56.7522727,
                "end_time": 56.7863636,
                "pitch": 54,
                "velocity": 64,
                "duration": 0.0340909,
                "tempo": 120.0
            },
            {
                "start_time": 56.7863636,
                "end_time": 56.8204545,
                "pitch": 43,
                "velocity": 64,
                "duration": 0.0340909,
                "tempo": 120.0
            },
            {
                "start_time": 56.8204545,
                "end_time": 56.8909091,
                "pitch": 53,
                "velocity": 64,
                "duration": 0.0704545,
                "tempo": 120.0
            },
            {
                "start_time": 56.8909091,
                "end_time": 56.925,
                "pitch": 43,
                "velocity": 64,
                "duration": 0.0340909,
                "tempo": 120.0
            },
            {
                "start_time": 56.925,
                "end_time": 56.9931818,
                "pitch": 53,
                "velocity": 64,
                "duration": 0.0681818,
                "tempo": 120.0
            },
            {
                "start_time": 56.9931818,
                "end_time": 57.0272727,
                "pitch": 43,
                "velocity": 64,
                "duration": 0.0340909,
                "tempo": 120.0
            },
            {
                "start_time": 57.0272727,
                "end_time": 57.0954545,
                "pitch": 53,
                "velocity": 64,
                "duration": 0.0681818,
                "tempo": 120.0
            },
            {
                "start_time": 57.0954545,
                "end_time": 57.1295455,
                "pitch": 43,
                "velocity": 64,
                "duration": 0.0340909,
                "tempo": 120.0
            },
            {
                "start_time": 57.1295455,
                "end_time": 57.1977273,
                "pitch": 53,
                "velocity": 64,
                "duration": 0.0681818,
                "tempo": 120.0
            },
            {
                "start_time": 57.1977273,
                "end_time": 57.2318182,
                "pitch": 43,
                "velocity": 64,
                "duration": 0.0340909,
                "tempo": 120.0
            },
            {
                "start_time": 57.2318182,
                "end_time": 57.3,
                "pitch": 53,
                "velocity": 64,
                "duration": 0.0681818,
                "tempo": 120.0
            },
            {
                "start_time": 57.3,
                "end_time": 57.3318182,
                "pitch": 43,
                "velocity": 64,
                "duration": 0.0318182,
                "tempo": 120.0
            },
            {
                "start_time": 57.3318182,
                "end_time": 57.4,
                "pitch": 53,
                "velocity": 64,
                "duration": 0.0681818,
                "tempo": 120.0
            },
            {
                "start_time": 57.4,
                "end_time": 57.4318182,
                "pitch": 43,
                "velocity": 64,
                "duration": 0.0318182,
                "tempo": 120.0
            },
            {
                "start_time": 57.4318182,
                "end_time": 57.5,
                "pitch": 53,
                "velocity": 64,
                "duration": 0.0681818,
                "tempo": 120.0
            },
            {
                "start_time": 57.5,
                "end_time": 57.5318182,
                "pitch": 43,
                "velocity": 64,
                "duration": 0.0318182,
                "tempo": 120.0
            },
            {
                "start_time": 57.5318182,
                "end_time": 57.6,
                "pitch": 53,
                "velocity": 64,
                "duration": 0.0681818,
                "tempo": 120.0
            },
            {
                "start_time": 57.6,
                "end_time": 57.6318182,
                "pitch": 43,
                "velocity": 64,
                "duration": 0.0318182,
                "tempo": 120.0
            },
            {
                "start_time": 57.6318182,
                "end_time": 57.6977273,
                "pitch": 53,
                "velocity": 64,
                "duration": 0.0659091,
                "tempo": 120.0
            },
            {
                "start_time": 57.6977273,
                "end_time": 57.7295455,
                "pitch": 43,
                "velocity": 64,
                "duration": 0.0318182,
                "tempo": 120.0
            },
            {
                "start_time": 57.7295455,
                "end_time": 57.7954545,
                "pitch": 53,
                "velocity": 64,
                "duration": 0.0659091,
                "tempo": 120.0
            },
            {
                "start_time": 57.7954545,
                "end_time": 57.8272727,
                "pitch": 43,
                "velocity": 64,
                "duration": 0.0318182,
                "tempo": 120.0
            },
            {
                "start_time": 57.8272727,
                "end_time": 57.8909091,
                "pitch": 53,
                "velocity": 64,
                "duration": 0.0636364,
                "tempo": 120.0
            },
            {
                "start_time": 57.8909091,
                "end_time": 57.925,
                "pitch": 43,
                "velocity": 64,
                "duration": 0.0340909,
                "tempo": 120.0
            },
            {
                "start_time": 57.925,
                "end_time": 57.9727273,
                "pitch": 53,
                "velocity": 64,
                "duration": 0.0477273,
                "tempo": 120.0
            },
            {
                "start_time": 57.9886364,
                "end_time": 58.4022727,
                "pitch": 57,
                "velocity": 64,
                "duration": 0.4136364,
                "tempo": 120.0
            },
            {
                "start_time": 58.4181818,
                "end_time": 59.4454545,
                "pitch": 59,
                "velocity": 64,
                "duration": 1.0272727,
                "tempo": 120.0
            },
            {
                "start_time": 59.4613636,
                "end_time": 59.4931818,
                "pitch": 54,
                "velocity": 64,
                "duration": 0.0318182,
                "tempo": 120.0
            },
            {
                "start_time": 59.4931818,
                "end_time": 59.525,
                "pitch": 43,
                "velocity": 64,
                "duration": 0.0318182,
                "tempo": 120.0
            },
            {
                "start_time": 59.525,
                "end_time": 59.5909091,
                "pitch": 53,
                "velocity": 64,
                "duration": 0.0659091,
                "tempo": 120.0
            },
            {
                "start_time": 59.5909091,
                "end_time": 59.6227273,
                "pitch": 43,
                "velocity": 64,
                "duration": 0.0318182,
                "tempo": 120.0
            },
            {
                "start_time": 59.6227273,
                "end_time": 59.6386364,
                "pitch": 53,
                "velocity": 64,
                "duration": 0.0159091,
                "tempo": 120.0
            },
            {
                "start_time": 59.6568182,
                "end_time": 59.8613636,
                "pitch": 57,
                "velocity": 64,
                "duration": 0.2045455,
                "tempo": 120.0
            },
            {
                "start_time": 59.8795455,
                "end_time": 60.0681818,
                "pitch": 58,
                "velocity": 64,
                "duration": 0.1886364,
                "tempo": 120.0
            },
            {
                "start_time": 60.0840909,
                "end_time": 60.2727273,
                "pitch": 47,
                "velocity": 64,
                "duration": 0.1886364,
                "tempo": 120.0
            }
        ],
        "Acoustic Grand Piano": [
            {
                "start_time": 0.0,
                "end_time": 0.1795455,
                "pitch": 47,
                "velocity": 32,
                "duration": 0.1795455,
                "tempo": 120.0
            },
            {
                "start_time": 0.1954545,
                "end_time": 0.375,
                "pitch": 47,
                "velocity": 32,
                "duration": 0.1795455,
                "tempo": 120.0
            },
            {
                "start_time": 0.3909091,
                "end_time": 0.5909091,
                "pitch": 47,
                "velocity": 32,
                "duration": 0.2,
                "tempo": 120.0
            },
            {
                "start_time": 0.6068182,
                "end_time": 0.7909091,
                "pitch": 47,
                "velocity": 32,
                "duration": 0.1840909,
                "tempo": 120.0
            },
            {
                "start_time": 0.8068182,
                "end_time": 0.9954545,
                "pitch": 47,
                "velocity": 32,
                "duration": 0.1886364,
                "tempo": 120.0
            },
            {
                "start_time": 1.0136364,
                "end_time": 1.2204545,
                "pitch": 47,
                "velocity": 32,
                "duration": 0.2068182,
                "tempo": 120.0
            },
            {
                "start_time": 1.2363636,
                "end_time": 1.425,
                "pitch": 47,
                "velocity": 32,
                "duration": 0.1886364,
                "tempo": 120.0
            },
            {
                "start_time": 1.4431818,
                "end_time": 1.65,
                "pitch": 47,
                "velocity": 32,
                "duration": 0.2068182,
                "tempo": 120.0
            },
            {
                "start_time": 1.6659091,
                "end_time": 1.85,
                "pitch": 47,
                "velocity": 32,
                "duration": 0.1840909,
                "tempo": 120.0
            },
            {
                "start_time": 1.8659091,
                "end_time": 2.05,
                "pitch": 47,
                "velocity": 32,
                "duration": 0.1840909,
                "tempo": 120.0
            },
            {
                "start_time": 2.0681818,
                "end_time": 2.2636364,
                "pitch": 47,
                "velocity": 32,
                "duration": 0.1954545,
                "tempo": 120.0
            },
            {
                "start_time": 2.2795455,
                "end_time": 2.4613636,
                "pitch": 47,
                "velocity": 32,
                "duration": 0.1818182,
                "tempo": 120.0
            },
            {
                "start_time": 2.4772727,
                "end_time": 2.6659091,
                "pitch": 47,
                "velocity": 32,
                "duration": 0.1886364,
                "tempo": 120.0
            },
            {
                "start_time": 2.7,
                "end_time": 2.8886364,
                "pitch": 47,
                "velocity": 32,
                "duration": 0.1886364,
                "tempo": 120.0
            },
            {
                "start_time": 2.9045455,
                "end_time": 3.0886364,
                "pitch": 45,
                "velocity": 32,
                "duration": 0.1840909,
                "tempo": 120.0
            },
            {
                "start_time": 3.1068182,
                "end_time": 3.3068182,
                "pitch": 46,
                "velocity": 32,
                "duration": 0.2,
                "tempo": 120.0
            },
            {
                "start_time": 3.3227273,
                "end_time": 3.5113636,
                "pitch": 47,
                "velocity": 32,
                "duration": 0.1886364,
                "tempo": 120.0
            },
            {
                "start_time": 3.5295455,
                "end_time": 3.7181818,
                "pitch": 47,
                "velocity": 32,
                "duration": 0.1886364,
                "tempo": 120.0
            },
            {
                "start_time": 3.7363636,
                "end_time": 3.9318182,
                "pitch": 47,
                "velocity": 32,
                "duration": 0.1954545,
                "tempo": 120.0
            },
            {
                "start_time": 3.9477273,
                "end_time": 4.1272727,
                "pitch": 47,
                "velocity": 32,
                "duration": 0.1795455,
                "tempo": 120.0
            },
            {
                "start_time": 4.1431818,
                "end_time": 4.3477273,
                "pitch": 47,
                "velocity": 32,
                "duration": 0.2045455,
                "tempo": 120.0
            },
            {
                "start_time": 4.3659091,
                "end_time": 4.5545455,
                "pitch": 47,
                "velocity": 32,
                "duration": 0.1886364,
                "tempo": 120.0
            },
            {
                "start_time": 4.5704545,
                "end_time": 4.7590909,
                "pitch": 47,
                "velocity": 32,
                "duration": 0.1886364,
                "tempo": 120.0
            },
            {
                "start_time": 4.7772727,
                "end_time": 4.9840909,
                "pitch": 47,
                "velocity": 32,
                "duration": 0.2068182,
                "tempo": 120.0
            },
            {
                "start_time": 5.0,
                "end_time": 5.1840909,
                "pitch": 47,
                "velocity": 32,
                "duration": 0.1840909,
                "tempo": 120.0
            },
            {
                "start_time": 5.2022727,
                "end_time": 5.4022727,
                "pitch": 47,
                "velocity": 32,
                "duration": 0.2,
                "tempo": 120.0
            },
            {
                "start_time": 5.4181818,
                "end_time": 5.6068182,
                "pitch": 47,
                "velocity": 32,
                "duration": 0.1886364,
                "tempo": 120.0
            },
            {
                "start_time": 5.625,
                "end_time": 5.8136364,
                "pitch": 47,
                "velocity": 32,
                "duration": 0.1886364,
                "tempo": 120.0
            },
            {
                "start_time": 5.8295455,
                "end_time": 6.0272727,
                "pitch": 47,
                "velocity": 32,
                "duration": 0.1977273,
                "tempo": 120.0
            },
            {
                "start_time": 6.0431818,
                "end_time": 6.225,
                "pitch": 44,
                "velocity": 32,
                "duration": 0.1818182,
                "tempo": 120.0
            },
            {
                "start_time": 6.2409091,
                "end_time": 6.425,
                "pitch": 45,
                "velocity": 32,
                "duration": 0.1840909,
                "tempo": 120.0
            },
            {
                "start_time": 6.4409091,
                "end_time": 6.6409091,
                "pitch": 46,
                "velocity": 32,
                "duration": 0.2,
                "tempo": 120.0
            },
            {
                "start_time": 6.6568182,
                "end_time": 6.8454545,
                "pitch": 47,
                "velocity": 32,
                "duration": 0.1886364,
                "tempo": 120.0
            },
            {
                "start_time": 6.8636364,
                "end_time": 7.0704545,
                "pitch": 47,
                "velocity": 32,
                "duration": 0.2068182,
                "tempo": 120.0
            },
            {
                "start_time": 7.0863636,
                "end_time": 7.275,
                "pitch": 47,
                "velocity": 32,
                "duration": 0.1886364,
                "tempo": 120.0
            },
            {
                "start_time": 7.2931818,
                "end_time": 7.4818182,
                "pitch": 47,
                "velocity": 32,
                "duration": 0.1886364,
                "tempo": 120.0
            },
            {
                "start_time": 7.5,
                "end_time": 7.6954545,
                "pitch": 47,
                "velocity": 32,
                "duration": 0.1954545,
                "tempo": 120.0
            },
            {
                "start_time": 7.7113636,
                "end_time": 7.8909091,
                "pitch": 47,
                "velocity": 32,
                "duration": 0.1795455,
                "tempo": 120.0
            },
            {
                "start_time": 7.9068182,
                "end_time": 8.1113636,
                "pitch": 47,
                "velocity": 32,
                "duration": 0.2045455,
                "tempo": 120.0
            },
            {
                "start_time": 8.1295455,
                "end_time": 8.3181818,
                "pitch": 47,
                "velocity": 32,
                "duration": 0.1886364,
                "tempo": 120.0
            },
            {
                "start_time": 8.3340909,
                "end_time": 8.5181818,
                "pitch": 47,
                "velocity": 32,
                "duration": 0.1840909,
                "tempo": 120.0
            },
            {
                "start_time": 8.5363636,
                "end_time": 8.7363636,
                "pitch": 47,
                "velocity": 32,
                "duration": 0.2,
                "tempo": 120.0
            },
            {
                "start_time": 8.7522727,
                "end_time": 8.9409091,
                "pitch": 47,
                "velocity": 32,
                "duration": 0.1886364,
                "tempo": 120.0
            },
            {
                "start_time": 8.9590909,
                "end_time": 9.1477273,
                "pitch": 47,
                "velocity": 32,
                "duration": 0.1886364,
                "tempo": 120.0
            },
            {
                "start_time": 9.1818182,
                "end_time": 9.3659091,
                "pitch": 47,
                "velocity": 32,
                "duration": 0.1840909,
                "tempo": 120.0
            },
            {
                "start_time": 9.3818182,
                "end_time": 9.5659091,
                "pitch": 47,
                "velocity": 32,
                "duration": 0.1840909,
                "tempo": 120.0
            },
            {
                "start_time": 9.5840909,
                "end_time": 9.7795455,
                "pitch": 45,
                "velocity": 32,
                "duration": 0.1954545,
                "tempo": 120.0
            },
            {
                "start_time": 9.7954545,
                "end_time": 9.9772727,
                "pitch": 46,
                "velocity": 32,
                "duration": 0.1818182,
                "tempo": 120.0
            },
            {
                "start_time": 9.9931818,
                "end_time": 10.1818182,
                "pitch": 47,
                "velocity": 32,
                "duration": 0.1886364,
                "tempo": 120.0
            },
            {
                "start_time": 10.1977273,
                "end_time": 10.4045455,
                "pitch": 47,
                "velocity": 32,
                "duration": 0.2068182,
                "tempo": 120.0
            },
            {
                "start_time": 10.4204545,
                "end_time": 10.6113636,
                "pitch": 47,
                "velocity": 32,
                "duration": 0.1909091,
                "tempo": 120.0
            },
            {
                "start_time": 10.6272727,
                "end_time": 10.8340909,
                "pitch": 47,
                "velocity": 32,
                "duration": 0.2068182,
                "tempo": 120.0
            },
            {
                "start_time": 10.85,
                "end_time": 11.0340909,
                "pitch": 47,
                "velocity": 32,
                "duration": 0.1840909,
                "tempo": 120.0
            },
            {
                "start_time": 11.0522727,
                "end_time": 11.2363636,
                "pitch": 47,
                "velocity": 32,
                "duration": 0.1840909,
                "tempo": 120.0
            },
            {
                "start_time": 11.2522727,
                "end_time": 11.4522727,
                "pitch": 47,
                "velocity": 32,
                "duration": 0.2,
                "tempo": 120.0
            },
            {
                "start_time": 11.4681818,
                "end_time": 11.6522727,
                "pitch": 47,
                "velocity": 32,
                "duration": 0.1840909,
                "tempo": 120.0
            },
            {
                "start_time": 11.6704545,
                "end_time": 11.8704545,
                "pitch": 47,
                "velocity": 32,
                "duration": 0.2,
                "tempo": 120.0
            },
            {
                "start_time": 11.8863636,
                "end_time": 12.0704545,
                "pitch": 47,
                "velocity": 32,
                "duration": 0.1840909,
                "tempo": 120.0
            },
            {
                "start_time": 12.0863636,
                "end_time": 12.275,
                "pitch": 47,
                "velocity": 32,
                "duration": 0.1886364,
                "tempo": 120.0
            },
            {
                "start_time": 12.2931818,
                "end_time": 12.5,
                "pitch": 47,
                "velocity": 32,
                "duration": 0.2068182,
                "tempo": 120.0
            },
            {
                "start_time": 12.5159091,
                "end_time": 12.7,
                "pitch": 47,
                "velocity": 32,
                "duration": 0.1840909,
                "tempo": 120.0
            },
            {
                "start_time": 12.7181818,
                "end_time": 12.9,
                "pitch": 44,
                "velocity": 32,
                "duration": 0.1818182,
                "tempo": 120.0
            },
            {
                "start_time": 12.9181818,
                "end_time": 13.1136364,
                "pitch": 45,
                "velocity": 32,
                "duration": 0.1954545,
                "tempo": 120.0
            },
            {
                "start_time": 13.1295455,
                "end_time": 13.3090909,
                "pitch": 46,
                "velocity": 32,
                "duration": 0.1795455,
                "tempo": 120.0
            },
            {
                "start_time": 13.3409091,
                "end_time": 13.5295455,
                "pitch": 57,
                "velocity": 32,
                "duration": 0.1886364,
                "tempo": 120.0
            },
            {
                "start_time": 13.5477273,
                "end_time": 13.7363636,
                "pitch": 58,
                "velocity": 32,
                "duration": 0.1886364,
                "tempo": 120.0
            },
            {
                "start_time": 13.7522727,
                "end_time": 13.9431818,
                "pitch": 59,
                "velocity": 32,
                "duration": 0.1909091,
                "tempo": 120.0
            },
            {
                "start_time": 13.9590909,
                "end_time": 14.1659091,
                "pitch": 57,
                "velocity": 32,
                "duration": 0.2068182,
                "tempo": 120.0
            },
            {
                "start_time": 14.1818182,
                "end_time": 14.3659091,
                "pitch": 58,
                "velocity": 32,
                "duration": 0.1840909,
                "tempo": 120.0
            },
            {
                "start_time": 14.3840909,
                "end_time": 14.5840909,
                "pitch": 59,
                "velocity": 32,
                "duration": 0.2,
                "tempo": 120.0
            },
            {
                "start_time": 14.6,
                "end_time": 14.7886364,
                "pitch": 57,
                "velocity": 32,
                "duration": 0.1886364,
                "tempo": 120.0
            },
            {
                "start_time": 14.8068182,
                "end_time": 14.9954545,
                "pitch": 58,
                "velocity": 32,
                "duration": 0.1886364,
                "tempo": 120.0
            },
            {
                "start_time": 15.0113636,
                "end_time": 15.2090909,
                "pitch": 59,
                "velocity": 32,
                "duration": 0.1977273,
                "tempo": 120.0
            },
            {
                "start_time": 15.225,
                "end_time": 15.4022727,
                "pitch": 57,
                "velocity": 32,
                "duration": 0.1772727,
                "tempo": 120.0
            },
            {
                "start_time": 15.4204545,
                "end_time": 15.6068182,
                "pitch": 58,
                "velocity": 32,
                "duration": 0.1863636,
                "tempo": 120.0
            },
            {
                "start_time": 15.6431818,
                "end_time": 15.8318182,
                "pitch": 59,
                "velocity": 32,
                "duration": 0.1886364,
                "tempo": 120.0
            },
            {
                "start_time": 15.8477273,
                "end_time": 16.0318182,
                "pitch": 57,
                "velocity": 32,
                "duration": 0.1840909,
                "tempo": 120.0
            },
            {
                "start_time": 16.05,
                "end_time": 16.25,
                "pitch": 58,
                "velocity": 32,
                "duration": 0.2,
                "tempo": 120.0
            },
            {
                "start_time": 16.2659091,
                "end_time": 16.3522727,
                "pitch": 56,
                "velocity": 32,
                "duration": 0.0863636,
                "tempo": 120.0
            },
            {
                "start_time": 16.3681818,
                "end_time": 16.4545455,
                "pitch": 57,
                "velocity": 32,
                "duration": 0.0863636,
                "tempo": 120.0
            },
            {
                "start_time": 16.4727273,
                "end_time": 16.5568182,
                "pitch": 58,
                "velocity": 32,
                "duration": 0.0840909,
                "tempo": 120.0
            },
            {
                "start_time": 16.575,
                "end_time": 16.6613636,
                "pitch": 59,
                "velocity": 32,
                "duration": 0.0863636,
                "tempo": 120.0
            },
            {
                "start_time": 16.6772727,
                "end_time": 16.875,
                "pitch": 57,
                "velocity": 32,
                "duration": 0.1977273,
                "tempo": 120.0
            },
            {
                "start_time": 16.8909091,
                "end_time": 17.0704545,
                "pitch": 58,
                "velocity": 32,
                "duration": 0.1795455,
                "tempo": 120.0
            },
            {
                "start_time": 17.0886364,
                "end_time": 17.2931818,
                "pitch": 59,
                "velocity": 32,
                "duration": 0.2045455,
                "tempo": 120.0
            },
            {
                "start_time": 17.3113636,
                "end_time": 17.5,
                "pitch": 57,
                "velocity": 32,
                "duration": 0.1886364,
                "tempo": 120.0
            },
            {
                "start_time": 17.5159091,
                "end_time": 17.7,
                "pitch": 58,
                "velocity": 32,
                "duration": 0.1840909,
                "tempo": 120.0
            },
            {
                "start_time": 17.7181818,
                "end_time": 17.9181818,
                "pitch": 59,
                "velocity": 32,
                "duration": 0.2,
                "tempo": 120.0
            },
            {
                "start_time": 17.9340909,
                "end_time": 18.1227273,
                "pitch": 57,
                "velocity": 32,
                "duration": 0.1886364,
                "tempo": 120.0
            },
            {
                "start_time": 18.1409091,
                "end_time": 18.3454545,
                "pitch": 58,
                "velocity": 32,
                "duration": 0.2045455,
                "tempo": 120.0
            },
            {
                "start_time": 18.3636364,
                "end_time": 18.5477273,
                "pitch": 59,
                "velocity": 32,
                "duration": 0.1840909,
                "tempo": 120.0
            },
            {
                "start_time": 18.5636364,
                "end_time": 18.7477273,
                "pitch": 57,
                "velocity": 32,
                "duration": 0.1840909,
                "tempo": 120.0
            },
            {
                "start_time": 18.7636364,
                "end_time": 18.9590909,
                "pitch": 58,
                "velocity": 32,
                "duration": 0.1954545,
                "tempo": 120.0
            },
            {
                "start_time": 18.9772727,
                "end_time": 19.1545455,
                "pitch": 59,
                "velocity": 32,
                "duration": 0.1772727,
                "tempo": 120.0
            },
            {
                "start_time": 19.1704545,
                "end_time": 19.3545455,
                "pitch": 57,
                "velocity": 32,
                "duration": 0.1840909,
                "tempo": 120.0
            },
            {
                "start_time": 19.3727273,
                "end_time": 19.5727273,
                "pitch": 58,
                "velocity": 32,
                "duration": 0.2,
                "tempo": 120.0
            },
            {
                "start_time": 19.5886364,
                "end_time": 19.675,
                "pitch": 56,
                "velocity": 32,
                "duration": 0.0863636,
                "tempo": 120.0
            },
            {
                "start_time": 19.6931818,
                "end_time": 19.7772727,
                "pitch": 57,
                "velocity": 32,
                "duration": 0.0840909,
                "tempo": 120.0
            },
            {
                "start_time": 19.7954545,
                "end_time": 19.8818182,
                "pitch": 58,
                "velocity": 32,
                "duration": 0.0863636,
                "tempo": 120.0
            },
            {
                "start_time": 19.8977273,
                "end_time": 20.0022727,
                "pitch": 59,
                "velocity": 32,
                "duration": 0.1045455,
                "tempo": 120.0
            },
            {
                "start_time": 20.0181818,
                "end_time": 20.2068182,
                "pitch": 57,
                "velocity": 32,
                "duration": 0.1886364,
                "tempo": 120.0
            },
            {
                "start_time": 20.225,
                "end_time": 20.4136364,
                "pitch": 58,
                "velocity": 32,
                "duration": 0.1886364,
                "tempo": 120.0
            },
            {
                "start_time": 20.4318182,
                "end_time": 20.625,
                "pitch": 59,
                "velocity": 32,
                "duration": 0.1931818,
                "tempo": 120.0
            },
            {
                "start_time": 20.6431818,
                "end_time": 20.8204545,
                "pitch": 57,
                "velocity": 32,
                "duration": 0.1772727,
                "tempo": 120.0
            },
            {
                "start_time": 20.8386364,
                "end_time": 21.0386364,
                "pitch": 58,
                "velocity": 32,
                "duration": 0.2,
                "tempo": 120.0
            },
            {
                "start_time": 21.0545455,
                "end_time": 21.2386364,
                "pitch": 59,
                "velocity": 32,
                "duration": 0.1840909,
                "tempo": 120.0
            },
            {
                "start_time": 21.2545455,
                "end_time": 21.4431818,
                "pitch": 57,
                "velocity": 32,
                "duration": 0.1886364,
                "tempo": 120.0
            },
            {
                "start_time": 21.4613636,
                "end_time": 21.6681818,
                "pitch": 58,
                "velocity": 32,
                "duration": 0.2068182,
                "tempo": 120.0
            },
            {
                "start_time": 21.6840909,
                "end_time": 21.8681818,
                "pitch": 59,
                "velocity": 32,
                "duration": 0.1840909,
                "tempo": 120.0
            },
            {
                "start_time": 21.8840909,
                "end_time": 22.0681818,
                "pitch": 57,
                "velocity": 32,
                "duration": 0.1840909,
                "tempo": 120.0
            },
            {
                "start_time": 22.1022727,
                "end_time": 22.2909091,
                "pitch": 58,
                "velocity": 32,
                "duration": 0.1886364,
                "tempo": 120.0
            },
            {
                "start_time": 22.3090909,
                "end_time": 22.4977273,
                "pitch": 59,
                "velocity": 32,
                "duration": 0.1886364,
                "tempo": 120.0
            },
            {
                "start_time": 22.5136364,
                "end_time": 22.7113636,
                "pitch": 57,
                "velocity": 32,
                "duration": 0.1977273,
                "tempo": 120.0
            },
            {
                "start_time": 22.7272727,
                "end_time": 22.9068182,
                "pitch": 58,
                "velocity": 32,
                "duration": 0.1795455,
                "tempo": 120.0
            },
            {
                "start_time": 22.9227273,
                "end_time": 23.0090909,
                "pitch": 56,
                "velocity": 32,
                "duration": 0.0863636,
                "tempo": 120.0
            },
            {
                "start_time": 23.0272727,
                "end_time": 23.1113636,
                "pitch": 57,
                "velocity": 32,
                "duration": 0.0840909,
                "tempo": 120.0
            },
            {
                "start_time": 23.1295455,
                "end_time": 23.2318182,
                "pitch": 58,
                "velocity": 32,
                "duration": 0.1022727,
                "tempo": 120.0
            },
            {
                "start_time": 23.25,
                "end_time": 23.3363636,
                "pitch": 59,
                "velocity": 32,
                "duration": 0.0863636,
                "tempo": 120.0
            },
            {
                "start_time": 23.3522727,
                "end_time": 23.5409091,
                "pitch": 57,
                "velocity": 32,
                "duration": 0.1886364,
                "tempo": 120.0
            },
            {
                "start_time": 23.5590909,
                "end_time": 23.7659091,
                "pitch": 58,
                "velocity": 32,
                "duration": 0.2068182,
                "tempo": 120.0
            },
            {
                "start_time": 23.7818182,
                "end_time": 23.9659091,
                "pitch": 59,
                "velocity": 32,
                "duration": 0.1840909,
                "tempo": 120.0
            },
            {
                "start_time": 23.9818182,
                "end_time": 24.1659091,
                "pitch": 57,
                "velocity": 32,
                "duration": 0.1840909,
                "tempo": 120.0
            },
            {
                "start_time": 24.1840909,
                "end_time": 24.3772727,
                "pitch": 58,
                "velocity": 32,
                "duration": 0.1931818,
                "tempo": 120.0
            },
            {
                "start_time": 24.3954545,
                "end_time": 24.5727273,
                "pitch": 59,
                "velocity": 32,
                "duration": 0.1772727,
                "tempo": 120.0
            },
            {
                "start_time": 24.5886364,
                "end_time": 24.7954545,
                "pitch": 57,
                "velocity": 32,
                "duration": 0.2068182,
                "tempo": 120.0
            },
            {
                "start_time": 24.8136364,
                "end_time": 25.0022727,
                "pitch": 58,
                "velocity": 32,
                "duration": 0.1886364,
                "tempo": 120.0
            },
            {
                "start_time": 25.0181818,
                "end_time": 25.2090909,
                "pitch": 59,
                "velocity": 32,
                "duration": 0.1909091,
                "tempo": 120.0
            },
            {
                "start_time": 25.225,
                "end_time": 25.4318182,
                "pitch": 57,
                "velocity": 32,
                "duration": 0.2068182,
                "tempo": 120.0
            },
            {
                "start_time": 25.4477273,
                "end_time": 25.6318182,
                "pitch": 58,
                "velocity": 32,
                "duration": 0.1840909,
                "tempo": 120.0
            },
            {
                "start_time": 25.65,
                "end_time": 25.8318182,
                "pitch": 59,
                "velocity": 32,
                "duration": 0.1818182,
                "tempo": 120.0
            },
            {
                "start_time": 25.85,
                "end_time": 26.0454545,
                "pitch": 57,
                "velocity": 32,
                "duration": 0.1954545,
                "tempo": 120.0
            },
            {
                "start_time": 26.0613636,
                "end_time": 26.2386364,
                "pitch": 58,
                "velocity": 32,
                "duration": 0.1772727,
                "tempo": 120.0
            },
            {
                "start_time": 26.2568182,
                "end_time": 26.3409091,
                "pitch": 56,
                "velocity": 32,
                "duration": 0.0840909,
                "tempo": 120.0
            },
            {
                "start_time": 26.3590909,
                "end_time": 26.4613636,
                "pitch": 57,
                "velocity": 32,
                "duration": 0.1022727,
                "tempo": 120.0
            },
            {
                "start_time": 26.4795455,
                "end_time": 26.5659091,
                "pitch": 58,
                "velocity": 32,
                "duration": 0.0863636,
                "tempo": 120.0
            },
            {
                "start_time": 26.5818182,
                "end_time": 26.6681818,
                "pitch": 59,
                "velocity": 32,
                "duration": 0.0863636,
                "tempo": 120.0
            },
            {
                "start_time": 26.6840909,
                "end_time": 26.8681818,
                "pitch": 57,
                "velocity": 32,
                "duration": 0.1840909,
                "tempo": 120.0
            },
            {
                "start_time": 26.8863636,
                "end_time": 27.0863636,
                "pitch": 58,
                "velocity": 32,
                "duration": 0.2,
                "tempo": 120.0
            },
            {
                "start_time": 27.1022727,
                "end_time": 27.2909091,
                "pitch": 59,
                "velocity": 32,
                "duration": 0.1886364,
                "tempo": 120.0
            },
            {
                "start_time": 27.3090909,
                "end_time": 27.5159091,
                "pitch": 57,
                "velocity": 32,
                "duration": 0.2068182,
                "tempo": 120.0
            },
            {
                "start_time": 27.5318182,
                "end_time": 27.7204545,
                "pitch": 58,
                "velocity": 32,
                "duration": 0.1886364,
                "tempo": 120.0
            },
            {
                "start_time": 27.7386364,
                "end_time": 27.9272727,
                "pitch": 59,
                "velocity": 32,
                "duration": 0.1886364,
                "tempo": 120.0
            },
            {
                "start_time": 27.9454545,
                "end_time": 28.1386364,
                "pitch": 57,
                "velocity": 32,
                "duration": 0.1931818,
                "tempo": 120.0
            },
            {
                "start_time": 28.1568182,
                "end_time": 28.3340909,
                "pitch": 58,
                "velocity": 32,
                "duration": 0.1772727,
                "tempo": 120.0
            },
            {
                "start_time": 28.3522727,
                "end_time": 28.5340909,
                "pitch": 59,
                "velocity": 32,
                "duration": 0.1818182,
                "tempo": 120.0
            },
            {
                "start_time": 28.5681818,
                "end_time": 28.7522727,
                "pitch": 57,
                "velocity": 32,
                "duration": 0.1840909,
                "tempo": 120.0
            },
            {
                "start_time": 28.7681818,
                "end_time": 28.9568182,
                "pitch": 58,
                "velocity": 32,
                "duration": 0.1886364,
                "tempo": 120.0
            },
            {
                "start_time": 28.975,
                "end_time": 29.1818182,
                "pitch": 59,
                "velocity": 32,
                "duration": 0.2068182,
                "tempo": 120.0
            },
            {
                "start_time": 29.1977273,
                "end_time": 29.3863636,
                "pitch": 57,
                "velocity": 32,
                "duration": 0.1886364,
                "tempo": 120.0
            },
            {
                "start_time": 29.4045455,
                "end_time": 29.5931818,
                "pitch": 58,
                "velocity": 32,
                "duration": 0.1886364,
                "tempo": 120.0
            },
            {
                "start_time": 29.6113636,
                "end_time": 29.7090909,
                "pitch": 56,
                "velocity": 32,
                "duration": 0.0977273,
                "tempo": 120.0
            },
            {
                "start_time": 29.725,
                "end_time": 29.8068182,
                "pitch": 57,
                "velocity": 32,
                "duration": 0.0818182,
                "tempo": 120.0
            },
            {
                "start_time": 29.8227273,
                "end_time": 29.9045455,
                "pitch": 58,
                "velocity": 32,
                "duration": 0.0818182,
                "tempo": 120.0
            },
            {
                "start_time": 29.9227273,
                "end_time": 30.0045455,
                "pitch": 59,
                "velocity": 32,
                "duration": 0.0818182,
                "tempo": 120.0
            },
            {
                "start_time": 30.0204545,
                "end_time": 30.2295455,
                "pitch": 57,
                "velocity": 32,
                "duration": 0.2090909,
                "tempo": 120.0
            },
            {
                "start_time": 30.2477273,
                "end_time": 30.4409091,
                "pitch": 58,
                "velocity": 32,
                "duration": 0.1931818,
                "tempo": 120.0
            },
            {
                "start_time": 30.4568182,
                "end_time": 30.6409091,
                "pitch": 59,
                "velocity": 32,
                "duration": 0.1840909,
                "tempo": 120.0
            },
            {
                "start_time": 30.6590909,
                "end_time": 30.8590909,
                "pitch": 57,
                "velocity": 32,
                "duration": 0.2,
                "tempo": 120.0
            },
            {
                "start_time": 30.875,
                "end_time": 31.0590909,
                "pitch": 58,
                "velocity": 32,
                "duration": 0.1840909,
                "tempo": 120.0
            },
            {
                "start_time": 31.0772727,
                "end_time": 31.2772727,
                "pitch": 59,
                "velocity": 32,
                "duration": 0.2,
                "tempo": 120.0
            },
            {
                "start_time": 31.2931818,
                "end_time": 31.4818182,
                "pitch": 57,
                "velocity": 32,
                "duration": 0.1886364,
                "tempo": 120.0
            },
            {
                "start_time": 31.5,
                "end_time": 31.6886364,
                "pitch": 58,
                "velocity": 32,
                "duration": 0.1886364,
                "tempo": 120.0
            },
            {
                "start_time": 31.7045455,
                "end_time": 31.9022727,
                "pitch": 59,
                "velocity": 32,
                "duration": 0.1977273,
                "tempo": 120.0
            },
            {
                "start_time": 31.9181818,
                "end_time": 32.0977273,
                "pitch": 57,
                "velocity": 32,
                "duration": 0.1795455,
                "tempo": 120.0
            },
            {
                "start_time": 32.1159091,
                "end_time": 32.3045455,
                "pitch": 58,
                "velocity": 32,
                "duration": 0.1886364,
                "tempo": 120.0
            },
            {
                "start_time": 32.3204545,
                "end_time": 32.5272727,
                "pitch": 59,
                "velocity": 32,
                "duration": 0.2068182,
                "tempo": 120.0
            },
            {
                "start_time": 32.5431818,
                "end_time": 32.7272727,
                "pitch": 57,
                "velocity": 32,
                "duration": 0.1840909,
                "tempo": 120.0
            },
            {
                "start_time": 32.7454545,
                "end_time": 32.9454545,
                "pitch": 58,
                "velocity": 32,
                "duration": 0.2,
                "tempo": 120.0
            },
            {
                "start_time": 32.9613636,
                "end_time": 33.0477273,
                "pitch": 56,
                "velocity": 32,
                "duration": 0.0863636,
                "tempo": 120.0
            },
            {
                "start_time": 33.0636364,
                "end_time": 33.15,
                "pitch": 57,
                "velocity": 32,
                "duration": 0.0863636,
                "tempo": 120.0
            },
            {
                "start_time": 33.1681818,
                "end_time": 33.2545455,
                "pitch": 58,
                "velocity": 32,
                "duration": 0.0863636,
                "tempo": 120.0
            },
            {
                "start_time": 33.2704545,
                "end_time": 33.3568182,
                "pitch": 59,
                "velocity": 32,
                "duration": 0.0863636,
                "tempo": 120.0
            },
            {
                "start_time": 33.3909091,
                "end_time": 33.575,
                "pitch": 47,
                "velocity": 32,
                "duration": 0.1840909,
                "tempo": 120.0
            },
            {
                "start_time": 33.5909091,
                "end_time": 33.775,
                "pitch": 47,
                "velocity": 32,
                "duration": 0.1840909,
                "tempo": 120.0
            },
            {
                "start_time": 33.7909091,
                "end_time": 33.9977273,
                "pitch": 47,
                "velocity": 32,
                "duration": 0.2068182,
                "tempo": 120.0
            },
            {
                "start_time": 34.0136364,
                "end_time": 34.2045455,
                "pitch": 47,
                "velocity": 32,
                "duration": 0.1909091,
                "tempo": 120.0
            },
            {
                "start_time": 34.2204545,
                "end_time": 34.4045455,
                "pitch": 47,
                "velocity": 32,
                "duration": 0.1840909,
                "tempo": 120.0
            },
            {
                "start_time": 34.4227273,
                "end_time": 34.6227273,
                "pitch": 47,
                "velocity": 32,
                "duration": 0.2,
                "tempo": 120.0
            },
            {
                "start_time": 34.6386364,
                "end_time": 34.8272727,
                "pitch": 47,
                "velocity": 32,
                "duration": 0.1886364,
                "tempo": 120.0
            },
            {
                "start_time": 34.8454545,
                "end_time": 35.0340909,
                "pitch": 47,
                "velocity": 32,
                "duration": 0.1886364,
                "tempo": 120.0
            },
            {
                "start_time": 35.0681818,
                "end_time": 35.2522727,
                "pitch": 47,
                "velocity": 32,
                "duration": 0.1840909,
                "tempo": 120.0
            },
            {
                "start_time": 35.2681818,
                "end_time": 35.4522727,
                "pitch": 47,
                "velocity": 32,
                "duration": 0.1840909,
                "tempo": 120.0
            },
            {
                "start_time": 35.4681818,
                "end_time": 35.6704545,
                "pitch": 47,
                "velocity": 32,
                "duration": 0.2022727,
                "tempo": 120.0
            },
            {
                "start_time": 35.6863636,
                "end_time": 35.8704545,
                "pitch": 47,
                "velocity": 32,
                "duration": 0.1840909,
                "tempo": 120.0
            },
            {
                "start_time": 35.8863636,
                "end_time": 36.0704545,
                "pitch": 47,
                "velocity": 32,
                "duration": 0.1840909,
                "tempo": 120.0
            },
            {
                "start_time": 36.0863636,
                "end_time": 36.2886364,
                "pitch": 47,
                "velocity": 32,
                "duration": 0.2022727,
                "tempo": 120.0
            },
            {
                "start_time": 36.3045455,
                "end_time": 36.4886364,
                "pitch": 45,
                "velocity": 32,
                "duration": 0.1840909,
                "tempo": 120.0
            },
            {
                "start_time": 36.5045455,
                "end_time": 36.7045455,
                "pitch": 46,
                "velocity": 32,
                "duration": 0.2,
                "tempo": 120.0
            },
            {
                "start_time": 36.7227273,
                "end_time": 36.9113636,
                "pitch": 47,
                "velocity": 32,
                "duration": 0.1886364,
                "tempo": 120.0
            },
            {
                "start_time": 36.9272727,
                "end_time": 37.1159091,
                "pitch": 47,
                "velocity": 32,
                "duration": 0.1886364,
                "tempo": 120.0
            },
            {
                "start_time": 37.1340909,
                "end_time": 37.3340909,
                "pitch": 47,
                "velocity": 32,
                "duration": 0.2,
                "tempo": 120.0
            },
            {
                "start_time": 37.3522727,
                "end_time": 37.5363636,
                "pitch": 47,
                "velocity": 32,
                "duration": 0.1840909,
                "tempo": 120.0
            },
            {
                "start_time": 37.5522727,
                "end_time": 37.7522727,
                "pitch": 47,
                "velocity": 32,
                "duration": 0.2,
                "tempo": 120.0
            },
            {
                "start_time": 37.7704545,
                "end_time": 37.9522727,
                "pitch": 47,
                "velocity": 32,
                "duration": 0.1818182,
                "tempo": 120.0
            },
            {
                "start_time": 37.9704545,
                "end_time": 38.1590909,
                "pitch": 47,
                "velocity": 32,
                "duration": 0.1886364,
                "tempo": 120.0
            },
            {
                "start_time": 38.175,
                "end_time": 38.3818182,
                "pitch": 47,
                "velocity": 32,
                "duration": 0.2068182,
                "tempo": 120.0
            },
            {
                "start_time": 38.4,
                "end_time": 38.5818182,
                "pitch": 47,
                "velocity": 32,
                "duration": 0.1818182,
                "tempo": 120.0
            },
            {
                "start_time": 38.6,
                "end_time": 38.7840909,
                "pitch": 47,
                "velocity": 32,
                "duration": 0.1840909,
                "tempo": 120.0
            },
            {
                "start_time": 38.8,
                "end_time": 39.0,
                "pitch": 47,
                "velocity": 32,
                "duration": 0.2,
                "tempo": 120.0
            },
            {
                "start_time": 39.0181818,
                "end_time": 39.2,
                "pitch": 47,
                "velocity": 32,
                "duration": 0.1818182,
                "tempo": 120.0
            },
            {
                "start_time": 39.2181818,
                "end_time": 39.4181818,
                "pitch": 47,
                "velocity": 32,
                "duration": 0.2,
                "tempo": 120.0
            },
            {
                "start_time": 39.4340909,
                "end_time": 39.6181818,
                "pitch": 44,
                "velocity": 32,
                "duration": 0.1840909,
                "tempo": 120.0
            },
            {
                "start_time": 39.6363636,
                "end_time": 39.8181818,
                "pitch": 45,
                "velocity": 32,
                "duration": 0.1818182,
                "tempo": 120.0
            },
            {
                "start_time": 39.8363636,
                "end_time": 40.0363636,
                "pitch": 46,
                "velocity": 32,
                "duration": 0.2,
                "tempo": 120.0
            },
            {
                "start_time": 40.0522727,
                "end_time": 40.2454545,
                "pitch": 47,
                "velocity": 32,
                "duration": 0.1931818,
                "tempo": 120.0
            },
            {
                "start_time": 40.2636364,
                "end_time": 40.4727273,
                "pitch": 47,
                "velocity": 32,
                "duration": 0.2090909,
                "tempo": 120.0
            },
            {
                "start_time": 40.4909091,
                "end_time": 40.675,
                "pitch": 47,
                "velocity": 32,
                "duration": 0.1840909,
                "tempo": 120.0
            },
            {
                "start_time": 40.6909091,
                "end_time": 40.875,
                "pitch": 47,
                "velocity": 32,
                "duration": 0.1840909,
                "tempo": 120.0
            },
            {
                "start_time": 40.8931818,
                "end_time": 41.0886364,
                "pitch": 47,
                "velocity": 32,
                "duration": 0.1954545,
                "tempo": 120.0
            },
            {
                "start_time": 41.1045455,
                "end_time": 41.2818182,
                "pitch": 47,
                "velocity": 32,
                "duration": 0.1772727,
                "tempo": 120.0
            },
            {
                "start_time": 41.3,
                "end_time": 41.4863636,
                "pitch": 47,
                "velocity": 32,
                "duration": 0.1863636,
                "tempo": 120.0
            },
            {
                "start_time": 41.5227273,
                "end_time": 41.7113636,
                "pitch": 47,
                "velocity": 32,
                "duration": 0.1886364,
                "tempo": 120.0
            },
            {
                "start_time": 41.7272727,
                "end_time": 41.9113636,
                "pitch": 47,
                "velocity": 32,
                "duration": 0.1840909,
                "tempo": 120.0
            },
            {
                "start_time": 41.9295455,
                "end_time": 42.1295455,
                "pitch": 47,
                "velocity": 32,
                "duration": 0.2,
                "tempo": 120.0
            },
            {
                "start_time": 42.1454545,
                "end_time": 42.3340909,
                "pitch": 47,
                "velocity": 32,
                "duration": 0.1886364,
                "tempo": 120.0
            },
            {
                "start_time": 42.3522727,
                "end_time": 42.5409091,
                "pitch": 47,
                "velocity": 32,
                "duration": 0.1886364,
                "tempo": 120.0
            },
            {
                "start_time": 42.5568182,
                "end_time": 42.7522727,
                "pitch": 47,
                "velocity": 32,
                "duration": 0.1954545,
                "tempo": 120.0
            },
            {
                "start_time": 42.7704545,
                "end_time": 42.9477273,
                "pitch": 47,
                "velocity": 32,
                "duration": 0.1772727,
                "tempo": 120.0
            },
            {
                "start_time": 42.9636364,
                "end_time": 43.1659091,
                "pitch": 45,
                "velocity": 32,
                "duration": 0.2022727,
                "tempo": 120.0
            },
            {
                "start_time": 43.1818182,
                "end_time": 43.3659091,
                "pitch": 46,
                "velocity": 32,
                "duration": 0.1840909,
                "tempo": 120.0
            },
            {
                "start_time": 43.3818182,
                "end_time": 43.5704545,
                "pitch": 47,
                "velocity": 32,
                "duration": 0.1886364,
                "tempo": 120.0
            },
            {
                "start_time": 43.5886364,
                "end_time": 43.7954545,
                "pitch": 47,
                "velocity": 32,
                "duration": 0.2068182,
                "tempo": 120.0
            },
            {
                "start_time": 43.8113636,
                "end_time": 44.0,
                "pitch": 47,
                "velocity": 32,
                "duration": 0.1886364,
                "tempo": 120.0
            },
            {
                "start_time": 44.0181818,
                "end_time": 44.2227273,
                "pitch": 47,
                "velocity": 32,
                "duration": 0.2045455,
                "tempo": 120.0
            },
            {
                "start_time": 44.2409091,
                "end_time": 44.4295455,
                "pitch": 47,
                "velocity": 32,
                "duration": 0.1886364,
                "tempo": 120.0
            },
            {
                "start_time": 44.4477273,
                "end_time": 44.6363636,
                "pitch": 47,
                "velocity": 32,
                "duration": 0.1886364,
                "tempo": 120.0
            },
            {
                "start_time": 44.6522727,
                "end_time": 44.85,
                "pitch": 47,
                "velocity": 32,
                "duration": 0.1977273,
                "tempo": 120.0
            },
            {
                "start_time": 44.8659091,
                "end_time": 45.0431818,
                "pitch": 47,
                "velocity": 32,
                "duration": 0.1772727,
                "tempo": 120.0
            },
            {
                "start_time": 45.0613636,
                "end_time": 45.2431818,
                "pitch": 47,
                "velocity": 32,
                "duration": 0.1818182,
                "tempo": 120.0
            },
            {
                "start_time": 45.2613636,
                "end_time": 45.4613636,
                "pitch": 47,
                "velocity": 32,
                "duration": 0.2,
                "tempo": 120.0
            },
            {
                "start_time": 45.4772727,
                "end_time": 45.6659091,
                "pitch": 47,
                "velocity": 32,
                "duration": 0.1886364,
                "tempo": 120.0
            },
            {
                "start_time": 45.6840909,
                "end_time": 45.8909091,
                "pitch": 47,
                "velocity": 32,
                "duration": 0.2068182,
                "tempo": 120.0
            },
            {
                "start_time": 45.9068182,
                "end_time": 46.0909091,
                "pitch": 47,
                "velocity": 32,
                "duration": 0.1840909,
                "tempo": 120.0
            },
            {
                "start_time": 46.1068182,
                "end_time": 46.2909091,
                "pitch": 44,
                "velocity": 32,
                "duration": 0.1840909,
                "tempo": 120.0
            },
            {
                "start_time": 46.3090909,
                "end_time": 46.5045455,
                "pitch": 45,
                "velocity": 32,
                "duration": 0.1954545,
                "tempo": 120.0
            },
            {
                "start_time": 46.5204545,
                "end_time": 46.6977273,
                "pitch": 46,
                "velocity": 32,
                "duration": 0.1772727,
                "tempo": 120.0
            },
            {
                "start_time": 46.7318182,
                "end_time": 48.375,
                "pitch": 62,
                "velocity": 32,
                "duration": 1.6431818,
                "tempo": 120.0
            },
            {
                "start_time": 48.3909091,
                "end_time": 50.0409091,
                "pitch": 66,
                "velocity": 32,
                "duration": 1.65,
                "tempo": 120.0
            },
            {
                "start_time": 50.0568182,
                "end_time": 51.7068182,
                "pitch": 67,
                "velocity": 32,
                "duration": 1.65,
                "tempo": 120.0
            },
            {
                "start_time": 51.7227273,
                "end_time": 52.3409091,
                "pitch": 70,
                "velocity": 32,
                "duration": 0.6181818,
                "tempo": 120.0
            },
            {
                "start_time": 52.3568182,
                "end_time": 53.4,
                "pitch": 70,
                "velocity": 32,
                "duration": 1.0431818,
                "tempo": 120.0
            },
            {
                "start_time": 53.4159091,
                "end_time": 55.0681818,
                "pitch": 74,
                "velocity": 32,
                "duration": 1.6522727,
                "tempo": 120.0
            },
            {
                "start_time": 55.0863636,
                "end_time": 56.7363636,
                "pitch": 66,
                "velocity": 32,
                "duration": 1.65,
                "tempo": 120.0
            },
            {
                "start_time": 56.7522727,
                "end_time": 57.9727273,
                "pitch": 70,
                "velocity": 32,
                "duration": 1.2204545,
                "tempo": 120.0
            },
            {
                "start_time": 57.9886364,
                "end_time": 58.4022727,
                "pitch": 73,
                "velocity": 32,
                "duration": 0.4136364,
                "tempo": 120.0
            },
            {
                "start_time": 58.4181818,
                "end_time": 59.4454545,
                "pitch": 74,
                "velocity": 32,
                "duration": 1.0272727,
                "tempo": 120.0
            },
            {
                "start_time": 59.4613636,
                "end_time": 59.6386364,
                "pitch": 74,
                "velocity": 32,
                "duration": 0.1772727,
                "tempo": 120.0
            },
            {
                "start_time": 59.6568182,
                "end_time": 59.8613636,
                "pitch": 73,
                "velocity": 32,
                "duration": 0.2045455,
                "tempo": 120.0
            },
            {
                "start_time": 59.8795455,
                "end_time": 60.0681818,
                "pitch": 73,
                "velocity": 32,
                "duration": 0.1886364,
                "tempo": 120.0
            },
            {
                "start_time": 60.1022727,
                "end_time": 60.2727273,
                "pitch": 47,
                "velocity": 32,
                "duration": 0.1704545,
                "tempo": 120.0
            }
        ],
        "Synth Bass 1": [
            {
                "start_time": 0.0318182,
                "end_time": 0.0477273,
                "pitch": 81,
                "velocity": 51,
                "duration": 0.0159091,
                "tempo": 120.0
            },
            {
                "start_time": 0.0659091,
                "end_time": 0.1954545,
                "pitch": 47,
                "velocity": 51,
                "duration": 0.1295455,
                "tempo": 120.0
            },
            {
                "start_time": 0.1954545,
                "end_time": 0.2431818,
                "pitch": 47,
                "velocity": 51,
                "duration": 0.0477273,
                "tempo": 120.0
            },
            {
                "start_time": 0.2590909,
                "end_time": 0.4409091,
                "pitch": 47,
                "velocity": 51,
                "duration": 0.1818182,
                "tempo": 120.0
            },
            {
                "start_time": 0.4568182,
                "end_time": 0.6568182,
                "pitch": 47,
                "velocity": 51,
                "duration": 0.2,
                "tempo": 120.0
            },
            {
                "start_time": 0.675,
                "end_time": 0.8590909,
                "pitch": 47,
                "velocity": 51,
                "duration": 0.1840909,
                "tempo": 120.0
            },
            {
                "start_time": 0.875,
                "end_time": 1.0818182,
                "pitch": 47,
                "velocity": 51,
                "duration": 0.2068182,
                "tempo": 120.0
            },
            {
                "start_time": 1.1,
                "end_time": 1.2886364,
                "pitch": 47,
                "velocity": 51,
                "duration": 0.1886364,
                "tempo": 120.0
            },
            {
                "start_time": 1.3045455,
                "end_time": 1.4954545,
                "pitch": 47,
                "velocity": 51,
                "duration": 0.1909091,
                "tempo": 120.0
            },
            {
                "start_time": 1.5113636,
                "end_time": 1.7159091,
                "pitch": 47,
                "velocity": 51,
                "duration": 0.2045455,
                "tempo": 120.0
            },
            {
                "start_time": 1.7340909,
                "end_time": 1.9159091,
                "pitch": 47,
                "velocity": 51,
                "duration": 0.1818182,
                "tempo": 120.0
            },
            {
                "start_time": 1.9340909,
                "end_time": 2.1159091,
                "pitch": 47,
                "velocity": 51,
                "duration": 0.1818182,
                "tempo": 120.0
            },
            {
                "start_time": 2.1340909,
                "end_time": 2.3295455,
                "pitch": 47,
                "velocity": 51,
                "duration": 0.1954545,
                "tempo": 120.0
            },
            {
                "start_time": 2.3454545,
                "end_time": 2.5272727,
                "pitch": 47,
                "velocity": 51,
                "duration": 0.1818182,
                "tempo": 120.0
            },
            {
                "start_time": 2.5454545,
                "end_time": 2.75,
                "pitch": 47,
                "velocity": 51,
                "duration": 0.2045455,
                "tempo": 120.0
            },
            {
                "start_time": 2.7681818,
                "end_time": 2.9568182,
                "pitch": 47,
                "velocity": 51,
                "duration": 0.1886364,
                "tempo": 120.0
            },
            {
                "start_time": 2.9727273,
                "end_time": 3.1568182,
                "pitch": 45,
                "velocity": 51,
                "duration": 0.1840909,
                "tempo": 120.0
            },
            {
                "start_time": 3.1727273,
                "end_time": 3.375,
                "pitch": 46,
                "velocity": 51,
                "duration": 0.2022727,
                "tempo": 120.0
            },
            {
                "start_time": 3.3909091,
                "end_time": 3.5818182,
                "pitch": 47,
                "velocity": 51,
                "duration": 0.1909091,
                "tempo": 120.0
            },
            {
                "start_time": 3.5977273,
                "end_time": 3.8,
                "pitch": 47,
                "velocity": 51,
                "duration": 0.2022727,
                "tempo": 120.0
            },
            {
                "start_time": 3.8181818,
                "end_time": 3.9954545,
                "pitch": 47,
                "velocity": 51,
                "duration": 0.1772727,
                "tempo": 120.0
            },
            {
                "start_time": 4.0113636,
                "end_time": 4.1931818,
                "pitch": 47,
                "velocity": 51,
                "duration": 0.1818182,
                "tempo": 120.0
            },
            {
                "start_time": 4.2113636,
                "end_time": 4.4159091,
                "pitch": 47,
                "velocity": 51,
                "duration": 0.2045455,
                "tempo": 120.0
            },
            {
                "start_time": 4.4340909,
                "end_time": 4.6227273,
                "pitch": 47,
                "velocity": 51,
                "duration": 0.1886364,
                "tempo": 120.0
            },
            {
                "start_time": 4.6409091,
                "end_time": 4.8295455,
                "pitch": 47,
                "velocity": 51,
                "duration": 0.1886364,
                "tempo": 120.0
            },
            {
                "start_time": 4.8636364,
                "end_time": 5.05,
                "pitch": 47,
                "velocity": 51,
                "duration": 0.1863636,
                "tempo": 120.0
            },
            {
                "start_time": 5.0681818,
                "end_time": 5.2522727,
                "pitch": 47,
                "velocity": 51,
                "duration": 0.1840909,
                "tempo": 120.0
            },
            {
                "start_time": 5.2681818,
                "end_time": 5.4704545,
                "pitch": 47,
                "velocity": 51,
                "duration": 0.2022727,
                "tempo": 120.0
            },
            {
                "start_time": 5.4863636,
                "end_time": 5.675,
                "pitch": 47,
                "velocity": 51,
                "duration": 0.1886364,
                "tempo": 120.0
            },
            {
                "start_time": 5.6931818,
                "end_time": 5.8795455,
                "pitch": 47,
                "velocity": 51,
                "duration": 0.1863636,
                "tempo": 120.0
            },
            {
                "start_time": 5.8977273,
                "end_time": 6.0931818,
                "pitch": 47,
                "velocity": 51,
                "duration": 0.1954545,
                "tempo": 120.0
            },
            {
                "start_time": 6.1090909,
                "end_time": 6.2909091,
                "pitch": 44,
                "velocity": 51,
                "duration": 0.1818182,
                "tempo": 120.0
            },
            {
                "start_time": 6.3068182,
                "end_time": 6.5068182,
                "pitch": 45,
                "velocity": 51,
                "duration": 0.2,
                "tempo": 120.0
            },
            {
                "start_time": 6.525,
                "end_time": 6.7090909,
                "pitch": 46,
                "velocity": 51,
                "duration": 0.1840909,
                "tempo": 120.0
            },
            {
                "start_time": 6.7272727,
                "end_time": 6.9159091,
                "pitch": 47,
                "velocity": 51,
                "duration": 0.1886364,
                "tempo": 120.0
            },
            {
                "start_time": 6.9318182,
                "end_time": 7.1386364,
                "pitch": 47,
                "velocity": 51,
                "duration": 0.2068182,
                "tempo": 120.0
            },
            {
                "start_time": 7.1568182,
                "end_time": 7.3454545,
                "pitch": 47,
                "velocity": 51,
                "duration": 0.1886364,
                "tempo": 120.0
            },
            {
                "start_time": 7.3613636,
                "end_time": 7.5659091,
                "pitch": 47,
                "velocity": 51,
                "duration": 0.2045455,
                "tempo": 120.0
            },
            {
                "start_time": 7.5818182,
                "end_time": 7.7590909,
                "pitch": 47,
                "velocity": 51,
                "duration": 0.1772727,
                "tempo": 120.0
            },
            {
                "start_time": 7.7772727,
                "end_time": 7.9568182,
                "pitch": 47,
                "velocity": 51,
                "duration": 0.1795455,
                "tempo": 120.0
            },
            {
                "start_time": 7.975,
                "end_time": 8.1795455,
                "pitch": 47,
                "velocity": 51,
                "duration": 0.2045455,
                "tempo": 120.0
            },
            {
                "start_time": 8.1977273,
                "end_time": 8.3863636,
                "pitch": 47,
                "velocity": 51,
                "duration": 0.1886364,
                "tempo": 120.0
            },
            {
                "start_time": 8.4022727,
                "end_time": 8.5863636,
                "pitch": 47,
                "velocity": 51,
                "duration": 0.1840909,
                "tempo": 120.0
            },
            {
                "start_time": 8.6022727,
                "end_time": 8.8045455,
                "pitch": 47,
                "velocity": 51,
                "duration": 0.2022727,
                "tempo": 120.0
            },
            {
                "start_time": 8.8204545,
                "end_time": 9.0113636,
                "pitch": 47,
                "velocity": 51,
                "duration": 0.1909091,
                "tempo": 120.0
            },
            {
                "start_time": 9.0272727,
                "end_time": 9.2318182,
                "pitch": 47,
                "velocity": 51,
                "duration": 0.2045455,
                "tempo": 120.0
            },
            {
                "start_time": 9.25,
                "end_time": 9.4318182,
                "pitch": 47,
                "velocity": 51,
                "duration": 0.1818182,
                "tempo": 120.0
            },
            {
                "start_time": 9.45,
                "end_time": 9.6318182,
                "pitch": 47,
                "velocity": 51,
                "duration": 0.1818182,
                "tempo": 120.0
            },
            {
                "start_time": 9.6477273,
                "end_time": 9.8454545,
                "pitch": 45,
                "velocity": 51,
                "duration": 0.1977273,
                "tempo": 120.0
            },
            {
                "start_time": 9.8613636,
                "end_time": 10.0431818,
                "pitch": 46,
                "velocity": 51,
                "duration": 0.1818182,
                "tempo": 120.0
            },
            {
                "start_time": 10.0613636,
                "end_time": 10.2659091,
                "pitch": 47,
                "velocity": 51,
                "duration": 0.2045455,
                "tempo": 120.0
            },
            {
                "start_time": 10.2840909,
                "end_time": 10.4727273,
                "pitch": 47,
                "velocity": 51,
                "duration": 0.1886364,
                "tempo": 120.0
            },
            {
                "start_time": 10.4909091,
                "end_time": 10.6795455,
                "pitch": 47,
                "velocity": 51,
                "duration": 0.1886364,
                "tempo": 120.0
            },
            {
                "start_time": 10.6954545,
                "end_time": 10.9022727,
                "pitch": 47,
                "velocity": 51,
                "duration": 0.2068182,
                "tempo": 120.0
            },
            {
                "start_time": 10.9181818,
                "end_time": 11.1022727,
                "pitch": 47,
                "velocity": 51,
                "duration": 0.1840909,
                "tempo": 120.0
            },
            {
                "start_time": 11.1181818,
                "end_time": 11.3022727,
                "pitch": 47,
                "velocity": 51,
                "duration": 0.1840909,
                "tempo": 120.0
            },
            {
                "start_time": 11.3363636,
                "end_time": 11.5204545,
                "pitch": 47,
                "velocity": 51,
                "duration": 0.1840909,
                "tempo": 120.0
            },
            {
                "start_time": 11.5363636,
                "end_time": 11.7204545,
                "pitch": 47,
                "velocity": 51,
                "duration": 0.1840909,
                "tempo": 120.0
            },
            {
                "start_time": 11.7363636,
                "end_time": 11.9363636,
                "pitch": 47,
                "velocity": 51,
                "duration": 0.2,
                "tempo": 120.0
            },
            {
                "start_time": 11.9545455,
                "end_time": 12.1386364,
                "pitch": 47,
                "velocity": 51,
                "duration": 0.1840909,
                "tempo": 120.0
            },
            {
                "start_time": 12.1568182,
                "end_time": 12.3454545,
                "pitch": 47,
                "velocity": 51,
                "duration": 0.1886364,
                "tempo": 120.0
            },
            {
                "start_time": 12.3613636,
                "end_time": 12.5659091,
                "pitch": 47,
                "velocity": 51,
                "duration": 0.2045455,
                "tempo": 120.0
            },
            {
                "start_time": 12.5840909,
                "end_time": 12.7681818,
                "pitch": 47,
                "velocity": 51,
                "duration": 0.1840909,
                "tempo": 120.0
            },
            {
                "start_time": 12.7840909,
                "end_time": 12.9818182,
                "pitch": 44,
                "velocity": 51,
                "duration": 0.1977273,
                "tempo": 120.0
            },
            {
                "start_time": 13.0,
                "end_time": 13.1772727,
                "pitch": 45,
                "velocity": 51,
                "duration": 0.1772727,
                "tempo": 120.0
            },
            {
                "start_time": 13.1931818,
                "end_time": 13.375,
                "pitch": 46,
                "velocity": 51,
                "duration": 0.1818182,
                "tempo": 120.0
            },
            {
                "start_time": 13.3931818,
                "end_time": 13.5977273,
                "pitch": 59,
                "velocity": 51,
                "duration": 0.2045455,
                "tempo": 120.0
            },
            {
                "start_time": 13.6159091,
                "end_time": 13.8045455,
                "pitch": 59,
                "velocity": 51,
                "duration": 0.1886364,
                "tempo": 120.0
            },
            {
                "start_time": 13.8227273,
                "end_time": 14.0272727,
                "pitch": 59,
                "velocity": 51,
                "duration": 0.2045455,
                "tempo": 120.0
            },
            {
                "start_time": 14.0454545,
                "end_time": 14.2340909,
                "pitch": 59,
                "velocity": 51,
                "duration": 0.1886364,
                "tempo": 120.0
            },
            {
                "start_time": 14.25,
                "end_time": 14.4340909,
                "pitch": 59,
                "velocity": 51,
                "duration": 0.1840909,
                "tempo": 120.0
            },
            {
                "start_time": 14.45,
                "end_time": 14.6522727,
                "pitch": 59,
                "velocity": 51,
                "duration": 0.2022727,
                "tempo": 120.0
            },
            {
                "start_time": 14.6681818,
                "end_time": 14.8568182,
                "pitch": 59,
                "velocity": 51,
                "duration": 0.1886364,
                "tempo": 120.0
            },
            {
                "start_time": 14.875,
                "end_time": 15.0613636,
                "pitch": 59,
                "velocity": 51,
                "duration": 0.1863636,
                "tempo": 120.0
            },
            {
                "start_time": 15.0772727,
                "end_time": 15.2727273,
                "pitch": 62,
                "velocity": 51,
                "duration": 0.1954545,
                "tempo": 120.0
            },
            {
                "start_time": 15.2886364,
                "end_time": 15.4704545,
                "pitch": 62,
                "velocity": 51,
                "duration": 0.1818182,
                "tempo": 120.0
            },
            {
                "start_time": 15.4886364,
                "end_time": 15.6931818,
                "pitch": 62,
                "velocity": 51,
                "duration": 0.2045455,
                "tempo": 120.0
            },
            {
                "start_time": 15.7113636,
                "end_time": 15.8977273,
                "pitch": 62,
                "velocity": 51,
                "duration": 0.1863636,
                "tempo": 120.0
            },
            {
                "start_time": 15.9159091,
                "end_time": 16.1,
                "pitch": 62,
                "velocity": 51,
                "duration": 0.1840909,
                "tempo": 120.0
            },
            {
                "start_time": 16.1159091,
                "end_time": 16.3181818,
                "pitch": 62,
                "velocity": 51,
                "duration": 0.2022727,
                "tempo": 120.0
            },
            {
                "start_time": 16.3340909,
                "end_time": 16.5227273,
                "pitch": 62,
                "velocity": 51,
                "duration": 0.1886364,
                "tempo": 120.0
            },
            {
                "start_time": 16.5409091,
                "end_time": 16.7431818,
                "pitch": 62,
                "velocity": 51,
                "duration": 0.2022727,
                "tempo": 120.0
            },
            {
                "start_time": 16.7613636,
                "end_time": 16.9409091,
                "pitch": 64,
                "velocity": 51,
                "duration": 0.1795455,
                "tempo": 120.0
            },
            {
                "start_time": 16.9568182,
                "end_time": 17.1386364,
                "pitch": 64,
                "velocity": 51,
                "duration": 0.1818182,
                "tempo": 120.0
            },
            {
                "start_time": 17.1568182,
                "end_time": 17.3613636,
                "pitch": 64,
                "velocity": 51,
                "duration": 0.2045455,
                "tempo": 120.0
            },
            {
                "start_time": 17.3795455,
                "end_time": 17.5659091,
                "pitch": 64,
                "velocity": 51,
                "duration": 0.1863636,
                "tempo": 120.0
            },
            {
                "start_time": 17.5840909,
                "end_time": 17.7681818,
                "pitch": 64,
                "velocity": 51,
                "duration": 0.1840909,
                "tempo": 120.0
            },
            {
                "start_time": 17.8,
                "end_time": 17.9863636,
                "pitch": 64,
                "velocity": 51,
                "duration": 0.1863636,
                "tempo": 120.0
            },
            {
                "start_time": 18.0022727,
                "end_time": 18.1909091,
                "pitch": 64,
                "velocity": 51,
                "duration": 0.1886364,
                "tempo": 120.0
            },
            {
                "start_time": 18.2090909,
                "end_time": 18.4136364,
                "pitch": 64,
                "velocity": 51,
                "duration": 0.2045455,
                "tempo": 120.0
            },
            {
                "start_time": 18.4295455,
                "end_time": 18.8136364,
                "pitch": 65,
                "velocity": 51,
                "duration": 0.3840909,
                "tempo": 120.0
            },
            {
                "start_time": 18.8295455,
                "end_time": 19.025,
                "pitch": 65,
                "velocity": 51,
                "duration": 0.1954545,
                "tempo": 120.0
            },
            {
                "start_time": 19.0409091,
                "end_time": 19.4386364,
                "pitch": 66,
                "velocity": 51,
                "duration": 0.3977273,
                "tempo": 120.0
            },
            {
                "start_time": 19.4545455,
                "end_time": 19.6409091,
                "pitch": 66,
                "velocity": 51,
                "duration": 0.1863636,
                "tempo": 120.0
            },
            {
                "start_time": 19.6568182,
                "end_time": 20.0704545,
                "pitch": 66,
                "velocity": 51,
                "duration": 0.4136364,
                "tempo": 120.0
            },
            {
                "start_time": 20.0863636,
                "end_time": 20.4954545,
                "pitch": 71,
                "velocity": 51,
                "duration": 0.4090909,
                "tempo": 120.0
            },
            {
                "start_time": 20.5113636,
                "end_time": 20.6909091,
                "pitch": 71,
                "velocity": 51,
                "duration": 0.1795455,
                "tempo": 120.0
            },
            {
                "start_time": 20.7068182,
                "end_time": 20.8886364,
                "pitch": 71,
                "velocity": 51,
                "duration": 0.1818182,
                "tempo": 120.0
            },
            {
                "start_time": 20.9045455,
                "end_time": 21.1045455,
                "pitch": 71,
                "velocity": 51,
                "duration": 0.2,
                "tempo": 120.0
            },
            {
                "start_time": 21.1204545,
                "end_time": 21.3068182,
                "pitch": 71,
                "velocity": 51,
                "duration": 0.1863636,
                "tempo": 120.0
            },
            {
                "start_time": 21.325,
                "end_time": 21.5136364,
                "pitch": 71,
                "velocity": 51,
                "duration": 0.1886364,
                "tempo": 120.0
            },
            {
                "start_time": 21.5295455,
                "end_time": 21.9340909,
                "pitch": 74,
                "velocity": 51,
                "duration": 0.4045455,
                "tempo": 120.0
            },
            {
                "start_time": 21.9522727,
                "end_time": 22.3590909,
                "pitch": 74,
                "velocity": 51,
                "duration": 0.4068182,
                "tempo": 120.0
            },
            {
                "start_time": 22.3772727,
                "end_time": 22.5636364,
                "pitch": 74,
                "velocity": 51,
                "duration": 0.1863636,
                "tempo": 120.0
            },
            {
                "start_time": 22.5795455,
                "end_time": 22.7772727,
                "pitch": 74,
                "velocity": 51,
                "duration": 0.1977273,
                "tempo": 120.0
            },
            {
                "start_time": 22.7931818,
                "end_time": 22.975,
                "pitch": 74,
                "velocity": 51,
                "duration": 0.1818182,
                "tempo": 120.0
            },
            {
                "start_time": 22.9931818,
                "end_time": 23.4045455,
                "pitch": 74,
                "velocity": 51,
                "duration": 0.4113636,
                "tempo": 120.0
            },
            {
                "start_time": 23.4227273,
                "end_time": 23.8318182,
                "pitch": 76,
                "velocity": 51,
                "duration": 0.4090909,
                "tempo": 120.0
            },
            {
                "start_time": 23.85,
                "end_time": 24.0318182,
                "pitch": 76,
                "velocity": 51,
                "duration": 0.1818182,
                "tempo": 120.0
            },
            {
                "start_time": 24.05,
                "end_time": 24.2318182,
                "pitch": 76,
                "velocity": 51,
                "duration": 0.1818182,
                "tempo": 120.0
            },
            {
                "start_time": 24.2636364,
                "end_time": 24.4431818,
                "pitch": 76,
                "velocity": 51,
                "duration": 0.1795455,
                "tempo": 120.0
            },
            {
                "start_time": 24.4590909,
                "end_time": 24.8636364,
                "pitch": 71,
                "velocity": 51,
                "duration": 0.4045455,
                "tempo": 120.0
            },
            {
                "start_time": 24.8818182,
                "end_time": 25.0704545,
                "pitch": 71,
                "velocity": 51,
                "duration": 0.1886364,
                "tempo": 120.0
            },
            {
                "start_time": 26.7522727,
                "end_time": 27.1545455,
                "pitch": 71,
                "velocity": 51,
                "duration": 0.4022727,
                "tempo": 120.0
            },
            {
                "start_time": 27.1704545,
                "end_time": 27.3613636,
                "pitch": 71,
                "velocity": 51,
                "duration": 0.1909091,
                "tempo": 120.0
            },
            {
                "start_time": 27.3772727,
                "end_time": 27.5840909,
                "pitch": 71,
                "velocity": 51,
                "duration": 0.2068182,
                "tempo": 120.0
            },
            {
                "start_time": 27.6,
                "end_time": 27.7909091,
                "pitch": 71,
                "velocity": 51,
                "duration": 0.1909091,
                "tempo": 120.0
            },
            {
                "start_time": 27.8068182,
                "end_time": 27.9931818,
                "pitch": 66,
                "velocity": 51,
                "duration": 0.1863636,
                "tempo": 120.0
            },
            {
                "start_time": 28.0090909,
                "end_time": 28.2045455,
                "pitch": 69,
                "velocity": 51,
                "duration": 0.1954545,
                "tempo": 120.0
            },
            {
                "start_time": 28.2204545,
                "end_time": 28.6181818,
                "pitch": 71,
                "velocity": 51,
                "duration": 0.3977273,
                "tempo": 120.0
            },
            {
                "start_time": 28.6363636,
                "end_time": 29.0272727,
                "pitch": 71,
                "velocity": 51,
                "duration": 0.3909091,
                "tempo": 120.0
            },
            {
                "start_time": 29.0431818,
                "end_time": 29.25,
                "pitch": 71,
                "velocity": 51,
                "duration": 0.2068182,
                "tempo": 120.0
            },
            {
                "start_time": 29.2681818,
                "end_time": 29.6772727,
                "pitch": 66,
                "velocity": 51,
                "duration": 0.4090909,
                "tempo": 120.0
            },
            {
                "start_time": 29.6931818,
                "end_time": 30.0727273,
                "pitch": 66,
                "velocity": 51,
                "duration": 0.3795455,
                "tempo": 120.0
            },
            {
                "start_time": 30.0886364,
                "end_time": 30.5090909,
                "pitch": 64,
                "velocity": 51,
                "duration": 0.4204545,
                "tempo": 120.0
            },
            {
                "start_time": 30.525,
                "end_time": 30.7090909,
                "pitch": 66,
                "velocity": 51,
                "duration": 0.1840909,
                "tempo": 120.0
            },
            {
                "start_time": 30.7409091,
                "end_time": 30.925,
                "pitch": 64,
                "velocity": 51,
                "duration": 0.1840909,
                "tempo": 120.0
            },
            {
                "start_time": 30.9431818,
                "end_time": 31.1272727,
                "pitch": 66,
                "velocity": 51,
                "duration": 0.1840909,
                "tempo": 120.0
            },
            {
                "start_time": 31.1431818,
                "end_time": 31.55,
                "pitch": 62,
                "velocity": 51,
                "duration": 0.4068182,
                "tempo": 120.0
            },
            {
                "start_time": 31.5681818,
                "end_time": 31.9681818,
                "pitch": 59,
                "velocity": 51,
                "duration": 0.4,
                "tempo": 120.0
            },
            {
                "start_time": 31.9840909,
                "end_time": 32.1659091,
                "pitch": 59,
                "velocity": 51,
                "duration": 0.1818182,
                "tempo": 120.0
            },
            {
                "start_time": 32.1840909,
                "end_time": 32.3886364,
                "pitch": 59,
                "velocity": 51,
                "duration": 0.2045455,
                "tempo": 120.0
            },
            {
                "start_time": 32.4068182,
                "end_time": 32.5931818,
                "pitch": 59,
                "velocity": 51,
                "duration": 0.1863636,
                "tempo": 120.0
            },
            {
                "start_time": 32.6113636,
                "end_time": 32.7954545,
                "pitch": 59,
                "velocity": 51,
                "duration": 0.1840909,
                "tempo": 120.0
            },
            {
                "start_time": 32.8113636,
                "end_time": 33.0136364,
                "pitch": 59,
                "velocity": 51,
                "duration": 0.2022727,
                "tempo": 120.0
            },
            {
                "start_time": 33.0295455,
                "end_time": 33.2181818,
                "pitch": 59,
                "velocity": 51,
                "duration": 0.1886364,
                "tempo": 120.0
            },
            {
                "start_time": 33.2363636,
                "end_time": 33.4409091,
                "pitch": 59,
                "velocity": 51,
                "duration": 0.2045455,
                "tempo": 120.0
            },
            {
                "start_time": 33.4568182,
                "end_time": 33.6409091,
                "pitch": 47,
                "velocity": 51,
                "duration": 0.1840909,
                "tempo": 120.0
            },
            {
                "start_time": 33.6590909,
                "end_time": 33.8431818,
                "pitch": 47,
                "velocity": 51,
                "duration": 0.1840909,
                "tempo": 120.0
            },
            {
                "start_time": 33.8590909,
                "end_time": 34.0659091,
                "pitch": 47,
                "velocity": 51,
                "duration": 0.2068182,
                "tempo": 120.0
            },
            {
                "start_time": 34.0840909,
                "end_time": 34.2704545,
                "pitch": 47,
                "velocity": 51,
                "duration": 0.1863636,
                "tempo": 120.0
            },
            {
                "start_time": 34.2886364,
                "end_time": 34.4727273,
                "pitch": 47,
                "velocity": 51,
                "duration": 0.1840909,
                "tempo": 120.0
            },
            {
                "start_time": 34.4886364,
                "end_time": 34.6909091,
                "pitch": 47,
                "velocity": 51,
                "duration": 0.2022727,
                "tempo": 120.0
            },
            {
                "start_time": 34.7068182,
                "end_time": 34.8954545,
                "pitch": 47,
                "velocity": 51,
                "duration": 0.1886364,
                "tempo": 120.0
            },
            {
                "start_time": 34.9136364,
                "end_time": 35.1181818,
                "pitch": 47,
                "velocity": 51,
                "duration": 0.2045455,
                "tempo": 120.0
            },
            {
                "start_time": 35.1340909,
                "end_time": 35.3181818,
                "pitch": 47,
                "velocity": 51,
                "duration": 0.1840909,
                "tempo": 120.0
            },
            {
                "start_time": 35.3363636,
                "end_time": 35.5181818,
                "pitch": 47,
                "velocity": 51,
                "duration": 0.1818182,
                "tempo": 120.0
            },
            {
                "start_time": 35.5363636,
                "end_time": 35.7363636,
                "pitch": 47,
                "velocity": 51,
                "duration": 0.2,
                "tempo": 120.0
            },
            {
                "start_time": 35.7522727,
                "end_time": 35.9363636,
                "pitch": 47,
                "velocity": 51,
                "duration": 0.1840909,
                "tempo": 120.0
            },
            {
                "start_time": 35.9545455,
                "end_time": 36.1545455,
                "pitch": 47,
                "velocity": 51,
                "duration": 0.2,
                "tempo": 120.0
            },
            {
                "start_time": 36.1704545,
                "end_time": 36.3545455,
                "pitch": 47,
                "velocity": 51,
                "duration": 0.1840909,
                "tempo": 120.0
            },
            {
                "start_time": 36.3704545,
                "end_time": 36.5545455,
                "pitch": 45,
                "velocity": 51,
                "duration": 0.1840909,
                "tempo": 120.0
            },
            {
                "start_time": 36.5727273,
                "end_time": 36.7727273,
                "pitch": 46,
                "velocity": 51,
                "duration": 0.2,
                "tempo": 120.0
            },
            {
                "start_time": 36.7909091,
                "end_time": 36.9795455,
                "pitch": 47,
                "velocity": 51,
                "duration": 0.1886364,
                "tempo": 120.0
            },
            {
                "start_time": 36.9977273,
                "end_time": 37.1840909,
                "pitch": 47,
                "velocity": 51,
                "duration": 0.1863636,
                "tempo": 120.0
            },
            {
                "start_time": 37.2181818,
                "end_time": 37.4022727,
                "pitch": 47,
                "velocity": 51,
                "duration": 0.1840909,
                "tempo": 120.0
            },
            {
                "start_time": 37.4181818,
                "end_time": 37.6022727,
                "pitch": 47,
                "velocity": 51,
                "duration": 0.1840909,
                "tempo": 120.0
            },
            {
                "start_time": 37.6181818,
                "end_time": 37.8204545,
                "pitch": 47,
                "velocity": 51,
                "duration": 0.2022727,
                "tempo": 120.0
            },
            {
                "start_time": 37.8363636,
                "end_time": 38.0204545,
                "pitch": 47,
                "velocity": 51,
                "duration": 0.1840909,
                "tempo": 120.0
            },
            {
                "start_time": 38.0386364,
                "end_time": 38.2272727,
                "pitch": 47,
                "velocity": 51,
                "duration": 0.1886364,
                "tempo": 120.0
            },
            {
                "start_time": 38.2431818,
                "end_time": 38.45,
                "pitch": 47,
                "velocity": 51,
                "duration": 0.2068182,
                "tempo": 120.0
            },
            {
                "start_time": 38.4659091,
                "end_time": 38.65,
                "pitch": 47,
                "velocity": 51,
                "duration": 0.1840909,
                "tempo": 120.0
            },
            {
                "start_time": 38.6659091,
                "end_time": 38.8659091,
                "pitch": 47,
                "velocity": 51,
                "duration": 0.2,
                "tempo": 120.0
            },
            {
                "start_time": 38.8840909,
                "end_time": 39.0681818,
                "pitch": 47,
                "velocity": 51,
                "duration": 0.1840909,
                "tempo": 120.0
            },
            {
                "start_time": 39.0840909,
                "end_time": 39.2681818,
                "pitch": 47,
                "velocity": 51,
                "duration": 0.1840909,
                "tempo": 120.0
            },
            {
                "start_time": 39.2840909,
                "end_time": 39.4840909,
                "pitch": 47,
                "velocity": 51,
                "duration": 0.2,
                "tempo": 120.0
            },
            {
                "start_time": 39.5022727,
                "end_time": 39.6863636,
                "pitch": 44,
                "velocity": 51,
                "duration": 0.1840909,
                "tempo": 120.0
            },
            {
                "start_time": 39.7022727,
                "end_time": 39.9022727,
                "pitch": 45,
                "velocity": 51,
                "duration": 0.2,
                "tempo": 120.0
            },
            {
                "start_time": 39.9204545,
                "end_time": 40.1045455,
                "pitch": 46,
                "velocity": 51,
                "duration": 0.1840909,
                "tempo": 120.0
            },
            {
                "start_time": 40.1227273,
                "end_time": 40.3159091,
                "pitch": 47,
                "velocity": 51,
                "duration": 0.1931818,
                "tempo": 120.0
            },
            {
                "start_time": 40.3340909,
                "end_time": 40.5409091,
                "pitch": 47,
                "velocity": 51,
                "duration": 0.2068182,
                "tempo": 120.0
            },
            {
                "start_time": 40.5590909,
                "end_time": 40.7409091,
                "pitch": 47,
                "velocity": 51,
                "duration": 0.1818182,
                "tempo": 120.0
            },
            {
                "start_time": 40.7590909,
                "end_time": 40.9409091,
                "pitch": 47,
                "velocity": 51,
                "duration": 0.1818182,
                "tempo": 120.0
            },
            {
                "start_time": 40.9568182,
                "end_time": 41.1522727,
                "pitch": 47,
                "velocity": 51,
                "duration": 0.1954545,
                "tempo": 120.0
            },
            {
                "start_time": 41.1681818,
                "end_time": 41.35,
                "pitch": 47,
                "velocity": 51,
                "duration": 0.1818182,
                "tempo": 120.0
            },
            {
                "start_time": 41.3681818,
                "end_time": 41.5727273,
                "pitch": 47,
                "velocity": 51,
                "duration": 0.2045455,
                "tempo": 120.0
            },
            {
                "start_time": 41.5909091,
                "end_time": 41.7772727,
                "pitch": 47,
                "velocity": 51,
                "duration": 0.1863636,
                "tempo": 120.0
            },
            {
                "start_time": 41.7954545,
                "end_time": 41.9795455,
                "pitch": 47,
                "velocity": 51,
                "duration": 0.1840909,
                "tempo": 120.0
            },
            {
                "start_time": 41.9954545,
                "end_time": 42.1977273,
                "pitch": 47,
                "velocity": 51,
                "duration": 0.2022727,
                "tempo": 120.0
            },
            {
                "start_time": 42.2136364,
                "end_time": 42.4022727,
                "pitch": 47,
                "velocity": 51,
                "duration": 0.1886364,
                "tempo": 120.0
            },
            {
                "start_time": 42.4204545,
                "end_time": 42.6227273,
                "pitch": 47,
                "velocity": 51,
                "duration": 0.2022727,
                "tempo": 120.0
            },
            {
                "start_time": 42.6386364,
                "end_time": 42.8181818,
                "pitch": 47,
                "velocity": 51,
                "duration": 0.1795455,
                "tempo": 120.0
            },
            {
                "start_time": 42.8340909,
                "end_time": 43.0159091,
                "pitch": 47,
                "velocity": 51,
                "duration": 0.1818182,
                "tempo": 120.0
            },
            {
                "start_time": 43.0318182,
                "end_time": 43.2318182,
                "pitch": 45,
                "velocity": 51,
                "duration": 0.2,
                "tempo": 120.0
            },
            {
                "start_time": 43.2477273,
                "end_time": 43.4340909,
                "pitch": 46,
                "velocity": 51,
                "duration": 0.1863636,
                "tempo": 120.0
            },
            {
                "start_time": 43.45,
                "end_time": 43.6409091,
                "pitch": 47,
                "velocity": 51,
                "duration": 0.1909091,
                "tempo": 120.0
            },
            {
                "start_time": 43.675,
                "end_time": 43.8636364,
                "pitch": 47,
                "velocity": 51,
                "duration": 0.1886364,
                "tempo": 120.0
            },
            {
                "start_time": 43.8795455,
                "end_time": 44.0681818,
                "pitch": 47,
                "velocity": 51,
                "duration": 0.1886364,
                "tempo": 120.0
            },
            {
                "start_time": 44.0863636,
                "end_time": 44.2931818,
                "pitch": 47,
                "velocity": 51,
                "duration": 0.2068182,
                "tempo": 120.0
            },
            {
                "start_time": 44.3090909,
                "end_time": 44.4977273,
                "pitch": 47,
                "velocity": 51,
                "duration": 0.1886364,
                "tempo": 120.0
            },
            {
                "start_time": 44.5159091,
                "end_time": 44.7022727,
                "pitch": 47,
                "velocity": 51,
                "duration": 0.1863636,
                "tempo": 120.0
            },
            {
                "start_time": 44.7181818,
                "end_time": 44.9136364,
                "pitch": 47,
                "velocity": 51,
                "duration": 0.1954545,
                "tempo": 120.0
            },
            {
                "start_time": 44.9295455,
                "end_time": 45.1113636,
                "pitch": 47,
                "velocity": 51,
                "duration": 0.1818182,
                "tempo": 120.0
            },
            {
                "start_time": 45.1272727,
                "end_time": 45.3272727,
                "pitch": 47,
                "velocity": 51,
                "duration": 0.2,
                "tempo": 120.0
            },
            {
                "start_time": 45.3454545,
                "end_time": 45.5295455,
                "pitch": 47,
                "velocity": 51,
                "duration": 0.1840909,
                "tempo": 120.0
            },
            {
                "start_time": 45.5454545,
                "end_time": 45.7363636,
                "pitch": 47,
                "velocity": 51,
                "duration": 0.1909091,
                "tempo": 120.0
            },
            {
                "start_time": 45.7522727,
                "end_time": 45.9568182,
                "pitch": 47,
                "velocity": 51,
                "duration": 0.2045455,
                "tempo": 120.0
            },
            {
                "start_time": 45.975,
                "end_time": 46.1568182,
                "pitch": 47,
                "velocity": 51,
                "duration": 0.1818182,
                "tempo": 120.0
            },
            {
                "start_time": 46.175,
                "end_time": 46.3727273,
                "pitch": 44,
                "velocity": 51,
                "duration": 0.1977273,
                "tempo": 120.0
            },
            {
                "start_time": 46.3886364,
                "end_time": 46.5681818,
                "pitch": 45,
                "velocity": 51,
                "duration": 0.1795455,
                "tempo": 120.0
            },
            {
                "start_time": 46.5840909,
                "end_time": 46.7659091,
                "pitch": 46,
                "velocity": 51,
                "duration": 0.1818182,
                "tempo": 120.0
            },
            {
                "start_time": 46.7840909,
                "end_time": 46.8681818,
                "pitch": 74,
                "velocity": 51,
                "duration": 0.0840909,
                "tempo": 120.0
            },
            {
                "start_time": 46.9022727,
                "end_time": 46.9886364,
                "pitch": 71,
                "velocity": 51,
                "duration": 0.0863636,
                "tempo": 120.0
            },
            {
                "start_time": 47.0068182,
                "end_time": 47.0931818,
                "pitch": 69,
                "velocity": 51,
                "duration": 0.0863636,
                "tempo": 120.0
            },
            {
                "start_time": 47.1090909,
                "end_time": 47.2931818,
                "pitch": 74,
                "velocity": 51,
                "duration": 0.1840909,
                "tempo": 120.0
            },
            {
                "start_time": 47.3113636,
                "end_time": 47.3954545,
                "pitch": 74,
                "velocity": 51,
                "duration": 0.0840909,
                "tempo": 120.0
            },
            {
                "start_time": 47.4113636,
                "end_time": 47.5113636,
                "pitch": 71,
                "velocity": 51,
                "duration": 0.1,
                "tempo": 120.0
            },
            {
                "start_time": 47.5272727,
                "end_time": 47.6136364,
                "pitch": 69,
                "velocity": 51,
                "duration": 0.0863636,
                "tempo": 120.0
            },
            {
                "start_time": 47.6295455,
                "end_time": 47.7159091,
                "pitch": 74,
                "velocity": 51,
                "duration": 0.0863636,
                "tempo": 120.0
            },
            {
                "start_time": 47.7340909,
                "end_time": 47.8181818,
                "pitch": 71,
                "velocity": 51,
                "duration": 0.0840909,
                "tempo": 120.0
            },
            {
                "start_time": 47.8363636,
                "end_time": 47.9227273,
                "pitch": 69,
                "velocity": 51,
                "duration": 0.0863636,
                "tempo": 120.0
            },
            {
                "start_time": 47.9386364,
                "end_time": 48.0409091,
                "pitch": 69,
                "velocity": 51,
                "duration": 0.1022727,
                "tempo": 120.0
            },
            {
                "start_time": 48.0568182,
                "end_time": 48.1409091,
                "pitch": 74,
                "velocity": 51,
                "duration": 0.0840909,
                "tempo": 120.0
            },
            {
                "start_time": 48.1568182,
                "end_time": 48.2409091,
                "pitch": 71,
                "velocity": 51,
                "duration": 0.0840909,
                "tempo": 120.0
            },
            {
                "start_time": 48.2590909,
                "end_time": 48.3409091,
                "pitch": 69,
                "velocity": 51,
                "duration": 0.0818182,
                "tempo": 120.0
            },
            {
                "start_time": 48.3590909,
                "end_time": 48.4409091,
                "pitch": 69,
                "velocity": 51,
                "duration": 0.0818182,
                "tempo": 120.0
            },
            {
                "start_time": 48.4590909,
                "end_time": 48.5590909,
                "pitch": 74,
                "velocity": 51,
                "duration": 0.1,
                "tempo": 120.0
            },
            {
                "start_time": 48.575,
                "end_time": 48.6590909,
                "pitch": 71,
                "velocity": 51,
                "duration": 0.0840909,
                "tempo": 120.0
            },
            {
                "start_time": 48.675,
                "end_time": 48.7590909,
                "pitch": 69,
                "velocity": 51,
                "duration": 0.0840909,
                "tempo": 120.0
            },
            {
                "start_time": 48.775,
                "end_time": 48.9590909,
                "pitch": 74,
                "velocity": 51,
                "duration": 0.1840909,
                "tempo": 120.0
            },
            {
                "start_time": 48.9772727,
                "end_time": 49.0772727,
                "pitch": 74,
                "velocity": 51,
                "duration": 0.1,
                "tempo": 120.0
            },
            {
                "start_time": 49.0931818,
                "end_time": 49.1772727,
                "pitch": 71,
                "velocity": 51,
                "duration": 0.0840909,
                "tempo": 120.0
            },
            {
                "start_time": 49.1931818,
                "end_time": 49.2795455,
                "pitch": 69,
                "velocity": 51,
                "duration": 0.0863636,
                "tempo": 120.0
            },
            {
                "start_time": 49.2954545,
                "end_time": 49.3818182,
                "pitch": 74,
                "velocity": 51,
                "duration": 0.0863636,
                "tempo": 120.0
            },
            {
                "start_time": 49.3977273,
                "end_time": 49.4840909,
                "pitch": 71,
                "velocity": 51,
                "duration": 0.0863636,
                "tempo": 120.0
            },
            {
                "start_time": 49.5022727,
                "end_time": 49.6045455,
                "pitch": 69,
                "velocity": 51,
                "duration": 0.1022727,
                "tempo": 120.0
            },
            {
                "start_time": 49.6227273,
                "end_time": 49.7068182,
                "pitch": 69,
                "velocity": 51,
                "duration": 0.0840909,
                "tempo": 120.0
            },
            {
                "start_time": 49.7227273,
                "end_time": 49.8068182,
                "pitch": 74,
                "velocity": 51,
                "duration": 0.0840909,
                "tempo": 120.0
            },
            {
                "start_time": 49.8227273,
                "end_time": 49.9068182,
                "pitch": 71,
                "velocity": 51,
                "duration": 0.0840909,
                "tempo": 120.0
            },
            {
                "start_time": 49.9227273,
                "end_time": 50.0068182,
                "pitch": 69,
                "velocity": 51,
                "duration": 0.0840909,
                "tempo": 120.0
            },
            {
                "start_time": 50.0227273,
                "end_time": 50.1068182,
                "pitch": 69,
                "velocity": 51,
                "duration": 0.0840909,
                "tempo": 120.0
            },
            {
                "start_time": 50.1409091,
                "end_time": 50.225,
                "pitch": 74,
                "velocity": 51,
                "duration": 0.0840909,
                "tempo": 120.0
            },
            {
                "start_time": 50.2409091,
                "end_time": 50.325,
                "pitch": 71,
                "velocity": 51,
                "duration": 0.0840909,
                "tempo": 120.0
            },
            {
                "start_time": 50.3409091,
                "end_time": 50.425,
                "pitch": 69,
                "velocity": 51,
                "duration": 0.0840909,
                "tempo": 120.0
            },
            {
                "start_time": 50.4409091,
                "end_time": 50.625,
                "pitch": 74,
                "velocity": 51,
                "duration": 0.1840909,
                "tempo": 120.0
            },
            {
                "start_time": 50.6409091,
                "end_time": 50.7431818,
                "pitch": 74,
                "velocity": 51,
                "duration": 0.1022727,
                "tempo": 120.0
            },
            {
                "start_time": 50.7590909,
                "end_time": 50.8431818,
                "pitch": 71,
                "velocity": 51,
                "duration": 0.0840909,
                "tempo": 120.0
            },
            {
                "start_time": 50.8590909,
                "end_time": 50.9431818,
                "pitch": 69,
                "velocity": 51,
                "duration": 0.0840909,
                "tempo": 120.0
            },
            {
                "start_time": 50.9613636,
                "end_time": 51.0477273,
                "pitch": 74,
                "velocity": 51,
                "duration": 0.0863636,
                "tempo": 120.0
            },
            {
                "start_time": 51.0636364,
                "end_time": 51.15,
                "pitch": 71,
                "velocity": 51,
                "duration": 0.0863636,
                "tempo": 120.0
            },
            {
                "start_time": 51.1681818,
                "end_time": 51.2704545,
                "pitch": 69,
                "velocity": 51,
                "duration": 0.1022727,
                "tempo": 120.0
            },
            {
                "start_time": 51.2886364,
                "end_time": 51.3727273,
                "pitch": 69,
                "velocity": 51,
                "duration": 0.0840909,
                "tempo": 120.0
            },
            {
                "start_time": 51.3886364,
                "end_time": 51.4727273,
                "pitch": 74,
                "velocity": 51,
                "duration": 0.0840909,
                "tempo": 120.0
            },
            {
                "start_time": 51.4886364,
                "end_time": 51.5727273,
                "pitch": 71,
                "velocity": 51,
                "duration": 0.0840909,
                "tempo": 120.0
            },
            {
                "start_time": 51.5886364,
                "end_time": 51.6727273,
                "pitch": 69,
                "velocity": 51,
                "duration": 0.0840909,
                "tempo": 120.0
            },
            {
                "start_time": 51.6886364,
                "end_time": 51.7886364,
                "pitch": 69,
                "velocity": 51,
                "duration": 0.1,
                "tempo": 120.0
            },
            {
                "start_time": 51.8068182,
                "end_time": 51.8909091,
                "pitch": 74,
                "velocity": 51,
                "duration": 0.0840909,
                "tempo": 120.0
            },
            {
                "start_time": 51.9068182,
                "end_time": 51.9909091,
                "pitch": 71,
                "velocity": 51,
                "duration": 0.0840909,
                "tempo": 120.0
            },
            {
                "start_time": 52.0068182,
                "end_time": 52.0909091,
                "pitch": 69,
                "velocity": 51,
                "duration": 0.0840909,
                "tempo": 120.0
            },
            {
                "start_time": 52.1068182,
                "end_time": 52.3068182,
                "pitch": 74,
                "velocity": 51,
                "duration": 0.2,
                "tempo": 120.0
            },
            {
                "start_time": 52.325,
                "end_time": 52.4068182,
                "pitch": 74,
                "velocity": 51,
                "duration": 0.0818182,
                "tempo": 120.0
            },
            {
                "start_time": 52.425,
                "end_time": 52.5090909,
                "pitch": 71,
                "velocity": 51,
                "duration": 0.0840909,
                "tempo": 120.0
            },
            {
                "start_time": 52.525,
                "end_time": 52.6090909,
                "pitch": 69,
                "velocity": 51,
                "duration": 0.0840909,
                "tempo": 120.0
            },
            {
                "start_time": 52.6272727,
                "end_time": 52.7136364,
                "pitch": 74,
                "velocity": 51,
                "duration": 0.0863636,
                "tempo": 120.0
            },
            {
                "start_time": 52.7295455,
                "end_time": 52.8318182,
                "pitch": 71,
                "velocity": 51,
                "duration": 0.1022727,
                "tempo": 120.0
            },
            {
                "start_time": 52.85,
                "end_time": 52.9363636,
                "pitch": 69,
                "velocity": 51,
                "duration": 0.0863636,
                "tempo": 120.0
            },
            {
                "start_time": 52.9522727,
                "end_time": 53.0386364,
                "pitch": 69,
                "velocity": 51,
                "duration": 0.0863636,
                "tempo": 120.0
            },
            {
                "start_time": 53.0568182,
                "end_time": 53.1409091,
                "pitch": 74,
                "velocity": 51,
                "duration": 0.0840909,
                "tempo": 120.0
            },
            {
                "start_time": 53.1590909,
                "end_time": 53.2454545,
                "pitch": 71,
                "velocity": 51,
                "duration": 0.0863636,
                "tempo": 120.0
            },
            {
                "start_time": 53.2613636,
                "end_time": 53.3477273,
                "pitch": 69,
                "velocity": 51,
                "duration": 0.0863636,
                "tempo": 120.0
            },
            {
                "start_time": 53.3818182,
                "end_time": 53.4681818,
                "pitch": 69,
                "velocity": 51,
                "duration": 0.0863636,
                "tempo": 120.0
            },
            {
                "start_time": 53.4863636,
                "end_time": 53.5704545,
                "pitch": 74,
                "velocity": 51,
                "duration": 0.0840909,
                "tempo": 120.0
            },
            {
                "start_time": 53.5886364,
                "end_time": 53.675,
                "pitch": 71,
                "velocity": 51,
                "duration": 0.0863636,
                "tempo": 120.0
            },
            {
                "start_time": 53.6909091,
                "end_time": 53.7772727,
                "pitch": 69,
                "velocity": 51,
                "duration": 0.0863636,
                "tempo": 120.0
            },
            {
                "start_time": 53.7954545,
                "end_time": 53.9886364,
                "pitch": 74,
                "velocity": 51,
                "duration": 0.1931818,
                "tempo": 120.0
            },
            {
                "start_time": 54.0045455,
                "end_time": 54.0840909,
                "pitch": 74,
                "velocity": 51,
                "duration": 0.0795455,
                "tempo": 120.0
            },
            {
                "start_time": 54.1,
                "end_time": 54.1795455,
                "pitch": 71,
                "velocity": 51,
                "duration": 0.0795455,
                "tempo": 120.0
            },
            {
                "start_time": 54.1954545,
                "end_time": 54.2795455,
                "pitch": 69,
                "velocity": 51,
                "duration": 0.0840909,
                "tempo": 120.0
            },
            {
                "start_time": 54.2954545,
                "end_time": 54.3818182,
                "pitch": 74,
                "velocity": 51,
                "duration": 0.0863636,
                "tempo": 120.0
            },
            {
                "start_time": 54.4,
                "end_time": 54.5022727,
                "pitch": 71,
                "velocity": 51,
                "duration": 0.1022727,
                "tempo": 120.0
            },
            {
                "start_time": 54.5204545,
                "end_time": 54.6045455,
                "pitch": 69,
                "velocity": 51,
                "duration": 0.0840909,
                "tempo": 120.0
            },
            {
                "start_time": 54.6227273,
                "end_time": 54.7090909,
                "pitch": 69,
                "velocity": 51,
                "duration": 0.0863636,
                "tempo": 120.0
            },
            {
                "start_time": 54.725,
                "end_time": 54.8113636,
                "pitch": 74,
                "velocity": 51,
                "duration": 0.0863636,
                "tempo": 120.0
            },
            {
                "start_time": 54.8295455,
                "end_time": 54.9136364,
                "pitch": 71,
                "velocity": 51,
                "duration": 0.0840909,
                "tempo": 120.0
            },
            {
                "start_time": 54.9318182,
                "end_time": 55.0340909,
                "pitch": 69,
                "velocity": 51,
                "duration": 0.1022727,
                "tempo": 120.0
            },
            {
                "start_time": 55.0522727,
                "end_time": 55.1363636,
                "pitch": 69,
                "velocity": 51,
                "duration": 0.0840909,
                "tempo": 120.0
            },
            {
                "start_time": 55.1522727,
                "end_time": 55.2363636,
                "pitch": 74,
                "velocity": 51,
                "duration": 0.0840909,
                "tempo": 120.0
            },
            {
                "start_time": 55.2522727,
                "end_time": 55.3363636,
                "pitch": 71,
                "velocity": 51,
                "duration": 0.0840909,
                "tempo": 120.0
            },
            {
                "start_time": 55.3545455,
                "end_time": 55.4363636,
                "pitch": 69,
                "velocity": 51,
                "duration": 0.0818182,
                "tempo": 120.0
            },
            {
                "start_time": 55.4545455,
                "end_time": 55.65,
                "pitch": 74,
                "velocity": 51,
                "duration": 0.1954545,
                "tempo": 120.0
            },
            {
                "start_time": 55.6659091,
                "end_time": 55.7477273,
                "pitch": 74,
                "velocity": 51,
                "duration": 0.0818182,
                "tempo": 120.0
            },
            {
                "start_time": 55.7636364,
                "end_time": 55.8454545,
                "pitch": 71,
                "velocity": 51,
                "duration": 0.0818182,
                "tempo": 120.0
            },
            {
                "start_time": 55.8613636,
                "end_time": 55.9454545,
                "pitch": 69,
                "velocity": 51,
                "duration": 0.0840909,
                "tempo": 120.0
            },
            {
                "start_time": 55.9613636,
                "end_time": 56.0659091,
                "pitch": 74,
                "velocity": 51,
                "duration": 0.1045455,
                "tempo": 120.0
            },
            {
                "start_time": 56.0818182,
                "end_time": 56.1681818,
                "pitch": 71,
                "velocity": 51,
                "duration": 0.0863636,
                "tempo": 120.0
            },
            {
                "start_time": 56.1863636,
                "end_time": 56.2704545,
                "pitch": 69,
                "velocity": 51,
                "duration": 0.0840909,
                "tempo": 120.0
            },
            {
                "start_time": 56.2886364,
                "end_time": 56.375,
                "pitch": 69,
                "velocity": 51,
                "duration": 0.0863636,
                "tempo": 120.0
            },
            {
                "start_time": 56.3909091,
                "end_time": 56.4772727,
                "pitch": 74,
                "velocity": 51,
                "duration": 0.0863636,
                "tempo": 120.0
            },
            {
                "start_time": 56.4954545,
                "end_time": 56.5818182,
                "pitch": 71,
                "velocity": 51,
                "duration": 0.0863636,
                "tempo": 120.0
            },
            {
                "start_time": 56.6159091,
                "end_time": 56.7,
                "pitch": 69,
                "velocity": 51,
                "duration": 0.0840909,
                "tempo": 120.0
            },
            {
                "start_time": 56.7181818,
                "end_time": 56.8045455,
                "pitch": 69,
                "velocity": 51,
                "duration": 0.0863636,
                "tempo": 120.0
            },
            {
                "start_time": 56.8204545,
                "end_time": 56.9068182,
                "pitch": 74,
                "velocity": 51,
                "duration": 0.0863636,
                "tempo": 120.0
            },
            {
                "start_time": 56.925,
                "end_time": 57.0090909,
                "pitch": 71,
                "velocity": 51,
                "duration": 0.0840909,
                "tempo": 120.0
            },
            {
                "start_time": 57.0272727,
                "end_time": 57.1136364,
                "pitch": 69,
                "velocity": 51,
                "duration": 0.0863636,
                "tempo": 120.0
            },
            {
                "start_time": 57.1295455,
                "end_time": 57.3318182,
                "pitch": 74,
                "velocity": 51,
                "duration": 0.2022727,
                "tempo": 120.0
            },
            {
                "start_time": 57.35,
                "end_time": 57.4318182,
                "pitch": 74,
                "velocity": 51,
                "duration": 0.0818182,
                "tempo": 120.0
            },
            {
                "start_time": 57.45,
                "end_time": 57.5318182,
                "pitch": 71,
                "velocity": 51,
                "duration": 0.0818182,
                "tempo": 120.0
            },
            {
                "start_time": 57.55,
                "end_time": 57.6318182,
                "pitch": 69,
                "velocity": 51,
                "duration": 0.0818182,
                "tempo": 120.0
            },
            {
                "start_time": 57.6477273,
                "end_time": 57.7454545,
                "pitch": 74,
                "velocity": 51,
                "duration": 0.0977273,
                "tempo": 120.0
            },
            {
                "start_time": 57.7613636,
                "end_time": 57.8431818,
                "pitch": 71,
                "velocity": 51,
                "duration": 0.0818182,
                "tempo": 120.0
            },
            {
                "start_time": 57.8590909,
                "end_time": 57.9409091,
                "pitch": 69,
                "velocity": 51,
                "duration": 0.0818182,
                "tempo": 120.0
            },
            {
                "start_time": 57.9568182,
                "end_time": 58.0409091,
                "pitch": 69,
                "velocity": 51,
                "duration": 0.0840909,
                "tempo": 120.0
            },
            {
                "start_time": 58.0568182,
                "end_time": 58.1431818,
                "pitch": 74,
                "velocity": 51,
                "duration": 0.0863636,
                "tempo": 120.0
            },
            {
                "start_time": 58.1613636,
                "end_time": 58.2636364,
                "pitch": 71,
                "velocity": 51,
                "duration": 0.1022727,
                "tempo": 120.0
            },
            {
                "start_time": 58.2818182,
                "end_time": 58.3681818,
                "pitch": 69,
                "velocity": 51,
                "duration": 0.0863636,
                "tempo": 120.0
            },
            {
                "start_time": 58.3840909,
                "end_time": 58.4704545,
                "pitch": 69,
                "velocity": 51,
                "duration": 0.0863636,
                "tempo": 120.0
            },
            {
                "start_time": 58.4863636,
                "end_time": 58.5727273,
                "pitch": 74,
                "velocity": 51,
                "duration": 0.0863636,
                "tempo": 120.0
            },
            {
                "start_time": 58.5909091,
                "end_time": 58.6772727,
                "pitch": 71,
                "velocity": 51,
                "duration": 0.0863636,
                "tempo": 120.0
            },
            {
                "start_time": 58.6931818,
                "end_time": 58.7954545,
                "pitch": 69,
                "velocity": 51,
                "duration": 0.1022727,
                "tempo": 120.0
            },
            {
                "start_time": 58.8136364,
                "end_time": 58.9977273,
                "pitch": 74,
                "velocity": 51,
                "duration": 0.1840909,
                "tempo": 120.0
            },
            {
                "start_time": 59.0159091,
                "end_time": 59.0977273,
                "pitch": 74,
                "velocity": 51,
                "duration": 0.0818182,
                "tempo": 120.0
            },
            {
                "start_time": 59.1159091,
                "end_time": 59.2,
                "pitch": 71,
                "velocity": 51,
                "duration": 0.0840909,
                "tempo": 120.0
            },
            {
                "start_time": 59.2159091,
                "end_time": 59.3136364,
                "pitch": 69,
                "velocity": 51,
                "duration": 0.0977273,
                "tempo": 120.0
            },
            {
                "start_time": 59.3295455,
                "end_time": 59.4113636,
                "pitch": 74,
                "velocity": 51,
                "duration": 0.0818182,
                "tempo": 120.0
            },
            {
                "start_time": 59.4272727,
                "end_time": 59.5090909,
                "pitch": 71,
                "velocity": 51,
                "duration": 0.0818182,
                "tempo": 120.0
            },
            {
                "start_time": 59.525,
                "end_time": 59.6068182,
                "pitch": 69,
                "velocity": 51,
                "duration": 0.0818182,
                "tempo": 120.0
            },
            {
                "start_time": 59.6227273,
                "end_time": 59.7068182,
                "pitch": 69,
                "velocity": 51,
                "duration": 0.0840909,
                "tempo": 120.0
            },
            {
                "start_time": 59.725,
                "end_time": 59.8090909,
                "pitch": 74,
                "velocity": 51,
                "duration": 0.0840909,
                "tempo": 120.0
            },
            {
                "start_time": 59.8431818,
                "end_time": 59.9295455,
                "pitch": 71,
                "velocity": 51,
                "duration": 0.0863636,
                "tempo": 120.0
            },
            {
                "start_time": 59.9477273,
                "end_time": 60.0340909,
                "pitch": 69,
                "velocity": 51,
                "duration": 0.0863636,
                "tempo": 120.0
            },
            {
                "start_time": 60.05,
                "end_time": 60.1363636,
                "pitch": 69,
                "velocity": 51,
                "duration": 0.0863636,
                "tempo": 120.0
            },
            {
                "start_time": 60.1545455,
                "end_time": 60.2909091,
                "pitch": 47,
                "velocity": 51,
                "duration": 0.1363636,
                "tempo": 120.0
            }
        ]
    }
}