{
    "mood": "angry",
    "instruments": {
        "Acoustic Bass": [
            {
                "start_time": 0.0136364,
                "end_time": 0.1977273,
                "pitch": 60,
                "velocity": 40,
                "duration": 0.1840909,
                "tempo": 120.0
            },
            {
                "start_time": 0.2136364,
                "end_time": 0.4318182,
                "pitch": 60,
                "velocity": 40,
                "duration": 0.2181818,
                "tempo": 120.0
            },
            {
                "start_time": 0.4477273,
                "end_time": 0.6363636,
                "pitch": 60,
                "velocity": 40,
                "duration": 0.1886364,
                "tempo": 120.0
            },
            {
                "start_time": 0.6681818,
                "end_time": 0.8545455,
                "pitch": 60,
                "velocity": 40,
                "duration": 0.1863636,
                "tempo": 120.0
            },
            {
                "start_time": 0.8704545,
                "end_time": 1.0886364,
                "pitch": 60,
                "velocity": 40,
                "duration": 0.2181818,
                "tempo": 120.0
            },
            {
                "start_time": 1.1045455,
                "end_time": 1.3227273,
                "pitch": 60,
                "velocity": 40,
                "duration": 0.2181818,
                "tempo": 120.0
            },
            {
                "start_time": 1.3386364,
                "end_time": 1.5386364,
                "pitch": 58,
                "velocity": 40,
                "duration": 0.2,
                "tempo": 120.0
            },
            {
                "start_time": 1.5568182,
                "end_time": 1.7727273,
                "pitch": 58,
                "velocity": 40,
                "duration": 0.2159091,
                "tempo": 120.0
            },
            {
                "start_time": 1.7886364,
                "end_time": 1.9977273,
                "pitch": 58,
                "velocity": 40,
                "duration": 0.2090909,
                "tempo": 120.0
            },
            {
                "start_time": 2.0136364,
                "end_time": 2.2045455,
                "pitch": 58,
                "velocity": 40,
                "duration": 0.1909091,
                "tempo": 120.0
            },
            {
                "start_time": 2.2363636,
                "end_time": 2.4431818,
                "pitch": 58,
                "velocity": 40,
                "duration": 0.2068182,
                "tempo": 120.0
            },
            {
                "start_time": 2.4590909,
                "end_time": 2.6818182,
                "pitch": 58,
                "velocity": 40,
                "duration": 0.2227273,
                "tempo": 120.0
            },
            {
                "start_time": 2.7,
                "end_time": 2.9159091,
                "pitch": 60,
                "velocity": 40,
                "duration": 0.2159091,
                "tempo": 120.0
            },
            {
                "start_time": 2.9340909,
                "end_time": 3.1340909,
                "pitch": 60,
                "velocity": 40,
                "duration": 0.2,
                "tempo": 120.0
            },
            {
                "start_time": 3.15,
                "end_time": 3.3590909,
                "pitch": 60,
                "velocity": 40,
                "duration": 0.2090909,
                "tempo": 120.0
            },
            {
                "start_time": 3.375,
                "end_time": 3.5818182,
                "pitch": 60,
                "velocity": 40,
                "duration": 0.2068182,
                "tempo": 120.0
            },
            {
                "start_time": 3.5977273,
                "end_time": 3.8045455,
                "pitch": 60,
                "velocity": 40,
                "duration": 0.2068182,
                "tempo": 120.0
            },
            {
                "start_time": 3.8386364,
                "end_time": 4.0431818,
                "pitch": 60,
                "velocity": 40,
                "duration": 0.2045455,
                "tempo": 120.0
            },
            {
                "start_time": 5.4386364,
                "end_time": 5.5204545,
                "pitch": 63,
                "velocity": 40,
                "duration": 0.0818182,
                "tempo": 120.0
            },
            {
                "start_time": 5.5386364,
                "end_time": 5.7545455,
                "pitch": 62,
                "velocity": 40,
                "duration": 0.2159091,
                "tempo": 120.0
            },
            {
                "start_time": 5.7727273,
                "end_time": 5.8727273,
                "pitch": 60,
                "velocity": 40,
                "duration": 0.1,
                "tempo": 120.0
            },
            {
                "start_time": 5.8886364,
                "end_time": 6.1113636,
                "pitch": 58,
                "velocity": 40,
                "duration": 0.2227273,
                "tempo": 120.0
            },
            {
                "start_time": 6.1295455,
                "end_time": 6.2136364,
                "pitch": 60,
                "velocity": 40,
                "duration": 0.0840909,
                "tempo": 120.0
            },
            {
                "start_time": 6.2477273,
                "end_time": 6.4545455,
                "pitch": 58,
                "velocity": 40,
                "duration": 0.2068182,
                "tempo": 120.0
            },
            {
                "start_time": 6.4704545,
                "end_time": 6.5727273,
                "pitch": 56,
                "velocity": 40,
                "duration": 0.1022727,
                "tempo": 120.0
            },
            {
                "start_time": 6.5909091,
                "end_time": 6.8136364,
                "pitch": 55,
                "velocity": 40,
                "duration": 0.2227273,
                "tempo": 120.0
            },
            {
                "start_time": 6.8295455,
                "end_time": 6.9272727,
                "pitch": 56,
                "velocity": 40,
                "duration": 0.0977273,
                "tempo": 120.0
            },
            {
                "start_time": 6.9431818,
                "end_time": 7.1340909,
                "pitch": 55,
                "velocity": 40,
                "duration": 0.1909091,
                "tempo": 120.0
            },
            {
                "start_time": 7.15,
                "end_time": 7.2454545,
                "pitch": 53,
                "velocity": 40,
                "duration": 0.0954545,
                "tempo": 120.0
            },
            {
                "start_time": 7.2613636,
                "end_time": 9.0431818,
                "pitch": 52,
                "velocity": 40,
                "duration": 1.7818182,
                "tempo": 120.0
            }
        ],
        "Clarinet": [
            {
                "start_time": 0.0318182,
                "end_time": 0.0477273,
                "pitch": 43,
                "velocity": 32,
                "duration": 0.0159091,
                "tempo": 120.0
            },
            {
                "start_time": 0.0636364,
                "end_time": 0.9363636,
                "pitch": 60,
                "velocity": 32,
                "duration": 0.8727273,
                "tempo": 120.0
            },
            {
                "start_time": 0.9545455,
                "end_time": 1.3886364,
                "pitch": 67,
                "velocity": 32,
                "duration": 0.4340909,
                "tempo": 120.0
            },
            {
                "start_time": 1.4045455,
                "end_time": 2.0613636,
                "pitch": 65,
                "velocity": 32,
                "duration": 0.6568182,
                "tempo": 120.0
            },
            {
                "start_time": 2.0772727,
                "end_time": 2.1727273,
                "pitch": 64,
                "velocity": 32,
                "duration": 0.0954545,
                "tempo": 120.0
            },
            {
                "start_time": 2.1886364,
                "end_time": 2.2886364,
                "pitch": 65,
                "velocity": 32,
                "duration": 0.1,
                "tempo": 120.0
            },
            {
                "start_time": 2.3068182,
                "end_time": 2.75,
                "pitch": 67,
                "velocity": 32,
                "duration": 0.4431818,
                "tempo": 120.0
            },
            {
                "start_time": 2.7840909,
                "end_time": 3.4386364,
                "pitch": 64,
                "velocity": 32,
                "duration": 0.6545455,
                "tempo": 120.0
            },
            {
                "start_time": 3.4545455,
                "end_time": 3.65,
                "pitch": 65,
                "velocity": 32,
                "duration": 0.1954545,
                "tempo": 120.0
            },
            {
                "start_time": 3.6659091,
                "end_time": 4.1272727,
                "pitch": 67,
                "velocity": 32,
                "duration": 0.4613636,
                "tempo": 120.0
            },
            {
                "start_time": 4.1431818,
                "end_time": 4.3454545,
                "pitch": 68,
                "velocity": 32,
                "duration": 0.2022727,
                "tempo": 120.0
            },
            {
                "start_time": 4.3772727,
                "end_time": 4.8068182,
                "pitch": 67,
                "velocity": 32,
                "duration": 0.4295455,
                "tempo": 120.0
            },
            {
                "start_time": 4.8227273,
                "end_time": 5.0363636,
                "pitch": 60,
                "velocity": 32,
                "duration": 0.2136364,
                "tempo": 120.0
            },
            {
                "start_time": 5.5045455,
                "end_time": 5.6045455,
                "pitch": 55,
                "velocity": 32,
                "duration": 0.1,
                "tempo": 120.0
            },
            {
                "start_time": 5.6227273,
                "end_time": 5.8386364,
                "pitch": 53,
                "velocity": 32,
                "duration": 0.2159091,
                "tempo": 120.0
            },
            {
                "start_time": 5.8568182,
                "end_time": 5.9409091,
                "pitch": 51,
                "velocity": 32,
                "duration": 0.0840909,
                "tempo": 120.0
            },
            {
                "start_time": 5.975,
                "end_time": 6.1795455,
                "pitch": 50,
                "velocity": 32,
                "duration": 0.2045455,
                "tempo": 120.0
            },
            {
                "start_time": 6.1977273,
                "end_time": 6.3,
                "pitch": 51,
                "velocity": 32,
                "duration": 0.1022727,
                "tempo": 120.0
            },
            {
                "start_time": 6.3159091,
                "end_time": 6.5386364,
                "pitch": 50,
                "velocity": 32,
                "duration": 0.2227273,
                "tempo": 120.0
            },
            {
                "start_time": 6.5568182,
                "end_time": 6.6590909,
                "pitch": 48,
                "velocity": 32,
                "duration": 0.1022727,
                "tempo": 120.0
            },
            {
                "start_time": 6.675,
                "end_time": 6.8795455,
                "pitch": 46,
                "velocity": 32,
                "duration": 0.2045455,
                "tempo": 120.0
            },
            {
                "start_time": 6.8954545,
                "end_time": 6.9909091,
                "pitch": 48,
                "velocity": 32,
                "duration": 0.0954545,
                "tempo": 120.0
            },
            {
                "start_time": 7.0068182,
                "end_time": 7.2136364,
                "pitch": 46,
                "velocity": 32,
                "duration": 0.2068182,
                "tempo": 120.0
            },
            {
                "start_time": 7.2295455,
                "end_time": 7.3272727,
                "pitch": 44,
                "velocity": 32,
                "duration": 0.0977273,
                "tempo": 120.0
            },
            {
                "start_time": 7.3454545,
                "end_time": 9.1090909,
                "pitch": 43,
                "velocity": 32,
                "duration": 1.7636364,
                "tempo": 120.0
            }
        ]
    }
}