{
    "mood": "angry",
    "instruments": {
        "Lead 2 (sawtooth)": [
            {
                "start_time": 0.0,
                "end_time": 0.0795455,
                "pitch": 64,
                "velocity": 80,
                "duration": 0.0795455,
                "tempo": 120.0
            },
            {
                "start_time": 0.2113636,
                "end_time": 0.2931818,
                "pitch": 57,
                "velocity": 80,
                "duration": 0.0818182,
                "tempo": 120.0
            },
            {
                "start_time": 0.4227273,
                "end_time": 0.5022727,
                "pitch": 60,
                "velocity": 80,
                "duration": 0.0795455,
                "tempo": 120.0
            },
            {
                "start_time": 0.625,
                "end_time": 0.7045455,
                "pitch": 64,
                "velocity": 80,
                "duration": 0.0795455,
                "tempo": 120.0
            },
            {
                "start_time": 0.7204545,
                "end_time": 0.8136364,
                "pitch": 65,
                "velocity": 80,
                "duration": 0.0931818,
                "tempo": 120.0
            },
            {
                "start_time": 0.9295455,
                "end_time": 1.0295455,
                "pitch": 64,
                "velocity": 80,
                "duration": 0.1,
                "tempo": 120.0
            },
            {
                "start_time": 1.1454545,
                "end_time": 1.2454545,
                "pitch": 60,
                "velocity": 80,
                "duration": 0.1,
                "tempo": 120.0
            },
            {
                "start_time": 1.2636364,
                "end_time": 1.3454545,
                "pitch": 62,
                "velocity": 80,
                "duration": 0.0818182,
                "tempo": 120.0
            },
            {
                "start_time": 1.475,
                "end_time": 1.5727273,
                "pitch": 59,
                "velocity": 80,
                "duration": 0.0977273,
                "tempo": 120.0
            },
            {
                "start_time": 1.6886364,
                "end_time": 1.7863636,
                "pitch": 64,
                "velocity": 80,
                "duration": 0.0977273,
                "tempo": 120.0
            },
            {
                "start_time": 1.9,
                "end_time": 1.9977273,
                "pitch": 57,
                "velocity": 80,
                "duration": 0.0977273,
                "tempo": 120.0
            },
            {
                "start_time": 2.1136364,
                "end_time": 2.2113636,
                "pitch": 60,
                "velocity": 80,
                "duration": 0.0977273,
                "tempo": 120.0
            },
            {
                "start_time": 2.325,
                "end_time": 2.425,
                "pitch": 64,
                "velocity": 80,
                "duration": 0.1,
                "tempo": 120.0
            },
            {
                "start_time": 2.4409091,
                "end_time": 2.5227273,
                "pitch": 65,
                "velocity": 80,
                "duration": 0.0818182,
                "tempo": 120.0
            },
            {
                "start_time": 2.6590909,
                "end_time": 2.7636364,
                "pitch": 64,
                "velocity": 80,
                "duration": 0.1045455,
                "tempo": 120.0
            },
            {
                "start_time": 2.8863636,
                "end_time": 2.9909091,
                "pitch": 60,
                "velocity": 80,
                "duration": 0.1045455,
                "tempo": 120.0
            },
            {
                "start_time": 3.0090909,
                "end_time": 3.0931818,
                "pitch": 62,
                "velocity": 80,
                "duration": 0.0840909,
                "tempo": 120.0
            },
            {
                "start_time": 3.2272727,
                "end_time": 3.3113636,
                "pitch": 59,
                "velocity": 80,
                "duration": 0.0840909,
                "tempo": 120.0
            },
            {
                "start_time": 3.4431818,
                "end_time": 3.525,
                "pitch": 64,
                "velocity": 80,
                "duration": 0.0818182,
                "tempo": 120.0
            },
            {
                "start_time": 3.6522727,
                "end_time": 3.7318182,
                "pitch": 57,
                "velocity": 80,
                "duration": 0.0795455,
                "tempo": 120.0
            },
            {
                "start_time": 3.8613636,
                "end_time": 3.9590909,
                "pitch": 60,
                "velocity": 80,
                "duration": 0.0977273,
                "tempo": 120.0
            },
            {
                "start_time": 4.0727273,
                "end_time": 4.1704545,
                "pitch": 64,
                "velocity": 80,
                "duration": 0.0977273,
                "tempo": 120.0
            },
            {
                "start_time": 4.1863636,
                "end_time": 4.2681818,
                "pitch": 65,
                "velocity": 80,
                "duration": 0.0818182,
                "tempo": 120.0
            },
            {
                "start_time": 4.4045455,
                "end_time": 4.4909091,
                "pitch": 64,
                "velocity": 80,
                "duration": 0.0863636,
                "tempo": 120.0
            },
            {
                "start_time": 4.6272727,
                "end_time": 4.7113636,
                "pitch": 60,
                "velocity": 80,
                "duration": 0.0840909,
                "tempo": 120.0
            },
            {
                "start_time": 4.7295455,
                "end_time": 4.8272727,
                "pitch": 62,
                "velocity": 80,
                "duration": 0.0977273,
                "tempo": 120.0
            },
            {
                "start_time": 4.9590909,
                "end_time": 5.0409091,
                "pitch": 59,
                "velocity": 80,
                "duration": 0.0818182,
                "tempo": 120.0
            },
            {
                "start_time": 5.1704545,
                "end_time": 5.2545455,
                "pitch": 64,
                "velocity": 80,
                "duration": 0.0840909,
                "tempo": 120.0
            },
            {
                "start_time": 5.3886364,
                "end_time": 5.4727273,
                "pitch": 57,
                "velocity": 80,
                "duration": 0.0840909,
                "tempo": 120.0
            },
            {
                "start_time": 5.6068182,
                "end_time": 5.6886364,
                "pitch": 60,
                "velocity": 80,
                "duration": 0.0818182,
                "tempo": 120.0
            },
            {
                "start_time": 5.8181818,
                "end_time": 5.9,
                "pitch": 64,
                "velocity": 80,
                "duration": 0.0818182,
                "tempo": 120.0
            },
            {
                "start_time": 5.9159091,
                "end_time": 6.0136364,
                "pitch": 65,
                "velocity": 80,
                "duration": 0.0977273,
                "tempo": 120.0
            },
            {
                "start_time": 6.1477273,
                "end_time": 6.2318182,
                "pitch": 64,
                "velocity": 80,
                "duration": 0.0840909,
                "tempo": 120.0
            },
            {
                "start_time": 6.3659091,
                "end_time": 6.45,
                "pitch": 60,
                "velocity": 80,
                "duration": 0.0840909,
                "tempo": 120.0
            },
            {
                "start_time": 6.4659091,
                "end_time": 6.5659091,
                "pitch": 62,
                "velocity": 80,
                "duration": 0.1,
                "tempo": 120.0
            },
            {
                "start_time": 6.6840909,
                "end_time": 6.7840909,
                "pitch": 59,
                "velocity": 80,
                "duration": 0.1,
                "tempo": 120.0
            },
            {
                "start_time": 6.9,
                "end_time": 6.9977273,
                "pitch": 64,
                "velocity": 80,
                "duration": 0.0977273,
                "tempo": 120.0
            },
            {
                "start_time": 7.1136364,
                "end_time": 7.2113636,
                "pitch": 57,
                "velocity": 80,
                "duration": 0.0977273,
                "tempo": 120.0
            },
            {
                "start_time": 7.3431818,
                "end_time": 7.425,
                "pitch": 60,
                "velocity": 80,
                "duration": 0.0818182,
                "tempo": 120.0
            },
            {
                "start_time": 7.5590909,
                "end_time": 7.6431818,
                "pitch": 64,
                "velocity": 80,
                "duration": 0.0840909,
                "tempo": 120.0
            },
            {
                "start_time": 7.6590909,
                "end_time": 7.7590909,
                "pitch": 65,
                "velocity": 80,
                "duration": 0.1,
                "tempo": 120.0
            },
            {
                "start_time": 7.8772727,
                "end_time": 7.9772727,
                "pitch": 64,
                "velocity": 80,
                "duration": 0.1,
                "tempo": 120.0
            },
            {
                "start_time": 8.0931818,
                "end_time": 8.1954545,
                "pitch": 60,
                "velocity": 80,
                "duration": 0.1022727,
                "tempo": 120.0
            },
            {
                "start_time": 8.2113636,
                "end_time": 8.2954545,
                "pitch": 62,
                "velocity": 80,
                "duration": 0.0840909,
                "tempo": 120.0
            },
            {
                "start_time": 8.4295455,
                "end_time": 8.5113636,
                "pitch": 59,
                "velocity": 80,
                "duration": 0.0818182,
                "tempo": 120.0
            },
            {
                "start_time": 8.6454545,
                "end_time": 8.7409091,
                "pitch": 64,
                "velocity": 80,
                "duration": 0.0954545,
                "tempo": 120.0
            },
            {
                "start_time": 8.8545455,
                "end_time": 8.95,
                "pitch": 57,
                "velocity": 80,
                "duration": 0.0954545,
                "tempo": 120.0
            },
            {
                "start_time": 9.0613636,
                "end_time": 9.1613636,
                "pitch": 60,
                "velocity": 80,
                "duration": 0.1,
                "tempo": 120.0
            },
            {
                "start_time": 9.2795455,
                "end_time": 9.3795455,
                "pitch": 64,
                "velocity": 80,
                "duration": 0.1,
                "tempo": 120.0
            },
            {
                "start_time": 9.3954545,
                "end_time": 9.4795455,
                "pitch": 65,
                "velocity": 80,
                "duration": 0.0840909,
                "tempo": 120.0
            },
            {
                "start_time": 9.6113636,
                "end_time": 9.6931818,
                "pitch": 64,
                "velocity": 80,
                "duration": 0.0818182,
                "tempo": 120.0
            },
            {
                "start_time": 9.8227273,
                "end_time": 9.9204545,
                "pitch": 60,
                "velocity": 80,
                "duration": 0.0977273,
                "tempo": 120.0
            },
            {
                "start_time": 9.9386364,
                "end_time": 10.025,
                "pitch": 62,
                "velocity": 80,
                "duration": 0.0863636,
                "tempo": 120.0
            },
            {
                "start_time": 10.1636364,
                "end_time": 10.2522727,
                "pitch": 59,
                "velocity": 80,
                "duration": 0.0886364,
                "tempo": 120.0
            },
            {
                "start_time": 10.3909091,
                "end_time": 10.4704545,
                "pitch": 64,
                "velocity": 80,
                "duration": 0.0795455,
                "tempo": 120.0
            },
            {
                "start_time": 10.6,
                "end_time": 10.6795455,
                "pitch": 57,
                "velocity": 80,
                "duration": 0.0795455,
                "tempo": 120.0
            },
            {
                "start_time": 10.8068182,
                "end_time": 10.8909091,
                "pitch": 60,
                "velocity": 80,
                "duration": 0.0840909,
                "tempo": 120.0
            },
            {
                "start_time": 11.025,
                "end_time": 11.125,
                "pitch": 64,
                "velocity": 80,
                "duration": 0.1,
                "tempo": 120.0
            },
            {
                "start_time": 11.1409091,
                "end_time": 11.225,
                "pitch": 65,
                "velocity": 80,
                "duration": 0.0840909,
                "tempo": 120.0
            },
            {
                "start_time": 11.3590909,
                "end_time": 11.4431818,
                "pitch": 64,
                "velocity": 80,
                "duration": 0.0840909,
                "tempo": 120.0
            },
            {
                "start_time": 11.5772727,
                "end_time": 11.6590909,
                "pitch": 60,
                "velocity": 80,
                "duration": 0.0818182,
                "tempo": 120.0
            },
            {
                "start_time": 11.6772727,
                "end_time": 11.775,
                "pitch": 62,
                "velocity": 80,
                "duration": 0.0977273,
                "tempo": 120.0
            },
            {
                "start_time": 11.8886364,
                "end_time": 11.9886364,
                "pitch": 59,
                "velocity": 80,
                "duration": 0.1,
                "tempo": 120.0
            },
            {
                "start_time": 12.1181818,
                "end_time": 12.2022727,
                "pitch": 64,
                "velocity": 80,
                "duration": 0.0840909,
                "tempo": 120.0
            },
            {
                "start_time": 12.3363636,
                "end_time": 12.4204545,
                "pitch": 57,
                "velocity": 80,
                "duration": 0.0840909,
                "tempo": 120.0
            },
            {
                "start_time": 12.5522727,
                "end_time": 12.6363636,
                "pitch": 60,
                "velocity": 80,
                "duration": 0.0840909,
                "tempo": 120.0
            },
            {
                "start_time": 12.7704545,
                "end_time": 12.8545455,
                "pitch": 64,
                "velocity": 80,
                "duration": 0.0840909,
                "tempo": 120.0
            },
            {
                "start_time": 12.8704545,
                "end_time": 12.9704545,
                "pitch": 65,
                "velocity": 80,
                "duration": 0.1,
                "tempo": 120.0
            },
            {
                "start_time": 13.0863636,
                "end_time": 13.1840909,
                "pitch": 64,
                "velocity": 80,
                "duration": 0.0977273,
                "tempo": 120.0
            },
            {
                "start_time": 13.3136364,
                "end_time": 13.3954545,
                "pitch": 60,
                "velocity": 80,
                "duration": 0.0818182,
                "tempo": 120.0
            },
            {
                "start_time": 13.4136364,
                "end_time": 13.5159091,
                "pitch": 62,
                "velocity": 80,
                "duration": 0.1022727,
                "tempo": 120.0
            },
            {
                "start_time": 13.6340909,
                "end_time": 13.7363636,
                "pitch": 59,
                "velocity": 80,
                "duration": 0.1022727,
                "tempo": 120.0
            },
            {
                "start_time": 13.8568182,
                "end_time": 13.9522727,
                "pitch": 57,
                "velocity": 80,
                "duration": 0.0954545,
                "tempo": 120.0
            },
            {
                "start_time": 13.9681818,
                "end_time": 14.0477273,
                "pitch": 59,
                "velocity": 80,
                "duration": 0.0795455,
                "tempo": 120.0
            },
            {
                "start_time": 14.0636364,
                "end_time": 14.1613636,
                "pitch": 60,
                "velocity": 80,
                "duration": 0.0977273,
                "tempo": 120.0
            },
            {
                "start_time": 14.1772727,
                "end_time": 14.2568182,
                "pitch": 59,
                "velocity": 80,
                "duration": 0.0795455,
                "tempo": 120.0
            },
            {
                "start_time": 14.2727273,
                "end_time": 14.3727273,
                "pitch": 60,
                "velocity": 80,
                "duration": 0.1,
                "tempo": 120.0
            },
            {
                "start_time": 14.3886364,
                "end_time": 14.4727273,
                "pitch": 62,
                "velocity": 80,
                "duration": 0.0840909,
                "tempo": 120.0
            },
            {
                "start_time": 14.5068182,
                "end_time": 14.5909091,
                "pitch": 60,
                "velocity": 80,
                "duration": 0.0840909,
                "tempo": 120.0
            },
            {
                "start_time": 14.6068182,
                "end_time": 14.7068182,
                "pitch": 59,
                "velocity": 80,
                "duration": 0.1,
                "tempo": 120.0
            },
            {
                "start_time": 14.7227273,
                "end_time": 14.8090909,
                "pitch": 60,
                "velocity": 80,
                "duration": 0.0863636,
                "tempo": 120.0
            },
            {
                "start_time": 14.8272727,
                "end_time": 14.9295455,
                "pitch": 59,
                "velocity": 80,
                "duration": 0.1022727,
                "tempo": 120.0
            },
            {
                "start_time": 14.9454545,
                "end_time": 15.0318182,
                "pitch": 57,
                "velocity": 80,
                "duration": 0.0863636,
                "tempo": 120.0
            },
            {
                "start_time": 15.0477273,
                "end_time": 15.4454545,
                "pitch": 55,
                "velocity": 80,
                "duration": 0.3977273,
                "tempo": 120.0
            },
            {
                "start_time": 15.4454545,
                "end_time": 15.5272727,
                "pitch": 55,
                "velocity": 80,
                "duration": 0.0818182,
                "tempo": 120.0
            },
            {
                "start_time": 15.5272727,
                "end_time": 15.5772727,
                "pitch": 55,
                "velocity": 80,
                "duration": 0.05,
                "tempo": 120.0
            },
            {
                "start_time": 15.5931818,
                "end_time": 15.6772727,
                "pitch": 57,
                "velocity": 80,
                "duration": 0.0840909,
                "tempo": 120.0
            },
            {
                "start_time": 15.7113636,
                "end_time": 15.7931818,
                "pitch": 59,
                "velocity": 80,
                "duration": 0.0818182,
                "tempo": 120.0
            },
            {
                "start_time": 15.8113636,
                "end_time": 15.9113636,
                "pitch": 60,
                "velocity": 80,
                "duration": 0.1,
                "tempo": 120.0
            },
            {
                "start_time": 15.9272727,
                "end_time": 16.0113636,
                "pitch": 59,
                "velocity": 80,
                "duration": 0.0840909,
                "tempo": 120.0
            },
            {
                "start_time": 16.0272727,
                "end_time": 16.125,
                "pitch": 60,
                "velocity": 80,
                "duration": 0.0977273,
                "tempo": 120.0
            },
            {
                "start_time": 16.1431818,
                "end_time": 16.225,
                "pitch": 62,
                "velocity": 80,
                "duration": 0.0818182,
                "tempo": 120.0
            },
            {
                "start_time": 16.2409091,
                "end_time": 16.3386364,
                "pitch": 60,
                "velocity": 80,
                "duration": 0.0977273,
                "tempo": 120.0
            },
            {
                "start_time": 16.3545455,
                "end_time": 16.4363636,
                "pitch": 59,
                "velocity": 80,
                "duration": 0.0818182,
                "tempo": 120.0
            },
            {
                "start_time": 16.4522727,
                "end_time": 16.5522727,
                "pitch": 60,
                "velocity": 80,
                "duration": 0.1,
                "tempo": 120.0
            },
            {
                "start_time": 16.5704545,
                "end_time": 16.6545455,
                "pitch": 59,
                "velocity": 80,
                "duration": 0.0840909,
                "tempo": 120.0
            },
            {
                "start_time": 16.6704545,
                "end_time": 16.7704545,
                "pitch": 60,
                "velocity": 80,
                "duration": 0.1,
                "tempo": 120.0
            },
            {
                "start_time": 16.7863636,
                "end_time": 17.3227273,
                "pitch": 62,
                "velocity": 80,
                "duration": 0.5363636,
                "tempo": 120.0
            },
            {
                "start_time": 17.3386364,
                "end_time": 17.4204545,
                "pitch": 57,
                "velocity": 80,
                "duration": 0.0818182,
                "tempo": 120.0
            },
            {
                "start_time": 17.4363636,
                "end_time": 17.5340909,
                "pitch": 59,
                "velocity": 80,
                "duration": 0.0977273,
                "tempo": 120.0
            },
            {
                "start_time": 17.5522727,
                "end_time": 17.6340909,
                "pitch": 60,
                "velocity": 80,
                "duration": 0.0818182,
                "tempo": 120.0
            },
            {
                "start_time": 17.65,
                "end_time": 17.7477273,
                "pitch": 59,
                "velocity": 80,
                "duration": 0.0977273,
                "tempo": 120.0
            },
            {
                "start_time": 17.7636364,
                "end_time": 17.8477273,
                "pitch": 60,
                "velocity": 80,
                "duration": 0.0840909,
                "tempo": 120.0
            },
            {
                "start_time": 17.8636364,
                "end_time": 17.9636364,
                "pitch": 62,
                "velocity": 80,
                "duration": 0.1,
                "tempo": 120.0
            },
            {
                "start_time": 17.9818182,
                "end_time": 18.0636364,
                "pitch": 60,
                "velocity": 80,
                "duration": 0.0818182,
                "tempo": 120.0
            },
            {
                "start_time": 18.0977273,
                "end_time": 18.1818182,
                "pitch": 59,
                "velocity": 80,
                "duration": 0.0840909,
                "tempo": 120.0
            },
            {
                "start_time": 18.1977273,
                "end_time": 18.2954545,
                "pitch": 60,
                "velocity": 80,
                "duration": 0.0977273,
                "tempo": 120.0
            },
            {
                "start_time": 18.3136364,
                "end_time": 18.3954545,
                "pitch": 59,
                "velocity": 80,
                "duration": 0.0818182,
                "tempo": 120.0
            },
            {
                "start_time": 18.4113636,
                "end_time": 18.5090909,
                "pitch": 57,
                "velocity": 80,
                "duration": 0.0977273,
                "tempo": 120.0
            },
            {
                "start_time": 18.525,
                "end_time": 18.925,
                "pitch": 55,
                "velocity": 80,
                "duration": 0.4,
                "tempo": 120.0
            },
            {
                "start_time": 18.925,
                "end_time": 19.0068182,
                "pitch": 55,
                "velocity": 80,
                "duration": 0.0818182,
                "tempo": 120.0
            },
            {
                "start_time": 19.0068182,
                "end_time": 19.0409091,
                "pitch": 55,
                "velocity": 80,
                "duration": 0.0340909,
                "tempo": 120.0
            },
            {
                "start_time": 19.0590909,
                "end_time": 19.1568182,
                "pitch": 57,
                "velocity": 80,
                "duration": 0.0977273,
                "tempo": 120.0
            },
            {
                "start_time": 19.1727273,
                "end_time": 19.2545455,
                "pitch": 59,
                "velocity": 80,
                "duration": 0.0818182,
                "tempo": 120.0
            },
            {
                "start_time": 19.2863636,
                "end_time": 19.3681818,
                "pitch": 60,
                "velocity": 80,
                "duration": 0.0818182,
                "tempo": 120.0
            },
            {
                "start_time": 19.3863636,
                "end_time": 19.4840909,
                "pitch": 59,
                "velocity": 80,
                "duration": 0.0977273,
                "tempo": 120.0
            },
            {
                "start_time": 19.5,
                "end_time": 19.5840909,
                "pitch": 60,
                "velocity": 80,
                "duration": 0.0840909,
                "tempo": 120.0
            },
            {
                "start_time": 19.6,
                "end_time": 19.7,
                "pitch": 62,
                "velocity": 80,
                "duration": 0.1,
                "tempo": 120.0
            },
            {
                "start_time": 19.7181818,
                "end_time": 19.8,
                "pitch": 60,
                "velocity": 80,
                "duration": 0.0818182,
                "tempo": 120.0
            },
            {
                "start_time": 19.8181818,
                "end_time": 19.9181818,
                "pitch": 59,
                "velocity": 80,
                "duration": 0.1,
                "tempo": 120.0
            },
            {
                "start_time": 19.9340909,
                "end_time": 20.0181818,
                "pitch": 57,
                "velocity": 80,
                "duration": 0.0840909,
                "tempo": 120.0
            },
            {
                "start_time": 20.0340909,
                "end_time": 20.1340909,
                "pitch": 55,
                "velocity": 80,
                "duration": 0.1,
                "tempo": 120.0
            },
            {
                "start_time": 20.1522727,
                "end_time": 20.2363636,
                "pitch": 57,
                "velocity": 80,
                "duration": 0.0840909,
                "tempo": 120.0
            },
            {
                "start_time": 20.2522727,
                "end_time": 20.3522727,
                "pitch": 55,
                "velocity": 80,
                "duration": 0.1,
                "tempo": 120.0
            },
            {
                "start_time": 20.3681818,
                "end_time": 20.45,
                "pitch": 54,
                "velocity": 80,
                "duration": 0.0818182,
                "tempo": 120.0
            },
            {
                "start_time": 20.4840909,
                "end_time": 20.5659091,
                "pitch": 55,
                "velocity": 80,
                "duration": 0.0818182,
                "tempo": 120.0
            },
            {
                "start_time": 20.5818182,
                "end_time": 20.6795455,
                "pitch": 54,
                "velocity": 80,
                "duration": 0.0977273,
                "tempo": 120.0
            },
            {
                "start_time": 20.6954545,
                "end_time": 20.7772727,
                "pitch": 52,
                "velocity": 80,
                "duration": 0.0818182,
                "tempo": 120.0
            },
            {
                "start_time": 20.7931818,
                "end_time": 20.8931818,
                "pitch": 64,
                "velocity": 80,
                "duration": 0.1,
                "tempo": 120.0
            },
            {
                "start_time": 21.0068182,
                "end_time": 21.1045455,
                "pitch": 57,
                "velocity": 80,
                "duration": 0.0977273,
                "tempo": 120.0
            },
            {
                "start_time": 21.2204545,
                "end_time": 21.3181818,
                "pitch": 60,
                "velocity": 80,
                "duration": 0.0977273,
                "tempo": 120.0
            },
            {
                "start_time": 21.4318182,
                "end_time": 21.5295455,
                "pitch": 64,
                "velocity": 80,
                "duration": 0.0977273,
                "tempo": 120.0
            },
            {
                "start_time": 21.5454545,
                "end_time": 21.6272727,
                "pitch": 65,
                "velocity": 80,
                "duration": 0.0818182,
                "tempo": 120.0
            },
            {
                "start_time": 21.7659091,
                "end_time": 21.8704545,
                "pitch": 64,
                "velocity": 80,
                "duration": 0.1045455,
                "tempo": 120.0
            },
            {
                "start_time": 21.9931818,
                "end_time": 22.0977273,
                "pitch": 60,
                "velocity": 80,
                "duration": 0.1045455,
                "tempo": 120.0
            },
            {
                "start_time": 22.1159091,
                "end_time": 22.1977273,
                "pitch": 62,
                "velocity": 80,
                "duration": 0.0818182,
                "tempo": 120.0
            },
            {
                "start_time": 22.3272727,
                "end_time": 22.4090909,
                "pitch": 59,
                "velocity": 80,
                "duration": 0.0818182,
                "tempo": 120.0
            },
            {
                "start_time": 22.5409091,
                "end_time": 22.6227273,
                "pitch": 64,
                "velocity": 80,
                "duration": 0.0818182,
                "tempo": 120.0
            },
            {
                "start_time": 22.7522727,
                "end_time": 22.8340909,
                "pitch": 57,
                "velocity": 80,
                "duration": 0.0818182,
                "tempo": 120.0
            },
            {
                "start_time": 22.9659091,
                "end_time": 23.0636364,
                "pitch": 60,
                "velocity": 80,
                "duration": 0.0977273,
                "tempo": 120.0
            },
            {
                "start_time": 23.1772727,
                "end_time": 23.2772727,
                "pitch": 64,
                "velocity": 80,
                "duration": 0.1,
                "tempo": 120.0
            },
            {
                "start_time": 23.2931818,
                "end_time": 23.375,
                "pitch": 65,
                "velocity": 80,
                "duration": 0.0818182,
                "tempo": 120.0
            },
            {
                "start_time": 23.5068182,
                "end_time": 23.5909091,
                "pitch": 64,
                "velocity": 80,
                "duration": 0.0840909,
                "tempo": 120.0
            },
            {
                "start_time": 23.725,
                "end_time": 23.8090909,
                "pitch": 60,
                "velocity": 80,
                "duration": 0.0840909,
                "tempo": 120.0
            },
            {
                "start_time": 23.825,
                "end_time": 23.925,
                "pitch": 62,
                "velocity": 80,
                "duration": 0.1,
                "tempo": 120.0
            },
            {
                "start_time": 24.0590909,
                "end_time": 24.1431818,
                "pitch": 59,
                "velocity": 80,
                "duration": 0.0840909,
                "tempo": 120.0
            },
            {
                "start_time": 24.2772727,
                "end_time": 24.3613636,
                "pitch": 64,
                "velocity": 80,
                "duration": 0.0840909,
                "tempo": 120.0
            },
            {
                "start_time": 24.4931818,
                "end_time": 24.5772727,
                "pitch": 57,
                "velocity": 80,
                "duration": 0.0840909,
                "tempo": 120.0
            },
            {
                "start_time": 24.7113636,
                "end_time": 24.7931818,
                "pitch": 60,
                "velocity": 80,
                "duration": 0.0818182,
                "tempo": 120.0
            },
            {
                "start_time": 24.9227273,
                "end_time": 25.0045455,
                "pitch": 64,
                "velocity": 80,
                "duration": 0.0818182,
                "tempo": 120.0
            },
            {
                "start_time": 25.0227273,
                "end_time": 25.1204545,
                "pitch": 65,
                "velocity": 80,
                "duration": 0.0977273,
                "tempo": 120.0
            },
            {
                "start_time": 25.2545455,
                "end_time": 25.3363636,
                "pitch": 64,
                "velocity": 80,
                "duration": 0.0818182,
                "tempo": 120.0
            },
            {
                "start_time": 25.4704545,
                "end_time": 25.5545455,
                "pitch": 60,
                "velocity": 80,
                "duration": 0.0840909,
                "tempo": 120.0
            },
            {
                "start_time": 25.5704545,
                "end_time": 25.6704545,
                "pitch": 62,
                "velocity": 80,
                "duration": 0.1,
                "tempo": 120.0
            },
            {
                "start_time": 25.7886364,
                "end_time": 25.8886364,
                "pitch": 59,
                "velocity": 80,
                "duration": 0.1,
                "tempo": 120.0
            },
            {
                "start_time": 26.0045455,
                "end_time": 26.1022727,
                "pitch": 64,
                "velocity": 80,
                "duration": 0.0977273,
                "tempo": 120.0
            },
            {
                "start_time": 26.2136364,
                "end_time": 26.3090909,
                "pitch": 57,
                "velocity": 80,
                "duration": 0.0954545,
                "tempo": 120.0
            },
            {
                "start_time": 26.4386364,
                "end_time": 26.5227273,
                "pitch": 60,
                "velocity": 80,
                "duration": 0.0840909,
                "tempo": 120.0
            },
            {
                "start_time": 26.6590909,
                "end_time": 26.7454545,
                "pitch": 64,
                "velocity": 80,
                "duration": 0.0863636,
                "tempo": 120.0
            },
            {
                "start_time": 26.7636364,
                "end_time": 26.8659091,
                "pitch": 65,
                "velocity": 80,
                "duration": 0.1022727,
                "tempo": 120.0
            },
            {
                "start_time": 26.9818182,
                "end_time": 27.0840909,
                "pitch": 64,
                "velocity": 80,
                "duration": 0.1022727,
                "tempo": 120.0
            },
            {
                "start_time": 27.2,
                "end_time": 27.3,
                "pitch": 60,
                "velocity": 80,
                "duration": 0.1,
                "tempo": 120.0
            },
            {
                "start_time": 27.3159091,
                "end_time": 27.4,
                "pitch": 62,
                "velocity": 80,
                "duration": 0.0840909,
                "tempo": 120.0
            },
            {
                "start_time": 27.5340909,
                "end_time": 27.6181818,
                "pitch": 59,
                "velocity": 80,
                "duration": 0.0840909,
                "tempo": 120.0
            },
            {
                "start_time": 27.7522727,
                "end_time": 27.85,
                "pitch": 64,
                "velocity": 80,
                "duration": 0.0977273,
                "tempo": 120.0
            },
            {
                "start_time": 27.9636364,
                "end_time": 28.0613636,
                "pitch": 57,
                "velocity": 80,
                "duration": 0.0977273,
                "tempo": 120.0
            },
            {
                "start_time": 28.1772727,
                "end_time": 28.275,
                "pitch": 60,
                "velocity": 80,
                "duration": 0.0977273,
                "tempo": 120.0
            },
            {
                "start_time": 28.3886364,
                "end_time": 28.4886364,
                "pitch": 64,
                "velocity": 80,
                "duration": 0.1,
                "tempo": 120.0
            },
            {
                "start_time": 28.5045455,
                "end_time": 28.5863636,
                "pitch": 65,
                "velocity": 80,
                "duration": 0.0818182,
                "tempo": 120.0
            },
            {
                "start_time": 28.7181818,
                "end_time": 28.8022727,
                "pitch": 64,
                "velocity": 80,
                "duration": 0.0840909,
                "tempo": 120.0
            },
            {
                "start_time": 28.9363636,
                "end_time": 29.0363636,
                "pitch": 60,
                "velocity": 80,
                "duration": 0.1,
                "tempo": 120.0
            },
            {
                "start_time": 29.0522727,
                "end_time": 29.1386364,
                "pitch": 62,
                "velocity": 80,
                "duration": 0.0863636,
                "tempo": 120.0
            },
            {
                "start_time": 29.275,
                "end_time": 29.3613636,
                "pitch": 59,
                "velocity": 80,
                "duration": 0.0863636,
                "tempo": 120.0
            },
            {
                "start_time": 29.4977273,
                "end_time": 29.5772727,
                "pitch": 64,
                "velocity": 80,
                "duration": 0.0795455,
                "tempo": 120.0
            },
            {
                "start_time": 29.7045455,
                "end_time": 29.7840909,
                "pitch": 57,
                "velocity": 80,
                "duration": 0.0795455,
                "tempo": 120.0
            },
            {
                "start_time": 29.9136364,
                "end_time": 29.9977273,
                "pitch": 60,
                "velocity": 80,
                "duration": 0.0840909,
                "tempo": 120.0
            },
            {
                "start_time": 30.1295455,
                "end_time": 30.2318182,
                "pitch": 64,
                "velocity": 80,
                "duration": 0.1022727,
                "tempo": 120.0
            },
            {
                "start_time": 30.2477273,
                "end_time": 30.3318182,
                "pitch": 65,
                "velocity": 80,
                "duration": 0.0840909,
                "tempo": 120.0
            },
            {
                "start_time": 30.4613636,
                "end_time": 30.5431818,
                "pitch": 64,
                "velocity": 80,
                "duration": 0.0818182,
                "tempo": 120.0
            },
            {
                "start_time": 30.675,
                "end_time": 30.7568182,
                "pitch": 60,
                "velocity": 80,
                "duration": 0.0818182,
                "tempo": 120.0
            },
            {
                "start_time": 30.7727273,
                "end_time": 30.875,
                "pitch": 62,
                "velocity": 80,
                "duration": 0.1022727,
                "tempo": 120.0
            },
            {
                "start_time": 30.9954545,
                "end_time": 31.0977273,
                "pitch": 59,
                "velocity": 80,
                "duration": 0.1022727,
                "tempo": 120.0
            },
            {
                "start_time": 31.2340909,
                "end_time": 31.3159091,
                "pitch": 64,
                "velocity": 80,
                "duration": 0.0818182,
                "tempo": 120.0
            },
            {
                "start_time": 31.4454545,
                "end_time": 31.5272727,
                "pitch": 57,
                "velocity": 80,
                "duration": 0.0818182,
                "tempo": 120.0
            },
            {
                "start_time": 31.6590909,
                "end_time": 31.7431818,
                "pitch": 60,
                "velocity": 80,
                "duration": 0.0840909,
                "tempo": 120.0
            },
            {
                "start_time": 31.875,
                "end_time": 31.9590909,
                "pitch": 64,
                "velocity": 80,
                "duration": 0.0840909,
                "tempo": 120.0
            },
            {
                "start_time": 31.9772727,
                "end_time": 32.0772727,
                "pitch": 65,
                "velocity": 80,
                "duration": 0.1,
                "tempo": 120.0
            },
            {
                "start_time": 32.1909091,
                "end_time": 32.2886364,
                "pitch": 64,
                "velocity": 80,
                "duration": 0.0977273,
                "tempo": 120.0
            },
            {
                "start_time": 32.4204545,
                "end_time": 32.5022727,
                "pitch": 60,
                "velocity": 80,
                "duration": 0.0818182,
                "tempo": 120.0
            },
            {
                "start_time": 32.5181818,
                "end_time": 32.6181818,
                "pitch": 62,
                "velocity": 80,
                "duration": 0.1,
                "tempo": 120.0
            },
            {
                "start_time": 32.7363636,
                "end_time": 32.8363636,
                "pitch": 59,
                "velocity": 80,
                "duration": 0.1,
                "tempo": 120.0
            },
            {
                "start_time": 32.9522727,
                "end_time": 33.05,
                "pitch": 64,
                "velocity": 80,
                "duration": 0.0977273,
                "tempo": 120.0
            },
            {
                "start_time": 33.1659091,
                "end_time": 33.2636364,
                "pitch": 57,
                "velocity": 80,
                "duration": 0.0977273,
                "tempo": 120.0
            },
            {
                "start_time": 33.3772727,
                "end_time": 33.4772727,
                "pitch": 60,
                "velocity": 80,
                "duration": 0.1,
                "tempo": 120.0
            },
            {
                "start_time": 33.6068182,
                "end_time": 33.6886364,
                "pitch": 64,
                "velocity": 80,
                "duration": 0.0818182,
                "tempo": 120.0
            },
            {
                "start_time": 33.7045455,
                "end_time": 33.8022727,
                "pitch": 65,
                "velocity": 80,
                "duration": 0.0977273,
                "tempo": 120.0
            },
            {
                "start_time": 33.9227273,
                "end_time": 34.025,
                "pitch": 64,
                "velocity": 80,
                "duration": 0.1022727,
                "tempo": 120.0
            },
            {
                "start_time": 34.1454545,
                "end_time": 34.2477273,
                "pitch": 60,
                "velocity": 80,
                "duration": 0.1022727,
                "tempo": 120.0
            },
            {
                "start_time": 34.2636364,
                "end_time": 34.3477273,
                "pitch": 62,
                "velocity": 80,
                "duration": 0.0840909,
                "tempo": 120.0
            },
            {
                "start_time": 34.4818182,
                "end_time": 34.5659091,
                "pitch": 59,
                "velocity": 80,
                "duration": 0.0840909,
                "tempo": 120.0
            },
            {
                "start_time": 34.6977273,
                "end_time": 34.7795455,
                "pitch": 64,
                "velocity": 80,
                "duration": 0.0818182,
                "tempo": 120.0
            },
            {
                "start_time": 34.9113636,
                "end_time": 35.0090909,
                "pitch": 57,
                "velocity": 80,
                "duration": 0.0977273,
                "tempo": 120.0
            },
            {
                "start_time": 35.125,
                "end_time": 35.2227273,
                "pitch": 60,
                "velocity": 80,
                "duration": 0.0977273,
                "tempo": 120.0
            },
            {
                "start_time": 35.3363636,
                "end_time": 35.4340909,
                "pitch": 64,
                "velocity": 80,
                "duration": 0.0977273,
                "tempo": 120.0
            },
            {
                "start_time": 35.4522727,
                "end_time": 35.5318182,
                "pitch": 65,
                "velocity": 80,
                "duration": 0.0795455,
                "tempo": 120.0
            },
            {
                "start_time": 35.6659091,
                "end_time": 35.75,
                "pitch": 64,
                "velocity": 80,
                "duration": 0.0840909,
                "tempo": 120.0
            },
            {
                "start_time": 35.8840909,
                "end_time": 35.9681818,
                "pitch": 60,
                "velocity": 80,
                "duration": 0.0840909,
                "tempo": 120.0
            },
            {
                "start_time": 36.0,
                "end_time": 36.0863636,
                "pitch": 62,
                "velocity": 80,
                "duration": 0.0863636,
                "tempo": 120.0
            },
            {
                "start_time": 36.2227273,
                "end_time": 36.3090909,
                "pitch": 59,
                "velocity": 80,
                "duration": 0.0863636,
                "tempo": 120.0
            },
            {
                "start_time": 36.4454545,
                "end_time": 36.5272727,
                "pitch": 66,
                "velocity": 80,
                "duration": 0.0818182,
                "tempo": 120.0
            },
            {
                "start_time": 36.6568182,
                "end_time": 36.7386364,
                "pitch": 59,
                "velocity": 80,
                "duration": 0.0818182,
                "tempo": 120.0
            },
            {
                "start_time": 36.8704545,
                "end_time": 36.9522727,
                "pitch": 62,
                "velocity": 80,
                "duration": 0.0818182,
                "tempo": 120.0
            },
            {
                "start_time": 36.9681818,
                "end_time": 37.0659091,
                "pitch": 66,
                "velocity": 80,
                "duration": 0.0977273,
                "tempo": 120.0
            },
            {
                "start_time": 37.1977273,
                "end_time": 37.2795455,
                "pitch": 67,
                "velocity": 80,
                "duration": 0.0818182,
                "tempo": 120.0
            },
            {
                "start_time": 37.4113636,
                "end_time": 37.4954545,
                "pitch": 66,
                "velocity": 80,
                "duration": 0.0840909,
                "tempo": 120.0
            },
            {
                "start_time": 37.6295455,
                "end_time": 37.7136364,
                "pitch": 64,
                "velocity": 80,
                "duration": 0.0840909,
                "tempo": 120.0
            },
            {
                "start_time": 37.7295455,
                "end_time": 37.8272727,
                "pitch": 66,
                "velocity": 80,
                "duration": 0.0977273,
                "tempo": 120.0
            },
            {
                "start_time": 37.9431818,
                "end_time": 38.0409091,
                "pitch": 62,
                "velocity": 80,
                "duration": 0.0977273,
                "tempo": 120.0
            },
            {
                "start_time": 38.1545455,
                "end_time": 38.2522727,
                "pitch": 67,
                "velocity": 80,
                "duration": 0.0977273,
                "tempo": 120.0
            },
            {
                "start_time": 38.3840909,
                "end_time": 38.4659091,
                "pitch": 66,
                "velocity": 80,
                "duration": 0.0818182,
                "tempo": 120.0
            },
            {
                "start_time": 38.4818182,
                "end_time": 38.5795455,
                "pitch": 67,
                "velocity": 80,
                "duration": 0.0977273,
                "tempo": 120.0
            },
            {
                "start_time": 38.7,
                "end_time": 38.8022727,
                "pitch": 64,
                "velocity": 80,
                "duration": 0.1022727,
                "tempo": 120.0
            },
            {
                "start_time": 38.8181818,
                "end_time": 38.9045455,
                "pitch": 66,
                "velocity": 80,
                "duration": 0.0863636,
                "tempo": 120.0
            },
            {
                "start_time": 38.9204545,
                "end_time": 39.025,
                "pitch": 67,
                "velocity": 80,
                "duration": 0.1045455,
                "tempo": 120.0
            },
            {
                "start_time": 39.0409091,
                "end_time": 39.125,
                "pitch": 69,
                "velocity": 80,
                "duration": 0.0840909,
                "tempo": 120.0
            },
            {
                "start_time": 39.2590909,
                "end_time": 39.3409091,
                "pitch": 67,
                "velocity": 80,
                "duration": 0.0818182,
                "tempo": 120.0
            },
            {
                "start_time": 39.3590909,
                "end_time": 39.4590909,
                "pitch": 66,
                "velocity": 80,
                "duration": 0.1,
                "tempo": 120.0
            },
            {
                "start_time": 39.5909091,
                "end_time": 39.6727273,
                "pitch": 67,
                "velocity": 80,
                "duration": 0.0818182,
                "tempo": 120.0
            },
            {
                "start_time": 39.6886364,
                "end_time": 39.7863636,
                "pitch": 64,
                "velocity": 80,
                "duration": 0.0977273,
                "tempo": 120.0
            },
            {
                "start_time": 39.9,
                "end_time": 40.0,
                "pitch": 69,
                "velocity": 80,
                "duration": 0.1,
                "tempo": 120.0
            },
            {
                "start_time": 40.0159091,
                "end_time": 40.0977273,
                "pitch": 57,
                "velocity": 80,
                "duration": 0.0818182,
                "tempo": 120.0
            },
            {
                "start_time": 40.1136364,
                "end_time": 40.2113636,
                "pitch": 62,
                "velocity": 80,
                "duration": 0.0977273,
                "tempo": 120.0
            },
            {
                "start_time": 40.2272727,
                "end_time": 40.3090909,
                "pitch": 64,
                "velocity": 80,
                "duration": 0.0818182,
                "tempo": 120.0
            },
            {
                "start_time": 40.325,
                "end_time": 40.4272727,
                "pitch": 57,
                "velocity": 80,
                "duration": 0.1022727,
                "tempo": 120.0
            },
            {
                "start_time": 40.4431818,
                "end_time": 40.5272727,
                "pitch": 62,
                "velocity": 80,
                "duration": 0.0840909,
                "tempo": 120.0
            },
            {
                "start_time": 40.5431818,
                "end_time": 40.6431818,
                "pitch": 64,
                "velocity": 80,
                "duration": 0.1,
                "tempo": 120.0
            },
            {
                "start_time": 40.6613636,
                "end_time": 40.7431818,
                "pitch": 57,
                "velocity": 80,
                "duration": 0.0818182,
                "tempo": 120.0
            },
            {
                "start_time": 40.7772727,
                "end_time": 41.4181818,
                "pitch": 69,
                "velocity": 80,
                "duration": 0.6409091,
                "tempo": 120.0
            },
            {
                "start_time": 41.4340909,
                "end_time": 41.5159091,
                "pitch": 62,
                "velocity": 80,
                "duration": 0.0818182,
                "tempo": 120.0
            },
            {
                "start_time": 41.5318182,
                "end_time": 41.6295455,
                "pitch": 64,
                "velocity": 80,
                "duration": 0.0977273,
                "tempo": 120.0
            },
            {
                "start_time": 41.8590909,
                "end_time": 42.0545455,
                "pitch": 66,
                "velocity": 80,
                "duration": 0.1954545,
                "tempo": 120.0
            },
            {
                "start_time": 42.0727273,
                "end_time": 42.2727273,
                "pitch": 64,
                "velocity": 80,
                "duration": 0.2,
                "tempo": 120.0
            },
            {
                "start_time": 42.2886364,
                "end_time": 42.4909091,
                "pitch": 66,
                "velocity": 80,
                "duration": 0.2022727,
                "tempo": 120.0
            },
            {
                "start_time": 42.5068182,
                "end_time": 42.8181818,
                "pitch": 67,
                "velocity": 80,
                "duration": 0.3113636,
                "tempo": 120.0
            },
            {
                "start_time": 42.8340909,
                "end_time": 43.1318182,
                "pitch": 66,
                "velocity": 80,
                "duration": 0.2977273,
                "tempo": 120.0
            },
            {
                "start_time": 43.1659091,
                "end_time": 43.3659091,
                "pitch": 62,
                "velocity": 80,
                "duration": 0.2,
                "tempo": 120.0
            },
            {
                "start_time": 43.6,
                "end_time": 43.9,
                "pitch": 66,
                "velocity": 80,
                "duration": 0.3,
                "tempo": 120.0
            },
            {
                "start_time": 43.9181818,
                "end_time": 44.2363636,
                "pitch": 64,
                "velocity": 80,
                "duration": 0.3181818,
                "tempo": 120.0
            },
            {
                "start_time": 44.2522727,
                "end_time": 44.5704545,
                "pitch": 60,
                "velocity": 80,
                "duration": 0.3181818,
                "tempo": 120.0
            },
            {
                "start_time": 44.5863636,
                "end_time": 44.8840909,
                "pitch": 64,
                "velocity": 80,
                "duration": 0.2977273,
                "tempo": 120.0
            },
            {
                "start_time": 44.9,
                "end_time": 45.0954545,
                "pitch": 62,
                "velocity": 80,
                "duration": 0.1954545,
                "tempo": 120.0
            },
            {
                "start_time": 45.325,
                "end_time": 45.5204545,
                "pitch": 66,
                "velocity": 80,
                "duration": 0.1954545,
                "tempo": 120.0
            },
            {
                "start_time": 45.5545455,
                "end_time": 45.7590909,
                "pitch": 64,
                "velocity": 80,
                "duration": 0.2045455,
                "tempo": 120.0
            },
            {
                "start_time": 45.775,
                "end_time": 45.9795455,
                "pitch": 66,
                "velocity": 80,
                "duration": 0.2045455,
                "tempo": 120.0
            },
            {
                "start_time": 45.9977273,
                "end_time": 46.2931818,
                "pitch": 67,
                "velocity": 80,
                "duration": 0.2954545,
                "tempo": 120.0
            },
            {
                "start_time": 46.3090909,
                "end_time": 46.6227273,
                "pitch": 66,
                "velocity": 80,
                "duration": 0.3136364,
                "tempo": 120.0
            },
            {
                "start_time": 46.6409091,
                "end_time": 46.8409091,
                "pitch": 62,
                "velocity": 80,
                "duration": 0.2,
                "tempo": 120.0
            },
            {
                "start_time": 47.0704545,
                "end_time": 47.3818182,
                "pitch": 66,
                "velocity": 80,
                "duration": 0.3113636,
                "tempo": 120.0
            },
            {
                "start_time": 47.3977273,
                "end_time": 47.6909091,
                "pitch": 64,
                "velocity": 80,
                "duration": 0.2931818,
                "tempo": 120.0
            },
            {
                "start_time": 47.7068182,
                "end_time": 48.025,
                "pitch": 60,
                "velocity": 80,
                "duration": 0.3181818,
                "tempo": 120.0
            },
            {
                "start_time": 48.0409091,
                "end_time": 48.3636364,
                "pitch": 64,
                "velocity": 80,
                "duration": 0.3227273,
                "tempo": 120.0
            },
            {
                "start_time": 48.3818182,
                "end_time": 48.5863636,
                "pitch": 62,
                "velocity": 80,
                "duration": 0.2045455,
                "tempo": 120.0
            },
            {
                "start_time": 48.8159091,
                "end_time": 49.0113636,
                "pitch": 66,
                "velocity": 80,
                "duration": 0.1954545,
                "tempo": 120.0
            },
            {
                "start_time": 49.0295455,
                "end_time": 49.225,
                "pitch": 64,
                "velocity": 80,
                "duration": 0.1954545,
                "tempo": 120.0
            },
            {
                "start_time": 49.2409091,
                "end_time": 49.4363636,
                "pitch": 66,
                "velocity": 80,
                "duration": 0.1954545,
                "tempo": 120.0
            },
            {
                "start_time": 49.4545455,
                "end_time": 49.7704545,
                "pitch": 67,
                "velocity": 80,
                "duration": 0.3159091,
                "tempo": 120.0
            },
            {
                "start_time": 49.7886364,
                "end_time": 50.0840909,
                "pitch": 66,
                "velocity": 80,
                "duration": 0.2954545,
                "tempo": 120.0
            },
            {
                "start_time": 50.1,
                "end_time": 50.2977273,
                "pitch": 62,
                "velocity": 80,
                "duration": 0.1977273,
                "tempo": 120.0
            },
            {
                "start_time": 50.5522727,
                "end_time": 50.8568182,
                "pitch": 66,
                "velocity": 80,
                "duration": 0.3045455,
                "tempo": 120.0
            },
            {
                "start_time": 50.8727273,
                "end_time": 51.1818182,
                "pitch": 64,
                "velocity": 80,
                "duration": 0.3090909,
                "tempo": 120.0
            },
            {
                "start_time": 51.2,
                "end_time": 51.5,
                "pitch": 60,
                "velocity": 80,
                "duration": 0.3,
                "tempo": 120.0
            },
            {
                "start_time": 51.5340909,
                "end_time": 51.8295455,
                "pitch": 64,
                "velocity": 80,
                "duration": 0.2954545,
                "tempo": 120.0
            },
            {
                "start_time": 51.8454545,
                "end_time": 52.0431818,
                "pitch": 62,
                "velocity": 80,
                "duration": 0.1977273,
                "tempo": 120.0
            },
            {
                "start_time": 52.2727273,
                "end_time": 52.4681818,
                "pitch": 66,
                "velocity": 80,
                "duration": 0.1954545,
                "tempo": 120.0
            },
            {
                "start_time": 52.4840909,
                "end_time": 52.6840909,
                "pitch": 64,
                "velocity": 80,
                "duration": 0.2,
                "tempo": 120.0
            },
            {
                "start_time": 52.7181818,
                "end_time": 52.9181818,
                "pitch": 66,
                "velocity": 80,
                "duration": 0.2,
                "tempo": 120.0
            },
            {
                "start_time": 52.9363636,
                "end_time": 53.2363636,
                "pitch": 67,
                "velocity": 80,
                "duration": 0.3,
                "tempo": 120.0
            },
            {
                "start_time": 53.2522727,
                "end_time": 53.5704545,
                "pitch": 66,
                "velocity": 80,
                "duration": 0.3181818,
                "tempo": 120.0
            },
            {
                "start_time": 53.5863636,
                "end_time": 53.7886364,
                "pitch": 62,
                "velocity": 80,
                "duration": 0.2022727,
                "tempo": 120.0
            },
            {
                "start_time": 54.0181818,
                "end_time": 54.3295455,
                "pitch": 66,
                "velocity": 80,
                "duration": 0.3113636,
                "tempo": 120.0
            },
            {
                "start_time": 54.3477273,
                "end_time": 54.6477273,
                "pitch": 64,
                "velocity": 80,
                "duration": 0.3,
                "tempo": 120.0
            },
            {
                "start_time": 54.6636364,
                "end_time": 54.975,
                "pitch": 60,
                "velocity": 80,
                "duration": 0.3113636,
                "tempo": 120.0
            },
            {
                "start_time": 54.9909091,
                "end_time": 55.3113636,
                "pitch": 64,
                "velocity": 80,
                "duration": 0.3204545,
                "tempo": 120.0
            },
            {
                "start_time": 55.3272727,
                "end_time": 55.5318182,
                "pitch": 62,
                "velocity": 80,
                "duration": 0.2045455,
                "tempo": 120.0
            },
            {
                "start_time": 55.55,
                "end_time": 55.6363636,
                "pitch": 64,
                "velocity": 80,
                "duration": 0.0863636,
                "tempo": 120.0
            },
            {
                "start_time": 55.7727273,
                "end_time": 55.8568182,
                "pitch": 57,
                "velocity": 80,
                "duration": 0.0840909,
                "tempo": 120.0
            },
            {
                "start_time": 55.9931818,
                "end_time": 56.0090909,
                "pitch": 60,
                "velocity": 80,
                "duration": 0.0159091,
                "tempo": 120.0
            }
        ],
        "Church Organ": [
            {
                "start_time": 0.0159091,
                "end_time": 0.0795455,
                "pitch": 38,
                "velocity": 101,
                "duration": 0.0636364,
                "tempo": 120.0
            },
            {
                "start_time": 0.0977273,
                "end_time": 0.1795455,
                "pitch": 40,
                "velocity": 101,
                "duration": 0.0818182,
                "tempo": 120.0
            },
            {
                "start_time": 0.625,
                "end_time": 0.7045455,
                "pitch": 38,
                "velocity": 101,
                "duration": 0.0795455,
                "tempo": 120.0
            },
            {
                "start_time": 0.7204545,
                "end_time": 0.8136364,
                "pitch": 40,
                "velocity": 101,
                "duration": 0.0931818,
                "tempo": 120.0
            },
            {
                "start_time": 1.6886364,
                "end_time": 1.7863636,
                "pitch": 38,
                "velocity": 101,
                "duration": 0.0977273,
                "tempo": 120.0
            },
            {
                "start_time": 1.8022727,
                "end_time": 1.8840909,
                "pitch": 40,
                "velocity": 101,
                "duration": 0.0818182,
                "tempo": 120.0
            },
            {
                "start_time": 2.5545455,
                "end_time": 2.6409091,
                "pitch": 38,
                "velocity": 101,
                "duration": 0.0863636,
                "tempo": 120.0
            },
            {
                "start_time": 2.6590909,
                "end_time": 2.7636364,
                "pitch": 40,
                "velocity": 101,
                "duration": 0.1045455,
                "tempo": 120.0
            },
            {
                "start_time": 2.7818182,
                "end_time": 2.8681818,
                "pitch": 50,
                "velocity": 101,
                "duration": 0.0863636,
                "tempo": 120.0
            },
            {
                "start_time": 2.8863636,
                "end_time": 3.4272727,
                "pitch": 52,
                "velocity": 101,
                "duration": 0.5409091,
                "tempo": 120.0
            },
            {
                "start_time": 3.4431818,
                "end_time": 3.525,
                "pitch": 38,
                "velocity": 101,
                "duration": 0.0818182,
                "tempo": 120.0
            },
            {
                "start_time": 3.5409091,
                "end_time": 3.6363636,
                "pitch": 40,
                "velocity": 101,
                "duration": 0.0954545,
                "tempo": 120.0
            },
            {
                "start_time": 4.0727273,
                "end_time": 4.1704545,
                "pitch": 38,
                "velocity": 101,
                "duration": 0.0977273,
                "tempo": 120.0
            },
            {
                "start_time": 4.1863636,
                "end_time": 4.2681818,
                "pitch": 40,
                "velocity": 101,
                "duration": 0.0818182,
                "tempo": 120.0
            },
            {
                "start_time": 5.1704545,
                "end_time": 5.2545455,
                "pitch": 38,
                "velocity": 101,
                "duration": 0.0840909,
                "tempo": 120.0
            },
            {
                "start_time": 5.2727273,
                "end_time": 5.3727273,
                "pitch": 40,
                "velocity": 101,
                "duration": 0.1,
                "tempo": 120.0
            },
            {
                "start_time": 6.0318182,
                "end_time": 6.1136364,
                "pitch": 38,
                "velocity": 101,
                "duration": 0.0818182,
                "tempo": 120.0
            },
            {
                "start_time": 6.1477273,
                "end_time": 6.2318182,
                "pitch": 40,
                "velocity": 101,
                "duration": 0.0840909,
                "tempo": 120.0
            },
            {
                "start_time": 6.2477273,
                "end_time": 6.3477273,
                "pitch": 50,
                "velocity": 101,
                "duration": 0.1,
                "tempo": 120.0
            },
            {
                "start_time": 6.3659091,
                "end_time": 6.8840909,
                "pitch": 48,
                "velocity": 101,
                "duration": 0.5181818,
                "tempo": 120.0
            },
            {
                "start_time": 6.9,
                "end_time": 6.9977273,
                "pitch": 38,
                "velocity": 101,
                "duration": 0.0977273,
                "tempo": 120.0
            },
            {
                "start_time": 7.0159091,
                "end_time": 7.0977273,
                "pitch": 40,
                "velocity": 101,
                "duration": 0.0818182,
                "tempo": 120.0
            },
            {
                "start_time": 7.5590909,
                "end_time": 7.6431818,
                "pitch": 38,
                "velocity": 101,
                "duration": 0.0840909,
                "tempo": 120.0
            },
            {
                "start_time": 7.6590909,
                "end_time": 7.7590909,
                "pitch": 40,
                "velocity": 101,
                "duration": 0.1,
                "tempo": 120.0
            },
            {
                "start_time": 8.6454545,
                "end_time": 8.7409091,
                "pitch": 38,
                "velocity": 101,
                "duration": 0.0954545,
                "tempo": 120.0
            },
            {
                "start_time": 8.7568182,
                "end_time": 8.8386364,
                "pitch": 40,
                "velocity": 101,
                "duration": 0.0818182,
                "tempo": 120.0
            },
            {
                "start_time": 9.4954545,
                "end_time": 9.5954545,
                "pitch": 38,
                "velocity": 101,
                "duration": 0.1,
                "tempo": 120.0
            },
            {
                "start_time": 9.6113636,
                "end_time": 9.6931818,
                "pitch": 40,
                "velocity": 101,
                "duration": 0.0818182,
                "tempo": 120.0
            },
            {
                "start_time": 9.725,
                "end_time": 9.8068182,
                "pitch": 50,
                "velocity": 101,
                "duration": 0.0818182,
                "tempo": 120.0
            },
            {
                "start_time": 9.8227273,
                "end_time": 10.375,
                "pitch": 52,
                "velocity": 101,
                "duration": 0.5522727,
                "tempo": 120.0
            },
            {
                "start_time": 10.3909091,
                "end_time": 10.4704545,
                "pitch": 38,
                "velocity": 101,
                "duration": 0.0795455,
                "tempo": 120.0
            },
            {
                "start_time": 10.4863636,
                "end_time": 10.5840909,
                "pitch": 40,
                "velocity": 101,
                "duration": 0.0977273,
                "tempo": 120.0
            },
            {
                "start_time": 11.025,
                "end_time": 11.125,
                "pitch": 38,
                "velocity": 101,
                "duration": 0.1,
                "tempo": 120.0
            },
            {
                "start_time": 11.1409091,
                "end_time": 11.225,
                "pitch": 40,
                "velocity": 101,
                "duration": 0.0840909,
                "tempo": 120.0
            },
            {
                "start_time": 12.1181818,
                "end_time": 12.2022727,
                "pitch": 38,
                "velocity": 101,
                "duration": 0.0840909,
                "tempo": 120.0
            },
            {
                "start_time": 12.2181818,
                "end_time": 12.3181818,
                "pitch": 40,
                "velocity": 101,
                "duration": 0.1,
                "tempo": 120.0
            },
            {
                "start_time": 12.9886364,
                "end_time": 13.0704545,
                "pitch": 38,
                "velocity": 101,
                "duration": 0.0818182,
                "tempo": 120.0
            },
            {
                "start_time": 13.0863636,
                "end_time": 13.1840909,
                "pitch": 40,
                "velocity": 101,
                "duration": 0.0977273,
                "tempo": 120.0
            },
            {
                "start_time": 13.2,
                "end_time": 13.2818182,
                "pitch": 50,
                "velocity": 101,
                "duration": 0.0818182,
                "tempo": 120.0
            },
            {
                "start_time": 13.3136364,
                "end_time": 13.8386364,
                "pitch": 48,
                "velocity": 101,
                "duration": 0.525,
                "tempo": 120.0
            },
            {
                "start_time": 13.8568182,
                "end_time": 13.9522727,
                "pitch": 40,
                "velocity": 101,
                "duration": 0.0954545,
                "tempo": 120.0
            },
            {
                "start_time": 13.9681818,
                "end_time": 14.0477273,
                "pitch": 42,
                "velocity": 101,
                "duration": 0.0795455,
                "tempo": 120.0
            },
            {
                "start_time": 14.0636364,
                "end_time": 14.1613636,
                "pitch": 43,
                "velocity": 101,
                "duration": 0.0977273,
                "tempo": 120.0
            },
            {
                "start_time": 14.1772727,
                "end_time": 14.2568182,
                "pitch": 42,
                "velocity": 101,
                "duration": 0.0795455,
                "tempo": 120.0
            },
            {
                "start_time": 14.2727273,
                "end_time": 14.3727273,
                "pitch": 43,
                "velocity": 101,
                "duration": 0.1,
                "tempo": 120.0
            },
            {
                "start_time": 14.3886364,
                "end_time": 14.4727273,
                "pitch": 45,
                "velocity": 101,
                "duration": 0.0840909,
                "tempo": 120.0
            },
            {
                "start_time": 14.5068182,
                "end_time": 14.5909091,
                "pitch": 43,
                "velocity": 101,
                "duration": 0.0840909,
                "tempo": 120.0
            },
            {
                "start_time": 14.6068182,
                "end_time": 14.7068182,
                "pitch": 42,
                "velocity": 101,
                "duration": 0.1,
                "tempo": 120.0
            },
            {
                "start_time": 14.7227273,
                "end_time": 14.8090909,
                "pitch": 43,
                "velocity": 101,
                "duration": 0.0863636,
                "tempo": 120.0
            },
            {
                "start_time": 14.8272727,
                "end_time": 14.9295455,
                "pitch": 42,
                "velocity": 101,
                "duration": 0.1022727,
                "tempo": 120.0
            },
            {
                "start_time": 14.9454545,
                "end_time": 15.0318182,
                "pitch": 40,
                "velocity": 101,
                "duration": 0.0863636,
                "tempo": 120.0
            },
            {
                "start_time": 15.0477273,
                "end_time": 15.5772727,
                "pitch": 38,
                "velocity": 101,
                "duration": 0.5295455,
                "tempo": 120.0
            },
            {
                "start_time": 15.5931818,
                "end_time": 15.6772727,
                "pitch": 40,
                "velocity": 101,
                "duration": 0.0840909,
                "tempo": 120.0
            },
            {
                "start_time": 15.7113636,
                "end_time": 15.7931818,
                "pitch": 42,
                "velocity": 101,
                "duration": 0.0818182,
                "tempo": 120.0
            },
            {
                "start_time": 15.8113636,
                "end_time": 15.9113636,
                "pitch": 43,
                "velocity": 101,
                "duration": 0.1,
                "tempo": 120.0
            },
            {
                "start_time": 15.9272727,
                "end_time": 16.0113636,
                "pitch": 42,
                "velocity": 101,
                "duration": 0.0840909,
                "tempo": 120.0
            },
            {
                "start_time": 16.0272727,
                "end_time": 16.125,
                "pitch": 43,
                "velocity": 101,
                "duration": 0.0977273,
                "tempo": 120.0
            },
            {
                "start_time": 16.1431818,
                "end_time": 16.225,
                "pitch": 45,
                "velocity": 101,
                "duration": 0.0818182,
                "tempo": 120.0
            },
            {
                "start_time": 16.2409091,
                "end_time": 16.3386364,
                "pitch": 43,
                "velocity": 101,
                "duration": 0.0977273,
                "tempo": 120.0
            },
            {
                "start_time": 16.3545455,
                "end_time": 16.4363636,
                "pitch": 42,
                "velocity": 101,
                "duration": 0.0818182,
                "tempo": 120.0
            },
            {
                "start_time": 16.4522727,
                "end_time": 16.5522727,
                "pitch": 43,
                "velocity": 101,
                "duration": 0.1,
                "tempo": 120.0
            },
            {
                "start_time": 16.5704545,
                "end_time": 16.6545455,
                "pitch": 42,
                "velocity": 101,
                "duration": 0.0840909,
                "tempo": 120.0
            },
            {
                "start_time": 16.6704545,
                "end_time": 16.7704545,
                "pitch": 43,
                "velocity": 101,
                "duration": 0.1,
                "tempo": 120.0
            },
            {
                "start_time": 16.7863636,
                "end_time": 17.3227273,
                "pitch": 45,
                "velocity": 101,
                "duration": 0.5363636,
                "tempo": 120.0
            },
            {
                "start_time": 17.3386364,
                "end_time": 17.4204545,
                "pitch": 45,
                "velocity": 101,
                "duration": 0.0818182,
                "tempo": 120.0
            },
            {
                "start_time": 17.4363636,
                "end_time": 17.5340909,
                "pitch": 47,
                "velocity": 101,
                "duration": 0.0977273,
                "tempo": 120.0
            },
            {
                "start_time": 17.5522727,
                "end_time": 17.6340909,
                "pitch": 48,
                "velocity": 101,
                "duration": 0.0818182,
                "tempo": 120.0
            },
            {
                "start_time": 17.65,
                "end_time": 17.7477273,
                "pitch": 47,
                "velocity": 101,
                "duration": 0.0977273,
                "tempo": 120.0
            },
            {
                "start_time": 17.7636364,
                "end_time": 17.8477273,
                "pitch": 48,
                "velocity": 101,
                "duration": 0.0840909,
                "tempo": 120.0
            },
            {
                "start_time": 17.8636364,
                "end_time": 17.9636364,
                "pitch": 50,
                "velocity": 101,
                "duration": 0.1,
                "tempo": 120.0
            },
            {
                "start_time": 17.9818182,
                "end_time": 18.0636364,
                "pitch": 48,
                "velocity": 101,
                "duration": 0.0818182,
                "tempo": 120.0
            },
            {
                "start_time": 18.0977273,
                "end_time": 18.1818182,
                "pitch": 47,
                "velocity": 101,
                "duration": 0.0840909,
                "tempo": 120.0
            },
            {
                "start_time": 18.1977273,
                "end_time": 18.2954545,
                "pitch": 48,
                "velocity": 101,
                "duration": 0.0977273,
                "tempo": 120.0
            },
            {
                "start_time": 18.3136364,
                "end_time": 18.3954545,
                "pitch": 47,
                "velocity": 101,
                "duration": 0.0818182,
                "tempo": 120.0
            },
            {
                "start_time": 18.4113636,
                "end_time": 18.5090909,
                "pitch": 45,
                "velocity": 101,
                "duration": 0.0977273,
                "tempo": 120.0
            },
            {
                "start_time": 18.525,
                "end_time": 19.0409091,
                "pitch": 43,
                "velocity": 101,
                "duration": 0.5159091,
                "tempo": 120.0
            },
            {
                "start_time": 19.0590909,
                "end_time": 19.1568182,
                "pitch": 45,
                "velocity": 101,
                "duration": 0.0977273,
                "tempo": 120.0
            },
            {
                "start_time": 19.1727273,
                "end_time": 19.2545455,
                "pitch": 47,
                "velocity": 101,
                "duration": 0.0818182,
                "tempo": 120.0
            },
            {
                "start_time": 19.2863636,
                "end_time": 19.3681818,
                "pitch": 48,
                "velocity": 101,
                "duration": 0.0818182,
                "tempo": 120.0
            },
            {
                "start_time": 19.3863636,
                "end_time": 19.4840909,
                "pitch": 47,
                "velocity": 101,
                "duration": 0.0977273,
                "tempo": 120.0
            },
            {
                "start_time": 19.5,
                "end_time": 19.5840909,
                "pitch": 48,
                "velocity": 101,
                "duration": 0.0840909,
                "tempo": 120.0
            },
            {
                "start_time": 19.6,
                "end_time": 19.7,
                "pitch": 50,
                "velocity": 101,
                "duration": 0.1,
                "tempo": 120.0
            },
            {
                "start_time": 19.7181818,
                "end_time": 19.8,
                "pitch": 48,
                "velocity": 101,
                "duration": 0.0818182,
                "tempo": 120.0
            },
            {
                "start_time": 19.8181818,
                "end_time": 19.9181818,
                "pitch": 47,
                "velocity": 101,
                "duration": 0.1,
                "tempo": 120.0
            },
            {
                "start_time": 19.9340909,
                "end_time": 20.0181818,
                "pitch": 45,
                "velocity": 101,
                "duration": 0.0840909,
                "tempo": 120.0
            },
            {
                "start_time": 20.0340909,
                "end_time": 20.1340909,
                "pitch": 43,
                "velocity": 101,
                "duration": 0.1,
                "tempo": 120.0
            },
            {
                "start_time": 20.1522727,
                "end_time": 20.2363636,
                "pitch": 45,
                "velocity": 101,
                "duration": 0.0840909,
                "tempo": 120.0
            },
            {
                "start_time": 20.2522727,
                "end_time": 20.3522727,
                "pitch": 43,
                "velocity": 101,
                "duration": 0.1,
                "tempo": 120.0
            },
            {
                "start_time": 20.3681818,
                "end_time": 20.45,
                "pitch": 42,
                "velocity": 101,
                "duration": 0.0818182,
                "tempo": 120.0
            },
            {
                "start_time": 20.4840909,
                "end_time": 20.5659091,
                "pitch": 43,
                "velocity": 101,
                "duration": 0.0818182,
                "tempo": 120.0
            },
            {
                "start_time": 20.5818182,
                "end_time": 20.6795455,
                "pitch": 42,
                "velocity": 101,
                "duration": 0.0977273,
                "tempo": 120.0
            },
            {
                "start_time": 20.6954545,
                "end_time": 20.7772727,
                "pitch": 40,
                "velocity": 101,
                "duration": 0.0818182,
                "tempo": 120.0
            },
            {
                "start_time": 20.7931818,
                "end_time": 20.8931818,
                "pitch": 38,
                "velocity": 101,
                "duration": 0.1,
                "tempo": 120.0
            },
            {
                "start_time": 20.9090909,
                "end_time": 20.9909091,
                "pitch": 40,
                "velocity": 101,
                "duration": 0.0818182,
                "tempo": 120.0
            },
            {
                "start_time": 21.4318182,
                "end_time": 21.5295455,
                "pitch": 38,
                "velocity": 101,
                "duration": 0.0977273,
                "tempo": 120.0
            },
            {
                "start_time": 21.5454545,
                "end_time": 21.6272727,
                "pitch": 40,
                "velocity": 101,
                "duration": 0.0818182,
                "tempo": 120.0
            },
            {
                "start_time": 22.5409091,
                "end_time": 22.6227273,
                "pitch": 38,
                "velocity": 101,
                "duration": 0.0818182,
                "tempo": 120.0
            },
            {
                "start_time": 22.6386364,
                "end_time": 22.7363636,
                "pitch": 40,
                "velocity": 101,
                "duration": 0.0977273,
                "tempo": 120.0
            },
            {
                "start_time": 23.3909091,
                "end_time": 23.4909091,
                "pitch": 38,
                "velocity": 101,
                "duration": 0.1,
                "tempo": 120.0
            },
            {
                "start_time": 23.5068182,
                "end_time": 23.5909091,
                "pitch": 40,
                "velocity": 101,
                "duration": 0.0840909,
                "tempo": 120.0
            },
            {
                "start_time": 23.6090909,
                "end_time": 23.7090909,
                "pitch": 50,
                "velocity": 101,
                "duration": 0.1,
                "tempo": 120.0
            },
            {
                "start_time": 23.725,
                "end_time": 24.2590909,
                "pitch": 52,
                "velocity": 101,
                "duration": 0.5340909,
                "tempo": 120.0
            },
            {
                "start_time": 24.2772727,
                "end_time": 24.3613636,
                "pitch": 38,
                "velocity": 101,
                "duration": 0.0840909,
                "tempo": 120.0
            },
            {
                "start_time": 24.3772727,
                "end_time": 24.4772727,
                "pitch": 40,
                "velocity": 101,
                "duration": 0.1,
                "tempo": 120.0
            },
            {
                "start_time": 24.9227273,
                "end_time": 25.0045455,
                "pitch": 38,
                "velocity": 101,
                "duration": 0.0818182,
                "tempo": 120.0
            },
            {
                "start_time": 25.0227273,
                "end_time": 25.1204545,
                "pitch": 40,
                "velocity": 101,
                "duration": 0.0977273,
                "tempo": 120.0
            },
            {
                "start_time": 26.0045455,
                "end_time": 26.1022727,
                "pitch": 38,
                "velocity": 101,
                "duration": 0.0977273,
                "tempo": 120.0
            },
            {
                "start_time": 26.1181818,
                "end_time": 26.1977273,
                "pitch": 40,
                "velocity": 101,
                "duration": 0.0795455,
                "tempo": 120.0
            },
            {
                "start_time": 26.8818182,
                "end_time": 26.9659091,
                "pitch": 38,
                "velocity": 101,
                "duration": 0.0840909,
                "tempo": 120.0
            },
            {
                "start_time": 26.9818182,
                "end_time": 27.0840909,
                "pitch": 40,
                "velocity": 101,
                "duration": 0.1022727,
                "tempo": 120.0
            },
            {
                "start_time": 27.1,
                "end_time": 27.1840909,
                "pitch": 50,
                "velocity": 101,
                "duration": 0.0840909,
                "tempo": 120.0
            },
            {
                "start_time": 27.2,
                "end_time": 27.7340909,
                "pitch": 48,
                "velocity": 101,
                "duration": 0.5340909,
                "tempo": 120.0
            },
            {
                "start_time": 27.7522727,
                "end_time": 27.85,
                "pitch": 38,
                "velocity": 101,
                "duration": 0.0977273,
                "tempo": 120.0
            },
            {
                "start_time": 27.8659091,
                "end_time": 27.9477273,
                "pitch": 40,
                "velocity": 101,
                "duration": 0.0818182,
                "tempo": 120.0
            },
            {
                "start_time": 28.3886364,
                "end_time": 28.4886364,
                "pitch": 38,
                "velocity": 101,
                "duration": 0.1,
                "tempo": 120.0
            },
            {
                "start_time": 28.5045455,
                "end_time": 28.5863636,
                "pitch": 40,
                "velocity": 101,
                "duration": 0.0818182,
                "tempo": 120.0
            },
            {
                "start_time": 29.4977273,
                "end_time": 29.5772727,
                "pitch": 38,
                "velocity": 101,
                "duration": 0.0795455,
                "tempo": 120.0
            },
            {
                "start_time": 29.5931818,
                "end_time": 29.6886364,
                "pitch": 40,
                "velocity": 101,
                "duration": 0.0954545,
                "tempo": 120.0
            },
            {
                "start_time": 30.3477273,
                "end_time": 30.4454545,
                "pitch": 38,
                "velocity": 101,
                "duration": 0.0977273,
                "tempo": 120.0
            },
            {
                "start_time": 30.4613636,
                "end_time": 30.5431818,
                "pitch": 40,
                "velocity": 101,
                "duration": 0.0818182,
                "tempo": 120.0
            },
            {
                "start_time": 30.5613636,
                "end_time": 30.6590909,
                "pitch": 50,
                "velocity": 101,
                "duration": 0.0977273,
                "tempo": 120.0
            },
            {
                "start_time": 30.675,
                "end_time": 31.2,
                "pitch": 52,
                "velocity": 101,
                "duration": 0.525,
                "tempo": 120.0
            },
            {
                "start_time": 31.2340909,
                "end_time": 31.3159091,
                "pitch": 38,
                "velocity": 101,
                "duration": 0.0818182,
                "tempo": 120.0
            },
            {
                "start_time": 31.3318182,
                "end_time": 31.4295455,
                "pitch": 40,
                "velocity": 101,
                "duration": 0.0977273,
                "tempo": 120.0
            },
            {
                "start_time": 31.875,
                "end_time": 31.9590909,
                "pitch": 38,
                "velocity": 101,
                "duration": 0.0840909,
                "tempo": 120.0
            },
            {
                "start_time": 31.9772727,
                "end_time": 32.0772727,
                "pitch": 40,
                "velocity": 101,
                "duration": 0.1,
                "tempo": 120.0
            },
            {
                "start_time": 32.9522727,
                "end_time": 33.05,
                "pitch": 38,
                "velocity": 101,
                "duration": 0.0977273,
                "tempo": 120.0
            },
            {
                "start_time": 33.0681818,
                "end_time": 33.15,
                "pitch": 40,
                "velocity": 101,
                "duration": 0.0818182,
                "tempo": 120.0
            },
            {
                "start_time": 33.8204545,
                "end_time": 33.9045455,
                "pitch": 38,
                "velocity": 101,
                "duration": 0.0840909,
                "tempo": 120.0
            },
            {
                "start_time": 33.9227273,
                "end_time": 34.025,
                "pitch": 40,
                "velocity": 101,
                "duration": 0.1022727,
                "tempo": 120.0
            },
            {
                "start_time": 34.0409091,
                "end_time": 34.1272727,
                "pitch": 50,
                "velocity": 101,
                "duration": 0.0863636,
                "tempo": 120.0
            },
            {
                "start_time": 34.1454545,
                "end_time": 34.6818182,
                "pitch": 48,
                "velocity": 101,
                "duration": 0.5363636,
                "tempo": 120.0
            },
            {
                "start_time": 34.6977273,
                "end_time": 34.7795455,
                "pitch": 38,
                "velocity": 101,
                "duration": 0.0818182,
                "tempo": 120.0
            },
            {
                "start_time": 34.8136364,
                "end_time": 34.8954545,
                "pitch": 40,
                "velocity": 101,
                "duration": 0.0818182,
                "tempo": 120.0
            },
            {
                "start_time": 35.3363636,
                "end_time": 35.4340909,
                "pitch": 38,
                "velocity": 101,
                "duration": 0.0977273,
                "tempo": 120.0
            },
            {
                "start_time": 35.4522727,
                "end_time": 35.5318182,
                "pitch": 40,
                "velocity": 101,
                "duration": 0.0795455,
                "tempo": 120.0
            },
            {
                "start_time": 36.4454545,
                "end_time": 36.5272727,
                "pitch": 40,
                "velocity": 101,
                "duration": 0.0818182,
                "tempo": 120.0
            },
            {
                "start_time": 36.5431818,
                "end_time": 36.6409091,
                "pitch": 42,
                "velocity": 101,
                "duration": 0.0977273,
                "tempo": 120.0
            },
            {
                "start_time": 37.0818182,
                "end_time": 37.1636364,
                "pitch": 40,
                "velocity": 101,
                "duration": 0.0818182,
                "tempo": 120.0
            },
            {
                "start_time": 37.1977273,
                "end_time": 37.2795455,
                "pitch": 42,
                "velocity": 101,
                "duration": 0.0818182,
                "tempo": 120.0
            },
            {
                "start_time": 38.1545455,
                "end_time": 38.2522727,
                "pitch": 42,
                "velocity": 101,
                "duration": 0.0977273,
                "tempo": 120.0
            },
            {
                "start_time": 38.2704545,
                "end_time": 38.3522727,
                "pitch": 43,
                "velocity": 101,
                "duration": 0.0818182,
                "tempo": 120.0
            },
            {
                "start_time": 38.8181818,
                "end_time": 38.9045455,
                "pitch": 42,
                "velocity": 101,
                "duration": 0.0863636,
                "tempo": 120.0
            },
            {
                "start_time": 38.9204545,
                "end_time": 39.025,
                "pitch": 43,
                "velocity": 101,
                "duration": 0.1045455,
                "tempo": 120.0
            },
            {
                "start_time": 39.9,
                "end_time": 40.0977273,
                "pitch": 43,
                "velocity": 101,
                "duration": 0.1977273,
                "tempo": 120.0
            },
            {
                "start_time": 40.1136364,
                "end_time": 40.3090909,
                "pitch": 43,
                "velocity": 101,
                "duration": 0.1954545,
                "tempo": 120.0
            },
            {
                "start_time": 40.325,
                "end_time": 40.5272727,
                "pitch": 43,
                "velocity": 101,
                "duration": 0.2022727,
                "tempo": 120.0
            },
            {
                "start_time": 40.5431818,
                "end_time": 40.7431818,
                "pitch": 43,
                "velocity": 101,
                "duration": 0.2,
                "tempo": 120.0
            },
            {
                "start_time": 40.7772727,
                "end_time": 41.6295455,
                "pitch": 45,
                "velocity": 101,
                "duration": 0.8522727,
                "tempo": 120.0
            },
            {
                "start_time": 41.6477273,
                "end_time": 43.1318182,
                "pitch": 50,
                "velocity": 101,
                "duration": 1.4840909,
                "tempo": 120.0
            },
            {
                "start_time": 43.1659091,
                "end_time": 43.25,
                "pitch": 45,
                "velocity": 101,
                "duration": 0.0840909,
                "tempo": 120.0
            },
            {
                "start_time": 43.2659091,
                "end_time": 43.3659091,
                "pitch": 47,
                "velocity": 101,
                "duration": 0.1,
                "tempo": 120.0
            },
            {
                "start_time": 43.3818182,
                "end_time": 44.0181818,
                "pitch": 48,
                "velocity": 101,
                "duration": 0.6363636,
                "tempo": 120.0
            },
            {
                "start_time": 44.0340909,
                "end_time": 44.6704545,
                "pitch": 40,
                "velocity": 101,
                "duration": 0.6363636,
                "tempo": 120.0
            },
            {
                "start_time": 44.6863636,
                "end_time": 45.0954545,
                "pitch": 43,
                "velocity": 101,
                "duration": 0.4090909,
                "tempo": 120.0
            },
            {
                "start_time": 45.1113636,
                "end_time": 46.6227273,
                "pitch": 50,
                "velocity": 101,
                "duration": 1.5113636,
                "tempo": 120.0
            },
            {
                "start_time": 46.6409091,
                "end_time": 46.7227273,
                "pitch": 45,
                "velocity": 101,
                "duration": 0.0818182,
                "tempo": 120.0
            },
            {
                "start_time": 46.7568182,
                "end_time": 46.8409091,
                "pitch": 47,
                "velocity": 101,
                "duration": 0.0840909,
                "tempo": 120.0
            },
            {
                "start_time": 46.8568182,
                "end_time": 47.4795455,
                "pitch": 48,
                "velocity": 101,
                "duration": 0.6227273,
                "tempo": 120.0
            },
            {
                "start_time": 47.4954545,
                "end_time": 48.1431818,
                "pitch": 40,
                "velocity": 101,
                "duration": 0.6477273,
                "tempo": 120.0
            },
            {
                "start_time": 48.1590909,
                "end_time": 48.5863636,
                "pitch": 43,
                "velocity": 101,
                "duration": 0.4272727,
                "tempo": 120.0
            },
            {
                "start_time": 48.6022727,
                "end_time": 50.0840909,
                "pitch": 50,
                "velocity": 101,
                "duration": 1.4818182,
                "tempo": 120.0
            },
            {
                "start_time": 50.1,
                "end_time": 50.2,
                "pitch": 45,
                "velocity": 101,
                "duration": 0.1,
                "tempo": 120.0
            },
            {
                "start_time": 50.2159091,
                "end_time": 50.2977273,
                "pitch": 47,
                "velocity": 101,
                "duration": 0.0818182,
                "tempo": 120.0
            },
            {
                "start_time": 50.3295455,
                "end_time": 50.9704545,
                "pitch": 48,
                "velocity": 101,
                "duration": 0.6409091,
                "tempo": 120.0
            },
            {
                "start_time": 50.9863636,
                "end_time": 51.6159091,
                "pitch": 40,
                "velocity": 101,
                "duration": 0.6295455,
                "tempo": 120.0
            },
            {
                "start_time": 51.6340909,
                "end_time": 52.0431818,
                "pitch": 43,
                "velocity": 101,
                "duration": 0.4090909,
                "tempo": 120.0
            },
            {
                "start_time": 52.0590909,
                "end_time": 53.5704545,
                "pitch": 50,
                "velocity": 101,
                "duration": 1.5113636,
                "tempo": 120.0
            },
            {
                "start_time": 53.5863636,
                "end_time": 53.6704545,
                "pitch": 45,
                "velocity": 101,
                "duration": 0.0840909,
                "tempo": 120.0
            },
            {
                "start_time": 53.6886364,
                "end_time": 53.7886364,
                "pitch": 47,
                "velocity": 101,
                "duration": 0.1,
                "tempo": 120.0
            },
            {
                "start_time": 53.8045455,
                "end_time": 54.4295455,
                "pitch": 48,
                "velocity": 101,
                "duration": 0.625,
                "tempo": 120.0
            },
            {
                "start_time": 54.4477273,
                "end_time": 55.0727273,
                "pitch": 40,
                "velocity": 101,
                "duration": 0.625,
                "tempo": 120.0
            },
            {
                "start_time": 55.1068182,
                "end_time": 55.5318182,
                "pitch": 43,
                "velocity": 101,
                "duration": 0.425,
                "tempo": 120.0
            },
            {
                "start_time": 55.55,
                "end_time": 55.6363636,
                "pitch": 38,
                "velocity": 101,
                "duration": 0.0863636,
                "tempo": 120.0
            },
            {
                "start_time": 55.6522727,
                "end_time": 55.7545455,
                "pitch": 40,
                "velocity": 101,
                "duration": 0.1022727,
                "tempo": 120.0
            }
        ],
        "Trumpet": [
            {
                "start_time": 0.0159091,
                "end_time": 0.0795455,
                "pitch": 43,
                "velocity": 80,
                "duration": 0.0636364,
                "tempo": 120.0
            },
            {
                "start_time": 0.0977273,
                "end_time": 0.1795455,
                "pitch": 45,
                "velocity": 80,
                "duration": 0.0818182,
                "tempo": 120.0
            },
            {
                "start_time": 0.625,
                "end_time": 0.7045455,
                "pitch": 43,
                "velocity": 80,
                "duration": 0.0795455,
                "tempo": 120.0
            },
            {
                "start_time": 0.7204545,
                "end_time": 0.8136364,
                "pitch": 45,
                "velocity": 80,
                "duration": 0.0931818,
                "tempo": 120.0
            },
            {
                "start_time": 1.6886364,
                "end_time": 1.7863636,
                "pitch": 43,
                "velocity": 80,
                "duration": 0.0977273,
                "tempo": 120.0
            },
            {
                "start_time": 1.8022727,
                "end_time": 1.8840909,
                "pitch": 45,
                "velocity": 80,
                "duration": 0.0818182,
                "tempo": 120.0
            },
            {
                "start_time": 2.5545455,
                "end_time": 2.6409091,
                "pitch": 43,
                "velocity": 80,
                "duration": 0.0863636,
                "tempo": 120.0
            },
            {
                "start_time": 2.6590909,
                "end_time": 2.7636364,
                "pitch": 45,
                "velocity": 80,
                "duration": 0.1045455,
                "tempo": 120.0
            },
            {
                "start_time": 2.7818182,
                "end_time": 2.8681818,
                "pitch": 55,
                "velocity": 80,
                "duration": 0.0863636,
                "tempo": 120.0
            },
            {
                "start_time": 2.8863636,
                "end_time": 3.4272727,
                "pitch": 57,
                "velocity": 80,
                "duration": 0.5409091,
                "tempo": 120.0
            },
            {
                "start_time": 3.4431818,
                "end_time": 3.525,
                "pitch": 43,
                "velocity": 80,
                "duration": 0.0818182,
                "tempo": 120.0
            },
            {
                "start_time": 3.5409091,
                "end_time": 3.6363636,
                "pitch": 45,
                "velocity": 80,
                "duration": 0.0954545,
                "tempo": 120.0
            },
            {
                "start_time": 4.0727273,
                "end_time": 4.1704545,
                "pitch": 43,
                "velocity": 80,
                "duration": 0.0977273,
                "tempo": 120.0
            },
            {
                "start_time": 4.1863636,
                "end_time": 4.2681818,
                "pitch": 45,
                "velocity": 80,
                "duration": 0.0818182,
                "tempo": 120.0
            },
            {
                "start_time": 5.1704545,
                "end_time": 5.2545455,
                "pitch": 43,
                "velocity": 80,
                "duration": 0.0840909,
                "tempo": 120.0
            },
            {
                "start_time": 5.2727273,
                "end_time": 5.3727273,
                "pitch": 45,
                "velocity": 80,
                "duration": 0.1,
                "tempo": 120.0
            },
            {
                "start_time": 6.0318182,
                "end_time": 6.1136364,
                "pitch": 43,
                "velocity": 80,
                "duration": 0.0818182,
                "tempo": 120.0
            },
            {
                "start_time": 6.1477273,
                "end_time": 6.2318182,
                "pitch": 45,
                "velocity": 80,
                "duration": 0.0840909,
                "tempo": 120.0
            },
            {
                "start_time": 6.2477273,
                "end_time": 6.3477273,
                "pitch": 55,
                "velocity": 80,
                "duration": 0.1,
                "tempo": 120.0
            },
            {
                "start_time": 6.3659091,
                "end_time": 6.8840909,
                "pitch": 53,
                "velocity": 80,
                "duration": 0.5181818,
                "tempo": 120.0
            },
            {
                "start_time": 6.9,
                "end_time": 6.9977273,
                "pitch": 43,
                "velocity": 80,
                "duration": 0.0977273,
                "tempo": 120.0
            },
            {
                "start_time": 7.0159091,
                "end_time": 7.0977273,
                "pitch": 45,
                "velocity": 80,
                "duration": 0.0818182,
                "tempo": 120.0
            },
            {
                "start_time": 7.5590909,
                "end_time": 7.6431818,
                "pitch": 43,
                "velocity": 80,
                "duration": 0.0840909,
                "tempo": 120.0
            },
            {
                "start_time": 7.6590909,
                "end_time": 7.7590909,
                "pitch": 45,
                "velocity": 80,
                "duration": 0.1,
                "tempo": 120.0
            },
            {
                "start_time": 8.6454545,
                "end_time": 8.7409091,
                "pitch": 43,
                "velocity": 80,
                "duration": 0.0954545,
                "tempo": 120.0
            },
            {
                "start_time": 8.7568182,
                "end_time": 8.8386364,
                "pitch": 45,
                "velocity": 80,
                "duration": 0.0818182,
                "tempo": 120.0
            },
            {
                "start_time": 9.4954545,
                "end_time": 9.5954545,
                "pitch": 43,
                "velocity": 80,
                "duration": 0.1,
                "tempo": 120.0
            },
            {
                "start_time": 9.6113636,
                "end_time": 9.6931818,
                "pitch": 45,
                "velocity": 80,
                "duration": 0.0818182,
                "tempo": 120.0
            },
            {
                "start_time": 9.725,
                "end_time": 9.8068182,
                "pitch": 55,
                "velocity": 80,
                "duration": 0.0818182,
                "tempo": 120.0
            },
            {
                "start_time": 9.8227273,
                "end_time": 10.375,
                "pitch": 57,
                "velocity": 80,
                "duration": 0.5522727,
                "tempo": 120.0
            },
            {
                "start_time": 10.3909091,
                "end_time": 10.4704545,
                "pitch": 43,
                "velocity": 80,
                "duration": 0.0795455,
                "tempo": 120.0
            },
            {
                "start_time": 10.4863636,
                "end_time": 10.5840909,
                "pitch": 45,
                "velocity": 80,
                "duration": 0.0977273,
                "tempo": 120.0
            },
            {
                "start_time": 11.025,
                "end_time": 11.125,
                "pitch": 43,
                "velocity": 80,
                "duration": 0.1,
                "tempo": 120.0
            },
            {
                "start_time": 11.1409091,
                "end_time": 11.225,
                "pitch": 45,
                "velocity": 80,
                "duration": 0.0840909,
                "tempo": 120.0
            },
            {
                "start_time": 12.1181818,
                "end_time": 12.2022727,
                "pitch": 43,
                "velocity": 80,
                "duration": 0.0840909,
                "tempo": 120.0
            },
            {
                "start_time": 12.2181818,
                "end_time": 12.3181818,
                "pitch": 45,
                "velocity": 80,
                "duration": 0.1,
                "tempo": 120.0
            },
            {
                "start_time": 12.9886364,
                "end_time": 13.0704545,
                "pitch": 43,
                "velocity": 80,
                "duration": 0.0818182,
                "tempo": 120.0
            },
            {
                "start_time": 13.0863636,
                "end_time": 13.1840909,
                "pitch": 45,
                "velocity": 80,
                "duration": 0.0977273,
                "tempo": 120.0
            },
            {
                "start_time": 13.2,
                "end_time": 13.2818182,
                "pitch": 55,
                "velocity": 80,
                "duration": 0.0818182,
                "tempo": 120.0
            },
            {
                "start_time": 13.3136364,
                "end_time": 13.8386364,
                "pitch": 53,
                "velocity": 80,
                "duration": 0.525,
                "tempo": 120.0
            },
            {
                "start_time": 13.8568182,
                "end_time": 13.9522727,
                "pitch": 45,
                "velocity": 80,
                "duration": 0.0954545,
                "tempo": 120.0
            },
            {
                "start_time": 13.9681818,
                "end_time": 14.0477273,
                "pitch": 47,
                "velocity": 80,
                "duration": 0.0795455,
                "tempo": 120.0
            },
            {
                "start_time": 14.0636364,
                "end_time": 14.1613636,
                "pitch": 48,
                "velocity": 80,
                "duration": 0.0977273,
                "tempo": 120.0
            },
            {
                "start_time": 14.1772727,
                "end_time": 14.2568182,
                "pitch": 47,
                "velocity": 80,
                "duration": 0.0795455,
                "tempo": 120.0
            },
            {
                "start_time": 14.2727273,
                "end_time": 14.3727273,
                "pitch": 48,
                "velocity": 80,
                "duration": 0.1,
                "tempo": 120.0
            },
            {
                "start_time": 14.3886364,
                "end_time": 14.4727273,
                "pitch": 50,
                "velocity": 80,
                "duration": 0.0840909,
                "tempo": 120.0
            },
            {
                "start_time": 14.5068182,
                "end_time": 14.5909091,
                "pitch": 48,
                "velocity": 80,
                "duration": 0.0840909,
                "tempo": 120.0
            },
            {
                "start_time": 14.6068182,
                "end_time": 14.7068182,
                "pitch": 47,
                "velocity": 80,
                "duration": 0.1,
                "tempo": 120.0
            },
            {
                "start_time": 14.7227273,
                "end_time": 14.8090909,
                "pitch": 48,
                "velocity": 80,
                "duration": 0.0863636,
                "tempo": 120.0
            },
            {
                "start_time": 14.8272727,
                "end_time": 14.9295455,
                "pitch": 47,
                "velocity": 80,
                "duration": 0.1022727,
                "tempo": 120.0
            },
            {
                "start_time": 14.9454545,
                "end_time": 15.0318182,
                "pitch": 45,
                "velocity": 80,
                "duration": 0.0863636,
                "tempo": 120.0
            },
            {
                "start_time": 15.0477273,
                "end_time": 15.5772727,
                "pitch": 43,
                "velocity": 80,
                "duration": 0.5295455,
                "tempo": 120.0
            },
            {
                "start_time": 15.5931818,
                "end_time": 15.6772727,
                "pitch": 45,
                "velocity": 80,
                "duration": 0.0840909,
                "tempo": 120.0
            },
            {
                "start_time": 15.7113636,
                "end_time": 15.7931818,
                "pitch": 47,
                "velocity": 80,
                "duration": 0.0818182,
                "tempo": 120.0
            },
            {
                "start_time": 15.8113636,
                "end_time": 15.9113636,
                "pitch": 48,
                "velocity": 80,
                "duration": 0.1,
                "tempo": 120.0
            },
            {
                "start_time": 15.9272727,
                "end_time": 16.0113636,
                "pitch": 47,
                "velocity": 80,
                "duration": 0.0840909,
                "tempo": 120.0
            },
            {
                "start_time": 16.0272727,
                "end_time": 16.125,
                "pitch": 48,
                "velocity": 80,
                "duration": 0.0977273,
                "tempo": 120.0
            },
            {
                "start_time": 16.1431818,
                "end_time": 16.225,
                "pitch": 50,
                "velocity": 80,
                "duration": 0.0818182,
                "tempo": 120.0
            },
            {
                "start_time": 16.2409091,
                "end_time": 16.3386364,
                "pitch": 48,
                "velocity": 80,
                "duration": 0.0977273,
                "tempo": 120.0
            },
            {
                "start_time": 16.3545455,
                "end_time": 16.4363636,
                "pitch": 47,
                "velocity": 80,
                "duration": 0.0818182,
                "tempo": 120.0
            },
            {
                "start_time": 16.4522727,
                "end_time": 16.5522727,
                "pitch": 48,
                "velocity": 80,
                "duration": 0.1,
                "tempo": 120.0
            },
            {
                "start_time": 16.5704545,
                "end_time": 16.6545455,
                "pitch": 47,
                "velocity": 80,
                "duration": 0.0840909,
                "tempo": 120.0
            },
            {
                "start_time": 16.6704545,
                "end_time": 16.7704545,
                "pitch": 48,
                "velocity": 80,
                "duration": 0.1,
                "tempo": 120.0
            },
            {
                "start_time": 16.7863636,
                "end_time": 17.3227273,
                "pitch": 50,
                "velocity": 80,
                "duration": 0.5363636,
                "tempo": 120.0
            },
            {
                "start_time": 17.3386364,
                "end_time": 17.4204545,
                "pitch": 50,
                "velocity": 80,
                "duration": 0.0818182,
                "tempo": 120.0
            },
            {
                "start_time": 17.4363636,
                "end_time": 17.5340909,
                "pitch": 52,
                "velocity": 80,
                "duration": 0.0977273,
                "tempo": 120.0
            },
            {
                "start_time": 17.5522727,
                "end_time": 17.6340909,
                "pitch": 53,
                "velocity": 80,
                "duration": 0.0818182,
                "tempo": 120.0
            },
            {
                "start_time": 17.65,
                "end_time": 17.7477273,
                "pitch": 52,
                "velocity": 80,
                "duration": 0.0977273,
                "tempo": 120.0
            },
            {
                "start_time": 17.7636364,
                "end_time": 17.8477273,
                "pitch": 53,
                "velocity": 80,
                "duration": 0.0840909,
                "tempo": 120.0
            },
            {
                "start_time": 17.8636364,
                "end_time": 17.9636364,
                "pitch": 55,
                "velocity": 80,
                "duration": 0.1,
                "tempo": 120.0
            },
            {
                "start_time": 17.9818182,
                "end_time": 18.0636364,
                "pitch": 53,
                "velocity": 80,
                "duration": 0.0818182,
                "tempo": 120.0
            },
            {
                "start_time": 18.0977273,
                "end_time": 18.1818182,
                "pitch": 52,
                "velocity": 80,
                "duration": 0.0840909,
                "tempo": 120.0
            },
            {
                "start_time": 18.1977273,
                "end_time": 18.2954545,
                "pitch": 53,
                "velocity": 80,
                "duration": 0.0977273,
                "tempo": 120.0
            },
            {
                "start_time": 18.3136364,
                "end_time": 18.3954545,
                "pitch": 52,
                "velocity": 80,
                "duration": 0.0818182,
                "tempo": 120.0
            },
            {
                "start_time": 18.4113636,
                "end_time": 18.5090909,
                "pitch": 50,
                "velocity": 80,
                "duration": 0.0977273,
                "tempo": 120.0
            },
            {
                "start_time": 18.525,
                "end_time": 19.0409091,
                "pitch": 48,
                "velocity": 80,
                "duration": 0.5159091,
                "tempo": 120.0
            },
            {
                "start_time": 19.0590909,
                "end_time": 19.1568182,
                "pitch": 50,
                "velocity": 80,
                "duration": 0.0977273,
                "tempo": 120.0
            },
            {
                "start_time": 19.1727273,
                "end_time": 19.2545455,
                "pitch": 52,
                "velocity": 80,
                "duration": 0.0818182,
                "tempo": 120.0
            },
            {
                "start_time": 19.2863636,
                "end_time": 19.3681818,
                "pitch": 53,
                "velocity": 80,
                "duration": 0.0818182,
                "tempo": 120.0
            },
            {
                "start_time": 19.3863636,
                "end_time": 19.4840909,
                "pitch": 52,
                "velocity": 80,
                "duration": 0.0977273,
                "tempo": 120.0
            },
            {
                "start_time": 19.5,
                "end_time": 19.5840909,
                "pitch": 53,
                "velocity": 80,
                "duration": 0.0840909,
                "tempo": 120.0
            },
            {
                "start_time": 19.6,
                "end_time": 19.7,
                "pitch": 55,
                "velocity": 80,
                "duration": 0.1,
                "tempo": 120.0
            },
            {
                "start_time": 19.7181818,
                "end_time": 19.8,
                "pitch": 53,
                "velocity": 80,
                "duration": 0.0818182,
                "tempo": 120.0
            },
            {
                "start_time": 19.8181818,
                "end_time": 19.9181818,
                "pitch": 52,
                "velocity": 80,
                "duration": 0.1,
                "tempo": 120.0
            },
            {
                "start_time": 19.9340909,
                "end_time": 20.0181818,
                "pitch": 50,
                "velocity": 80,
                "duration": 0.0840909,
                "tempo": 120.0
            },
            {
                "start_time": 20.0340909,
                "end_time": 20.1340909,
                "pitch": 48,
                "velocity": 80,
                "duration": 0.1,
                "tempo": 120.0
            },
            {
                "start_time": 20.1522727,
                "end_time": 20.2363636,
                "pitch": 50,
                "velocity": 80,
                "duration": 0.0840909,
                "tempo": 120.0
            },
            {
                "start_time": 20.2522727,
                "end_time": 20.3522727,
                "pitch": 48,
                "velocity": 80,
                "duration": 0.1,
                "tempo": 120.0
            },
            {
                "start_time": 20.3681818,
                "end_time": 20.45,
                "pitch": 47,
                "velocity": 80,
                "duration": 0.0818182,
                "tempo": 120.0
            },
            {
                "start_time": 20.4840909,
                "end_time": 20.5659091,
                "pitch": 48,
                "velocity": 80,
                "duration": 0.0818182,
                "tempo": 120.0
            },
            {
                "start_time": 20.5818182,
                "end_time": 20.6795455,
                "pitch": 47,
                "velocity": 80,
                "duration": 0.0977273,
                "tempo": 120.0
            },
            {
                "start_time": 20.6954545,
                "end_time": 20.7772727,
                "pitch": 45,
                "velocity": 80,
                "duration": 0.0818182,
                "tempo": 120.0
            },
            {
                "start_time": 20.7931818,
                "end_time": 20.8931818,
                "pitch": 43,
                "velocity": 80,
                "duration": 0.1,
                "tempo": 120.0
            },
            {
                "start_time": 20.9090909,
                "end_time": 20.9909091,
                "pitch": 45,
                "velocity": 80,
                "duration": 0.0818182,
                "tempo": 120.0
            },
            {
                "start_time": 21.4318182,
                "end_time": 21.5295455,
                "pitch": 43,
                "velocity": 80,
                "duration": 0.0977273,
                "tempo": 120.0
            },
            {
                "start_time": 21.5454545,
                "end_time": 21.6272727,
                "pitch": 45,
                "velocity": 80,
                "duration": 0.0818182,
                "tempo": 120.0
            },
            {
                "start_time": 22.5409091,
                "end_time": 22.6227273,
                "pitch": 43,
                "velocity": 80,
                "duration": 0.0818182,
                "tempo": 120.0
            },
            {
                "start_time": 22.6386364,
                "end_time": 22.7363636,
                "pitch": 45,
                "velocity": 80,
                "duration": 0.0977273,
                "tempo": 120.0
            },
            {
                "start_time": 23.3909091,
                "end_time": 23.4909091,
                "pitch": 43,
                "velocity": 80,
                "duration": 0.1,
                "tempo": 120.0
            },
            {
                "start_time": 23.5068182,
                "end_time": 23.5909091,
                "pitch": 45,
                "velocity": 80,
                "duration": 0.0840909,
                "tempo": 120.0
            },
            {
                "start_time": 23.6090909,
                "end_time": 23.7090909,
                "pitch": 55,
                "velocity": 80,
                "duration": 0.1,
                "tempo": 120.0
            },
            {
                "start_time": 23.725,
                "end_time": 24.2590909,
                "pitch": 57,
                "velocity": 80,
                "duration": 0.5340909,
                "tempo": 120.0
            },
            {
                "start_time": 24.2772727,
                "end_time": 24.3613636,
                "pitch": 43,
                "velocity": 80,
                "duration": 0.0840909,
                "tempo": 120.0
            },
            {
                "start_time": 24.3772727,
                "end_time": 24.4772727,
                "pitch": 45,
                "velocity": 80,
                "duration": 0.1,
                "tempo": 120.0
            },
            {
                "start_time": 24.9227273,
                "end_time": 25.0045455,
                "pitch": 43,
                "velocity": 80,
                "duration": 0.0818182,
                "tempo": 120.0
            },
            {
                "start_time": 25.0227273,
                "end_time": 25.1204545,
                "pitch": 45,
                "velocity": 80,
                "duration": 0.0977273,
                "tempo": 120.0
            },
            {
                "start_time": 26.0045455,
                "end_time": 26.1022727,
                "pitch": 43,
                "velocity": 80,
                "duration": 0.0977273,
                "tempo": 120.0
            },
            {
                "start_time": 26.1181818,
                "end_time": 26.1977273,
                "pitch": 45,
                "velocity": 80,
                "duration": 0.0795455,
                "tempo": 120.0
            },
            {
                "start_time": 26.8818182,
                "end_time": 26.9659091,
                "pitch": 43,
                "velocity": 80,
                "duration": 0.0840909,
                "tempo": 120.0
            },
            {
                "start_time": 26.9818182,
                "end_time": 27.0840909,
                "pitch": 45,
                "velocity": 80,
                "duration": 0.1022727,
                "tempo": 120.0
            },
            {
                "start_time": 27.1,
                "end_time": 27.1840909,
                "pitch": 55,
                "velocity": 80,
                "duration": 0.0840909,
                "tempo": 120.0
            },
            {
                "start_time": 27.2,
                "end_time": 27.7340909,
                "pitch": 53,
                "velocity": 80,
                "duration": 0.5340909,
                "tempo": 120.0
            },
            {
                "start_time": 27.7522727,
                "end_time": 27.85,
                "pitch": 43,
                "velocity": 80,
                "duration": 0.0977273,
                "tempo": 120.0
            },
            {
                "start_time": 27.8659091,
                "end_time": 27.9477273,
                "pitch": 45,
                "velocity": 80,
                "duration": 0.0818182,
                "tempo": 120.0
            },
            {
                "start_time": 28.3886364,
                "end_time": 28.4886364,
                "pitch": 43,
                "velocity": 80,
                "duration": 0.1,
                "tempo": 120.0
            },
            {
                "start_time": 28.5045455,
                "end_time": 28.5863636,
                "pitch": 45,
                "velocity": 80,
                "duration": 0.0818182,
                "tempo": 120.0
            },
            {
                "start_time": 29.4977273,
                "end_time": 29.5772727,
                "pitch": 43,
                "velocity": 80,
                "duration": 0.0795455,
                "tempo": 120.0
            },
            {
                "start_time": 29.5931818,
                "end_time": 29.6886364,
                "pitch": 45,
                "velocity": 80,
                "duration": 0.0954545,
                "tempo": 120.0
            },
            {
                "start_time": 30.3477273,
                "end_time": 30.4454545,
                "pitch": 43,
                "velocity": 80,
                "duration": 0.0977273,
                "tempo": 120.0
            },
            {
                "start_time": 30.4613636,
                "end_time": 30.5431818,
                "pitch": 45,
                "velocity": 80,
                "duration": 0.0818182,
                "tempo": 120.0
            },
            {
                "start_time": 30.5613636,
                "end_time": 30.6590909,
                "pitch": 55,
                "velocity": 80,
                "duration": 0.0977273,
                "tempo": 120.0
            },
            {
                "start_time": 30.675,
                "end_time": 31.2,
                "pitch": 57,
                "velocity": 80,
                "duration": 0.525,
                "tempo": 120.0
            },
            {
                "start_time": 31.2340909,
                "end_time": 31.3159091,
                "pitch": 43,
                "velocity": 80,
                "duration": 0.0818182,
                "tempo": 120.0
            },
            {
                "start_time": 31.3318182,
                "end_time": 31.4295455,
                "pitch": 45,
                "velocity": 80,
                "duration": 0.0977273,
                "tempo": 120.0
            },
            {
                "start_time": 31.875,
                "end_time": 31.9590909,
                "pitch": 43,
                "velocity": 80,
                "duration": 0.0840909,
                "tempo": 120.0
            },
            {
                "start_time": 31.9772727,
                "end_time": 32.0772727,
                "pitch": 45,
                "velocity": 80,
                "duration": 0.1,
                "tempo": 120.0
            },
            {
                "start_time": 32.9522727,
                "end_time": 33.05,
                "pitch": 43,
                "velocity": 80,
                "duration": 0.0977273,
                "tempo": 120.0
            },
            {
                "start_time": 33.0681818,
                "end_time": 33.15,
                "pitch": 45,
                "velocity": 80,
                "duration": 0.0818182,
                "tempo": 120.0
            },
            {
                "start_time": 33.8204545,
                "end_time": 33.9045455,
                "pitch": 43,
                "velocity": 80,
                "duration": 0.0840909,
                "tempo": 120.0
            },
            {
                "start_time": 33.9227273,
                "end_time": 34.025,
                "pitch": 45,
                "velocity": 80,
                "duration": 0.1022727,
                "tempo": 120.0
            },
            {
                "start_time": 34.0409091,
                "end_time": 34.1272727,
                "pitch": 55,
                "velocity": 80,
                "duration": 0.0863636,
                "tempo": 120.0
            },
            {
                "start_time": 34.1454545,
                "end_time": 34.6818182,
                "pitch": 53,
                "velocity": 80,
                "duration": 0.5363636,
                "tempo": 120.0
            },
            {
                "start_time": 34.6977273,
                "end_time": 34.7795455,
                "pitch": 43,
                "velocity": 80,
                "duration": 0.0818182,
                "tempo": 120.0
            },
            {
                "start_time": 34.8136364,
                "end_time": 34.8954545,
                "pitch": 45,
                "velocity": 80,
                "duration": 0.0818182,
                "tempo": 120.0
            },
            {
                "start_time": 35.3363636,
                "end_time": 35.4340909,
                "pitch": 43,
                "velocity": 80,
                "duration": 0.0977273,
                "tempo": 120.0
            },
            {
                "start_time": 35.4522727,
                "end_time": 35.5318182,
                "pitch": 45,
                "velocity": 80,
                "duration": 0.0795455,
                "tempo": 120.0
            },
            {
                "start_time": 36.4454545,
                "end_time": 36.5272727,
                "pitch": 45,
                "velocity": 80,
                "duration": 0.0818182,
                "tempo": 120.0
            },
            {
                "start_time": 36.5431818,
                "end_time": 36.6409091,
                "pitch": 47,
                "velocity": 80,
                "duration": 0.0977273,
                "tempo": 120.0
            },
            {
                "start_time": 37.0818182,
                "end_time": 37.1636364,
                "pitch": 45,
                "velocity": 80,
                "duration": 0.0818182,
                "tempo": 120.0
            },
            {
                "start_time": 37.1977273,
                "end_time": 37.2795455,
                "pitch": 47,
                "velocity": 80,
                "duration": 0.0818182,
                "tempo": 120.0
            },
            {
                "start_time": 38.1545455,
                "end_time": 38.2522727,
                "pitch": 47,
                "velocity": 80,
                "duration": 0.0977273,
                "tempo": 120.0
            },
            {
                "start_time": 38.2704545,
                "end_time": 38.3522727,
                "pitch": 48,
                "velocity": 80,
                "duration": 0.0818182,
                "tempo": 120.0
            },
            {
                "start_time": 38.8181818,
                "end_time": 38.9045455,
                "pitch": 47,
                "velocity": 80,
                "duration": 0.0863636,
                "tempo": 120.0
            },
            {
                "start_time": 38.9204545,
                "end_time": 39.025,
                "pitch": 48,
                "velocity": 80,
                "duration": 0.1045455,
                "tempo": 120.0
            },
            {
                "start_time": 39.9,
                "end_time": 40.0977273,
                "pitch": 50,
                "velocity": 80,
                "duration": 0.1977273,
                "tempo": 120.0
            },
            {
                "start_time": 40.1136364,
                "end_time": 40.3090909,
                "pitch": 50,
                "velocity": 80,
                "duration": 0.1954545,
                "tempo": 120.0
            },
            {
                "start_time": 40.325,
                "end_time": 40.5272727,
                "pitch": 50,
                "velocity": 80,
                "duration": 0.2022727,
                "tempo": 120.0
            },
            {
                "start_time": 40.5431818,
                "end_time": 40.7431818,
                "pitch": 50,
                "velocity": 80,
                "duration": 0.2,
                "tempo": 120.0
            },
            {
                "start_time": 40.7772727,
                "end_time": 41.6295455,
                "pitch": 49,
                "velocity": 80,
                "duration": 0.8522727,
                "tempo": 120.0
            },
            {
                "start_time": 41.8590909,
                "end_time": 42.0545455,
                "pitch": 62,
                "velocity": 80,
                "duration": 0.1954545,
                "tempo": 120.0
            },
            {
                "start_time": 42.0727273,
                "end_time": 42.2727273,
                "pitch": 62,
                "velocity": 80,
                "duration": 0.2,
                "tempo": 120.0
            },
            {
                "start_time": 42.2886364,
                "end_time": 42.4909091,
                "pitch": 62,
                "velocity": 80,
                "duration": 0.2022727,
                "tempo": 120.0
            },
            {
                "start_time": 42.5068182,
                "end_time": 42.8181818,
                "pitch": 62,
                "velocity": 80,
                "duration": 0.3113636,
                "tempo": 120.0
            },
            {
                "start_time": 42.8340909,
                "end_time": 43.1318182,
                "pitch": 62,
                "velocity": 80,
                "duration": 0.2977273,
                "tempo": 120.0
            },
            {
                "start_time": 43.1659091,
                "end_time": 43.3659091,
                "pitch": 57,
                "velocity": 80,
                "duration": 0.2,
                "tempo": 120.0
            },
            {
                "start_time": 43.6,
                "end_time": 43.9,
                "pitch": 62,
                "velocity": 80,
                "duration": 0.3,
                "tempo": 120.0
            },
            {
                "start_time": 43.9181818,
                "end_time": 44.2363636,
                "pitch": 62,
                "velocity": 80,
                "duration": 0.3181818,
                "tempo": 120.0
            },
            {
                "start_time": 44.2522727,
                "end_time": 44.5704545,
                "pitch": 55,
                "velocity": 80,
                "duration": 0.3181818,
                "tempo": 120.0
            },
            {
                "start_time": 44.5863636,
                "end_time": 44.8840909,
                "pitch": 60,
                "velocity": 80,
                "duration": 0.2977273,
                "tempo": 120.0
            },
            {
                "start_time": 44.9,
                "end_time": 45.0954545,
                "pitch": 60,
                "velocity": 80,
                "duration": 0.1954545,
                "tempo": 120.0
            },
            {
                "start_time": 45.325,
                "end_time": 45.5204545,
                "pitch": 62,
                "velocity": 80,
                "duration": 0.1954545,
                "tempo": 120.0
            },
            {
                "start_time": 45.5545455,
                "end_time": 45.7590909,
                "pitch": 62,
                "velocity": 80,
                "duration": 0.2045455,
                "tempo": 120.0
            },
            {
                "start_time": 45.775,
                "end_time": 45.9795455,
                "pitch": 62,
                "velocity": 80,
                "duration": 0.2045455,
                "tempo": 120.0
            },
            {
                "start_time": 45.9977273,
                "end_time": 46.2931818,
                "pitch": 62,
                "velocity": 80,
                "duration": 0.2954545,
                "tempo": 120.0
            },
            {
                "start_time": 46.3090909,
                "end_time": 46.6227273,
                "pitch": 62,
                "velocity": 80,
                "duration": 0.3136364,
                "tempo": 120.0
            },
            {
                "start_time": 46.6409091,
                "end_time": 46.8409091,
                "pitch": 57,
                "velocity": 80,
                "duration": 0.2,
                "tempo": 120.0
            },
            {
                "start_time": 47.0704545,
                "end_time": 47.3818182,
                "pitch": 62,
                "velocity": 80,
                "duration": 0.3113636,
                "tempo": 120.0
            },
            {
                "start_time": 47.3977273,
                "end_time": 47.6909091,
                "pitch": 62,
                "velocity": 80,
                "duration": 0.2931818,
                "tempo": 120.0
            },
            {
                "start_time": 47.7068182,
                "end_time": 48.025,
                "pitch": 55,
                "velocity": 80,
                "duration": 0.3181818,
                "tempo": 120.0
            },
            {
                "start_time": 48.0409091,
                "end_time": 48.3636364,
                "pitch": 60,
                "velocity": 80,
                "duration": 0.3227273,
                "tempo": 120.0
            },
            {
                "start_time": 48.3818182,
                "end_time": 48.5863636,
                "pitch": 60,
                "velocity": 80,
                "duration": 0.2045455,
                "tempo": 120.0
            },
            {
                "start_time": 48.8159091,
                "end_time": 49.0113636,
                "pitch": 62,
                "velocity": 80,
                "duration": 0.1954545,
                "tempo": 120.0
            },
            {
                "start_time": 49.0295455,
                "end_time": 49.225,
                "pitch": 62,
                "velocity": 80,
                "duration": 0.1954545,
                "tempo": 120.0
            },
            {
                "start_time": 49.2409091,
                "end_time": 49.4363636,
                "pitch": 62,
                "velocity": 80,
                "duration": 0.1954545,
                "tempo": 120.0
            },
            {
                "start_time": 49.4545455,
                "end_time": 49.7704545,
                "pitch": 62,
                "velocity": 80,
                "duration": 0.3159091,
                "tempo": 120.0
            },
            {
                "start_time": 49.7886364,
                "end_time": 50.0840909,
                "pitch": 62,
                "velocity": 80,
                "duration": 0.2954545,
                "tempo": 120.0
            },
            {
                "start_time": 50.1,
                "end_time": 50.2977273,
                "pitch": 57,
                "velocity": 80,
                "duration": 0.1977273,
                "tempo": 120.0
            },
            {
                "start_time": 50.5522727,
                "end_time": 50.8568182,
                "pitch": 62,
                "velocity": 80,
                "duration": 0.3045455,
                "tempo": 120.0
            },
            {
                "start_time": 50.8727273,
                "end_time": 51.1818182,
                "pitch": 62,
                "velocity": 80,
                "duration": 0.3090909,
                "tempo": 120.0
            },
            {
                "start_time": 51.2,
                "end_time": 51.5,
                "pitch": 55,
                "velocity": 80,
                "duration": 0.3,
                "tempo": 120.0
            },
            {
                "start_time": 51.5340909,
                "end_time": 51.8295455,
                "pitch": 60,
                "velocity": 80,
                "duration": 0.2954545,
                "tempo": 120.0
            },
            {
                "start_time": 51.8454545,
                "end_time": 52.0431818,
                "pitch": 60,
                "velocity": 80,
                "duration": 0.1977273,
                "tempo": 120.0
            },
            {
                "start_time": 52.2727273,
                "end_time": 52.4681818,
                "pitch": 62,
                "velocity": 80,
                "duration": 0.1954545,
                "tempo": 120.0
            },
            {
                "start_time": 52.4840909,
                "end_time": 52.6840909,
                "pitch": 62,
                "velocity": 80,
                "duration": 0.2,
                "tempo": 120.0
            },
            {
                "start_time": 52.7181818,
                "end_time": 52.9181818,
                "pitch": 62,
                "velocity": 80,
                "duration": 0.2,
                "tempo": 120.0
            },
            {
                "start_time": 52.9363636,
                "end_time": 53.2363636,
                "pitch": 62,
                "velocity": 80,
                "duration": 0.3,
                "tempo": 120.0
            },
            {
                "start_time": 53.2522727,
                "end_time": 53.5704545,
                "pitch": 62,
                "velocity": 80,
                "duration": 0.3181818,
                "tempo": 120.0
            },
            {
                "start_time": 53.5863636,
                "end_time": 53.7886364,
                "pitch": 57,
                "velocity": 80,
                "duration": 0.2022727,
                "tempo": 120.0
            },
            {
                "start_time": 54.0181818,
                "end_time": 54.3295455,
                "pitch": 62,
                "velocity": 80,
                "duration": 0.3113636,
                "tempo": 120.0
            },
            {
                "start_time": 54.3477273,
                "end_time": 54.6477273,
                "pitch": 62,
                "velocity": 80,
                "duration": 0.3,
                "tempo": 120.0
            },
            {
                "start_time": 54.6636364,
                "end_time": 54.975,
                "pitch": 55,
                "velocity": 80,
                "duration": 0.3113636,
                "tempo": 120.0
            },
            {
                "start_time": 54.9909091,
                "end_time": 55.3113636,
                "pitch": 60,
                "velocity": 80,
                "duration": 0.3204545,
                "tempo": 120.0
            },
            {
                "start_time": 55.3272727,
                "end_time": 55.5318182,
                "pitch": 60,
                "velocity": 80,
                "duration": 0.2045455,
                "tempo": 120.0
            },
            {
                "start_time": 55.55,
                "end_time": 55.6363636,
                "pitch": 43,
                "velocity": 80,
                "duration": 0.0863636,
                "tempo": 120.0
            },
            {
                "start_time": 55.6522727,
                "end_time": 55.7545455,
                "pitch": 45,
                "velocity": 80,
                "duration": 0.1022727,
                "tempo": 120.0
            }
        ]
    }
}