{
    "mood": "angry",
    "instruments": {
        "Lead 2 (sawtooth)": [
            {
                "start_time": 0.7840909,
                "end_time": 0.85,
                "pitch": 65,
                "velocity": 101,
                "duration": 0.0659091,
                "tempo": 120.0
            },
            {
                "start_time": 0.9840909,
                "end_time": 1.05,
                "pitch": 66,
                "velocity": 101,
                "duration": 0.0659091,
                "tempo": 120.0
            },
            {
                "start_time": 1.3795455,
                "end_time": 1.9522727,
                "pitch": 71,
                "velocity": 101,
                "duration": 0.5727273,
                "tempo": 120.0
            },
            {
                "start_time": 1.9863636,
                "end_time": 2.0522727,
                "pitch": 70,
                "velocity": 101,
                "duration": 0.0659091,
                "tempo": 120.0
            },
            {
                "start_time": 3.3909091,
                "end_time": 3.7636364,
                "pitch": 71,
                "velocity": 101,
                "duration": 0.3727273,
                "tempo": 120.0
            },
            {
                "start_time": 3.7977273,
                "end_time": 3.8636364,
                "pitch": 70,
                "velocity": 101,
                "duration": 0.0659091,
                "tempo": 120.0
            },
            {
                "start_time": 4.5886364,
                "end_time": 4.6568182,
                "pitch": 68,
                "velocity": 101,
                "duration": 0.0681818,
                "tempo": 120.0
            },
            {
                "start_time": 4.6886364,
                "end_time": 4.7568182,
                "pitch": 70,
                "velocity": 101,
                "duration": 0.0681818,
                "tempo": 120.0
            },
            {
                "start_time": 4.7886364,
                "end_time": 6.1636364,
                "pitch": 65,
                "velocity": 101,
                "duration": 1.375,
                "tempo": 120.0
            },
            {
                "start_time": 6.1954545,
                "end_time": 6.2636364,
                "pitch": 63,
                "velocity": 101,
                "duration": 0.0681818,
                "tempo": 120.0
            },
            {
                "start_time": 6.2977273,
                "end_time": 6.3636364,
                "pitch": 65,
                "velocity": 101,
                "duration": 0.0659091,
                "tempo": 120.0
            },
            {
                "start_time": 6.3977273,
                "end_time": 7.1772727,
                "pitch": 63,
                "velocity": 101,
                "duration": 0.7795455,
                "tempo": 120.0
            },
            {
                "start_time": 7.2113636,
                "end_time": 7.2772727,
                "pitch": 65,
                "velocity": 101,
                "duration": 0.0659091,
                "tempo": 120.0
            },
            {
                "start_time": 7.4068182,
                "end_time": 7.4727273,
                "pitch": 66,
                "velocity": 101,
                "duration": 0.0659091,
                "tempo": 120.0
            },
            {
                "start_time": 7.8045455,
                "end_time": 8.375,
                "pitch": 71,
                "velocity": 101,
                "duration": 0.5704545,
                "tempo": 120.0
            },
            {
                "start_time": 8.4090909,
                "end_time": 8.475,
                "pitch": 70,
                "velocity": 101,
                "duration": 0.0659091,
                "tempo": 120.0
            },
            {
                "start_time": 9.8204545,
                "end_time": 10.1931818,
                "pitch": 71,
                "velocity": 101,
                "duration": 0.3727273,
                "tempo": 120.0
            },
            {
                "start_time": 10.2272727,
                "end_time": 10.2931818,
                "pitch": 70,
                "velocity": 101,
                "duration": 0.0659091,
                "tempo": 120.0
            },
            {
                "start_time": 11.0204545,
                "end_time": 11.0863636,
                "pitch": 68,
                "velocity": 101,
                "duration": 0.0659091,
                "tempo": 120.0
            },
            {
                "start_time": 11.1204545,
                "end_time": 11.1863636,
                "pitch": 70,
                "velocity": 101,
                "duration": 0.0659091,
                "tempo": 120.0
            },
            {
                "start_time": 11.2204545,
                "end_time": 12.5931818,
                "pitch": 65,
                "velocity": 101,
                "duration": 1.3727273,
                "tempo": 120.0
            },
            {
                "start_time": 12.6272727,
                "end_time": 12.6954545,
                "pitch": 63,
                "velocity": 101,
                "duration": 0.0681818,
                "tempo": 120.0
            },
            {
                "start_time": 12.7272727,
                "end_time": 12.7954545,
                "pitch": 65,
                "velocity": 101,
                "duration": 0.0681818,
                "tempo": 120.0
            },
            {
                "start_time": 12.8295455,
                "end_time": 13.5977273,
                "pitch": 63,
                "velocity": 101,
                "duration": 0.7681818,
                "tempo": 120.0
            },
            {
                "start_time": 13.6318182,
                "end_time": 13.6977273,
                "pitch": 58,
                "velocity": 101,
                "duration": 0.0659091,
                "tempo": 120.0
            },
            {
                "start_time": 13.8318182,
                "end_time": 13.9,
                "pitch": 59,
                "velocity": 101,
                "duration": 0.0681818,
                "tempo": 120.0
            },
            {
                "start_time": 14.2363636,
                "end_time": 14.6045455,
                "pitch": 61,
                "velocity": 101,
                "duration": 0.3681818,
                "tempo": 120.0
            },
            {
                "start_time": 14.6386364,
                "end_time": 14.8068182,
                "pitch": 65,
                "velocity": 101,
                "duration": 0.1681818,
                "tempo": 120.0
            },
            {
                "start_time": 14.8386364,
                "end_time": 15.0113636,
                "pitch": 61,
                "velocity": 101,
                "duration": 0.1727273,
                "tempo": 120.0
            },
            {
                "start_time": 15.0454545,
                "end_time": 15.2159091,
                "pitch": 68,
                "velocity": 101,
                "duration": 0.1704545,
                "tempo": 120.0
            },
            {
                "start_time": 15.25,
                "end_time": 15.4136364,
                "pitch": 66,
                "velocity": 101,
                "duration": 0.1636364,
                "tempo": 120.0
            },
            {
                "start_time": 15.4454545,
                "end_time": 15.6090909,
                "pitch": 65,
                "velocity": 101,
                "duration": 0.1636364,
                "tempo": 120.0
            },
            {
                "start_time": 15.6431818,
                "end_time": 15.8090909,
                "pitch": 61,
                "velocity": 101,
                "duration": 0.1659091,
                "tempo": 120.0
            },
            {
                "start_time": 15.8431818,
                "end_time": 16.2136364,
                "pitch": 61,
                "velocity": 101,
                "duration": 0.3704545,
                "tempo": 120.0
            },
            {
                "start_time": 16.2454545,
                "end_time": 16.4136364,
                "pitch": 65,
                "velocity": 101,
                "duration": 0.1681818,
                "tempo": 120.0
            },
            {
                "start_time": 16.4477273,
                "end_time": 16.6181818,
                "pitch": 61,
                "velocity": 101,
                "duration": 0.1704545,
                "tempo": 120.0
            },
            {
                "start_time": 16.6522727,
                "end_time": 16.825,
                "pitch": 68,
                "velocity": 101,
                "duration": 0.1727273,
                "tempo": 120.0
            },
            {
                "start_time": 16.8590909,
                "end_time": 17.0227273,
                "pitch": 66,
                "velocity": 101,
                "duration": 0.1636364,
                "tempo": 120.0
            },
            {
                "start_time": 17.0545455,
                "end_time": 17.2181818,
                "pitch": 65,
                "velocity": 101,
                "duration": 0.1636364,
                "tempo": 120.0
            },
            {
                "start_time": 17.25,
                "end_time": 17.4181818,
                "pitch": 61,
                "velocity": 101,
                "duration": 0.1681818,
                "tempo": 120.0
            },
            {
                "start_time": 17.45,
                "end_time": 17.8181818,
                "pitch": 61,
                "velocity": 101,
                "duration": 0.3681818,
                "tempo": 120.0
            },
            {
                "start_time": 17.85,
                "end_time": 18.0181818,
                "pitch": 63,
                "velocity": 101,
                "duration": 0.1681818,
                "tempo": 120.0
            },
            {
                "start_time": 18.05,
                "end_time": 18.1181818,
                "pitch": 63,
                "velocity": 101,
                "duration": 0.0681818,
                "tempo": 120.0
            },
            {
                "start_time": 19.0545455,
                "end_time": 19.4227273,
                "pitch": 73,
                "velocity": 101,
                "duration": 0.3681818,
                "tempo": 120.0
            },
            {
                "start_time": 19.4568182,
                "end_time": 19.6227273,
                "pitch": 75,
                "velocity": 101,
                "duration": 0.1659091,
                "tempo": 120.0
            },
            {
                "start_time": 19.6568182,
                "end_time": 19.725,
                "pitch": 75,
                "velocity": 101,
                "duration": 0.0681818,
                "tempo": 120.0
            },
            {
                "start_time": 20.6590909,
                "end_time": 21.0272727,
                "pitch": 61,
                "velocity": 101,
                "duration": 0.3681818,
                "tempo": 120.0
            },
            {
                "start_time": 21.0590909,
                "end_time": 21.2272727,
                "pitch": 65,
                "velocity": 101,
                "duration": 0.1681818,
                "tempo": 120.0
            },
            {
                "start_time": 21.2613636,
                "end_time": 21.4318182,
                "pitch": 61,
                "velocity": 101,
                "duration": 0.1704545,
                "tempo": 120.0
            },
            {
                "start_time": 21.4659091,
                "end_time": 21.6386364,
                "pitch": 68,
                "velocity": 101,
                "duration": 0.1727273,
                "tempo": 120.0
            },
            {
                "start_time": 21.6727273,
                "end_time": 21.8363636,
                "pitch": 66,
                "velocity": 101,
                "duration": 0.1636364,
                "tempo": 120.0
            },
            {
                "start_time": 21.8681818,
                "end_time": 22.0318182,
                "pitch": 65,
                "velocity": 101,
                "duration": 0.1636364,
                "tempo": 120.0
            },
            {
                "start_time": 22.0636364,
                "end_time": 22.2318182,
                "pitch": 61,
                "velocity": 101,
                "duration": 0.1681818,
                "tempo": 120.0
            },
            {
                "start_time": 22.2659091,
                "end_time": 22.6340909,
                "pitch": 61,
                "velocity": 101,
                "duration": 0.3681818,
                "tempo": 120.0
            },
            {
                "start_time": 22.6681818,
                "end_time": 22.8340909,
                "pitch": 65,
                "velocity": 101,
                "duration": 0.1659091,
                "tempo": 120.0
            },
            {
                "start_time": 22.8681818,
                "end_time": 23.0386364,
                "pitch": 61,
                "velocity": 101,
                "duration": 0.1704545,
                "tempo": 120.0
            },
            {
                "start_time": 23.0727273,
                "end_time": 23.2431818,
                "pitch": 68,
                "velocity": 101,
                "duration": 0.1704545,
                "tempo": 120.0
            },
            {
                "start_time": 23.2772727,
                "end_time": 23.4409091,
                "pitch": 66,
                "velocity": 101,
                "duration": 0.1636364,
                "tempo": 120.0
            },
            {
                "start_time": 23.4727273,
                "end_time": 23.6363636,
                "pitch": 65,
                "velocity": 101,
                "duration": 0.1636364,
                "tempo": 120.0
            },
            {
                "start_time": 23.6704545,
                "end_time": 23.8363636,
                "pitch": 61,
                "velocity": 101,
                "duration": 0.1659091,
                "tempo": 120.0
            },
            {
                "start_time": 23.8704545,
                "end_time": 24.2386364,
                "pitch": 65,
                "velocity": 101,
                "duration": 0.3681818,
                "tempo": 120.0
            },
            {
                "start_time": 24.2704545,
                "end_time": 24.4386364,
                "pitch": 66,
                "velocity": 101,
                "duration": 0.1681818,
                "tempo": 120.0
            },
            {
                "start_time": 24.4727273,
                "end_time": 24.5409091,
                "pitch": 66,
                "velocity": 101,
                "duration": 0.0681818,
                "tempo": 120.0
            },
            {
                "start_time": 25.475,
                "end_time": 25.8477273,
                "pitch": 77,
                "velocity": 101,
                "duration": 0.3727273,
                "tempo": 120.0
            },
            {
                "start_time": 25.8818182,
                "end_time": 26.0522727,
                "pitch": 78,
                "velocity": 101,
                "duration": 0.1704545,
                "tempo": 120.0
            },
            {
                "start_time": 26.0863636,
                "end_time": 26.1522727,
                "pitch": 78,
                "velocity": 101,
                "duration": 0.0659091,
                "tempo": 120.0
            },
            {
                "start_time": 27.0795455,
                "end_time": 27.4522727,
                "pitch": 59,
                "velocity": 101,
                "duration": 0.3727273,
                "tempo": 120.0
            },
            {
                "start_time": 27.4863636,
                "end_time": 27.6590909,
                "pitch": 59,
                "velocity": 101,
                "duration": 0.1727273,
                "tempo": 120.0
            },
            {
                "start_time": 27.6931818,
                "end_time": 27.8590909,
                "pitch": 66,
                "velocity": 101,
                "duration": 0.1659091,
                "tempo": 120.0
            },
            {
                "start_time": 27.8931818,
                "end_time": 28.0590909,
                "pitch": 59,
                "velocity": 101,
                "duration": 0.1659091,
                "tempo": 120.0
            },
            {
                "start_time": 28.0931818,
                "end_time": 28.2568182,
                "pitch": 66,
                "velocity": 101,
                "duration": 0.1636364,
                "tempo": 120.0
            },
            {
                "start_time": 28.2886364,
                "end_time": 28.6522727,
                "pitch": 59,
                "velocity": 101,
                "duration": 0.3636364,
                "tempo": 120.0
            },
            {
                "start_time": 28.6840909,
                "end_time": 29.0522727,
                "pitch": 61,
                "velocity": 101,
                "duration": 0.3681818,
                "tempo": 120.0
            },
            {
                "start_time": 29.0863636,
                "end_time": 29.2545455,
                "pitch": 61,
                "velocity": 101,
                "duration": 0.1681818,
                "tempo": 120.0
            },
            {
                "start_time": 29.2863636,
                "end_time": 29.4545455,
                "pitch": 68,
                "velocity": 101,
                "duration": 0.1681818,
                "tempo": 120.0
            },
            {
                "start_time": 29.4863636,
                "end_time": 29.6545455,
                "pitch": 61,
                "velocity": 101,
                "duration": 0.1681818,
                "tempo": 120.0
            },
            {
                "start_time": 29.6863636,
                "end_time": 29.8545455,
                "pitch": 68,
                "velocity": 101,
                "duration": 0.1681818,
                "tempo": 120.0
            },
            {
                "start_time": 29.8863636,
                "end_time": 30.2545455,
                "pitch": 61,
                "velocity": 101,
                "duration": 0.3681818,
                "tempo": 120.0
            },
            {
                "start_time": 30.2886364,
                "end_time": 30.6568182,
                "pitch": 70,
                "velocity": 101,
                "duration": 0.3681818,
                "tempo": 120.0
            },
            {
                "start_time": 30.6909091,
                "end_time": 30.7227273,
                "pitch": 68,
                "velocity": 101,
                "duration": 0.0318182,
                "tempo": 120.0
            },
            {
                "start_time": 30.7568182,
                "end_time": 30.7909091,
                "pitch": 70,
                "velocity": 101,
                "duration": 0.0340909,
                "tempo": 120.0
            },
            {
                "start_time": 30.8227273,
                "end_time": 30.8568182,
                "pitch": 68,
                "velocity": 101,
                "duration": 0.0340909,
                "tempo": 120.0
            },
            {
                "start_time": 30.8909091,
                "end_time": 31.0613636,
                "pitch": 66,
                "velocity": 101,
                "duration": 0.1704545,
                "tempo": 120.0
            },
            {
                "start_time": 31.0954545,
                "end_time": 31.4636364,
                "pitch": 68,
                "velocity": 101,
                "duration": 0.3681818,
                "tempo": 120.0
            },
            {
                "start_time": 31.4977273,
                "end_time": 31.5295455,
                "pitch": 66,
                "velocity": 101,
                "duration": 0.0318182,
                "tempo": 120.0
            },
            {
                "start_time": 31.5613636,
                "end_time": 31.5954545,
                "pitch": 68,
                "velocity": 101,
                "duration": 0.0340909,
                "tempo": 120.0
            },
            {
                "start_time": 31.6272727,
                "end_time": 31.6590909,
                "pitch": 66,
                "velocity": 101,
                "duration": 0.0318182,
                "tempo": 120.0
            },
            {
                "start_time": 31.6931818,
                "end_time": 31.8636364,
                "pitch": 65,
                "velocity": 101,
                "duration": 0.1704545,
                "tempo": 120.0
            },
            {
                "start_time": 31.8977273,
                "end_time": 32.2704545,
                "pitch": 66,
                "velocity": 101,
                "duration": 0.3727273,
                "tempo": 120.0
            },
            {
                "start_time": 32.3045455,
                "end_time": 32.3363636,
                "pitch": 65,
                "velocity": 101,
                "duration": 0.0318182,
                "tempo": 120.0
            },
            {
                "start_time": 32.3704545,
                "end_time": 32.4045455,
                "pitch": 66,
                "velocity": 101,
                "duration": 0.0340909,
                "tempo": 120.0
            },
            {
                "start_time": 32.4363636,
                "end_time": 32.4704545,
                "pitch": 65,
                "velocity": 101,
                "duration": 0.0340909,
                "tempo": 120.0
            },
            {
                "start_time": 32.5045455,
                "end_time": 32.6704545,
                "pitch": 63,
                "velocity": 101,
                "duration": 0.1659091,
                "tempo": 120.0
            },
            {
                "start_time": 32.7045455,
                "end_time": 33.0704545,
                "pitch": 65,
                "velocity": 101,
                "duration": 0.3659091,
                "tempo": 120.0
            },
            {
                "start_time": 33.1022727,
                "end_time": 33.1340909,
                "pitch": 63,
                "velocity": 101,
                "duration": 0.0318182,
                "tempo": 120.0
            },
            {
                "start_time": 33.1681818,
                "end_time": 33.2,
                "pitch": 65,
                "velocity": 101,
                "duration": 0.0318182,
                "tempo": 120.0
            },
            {
                "start_time": 33.2318182,
                "end_time": 33.2659091,
                "pitch": 63,
                "velocity": 101,
                "duration": 0.0340909,
                "tempo": 120.0
            },
            {
                "start_time": 33.2977273,
                "end_time": 33.4681818,
                "pitch": 61,
                "velocity": 101,
                "duration": 0.1704545,
                "tempo": 120.0
            },
            {
                "start_time": 33.5022727,
                "end_time": 33.8727273,
                "pitch": 59,
                "velocity": 101,
                "duration": 0.3704545,
                "tempo": 120.0
            },
            {
                "start_time": 33.9045455,
                "end_time": 34.0681818,
                "pitch": 59,
                "velocity": 101,
                "duration": 0.1636364,
                "tempo": 120.0
            },
            {
                "start_time": 34.1,
                "end_time": 34.2727273,
                "pitch": 66,
                "velocity": 101,
                "duration": 0.1727273,
                "tempo": 120.0
            },
            {
                "start_time": 34.3068182,
                "end_time": 34.4772727,
                "pitch": 59,
                "velocity": 101,
                "duration": 0.1704545,
                "tempo": 120.0
            },
            {
                "start_time": 34.5113636,
                "end_time": 34.675,
                "pitch": 66,
                "velocity": 101,
                "duration": 0.1636364,
                "tempo": 120.0
            },
            {
                "start_time": 34.7068182,
                "end_time": 34.8704545,
                "pitch": 59,
                "velocity": 101,
                "duration": 0.1636364,
                "tempo": 120.0
            },
            {
                "start_time": 34.9045455,
                "end_time": 35.0704545,
                "pitch": 59,
                "velocity": 101,
                "duration": 0.1659091,
                "tempo": 120.0
            },
            {
                "start_time": 35.1045455,
                "end_time": 35.4704545,
                "pitch": 61,
                "velocity": 101,
                "duration": 0.3659091,
                "tempo": 120.0
            },
            {
                "start_time": 35.5045455,
                "end_time": 35.6704545,
                "pitch": 61,
                "velocity": 101,
                "duration": 0.1659091,
                "tempo": 120.0
            },
            {
                "start_time": 35.7045455,
                "end_time": 35.875,
                "pitch": 68,
                "velocity": 101,
                "duration": 0.1704545,
                "tempo": 120.0
            },
            {
                "start_time": 35.9090909,
                "end_time": 36.0795455,
                "pitch": 61,
                "velocity": 101,
                "duration": 0.1704545,
                "tempo": 120.0
            },
            {
                "start_time": 36.1136364,
                "end_time": 36.2772727,
                "pitch": 68,
                "velocity": 101,
                "duration": 0.1636364,
                "tempo": 120.0
            },
            {
                "start_time": 36.3113636,
                "end_time": 36.4727273,
                "pitch": 61,
                "velocity": 101,
                "duration": 0.1613636,
                "tempo": 120.0
            },
            {
                "start_time": 36.5068182,
                "end_time": 36.6772727,
                "pitch": 61,
                "velocity": 101,
                "duration": 0.1704545,
                "tempo": 120.0
            },
            {
                "start_time": 36.7113636,
                "end_time": 37.0795455,
                "pitch": 70,
                "velocity": 101,
                "duration": 0.3681818,
                "tempo": 120.0
            },
            {
                "start_time": 37.1136364,
                "end_time": 37.2772727,
                "pitch": 63,
                "velocity": 101,
                "duration": 0.1636364,
                "tempo": 120.0
            },
            {
                "start_time": 37.3090909,
                "end_time": 37.475,
                "pitch": 66,
                "velocity": 101,
                "duration": 0.1659091,
                "tempo": 120.0
            },
            {
                "start_time": 37.5090909,
                "end_time": 37.675,
                "pitch": 70,
                "velocity": 101,
                "duration": 0.1659091,
                "tempo": 120.0
            },
            {
                "start_time": 37.7090909,
                "end_time": 37.875,
                "pitch": 71,
                "velocity": 101,
                "duration": 0.1659091,
                "tempo": 120.0
            },
            {
                "start_time": 37.9090909,
                "end_time": 38.075,
                "pitch": 66,
                "velocity": 101,
                "duration": 0.1659091,
                "tempo": 120.0
            },
            {
                "start_time": 38.1090909,
                "end_time": 38.175,
                "pitch": 63,
                "velocity": 101,
                "duration": 0.0659091,
                "tempo": 120.0
            },
            {
                "start_time": 38.2090909,
                "end_time": 38.275,
                "pitch": 66,
                "velocity": 101,
                "duration": 0.0659091,
                "tempo": 120.0
            },
            {
                "start_time": 38.3090909,
                "end_time": 38.375,
                "pitch": 70,
                "velocity": 101,
                "duration": 0.0659091,
                "tempo": 120.0
            },
            {
                "start_time": 38.4090909,
                "end_time": 38.475,
                "pitch": 71,
                "velocity": 101,
                "duration": 0.0659091,
                "tempo": 120.0
            },
            {
                "start_time": 38.5090909,
                "end_time": 38.6795455,
                "pitch": 73,
                "velocity": 101,
                "duration": 0.1704545,
                "tempo": 120.0
            },
            {
                "start_time": 38.7136364,
                "end_time": 38.7818182,
                "pitch": 61,
                "velocity": 101,
                "duration": 0.0681818,
                "tempo": 120.0
            }
        ],
        "Trumpet": [
            {
                "start_time": 0.7840909,
                "end_time": 0.85,
                "pitch": 61,
                "velocity": 80,
                "duration": 0.0659091,
                "tempo": 120.0
            },
            {
                "start_time": 0.9840909,
                "end_time": 1.05,
                "pitch": 63,
                "velocity": 80,
                "duration": 0.0659091,
                "tempo": 120.0
            },
            {
                "start_time": 1.3795455,
                "end_time": 1.9522727,
                "pitch": 68,
                "velocity": 80,
                "duration": 0.5727273,
                "tempo": 120.0
            },
            {
                "start_time": 1.9863636,
                "end_time": 2.0522727,
                "pitch": 66,
                "velocity": 80,
                "duration": 0.0659091,
                "tempo": 120.0
            },
            {
                "start_time": 3.3909091,
                "end_time": 3.7636364,
                "pitch": 68,
                "velocity": 80,
                "duration": 0.3727273,
                "tempo": 120.0
            },
            {
                "start_time": 3.7977273,
                "end_time": 3.8295455,
                "pitch": 66,
                "velocity": 80,
                "duration": 0.0318182,
                "tempo": 120.0
            },
            {
                "start_time": 4.5886364,
                "end_time": 4.6568182,
                "pitch": 65,
                "velocity": 80,
                "duration": 0.0681818,
                "tempo": 120.0
            },
            {
                "start_time": 4.6886364,
                "end_time": 4.7568182,
                "pitch": 66,
                "velocity": 80,
                "duration": 0.0681818,
                "tempo": 120.0
            },
            {
                "start_time": 4.7886364,
                "end_time": 6.1636364,
                "pitch": 61,
                "velocity": 80,
                "duration": 1.375,
                "tempo": 120.0
            },
            {
                "start_time": 6.1954545,
                "end_time": 6.3636364,
                "pitch": 61,
                "velocity": 80,
                "duration": 0.1681818,
                "tempo": 120.0
            },
            {
                "start_time": 6.3977273,
                "end_time": 7.1772727,
                "pitch": 59,
                "velocity": 80,
                "duration": 0.7795455,
                "tempo": 120.0
            },
            {
                "start_time": 7.2113636,
                "end_time": 7.2772727,
                "pitch": 61,
                "velocity": 80,
                "duration": 0.0659091,
                "tempo": 120.0
            },
            {
                "start_time": 7.4068182,
                "end_time": 7.4727273,
                "pitch": 63,
                "velocity": 80,
                "duration": 0.0659091,
                "tempo": 120.0
            },
            {
                "start_time": 7.8045455,
                "end_time": 8.375,
                "pitch": 68,
                "velocity": 80,
                "duration": 0.5704545,
                "tempo": 120.0
            },
            {
                "start_time": 8.4090909,
                "end_time": 8.475,
                "pitch": 66,
                "velocity": 80,
                "duration": 0.0659091,
                "tempo": 120.0
            },
            {
                "start_time": 9.8204545,
                "end_time": 10.1931818,
                "pitch": 68,
                "velocity": 80,
                "duration": 0.3727273,
                "tempo": 120.0
            },
            {
                "start_time": 10.2272727,
                "end_time": 10.2590909,
                "pitch": 66,
                "velocity": 80,
                "duration": 0.0318182,
                "tempo": 120.0
            },
            {
                "start_time": 11.0204545,
                "end_time": 11.0863636,
                "pitch": 65,
                "velocity": 80,
                "duration": 0.0659091,
                "tempo": 120.0
            },
            {
                "start_time": 11.1204545,
                "end_time": 11.1863636,
                "pitch": 66,
                "velocity": 80,
                "duration": 0.0659091,
                "tempo": 120.0
            },
            {
                "start_time": 11.2204545,
                "end_time": 12.5931818,
                "pitch": 61,
                "velocity": 80,
                "duration": 1.3727273,
                "tempo": 120.0
            },
            {
                "start_time": 12.6272727,
                "end_time": 12.7954545,
                "pitch": 61,
                "velocity": 80,
                "duration": 0.1681818,
                "tempo": 120.0
            },
            {
                "start_time": 12.8295455,
                "end_time": 13.5977273,
                "pitch": 59,
                "velocity": 80,
                "duration": 0.7681818,
                "tempo": 120.0
            },
            {
                "start_time": 13.6318182,
                "end_time": 13.6977273,
                "pitch": 54,
                "velocity": 80,
                "duration": 0.0659091,
                "tempo": 120.0
            },
            {
                "start_time": 13.8318182,
                "end_time": 13.9,
                "pitch": 56,
                "velocity": 80,
                "duration": 0.0681818,
                "tempo": 120.0
            },
            {
                "start_time": 14.2363636,
                "end_time": 14.6045455,
                "pitch": 56,
                "velocity": 80,
                "duration": 0.3681818,
                "tempo": 120.0
            },
            {
                "start_time": 14.6386364,
                "end_time": 14.8068182,
                "pitch": 61,
                "velocity": 80,
                "duration": 0.1681818,
                "tempo": 120.0
            },
            {
                "start_time": 14.8386364,
                "end_time": 15.0113636,
                "pitch": 56,
                "velocity": 80,
                "duration": 0.1727273,
                "tempo": 120.0
            },
            {
                "start_time": 15.0454545,
                "end_time": 15.2159091,
                "pitch": 65,
                "velocity": 80,
                "duration": 0.1704545,
                "tempo": 120.0
            },
            {
                "start_time": 15.25,
                "end_time": 15.4136364,
                "pitch": 63,
                "velocity": 80,
                "duration": 0.1636364,
                "tempo": 120.0
            },
            {
                "start_time": 15.4454545,
                "end_time": 15.6090909,
                "pitch": 61,
                "velocity": 80,
                "duration": 0.1636364,
                "tempo": 120.0
            },
            {
                "start_time": 15.6431818,
                "end_time": 15.8090909,
                "pitch": 56,
                "velocity": 80,
                "duration": 0.1659091,
                "tempo": 120.0
            },
            {
                "start_time": 15.8431818,
                "end_time": 16.2136364,
                "pitch": 56,
                "velocity": 80,
                "duration": 0.3704545,
                "tempo": 120.0
            },
            {
                "start_time": 16.2454545,
                "end_time": 16.4136364,
                "pitch": 61,
                "velocity": 80,
                "duration": 0.1681818,
                "tempo": 120.0
            },
            {
                "start_time": 16.4477273,
                "end_time": 16.6181818,
                "pitch": 56,
                "velocity": 80,
                "duration": 0.1704545,
                "tempo": 120.0
            },
            {
                "start_time": 16.6522727,
                "end_time": 16.825,
                "pitch": 65,
                "velocity": 80,
                "duration": 0.1727273,
                "tempo": 120.0
            },
            {
                "start_time": 16.8590909,
                "end_time": 17.0227273,
                "pitch": 63,
                "velocity": 80,
                "duration": 0.1636364,
                "tempo": 120.0
            },
            {
                "start_time": 17.0545455,
                "end_time": 17.2181818,
                "pitch": 61,
                "velocity": 80,
                "duration": 0.1636364,
                "tempo": 120.0
            },
            {
                "start_time": 17.25,
                "end_time": 17.4181818,
                "pitch": 56,
                "velocity": 80,
                "duration": 0.1681818,
                "tempo": 120.0
            },
            {
                "start_time": 17.45,
                "end_time": 17.8181818,
                "pitch": 58,
                "velocity": 80,
                "duration": 0.3681818,
                "tempo": 120.0
            },
            {
                "start_time": 17.85,
                "end_time": 18.0181818,
                "pitch": 59,
                "velocity": 80,
                "duration": 0.1681818,
                "tempo": 120.0
            },
            {
                "start_time": 18.05,
                "end_time": 18.1181818,
                "pitch": 59,
                "velocity": 80,
                "duration": 0.0681818,
                "tempo": 120.0
            },
            {
                "start_time": 19.0545455,
                "end_time": 19.4227273,
                "pitch": 70,
                "velocity": 80,
                "duration": 0.3681818,
                "tempo": 120.0
            },
            {
                "start_time": 19.4568182,
                "end_time": 19.6227273,
                "pitch": 71,
                "velocity": 80,
                "duration": 0.1659091,
                "tempo": 120.0
            },
            {
                "start_time": 19.6568182,
                "end_time": 19.725,
                "pitch": 71,
                "velocity": 80,
                "duration": 0.0681818,
                "tempo": 120.0
            },
            {
                "start_time": 20.6590909,
                "end_time": 21.0272727,
                "pitch": 56,
                "velocity": 80,
                "duration": 0.3681818,
                "tempo": 120.0
            },
            {
                "start_time": 21.0590909,
                "end_time": 21.2272727,
                "pitch": 61,
                "velocity": 80,
                "duration": 0.1681818,
                "tempo": 120.0
            },
            {
                "start_time": 21.2613636,
                "end_time": 21.4318182,
                "pitch": 56,
                "velocity": 80,
                "duration": 0.1704545,
                "tempo": 120.0
            },
            {
                "start_time": 21.4659091,
                "end_time": 21.6386364,
                "pitch": 65,
                "velocity": 80,
                "duration": 0.1727273,
                "tempo": 120.0
            },
            {
                "start_time": 21.6727273,
                "end_time": 21.8363636,
                "pitch": 63,
                "velocity": 80,
                "duration": 0.1636364,
                "tempo": 120.0
            },
            {
                "start_time": 21.8681818,
                "end_time": 22.0318182,
                "pitch": 61,
                "velocity": 80,
                "duration": 0.1636364,
                "tempo": 120.0
            },
            {
                "start_time": 22.0636364,
                "end_time": 22.2318182,
                "pitch": 56,
                "velocity": 80,
                "duration": 0.1681818,
                "tempo": 120.0
            },
            {
                "start_time": 22.2659091,
                "end_time": 22.6340909,
                "pitch": 56,
                "velocity": 80,
                "duration": 0.3681818,
                "tempo": 120.0
            },
            {
                "start_time": 22.6681818,
                "end_time": 22.8340909,
                "pitch": 61,
                "velocity": 80,
                "duration": 0.1659091,
                "tempo": 120.0
            },
            {
                "start_time": 22.8681818,
                "end_time": 23.0386364,
                "pitch": 56,
                "velocity": 80,
                "duration": 0.1704545,
                "tempo": 120.0
            },
            {
                "start_time": 23.0727273,
                "end_time": 23.2431818,
                "pitch": 65,
                "velocity": 80,
                "duration": 0.1704545,
                "tempo": 120.0
            },
            {
                "start_time": 23.2772727,
                "end_time": 23.4409091,
                "pitch": 63,
                "velocity": 80,
                "duration": 0.1636364,
                "tempo": 120.0
            },
            {
                "start_time": 23.4727273,
                "end_time": 23.6363636,
                "pitch": 61,
                "velocity": 80,
                "duration": 0.1636364,
                "tempo": 120.0
            },
            {
                "start_time": 23.6704545,
                "end_time": 23.8363636,
                "pitch": 56,
                "velocity": 80,
                "duration": 0.1659091,
                "tempo": 120.0
            },
            {
                "start_time": 23.8704545,
                "end_time": 24.2386364,
                "pitch": 61,
                "velocity": 80,
                "duration": 0.3681818,
                "tempo": 120.0
            },
            {
                "start_time": 24.2704545,
                "end_time": 24.4386364,
                "pitch": 63,
                "velocity": 80,
                "duration": 0.1681818,
                "tempo": 120.0
            },
            {
                "start_time": 24.4727273,
                "end_time": 24.5409091,
                "pitch": 63,
                "velocity": 80,
                "duration": 0.0681818,
                "tempo": 120.0
            },
            {
                "start_time": 25.475,
                "end_time": 25.8477273,
                "pitch": 73,
                "velocity": 80,
                "duration": 0.3727273,
                "tempo": 120.0
            },
            {
                "start_time": 25.8818182,
                "end_time": 26.0522727,
                "pitch": 75,
                "velocity": 80,
                "duration": 0.1704545,
                "tempo": 120.0
            },
            {
                "start_time": 26.0863636,
                "end_time": 26.1522727,
                "pitch": 75,
                "velocity": 80,
                "duration": 0.0659091,
                "tempo": 120.0
            },
            {
                "start_time": 27.0795455,
                "end_time": 27.4522727,
                "pitch": 56,
                "velocity": 80,
                "duration": 0.3727273,
                "tempo": 120.0
            },
            {
                "start_time": 27.4863636,
                "end_time": 27.6590909,
                "pitch": 56,
                "velocity": 80,
                "duration": 0.1727273,
                "tempo": 120.0
            },
            {
                "start_time": 27.6931818,
                "end_time": 27.8590909,
                "pitch": 63,
                "velocity": 80,
                "duration": 0.1659091,
                "tempo": 120.0
            },
            {
                "start_time": 27.8931818,
                "end_time": 28.0590909,
                "pitch": 56,
                "velocity": 80,
                "duration": 0.1659091,
                "tempo": 120.0
            },
            {
                "start_time": 28.0931818,
                "end_time": 28.2568182,
                "pitch": 63,
                "velocity": 80,
                "duration": 0.1636364,
                "tempo": 120.0
            },
            {
                "start_time": 28.2886364,
                "end_time": 28.6522727,
                "pitch": 56,
                "velocity": 80,
                "duration": 0.3636364,
                "tempo": 120.0
            },
            {
                "start_time": 28.6840909,
                "end_time": 29.0522727,
                "pitch": 58,
                "velocity": 80,
                "duration": 0.3681818,
                "tempo": 120.0
            },
            {
                "start_time": 29.0863636,
                "end_time": 29.2545455,
                "pitch": 58,
                "velocity": 80,
                "duration": 0.1681818,
                "tempo": 120.0
            },
            {
                "start_time": 29.2863636,
                "end_time": 29.4545455,
                "pitch": 65,
                "velocity": 80,
                "duration": 0.1681818,
                "tempo": 120.0
            },
            {
                "start_time": 29.4863636,
                "end_time": 29.6545455,
                "pitch": 58,
                "velocity": 80,
                "duration": 0.1681818,
                "tempo": 120.0
            },
            {
                "start_time": 29.6863636,
                "end_time": 29.8545455,
                "pitch": 65,
                "velocity": 80,
                "duration": 0.1681818,
                "tempo": 120.0
            },
            {
                "start_time": 29.8863636,
                "end_time": 30.2545455,
                "pitch": 58,
                "velocity": 80,
                "duration": 0.3681818,
                "tempo": 120.0
            },
            {
                "start_time": 30.2886364,
                "end_time": 30.6568182,
                "pitch": 66,
                "velocity": 80,
                "duration": 0.3681818,
                "tempo": 120.0
            },
            {
                "start_time": 30.6909091,
                "end_time": 30.7227273,
                "pitch": 65,
                "velocity": 80,
                "duration": 0.0318182,
                "tempo": 120.0
            },
            {
                "start_time": 30.7568182,
                "end_time": 30.7909091,
                "pitch": 66,
                "velocity": 80,
                "duration": 0.0340909,
                "tempo": 120.0
            },
            {
                "start_time": 30.8227273,
                "end_time": 30.8568182,
                "pitch": 65,
                "velocity": 80,
                "duration": 0.0340909,
                "tempo": 120.0
            },
            {
                "start_time": 30.8909091,
                "end_time": 31.0613636,
                "pitch": 63,
                "velocity": 80,
                "duration": 0.1704545,
                "tempo": 120.0
            },
            {
                "start_time": 31.0954545,
                "end_time": 31.4636364,
                "pitch": 65,
                "velocity": 80,
                "duration": 0.3681818,
                "tempo": 120.0
            },
            {
                "start_time": 31.4977273,
                "end_time": 31.5295455,
                "pitch": 63,
                "velocity": 80,
                "duration": 0.0318182,
                "tempo": 120.0
            },
            {
                "start_time": 31.5613636,
                "end_time": 31.5954545,
                "pitch": 65,
                "velocity": 80,
                "duration": 0.0340909,
                "tempo": 120.0
            },
            {
                "start_time": 31.6272727,
                "end_time": 31.6590909,
                "pitch": 63,
                "velocity": 80,
                "duration": 0.0318182,
                "tempo": 120.0
            },
            {
                "start_time": 31.6931818,
                "end_time": 31.8636364,
                "pitch": 61,
                "velocity": 80,
                "duration": 0.1704545,
                "tempo": 120.0
            },
            {
                "start_time": 31.8977273,
                "end_time": 32.2704545,
                "pitch": 63,
                "velocity": 80,
                "duration": 0.3727273,
                "tempo": 120.0
            },
            {
                "start_time": 32.3045455,
                "end_time": 32.3363636,
                "pitch": 61,
                "velocity": 80,
                "duration": 0.0318182,
                "tempo": 120.0
            },
            {
                "start_time": 32.3704545,
                "end_time": 32.4045455,
                "pitch": 63,
                "velocity": 80,
                "duration": 0.0340909,
                "tempo": 120.0
            },
            {
                "start_time": 32.4363636,
                "end_time": 32.4704545,
                "pitch": 61,
                "velocity": 80,
                "duration": 0.0340909,
                "tempo": 120.0
            },
            {
                "start_time": 32.5045455,
                "end_time": 32.6704545,
                "pitch": 59,
                "velocity": 80,
                "duration": 0.1659091,
                "tempo": 120.0
            },
            {
                "start_time": 32.7045455,
                "end_time": 33.0704545,
                "pitch": 61,
                "velocity": 80,
                "duration": 0.3659091,
                "tempo": 120.0
            },
            {
                "start_time": 33.1022727,
                "end_time": 33.1340909,
                "pitch": 59,
                "velocity": 80,
                "duration": 0.0318182,
                "tempo": 120.0
            },
            {
                "start_time": 33.1681818,
                "end_time": 33.2,
                "pitch": 61,
                "velocity": 80,
                "duration": 0.0318182,
                "tempo": 120.0
            },
            {
                "start_time": 33.2318182,
                "end_time": 33.2659091,
                "pitch": 59,
                "velocity": 80,
                "duration": 0.0340909,
                "tempo": 120.0
            },
            {
                "start_time": 33.2977273,
                "end_time": 33.4681818,
                "pitch": 58,
                "velocity": 80,
                "duration": 0.1704545,
                "tempo": 120.0
            },
            {
                "start_time": 33.5022727,
                "end_time": 33.8727273,
                "pitch": 56,
                "velocity": 80,
                "duration": 0.3704545,
                "tempo": 120.0
            },
            {
                "start_time": 33.9045455,
                "end_time": 34.0681818,
                "pitch": 56,
                "velocity": 80,
                "duration": 0.1636364,
                "tempo": 120.0
            },
            {
                "start_time": 34.1,
                "end_time": 34.2727273,
                "pitch": 63,
                "velocity": 80,
                "duration": 0.1727273,
                "tempo": 120.0
            },
            {
                "start_time": 34.3068182,
                "end_time": 34.4772727,
                "pitch": 56,
                "velocity": 80,
                "duration": 0.1704545,
                "tempo": 120.0
            },
            {
                "start_time": 34.5113636,
                "end_time": 34.675,
                "pitch": 63,
                "velocity": 80,
                "duration": 0.1636364,
                "tempo": 120.0
            },
            {
                "start_time": 34.7068182,
                "end_time": 34.8704545,
                "pitch": 56,
                "velocity": 80,
                "duration": 0.1636364,
                "tempo": 120.0
            },
            {
                "start_time": 34.9045455,
                "end_time": 35.0704545,
                "pitch": 56,
                "velocity": 80,
                "duration": 0.1659091,
                "tempo": 120.0
            },
            {
                "start_time": 35.1045455,
                "end_time": 35.4704545,
                "pitch": 58,
                "velocity": 80,
                "duration": 0.3659091,
                "tempo": 120.0
            },
            {
                "start_time": 35.5045455,
                "end_time": 35.6704545,
                "pitch": 58,
                "velocity": 80,
                "duration": 0.1659091,
                "tempo": 120.0
            },
            {
                "start_time": 35.7045455,
                "end_time": 35.875,
                "pitch": 65,
                "velocity": 80,
                "duration": 0.1704545,
                "tempo": 120.0
            },
            {
                "start_time": 35.9090909,
                "end_time": 36.0795455,
                "pitch": 58,
                "velocity": 80,
                "duration": 0.1704545,
                "tempo": 120.0
            },
            {
                "start_time": 36.1136364,
                "end_time": 36.2772727,
                "pitch": 65,
                "velocity": 80,
                "duration": 0.1636364,
                "tempo": 120.0
            },
            {
                "start_time": 36.3113636,
                "end_time": 36.4727273,
                "pitch": 58,
                "velocity": 80,
                "duration": 0.1613636,
                "tempo": 120.0
            },
            {
                "start_time": 36.5068182,
                "end_time": 36.6772727,
                "pitch": 58,
                "velocity": 80,
                "duration": 0.1704545,
                "tempo": 120.0
            },
            {
                "start_time": 36.7113636,
                "end_time": 37.0795455,
                "pitch": 66,
                "velocity": 80,
                "duration": 0.3681818,
                "tempo": 120.0
            },
            {
                "start_time": 37.1136364,
                "end_time": 37.2772727,
                "pitch": 59,
                "velocity": 80,
                "duration": 0.1636364,
                "tempo": 120.0
            },
            {
                "start_time": 37.3090909,
                "end_time": 37.475,
                "pitch": 63,
                "velocity": 80,
                "duration": 0.1659091,
                "tempo": 120.0
            },
            {
                "start_time": 37.5090909,
                "end_time": 37.675,
                "pitch": 66,
                "velocity": 80,
                "duration": 0.1659091,
                "tempo": 120.0
            },
            {
                "start_time": 37.7090909,
                "end_time": 37.875,
                "pitch": 68,
                "velocity": 80,
                "duration": 0.1659091,
                "tempo": 120.0
            },
            {
                "start_time": 37.9090909,
                "end_time": 38.075,
                "pitch": 63,
                "velocity": 80,
                "duration": 0.1659091,
                "tempo": 120.0
            },
            {
                "start_time": 38.1090909,
                "end_time": 38.275,
                "pitch": 59,
                "velocity": 80,
                "duration": 0.1659091,
                "tempo": 120.0
            },
            {
                "start_time": 38.3090909,
                "end_time": 38.475,
                "pitch": 66,
                "velocity": 80,
                "duration": 0.1659091,
                "tempo": 120.0
            },
            {
                "start_time": 38.5090909,
                "end_time": 38.6795455,
                "pitch": 65,
                "velocity": 80,
                "duration": 0.1704545,
                "tempo": 120.0
            },
            {
                "start_time": 38.7136364,
                "end_time": 38.7818182,
                "pitch": 65,
                "velocity": 80,
                "duration": 0.0681818,
                "tempo": 120.0
            }
        ],
        "Synth Bass 1": [
            {
                "start_time": 0.7840909,
                "end_time": 0.85,
                "pitch": 44,
                "velocity": 64,
                "duration": 0.0659091,
                "tempo": 120.0
            },
            {
                "start_time": 0.9840909,
                "end_time": 1.05,
                "pitch": 46,
                "velocity": 64,
                "duration": 0.0659091,
                "tempo": 120.0
            },
            {
                "start_time": 1.3795455,
                "end_time": 1.7477273,
                "pitch": 51,
                "velocity": 64,
                "duration": 0.3681818,
                "tempo": 120.0
            },
            {
                "start_time": 1.7818182,
                "end_time": 1.9522727,
                "pitch": 51,
                "velocity": 64,
                "duration": 0.1704545,
                "tempo": 120.0
            },
            {
                "start_time": 1.9863636,
                "end_time": 2.1522727,
                "pitch": 51,
                "velocity": 64,
                "duration": 0.1659091,
                "tempo": 120.0
            },
            {
                "start_time": 2.1863636,
                "end_time": 2.3522727,
                "pitch": 51,
                "velocity": 64,
                "duration": 0.1659091,
                "tempo": 120.0
            },
            {
                "start_time": 2.3863636,
                "end_time": 2.5522727,
                "pitch": 51,
                "velocity": 64,
                "duration": 0.1659091,
                "tempo": 120.0
            },
            {
                "start_time": 2.5863636,
                "end_time": 2.7522727,
                "pitch": 51,
                "velocity": 64,
                "duration": 0.1659091,
                "tempo": 120.0
            },
            {
                "start_time": 2.7863636,
                "end_time": 2.9522727,
                "pitch": 51,
                "velocity": 64,
                "duration": 0.1659091,
                "tempo": 120.0
            },
            {
                "start_time": 2.9863636,
                "end_time": 3.1522727,
                "pitch": 51,
                "velocity": 64,
                "duration": 0.1659091,
                "tempo": 120.0
            },
            {
                "start_time": 3.1863636,
                "end_time": 3.3568182,
                "pitch": 51,
                "velocity": 64,
                "duration": 0.1704545,
                "tempo": 120.0
            },
            {
                "start_time": 3.3909091,
                "end_time": 3.5636364,
                "pitch": 51,
                "velocity": 64,
                "duration": 0.1727273,
                "tempo": 120.0
            },
            {
                "start_time": 3.5977273,
                "end_time": 3.7636364,
                "pitch": 51,
                "velocity": 64,
                "duration": 0.1659091,
                "tempo": 120.0
            },
            {
                "start_time": 3.7977273,
                "end_time": 3.9636364,
                "pitch": 51,
                "velocity": 64,
                "duration": 0.1659091,
                "tempo": 120.0
            },
            {
                "start_time": 3.9977273,
                "end_time": 4.1613636,
                "pitch": 51,
                "velocity": 64,
                "duration": 0.1636364,
                "tempo": 120.0
            },
            {
                "start_time": 4.1931818,
                "end_time": 4.3568182,
                "pitch": 51,
                "velocity": 64,
                "duration": 0.1636364,
                "tempo": 120.0
            },
            {
                "start_time": 4.3886364,
                "end_time": 4.5568182,
                "pitch": 51,
                "velocity": 64,
                "duration": 0.1681818,
                "tempo": 120.0
            },
            {
                "start_time": 4.5886364,
                "end_time": 4.7568182,
                "pitch": 51,
                "velocity": 64,
                "duration": 0.1681818,
                "tempo": 120.0
            },
            {
                "start_time": 4.7886364,
                "end_time": 4.9613636,
                "pitch": 51,
                "velocity": 64,
                "duration": 0.1727273,
                "tempo": 120.0
            },
            {
                "start_time": 4.9954545,
                "end_time": 5.1659091,
                "pitch": 51,
                "velocity": 64,
                "duration": 0.1704545,
                "tempo": 120.0
            },
            {
                "start_time": 5.2,
                "end_time": 5.3681818,
                "pitch": 51,
                "velocity": 64,
                "duration": 0.1681818,
                "tempo": 120.0
            },
            {
                "start_time": 5.4022727,
                "end_time": 5.5704545,
                "pitch": 51,
                "velocity": 64,
                "duration": 0.1681818,
                "tempo": 120.0
            },
            {
                "start_time": 5.6022727,
                "end_time": 5.7659091,
                "pitch": 51,
                "velocity": 64,
                "duration": 0.1636364,
                "tempo": 120.0
            },
            {
                "start_time": 5.8,
                "end_time": 5.9613636,
                "pitch": 51,
                "velocity": 64,
                "duration": 0.1613636,
                "tempo": 120.0
            },
            {
                "start_time": 5.9954545,
                "end_time": 6.1636364,
                "pitch": 51,
                "velocity": 64,
                "duration": 0.1681818,
                "tempo": 120.0
            },
            {
                "start_time": 6.1954545,
                "end_time": 6.3636364,
                "pitch": 47,
                "velocity": 64,
                "duration": 0.1681818,
                "tempo": 120.0
            },
            {
                "start_time": 6.3977273,
                "end_time": 6.5681818,
                "pitch": 47,
                "velocity": 64,
                "duration": 0.1704545,
                "tempo": 120.0
            },
            {
                "start_time": 6.6022727,
                "end_time": 6.775,
                "pitch": 47,
                "velocity": 64,
                "duration": 0.1727273,
                "tempo": 120.0
            },
            {
                "start_time": 6.8090909,
                "end_time": 6.9772727,
                "pitch": 47,
                "velocity": 64,
                "duration": 0.1681818,
                "tempo": 120.0
            },
            {
                "start_time": 7.0090909,
                "end_time": 7.1772727,
                "pitch": 47,
                "velocity": 64,
                "duration": 0.1681818,
                "tempo": 120.0
            },
            {
                "start_time": 7.2113636,
                "end_time": 7.2772727,
                "pitch": 44,
                "velocity": 64,
                "duration": 0.0659091,
                "tempo": 120.0
            },
            {
                "start_time": 7.4068182,
                "end_time": 7.4727273,
                "pitch": 46,
                "velocity": 64,
                "duration": 0.0659091,
                "tempo": 120.0
            },
            {
                "start_time": 7.8045455,
                "end_time": 8.175,
                "pitch": 51,
                "velocity": 64,
                "duration": 0.3704545,
                "tempo": 120.0
            },
            {
                "start_time": 8.2068182,
                "end_time": 8.375,
                "pitch": 51,
                "velocity": 64,
                "duration": 0.1681818,
                "tempo": 120.0
            },
            {
                "start_time": 8.4090909,
                "end_time": 8.5772727,
                "pitch": 51,
                "velocity": 64,
                "duration": 0.1681818,
                "tempo": 120.0
            },
            {
                "start_time": 8.6113636,
                "end_time": 8.7772727,
                "pitch": 51,
                "velocity": 64,
                "duration": 0.1659091,
                "tempo": 120.0
            },
            {
                "start_time": 8.8113636,
                "end_time": 8.9772727,
                "pitch": 51,
                "velocity": 64,
                "duration": 0.1659091,
                "tempo": 120.0
            },
            {
                "start_time": 9.0113636,
                "end_time": 9.1772727,
                "pitch": 51,
                "velocity": 64,
                "duration": 0.1659091,
                "tempo": 120.0
            },
            {
                "start_time": 9.2113636,
                "end_time": 9.3795455,
                "pitch": 51,
                "velocity": 64,
                "duration": 0.1681818,
                "tempo": 120.0
            },
            {
                "start_time": 9.4136364,
                "end_time": 9.5818182,
                "pitch": 51,
                "velocity": 64,
                "duration": 0.1681818,
                "tempo": 120.0
            },
            {
                "start_time": 9.6136364,
                "end_time": 9.7863636,
                "pitch": 51,
                "velocity": 64,
                "duration": 0.1727273,
                "tempo": 120.0
            },
            {
                "start_time": 9.8204545,
                "end_time": 9.9909091,
                "pitch": 51,
                "velocity": 64,
                "duration": 0.1704545,
                "tempo": 120.0
            },
            {
                "start_time": 10.025,
                "end_time": 10.1931818,
                "pitch": 51,
                "velocity": 64,
                "duration": 0.1681818,
                "tempo": 120.0
            },
            {
                "start_time": 10.2272727,
                "end_time": 10.3954545,
                "pitch": 51,
                "velocity": 64,
                "duration": 0.1681818,
                "tempo": 120.0
            },
            {
                "start_time": 10.4272727,
                "end_time": 10.5909091,
                "pitch": 51,
                "velocity": 64,
                "duration": 0.1636364,
                "tempo": 120.0
            },
            {
                "start_time": 10.625,
                "end_time": 10.7863636,
                "pitch": 51,
                "velocity": 64,
                "duration": 0.1613636,
                "tempo": 120.0
            },
            {
                "start_time": 10.8204545,
                "end_time": 10.9863636,
                "pitch": 51,
                "velocity": 64,
                "duration": 0.1659091,
                "tempo": 120.0
            },
            {
                "start_time": 11.0204545,
                "end_time": 11.1863636,
                "pitch": 51,
                "velocity": 64,
                "duration": 0.1659091,
                "tempo": 120.0
            },
            {
                "start_time": 11.2204545,
                "end_time": 11.3909091,
                "pitch": 51,
                "velocity": 64,
                "duration": 0.1704545,
                "tempo": 120.0
            },
            {
                "start_time": 11.425,
                "end_time": 11.5977273,
                "pitch": 51,
                "velocity": 64,
                "duration": 0.1727273,
                "tempo": 120.0
            },
            {
                "start_time": 11.6318182,
                "end_time": 11.7977273,
                "pitch": 51,
                "velocity": 64,
                "duration": 0.1659091,
                "tempo": 120.0
            },
            {
                "start_time": 11.8318182,
                "end_time": 12.0,
                "pitch": 51,
                "velocity": 64,
                "duration": 0.1681818,
                "tempo": 120.0
            },
            {
                "start_time": 12.0340909,
                "end_time": 12.1977273,
                "pitch": 51,
                "velocity": 64,
                "duration": 0.1636364,
                "tempo": 120.0
            },
            {
                "start_time": 12.2295455,
                "end_time": 12.3931818,
                "pitch": 51,
                "velocity": 64,
                "duration": 0.1636364,
                "tempo": 120.0
            },
            {
                "start_time": 12.425,
                "end_time": 12.5931818,
                "pitch": 51,
                "velocity": 64,
                "duration": 0.1681818,
                "tempo": 120.0
            },
            {
                "start_time": 12.6272727,
                "end_time": 12.7954545,
                "pitch": 47,
                "velocity": 64,
                "duration": 0.1681818,
                "tempo": 120.0
            },
            {
                "start_time": 12.8295455,
                "end_time": 12.9954545,
                "pitch": 47,
                "velocity": 64,
                "duration": 0.1659091,
                "tempo": 120.0
            },
            {
                "start_time": 13.0295455,
                "end_time": 13.1954545,
                "pitch": 47,
                "velocity": 64,
                "duration": 0.1659091,
                "tempo": 120.0
            },
            {
                "start_time": 13.2295455,
                "end_time": 13.3954545,
                "pitch": 47,
                "velocity": 64,
                "duration": 0.1659091,
                "tempo": 120.0
            },
            {
                "start_time": 13.4295455,
                "end_time": 13.5977273,
                "pitch": 47,
                "velocity": 64,
                "duration": 0.1681818,
                "tempo": 120.0
            },
            {
                "start_time": 13.6318182,
                "end_time": 13.6977273,
                "pitch": 42,
                "velocity": 64,
                "duration": 0.0659091,
                "tempo": 120.0
            },
            {
                "start_time": 13.8318182,
                "end_time": 13.9,
                "pitch": 44,
                "velocity": 64,
                "duration": 0.0681818,
                "tempo": 120.0
            },
            {
                "start_time": 14.2363636,
                "end_time": 14.6045455,
                "pitch": 49,
                "velocity": 64,
                "duration": 0.3681818,
                "tempo": 120.0
            },
            {
                "start_time": 14.6386364,
                "end_time": 14.8068182,
                "pitch": 49,
                "velocity": 64,
                "duration": 0.1681818,
                "tempo": 120.0
            },
            {
                "start_time": 14.8386364,
                "end_time": 15.0113636,
                "pitch": 49,
                "velocity": 64,
                "duration": 0.1727273,
                "tempo": 120.0
            },
            {
                "start_time": 15.0454545,
                "end_time": 15.2159091,
                "pitch": 49,
                "velocity": 64,
                "duration": 0.1704545,
                "tempo": 120.0
            },
            {
                "start_time": 15.25,
                "end_time": 15.4136364,
                "pitch": 49,
                "velocity": 64,
                "duration": 0.1636364,
                "tempo": 120.0
            },
            {
                "start_time": 15.4454545,
                "end_time": 15.6090909,
                "pitch": 49,
                "velocity": 64,
                "duration": 0.1636364,
                "tempo": 120.0
            },
            {
                "start_time": 15.6431818,
                "end_time": 15.8090909,
                "pitch": 49,
                "velocity": 64,
                "duration": 0.1659091,
                "tempo": 120.0
            },
            {
                "start_time": 15.8431818,
                "end_time": 16.2136364,
                "pitch": 49,
                "velocity": 64,
                "duration": 0.3704545,
                "tempo": 120.0
            },
            {
                "start_time": 16.2454545,
                "end_time": 16.4136364,
                "pitch": 49,
                "velocity": 64,
                "duration": 0.1681818,
                "tempo": 120.0
            },
            {
                "start_time": 16.4477273,
                "end_time": 16.6181818,
                "pitch": 49,
                "velocity": 64,
                "duration": 0.1704545,
                "tempo": 120.0
            },
            {
                "start_time": 16.6522727,
                "end_time": 16.825,
                "pitch": 49,
                "velocity": 64,
                "duration": 0.1727273,
                "tempo": 120.0
            },
            {
                "start_time": 16.8590909,
                "end_time": 17.0227273,
                "pitch": 49,
                "velocity": 64,
                "duration": 0.1636364,
                "tempo": 120.0
            },
            {
                "start_time": 17.0545455,
                "end_time": 17.2181818,
                "pitch": 49,
                "velocity": 64,
                "duration": 0.1636364,
                "tempo": 120.0
            },
            {
                "start_time": 17.25,
                "end_time": 17.4181818,
                "pitch": 49,
                "velocity": 64,
                "duration": 0.1681818,
                "tempo": 120.0
            },
            {
                "start_time": 17.45,
                "end_time": 17.8181818,
                "pitch": 47,
                "velocity": 64,
                "duration": 0.3681818,
                "tempo": 120.0
            },
            {
                "start_time": 17.85,
                "end_time": 18.0181818,
                "pitch": 47,
                "velocity": 64,
                "duration": 0.1681818,
                "tempo": 120.0
            },
            {
                "start_time": 18.05,
                "end_time": 18.2204545,
                "pitch": 47,
                "velocity": 64,
                "duration": 0.1704545,
                "tempo": 120.0
            },
            {
                "start_time": 18.2568182,
                "end_time": 18.4272727,
                "pitch": 47,
                "velocity": 64,
                "duration": 0.1704545,
                "tempo": 120.0
            },
            {
                "start_time": 18.4613636,
                "end_time": 18.625,
                "pitch": 47,
                "velocity": 64,
                "duration": 0.1636364,
                "tempo": 120.0
            },
            {
                "start_time": 18.6568182,
                "end_time": 18.8204545,
                "pitch": 47,
                "velocity": 64,
                "duration": 0.1636364,
                "tempo": 120.0
            },
            {
                "start_time": 18.8522727,
                "end_time": 19.0204545,
                "pitch": 47,
                "velocity": 64,
                "duration": 0.1681818,
                "tempo": 120.0
            },
            {
                "start_time": 19.0545455,
                "end_time": 19.4227273,
                "pitch": 47,
                "velocity": 64,
                "duration": 0.3681818,
                "tempo": 120.0
            },
            {
                "start_time": 19.4568182,
                "end_time": 19.6227273,
                "pitch": 47,
                "velocity": 64,
                "duration": 0.1659091,
                "tempo": 120.0
            },
            {
                "start_time": 19.6568182,
                "end_time": 19.8272727,
                "pitch": 47,
                "velocity": 64,
                "duration": 0.1704545,
                "tempo": 120.0
            },
            {
                "start_time": 19.8613636,
                "end_time": 20.0318182,
                "pitch": 47,
                "velocity": 64,
                "duration": 0.1704545,
                "tempo": 120.0
            },
            {
                "start_time": 20.0659091,
                "end_time": 20.2295455,
                "pitch": 47,
                "velocity": 64,
                "duration": 0.1636364,
                "tempo": 120.0
            },
            {
                "start_time": 20.2636364,
                "end_time": 20.425,
                "pitch": 47,
                "velocity": 64,
                "duration": 0.1613636,
                "tempo": 120.0
            },
            {
                "start_time": 20.4590909,
                "end_time": 20.625,
                "pitch": 47,
                "velocity": 64,
                "duration": 0.1659091,
                "tempo": 120.0
            },
            {
                "start_time": 20.6590909,
                "end_time": 21.0272727,
                "pitch": 49,
                "velocity": 64,
                "duration": 0.3681818,
                "tempo": 120.0
            },
            {
                "start_time": 21.0590909,
                "end_time": 21.2272727,
                "pitch": 49,
                "velocity": 64,
                "duration": 0.1681818,
                "tempo": 120.0
            },
            {
                "start_time": 21.2613636,
                "end_time": 21.4318182,
                "pitch": 49,
                "velocity": 64,
                "duration": 0.1704545,
                "tempo": 120.0
            },
            {
                "start_time": 21.4659091,
                "end_time": 21.6386364,
                "pitch": 49,
                "velocity": 64,
                "duration": 0.1727273,
                "tempo": 120.0
            },
            {
                "start_time": 21.6727273,
                "end_time": 21.8363636,
                "pitch": 49,
                "velocity": 64,
                "duration": 0.1636364,
                "tempo": 120.0
            },
            {
                "start_time": 21.8681818,
                "end_time": 22.0318182,
                "pitch": 49,
                "velocity": 64,
                "duration": 0.1636364,
                "tempo": 120.0
            },
            {
                "start_time": 22.0636364,
                "end_time": 22.2318182,
                "pitch": 49,
                "velocity": 64,
                "duration": 0.1681818,
                "tempo": 120.0
            },
            {
                "start_time": 22.2659091,
                "end_time": 22.6340909,
                "pitch": 49,
                "velocity": 64,
                "duration": 0.3681818,
                "tempo": 120.0
            },
            {
                "start_time": 22.6681818,
                "end_time": 22.8340909,
                "pitch": 49,
                "velocity": 64,
                "duration": 0.1659091,
                "tempo": 120.0
            },
            {
                "start_time": 22.8681818,
                "end_time": 23.0386364,
                "pitch": 49,
                "velocity": 64,
                "duration": 0.1704545,
                "tempo": 120.0
            },
            {
                "start_time": 23.0727273,
                "end_time": 23.2431818,
                "pitch": 49,
                "velocity": 64,
                "duration": 0.1704545,
                "tempo": 120.0
            },
            {
                "start_time": 23.2772727,
                "end_time": 23.4409091,
                "pitch": 49,
                "velocity": 64,
                "duration": 0.1636364,
                "tempo": 120.0
            },
            {
                "start_time": 23.4727273,
                "end_time": 23.6363636,
                "pitch": 49,
                "velocity": 64,
                "duration": 0.1636364,
                "tempo": 120.0
            },
            {
                "start_time": 23.6704545,
                "end_time": 23.8363636,
                "pitch": 49,
                "velocity": 64,
                "duration": 0.1659091,
                "tempo": 120.0
            },
            {
                "start_time": 23.8704545,
                "end_time": 24.2386364,
                "pitch": 47,
                "velocity": 64,
                "duration": 0.3681818,
                "tempo": 120.0
            },
            {
                "start_time": 24.2704545,
                "end_time": 24.4386364,
                "pitch": 47,
                "velocity": 64,
                "duration": 0.1681818,
                "tempo": 120.0
            },
            {
                "start_time": 24.4727273,
                "end_time": 24.6431818,
                "pitch": 47,
                "velocity": 64,
                "duration": 0.1704545,
                "tempo": 120.0
            },
            {
                "start_time": 24.6772727,
                "end_time": 24.85,
                "pitch": 47,
                "velocity": 64,
                "duration": 0.1727273,
                "tempo": 120.0
            },
            {
                "start_time": 24.8840909,
                "end_time": 25.0477273,
                "pitch": 47,
                "velocity": 64,
                "duration": 0.1636364,
                "tempo": 120.0
            },
            {
                "start_time": 25.0795455,
                "end_time": 25.2431818,
                "pitch": 47,
                "velocity": 64,
                "duration": 0.1636364,
                "tempo": 120.0
            },
            {
                "start_time": 25.275,
                "end_time": 25.4431818,
                "pitch": 47,
                "velocity": 64,
                "duration": 0.1681818,
                "tempo": 120.0
            },
            {
                "start_time": 25.475,
                "end_time": 25.8477273,
                "pitch": 47,
                "velocity": 64,
                "duration": 0.3727273,
                "tempo": 120.0
            },
            {
                "start_time": 25.8818182,
                "end_time": 26.0522727,
                "pitch": 47,
                "velocity": 64,
                "duration": 0.1704545,
                "tempo": 120.0
            },
            {
                "start_time": 26.0863636,
                "end_time": 26.2522727,
                "pitch": 47,
                "velocity": 64,
                "duration": 0.1659091,
                "tempo": 120.0
            },
            {
                "start_time": 26.2863636,
                "end_time": 26.4522727,
                "pitch": 47,
                "velocity": 64,
                "duration": 0.1659091,
                "tempo": 120.0
            },
            {
                "start_time": 26.4863636,
                "end_time": 26.65,
                "pitch": 47,
                "velocity": 64,
                "duration": 0.1636364,
                "tempo": 120.0
            },
            {
                "start_time": 26.6818182,
                "end_time": 26.8454545,
                "pitch": 47,
                "velocity": 64,
                "duration": 0.1636364,
                "tempo": 120.0
            },
            {
                "start_time": 26.8795455,
                "end_time": 27.0454545,
                "pitch": 47,
                "velocity": 64,
                "duration": 0.1659091,
                "tempo": 120.0
            },
            {
                "start_time": 27.0795455,
                "end_time": 27.4522727,
                "pitch": 44,
                "velocity": 64,
                "duration": 0.3727273,
                "tempo": 120.0
            },
            {
                "start_time": 27.4863636,
                "end_time": 27.6590909,
                "pitch": 44,
                "velocity": 64,
                "duration": 0.1727273,
                "tempo": 120.0
            },
            {
                "start_time": 27.6931818,
                "end_time": 27.8590909,
                "pitch": 44,
                "velocity": 64,
                "duration": 0.1659091,
                "tempo": 120.0
            },
            {
                "start_time": 27.8931818,
                "end_time": 28.0590909,
                "pitch": 44,
                "velocity": 64,
                "duration": 0.1659091,
                "tempo": 120.0
            },
            {
                "start_time": 28.0931818,
                "end_time": 28.2568182,
                "pitch": 44,
                "velocity": 64,
                "duration": 0.1636364,
                "tempo": 120.0
            },
            {
                "start_time": 28.2886364,
                "end_time": 28.4522727,
                "pitch": 44,
                "velocity": 64,
                "duration": 0.1636364,
                "tempo": 120.0
            },
            {
                "start_time": 28.4840909,
                "end_time": 28.6522727,
                "pitch": 44,
                "velocity": 64,
                "duration": 0.1681818,
                "tempo": 120.0
            },
            {
                "start_time": 28.6840909,
                "end_time": 29.0522727,
                "pitch": 53,
                "velocity": 64,
                "duration": 0.3681818,
                "tempo": 120.0
            },
            {
                "start_time": 29.0863636,
                "end_time": 29.2545455,
                "pitch": 53,
                "velocity": 64,
                "duration": 0.1681818,
                "tempo": 120.0
            },
            {
                "start_time": 29.2863636,
                "end_time": 29.4545455,
                "pitch": 53,
                "velocity": 64,
                "duration": 0.1681818,
                "tempo": 120.0
            },
            {
                "start_time": 29.4863636,
                "end_time": 29.6545455,
                "pitch": 53,
                "velocity": 64,
                "duration": 0.1681818,
                "tempo": 120.0
            },
            {
                "start_time": 29.6863636,
                "end_time": 29.8545455,
                "pitch": 53,
                "velocity": 64,
                "duration": 0.1681818,
                "tempo": 120.0
            },
            {
                "start_time": 29.8863636,
                "end_time": 30.0545455,
                "pitch": 53,
                "velocity": 64,
                "duration": 0.1681818,
                "tempo": 120.0
            },
            {
                "start_time": 30.0863636,
                "end_time": 30.2545455,
                "pitch": 53,
                "velocity": 64,
                "duration": 0.1681818,
                "tempo": 120.0
            },
            {
                "start_time": 30.2886364,
                "end_time": 30.6568182,
                "pitch": 51,
                "velocity": 64,
                "duration": 0.3681818,
                "tempo": 120.0
            },
            {
                "start_time": 30.6909091,
                "end_time": 30.8568182,
                "pitch": 51,
                "velocity": 64,
                "duration": 0.1659091,
                "tempo": 120.0
            },
            {
                "start_time": 30.8909091,
                "end_time": 31.0613636,
                "pitch": 51,
                "velocity": 64,
                "duration": 0.1704545,
                "tempo": 120.0
            },
            {
                "start_time": 31.0954545,
                "end_time": 31.2659091,
                "pitch": 51,
                "velocity": 64,
                "duration": 0.1704545,
                "tempo": 120.0
            },
            {
                "start_time": 31.3,
                "end_time": 31.4636364,
                "pitch": 51,
                "velocity": 64,
                "duration": 0.1636364,
                "tempo": 120.0
            },
            {
                "start_time": 31.4977273,
                "end_time": 31.6590909,
                "pitch": 51,
                "velocity": 64,
                "duration": 0.1613636,
                "tempo": 120.0
            },
            {
                "start_time": 31.6931818,
                "end_time": 31.8636364,
                "pitch": 51,
                "velocity": 64,
                "duration": 0.1704545,
                "tempo": 120.0
            },
            {
                "start_time": 31.8977273,
                "end_time": 32.0681818,
                "pitch": 51,
                "velocity": 64,
                "duration": 0.1704545,
                "tempo": 120.0
            },
            {
                "start_time": 32.1022727,
                "end_time": 32.2704545,
                "pitch": 51,
                "velocity": 64,
                "duration": 0.1681818,
                "tempo": 120.0
            },
            {
                "start_time": 32.3045455,
                "end_time": 32.4704545,
                "pitch": 51,
                "velocity": 64,
                "duration": 0.1659091,
                "tempo": 120.0
            },
            {
                "start_time": 32.5045455,
                "end_time": 32.6704545,
                "pitch": 51,
                "velocity": 64,
                "duration": 0.1659091,
                "tempo": 120.0
            },
            {
                "start_time": 32.7045455,
                "end_time": 32.8727273,
                "pitch": 51,
                "velocity": 64,
                "duration": 0.1681818,
                "tempo": 120.0
            },
            {
                "start_time": 32.9068182,
                "end_time": 33.0704545,
                "pitch": 51,
                "velocity": 64,
                "duration": 0.1636364,
                "tempo": 120.0
            },
            {
                "start_time": 33.1022727,
                "end_time": 33.2659091,
                "pitch": 51,
                "velocity": 64,
                "duration": 0.1636364,
                "tempo": 120.0
            },
            {
                "start_time": 33.2977273,
                "end_time": 33.4681818,
                "pitch": 51,
                "velocity": 64,
                "duration": 0.1704545,
                "tempo": 120.0
            },
            {
                "start_time": 33.5022727,
                "end_time": 33.8727273,
                "pitch": 44,
                "velocity": 64,
                "duration": 0.3704545,
                "tempo": 120.0
            },
            {
                "start_time": 33.9045455,
                "end_time": 34.0681818,
                "pitch": 44,
                "velocity": 64,
                "duration": 0.1636364,
                "tempo": 120.0
            },
            {
                "start_time": 34.1,
                "end_time": 34.2727273,
                "pitch": 44,
                "velocity": 64,
                "duration": 0.1727273,
                "tempo": 120.0
            },
            {
                "start_time": 34.3068182,
                "end_time": 34.4772727,
                "pitch": 44,
                "velocity": 64,
                "duration": 0.1704545,
                "tempo": 120.0
            },
            {
                "start_time": 34.5113636,
                "end_time": 34.675,
                "pitch": 44,
                "velocity": 64,
                "duration": 0.1636364,
                "tempo": 120.0
            },
            {
                "start_time": 34.7068182,
                "end_time": 34.8704545,
                "pitch": 44,
                "velocity": 64,
                "duration": 0.1636364,
                "tempo": 120.0
            },
            {
                "start_time": 34.9045455,
                "end_time": 35.0704545,
                "pitch": 44,
                "velocity": 64,
                "duration": 0.1659091,
                "tempo": 120.0
            },
            {
                "start_time": 35.1045455,
                "end_time": 35.4704545,
                "pitch": 46,
                "velocity": 64,
                "duration": 0.3659091,
                "tempo": 120.0
            },
            {
                "start_time": 35.5045455,
                "end_time": 35.6704545,
                "pitch": 46,
                "velocity": 64,
                "duration": 0.1659091,
                "tempo": 120.0
            },
            {
                "start_time": 35.7045455,
                "end_time": 35.875,
                "pitch": 46,
                "velocity": 64,
                "duration": 0.1704545,
                "tempo": 120.0
            },
            {
                "start_time": 35.9090909,
                "end_time": 36.0795455,
                "pitch": 46,
                "velocity": 64,
                "duration": 0.1704545,
                "tempo": 120.0
            },
            {
                "start_time": 36.1136364,
                "end_time": 36.2772727,
                "pitch": 46,
                "velocity": 64,
                "duration": 0.1636364,
                "tempo": 120.0
            },
            {
                "start_time": 36.3113636,
                "end_time": 36.4727273,
                "pitch": 46,
                "velocity": 64,
                "duration": 0.1613636,
                "tempo": 120.0
            },
            {
                "start_time": 36.5068182,
                "end_time": 36.6772727,
                "pitch": 46,
                "velocity": 64,
                "duration": 0.1704545,
                "tempo": 120.0
            },
            {
                "start_time": 36.7113636,
                "end_time": 37.0795455,
                "pitch": 47,
                "velocity": 64,
                "duration": 0.3681818,
                "tempo": 120.0
            },
            {
                "start_time": 37.1136364,
                "end_time": 37.2772727,
                "pitch": 47,
                "velocity": 64,
                "duration": 0.1636364,
                "tempo": 120.0
            },
            {
                "start_time": 37.3090909,
                "end_time": 37.475,
                "pitch": 47,
                "velocity": 64,
                "duration": 0.1659091,
                "tempo": 120.0
            },
            {
                "start_time": 37.5090909,
                "end_time": 37.675,
                "pitch": 47,
                "velocity": 64,
                "duration": 0.1659091,
                "tempo": 120.0
            },
            {
                "start_time": 37.7090909,
                "end_time": 37.875,
                "pitch": 47,
                "velocity": 64,
                "duration": 0.1659091,
                "tempo": 120.0
            },
            {
                "start_time": 37.9090909,
                "end_time": 38.075,
                "pitch": 47,
                "velocity": 64,
                "duration": 0.1659091,
                "tempo": 120.0
            },
            {
                "start_time": 38.1090909,
                "end_time": 38.275,
                "pitch": 47,
                "velocity": 64,
                "duration": 0.1659091,
                "tempo": 120.0
            },
            {
                "start_time": 38.3090909,
                "end_time": 38.475,
                "pitch": 47,
                "velocity": 64,
                "duration": 0.1659091,
                "tempo": 120.0
            },
            {
                "start_time": 38.5090909,
                "end_time": 38.6795455,
                "pitch": 49,
                "velocity": 64,
                "duration": 0.1704545,
                "tempo": 120.0
            },
            {
                "start_time": 38.7136364,
                "end_time": 38.7818182,
                "pitch": 49,
                "velocity": 64,
                "duration": 0.0681818,
                "tempo": 120.0
            }
        ]
    }
}