{
    "mood": "angry",
    "instruments": {
        "Vibraphone": [
            {
                "start_time": 0.1818182,
                "end_time": 0.3727273,
                "pitch": 64,
                "velocity": 80,
                "duration": 0.1909091,
                "tempo": 120.0
            },
            {
                "start_time": 0.3954545,
                "end_time": 0.6340909,
                "pitch": 64,
                "velocity": 80,
                "duration": 0.2386364,
                "tempo": 120.0
            },
            {
                "start_time": 0.65,
                "end_time": 1.0318182,
                "pitch": 71,
                "velocity": 80,
                "duration": 0.3818182,
                "tempo": 120.0
            },
            {
                "start_time": 1.05,
                "end_time": 1.2954545,
                "pitch": 76,
                "velocity": 80,
                "duration": 0.2454545,
                "tempo": 120.0
            },
            {
                "start_time": 1.3113636,
                "end_time": 1.6931818,
                "pitch": 76,
                "velocity": 80,
                "duration": 0.3818182,
                "tempo": 120.0
            },
            {
                "start_time": 1.9772727,
                "end_time": 2.2272727,
                "pitch": 64,
                "velocity": 80,
                "duration": 0.25,
                "tempo": 120.0
            },
            {
                "start_time": 2.2454545,
                "end_time": 2.4954545,
                "pitch": 64,
                "velocity": 80,
                "duration": 0.25,
                "tempo": 120.0
            },
            {
                "start_time": 2.5113636,
                "end_time": 2.9022727,
                "pitch": 71,
                "velocity": 80,
                "duration": 0.3909091,
                "tempo": 120.0
            },
            {
                "start_time": 2.9204545,
                "end_time": 3.1727273,
                "pitch": 76,
                "velocity": 80,
                "duration": 0.2522727,
                "tempo": 120.0
            },
            {
                "start_time": 3.1886364,
                "end_time": 3.5727273,
                "pitch": 76,
                "velocity": 80,
                "duration": 0.3840909,
                "tempo": 120.0
            },
            {
                "start_time": 3.8568182,
                "end_time": 4.1068182,
                "pitch": 64,
                "velocity": 80,
                "duration": 0.25,
                "tempo": 120.0
            },
            {
                "start_time": 4.125,
                "end_time": 4.3795455,
                "pitch": 64,
                "velocity": 80,
                "duration": 0.2545455,
                "tempo": 120.0
            },
            {
                "start_time": 4.3954545,
                "end_time": 4.7840909,
                "pitch": 71,
                "velocity": 80,
                "duration": 0.3886364,
                "tempo": 120.0
            },
            {
                "start_time": 4.8022727,
                "end_time": 5.0522727,
                "pitch": 76,
                "velocity": 80,
                "duration": 0.25,
                "tempo": 120.0
            },
            {
                "start_time": 5.0681818,
                "end_time": 5.4522727,
                "pitch": 76,
                "velocity": 80,
                "duration": 0.3840909,
                "tempo": 120.0
            },
            {
                "start_time": 5.7363636,
                "end_time": 5.9909091,
                "pitch": 64,
                "velocity": 80,
                "duration": 0.2545455,
                "tempo": 120.0
            },
            {
                "start_time": 6.0090909,
                "end_time": 6.2636364,
                "pitch": 64,
                "velocity": 80,
                "duration": 0.2545455,
                "tempo": 120.0
            },
            {
                "start_time": 6.2818182,
                "end_time": 6.6568182,
                "pitch": 71,
                "velocity": 80,
                "duration": 0.375,
                "tempo": 120.0
            },
            {
                "start_time": 6.675,
                "end_time": 6.925,
                "pitch": 76,
                "velocity": 80,
                "duration": 0.25,
                "tempo": 120.0
            },
            {
                "start_time": 6.9431818,
                "end_time": 7.3318182,
                "pitch": 76,
                "velocity": 80,
                "duration": 0.3886364,
                "tempo": 120.0
            },
            {
                "start_time": 7.6227273,
                "end_time": 7.8772727,
                "pitch": 62,
                "velocity": 80,
                "duration": 0.2545455,
                "tempo": 120.0
            },
            {
                "start_time": 7.8931818,
                "end_time": 8.1431818,
                "pitch": 62,
                "velocity": 80,
                "duration": 0.25,
                "tempo": 120.0
            },
            {
                "start_time": 8.1613636,
                "end_time": 8.5454545,
                "pitch": 68,
                "velocity": 80,
                "duration": 0.3840909,
                "tempo": 120.0
            },
            {
                "start_time": 8.5613636,
                "end_time": 8.8113636,
                "pitch": 73,
                "velocity": 80,
                "duration": 0.25,
                "tempo": 120.0
            },
            {
                "start_time": 8.8295455,
                "end_time": 9.2181818,
                "pitch": 73,
                "velocity": 80,
                "duration": 0.3886364,
                "tempo": 120.0
            },
            {
                "start_time": 9.5068182,
                "end_time": 9.7568182,
                "pitch": 62,
                "velocity": 80,
                "duration": 0.25,
                "tempo": 120.0
            },
            {
                "start_time": 9.7727273,
                "end_time": 10.025,
                "pitch": 62,
                "velocity": 80,
                "duration": 0.2522727,
                "tempo": 120.0
            },
            {
                "start_time": 10.0409091,
                "end_time": 10.4318182,
                "pitch": 69,
                "velocity": 80,
                "duration": 0.3909091,
                "tempo": 120.0
            },
            {
                "start_time": 10.45,
                "end_time": 10.7022727,
                "pitch": 74,
                "velocity": 80,
                "duration": 0.2522727,
                "tempo": 120.0
            },
            {
                "start_time": 10.7181818,
                "end_time": 11.1022727,
                "pitch": 74,
                "velocity": 80,
                "duration": 0.3840909,
                "tempo": 120.0
            },
            {
                "start_time": 11.3863636,
                "end_time": 11.6363636,
                "pitch": 60,
                "velocity": 80,
                "duration": 0.25,
                "tempo": 120.0
            },
            {
                "start_time": 11.6545455,
                "end_time": 11.9045455,
                "pitch": 60,
                "velocity": 80,
                "duration": 0.25,
                "tempo": 120.0
            },
            {
                "start_time": 11.9204545,
                "end_time": 12.3068182,
                "pitch": 66,
                "velocity": 80,
                "duration": 0.3863636,
                "tempo": 120.0
            },
            {
                "start_time": 12.325,
                "end_time": 12.5795455,
                "pitch": 71,
                "velocity": 80,
                "duration": 0.2545455,
                "tempo": 120.0
            },
            {
                "start_time": 12.5954545,
                "end_time": 12.9818182,
                "pitch": 71,
                "velocity": 80,
                "duration": 0.3863636,
                "tempo": 120.0
            },
            {
                "start_time": 13.2659091,
                "end_time": 13.5204545,
                "pitch": 60,
                "velocity": 80,
                "duration": 0.2545455,
                "tempo": 120.0
            },
            {
                "start_time": 13.5386364,
                "end_time": 13.7931818,
                "pitch": 60,
                "velocity": 80,
                "duration": 0.2545455,
                "tempo": 120.0
            },
            {
                "start_time": 13.8113636,
                "end_time": 14.1931818,
                "pitch": 68,
                "velocity": 80,
                "duration": 0.3818182,
                "tempo": 120.0
            },
            {
                "start_time": 14.2113636,
                "end_time": 14.4613636,
                "pitch": 71,
                "velocity": 80,
                "duration": 0.25,
                "tempo": 120.0
            },
            {
                "start_time": 14.4795455,
                "end_time": 14.8613636,
                "pitch": 71,
                "velocity": 80,
                "duration": 0.3818182,
                "tempo": 120.0
            },
            {
                "start_time": 15.15,
                "end_time": 15.4045455,
                "pitch": 64,
                "velocity": 80,
                "duration": 0.2545455,
                "tempo": 120.0
            },
            {
                "start_time": 15.4227273,
                "end_time": 15.6727273,
                "pitch": 64,
                "velocity": 80,
                "duration": 0.25,
                "tempo": 120.0
            },
            {
                "start_time": 15.6909091,
                "end_time": 16.075,
                "pitch": 71,
                "velocity": 80,
                "duration": 0.3840909,
                "tempo": 120.0
            },
            {
                "start_time": 16.0909091,
                "end_time": 16.3409091,
                "pitch": 76,
                "velocity": 80,
                "duration": 0.25,
                "tempo": 120.0
            },
            {
                "start_time": 16.3590909,
                "end_time": 16.7431818,
                "pitch": 76,
                "velocity": 80,
                "duration": 0.3840909,
                "tempo": 120.0
            },
            {
                "start_time": 17.0272727,
                "end_time": 17.2818182,
                "pitch": 64,
                "velocity": 80,
                "duration": 0.2545455,
                "tempo": 120.0
            },
            {
                "start_time": 17.2977273,
                "end_time": 17.5522727,
                "pitch": 64,
                "velocity": 80,
                "duration": 0.2545455,
                "tempo": 120.0
            },
            {
                "start_time": 17.5704545,
                "end_time": 17.9613636,
                "pitch": 71,
                "velocity": 80,
                "duration": 0.3909091,
                "tempo": 120.0
            },
            {
                "start_time": 17.9795455,
                "end_time": 18.2295455,
                "pitch": 76,
                "velocity": 80,
                "duration": 0.25,
                "tempo": 120.0
            },
            {
                "start_time": 18.2454545,
                "end_time": 18.6227273,
                "pitch": 76,
                "velocity": 80,
                "duration": 0.3772727,
                "tempo": 120.0
            },
            {
                "start_time": 18.9113636,
                "end_time": 19.1659091,
                "pitch": 64,
                "velocity": 80,
                "duration": 0.2545455,
                "tempo": 120.0
            },
            {
                "start_time": 19.1840909,
                "end_time": 19.4340909,
                "pitch": 64,
                "velocity": 80,
                "duration": 0.25,
                "tempo": 120.0
            },
            {
                "start_time": 19.45,
                "end_time": 19.8363636,
                "pitch": 71,
                "velocity": 80,
                "duration": 0.3863636,
                "tempo": 120.0
            },
            {
                "start_time": 19.8545455,
                "end_time": 20.1090909,
                "pitch": 76,
                "velocity": 80,
                "duration": 0.2545455,
                "tempo": 120.0
            },
            {
                "start_time": 20.125,
                "end_time": 20.5113636,
                "pitch": 76,
                "velocity": 80,
                "duration": 0.3863636,
                "tempo": 120.0
            },
            {
                "start_time": 20.7954545,
                "end_time": 21.0454545,
                "pitch": 64,
                "velocity": 80,
                "duration": 0.25,
                "tempo": 120.0
            },
            {
                "start_time": 21.0636364,
                "end_time": 21.3136364,
                "pitch": 64,
                "velocity": 80,
                "duration": 0.25,
                "tempo": 120.0
            },
            {
                "start_time": 21.3295455,
                "end_time": 21.7136364,
                "pitch": 71,
                "velocity": 80,
                "duration": 0.3840909,
                "tempo": 120.0
            },
            {
                "start_time": 21.7318182,
                "end_time": 21.9818182,
                "pitch": 76,
                "velocity": 80,
                "duration": 0.25,
                "tempo": 120.0
            },
            {
                "start_time": 21.9977273,
                "end_time": 22.3818182,
                "pitch": 76,
                "velocity": 80,
                "duration": 0.3840909,
                "tempo": 120.0
            },
            {
                "start_time": 22.6704545,
                "end_time": 22.925,
                "pitch": 62,
                "velocity": 80,
                "duration": 0.2545455,
                "tempo": 120.0
            },
            {
                "start_time": 22.9431818,
                "end_time": 23.1931818,
                "pitch": 62,
                "velocity": 80,
                "duration": 0.25,
                "tempo": 120.0
            },
            {
                "start_time": 23.2113636,
                "end_time": 23.5954545,
                "pitch": 68,
                "velocity": 80,
                "duration": 0.3840909,
                "tempo": 120.0
            },
            {
                "start_time": 23.6136364,
                "end_time": 23.8681818,
                "pitch": 73,
                "velocity": 80,
                "duration": 0.2545455,
                "tempo": 120.0
            },
            {
                "start_time": 23.8863636,
                "end_time": 24.275,
                "pitch": 73,
                "velocity": 80,
                "duration": 0.3886364,
                "tempo": 120.0
            },
            {
                "start_time": 24.5659091,
                "end_time": 24.8159091,
                "pitch": 62,
                "velocity": 80,
                "duration": 0.25,
                "tempo": 120.0
            },
            {
                "start_time": 24.8318182,
                "end_time": 25.0818182,
                "pitch": 62,
                "velocity": 80,
                "duration": 0.25,
                "tempo": 120.0
            },
            {
                "start_time": 25.1,
                "end_time": 25.4840909,
                "pitch": 69,
                "velocity": 80,
                "duration": 0.3840909,
                "tempo": 120.0
            },
            {
                "start_time": 25.5,
                "end_time": 25.75,
                "pitch": 74,
                "velocity": 80,
                "duration": 0.25,
                "tempo": 120.0
            },
            {
                "start_time": 25.7681818,
                "end_time": 26.1522727,
                "pitch": 74,
                "velocity": 80,
                "duration": 0.3840909,
                "tempo": 120.0
            },
            {
                "start_time": 26.4363636,
                "end_time": 26.6863636,
                "pitch": 60,
                "velocity": 80,
                "duration": 0.25,
                "tempo": 120.0
            },
            {
                "start_time": 26.7022727,
                "end_time": 26.9568182,
                "pitch": 60,
                "velocity": 80,
                "duration": 0.2545455,
                "tempo": 120.0
            },
            {
                "start_time": 26.975,
                "end_time": 27.3659091,
                "pitch": 66,
                "velocity": 80,
                "duration": 0.3909091,
                "tempo": 120.0
            },
            {
                "start_time": 27.3840909,
                "end_time": 27.6386364,
                "pitch": 71,
                "velocity": 80,
                "duration": 0.2545455,
                "tempo": 120.0
            },
            {
                "start_time": 27.6545455,
                "end_time": 28.0409091,
                "pitch": 71,
                "velocity": 80,
                "duration": 0.3863636,
                "tempo": 120.0
            },
            {
                "start_time": 28.325,
                "end_time": 28.575,
                "pitch": 60,
                "velocity": 80,
                "duration": 0.25,
                "tempo": 120.0
            },
            {
                "start_time": 28.5931818,
                "end_time": 28.8431818,
                "pitch": 60,
                "velocity": 80,
                "duration": 0.25,
                "tempo": 120.0
            },
            {
                "start_time": 28.8590909,
                "end_time": 29.2431818,
                "pitch": 68,
                "velocity": 80,
                "duration": 0.3840909,
                "tempo": 120.0
            },
            {
                "start_time": 29.2613636,
                "end_time": 29.5136364,
                "pitch": 71,
                "velocity": 80,
                "duration": 0.2522727,
                "tempo": 120.0
            },
            {
                "start_time": 29.5295455,
                "end_time": 29.9204545,
                "pitch": 71,
                "velocity": 80,
                "duration": 0.3909091,
                "tempo": 120.0
            },
            {
                "start_time": 29.9386364,
                "end_time": 30.1886364,
                "pitch": 61,
                "velocity": 64,
                "duration": 0.25,
                "tempo": 120.0
            },
            {
                "start_time": 30.2045455,
                "end_time": 30.3227273,
                "pitch": 64,
                "velocity": 64,
                "duration": 0.1181818,
                "tempo": 120.0
            },
            {
                "start_time": 30.3386364,
                "end_time": 30.4545455,
                "pitch": 71,
                "velocity": 64,
                "duration": 0.1159091,
                "tempo": 120.0
            },
            {
                "start_time": 30.4727273,
                "end_time": 30.5886364,
                "pitch": 64,
                "velocity": 64,
                "duration": 0.1159091,
                "tempo": 120.0
            },
            {
                "start_time": 30.6068182,
                "end_time": 30.7227273,
                "pitch": 75,
                "velocity": 64,
                "duration": 0.1159091,
                "tempo": 120.0
            },
            {
                "start_time": 30.7409091,
                "end_time": 30.8568182,
                "pitch": 71,
                "velocity": 64,
                "duration": 0.1159091,
                "tempo": 120.0
            },
            {
                "start_time": 30.8727273,
                "end_time": 31.125,
                "pitch": 76,
                "velocity": 64,
                "duration": 0.2522727,
                "tempo": 120.0
            },
            {
                "start_time": 31.1431818,
                "end_time": 31.2613636,
                "pitch": 75,
                "velocity": 64,
                "duration": 0.1181818,
                "tempo": 120.0
            },
            {
                "start_time": 31.2795455,
                "end_time": 31.3977273,
                "pitch": 71,
                "velocity": 64,
                "duration": 0.1181818,
                "tempo": 120.0
            },
            {
                "start_time": 31.4159091,
                "end_time": 31.5340909,
                "pitch": 75,
                "velocity": 64,
                "duration": 0.1181818,
                "tempo": 120.0
            },
            {
                "start_time": 31.5522727,
                "end_time": 31.8,
                "pitch": 61,
                "velocity": 64,
                "duration": 0.2477273,
                "tempo": 120.0
            },
            {
                "start_time": 31.8181818,
                "end_time": 31.9340909,
                "pitch": 64,
                "velocity": 64,
                "duration": 0.1159091,
                "tempo": 120.0
            },
            {
                "start_time": 31.9522727,
                "end_time": 32.0681818,
                "pitch": 71,
                "velocity": 64,
                "duration": 0.1159091,
                "tempo": 120.0
            },
            {
                "start_time": 32.0863636,
                "end_time": 32.3363636,
                "pitch": 61,
                "velocity": 64,
                "duration": 0.25,
                "tempo": 120.0
            },
            {
                "start_time": 32.3522727,
                "end_time": 32.4681818,
                "pitch": 64,
                "velocity": 64,
                "duration": 0.1159091,
                "tempo": 120.0
            },
            {
                "start_time": 32.4863636,
                "end_time": 32.6022727,
                "pitch": 71,
                "velocity": 64,
                "duration": 0.1159091,
                "tempo": 120.0
            },
            {
                "start_time": 32.6204545,
                "end_time": 32.7363636,
                "pitch": 64,
                "velocity": 64,
                "duration": 0.1159091,
                "tempo": 120.0
            },
            {
                "start_time": 32.7522727,
                "end_time": 32.8704545,
                "pitch": 75,
                "velocity": 64,
                "duration": 0.1181818,
                "tempo": 120.0
            },
            {
                "start_time": 32.8863636,
                "end_time": 33.0022727,
                "pitch": 71,
                "velocity": 64,
                "duration": 0.1159091,
                "tempo": 120.0
            },
            {
                "start_time": 33.0204545,
                "end_time": 33.2727273,
                "pitch": 76,
                "velocity": 64,
                "duration": 0.2522727,
                "tempo": 120.0
            },
            {
                "start_time": 33.2909091,
                "end_time": 33.4090909,
                "pitch": 75,
                "velocity": 64,
                "duration": 0.1181818,
                "tempo": 120.0
            },
            {
                "start_time": 33.425,
                "end_time": 33.5454545,
                "pitch": 71,
                "velocity": 64,
                "duration": 0.1204545,
                "tempo": 120.0
            },
            {
                "start_time": 33.5613636,
                "end_time": 33.6795455,
                "pitch": 75,
                "velocity": 64,
                "duration": 0.1181818,
                "tempo": 120.0
            },
            {
                "start_time": 33.6977273,
                "end_time": 33.9477273,
                "pitch": 61,
                "velocity": 64,
                "duration": 0.25,
                "tempo": 120.0
            },
            {
                "start_time": 33.9659091,
                "end_time": 34.0818182,
                "pitch": 64,
                "velocity": 64,
                "duration": 0.1159091,
                "tempo": 120.0
            },
            {
                "start_time": 34.1,
                "end_time": 34.2159091,
                "pitch": 71,
                "velocity": 64,
                "duration": 0.1159091,
                "tempo": 120.0
            },
            {
                "start_time": 34.2340909,
                "end_time": 34.4863636,
                "pitch": 60,
                "velocity": 64,
                "duration": 0.2522727,
                "tempo": 120.0
            },
            {
                "start_time": 34.5045455,
                "end_time": 34.6227273,
                "pitch": 64,
                "velocity": 64,
                "duration": 0.1181818,
                "tempo": 120.0
            },
            {
                "start_time": 34.6409091,
                "end_time": 34.7590909,
                "pitch": 70,
                "velocity": 64,
                "duration": 0.1181818,
                "tempo": 120.0
            },
            {
                "start_time": 34.7772727,
                "end_time": 34.8931818,
                "pitch": 64,
                "velocity": 64,
                "duration": 0.1159091,
                "tempo": 120.0
            },
            {
                "start_time": 34.9090909,
                "end_time": 35.0272727,
                "pitch": 75,
                "velocity": 64,
                "duration": 0.1181818,
                "tempo": 120.0
            },
            {
                "start_time": 35.0431818,
                "end_time": 35.1590909,
                "pitch": 70,
                "velocity": 64,
                "duration": 0.1159091,
                "tempo": 120.0
            },
            {
                "start_time": 35.1772727,
                "end_time": 35.4295455,
                "pitch": 76,
                "velocity": 64,
                "duration": 0.2522727,
                "tempo": 120.0
            },
            {
                "start_time": 35.4454545,
                "end_time": 35.5659091,
                "pitch": 75,
                "velocity": 64,
                "duration": 0.1204545,
                "tempo": 120.0
            },
            {
                "start_time": 35.5818182,
                "end_time": 35.7022727,
                "pitch": 70,
                "velocity": 64,
                "duration": 0.1204545,
                "tempo": 120.0
            },
            {
                "start_time": 35.7181818,
                "end_time": 35.8363636,
                "pitch": 75,
                "velocity": 64,
                "duration": 0.1181818,
                "tempo": 120.0
            },
            {
                "start_time": 35.8545455,
                "end_time": 36.1045455,
                "pitch": 60,
                "velocity": 64,
                "duration": 0.25,
                "tempo": 120.0
            },
            {
                "start_time": 36.1227273,
                "end_time": 36.2386364,
                "pitch": 64,
                "velocity": 64,
                "duration": 0.1159091,
                "tempo": 120.0
            },
            {
                "start_time": 36.2545455,
                "end_time": 36.3727273,
                "pitch": 70,
                "velocity": 64,
                "duration": 0.1181818,
                "tempo": 120.0
            },
            {
                "start_time": 36.3886364,
                "end_time": 36.6431818,
                "pitch": 60,
                "velocity": 64,
                "duration": 0.2545455,
                "tempo": 120.0
            },
            {
                "start_time": 36.6613636,
                "end_time": 36.7795455,
                "pitch": 64,
                "velocity": 64,
                "duration": 0.1181818,
                "tempo": 120.0
            },
            {
                "start_time": 36.7977273,
                "end_time": 36.9159091,
                "pitch": 70,
                "velocity": 64,
                "duration": 0.1181818,
                "tempo": 120.0
            },
            {
                "start_time": 36.9340909,
                "end_time": 37.0477273,
                "pitch": 64,
                "velocity": 64,
                "duration": 0.1136364,
                "tempo": 120.0
            },
            {
                "start_time": 37.0636364,
                "end_time": 37.1795455,
                "pitch": 75,
                "velocity": 64,
                "duration": 0.1159091,
                "tempo": 120.0
            },
            {
                "start_time": 37.1954545,
                "end_time": 37.3090909,
                "pitch": 70,
                "velocity": 64,
                "duration": 0.1136364,
                "tempo": 120.0
            },
            {
                "start_time": 37.3272727,
                "end_time": 37.575,
                "pitch": 76,
                "velocity": 64,
                "duration": 0.2477273,
                "tempo": 120.0
            },
            {
                "start_time": 37.5909091,
                "end_time": 37.7090909,
                "pitch": 75,
                "velocity": 64,
                "duration": 0.1181818,
                "tempo": 120.0
            },
            {
                "start_time": 37.725,
                "end_time": 37.8409091,
                "pitch": 70,
                "velocity": 64,
                "duration": 0.1159091,
                "tempo": 120.0
            },
            {
                "start_time": 37.8590909,
                "end_time": 37.975,
                "pitch": 75,
                "velocity": 64,
                "duration": 0.1159091,
                "tempo": 120.0
            },
            {
                "start_time": 37.9931818,
                "end_time": 38.2477273,
                "pitch": 60,
                "velocity": 64,
                "duration": 0.2545455,
                "tempo": 120.0
            },
            {
                "start_time": 38.2659091,
                "end_time": 38.3840909,
                "pitch": 64,
                "velocity": 64,
                "duration": 0.1181818,
                "tempo": 120.0
            },
            {
                "start_time": 38.4,
                "end_time": 38.5181818,
                "pitch": 70,
                "velocity": 64,
                "duration": 0.1181818,
                "tempo": 120.0
            },
            {
                "start_time": 38.5363636,
                "end_time": 38.7863636,
                "pitch": 61,
                "velocity": 64,
                "duration": 0.25,
                "tempo": 120.0
            },
            {
                "start_time": 38.8045455,
                "end_time": 38.9204545,
                "pitch": 64,
                "velocity": 64,
                "duration": 0.1159091,
                "tempo": 120.0
            },
            {
                "start_time": 38.9363636,
                "end_time": 39.0545455,
                "pitch": 71,
                "velocity": 64,
                "duration": 0.1181818,
                "tempo": 120.0
            },
            {
                "start_time": 39.0704545,
                "end_time": 39.1863636,
                "pitch": 64,
                "velocity": 64,
                "duration": 0.1159091,
                "tempo": 120.0
            },
            {
                "start_time": 39.2045455,
                "end_time": 39.3204545,
                "pitch": 75,
                "velocity": 64,
                "duration": 0.1159091,
                "tempo": 120.0
            },
            {
                "start_time": 39.3386364,
                "end_time": 39.4545455,
                "pitch": 71,
                "velocity": 64,
                "duration": 0.1159091,
                "tempo": 120.0
            },
            {
                "start_time": 39.4704545,
                "end_time": 39.7227273,
                "pitch": 76,
                "velocity": 64,
                "duration": 0.2522727,
                "tempo": 120.0
            },
            {
                "start_time": 39.7409091,
                "end_time": 39.8590909,
                "pitch": 75,
                "velocity": 64,
                "duration": 0.1181818,
                "tempo": 120.0
            },
            {
                "start_time": 39.8772727,
                "end_time": 39.9954545,
                "pitch": 71,
                "velocity": 64,
                "duration": 0.1181818,
                "tempo": 120.0
            },
            {
                "start_time": 40.0136364,
                "end_time": 40.1318182,
                "pitch": 75,
                "velocity": 64,
                "duration": 0.1181818,
                "tempo": 120.0
            },
            {
                "start_time": 40.15,
                "end_time": 40.4,
                "pitch": 61,
                "velocity": 64,
                "duration": 0.25,
                "tempo": 120.0
            },
            {
                "start_time": 40.4159091,
                "end_time": 40.5318182,
                "pitch": 64,
                "velocity": 64,
                "duration": 0.1159091,
                "tempo": 120.0
            },
            {
                "start_time": 40.55,
                "end_time": 40.6659091,
                "pitch": 71,
                "velocity": 64,
                "duration": 0.1159091,
                "tempo": 120.0
            },
            {
                "start_time": 40.6840909,
                "end_time": 40.9340909,
                "pitch": 61,
                "velocity": 64,
                "duration": 0.25,
                "tempo": 120.0
            },
            {
                "start_time": 40.95,
                "end_time": 41.0681818,
                "pitch": 64,
                "velocity": 64,
                "duration": 0.1181818,
                "tempo": 120.0
            },
            {
                "start_time": 41.0840909,
                "end_time": 41.2,
                "pitch": 71,
                "velocity": 64,
                "duration": 0.1159091,
                "tempo": 120.0
            },
            {
                "start_time": 41.2181818,
                "end_time": 41.3363636,
                "pitch": 64,
                "velocity": 64,
                "duration": 0.1181818,
                "tempo": 120.0
            },
            {
                "start_time": 41.3545455,
                "end_time": 41.4727273,
                "pitch": 75,
                "velocity": 64,
                "duration": 0.1181818,
                "tempo": 120.0
            },
            {
                "start_time": 41.4909091,
                "end_time": 41.6090909,
                "pitch": 71,
                "velocity": 64,
                "duration": 0.1181818,
                "tempo": 120.0
            },
            {
                "start_time": 41.625,
                "end_time": 41.8795455,
                "pitch": 76,
                "velocity": 64,
                "duration": 0.2545455,
                "tempo": 120.0
            },
            {
                "start_time": 41.8977273,
                "end_time": 42.0159091,
                "pitch": 75,
                "velocity": 64,
                "duration": 0.1181818,
                "tempo": 120.0
            },
            {
                "start_time": 42.0340909,
                "end_time": 42.1522727,
                "pitch": 71,
                "velocity": 64,
                "duration": 0.1181818,
                "tempo": 120.0
            },
            {
                "start_time": 42.1704545,
                "end_time": 42.2886364,
                "pitch": 75,
                "velocity": 64,
                "duration": 0.1181818,
                "tempo": 120.0
            },
            {
                "start_time": 42.3068182,
                "end_time": 42.5568182,
                "pitch": 61,
                "velocity": 64,
                "duration": 0.25,
                "tempo": 120.0
            },
            {
                "start_time": 42.5727273,
                "end_time": 42.6886364,
                "pitch": 64,
                "velocity": 64,
                "duration": 0.1159091,
                "tempo": 120.0
            },
            {
                "start_time": 42.7068182,
                "end_time": 42.8227273,
                "pitch": 71,
                "velocity": 64,
                "duration": 0.1159091,
                "tempo": 120.0
            },
            {
                "start_time": 42.8409091,
                "end_time": 43.0909091,
                "pitch": 60,
                "velocity": 64,
                "duration": 0.25,
                "tempo": 120.0
            },
            {
                "start_time": 43.1068182,
                "end_time": 43.225,
                "pitch": 64,
                "velocity": 64,
                "duration": 0.1181818,
                "tempo": 120.0
            },
            {
                "start_time": 43.2409091,
                "end_time": 43.3568182,
                "pitch": 70,
                "velocity": 64,
                "duration": 0.1159091,
                "tempo": 120.0
            },
            {
                "start_time": 43.375,
                "end_time": 43.4909091,
                "pitch": 64,
                "velocity": 64,
                "duration": 0.1159091,
                "tempo": 120.0
            },
            {
                "start_time": 43.5090909,
                "end_time": 43.625,
                "pitch": 75,
                "velocity": 64,
                "duration": 0.1159091,
                "tempo": 120.0
            },
            {
                "start_time": 43.6409091,
                "end_time": 43.7590909,
                "pitch": 70,
                "velocity": 64,
                "duration": 0.1181818,
                "tempo": 120.0
            },
            {
                "start_time": 43.775,
                "end_time": 44.0272727,
                "pitch": 76,
                "velocity": 64,
                "duration": 0.2522727,
                "tempo": 120.0
            },
            {
                "start_time": 44.0454545,
                "end_time": 44.1636364,
                "pitch": 75,
                "velocity": 64,
                "duration": 0.1181818,
                "tempo": 120.0
            },
            {
                "start_time": 44.1818182,
                "end_time": 44.3,
                "pitch": 70,
                "velocity": 64,
                "duration": 0.1181818,
                "tempo": 120.0
            },
            {
                "start_time": 44.3159091,
                "end_time": 44.4363636,
                "pitch": 75,
                "velocity": 64,
                "duration": 0.1204545,
                "tempo": 120.0
            },
            {
                "start_time": 44.4522727,
                "end_time": 44.7022727,
                "pitch": 60,
                "velocity": 64,
                "duration": 0.25,
                "tempo": 120.0
            },
            {
                "start_time": 44.7204545,
                "end_time": 44.8363636,
                "pitch": 64,
                "velocity": 64,
                "duration": 0.1159091,
                "tempo": 120.0
            },
            {
                "start_time": 44.8545455,
                "end_time": 44.9704545,
                "pitch": 70,
                "velocity": 64,
                "duration": 0.1159091,
                "tempo": 120.0
            },
            {
                "start_time": 44.9886364,
                "end_time": 45.2386364,
                "pitch": 60,
                "velocity": 64,
                "duration": 0.25,
                "tempo": 120.0
            },
            {
                "start_time": 45.2545455,
                "end_time": 45.3704545,
                "pitch": 64,
                "velocity": 64,
                "duration": 0.1159091,
                "tempo": 120.0
            },
            {
                "start_time": 45.3886364,
                "end_time": 45.5045455,
                "pitch": 70,
                "velocity": 64,
                "duration": 0.1159091,
                "tempo": 120.0
            },
            {
                "start_time": 45.5227273,
                "end_time": 45.6386364,
                "pitch": 64,
                "velocity": 64,
                "duration": 0.1159091,
                "tempo": 120.0
            },
            {
                "start_time": 45.6545455,
                "end_time": 45.7727273,
                "pitch": 75,
                "velocity": 64,
                "duration": 0.1181818,
                "tempo": 120.0
            },
            {
                "start_time": 45.7886364,
                "end_time": 45.9045455,
                "pitch": 70,
                "velocity": 64,
                "duration": 0.1159091,
                "tempo": 120.0
            },
            {
                "start_time": 45.9227273,
                "end_time": 46.175,
                "pitch": 76,
                "velocity": 64,
                "duration": 0.2522727,
                "tempo": 120.0
            },
            {
                "start_time": 46.1931818,
                "end_time": 46.3113636,
                "pitch": 75,
                "velocity": 64,
                "duration": 0.1181818,
                "tempo": 120.0
            },
            {
                "start_time": 46.3272727,
                "end_time": 46.4477273,
                "pitch": 70,
                "velocity": 64,
                "duration": 0.1204545,
                "tempo": 120.0
            },
            {
                "start_time": 46.4636364,
                "end_time": 46.5818182,
                "pitch": 75,
                "velocity": 64,
                "duration": 0.1181818,
                "tempo": 120.0
            },
            {
                "start_time": 46.6,
                "end_time": 46.85,
                "pitch": 60,
                "velocity": 64,
                "duration": 0.25,
                "tempo": 120.0
            },
            {
                "start_time": 46.8681818,
                "end_time": 46.9840909,
                "pitch": 64,
                "velocity": 64,
                "duration": 0.1159091,
                "tempo": 120.0
            },
            {
                "start_time": 47.0,
                "end_time": 47.1181818,
                "pitch": 70,
                "velocity": 64,
                "duration": 0.1181818,
                "tempo": 120.0
            },
            {
                "start_time": 77.5090909,
                "end_time": 77.7590909,
                "pitch": 64,
                "velocity": 51,
                "duration": 0.25,
                "tempo": 120.0
            },
            {
                "start_time": 77.7772727,
                "end_time": 78.0272727,
                "pitch": 64,
                "velocity": 51,
                "duration": 0.25,
                "tempo": 120.0
            },
            {
                "start_time": 78.0431818,
                "end_time": 78.4295455,
                "pitch": 71,
                "velocity": 51,
                "duration": 0.3863636,
                "tempo": 120.0
            },
            {
                "start_time": 78.4477273,
                "end_time": 78.7022727,
                "pitch": 76,
                "velocity": 51,
                "duration": 0.2545455,
                "tempo": 120.0
            },
            {
                "start_time": 78.7181818,
                "end_time": 79.1,
                "pitch": 76,
                "velocity": 51,
                "duration": 0.3818182,
                "tempo": 120.0
            },
            {
                "start_time": 79.1159091,
                "end_time": 79.3636364,
                "pitch": 64,
                "velocity": 51,
                "duration": 0.2477273,
                "tempo": 120.0
            },
            {
                "start_time": 79.6568182,
                "end_time": 79.9159091,
                "pitch": 64,
                "velocity": 51,
                "duration": 0.2590909,
                "tempo": 120.0
            },
            {
                "start_time": 79.9340909,
                "end_time": 80.1840909,
                "pitch": 64,
                "velocity": 51,
                "duration": 0.25,
                "tempo": 120.0
            },
            {
                "start_time": 80.2,
                "end_time": 80.5840909,
                "pitch": 71,
                "velocity": 51,
                "duration": 0.3840909,
                "tempo": 120.0
            },
            {
                "start_time": 80.6022727,
                "end_time": 80.8522727,
                "pitch": 76,
                "velocity": 51,
                "duration": 0.25,
                "tempo": 120.0
            },
            {
                "start_time": 80.8681818,
                "end_time": 81.2568182,
                "pitch": 76,
                "velocity": 51,
                "duration": 0.3886364,
                "tempo": 120.0
            },
            {
                "start_time": 81.275,
                "end_time": 81.5295455,
                "pitch": 64,
                "velocity": 51,
                "duration": 0.2545455,
                "tempo": 120.0
            },
            {
                "start_time": 81.8136364,
                "end_time": 82.0636364,
                "pitch": 64,
                "velocity": 51,
                "duration": 0.25,
                "tempo": 120.0
            },
            {
                "start_time": 82.0795455,
                "end_time": 82.3295455,
                "pitch": 64,
                "velocity": 51,
                "duration": 0.25,
                "tempo": 120.0
            },
            {
                "start_time": 82.3477273,
                "end_time": 82.7318182,
                "pitch": 71,
                "velocity": 51,
                "duration": 0.3840909,
                "tempo": 120.0
            },
            {
                "start_time": 82.7477273,
                "end_time": 82.9977273,
                "pitch": 76,
                "velocity": 51,
                "duration": 0.25,
                "tempo": 120.0
            },
            {
                "start_time": 83.0159091,
                "end_time": 83.4,
                "pitch": 76,
                "velocity": 51,
                "duration": 0.3840909,
                "tempo": 120.0
            },
            {
                "start_time": 83.4159091,
                "end_time": 83.6659091,
                "pitch": 64,
                "velocity": 51,
                "duration": 0.25,
                "tempo": 120.0
            },
            {
                "start_time": 83.9545455,
                "end_time": 84.2090909,
                "pitch": 64,
                "velocity": 51,
                "duration": 0.2545455,
                "tempo": 120.0
            },
            {
                "start_time": 84.2272727,
                "end_time": 84.4818182,
                "pitch": 64,
                "velocity": 51,
                "duration": 0.2545455,
                "tempo": 120.0
            },
            {
                "start_time": 84.5,
                "end_time": 84.8886364,
                "pitch": 71,
                "velocity": 51,
                "duration": 0.3886364,
                "tempo": 120.0
            },
            {
                "start_time": 84.9045455,
                "end_time": 85.1545455,
                "pitch": 76,
                "velocity": 51,
                "duration": 0.25,
                "tempo": 120.0
            },
            {
                "start_time": 85.1727273,
                "end_time": 85.5568182,
                "pitch": 76,
                "velocity": 51,
                "duration": 0.3840909,
                "tempo": 120.0
            },
            {
                "start_time": 85.5727273,
                "end_time": 85.8227273,
                "pitch": 64,
                "velocity": 51,
                "duration": 0.25,
                "tempo": 120.0
            },
            {
                "start_time": 86.1068182,
                "end_time": 86.3568182,
                "pitch": 64,
                "velocity": 51,
                "duration": 0.25,
                "tempo": 120.0
            },
            {
                "start_time": 86.375,
                "end_time": 86.6295455,
                "pitch": 64,
                "velocity": 51,
                "duration": 0.2545455,
                "tempo": 120.0
            },
            {
                "start_time": 86.6477273,
                "end_time": 87.0340909,
                "pitch": 71,
                "velocity": 51,
                "duration": 0.3863636,
                "tempo": 120.0
            },
            {
                "start_time": 87.0522727,
                "end_time": 87.3022727,
                "pitch": 76,
                "velocity": 51,
                "duration": 0.25,
                "tempo": 120.0
            },
            {
                "start_time": 87.3204545,
                "end_time": 87.6977273,
                "pitch": 76,
                "velocity": 51,
                "duration": 0.3772727,
                "tempo": 120.0
            },
            {
                "start_time": 87.7159091,
                "end_time": 87.9613636,
                "pitch": 64,
                "velocity": 51,
                "duration": 0.2454545,
                "tempo": 120.0
            },
            {
                "start_time": 88.2545455,
                "end_time": 88.5136364,
                "pitch": 64,
                "velocity": 51,
                "duration": 0.2590909,
                "tempo": 120.0
            },
            {
                "start_time": 88.5318182,
                "end_time": 88.7863636,
                "pitch": 64,
                "velocity": 51,
                "duration": 0.2545455,
                "tempo": 120.0
            },
            {
                "start_time": 88.8045455,
                "end_time": 89.1909091,
                "pitch": 71,
                "velocity": 51,
                "duration": 0.3863636,
                "tempo": 120.0
            },
            {
                "start_time": 89.2068182,
                "end_time": 89.4522727,
                "pitch": 76,
                "velocity": 51,
                "duration": 0.2454545,
                "tempo": 120.0
            },
            {
                "start_time": 89.4704545,
                "end_time": 89.8545455,
                "pitch": 76,
                "velocity": 51,
                "duration": 0.3840909,
                "tempo": 120.0
            },
            {
                "start_time": 89.8727273,
                "end_time": 90.1272727,
                "pitch": 64,
                "velocity": 51,
                "duration": 0.2545455,
                "tempo": 120.0
            },
            {
                "start_time": 90.4113636,
                "end_time": 90.6613636,
                "pitch": 64,
                "velocity": 51,
                "duration": 0.25,
                "tempo": 120.0
            },
            {
                "start_time": 90.6795455,
                "end_time": 90.9295455,
                "pitch": 64,
                "velocity": 51,
                "duration": 0.25,
                "tempo": 120.0
            },
            {
                "start_time": 90.9454545,
                "end_time": 91.3318182,
                "pitch": 71,
                "velocity": 51,
                "duration": 0.3863636,
                "tempo": 120.0
            },
            {
                "start_time": 91.35,
                "end_time": 91.6045455,
                "pitch": 76,
                "velocity": 51,
                "duration": 0.2545455,
                "tempo": 120.0
            },
            {
                "start_time": 91.6204545,
                "end_time": 92.0022727,
                "pitch": 76,
                "velocity": 51,
                "duration": 0.3818182,
                "tempo": 120.0
            },
            {
                "start_time": 92.0204545,
                "end_time": 92.2659091,
                "pitch": 64,
                "velocity": 51,
                "duration": 0.2454545,
                "tempo": 120.0
            },
            {
                "start_time": 92.5590909,
                "end_time": 92.8181818,
                "pitch": 64,
                "velocity": 51,
                "duration": 0.2590909,
                "tempo": 120.0
            },
            {
                "start_time": 92.8363636,
                "end_time": 93.0863636,
                "pitch": 64,
                "velocity": 51,
                "duration": 0.25,
                "tempo": 120.0
            },
            {
                "start_time": 93.1045455,
                "end_time": 93.4863636,
                "pitch": 71,
                "velocity": 51,
                "duration": 0.3818182,
                "tempo": 120.0
            },
            {
                "start_time": 93.5045455,
                "end_time": 93.7545455,
                "pitch": 76,
                "velocity": 51,
                "duration": 0.25,
                "tempo": 120.0
            },
            {
                "start_time": 93.7704545,
                "end_time": 94.1545455,
                "pitch": 76,
                "velocity": 51,
                "duration": 0.3840909,
                "tempo": 120.0
            },
            {
                "start_time": 94.1727273,
                "end_time": 94.4227273,
                "pitch": 64,
                "velocity": 51,
                "duration": 0.25,
                "tempo": 120.0
            }
        ],
        "Flute": [
            {
                "start_time": 29.9386364,
                "end_time": 31.55,
                "pitch": 74,
                "velocity": 80,
                "duration": 1.6113636,
                "tempo": 120.0
            },
            {
                "start_time": 31.55,
                "end_time": 31.8,
                "pitch": 71,
                "velocity": 80,
                "duration": 0.25,
                "tempo": 120.0
            },
            {
                "start_time": 31.8181818,
                "end_time": 31.9340909,
                "pitch": 73,
                "velocity": 80,
                "duration": 0.1159091,
                "tempo": 120.0
            },
            {
                "start_time": 31.9522727,
                "end_time": 32.8704545,
                "pitch": 75,
                "velocity": 80,
                "duration": 0.9181818,
                "tempo": 120.0
            },
            {
                "start_time": 32.8863636,
                "end_time": 33.1363636,
                "pitch": 73,
                "velocity": 80,
                "duration": 0.25,
                "tempo": 120.0
            },
            {
                "start_time": 33.1545455,
                "end_time": 33.5454545,
                "pitch": 75,
                "velocity": 80,
                "duration": 0.3909091,
                "tempo": 120.0
            },
            {
                "start_time": 33.5613636,
                "end_time": 33.9477273,
                "pitch": 76,
                "velocity": 80,
                "duration": 0.3863636,
                "tempo": 120.0
            },
            {
                "start_time": 33.9659091,
                "end_time": 34.2159091,
                "pitch": 78,
                "velocity": 80,
                "duration": 0.25,
                "tempo": 120.0
            },
            {
                "start_time": 34.2318182,
                "end_time": 36.9159091,
                "pitch": 75,
                "velocity": 80,
                "duration": 2.6840909,
                "tempo": 120.0
            },
            {
                "start_time": 37.9931818,
                "end_time": 38.1113636,
                "pitch": 68,
                "velocity": 80,
                "duration": 0.1181818,
                "tempo": 120.0
            },
            {
                "start_time": 38.1272727,
                "end_time": 38.2477273,
                "pitch": 70,
                "velocity": 80,
                "duration": 0.1204545,
                "tempo": 120.0
            },
            {
                "start_time": 38.2636364,
                "end_time": 38.3818182,
                "pitch": 71,
                "velocity": 80,
                "duration": 0.1181818,
                "tempo": 120.0
            },
            {
                "start_time": 38.4,
                "end_time": 38.5181818,
                "pitch": 73,
                "velocity": 80,
                "duration": 0.1181818,
                "tempo": 120.0
            },
            {
                "start_time": 38.5363636,
                "end_time": 40.1318182,
                "pitch": 75,
                "velocity": 80,
                "duration": 1.5954545,
                "tempo": 120.0
            },
            {
                "start_time": 40.1477273,
                "end_time": 40.4,
                "pitch": 71,
                "velocity": 80,
                "duration": 0.2522727,
                "tempo": 120.0
            },
            {
                "start_time": 40.4159091,
                "end_time": 40.5318182,
                "pitch": 73,
                "velocity": 80,
                "duration": 0.1159091,
                "tempo": 120.0
            },
            {
                "start_time": 40.55,
                "end_time": 41.4727273,
                "pitch": 75,
                "velocity": 80,
                "duration": 0.9227273,
                "tempo": 120.0
            },
            {
                "start_time": 41.4886364,
                "end_time": 41.7431818,
                "pitch": 73,
                "velocity": 80,
                "duration": 0.2545455,
                "tempo": 120.0
            },
            {
                "start_time": 41.7613636,
                "end_time": 42.1522727,
                "pitch": 75,
                "velocity": 80,
                "duration": 0.3909091,
                "tempo": 120.0
            },
            {
                "start_time": 42.1704545,
                "end_time": 42.5568182,
                "pitch": 76,
                "velocity": 80,
                "duration": 0.3863636,
                "tempo": 120.0
            },
            {
                "start_time": 42.5727273,
                "end_time": 42.8227273,
                "pitch": 78,
                "velocity": 80,
                "duration": 0.25,
                "tempo": 120.0
            },
            {
                "start_time": 42.8409091,
                "end_time": 47.1181818,
                "pitch": 75,
                "velocity": 80,
                "duration": 4.2772727,
                "tempo": 120.0
            },
            {
                "start_time": 47.1340909,
                "end_time": 49.0022727,
                "pitch": 76,
                "velocity": 101,
                "duration": 1.8681818,
                "tempo": 120.0
            },
            {
                "start_time": 49.0181818,
                "end_time": 49.1386364,
                "pitch": 74,
                "velocity": 101,
                "duration": 0.1204545,
                "tempo": 120.0
            },
            {
                "start_time": 49.1545455,
                "end_time": 49.2727273,
                "pitch": 73,
                "velocity": 101,
                "duration": 0.1181818,
                "tempo": 120.0
            },
            {
                "start_time": 49.2909091,
                "end_time": 51.1477273,
                "pitch": 74,
                "velocity": 101,
                "duration": 1.8568182,
                "tempo": 120.0
            },
            {
                "start_time": 51.1659091,
                "end_time": 51.2840909,
                "pitch": 73,
                "velocity": 101,
                "duration": 0.1181818,
                "tempo": 120.0
            },
            {
                "start_time": 51.3022727,
                "end_time": 51.4204545,
                "pitch": 74,
                "velocity": 101,
                "duration": 0.1181818,
                "tempo": 120.0
            },
            {
                "start_time": 51.4386364,
                "end_time": 52.5,
                "pitch": 73,
                "velocity": 101,
                "duration": 1.0613636,
                "tempo": 120.0
            },
            {
                "start_time": 52.5159091,
                "end_time": 53.3,
                "pitch": 72,
                "velocity": 101,
                "duration": 0.7840909,
                "tempo": 120.0
            },
            {
                "start_time": 53.3181818,
                "end_time": 53.5681818,
                "pitch": 69,
                "velocity": 101,
                "duration": 0.25,
                "tempo": 120.0
            },
            {
                "start_time": 53.5840909,
                "end_time": 53.8363636,
                "pitch": 68,
                "velocity": 101,
                "duration": 0.2522727,
                "tempo": 120.0
            },
            {
                "start_time": 53.8522727,
                "end_time": 53.9681818,
                "pitch": 69,
                "velocity": 101,
                "duration": 0.1159091,
                "tempo": 120.0
            },
            {
                "start_time": 53.9863636,
                "end_time": 55.1818182,
                "pitch": 71,
                "velocity": 101,
                "duration": 1.1954545,
                "tempo": 120.0
            },
            {
                "start_time": 55.1977273,
                "end_time": 55.3136364,
                "pitch": 64,
                "velocity": 101,
                "duration": 0.1159091,
                "tempo": 120.0
            },
            {
                "start_time": 55.3318182,
                "end_time": 55.4477273,
                "pitch": 66,
                "velocity": 101,
                "duration": 0.1159091,
                "tempo": 120.0
            },
            {
                "start_time": 55.4659091,
                "end_time": 55.5818182,
                "pitch": 67,
                "velocity": 101,
                "duration": 0.1159091,
                "tempo": 120.0
            },
            {
                "start_time": 55.5977273,
                "end_time": 55.7159091,
                "pitch": 69,
                "velocity": 101,
                "duration": 0.1181818,
                "tempo": 120.0
            },
            {
                "start_time": 55.7318182,
                "end_time": 56.5272727,
                "pitch": 70,
                "velocity": 101,
                "duration": 0.7954545,
                "tempo": 120.0
            },
            {
                "start_time": 56.5431818,
                "end_time": 56.7931818,
                "pitch": 69,
                "velocity": 101,
                "duration": 0.25,
                "tempo": 120.0
            },
            {
                "start_time": 56.8113636,
                "end_time": 57.0613636,
                "pitch": 70,
                "velocity": 101,
                "duration": 0.25,
                "tempo": 120.0
            },
            {
                "start_time": 57.0772727,
                "end_time": 57.1954545,
                "pitch": 72,
                "velocity": 101,
                "duration": 0.1181818,
                "tempo": 120.0
            },
            {
                "start_time": 57.2113636,
                "end_time": 57.3272727,
                "pitch": 74,
                "velocity": 101,
                "duration": 0.1159091,
                "tempo": 120.0
            },
            {
                "start_time": 57.8886364,
                "end_time": 58.1386364,
                "pitch": 72,
                "velocity": 101,
                "duration": 0.25,
                "tempo": 120.0
            },
            {
                "start_time": 58.1568182,
                "end_time": 58.2727273,
                "pitch": 74,
                "velocity": 101,
                "duration": 0.1159091,
                "tempo": 120.0
            },
            {
                "start_time": 58.2886364,
                "end_time": 58.6772727,
                "pitch": 76,
                "velocity": 101,
                "duration": 0.3886364,
                "tempo": 120.0
            },
            {
                "start_time": 58.6954545,
                "end_time": 58.95,
                "pitch": 76,
                "velocity": 101,
                "duration": 0.2545455,
                "tempo": 120.0
            },
            {
                "start_time": 58.9681818,
                "end_time": 59.35,
                "pitch": 76,
                "velocity": 101,
                "duration": 0.3818182,
                "tempo": 120.0
            },
            {
                "start_time": 59.3681818,
                "end_time": 59.7522727,
                "pitch": 77,
                "velocity": 101,
                "duration": 0.3840909,
                "tempo": 120.0
            },
            {
                "start_time": 59.7681818,
                "end_time": 60.0181818,
                "pitch": 78,
                "velocity": 101,
                "duration": 0.25,
                "tempo": 120.0
            },
            {
                "start_time": 60.0363636,
                "end_time": 62.175,
                "pitch": 78,
                "velocity": 101,
                "duration": 2.1386364,
                "tempo": 120.0
            },
            {
                "start_time": 62.1931818,
                "end_time": 64.0681818,
                "pitch": 77,
                "velocity": 101,
                "duration": 1.875,
                "tempo": 120.0
            },
            {
                "start_time": 64.3409091,
                "end_time": 66.2022727,
                "pitch": 76,
                "velocity": 101,
                "duration": 1.8613636,
                "tempo": 120.0
            },
            {
                "start_time": 66.2204545,
                "end_time": 66.3363636,
                "pitch": 74,
                "velocity": 101,
                "duration": 0.1159091,
                "tempo": 120.0
            },
            {
                "start_time": 66.3522727,
                "end_time": 66.4704545,
                "pitch": 73,
                "velocity": 101,
                "duration": 0.1181818,
                "tempo": 120.0
            },
            {
                "start_time": 66.4863636,
                "end_time": 66.6045455,
                "pitch": 74,
                "velocity": 101,
                "duration": 0.1181818,
                "tempo": 120.0
            },
            {
                "start_time": 66.6227273,
                "end_time": 66.7409091,
                "pitch": 73,
                "velocity": 101,
                "duration": 0.1181818,
                "tempo": 120.0
            },
            {
                "start_time": 66.7590909,
                "end_time": 67.5477273,
                "pitch": 71,
                "velocity": 101,
                "duration": 0.7886364,
                "tempo": 120.0
            },
            {
                "start_time": 67.5659091,
                "end_time": 67.95,
                "pitch": 69,
                "velocity": 101,
                "duration": 0.3840909,
                "tempo": 120.0
            },
            {
                "start_time": 67.9659091,
                "end_time": 68.3545455,
                "pitch": 71,
                "velocity": 101,
                "duration": 0.3886364,
                "tempo": 120.0
            },
            {
                "start_time": 68.3704545,
                "end_time": 68.6272727,
                "pitch": 73,
                "velocity": 101,
                "duration": 0.2568182,
                "tempo": 120.0
            },
            {
                "start_time": 68.6431818,
                "end_time": 68.9113636,
                "pitch": 71,
                "velocity": 101,
                "duration": 0.2681818,
                "tempo": 120.0
            },
            {
                "start_time": 68.9113636,
                "end_time": 69.4454545,
                "pitch": 73,
                "velocity": 101,
                "duration": 0.5340909,
                "tempo": 120.0
            },
            {
                "start_time": 69.4454545,
                "end_time": 69.5613636,
                "pitch": 71,
                "velocity": 101,
                "duration": 0.1159091,
                "tempo": 120.0
            },
            {
                "start_time": 69.5795455,
                "end_time": 69.6954545,
                "pitch": 69,
                "velocity": 101,
                "duration": 0.1159091,
                "tempo": 120.0
            },
            {
                "start_time": 69.7113636,
                "end_time": 70.1022727,
                "pitch": 68,
                "velocity": 101,
                "duration": 0.3909091,
                "tempo": 120.0
            },
            {
                "start_time": 70.1204545,
                "end_time": 70.5068182,
                "pitch": 69,
                "velocity": 101,
                "duration": 0.3863636,
                "tempo": 120.0
            },
            {
                "start_time": 70.5227273,
                "end_time": 70.7727273,
                "pitch": 71,
                "velocity": 101,
                "duration": 0.25,
                "tempo": 120.0
            },
            {
                "start_time": 70.7909091,
                "end_time": 71.0409091,
                "pitch": 68,
                "velocity": 101,
                "duration": 0.25,
                "tempo": 120.0
            },
            {
                "start_time": 71.0568182,
                "end_time": 71.5795455,
                "pitch": 64,
                "velocity": 101,
                "duration": 0.5227273,
                "tempo": 120.0
            },
            {
                "start_time": 71.5977273,
                "end_time": 71.7159091,
                "pitch": 64,
                "velocity": 101,
                "duration": 0.1181818,
                "tempo": 120.0
            },
            {
                "start_time": 71.7340909,
                "end_time": 71.8522727,
                "pitch": 62,
                "velocity": 101,
                "duration": 0.1181818,
                "tempo": 120.0
            },
            {
                "start_time": 71.8681818,
                "end_time": 71.9863636,
                "pitch": 61,
                "velocity": 101,
                "duration": 0.1181818,
                "tempo": 120.0
            },
            {
                "start_time": 72.0022727,
                "end_time": 72.1204545,
                "pitch": 62,
                "velocity": 101,
                "duration": 0.1181818,
                "tempo": 120.0
            },
            {
                "start_time": 72.1363636,
                "end_time": 72.2522727,
                "pitch": 64,
                "velocity": 101,
                "duration": 0.1159091,
                "tempo": 120.0
            },
            {
                "start_time": 72.2704545,
                "end_time": 72.3863636,
                "pitch": 66,
                "velocity": 101,
                "duration": 0.1159091,
                "tempo": 120.0
            },
            {
                "start_time": 72.4045455,
                "end_time": 72.5227273,
                "pitch": 68,
                "velocity": 101,
                "duration": 0.1181818,
                "tempo": 120.0
            },
            {
                "start_time": 72.5386364,
                "end_time": 72.6590909,
                "pitch": 69,
                "velocity": 101,
                "duration": 0.1204545,
                "tempo": 120.0
            },
            {
                "start_time": 72.675,
                "end_time": 72.7931818,
                "pitch": 71,
                "velocity": 101,
                "duration": 0.1181818,
                "tempo": 120.0
            },
            {
                "start_time": 72.8113636,
                "end_time": 72.9295455,
                "pitch": 74,
                "velocity": 101,
                "duration": 0.1181818,
                "tempo": 120.0
            },
            {
                "start_time": 72.9477273,
                "end_time": 77.225,
                "pitch": 73,
                "velocity": 101,
                "duration": 4.2772727,
                "tempo": 120.0
            },
            {
                "start_time": 94.4386364,
                "end_time": 96.3113636,
                "pitch": 76,
                "velocity": 101,
                "duration": 1.8727273,
                "tempo": 120.0
            },
            {
                "start_time": 96.3295455,
                "end_time": 96.4454545,
                "pitch": 74,
                "velocity": 101,
                "duration": 0.1159091,
                "tempo": 120.0
            },
            {
                "start_time": 96.4613636,
                "end_time": 96.5795455,
                "pitch": 73,
                "velocity": 101,
                "duration": 0.1181818,
                "tempo": 120.0
            },
            {
                "start_time": 96.5954545,
                "end_time": 98.4590909,
                "pitch": 74,
                "velocity": 101,
                "duration": 1.8636364,
                "tempo": 120.0
            },
            {
                "start_time": 98.475,
                "end_time": 98.5931818,
                "pitch": 73,
                "velocity": 101,
                "duration": 0.1181818,
                "tempo": 120.0
            },
            {
                "start_time": 98.6090909,
                "end_time": 98.725,
                "pitch": 74,
                "velocity": 101,
                "duration": 0.1159091,
                "tempo": 120.0
            },
            {
                "start_time": 98.7431818,
                "end_time": 99.8045455,
                "pitch": 73,
                "velocity": 101,
                "duration": 1.0613636,
                "tempo": 120.0
            },
            {
                "start_time": 99.8204545,
                "end_time": 100.6068182,
                "pitch": 72,
                "velocity": 101,
                "duration": 0.7863636,
                "tempo": 120.0
            },
            {
                "start_time": 100.6227273,
                "end_time": 100.8727273,
                "pitch": 69,
                "velocity": 101,
                "duration": 0.25,
                "tempo": 120.0
            },
            {
                "start_time": 100.8909091,
                "end_time": 101.1454545,
                "pitch": 68,
                "velocity": 101,
                "duration": 0.2545455,
                "tempo": 120.0
            },
            {
                "start_time": 101.1613636,
                "end_time": 101.2818182,
                "pitch": 69,
                "velocity": 101,
                "duration": 0.1204545,
                "tempo": 120.0
            },
            {
                "start_time": 101.2977273,
                "end_time": 102.4954545,
                "pitch": 71,
                "velocity": 101,
                "duration": 1.1977273,
                "tempo": 120.0
            },
            {
                "start_time": 102.5113636,
                "end_time": 102.6295455,
                "pitch": 64,
                "velocity": 101,
                "duration": 0.1181818,
                "tempo": 120.0
            },
            {
                "start_time": 102.6454545,
                "end_time": 102.7636364,
                "pitch": 66,
                "velocity": 101,
                "duration": 0.1181818,
                "tempo": 120.0
            },
            {
                "start_time": 64.0681818,
                "end_time": 102.8954545,
                "pitch": 67,
                "velocity": 101,
                "duration": 38.8272727,
                "tempo": 120.0
            },
            {
                "start_time": 102.7795455,
                "end_time": 102.8954545,
                "pitch": 67,
                "velocity": 101,
                "duration": 0.1159091,
                "tempo": 120.0
            },
            {
                "start_time": 102.9136364,
                "end_time": 103.0295455,
                "pitch": 69,
                "velocity": 101,
                "duration": 0.1159091,
                "tempo": 120.0
            },
            {
                "start_time": 103.0477273,
                "end_time": 103.8363636,
                "pitch": 70,
                "velocity": 101,
                "duration": 0.7886364,
                "tempo": 120.0
            },
            {
                "start_time": 103.8522727,
                "end_time": 104.1068182,
                "pitch": 69,
                "velocity": 101,
                "duration": 0.2545455,
                "tempo": 120.0
            },
            {
                "start_time": 104.125,
                "end_time": 104.375,
                "pitch": 70,
                "velocity": 101,
                "duration": 0.25,
                "tempo": 120.0
            },
            {
                "start_time": 104.3931818,
                "end_time": 104.5090909,
                "pitch": 72,
                "velocity": 101,
                "duration": 0.1159091,
                "tempo": 120.0
            },
            {
                "start_time": 104.525,
                "end_time": 104.6431818,
                "pitch": 74,
                "velocity": 101,
                "duration": 0.1181818,
                "tempo": 120.0
            },
            {
                "start_time": 105.1931818,
                "end_time": 105.4431818,
                "pitch": 72,
                "velocity": 101,
                "duration": 0.25,
                "tempo": 120.0
            },
            {
                "start_time": 105.4613636,
                "end_time": 105.5772727,
                "pitch": 74,
                "velocity": 101,
                "duration": 0.1159091,
                "tempo": 120.0
            },
            {
                "start_time": 105.5954545,
                "end_time": 105.9840909,
                "pitch": 76,
                "velocity": 101,
                "duration": 0.3886364,
                "tempo": 120.0
            },
            {
                "start_time": 106.0,
                "end_time": 106.2545455,
                "pitch": 76,
                "velocity": 101,
                "duration": 0.2545455,
                "tempo": 120.0
            },
            {
                "start_time": 106.2727273,
                "end_time": 106.6568182,
                "pitch": 76,
                "velocity": 101,
                "duration": 0.3840909,
                "tempo": 120.0
            },
            {
                "start_time": 106.6727273,
                "end_time": 107.0613636,
                "pitch": 77,
                "velocity": 101,
                "duration": 0.3886364,
                "tempo": 120.0
            },
            {
                "start_time": 107.0795455,
                "end_time": 107.3340909,
                "pitch": 78,
                "velocity": 101,
                "duration": 0.2545455,
                "tempo": 120.0
            },
            {
                "start_time": 107.35,
                "end_time": 109.4818182,
                "pitch": 78,
                "velocity": 101,
                "duration": 2.1318182,
                "tempo": 120.0
            },
            {
                "start_time": 109.4977273,
                "end_time": 111.3772727,
                "pitch": 77,
                "velocity": 101,
                "duration": 1.8795455,
                "tempo": 120.0
            },
            {
                "start_time": 111.9159091,
                "end_time": 113.2409091,
                "pitch": 83,
                "velocity": 101,
                "duration": 1.325,
                "tempo": 120.0
            },
            {
                "start_time": 113.3931818,
                "end_time": 113.6477273,
                "pitch": 81,
                "velocity": 101,
                "duration": 0.2545455,
                "tempo": 120.0
            },
            {
                "start_time": 113.6659091,
                "end_time": 113.7840909,
                "pitch": 79,
                "velocity": 101,
                "duration": 0.1181818,
                "tempo": 120.0
            },
            {
                "start_time": 113.8022727,
                "end_time": 114.0522727,
                "pitch": 78,
                "velocity": 101,
                "duration": 0.25,
                "tempo": 120.0
            },
            {
                "start_time": 114.0681818,
                "end_time": 114.1863636,
                "pitch": 79,
                "velocity": 101,
                "duration": 0.1181818,
                "tempo": 120.0
            },
            {
                "start_time": 114.2022727,
                "end_time": 114.4545455,
                "pitch": 81,
                "velocity": 101,
                "duration": 0.2522727,
                "tempo": 120.0
            },
            {
                "start_time": 114.4727273,
                "end_time": 114.7272727,
                "pitch": 78,
                "velocity": 101,
                "duration": 0.2545455,
                "tempo": 120.0
            },
            {
                "start_time": 114.7431818,
                "end_time": 115.7954545,
                "pitch": 74,
                "velocity": 101,
                "duration": 1.0522727,
                "tempo": 120.0
            },
            {
                "start_time": 115.9477273,
                "end_time": 117.6772727,
                "pitch": 71,
                "velocity": 101,
                "duration": 1.7295455,
                "tempo": 120.0
            },
            {
                "start_time": 117.6954545,
                "end_time": 118.0795455,
                "pitch": 83,
                "velocity": 101,
                "duration": 0.3840909,
                "tempo": 120.0
            },
            {
                "start_time": 118.2318182,
                "end_time": 118.4863636,
                "pitch": 81,
                "velocity": 101,
                "duration": 0.2545455,
                "tempo": 120.0
            },
            {
                "start_time": 118.5045455,
                "end_time": 118.7568182,
                "pitch": 79,
                "velocity": 101,
                "duration": 0.2522727,
                "tempo": 120.0
            },
            {
                "start_time": 118.7727273,
                "end_time": 118.8909091,
                "pitch": 78,
                "velocity": 101,
                "duration": 0.1181818,
                "tempo": 120.0
            },
            {
                "start_time": 118.9068182,
                "end_time": 119.0227273,
                "pitch": 80,
                "velocity": 101,
                "duration": 0.1159091,
                "tempo": 120.0
            },
            {
                "start_time": 119.0409091,
                "end_time": 119.1568182,
                "pitch": 81,
                "velocity": 101,
                "duration": 0.1159091,
                "tempo": 120.0
            },
            {
                "start_time": 119.3068182,
                "end_time": 119.5590909,
                "pitch": 78,
                "velocity": 101,
                "duration": 0.2522727,
                "tempo": 120.0
            },
            {
                "start_time": 119.575,
                "end_time": 119.6909091,
                "pitch": 74,
                "velocity": 101,
                "duration": 0.1159091,
                "tempo": 120.0
            },
            {
                "start_time": 119.7090909,
                "end_time": 120.2340909,
                "pitch": 76,
                "velocity": 101,
                "duration": 0.525,
                "tempo": 120.0
            },
            {
                "start_time": 120.9204545,
                "end_time": 121.0363636,
                "pitch": 76,
                "velocity": 101,
                "duration": 0.1159091,
                "tempo": 120.0
            },
            {
                "start_time": 121.0545455,
                "end_time": 121.1704545,
                "pitch": 81,
                "velocity": 101,
                "duration": 0.1159091,
                "tempo": 120.0
            },
            {
                "start_time": 121.1886364,
                "end_time": 121.3045455,
                "pitch": 83,
                "velocity": 101,
                "duration": 0.1159091,
                "tempo": 120.0
            },
            {
                "start_time": 121.3204545,
                "end_time": 121.575,
                "pitch": 83,
                "velocity": 101,
                "duration": 0.2545455,
                "tempo": 120.0
            },
            {
                "start_time": 121.5931818,
                "end_time": 121.7113636,
                "pitch": 81,
                "velocity": 101,
                "duration": 0.1181818,
                "tempo": 120.0
            },
            {
                "start_time": 121.7295455,
                "end_time": 121.8477273,
                "pitch": 83,
                "velocity": 101,
                "duration": 0.1181818,
                "tempo": 120.0
            },
            {
                "start_time": 121.9977273,
                "end_time": 122.1159091,
                "pitch": 81,
                "velocity": 101,
                "duration": 0.1181818,
                "tempo": 120.0
            },
            {
                "start_time": 122.2659091,
                "end_time": 122.3818182,
                "pitch": 83,
                "velocity": 101,
                "duration": 0.1159091,
                "tempo": 120.0
            },
            {
                "start_time": 122.5340909,
                "end_time": 124.1295455,
                "pitch": 88,
                "velocity": 101,
                "duration": 1.5954545,
                "tempo": 120.0
            },
            {
                "start_time": 124.1454545,
                "end_time": 124.2636364,
                "pitch": 86,
                "velocity": 101,
                "duration": 0.1181818,
                "tempo": 120.0
            },
            {
                "start_time": 124.2795455,
                "end_time": 124.5295455,
                "pitch": 84,
                "velocity": 101,
                "duration": 0.25,
                "tempo": 120.0
            },
            {
                "start_time": 124.5477273,
                "end_time": 126.1431818,
                "pitch": 83,
                "velocity": 101,
                "duration": 1.5954545,
                "tempo": 120.0
            },
            {
                "start_time": 126.7022727,
                "end_time": 126.8204545,
                "pitch": 66,
                "velocity": 101,
                "duration": 0.1181818,
                "tempo": 120.0
            },
            {
                "start_time": 126.8363636,
                "end_time": 126.9545455,
                "pitch": 69,
                "velocity": 101,
                "duration": 0.1181818,
                "tempo": 120.0
            },
            {
                "start_time": 126.9704545,
                "end_time": 127.0863636,
                "pitch": 72,
                "velocity": 101,
                "duration": 0.1159091,
                "tempo": 120.0
            },
            {
                "start_time": 127.1045455,
                "end_time": 127.2204545,
                "pitch": 75,
                "velocity": 101,
                "duration": 0.1159091,
                "tempo": 120.0
            },
            {
                "start_time": 127.2386364,
                "end_time": 127.3545455,
                "pitch": 69,
                "velocity": 101,
                "duration": 0.1159091,
                "tempo": 120.0
            },
            {
                "start_time": 127.3704545,
                "end_time": 127.4886364,
                "pitch": 72,
                "velocity": 101,
                "duration": 0.1181818,
                "tempo": 120.0
            },
            {
                "start_time": 127.5045455,
                "end_time": 127.6227273,
                "pitch": 75,
                "velocity": 101,
                "duration": 0.1181818,
                "tempo": 120.0
            },
            {
                "start_time": 127.6386364,
                "end_time": 127.7545455,
                "pitch": 77,
                "velocity": 101,
                "duration": 0.1159091,
                "tempo": 120.0
            },
            {
                "start_time": 127.7727273,
                "end_time": 127.8909091,
                "pitch": 75,
                "velocity": 101,
                "duration": 0.1181818,
                "tempo": 120.0
            },
            {
                "start_time": 127.9090909,
                "end_time": 128.0272727,
                "pitch": 81,
                "velocity": 101,
                "duration": 0.1181818,
                "tempo": 120.0
            },
            {
                "start_time": 128.0431818,
                "end_time": 128.1636364,
                "pitch": 84,
                "velocity": 101,
                "duration": 0.1204545,
                "tempo": 120.0
            },
            {
                "start_time": 128.1795455,
                "end_time": 128.2977273,
                "pitch": 90,
                "velocity": 101,
                "duration": 0.1181818,
                "tempo": 120.0
            },
            {
                "start_time": 128.3159091,
                "end_time": 128.4318182,
                "pitch": 92,
                "velocity": 101,
                "duration": 0.1159091,
                "tempo": 120.0
            },
            {
                "start_time": 128.45,
                "end_time": 128.7,
                "pitch": 95,
                "velocity": 101,
                "duration": 0.25,
                "tempo": 120.0
            },
            {
                "start_time": 128.7159091,
                "end_time": 128.8340909,
                "pitch": 93,
                "velocity": 101,
                "duration": 0.1181818,
                "tempo": 120.0
            },
            {
                "start_time": 128.85,
                "end_time": 129.1,
                "pitch": 92,
                "velocity": 101,
                "duration": 0.25,
                "tempo": 120.0
            }
        ],
        "Trumpet": [
            {
                "start_time": 47.1363636,
                "end_time": 47.5181818,
                "pitch": 67,
                "velocity": 51,
                "duration": 0.3818182,
                "tempo": 120.0
            },
            {
                "start_time": 47.5363636,
                "end_time": 47.6522727,
                "pitch": 67,
                "velocity": 51,
                "duration": 0.1159091,
                "tempo": 120.0
            },
            {
                "start_time": 47.8045455,
                "end_time": 47.9227273,
                "pitch": 67,
                "velocity": 51,
                "duration": 0.1181818,
                "tempo": 120.0
            },
            {
                "start_time": 48.0772727,
                "end_time": 49.1386364,
                "pitch": 67,
                "velocity": 51,
                "duration": 1.0613636,
                "tempo": 120.0
            },
            {
                "start_time": 49.2931818,
                "end_time": 51.4204545,
                "pitch": 58,
                "velocity": 51,
                "duration": 2.1272727,
                "tempo": 120.0
            },
            {
                "start_time": 51.4386364,
                "end_time": 51.8227273,
                "pitch": 69,
                "velocity": 51,
                "duration": 0.3840909,
                "tempo": 120.0
            },
            {
                "start_time": 51.8386364,
                "end_time": 51.9568182,
                "pitch": 69,
                "velocity": 51,
                "duration": 0.1181818,
                "tempo": 120.0
            },
            {
                "start_time": 52.1090909,
                "end_time": 52.2272727,
                "pitch": 69,
                "velocity": 51,
                "duration": 0.1181818,
                "tempo": 120.0
            },
            {
                "start_time": 52.3818182,
                "end_time": 53.4340909,
                "pitch": 69,
                "velocity": 51,
                "duration": 1.0522727,
                "tempo": 120.0
            },
            {
                "start_time": 53.5863636,
                "end_time": 53.9704545,
                "pitch": 68,
                "velocity": 51,
                "duration": 0.3840909,
                "tempo": 120.0
            },
            {
                "start_time": 53.9863636,
                "end_time": 54.1022727,
                "pitch": 68,
                "velocity": 51,
                "duration": 0.1159091,
                "tempo": 120.0
            },
            {
                "start_time": 54.2568182,
                "end_time": 54.375,
                "pitch": 68,
                "velocity": 51,
                "duration": 0.1181818,
                "tempo": 120.0
            },
            {
                "start_time": 54.5295455,
                "end_time": 54.6454545,
                "pitch": 68,
                "velocity": 51,
                "duration": 0.1159091,
                "tempo": 120.0
            },
            {
                "start_time": 54.6636364,
                "end_time": 54.9136364,
                "pitch": 68,
                "velocity": 51,
                "duration": 0.25,
                "tempo": 120.0
            },
            {
                "start_time": 54.9318182,
                "end_time": 55.0477273,
                "pitch": 68,
                "velocity": 51,
                "duration": 0.1159091,
                "tempo": 120.0
            },
            {
                "start_time": 55.2,
                "end_time": 55.4477273,
                "pitch": 68,
                "velocity": 51,
                "duration": 0.2477273,
                "tempo": 120.0
            },
            {
                "start_time": 55.4659091,
                "end_time": 55.5818182,
                "pitch": 68,
                "velocity": 51,
                "duration": 0.1159091,
                "tempo": 120.0
            },
            {
                "start_time": 55.7340909,
                "end_time": 56.1227273,
                "pitch": 65,
                "velocity": 51,
                "duration": 0.3886364,
                "tempo": 120.0
            },
            {
                "start_time": 56.1409091,
                "end_time": 56.2590909,
                "pitch": 65,
                "velocity": 51,
                "duration": 0.1181818,
                "tempo": 120.0
            },
            {
                "start_time": 56.4113636,
                "end_time": 56.5272727,
                "pitch": 65,
                "velocity": 51,
                "duration": 0.1159091,
                "tempo": 120.0
            },
            {
                "start_time": 56.6772727,
                "end_time": 57.7363636,
                "pitch": 65,
                "velocity": 51,
                "duration": 1.0590909,
                "tempo": 120.0
            },
            {
                "start_time": 57.8909091,
                "end_time": 58.2727273,
                "pitch": 67,
                "velocity": 51,
                "duration": 0.3818182,
                "tempo": 120.0
            },
            {
                "start_time": 58.2909091,
                "end_time": 58.4068182,
                "pitch": 67,
                "velocity": 51,
                "duration": 0.1159091,
                "tempo": 120.0
            },
            {
                "start_time": 58.5590909,
                "end_time": 58.6772727,
                "pitch": 67,
                "velocity": 51,
                "duration": 0.1181818,
                "tempo": 120.0
            },
            {
                "start_time": 58.8318182,
                "end_time": 59.8863636,
                "pitch": 67,
                "velocity": 51,
                "duration": 1.0545455,
                "tempo": 120.0
            },
            {
                "start_time": 60.0363636,
                "end_time": 60.4204545,
                "pitch": 69,
                "velocity": 51,
                "duration": 0.3840909,
                "tempo": 120.0
            },
            {
                "start_time": 60.4386364,
                "end_time": 60.5545455,
                "pitch": 69,
                "velocity": 51,
                "duration": 0.1159091,
                "tempo": 120.0
            },
            {
                "start_time": 60.7068182,
                "end_time": 60.825,
                "pitch": 69,
                "velocity": 51,
                "duration": 0.1181818,
                "tempo": 120.0
            },
            {
                "start_time": 60.9795455,
                "end_time": 61.0977273,
                "pitch": 69,
                "velocity": 51,
                "duration": 0.1181818,
                "tempo": 120.0
            },
            {
                "start_time": 61.1159091,
                "end_time": 62.175,
                "pitch": 69,
                "velocity": 51,
                "duration": 1.0590909,
                "tempo": 120.0
            },
            {
                "start_time": 62.1931818,
                "end_time": 62.8454545,
                "pitch": 69,
                "velocity": 51,
                "duration": 0.6522727,
                "tempo": 120.0
            },
            {
                "start_time": 64.3409091,
                "end_time": 66.4704545,
                "pitch": 71,
                "velocity": 51,
                "duration": 2.1295455,
                "tempo": 120.0
            },
            {
                "start_time": 66.4886364,
                "end_time": 68.6272727,
                "pitch": 74,
                "velocity": 51,
                "duration": 2.1386364,
                "tempo": 120.0
            },
            {
                "start_time": 68.6454545,
                "end_time": 70.775,
                "pitch": 71,
                "velocity": 51,
                "duration": 2.1295455,
                "tempo": 120.0
            },
            {
                "start_time": 70.7909091,
                "end_time": 72.9295455,
                "pitch": 74,
                "velocity": 51,
                "duration": 2.1386364,
                "tempo": 120.0
            },
            {
                "start_time": 72.95,
                "end_time": 77.225,
                "pitch": 65,
                "velocity": 51,
                "duration": 4.275,
                "tempo": 120.0
            },
            {
                "start_time": 94.4431818,
                "end_time": 94.8295455,
                "pitch": 67,
                "velocity": 51,
                "duration": 0.3863636,
                "tempo": 120.0
            },
            {
                "start_time": 94.8477273,
                "end_time": 94.9659091,
                "pitch": 67,
                "velocity": 51,
                "duration": 0.1181818,
                "tempo": 120.0
            },
            {
                "start_time": 95.1204545,
                "end_time": 95.2386364,
                "pitch": 67,
                "velocity": 51,
                "duration": 0.1181818,
                "tempo": 120.0
            },
            {
                "start_time": 95.3909091,
                "end_time": 96.4454545,
                "pitch": 67,
                "velocity": 51,
                "duration": 1.0545455,
                "tempo": 120.0
            },
            {
                "start_time": 96.5977273,
                "end_time": 98.7272727,
                "pitch": 58,
                "velocity": 51,
                "duration": 2.1295455,
                "tempo": 120.0
            },
            {
                "start_time": 98.7454545,
                "end_time": 99.1340909,
                "pitch": 69,
                "velocity": 51,
                "duration": 0.3886364,
                "tempo": 120.0
            },
            {
                "start_time": 99.1522727,
                "end_time": 99.2704545,
                "pitch": 69,
                "velocity": 51,
                "duration": 0.1181818,
                "tempo": 120.0
            },
            {
                "start_time": 99.4204545,
                "end_time": 99.5363636,
                "pitch": 69,
                "velocity": 51,
                "duration": 0.1159091,
                "tempo": 120.0
            },
            {
                "start_time": 99.6886364,
                "end_time": 100.7409091,
                "pitch": 69,
                "velocity": 51,
                "duration": 1.0522727,
                "tempo": 120.0
            },
            {
                "start_time": 100.8909091,
                "end_time": 101.2818182,
                "pitch": 68,
                "velocity": 51,
                "duration": 0.3909091,
                "tempo": 120.0
            },
            {
                "start_time": 101.3,
                "end_time": 101.4181818,
                "pitch": 68,
                "velocity": 51,
                "duration": 0.1181818,
                "tempo": 120.0
            },
            {
                "start_time": 101.5704545,
                "end_time": 101.6886364,
                "pitch": 68,
                "velocity": 51,
                "duration": 0.1181818,
                "tempo": 120.0
            },
            {
                "start_time": 101.8431818,
                "end_time": 101.9613636,
                "pitch": 68,
                "velocity": 51,
                "duration": 0.1181818,
                "tempo": 120.0
            },
            {
                "start_time": 101.9795455,
                "end_time": 102.2295455,
                "pitch": 68,
                "velocity": 51,
                "duration": 0.25,
                "tempo": 120.0
            },
            {
                "start_time": 102.2454545,
                "end_time": 102.3613636,
                "pitch": 68,
                "velocity": 51,
                "duration": 0.1159091,
                "tempo": 120.0
            },
            {
                "start_time": 102.5136364,
                "end_time": 102.7636364,
                "pitch": 68,
                "velocity": 51,
                "duration": 0.25,
                "tempo": 120.0
            },
            {
                "start_time": 102.7818182,
                "end_time": 102.8977273,
                "pitch": 68,
                "velocity": 51,
                "duration": 0.1159091,
                "tempo": 120.0
            },
            {
                "start_time": 103.0477273,
                "end_time": 103.4318182,
                "pitch": 65,
                "velocity": 51,
                "duration": 0.3840909,
                "tempo": 120.0
            },
            {
                "start_time": 103.4477273,
                "end_time": 103.5636364,
                "pitch": 65,
                "velocity": 51,
                "duration": 0.1159091,
                "tempo": 120.0
            },
            {
                "start_time": 103.7181818,
                "end_time": 103.8363636,
                "pitch": 65,
                "velocity": 51,
                "duration": 0.1181818,
                "tempo": 120.0
            },
            {
                "start_time": 103.9909091,
                "end_time": 105.0431818,
                "pitch": 65,
                "velocity": 51,
                "duration": 1.0522727,
                "tempo": 120.0
            },
            {
                "start_time": 105.1954545,
                "end_time": 105.5772727,
                "pitch": 67,
                "velocity": 51,
                "duration": 0.3818182,
                "tempo": 120.0
            },
            {
                "start_time": 105.5954545,
                "end_time": 105.7113636,
                "pitch": 67,
                "velocity": 51,
                "duration": 0.1159091,
                "tempo": 120.0
            },
            {
                "start_time": 105.8659091,
                "end_time": 105.9840909,
                "pitch": 67,
                "velocity": 51,
                "duration": 0.1181818,
                "tempo": 120.0
            },
            {
                "start_time": 106.1386364,
                "end_time": 107.1977273,
                "pitch": 67,
                "velocity": 51,
                "duration": 1.0590909,
                "tempo": 120.0
            },
            {
                "start_time": 107.3522727,
                "end_time": 107.7340909,
                "pitch": 69,
                "velocity": 51,
                "duration": 0.3818182,
                "tempo": 120.0
            },
            {
                "start_time": 107.7522727,
                "end_time": 107.8681818,
                "pitch": 69,
                "velocity": 51,
                "duration": 0.1159091,
                "tempo": 120.0
            },
            {
                "start_time": 108.0227273,
                "end_time": 108.1409091,
                "pitch": 69,
                "velocity": 51,
                "duration": 0.1181818,
                "tempo": 120.0
            },
            {
                "start_time": 108.2931818,
                "end_time": 108.4113636,
                "pitch": 69,
                "velocity": 51,
                "duration": 0.1181818,
                "tempo": 120.0
            },
            {
                "start_time": 108.4295455,
                "end_time": 109.4818182,
                "pitch": 69,
                "velocity": 51,
                "duration": 1.0522727,
                "tempo": 120.0
            },
            {
                "start_time": 109.5,
                "end_time": 110.15,
                "pitch": 69,
                "velocity": 51,
                "duration": 0.65,
                "tempo": 120.0
            },
            {
                "start_time": 111.6477273,
                "end_time": 113.7840909,
                "pitch": 71,
                "velocity": 51,
                "duration": 2.1363636,
                "tempo": 120.0
            },
            {
                "start_time": 113.8045455,
                "end_time": 115.9318182,
                "pitch": 74,
                "velocity": 51,
                "duration": 2.1272727,
                "tempo": 120.0
            },
            {
                "start_time": 115.95,
                "end_time": 118.0795455,
                "pitch": 71,
                "velocity": 51,
                "duration": 2.1295455,
                "tempo": 120.0
            },
            {
                "start_time": 118.0977273,
                "end_time": 120.2363636,
                "pitch": 74,
                "velocity": 51,
                "duration": 2.1386364,
                "tempo": 120.0
            },
            {
                "start_time": 120.2545455,
                "end_time": 122.3840909,
                "pitch": 71,
                "velocity": 51,
                "duration": 2.1295455,
                "tempo": 120.0
            },
            {
                "start_time": 122.4022727,
                "end_time": 124.5295455,
                "pitch": 74,
                "velocity": 51,
                "duration": 2.1272727,
                "tempo": 120.0
            },
            {
                "start_time": 124.5477273,
                "end_time": 126.6863636,
                "pitch": 71,
                "velocity": 51,
                "duration": 2.1386364,
                "tempo": 120.0
            },
            {
                "start_time": 126.7045455,
                "end_time": 128.8340909,
                "pitch": 74,
                "velocity": 51,
                "duration": 2.1295455,
                "tempo": 120.0
            },
            {
                "start_time": 128.8522727,
                "end_time": 129.2340909,
                "pitch": 62,
                "velocity": 51,
                "duration": 0.3818182,
                "tempo": 120.0
            },
            {
                "start_time": 129.2522727,
                "end_time": 129.3681818,
                "pitch": 62,
                "velocity": 51,
                "duration": 0.1159091,
                "tempo": 120.0
            },
            {
                "start_time": 133.1454545,
                "end_time": 133.5295455,
                "pitch": 62,
                "velocity": 51,
                "duration": 0.3840909,
                "tempo": 120.0
            },
            {
                "start_time": 133.5477273,
                "end_time": 133.6636364,
                "pitch": 62,
                "velocity": 51,
                "duration": 0.1159091,
                "tempo": 120.0
            },
            {
                "start_time": 133.8159091,
                "end_time": 133.9340909,
                "pitch": 62,
                "velocity": 51,
                "duration": 0.1181818,
                "tempo": 120.0
            },
            {
                "start_time": 137.45,
                "end_time": 137.8318182,
                "pitch": 62,
                "velocity": 51,
                "duration": 0.3818182,
                "tempo": 120.0
            },
            {
                "start_time": 137.85,
                "end_time": 137.9659091,
                "pitch": 62,
                "velocity": 51,
                "duration": 0.1159091,
                "tempo": 120.0
            },
            {
                "start_time": 138.1227273,
                "end_time": 138.2431818,
                "pitch": 62,
                "velocity": 51,
                "duration": 0.1204545,
                "tempo": 120.0
            },
            {
                "start_time": 138.4,
                "end_time": 138.5181818,
                "pitch": 62,
                "velocity": 51,
                "duration": 0.1181818,
                "tempo": 120.0
            },
            {
                "start_time": 141.7545455,
                "end_time": 142.1363636,
                "pitch": 86,
                "velocity": 51,
                "duration": 0.3818182,
                "tempo": 120.0
            },
            {
                "start_time": 142.1545455,
                "end_time": 142.2704545,
                "pitch": 86,
                "velocity": 51,
                "duration": 0.1159091,
                "tempo": 120.0
            },
            {
                "start_time": 142.4204545,
                "end_time": 142.5340909,
                "pitch": 86,
                "velocity": 51,
                "duration": 0.1136364,
                "tempo": 120.0
            },
            {
                "start_time": 142.6818182,
                "end_time": 142.7954545,
                "pitch": 86,
                "velocity": 51,
                "duration": 0.1136364,
                "tempo": 120.0
            },
            {
                "start_time": 143.8931818,
                "end_time": 146.0409091,
                "pitch": 71,
                "velocity": 64,
                "duration": 2.1477273,
                "tempo": 120.0
            },
            {
                "start_time": 146.0590909,
                "end_time": 148.1886364,
                "pitch": 70,
                "velocity": 64,
                "duration": 2.1295455,
                "tempo": 120.0
            },
            {
                "start_time": 148.2068182,
                "end_time": 150.3431818,
                "pitch": 69,
                "velocity": 64,
                "duration": 2.1363636,
                "tempo": 120.0
            },
            {
                "start_time": 150.3613636,
                "end_time": 152.4909091,
                "pitch": 68,
                "velocity": 64,
                "duration": 2.1295455,
                "tempo": 120.0
            },
            {
                "start_time": 152.6431818,
                "end_time": 153.025,
                "pitch": 62,
                "velocity": 64,
                "duration": 0.3818182,
                "tempo": 120.0
            },
            {
                "start_time": 153.0431818,
                "end_time": 153.5613636,
                "pitch": 64,
                "velocity": 64,
                "duration": 0.5181818,
                "tempo": 120.0
            },
            {
                "start_time": 153.7136364,
                "end_time": 154.1045455,
                "pitch": 64,
                "velocity": 64,
                "duration": 0.3909091,
                "tempo": 120.0
            },
            {
                "start_time": 154.1227273,
                "end_time": 154.6386364,
                "pitch": 66,
                "velocity": 64,
                "duration": 0.5159091,
                "tempo": 120.0
            },
            {
                "start_time": 154.7909091,
                "end_time": 155.1727273,
                "pitch": 66,
                "velocity": 64,
                "duration": 0.3818182,
                "tempo": 120.0
            },
            {
                "start_time": 155.1909091,
                "end_time": 155.7159091,
                "pitch": 68,
                "velocity": 64,
                "duration": 0.525,
                "tempo": 120.0
            },
            {
                "start_time": 156.8045455,
                "end_time": 158.9409091,
                "pitch": 71,
                "velocity": 64,
                "duration": 2.1363636,
                "tempo": 120.0
            },
            {
                "start_time": 158.9613636,
                "end_time": 161.0886364,
                "pitch": 70,
                "velocity": 64,
                "duration": 2.1272727,
                "tempo": 120.0
            },
            {
                "start_time": 161.1068182,
                "end_time": 163.2454545,
                "pitch": 69,
                "velocity": 64,
                "duration": 2.1386364,
                "tempo": 120.0
            },
            {
                "start_time": 163.2636364,
                "end_time": 165.3931818,
                "pitch": 68,
                "velocity": 64,
                "duration": 2.1295455,
                "tempo": 120.0
            },
            {
                "start_time": 165.5454545,
                "end_time": 165.9272727,
                "pitch": 62,
                "velocity": 64,
                "duration": 0.3818182,
                "tempo": 120.0
            },
            {
                "start_time": 165.9454545,
                "end_time": 166.4613636,
                "pitch": 64,
                "velocity": 64,
                "duration": 0.5159091,
                "tempo": 120.0
            },
            {
                "start_time": 166.6159091,
                "end_time": 167.0068182,
                "pitch": 64,
                "velocity": 64,
                "duration": 0.3909091,
                "tempo": 120.0
            },
            {
                "start_time": 167.025,
                "end_time": 167.5409091,
                "pitch": 66,
                "velocity": 64,
                "duration": 0.5159091,
                "tempo": 120.0
            },
            {
                "start_time": 167.6931818,
                "end_time": 168.0840909,
                "pitch": 66,
                "velocity": 64,
                "duration": 0.3909091,
                "tempo": 120.0
            },
            {
                "start_time": 168.1022727,
                "end_time": 168.6181818,
                "pitch": 68,
                "velocity": 64,
                "duration": 0.5159091,
                "tempo": 120.0
            }
        ],
        "Acoustic Bass": [
            {
                "start_time": 0.0,
                "end_time": 0.6340909,
                "pitch": 37,
                "velocity": 80,
                "duration": 0.6340909,
                "tempo": 120.0
            },
            {
                "start_time": 0.7840909,
                "end_time": 0.9,
                "pitch": 44,
                "velocity": 80,
                "duration": 0.1159091,
                "tempo": 120.0
            },
            {
                "start_time": 0.9181818,
                "end_time": 1.0318182,
                "pitch": 49,
                "velocity": 80,
                "duration": 0.1136364,
                "tempo": 120.0
            },
            {
                "start_time": 1.0477273,
                "end_time": 1.1636364,
                "pitch": 47,
                "velocity": 80,
                "duration": 0.1159091,
                "tempo": 120.0
            },
            {
                "start_time": 1.1795455,
                "end_time": 1.2954545,
                "pitch": 44,
                "velocity": 80,
                "duration": 0.1159091,
                "tempo": 120.0
            },
            {
                "start_time": 1.3113636,
                "end_time": 1.425,
                "pitch": 43,
                "velocity": 80,
                "duration": 0.1136364,
                "tempo": 120.0
            },
            {
                "start_time": 1.4431818,
                "end_time": 1.5590909,
                "pitch": 42,
                "velocity": 80,
                "duration": 0.1159091,
                "tempo": 120.0
            },
            {
                "start_time": 1.5772727,
                "end_time": 1.6931818,
                "pitch": 40,
                "velocity": 80,
                "duration": 0.1159091,
                "tempo": 120.0
            },
            {
                "start_time": 1.7090909,
                "end_time": 2.4954545,
                "pitch": 36,
                "velocity": 80,
                "duration": 0.7863636,
                "tempo": 120.0
            },
            {
                "start_time": 2.6477273,
                "end_time": 2.7659091,
                "pitch": 43,
                "velocity": 80,
                "duration": 0.1181818,
                "tempo": 120.0
            },
            {
                "start_time": 2.9204545,
                "end_time": 3.0386364,
                "pitch": 43,
                "velocity": 80,
                "duration": 0.1181818,
                "tempo": 120.0
            },
            {
                "start_time": 3.1886364,
                "end_time": 3.3045455,
                "pitch": 37,
                "velocity": 80,
                "duration": 0.1159091,
                "tempo": 120.0
            },
            {
                "start_time": 3.3227273,
                "end_time": 3.4386364,
                "pitch": 43,
                "velocity": 80,
                "duration": 0.1159091,
                "tempo": 120.0
            },
            {
                "start_time": 3.5909091,
                "end_time": 4.3795455,
                "pitch": 37,
                "velocity": 80,
                "duration": 0.7886364,
                "tempo": 120.0
            },
            {
                "start_time": 4.5318182,
                "end_time": 4.65,
                "pitch": 44,
                "velocity": 80,
                "duration": 0.1181818,
                "tempo": 120.0
            },
            {
                "start_time": 4.6681818,
                "end_time": 4.7840909,
                "pitch": 49,
                "velocity": 80,
                "duration": 0.1159091,
                "tempo": 120.0
            },
            {
                "start_time": 4.8022727,
                "end_time": 4.9181818,
                "pitch": 47,
                "velocity": 80,
                "duration": 0.1159091,
                "tempo": 120.0
            },
            {
                "start_time": 4.9363636,
                "end_time": 5.0522727,
                "pitch": 44,
                "velocity": 80,
                "duration": 0.1159091,
                "tempo": 120.0
            },
            {
                "start_time": 5.0681818,
                "end_time": 5.1863636,
                "pitch": 43,
                "velocity": 80,
                "duration": 0.1181818,
                "tempo": 120.0
            },
            {
                "start_time": 5.2022727,
                "end_time": 5.3181818,
                "pitch": 42,
                "velocity": 80,
                "duration": 0.1159091,
                "tempo": 120.0
            },
            {
                "start_time": 5.3363636,
                "end_time": 5.4522727,
                "pitch": 40,
                "velocity": 80,
                "duration": 0.1159091,
                "tempo": 120.0
            },
            {
                "start_time": 5.4704545,
                "end_time": 6.2636364,
                "pitch": 36,
                "velocity": 80,
                "duration": 0.7931818,
                "tempo": 120.0
            },
            {
                "start_time": 6.4113636,
                "end_time": 6.5272727,
                "pitch": 43,
                "velocity": 80,
                "duration": 0.1159091,
                "tempo": 120.0
            },
            {
                "start_time": 6.675,
                "end_time": 6.7886364,
                "pitch": 43,
                "velocity": 80,
                "duration": 0.1136364,
                "tempo": 120.0
            },
            {
                "start_time": 6.9409091,
                "end_time": 7.0613636,
                "pitch": 37,
                "velocity": 80,
                "duration": 0.1204545,
                "tempo": 120.0
            },
            {
                "start_time": 7.0772727,
                "end_time": 7.1954545,
                "pitch": 43,
                "velocity": 80,
                "duration": 0.1181818,
                "tempo": 120.0
            },
            {
                "start_time": 7.35,
                "end_time": 8.1431818,
                "pitch": 34,
                "velocity": 80,
                "duration": 0.7931818,
                "tempo": 120.0
            },
            {
                "start_time": 8.2954545,
                "end_time": 8.4113636,
                "pitch": 41,
                "velocity": 80,
                "duration": 0.1159091,
                "tempo": 120.0
            },
            {
                "start_time": 8.4272727,
                "end_time": 8.5454545,
                "pitch": 46,
                "velocity": 80,
                "duration": 0.1181818,
                "tempo": 120.0
            },
            {
                "start_time": 8.5613636,
                "end_time": 8.6772727,
                "pitch": 44,
                "velocity": 80,
                "duration": 0.1159091,
                "tempo": 120.0
            },
            {
                "start_time": 8.6954545,
                "end_time": 8.8113636,
                "pitch": 41,
                "velocity": 80,
                "duration": 0.1159091,
                "tempo": 120.0
            },
            {
                "start_time": 8.8295455,
                "end_time": 8.9454545,
                "pitch": 40,
                "velocity": 80,
                "duration": 0.1159091,
                "tempo": 120.0
            },
            {
                "start_time": 8.9636364,
                "end_time": 9.0818182,
                "pitch": 39,
                "velocity": 80,
                "duration": 0.1181818,
                "tempo": 120.0
            },
            {
                "start_time": 9.0977273,
                "end_time": 9.2181818,
                "pitch": 37,
                "velocity": 80,
                "duration": 0.1204545,
                "tempo": 120.0
            },
            {
                "start_time": 9.2340909,
                "end_time": 10.0227273,
                "pitch": 35,
                "velocity": 80,
                "duration": 0.7886364,
                "tempo": 120.0
            },
            {
                "start_time": 10.1772727,
                "end_time": 10.2954545,
                "pitch": 42,
                "velocity": 80,
                "duration": 0.1181818,
                "tempo": 120.0
            },
            {
                "start_time": 10.3136364,
                "end_time": 10.4318182,
                "pitch": 47,
                "velocity": 80,
                "duration": 0.1181818,
                "tempo": 120.0
            },
            {
                "start_time": 10.4477273,
                "end_time": 10.5681818,
                "pitch": 45,
                "velocity": 80,
                "duration": 0.1204545,
                "tempo": 120.0
            },
            {
                "start_time": 10.5840909,
                "end_time": 10.7022727,
                "pitch": 42,
                "velocity": 80,
                "duration": 0.1181818,
                "tempo": 120.0
            },
            {
                "start_time": 10.7181818,
                "end_time": 10.8340909,
                "pitch": 41,
                "velocity": 80,
                "duration": 0.1159091,
                "tempo": 120.0
            },
            {
                "start_time": 10.8522727,
                "end_time": 10.9681818,
                "pitch": 40,
                "velocity": 80,
                "duration": 0.1159091,
                "tempo": 120.0
            },
            {
                "start_time": 10.9863636,
                "end_time": 11.1022727,
                "pitch": 38,
                "velocity": 80,
                "duration": 0.1159091,
                "tempo": 120.0
            },
            {
                "start_time": 11.1204545,
                "end_time": 11.9045455,
                "pitch": 32,
                "velocity": 80,
                "duration": 0.7840909,
                "tempo": 120.0
            },
            {
                "start_time": 12.0545455,
                "end_time": 12.1704545,
                "pitch": 39,
                "velocity": 80,
                "duration": 0.1159091,
                "tempo": 120.0
            },
            {
                "start_time": 12.1886364,
                "end_time": 12.3068182,
                "pitch": 44,
                "velocity": 80,
                "duration": 0.1181818,
                "tempo": 120.0
            },
            {
                "start_time": 12.325,
                "end_time": 12.4431818,
                "pitch": 42,
                "velocity": 80,
                "duration": 0.1181818,
                "tempo": 120.0
            },
            {
                "start_time": 12.4590909,
                "end_time": 12.5795455,
                "pitch": 39,
                "velocity": 80,
                "duration": 0.1204545,
                "tempo": 120.0
            },
            {
                "start_time": 12.5954545,
                "end_time": 12.7136364,
                "pitch": 38,
                "velocity": 80,
                "duration": 0.1181818,
                "tempo": 120.0
            },
            {
                "start_time": 12.7318182,
                "end_time": 12.8477273,
                "pitch": 37,
                "velocity": 80,
                "duration": 0.1159091,
                "tempo": 120.0
            },
            {
                "start_time": 12.8659091,
                "end_time": 12.9818182,
                "pitch": 35,
                "velocity": 80,
                "duration": 0.1159091,
                "tempo": 120.0
            },
            {
                "start_time": 13.0,
                "end_time": 13.7931818,
                "pitch": 33,
                "velocity": 80,
                "duration": 0.7931818,
                "tempo": 120.0
            },
            {
                "start_time": 13.9431818,
                "end_time": 14.0613636,
                "pitch": 40,
                "velocity": 80,
                "duration": 0.1181818,
                "tempo": 120.0
            },
            {
                "start_time": 14.0772727,
                "end_time": 14.1931818,
                "pitch": 45,
                "velocity": 80,
                "duration": 0.1159091,
                "tempo": 120.0
            },
            {
                "start_time": 14.2113636,
                "end_time": 14.3272727,
                "pitch": 43,
                "velocity": 80,
                "duration": 0.1159091,
                "tempo": 120.0
            },
            {
                "start_time": 14.3454545,
                "end_time": 14.4613636,
                "pitch": 40,
                "velocity": 80,
                "duration": 0.1159091,
                "tempo": 120.0
            },
            {
                "start_time": 14.4772727,
                "end_time": 14.5954545,
                "pitch": 39,
                "velocity": 80,
                "duration": 0.1181818,
                "tempo": 120.0
            },
            {
                "start_time": 14.6113636,
                "end_time": 14.7295455,
                "pitch": 38,
                "velocity": 80,
                "duration": 0.1181818,
                "tempo": 120.0
            },
            {
                "start_time": 14.7454545,
                "end_time": 14.8613636,
                "pitch": 36,
                "velocity": 80,
                "duration": 0.1159091,
                "tempo": 120.0
            },
            {
                "start_time": 14.8795455,
                "end_time": 15.6727273,
                "pitch": 37,
                "velocity": 80,
                "duration": 0.7931818,
                "tempo": 120.0
            },
            {
                "start_time": 15.825,
                "end_time": 15.9409091,
                "pitch": 44,
                "velocity": 80,
                "duration": 0.1159091,
                "tempo": 120.0
            },
            {
                "start_time": 15.9568182,
                "end_time": 16.075,
                "pitch": 49,
                "velocity": 80,
                "duration": 0.1181818,
                "tempo": 120.0
            },
            {
                "start_time": 16.0909091,
                "end_time": 16.2068182,
                "pitch": 47,
                "velocity": 80,
                "duration": 0.1159091,
                "tempo": 120.0
            },
            {
                "start_time": 16.225,
                "end_time": 16.3409091,
                "pitch": 44,
                "velocity": 80,
                "duration": 0.1159091,
                "tempo": 120.0
            },
            {
                "start_time": 16.3590909,
                "end_time": 16.475,
                "pitch": 43,
                "velocity": 80,
                "duration": 0.1159091,
                "tempo": 120.0
            },
            {
                "start_time": 16.4909091,
                "end_time": 16.6090909,
                "pitch": 42,
                "velocity": 80,
                "duration": 0.1181818,
                "tempo": 120.0
            },
            {
                "start_time": 16.625,
                "end_time": 16.7409091,
                "pitch": 40,
                "velocity": 80,
                "duration": 0.1159091,
                "tempo": 120.0
            },
            {
                "start_time": 16.7590909,
                "end_time": 17.5522727,
                "pitch": 36,
                "velocity": 80,
                "duration": 0.7931818,
                "tempo": 120.0
            },
            {
                "start_time": 17.7068182,
                "end_time": 17.825,
                "pitch": 43,
                "velocity": 80,
                "duration": 0.1181818,
                "tempo": 120.0
            },
            {
                "start_time": 17.9772727,
                "end_time": 18.0977273,
                "pitch": 43,
                "velocity": 80,
                "duration": 0.1204545,
                "tempo": 120.0
            },
            {
                "start_time": 18.2454545,
                "end_time": 18.3590909,
                "pitch": 37,
                "velocity": 80,
                "duration": 0.1136364,
                "tempo": 120.0
            },
            {
                "start_time": 18.3772727,
                "end_time": 18.4909091,
                "pitch": 43,
                "velocity": 80,
                "duration": 0.1136364,
                "tempo": 120.0
            },
            {
                "start_time": 18.6386364,
                "end_time": 19.4340909,
                "pitch": 37,
                "velocity": 80,
                "duration": 0.7954545,
                "tempo": 120.0
            },
            {
                "start_time": 19.5840909,
                "end_time": 19.7,
                "pitch": 44,
                "velocity": 80,
                "duration": 0.1159091,
                "tempo": 120.0
            },
            {
                "start_time": 19.7181818,
                "end_time": 19.8363636,
                "pitch": 49,
                "velocity": 80,
                "duration": 0.1181818,
                "tempo": 120.0
            },
            {
                "start_time": 19.8522727,
                "end_time": 19.9727273,
                "pitch": 47,
                "velocity": 80,
                "duration": 0.1204545,
                "tempo": 120.0
            },
            {
                "start_time": 19.9886364,
                "end_time": 20.1068182,
                "pitch": 44,
                "velocity": 80,
                "duration": 0.1181818,
                "tempo": 120.0
            },
            {
                "start_time": 20.125,
                "end_time": 20.2431818,
                "pitch": 43,
                "velocity": 80,
                "duration": 0.1181818,
                "tempo": 120.0
            },
            {
                "start_time": 20.2613636,
                "end_time": 20.3772727,
                "pitch": 42,
                "velocity": 80,
                "duration": 0.1159091,
                "tempo": 120.0
            },
            {
                "start_time": 20.3954545,
                "end_time": 20.5113636,
                "pitch": 40,
                "velocity": 80,
                "duration": 0.1159091,
                "tempo": 120.0
            },
            {
                "start_time": 20.5295455,
                "end_time": 21.3136364,
                "pitch": 36,
                "velocity": 80,
                "duration": 0.7840909,
                "tempo": 120.0
            },
            {
                "start_time": 21.4636364,
                "end_time": 21.5795455,
                "pitch": 43,
                "velocity": 80,
                "duration": 0.1159091,
                "tempo": 120.0
            },
            {
                "start_time": 21.7318182,
                "end_time": 21.8477273,
                "pitch": 43,
                "velocity": 80,
                "duration": 0.1159091,
                "tempo": 120.0
            },
            {
                "start_time": 21.9977273,
                "end_time": 22.1136364,
                "pitch": 37,
                "velocity": 80,
                "duration": 0.1159091,
                "tempo": 120.0
            },
            {
                "start_time": 22.1318182,
                "end_time": 22.2477273,
                "pitch": 43,
                "velocity": 80,
                "duration": 0.1159091,
                "tempo": 120.0
            },
            {
                "start_time": 22.4,
                "end_time": 23.1931818,
                "pitch": 34,
                "velocity": 80,
                "duration": 0.7931818,
                "tempo": 120.0
            },
            {
                "start_time": 23.3431818,
                "end_time": 23.4590909,
                "pitch": 41,
                "velocity": 80,
                "duration": 0.1159091,
                "tempo": 120.0
            },
            {
                "start_time": 23.4772727,
                "end_time": 23.5954545,
                "pitch": 46,
                "velocity": 80,
                "duration": 0.1181818,
                "tempo": 120.0
            },
            {
                "start_time": 23.6136364,
                "end_time": 23.7318182,
                "pitch": 44,
                "velocity": 80,
                "duration": 0.1181818,
                "tempo": 120.0
            },
            {
                "start_time": 23.75,
                "end_time": 23.8681818,
                "pitch": 41,
                "velocity": 80,
                "duration": 0.1181818,
                "tempo": 120.0
            },
            {
                "start_time": 23.8840909,
                "end_time": 24.0045455,
                "pitch": 40,
                "velocity": 80,
                "duration": 0.1204545,
                "tempo": 120.0
            },
            {
                "start_time": 24.0204545,
                "end_time": 24.1409091,
                "pitch": 39,
                "velocity": 80,
                "duration": 0.1204545,
                "tempo": 120.0
            },
            {
                "start_time": 24.1568182,
                "end_time": 24.275,
                "pitch": 37,
                "velocity": 80,
                "duration": 0.1181818,
                "tempo": 120.0
            },
            {
                "start_time": 24.2931818,
                "end_time": 25.0818182,
                "pitch": 35,
                "velocity": 80,
                "duration": 0.7886364,
                "tempo": 120.0
            },
            {
                "start_time": 25.2340909,
                "end_time": 25.35,
                "pitch": 42,
                "velocity": 80,
                "duration": 0.1159091,
                "tempo": 120.0
            },
            {
                "start_time": 25.3659091,
                "end_time": 25.4840909,
                "pitch": 47,
                "velocity": 80,
                "duration": 0.1181818,
                "tempo": 120.0
            },
            {
                "start_time": 25.5,
                "end_time": 25.6181818,
                "pitch": 45,
                "velocity": 80,
                "duration": 0.1181818,
                "tempo": 120.0
            },
            {
                "start_time": 25.6340909,
                "end_time": 25.75,
                "pitch": 42,
                "velocity": 80,
                "duration": 0.1159091,
                "tempo": 120.0
            },
            {
                "start_time": 25.7681818,
                "end_time": 25.8840909,
                "pitch": 41,
                "velocity": 80,
                "duration": 0.1159091,
                "tempo": 120.0
            },
            {
                "start_time": 25.9022727,
                "end_time": 26.0181818,
                "pitch": 40,
                "velocity": 80,
                "duration": 0.1159091,
                "tempo": 120.0
            },
            {
                "start_time": 26.0340909,
                "end_time": 26.1522727,
                "pitch": 38,
                "velocity": 80,
                "duration": 0.1181818,
                "tempo": 120.0
            },
            {
                "start_time": 26.1681818,
                "end_time": 26.9568182,
                "pitch": 32,
                "velocity": 80,
                "duration": 0.7886364,
                "tempo": 120.0
            },
            {
                "start_time": 27.1113636,
                "end_time": 27.2295455,
                "pitch": 39,
                "velocity": 80,
                "duration": 0.1181818,
                "tempo": 120.0
            },
            {
                "start_time": 27.2477273,
                "end_time": 27.3659091,
                "pitch": 44,
                "velocity": 80,
                "duration": 0.1181818,
                "tempo": 120.0
            },
            {
                "start_time": 27.3818182,
                "end_time": 27.5022727,
                "pitch": 42,
                "velocity": 80,
                "duration": 0.1204545,
                "tempo": 120.0
            },
            {
                "start_time": 27.5181818,
                "end_time": 27.6363636,
                "pitch": 39,
                "velocity": 80,
                "duration": 0.1181818,
                "tempo": 120.0
            },
            {
                "start_time": 27.6545455,
                "end_time": 27.7727273,
                "pitch": 38,
                "velocity": 80,
                "duration": 0.1181818,
                "tempo": 120.0
            },
            {
                "start_time": 27.7909091,
                "end_time": 27.9068182,
                "pitch": 37,
                "velocity": 80,
                "duration": 0.1159091,
                "tempo": 120.0
            },
            {
                "start_time": 27.925,
                "end_time": 28.0409091,
                "pitch": 35,
                "velocity": 80,
                "duration": 0.1159091,
                "tempo": 120.0
            },
            {
                "start_time": 28.0590909,
                "end_time": 28.8431818,
                "pitch": 33,
                "velocity": 80,
                "duration": 0.7840909,
                "tempo": 120.0
            },
            {
                "start_time": 28.9931818,
                "end_time": 29.1090909,
                "pitch": 40,
                "velocity": 80,
                "duration": 0.1159091,
                "tempo": 120.0
            },
            {
                "start_time": 29.1272727,
                "end_time": 29.2431818,
                "pitch": 45,
                "velocity": 80,
                "duration": 0.1159091,
                "tempo": 120.0
            },
            {
                "start_time": 29.2613636,
                "end_time": 29.3772727,
                "pitch": 43,
                "velocity": 80,
                "duration": 0.1159091,
                "tempo": 120.0
            },
            {
                "start_time": 29.3931818,
                "end_time": 29.5136364,
                "pitch": 40,
                "velocity": 80,
                "duration": 0.1204545,
                "tempo": 120.0
            },
            {
                "start_time": 29.5295455,
                "end_time": 29.6477273,
                "pitch": 39,
                "velocity": 80,
                "duration": 0.1181818,
                "tempo": 120.0
            },
            {
                "start_time": 29.6659091,
                "end_time": 29.7840909,
                "pitch": 38,
                "velocity": 80,
                "duration": 0.1181818,
                "tempo": 120.0
            },
            {
                "start_time": 29.8022727,
                "end_time": 29.9204545,
                "pitch": 36,
                "velocity": 80,
                "duration": 0.1181818,
                "tempo": 120.0
            },
            {
                "start_time": 29.9386364,
                "end_time": 32.0681818,
                "pitch": 37,
                "velocity": 80,
                "duration": 2.1295455,
                "tempo": 120.0
            },
            {
                "start_time": 32.0840909,
                "end_time": 33.6795455,
                "pitch": 49,
                "velocity": 80,
                "duration": 1.5954545,
                "tempo": 120.0
            },
            {
                "start_time": 33.6977273,
                "end_time": 33.8136364,
                "pitch": 38,
                "velocity": 80,
                "duration": 0.1159091,
                "tempo": 120.0
            },
            {
                "start_time": 33.8318182,
                "end_time": 33.9477273,
                "pitch": 40,
                "velocity": 80,
                "duration": 0.1159091,
                "tempo": 120.0
            },
            {
                "start_time": 33.9659091,
                "end_time": 34.0818182,
                "pitch": 42,
                "velocity": 80,
                "duration": 0.1159091,
                "tempo": 120.0
            },
            {
                "start_time": 34.0977273,
                "end_time": 34.2159091,
                "pitch": 49,
                "velocity": 80,
                "duration": 0.1181818,
                "tempo": 120.0
            },
            {
                "start_time": 34.2318182,
                "end_time": 36.1045455,
                "pitch": 48,
                "velocity": 80,
                "duration": 1.8727273,
                "tempo": 120.0
            },
            {
                "start_time": 36.1227273,
                "end_time": 36.3727273,
                "pitch": 43,
                "velocity": 80,
                "duration": 0.25,
                "tempo": 120.0
            },
            {
                "start_time": 36.3886364,
                "end_time": 36.7795455,
                "pitch": 48,
                "velocity": 80,
                "duration": 0.3909091,
                "tempo": 120.0
            },
            {
                "start_time": 36.7977273,
                "end_time": 37.1795455,
                "pitch": 43,
                "velocity": 80,
                "duration": 0.3818182,
                "tempo": 120.0
            },
            {
                "start_time": 37.1954545,
                "end_time": 38.2477273,
                "pitch": 36,
                "velocity": 80,
                "duration": 1.0522727,
                "tempo": 120.0
            },
            {
                "start_time": 38.5363636,
                "end_time": 40.6659091,
                "pitch": 37,
                "velocity": 80,
                "duration": 2.1295455,
                "tempo": 120.0
            },
            {
                "start_time": 40.6840909,
                "end_time": 42.2886364,
                "pitch": 49,
                "velocity": 80,
                "duration": 1.6045455,
                "tempo": 120.0
            },
            {
                "start_time": 42.3045455,
                "end_time": 42.4227273,
                "pitch": 38,
                "velocity": 80,
                "duration": 0.1181818,
                "tempo": 120.0
            },
            {
                "start_time": 42.4386364,
                "end_time": 42.5568182,
                "pitch": 40,
                "velocity": 80,
                "duration": 0.1181818,
                "tempo": 120.0
            },
            {
                "start_time": 42.5727273,
                "end_time": 42.6886364,
                "pitch": 42,
                "velocity": 80,
                "duration": 0.1159091,
                "tempo": 120.0
            },
            {
                "start_time": 42.7068182,
                "end_time": 42.8227273,
                "pitch": 49,
                "velocity": 80,
                "duration": 0.1159091,
                "tempo": 120.0
            },
            {
                "start_time": 42.8409091,
                "end_time": 44.7022727,
                "pitch": 48,
                "velocity": 80,
                "duration": 1.8613636,
                "tempo": 120.0
            },
            {
                "start_time": 44.7204545,
                "end_time": 44.9704545,
                "pitch": 43,
                "velocity": 80,
                "duration": 0.25,
                "tempo": 120.0
            },
            {
                "start_time": 44.9863636,
                "end_time": 45.3704545,
                "pitch": 48,
                "velocity": 80,
                "duration": 0.3840909,
                "tempo": 120.0
            },
            {
                "start_time": 45.3886364,
                "end_time": 45.7727273,
                "pitch": 43,
                "velocity": 80,
                "duration": 0.3840909,
                "tempo": 120.0
            },
            {
                "start_time": 45.7886364,
                "end_time": 46.85,
                "pitch": 36,
                "velocity": 80,
                "duration": 1.0613636,
                "tempo": 120.0
            },
            {
                "start_time": 47.1340909,
                "end_time": 47.25,
                "pitch": 28,
                "velocity": 80,
                "duration": 0.1159091,
                "tempo": 120.0
            },
            {
                "start_time": 47.4022727,
                "end_time": 47.6522727,
                "pitch": 28,
                "velocity": 80,
                "duration": 0.25,
                "tempo": 120.0
            },
            {
                "start_time": 47.6681818,
                "end_time": 47.7863636,
                "pitch": 28,
                "velocity": 80,
                "duration": 0.1181818,
                "tempo": 120.0
            },
            {
                "start_time": 47.8045455,
                "end_time": 47.9227273,
                "pitch": 40,
                "velocity": 80,
                "duration": 0.1181818,
                "tempo": 120.0
            },
            {
                "start_time": 47.9409091,
                "end_time": 48.0590909,
                "pitch": 28,
                "velocity": 80,
                "duration": 0.1181818,
                "tempo": 120.0
            },
            {
                "start_time": 48.0772727,
                "end_time": 48.1954545,
                "pitch": 28,
                "velocity": 80,
                "duration": 0.1181818,
                "tempo": 120.0
            },
            {
                "start_time": 48.2136364,
                "end_time": 48.4636364,
                "pitch": 28,
                "velocity": 80,
                "duration": 0.25,
                "tempo": 120.0
            },
            {
                "start_time": 48.4795455,
                "end_time": 48.5954545,
                "pitch": 28,
                "velocity": 80,
                "duration": 0.1159091,
                "tempo": 120.0
            },
            {
                "start_time": 48.6136364,
                "end_time": 48.7295455,
                "pitch": 40,
                "velocity": 80,
                "duration": 0.1159091,
                "tempo": 120.0
            },
            {
                "start_time": 48.7477273,
                "end_time": 48.8659091,
                "pitch": 28,
                "velocity": 80,
                "duration": 0.1181818,
                "tempo": 120.0
            },
            {
                "start_time": 48.8840909,
                "end_time": 49.0022727,
                "pitch": 28,
                "velocity": 80,
                "duration": 0.1181818,
                "tempo": 120.0
            },
            {
                "start_time": 49.0181818,
                "end_time": 49.1386364,
                "pitch": 38,
                "velocity": 80,
                "duration": 0.1204545,
                "tempo": 120.0
            },
            {
                "start_time": 49.1545455,
                "end_time": 49.2727273,
                "pitch": 40,
                "velocity": 80,
                "duration": 0.1181818,
                "tempo": 120.0
            },
            {
                "start_time": 49.2909091,
                "end_time": 49.4068182,
                "pitch": 36,
                "velocity": 80,
                "duration": 0.1159091,
                "tempo": 120.0
            },
            {
                "start_time": 49.5590909,
                "end_time": 49.8090909,
                "pitch": 36,
                "velocity": 80,
                "duration": 0.25,
                "tempo": 120.0
            },
            {
                "start_time": 49.825,
                "end_time": 49.9431818,
                "pitch": 36,
                "velocity": 80,
                "duration": 0.1181818,
                "tempo": 120.0
            },
            {
                "start_time": 49.9613636,
                "end_time": 50.0795455,
                "pitch": 48,
                "velocity": 80,
                "duration": 0.1181818,
                "tempo": 120.0
            },
            {
                "start_time": 50.0977273,
                "end_time": 50.2159091,
                "pitch": 36,
                "velocity": 80,
                "duration": 0.1181818,
                "tempo": 120.0
            },
            {
                "start_time": 50.2340909,
                "end_time": 50.3522727,
                "pitch": 36,
                "velocity": 80,
                "duration": 0.1181818,
                "tempo": 120.0
            },
            {
                "start_time": 50.3681818,
                "end_time": 50.4840909,
                "pitch": 41,
                "velocity": 80,
                "duration": 0.1159091,
                "tempo": 120.0
            },
            {
                "start_time": 50.5,
                "end_time": 50.6159091,
                "pitch": 43,
                "velocity": 80,
                "duration": 0.1159091,
                "tempo": 120.0
            },
            {
                "start_time": 50.6318182,
                "end_time": 50.7454545,
                "pitch": 31,
                "velocity": 80,
                "duration": 0.1136364,
                "tempo": 120.0
            },
            {
                "start_time": 50.7636364,
                "end_time": 50.8772727,
                "pitch": 39,
                "velocity": 80,
                "duration": 0.1136364,
                "tempo": 120.0
            },
            {
                "start_time": 50.8931818,
                "end_time": 51.0136364,
                "pitch": 41,
                "velocity": 80,
                "duration": 0.1204545,
                "tempo": 120.0
            },
            {
                "start_time": 51.0295455,
                "end_time": 51.15,
                "pitch": 29,
                "velocity": 80,
                "duration": 0.1204545,
                "tempo": 120.0
            },
            {
                "start_time": 51.1659091,
                "end_time": 51.2840909,
                "pitch": 34,
                "velocity": 80,
                "duration": 0.1181818,
                "tempo": 120.0
            },
            {
                "start_time": 51.3022727,
                "end_time": 51.4204545,
                "pitch": 36,
                "velocity": 80,
                "duration": 0.1181818,
                "tempo": 120.0
            },
            {
                "start_time": 51.4386364,
                "end_time": 51.5545455,
                "pitch": 35,
                "velocity": 80,
                "duration": 0.1159091,
                "tempo": 120.0
            },
            {
                "start_time": 51.7045455,
                "end_time": 51.9545455,
                "pitch": 35,
                "velocity": 80,
                "duration": 0.25,
                "tempo": 120.0
            },
            {
                "start_time": 51.9727273,
                "end_time": 52.0909091,
                "pitch": 35,
                "velocity": 80,
                "duration": 0.1181818,
                "tempo": 120.0
            },
            {
                "start_time": 52.1090909,
                "end_time": 52.2272727,
                "pitch": 47,
                "velocity": 80,
                "duration": 0.1181818,
                "tempo": 120.0
            },
            {
                "start_time": 52.2454545,
                "end_time": 52.3636364,
                "pitch": 35,
                "velocity": 80,
                "duration": 0.1181818,
                "tempo": 120.0
            },
            {
                "start_time": 52.3795455,
                "end_time": 52.5,
                "pitch": 35,
                "velocity": 80,
                "duration": 0.1204545,
                "tempo": 120.0
            },
            {
                "start_time": 52.5159091,
                "end_time": 52.6340909,
                "pitch": 40,
                "velocity": 80,
                "duration": 0.1181818,
                "tempo": 120.0
            },
            {
                "start_time": 52.65,
                "end_time": 52.7659091,
                "pitch": 42,
                "velocity": 80,
                "duration": 0.1159091,
                "tempo": 120.0
            },
            {
                "start_time": 52.7840909,
                "end_time": 52.9,
                "pitch": 35,
                "velocity": 80,
                "duration": 0.1159091,
                "tempo": 120.0
            },
            {
                "start_time": 52.9181818,
                "end_time": 53.1681818,
                "pitch": 35,
                "velocity": 80,
                "duration": 0.25,
                "tempo": 120.0
            },
            {
                "start_time": 53.1840909,
                "end_time": 53.3,
                "pitch": 35,
                "velocity": 80,
                "duration": 0.1159091,
                "tempo": 120.0
            },
            {
                "start_time": 53.3181818,
                "end_time": 53.4340909,
                "pitch": 35,
                "velocity": 80,
                "duration": 0.1159091,
                "tempo": 120.0
            },
            {
                "start_time": 53.4522727,
                "end_time": 53.5681818,
                "pitch": 47,
                "velocity": 80,
                "duration": 0.1159091,
                "tempo": 120.0
            },
            {
                "start_time": 53.5863636,
                "end_time": 53.7022727,
                "pitch": 35,
                "velocity": 80,
                "duration": 0.1159091,
                "tempo": 120.0
            },
            {
                "start_time": 53.8522727,
                "end_time": 54.1022727,
                "pitch": 35,
                "velocity": 80,
                "duration": 0.25,
                "tempo": 120.0
            },
            {
                "start_time": 54.1204545,
                "end_time": 54.2386364,
                "pitch": 35,
                "velocity": 80,
                "duration": 0.1181818,
                "tempo": 120.0
            },
            {
                "start_time": 54.2545455,
                "end_time": 54.375,
                "pitch": 47,
                "velocity": 80,
                "duration": 0.1204545,
                "tempo": 120.0
            },
            {
                "start_time": 54.3909091,
                "end_time": 54.5113636,
                "pitch": 35,
                "velocity": 80,
                "duration": 0.1204545,
                "tempo": 120.0
            },
            {
                "start_time": 54.5272727,
                "end_time": 54.6454545,
                "pitch": 35,
                "velocity": 80,
                "duration": 0.1181818,
                "tempo": 120.0
            },
            {
                "start_time": 54.6636364,
                "end_time": 54.9136364,
                "pitch": 35,
                "velocity": 80,
                "duration": 0.25,
                "tempo": 120.0
            },
            {
                "start_time": 54.9318182,
                "end_time": 55.0477273,
                "pitch": 35,
                "velocity": 80,
                "duration": 0.1159091,
                "tempo": 120.0
            },
            {
                "start_time": 55.0636364,
                "end_time": 55.1818182,
                "pitch": 47,
                "velocity": 80,
                "duration": 0.1181818,
                "tempo": 120.0
            },
            {
                "start_time": 55.1977273,
                "end_time": 55.3136364,
                "pitch": 35,
                "velocity": 80,
                "duration": 0.1159091,
                "tempo": 120.0
            },
            {
                "start_time": 55.3318182,
                "end_time": 55.4477273,
                "pitch": 35,
                "velocity": 80,
                "duration": 0.1159091,
                "tempo": 120.0
            },
            {
                "start_time": 55.4659091,
                "end_time": 55.5818182,
                "pitch": 45,
                "velocity": 80,
                "duration": 0.1159091,
                "tempo": 120.0
            },
            {
                "start_time": 55.6,
                "end_time": 55.7159091,
                "pitch": 47,
                "velocity": 80,
                "duration": 0.1159091,
                "tempo": 120.0
            },
            {
                "start_time": 55.7318182,
                "end_time": 55.85,
                "pitch": 31,
                "velocity": 80,
                "duration": 0.1181818,
                "tempo": 120.0
            },
            {
                "start_time": 56.0045455,
                "end_time": 56.2590909,
                "pitch": 31,
                "velocity": 80,
                "duration": 0.2545455,
                "tempo": 120.0
            },
            {
                "start_time": 56.2772727,
                "end_time": 56.3931818,
                "pitch": 31,
                "velocity": 80,
                "duration": 0.1159091,
                "tempo": 120.0
            },
            {
                "start_time": 56.4090909,
                "end_time": 56.5272727,
                "pitch": 43,
                "velocity": 80,
                "duration": 0.1181818,
                "tempo": 120.0
            },
            {
                "start_time": 56.5431818,
                "end_time": 56.6590909,
                "pitch": 31,
                "velocity": 80,
                "duration": 0.1159091,
                "tempo": 120.0
            },
            {
                "start_time": 56.8113636,
                "end_time": 57.0613636,
                "pitch": 31,
                "velocity": 80,
                "duration": 0.25,
                "tempo": 120.0
            },
            {
                "start_time": 57.2113636,
                "end_time": 57.3272727,
                "pitch": 43,
                "velocity": 80,
                "duration": 0.1159091,
                "tempo": 120.0
            },
            {
                "start_time": 57.3454545,
                "end_time": 57.4636364,
                "pitch": 31,
                "velocity": 80,
                "duration": 0.1181818,
                "tempo": 120.0
            },
            {
                "start_time": 57.4818182,
                "end_time": 57.6,
                "pitch": 31,
                "velocity": 80,
                "duration": 0.1181818,
                "tempo": 120.0
            },
            {
                "start_time": 57.6159091,
                "end_time": 57.7363636,
                "pitch": 36,
                "velocity": 80,
                "duration": 0.1204545,
                "tempo": 120.0
            },
            {
                "start_time": 57.7522727,
                "end_time": 57.8727273,
                "pitch": 38,
                "velocity": 80,
                "duration": 0.1204545,
                "tempo": 120.0
            },
            {
                "start_time": 57.8886364,
                "end_time": 58.0045455,
                "pitch": 33,
                "velocity": 80,
                "duration": 0.1159091,
                "tempo": 120.0
            },
            {
                "start_time": 58.1568182,
                "end_time": 58.4068182,
                "pitch": 33,
                "velocity": 80,
                "duration": 0.25,
                "tempo": 120.0
            },
            {
                "start_time": 58.4227273,
                "end_time": 58.5409091,
                "pitch": 33,
                "velocity": 80,
                "duration": 0.1181818,
                "tempo": 120.0
            },
            {
                "start_time": 58.5590909,
                "end_time": 58.6772727,
                "pitch": 45,
                "velocity": 80,
                "duration": 0.1181818,
                "tempo": 120.0
            },
            {
                "start_time": 58.6954545,
                "end_time": 58.8136364,
                "pitch": 33,
                "velocity": 80,
                "duration": 0.1181818,
                "tempo": 120.0
            },
            {
                "start_time": 58.8318182,
                "end_time": 58.95,
                "pitch": 33,
                "velocity": 80,
                "duration": 0.1181818,
                "tempo": 120.0
            },
            {
                "start_time": 58.9681818,
                "end_time": 59.0840909,
                "pitch": 38,
                "velocity": 80,
                "duration": 0.1159091,
                "tempo": 120.0
            },
            {
                "start_time": 59.1,
                "end_time": 59.2181818,
                "pitch": 40,
                "velocity": 80,
                "duration": 0.1181818,
                "tempo": 120.0
            },
            {
                "start_time": 59.2340909,
                "end_time": 59.3522727,
                "pitch": 33,
                "velocity": 80,
                "duration": 0.1181818,
                "tempo": 120.0
            },
            {
                "start_time": 59.3681818,
                "end_time": 59.4840909,
                "pitch": 33,
                "velocity": 80,
                "duration": 0.1159091,
                "tempo": 120.0
            },
            {
                "start_time": 59.5022727,
                "end_time": 59.6181818,
                "pitch": 35,
                "velocity": 80,
                "duration": 0.1159091,
                "tempo": 120.0
            },
            {
                "start_time": 59.6363636,
                "end_time": 59.7522727,
                "pitch": 35,
                "velocity": 80,
                "duration": 0.1159091,
                "tempo": 120.0
            },
            {
                "start_time": 59.7681818,
                "end_time": 59.8863636,
                "pitch": 40,
                "velocity": 80,
                "duration": 0.1181818,
                "tempo": 120.0
            },
            {
                "start_time": 59.9022727,
                "end_time": 60.0181818,
                "pitch": 42,
                "velocity": 80,
                "duration": 0.1159091,
                "tempo": 120.0
            },
            {
                "start_time": 60.0363636,
                "end_time": 60.1522727,
                "pitch": 35,
                "velocity": 80,
                "duration": 0.1159091,
                "tempo": 120.0
            },
            {
                "start_time": 60.3022727,
                "end_time": 60.5545455,
                "pitch": 35,
                "velocity": 80,
                "duration": 0.2522727,
                "tempo": 120.0
            },
            {
                "start_time": 60.5704545,
                "end_time": 60.6886364,
                "pitch": 35,
                "velocity": 80,
                "duration": 0.1181818,
                "tempo": 120.0
            },
            {
                "start_time": 60.7068182,
                "end_time": 60.825,
                "pitch": 47,
                "velocity": 80,
                "duration": 0.1181818,
                "tempo": 120.0
            },
            {
                "start_time": 60.8431818,
                "end_time": 60.9613636,
                "pitch": 35,
                "velocity": 80,
                "duration": 0.1181818,
                "tempo": 120.0
            },
            {
                "start_time": 60.9795455,
                "end_time": 61.0977273,
                "pitch": 35,
                "velocity": 80,
                "duration": 0.1181818,
                "tempo": 120.0
            },
            {
                "start_time": 61.1136364,
                "end_time": 61.2318182,
                "pitch": 40,
                "velocity": 80,
                "duration": 0.1181818,
                "tempo": 120.0
            },
            {
                "start_time": 61.2477273,
                "end_time": 61.3636364,
                "pitch": 42,
                "velocity": 80,
                "duration": 0.1159091,
                "tempo": 120.0
            },
            {
                "start_time": 61.5159091,
                "end_time": 61.6318182,
                "pitch": 38,
                "velocity": 80,
                "duration": 0.1159091,
                "tempo": 120.0
            },
            {
                "start_time": 61.6477273,
                "end_time": 61.7681818,
                "pitch": 40,
                "velocity": 80,
                "duration": 0.1204545,
                "tempo": 120.0
            },
            {
                "start_time": 61.9204545,
                "end_time": 62.0386364,
                "pitch": 33,
                "velocity": 80,
                "duration": 0.1181818,
                "tempo": 120.0
            },
            {
                "start_time": 62.0568182,
                "end_time": 62.175,
                "pitch": 35,
                "velocity": 80,
                "duration": 0.1181818,
                "tempo": 120.0
            },
            {
                "start_time": 62.1931818,
                "end_time": 62.3090909,
                "pitch": 35,
                "velocity": 80,
                "duration": 0.1159091,
                "tempo": 120.0
            },
            {
                "start_time": 62.4590909,
                "end_time": 62.7113636,
                "pitch": 35,
                "velocity": 80,
                "duration": 0.2522727,
                "tempo": 120.0
            },
            {
                "start_time": 62.7272727,
                "end_time": 62.8454545,
                "pitch": 35,
                "velocity": 80,
                "duration": 0.1181818,
                "tempo": 120.0
            },
            {
                "start_time": 62.8636364,
                "end_time": 62.9818182,
                "pitch": 47,
                "velocity": 80,
                "duration": 0.1181818,
                "tempo": 120.0
            },
            {
                "start_time": 63.0,
                "end_time": 63.1181818,
                "pitch": 35,
                "velocity": 80,
                "duration": 0.1181818,
                "tempo": 120.0
            },
            {
                "start_time": 63.1340909,
                "end_time": 63.2545455,
                "pitch": 35,
                "velocity": 80,
                "duration": 0.1204545,
                "tempo": 120.0
            },
            {
                "start_time": 63.2704545,
                "end_time": 63.5159091,
                "pitch": 35,
                "velocity": 80,
                "duration": 0.2454545,
                "tempo": 120.0
            },
            {
                "start_time": 63.5340909,
                "end_time": 63.7795455,
                "pitch": 47,
                "velocity": 80,
                "duration": 0.2454545,
                "tempo": 120.0
            },
            {
                "start_time": 63.7954545,
                "end_time": 64.05,
                "pitch": 35,
                "velocity": 80,
                "duration": 0.2545455,
                "tempo": 120.0
            },
            {
                "start_time": 64.0681818,
                "end_time": 64.3227273,
                "pitch": 47,
                "velocity": 80,
                "duration": 0.2545455,
                "tempo": 120.0
            },
            {
                "start_time": 64.3409091,
                "end_time": 64.5909091,
                "pitch": 28,
                "velocity": 80,
                "duration": 0.25,
                "tempo": 120.0
            },
            {
                "start_time": 64.6068182,
                "end_time": 64.8568182,
                "pitch": 40,
                "velocity": 80,
                "duration": 0.25,
                "tempo": 120.0
            },
            {
                "start_time": 64.875,
                "end_time": 65.1295455,
                "pitch": 28,
                "velocity": 80,
                "duration": 0.2545455,
                "tempo": 120.0
            },
            {
                "start_time": 65.1454545,
                "end_time": 65.4,
                "pitch": 40,
                "velocity": 80,
                "duration": 0.2545455,
                "tempo": 120.0
            },
            {
                "start_time": 65.4181818,
                "end_time": 65.6681818,
                "pitch": 28,
                "velocity": 80,
                "duration": 0.25,
                "tempo": 120.0
            },
            {
                "start_time": 65.6863636,
                "end_time": 65.9363636,
                "pitch": 40,
                "velocity": 80,
                "duration": 0.25,
                "tempo": 120.0
            },
            {
                "start_time": 65.9522727,
                "end_time": 66.2022727,
                "pitch": 28,
                "velocity": 80,
                "duration": 0.25,
                "tempo": 120.0
            },
            {
                "start_time": 66.2204545,
                "end_time": 66.4704545,
                "pitch": 40,
                "velocity": 80,
                "duration": 0.25,
                "tempo": 120.0
            },
            {
                "start_time": 66.4863636,
                "end_time": 66.7409091,
                "pitch": 31,
                "velocity": 80,
                "duration": 0.2545455,
                "tempo": 120.0
            },
            {
                "start_time": 66.7590909,
                "end_time": 67.0136364,
                "pitch": 43,
                "velocity": 80,
                "duration": 0.2545455,
                "tempo": 120.0
            },
            {
                "start_time": 67.0318182,
                "end_time": 67.2818182,
                "pitch": 31,
                "velocity": 80,
                "duration": 0.25,
                "tempo": 120.0
            },
            {
                "start_time": 67.2977273,
                "end_time": 67.5477273,
                "pitch": 43,
                "velocity": 80,
                "duration": 0.25,
                "tempo": 120.0
            },
            {
                "start_time": 67.5659091,
                "end_time": 67.8159091,
                "pitch": 31,
                "velocity": 80,
                "duration": 0.25,
                "tempo": 120.0
            },
            {
                "start_time": 67.8318182,
                "end_time": 68.0818182,
                "pitch": 43,
                "velocity": 80,
                "duration": 0.25,
                "tempo": 120.0
            },
            {
                "start_time": 68.1,
                "end_time": 68.3545455,
                "pitch": 31,
                "velocity": 80,
                "duration": 0.2545455,
                "tempo": 120.0
            },
            {
                "start_time": 68.3727273,
                "end_time": 68.6272727,
                "pitch": 43,
                "velocity": 80,
                "duration": 0.2545455,
                "tempo": 120.0
            },
            {
                "start_time": 68.6431818,
                "end_time": 68.8931818,
                "pitch": 28,
                "velocity": 80,
                "duration": 0.25,
                "tempo": 120.0
            },
            {
                "start_time": 68.9113636,
                "end_time": 69.1613636,
                "pitch": 40,
                "velocity": 80,
                "duration": 0.25,
                "tempo": 120.0
            },
            {
                "start_time": 69.1772727,
                "end_time": 69.4272727,
                "pitch": 28,
                "velocity": 80,
                "duration": 0.25,
                "tempo": 120.0
            },
            {
                "start_time": 69.4454545,
                "end_time": 69.6954545,
                "pitch": 40,
                "velocity": 80,
                "duration": 0.25,
                "tempo": 120.0
            },
            {
                "start_time": 69.7136364,
                "end_time": 69.9681818,
                "pitch": 28,
                "velocity": 80,
                "duration": 0.2545455,
                "tempo": 120.0
            },
            {
                "start_time": 69.9840909,
                "end_time": 70.2386364,
                "pitch": 40,
                "velocity": 80,
                "duration": 0.2545455,
                "tempo": 120.0
            },
            {
                "start_time": 70.2568182,
                "end_time": 70.5068182,
                "pitch": 28,
                "velocity": 80,
                "duration": 0.25,
                "tempo": 120.0
            },
            {
                "start_time": 70.525,
                "end_time": 70.775,
                "pitch": 40,
                "velocity": 80,
                "duration": 0.25,
                "tempo": 120.0
            },
            {
                "start_time": 70.7909091,
                "end_time": 71.0409091,
                "pitch": 31,
                "velocity": 80,
                "duration": 0.25,
                "tempo": 120.0
            },
            {
                "start_time": 71.0590909,
                "end_time": 71.3090909,
                "pitch": 43,
                "velocity": 80,
                "duration": 0.25,
                "tempo": 120.0
            },
            {
                "start_time": 71.325,
                "end_time": 71.5795455,
                "pitch": 31,
                "velocity": 80,
                "duration": 0.2545455,
                "tempo": 120.0
            },
            {
                "start_time": 71.5977273,
                "end_time": 71.8522727,
                "pitch": 43,
                "velocity": 80,
                "duration": 0.2545455,
                "tempo": 120.0
            },
            {
                "start_time": 71.8704545,
                "end_time": 72.1204545,
                "pitch": 31,
                "velocity": 80,
                "duration": 0.25,
                "tempo": 120.0
            },
            {
                "start_time": 72.1363636,
                "end_time": 72.3863636,
                "pitch": 43,
                "velocity": 80,
                "duration": 0.25,
                "tempo": 120.0
            },
            {
                "start_time": 72.4045455,
                "end_time": 72.6590909,
                "pitch": 31,
                "velocity": 80,
                "duration": 0.2545455,
                "tempo": 120.0
            },
            {
                "start_time": 72.675,
                "end_time": 72.9295455,
                "pitch": 43,
                "velocity": 80,
                "duration": 0.2545455,
                "tempo": 120.0
            },
            {
                "start_time": 72.9477273,
                "end_time": 75.0681818,
                "pitch": 25,
                "velocity": 80,
                "duration": 2.1204545,
                "tempo": 120.0
            },
            {
                "start_time": 77.2431818,
                "end_time": 79.3636364,
                "pitch": 37,
                "velocity": 80,
                "duration": 2.1204545,
                "tempo": 120.0
            },
            {
                "start_time": 79.3795455,
                "end_time": 80.9840909,
                "pitch": 49,
                "velocity": 80,
                "duration": 1.6045455,
                "tempo": 120.0
            },
            {
                "start_time": 81.0022727,
                "end_time": 81.1204545,
                "pitch": 38,
                "velocity": 80,
                "duration": 0.1181818,
                "tempo": 120.0
            },
            {
                "start_time": 81.1386364,
                "end_time": 81.2568182,
                "pitch": 40,
                "velocity": 80,
                "duration": 0.1181818,
                "tempo": 120.0
            },
            {
                "start_time": 81.2727273,
                "end_time": 81.3931818,
                "pitch": 44,
                "velocity": 80,
                "duration": 0.1204545,
                "tempo": 120.0
            },
            {
                "start_time": 81.4090909,
                "end_time": 81.5295455,
                "pitch": 49,
                "velocity": 80,
                "duration": 0.1204545,
                "tempo": 120.0
            },
            {
                "start_time": 81.5454545,
                "end_time": 83.4,
                "pitch": 48,
                "velocity": 80,
                "duration": 1.8545455,
                "tempo": 120.0
            },
            {
                "start_time": 83.4159091,
                "end_time": 83.6659091,
                "pitch": 43,
                "velocity": 80,
                "duration": 0.25,
                "tempo": 120.0
            },
            {
                "start_time": 83.6840909,
                "end_time": 84.075,
                "pitch": 48,
                "velocity": 80,
                "duration": 0.3909091,
                "tempo": 120.0
            },
            {
                "start_time": 84.0909091,
                "end_time": 84.4818182,
                "pitch": 43,
                "velocity": 80,
                "duration": 0.3909091,
                "tempo": 120.0
            },
            {
                "start_time": 84.5,
                "end_time": 85.6886364,
                "pitch": 36,
                "velocity": 80,
                "duration": 1.1886364,
                "tempo": 120.0
            },
            {
                "start_time": 85.8409091,
                "end_time": 87.9613636,
                "pitch": 37,
                "velocity": 80,
                "duration": 2.1204545,
                "tempo": 120.0
            },
            {
                "start_time": 87.9772727,
                "end_time": 89.5840909,
                "pitch": 49,
                "velocity": 80,
                "duration": 1.6068182,
                "tempo": 120.0
            },
            {
                "start_time": 89.6,
                "end_time": 89.7204545,
                "pitch": 38,
                "velocity": 80,
                "duration": 0.1204545,
                "tempo": 120.0
            },
            {
                "start_time": 89.7363636,
                "end_time": 89.8545455,
                "pitch": 40,
                "velocity": 80,
                "duration": 0.1181818,
                "tempo": 120.0
            },
            {
                "start_time": 89.8727273,
                "end_time": 89.9909091,
                "pitch": 44,
                "velocity": 80,
                "duration": 0.1181818,
                "tempo": 120.0
            },
            {
                "start_time": 90.0090909,
                "end_time": 90.1272727,
                "pitch": 49,
                "velocity": 80,
                "duration": 0.1181818,
                "tempo": 120.0
            },
            {
                "start_time": 90.1454545,
                "end_time": 92.0022727,
                "pitch": 48,
                "velocity": 80,
                "duration": 1.8568182,
                "tempo": 120.0
            },
            {
                "start_time": 92.0204545,
                "end_time": 92.2659091,
                "pitch": 43,
                "velocity": 80,
                "duration": 0.2454545,
                "tempo": 120.0
            },
            {
                "start_time": 92.2818182,
                "end_time": 92.6795455,
                "pitch": 48,
                "velocity": 80,
                "duration": 0.3977273,
                "tempo": 120.0
            },
            {
                "start_time": 92.6977273,
                "end_time": 93.0863636,
                "pitch": 43,
                "velocity": 80,
                "duration": 0.3886364,
                "tempo": 120.0
            },
            {
                "start_time": 93.1022727,
                "end_time": 94.2886364,
                "pitch": 36,
                "velocity": 80,
                "duration": 1.1863636,
                "tempo": 120.0
            },
            {
                "start_time": 94.4409091,
                "end_time": 94.5568182,
                "pitch": 28,
                "velocity": 80,
                "duration": 0.1159091,
                "tempo": 120.0
            },
            {
                "start_time": 94.7113636,
                "end_time": 94.9659091,
                "pitch": 28,
                "velocity": 80,
                "duration": 0.2545455,
                "tempo": 120.0
            },
            {
                "start_time": 94.9840909,
                "end_time": 95.1022727,
                "pitch": 28,
                "velocity": 80,
                "duration": 0.1181818,
                "tempo": 120.0
            },
            {
                "start_time": 95.1181818,
                "end_time": 95.2386364,
                "pitch": 40,
                "velocity": 80,
                "duration": 0.1204545,
                "tempo": 120.0
            },
            {
                "start_time": 95.2545455,
                "end_time": 95.3727273,
                "pitch": 28,
                "velocity": 80,
                "duration": 0.1181818,
                "tempo": 120.0
            },
            {
                "start_time": 95.3909091,
                "end_time": 95.5090909,
                "pitch": 28,
                "velocity": 80,
                "duration": 0.1181818,
                "tempo": 120.0
            },
            {
                "start_time": 95.5272727,
                "end_time": 95.7772727,
                "pitch": 28,
                "velocity": 80,
                "duration": 0.25,
                "tempo": 120.0
            },
            {
                "start_time": 95.7954545,
                "end_time": 95.9113636,
                "pitch": 28,
                "velocity": 80,
                "duration": 0.1159091,
                "tempo": 120.0
            },
            {
                "start_time": 95.9272727,
                "end_time": 96.0454545,
                "pitch": 40,
                "velocity": 80,
                "duration": 0.1181818,
                "tempo": 120.0
            },
            {
                "start_time": 96.0613636,
                "end_time": 96.1772727,
                "pitch": 28,
                "velocity": 80,
                "duration": 0.1159091,
                "tempo": 120.0
            },
            {
                "start_time": 96.1954545,
                "end_time": 96.3113636,
                "pitch": 28,
                "velocity": 80,
                "duration": 0.1159091,
                "tempo": 120.0
            },
            {
                "start_time": 96.3295455,
                "end_time": 96.4454545,
                "pitch": 38,
                "velocity": 80,
                "duration": 0.1159091,
                "tempo": 120.0
            },
            {
                "start_time": 96.4636364,
                "end_time": 96.5795455,
                "pitch": 40,
                "velocity": 80,
                "duration": 0.1159091,
                "tempo": 120.0
            },
            {
                "start_time": 96.5954545,
                "end_time": 96.7136364,
                "pitch": 36,
                "velocity": 80,
                "duration": 0.1181818,
                "tempo": 120.0
            },
            {
                "start_time": 96.8636364,
                "end_time": 97.1136364,
                "pitch": 36,
                "velocity": 80,
                "duration": 0.25,
                "tempo": 120.0
            },
            {
                "start_time": 97.1295455,
                "end_time": 97.25,
                "pitch": 36,
                "velocity": 80,
                "duration": 0.1204545,
                "tempo": 120.0
            },
            {
                "start_time": 97.2659091,
                "end_time": 97.3840909,
                "pitch": 48,
                "velocity": 80,
                "duration": 0.1181818,
                "tempo": 120.0
            },
            {
                "start_time": 97.4022727,
                "end_time": 97.5204545,
                "pitch": 36,
                "velocity": 80,
                "duration": 0.1181818,
                "tempo": 120.0
            },
            {
                "start_time": 97.5386364,
                "end_time": 97.6568182,
                "pitch": 36,
                "velocity": 80,
                "duration": 0.1181818,
                "tempo": 120.0
            },
            {
                "start_time": 97.675,
                "end_time": 97.7909091,
                "pitch": 41,
                "velocity": 80,
                "duration": 0.1159091,
                "tempo": 120.0
            },
            {
                "start_time": 97.8068182,
                "end_time": 97.925,
                "pitch": 43,
                "velocity": 80,
                "duration": 0.1181818,
                "tempo": 120.0
            },
            {
                "start_time": 97.9409091,
                "end_time": 98.0590909,
                "pitch": 31,
                "velocity": 80,
                "duration": 0.1181818,
                "tempo": 120.0
            },
            {
                "start_time": 98.075,
                "end_time": 98.1909091,
                "pitch": 39,
                "velocity": 80,
                "duration": 0.1159091,
                "tempo": 120.0
            },
            {
                "start_time": 98.2090909,
                "end_time": 98.325,
                "pitch": 41,
                "velocity": 80,
                "duration": 0.1159091,
                "tempo": 120.0
            },
            {
                "start_time": 98.3431818,
                "end_time": 98.4590909,
                "pitch": 29,
                "velocity": 80,
                "duration": 0.1159091,
                "tempo": 120.0
            },
            {
                "start_time": 98.475,
                "end_time": 98.5931818,
                "pitch": 34,
                "velocity": 80,
                "duration": 0.1181818,
                "tempo": 120.0
            },
            {
                "start_time": 98.6090909,
                "end_time": 98.725,
                "pitch": 36,
                "velocity": 80,
                "duration": 0.1159091,
                "tempo": 120.0
            },
            {
                "start_time": 98.7431818,
                "end_time": 98.8613636,
                "pitch": 35,
                "velocity": 80,
                "duration": 0.1181818,
                "tempo": 120.0
            },
            {
                "start_time": 99.0159091,
                "end_time": 99.2704545,
                "pitch": 35,
                "velocity": 80,
                "duration": 0.2545455,
                "tempo": 120.0
            },
            {
                "start_time": 99.2863636,
                "end_time": 99.4045455,
                "pitch": 35,
                "velocity": 80,
                "duration": 0.1181818,
                "tempo": 120.0
            },
            {
                "start_time": 99.4204545,
                "end_time": 99.5363636,
                "pitch": 47,
                "velocity": 80,
                "duration": 0.1159091,
                "tempo": 120.0
            },
            {
                "start_time": 99.5545455,
                "end_time": 99.6704545,
                "pitch": 35,
                "velocity": 80,
                "duration": 0.1159091,
                "tempo": 120.0
            },
            {
                "start_time": 99.6886364,
                "end_time": 99.8045455,
                "pitch": 35,
                "velocity": 80,
                "duration": 0.1159091,
                "tempo": 120.0
            },
            {
                "start_time": 99.8227273,
                "end_time": 99.9386364,
                "pitch": 40,
                "velocity": 80,
                "duration": 0.1159091,
                "tempo": 120.0
            },
            {
                "start_time": 99.9545455,
                "end_time": 100.0704545,
                "pitch": 42,
                "velocity": 80,
                "duration": 0.1159091,
                "tempo": 120.0
            },
            {
                "start_time": 100.0886364,
                "end_time": 100.2045455,
                "pitch": 35,
                "velocity": 80,
                "duration": 0.1159091,
                "tempo": 120.0
            },
            {
                "start_time": 100.2227273,
                "end_time": 100.4727273,
                "pitch": 35,
                "velocity": 80,
                "duration": 0.25,
                "tempo": 120.0
            },
            {
                "start_time": 100.4886364,
                "end_time": 100.6068182,
                "pitch": 35,
                "velocity": 80,
                "duration": 0.1181818,
                "tempo": 120.0
            },
            {
                "start_time": 100.6227273,
                "end_time": 100.7386364,
                "pitch": 35,
                "velocity": 80,
                "duration": 0.1159091,
                "tempo": 120.0
            },
            {
                "start_time": 100.7568182,
                "end_time": 100.8727273,
                "pitch": 47,
                "velocity": 80,
                "duration": 0.1159091,
                "tempo": 120.0
            },
            {
                "start_time": 100.8909091,
                "end_time": 101.0090909,
                "pitch": 35,
                "velocity": 80,
                "duration": 0.1181818,
                "tempo": 120.0
            },
            {
                "start_time": 101.1613636,
                "end_time": 101.4159091,
                "pitch": 35,
                "velocity": 80,
                "duration": 0.2545455,
                "tempo": 120.0
            },
            {
                "start_time": 101.4340909,
                "end_time": 101.5522727,
                "pitch": 35,
                "velocity": 80,
                "duration": 0.1181818,
                "tempo": 120.0
            },
            {
                "start_time": 101.5704545,
                "end_time": 101.6886364,
                "pitch": 47,
                "velocity": 80,
                "duration": 0.1181818,
                "tempo": 120.0
            },
            {
                "start_time": 101.7068182,
                "end_time": 101.825,
                "pitch": 35,
                "velocity": 80,
                "duration": 0.1181818,
                "tempo": 120.0
            },
            {
                "start_time": 101.8431818,
                "end_time": 101.9613636,
                "pitch": 35,
                "velocity": 80,
                "duration": 0.1181818,
                "tempo": 120.0
            },
            {
                "start_time": 101.9772727,
                "end_time": 102.2295455,
                "pitch": 35,
                "velocity": 80,
                "duration": 0.2522727,
                "tempo": 120.0
            },
            {
                "start_time": 102.2454545,
                "end_time": 102.3613636,
                "pitch": 35,
                "velocity": 80,
                "duration": 0.1159091,
                "tempo": 120.0
            },
            {
                "start_time": 102.3795455,
                "end_time": 102.4954545,
                "pitch": 47,
                "velocity": 80,
                "duration": 0.1159091,
                "tempo": 120.0
            },
            {
                "start_time": 102.5136364,
                "end_time": 102.6295455,
                "pitch": 35,
                "velocity": 80,
                "duration": 0.1159091,
                "tempo": 120.0
            },
            {
                "start_time": 102.6454545,
                "end_time": 102.7636364,
                "pitch": 35,
                "velocity": 80,
                "duration": 0.1181818,
                "tempo": 120.0
            },
            {
                "start_time": 102.7795455,
                "end_time": 102.8954545,
                "pitch": 45,
                "velocity": 80,
                "duration": 0.1159091,
                "tempo": 120.0
            },
            {
                "start_time": 102.9136364,
                "end_time": 103.0295455,
                "pitch": 47,
                "velocity": 80,
                "duration": 0.1159091,
                "tempo": 120.0
            },
            {
                "start_time": 103.0477273,
                "end_time": 103.1636364,
                "pitch": 31,
                "velocity": 80,
                "duration": 0.1159091,
                "tempo": 120.0
            },
            {
                "start_time": 103.3136364,
                "end_time": 103.5636364,
                "pitch": 31,
                "velocity": 80,
                "duration": 0.25,
                "tempo": 120.0
            },
            {
                "start_time": 103.5818182,
                "end_time": 103.7,
                "pitch": 31,
                "velocity": 80,
                "duration": 0.1181818,
                "tempo": 120.0
            },
            {
                "start_time": 103.7181818,
                "end_time": 103.8363636,
                "pitch": 43,
                "velocity": 80,
                "duration": 0.1181818,
                "tempo": 120.0
            },
            {
                "start_time": 103.8545455,
                "end_time": 103.9727273,
                "pitch": 31,
                "velocity": 80,
                "duration": 0.1181818,
                "tempo": 120.0
            },
            {
                "start_time": 104.125,
                "end_time": 104.375,
                "pitch": 31,
                "velocity": 80,
                "duration": 0.25,
                "tempo": 120.0
            },
            {
                "start_time": 104.5272727,
                "end_time": 104.6431818,
                "pitch": 43,
                "velocity": 80,
                "duration": 0.1159091,
                "tempo": 120.0
            },
            {
                "start_time": 104.6590909,
                "end_time": 104.7772727,
                "pitch": 31,
                "velocity": 80,
                "duration": 0.1181818,
                "tempo": 120.0
            },
            {
                "start_time": 104.7931818,
                "end_time": 104.9090909,
                "pitch": 31,
                "velocity": 80,
                "duration": 0.1159091,
                "tempo": 120.0
            },
            {
                "start_time": 104.9272727,
                "end_time": 105.0431818,
                "pitch": 36,
                "velocity": 80,
                "duration": 0.1159091,
                "tempo": 120.0
            },
            {
                "start_time": 105.0613636,
                "end_time": 105.1772727,
                "pitch": 38,
                "velocity": 80,
                "duration": 0.1159091,
                "tempo": 120.0
            },
            {
                "start_time": 105.1954545,
                "end_time": 105.3113636,
                "pitch": 33,
                "velocity": 80,
                "duration": 0.1159091,
                "tempo": 120.0
            },
            {
                "start_time": 105.4613636,
                "end_time": 105.7113636,
                "pitch": 33,
                "velocity": 80,
                "duration": 0.25,
                "tempo": 120.0
            },
            {
                "start_time": 105.7295455,
                "end_time": 105.8477273,
                "pitch": 33,
                "velocity": 80,
                "duration": 0.1181818,
                "tempo": 120.0
            },
            {
                "start_time": 105.8636364,
                "end_time": 105.9840909,
                "pitch": 45,
                "velocity": 80,
                "duration": 0.1204545,
                "tempo": 120.0
            },
            {
                "start_time": 106.0,
                "end_time": 106.1181818,
                "pitch": 33,
                "velocity": 80,
                "duration": 0.1181818,
                "tempo": 120.0
            },
            {
                "start_time": 106.1363636,
                "end_time": 106.2545455,
                "pitch": 33,
                "velocity": 80,
                "duration": 0.1181818,
                "tempo": 120.0
            },
            {
                "start_time": 106.2727273,
                "end_time": 106.3886364,
                "pitch": 38,
                "velocity": 80,
                "duration": 0.1159091,
                "tempo": 120.0
            },
            {
                "start_time": 106.4068182,
                "end_time": 106.5227273,
                "pitch": 40,
                "velocity": 80,
                "duration": 0.1159091,
                "tempo": 120.0
            },
            {
                "start_time": 106.5386364,
                "end_time": 106.6568182,
                "pitch": 33,
                "velocity": 80,
                "duration": 0.1181818,
                "tempo": 120.0
            },
            {
                "start_time": 106.6727273,
                "end_time": 106.7909091,
                "pitch": 33,
                "velocity": 80,
                "duration": 0.1181818,
                "tempo": 120.0
            },
            {
                "start_time": 106.8068182,
                "end_time": 106.925,
                "pitch": 35,
                "velocity": 80,
                "duration": 0.1181818,
                "tempo": 120.0
            },
            {
                "start_time": 106.9431818,
                "end_time": 107.0613636,
                "pitch": 35,
                "velocity": 80,
                "duration": 0.1181818,
                "tempo": 120.0
            },
            {
                "start_time": 107.0795455,
                "end_time": 107.1977273,
                "pitch": 40,
                "velocity": 80,
                "duration": 0.1181818,
                "tempo": 120.0
            },
            {
                "start_time": 107.2136364,
                "end_time": 107.3340909,
                "pitch": 42,
                "velocity": 80,
                "duration": 0.1204545,
                "tempo": 120.0
            },
            {
                "start_time": 107.35,
                "end_time": 107.4681818,
                "pitch": 35,
                "velocity": 80,
                "duration": 0.1181818,
                "tempo": 120.0
            },
            {
                "start_time": 107.6181818,
                "end_time": 107.8681818,
                "pitch": 35,
                "velocity": 80,
                "duration": 0.25,
                "tempo": 120.0
            },
            {
                "start_time": 107.8840909,
                "end_time": 108.0045455,
                "pitch": 35,
                "velocity": 80,
                "duration": 0.1204545,
                "tempo": 120.0
            },
            {
                "start_time": 108.0204545,
                "end_time": 108.1386364,
                "pitch": 47,
                "velocity": 80,
                "duration": 0.1181818,
                "tempo": 120.0
            },
            {
                "start_time": 108.1568182,
                "end_time": 108.275,
                "pitch": 35,
                "velocity": 80,
                "duration": 0.1181818,
                "tempo": 120.0
            },
            {
                "start_time": 108.2931818,
                "end_time": 108.4113636,
                "pitch": 35,
                "velocity": 80,
                "duration": 0.1181818,
                "tempo": 120.0
            },
            {
                "start_time": 108.4295455,
                "end_time": 108.5454545,
                "pitch": 40,
                "velocity": 80,
                "duration": 0.1159091,
                "tempo": 120.0
            },
            {
                "start_time": 108.5636364,
                "end_time": 108.6795455,
                "pitch": 42,
                "velocity": 80,
                "duration": 0.1159091,
                "tempo": 120.0
            },
            {
                "start_time": 108.8295455,
                "end_time": 108.9454545,
                "pitch": 38,
                "velocity": 80,
                "duration": 0.1159091,
                "tempo": 120.0
            },
            {
                "start_time": 108.9636364,
                "end_time": 109.0795455,
                "pitch": 40,
                "velocity": 80,
                "duration": 0.1159091,
                "tempo": 120.0
            },
            {
                "start_time": 109.2318182,
                "end_time": 109.3477273,
                "pitch": 33,
                "velocity": 80,
                "duration": 0.1159091,
                "tempo": 120.0
            },
            {
                "start_time": 109.3636364,
                "end_time": 109.4818182,
                "pitch": 35,
                "velocity": 80,
                "duration": 0.1181818,
                "tempo": 120.0
            },
            {
                "start_time": 109.4977273,
                "end_time": 109.6136364,
                "pitch": 35,
                "velocity": 80,
                "duration": 0.1159091,
                "tempo": 120.0
            },
            {
                "start_time": 109.7659091,
                "end_time": 110.0159091,
                "pitch": 35,
                "velocity": 80,
                "duration": 0.25,
                "tempo": 120.0
            },
            {
                "start_time": 110.0318182,
                "end_time": 110.15,
                "pitch": 35,
                "velocity": 80,
                "duration": 0.1181818,
                "tempo": 120.0
            },
            {
                "start_time": 110.1681818,
                "end_time": 110.2863636,
                "pitch": 47,
                "velocity": 80,
                "duration": 0.1181818,
                "tempo": 120.0
            },
            {
                "start_time": 110.3045455,
                "end_time": 110.4227273,
                "pitch": 35,
                "velocity": 80,
                "duration": 0.1181818,
                "tempo": 120.0
            },
            {
                "start_time": 110.4409091,
                "end_time": 110.5590909,
                "pitch": 35,
                "velocity": 80,
                "duration": 0.1181818,
                "tempo": 120.0
            },
            {
                "start_time": 110.5772727,
                "end_time": 110.8272727,
                "pitch": 35,
                "velocity": 80,
                "duration": 0.25,
                "tempo": 120.0
            },
            {
                "start_time": 110.8431818,
                "end_time": 111.0931818,
                "pitch": 47,
                "velocity": 80,
                "duration": 0.25,
                "tempo": 120.0
            },
            {
                "start_time": 111.1113636,
                "end_time": 111.3613636,
                "pitch": 35,
                "velocity": 80,
                "duration": 0.25,
                "tempo": 120.0
            },
            {
                "start_time": 111.3772727,
                "end_time": 111.6272727,
                "pitch": 47,
                "velocity": 80,
                "duration": 0.25,
                "tempo": 120.0
            },
            {
                "start_time": 111.6454545,
                "end_time": 111.9,
                "pitch": 28,
                "velocity": 80,
                "duration": 0.2545455,
                "tempo": 120.0
            },
            {
                "start_time": 111.9181818,
                "end_time": 112.1727273,
                "pitch": 40,
                "velocity": 80,
                "duration": 0.2545455,
                "tempo": 120.0
            },
            {
                "start_time": 112.1886364,
                "end_time": 112.4386364,
                "pitch": 28,
                "velocity": 80,
                "duration": 0.25,
                "tempo": 120.0
            },
            {
                "start_time": 112.4568182,
                "end_time": 112.7068182,
                "pitch": 40,
                "velocity": 80,
                "duration": 0.25,
                "tempo": 120.0
            },
            {
                "start_time": 112.7227273,
                "end_time": 112.9727273,
                "pitch": 28,
                "velocity": 80,
                "duration": 0.25,
                "tempo": 120.0
            },
            {
                "start_time": 112.9909091,
                "end_time": 113.2409091,
                "pitch": 40,
                "velocity": 80,
                "duration": 0.25,
                "tempo": 120.0
            },
            {
                "start_time": 113.2590909,
                "end_time": 113.5113636,
                "pitch": 28,
                "velocity": 80,
                "duration": 0.2522727,
                "tempo": 120.0
            },
            {
                "start_time": 113.5295455,
                "end_time": 113.7840909,
                "pitch": 40,
                "velocity": 80,
                "duration": 0.2545455,
                "tempo": 120.0
            },
            {
                "start_time": 113.8022727,
                "end_time": 114.0522727,
                "pitch": 31,
                "velocity": 80,
                "duration": 0.25,
                "tempo": 120.0
            },
            {
                "start_time": 114.0681818,
                "end_time": 114.3181818,
                "pitch": 43,
                "velocity": 80,
                "duration": 0.25,
                "tempo": 120.0
            },
            {
                "start_time": 114.3363636,
                "end_time": 114.5909091,
                "pitch": 31,
                "velocity": 80,
                "duration": 0.2545455,
                "tempo": 120.0
            },
            {
                "start_time": 114.6068182,
                "end_time": 114.8636364,
                "pitch": 43,
                "velocity": 80,
                "duration": 0.2568182,
                "tempo": 120.0
            },
            {
                "start_time": 114.8795455,
                "end_time": 115.125,
                "pitch": 31,
                "velocity": 80,
                "duration": 0.2454545,
                "tempo": 120.0
            },
            {
                "start_time": 115.1431818,
                "end_time": 115.3886364,
                "pitch": 43,
                "velocity": 80,
                "duration": 0.2454545,
                "tempo": 120.0
            },
            {
                "start_time": 115.4045455,
                "end_time": 115.6590909,
                "pitch": 31,
                "velocity": 80,
                "duration": 0.2545455,
                "tempo": 120.0
            },
            {
                "start_time": 115.6772727,
                "end_time": 115.9318182,
                "pitch": 43,
                "velocity": 80,
                "duration": 0.2545455,
                "tempo": 120.0
            },
            {
                "start_time": 115.95,
                "end_time": 116.2,
                "pitch": 28,
                "velocity": 80,
                "duration": 0.25,
                "tempo": 120.0
            },
            {
                "start_time": 116.2159091,
                "end_time": 116.4659091,
                "pitch": 40,
                "velocity": 80,
                "duration": 0.25,
                "tempo": 120.0
            },
            {
                "start_time": 116.4840909,
                "end_time": 116.7386364,
                "pitch": 28,
                "velocity": 80,
                "duration": 0.2545455,
                "tempo": 120.0
            },
            {
                "start_time": 116.7545455,
                "end_time": 117.0090909,
                "pitch": 40,
                "velocity": 80,
                "duration": 0.2545455,
                "tempo": 120.0
            },
            {
                "start_time": 117.0272727,
                "end_time": 117.2772727,
                "pitch": 28,
                "velocity": 80,
                "duration": 0.25,
                "tempo": 120.0
            },
            {
                "start_time": 117.2954545,
                "end_time": 117.5454545,
                "pitch": 40,
                "velocity": 80,
                "duration": 0.25,
                "tempo": 120.0
            },
            {
                "start_time": 117.5613636,
                "end_time": 117.8113636,
                "pitch": 28,
                "velocity": 80,
                "duration": 0.25,
                "tempo": 120.0
            },
            {
                "start_time": 117.8295455,
                "end_time": 118.0795455,
                "pitch": 40,
                "velocity": 80,
                "duration": 0.25,
                "tempo": 120.0
            },
            {
                "start_time": 118.0954545,
                "end_time": 118.35,
                "pitch": 31,
                "velocity": 80,
                "duration": 0.2545455,
                "tempo": 120.0
            },
            {
                "start_time": 118.3681818,
                "end_time": 118.6227273,
                "pitch": 43,
                "velocity": 80,
                "duration": 0.2545455,
                "tempo": 120.0
            },
            {
                "start_time": 118.6409091,
                "end_time": 118.8909091,
                "pitch": 31,
                "velocity": 80,
                "duration": 0.25,
                "tempo": 120.0
            },
            {
                "start_time": 118.9068182,
                "end_time": 119.1568182,
                "pitch": 43,
                "velocity": 80,
                "duration": 0.25,
                "tempo": 120.0
            },
            {
                "start_time": 119.175,
                "end_time": 119.425,
                "pitch": 31,
                "velocity": 80,
                "duration": 0.25,
                "tempo": 120.0
            },
            {
                "start_time": 119.4409091,
                "end_time": 119.6909091,
                "pitch": 43,
                "velocity": 80,
                "duration": 0.25,
                "tempo": 120.0
            },
            {
                "start_time": 119.7090909,
                "end_time": 119.9636364,
                "pitch": 31,
                "velocity": 80,
                "duration": 0.2545455,
                "tempo": 120.0
            },
            {
                "start_time": 119.9795455,
                "end_time": 120.2363636,
                "pitch": 43,
                "velocity": 80,
                "duration": 0.2568182,
                "tempo": 120.0
            },
            {
                "start_time": 120.2522727,
                "end_time": 120.5022727,
                "pitch": 28,
                "velocity": 80,
                "duration": 0.25,
                "tempo": 120.0
            },
            {
                "start_time": 120.5204545,
                "end_time": 120.7704545,
                "pitch": 40,
                "velocity": 80,
                "duration": 0.25,
                "tempo": 120.0
            },
            {
                "start_time": 120.7863636,
                "end_time": 121.0363636,
                "pitch": 28,
                "velocity": 80,
                "duration": 0.25,
                "tempo": 120.0
            },
            {
                "start_time": 121.0545455,
                "end_time": 121.3045455,
                "pitch": 40,
                "velocity": 80,
                "duration": 0.25,
                "tempo": 120.0
            },
            {
                "start_time": 121.3227273,
                "end_time": 121.575,
                "pitch": 28,
                "velocity": 80,
                "duration": 0.2522727,
                "tempo": 120.0
            },
            {
                "start_time": 121.5931818,
                "end_time": 121.8477273,
                "pitch": 40,
                "velocity": 80,
                "duration": 0.2545455,
                "tempo": 120.0
            },
            {
                "start_time": 121.8659091,
                "end_time": 122.1159091,
                "pitch": 28,
                "velocity": 80,
                "duration": 0.25,
                "tempo": 120.0
            },
            {
                "start_time": 122.1318182,
                "end_time": 122.3818182,
                "pitch": 40,
                "velocity": 80,
                "duration": 0.25,
                "tempo": 120.0
            },
            {
                "start_time": 122.4,
                "end_time": 122.65,
                "pitch": 31,
                "velocity": 80,
                "duration": 0.25,
                "tempo": 120.0
            },
            {
                "start_time": 122.6659091,
                "end_time": 122.9181818,
                "pitch": 43,
                "velocity": 80,
                "duration": 0.2522727,
                "tempo": 120.0
            },
            {
                "start_time": 122.9340909,
                "end_time": 123.1886364,
                "pitch": 31,
                "velocity": 80,
                "duration": 0.2545455,
                "tempo": 120.0
            },
            {
                "start_time": 123.2068182,
                "end_time": 123.4613636,
                "pitch": 43,
                "velocity": 80,
                "duration": 0.2545455,
                "tempo": 120.0
            },
            {
                "start_time": 123.4772727,
                "end_time": 123.7272727,
                "pitch": 31,
                "velocity": 80,
                "duration": 0.25,
                "tempo": 120.0
            },
            {
                "start_time": 123.7454545,
                "end_time": 123.9954545,
                "pitch": 43,
                "velocity": 80,
                "duration": 0.25,
                "tempo": 120.0
            },
            {
                "start_time": 124.0113636,
                "end_time": 124.2636364,
                "pitch": 31,
                "velocity": 80,
                "duration": 0.2522727,
                "tempo": 120.0
            },
            {
                "start_time": 124.2795455,
                "end_time": 124.5295455,
                "pitch": 43,
                "velocity": 80,
                "duration": 0.25,
                "tempo": 120.0
            },
            {
                "start_time": 124.5477273,
                "end_time": 124.8022727,
                "pitch": 28,
                "velocity": 80,
                "duration": 0.2545455,
                "tempo": 120.0
            },
            {
                "start_time": 124.8181818,
                "end_time": 125.0727273,
                "pitch": 40,
                "velocity": 80,
                "duration": 0.2545455,
                "tempo": 120.0
            },
            {
                "start_time": 125.0909091,
                "end_time": 125.3409091,
                "pitch": 28,
                "velocity": 80,
                "duration": 0.25,
                "tempo": 120.0
            },
            {
                "start_time": 125.3568182,
                "end_time": 125.6090909,
                "pitch": 40,
                "velocity": 80,
                "duration": 0.2522727,
                "tempo": 120.0
            },
            {
                "start_time": 125.625,
                "end_time": 125.875,
                "pitch": 28,
                "velocity": 80,
                "duration": 0.25,
                "tempo": 120.0
            },
            {
                "start_time": 125.8931818,
                "end_time": 126.1431818,
                "pitch": 40,
                "velocity": 80,
                "duration": 0.25,
                "tempo": 120.0
            },
            {
                "start_time": 126.1590909,
                "end_time": 126.4136364,
                "pitch": 28,
                "velocity": 80,
                "duration": 0.2545455,
                "tempo": 120.0
            },
            {
                "start_time": 126.4318182,
                "end_time": 126.6863636,
                "pitch": 40,
                "velocity": 80,
                "duration": 0.2545455,
                "tempo": 120.0
            },
            {
                "start_time": 126.7045455,
                "end_time": 126.9545455,
                "pitch": 31,
                "velocity": 80,
                "duration": 0.25,
                "tempo": 120.0
            },
            {
                "start_time": 126.9704545,
                "end_time": 127.2204545,
                "pitch": 43,
                "velocity": 80,
                "duration": 0.25,
                "tempo": 120.0
            },
            {
                "start_time": 127.2386364,
                "end_time": 127.4886364,
                "pitch": 31,
                "velocity": 80,
                "duration": 0.25,
                "tempo": 120.0
            },
            {
                "start_time": 127.5045455,
                "end_time": 127.7545455,
                "pitch": 43,
                "velocity": 80,
                "duration": 0.25,
                "tempo": 120.0
            },
            {
                "start_time": 127.7727273,
                "end_time": 128.0272727,
                "pitch": 31,
                "velocity": 80,
                "duration": 0.2545455,
                "tempo": 120.0
            },
            {
                "start_time": 128.0454545,
                "end_time": 128.3,
                "pitch": 43,
                "velocity": 80,
                "duration": 0.2545455,
                "tempo": 120.0
            },
            {
                "start_time": 128.3159091,
                "end_time": 128.5659091,
                "pitch": 31,
                "velocity": 80,
                "duration": 0.25,
                "tempo": 120.0
            },
            {
                "start_time": 128.5840909,
                "end_time": 128.8340909,
                "pitch": 43,
                "velocity": 80,
                "duration": 0.25,
                "tempo": 120.0
            },
            {
                "start_time": 128.85,
                "end_time": 129.2340909,
                "pitch": 28,
                "velocity": 80,
                "duration": 0.3840909,
                "tempo": 120.0
            },
            {
                "start_time": 129.2522727,
                "end_time": 129.3681818,
                "pitch": 28,
                "velocity": 80,
                "duration": 0.1159091,
                "tempo": 120.0
            },
            {
                "start_time": 133.1454545,
                "end_time": 133.5295455,
                "pitch": 28,
                "velocity": 80,
                "duration": 0.3840909,
                "tempo": 120.0
            },
            {
                "start_time": 133.5454545,
                "end_time": 133.6613636,
                "pitch": 28,
                "velocity": 80,
                "duration": 0.1159091,
                "tempo": 120.0
            },
            {
                "start_time": 133.8159091,
                "end_time": 133.9340909,
                "pitch": 28,
                "velocity": 80,
                "duration": 0.1181818,
                "tempo": 120.0
            },
            {
                "start_time": 137.4477273,
                "end_time": 137.8318182,
                "pitch": 28,
                "velocity": 80,
                "duration": 0.3840909,
                "tempo": 120.0
            },
            {
                "start_time": 137.85,
                "end_time": 137.9659091,
                "pitch": 28,
                "velocity": 80,
                "duration": 0.1159091,
                "tempo": 120.0
            },
            {
                "start_time": 138.1204545,
                "end_time": 138.2409091,
                "pitch": 28,
                "velocity": 80,
                "duration": 0.1204545,
                "tempo": 120.0
            },
            {
                "start_time": 138.3977273,
                "end_time": 138.5181818,
                "pitch": 28,
                "velocity": 80,
                "duration": 0.1204545,
                "tempo": 120.0
            },
            {
                "start_time": 141.7522727,
                "end_time": 142.1363636,
                "pitch": 28,
                "velocity": 80,
                "duration": 0.3840909,
                "tempo": 120.0
            },
            {
                "start_time": 142.1545455,
                "end_time": 142.2704545,
                "pitch": 28,
                "velocity": 80,
                "duration": 0.1159091,
                "tempo": 120.0
            },
            {
                "start_time": 142.4181818,
                "end_time": 142.5318182,
                "pitch": 28,
                "velocity": 80,
                "duration": 0.1136364,
                "tempo": 120.0
            },
            {
                "start_time": 142.6818182,
                "end_time": 142.7954545,
                "pitch": 28,
                "velocity": 80,
                "duration": 0.1136364,
                "tempo": 120.0
            },
            {
                "start_time": 143.8909091,
                "end_time": 144.4181818,
                "pitch": 25,
                "velocity": 101,
                "duration": 0.5272727,
                "tempo": 120.0
            },
            {
                "start_time": 144.8431818,
                "end_time": 144.9613636,
                "pitch": 47,
                "velocity": 101,
                "duration": 0.1181818,
                "tempo": 120.0
            },
            {
                "start_time": 144.9795455,
                "end_time": 145.0954545,
                "pitch": 49,
                "velocity": 101,
                "duration": 0.1159091,
                "tempo": 120.0
            },
            {
                "start_time": 145.1136364,
                "end_time": 145.2295455,
                "pitch": 42,
                "velocity": 101,
                "duration": 0.1159091,
                "tempo": 120.0
            },
            {
                "start_time": 145.2454545,
                "end_time": 145.3636364,
                "pitch": 42,
                "velocity": 101,
                "duration": 0.1181818,
                "tempo": 120.0
            },
            {
                "start_time": 145.3795455,
                "end_time": 145.4954545,
                "pitch": 44,
                "velocity": 101,
                "duration": 0.1159091,
                "tempo": 120.0
            },
            {
                "start_time": 145.5136364,
                "end_time": 145.6318182,
                "pitch": 40,
                "velocity": 101,
                "duration": 0.1181818,
                "tempo": 120.0
            },
            {
                "start_time": 145.65,
                "end_time": 145.7681818,
                "pitch": 42,
                "velocity": 101,
                "duration": 0.1181818,
                "tempo": 120.0
            },
            {
                "start_time": 145.7863636,
                "end_time": 145.9045455,
                "pitch": 35,
                "velocity": 101,
                "duration": 0.1181818,
                "tempo": 120.0
            },
            {
                "start_time": 145.9204545,
                "end_time": 146.0409091,
                "pitch": 37,
                "velocity": 101,
                "duration": 0.1204545,
                "tempo": 120.0
            },
            {
                "start_time": 146.4590909,
                "end_time": 146.575,
                "pitch": 40,
                "velocity": 101,
                "duration": 0.1159091,
                "tempo": 120.0
            },
            {
                "start_time": 146.5909091,
                "end_time": 146.7090909,
                "pitch": 25,
                "velocity": 101,
                "duration": 0.1181818,
                "tempo": 120.0
            },
            {
                "start_time": 146.7272727,
                "end_time": 146.8454545,
                "pitch": 25,
                "velocity": 101,
                "duration": 0.1181818,
                "tempo": 120.0
            },
            {
                "start_time": 146.8636364,
                "end_time": 146.9818182,
                "pitch": 35,
                "velocity": 101,
                "duration": 0.1181818,
                "tempo": 120.0
            },
            {
                "start_time": 147.0,
                "end_time": 147.1181818,
                "pitch": 37,
                "velocity": 101,
                "duration": 0.1181818,
                "tempo": 120.0
            },
            {
                "start_time": 147.1363636,
                "end_time": 147.2522727,
                "pitch": 30,
                "velocity": 101,
                "duration": 0.1159091,
                "tempo": 120.0
            },
            {
                "start_time": 147.2704545,
                "end_time": 147.3863636,
                "pitch": 30,
                "velocity": 101,
                "duration": 0.1159091,
                "tempo": 120.0
            },
            {
                "start_time": 147.4022727,
                "end_time": 147.5204545,
                "pitch": 32,
                "velocity": 101,
                "duration": 0.1181818,
                "tempo": 120.0
            },
            {
                "start_time": 147.5363636,
                "end_time": 147.6522727,
                "pitch": 35,
                "velocity": 101,
                "duration": 0.1159091,
                "tempo": 120.0
            },
            {
                "start_time": 147.6704545,
                "end_time": 147.7863636,
                "pitch": 35,
                "velocity": 101,
                "duration": 0.1159091,
                "tempo": 120.0
            },
            {
                "start_time": 147.8045455,
                "end_time": 147.9204545,
                "pitch": 37,
                "velocity": 101,
                "duration": 0.1159091,
                "tempo": 120.0
            },
            {
                "start_time": 147.9363636,
                "end_time": 148.0545455,
                "pitch": 40,
                "velocity": 101,
                "duration": 0.1181818,
                "tempo": 120.0
            },
            {
                "start_time": 148.0704545,
                "end_time": 148.1863636,
                "pitch": 42,
                "velocity": 101,
                "duration": 0.1159091,
                "tempo": 120.0
            },
            {
                "start_time": 148.2045455,
                "end_time": 148.3227273,
                "pitch": 34,
                "velocity": 101,
                "duration": 0.1181818,
                "tempo": 120.0
            },
            {
                "start_time": 148.3409091,
                "end_time": 148.4590909,
                "pitch": 35,
                "velocity": 101,
                "duration": 0.1181818,
                "tempo": 120.0
            },
            {
                "start_time": 148.4772727,
                "end_time": 148.5954545,
                "pitch": 35,
                "velocity": 101,
                "duration": 0.1181818,
                "tempo": 120.0
            },
            {
                "start_time": 148.6113636,
                "end_time": 148.7318182,
                "pitch": 47,
                "velocity": 101,
                "duration": 0.1204545,
                "tempo": 120.0
            },
            {
                "start_time": 148.7477273,
                "end_time": 148.8659091,
                "pitch": 35,
                "velocity": 101,
                "duration": 0.1181818,
                "tempo": 120.0
            },
            {
                "start_time": 148.8818182,
                "end_time": 148.9977273,
                "pitch": 35,
                "velocity": 101,
                "duration": 0.1159091,
                "tempo": 120.0
            },
            {
                "start_time": 149.0159091,
                "end_time": 149.1318182,
                "pitch": 45,
                "velocity": 101,
                "duration": 0.1159091,
                "tempo": 120.0
            },
            {
                "start_time": 149.15,
                "end_time": 149.2659091,
                "pitch": 47,
                "velocity": 101,
                "duration": 0.1159091,
                "tempo": 120.0
            },
            {
                "start_time": 149.2818182,
                "end_time": 149.4,
                "pitch": 40,
                "velocity": 101,
                "duration": 0.1181818,
                "tempo": 120.0
            },
            {
                "start_time": 149.4159091,
                "end_time": 149.5318182,
                "pitch": 40,
                "velocity": 101,
                "duration": 0.1159091,
                "tempo": 120.0
            },
            {
                "start_time": 149.55,
                "end_time": 149.6659091,
                "pitch": 42,
                "velocity": 101,
                "duration": 0.1159091,
                "tempo": 120.0
            },
            {
                "start_time": 149.6840909,
                "end_time": 149.8,
                "pitch": 35,
                "velocity": 101,
                "duration": 0.1159091,
                "tempo": 120.0
            },
            {
                "start_time": 149.8181818,
                "end_time": 149.9363636,
                "pitch": 35,
                "velocity": 101,
                "duration": 0.1181818,
                "tempo": 120.0
            },
            {
                "start_time": 149.9522727,
                "end_time": 150.0727273,
                "pitch": 37,
                "velocity": 101,
                "duration": 0.1204545,
                "tempo": 120.0
            },
            {
                "start_time": 150.0886364,
                "end_time": 150.2068182,
                "pitch": 33,
                "velocity": 101,
                "duration": 0.1181818,
                "tempo": 120.0
            },
            {
                "start_time": 150.225,
                "end_time": 150.3431818,
                "pitch": 35,
                "velocity": 101,
                "duration": 0.1181818,
                "tempo": 120.0
            },
            {
                "start_time": 150.3613636,
                "end_time": 150.6113636,
                "pitch": 28,
                "velocity": 101,
                "duration": 0.25,
                "tempo": 120.0
            },
            {
                "start_time": 150.6295455,
                "end_time": 150.7454545,
                "pitch": 28,
                "velocity": 101,
                "duration": 0.1159091,
                "tempo": 120.0
            },
            {
                "start_time": 150.7613636,
                "end_time": 150.8795455,
                "pitch": 40,
                "velocity": 101,
                "duration": 0.1181818,
                "tempo": 120.0
            },
            {
                "start_time": 150.8954545,
                "end_time": 151.0113636,
                "pitch": 28,
                "velocity": 101,
                "duration": 0.1159091,
                "tempo": 120.0
            },
            {
                "start_time": 151.0295455,
                "end_time": 151.1454545,
                "pitch": 28,
                "velocity": 101,
                "duration": 0.1159091,
                "tempo": 120.0
            },
            {
                "start_time": 151.1636364,
                "end_time": 151.4136364,
                "pitch": 38,
                "velocity": 101,
                "duration": 0.25,
                "tempo": 120.0
            },
            {
                "start_time": 151.4295455,
                "end_time": 151.5477273,
                "pitch": 28,
                "velocity": 101,
                "duration": 0.1181818,
                "tempo": 120.0
            },
            {
                "start_time": 151.5659091,
                "end_time": 151.6840909,
                "pitch": 28,
                "velocity": 101,
                "duration": 0.1181818,
                "tempo": 120.0
            },
            {
                "start_time": 151.7022727,
                "end_time": 151.8204545,
                "pitch": 30,
                "velocity": 101,
                "duration": 0.1181818,
                "tempo": 120.0
            },
            {
                "start_time": 151.8386364,
                "end_time": 151.9568182,
                "pitch": 33,
                "velocity": 101,
                "duration": 0.1181818,
                "tempo": 120.0
            },
            {
                "start_time": 151.9727273,
                "end_time": 152.0909091,
                "pitch": 33,
                "velocity": 101,
                "duration": 0.1181818,
                "tempo": 120.0
            },
            {
                "start_time": 152.1068182,
                "end_time": 152.225,
                "pitch": 35,
                "velocity": 101,
                "duration": 0.1181818,
                "tempo": 120.0
            },
            {
                "start_time": 152.2409091,
                "end_time": 152.3568182,
                "pitch": 38,
                "velocity": 101,
                "duration": 0.1159091,
                "tempo": 120.0
            },
            {
                "start_time": 152.375,
                "end_time": 152.4909091,
                "pitch": 40,
                "velocity": 101,
                "duration": 0.1159091,
                "tempo": 120.0
            },
            {
                "start_time": 152.6409091,
                "end_time": 153.025,
                "pitch": 26,
                "velocity": 101,
                "duration": 0.3840909,
                "tempo": 120.0
            },
            {
                "start_time": 153.0431818,
                "end_time": 153.5590909,
                "pitch": 28,
                "velocity": 101,
                "duration": 0.5159091,
                "tempo": 120.0
            },
            {
                "start_time": 153.7136364,
                "end_time": 154.1045455,
                "pitch": 28,
                "velocity": 101,
                "duration": 0.3909091,
                "tempo": 120.0
            },
            {
                "start_time": 154.1204545,
                "end_time": 154.6386364,
                "pitch": 30,
                "velocity": 101,
                "duration": 0.5181818,
                "tempo": 120.0
            },
            {
                "start_time": 154.7886364,
                "end_time": 155.1727273,
                "pitch": 30,
                "velocity": 101,
                "duration": 0.3840909,
                "tempo": 120.0
            },
            {
                "start_time": 155.1909091,
                "end_time": 155.7159091,
                "pitch": 32,
                "velocity": 101,
                "duration": 0.525,
                "tempo": 120.0
            },
            {
                "start_time": 156.8022727,
                "end_time": 157.3295455,
                "pitch": 25,
                "velocity": 101,
                "duration": 0.5272727,
                "tempo": 120.0
            },
            {
                "start_time": 157.7477273,
                "end_time": 157.8636364,
                "pitch": 47,
                "velocity": 101,
                "duration": 0.1159091,
                "tempo": 120.0
            },
            {
                "start_time": 157.8818182,
                "end_time": 157.9977273,
                "pitch": 49,
                "velocity": 101,
                "duration": 0.1159091,
                "tempo": 120.0
            },
            {
                "start_time": 158.0136364,
                "end_time": 158.1318182,
                "pitch": 42,
                "velocity": 101,
                "duration": 0.1181818,
                "tempo": 120.0
            },
            {
                "start_time": 158.1477273,
                "end_time": 158.2636364,
                "pitch": 42,
                "velocity": 101,
                "duration": 0.1159091,
                "tempo": 120.0
            },
            {
                "start_time": 158.2818182,
                "end_time": 158.3977273,
                "pitch": 44,
                "velocity": 101,
                "duration": 0.1159091,
                "tempo": 120.0
            },
            {
                "start_time": 158.4159091,
                "end_time": 158.5340909,
                "pitch": 40,
                "velocity": 101,
                "duration": 0.1181818,
                "tempo": 120.0
            },
            {
                "start_time": 158.5522727,
                "end_time": 158.6704545,
                "pitch": 42,
                "velocity": 101,
                "duration": 0.1181818,
                "tempo": 120.0
            },
            {
                "start_time": 158.6863636,
                "end_time": 158.8068182,
                "pitch": 35,
                "velocity": 101,
                "duration": 0.1204545,
                "tempo": 120.0
            },
            {
                "start_time": 158.8227273,
                "end_time": 158.9409091,
                "pitch": 37,
                "velocity": 101,
                "duration": 0.1181818,
                "tempo": 120.0
            },
            {
                "start_time": 159.3590909,
                "end_time": 159.4772727,
                "pitch": 40,
                "velocity": 101,
                "duration": 0.1181818,
                "tempo": 120.0
            },
            {
                "start_time": 159.4931818,
                "end_time": 159.6090909,
                "pitch": 25,
                "velocity": 101,
                "duration": 0.1159091,
                "tempo": 120.0
            },
            {
                "start_time": 159.6272727,
                "end_time": 159.7431818,
                "pitch": 25,
                "velocity": 101,
                "duration": 0.1159091,
                "tempo": 120.0
            },
            {
                "start_time": 159.7613636,
                "end_time": 159.8772727,
                "pitch": 35,
                "velocity": 101,
                "duration": 0.1159091,
                "tempo": 120.0
            },
            {
                "start_time": 159.8954545,
                "end_time": 160.0113636,
                "pitch": 37,
                "velocity": 101,
                "duration": 0.1159091,
                "tempo": 120.0
            },
            {
                "start_time": 160.0272727,
                "end_time": 160.1454545,
                "pitch": 30,
                "velocity": 101,
                "duration": 0.1181818,
                "tempo": 120.0
            },
            {
                "start_time": 160.1636364,
                "end_time": 160.2818182,
                "pitch": 30,
                "velocity": 101,
                "duration": 0.1181818,
                "tempo": 120.0
            },
            {
                "start_time": 160.3,
                "end_time": 160.4181818,
                "pitch": 32,
                "velocity": 101,
                "duration": 0.1181818,
                "tempo": 120.0
            },
            {
                "start_time": 160.4363636,
                "end_time": 160.5545455,
                "pitch": 35,
                "velocity": 101,
                "duration": 0.1181818,
                "tempo": 120.0
            },
            {
                "start_time": 160.5727273,
                "end_time": 160.6886364,
                "pitch": 35,
                "velocity": 101,
                "duration": 0.1159091,
                "tempo": 120.0
            },
            {
                "start_time": 160.7045455,
                "end_time": 160.8227273,
                "pitch": 37,
                "velocity": 101,
                "duration": 0.1181818,
                "tempo": 120.0
            },
            {
                "start_time": 160.8386364,
                "end_time": 160.9545455,
                "pitch": 40,
                "velocity": 101,
                "duration": 0.1159091,
                "tempo": 120.0
            },
            {
                "start_time": 160.9727273,
                "end_time": 161.0886364,
                "pitch": 42,
                "velocity": 101,
                "duration": 0.1159091,
                "tempo": 120.0
            },
            {
                "start_time": 161.1068182,
                "end_time": 161.225,
                "pitch": 34,
                "velocity": 101,
                "duration": 0.1181818,
                "tempo": 120.0
            },
            {
                "start_time": 161.2409091,
                "end_time": 161.3613636,
                "pitch": 35,
                "velocity": 101,
                "duration": 0.1204545,
                "tempo": 120.0
            },
            {
                "start_time": 161.3772727,
                "end_time": 161.4977273,
                "pitch": 35,
                "velocity": 101,
                "duration": 0.1204545,
                "tempo": 120.0
            },
            {
                "start_time": 161.5136364,
                "end_time": 161.6318182,
                "pitch": 47,
                "velocity": 101,
                "duration": 0.1181818,
                "tempo": 120.0
            },
            {
                "start_time": 161.65,
                "end_time": 161.7659091,
                "pitch": 35,
                "velocity": 101,
                "duration": 0.1159091,
                "tempo": 120.0
            },
            {
                "start_time": 161.7840909,
                "end_time": 161.9,
                "pitch": 35,
                "velocity": 101,
                "duration": 0.1159091,
                "tempo": 120.0
            },
            {
                "start_time": 161.9181818,
                "end_time": 162.0340909,
                "pitch": 45,
                "velocity": 101,
                "duration": 0.1159091,
                "tempo": 120.0
            },
            {
                "start_time": 162.05,
                "end_time": 162.1681818,
                "pitch": 47,
                "velocity": 101,
                "duration": 0.1181818,
                "tempo": 120.0
            },
            {
                "start_time": 162.1840909,
                "end_time": 162.3,
                "pitch": 40,
                "velocity": 101,
                "duration": 0.1159091,
                "tempo": 120.0
            },
            {
                "start_time": 162.3181818,
                "end_time": 162.4340909,
                "pitch": 40,
                "velocity": 101,
                "duration": 0.1159091,
                "tempo": 120.0
            },
            {
                "start_time": 162.4522727,
                "end_time": 162.5681818,
                "pitch": 42,
                "velocity": 101,
                "duration": 0.1159091,
                "tempo": 120.0
            },
            {
                "start_time": 162.5863636,
                "end_time": 162.7022727,
                "pitch": 35,
                "velocity": 101,
                "duration": 0.1159091,
                "tempo": 120.0
            },
            {
                "start_time": 162.7181818,
                "end_time": 162.8363636,
                "pitch": 35,
                "velocity": 101,
                "duration": 0.1181818,
                "tempo": 120.0
            },
            {
                "start_time": 162.8545455,
                "end_time": 162.9727273,
                "pitch": 37,
                "velocity": 101,
                "duration": 0.1181818,
                "tempo": 120.0
            },
            {
                "start_time": 162.9909091,
                "end_time": 163.1090909,
                "pitch": 33,
                "velocity": 101,
                "duration": 0.1181818,
                "tempo": 120.0
            },
            {
                "start_time": 163.1272727,
                "end_time": 163.2454545,
                "pitch": 35,
                "velocity": 101,
                "duration": 0.1181818,
                "tempo": 120.0
            },
            {
                "start_time": 163.2636364,
                "end_time": 163.5136364,
                "pitch": 28,
                "velocity": 101,
                "duration": 0.25,
                "tempo": 120.0
            },
            {
                "start_time": 163.5295455,
                "end_time": 163.6477273,
                "pitch": 28,
                "velocity": 101,
                "duration": 0.1181818,
                "tempo": 120.0
            },
            {
                "start_time": 163.6636364,
                "end_time": 163.7795455,
                "pitch": 40,
                "velocity": 101,
                "duration": 0.1159091,
                "tempo": 120.0
            },
            {
                "start_time": 163.7977273,
                "end_time": 163.9136364,
                "pitch": 28,
                "velocity": 101,
                "duration": 0.1159091,
                "tempo": 120.0
            },
            {
                "start_time": 163.9318182,
                "end_time": 164.0477273,
                "pitch": 28,
                "velocity": 101,
                "duration": 0.1159091,
                "tempo": 120.0
            },
            {
                "start_time": 164.0636364,
                "end_time": 164.3136364,
                "pitch": 38,
                "velocity": 101,
                "duration": 0.25,
                "tempo": 120.0
            },
            {
                "start_time": 164.3318182,
                "end_time": 164.45,
                "pitch": 28,
                "velocity": 101,
                "duration": 0.1181818,
                "tempo": 120.0
            },
            {
                "start_time": 164.4681818,
                "end_time": 164.5863636,
                "pitch": 28,
                "velocity": 101,
                "duration": 0.1181818,
                "tempo": 120.0
            },
            {
                "start_time": 164.6045455,
                "end_time": 164.7227273,
                "pitch": 30,
                "velocity": 101,
                "duration": 0.1181818,
                "tempo": 120.0
            },
            {
                "start_time": 164.7386364,
                "end_time": 164.8590909,
                "pitch": 33,
                "velocity": 101,
                "duration": 0.1204545,
                "tempo": 120.0
            },
            {
                "start_time": 164.875,
                "end_time": 164.9931818,
                "pitch": 33,
                "velocity": 101,
                "duration": 0.1181818,
                "tempo": 120.0
            },
            {
                "start_time": 165.0090909,
                "end_time": 165.125,
                "pitch": 35,
                "velocity": 101,
                "duration": 0.1159091,
                "tempo": 120.0
            },
            {
                "start_time": 165.1431818,
                "end_time": 165.2590909,
                "pitch": 38,
                "velocity": 101,
                "duration": 0.1159091,
                "tempo": 120.0
            },
            {
                "start_time": 165.2772727,
                "end_time": 165.3931818,
                "pitch": 40,
                "velocity": 101,
                "duration": 0.1159091,
                "tempo": 120.0
            },
            {
                "start_time": 165.5431818,
                "end_time": 165.9272727,
                "pitch": 26,
                "velocity": 101,
                "duration": 0.3840909,
                "tempo": 120.0
            },
            {
                "start_time": 165.9454545,
                "end_time": 166.4613636,
                "pitch": 28,
                "velocity": 101,
                "duration": 0.5159091,
                "tempo": 120.0
            },
            {
                "start_time": 166.6159091,
                "end_time": 167.0045455,
                "pitch": 28,
                "velocity": 101,
                "duration": 0.3886364,
                "tempo": 120.0
            },
            {
                "start_time": 167.0227273,
                "end_time": 167.5409091,
                "pitch": 30,
                "velocity": 101,
                "duration": 0.5181818,
                "tempo": 120.0
            },
            {
                "start_time": 167.6931818,
                "end_time": 168.0840909,
                "pitch": 30,
                "velocity": 101,
                "duration": 0.3909091,
                "tempo": 120.0
            },
            {
                "start_time": 168.1022727,
                "end_time": 168.6181818,
                "pitch": 32,
                "velocity": 101,
                "duration": 0.5159091,
                "tempo": 120.0
            },
            {
                "start_time": 169.7045455,
                "end_time": 169.7068182,
                "pitch": 37,
                "velocity": 80,
                "duration": 0.0022727,
                "tempo": 120.0
            }
        ]
    }
}