{
    "mood": "angry",
    "instruments": {
        "Harpsichord": [
            {
                "start_time": 0.0,
                "end_time": 1.6227273,
                "pitch": 49,
                "velocity": 101,
                "duration": 1.6227273,
                "tempo": 120.0
            },
            {
                "start_time": 1.6409091,
                "end_time": 2.4340909,
                "pitch": 49,
                "velocity": 101,
                "duration": 0.7931818,
                "tempo": 120.0
            },
            {
                "start_time": 2.45,
                "end_time": 3.2340909,
                "pitch": 49,
                "velocity": 101,
                "duration": 0.7840909,
                "tempo": 120.0
            },
            {
                "start_time": 3.25,
                "end_time": 4.8318182,
                "pitch": 49,
                "velocity": 101,
                "duration": 1.5818182,
                "tempo": 120.0
            },
            {
                "start_time": 4.8477273,
                "end_time": 5.6431818,
                "pitch": 49,
                "velocity": 101,
                "duration": 0.7954545,
                "tempo": 120.0
            },
            {
                "start_time": 5.6590909,
                "end_time": 6.4454545,
                "pitch": 49,
                "velocity": 101,
                "duration": 0.7863636,
                "tempo": 120.0
            },
            {
                "start_time": 6.4613636,
                "end_time": 8.0454545,
                "pitch": 49,
                "velocity": 101,
                "duration": 1.5840909,
                "tempo": 120.0
            },
            {
                "start_time": 8.0613636,
                "end_time": 8.8590909,
                "pitch": 49,
                "velocity": 101,
                "duration": 0.7977273,
                "tempo": 120.0
            },
            {
                "start_time": 8.875,
                "end_time": 9.6636364,
                "pitch": 49,
                "velocity": 101,
                "duration": 0.7886364,
                "tempo": 120.0
            },
            {
                "start_time": 9.6818182,
                "end_time": 11.2613636,
                "pitch": 49,
                "velocity": 101,
                "duration": 1.5795455,
                "tempo": 120.0
            },
            {
                "start_time": 11.2795455,
                "end_time": 12.0659091,
                "pitch": 49,
                "velocity": 101,
                "duration": 0.7863636,
                "tempo": 120.0
            },
            {
                "start_time": 12.0818182,
                "end_time": 12.8772727,
                "pitch": 49,
                "velocity": 101,
                "duration": 0.7954545,
                "tempo": 120.0
            },
            {
                "start_time": 12.8954545,
                "end_time": 12.8977273,
                "pitch": 49,
                "velocity": 101,
                "duration": 0.0022727,
                "tempo": 120.0
            }
        ],
        "Acoustic Bass": [
            {
                "start_time": 0.0977273,
                "end_time": 0.1818182,
                "pitch": 49,
                "velocity": 101,
                "duration": 0.0840909,
                "tempo": 120.0
            },
            {
                "start_time": 0.1977273,
                "end_time": 0.2818182,
                "pitch": 37,
                "velocity": 101,
                "duration": 0.0840909,
                "tempo": 120.0
            },
            {
                "start_time": 0.2977273,
                "end_time": 0.3818182,
                "pitch": 59,
                "velocity": 101,
                "duration": 0.0840909,
                "tempo": 120.0
            },
            {
                "start_time": 0.5159091,
                "end_time": 0.6,
                "pitch": 59,
                "velocity": 101,
                "duration": 0.0840909,
                "tempo": 120.0
            },
            {
                "start_time": 0.6159091,
                "end_time": 0.8,
                "pitch": 61,
                "velocity": 101,
                "duration": 0.1840909,
                "tempo": 120.0
            },
            {
                "start_time": 0.8181818,
                "end_time": 1.0113636,
                "pitch": 37,
                "velocity": 101,
                "duration": 0.1931818,
                "tempo": 120.0
            },
            {
                "start_time": 1.0295455,
                "end_time": 1.1159091,
                "pitch": 37,
                "velocity": 101,
                "duration": 0.0863636,
                "tempo": 120.0
            },
            {
                "start_time": 1.1340909,
                "end_time": 1.3227273,
                "pitch": 37,
                "velocity": 101,
                "duration": 0.1886364,
                "tempo": 120.0
            },
            {
                "start_time": 1.3409091,
                "end_time": 1.4227273,
                "pitch": 37,
                "velocity": 101,
                "duration": 0.0818182,
                "tempo": 120.0
            },
            {
                "start_time": 1.4409091,
                "end_time": 1.5227273,
                "pitch": 47,
                "velocity": 101,
                "duration": 0.0818182,
                "tempo": 120.0
            },
            {
                "start_time": 1.5409091,
                "end_time": 1.6227273,
                "pitch": 49,
                "velocity": 101,
                "duration": 0.0818182,
                "tempo": 120.0
            },
            {
                "start_time": 1.6409091,
                "end_time": 1.725,
                "pitch": 37,
                "velocity": 101,
                "duration": 0.0840909,
                "tempo": 120.0
            },
            {
                "start_time": 1.7431818,
                "end_time": 1.8272727,
                "pitch": 37,
                "velocity": 101,
                "duration": 0.0840909,
                "tempo": 120.0
            },
            {
                "start_time": 1.8454545,
                "end_time": 2.0340909,
                "pitch": 37,
                "velocity": 101,
                "duration": 0.1886364,
                "tempo": 120.0
            },
            {
                "start_time": 2.05,
                "end_time": 2.1340909,
                "pitch": 37,
                "velocity": 101,
                "duration": 0.0840909,
                "tempo": 120.0
            },
            {
                "start_time": 2.15,
                "end_time": 2.2340909,
                "pitch": 47,
                "velocity": 101,
                "duration": 0.0840909,
                "tempo": 120.0
            },
            {
                "start_time": 2.25,
                "end_time": 2.3340909,
                "pitch": 49,
                "velocity": 101,
                "duration": 0.0840909,
                "tempo": 120.0
            },
            {
                "start_time": 2.35,
                "end_time": 2.4340909,
                "pitch": 37,
                "velocity": 101,
                "duration": 0.0840909,
                "tempo": 120.0
            },
            {
                "start_time": 2.4522727,
                "end_time": 2.6340909,
                "pitch": 37,
                "velocity": 101,
                "duration": 0.1818182,
                "tempo": 120.0
            },
            {
                "start_time": 2.65,
                "end_time": 2.7340909,
                "pitch": 37,
                "velocity": 101,
                "duration": 0.0840909,
                "tempo": 120.0
            },
            {
                "start_time": 2.75,
                "end_time": 2.8340909,
                "pitch": 37,
                "velocity": 101,
                "duration": 0.0840909,
                "tempo": 120.0
            },
            {
                "start_time": 2.85,
                "end_time": 2.9340909,
                "pitch": 49,
                "velocity": 101,
                "duration": 0.0840909,
                "tempo": 120.0
            },
            {
                "start_time": 2.95,
                "end_time": 3.0340909,
                "pitch": 37,
                "velocity": 101,
                "duration": 0.0840909,
                "tempo": 120.0
            },
            {
                "start_time": 3.05,
                "end_time": 3.1340909,
                "pitch": 37,
                "velocity": 101,
                "duration": 0.0840909,
                "tempo": 120.0
            },
            {
                "start_time": 3.15,
                "end_time": 3.2340909,
                "pitch": 49,
                "velocity": 101,
                "duration": 0.0840909,
                "tempo": 120.0
            },
            {
                "start_time": 3.2522727,
                "end_time": 3.3340909,
                "pitch": 47,
                "velocity": 101,
                "duration": 0.0818182,
                "tempo": 120.0
            },
            {
                "start_time": 3.3522727,
                "end_time": 3.4340909,
                "pitch": 49,
                "velocity": 101,
                "duration": 0.0818182,
                "tempo": 120.0
            },
            {
                "start_time": 3.4522727,
                "end_time": 3.5363636,
                "pitch": 37,
                "velocity": 101,
                "duration": 0.0840909,
                "tempo": 120.0
            },
            {
                "start_time": 3.5522727,
                "end_time": 3.6363636,
                "pitch": 59,
                "velocity": 101,
                "duration": 0.0840909,
                "tempo": 120.0
            },
            {
                "start_time": 3.7522727,
                "end_time": 3.8318182,
                "pitch": 59,
                "velocity": 101,
                "duration": 0.0795455,
                "tempo": 120.0
            },
            {
                "start_time": 3.85,
                "end_time": 4.0295455,
                "pitch": 61,
                "velocity": 101,
                "duration": 0.1795455,
                "tempo": 120.0
            },
            {
                "start_time": 4.0454545,
                "end_time": 4.2295455,
                "pitch": 37,
                "velocity": 101,
                "duration": 0.1840909,
                "tempo": 120.0
            },
            {
                "start_time": 4.2454545,
                "end_time": 4.3295455,
                "pitch": 37,
                "velocity": 101,
                "duration": 0.0840909,
                "tempo": 120.0
            },
            {
                "start_time": 4.3454545,
                "end_time": 4.5295455,
                "pitch": 37,
                "velocity": 101,
                "duration": 0.1840909,
                "tempo": 120.0
            },
            {
                "start_time": 4.5454545,
                "end_time": 4.6295455,
                "pitch": 37,
                "velocity": 101,
                "duration": 0.0840909,
                "tempo": 120.0
            },
            {
                "start_time": 4.6477273,
                "end_time": 4.7318182,
                "pitch": 47,
                "velocity": 101,
                "duration": 0.0840909,
                "tempo": 120.0
            },
            {
                "start_time": 4.7477273,
                "end_time": 4.8318182,
                "pitch": 49,
                "velocity": 101,
                "duration": 0.0840909,
                "tempo": 120.0
            },
            {
                "start_time": 4.8477273,
                "end_time": 4.9340909,
                "pitch": 37,
                "velocity": 101,
                "duration": 0.0863636,
                "tempo": 120.0
            },
            {
                "start_time": 4.95,
                "end_time": 5.0363636,
                "pitch": 37,
                "velocity": 101,
                "duration": 0.0863636,
                "tempo": 120.0
            },
            {
                "start_time": 5.0545455,
                "end_time": 5.2409091,
                "pitch": 37,
                "velocity": 101,
                "duration": 0.1863636,
                "tempo": 120.0
            },
            {
                "start_time": 5.2590909,
                "end_time": 5.3431818,
                "pitch": 37,
                "velocity": 101,
                "duration": 0.0840909,
                "tempo": 120.0
            },
            {
                "start_time": 5.3590909,
                "end_time": 5.4431818,
                "pitch": 47,
                "velocity": 101,
                "duration": 0.0840909,
                "tempo": 120.0
            },
            {
                "start_time": 5.4590909,
                "end_time": 5.5431818,
                "pitch": 49,
                "velocity": 101,
                "duration": 0.0840909,
                "tempo": 120.0
            },
            {
                "start_time": 5.5590909,
                "end_time": 5.6431818,
                "pitch": 37,
                "velocity": 101,
                "duration": 0.0840909,
                "tempo": 120.0
            },
            {
                "start_time": 5.6590909,
                "end_time": 5.8431818,
                "pitch": 37,
                "velocity": 101,
                "duration": 0.1840909,
                "tempo": 120.0
            },
            {
                "start_time": 5.8613636,
                "end_time": 5.9454545,
                "pitch": 37,
                "velocity": 101,
                "duration": 0.0840909,
                "tempo": 120.0
            },
            {
                "start_time": 5.9613636,
                "end_time": 6.0454545,
                "pitch": 37,
                "velocity": 101,
                "duration": 0.0840909,
                "tempo": 120.0
            },
            {
                "start_time": 6.0613636,
                "end_time": 6.1454545,
                "pitch": 49,
                "velocity": 101,
                "duration": 0.0840909,
                "tempo": 120.0
            },
            {
                "start_time": 6.1613636,
                "end_time": 6.2454545,
                "pitch": 37,
                "velocity": 101,
                "duration": 0.0840909,
                "tempo": 120.0
            },
            {
                "start_time": 6.2613636,
                "end_time": 6.3454545,
                "pitch": 37,
                "velocity": 101,
                "duration": 0.0840909,
                "tempo": 120.0
            },
            {
                "start_time": 6.3613636,
                "end_time": 6.4454545,
                "pitch": 49,
                "velocity": 101,
                "duration": 0.0840909,
                "tempo": 120.0
            },
            {
                "start_time": 6.4636364,
                "end_time": 6.5454545,
                "pitch": 47,
                "velocity": 101,
                "duration": 0.0818182,
                "tempo": 120.0
            },
            {
                "start_time": 6.5636364,
                "end_time": 6.6454545,
                "pitch": 49,
                "velocity": 101,
                "duration": 0.0818182,
                "tempo": 120.0
            },
            {
                "start_time": 6.6636364,
                "end_time": 6.7477273,
                "pitch": 37,
                "velocity": 101,
                "duration": 0.0840909,
                "tempo": 120.0
            },
            {
                "start_time": 6.7636364,
                "end_time": 6.8477273,
                "pitch": 59,
                "velocity": 101,
                "duration": 0.0840909,
                "tempo": 120.0
            },
            {
                "start_time": 6.9636364,
                "end_time": 7.0431818,
                "pitch": 59,
                "velocity": 101,
                "duration": 0.0795455,
                "tempo": 120.0
            },
            {
                "start_time": 7.0613636,
                "end_time": 7.2409091,
                "pitch": 61,
                "velocity": 101,
                "duration": 0.1795455,
                "tempo": 120.0
            },
            {
                "start_time": 7.2568182,
                "end_time": 7.4409091,
                "pitch": 37,
                "velocity": 101,
                "duration": 0.1840909,
                "tempo": 120.0
            },
            {
                "start_time": 7.4590909,
                "end_time": 7.5409091,
                "pitch": 37,
                "velocity": 101,
                "duration": 0.0818182,
                "tempo": 120.0
            },
            {
                "start_time": 7.5590909,
                "end_time": 7.7431818,
                "pitch": 37,
                "velocity": 101,
                "duration": 0.1840909,
                "tempo": 120.0
            },
            {
                "start_time": 7.7613636,
                "end_time": 7.8431818,
                "pitch": 37,
                "velocity": 101,
                "duration": 0.0818182,
                "tempo": 120.0
            },
            {
                "start_time": 7.8613636,
                "end_time": 7.9454545,
                "pitch": 47,
                "velocity": 101,
                "duration": 0.0840909,
                "tempo": 120.0
            },
            {
                "start_time": 7.9613636,
                "end_time": 8.0454545,
                "pitch": 49,
                "velocity": 101,
                "duration": 0.0840909,
                "tempo": 120.0
            },
            {
                "start_time": 8.0636364,
                "end_time": 8.1477273,
                "pitch": 37,
                "velocity": 101,
                "duration": 0.0840909,
                "tempo": 120.0
            },
            {
                "start_time": 8.1659091,
                "end_time": 8.25,
                "pitch": 37,
                "velocity": 101,
                "duration": 0.0840909,
                "tempo": 120.0
            },
            {
                "start_time": 8.2681818,
                "end_time": 8.4568182,
                "pitch": 37,
                "velocity": 101,
                "duration": 0.1886364,
                "tempo": 120.0
            },
            {
                "start_time": 8.4727273,
                "end_time": 8.5568182,
                "pitch": 37,
                "velocity": 101,
                "duration": 0.0840909,
                "tempo": 120.0
            },
            {
                "start_time": 8.575,
                "end_time": 8.6568182,
                "pitch": 47,
                "velocity": 101,
                "duration": 0.0818182,
                "tempo": 120.0
            },
            {
                "start_time": 8.675,
                "end_time": 8.7590909,
                "pitch": 49,
                "velocity": 101,
                "duration": 0.0840909,
                "tempo": 120.0
            },
            {
                "start_time": 8.775,
                "end_time": 8.8590909,
                "pitch": 37,
                "velocity": 101,
                "duration": 0.0840909,
                "tempo": 120.0
            },
            {
                "start_time": 8.8772727,
                "end_time": 9.0590909,
                "pitch": 37,
                "velocity": 101,
                "duration": 0.1818182,
                "tempo": 120.0
            },
            {
                "start_time": 9.0772727,
                "end_time": 9.1613636,
                "pitch": 37,
                "velocity": 101,
                "duration": 0.0840909,
                "tempo": 120.0
            },
            {
                "start_time": 9.1772727,
                "end_time": 9.2613636,
                "pitch": 37,
                "velocity": 101,
                "duration": 0.0840909,
                "tempo": 120.0
            },
            {
                "start_time": 9.2795455,
                "end_time": 9.3613636,
                "pitch": 49,
                "velocity": 101,
                "duration": 0.0818182,
                "tempo": 120.0
            },
            {
                "start_time": 9.3795455,
                "end_time": 9.4636364,
                "pitch": 37,
                "velocity": 101,
                "duration": 0.0840909,
                "tempo": 120.0
            },
            {
                "start_time": 9.4795455,
                "end_time": 9.5636364,
                "pitch": 37,
                "velocity": 101,
                "duration": 0.0840909,
                "tempo": 120.0
            },
            {
                "start_time": 9.5795455,
                "end_time": 9.6636364,
                "pitch": 49,
                "velocity": 101,
                "duration": 0.0840909,
                "tempo": 120.0
            },
            {
                "start_time": 9.6818182,
                "end_time": 9.7636364,
                "pitch": 47,
                "velocity": 101,
                "duration": 0.0818182,
                "tempo": 120.0
            },
            {
                "start_time": 9.7818182,
                "end_time": 9.8636364,
                "pitch": 49,
                "velocity": 101,
                "duration": 0.0818182,
                "tempo": 120.0
            },
            {
                "start_time": 9.8818182,
                "end_time": 9.9636364,
                "pitch": 37,
                "velocity": 101,
                "duration": 0.0818182,
                "tempo": 120.0
            },
            {
                "start_time": 9.9818182,
                "end_time": 10.0636364,
                "pitch": 59,
                "velocity": 101,
                "duration": 0.0818182,
                "tempo": 120.0
            },
            {
                "start_time": 10.1818182,
                "end_time": 10.2659091,
                "pitch": 59,
                "velocity": 101,
                "duration": 0.0840909,
                "tempo": 120.0
            },
            {
                "start_time": 10.2818182,
                "end_time": 10.4659091,
                "pitch": 61,
                "velocity": 101,
                "duration": 0.1840909,
                "tempo": 120.0
            },
            {
                "start_time": 10.4840909,
                "end_time": 10.6636364,
                "pitch": 37,
                "velocity": 101,
                "duration": 0.1795455,
                "tempo": 120.0
            },
            {
                "start_time": 10.6795455,
                "end_time": 10.7613636,
                "pitch": 37,
                "velocity": 101,
                "duration": 0.0818182,
                "tempo": 120.0
            },
            {
                "start_time": 10.7772727,
                "end_time": 10.9590909,
                "pitch": 37,
                "velocity": 101,
                "duration": 0.1818182,
                "tempo": 120.0
            },
            {
                "start_time": 10.9772727,
                "end_time": 11.0613636,
                "pitch": 37,
                "velocity": 101,
                "duration": 0.0840909,
                "tempo": 120.0
            },
            {
                "start_time": 11.0772727,
                "end_time": 11.1613636,
                "pitch": 47,
                "velocity": 101,
                "duration": 0.0840909,
                "tempo": 120.0
            },
            {
                "start_time": 11.1772727,
                "end_time": 11.2613636,
                "pitch": 49,
                "velocity": 101,
                "duration": 0.0840909,
                "tempo": 120.0
            },
            {
                "start_time": 11.2795455,
                "end_time": 11.3636364,
                "pitch": 37,
                "velocity": 101,
                "duration": 0.0840909,
                "tempo": 120.0
            },
            {
                "start_time": 11.3818182,
                "end_time": 11.4659091,
                "pitch": 37,
                "velocity": 101,
                "duration": 0.0840909,
                "tempo": 120.0
            },
            {
                "start_time": 11.4840909,
                "end_time": 11.6727273,
                "pitch": 37,
                "velocity": 101,
                "duration": 0.1886364,
                "tempo": 120.0
            },
            {
                "start_time": 11.6886364,
                "end_time": 11.7704545,
                "pitch": 37,
                "velocity": 101,
                "duration": 0.0818182,
                "tempo": 120.0
            },
            {
                "start_time": 11.7886364,
                "end_time": 11.8681818,
                "pitch": 47,
                "velocity": 101,
                "duration": 0.0795455,
                "tempo": 120.0
            },
            {
                "start_time": 11.8863636,
                "end_time": 11.9659091,
                "pitch": 49,
                "velocity": 101,
                "duration": 0.0795455,
                "tempo": 120.0
            },
            {
                "start_time": 11.9840909,
                "end_time": 12.0659091,
                "pitch": 37,
                "velocity": 101,
                "duration": 0.0818182,
                "tempo": 120.0
            },
            {
                "start_time": 12.0818182,
                "end_time": 12.1659091,
                "pitch": 37,
                "velocity": 101,
                "duration": 0.0840909,
                "tempo": 120.0
            },
            {
                "start_time": 12.1840909,
                "end_time": 12.2704545,
                "pitch": 37,
                "velocity": 101,
                "duration": 0.0863636,
                "tempo": 120.0
            },
            {
                "start_time": 12.2863636,
                "end_time": 12.3727273,
                "pitch": 59,
                "velocity": 101,
                "duration": 0.0863636,
                "tempo": 120.0
            },
            {
                "start_time": 12.3886364,
                "end_time": 12.475,
                "pitch": 61,
                "velocity": 101,
                "duration": 0.0863636,
                "tempo": 120.0
            },
            {
                "start_time": 12.4931818,
                "end_time": 12.575,
                "pitch": 54,
                "velocity": 101,
                "duration": 0.0818182,
                "tempo": 120.0
            },
            {
                "start_time": 12.5931818,
                "end_time": 12.6772727,
                "pitch": 56,
                "velocity": 101,
                "duration": 0.0840909,
                "tempo": 120.0
            },
            {
                "start_time": 12.6931818,
                "end_time": 12.7772727,
                "pitch": 47,
                "velocity": 101,
                "duration": 0.0840909,
                "tempo": 120.0
            },
            {
                "start_time": 12.7954545,
                "end_time": 12.8772727,
                "pitch": 49,
                "velocity": 101,
                "duration": 0.0818182,
                "tempo": 120.0
            },
            {
                "start_time": 12.8954545,
                "end_time": 12.8977273,
                "pitch": 47,
                "velocity": 101,
                "duration": 0.0022727,
                "tempo": 120.0
            }
        ],
        "Acoustic Grand Piano": [
            {
                "start_time": 0.0,
                "end_time": 1.6227273,
                "pitch": 71,
                "velocity": 64,
                "duration": 1.6227273,
                "tempo": 120.0
            },
            {
                "start_time": 1.6409091,
                "end_time": 2.4340909,
                "pitch": 71,
                "velocity": 64,
                "duration": 0.7931818,
                "tempo": 120.0
            },
            {
                "start_time": 2.4522727,
                "end_time": 3.2340909,
                "pitch": 71,
                "velocity": 64,
                "duration": 0.7818182,
                "tempo": 120.0
            },
            {
                "start_time": 3.2522727,
                "end_time": 4.8318182,
                "pitch": 70,
                "velocity": 64,
                "duration": 1.5795455,
                "tempo": 120.0
            },
            {
                "start_time": 4.85,
                "end_time": 5.6431818,
                "pitch": 70,
                "velocity": 64,
                "duration": 0.7931818,
                "tempo": 120.0
            },
            {
                "start_time": 5.6590909,
                "end_time": 6.4454545,
                "pitch": 70,
                "velocity": 64,
                "duration": 0.7863636,
                "tempo": 120.0
            },
            {
                "start_time": 6.4636364,
                "end_time": 8.0454545,
                "pitch": 71,
                "velocity": 64,
                "duration": 1.5818182,
                "tempo": 120.0
            },
            {
                "start_time": 8.0636364,
                "end_time": 8.8590909,
                "pitch": 71,
                "velocity": 64,
                "duration": 0.7954545,
                "tempo": 120.0
            },
            {
                "start_time": 8.8772727,
                "end_time": 9.6636364,
                "pitch": 71,
                "velocity": 64,
                "duration": 0.7863636,
                "tempo": 120.0
            },
            {
                "start_time": 9.6818182,
                "end_time": 11.2613636,
                "pitch": 70,
                "velocity": 64,
                "duration": 1.5795455,
                "tempo": 120.0
            },
            {
                "start_time": 11.2795455,
                "end_time": 12.0659091,
                "pitch": 70,
                "velocity": 64,
                "duration": 0.7863636,
                "tempo": 120.0
            },
            {
                "start_time": 12.0818182,
                "end_time": 12.8772727,
                "pitch": 70,
                "velocity": 64,
                "duration": 0.7954545,
                "tempo": 120.0
            },
            {
                "start_time": 12.8954545,
                "end_time": 12.8977273,
                "pitch": 71,
                "velocity": 64,
                "duration": 0.0022727,
                "tempo": 120.0
            }
        ],
        "Vibraphone": [
            {
                "start_time": 0.0,
                "end_time": 1.6227273,
                "pitch": 65,
                "velocity": 64,
                "duration": 1.6227273,
                "tempo": 120.0
            },
            {
                "start_time": 1.6409091,
                "end_time": 2.4340909,
                "pitch": 53,
                "velocity": 64,
                "duration": 0.7931818,
                "tempo": 120.0
            },
            {
                "start_time": 2.4522727,
                "end_time": 3.2340909,
                "pitch": 53,
                "velocity": 64,
                "duration": 0.7818182,
                "tempo": 120.0
            },
            {
                "start_time": 3.2522727,
                "end_time": 4.8318182,
                "pitch": 64,
                "velocity": 64,
                "duration": 1.5795455,
                "tempo": 120.0
            },
            {
                "start_time": 4.85,
                "end_time": 5.6431818,
                "pitch": 64,
                "velocity": 64,
                "duration": 0.7931818,
                "tempo": 120.0
            },
            {
                "start_time": 5.6613636,
                "end_time": 6.4454545,
                "pitch": 64,
                "velocity": 64,
                "duration": 0.7840909,
                "tempo": 120.0
            },
            {
                "start_time": 6.4636364,
                "end_time": 8.0454545,
                "pitch": 65,
                "velocity": 64,
                "duration": 1.5818182,
                "tempo": 120.0
            },
            {
                "start_time": 8.0636364,
                "end_time": 8.8590909,
                "pitch": 53,
                "velocity": 64,
                "duration": 0.7954545,
                "tempo": 120.0
            },
            {
                "start_time": 8.8772727,
                "end_time": 9.6636364,
                "pitch": 53,
                "velocity": 64,
                "duration": 0.7863636,
                "tempo": 120.0
            },
            {
                "start_time": 9.6818182,
                "end_time": 11.2613636,
                "pitch": 64,
                "velocity": 64,
                "duration": 1.5795455,
                "tempo": 120.0
            },
            {
                "start_time": 11.2795455,
                "end_time": 12.0659091,
                "pitch": 64,
                "velocity": 64,
                "duration": 0.7863636,
                "tempo": 120.0
            },
            {
                "start_time": 12.0818182,
                "end_time": 12.8772727,
                "pitch": 64,
                "velocity": 64,
                "duration": 0.7954545,
                "tempo": 120.0
            },
            {
                "start_time": 12.8954545,
                "end_time": 12.8977273,
                "pitch": 65,
                "velocity": 64,
                "duration": 0.0022727,
                "tempo": 120.0
            }
        ],
        "Synth Bass 1": [
            {
                "start_time": 0.0,
                "end_time": 1.6227273,
                "pitch": 76,
                "velocity": 64,
                "duration": 1.6227273,
                "tempo": 120.0
            },
            {
                "start_time": 1.6409091,
                "end_time": 2.4340909,
                "pitch": 76,
                "velocity": 64,
                "duration": 0.7931818,
                "tempo": 120.0
            },
            {
                "start_time": 2.4522727,
                "end_time": 3.2340909,
                "pitch": 76,
                "velocity": 64,
                "duration": 0.7818182,
                "tempo": 120.0
            },
            {
                "start_time": 3.2522727,
                "end_time": 4.8318182,
                "pitch": 76,
                "velocity": 64,
                "duration": 1.5795455,
                "tempo": 120.0
            },
            {
                "start_time": 4.85,
                "end_time": 5.6431818,
                "pitch": 76,
                "velocity": 64,
                "duration": 0.7931818,
                "tempo": 120.0
            },
            {
                "start_time": 5.6613636,
                "end_time": 6.4454545,
                "pitch": 76,
                "velocity": 64,
                "duration": 0.7840909,
                "tempo": 120.0
            },
            {
                "start_time": 6.4636364,
                "end_time": 8.0454545,
                "pitch": 76,
                "velocity": 64,
                "duration": 1.5818182,
                "tempo": 120.0
            },
            {
                "start_time": 8.0636364,
                "end_time": 8.8590909,
                "pitch": 76,
                "velocity": 64,
                "duration": 0.7954545,
                "tempo": 120.0
            },
            {
                "start_time": 8.8772727,
                "end_time": 9.6636364,
                "pitch": 76,
                "velocity": 64,
                "duration": 0.7863636,
                "tempo": 120.0
            },
            {
                "start_time": 9.6818182,
                "end_time": 11.2613636,
                "pitch": 76,
                "velocity": 64,
                "duration": 1.5795455,
                "tempo": 120.0
            },
            {
                "start_time": 11.2795455,
                "end_time": 12.0659091,
                "pitch": 76,
                "velocity": 64,
                "duration": 0.7863636,
                "tempo": 120.0
            },
            {
                "start_time": 12.0840909,
                "end_time": 12.8795455,
                "pitch": 76,
                "velocity": 64,
                "duration": 0.7954545,
                "tempo": 120.0
            }
        ]
    }
}