{
    "mood": "angry",
    "instruments": {
        "Harpsichord": [
            {
                "start_time": 0.0,
                "end_time": 1.5045455,
                "pitch": 61,
                "velocity": 64,
                "duration": 1.5045455,
                "tempo": 120.0
            },
            {
                "start_time": 1.6568182,
                "end_time": 1.7704545,
                "pitch": 61,
                "velocity": 64,
                "duration": 0.1136364,
                "tempo": 120.0
            },
            {
                "start_time": 1.9227273,
                "end_time": 4.1954545,
                "pitch": 61,
                "velocity": 64,
                "duration": 2.2727273,
                "tempo": 120.0
            },
            {
                "start_time": 4.2136364,
                "end_time": 5.0068182,
                "pitch": 72,
                "velocity": 64,
                "duration": 0.7931818,
                "tempo": 120.0
            },
            {
                "start_time": 5.025,
                "end_time": 5.8159091,
                "pitch": 74,
                "velocity": 64,
                "duration": 0.7909091,
                "tempo": 120.0
            },
            {
                "start_time": 5.9681818,
                "end_time": 6.0818182,
                "pitch": 74,
                "velocity": 64,
                "duration": 0.1136364,
                "tempo": 120.0
            },
            {
                "start_time": 6.2295455,
                "end_time": 7.4204545,
                "pitch": 74,
                "velocity": 64,
                "duration": 1.1909091,
                "tempo": 120.0
            },
            {
                "start_time": 7.4386364,
                "end_time": 7.5545455,
                "pitch": 72,
                "velocity": 64,
                "duration": 0.1159091,
                "tempo": 120.0
            },
            {
                "start_time": 7.5727273,
                "end_time": 7.8204545,
                "pitch": 72,
                "velocity": 64,
                "duration": 0.2477273,
                "tempo": 120.0
            },
            {
                "start_time": 7.8386364,
                "end_time": 8.0886364,
                "pitch": 70,
                "velocity": 64,
                "duration": 0.25,
                "tempo": 120.0
            },
            {
                "start_time": 8.1068182,
                "end_time": 8.3613636,
                "pitch": 65,
                "velocity": 64,
                "duration": 0.2545455,
                "tempo": 120.0
            },
            {
                "start_time": 8.3795455,
                "end_time": 10.1022727,
                "pitch": 61,
                "velocity": 64,
                "duration": 1.7227273,
                "tempo": 120.0
            },
            {
                "start_time": 10.2545455,
                "end_time": 10.3704545,
                "pitch": 61,
                "velocity": 64,
                "duration": 0.1159091,
                "tempo": 120.0
            },
            {
                "start_time": 10.5204545,
                "end_time": 12.7931818,
                "pitch": 61,
                "velocity": 64,
                "duration": 2.2727273,
                "tempo": 120.0
            },
            {
                "start_time": 12.8113636,
                "end_time": 13.5977273,
                "pitch": 72,
                "velocity": 64,
                "duration": 0.7863636,
                "tempo": 120.0
            },
            {
                "start_time": 13.6159091,
                "end_time": 15.075,
                "pitch": 74,
                "velocity": 64,
                "duration": 1.4590909,
                "tempo": 120.0
            },
            {
                "start_time": 16.9818182,
                "end_time": 18.7113636,
                "pitch": 65,
                "velocity": 64,
                "duration": 1.7295455,
                "tempo": 120.0
            },
            {
                "start_time": 18.7295455,
                "end_time": 19.5181818,
                "pitch": 65,
                "velocity": 64,
                "duration": 0.7886364,
                "tempo": 120.0
            },
            {
                "start_time": 19.5363636,
                "end_time": 20.325,
                "pitch": 65,
                "velocity": 64,
                "duration": 0.7886364,
                "tempo": 120.0
            },
            {
                "start_time": 20.3431818,
                "end_time": 20.7295455,
                "pitch": 72,
                "velocity": 64,
                "duration": 0.3863636,
                "tempo": 120.0
            },
            {
                "start_time": 20.7477273,
                "end_time": 21.1340909,
                "pitch": 72,
                "velocity": 64,
                "duration": 0.3863636,
                "tempo": 120.0
            },
            {
                "start_time": 21.1522727,
                "end_time": 21.4022727,
                "pitch": 70,
                "velocity": 64,
                "duration": 0.25,
                "tempo": 120.0
            },
            {
                "start_time": 21.4204545,
                "end_time": 22.2090909,
                "pitch": 72,
                "velocity": 64,
                "duration": 0.7886364,
                "tempo": 120.0
            },
            {
                "start_time": 22.2272727,
                "end_time": 23.0204545,
                "pitch": 74,
                "velocity": 64,
                "duration": 0.7931818,
                "tempo": 120.0
            },
            {
                "start_time": 23.175,
                "end_time": 23.2886364,
                "pitch": 74,
                "velocity": 64,
                "duration": 0.1136364,
                "tempo": 120.0
            },
            {
                "start_time": 23.4363636,
                "end_time": 24.625,
                "pitch": 74,
                "velocity": 64,
                "duration": 1.1886364,
                "tempo": 120.0
            },
            {
                "start_time": 24.6431818,
                "end_time": 24.7613636,
                "pitch": 72,
                "velocity": 64,
                "duration": 0.1181818,
                "tempo": 120.0
            },
            {
                "start_time": 24.7795455,
                "end_time": 25.0340909,
                "pitch": 72,
                "velocity": 64,
                "duration": 0.2545455,
                "tempo": 120.0
            },
            {
                "start_time": 25.0522727,
                "end_time": 25.1704545,
                "pitch": 70,
                "velocity": 64,
                "duration": 0.1181818,
                "tempo": 120.0
            },
            {
                "start_time": 25.1886364,
                "end_time": 25.5659091,
                "pitch": 65,
                "velocity": 64,
                "duration": 0.3772727,
                "tempo": 120.0
            },
            {
                "start_time": 25.5840909,
                "end_time": 27.3090909,
                "pitch": 75,
                "velocity": 64,
                "duration": 1.725,
                "tempo": 120.0
            },
            {
                "start_time": 27.3272727,
                "end_time": 27.7159091,
                "pitch": 65,
                "velocity": 64,
                "duration": 0.3886364,
                "tempo": 120.0
            },
            {
                "start_time": 27.7340909,
                "end_time": 28.925,
                "pitch": 65,
                "velocity": 64,
                "duration": 1.1909091,
                "tempo": 120.0
            },
            {
                "start_time": 28.9431818,
                "end_time": 29.3295455,
                "pitch": 72,
                "velocity": 64,
                "duration": 0.3863636,
                "tempo": 120.0
            },
            {
                "start_time": 29.3477273,
                "end_time": 29.7340909,
                "pitch": 72,
                "velocity": 64,
                "duration": 0.3863636,
                "tempo": 120.0
            },
            {
                "start_time": 29.7522727,
                "end_time": 30.0,
                "pitch": 74,
                "velocity": 64,
                "duration": 0.2477273,
                "tempo": 120.0
            },
            {
                "start_time": 30.0181818,
                "end_time": 30.7931818,
                "pitch": 72,
                "velocity": 64,
                "duration": 0.775,
                "tempo": 120.0
            },
            {
                "start_time": 30.8113636,
                "end_time": 32.2840909,
                "pitch": 74,
                "velocity": 64,
                "duration": 1.4727273,
                "tempo": 120.0
            },
            {
                "start_time": 53.9318182,
                "end_time": 54.3272727,
                "pitch": 61,
                "velocity": 64,
                "duration": 0.3954545,
                "tempo": 120.0
            },
            {
                "start_time": 54.3454545,
                "end_time": 54.8636364,
                "pitch": 72,
                "velocity": 64,
                "duration": 0.5181818,
                "tempo": 120.0
            },
            {
                "start_time": 54.8818182,
                "end_time": 55.4159091,
                "pitch": 65,
                "velocity": 64,
                "duration": 0.5340909,
                "tempo": 120.0
            },
            {
                "start_time": 55.4318182,
                "end_time": 55.8090909,
                "pitch": 65,
                "velocity": 64,
                "duration": 0.3772727,
                "tempo": 120.0
            },
            {
                "start_time": 56.0931818,
                "end_time": 56.475,
                "pitch": 61,
                "velocity": 64,
                "duration": 0.3818182,
                "tempo": 120.0
            },
            {
                "start_time": 56.4931818,
                "end_time": 57.0113636,
                "pitch": 72,
                "velocity": 64,
                "duration": 0.5181818,
                "tempo": 120.0
            },
            {
                "start_time": 57.0295455,
                "end_time": 57.5636364,
                "pitch": 65,
                "velocity": 64,
                "duration": 0.5340909,
                "tempo": 120.0
            },
            {
                "start_time": 57.5818182,
                "end_time": 57.9636364,
                "pitch": 65,
                "velocity": 64,
                "duration": 0.3818182,
                "tempo": 120.0
            },
            {
                "start_time": 58.25,
                "end_time": 58.6318182,
                "pitch": 60,
                "velocity": 64,
                "duration": 0.3818182,
                "tempo": 120.0
            },
            {
                "start_time": 58.65,
                "end_time": 59.1681818,
                "pitch": 72,
                "velocity": 64,
                "duration": 0.5181818,
                "tempo": 120.0
            },
            {
                "start_time": 59.1863636,
                "end_time": 59.7204545,
                "pitch": 65,
                "velocity": 64,
                "duration": 0.5340909,
                "tempo": 120.0
            },
            {
                "start_time": 59.7363636,
                "end_time": 60.1136364,
                "pitch": 65,
                "velocity": 64,
                "duration": 0.3772727,
                "tempo": 120.0
            },
            {
                "start_time": 60.3954545,
                "end_time": 60.7795455,
                "pitch": 60,
                "velocity": 64,
                "duration": 0.3840909,
                "tempo": 120.0
            },
            {
                "start_time": 60.7977273,
                "end_time": 61.3159091,
                "pitch": 60,
                "velocity": 64,
                "duration": 0.5181818,
                "tempo": 120.0
            },
            {
                "start_time": 61.3340909,
                "end_time": 61.8659091,
                "pitch": 65,
                "velocity": 64,
                "duration": 0.5318182,
                "tempo": 120.0
            },
            {
                "start_time": 61.8840909,
                "end_time": 62.2613636,
                "pitch": 65,
                "velocity": 64,
                "duration": 0.3772727,
                "tempo": 120.0
            },
            {
                "start_time": 62.5431818,
                "end_time": 62.9272727,
                "pitch": 60,
                "velocity": 64,
                "duration": 0.3840909,
                "tempo": 120.0
            },
            {
                "start_time": 62.9454545,
                "end_time": 63.4727273,
                "pitch": 70,
                "velocity": 64,
                "duration": 0.5272727,
                "tempo": 120.0
            },
            {
                "start_time": 63.4909091,
                "end_time": 64.0159091,
                "pitch": 70,
                "velocity": 64,
                "duration": 0.525,
                "tempo": 120.0
            },
            {
                "start_time": 64.0318182,
                "end_time": 64.4159091,
                "pitch": 60,
                "velocity": 64,
                "duration": 0.3840909,
                "tempo": 120.0
            },
            {
                "start_time": 64.7,
                "end_time": 65.0840909,
                "pitch": 60,
                "velocity": 64,
                "duration": 0.3840909,
                "tempo": 120.0
            },
            {
                "start_time": 65.1022727,
                "end_time": 65.6181818,
                "pitch": 70,
                "velocity": 64,
                "duration": 0.5159091,
                "tempo": 120.0
            },
            {
                "start_time": 65.6363636,
                "end_time": 66.1636364,
                "pitch": 70,
                "velocity": 64,
                "duration": 0.5272727,
                "tempo": 120.0
            },
            {
                "start_time": 66.1795455,
                "end_time": 66.5636364,
                "pitch": 60,
                "velocity": 64,
                "duration": 0.3840909,
                "tempo": 120.0
            },
            {
                "start_time": 66.8477273,
                "end_time": 67.2318182,
                "pitch": 60,
                "velocity": 64,
                "duration": 0.3840909,
                "tempo": 120.0
            },
            {
                "start_time": 67.2477273,
                "end_time": 67.7659091,
                "pitch": 72,
                "velocity": 64,
                "duration": 0.5181818,
                "tempo": 120.0
            },
            {
                "start_time": 67.7840909,
                "end_time": 68.3181818,
                "pitch": 65,
                "velocity": 64,
                "duration": 0.5340909,
                "tempo": 120.0
            },
            {
                "start_time": 68.3363636,
                "end_time": 68.7113636,
                "pitch": 63,
                "velocity": 64,
                "duration": 0.375,
                "tempo": 120.0
            },
            {
                "start_time": 68.9954545,
                "end_time": 69.3795455,
                "pitch": 67,
                "velocity": 64,
                "duration": 0.3840909,
                "tempo": 120.0
            },
            {
                "start_time": 69.3954545,
                "end_time": 69.9136364,
                "pitch": 70,
                "velocity": 64,
                "duration": 0.5181818,
                "tempo": 120.0
            },
            {
                "start_time": 69.9318182,
                "end_time": 70.5909091,
                "pitch": 67,
                "velocity": 64,
                "duration": 0.6590909,
                "tempo": 120.0
            },
            {
                "start_time": 70.6068182,
                "end_time": 70.8590909,
                "pitch": 67,
                "velocity": 64,
                "duration": 0.2522727,
                "tempo": 120.0
            },
            {
                "start_time": 71.1431818,
                "end_time": 71.5272727,
                "pitch": 55,
                "velocity": 64,
                "duration": 0.3840909,
                "tempo": 120.0
            },
            {
                "start_time": 71.5431818,
                "end_time": 72.0704545,
                "pitch": 63,
                "velocity": 64,
                "duration": 0.5272727,
                "tempo": 120.0
            },
            {
                "start_time": 72.0886364,
                "end_time": 72.6136364,
                "pitch": 65,
                "velocity": 64,
                "duration": 0.525,
                "tempo": 120.0
            },
            {
                "start_time": 72.6318182,
                "end_time": 72.7477273,
                "pitch": 62,
                "velocity": 64,
                "duration": 0.1159091,
                "tempo": 120.0
            },
            {
                "start_time": 73.3,
                "end_time": 73.6818182,
                "pitch": 55,
                "velocity": 64,
                "duration": 0.3818182,
                "tempo": 120.0
            },
            {
                "start_time": 73.7,
                "end_time": 74.2181818,
                "pitch": 67,
                "velocity": 64,
                "duration": 0.5181818,
                "tempo": 120.0
            },
            {
                "start_time": 74.2363636,
                "end_time": 74.7704545,
                "pitch": 63,
                "velocity": 64,
                "duration": 0.5340909,
                "tempo": 120.0
            },
            {
                "start_time": 74.7863636,
                "end_time": 74.9,
                "pitch": 60,
                "velocity": 64,
                "duration": 0.1136364,
                "tempo": 120.0
            },
            {
                "start_time": 75.4477273,
                "end_time": 75.8295455,
                "pitch": 57,
                "velocity": 64,
                "duration": 0.3818182,
                "tempo": 120.0
            },
            {
                "start_time": 75.8477273,
                "end_time": 76.3659091,
                "pitch": 67,
                "velocity": 64,
                "duration": 0.5181818,
                "tempo": 120.0
            },
            {
                "start_time": 76.3840909,
                "end_time": 76.9181818,
                "pitch": 63,
                "velocity": 64,
                "duration": 0.5340909,
                "tempo": 120.0
            },
            {
                "start_time": 76.9340909,
                "end_time": 77.0477273,
                "pitch": 60,
                "velocity": 64,
                "duration": 0.1136364,
                "tempo": 120.0
            },
            {
                "start_time": 77.5931818,
                "end_time": 77.9772727,
                "pitch": 57,
                "velocity": 64,
                "duration": 0.3840909,
                "tempo": 120.0
            },
            {
                "start_time": 77.9954545,
                "end_time": 78.5204545,
                "pitch": 67,
                "velocity": 64,
                "duration": 0.525,
                "tempo": 120.0
            },
            {
                "start_time": 78.5386364,
                "end_time": 79.0568182,
                "pitch": 63,
                "velocity": 64,
                "duration": 0.5181818,
                "tempo": 120.0
            },
            {
                "start_time": 79.075,
                "end_time": 79.1931818,
                "pitch": 63,
                "velocity": 64,
                "duration": 0.1181818,
                "tempo": 120.0
            },
            {
                "start_time": 79.75,
                "end_time": 80.1340909,
                "pitch": 55,
                "velocity": 64,
                "duration": 0.3840909,
                "tempo": 120.0
            },
            {
                "start_time": 80.1522727,
                "end_time": 80.6704545,
                "pitch": 63,
                "velocity": 64,
                "duration": 0.5181818,
                "tempo": 120.0
            },
            {
                "start_time": 80.6886364,
                "end_time": 81.2204545,
                "pitch": 65,
                "velocity": 64,
                "duration": 0.5318182,
                "tempo": 120.0
            },
            {
                "start_time": 81.2386364,
                "end_time": 81.3522727,
                "pitch": 62,
                "velocity": 64,
                "duration": 0.1136364,
                "tempo": 120.0
            },
            {
                "start_time": 81.8977273,
                "end_time": 82.2818182,
                "pitch": 55,
                "velocity": 64,
                "duration": 0.3840909,
                "tempo": 120.0
            },
            {
                "start_time": 82.2977273,
                "end_time": 82.8181818,
                "pitch": 67,
                "velocity": 64,
                "duration": 0.5204545,
                "tempo": 120.0
            },
            {
                "start_time": 82.8363636,
                "end_time": 83.3704545,
                "pitch": 63,
                "velocity": 64,
                "duration": 0.5340909,
                "tempo": 120.0
            },
            {
                "start_time": 83.3863636,
                "end_time": 83.5045455,
                "pitch": 60,
                "velocity": 64,
                "duration": 0.1181818,
                "tempo": 120.0
            },
            {
                "start_time": 84.0522727,
                "end_time": 84.4295455,
                "pitch": 56,
                "velocity": 64,
                "duration": 0.3772727,
                "tempo": 120.0
            },
            {
                "start_time": 84.4477273,
                "end_time": 84.975,
                "pitch": 67,
                "velocity": 64,
                "duration": 0.5272727,
                "tempo": 120.0
            },
            {
                "start_time": 84.9909091,
                "end_time": 85.5181818,
                "pitch": 60,
                "velocity": 64,
                "duration": 0.5272727,
                "tempo": 120.0
            },
            {
                "start_time": 85.5340909,
                "end_time": 85.9181818,
                "pitch": 63,
                "velocity": 64,
                "duration": 0.3840909,
                "tempo": 120.0
            },
            {
                "start_time": 86.2022727,
                "end_time": 86.5863636,
                "pitch": 68,
                "velocity": 64,
                "duration": 0.3840909,
                "tempo": 120.0
            },
            {
                "start_time": 86.6045455,
                "end_time": 87.1204545,
                "pitch": 75,
                "velocity": 64,
                "duration": 0.5159091,
                "tempo": 120.0
            },
            {
                "start_time": 87.1386364,
                "end_time": 87.6568182,
                "pitch": 79,
                "velocity": 64,
                "duration": 0.5181818,
                "tempo": 120.0
            },
            {
                "start_time": 87.6727273,
                "end_time": 88.0636364,
                "pitch": 84,
                "velocity": 64,
                "duration": 0.3909091,
                "tempo": 120.0
            }
        ],
        "Acoustic Bass": [
            {
                "start_time": 0.0,
                "end_time": 0.0863636,
                "pitch": 29,
                "velocity": 80,
                "duration": 0.0863636,
                "tempo": 120.0
            },
            {
                "start_time": 0.0977273,
                "end_time": 0.1863636,
                "pitch": 31,
                "velocity": 80,
                "duration": 0.0886364,
                "tempo": 120.0
            },
            {
                "start_time": 0.2,
                "end_time": 0.5068182,
                "pitch": 31,
                "velocity": 80,
                "duration": 0.3068182,
                "tempo": 120.0
            },
            {
                "start_time": 0.525,
                "end_time": 0.8068182,
                "pitch": 29,
                "velocity": 80,
                "duration": 0.2818182,
                "tempo": 120.0
            },
            {
                "start_time": 0.8272727,
                "end_time": 0.9590909,
                "pitch": 31,
                "velocity": 80,
                "duration": 0.1318182,
                "tempo": 120.0
            },
            {
                "start_time": 0.9772727,
                "end_time": 1.2363636,
                "pitch": 48,
                "velocity": 80,
                "duration": 0.2590909,
                "tempo": 120.0
            },
            {
                "start_time": 1.2545455,
                "end_time": 1.3704545,
                "pitch": 48,
                "velocity": 80,
                "duration": 0.1159091,
                "tempo": 120.0
            },
            {
                "start_time": 1.3863636,
                "end_time": 1.5045455,
                "pitch": 46,
                "velocity": 80,
                "duration": 0.1181818,
                "tempo": 120.0
            },
            {
                "start_time": 1.6545455,
                "end_time": 1.7704545,
                "pitch": 41,
                "velocity": 80,
                "duration": 0.1159091,
                "tempo": 120.0
            },
            {
                "start_time": 1.7886364,
                "end_time": 1.9045455,
                "pitch": 41,
                "velocity": 80,
                "duration": 0.1159091,
                "tempo": 120.0
            },
            {
                "start_time": 1.9227273,
                "end_time": 2.0386364,
                "pitch": 43,
                "velocity": 80,
                "duration": 0.1159091,
                "tempo": 120.0
            },
            {
                "start_time": 2.0545455,
                "end_time": 2.1727273,
                "pitch": 31,
                "velocity": 80,
                "duration": 0.1181818,
                "tempo": 120.0
            },
            {
                "start_time": 2.1909091,
                "end_time": 2.3090909,
                "pitch": 34,
                "velocity": 80,
                "duration": 0.1181818,
                "tempo": 120.0
            },
            {
                "start_time": 2.325,
                "end_time": 2.7159091,
                "pitch": 29,
                "velocity": 80,
                "duration": 0.3909091,
                "tempo": 120.0
            },
            {
                "start_time": 2.7318182,
                "end_time": 2.9840909,
                "pitch": 31,
                "velocity": 80,
                "duration": 0.2522727,
                "tempo": 120.0
            },
            {
                "start_time": 3.0,
                "end_time": 3.1159091,
                "pitch": 29,
                "velocity": 80,
                "duration": 0.1159091,
                "tempo": 120.0
            },
            {
                "start_time": 3.1340909,
                "end_time": 3.25,
                "pitch": 36,
                "velocity": 80,
                "duration": 0.1159091,
                "tempo": 120.0
            },
            {
                "start_time": 3.2681818,
                "end_time": 3.3863636,
                "pitch": 48,
                "velocity": 80,
                "duration": 0.1181818,
                "tempo": 120.0
            },
            {
                "start_time": 3.4045455,
                "end_time": 3.5227273,
                "pitch": 36,
                "velocity": 80,
                "duration": 0.1181818,
                "tempo": 120.0
            },
            {
                "start_time": 3.5409091,
                "end_time": 3.6590909,
                "pitch": 36,
                "velocity": 80,
                "duration": 0.1181818,
                "tempo": 120.0
            },
            {
                "start_time": 3.6772727,
                "end_time": 3.7931818,
                "pitch": 50,
                "velocity": 80,
                "duration": 0.1159091,
                "tempo": 120.0
            },
            {
                "start_time": 3.8113636,
                "end_time": 4.1954545,
                "pitch": 48,
                "velocity": 80,
                "duration": 0.3840909,
                "tempo": 120.0
            },
            {
                "start_time": 4.2113636,
                "end_time": 4.3295455,
                "pitch": 41,
                "velocity": 80,
                "duration": 0.1181818,
                "tempo": 120.0
            },
            {
                "start_time": 4.3454545,
                "end_time": 4.4659091,
                "pitch": 43,
                "velocity": 80,
                "duration": 0.1204545,
                "tempo": 120.0
            },
            {
                "start_time": 4.4818182,
                "end_time": 4.8727273,
                "pitch": 31,
                "velocity": 80,
                "duration": 0.3909091,
                "tempo": 120.0
            },
            {
                "start_time": 4.8886364,
                "end_time": 5.1386364,
                "pitch": 29,
                "velocity": 80,
                "duration": 0.25,
                "tempo": 120.0
            },
            {
                "start_time": 5.1568182,
                "end_time": 5.2727273,
                "pitch": 31,
                "velocity": 80,
                "duration": 0.1159091,
                "tempo": 120.0
            },
            {
                "start_time": 5.2909091,
                "end_time": 5.4068182,
                "pitch": 34,
                "velocity": 80,
                "duration": 0.1159091,
                "tempo": 120.0
            },
            {
                "start_time": 5.425,
                "end_time": 5.5431818,
                "pitch": 48,
                "velocity": 80,
                "duration": 0.1181818,
                "tempo": 120.0
            },
            {
                "start_time": 5.5613636,
                "end_time": 5.6795455,
                "pitch": 29,
                "velocity": 80,
                "duration": 0.1181818,
                "tempo": 120.0
            },
            {
                "start_time": 5.6977273,
                "end_time": 5.8159091,
                "pitch": 29,
                "velocity": 80,
                "duration": 0.1181818,
                "tempo": 120.0
            },
            {
                "start_time": 5.8318182,
                "end_time": 5.95,
                "pitch": 29,
                "velocity": 80,
                "duration": 0.1181818,
                "tempo": 120.0
            },
            {
                "start_time": 5.9659091,
                "end_time": 6.3431818,
                "pitch": 31,
                "velocity": 80,
                "duration": 0.3772727,
                "tempo": 120.0
            },
            {
                "start_time": 6.3613636,
                "end_time": 6.4772727,
                "pitch": 41,
                "velocity": 80,
                "duration": 0.1159091,
                "tempo": 120.0
            },
            {
                "start_time": 6.4931818,
                "end_time": 6.6113636,
                "pitch": 43,
                "velocity": 80,
                "duration": 0.1181818,
                "tempo": 120.0
            },
            {
                "start_time": 6.6295455,
                "end_time": 7.0204545,
                "pitch": 31,
                "velocity": 80,
                "duration": 0.3909091,
                "tempo": 120.0
            },
            {
                "start_time": 7.0363636,
                "end_time": 7.2863636,
                "pitch": 36,
                "velocity": 80,
                "duration": 0.25,
                "tempo": 120.0
            },
            {
                "start_time": 7.3045455,
                "end_time": 7.4204545,
                "pitch": 34,
                "velocity": 80,
                "duration": 0.1159091,
                "tempo": 120.0
            },
            {
                "start_time": 7.4363636,
                "end_time": 7.5545455,
                "pitch": 29,
                "velocity": 80,
                "duration": 0.1181818,
                "tempo": 120.0
            },
            {
                "start_time": 7.5704545,
                "end_time": 7.6886364,
                "pitch": 31,
                "velocity": 80,
                "duration": 0.1181818,
                "tempo": 120.0
            },
            {
                "start_time": 7.7045455,
                "end_time": 7.8204545,
                "pitch": 43,
                "velocity": 80,
                "duration": 0.1159091,
                "tempo": 120.0
            },
            {
                "start_time": 7.8386364,
                "end_time": 7.9545455,
                "pitch": 31,
                "velocity": 80,
                "duration": 0.1159091,
                "tempo": 120.0
            },
            {
                "start_time": 7.9727273,
                "end_time": 8.0886364,
                "pitch": 46,
                "velocity": 80,
                "duration": 0.1159091,
                "tempo": 120.0
            },
            {
                "start_time": 8.1068182,
                "end_time": 8.3613636,
                "pitch": 31,
                "velocity": 80,
                "duration": 0.2545455,
                "tempo": 120.0
            },
            {
                "start_time": 8.3795455,
                "end_time": 8.6340909,
                "pitch": 29,
                "velocity": 80,
                "duration": 0.2545455,
                "tempo": 120.0
            },
            {
                "start_time": 8.65,
                "end_time": 8.7681818,
                "pitch": 31,
                "velocity": 80,
                "duration": 0.1181818,
                "tempo": 120.0
            },
            {
                "start_time": 8.7863636,
                "end_time": 9.175,
                "pitch": 31,
                "velocity": 80,
                "duration": 0.3886364,
                "tempo": 120.0
            },
            {
                "start_time": 9.1931818,
                "end_time": 9.4386364,
                "pitch": 29,
                "velocity": 80,
                "duration": 0.2454545,
                "tempo": 120.0
            },
            {
                "start_time": 9.4545455,
                "end_time": 9.5681818,
                "pitch": 31,
                "velocity": 80,
                "duration": 0.1136364,
                "tempo": 120.0
            },
            {
                "start_time": 9.5863636,
                "end_time": 9.8340909,
                "pitch": 48,
                "velocity": 80,
                "duration": 0.2477273,
                "tempo": 120.0
            },
            {
                "start_time": 9.8522727,
                "end_time": 9.9681818,
                "pitch": 48,
                "velocity": 80,
                "duration": 0.1159091,
                "tempo": 120.0
            },
            {
                "start_time": 9.9863636,
                "end_time": 10.1022727,
                "pitch": 46,
                "velocity": 80,
                "duration": 0.1159091,
                "tempo": 120.0
            },
            {
                "start_time": 10.2522727,
                "end_time": 10.3704545,
                "pitch": 41,
                "velocity": 80,
                "duration": 0.1181818,
                "tempo": 120.0
            },
            {
                "start_time": 10.3863636,
                "end_time": 10.5022727,
                "pitch": 41,
                "velocity": 80,
                "duration": 0.1159091,
                "tempo": 120.0
            },
            {
                "start_time": 10.5204545,
                "end_time": 10.6363636,
                "pitch": 43,
                "velocity": 80,
                "duration": 0.1159091,
                "tempo": 120.0
            },
            {
                "start_time": 10.6545455,
                "end_time": 10.7727273,
                "pitch": 31,
                "velocity": 80,
                "duration": 0.1181818,
                "tempo": 120.0
            },
            {
                "start_time": 10.7886364,
                "end_time": 10.9090909,
                "pitch": 34,
                "velocity": 80,
                "duration": 0.1204545,
                "tempo": 120.0
            },
            {
                "start_time": 10.9272727,
                "end_time": 11.325,
                "pitch": 29,
                "velocity": 80,
                "duration": 0.3977273,
                "tempo": 120.0
            },
            {
                "start_time": 11.3409091,
                "end_time": 11.5909091,
                "pitch": 31,
                "velocity": 80,
                "duration": 0.25,
                "tempo": 120.0
            },
            {
                "start_time": 11.6090909,
                "end_time": 11.725,
                "pitch": 29,
                "velocity": 80,
                "duration": 0.1159091,
                "tempo": 120.0
            },
            {
                "start_time": 11.7431818,
                "end_time": 11.8590909,
                "pitch": 36,
                "velocity": 80,
                "duration": 0.1159091,
                "tempo": 120.0
            },
            {
                "start_time": 11.875,
                "end_time": 11.9931818,
                "pitch": 48,
                "velocity": 80,
                "duration": 0.1181818,
                "tempo": 120.0
            },
            {
                "start_time": 12.0090909,
                "end_time": 12.125,
                "pitch": 36,
                "velocity": 80,
                "duration": 0.1159091,
                "tempo": 120.0
            },
            {
                "start_time": 12.1431818,
                "end_time": 12.2590909,
                "pitch": 36,
                "velocity": 80,
                "duration": 0.1159091,
                "tempo": 120.0
            },
            {
                "start_time": 12.2772727,
                "end_time": 12.3931818,
                "pitch": 50,
                "velocity": 80,
                "duration": 0.1159091,
                "tempo": 120.0
            },
            {
                "start_time": 12.4090909,
                "end_time": 12.7931818,
                "pitch": 48,
                "velocity": 80,
                "duration": 0.3840909,
                "tempo": 120.0
            },
            {
                "start_time": 12.8113636,
                "end_time": 12.9272727,
                "pitch": 41,
                "velocity": 80,
                "duration": 0.1159091,
                "tempo": 120.0
            },
            {
                "start_time": 12.9431818,
                "end_time": 13.0613636,
                "pitch": 43,
                "velocity": 80,
                "duration": 0.1181818,
                "tempo": 120.0
            },
            {
                "start_time": 13.0772727,
                "end_time": 13.4613636,
                "pitch": 31,
                "velocity": 80,
                "duration": 0.3840909,
                "tempo": 120.0
            },
            {
                "start_time": 13.4795455,
                "end_time": 13.7340909,
                "pitch": 29,
                "velocity": 80,
                "duration": 0.2545455,
                "tempo": 120.0
            },
            {
                "start_time": 13.7522727,
                "end_time": 13.8704545,
                "pitch": 31,
                "velocity": 80,
                "duration": 0.1181818,
                "tempo": 120.0
            },
            {
                "start_time": 13.8886364,
                "end_time": 14.0045455,
                "pitch": 34,
                "velocity": 80,
                "duration": 0.1159091,
                "tempo": 120.0
            },
            {
                "start_time": 14.0227273,
                "end_time": 14.1386364,
                "pitch": 48,
                "velocity": 80,
                "duration": 0.1159091,
                "tempo": 120.0
            },
            {
                "start_time": 14.1568182,
                "end_time": 14.2727273,
                "pitch": 29,
                "velocity": 80,
                "duration": 0.1159091,
                "tempo": 120.0
            },
            {
                "start_time": 14.2886364,
                "end_time": 14.4068182,
                "pitch": 29,
                "velocity": 80,
                "duration": 0.1181818,
                "tempo": 120.0
            },
            {
                "start_time": 14.4227273,
                "end_time": 14.5409091,
                "pitch": 29,
                "velocity": 80,
                "duration": 0.1181818,
                "tempo": 120.0
            },
            {
                "start_time": 14.5568182,
                "end_time": 14.9409091,
                "pitch": 31,
                "velocity": 80,
                "duration": 0.3840909,
                "tempo": 120.0
            },
            {
                "start_time": 14.9568182,
                "end_time": 15.075,
                "pitch": 41,
                "velocity": 80,
                "duration": 0.1181818,
                "tempo": 120.0
            },
            {
                "start_time": 15.0931818,
                "end_time": 15.2113636,
                "pitch": 43,
                "velocity": 80,
                "duration": 0.1181818,
                "tempo": 120.0
            },
            {
                "start_time": 15.2295455,
                "end_time": 15.6181818,
                "pitch": 31,
                "velocity": 80,
                "duration": 0.3886364,
                "tempo": 120.0
            },
            {
                "start_time": 15.6363636,
                "end_time": 15.8863636,
                "pitch": 36,
                "velocity": 80,
                "duration": 0.25,
                "tempo": 120.0
            },
            {
                "start_time": 15.9022727,
                "end_time": 16.0181818,
                "pitch": 34,
                "velocity": 80,
                "duration": 0.1159091,
                "tempo": 120.0
            },
            {
                "start_time": 16.0363636,
                "end_time": 16.1545455,
                "pitch": 29,
                "velocity": 80,
                "duration": 0.1181818,
                "tempo": 120.0
            },
            {
                "start_time": 16.1704545,
                "end_time": 16.2886364,
                "pitch": 31,
                "velocity": 80,
                "duration": 0.1181818,
                "tempo": 120.0
            },
            {
                "start_time": 16.3068182,
                "end_time": 16.425,
                "pitch": 43,
                "velocity": 80,
                "duration": 0.1181818,
                "tempo": 120.0
            },
            {
                "start_time": 16.4431818,
                "end_time": 16.5613636,
                "pitch": 31,
                "velocity": 80,
                "duration": 0.1181818,
                "tempo": 120.0
            },
            {
                "start_time": 16.5795455,
                "end_time": 16.6977273,
                "pitch": 46,
                "velocity": 80,
                "duration": 0.1181818,
                "tempo": 120.0
            },
            {
                "start_time": 16.7136364,
                "end_time": 16.9636364,
                "pitch": 31,
                "velocity": 80,
                "duration": 0.25,
                "tempo": 120.0
            },
            {
                "start_time": 16.9818182,
                "end_time": 17.2318182,
                "pitch": 39,
                "velocity": 80,
                "duration": 0.25,
                "tempo": 120.0
            },
            {
                "start_time": 17.25,
                "end_time": 17.3704545,
                "pitch": 41,
                "velocity": 80,
                "duration": 0.1204545,
                "tempo": 120.0
            },
            {
                "start_time": 17.3886364,
                "end_time": 17.7840909,
                "pitch": 32,
                "velocity": 80,
                "duration": 0.3954545,
                "tempo": 120.0
            },
            {
                "start_time": 17.8,
                "end_time": 18.0454545,
                "pitch": 39,
                "velocity": 80,
                "duration": 0.2454545,
                "tempo": 120.0
            },
            {
                "start_time": 18.0636364,
                "end_time": 18.1772727,
                "pitch": 38,
                "velocity": 80,
                "duration": 0.1136364,
                "tempo": 120.0
            },
            {
                "start_time": 18.3272727,
                "end_time": 18.4431818,
                "pitch": 29,
                "velocity": 80,
                "duration": 0.1159091,
                "tempo": 120.0
            },
            {
                "start_time": 18.4590909,
                "end_time": 18.5772727,
                "pitch": 41,
                "velocity": 80,
                "duration": 0.1181818,
                "tempo": 120.0
            },
            {
                "start_time": 18.5931818,
                "end_time": 18.7113636,
                "pitch": 29,
                "velocity": 80,
                "duration": 0.1181818,
                "tempo": 120.0
            },
            {
                "start_time": 18.7272727,
                "end_time": 18.8431818,
                "pitch": 31,
                "velocity": 80,
                "duration": 0.1159091,
                "tempo": 120.0
            },
            {
                "start_time": 18.8613636,
                "end_time": 19.1113636,
                "pitch": 43,
                "velocity": 80,
                "duration": 0.25,
                "tempo": 120.0
            },
            {
                "start_time": 19.1295455,
                "end_time": 19.2454545,
                "pitch": 31,
                "velocity": 80,
                "duration": 0.1159091,
                "tempo": 120.0
            },
            {
                "start_time": 19.2613636,
                "end_time": 19.3795455,
                "pitch": 43,
                "velocity": 80,
                "duration": 0.1181818,
                "tempo": 120.0
            },
            {
                "start_time": 19.3977273,
                "end_time": 19.5181818,
                "pitch": 44,
                "velocity": 80,
                "duration": 0.1204545,
                "tempo": 120.0
            },
            {
                "start_time": 19.5363636,
                "end_time": 19.9318182,
                "pitch": 32,
                "velocity": 80,
                "duration": 0.3954545,
                "tempo": 120.0
            },
            {
                "start_time": 19.9477273,
                "end_time": 20.1931818,
                "pitch": 32,
                "velocity": 80,
                "duration": 0.2454545,
                "tempo": 120.0
            },
            {
                "start_time": 20.2113636,
                "end_time": 20.325,
                "pitch": 32,
                "velocity": 80,
                "duration": 0.1136364,
                "tempo": 120.0
            },
            {
                "start_time": 20.475,
                "end_time": 20.5931818,
                "pitch": 29,
                "velocity": 80,
                "duration": 0.1181818,
                "tempo": 120.0
            },
            {
                "start_time": 20.6113636,
                "end_time": 20.7295455,
                "pitch": 41,
                "velocity": 80,
                "duration": 0.1181818,
                "tempo": 120.0
            },
            {
                "start_time": 20.7477273,
                "end_time": 20.8659091,
                "pitch": 29,
                "velocity": 80,
                "duration": 0.1181818,
                "tempo": 120.0
            },
            {
                "start_time": 20.8818182,
                "end_time": 21.0,
                "pitch": 46,
                "velocity": 80,
                "duration": 0.1181818,
                "tempo": 120.0
            },
            {
                "start_time": 21.0181818,
                "end_time": 21.2681818,
                "pitch": 41,
                "velocity": 80,
                "duration": 0.25,
                "tempo": 120.0
            },
            {
                "start_time": 21.2840909,
                "end_time": 21.4022727,
                "pitch": 34,
                "velocity": 80,
                "duration": 0.1181818,
                "tempo": 120.0
            },
            {
                "start_time": 21.4181818,
                "end_time": 21.5363636,
                "pitch": 31,
                "velocity": 80,
                "duration": 0.1181818,
                "tempo": 120.0
            },
            {
                "start_time": 21.5522727,
                "end_time": 21.6727273,
                "pitch": 43,
                "velocity": 80,
                "duration": 0.1204545,
                "tempo": 120.0
            },
            {
                "start_time": 21.6886364,
                "end_time": 22.0772727,
                "pitch": 31,
                "velocity": 80,
                "duration": 0.3886364,
                "tempo": 120.0
            },
            {
                "start_time": 22.0954545,
                "end_time": 22.3409091,
                "pitch": 29,
                "velocity": 80,
                "duration": 0.2454545,
                "tempo": 120.0
            },
            {
                "start_time": 22.3568182,
                "end_time": 22.4727273,
                "pitch": 43,
                "velocity": 80,
                "duration": 0.1159091,
                "tempo": 120.0
            },
            {
                "start_time": 22.4886364,
                "end_time": 22.6045455,
                "pitch": 36,
                "velocity": 80,
                "duration": 0.1159091,
                "tempo": 120.0
            },
            {
                "start_time": 22.6227273,
                "end_time": 22.7431818,
                "pitch": 43,
                "velocity": 80,
                "duration": 0.1204545,
                "tempo": 120.0
            },
            {
                "start_time": 22.7613636,
                "end_time": 22.8818182,
                "pitch": 46,
                "velocity": 80,
                "duration": 0.1204545,
                "tempo": 120.0
            },
            {
                "start_time": 22.9,
                "end_time": 23.0204545,
                "pitch": 48,
                "velocity": 80,
                "duration": 0.1204545,
                "tempo": 120.0
            },
            {
                "start_time": 23.0386364,
                "end_time": 23.1568182,
                "pitch": 29,
                "velocity": 80,
                "duration": 0.1181818,
                "tempo": 120.0
            },
            {
                "start_time": 23.1727273,
                "end_time": 23.4181818,
                "pitch": 29,
                "velocity": 80,
                "duration": 0.2454545,
                "tempo": 120.0
            },
            {
                "start_time": 23.4363636,
                "end_time": 23.55,
                "pitch": 31,
                "velocity": 80,
                "duration": 0.1136364,
                "tempo": 120.0
            },
            {
                "start_time": 23.5681818,
                "end_time": 23.6818182,
                "pitch": 31,
                "velocity": 80,
                "duration": 0.1136364,
                "tempo": 120.0
            },
            {
                "start_time": 23.7,
                "end_time": 23.8159091,
                "pitch": 31,
                "velocity": 80,
                "duration": 0.1159091,
                "tempo": 120.0
            },
            {
                "start_time": 23.8340909,
                "end_time": 24.2181818,
                "pitch": 29,
                "velocity": 80,
                "duration": 0.3840909,
                "tempo": 120.0
            },
            {
                "start_time": 24.2340909,
                "end_time": 24.4886364,
                "pitch": 34,
                "velocity": 80,
                "duration": 0.2545455,
                "tempo": 120.0
            },
            {
                "start_time": 24.5068182,
                "end_time": 24.625,
                "pitch": 29,
                "velocity": 80,
                "duration": 0.1181818,
                "tempo": 120.0
            },
            {
                "start_time": 24.6431818,
                "end_time": 24.7613636,
                "pitch": 34,
                "velocity": 80,
                "duration": 0.1181818,
                "tempo": 120.0
            },
            {
                "start_time": 24.7795455,
                "end_time": 24.8977273,
                "pitch": 48,
                "velocity": 80,
                "duration": 0.1181818,
                "tempo": 120.0
            },
            {
                "start_time": 24.9159091,
                "end_time": 25.0340909,
                "pitch": 38,
                "velocity": 80,
                "duration": 0.1181818,
                "tempo": 120.0
            },
            {
                "start_time": 25.05,
                "end_time": 25.1704545,
                "pitch": 29,
                "velocity": 80,
                "duration": 0.1204545,
                "tempo": 120.0
            },
            {
                "start_time": 25.1863636,
                "end_time": 25.3045455,
                "pitch": 41,
                "velocity": 80,
                "duration": 0.1181818,
                "tempo": 120.0
            },
            {
                "start_time": 25.3204545,
                "end_time": 25.5659091,
                "pitch": 43,
                "velocity": 80,
                "duration": 0.2454545,
                "tempo": 120.0
            },
            {
                "start_time": 25.5840909,
                "end_time": 25.8318182,
                "pitch": 39,
                "velocity": 80,
                "duration": 0.2477273,
                "tempo": 120.0
            },
            {
                "start_time": 25.8477273,
                "end_time": 25.9681818,
                "pitch": 41,
                "velocity": 80,
                "duration": 0.1204545,
                "tempo": 120.0
            },
            {
                "start_time": 25.9863636,
                "end_time": 26.3818182,
                "pitch": 32,
                "velocity": 80,
                "duration": 0.3954545,
                "tempo": 120.0
            },
            {
                "start_time": 26.4,
                "end_time": 26.6454545,
                "pitch": 39,
                "velocity": 80,
                "duration": 0.2454545,
                "tempo": 120.0
            },
            {
                "start_time": 26.6613636,
                "end_time": 26.775,
                "pitch": 38,
                "velocity": 80,
                "duration": 0.1136364,
                "tempo": 120.0
            },
            {
                "start_time": 26.925,
                "end_time": 27.0409091,
                "pitch": 29,
                "velocity": 80,
                "duration": 0.1159091,
                "tempo": 120.0
            },
            {
                "start_time": 27.0590909,
                "end_time": 27.175,
                "pitch": 41,
                "velocity": 80,
                "duration": 0.1159091,
                "tempo": 120.0
            },
            {
                "start_time": 27.1931818,
                "end_time": 27.3090909,
                "pitch": 29,
                "velocity": 80,
                "duration": 0.1159091,
                "tempo": 120.0
            },
            {
                "start_time": 27.3272727,
                "end_time": 27.4431818,
                "pitch": 31,
                "velocity": 80,
                "duration": 0.1159091,
                "tempo": 120.0
            },
            {
                "start_time": 27.4613636,
                "end_time": 27.7159091,
                "pitch": 43,
                "velocity": 80,
                "duration": 0.2545455,
                "tempo": 120.0
            },
            {
                "start_time": 27.7340909,
                "end_time": 27.8522727,
                "pitch": 31,
                "velocity": 80,
                "duration": 0.1181818,
                "tempo": 120.0
            },
            {
                "start_time": 27.8681818,
                "end_time": 27.9886364,
                "pitch": 43,
                "velocity": 80,
                "duration": 0.1204545,
                "tempo": 120.0
            },
            {
                "start_time": 28.0045455,
                "end_time": 28.1272727,
                "pitch": 44,
                "velocity": 80,
                "duration": 0.1227273,
                "tempo": 120.0
            },
            {
                "start_time": 28.1431818,
                "end_time": 28.5386364,
                "pitch": 32,
                "velocity": 80,
                "duration": 0.3954545,
                "tempo": 120.0
            },
            {
                "start_time": 28.5545455,
                "end_time": 28.7954545,
                "pitch": 32,
                "velocity": 80,
                "duration": 0.2409091,
                "tempo": 120.0
            },
            {
                "start_time": 28.8136364,
                "end_time": 28.925,
                "pitch": 32,
                "velocity": 80,
                "duration": 0.1113636,
                "tempo": 120.0
            },
            {
                "start_time": 29.075,
                "end_time": 29.1931818,
                "pitch": 29,
                "velocity": 80,
                "duration": 0.1181818,
                "tempo": 120.0
            },
            {
                "start_time": 29.2090909,
                "end_time": 29.3295455,
                "pitch": 41,
                "velocity": 80,
                "duration": 0.1204545,
                "tempo": 120.0
            },
            {
                "start_time": 29.3454545,
                "end_time": 29.4636364,
                "pitch": 29,
                "velocity": 80,
                "duration": 0.1181818,
                "tempo": 120.0
            },
            {
                "start_time": 29.4818182,
                "end_time": 29.6,
                "pitch": 46,
                "velocity": 80,
                "duration": 0.1181818,
                "tempo": 120.0
            },
            {
                "start_time": 29.6159091,
                "end_time": 29.8681818,
                "pitch": 41,
                "velocity": 80,
                "duration": 0.2522727,
                "tempo": 120.0
            },
            {
                "start_time": 29.8840909,
                "end_time": 30.0,
                "pitch": 34,
                "velocity": 80,
                "duration": 0.1159091,
                "tempo": 120.0
            },
            {
                "start_time": 30.0181818,
                "end_time": 30.1318182,
                "pitch": 31,
                "velocity": 80,
                "duration": 0.1136364,
                "tempo": 120.0
            },
            {
                "start_time": 30.1477273,
                "end_time": 30.2613636,
                "pitch": 43,
                "velocity": 80,
                "duration": 0.1136364,
                "tempo": 120.0
            },
            {
                "start_time": 30.2772727,
                "end_time": 30.6522727,
                "pitch": 31,
                "velocity": 80,
                "duration": 0.375,
                "tempo": 120.0
            },
            {
                "start_time": 30.6704545,
                "end_time": 30.9340909,
                "pitch": 29,
                "velocity": 80,
                "duration": 0.2636364,
                "tempo": 120.0
            },
            {
                "start_time": 30.9522727,
                "end_time": 31.075,
                "pitch": 43,
                "velocity": 80,
                "duration": 0.1227273,
                "tempo": 120.0
            },
            {
                "start_time": 31.0931818,
                "end_time": 31.2159091,
                "pitch": 36,
                "velocity": 80,
                "duration": 0.1227273,
                "tempo": 120.0
            },
            {
                "start_time": 31.2318182,
                "end_time": 31.35,
                "pitch": 43,
                "velocity": 80,
                "duration": 0.1181818,
                "tempo": 120.0
            },
            {
                "start_time": 31.3681818,
                "end_time": 31.4863636,
                "pitch": 46,
                "velocity": 80,
                "duration": 0.1181818,
                "tempo": 120.0
            },
            {
                "start_time": 31.5045455,
                "end_time": 31.6227273,
                "pitch": 48,
                "velocity": 80,
                "duration": 0.1181818,
                "tempo": 120.0
            },
            {
                "start_time": 31.6409091,
                "end_time": 31.7568182,
                "pitch": 29,
                "velocity": 80,
                "duration": 0.1159091,
                "tempo": 120.0
            },
            {
                "start_time": 31.7727273,
                "end_time": 32.0204545,
                "pitch": 29,
                "velocity": 80,
                "duration": 0.2477273,
                "tempo": 120.0
            },
            {
                "start_time": 32.0363636,
                "end_time": 32.15,
                "pitch": 31,
                "velocity": 80,
                "duration": 0.1136364,
                "tempo": 120.0
            },
            {
                "start_time": 32.1681818,
                "end_time": 32.2840909,
                "pitch": 31,
                "velocity": 80,
                "duration": 0.1159091,
                "tempo": 120.0
            },
            {
                "start_time": 32.3,
                "end_time": 32.6840909,
                "pitch": 43,
                "velocity": 80,
                "duration": 0.3840909,
                "tempo": 120.0
            },
            {
                "start_time": 32.7,
                "end_time": 32.8181818,
                "pitch": 33,
                "velocity": 80,
                "duration": 0.1181818,
                "tempo": 120.0
            },
            {
                "start_time": 32.8340909,
                "end_time": 33.2181818,
                "pitch": 45,
                "velocity": 80,
                "duration": 0.3840909,
                "tempo": 120.0
            },
            {
                "start_time": 33.2363636,
                "end_time": 33.3522727,
                "pitch": 34,
                "velocity": 80,
                "duration": 0.1159091,
                "tempo": 120.0
            },
            {
                "start_time": 33.3704545,
                "end_time": 33.7613636,
                "pitch": 46,
                "velocity": 80,
                "duration": 0.3909091,
                "tempo": 120.0
            },
            {
                "start_time": 33.7772727,
                "end_time": 33.8954545,
                "pitch": 48,
                "velocity": 80,
                "duration": 0.1181818,
                "tempo": 120.0
            },
            {
                "start_time": 33.9136364,
                "end_time": 34.2977273,
                "pitch": 31,
                "velocity": 80,
                "duration": 0.3840909,
                "tempo": 120.0
            },
            {
                "start_time": 34.3136364,
                "end_time": 34.4318182,
                "pitch": 36,
                "velocity": 80,
                "duration": 0.1181818,
                "tempo": 120.0
            },
            {
                "start_time": 34.4477273,
                "end_time": 34.5681818,
                "pitch": 38,
                "velocity": 80,
                "duration": 0.1204545,
                "tempo": 120.0
            },
            {
                "start_time": 34.5840909,
                "end_time": 34.7022727,
                "pitch": 31,
                "velocity": 80,
                "duration": 0.1181818,
                "tempo": 120.0
            },
            {
                "start_time": 34.7204545,
                "end_time": 34.975,
                "pitch": 34,
                "velocity": 80,
                "duration": 0.2545455,
                "tempo": 120.0
            },
            {
                "start_time": 34.9909091,
                "end_time": 35.1068182,
                "pitch": 34,
                "velocity": 80,
                "duration": 0.1159091,
                "tempo": 120.0
            },
            {
                "start_time": 35.125,
                "end_time": 35.6454545,
                "pitch": 31,
                "velocity": 80,
                "duration": 0.5204545,
                "tempo": 120.0
            },
            {
                "start_time": 35.6636364,
                "end_time": 35.7818182,
                "pitch": 31,
                "velocity": 80,
                "duration": 0.1181818,
                "tempo": 120.0
            },
            {
                "start_time": 35.7977273,
                "end_time": 35.9181818,
                "pitch": 31,
                "velocity": 80,
                "duration": 0.1204545,
                "tempo": 120.0
            },
            {
                "start_time": 35.9340909,
                "end_time": 36.0522727,
                "pitch": 39,
                "velocity": 80,
                "duration": 0.1181818,
                "tempo": 120.0
            },
            {
                "start_time": 36.0704545,
                "end_time": 36.1863636,
                "pitch": 31,
                "velocity": 80,
                "duration": 0.1159091,
                "tempo": 120.0
            },
            {
                "start_time": 36.3363636,
                "end_time": 36.4522727,
                "pitch": 38,
                "velocity": 80,
                "duration": 0.1159091,
                "tempo": 120.0
            },
            {
                "start_time": 36.4704545,
                "end_time": 36.5886364,
                "pitch": 39,
                "velocity": 80,
                "duration": 0.1181818,
                "tempo": 120.0
            },
            {
                "start_time": 36.6045455,
                "end_time": 36.7227273,
                "pitch": 31,
                "velocity": 80,
                "duration": 0.1181818,
                "tempo": 120.0
            },
            {
                "start_time": 36.7409091,
                "end_time": 36.8590909,
                "pitch": 31,
                "velocity": 80,
                "duration": 0.1181818,
                "tempo": 120.0
            },
            {
                "start_time": 36.8772727,
                "end_time": 36.9954545,
                "pitch": 31,
                "velocity": 80,
                "duration": 0.1181818,
                "tempo": 120.0
            },
            {
                "start_time": 37.0136364,
                "end_time": 37.1318182,
                "pitch": 34,
                "velocity": 80,
                "duration": 0.1181818,
                "tempo": 120.0
            },
            {
                "start_time": 37.1477273,
                "end_time": 37.2636364,
                "pitch": 31,
                "velocity": 80,
                "duration": 0.1159091,
                "tempo": 120.0
            },
            {
                "start_time": 37.8159091,
                "end_time": 37.9318182,
                "pitch": 31,
                "velocity": 80,
                "duration": 0.1159091,
                "tempo": 120.0
            },
            {
                "start_time": 37.95,
                "end_time": 38.0659091,
                "pitch": 31,
                "velocity": 80,
                "duration": 0.1159091,
                "tempo": 120.0
            },
            {
                "start_time": 38.0840909,
                "end_time": 38.2,
                "pitch": 39,
                "velocity": 80,
                "duration": 0.1159091,
                "tempo": 120.0
            },
            {
                "start_time": 38.2159091,
                "end_time": 38.6,
                "pitch": 31,
                "velocity": 80,
                "duration": 0.3840909,
                "tempo": 120.0
            },
            {
                "start_time": 38.6181818,
                "end_time": 38.7340909,
                "pitch": 41,
                "velocity": 80,
                "duration": 0.1159091,
                "tempo": 120.0
            },
            {
                "start_time": 38.75,
                "end_time": 38.8681818,
                "pitch": 42,
                "velocity": 80,
                "duration": 0.1181818,
                "tempo": 120.0
            },
            {
                "start_time": 38.8840909,
                "end_time": 39.0022727,
                "pitch": 30,
                "velocity": 80,
                "duration": 0.1181818,
                "tempo": 120.0
            },
            {
                "start_time": 39.0181818,
                "end_time": 39.2681818,
                "pitch": 37,
                "velocity": 80,
                "duration": 0.25,
                "tempo": 120.0
            },
            {
                "start_time": 39.2863636,
                "end_time": 39.4045455,
                "pitch": 37,
                "velocity": 80,
                "duration": 0.1181818,
                "tempo": 120.0
            },
            {
                "start_time": 39.4227273,
                "end_time": 39.95,
                "pitch": 30,
                "velocity": 80,
                "duration": 0.5272727,
                "tempo": 120.0
            },
            {
                "start_time": 39.9659091,
                "end_time": 40.0863636,
                "pitch": 30,
                "velocity": 80,
                "duration": 0.1204545,
                "tempo": 120.0
            },
            {
                "start_time": 40.1022727,
                "end_time": 40.2204545,
                "pitch": 30,
                "velocity": 80,
                "duration": 0.1181818,
                "tempo": 120.0
            },
            {
                "start_time": 40.2386364,
                "end_time": 40.3568182,
                "pitch": 42,
                "velocity": 80,
                "duration": 0.1181818,
                "tempo": 120.0
            },
            {
                "start_time": 40.3727273,
                "end_time": 40.4909091,
                "pitch": 30,
                "velocity": 80,
                "duration": 0.1181818,
                "tempo": 120.0
            },
            {
                "start_time": 40.6409091,
                "end_time": 40.7568182,
                "pitch": 41,
                "velocity": 80,
                "duration": 0.1159091,
                "tempo": 120.0
            },
            {
                "start_time": 40.775,
                "end_time": 40.8909091,
                "pitch": 42,
                "velocity": 80,
                "duration": 0.1159091,
                "tempo": 120.0
            },
            {
                "start_time": 40.9090909,
                "end_time": 41.0272727,
                "pitch": 30,
                "velocity": 80,
                "duration": 0.1181818,
                "tempo": 120.0
            },
            {
                "start_time": 41.0454545,
                "end_time": 41.1636364,
                "pitch": 30,
                "velocity": 80,
                "duration": 0.1181818,
                "tempo": 120.0
            },
            {
                "start_time": 41.1818182,
                "end_time": 41.3,
                "pitch": 30,
                "velocity": 80,
                "duration": 0.1181818,
                "tempo": 120.0
            },
            {
                "start_time": 41.3159091,
                "end_time": 41.4340909,
                "pitch": 37,
                "velocity": 80,
                "duration": 0.1181818,
                "tempo": 120.0
            },
            {
                "start_time": 41.45,
                "end_time": 41.5659091,
                "pitch": 30,
                "velocity": 80,
                "duration": 0.1159091,
                "tempo": 120.0
            },
            {
                "start_time": 42.1113636,
                "end_time": 42.2272727,
                "pitch": 30,
                "velocity": 80,
                "duration": 0.1159091,
                "tempo": 120.0
            },
            {
                "start_time": 42.2431818,
                "end_time": 42.3613636,
                "pitch": 30,
                "velocity": 80,
                "duration": 0.1181818,
                "tempo": 120.0
            },
            {
                "start_time": 42.3772727,
                "end_time": 42.4954545,
                "pitch": 42,
                "velocity": 80,
                "duration": 0.1181818,
                "tempo": 120.0
            },
            {
                "start_time": 42.5113636,
                "end_time": 42.9022727,
                "pitch": 30,
                "velocity": 80,
                "duration": 0.3909091,
                "tempo": 120.0
            },
            {
                "start_time": 42.9204545,
                "end_time": 43.0386364,
                "pitch": 36,
                "velocity": 80,
                "duration": 0.1181818,
                "tempo": 120.0
            },
            {
                "start_time": 43.0545455,
                "end_time": 43.1727273,
                "pitch": 38,
                "velocity": 80,
                "duration": 0.1181818,
                "tempo": 120.0
            },
            {
                "start_time": 43.1886364,
                "end_time": 43.3045455,
                "pitch": 31,
                "velocity": 80,
                "duration": 0.1159091,
                "tempo": 120.0
            },
            {
                "start_time": 43.3227273,
                "end_time": 43.5727273,
                "pitch": 34,
                "velocity": 80,
                "duration": 0.25,
                "tempo": 120.0
            },
            {
                "start_time": 43.5909091,
                "end_time": 43.7090909,
                "pitch": 34,
                "velocity": 80,
                "duration": 0.1181818,
                "tempo": 120.0
            },
            {
                "start_time": 43.7272727,
                "end_time": 44.2522727,
                "pitch": 31,
                "velocity": 80,
                "duration": 0.525,
                "tempo": 120.0
            },
            {
                "start_time": 44.2704545,
                "end_time": 44.3886364,
                "pitch": 31,
                "velocity": 80,
                "duration": 0.1181818,
                "tempo": 120.0
            },
            {
                "start_time": 44.4068182,
                "end_time": 44.525,
                "pitch": 31,
                "velocity": 80,
                "duration": 0.1181818,
                "tempo": 120.0
            },
            {
                "start_time": 44.5431818,
                "end_time": 44.6613636,
                "pitch": 39,
                "velocity": 80,
                "duration": 0.1181818,
                "tempo": 120.0
            },
            {
                "start_time": 44.6772727,
                "end_time": 44.7931818,
                "pitch": 31,
                "velocity": 80,
                "duration": 0.1159091,
                "tempo": 120.0
            },
            {
                "start_time": 44.9454545,
                "end_time": 45.0613636,
                "pitch": 38,
                "velocity": 80,
                "duration": 0.1159091,
                "tempo": 120.0
            },
            {
                "start_time": 45.0795455,
                "end_time": 45.1954545,
                "pitch": 39,
                "velocity": 80,
                "duration": 0.1159091,
                "tempo": 120.0
            },
            {
                "start_time": 45.2113636,
                "end_time": 45.3295455,
                "pitch": 31,
                "velocity": 80,
                "duration": 0.1181818,
                "tempo": 120.0
            },
            {
                "start_time": 45.3454545,
                "end_time": 45.4613636,
                "pitch": 31,
                "velocity": 80,
                "duration": 0.1159091,
                "tempo": 120.0
            },
            {
                "start_time": 45.4795455,
                "end_time": 45.5954545,
                "pitch": 31,
                "velocity": 80,
                "duration": 0.1159091,
                "tempo": 120.0
            },
            {
                "start_time": 45.6136364,
                "end_time": 45.7295455,
                "pitch": 34,
                "velocity": 80,
                "duration": 0.1159091,
                "tempo": 120.0
            },
            {
                "start_time": 45.7454545,
                "end_time": 45.8636364,
                "pitch": 31,
                "velocity": 80,
                "duration": 0.1181818,
                "tempo": 120.0
            },
            {
                "start_time": 46.4136364,
                "end_time": 46.5318182,
                "pitch": 31,
                "velocity": 80,
                "duration": 0.1181818,
                "tempo": 120.0
            },
            {
                "start_time": 46.5477273,
                "end_time": 46.6636364,
                "pitch": 31,
                "velocity": 80,
                "duration": 0.1159091,
                "tempo": 120.0
            },
            {
                "start_time": 46.6818182,
                "end_time": 46.8,
                "pitch": 39,
                "velocity": 80,
                "duration": 0.1181818,
                "tempo": 120.0
            },
            {
                "start_time": 46.8159091,
                "end_time": 47.2068182,
                "pitch": 31,
                "velocity": 80,
                "duration": 0.3909091,
                "tempo": 120.0
            },
            {
                "start_time": 47.225,
                "end_time": 47.3431818,
                "pitch": 41,
                "velocity": 80,
                "duration": 0.1181818,
                "tempo": 120.0
            },
            {
                "start_time": 47.3590909,
                "end_time": 47.475,
                "pitch": 43,
                "velocity": 80,
                "duration": 0.1159091,
                "tempo": 120.0
            },
            {
                "start_time": 47.4931818,
                "end_time": 47.6090909,
                "pitch": 31,
                "velocity": 80,
                "duration": 0.1159091,
                "tempo": 120.0
            },
            {
                "start_time": 47.6272727,
                "end_time": 47.8772727,
                "pitch": 31,
                "velocity": 80,
                "duration": 0.25,
                "tempo": 120.0
            },
            {
                "start_time": 47.8931818,
                "end_time": 48.1431818,
                "pitch": 41,
                "velocity": 80,
                "duration": 0.25,
                "tempo": 120.0
            },
            {
                "start_time": 48.1613636,
                "end_time": 48.4113636,
                "pitch": 39,
                "velocity": 80,
                "duration": 0.25,
                "tempo": 120.0
            },
            {
                "start_time": 48.4295455,
                "end_time": 48.55,
                "pitch": 39,
                "velocity": 80,
                "duration": 0.1204545,
                "tempo": 120.0
            },
            {
                "start_time": 48.5681818,
                "end_time": 48.6886364,
                "pitch": 38,
                "velocity": 80,
                "duration": 0.1204545,
                "tempo": 120.0
            },
            {
                "start_time": 48.8454545,
                "end_time": 48.9636364,
                "pitch": 36,
                "velocity": 80,
                "duration": 0.1181818,
                "tempo": 120.0
            },
            {
                "start_time": 48.9795455,
                "end_time": 49.3568182,
                "pitch": 38,
                "velocity": 80,
                "duration": 0.3772727,
                "tempo": 120.0
            },
            {
                "start_time": 49.375,
                "end_time": 49.4909091,
                "pitch": 37,
                "velocity": 80,
                "duration": 0.1159091,
                "tempo": 120.0
            },
            {
                "start_time": 49.5068182,
                "end_time": 49.625,
                "pitch": 37,
                "velocity": 80,
                "duration": 0.1181818,
                "tempo": 120.0
            },
            {
                "start_time": 49.7795455,
                "end_time": 49.8977273,
                "pitch": 37,
                "velocity": 80,
                "duration": 0.1181818,
                "tempo": 120.0
            },
            {
                "start_time": 50.0477273,
                "end_time": 50.1636364,
                "pitch": 37,
                "velocity": 80,
                "duration": 0.1159091,
                "tempo": 120.0
            },
            {
                "start_time": 50.3113636,
                "end_time": 50.5590909,
                "pitch": 37,
                "velocity": 80,
                "duration": 0.2477273,
                "tempo": 120.0
            },
            {
                "start_time": 50.5772727,
                "end_time": 50.6954545,
                "pitch": 37,
                "velocity": 80,
                "duration": 0.1181818,
                "tempo": 120.0
            },
            {
                "start_time": 50.7113636,
                "end_time": 50.8318182,
                "pitch": 49,
                "velocity": 80,
                "duration": 0.1204545,
                "tempo": 120.0
            },
            {
                "start_time": 50.8477273,
                "end_time": 50.9659091,
                "pitch": 37,
                "velocity": 80,
                "duration": 0.1181818,
                "tempo": 120.0
            },
            {
                "start_time": 50.9840909,
                "end_time": 51.1022727,
                "pitch": 47,
                "velocity": 80,
                "duration": 0.1181818,
                "tempo": 120.0
            },
            {
                "start_time": 51.1181818,
                "end_time": 51.2363636,
                "pitch": 49,
                "velocity": 80,
                "duration": 0.1181818,
                "tempo": 120.0
            },
            {
                "start_time": 51.2522727,
                "end_time": 51.3681818,
                "pitch": 37,
                "velocity": 80,
                "duration": 0.1159091,
                "tempo": 120.0
            },
            {
                "start_time": 51.3863636,
                "end_time": 51.6363636,
                "pitch": 47,
                "velocity": 80,
                "duration": 0.25,
                "tempo": 120.0
            },
            {
                "start_time": 51.6545455,
                "end_time": 51.7727273,
                "pitch": 37,
                "velocity": 80,
                "duration": 0.1181818,
                "tempo": 120.0
            },
            {
                "start_time": 51.7909091,
                "end_time": 51.9090909,
                "pitch": 49,
                "velocity": 80,
                "duration": 0.1181818,
                "tempo": 120.0
            },
            {
                "start_time": 51.9272727,
                "end_time": 52.0454545,
                "pitch": 37,
                "velocity": 80,
                "duration": 0.1181818,
                "tempo": 120.0
            },
            {
                "start_time": 52.0636364,
                "end_time": 52.1795455,
                "pitch": 47,
                "velocity": 80,
                "duration": 0.1159091,
                "tempo": 120.0
            },
            {
                "start_time": 52.1977273,
                "end_time": 52.5818182,
                "pitch": 48,
                "velocity": 80,
                "duration": 0.3840909,
                "tempo": 120.0
            },
            {
                "start_time": 52.5977273,
                "end_time": 52.9818182,
                "pitch": 41,
                "velocity": 80,
                "duration": 0.3840909,
                "tempo": 120.0
            },
            {
                "start_time": 53.0,
                "end_time": 53.3795455,
                "pitch": 39,
                "velocity": 80,
                "duration": 0.3795455,
                "tempo": 120.0
            },
            {
                "start_time": 53.3954545,
                "end_time": 53.6409091,
                "pitch": 38,
                "velocity": 80,
                "duration": 0.2454545,
                "tempo": 120.0
            },
            {
                "start_time": 53.6590909,
                "end_time": 53.775,
                "pitch": 46,
                "velocity": 80,
                "duration": 0.1159091,
                "tempo": 120.0
            },
            {
                "start_time": 53.7931818,
                "end_time": 53.9136364,
                "pitch": 34,
                "velocity": 80,
                "duration": 0.1204545,
                "tempo": 120.0
            },
            {
                "start_time": 54.0704545,
                "end_time": 54.1909091,
                "pitch": 34,
                "velocity": 80,
                "duration": 0.1204545,
                "tempo": 120.0
            },
            {
                "start_time": 54.8818182,
                "end_time": 55.0022727,
                "pitch": 44,
                "velocity": 80,
                "duration": 0.1204545,
                "tempo": 120.0
            },
            {
                "start_time": 55.0204545,
                "end_time": 55.1409091,
                "pitch": 46,
                "velocity": 80,
                "duration": 0.1204545,
                "tempo": 120.0
            },
            {
                "start_time": 55.1590909,
                "end_time": 55.2795455,
                "pitch": 34,
                "velocity": 80,
                "duration": 0.1204545,
                "tempo": 120.0
            },
            {
                "start_time": 55.2954545,
                "end_time": 55.4159091,
                "pitch": 41,
                "velocity": 80,
                "duration": 0.1204545,
                "tempo": 120.0
            },
            {
                "start_time": 55.4318182,
                "end_time": 55.5454545,
                "pitch": 34,
                "velocity": 80,
                "duration": 0.1136364,
                "tempo": 120.0
            },
            {
                "start_time": 55.825,
                "end_time": 55.9409091,
                "pitch": 34,
                "velocity": 80,
                "duration": 0.1159091,
                "tempo": 120.0
            },
            {
                "start_time": 55.9568182,
                "end_time": 56.075,
                "pitch": 34,
                "velocity": 80,
                "duration": 0.1181818,
                "tempo": 120.0
            },
            {
                "start_time": 56.225,
                "end_time": 56.3409091,
                "pitch": 34,
                "velocity": 80,
                "duration": 0.1159091,
                "tempo": 120.0
            },
            {
                "start_time": 57.0295455,
                "end_time": 57.15,
                "pitch": 34,
                "velocity": 80,
                "duration": 0.1204545,
                "tempo": 120.0
            },
            {
                "start_time": 57.1681818,
                "end_time": 57.2886364,
                "pitch": 41,
                "velocity": 80,
                "duration": 0.1204545,
                "tempo": 120.0
            },
            {
                "start_time": 57.3045455,
                "end_time": 57.4272727,
                "pitch": 34,
                "velocity": 80,
                "duration": 0.1227273,
                "tempo": 120.0
            },
            {
                "start_time": 57.4454545,
                "end_time": 57.5636364,
                "pitch": 44,
                "velocity": 80,
                "duration": 0.1181818,
                "tempo": 120.0
            },
            {
                "start_time": 57.5795455,
                "end_time": 57.9636364,
                "pitch": 46,
                "velocity": 80,
                "duration": 0.3840909,
                "tempo": 120.0
            },
            {
                "start_time": 57.9818182,
                "end_time": 58.0977273,
                "pitch": 45,
                "velocity": 80,
                "duration": 0.1159091,
                "tempo": 120.0
            },
            {
                "start_time": 58.1159091,
                "end_time": 58.2318182,
                "pitch": 33,
                "velocity": 80,
                "duration": 0.1159091,
                "tempo": 120.0
            },
            {
                "start_time": 58.3818182,
                "end_time": 58.4977273,
                "pitch": 33,
                "velocity": 80,
                "duration": 0.1159091,
                "tempo": 120.0
            },
            {
                "start_time": 59.1863636,
                "end_time": 59.3068182,
                "pitch": 43,
                "velocity": 80,
                "duration": 0.1204545,
                "tempo": 120.0
            },
            {
                "start_time": 59.325,
                "end_time": 59.4454545,
                "pitch": 45,
                "velocity": 80,
                "duration": 0.1204545,
                "tempo": 120.0
            },
            {
                "start_time": 59.4613636,
                "end_time": 59.5840909,
                "pitch": 33,
                "velocity": 80,
                "duration": 0.1227273,
                "tempo": 120.0
            },
            {
                "start_time": 59.6,
                "end_time": 59.7204545,
                "pitch": 39,
                "velocity": 80,
                "duration": 0.1204545,
                "tempo": 120.0
            },
            {
                "start_time": 59.7363636,
                "end_time": 59.85,
                "pitch": 33,
                "velocity": 80,
                "duration": 0.1136364,
                "tempo": 120.0
            },
            {
                "start_time": 60.1295455,
                "end_time": 60.2454545,
                "pitch": 33,
                "velocity": 80,
                "duration": 0.1159091,
                "tempo": 120.0
            },
            {
                "start_time": 60.2613636,
                "end_time": 60.3795455,
                "pitch": 33,
                "velocity": 80,
                "duration": 0.1181818,
                "tempo": 120.0
            },
            {
                "start_time": 60.5295455,
                "end_time": 60.6454545,
                "pitch": 33,
                "velocity": 80,
                "duration": 0.1159091,
                "tempo": 120.0
            },
            {
                "start_time": 61.3318182,
                "end_time": 61.4545455,
                "pitch": 33,
                "velocity": 80,
                "duration": 0.1227273,
                "tempo": 120.0
            },
            {
                "start_time": 61.4704545,
                "end_time": 61.5931818,
                "pitch": 45,
                "velocity": 80,
                "duration": 0.1227273,
                "tempo": 120.0
            },
            {
                "start_time": 61.6090909,
                "end_time": 61.7318182,
                "pitch": 33,
                "velocity": 80,
                "duration": 0.1227273,
                "tempo": 120.0
            },
            {
                "start_time": 61.7477273,
                "end_time": 61.8659091,
                "pitch": 43,
                "velocity": 80,
                "duration": 0.1181818,
                "tempo": 120.0
            },
            {
                "start_time": 61.8840909,
                "end_time": 62.2613636,
                "pitch": 45,
                "velocity": 80,
                "duration": 0.3772727,
                "tempo": 120.0
            },
            {
                "start_time": 62.2772727,
                "end_time": 62.3931818,
                "pitch": 44,
                "velocity": 80,
                "duration": 0.1159091,
                "tempo": 120.0
            },
            {
                "start_time": 62.4090909,
                "end_time": 62.5272727,
                "pitch": 32,
                "velocity": 80,
                "duration": 0.1181818,
                "tempo": 120.0
            },
            {
                "start_time": 62.6772727,
                "end_time": 62.7931818,
                "pitch": 32,
                "velocity": 80,
                "duration": 0.1159091,
                "tempo": 120.0
            },
            {
                "start_time": 63.4886364,
                "end_time": 63.6068182,
                "pitch": 43,
                "velocity": 80,
                "duration": 0.1181818,
                "tempo": 120.0
            },
            {
                "start_time": 63.625,
                "end_time": 63.7431818,
                "pitch": 44,
                "velocity": 80,
                "duration": 0.1181818,
                "tempo": 120.0
            },
            {
                "start_time": 63.7613636,
                "end_time": 63.8795455,
                "pitch": 32,
                "velocity": 80,
                "duration": 0.1181818,
                "tempo": 120.0
            },
            {
                "start_time": 63.8977273,
                "end_time": 64.0159091,
                "pitch": 41,
                "velocity": 80,
                "duration": 0.1181818,
                "tempo": 120.0
            },
            {
                "start_time": 64.0318182,
                "end_time": 64.1477273,
                "pitch": 32,
                "velocity": 80,
                "duration": 0.1159091,
                "tempo": 120.0
            },
            {
                "start_time": 64.4340909,
                "end_time": 64.55,
                "pitch": 44,
                "velocity": 80,
                "duration": 0.1159091,
                "tempo": 120.0
            },
            {
                "start_time": 64.5659091,
                "end_time": 64.6840909,
                "pitch": 32,
                "velocity": 80,
                "duration": 0.1181818,
                "tempo": 120.0
            },
            {
                "start_time": 64.8340909,
                "end_time": 64.95,
                "pitch": 32,
                "velocity": 80,
                "duration": 0.1159091,
                "tempo": 120.0
            },
            {
                "start_time": 65.6363636,
                "end_time": 65.7545455,
                "pitch": 43,
                "velocity": 80,
                "duration": 0.1181818,
                "tempo": 120.0
            },
            {
                "start_time": 65.7727273,
                "end_time": 65.8909091,
                "pitch": 44,
                "velocity": 80,
                "duration": 0.1181818,
                "tempo": 120.0
            },
            {
                "start_time": 65.9090909,
                "end_time": 66.0272727,
                "pitch": 32,
                "velocity": 80,
                "duration": 0.1181818,
                "tempo": 120.0
            },
            {
                "start_time": 66.0454545,
                "end_time": 66.1613636,
                "pitch": 41,
                "velocity": 80,
                "duration": 0.1159091,
                "tempo": 120.0
            },
            {
                "start_time": 66.1795455,
                "end_time": 66.2954545,
                "pitch": 32,
                "velocity": 80,
                "duration": 0.1159091,
                "tempo": 120.0
            },
            {
                "start_time": 66.5795455,
                "end_time": 66.6977273,
                "pitch": 46,
                "velocity": 80,
                "duration": 0.1181818,
                "tempo": 120.0
            },
            {
                "start_time": 66.7136364,
                "end_time": 66.8295455,
                "pitch": 48,
                "velocity": 80,
                "duration": 0.1159091,
                "tempo": 120.0
            },
            {
                "start_time": 66.8477273,
                "end_time": 66.9636364,
                "pitch": 41,
                "velocity": 80,
                "duration": 0.1159091,
                "tempo": 120.0
            },
            {
                "start_time": 66.9818182,
                "end_time": 67.2318182,
                "pitch": 36,
                "velocity": 80,
                "duration": 0.25,
                "tempo": 120.0
            },
            {
                "start_time": 67.2477273,
                "end_time": 67.4977273,
                "pitch": 48,
                "velocity": 80,
                "duration": 0.25,
                "tempo": 120.0
            },
            {
                "start_time": 67.5159091,
                "end_time": 67.6318182,
                "pitch": 35,
                "velocity": 80,
                "duration": 0.1159091,
                "tempo": 120.0
            },
            {
                "start_time": 67.7840909,
                "end_time": 67.9045455,
                "pitch": 35,
                "velocity": 80,
                "duration": 0.1204545,
                "tempo": 120.0
            },
            {
                "start_time": 67.9227273,
                "end_time": 68.0431818,
                "pitch": 34,
                "velocity": 80,
                "duration": 0.1204545,
                "tempo": 120.0
            },
            {
                "start_time": 68.2,
                "end_time": 68.3181818,
                "pitch": 27,
                "velocity": 80,
                "duration": 0.1181818,
                "tempo": 120.0
            },
            {
                "start_time": 68.3340909,
                "end_time": 68.7113636,
                "pitch": 32,
                "velocity": 80,
                "duration": 0.3772727,
                "tempo": 120.0
            },
            {
                "start_time": 68.7295455,
                "end_time": 68.9772727,
                "pitch": 44,
                "velocity": 80,
                "duration": 0.2477273,
                "tempo": 120.0
            },
            {
                "start_time": 68.9954545,
                "end_time": 69.1113636,
                "pitch": 32,
                "velocity": 80,
                "duration": 0.1159091,
                "tempo": 120.0
            },
            {
                "start_time": 69.1272727,
                "end_time": 69.2454545,
                "pitch": 39,
                "velocity": 80,
                "duration": 0.1181818,
                "tempo": 120.0
            },
            {
                "start_time": 69.3954545,
                "end_time": 69.5113636,
                "pitch": 44,
                "velocity": 80,
                "duration": 0.1159091,
                "tempo": 120.0
            },
            {
                "start_time": 69.6636364,
                "end_time": 69.9136364,
                "pitch": 43,
                "velocity": 80,
                "duration": 0.25,
                "tempo": 120.0
            },
            {
                "start_time": 69.9318182,
                "end_time": 70.05,
                "pitch": 32,
                "velocity": 80,
                "duration": 0.1181818,
                "tempo": 120.0
            },
            {
                "start_time": 70.0659091,
                "end_time": 70.1863636,
                "pitch": 32,
                "velocity": 80,
                "duration": 0.1204545,
                "tempo": 120.0
            },
            {
                "start_time": 70.3386364,
                "end_time": 70.4568182,
                "pitch": 51,
                "velocity": 80,
                "duration": 0.1181818,
                "tempo": 120.0
            },
            {
                "start_time": 70.4727273,
                "end_time": 70.8568182,
                "pitch": 44,
                "velocity": 80,
                "duration": 0.3840909,
                "tempo": 120.0
            },
            {
                "start_time": 70.875,
                "end_time": 70.9909091,
                "pitch": 44,
                "velocity": 80,
                "duration": 0.1159091,
                "tempo": 120.0
            },
            {
                "start_time": 71.0090909,
                "end_time": 71.125,
                "pitch": 32,
                "velocity": 80,
                "duration": 0.1159091,
                "tempo": 120.0
            },
            {
                "start_time": 71.275,
                "end_time": 71.3909091,
                "pitch": 32,
                "velocity": 80,
                "duration": 0.1159091,
                "tempo": 120.0
            },
            {
                "start_time": 72.0886364,
                "end_time": 72.3431818,
                "pitch": 29,
                "velocity": 80,
                "duration": 0.2545455,
                "tempo": 120.0
            },
            {
                "start_time": 72.3590909,
                "end_time": 72.4795455,
                "pitch": 29,
                "velocity": 80,
                "duration": 0.1204545,
                "tempo": 120.0
            },
            {
                "start_time": 72.4954545,
                "end_time": 72.6136364,
                "pitch": 31,
                "velocity": 80,
                "duration": 0.1181818,
                "tempo": 120.0
            },
            {
                "start_time": 72.6295455,
                "end_time": 72.7477273,
                "pitch": 43,
                "velocity": 80,
                "duration": 0.1181818,
                "tempo": 120.0
            },
            {
                "start_time": 72.7636364,
                "end_time": 72.8818182,
                "pitch": 31,
                "velocity": 80,
                "duration": 0.1181818,
                "tempo": 120.0
            },
            {
                "start_time": 73.0318182,
                "end_time": 73.1477273,
                "pitch": 44,
                "velocity": 80,
                "duration": 0.1159091,
                "tempo": 120.0
            },
            {
                "start_time": 73.1659091,
                "end_time": 73.2818182,
                "pitch": 32,
                "velocity": 80,
                "duration": 0.1159091,
                "tempo": 120.0
            },
            {
                "start_time": 73.4318182,
                "end_time": 73.55,
                "pitch": 32,
                "velocity": 80,
                "duration": 0.1181818,
                "tempo": 120.0
            },
            {
                "start_time": 74.2363636,
                "end_time": 74.3568182,
                "pitch": 43,
                "velocity": 80,
                "duration": 0.1204545,
                "tempo": 120.0
            },
            {
                "start_time": 74.375,
                "end_time": 74.4954545,
                "pitch": 44,
                "velocity": 80,
                "duration": 0.1204545,
                "tempo": 120.0
            },
            {
                "start_time": 74.5136364,
                "end_time": 74.6340909,
                "pitch": 36,
                "velocity": 80,
                "duration": 0.1204545,
                "tempo": 120.0
            },
            {
                "start_time": 74.6522727,
                "end_time": 74.7704545,
                "pitch": 43,
                "velocity": 80,
                "duration": 0.1181818,
                "tempo": 120.0
            },
            {
                "start_time": 74.7863636,
                "end_time": 75.1636364,
                "pitch": 44,
                "velocity": 80,
                "duration": 0.3772727,
                "tempo": 120.0
            },
            {
                "start_time": 75.1795455,
                "end_time": 75.2954545,
                "pitch": 44,
                "velocity": 80,
                "duration": 0.1159091,
                "tempo": 120.0
            },
            {
                "start_time": 75.3113636,
                "end_time": 75.4295455,
                "pitch": 32,
                "velocity": 80,
                "duration": 0.1181818,
                "tempo": 120.0
            },
            {
                "start_time": 75.5795455,
                "end_time": 75.6954545,
                "pitch": 32,
                "velocity": 80,
                "duration": 0.1159091,
                "tempo": 120.0
            },
            {
                "start_time": 76.3840909,
                "end_time": 76.5045455,
                "pitch": 41,
                "velocity": 80,
                "duration": 0.1204545,
                "tempo": 120.0
            },
            {
                "start_time": 76.5227273,
                "end_time": 76.6431818,
                "pitch": 43,
                "velocity": 80,
                "duration": 0.1204545,
                "tempo": 120.0
            },
            {
                "start_time": 76.6613636,
                "end_time": 76.7818182,
                "pitch": 40,
                "velocity": 80,
                "duration": 0.1204545,
                "tempo": 120.0
            },
            {
                "start_time": 76.7977273,
                "end_time": 76.9159091,
                "pitch": 41,
                "velocity": 80,
                "duration": 0.1181818,
                "tempo": 120.0
            },
            {
                "start_time": 76.9340909,
                "end_time": 77.3113636,
                "pitch": 43,
                "velocity": 80,
                "duration": 0.3772727,
                "tempo": 120.0
            },
            {
                "start_time": 77.3272727,
                "end_time": 77.4431818,
                "pitch": 45,
                "velocity": 80,
                "duration": 0.1159091,
                "tempo": 120.0
            },
            {
                "start_time": 77.4590909,
                "end_time": 77.5772727,
                "pitch": 33,
                "velocity": 80,
                "duration": 0.1181818,
                "tempo": 120.0
            },
            {
                "start_time": 77.7272727,
                "end_time": 77.8431818,
                "pitch": 33,
                "velocity": 80,
                "duration": 0.1159091,
                "tempo": 120.0
            },
            {
                "start_time": 78.5386364,
                "end_time": 78.6545455,
                "pitch": 43,
                "velocity": 80,
                "duration": 0.1159091,
                "tempo": 120.0
            },
            {
                "start_time": 78.6727273,
                "end_time": 78.7886364,
                "pitch": 45,
                "velocity": 80,
                "duration": 0.1159091,
                "tempo": 120.0
            },
            {
                "start_time": 78.8045455,
                "end_time": 78.9227273,
                "pitch": 41,
                "velocity": 80,
                "duration": 0.1181818,
                "tempo": 120.0
            },
            {
                "start_time": 78.9386364,
                "end_time": 79.0568182,
                "pitch": 40,
                "velocity": 80,
                "duration": 0.1181818,
                "tempo": 120.0
            },
            {
                "start_time": 79.0727273,
                "end_time": 79.4636364,
                "pitch": 43,
                "velocity": 80,
                "duration": 0.3909091,
                "tempo": 120.0
            },
            {
                "start_time": 79.4818182,
                "end_time": 79.6,
                "pitch": 44,
                "velocity": 80,
                "duration": 0.1181818,
                "tempo": 120.0
            },
            {
                "start_time": 79.6159091,
                "end_time": 79.7340909,
                "pitch": 32,
                "velocity": 80,
                "duration": 0.1181818,
                "tempo": 120.0
            },
            {
                "start_time": 79.8840909,
                "end_time": 80.0,
                "pitch": 32,
                "velocity": 80,
                "duration": 0.1159091,
                "tempo": 120.0
            },
            {
                "start_time": 80.6863636,
                "end_time": 80.9477273,
                "pitch": 29,
                "velocity": 80,
                "duration": 0.2613636,
                "tempo": 120.0
            },
            {
                "start_time": 80.9636364,
                "end_time": 81.0840909,
                "pitch": 29,
                "velocity": 80,
                "duration": 0.1204545,
                "tempo": 120.0
            },
            {
                "start_time": 81.1022727,
                "end_time": 81.2204545,
                "pitch": 31,
                "velocity": 80,
                "duration": 0.1181818,
                "tempo": 120.0
            },
            {
                "start_time": 81.2386364,
                "end_time": 81.3522727,
                "pitch": 43,
                "velocity": 80,
                "duration": 0.1136364,
                "tempo": 120.0
            },
            {
                "start_time": 81.3681818,
                "end_time": 81.4840909,
                "pitch": 31,
                "velocity": 80,
                "duration": 0.1159091,
                "tempo": 120.0
            },
            {
                "start_time": 81.6318182,
                "end_time": 81.7477273,
                "pitch": 44,
                "velocity": 80,
                "duration": 0.1159091,
                "tempo": 120.0
            },
            {
                "start_time": 81.7636364,
                "end_time": 81.8795455,
                "pitch": 32,
                "velocity": 80,
                "duration": 0.1159091,
                "tempo": 120.0
            },
            {
                "start_time": 82.0318182,
                "end_time": 82.1477273,
                "pitch": 32,
                "velocity": 80,
                "duration": 0.1159091,
                "tempo": 120.0
            },
            {
                "start_time": 82.8340909,
                "end_time": 82.9568182,
                "pitch": 43,
                "velocity": 80,
                "duration": 0.1227273,
                "tempo": 120.0
            },
            {
                "start_time": 82.9727273,
                "end_time": 83.0931818,
                "pitch": 44,
                "velocity": 80,
                "duration": 0.1204545,
                "tempo": 120.0
            },
            {
                "start_time": 83.1113636,
                "end_time": 83.2318182,
                "pitch": 36,
                "velocity": 80,
                "duration": 0.1204545,
                "tempo": 120.0
            },
            {
                "start_time": 83.25,
                "end_time": 83.3704545,
                "pitch": 43,
                "velocity": 80,
                "duration": 0.1204545,
                "tempo": 120.0
            },
            {
                "start_time": 83.3863636,
                "end_time": 83.7704545,
                "pitch": 44,
                "velocity": 80,
                "duration": 0.3840909,
                "tempo": 120.0
            },
            {
                "start_time": 83.7886364,
                "end_time": 83.9022727,
                "pitch": 34,
                "velocity": 80,
                "duration": 0.1136364,
                "tempo": 120.0
            },
            {
                "start_time": 83.9204545,
                "end_time": 84.0340909,
                "pitch": 34,
                "velocity": 80,
                "duration": 0.1136364,
                "tempo": 120.0
            },
            {
                "start_time": 84.05,
                "end_time": 84.1659091,
                "pitch": 46,
                "velocity": 80,
                "duration": 0.1159091,
                "tempo": 120.0
            },
            {
                "start_time": 84.1818182,
                "end_time": 84.2977273,
                "pitch": 34,
                "velocity": 80,
                "duration": 0.1159091,
                "tempo": 120.0
            },
            {
                "start_time": 84.3136364,
                "end_time": 84.4295455,
                "pitch": 34,
                "velocity": 80,
                "duration": 0.1159091,
                "tempo": 120.0
            },
            {
                "start_time": 84.4477273,
                "end_time": 84.5659091,
                "pitch": 34,
                "velocity": 80,
                "duration": 0.1181818,
                "tempo": 120.0
            },
            {
                "start_time": 84.7181818,
                "end_time": 84.8386364,
                "pitch": 44,
                "velocity": 80,
                "duration": 0.1204545,
                "tempo": 120.0
            },
            {
                "start_time": 84.8545455,
                "end_time": 84.975,
                "pitch": 46,
                "velocity": 80,
                "duration": 0.1204545,
                "tempo": 120.0
            },
            {
                "start_time": 84.9909091,
                "end_time": 85.2454545,
                "pitch": 34,
                "velocity": 80,
                "duration": 0.2545455,
                "tempo": 120.0
            },
            {
                "start_time": 85.2636364,
                "end_time": 85.3818182,
                "pitch": 34,
                "velocity": 80,
                "duration": 0.1181818,
                "tempo": 120.0
            },
            {
                "start_time": 85.4,
                "end_time": 85.5181818,
                "pitch": 32,
                "velocity": 80,
                "duration": 0.1181818,
                "tempo": 120.0
            },
            {
                "start_time": 85.5340909,
                "end_time": 85.65,
                "pitch": 32,
                "velocity": 80,
                "duration": 0.1159091,
                "tempo": 120.0
            },
            {
                "start_time": 85.6681818,
                "end_time": 85.9181818,
                "pitch": 34,
                "velocity": 80,
                "duration": 0.25,
                "tempo": 120.0
            },
            {
                "start_time": 85.9340909,
                "end_time": 86.0522727,
                "pitch": 44,
                "velocity": 80,
                "duration": 0.1181818,
                "tempo": 120.0
            },
            {
                "start_time": 86.0681818,
                "end_time": 86.1840909,
                "pitch": 46,
                "velocity": 80,
                "duration": 0.1159091,
                "tempo": 120.0
            },
            {
                "start_time": 86.2022727,
                "end_time": 86.3181818,
                "pitch": 34,
                "velocity": 80,
                "duration": 0.1159091,
                "tempo": 120.0
            },
            {
                "start_time": 86.3363636,
                "end_time": 86.4522727,
                "pitch": 34,
                "velocity": 80,
                "duration": 0.1159091,
                "tempo": 120.0
            },
            {
                "start_time": 86.6022727,
                "end_time": 86.7204545,
                "pitch": 32,
                "velocity": 80,
                "duration": 0.1181818,
                "tempo": 120.0
            },
            {
                "start_time": 86.8704545,
                "end_time": 86.9863636,
                "pitch": 29,
                "velocity": 80,
                "duration": 0.1159091,
                "tempo": 120.0
            },
            {
                "start_time": 87.1363636,
                "end_time": 87.2545455,
                "pitch": 29,
                "velocity": 80,
                "duration": 0.1181818,
                "tempo": 120.0
            },
            {
                "start_time": 87.2704545,
                "end_time": 87.3863636,
                "pitch": 43,
                "velocity": 80,
                "duration": 0.1159091,
                "tempo": 120.0
            },
            {
                "start_time": 87.5386364,
                "end_time": 87.6545455,
                "pitch": 32,
                "velocity": 80,
                "duration": 0.1159091,
                "tempo": 120.0
            },
            {
                "start_time": 87.6727273,
                "end_time": 88.0636364,
                "pitch": 46,
                "velocity": 80,
                "duration": 0.3909091,
                "tempo": 120.0
            },
            {
                "start_time": 88.0818182,
                "end_time": 88.0840909,
                "pitch": 29,
                "velocity": 80,
                "duration": 0.0022727,
                "tempo": 120.0
            }
        ],
        "Vibraphone": [
            {
                "start_time": 15.2295455,
                "end_time": 15.6181818,
                "pitch": 70,
                "velocity": 64,
                "duration": 0.3886364,
                "tempo": 120.0
            },
            {
                "start_time": 15.6363636,
                "end_time": 16.0204545,
                "pitch": 72,
                "velocity": 64,
                "duration": 0.3840909,
                "tempo": 120.0
            },
            {
                "start_time": 16.0363636,
                "end_time": 16.425,
                "pitch": 70,
                "velocity": 64,
                "duration": 0.3886364,
                "tempo": 120.0
            },
            {
                "start_time": 16.4431818,
                "end_time": 16.5613636,
                "pitch": 68,
                "velocity": 64,
                "duration": 0.1181818,
                "tempo": 120.0
            },
            {
                "start_time": 16.7136364,
                "end_time": 16.9636364,
                "pitch": 67,
                "velocity": 64,
                "duration": 0.25,
                "tempo": 120.0
            },
            {
                "start_time": 32.4340909,
                "end_time": 32.8181818,
                "pitch": 70,
                "velocity": 64,
                "duration": 0.3840909,
                "tempo": 120.0
            },
            {
                "start_time": 32.8363636,
                "end_time": 33.2181818,
                "pitch": 72,
                "velocity": 64,
                "duration": 0.3818182,
                "tempo": 120.0
            },
            {
                "start_time": 33.2363636,
                "end_time": 33.625,
                "pitch": 70,
                "velocity": 64,
                "duration": 0.3886364,
                "tempo": 120.0
            },
            {
                "start_time": 33.6431818,
                "end_time": 33.7613636,
                "pitch": 68,
                "velocity": 64,
                "duration": 0.1181818,
                "tempo": 120.0
            },
            {
                "start_time": 33.9136364,
                "end_time": 34.2977273,
                "pitch": 67,
                "velocity": 64,
                "duration": 0.3840909,
                "tempo": 120.0
            }
        ],
        "Violin": [
            {
                "start_time": 34.3159091,
                "end_time": 35.9181818,
                "pitch": 62,
                "velocity": 64,
                "duration": 1.6022727,
                "tempo": 120.0
            },
            {
                "start_time": 35.9363636,
                "end_time": 36.4545455,
                "pitch": 67,
                "velocity": 64,
                "duration": 0.5181818,
                "tempo": 120.0
            },
            {
                "start_time": 36.4704545,
                "end_time": 38.6,
                "pitch": 65,
                "velocity": 64,
                "duration": 2.1295455,
                "tempo": 120.0
            },
            {
                "start_time": 38.6181818,
                "end_time": 40.2204545,
                "pitch": 65,
                "velocity": 64,
                "duration": 1.6022727,
                "tempo": 120.0
            },
            {
                "start_time": 40.2386364,
                "end_time": 40.7568182,
                "pitch": 68,
                "velocity": 64,
                "duration": 0.5181818,
                "tempo": 120.0
            },
            {
                "start_time": 40.775,
                "end_time": 42.9022727,
                "pitch": 70,
                "velocity": 64,
                "duration": 2.1272727,
                "tempo": 120.0
            },
            {
                "start_time": 42.9204545,
                "end_time": 44.525,
                "pitch": 63,
                "velocity": 64,
                "duration": 1.6045455,
                "tempo": 120.0
            },
            {
                "start_time": 44.5431818,
                "end_time": 45.0613636,
                "pitch": 67,
                "velocity": 64,
                "duration": 0.5181818,
                "tempo": 120.0
            },
            {
                "start_time": 45.0795455,
                "end_time": 47.2068182,
                "pitch": 67,
                "velocity": 64,
                "duration": 2.1272727,
                "tempo": 120.0
            },
            {
                "start_time": 47.225,
                "end_time": 48.8272727,
                "pitch": 62,
                "velocity": 64,
                "duration": 1.6022727,
                "tempo": 120.0
            },
            {
                "start_time": 48.8454545,
                "end_time": 49.3568182,
                "pitch": 62,
                "velocity": 64,
                "duration": 0.5113636,
                "tempo": 120.0
            },
            {
                "start_time": 49.375,
                "end_time": 51.7727273,
                "pitch": 63,
                "velocity": 64,
                "duration": 2.3977273,
                "tempo": 120.0
            },
            {
                "start_time": 51.7909091,
                "end_time": 52.1795455,
                "pitch": 63,
                "velocity": 64,
                "duration": 0.3886364,
                "tempo": 120.0
            },
            {
                "start_time": 52.1977273,
                "end_time": 52.5818182,
                "pitch": 62,
                "velocity": 64,
                "duration": 0.3840909,
                "tempo": 120.0
            },
            {
                "start_time": 52.6,
                "end_time": 52.9818182,
                "pitch": 64,
                "velocity": 64,
                "duration": 0.3818182,
                "tempo": 120.0
            },
            {
                "start_time": 53.0,
                "end_time": 53.3795455,
                "pitch": 65,
                "velocity": 64,
                "duration": 0.3795455,
                "tempo": 120.0
            },
            {
                "start_time": 53.3977273,
                "end_time": 53.6431818,
                "pitch": 67,
                "velocity": 64,
                "duration": 0.2454545,
                "tempo": 120.0
            }
        ]
    }
}