{
    "mood": "angry",
    "instruments": {
        "Trumpet": [
            {
                "start_time": 0.2045455,
                "end_time": 0.55,
                "pitch": 62,
                "velocity": 40,
                "duration": 0.3454545,
                "tempo": 120.0
            },
            {
                "start_time": 0.55,
                "end_time": 0.7272727,
                "pitch": 62,
                "velocity": 32,
                "duration": 0.1772727,
                "tempo": 120.0
            },
            {
                "start_time": 0.7272727,
                "end_time": 1.0613636,
                "pitch": 69,
                "velocity": 40,
                "duration": 0.3340909,
                "tempo": 120.0
            },
            {
                "start_time": 1.0613636,
                "end_time": 1.2386364,
                "pitch": 69,
                "velocity": 32,
                "duration": 0.1772727,
                "tempo": 120.0
            },
            {
                "start_time": 1.2386364,
                "end_time": 1.5840909,
                "pitch": 65,
                "velocity": 40,
                "duration": 0.3454545,
                "tempo": 120.0
            },
            {
                "start_time": 1.5840909,
                "end_time": 1.9136364,
                "pitch": 68,
                "velocity": 40,
                "duration": 0.3295455,
                "tempo": 120.0
            },
            {
                "start_time": 1.9136364,
                "end_time": 2.075,
                "pitch": 68,
                "velocity": 32,
                "duration": 0.1613636,
                "tempo": 120.0
            },
            {
                "start_time": 2.075,
                "end_time": 2.4181818,
                "pitch": 68,
                "velocity": 32,
                "duration": 0.3431818,
                "tempo": 120.0
            },
            {
                "start_time": 2.4181818,
                "end_time": 2.7704545,
                "pitch": 69,
                "velocity": 25,
                "duration": 0.3522727,
                "tempo": 120.0
            },
            {
                "start_time": 2.7704545,
                "end_time": 2.925,
                "pitch": 69,
                "velocity": 20,
                "duration": 0.1545455,
                "tempo": 120.0
            },
            {
                "start_time": 2.925,
                "end_time": 3.2659091,
                "pitch": 62,
                "velocity": 40,
                "duration": 0.3409091,
                "tempo": 120.0
            },
            {
                "start_time": 3.2659091,
                "end_time": 3.4340909,
                "pitch": 62,
                "velocity": 32,
                "duration": 0.1681818,
                "tempo": 120.0
            },
            {
                "start_time": 3.4340909,
                "end_time": 3.7681818,
                "pitch": 70,
                "velocity": 40,
                "duration": 0.3340909,
                "tempo": 120.0
            },
            {
                "start_time": 3.7681818,
                "end_time": 3.9454545,
                "pitch": 70,
                "velocity": 32,
                "duration": 0.1772727,
                "tempo": 120.0
            },
            {
                "start_time": 3.9454545,
                "end_time": 4.2840909,
                "pitch": 70,
                "velocity": 40,
                "duration": 0.3386364,
                "tempo": 120.0
            },
            {
                "start_time": 4.2840909,
                "end_time": 4.6340909,
                "pitch": 69,
                "velocity": 40,
                "duration": 0.35,
                "tempo": 120.0
            },
            {
                "start_time": 4.6340909,
                "end_time": 4.8068182,
                "pitch": 68,
                "velocity": 32,
                "duration": 0.1727273,
                "tempo": 120.0
            },
            {
                "start_time": 4.8068182,
                "end_time": 5.1522727,
                "pitch": 64,
                "velocity": 32,
                "duration": 0.3454545,
                "tempo": 120.0
            },
            {
                "start_time": 5.1522727,
                "end_time": 5.4863636,
                "pitch": 64,
                "velocity": 25,
                "duration": 0.3340909,
                "tempo": 120.0
            },
            {
                "start_time": 5.4863636,
                "end_time": 5.6636364,
                "pitch": 64,
                "velocity": 20,
                "duration": 0.1772727,
                "tempo": 120.0
            },
            {
                "start_time": 5.6636364,
                "end_time": 6.0022727,
                "pitch": 64,
                "velocity": 40,
                "duration": 0.3386364,
                "tempo": 120.0
            },
            {
                "start_time": 6.0022727,
                "end_time": 6.3318182,
                "pitch": 65,
                "velocity": 32,
                "duration": 0.3295455,
                "tempo": 120.0
            },
            {
                "start_time": 6.3318182,
                "end_time": 6.6659091,
                "pitch": 65,
                "velocity": 25,
                "duration": 0.3340909,
                "tempo": 120.0
            },
            {
                "start_time": 6.6659091,
                "end_time": 7.0068182,
                "pitch": 65,
                "velocity": 20,
                "duration": 0.3409091,
                "tempo": 120.0
            },
            {
                "start_time": 7.0068182,
                "end_time": 7.3454545,
                "pitch": 65,
                "velocity": 40,
                "duration": 0.3386364,
                "tempo": 120.0
            },
            {
                "start_time": 7.3454545,
                "end_time": 7.5136364,
                "pitch": 64,
                "velocity": 32,
                "duration": 0.1681818,
                "tempo": 120.0
            },
            {
                "start_time": 7.5136364,
                "end_time": 7.8568182,
                "pitch": 64,
                "velocity": 40,
                "duration": 0.3431818,
                "tempo": 120.0
            },
            {
                "start_time": 7.8568182,
                "end_time": 8.0295455,
                "pitch": 65,
                "velocity": 32,
                "duration": 0.1727273,
                "tempo": 120.0
            },
            {
                "start_time": 8.0295455,
                "end_time": 8.3704545,
                "pitch": 68,
                "velocity": 40,
                "duration": 0.3409091,
                "tempo": 120.0
            },
            {
                "start_time": 8.3704545,
                "end_time": 8.7045455,
                "pitch": 68,
                "velocity": 40,
                "duration": 0.3340909,
                "tempo": 120.0
            },
            {
                "start_time": 8.7045455,
                "end_time": 9.0613636,
                "pitch": 69,
                "velocity": 32,
                "duration": 0.3568182,
                "tempo": 120.0
            },
            {
                "start_time": 9.0613636,
                "end_time": 9.4068182,
                "pitch": 69,
                "velocity": 25,
                "duration": 0.3454545,
                "tempo": 120.0
            },
            {
                "start_time": 9.4068182,
                "end_time": 9.7454545,
                "pitch": 69,
                "velocity": 20,
                "duration": 0.3386364,
                "tempo": 120.0
            },
            {
                "start_time": 9.7454545,
                "end_time": 10.0840909,
                "pitch": 64,
                "velocity": 40,
                "duration": 0.3386364,
                "tempo": 120.0
            },
            {
                "start_time": 10.0840909,
                "end_time": 10.425,
                "pitch": 64,
                "velocity": 32,
                "duration": 0.3409091,
                "tempo": 120.0
            },
            {
                "start_time": 10.425,
                "end_time": 10.7590909,
                "pitch": 64,
                "velocity": 25,
                "duration": 0.3340909,
                "tempo": 120.0
            },
            {
                "start_time": 10.7590909,
                "end_time": 11.1,
                "pitch": 64,
                "velocity": 20,
                "duration": 0.3409091,
                "tempo": 120.0
            },
            {
                "start_time": 11.1,
                "end_time": 11.4386364,
                "pitch": 62,
                "velocity": 40,
                "duration": 0.3386364,
                "tempo": 120.0
            },
            {
                "start_time": 11.4386364,
                "end_time": 11.7727273,
                "pitch": 62,
                "velocity": 32,
                "duration": 0.3340909,
                "tempo": 120.0
            },
            {
                "start_time": 11.7727273,
                "end_time": 12.1136364,
                "pitch": 62,
                "velocity": 25,
                "duration": 0.3409091,
                "tempo": 120.0
            },
            {
                "start_time": 12.1136364,
                "end_time": 12.4568182,
                "pitch": 62,
                "velocity": 20,
                "duration": 0.3431818,
                "tempo": 120.0
            },
            {
                "start_time": 12.4568182,
                "end_time": 12.7909091,
                "pitch": 57,
                "velocity": 40,
                "duration": 0.3340909,
                "tempo": 120.0
            },
            {
                "start_time": 12.7909091,
                "end_time": 13.1431818,
                "pitch": 57,
                "velocity": 32,
                "duration": 0.3522727,
                "tempo": 120.0
            },
            {
                "start_time": 13.1431818,
                "end_time": 13.4886364,
                "pitch": 57,
                "velocity": 25,
                "duration": 0.3454545,
                "tempo": 120.0
            },
            {
                "start_time": 13.4886364,
                "end_time": 13.8318182,
                "pitch": 57,
                "velocity": 20,
                "duration": 0.3431818,
                "tempo": 120.0
            },
            {
                "start_time": 13.8318182,
                "end_time": 13.9,
                "pitch": 55,
                "velocity": 40,
                "duration": 0.0681818,
                "tempo": 120.0
            },
            {
                "start_time": 13.9,
                "end_time": 13.9704545,
                "pitch": 55,
                "velocity": 40,
                "duration": 0.0704545,
                "tempo": 120.0
            },
            {
                "start_time": 13.9704545,
                "end_time": 14.0386364,
                "pitch": 55,
                "velocity": 40,
                "duration": 0.0681818,
                "tempo": 120.0
            },
            {
                "start_time": 14.0386364,
                "end_time": 14.1045455,
                "pitch": 55,
                "velocity": 40,
                "duration": 0.0659091,
                "tempo": 120.0
            },
            {
                "start_time": 14.1045455,
                "end_time": 14.1727273,
                "pitch": 55,
                "velocity": 40,
                "duration": 0.0681818,
                "tempo": 120.0
            },
            {
                "start_time": 14.1727273,
                "end_time": 14.2386364,
                "pitch": 55,
                "velocity": 32,
                "duration": 0.0659091,
                "tempo": 120.0
            },
            {
                "start_time": 14.2386364,
                "end_time": 14.3045455,
                "pitch": 55,
                "velocity": 32,
                "duration": 0.0659091,
                "tempo": 120.0
            },
            {
                "start_time": 14.3045455,
                "end_time": 14.3727273,
                "pitch": 55,
                "velocity": 32,
                "duration": 0.0681818,
                "tempo": 120.0
            },
            {
                "start_time": 14.3727273,
                "end_time": 14.4386364,
                "pitch": 55,
                "velocity": 32,
                "duration": 0.0659091,
                "tempo": 120.0
            },
            {
                "start_time": 14.4386364,
                "end_time": 14.5068182,
                "pitch": 55,
                "velocity": 32,
                "duration": 0.0681818,
                "tempo": 120.0
            },
            {
                "start_time": 14.5068182,
                "end_time": 14.5727273,
                "pitch": 55,
                "velocity": 25,
                "duration": 0.0659091,
                "tempo": 120.0
            },
            {
                "start_time": 14.5727273,
                "end_time": 14.6409091,
                "pitch": 55,
                "velocity": 25,
                "duration": 0.0681818,
                "tempo": 120.0
            },
            {
                "start_time": 14.6409091,
                "end_time": 14.7090909,
                "pitch": 55,
                "velocity": 25,
                "duration": 0.0681818,
                "tempo": 120.0
            },
            {
                "start_time": 14.7090909,
                "end_time": 14.7772727,
                "pitch": 55,
                "velocity": 25,
                "duration": 0.0681818,
                "tempo": 120.0
            },
            {
                "start_time": 14.7772727,
                "end_time": 14.8454545,
                "pitch": 55,
                "velocity": 25,
                "duration": 0.0681818,
                "tempo": 120.0
            },
            {
                "start_time": 14.8454545,
                "end_time": 14.9159091,
                "pitch": 55,
                "velocity": 20,
                "duration": 0.0704545,
                "tempo": 120.0
            },
            {
                "start_time": 14.9159091,
                "end_time": 14.9840909,
                "pitch": 55,
                "velocity": 20,
                "duration": 0.0681818,
                "tempo": 120.0
            },
            {
                "start_time": 14.9840909,
                "end_time": 15.0522727,
                "pitch": 55,
                "velocity": 20,
                "duration": 0.0681818,
                "tempo": 120.0
            },
            {
                "start_time": 15.0522727,
                "end_time": 15.1181818,
                "pitch": 55,
                "velocity": 20,
                "duration": 0.0659091,
                "tempo": 120.0
            },
            {
                "start_time": 15.1181818,
                "end_time": 15.1863636,
                "pitch": 55,
                "velocity": 20,
                "duration": 0.0681818,
                "tempo": 120.0
            },
            {
                "start_time": 15.1863636,
                "end_time": 15.5204545,
                "pitch": 58,
                "velocity": 40,
                "duration": 0.3340909,
                "tempo": 120.0
            },
            {
                "start_time": 15.5204545,
                "end_time": 15.6886364,
                "pitch": 58,
                "velocity": 32,
                "duration": 0.1681818,
                "tempo": 120.0
            },
            {
                "start_time": 15.6886364,
                "end_time": 16.0318182,
                "pitch": 61,
                "velocity": 40,
                "duration": 0.3431818,
                "tempo": 120.0
            },
            {
                "start_time": 16.0318182,
                "end_time": 16.2045455,
                "pitch": 61,
                "velocity": 32,
                "duration": 0.1727273,
                "tempo": 120.0
            },
            {
                "start_time": 16.2045455,
                "end_time": 16.3772727,
                "pitch": 64,
                "velocity": 40,
                "duration": 0.1727273,
                "tempo": 120.0
            }
        ],
        "Acoustic Bass": [
            {
                "start_time": 0.0204545,
                "end_time": 0.2045455,
                "pitch": 50,
                "velocity": 80,
                "duration": 0.1840909,
                "tempo": 120.0
            },
            {
                "start_time": 0.2045455,
                "end_time": 0.3727273,
                "pitch": 50,
                "velocity": 80,
                "duration": 0.1681818,
                "tempo": 120.0
            },
            {
                "start_time": 0.3727273,
                "end_time": 0.5681818,
                "pitch": 50,
                "velocity": 80,
                "duration": 0.1954545,
                "tempo": 120.0
            },
            {
                "start_time": 0.5681818,
                "end_time": 0.7272727,
                "pitch": 50,
                "velocity": 80,
                "duration": 0.1590909,
                "tempo": 120.0
            },
            {
                "start_time": 0.7272727,
                "end_time": 0.8931818,
                "pitch": 50,
                "velocity": 80,
                "duration": 0.1659091,
                "tempo": 120.0
            },
            {
                "start_time": 0.8931818,
                "end_time": 1.0795455,
                "pitch": 50,
                "velocity": 80,
                "duration": 0.1863636,
                "tempo": 120.0
            },
            {
                "start_time": 1.0795455,
                "end_time": 1.2386364,
                "pitch": 50,
                "velocity": 80,
                "duration": 0.1590909,
                "tempo": 120.0
            },
            {
                "start_time": 1.2386364,
                "end_time": 1.4159091,
                "pitch": 50,
                "velocity": 80,
                "duration": 0.1772727,
                "tempo": 120.0
            },
            {
                "start_time": 1.4159091,
                "end_time": 1.5840909,
                "pitch": 53,
                "velocity": 80,
                "duration": 0.1681818,
                "tempo": 120.0
            },
            {
                "start_time": 1.5840909,
                "end_time": 1.75,
                "pitch": 53,
                "velocity": 80,
                "duration": 0.1659091,
                "tempo": 120.0
            },
            {
                "start_time": 1.75,
                "end_time": 1.9136364,
                "pitch": 53,
                "velocity": 80,
                "duration": 0.1636364,
                "tempo": 120.0
            },
            {
                "start_time": 1.9136364,
                "end_time": 2.075,
                "pitch": 53,
                "velocity": 80,
                "duration": 0.1613636,
                "tempo": 120.0
            },
            {
                "start_time": 2.075,
                "end_time": 2.2477273,
                "pitch": 53,
                "velocity": 80,
                "duration": 0.1727273,
                "tempo": 120.0
            },
            {
                "start_time": 2.2477273,
                "end_time": 2.4181818,
                "pitch": 53,
                "velocity": 80,
                "duration": 0.1704545,
                "tempo": 120.0
            },
            {
                "start_time": 2.4181818,
                "end_time": 2.5863636,
                "pitch": 53,
                "velocity": 80,
                "duration": 0.1681818,
                "tempo": 120.0
            },
            {
                "start_time": 2.5863636,
                "end_time": 2.7704545,
                "pitch": 53,
                "velocity": 80,
                "duration": 0.1840909,
                "tempo": 120.0
            },
            {
                "start_time": 2.7704545,
                "end_time": 2.925,
                "pitch": 50,
                "velocity": 80,
                "duration": 0.1545455,
                "tempo": 120.0
            },
            {
                "start_time": 2.925,
                "end_time": 3.0977273,
                "pitch": 50,
                "velocity": 80,
                "duration": 0.1727273,
                "tempo": 120.0
            },
            {
                "start_time": 3.0977273,
                "end_time": 3.2818182,
                "pitch": 50,
                "velocity": 80,
                "duration": 0.1840909,
                "tempo": 120.0
            },
            {
                "start_time": 3.2818182,
                "end_time": 3.4340909,
                "pitch": 50,
                "velocity": 80,
                "duration": 0.1522727,
                "tempo": 120.0
            },
            {
                "start_time": 3.4340909,
                "end_time": 3.6,
                "pitch": 50,
                "velocity": 80,
                "duration": 0.1659091,
                "tempo": 120.0
            },
            {
                "start_time": 3.6,
                "end_time": 3.7840909,
                "pitch": 50,
                "velocity": 80,
                "duration": 0.1840909,
                "tempo": 120.0
            },
            {
                "start_time": 3.7840909,
                "end_time": 3.9454545,
                "pitch": 50,
                "velocity": 80,
                "duration": 0.1613636,
                "tempo": 120.0
            },
            {
                "start_time": 3.9454545,
                "end_time": 4.1227273,
                "pitch": 50,
                "velocity": 80,
                "duration": 0.1772727,
                "tempo": 120.0
            },
            {
                "start_time": 4.1227273,
                "end_time": 4.2840909,
                "pitch": 53,
                "velocity": 80,
                "duration": 0.1613636,
                "tempo": 120.0
            },
            {
                "start_time": 4.2840909,
                "end_time": 4.4636364,
                "pitch": 53,
                "velocity": 80,
                "duration": 0.1795455,
                "tempo": 120.0
            },
            {
                "start_time": 4.4636364,
                "end_time": 4.6340909,
                "pitch": 53,
                "velocity": 80,
                "duration": 0.1704545,
                "tempo": 120.0
            },
            {
                "start_time": 4.6340909,
                "end_time": 4.8068182,
                "pitch": 53,
                "velocity": 80,
                "duration": 0.1727273,
                "tempo": 120.0
            },
            {
                "start_time": 4.8068182,
                "end_time": 4.9795455,
                "pitch": 53,
                "velocity": 80,
                "duration": 0.1727273,
                "tempo": 120.0
            },
            {
                "start_time": 4.9795455,
                "end_time": 5.1522727,
                "pitch": 53,
                "velocity": 80,
                "duration": 0.1727273,
                "tempo": 120.0
            },
            {
                "start_time": 5.1522727,
                "end_time": 5.3181818,
                "pitch": 53,
                "velocity": 80,
                "duration": 0.1659091,
                "tempo": 120.0
            },
            {
                "start_time": 5.3181818,
                "end_time": 5.5022727,
                "pitch": 53,
                "velocity": 80,
                "duration": 0.1840909,
                "tempo": 120.0
            },
            {
                "start_time": 5.5022727,
                "end_time": 5.6636364,
                "pitch": 50,
                "velocity": 80,
                "duration": 0.1613636,
                "tempo": 120.0
            },
            {
                "start_time": 5.6636364,
                "end_time": 5.8409091,
                "pitch": 50,
                "velocity": 80,
                "duration": 0.1772727,
                "tempo": 120.0
            },
            {
                "start_time": 5.8409091,
                "end_time": 6.0022727,
                "pitch": 50,
                "velocity": 80,
                "duration": 0.1613636,
                "tempo": 120.0
            },
            {
                "start_time": 6.0022727,
                "end_time": 6.1636364,
                "pitch": 50,
                "velocity": 80,
                "duration": 0.1613636,
                "tempo": 120.0
            },
            {
                "start_time": 6.1636364,
                "end_time": 6.3318182,
                "pitch": 50,
                "velocity": 80,
                "duration": 0.1681818,
                "tempo": 120.0
            },
            {
                "start_time": 6.3318182,
                "end_time": 6.5,
                "pitch": 50,
                "velocity": 80,
                "duration": 0.1681818,
                "tempo": 120.0
            },
            {
                "start_time": 6.5,
                "end_time": 6.6659091,
                "pitch": 50,
                "velocity": 80,
                "duration": 0.1659091,
                "tempo": 120.0
            },
            {
                "start_time": 6.6659091,
                "end_time": 6.8340909,
                "pitch": 50,
                "velocity": 80,
                "duration": 0.1681818,
                "tempo": 120.0
            },
            {
                "start_time": 6.8340909,
                "end_time": 7.0068182,
                "pitch": 53,
                "velocity": 80,
                "duration": 0.1727273,
                "tempo": 120.0
            },
            {
                "start_time": 7.0068182,
                "end_time": 7.1795455,
                "pitch": 53,
                "velocity": 80,
                "duration": 0.1727273,
                "tempo": 120.0
            },
            {
                "start_time": 7.1795455,
                "end_time": 7.3454545,
                "pitch": 53,
                "velocity": 80,
                "duration": 0.1659091,
                "tempo": 120.0
            },
            {
                "start_time": 7.3454545,
                "end_time": 7.5136364,
                "pitch": 53,
                "velocity": 80,
                "duration": 0.1681818,
                "tempo": 120.0
            },
            {
                "start_time": 7.5136364,
                "end_time": 7.6863636,
                "pitch": 53,
                "velocity": 80,
                "duration": 0.1727273,
                "tempo": 120.0
            },
            {
                "start_time": 7.6863636,
                "end_time": 7.8568182,
                "pitch": 53,
                "velocity": 80,
                "duration": 0.1704545,
                "tempo": 120.0
            },
            {
                "start_time": 7.8568182,
                "end_time": 8.0295455,
                "pitch": 53,
                "velocity": 80,
                "duration": 0.1727273,
                "tempo": 120.0
            },
            {
                "start_time": 8.0295455,
                "end_time": 8.2022727,
                "pitch": 53,
                "velocity": 80,
                "duration": 0.1727273,
                "tempo": 120.0
            },
            {
                "start_time": 8.2022727,
                "end_time": 8.3704545,
                "pitch": 50,
                "velocity": 80,
                "duration": 0.1681818,
                "tempo": 120.0
            },
            {
                "start_time": 8.3704545,
                "end_time": 8.5363636,
                "pitch": 50,
                "velocity": 80,
                "duration": 0.1659091,
                "tempo": 120.0
            },
            {
                "start_time": 8.5363636,
                "end_time": 8.7045455,
                "pitch": 50,
                "velocity": 80,
                "duration": 0.1681818,
                "tempo": 120.0
            },
            {
                "start_time": 8.7045455,
                "end_time": 8.8886364,
                "pitch": 50,
                "velocity": 80,
                "duration": 0.1840909,
                "tempo": 120.0
            },
            {
                "start_time": 8.8886364,
                "end_time": 9.0613636,
                "pitch": 50,
                "velocity": 80,
                "duration": 0.1727273,
                "tempo": 120.0
            },
            {
                "start_time": 9.0613636,
                "end_time": 9.2340909,
                "pitch": 50,
                "velocity": 80,
                "duration": 0.1727273,
                "tempo": 120.0
            },
            {
                "start_time": 9.2340909,
                "end_time": 9.4068182,
                "pitch": 50,
                "velocity": 80,
                "duration": 0.1727273,
                "tempo": 120.0
            },
            {
                "start_time": 9.4068182,
                "end_time": 9.5772727,
                "pitch": 50,
                "velocity": 80,
                "duration": 0.1704545,
                "tempo": 120.0
            },
            {
                "start_time": 9.5772727,
                "end_time": 9.7454545,
                "pitch": 45,
                "velocity": 80,
                "duration": 0.1681818,
                "tempo": 120.0
            },
            {
                "start_time": 9.7454545,
                "end_time": 9.9136364,
                "pitch": 45,
                "velocity": 80,
                "duration": 0.1681818,
                "tempo": 120.0
            },
            {
                "start_time": 9.9136364,
                "end_time": 10.0840909,
                "pitch": 45,
                "velocity": 80,
                "duration": 0.1704545,
                "tempo": 120.0
            },
            {
                "start_time": 10.0840909,
                "end_time": 10.2568182,
                "pitch": 45,
                "velocity": 80,
                "duration": 0.1727273,
                "tempo": 120.0
            },
            {
                "start_time": 10.2568182,
                "end_time": 10.425,
                "pitch": 45,
                "velocity": 80,
                "duration": 0.1681818,
                "tempo": 120.0
            },
            {
                "start_time": 10.425,
                "end_time": 10.5931818,
                "pitch": 45,
                "velocity": 80,
                "duration": 0.1681818,
                "tempo": 120.0
            },
            {
                "start_time": 10.5931818,
                "end_time": 10.7590909,
                "pitch": 45,
                "velocity": 80,
                "duration": 0.1659091,
                "tempo": 120.0
            },
            {
                "start_time": 10.7590909,
                "end_time": 10.9272727,
                "pitch": 45,
                "velocity": 80,
                "duration": 0.1681818,
                "tempo": 120.0
            },
            {
                "start_time": 10.9272727,
                "end_time": 11.1,
                "pitch": 50,
                "velocity": 80,
                "duration": 0.1727273,
                "tempo": 120.0
            },
            {
                "start_time": 11.1,
                "end_time": 11.2704545,
                "pitch": 50,
                "velocity": 80,
                "duration": 0.1704545,
                "tempo": 120.0
            },
            {
                "start_time": 11.2704545,
                "end_time": 11.4386364,
                "pitch": 50,
                "velocity": 80,
                "duration": 0.1681818,
                "tempo": 120.0
            },
            {
                "start_time": 11.4386364,
                "end_time": 11.6068182,
                "pitch": 50,
                "velocity": 80,
                "duration": 0.1681818,
                "tempo": 120.0
            },
            {
                "start_time": 11.6068182,
                "end_time": 11.7727273,
                "pitch": 50,
                "velocity": 80,
                "duration": 0.1659091,
                "tempo": 120.0
            },
            {
                "start_time": 11.7727273,
                "end_time": 11.9409091,
                "pitch": 50,
                "velocity": 80,
                "duration": 0.1681818,
                "tempo": 120.0
            },
            {
                "start_time": 11.9409091,
                "end_time": 12.1136364,
                "pitch": 50,
                "velocity": 80,
                "duration": 0.1727273,
                "tempo": 120.0
            },
            {
                "start_time": 12.1136364,
                "end_time": 12.2863636,
                "pitch": 50,
                "velocity": 80,
                "duration": 0.1727273,
                "tempo": 120.0
            },
            {
                "start_time": 12.2863636,
                "end_time": 12.4568182,
                "pitch": 50,
                "velocity": 80,
                "duration": 0.1704545,
                "tempo": 120.0
            },
            {
                "start_time": 12.4568182,
                "end_time": 12.6295455,
                "pitch": 49,
                "velocity": 80,
                "duration": 0.1727273,
                "tempo": 120.0
            },
            {
                "start_time": 12.6295455,
                "end_time": 12.7909091,
                "pitch": 49,
                "velocity": 80,
                "duration": 0.1613636,
                "tempo": 120.0
            },
            {
                "start_time": 12.7909091,
                "end_time": 12.9545455,
                "pitch": 49,
                "velocity": 80,
                "duration": 0.1636364,
                "tempo": 120.0
            },
            {
                "start_time": 12.9545455,
                "end_time": 13.1431818,
                "pitch": 49,
                "velocity": 80,
                "duration": 0.1886364,
                "tempo": 120.0
            },
            {
                "start_time": 13.1431818,
                "end_time": 13.3159091,
                "pitch": 49,
                "velocity": 80,
                "duration": 0.1727273,
                "tempo": 120.0
            },
            {
                "start_time": 13.3159091,
                "end_time": 13.4886364,
                "pitch": 49,
                "velocity": 80,
                "duration": 0.1727273,
                "tempo": 120.0
            },
            {
                "start_time": 13.4886364,
                "end_time": 13.6590909,
                "pitch": 49,
                "velocity": 80,
                "duration": 0.1704545,
                "tempo": 120.0
            },
            {
                "start_time": 13.6590909,
                "end_time": 13.8318182,
                "pitch": 52,
                "velocity": 80,
                "duration": 0.1727273,
                "tempo": 120.0
            },
            {
                "start_time": 13.8318182,
                "end_time": 14.0045455,
                "pitch": 52,
                "velocity": 80,
                "duration": 0.1727273,
                "tempo": 120.0
            },
            {
                "start_time": 14.0045455,
                "end_time": 14.1727273,
                "pitch": 52,
                "velocity": 80,
                "duration": 0.1681818,
                "tempo": 120.0
            },
            {
                "start_time": 14.1727273,
                "end_time": 14.3386364,
                "pitch": 52,
                "velocity": 80,
                "duration": 0.1659091,
                "tempo": 120.0
            },
            {
                "start_time": 14.3386364,
                "end_time": 14.5068182,
                "pitch": 52,
                "velocity": 80,
                "duration": 0.1681818,
                "tempo": 120.0
            },
            {
                "start_time": 14.5068182,
                "end_time": 14.675,
                "pitch": 52,
                "velocity": 80,
                "duration": 0.1681818,
                "tempo": 120.0
            },
            {
                "start_time": 14.675,
                "end_time": 14.8454545,
                "pitch": 52,
                "velocity": 80,
                "duration": 0.1704545,
                "tempo": 120.0
            },
            {
                "start_time": 14.8454545,
                "end_time": 15.0181818,
                "pitch": 52,
                "velocity": 80,
                "duration": 0.1727273,
                "tempo": 120.0
            },
            {
                "start_time": 15.0181818,
                "end_time": 15.1863636,
                "pitch": 46,
                "velocity": 80,
                "duration": 0.1681818,
                "tempo": 120.0
            },
            {
                "start_time": 15.1863636,
                "end_time": 15.3522727,
                "pitch": 46,
                "velocity": 80,
                "duration": 0.1659091,
                "tempo": 120.0
            },
            {
                "start_time": 15.3522727,
                "end_time": 15.5204545,
                "pitch": 46,
                "velocity": 80,
                "duration": 0.1681818,
                "tempo": 120.0
            },
            {
                "start_time": 15.5204545,
                "end_time": 15.6886364,
                "pitch": 46,
                "velocity": 80,
                "duration": 0.1681818,
                "tempo": 120.0
            },
            {
                "start_time": 15.6886364,
                "end_time": 15.8613636,
                "pitch": 46,
                "velocity": 80,
                "duration": 0.1727273,
                "tempo": 120.0
            },
            {
                "start_time": 15.8613636,
                "end_time": 16.0318182,
                "pitch": 46,
                "velocity": 80,
                "duration": 0.1704545,
                "tempo": 120.0
            },
            {
                "start_time": 16.0318182,
                "end_time": 16.2045455,
                "pitch": 46,
                "velocity": 80,
                "duration": 0.1727273,
                "tempo": 120.0
            },
            {
                "start_time": 16.2045455,
                "end_time": 16.3772727,
                "pitch": 46,
                "velocity": 80,
                "duration": 0.1727273,
                "tempo": 120.0
            }
        ]
    }
}