{
    "mood": "angry",
    "instruments": {
        "Harpsichord": [
            {
                "start_time": 0.0,
                "end_time": 1.0931818,
                "pitch": 33,
                "velocity": 64,
                "duration": 1.0931818,
                "tempo": 120.0
            },
            {
                "start_time": 1.1090909,
                "end_time": 2.2977273,
                "pitch": 45,
                "velocity": 64,
                "duration": 1.1886364,
                "tempo": 120.0
            },
            {
                "start_time": 2.3159091,
                "end_time": 3.5068182,
                "pitch": 33,
                "velocity": 64,
                "duration": 1.1909091,
                "tempo": 120.0
            },
            {
                "start_time": 3.525,
                "end_time": 4.7159091,
                "pitch": 45,
                "velocity": 64,
                "duration": 1.1909091,
                "tempo": 120.0
            },
            {
                "start_time": 4.7340909,
                "end_time": 5.9227273,
                "pitch": 35,
                "velocity": 64,
                "duration": 1.1886364,
                "tempo": 120.0
            },
            {
                "start_time": 5.9386364,
                "end_time": 7.1295455,
                "pitch": 47,
                "velocity": 64,
                "duration": 1.1909091,
                "tempo": 120.0
            },
            {
                "start_time": 7.1454545,
                "end_time": 8.3318182,
                "pitch": 35,
                "velocity": 64,
                "duration": 1.1863636,
                "tempo": 120.0
            },
            {
                "start_time": 8.3477273,
                "end_time": 9.5340909,
                "pitch": 47,
                "velocity": 64,
                "duration": 1.1863636,
                "tempo": 120.0
            },
            {
                "start_time": 9.5522727,
                "end_time": 10.7386364,
                "pitch": 33,
                "velocity": 64,
                "duration": 1.1863636,
                "tempo": 120.0
            },
            {
                "start_time": 10.7545455,
                "end_time": 11.9386364,
                "pitch": 45,
                "velocity": 64,
                "duration": 1.1840909,
                "tempo": 120.0
            },
            {
                "start_time": 11.9545455,
                "end_time": 13.1431818,
                "pitch": 33,
                "velocity": 64,
                "duration": 1.1886364,
                "tempo": 120.0
            },
            {
                "start_time": 13.1613636,
                "end_time": 14.3431818,
                "pitch": 45,
                "velocity": 64,
                "duration": 1.1818182,
                "tempo": 120.0
            },
            {
                "start_time": 14.3613636,
                "end_time": 15.5477273,
                "pitch": 35,
                "velocity": 64,
                "duration": 1.1863636,
                "tempo": 120.0
            },
            {
                "start_time": 15.5636364,
                "end_time": 16.75,
                "pitch": 47,
                "velocity": 64,
                "duration": 1.1863636,
                "tempo": 120.0
            },
            {
                "start_time": 16.7659091,
                "end_time": 17.9568182,
                "pitch": 35,
                "velocity": 64,
                "duration": 1.1909091,
                "tempo": 120.0
            },
            {
                "start_time": 17.9727273,
                "end_time": 19.1613636,
                "pitch": 47,
                "velocity": 64,
                "duration": 1.1886364,
                "tempo": 120.0
            },
            {
                "start_time": 19.1795455,
                "end_time": 19.3113636,
                "pitch": 40,
                "velocity": 64,
                "duration": 0.1318182,
                "tempo": 120.0
            },
            {
                "start_time": 19.3295455,
                "end_time": 19.4613636,
                "pitch": 41,
                "velocity": 64,
                "duration": 0.1318182,
                "tempo": 120.0
            },
            {
                "start_time": 19.4795455,
                "end_time": 19.6136364,
                "pitch": 52,
                "velocity": 64,
                "duration": 0.1340909,
                "tempo": 120.0
            },
            {
                "start_time": 19.6295455,
                "end_time": 19.7659091,
                "pitch": 53,
                "velocity": 64,
                "duration": 0.1363636,
                "tempo": 120.0
            },
            {
                "start_time": 19.7818182,
                "end_time": 19.9159091,
                "pitch": 55,
                "velocity": 64,
                "duration": 0.1340909,
                "tempo": 120.0
            },
            {
                "start_time": 19.9340909,
                "end_time": 20.0681818,
                "pitch": 57,
                "velocity": 64,
                "duration": 0.1340909,
                "tempo": 120.0
            },
            {
                "start_time": 20.0840909,
                "end_time": 20.2204545,
                "pitch": 40,
                "velocity": 64,
                "duration": 0.1363636,
                "tempo": 120.0
            },
            {
                "start_time": 20.2363636,
                "end_time": 20.3704545,
                "pitch": 41,
                "velocity": 64,
                "duration": 0.1340909,
                "tempo": 120.0
            },
            {
                "start_time": 20.3886364,
                "end_time": 20.5227273,
                "pitch": 52,
                "velocity": 64,
                "duration": 0.1340909,
                "tempo": 120.0
            },
            {
                "start_time": 20.5386364,
                "end_time": 20.675,
                "pitch": 53,
                "velocity": 64,
                "duration": 0.1363636,
                "tempo": 120.0
            },
            {
                "start_time": 20.6909091,
                "end_time": 20.825,
                "pitch": 55,
                "velocity": 64,
                "duration": 0.1340909,
                "tempo": 120.0
            },
            {
                "start_time": 20.8409091,
                "end_time": 20.975,
                "pitch": 57,
                "velocity": 64,
                "duration": 0.1340909,
                "tempo": 120.0
            },
            {
                "start_time": 20.9909091,
                "end_time": 21.125,
                "pitch": 38,
                "velocity": 64,
                "duration": 0.1340909,
                "tempo": 120.0
            },
            {
                "start_time": 21.1409091,
                "end_time": 21.275,
                "pitch": 40,
                "velocity": 64,
                "duration": 0.1340909,
                "tempo": 120.0
            },
            {
                "start_time": 21.2909091,
                "end_time": 21.425,
                "pitch": 50,
                "velocity": 64,
                "duration": 0.1340909,
                "tempo": 120.0
            },
            {
                "start_time": 21.4431818,
                "end_time": 21.5772727,
                "pitch": 52,
                "velocity": 64,
                "duration": 0.1340909,
                "tempo": 120.0
            },
            {
                "start_time": 21.5931818,
                "end_time": 21.7295455,
                "pitch": 53,
                "velocity": 64,
                "duration": 0.1363636,
                "tempo": 120.0
            },
            {
                "start_time": 21.7454545,
                "end_time": 21.8795455,
                "pitch": 55,
                "velocity": 64,
                "duration": 0.1340909,
                "tempo": 120.0
            },
            {
                "start_time": 21.8977273,
                "end_time": 22.0318182,
                "pitch": 38,
                "velocity": 64,
                "duration": 0.1340909,
                "tempo": 120.0
            },
            {
                "start_time": 22.05,
                "end_time": 22.1863636,
                "pitch": 40,
                "velocity": 64,
                "duration": 0.1363636,
                "tempo": 120.0
            },
            {
                "start_time": 22.2022727,
                "end_time": 22.3386364,
                "pitch": 50,
                "velocity": 64,
                "duration": 0.1363636,
                "tempo": 120.0
            },
            {
                "start_time": 22.3568182,
                "end_time": 22.4931818,
                "pitch": 52,
                "velocity": 64,
                "duration": 0.1363636,
                "tempo": 120.0
            },
            {
                "start_time": 22.5090909,
                "end_time": 22.6409091,
                "pitch": 53,
                "velocity": 64,
                "duration": 0.1318182,
                "tempo": 120.0
            },
            {
                "start_time": 22.6568182,
                "end_time": 22.7886364,
                "pitch": 55,
                "velocity": 64,
                "duration": 0.1318182,
                "tempo": 120.0
            },
            {
                "start_time": 22.8068182,
                "end_time": 22.9386364,
                "pitch": 40,
                "velocity": 64,
                "duration": 0.1318182,
                "tempo": 120.0
            },
            {
                "start_time": 22.9545455,
                "end_time": 23.0863636,
                "pitch": 41,
                "velocity": 64,
                "duration": 0.1318182,
                "tempo": 120.0
            },
            {
                "start_time": 23.1022727,
                "end_time": 23.2386364,
                "pitch": 52,
                "velocity": 64,
                "duration": 0.1363636,
                "tempo": 120.0
            },
            {
                "start_time": 23.2545455,
                "end_time": 23.3886364,
                "pitch": 53,
                "velocity": 64,
                "duration": 0.1340909,
                "tempo": 120.0
            },
            {
                "start_time": 23.4068182,
                "end_time": 23.5409091,
                "pitch": 55,
                "velocity": 64,
                "duration": 0.1340909,
                "tempo": 120.0
            },
            {
                "start_time": 23.5568182,
                "end_time": 23.6931818,
                "pitch": 57,
                "velocity": 64,
                "duration": 0.1363636,
                "tempo": 120.0
            },
            {
                "start_time": 23.7090909,
                "end_time": 23.8431818,
                "pitch": 40,
                "velocity": 64,
                "duration": 0.1340909,
                "tempo": 120.0
            },
            {
                "start_time": 23.8590909,
                "end_time": 23.9931818,
                "pitch": 41,
                "velocity": 64,
                "duration": 0.1340909,
                "tempo": 120.0
            },
            {
                "start_time": 24.0090909,
                "end_time": 24.1431818,
                "pitch": 52,
                "velocity": 64,
                "duration": 0.1340909,
                "tempo": 120.0
            },
            {
                "start_time": 24.1590909,
                "end_time": 24.2931818,
                "pitch": 53,
                "velocity": 64,
                "duration": 0.1340909,
                "tempo": 120.0
            },
            {
                "start_time": 24.3090909,
                "end_time": 24.4431818,
                "pitch": 55,
                "velocity": 64,
                "duration": 0.1340909,
                "tempo": 120.0
            },
            {
                "start_time": 24.4613636,
                "end_time": 24.5954545,
                "pitch": 57,
                "velocity": 64,
                "duration": 0.1340909,
                "tempo": 120.0
            },
            {
                "start_time": 24.6113636,
                "end_time": 24.7477273,
                "pitch": 38,
                "velocity": 64,
                "duration": 0.1363636,
                "tempo": 120.0
            },
            {
                "start_time": 24.7636364,
                "end_time": 24.8977273,
                "pitch": 40,
                "velocity": 64,
                "duration": 0.1340909,
                "tempo": 120.0
            },
            {
                "start_time": 24.9159091,
                "end_time": 25.0477273,
                "pitch": 50,
                "velocity": 64,
                "duration": 0.1318182,
                "tempo": 120.0
            },
            {
                "start_time": 25.0659091,
                "end_time": 25.1977273,
                "pitch": 52,
                "velocity": 64,
                "duration": 0.1318182,
                "tempo": 120.0
            },
            {
                "start_time": 25.2159091,
                "end_time": 25.3477273,
                "pitch": 53,
                "velocity": 64,
                "duration": 0.1318182,
                "tempo": 120.0
            },
            {
                "start_time": 25.3659091,
                "end_time": 25.4977273,
                "pitch": 55,
                "velocity": 64,
                "duration": 0.1318182,
                "tempo": 120.0
            },
            {
                "start_time": 25.5159091,
                "end_time": 25.6522727,
                "pitch": 38,
                "velocity": 64,
                "duration": 0.1363636,
                "tempo": 120.0
            },
            {
                "start_time": 25.6681818,
                "end_time": 25.8045455,
                "pitch": 40,
                "velocity": 64,
                "duration": 0.1363636,
                "tempo": 120.0
            },
            {
                "start_time": 25.8204545,
                "end_time": 25.9568182,
                "pitch": 50,
                "velocity": 64,
                "duration": 0.1363636,
                "tempo": 120.0
            },
            {
                "start_time": 25.975,
                "end_time": 26.1113636,
                "pitch": 52,
                "velocity": 64,
                "duration": 0.1363636,
                "tempo": 120.0
            },
            {
                "start_time": 26.1272727,
                "end_time": 26.2590909,
                "pitch": 53,
                "velocity": 64,
                "duration": 0.1318182,
                "tempo": 120.0
            },
            {
                "start_time": 26.275,
                "end_time": 26.4068182,
                "pitch": 55,
                "velocity": 64,
                "duration": 0.1318182,
                "tempo": 120.0
            }
        ],
        "Flute": [
            {
                "start_time": 0.0,
                "end_time": 0.0227273,
                "pitch": 45,
                "velocity": 64,
                "duration": 0.0227273,
                "tempo": 120.0
            },
            {
                "start_time": 0.0340909,
                "end_time": 0.1227273,
                "pitch": 69,
                "velocity": 64,
                "duration": 0.0886364,
                "tempo": 120.0
            },
            {
                "start_time": 0.1340909,
                "end_time": 0.2340909,
                "pitch": 88,
                "velocity": 64,
                "duration": 0.1,
                "tempo": 120.0
            },
            {
                "start_time": 0.25,
                "end_time": 0.3840909,
                "pitch": 86,
                "velocity": 64,
                "duration": 0.1340909,
                "tempo": 120.0
            },
            {
                "start_time": 0.4022727,
                "end_time": 0.5363636,
                "pitch": 83,
                "velocity": 64,
                "duration": 0.1340909,
                "tempo": 120.0
            },
            {
                "start_time": 0.5545455,
                "end_time": 0.6886364,
                "pitch": 81,
                "velocity": 64,
                "duration": 0.1340909,
                "tempo": 120.0
            },
            {
                "start_time": 0.7045455,
                "end_time": 0.8386364,
                "pitch": 83,
                "velocity": 64,
                "duration": 0.1340909,
                "tempo": 120.0
            },
            {
                "start_time": 0.8568182,
                "end_time": 0.9909091,
                "pitch": 76,
                "velocity": 64,
                "duration": 0.1340909,
                "tempo": 120.0
            },
            {
                "start_time": 1.0090909,
                "end_time": 1.1431818,
                "pitch": 77,
                "velocity": 64,
                "duration": 0.1340909,
                "tempo": 120.0
            },
            {
                "start_time": 1.1590909,
                "end_time": 1.2931818,
                "pitch": 69,
                "velocity": 64,
                "duration": 0.1340909,
                "tempo": 120.0
            },
            {
                "start_time": 1.3113636,
                "end_time": 1.4454545,
                "pitch": 76,
                "velocity": 64,
                "duration": 0.1340909,
                "tempo": 120.0
            },
            {
                "start_time": 1.4613636,
                "end_time": 1.5954545,
                "pitch": 77,
                "velocity": 64,
                "duration": 0.1340909,
                "tempo": 120.0
            },
            {
                "start_time": 1.6113636,
                "end_time": 1.7454545,
                "pitch": 81,
                "velocity": 64,
                "duration": 0.1340909,
                "tempo": 120.0
            },
            {
                "start_time": 1.7613636,
                "end_time": 1.8954545,
                "pitch": 83,
                "velocity": 64,
                "duration": 0.1340909,
                "tempo": 120.0
            },
            {
                "start_time": 1.9113636,
                "end_time": 2.0454545,
                "pitch": 81,
                "velocity": 64,
                "duration": 0.1340909,
                "tempo": 120.0
            },
            {
                "start_time": 2.0636364,
                "end_time": 2.1977273,
                "pitch": 76,
                "velocity": 64,
                "duration": 0.1340909,
                "tempo": 120.0
            },
            {
                "start_time": 2.2136364,
                "end_time": 2.3477273,
                "pitch": 77,
                "velocity": 64,
                "duration": 0.1340909,
                "tempo": 120.0
            },
            {
                "start_time": 2.3659091,
                "end_time": 2.5,
                "pitch": 69,
                "velocity": 64,
                "duration": 0.1340909,
                "tempo": 120.0
            },
            {
                "start_time": 2.5181818,
                "end_time": 2.6522727,
                "pitch": 88,
                "velocity": 64,
                "duration": 0.1340909,
                "tempo": 120.0
            },
            {
                "start_time": 2.6681818,
                "end_time": 2.8022727,
                "pitch": 86,
                "velocity": 64,
                "duration": 0.1340909,
                "tempo": 120.0
            },
            {
                "start_time": 2.8204545,
                "end_time": 2.9545455,
                "pitch": 83,
                "velocity": 64,
                "duration": 0.1340909,
                "tempo": 120.0
            },
            {
                "start_time": 2.9727273,
                "end_time": 3.1068182,
                "pitch": 81,
                "velocity": 64,
                "duration": 0.1340909,
                "tempo": 120.0
            },
            {
                "start_time": 3.1227273,
                "end_time": 3.2568182,
                "pitch": 83,
                "velocity": 64,
                "duration": 0.1340909,
                "tempo": 120.0
            },
            {
                "start_time": 3.275,
                "end_time": 3.4068182,
                "pitch": 76,
                "velocity": 64,
                "duration": 0.1318182,
                "tempo": 120.0
            },
            {
                "start_time": 3.425,
                "end_time": 3.5568182,
                "pitch": 77,
                "velocity": 64,
                "duration": 0.1318182,
                "tempo": 120.0
            },
            {
                "start_time": 3.575,
                "end_time": 3.7068182,
                "pitch": 69,
                "velocity": 64,
                "duration": 0.1318182,
                "tempo": 120.0
            },
            {
                "start_time": 3.725,
                "end_time": 3.8568182,
                "pitch": 76,
                "velocity": 64,
                "duration": 0.1318182,
                "tempo": 120.0
            },
            {
                "start_time": 3.875,
                "end_time": 4.0090909,
                "pitch": 77,
                "velocity": 64,
                "duration": 0.1340909,
                "tempo": 120.0
            },
            {
                "start_time": 4.0272727,
                "end_time": 4.1613636,
                "pitch": 81,
                "velocity": 64,
                "duration": 0.1340909,
                "tempo": 120.0
            },
            {
                "start_time": 4.1772727,
                "end_time": 4.3113636,
                "pitch": 83,
                "velocity": 64,
                "duration": 0.1340909,
                "tempo": 120.0
            },
            {
                "start_time": 4.3295455,
                "end_time": 4.4636364,
                "pitch": 81,
                "velocity": 64,
                "duration": 0.1340909,
                "tempo": 120.0
            },
            {
                "start_time": 4.4818182,
                "end_time": 4.6159091,
                "pitch": 77,
                "velocity": 64,
                "duration": 0.1340909,
                "tempo": 120.0
            },
            {
                "start_time": 4.6318182,
                "end_time": 4.7659091,
                "pitch": 76,
                "velocity": 64,
                "duration": 0.1340909,
                "tempo": 120.0
            },
            {
                "start_time": 4.7840909,
                "end_time": 4.9181818,
                "pitch": 71,
                "velocity": 64,
                "duration": 0.1340909,
                "tempo": 120.0
            },
            {
                "start_time": 4.9363636,
                "end_time": 5.0704545,
                "pitch": 76,
                "velocity": 64,
                "duration": 0.1340909,
                "tempo": 120.0
            },
            {
                "start_time": 5.0863636,
                "end_time": 5.2204545,
                "pitch": 77,
                "velocity": 64,
                "duration": 0.1340909,
                "tempo": 120.0
            },
            {
                "start_time": 5.2363636,
                "end_time": 5.3704545,
                "pitch": 71,
                "velocity": 64,
                "duration": 0.1340909,
                "tempo": 120.0
            },
            {
                "start_time": 5.3863636,
                "end_time": 5.5204545,
                "pitch": 83,
                "velocity": 64,
                "duration": 0.1340909,
                "tempo": 120.0
            },
            {
                "start_time": 5.5363636,
                "end_time": 5.6704545,
                "pitch": 81,
                "velocity": 64,
                "duration": 0.1340909,
                "tempo": 120.0
            },
            {
                "start_time": 5.6863636,
                "end_time": 5.8204545,
                "pitch": 71,
                "velocity": 64,
                "duration": 0.1340909,
                "tempo": 120.0
            },
            {
                "start_time": 5.8386364,
                "end_time": 5.9727273,
                "pitch": 76,
                "velocity": 64,
                "duration": 0.1340909,
                "tempo": 120.0
            },
            {
                "start_time": 5.9909091,
                "end_time": 6.125,
                "pitch": 77,
                "velocity": 64,
                "duration": 0.1340909,
                "tempo": 120.0
            },
            {
                "start_time": 6.1409091,
                "end_time": 6.275,
                "pitch": 71,
                "velocity": 64,
                "duration": 0.1340909,
                "tempo": 120.0
            },
            {
                "start_time": 6.2931818,
                "end_time": 6.425,
                "pitch": 84,
                "velocity": 64,
                "duration": 0.1318182,
                "tempo": 120.0
            },
            {
                "start_time": 6.4431818,
                "end_time": 6.575,
                "pitch": 83,
                "velocity": 64,
                "duration": 0.1318182,
                "tempo": 120.0
            },
            {
                "start_time": 6.5931818,
                "end_time": 6.725,
                "pitch": 81,
                "velocity": 64,
                "duration": 0.1318182,
                "tempo": 120.0
            },
            {
                "start_time": 6.7431818,
                "end_time": 6.875,
                "pitch": 83,
                "velocity": 64,
                "duration": 0.1318182,
                "tempo": 120.0
            },
            {
                "start_time": 6.8931818,
                "end_time": 7.0272727,
                "pitch": 84,
                "velocity": 64,
                "duration": 0.1340909,
                "tempo": 120.0
            },
            {
                "start_time": 7.0454545,
                "end_time": 7.1795455,
                "pitch": 83,
                "velocity": 64,
                "duration": 0.1340909,
                "tempo": 120.0
            },
            {
                "start_time": 7.1954545,
                "end_time": 7.3295455,
                "pitch": 71,
                "velocity": 64,
                "duration": 0.1340909,
                "tempo": 120.0
            },
            {
                "start_time": 7.3477273,
                "end_time": 7.4818182,
                "pitch": 76,
                "velocity": 64,
                "duration": 0.1340909,
                "tempo": 120.0
            },
            {
                "start_time": 7.4977273,
                "end_time": 7.6318182,
                "pitch": 77,
                "velocity": 64,
                "duration": 0.1340909,
                "tempo": 120.0
            },
            {
                "start_time": 7.6477273,
                "end_time": 7.7818182,
                "pitch": 71,
                "velocity": 64,
                "duration": 0.1340909,
                "tempo": 120.0
            },
            {
                "start_time": 7.7977273,
                "end_time": 7.9318182,
                "pitch": 83,
                "velocity": 64,
                "duration": 0.1340909,
                "tempo": 120.0
            },
            {
                "start_time": 7.9477273,
                "end_time": 8.0818182,
                "pitch": 81,
                "velocity": 64,
                "duration": 0.1340909,
                "tempo": 120.0
            },
            {
                "start_time": 8.0977273,
                "end_time": 8.2318182,
                "pitch": 71,
                "velocity": 64,
                "duration": 0.1340909,
                "tempo": 120.0
            },
            {
                "start_time": 8.2477273,
                "end_time": 8.3818182,
                "pitch": 76,
                "velocity": 64,
                "duration": 0.1340909,
                "tempo": 120.0
            },
            {
                "start_time": 8.3977273,
                "end_time": 8.5318182,
                "pitch": 77,
                "velocity": 64,
                "duration": 0.1340909,
                "tempo": 120.0
            },
            {
                "start_time": 8.5477273,
                "end_time": 8.6818182,
                "pitch": 71,
                "velocity": 64,
                "duration": 0.1340909,
                "tempo": 120.0
            },
            {
                "start_time": 8.6977273,
                "end_time": 8.8318182,
                "pitch": 84,
                "velocity": 64,
                "duration": 0.1340909,
                "tempo": 120.0
            },
            {
                "start_time": 8.8477273,
                "end_time": 8.9818182,
                "pitch": 83,
                "velocity": 64,
                "duration": 0.1340909,
                "tempo": 120.0
            },
            {
                "start_time": 8.9977273,
                "end_time": 9.1318182,
                "pitch": 81,
                "velocity": 64,
                "duration": 0.1340909,
                "tempo": 120.0
            },
            {
                "start_time": 9.1477273,
                "end_time": 9.2818182,
                "pitch": 83,
                "velocity": 64,
                "duration": 0.1340909,
                "tempo": 120.0
            },
            {
                "start_time": 9.3,
                "end_time": 9.4340909,
                "pitch": 84,
                "velocity": 64,
                "duration": 0.1340909,
                "tempo": 120.0
            },
            {
                "start_time": 9.45,
                "end_time": 9.5840909,
                "pitch": 83,
                "velocity": 64,
                "duration": 0.1340909,
                "tempo": 120.0
            },
            {
                "start_time": 9.6022727,
                "end_time": 9.7363636,
                "pitch": 69,
                "velocity": 64,
                "duration": 0.1340909,
                "tempo": 120.0
            },
            {
                "start_time": 9.7545455,
                "end_time": 9.8886364,
                "pitch": 88,
                "velocity": 64,
                "duration": 0.1340909,
                "tempo": 120.0
            },
            {
                "start_time": 9.9045455,
                "end_time": 10.0386364,
                "pitch": 86,
                "velocity": 64,
                "duration": 0.1340909,
                "tempo": 120.0
            },
            {
                "start_time": 10.0545455,
                "end_time": 10.1886364,
                "pitch": 83,
                "velocity": 64,
                "duration": 0.1340909,
                "tempo": 120.0
            },
            {
                "start_time": 10.2045455,
                "end_time": 10.3386364,
                "pitch": 81,
                "velocity": 64,
                "duration": 0.1340909,
                "tempo": 120.0
            },
            {
                "start_time": 10.3545455,
                "end_time": 10.4886364,
                "pitch": 83,
                "velocity": 64,
                "duration": 0.1340909,
                "tempo": 120.0
            },
            {
                "start_time": 10.5045455,
                "end_time": 10.6386364,
                "pitch": 76,
                "velocity": 64,
                "duration": 0.1340909,
                "tempo": 120.0
            },
            {
                "start_time": 10.6545455,
                "end_time": 10.7886364,
                "pitch": 77,
                "velocity": 64,
                "duration": 0.1340909,
                "tempo": 120.0
            },
            {
                "start_time": 10.8045455,
                "end_time": 10.9386364,
                "pitch": 69,
                "velocity": 64,
                "duration": 0.1340909,
                "tempo": 120.0
            },
            {
                "start_time": 10.9545455,
                "end_time": 11.0886364,
                "pitch": 76,
                "velocity": 64,
                "duration": 0.1340909,
                "tempo": 120.0
            },
            {
                "start_time": 11.1045455,
                "end_time": 11.2386364,
                "pitch": 77,
                "velocity": 64,
                "duration": 0.1340909,
                "tempo": 120.0
            },
            {
                "start_time": 11.2545455,
                "end_time": 11.3886364,
                "pitch": 79,
                "velocity": 64,
                "duration": 0.1340909,
                "tempo": 120.0
            },
            {
                "start_time": 11.4045455,
                "end_time": 11.5386364,
                "pitch": 83,
                "velocity": 64,
                "duration": 0.1340909,
                "tempo": 120.0
            },
            {
                "start_time": 11.5545455,
                "end_time": 11.6886364,
                "pitch": 81,
                "velocity": 64,
                "duration": 0.1340909,
                "tempo": 120.0
            },
            {
                "start_time": 11.7045455,
                "end_time": 11.8386364,
                "pitch": 76,
                "velocity": 64,
                "duration": 0.1340909,
                "tempo": 120.0
            },
            {
                "start_time": 11.8545455,
                "end_time": 11.9886364,
                "pitch": 77,
                "velocity": 64,
                "duration": 0.1340909,
                "tempo": 120.0
            },
            {
                "start_time": 12.0045455,
                "end_time": 12.1386364,
                "pitch": 69,
                "velocity": 64,
                "duration": 0.1340909,
                "tempo": 120.0
            },
            {
                "start_time": 12.1545455,
                "end_time": 12.2886364,
                "pitch": 88,
                "velocity": 64,
                "duration": 0.1340909,
                "tempo": 120.0
            },
            {
                "start_time": 12.3045455,
                "end_time": 12.4386364,
                "pitch": 86,
                "velocity": 64,
                "duration": 0.1340909,
                "tempo": 120.0
            },
            {
                "start_time": 12.4568182,
                "end_time": 12.5909091,
                "pitch": 83,
                "velocity": 64,
                "duration": 0.1340909,
                "tempo": 120.0
            },
            {
                "start_time": 12.6090909,
                "end_time": 12.7431818,
                "pitch": 81,
                "velocity": 64,
                "duration": 0.1340909,
                "tempo": 120.0
            },
            {
                "start_time": 12.7590909,
                "end_time": 12.8931818,
                "pitch": 83,
                "velocity": 64,
                "duration": 0.1340909,
                "tempo": 120.0
            },
            {
                "start_time": 12.9113636,
                "end_time": 13.0431818,
                "pitch": 76,
                "velocity": 64,
                "duration": 0.1318182,
                "tempo": 120.0
            },
            {
                "start_time": 13.0613636,
                "end_time": 13.1931818,
                "pitch": 77,
                "velocity": 64,
                "duration": 0.1318182,
                "tempo": 120.0
            },
            {
                "start_time": 13.2113636,
                "end_time": 13.3431818,
                "pitch": 69,
                "velocity": 64,
                "duration": 0.1318182,
                "tempo": 120.0
            },
            {
                "start_time": 13.3613636,
                "end_time": 13.4931818,
                "pitch": 76,
                "velocity": 64,
                "duration": 0.1318182,
                "tempo": 120.0
            },
            {
                "start_time": 13.5113636,
                "end_time": 13.6431818,
                "pitch": 77,
                "velocity": 64,
                "duration": 0.1318182,
                "tempo": 120.0
            },
            {
                "start_time": 13.6613636,
                "end_time": 13.7931818,
                "pitch": 69,
                "velocity": 64,
                "duration": 0.1318182,
                "tempo": 120.0
            },
            {
                "start_time": 13.8113636,
                "end_time": 13.9431818,
                "pitch": 83,
                "velocity": 64,
                "duration": 0.1318182,
                "tempo": 120.0
            },
            {
                "start_time": 13.9613636,
                "end_time": 14.0931818,
                "pitch": 81,
                "velocity": 64,
                "duration": 0.1318182,
                "tempo": 120.0
            },
            {
                "start_time": 14.1113636,
                "end_time": 14.2431818,
                "pitch": 76,
                "velocity": 64,
                "duration": 0.1318182,
                "tempo": 120.0
            },
            {
                "start_time": 14.2613636,
                "end_time": 14.3931818,
                "pitch": 77,
                "velocity": 64,
                "duration": 0.1318182,
                "tempo": 120.0
            },
            {
                "start_time": 14.4113636,
                "end_time": 14.5431818,
                "pitch": 71,
                "velocity": 64,
                "duration": 0.1318182,
                "tempo": 120.0
            },
            {
                "start_time": 14.5613636,
                "end_time": 14.6931818,
                "pitch": 76,
                "velocity": 64,
                "duration": 0.1318182,
                "tempo": 120.0
            },
            {
                "start_time": 14.7113636,
                "end_time": 14.8431818,
                "pitch": 77,
                "velocity": 64,
                "duration": 0.1318182,
                "tempo": 120.0
            },
            {
                "start_time": 14.8613636,
                "end_time": 14.9931818,
                "pitch": 71,
                "velocity": 64,
                "duration": 0.1318182,
                "tempo": 120.0
            },
            {
                "start_time": 15.0113636,
                "end_time": 15.1431818,
                "pitch": 84,
                "velocity": 64,
                "duration": 0.1318182,
                "tempo": 120.0
            },
            {
                "start_time": 15.1613636,
                "end_time": 15.2931818,
                "pitch": 83,
                "velocity": 64,
                "duration": 0.1318182,
                "tempo": 120.0
            },
            {
                "start_time": 15.3113636,
                "end_time": 15.4454545,
                "pitch": 81,
                "velocity": 64,
                "duration": 0.1340909,
                "tempo": 120.0
            },
            {
                "start_time": 15.4636364,
                "end_time": 15.5977273,
                "pitch": 83,
                "velocity": 64,
                "duration": 0.1340909,
                "tempo": 120.0
            },
            {
                "start_time": 15.6136364,
                "end_time": 15.7477273,
                "pitch": 71,
                "velocity": 64,
                "duration": 0.1340909,
                "tempo": 120.0
            },
            {
                "start_time": 15.7659091,
                "end_time": 15.9,
                "pitch": 76,
                "velocity": 64,
                "duration": 0.1340909,
                "tempo": 120.0
            },
            {
                "start_time": 15.9159091,
                "end_time": 16.05,
                "pitch": 77,
                "velocity": 64,
                "duration": 0.1340909,
                "tempo": 120.0
            },
            {
                "start_time": 16.0659091,
                "end_time": 16.2,
                "pitch": 71,
                "velocity": 64,
                "duration": 0.1340909,
                "tempo": 120.0
            },
            {
                "start_time": 16.2159091,
                "end_time": 16.35,
                "pitch": 83,
                "velocity": 64,
                "duration": 0.1340909,
                "tempo": 120.0
            },
            {
                "start_time": 16.3659091,
                "end_time": 16.5,
                "pitch": 81,
                "velocity": 64,
                "duration": 0.1340909,
                "tempo": 120.0
            },
            {
                "start_time": 16.5159091,
                "end_time": 16.65,
                "pitch": 83,
                "velocity": 64,
                "duration": 0.1340909,
                "tempo": 120.0
            },
            {
                "start_time": 16.6659091,
                "end_time": 16.8,
                "pitch": 84,
                "velocity": 64,
                "duration": 0.1340909,
                "tempo": 120.0
            },
            {
                "start_time": 16.8159091,
                "end_time": 16.95,
                "pitch": 71,
                "velocity": 64,
                "duration": 0.1340909,
                "tempo": 120.0
            },
            {
                "start_time": 16.9659091,
                "end_time": 17.1,
                "pitch": 76,
                "velocity": 64,
                "duration": 0.1340909,
                "tempo": 120.0
            },
            {
                "start_time": 17.1181818,
                "end_time": 17.2522727,
                "pitch": 77,
                "velocity": 64,
                "duration": 0.1340909,
                "tempo": 120.0
            },
            {
                "start_time": 17.2681818,
                "end_time": 17.4022727,
                "pitch": 71,
                "velocity": 64,
                "duration": 0.1340909,
                "tempo": 120.0
            },
            {
                "start_time": 17.4204545,
                "end_time": 17.5545455,
                "pitch": 84,
                "velocity": 64,
                "duration": 0.1340909,
                "tempo": 120.0
            },
            {
                "start_time": 17.5727273,
                "end_time": 17.7068182,
                "pitch": 83,
                "velocity": 64,
                "duration": 0.1340909,
                "tempo": 120.0
            },
            {
                "start_time": 17.7227273,
                "end_time": 17.8568182,
                "pitch": 81,
                "velocity": 64,
                "duration": 0.1340909,
                "tempo": 120.0
            },
            {
                "start_time": 17.8727273,
                "end_time": 18.0068182,
                "pitch": 83,
                "velocity": 64,
                "duration": 0.1340909,
                "tempo": 120.0
            },
            {
                "start_time": 18.0227273,
                "end_time": 18.1568182,
                "pitch": 71,
                "velocity": 64,
                "duration": 0.1340909,
                "tempo": 120.0
            },
            {
                "start_time": 18.1727273,
                "end_time": 18.3068182,
                "pitch": 81,
                "velocity": 64,
                "duration": 0.1340909,
                "tempo": 120.0
            },
            {
                "start_time": 18.3227273,
                "end_time": 18.4568182,
                "pitch": 83,
                "velocity": 64,
                "duration": 0.1340909,
                "tempo": 120.0
            },
            {
                "start_time": 18.475,
                "end_time": 18.6090909,
                "pitch": 84,
                "velocity": 64,
                "duration": 0.1340909,
                "tempo": 120.0
            },
            {
                "start_time": 18.6272727,
                "end_time": 18.7613636,
                "pitch": 83,
                "velocity": 64,
                "duration": 0.1340909,
                "tempo": 120.0
            },
            {
                "start_time": 18.7772727,
                "end_time": 18.9113636,
                "pitch": 81,
                "velocity": 64,
                "duration": 0.1340909,
                "tempo": 120.0
            },
            {
                "start_time": 18.9295455,
                "end_time": 19.0613636,
                "pitch": 83,
                "velocity": 64,
                "duration": 0.1318182,
                "tempo": 120.0
            },
            {
                "start_time": 19.0795455,
                "end_time": 19.2113636,
                "pitch": 84,
                "velocity": 64,
                "duration": 0.1318182,
                "tempo": 120.0
            },
            {
                "start_time": 19.2295455,
                "end_time": 20.1181818,
                "pitch": 83,
                "velocity": 64,
                "duration": 0.8886364,
                "tempo": 120.0
            },
            {
                "start_time": 20.1363636,
                "end_time": 20.2704545,
                "pitch": 86,
                "velocity": 64,
                "duration": 0.1340909,
                "tempo": 120.0
            },
            {
                "start_time": 20.2863636,
                "end_time": 21.025,
                "pitch": 88,
                "velocity": 64,
                "duration": 0.7386364,
                "tempo": 120.0
            },
            {
                "start_time": 21.0409091,
                "end_time": 21.9318182,
                "pitch": 81,
                "velocity": 64,
                "duration": 0.8909091,
                "tempo": 120.0
            },
            {
                "start_time": 21.9477273,
                "end_time": 22.8386364,
                "pitch": 81,
                "velocity": 64,
                "duration": 0.8909091,
                "tempo": 120.0
            },
            {
                "start_time": 22.8545455,
                "end_time": 23.7431818,
                "pitch": 83,
                "velocity": 64,
                "duration": 0.8886364,
                "tempo": 120.0
            },
            {
                "start_time": 23.7590909,
                "end_time": 23.8931818,
                "pitch": 86,
                "velocity": 64,
                "duration": 0.1340909,
                "tempo": 120.0
            },
            {
                "start_time": 23.9090909,
                "end_time": 24.6454545,
                "pitch": 88,
                "velocity": 64,
                "duration": 0.7363636,
                "tempo": 120.0
            },
            {
                "start_time": 24.6636364,
                "end_time": 25.55,
                "pitch": 81,
                "velocity": 64,
                "duration": 0.8863636,
                "tempo": 120.0
            },
            {
                "start_time": 25.5659091,
                "end_time": 26.425,
                "pitch": 81,
                "velocity": 64,
                "duration": 0.8590909,
                "tempo": 120.0
            }
        ]
    }
}