{
    "mood": "angry",
    "instruments": {
        "Acoustic Bass": [
            {
                "start_time": 0.0,
                "end_time": 0.1295455,
                "pitch": 38,
                "velocity": 80,
                "duration": 0.1295455,
                "tempo": 120.0
            },
            {
                "start_time": 0.1477273,
                "end_time": 0.2795455,
                "pitch": 38,
                "velocity": 80,
                "duration": 0.1318182,
                "tempo": 120.0
            },
            {
                "start_time": 0.2977273,
                "end_time": 0.3295455,
                "pitch": 50,
                "velocity": 80,
                "duration": 0.0318182,
                "tempo": 120.0
            },
            {
                "start_time": 0.3477273,
                "end_time": 0.4295455,
                "pitch": 50,
                "velocity": 80,
                "duration": 0.0818182,
                "tempo": 120.0
            },
            {
                "start_time": 0.4477273,
                "end_time": 1.775,
                "pitch": 38,
                "velocity": 80,
                "duration": 1.3272727,
                "tempo": 120.0
            },
            {
                "start_time": 1.7909091,
                "end_time": 1.925,
                "pitch": 40,
                "velocity": 80,
                "duration": 0.1340909,
                "tempo": 120.0
            },
            {
                "start_time": 1.9431818,
                "end_time": 2.0772727,
                "pitch": 40,
                "velocity": 80,
                "duration": 0.1340909,
                "tempo": 120.0
            },
            {
                "start_time": 2.0931818,
                "end_time": 2.1272727,
                "pitch": 52,
                "velocity": 80,
                "duration": 0.0340909,
                "tempo": 120.0
            },
            {
                "start_time": 2.1431818,
                "end_time": 2.2295455,
                "pitch": 52,
                "velocity": 80,
                "duration": 0.0863636,
                "tempo": 120.0
            },
            {
                "start_time": 2.2454545,
                "end_time": 3.5863636,
                "pitch": 40,
                "velocity": 80,
                "duration": 1.3409091,
                "tempo": 120.0
            },
            {
                "start_time": 3.6022727,
                "end_time": 3.7386364,
                "pitch": 38,
                "velocity": 80,
                "duration": 0.1363636,
                "tempo": 120.0
            },
            {
                "start_time": 3.7545455,
                "end_time": 3.8886364,
                "pitch": 38,
                "velocity": 80,
                "duration": 0.1340909,
                "tempo": 120.0
            },
            {
                "start_time": 3.9068182,
                "end_time": 3.9386364,
                "pitch": 50,
                "velocity": 80,
                "duration": 0.0318182,
                "tempo": 120.0
            },
            {
                "start_time": 3.9568182,
                "end_time": 4.0409091,
                "pitch": 50,
                "velocity": 80,
                "duration": 0.0840909,
                "tempo": 120.0
            },
            {
                "start_time": 4.0568182,
                "end_time": 5.3977273,
                "pitch": 38,
                "velocity": 80,
                "duration": 1.3409091,
                "tempo": 120.0
            },
            {
                "start_time": 5.4159091,
                "end_time": 5.55,
                "pitch": 40,
                "velocity": 80,
                "duration": 0.1340909,
                "tempo": 120.0
            },
            {
                "start_time": 5.5659091,
                "end_time": 5.7022727,
                "pitch": 40,
                "velocity": 80,
                "duration": 0.1363636,
                "tempo": 120.0
            },
            {
                "start_time": 5.7181818,
                "end_time": 5.7522727,
                "pitch": 52,
                "velocity": 80,
                "duration": 0.0340909,
                "tempo": 120.0
            },
            {
                "start_time": 5.7681818,
                "end_time": 5.8522727,
                "pitch": 52,
                "velocity": 80,
                "duration": 0.0840909,
                "tempo": 120.0
            },
            {
                "start_time": 5.8704545,
                "end_time": 7.2045455,
                "pitch": 40,
                "velocity": 80,
                "duration": 1.3340909,
                "tempo": 120.0
            },
            {
                "start_time": 7.2204545,
                "end_time": 7.3568182,
                "pitch": 26,
                "velocity": 101,
                "duration": 0.1363636,
                "tempo": 120.0
            },
            {
                "start_time": 7.3727273,
                "end_time": 7.5068182,
                "pitch": 26,
                "velocity": 101,
                "duration": 0.1340909,
                "tempo": 120.0
            },
            {
                "start_time": 7.525,
                "end_time": 7.6590909,
                "pitch": 26,
                "velocity": 101,
                "duration": 0.1340909,
                "tempo": 120.0
            },
            {
                "start_time": 7.675,
                "end_time": 7.8113636,
                "pitch": 26,
                "velocity": 101,
                "duration": 0.1363636,
                "tempo": 120.0
            },
            {
                "start_time": 7.8272727,
                "end_time": 7.9613636,
                "pitch": 38,
                "velocity": 101,
                "duration": 0.1340909,
                "tempo": 120.0
            },
            {
                "start_time": 7.9772727,
                "end_time": 8.1113636,
                "pitch": 26,
                "velocity": 101,
                "duration": 0.1340909,
                "tempo": 120.0
            },
            {
                "start_time": 8.1272727,
                "end_time": 8.2613636,
                "pitch": 26,
                "velocity": 101,
                "duration": 0.1340909,
                "tempo": 120.0
            },
            {
                "start_time": 8.2772727,
                "end_time": 8.4113636,
                "pitch": 26,
                "velocity": 101,
                "duration": 0.1340909,
                "tempo": 120.0
            },
            {
                "start_time": 8.4272727,
                "end_time": 8.5613636,
                "pitch": 26,
                "velocity": 101,
                "duration": 0.1340909,
                "tempo": 120.0
            },
            {
                "start_time": 8.5795455,
                "end_time": 8.7136364,
                "pitch": 26,
                "velocity": 101,
                "duration": 0.1340909,
                "tempo": 120.0
            },
            {
                "start_time": 8.7295455,
                "end_time": 8.8659091,
                "pitch": 26,
                "velocity": 101,
                "duration": 0.1363636,
                "tempo": 120.0
            },
            {
                "start_time": 8.8818182,
                "end_time": 9.0159091,
                "pitch": 26,
                "velocity": 101,
                "duration": 0.1340909,
                "tempo": 120.0
            },
            {
                "start_time": 9.0340909,
                "end_time": 9.1659091,
                "pitch": 26,
                "velocity": 101,
                "duration": 0.1318182,
                "tempo": 120.0
            },
            {
                "start_time": 9.1840909,
                "end_time": 9.3159091,
                "pitch": 26,
                "velocity": 101,
                "duration": 0.1318182,
                "tempo": 120.0
            },
            {
                "start_time": 9.3340909,
                "end_time": 9.4659091,
                "pitch": 26,
                "velocity": 101,
                "duration": 0.1318182,
                "tempo": 120.0
            },
            {
                "start_time": 9.4840909,
                "end_time": 9.6159091,
                "pitch": 26,
                "velocity": 101,
                "duration": 0.1318182,
                "tempo": 120.0
            },
            {
                "start_time": 9.6340909,
                "end_time": 9.7659091,
                "pitch": 28,
                "velocity": 101,
                "duration": 0.1318182,
                "tempo": 120.0
            },
            {
                "start_time": 9.7840909,
                "end_time": 9.9159091,
                "pitch": 28,
                "velocity": 101,
                "duration": 0.1318182,
                "tempo": 120.0
            },
            {
                "start_time": 9.9340909,
                "end_time": 10.0659091,
                "pitch": 28,
                "velocity": 101,
                "duration": 0.1318182,
                "tempo": 120.0
            },
            {
                "start_time": 10.0840909,
                "end_time": 10.2159091,
                "pitch": 28,
                "velocity": 101,
                "duration": 0.1318182,
                "tempo": 120.0
            },
            {
                "start_time": 10.2340909,
                "end_time": 10.3659091,
                "pitch": 28,
                "velocity": 101,
                "duration": 0.1318182,
                "tempo": 120.0
            },
            {
                "start_time": 10.3840909,
                "end_time": 10.5159091,
                "pitch": 40,
                "velocity": 101,
                "duration": 0.1318182,
                "tempo": 120.0
            },
            {
                "start_time": 10.5340909,
                "end_time": 10.6659091,
                "pitch": 28,
                "velocity": 101,
                "duration": 0.1318182,
                "tempo": 120.0
            },
            {
                "start_time": 10.6840909,
                "end_time": 10.8159091,
                "pitch": 28,
                "velocity": 101,
                "duration": 0.1318182,
                "tempo": 120.0
            },
            {
                "start_time": 10.8340909,
                "end_time": 10.9681818,
                "pitch": 28,
                "velocity": 101,
                "duration": 0.1340909,
                "tempo": 120.0
            },
            {
                "start_time": 10.9840909,
                "end_time": 11.1204545,
                "pitch": 28,
                "velocity": 101,
                "duration": 0.1363636,
                "tempo": 120.0
            },
            {
                "start_time": 11.1363636,
                "end_time": 11.2704545,
                "pitch": 28,
                "velocity": 101,
                "duration": 0.1340909,
                "tempo": 120.0
            },
            {
                "start_time": 11.2886364,
                "end_time": 11.4227273,
                "pitch": 28,
                "velocity": 101,
                "duration": 0.1340909,
                "tempo": 120.0
            },
            {
                "start_time": 11.4386364,
                "end_time": 11.5727273,
                "pitch": 28,
                "velocity": 101,
                "duration": 0.1340909,
                "tempo": 120.0
            },
            {
                "start_time": 11.5886364,
                "end_time": 11.7227273,
                "pitch": 40,
                "velocity": 101,
                "duration": 0.1340909,
                "tempo": 120.0
            },
            {
                "start_time": 11.7386364,
                "end_time": 11.8727273,
                "pitch": 28,
                "velocity": 101,
                "duration": 0.1340909,
                "tempo": 120.0
            },
            {
                "start_time": 11.8886364,
                "end_time": 12.0227273,
                "pitch": 28,
                "velocity": 101,
                "duration": 0.1340909,
                "tempo": 120.0
            },
            {
                "start_time": 12.0386364,
                "end_time": 12.1727273,
                "pitch": 31,
                "velocity": 101,
                "duration": 0.1340909,
                "tempo": 120.0
            },
            {
                "start_time": 12.1886364,
                "end_time": 12.3227273,
                "pitch": 31,
                "velocity": 101,
                "duration": 0.1340909,
                "tempo": 120.0
            },
            {
                "start_time": 12.3386364,
                "end_time": 12.4727273,
                "pitch": 31,
                "velocity": 101,
                "duration": 0.1340909,
                "tempo": 120.0
            },
            {
                "start_time": 12.4886364,
                "end_time": 12.6227273,
                "pitch": 31,
                "velocity": 101,
                "duration": 0.1340909,
                "tempo": 120.0
            },
            {
                "start_time": 12.6386364,
                "end_time": 12.7727273,
                "pitch": 31,
                "velocity": 101,
                "duration": 0.1340909,
                "tempo": 120.0
            },
            {
                "start_time": 12.7886364,
                "end_time": 12.9227273,
                "pitch": 43,
                "velocity": 101,
                "duration": 0.1340909,
                "tempo": 120.0
            },
            {
                "start_time": 12.9386364,
                "end_time": 13.0727273,
                "pitch": 31,
                "velocity": 101,
                "duration": 0.1340909,
                "tempo": 120.0
            },
            {
                "start_time": 13.0886364,
                "end_time": 13.2227273,
                "pitch": 31,
                "velocity": 101,
                "duration": 0.1340909,
                "tempo": 120.0
            },
            {
                "start_time": 13.2386364,
                "end_time": 13.3727273,
                "pitch": 31,
                "velocity": 101,
                "duration": 0.1340909,
                "tempo": 120.0
            },
            {
                "start_time": 13.3886364,
                "end_time": 13.5227273,
                "pitch": 31,
                "velocity": 101,
                "duration": 0.1340909,
                "tempo": 120.0
            },
            {
                "start_time": 13.5386364,
                "end_time": 13.6727273,
                "pitch": 31,
                "velocity": 101,
                "duration": 0.1340909,
                "tempo": 120.0
            },
            {
                "start_time": 13.6886364,
                "end_time": 13.8227273,
                "pitch": 31,
                "velocity": 101,
                "duration": 0.1340909,
                "tempo": 120.0
            },
            {
                "start_time": 13.8386364,
                "end_time": 13.975,
                "pitch": 31,
                "velocity": 101,
                "duration": 0.1363636,
                "tempo": 120.0
            },
            {
                "start_time": 13.9909091,
                "end_time": 14.125,
                "pitch": 43,
                "velocity": 101,
                "duration": 0.1340909,
                "tempo": 120.0
            },
            {
                "start_time": 14.1431818,
                "end_time": 14.2772727,
                "pitch": 31,
                "velocity": 101,
                "duration": 0.1340909,
                "tempo": 120.0
            },
            {
                "start_time": 14.2931818,
                "end_time": 14.4295455,
                "pitch": 31,
                "velocity": 101,
                "duration": 0.1363636,
                "tempo": 120.0
            },
            {
                "start_time": 14.4454545,
                "end_time": 14.5795455,
                "pitch": 33,
                "velocity": 101,
                "duration": 0.1340909,
                "tempo": 120.0
            },
            {
                "start_time": 14.5954545,
                "end_time": 14.7295455,
                "pitch": 33,
                "velocity": 101,
                "duration": 0.1340909,
                "tempo": 120.0
            },
            {
                "start_time": 14.7454545,
                "end_time": 14.8795455,
                "pitch": 33,
                "velocity": 101,
                "duration": 0.1340909,
                "tempo": 120.0
            },
            {
                "start_time": 14.8954545,
                "end_time": 15.0295455,
                "pitch": 33,
                "velocity": 101,
                "duration": 0.1340909,
                "tempo": 120.0
            },
            {
                "start_time": 15.0454545,
                "end_time": 15.1795455,
                "pitch": 33,
                "velocity": 101,
                "duration": 0.1340909,
                "tempo": 120.0
            },
            {
                "start_time": 15.1954545,
                "end_time": 15.3295455,
                "pitch": 45,
                "velocity": 101,
                "duration": 0.1340909,
                "tempo": 120.0
            },
            {
                "start_time": 15.3454545,
                "end_time": 15.4795455,
                "pitch": 33,
                "velocity": 101,
                "duration": 0.1340909,
                "tempo": 120.0
            },
            {
                "start_time": 15.4954545,
                "end_time": 15.6295455,
                "pitch": 33,
                "velocity": 101,
                "duration": 0.1340909,
                "tempo": 120.0
            },
            {
                "start_time": 15.6454545,
                "end_time": 15.7795455,
                "pitch": 33,
                "velocity": 101,
                "duration": 0.1340909,
                "tempo": 120.0
            },
            {
                "start_time": 15.7954545,
                "end_time": 15.9295455,
                "pitch": 33,
                "velocity": 101,
                "duration": 0.1340909,
                "tempo": 120.0
            },
            {
                "start_time": 15.9454545,
                "end_time": 16.0795455,
                "pitch": 33,
                "velocity": 101,
                "duration": 0.1340909,
                "tempo": 120.0
            },
            {
                "start_time": 16.0954545,
                "end_time": 16.2295455,
                "pitch": 33,
                "velocity": 101,
                "duration": 0.1340909,
                "tempo": 120.0
            },
            {
                "start_time": 16.2454545,
                "end_time": 16.3818182,
                "pitch": 33,
                "velocity": 101,
                "duration": 0.1363636,
                "tempo": 120.0
            },
            {
                "start_time": 16.3977273,
                "end_time": 16.5340909,
                "pitch": 45,
                "velocity": 101,
                "duration": 0.1363636,
                "tempo": 120.0
            },
            {
                "start_time": 16.5522727,
                "end_time": 16.6863636,
                "pitch": 33,
                "velocity": 101,
                "duration": 0.1340909,
                "tempo": 120.0
            },
            {
                "start_time": 16.7045455,
                "end_time": 16.8409091,
                "pitch": 33,
                "velocity": 101,
                "duration": 0.1363636,
                "tempo": 120.0
            }
        ],
        "Harpsichord": [
            {
                "start_time": 0.8931818,
                "end_time": 1.025,
                "pitch": 50,
                "velocity": 51,
                "duration": 0.1318182,
                "tempo": 120.0
            },
            {
                "start_time": 1.0431818,
                "end_time": 1.175,
                "pitch": 52,
                "velocity": 51,
                "duration": 0.1318182,
                "tempo": 120.0
            },
            {
                "start_time": 1.1909091,
                "end_time": 1.325,
                "pitch": 55,
                "velocity": 51,
                "duration": 0.1340909,
                "tempo": 120.0
            },
            {
                "start_time": 1.3409091,
                "end_time": 1.475,
                "pitch": 57,
                "velocity": 51,
                "duration": 0.1340909,
                "tempo": 120.0
            },
            {
                "start_time": 1.4909091,
                "end_time": 1.625,
                "pitch": 60,
                "velocity": 51,
                "duration": 0.1340909,
                "tempo": 120.0
            },
            {
                "start_time": 1.6409091,
                "end_time": 1.775,
                "pitch": 62,
                "velocity": 51,
                "duration": 0.1340909,
                "tempo": 120.0
            },
            {
                "start_time": 2.6977273,
                "end_time": 2.8295455,
                "pitch": 50,
                "velocity": 51,
                "duration": 0.1318182,
                "tempo": 120.0
            },
            {
                "start_time": 2.8477273,
                "end_time": 2.9795455,
                "pitch": 52,
                "velocity": 51,
                "duration": 0.1318182,
                "tempo": 120.0
            },
            {
                "start_time": 2.9977273,
                "end_time": 3.1318182,
                "pitch": 55,
                "velocity": 51,
                "duration": 0.1340909,
                "tempo": 120.0
            },
            {
                "start_time": 3.1477273,
                "end_time": 3.2840909,
                "pitch": 57,
                "velocity": 51,
                "duration": 0.1363636,
                "tempo": 120.0
            },
            {
                "start_time": 3.3,
                "end_time": 3.4340909,
                "pitch": 60,
                "velocity": 51,
                "duration": 0.1340909,
                "tempo": 120.0
            },
            {
                "start_time": 3.4522727,
                "end_time": 3.5863636,
                "pitch": 62,
                "velocity": 51,
                "duration": 0.1340909,
                "tempo": 120.0
            },
            {
                "start_time": 4.5113636,
                "end_time": 4.6477273,
                "pitch": 50,
                "velocity": 51,
                "duration": 0.1363636,
                "tempo": 120.0
            },
            {
                "start_time": 4.6636364,
                "end_time": 4.7977273,
                "pitch": 52,
                "velocity": 51,
                "duration": 0.1340909,
                "tempo": 120.0
            },
            {
                "start_time": 4.8159091,
                "end_time": 4.9477273,
                "pitch": 55,
                "velocity": 51,
                "duration": 0.1318182,
                "tempo": 120.0
            },
            {
                "start_time": 4.9659091,
                "end_time": 5.0977273,
                "pitch": 57,
                "velocity": 51,
                "duration": 0.1318182,
                "tempo": 120.0
            },
            {
                "start_time": 5.1159091,
                "end_time": 5.2477273,
                "pitch": 60,
                "velocity": 51,
                "duration": 0.1318182,
                "tempo": 120.0
            },
            {
                "start_time": 5.2659091,
                "end_time": 5.3977273,
                "pitch": 62,
                "velocity": 51,
                "duration": 0.1318182,
                "tempo": 120.0
            },
            {
                "start_time": 6.3204545,
                "end_time": 6.4545455,
                "pitch": 50,
                "velocity": 51,
                "duration": 0.1340909,
                "tempo": 120.0
            },
            {
                "start_time": 6.4704545,
                "end_time": 6.6045455,
                "pitch": 52,
                "velocity": 51,
                "duration": 0.1340909,
                "tempo": 120.0
            },
            {
                "start_time": 6.6204545,
                "end_time": 6.7545455,
                "pitch": 55,
                "velocity": 51,
                "duration": 0.1340909,
                "tempo": 120.0
            },
            {
                "start_time": 6.7704545,
                "end_time": 6.9045455,
                "pitch": 57,
                "velocity": 51,
                "duration": 0.1340909,
                "tempo": 120.0
            },
            {
                "start_time": 6.9204545,
                "end_time": 7.0545455,
                "pitch": 60,
                "velocity": 51,
                "duration": 0.1340909,
                "tempo": 120.0
            },
            {
                "start_time": 7.0704545,
                "end_time": 7.2045455,
                "pitch": 62,
                "velocity": 51,
                "duration": 0.1340909,
                "tempo": 120.0
            },
            {
                "start_time": 7.2204545,
                "end_time": 7.3568182,
                "pitch": 57,
                "velocity": 51,
                "duration": 0.1363636,
                "tempo": 120.0
            },
            {
                "start_time": 7.3727273,
                "end_time": 7.5068182,
                "pitch": 67,
                "velocity": 51,
                "duration": 0.1340909,
                "tempo": 120.0
            },
            {
                "start_time": 7.525,
                "end_time": 7.6590909,
                "pitch": 65,
                "velocity": 51,
                "duration": 0.1340909,
                "tempo": 120.0
            },
            {
                "start_time": 7.675,
                "end_time": 7.8113636,
                "pitch": 62,
                "velocity": 51,
                "duration": 0.1363636,
                "tempo": 120.0
            },
            {
                "start_time": 7.8272727,
                "end_time": 7.9613636,
                "pitch": 57,
                "velocity": 51,
                "duration": 0.1340909,
                "tempo": 120.0
            },
            {
                "start_time": 7.9772727,
                "end_time": 8.1113636,
                "pitch": 67,
                "velocity": 51,
                "duration": 0.1340909,
                "tempo": 120.0
            },
            {
                "start_time": 8.1272727,
                "end_time": 8.2613636,
                "pitch": 65,
                "velocity": 51,
                "duration": 0.1340909,
                "tempo": 120.0
            },
            {
                "start_time": 8.2772727,
                "end_time": 8.4113636,
                "pitch": 62,
                "velocity": 51,
                "duration": 0.1340909,
                "tempo": 120.0
            },
            {
                "start_time": 8.4272727,
                "end_time": 8.5613636,
                "pitch": 57,
                "velocity": 51,
                "duration": 0.1340909,
                "tempo": 120.0
            },
            {
                "start_time": 8.5795455,
                "end_time": 8.7136364,
                "pitch": 67,
                "velocity": 51,
                "duration": 0.1340909,
                "tempo": 120.0
            },
            {
                "start_time": 8.7295455,
                "end_time": 8.8659091,
                "pitch": 65,
                "velocity": 51,
                "duration": 0.1363636,
                "tempo": 120.0
            },
            {
                "start_time": 8.8818182,
                "end_time": 9.0159091,
                "pitch": 62,
                "velocity": 51,
                "duration": 0.1340909,
                "tempo": 120.0
            },
            {
                "start_time": 9.0340909,
                "end_time": 9.1659091,
                "pitch": 57,
                "velocity": 51,
                "duration": 0.1318182,
                "tempo": 120.0
            },
            {
                "start_time": 9.1840909,
                "end_time": 9.3159091,
                "pitch": 67,
                "velocity": 51,
                "duration": 0.1318182,
                "tempo": 120.0
            },
            {
                "start_time": 9.3340909,
                "end_time": 9.4659091,
                "pitch": 65,
                "velocity": 51,
                "duration": 0.1318182,
                "tempo": 120.0
            },
            {
                "start_time": 9.4840909,
                "end_time": 9.6159091,
                "pitch": 62,
                "velocity": 51,
                "duration": 0.1318182,
                "tempo": 120.0
            },
            {
                "start_time": 9.6340909,
                "end_time": 9.7659091,
                "pitch": 59,
                "velocity": 51,
                "duration": 0.1318182,
                "tempo": 120.0
            },
            {
                "start_time": 9.7840909,
                "end_time": 9.9159091,
                "pitch": 71,
                "velocity": 51,
                "duration": 0.1318182,
                "tempo": 120.0
            },
            {
                "start_time": 9.9340909,
                "end_time": 10.0659091,
                "pitch": 69,
                "velocity": 51,
                "duration": 0.1318182,
                "tempo": 120.0
            },
            {
                "start_time": 10.0840909,
                "end_time": 10.2159091,
                "pitch": 65,
                "velocity": 51,
                "duration": 0.1318182,
                "tempo": 120.0
            },
            {
                "start_time": 10.2340909,
                "end_time": 10.3659091,
                "pitch": 59,
                "velocity": 51,
                "duration": 0.1318182,
                "tempo": 120.0
            },
            {
                "start_time": 10.3840909,
                "end_time": 10.5159091,
                "pitch": 71,
                "velocity": 51,
                "duration": 0.1318182,
                "tempo": 120.0
            },
            {
                "start_time": 10.5340909,
                "end_time": 10.6659091,
                "pitch": 69,
                "velocity": 51,
                "duration": 0.1318182,
                "tempo": 120.0
            },
            {
                "start_time": 10.6840909,
                "end_time": 10.8159091,
                "pitch": 65,
                "velocity": 51,
                "duration": 0.1318182,
                "tempo": 120.0
            },
            {
                "start_time": 10.8340909,
                "end_time": 10.9681818,
                "pitch": 59,
                "velocity": 51,
                "duration": 0.1340909,
                "tempo": 120.0
            },
            {
                "start_time": 10.9840909,
                "end_time": 11.1204545,
                "pitch": 71,
                "velocity": 51,
                "duration": 0.1363636,
                "tempo": 120.0
            },
            {
                "start_time": 11.1363636,
                "end_time": 11.2704545,
                "pitch": 69,
                "velocity": 51,
                "duration": 0.1340909,
                "tempo": 120.0
            },
            {
                "start_time": 11.2886364,
                "end_time": 11.4227273,
                "pitch": 65,
                "velocity": 51,
                "duration": 0.1340909,
                "tempo": 120.0
            },
            {
                "start_time": 11.4386364,
                "end_time": 11.5727273,
                "pitch": 59,
                "velocity": 51,
                "duration": 0.1340909,
                "tempo": 120.0
            },
            {
                "start_time": 11.5886364,
                "end_time": 11.7227273,
                "pitch": 71,
                "velocity": 51,
                "duration": 0.1340909,
                "tempo": 120.0
            },
            {
                "start_time": 11.7386364,
                "end_time": 11.8727273,
                "pitch": 69,
                "velocity": 51,
                "duration": 0.1340909,
                "tempo": 120.0
            },
            {
                "start_time": 11.8886364,
                "end_time": 12.0227273,
                "pitch": 65,
                "velocity": 51,
                "duration": 0.1340909,
                "tempo": 120.0
            },
            {
                "start_time": 12.0386364,
                "end_time": 12.1727273,
                "pitch": 57,
                "velocity": 51,
                "duration": 0.1340909,
                "tempo": 120.0
            },
            {
                "start_time": 12.1886364,
                "end_time": 12.3227273,
                "pitch": 67,
                "velocity": 51,
                "duration": 0.1340909,
                "tempo": 120.0
            },
            {
                "start_time": 12.3386364,
                "end_time": 12.4727273,
                "pitch": 65,
                "velocity": 51,
                "duration": 0.1340909,
                "tempo": 120.0
            },
            {
                "start_time": 12.4886364,
                "end_time": 12.6227273,
                "pitch": 62,
                "velocity": 51,
                "duration": 0.1340909,
                "tempo": 120.0
            },
            {
                "start_time": 12.6386364,
                "end_time": 12.7727273,
                "pitch": 57,
                "velocity": 51,
                "duration": 0.1340909,
                "tempo": 120.0
            },
            {
                "start_time": 12.7886364,
                "end_time": 12.9227273,
                "pitch": 67,
                "velocity": 51,
                "duration": 0.1340909,
                "tempo": 120.0
            },
            {
                "start_time": 12.9386364,
                "end_time": 13.0727273,
                "pitch": 65,
                "velocity": 51,
                "duration": 0.1340909,
                "tempo": 120.0
            },
            {
                "start_time": 13.0886364,
                "end_time": 13.2227273,
                "pitch": 62,
                "velocity": 51,
                "duration": 0.1340909,
                "tempo": 120.0
            },
            {
                "start_time": 13.2386364,
                "end_time": 13.3727273,
                "pitch": 57,
                "velocity": 51,
                "duration": 0.1340909,
                "tempo": 120.0
            },
            {
                "start_time": 13.3886364,
                "end_time": 13.5227273,
                "pitch": 67,
                "velocity": 51,
                "duration": 0.1340909,
                "tempo": 120.0
            },
            {
                "start_time": 13.5386364,
                "end_time": 13.6727273,
                "pitch": 65,
                "velocity": 51,
                "duration": 0.1340909,
                "tempo": 120.0
            },
            {
                "start_time": 13.6886364,
                "end_time": 13.8227273,
                "pitch": 62,
                "velocity": 51,
                "duration": 0.1340909,
                "tempo": 120.0
            },
            {
                "start_time": 13.8386364,
                "end_time": 13.975,
                "pitch": 57,
                "velocity": 51,
                "duration": 0.1363636,
                "tempo": 120.0
            },
            {
                "start_time": 13.9909091,
                "end_time": 14.125,
                "pitch": 67,
                "velocity": 51,
                "duration": 0.1340909,
                "tempo": 120.0
            },
            {
                "start_time": 14.1431818,
                "end_time": 14.2772727,
                "pitch": 65,
                "velocity": 51,
                "duration": 0.1340909,
                "tempo": 120.0
            },
            {
                "start_time": 14.2931818,
                "end_time": 14.4295455,
                "pitch": 62,
                "velocity": 51,
                "duration": 0.1363636,
                "tempo": 120.0
            },
            {
                "start_time": 14.4454545,
                "end_time": 14.5795455,
                "pitch": 59,
                "velocity": 51,
                "duration": 0.1340909,
                "tempo": 120.0
            },
            {
                "start_time": 14.5954545,
                "end_time": 14.7295455,
                "pitch": 72,
                "velocity": 51,
                "duration": 0.1340909,
                "tempo": 120.0
            },
            {
                "start_time": 14.7454545,
                "end_time": 14.8795455,
                "pitch": 71,
                "velocity": 51,
                "duration": 0.1340909,
                "tempo": 120.0
            },
            {
                "start_time": 14.8954545,
                "end_time": 15.0295455,
                "pitch": 69,
                "velocity": 51,
                "duration": 0.1340909,
                "tempo": 120.0
            },
            {
                "start_time": 15.0454545,
                "end_time": 15.1795455,
                "pitch": 59,
                "velocity": 51,
                "duration": 0.1340909,
                "tempo": 120.0
            },
            {
                "start_time": 15.1954545,
                "end_time": 15.3295455,
                "pitch": 72,
                "velocity": 51,
                "duration": 0.1340909,
                "tempo": 120.0
            },
            {
                "start_time": 15.3454545,
                "end_time": 15.4795455,
                "pitch": 71,
                "velocity": 51,
                "duration": 0.1340909,
                "tempo": 120.0
            },
            {
                "start_time": 15.4954545,
                "end_time": 15.6295455,
                "pitch": 69,
                "velocity": 51,
                "duration": 0.1340909,
                "tempo": 120.0
            },
            {
                "start_time": 15.6454545,
                "end_time": 15.7795455,
                "pitch": 59,
                "velocity": 51,
                "duration": 0.1340909,
                "tempo": 120.0
            },
            {
                "start_time": 15.7954545,
                "end_time": 15.9295455,
                "pitch": 72,
                "velocity": 51,
                "duration": 0.1340909,
                "tempo": 120.0
            },
            {
                "start_time": 15.9454545,
                "end_time": 16.0795455,
                "pitch": 71,
                "velocity": 51,
                "duration": 0.1340909,
                "tempo": 120.0
            },
            {
                "start_time": 16.0954545,
                "end_time": 16.2295455,
                "pitch": 69,
                "velocity": 51,
                "duration": 0.1340909,
                "tempo": 120.0
            },
            {
                "start_time": 16.2454545,
                "end_time": 16.3818182,
                "pitch": 59,
                "velocity": 51,
                "duration": 0.1363636,
                "tempo": 120.0
            },
            {
                "start_time": 16.3977273,
                "end_time": 16.5340909,
                "pitch": 72,
                "velocity": 51,
                "duration": 0.1363636,
                "tempo": 120.0
            },
            {
                "start_time": 16.5522727,
                "end_time": 16.6863636,
                "pitch": 71,
                "velocity": 51,
                "duration": 0.1340909,
                "tempo": 120.0
            },
            {
                "start_time": 16.7045455,
                "end_time": 16.8409091,
                "pitch": 69,
                "velocity": 51,
                "duration": 0.1363636,
                "tempo": 120.0
            }
        ],
        "Vibraphone": [
            {
                "start_time": 0.0,
                "end_time": 0.0295455,
                "pitch": 69,
                "velocity": 51,
                "duration": 0.0295455,
                "tempo": 120.0
            },
            {
                "start_time": 0.0477273,
                "end_time": 0.1795455,
                "pitch": 62,
                "velocity": 51,
                "duration": 0.1318182,
                "tempo": 120.0
            },
            {
                "start_time": 0.1977273,
                "end_time": 0.3295455,
                "pitch": 64,
                "velocity": 51,
                "duration": 0.1318182,
                "tempo": 120.0
            },
            {
                "start_time": 0.3477273,
                "end_time": 0.4795455,
                "pitch": 67,
                "velocity": 51,
                "duration": 0.1318182,
                "tempo": 120.0
            },
            {
                "start_time": 0.4977273,
                "end_time": 0.6295455,
                "pitch": 69,
                "velocity": 51,
                "duration": 0.1318182,
                "tempo": 120.0
            },
            {
                "start_time": 0.6454545,
                "end_time": 0.7772727,
                "pitch": 72,
                "velocity": 51,
                "duration": 0.1318182,
                "tempo": 120.0
            },
            {
                "start_time": 0.7954545,
                "end_time": 0.9272727,
                "pitch": 74,
                "velocity": 51,
                "duration": 0.1318182,
                "tempo": 120.0
            },
            {
                "start_time": 0.9431818,
                "end_time": 1.075,
                "pitch": 62,
                "velocity": 51,
                "duration": 0.1318182,
                "tempo": 120.0
            },
            {
                "start_time": 1.0909091,
                "end_time": 1.225,
                "pitch": 64,
                "velocity": 51,
                "duration": 0.1340909,
                "tempo": 120.0
            },
            {
                "start_time": 1.2409091,
                "end_time": 1.375,
                "pitch": 67,
                "velocity": 51,
                "duration": 0.1340909,
                "tempo": 120.0
            },
            {
                "start_time": 1.3909091,
                "end_time": 1.525,
                "pitch": 69,
                "velocity": 51,
                "duration": 0.1340909,
                "tempo": 120.0
            },
            {
                "start_time": 1.5409091,
                "end_time": 1.675,
                "pitch": 72,
                "velocity": 51,
                "duration": 0.1340909,
                "tempo": 120.0
            },
            {
                "start_time": 1.6909091,
                "end_time": 1.825,
                "pitch": 74,
                "velocity": 51,
                "duration": 0.1340909,
                "tempo": 120.0
            },
            {
                "start_time": 1.8409091,
                "end_time": 1.975,
                "pitch": 62,
                "velocity": 51,
                "duration": 0.1340909,
                "tempo": 120.0
            },
            {
                "start_time": 1.9931818,
                "end_time": 2.1272727,
                "pitch": 64,
                "velocity": 51,
                "duration": 0.1340909,
                "tempo": 120.0
            },
            {
                "start_time": 2.1431818,
                "end_time": 2.2795455,
                "pitch": 67,
                "velocity": 51,
                "duration": 0.1363636,
                "tempo": 120.0
            },
            {
                "start_time": 2.2954545,
                "end_time": 2.4295455,
                "pitch": 69,
                "velocity": 51,
                "duration": 0.1340909,
                "tempo": 120.0
            },
            {
                "start_time": 2.4477273,
                "end_time": 2.5795455,
                "pitch": 72,
                "velocity": 51,
                "duration": 0.1318182,
                "tempo": 120.0
            },
            {
                "start_time": 2.5977273,
                "end_time": 2.7295455,
                "pitch": 74,
                "velocity": 51,
                "duration": 0.1318182,
                "tempo": 120.0
            },
            {
                "start_time": 2.7477273,
                "end_time": 2.8795455,
                "pitch": 62,
                "velocity": 51,
                "duration": 0.1318182,
                "tempo": 120.0
            },
            {
                "start_time": 2.8977273,
                "end_time": 3.0295455,
                "pitch": 64,
                "velocity": 51,
                "duration": 0.1318182,
                "tempo": 120.0
            },
            {
                "start_time": 3.0477273,
                "end_time": 3.1818182,
                "pitch": 67,
                "velocity": 51,
                "duration": 0.1340909,
                "tempo": 120.0
            },
            {
                "start_time": 3.1977273,
                "end_time": 3.3340909,
                "pitch": 69,
                "velocity": 51,
                "duration": 0.1363636,
                "tempo": 120.0
            },
            {
                "start_time": 3.35,
                "end_time": 3.4840909,
                "pitch": 72,
                "velocity": 51,
                "duration": 0.1340909,
                "tempo": 120.0
            },
            {
                "start_time": 3.5022727,
                "end_time": 3.6363636,
                "pitch": 74,
                "velocity": 51,
                "duration": 0.1340909,
                "tempo": 120.0
            },
            {
                "start_time": 3.6522727,
                "end_time": 3.7886364,
                "pitch": 62,
                "velocity": 51,
                "duration": 0.1363636,
                "tempo": 120.0
            },
            {
                "start_time": 3.8045455,
                "end_time": 3.9386364,
                "pitch": 64,
                "velocity": 51,
                "duration": 0.1340909,
                "tempo": 120.0
            },
            {
                "start_time": 3.9568182,
                "end_time": 4.0909091,
                "pitch": 67,
                "velocity": 51,
                "duration": 0.1340909,
                "tempo": 120.0
            },
            {
                "start_time": 4.1068182,
                "end_time": 4.2431818,
                "pitch": 69,
                "velocity": 51,
                "duration": 0.1363636,
                "tempo": 120.0
            },
            {
                "start_time": 4.2590909,
                "end_time": 4.3931818,
                "pitch": 72,
                "velocity": 51,
                "duration": 0.1340909,
                "tempo": 120.0
            },
            {
                "start_time": 4.4113636,
                "end_time": 4.5454545,
                "pitch": 74,
                "velocity": 51,
                "duration": 0.1340909,
                "tempo": 120.0
            },
            {
                "start_time": 4.5613636,
                "end_time": 4.6977273,
                "pitch": 62,
                "velocity": 51,
                "duration": 0.1363636,
                "tempo": 120.0
            },
            {
                "start_time": 4.7136364,
                "end_time": 4.8477273,
                "pitch": 64,
                "velocity": 51,
                "duration": 0.1340909,
                "tempo": 120.0
            },
            {
                "start_time": 4.8659091,
                "end_time": 4.9977273,
                "pitch": 67,
                "velocity": 51,
                "duration": 0.1318182,
                "tempo": 120.0
            },
            {
                "start_time": 5.0159091,
                "end_time": 5.1477273,
                "pitch": 69,
                "velocity": 51,
                "duration": 0.1318182,
                "tempo": 120.0
            },
            {
                "start_time": 5.1659091,
                "end_time": 5.2977273,
                "pitch": 72,
                "velocity": 51,
                "duration": 0.1318182,
                "tempo": 120.0
            },
            {
                "start_time": 5.3159091,
                "end_time": 5.4477273,
                "pitch": 74,
                "velocity": 51,
                "duration": 0.1318182,
                "tempo": 120.0
            },
            {
                "start_time": 5.4659091,
                "end_time": 5.6,
                "pitch": 62,
                "velocity": 51,
                "duration": 0.1340909,
                "tempo": 120.0
            },
            {
                "start_time": 5.6159091,
                "end_time": 5.7522727,
                "pitch": 64,
                "velocity": 51,
                "duration": 0.1363636,
                "tempo": 120.0
            },
            {
                "start_time": 5.7681818,
                "end_time": 5.9022727,
                "pitch": 67,
                "velocity": 51,
                "duration": 0.1340909,
                "tempo": 120.0
            },
            {
                "start_time": 5.9204545,
                "end_time": 6.0545455,
                "pitch": 69,
                "velocity": 51,
                "duration": 0.1340909,
                "tempo": 120.0
            },
            {
                "start_time": 6.0704545,
                "end_time": 6.2045455,
                "pitch": 72,
                "velocity": 51,
                "duration": 0.1340909,
                "tempo": 120.0
            },
            {
                "start_time": 6.2204545,
                "end_time": 6.3545455,
                "pitch": 74,
                "velocity": 51,
                "duration": 0.1340909,
                "tempo": 120.0
            },
            {
                "start_time": 6.3704545,
                "end_time": 6.5045455,
                "pitch": 62,
                "velocity": 51,
                "duration": 0.1340909,
                "tempo": 120.0
            },
            {
                "start_time": 6.5204545,
                "end_time": 6.6545455,
                "pitch": 64,
                "velocity": 51,
                "duration": 0.1340909,
                "tempo": 120.0
            },
            {
                "start_time": 6.6704545,
                "end_time": 6.8045455,
                "pitch": 67,
                "velocity": 51,
                "duration": 0.1340909,
                "tempo": 120.0
            },
            {
                "start_time": 6.8204545,
                "end_time": 6.9545455,
                "pitch": 69,
                "velocity": 51,
                "duration": 0.1340909,
                "tempo": 120.0
            },
            {
                "start_time": 6.9704545,
                "end_time": 7.1045455,
                "pitch": 72,
                "velocity": 51,
                "duration": 0.1340909,
                "tempo": 120.0
            },
            {
                "start_time": 7.1204545,
                "end_time": 7.2545455,
                "pitch": 74,
                "velocity": 51,
                "duration": 0.1340909,
                "tempo": 120.0
            },
            {
                "start_time": 7.2704545,
                "end_time": 7.4068182,
                "pitch": 38,
                "velocity": 51,
                "duration": 0.1363636,
                "tempo": 120.0
            },
            {
                "start_time": 7.4227273,
                "end_time": 7.5568182,
                "pitch": 38,
                "velocity": 51,
                "duration": 0.1340909,
                "tempo": 120.0
            },
            {
                "start_time": 7.575,
                "end_time": 7.7090909,
                "pitch": 38,
                "velocity": 51,
                "duration": 0.1340909,
                "tempo": 120.0
            },
            {
                "start_time": 7.725,
                "end_time": 7.8613636,
                "pitch": 38,
                "velocity": 51,
                "duration": 0.1363636,
                "tempo": 120.0
            },
            {
                "start_time": 7.8772727,
                "end_time": 8.0113636,
                "pitch": 45,
                "velocity": 51,
                "duration": 0.1340909,
                "tempo": 120.0
            },
            {
                "start_time": 8.0272727,
                "end_time": 8.1613636,
                "pitch": 38,
                "velocity": 51,
                "duration": 0.1340909,
                "tempo": 120.0
            },
            {
                "start_time": 8.1772727,
                "end_time": 8.3113636,
                "pitch": 38,
                "velocity": 51,
                "duration": 0.1340909,
                "tempo": 120.0
            },
            {
                "start_time": 8.3272727,
                "end_time": 8.4613636,
                "pitch": 38,
                "velocity": 51,
                "duration": 0.1340909,
                "tempo": 120.0
            },
            {
                "start_time": 8.4772727,
                "end_time": 8.6113636,
                "pitch": 38,
                "velocity": 51,
                "duration": 0.1340909,
                "tempo": 120.0
            },
            {
                "start_time": 8.6295455,
                "end_time": 8.7636364,
                "pitch": 38,
                "velocity": 51,
                "duration": 0.1340909,
                "tempo": 120.0
            },
            {
                "start_time": 8.7795455,
                "end_time": 8.9159091,
                "pitch": 38,
                "velocity": 51,
                "duration": 0.1363636,
                "tempo": 120.0
            },
            {
                "start_time": 8.9318182,
                "end_time": 9.0659091,
                "pitch": 38,
                "velocity": 51,
                "duration": 0.1340909,
                "tempo": 120.0
            },
            {
                "start_time": 9.0840909,
                "end_time": 9.2159091,
                "pitch": 45,
                "velocity": 51,
                "duration": 0.1318182,
                "tempo": 120.0
            },
            {
                "start_time": 9.2340909,
                "end_time": 9.3659091,
                "pitch": 38,
                "velocity": 51,
                "duration": 0.1318182,
                "tempo": 120.0
            },
            {
                "start_time": 9.3840909,
                "end_time": 9.5159091,
                "pitch": 38,
                "velocity": 51,
                "duration": 0.1318182,
                "tempo": 120.0
            },
            {
                "start_time": 9.5340909,
                "end_time": 9.6659091,
                "pitch": 38,
                "velocity": 51,
                "duration": 0.1318182,
                "tempo": 120.0
            },
            {
                "start_time": 9.6840909,
                "end_time": 9.8159091,
                "pitch": 40,
                "velocity": 51,
                "duration": 0.1318182,
                "tempo": 120.0
            },
            {
                "start_time": 9.8340909,
                "end_time": 9.9659091,
                "pitch": 40,
                "velocity": 51,
                "duration": 0.1318182,
                "tempo": 120.0
            },
            {
                "start_time": 9.9840909,
                "end_time": 10.1159091,
                "pitch": 40,
                "velocity": 51,
                "duration": 0.1318182,
                "tempo": 120.0
            },
            {
                "start_time": 10.1340909,
                "end_time": 10.2659091,
                "pitch": 40,
                "velocity": 51,
                "duration": 0.1318182,
                "tempo": 120.0
            },
            {
                "start_time": 10.2840909,
                "end_time": 10.4159091,
                "pitch": 47,
                "velocity": 51,
                "duration": 0.1318182,
                "tempo": 120.0
            },
            {
                "start_time": 10.4340909,
                "end_time": 10.5659091,
                "pitch": 40,
                "velocity": 51,
                "duration": 0.1318182,
                "tempo": 120.0
            },
            {
                "start_time": 10.5840909,
                "end_time": 10.7159091,
                "pitch": 40,
                "velocity": 51,
                "duration": 0.1318182,
                "tempo": 120.0
            },
            {
                "start_time": 10.7340909,
                "end_time": 10.8659091,
                "pitch": 40,
                "velocity": 51,
                "duration": 0.1318182,
                "tempo": 120.0
            },
            {
                "start_time": 10.8840909,
                "end_time": 11.0181818,
                "pitch": 40,
                "velocity": 51,
                "duration": 0.1340909,
                "tempo": 120.0
            },
            {
                "start_time": 11.0340909,
                "end_time": 11.1704545,
                "pitch": 40,
                "velocity": 51,
                "duration": 0.1363636,
                "tempo": 120.0
            },
            {
                "start_time": 11.1863636,
                "end_time": 11.3204545,
                "pitch": 40,
                "velocity": 51,
                "duration": 0.1340909,
                "tempo": 120.0
            },
            {
                "start_time": 11.3386364,
                "end_time": 11.4727273,
                "pitch": 40,
                "velocity": 51,
                "duration": 0.1340909,
                "tempo": 120.0
            },
            {
                "start_time": 11.4886364,
                "end_time": 11.6227273,
                "pitch": 47,
                "velocity": 51,
                "duration": 0.1340909,
                "tempo": 120.0
            },
            {
                "start_time": 11.6386364,
                "end_time": 11.7727273,
                "pitch": 40,
                "velocity": 51,
                "duration": 0.1340909,
                "tempo": 120.0
            },
            {
                "start_time": 11.7886364,
                "end_time": 11.9227273,
                "pitch": 40,
                "velocity": 51,
                "duration": 0.1340909,
                "tempo": 120.0
            },
            {
                "start_time": 11.9386364,
                "end_time": 12.0727273,
                "pitch": 43,
                "velocity": 51,
                "duration": 0.1340909,
                "tempo": 120.0
            },
            {
                "start_time": 12.0886364,
                "end_time": 12.2227273,
                "pitch": 43,
                "velocity": 51,
                "duration": 0.1340909,
                "tempo": 120.0
            },
            {
                "start_time": 12.2386364,
                "end_time": 12.3727273,
                "pitch": 43,
                "velocity": 51,
                "duration": 0.1340909,
                "tempo": 120.0
            },
            {
                "start_time": 12.3886364,
                "end_time": 12.5227273,
                "pitch": 43,
                "velocity": 51,
                "duration": 0.1340909,
                "tempo": 120.0
            },
            {
                "start_time": 12.5386364,
                "end_time": 12.6727273,
                "pitch": 50,
                "velocity": 51,
                "duration": 0.1340909,
                "tempo": 120.0
            },
            {
                "start_time": 12.6886364,
                "end_time": 12.8227273,
                "pitch": 43,
                "velocity": 51,
                "duration": 0.1340909,
                "tempo": 120.0
            },
            {
                "start_time": 12.8386364,
                "end_time": 12.9727273,
                "pitch": 43,
                "velocity": 51,
                "duration": 0.1340909,
                "tempo": 120.0
            },
            {
                "start_time": 12.9886364,
                "end_time": 13.1227273,
                "pitch": 43,
                "velocity": 51,
                "duration": 0.1340909,
                "tempo": 120.0
            },
            {
                "start_time": 13.1386364,
                "end_time": 13.2727273,
                "pitch": 43,
                "velocity": 51,
                "duration": 0.1340909,
                "tempo": 120.0
            },
            {
                "start_time": 13.2886364,
                "end_time": 13.4227273,
                "pitch": 43,
                "velocity": 51,
                "duration": 0.1340909,
                "tempo": 120.0
            },
            {
                "start_time": 13.4386364,
                "end_time": 13.5727273,
                "pitch": 43,
                "velocity": 51,
                "duration": 0.1340909,
                "tempo": 120.0
            },
            {
                "start_time": 13.5886364,
                "end_time": 13.7227273,
                "pitch": 43,
                "velocity": 51,
                "duration": 0.1340909,
                "tempo": 120.0
            },
            {
                "start_time": 13.7386364,
                "end_time": 13.8727273,
                "pitch": 50,
                "velocity": 51,
                "duration": 0.1340909,
                "tempo": 120.0
            },
            {
                "start_time": 13.8886364,
                "end_time": 14.025,
                "pitch": 43,
                "velocity": 51,
                "duration": 0.1363636,
                "tempo": 120.0
            },
            {
                "start_time": 14.0409091,
                "end_time": 14.175,
                "pitch": 43,
                "velocity": 51,
                "duration": 0.1340909,
                "tempo": 120.0
            },
            {
                "start_time": 14.1931818,
                "end_time": 14.3272727,
                "pitch": 43,
                "velocity": 51,
                "duration": 0.1340909,
                "tempo": 120.0
            },
            {
                "start_time": 14.3431818,
                "end_time": 14.4795455,
                "pitch": 45,
                "velocity": 51,
                "duration": 0.1363636,
                "tempo": 120.0
            },
            {
                "start_time": 14.4954545,
                "end_time": 14.6295455,
                "pitch": 45,
                "velocity": 51,
                "duration": 0.1340909,
                "tempo": 120.0
            },
            {
                "start_time": 14.6454545,
                "end_time": 14.7795455,
                "pitch": 45,
                "velocity": 51,
                "duration": 0.1340909,
                "tempo": 120.0
            },
            {
                "start_time": 14.7954545,
                "end_time": 14.9295455,
                "pitch": 45,
                "velocity": 51,
                "duration": 0.1340909,
                "tempo": 120.0
            },
            {
                "start_time": 14.9454545,
                "end_time": 15.0795455,
                "pitch": 52,
                "velocity": 51,
                "duration": 0.1340909,
                "tempo": 120.0
            },
            {
                "start_time": 15.0954545,
                "end_time": 15.2295455,
                "pitch": 45,
                "velocity": 51,
                "duration": 0.1340909,
                "tempo": 120.0
            },
            {
                "start_time": 15.2454545,
                "end_time": 15.3795455,
                "pitch": 45,
                "velocity": 51,
                "duration": 0.1340909,
                "tempo": 120.0
            },
            {
                "start_time": 15.3954545,
                "end_time": 15.5295455,
                "pitch": 45,
                "velocity": 51,
                "duration": 0.1340909,
                "tempo": 120.0
            },
            {
                "start_time": 15.5454545,
                "end_time": 15.6795455,
                "pitch": 45,
                "velocity": 51,
                "duration": 0.1340909,
                "tempo": 120.0
            },
            {
                "start_time": 15.6954545,
                "end_time": 15.8295455,
                "pitch": 45,
                "velocity": 51,
                "duration": 0.1340909,
                "tempo": 120.0
            },
            {
                "start_time": 15.8454545,
                "end_time": 15.9795455,
                "pitch": 45,
                "velocity": 51,
                "duration": 0.1340909,
                "tempo": 120.0
            },
            {
                "start_time": 15.9954545,
                "end_time": 16.1295455,
                "pitch": 45,
                "velocity": 51,
                "duration": 0.1340909,
                "tempo": 120.0
            },
            {
                "start_time": 16.1454545,
                "end_time": 16.2795455,
                "pitch": 52,
                "velocity": 51,
                "duration": 0.1340909,
                "tempo": 120.0
            },
            {
                "start_time": 16.2954545,
                "end_time": 16.4318182,
                "pitch": 45,
                "velocity": 51,
                "duration": 0.1363636,
                "tempo": 120.0
            },
            {
                "start_time": 16.45,
                "end_time": 16.5840909,
                "pitch": 45,
                "velocity": 51,
                "duration": 0.1340909,
                "tempo": 120.0
            },
            {
                "start_time": 16.6022727,
                "end_time": 16.7386364,
                "pitch": 45,
                "velocity": 51,
                "duration": 0.1363636,
                "tempo": 120.0
            }
        ]
    }
}