{
    "mood": "angry",
    "instruments": {
        "Harpsichord": [
            {
                "start_time": 0.0,
                "end_time": 0.0545455,
                "pitch": 53,
                "velocity": 51,
                "duration": 0.0545455,
                "tempo": 120.0
            },
            {
                "start_time": 0.0659091,
                "end_time": 0.8909091,
                "pitch": 48,
                "velocity": 51,
                "duration": 0.825,
                "tempo": 120.0
            },
            {
                "start_time": 0.9068182,
                "end_time": 1.0409091,
                "pitch": 46,
                "velocity": 51,
                "duration": 0.1340909,
                "tempo": 120.0
            },
            {
                "start_time": 1.0590909,
                "end_time": 1.9454545,
                "pitch": 48,
                "velocity": 51,
                "duration": 0.8863636,
                "tempo": 120.0
            },
            {
                "start_time": 1.9613636,
                "end_time": 2.2477273,
                "pitch": 43,
                "velocity": 51,
                "duration": 0.2863636,
                "tempo": 120.0
            },
            {
                "start_time": 2.2636364,
                "end_time": 2.4,
                "pitch": 41,
                "velocity": 51,
                "duration": 0.1363636,
                "tempo": 120.0
            },
            {
                "start_time": 2.4159091,
                "end_time": 3.1568182,
                "pitch": 39,
                "velocity": 51,
                "duration": 0.7409091,
                "tempo": 120.0
            },
            {
                "start_time": 3.1727273,
                "end_time": 3.6068182,
                "pitch": 41,
                "velocity": 51,
                "duration": 0.4340909,
                "tempo": 120.0
            },
            {
                "start_time": 3.625,
                "end_time": 4.8181818,
                "pitch": 43,
                "velocity": 51,
                "duration": 1.1931818,
                "tempo": 120.0
            },
            {
                "start_time": 4.8340909,
                "end_time": 5.7204545,
                "pitch": 49,
                "velocity": 51,
                "duration": 0.8863636,
                "tempo": 120.0
            },
            {
                "start_time": 5.7363636,
                "end_time": 5.8727273,
                "pitch": 48,
                "velocity": 51,
                "duration": 0.1363636,
                "tempo": 120.0
            },
            {
                "start_time": 5.8886364,
                "end_time": 6.0227273,
                "pitch": 49,
                "velocity": 51,
                "duration": 0.1340909,
                "tempo": 120.0
            },
            {
                "start_time": 6.0409091,
                "end_time": 6.475,
                "pitch": 53,
                "velocity": 51,
                "duration": 0.4340909,
                "tempo": 120.0
            },
            {
                "start_time": 6.4931818,
                "end_time": 6.775,
                "pitch": 53,
                "velocity": 51,
                "duration": 0.2818182,
                "tempo": 120.0
            },
            {
                "start_time": 6.7931818,
                "end_time": 6.9272727,
                "pitch": 48,
                "velocity": 51,
                "duration": 0.1340909,
                "tempo": 120.0
            },
            {
                "start_time": 6.9431818,
                "end_time": 7.0772727,
                "pitch": 49,
                "velocity": 51,
                "duration": 0.1340909,
                "tempo": 120.0
            },
            {
                "start_time": 7.0954545,
                "end_time": 8.1318182,
                "pitch": 53,
                "velocity": 51,
                "duration": 1.0363636,
                "tempo": 120.0
            },
            {
                "start_time": 8.1477273,
                "end_time": 8.2818182,
                "pitch": 53,
                "velocity": 51,
                "duration": 0.1340909,
                "tempo": 120.0
            },
            {
                "start_time": 8.2977273,
                "end_time": 8.4318182,
                "pitch": 53,
                "velocity": 51,
                "duration": 0.1340909,
                "tempo": 120.0
            },
            {
                "start_time": 8.4477273,
                "end_time": 8.8818182,
                "pitch": 49,
                "velocity": 51,
                "duration": 0.4340909,
                "tempo": 120.0
            },
            {
                "start_time": 8.8977273,
                "end_time": 9.1818182,
                "pitch": 51,
                "velocity": 51,
                "duration": 0.2840909,
                "tempo": 120.0
            },
            {
                "start_time": 9.1977273,
                "end_time": 9.3318182,
                "pitch": 49,
                "velocity": 51,
                "duration": 0.1340909,
                "tempo": 120.0
            },
            {
                "start_time": 9.35,
                "end_time": 9.6363636,
                "pitch": 48,
                "velocity": 51,
                "duration": 0.2863636,
                "tempo": 120.0
            },
            {
                "start_time": 9.6522727,
                "end_time": 10.5386364,
                "pitch": 48,
                "velocity": 51,
                "duration": 0.8863636,
                "tempo": 120.0
            },
            {
                "start_time": 10.5545455,
                "end_time": 10.6886364,
                "pitch": 46,
                "velocity": 51,
                "duration": 0.1340909,
                "tempo": 120.0
            },
            {
                "start_time": 10.7045455,
                "end_time": 11.7386364,
                "pitch": 48,
                "velocity": 51,
                "duration": 1.0340909,
                "tempo": 120.0
            },
            {
                "start_time": 11.7545455,
                "end_time": 11.8886364,
                "pitch": 41,
                "velocity": 51,
                "duration": 0.1340909,
                "tempo": 120.0
            },
            {
                "start_time": 11.9045455,
                "end_time": 12.7931818,
                "pitch": 43,
                "velocity": 51,
                "duration": 0.8886364,
                "tempo": 120.0
            },
            {
                "start_time": 12.8090909,
                "end_time": 12.9431818,
                "pitch": 41,
                "velocity": 51,
                "duration": 0.1340909,
                "tempo": 120.0
            },
            {
                "start_time": 12.9613636,
                "end_time": 13.0931818,
                "pitch": 43,
                "velocity": 51,
                "duration": 0.1318182,
                "tempo": 120.0
            },
            {
                "start_time": 13.1113636,
                "end_time": 13.2431818,
                "pitch": 46,
                "velocity": 51,
                "duration": 0.1318182,
                "tempo": 120.0
            },
            {
                "start_time": 13.2613636,
                "end_time": 13.3931818,
                "pitch": 46,
                "velocity": 51,
                "duration": 0.1318182,
                "tempo": 120.0
            },
            {
                "start_time": 13.4113636,
                "end_time": 13.5431818,
                "pitch": 46,
                "velocity": 51,
                "duration": 0.1318182,
                "tempo": 120.0
            },
            {
                "start_time": 13.5613636,
                "end_time": 13.6931818,
                "pitch": 46,
                "velocity": 51,
                "duration": 0.1318182,
                "tempo": 120.0
            },
            {
                "start_time": 13.7113636,
                "end_time": 13.8431818,
                "pitch": 46,
                "velocity": 51,
                "duration": 0.1318182,
                "tempo": 120.0
            },
            {
                "start_time": 13.8613636,
                "end_time": 13.9931818,
                "pitch": 43,
                "velocity": 51,
                "duration": 0.1318182,
                "tempo": 120.0
            },
            {
                "start_time": 14.0113636,
                "end_time": 14.1431818,
                "pitch": 46,
                "velocity": 51,
                "duration": 0.1318182,
                "tempo": 120.0
            },
            {
                "start_time": 14.1613636,
                "end_time": 14.4431818,
                "pitch": 48,
                "velocity": 51,
                "duration": 0.2818182,
                "tempo": 120.0
            },
            {
                "start_time": 14.4613636,
                "end_time": 15.1931818,
                "pitch": 49,
                "velocity": 51,
                "duration": 0.7318182,
                "tempo": 120.0
            },
            {
                "start_time": 15.2113636,
                "end_time": 15.3454545,
                "pitch": 48,
                "velocity": 51,
                "duration": 0.1340909,
                "tempo": 120.0
            },
            {
                "start_time": 15.3613636,
                "end_time": 15.4954545,
                "pitch": 49,
                "velocity": 51,
                "duration": 0.1340909,
                "tempo": 120.0
            },
            {
                "start_time": 15.5136364,
                "end_time": 15.6477273,
                "pitch": 53,
                "velocity": 51,
                "duration": 0.1340909,
                "tempo": 120.0
            },
            {
                "start_time": 15.6636364,
                "end_time": 16.1,
                "pitch": 51,
                "velocity": 51,
                "duration": 0.4363636,
                "tempo": 120.0
            },
            {
                "start_time": 16.1159091,
                "end_time": 16.85,
                "pitch": 51,
                "velocity": 51,
                "duration": 0.7340909,
                "tempo": 120.0
            },
            {
                "start_time": 16.8659091,
                "end_time": 17.3022727,
                "pitch": 48,
                "velocity": 51,
                "duration": 0.4363636,
                "tempo": 120.0
            },
            {
                "start_time": 17.3181818,
                "end_time": 17.7568182,
                "pitch": 49,
                "velocity": 51,
                "duration": 0.4386364,
                "tempo": 120.0
            },
            {
                "start_time": 17.7727273,
                "end_time": 18.0568182,
                "pitch": 51,
                "velocity": 51,
                "duration": 0.2840909,
                "tempo": 120.0
            },
            {
                "start_time": 18.0727273,
                "end_time": 18.5090909,
                "pitch": 48,
                "velocity": 51,
                "duration": 0.4363636,
                "tempo": 120.0
            },
            {
                "start_time": 18.525,
                "end_time": 19.2613636,
                "pitch": 49,
                "velocity": 51,
                "duration": 0.7363636,
                "tempo": 120.0
            },
            {
                "start_time": 19.2795455,
                "end_time": 19.4113636,
                "pitch": 48,
                "velocity": 51,
                "duration": 0.1318182,
                "tempo": 120.0
            },
            {
                "start_time": 19.4295455,
                "end_time": 19.5636364,
                "pitch": 49,
                "velocity": 51,
                "duration": 0.1340909,
                "tempo": 120.0
            },
            {
                "start_time": 19.5795455,
                "end_time": 19.7136364,
                "pitch": 53,
                "velocity": 51,
                "duration": 0.1340909,
                "tempo": 120.0
            },
            {
                "start_time": 19.7318182,
                "end_time": 19.8659091,
                "pitch": 55,
                "velocity": 51,
                "duration": 0.1340909,
                "tempo": 120.0
            },
            {
                "start_time": 19.8818182,
                "end_time": 20.0181818,
                "pitch": 60,
                "velocity": 51,
                "duration": 0.1363636,
                "tempo": 120.0
            },
            {
                "start_time": 20.0340909,
                "end_time": 20.1681818,
                "pitch": 58,
                "velocity": 51,
                "duration": 0.1340909,
                "tempo": 120.0
            },
            {
                "start_time": 20.1863636,
                "end_time": 20.3204545,
                "pitch": 58,
                "velocity": 51,
                "duration": 0.1340909,
                "tempo": 120.0
            },
            {
                "start_time": 20.3363636,
                "end_time": 20.4727273,
                "pitch": 60,
                "velocity": 51,
                "duration": 0.1363636,
                "tempo": 120.0
            },
            {
                "start_time": 20.4886364,
                "end_time": 20.6227273,
                "pitch": 63,
                "velocity": 51,
                "duration": 0.1340909,
                "tempo": 120.0
            },
            {
                "start_time": 20.6409091,
                "end_time": 20.7727273,
                "pitch": 65,
                "velocity": 51,
                "duration": 0.1318182,
                "tempo": 120.0
            },
            {
                "start_time": 20.7886364,
                "end_time": 20.9227273,
                "pitch": 63,
                "velocity": 51,
                "duration": 0.1340909,
                "tempo": 120.0
            },
            {
                "start_time": 20.9386364,
                "end_time": 21.0704545,
                "pitch": 60,
                "velocity": 51,
                "duration": 0.1318182,
                "tempo": 120.0
            },
            {
                "start_time": 21.0863636,
                "end_time": 21.2181818,
                "pitch": 58,
                "velocity": 51,
                "duration": 0.1318182,
                "tempo": 120.0
            },
            {
                "start_time": 21.2363636,
                "end_time": 21.3704545,
                "pitch": 60,
                "velocity": 51,
                "duration": 0.1340909,
                "tempo": 120.0
            },
            {
                "start_time": 21.3886364,
                "end_time": 21.5272727,
                "pitch": 55,
                "velocity": 51,
                "duration": 0.1386364,
                "tempo": 120.0
            },
            {
                "start_time": 21.5454545,
                "end_time": 21.6840909,
                "pitch": 53,
                "velocity": 51,
                "duration": 0.1386364,
                "tempo": 120.0
            },
            {
                "start_time": 21.7,
                "end_time": 21.8409091,
                "pitch": 55,
                "velocity": 51,
                "duration": 0.1409091,
                "tempo": 120.0
            },
            {
                "start_time": 21.8568182,
                "end_time": 21.9909091,
                "pitch": 48,
                "velocity": 51,
                "duration": 0.1340909,
                "tempo": 120.0
            },
            {
                "start_time": 22.0090909,
                "end_time": 22.1409091,
                "pitch": 49,
                "velocity": 51,
                "duration": 0.1318182,
                "tempo": 120.0
            },
            {
                "start_time": 22.1568182,
                "end_time": 22.2886364,
                "pitch": 53,
                "velocity": 51,
                "duration": 0.1318182,
                "tempo": 120.0
            },
            {
                "start_time": 22.3045455,
                "end_time": 22.4363636,
                "pitch": 55,
                "velocity": 51,
                "duration": 0.1318182,
                "tempo": 120.0
            },
            {
                "start_time": 22.4545455,
                "end_time": 22.5863636,
                "pitch": 58,
                "velocity": 51,
                "duration": 0.1318182,
                "tempo": 120.0
            },
            {
                "start_time": 22.6045455,
                "end_time": 22.7386364,
                "pitch": 60,
                "velocity": 51,
                "duration": 0.1340909,
                "tempo": 120.0
            },
            {
                "start_time": 22.7568182,
                "end_time": 22.8909091,
                "pitch": 58,
                "velocity": 51,
                "duration": 0.1340909,
                "tempo": 120.0
            },
            {
                "start_time": 22.9068182,
                "end_time": 23.0409091,
                "pitch": 58,
                "velocity": 51,
                "duration": 0.1340909,
                "tempo": 120.0
            },
            {
                "start_time": 23.0590909,
                "end_time": 23.1909091,
                "pitch": 60,
                "velocity": 51,
                "duration": 0.1318182,
                "tempo": 120.0
            },
            {
                "start_time": 23.2090909,
                "end_time": 23.3409091,
                "pitch": 63,
                "velocity": 51,
                "duration": 0.1318182,
                "tempo": 120.0
            },
            {
                "start_time": 23.3568182,
                "end_time": 23.4886364,
                "pitch": 65,
                "velocity": 51,
                "duration": 0.1318182,
                "tempo": 120.0
            },
            {
                "start_time": 23.5045455,
                "end_time": 23.6363636,
                "pitch": 63,
                "velocity": 51,
                "duration": 0.1318182,
                "tempo": 120.0
            },
            {
                "start_time": 23.6545455,
                "end_time": 23.7886364,
                "pitch": 60,
                "velocity": 51,
                "duration": 0.1340909,
                "tempo": 120.0
            },
            {
                "start_time": 23.8068182,
                "end_time": 23.9454545,
                "pitch": 58,
                "velocity": 51,
                "duration": 0.1386364,
                "tempo": 120.0
            },
            {
                "start_time": 23.9636364,
                "end_time": 24.1022727,
                "pitch": 60,
                "velocity": 51,
                "duration": 0.1386364,
                "tempo": 120.0
            },
            {
                "start_time": 24.1204545,
                "end_time": 24.2590909,
                "pitch": 48,
                "velocity": 51,
                "duration": 0.1386364,
                "tempo": 120.0
            },
            {
                "start_time": 24.275,
                "end_time": 24.4113636,
                "pitch": 49,
                "velocity": 51,
                "duration": 0.1363636,
                "tempo": 120.0
            },
            {
                "start_time": 24.4272727,
                "end_time": 24.5590909,
                "pitch": 53,
                "velocity": 51,
                "duration": 0.1318182,
                "tempo": 120.0
            },
            {
                "start_time": 24.575,
                "end_time": 24.7068182,
                "pitch": 55,
                "velocity": 51,
                "duration": 0.1318182,
                "tempo": 120.0
            },
            {
                "start_time": 24.7227273,
                "end_time": 24.8568182,
                "pitch": 58,
                "velocity": 51,
                "duration": 0.1340909,
                "tempo": 120.0
            },
            {
                "start_time": 24.8727273,
                "end_time": 25.0045455,
                "pitch": 60,
                "velocity": 51,
                "duration": 0.1318182,
                "tempo": 120.0
            },
            {
                "start_time": 25.0227273,
                "end_time": 25.1545455,
                "pitch": 58,
                "velocity": 51,
                "duration": 0.1318182,
                "tempo": 120.0
            },
            {
                "start_time": 25.1727273,
                "end_time": 25.3045455,
                "pitch": 60,
                "velocity": 51,
                "duration": 0.1318182,
                "tempo": 120.0
            },
            {
                "start_time": 25.3227273,
                "end_time": 25.4545455,
                "pitch": 55,
                "velocity": 51,
                "duration": 0.1318182,
                "tempo": 120.0
            },
            {
                "start_time": 25.4727273,
                "end_time": 25.6068182,
                "pitch": 53,
                "velocity": 51,
                "duration": 0.1340909,
                "tempo": 120.0
            },
            {
                "start_time": 25.6227273,
                "end_time": 26.5159091,
                "pitch": 53,
                "velocity": 51,
                "duration": 0.8931818,
                "tempo": 120.0
            },
            {
                "start_time": 26.5318182,
                "end_time": 26.6659091,
                "pitch": 46,
                "velocity": 51,
                "duration": 0.1340909,
                "tempo": 120.0
            },
            {
                "start_time": 26.6840909,
                "end_time": 26.8181818,
                "pitch": 48,
                "velocity": 51,
                "duration": 0.1340909,
                "tempo": 120.0
            },
            {
                "start_time": 26.8340909,
                "end_time": 26.9681818,
                "pitch": 53,
                "velocity": 51,
                "duration": 0.1340909,
                "tempo": 120.0
            },
            {
                "start_time": 26.9840909,
                "end_time": 27.1181818,
                "pitch": 55,
                "velocity": 51,
                "duration": 0.1340909,
                "tempo": 120.0
            },
            {
                "start_time": 27.1340909,
                "end_time": 27.2681818,
                "pitch": 58,
                "velocity": 51,
                "duration": 0.1340909,
                "tempo": 120.0
            },
            {
                "start_time": 27.2840909,
                "end_time": 27.4181818,
                "pitch": 60,
                "velocity": 51,
                "duration": 0.1340909,
                "tempo": 120.0
            },
            {
                "start_time": 27.4340909,
                "end_time": 27.5704545,
                "pitch": 58,
                "velocity": 51,
                "duration": 0.1363636,
                "tempo": 120.0
            },
            {
                "start_time": 27.5863636,
                "end_time": 27.7204545,
                "pitch": 55,
                "velocity": 51,
                "duration": 0.1340909,
                "tempo": 120.0
            },
            {
                "start_time": 27.7386364,
                "end_time": 27.8727273,
                "pitch": 53,
                "velocity": 51,
                "duration": 0.1340909,
                "tempo": 120.0
            },
            {
                "start_time": 27.8886364,
                "end_time": 28.0227273,
                "pitch": 55,
                "velocity": 51,
                "duration": 0.1340909,
                "tempo": 120.0
            },
            {
                "start_time": 28.0409091,
                "end_time": 28.8431818,
                "pitch": 53,
                "velocity": 51,
                "duration": 0.8022727,
                "tempo": 120.0
            }
        ],
        "Acoustic Bass": [
            {
                "start_time": 0.0,
                "end_time": 0.1886364,
                "pitch": 36,
                "velocity": 64,
                "duration": 0.1886364,
                "tempo": 120.0
            },
            {
                "start_time": 0.2,
                "end_time": 0.3340909,
                "pitch": 34,
                "velocity": 64,
                "duration": 0.1340909,
                "tempo": 120.0
            },
            {
                "start_time": 0.3522727,
                "end_time": 0.4863636,
                "pitch": 36,
                "velocity": 64,
                "duration": 0.1340909,
                "tempo": 120.0
            },
            {
                "start_time": 0.5022727,
                "end_time": 0.6386364,
                "pitch": 34,
                "velocity": 64,
                "duration": 0.1363636,
                "tempo": 120.0
            },
            {
                "start_time": 0.6545455,
                "end_time": 0.7886364,
                "pitch": 36,
                "velocity": 64,
                "duration": 0.1340909,
                "tempo": 120.0
            },
            {
                "start_time": 0.8068182,
                "end_time": 0.9409091,
                "pitch": 34,
                "velocity": 64,
                "duration": 0.1340909,
                "tempo": 120.0
            },
            {
                "start_time": 0.9568182,
                "end_time": 1.0931818,
                "pitch": 36,
                "velocity": 64,
                "duration": 0.1363636,
                "tempo": 120.0
            },
            {
                "start_time": 1.1090909,
                "end_time": 1.3954545,
                "pitch": 36,
                "velocity": 64,
                "duration": 0.2863636,
                "tempo": 120.0
            },
            {
                "start_time": 1.4113636,
                "end_time": 1.5454545,
                "pitch": 34,
                "velocity": 64,
                "duration": 0.1340909,
                "tempo": 120.0
            },
            {
                "start_time": 1.5613636,
                "end_time": 1.6954545,
                "pitch": 36,
                "velocity": 64,
                "duration": 0.1340909,
                "tempo": 120.0
            },
            {
                "start_time": 1.7113636,
                "end_time": 1.8454545,
                "pitch": 34,
                "velocity": 64,
                "duration": 0.1340909,
                "tempo": 120.0
            },
            {
                "start_time": 1.8613636,
                "end_time": 1.9954545,
                "pitch": 36,
                "velocity": 64,
                "duration": 0.1340909,
                "tempo": 120.0
            },
            {
                "start_time": 2.0113636,
                "end_time": 2.1477273,
                "pitch": 34,
                "velocity": 64,
                "duration": 0.1363636,
                "tempo": 120.0
            },
            {
                "start_time": 2.1636364,
                "end_time": 2.2977273,
                "pitch": 36,
                "velocity": 64,
                "duration": 0.1340909,
                "tempo": 120.0
            },
            {
                "start_time": 2.3159091,
                "end_time": 2.6022727,
                "pitch": 36,
                "velocity": 64,
                "duration": 0.2863636,
                "tempo": 120.0
            },
            {
                "start_time": 2.6181818,
                "end_time": 2.7522727,
                "pitch": 34,
                "velocity": 64,
                "duration": 0.1340909,
                "tempo": 120.0
            },
            {
                "start_time": 2.7704545,
                "end_time": 2.9045455,
                "pitch": 36,
                "velocity": 64,
                "duration": 0.1340909,
                "tempo": 120.0
            },
            {
                "start_time": 2.9204545,
                "end_time": 3.0568182,
                "pitch": 34,
                "velocity": 64,
                "duration": 0.1363636,
                "tempo": 120.0
            },
            {
                "start_time": 3.0727273,
                "end_time": 3.2068182,
                "pitch": 36,
                "velocity": 64,
                "duration": 0.1340909,
                "tempo": 120.0
            },
            {
                "start_time": 3.225,
                "end_time": 3.3568182,
                "pitch": 34,
                "velocity": 64,
                "duration": 0.1318182,
                "tempo": 120.0
            },
            {
                "start_time": 3.375,
                "end_time": 3.5068182,
                "pitch": 36,
                "velocity": 64,
                "duration": 0.1318182,
                "tempo": 120.0
            },
            {
                "start_time": 3.525,
                "end_time": 3.8068182,
                "pitch": 36,
                "velocity": 64,
                "duration": 0.2818182,
                "tempo": 120.0
            },
            {
                "start_time": 3.825,
                "end_time": 3.9590909,
                "pitch": 34,
                "velocity": 64,
                "duration": 0.1340909,
                "tempo": 120.0
            },
            {
                "start_time": 3.975,
                "end_time": 4.1113636,
                "pitch": 36,
                "velocity": 64,
                "duration": 0.1363636,
                "tempo": 120.0
            },
            {
                "start_time": 4.1272727,
                "end_time": 4.2613636,
                "pitch": 34,
                "velocity": 64,
                "duration": 0.1340909,
                "tempo": 120.0
            },
            {
                "start_time": 4.2795455,
                "end_time": 4.4136364,
                "pitch": 36,
                "velocity": 64,
                "duration": 0.1340909,
                "tempo": 120.0
            },
            {
                "start_time": 4.4295455,
                "end_time": 4.5659091,
                "pitch": 34,
                "velocity": 64,
                "duration": 0.1363636,
                "tempo": 120.0
            },
            {
                "start_time": 4.5818182,
                "end_time": 4.7159091,
                "pitch": 36,
                "velocity": 64,
                "duration": 0.1340909,
                "tempo": 120.0
            },
            {
                "start_time": 4.7340909,
                "end_time": 5.0204545,
                "pitch": 37,
                "velocity": 64,
                "duration": 0.2863636,
                "tempo": 120.0
            },
            {
                "start_time": 5.0363636,
                "end_time": 5.1704545,
                "pitch": 37,
                "velocity": 64,
                "duration": 0.1340909,
                "tempo": 120.0
            },
            {
                "start_time": 5.1863636,
                "end_time": 5.3204545,
                "pitch": 37,
                "velocity": 64,
                "duration": 0.1340909,
                "tempo": 120.0
            },
            {
                "start_time": 5.3363636,
                "end_time": 5.4704545,
                "pitch": 36,
                "velocity": 64,
                "duration": 0.1340909,
                "tempo": 120.0
            },
            {
                "start_time": 5.4863636,
                "end_time": 5.6204545,
                "pitch": 37,
                "velocity": 64,
                "duration": 0.1340909,
                "tempo": 120.0
            },
            {
                "start_time": 5.6363636,
                "end_time": 5.7704545,
                "pitch": 36,
                "velocity": 64,
                "duration": 0.1340909,
                "tempo": 120.0
            },
            {
                "start_time": 5.7886364,
                "end_time": 5.9227273,
                "pitch": 37,
                "velocity": 64,
                "duration": 0.1340909,
                "tempo": 120.0
            },
            {
                "start_time": 5.9386364,
                "end_time": 6.225,
                "pitch": 37,
                "velocity": 64,
                "duration": 0.2863636,
                "tempo": 120.0
            },
            {
                "start_time": 6.2431818,
                "end_time": 6.375,
                "pitch": 36,
                "velocity": 64,
                "duration": 0.1318182,
                "tempo": 120.0
            },
            {
                "start_time": 6.3931818,
                "end_time": 6.525,
                "pitch": 37,
                "velocity": 64,
                "duration": 0.1318182,
                "tempo": 120.0
            },
            {
                "start_time": 6.5431818,
                "end_time": 6.675,
                "pitch": 36,
                "velocity": 64,
                "duration": 0.1318182,
                "tempo": 120.0
            },
            {
                "start_time": 6.6931818,
                "end_time": 6.825,
                "pitch": 37,
                "velocity": 64,
                "duration": 0.1318182,
                "tempo": 120.0
            },
            {
                "start_time": 6.8431818,
                "end_time": 6.9772727,
                "pitch": 36,
                "velocity": 64,
                "duration": 0.1340909,
                "tempo": 120.0
            },
            {
                "start_time": 6.9931818,
                "end_time": 7.1295455,
                "pitch": 37,
                "velocity": 64,
                "duration": 0.1363636,
                "tempo": 120.0
            },
            {
                "start_time": 7.1454545,
                "end_time": 7.4318182,
                "pitch": 37,
                "velocity": 64,
                "duration": 0.2863636,
                "tempo": 120.0
            },
            {
                "start_time": 7.4477273,
                "end_time": 7.5818182,
                "pitch": 36,
                "velocity": 64,
                "duration": 0.1340909,
                "tempo": 120.0
            },
            {
                "start_time": 7.5977273,
                "end_time": 7.7318182,
                "pitch": 37,
                "velocity": 64,
                "duration": 0.1340909,
                "tempo": 120.0
            },
            {
                "start_time": 7.7477273,
                "end_time": 7.8818182,
                "pitch": 36,
                "velocity": 64,
                "duration": 0.1340909,
                "tempo": 120.0
            },
            {
                "start_time": 7.8977273,
                "end_time": 8.0318182,
                "pitch": 37,
                "velocity": 64,
                "duration": 0.1340909,
                "tempo": 120.0
            },
            {
                "start_time": 8.0477273,
                "end_time": 8.1818182,
                "pitch": 36,
                "velocity": 64,
                "duration": 0.1340909,
                "tempo": 120.0
            },
            {
                "start_time": 8.1977273,
                "end_time": 8.3318182,
                "pitch": 37,
                "velocity": 64,
                "duration": 0.1340909,
                "tempo": 120.0
            },
            {
                "start_time": 8.3477273,
                "end_time": 8.6318182,
                "pitch": 37,
                "velocity": 64,
                "duration": 0.2840909,
                "tempo": 120.0
            },
            {
                "start_time": 8.6477273,
                "end_time": 8.7818182,
                "pitch": 36,
                "velocity": 64,
                "duration": 0.1340909,
                "tempo": 120.0
            },
            {
                "start_time": 8.7977273,
                "end_time": 8.9318182,
                "pitch": 37,
                "velocity": 64,
                "duration": 0.1340909,
                "tempo": 120.0
            },
            {
                "start_time": 8.9477273,
                "end_time": 9.0818182,
                "pitch": 36,
                "velocity": 64,
                "duration": 0.1340909,
                "tempo": 120.0
            },
            {
                "start_time": 9.0977273,
                "end_time": 9.2318182,
                "pitch": 37,
                "velocity": 64,
                "duration": 0.1340909,
                "tempo": 120.0
            },
            {
                "start_time": 9.2477273,
                "end_time": 9.3840909,
                "pitch": 36,
                "velocity": 64,
                "duration": 0.1363636,
                "tempo": 120.0
            },
            {
                "start_time": 9.4,
                "end_time": 9.5340909,
                "pitch": 37,
                "velocity": 64,
                "duration": 0.1340909,
                "tempo": 120.0
            },
            {
                "start_time": 9.5522727,
                "end_time": 9.8386364,
                "pitch": 36,
                "velocity": 64,
                "duration": 0.2863636,
                "tempo": 120.0
            },
            {
                "start_time": 9.8545455,
                "end_time": 9.9886364,
                "pitch": 34,
                "velocity": 64,
                "duration": 0.1340909,
                "tempo": 120.0
            },
            {
                "start_time": 10.0045455,
                "end_time": 10.1386364,
                "pitch": 36,
                "velocity": 64,
                "duration": 0.1340909,
                "tempo": 120.0
            },
            {
                "start_time": 10.1545455,
                "end_time": 10.2886364,
                "pitch": 34,
                "velocity": 64,
                "duration": 0.1340909,
                "tempo": 120.0
            },
            {
                "start_time": 10.3045455,
                "end_time": 10.4386364,
                "pitch": 36,
                "velocity": 64,
                "duration": 0.1340909,
                "tempo": 120.0
            },
            {
                "start_time": 10.4545455,
                "end_time": 10.5886364,
                "pitch": 34,
                "velocity": 64,
                "duration": 0.1340909,
                "tempo": 120.0
            },
            {
                "start_time": 10.6045455,
                "end_time": 10.7386364,
                "pitch": 36,
                "velocity": 64,
                "duration": 0.1340909,
                "tempo": 120.0
            },
            {
                "start_time": 10.7545455,
                "end_time": 11.0386364,
                "pitch": 36,
                "velocity": 64,
                "duration": 0.2840909,
                "tempo": 120.0
            },
            {
                "start_time": 11.0545455,
                "end_time": 11.1886364,
                "pitch": 34,
                "velocity": 64,
                "duration": 0.1340909,
                "tempo": 120.0
            },
            {
                "start_time": 11.2045455,
                "end_time": 11.3386364,
                "pitch": 36,
                "velocity": 64,
                "duration": 0.1340909,
                "tempo": 120.0
            },
            {
                "start_time": 11.3545455,
                "end_time": 11.4886364,
                "pitch": 34,
                "velocity": 64,
                "duration": 0.1340909,
                "tempo": 120.0
            },
            {
                "start_time": 11.5045455,
                "end_time": 11.6386364,
                "pitch": 36,
                "velocity": 64,
                "duration": 0.1340909,
                "tempo": 120.0
            },
            {
                "start_time": 11.6545455,
                "end_time": 11.7886364,
                "pitch": 34,
                "velocity": 64,
                "duration": 0.1340909,
                "tempo": 120.0
            },
            {
                "start_time": 11.8045455,
                "end_time": 11.9386364,
                "pitch": 36,
                "velocity": 64,
                "duration": 0.1340909,
                "tempo": 120.0
            },
            {
                "start_time": 11.9545455,
                "end_time": 12.2386364,
                "pitch": 36,
                "velocity": 64,
                "duration": 0.2840909,
                "tempo": 120.0
            },
            {
                "start_time": 12.2545455,
                "end_time": 12.3886364,
                "pitch": 34,
                "velocity": 64,
                "duration": 0.1340909,
                "tempo": 120.0
            },
            {
                "start_time": 12.4068182,
                "end_time": 12.5409091,
                "pitch": 36,
                "velocity": 64,
                "duration": 0.1340909,
                "tempo": 120.0
            },
            {
                "start_time": 12.5568182,
                "end_time": 12.6931818,
                "pitch": 34,
                "velocity": 64,
                "duration": 0.1363636,
                "tempo": 120.0
            },
            {
                "start_time": 12.7090909,
                "end_time": 12.8431818,
                "pitch": 36,
                "velocity": 64,
                "duration": 0.1340909,
                "tempo": 120.0
            },
            {
                "start_time": 12.8613636,
                "end_time": 12.9931818,
                "pitch": 34,
                "velocity": 64,
                "duration": 0.1318182,
                "tempo": 120.0
            },
            {
                "start_time": 13.0113636,
                "end_time": 13.1431818,
                "pitch": 36,
                "velocity": 64,
                "duration": 0.1318182,
                "tempo": 120.0
            },
            {
                "start_time": 13.1613636,
                "end_time": 13.4431818,
                "pitch": 36,
                "velocity": 64,
                "duration": 0.2818182,
                "tempo": 120.0
            },
            {
                "start_time": 13.4613636,
                "end_time": 13.5931818,
                "pitch": 34,
                "velocity": 64,
                "duration": 0.1318182,
                "tempo": 120.0
            },
            {
                "start_time": 13.6113636,
                "end_time": 13.7431818,
                "pitch": 36,
                "velocity": 64,
                "duration": 0.1318182,
                "tempo": 120.0
            },
            {
                "start_time": 13.7613636,
                "end_time": 13.8931818,
                "pitch": 34,
                "velocity": 64,
                "duration": 0.1318182,
                "tempo": 120.0
            },
            {
                "start_time": 13.9113636,
                "end_time": 14.0431818,
                "pitch": 36,
                "velocity": 64,
                "duration": 0.1318182,
                "tempo": 120.0
            },
            {
                "start_time": 14.0613636,
                "end_time": 14.1931818,
                "pitch": 34,
                "velocity": 64,
                "duration": 0.1318182,
                "tempo": 120.0
            },
            {
                "start_time": 14.2113636,
                "end_time": 14.3431818,
                "pitch": 36,
                "velocity": 64,
                "duration": 0.1318182,
                "tempo": 120.0
            },
            {
                "start_time": 14.3613636,
                "end_time": 14.6431818,
                "pitch": 37,
                "velocity": 64,
                "duration": 0.2818182,
                "tempo": 120.0
            },
            {
                "start_time": 14.6613636,
                "end_time": 14.7931818,
                "pitch": 37,
                "velocity": 64,
                "duration": 0.1318182,
                "tempo": 120.0
            },
            {
                "start_time": 14.8113636,
                "end_time": 14.9431818,
                "pitch": 37,
                "velocity": 64,
                "duration": 0.1318182,
                "tempo": 120.0
            },
            {
                "start_time": 14.9613636,
                "end_time": 15.0931818,
                "pitch": 36,
                "velocity": 64,
                "duration": 0.1318182,
                "tempo": 120.0
            },
            {
                "start_time": 15.1113636,
                "end_time": 15.2431818,
                "pitch": 37,
                "velocity": 64,
                "duration": 0.1318182,
                "tempo": 120.0
            },
            {
                "start_time": 15.2613636,
                "end_time": 15.3954545,
                "pitch": 36,
                "velocity": 64,
                "duration": 0.1340909,
                "tempo": 120.0
            },
            {
                "start_time": 15.4113636,
                "end_time": 15.5477273,
                "pitch": 37,
                "velocity": 64,
                "duration": 0.1363636,
                "tempo": 120.0
            },
            {
                "start_time": 15.5636364,
                "end_time": 15.85,
                "pitch": 37,
                "velocity": 64,
                "duration": 0.2863636,
                "tempo": 120.0
            },
            {
                "start_time": 15.8659091,
                "end_time": 16.0,
                "pitch": 36,
                "velocity": 64,
                "duration": 0.1340909,
                "tempo": 120.0
            },
            {
                "start_time": 16.0159091,
                "end_time": 16.15,
                "pitch": 37,
                "velocity": 64,
                "duration": 0.1340909,
                "tempo": 120.0
            },
            {
                "start_time": 16.1659091,
                "end_time": 16.3,
                "pitch": 36,
                "velocity": 64,
                "duration": 0.1340909,
                "tempo": 120.0
            },
            {
                "start_time": 16.3159091,
                "end_time": 16.45,
                "pitch": 37,
                "velocity": 64,
                "duration": 0.1340909,
                "tempo": 120.0
            },
            {
                "start_time": 16.4659091,
                "end_time": 16.6,
                "pitch": 36,
                "velocity": 64,
                "duration": 0.1340909,
                "tempo": 120.0
            },
            {
                "start_time": 16.6159091,
                "end_time": 16.75,
                "pitch": 37,
                "velocity": 64,
                "duration": 0.1340909,
                "tempo": 120.0
            },
            {
                "start_time": 16.7659091,
                "end_time": 17.05,
                "pitch": 37,
                "velocity": 64,
                "duration": 0.2840909,
                "tempo": 120.0
            },
            {
                "start_time": 17.0659091,
                "end_time": 17.2022727,
                "pitch": 36,
                "velocity": 64,
                "duration": 0.1363636,
                "tempo": 120.0
            },
            {
                "start_time": 17.2181818,
                "end_time": 17.3522727,
                "pitch": 37,
                "velocity": 64,
                "duration": 0.1340909,
                "tempo": 120.0
            },
            {
                "start_time": 17.3704545,
                "end_time": 17.5045455,
                "pitch": 36,
                "velocity": 64,
                "duration": 0.1340909,
                "tempo": 120.0
            },
            {
                "start_time": 17.5204545,
                "end_time": 17.6568182,
                "pitch": 37,
                "velocity": 64,
                "duration": 0.1363636,
                "tempo": 120.0
            },
            {
                "start_time": 17.6727273,
                "end_time": 17.8068182,
                "pitch": 36,
                "velocity": 64,
                "duration": 0.1340909,
                "tempo": 120.0
            },
            {
                "start_time": 17.8227273,
                "end_time": 17.9568182,
                "pitch": 37,
                "velocity": 64,
                "duration": 0.1340909,
                "tempo": 120.0
            },
            {
                "start_time": 17.9727273,
                "end_time": 18.2568182,
                "pitch": 37,
                "velocity": 64,
                "duration": 0.2840909,
                "tempo": 120.0
            },
            {
                "start_time": 18.2727273,
                "end_time": 18.4068182,
                "pitch": 36,
                "velocity": 64,
                "duration": 0.1340909,
                "tempo": 120.0
            },
            {
                "start_time": 18.425,
                "end_time": 18.5590909,
                "pitch": 37,
                "velocity": 64,
                "duration": 0.1340909,
                "tempo": 120.0
            },
            {
                "start_time": 18.575,
                "end_time": 18.7113636,
                "pitch": 36,
                "velocity": 64,
                "duration": 0.1363636,
                "tempo": 120.0
            },
            {
                "start_time": 18.7272727,
                "end_time": 18.8613636,
                "pitch": 37,
                "velocity": 64,
                "duration": 0.1340909,
                "tempo": 120.0
            },
            {
                "start_time": 18.8795455,
                "end_time": 19.0113636,
                "pitch": 36,
                "velocity": 64,
                "duration": 0.1318182,
                "tempo": 120.0
            },
            {
                "start_time": 19.0295455,
                "end_time": 19.1613636,
                "pitch": 37,
                "velocity": 64,
                "duration": 0.1318182,
                "tempo": 120.0
            },
            {
                "start_time": 19.1795455,
                "end_time": 19.4613636,
                "pitch": 24,
                "velocity": 64,
                "duration": 0.2818182,
                "tempo": 120.0
            },
            {
                "start_time": 19.4795455,
                "end_time": 19.7659091,
                "pitch": 24,
                "velocity": 64,
                "duration": 0.2863636,
                "tempo": 120.0
            },
            {
                "start_time": 19.7818182,
                "end_time": 20.0681818,
                "pitch": 36,
                "velocity": 64,
                "duration": 0.2863636,
                "tempo": 120.0
            },
            {
                "start_time": 20.0840909,
                "end_time": 20.2204545,
                "pitch": 24,
                "velocity": 64,
                "duration": 0.1363636,
                "tempo": 120.0
            },
            {
                "start_time": 20.2363636,
                "end_time": 20.5227273,
                "pitch": 24,
                "velocity": 64,
                "duration": 0.2863636,
                "tempo": 120.0
            },
            {
                "start_time": 20.5386364,
                "end_time": 20.675,
                "pitch": 24,
                "velocity": 64,
                "duration": 0.1363636,
                "tempo": 120.0
            },
            {
                "start_time": 20.6909091,
                "end_time": 20.9704545,
                "pitch": 24,
                "velocity": 64,
                "duration": 0.2795455,
                "tempo": 120.0
            },
            {
                "start_time": 20.9886364,
                "end_time": 21.2681818,
                "pitch": 36,
                "velocity": 64,
                "duration": 0.2795455,
                "tempo": 120.0
            },
            {
                "start_time": 21.2840909,
                "end_time": 21.5795455,
                "pitch": 24,
                "velocity": 64,
                "duration": 0.2954545,
                "tempo": 120.0
            },
            {
                "start_time": 21.5977273,
                "end_time": 21.8909091,
                "pitch": 24,
                "velocity": 64,
                "duration": 0.2931818,
                "tempo": 120.0
            },
            {
                "start_time": 21.9090909,
                "end_time": 22.1909091,
                "pitch": 24,
                "velocity": 64,
                "duration": 0.2818182,
                "tempo": 120.0
            },
            {
                "start_time": 22.2068182,
                "end_time": 22.4863636,
                "pitch": 36,
                "velocity": 64,
                "duration": 0.2795455,
                "tempo": 120.0
            },
            {
                "start_time": 22.5022727,
                "end_time": 22.6386364,
                "pitch": 24,
                "velocity": 64,
                "duration": 0.1363636,
                "tempo": 120.0
            },
            {
                "start_time": 22.6545455,
                "end_time": 22.9409091,
                "pitch": 24,
                "velocity": 64,
                "duration": 0.2863636,
                "tempo": 120.0
            },
            {
                "start_time": 22.9568182,
                "end_time": 23.0931818,
                "pitch": 24,
                "velocity": 64,
                "duration": 0.1363636,
                "tempo": 120.0
            },
            {
                "start_time": 23.1090909,
                "end_time": 23.3886364,
                "pitch": 24,
                "velocity": 64,
                "duration": 0.2795455,
                "tempo": 120.0
            },
            {
                "start_time": 23.4068182,
                "end_time": 23.6863636,
                "pitch": 36,
                "velocity": 64,
                "duration": 0.2795455,
                "tempo": 120.0
            },
            {
                "start_time": 23.7022727,
                "end_time": 23.9977273,
                "pitch": 24,
                "velocity": 64,
                "duration": 0.2954545,
                "tempo": 120.0
            },
            {
                "start_time": 24.0159091,
                "end_time": 24.3113636,
                "pitch": 24,
                "velocity": 64,
                "duration": 0.2954545,
                "tempo": 120.0
            },
            {
                "start_time": 24.3272727,
                "end_time": 24.6090909,
                "pitch": 24,
                "velocity": 64,
                "duration": 0.2818182,
                "tempo": 120.0
            },
            {
                "start_time": 24.625,
                "end_time": 24.9045455,
                "pitch": 36,
                "velocity": 64,
                "duration": 0.2795455,
                "tempo": 120.0
            },
            {
                "start_time": 24.9227273,
                "end_time": 25.0545455,
                "pitch": 24,
                "velocity": 64,
                "duration": 0.1318182,
                "tempo": 120.0
            },
            {
                "start_time": 25.0727273,
                "end_time": 25.3545455,
                "pitch": 24,
                "velocity": 64,
                "duration": 0.2818182,
                "tempo": 120.0
            },
            {
                "start_time": 25.3727273,
                "end_time": 25.5045455,
                "pitch": 24,
                "velocity": 64,
                "duration": 0.1318182,
                "tempo": 120.0
            },
            {
                "start_time": 25.5227273,
                "end_time": 25.8090909,
                "pitch": 24,
                "velocity": 64,
                "duration": 0.2863636,
                "tempo": 120.0
            },
            {
                "start_time": 25.825,
                "end_time": 26.1113636,
                "pitch": 36,
                "velocity": 64,
                "duration": 0.2863636,
                "tempo": 120.0
            },
            {
                "start_time": 26.1272727,
                "end_time": 26.4136364,
                "pitch": 24,
                "velocity": 64,
                "duration": 0.2863636,
                "tempo": 120.0
            },
            {
                "start_time": 26.4318182,
                "end_time": 26.7181818,
                "pitch": 24,
                "velocity": 64,
                "duration": 0.2863636,
                "tempo": 120.0
            },
            {
                "start_time": 26.7340909,
                "end_time": 27.0181818,
                "pitch": 24,
                "velocity": 64,
                "duration": 0.2840909,
                "tempo": 120.0
            },
            {
                "start_time": 27.0340909,
                "end_time": 27.3181818,
                "pitch": 36,
                "velocity": 64,
                "duration": 0.2840909,
                "tempo": 120.0
            },
            {
                "start_time": 27.3340909,
                "end_time": 27.4681818,
                "pitch": 24,
                "velocity": 64,
                "duration": 0.1340909,
                "tempo": 120.0
            },
            {
                "start_time": 27.4863636,
                "end_time": 27.7727273,
                "pitch": 24,
                "velocity": 64,
                "duration": 0.2863636,
                "tempo": 120.0
            },
            {
                "start_time": 27.7886364,
                "end_time": 27.9227273,
                "pitch": 24,
                "velocity": 64,
                "duration": 0.1340909,
                "tempo": 120.0
            },
            {
                "start_time": 27.9409091,
                "end_time": 28.2227273,
                "pitch": 24,
                "velocity": 64,
                "duration": 0.2818182,
                "tempo": 120.0
            },
            {
                "start_time": 28.2409091,
                "end_time": 28.5227273,
                "pitch": 36,
                "velocity": 64,
                "duration": 0.2818182,
                "tempo": 120.0
            },
            {
                "start_time": 28.5409091,
                "end_time": 28.8272727,
                "pitch": 24,
                "velocity": 64,
                "duration": 0.2863636,
                "tempo": 120.0
            }
        ]
    }
}