{
    "mood": "angry",
    "instruments": {
        "Harpsichord": [
            {
                "start_time": 0.0,
                "end_time": 0.3840909,
                "pitch": 58,
                "velocity": 64,
                "duration": 0.3840909,
                "tempo": 120.0
            },
            {
                "start_time": 0.4,
                "end_time": 0.7840909,
                "pitch": 60,
                "velocity": 64,
                "duration": 0.3840909,
                "tempo": 120.0
            },
            {
                "start_time": 0.8,
                "end_time": 1.1840909,
                "pitch": 61,
                "velocity": 64,
                "duration": 0.3840909,
                "tempo": 120.0
            },
            {
                "start_time": 1.2,
                "end_time": 1.3840909,
                "pitch": 61,
                "velocity": 64,
                "duration": 0.1840909,
                "tempo": 120.0
            },
            {
                "start_time": 1.4,
                "end_time": 1.4840909,
                "pitch": 60,
                "velocity": 64,
                "duration": 0.0840909,
                "tempo": 120.0
            },
            {
                "start_time": 1.5,
                "end_time": 1.55,
                "pitch": 58,
                "velocity": 64,
                "duration": 0.05,
                "tempo": 120.0
            },
            {
                "start_time": 3.2022727,
                "end_time": 3.5886364,
                "pitch": 58,
                "velocity": 64,
                "duration": 0.3863636,
                "tempo": 120.0
            },
            {
                "start_time": 3.6045455,
                "end_time": 3.9886364,
                "pitch": 60,
                "velocity": 64,
                "duration": 0.3840909,
                "tempo": 120.0
            },
            {
                "start_time": 4.0045455,
                "end_time": 4.3886364,
                "pitch": 61,
                "velocity": 64,
                "duration": 0.3840909,
                "tempo": 120.0
            },
            {
                "start_time": 4.4045455,
                "end_time": 4.5909091,
                "pitch": 61,
                "velocity": 64,
                "duration": 0.1863636,
                "tempo": 120.0
            },
            {
                "start_time": 4.6068182,
                "end_time": 4.6909091,
                "pitch": 61,
                "velocity": 64,
                "duration": 0.0840909,
                "tempo": 120.0
            },
            {
                "start_time": 4.7068182,
                "end_time": 4.7909091,
                "pitch": 58,
                "velocity": 64,
                "duration": 0.0840909,
                "tempo": 120.0
            },
            {
                "start_time": 6.8136364,
                "end_time": 7.1977273,
                "pitch": 60,
                "velocity": 64,
                "duration": 0.3840909,
                "tempo": 120.0
            },
            {
                "start_time": 7.2136364,
                "end_time": 7.6,
                "pitch": 61,
                "velocity": 64,
                "duration": 0.3863636,
                "tempo": 120.0
            },
            {
                "start_time": 7.6159091,
                "end_time": 7.8,
                "pitch": 61,
                "velocity": 64,
                "duration": 0.1840909,
                "tempo": 120.0
            },
            {
                "start_time": 7.8159091,
                "end_time": 7.9,
                "pitch": 61,
                "velocity": 64,
                "duration": 0.0840909,
                "tempo": 120.0
            },
            {
                "start_time": 7.9159091,
                "end_time": 9.6068182,
                "pitch": 58,
                "velocity": 64,
                "duration": 1.6909091,
                "tempo": 120.0
            },
            {
                "start_time": 9.625,
                "end_time": 10.0113636,
                "pitch": 58,
                "velocity": 64,
                "duration": 0.3863636,
                "tempo": 120.0
            },
            {
                "start_time": 10.0272727,
                "end_time": 10.4136364,
                "pitch": 60,
                "velocity": 64,
                "duration": 0.3863636,
                "tempo": 120.0
            },
            {
                "start_time": 10.4295455,
                "end_time": 10.8159091,
                "pitch": 61,
                "velocity": 64,
                "duration": 0.3863636,
                "tempo": 120.0
            },
            {
                "start_time": 10.8318182,
                "end_time": 11.0159091,
                "pitch": 61,
                "velocity": 64,
                "duration": 0.1840909,
                "tempo": 120.0
            },
            {
                "start_time": 11.0340909,
                "end_time": 11.1181818,
                "pitch": 61,
                "velocity": 64,
                "duration": 0.0840909,
                "tempo": 120.0
            },
            {
                "start_time": 11.1340909,
                "end_time": 11.2181818,
                "pitch": 58,
                "velocity": 64,
                "duration": 0.0840909,
                "tempo": 120.0
            },
            {
                "start_time": 13.2431818,
                "end_time": 13.6272727,
                "pitch": 60,
                "velocity": 64,
                "duration": 0.3840909,
                "tempo": 120.0
            },
            {
                "start_time": 13.6431818,
                "end_time": 13.9295455,
                "pitch": 61,
                "velocity": 64,
                "duration": 0.2863636,
                "tempo": 120.0
            },
            {
                "start_time": 16.4590909,
                "end_time": 16.6431818,
                "pitch": 58,
                "velocity": 64,
                "duration": 0.1840909,
                "tempo": 120.0
            },
            {
                "start_time": 16.6590909,
                "end_time": 16.8431818,
                "pitch": 60,
                "velocity": 64,
                "duration": 0.1840909,
                "tempo": 120.0
            },
            {
                "start_time": 16.8590909,
                "end_time": 17.0431818,
                "pitch": 61,
                "velocity": 64,
                "duration": 0.1840909,
                "tempo": 120.0
            },
            {
                "start_time": 17.0613636,
                "end_time": 18.8477273,
                "pitch": 63,
                "velocity": 64,
                "duration": 1.7863636,
                "tempo": 120.0
            },
            {
                "start_time": 19.6681818,
                "end_time": 19.8522727,
                "pitch": 60,
                "velocity": 64,
                "duration": 0.1840909,
                "tempo": 120.0
            },
            {
                "start_time": 19.8681818,
                "end_time": 20.0545455,
                "pitch": 61,
                "velocity": 64,
                "duration": 0.1863636,
                "tempo": 120.0
            },
            {
                "start_time": 20.0704545,
                "end_time": 20.2545455,
                "pitch": 63,
                "velocity": 64,
                "duration": 0.1840909,
                "tempo": 120.0
            },
            {
                "start_time": 20.2704545,
                "end_time": 22.0590909,
                "pitch": 65,
                "velocity": 64,
                "duration": 1.7886364,
                "tempo": 120.0
            },
            {
                "start_time": 22.875,
                "end_time": 23.0590909,
                "pitch": 58,
                "velocity": 64,
                "duration": 0.1840909,
                "tempo": 120.0
            },
            {
                "start_time": 23.0772727,
                "end_time": 23.2613636,
                "pitch": 60,
                "velocity": 64,
                "duration": 0.1840909,
                "tempo": 120.0
            },
            {
                "start_time": 23.2772727,
                "end_time": 23.4613636,
                "pitch": 61,
                "velocity": 64,
                "duration": 0.1840909,
                "tempo": 120.0
            },
            {
                "start_time": 23.4772727,
                "end_time": 25.2659091,
                "pitch": 63,
                "velocity": 64,
                "duration": 1.7886364,
                "tempo": 120.0
            },
            {
                "start_time": 26.0863636,
                "end_time": 26.2704545,
                "pitch": 58,
                "velocity": 64,
                "duration": 0.1840909,
                "tempo": 120.0
            },
            {
                "start_time": 26.2863636,
                "end_time": 26.4704545,
                "pitch": 60,
                "velocity": 64,
                "duration": 0.1840909,
                "tempo": 120.0
            },
            {
                "start_time": 26.4863636,
                "end_time": 26.6704545,
                "pitch": 61,
                "velocity": 64,
                "duration": 0.1840909,
                "tempo": 120.0
            },
            {
                "start_time": 26.6863636,
                "end_time": 26.8704545,
                "pitch": 63,
                "velocity": 64,
                "duration": 0.1840909,
                "tempo": 120.0
            }
        ],
        "Synth Bass 1": [
            {
                "start_time": 0.0,
                "end_time": 0.3840909,
                "pitch": 58,
                "velocity": 80,
                "duration": 0.3840909,
                "tempo": 120.0
            },
            {
                "start_time": 0.4,
                "end_time": 0.7840909,
                "pitch": 60,
                "velocity": 80,
                "duration": 0.3840909,
                "tempo": 120.0
            },
            {
                "start_time": 0.8,
                "end_time": 1.1840909,
                "pitch": 61,
                "velocity": 80,
                "duration": 0.3840909,
                "tempo": 120.0
            },
            {
                "start_time": 1.2,
                "end_time": 1.3840909,
                "pitch": 61,
                "velocity": 80,
                "duration": 0.1840909,
                "tempo": 120.0
            },
            {
                "start_time": 1.4,
                "end_time": 1.4840909,
                "pitch": 60,
                "velocity": 80,
                "duration": 0.0840909,
                "tempo": 120.0
            },
            {
                "start_time": 1.5,
                "end_time": 1.5840909,
                "pitch": 58,
                "velocity": 80,
                "duration": 0.0840909,
                "tempo": 120.0
            },
            {
                "start_time": 1.6,
                "end_time": 1.6840909,
                "pitch": 60,
                "velocity": 80,
                "duration": 0.0840909,
                "tempo": 120.0
            },
            {
                "start_time": 1.7,
                "end_time": 1.7840909,
                "pitch": 60,
                "velocity": 80,
                "duration": 0.0840909,
                "tempo": 120.0
            },
            {
                "start_time": 1.8022727,
                "end_time": 1.8863636,
                "pitch": 58,
                "velocity": 80,
                "duration": 0.0840909,
                "tempo": 120.0
            },
            {
                "start_time": 1.9022727,
                "end_time": 1.9863636,
                "pitch": 58,
                "velocity": 80,
                "duration": 0.0840909,
                "tempo": 120.0
            },
            {
                "start_time": 2.0022727,
                "end_time": 2.0863636,
                "pitch": 55,
                "velocity": 80,
                "duration": 0.0840909,
                "tempo": 120.0
            },
            {
                "start_time": 2.1022727,
                "end_time": 2.1863636,
                "pitch": 55,
                "velocity": 80,
                "duration": 0.0840909,
                "tempo": 120.0
            },
            {
                "start_time": 2.2022727,
                "end_time": 2.2863636,
                "pitch": 53,
                "velocity": 80,
                "duration": 0.0840909,
                "tempo": 120.0
            },
            {
                "start_time": 2.3022727,
                "end_time": 2.3863636,
                "pitch": 53,
                "velocity": 80,
                "duration": 0.0840909,
                "tempo": 120.0
            },
            {
                "start_time": 2.4022727,
                "end_time": 2.4863636,
                "pitch": 48,
                "velocity": 80,
                "duration": 0.0840909,
                "tempo": 120.0
            },
            {
                "start_time": 2.5022727,
                "end_time": 2.5863636,
                "pitch": 48,
                "velocity": 80,
                "duration": 0.0840909,
                "tempo": 120.0
            },
            {
                "start_time": 2.6022727,
                "end_time": 2.6863636,
                "pitch": 49,
                "velocity": 80,
                "duration": 0.0840909,
                "tempo": 120.0
            },
            {
                "start_time": 2.7022727,
                "end_time": 2.7863636,
                "pitch": 49,
                "velocity": 80,
                "duration": 0.0840909,
                "tempo": 120.0
            },
            {
                "start_time": 2.8022727,
                "end_time": 2.8863636,
                "pitch": 53,
                "velocity": 80,
                "duration": 0.0840909,
                "tempo": 120.0
            },
            {
                "start_time": 2.9022727,
                "end_time": 2.9863636,
                "pitch": 53,
                "velocity": 80,
                "duration": 0.0840909,
                "tempo": 120.0
            },
            {
                "start_time": 3.0022727,
                "end_time": 3.0863636,
                "pitch": 55,
                "velocity": 80,
                "duration": 0.0840909,
                "tempo": 120.0
            },
            {
                "start_time": 3.1022727,
                "end_time": 3.1863636,
                "pitch": 55,
                "velocity": 80,
                "duration": 0.0840909,
                "tempo": 120.0
            },
            {
                "start_time": 3.2022727,
                "end_time": 3.5886364,
                "pitch": 58,
                "velocity": 80,
                "duration": 0.3863636,
                "tempo": 120.0
            },
            {
                "start_time": 3.6045455,
                "end_time": 3.9886364,
                "pitch": 60,
                "velocity": 80,
                "duration": 0.3840909,
                "tempo": 120.0
            },
            {
                "start_time": 4.0045455,
                "end_time": 4.3886364,
                "pitch": 61,
                "velocity": 80,
                "duration": 0.3840909,
                "tempo": 120.0
            },
            {
                "start_time": 4.4045455,
                "end_time": 4.5909091,
                "pitch": 61,
                "velocity": 80,
                "duration": 0.1863636,
                "tempo": 120.0
            },
            {
                "start_time": 4.6068182,
                "end_time": 4.6909091,
                "pitch": 61,
                "velocity": 80,
                "duration": 0.0840909,
                "tempo": 120.0
            },
            {
                "start_time": 4.7068182,
                "end_time": 4.7909091,
                "pitch": 58,
                "velocity": 80,
                "duration": 0.0840909,
                "tempo": 120.0
            },
            {
                "start_time": 4.8090909,
                "end_time": 4.8909091,
                "pitch": 60,
                "velocity": 80,
                "duration": 0.0818182,
                "tempo": 120.0
            },
            {
                "start_time": 4.9090909,
                "end_time": 4.9909091,
                "pitch": 60,
                "velocity": 80,
                "duration": 0.0818182,
                "tempo": 120.0
            },
            {
                "start_time": 5.0090909,
                "end_time": 5.0909091,
                "pitch": 58,
                "velocity": 80,
                "duration": 0.0818182,
                "tempo": 120.0
            },
            {
                "start_time": 5.1090909,
                "end_time": 5.1909091,
                "pitch": 58,
                "velocity": 80,
                "duration": 0.0818182,
                "tempo": 120.0
            },
            {
                "start_time": 5.2090909,
                "end_time": 5.2909091,
                "pitch": 55,
                "velocity": 80,
                "duration": 0.0818182,
                "tempo": 120.0
            },
            {
                "start_time": 5.3090909,
                "end_time": 5.3931818,
                "pitch": 55,
                "velocity": 80,
                "duration": 0.0840909,
                "tempo": 120.0
            },
            {
                "start_time": 5.4090909,
                "end_time": 5.4931818,
                "pitch": 53,
                "velocity": 80,
                "duration": 0.0840909,
                "tempo": 120.0
            },
            {
                "start_time": 5.5090909,
                "end_time": 5.5931818,
                "pitch": 53,
                "velocity": 80,
                "duration": 0.0840909,
                "tempo": 120.0
            },
            {
                "start_time": 5.6113636,
                "end_time": 5.6931818,
                "pitch": 48,
                "velocity": 80,
                "duration": 0.0818182,
                "tempo": 120.0
            },
            {
                "start_time": 5.7113636,
                "end_time": 5.7931818,
                "pitch": 48,
                "velocity": 80,
                "duration": 0.0818182,
                "tempo": 120.0
            },
            {
                "start_time": 5.8113636,
                "end_time": 5.8931818,
                "pitch": 49,
                "velocity": 80,
                "duration": 0.0818182,
                "tempo": 120.0
            },
            {
                "start_time": 5.9113636,
                "end_time": 5.9931818,
                "pitch": 49,
                "velocity": 80,
                "duration": 0.0818182,
                "tempo": 120.0
            },
            {
                "start_time": 6.0113636,
                "end_time": 6.0931818,
                "pitch": 53,
                "velocity": 80,
                "duration": 0.0818182,
                "tempo": 120.0
            },
            {
                "start_time": 6.1090909,
                "end_time": 6.1909091,
                "pitch": 53,
                "velocity": 80,
                "duration": 0.0818182,
                "tempo": 120.0
            },
            {
                "start_time": 6.2068182,
                "end_time": 6.2886364,
                "pitch": 55,
                "velocity": 80,
                "duration": 0.0818182,
                "tempo": 120.0
            },
            {
                "start_time": 6.3045455,
                "end_time": 6.3863636,
                "pitch": 55,
                "velocity": 80,
                "duration": 0.0818182,
                "tempo": 120.0
            },
            {
                "start_time": 6.4022727,
                "end_time": 6.7954545,
                "pitch": 58,
                "velocity": 80,
                "duration": 0.3931818,
                "tempo": 120.0
            },
            {
                "start_time": 6.8136364,
                "end_time": 7.1977273,
                "pitch": 60,
                "velocity": 80,
                "duration": 0.3840909,
                "tempo": 120.0
            },
            {
                "start_time": 7.2136364,
                "end_time": 7.6,
                "pitch": 61,
                "velocity": 80,
                "duration": 0.3863636,
                "tempo": 120.0
            },
            {
                "start_time": 7.6159091,
                "end_time": 7.8,
                "pitch": 61,
                "velocity": 80,
                "duration": 0.1840909,
                "tempo": 120.0
            },
            {
                "start_time": 7.8159091,
                "end_time": 7.9,
                "pitch": 61,
                "velocity": 80,
                "duration": 0.0840909,
                "tempo": 120.0
            },
            {
                "start_time": 7.9159091,
                "end_time": 8.0,
                "pitch": 58,
                "velocity": 80,
                "duration": 0.0840909,
                "tempo": 120.0
            },
            {
                "start_time": 8.0159091,
                "end_time": 8.1,
                "pitch": 60,
                "velocity": 80,
                "duration": 0.0840909,
                "tempo": 120.0
            },
            {
                "start_time": 8.1159091,
                "end_time": 8.2,
                "pitch": 60,
                "velocity": 80,
                "duration": 0.0840909,
                "tempo": 120.0
            },
            {
                "start_time": 8.2181818,
                "end_time": 8.3022727,
                "pitch": 58,
                "velocity": 80,
                "duration": 0.0840909,
                "tempo": 120.0
            },
            {
                "start_time": 8.3181818,
                "end_time": 8.4022727,
                "pitch": 58,
                "velocity": 80,
                "duration": 0.0840909,
                "tempo": 120.0
            },
            {
                "start_time": 8.4181818,
                "end_time": 8.5022727,
                "pitch": 55,
                "velocity": 80,
                "duration": 0.0840909,
                "tempo": 120.0
            },
            {
                "start_time": 8.5204545,
                "end_time": 8.6045455,
                "pitch": 55,
                "velocity": 80,
                "duration": 0.0840909,
                "tempo": 120.0
            },
            {
                "start_time": 8.6204545,
                "end_time": 8.7045455,
                "pitch": 53,
                "velocity": 80,
                "duration": 0.0840909,
                "tempo": 120.0
            },
            {
                "start_time": 8.7204545,
                "end_time": 8.8045455,
                "pitch": 53,
                "velocity": 80,
                "duration": 0.0840909,
                "tempo": 120.0
            },
            {
                "start_time": 8.8227273,
                "end_time": 8.9045455,
                "pitch": 48,
                "velocity": 80,
                "duration": 0.0818182,
                "tempo": 120.0
            },
            {
                "start_time": 8.9227273,
                "end_time": 9.0068182,
                "pitch": 48,
                "velocity": 80,
                "duration": 0.0840909,
                "tempo": 120.0
            },
            {
                "start_time": 9.0227273,
                "end_time": 9.1068182,
                "pitch": 49,
                "velocity": 80,
                "duration": 0.0840909,
                "tempo": 120.0
            },
            {
                "start_time": 9.1227273,
                "end_time": 9.2068182,
                "pitch": 49,
                "velocity": 80,
                "duration": 0.0840909,
                "tempo": 120.0
            },
            {
                "start_time": 9.225,
                "end_time": 9.3068182,
                "pitch": 53,
                "velocity": 80,
                "duration": 0.0818182,
                "tempo": 120.0
            },
            {
                "start_time": 9.325,
                "end_time": 9.4068182,
                "pitch": 53,
                "velocity": 80,
                "duration": 0.0818182,
                "tempo": 120.0
            },
            {
                "start_time": 9.425,
                "end_time": 9.5068182,
                "pitch": 55,
                "velocity": 80,
                "duration": 0.0818182,
                "tempo": 120.0
            },
            {
                "start_time": 9.525,
                "end_time": 9.6068182,
                "pitch": 55,
                "velocity": 80,
                "duration": 0.0818182,
                "tempo": 120.0
            },
            {
                "start_time": 9.625,
                "end_time": 9.9772727,
                "pitch": 58,
                "velocity": 80,
                "duration": 0.3522727,
                "tempo": 120.0
            },
            {
                "start_time": 9.9931818,
                "end_time": 10.4136364,
                "pitch": 60,
                "velocity": 80,
                "duration": 0.4204545,
                "tempo": 120.0
            },
            {
                "start_time": 10.4295455,
                "end_time": 10.8159091,
                "pitch": 61,
                "velocity": 80,
                "duration": 0.3863636,
                "tempo": 120.0
            },
            {
                "start_time": 10.8318182,
                "end_time": 11.0159091,
                "pitch": 61,
                "velocity": 80,
                "duration": 0.1840909,
                "tempo": 120.0
            },
            {
                "start_time": 11.0340909,
                "end_time": 11.1181818,
                "pitch": 60,
                "velocity": 80,
                "duration": 0.0840909,
                "tempo": 120.0
            },
            {
                "start_time": 11.1340909,
                "end_time": 11.1522727,
                "pitch": 58,
                "velocity": 80,
                "duration": 0.0181818,
                "tempo": 120.0
            },
            {
                "start_time": 11.1681818,
                "end_time": 11.2181818,
                "pitch": 56,
                "velocity": 80,
                "duration": 0.05,
                "tempo": 120.0
            },
            {
                "start_time": 11.2340909,
                "end_time": 11.3181818,
                "pitch": 60,
                "velocity": 80,
                "duration": 0.0840909,
                "tempo": 120.0
            },
            {
                "start_time": 11.3340909,
                "end_time": 11.4181818,
                "pitch": 60,
                "velocity": 80,
                "duration": 0.0840909,
                "tempo": 120.0
            },
            {
                "start_time": 11.4340909,
                "end_time": 11.5181818,
                "pitch": 58,
                "velocity": 80,
                "duration": 0.0840909,
                "tempo": 120.0
            },
            {
                "start_time": 11.5340909,
                "end_time": 11.6181818,
                "pitch": 58,
                "velocity": 80,
                "duration": 0.0840909,
                "tempo": 120.0
            },
            {
                "start_time": 11.6340909,
                "end_time": 11.7159091,
                "pitch": 55,
                "velocity": 80,
                "duration": 0.0818182,
                "tempo": 120.0
            },
            {
                "start_time": 11.7340909,
                "end_time": 11.8136364,
                "pitch": 55,
                "velocity": 80,
                "duration": 0.0795455,
                "tempo": 120.0
            },
            {
                "start_time": 11.8318182,
                "end_time": 11.9136364,
                "pitch": 53,
                "velocity": 80,
                "duration": 0.0818182,
                "tempo": 120.0
            },
            {
                "start_time": 11.9295455,
                "end_time": 12.0113636,
                "pitch": 53,
                "velocity": 80,
                "duration": 0.0818182,
                "tempo": 120.0
            },
            {
                "start_time": 12.0272727,
                "end_time": 12.1136364,
                "pitch": 48,
                "velocity": 80,
                "duration": 0.0863636,
                "tempo": 120.0
            },
            {
                "start_time": 12.1295455,
                "end_time": 12.2159091,
                "pitch": 48,
                "velocity": 80,
                "duration": 0.0863636,
                "tempo": 120.0
            },
            {
                "start_time": 12.2318182,
                "end_time": 12.3181818,
                "pitch": 49,
                "velocity": 80,
                "duration": 0.0863636,
                "tempo": 120.0
            },
            {
                "start_time": 12.3363636,
                "end_time": 12.4204545,
                "pitch": 49,
                "velocity": 80,
                "duration": 0.0840909,
                "tempo": 120.0
            },
            {
                "start_time": 12.4386364,
                "end_time": 12.5227273,
                "pitch": 53,
                "velocity": 80,
                "duration": 0.0840909,
                "tempo": 120.0
            },
            {
                "start_time": 12.5386364,
                "end_time": 12.6227273,
                "pitch": 53,
                "velocity": 80,
                "duration": 0.0840909,
                "tempo": 120.0
            },
            {
                "start_time": 12.6386364,
                "end_time": 12.7227273,
                "pitch": 55,
                "velocity": 80,
                "duration": 0.0840909,
                "tempo": 120.0
            },
            {
                "start_time": 12.7409091,
                "end_time": 12.825,
                "pitch": 55,
                "velocity": 80,
                "duration": 0.0840909,
                "tempo": 120.0
            },
            {
                "start_time": 12.8409091,
                "end_time": 13.2272727,
                "pitch": 58,
                "velocity": 80,
                "duration": 0.3863636,
                "tempo": 120.0
            },
            {
                "start_time": 13.2431818,
                "end_time": 13.6272727,
                "pitch": 60,
                "velocity": 80,
                "duration": 0.3840909,
                "tempo": 120.0
            },
            {
                "start_time": 13.6431818,
                "end_time": 14.0295455,
                "pitch": 61,
                "velocity": 80,
                "duration": 0.3863636,
                "tempo": 120.0
            },
            {
                "start_time": 14.0454545,
                "end_time": 14.1295455,
                "pitch": 46,
                "velocity": 80,
                "duration": 0.0840909,
                "tempo": 120.0
            },
            {
                "start_time": 14.1477273,
                "end_time": 14.2295455,
                "pitch": 53,
                "velocity": 80,
                "duration": 0.0818182,
                "tempo": 120.0
            },
            {
                "start_time": 14.2477273,
                "end_time": 14.3318182,
                "pitch": 46,
                "velocity": 80,
                "duration": 0.0840909,
                "tempo": 120.0
            },
            {
                "start_time": 14.3477273,
                "end_time": 14.4318182,
                "pitch": 53,
                "velocity": 80,
                "duration": 0.0840909,
                "tempo": 120.0
            },
            {
                "start_time": 14.4477273,
                "end_time": 14.5318182,
                "pitch": 46,
                "velocity": 80,
                "duration": 0.0840909,
                "tempo": 120.0
            },
            {
                "start_time": 14.55,
                "end_time": 14.6340909,
                "pitch": 53,
                "velocity": 80,
                "duration": 0.0840909,
                "tempo": 120.0
            },
            {
                "start_time": 14.65,
                "end_time": 14.7340909,
                "pitch": 46,
                "velocity": 80,
                "duration": 0.0840909,
                "tempo": 120.0
            },
            {
                "start_time": 14.75,
                "end_time": 14.8340909,
                "pitch": 53,
                "velocity": 80,
                "duration": 0.0840909,
                "tempo": 120.0
            },
            {
                "start_time": 14.8522727,
                "end_time": 14.9363636,
                "pitch": 46,
                "velocity": 80,
                "duration": 0.0840909,
                "tempo": 120.0
            },
            {
                "start_time": 14.9522727,
                "end_time": 15.0363636,
                "pitch": 46,
                "velocity": 80,
                "duration": 0.0840909,
                "tempo": 120.0
            },
            {
                "start_time": 15.0522727,
                "end_time": 15.1363636,
                "pitch": 46,
                "velocity": 80,
                "duration": 0.0840909,
                "tempo": 120.0
            },
            {
                "start_time": 15.1545455,
                "end_time": 15.2363636,
                "pitch": 46,
                "velocity": 80,
                "duration": 0.0818182,
                "tempo": 120.0
            },
            {
                "start_time": 15.2545455,
                "end_time": 15.3386364,
                "pitch": 46,
                "velocity": 80,
                "duration": 0.0840909,
                "tempo": 120.0
            },
            {
                "start_time": 15.3545455,
                "end_time": 15.4386364,
                "pitch": 46,
                "velocity": 80,
                "duration": 0.0840909,
                "tempo": 120.0
            },
            {
                "start_time": 15.4545455,
                "end_time": 15.5386364,
                "pitch": 46,
                "velocity": 80,
                "duration": 0.0840909,
                "tempo": 120.0
            },
            {
                "start_time": 15.5545455,
                "end_time": 15.6386364,
                "pitch": 46,
                "velocity": 80,
                "duration": 0.0840909,
                "tempo": 120.0
            },
            {
                "start_time": 15.6545455,
                "end_time": 15.7386364,
                "pitch": 48,
                "velocity": 80,
                "duration": 0.0840909,
                "tempo": 120.0
            },
            {
                "start_time": 15.7545455,
                "end_time": 15.8386364,
                "pitch": 55,
                "velocity": 80,
                "duration": 0.0840909,
                "tempo": 120.0
            },
            {
                "start_time": 15.8545455,
                "end_time": 15.9386364,
                "pitch": 48,
                "velocity": 80,
                "duration": 0.0840909,
                "tempo": 120.0
            },
            {
                "start_time": 15.9568182,
                "end_time": 16.0409091,
                "pitch": 55,
                "velocity": 80,
                "duration": 0.0840909,
                "tempo": 120.0
            },
            {
                "start_time": 16.0568182,
                "end_time": 16.1409091,
                "pitch": 48,
                "velocity": 80,
                "duration": 0.0840909,
                "tempo": 120.0
            },
            {
                "start_time": 16.1568182,
                "end_time": 16.2409091,
                "pitch": 55,
                "velocity": 80,
                "duration": 0.0840909,
                "tempo": 120.0
            },
            {
                "start_time": 16.2590909,
                "end_time": 16.3431818,
                "pitch": 48,
                "velocity": 80,
                "duration": 0.0840909,
                "tempo": 120.0
            },
            {
                "start_time": 16.3590909,
                "end_time": 16.4431818,
                "pitch": 55,
                "velocity": 80,
                "duration": 0.0840909,
                "tempo": 120.0
            },
            {
                "start_time": 16.4590909,
                "end_time": 16.5431818,
                "pitch": 48,
                "velocity": 80,
                "duration": 0.0840909,
                "tempo": 120.0
            },
            {
                "start_time": 16.5590909,
                "end_time": 16.6431818,
                "pitch": 48,
                "velocity": 80,
                "duration": 0.0840909,
                "tempo": 120.0
            },
            {
                "start_time": 16.6590909,
                "end_time": 16.7431818,
                "pitch": 48,
                "velocity": 80,
                "duration": 0.0840909,
                "tempo": 120.0
            },
            {
                "start_time": 16.7590909,
                "end_time": 16.8431818,
                "pitch": 48,
                "velocity": 80,
                "duration": 0.0840909,
                "tempo": 120.0
            },
            {
                "start_time": 16.8590909,
                "end_time": 16.9431818,
                "pitch": 48,
                "velocity": 80,
                "duration": 0.0840909,
                "tempo": 120.0
            },
            {
                "start_time": 16.9590909,
                "end_time": 17.0431818,
                "pitch": 48,
                "velocity": 80,
                "duration": 0.0840909,
                "tempo": 120.0
            },
            {
                "start_time": 17.0613636,
                "end_time": 17.1454545,
                "pitch": 48,
                "velocity": 80,
                "duration": 0.0840909,
                "tempo": 120.0
            },
            {
                "start_time": 17.1613636,
                "end_time": 17.2454545,
                "pitch": 48,
                "velocity": 80,
                "duration": 0.0840909,
                "tempo": 120.0
            },
            {
                "start_time": 17.2613636,
                "end_time": 17.3454545,
                "pitch": 46,
                "velocity": 80,
                "duration": 0.0840909,
                "tempo": 120.0
            },
            {
                "start_time": 17.3613636,
                "end_time": 17.4454545,
                "pitch": 53,
                "velocity": 80,
                "duration": 0.0840909,
                "tempo": 120.0
            },
            {
                "start_time": 17.4613636,
                "end_time": 17.5454545,
                "pitch": 46,
                "velocity": 80,
                "duration": 0.0840909,
                "tempo": 120.0
            },
            {
                "start_time": 17.5613636,
                "end_time": 17.6454545,
                "pitch": 53,
                "velocity": 80,
                "duration": 0.0840909,
                "tempo": 120.0
            },
            {
                "start_time": 17.6613636,
                "end_time": 17.7454545,
                "pitch": 46,
                "velocity": 80,
                "duration": 0.0840909,
                "tempo": 120.0
            },
            {
                "start_time": 17.7636364,
                "end_time": 17.8477273,
                "pitch": 53,
                "velocity": 80,
                "duration": 0.0840909,
                "tempo": 120.0
            },
            {
                "start_time": 17.8636364,
                "end_time": 17.9477273,
                "pitch": 46,
                "velocity": 80,
                "duration": 0.0840909,
                "tempo": 120.0
            },
            {
                "start_time": 17.9636364,
                "end_time": 18.0477273,
                "pitch": 53,
                "velocity": 80,
                "duration": 0.0840909,
                "tempo": 120.0
            },
            {
                "start_time": 18.0659091,
                "end_time": 18.1477273,
                "pitch": 46,
                "velocity": 80,
                "duration": 0.0818182,
                "tempo": 120.0
            },
            {
                "start_time": 18.1659091,
                "end_time": 18.2477273,
                "pitch": 46,
                "velocity": 80,
                "duration": 0.0818182,
                "tempo": 120.0
            },
            {
                "start_time": 18.2659091,
                "end_time": 18.3477273,
                "pitch": 46,
                "velocity": 80,
                "duration": 0.0818182,
                "tempo": 120.0
            },
            {
                "start_time": 18.3659091,
                "end_time": 18.4477273,
                "pitch": 46,
                "velocity": 80,
                "duration": 0.0818182,
                "tempo": 120.0
            },
            {
                "start_time": 18.4659091,
                "end_time": 18.5477273,
                "pitch": 46,
                "velocity": 80,
                "duration": 0.0818182,
                "tempo": 120.0
            },
            {
                "start_time": 18.5659091,
                "end_time": 18.6477273,
                "pitch": 46,
                "velocity": 80,
                "duration": 0.0818182,
                "tempo": 120.0
            },
            {
                "start_time": 18.6659091,
                "end_time": 18.7477273,
                "pitch": 46,
                "velocity": 80,
                "duration": 0.0818182,
                "tempo": 120.0
            },
            {
                "start_time": 18.7659091,
                "end_time": 18.8477273,
                "pitch": 46,
                "velocity": 80,
                "duration": 0.0818182,
                "tempo": 120.0
            },
            {
                "start_time": 18.8659091,
                "end_time": 18.9477273,
                "pitch": 48,
                "velocity": 80,
                "duration": 0.0818182,
                "tempo": 120.0
            },
            {
                "start_time": 18.9659091,
                "end_time": 19.05,
                "pitch": 55,
                "velocity": 80,
                "duration": 0.0840909,
                "tempo": 120.0
            },
            {
                "start_time": 19.0659091,
                "end_time": 19.15,
                "pitch": 48,
                "velocity": 80,
                "duration": 0.0840909,
                "tempo": 120.0
            },
            {
                "start_time": 19.1659091,
                "end_time": 19.25,
                "pitch": 55,
                "velocity": 80,
                "duration": 0.0840909,
                "tempo": 120.0
            },
            {
                "start_time": 19.2681818,
                "end_time": 19.35,
                "pitch": 48,
                "velocity": 80,
                "duration": 0.0818182,
                "tempo": 120.0
            },
            {
                "start_time": 19.3681818,
                "end_time": 19.45,
                "pitch": 55,
                "velocity": 80,
                "duration": 0.0818182,
                "tempo": 120.0
            },
            {
                "start_time": 19.4681818,
                "end_time": 19.55,
                "pitch": 48,
                "velocity": 80,
                "duration": 0.0818182,
                "tempo": 120.0
            },
            {
                "start_time": 19.5681818,
                "end_time": 19.65,
                "pitch": 55,
                "velocity": 80,
                "duration": 0.0818182,
                "tempo": 120.0
            },
            {
                "start_time": 19.6681818,
                "end_time": 19.7522727,
                "pitch": 48,
                "velocity": 80,
                "duration": 0.0840909,
                "tempo": 120.0
            },
            {
                "start_time": 19.7681818,
                "end_time": 19.8522727,
                "pitch": 48,
                "velocity": 80,
                "duration": 0.0840909,
                "tempo": 120.0
            },
            {
                "start_time": 19.8681818,
                "end_time": 19.9522727,
                "pitch": 48,
                "velocity": 80,
                "duration": 0.0840909,
                "tempo": 120.0
            },
            {
                "start_time": 19.9704545,
                "end_time": 20.0545455,
                "pitch": 48,
                "velocity": 80,
                "duration": 0.0840909,
                "tempo": 120.0
            },
            {
                "start_time": 20.0704545,
                "end_time": 20.1545455,
                "pitch": 48,
                "velocity": 80,
                "duration": 0.0840909,
                "tempo": 120.0
            },
            {
                "start_time": 20.1704545,
                "end_time": 20.2545455,
                "pitch": 48,
                "velocity": 80,
                "duration": 0.0840909,
                "tempo": 120.0
            },
            {
                "start_time": 20.2704545,
                "end_time": 20.3545455,
                "pitch": 48,
                "velocity": 80,
                "duration": 0.0840909,
                "tempo": 120.0
            },
            {
                "start_time": 20.3704545,
                "end_time": 20.4545455,
                "pitch": 48,
                "velocity": 80,
                "duration": 0.0840909,
                "tempo": 120.0
            },
            {
                "start_time": 20.4704545,
                "end_time": 20.5545455,
                "pitch": 46,
                "velocity": 80,
                "duration": 0.0840909,
                "tempo": 120.0
            },
            {
                "start_time": 20.5704545,
                "end_time": 20.6545455,
                "pitch": 53,
                "velocity": 80,
                "duration": 0.0840909,
                "tempo": 120.0
            },
            {
                "start_time": 20.6704545,
                "end_time": 20.7545455,
                "pitch": 46,
                "velocity": 80,
                "duration": 0.0840909,
                "tempo": 120.0
            },
            {
                "start_time": 20.7704545,
                "end_time": 20.8545455,
                "pitch": 53,
                "velocity": 80,
                "duration": 0.0840909,
                "tempo": 120.0
            },
            {
                "start_time": 20.8704545,
                "end_time": 20.9545455,
                "pitch": 46,
                "velocity": 80,
                "duration": 0.0840909,
                "tempo": 120.0
            },
            {
                "start_time": 20.9704545,
                "end_time": 21.0545455,
                "pitch": 53,
                "velocity": 80,
                "duration": 0.0840909,
                "tempo": 120.0
            },
            {
                "start_time": 21.0727273,
                "end_time": 21.1545455,
                "pitch": 46,
                "velocity": 80,
                "duration": 0.0818182,
                "tempo": 120.0
            },
            {
                "start_time": 21.1727273,
                "end_time": 21.2568182,
                "pitch": 53,
                "velocity": 80,
                "duration": 0.0840909,
                "tempo": 120.0
            },
            {
                "start_time": 21.2727273,
                "end_time": 21.3568182,
                "pitch": 46,
                "velocity": 80,
                "duration": 0.0840909,
                "tempo": 120.0
            },
            {
                "start_time": 21.3727273,
                "end_time": 21.4568182,
                "pitch": 46,
                "velocity": 80,
                "duration": 0.0840909,
                "tempo": 120.0
            },
            {
                "start_time": 21.4727273,
                "end_time": 21.5568182,
                "pitch": 46,
                "velocity": 80,
                "duration": 0.0840909,
                "tempo": 120.0
            },
            {
                "start_time": 21.5727273,
                "end_time": 21.6568182,
                "pitch": 46,
                "velocity": 80,
                "duration": 0.0840909,
                "tempo": 120.0
            },
            {
                "start_time": 21.6727273,
                "end_time": 21.7568182,
                "pitch": 46,
                "velocity": 80,
                "duration": 0.0840909,
                "tempo": 120.0
            },
            {
                "start_time": 21.7727273,
                "end_time": 21.8568182,
                "pitch": 46,
                "velocity": 80,
                "duration": 0.0840909,
                "tempo": 120.0
            },
            {
                "start_time": 21.875,
                "end_time": 21.9590909,
                "pitch": 46,
                "velocity": 80,
                "duration": 0.0840909,
                "tempo": 120.0
            },
            {
                "start_time": 21.975,
                "end_time": 22.0590909,
                "pitch": 46,
                "velocity": 80,
                "duration": 0.0840909,
                "tempo": 120.0
            },
            {
                "start_time": 22.075,
                "end_time": 22.1590909,
                "pitch": 48,
                "velocity": 80,
                "duration": 0.0840909,
                "tempo": 120.0
            },
            {
                "start_time": 22.175,
                "end_time": 22.2590909,
                "pitch": 55,
                "velocity": 80,
                "duration": 0.0840909,
                "tempo": 120.0
            },
            {
                "start_time": 22.275,
                "end_time": 22.3590909,
                "pitch": 48,
                "velocity": 80,
                "duration": 0.0840909,
                "tempo": 120.0
            },
            {
                "start_time": 22.375,
                "end_time": 22.4590909,
                "pitch": 55,
                "velocity": 80,
                "duration": 0.0840909,
                "tempo": 120.0
            },
            {
                "start_time": 22.475,
                "end_time": 22.5590909,
                "pitch": 48,
                "velocity": 80,
                "duration": 0.0840909,
                "tempo": 120.0
            },
            {
                "start_time": 22.575,
                "end_time": 22.6590909,
                "pitch": 55,
                "velocity": 80,
                "duration": 0.0840909,
                "tempo": 120.0
            },
            {
                "start_time": 22.675,
                "end_time": 22.7590909,
                "pitch": 48,
                "velocity": 80,
                "duration": 0.0840909,
                "tempo": 120.0
            },
            {
                "start_time": 22.775,
                "end_time": 22.8590909,
                "pitch": 55,
                "velocity": 80,
                "duration": 0.0840909,
                "tempo": 120.0
            },
            {
                "start_time": 22.875,
                "end_time": 22.9590909,
                "pitch": 48,
                "velocity": 80,
                "duration": 0.0840909,
                "tempo": 120.0
            },
            {
                "start_time": 22.9772727,
                "end_time": 23.0590909,
                "pitch": 48,
                "velocity": 80,
                "duration": 0.0818182,
                "tempo": 120.0
            },
            {
                "start_time": 23.0772727,
                "end_time": 23.1613636,
                "pitch": 48,
                "velocity": 80,
                "duration": 0.0840909,
                "tempo": 120.0
            },
            {
                "start_time": 23.1772727,
                "end_time": 23.2613636,
                "pitch": 48,
                "velocity": 80,
                "duration": 0.0840909,
                "tempo": 120.0
            },
            {
                "start_time": 23.2772727,
                "end_time": 23.3613636,
                "pitch": 48,
                "velocity": 80,
                "duration": 0.0840909,
                "tempo": 120.0
            },
            {
                "start_time": 23.3772727,
                "end_time": 23.4613636,
                "pitch": 48,
                "velocity": 80,
                "duration": 0.0840909,
                "tempo": 120.0
            },
            {
                "start_time": 23.4772727,
                "end_time": 23.5613636,
                "pitch": 48,
                "velocity": 80,
                "duration": 0.0840909,
                "tempo": 120.0
            },
            {
                "start_time": 23.5772727,
                "end_time": 23.6613636,
                "pitch": 48,
                "velocity": 80,
                "duration": 0.0840909,
                "tempo": 120.0
            },
            {
                "start_time": 23.6772727,
                "end_time": 23.7613636,
                "pitch": 46,
                "velocity": 80,
                "duration": 0.0840909,
                "tempo": 120.0
            },
            {
                "start_time": 23.7795455,
                "end_time": 23.8636364,
                "pitch": 53,
                "velocity": 80,
                "duration": 0.0840909,
                "tempo": 120.0
            },
            {
                "start_time": 23.8795455,
                "end_time": 23.9636364,
                "pitch": 46,
                "velocity": 80,
                "duration": 0.0840909,
                "tempo": 120.0
            },
            {
                "start_time": 23.9795455,
                "end_time": 24.0636364,
                "pitch": 53,
                "velocity": 80,
                "duration": 0.0840909,
                "tempo": 120.0
            },
            {
                "start_time": 24.0818182,
                "end_time": 24.1636364,
                "pitch": 46,
                "velocity": 80,
                "duration": 0.0818182,
                "tempo": 120.0
            },
            {
                "start_time": 24.1818182,
                "end_time": 24.2636364,
                "pitch": 53,
                "velocity": 80,
                "duration": 0.0818182,
                "tempo": 120.0
            },
            {
                "start_time": 24.2818182,
                "end_time": 24.3636364,
                "pitch": 46,
                "velocity": 80,
                "duration": 0.0818182,
                "tempo": 120.0
            },
            {
                "start_time": 24.3818182,
                "end_time": 24.4636364,
                "pitch": 53,
                "velocity": 80,
                "duration": 0.0818182,
                "tempo": 120.0
            },
            {
                "start_time": 24.4818182,
                "end_time": 24.5636364,
                "pitch": 46,
                "velocity": 80,
                "duration": 0.0818182,
                "tempo": 120.0
            },
            {
                "start_time": 24.5818182,
                "end_time": 24.6636364,
                "pitch": 46,
                "velocity": 80,
                "duration": 0.0818182,
                "tempo": 120.0
            },
            {
                "start_time": 24.6818182,
                "end_time": 24.7636364,
                "pitch": 46,
                "velocity": 80,
                "duration": 0.0818182,
                "tempo": 120.0
            },
            {
                "start_time": 24.7818182,
                "end_time": 24.8636364,
                "pitch": 46,
                "velocity": 80,
                "duration": 0.0818182,
                "tempo": 120.0
            },
            {
                "start_time": 24.8818182,
                "end_time": 24.9659091,
                "pitch": 46,
                "velocity": 80,
                "duration": 0.0840909,
                "tempo": 120.0
            },
            {
                "start_time": 24.9818182,
                "end_time": 25.0659091,
                "pitch": 46,
                "velocity": 80,
                "duration": 0.0840909,
                "tempo": 120.0
            },
            {
                "start_time": 25.0818182,
                "end_time": 25.1659091,
                "pitch": 46,
                "velocity": 80,
                "duration": 0.0840909,
                "tempo": 120.0
            },
            {
                "start_time": 25.1840909,
                "end_time": 25.2659091,
                "pitch": 46,
                "velocity": 80,
                "duration": 0.0818182,
                "tempo": 120.0
            },
            {
                "start_time": 25.2840909,
                "end_time": 25.3659091,
                "pitch": 48,
                "velocity": 80,
                "duration": 0.0818182,
                "tempo": 120.0
            },
            {
                "start_time": 25.3840909,
                "end_time": 25.4659091,
                "pitch": 55,
                "velocity": 80,
                "duration": 0.0818182,
                "tempo": 120.0
            },
            {
                "start_time": 25.4840909,
                "end_time": 25.5659091,
                "pitch": 48,
                "velocity": 80,
                "duration": 0.0818182,
                "tempo": 120.0
            },
            {
                "start_time": 25.5840909,
                "end_time": 25.6659091,
                "pitch": 55,
                "velocity": 80,
                "duration": 0.0818182,
                "tempo": 120.0
            },
            {
                "start_time": 25.6840909,
                "end_time": 25.7681818,
                "pitch": 48,
                "velocity": 80,
                "duration": 0.0840909,
                "tempo": 120.0
            },
            {
                "start_time": 25.7840909,
                "end_time": 25.8681818,
                "pitch": 55,
                "velocity": 80,
                "duration": 0.0840909,
                "tempo": 120.0
            },
            {
                "start_time": 25.8840909,
                "end_time": 25.9681818,
                "pitch": 48,
                "velocity": 80,
                "duration": 0.0840909,
                "tempo": 120.0
            },
            {
                "start_time": 25.9863636,
                "end_time": 26.0704545,
                "pitch": 55,
                "velocity": 80,
                "duration": 0.0840909,
                "tempo": 120.0
            },
            {
                "start_time": 26.0863636,
                "end_time": 26.1704545,
                "pitch": 48,
                "velocity": 80,
                "duration": 0.0840909,
                "tempo": 120.0
            },
            {
                "start_time": 26.1863636,
                "end_time": 26.2704545,
                "pitch": 48,
                "velocity": 80,
                "duration": 0.0840909,
                "tempo": 120.0
            },
            {
                "start_time": 26.2863636,
                "end_time": 26.3704545,
                "pitch": 48,
                "velocity": 80,
                "duration": 0.0840909,
                "tempo": 120.0
            },
            {
                "start_time": 26.3863636,
                "end_time": 26.4704545,
                "pitch": 48,
                "velocity": 80,
                "duration": 0.0840909,
                "tempo": 120.0
            },
            {
                "start_time": 26.4863636,
                "end_time": 26.5704545,
                "pitch": 48,
                "velocity": 80,
                "duration": 0.0840909,
                "tempo": 120.0
            },
            {
                "start_time": 26.5863636,
                "end_time": 26.6704545,
                "pitch": 48,
                "velocity": 80,
                "duration": 0.0840909,
                "tempo": 120.0
            },
            {
                "start_time": 26.6863636,
                "end_time": 26.7704545,
                "pitch": 48,
                "velocity": 80,
                "duration": 0.0840909,
                "tempo": 120.0
            },
            {
                "start_time": 26.7863636,
                "end_time": 26.8704545,
                "pitch": 48,
                "velocity": 80,
                "duration": 0.0840909,
                "tempo": 120.0
            }
        ],
        "Electric Guitar (clean)": [
            {
                "start_time": 0.0,
                "end_time": 0.3840909,
                "pitch": 46,
                "velocity": 51,
                "duration": 0.3840909,
                "tempo": 120.0
            },
            {
                "start_time": 0.4,
                "end_time": 0.7840909,
                "pitch": 48,
                "velocity": 51,
                "duration": 0.3840909,
                "tempo": 120.0
            },
            {
                "start_time": 0.8,
                "end_time": 1.1840909,
                "pitch": 49,
                "velocity": 51,
                "duration": 0.3840909,
                "tempo": 120.0
            },
            {
                "start_time": 1.2,
                "end_time": 1.3840909,
                "pitch": 49,
                "velocity": 51,
                "duration": 0.1840909,
                "tempo": 120.0
            },
            {
                "start_time": 1.4,
                "end_time": 1.4840909,
                "pitch": 48,
                "velocity": 51,
                "duration": 0.0840909,
                "tempo": 120.0
            },
            {
                "start_time": 1.5,
                "end_time": 1.5840909,
                "pitch": 46,
                "velocity": 51,
                "duration": 0.0840909,
                "tempo": 120.0
            },
            {
                "start_time": 1.6,
                "end_time": 1.6840909,
                "pitch": 48,
                "velocity": 51,
                "duration": 0.0840909,
                "tempo": 120.0
            },
            {
                "start_time": 1.7,
                "end_time": 1.7840909,
                "pitch": 48,
                "velocity": 51,
                "duration": 0.0840909,
                "tempo": 120.0
            },
            {
                "start_time": 1.8022727,
                "end_time": 1.8863636,
                "pitch": 46,
                "velocity": 51,
                "duration": 0.0840909,
                "tempo": 120.0
            },
            {
                "start_time": 1.9022727,
                "end_time": 1.9863636,
                "pitch": 46,
                "velocity": 51,
                "duration": 0.0840909,
                "tempo": 120.0
            },
            {
                "start_time": 2.0022727,
                "end_time": 2.0863636,
                "pitch": 43,
                "velocity": 51,
                "duration": 0.0840909,
                "tempo": 120.0
            },
            {
                "start_time": 2.1022727,
                "end_time": 2.1863636,
                "pitch": 43,
                "velocity": 51,
                "duration": 0.0840909,
                "tempo": 120.0
            },
            {
                "start_time": 2.2022727,
                "end_time": 2.2863636,
                "pitch": 41,
                "velocity": 51,
                "duration": 0.0840909,
                "tempo": 120.0
            },
            {
                "start_time": 2.3022727,
                "end_time": 2.3863636,
                "pitch": 41,
                "velocity": 51,
                "duration": 0.0840909,
                "tempo": 120.0
            },
            {
                "start_time": 2.4022727,
                "end_time": 2.4863636,
                "pitch": 36,
                "velocity": 51,
                "duration": 0.0840909,
                "tempo": 120.0
            },
            {
                "start_time": 2.5022727,
                "end_time": 2.5863636,
                "pitch": 36,
                "velocity": 51,
                "duration": 0.0840909,
                "tempo": 120.0
            },
            {
                "start_time": 2.6022727,
                "end_time": 2.6863636,
                "pitch": 37,
                "velocity": 51,
                "duration": 0.0840909,
                "tempo": 120.0
            },
            {
                "start_time": 2.7022727,
                "end_time": 2.7863636,
                "pitch": 37,
                "velocity": 51,
                "duration": 0.0840909,
                "tempo": 120.0
            },
            {
                "start_time": 2.8022727,
                "end_time": 2.8863636,
                "pitch": 41,
                "velocity": 51,
                "duration": 0.0840909,
                "tempo": 120.0
            },
            {
                "start_time": 2.9022727,
                "end_time": 2.9863636,
                "pitch": 41,
                "velocity": 51,
                "duration": 0.0840909,
                "tempo": 120.0
            },
            {
                "start_time": 3.0022727,
                "end_time": 3.0863636,
                "pitch": 43,
                "velocity": 51,
                "duration": 0.0840909,
                "tempo": 120.0
            },
            {
                "start_time": 3.1022727,
                "end_time": 3.1863636,
                "pitch": 43,
                "velocity": 51,
                "duration": 0.0840909,
                "tempo": 120.0
            },
            {
                "start_time": 3.2022727,
                "end_time": 3.5886364,
                "pitch": 46,
                "velocity": 51,
                "duration": 0.3863636,
                "tempo": 120.0
            },
            {
                "start_time": 3.6045455,
                "end_time": 3.9886364,
                "pitch": 48,
                "velocity": 51,
                "duration": 0.3840909,
                "tempo": 120.0
            },
            {
                "start_time": 4.0045455,
                "end_time": 4.3886364,
                "pitch": 49,
                "velocity": 51,
                "duration": 0.3840909,
                "tempo": 120.0
            },
            {
                "start_time": 4.4045455,
                "end_time": 4.5909091,
                "pitch": 49,
                "velocity": 51,
                "duration": 0.1863636,
                "tempo": 120.0
            },
            {
                "start_time": 4.6068182,
                "end_time": 4.6909091,
                "pitch": 49,
                "velocity": 51,
                "duration": 0.0840909,
                "tempo": 120.0
            },
            {
                "start_time": 4.7068182,
                "end_time": 4.7909091,
                "pitch": 46,
                "velocity": 51,
                "duration": 0.0840909,
                "tempo": 120.0
            },
            {
                "start_time": 4.8090909,
                "end_time": 4.8909091,
                "pitch": 48,
                "velocity": 51,
                "duration": 0.0818182,
                "tempo": 120.0
            },
            {
                "start_time": 4.9090909,
                "end_time": 4.9909091,
                "pitch": 48,
                "velocity": 51,
                "duration": 0.0818182,
                "tempo": 120.0
            },
            {
                "start_time": 5.0090909,
                "end_time": 5.0909091,
                "pitch": 46,
                "velocity": 51,
                "duration": 0.0818182,
                "tempo": 120.0
            },
            {
                "start_time": 5.1090909,
                "end_time": 5.1909091,
                "pitch": 46,
                "velocity": 51,
                "duration": 0.0818182,
                "tempo": 120.0
            },
            {
                "start_time": 5.2090909,
                "end_time": 5.2909091,
                "pitch": 43,
                "velocity": 51,
                "duration": 0.0818182,
                "tempo": 120.0
            },
            {
                "start_time": 5.3090909,
                "end_time": 5.3931818,
                "pitch": 43,
                "velocity": 51,
                "duration": 0.0840909,
                "tempo": 120.0
            },
            {
                "start_time": 5.4090909,
                "end_time": 5.4931818,
                "pitch": 41,
                "velocity": 51,
                "duration": 0.0840909,
                "tempo": 120.0
            },
            {
                "start_time": 5.5090909,
                "end_time": 5.5931818,
                "pitch": 41,
                "velocity": 51,
                "duration": 0.0840909,
                "tempo": 120.0
            },
            {
                "start_time": 5.6113636,
                "end_time": 5.6931818,
                "pitch": 36,
                "velocity": 51,
                "duration": 0.0818182,
                "tempo": 120.0
            },
            {
                "start_time": 5.7113636,
                "end_time": 5.7931818,
                "pitch": 36,
                "velocity": 51,
                "duration": 0.0818182,
                "tempo": 120.0
            },
            {
                "start_time": 5.8113636,
                "end_time": 5.8931818,
                "pitch": 37,
                "velocity": 51,
                "duration": 0.0818182,
                "tempo": 120.0
            },
            {
                "start_time": 5.9113636,
                "end_time": 5.9931818,
                "pitch": 37,
                "velocity": 51,
                "duration": 0.0818182,
                "tempo": 120.0
            },
            {
                "start_time": 6.0113636,
                "end_time": 6.0931818,
                "pitch": 41,
                "velocity": 51,
                "duration": 0.0818182,
                "tempo": 120.0
            },
            {
                "start_time": 6.1090909,
                "end_time": 6.1909091,
                "pitch": 41,
                "velocity": 51,
                "duration": 0.0818182,
                "tempo": 120.0
            },
            {
                "start_time": 6.2068182,
                "end_time": 6.2886364,
                "pitch": 43,
                "velocity": 51,
                "duration": 0.0818182,
                "tempo": 120.0
            },
            {
                "start_time": 6.3045455,
                "end_time": 6.3863636,
                "pitch": 43,
                "velocity": 51,
                "duration": 0.0818182,
                "tempo": 120.0
            },
            {
                "start_time": 6.4022727,
                "end_time": 6.7954545,
                "pitch": 46,
                "velocity": 51,
                "duration": 0.3931818,
                "tempo": 120.0
            },
            {
                "start_time": 6.8136364,
                "end_time": 7.1977273,
                "pitch": 48,
                "velocity": 51,
                "duration": 0.3840909,
                "tempo": 120.0
            },
            {
                "start_time": 7.2136364,
                "end_time": 7.6,
                "pitch": 49,
                "velocity": 51,
                "duration": 0.3863636,
                "tempo": 120.0
            },
            {
                "start_time": 7.6159091,
                "end_time": 7.8,
                "pitch": 49,
                "velocity": 51,
                "duration": 0.1840909,
                "tempo": 120.0
            },
            {
                "start_time": 7.8159091,
                "end_time": 7.9,
                "pitch": 49,
                "velocity": 51,
                "duration": 0.0840909,
                "tempo": 120.0
            },
            {
                "start_time": 7.9159091,
                "end_time": 8.0,
                "pitch": 46,
                "velocity": 51,
                "duration": 0.0840909,
                "tempo": 120.0
            },
            {
                "start_time": 8.0159091,
                "end_time": 8.1,
                "pitch": 48,
                "velocity": 51,
                "duration": 0.0840909,
                "tempo": 120.0
            },
            {
                "start_time": 8.1159091,
                "end_time": 8.2,
                "pitch": 48,
                "velocity": 51,
                "duration": 0.0840909,
                "tempo": 120.0
            },
            {
                "start_time": 8.2181818,
                "end_time": 8.3022727,
                "pitch": 46,
                "velocity": 51,
                "duration": 0.0840909,
                "tempo": 120.0
            },
            {
                "start_time": 8.3181818,
                "end_time": 8.4022727,
                "pitch": 46,
                "velocity": 51,
                "duration": 0.0840909,
                "tempo": 120.0
            },
            {
                "start_time": 8.4181818,
                "end_time": 8.5022727,
                "pitch": 43,
                "velocity": 51,
                "duration": 0.0840909,
                "tempo": 120.0
            },
            {
                "start_time": 8.5204545,
                "end_time": 8.6045455,
                "pitch": 43,
                "velocity": 51,
                "duration": 0.0840909,
                "tempo": 120.0
            },
            {
                "start_time": 8.6204545,
                "end_time": 8.7045455,
                "pitch": 41,
                "velocity": 51,
                "duration": 0.0840909,
                "tempo": 120.0
            },
            {
                "start_time": 8.7204545,
                "end_time": 8.8045455,
                "pitch": 41,
                "velocity": 51,
                "duration": 0.0840909,
                "tempo": 120.0
            },
            {
                "start_time": 8.8227273,
                "end_time": 8.9045455,
                "pitch": 36,
                "velocity": 51,
                "duration": 0.0818182,
                "tempo": 120.0
            },
            {
                "start_time": 8.9227273,
                "end_time": 9.0068182,
                "pitch": 36,
                "velocity": 51,
                "duration": 0.0840909,
                "tempo": 120.0
            },
            {
                "start_time": 9.0227273,
                "end_time": 9.1068182,
                "pitch": 37,
                "velocity": 51,
                "duration": 0.0840909,
                "tempo": 120.0
            },
            {
                "start_time": 9.1227273,
                "end_time": 9.2068182,
                "pitch": 37,
                "velocity": 51,
                "duration": 0.0840909,
                "tempo": 120.0
            },
            {
                "start_time": 9.225,
                "end_time": 9.3068182,
                "pitch": 41,
                "velocity": 51,
                "duration": 0.0818182,
                "tempo": 120.0
            },
            {
                "start_time": 9.325,
                "end_time": 9.4068182,
                "pitch": 41,
                "velocity": 51,
                "duration": 0.0818182,
                "tempo": 120.0
            },
            {
                "start_time": 9.425,
                "end_time": 9.5068182,
                "pitch": 43,
                "velocity": 51,
                "duration": 0.0818182,
                "tempo": 120.0
            },
            {
                "start_time": 9.525,
                "end_time": 9.6068182,
                "pitch": 43,
                "velocity": 51,
                "duration": 0.0818182,
                "tempo": 120.0
            },
            {
                "start_time": 9.625,
                "end_time": 9.9772727,
                "pitch": 46,
                "velocity": 51,
                "duration": 0.3522727,
                "tempo": 120.0
            },
            {
                "start_time": 9.9931818,
                "end_time": 10.4136364,
                "pitch": 48,
                "velocity": 51,
                "duration": 0.4204545,
                "tempo": 120.0
            },
            {
                "start_time": 10.4295455,
                "end_time": 10.8159091,
                "pitch": 49,
                "velocity": 51,
                "duration": 0.3863636,
                "tempo": 120.0
            },
            {
                "start_time": 10.8318182,
                "end_time": 11.0159091,
                "pitch": 49,
                "velocity": 51,
                "duration": 0.1840909,
                "tempo": 120.0
            },
            {
                "start_time": 11.0340909,
                "end_time": 11.1181818,
                "pitch": 48,
                "velocity": 51,
                "duration": 0.0840909,
                "tempo": 120.0
            },
            {
                "start_time": 11.1340909,
                "end_time": 11.1522727,
                "pitch": 46,
                "velocity": 51,
                "duration": 0.0181818,
                "tempo": 120.0
            },
            {
                "start_time": 11.1681818,
                "end_time": 11.2181818,
                "pitch": 44,
                "velocity": 51,
                "duration": 0.05,
                "tempo": 120.0
            },
            {
                "start_time": 11.2340909,
                "end_time": 11.3181818,
                "pitch": 48,
                "velocity": 51,
                "duration": 0.0840909,
                "tempo": 120.0
            },
            {
                "start_time": 11.3340909,
                "end_time": 11.4181818,
                "pitch": 48,
                "velocity": 51,
                "duration": 0.0840909,
                "tempo": 120.0
            },
            {
                "start_time": 11.4340909,
                "end_time": 11.5181818,
                "pitch": 46,
                "velocity": 51,
                "duration": 0.0840909,
                "tempo": 120.0
            },
            {
                "start_time": 11.5340909,
                "end_time": 11.6181818,
                "pitch": 46,
                "velocity": 51,
                "duration": 0.0840909,
                "tempo": 120.0
            },
            {
                "start_time": 11.6340909,
                "end_time": 11.7159091,
                "pitch": 43,
                "velocity": 51,
                "duration": 0.0818182,
                "tempo": 120.0
            },
            {
                "start_time": 11.7340909,
                "end_time": 11.8136364,
                "pitch": 43,
                "velocity": 51,
                "duration": 0.0795455,
                "tempo": 120.0
            },
            {
                "start_time": 11.8318182,
                "end_time": 11.9136364,
                "pitch": 41,
                "velocity": 51,
                "duration": 0.0818182,
                "tempo": 120.0
            },
            {
                "start_time": 11.9295455,
                "end_time": 12.0113636,
                "pitch": 41,
                "velocity": 51,
                "duration": 0.0818182,
                "tempo": 120.0
            },
            {
                "start_time": 12.0272727,
                "end_time": 12.1136364,
                "pitch": 36,
                "velocity": 51,
                "duration": 0.0863636,
                "tempo": 120.0
            },
            {
                "start_time": 12.1295455,
                "end_time": 12.2159091,
                "pitch": 36,
                "velocity": 51,
                "duration": 0.0863636,
                "tempo": 120.0
            },
            {
                "start_time": 12.2318182,
                "end_time": 12.3181818,
                "pitch": 37,
                "velocity": 51,
                "duration": 0.0863636,
                "tempo": 120.0
            },
            {
                "start_time": 12.3363636,
                "end_time": 12.4204545,
                "pitch": 37,
                "velocity": 51,
                "duration": 0.0840909,
                "tempo": 120.0
            },
            {
                "start_time": 12.4386364,
                "end_time": 12.5227273,
                "pitch": 41,
                "velocity": 51,
                "duration": 0.0840909,
                "tempo": 120.0
            },
            {
                "start_time": 12.5386364,
                "end_time": 12.6227273,
                "pitch": 41,
                "velocity": 51,
                "duration": 0.0840909,
                "tempo": 120.0
            },
            {
                "start_time": 12.6386364,
                "end_time": 12.7227273,
                "pitch": 43,
                "velocity": 51,
                "duration": 0.0840909,
                "tempo": 120.0
            },
            {
                "start_time": 12.7409091,
                "end_time": 12.825,
                "pitch": 43,
                "velocity": 51,
                "duration": 0.0840909,
                "tempo": 120.0
            },
            {
                "start_time": 12.8409091,
                "end_time": 13.2272727,
                "pitch": 46,
                "velocity": 51,
                "duration": 0.3863636,
                "tempo": 120.0
            },
            {
                "start_time": 13.2431818,
                "end_time": 13.6272727,
                "pitch": 48,
                "velocity": 51,
                "duration": 0.3840909,
                "tempo": 120.0
            },
            {
                "start_time": 13.6431818,
                "end_time": 14.0295455,
                "pitch": 49,
                "velocity": 51,
                "duration": 0.3863636,
                "tempo": 120.0
            },
            {
                "start_time": 14.0454545,
                "end_time": 14.1295455,
                "pitch": 34,
                "velocity": 51,
                "duration": 0.0840909,
                "tempo": 120.0
            },
            {
                "start_time": 14.1477273,
                "end_time": 14.2295455,
                "pitch": 41,
                "velocity": 51,
                "duration": 0.0818182,
                "tempo": 120.0
            },
            {
                "start_time": 14.2477273,
                "end_time": 14.3318182,
                "pitch": 34,
                "velocity": 51,
                "duration": 0.0840909,
                "tempo": 120.0
            },
            {
                "start_time": 14.3477273,
                "end_time": 14.4318182,
                "pitch": 41,
                "velocity": 51,
                "duration": 0.0840909,
                "tempo": 120.0
            },
            {
                "start_time": 14.4477273,
                "end_time": 14.5318182,
                "pitch": 34,
                "velocity": 51,
                "duration": 0.0840909,
                "tempo": 120.0
            },
            {
                "start_time": 14.55,
                "end_time": 14.6340909,
                "pitch": 41,
                "velocity": 51,
                "duration": 0.0840909,
                "tempo": 120.0
            },
            {
                "start_time": 14.65,
                "end_time": 14.7340909,
                "pitch": 34,
                "velocity": 51,
                "duration": 0.0840909,
                "tempo": 120.0
            },
            {
                "start_time": 14.75,
                "end_time": 14.8340909,
                "pitch": 41,
                "velocity": 51,
                "duration": 0.0840909,
                "tempo": 120.0
            },
            {
                "start_time": 14.8522727,
                "end_time": 14.9363636,
                "pitch": 34,
                "velocity": 51,
                "duration": 0.0840909,
                "tempo": 120.0
            },
            {
                "start_time": 14.9522727,
                "end_time": 15.0363636,
                "pitch": 34,
                "velocity": 51,
                "duration": 0.0840909,
                "tempo": 120.0
            },
            {
                "start_time": 15.0522727,
                "end_time": 15.1363636,
                "pitch": 34,
                "velocity": 51,
                "duration": 0.0840909,
                "tempo": 120.0
            },
            {
                "start_time": 15.1545455,
                "end_time": 15.2363636,
                "pitch": 34,
                "velocity": 51,
                "duration": 0.0818182,
                "tempo": 120.0
            },
            {
                "start_time": 15.2545455,
                "end_time": 15.3386364,
                "pitch": 34,
                "velocity": 51,
                "duration": 0.0840909,
                "tempo": 120.0
            },
            {
                "start_time": 15.3545455,
                "end_time": 15.4386364,
                "pitch": 34,
                "velocity": 51,
                "duration": 0.0840909,
                "tempo": 120.0
            },
            {
                "start_time": 15.4545455,
                "end_time": 15.5386364,
                "pitch": 34,
                "velocity": 51,
                "duration": 0.0840909,
                "tempo": 120.0
            },
            {
                "start_time": 15.5545455,
                "end_time": 15.6386364,
                "pitch": 34,
                "velocity": 51,
                "duration": 0.0840909,
                "tempo": 120.0
            },
            {
                "start_time": 15.6545455,
                "end_time": 15.7386364,
                "pitch": 36,
                "velocity": 51,
                "duration": 0.0840909,
                "tempo": 120.0
            },
            {
                "start_time": 15.7545455,
                "end_time": 15.8386364,
                "pitch": 43,
                "velocity": 51,
                "duration": 0.0840909,
                "tempo": 120.0
            },
            {
                "start_time": 15.8545455,
                "end_time": 15.9386364,
                "pitch": 36,
                "velocity": 51,
                "duration": 0.0840909,
                "tempo": 120.0
            },
            {
                "start_time": 15.9568182,
                "end_time": 16.0409091,
                "pitch": 43,
                "velocity": 51,
                "duration": 0.0840909,
                "tempo": 120.0
            },
            {
                "start_time": 16.0568182,
                "end_time": 16.1409091,
                "pitch": 36,
                "velocity": 51,
                "duration": 0.0840909,
                "tempo": 120.0
            },
            {
                "start_time": 16.1568182,
                "end_time": 16.2409091,
                "pitch": 43,
                "velocity": 51,
                "duration": 0.0840909,
                "tempo": 120.0
            },
            {
                "start_time": 16.2590909,
                "end_time": 16.3431818,
                "pitch": 36,
                "velocity": 51,
                "duration": 0.0840909,
                "tempo": 120.0
            },
            {
                "start_time": 16.3590909,
                "end_time": 16.4431818,
                "pitch": 43,
                "velocity": 51,
                "duration": 0.0840909,
                "tempo": 120.0
            },
            {
                "start_time": 16.4590909,
                "end_time": 16.5431818,
                "pitch": 36,
                "velocity": 51,
                "duration": 0.0840909,
                "tempo": 120.0
            },
            {
                "start_time": 16.5590909,
                "end_time": 16.6431818,
                "pitch": 36,
                "velocity": 51,
                "duration": 0.0840909,
                "tempo": 120.0
            },
            {
                "start_time": 16.6590909,
                "end_time": 16.7431818,
                "pitch": 36,
                "velocity": 51,
                "duration": 0.0840909,
                "tempo": 120.0
            },
            {
                "start_time": 16.7590909,
                "end_time": 16.8431818,
                "pitch": 36,
                "velocity": 51,
                "duration": 0.0840909,
                "tempo": 120.0
            },
            {
                "start_time": 16.8590909,
                "end_time": 16.9431818,
                "pitch": 36,
                "velocity": 51,
                "duration": 0.0840909,
                "tempo": 120.0
            },
            {
                "start_time": 16.9590909,
                "end_time": 17.0431818,
                "pitch": 36,
                "velocity": 51,
                "duration": 0.0840909,
                "tempo": 120.0
            },
            {
                "start_time": 17.0613636,
                "end_time": 17.1454545,
                "pitch": 36,
                "velocity": 51,
                "duration": 0.0840909,
                "tempo": 120.0
            },
            {
                "start_time": 17.1613636,
                "end_time": 17.2454545,
                "pitch": 36,
                "velocity": 51,
                "duration": 0.0840909,
                "tempo": 120.0
            },
            {
                "start_time": 17.2613636,
                "end_time": 17.3454545,
                "pitch": 34,
                "velocity": 51,
                "duration": 0.0840909,
                "tempo": 120.0
            },
            {
                "start_time": 17.3613636,
                "end_time": 17.4454545,
                "pitch": 41,
                "velocity": 51,
                "duration": 0.0840909,
                "tempo": 120.0
            },
            {
                "start_time": 17.4613636,
                "end_time": 17.5454545,
                "pitch": 34,
                "velocity": 51,
                "duration": 0.0840909,
                "tempo": 120.0
            },
            {
                "start_time": 17.5613636,
                "end_time": 17.6454545,
                "pitch": 41,
                "velocity": 51,
                "duration": 0.0840909,
                "tempo": 120.0
            },
            {
                "start_time": 17.6613636,
                "end_time": 17.7454545,
                "pitch": 34,
                "velocity": 51,
                "duration": 0.0840909,
                "tempo": 120.0
            },
            {
                "start_time": 17.7636364,
                "end_time": 17.8477273,
                "pitch": 41,
                "velocity": 51,
                "duration": 0.0840909,
                "tempo": 120.0
            },
            {
                "start_time": 17.8636364,
                "end_time": 17.9477273,
                "pitch": 34,
                "velocity": 51,
                "duration": 0.0840909,
                "tempo": 120.0
            },
            {
                "start_time": 17.9636364,
                "end_time": 18.0477273,
                "pitch": 41,
                "velocity": 51,
                "duration": 0.0840909,
                "tempo": 120.0
            },
            {
                "start_time": 18.0659091,
                "end_time": 18.1477273,
                "pitch": 34,
                "velocity": 51,
                "duration": 0.0818182,
                "tempo": 120.0
            },
            {
                "start_time": 18.1659091,
                "end_time": 18.2477273,
                "pitch": 34,
                "velocity": 51,
                "duration": 0.0818182,
                "tempo": 120.0
            },
            {
                "start_time": 18.2659091,
                "end_time": 18.3477273,
                "pitch": 34,
                "velocity": 51,
                "duration": 0.0818182,
                "tempo": 120.0
            },
            {
                "start_time": 18.3659091,
                "end_time": 18.4477273,
                "pitch": 34,
                "velocity": 51,
                "duration": 0.0818182,
                "tempo": 120.0
            },
            {
                "start_time": 18.4659091,
                "end_time": 18.5477273,
                "pitch": 34,
                "velocity": 51,
                "duration": 0.0818182,
                "tempo": 120.0
            },
            {
                "start_time": 18.5659091,
                "end_time": 18.6477273,
                "pitch": 34,
                "velocity": 51,
                "duration": 0.0818182,
                "tempo": 120.0
            },
            {
                "start_time": 18.6659091,
                "end_time": 18.7477273,
                "pitch": 34,
                "velocity": 51,
                "duration": 0.0818182,
                "tempo": 120.0
            },
            {
                "start_time": 18.7659091,
                "end_time": 18.8477273,
                "pitch": 34,
                "velocity": 51,
                "duration": 0.0818182,
                "tempo": 120.0
            },
            {
                "start_time": 18.8659091,
                "end_time": 18.9477273,
                "pitch": 36,
                "velocity": 51,
                "duration": 0.0818182,
                "tempo": 120.0
            },
            {
                "start_time": 18.9659091,
                "end_time": 19.05,
                "pitch": 43,
                "velocity": 51,
                "duration": 0.0840909,
                "tempo": 120.0
            },
            {
                "start_time": 19.0659091,
                "end_time": 19.15,
                "pitch": 36,
                "velocity": 51,
                "duration": 0.0840909,
                "tempo": 120.0
            },
            {
                "start_time": 19.1659091,
                "end_time": 19.25,
                "pitch": 43,
                "velocity": 51,
                "duration": 0.0840909,
                "tempo": 120.0
            },
            {
                "start_time": 19.2681818,
                "end_time": 19.35,
                "pitch": 36,
                "velocity": 51,
                "duration": 0.0818182,
                "tempo": 120.0
            },
            {
                "start_time": 19.3681818,
                "end_time": 19.45,
                "pitch": 43,
                "velocity": 51,
                "duration": 0.0818182,
                "tempo": 120.0
            },
            {
                "start_time": 19.4681818,
                "end_time": 19.55,
                "pitch": 36,
                "velocity": 51,
                "duration": 0.0818182,
                "tempo": 120.0
            },
            {
                "start_time": 19.5681818,
                "end_time": 19.65,
                "pitch": 43,
                "velocity": 51,
                "duration": 0.0818182,
                "tempo": 120.0
            },
            {
                "start_time": 19.6681818,
                "end_time": 19.7522727,
                "pitch": 36,
                "velocity": 51,
                "duration": 0.0840909,
                "tempo": 120.0
            },
            {
                "start_time": 19.7681818,
                "end_time": 19.8522727,
                "pitch": 36,
                "velocity": 51,
                "duration": 0.0840909,
                "tempo": 120.0
            },
            {
                "start_time": 19.8681818,
                "end_time": 19.9522727,
                "pitch": 36,
                "velocity": 51,
                "duration": 0.0840909,
                "tempo": 120.0
            },
            {
                "start_time": 19.9704545,
                "end_time": 20.0545455,
                "pitch": 36,
                "velocity": 51,
                "duration": 0.0840909,
                "tempo": 120.0
            },
            {
                "start_time": 20.0704545,
                "end_time": 20.1545455,
                "pitch": 36,
                "velocity": 51,
                "duration": 0.0840909,
                "tempo": 120.0
            },
            {
                "start_time": 20.1704545,
                "end_time": 20.2545455,
                "pitch": 36,
                "velocity": 51,
                "duration": 0.0840909,
                "tempo": 120.0
            },
            {
                "start_time": 20.2704545,
                "end_time": 20.3545455,
                "pitch": 36,
                "velocity": 51,
                "duration": 0.0840909,
                "tempo": 120.0
            },
            {
                "start_time": 20.3704545,
                "end_time": 20.4545455,
                "pitch": 36,
                "velocity": 51,
                "duration": 0.0840909,
                "tempo": 120.0
            },
            {
                "start_time": 20.4704545,
                "end_time": 20.5545455,
                "pitch": 34,
                "velocity": 51,
                "duration": 0.0840909,
                "tempo": 120.0
            },
            {
                "start_time": 20.5704545,
                "end_time": 20.6545455,
                "pitch": 41,
                "velocity": 51,
                "duration": 0.0840909,
                "tempo": 120.0
            },
            {
                "start_time": 20.6704545,
                "end_time": 20.7545455,
                "pitch": 34,
                "velocity": 51,
                "duration": 0.0840909,
                "tempo": 120.0
            },
            {
                "start_time": 20.7704545,
                "end_time": 20.8545455,
                "pitch": 41,
                "velocity": 51,
                "duration": 0.0840909,
                "tempo": 120.0
            },
            {
                "start_time": 20.8704545,
                "end_time": 20.9545455,
                "pitch": 34,
                "velocity": 51,
                "duration": 0.0840909,
                "tempo": 120.0
            },
            {
                "start_time": 20.9704545,
                "end_time": 21.0545455,
                "pitch": 41,
                "velocity": 51,
                "duration": 0.0840909,
                "tempo": 120.0
            },
            {
                "start_time": 21.0727273,
                "end_time": 21.1545455,
                "pitch": 34,
                "velocity": 51,
                "duration": 0.0818182,
                "tempo": 120.0
            },
            {
                "start_time": 21.1727273,
                "end_time": 21.2568182,
                "pitch": 41,
                "velocity": 51,
                "duration": 0.0840909,
                "tempo": 120.0
            },
            {
                "start_time": 21.2727273,
                "end_time": 21.3568182,
                "pitch": 34,
                "velocity": 51,
                "duration": 0.0840909,
                "tempo": 120.0
            },
            {
                "start_time": 21.3727273,
                "end_time": 21.4568182,
                "pitch": 34,
                "velocity": 51,
                "duration": 0.0840909,
                "tempo": 120.0
            },
            {
                "start_time": 21.4727273,
                "end_time": 21.5568182,
                "pitch": 34,
                "velocity": 51,
                "duration": 0.0840909,
                "tempo": 120.0
            },
            {
                "start_time": 21.5727273,
                "end_time": 21.6568182,
                "pitch": 34,
                "velocity": 51,
                "duration": 0.0840909,
                "tempo": 120.0
            },
            {
                "start_time": 21.6727273,
                "end_time": 21.7568182,
                "pitch": 34,
                "velocity": 51,
                "duration": 0.0840909,
                "tempo": 120.0
            },
            {
                "start_time": 21.7727273,
                "end_time": 21.8568182,
                "pitch": 34,
                "velocity": 51,
                "duration": 0.0840909,
                "tempo": 120.0
            },
            {
                "start_time": 21.875,
                "end_time": 21.9590909,
                "pitch": 34,
                "velocity": 51,
                "duration": 0.0840909,
                "tempo": 120.0
            },
            {
                "start_time": 21.975,
                "end_time": 22.0590909,
                "pitch": 34,
                "velocity": 51,
                "duration": 0.0840909,
                "tempo": 120.0
            },
            {
                "start_time": 22.075,
                "end_time": 22.1590909,
                "pitch": 36,
                "velocity": 51,
                "duration": 0.0840909,
                "tempo": 120.0
            },
            {
                "start_time": 22.175,
                "end_time": 22.2590909,
                "pitch": 43,
                "velocity": 51,
                "duration": 0.0840909,
                "tempo": 120.0
            },
            {
                "start_time": 22.275,
                "end_time": 22.3590909,
                "pitch": 36,
                "velocity": 51,
                "duration": 0.0840909,
                "tempo": 120.0
            },
            {
                "start_time": 22.375,
                "end_time": 22.4590909,
                "pitch": 43,
                "velocity": 51,
                "duration": 0.0840909,
                "tempo": 120.0
            },
            {
                "start_time": 22.475,
                "end_time": 22.5590909,
                "pitch": 36,
                "velocity": 51,
                "duration": 0.0840909,
                "tempo": 120.0
            },
            {
                "start_time": 22.575,
                "end_time": 22.6590909,
                "pitch": 43,
                "velocity": 51,
                "duration": 0.0840909,
                "tempo": 120.0
            },
            {
                "start_time": 22.675,
                "end_time": 22.7590909,
                "pitch": 36,
                "velocity": 51,
                "duration": 0.0840909,
                "tempo": 120.0
            },
            {
                "start_time": 22.775,
                "end_time": 22.8590909,
                "pitch": 43,
                "velocity": 51,
                "duration": 0.0840909,
                "tempo": 120.0
            },
            {
                "start_time": 22.875,
                "end_time": 22.9590909,
                "pitch": 36,
                "velocity": 51,
                "duration": 0.0840909,
                "tempo": 120.0
            },
            {
                "start_time": 22.9772727,
                "end_time": 23.0590909,
                "pitch": 36,
                "velocity": 51,
                "duration": 0.0818182,
                "tempo": 120.0
            },
            {
                "start_time": 23.0772727,
                "end_time": 23.1613636,
                "pitch": 36,
                "velocity": 51,
                "duration": 0.0840909,
                "tempo": 120.0
            },
            {
                "start_time": 23.1772727,
                "end_time": 23.2613636,
                "pitch": 36,
                "velocity": 51,
                "duration": 0.0840909,
                "tempo": 120.0
            },
            {
                "start_time": 23.2772727,
                "end_time": 23.3613636,
                "pitch": 36,
                "velocity": 51,
                "duration": 0.0840909,
                "tempo": 120.0
            },
            {
                "start_time": 23.3772727,
                "end_time": 23.4613636,
                "pitch": 36,
                "velocity": 51,
                "duration": 0.0840909,
                "tempo": 120.0
            },
            {
                "start_time": 23.4772727,
                "end_time": 23.5613636,
                "pitch": 36,
                "velocity": 51,
                "duration": 0.0840909,
                "tempo": 120.0
            },
            {
                "start_time": 23.5772727,
                "end_time": 23.6613636,
                "pitch": 36,
                "velocity": 51,
                "duration": 0.0840909,
                "tempo": 120.0
            },
            {
                "start_time": 23.6772727,
                "end_time": 23.7613636,
                "pitch": 34,
                "velocity": 51,
                "duration": 0.0840909,
                "tempo": 120.0
            },
            {
                "start_time": 23.7795455,
                "end_time": 23.8636364,
                "pitch": 41,
                "velocity": 51,
                "duration": 0.0840909,
                "tempo": 120.0
            },
            {
                "start_time": 23.8795455,
                "end_time": 23.9636364,
                "pitch": 34,
                "velocity": 51,
                "duration": 0.0840909,
                "tempo": 120.0
            },
            {
                "start_time": 23.9795455,
                "end_time": 24.0636364,
                "pitch": 41,
                "velocity": 51,
                "duration": 0.0840909,
                "tempo": 120.0
            },
            {
                "start_time": 24.0818182,
                "end_time": 24.1636364,
                "pitch": 34,
                "velocity": 51,
                "duration": 0.0818182,
                "tempo": 120.0
            },
            {
                "start_time": 24.1818182,
                "end_time": 24.2636364,
                "pitch": 41,
                "velocity": 51,
                "duration": 0.0818182,
                "tempo": 120.0
            },
            {
                "start_time": 24.2818182,
                "end_time": 24.3636364,
                "pitch": 34,
                "velocity": 51,
                "duration": 0.0818182,
                "tempo": 120.0
            },
            {
                "start_time": 24.3818182,
                "end_time": 24.4636364,
                "pitch": 41,
                "velocity": 51,
                "duration": 0.0818182,
                "tempo": 120.0
            },
            {
                "start_time": 24.4818182,
                "end_time": 24.5636364,
                "pitch": 34,
                "velocity": 51,
                "duration": 0.0818182,
                "tempo": 120.0
            },
            {
                "start_time": 24.5818182,
                "end_time": 24.6636364,
                "pitch": 34,
                "velocity": 51,
                "duration": 0.0818182,
                "tempo": 120.0
            },
            {
                "start_time": 24.6818182,
                "end_time": 24.7636364,
                "pitch": 34,
                "velocity": 51,
                "duration": 0.0818182,
                "tempo": 120.0
            },
            {
                "start_time": 24.7818182,
                "end_time": 24.8636364,
                "pitch": 34,
                "velocity": 51,
                "duration": 0.0818182,
                "tempo": 120.0
            },
            {
                "start_time": 24.8818182,
                "end_time": 24.9659091,
                "pitch": 34,
                "velocity": 51,
                "duration": 0.0840909,
                "tempo": 120.0
            },
            {
                "start_time": 24.9818182,
                "end_time": 25.0659091,
                "pitch": 34,
                "velocity": 51,
                "duration": 0.0840909,
                "tempo": 120.0
            },
            {
                "start_time": 25.0818182,
                "end_time": 25.1659091,
                "pitch": 34,
                "velocity": 51,
                "duration": 0.0840909,
                "tempo": 120.0
            },
            {
                "start_time": 25.1840909,
                "end_time": 25.2659091,
                "pitch": 34,
                "velocity": 51,
                "duration": 0.0818182,
                "tempo": 120.0
            },
            {
                "start_time": 25.2840909,
                "end_time": 25.3659091,
                "pitch": 36,
                "velocity": 51,
                "duration": 0.0818182,
                "tempo": 120.0
            },
            {
                "start_time": 25.3840909,
                "end_time": 25.4659091,
                "pitch": 43,
                "velocity": 51,
                "duration": 0.0818182,
                "tempo": 120.0
            },
            {
                "start_time": 25.4840909,
                "end_time": 25.5659091,
                "pitch": 36,
                "velocity": 51,
                "duration": 0.0818182,
                "tempo": 120.0
            },
            {
                "start_time": 25.5840909,
                "end_time": 25.6659091,
                "pitch": 43,
                "velocity": 51,
                "duration": 0.0818182,
                "tempo": 120.0
            },
            {
                "start_time": 25.6840909,
                "end_time": 25.7681818,
                "pitch": 36,
                "velocity": 51,
                "duration": 0.0840909,
                "tempo": 120.0
            },
            {
                "start_time": 25.7840909,
                "end_time": 25.8681818,
                "pitch": 43,
                "velocity": 51,
                "duration": 0.0840909,
                "tempo": 120.0
            },
            {
                "start_time": 25.8840909,
                "end_time": 25.9681818,
                "pitch": 36,
                "velocity": 51,
                "duration": 0.0840909,
                "tempo": 120.0
            },
            {
                "start_time": 25.9863636,
                "end_time": 26.0704545,
                "pitch": 43,
                "velocity": 51,
                "duration": 0.0840909,
                "tempo": 120.0
            },
            {
                "start_time": 26.0863636,
                "end_time": 26.1704545,
                "pitch": 36,
                "velocity": 51,
                "duration": 0.0840909,
                "tempo": 120.0
            },
            {
                "start_time": 26.1863636,
                "end_time": 26.2704545,
                "pitch": 36,
                "velocity": 51,
                "duration": 0.0840909,
                "tempo": 120.0
            },
            {
                "start_time": 26.2863636,
                "end_time": 26.3704545,
                "pitch": 36,
                "velocity": 51,
                "duration": 0.0840909,
                "tempo": 120.0
            },
            {
                "start_time": 26.3863636,
                "end_time": 26.4704545,
                "pitch": 36,
                "velocity": 51,
                "duration": 0.0840909,
                "tempo": 120.0
            },
            {
                "start_time": 26.4863636,
                "end_time": 26.5704545,
                "pitch": 36,
                "velocity": 51,
                "duration": 0.0840909,
                "tempo": 120.0
            },
            {
                "start_time": 26.5863636,
                "end_time": 26.6704545,
                "pitch": 36,
                "velocity": 51,
                "duration": 0.0840909,
                "tempo": 120.0
            },
            {
                "start_time": 26.6863636,
                "end_time": 26.7704545,
                "pitch": 36,
                "velocity": 51,
                "duration": 0.0840909,
                "tempo": 120.0
            },
            {
                "start_time": 26.7863636,
                "end_time": 26.8704545,
                "pitch": 36,
                "velocity": 51,
                "duration": 0.0840909,
                "tempo": 120.0
            }
        ],
        "Violin": [
            {
                "start_time": 0.0659091,
                "end_time": 0.45,
                "pitch": 75,
                "velocity": 51,
                "duration": 0.3840909,
                "tempo": 120.0
            },
            {
                "start_time": 0.4659091,
                "end_time": 0.85,
                "pitch": 77,
                "velocity": 51,
                "duration": 0.3840909,
                "tempo": 120.0
            },
            {
                "start_time": 0.8659091,
                "end_time": 1.25,
                "pitch": 78,
                "velocity": 51,
                "duration": 0.3840909,
                "tempo": 120.0
            },
            {
                "start_time": 1.2659091,
                "end_time": 1.45,
                "pitch": 78,
                "velocity": 51,
                "duration": 0.1840909,
                "tempo": 120.0
            },
            {
                "start_time": 1.4659091,
                "end_time": 1.55,
                "pitch": 78,
                "velocity": 51,
                "duration": 0.0840909,
                "tempo": 120.0
            },
            {
                "start_time": 1.5659091,
                "end_time": 1.65,
                "pitch": 75,
                "velocity": 51,
                "duration": 0.0840909,
                "tempo": 120.0
            },
            {
                "start_time": 1.6681818,
                "end_time": 1.75,
                "pitch": 77,
                "velocity": 51,
                "duration": 0.0818182,
                "tempo": 120.0
            },
            {
                "start_time": 1.7681818,
                "end_time": 1.8522727,
                "pitch": 79,
                "velocity": 51,
                "duration": 0.0840909,
                "tempo": 120.0
            },
            {
                "start_time": 1.8681818,
                "end_time": 3.2522727,
                "pitch": 84,
                "velocity": 51,
                "duration": 1.3840909,
                "tempo": 120.0
            },
            {
                "start_time": 3.2704545,
                "end_time": 3.6545455,
                "pitch": 84,
                "velocity": 51,
                "duration": 0.3840909,
                "tempo": 120.0
            },
            {
                "start_time": 3.6727273,
                "end_time": 4.0545455,
                "pitch": 77,
                "velocity": 51,
                "duration": 0.3818182,
                "tempo": 120.0
            },
            {
                "start_time": 4.0727273,
                "end_time": 4.4568182,
                "pitch": 78,
                "velocity": 51,
                "duration": 0.3840909,
                "tempo": 120.0
            },
            {
                "start_time": 4.4727273,
                "end_time": 4.6568182,
                "pitch": 78,
                "velocity": 51,
                "duration": 0.1840909,
                "tempo": 120.0
            },
            {
                "start_time": 4.6727273,
                "end_time": 4.7568182,
                "pitch": 78,
                "velocity": 51,
                "duration": 0.0840909,
                "tempo": 120.0
            },
            {
                "start_time": 4.775,
                "end_time": 4.8590909,
                "pitch": 75,
                "velocity": 51,
                "duration": 0.0840909,
                "tempo": 120.0
            },
            {
                "start_time": 4.875,
                "end_time": 4.9590909,
                "pitch": 82,
                "velocity": 51,
                "duration": 0.0840909,
                "tempo": 120.0
            },
            {
                "start_time": 4.975,
                "end_time": 5.0590909,
                "pitch": 84,
                "velocity": 51,
                "duration": 0.0840909,
                "tempo": 120.0
            },
            {
                "start_time": 5.075,
                "end_time": 6.4545455,
                "pitch": 77,
                "velocity": 51,
                "duration": 1.3795455,
                "tempo": 120.0
            },
            {
                "start_time": 6.4704545,
                "end_time": 6.8636364,
                "pitch": 77,
                "velocity": 51,
                "duration": 0.3931818,
                "tempo": 120.0
            },
            {
                "start_time": 6.8795455,
                "end_time": 7.2636364,
                "pitch": 77,
                "velocity": 51,
                "duration": 0.3840909,
                "tempo": 120.0
            },
            {
                "start_time": 7.2818182,
                "end_time": 7.6659091,
                "pitch": 78,
                "velocity": 51,
                "duration": 0.3840909,
                "tempo": 120.0
            },
            {
                "start_time": 7.6840909,
                "end_time": 7.8659091,
                "pitch": 78,
                "velocity": 51,
                "duration": 0.1818182,
                "tempo": 120.0
            },
            {
                "start_time": 7.8840909,
                "end_time": 7.9659091,
                "pitch": 78,
                "velocity": 51,
                "duration": 0.0818182,
                "tempo": 120.0
            },
            {
                "start_time": 7.9840909,
                "end_time": 8.0659091,
                "pitch": 75,
                "velocity": 51,
                "duration": 0.0818182,
                "tempo": 120.0
            },
            {
                "start_time": 8.0840909,
                "end_time": 8.1681818,
                "pitch": 77,
                "velocity": 51,
                "duration": 0.0840909,
                "tempo": 120.0
            },
            {
                "start_time": 8.1840909,
                "end_time": 8.2681818,
                "pitch": 79,
                "velocity": 51,
                "duration": 0.0840909,
                "tempo": 120.0
            },
            {
                "start_time": 8.2840909,
                "end_time": 9.675,
                "pitch": 84,
                "velocity": 51,
                "duration": 1.3909091,
                "tempo": 120.0
            },
            {
                "start_time": 9.6909091,
                "end_time": 10.0772727,
                "pitch": 84,
                "velocity": 51,
                "duration": 0.3863636,
                "tempo": 120.0
            },
            {
                "start_time": 10.0931818,
                "end_time": 10.4795455,
                "pitch": 77,
                "velocity": 51,
                "duration": 0.3863636,
                "tempo": 120.0
            },
            {
                "start_time": 10.4977273,
                "end_time": 10.8818182,
                "pitch": 78,
                "velocity": 51,
                "duration": 0.3840909,
                "tempo": 120.0
            },
            {
                "start_time": 10.9,
                "end_time": 11.0840909,
                "pitch": 78,
                "velocity": 51,
                "duration": 0.1840909,
                "tempo": 120.0
            },
            {
                "start_time": 11.1,
                "end_time": 11.1840909,
                "pitch": 78,
                "velocity": 51,
                "duration": 0.0840909,
                "tempo": 120.0
            },
            {
                "start_time": 11.2022727,
                "end_time": 11.2840909,
                "pitch": 75,
                "velocity": 51,
                "duration": 0.0818182,
                "tempo": 120.0
            },
            {
                "start_time": 11.3022727,
                "end_time": 11.3840909,
                "pitch": 82,
                "velocity": 51,
                "duration": 0.0818182,
                "tempo": 120.0
            },
            {
                "start_time": 11.4022727,
                "end_time": 11.4840909,
                "pitch": 84,
                "velocity": 51,
                "duration": 0.0818182,
                "tempo": 120.0
            },
            {
                "start_time": 11.5022727,
                "end_time": 12.8909091,
                "pitch": 77,
                "velocity": 51,
                "duration": 1.3886364,
                "tempo": 120.0
            },
            {
                "start_time": 12.9068182,
                "end_time": 13.2931818,
                "pitch": 77,
                "velocity": 51,
                "duration": 0.3863636,
                "tempo": 120.0
            },
            {
                "start_time": 13.3090909,
                "end_time": 13.6931818,
                "pitch": 77,
                "velocity": 51,
                "duration": 0.3840909,
                "tempo": 120.0
            },
            {
                "start_time": 13.7113636,
                "end_time": 14.0954545,
                "pitch": 78,
                "velocity": 51,
                "duration": 0.3840909,
                "tempo": 120.0
            },
            {
                "start_time": 14.1136364,
                "end_time": 14.1977273,
                "pitch": 84,
                "velocity": 51,
                "duration": 0.0840909,
                "tempo": 120.0
            },
            {
                "start_time": 14.2136364,
                "end_time": 14.2977273,
                "pitch": 84,
                "velocity": 51,
                "duration": 0.0840909,
                "tempo": 120.0
            },
            {
                "start_time": 14.3136364,
                "end_time": 14.3977273,
                "pitch": 82,
                "velocity": 51,
                "duration": 0.0840909,
                "tempo": 120.0
            },
            {
                "start_time": 14.4159091,
                "end_time": 14.5,
                "pitch": 82,
                "velocity": 51,
                "duration": 0.0840909,
                "tempo": 120.0
            },
            {
                "start_time": 14.5159091,
                "end_time": 14.6,
                "pitch": 79,
                "velocity": 51,
                "duration": 0.0840909,
                "tempo": 120.0
            },
            {
                "start_time": 14.6159091,
                "end_time": 14.7,
                "pitch": 79,
                "velocity": 51,
                "duration": 0.0840909,
                "tempo": 120.0
            },
            {
                "start_time": 14.7181818,
                "end_time": 14.8022727,
                "pitch": 77,
                "velocity": 51,
                "duration": 0.0840909,
                "tempo": 120.0
            },
            {
                "start_time": 14.8181818,
                "end_time": 14.9022727,
                "pitch": 77,
                "velocity": 51,
                "duration": 0.0840909,
                "tempo": 120.0
            },
            {
                "start_time": 14.9181818,
                "end_time": 15.0022727,
                "pitch": 84,
                "velocity": 51,
                "duration": 0.0840909,
                "tempo": 120.0
            },
            {
                "start_time": 15.0181818,
                "end_time": 15.1022727,
                "pitch": 84,
                "velocity": 51,
                "duration": 0.0840909,
                "tempo": 120.0
            },
            {
                "start_time": 15.1204545,
                "end_time": 15.2045455,
                "pitch": 82,
                "velocity": 51,
                "duration": 0.0840909,
                "tempo": 120.0
            },
            {
                "start_time": 15.2204545,
                "end_time": 15.3045455,
                "pitch": 82,
                "velocity": 51,
                "duration": 0.0840909,
                "tempo": 120.0
            },
            {
                "start_time": 15.3204545,
                "end_time": 15.4045455,
                "pitch": 79,
                "velocity": 51,
                "duration": 0.0840909,
                "tempo": 120.0
            },
            {
                "start_time": 15.4204545,
                "end_time": 15.5045455,
                "pitch": 79,
                "velocity": 51,
                "duration": 0.0840909,
                "tempo": 120.0
            },
            {
                "start_time": 15.5204545,
                "end_time": 15.6045455,
                "pitch": 77,
                "velocity": 51,
                "duration": 0.0840909,
                "tempo": 120.0
            },
            {
                "start_time": 15.6204545,
                "end_time": 15.7045455,
                "pitch": 77,
                "velocity": 51,
                "duration": 0.0840909,
                "tempo": 120.0
            },
            {
                "start_time": 15.7204545,
                "end_time": 15.8045455,
                "pitch": 72,
                "velocity": 51,
                "duration": 0.0840909,
                "tempo": 120.0
            },
            {
                "start_time": 15.8227273,
                "end_time": 15.9068182,
                "pitch": 72,
                "velocity": 51,
                "duration": 0.0840909,
                "tempo": 120.0
            },
            {
                "start_time": 15.9227273,
                "end_time": 16.0068182,
                "pitch": 73,
                "velocity": 51,
                "duration": 0.0840909,
                "tempo": 120.0
            },
            {
                "start_time": 16.0227273,
                "end_time": 16.1068182,
                "pitch": 73,
                "velocity": 51,
                "duration": 0.0840909,
                "tempo": 120.0
            },
            {
                "start_time": 16.125,
                "end_time": 16.2068182,
                "pitch": 77,
                "velocity": 51,
                "duration": 0.0818182,
                "tempo": 120.0
            },
            {
                "start_time": 16.225,
                "end_time": 16.3090909,
                "pitch": 77,
                "velocity": 51,
                "duration": 0.0840909,
                "tempo": 120.0
            },
            {
                "start_time": 16.325,
                "end_time": 16.4090909,
                "pitch": 79,
                "velocity": 51,
                "duration": 0.0840909,
                "tempo": 120.0
            },
            {
                "start_time": 16.425,
                "end_time": 16.5090909,
                "pitch": 79,
                "velocity": 51,
                "duration": 0.0840909,
                "tempo": 120.0
            },
            {
                "start_time": 16.5272727,
                "end_time": 16.6090909,
                "pitch": 72,
                "velocity": 51,
                "duration": 0.0818182,
                "tempo": 120.0
            },
            {
                "start_time": 16.6272727,
                "end_time": 16.7090909,
                "pitch": 72,
                "velocity": 51,
                "duration": 0.0818182,
                "tempo": 120.0
            },
            {
                "start_time": 16.7272727,
                "end_time": 16.8090909,
                "pitch": 73,
                "velocity": 51,
                "duration": 0.0818182,
                "tempo": 120.0
            },
            {
                "start_time": 16.8272727,
                "end_time": 16.9090909,
                "pitch": 73,
                "velocity": 51,
                "duration": 0.0818182,
                "tempo": 120.0
            },
            {
                "start_time": 16.9272727,
                "end_time": 17.0113636,
                "pitch": 77,
                "velocity": 51,
                "duration": 0.0840909,
                "tempo": 120.0
            },
            {
                "start_time": 17.0272727,
                "end_time": 17.1113636,
                "pitch": 77,
                "velocity": 51,
                "duration": 0.0840909,
                "tempo": 120.0
            },
            {
                "start_time": 17.1272727,
                "end_time": 17.2113636,
                "pitch": 79,
                "velocity": 51,
                "duration": 0.0840909,
                "tempo": 120.0
            },
            {
                "start_time": 17.2295455,
                "end_time": 17.3113636,
                "pitch": 79,
                "velocity": 51,
                "duration": 0.0818182,
                "tempo": 120.0
            },
            {
                "start_time": 17.3295455,
                "end_time": 17.4113636,
                "pitch": 84,
                "velocity": 51,
                "duration": 0.0818182,
                "tempo": 120.0
            },
            {
                "start_time": 17.4295455,
                "end_time": 17.5113636,
                "pitch": 84,
                "velocity": 51,
                "duration": 0.0818182,
                "tempo": 120.0
            },
            {
                "start_time": 17.5295455,
                "end_time": 17.6113636,
                "pitch": 82,
                "velocity": 51,
                "duration": 0.0818182,
                "tempo": 120.0
            },
            {
                "start_time": 17.6295455,
                "end_time": 17.7136364,
                "pitch": 82,
                "velocity": 51,
                "duration": 0.0840909,
                "tempo": 120.0
            },
            {
                "start_time": 17.7295455,
                "end_time": 17.8136364,
                "pitch": 79,
                "velocity": 51,
                "duration": 0.0840909,
                "tempo": 120.0
            },
            {
                "start_time": 17.8295455,
                "end_time": 17.9136364,
                "pitch": 79,
                "velocity": 51,
                "duration": 0.0840909,
                "tempo": 120.0
            },
            {
                "start_time": 17.9295455,
                "end_time": 18.0136364,
                "pitch": 77,
                "velocity": 51,
                "duration": 0.0840909,
                "tempo": 120.0
            },
            {
                "start_time": 18.0318182,
                "end_time": 18.1159091,
                "pitch": 77,
                "velocity": 51,
                "duration": 0.0840909,
                "tempo": 120.0
            },
            {
                "start_time": 18.1318182,
                "end_time": 18.2159091,
                "pitch": 84,
                "velocity": 51,
                "duration": 0.0840909,
                "tempo": 120.0
            },
            {
                "start_time": 18.2318182,
                "end_time": 18.3159091,
                "pitch": 84,
                "velocity": 51,
                "duration": 0.0840909,
                "tempo": 120.0
            },
            {
                "start_time": 18.3318182,
                "end_time": 18.4159091,
                "pitch": 82,
                "velocity": 51,
                "duration": 0.0840909,
                "tempo": 120.0
            },
            {
                "start_time": 18.4318182,
                "end_time": 18.5159091,
                "pitch": 82,
                "velocity": 51,
                "duration": 0.0840909,
                "tempo": 120.0
            },
            {
                "start_time": 18.5318182,
                "end_time": 18.6159091,
                "pitch": 79,
                "velocity": 51,
                "duration": 0.0840909,
                "tempo": 120.0
            },
            {
                "start_time": 18.6318182,
                "end_time": 18.7159091,
                "pitch": 79,
                "velocity": 51,
                "duration": 0.0840909,
                "tempo": 120.0
            },
            {
                "start_time": 18.7318182,
                "end_time": 18.8159091,
                "pitch": 77,
                "velocity": 51,
                "duration": 0.0840909,
                "tempo": 120.0
            },
            {
                "start_time": 18.8318182,
                "end_time": 18.9159091,
                "pitch": 77,
                "velocity": 51,
                "duration": 0.0840909,
                "tempo": 120.0
            },
            {
                "start_time": 18.9318182,
                "end_time": 19.0159091,
                "pitch": 72,
                "velocity": 51,
                "duration": 0.0840909,
                "tempo": 120.0
            },
            {
                "start_time": 19.0318182,
                "end_time": 19.1159091,
                "pitch": 72,
                "velocity": 51,
                "duration": 0.0840909,
                "tempo": 120.0
            },
            {
                "start_time": 19.1340909,
                "end_time": 19.2181818,
                "pitch": 73,
                "velocity": 51,
                "duration": 0.0840909,
                "tempo": 120.0
            },
            {
                "start_time": 19.2340909,
                "end_time": 19.3181818,
                "pitch": 73,
                "velocity": 51,
                "duration": 0.0840909,
                "tempo": 120.0
            },
            {
                "start_time": 19.3340909,
                "end_time": 19.4181818,
                "pitch": 77,
                "velocity": 51,
                "duration": 0.0840909,
                "tempo": 120.0
            },
            {
                "start_time": 19.4340909,
                "end_time": 19.5181818,
                "pitch": 77,
                "velocity": 51,
                "duration": 0.0840909,
                "tempo": 120.0
            },
            {
                "start_time": 19.5340909,
                "end_time": 19.6181818,
                "pitch": 79,
                "velocity": 51,
                "duration": 0.0840909,
                "tempo": 120.0
            },
            {
                "start_time": 19.6340909,
                "end_time": 19.7181818,
                "pitch": 79,
                "velocity": 51,
                "duration": 0.0840909,
                "tempo": 120.0
            },
            {
                "start_time": 19.7340909,
                "end_time": 19.8181818,
                "pitch": 72,
                "velocity": 51,
                "duration": 0.0840909,
                "tempo": 120.0
            },
            {
                "start_time": 19.8363636,
                "end_time": 19.9181818,
                "pitch": 72,
                "velocity": 51,
                "duration": 0.0818182,
                "tempo": 120.0
            },
            {
                "start_time": 19.9363636,
                "end_time": 20.0204545,
                "pitch": 73,
                "velocity": 51,
                "duration": 0.0840909,
                "tempo": 120.0
            },
            {
                "start_time": 20.0363636,
                "end_time": 20.1204545,
                "pitch": 73,
                "velocity": 51,
                "duration": 0.0840909,
                "tempo": 120.0
            },
            {
                "start_time": 20.1363636,
                "end_time": 20.2204545,
                "pitch": 77,
                "velocity": 51,
                "duration": 0.0840909,
                "tempo": 120.0
            },
            {
                "start_time": 20.2363636,
                "end_time": 20.3204545,
                "pitch": 77,
                "velocity": 51,
                "duration": 0.0840909,
                "tempo": 120.0
            },
            {
                "start_time": 20.3363636,
                "end_time": 20.4204545,
                "pitch": 79,
                "velocity": 51,
                "duration": 0.0840909,
                "tempo": 120.0
            },
            {
                "start_time": 20.4363636,
                "end_time": 20.5204545,
                "pitch": 79,
                "velocity": 51,
                "duration": 0.0840909,
                "tempo": 120.0
            },
            {
                "start_time": 20.5363636,
                "end_time": 20.6204545,
                "pitch": 84,
                "velocity": 51,
                "duration": 0.0840909,
                "tempo": 120.0
            },
            {
                "start_time": 20.6363636,
                "end_time": 20.7204545,
                "pitch": 84,
                "velocity": 51,
                "duration": 0.0840909,
                "tempo": 120.0
            },
            {
                "start_time": 20.7363636,
                "end_time": 20.8204545,
                "pitch": 82,
                "velocity": 51,
                "duration": 0.0840909,
                "tempo": 120.0
            },
            {
                "start_time": 20.8363636,
                "end_time": 20.9204545,
                "pitch": 82,
                "velocity": 51,
                "duration": 0.0840909,
                "tempo": 120.0
            },
            {
                "start_time": 20.9363636,
                "end_time": 21.0204545,
                "pitch": 79,
                "velocity": 51,
                "duration": 0.0840909,
                "tempo": 120.0
            },
            {
                "start_time": 21.0386364,
                "end_time": 21.1227273,
                "pitch": 79,
                "velocity": 51,
                "duration": 0.0840909,
                "tempo": 120.0
            },
            {
                "start_time": 21.1386364,
                "end_time": 21.2227273,
                "pitch": 77,
                "velocity": 51,
                "duration": 0.0840909,
                "tempo": 120.0
            },
            {
                "start_time": 21.2386364,
                "end_time": 21.3227273,
                "pitch": 77,
                "velocity": 51,
                "duration": 0.0840909,
                "tempo": 120.0
            },
            {
                "start_time": 21.3386364,
                "end_time": 21.4227273,
                "pitch": 84,
                "velocity": 51,
                "duration": 0.0840909,
                "tempo": 120.0
            },
            {
                "start_time": 21.4386364,
                "end_time": 21.5227273,
                "pitch": 84,
                "velocity": 51,
                "duration": 0.0840909,
                "tempo": 120.0
            },
            {
                "start_time": 21.5386364,
                "end_time": 21.6227273,
                "pitch": 82,
                "velocity": 51,
                "duration": 0.0840909,
                "tempo": 120.0
            },
            {
                "start_time": 21.6386364,
                "end_time": 21.7227273,
                "pitch": 82,
                "velocity": 51,
                "duration": 0.0840909,
                "tempo": 120.0
            },
            {
                "start_time": 21.7409091,
                "end_time": 21.825,
                "pitch": 79,
                "velocity": 51,
                "duration": 0.0840909,
                "tempo": 120.0
            },
            {
                "start_time": 21.8409091,
                "end_time": 21.925,
                "pitch": 79,
                "velocity": 51,
                "duration": 0.0840909,
                "tempo": 120.0
            },
            {
                "start_time": 21.9409091,
                "end_time": 22.025,
                "pitch": 77,
                "velocity": 51,
                "duration": 0.0840909,
                "tempo": 120.0
            },
            {
                "start_time": 22.0431818,
                "end_time": 22.125,
                "pitch": 77,
                "velocity": 51,
                "duration": 0.0818182,
                "tempo": 120.0
            },
            {
                "start_time": 22.1431818,
                "end_time": 22.225,
                "pitch": 72,
                "velocity": 51,
                "duration": 0.0818182,
                "tempo": 120.0
            },
            {
                "start_time": 22.2431818,
                "end_time": 22.325,
                "pitch": 72,
                "velocity": 51,
                "duration": 0.0818182,
                "tempo": 120.0
            },
            {
                "start_time": 22.3431818,
                "end_time": 22.425,
                "pitch": 73,
                "velocity": 51,
                "duration": 0.0818182,
                "tempo": 120.0
            },
            {
                "start_time": 22.4431818,
                "end_time": 22.525,
                "pitch": 73,
                "velocity": 51,
                "duration": 0.0818182,
                "tempo": 120.0
            },
            {
                "start_time": 22.5431818,
                "end_time": 22.625,
                "pitch": 77,
                "velocity": 51,
                "duration": 0.0818182,
                "tempo": 120.0
            },
            {
                "start_time": 22.6431818,
                "end_time": 22.725,
                "pitch": 77,
                "velocity": 51,
                "duration": 0.0818182,
                "tempo": 120.0
            },
            {
                "start_time": 22.7431818,
                "end_time": 22.825,
                "pitch": 79,
                "velocity": 51,
                "duration": 0.0818182,
                "tempo": 120.0
            },
            {
                "start_time": 22.8431818,
                "end_time": 22.925,
                "pitch": 79,
                "velocity": 51,
                "duration": 0.0818182,
                "tempo": 120.0
            },
            {
                "start_time": 22.9431818,
                "end_time": 23.0272727,
                "pitch": 72,
                "velocity": 51,
                "duration": 0.0840909,
                "tempo": 120.0
            },
            {
                "start_time": 23.0431818,
                "end_time": 23.1272727,
                "pitch": 72,
                "velocity": 51,
                "duration": 0.0840909,
                "tempo": 120.0
            },
            {
                "start_time": 23.1431818,
                "end_time": 23.2272727,
                "pitch": 73,
                "velocity": 51,
                "duration": 0.0840909,
                "tempo": 120.0
            },
            {
                "start_time": 23.2454545,
                "end_time": 23.3272727,
                "pitch": 73,
                "velocity": 51,
                "duration": 0.0818182,
                "tempo": 120.0
            },
            {
                "start_time": 23.3454545,
                "end_time": 23.4272727,
                "pitch": 77,
                "velocity": 51,
                "duration": 0.0818182,
                "tempo": 120.0
            },
            {
                "start_time": 23.4454545,
                "end_time": 23.5272727,
                "pitch": 77,
                "velocity": 51,
                "duration": 0.0818182,
                "tempo": 120.0
            },
            {
                "start_time": 23.5454545,
                "end_time": 23.6272727,
                "pitch": 79,
                "velocity": 51,
                "duration": 0.0818182,
                "tempo": 120.0
            },
            {
                "start_time": 23.6454545,
                "end_time": 23.7295455,
                "pitch": 79,
                "velocity": 51,
                "duration": 0.0840909,
                "tempo": 120.0
            },
            {
                "start_time": 23.7454545,
                "end_time": 23.8295455,
                "pitch": 84,
                "velocity": 51,
                "duration": 0.0840909,
                "tempo": 120.0
            },
            {
                "start_time": 23.8454545,
                "end_time": 23.9295455,
                "pitch": 84,
                "velocity": 51,
                "duration": 0.0840909,
                "tempo": 120.0
            },
            {
                "start_time": 23.9477273,
                "end_time": 24.0318182,
                "pitch": 82,
                "velocity": 51,
                "duration": 0.0840909,
                "tempo": 120.0
            },
            {
                "start_time": 24.0477273,
                "end_time": 24.1318182,
                "pitch": 82,
                "velocity": 51,
                "duration": 0.0840909,
                "tempo": 120.0
            },
            {
                "start_time": 24.1477273,
                "end_time": 24.2318182,
                "pitch": 79,
                "velocity": 51,
                "duration": 0.0840909,
                "tempo": 120.0
            },
            {
                "start_time": 24.2477273,
                "end_time": 24.3318182,
                "pitch": 79,
                "velocity": 51,
                "duration": 0.0840909,
                "tempo": 120.0
            },
            {
                "start_time": 24.3477273,
                "end_time": 24.4318182,
                "pitch": 77,
                "velocity": 51,
                "duration": 0.0840909,
                "tempo": 120.0
            },
            {
                "start_time": 24.4477273,
                "end_time": 24.5318182,
                "pitch": 77,
                "velocity": 51,
                "duration": 0.0840909,
                "tempo": 120.0
            },
            {
                "start_time": 24.5477273,
                "end_time": 24.6318182,
                "pitch": 84,
                "velocity": 51,
                "duration": 0.0840909,
                "tempo": 120.0
            },
            {
                "start_time": 24.6477273,
                "end_time": 24.7318182,
                "pitch": 84,
                "velocity": 51,
                "duration": 0.0840909,
                "tempo": 120.0
            },
            {
                "start_time": 24.7477273,
                "end_time": 24.8318182,
                "pitch": 82,
                "velocity": 51,
                "duration": 0.0840909,
                "tempo": 120.0
            },
            {
                "start_time": 24.8477273,
                "end_time": 24.9318182,
                "pitch": 82,
                "velocity": 51,
                "duration": 0.0840909,
                "tempo": 120.0
            },
            {
                "start_time": 24.9477273,
                "end_time": 25.0318182,
                "pitch": 79,
                "velocity": 51,
                "duration": 0.0840909,
                "tempo": 120.0
            },
            {
                "start_time": 25.0477273,
                "end_time": 25.1318182,
                "pitch": 79,
                "velocity": 51,
                "duration": 0.0840909,
                "tempo": 120.0
            },
            {
                "start_time": 25.15,
                "end_time": 25.2340909,
                "pitch": 77,
                "velocity": 51,
                "duration": 0.0840909,
                "tempo": 120.0
            },
            {
                "start_time": 25.25,
                "end_time": 25.3340909,
                "pitch": 77,
                "velocity": 51,
                "duration": 0.0840909,
                "tempo": 120.0
            },
            {
                "start_time": 25.35,
                "end_time": 25.4340909,
                "pitch": 72,
                "velocity": 51,
                "duration": 0.0840909,
                "tempo": 120.0
            },
            {
                "start_time": 25.45,
                "end_time": 25.5340909,
                "pitch": 72,
                "velocity": 51,
                "duration": 0.0840909,
                "tempo": 120.0
            },
            {
                "start_time": 25.55,
                "end_time": 25.6340909,
                "pitch": 73,
                "velocity": 51,
                "duration": 0.0840909,
                "tempo": 120.0
            },
            {
                "start_time": 25.65,
                "end_time": 25.7340909,
                "pitch": 73,
                "velocity": 51,
                "duration": 0.0840909,
                "tempo": 120.0
            },
            {
                "start_time": 25.75,
                "end_time": 25.8340909,
                "pitch": 77,
                "velocity": 51,
                "duration": 0.0840909,
                "tempo": 120.0
            },
            {
                "start_time": 25.8522727,
                "end_time": 25.9363636,
                "pitch": 77,
                "velocity": 51,
                "duration": 0.0840909,
                "tempo": 120.0
            },
            {
                "start_time": 25.9522727,
                "end_time": 26.0363636,
                "pitch": 79,
                "velocity": 51,
                "duration": 0.0840909,
                "tempo": 120.0
            },
            {
                "start_time": 26.0522727,
                "end_time": 26.1363636,
                "pitch": 79,
                "velocity": 51,
                "duration": 0.0840909,
                "tempo": 120.0
            },
            {
                "start_time": 26.1522727,
                "end_time": 26.2363636,
                "pitch": 72,
                "velocity": 51,
                "duration": 0.0840909,
                "tempo": 120.0
            },
            {
                "start_time": 26.2522727,
                "end_time": 26.3363636,
                "pitch": 72,
                "velocity": 51,
                "duration": 0.0840909,
                "tempo": 120.0
            },
            {
                "start_time": 26.3522727,
                "end_time": 26.4363636,
                "pitch": 73,
                "velocity": 51,
                "duration": 0.0840909,
                "tempo": 120.0
            },
            {
                "start_time": 26.4522727,
                "end_time": 26.5363636,
                "pitch": 73,
                "velocity": 51,
                "duration": 0.0840909,
                "tempo": 120.0
            },
            {
                "start_time": 26.5522727,
                "end_time": 26.6363636,
                "pitch": 77,
                "velocity": 51,
                "duration": 0.0840909,
                "tempo": 120.0
            },
            {
                "start_time": 26.6522727,
                "end_time": 26.7363636,
                "pitch": 77,
                "velocity": 51,
                "duration": 0.0840909,
                "tempo": 120.0
            },
            {
                "start_time": 26.7522727,
                "end_time": 26.8363636,
                "pitch": 79,
                "velocity": 51,
                "duration": 0.0840909,
                "tempo": 120.0
            },
            {
                "start_time": 26.8522727,
                "end_time": 26.9363636,
                "pitch": 79,
                "velocity": 51,
                "duration": 0.0840909,
                "tempo": 120.0
            }
        ]
    }
}