{
    "mood": "angry",
    "instruments": {
        "Clarinet": [
            {
                "start_time": 0.0,
                "end_time": 0.0795455,
                "pitch": 76,
                "velocity": 64,
                "duration": 0.0795455,
                "tempo": 120.0
            },
            {
                "start_time": 0.0977273,
                "end_time": 0.1795455,
                "pitch": 61,
                "velocity": 64,
                "duration": 0.0818182,
                "tempo": 120.0
            },
            {
                "start_time": 0.1977273,
                "end_time": 0.7727273,
                "pitch": 76,
                "velocity": 64,
                "duration": 0.575,
                "tempo": 120.0
            },
            {
                "start_time": 0.7886364,
                "end_time": 1.4727273,
                "pitch": 77,
                "velocity": 64,
                "duration": 0.6840909,
                "tempo": 120.0
            },
            {
                "start_time": 1.4886364,
                "end_time": 1.5068182,
                "pitch": 78,
                "velocity": 64,
                "duration": 0.0181818,
                "tempo": 120.0
            },
            {
                "start_time": 1.5227273,
                "end_time": 2.775,
                "pitch": 79,
                "velocity": 64,
                "duration": 1.2522727,
                "tempo": 120.0
            },
            {
                "start_time": 2.7909091,
                "end_time": 3.075,
                "pitch": 77,
                "velocity": 64,
                "duration": 0.2840909,
                "tempo": 120.0
            },
            {
                "start_time": 3.0909091,
                "end_time": 3.8772727,
                "pitch": 76,
                "velocity": 64,
                "duration": 0.7863636,
                "tempo": 120.0
            },
            {
                "start_time": 3.8954545,
                "end_time": 3.9772727,
                "pitch": 75,
                "velocity": 64,
                "duration": 0.0818182,
                "tempo": 120.0
            },
            {
                "start_time": 3.9954545,
                "end_time": 4.3772727,
                "pitch": 74,
                "velocity": 64,
                "duration": 0.3818182,
                "tempo": 120.0
            },
            {
                "start_time": 4.3954545,
                "end_time": 4.5795455,
                "pitch": 76,
                "velocity": 64,
                "duration": 0.1840909,
                "tempo": 120.0
            },
            {
                "start_time": 4.5954545,
                "end_time": 4.6795455,
                "pitch": 77,
                "velocity": 64,
                "duration": 0.0840909,
                "tempo": 120.0
            },
            {
                "start_time": 4.6977273,
                "end_time": 4.9795455,
                "pitch": 77,
                "velocity": 64,
                "duration": 0.2818182,
                "tempo": 120.0
            },
            {
                "start_time": 4.9977273,
                "end_time": 5.1795455,
                "pitch": 76,
                "velocity": 64,
                "duration": 0.1818182,
                "tempo": 120.0
            },
            {
                "start_time": 5.1977273,
                "end_time": 5.3818182,
                "pitch": 74,
                "velocity": 64,
                "duration": 0.1840909,
                "tempo": 120.0
            },
            {
                "start_time": 5.3977273,
                "end_time": 5.4818182,
                "pitch": 73,
                "velocity": 64,
                "duration": 0.0840909,
                "tempo": 120.0
            },
            {
                "start_time": 5.5,
                "end_time": 5.9840909,
                "pitch": 72,
                "velocity": 64,
                "duration": 0.4840909,
                "tempo": 120.0
            },
            {
                "start_time": 6.0,
                "end_time": 6.1840909,
                "pitch": 74,
                "velocity": 64,
                "duration": 0.1840909,
                "tempo": 120.0
            },
            {
                "start_time": 6.2022727,
                "end_time": 6.3863636,
                "pitch": 77,
                "velocity": 64,
                "duration": 0.1840909,
                "tempo": 120.0
            },
            {
                "start_time": 6.4022727,
                "end_time": 7.9909091,
                "pitch": 76,
                "velocity": 64,
                "duration": 1.5886364,
                "tempo": 120.0
            },
            {
                "start_time": 8.0090909,
                "end_time": 9.1977273,
                "pitch": 79,
                "velocity": 64,
                "duration": 1.1886364,
                "tempo": 120.0
            },
            {
                "start_time": 9.2136364,
                "end_time": 9.3977273,
                "pitch": 77,
                "velocity": 64,
                "duration": 0.1840909,
                "tempo": 120.0
            },
            {
                "start_time": 9.4136364,
                "end_time": 10.7045455,
                "pitch": 76,
                "velocity": 64,
                "duration": 1.2909091,
                "tempo": 120.0
            },
            {
                "start_time": 10.7204545,
                "end_time": 11.0068182,
                "pitch": 75,
                "velocity": 64,
                "duration": 0.2863636,
                "tempo": 120.0
            },
            {
                "start_time": 11.0227273,
                "end_time": 11.2068182,
                "pitch": 76,
                "velocity": 64,
                "duration": 0.1840909,
                "tempo": 120.0
            },
            {
                "start_time": 11.225,
                "end_time": 12.5136364,
                "pitch": 72,
                "velocity": 64,
                "duration": 1.2886364,
                "tempo": 120.0
            },
            {
                "start_time": 12.5318182,
                "end_time": 12.6136364,
                "pitch": 73,
                "velocity": 64,
                "duration": 0.0818182,
                "tempo": 120.0
            },
            {
                "start_time": 12.6318182,
                "end_time": 12.8159091,
                "pitch": 75,
                "velocity": 64,
                "duration": 0.1840909,
                "tempo": 120.0
            },
            {
                "start_time": 12.8318182,
                "end_time": 14.725,
                "pitch": 76,
                "velocity": 64,
                "duration": 1.8931818,
                "tempo": 120.0
            },
            {
                "start_time": 14.7431818,
                "end_time": 14.8272727,
                "pitch": 74,
                "velocity": 64,
                "duration": 0.0840909,
                "tempo": 120.0
            },
            {
                "start_time": 14.8431818,
                "end_time": 15.0272727,
                "pitch": 76,
                "velocity": 64,
                "duration": 0.1840909,
                "tempo": 120.0
            },
            {
                "start_time": 15.0454545,
                "end_time": 15.2295455,
                "pitch": 77,
                "velocity": 64,
                "duration": 0.1840909,
                "tempo": 120.0
            },
            {
                "start_time": 15.2454545,
                "end_time": 15.4295455,
                "pitch": 79,
                "velocity": 64,
                "duration": 0.1840909,
                "tempo": 120.0
            },
            {
                "start_time": 15.4454545,
                "end_time": 15.5295455,
                "pitch": 77,
                "velocity": 64,
                "duration": 0.0840909,
                "tempo": 120.0
            },
            {
                "start_time": 15.5454545,
                "end_time": 15.7295455,
                "pitch": 76,
                "velocity": 64,
                "duration": 0.1840909,
                "tempo": 120.0
            },
            {
                "start_time": 15.7477273,
                "end_time": 15.8318182,
                "pitch": 74,
                "velocity": 64,
                "duration": 0.0840909,
                "tempo": 120.0
            },
            {
                "start_time": 15.8477273,
                "end_time": 15.9318182,
                "pitch": 74,
                "velocity": 64,
                "duration": 0.0840909,
                "tempo": 120.0
            },
            {
                "start_time": 15.9477273,
                "end_time": 16.0318182,
                "pitch": 72,
                "velocity": 64,
                "duration": 0.0840909,
                "tempo": 120.0
            },
            {
                "start_time": 16.05,
                "end_time": 16.0659091,
                "pitch": 73,
                "velocity": 64,
                "duration": 0.0159091,
                "tempo": 120.0
            },
            {
                "start_time": 16.0818182,
                "end_time": 16.9363636,
                "pitch": 74,
                "velocity": 64,
                "duration": 0.8545455,
                "tempo": 120.0
            },
            {
                "start_time": 16.9522727,
                "end_time": 17.0363636,
                "pitch": 73,
                "velocity": 64,
                "duration": 0.0840909,
                "tempo": 120.0
            },
            {
                "start_time": 17.0522727,
                "end_time": 17.1363636,
                "pitch": 72,
                "velocity": 64,
                "duration": 0.0840909,
                "tempo": 120.0
            },
            {
                "start_time": 17.1545455,
                "end_time": 17.2363636,
                "pitch": 67,
                "velocity": 64,
                "duration": 0.0818182,
                "tempo": 120.0
            },
            {
                "start_time": 17.2545455,
                "end_time": 17.3386364,
                "pitch": 69,
                "velocity": 64,
                "duration": 0.0840909,
                "tempo": 120.0
            },
            {
                "start_time": 17.3545455,
                "end_time": 17.4386364,
                "pitch": 70,
                "velocity": 64,
                "duration": 0.0840909,
                "tempo": 120.0
            },
            {
                "start_time": 17.4545455,
                "end_time": 17.5386364,
                "pitch": 72,
                "velocity": 64,
                "duration": 0.0840909,
                "tempo": 120.0
            },
            {
                "start_time": 17.5545455,
                "end_time": 17.6386364,
                "pitch": 74,
                "velocity": 64,
                "duration": 0.0840909,
                "tempo": 120.0
            },
            {
                "start_time": 17.6545455,
                "end_time": 18.0409091,
                "pitch": 76,
                "velocity": 64,
                "duration": 0.3863636,
                "tempo": 120.0
            },
            {
                "start_time": 18.0568182,
                "end_time": 18.1409091,
                "pitch": 76,
                "velocity": 64,
                "duration": 0.0840909,
                "tempo": 120.0
            },
            {
                "start_time": 18.1568182,
                "end_time": 18.2409091,
                "pitch": 77,
                "velocity": 64,
                "duration": 0.0840909,
                "tempo": 120.0
            },
            {
                "start_time": 18.2568182,
                "end_time": 18.5409091,
                "pitch": 76,
                "velocity": 64,
                "duration": 0.2840909,
                "tempo": 120.0
            },
            {
                "start_time": 18.5568182,
                "end_time": 18.8409091,
                "pitch": 74,
                "velocity": 64,
                "duration": 0.2840909,
                "tempo": 120.0
            },
            {
                "start_time": 18.8568182,
                "end_time": 18.9409091,
                "pitch": 72,
                "velocity": 64,
                "duration": 0.0840909,
                "tempo": 120.0
            },
            {
                "start_time": 18.9568182,
                "end_time": 19.2431818,
                "pitch": 72,
                "velocity": 64,
                "duration": 0.2863636,
                "tempo": 120.0
            },
            {
                "start_time": 19.2590909,
                "end_time": 19.6431818,
                "pitch": 79,
                "velocity": 64,
                "duration": 0.3840909,
                "tempo": 120.0
            },
            {
                "start_time": 19.6590909,
                "end_time": 19.8431818,
                "pitch": 77,
                "velocity": 64,
                "duration": 0.1840909,
                "tempo": 120.0
            },
            {
                "start_time": 19.8613636,
                "end_time": 20.2454545,
                "pitch": 76,
                "velocity": 64,
                "duration": 0.3840909,
                "tempo": 120.0
            },
            {
                "start_time": 20.2613636,
                "end_time": 20.4454545,
                "pitch": 74,
                "velocity": 64,
                "duration": 0.1840909,
                "tempo": 120.0
            },
            {
                "start_time": 20.4613636,
                "end_time": 20.6454545,
                "pitch": 72,
                "velocity": 64,
                "duration": 0.1840909,
                "tempo": 120.0
            },
            {
                "start_time": 20.6613636,
                "end_time": 20.8454545,
                "pitch": 74,
                "velocity": 64,
                "duration": 0.1840909,
                "tempo": 120.0
            },
            {
                "start_time": 20.8613636,
                "end_time": 20.9454545,
                "pitch": 72,
                "velocity": 64,
                "duration": 0.0840909,
                "tempo": 120.0
            },
            {
                "start_time": 20.9636364,
                "end_time": 21.85,
                "pitch": 64,
                "velocity": 64,
                "duration": 0.8863636,
                "tempo": 120.0
            },
            {
                "start_time": 21.8659091,
                "end_time": 21.95,
                "pitch": 62,
                "velocity": 64,
                "duration": 0.0840909,
                "tempo": 120.0
            },
            {
                "start_time": 21.9659091,
                "end_time": 22.05,
                "pitch": 64,
                "velocity": 64,
                "duration": 0.0840909,
                "tempo": 120.0
            },
            {
                "start_time": 22.0681818,
                "end_time": 22.15,
                "pitch": 65,
                "velocity": 64,
                "duration": 0.0818182,
                "tempo": 120.0
            },
            {
                "start_time": 22.1681818,
                "end_time": 22.25,
                "pitch": 67,
                "velocity": 64,
                "duration": 0.0818182,
                "tempo": 120.0
            },
            {
                "start_time": 22.2681818,
                "end_time": 22.35,
                "pitch": 69,
                "velocity": 64,
                "duration": 0.0818182,
                "tempo": 120.0
            },
            {
                "start_time": 22.3681818,
                "end_time": 22.45,
                "pitch": 70,
                "velocity": 64,
                "duration": 0.0818182,
                "tempo": 120.0
            },
            {
                "start_time": 22.4681818,
                "end_time": 22.85,
                "pitch": 64,
                "velocity": 64,
                "duration": 0.3818182,
                "tempo": 120.0
            },
            {
                "start_time": 22.8681818,
                "end_time": 23.0522727,
                "pitch": 69,
                "velocity": 64,
                "duration": 0.1840909,
                "tempo": 120.0
            },
            {
                "start_time": 23.0681818,
                "end_time": 23.4545455,
                "pitch": 76,
                "velocity": 64,
                "duration": 0.3863636,
                "tempo": 120.0
            },
            {
                "start_time": 23.4704545,
                "end_time": 23.6545455,
                "pitch": 77,
                "velocity": 64,
                "duration": 0.1840909,
                "tempo": 120.0
            },
            {
                "start_time": 23.6704545,
                "end_time": 23.6863636,
                "pitch": 78,
                "velocity": 64,
                "duration": 0.0159091,
                "tempo": 120.0
            },
            {
                "start_time": 23.7045455,
                "end_time": 23.8545455,
                "pitch": 79,
                "velocity": 64,
                "duration": 0.15,
                "tempo": 120.0
            },
            {
                "start_time": 23.8727273,
                "end_time": 24.0568182,
                "pitch": 77,
                "velocity": 64,
                "duration": 0.1840909,
                "tempo": 120.0
            },
            {
                "start_time": 24.0727273,
                "end_time": 24.4568182,
                "pitch": 76,
                "velocity": 64,
                "duration": 0.3840909,
                "tempo": 120.0
            },
            {
                "start_time": 24.4727273,
                "end_time": 24.6568182,
                "pitch": 74,
                "velocity": 64,
                "duration": 0.1840909,
                "tempo": 120.0
            },
            {
                "start_time": 24.6727273,
                "end_time": 24.7568182,
                "pitch": 76,
                "velocity": 64,
                "duration": 0.0840909,
                "tempo": 120.0
            },
            {
                "start_time": 24.7727273,
                "end_time": 25.0568182,
                "pitch": 74,
                "velocity": 64,
                "duration": 0.2840909,
                "tempo": 120.0
            },
            {
                "start_time": 25.075,
                "end_time": 25.2590909,
                "pitch": 72,
                "velocity": 64,
                "duration": 0.1840909,
                "tempo": 120.0
            },
            {
                "start_time": 25.275,
                "end_time": 25.4590909,
                "pitch": 74,
                "velocity": 64,
                "duration": 0.1840909,
                "tempo": 120.0
            },
            {
                "start_time": 25.475,
                "end_time": 25.6590909,
                "pitch": 76,
                "velocity": 64,
                "duration": 0.1840909,
                "tempo": 120.0
            },
            {
                "start_time": 25.675,
                "end_time": 26.9613636,
                "pitch": 72,
                "velocity": 64,
                "duration": 1.2863636,
                "tempo": 120.0
            },
            {
                "start_time": 26.9795455,
                "end_time": 27.0636364,
                "pitch": 67,
                "velocity": 64,
                "duration": 0.0840909,
                "tempo": 120.0
            },
            {
                "start_time": 27.0795455,
                "end_time": 27.1636364,
                "pitch": 69,
                "velocity": 64,
                "duration": 0.0840909,
                "tempo": 120.0
            },
            {
                "start_time": 27.1795455,
                "end_time": 27.2636364,
                "pitch": 72,
                "velocity": 64,
                "duration": 0.0840909,
                "tempo": 120.0
            },
            {
                "start_time": 27.2818182,
                "end_time": 27.3636364,
                "pitch": 72,
                "velocity": 64,
                "duration": 0.0818182,
                "tempo": 120.0
            },
            {
                "start_time": 27.3818182,
                "end_time": 28.0659091,
                "pitch": 76,
                "velocity": 64,
                "duration": 0.6840909,
                "tempo": 120.0
            },
            {
                "start_time": 28.0840909,
                "end_time": 28.4681818,
                "pitch": 79,
                "velocity": 64,
                "duration": 0.3840909,
                "tempo": 120.0
            },
            {
                "start_time": 28.4840909,
                "end_time": 28.6681818,
                "pitch": 77,
                "velocity": 64,
                "duration": 0.1840909,
                "tempo": 120.0
            },
            {
                "start_time": 28.6840909,
                "end_time": 29.8704545,
                "pitch": 76,
                "velocity": 64,
                "duration": 1.1863636,
                "tempo": 120.0
            },
            {
                "start_time": 29.8886364,
                "end_time": 30.2727273,
                "pitch": 74,
                "velocity": 64,
                "duration": 0.3840909,
                "tempo": 120.0
            },
            {
                "start_time": 30.2886364,
                "end_time": 30.4727273,
                "pitch": 72,
                "velocity": 64,
                "duration": 0.1840909,
                "tempo": 120.0
            },
            {
                "start_time": 30.4886364,
                "end_time": 30.7727273,
                "pitch": 74,
                "velocity": 64,
                "duration": 0.2840909,
                "tempo": 120.0
            },
            {
                "start_time": 30.7886364,
                "end_time": 31.0727273,
                "pitch": 76,
                "velocity": 64,
                "duration": 0.2840909,
                "tempo": 120.0
            },
            {
                "start_time": 31.0909091,
                "end_time": 31.275,
                "pitch": 77,
                "velocity": 64,
                "duration": 0.1840909,
                "tempo": 120.0
            },
            {
                "start_time": 31.2909091,
                "end_time": 31.675,
                "pitch": 79,
                "velocity": 64,
                "duration": 0.3840909,
                "tempo": 120.0
            },
            {
                "start_time": 31.6909091,
                "end_time": 32.0772727,
                "pitch": 77,
                "velocity": 64,
                "duration": 0.3863636,
                "tempo": 120.0
            },
            {
                "start_time": 32.0954545,
                "end_time": 33.0818182,
                "pitch": 76,
                "velocity": 64,
                "duration": 0.9863636,
                "tempo": 120.0
            },
            {
                "start_time": 33.0977273,
                "end_time": 33.2818182,
                "pitch": 74,
                "velocity": 64,
                "duration": 0.1840909,
                "tempo": 120.0
            },
            {
                "start_time": 33.2977273,
                "end_time": 33.3818182,
                "pitch": 74,
                "velocity": 64,
                "duration": 0.0840909,
                "tempo": 120.0
            },
            {
                "start_time": 33.3977273,
                "end_time": 33.4818182,
                "pitch": 76,
                "velocity": 64,
                "duration": 0.0840909,
                "tempo": 120.0
            },
            {
                "start_time": 33.4977273,
                "end_time": 33.5818182,
                "pitch": 77,
                "velocity": 64,
                "duration": 0.0840909,
                "tempo": 120.0
            },
            {
                "start_time": 33.6,
                "end_time": 33.6840909,
                "pitch": 76,
                "velocity": 64,
                "duration": 0.0840909,
                "tempo": 120.0
            },
            {
                "start_time": 33.7,
                "end_time": 34.0840909,
                "pitch": 79,
                "velocity": 64,
                "duration": 0.3840909,
                "tempo": 120.0
            },
            {
                "start_time": 34.1,
                "end_time": 34.4840909,
                "pitch": 77,
                "velocity": 64,
                "duration": 0.3840909,
                "tempo": 120.0
            },
            {
                "start_time": 34.5,
                "end_time": 34.7840909,
                "pitch": 76,
                "velocity": 64,
                "duration": 0.2840909,
                "tempo": 120.0
            },
            {
                "start_time": 34.8,
                "end_time": 35.0840909,
                "pitch": 74,
                "velocity": 64,
                "duration": 0.2840909,
                "tempo": 120.0
            },
            {
                "start_time": 35.1,
                "end_time": 35.2840909,
                "pitch": 72,
                "velocity": 64,
                "duration": 0.1840909,
                "tempo": 120.0
            },
            {
                "start_time": 35.3,
                "end_time": 36.0863636,
                "pitch": 72,
                "velocity": 64,
                "duration": 0.7863636,
                "tempo": 120.0
            },
            {
                "start_time": 36.1022727,
                "end_time": 36.3863636,
                "pitch": 79,
                "velocity": 64,
                "duration": 0.2840909,
                "tempo": 120.0
            },
            {
                "start_time": 36.4022727,
                "end_time": 36.6863636,
                "pitch": 72,
                "velocity": 64,
                "duration": 0.2840909,
                "tempo": 120.0
            },
            {
                "start_time": 36.7022727,
                "end_time": 36.8863636,
                "pitch": 74,
                "velocity": 64,
                "duration": 0.1840909,
                "tempo": 120.0
            },
            {
                "start_time": 36.9022727,
                "end_time": 37.1863636,
                "pitch": 76,
                "velocity": 64,
                "duration": 0.2840909,
                "tempo": 120.0
            },
            {
                "start_time": 37.2022727,
                "end_time": 37.4863636,
                "pitch": 77,
                "velocity": 64,
                "duration": 0.2840909,
                "tempo": 120.0
            },
            {
                "start_time": 37.5045455,
                "end_time": 37.6886364,
                "pitch": 79,
                "velocity": 64,
                "duration": 0.1840909,
                "tempo": 120.0
            },
            {
                "start_time": 37.7045455,
                "end_time": 37.9886364,
                "pitch": 79,
                "velocity": 64,
                "duration": 0.2840909,
                "tempo": 120.0
            },
            {
                "start_time": 38.0045455,
                "end_time": 38.1886364,
                "pitch": 76,
                "velocity": 64,
                "duration": 0.1840909,
                "tempo": 120.0
            },
            {
                "start_time": 38.2045455,
                "end_time": 38.4886364,
                "pitch": 74,
                "velocity": 64,
                "duration": 0.2840909,
                "tempo": 120.0
            },
            {
                "start_time": 38.5045455,
                "end_time": 40.2909091,
                "pitch": 72,
                "velocity": 64,
                "duration": 1.7863636,
                "tempo": 120.0
            },
            {
                "start_time": 40.3090909,
                "end_time": 40.3909091,
                "pitch": 62,
                "velocity": 64,
                "duration": 0.0818182,
                "tempo": 120.0
            },
            {
                "start_time": 40.4090909,
                "end_time": 40.4909091,
                "pitch": 64,
                "velocity": 64,
                "duration": 0.0818182,
                "tempo": 120.0
            },
            {
                "start_time": 40.5090909,
                "end_time": 40.5909091,
                "pitch": 65,
                "velocity": 64,
                "duration": 0.0818182,
                "tempo": 120.0
            },
            {
                "start_time": 40.6090909,
                "end_time": 40.6909091,
                "pitch": 67,
                "velocity": 64,
                "duration": 0.0818182,
                "tempo": 120.0
            },
            {
                "start_time": 40.7090909,
                "end_time": 40.7909091,
                "pitch": 69,
                "velocity": 64,
                "duration": 0.0818182,
                "tempo": 120.0
            },
            {
                "start_time": 40.8090909,
                "end_time": 40.8909091,
                "pitch": 70,
                "velocity": 64,
                "duration": 0.0818182,
                "tempo": 120.0
            },
            {
                "start_time": 40.9090909,
                "end_time": 41.1909091,
                "pitch": 72,
                "velocity": 64,
                "duration": 0.2818182,
                "tempo": 120.0
            },
            {
                "start_time": 41.2090909,
                "end_time": 41.4931818,
                "pitch": 76,
                "velocity": 64,
                "duration": 0.2840909,
                "tempo": 120.0
            },
            {
                "start_time": 41.5090909,
                "end_time": 41.6931818,
                "pitch": 79,
                "velocity": 64,
                "duration": 0.1840909,
                "tempo": 120.0
            },
            {
                "start_time": 41.7113636,
                "end_time": 42.2931818,
                "pitch": 77,
                "velocity": 64,
                "duration": 0.5818182,
                "tempo": 120.0
            },
            {
                "start_time": 42.3113636,
                "end_time": 42.4931818,
                "pitch": 76,
                "velocity": 64,
                "duration": 0.1818182,
                "tempo": 120.0
            },
            {
                "start_time": 42.5113636,
                "end_time": 43.0931818,
                "pitch": 74,
                "velocity": 64,
                "duration": 0.5818182,
                "tempo": 120.0
            },
            {
                "start_time": 43.1113636,
                "end_time": 43.2931818,
                "pitch": 72,
                "velocity": 64,
                "duration": 0.1818182,
                "tempo": 120.0
            },
            {
                "start_time": 43.3113636,
                "end_time": 43.4954545,
                "pitch": 74,
                "velocity": 64,
                "duration": 0.1840909,
                "tempo": 120.0
            },
            {
                "start_time": 43.5113636,
                "end_time": 43.8977273,
                "pitch": 76,
                "velocity": 64,
                "duration": 0.3863636,
                "tempo": 120.0
            },
            {
                "start_time": 43.9136364,
                "end_time": 44.0977273,
                "pitch": 72,
                "velocity": 64,
                "duration": 0.1840909,
                "tempo": 120.0
            },
            {
                "start_time": 44.1136364,
                "end_time": 44.2977273,
                "pitch": 69,
                "velocity": 64,
                "duration": 0.1840909,
                "tempo": 120.0
            },
            {
                "start_time": 44.3136364,
                "end_time": 44.5977273,
                "pitch": 71,
                "velocity": 64,
                "duration": 0.2840909,
                "tempo": 120.0
            },
            {
                "start_time": 44.6136364,
                "end_time": 44.8977273,
                "pitch": 72,
                "velocity": 64,
                "duration": 0.2840909,
                "tempo": 120.0
            },
            {
                "start_time": 44.9136364,
                "end_time": 45.3068182,
                "pitch": 74,
                "velocity": 64,
                "duration": 0.3931818,
                "tempo": 120.0
            },
            {
                "start_time": 46.2159091,
                "end_time": 46.3,
                "pitch": 62,
                "velocity": 64,
                "duration": 0.0840909,
                "tempo": 120.0
            },
            {
                "start_time": 46.3159091,
                "end_time": 46.4,
                "pitch": 64,
                "velocity": 64,
                "duration": 0.0840909,
                "tempo": 120.0
            },
            {
                "start_time": 46.4159091,
                "end_time": 46.5,
                "pitch": 64,
                "velocity": 64,
                "duration": 0.0840909,
                "tempo": 120.0
            },
            {
                "start_time": 46.5159091,
                "end_time": 46.6,
                "pitch": 69,
                "velocity": 64,
                "duration": 0.0840909,
                "tempo": 120.0
            },
            {
                "start_time": 46.6159091,
                "end_time": 47.3,
                "pitch": 71,
                "velocity": 64,
                "duration": 0.6840909,
                "tempo": 120.0
            },
            {
                "start_time": 47.7181818,
                "end_time": 48.1022727,
                "pitch": 74,
                "velocity": 64,
                "duration": 0.3840909,
                "tempo": 120.0
            },
            {
                "start_time": 48.1181818,
                "end_time": 49.8045455,
                "pitch": 79,
                "velocity": 64,
                "duration": 1.6863636,
                "tempo": 120.0
            },
            {
                "start_time": 49.8227273,
                "end_time": 50.4045455,
                "pitch": 77,
                "velocity": 64,
                "duration": 0.5818182,
                "tempo": 120.0
            },
            {
                "start_time": 50.4227273,
                "end_time": 50.8045455,
                "pitch": 76,
                "velocity": 64,
                "duration": 0.3818182,
                "tempo": 120.0
            },
            {
                "start_time": 50.8227273,
                "end_time": 51.1045455,
                "pitch": 74,
                "velocity": 64,
                "duration": 0.2818182,
                "tempo": 120.0
            },
            {
                "start_time": 51.1227273,
                "end_time": 51.3159091,
                "pitch": 72,
                "velocity": 64,
                "duration": 0.1931818,
                "tempo": 120.0
            }
        ],
        "Acoustic Bass": [
            {
                "start_time": 0.0136364,
                "end_time": 0.5772727,
                "pitch": 30,
                "velocity": 51,
                "duration": 0.5636364,
                "tempo": 120.0
            },
            {
                "start_time": 0.5931818,
                "end_time": 0.9727273,
                "pitch": 42,
                "velocity": 51,
                "duration": 0.3795455,
                "tempo": 120.0
            },
            {
                "start_time": 0.9886364,
                "end_time": 1.0727273,
                "pitch": 35,
                "velocity": 51,
                "duration": 0.0840909,
                "tempo": 120.0
            },
            {
                "start_time": 1.0886364,
                "end_time": 1.1727273,
                "pitch": 36,
                "velocity": 51,
                "duration": 0.0840909,
                "tempo": 120.0
            },
            {
                "start_time": 1.1886364,
                "end_time": 1.3727273,
                "pitch": 37,
                "velocity": 51,
                "duration": 0.1840909,
                "tempo": 120.0
            },
            {
                "start_time": 1.3886364,
                "end_time": 1.7727273,
                "pitch": 40,
                "velocity": 51,
                "duration": 0.3840909,
                "tempo": 120.0
            },
            {
                "start_time": 1.7909091,
                "end_time": 1.975,
                "pitch": 42,
                "velocity": 51,
                "duration": 0.1840909,
                "tempo": 120.0
            },
            {
                "start_time": 1.9909091,
                "end_time": 2.075,
                "pitch": 45,
                "velocity": 51,
                "duration": 0.0840909,
                "tempo": 120.0
            },
            {
                "start_time": 2.0909091,
                "end_time": 2.175,
                "pitch": 47,
                "velocity": 51,
                "duration": 0.0840909,
                "tempo": 120.0
            },
            {
                "start_time": 2.1909091,
                "end_time": 2.775,
                "pitch": 31,
                "velocity": 51,
                "duration": 0.5840909,
                "tempo": 120.0
            },
            {
                "start_time": 2.7909091,
                "end_time": 3.175,
                "pitch": 42,
                "velocity": 51,
                "duration": 0.3840909,
                "tempo": 120.0
            },
            {
                "start_time": 3.1909091,
                "end_time": 3.7772727,
                "pitch": 30,
                "velocity": 51,
                "duration": 0.5863636,
                "tempo": 120.0
            },
            {
                "start_time": 3.7954545,
                "end_time": 4.1772727,
                "pitch": 42,
                "velocity": 51,
                "duration": 0.3818182,
                "tempo": 120.0
            },
            {
                "start_time": 4.1954545,
                "end_time": 4.2772727,
                "pitch": 35,
                "velocity": 51,
                "duration": 0.0818182,
                "tempo": 120.0
            },
            {
                "start_time": 4.2954545,
                "end_time": 4.3772727,
                "pitch": 36,
                "velocity": 51,
                "duration": 0.0818182,
                "tempo": 120.0
            },
            {
                "start_time": 4.3954545,
                "end_time": 4.5795455,
                "pitch": 37,
                "velocity": 51,
                "duration": 0.1840909,
                "tempo": 120.0
            },
            {
                "start_time": 4.5954545,
                "end_time": 4.9795455,
                "pitch": 40,
                "velocity": 51,
                "duration": 0.3840909,
                "tempo": 120.0
            },
            {
                "start_time": 4.9977273,
                "end_time": 5.1795455,
                "pitch": 42,
                "velocity": 51,
                "duration": 0.1818182,
                "tempo": 120.0
            },
            {
                "start_time": 5.1977273,
                "end_time": 5.2818182,
                "pitch": 45,
                "velocity": 51,
                "duration": 0.0840909,
                "tempo": 120.0
            },
            {
                "start_time": 5.2977273,
                "end_time": 5.3818182,
                "pitch": 47,
                "velocity": 51,
                "duration": 0.0840909,
                "tempo": 120.0
            },
            {
                "start_time": 5.3977273,
                "end_time": 5.9840909,
                "pitch": 31,
                "velocity": 51,
                "duration": 0.5863636,
                "tempo": 120.0
            },
            {
                "start_time": 6.0,
                "end_time": 6.3863636,
                "pitch": 42,
                "velocity": 51,
                "duration": 0.3863636,
                "tempo": 120.0
            },
            {
                "start_time": 6.4022727,
                "end_time": 6.9931818,
                "pitch": 30,
                "velocity": 51,
                "duration": 0.5909091,
                "tempo": 120.0
            },
            {
                "start_time": 7.0090909,
                "end_time": 7.3909091,
                "pitch": 42,
                "velocity": 51,
                "duration": 0.3818182,
                "tempo": 120.0
            },
            {
                "start_time": 7.4068182,
                "end_time": 7.4909091,
                "pitch": 35,
                "velocity": 51,
                "duration": 0.0840909,
                "tempo": 120.0
            },
            {
                "start_time": 7.5068182,
                "end_time": 7.5909091,
                "pitch": 36,
                "velocity": 51,
                "duration": 0.0840909,
                "tempo": 120.0
            },
            {
                "start_time": 7.6090909,
                "end_time": 7.7909091,
                "pitch": 37,
                "velocity": 51,
                "duration": 0.1818182,
                "tempo": 120.0
            },
            {
                "start_time": 7.8090909,
                "end_time": 8.1954545,
                "pitch": 40,
                "velocity": 51,
                "duration": 0.3863636,
                "tempo": 120.0
            },
            {
                "start_time": 8.2136364,
                "end_time": 8.4022727,
                "pitch": 42,
                "velocity": 51,
                "duration": 0.1886364,
                "tempo": 120.0
            },
            {
                "start_time": 8.4181818,
                "end_time": 8.5,
                "pitch": 45,
                "velocity": 51,
                "duration": 0.0818182,
                "tempo": 120.0
            },
            {
                "start_time": 8.5159091,
                "end_time": 8.5977273,
                "pitch": 47,
                "velocity": 51,
                "duration": 0.0818182,
                "tempo": 120.0
            },
            {
                "start_time": 8.6159091,
                "end_time": 9.1977273,
                "pitch": 31,
                "velocity": 51,
                "duration": 0.5818182,
                "tempo": 120.0
            },
            {
                "start_time": 9.2136364,
                "end_time": 9.5977273,
                "pitch": 42,
                "velocity": 51,
                "duration": 0.3840909,
                "tempo": 120.0
            },
            {
                "start_time": 9.6136364,
                "end_time": 10.2,
                "pitch": 30,
                "velocity": 51,
                "duration": 0.5863636,
                "tempo": 120.0
            },
            {
                "start_time": 10.2181818,
                "end_time": 10.6045455,
                "pitch": 42,
                "velocity": 51,
                "duration": 0.3863636,
                "tempo": 120.0
            },
            {
                "start_time": 10.6204545,
                "end_time": 10.7045455,
                "pitch": 35,
                "velocity": 51,
                "duration": 0.0840909,
                "tempo": 120.0
            },
            {
                "start_time": 10.7204545,
                "end_time": 10.8045455,
                "pitch": 36,
                "velocity": 51,
                "duration": 0.0840909,
                "tempo": 120.0
            },
            {
                "start_time": 10.8227273,
                "end_time": 11.0068182,
                "pitch": 37,
                "velocity": 51,
                "duration": 0.1840909,
                "tempo": 120.0
            },
            {
                "start_time": 11.0227273,
                "end_time": 11.4136364,
                "pitch": 40,
                "velocity": 51,
                "duration": 0.3909091,
                "tempo": 120.0
            },
            {
                "start_time": 11.4295455,
                "end_time": 11.6181818,
                "pitch": 42,
                "velocity": 51,
                "duration": 0.1886364,
                "tempo": 120.0
            },
            {
                "start_time": 11.6340909,
                "end_time": 11.7159091,
                "pitch": 45,
                "velocity": 51,
                "duration": 0.0818182,
                "tempo": 120.0
            },
            {
                "start_time": 11.7340909,
                "end_time": 11.8159091,
                "pitch": 47,
                "velocity": 51,
                "duration": 0.0818182,
                "tempo": 120.0
            },
            {
                "start_time": 11.8318182,
                "end_time": 12.4136364,
                "pitch": 31,
                "velocity": 51,
                "duration": 0.5818182,
                "tempo": 120.0
            },
            {
                "start_time": 12.4295455,
                "end_time": 12.8159091,
                "pitch": 42,
                "velocity": 51,
                "duration": 0.3863636,
                "tempo": 120.0
            },
            {
                "start_time": 12.8318182,
                "end_time": 13.0181818,
                "pitch": 36,
                "velocity": 51,
                "duration": 0.1863636,
                "tempo": 120.0
            },
            {
                "start_time": 13.0340909,
                "end_time": 13.2181818,
                "pitch": 36,
                "velocity": 51,
                "duration": 0.1840909,
                "tempo": 120.0
            },
            {
                "start_time": 13.2363636,
                "end_time": 13.4181818,
                "pitch": 36,
                "velocity": 51,
                "duration": 0.1818182,
                "tempo": 120.0
            },
            {
                "start_time": 13.4363636,
                "end_time": 13.5181818,
                "pitch": 43,
                "velocity": 51,
                "duration": 0.0818182,
                "tempo": 120.0
            },
            {
                "start_time": 13.5363636,
                "end_time": 13.8204545,
                "pitch": 36,
                "velocity": 51,
                "duration": 0.2840909,
                "tempo": 120.0
            },
            {
                "start_time": 13.8363636,
                "end_time": 14.0204545,
                "pitch": 38,
                "velocity": 51,
                "duration": 0.1840909,
                "tempo": 120.0
            },
            {
                "start_time": 14.0386364,
                "end_time": 14.2227273,
                "pitch": 31,
                "velocity": 51,
                "duration": 0.1840909,
                "tempo": 120.0
            },
            {
                "start_time": 14.2386364,
                "end_time": 14.3227273,
                "pitch": 33,
                "velocity": 51,
                "duration": 0.0840909,
                "tempo": 120.0
            },
            {
                "start_time": 14.3409091,
                "end_time": 14.8272727,
                "pitch": 36,
                "velocity": 51,
                "duration": 0.4863636,
                "tempo": 120.0
            },
            {
                "start_time": 14.8431818,
                "end_time": 15.0272727,
                "pitch": 40,
                "velocity": 51,
                "duration": 0.1840909,
                "tempo": 120.0
            },
            {
                "start_time": 15.0454545,
                "end_time": 15.1295455,
                "pitch": 43,
                "velocity": 51,
                "duration": 0.0840909,
                "tempo": 120.0
            },
            {
                "start_time": 15.1454545,
                "end_time": 15.4295455,
                "pitch": 36,
                "velocity": 51,
                "duration": 0.2840909,
                "tempo": 120.0
            },
            {
                "start_time": 15.4454545,
                "end_time": 15.6295455,
                "pitch": 38,
                "velocity": 51,
                "duration": 0.1840909,
                "tempo": 120.0
            },
            {
                "start_time": 15.6454545,
                "end_time": 16.0318182,
                "pitch": 31,
                "velocity": 51,
                "duration": 0.3863636,
                "tempo": 120.0
            },
            {
                "start_time": 16.05,
                "end_time": 16.4340909,
                "pitch": 33,
                "velocity": 51,
                "duration": 0.3840909,
                "tempo": 120.0
            },
            {
                "start_time": 16.4522727,
                "end_time": 16.6340909,
                "pitch": 33,
                "velocity": 51,
                "duration": 0.1818182,
                "tempo": 120.0
            },
            {
                "start_time": 16.6522727,
                "end_time": 16.7340909,
                "pitch": 40,
                "velocity": 51,
                "duration": 0.0818182,
                "tempo": 120.0
            },
            {
                "start_time": 16.7522727,
                "end_time": 17.0363636,
                "pitch": 33,
                "velocity": 51,
                "duration": 0.2840909,
                "tempo": 120.0
            },
            {
                "start_time": 17.0522727,
                "end_time": 17.2363636,
                "pitch": 33,
                "velocity": 51,
                "duration": 0.1840909,
                "tempo": 120.0
            },
            {
                "start_time": 17.2545455,
                "end_time": 17.4386364,
                "pitch": 38,
                "velocity": 51,
                "duration": 0.1840909,
                "tempo": 120.0
            },
            {
                "start_time": 17.4545455,
                "end_time": 17.6386364,
                "pitch": 40,
                "velocity": 51,
                "duration": 0.1840909,
                "tempo": 120.0
            },
            {
                "start_time": 17.6545455,
                "end_time": 18.0409091,
                "pitch": 38,
                "velocity": 51,
                "duration": 0.3863636,
                "tempo": 120.0
            },
            {
                "start_time": 18.0568182,
                "end_time": 18.1409091,
                "pitch": 38,
                "velocity": 51,
                "duration": 0.0840909,
                "tempo": 120.0
            },
            {
                "start_time": 18.1568182,
                "end_time": 18.2409091,
                "pitch": 43,
                "velocity": 51,
                "duration": 0.0840909,
                "tempo": 120.0
            },
            {
                "start_time": 18.2568182,
                "end_time": 18.3409091,
                "pitch": 45,
                "velocity": 51,
                "duration": 0.0840909,
                "tempo": 120.0
            },
            {
                "start_time": 18.3568182,
                "end_time": 19.2431818,
                "pitch": 38,
                "velocity": 51,
                "duration": 0.8863636,
                "tempo": 120.0
            },
            {
                "start_time": 19.2590909,
                "end_time": 19.4431818,
                "pitch": 35,
                "velocity": 51,
                "duration": 0.1840909,
                "tempo": 120.0
            },
            {
                "start_time": 19.4590909,
                "end_time": 19.6431818,
                "pitch": 35,
                "velocity": 51,
                "duration": 0.1840909,
                "tempo": 120.0
            },
            {
                "start_time": 19.6590909,
                "end_time": 19.8431818,
                "pitch": 52,
                "velocity": 51,
                "duration": 0.1840909,
                "tempo": 120.0
            },
            {
                "start_time": 19.8613636,
                "end_time": 20.0454545,
                "pitch": 35,
                "velocity": 51,
                "duration": 0.1840909,
                "tempo": 120.0
            },
            {
                "start_time": 20.0613636,
                "end_time": 20.2454545,
                "pitch": 35,
                "velocity": 51,
                "duration": 0.1840909,
                "tempo": 120.0
            },
            {
                "start_time": 20.2613636,
                "end_time": 20.4454545,
                "pitch": 35,
                "velocity": 51,
                "duration": 0.1840909,
                "tempo": 120.0
            },
            {
                "start_time": 20.4613636,
                "end_time": 20.6454545,
                "pitch": 39,
                "velocity": 51,
                "duration": 0.1840909,
                "tempo": 120.0
            },
            {
                "start_time": 20.6613636,
                "end_time": 20.7454545,
                "pitch": 35,
                "velocity": 51,
                "duration": 0.0840909,
                "tempo": 120.0
            },
            {
                "start_time": 20.7613636,
                "end_time": 21.0477273,
                "pitch": 40,
                "velocity": 51,
                "duration": 0.2863636,
                "tempo": 120.0
            },
            {
                "start_time": 21.0636364,
                "end_time": 21.2477273,
                "pitch": 35,
                "velocity": 51,
                "duration": 0.1840909,
                "tempo": 120.0
            },
            {
                "start_time": 21.2659091,
                "end_time": 21.4477273,
                "pitch": 42,
                "velocity": 51,
                "duration": 0.1818182,
                "tempo": 120.0
            },
            {
                "start_time": 21.4659091,
                "end_time": 21.6477273,
                "pitch": 35,
                "velocity": 51,
                "duration": 0.1818182,
                "tempo": 120.0
            },
            {
                "start_time": 21.6659091,
                "end_time": 21.85,
                "pitch": 40,
                "velocity": 51,
                "duration": 0.1840909,
                "tempo": 120.0
            },
            {
                "start_time": 21.8659091,
                "end_time": 22.05,
                "pitch": 35,
                "velocity": 51,
                "duration": 0.1840909,
                "tempo": 120.0
            },
            {
                "start_time": 22.0681818,
                "end_time": 22.2181818,
                "pitch": 42,
                "velocity": 51,
                "duration": 0.15,
                "tempo": 120.0
            },
            {
                "start_time": 22.2340909,
                "end_time": 22.35,
                "pitch": 35,
                "velocity": 51,
                "duration": 0.1159091,
                "tempo": 120.0
            },
            {
                "start_time": 22.3681818,
                "end_time": 22.45,
                "pitch": 36,
                "velocity": 51,
                "duration": 0.0818182,
                "tempo": 120.0
            },
            {
                "start_time": 22.4681818,
                "end_time": 22.65,
                "pitch": 37,
                "velocity": 51,
                "duration": 0.1818182,
                "tempo": 120.0
            },
            {
                "start_time": 22.6681818,
                "end_time": 22.85,
                "pitch": 37,
                "velocity": 51,
                "duration": 0.1818182,
                "tempo": 120.0
            },
            {
                "start_time": 22.8681818,
                "end_time": 23.0522727,
                "pitch": 44,
                "velocity": 51,
                "duration": 0.1840909,
                "tempo": 120.0
            },
            {
                "start_time": 23.0681818,
                "end_time": 23.1522727,
                "pitch": 37,
                "velocity": 51,
                "duration": 0.0840909,
                "tempo": 120.0
            },
            {
                "start_time": 23.1704545,
                "end_time": 23.4545455,
                "pitch": 42,
                "velocity": 51,
                "duration": 0.2840909,
                "tempo": 120.0
            },
            {
                "start_time": 23.4704545,
                "end_time": 23.6545455,
                "pitch": 44,
                "velocity": 51,
                "duration": 0.1840909,
                "tempo": 120.0
            },
            {
                "start_time": 23.6704545,
                "end_time": 23.8545455,
                "pitch": 43,
                "velocity": 51,
                "duration": 0.1840909,
                "tempo": 120.0
            },
            {
                "start_time": 23.8727273,
                "end_time": 24.0568182,
                "pitch": 42,
                "velocity": 51,
                "duration": 0.1840909,
                "tempo": 120.0
            },
            {
                "start_time": 24.0727273,
                "end_time": 24.1568182,
                "pitch": 44,
                "velocity": 51,
                "duration": 0.0840909,
                "tempo": 120.0
            },
            {
                "start_time": 24.1727273,
                "end_time": 24.4568182,
                "pitch": 44,
                "velocity": 51,
                "duration": 0.2840909,
                "tempo": 120.0
            },
            {
                "start_time": 24.4727273,
                "end_time": 24.6568182,
                "pitch": 37,
                "velocity": 51,
                "duration": 0.1840909,
                "tempo": 120.0
            },
            {
                "start_time": 24.6727273,
                "end_time": 25.6590909,
                "pitch": 37,
                "velocity": 51,
                "duration": 0.9863636,
                "tempo": 120.0
            },
            {
                "start_time": 25.675,
                "end_time": 26.2613636,
                "pitch": 30,
                "velocity": 51,
                "duration": 0.5863636,
                "tempo": 120.0
            },
            {
                "start_time": 26.2795455,
                "end_time": 26.6613636,
                "pitch": 42,
                "velocity": 51,
                "duration": 0.3818182,
                "tempo": 120.0
            },
            {
                "start_time": 26.6795455,
                "end_time": 26.7613636,
                "pitch": 35,
                "velocity": 51,
                "duration": 0.0818182,
                "tempo": 120.0
            },
            {
                "start_time": 26.7795455,
                "end_time": 26.8613636,
                "pitch": 36,
                "velocity": 51,
                "duration": 0.0818182,
                "tempo": 120.0
            },
            {
                "start_time": 26.8795455,
                "end_time": 27.0636364,
                "pitch": 37,
                "velocity": 51,
                "duration": 0.1840909,
                "tempo": 120.0
            },
            {
                "start_time": 27.0795455,
                "end_time": 27.4636364,
                "pitch": 40,
                "velocity": 51,
                "duration": 0.3840909,
                "tempo": 120.0
            },
            {
                "start_time": 27.4818182,
                "end_time": 27.6636364,
                "pitch": 42,
                "velocity": 51,
                "duration": 0.1818182,
                "tempo": 120.0
            },
            {
                "start_time": 27.6818182,
                "end_time": 27.7659091,
                "pitch": 45,
                "velocity": 51,
                "duration": 0.0840909,
                "tempo": 120.0
            },
            {
                "start_time": 27.7818182,
                "end_time": 27.8659091,
                "pitch": 47,
                "velocity": 51,
                "duration": 0.0840909,
                "tempo": 120.0
            },
            {
                "start_time": 27.8818182,
                "end_time": 28.4681818,
                "pitch": 31,
                "velocity": 51,
                "duration": 0.5863636,
                "tempo": 120.0
            },
            {
                "start_time": 28.4840909,
                "end_time": 28.8681818,
                "pitch": 42,
                "velocity": 51,
                "duration": 0.3840909,
                "tempo": 120.0
            },
            {
                "start_time": 28.8840909,
                "end_time": 29.4704545,
                "pitch": 30,
                "velocity": 51,
                "duration": 0.5863636,
                "tempo": 120.0
            },
            {
                "start_time": 29.4863636,
                "end_time": 29.8704545,
                "pitch": 42,
                "velocity": 51,
                "duration": 0.3840909,
                "tempo": 120.0
            },
            {
                "start_time": 29.8886364,
                "end_time": 29.9727273,
                "pitch": 35,
                "velocity": 51,
                "duration": 0.0840909,
                "tempo": 120.0
            },
            {
                "start_time": 29.9886364,
                "end_time": 30.0727273,
                "pitch": 36,
                "velocity": 51,
                "duration": 0.0840909,
                "tempo": 120.0
            },
            {
                "start_time": 30.0886364,
                "end_time": 30.2727273,
                "pitch": 37,
                "velocity": 51,
                "duration": 0.1840909,
                "tempo": 120.0
            },
            {
                "start_time": 30.2886364,
                "end_time": 30.6727273,
                "pitch": 40,
                "velocity": 51,
                "duration": 0.3840909,
                "tempo": 120.0
            },
            {
                "start_time": 30.6886364,
                "end_time": 30.8727273,
                "pitch": 42,
                "velocity": 51,
                "duration": 0.1840909,
                "tempo": 120.0
            },
            {
                "start_time": 30.8886364,
                "end_time": 30.9727273,
                "pitch": 45,
                "velocity": 51,
                "duration": 0.0840909,
                "tempo": 120.0
            },
            {
                "start_time": 30.9909091,
                "end_time": 31.0727273,
                "pitch": 47,
                "velocity": 51,
                "duration": 0.0818182,
                "tempo": 120.0
            },
            {
                "start_time": 31.0909091,
                "end_time": 31.675,
                "pitch": 31,
                "velocity": 51,
                "duration": 0.5840909,
                "tempo": 120.0
            },
            {
                "start_time": 31.6909091,
                "end_time": 32.0772727,
                "pitch": 42,
                "velocity": 51,
                "duration": 0.3863636,
                "tempo": 120.0
            },
            {
                "start_time": 32.0954545,
                "end_time": 32.6840909,
                "pitch": 30,
                "velocity": 51,
                "duration": 0.5886364,
                "tempo": 120.0
            },
            {
                "start_time": 32.7022727,
                "end_time": 33.0818182,
                "pitch": 42,
                "velocity": 51,
                "duration": 0.3795455,
                "tempo": 120.0
            },
            {
                "start_time": 33.0977273,
                "end_time": 33.1818182,
                "pitch": 35,
                "velocity": 51,
                "duration": 0.0840909,
                "tempo": 120.0
            },
            {
                "start_time": 33.1977273,
                "end_time": 33.2818182,
                "pitch": 36,
                "velocity": 51,
                "duration": 0.0840909,
                "tempo": 120.0
            },
            {
                "start_time": 33.2977273,
                "end_time": 33.4818182,
                "pitch": 37,
                "velocity": 51,
                "duration": 0.1840909,
                "tempo": 120.0
            },
            {
                "start_time": 33.4977273,
                "end_time": 33.8840909,
                "pitch": 40,
                "velocity": 51,
                "duration": 0.3863636,
                "tempo": 120.0
            },
            {
                "start_time": 33.9,
                "end_time": 34.0840909,
                "pitch": 42,
                "velocity": 51,
                "duration": 0.1840909,
                "tempo": 120.0
            },
            {
                "start_time": 34.1,
                "end_time": 34.1840909,
                "pitch": 45,
                "velocity": 51,
                "duration": 0.0840909,
                "tempo": 120.0
            },
            {
                "start_time": 34.2,
                "end_time": 34.2840909,
                "pitch": 47,
                "velocity": 51,
                "duration": 0.0840909,
                "tempo": 120.0
            },
            {
                "start_time": 34.3,
                "end_time": 34.8840909,
                "pitch": 31,
                "velocity": 51,
                "duration": 0.5840909,
                "tempo": 120.0
            },
            {
                "start_time": 34.9,
                "end_time": 35.2840909,
                "pitch": 42,
                "velocity": 51,
                "duration": 0.3840909,
                "tempo": 120.0
            },
            {
                "start_time": 35.3,
                "end_time": 35.8863636,
                "pitch": 30,
                "velocity": 51,
                "duration": 0.5863636,
                "tempo": 120.0
            },
            {
                "start_time": 35.9022727,
                "end_time": 36.2863636,
                "pitch": 42,
                "velocity": 51,
                "duration": 0.3840909,
                "tempo": 120.0
            },
            {
                "start_time": 36.3022727,
                "end_time": 36.3863636,
                "pitch": 35,
                "velocity": 51,
                "duration": 0.0840909,
                "tempo": 120.0
            },
            {
                "start_time": 36.4022727,
                "end_time": 36.4863636,
                "pitch": 36,
                "velocity": 51,
                "duration": 0.0840909,
                "tempo": 120.0
            },
            {
                "start_time": 36.5022727,
                "end_time": 36.6863636,
                "pitch": 37,
                "velocity": 51,
                "duration": 0.1840909,
                "tempo": 120.0
            },
            {
                "start_time": 36.7022727,
                "end_time": 37.0863636,
                "pitch": 40,
                "velocity": 51,
                "duration": 0.3840909,
                "tempo": 120.0
            },
            {
                "start_time": 37.1022727,
                "end_time": 37.2863636,
                "pitch": 42,
                "velocity": 51,
                "duration": 0.1840909,
                "tempo": 120.0
            },
            {
                "start_time": 37.3022727,
                "end_time": 37.3863636,
                "pitch": 45,
                "velocity": 51,
                "duration": 0.0840909,
                "tempo": 120.0
            },
            {
                "start_time": 37.4045455,
                "end_time": 37.4863636,
                "pitch": 47,
                "velocity": 51,
                "duration": 0.0818182,
                "tempo": 120.0
            },
            {
                "start_time": 37.5045455,
                "end_time": 38.0886364,
                "pitch": 31,
                "velocity": 51,
                "duration": 0.5840909,
                "tempo": 120.0
            },
            {
                "start_time": 38.1045455,
                "end_time": 38.4886364,
                "pitch": 42,
                "velocity": 51,
                "duration": 0.3840909,
                "tempo": 120.0
            },
            {
                "start_time": 38.5045455,
                "end_time": 38.6886364,
                "pitch": 36,
                "velocity": 51,
                "duration": 0.1840909,
                "tempo": 120.0
            },
            {
                "start_time": 38.7045455,
                "end_time": 38.8886364,
                "pitch": 36,
                "velocity": 51,
                "duration": 0.1840909,
                "tempo": 120.0
            },
            {
                "start_time": 38.9045455,
                "end_time": 39.0886364,
                "pitch": 36,
                "velocity": 51,
                "duration": 0.1840909,
                "tempo": 120.0
            },
            {
                "start_time": 39.1045455,
                "end_time": 39.1886364,
                "pitch": 43,
                "velocity": 51,
                "duration": 0.0840909,
                "tempo": 120.0
            },
            {
                "start_time": 39.2045455,
                "end_time": 39.4909091,
                "pitch": 36,
                "velocity": 51,
                "duration": 0.2863636,
                "tempo": 120.0
            },
            {
                "start_time": 39.5068182,
                "end_time": 39.6909091,
                "pitch": 38,
                "velocity": 51,
                "duration": 0.1840909,
                "tempo": 120.0
            },
            {
                "start_time": 39.7090909,
                "end_time": 39.8909091,
                "pitch": 31,
                "velocity": 51,
                "duration": 0.1818182,
                "tempo": 120.0
            },
            {
                "start_time": 39.9090909,
                "end_time": 39.9909091,
                "pitch": 33,
                "velocity": 51,
                "duration": 0.0818182,
                "tempo": 120.0
            },
            {
                "start_time": 40.0090909,
                "end_time": 40.4909091,
                "pitch": 36,
                "velocity": 51,
                "duration": 0.4818182,
                "tempo": 120.0
            },
            {
                "start_time": 40.5090909,
                "end_time": 40.6909091,
                "pitch": 40,
                "velocity": 51,
                "duration": 0.1818182,
                "tempo": 120.0
            },
            {
                "start_time": 40.7090909,
                "end_time": 40.7909091,
                "pitch": 43,
                "velocity": 51,
                "duration": 0.0818182,
                "tempo": 120.0
            },
            {
                "start_time": 40.8090909,
                "end_time": 41.0909091,
                "pitch": 36,
                "velocity": 51,
                "duration": 0.2818182,
                "tempo": 120.0
            },
            {
                "start_time": 41.1090909,
                "end_time": 41.2909091,
                "pitch": 38,
                "velocity": 51,
                "duration": 0.1818182,
                "tempo": 120.0
            },
            {
                "start_time": 41.3090909,
                "end_time": 41.6931818,
                "pitch": 31,
                "velocity": 51,
                "duration": 0.3840909,
                "tempo": 120.0
            },
            {
                "start_time": 41.7113636,
                "end_time": 42.0931818,
                "pitch": 33,
                "velocity": 51,
                "duration": 0.3818182,
                "tempo": 120.0
            },
            {
                "start_time": 42.1113636,
                "end_time": 42.2931818,
                "pitch": 33,
                "velocity": 51,
                "duration": 0.1818182,
                "tempo": 120.0
            },
            {
                "start_time": 42.3113636,
                "end_time": 42.3931818,
                "pitch": 40,
                "velocity": 51,
                "duration": 0.0818182,
                "tempo": 120.0
            },
            {
                "start_time": 42.4113636,
                "end_time": 42.6931818,
                "pitch": 33,
                "velocity": 51,
                "duration": 0.2818182,
                "tempo": 120.0
            },
            {
                "start_time": 42.7113636,
                "end_time": 42.8931818,
                "pitch": 33,
                "velocity": 51,
                "duration": 0.1818182,
                "tempo": 120.0
            },
            {
                "start_time": 42.9113636,
                "end_time": 43.0931818,
                "pitch": 38,
                "velocity": 51,
                "duration": 0.1818182,
                "tempo": 120.0
            },
            {
                "start_time": 43.1113636,
                "end_time": 43.2931818,
                "pitch": 40,
                "velocity": 51,
                "duration": 0.1818182,
                "tempo": 120.0
            },
            {
                "start_time": 43.3113636,
                "end_time": 43.6977273,
                "pitch": 38,
                "velocity": 51,
                "duration": 0.3863636,
                "tempo": 120.0
            },
            {
                "start_time": 43.7136364,
                "end_time": 43.7977273,
                "pitch": 38,
                "velocity": 51,
                "duration": 0.0840909,
                "tempo": 120.0
            },
            {
                "start_time": 43.8136364,
                "end_time": 43.8977273,
                "pitch": 43,
                "velocity": 51,
                "duration": 0.0840909,
                "tempo": 120.0
            },
            {
                "start_time": 43.9136364,
                "end_time": 43.9977273,
                "pitch": 45,
                "velocity": 51,
                "duration": 0.0840909,
                "tempo": 120.0
            },
            {
                "start_time": 44.0136364,
                "end_time": 44.8977273,
                "pitch": 38,
                "velocity": 51,
                "duration": 0.8840909,
                "tempo": 120.0
            },
            {
                "start_time": 44.9136364,
                "end_time": 45.1022727,
                "pitch": 35,
                "velocity": 51,
                "duration": 0.1886364,
                "tempo": 120.0
            },
            {
                "start_time": 45.1181818,
                "end_time": 45.3068182,
                "pitch": 35,
                "velocity": 51,
                "duration": 0.1886364,
                "tempo": 120.0
            },
            {
                "start_time": 45.325,
                "end_time": 45.5045455,
                "pitch": 52,
                "velocity": 51,
                "duration": 0.1795455,
                "tempo": 120.0
            },
            {
                "start_time": 45.5204545,
                "end_time": 45.7,
                "pitch": 35,
                "velocity": 51,
                "duration": 0.1795455,
                "tempo": 120.0
            },
            {
                "start_time": 45.7159091,
                "end_time": 45.9,
                "pitch": 35,
                "velocity": 51,
                "duration": 0.1840909,
                "tempo": 120.0
            },
            {
                "start_time": 45.9159091,
                "end_time": 46.1,
                "pitch": 35,
                "velocity": 51,
                "duration": 0.1840909,
                "tempo": 120.0
            },
            {
                "start_time": 46.1159091,
                "end_time": 46.3,
                "pitch": 39,
                "velocity": 51,
                "duration": 0.1840909,
                "tempo": 120.0
            },
            {
                "start_time": 46.3159091,
                "end_time": 46.4,
                "pitch": 35,
                "velocity": 51,
                "duration": 0.0840909,
                "tempo": 120.0
            },
            {
                "start_time": 46.4159091,
                "end_time": 46.7,
                "pitch": 40,
                "velocity": 51,
                "duration": 0.2840909,
                "tempo": 120.0
            },
            {
                "start_time": 46.7159091,
                "end_time": 46.9,
                "pitch": 35,
                "velocity": 51,
                "duration": 0.1840909,
                "tempo": 120.0
            },
            {
                "start_time": 46.9159091,
                "end_time": 47.1,
                "pitch": 42,
                "velocity": 51,
                "duration": 0.1840909,
                "tempo": 120.0
            },
            {
                "start_time": 47.1159091,
                "end_time": 47.3,
                "pitch": 35,
                "velocity": 51,
                "duration": 0.1840909,
                "tempo": 120.0
            },
            {
                "start_time": 47.3159091,
                "end_time": 47.5,
                "pitch": 40,
                "velocity": 51,
                "duration": 0.1840909,
                "tempo": 120.0
            },
            {
                "start_time": 47.5181818,
                "end_time": 47.7022727,
                "pitch": 35,
                "velocity": 51,
                "duration": 0.1840909,
                "tempo": 120.0
            },
            {
                "start_time": 47.7181818,
                "end_time": 47.8681818,
                "pitch": 42,
                "velocity": 51,
                "duration": 0.15,
                "tempo": 120.0
            },
            {
                "start_time": 47.8863636,
                "end_time": 48.0022727,
                "pitch": 35,
                "velocity": 51,
                "duration": 0.1159091,
                "tempo": 120.0
            },
            {
                "start_time": 48.0181818,
                "end_time": 48.1022727,
                "pitch": 36,
                "velocity": 51,
                "duration": 0.0840909,
                "tempo": 120.0
            },
            {
                "start_time": 48.1181818,
                "end_time": 48.3022727,
                "pitch": 37,
                "velocity": 51,
                "duration": 0.1840909,
                "tempo": 120.0
            },
            {
                "start_time": 48.3181818,
                "end_time": 48.5022727,
                "pitch": 37,
                "velocity": 51,
                "duration": 0.1840909,
                "tempo": 120.0
            },
            {
                "start_time": 48.5181818,
                "end_time": 48.7022727,
                "pitch": 44,
                "velocity": 51,
                "duration": 0.1840909,
                "tempo": 120.0
            },
            {
                "start_time": 48.7181818,
                "end_time": 48.8022727,
                "pitch": 37,
                "velocity": 51,
                "duration": 0.0840909,
                "tempo": 120.0
            },
            {
                "start_time": 48.8181818,
                "end_time": 49.1022727,
                "pitch": 42,
                "velocity": 51,
                "duration": 0.2840909,
                "tempo": 120.0
            },
            {
                "start_time": 49.1181818,
                "end_time": 49.3022727,
                "pitch": 44,
                "velocity": 51,
                "duration": 0.1840909,
                "tempo": 120.0
            },
            {
                "start_time": 49.3181818,
                "end_time": 49.5045455,
                "pitch": 43,
                "velocity": 51,
                "duration": 0.1863636,
                "tempo": 120.0
            },
            {
                "start_time": 49.5204545,
                "end_time": 49.7045455,
                "pitch": 42,
                "velocity": 51,
                "duration": 0.1840909,
                "tempo": 120.0
            },
            {
                "start_time": 49.7227273,
                "end_time": 49.8045455,
                "pitch": 44,
                "velocity": 51,
                "duration": 0.0818182,
                "tempo": 120.0
            },
            {
                "start_time": 49.8227273,
                "end_time": 50.1045455,
                "pitch": 44,
                "velocity": 51,
                "duration": 0.2818182,
                "tempo": 120.0
            },
            {
                "start_time": 50.1227273,
                "end_time": 50.3045455,
                "pitch": 37,
                "velocity": 51,
                "duration": 0.1818182,
                "tempo": 120.0
            },
            {
                "start_time": 50.3227273,
                "end_time": 51.3159091,
                "pitch": 37,
                "velocity": 51,
                "duration": 0.9931818,
                "tempo": 120.0
            }
        ],
        "Trumpet": [
            {
                "start_time": 0.0295455,
                "end_time": 0.2136364,
                "pitch": 54,
                "velocity": 51,
                "duration": 0.1840909,
                "tempo": 120.0
            },
            {
                "start_time": 0.2295455,
                "end_time": 0.4136364,
                "pitch": 54,
                "velocity": 51,
                "duration": 0.1840909,
                "tempo": 120.0
            },
            {
                "start_time": 0.4295455,
                "end_time": 0.6090909,
                "pitch": 54,
                "velocity": 51,
                "duration": 0.1795455,
                "tempo": 120.0
            },
            {
                "start_time": 0.625,
                "end_time": 0.8068182,
                "pitch": 54,
                "velocity": 51,
                "duration": 0.1818182,
                "tempo": 120.0
            },
            {
                "start_time": 0.8227273,
                "end_time": 1.0068182,
                "pitch": 54,
                "velocity": 51,
                "duration": 0.1840909,
                "tempo": 120.0
            },
            {
                "start_time": 1.0227273,
                "end_time": 1.2068182,
                "pitch": 54,
                "velocity": 51,
                "duration": 0.1840909,
                "tempo": 120.0
            },
            {
                "start_time": 1.2227273,
                "end_time": 1.4068182,
                "pitch": 54,
                "velocity": 51,
                "duration": 0.1840909,
                "tempo": 120.0
            },
            {
                "start_time": 1.4227273,
                "end_time": 1.5068182,
                "pitch": 57,
                "velocity": 51,
                "duration": 0.0840909,
                "tempo": 120.0
            },
            {
                "start_time": 1.5227273,
                "end_time": 1.6068182,
                "pitch": 59,
                "velocity": 51,
                "duration": 0.0840909,
                "tempo": 120.0
            },
            {
                "start_time": 1.6227273,
                "end_time": 1.8068182,
                "pitch": 54,
                "velocity": 51,
                "duration": 0.1840909,
                "tempo": 120.0
            },
            {
                "start_time": 1.825,
                "end_time": 2.0090909,
                "pitch": 54,
                "velocity": 51,
                "duration": 0.1840909,
                "tempo": 120.0
            },
            {
                "start_time": 2.025,
                "end_time": 2.2090909,
                "pitch": 54,
                "velocity": 51,
                "duration": 0.1840909,
                "tempo": 120.0
            },
            {
                "start_time": 2.225,
                "end_time": 2.3090909,
                "pitch": 55,
                "velocity": 51,
                "duration": 0.0840909,
                "tempo": 120.0
            },
            {
                "start_time": 2.325,
                "end_time": 2.6090909,
                "pitch": 55,
                "velocity": 51,
                "duration": 0.2840909,
                "tempo": 120.0
            },
            {
                "start_time": 2.625,
                "end_time": 2.8090909,
                "pitch": 55,
                "velocity": 51,
                "duration": 0.1840909,
                "tempo": 120.0
            },
            {
                "start_time": 2.825,
                "end_time": 3.0090909,
                "pitch": 57,
                "velocity": 51,
                "duration": 0.1840909,
                "tempo": 120.0
            },
            {
                "start_time": 3.025,
                "end_time": 3.2090909,
                "pitch": 59,
                "velocity": 51,
                "duration": 0.1840909,
                "tempo": 120.0
            },
            {
                "start_time": 3.225,
                "end_time": 3.4090909,
                "pitch": 54,
                "velocity": 51,
                "duration": 0.1840909,
                "tempo": 120.0
            },
            {
                "start_time": 3.4272727,
                "end_time": 3.6113636,
                "pitch": 54,
                "velocity": 51,
                "duration": 0.1840909,
                "tempo": 120.0
            },
            {
                "start_time": 3.6272727,
                "end_time": 3.8113636,
                "pitch": 54,
                "velocity": 51,
                "duration": 0.1840909,
                "tempo": 120.0
            },
            {
                "start_time": 3.8272727,
                "end_time": 4.0113636,
                "pitch": 54,
                "velocity": 51,
                "duration": 0.1840909,
                "tempo": 120.0
            },
            {
                "start_time": 4.0272727,
                "end_time": 4.2113636,
                "pitch": 54,
                "velocity": 51,
                "duration": 0.1840909,
                "tempo": 120.0
            },
            {
                "start_time": 4.2272727,
                "end_time": 4.4113636,
                "pitch": 54,
                "velocity": 51,
                "duration": 0.1840909,
                "tempo": 120.0
            },
            {
                "start_time": 4.4272727,
                "end_time": 4.6136364,
                "pitch": 54,
                "velocity": 51,
                "duration": 0.1863636,
                "tempo": 120.0
            },
            {
                "start_time": 4.6295455,
                "end_time": 4.7136364,
                "pitch": 57,
                "velocity": 51,
                "duration": 0.0840909,
                "tempo": 120.0
            },
            {
                "start_time": 4.7295455,
                "end_time": 4.8136364,
                "pitch": 59,
                "velocity": 51,
                "duration": 0.0840909,
                "tempo": 120.0
            },
            {
                "start_time": 4.8295455,
                "end_time": 5.0136364,
                "pitch": 54,
                "velocity": 51,
                "duration": 0.1840909,
                "tempo": 120.0
            },
            {
                "start_time": 5.0295455,
                "end_time": 5.2136364,
                "pitch": 54,
                "velocity": 51,
                "duration": 0.1840909,
                "tempo": 120.0
            },
            {
                "start_time": 5.2318182,
                "end_time": 5.4159091,
                "pitch": 54,
                "velocity": 51,
                "duration": 0.1840909,
                "tempo": 120.0
            },
            {
                "start_time": 5.4318182,
                "end_time": 5.5159091,
                "pitch": 55,
                "velocity": 51,
                "duration": 0.0840909,
                "tempo": 120.0
            },
            {
                "start_time": 5.5318182,
                "end_time": 5.8159091,
                "pitch": 55,
                "velocity": 51,
                "duration": 0.2840909,
                "tempo": 120.0
            },
            {
                "start_time": 5.8340909,
                "end_time": 6.0159091,
                "pitch": 55,
                "velocity": 51,
                "duration": 0.1818182,
                "tempo": 120.0
            },
            {
                "start_time": 6.0340909,
                "end_time": 6.2181818,
                "pitch": 57,
                "velocity": 51,
                "duration": 0.1840909,
                "tempo": 120.0
            },
            {
                "start_time": 6.2340909,
                "end_time": 6.4204545,
                "pitch": 59,
                "velocity": 51,
                "duration": 0.1863636,
                "tempo": 120.0
            },
            {
                "start_time": 6.4363636,
                "end_time": 6.625,
                "pitch": 54,
                "velocity": 51,
                "duration": 0.1886364,
                "tempo": 120.0
            },
            {
                "start_time": 6.6431818,
                "end_time": 6.8295455,
                "pitch": 54,
                "velocity": 51,
                "duration": 0.1863636,
                "tempo": 120.0
            },
            {
                "start_time": 6.8454545,
                "end_time": 7.025,
                "pitch": 54,
                "velocity": 51,
                "duration": 0.1795455,
                "tempo": 120.0
            },
            {
                "start_time": 7.0431818,
                "end_time": 7.2227273,
                "pitch": 54,
                "velocity": 51,
                "duration": 0.1795455,
                "tempo": 120.0
            },
            {
                "start_time": 7.2386364,
                "end_time": 7.4227273,
                "pitch": 54,
                "velocity": 51,
                "duration": 0.1840909,
                "tempo": 120.0
            },
            {
                "start_time": 7.4409091,
                "end_time": 7.625,
                "pitch": 54,
                "velocity": 51,
                "duration": 0.1840909,
                "tempo": 120.0
            },
            {
                "start_time": 7.6409091,
                "end_time": 7.825,
                "pitch": 54,
                "velocity": 51,
                "duration": 0.1840909,
                "tempo": 120.0
            },
            {
                "start_time": 7.8409091,
                "end_time": 7.925,
                "pitch": 57,
                "velocity": 51,
                "duration": 0.0840909,
                "tempo": 120.0
            },
            {
                "start_time": 7.9409091,
                "end_time": 8.025,
                "pitch": 59,
                "velocity": 51,
                "duration": 0.0840909,
                "tempo": 120.0
            },
            {
                "start_time": 8.0431818,
                "end_time": 8.2295455,
                "pitch": 54,
                "velocity": 51,
                "duration": 0.1863636,
                "tempo": 120.0
            },
            {
                "start_time": 8.2477273,
                "end_time": 8.4363636,
                "pitch": 54,
                "velocity": 51,
                "duration": 0.1886364,
                "tempo": 120.0
            },
            {
                "start_time": 8.4522727,
                "end_time": 8.6318182,
                "pitch": 54,
                "velocity": 51,
                "duration": 0.1795455,
                "tempo": 120.0
            },
            {
                "start_time": 8.6477273,
                "end_time": 8.7295455,
                "pitch": 55,
                "velocity": 51,
                "duration": 0.0818182,
                "tempo": 120.0
            },
            {
                "start_time": 8.7454545,
                "end_time": 9.0295455,
                "pitch": 55,
                "velocity": 51,
                "duration": 0.2840909,
                "tempo": 120.0
            },
            {
                "start_time": 9.0454545,
                "end_time": 9.2295455,
                "pitch": 55,
                "velocity": 51,
                "duration": 0.1840909,
                "tempo": 120.0
            },
            {
                "start_time": 9.2477273,
                "end_time": 9.4295455,
                "pitch": 57,
                "velocity": 51,
                "duration": 0.1818182,
                "tempo": 120.0
            },
            {
                "start_time": 9.4477273,
                "end_time": 9.6295455,
                "pitch": 59,
                "velocity": 51,
                "duration": 0.1818182,
                "tempo": 120.0
            },
            {
                "start_time": 9.6477273,
                "end_time": 9.8318182,
                "pitch": 54,
                "velocity": 51,
                "duration": 0.1840909,
                "tempo": 120.0
            },
            {
                "start_time": 9.8477273,
                "end_time": 10.0340909,
                "pitch": 54,
                "velocity": 51,
                "duration": 0.1863636,
                "tempo": 120.0
            },
            {
                "start_time": 10.05,
                "end_time": 10.2340909,
                "pitch": 54,
                "velocity": 51,
                "duration": 0.1840909,
                "tempo": 120.0
            },
            {
                "start_time": 10.2522727,
                "end_time": 10.4363636,
                "pitch": 54,
                "velocity": 51,
                "duration": 0.1840909,
                "tempo": 120.0
            },
            {
                "start_time": 10.4522727,
                "end_time": 10.6363636,
                "pitch": 54,
                "velocity": 51,
                "duration": 0.1840909,
                "tempo": 120.0
            },
            {
                "start_time": 10.6545455,
                "end_time": 10.8386364,
                "pitch": 54,
                "velocity": 51,
                "duration": 0.1840909,
                "tempo": 120.0
            },
            {
                "start_time": 10.8545455,
                "end_time": 11.0409091,
                "pitch": 54,
                "velocity": 51,
                "duration": 0.1863636,
                "tempo": 120.0
            },
            {
                "start_time": 11.0568182,
                "end_time": 11.1409091,
                "pitch": 57,
                "velocity": 51,
                "duration": 0.0840909,
                "tempo": 120.0
            },
            {
                "start_time": 11.1568182,
                "end_time": 11.2409091,
                "pitch": 59,
                "velocity": 51,
                "duration": 0.0840909,
                "tempo": 120.0
            },
            {
                "start_time": 11.2590909,
                "end_time": 11.4477273,
                "pitch": 54,
                "velocity": 51,
                "duration": 0.1886364,
                "tempo": 120.0
            },
            {
                "start_time": 11.4636364,
                "end_time": 11.6522727,
                "pitch": 54,
                "velocity": 51,
                "duration": 0.1886364,
                "tempo": 120.0
            },
            {
                "start_time": 11.6681818,
                "end_time": 11.8477273,
                "pitch": 54,
                "velocity": 51,
                "duration": 0.1795455,
                "tempo": 120.0
            },
            {
                "start_time": 11.8636364,
                "end_time": 11.9454545,
                "pitch": 55,
                "velocity": 51,
                "duration": 0.0818182,
                "tempo": 120.0
            },
            {
                "start_time": 11.9613636,
                "end_time": 12.2454545,
                "pitch": 55,
                "velocity": 51,
                "duration": 0.2840909,
                "tempo": 120.0
            },
            {
                "start_time": 12.2613636,
                "end_time": 12.4477273,
                "pitch": 55,
                "velocity": 51,
                "duration": 0.1863636,
                "tempo": 120.0
            },
            {
                "start_time": 12.4636364,
                "end_time": 12.6477273,
                "pitch": 57,
                "velocity": 51,
                "duration": 0.1840909,
                "tempo": 120.0
            },
            {
                "start_time": 12.6659091,
                "end_time": 12.85,
                "pitch": 59,
                "velocity": 51,
                "duration": 0.1840909,
                "tempo": 120.0
            },
            {
                "start_time": 12.8659091,
                "end_time": 13.05,
                "pitch": 60,
                "velocity": 51,
                "duration": 0.1840909,
                "tempo": 120.0
            },
            {
                "start_time": 13.0681818,
                "end_time": 13.2522727,
                "pitch": 60,
                "velocity": 51,
                "duration": 0.1840909,
                "tempo": 120.0
            },
            {
                "start_time": 13.2681818,
                "end_time": 13.4522727,
                "pitch": 60,
                "velocity": 51,
                "duration": 0.1840909,
                "tempo": 120.0
            },
            {
                "start_time": 13.4681818,
                "end_time": 13.6522727,
                "pitch": 60,
                "velocity": 51,
                "duration": 0.1840909,
                "tempo": 120.0
            },
            {
                "start_time": 13.6681818,
                "end_time": 13.8545455,
                "pitch": 60,
                "velocity": 51,
                "duration": 0.1863636,
                "tempo": 120.0
            },
            {
                "start_time": 13.8704545,
                "end_time": 14.0545455,
                "pitch": 60,
                "velocity": 51,
                "duration": 0.1840909,
                "tempo": 120.0
            },
            {
                "start_time": 14.0727273,
                "end_time": 14.2568182,
                "pitch": 65,
                "velocity": 51,
                "duration": 0.1840909,
                "tempo": 120.0
            },
            {
                "start_time": 14.2727273,
                "end_time": 14.4568182,
                "pitch": 67,
                "velocity": 51,
                "duration": 0.1840909,
                "tempo": 120.0
            },
            {
                "start_time": 14.475,
                "end_time": 14.6590909,
                "pitch": 60,
                "velocity": 51,
                "duration": 0.1840909,
                "tempo": 120.0
            },
            {
                "start_time": 14.675,
                "end_time": 14.8613636,
                "pitch": 60,
                "velocity": 51,
                "duration": 0.1863636,
                "tempo": 120.0
            },
            {
                "start_time": 14.8772727,
                "end_time": 15.0613636,
                "pitch": 60,
                "velocity": 51,
                "duration": 0.1840909,
                "tempo": 120.0
            },
            {
                "start_time": 15.0795455,
                "end_time": 15.2636364,
                "pitch": 60,
                "velocity": 51,
                "duration": 0.1840909,
                "tempo": 120.0
            },
            {
                "start_time": 15.2795455,
                "end_time": 15.4636364,
                "pitch": 60,
                "velocity": 51,
                "duration": 0.1840909,
                "tempo": 120.0
            },
            {
                "start_time": 15.4795455,
                "end_time": 15.6636364,
                "pitch": 60,
                "velocity": 51,
                "duration": 0.1840909,
                "tempo": 120.0
            },
            {
                "start_time": 15.6795455,
                "end_time": 15.8636364,
                "pitch": 60,
                "velocity": 51,
                "duration": 0.1840909,
                "tempo": 120.0
            },
            {
                "start_time": 15.8818182,
                "end_time": 15.9659091,
                "pitch": 60,
                "velocity": 51,
                "duration": 0.0840909,
                "tempo": 120.0
            },
            {
                "start_time": 15.9818182,
                "end_time": 15.9977273,
                "pitch": 61,
                "velocity": 51,
                "duration": 0.0159091,
                "tempo": 120.0
            },
            {
                "start_time": 16.0159091,
                "end_time": 16.0659091,
                "pitch": 62,
                "velocity": 51,
                "duration": 0.05,
                "tempo": 120.0
            },
            {
                "start_time": 16.0818182,
                "end_time": 16.2659091,
                "pitch": 62,
                "velocity": 51,
                "duration": 0.1840909,
                "tempo": 120.0
            },
            {
                "start_time": 16.2840909,
                "end_time": 16.4681818,
                "pitch": 62,
                "velocity": 51,
                "duration": 0.1840909,
                "tempo": 120.0
            },
            {
                "start_time": 16.4840909,
                "end_time": 16.6681818,
                "pitch": 62,
                "velocity": 51,
                "duration": 0.1840909,
                "tempo": 120.0
            },
            {
                "start_time": 16.6840909,
                "end_time": 16.8681818,
                "pitch": 69,
                "velocity": 51,
                "duration": 0.1840909,
                "tempo": 120.0
            },
            {
                "start_time": 16.8840909,
                "end_time": 17.0704545,
                "pitch": 62,
                "velocity": 51,
                "duration": 0.1863636,
                "tempo": 120.0
            },
            {
                "start_time": 17.0863636,
                "end_time": 17.2704545,
                "pitch": 62,
                "velocity": 51,
                "duration": 0.1840909,
                "tempo": 120.0
            },
            {
                "start_time": 17.2886364,
                "end_time": 17.4704545,
                "pitch": 62,
                "velocity": 51,
                "duration": 0.1818182,
                "tempo": 120.0
            },
            {
                "start_time": 17.4886364,
                "end_time": 17.5704545,
                "pitch": 57,
                "velocity": 51,
                "duration": 0.0818182,
                "tempo": 120.0
            },
            {
                "start_time": 17.5886364,
                "end_time": 17.8727273,
                "pitch": 62,
                "velocity": 51,
                "duration": 0.2840909,
                "tempo": 120.0
            },
            {
                "start_time": 17.8886364,
                "end_time": 18.0727273,
                "pitch": 62,
                "velocity": 51,
                "duration": 0.1840909,
                "tempo": 120.0
            },
            {
                "start_time": 18.0909091,
                "end_time": 18.2727273,
                "pitch": 62,
                "velocity": 51,
                "duration": 0.1818182,
                "tempo": 120.0
            },
            {
                "start_time": 18.2909091,
                "end_time": 18.3727273,
                "pitch": 69,
                "velocity": 51,
                "duration": 0.0818182,
                "tempo": 120.0
            },
            {
                "start_time": 18.3909091,
                "end_time": 18.6727273,
                "pitch": 62,
                "velocity": 51,
                "duration": 0.2818182,
                "tempo": 120.0
            },
            {
                "start_time": 18.6909091,
                "end_time": 18.8727273,
                "pitch": 62,
                "velocity": 51,
                "duration": 0.1818182,
                "tempo": 120.0
            },
            {
                "start_time": 18.8909091,
                "end_time": 19.075,
                "pitch": 62,
                "velocity": 51,
                "duration": 0.1840909,
                "tempo": 120.0
            },
            {
                "start_time": 19.0909091,
                "end_time": 19.175,
                "pitch": 62,
                "velocity": 51,
                "duration": 0.0840909,
                "tempo": 120.0
            },
            {
                "start_time": 19.1931818,
                "end_time": 19.2772727,
                "pitch": 60,
                "velocity": 51,
                "duration": 0.0840909,
                "tempo": 120.0
            },
            {
                "start_time": 19.2931818,
                "end_time": 19.4772727,
                "pitch": 59,
                "velocity": 51,
                "duration": 0.1840909,
                "tempo": 120.0
            },
            {
                "start_time": 19.4931818,
                "end_time": 19.6772727,
                "pitch": 59,
                "velocity": 51,
                "duration": 0.1840909,
                "tempo": 120.0
            },
            {
                "start_time": 19.6931818,
                "end_time": 19.8772727,
                "pitch": 59,
                "velocity": 51,
                "duration": 0.1840909,
                "tempo": 120.0
            },
            {
                "start_time": 19.8954545,
                "end_time": 20.0795455,
                "pitch": 59,
                "velocity": 51,
                "duration": 0.1840909,
                "tempo": 120.0
            },
            {
                "start_time": 20.0954545,
                "end_time": 20.2795455,
                "pitch": 66,
                "velocity": 51,
                "duration": 0.1840909,
                "tempo": 120.0
            },
            {
                "start_time": 20.2954545,
                "end_time": 20.3795455,
                "pitch": 59,
                "velocity": 51,
                "duration": 0.0840909,
                "tempo": 120.0
            },
            {
                "start_time": 20.3954545,
                "end_time": 20.6795455,
                "pitch": 59,
                "velocity": 51,
                "duration": 0.2840909,
                "tempo": 120.0
            },
            {
                "start_time": 20.6954545,
                "end_time": 20.8795455,
                "pitch": 59,
                "velocity": 51,
                "duration": 0.1840909,
                "tempo": 120.0
            },
            {
                "start_time": 20.8954545,
                "end_time": 21.0795455,
                "pitch": 61,
                "velocity": 51,
                "duration": 0.1840909,
                "tempo": 120.0
            },
            {
                "start_time": 21.0977273,
                "end_time": 21.2818182,
                "pitch": 59,
                "velocity": 51,
                "duration": 0.1840909,
                "tempo": 120.0
            },
            {
                "start_time": 21.2977273,
                "end_time": 21.4818182,
                "pitch": 59,
                "velocity": 51,
                "duration": 0.1840909,
                "tempo": 120.0
            },
            {
                "start_time": 21.4977273,
                "end_time": 21.6818182,
                "pitch": 59,
                "velocity": 51,
                "duration": 0.1840909,
                "tempo": 120.0
            },
            {
                "start_time": 21.6977273,
                "end_time": 21.8840909,
                "pitch": 64,
                "velocity": 51,
                "duration": 0.1863636,
                "tempo": 120.0
            },
            {
                "start_time": 21.9,
                "end_time": 22.0840909,
                "pitch": 59,
                "velocity": 51,
                "duration": 0.1840909,
                "tempo": 120.0
            },
            {
                "start_time": 22.1,
                "end_time": 22.2840909,
                "pitch": 59,
                "velocity": 51,
                "duration": 0.1840909,
                "tempo": 120.0
            },
            {
                "start_time": 22.3,
                "end_time": 22.4840909,
                "pitch": 59,
                "velocity": 51,
                "duration": 0.1840909,
                "tempo": 120.0
            },
            {
                "start_time": 22.5,
                "end_time": 22.6840909,
                "pitch": 61,
                "velocity": 51,
                "duration": 0.1840909,
                "tempo": 120.0
            },
            {
                "start_time": 22.7,
                "end_time": 22.8840909,
                "pitch": 61,
                "velocity": 51,
                "duration": 0.1840909,
                "tempo": 120.0
            },
            {
                "start_time": 22.9022727,
                "end_time": 23.0863636,
                "pitch": 68,
                "velocity": 51,
                "duration": 0.1840909,
                "tempo": 120.0
            },
            {
                "start_time": 23.1022727,
                "end_time": 23.2863636,
                "pitch": 61,
                "velocity": 51,
                "duration": 0.1840909,
                "tempo": 120.0
            },
            {
                "start_time": 23.3045455,
                "end_time": 23.4863636,
                "pitch": 61,
                "velocity": 51,
                "duration": 0.1818182,
                "tempo": 120.0
            },
            {
                "start_time": 23.5045455,
                "end_time": 23.6863636,
                "pitch": 61,
                "velocity": 51,
                "duration": 0.1818182,
                "tempo": 120.0
            },
            {
                "start_time": 23.7045455,
                "end_time": 23.8886364,
                "pitch": 66,
                "velocity": 51,
                "duration": 0.1840909,
                "tempo": 120.0
            },
            {
                "start_time": 23.9045455,
                "end_time": 23.9886364,
                "pitch": 61,
                "velocity": 51,
                "duration": 0.0840909,
                "tempo": 120.0
            },
            {
                "start_time": 24.0068182,
                "end_time": 24.2886364,
                "pitch": 61,
                "velocity": 51,
                "duration": 0.2818182,
                "tempo": 120.0
            },
            {
                "start_time": 24.3068182,
                "end_time": 24.4886364,
                "pitch": 61,
                "velocity": 51,
                "duration": 0.1818182,
                "tempo": 120.0
            },
            {
                "start_time": 24.5068182,
                "end_time": 24.6886364,
                "pitch": 61,
                "velocity": 51,
                "duration": 0.1818182,
                "tempo": 120.0
            },
            {
                "start_time": 24.7068182,
                "end_time": 24.8909091,
                "pitch": 61,
                "velocity": 51,
                "duration": 0.1840909,
                "tempo": 120.0
            },
            {
                "start_time": 24.9068182,
                "end_time": 25.0909091,
                "pitch": 61,
                "velocity": 51,
                "duration": 0.1840909,
                "tempo": 120.0
            },
            {
                "start_time": 25.1068182,
                "end_time": 25.2931818,
                "pitch": 61,
                "velocity": 51,
                "duration": 0.1863636,
                "tempo": 120.0
            },
            {
                "start_time": 25.3090909,
                "end_time": 25.4931818,
                "pitch": 61,
                "velocity": 51,
                "duration": 0.1840909,
                "tempo": 120.0
            },
            {
                "start_time": 25.5090909,
                "end_time": 25.6931818,
                "pitch": 61,
                "velocity": 51,
                "duration": 0.1840909,
                "tempo": 120.0
            },
            {
                "start_time": 25.7090909,
                "end_time": 25.8931818,
                "pitch": 54,
                "velocity": 51,
                "duration": 0.1840909,
                "tempo": 120.0
            },
            {
                "start_time": 25.9113636,
                "end_time": 26.0954545,
                "pitch": 54,
                "velocity": 51,
                "duration": 0.1840909,
                "tempo": 120.0
            },
            {
                "start_time": 26.1113636,
                "end_time": 26.2954545,
                "pitch": 54,
                "velocity": 51,
                "duration": 0.1840909,
                "tempo": 120.0
            },
            {
                "start_time": 26.3113636,
                "end_time": 26.4954545,
                "pitch": 54,
                "velocity": 51,
                "duration": 0.1840909,
                "tempo": 120.0
            },
            {
                "start_time": 26.5113636,
                "end_time": 26.6954545,
                "pitch": 54,
                "velocity": 51,
                "duration": 0.1840909,
                "tempo": 120.0
            },
            {
                "start_time": 26.7113636,
                "end_time": 26.8954545,
                "pitch": 54,
                "velocity": 51,
                "duration": 0.1840909,
                "tempo": 120.0
            },
            {
                "start_time": 26.9113636,
                "end_time": 27.0954545,
                "pitch": 54,
                "velocity": 51,
                "duration": 0.1840909,
                "tempo": 120.0
            },
            {
                "start_time": 27.1136364,
                "end_time": 27.1977273,
                "pitch": 57,
                "velocity": 51,
                "duration": 0.0840909,
                "tempo": 120.0
            },
            {
                "start_time": 27.2136364,
                "end_time": 27.2977273,
                "pitch": 59,
                "velocity": 51,
                "duration": 0.0840909,
                "tempo": 120.0
            },
            {
                "start_time": 27.3136364,
                "end_time": 27.4977273,
                "pitch": 54,
                "velocity": 51,
                "duration": 0.1840909,
                "tempo": 120.0
            },
            {
                "start_time": 27.5136364,
                "end_time": 27.6977273,
                "pitch": 54,
                "velocity": 51,
                "duration": 0.1840909,
                "tempo": 120.0
            },
            {
                "start_time": 27.7136364,
                "end_time": 27.9,
                "pitch": 54,
                "velocity": 51,
                "duration": 0.1863636,
                "tempo": 120.0
            },
            {
                "start_time": 27.9159091,
                "end_time": 28.0,
                "pitch": 55,
                "velocity": 51,
                "duration": 0.0840909,
                "tempo": 120.0
            },
            {
                "start_time": 28.0159091,
                "end_time": 28.3,
                "pitch": 55,
                "velocity": 51,
                "duration": 0.2840909,
                "tempo": 120.0
            },
            {
                "start_time": 28.3181818,
                "end_time": 28.5,
                "pitch": 55,
                "velocity": 51,
                "duration": 0.1818182,
                "tempo": 120.0
            },
            {
                "start_time": 28.5181818,
                "end_time": 28.7,
                "pitch": 57,
                "velocity": 51,
                "duration": 0.1818182,
                "tempo": 120.0
            },
            {
                "start_time": 28.7181818,
                "end_time": 28.9,
                "pitch": 59,
                "velocity": 51,
                "duration": 0.1818182,
                "tempo": 120.0
            },
            {
                "start_time": 28.9181818,
                "end_time": 29.1022727,
                "pitch": 54,
                "velocity": 51,
                "duration": 0.1840909,
                "tempo": 120.0
            },
            {
                "start_time": 29.1181818,
                "end_time": 29.3022727,
                "pitch": 54,
                "velocity": 51,
                "duration": 0.1840909,
                "tempo": 120.0
            },
            {
                "start_time": 29.3204545,
                "end_time": 29.5022727,
                "pitch": 54,
                "velocity": 51,
                "duration": 0.1818182,
                "tempo": 120.0
            },
            {
                "start_time": 29.5204545,
                "end_time": 29.7022727,
                "pitch": 54,
                "velocity": 51,
                "duration": 0.1818182,
                "tempo": 120.0
            },
            {
                "start_time": 29.7204545,
                "end_time": 29.9045455,
                "pitch": 54,
                "velocity": 51,
                "duration": 0.1840909,
                "tempo": 120.0
            },
            {
                "start_time": 29.9204545,
                "end_time": 30.1068182,
                "pitch": 54,
                "velocity": 51,
                "duration": 0.1863636,
                "tempo": 120.0
            },
            {
                "start_time": 30.1227273,
                "end_time": 30.3068182,
                "pitch": 54,
                "velocity": 51,
                "duration": 0.1840909,
                "tempo": 120.0
            },
            {
                "start_time": 30.3227273,
                "end_time": 30.4068182,
                "pitch": 57,
                "velocity": 51,
                "duration": 0.0840909,
                "tempo": 120.0
            },
            {
                "start_time": 30.4227273,
                "end_time": 30.5068182,
                "pitch": 59,
                "velocity": 51,
                "duration": 0.0840909,
                "tempo": 120.0
            },
            {
                "start_time": 30.5227273,
                "end_time": 30.7068182,
                "pitch": 54,
                "velocity": 51,
                "duration": 0.1840909,
                "tempo": 120.0
            },
            {
                "start_time": 30.7227273,
                "end_time": 30.9068182,
                "pitch": 54,
                "velocity": 51,
                "duration": 0.1840909,
                "tempo": 120.0
            },
            {
                "start_time": 30.9227273,
                "end_time": 31.1068182,
                "pitch": 54,
                "velocity": 51,
                "duration": 0.1840909,
                "tempo": 120.0
            },
            {
                "start_time": 31.125,
                "end_time": 31.2068182,
                "pitch": 55,
                "velocity": 51,
                "duration": 0.0818182,
                "tempo": 120.0
            },
            {
                "start_time": 31.225,
                "end_time": 31.5090909,
                "pitch": 55,
                "velocity": 51,
                "duration": 0.2840909,
                "tempo": 120.0
            },
            {
                "start_time": 31.525,
                "end_time": 31.7090909,
                "pitch": 55,
                "velocity": 51,
                "duration": 0.1840909,
                "tempo": 120.0
            },
            {
                "start_time": 31.725,
                "end_time": 31.9090909,
                "pitch": 57,
                "velocity": 51,
                "duration": 0.1840909,
                "tempo": 120.0
            },
            {
                "start_time": 31.9272727,
                "end_time": 32.1113636,
                "pitch": 59,
                "velocity": 51,
                "duration": 0.1840909,
                "tempo": 120.0
            },
            {
                "start_time": 32.1295455,
                "end_time": 32.3159091,
                "pitch": 54,
                "velocity": 51,
                "duration": 0.1863636,
                "tempo": 120.0
            },
            {
                "start_time": 32.3340909,
                "end_time": 32.5227273,
                "pitch": 54,
                "velocity": 51,
                "duration": 0.1886364,
                "tempo": 120.0
            },
            {
                "start_time": 32.5386364,
                "end_time": 32.7181818,
                "pitch": 54,
                "velocity": 51,
                "duration": 0.1795455,
                "tempo": 120.0
            },
            {
                "start_time": 32.7340909,
                "end_time": 32.9136364,
                "pitch": 54,
                "velocity": 51,
                "duration": 0.1795455,
                "tempo": 120.0
            },
            {
                "start_time": 32.9318182,
                "end_time": 33.1136364,
                "pitch": 54,
                "velocity": 51,
                "duration": 0.1818182,
                "tempo": 120.0
            },
            {
                "start_time": 33.1318182,
                "end_time": 33.3136364,
                "pitch": 54,
                "velocity": 51,
                "duration": 0.1818182,
                "tempo": 120.0
            },
            {
                "start_time": 33.3318182,
                "end_time": 33.5159091,
                "pitch": 54,
                "velocity": 51,
                "duration": 0.1840909,
                "tempo": 120.0
            },
            {
                "start_time": 33.5318182,
                "end_time": 33.6159091,
                "pitch": 57,
                "velocity": 51,
                "duration": 0.0840909,
                "tempo": 120.0
            },
            {
                "start_time": 33.6340909,
                "end_time": 33.7159091,
                "pitch": 59,
                "velocity": 51,
                "duration": 0.0818182,
                "tempo": 120.0
            },
            {
                "start_time": 33.7340909,
                "end_time": 33.9159091,
                "pitch": 54,
                "velocity": 51,
                "duration": 0.1818182,
                "tempo": 120.0
            },
            {
                "start_time": 33.9340909,
                "end_time": 34.1159091,
                "pitch": 54,
                "velocity": 51,
                "duration": 0.1818182,
                "tempo": 120.0
            },
            {
                "start_time": 34.1340909,
                "end_time": 34.3159091,
                "pitch": 54,
                "velocity": 51,
                "duration": 0.1818182,
                "tempo": 120.0
            },
            {
                "start_time": 34.3340909,
                "end_time": 34.4159091,
                "pitch": 55,
                "velocity": 51,
                "duration": 0.0818182,
                "tempo": 120.0
            },
            {
                "start_time": 34.4340909,
                "end_time": 34.7159091,
                "pitch": 55,
                "velocity": 51,
                "duration": 0.2818182,
                "tempo": 120.0
            },
            {
                "start_time": 34.7340909,
                "end_time": 34.9159091,
                "pitch": 55,
                "velocity": 51,
                "duration": 0.1818182,
                "tempo": 120.0
            },
            {
                "start_time": 34.9340909,
                "end_time": 35.1159091,
                "pitch": 57,
                "velocity": 51,
                "duration": 0.1818182,
                "tempo": 120.0
            },
            {
                "start_time": 35.1340909,
                "end_time": 35.3159091,
                "pitch": 59,
                "velocity": 51,
                "duration": 0.1818182,
                "tempo": 120.0
            },
            {
                "start_time": 35.3340909,
                "end_time": 35.5181818,
                "pitch": 54,
                "velocity": 51,
                "duration": 0.1840909,
                "tempo": 120.0
            },
            {
                "start_time": 35.5340909,
                "end_time": 35.7204545,
                "pitch": 54,
                "velocity": 51,
                "duration": 0.1863636,
                "tempo": 120.0
            },
            {
                "start_time": 35.7363636,
                "end_time": 35.9204545,
                "pitch": 54,
                "velocity": 51,
                "duration": 0.1840909,
                "tempo": 120.0
            },
            {
                "start_time": 35.9363636,
                "end_time": 36.1204545,
                "pitch": 54,
                "velocity": 51,
                "duration": 0.1840909,
                "tempo": 120.0
            },
            {
                "start_time": 36.1363636,
                "end_time": 36.3204545,
                "pitch": 54,
                "velocity": 51,
                "duration": 0.1840909,
                "tempo": 120.0
            },
            {
                "start_time": 36.3363636,
                "end_time": 36.5204545,
                "pitch": 54,
                "velocity": 51,
                "duration": 0.1840909,
                "tempo": 120.0
            },
            {
                "start_time": 36.5363636,
                "end_time": 36.7204545,
                "pitch": 54,
                "velocity": 51,
                "duration": 0.1840909,
                "tempo": 120.0
            },
            {
                "start_time": 36.7363636,
                "end_time": 36.8204545,
                "pitch": 57,
                "velocity": 51,
                "duration": 0.0840909,
                "tempo": 120.0
            },
            {
                "start_time": 36.8363636,
                "end_time": 36.9204545,
                "pitch": 59,
                "velocity": 51,
                "duration": 0.0840909,
                "tempo": 120.0
            },
            {
                "start_time": 36.9363636,
                "end_time": 37.1204545,
                "pitch": 54,
                "velocity": 51,
                "duration": 0.1840909,
                "tempo": 120.0
            },
            {
                "start_time": 37.1363636,
                "end_time": 37.3204545,
                "pitch": 54,
                "velocity": 51,
                "duration": 0.1840909,
                "tempo": 120.0
            },
            {
                "start_time": 37.3363636,
                "end_time": 37.5204545,
                "pitch": 54,
                "velocity": 51,
                "duration": 0.1840909,
                "tempo": 120.0
            },
            {
                "start_time": 37.5386364,
                "end_time": 37.6227273,
                "pitch": 55,
                "velocity": 51,
                "duration": 0.0840909,
                "tempo": 120.0
            },
            {
                "start_time": 37.6386364,
                "end_time": 37.9227273,
                "pitch": 55,
                "velocity": 51,
                "duration": 0.2840909,
                "tempo": 120.0
            },
            {
                "start_time": 37.9386364,
                "end_time": 38.1227273,
                "pitch": 55,
                "velocity": 51,
                "duration": 0.1840909,
                "tempo": 120.0
            },
            {
                "start_time": 38.1386364,
                "end_time": 38.3227273,
                "pitch": 57,
                "velocity": 51,
                "duration": 0.1840909,
                "tempo": 120.0
            },
            {
                "start_time": 38.3386364,
                "end_time": 38.5227273,
                "pitch": 59,
                "velocity": 51,
                "duration": 0.1840909,
                "tempo": 120.0
            },
            {
                "start_time": 38.5386364,
                "end_time": 38.7227273,
                "pitch": 60,
                "velocity": 51,
                "duration": 0.1840909,
                "tempo": 120.0
            },
            {
                "start_time": 38.7386364,
                "end_time": 38.9227273,
                "pitch": 60,
                "velocity": 51,
                "duration": 0.1840909,
                "tempo": 120.0
            },
            {
                "start_time": 38.9386364,
                "end_time": 39.1227273,
                "pitch": 60,
                "velocity": 51,
                "duration": 0.1840909,
                "tempo": 120.0
            },
            {
                "start_time": 39.1386364,
                "end_time": 39.3227273,
                "pitch": 60,
                "velocity": 51,
                "duration": 0.1840909,
                "tempo": 120.0
            },
            {
                "start_time": 39.3386364,
                "end_time": 39.5227273,
                "pitch": 60,
                "velocity": 51,
                "duration": 0.1840909,
                "tempo": 120.0
            },
            {
                "start_time": 39.5409091,
                "end_time": 39.725,
                "pitch": 60,
                "velocity": 51,
                "duration": 0.1840909,
                "tempo": 120.0
            },
            {
                "start_time": 39.7409091,
                "end_time": 39.925,
                "pitch": 65,
                "velocity": 51,
                "duration": 0.1840909,
                "tempo": 120.0
            },
            {
                "start_time": 39.9409091,
                "end_time": 40.125,
                "pitch": 67,
                "velocity": 51,
                "duration": 0.1840909,
                "tempo": 120.0
            },
            {
                "start_time": 40.1409091,
                "end_time": 40.325,
                "pitch": 60,
                "velocity": 51,
                "duration": 0.1840909,
                "tempo": 120.0
            },
            {
                "start_time": 40.3409091,
                "end_time": 40.525,
                "pitch": 60,
                "velocity": 51,
                "duration": 0.1840909,
                "tempo": 120.0
            },
            {
                "start_time": 40.5409091,
                "end_time": 40.725,
                "pitch": 60,
                "velocity": 51,
                "duration": 0.1840909,
                "tempo": 120.0
            },
            {
                "start_time": 40.7409091,
                "end_time": 40.925,
                "pitch": 60,
                "velocity": 51,
                "duration": 0.1840909,
                "tempo": 120.0
            },
            {
                "start_time": 40.9409091,
                "end_time": 41.125,
                "pitch": 60,
                "velocity": 51,
                "duration": 0.1840909,
                "tempo": 120.0
            },
            {
                "start_time": 41.1409091,
                "end_time": 41.325,
                "pitch": 60,
                "velocity": 51,
                "duration": 0.1840909,
                "tempo": 120.0
            },
            {
                "start_time": 41.3409091,
                "end_time": 41.5272727,
                "pitch": 60,
                "velocity": 51,
                "duration": 0.1863636,
                "tempo": 120.0
            },
            {
                "start_time": 41.5431818,
                "end_time": 41.6272727,
                "pitch": 60,
                "velocity": 51,
                "duration": 0.0840909,
                "tempo": 120.0
            },
            {
                "start_time": 41.6431818,
                "end_time": 41.6613636,
                "pitch": 61,
                "velocity": 51,
                "duration": 0.0181818,
                "tempo": 120.0
            },
            {
                "start_time": 41.6772727,
                "end_time": 41.7272727,
                "pitch": 62,
                "velocity": 51,
                "duration": 0.05,
                "tempo": 120.0
            },
            {
                "start_time": 41.7431818,
                "end_time": 41.9272727,
                "pitch": 62,
                "velocity": 51,
                "duration": 0.1840909,
                "tempo": 120.0
            },
            {
                "start_time": 41.9431818,
                "end_time": 42.1272727,
                "pitch": 62,
                "velocity": 51,
                "duration": 0.1840909,
                "tempo": 120.0
            },
            {
                "start_time": 42.1431818,
                "end_time": 42.3272727,
                "pitch": 62,
                "velocity": 51,
                "duration": 0.1840909,
                "tempo": 120.0
            },
            {
                "start_time": 42.3431818,
                "end_time": 42.5272727,
                "pitch": 69,
                "velocity": 51,
                "duration": 0.1840909,
                "tempo": 120.0
            },
            {
                "start_time": 42.5431818,
                "end_time": 42.7272727,
                "pitch": 62,
                "velocity": 51,
                "duration": 0.1840909,
                "tempo": 120.0
            },
            {
                "start_time": 42.7431818,
                "end_time": 42.9272727,
                "pitch": 62,
                "velocity": 51,
                "duration": 0.1840909,
                "tempo": 120.0
            },
            {
                "start_time": 42.9431818,
                "end_time": 43.1272727,
                "pitch": 62,
                "velocity": 51,
                "duration": 0.1840909,
                "tempo": 120.0
            },
            {
                "start_time": 43.1431818,
                "end_time": 43.2272727,
                "pitch": 57,
                "velocity": 51,
                "duration": 0.0840909,
                "tempo": 120.0
            },
            {
                "start_time": 43.2431818,
                "end_time": 43.5295455,
                "pitch": 62,
                "velocity": 51,
                "duration": 0.2863636,
                "tempo": 120.0
            },
            {
                "start_time": 43.5454545,
                "end_time": 43.7295455,
                "pitch": 62,
                "velocity": 51,
                "duration": 0.1840909,
                "tempo": 120.0
            },
            {
                "start_time": 43.7477273,
                "end_time": 43.9295455,
                "pitch": 62,
                "velocity": 51,
                "duration": 0.1818182,
                "tempo": 120.0
            },
            {
                "start_time": 43.9477273,
                "end_time": 44.0295455,
                "pitch": 69,
                "velocity": 51,
                "duration": 0.0818182,
                "tempo": 120.0
            },
            {
                "start_time": 44.0477273,
                "end_time": 44.3295455,
                "pitch": 62,
                "velocity": 51,
                "duration": 0.2818182,
                "tempo": 120.0
            },
            {
                "start_time": 44.3477273,
                "end_time": 44.5295455,
                "pitch": 62,
                "velocity": 51,
                "duration": 0.1818182,
                "tempo": 120.0
            },
            {
                "start_time": 44.5477273,
                "end_time": 44.7295455,
                "pitch": 62,
                "velocity": 51,
                "duration": 0.1818182,
                "tempo": 120.0
            },
            {
                "start_time": 44.7477273,
                "end_time": 44.8295455,
                "pitch": 62,
                "velocity": 51,
                "duration": 0.0818182,
                "tempo": 120.0
            },
            {
                "start_time": 44.8477273,
                "end_time": 44.9295455,
                "pitch": 60,
                "velocity": 51,
                "duration": 0.0818182,
                "tempo": 120.0
            },
            {
                "start_time": 44.9477273,
                "end_time": 45.1363636,
                "pitch": 59,
                "velocity": 51,
                "duration": 0.1886364,
                "tempo": 120.0
            },
            {
                "start_time": 45.1522727,
                "end_time": 45.3409091,
                "pitch": 59,
                "velocity": 51,
                "duration": 0.1886364,
                "tempo": 120.0
            },
            {
                "start_time": 45.3568182,
                "end_time": 45.5363636,
                "pitch": 59,
                "velocity": 51,
                "duration": 0.1795455,
                "tempo": 120.0
            },
            {
                "start_time": 45.5522727,
                "end_time": 45.7340909,
                "pitch": 59,
                "velocity": 51,
                "duration": 0.1818182,
                "tempo": 120.0
            },
            {
                "start_time": 45.75,
                "end_time": 45.9340909,
                "pitch": 66,
                "velocity": 51,
                "duration": 0.1840909,
                "tempo": 120.0
            },
            {
                "start_time": 45.95,
                "end_time": 46.0340909,
                "pitch": 59,
                "velocity": 51,
                "duration": 0.0840909,
                "tempo": 120.0
            },
            {
                "start_time": 46.05,
                "end_time": 46.3340909,
                "pitch": 59,
                "velocity": 51,
                "duration": 0.2840909,
                "tempo": 120.0
            },
            {
                "start_time": 46.35,
                "end_time": 46.5340909,
                "pitch": 59,
                "velocity": 51,
                "duration": 0.1840909,
                "tempo": 120.0
            },
            {
                "start_time": 46.55,
                "end_time": 46.7340909,
                "pitch": 61,
                "velocity": 51,
                "duration": 0.1840909,
                "tempo": 120.0
            },
            {
                "start_time": 46.75,
                "end_time": 46.9340909,
                "pitch": 59,
                "velocity": 51,
                "duration": 0.1840909,
                "tempo": 120.0
            },
            {
                "start_time": 46.95,
                "end_time": 47.1340909,
                "pitch": 59,
                "velocity": 51,
                "duration": 0.1840909,
                "tempo": 120.0
            },
            {
                "start_time": 47.15,
                "end_time": 47.3340909,
                "pitch": 59,
                "velocity": 51,
                "duration": 0.1840909,
                "tempo": 120.0
            },
            {
                "start_time": 47.35,
                "end_time": 47.5340909,
                "pitch": 64,
                "velocity": 51,
                "duration": 0.1840909,
                "tempo": 120.0
            },
            {
                "start_time": 47.5522727,
                "end_time": 47.7363636,
                "pitch": 59,
                "velocity": 51,
                "duration": 0.1840909,
                "tempo": 120.0
            },
            {
                "start_time": 47.7522727,
                "end_time": 47.9363636,
                "pitch": 59,
                "velocity": 51,
                "duration": 0.1840909,
                "tempo": 120.0
            },
            {
                "start_time": 47.9522727,
                "end_time": 48.1363636,
                "pitch": 59,
                "velocity": 51,
                "duration": 0.1840909,
                "tempo": 120.0
            },
            {
                "start_time": 48.1522727,
                "end_time": 48.3363636,
                "pitch": 61,
                "velocity": 51,
                "duration": 0.1840909,
                "tempo": 120.0
            },
            {
                "start_time": 48.3522727,
                "end_time": 48.5363636,
                "pitch": 61,
                "velocity": 51,
                "duration": 0.1840909,
                "tempo": 120.0
            },
            {
                "start_time": 48.5522727,
                "end_time": 48.7363636,
                "pitch": 68,
                "velocity": 51,
                "duration": 0.1840909,
                "tempo": 120.0
            },
            {
                "start_time": 48.7522727,
                "end_time": 48.9363636,
                "pitch": 61,
                "velocity": 51,
                "duration": 0.1840909,
                "tempo": 120.0
            },
            {
                "start_time": 48.9522727,
                "end_time": 49.1363636,
                "pitch": 61,
                "velocity": 51,
                "duration": 0.1840909,
                "tempo": 120.0
            },
            {
                "start_time": 49.1522727,
                "end_time": 49.3363636,
                "pitch": 61,
                "velocity": 51,
                "duration": 0.1840909,
                "tempo": 120.0
            },
            {
                "start_time": 49.3522727,
                "end_time": 49.5363636,
                "pitch": 66,
                "velocity": 51,
                "duration": 0.1840909,
                "tempo": 120.0
            },
            {
                "start_time": 49.5545455,
                "end_time": 49.6386364,
                "pitch": 61,
                "velocity": 51,
                "duration": 0.0840909,
                "tempo": 120.0
            },
            {
                "start_time": 49.6545455,
                "end_time": 49.9386364,
                "pitch": 61,
                "velocity": 51,
                "duration": 0.2840909,
                "tempo": 120.0
            },
            {
                "start_time": 49.9545455,
                "end_time": 50.1386364,
                "pitch": 61,
                "velocity": 51,
                "duration": 0.1840909,
                "tempo": 120.0
            },
            {
                "start_time": 50.1545455,
                "end_time": 50.3386364,
                "pitch": 61,
                "velocity": 51,
                "duration": 0.1840909,
                "tempo": 120.0
            },
            {
                "start_time": 50.3545455,
                "end_time": 50.5386364,
                "pitch": 61,
                "velocity": 51,
                "duration": 0.1840909,
                "tempo": 120.0
            },
            {
                "start_time": 50.5545455,
                "end_time": 50.7386364,
                "pitch": 61,
                "velocity": 51,
                "duration": 0.1840909,
                "tempo": 120.0
            },
            {
                "start_time": 50.7545455,
                "end_time": 50.9386364,
                "pitch": 61,
                "velocity": 51,
                "duration": 0.1840909,
                "tempo": 120.0
            },
            {
                "start_time": 50.9545455,
                "end_time": 51.1386364,
                "pitch": 61,
                "velocity": 51,
                "duration": 0.1840909,
                "tempo": 120.0
            },
            {
                "start_time": 51.1545455,
                "end_time": 51.3159091,
                "pitch": 61,
                "velocity": 51,
                "duration": 0.1613636,
                "tempo": 120.0
            }
        ],
        "Electric Guitar (clean)": [
            {
                "start_time": 0.0295455,
                "end_time": 0.6090909,
                "pitch": 42,
                "velocity": 40,
                "duration": 0.5795455,
                "tempo": 120.0
            },
            {
                "start_time": 0.625,
                "end_time": 1.0068182,
                "pitch": 54,
                "velocity": 40,
                "duration": 0.3818182,
                "tempo": 120.0
            },
            {
                "start_time": 1.0227273,
                "end_time": 1.1068182,
                "pitch": 47,
                "velocity": 40,
                "duration": 0.0840909,
                "tempo": 120.0
            },
            {
                "start_time": 1.1227273,
                "end_time": 1.2068182,
                "pitch": 48,
                "velocity": 40,
                "duration": 0.0840909,
                "tempo": 120.0
            },
            {
                "start_time": 1.2227273,
                "end_time": 1.4068182,
                "pitch": 49,
                "velocity": 40,
                "duration": 0.1840909,
                "tempo": 120.0
            },
            {
                "start_time": 1.4227273,
                "end_time": 1.8068182,
                "pitch": 52,
                "velocity": 40,
                "duration": 0.3840909,
                "tempo": 120.0
            },
            {
                "start_time": 1.825,
                "end_time": 2.0090909,
                "pitch": 54,
                "velocity": 40,
                "duration": 0.1840909,
                "tempo": 120.0
            },
            {
                "start_time": 2.025,
                "end_time": 2.1090909,
                "pitch": 57,
                "velocity": 40,
                "duration": 0.0840909,
                "tempo": 120.0
            },
            {
                "start_time": 2.125,
                "end_time": 2.2090909,
                "pitch": 59,
                "velocity": 40,
                "duration": 0.0840909,
                "tempo": 120.0
            },
            {
                "start_time": 2.225,
                "end_time": 2.8090909,
                "pitch": 43,
                "velocity": 40,
                "duration": 0.5840909,
                "tempo": 120.0
            },
            {
                "start_time": 2.825,
                "end_time": 3.2090909,
                "pitch": 54,
                "velocity": 40,
                "duration": 0.3840909,
                "tempo": 120.0
            },
            {
                "start_time": 3.225,
                "end_time": 3.8113636,
                "pitch": 42,
                "velocity": 40,
                "duration": 0.5863636,
                "tempo": 120.0
            },
            {
                "start_time": 3.8272727,
                "end_time": 4.2113636,
                "pitch": 54,
                "velocity": 40,
                "duration": 0.3840909,
                "tempo": 120.0
            },
            {
                "start_time": 4.2272727,
                "end_time": 4.3113636,
                "pitch": 47,
                "velocity": 40,
                "duration": 0.0840909,
                "tempo": 120.0
            },
            {
                "start_time": 4.3272727,
                "end_time": 4.4113636,
                "pitch": 48,
                "velocity": 40,
                "duration": 0.0840909,
                "tempo": 120.0
            },
            {
                "start_time": 4.4272727,
                "end_time": 4.6136364,
                "pitch": 49,
                "velocity": 40,
                "duration": 0.1863636,
                "tempo": 120.0
            },
            {
                "start_time": 4.6295455,
                "end_time": 5.0136364,
                "pitch": 52,
                "velocity": 40,
                "duration": 0.3840909,
                "tempo": 120.0
            },
            {
                "start_time": 5.0295455,
                "end_time": 5.2136364,
                "pitch": 54,
                "velocity": 40,
                "duration": 0.1840909,
                "tempo": 120.0
            },
            {
                "start_time": 5.2318182,
                "end_time": 5.3136364,
                "pitch": 57,
                "velocity": 40,
                "duration": 0.0818182,
                "tempo": 120.0
            },
            {
                "start_time": 5.3318182,
                "end_time": 5.4159091,
                "pitch": 59,
                "velocity": 40,
                "duration": 0.0840909,
                "tempo": 120.0
            },
            {
                "start_time": 5.4318182,
                "end_time": 6.0159091,
                "pitch": 43,
                "velocity": 40,
                "duration": 0.5840909,
                "tempo": 120.0
            },
            {
                "start_time": 6.0340909,
                "end_time": 6.4204545,
                "pitch": 54,
                "velocity": 40,
                "duration": 0.3863636,
                "tempo": 120.0
            },
            {
                "start_time": 6.4363636,
                "end_time": 7.025,
                "pitch": 42,
                "velocity": 40,
                "duration": 0.5886364,
                "tempo": 120.0
            },
            {
                "start_time": 7.0431818,
                "end_time": 7.4227273,
                "pitch": 54,
                "velocity": 40,
                "duration": 0.3795455,
                "tempo": 120.0
            },
            {
                "start_time": 7.4409091,
                "end_time": 7.525,
                "pitch": 47,
                "velocity": 40,
                "duration": 0.0840909,
                "tempo": 120.0
            },
            {
                "start_time": 7.5409091,
                "end_time": 7.625,
                "pitch": 48,
                "velocity": 40,
                "duration": 0.0840909,
                "tempo": 120.0
            },
            {
                "start_time": 7.6409091,
                "end_time": 7.825,
                "pitch": 49,
                "velocity": 40,
                "duration": 0.1840909,
                "tempo": 120.0
            },
            {
                "start_time": 7.8409091,
                "end_time": 8.2295455,
                "pitch": 52,
                "velocity": 40,
                "duration": 0.3886364,
                "tempo": 120.0
            },
            {
                "start_time": 8.2477273,
                "end_time": 8.4363636,
                "pitch": 54,
                "velocity": 40,
                "duration": 0.1886364,
                "tempo": 120.0
            },
            {
                "start_time": 8.4522727,
                "end_time": 8.5340909,
                "pitch": 57,
                "velocity": 40,
                "duration": 0.0818182,
                "tempo": 120.0
            },
            {
                "start_time": 8.55,
                "end_time": 8.6318182,
                "pitch": 59,
                "velocity": 40,
                "duration": 0.0818182,
                "tempo": 120.0
            },
            {
                "start_time": 8.6477273,
                "end_time": 9.2295455,
                "pitch": 43,
                "velocity": 40,
                "duration": 0.5818182,
                "tempo": 120.0
            },
            {
                "start_time": 9.2477273,
                "end_time": 9.6295455,
                "pitch": 54,
                "velocity": 40,
                "duration": 0.3818182,
                "tempo": 120.0
            },
            {
                "start_time": 9.6477273,
                "end_time": 10.2340909,
                "pitch": 42,
                "velocity": 40,
                "duration": 0.5863636,
                "tempo": 120.0
            },
            {
                "start_time": 10.2522727,
                "end_time": 10.6363636,
                "pitch": 54,
                "velocity": 40,
                "duration": 0.3840909,
                "tempo": 120.0
            },
            {
                "start_time": 10.6545455,
                "end_time": 10.7386364,
                "pitch": 47,
                "velocity": 40,
                "duration": 0.0840909,
                "tempo": 120.0
            },
            {
                "start_time": 10.7545455,
                "end_time": 10.8386364,
                "pitch": 48,
                "velocity": 40,
                "duration": 0.0840909,
                "tempo": 120.0
            },
            {
                "start_time": 10.8545455,
                "end_time": 11.0409091,
                "pitch": 49,
                "velocity": 40,
                "duration": 0.1863636,
                "tempo": 120.0
            },
            {
                "start_time": 11.0568182,
                "end_time": 11.4477273,
                "pitch": 52,
                "velocity": 40,
                "duration": 0.3909091,
                "tempo": 120.0
            },
            {
                "start_time": 11.4636364,
                "end_time": 11.6522727,
                "pitch": 54,
                "velocity": 40,
                "duration": 0.1886364,
                "tempo": 120.0
            },
            {
                "start_time": 11.6681818,
                "end_time": 11.75,
                "pitch": 57,
                "velocity": 40,
                "duration": 0.0818182,
                "tempo": 120.0
            },
            {
                "start_time": 11.7659091,
                "end_time": 11.8477273,
                "pitch": 59,
                "velocity": 40,
                "duration": 0.0818182,
                "tempo": 120.0
            },
            {
                "start_time": 11.8636364,
                "end_time": 12.4477273,
                "pitch": 43,
                "velocity": 40,
                "duration": 0.5840909,
                "tempo": 120.0
            },
            {
                "start_time": 12.4636364,
                "end_time": 12.85,
                "pitch": 54,
                "velocity": 40,
                "duration": 0.3863636,
                "tempo": 120.0
            },
            {
                "start_time": 12.8659091,
                "end_time": 13.05,
                "pitch": 48,
                "velocity": 40,
                "duration": 0.1840909,
                "tempo": 120.0
            },
            {
                "start_time": 13.0681818,
                "end_time": 13.2522727,
                "pitch": 48,
                "velocity": 40,
                "duration": 0.1840909,
                "tempo": 120.0
            },
            {
                "start_time": 13.2681818,
                "end_time": 13.4522727,
                "pitch": 48,
                "velocity": 40,
                "duration": 0.1840909,
                "tempo": 120.0
            },
            {
                "start_time": 13.4681818,
                "end_time": 13.5522727,
                "pitch": 55,
                "velocity": 40,
                "duration": 0.0840909,
                "tempo": 120.0
            },
            {
                "start_time": 13.5681818,
                "end_time": 13.8545455,
                "pitch": 48,
                "velocity": 40,
                "duration": 0.2863636,
                "tempo": 120.0
            },
            {
                "start_time": 13.8704545,
                "end_time": 14.0545455,
                "pitch": 50,
                "velocity": 40,
                "duration": 0.1840909,
                "tempo": 120.0
            },
            {
                "start_time": 14.0727273,
                "end_time": 14.2568182,
                "pitch": 43,
                "velocity": 40,
                "duration": 0.1840909,
                "tempo": 120.0
            },
            {
                "start_time": 14.2727273,
                "end_time": 14.3568182,
                "pitch": 45,
                "velocity": 40,
                "duration": 0.0840909,
                "tempo": 120.0
            },
            {
                "start_time": 14.3727273,
                "end_time": 14.8613636,
                "pitch": 48,
                "velocity": 40,
                "duration": 0.4886364,
                "tempo": 120.0
            },
            {
                "start_time": 14.8772727,
                "end_time": 15.0613636,
                "pitch": 52,
                "velocity": 40,
                "duration": 0.1840909,
                "tempo": 120.0
            },
            {
                "start_time": 15.0795455,
                "end_time": 15.1613636,
                "pitch": 55,
                "velocity": 40,
                "duration": 0.0818182,
                "tempo": 120.0
            },
            {
                "start_time": 15.1795455,
                "end_time": 15.4636364,
                "pitch": 48,
                "velocity": 40,
                "duration": 0.2840909,
                "tempo": 120.0
            },
            {
                "start_time": 15.4795455,
                "end_time": 15.6636364,
                "pitch": 50,
                "velocity": 40,
                "duration": 0.1840909,
                "tempo": 120.0
            },
            {
                "start_time": 15.6795455,
                "end_time": 16.0659091,
                "pitch": 43,
                "velocity": 40,
                "duration": 0.3863636,
                "tempo": 120.0
            },
            {
                "start_time": 16.0818182,
                "end_time": 16.4681818,
                "pitch": 45,
                "velocity": 40,
                "duration": 0.3863636,
                "tempo": 120.0
            },
            {
                "start_time": 16.4840909,
                "end_time": 16.6681818,
                "pitch": 45,
                "velocity": 40,
                "duration": 0.1840909,
                "tempo": 120.0
            },
            {
                "start_time": 16.6840909,
                "end_time": 16.7681818,
                "pitch": 52,
                "velocity": 40,
                "duration": 0.0840909,
                "tempo": 120.0
            },
            {
                "start_time": 16.7840909,
                "end_time": 17.0704545,
                "pitch": 45,
                "velocity": 40,
                "duration": 0.2863636,
                "tempo": 120.0
            },
            {
                "start_time": 17.0863636,
                "end_time": 17.2704545,
                "pitch": 45,
                "velocity": 40,
                "duration": 0.1840909,
                "tempo": 120.0
            },
            {
                "start_time": 17.2886364,
                "end_time": 17.4704545,
                "pitch": 50,
                "velocity": 40,
                "duration": 0.1818182,
                "tempo": 120.0
            },
            {
                "start_time": 17.4886364,
                "end_time": 17.6704545,
                "pitch": 52,
                "velocity": 40,
                "duration": 0.1818182,
                "tempo": 120.0
            },
            {
                "start_time": 17.6886364,
                "end_time": 18.0727273,
                "pitch": 50,
                "velocity": 40,
                "duration": 0.3840909,
                "tempo": 120.0
            },
            {
                "start_time": 18.0909091,
                "end_time": 18.1727273,
                "pitch": 50,
                "velocity": 40,
                "duration": 0.0818182,
                "tempo": 120.0
            },
            {
                "start_time": 18.1909091,
                "end_time": 18.2727273,
                "pitch": 55,
                "velocity": 40,
                "duration": 0.0818182,
                "tempo": 120.0
            },
            {
                "start_time": 18.2909091,
                "end_time": 18.3727273,
                "pitch": 57,
                "velocity": 40,
                "duration": 0.0818182,
                "tempo": 120.0
            },
            {
                "start_time": 18.3909091,
                "end_time": 19.2772727,
                "pitch": 50,
                "velocity": 40,
                "duration": 0.8863636,
                "tempo": 120.0
            },
            {
                "start_time": 19.2931818,
                "end_time": 19.4772727,
                "pitch": 47,
                "velocity": 40,
                "duration": 0.1840909,
                "tempo": 120.0
            },
            {
                "start_time": 19.4931818,
                "end_time": 19.6772727,
                "pitch": 47,
                "velocity": 40,
                "duration": 0.1840909,
                "tempo": 120.0
            },
            {
                "start_time": 19.6931818,
                "end_time": 19.8772727,
                "pitch": 64,
                "velocity": 40,
                "duration": 0.1840909,
                "tempo": 120.0
            },
            {
                "start_time": 19.8954545,
                "end_time": 20.0795455,
                "pitch": 47,
                "velocity": 40,
                "duration": 0.1840909,
                "tempo": 120.0
            },
            {
                "start_time": 20.0954545,
                "end_time": 20.2795455,
                "pitch": 47,
                "velocity": 40,
                "duration": 0.1840909,
                "tempo": 120.0
            },
            {
                "start_time": 20.2954545,
                "end_time": 20.4795455,
                "pitch": 47,
                "velocity": 40,
                "duration": 0.1840909,
                "tempo": 120.0
            },
            {
                "start_time": 20.4954545,
                "end_time": 20.6795455,
                "pitch": 51,
                "velocity": 40,
                "duration": 0.1840909,
                "tempo": 120.0
            },
            {
                "start_time": 20.6954545,
                "end_time": 20.7795455,
                "pitch": 47,
                "velocity": 40,
                "duration": 0.0840909,
                "tempo": 120.0
            },
            {
                "start_time": 20.7954545,
                "end_time": 21.0795455,
                "pitch": 52,
                "velocity": 40,
                "duration": 0.2840909,
                "tempo": 120.0
            },
            {
                "start_time": 21.0977273,
                "end_time": 21.2818182,
                "pitch": 47,
                "velocity": 40,
                "duration": 0.1840909,
                "tempo": 120.0
            },
            {
                "start_time": 21.2977273,
                "end_time": 21.4818182,
                "pitch": 54,
                "velocity": 40,
                "duration": 0.1840909,
                "tempo": 120.0
            },
            {
                "start_time": 21.4977273,
                "end_time": 21.6818182,
                "pitch": 47,
                "velocity": 40,
                "duration": 0.1840909,
                "tempo": 120.0
            },
            {
                "start_time": 21.6977273,
                "end_time": 21.8840909,
                "pitch": 52,
                "velocity": 40,
                "duration": 0.1863636,
                "tempo": 120.0
            },
            {
                "start_time": 21.9,
                "end_time": 22.0840909,
                "pitch": 47,
                "velocity": 40,
                "duration": 0.1840909,
                "tempo": 120.0
            },
            {
                "start_time": 22.1,
                "end_time": 22.25,
                "pitch": 54,
                "velocity": 40,
                "duration": 0.15,
                "tempo": 120.0
            },
            {
                "start_time": 22.2681818,
                "end_time": 22.3840909,
                "pitch": 47,
                "velocity": 40,
                "duration": 0.1159091,
                "tempo": 120.0
            },
            {
                "start_time": 22.4,
                "end_time": 22.4840909,
                "pitch": 48,
                "velocity": 40,
                "duration": 0.0840909,
                "tempo": 120.0
            },
            {
                "start_time": 22.5,
                "end_time": 22.6840909,
                "pitch": 49,
                "velocity": 40,
                "duration": 0.1840909,
                "tempo": 120.0
            },
            {
                "start_time": 22.7,
                "end_time": 22.8840909,
                "pitch": 49,
                "velocity": 40,
                "duration": 0.1840909,
                "tempo": 120.0
            },
            {
                "start_time": 22.9022727,
                "end_time": 23.0863636,
                "pitch": 56,
                "velocity": 40,
                "duration": 0.1840909,
                "tempo": 120.0
            },
            {
                "start_time": 23.1022727,
                "end_time": 23.1863636,
                "pitch": 49,
                "velocity": 40,
                "duration": 0.0840909,
                "tempo": 120.0
            },
            {
                "start_time": 23.2022727,
                "end_time": 23.4863636,
                "pitch": 54,
                "velocity": 40,
                "duration": 0.2840909,
                "tempo": 120.0
            },
            {
                "start_time": 23.5045455,
                "end_time": 23.6863636,
                "pitch": 56,
                "velocity": 40,
                "duration": 0.1818182,
                "tempo": 120.0
            },
            {
                "start_time": 23.7045455,
                "end_time": 23.8886364,
                "pitch": 55,
                "velocity": 40,
                "duration": 0.1840909,
                "tempo": 120.0
            },
            {
                "start_time": 23.9045455,
                "end_time": 24.0886364,
                "pitch": 54,
                "velocity": 40,
                "duration": 0.1840909,
                "tempo": 120.0
            },
            {
                "start_time": 24.1068182,
                "end_time": 24.1886364,
                "pitch": 56,
                "velocity": 40,
                "duration": 0.0818182,
                "tempo": 120.0
            },
            {
                "start_time": 24.2068182,
                "end_time": 24.4886364,
                "pitch": 56,
                "velocity": 40,
                "duration": 0.2818182,
                "tempo": 120.0
            },
            {
                "start_time": 24.5068182,
                "end_time": 24.6886364,
                "pitch": 49,
                "velocity": 40,
                "duration": 0.1818182,
                "tempo": 120.0
            },
            {
                "start_time": 24.7068182,
                "end_time": 25.6931818,
                "pitch": 49,
                "velocity": 40,
                "duration": 0.9863636,
                "tempo": 120.0
            },
            {
                "start_time": 25.7090909,
                "end_time": 26.2954545,
                "pitch": 42,
                "velocity": 40,
                "duration": 0.5863636,
                "tempo": 120.0
            },
            {
                "start_time": 26.3113636,
                "end_time": 26.6954545,
                "pitch": 54,
                "velocity": 40,
                "duration": 0.3840909,
                "tempo": 120.0
            },
            {
                "start_time": 26.7113636,
                "end_time": 26.7954545,
                "pitch": 47,
                "velocity": 40,
                "duration": 0.0840909,
                "tempo": 120.0
            },
            {
                "start_time": 26.8113636,
                "end_time": 26.8954545,
                "pitch": 48,
                "velocity": 40,
                "duration": 0.0840909,
                "tempo": 120.0
            },
            {
                "start_time": 26.9113636,
                "end_time": 27.0954545,
                "pitch": 49,
                "velocity": 40,
                "duration": 0.1840909,
                "tempo": 120.0
            },
            {
                "start_time": 27.1136364,
                "end_time": 27.4977273,
                "pitch": 52,
                "velocity": 40,
                "duration": 0.3840909,
                "tempo": 120.0
            },
            {
                "start_time": 27.5136364,
                "end_time": 27.6977273,
                "pitch": 54,
                "velocity": 40,
                "duration": 0.1840909,
                "tempo": 120.0
            },
            {
                "start_time": 27.7136364,
                "end_time": 27.7977273,
                "pitch": 57,
                "velocity": 40,
                "duration": 0.0840909,
                "tempo": 120.0
            },
            {
                "start_time": 27.8159091,
                "end_time": 27.9,
                "pitch": 59,
                "velocity": 40,
                "duration": 0.0840909,
                "tempo": 120.0
            },
            {
                "start_time": 27.9159091,
                "end_time": 28.5,
                "pitch": 43,
                "velocity": 40,
                "duration": 0.5840909,
                "tempo": 120.0
            },
            {
                "start_time": 28.5181818,
                "end_time": 28.9,
                "pitch": 54,
                "velocity": 40,
                "duration": 0.3818182,
                "tempo": 120.0
            },
            {
                "start_time": 28.9181818,
                "end_time": 29.5022727,
                "pitch": 42,
                "velocity": 40,
                "duration": 0.5840909,
                "tempo": 120.0
            },
            {
                "start_time": 29.5204545,
                "end_time": 29.9045455,
                "pitch": 54,
                "velocity": 40,
                "duration": 0.3840909,
                "tempo": 120.0
            },
            {
                "start_time": 29.9204545,
                "end_time": 30.0045455,
                "pitch": 47,
                "velocity": 40,
                "duration": 0.0840909,
                "tempo": 120.0
            },
            {
                "start_time": 30.0227273,
                "end_time": 30.1068182,
                "pitch": 48,
                "velocity": 40,
                "duration": 0.0840909,
                "tempo": 120.0
            },
            {
                "start_time": 30.1227273,
                "end_time": 30.3068182,
                "pitch": 49,
                "velocity": 40,
                "duration": 0.1840909,
                "tempo": 120.0
            },
            {
                "start_time": 30.3227273,
                "end_time": 30.7068182,
                "pitch": 52,
                "velocity": 40,
                "duration": 0.3840909,
                "tempo": 120.0
            },
            {
                "start_time": 30.7227273,
                "end_time": 30.9068182,
                "pitch": 54,
                "velocity": 40,
                "duration": 0.1840909,
                "tempo": 120.0
            },
            {
                "start_time": 30.9227273,
                "end_time": 31.0068182,
                "pitch": 57,
                "velocity": 40,
                "duration": 0.0840909,
                "tempo": 120.0
            },
            {
                "start_time": 31.0227273,
                "end_time": 31.1068182,
                "pitch": 59,
                "velocity": 40,
                "duration": 0.0840909,
                "tempo": 120.0
            },
            {
                "start_time": 31.125,
                "end_time": 31.7090909,
                "pitch": 43,
                "velocity": 40,
                "duration": 0.5840909,
                "tempo": 120.0
            },
            {
                "start_time": 31.725,
                "end_time": 32.1113636,
                "pitch": 54,
                "velocity": 40,
                "duration": 0.3863636,
                "tempo": 120.0
            },
            {
                "start_time": 32.1295455,
                "end_time": 32.7181818,
                "pitch": 42,
                "velocity": 40,
                "duration": 0.5886364,
                "tempo": 120.0
            },
            {
                "start_time": 32.7340909,
                "end_time": 33.1136364,
                "pitch": 54,
                "velocity": 40,
                "duration": 0.3795455,
                "tempo": 120.0
            },
            {
                "start_time": 33.1318182,
                "end_time": 33.2136364,
                "pitch": 47,
                "velocity": 40,
                "duration": 0.0818182,
                "tempo": 120.0
            },
            {
                "start_time": 33.2318182,
                "end_time": 33.3136364,
                "pitch": 48,
                "velocity": 40,
                "duration": 0.0818182,
                "tempo": 120.0
            },
            {
                "start_time": 33.3318182,
                "end_time": 33.5159091,
                "pitch": 49,
                "velocity": 40,
                "duration": 0.1840909,
                "tempo": 120.0
            },
            {
                "start_time": 33.5318182,
                "end_time": 33.9159091,
                "pitch": 52,
                "velocity": 40,
                "duration": 0.3840909,
                "tempo": 120.0
            },
            {
                "start_time": 33.9340909,
                "end_time": 34.1159091,
                "pitch": 54,
                "velocity": 40,
                "duration": 0.1818182,
                "tempo": 120.0
            },
            {
                "start_time": 34.1340909,
                "end_time": 34.2159091,
                "pitch": 57,
                "velocity": 40,
                "duration": 0.0818182,
                "tempo": 120.0
            },
            {
                "start_time": 34.2340909,
                "end_time": 34.3159091,
                "pitch": 59,
                "velocity": 40,
                "duration": 0.0818182,
                "tempo": 120.0
            },
            {
                "start_time": 34.3340909,
                "end_time": 34.9159091,
                "pitch": 43,
                "velocity": 40,
                "duration": 0.5818182,
                "tempo": 120.0
            },
            {
                "start_time": 34.9340909,
                "end_time": 35.3159091,
                "pitch": 54,
                "velocity": 40,
                "duration": 0.3818182,
                "tempo": 120.0
            },
            {
                "start_time": 35.3340909,
                "end_time": 35.9204545,
                "pitch": 42,
                "velocity": 40,
                "duration": 0.5863636,
                "tempo": 120.0
            },
            {
                "start_time": 35.9363636,
                "end_time": 36.3204545,
                "pitch": 54,
                "velocity": 40,
                "duration": 0.3840909,
                "tempo": 120.0
            },
            {
                "start_time": 36.3363636,
                "end_time": 36.4204545,
                "pitch": 47,
                "velocity": 40,
                "duration": 0.0840909,
                "tempo": 120.0
            },
            {
                "start_time": 36.4363636,
                "end_time": 36.5204545,
                "pitch": 48,
                "velocity": 40,
                "duration": 0.0840909,
                "tempo": 120.0
            },
            {
                "start_time": 36.5363636,
                "end_time": 36.7204545,
                "pitch": 49,
                "velocity": 40,
                "duration": 0.1840909,
                "tempo": 120.0
            },
            {
                "start_time": 36.7363636,
                "end_time": 37.1204545,
                "pitch": 52,
                "velocity": 40,
                "duration": 0.3840909,
                "tempo": 120.0
            },
            {
                "start_time": 37.1363636,
                "end_time": 37.3204545,
                "pitch": 54,
                "velocity": 40,
                "duration": 0.1840909,
                "tempo": 120.0
            },
            {
                "start_time": 37.3363636,
                "end_time": 37.4204545,
                "pitch": 57,
                "velocity": 40,
                "duration": 0.0840909,
                "tempo": 120.0
            },
            {
                "start_time": 37.4363636,
                "end_time": 37.5204545,
                "pitch": 59,
                "velocity": 40,
                "duration": 0.0840909,
                "tempo": 120.0
            },
            {
                "start_time": 37.5386364,
                "end_time": 38.1227273,
                "pitch": 43,
                "velocity": 40,
                "duration": 0.5840909,
                "tempo": 120.0
            },
            {
                "start_time": 38.1386364,
                "end_time": 38.5227273,
                "pitch": 54,
                "velocity": 40,
                "duration": 0.3840909,
                "tempo": 120.0
            },
            {
                "start_time": 38.5386364,
                "end_time": 38.7227273,
                "pitch": 48,
                "velocity": 40,
                "duration": 0.1840909,
                "tempo": 120.0
            },
            {
                "start_time": 38.7386364,
                "end_time": 38.9227273,
                "pitch": 48,
                "velocity": 40,
                "duration": 0.1840909,
                "tempo": 120.0
            },
            {
                "start_time": 38.9386364,
                "end_time": 39.1227273,
                "pitch": 48,
                "velocity": 40,
                "duration": 0.1840909,
                "tempo": 120.0
            },
            {
                "start_time": 39.1386364,
                "end_time": 39.2227273,
                "pitch": 55,
                "velocity": 40,
                "duration": 0.0840909,
                "tempo": 120.0
            },
            {
                "start_time": 39.2386364,
                "end_time": 39.5227273,
                "pitch": 48,
                "velocity": 40,
                "duration": 0.2840909,
                "tempo": 120.0
            },
            {
                "start_time": 39.5409091,
                "end_time": 39.725,
                "pitch": 50,
                "velocity": 40,
                "duration": 0.1840909,
                "tempo": 120.0
            },
            {
                "start_time": 39.7409091,
                "end_time": 39.925,
                "pitch": 43,
                "velocity": 40,
                "duration": 0.1840909,
                "tempo": 120.0
            },
            {
                "start_time": 39.9409091,
                "end_time": 40.025,
                "pitch": 45,
                "velocity": 40,
                "duration": 0.0840909,
                "tempo": 120.0
            },
            {
                "start_time": 40.0409091,
                "end_time": 40.525,
                "pitch": 48,
                "velocity": 40,
                "duration": 0.4840909,
                "tempo": 120.0
            },
            {
                "start_time": 40.5409091,
                "end_time": 40.725,
                "pitch": 52,
                "velocity": 40,
                "duration": 0.1840909,
                "tempo": 120.0
            },
            {
                "start_time": 40.7409091,
                "end_time": 40.825,
                "pitch": 55,
                "velocity": 40,
                "duration": 0.0840909,
                "tempo": 120.0
            },
            {
                "start_time": 40.8409091,
                "end_time": 41.125,
                "pitch": 48,
                "velocity": 40,
                "duration": 0.2840909,
                "tempo": 120.0
            },
            {
                "start_time": 41.1409091,
                "end_time": 41.325,
                "pitch": 50,
                "velocity": 40,
                "duration": 0.1840909,
                "tempo": 120.0
            },
            {
                "start_time": 41.3409091,
                "end_time": 41.7272727,
                "pitch": 43,
                "velocity": 40,
                "duration": 0.3863636,
                "tempo": 120.0
            },
            {
                "start_time": 41.7431818,
                "end_time": 42.1272727,
                "pitch": 45,
                "velocity": 40,
                "duration": 0.3840909,
                "tempo": 120.0
            },
            {
                "start_time": 42.1431818,
                "end_time": 42.3272727,
                "pitch": 45,
                "velocity": 40,
                "duration": 0.1840909,
                "tempo": 120.0
            },
            {
                "start_time": 42.3431818,
                "end_time": 42.4272727,
                "pitch": 52,
                "velocity": 40,
                "duration": 0.0840909,
                "tempo": 120.0
            },
            {
                "start_time": 42.4431818,
                "end_time": 42.7272727,
                "pitch": 45,
                "velocity": 40,
                "duration": 0.2840909,
                "tempo": 120.0
            },
            {
                "start_time": 42.7431818,
                "end_time": 42.9272727,
                "pitch": 45,
                "velocity": 40,
                "duration": 0.1840909,
                "tempo": 120.0
            },
            {
                "start_time": 42.9431818,
                "end_time": 43.1272727,
                "pitch": 50,
                "velocity": 40,
                "duration": 0.1840909,
                "tempo": 120.0
            },
            {
                "start_time": 43.1431818,
                "end_time": 43.3272727,
                "pitch": 52,
                "velocity": 40,
                "duration": 0.1840909,
                "tempo": 120.0
            },
            {
                "start_time": 43.3454545,
                "end_time": 43.7295455,
                "pitch": 50,
                "velocity": 40,
                "duration": 0.3840909,
                "tempo": 120.0
            },
            {
                "start_time": 43.7477273,
                "end_time": 43.8295455,
                "pitch": 50,
                "velocity": 40,
                "duration": 0.0818182,
                "tempo": 120.0
            },
            {
                "start_time": 43.8477273,
                "end_time": 43.9295455,
                "pitch": 55,
                "velocity": 40,
                "duration": 0.0818182,
                "tempo": 120.0
            },
            {
                "start_time": 43.9477273,
                "end_time": 44.0295455,
                "pitch": 57,
                "velocity": 40,
                "duration": 0.0818182,
                "tempo": 120.0
            },
            {
                "start_time": 44.0477273,
                "end_time": 44.9295455,
                "pitch": 50,
                "velocity": 40,
                "duration": 0.8818182,
                "tempo": 120.0
            },
            {
                "start_time": 44.9477273,
                "end_time": 45.1363636,
                "pitch": 47,
                "velocity": 40,
                "duration": 0.1886364,
                "tempo": 120.0
            },
            {
                "start_time": 45.1522727,
                "end_time": 45.3409091,
                "pitch": 47,
                "velocity": 40,
                "duration": 0.1886364,
                "tempo": 120.0
            },
            {
                "start_time": 45.3568182,
                "end_time": 45.5363636,
                "pitch": 64,
                "velocity": 40,
                "duration": 0.1795455,
                "tempo": 120.0
            },
            {
                "start_time": 45.5522727,
                "end_time": 45.7340909,
                "pitch": 47,
                "velocity": 40,
                "duration": 0.1818182,
                "tempo": 120.0
            },
            {
                "start_time": 45.75,
                "end_time": 45.9340909,
                "pitch": 47,
                "velocity": 40,
                "duration": 0.1840909,
                "tempo": 120.0
            },
            {
                "start_time": 45.95,
                "end_time": 46.1340909,
                "pitch": 47,
                "velocity": 40,
                "duration": 0.1840909,
                "tempo": 120.0
            },
            {
                "start_time": 46.15,
                "end_time": 46.3340909,
                "pitch": 51,
                "velocity": 40,
                "duration": 0.1840909,
                "tempo": 120.0
            },
            {
                "start_time": 46.35,
                "end_time": 46.4340909,
                "pitch": 47,
                "velocity": 40,
                "duration": 0.0840909,
                "tempo": 120.0
            },
            {
                "start_time": 46.45,
                "end_time": 46.7340909,
                "pitch": 52,
                "velocity": 40,
                "duration": 0.2840909,
                "tempo": 120.0
            },
            {
                "start_time": 46.75,
                "end_time": 46.9340909,
                "pitch": 47,
                "velocity": 40,
                "duration": 0.1840909,
                "tempo": 120.0
            },
            {
                "start_time": 46.95,
                "end_time": 47.1340909,
                "pitch": 54,
                "velocity": 40,
                "duration": 0.1840909,
                "tempo": 120.0
            },
            {
                "start_time": 47.15,
                "end_time": 47.3340909,
                "pitch": 47,
                "velocity": 40,
                "duration": 0.1840909,
                "tempo": 120.0
            },
            {
                "start_time": 47.35,
                "end_time": 47.5340909,
                "pitch": 52,
                "velocity": 40,
                "duration": 0.1840909,
                "tempo": 120.0
            },
            {
                "start_time": 47.5522727,
                "end_time": 47.7363636,
                "pitch": 47,
                "velocity": 40,
                "duration": 0.1840909,
                "tempo": 120.0
            },
            {
                "start_time": 47.7522727,
                "end_time": 47.9022727,
                "pitch": 54,
                "velocity": 40,
                "duration": 0.15,
                "tempo": 120.0
            },
            {
                "start_time": 47.9181818,
                "end_time": 48.0363636,
                "pitch": 47,
                "velocity": 40,
                "duration": 0.1181818,
                "tempo": 120.0
            },
            {
                "start_time": 48.0522727,
                "end_time": 48.1363636,
                "pitch": 48,
                "velocity": 40,
                "duration": 0.0840909,
                "tempo": 120.0
            },
            {
                "start_time": 48.1522727,
                "end_time": 48.3363636,
                "pitch": 49,
                "velocity": 40,
                "duration": 0.1840909,
                "tempo": 120.0
            },
            {
                "start_time": 48.3522727,
                "end_time": 48.5363636,
                "pitch": 49,
                "velocity": 40,
                "duration": 0.1840909,
                "tempo": 120.0
            },
            {
                "start_time": 48.5522727,
                "end_time": 48.7363636,
                "pitch": 56,
                "velocity": 40,
                "duration": 0.1840909,
                "tempo": 120.0
            },
            {
                "start_time": 48.7522727,
                "end_time": 48.8363636,
                "pitch": 49,
                "velocity": 40,
                "duration": 0.0840909,
                "tempo": 120.0
            },
            {
                "start_time": 48.8522727,
                "end_time": 49.1363636,
                "pitch": 54,
                "velocity": 40,
                "duration": 0.2840909,
                "tempo": 120.0
            },
            {
                "start_time": 49.1522727,
                "end_time": 49.3363636,
                "pitch": 56,
                "velocity": 40,
                "duration": 0.1840909,
                "tempo": 120.0
            },
            {
                "start_time": 49.3522727,
                "end_time": 49.5363636,
                "pitch": 55,
                "velocity": 40,
                "duration": 0.1840909,
                "tempo": 120.0
            },
            {
                "start_time": 49.5545455,
                "end_time": 49.7386364,
                "pitch": 54,
                "velocity": 40,
                "duration": 0.1840909,
                "tempo": 120.0
            },
            {
                "start_time": 49.7545455,
                "end_time": 49.8386364,
                "pitch": 56,
                "velocity": 40,
                "duration": 0.0840909,
                "tempo": 120.0
            },
            {
                "start_time": 49.8545455,
                "end_time": 50.1386364,
                "pitch": 56,
                "velocity": 40,
                "duration": 0.2840909,
                "tempo": 120.0
            },
            {
                "start_time": 50.1545455,
                "end_time": 50.3386364,
                "pitch": 49,
                "velocity": 40,
                "duration": 0.1840909,
                "tempo": 120.0
            },
            {
                "start_time": 50.3545455,
                "end_time": 51.3159091,
                "pitch": 49,
                "velocity": 40,
                "duration": 0.9613636,
                "tempo": 120.0
            }
        ]
    }
}