{
    "mood": "angry",
    "instruments": {
        "Lead 2 (sawtooth)": [
            {
                "start_time": 0.0159091,
                "end_time": 0.1840909,
                "pitch": 51,
                "velocity": 51,
                "duration": 0.1681818,
                "tempo": 120.0
            },
            {
                "start_time": 0.2,
                "end_time": 0.3840909,
                "pitch": 51,
                "velocity": 51,
                "duration": 0.1840909,
                "tempo": 120.0
            },
            {
                "start_time": 0.4,
                "end_time": 0.5795455,
                "pitch": 51,
                "velocity": 51,
                "duration": 0.1795455,
                "tempo": 120.0
            },
            {
                "start_time": 0.5954545,
                "end_time": 0.775,
                "pitch": 51,
                "velocity": 51,
                "duration": 0.1795455,
                "tempo": 120.0
            },
            {
                "start_time": 0.7931818,
                "end_time": 0.975,
                "pitch": 51,
                "velocity": 51,
                "duration": 0.1818182,
                "tempo": 120.0
            },
            {
                "start_time": 0.9931818,
                "end_time": 1.175,
                "pitch": 51,
                "velocity": 51,
                "duration": 0.1818182,
                "tempo": 120.0
            },
            {
                "start_time": 1.1931818,
                "end_time": 1.3795455,
                "pitch": 51,
                "velocity": 51,
                "duration": 0.1863636,
                "tempo": 120.0
            },
            {
                "start_time": 1.3977273,
                "end_time": 1.5863636,
                "pitch": 51,
                "velocity": 51,
                "duration": 0.1886364,
                "tempo": 120.0
            },
            {
                "start_time": 1.6022727,
                "end_time": 1.7818182,
                "pitch": 44,
                "velocity": 51,
                "duration": 0.1795455,
                "tempo": 120.0
            },
            {
                "start_time": 1.8,
                "end_time": 1.8795455,
                "pitch": 44,
                "velocity": 51,
                "duration": 0.0795455,
                "tempo": 120.0
            },
            {
                "start_time": 1.8977273,
                "end_time": 1.9795455,
                "pitch": 44,
                "velocity": 51,
                "duration": 0.0818182,
                "tempo": 120.0
            },
            {
                "start_time": 1.9954545,
                "end_time": 2.1818182,
                "pitch": 44,
                "velocity": 51,
                "duration": 0.1863636,
                "tempo": 120.0
            },
            {
                "start_time": 2.2,
                "end_time": 2.2863636,
                "pitch": 44,
                "velocity": 51,
                "duration": 0.0863636,
                "tempo": 120.0
            },
            {
                "start_time": 2.3022727,
                "end_time": 2.3886364,
                "pitch": 44,
                "velocity": 51,
                "duration": 0.0863636,
                "tempo": 120.0
            },
            {
                "start_time": 2.4045455,
                "end_time": 2.5863636,
                "pitch": 44,
                "velocity": 51,
                "duration": 0.1818182,
                "tempo": 120.0
            },
            {
                "start_time": 2.6022727,
                "end_time": 2.6840909,
                "pitch": 44,
                "velocity": 51,
                "duration": 0.0818182,
                "tempo": 120.0
            },
            {
                "start_time": 2.7,
                "end_time": 2.7818182,
                "pitch": 44,
                "velocity": 51,
                "duration": 0.0818182,
                "tempo": 120.0
            },
            {
                "start_time": 2.7977273,
                "end_time": 2.9863636,
                "pitch": 44,
                "velocity": 51,
                "duration": 0.1886364,
                "tempo": 120.0
            },
            {
                "start_time": 3.0022727,
                "end_time": 3.0886364,
                "pitch": 44,
                "velocity": 51,
                "duration": 0.0863636,
                "tempo": 120.0
            },
            {
                "start_time": 3.1045455,
                "end_time": 3.1909091,
                "pitch": 44,
                "velocity": 51,
                "duration": 0.0863636,
                "tempo": 120.0
            },
            {
                "start_time": 3.2090909,
                "end_time": 3.3886364,
                "pitch": 44,
                "velocity": 51,
                "duration": 0.1795455,
                "tempo": 120.0
            },
            {
                "start_time": 3.4045455,
                "end_time": 3.4863636,
                "pitch": 44,
                "velocity": 51,
                "duration": 0.0818182,
                "tempo": 120.0
            },
            {
                "start_time": 3.5022727,
                "end_time": 3.5840909,
                "pitch": 44,
                "velocity": 51,
                "duration": 0.0818182,
                "tempo": 120.0
            },
            {
                "start_time": 3.6,
                "end_time": 3.7840909,
                "pitch": 44,
                "velocity": 51,
                "duration": 0.1840909,
                "tempo": 120.0
            },
            {
                "start_time": 3.8,
                "end_time": 3.8840909,
                "pitch": 44,
                "velocity": 51,
                "duration": 0.0840909,
                "tempo": 120.0
            },
            {
                "start_time": 3.9,
                "end_time": 3.9840909,
                "pitch": 44,
                "velocity": 51,
                "duration": 0.0840909,
                "tempo": 120.0
            },
            {
                "start_time": 4.0,
                "end_time": 4.1840909,
                "pitch": 44,
                "velocity": 51,
                "duration": 0.1840909,
                "tempo": 120.0
            },
            {
                "start_time": 4.2,
                "end_time": 4.2840909,
                "pitch": 44,
                "velocity": 51,
                "duration": 0.0840909,
                "tempo": 120.0
            },
            {
                "start_time": 4.3,
                "end_time": 4.3840909,
                "pitch": 44,
                "velocity": 51,
                "duration": 0.0840909,
                "tempo": 120.0
            },
            {
                "start_time": 4.4,
                "end_time": 4.5840909,
                "pitch": 44,
                "velocity": 51,
                "duration": 0.1840909,
                "tempo": 120.0
            },
            {
                "start_time": 4.6022727,
                "end_time": 4.6863636,
                "pitch": 44,
                "velocity": 51,
                "duration": 0.0840909,
                "tempo": 120.0
            },
            {
                "start_time": 4.7022727,
                "end_time": 4.7863636,
                "pitch": 43,
                "velocity": 51,
                "duration": 0.0840909,
                "tempo": 120.0
            },
            {
                "start_time": 4.8022727,
                "end_time": 4.9863636,
                "pitch": 42,
                "velocity": 51,
                "duration": 0.1840909,
                "tempo": 120.0
            },
            {
                "start_time": 5.0022727,
                "end_time": 5.0863636,
                "pitch": 42,
                "velocity": 51,
                "duration": 0.0840909,
                "tempo": 120.0
            },
            {
                "start_time": 5.1022727,
                "end_time": 5.1863636,
                "pitch": 42,
                "velocity": 51,
                "duration": 0.0840909,
                "tempo": 120.0
            },
            {
                "start_time": 5.2022727,
                "end_time": 5.3909091,
                "pitch": 42,
                "velocity": 51,
                "duration": 0.1886364,
                "tempo": 120.0
            },
            {
                "start_time": 5.4090909,
                "end_time": 5.4931818,
                "pitch": 42,
                "velocity": 51,
                "duration": 0.0840909,
                "tempo": 120.0
            },
            {
                "start_time": 5.5113636,
                "end_time": 5.5954545,
                "pitch": 42,
                "velocity": 51,
                "duration": 0.0840909,
                "tempo": 120.0
            },
            {
                "start_time": 5.6136364,
                "end_time": 5.7931818,
                "pitch": 42,
                "velocity": 51,
                "duration": 0.1795455,
                "tempo": 120.0
            },
            {
                "start_time": 5.8090909,
                "end_time": 5.8909091,
                "pitch": 42,
                "velocity": 51,
                "duration": 0.0818182,
                "tempo": 120.0
            },
            {
                "start_time": 5.9068182,
                "end_time": 5.9886364,
                "pitch": 42,
                "velocity": 51,
                "duration": 0.0818182,
                "tempo": 120.0
            },
            {
                "start_time": 6.0068182,
                "end_time": 6.1909091,
                "pitch": 42,
                "velocity": 51,
                "duration": 0.1840909,
                "tempo": 120.0
            },
            {
                "start_time": 6.2068182,
                "end_time": 6.2909091,
                "pitch": 42,
                "velocity": 51,
                "duration": 0.0840909,
                "tempo": 120.0
            },
            {
                "start_time": 6.3068182,
                "end_time": 6.3909091,
                "pitch": 42,
                "velocity": 51,
                "duration": 0.0840909,
                "tempo": 120.0
            },
            {
                "start_time": 6.4090909,
                "end_time": 6.5931818,
                "pitch": 42,
                "velocity": 51,
                "duration": 0.1840909,
                "tempo": 120.0
            },
            {
                "start_time": 6.6090909,
                "end_time": 6.6931818,
                "pitch": 42,
                "velocity": 51,
                "duration": 0.0840909,
                "tempo": 120.0
            },
            {
                "start_time": 6.7113636,
                "end_time": 6.7954545,
                "pitch": 42,
                "velocity": 51,
                "duration": 0.0840909,
                "tempo": 120.0
            },
            {
                "start_time": 6.8113636,
                "end_time": 6.9954545,
                "pitch": 42,
                "velocity": 51,
                "duration": 0.1840909,
                "tempo": 120.0
            },
            {
                "start_time": 7.0113636,
                "end_time": 7.0954545,
                "pitch": 42,
                "velocity": 51,
                "duration": 0.0840909,
                "tempo": 120.0
            },
            {
                "start_time": 7.1113636,
                "end_time": 7.1954545,
                "pitch": 42,
                "velocity": 51,
                "duration": 0.0840909,
                "tempo": 120.0
            },
            {
                "start_time": 7.2113636,
                "end_time": 7.3954545,
                "pitch": 42,
                "velocity": 51,
                "duration": 0.1840909,
                "tempo": 120.0
            },
            {
                "start_time": 7.4136364,
                "end_time": 7.4954545,
                "pitch": 42,
                "velocity": 51,
                "duration": 0.0818182,
                "tempo": 120.0
            },
            {
                "start_time": 7.5136364,
                "end_time": 7.5977273,
                "pitch": 42,
                "velocity": 51,
                "duration": 0.0840909,
                "tempo": 120.0
            },
            {
                "start_time": 7.6136364,
                "end_time": 7.7977273,
                "pitch": 42,
                "velocity": 51,
                "duration": 0.1840909,
                "tempo": 120.0
            },
            {
                "start_time": 7.8136364,
                "end_time": 7.8977273,
                "pitch": 42,
                "velocity": 51,
                "duration": 0.0840909,
                "tempo": 120.0
            },
            {
                "start_time": 7.9136364,
                "end_time": 7.9977273,
                "pitch": 42,
                "velocity": 51,
                "duration": 0.0840909,
                "tempo": 120.0
            },
            {
                "start_time": 8.0136364,
                "end_time": 8.1977273,
                "pitch": 40,
                "velocity": 51,
                "duration": 0.1840909,
                "tempo": 120.0
            },
            {
                "start_time": 8.2159091,
                "end_time": 8.3,
                "pitch": 40,
                "velocity": 51,
                "duration": 0.0840909,
                "tempo": 120.0
            },
            {
                "start_time": 8.3159091,
                "end_time": 8.4,
                "pitch": 40,
                "velocity": 51,
                "duration": 0.0840909,
                "tempo": 120.0
            },
            {
                "start_time": 8.4159091,
                "end_time": 8.6,
                "pitch": 40,
                "velocity": 51,
                "duration": 0.1840909,
                "tempo": 120.0
            },
            {
                "start_time": 8.6181818,
                "end_time": 8.7022727,
                "pitch": 40,
                "velocity": 51,
                "duration": 0.0840909,
                "tempo": 120.0
            },
            {
                "start_time": 8.7181818,
                "end_time": 8.8022727,
                "pitch": 40,
                "velocity": 51,
                "duration": 0.0840909,
                "tempo": 120.0
            },
            {
                "start_time": 8.8181818,
                "end_time": 9.0045455,
                "pitch": 40,
                "velocity": 51,
                "duration": 0.1863636,
                "tempo": 120.0
            },
            {
                "start_time": 9.0204545,
                "end_time": 9.1045455,
                "pitch": 40,
                "velocity": 51,
                "duration": 0.0840909,
                "tempo": 120.0
            },
            {
                "start_time": 9.1204545,
                "end_time": 9.2045455,
                "pitch": 40,
                "velocity": 51,
                "duration": 0.0840909,
                "tempo": 120.0
            },
            {
                "start_time": 9.2227273,
                "end_time": 9.4045455,
                "pitch": 40,
                "velocity": 51,
                "duration": 0.1818182,
                "tempo": 120.0
            },
            {
                "start_time": 9.4227273,
                "end_time": 9.5045455,
                "pitch": 40,
                "velocity": 51,
                "duration": 0.0818182,
                "tempo": 120.0
            },
            {
                "start_time": 9.5227273,
                "end_time": 9.6045455,
                "pitch": 40,
                "velocity": 51,
                "duration": 0.0818182,
                "tempo": 120.0
            },
            {
                "start_time": 9.6227273,
                "end_time": 9.8068182,
                "pitch": 40,
                "velocity": 51,
                "duration": 0.1840909,
                "tempo": 120.0
            },
            {
                "start_time": 9.8227273,
                "end_time": 9.9068182,
                "pitch": 40,
                "velocity": 51,
                "duration": 0.0840909,
                "tempo": 120.0
            },
            {
                "start_time": 9.925,
                "end_time": 10.0068182,
                "pitch": 40,
                "velocity": 51,
                "duration": 0.0818182,
                "tempo": 120.0
            },
            {
                "start_time": 10.025,
                "end_time": 10.2090909,
                "pitch": 40,
                "velocity": 51,
                "duration": 0.1840909,
                "tempo": 120.0
            },
            {
                "start_time": 10.225,
                "end_time": 10.3090909,
                "pitch": 40,
                "velocity": 51,
                "duration": 0.0840909,
                "tempo": 120.0
            },
            {
                "start_time": 10.3272727,
                "end_time": 10.4113636,
                "pitch": 40,
                "velocity": 51,
                "duration": 0.0840909,
                "tempo": 120.0
            },
            {
                "start_time": 10.4272727,
                "end_time": 10.6113636,
                "pitch": 40,
                "velocity": 51,
                "duration": 0.1840909,
                "tempo": 120.0
            },
            {
                "start_time": 10.6295455,
                "end_time": 10.7136364,
                "pitch": 40,
                "velocity": 51,
                "duration": 0.0840909,
                "tempo": 120.0
            },
            {
                "start_time": 10.7295455,
                "end_time": 10.8136364,
                "pitch": 40,
                "velocity": 51,
                "duration": 0.0840909,
                "tempo": 120.0
            },
            {
                "start_time": 10.8295455,
                "end_time": 11.0136364,
                "pitch": 40,
                "velocity": 51,
                "duration": 0.1840909,
                "tempo": 120.0
            },
            {
                "start_time": 11.0318182,
                "end_time": 11.1159091,
                "pitch": 40,
                "velocity": 51,
                "duration": 0.0840909,
                "tempo": 120.0
            },
            {
                "start_time": 11.1318182,
                "end_time": 11.2159091,
                "pitch": 40,
                "velocity": 51,
                "duration": 0.0840909,
                "tempo": 120.0
            },
            {
                "start_time": 11.2318182,
                "end_time": 11.4159091,
                "pitch": 42,
                "velocity": 51,
                "duration": 0.1840909,
                "tempo": 120.0
            },
            {
                "start_time": 11.4318182,
                "end_time": 11.5159091,
                "pitch": 42,
                "velocity": 51,
                "duration": 0.0840909,
                "tempo": 120.0
            },
            {
                "start_time": 11.5318182,
                "end_time": 11.6159091,
                "pitch": 42,
                "velocity": 51,
                "duration": 0.0840909,
                "tempo": 120.0
            },
            {
                "start_time": 11.6318182,
                "end_time": 11.8181818,
                "pitch": 54,
                "velocity": 51,
                "duration": 0.1863636,
                "tempo": 120.0
            },
            {
                "start_time": 11.8340909,
                "end_time": 11.9181818,
                "pitch": 54,
                "velocity": 51,
                "duration": 0.0840909,
                "tempo": 120.0
            },
            {
                "start_time": 11.9340909,
                "end_time": 12.0181818,
                "pitch": 54,
                "velocity": 51,
                "duration": 0.0840909,
                "tempo": 120.0
            },
            {
                "start_time": 12.0363636,
                "end_time": 12.2204545,
                "pitch": 54,
                "velocity": 51,
                "duration": 0.1840909,
                "tempo": 120.0
            },
            {
                "start_time": 12.2363636,
                "end_time": 12.3204545,
                "pitch": 54,
                "velocity": 51,
                "duration": 0.0840909,
                "tempo": 120.0
            },
            {
                "start_time": 12.3363636,
                "end_time": 12.4204545,
                "pitch": 54,
                "velocity": 51,
                "duration": 0.0840909,
                "tempo": 120.0
            },
            {
                "start_time": 12.4386364,
                "end_time": 12.6272727,
                "pitch": 54,
                "velocity": 51,
                "duration": 0.1886364,
                "tempo": 120.0
            },
            {
                "start_time": 12.6431818,
                "end_time": 12.7295455,
                "pitch": 42,
                "velocity": 51,
                "duration": 0.0863636,
                "tempo": 120.0
            },
            {
                "start_time": 12.7454545,
                "end_time": 12.8318182,
                "pitch": 42,
                "velocity": 51,
                "duration": 0.0863636,
                "tempo": 120.0
            },
            {
                "start_time": 12.8477273,
                "end_time": 13.0295455,
                "pitch": 42,
                "velocity": 51,
                "duration": 0.1818182,
                "tempo": 120.0
            },
            {
                "start_time": 13.0454545,
                "end_time": 13.225,
                "pitch": 54,
                "velocity": 51,
                "duration": 0.1795455,
                "tempo": 120.0
            },
            {
                "start_time": 13.2409091,
                "end_time": 13.425,
                "pitch": 56,
                "velocity": 51,
                "duration": 0.1840909,
                "tempo": 120.0
            },
            {
                "start_time": 13.4409091,
                "end_time": 13.625,
                "pitch": 58,
                "velocity": 51,
                "duration": 0.1840909,
                "tempo": 120.0
            },
            {
                "start_time": 13.6409091,
                "end_time": 13.825,
                "pitch": 59,
                "velocity": 51,
                "duration": 0.1840909,
                "tempo": 120.0
            },
            {
                "start_time": 13.8431818,
                "end_time": 14.0272727,
                "pitch": 58,
                "velocity": 51,
                "duration": 0.1840909,
                "tempo": 120.0
            },
            {
                "start_time": 14.0431818,
                "end_time": 14.2272727,
                "pitch": 56,
                "velocity": 51,
                "duration": 0.1840909,
                "tempo": 120.0
            },
            {
                "start_time": 14.2454545,
                "end_time": 14.4295455,
                "pitch": 54,
                "velocity": 51,
                "duration": 0.1840909,
                "tempo": 120.0
            },
            {
                "start_time": 14.4454545,
                "end_time": 14.6318182,
                "pitch": 44,
                "velocity": 51,
                "duration": 0.1863636,
                "tempo": 120.0
            },
            {
                "start_time": 14.6477273,
                "end_time": 14.7318182,
                "pitch": 44,
                "velocity": 51,
                "duration": 0.0840909,
                "tempo": 120.0
            },
            {
                "start_time": 14.7477273,
                "end_time": 14.8318182,
                "pitch": 44,
                "velocity": 51,
                "duration": 0.0840909,
                "tempo": 120.0
            },
            {
                "start_time": 14.85,
                "end_time": 15.0363636,
                "pitch": 44,
                "velocity": 51,
                "duration": 0.1863636,
                "tempo": 120.0
            },
            {
                "start_time": 15.0545455,
                "end_time": 15.1409091,
                "pitch": 44,
                "velocity": 51,
                "duration": 0.0863636,
                "tempo": 120.0
            },
            {
                "start_time": 15.1568182,
                "end_time": 15.2431818,
                "pitch": 44,
                "velocity": 51,
                "duration": 0.0863636,
                "tempo": 120.0
            },
            {
                "start_time": 15.2590909,
                "end_time": 15.4386364,
                "pitch": 44,
                "velocity": 51,
                "duration": 0.1795455,
                "tempo": 120.0
            },
            {
                "start_time": 15.4568182,
                "end_time": 15.5386364,
                "pitch": 44,
                "velocity": 51,
                "duration": 0.0818182,
                "tempo": 120.0
            },
            {
                "start_time": 15.5545455,
                "end_time": 15.6363636,
                "pitch": 44,
                "velocity": 51,
                "duration": 0.0818182,
                "tempo": 120.0
            },
            {
                "start_time": 15.6522727,
                "end_time": 15.8363636,
                "pitch": 44,
                "velocity": 51,
                "duration": 0.1840909,
                "tempo": 120.0
            },
            {
                "start_time": 15.8522727,
                "end_time": 15.9363636,
                "pitch": 44,
                "velocity": 51,
                "duration": 0.0840909,
                "tempo": 120.0
            },
            {
                "start_time": 15.9545455,
                "end_time": 16.0386364,
                "pitch": 44,
                "velocity": 51,
                "duration": 0.0840909,
                "tempo": 120.0
            },
            {
                "start_time": 16.0545455,
                "end_time": 16.2386364,
                "pitch": 44,
                "velocity": 51,
                "duration": 0.1840909,
                "tempo": 120.0
            },
            {
                "start_time": 16.2568182,
                "end_time": 16.3409091,
                "pitch": 44,
                "velocity": 51,
                "duration": 0.0840909,
                "tempo": 120.0
            },
            {
                "start_time": 16.3568182,
                "end_time": 16.4409091,
                "pitch": 44,
                "velocity": 51,
                "duration": 0.0840909,
                "tempo": 120.0
            },
            {
                "start_time": 16.4568182,
                "end_time": 16.6454545,
                "pitch": 44,
                "velocity": 51,
                "duration": 0.1886364,
                "tempo": 120.0
            },
            {
                "start_time": 16.6636364,
                "end_time": 16.7477273,
                "pitch": 44,
                "velocity": 51,
                "duration": 0.0840909,
                "tempo": 120.0
            },
            {
                "start_time": 16.7659091,
                "end_time": 16.85,
                "pitch": 44,
                "velocity": 51,
                "duration": 0.0840909,
                "tempo": 120.0
            },
            {
                "start_time": 16.8681818,
                "end_time": 17.0477273,
                "pitch": 44,
                "velocity": 51,
                "duration": 0.1795455,
                "tempo": 120.0
            },
            {
                "start_time": 17.0636364,
                "end_time": 17.1454545,
                "pitch": 44,
                "velocity": 51,
                "duration": 0.0818182,
                "tempo": 120.0
            },
            {
                "start_time": 17.1613636,
                "end_time": 17.2431818,
                "pitch": 44,
                "velocity": 51,
                "duration": 0.0818182,
                "tempo": 120.0
            },
            {
                "start_time": 17.2590909,
                "end_time": 17.4431818,
                "pitch": 44,
                "velocity": 51,
                "duration": 0.1840909,
                "tempo": 120.0
            },
            {
                "start_time": 17.4590909,
                "end_time": 17.5431818,
                "pitch": 44,
                "velocity": 51,
                "duration": 0.0840909,
                "tempo": 120.0
            },
            {
                "start_time": 17.5590909,
                "end_time": 17.6431818,
                "pitch": 43,
                "velocity": 51,
                "duration": 0.0840909,
                "tempo": 120.0
            },
            {
                "start_time": 17.6590909,
                "end_time": 17.8454545,
                "pitch": 42,
                "velocity": 51,
                "duration": 0.1863636,
                "tempo": 120.0
            },
            {
                "start_time": 17.8613636,
                "end_time": 17.9454545,
                "pitch": 42,
                "velocity": 51,
                "duration": 0.0840909,
                "tempo": 120.0
            },
            {
                "start_time": 17.9613636,
                "end_time": 18.0454545,
                "pitch": 42,
                "velocity": 51,
                "duration": 0.0840909,
                "tempo": 120.0
            },
            {
                "start_time": 18.0636364,
                "end_time": 18.2454545,
                "pitch": 42,
                "velocity": 51,
                "duration": 0.1818182,
                "tempo": 120.0
            },
            {
                "start_time": 18.2636364,
                "end_time": 18.3454545,
                "pitch": 42,
                "velocity": 51,
                "duration": 0.0818182,
                "tempo": 120.0
            },
            {
                "start_time": 18.3636364,
                "end_time": 18.4454545,
                "pitch": 42,
                "velocity": 51,
                "duration": 0.0818182,
                "tempo": 120.0
            },
            {
                "start_time": 18.4636364,
                "end_time": 18.6454545,
                "pitch": 42,
                "velocity": 51,
                "duration": 0.1818182,
                "tempo": 120.0
            },
            {
                "start_time": 18.6636364,
                "end_time": 18.7454545,
                "pitch": 42,
                "velocity": 51,
                "duration": 0.0818182,
                "tempo": 120.0
            },
            {
                "start_time": 18.7636364,
                "end_time": 18.8454545,
                "pitch": 42,
                "velocity": 51,
                "duration": 0.0818182,
                "tempo": 120.0
            },
            {
                "start_time": 18.8636364,
                "end_time": 19.0477273,
                "pitch": 42,
                "velocity": 51,
                "duration": 0.1840909,
                "tempo": 120.0
            },
            {
                "start_time": 19.0636364,
                "end_time": 19.1477273,
                "pitch": 42,
                "velocity": 51,
                "duration": 0.0840909,
                "tempo": 120.0
            },
            {
                "start_time": 19.1659091,
                "end_time": 19.2477273,
                "pitch": 42,
                "velocity": 51,
                "duration": 0.0818182,
                "tempo": 120.0
            },
            {
                "start_time": 19.2659091,
                "end_time": 19.45,
                "pitch": 42,
                "velocity": 51,
                "duration": 0.1840909,
                "tempo": 120.0
            },
            {
                "start_time": 19.4659091,
                "end_time": 19.55,
                "pitch": 42,
                "velocity": 51,
                "duration": 0.0840909,
                "tempo": 120.0
            },
            {
                "start_time": 19.5659091,
                "end_time": 19.65,
                "pitch": 42,
                "velocity": 51,
                "duration": 0.0840909,
                "tempo": 120.0
            },
            {
                "start_time": 19.6659091,
                "end_time": 19.85,
                "pitch": 42,
                "velocity": 51,
                "duration": 0.1840909,
                "tempo": 120.0
            },
            {
                "start_time": 19.8659091,
                "end_time": 19.95,
                "pitch": 42,
                "velocity": 51,
                "duration": 0.0840909,
                "tempo": 120.0
            },
            {
                "start_time": 19.9681818,
                "end_time": 20.0522727,
                "pitch": 42,
                "velocity": 51,
                "duration": 0.0840909,
                "tempo": 120.0
            },
            {
                "start_time": 20.0681818,
                "end_time": 20.2522727,
                "pitch": 42,
                "velocity": 51,
                "duration": 0.1840909,
                "tempo": 120.0
            },
            {
                "start_time": 20.2681818,
                "end_time": 20.3522727,
                "pitch": 42,
                "velocity": 51,
                "duration": 0.0840909,
                "tempo": 120.0
            },
            {
                "start_time": 20.3681818,
                "end_time": 20.4522727,
                "pitch": 42,
                "velocity": 51,
                "duration": 0.0840909,
                "tempo": 120.0
            },
            {
                "start_time": 20.4681818,
                "end_time": 20.6522727,
                "pitch": 42,
                "velocity": 51,
                "duration": 0.1840909,
                "tempo": 120.0
            },
            {
                "start_time": 20.6681818,
                "end_time": 20.7522727,
                "pitch": 42,
                "velocity": 51,
                "duration": 0.0840909,
                "tempo": 120.0
            },
            {
                "start_time": 20.7681818,
                "end_time": 20.8522727,
                "pitch": 42,
                "velocity": 51,
                "duration": 0.0840909,
                "tempo": 120.0
            },
            {
                "start_time": 20.8681818,
                "end_time": 21.0522727,
                "pitch": 40,
                "velocity": 51,
                "duration": 0.1840909,
                "tempo": 120.0
            },
            {
                "start_time": 21.0704545,
                "end_time": 21.1545455,
                "pitch": 40,
                "velocity": 51,
                "duration": 0.0840909,
                "tempo": 120.0
            },
            {
                "start_time": 21.1704545,
                "end_time": 21.2545455,
                "pitch": 40,
                "velocity": 51,
                "duration": 0.0840909,
                "tempo": 120.0
            },
            {
                "start_time": 21.2704545,
                "end_time": 21.4545455,
                "pitch": 40,
                "velocity": 51,
                "duration": 0.1840909,
                "tempo": 120.0
            },
            {
                "start_time": 21.4704545,
                "end_time": 21.5545455,
                "pitch": 40,
                "velocity": 51,
                "duration": 0.0840909,
                "tempo": 120.0
            },
            {
                "start_time": 21.5704545,
                "end_time": 21.6545455,
                "pitch": 40,
                "velocity": 51,
                "duration": 0.0840909,
                "tempo": 120.0
            },
            {
                "start_time": 21.6704545,
                "end_time": 21.8545455,
                "pitch": 40,
                "velocity": 51,
                "duration": 0.1840909,
                "tempo": 120.0
            },
            {
                "start_time": 21.8727273,
                "end_time": 21.9568182,
                "pitch": 40,
                "velocity": 51,
                "duration": 0.0840909,
                "tempo": 120.0
            },
            {
                "start_time": 21.9727273,
                "end_time": 22.0568182,
                "pitch": 40,
                "velocity": 51,
                "duration": 0.0840909,
                "tempo": 120.0
            },
            {
                "start_time": 22.0727273,
                "end_time": 22.2568182,
                "pitch": 40,
                "velocity": 51,
                "duration": 0.1840909,
                "tempo": 120.0
            },
            {
                "start_time": 22.2727273,
                "end_time": 22.3568182,
                "pitch": 40,
                "velocity": 51,
                "duration": 0.0840909,
                "tempo": 120.0
            },
            {
                "start_time": 22.3727273,
                "end_time": 22.4568182,
                "pitch": 40,
                "velocity": 51,
                "duration": 0.0840909,
                "tempo": 120.0
            },
            {
                "start_time": 22.4727273,
                "end_time": 22.6568182,
                "pitch": 40,
                "velocity": 51,
                "duration": 0.1840909,
                "tempo": 120.0
            },
            {
                "start_time": 22.6727273,
                "end_time": 22.7568182,
                "pitch": 40,
                "velocity": 51,
                "duration": 0.0840909,
                "tempo": 120.0
            },
            {
                "start_time": 22.7727273,
                "end_time": 22.8568182,
                "pitch": 40,
                "velocity": 51,
                "duration": 0.0840909,
                "tempo": 120.0
            },
            {
                "start_time": 22.8727273,
                "end_time": 23.0590909,
                "pitch": 40,
                "velocity": 51,
                "duration": 0.1863636,
                "tempo": 120.0
            },
            {
                "start_time": 23.075,
                "end_time": 23.1590909,
                "pitch": 40,
                "velocity": 51,
                "duration": 0.0840909,
                "tempo": 120.0
            },
            {
                "start_time": 23.175,
                "end_time": 23.2590909,
                "pitch": 40,
                "velocity": 51,
                "duration": 0.0840909,
                "tempo": 120.0
            },
            {
                "start_time": 23.2772727,
                "end_time": 23.4590909,
                "pitch": 40,
                "velocity": 51,
                "duration": 0.1818182,
                "tempo": 120.0
            },
            {
                "start_time": 23.4772727,
                "end_time": 23.5590909,
                "pitch": 40,
                "velocity": 51,
                "duration": 0.0818182,
                "tempo": 120.0
            },
            {
                "start_time": 23.5772727,
                "end_time": 23.6590909,
                "pitch": 40,
                "velocity": 51,
                "duration": 0.0818182,
                "tempo": 120.0
            },
            {
                "start_time": 23.6772727,
                "end_time": 23.8613636,
                "pitch": 40,
                "velocity": 51,
                "duration": 0.1840909,
                "tempo": 120.0
            },
            {
                "start_time": 23.8772727,
                "end_time": 23.9613636,
                "pitch": 40,
                "velocity": 51,
                "duration": 0.0840909,
                "tempo": 120.0
            },
            {
                "start_time": 23.9772727,
                "end_time": 24.0613636,
                "pitch": 40,
                "velocity": 51,
                "duration": 0.0840909,
                "tempo": 120.0
            },
            {
                "start_time": 24.0795455,
                "end_time": 24.2613636,
                "pitch": 42,
                "velocity": 51,
                "duration": 0.1818182,
                "tempo": 120.0
            },
            {
                "start_time": 24.2795455,
                "end_time": 24.4613636,
                "pitch": 42,
                "velocity": 51,
                "duration": 0.1818182,
                "tempo": 120.0
            },
            {
                "start_time": 24.4795455,
                "end_time": 24.6613636,
                "pitch": 54,
                "velocity": 51,
                "duration": 0.1818182,
                "tempo": 120.0
            },
            {
                "start_time": 24.6795455,
                "end_time": 24.7613636,
                "pitch": 42,
                "velocity": 51,
                "duration": 0.0818182,
                "tempo": 120.0
            },
            {
                "start_time": 24.7795455,
                "end_time": 24.8613636,
                "pitch": 42,
                "velocity": 51,
                "duration": 0.0818182,
                "tempo": 120.0
            },
            {
                "start_time": 24.8795455,
                "end_time": 25.0636364,
                "pitch": 42,
                "velocity": 51,
                "duration": 0.1840909,
                "tempo": 120.0
            },
            {
                "start_time": 25.0795455,
                "end_time": 25.1636364,
                "pitch": 42,
                "velocity": 51,
                "duration": 0.0840909,
                "tempo": 120.0
            },
            {
                "start_time": 25.1818182,
                "end_time": 25.2659091,
                "pitch": 42,
                "velocity": 51,
                "duration": 0.0840909,
                "tempo": 120.0
            },
            {
                "start_time": 25.2818182,
                "end_time": 25.4659091,
                "pitch": 54,
                "velocity": 51,
                "duration": 0.1840909,
                "tempo": 120.0
            },
            {
                "start_time": 25.4818182,
                "end_time": 25.6659091,
                "pitch": 42,
                "velocity": 51,
                "duration": 0.1840909,
                "tempo": 120.0
            },
            {
                "start_time": 25.6818182,
                "end_time": 25.8659091,
                "pitch": 42,
                "velocity": 51,
                "duration": 0.1840909,
                "tempo": 120.0
            },
            {
                "start_time": 25.8840909,
                "end_time": 26.0681818,
                "pitch": 44,
                "velocity": 51,
                "duration": 0.1840909,
                "tempo": 120.0
            },
            {
                "start_time": 26.0840909,
                "end_time": 26.2681818,
                "pitch": 56,
                "velocity": 51,
                "duration": 0.1840909,
                "tempo": 120.0
            },
            {
                "start_time": 26.2840909,
                "end_time": 26.4681818,
                "pitch": 44,
                "velocity": 51,
                "duration": 0.1840909,
                "tempo": 120.0
            },
            {
                "start_time": 26.4840909,
                "end_time": 26.6681818,
                "pitch": 58,
                "velocity": 51,
                "duration": 0.1840909,
                "tempo": 120.0
            },
            {
                "start_time": 26.6840909,
                "end_time": 26.8681818,
                "pitch": 46,
                "velocity": 51,
                "duration": 0.1840909,
                "tempo": 120.0
            },
            {
                "start_time": 26.8840909,
                "end_time": 27.0727273,
                "pitch": 59,
                "velocity": 51,
                "duration": 0.1886364,
                "tempo": 120.0
            },
            {
                "start_time": 27.0886364,
                "end_time": 27.2772727,
                "pitch": 47,
                "velocity": 51,
                "duration": 0.1886364,
                "tempo": 120.0
            },
            {
                "start_time": 27.2954545,
                "end_time": 27.3795455,
                "pitch": 44,
                "velocity": 51,
                "duration": 0.0840909,
                "tempo": 120.0
            },
            {
                "start_time": 27.3954545,
                "end_time": 27.4795455,
                "pitch": 44,
                "velocity": 51,
                "duration": 0.0840909,
                "tempo": 120.0
            },
            {
                "start_time": 27.4954545,
                "end_time": 27.5795455,
                "pitch": 56,
                "velocity": 51,
                "duration": 0.0840909,
                "tempo": 120.0
            },
            {
                "start_time": 27.5977273,
                "end_time": 27.6818182,
                "pitch": 44,
                "velocity": 51,
                "duration": 0.0840909,
                "tempo": 120.0
            },
            {
                "start_time": 27.6977273,
                "end_time": 27.7795455,
                "pitch": 44,
                "velocity": 51,
                "duration": 0.0818182,
                "tempo": 120.0
            },
            {
                "start_time": 27.7954545,
                "end_time": 27.8772727,
                "pitch": 44,
                "velocity": 51,
                "duration": 0.0818182,
                "tempo": 120.0
            },
            {
                "start_time": 27.8931818,
                "end_time": 27.975,
                "pitch": 56,
                "velocity": 51,
                "duration": 0.0818182,
                "tempo": 120.0
            },
            {
                "start_time": 27.9931818,
                "end_time": 28.0727273,
                "pitch": 44,
                "velocity": 51,
                "duration": 0.0795455,
                "tempo": 120.0
            },
            {
                "start_time": 28.0909091,
                "end_time": 28.175,
                "pitch": 44,
                "velocity": 51,
                "duration": 0.0840909,
                "tempo": 120.0
            },
            {
                "start_time": 28.1931818,
                "end_time": 28.2772727,
                "pitch": 44,
                "velocity": 51,
                "duration": 0.0840909,
                "tempo": 120.0
            },
            {
                "start_time": 28.2954545,
                "end_time": 28.3818182,
                "pitch": 56,
                "velocity": 51,
                "duration": 0.0863636,
                "tempo": 120.0
            },
            {
                "start_time": 28.3977273,
                "end_time": 28.4840909,
                "pitch": 44,
                "velocity": 51,
                "duration": 0.0863636,
                "tempo": 120.0
            },
            {
                "start_time": 28.5,
                "end_time": 28.5818182,
                "pitch": 44,
                "velocity": 51,
                "duration": 0.0818182,
                "tempo": 120.0
            },
            {
                "start_time": 28.5977273,
                "end_time": 28.6795455,
                "pitch": 44,
                "velocity": 51,
                "duration": 0.0818182,
                "tempo": 120.0
            },
            {
                "start_time": 28.6977273,
                "end_time": 28.7772727,
                "pitch": 56,
                "velocity": 51,
                "duration": 0.0795455,
                "tempo": 120.0
            },
            {
                "start_time": 28.7954545,
                "end_time": 28.8772727,
                "pitch": 44,
                "velocity": 51,
                "duration": 0.0818182,
                "tempo": 120.0
            },
            {
                "start_time": 28.8931818,
                "end_time": 28.9772727,
                "pitch": 44,
                "velocity": 51,
                "duration": 0.0840909,
                "tempo": 120.0
            },
            {
                "start_time": 28.9931818,
                "end_time": 29.0772727,
                "pitch": 44,
                "velocity": 51,
                "duration": 0.0840909,
                "tempo": 120.0
            },
            {
                "start_time": 29.0931818,
                "end_time": 29.1772727,
                "pitch": 56,
                "velocity": 51,
                "duration": 0.0840909,
                "tempo": 120.0
            },
            {
                "start_time": 29.1954545,
                "end_time": 29.2795455,
                "pitch": 44,
                "velocity": 51,
                "duration": 0.0840909,
                "tempo": 120.0
            },
            {
                "start_time": 29.2954545,
                "end_time": 29.3795455,
                "pitch": 44,
                "velocity": 51,
                "duration": 0.0840909,
                "tempo": 120.0
            },
            {
                "start_time": 29.3954545,
                "end_time": 29.4795455,
                "pitch": 44,
                "velocity": 51,
                "duration": 0.0840909,
                "tempo": 120.0
            },
            {
                "start_time": 29.4954545,
                "end_time": 29.5795455,
                "pitch": 56,
                "velocity": 51,
                "duration": 0.0840909,
                "tempo": 120.0
            },
            {
                "start_time": 29.5954545,
                "end_time": 29.6795455,
                "pitch": 44,
                "velocity": 51,
                "duration": 0.0840909,
                "tempo": 120.0
            },
            {
                "start_time": 29.6954545,
                "end_time": 29.7818182,
                "pitch": 44,
                "velocity": 51,
                "duration": 0.0863636,
                "tempo": 120.0
            },
            {
                "start_time": 29.7977273,
                "end_time": 29.8840909,
                "pitch": 44,
                "velocity": 51,
                "duration": 0.0863636,
                "tempo": 120.0
            },
            {
                "start_time": 29.9,
                "end_time": 29.9863636,
                "pitch": 56,
                "velocity": 51,
                "duration": 0.0863636,
                "tempo": 120.0
            },
            {
                "start_time": 30.0022727,
                "end_time": 30.0886364,
                "pitch": 44,
                "velocity": 51,
                "duration": 0.0863636,
                "tempo": 120.0
            },
            {
                "start_time": 30.1068182,
                "end_time": 30.1886364,
                "pitch": 44,
                "velocity": 51,
                "duration": 0.0818182,
                "tempo": 120.0
            },
            {
                "start_time": 30.2045455,
                "end_time": 30.2863636,
                "pitch": 44,
                "velocity": 51,
                "duration": 0.0818182,
                "tempo": 120.0
            },
            {
                "start_time": 30.3022727,
                "end_time": 30.3840909,
                "pitch": 56,
                "velocity": 51,
                "duration": 0.0818182,
                "tempo": 120.0
            },
            {
                "start_time": 30.4,
                "end_time": 30.4818182,
                "pitch": 44,
                "velocity": 51,
                "duration": 0.0818182,
                "tempo": 120.0
            },
            {
                "start_time": 30.4977273,
                "end_time": 30.5818182,
                "pitch": 42,
                "velocity": 51,
                "duration": 0.0840909,
                "tempo": 120.0
            },
            {
                "start_time": 30.5977273,
                "end_time": 30.6818182,
                "pitch": 42,
                "velocity": 51,
                "duration": 0.0840909,
                "tempo": 120.0
            },
            {
                "start_time": 30.6977273,
                "end_time": 30.7818182,
                "pitch": 54,
                "velocity": 51,
                "duration": 0.0840909,
                "tempo": 120.0
            },
            {
                "start_time": 30.7977273,
                "end_time": 30.8818182,
                "pitch": 42,
                "velocity": 51,
                "duration": 0.0840909,
                "tempo": 120.0
            },
            {
                "start_time": 30.8977273,
                "end_time": 30.9818182,
                "pitch": 42,
                "velocity": 51,
                "duration": 0.0840909,
                "tempo": 120.0
            },
            {
                "start_time": 31.0,
                "end_time": 31.0818182,
                "pitch": 42,
                "velocity": 51,
                "duration": 0.0818182,
                "tempo": 120.0
            },
            {
                "start_time": 31.1,
                "end_time": 31.1840909,
                "pitch": 54,
                "velocity": 51,
                "duration": 0.0840909,
                "tempo": 120.0
            },
            {
                "start_time": 31.2,
                "end_time": 31.2840909,
                "pitch": 42,
                "velocity": 51,
                "duration": 0.0840909,
                "tempo": 120.0
            },
            {
                "start_time": 31.3,
                "end_time": 31.3840909,
                "pitch": 42,
                "velocity": 51,
                "duration": 0.0840909,
                "tempo": 120.0
            },
            {
                "start_time": 31.4,
                "end_time": 31.4840909,
                "pitch": 42,
                "velocity": 51,
                "duration": 0.0840909,
                "tempo": 120.0
            },
            {
                "start_time": 31.5,
                "end_time": 31.5840909,
                "pitch": 54,
                "velocity": 51,
                "duration": 0.0840909,
                "tempo": 120.0
            },
            {
                "start_time": 31.6,
                "end_time": 31.6840909,
                "pitch": 42,
                "velocity": 51,
                "duration": 0.0840909,
                "tempo": 120.0
            },
            {
                "start_time": 31.7,
                "end_time": 31.7840909,
                "pitch": 42,
                "velocity": 51,
                "duration": 0.0840909,
                "tempo": 120.0
            },
            {
                "start_time": 31.8022727,
                "end_time": 31.8863636,
                "pitch": 42,
                "velocity": 51,
                "duration": 0.0840909,
                "tempo": 120.0
            },
            {
                "start_time": 31.9022727,
                "end_time": 31.9863636,
                "pitch": 54,
                "velocity": 51,
                "duration": 0.0840909,
                "tempo": 120.0
            },
            {
                "start_time": 32.0022727,
                "end_time": 32.0863636,
                "pitch": 42,
                "velocity": 51,
                "duration": 0.0840909,
                "tempo": 120.0
            },
            {
                "start_time": 32.1045455,
                "end_time": 32.1863636,
                "pitch": 42,
                "velocity": 51,
                "duration": 0.0818182,
                "tempo": 120.0
            },
            {
                "start_time": 32.2045455,
                "end_time": 32.2863636,
                "pitch": 42,
                "velocity": 51,
                "duration": 0.0818182,
                "tempo": 120.0
            },
            {
                "start_time": 32.3045455,
                "end_time": 32.3863636,
                "pitch": 54,
                "velocity": 51,
                "duration": 0.0818182,
                "tempo": 120.0
            },
            {
                "start_time": 32.4045455,
                "end_time": 32.4863636,
                "pitch": 42,
                "velocity": 51,
                "duration": 0.0818182,
                "tempo": 120.0
            },
            {
                "start_time": 32.5045455,
                "end_time": 32.5863636,
                "pitch": 42,
                "velocity": 51,
                "duration": 0.0818182,
                "tempo": 120.0
            },
            {
                "start_time": 32.6045455,
                "end_time": 32.6863636,
                "pitch": 42,
                "velocity": 51,
                "duration": 0.0818182,
                "tempo": 120.0
            },
            {
                "start_time": 32.7045455,
                "end_time": 32.7863636,
                "pitch": 54,
                "velocity": 51,
                "duration": 0.0818182,
                "tempo": 120.0
            },
            {
                "start_time": 32.8045455,
                "end_time": 32.8863636,
                "pitch": 42,
                "velocity": 51,
                "duration": 0.0818182,
                "tempo": 120.0
            },
            {
                "start_time": 32.9045455,
                "end_time": 32.9886364,
                "pitch": 42,
                "velocity": 51,
                "duration": 0.0840909,
                "tempo": 120.0
            },
            {
                "start_time": 33.0068182,
                "end_time": 33.0909091,
                "pitch": 42,
                "velocity": 51,
                "duration": 0.0840909,
                "tempo": 120.0
            },
            {
                "start_time": 33.1090909,
                "end_time": 33.1954545,
                "pitch": 54,
                "velocity": 51,
                "duration": 0.0863636,
                "tempo": 120.0
            },
            {
                "start_time": 33.2113636,
                "end_time": 33.2977273,
                "pitch": 42,
                "velocity": 51,
                "duration": 0.0863636,
                "tempo": 120.0
            },
            {
                "start_time": 33.3136364,
                "end_time": 33.3954545,
                "pitch": 42,
                "velocity": 51,
                "duration": 0.0818182,
                "tempo": 120.0
            },
            {
                "start_time": 33.4113636,
                "end_time": 33.4931818,
                "pitch": 42,
                "velocity": 51,
                "duration": 0.0818182,
                "tempo": 120.0
            },
            {
                "start_time": 33.5113636,
                "end_time": 33.5931818,
                "pitch": 54,
                "velocity": 51,
                "duration": 0.0818182,
                "tempo": 120.0
            },
            {
                "start_time": 33.6090909,
                "end_time": 33.6909091,
                "pitch": 42,
                "velocity": 51,
                "duration": 0.0818182,
                "tempo": 120.0
            },
            {
                "start_time": 33.7068182,
                "end_time": 33.7909091,
                "pitch": 37,
                "velocity": 51,
                "duration": 0.0840909,
                "tempo": 120.0
            },
            {
                "start_time": 33.8068182,
                "end_time": 33.8909091,
                "pitch": 37,
                "velocity": 51,
                "duration": 0.0840909,
                "tempo": 120.0
            },
            {
                "start_time": 33.9068182,
                "end_time": 33.9909091,
                "pitch": 49,
                "velocity": 51,
                "duration": 0.0840909,
                "tempo": 120.0
            },
            {
                "start_time": 34.0068182,
                "end_time": 34.0909091,
                "pitch": 37,
                "velocity": 51,
                "duration": 0.0840909,
                "tempo": 120.0
            },
            {
                "start_time": 34.1068182,
                "end_time": 34.1909091,
                "pitch": 37,
                "velocity": 51,
                "duration": 0.0840909,
                "tempo": 120.0
            },
            {
                "start_time": 34.2068182,
                "end_time": 34.2909091,
                "pitch": 37,
                "velocity": 51,
                "duration": 0.0840909,
                "tempo": 120.0
            },
            {
                "start_time": 34.3068182,
                "end_time": 34.3909091,
                "pitch": 49,
                "velocity": 51,
                "duration": 0.0840909,
                "tempo": 120.0
            },
            {
                "start_time": 34.4068182,
                "end_time": 34.4909091,
                "pitch": 37,
                "velocity": 51,
                "duration": 0.0840909,
                "tempo": 120.0
            },
            {
                "start_time": 34.5068182,
                "end_time": 34.5909091,
                "pitch": 37,
                "velocity": 51,
                "duration": 0.0840909,
                "tempo": 120.0
            },
            {
                "start_time": 34.6090909,
                "end_time": 34.6954545,
                "pitch": 37,
                "velocity": 51,
                "duration": 0.0863636,
                "tempo": 120.0
            },
            {
                "start_time": 34.7113636,
                "end_time": 34.7977273,
                "pitch": 49,
                "velocity": 51,
                "duration": 0.0863636,
                "tempo": 120.0
            },
            {
                "start_time": 34.8136364,
                "end_time": 34.9,
                "pitch": 37,
                "velocity": 51,
                "duration": 0.0863636,
                "tempo": 120.0
            },
            {
                "start_time": 34.9181818,
                "end_time": 34.9977273,
                "pitch": 37,
                "velocity": 51,
                "duration": 0.0795455,
                "tempo": 120.0
            },
            {
                "start_time": 35.0159091,
                "end_time": 35.0977273,
                "pitch": 37,
                "velocity": 51,
                "duration": 0.0818182,
                "tempo": 120.0
            },
            {
                "start_time": 35.1136364,
                "end_time": 35.1954545,
                "pitch": 49,
                "velocity": 51,
                "duration": 0.0818182,
                "tempo": 120.0
            },
            {
                "start_time": 35.2113636,
                "end_time": 35.2931818,
                "pitch": 37,
                "velocity": 51,
                "duration": 0.0818182,
                "tempo": 120.0
            },
            {
                "start_time": 35.3090909,
                "end_time": 35.3931818,
                "pitch": 37,
                "velocity": 51,
                "duration": 0.0840909,
                "tempo": 120.0
            },
            {
                "start_time": 35.4090909,
                "end_time": 35.4931818,
                "pitch": 37,
                "velocity": 51,
                "duration": 0.0840909,
                "tempo": 120.0
            },
            {
                "start_time": 35.5113636,
                "end_time": 35.5954545,
                "pitch": 49,
                "velocity": 51,
                "duration": 0.0840909,
                "tempo": 120.0
            },
            {
                "start_time": 35.6113636,
                "end_time": 35.6954545,
                "pitch": 37,
                "velocity": 51,
                "duration": 0.0840909,
                "tempo": 120.0
            },
            {
                "start_time": 35.7113636,
                "end_time": 35.7954545,
                "pitch": 37,
                "velocity": 51,
                "duration": 0.0840909,
                "tempo": 120.0
            },
            {
                "start_time": 35.8113636,
                "end_time": 35.8954545,
                "pitch": 37,
                "velocity": 51,
                "duration": 0.0840909,
                "tempo": 120.0
            },
            {
                "start_time": 35.9113636,
                "end_time": 35.9954545,
                "pitch": 49,
                "velocity": 51,
                "duration": 0.0840909,
                "tempo": 120.0
            },
            {
                "start_time": 36.0113636,
                "end_time": 36.0954545,
                "pitch": 37,
                "velocity": 51,
                "duration": 0.0840909,
                "tempo": 120.0
            },
            {
                "start_time": 36.1113636,
                "end_time": 36.1954545,
                "pitch": 37,
                "velocity": 51,
                "duration": 0.0840909,
                "tempo": 120.0
            },
            {
                "start_time": 36.2113636,
                "end_time": 36.2954545,
                "pitch": 37,
                "velocity": 51,
                "duration": 0.0840909,
                "tempo": 120.0
            },
            {
                "start_time": 36.3113636,
                "end_time": 36.3954545,
                "pitch": 49,
                "velocity": 51,
                "duration": 0.0840909,
                "tempo": 120.0
            },
            {
                "start_time": 36.4113636,
                "end_time": 36.4954545,
                "pitch": 37,
                "velocity": 51,
                "duration": 0.0840909,
                "tempo": 120.0
            },
            {
                "start_time": 36.5113636,
                "end_time": 36.5954545,
                "pitch": 37,
                "velocity": 51,
                "duration": 0.0840909,
                "tempo": 120.0
            },
            {
                "start_time": 36.6113636,
                "end_time": 36.6954545,
                "pitch": 37,
                "velocity": 51,
                "duration": 0.0840909,
                "tempo": 120.0
            },
            {
                "start_time": 36.7113636,
                "end_time": 36.7954545,
                "pitch": 49,
                "velocity": 51,
                "duration": 0.0840909,
                "tempo": 120.0
            },
            {
                "start_time": 36.8113636,
                "end_time": 36.8954545,
                "pitch": 37,
                "velocity": 51,
                "duration": 0.0840909,
                "tempo": 120.0
            },
            {
                "start_time": 36.9113636,
                "end_time": 37.0954545,
                "pitch": 40,
                "velocity": 51,
                "duration": 0.1840909,
                "tempo": 120.0
            },
            {
                "start_time": 37.1113636,
                "end_time": 37.4954545,
                "pitch": 40,
                "velocity": 51,
                "duration": 0.3840909,
                "tempo": 120.0
            },
            {
                "start_time": 37.5136364,
                "end_time": 37.6977273,
                "pitch": 40,
                "velocity": 51,
                "duration": 0.1840909,
                "tempo": 120.0
            },
            {
                "start_time": 37.7136364,
                "end_time": 37.9022727,
                "pitch": 40,
                "velocity": 51,
                "duration": 0.1886364,
                "tempo": 120.0
            },
            {
                "start_time": 37.9204545,
                "end_time": 38.3045455,
                "pitch": 40,
                "velocity": 51,
                "duration": 0.3840909,
                "tempo": 120.0
            },
            {
                "start_time": 38.3204545,
                "end_time": 38.5022727,
                "pitch": 40,
                "velocity": 51,
                "duration": 0.1818182,
                "tempo": 120.0
            },
            {
                "start_time": 38.5181818,
                "end_time": 38.7,
                "pitch": 42,
                "velocity": 51,
                "duration": 0.1818182,
                "tempo": 120.0
            },
            {
                "start_time": 38.7181818,
                "end_time": 38.9,
                "pitch": 44,
                "velocity": 51,
                "duration": 0.1818182,
                "tempo": 120.0
            },
            {
                "start_time": 38.9181818,
                "end_time": 39.1,
                "pitch": 46,
                "velocity": 51,
                "duration": 0.1818182,
                "tempo": 120.0
            },
            {
                "start_time": 39.1181818,
                "end_time": 39.3,
                "pitch": 44,
                "velocity": 51,
                "duration": 0.1818182,
                "tempo": 120.0
            },
            {
                "start_time": 39.3181818,
                "end_time": 39.4977273,
                "pitch": 46,
                "velocity": 51,
                "duration": 0.1795455,
                "tempo": 120.0
            },
            {
                "start_time": 39.5136364,
                "end_time": 39.6931818,
                "pitch": 47,
                "velocity": 51,
                "duration": 0.1795455,
                "tempo": 120.0
            },
            {
                "start_time": 39.7090909,
                "end_time": 39.8977273,
                "pitch": 49,
                "velocity": 51,
                "duration": 0.1886364,
                "tempo": 120.0
            },
            {
                "start_time": 39.9159091,
                "end_time": 40.1022727,
                "pitch": 47,
                "velocity": 51,
                "duration": 0.1863636,
                "tempo": 120.0
            },
            {
                "start_time": 40.1204545,
                "end_time": 40.2068182,
                "pitch": 44,
                "velocity": 51,
                "duration": 0.0863636,
                "tempo": 120.0
            },
            {
                "start_time": 40.2227273,
                "end_time": 40.3090909,
                "pitch": 44,
                "velocity": 51,
                "duration": 0.0863636,
                "tempo": 120.0
            },
            {
                "start_time": 40.325,
                "end_time": 40.4113636,
                "pitch": 56,
                "velocity": 51,
                "duration": 0.0863636,
                "tempo": 120.0
            },
            {
                "start_time": 40.4295455,
                "end_time": 40.5136364,
                "pitch": 44,
                "velocity": 51,
                "duration": 0.0840909,
                "tempo": 120.0
            },
            {
                "start_time": 40.5318182,
                "end_time": 40.6136364,
                "pitch": 44,
                "velocity": 51,
                "duration": 0.0818182,
                "tempo": 120.0
            },
            {
                "start_time": 40.6295455,
                "end_time": 40.7113636,
                "pitch": 44,
                "velocity": 51,
                "duration": 0.0818182,
                "tempo": 120.0
            },
            {
                "start_time": 40.7272727,
                "end_time": 40.8090909,
                "pitch": 56,
                "velocity": 51,
                "duration": 0.0818182,
                "tempo": 120.0
            },
            {
                "start_time": 40.825,
                "end_time": 40.9068182,
                "pitch": 44,
                "velocity": 51,
                "duration": 0.0818182,
                "tempo": 120.0
            },
            {
                "start_time": 40.9227273,
                "end_time": 41.0090909,
                "pitch": 44,
                "velocity": 51,
                "duration": 0.0863636,
                "tempo": 120.0
            },
            {
                "start_time": 41.025,
                "end_time": 41.1113636,
                "pitch": 44,
                "velocity": 51,
                "duration": 0.0863636,
                "tempo": 120.0
            },
            {
                "start_time": 41.1295455,
                "end_time": 41.2136364,
                "pitch": 56,
                "velocity": 51,
                "duration": 0.0840909,
                "tempo": 120.0
            },
            {
                "start_time": 41.2318182,
                "end_time": 41.3159091,
                "pitch": 44,
                "velocity": 51,
                "duration": 0.0840909,
                "tempo": 120.0
            },
            {
                "start_time": 41.3340909,
                "end_time": 41.4159091,
                "pitch": 44,
                "velocity": 51,
                "duration": 0.0818182,
                "tempo": 120.0
            },
            {
                "start_time": 41.4318182,
                "end_time": 41.5136364,
                "pitch": 44,
                "velocity": 51,
                "duration": 0.0818182,
                "tempo": 120.0
            },
            {
                "start_time": 41.5295455,
                "end_time": 41.6113636,
                "pitch": 56,
                "velocity": 51,
                "duration": 0.0818182,
                "tempo": 120.0
            },
            {
                "start_time": 41.6272727,
                "end_time": 41.7090909,
                "pitch": 44,
                "velocity": 51,
                "duration": 0.0818182,
                "tempo": 120.0
            },
            {
                "start_time": 41.7272727,
                "end_time": 41.8090909,
                "pitch": 44,
                "velocity": 51,
                "duration": 0.0818182,
                "tempo": 120.0
            },
            {
                "start_time": 41.8272727,
                "end_time": 41.9090909,
                "pitch": 44,
                "velocity": 51,
                "duration": 0.0818182,
                "tempo": 120.0
            },
            {
                "start_time": 41.9272727,
                "end_time": 42.0090909,
                "pitch": 56,
                "velocity": 51,
                "duration": 0.0818182,
                "tempo": 120.0
            },
            {
                "start_time": 42.0272727,
                "end_time": 42.1090909,
                "pitch": 44,
                "velocity": 51,
                "duration": 0.0818182,
                "tempo": 120.0
            },
            {
                "start_time": 42.1272727,
                "end_time": 42.2090909,
                "pitch": 44,
                "velocity": 51,
                "duration": 0.0818182,
                "tempo": 120.0
            },
            {
                "start_time": 42.2272727,
                "end_time": 42.3090909,
                "pitch": 44,
                "velocity": 51,
                "duration": 0.0818182,
                "tempo": 120.0
            },
            {
                "start_time": 42.3272727,
                "end_time": 42.4090909,
                "pitch": 56,
                "velocity": 51,
                "duration": 0.0818182,
                "tempo": 120.0
            },
            {
                "start_time": 42.4272727,
                "end_time": 42.5090909,
                "pitch": 44,
                "velocity": 51,
                "duration": 0.0818182,
                "tempo": 120.0
            },
            {
                "start_time": 42.5272727,
                "end_time": 42.6113636,
                "pitch": 44,
                "velocity": 51,
                "duration": 0.0840909,
                "tempo": 120.0
            },
            {
                "start_time": 42.6295455,
                "end_time": 42.7136364,
                "pitch": 44,
                "velocity": 51,
                "duration": 0.0840909,
                "tempo": 120.0
            },
            {
                "start_time": 42.7318182,
                "end_time": 42.8181818,
                "pitch": 56,
                "velocity": 51,
                "duration": 0.0863636,
                "tempo": 120.0
            },
            {
                "start_time": 42.8340909,
                "end_time": 42.9204545,
                "pitch": 44,
                "velocity": 51,
                "duration": 0.0863636,
                "tempo": 120.0
            },
            {
                "start_time": 42.9363636,
                "end_time": 43.0181818,
                "pitch": 44,
                "velocity": 51,
                "duration": 0.0818182,
                "tempo": 120.0
            },
            {
                "start_time": 43.0340909,
                "end_time": 43.1159091,
                "pitch": 44,
                "velocity": 51,
                "duration": 0.0818182,
                "tempo": 120.0
            },
            {
                "start_time": 43.1340909,
                "end_time": 43.2136364,
                "pitch": 56,
                "velocity": 51,
                "duration": 0.0795455,
                "tempo": 120.0
            },
            {
                "start_time": 43.2318182,
                "end_time": 43.3136364,
                "pitch": 44,
                "velocity": 51,
                "duration": 0.0818182,
                "tempo": 120.0
            },
            {
                "start_time": 43.3295455,
                "end_time": 43.4136364,
                "pitch": 42,
                "velocity": 51,
                "duration": 0.0840909,
                "tempo": 120.0
            },
            {
                "start_time": 43.4295455,
                "end_time": 43.5136364,
                "pitch": 42,
                "velocity": 51,
                "duration": 0.0840909,
                "tempo": 120.0
            },
            {
                "start_time": 43.5295455,
                "end_time": 43.6136364,
                "pitch": 54,
                "velocity": 51,
                "duration": 0.0840909,
                "tempo": 120.0
            },
            {
                "start_time": 43.6318182,
                "end_time": 43.7159091,
                "pitch": 42,
                "velocity": 51,
                "duration": 0.0840909,
                "tempo": 120.0
            },
            {
                "start_time": 43.7318182,
                "end_time": 43.8159091,
                "pitch": 42,
                "velocity": 51,
                "duration": 0.0840909,
                "tempo": 120.0
            },
            {
                "start_time": 43.8318182,
                "end_time": 43.9159091,
                "pitch": 42,
                "velocity": 51,
                "duration": 0.0840909,
                "tempo": 120.0
            },
            {
                "start_time": 43.9318182,
                "end_time": 44.0159091,
                "pitch": 54,
                "velocity": 51,
                "duration": 0.0840909,
                "tempo": 120.0
            },
            {
                "start_time": 44.0318182,
                "end_time": 44.1159091,
                "pitch": 42,
                "velocity": 51,
                "duration": 0.0840909,
                "tempo": 120.0
            },
            {
                "start_time": 44.1318182,
                "end_time": 44.2181818,
                "pitch": 42,
                "velocity": 51,
                "duration": 0.0863636,
                "tempo": 120.0
            },
            {
                "start_time": 44.2340909,
                "end_time": 44.3204545,
                "pitch": 42,
                "velocity": 51,
                "duration": 0.0863636,
                "tempo": 120.0
            },
            {
                "start_time": 44.3363636,
                "end_time": 44.4227273,
                "pitch": 54,
                "velocity": 51,
                "duration": 0.0863636,
                "tempo": 120.0
            },
            {
                "start_time": 44.4386364,
                "end_time": 44.525,
                "pitch": 42,
                "velocity": 51,
                "duration": 0.0863636,
                "tempo": 120.0
            },
            {
                "start_time": 44.5431818,
                "end_time": 44.625,
                "pitch": 42,
                "velocity": 51,
                "duration": 0.0818182,
                "tempo": 120.0
            },
            {
                "start_time": 44.6409091,
                "end_time": 44.7227273,
                "pitch": 42,
                "velocity": 51,
                "duration": 0.0818182,
                "tempo": 120.0
            },
            {
                "start_time": 44.7386364,
                "end_time": 44.8204545,
                "pitch": 54,
                "velocity": 51,
                "duration": 0.0818182,
                "tempo": 120.0
            },
            {
                "start_time": 44.8363636,
                "end_time": 44.9181818,
                "pitch": 42,
                "velocity": 51,
                "duration": 0.0818182,
                "tempo": 120.0
            },
            {
                "start_time": 44.9340909,
                "end_time": 45.0181818,
                "pitch": 42,
                "velocity": 51,
                "duration": 0.0840909,
                "tempo": 120.0
            },
            {
                "start_time": 45.0340909,
                "end_time": 45.1181818,
                "pitch": 42,
                "velocity": 51,
                "duration": 0.0840909,
                "tempo": 120.0
            },
            {
                "start_time": 45.1340909,
                "end_time": 45.2181818,
                "pitch": 54,
                "velocity": 51,
                "duration": 0.0840909,
                "tempo": 120.0
            },
            {
                "start_time": 45.2340909,
                "end_time": 45.3181818,
                "pitch": 42,
                "velocity": 51,
                "duration": 0.0840909,
                "tempo": 120.0
            },
            {
                "start_time": 45.3340909,
                "end_time": 45.4181818,
                "pitch": 42,
                "velocity": 51,
                "duration": 0.0840909,
                "tempo": 120.0
            },
            {
                "start_time": 45.4363636,
                "end_time": 45.5181818,
                "pitch": 42,
                "velocity": 51,
                "duration": 0.0818182,
                "tempo": 120.0
            },
            {
                "start_time": 45.5363636,
                "end_time": 45.6204545,
                "pitch": 54,
                "velocity": 51,
                "duration": 0.0840909,
                "tempo": 120.0
            },
            {
                "start_time": 45.6363636,
                "end_time": 45.7204545,
                "pitch": 42,
                "velocity": 51,
                "duration": 0.0840909,
                "tempo": 120.0
            },
            {
                "start_time": 45.7363636,
                "end_time": 45.8227273,
                "pitch": 42,
                "velocity": 51,
                "duration": 0.0863636,
                "tempo": 120.0
            },
            {
                "start_time": 45.8409091,
                "end_time": 45.925,
                "pitch": 42,
                "velocity": 51,
                "duration": 0.0840909,
                "tempo": 120.0
            },
            {
                "start_time": 45.9431818,
                "end_time": 46.0272727,
                "pitch": 54,
                "velocity": 51,
                "duration": 0.0840909,
                "tempo": 120.0
            },
            {
                "start_time": 46.0454545,
                "end_time": 46.1318182,
                "pitch": 42,
                "velocity": 51,
                "duration": 0.0863636,
                "tempo": 120.0
            },
            {
                "start_time": 46.1477273,
                "end_time": 46.2295455,
                "pitch": 42,
                "velocity": 51,
                "duration": 0.0818182,
                "tempo": 120.0
            },
            {
                "start_time": 46.2454545,
                "end_time": 46.3272727,
                "pitch": 42,
                "velocity": 51,
                "duration": 0.0818182,
                "tempo": 120.0
            },
            {
                "start_time": 46.3431818,
                "end_time": 46.425,
                "pitch": 54,
                "velocity": 51,
                "duration": 0.0818182,
                "tempo": 120.0
            },
            {
                "start_time": 46.4431818,
                "end_time": 46.525,
                "pitch": 42,
                "velocity": 51,
                "duration": 0.0818182,
                "tempo": 120.0
            },
            {
                "start_time": 46.5409091,
                "end_time": 46.6227273,
                "pitch": 37,
                "velocity": 51,
                "duration": 0.0818182,
                "tempo": 120.0
            },
            {
                "start_time": 46.6409091,
                "end_time": 46.7227273,
                "pitch": 37,
                "velocity": 51,
                "duration": 0.0818182,
                "tempo": 120.0
            },
            {
                "start_time": 46.7409091,
                "end_time": 46.8227273,
                "pitch": 49,
                "velocity": 51,
                "duration": 0.0818182,
                "tempo": 120.0
            },
            {
                "start_time": 46.8409091,
                "end_time": 46.9227273,
                "pitch": 37,
                "velocity": 51,
                "duration": 0.0818182,
                "tempo": 120.0
            },
            {
                "start_time": 46.9409091,
                "end_time": 47.0227273,
                "pitch": 37,
                "velocity": 51,
                "duration": 0.0818182,
                "tempo": 120.0
            },
            {
                "start_time": 47.0409091,
                "end_time": 47.1227273,
                "pitch": 37,
                "velocity": 51,
                "duration": 0.0818182,
                "tempo": 120.0
            },
            {
                "start_time": 47.1409091,
                "end_time": 47.2227273,
                "pitch": 49,
                "velocity": 51,
                "duration": 0.0818182,
                "tempo": 120.0
            },
            {
                "start_time": 47.2409091,
                "end_time": 47.3227273,
                "pitch": 37,
                "velocity": 51,
                "duration": 0.0818182,
                "tempo": 120.0
            },
            {
                "start_time": 47.3409091,
                "end_time": 47.425,
                "pitch": 37,
                "velocity": 51,
                "duration": 0.0840909,
                "tempo": 120.0
            },
            {
                "start_time": 47.4431818,
                "end_time": 47.5272727,
                "pitch": 37,
                "velocity": 51,
                "duration": 0.0840909,
                "tempo": 120.0
            },
            {
                "start_time": 47.5454545,
                "end_time": 47.6318182,
                "pitch": 49,
                "velocity": 51,
                "duration": 0.0863636,
                "tempo": 120.0
            },
            {
                "start_time": 47.6477273,
                "end_time": 47.7340909,
                "pitch": 37,
                "velocity": 51,
                "duration": 0.0863636,
                "tempo": 120.0
            },
            {
                "start_time": 47.75,
                "end_time": 47.8318182,
                "pitch": 37,
                "velocity": 51,
                "duration": 0.0818182,
                "tempo": 120.0
            },
            {
                "start_time": 47.85,
                "end_time": 47.9295455,
                "pitch": 37,
                "velocity": 51,
                "duration": 0.0795455,
                "tempo": 120.0
            },
            {
                "start_time": 47.9477273,
                "end_time": 48.0295455,
                "pitch": 49,
                "velocity": 51,
                "duration": 0.0818182,
                "tempo": 120.0
            },
            {
                "start_time": 48.0454545,
                "end_time": 48.1272727,
                "pitch": 37,
                "velocity": 51,
                "duration": 0.0818182,
                "tempo": 120.0
            },
            {
                "start_time": 48.1431818,
                "end_time": 48.2272727,
                "pitch": 37,
                "velocity": 51,
                "duration": 0.0840909,
                "tempo": 120.0
            },
            {
                "start_time": 48.2431818,
                "end_time": 48.3272727,
                "pitch": 37,
                "velocity": 51,
                "duration": 0.0840909,
                "tempo": 120.0
            },
            {
                "start_time": 48.3431818,
                "end_time": 48.4272727,
                "pitch": 49,
                "velocity": 51,
                "duration": 0.0840909,
                "tempo": 120.0
            },
            {
                "start_time": 48.4431818,
                "end_time": 48.5272727,
                "pitch": 37,
                "velocity": 51,
                "duration": 0.0840909,
                "tempo": 120.0
            },
            {
                "start_time": 48.5431818,
                "end_time": 48.6272727,
                "pitch": 37,
                "velocity": 51,
                "duration": 0.0840909,
                "tempo": 120.0
            },
            {
                "start_time": 48.6431818,
                "end_time": 48.7272727,
                "pitch": 37,
                "velocity": 51,
                "duration": 0.0840909,
                "tempo": 120.0
            },
            {
                "start_time": 48.7431818,
                "end_time": 48.8272727,
                "pitch": 49,
                "velocity": 51,
                "duration": 0.0840909,
                "tempo": 120.0
            },
            {
                "start_time": 48.8431818,
                "end_time": 48.9272727,
                "pitch": 37,
                "velocity": 51,
                "duration": 0.0840909,
                "tempo": 120.0
            },
            {
                "start_time": 48.9431818,
                "end_time": 49.0272727,
                "pitch": 37,
                "velocity": 51,
                "duration": 0.0840909,
                "tempo": 120.0
            },
            {
                "start_time": 49.0431818,
                "end_time": 49.1272727,
                "pitch": 37,
                "velocity": 51,
                "duration": 0.0840909,
                "tempo": 120.0
            },
            {
                "start_time": 49.1431818,
                "end_time": 49.2272727,
                "pitch": 49,
                "velocity": 51,
                "duration": 0.0840909,
                "tempo": 120.0
            },
            {
                "start_time": 49.2431818,
                "end_time": 49.3272727,
                "pitch": 37,
                "velocity": 51,
                "duration": 0.0840909,
                "tempo": 120.0
            },
            {
                "start_time": 49.3431818,
                "end_time": 49.4272727,
                "pitch": 37,
                "velocity": 51,
                "duration": 0.0840909,
                "tempo": 120.0
            },
            {
                "start_time": 49.4431818,
                "end_time": 49.5272727,
                "pitch": 37,
                "velocity": 51,
                "duration": 0.0840909,
                "tempo": 120.0
            },
            {
                "start_time": 49.5454545,
                "end_time": 49.6272727,
                "pitch": 49,
                "velocity": 51,
                "duration": 0.0818182,
                "tempo": 120.0
            },
            {
                "start_time": 49.6454545,
                "end_time": 49.7295455,
                "pitch": 37,
                "velocity": 51,
                "duration": 0.0840909,
                "tempo": 120.0
            },
            {
                "start_time": 49.7454545,
                "end_time": 49.9295455,
                "pitch": 40,
                "velocity": 51,
                "duration": 0.1840909,
                "tempo": 120.0
            },
            {
                "start_time": 49.9454545,
                "end_time": 50.3295455,
                "pitch": 40,
                "velocity": 51,
                "duration": 0.3840909,
                "tempo": 120.0
            },
            {
                "start_time": 50.3454545,
                "end_time": 50.5295455,
                "pitch": 40,
                "velocity": 51,
                "duration": 0.1840909,
                "tempo": 120.0
            },
            {
                "start_time": 50.5454545,
                "end_time": 50.7340909,
                "pitch": 40,
                "velocity": 51,
                "duration": 0.1886364,
                "tempo": 120.0
            },
            {
                "start_time": 50.75,
                "end_time": 51.1363636,
                "pitch": 40,
                "velocity": 51,
                "duration": 0.3863636,
                "tempo": 120.0
            },
            {
                "start_time": 51.1522727,
                "end_time": 51.3318182,
                "pitch": 40,
                "velocity": 51,
                "duration": 0.1795455,
                "tempo": 120.0
            },
            {
                "start_time": 51.3477273,
                "end_time": 51.5340909,
                "pitch": 42,
                "velocity": 51,
                "duration": 0.1863636,
                "tempo": 120.0
            },
            {
                "start_time": 51.55,
                "end_time": 51.7340909,
                "pitch": 44,
                "velocity": 51,
                "duration": 0.1840909,
                "tempo": 120.0
            },
            {
                "start_time": 51.7522727,
                "end_time": 51.9340909,
                "pitch": 46,
                "velocity": 51,
                "duration": 0.1818182,
                "tempo": 120.0
            },
            {
                "start_time": 51.9522727,
                "end_time": 52.1340909,
                "pitch": 44,
                "velocity": 51,
                "duration": 0.1818182,
                "tempo": 120.0
            },
            {
                "start_time": 52.1522727,
                "end_time": 52.3340909,
                "pitch": 46,
                "velocity": 51,
                "duration": 0.1818182,
                "tempo": 120.0
            },
            {
                "start_time": 52.3522727,
                "end_time": 52.5340909,
                "pitch": 47,
                "velocity": 51,
                "duration": 0.1818182,
                "tempo": 120.0
            },
            {
                "start_time": 52.5522727,
                "end_time": 52.7340909,
                "pitch": 49,
                "velocity": 51,
                "duration": 0.1818182,
                "tempo": 120.0
            },
            {
                "start_time": 52.7522727,
                "end_time": 52.9340909,
                "pitch": 47,
                "velocity": 51,
                "duration": 0.1818182,
                "tempo": 120.0
            },
            {
                "start_time": 52.9522727,
                "end_time": 53.1340909,
                "pitch": 44,
                "velocity": 51,
                "duration": 0.1818182,
                "tempo": 120.0
            }
        ],
        "Flute": [
            {
                "start_time": 0.0159091,
                "end_time": 0.1159091,
                "pitch": 75,
                "velocity": 40,
                "duration": 0.1,
                "tempo": 120.0
            },
            {
                "start_time": 0.1340909,
                "end_time": 0.25,
                "pitch": 74,
                "velocity": 40,
                "duration": 0.1159091,
                "tempo": 120.0
            },
            {
                "start_time": 0.2659091,
                "end_time": 0.3840909,
                "pitch": 72,
                "velocity": 40,
                "duration": 0.1181818,
                "tempo": 120.0
            },
            {
                "start_time": 0.4,
                "end_time": 0.5136364,
                "pitch": 75,
                "velocity": 40,
                "duration": 0.1136364,
                "tempo": 120.0
            },
            {
                "start_time": 0.5318182,
                "end_time": 0.6454545,
                "pitch": 74,
                "velocity": 40,
                "duration": 0.1136364,
                "tempo": 120.0
            },
            {
                "start_time": 0.6613636,
                "end_time": 0.775,
                "pitch": 72,
                "velocity": 40,
                "duration": 0.1136364,
                "tempo": 120.0
            },
            {
                "start_time": 0.7931818,
                "end_time": 0.9090909,
                "pitch": 74,
                "velocity": 40,
                "duration": 0.1159091,
                "tempo": 120.0
            },
            {
                "start_time": 0.925,
                "end_time": 1.0431818,
                "pitch": 72,
                "velocity": 40,
                "duration": 0.1181818,
                "tempo": 120.0
            },
            {
                "start_time": 1.0590909,
                "end_time": 1.175,
                "pitch": 70,
                "velocity": 40,
                "duration": 0.1159091,
                "tempo": 120.0
            },
            {
                "start_time": 1.1931818,
                "end_time": 1.3113636,
                "pitch": 72,
                "velocity": 40,
                "duration": 0.1181818,
                "tempo": 120.0
            },
            {
                "start_time": 1.3295455,
                "end_time": 1.4477273,
                "pitch": 74,
                "velocity": 40,
                "duration": 0.1181818,
                "tempo": 120.0
            },
            {
                "start_time": 1.4659091,
                "end_time": 1.5863636,
                "pitch": 75,
                "velocity": 40,
                "duration": 0.1204545,
                "tempo": 120.0
            }
        ],
        "Clarinet": [
            {
                "start_time": 1.6022727,
                "end_time": 1.7818182,
                "pitch": 68,
                "velocity": 40,
                "duration": 0.1795455,
                "tempo": 120.0
            },
            {
                "start_time": 1.8,
                "end_time": 2.3886364,
                "pitch": 63,
                "velocity": 40,
                "duration": 0.5886364,
                "tempo": 120.0
            },
            {
                "start_time": 2.4045455,
                "end_time": 2.5863636,
                "pitch": 71,
                "velocity": 40,
                "duration": 0.1818182,
                "tempo": 120.0
            },
            {
                "start_time": 2.6022727,
                "end_time": 2.9863636,
                "pitch": 68,
                "velocity": 40,
                "duration": 0.3840909,
                "tempo": 120.0
            },
            {
                "start_time": 3.0022727,
                "end_time": 3.3886364,
                "pitch": 63,
                "velocity": 40,
                "duration": 0.3863636,
                "tempo": 120.0
            },
            {
                "start_time": 3.4045455,
                "end_time": 3.5840909,
                "pitch": 68,
                "velocity": 40,
                "duration": 0.1795455,
                "tempo": 120.0
            },
            {
                "start_time": 3.6,
                "end_time": 3.6840909,
                "pitch": 68,
                "velocity": 40,
                "duration": 0.0840909,
                "tempo": 120.0
            },
            {
                "start_time": 4.2,
                "end_time": 4.3840909,
                "pitch": 68,
                "velocity": 40,
                "duration": 0.1840909,
                "tempo": 120.0
            },
            {
                "start_time": 4.4,
                "end_time": 5.1863636,
                "pitch": 63,
                "velocity": 40,
                "duration": 0.7863636,
                "tempo": 120.0
            },
            {
                "start_time": 5.2022727,
                "end_time": 5.3909091,
                "pitch": 66,
                "velocity": 40,
                "duration": 0.1886364,
                "tempo": 120.0
            },
            {
                "start_time": 5.4090909,
                "end_time": 5.7931818,
                "pitch": 61,
                "velocity": 40,
                "duration": 0.3840909,
                "tempo": 120.0
            },
            {
                "start_time": 5.8090909,
                "end_time": 5.9886364,
                "pitch": 70,
                "velocity": 40,
                "duration": 0.1795455,
                "tempo": 120.0
            },
            {
                "start_time": 6.0068182,
                "end_time": 6.1909091,
                "pitch": 66,
                "velocity": 40,
                "duration": 0.1840909,
                "tempo": 120.0
            },
            {
                "start_time": 6.2068182,
                "end_time": 6.5931818,
                "pitch": 61,
                "velocity": 40,
                "duration": 0.3863636,
                "tempo": 120.0
            },
            {
                "start_time": 6.6090909,
                "end_time": 6.7954545,
                "pitch": 61,
                "velocity": 40,
                "duration": 0.1863636,
                "tempo": 120.0
            },
            {
                "start_time": 6.8113636,
                "end_time": 6.9954545,
                "pitch": 61,
                "velocity": 40,
                "duration": 0.1840909,
                "tempo": 120.0
            },
            {
                "start_time": 7.0113636,
                "end_time": 7.3954545,
                "pitch": 70,
                "velocity": 40,
                "duration": 0.3840909,
                "tempo": 120.0
            },
            {
                "start_time": 7.4136364,
                "end_time": 7.5977273,
                "pitch": 66,
                "velocity": 40,
                "duration": 0.1840909,
                "tempo": 120.0
            },
            {
                "start_time": 7.6136364,
                "end_time": 7.9977273,
                "pitch": 61,
                "velocity": 40,
                "duration": 0.3840909,
                "tempo": 120.0
            },
            {
                "start_time": 8.0136364,
                "end_time": 8.6,
                "pitch": 64,
                "velocity": 40,
                "duration": 0.5863636,
                "tempo": 120.0
            },
            {
                "start_time": 8.6181818,
                "end_time": 8.8022727,
                "pitch": 59,
                "velocity": 40,
                "duration": 0.1840909,
                "tempo": 120.0
            },
            {
                "start_time": 8.8181818,
                "end_time": 9.6045455,
                "pitch": 59,
                "velocity": 40,
                "duration": 0.7863636,
                "tempo": 120.0
            },
            {
                "start_time": 9.6227273,
                "end_time": 10.2090909,
                "pitch": 68,
                "velocity": 40,
                "duration": 0.5863636,
                "tempo": 120.0
            },
            {
                "start_time": 10.225,
                "end_time": 10.8136364,
                "pitch": 64,
                "velocity": 40,
                "duration": 0.5886364,
                "tempo": 120.0
            },
            {
                "start_time": 10.8295455,
                "end_time": 11.6159091,
                "pitch": 59,
                "velocity": 40,
                "duration": 0.7863636,
                "tempo": 120.0
            },
            {
                "start_time": 11.6318182,
                "end_time": 12.4204545,
                "pitch": 66,
                "velocity": 40,
                "duration": 0.7886364,
                "tempo": 120.0
            },
            {
                "start_time": 12.4386364,
                "end_time": 12.6272727,
                "pitch": 61,
                "velocity": 40,
                "duration": 0.1886364,
                "tempo": 120.0
            },
            {
                "start_time": 12.6431818,
                "end_time": 13.225,
                "pitch": 61,
                "velocity": 40,
                "duration": 0.5818182,
                "tempo": 120.0
            },
            {
                "start_time": 13.2409091,
                "end_time": 13.625,
                "pitch": 68,
                "velocity": 40,
                "duration": 0.3840909,
                "tempo": 120.0
            },
            {
                "start_time": 13.6409091,
                "end_time": 14.0272727,
                "pitch": 71,
                "velocity": 40,
                "duration": 0.3863636,
                "tempo": 120.0
            },
            {
                "start_time": 14.0431818,
                "end_time": 14.2272727,
                "pitch": 68,
                "velocity": 40,
                "duration": 0.1840909,
                "tempo": 120.0
            },
            {
                "start_time": 14.85,
                "end_time": 15.0363636,
                "pitch": 68,
                "velocity": 40,
                "duration": 0.1863636,
                "tempo": 120.0
            },
            {
                "start_time": 15.0545455,
                "end_time": 15.4386364,
                "pitch": 63,
                "velocity": 40,
                "duration": 0.3840909,
                "tempo": 120.0
            },
            {
                "start_time": 15.4568182,
                "end_time": 15.8363636,
                "pitch": 71,
                "velocity": 40,
                "duration": 0.3795455,
                "tempo": 120.0
            },
            {
                "start_time": 15.8522727,
                "end_time": 15.9045455,
                "pitch": 68,
                "velocity": 40,
                "duration": 0.0522727,
                "tempo": 120.0
            },
            {
                "start_time": 16.4568182,
                "end_time": 16.6454545,
                "pitch": 68,
                "velocity": 40,
                "duration": 0.1886364,
                "tempo": 120.0
            },
            {
                "start_time": 16.6636364,
                "end_time": 17.0477273,
                "pitch": 63,
                "velocity": 40,
                "duration": 0.3840909,
                "tempo": 120.0
            },
            {
                "start_time": 17.0636364,
                "end_time": 17.2431818,
                "pitch": 71,
                "velocity": 40,
                "duration": 0.1795455,
                "tempo": 120.0
            },
            {
                "start_time": 17.2590909,
                "end_time": 17.3772727,
                "pitch": 68,
                "velocity": 40,
                "duration": 0.1181818,
                "tempo": 120.0
            },
            {
                "start_time": 18.0636364,
                "end_time": 18.2454545,
                "pitch": 66,
                "velocity": 40,
                "duration": 0.1818182,
                "tempo": 120.0
            },
            {
                "start_time": 18.2636364,
                "end_time": 18.6454545,
                "pitch": 61,
                "velocity": 40,
                "duration": 0.3818182,
                "tempo": 120.0
            },
            {
                "start_time": 18.6636364,
                "end_time": 19.0477273,
                "pitch": 70,
                "velocity": 40,
                "duration": 0.3840909,
                "tempo": 120.0
            },
            {
                "start_time": 19.0636364,
                "end_time": 19.45,
                "pitch": 66,
                "velocity": 40,
                "duration": 0.3863636,
                "tempo": 120.0
            },
            {
                "start_time": 19.4659091,
                "end_time": 19.65,
                "pitch": 61,
                "velocity": 40,
                "duration": 0.1840909,
                "tempo": 120.0
            },
            {
                "start_time": 19.6659091,
                "end_time": 20.2181818,
                "pitch": 66,
                "velocity": 40,
                "duration": 0.5522727,
                "tempo": 120.0
            },
            {
                "start_time": 20.8681818,
                "end_time": 21.4545455,
                "pitch": 64,
                "velocity": 40,
                "duration": 0.5863636,
                "tempo": 120.0
            },
            {
                "start_time": 21.4704545,
                "end_time": 21.6545455,
                "pitch": 59,
                "velocity": 40,
                "duration": 0.1840909,
                "tempo": 120.0
            },
            {
                "start_time": 21.6704545,
                "end_time": 22.4568182,
                "pitch": 59,
                "velocity": 40,
                "duration": 0.7863636,
                "tempo": 120.0
            },
            {
                "start_time": 22.4727273,
                "end_time": 23.2590909,
                "pitch": 68,
                "velocity": 40,
                "duration": 0.7863636,
                "tempo": 120.0
            },
            {
                "start_time": 23.2772727,
                "end_time": 23.6590909,
                "pitch": 64,
                "velocity": 40,
                "duration": 0.3818182,
                "tempo": 120.0
            },
            {
                "start_time": 23.6772727,
                "end_time": 24.4613636,
                "pitch": 64,
                "velocity": 40,
                "duration": 0.7840909,
                "tempo": 120.0
            },
            {
                "start_time": 24.4795455,
                "end_time": 25.0636364,
                "pitch": 66,
                "velocity": 40,
                "duration": 0.5840909,
                "tempo": 120.0
            },
            {
                "start_time": 25.0795455,
                "end_time": 25.2659091,
                "pitch": 61,
                "velocity": 40,
                "duration": 0.1863636,
                "tempo": 120.0
            },
            {
                "start_time": 25.2818182,
                "end_time": 25.5977273,
                "pitch": 66,
                "velocity": 40,
                "duration": 0.3159091,
                "tempo": 120.0
            },
            {
                "start_time": 26.0840909,
                "end_time": 26.4681818,
                "pitch": 68,
                "velocity": 40,
                "duration": 0.3840909,
                "tempo": 120.0
            },
            {
                "start_time": 26.4840909,
                "end_time": 26.8681818,
                "pitch": 71,
                "velocity": 40,
                "duration": 0.3840909,
                "tempo": 120.0
            },
            {
                "start_time": 26.8840909,
                "end_time": 27.2772727,
                "pitch": 68,
                "velocity": 40,
                "duration": 0.3931818,
                "tempo": 120.0
            },
            {
                "start_time": 27.2954545,
                "end_time": 28.0727273,
                "pitch": 73,
                "velocity": 40,
                "duration": 0.7772727,
                "tempo": 120.0
            },
            {
                "start_time": 28.0909091,
                "end_time": 28.8113636,
                "pitch": 73,
                "velocity": 40,
                "duration": 0.7204545,
                "tempo": 120.0
            },
            {
                "start_time": 28.8272727,
                "end_time": 29.4795455,
                "pitch": 70,
                "velocity": 40,
                "duration": 0.6522727,
                "tempo": 120.0
            },
            {
                "start_time": 29.4954545,
                "end_time": 30.4818182,
                "pitch": 71,
                "velocity": 40,
                "duration": 0.9863636,
                "tempo": 120.0
            },
            {
                "start_time": 30.4977273,
                "end_time": 31.2840909,
                "pitch": 73,
                "velocity": 40,
                "duration": 0.7863636,
                "tempo": 120.0
            },
            {
                "start_time": 31.3,
                "end_time": 32.0863636,
                "pitch": 71,
                "velocity": 40,
                "duration": 0.7863636,
                "tempo": 120.0
            },
            {
                "start_time": 32.1045455,
                "end_time": 32.6863636,
                "pitch": 70,
                "velocity": 40,
                "duration": 0.5818182,
                "tempo": 120.0
            },
            {
                "start_time": 32.7045455,
                "end_time": 33.6568182,
                "pitch": 70,
                "velocity": 40,
                "duration": 0.9522727,
                "tempo": 120.0
            },
            {
                "start_time": 33.6727273,
                "end_time": 34.4568182,
                "pitch": 76,
                "velocity": 40,
                "duration": 0.7840909,
                "tempo": 120.0
            },
            {
                "start_time": 34.4727273,
                "end_time": 35.2931818,
                "pitch": 75,
                "velocity": 40,
                "duration": 0.8204545,
                "tempo": 120.0
            },
            {
                "start_time": 35.3090909,
                "end_time": 36.0613636,
                "pitch": 73,
                "velocity": 40,
                "duration": 0.7522727,
                "tempo": 120.0
            },
            {
                "start_time": 36.0795455,
                "end_time": 36.4613636,
                "pitch": 75,
                "velocity": 40,
                "duration": 0.3818182,
                "tempo": 120.0
            },
            {
                "start_time": 36.4795455,
                "end_time": 36.8954545,
                "pitch": 76,
                "velocity": 40,
                "duration": 0.4159091,
                "tempo": 120.0
            },
            {
                "start_time": 36.9113636,
                "end_time": 38.1090909,
                "pitch": 76,
                "velocity": 40,
                "duration": 1.1977273,
                "tempo": 120.0
            },
            {
                "start_time": 38.125,
                "end_time": 38.4681818,
                "pitch": 75,
                "velocity": 40,
                "duration": 0.3431818,
                "tempo": 120.0
            },
            {
                "start_time": 38.4840909,
                "end_time": 39.3,
                "pitch": 78,
                "velocity": 40,
                "duration": 0.8159091,
                "tempo": 120.0
            },
            {
                "start_time": 39.3181818,
                "end_time": 40.1022727,
                "pitch": 76,
                "velocity": 40,
                "duration": 0.7840909,
                "tempo": 120.0
            },
            {
                "start_time": 52.9522727,
                "end_time": 53.1340909,
                "pitch": 68,
                "velocity": 40,
                "duration": 0.1818182,
                "tempo": 120.0
            }
        ],
        "Trumpet": [
            {
                "start_time": 40.1204545,
                "end_time": 40.875,
                "pitch": 73,
                "velocity": 40,
                "duration": 0.7545455,
                "tempo": 120.0
            },
            {
                "start_time": 40.8909091,
                "end_time": 41.7090909,
                "pitch": 71,
                "velocity": 40,
                "duration": 0.8181818,
                "tempo": 120.0
            },
            {
                "start_time": 41.7272727,
                "end_time": 42.3090909,
                "pitch": 70,
                "velocity": 40,
                "duration": 0.5818182,
                "tempo": 120.0
            },
            {
                "start_time": 42.3272727,
                "end_time": 43.2795455,
                "pitch": 71,
                "velocity": 40,
                "duration": 0.9522727,
                "tempo": 120.0
            },
            {
                "start_time": 43.2954545,
                "end_time": 44.1159091,
                "pitch": 73,
                "velocity": 40,
                "duration": 0.8204545,
                "tempo": 120.0
            },
            {
                "start_time": 44.1318182,
                "end_time": 44.9181818,
                "pitch": 71,
                "velocity": 40,
                "duration": 0.7863636,
                "tempo": 120.0
            },
            {
                "start_time": 44.9340909,
                "end_time": 45.5181818,
                "pitch": 70,
                "velocity": 40,
                "duration": 0.5840909,
                "tempo": 120.0
            },
            {
                "start_time": 45.5363636,
                "end_time": 46.525,
                "pitch": 71,
                "velocity": 40,
                "duration": 0.9886364,
                "tempo": 120.0
            },
            {
                "start_time": 46.5409091,
                "end_time": 47.2909091,
                "pitch": 76,
                "velocity": 40,
                "duration": 0.75,
                "tempo": 120.0
            },
            {
                "start_time": 47.3068182,
                "end_time": 48.0931818,
                "pitch": 75,
                "velocity": 40,
                "duration": 0.7863636,
                "tempo": 120.0
            },
            {
                "start_time": 48.1113636,
                "end_time": 48.8931818,
                "pitch": 73,
                "velocity": 40,
                "duration": 0.7818182,
                "tempo": 120.0
            },
            {
                "start_time": 48.9090909,
                "end_time": 49.3272727,
                "pitch": 75,
                "velocity": 40,
                "duration": 0.4181818,
                "tempo": 120.0
            },
            {
                "start_time": 49.3431818,
                "end_time": 49.7295455,
                "pitch": 76,
                "velocity": 40,
                "duration": 0.3863636,
                "tempo": 120.0
            },
            {
                "start_time": 49.7454545,
                "end_time": 50.9386364,
                "pitch": 78,
                "velocity": 40,
                "duration": 1.1931818,
                "tempo": 120.0
            },
            {
                "start_time": 50.9568182,
                "end_time": 51.3318182,
                "pitch": 76,
                "velocity": 40,
                "duration": 0.375,
                "tempo": 120.0
            },
            {
                "start_time": 51.3477273,
                "end_time": 52.1022727,
                "pitch": 80,
                "velocity": 40,
                "duration": 0.7545455,
                "tempo": 120.0
            },
            {
                "start_time": 52.1181818,
                "end_time": 52.9340909,
                "pitch": 78,
                "velocity": 40,
                "duration": 0.8159091,
                "tempo": 120.0
            }
        ]
    }
}