{
    "mood": "angry",
    "instruments": {
        "Violin": [
            {
                "start_time": 0.0159091,
                "end_time": 0.1840909,
                "pitch": 67,
                "velocity": 127,
                "duration": 0.1681818,
                "tempo": 120.0
            },
            {
                "start_time": 0.2,
                "end_time": 0.3840909,
                "pitch": 65,
                "velocity": 127,
                "duration": 0.1840909,
                "tempo": 120.0
            },
            {
                "start_time": 0.4,
                "end_time": 0.575,
                "pitch": 63,
                "velocity": 127,
                "duration": 0.175,
                "tempo": 120.0
            },
            {
                "start_time": 0.5909091,
                "end_time": 0.7659091,
                "pitch": 60,
                "velocity": 127,
                "duration": 0.175,
                "tempo": 120.0
            },
            {
                "start_time": 0.7818182,
                "end_time": 1.1659091,
                "pitch": 60,
                "velocity": 127,
                "duration": 0.3840909,
                "tempo": 120.0
            },
            {
                "start_time": 1.1818182,
                "end_time": 1.3659091,
                "pitch": 63,
                "velocity": 127,
                "duration": 0.1840909,
                "tempo": 120.0
            },
            {
                "start_time": 1.3818182,
                "end_time": 1.5659091,
                "pitch": 67,
                "velocity": 127,
                "duration": 0.1840909,
                "tempo": 120.0
            },
            {
                "start_time": 1.5818182,
                "end_time": 1.7659091,
                "pitch": 65,
                "velocity": 127,
                "duration": 0.1840909,
                "tempo": 120.0
            },
            {
                "start_time": 1.7840909,
                "end_time": 1.9681818,
                "pitch": 63,
                "velocity": 127,
                "duration": 0.1840909,
                "tempo": 120.0
            },
            {
                "start_time": 1.9840909,
                "end_time": 2.1727273,
                "pitch": 62,
                "velocity": 127,
                "duration": 0.1886364,
                "tempo": 120.0
            },
            {
                "start_time": 2.1909091,
                "end_time": 2.3795455,
                "pitch": 58,
                "velocity": 127,
                "duration": 0.1886364,
                "tempo": 120.0
            },
            {
                "start_time": 2.3954545,
                "end_time": 3.1704545,
                "pitch": 58,
                "velocity": 127,
                "duration": 0.775,
                "tempo": 120.0
            },
            {
                "start_time": 3.1886364,
                "end_time": 3.3727273,
                "pitch": 67,
                "velocity": 127,
                "duration": 0.1840909,
                "tempo": 120.0
            },
            {
                "start_time": 3.3886364,
                "end_time": 3.5727273,
                "pitch": 65,
                "velocity": 127,
                "duration": 0.1840909,
                "tempo": 120.0
            },
            {
                "start_time": 3.5909091,
                "end_time": 3.7795455,
                "pitch": 63,
                "velocity": 127,
                "duration": 0.1886364,
                "tempo": 120.0
            },
            {
                "start_time": 3.7954545,
                "end_time": 3.9840909,
                "pitch": 60,
                "velocity": 127,
                "duration": 0.1886364,
                "tempo": 120.0
            },
            {
                "start_time": 4.0022727,
                "end_time": 4.3772727,
                "pitch": 60,
                "velocity": 127,
                "duration": 0.375,
                "tempo": 120.0
            },
            {
                "start_time": 4.3931818,
                "end_time": 4.5772727,
                "pitch": 63,
                "velocity": 127,
                "duration": 0.1840909,
                "tempo": 120.0
            },
            {
                "start_time": 4.5954545,
                "end_time": 4.7795455,
                "pitch": 67,
                "velocity": 127,
                "duration": 0.1840909,
                "tempo": 120.0
            },
            {
                "start_time": 4.7954545,
                "end_time": 5.1795455,
                "pitch": 67,
                "velocity": 127,
                "duration": 0.3840909,
                "tempo": 120.0
            },
            {
                "start_time": 5.1954545,
                "end_time": 5.3795455,
                "pitch": 68,
                "velocity": 127,
                "duration": 0.1840909,
                "tempo": 120.0
            },
            {
                "start_time": 5.3977273,
                "end_time": 5.7818182,
                "pitch": 65,
                "velocity": 127,
                "duration": 0.3840909,
                "tempo": 120.0
            },
            {
                "start_time": 5.7977273,
                "end_time": 5.9818182,
                "pitch": 63,
                "velocity": 127,
                "duration": 0.1840909,
                "tempo": 120.0
            },
            {
                "start_time": 5.9977273,
                "end_time": 6.1840909,
                "pitch": 62,
                "velocity": 127,
                "duration": 0.1863636,
                "tempo": 120.0
            },
            {
                "start_time": 6.2,
                "end_time": 6.3840909,
                "pitch": 63,
                "velocity": 127,
                "duration": 0.1840909,
                "tempo": 120.0
            },
            {
                "start_time": 6.4022727,
                "end_time": 7.1863636,
                "pitch": 63,
                "velocity": 127,
                "duration": 0.7840909,
                "tempo": 120.0
            },
            {
                "start_time": 7.2045455,
                "end_time": 7.3886364,
                "pitch": 60,
                "velocity": 127,
                "duration": 0.1840909,
                "tempo": 120.0
            },
            {
                "start_time": 7.4045455,
                "end_time": 7.5909091,
                "pitch": 62,
                "velocity": 127,
                "duration": 0.1863636,
                "tempo": 120.0
            },
            {
                "start_time": 7.6068182,
                "end_time": 7.7909091,
                "pitch": 63,
                "velocity": 127,
                "duration": 0.1840909,
                "tempo": 120.0
            },
            {
                "start_time": 7.8068182,
                "end_time": 7.9909091,
                "pitch": 65,
                "velocity": 127,
                "duration": 0.1840909,
                "tempo": 120.0
            },
            {
                "start_time": 8.0068182,
                "end_time": 8.1909091,
                "pitch": 65,
                "velocity": 127,
                "duration": 0.1840909,
                "tempo": 120.0
            },
            {
                "start_time": 8.2090909,
                "end_time": 8.3931818,
                "pitch": 62,
                "velocity": 127,
                "duration": 0.1840909,
                "tempo": 120.0
            },
            {
                "start_time": 8.4090909,
                "end_time": 8.5977273,
                "pitch": 63,
                "velocity": 127,
                "duration": 0.1886364,
                "tempo": 120.0
            },
            {
                "start_time": 8.6136364,
                "end_time": 8.8022727,
                "pitch": 65,
                "velocity": 127,
                "duration": 0.1886364,
                "tempo": 120.0
            },
            {
                "start_time": 8.8204545,
                "end_time": 9.0659091,
                "pitch": 67,
                "velocity": 127,
                "duration": 0.2454545,
                "tempo": 120.0
            },
            {
                "start_time": 9.0818182,
                "end_time": 9.3295455,
                "pitch": 63,
                "velocity": 127,
                "duration": 0.2477273,
                "tempo": 120.0
            },
            {
                "start_time": 9.3454545,
                "end_time": 9.5954545,
                "pitch": 60,
                "velocity": 127,
                "duration": 0.25,
                "tempo": 120.0
            },
            {
                "start_time": 9.6113636,
                "end_time": 9.8636364,
                "pitch": 67,
                "velocity": 127,
                "duration": 0.2522727,
                "tempo": 120.0
            },
            {
                "start_time": 9.8818182,
                "end_time": 10.1318182,
                "pitch": 68,
                "velocity": 127,
                "duration": 0.25,
                "tempo": 120.0
            },
            {
                "start_time": 10.15,
                "end_time": 10.4,
                "pitch": 67,
                "velocity": 127,
                "duration": 0.25,
                "tempo": 120.0
            },
            {
                "start_time": 10.4181818,
                "end_time": 10.675,
                "pitch": 65,
                "velocity": 127,
                "duration": 0.2568182,
                "tempo": 120.0
            },
            {
                "start_time": 10.6909091,
                "end_time": 10.9431818,
                "pitch": 63,
                "velocity": 127,
                "duration": 0.2522727,
                "tempo": 120.0
            },
            {
                "start_time": 10.9590909,
                "end_time": 11.2045455,
                "pitch": 62,
                "velocity": 127,
                "duration": 0.2454545,
                "tempo": 120.0
            },
            {
                "start_time": 11.2204545,
                "end_time": 11.6045455,
                "pitch": 67,
                "velocity": 127,
                "duration": 0.3840909,
                "tempo": 120.0
            },
            {
                "start_time": 11.6204545,
                "end_time": 11.8090909,
                "pitch": 68,
                "velocity": 127,
                "duration": 0.1886364,
                "tempo": 120.0
            },
            {
                "start_time": 11.825,
                "end_time": 12.0136364,
                "pitch": 65,
                "velocity": 127,
                "duration": 0.1886364,
                "tempo": 120.0
            },
            {
                "start_time": 12.0318182,
                "end_time": 12.8090909,
                "pitch": 65,
                "velocity": 127,
                "duration": 0.7772727,
                "tempo": 120.0
            },
            {
                "start_time": 25.6681818,
                "end_time": 25.8545455,
                "pitch": 75,
                "velocity": 127,
                "duration": 0.1863636,
                "tempo": 120.0
            },
            {
                "start_time": 25.8704545,
                "end_time": 26.0545455,
                "pitch": 74,
                "velocity": 127,
                "duration": 0.1840909,
                "tempo": 120.0
            },
            {
                "start_time": 26.0727273,
                "end_time": 26.2545455,
                "pitch": 72,
                "velocity": 127,
                "duration": 0.1818182,
                "tempo": 120.0
            },
            {
                "start_time": 26.2727273,
                "end_time": 26.4545455,
                "pitch": 67,
                "velocity": 127,
                "duration": 0.1818182,
                "tempo": 120.0
            },
            {
                "start_time": 26.4727273,
                "end_time": 26.8545455,
                "pitch": 67,
                "velocity": 127,
                "duration": 0.3818182,
                "tempo": 120.0
            },
            {
                "start_time": 26.8727273,
                "end_time": 27.0590909,
                "pitch": 72,
                "velocity": 127,
                "duration": 0.1863636,
                "tempo": 120.0
            },
            {
                "start_time": 27.0772727,
                "end_time": 27.2659091,
                "pitch": 75,
                "velocity": 127,
                "duration": 0.1886364,
                "tempo": 120.0
            },
            {
                "start_time": 27.2818182,
                "end_time": 27.4613636,
                "pitch": 74,
                "velocity": 127,
                "duration": 0.1795455,
                "tempo": 120.0
            },
            {
                "start_time": 27.4795455,
                "end_time": 27.6590909,
                "pitch": 72,
                "velocity": 127,
                "duration": 0.1795455,
                "tempo": 120.0
            },
            {
                "start_time": 27.675,
                "end_time": 27.8636364,
                "pitch": 70,
                "velocity": 127,
                "duration": 0.1886364,
                "tempo": 120.0
            },
            {
                "start_time": 27.8795455,
                "end_time": 28.0681818,
                "pitch": 67,
                "velocity": 127,
                "duration": 0.1886364,
                "tempo": 120.0
            },
            {
                "start_time": 28.0840909,
                "end_time": 28.8613636,
                "pitch": 67,
                "velocity": 127,
                "duration": 0.7772727,
                "tempo": 120.0
            },
            {
                "start_time": 28.8772727,
                "end_time": 29.0613636,
                "pitch": 75,
                "velocity": 127,
                "duration": 0.1840909,
                "tempo": 120.0
            },
            {
                "start_time": 29.0795455,
                "end_time": 29.2636364,
                "pitch": 74,
                "velocity": 127,
                "duration": 0.1840909,
                "tempo": 120.0
            },
            {
                "start_time": 29.2795455,
                "end_time": 29.4636364,
                "pitch": 72,
                "velocity": 127,
                "duration": 0.1840909,
                "tempo": 120.0
            },
            {
                "start_time": 29.4795455,
                "end_time": 29.6636364,
                "pitch": 67,
                "velocity": 127,
                "duration": 0.1840909,
                "tempo": 120.0
            },
            {
                "start_time": 29.6795455,
                "end_time": 30.0659091,
                "pitch": 67,
                "velocity": 127,
                "duration": 0.3863636,
                "tempo": 120.0
            },
            {
                "start_time": 30.0818182,
                "end_time": 30.2659091,
                "pitch": 72,
                "velocity": 127,
                "duration": 0.1840909,
                "tempo": 120.0
            },
            {
                "start_time": 30.2818182,
                "end_time": 30.4659091,
                "pitch": 75,
                "velocity": 127,
                "duration": 0.1840909,
                "tempo": 120.0
            },
            {
                "start_time": 30.4818182,
                "end_time": 31.0681818,
                "pitch": 72,
                "velocity": 127,
                "duration": 0.5863636,
                "tempo": 120.0
            },
            {
                "start_time": 31.0840909,
                "end_time": 31.2681818,
                "pitch": 74,
                "velocity": 127,
                "duration": 0.1840909,
                "tempo": 120.0
            },
            {
                "start_time": 31.2863636,
                "end_time": 32.0704545,
                "pitch": 74,
                "velocity": 127,
                "duration": 0.7840909,
                "tempo": 120.0
            },
            {
                "start_time": 32.0886364,
                "end_time": 32.2704545,
                "pitch": 75,
                "velocity": 127,
                "duration": 0.1818182,
                "tempo": 120.0
            },
            {
                "start_time": 32.2886364,
                "end_time": 32.4704545,
                "pitch": 74,
                "velocity": 127,
                "duration": 0.1818182,
                "tempo": 120.0
            },
            {
                "start_time": 32.4886364,
                "end_time": 32.6704545,
                "pitch": 72,
                "velocity": 127,
                "duration": 0.1818182,
                "tempo": 120.0
            },
            {
                "start_time": 32.6886364,
                "end_time": 32.8704545,
                "pitch": 67,
                "velocity": 127,
                "duration": 0.1818182,
                "tempo": 120.0
            },
            {
                "start_time": 32.8886364,
                "end_time": 33.2704545,
                "pitch": 67,
                "velocity": 127,
                "duration": 0.3818182,
                "tempo": 120.0
            },
            {
                "start_time": 33.2886364,
                "end_time": 33.4727273,
                "pitch": 72,
                "velocity": 127,
                "duration": 0.1840909,
                "tempo": 120.0
            },
            {
                "start_time": 33.4886364,
                "end_time": 33.675,
                "pitch": 75,
                "velocity": 127,
                "duration": 0.1863636,
                "tempo": 120.0
            },
            {
                "start_time": 33.6909091,
                "end_time": 33.875,
                "pitch": 74,
                "velocity": 127,
                "duration": 0.1840909,
                "tempo": 120.0
            },
            {
                "start_time": 33.8909091,
                "end_time": 34.075,
                "pitch": 72,
                "velocity": 127,
                "duration": 0.1840909,
                "tempo": 120.0
            },
            {
                "start_time": 34.0909091,
                "end_time": 34.275,
                "pitch": 70,
                "velocity": 127,
                "duration": 0.1840909,
                "tempo": 120.0
            },
            {
                "start_time": 34.2909091,
                "end_time": 34.475,
                "pitch": 67,
                "velocity": 127,
                "duration": 0.1840909,
                "tempo": 120.0
            },
            {
                "start_time": 34.4909091,
                "end_time": 35.275,
                "pitch": 67,
                "velocity": 127,
                "duration": 0.7840909,
                "tempo": 120.0
            },
            {
                "start_time": 35.2909091,
                "end_time": 35.475,
                "pitch": 75,
                "velocity": 127,
                "duration": 0.1840909,
                "tempo": 120.0
            },
            {
                "start_time": 35.4931818,
                "end_time": 35.6772727,
                "pitch": 74,
                "velocity": 127,
                "duration": 0.1840909,
                "tempo": 120.0
            },
            {
                "start_time": 35.6931818,
                "end_time": 35.8772727,
                "pitch": 72,
                "velocity": 127,
                "duration": 0.1840909,
                "tempo": 120.0
            },
            {
                "start_time": 35.8931818,
                "end_time": 36.0772727,
                "pitch": 67,
                "velocity": 127,
                "duration": 0.1840909,
                "tempo": 120.0
            },
            {
                "start_time": 36.0931818,
                "end_time": 36.4772727,
                "pitch": 67,
                "velocity": 127,
                "duration": 0.3840909,
                "tempo": 120.0
            },
            {
                "start_time": 36.4931818,
                "end_time": 36.6772727,
                "pitch": 72,
                "velocity": 127,
                "duration": 0.1840909,
                "tempo": 120.0
            },
            {
                "start_time": 36.6931818,
                "end_time": 36.8772727,
                "pitch": 75,
                "velocity": 127,
                "duration": 0.1840909,
                "tempo": 120.0
            },
            {
                "start_time": 36.8931818,
                "end_time": 38.4795455,
                "pitch": 79,
                "velocity": 127,
                "duration": 1.5863636,
                "tempo": 120.0
            },
            {
                "start_time": 38.4954545,
                "end_time": 38.6454545,
                "pitch": 67,
                "velocity": 127,
                "duration": 0.15,
                "tempo": 120.0
            }
        ],
        "Trumpet": [
            {
                "start_time": 12.8272727,
                "end_time": 13.4113636,
                "pitch": 72,
                "velocity": 64,
                "duration": 0.5840909,
                "tempo": 120.0
            },
            {
                "start_time": 13.4295455,
                "end_time": 14.0159091,
                "pitch": 74,
                "velocity": 64,
                "duration": 0.5863636,
                "tempo": 120.0
            },
            {
                "start_time": 14.0318182,
                "end_time": 14.4181818,
                "pitch": 75,
                "velocity": 64,
                "duration": 0.3863636,
                "tempo": 120.0
            },
            {
                "start_time": 14.4340909,
                "end_time": 15.0204545,
                "pitch": 77,
                "velocity": 64,
                "duration": 0.5863636,
                "tempo": 120.0
            },
            {
                "start_time": 15.0386364,
                "end_time": 15.6227273,
                "pitch": 75,
                "velocity": 64,
                "duration": 0.5840909,
                "tempo": 120.0
            },
            {
                "start_time": 15.6386364,
                "end_time": 16.025,
                "pitch": 74,
                "velocity": 64,
                "duration": 0.3863636,
                "tempo": 120.0
            },
            {
                "start_time": 16.0431818,
                "end_time": 16.6272727,
                "pitch": 75,
                "velocity": 64,
                "duration": 0.5840909,
                "tempo": 120.0
            },
            {
                "start_time": 16.6454545,
                "end_time": 17.2318182,
                "pitch": 74,
                "velocity": 64,
                "duration": 0.5863636,
                "tempo": 120.0
            },
            {
                "start_time": 17.2477273,
                "end_time": 17.6318182,
                "pitch": 72,
                "velocity": 64,
                "duration": 0.3840909,
                "tempo": 120.0
            },
            {
                "start_time": 17.6477273,
                "end_time": 18.2340909,
                "pitch": 74,
                "velocity": 64,
                "duration": 0.5863636,
                "tempo": 120.0
            },
            {
                "start_time": 18.25,
                "end_time": 18.4340909,
                "pitch": 70,
                "velocity": 64,
                "duration": 0.1840909,
                "tempo": 120.0
            },
            {
                "start_time": 18.45,
                "end_time": 19.2363636,
                "pitch": 70,
                "velocity": 64,
                "duration": 0.7863636,
                "tempo": 120.0
            },
            {
                "start_time": 19.2522727,
                "end_time": 19.8386364,
                "pitch": 72,
                "velocity": 64,
                "duration": 0.5863636,
                "tempo": 120.0
            },
            {
                "start_time": 19.8545455,
                "end_time": 20.4386364,
                "pitch": 74,
                "velocity": 64,
                "duration": 0.5840909,
                "tempo": 120.0
            },
            {
                "start_time": 20.4568182,
                "end_time": 20.8386364,
                "pitch": 75,
                "velocity": 64,
                "duration": 0.3818182,
                "tempo": 120.0
            },
            {
                "start_time": 20.8568182,
                "end_time": 21.4409091,
                "pitch": 77,
                "velocity": 64,
                "duration": 0.5840909,
                "tempo": 120.0
            },
            {
                "start_time": 21.4590909,
                "end_time": 22.0431818,
                "pitch": 75,
                "velocity": 64,
                "duration": 0.5840909,
                "tempo": 120.0
            },
            {
                "start_time": 22.0613636,
                "end_time": 22.4454545,
                "pitch": 74,
                "velocity": 64,
                "duration": 0.3840909,
                "tempo": 120.0
            },
            {
                "start_time": 22.4613636,
                "end_time": 23.0454545,
                "pitch": 75,
                "velocity": 64,
                "duration": 0.5840909,
                "tempo": 120.0
            },
            {
                "start_time": 23.0613636,
                "end_time": 23.6477273,
                "pitch": 74,
                "velocity": 64,
                "duration": 0.5863636,
                "tempo": 120.0
            },
            {
                "start_time": 23.6636364,
                "end_time": 24.05,
                "pitch": 72,
                "velocity": 64,
                "duration": 0.3863636,
                "tempo": 120.0
            },
            {
                "start_time": 24.0659091,
                "end_time": 25.6522727,
                "pitch": 67,
                "velocity": 64,
                "duration": 1.5863636,
                "tempo": 120.0
            }
        ],
        "Electric Guitar (clean)": [
            {
                "start_time": 0.0159091,
                "end_time": 0.1840909,
                "pitch": 36,
                "velocity": 51,
                "duration": 0.1681818,
                "tempo": 120.0
            },
            {
                "start_time": 0.2,
                "end_time": 0.3840909,
                "pitch": 36,
                "velocity": 51,
                "duration": 0.1840909,
                "tempo": 120.0
            },
            {
                "start_time": 0.4,
                "end_time": 0.575,
                "pitch": 36,
                "velocity": 51,
                "duration": 0.175,
                "tempo": 120.0
            },
            {
                "start_time": 0.5909091,
                "end_time": 0.7659091,
                "pitch": 36,
                "velocity": 51,
                "duration": 0.175,
                "tempo": 120.0
            },
            {
                "start_time": 0.7818182,
                "end_time": 0.9659091,
                "pitch": 36,
                "velocity": 51,
                "duration": 0.1840909,
                "tempo": 120.0
            },
            {
                "start_time": 0.9818182,
                "end_time": 1.1659091,
                "pitch": 36,
                "velocity": 51,
                "duration": 0.1840909,
                "tempo": 120.0
            },
            {
                "start_time": 1.1818182,
                "end_time": 1.3659091,
                "pitch": 36,
                "velocity": 51,
                "duration": 0.1840909,
                "tempo": 120.0
            },
            {
                "start_time": 1.3818182,
                "end_time": 1.5659091,
                "pitch": 36,
                "velocity": 51,
                "duration": 0.1840909,
                "tempo": 120.0
            },
            {
                "start_time": 1.5818182,
                "end_time": 1.7659091,
                "pitch": 36,
                "velocity": 51,
                "duration": 0.1840909,
                "tempo": 120.0
            },
            {
                "start_time": 1.7840909,
                "end_time": 1.9681818,
                "pitch": 36,
                "velocity": 51,
                "duration": 0.1840909,
                "tempo": 120.0
            },
            {
                "start_time": 1.9840909,
                "end_time": 2.1727273,
                "pitch": 36,
                "velocity": 51,
                "duration": 0.1886364,
                "tempo": 120.0
            },
            {
                "start_time": 2.1909091,
                "end_time": 2.3795455,
                "pitch": 36,
                "velocity": 51,
                "duration": 0.1886364,
                "tempo": 120.0
            },
            {
                "start_time": 2.3954545,
                "end_time": 2.575,
                "pitch": 36,
                "velocity": 51,
                "duration": 0.1795455,
                "tempo": 120.0
            },
            {
                "start_time": 2.5909091,
                "end_time": 2.7704545,
                "pitch": 43,
                "velocity": 51,
                "duration": 0.1795455,
                "tempo": 120.0
            },
            {
                "start_time": 2.7886364,
                "end_time": 2.9704545,
                "pitch": 44,
                "velocity": 51,
                "duration": 0.1818182,
                "tempo": 120.0
            },
            {
                "start_time": 2.9886364,
                "end_time": 3.1704545,
                "pitch": 39,
                "velocity": 51,
                "duration": 0.1818182,
                "tempo": 120.0
            },
            {
                "start_time": 3.1886364,
                "end_time": 3.3727273,
                "pitch": 36,
                "velocity": 51,
                "duration": 0.1840909,
                "tempo": 120.0
            },
            {
                "start_time": 3.3886364,
                "end_time": 3.5727273,
                "pitch": 36,
                "velocity": 51,
                "duration": 0.1840909,
                "tempo": 120.0
            },
            {
                "start_time": 3.5909091,
                "end_time": 3.7795455,
                "pitch": 36,
                "velocity": 51,
                "duration": 0.1886364,
                "tempo": 120.0
            },
            {
                "start_time": 3.7954545,
                "end_time": 3.9840909,
                "pitch": 36,
                "velocity": 51,
                "duration": 0.1886364,
                "tempo": 120.0
            },
            {
                "start_time": 4.0022727,
                "end_time": 4.1818182,
                "pitch": 36,
                "velocity": 51,
                "duration": 0.1795455,
                "tempo": 120.0
            },
            {
                "start_time": 4.1977273,
                "end_time": 4.3772727,
                "pitch": 36,
                "velocity": 51,
                "duration": 0.1795455,
                "tempo": 120.0
            },
            {
                "start_time": 4.3931818,
                "end_time": 4.5772727,
                "pitch": 36,
                "velocity": 51,
                "duration": 0.1840909,
                "tempo": 120.0
            },
            {
                "start_time": 4.5954545,
                "end_time": 4.7795455,
                "pitch": 39,
                "velocity": 51,
                "duration": 0.1840909,
                "tempo": 120.0
            },
            {
                "start_time": 4.7954545,
                "end_time": 4.9795455,
                "pitch": 39,
                "velocity": 51,
                "duration": 0.1840909,
                "tempo": 120.0
            },
            {
                "start_time": 4.9954545,
                "end_time": 5.1795455,
                "pitch": 39,
                "velocity": 51,
                "duration": 0.1840909,
                "tempo": 120.0
            },
            {
                "start_time": 5.1954545,
                "end_time": 5.3795455,
                "pitch": 39,
                "velocity": 51,
                "duration": 0.1840909,
                "tempo": 120.0
            },
            {
                "start_time": 5.3977273,
                "end_time": 5.5818182,
                "pitch": 46,
                "velocity": 51,
                "duration": 0.1840909,
                "tempo": 120.0
            },
            {
                "start_time": 5.5977273,
                "end_time": 5.7818182,
                "pitch": 46,
                "velocity": 51,
                "duration": 0.1840909,
                "tempo": 120.0
            },
            {
                "start_time": 5.7977273,
                "end_time": 5.9818182,
                "pitch": 46,
                "velocity": 51,
                "duration": 0.1840909,
                "tempo": 120.0
            },
            {
                "start_time": 5.9977273,
                "end_time": 6.1840909,
                "pitch": 46,
                "velocity": 51,
                "duration": 0.1863636,
                "tempo": 120.0
            },
            {
                "start_time": 6.2,
                "end_time": 6.3840909,
                "pitch": 48,
                "velocity": 51,
                "duration": 0.1840909,
                "tempo": 120.0
            },
            {
                "start_time": 6.4022727,
                "end_time": 6.5863636,
                "pitch": 36,
                "velocity": 51,
                "duration": 0.1840909,
                "tempo": 120.0
            },
            {
                "start_time": 6.6022727,
                "end_time": 6.7863636,
                "pitch": 36,
                "velocity": 51,
                "duration": 0.1840909,
                "tempo": 120.0
            },
            {
                "start_time": 6.8045455,
                "end_time": 6.9863636,
                "pitch": 36,
                "velocity": 51,
                "duration": 0.1818182,
                "tempo": 120.0
            },
            {
                "start_time": 7.0045455,
                "end_time": 7.1863636,
                "pitch": 36,
                "velocity": 51,
                "duration": 0.1818182,
                "tempo": 120.0
            },
            {
                "start_time": 7.2045455,
                "end_time": 7.3886364,
                "pitch": 36,
                "velocity": 51,
                "duration": 0.1840909,
                "tempo": 120.0
            },
            {
                "start_time": 7.4045455,
                "end_time": 7.5909091,
                "pitch": 36,
                "velocity": 51,
                "duration": 0.1863636,
                "tempo": 120.0
            },
            {
                "start_time": 7.6068182,
                "end_time": 7.7909091,
                "pitch": 36,
                "velocity": 51,
                "duration": 0.1840909,
                "tempo": 120.0
            },
            {
                "start_time": 7.8068182,
                "end_time": 7.9909091,
                "pitch": 36,
                "velocity": 51,
                "duration": 0.1840909,
                "tempo": 120.0
            },
            {
                "start_time": 8.0068182,
                "end_time": 8.1909091,
                "pitch": 36,
                "velocity": 51,
                "duration": 0.1840909,
                "tempo": 120.0
            },
            {
                "start_time": 8.2090909,
                "end_time": 8.3931818,
                "pitch": 36,
                "velocity": 51,
                "duration": 0.1840909,
                "tempo": 120.0
            },
            {
                "start_time": 8.4090909,
                "end_time": 8.5977273,
                "pitch": 36,
                "velocity": 51,
                "duration": 0.1886364,
                "tempo": 120.0
            },
            {
                "start_time": 8.6136364,
                "end_time": 8.8022727,
                "pitch": 36,
                "velocity": 51,
                "duration": 0.1886364,
                "tempo": 120.0
            },
            {
                "start_time": 8.8204545,
                "end_time": 9.0,
                "pitch": 36,
                "velocity": 51,
                "duration": 0.1795455,
                "tempo": 120.0
            },
            {
                "start_time": 9.0159091,
                "end_time": 9.1954545,
                "pitch": 43,
                "velocity": 51,
                "duration": 0.1795455,
                "tempo": 120.0
            },
            {
                "start_time": 9.2113636,
                "end_time": 9.3954545,
                "pitch": 44,
                "velocity": 51,
                "duration": 0.1840909,
                "tempo": 120.0
            },
            {
                "start_time": 9.4113636,
                "end_time": 9.5954545,
                "pitch": 39,
                "velocity": 51,
                "duration": 0.1840909,
                "tempo": 120.0
            },
            {
                "start_time": 9.6113636,
                "end_time": 9.7977273,
                "pitch": 36,
                "velocity": 51,
                "duration": 0.1863636,
                "tempo": 120.0
            },
            {
                "start_time": 9.8136364,
                "end_time": 9.9977273,
                "pitch": 36,
                "velocity": 51,
                "duration": 0.1840909,
                "tempo": 120.0
            },
            {
                "start_time": 10.0159091,
                "end_time": 10.2,
                "pitch": 36,
                "velocity": 51,
                "duration": 0.1840909,
                "tempo": 120.0
            },
            {
                "start_time": 10.2159091,
                "end_time": 10.4,
                "pitch": 36,
                "velocity": 51,
                "duration": 0.1840909,
                "tempo": 120.0
            },
            {
                "start_time": 10.4181818,
                "end_time": 10.6068182,
                "pitch": 36,
                "velocity": 51,
                "duration": 0.1886364,
                "tempo": 120.0
            },
            {
                "start_time": 10.6227273,
                "end_time": 10.8113636,
                "pitch": 36,
                "velocity": 51,
                "duration": 0.1886364,
                "tempo": 120.0
            },
            {
                "start_time": 10.8295455,
                "end_time": 11.0090909,
                "pitch": 36,
                "velocity": 51,
                "duration": 0.1795455,
                "tempo": 120.0
            },
            {
                "start_time": 11.025,
                "end_time": 11.2045455,
                "pitch": 39,
                "velocity": 51,
                "duration": 0.1795455,
                "tempo": 120.0
            },
            {
                "start_time": 11.2204545,
                "end_time": 11.4045455,
                "pitch": 39,
                "velocity": 51,
                "duration": 0.1840909,
                "tempo": 120.0
            },
            {
                "start_time": 11.4204545,
                "end_time": 11.6045455,
                "pitch": 39,
                "velocity": 51,
                "duration": 0.1840909,
                "tempo": 120.0
            },
            {
                "start_time": 11.6204545,
                "end_time": 11.8090909,
                "pitch": 39,
                "velocity": 51,
                "duration": 0.1886364,
                "tempo": 120.0
            },
            {
                "start_time": 11.825,
                "end_time": 12.0136364,
                "pitch": 46,
                "velocity": 51,
                "duration": 0.1886364,
                "tempo": 120.0
            },
            {
                "start_time": 12.0318182,
                "end_time": 12.2113636,
                "pitch": 46,
                "velocity": 51,
                "duration": 0.1795455,
                "tempo": 120.0
            },
            {
                "start_time": 12.2272727,
                "end_time": 12.4068182,
                "pitch": 46,
                "velocity": 51,
                "duration": 0.1795455,
                "tempo": 120.0
            },
            {
                "start_time": 12.4227273,
                "end_time": 12.6090909,
                "pitch": 46,
                "velocity": 51,
                "duration": 0.1863636,
                "tempo": 120.0
            },
            {
                "start_time": 12.625,
                "end_time": 12.8090909,
                "pitch": 44,
                "velocity": 51,
                "duration": 0.1840909,
                "tempo": 120.0
            },
            {
                "start_time": 12.8272727,
                "end_time": 13.0113636,
                "pitch": 44,
                "velocity": 51,
                "duration": 0.1840909,
                "tempo": 120.0
            },
            {
                "start_time": 13.0272727,
                "end_time": 13.2113636,
                "pitch": 44,
                "velocity": 51,
                "duration": 0.1840909,
                "tempo": 120.0
            },
            {
                "start_time": 13.2295455,
                "end_time": 13.4113636,
                "pitch": 44,
                "velocity": 51,
                "duration": 0.1818182,
                "tempo": 120.0
            },
            {
                "start_time": 13.4295455,
                "end_time": 13.6113636,
                "pitch": 44,
                "velocity": 51,
                "duration": 0.1818182,
                "tempo": 120.0
            },
            {
                "start_time": 13.6295455,
                "end_time": 13.8136364,
                "pitch": 44,
                "velocity": 51,
                "duration": 0.1840909,
                "tempo": 120.0
            },
            {
                "start_time": 13.8295455,
                "end_time": 14.0159091,
                "pitch": 44,
                "velocity": 51,
                "duration": 0.1863636,
                "tempo": 120.0
            },
            {
                "start_time": 14.0318182,
                "end_time": 14.2159091,
                "pitch": 44,
                "velocity": 51,
                "duration": 0.1840909,
                "tempo": 120.0
            },
            {
                "start_time": 14.2318182,
                "end_time": 14.4181818,
                "pitch": 44,
                "velocity": 51,
                "duration": 0.1863636,
                "tempo": 120.0
            },
            {
                "start_time": 14.4340909,
                "end_time": 14.6181818,
                "pitch": 44,
                "velocity": 51,
                "duration": 0.1840909,
                "tempo": 120.0
            },
            {
                "start_time": 14.6363636,
                "end_time": 14.8204545,
                "pitch": 44,
                "velocity": 51,
                "duration": 0.1840909,
                "tempo": 120.0
            },
            {
                "start_time": 14.8363636,
                "end_time": 15.0204545,
                "pitch": 44,
                "velocity": 51,
                "duration": 0.1840909,
                "tempo": 120.0
            },
            {
                "start_time": 15.0386364,
                "end_time": 15.2227273,
                "pitch": 44,
                "velocity": 51,
                "duration": 0.1840909,
                "tempo": 120.0
            },
            {
                "start_time": 15.2386364,
                "end_time": 15.4227273,
                "pitch": 46,
                "velocity": 51,
                "duration": 0.1840909,
                "tempo": 120.0
            },
            {
                "start_time": 15.4386364,
                "end_time": 15.6227273,
                "pitch": 44,
                "velocity": 51,
                "duration": 0.1840909,
                "tempo": 120.0
            },
            {
                "start_time": 15.6386364,
                "end_time": 15.825,
                "pitch": 43,
                "velocity": 51,
                "duration": 0.1863636,
                "tempo": 120.0
            },
            {
                "start_time": 15.8409091,
                "end_time": 16.025,
                "pitch": 44,
                "velocity": 51,
                "duration": 0.1840909,
                "tempo": 120.0
            },
            {
                "start_time": 16.0431818,
                "end_time": 16.2272727,
                "pitch": 44,
                "velocity": 51,
                "duration": 0.1840909,
                "tempo": 120.0
            },
            {
                "start_time": 16.2431818,
                "end_time": 16.4272727,
                "pitch": 44,
                "velocity": 51,
                "duration": 0.1840909,
                "tempo": 120.0
            },
            {
                "start_time": 16.4454545,
                "end_time": 16.6272727,
                "pitch": 44,
                "velocity": 51,
                "duration": 0.1818182,
                "tempo": 120.0
            },
            {
                "start_time": 16.6454545,
                "end_time": 16.8272727,
                "pitch": 44,
                "velocity": 51,
                "duration": 0.1818182,
                "tempo": 120.0
            },
            {
                "start_time": 16.8454545,
                "end_time": 17.0295455,
                "pitch": 44,
                "velocity": 51,
                "duration": 0.1840909,
                "tempo": 120.0
            },
            {
                "start_time": 17.0454545,
                "end_time": 17.2318182,
                "pitch": 44,
                "velocity": 51,
                "duration": 0.1863636,
                "tempo": 120.0
            },
            {
                "start_time": 17.2477273,
                "end_time": 17.4318182,
                "pitch": 44,
                "velocity": 51,
                "duration": 0.1840909,
                "tempo": 120.0
            },
            {
                "start_time": 17.4477273,
                "end_time": 17.6318182,
                "pitch": 44,
                "velocity": 51,
                "duration": 0.1840909,
                "tempo": 120.0
            },
            {
                "start_time": 17.6477273,
                "end_time": 17.8318182,
                "pitch": 44,
                "velocity": 51,
                "duration": 0.1840909,
                "tempo": 120.0
            },
            {
                "start_time": 17.85,
                "end_time": 18.0340909,
                "pitch": 44,
                "velocity": 51,
                "duration": 0.1840909,
                "tempo": 120.0
            },
            {
                "start_time": 18.05,
                "end_time": 18.2340909,
                "pitch": 44,
                "velocity": 51,
                "duration": 0.1840909,
                "tempo": 120.0
            },
            {
                "start_time": 18.25,
                "end_time": 18.4340909,
                "pitch": 44,
                "velocity": 51,
                "duration": 0.1840909,
                "tempo": 120.0
            },
            {
                "start_time": 18.45,
                "end_time": 18.6340909,
                "pitch": 46,
                "velocity": 51,
                "duration": 0.1840909,
                "tempo": 120.0
            },
            {
                "start_time": 18.65,
                "end_time": 18.8340909,
                "pitch": 44,
                "velocity": 51,
                "duration": 0.1840909,
                "tempo": 120.0
            },
            {
                "start_time": 18.85,
                "end_time": 19.0340909,
                "pitch": 43,
                "velocity": 51,
                "duration": 0.1840909,
                "tempo": 120.0
            },
            {
                "start_time": 19.0522727,
                "end_time": 19.2363636,
                "pitch": 46,
                "velocity": 51,
                "duration": 0.1840909,
                "tempo": 120.0
            },
            {
                "start_time": 19.2522727,
                "end_time": 19.4363636,
                "pitch": 46,
                "velocity": 51,
                "duration": 0.1840909,
                "tempo": 120.0
            },
            {
                "start_time": 19.4522727,
                "end_time": 19.6363636,
                "pitch": 46,
                "velocity": 51,
                "duration": 0.1840909,
                "tempo": 120.0
            },
            {
                "start_time": 19.6522727,
                "end_time": 19.8386364,
                "pitch": 46,
                "velocity": 51,
                "duration": 0.1863636,
                "tempo": 120.0
            },
            {
                "start_time": 19.8545455,
                "end_time": 20.0386364,
                "pitch": 46,
                "velocity": 51,
                "duration": 0.1840909,
                "tempo": 120.0
            },
            {
                "start_time": 20.0568182,
                "end_time": 20.2386364,
                "pitch": 46,
                "velocity": 51,
                "duration": 0.1818182,
                "tempo": 120.0
            },
            {
                "start_time": 20.2568182,
                "end_time": 20.4386364,
                "pitch": 46,
                "velocity": 51,
                "duration": 0.1818182,
                "tempo": 120.0
            },
            {
                "start_time": 20.4568182,
                "end_time": 20.6386364,
                "pitch": 46,
                "velocity": 51,
                "duration": 0.1818182,
                "tempo": 120.0
            },
            {
                "start_time": 20.6568182,
                "end_time": 20.8386364,
                "pitch": 46,
                "velocity": 51,
                "duration": 0.1818182,
                "tempo": 120.0
            },
            {
                "start_time": 20.8568182,
                "end_time": 21.0409091,
                "pitch": 46,
                "velocity": 51,
                "duration": 0.1840909,
                "tempo": 120.0
            },
            {
                "start_time": 21.0568182,
                "end_time": 21.2409091,
                "pitch": 46,
                "velocity": 51,
                "duration": 0.1840909,
                "tempo": 120.0
            },
            {
                "start_time": 21.2590909,
                "end_time": 21.4409091,
                "pitch": 46,
                "velocity": 51,
                "duration": 0.1818182,
                "tempo": 120.0
            },
            {
                "start_time": 21.4590909,
                "end_time": 21.6409091,
                "pitch": 46,
                "velocity": 51,
                "duration": 0.1818182,
                "tempo": 120.0
            },
            {
                "start_time": 21.6590909,
                "end_time": 21.8431818,
                "pitch": 46,
                "velocity": 51,
                "duration": 0.1840909,
                "tempo": 120.0
            },
            {
                "start_time": 21.8590909,
                "end_time": 22.0431818,
                "pitch": 46,
                "velocity": 51,
                "duration": 0.1840909,
                "tempo": 120.0
            },
            {
                "start_time": 22.0613636,
                "end_time": 22.2454545,
                "pitch": 44,
                "velocity": 51,
                "duration": 0.1840909,
                "tempo": 120.0
            },
            {
                "start_time": 22.2613636,
                "end_time": 22.4454545,
                "pitch": 46,
                "velocity": 51,
                "duration": 0.1840909,
                "tempo": 120.0
            },
            {
                "start_time": 22.4613636,
                "end_time": 22.6454545,
                "pitch": 46,
                "velocity": 51,
                "duration": 0.1840909,
                "tempo": 120.0
            },
            {
                "start_time": 22.6613636,
                "end_time": 22.8454545,
                "pitch": 46,
                "velocity": 51,
                "duration": 0.1840909,
                "tempo": 120.0
            },
            {
                "start_time": 22.8613636,
                "end_time": 23.0454545,
                "pitch": 46,
                "velocity": 51,
                "duration": 0.1840909,
                "tempo": 120.0
            },
            {
                "start_time": 23.0613636,
                "end_time": 23.2477273,
                "pitch": 46,
                "velocity": 51,
                "duration": 0.1863636,
                "tempo": 120.0
            },
            {
                "start_time": 23.2636364,
                "end_time": 23.4477273,
                "pitch": 46,
                "velocity": 51,
                "duration": 0.1840909,
                "tempo": 120.0
            },
            {
                "start_time": 23.4636364,
                "end_time": 23.6477273,
                "pitch": 46,
                "velocity": 51,
                "duration": 0.1840909,
                "tempo": 120.0
            },
            {
                "start_time": 23.6636364,
                "end_time": 23.8477273,
                "pitch": 46,
                "velocity": 51,
                "duration": 0.1840909,
                "tempo": 120.0
            },
            {
                "start_time": 23.8659091,
                "end_time": 24.05,
                "pitch": 46,
                "velocity": 51,
                "duration": 0.1840909,
                "tempo": 120.0
            },
            {
                "start_time": 24.0659091,
                "end_time": 24.25,
                "pitch": 43,
                "velocity": 51,
                "duration": 0.1840909,
                "tempo": 120.0
            },
            {
                "start_time": 24.2659091,
                "end_time": 24.45,
                "pitch": 43,
                "velocity": 51,
                "duration": 0.1840909,
                "tempo": 120.0
            },
            {
                "start_time": 24.4659091,
                "end_time": 24.65,
                "pitch": 43,
                "velocity": 51,
                "duration": 0.1840909,
                "tempo": 120.0
            },
            {
                "start_time": 24.6659091,
                "end_time": 24.85,
                "pitch": 43,
                "velocity": 51,
                "duration": 0.1840909,
                "tempo": 120.0
            },
            {
                "start_time": 24.8659091,
                "end_time": 25.05,
                "pitch": 43,
                "velocity": 51,
                "duration": 0.1840909,
                "tempo": 120.0
            },
            {
                "start_time": 25.0681818,
                "end_time": 25.2522727,
                "pitch": 43,
                "velocity": 51,
                "duration": 0.1840909,
                "tempo": 120.0
            },
            {
                "start_time": 25.2681818,
                "end_time": 25.4522727,
                "pitch": 43,
                "velocity": 51,
                "duration": 0.1840909,
                "tempo": 120.0
            },
            {
                "start_time": 25.4681818,
                "end_time": 25.6522727,
                "pitch": 43,
                "velocity": 51,
                "duration": 0.1840909,
                "tempo": 120.0
            },
            {
                "start_time": 25.6681818,
                "end_time": 25.8545455,
                "pitch": 36,
                "velocity": 51,
                "duration": 0.1863636,
                "tempo": 120.0
            },
            {
                "start_time": 25.8704545,
                "end_time": 26.0545455,
                "pitch": 36,
                "velocity": 51,
                "duration": 0.1840909,
                "tempo": 120.0
            },
            {
                "start_time": 26.0727273,
                "end_time": 26.2545455,
                "pitch": 36,
                "velocity": 51,
                "duration": 0.1818182,
                "tempo": 120.0
            },
            {
                "start_time": 26.2727273,
                "end_time": 26.4545455,
                "pitch": 36,
                "velocity": 51,
                "duration": 0.1818182,
                "tempo": 120.0
            },
            {
                "start_time": 26.4727273,
                "end_time": 26.6545455,
                "pitch": 36,
                "velocity": 51,
                "duration": 0.1818182,
                "tempo": 120.0
            },
            {
                "start_time": 26.6727273,
                "end_time": 26.8545455,
                "pitch": 36,
                "velocity": 51,
                "duration": 0.1818182,
                "tempo": 120.0
            },
            {
                "start_time": 26.8727273,
                "end_time": 27.0590909,
                "pitch": 36,
                "velocity": 51,
                "duration": 0.1863636,
                "tempo": 120.0
            },
            {
                "start_time": 27.0772727,
                "end_time": 27.2659091,
                "pitch": 36,
                "velocity": 51,
                "duration": 0.1886364,
                "tempo": 120.0
            },
            {
                "start_time": 27.2818182,
                "end_time": 27.4613636,
                "pitch": 39,
                "velocity": 51,
                "duration": 0.1795455,
                "tempo": 120.0
            },
            {
                "start_time": 27.4795455,
                "end_time": 27.6590909,
                "pitch": 39,
                "velocity": 51,
                "duration": 0.1795455,
                "tempo": 120.0
            },
            {
                "start_time": 27.675,
                "end_time": 27.8636364,
                "pitch": 39,
                "velocity": 51,
                "duration": 0.1886364,
                "tempo": 120.0
            },
            {
                "start_time": 27.8795455,
                "end_time": 28.0681818,
                "pitch": 39,
                "velocity": 51,
                "duration": 0.1886364,
                "tempo": 120.0
            },
            {
                "start_time": 28.0840909,
                "end_time": 28.2659091,
                "pitch": 39,
                "velocity": 51,
                "duration": 0.1818182,
                "tempo": 120.0
            },
            {
                "start_time": 28.2818182,
                "end_time": 28.4613636,
                "pitch": 39,
                "velocity": 51,
                "duration": 0.1795455,
                "tempo": 120.0
            },
            {
                "start_time": 28.4772727,
                "end_time": 28.6613636,
                "pitch": 39,
                "velocity": 51,
                "duration": 0.1840909,
                "tempo": 120.0
            },
            {
                "start_time": 28.6772727,
                "end_time": 28.8613636,
                "pitch": 39,
                "velocity": 51,
                "duration": 0.1840909,
                "tempo": 120.0
            },
            {
                "start_time": 28.8772727,
                "end_time": 29.0613636,
                "pitch": 44,
                "velocity": 51,
                "duration": 0.1840909,
                "tempo": 120.0
            },
            {
                "start_time": 29.0795455,
                "end_time": 29.2636364,
                "pitch": 44,
                "velocity": 51,
                "duration": 0.1840909,
                "tempo": 120.0
            },
            {
                "start_time": 29.2795455,
                "end_time": 29.4636364,
                "pitch": 44,
                "velocity": 51,
                "duration": 0.1840909,
                "tempo": 120.0
            },
            {
                "start_time": 29.4795455,
                "end_time": 29.6636364,
                "pitch": 44,
                "velocity": 51,
                "duration": 0.1840909,
                "tempo": 120.0
            },
            {
                "start_time": 29.6795455,
                "end_time": 29.8636364,
                "pitch": 44,
                "velocity": 51,
                "duration": 0.1840909,
                "tempo": 120.0
            },
            {
                "start_time": 29.8818182,
                "end_time": 30.0659091,
                "pitch": 44,
                "velocity": 51,
                "duration": 0.1840909,
                "tempo": 120.0
            },
            {
                "start_time": 30.0818182,
                "end_time": 30.2659091,
                "pitch": 44,
                "velocity": 51,
                "duration": 0.1840909,
                "tempo": 120.0
            },
            {
                "start_time": 30.2818182,
                "end_time": 30.4659091,
                "pitch": 44,
                "velocity": 51,
                "duration": 0.1840909,
                "tempo": 120.0
            },
            {
                "start_time": 30.4818182,
                "end_time": 30.6659091,
                "pitch": 41,
                "velocity": 51,
                "duration": 0.1840909,
                "tempo": 120.0
            },
            {
                "start_time": 30.6818182,
                "end_time": 30.8659091,
                "pitch": 41,
                "velocity": 51,
                "duration": 0.1840909,
                "tempo": 120.0
            },
            {
                "start_time": 30.8818182,
                "end_time": 31.0681818,
                "pitch": 41,
                "velocity": 51,
                "duration": 0.1863636,
                "tempo": 120.0
            },
            {
                "start_time": 31.0840909,
                "end_time": 31.2681818,
                "pitch": 41,
                "velocity": 51,
                "duration": 0.1840909,
                "tempo": 120.0
            },
            {
                "start_time": 31.2863636,
                "end_time": 31.4681818,
                "pitch": 41,
                "velocity": 51,
                "duration": 0.1818182,
                "tempo": 120.0
            },
            {
                "start_time": 31.4863636,
                "end_time": 31.6681818,
                "pitch": 41,
                "velocity": 51,
                "duration": 0.1818182,
                "tempo": 120.0
            },
            {
                "start_time": 31.6863636,
                "end_time": 31.8704545,
                "pitch": 41,
                "velocity": 51,
                "duration": 0.1840909,
                "tempo": 120.0
            },
            {
                "start_time": 31.8863636,
                "end_time": 32.0704545,
                "pitch": 41,
                "velocity": 51,
                "duration": 0.1840909,
                "tempo": 120.0
            },
            {
                "start_time": 32.0886364,
                "end_time": 32.2704545,
                "pitch": 43,
                "velocity": 51,
                "duration": 0.1818182,
                "tempo": 120.0
            },
            {
                "start_time": 32.2886364,
                "end_time": 32.4704545,
                "pitch": 43,
                "velocity": 51,
                "duration": 0.1818182,
                "tempo": 120.0
            },
            {
                "start_time": 32.4886364,
                "end_time": 32.6704545,
                "pitch": 43,
                "velocity": 51,
                "duration": 0.1818182,
                "tempo": 120.0
            },
            {
                "start_time": 32.6886364,
                "end_time": 32.8704545,
                "pitch": 43,
                "velocity": 51,
                "duration": 0.1818182,
                "tempo": 120.0
            },
            {
                "start_time": 32.8886364,
                "end_time": 33.0704545,
                "pitch": 43,
                "velocity": 51,
                "duration": 0.1818182,
                "tempo": 120.0
            },
            {
                "start_time": 33.0886364,
                "end_time": 33.2704545,
                "pitch": 43,
                "velocity": 51,
                "duration": 0.1818182,
                "tempo": 120.0
            },
            {
                "start_time": 33.2886364,
                "end_time": 33.4727273,
                "pitch": 43,
                "velocity": 51,
                "duration": 0.1840909,
                "tempo": 120.0
            },
            {
                "start_time": 33.4886364,
                "end_time": 33.675,
                "pitch": 43,
                "velocity": 51,
                "duration": 0.1863636,
                "tempo": 120.0
            },
            {
                "start_time": 33.6909091,
                "end_time": 33.875,
                "pitch": 44,
                "velocity": 51,
                "duration": 0.1840909,
                "tempo": 120.0
            },
            {
                "start_time": 33.8909091,
                "end_time": 34.075,
                "pitch": 44,
                "velocity": 51,
                "duration": 0.1840909,
                "tempo": 120.0
            },
            {
                "start_time": 34.0909091,
                "end_time": 34.275,
                "pitch": 44,
                "velocity": 51,
                "duration": 0.1840909,
                "tempo": 120.0
            },
            {
                "start_time": 34.2909091,
                "end_time": 34.475,
                "pitch": 44,
                "velocity": 51,
                "duration": 0.1840909,
                "tempo": 120.0
            },
            {
                "start_time": 34.4909091,
                "end_time": 34.675,
                "pitch": 44,
                "velocity": 51,
                "duration": 0.1840909,
                "tempo": 120.0
            },
            {
                "start_time": 34.6909091,
                "end_time": 34.875,
                "pitch": 43,
                "velocity": 51,
                "duration": 0.1840909,
                "tempo": 120.0
            },
            {
                "start_time": 34.8909091,
                "end_time": 35.075,
                "pitch": 44,
                "velocity": 51,
                "duration": 0.1840909,
                "tempo": 120.0
            },
            {
                "start_time": 35.0909091,
                "end_time": 35.275,
                "pitch": 46,
                "velocity": 51,
                "duration": 0.1840909,
                "tempo": 120.0
            },
            {
                "start_time": 35.2909091,
                "end_time": 35.475,
                "pitch": 46,
                "velocity": 51,
                "duration": 0.1840909,
                "tempo": 120.0
            },
            {
                "start_time": 35.4931818,
                "end_time": 35.6772727,
                "pitch": 46,
                "velocity": 51,
                "duration": 0.1840909,
                "tempo": 120.0
            },
            {
                "start_time": 35.6931818,
                "end_time": 35.8772727,
                "pitch": 46,
                "velocity": 51,
                "duration": 0.1840909,
                "tempo": 120.0
            },
            {
                "start_time": 35.8931818,
                "end_time": 36.0772727,
                "pitch": 46,
                "velocity": 51,
                "duration": 0.1840909,
                "tempo": 120.0
            },
            {
                "start_time": 36.0931818,
                "end_time": 36.2772727,
                "pitch": 46,
                "velocity": 51,
                "duration": 0.1840909,
                "tempo": 120.0
            },
            {
                "start_time": 36.2931818,
                "end_time": 36.4772727,
                "pitch": 46,
                "velocity": 51,
                "duration": 0.1840909,
                "tempo": 120.0
            },
            {
                "start_time": 36.4931818,
                "end_time": 36.6772727,
                "pitch": 46,
                "velocity": 51,
                "duration": 0.1840909,
                "tempo": 120.0
            },
            {
                "start_time": 36.6931818,
                "end_time": 36.8772727,
                "pitch": 46,
                "velocity": 51,
                "duration": 0.1840909,
                "tempo": 120.0
            },
            {
                "start_time": 36.8931818,
                "end_time": 37.0772727,
                "pitch": 46,
                "velocity": 51,
                "duration": 0.1840909,
                "tempo": 120.0
            },
            {
                "start_time": 37.0931818,
                "end_time": 37.2772727,
                "pitch": 46,
                "velocity": 51,
                "duration": 0.1840909,
                "tempo": 120.0
            },
            {
                "start_time": 37.2931818,
                "end_time": 37.4772727,
                "pitch": 46,
                "velocity": 51,
                "duration": 0.1840909,
                "tempo": 120.0
            },
            {
                "start_time": 37.4954545,
                "end_time": 37.6795455,
                "pitch": 46,
                "velocity": 51,
                "duration": 0.1840909,
                "tempo": 120.0
            },
            {
                "start_time": 37.6954545,
                "end_time": 37.8795455,
                "pitch": 46,
                "velocity": 51,
                "duration": 0.1840909,
                "tempo": 120.0
            },
            {
                "start_time": 37.8954545,
                "end_time": 38.0795455,
                "pitch": 46,
                "velocity": 51,
                "duration": 0.1840909,
                "tempo": 120.0
            },
            {
                "start_time": 38.0954545,
                "end_time": 38.2795455,
                "pitch": 46,
                "velocity": 51,
                "duration": 0.1840909,
                "tempo": 120.0
            },
            {
                "start_time": 38.2954545,
                "end_time": 38.4795455,
                "pitch": 46,
                "velocity": 51,
                "duration": 0.1840909,
                "tempo": 120.0
            },
            {
                "start_time": 38.4954545,
                "end_time": 38.6454545,
                "pitch": 36,
                "velocity": 51,
                "duration": 0.15,
                "tempo": 120.0
            }
        ],
        "Flute": [
            {
                "start_time": 0.0159091,
                "end_time": 0.1840909,
                "pitch": 48,
                "velocity": 40,
                "duration": 0.1681818,
                "tempo": 120.0
            },
            {
                "start_time": 0.2,
                "end_time": 0.3840909,
                "pitch": 48,
                "velocity": 40,
                "duration": 0.1840909,
                "tempo": 120.0
            },
            {
                "start_time": 0.4,
                "end_time": 0.575,
                "pitch": 67,
                "velocity": 40,
                "duration": 0.175,
                "tempo": 120.0
            },
            {
                "start_time": 0.5909091,
                "end_time": 0.7659091,
                "pitch": 48,
                "velocity": 40,
                "duration": 0.175,
                "tempo": 120.0
            },
            {
                "start_time": 0.7818182,
                "end_time": 0.9659091,
                "pitch": 48,
                "velocity": 40,
                "duration": 0.1840909,
                "tempo": 120.0
            },
            {
                "start_time": 0.9818182,
                "end_time": 1.1659091,
                "pitch": 67,
                "velocity": 40,
                "duration": 0.1840909,
                "tempo": 120.0
            },
            {
                "start_time": 1.1818182,
                "end_time": 1.3659091,
                "pitch": 48,
                "velocity": 40,
                "duration": 0.1840909,
                "tempo": 120.0
            },
            {
                "start_time": 1.3818182,
                "end_time": 1.5659091,
                "pitch": 48,
                "velocity": 40,
                "duration": 0.1840909,
                "tempo": 120.0
            },
            {
                "start_time": 1.5818182,
                "end_time": 1.7659091,
                "pitch": 67,
                "velocity": 40,
                "duration": 0.1840909,
                "tempo": 120.0
            },
            {
                "start_time": 1.7840909,
                "end_time": 1.9681818,
                "pitch": 48,
                "velocity": 40,
                "duration": 0.1840909,
                "tempo": 120.0
            },
            {
                "start_time": 1.9840909,
                "end_time": 2.1727273,
                "pitch": 48,
                "velocity": 40,
                "duration": 0.1886364,
                "tempo": 120.0
            },
            {
                "start_time": 2.1909091,
                "end_time": 2.3795455,
                "pitch": 67,
                "velocity": 40,
                "duration": 0.1886364,
                "tempo": 120.0
            },
            {
                "start_time": 2.3954545,
                "end_time": 2.575,
                "pitch": 48,
                "velocity": 40,
                "duration": 0.1795455,
                "tempo": 120.0
            },
            {
                "start_time": 2.5909091,
                "end_time": 2.7704545,
                "pitch": 55,
                "velocity": 40,
                "duration": 0.1795455,
                "tempo": 120.0
            },
            {
                "start_time": 2.7886364,
                "end_time": 2.9704545,
                "pitch": 56,
                "velocity": 40,
                "duration": 0.1818182,
                "tempo": 120.0
            },
            {
                "start_time": 2.9886364,
                "end_time": 3.1704545,
                "pitch": 51,
                "velocity": 40,
                "duration": 0.1818182,
                "tempo": 120.0
            },
            {
                "start_time": 3.1886364,
                "end_time": 3.3727273,
                "pitch": 48,
                "velocity": 40,
                "duration": 0.1840909,
                "tempo": 120.0
            },
            {
                "start_time": 3.3886364,
                "end_time": 3.5727273,
                "pitch": 48,
                "velocity": 40,
                "duration": 0.1840909,
                "tempo": 120.0
            },
            {
                "start_time": 3.5909091,
                "end_time": 3.7795455,
                "pitch": 67,
                "velocity": 40,
                "duration": 0.1886364,
                "tempo": 120.0
            },
            {
                "start_time": 3.7954545,
                "end_time": 3.9840909,
                "pitch": 48,
                "velocity": 40,
                "duration": 0.1886364,
                "tempo": 120.0
            },
            {
                "start_time": 4.0022727,
                "end_time": 4.1818182,
                "pitch": 48,
                "velocity": 40,
                "duration": 0.1795455,
                "tempo": 120.0
            },
            {
                "start_time": 4.1977273,
                "end_time": 4.3772727,
                "pitch": 67,
                "velocity": 40,
                "duration": 0.1795455,
                "tempo": 120.0
            },
            {
                "start_time": 4.3931818,
                "end_time": 4.5772727,
                "pitch": 48,
                "velocity": 40,
                "duration": 0.1840909,
                "tempo": 120.0
            },
            {
                "start_time": 4.5954545,
                "end_time": 4.7795455,
                "pitch": 58,
                "velocity": 40,
                "duration": 0.1840909,
                "tempo": 120.0
            },
            {
                "start_time": 4.7954545,
                "end_time": 5.3795455,
                "pitch": 58,
                "velocity": 40,
                "duration": 0.5840909,
                "tempo": 120.0
            },
            {
                "start_time": 5.3977273,
                "end_time": 6.1840909,
                "pitch": 65,
                "velocity": 40,
                "duration": 0.7863636,
                "tempo": 120.0
            },
            {
                "start_time": 6.2,
                "end_time": 6.3840909,
                "pitch": 67,
                "velocity": 40,
                "duration": 0.1840909,
                "tempo": 120.0
            },
            {
                "start_time": 6.4022727,
                "end_time": 6.5863636,
                "pitch": 48,
                "velocity": 40,
                "duration": 0.1840909,
                "tempo": 120.0
            },
            {
                "start_time": 6.6022727,
                "end_time": 6.7863636,
                "pitch": 48,
                "velocity": 40,
                "duration": 0.1840909,
                "tempo": 120.0
            },
            {
                "start_time": 6.8045455,
                "end_time": 6.9863636,
                "pitch": 67,
                "velocity": 40,
                "duration": 0.1818182,
                "tempo": 120.0
            },
            {
                "start_time": 7.0045455,
                "end_time": 7.1863636,
                "pitch": 48,
                "velocity": 40,
                "duration": 0.1818182,
                "tempo": 120.0
            },
            {
                "start_time": 7.2045455,
                "end_time": 7.3886364,
                "pitch": 48,
                "velocity": 40,
                "duration": 0.1840909,
                "tempo": 120.0
            },
            {
                "start_time": 7.4045455,
                "end_time": 7.5909091,
                "pitch": 67,
                "velocity": 40,
                "duration": 0.1863636,
                "tempo": 120.0
            },
            {
                "start_time": 7.6068182,
                "end_time": 7.7909091,
                "pitch": 48,
                "velocity": 40,
                "duration": 0.1840909,
                "tempo": 120.0
            },
            {
                "start_time": 7.8068182,
                "end_time": 7.9909091,
                "pitch": 48,
                "velocity": 40,
                "duration": 0.1840909,
                "tempo": 120.0
            },
            {
                "start_time": 8.0068182,
                "end_time": 8.1909091,
                "pitch": 67,
                "velocity": 40,
                "duration": 0.1840909,
                "tempo": 120.0
            },
            {
                "start_time": 8.2090909,
                "end_time": 8.3931818,
                "pitch": 48,
                "velocity": 40,
                "duration": 0.1840909,
                "tempo": 120.0
            },
            {
                "start_time": 8.4090909,
                "end_time": 8.5977273,
                "pitch": 48,
                "velocity": 40,
                "duration": 0.1886364,
                "tempo": 120.0
            },
            {
                "start_time": 8.6136364,
                "end_time": 8.8022727,
                "pitch": 67,
                "velocity": 40,
                "duration": 0.1886364,
                "tempo": 120.0
            },
            {
                "start_time": 8.8204545,
                "end_time": 9.0,
                "pitch": 48,
                "velocity": 40,
                "duration": 0.1795455,
                "tempo": 120.0
            },
            {
                "start_time": 9.0159091,
                "end_time": 9.1954545,
                "pitch": 55,
                "velocity": 40,
                "duration": 0.1795455,
                "tempo": 120.0
            },
            {
                "start_time": 9.2113636,
                "end_time": 9.3954545,
                "pitch": 56,
                "velocity": 40,
                "duration": 0.1840909,
                "tempo": 120.0
            },
            {
                "start_time": 9.4113636,
                "end_time": 9.5954545,
                "pitch": 51,
                "velocity": 40,
                "duration": 0.1840909,
                "tempo": 120.0
            },
            {
                "start_time": 9.6113636,
                "end_time": 9.7977273,
                "pitch": 48,
                "velocity": 40,
                "duration": 0.1863636,
                "tempo": 120.0
            },
            {
                "start_time": 9.8136364,
                "end_time": 9.9977273,
                "pitch": 48,
                "velocity": 40,
                "duration": 0.1840909,
                "tempo": 120.0
            },
            {
                "start_time": 10.0159091,
                "end_time": 10.2,
                "pitch": 67,
                "velocity": 40,
                "duration": 0.1840909,
                "tempo": 120.0
            },
            {
                "start_time": 10.2159091,
                "end_time": 10.4,
                "pitch": 48,
                "velocity": 40,
                "duration": 0.1840909,
                "tempo": 120.0
            },
            {
                "start_time": 10.4181818,
                "end_time": 10.6068182,
                "pitch": 48,
                "velocity": 40,
                "duration": 0.1886364,
                "tempo": 120.0
            },
            {
                "start_time": 10.6227273,
                "end_time": 10.8113636,
                "pitch": 67,
                "velocity": 40,
                "duration": 0.1886364,
                "tempo": 120.0
            },
            {
                "start_time": 10.8295455,
                "end_time": 11.0090909,
                "pitch": 48,
                "velocity": 40,
                "duration": 0.1795455,
                "tempo": 120.0
            },
            {
                "start_time": 11.025,
                "end_time": 11.2045455,
                "pitch": 58,
                "velocity": 40,
                "duration": 0.1795455,
                "tempo": 120.0
            },
            {
                "start_time": 11.2204545,
                "end_time": 11.8090909,
                "pitch": 58,
                "velocity": 40,
                "duration": 0.5886364,
                "tempo": 120.0
            },
            {
                "start_time": 11.825,
                "end_time": 12.6090909,
                "pitch": 65,
                "velocity": 40,
                "duration": 0.7840909,
                "tempo": 120.0
            },
            {
                "start_time": 12.625,
                "end_time": 12.8090909,
                "pitch": 63,
                "velocity": 40,
                "duration": 0.1840909,
                "tempo": 120.0
            },
            {
                "start_time": 12.8272727,
                "end_time": 13.0113636,
                "pitch": 56,
                "velocity": 40,
                "duration": 0.1840909,
                "tempo": 120.0
            },
            {
                "start_time": 13.0272727,
                "end_time": 13.2113636,
                "pitch": 56,
                "velocity": 40,
                "duration": 0.1840909,
                "tempo": 120.0
            },
            {
                "start_time": 13.2295455,
                "end_time": 13.4113636,
                "pitch": 63,
                "velocity": 40,
                "duration": 0.1818182,
                "tempo": 120.0
            },
            {
                "start_time": 13.4295455,
                "end_time": 13.6113636,
                "pitch": 56,
                "velocity": 40,
                "duration": 0.1818182,
                "tempo": 120.0
            },
            {
                "start_time": 13.6295455,
                "end_time": 13.8136364,
                "pitch": 56,
                "velocity": 40,
                "duration": 0.1840909,
                "tempo": 120.0
            },
            {
                "start_time": 13.8295455,
                "end_time": 14.0159091,
                "pitch": 56,
                "velocity": 40,
                "duration": 0.1863636,
                "tempo": 120.0
            },
            {
                "start_time": 14.0318182,
                "end_time": 14.2159091,
                "pitch": 63,
                "velocity": 40,
                "duration": 0.1840909,
                "tempo": 120.0
            },
            {
                "start_time": 14.2318182,
                "end_time": 14.4181818,
                "pitch": 56,
                "velocity": 40,
                "duration": 0.1863636,
                "tempo": 120.0
            },
            {
                "start_time": 14.4340909,
                "end_time": 14.6181818,
                "pitch": 56,
                "velocity": 40,
                "duration": 0.1840909,
                "tempo": 120.0
            },
            {
                "start_time": 14.6363636,
                "end_time": 14.8204545,
                "pitch": 56,
                "velocity": 40,
                "duration": 0.1840909,
                "tempo": 120.0
            },
            {
                "start_time": 14.8363636,
                "end_time": 15.0204545,
                "pitch": 63,
                "velocity": 40,
                "duration": 0.1840909,
                "tempo": 120.0
            },
            {
                "start_time": 15.0386364,
                "end_time": 15.2227273,
                "pitch": 56,
                "velocity": 40,
                "duration": 0.1840909,
                "tempo": 120.0
            },
            {
                "start_time": 15.2386364,
                "end_time": 15.4227273,
                "pitch": 58,
                "velocity": 40,
                "duration": 0.1840909,
                "tempo": 120.0
            },
            {
                "start_time": 15.4386364,
                "end_time": 15.6227273,
                "pitch": 56,
                "velocity": 40,
                "duration": 0.1840909,
                "tempo": 120.0
            },
            {
                "start_time": 15.6386364,
                "end_time": 15.825,
                "pitch": 55,
                "velocity": 40,
                "duration": 0.1863636,
                "tempo": 120.0
            },
            {
                "start_time": 15.8409091,
                "end_time": 16.025,
                "pitch": 56,
                "velocity": 40,
                "duration": 0.1840909,
                "tempo": 120.0
            },
            {
                "start_time": 16.0431818,
                "end_time": 16.2272727,
                "pitch": 56,
                "velocity": 40,
                "duration": 0.1840909,
                "tempo": 120.0
            },
            {
                "start_time": 16.2431818,
                "end_time": 16.4272727,
                "pitch": 56,
                "velocity": 40,
                "duration": 0.1840909,
                "tempo": 120.0
            },
            {
                "start_time": 16.4454545,
                "end_time": 16.6272727,
                "pitch": 63,
                "velocity": 40,
                "duration": 0.1818182,
                "tempo": 120.0
            },
            {
                "start_time": 16.6454545,
                "end_time": 16.8272727,
                "pitch": 56,
                "velocity": 40,
                "duration": 0.1818182,
                "tempo": 120.0
            },
            {
                "start_time": 16.8454545,
                "end_time": 17.0295455,
                "pitch": 56,
                "velocity": 40,
                "duration": 0.1840909,
                "tempo": 120.0
            },
            {
                "start_time": 17.0454545,
                "end_time": 17.2318182,
                "pitch": 56,
                "velocity": 40,
                "duration": 0.1863636,
                "tempo": 120.0
            },
            {
                "start_time": 17.2477273,
                "end_time": 17.4318182,
                "pitch": 63,
                "velocity": 40,
                "duration": 0.1840909,
                "tempo": 120.0
            },
            {
                "start_time": 17.4477273,
                "end_time": 17.6318182,
                "pitch": 56,
                "velocity": 40,
                "duration": 0.1840909,
                "tempo": 120.0
            },
            {
                "start_time": 17.6477273,
                "end_time": 17.8318182,
                "pitch": 56,
                "velocity": 40,
                "duration": 0.1840909,
                "tempo": 120.0
            },
            {
                "start_time": 17.85,
                "end_time": 18.0340909,
                "pitch": 56,
                "velocity": 40,
                "duration": 0.1840909,
                "tempo": 120.0
            },
            {
                "start_time": 18.05,
                "end_time": 18.2340909,
                "pitch": 63,
                "velocity": 40,
                "duration": 0.1840909,
                "tempo": 120.0
            },
            {
                "start_time": 18.25,
                "end_time": 18.4340909,
                "pitch": 56,
                "velocity": 40,
                "duration": 0.1840909,
                "tempo": 120.0
            },
            {
                "start_time": 18.45,
                "end_time": 18.6340909,
                "pitch": 58,
                "velocity": 40,
                "duration": 0.1840909,
                "tempo": 120.0
            },
            {
                "start_time": 18.65,
                "end_time": 18.8340909,
                "pitch": 56,
                "velocity": 40,
                "duration": 0.1840909,
                "tempo": 120.0
            },
            {
                "start_time": 18.85,
                "end_time": 19.0340909,
                "pitch": 55,
                "velocity": 40,
                "duration": 0.1840909,
                "tempo": 120.0
            },
            {
                "start_time": 19.0522727,
                "end_time": 19.2363636,
                "pitch": 58,
                "velocity": 40,
                "duration": 0.1840909,
                "tempo": 120.0
            },
            {
                "start_time": 19.2522727,
                "end_time": 19.4363636,
                "pitch": 58,
                "velocity": 40,
                "duration": 0.1840909,
                "tempo": 120.0
            },
            {
                "start_time": 19.4522727,
                "end_time": 19.6363636,
                "pitch": 58,
                "velocity": 40,
                "duration": 0.1840909,
                "tempo": 120.0
            },
            {
                "start_time": 19.6522727,
                "end_time": 19.8386364,
                "pitch": 65,
                "velocity": 40,
                "duration": 0.1863636,
                "tempo": 120.0
            },
            {
                "start_time": 19.8545455,
                "end_time": 20.0386364,
                "pitch": 58,
                "velocity": 40,
                "duration": 0.1840909,
                "tempo": 120.0
            },
            {
                "start_time": 20.0568182,
                "end_time": 20.2386364,
                "pitch": 58,
                "velocity": 40,
                "duration": 0.1818182,
                "tempo": 120.0
            },
            {
                "start_time": 20.2568182,
                "end_time": 20.4386364,
                "pitch": 58,
                "velocity": 40,
                "duration": 0.1818182,
                "tempo": 120.0
            },
            {
                "start_time": 20.4568182,
                "end_time": 20.6386364,
                "pitch": 65,
                "velocity": 40,
                "duration": 0.1818182,
                "tempo": 120.0
            },
            {
                "start_time": 20.6568182,
                "end_time": 20.8386364,
                "pitch": 58,
                "velocity": 40,
                "duration": 0.1818182,
                "tempo": 120.0
            },
            {
                "start_time": 20.8568182,
                "end_time": 21.0409091,
                "pitch": 58,
                "velocity": 40,
                "duration": 0.1840909,
                "tempo": 120.0
            },
            {
                "start_time": 21.0568182,
                "end_time": 21.2409091,
                "pitch": 58,
                "velocity": 40,
                "duration": 0.1840909,
                "tempo": 120.0
            },
            {
                "start_time": 21.2590909,
                "end_time": 21.4409091,
                "pitch": 65,
                "velocity": 40,
                "duration": 0.1818182,
                "tempo": 120.0
            },
            {
                "start_time": 21.4590909,
                "end_time": 21.6409091,
                "pitch": 58,
                "velocity": 40,
                "duration": 0.1818182,
                "tempo": 120.0
            },
            {
                "start_time": 21.6590909,
                "end_time": 21.8431818,
                "pitch": 58,
                "velocity": 40,
                "duration": 0.1840909,
                "tempo": 120.0
            },
            {
                "start_time": 21.8590909,
                "end_time": 22.0431818,
                "pitch": 58,
                "velocity": 40,
                "duration": 0.1840909,
                "tempo": 120.0
            },
            {
                "start_time": 22.0613636,
                "end_time": 22.2454545,
                "pitch": 63,
                "velocity": 40,
                "duration": 0.1840909,
                "tempo": 120.0
            },
            {
                "start_time": 22.2613636,
                "end_time": 22.4454545,
                "pitch": 58,
                "velocity": 40,
                "duration": 0.1840909,
                "tempo": 120.0
            },
            {
                "start_time": 22.4613636,
                "end_time": 22.6454545,
                "pitch": 58,
                "velocity": 40,
                "duration": 0.1840909,
                "tempo": 120.0
            },
            {
                "start_time": 22.6613636,
                "end_time": 22.8454545,
                "pitch": 58,
                "velocity": 40,
                "duration": 0.1840909,
                "tempo": 120.0
            },
            {
                "start_time": 22.8613636,
                "end_time": 23.0454545,
                "pitch": 65,
                "velocity": 40,
                "duration": 0.1840909,
                "tempo": 120.0
            },
            {
                "start_time": 23.0613636,
                "end_time": 23.2477273,
                "pitch": 58,
                "velocity": 40,
                "duration": 0.1863636,
                "tempo": 120.0
            },
            {
                "start_time": 23.2636364,
                "end_time": 23.4477273,
                "pitch": 58,
                "velocity": 40,
                "duration": 0.1840909,
                "tempo": 120.0
            },
            {
                "start_time": 23.4636364,
                "end_time": 23.6477273,
                "pitch": 58,
                "velocity": 40,
                "duration": 0.1840909,
                "tempo": 120.0
            },
            {
                "start_time": 23.6636364,
                "end_time": 23.8477273,
                "pitch": 65,
                "velocity": 40,
                "duration": 0.1840909,
                "tempo": 120.0
            },
            {
                "start_time": 23.8659091,
                "end_time": 24.05,
                "pitch": 58,
                "velocity": 40,
                "duration": 0.1840909,
                "tempo": 120.0
            },
            {
                "start_time": 24.0659091,
                "end_time": 24.25,
                "pitch": 63,
                "velocity": 40,
                "duration": 0.1840909,
                "tempo": 120.0
            },
            {
                "start_time": 24.2659091,
                "end_time": 24.45,
                "pitch": 63,
                "velocity": 40,
                "duration": 0.1840909,
                "tempo": 120.0
            },
            {
                "start_time": 24.4659091,
                "end_time": 24.65,
                "pitch": 63,
                "velocity": 40,
                "duration": 0.1840909,
                "tempo": 120.0
            },
            {
                "start_time": 24.6659091,
                "end_time": 24.85,
                "pitch": 63,
                "velocity": 40,
                "duration": 0.1840909,
                "tempo": 120.0
            },
            {
                "start_time": 24.8659091,
                "end_time": 25.05,
                "pitch": 63,
                "velocity": 40,
                "duration": 0.1840909,
                "tempo": 120.0
            },
            {
                "start_time": 25.0681818,
                "end_time": 25.2522727,
                "pitch": 63,
                "velocity": 40,
                "duration": 0.1840909,
                "tempo": 120.0
            },
            {
                "start_time": 25.2681818,
                "end_time": 25.4522727,
                "pitch": 63,
                "velocity": 40,
                "duration": 0.1840909,
                "tempo": 120.0
            },
            {
                "start_time": 25.4681818,
                "end_time": 25.6522727,
                "pitch": 63,
                "velocity": 40,
                "duration": 0.1840909,
                "tempo": 120.0
            },
            {
                "start_time": 25.6681818,
                "end_time": 27.2659091,
                "pitch": 67,
                "velocity": 40,
                "duration": 1.5977273,
                "tempo": 120.0
            },
            {
                "start_time": 27.2818182,
                "end_time": 28.8613636,
                "pitch": 58,
                "velocity": 40,
                "duration": 1.5795455,
                "tempo": 120.0
            },
            {
                "start_time": 28.8772727,
                "end_time": 30.4659091,
                "pitch": 63,
                "velocity": 40,
                "duration": 1.5886364,
                "tempo": 120.0
            },
            {
                "start_time": 30.4818182,
                "end_time": 32.0704545,
                "pitch": 60,
                "velocity": 40,
                "duration": 1.5886364,
                "tempo": 120.0
            },
            {
                "start_time": 32.0886364,
                "end_time": 33.2704545,
                "pitch": 62,
                "velocity": 40,
                "duration": 1.1818182,
                "tempo": 120.0
            },
            {
                "start_time": 33.2886364,
                "end_time": 33.4727273,
                "pitch": 62,
                "velocity": 40,
                "duration": 0.1840909,
                "tempo": 120.0
            },
            {
                "start_time": 33.4886364,
                "end_time": 33.675,
                "pitch": 63,
                "velocity": 40,
                "duration": 0.1863636,
                "tempo": 120.0
            },
            {
                "start_time": 33.6909091,
                "end_time": 34.875,
                "pitch": 63,
                "velocity": 40,
                "duration": 1.1840909,
                "tempo": 120.0
            },
            {
                "start_time": 34.8909091,
                "end_time": 35.075,
                "pitch": 63,
                "velocity": 40,
                "duration": 0.1840909,
                "tempo": 120.0
            },
            {
                "start_time": 35.0909091,
                "end_time": 35.275,
                "pitch": 65,
                "velocity": 40,
                "duration": 0.1840909,
                "tempo": 120.0
            },
            {
                "start_time": 35.2909091,
                "end_time": 36.8772727,
                "pitch": 65,
                "velocity": 40,
                "duration": 1.5863636,
                "tempo": 120.0
            },
            {
                "start_time": 36.8931818,
                "end_time": 37.4772727,
                "pitch": 63,
                "velocity": 40,
                "duration": 0.5840909,
                "tempo": 120.0
            },
            {
                "start_time": 37.4954545,
                "end_time": 37.6795455,
                "pitch": 62,
                "velocity": 40,
                "duration": 0.1840909,
                "tempo": 120.0
            },
            {
                "start_time": 37.6954545,
                "end_time": 38.4795455,
                "pitch": 62,
                "velocity": 40,
                "duration": 0.7840909,
                "tempo": 120.0
            },
            {
                "start_time": 38.4954545,
                "end_time": 38.6454545,
                "pitch": 48,
                "velocity": 40,
                "duration": 0.15,
                "tempo": 120.0
            }
        ]
    }
}