{
    "mood": "angry",
    "instruments": {
        "Church Organ": [
            {
                "start_time": 0.4113636,
                "end_time": 0.5863636,
                "pitch": 70,
                "velocity": 32,
                "duration": 0.175,
                "tempo": 120.0
            },
            {
                "start_time": 0.6022727,
                "end_time": 0.7772727,
                "pitch": 78,
                "velocity": 32,
                "duration": 0.175,
                "tempo": 120.0
            },
            {
                "start_time": 0.7931818,
                "end_time": 0.975,
                "pitch": 75,
                "velocity": 32,
                "duration": 0.1818182,
                "tempo": 120.0
            },
            {
                "start_time": 0.9931818,
                "end_time": 1.3727273,
                "pitch": 68,
                "velocity": 32,
                "duration": 0.3795455,
                "tempo": 120.0
            },
            {
                "start_time": 1.3886364,
                "end_time": 1.5681818,
                "pitch": 77,
                "velocity": 32,
                "duration": 0.1795455,
                "tempo": 120.0
            },
            {
                "start_time": 1.5840909,
                "end_time": 1.7727273,
                "pitch": 73,
                "velocity": 32,
                "duration": 0.1886364,
                "tempo": 120.0
            },
            {
                "start_time": 1.7909091,
                "end_time": 1.9772727,
                "pitch": 68,
                "velocity": 32,
                "duration": 0.1863636,
                "tempo": 120.0
            },
            {
                "start_time": 1.9954545,
                "end_time": 2.175,
                "pitch": 66,
                "velocity": 32,
                "duration": 0.1795455,
                "tempo": 120.0
            },
            {
                "start_time": 2.1909091,
                "end_time": 2.3704545,
                "pitch": 75,
                "velocity": 32,
                "duration": 0.1795455,
                "tempo": 120.0
            },
            {
                "start_time": 2.3863636,
                "end_time": 2.575,
                "pitch": 71,
                "velocity": 32,
                "duration": 0.1886364,
                "tempo": 120.0
            },
            {
                "start_time": 2.5931818,
                "end_time": 2.9772727,
                "pitch": 68,
                "velocity": 32,
                "duration": 0.3840909,
                "tempo": 120.0
            },
            {
                "start_time": 2.9931818,
                "end_time": 3.1727273,
                "pitch": 77,
                "velocity": 32,
                "duration": 0.1795455,
                "tempo": 120.0
            },
            {
                "start_time": 3.1909091,
                "end_time": 3.3772727,
                "pitch": 73,
                "velocity": 32,
                "duration": 0.1863636,
                "tempo": 120.0
            },
            {
                "start_time": 3.3954545,
                "end_time": 3.5840909,
                "pitch": 68,
                "velocity": 32,
                "duration": 0.1886364,
                "tempo": 120.0
            },
            {
                "start_time": 3.6,
                "end_time": 3.7840909,
                "pitch": 70,
                "velocity": 32,
                "duration": 0.1840909,
                "tempo": 120.0
            },
            {
                "start_time": 3.8,
                "end_time": 3.9840909,
                "pitch": 78,
                "velocity": 32,
                "duration": 0.1840909,
                "tempo": 120.0
            },
            {
                "start_time": 4.0,
                "end_time": 4.1840909,
                "pitch": 75,
                "velocity": 32,
                "duration": 0.1840909,
                "tempo": 120.0
            },
            {
                "start_time": 4.2,
                "end_time": 4.5795455,
                "pitch": 68,
                "velocity": 32,
                "duration": 0.3795455,
                "tempo": 120.0
            },
            {
                "start_time": 4.5977273,
                "end_time": 4.7772727,
                "pitch": 77,
                "velocity": 32,
                "duration": 0.1795455,
                "tempo": 120.0
            },
            {
                "start_time": 4.7931818,
                "end_time": 4.9818182,
                "pitch": 73,
                "velocity": 32,
                "duration": 0.1886364,
                "tempo": 120.0
            },
            {
                "start_time": 4.9977273,
                "end_time": 5.1863636,
                "pitch": 68,
                "velocity": 32,
                "duration": 0.1886364,
                "tempo": 120.0
            },
            {
                "start_time": 5.2022727,
                "end_time": 5.3840909,
                "pitch": 66,
                "velocity": 32,
                "duration": 0.1818182,
                "tempo": 120.0
            },
            {
                "start_time": 5.4,
                "end_time": 5.5795455,
                "pitch": 75,
                "velocity": 32,
                "duration": 0.1795455,
                "tempo": 120.0
            },
            {
                "start_time": 5.5954545,
                "end_time": 5.7840909,
                "pitch": 71,
                "velocity": 32,
                "duration": 0.1886364,
                "tempo": 120.0
            },
            {
                "start_time": 5.8,
                "end_time": 6.1909091,
                "pitch": 68,
                "velocity": 32,
                "duration": 0.3909091,
                "tempo": 120.0
            },
            {
                "start_time": 6.2068182,
                "end_time": 6.3931818,
                "pitch": 77,
                "velocity": 32,
                "duration": 0.1863636,
                "tempo": 120.0
            },
            {
                "start_time": 6.4090909,
                "end_time": 6.5931818,
                "pitch": 73,
                "velocity": 32,
                "duration": 0.1840909,
                "tempo": 120.0
            },
            {
                "start_time": 6.6113636,
                "end_time": 6.7954545,
                "pitch": 68,
                "velocity": 32,
                "duration": 0.1840909,
                "tempo": 120.0
            },
            {
                "start_time": 6.8113636,
                "end_time": 6.9954545,
                "pitch": 70,
                "velocity": 32,
                "duration": 0.1840909,
                "tempo": 120.0
            },
            {
                "start_time": 7.0113636,
                "end_time": 7.1954545,
                "pitch": 78,
                "velocity": 32,
                "duration": 0.1840909,
                "tempo": 120.0
            },
            {
                "start_time": 7.2113636,
                "end_time": 7.3954545,
                "pitch": 75,
                "velocity": 32,
                "duration": 0.1840909,
                "tempo": 120.0
            },
            {
                "start_time": 7.4136364,
                "end_time": 7.7931818,
                "pitch": 68,
                "velocity": 32,
                "duration": 0.3795455,
                "tempo": 120.0
            },
            {
                "start_time": 7.8090909,
                "end_time": 7.9909091,
                "pitch": 77,
                "velocity": 32,
                "duration": 0.1818182,
                "tempo": 120.0
            },
            {
                "start_time": 8.0068182,
                "end_time": 8.1954545,
                "pitch": 73,
                "velocity": 32,
                "duration": 0.1886364,
                "tempo": 120.0
            },
            {
                "start_time": 8.2113636,
                "end_time": 8.4,
                "pitch": 68,
                "velocity": 32,
                "duration": 0.1886364,
                "tempo": 120.0
            },
            {
                "start_time": 8.4159091,
                "end_time": 8.5954545,
                "pitch": 66,
                "velocity": 32,
                "duration": 0.1795455,
                "tempo": 120.0
            },
            {
                "start_time": 8.6136364,
                "end_time": 8.7931818,
                "pitch": 75,
                "velocity": 32,
                "duration": 0.1795455,
                "tempo": 120.0
            },
            {
                "start_time": 8.8090909,
                "end_time": 8.9977273,
                "pitch": 71,
                "velocity": 32,
                "duration": 0.1886364,
                "tempo": 120.0
            },
            {
                "start_time": 9.0136364,
                "end_time": 9.4,
                "pitch": 68,
                "velocity": 32,
                "duration": 0.3863636,
                "tempo": 120.0
            },
            {
                "start_time": 9.4159091,
                "end_time": 9.5954545,
                "pitch": 77,
                "velocity": 32,
                "duration": 0.1795455,
                "tempo": 120.0
            },
            {
                "start_time": 9.6113636,
                "end_time": 9.8,
                "pitch": 73,
                "velocity": 32,
                "duration": 0.1886364,
                "tempo": 120.0
            },
            {
                "start_time": 9.8181818,
                "end_time": 10.0045455,
                "pitch": 68,
                "velocity": 32,
                "duration": 0.1863636,
                "tempo": 120.0
            },
            {
                "start_time": 10.0227273,
                "end_time": 10.2068182,
                "pitch": 70,
                "velocity": 32,
                "duration": 0.1840909,
                "tempo": 120.0
            },
            {
                "start_time": 10.225,
                "end_time": 10.4090909,
                "pitch": 78,
                "velocity": 32,
                "duration": 0.1840909,
                "tempo": 120.0
            },
            {
                "start_time": 10.425,
                "end_time": 10.6090909,
                "pitch": 75,
                "velocity": 32,
                "duration": 0.1840909,
                "tempo": 120.0
            },
            {
                "start_time": 10.6272727,
                "end_time": 11.0068182,
                "pitch": 68,
                "velocity": 32,
                "duration": 0.3795455,
                "tempo": 120.0
            },
            {
                "start_time": 11.0227273,
                "end_time": 11.2045455,
                "pitch": 77,
                "velocity": 32,
                "duration": 0.1818182,
                "tempo": 120.0
            },
            {
                "start_time": 11.2204545,
                "end_time": 11.4045455,
                "pitch": 73,
                "velocity": 32,
                "duration": 0.1840909,
                "tempo": 120.0
            },
            {
                "start_time": 11.4204545,
                "end_time": 11.6068182,
                "pitch": 68,
                "velocity": 32,
                "duration": 0.1863636,
                "tempo": 120.0
            },
            {
                "start_time": 11.6227273,
                "end_time": 11.8113636,
                "pitch": 66,
                "velocity": 32,
                "duration": 0.1886364,
                "tempo": 120.0
            },
            {
                "start_time": 11.8272727,
                "end_time": 12.0159091,
                "pitch": 75,
                "velocity": 32,
                "duration": 0.1886364,
                "tempo": 120.0
            },
            {
                "start_time": 12.0340909,
                "end_time": 12.2181818,
                "pitch": 71,
                "velocity": 32,
                "duration": 0.1840909,
                "tempo": 120.0
            },
            {
                "start_time": 12.2340909,
                "end_time": 12.6204545,
                "pitch": 68,
                "velocity": 32,
                "duration": 0.3863636,
                "tempo": 120.0
            },
            {
                "start_time": 12.6386364,
                "end_time": 12.8227273,
                "pitch": 77,
                "velocity": 32,
                "duration": 0.1840909,
                "tempo": 120.0
            },
            {
                "start_time": 12.8386364,
                "end_time": 13.0227273,
                "pitch": 73,
                "velocity": 32,
                "duration": 0.1840909,
                "tempo": 120.0
            },
            {
                "start_time": 13.0409091,
                "end_time": 13.225,
                "pitch": 68,
                "velocity": 32,
                "duration": 0.1840909,
                "tempo": 120.0
            }
        ],
        "Acoustic Bass": [
            {
                "start_time": 12.8386364,
                "end_time": 12.9227273,
                "pitch": 82,
                "velocity": 64,
                "duration": 0.0840909,
                "tempo": 120.0
            },
            {
                "start_time": 12.9386364,
                "end_time": 13.0227273,
                "pitch": 83,
                "velocity": 64,
                "duration": 0.0840909,
                "tempo": 120.0
            },
            {
                "start_time": 13.0409091,
                "end_time": 13.125,
                "pitch": 80,
                "velocity": 64,
                "duration": 0.0840909,
                "tempo": 120.0
            },
            {
                "start_time": 13.1409091,
                "end_time": 13.225,
                "pitch": 83,
                "velocity": 64,
                "duration": 0.0840909,
                "tempo": 120.0
            },
            {
                "start_time": 13.2409091,
                "end_time": 13.325,
                "pitch": 78,
                "velocity": 64,
                "duration": 0.0840909,
                "tempo": 120.0
            },
            {
                "start_time": 13.3409091,
                "end_time": 13.425,
                "pitch": 83,
                "velocity": 64,
                "duration": 0.0840909,
                "tempo": 120.0
            },
            {
                "start_time": 13.4409091,
                "end_time": 13.525,
                "pitch": 82,
                "velocity": 64,
                "duration": 0.0840909,
                "tempo": 120.0
            },
            {
                "start_time": 13.5409091,
                "end_time": 13.625,
                "pitch": 83,
                "velocity": 64,
                "duration": 0.0840909,
                "tempo": 120.0
            },
            {
                "start_time": 13.6409091,
                "end_time": 13.725,
                "pitch": 80,
                "velocity": 64,
                "duration": 0.0840909,
                "tempo": 120.0
            },
            {
                "start_time": 13.7431818,
                "end_time": 13.8272727,
                "pitch": 83,
                "velocity": 64,
                "duration": 0.0840909,
                "tempo": 120.0
            },
            {
                "start_time": 13.8431818,
                "end_time": 13.9272727,
                "pitch": 78,
                "velocity": 64,
                "duration": 0.0840909,
                "tempo": 120.0
            },
            {
                "start_time": 13.9431818,
                "end_time": 14.0272727,
                "pitch": 83,
                "velocity": 64,
                "duration": 0.0840909,
                "tempo": 120.0
            },
            {
                "start_time": 14.0431818,
                "end_time": 14.125,
                "pitch": 82,
                "velocity": 64,
                "duration": 0.0818182,
                "tempo": 120.0
            },
            {
                "start_time": 14.1431818,
                "end_time": 14.225,
                "pitch": 83,
                "velocity": 64,
                "duration": 0.0818182,
                "tempo": 120.0
            },
            {
                "start_time": 14.2409091,
                "end_time": 14.3227273,
                "pitch": 80,
                "velocity": 64,
                "duration": 0.0818182,
                "tempo": 120.0
            },
            {
                "start_time": 14.3386364,
                "end_time": 14.4204545,
                "pitch": 83,
                "velocity": 64,
                "duration": 0.0818182,
                "tempo": 120.0
            },
            {
                "start_time": 14.4363636,
                "end_time": 14.5204545,
                "pitch": 82,
                "velocity": 64,
                "duration": 0.0840909,
                "tempo": 120.0
            },
            {
                "start_time": 14.5363636,
                "end_time": 14.6204545,
                "pitch": 83,
                "velocity": 64,
                "duration": 0.0840909,
                "tempo": 120.0
            },
            {
                "start_time": 14.6386364,
                "end_time": 14.7227273,
                "pitch": 80,
                "velocity": 64,
                "duration": 0.0840909,
                "tempo": 120.0
            },
            {
                "start_time": 14.7386364,
                "end_time": 14.8227273,
                "pitch": 83,
                "velocity": 64,
                "duration": 0.0840909,
                "tempo": 120.0
            },
            {
                "start_time": 14.8386364,
                "end_time": 14.9227273,
                "pitch": 78,
                "velocity": 64,
                "duration": 0.0840909,
                "tempo": 120.0
            },
            {
                "start_time": 14.9386364,
                "end_time": 15.0227273,
                "pitch": 83,
                "velocity": 64,
                "duration": 0.0840909,
                "tempo": 120.0
            },
            {
                "start_time": 15.0386364,
                "end_time": 15.1227273,
                "pitch": 82,
                "velocity": 64,
                "duration": 0.0840909,
                "tempo": 120.0
            },
            {
                "start_time": 15.1386364,
                "end_time": 15.2227273,
                "pitch": 83,
                "velocity": 64,
                "duration": 0.0840909,
                "tempo": 120.0
            },
            {
                "start_time": 15.2386364,
                "end_time": 15.325,
                "pitch": 80,
                "velocity": 64,
                "duration": 0.0863636,
                "tempo": 120.0
            },
            {
                "start_time": 15.3409091,
                "end_time": 15.4272727,
                "pitch": 83,
                "velocity": 64,
                "duration": 0.0863636,
                "tempo": 120.0
            },
            {
                "start_time": 15.4454545,
                "end_time": 15.5295455,
                "pitch": 78,
                "velocity": 64,
                "duration": 0.0840909,
                "tempo": 120.0
            },
            {
                "start_time": 15.5477273,
                "end_time": 15.6340909,
                "pitch": 83,
                "velocity": 64,
                "duration": 0.0863636,
                "tempo": 120.0
            },
            {
                "start_time": 15.65,
                "end_time": 15.7318182,
                "pitch": 82,
                "velocity": 64,
                "duration": 0.0818182,
                "tempo": 120.0
            },
            {
                "start_time": 15.7477273,
                "end_time": 15.8295455,
                "pitch": 83,
                "velocity": 64,
                "duration": 0.0818182,
                "tempo": 120.0
            },
            {
                "start_time": 15.8454545,
                "end_time": 15.9272727,
                "pitch": 80,
                "velocity": 64,
                "duration": 0.0818182,
                "tempo": 120.0
            },
            {
                "start_time": 15.9431818,
                "end_time": 16.025,
                "pitch": 83,
                "velocity": 64,
                "duration": 0.0818182,
                "tempo": 120.0
            },
            {
                "start_time": 16.0409091,
                "end_time": 16.1272727,
                "pitch": 75,
                "velocity": 64,
                "duration": 0.0863636,
                "tempo": 120.0
            },
            {
                "start_time": 16.1454545,
                "end_time": 16.2295455,
                "pitch": 78,
                "velocity": 64,
                "duration": 0.0840909,
                "tempo": 120.0
            },
            {
                "start_time": 16.2477273,
                "end_time": 16.3340909,
                "pitch": 82,
                "velocity": 64,
                "duration": 0.0863636,
                "tempo": 120.0
            },
            {
                "start_time": 16.35,
                "end_time": 16.4363636,
                "pitch": 78,
                "velocity": 64,
                "duration": 0.0863636,
                "tempo": 120.0
            },
            {
                "start_time": 16.4522727,
                "end_time": 16.5340909,
                "pitch": 77,
                "velocity": 64,
                "duration": 0.0818182,
                "tempo": 120.0
            },
            {
                "start_time": 16.55,
                "end_time": 16.6318182,
                "pitch": 75,
                "velocity": 64,
                "duration": 0.0818182,
                "tempo": 120.0
            },
            {
                "start_time": 16.6477273,
                "end_time": 16.8272727,
                "pitch": 73,
                "velocity": 64,
                "duration": 0.1795455,
                "tempo": 120.0
            },
            {
                "start_time": 16.8454545,
                "end_time": 16.9295455,
                "pitch": 75,
                "velocity": 64,
                "duration": 0.0840909,
                "tempo": 120.0
            },
            {
                "start_time": 16.9477273,
                "end_time": 17.0318182,
                "pitch": 78,
                "velocity": 64,
                "duration": 0.0840909,
                "tempo": 120.0
            },
            {
                "start_time": 17.05,
                "end_time": 17.1363636,
                "pitch": 77,
                "velocity": 64,
                "duration": 0.0863636,
                "tempo": 120.0
            },
            {
                "start_time": 17.1522727,
                "end_time": 17.2386364,
                "pitch": 80,
                "velocity": 64,
                "duration": 0.0863636,
                "tempo": 120.0
            },
            {
                "start_time": 17.2545455,
                "end_time": 17.3363636,
                "pitch": 78,
                "velocity": 64,
                "duration": 0.0818182,
                "tempo": 120.0
            },
            {
                "start_time": 17.3522727,
                "end_time": 17.4340909,
                "pitch": 82,
                "velocity": 64,
                "duration": 0.0818182,
                "tempo": 120.0
            },
            {
                "start_time": 17.45,
                "end_time": 17.5318182,
                "pitch": 80,
                "velocity": 64,
                "duration": 0.0818182,
                "tempo": 120.0
            },
            {
                "start_time": 17.55,
                "end_time": 17.6318182,
                "pitch": 83,
                "velocity": 64,
                "duration": 0.0818182,
                "tempo": 120.0
            },
            {
                "start_time": 17.6477273,
                "end_time": 17.8318182,
                "pitch": 82,
                "velocity": 64,
                "duration": 0.1840909,
                "tempo": 120.0
            },
            {
                "start_time": 17.8477273,
                "end_time": 18.0318182,
                "pitch": 80,
                "velocity": 64,
                "duration": 0.1840909,
                "tempo": 120.0
            },
            {
                "start_time": 18.0477273,
                "end_time": 18.2363636,
                "pitch": 78,
                "velocity": 64,
                "duration": 0.1886364,
                "tempo": 120.0
            },
            {
                "start_time": 18.2522727,
                "end_time": 18.4409091,
                "pitch": 77,
                "velocity": 64,
                "duration": 0.1886364,
                "tempo": 120.0
            },
            {
                "start_time": 18.4590909,
                "end_time": 18.6409091,
                "pitch": 80,
                "velocity": 64,
                "duration": 0.1818182,
                "tempo": 120.0
            },
            {
                "start_time": 18.6590909,
                "end_time": 18.8409091,
                "pitch": 78,
                "velocity": 64,
                "duration": 0.1818182,
                "tempo": 120.0
            },
            {
                "start_time": 18.8590909,
                "end_time": 19.0386364,
                "pitch": 77,
                "velocity": 64,
                "duration": 0.1795455,
                "tempo": 120.0
            },
            {
                "start_time": 19.0545455,
                "end_time": 19.2340909,
                "pitch": 74,
                "velocity": 64,
                "duration": 0.1795455,
                "tempo": 120.0
            },
            {
                "start_time": 19.25,
                "end_time": 22.4681818,
                "pitch": 75,
                "velocity": 64,
                "duration": 3.2181818,
                "tempo": 120.0
            }
        ],
        "Electric Guitar (clean)": [
            {
                "start_time": 0.0159091,
                "end_time": 3.1727273,
                "pitch": 39,
                "velocity": 51,
                "duration": 3.1568182,
                "tempo": 120.0
            },
            {
                "start_time": 3.1909091,
                "end_time": 6.3931818,
                "pitch": 39,
                "velocity": 51,
                "duration": 3.2022727,
                "tempo": 120.0
            },
            {
                "start_time": 6.4090909,
                "end_time": 9.5954545,
                "pitch": 39,
                "velocity": 51,
                "duration": 3.1863636,
                "tempo": 120.0
            },
            {
                "start_time": 9.6113636,
                "end_time": 12.8227273,
                "pitch": 39,
                "velocity": 51,
                "duration": 3.2113636,
                "tempo": 120.0
            },
            {
                "start_time": 12.8386364,
                "end_time": 16.025,
                "pitch": 35,
                "velocity": 51,
                "duration": 3.1863636,
                "tempo": 120.0
            },
            {
                "start_time": 16.0409091,
                "end_time": 19.2340909,
                "pitch": 37,
                "velocity": 51,
                "duration": 3.1931818,
                "tempo": 120.0
            },
            {
                "start_time": 19.25,
                "end_time": 22.4681818,
                "pitch": 39,
                "velocity": 51,
                "duration": 3.2181818,
                "tempo": 120.0
            }
        ],
        "Acoustic Grand Piano": [
            {
                "start_time": 0.0159091,
                "end_time": 3.1727273,
                "pitch": 58,
                "velocity": 40,
                "duration": 3.1568182,
                "tempo": 120.0
            },
            {
                "start_time": 3.1909091,
                "end_time": 6.3931818,
                "pitch": 58,
                "velocity": 40,
                "duration": 3.2022727,
                "tempo": 120.0
            },
            {
                "start_time": 6.4090909,
                "end_time": 9.5954545,
                "pitch": 58,
                "velocity": 40,
                "duration": 3.1863636,
                "tempo": 120.0
            },
            {
                "start_time": 9.6113636,
                "end_time": 12.8227273,
                "pitch": 58,
                "velocity": 40,
                "duration": 3.2113636,
                "tempo": 120.0
            },
            {
                "start_time": 12.8386364,
                "end_time": 16.025,
                "pitch": 54,
                "velocity": 40,
                "duration": 3.1863636,
                "tempo": 120.0
            },
            {
                "start_time": 16.0409091,
                "end_time": 19.2340909,
                "pitch": 56,
                "velocity": 40,
                "duration": 3.1931818,
                "tempo": 120.0
            },
            {
                "start_time": 19.25,
                "end_time": 22.4681818,
                "pitch": 58,
                "velocity": 40,
                "duration": 3.2181818,
                "tempo": 120.0
            }
        ]
    }
}