{
    "mood": "angry",
    "instruments": {
        "Violin": [
            {
                "start_time": 0.0113636,
                "end_time": 0.875,
                "pitch": 67,
                "velocity": 101,
                "duration": 0.8636364,
                "tempo": 120.0
            },
            {
                "start_time": 0.8909091,
                "end_time": 1.1659091,
                "pitch": 69,
                "velocity": 101,
                "duration": 0.275,
                "tempo": 120.0
            },
            {
                "start_time": 1.1818182,
                "end_time": 1.7659091,
                "pitch": 70,
                "velocity": 101,
                "duration": 0.5840909,
                "tempo": 120.0
            },
            {
                "start_time": 1.7818182,
                "end_time": 2.0681818,
                "pitch": 69,
                "velocity": 101,
                "duration": 0.2863636,
                "tempo": 120.0
            },
            {
                "start_time": 2.0840909,
                "end_time": 2.3704545,
                "pitch": 67,
                "velocity": 101,
                "duration": 0.2863636,
                "tempo": 120.0
            },
            {
                "start_time": 2.3886364,
                "end_time": 3.5772727,
                "pitch": 74,
                "velocity": 101,
                "duration": 1.1886364,
                "tempo": 120.0
            },
            {
                "start_time": 3.5931818,
                "end_time": 4.1840909,
                "pitch": 73,
                "velocity": 101,
                "duration": 0.5909091,
                "tempo": 120.0
            },
            {
                "start_time": 4.2,
                "end_time": 4.4863636,
                "pitch": 70,
                "velocity": 101,
                "duration": 0.2863636,
                "tempo": 120.0
            },
            {
                "start_time": 4.5022727,
                "end_time": 4.7886364,
                "pitch": 69,
                "velocity": 101,
                "duration": 0.2863636,
                "tempo": 120.0
            },
            {
                "start_time": 4.8068182,
                "end_time": 5.3886364,
                "pitch": 63,
                "velocity": 101,
                "duration": 0.5818182,
                "tempo": 120.0
            },
            {
                "start_time": 5.4068182,
                "end_time": 5.9954545,
                "pitch": 67,
                "velocity": 101,
                "duration": 0.5886364,
                "tempo": 120.0
            },
            {
                "start_time": 6.0113636,
                "end_time": 7.1954545,
                "pitch": 70,
                "velocity": 101,
                "duration": 1.1840909,
                "tempo": 120.0
            },
            {
                "start_time": 7.2113636,
                "end_time": 7.6,
                "pitch": 69,
                "velocity": 101,
                "duration": 0.3886364,
                "tempo": 120.0
            },
            {
                "start_time": 7.6159091,
                "end_time": 8.0022727,
                "pitch": 66,
                "velocity": 101,
                "duration": 0.3863636,
                "tempo": 120.0
            },
            {
                "start_time": 8.0181818,
                "end_time": 8.4022727,
                "pitch": 63,
                "velocity": 101,
                "duration": 0.3840909,
                "tempo": 120.0
            },
            {
                "start_time": 8.4181818,
                "end_time": 8.8045455,
                "pitch": 60,
                "velocity": 101,
                "duration": 0.3863636,
                "tempo": 120.0
            },
            {
                "start_time": 8.8227273,
                "end_time": 9.2068182,
                "pitch": 63,
                "velocity": 101,
                "duration": 0.3840909,
                "tempo": 120.0
            },
            {
                "start_time": 9.225,
                "end_time": 9.6068182,
                "pitch": 66,
                "velocity": 101,
                "duration": 0.3818182,
                "tempo": 120.0
            },
            {
                "start_time": 9.625,
                "end_time": 10.5068182,
                "pitch": 67,
                "velocity": 101,
                "duration": 0.8818182,
                "tempo": 120.0
            },
            {
                "start_time": 10.525,
                "end_time": 10.8068182,
                "pitch": 69,
                "velocity": 101,
                "duration": 0.2818182,
                "tempo": 120.0
            },
            {
                "start_time": 10.825,
                "end_time": 11.4136364,
                "pitch": 70,
                "velocity": 101,
                "duration": 0.5886364,
                "tempo": 120.0
            },
            {
                "start_time": 11.4295455,
                "end_time": 11.7136364,
                "pitch": 69,
                "velocity": 101,
                "duration": 0.2840909,
                "tempo": 120.0
            },
            {
                "start_time": 11.7295455,
                "end_time": 12.0136364,
                "pitch": 67,
                "velocity": 101,
                "duration": 0.2840909,
                "tempo": 120.0
            },
            {
                "start_time": 12.0295455,
                "end_time": 13.2136364,
                "pitch": 74,
                "velocity": 101,
                "duration": 1.1840909,
                "tempo": 120.0
            },
            {
                "start_time": 13.2295455,
                "end_time": 13.8136364,
                "pitch": 73,
                "velocity": 101,
                "duration": 0.5840909,
                "tempo": 120.0
            },
            {
                "start_time": 13.8295455,
                "end_time": 14.1159091,
                "pitch": 70,
                "velocity": 101,
                "duration": 0.2863636,
                "tempo": 120.0
            },
            {
                "start_time": 14.1340909,
                "end_time": 14.4204545,
                "pitch": 69,
                "velocity": 101,
                "duration": 0.2863636,
                "tempo": 120.0
            },
            {
                "start_time": 14.4363636,
                "end_time": 15.0204545,
                "pitch": 63,
                "velocity": 101,
                "duration": 0.5840909,
                "tempo": 120.0
            },
            {
                "start_time": 15.0363636,
                "end_time": 15.6204545,
                "pitch": 67,
                "velocity": 101,
                "duration": 0.5840909,
                "tempo": 120.0
            },
            {
                "start_time": 15.6363636,
                "end_time": 16.8204545,
                "pitch": 70,
                "velocity": 101,
                "duration": 1.1840909,
                "tempo": 120.0
            },
            {
                "start_time": 16.8363636,
                "end_time": 17.2227273,
                "pitch": 69,
                "velocity": 101,
                "duration": 0.3863636,
                "tempo": 120.0
            },
            {
                "start_time": 17.2409091,
                "end_time": 17.625,
                "pitch": 66,
                "velocity": 101,
                "duration": 0.3840909,
                "tempo": 120.0
            },
            {
                "start_time": 17.6431818,
                "end_time": 18.025,
                "pitch": 63,
                "velocity": 101,
                "duration": 0.3818182,
                "tempo": 120.0
            },
            {
                "start_time": 18.0431818,
                "end_time": 18.4295455,
                "pitch": 60,
                "velocity": 101,
                "duration": 0.3863636,
                "tempo": 120.0
            },
            {
                "start_time": 18.4454545,
                "end_time": 18.8340909,
                "pitch": 63,
                "velocity": 101,
                "duration": 0.3886364,
                "tempo": 120.0
            },
            {
                "start_time": 18.85,
                "end_time": 19.2386364,
                "pitch": 66,
                "velocity": 101,
                "duration": 0.3886364,
                "tempo": 120.0
            },
            {
                "start_time": 19.2545455,
                "end_time": 20.1409091,
                "pitch": 67,
                "velocity": 101,
                "duration": 0.8863636,
                "tempo": 120.0
            },
            {
                "start_time": 20.1568182,
                "end_time": 20.4431818,
                "pitch": 69,
                "velocity": 101,
                "duration": 0.2863636,
                "tempo": 120.0
            },
            {
                "start_time": 20.4613636,
                "end_time": 21.0431818,
                "pitch": 70,
                "velocity": 101,
                "duration": 0.5818182,
                "tempo": 120.0
            },
            {
                "start_time": 21.0613636,
                "end_time": 21.3477273,
                "pitch": 69,
                "velocity": 101,
                "duration": 0.2863636,
                "tempo": 120.0
            },
            {
                "start_time": 21.3636364,
                "end_time": 21.65,
                "pitch": 67,
                "velocity": 101,
                "duration": 0.2863636,
                "tempo": 120.0
            },
            {
                "start_time": 21.6659091,
                "end_time": 22.8568182,
                "pitch": 74,
                "velocity": 101,
                "duration": 1.1909091,
                "tempo": 120.0
            },
            {
                "start_time": 22.8727273,
                "end_time": 23.4613636,
                "pitch": 73,
                "velocity": 101,
                "duration": 0.5886364,
                "tempo": 120.0
            },
            {
                "start_time": 23.4795455,
                "end_time": 23.7613636,
                "pitch": 70,
                "velocity": 101,
                "duration": 0.2818182,
                "tempo": 120.0
            },
            {
                "start_time": 23.7795455,
                "end_time": 24.0613636,
                "pitch": 69,
                "velocity": 101,
                "duration": 0.2818182,
                "tempo": 120.0
            },
            {
                "start_time": 24.0795455,
                "end_time": 24.6681818,
                "pitch": 63,
                "velocity": 101,
                "duration": 0.5886364,
                "tempo": 120.0
            },
            {
                "start_time": 24.6840909,
                "end_time": 25.275,
                "pitch": 67,
                "velocity": 101,
                "duration": 0.5909091,
                "tempo": 120.0
            },
            {
                "start_time": 25.2909091,
                "end_time": 26.4795455,
                "pitch": 70,
                "velocity": 101,
                "duration": 1.1886364,
                "tempo": 120.0
            },
            {
                "start_time": 26.4977273,
                "end_time": 26.8795455,
                "pitch": 69,
                "velocity": 101,
                "duration": 0.3818182,
                "tempo": 120.0
            },
            {
                "start_time": 26.8977273,
                "end_time": 27.2818182,
                "pitch": 66,
                "velocity": 101,
                "duration": 0.3840909,
                "tempo": 120.0
            },
            {
                "start_time": 27.3,
                "end_time": 27.6863636,
                "pitch": 63,
                "velocity": 101,
                "duration": 0.3863636,
                "tempo": 120.0
            },
            {
                "start_time": 27.7022727,
                "end_time": 28.0909091,
                "pitch": 60,
                "velocity": 101,
                "duration": 0.3886364,
                "tempo": 120.0
            },
            {
                "start_time": 28.1068182,
                "end_time": 28.4931818,
                "pitch": 63,
                "velocity": 101,
                "duration": 0.3863636,
                "tempo": 120.0
            },
            {
                "start_time": 28.5090909,
                "end_time": 28.8931818,
                "pitch": 66,
                "velocity": 101,
                "duration": 0.3840909,
                "tempo": 120.0
            },
            {
                "start_time": 28.9090909,
                "end_time": 29.7977273,
                "pitch": 67,
                "velocity": 101,
                "duration": 0.8886364,
                "tempo": 120.0
            },
            {
                "start_time": 29.8159091,
                "end_time": 30.0977273,
                "pitch": 69,
                "velocity": 101,
                "duration": 0.2818182,
                "tempo": 120.0
            },
            {
                "start_time": 30.1159091,
                "end_time": 30.7045455,
                "pitch": 70,
                "velocity": 101,
                "duration": 0.5886364,
                "tempo": 120.0
            },
            {
                "start_time": 30.7204545,
                "end_time": 31.0068182,
                "pitch": 69,
                "velocity": 101,
                "duration": 0.2863636,
                "tempo": 120.0
            },
            {
                "start_time": 31.025,
                "end_time": 31.3113636,
                "pitch": 67,
                "velocity": 101,
                "duration": 0.2863636,
                "tempo": 120.0
            },
            {
                "start_time": 31.3272727,
                "end_time": 32.5159091,
                "pitch": 74,
                "velocity": 101,
                "duration": 1.1886364,
                "tempo": 120.0
            },
            {
                "start_time": 32.5340909,
                "end_time": 33.1159091,
                "pitch": 73,
                "velocity": 101,
                "duration": 0.5818182,
                "tempo": 120.0
            },
            {
                "start_time": 33.1340909,
                "end_time": 33.4204545,
                "pitch": 70,
                "velocity": 101,
                "duration": 0.2863636,
                "tempo": 120.0
            },
            {
                "start_time": 33.4363636,
                "end_time": 33.7227273,
                "pitch": 69,
                "velocity": 101,
                "duration": 0.2863636,
                "tempo": 120.0
            },
            {
                "start_time": 33.7386364,
                "end_time": 34.3295455,
                "pitch": 63,
                "velocity": 101,
                "duration": 0.5909091,
                "tempo": 120.0
            },
            {
                "start_time": 34.3454545,
                "end_time": 34.9340909,
                "pitch": 67,
                "velocity": 101,
                "duration": 0.5886364,
                "tempo": 120.0
            },
            {
                "start_time": 34.9522727,
                "end_time": 36.1409091,
                "pitch": 70,
                "velocity": 101,
                "duration": 1.1886364,
                "tempo": 120.0
            },
            {
                "start_time": 36.1568182,
                "end_time": 36.5454545,
                "pitch": 69,
                "velocity": 101,
                "duration": 0.3886364,
                "tempo": 120.0
            },
            {
                "start_time": 36.5613636,
                "end_time": 36.9477273,
                "pitch": 66,
                "velocity": 101,
                "duration": 0.3863636,
                "tempo": 120.0
            },
            {
                "start_time": 36.9659091,
                "end_time": 37.3522727,
                "pitch": 63,
                "velocity": 101,
                "duration": 0.3863636,
                "tempo": 120.0
            },
            {
                "start_time": 37.3704545,
                "end_time": 37.7568182,
                "pitch": 60,
                "velocity": 101,
                "duration": 0.3863636,
                "tempo": 120.0
            },
            {
                "start_time": 37.7727273,
                "end_time": 38.1590909,
                "pitch": 63,
                "velocity": 101,
                "duration": 0.3863636,
                "tempo": 120.0
            },
            {
                "start_time": 38.175,
                "end_time": 38.5590909,
                "pitch": 66,
                "velocity": 101,
                "duration": 0.3840909,
                "tempo": 120.0
            },
            {
                "start_time": 57.9340909,
                "end_time": 58.825,
                "pitch": 67,
                "velocity": 101,
                "duration": 0.8909091,
                "tempo": 120.0
            },
            {
                "start_time": 58.8431818,
                "end_time": 59.0954545,
                "pitch": 69,
                "velocity": 101,
                "duration": 0.2522727,
                "tempo": 120.0
            }
        ],
        "Acoustic Guitar (nylon)": [
            {
                "start_time": 38.575,
                "end_time": 40.9840909,
                "pitch": 62,
                "velocity": 51,
                "duration": 2.4090909,
                "tempo": 120.0
            },
            {
                "start_time": 41.0,
                "end_time": 41.3840909,
                "pitch": 78,
                "velocity": 51,
                "duration": 0.3840909,
                "tempo": 120.0
            },
            {
                "start_time": 41.4,
                "end_time": 41.7840909,
                "pitch": 79,
                "velocity": 51,
                "duration": 0.3840909,
                "tempo": 120.0
            },
            {
                "start_time": 41.8022727,
                "end_time": 42.1886364,
                "pitch": 81,
                "velocity": 51,
                "duration": 0.3863636,
                "tempo": 120.0
            },
            {
                "start_time": 42.2068182,
                "end_time": 42.5931818,
                "pitch": 82,
                "velocity": 51,
                "duration": 0.3863636,
                "tempo": 120.0
            },
            {
                "start_time": 42.6090909,
                "end_time": 42.9977273,
                "pitch": 81,
                "velocity": 51,
                "duration": 0.3886364,
                "tempo": 120.0
            },
            {
                "start_time": 43.0136364,
                "end_time": 43.4022727,
                "pitch": 79,
                "velocity": 51,
                "duration": 0.3886364,
                "tempo": 120.0
            },
            {
                "start_time": 43.4181818,
                "end_time": 45.8204545,
                "pitch": 75,
                "velocity": 51,
                "duration": 2.4022727,
                "tempo": 120.0
            },
            {
                "start_time": 45.8363636,
                "end_time": 48.2386364,
                "pitch": 75,
                "velocity": 51,
                "duration": 2.4022727,
                "tempo": 120.0
            },
            {
                "start_time": 48.2545455,
                "end_time": 50.6568182,
                "pitch": 62,
                "velocity": 51,
                "duration": 2.4022727,
                "tempo": 120.0
            },
            {
                "start_time": 50.6727273,
                "end_time": 51.0590909,
                "pitch": 78,
                "velocity": 51,
                "duration": 0.3863636,
                "tempo": 120.0
            },
            {
                "start_time": 51.0772727,
                "end_time": 51.4636364,
                "pitch": 79,
                "velocity": 51,
                "duration": 0.3863636,
                "tempo": 120.0
            },
            {
                "start_time": 51.4818182,
                "end_time": 51.8681818,
                "pitch": 81,
                "velocity": 51,
                "duration": 0.3863636,
                "tempo": 120.0
            },
            {
                "start_time": 51.8840909,
                "end_time": 52.2727273,
                "pitch": 82,
                "velocity": 51,
                "duration": 0.3886364,
                "tempo": 120.0
            },
            {
                "start_time": 52.2886364,
                "end_time": 52.675,
                "pitch": 81,
                "velocity": 51,
                "duration": 0.3863636,
                "tempo": 120.0
            },
            {
                "start_time": 52.6931818,
                "end_time": 53.0795455,
                "pitch": 82,
                "velocity": 51,
                "duration": 0.3863636,
                "tempo": 120.0
            },
            {
                "start_time": 53.0977273,
                "end_time": 55.4977273,
                "pitch": 79,
                "velocity": 51,
                "duration": 2.4,
                "tempo": 120.0
            },
            {
                "start_time": 55.5159091,
                "end_time": 56.7045455,
                "pitch": 79,
                "velocity": 51,
                "duration": 1.1886364,
                "tempo": 120.0
            },
            {
                "start_time": 56.7204545,
                "end_time": 57.9159091,
                "pitch": 70,
                "velocity": 51,
                "duration": 1.1954545,
                "tempo": 120.0
            }
        ],
        "Oboe": [
            {
                "start_time": 0.0113636,
                "end_time": 0.5818182,
                "pitch": 31,
                "velocity": 51,
                "duration": 0.5704545,
                "tempo": 120.0
            },
            {
                "start_time": 0.6,
                "end_time": 1.1659091,
                "pitch": 31,
                "velocity": 51,
                "duration": 0.5659091,
                "tempo": 120.0
            },
            {
                "start_time": 1.1818182,
                "end_time": 1.7659091,
                "pitch": 31,
                "velocity": 51,
                "duration": 0.5840909,
                "tempo": 120.0
            },
            {
                "start_time": 1.7818182,
                "end_time": 2.0681818,
                "pitch": 31,
                "velocity": 51,
                "duration": 0.2863636,
                "tempo": 120.0
            },
            {
                "start_time": 2.0840909,
                "end_time": 2.3704545,
                "pitch": 37,
                "velocity": 51,
                "duration": 0.2863636,
                "tempo": 120.0
            },
            {
                "start_time": 2.3886364,
                "end_time": 2.9704545,
                "pitch": 38,
                "velocity": 51,
                "duration": 0.5818182,
                "tempo": 120.0
            },
            {
                "start_time": 2.9886364,
                "end_time": 3.5772727,
                "pitch": 38,
                "velocity": 51,
                "duration": 0.5886364,
                "tempo": 120.0
            },
            {
                "start_time": 3.5931818,
                "end_time": 4.1840909,
                "pitch": 38,
                "velocity": 51,
                "duration": 0.5909091,
                "tempo": 120.0
            },
            {
                "start_time": 4.2,
                "end_time": 4.4863636,
                "pitch": 38,
                "velocity": 51,
                "duration": 0.2863636,
                "tempo": 120.0
            },
            {
                "start_time": 4.5022727,
                "end_time": 4.7886364,
                "pitch": 41,
                "velocity": 51,
                "duration": 0.2863636,
                "tempo": 120.0
            },
            {
                "start_time": 4.8068182,
                "end_time": 5.3886364,
                "pitch": 39,
                "velocity": 51,
                "duration": 0.5818182,
                "tempo": 120.0
            },
            {
                "start_time": 5.4068182,
                "end_time": 5.9954545,
                "pitch": 39,
                "velocity": 51,
                "duration": 0.5886364,
                "tempo": 120.0
            },
            {
                "start_time": 6.0113636,
                "end_time": 6.5954545,
                "pitch": 39,
                "velocity": 51,
                "duration": 0.5840909,
                "tempo": 120.0
            },
            {
                "start_time": 6.6113636,
                "end_time": 7.1954545,
                "pitch": 39,
                "velocity": 51,
                "duration": 0.5840909,
                "tempo": 120.0
            },
            {
                "start_time": 7.2113636,
                "end_time": 8.4022727,
                "pitch": 33,
                "velocity": 51,
                "duration": 1.1909091,
                "tempo": 120.0
            },
            {
                "start_time": 8.4181818,
                "end_time": 9.6068182,
                "pitch": 36,
                "velocity": 51,
                "duration": 1.1886364,
                "tempo": 120.0
            },
            {
                "start_time": 9.625,
                "end_time": 10.2068182,
                "pitch": 31,
                "velocity": 51,
                "duration": 0.5818182,
                "tempo": 120.0
            },
            {
                "start_time": 10.225,
                "end_time": 10.8068182,
                "pitch": 31,
                "velocity": 51,
                "duration": 0.5818182,
                "tempo": 120.0
            },
            {
                "start_time": 10.825,
                "end_time": 11.4136364,
                "pitch": 31,
                "velocity": 51,
                "duration": 0.5886364,
                "tempo": 120.0
            },
            {
                "start_time": 11.4295455,
                "end_time": 11.7136364,
                "pitch": 31,
                "velocity": 51,
                "duration": 0.2840909,
                "tempo": 120.0
            },
            {
                "start_time": 11.7295455,
                "end_time": 12.0136364,
                "pitch": 37,
                "velocity": 51,
                "duration": 0.2840909,
                "tempo": 120.0
            },
            {
                "start_time": 12.0295455,
                "end_time": 12.6136364,
                "pitch": 38,
                "velocity": 51,
                "duration": 0.5840909,
                "tempo": 120.0
            },
            {
                "start_time": 12.6295455,
                "end_time": 13.2136364,
                "pitch": 38,
                "velocity": 51,
                "duration": 0.5840909,
                "tempo": 120.0
            },
            {
                "start_time": 13.2295455,
                "end_time": 13.8136364,
                "pitch": 38,
                "velocity": 51,
                "duration": 0.5840909,
                "tempo": 120.0
            },
            {
                "start_time": 13.8295455,
                "end_time": 14.1159091,
                "pitch": 38,
                "velocity": 51,
                "duration": 0.2863636,
                "tempo": 120.0
            },
            {
                "start_time": 14.1340909,
                "end_time": 14.4204545,
                "pitch": 41,
                "velocity": 51,
                "duration": 0.2863636,
                "tempo": 120.0
            },
            {
                "start_time": 14.4363636,
                "end_time": 15.0204545,
                "pitch": 39,
                "velocity": 51,
                "duration": 0.5840909,
                "tempo": 120.0
            },
            {
                "start_time": 15.0363636,
                "end_time": 15.6204545,
                "pitch": 39,
                "velocity": 51,
                "duration": 0.5840909,
                "tempo": 120.0
            },
            {
                "start_time": 15.6363636,
                "end_time": 16.2204545,
                "pitch": 39,
                "velocity": 51,
                "duration": 0.5840909,
                "tempo": 120.0
            },
            {
                "start_time": 16.2363636,
                "end_time": 16.8204545,
                "pitch": 39,
                "velocity": 51,
                "duration": 0.5840909,
                "tempo": 120.0
            },
            {
                "start_time": 16.8363636,
                "end_time": 18.025,
                "pitch": 33,
                "velocity": 51,
                "duration": 1.1886364,
                "tempo": 120.0
            },
            {
                "start_time": 18.0431818,
                "end_time": 19.2386364,
                "pitch": 36,
                "velocity": 51,
                "duration": 1.1954545,
                "tempo": 120.0
            },
            {
                "start_time": 19.2545455,
                "end_time": 19.8386364,
                "pitch": 31,
                "velocity": 51,
                "duration": 0.5840909,
                "tempo": 120.0
            },
            {
                "start_time": 19.8545455,
                "end_time": 20.4431818,
                "pitch": 31,
                "velocity": 51,
                "duration": 0.5886364,
                "tempo": 120.0
            },
            {
                "start_time": 20.4613636,
                "end_time": 21.0431818,
                "pitch": 31,
                "velocity": 51,
                "duration": 0.5818182,
                "tempo": 120.0
            },
            {
                "start_time": 21.0613636,
                "end_time": 21.3477273,
                "pitch": 31,
                "velocity": 51,
                "duration": 0.2863636,
                "tempo": 120.0
            },
            {
                "start_time": 21.3636364,
                "end_time": 21.65,
                "pitch": 37,
                "velocity": 51,
                "duration": 0.2863636,
                "tempo": 120.0
            },
            {
                "start_time": 21.6659091,
                "end_time": 22.2568182,
                "pitch": 38,
                "velocity": 51,
                "duration": 0.5909091,
                "tempo": 120.0
            },
            {
                "start_time": 22.2727273,
                "end_time": 22.8568182,
                "pitch": 38,
                "velocity": 51,
                "duration": 0.5840909,
                "tempo": 120.0
            },
            {
                "start_time": 22.8727273,
                "end_time": 23.4613636,
                "pitch": 38,
                "velocity": 51,
                "duration": 0.5886364,
                "tempo": 120.0
            },
            {
                "start_time": 23.4795455,
                "end_time": 23.7613636,
                "pitch": 38,
                "velocity": 51,
                "duration": 0.2818182,
                "tempo": 120.0
            },
            {
                "start_time": 23.7795455,
                "end_time": 24.0613636,
                "pitch": 41,
                "velocity": 51,
                "duration": 0.2818182,
                "tempo": 120.0
            },
            {
                "start_time": 24.0795455,
                "end_time": 24.6681818,
                "pitch": 39,
                "velocity": 51,
                "duration": 0.5886364,
                "tempo": 120.0
            },
            {
                "start_time": 24.6840909,
                "end_time": 25.275,
                "pitch": 39,
                "velocity": 51,
                "duration": 0.5909091,
                "tempo": 120.0
            },
            {
                "start_time": 25.2909091,
                "end_time": 25.875,
                "pitch": 39,
                "velocity": 51,
                "duration": 0.5840909,
                "tempo": 120.0
            },
            {
                "start_time": 25.8909091,
                "end_time": 26.4795455,
                "pitch": 39,
                "velocity": 51,
                "duration": 0.5886364,
                "tempo": 120.0
            },
            {
                "start_time": 26.4977273,
                "end_time": 27.6863636,
                "pitch": 33,
                "velocity": 51,
                "duration": 1.1886364,
                "tempo": 120.0
            },
            {
                "start_time": 27.7022727,
                "end_time": 28.8931818,
                "pitch": 36,
                "velocity": 51,
                "duration": 1.1909091,
                "tempo": 120.0
            },
            {
                "start_time": 28.9090909,
                "end_time": 29.4977273,
                "pitch": 31,
                "velocity": 51,
                "duration": 0.5886364,
                "tempo": 120.0
            },
            {
                "start_time": 29.5159091,
                "end_time": 30.0977273,
                "pitch": 31,
                "velocity": 51,
                "duration": 0.5818182,
                "tempo": 120.0
            },
            {
                "start_time": 30.1159091,
                "end_time": 30.7045455,
                "pitch": 31,
                "velocity": 51,
                "duration": 0.5886364,
                "tempo": 120.0
            },
            {
                "start_time": 30.7204545,
                "end_time": 31.0068182,
                "pitch": 31,
                "velocity": 51,
                "duration": 0.2863636,
                "tempo": 120.0
            },
            {
                "start_time": 31.025,
                "end_time": 31.3113636,
                "pitch": 37,
                "velocity": 51,
                "duration": 0.2863636,
                "tempo": 120.0
            },
            {
                "start_time": 31.3272727,
                "end_time": 31.9113636,
                "pitch": 38,
                "velocity": 51,
                "duration": 0.5840909,
                "tempo": 120.0
            },
            {
                "start_time": 31.9272727,
                "end_time": 32.5159091,
                "pitch": 38,
                "velocity": 51,
                "duration": 0.5886364,
                "tempo": 120.0
            },
            {
                "start_time": 32.5340909,
                "end_time": 33.1159091,
                "pitch": 38,
                "velocity": 51,
                "duration": 0.5818182,
                "tempo": 120.0
            },
            {
                "start_time": 33.1340909,
                "end_time": 33.4204545,
                "pitch": 38,
                "velocity": 51,
                "duration": 0.2863636,
                "tempo": 120.0
            },
            {
                "start_time": 33.4363636,
                "end_time": 33.7227273,
                "pitch": 41,
                "velocity": 51,
                "duration": 0.2863636,
                "tempo": 120.0
            },
            {
                "start_time": 33.7386364,
                "end_time": 34.3295455,
                "pitch": 39,
                "velocity": 51,
                "duration": 0.5909091,
                "tempo": 120.0
            },
            {
                "start_time": 34.3454545,
                "end_time": 34.9340909,
                "pitch": 39,
                "velocity": 51,
                "duration": 0.5886364,
                "tempo": 120.0
            },
            {
                "start_time": 34.9522727,
                "end_time": 35.5340909,
                "pitch": 39,
                "velocity": 51,
                "duration": 0.5818182,
                "tempo": 120.0
            },
            {
                "start_time": 35.5522727,
                "end_time": 36.1409091,
                "pitch": 39,
                "velocity": 51,
                "duration": 0.5886364,
                "tempo": 120.0
            },
            {
                "start_time": 36.1568182,
                "end_time": 37.3522727,
                "pitch": 33,
                "velocity": 51,
                "duration": 1.1954545,
                "tempo": 120.0
            },
            {
                "start_time": 37.3704545,
                "end_time": 38.5590909,
                "pitch": 36,
                "velocity": 51,
                "duration": 1.1886364,
                "tempo": 120.0
            },
            {
                "start_time": 38.575,
                "end_time": 39.7704545,
                "pitch": 38,
                "velocity": 51,
                "duration": 1.1954545,
                "tempo": 120.0
            },
            {
                "start_time": 39.7886364,
                "end_time": 40.075,
                "pitch": 46,
                "velocity": 51,
                "duration": 0.2863636,
                "tempo": 120.0
            },
            {
                "start_time": 40.0909091,
                "end_time": 40.3772727,
                "pitch": 45,
                "velocity": 51,
                "duration": 0.2863636,
                "tempo": 120.0
            },
            {
                "start_time": 40.3931818,
                "end_time": 40.6795455,
                "pitch": 43,
                "velocity": 51,
                "duration": 0.2863636,
                "tempo": 120.0
            },
            {
                "start_time": 40.6977273,
                "end_time": 40.9840909,
                "pitch": 42,
                "velocity": 51,
                "duration": 0.2863636,
                "tempo": 120.0
            },
            {
                "start_time": 41.0,
                "end_time": 43.4022727,
                "pitch": 38,
                "velocity": 51,
                "duration": 2.4022727,
                "tempo": 120.0
            },
            {
                "start_time": 43.4181818,
                "end_time": 43.8045455,
                "pitch": 39,
                "velocity": 51,
                "duration": 0.3863636,
                "tempo": 120.0
            },
            {
                "start_time": 43.8227273,
                "end_time": 44.2068182,
                "pitch": 43,
                "velocity": 51,
                "duration": 0.3840909,
                "tempo": 120.0
            },
            {
                "start_time": 44.225,
                "end_time": 44.6068182,
                "pitch": 46,
                "velocity": 51,
                "duration": 0.3818182,
                "tempo": 120.0
            },
            {
                "start_time": 44.625,
                "end_time": 45.0113636,
                "pitch": 51,
                "velocity": 51,
                "duration": 0.3863636,
                "tempo": 120.0
            },
            {
                "start_time": 45.0272727,
                "end_time": 45.4159091,
                "pitch": 50,
                "velocity": 51,
                "duration": 0.3886364,
                "tempo": 120.0
            },
            {
                "start_time": 45.4318182,
                "end_time": 45.8204545,
                "pitch": 51,
                "velocity": 51,
                "duration": 0.3886364,
                "tempo": 120.0
            },
            {
                "start_time": 45.8363636,
                "end_time": 46.2227273,
                "pitch": 53,
                "velocity": 51,
                "duration": 0.3863636,
                "tempo": 120.0
            },
            {
                "start_time": 46.2409091,
                "end_time": 46.6272727,
                "pitch": 51,
                "velocity": 51,
                "duration": 0.3863636,
                "tempo": 120.0
            },
            {
                "start_time": 46.6454545,
                "end_time": 47.0318182,
                "pitch": 46,
                "velocity": 51,
                "duration": 0.3863636,
                "tempo": 120.0
            },
            {
                "start_time": 47.0477273,
                "end_time": 47.4318182,
                "pitch": 50,
                "velocity": 51,
                "duration": 0.3840909,
                "tempo": 120.0
            },
            {
                "start_time": 47.4477273,
                "end_time": 47.8340909,
                "pitch": 48,
                "velocity": 51,
                "duration": 0.3863636,
                "tempo": 120.0
            },
            {
                "start_time": 47.85,
                "end_time": 48.2386364,
                "pitch": 42,
                "velocity": 51,
                "duration": 0.3886364,
                "tempo": 120.0
            },
            {
                "start_time": 48.2545455,
                "end_time": 49.45,
                "pitch": 38,
                "velocity": 51,
                "duration": 1.1954545,
                "tempo": 120.0
            },
            {
                "start_time": 49.4659091,
                "end_time": 49.7522727,
                "pitch": 46,
                "velocity": 51,
                "duration": 0.2863636,
                "tempo": 120.0
            },
            {
                "start_time": 49.7704545,
                "end_time": 50.0568182,
                "pitch": 45,
                "velocity": 51,
                "duration": 0.2863636,
                "tempo": 120.0
            },
            {
                "start_time": 50.0727273,
                "end_time": 50.3568182,
                "pitch": 43,
                "velocity": 51,
                "duration": 0.2840909,
                "tempo": 120.0
            },
            {
                "start_time": 50.3727273,
                "end_time": 50.6568182,
                "pitch": 42,
                "velocity": 51,
                "duration": 0.2840909,
                "tempo": 120.0
            },
            {
                "start_time": 50.6727273,
                "end_time": 53.0795455,
                "pitch": 38,
                "velocity": 51,
                "duration": 2.4068182,
                "tempo": 120.0
            },
            {
                "start_time": 53.0977273,
                "end_time": 53.4795455,
                "pitch": 39,
                "velocity": 51,
                "duration": 0.3818182,
                "tempo": 120.0
            },
            {
                "start_time": 53.4977273,
                "end_time": 53.8818182,
                "pitch": 43,
                "velocity": 51,
                "duration": 0.3840909,
                "tempo": 120.0
            },
            {
                "start_time": 53.9,
                "end_time": 54.2863636,
                "pitch": 46,
                "velocity": 51,
                "duration": 0.3863636,
                "tempo": 120.0
            },
            {
                "start_time": 54.3022727,
                "end_time": 54.6909091,
                "pitch": 51,
                "velocity": 51,
                "duration": 0.3886364,
                "tempo": 120.0
            },
            {
                "start_time": 54.7068182,
                "end_time": 55.0931818,
                "pitch": 50,
                "velocity": 51,
                "duration": 0.3863636,
                "tempo": 120.0
            },
            {
                "start_time": 55.1113636,
                "end_time": 55.4977273,
                "pitch": 51,
                "velocity": 51,
                "duration": 0.3863636,
                "tempo": 120.0
            },
            {
                "start_time": 55.5159091,
                "end_time": 56.7045455,
                "pitch": 40,
                "velocity": 51,
                "duration": 1.1886364,
                "tempo": 120.0
            },
            {
                "start_time": 56.7204545,
                "end_time": 57.3113636,
                "pitch": 41,
                "velocity": 51,
                "duration": 0.5909091,
                "tempo": 120.0
            },
            {
                "start_time": 57.3272727,
                "end_time": 57.9159091,
                "pitch": 42,
                "velocity": 51,
                "duration": 0.5886364,
                "tempo": 120.0
            },
            {
                "start_time": 57.9340909,
                "end_time": 58.5227273,
                "pitch": 31,
                "velocity": 51,
                "duration": 0.5886364,
                "tempo": 120.0
            },
            {
                "start_time": 58.5386364,
                "end_time": 59.0954545,
                "pitch": 31,
                "velocity": 51,
                "duration": 0.5568182,
                "tempo": 120.0
            }
        ]
    }
}