{
    "mood": "angry",
    "instruments": {
        "Church Organ": [
            {
                "start_time": 1.6,
                "end_time": 1.6840909,
                "pitch": 74,
                "velocity": 80,
                "duration": 0.0840909,
                "tempo": 120.0
            },
            {
                "start_time": 1.7,
                "end_time": 1.7840909,
                "pitch": 73,
                "velocity": 80,
                "duration": 0.0840909,
                "tempo": 120.0
            },
            {
                "start_time": 1.8022727,
                "end_time": 1.9863636,
                "pitch": 74,
                "velocity": 80,
                "duration": 0.1840909,
                "tempo": 120.0
            },
            {
                "start_time": 2.0022727,
                "end_time": 2.0863636,
                "pitch": 77,
                "velocity": 80,
                "duration": 0.0840909,
                "tempo": 120.0
            },
            {
                "start_time": 2.1022727,
                "end_time": 2.1863636,
                "pitch": 76,
                "velocity": 80,
                "duration": 0.0840909,
                "tempo": 120.0
            },
            {
                "start_time": 2.2022727,
                "end_time": 2.3863636,
                "pitch": 77,
                "velocity": 80,
                "duration": 0.1840909,
                "tempo": 120.0
            },
            {
                "start_time": 2.4022727,
                "end_time": 2.4863636,
                "pitch": 80,
                "velocity": 80,
                "duration": 0.0840909,
                "tempo": 120.0
            },
            {
                "start_time": 2.5022727,
                "end_time": 2.5863636,
                "pitch": 79,
                "velocity": 80,
                "duration": 0.0840909,
                "tempo": 120.0
            },
            {
                "start_time": 2.6022727,
                "end_time": 2.7863636,
                "pitch": 80,
                "velocity": 80,
                "duration": 0.1840909,
                "tempo": 120.0
            },
            {
                "start_time": 2.8022727,
                "end_time": 2.8886364,
                "pitch": 84,
                "velocity": 80,
                "duration": 0.0863636,
                "tempo": 120.0
            },
            {
                "start_time": 2.9045455,
                "end_time": 2.9909091,
                "pitch": 83,
                "velocity": 80,
                "duration": 0.0863636,
                "tempo": 120.0
            },
            {
                "start_time": 3.0068182,
                "end_time": 3.0931818,
                "pitch": 84,
                "velocity": 80,
                "duration": 0.0863636,
                "tempo": 120.0
            },
            {
                "start_time": 4.8090909,
                "end_time": 4.8909091,
                "pitch": 74,
                "velocity": 80,
                "duration": 0.0818182,
                "tempo": 120.0
            },
            {
                "start_time": 4.9090909,
                "end_time": 4.9909091,
                "pitch": 73,
                "velocity": 80,
                "duration": 0.0818182,
                "tempo": 120.0
            },
            {
                "start_time": 5.0090909,
                "end_time": 5.1909091,
                "pitch": 74,
                "velocity": 80,
                "duration": 0.1818182,
                "tempo": 120.0
            },
            {
                "start_time": 5.2090909,
                "end_time": 5.2931818,
                "pitch": 77,
                "velocity": 80,
                "duration": 0.0840909,
                "tempo": 120.0
            },
            {
                "start_time": 5.3090909,
                "end_time": 5.3931818,
                "pitch": 76,
                "velocity": 80,
                "duration": 0.0840909,
                "tempo": 120.0
            },
            {
                "start_time": 5.4090909,
                "end_time": 5.5931818,
                "pitch": 77,
                "velocity": 80,
                "duration": 0.1840909,
                "tempo": 120.0
            },
            {
                "start_time": 5.6113636,
                "end_time": 5.7931818,
                "pitch": 80,
                "velocity": 80,
                "duration": 0.1818182,
                "tempo": 120.0
            },
            {
                "start_time": 5.8113636,
                "end_time": 5.9931818,
                "pitch": 79,
                "velocity": 80,
                "duration": 0.1818182,
                "tempo": 120.0
            },
            {
                "start_time": 6.0113636,
                "end_time": 8.0022727,
                "pitch": 84,
                "velocity": 80,
                "duration": 1.9909091,
                "tempo": 120.0
            },
            {
                "start_time": 8.0181818,
                "end_time": 8.1022727,
                "pitch": 74,
                "velocity": 80,
                "duration": 0.0840909,
                "tempo": 120.0
            },
            {
                "start_time": 8.1204545,
                "end_time": 8.2045455,
                "pitch": 73,
                "velocity": 80,
                "duration": 0.0840909,
                "tempo": 120.0
            },
            {
                "start_time": 8.2204545,
                "end_time": 8.4045455,
                "pitch": 74,
                "velocity": 80,
                "duration": 0.1840909,
                "tempo": 120.0
            },
            {
                "start_time": 8.4227273,
                "end_time": 8.5045455,
                "pitch": 77,
                "velocity": 80,
                "duration": 0.0818182,
                "tempo": 120.0
            },
            {
                "start_time": 8.5227273,
                "end_time": 8.6068182,
                "pitch": 76,
                "velocity": 80,
                "duration": 0.0840909,
                "tempo": 120.0
            },
            {
                "start_time": 8.6227273,
                "end_time": 8.8068182,
                "pitch": 77,
                "velocity": 80,
                "duration": 0.1840909,
                "tempo": 120.0
            },
            {
                "start_time": 8.825,
                "end_time": 8.9090909,
                "pitch": 80,
                "velocity": 80,
                "duration": 0.0840909,
                "tempo": 120.0
            },
            {
                "start_time": 8.925,
                "end_time": 9.0090909,
                "pitch": 79,
                "velocity": 80,
                "duration": 0.0840909,
                "tempo": 120.0
            },
            {
                "start_time": 9.025,
                "end_time": 9.2113636,
                "pitch": 80,
                "velocity": 80,
                "duration": 0.1863636,
                "tempo": 120.0
            },
            {
                "start_time": 9.2272727,
                "end_time": 9.3113636,
                "pitch": 84,
                "velocity": 80,
                "duration": 0.0840909,
                "tempo": 120.0
            },
            {
                "start_time": 9.3272727,
                "end_time": 9.4113636,
                "pitch": 83,
                "velocity": 80,
                "duration": 0.0840909,
                "tempo": 120.0
            },
            {
                "start_time": 9.4272727,
                "end_time": 9.5113636,
                "pitch": 84,
                "velocity": 80,
                "duration": 0.0840909,
                "tempo": 120.0
            },
            {
                "start_time": 11.2386364,
                "end_time": 11.3204545,
                "pitch": 74,
                "velocity": 80,
                "duration": 0.0818182,
                "tempo": 120.0
            },
            {
                "start_time": 11.3386364,
                "end_time": 11.4204545,
                "pitch": 73,
                "velocity": 80,
                "duration": 0.0818182,
                "tempo": 120.0
            },
            {
                "start_time": 11.4386364,
                "end_time": 11.6204545,
                "pitch": 74,
                "velocity": 80,
                "duration": 0.1818182,
                "tempo": 120.0
            },
            {
                "start_time": 11.6386364,
                "end_time": 11.7227273,
                "pitch": 77,
                "velocity": 80,
                "duration": 0.0840909,
                "tempo": 120.0
            },
            {
                "start_time": 11.7386364,
                "end_time": 11.8227273,
                "pitch": 76,
                "velocity": 80,
                "duration": 0.0840909,
                "tempo": 120.0
            },
            {
                "start_time": 11.8386364,
                "end_time": 12.0227273,
                "pitch": 77,
                "velocity": 80,
                "duration": 0.1840909,
                "tempo": 120.0
            },
            {
                "start_time": 12.0409091,
                "end_time": 12.125,
                "pitch": 80,
                "velocity": 80,
                "duration": 0.0840909,
                "tempo": 120.0
            },
            {
                "start_time": 12.1409091,
                "end_time": 12.225,
                "pitch": 79,
                "velocity": 80,
                "duration": 0.0840909,
                "tempo": 120.0
            },
            {
                "start_time": 12.2409091,
                "end_time": 12.4272727,
                "pitch": 80,
                "velocity": 80,
                "duration": 0.1863636,
                "tempo": 120.0
            },
            {
                "start_time": 12.4431818,
                "end_time": 12.7954545,
                "pitch": 84,
                "velocity": 80,
                "duration": 0.3522727,
                "tempo": 120.0
            },
            {
                "start_time": 14.4545455,
                "end_time": 15.0409091,
                "pitch": 84,
                "velocity": 80,
                "duration": 0.5863636,
                "tempo": 120.0
            },
            {
                "start_time": 15.0568182,
                "end_time": 16.0454545,
                "pitch": 87,
                "velocity": 80,
                "duration": 0.9886364,
                "tempo": 120.0
            },
            {
                "start_time": 16.0613636,
                "end_time": 16.6431818,
                "pitch": 89,
                "velocity": 80,
                "duration": 0.5818182,
                "tempo": 120.0
            },
            {
                "start_time": 16.6613636,
                "end_time": 17.65,
                "pitch": 88,
                "velocity": 80,
                "duration": 0.9886364,
                "tempo": 120.0
            },
            {
                "start_time": 19.2613636,
                "end_time": 19.8568182,
                "pitch": 84,
                "velocity": 80,
                "duration": 0.5954545,
                "tempo": 120.0
            },
            {
                "start_time": 19.875,
                "end_time": 20.8590909,
                "pitch": 87,
                "velocity": 80,
                "duration": 0.9840909,
                "tempo": 120.0
            },
            {
                "start_time": 22.4818182,
                "end_time": 22.5636364,
                "pitch": 84,
                "velocity": 80,
                "duration": 0.0818182,
                "tempo": 120.0
            },
            {
                "start_time": 23.0818182,
                "end_time": 25.1409091,
                "pitch": 80,
                "velocity": 80,
                "duration": 2.0590909,
                "tempo": 120.0
            }
        ],
        "Electric Guitar (clean)": [
            {
                "start_time": 0.0,
                "end_time": 0.0840909,
                "pitch": 38,
                "velocity": 64,
                "duration": 0.0840909,
                "tempo": 120.0
            },
            {
                "start_time": 0.1,
                "end_time": 0.1840909,
                "pitch": 37,
                "velocity": 64,
                "duration": 0.0840909,
                "tempo": 120.0
            },
            {
                "start_time": 0.2,
                "end_time": 0.3840909,
                "pitch": 38,
                "velocity": 64,
                "duration": 0.1840909,
                "tempo": 120.0
            },
            {
                "start_time": 0.4,
                "end_time": 0.5840909,
                "pitch": 41,
                "velocity": 64,
                "duration": 0.1840909,
                "tempo": 120.0
            },
            {
                "start_time": 0.6,
                "end_time": 0.7840909,
                "pitch": 40,
                "velocity": 64,
                "duration": 0.1840909,
                "tempo": 120.0
            },
            {
                "start_time": 0.8,
                "end_time": 0.8840909,
                "pitch": 38,
                "velocity": 64,
                "duration": 0.0840909,
                "tempo": 120.0
            },
            {
                "start_time": 0.9,
                "end_time": 0.9840909,
                "pitch": 37,
                "velocity": 64,
                "duration": 0.0840909,
                "tempo": 120.0
            },
            {
                "start_time": 1.0,
                "end_time": 1.1840909,
                "pitch": 38,
                "velocity": 64,
                "duration": 0.1840909,
                "tempo": 120.0
            },
            {
                "start_time": 1.2,
                "end_time": 1.3840909,
                "pitch": 44,
                "velocity": 64,
                "duration": 0.1840909,
                "tempo": 120.0
            },
            {
                "start_time": 1.4,
                "end_time": 1.5840909,
                "pitch": 43,
                "velocity": 64,
                "duration": 0.1840909,
                "tempo": 120.0
            },
            {
                "start_time": 1.6,
                "end_time": 1.6840909,
                "pitch": 38,
                "velocity": 64,
                "duration": 0.0840909,
                "tempo": 120.0
            },
            {
                "start_time": 1.7,
                "end_time": 1.7840909,
                "pitch": 37,
                "velocity": 64,
                "duration": 0.0840909,
                "tempo": 120.0
            },
            {
                "start_time": 1.8022727,
                "end_time": 1.9863636,
                "pitch": 38,
                "velocity": 64,
                "duration": 0.1840909,
                "tempo": 120.0
            },
            {
                "start_time": 2.0022727,
                "end_time": 2.1863636,
                "pitch": 41,
                "velocity": 64,
                "duration": 0.1840909,
                "tempo": 120.0
            },
            {
                "start_time": 2.2022727,
                "end_time": 2.3863636,
                "pitch": 40,
                "velocity": 64,
                "duration": 0.1840909,
                "tempo": 120.0
            },
            {
                "start_time": 2.4022727,
                "end_time": 2.7863636,
                "pitch": 36,
                "velocity": 64,
                "duration": 0.3840909,
                "tempo": 120.0
            },
            {
                "start_time": 2.8022727,
                "end_time": 3.1954545,
                "pitch": 37,
                "velocity": 64,
                "duration": 0.3931818,
                "tempo": 120.0
            },
            {
                "start_time": 3.2136364,
                "end_time": 3.2954545,
                "pitch": 38,
                "velocity": 64,
                "duration": 0.0818182,
                "tempo": 120.0
            },
            {
                "start_time": 3.3113636,
                "end_time": 3.3931818,
                "pitch": 38,
                "velocity": 64,
                "duration": 0.0818182,
                "tempo": 120.0
            },
            {
                "start_time": 3.4090909,
                "end_time": 3.5886364,
                "pitch": 38,
                "velocity": 64,
                "duration": 0.1795455,
                "tempo": 120.0
            },
            {
                "start_time": 3.6045455,
                "end_time": 3.7886364,
                "pitch": 41,
                "velocity": 64,
                "duration": 0.1840909,
                "tempo": 120.0
            },
            {
                "start_time": 3.8045455,
                "end_time": 3.9886364,
                "pitch": 40,
                "velocity": 64,
                "duration": 0.1840909,
                "tempo": 120.0
            },
            {
                "start_time": 4.0045455,
                "end_time": 4.0886364,
                "pitch": 38,
                "velocity": 64,
                "duration": 0.0840909,
                "tempo": 120.0
            },
            {
                "start_time": 4.1045455,
                "end_time": 4.1886364,
                "pitch": 37,
                "velocity": 64,
                "duration": 0.0840909,
                "tempo": 120.0
            },
            {
                "start_time": 4.2045455,
                "end_time": 4.3886364,
                "pitch": 38,
                "velocity": 64,
                "duration": 0.1840909,
                "tempo": 120.0
            },
            {
                "start_time": 4.4045455,
                "end_time": 4.5909091,
                "pitch": 44,
                "velocity": 64,
                "duration": 0.1863636,
                "tempo": 120.0
            },
            {
                "start_time": 4.6068182,
                "end_time": 4.7909091,
                "pitch": 43,
                "velocity": 64,
                "duration": 0.1840909,
                "tempo": 120.0
            },
            {
                "start_time": 4.8090909,
                "end_time": 4.8909091,
                "pitch": 38,
                "velocity": 64,
                "duration": 0.0818182,
                "tempo": 120.0
            },
            {
                "start_time": 4.9090909,
                "end_time": 4.9909091,
                "pitch": 37,
                "velocity": 64,
                "duration": 0.0818182,
                "tempo": 120.0
            },
            {
                "start_time": 5.0090909,
                "end_time": 5.1909091,
                "pitch": 38,
                "velocity": 64,
                "duration": 0.1818182,
                "tempo": 120.0
            },
            {
                "start_time": 5.2090909,
                "end_time": 5.3931818,
                "pitch": 41,
                "velocity": 64,
                "duration": 0.1840909,
                "tempo": 120.0
            },
            {
                "start_time": 5.4090909,
                "end_time": 5.5931818,
                "pitch": 40,
                "velocity": 64,
                "duration": 0.1840909,
                "tempo": 120.0
            },
            {
                "start_time": 5.6113636,
                "end_time": 5.7931818,
                "pitch": 37,
                "velocity": 64,
                "duration": 0.1818182,
                "tempo": 120.0
            },
            {
                "start_time": 5.8113636,
                "end_time": 5.9931818,
                "pitch": 44,
                "velocity": 64,
                "duration": 0.1818182,
                "tempo": 120.0
            },
            {
                "start_time": 6.0113636,
                "end_time": 6.3977273,
                "pitch": 43,
                "velocity": 64,
                "duration": 0.3863636,
                "tempo": 120.0
            },
            {
                "start_time": 6.4136364,
                "end_time": 6.4977273,
                "pitch": 38,
                "velocity": 64,
                "duration": 0.0840909,
                "tempo": 120.0
            },
            {
                "start_time": 6.5136364,
                "end_time": 6.5977273,
                "pitch": 37,
                "velocity": 64,
                "duration": 0.0840909,
                "tempo": 120.0
            },
            {
                "start_time": 6.6159091,
                "end_time": 6.8,
                "pitch": 38,
                "velocity": 64,
                "duration": 0.1840909,
                "tempo": 120.0
            },
            {
                "start_time": 6.8159091,
                "end_time": 7.0,
                "pitch": 41,
                "velocity": 64,
                "duration": 0.1840909,
                "tempo": 120.0
            },
            {
                "start_time": 7.0159091,
                "end_time": 7.2,
                "pitch": 40,
                "velocity": 64,
                "duration": 0.1840909,
                "tempo": 120.0
            },
            {
                "start_time": 7.2159091,
                "end_time": 7.3,
                "pitch": 38,
                "velocity": 64,
                "duration": 0.0840909,
                "tempo": 120.0
            },
            {
                "start_time": 7.3159091,
                "end_time": 7.4,
                "pitch": 37,
                "velocity": 64,
                "duration": 0.0840909,
                "tempo": 120.0
            },
            {
                "start_time": 7.4181818,
                "end_time": 7.6022727,
                "pitch": 38,
                "velocity": 64,
                "duration": 0.1840909,
                "tempo": 120.0
            },
            {
                "start_time": 7.6181818,
                "end_time": 7.8022727,
                "pitch": 44,
                "velocity": 64,
                "duration": 0.1840909,
                "tempo": 120.0
            },
            {
                "start_time": 7.8181818,
                "end_time": 8.0022727,
                "pitch": 43,
                "velocity": 64,
                "duration": 0.1840909,
                "tempo": 120.0
            },
            {
                "start_time": 8.0181818,
                "end_time": 8.1022727,
                "pitch": 38,
                "velocity": 64,
                "duration": 0.0840909,
                "tempo": 120.0
            },
            {
                "start_time": 8.1204545,
                "end_time": 8.2045455,
                "pitch": 37,
                "velocity": 64,
                "duration": 0.0840909,
                "tempo": 120.0
            },
            {
                "start_time": 8.2204545,
                "end_time": 8.4045455,
                "pitch": 38,
                "velocity": 64,
                "duration": 0.1840909,
                "tempo": 120.0
            },
            {
                "start_time": 8.4227273,
                "end_time": 8.6068182,
                "pitch": 41,
                "velocity": 64,
                "duration": 0.1840909,
                "tempo": 120.0
            },
            {
                "start_time": 8.6227273,
                "end_time": 8.8068182,
                "pitch": 40,
                "velocity": 64,
                "duration": 0.1840909,
                "tempo": 120.0
            },
            {
                "start_time": 8.825,
                "end_time": 9.2113636,
                "pitch": 36,
                "velocity": 64,
                "duration": 0.3863636,
                "tempo": 120.0
            },
            {
                "start_time": 9.2272727,
                "end_time": 9.6113636,
                "pitch": 37,
                "velocity": 64,
                "duration": 0.3840909,
                "tempo": 120.0
            },
            {
                "start_time": 9.6272727,
                "end_time": 9.7113636,
                "pitch": 38,
                "velocity": 64,
                "duration": 0.0840909,
                "tempo": 120.0
            },
            {
                "start_time": 9.7272727,
                "end_time": 9.8113636,
                "pitch": 38,
                "velocity": 64,
                "duration": 0.0840909,
                "tempo": 120.0
            },
            {
                "start_time": 9.8272727,
                "end_time": 10.0136364,
                "pitch": 38,
                "velocity": 64,
                "duration": 0.1863636,
                "tempo": 120.0
            },
            {
                "start_time": 10.0295455,
                "end_time": 10.2136364,
                "pitch": 41,
                "velocity": 64,
                "duration": 0.1840909,
                "tempo": 120.0
            },
            {
                "start_time": 10.2318182,
                "end_time": 10.4159091,
                "pitch": 40,
                "velocity": 64,
                "duration": 0.1840909,
                "tempo": 120.0
            },
            {
                "start_time": 10.4318182,
                "end_time": 10.5159091,
                "pitch": 38,
                "velocity": 64,
                "duration": 0.0840909,
                "tempo": 120.0
            },
            {
                "start_time": 10.5340909,
                "end_time": 10.6159091,
                "pitch": 37,
                "velocity": 64,
                "duration": 0.0818182,
                "tempo": 120.0
            },
            {
                "start_time": 10.6340909,
                "end_time": 10.8181818,
                "pitch": 38,
                "velocity": 64,
                "duration": 0.1840909,
                "tempo": 120.0
            },
            {
                "start_time": 10.8340909,
                "end_time": 11.0204545,
                "pitch": 44,
                "velocity": 64,
                "duration": 0.1863636,
                "tempo": 120.0
            },
            {
                "start_time": 11.0363636,
                "end_time": 11.2204545,
                "pitch": 43,
                "velocity": 64,
                "duration": 0.1840909,
                "tempo": 120.0
            },
            {
                "start_time": 11.2386364,
                "end_time": 11.3204545,
                "pitch": 38,
                "velocity": 64,
                "duration": 0.0818182,
                "tempo": 120.0
            },
            {
                "start_time": 11.3386364,
                "end_time": 11.4204545,
                "pitch": 37,
                "velocity": 64,
                "duration": 0.0818182,
                "tempo": 120.0
            },
            {
                "start_time": 11.4386364,
                "end_time": 11.6204545,
                "pitch": 38,
                "velocity": 64,
                "duration": 0.1818182,
                "tempo": 120.0
            },
            {
                "start_time": 11.6386364,
                "end_time": 11.8227273,
                "pitch": 41,
                "velocity": 64,
                "duration": 0.1840909,
                "tempo": 120.0
            },
            {
                "start_time": 11.8386364,
                "end_time": 12.0227273,
                "pitch": 40,
                "velocity": 64,
                "duration": 0.1840909,
                "tempo": 120.0
            },
            {
                "start_time": 12.0409091,
                "end_time": 12.4272727,
                "pitch": 44,
                "velocity": 64,
                "duration": 0.3863636,
                "tempo": 120.0
            },
            {
                "start_time": 12.4431818,
                "end_time": 12.8295455,
                "pitch": 43,
                "velocity": 64,
                "duration": 0.3863636,
                "tempo": 120.0
            },
            {
                "start_time": 12.8454545,
                "end_time": 13.8340909,
                "pitch": 41,
                "velocity": 64,
                "duration": 0.9886364,
                "tempo": 120.0
            },
            {
                "start_time": 13.85,
                "end_time": 14.0340909,
                "pitch": 40,
                "velocity": 64,
                "duration": 0.1840909,
                "tempo": 120.0
            },
            {
                "start_time": 14.0522727,
                "end_time": 14.2363636,
                "pitch": 41,
                "velocity": 64,
                "duration": 0.1840909,
                "tempo": 120.0
            },
            {
                "start_time": 14.2522727,
                "end_time": 14.4363636,
                "pitch": 40,
                "velocity": 64,
                "duration": 0.1840909,
                "tempo": 120.0
            },
            {
                "start_time": 14.4545455,
                "end_time": 15.4431818,
                "pitch": 37,
                "velocity": 64,
                "duration": 0.9886364,
                "tempo": 120.0
            },
            {
                "start_time": 15.4590909,
                "end_time": 15.6431818,
                "pitch": 36,
                "velocity": 64,
                "duration": 0.1840909,
                "tempo": 120.0
            },
            {
                "start_time": 15.6590909,
                "end_time": 15.8431818,
                "pitch": 36,
                "velocity": 64,
                "duration": 0.1840909,
                "tempo": 120.0
            },
            {
                "start_time": 15.8613636,
                "end_time": 16.0454545,
                "pitch": 37,
                "velocity": 64,
                "duration": 0.1840909,
                "tempo": 120.0
            },
            {
                "start_time": 16.0613636,
                "end_time": 16.6431818,
                "pitch": 38,
                "velocity": 64,
                "duration": 0.5818182,
                "tempo": 120.0
            },
            {
                "start_time": 16.6613636,
                "end_time": 18.6545455,
                "pitch": 44,
                "velocity": 64,
                "duration": 1.9931818,
                "tempo": 120.0
            },
            {
                "start_time": 18.6704545,
                "end_time": 18.8545455,
                "pitch": 36,
                "velocity": 64,
                "duration": 0.1840909,
                "tempo": 120.0
            },
            {
                "start_time": 18.8704545,
                "end_time": 19.05,
                "pitch": 36,
                "velocity": 64,
                "duration": 0.1795455,
                "tempo": 120.0
            },
            {
                "start_time": 19.0659091,
                "end_time": 19.2454545,
                "pitch": 37,
                "velocity": 64,
                "duration": 0.1795455,
                "tempo": 120.0
            },
            {
                "start_time": 19.2613636,
                "end_time": 19.8568182,
                "pitch": 38,
                "velocity": 64,
                "duration": 0.5954545,
                "tempo": 120.0
            },
            {
                "start_time": 19.875,
                "end_time": 21.8590909,
                "pitch": 34,
                "velocity": 64,
                "duration": 1.9840909,
                "tempo": 120.0
            },
            {
                "start_time": 21.875,
                "end_time": 22.0636364,
                "pitch": 36,
                "velocity": 64,
                "duration": 0.1886364,
                "tempo": 120.0
            },
            {
                "start_time": 22.0818182,
                "end_time": 22.2636364,
                "pitch": 36,
                "velocity": 64,
                "duration": 0.1818182,
                "tempo": 120.0
            },
            {
                "start_time": 22.2818182,
                "end_time": 22.4636364,
                "pitch": 37,
                "velocity": 64,
                "duration": 0.1818182,
                "tempo": 120.0
            },
            {
                "start_time": 22.4818182,
                "end_time": 23.0659091,
                "pitch": 38,
                "velocity": 64,
                "duration": 0.5840909,
                "tempo": 120.0
            },
            {
                "start_time": 23.0818182,
                "end_time": 25.075,
                "pitch": 41,
                "velocity": 64,
                "duration": 1.9931818,
                "tempo": 120.0
            },
            {
                "start_time": 25.0909091,
                "end_time": 25.275,
                "pitch": 40,
                "velocity": 64,
                "duration": 0.1840909,
                "tempo": 120.0
            },
            {
                "start_time": 25.2931818,
                "end_time": 25.475,
                "pitch": 41,
                "velocity": 64,
                "duration": 0.1818182,
                "tempo": 120.0
            },
            {
                "start_time": 25.4931818,
                "end_time": 25.675,
                "pitch": 43,
                "velocity": 64,
                "duration": 0.1818182,
                "tempo": 120.0
            },
            {
                "start_time": 25.6931818,
                "end_time": 25.725,
                "pitch": 38,
                "velocity": 64,
                "duration": 0.0318182,
                "tempo": 120.0
            }
        ],
        "Synth Bass 1": [
            {
                "start_time": 0.0340909,
                "end_time": 0.1159091,
                "pitch": 62,
                "velocity": 51,
                "duration": 0.0818182,
                "tempo": 120.0
            },
            {
                "start_time": 0.1340909,
                "end_time": 0.2159091,
                "pitch": 61,
                "velocity": 51,
                "duration": 0.0818182,
                "tempo": 120.0
            },
            {
                "start_time": 0.2340909,
                "end_time": 0.4159091,
                "pitch": 62,
                "velocity": 51,
                "duration": 0.1818182,
                "tempo": 120.0
            },
            {
                "start_time": 0.4340909,
                "end_time": 0.5159091,
                "pitch": 65,
                "velocity": 51,
                "duration": 0.0818182,
                "tempo": 120.0
            },
            {
                "start_time": 0.5340909,
                "end_time": 0.6159091,
                "pitch": 64,
                "velocity": 51,
                "duration": 0.0818182,
                "tempo": 120.0
            },
            {
                "start_time": 0.6340909,
                "end_time": 0.8159091,
                "pitch": 65,
                "velocity": 51,
                "duration": 0.1818182,
                "tempo": 120.0
            },
            {
                "start_time": 0.8340909,
                "end_time": 0.9159091,
                "pitch": 68,
                "velocity": 51,
                "duration": 0.0818182,
                "tempo": 120.0
            },
            {
                "start_time": 0.9340909,
                "end_time": 1.0159091,
                "pitch": 67,
                "velocity": 51,
                "duration": 0.0818182,
                "tempo": 120.0
            },
            {
                "start_time": 1.0340909,
                "end_time": 1.2159091,
                "pitch": 68,
                "velocity": 51,
                "duration": 0.1818182,
                "tempo": 120.0
            },
            {
                "start_time": 1.2340909,
                "end_time": 1.3159091,
                "pitch": 72,
                "velocity": 51,
                "duration": 0.0818182,
                "tempo": 120.0
            },
            {
                "start_time": 1.3340909,
                "end_time": 1.4159091,
                "pitch": 71,
                "velocity": 51,
                "duration": 0.0818182,
                "tempo": 120.0
            },
            {
                "start_time": 1.4340909,
                "end_time": 1.6159091,
                "pitch": 72,
                "velocity": 51,
                "duration": 0.1818182,
                "tempo": 120.0
            },
            {
                "start_time": 1.6340909,
                "end_time": 2.6204545,
                "pitch": 77,
                "velocity": 51,
                "duration": 0.9863636,
                "tempo": 120.0
            },
            {
                "start_time": 2.6363636,
                "end_time": 2.8204545,
                "pitch": 75,
                "velocity": 51,
                "duration": 0.1840909,
                "tempo": 120.0
            },
            {
                "start_time": 2.8363636,
                "end_time": 3.025,
                "pitch": 77,
                "velocity": 51,
                "duration": 0.1886364,
                "tempo": 120.0
            },
            {
                "start_time": 3.0431818,
                "end_time": 3.2295455,
                "pitch": 75,
                "velocity": 51,
                "duration": 0.1863636,
                "tempo": 120.0
            },
            {
                "start_time": 3.2454545,
                "end_time": 3.3272727,
                "pitch": 75,
                "velocity": 51,
                "duration": 0.0818182,
                "tempo": 120.0
            },
            {
                "start_time": 3.3431818,
                "end_time": 3.425,
                "pitch": 74,
                "velocity": 51,
                "duration": 0.0818182,
                "tempo": 120.0
            },
            {
                "start_time": 3.4431818,
                "end_time": 4.825,
                "pitch": 72,
                "velocity": 51,
                "duration": 1.3818182,
                "tempo": 120.0
            },
            {
                "start_time": 4.8409091,
                "end_time": 4.875,
                "pitch": 50,
                "velocity": 32,
                "duration": 0.0340909,
                "tempo": 120.0
            },
            {
                "start_time": 4.875,
                "end_time": 4.9090909,
                "pitch": 47,
                "velocity": 32,
                "duration": 0.0340909,
                "tempo": 120.0
            },
            {
                "start_time": 4.9090909,
                "end_time": 4.9409091,
                "pitch": 43,
                "velocity": 32,
                "duration": 0.0318182,
                "tempo": 120.0
            },
            {
                "start_time": 4.9409091,
                "end_time": 4.975,
                "pitch": 50,
                "velocity": 32,
                "duration": 0.0340909,
                "tempo": 120.0
            },
            {
                "start_time": 4.975,
                "end_time": 5.0090909,
                "pitch": 47,
                "velocity": 32,
                "duration": 0.0340909,
                "tempo": 120.0
            },
            {
                "start_time": 5.0090909,
                "end_time": 5.0409091,
                "pitch": 43,
                "velocity": 32,
                "duration": 0.0318182,
                "tempo": 120.0
            },
            {
                "start_time": 5.0409091,
                "end_time": 5.075,
                "pitch": 40,
                "velocity": 32,
                "duration": 0.0340909,
                "tempo": 120.0
            },
            {
                "start_time": 5.075,
                "end_time": 5.1090909,
                "pitch": 37,
                "velocity": 32,
                "duration": 0.0340909,
                "tempo": 120.0
            },
            {
                "start_time": 5.1090909,
                "end_time": 5.1409091,
                "pitch": 34,
                "velocity": 32,
                "duration": 0.0318182,
                "tempo": 120.0
            },
            {
                "start_time": 5.1409091,
                "end_time": 5.1590909,
                "pitch": 47,
                "velocity": 32,
                "duration": 0.0181818,
                "tempo": 120.0
            },
            {
                "start_time": 5.1590909,
                "end_time": 5.175,
                "pitch": 45,
                "velocity": 32,
                "duration": 0.0159091,
                "tempo": 120.0
            },
            {
                "start_time": 5.175,
                "end_time": 5.2090909,
                "pitch": 43,
                "velocity": 32,
                "duration": 0.0340909,
                "tempo": 120.0
            },
            {
                "start_time": 5.2090909,
                "end_time": 5.2409091,
                "pitch": 40,
                "velocity": 32,
                "duration": 0.0318182,
                "tempo": 120.0
            },
            {
                "start_time": 5.2409091,
                "end_time": 5.2590909,
                "pitch": 47,
                "velocity": 32,
                "duration": 0.0181818,
                "tempo": 120.0
            },
            {
                "start_time": 5.2590909,
                "end_time": 5.275,
                "pitch": 45,
                "velocity": 32,
                "duration": 0.0159091,
                "tempo": 120.0
            },
            {
                "start_time": 5.275,
                "end_time": 5.3090909,
                "pitch": 43,
                "velocity": 32,
                "duration": 0.0340909,
                "tempo": 120.0
            },
            {
                "start_time": 5.3090909,
                "end_time": 5.3431818,
                "pitch": 40,
                "velocity": 32,
                "duration": 0.0340909,
                "tempo": 120.0
            },
            {
                "start_time": 5.3431818,
                "end_time": 5.375,
                "pitch": 50,
                "velocity": 32,
                "duration": 0.0318182,
                "tempo": 120.0
            },
            {
                "start_time": 5.375,
                "end_time": 5.4090909,
                "pitch": 47,
                "velocity": 32,
                "duration": 0.0340909,
                "tempo": 120.0
            },
            {
                "start_time": 5.4090909,
                "end_time": 5.4431818,
                "pitch": 43,
                "velocity": 32,
                "duration": 0.0340909,
                "tempo": 120.0
            },
            {
                "start_time": 5.4431818,
                "end_time": 5.4772727,
                "pitch": 40,
                "velocity": 32,
                "duration": 0.0340909,
                "tempo": 120.0
            },
            {
                "start_time": 5.4772727,
                "end_time": 5.5090909,
                "pitch": 37,
                "velocity": 32,
                "duration": 0.0318182,
                "tempo": 120.0
            },
            {
                "start_time": 5.5090909,
                "end_time": 5.5431818,
                "pitch": 34,
                "velocity": 32,
                "duration": 0.0340909,
                "tempo": 120.0
            },
            {
                "start_time": 5.5431818,
                "end_time": 5.5613636,
                "pitch": 47,
                "velocity": 32,
                "duration": 0.0181818,
                "tempo": 120.0
            },
            {
                "start_time": 5.5613636,
                "end_time": 5.5772727,
                "pitch": 45,
                "velocity": 32,
                "duration": 0.0159091,
                "tempo": 120.0
            },
            {
                "start_time": 5.5772727,
                "end_time": 5.6113636,
                "pitch": 43,
                "velocity": 32,
                "duration": 0.0340909,
                "tempo": 120.0
            },
            {
                "start_time": 5.6113636,
                "end_time": 5.6431818,
                "pitch": 40,
                "velocity": 32,
                "duration": 0.0318182,
                "tempo": 120.0
            },
            {
                "start_time": 5.6431818,
                "end_time": 5.6772727,
                "pitch": 50,
                "velocity": 32,
                "duration": 0.0340909,
                "tempo": 120.0
            },
            {
                "start_time": 5.6772727,
                "end_time": 5.7113636,
                "pitch": 47,
                "velocity": 32,
                "duration": 0.0340909,
                "tempo": 120.0
            },
            {
                "start_time": 5.7113636,
                "end_time": 5.7431818,
                "pitch": 43,
                "velocity": 32,
                "duration": 0.0318182,
                "tempo": 120.0
            },
            {
                "start_time": 5.7431818,
                "end_time": 5.7772727,
                "pitch": 40,
                "velocity": 32,
                "duration": 0.0340909,
                "tempo": 120.0
            },
            {
                "start_time": 5.7772727,
                "end_time": 5.8113636,
                "pitch": 37,
                "velocity": 32,
                "duration": 0.0340909,
                "tempo": 120.0
            },
            {
                "start_time": 5.8113636,
                "end_time": 5.8431818,
                "pitch": 34,
                "velocity": 32,
                "duration": 0.0318182,
                "tempo": 120.0
            },
            {
                "start_time": 5.8431818,
                "end_time": 5.8613636,
                "pitch": 47,
                "velocity": 32,
                "duration": 0.0181818,
                "tempo": 120.0
            },
            {
                "start_time": 5.8613636,
                "end_time": 5.8772727,
                "pitch": 45,
                "velocity": 32,
                "duration": 0.0159091,
                "tempo": 120.0
            },
            {
                "start_time": 5.8772727,
                "end_time": 5.9113636,
                "pitch": 43,
                "velocity": 32,
                "duration": 0.0340909,
                "tempo": 120.0
            },
            {
                "start_time": 5.9113636,
                "end_time": 5.9431818,
                "pitch": 40,
                "velocity": 32,
                "duration": 0.0318182,
                "tempo": 120.0
            },
            {
                "start_time": 5.9431818,
                "end_time": 5.9613636,
                "pitch": 47,
                "velocity": 32,
                "duration": 0.0181818,
                "tempo": 120.0
            },
            {
                "start_time": 5.9613636,
                "end_time": 5.9772727,
                "pitch": 45,
                "velocity": 32,
                "duration": 0.0159091,
                "tempo": 120.0
            },
            {
                "start_time": 5.9772727,
                "end_time": 6.0113636,
                "pitch": 43,
                "velocity": 32,
                "duration": 0.0340909,
                "tempo": 120.0
            },
            {
                "start_time": 6.0113636,
                "end_time": 6.0454545,
                "pitch": 40,
                "velocity": 32,
                "duration": 0.0340909,
                "tempo": 120.0
            },
            {
                "start_time": 6.0454545,
                "end_time": 6.0772727,
                "pitch": 50,
                "velocity": 32,
                "duration": 0.0318182,
                "tempo": 120.0
            },
            {
                "start_time": 6.0772727,
                "end_time": 6.1113636,
                "pitch": 47,
                "velocity": 32,
                "duration": 0.0340909,
                "tempo": 120.0
            },
            {
                "start_time": 6.1113636,
                "end_time": 6.1454545,
                "pitch": 43,
                "velocity": 32,
                "duration": 0.0340909,
                "tempo": 120.0
            },
            {
                "start_time": 6.1454545,
                "end_time": 6.1613636,
                "pitch": 47,
                "velocity": 32,
                "duration": 0.0159091,
                "tempo": 120.0
            },
            {
                "start_time": 6.1613636,
                "end_time": 6.1795455,
                "pitch": 45,
                "velocity": 32,
                "duration": 0.0181818,
                "tempo": 120.0
            },
            {
                "start_time": 6.1795455,
                "end_time": 6.2113636,
                "pitch": 43,
                "velocity": 32,
                "duration": 0.0318182,
                "tempo": 120.0
            },
            {
                "start_time": 6.2113636,
                "end_time": 6.2454545,
                "pitch": 40,
                "velocity": 32,
                "duration": 0.0340909,
                "tempo": 120.0
            },
            {
                "start_time": 6.2454545,
                "end_time": 6.2636364,
                "pitch": 47,
                "velocity": 32,
                "duration": 0.0181818,
                "tempo": 120.0
            },
            {
                "start_time": 6.2636364,
                "end_time": 6.2795455,
                "pitch": 45,
                "velocity": 32,
                "duration": 0.0159091,
                "tempo": 120.0
            },
            {
                "start_time": 6.2795455,
                "end_time": 6.3136364,
                "pitch": 43,
                "velocity": 32,
                "duration": 0.0340909,
                "tempo": 120.0
            },
            {
                "start_time": 6.3136364,
                "end_time": 6.3454545,
                "pitch": 40,
                "velocity": 32,
                "duration": 0.0318182,
                "tempo": 120.0
            },
            {
                "start_time": 6.3454545,
                "end_time": 6.3795455,
                "pitch": 44,
                "velocity": 32,
                "duration": 0.0340909,
                "tempo": 120.0
            },
            {
                "start_time": 6.3795455,
                "end_time": 6.4477273,
                "pitch": 43,
                "velocity": 32,
                "duration": 0.0681818,
                "tempo": 120.0
            },
            {
                "start_time": 6.4477273,
                "end_time": 6.5318182,
                "pitch": 62,
                "velocity": 32,
                "duration": 0.0840909,
                "tempo": 120.0
            },
            {
                "start_time": 6.5477273,
                "end_time": 6.6318182,
                "pitch": 61,
                "velocity": 51,
                "duration": 0.0840909,
                "tempo": 120.0
            },
            {
                "start_time": 6.6477273,
                "end_time": 6.8318182,
                "pitch": 62,
                "velocity": 51,
                "duration": 0.1840909,
                "tempo": 120.0
            },
            {
                "start_time": 6.85,
                "end_time": 6.9318182,
                "pitch": 65,
                "velocity": 51,
                "duration": 0.0818182,
                "tempo": 120.0
            },
            {
                "start_time": 6.95,
                "end_time": 7.0318182,
                "pitch": 64,
                "velocity": 51,
                "duration": 0.0818182,
                "tempo": 120.0
            },
            {
                "start_time": 7.05,
                "end_time": 7.2340909,
                "pitch": 65,
                "velocity": 51,
                "duration": 0.1840909,
                "tempo": 120.0
            },
            {
                "start_time": 7.25,
                "end_time": 7.3340909,
                "pitch": 68,
                "velocity": 51,
                "duration": 0.0840909,
                "tempo": 120.0
            },
            {
                "start_time": 7.35,
                "end_time": 7.4340909,
                "pitch": 67,
                "velocity": 51,
                "duration": 0.0840909,
                "tempo": 120.0
            },
            {
                "start_time": 7.4522727,
                "end_time": 7.6363636,
                "pitch": 68,
                "velocity": 51,
                "duration": 0.1840909,
                "tempo": 120.0
            },
            {
                "start_time": 7.6522727,
                "end_time": 7.7363636,
                "pitch": 72,
                "velocity": 51,
                "duration": 0.0840909,
                "tempo": 120.0
            },
            {
                "start_time": 7.7522727,
                "end_time": 7.8363636,
                "pitch": 71,
                "velocity": 51,
                "duration": 0.0840909,
                "tempo": 120.0
            },
            {
                "start_time": 7.8522727,
                "end_time": 8.0363636,
                "pitch": 72,
                "velocity": 51,
                "duration": 0.1840909,
                "tempo": 120.0
            },
            {
                "start_time": 8.0522727,
                "end_time": 9.0431818,
                "pitch": 77,
                "velocity": 51,
                "duration": 0.9909091,
                "tempo": 120.0
            },
            {
                "start_time": 9.0590909,
                "end_time": 9.2431818,
                "pitch": 75,
                "velocity": 51,
                "duration": 0.1840909,
                "tempo": 120.0
            },
            {
                "start_time": 9.2613636,
                "end_time": 9.4431818,
                "pitch": 77,
                "velocity": 51,
                "duration": 0.1818182,
                "tempo": 120.0
            },
            {
                "start_time": 9.4613636,
                "end_time": 9.6431818,
                "pitch": 75,
                "velocity": 51,
                "duration": 0.1818182,
                "tempo": 120.0
            },
            {
                "start_time": 9.6613636,
                "end_time": 9.7454545,
                "pitch": 74,
                "velocity": 51,
                "duration": 0.0840909,
                "tempo": 120.0
            },
            {
                "start_time": 9.7613636,
                "end_time": 9.8454545,
                "pitch": 75,
                "velocity": 51,
                "duration": 0.0840909,
                "tempo": 120.0
            },
            {
                "start_time": 9.8613636,
                "end_time": 9.9454545,
                "pitch": 77,
                "velocity": 51,
                "duration": 0.0840909,
                "tempo": 120.0
            },
            {
                "start_time": 9.9636364,
                "end_time": 11.0522727,
                "pitch": 72,
                "velocity": 51,
                "duration": 1.0886364,
                "tempo": 120.0
            },
            {
                "start_time": 11.0704545,
                "end_time": 11.1545455,
                "pitch": 80,
                "velocity": 51,
                "duration": 0.0840909,
                "tempo": 120.0
            },
            {
                "start_time": 11.1704545,
                "end_time": 11.2545455,
                "pitch": 79,
                "velocity": 51,
                "duration": 0.0840909,
                "tempo": 120.0
            },
            {
                "start_time": 11.2704545,
                "end_time": 12.0568182,
                "pitch": 77,
                "velocity": 51,
                "duration": 0.7863636,
                "tempo": 120.0
            },
            {
                "start_time": 12.075,
                "end_time": 12.1068182,
                "pitch": 50,
                "velocity": 32,
                "duration": 0.0318182,
                "tempo": 120.0
            },
            {
                "start_time": 12.1068182,
                "end_time": 12.1409091,
                "pitch": 47,
                "velocity": 32,
                "duration": 0.0340909,
                "tempo": 120.0
            },
            {
                "start_time": 12.1409091,
                "end_time": 12.175,
                "pitch": 43,
                "velocity": 32,
                "duration": 0.0340909,
                "tempo": 120.0
            },
            {
                "start_time": 12.175,
                "end_time": 12.2090909,
                "pitch": 40,
                "velocity": 32,
                "duration": 0.0340909,
                "tempo": 120.0
            },
            {
                "start_time": 12.2090909,
                "end_time": 12.2409091,
                "pitch": 37,
                "velocity": 32,
                "duration": 0.0318182,
                "tempo": 120.0
            },
            {
                "start_time": 12.2409091,
                "end_time": 12.275,
                "pitch": 34,
                "velocity": 32,
                "duration": 0.0340909,
                "tempo": 120.0
            },
            {
                "start_time": 12.275,
                "end_time": 12.2931818,
                "pitch": 47,
                "velocity": 32,
                "duration": 0.0181818,
                "tempo": 120.0
            },
            {
                "start_time": 12.2931818,
                "end_time": 12.3090909,
                "pitch": 45,
                "velocity": 32,
                "duration": 0.0159091,
                "tempo": 120.0
            },
            {
                "start_time": 12.3090909,
                "end_time": 12.3431818,
                "pitch": 43,
                "velocity": 32,
                "duration": 0.0340909,
                "tempo": 120.0
            },
            {
                "start_time": 12.3431818,
                "end_time": 12.375,
                "pitch": 40,
                "velocity": 32,
                "duration": 0.0318182,
                "tempo": 120.0
            },
            {
                "start_time": 12.375,
                "end_time": 12.3931818,
                "pitch": 47,
                "velocity": 32,
                "duration": 0.0181818,
                "tempo": 120.0
            },
            {
                "start_time": 12.3931818,
                "end_time": 12.4090909,
                "pitch": 45,
                "velocity": 32,
                "duration": 0.0159091,
                "tempo": 120.0
            },
            {
                "start_time": 12.4090909,
                "end_time": 12.4431818,
                "pitch": 43,
                "velocity": 32,
                "duration": 0.0340909,
                "tempo": 120.0
            },
            {
                "start_time": 12.4431818,
                "end_time": 12.4772727,
                "pitch": 40,
                "velocity": 32,
                "duration": 0.0340909,
                "tempo": 120.0
            },
            {
                "start_time": 12.4772727,
                "end_time": 12.5113636,
                "pitch": 50,
                "velocity": 32,
                "duration": 0.0340909,
                "tempo": 120.0
            },
            {
                "start_time": 12.5113636,
                "end_time": 12.5431818,
                "pitch": 47,
                "velocity": 32,
                "duration": 0.0318182,
                "tempo": 120.0
            },
            {
                "start_time": 12.5431818,
                "end_time": 12.5772727,
                "pitch": 43,
                "velocity": 32,
                "duration": 0.0340909,
                "tempo": 120.0
            },
            {
                "start_time": 12.5772727,
                "end_time": 12.6113636,
                "pitch": 50,
                "velocity": 32,
                "duration": 0.0340909,
                "tempo": 120.0
            },
            {
                "start_time": 12.6113636,
                "end_time": 12.6454545,
                "pitch": 47,
                "velocity": 32,
                "duration": 0.0340909,
                "tempo": 120.0
            },
            {
                "start_time": 12.6454545,
                "end_time": 12.6772727,
                "pitch": 43,
                "velocity": 32,
                "duration": 0.0318182,
                "tempo": 120.0
            },
            {
                "start_time": 12.6772727,
                "end_time": 12.6954545,
                "pitch": 47,
                "velocity": 32,
                "duration": 0.0181818,
                "tempo": 120.0
            },
            {
                "start_time": 12.6954545,
                "end_time": 12.7113636,
                "pitch": 45,
                "velocity": 32,
                "duration": 0.0159091,
                "tempo": 120.0
            },
            {
                "start_time": 12.7113636,
                "end_time": 12.7454545,
                "pitch": 43,
                "velocity": 32,
                "duration": 0.0340909,
                "tempo": 120.0
            },
            {
                "start_time": 12.7454545,
                "end_time": 12.7795455,
                "pitch": 40,
                "velocity": 32,
                "duration": 0.0340909,
                "tempo": 120.0
            },
            {
                "start_time": 12.7795455,
                "end_time": 12.8113636,
                "pitch": 44,
                "velocity": 32,
                "duration": 0.0318182,
                "tempo": 120.0
            },
            {
                "start_time": 12.8113636,
                "end_time": 12.8795455,
                "pitch": 43,
                "velocity": 32,
                "duration": 0.0681818,
                "tempo": 120.0
            },
            {
                "start_time": 12.8795455,
                "end_time": 12.9636364,
                "pitch": 65,
                "velocity": 32,
                "duration": 0.0840909,
                "tempo": 120.0
            },
            {
                "start_time": 13.4818182,
                "end_time": 14.4704545,
                "pitch": 68,
                "velocity": 51,
                "duration": 0.9886364,
                "tempo": 120.0
            },
            {
                "start_time": 14.4863636,
                "end_time": 14.5704545,
                "pitch": 67,
                "velocity": 51,
                "duration": 0.0840909,
                "tempo": 120.0
            },
            {
                "start_time": 15.0909091,
                "end_time": 16.0795455,
                "pitch": 65,
                "velocity": 51,
                "duration": 0.9886364,
                "tempo": 120.0
            },
            {
                "start_time": 16.0954545,
                "end_time": 16.6772727,
                "pitch": 64,
                "velocity": 51,
                "duration": 0.5818182,
                "tempo": 120.0
            },
            {
                "start_time": 16.6931818,
                "end_time": 17.6840909,
                "pitch": 61,
                "velocity": 51,
                "duration": 0.9909091,
                "tempo": 120.0
            },
            {
                "start_time": 17.7,
                "end_time": 17.7181818,
                "pitch": 47,
                "velocity": 32,
                "duration": 0.0181818,
                "tempo": 120.0
            },
            {
                "start_time": 17.7181818,
                "end_time": 17.7340909,
                "pitch": 45,
                "velocity": 32,
                "duration": 0.0159091,
                "tempo": 120.0
            },
            {
                "start_time": 17.7340909,
                "end_time": 17.7681818,
                "pitch": 43,
                "velocity": 32,
                "duration": 0.0340909,
                "tempo": 120.0
            },
            {
                "start_time": 17.7681818,
                "end_time": 17.8022727,
                "pitch": 40,
                "velocity": 32,
                "duration": 0.0340909,
                "tempo": 120.0
            },
            {
                "start_time": 17.8022727,
                "end_time": 17.8363636,
                "pitch": 37,
                "velocity": 32,
                "duration": 0.0340909,
                "tempo": 120.0
            },
            {
                "start_time": 17.8363636,
                "end_time": 17.8522727,
                "pitch": 33,
                "velocity": 32,
                "duration": 0.0159091,
                "tempo": 120.0
            },
            {
                "start_time": 17.8522727,
                "end_time": 17.8863636,
                "pitch": 31,
                "velocity": 32,
                "duration": 0.0340909,
                "tempo": 120.0
            },
            {
                "start_time": 17.8863636,
                "end_time": 17.9022727,
                "pitch": 28,
                "velocity": 32,
                "duration": 0.0159091,
                "tempo": 120.0
            },
            {
                "start_time": 17.9022727,
                "end_time": 17.9363636,
                "pitch": 50,
                "velocity": 32,
                "duration": 0.0340909,
                "tempo": 120.0
            },
            {
                "start_time": 17.9363636,
                "end_time": 17.9704545,
                "pitch": 47,
                "velocity": 32,
                "duration": 0.0340909,
                "tempo": 120.0
            },
            {
                "start_time": 17.9704545,
                "end_time": 18.0022727,
                "pitch": 43,
                "velocity": 32,
                "duration": 0.0318182,
                "tempo": 120.0
            },
            {
                "start_time": 18.0022727,
                "end_time": 18.0363636,
                "pitch": 40,
                "velocity": 32,
                "duration": 0.0340909,
                "tempo": 120.0
            },
            {
                "start_time": 18.0363636,
                "end_time": 18.0704545,
                "pitch": 37,
                "velocity": 32,
                "duration": 0.0340909,
                "tempo": 120.0
            },
            {
                "start_time": 18.0704545,
                "end_time": 18.1045455,
                "pitch": 34,
                "velocity": 32,
                "duration": 0.0340909,
                "tempo": 120.0
            },
            {
                "start_time": 18.1045455,
                "end_time": 18.1363636,
                "pitch": 50,
                "velocity": 32,
                "duration": 0.0318182,
                "tempo": 120.0
            },
            {
                "start_time": 18.1363636,
                "end_time": 18.1704545,
                "pitch": 47,
                "velocity": 32,
                "duration": 0.0340909,
                "tempo": 120.0
            },
            {
                "start_time": 18.1704545,
                "end_time": 18.2045455,
                "pitch": 43,
                "velocity": 32,
                "duration": 0.0340909,
                "tempo": 120.0
            },
            {
                "start_time": 18.2045455,
                "end_time": 18.2363636,
                "pitch": 40,
                "velocity": 32,
                "duration": 0.0318182,
                "tempo": 120.0
            },
            {
                "start_time": 18.2363636,
                "end_time": 18.2704545,
                "pitch": 37,
                "velocity": 32,
                "duration": 0.0340909,
                "tempo": 120.0
            },
            {
                "start_time": 18.2704545,
                "end_time": 18.3045455,
                "pitch": 34,
                "velocity": 32,
                "duration": 0.0340909,
                "tempo": 120.0
            },
            {
                "start_time": 18.3045455,
                "end_time": 18.3204545,
                "pitch": 47,
                "velocity": 32,
                "duration": 0.0159091,
                "tempo": 120.0
            },
            {
                "start_time": 18.3204545,
                "end_time": 18.3363636,
                "pitch": 45,
                "velocity": 32,
                "duration": 0.0159091,
                "tempo": 120.0
            },
            {
                "start_time": 18.3363636,
                "end_time": 18.3704545,
                "pitch": 43,
                "velocity": 32,
                "duration": 0.0340909,
                "tempo": 120.0
            },
            {
                "start_time": 18.3704545,
                "end_time": 18.4045455,
                "pitch": 40,
                "velocity": 32,
                "duration": 0.0340909,
                "tempo": 120.0
            },
            {
                "start_time": 18.4045455,
                "end_time": 18.4363636,
                "pitch": 37,
                "velocity": 32,
                "duration": 0.0318182,
                "tempo": 120.0
            },
            {
                "start_time": 18.4363636,
                "end_time": 18.4545455,
                "pitch": 33,
                "velocity": 32,
                "duration": 0.0181818,
                "tempo": 120.0
            },
            {
                "start_time": 18.4545455,
                "end_time": 18.4863636,
                "pitch": 31,
                "velocity": 32,
                "duration": 0.0318182,
                "tempo": 120.0
            },
            {
                "start_time": 18.4863636,
                "end_time": 18.5045455,
                "pitch": 28,
                "velocity": 32,
                "duration": 0.0181818,
                "tempo": 120.0
            },
            {
                "start_time": 18.5045455,
                "end_time": 18.5363636,
                "pitch": 50,
                "velocity": 32,
                "duration": 0.0318182,
                "tempo": 120.0
            },
            {
                "start_time": 18.5363636,
                "end_time": 18.5704545,
                "pitch": 47,
                "velocity": 32,
                "duration": 0.0340909,
                "tempo": 120.0
            },
            {
                "start_time": 18.5704545,
                "end_time": 18.6045455,
                "pitch": 43,
                "velocity": 32,
                "duration": 0.0340909,
                "tempo": 120.0
            },
            {
                "start_time": 18.6045455,
                "end_time": 18.6363636,
                "pitch": 40,
                "velocity": 32,
                "duration": 0.0318182,
                "tempo": 120.0
            },
            {
                "start_time": 18.6363636,
                "end_time": 18.6704545,
                "pitch": 37,
                "velocity": 32,
                "duration": 0.0340909,
                "tempo": 120.0
            },
            {
                "start_time": 18.6704545,
                "end_time": 18.7045455,
                "pitch": 34,
                "velocity": 32,
                "duration": 0.0340909,
                "tempo": 120.0
            },
            {
                "start_time": 18.7045455,
                "end_time": 18.7363636,
                "pitch": 50,
                "velocity": 32,
                "duration": 0.0318182,
                "tempo": 120.0
            },
            {
                "start_time": 18.7363636,
                "end_time": 18.7704545,
                "pitch": 47,
                "velocity": 32,
                "duration": 0.0340909,
                "tempo": 120.0
            },
            {
                "start_time": 18.7704545,
                "end_time": 18.8045455,
                "pitch": 43,
                "velocity": 32,
                "duration": 0.0340909,
                "tempo": 120.0
            },
            {
                "start_time": 18.8045455,
                "end_time": 18.8363636,
                "pitch": 40,
                "velocity": 32,
                "duration": 0.0318182,
                "tempo": 120.0
            },
            {
                "start_time": 18.8363636,
                "end_time": 18.8704545,
                "pitch": 37,
                "velocity": 32,
                "duration": 0.0340909,
                "tempo": 120.0
            },
            {
                "start_time": 18.8704545,
                "end_time": 18.9022727,
                "pitch": 34,
                "velocity": 32,
                "duration": 0.0318182,
                "tempo": 120.0
            },
            {
                "start_time": 18.9022727,
                "end_time": 18.9181818,
                "pitch": 47,
                "velocity": 32,
                "duration": 0.0159091,
                "tempo": 120.0
            },
            {
                "start_time": 18.9181818,
                "end_time": 18.9363636,
                "pitch": 45,
                "velocity": 32,
                "duration": 0.0181818,
                "tempo": 120.0
            },
            {
                "start_time": 18.9363636,
                "end_time": 18.9681818,
                "pitch": 43,
                "velocity": 32,
                "duration": 0.0318182,
                "tempo": 120.0
            },
            {
                "start_time": 18.9681818,
                "end_time": 19.0,
                "pitch": 40,
                "velocity": 32,
                "duration": 0.0318182,
                "tempo": 120.0
            },
            {
                "start_time": 19.0,
                "end_time": 19.0340909,
                "pitch": 37,
                "velocity": 32,
                "duration": 0.0340909,
                "tempo": 120.0
            },
            {
                "start_time": 19.0340909,
                "end_time": 19.05,
                "pitch": 33,
                "velocity": 32,
                "duration": 0.0159091,
                "tempo": 120.0
            },
            {
                "start_time": 19.05,
                "end_time": 19.0818182,
                "pitch": 31,
                "velocity": 32,
                "duration": 0.0318182,
                "tempo": 120.0
            },
            {
                "start_time": 19.0818182,
                "end_time": 19.0977273,
                "pitch": 28,
                "velocity": 32,
                "duration": 0.0159091,
                "tempo": 120.0
            },
            {
                "start_time": 19.0977273,
                "end_time": 19.1318182,
                "pitch": 44,
                "velocity": 32,
                "duration": 0.0340909,
                "tempo": 120.0
            },
            {
                "start_time": 19.1318182,
                "end_time": 19.2295455,
                "pitch": 43,
                "velocity": 32,
                "duration": 0.0977273,
                "tempo": 120.0
            },
            {
                "start_time": 19.2295455,
                "end_time": 19.2954545,
                "pitch": 41,
                "velocity": 32,
                "duration": 0.0659091,
                "tempo": 120.0
            },
            {
                "start_time": 19.2954545,
                "end_time": 19.3818182,
                "pitch": 65,
                "velocity": 32,
                "duration": 0.0863636,
                "tempo": 120.0
            },
            {
                "start_time": 19.9068182,
                "end_time": 20.8931818,
                "pitch": 68,
                "velocity": 51,
                "duration": 0.9863636,
                "tempo": 120.0
            },
            {
                "start_time": 20.9090909,
                "end_time": 20.9931818,
                "pitch": 67,
                "velocity": 51,
                "duration": 0.0840909,
                "tempo": 120.0
            },
            {
                "start_time": 21.5068182,
                "end_time": 22.4977273,
                "pitch": 65,
                "velocity": 51,
                "duration": 0.9909091,
                "tempo": 120.0
            },
            {
                "start_time": 22.5136364,
                "end_time": 23.1,
                "pitch": 64,
                "velocity": 51,
                "duration": 0.5863636,
                "tempo": 120.0
            },
            {
                "start_time": 23.1159091,
                "end_time": 24.1022727,
                "pitch": 61,
                "velocity": 51,
                "duration": 0.9863636,
                "tempo": 120.0
            },
            {
                "start_time": 24.1181818,
                "end_time": 24.1522727,
                "pitch": 50,
                "velocity": 32,
                "duration": 0.0340909,
                "tempo": 120.0
            },
            {
                "start_time": 24.1522727,
                "end_time": 24.1840909,
                "pitch": 47,
                "velocity": 32,
                "duration": 0.0318182,
                "tempo": 120.0
            },
            {
                "start_time": 24.1840909,
                "end_time": 24.2181818,
                "pitch": 43,
                "velocity": 32,
                "duration": 0.0340909,
                "tempo": 120.0
            },
            {
                "start_time": 24.2181818,
                "end_time": 24.25,
                "pitch": 50,
                "velocity": 32,
                "duration": 0.0318182,
                "tempo": 120.0
            },
            {
                "start_time": 24.25,
                "end_time": 24.2818182,
                "pitch": 47,
                "velocity": 32,
                "duration": 0.0318182,
                "tempo": 120.0
            },
            {
                "start_time": 24.2818182,
                "end_time": 24.3159091,
                "pitch": 43,
                "velocity": 32,
                "duration": 0.0340909,
                "tempo": 120.0
            },
            {
                "start_time": 24.3159091,
                "end_time": 24.3318182,
                "pitch": 47,
                "velocity": 32,
                "duration": 0.0159091,
                "tempo": 120.0
            },
            {
                "start_time": 24.3318182,
                "end_time": 24.3477273,
                "pitch": 45,
                "velocity": 32,
                "duration": 0.0159091,
                "tempo": 120.0
            },
            {
                "start_time": 24.3477273,
                "end_time": 24.3795455,
                "pitch": 43,
                "velocity": 32,
                "duration": 0.0318182,
                "tempo": 120.0
            },
            {
                "start_time": 24.3795455,
                "end_time": 24.4136364,
                "pitch": 40,
                "velocity": 32,
                "duration": 0.0340909,
                "tempo": 120.0
            },
            {
                "start_time": 24.4136364,
                "end_time": 24.4454545,
                "pitch": 37,
                "velocity": 32,
                "duration": 0.0318182,
                "tempo": 120.0
            },
            {
                "start_time": 24.4454545,
                "end_time": 24.4613636,
                "pitch": 33,
                "velocity": 32,
                "duration": 0.0159091,
                "tempo": 120.0
            },
            {
                "start_time": 24.4613636,
                "end_time": 24.4954545,
                "pitch": 31,
                "velocity": 32,
                "duration": 0.0340909,
                "tempo": 120.0
            },
            {
                "start_time": 24.4954545,
                "end_time": 24.5136364,
                "pitch": 28,
                "velocity": 32,
                "duration": 0.0181818,
                "tempo": 120.0
            },
            {
                "start_time": 24.5136364,
                "end_time": 24.5477273,
                "pitch": 50,
                "velocity": 32,
                "duration": 0.0340909,
                "tempo": 120.0
            },
            {
                "start_time": 24.5477273,
                "end_time": 24.5818182,
                "pitch": 47,
                "velocity": 32,
                "duration": 0.0340909,
                "tempo": 120.0
            },
            {
                "start_time": 24.5818182,
                "end_time": 24.6159091,
                "pitch": 43,
                "velocity": 32,
                "duration": 0.0340909,
                "tempo": 120.0
            },
            {
                "start_time": 24.6159091,
                "end_time": 24.65,
                "pitch": 50,
                "velocity": 32,
                "duration": 0.0340909,
                "tempo": 120.0
            },
            {
                "start_time": 24.65,
                "end_time": 24.6840909,
                "pitch": 47,
                "velocity": 32,
                "duration": 0.0340909,
                "tempo": 120.0
            },
            {
                "start_time": 24.6840909,
                "end_time": 24.7181818,
                "pitch": 43,
                "velocity": 32,
                "duration": 0.0340909,
                "tempo": 120.0
            },
            {
                "start_time": 24.7181818,
                "end_time": 24.7363636,
                "pitch": 47,
                "velocity": 32,
                "duration": 0.0181818,
                "tempo": 120.0
            },
            {
                "start_time": 24.7363636,
                "end_time": 24.7522727,
                "pitch": 45,
                "velocity": 32,
                "duration": 0.0159091,
                "tempo": 120.0
            },
            {
                "start_time": 24.7522727,
                "end_time": 24.7863636,
                "pitch": 43,
                "velocity": 32,
                "duration": 0.0340909,
                "tempo": 120.0
            },
            {
                "start_time": 24.7863636,
                "end_time": 24.8204545,
                "pitch": 40,
                "velocity": 32,
                "duration": 0.0340909,
                "tempo": 120.0
            },
            {
                "start_time": 24.8204545,
                "end_time": 24.8545455,
                "pitch": 37,
                "velocity": 32,
                "duration": 0.0340909,
                "tempo": 120.0
            },
            {
                "start_time": 24.8545455,
                "end_time": 24.8727273,
                "pitch": 33,
                "velocity": 32,
                "duration": 0.0181818,
                "tempo": 120.0
            },
            {
                "start_time": 24.8727273,
                "end_time": 24.9068182,
                "pitch": 31,
                "velocity": 32,
                "duration": 0.0340909,
                "tempo": 120.0
            },
            {
                "start_time": 24.9068182,
                "end_time": 24.9227273,
                "pitch": 28,
                "velocity": 32,
                "duration": 0.0159091,
                "tempo": 120.0
            },
            {
                "start_time": 24.9227273,
                "end_time": 24.9568182,
                "pitch": 50,
                "velocity": 32,
                "duration": 0.0340909,
                "tempo": 120.0
            },
            {
                "start_time": 24.9568182,
                "end_time": 24.9909091,
                "pitch": 47,
                "velocity": 32,
                "duration": 0.0340909,
                "tempo": 120.0
            },
            {
                "start_time": 24.9909091,
                "end_time": 25.0227273,
                "pitch": 43,
                "velocity": 32,
                "duration": 0.0318182,
                "tempo": 120.0
            },
            {
                "start_time": 25.0227273,
                "end_time": 25.0568182,
                "pitch": 50,
                "velocity": 32,
                "duration": 0.0340909,
                "tempo": 120.0
            },
            {
                "start_time": 25.0568182,
                "end_time": 25.0909091,
                "pitch": 47,
                "velocity": 32,
                "duration": 0.0340909,
                "tempo": 120.0
            },
            {
                "start_time": 25.0909091,
                "end_time": 25.125,
                "pitch": 43,
                "velocity": 32,
                "duration": 0.0340909,
                "tempo": 120.0
            },
            {
                "start_time": 25.125,
                "end_time": 25.1590909,
                "pitch": 50,
                "velocity": 32,
                "duration": 0.0340909,
                "tempo": 120.0
            },
            {
                "start_time": 25.1590909,
                "end_time": 25.1909091,
                "pitch": 47,
                "velocity": 32,
                "duration": 0.0318182,
                "tempo": 120.0
            },
            {
                "start_time": 25.1909091,
                "end_time": 25.225,
                "pitch": 43,
                "velocity": 32,
                "duration": 0.0340909,
                "tempo": 120.0
            },
            {
                "start_time": 25.225,
                "end_time": 25.2409091,
                "pitch": 47,
                "velocity": 32,
                "duration": 0.0159091,
                "tempo": 120.0
            },
            {
                "start_time": 25.2409091,
                "end_time": 25.2590909,
                "pitch": 45,
                "velocity": 32,
                "duration": 0.0181818,
                "tempo": 120.0
            },
            {
                "start_time": 25.2590909,
                "end_time": 25.2931818,
                "pitch": 43,
                "velocity": 32,
                "duration": 0.0340909,
                "tempo": 120.0
            },
            {
                "start_time": 25.2931818,
                "end_time": 25.325,
                "pitch": 40,
                "velocity": 32,
                "duration": 0.0318182,
                "tempo": 120.0
            },
            {
                "start_time": 25.325,
                "end_time": 25.3431818,
                "pitch": 47,
                "velocity": 32,
                "duration": 0.0181818,
                "tempo": 120.0
            },
            {
                "start_time": 25.3431818,
                "end_time": 25.3590909,
                "pitch": 45,
                "velocity": 32,
                "duration": 0.0159091,
                "tempo": 120.0
            },
            {
                "start_time": 25.3590909,
                "end_time": 25.3931818,
                "pitch": 43,
                "velocity": 32,
                "duration": 0.0340909,
                "tempo": 120.0
            },
            {
                "start_time": 25.3931818,
                "end_time": 25.425,
                "pitch": 40,
                "velocity": 32,
                "duration": 0.0318182,
                "tempo": 120.0
            },
            {
                "start_time": 25.425,
                "end_time": 25.4431818,
                "pitch": 47,
                "velocity": 32,
                "duration": 0.0181818,
                "tempo": 120.0
            },
            {
                "start_time": 25.4431818,
                "end_time": 25.4590909,
                "pitch": 45,
                "velocity": 32,
                "duration": 0.0159091,
                "tempo": 120.0
            },
            {
                "start_time": 25.4590909,
                "end_time": 25.4931818,
                "pitch": 43,
                "velocity": 32,
                "duration": 0.0340909,
                "tempo": 120.0
            },
            {
                "start_time": 25.4931818,
                "end_time": 25.525,
                "pitch": 40,
                "velocity": 32,
                "duration": 0.0318182,
                "tempo": 120.0
            },
            {
                "start_time": 25.525,
                "end_time": 25.5590909,
                "pitch": 44,
                "velocity": 32,
                "duration": 0.0340909,
                "tempo": 120.0
            },
            {
                "start_time": 25.5590909,
                "end_time": 25.625,
                "pitch": 43,
                "velocity": 32,
                "duration": 0.0659091,
                "tempo": 120.0
            },
            {
                "start_time": 25.625,
                "end_time": 25.6590909,
                "pitch": 44,
                "velocity": 32,
                "duration": 0.0340909,
                "tempo": 120.0
            },
            {
                "start_time": 25.6590909,
                "end_time": 25.725,
                "pitch": 43,
                "velocity": 32,
                "duration": 0.0659091,
                "tempo": 120.0
            }
        ]
    }
}