{
    "mood": "angry",
    "instruments": {
        "Harpsichord": [
            {
                "start_time": 0.0,
                "end_time": 0.1840909,
                "pitch": 70,
                "velocity": 127,
                "duration": 0.1840909,
                "tempo": 120.0
            },
            {
                "start_time": 0.2,
                "end_time": 0.3840909,
                "pitch": 72,
                "velocity": 127,
                "duration": 0.1840909,
                "tempo": 120.0
            },
            {
                "start_time": 0.4,
                "end_time": 0.5840909,
                "pitch": 73,
                "velocity": 127,
                "duration": 0.1840909,
                "tempo": 120.0
            },
            {
                "start_time": 0.6,
                "end_time": 0.6840909,
                "pitch": 72,
                "velocity": 127,
                "duration": 0.0840909,
                "tempo": 120.0
            },
            {
                "start_time": 0.7,
                "end_time": 0.9840909,
                "pitch": 70,
                "velocity": 127,
                "duration": 0.2840909,
                "tempo": 120.0
            },
            {
                "start_time": 1.0,
                "end_time": 1.1840909,
                "pitch": 72,
                "velocity": 127,
                "duration": 0.1840909,
                "tempo": 120.0
            },
            {
                "start_time": 1.2,
                "end_time": 1.3840909,
                "pitch": 73,
                "velocity": 127,
                "duration": 0.1840909,
                "tempo": 120.0
            },
            {
                "start_time": 1.4,
                "end_time": 1.9863636,
                "pitch": 75,
                "velocity": 127,
                "duration": 0.5863636,
                "tempo": 120.0
            },
            {
                "start_time": 2.0022727,
                "end_time": 2.1863636,
                "pitch": 75,
                "velocity": 127,
                "duration": 0.1840909,
                "tempo": 120.0
            },
            {
                "start_time": 2.2022727,
                "end_time": 2.3863636,
                "pitch": 72,
                "velocity": 127,
                "duration": 0.1840909,
                "tempo": 120.0
            },
            {
                "start_time": 2.4022727,
                "end_time": 2.5863636,
                "pitch": 73,
                "velocity": 127,
                "duration": 0.1840909,
                "tempo": 120.0
            },
            {
                "start_time": 2.6022727,
                "end_time": 2.7863636,
                "pitch": 72,
                "velocity": 127,
                "duration": 0.1840909,
                "tempo": 120.0
            },
            {
                "start_time": 2.8022727,
                "end_time": 3.1863636,
                "pitch": 70,
                "velocity": 127,
                "duration": 0.3840909,
                "tempo": 120.0
            },
            {
                "start_time": 3.2022727,
                "end_time": 4.7909091,
                "pitch": 70,
                "velocity": 127,
                "duration": 1.5886364,
                "tempo": 120.0
            },
            {
                "start_time": 4.8090909,
                "end_time": 6.3977273,
                "pitch": 65,
                "velocity": 127,
                "duration": 1.5886364,
                "tempo": 120.0
            },
            {
                "start_time": 6.4136364,
                "end_time": 6.5977273,
                "pitch": 70,
                "velocity": 127,
                "duration": 0.1840909,
                "tempo": 120.0
            },
            {
                "start_time": 6.6159091,
                "end_time": 6.8,
                "pitch": 72,
                "velocity": 127,
                "duration": 0.1840909,
                "tempo": 120.0
            },
            {
                "start_time": 6.8159091,
                "end_time": 7.0,
                "pitch": 73,
                "velocity": 127,
                "duration": 0.1840909,
                "tempo": 120.0
            },
            {
                "start_time": 7.0159091,
                "end_time": 7.1,
                "pitch": 72,
                "velocity": 127,
                "duration": 0.0840909,
                "tempo": 120.0
            },
            {
                "start_time": 7.1159091,
                "end_time": 7.4,
                "pitch": 70,
                "velocity": 127,
                "duration": 0.2840909,
                "tempo": 120.0
            },
            {
                "start_time": 7.4181818,
                "end_time": 7.6022727,
                "pitch": 72,
                "velocity": 127,
                "duration": 0.1840909,
                "tempo": 120.0
            },
            {
                "start_time": 7.6181818,
                "end_time": 7.8022727,
                "pitch": 73,
                "velocity": 127,
                "duration": 0.1840909,
                "tempo": 120.0
            },
            {
                "start_time": 7.8181818,
                "end_time": 8.4045455,
                "pitch": 75,
                "velocity": 127,
                "duration": 0.5863636,
                "tempo": 120.0
            },
            {
                "start_time": 8.4227273,
                "end_time": 8.6068182,
                "pitch": 75,
                "velocity": 127,
                "duration": 0.1840909,
                "tempo": 120.0
            },
            {
                "start_time": 8.6227273,
                "end_time": 8.8068182,
                "pitch": 72,
                "velocity": 127,
                "duration": 0.1840909,
                "tempo": 120.0
            },
            {
                "start_time": 8.825,
                "end_time": 9.0090909,
                "pitch": 73,
                "velocity": 127,
                "duration": 0.1840909,
                "tempo": 120.0
            },
            {
                "start_time": 9.025,
                "end_time": 9.6113636,
                "pitch": 72,
                "velocity": 127,
                "duration": 0.5863636,
                "tempo": 120.0
            },
            {
                "start_time": 9.6272727,
                "end_time": 10.6113636,
                "pitch": 78,
                "velocity": 127,
                "duration": 0.9840909,
                "tempo": 120.0
            },
            {
                "start_time": 10.6272727,
                "end_time": 10.8090909,
                "pitch": 80,
                "velocity": 127,
                "duration": 0.1818182,
                "tempo": 120.0
            },
            {
                "start_time": 10.825,
                "end_time": 11.2181818,
                "pitch": 78,
                "velocity": 127,
                "duration": 0.3931818,
                "tempo": 120.0
            },
            {
                "start_time": 11.2363636,
                "end_time": 12.8272727,
                "pitch": 77,
                "velocity": 127,
                "duration": 1.5909091,
                "tempo": 120.0
            },
            {
                "start_time": 12.8431818,
                "end_time": 13.0272727,
                "pitch": 70,
                "velocity": 127,
                "duration": 0.1840909,
                "tempo": 120.0
            },
            {
                "start_time": 13.0454545,
                "end_time": 13.2295455,
                "pitch": 72,
                "velocity": 127,
                "duration": 0.1840909,
                "tempo": 120.0
            },
            {
                "start_time": 13.2454545,
                "end_time": 13.4295455,
                "pitch": 73,
                "velocity": 127,
                "duration": 0.1840909,
                "tempo": 120.0
            },
            {
                "start_time": 13.4454545,
                "end_time": 13.5295455,
                "pitch": 72,
                "velocity": 127,
                "duration": 0.0840909,
                "tempo": 120.0
            },
            {
                "start_time": 13.5454545,
                "end_time": 13.8295455,
                "pitch": 70,
                "velocity": 127,
                "duration": 0.2840909,
                "tempo": 120.0
            },
            {
                "start_time": 13.8477273,
                "end_time": 14.0318182,
                "pitch": 72,
                "velocity": 127,
                "duration": 0.1840909,
                "tempo": 120.0
            },
            {
                "start_time": 14.0477273,
                "end_time": 14.2340909,
                "pitch": 73,
                "velocity": 127,
                "duration": 0.1863636,
                "tempo": 120.0
            },
            {
                "start_time": 14.25,
                "end_time": 14.8363636,
                "pitch": 75,
                "velocity": 127,
                "duration": 0.5863636,
                "tempo": 120.0
            },
            {
                "start_time": 14.8545455,
                "end_time": 15.0386364,
                "pitch": 75,
                "velocity": 127,
                "duration": 0.1840909,
                "tempo": 120.0
            },
            {
                "start_time": 15.0545455,
                "end_time": 15.2409091,
                "pitch": 72,
                "velocity": 127,
                "duration": 0.1863636,
                "tempo": 120.0
            },
            {
                "start_time": 15.2568182,
                "end_time": 15.4409091,
                "pitch": 73,
                "velocity": 127,
                "duration": 0.1840909,
                "tempo": 120.0
            },
            {
                "start_time": 15.4568182,
                "end_time": 15.6409091,
                "pitch": 72,
                "velocity": 127,
                "duration": 0.1840909,
                "tempo": 120.0
            },
            {
                "start_time": 15.6568182,
                "end_time": 16.0431818,
                "pitch": 70,
                "velocity": 127,
                "duration": 0.3863636,
                "tempo": 120.0
            },
            {
                "start_time": 16.0590909,
                "end_time": 17.6477273,
                "pitch": 70,
                "velocity": 127,
                "duration": 1.5886364,
                "tempo": 120.0
            },
            {
                "start_time": 17.6659091,
                "end_time": 19.2545455,
                "pitch": 65,
                "velocity": 127,
                "duration": 1.5886364,
                "tempo": 120.0
            },
            {
                "start_time": 19.2704545,
                "end_time": 19.4545455,
                "pitch": 70,
                "velocity": 127,
                "duration": 0.1840909,
                "tempo": 120.0
            },
            {
                "start_time": 19.4704545,
                "end_time": 19.6545455,
                "pitch": 72,
                "velocity": 127,
                "duration": 0.1840909,
                "tempo": 120.0
            },
            {
                "start_time": 19.6704545,
                "end_time": 19.8545455,
                "pitch": 73,
                "velocity": 127,
                "duration": 0.1840909,
                "tempo": 120.0
            },
            {
                "start_time": 19.8704545,
                "end_time": 19.9545455,
                "pitch": 72,
                "velocity": 127,
                "duration": 0.0840909,
                "tempo": 120.0
            },
            {
                "start_time": 19.9727273,
                "end_time": 20.2568182,
                "pitch": 70,
                "velocity": 127,
                "duration": 0.2840909,
                "tempo": 120.0
            },
            {
                "start_time": 20.2727273,
                "end_time": 20.4568182,
                "pitch": 72,
                "velocity": 127,
                "duration": 0.1840909,
                "tempo": 120.0
            },
            {
                "start_time": 20.4727273,
                "end_time": 20.6568182,
                "pitch": 73,
                "velocity": 127,
                "duration": 0.1840909,
                "tempo": 120.0
            },
            {
                "start_time": 20.6727273,
                "end_time": 21.2590909,
                "pitch": 75,
                "velocity": 127,
                "duration": 0.5863636,
                "tempo": 120.0
            },
            {
                "start_time": 21.275,
                "end_time": 21.4590909,
                "pitch": 75,
                "velocity": 127,
                "duration": 0.1840909,
                "tempo": 120.0
            },
            {
                "start_time": 21.475,
                "end_time": 21.6590909,
                "pitch": 72,
                "velocity": 127,
                "duration": 0.1840909,
                "tempo": 120.0
            },
            {
                "start_time": 21.675,
                "end_time": 21.8545455,
                "pitch": 73,
                "velocity": 127,
                "duration": 0.1795455,
                "tempo": 120.0
            },
            {
                "start_time": 21.8704545,
                "end_time": 22.4613636,
                "pitch": 72,
                "velocity": 127,
                "duration": 0.5909091,
                "tempo": 120.0
            },
            {
                "start_time": 22.4795455,
                "end_time": 23.4636364,
                "pitch": 78,
                "velocity": 127,
                "duration": 0.9840909,
                "tempo": 120.0
            },
            {
                "start_time": 23.4818182,
                "end_time": 23.6636364,
                "pitch": 77,
                "velocity": 127,
                "duration": 0.1818182,
                "tempo": 120.0
            },
            {
                "start_time": 23.6818182,
                "end_time": 24.0681818,
                "pitch": 78,
                "velocity": 127,
                "duration": 0.3863636,
                "tempo": 120.0
            },
            {
                "start_time": 24.0840909,
                "end_time": 25.6704545,
                "pitch": 80,
                "velocity": 127,
                "duration": 1.5863636,
                "tempo": 120.0
            }
        ],
        "Trumpet": [
            {
                "start_time": 27.2931818,
                "end_time": 27.475,
                "pitch": 77,
                "velocity": 101,
                "duration": 0.1818182,
                "tempo": 120.0
            },
            {
                "start_time": 27.4931818,
                "end_time": 28.0772727,
                "pitch": 75,
                "velocity": 101,
                "duration": 0.5840909,
                "tempo": 120.0
            },
            {
                "start_time": 28.0954545,
                "end_time": 28.4772727,
                "pitch": 74,
                "velocity": 101,
                "duration": 0.3818182,
                "tempo": 120.0
            },
            {
                "start_time": 28.4954545,
                "end_time": 28.5772727,
                "pitch": 70,
                "velocity": 101,
                "duration": 0.0818182,
                "tempo": 120.0
            },
            {
                "start_time": 28.5954545,
                "end_time": 28.6772727,
                "pitch": 74,
                "velocity": 101,
                "duration": 0.0818182,
                "tempo": 120.0
            },
            {
                "start_time": 28.6954545,
                "end_time": 28.8772727,
                "pitch": 75,
                "velocity": 101,
                "duration": 0.1818182,
                "tempo": 120.0
            },
            {
                "start_time": 28.8954545,
                "end_time": 29.8772727,
                "pitch": 77,
                "velocity": 101,
                "duration": 0.9818182,
                "tempo": 120.0
            },
            {
                "start_time": 29.8931818,
                "end_time": 30.4840909,
                "pitch": 77,
                "velocity": 101,
                "duration": 0.5909091,
                "tempo": 120.0
            },
            {
                "start_time": 30.5,
                "end_time": 30.6840909,
                "pitch": 77,
                "velocity": 101,
                "duration": 0.1840909,
                "tempo": 120.0
            },
            {
                "start_time": 30.7,
                "end_time": 31.2863636,
                "pitch": 75,
                "velocity": 101,
                "duration": 0.5863636,
                "tempo": 120.0
            },
            {
                "start_time": 31.3022727,
                "end_time": 31.6863636,
                "pitch": 74,
                "velocity": 101,
                "duration": 0.3840909,
                "tempo": 120.0
            },
            {
                "start_time": 31.7022727,
                "end_time": 31.8886364,
                "pitch": 72,
                "velocity": 101,
                "duration": 0.1863636,
                "tempo": 120.0
            },
            {
                "start_time": 31.9045455,
                "end_time": 33.0863636,
                "pitch": 68,
                "velocity": 101,
                "duration": 1.1818182,
                "tempo": 120.0
            },
            {
                "start_time": 33.1022727,
                "end_time": 33.4863636,
                "pitch": 68,
                "velocity": 101,
                "duration": 0.3840909,
                "tempo": 120.0
            },
            {
                "start_time": 33.5022727,
                "end_time": 34.4931818,
                "pitch": 70,
                "velocity": 101,
                "duration": 0.9909091,
                "tempo": 120.0
            },
            {
                "start_time": 34.5113636,
                "end_time": 35.2954545,
                "pitch": 66,
                "velocity": 101,
                "duration": 0.7840909,
                "tempo": 120.0
            },
            {
                "start_time": 35.3113636,
                "end_time": 35.6977273,
                "pitch": 73,
                "velocity": 101,
                "duration": 0.3863636,
                "tempo": 120.0
            },
            {
                "start_time": 35.7136364,
                "end_time": 35.8977273,
                "pitch": 70,
                "velocity": 101,
                "duration": 0.1840909,
                "tempo": 120.0
            },
            {
                "start_time": 35.9136364,
                "end_time": 36.2931818,
                "pitch": 77,
                "velocity": 101,
                "duration": 0.3795455,
                "tempo": 120.0
            },
            {
                "start_time": 36.3090909,
                "end_time": 36.4886364,
                "pitch": 75,
                "velocity": 101,
                "duration": 0.1795455,
                "tempo": 120.0
            },
            {
                "start_time": 36.5068182,
                "end_time": 36.9,
                "pitch": 73,
                "velocity": 101,
                "duration": 0.3931818,
                "tempo": 120.0
            },
            {
                "start_time": 36.9159091,
                "end_time": 37.7045455,
                "pitch": 75,
                "velocity": 101,
                "duration": 0.7886364,
                "tempo": 120.0
            },
            {
                "start_time": 37.7204545,
                "end_time": 38.5022727,
                "pitch": 73,
                "velocity": 101,
                "duration": 0.7818182,
                "tempo": 120.0
            },
            {
                "start_time": 38.5204545,
                "end_time": 38.7022727,
                "pitch": 72,
                "velocity": 101,
                "duration": 0.1818182,
                "tempo": 120.0
            },
            {
                "start_time": 38.7204545,
                "end_time": 38.9022727,
                "pitch": 72,
                "velocity": 101,
                "duration": 0.1818182,
                "tempo": 120.0
            },
            {
                "start_time": 38.9204545,
                "end_time": 39.1022727,
                "pitch": 75,
                "velocity": 101,
                "duration": 0.1818182,
                "tempo": 120.0
            },
            {
                "start_time": 39.1204545,
                "end_time": 39.5045455,
                "pitch": 75,
                "velocity": 101,
                "duration": 0.3840909,
                "tempo": 120.0
            },
            {
                "start_time": 39.5204545,
                "end_time": 39.7068182,
                "pitch": 73,
                "velocity": 101,
                "duration": 0.1863636,
                "tempo": 120.0
            },
            {
                "start_time": 39.7227273,
                "end_time": 40.1068182,
                "pitch": 72,
                "velocity": 101,
                "duration": 0.3840909,
                "tempo": 120.0
            },
            {
                "start_time": 40.1227273,
                "end_time": 40.3068182,
                "pitch": 77,
                "velocity": 101,
                "duration": 0.1840909,
                "tempo": 120.0
            },
            {
                "start_time": 40.3227273,
                "end_time": 40.9068182,
                "pitch": 75,
                "velocity": 101,
                "duration": 0.5840909,
                "tempo": 120.0
            },
            {
                "start_time": 40.9227273,
                "end_time": 41.3068182,
                "pitch": 74,
                "velocity": 101,
                "duration": 0.3840909,
                "tempo": 120.0
            },
            {
                "start_time": 41.3227273,
                "end_time": 41.4068182,
                "pitch": 70,
                "velocity": 101,
                "duration": 0.0840909,
                "tempo": 120.0
            },
            {
                "start_time": 41.4227273,
                "end_time": 41.5068182,
                "pitch": 74,
                "velocity": 101,
                "duration": 0.0840909,
                "tempo": 120.0
            },
            {
                "start_time": 41.525,
                "end_time": 41.7090909,
                "pitch": 75,
                "velocity": 101,
                "duration": 0.1840909,
                "tempo": 120.0
            },
            {
                "start_time": 41.725,
                "end_time": 42.7045455,
                "pitch": 77,
                "velocity": 101,
                "duration": 0.9795455,
                "tempo": 120.0
            },
            {
                "start_time": 42.7204545,
                "end_time": 43.3113636,
                "pitch": 77,
                "velocity": 101,
                "duration": 0.5909091,
                "tempo": 120.0
            },
            {
                "start_time": 43.3272727,
                "end_time": 43.5136364,
                "pitch": 77,
                "velocity": 101,
                "duration": 0.1863636,
                "tempo": 120.0
            },
            {
                "start_time": 43.5295455,
                "end_time": 44.1136364,
                "pitch": 75,
                "velocity": 101,
                "duration": 0.5840909,
                "tempo": 120.0
            },
            {
                "start_time": 44.1318182,
                "end_time": 44.5136364,
                "pitch": 74,
                "velocity": 101,
                "duration": 0.3818182,
                "tempo": 120.0
            },
            {
                "start_time": 44.5318182,
                "end_time": 44.7136364,
                "pitch": 72,
                "velocity": 101,
                "duration": 0.1818182,
                "tempo": 120.0
            },
            {
                "start_time": 44.7318182,
                "end_time": 45.9159091,
                "pitch": 68,
                "velocity": 101,
                "duration": 1.1840909,
                "tempo": 120.0
            },
            {
                "start_time": 45.9340909,
                "end_time": 46.3159091,
                "pitch": 68,
                "velocity": 101,
                "duration": 0.3818182,
                "tempo": 120.0
            },
            {
                "start_time": 46.3340909,
                "end_time": 47.3204545,
                "pitch": 70,
                "velocity": 101,
                "duration": 0.9863636,
                "tempo": 120.0
            },
            {
                "start_time": 47.3363636,
                "end_time": 48.1227273,
                "pitch": 66,
                "velocity": 101,
                "duration": 0.7863636,
                "tempo": 120.0
            },
            {
                "start_time": 48.1386364,
                "end_time": 48.5227273,
                "pitch": 73,
                "velocity": 101,
                "duration": 0.3840909,
                "tempo": 120.0
            },
            {
                "start_time": 48.5386364,
                "end_time": 48.7181818,
                "pitch": 70,
                "velocity": 101,
                "duration": 0.1795455,
                "tempo": 120.0
            },
            {
                "start_time": 48.7340909,
                "end_time": 49.1159091,
                "pitch": 77,
                "velocity": 101,
                "duration": 0.3818182,
                "tempo": 120.0
            },
            {
                "start_time": 49.1318182,
                "end_time": 49.3159091,
                "pitch": 75,
                "velocity": 101,
                "duration": 0.1840909,
                "tempo": 120.0
            },
            {
                "start_time": 49.3318182,
                "end_time": 49.725,
                "pitch": 73,
                "velocity": 101,
                "duration": 0.3931818,
                "tempo": 120.0
            },
            {
                "start_time": 49.7409091,
                "end_time": 49.9227273,
                "pitch": 72,
                "velocity": 101,
                "duration": 0.1818182,
                "tempo": 120.0
            },
            {
                "start_time": 49.9386364,
                "end_time": 50.1181818,
                "pitch": 73,
                "velocity": 101,
                "duration": 0.1795455,
                "tempo": 120.0
            },
            {
                "start_time": 50.1340909,
                "end_time": 50.3181818,
                "pitch": 75,
                "velocity": 101,
                "duration": 0.1840909,
                "tempo": 120.0
            },
            {
                "start_time": 50.3340909,
                "end_time": 50.5181818,
                "pitch": 72,
                "velocity": 101,
                "duration": 0.1840909,
                "tempo": 120.0
            },
            {
                "start_time": 50.5340909,
                "end_time": 50.7227273,
                "pitch": 73,
                "velocity": 101,
                "duration": 0.1886364,
                "tempo": 120.0
            },
            {
                "start_time": 50.7386364,
                "end_time": 50.9272727,
                "pitch": 75,
                "velocity": 101,
                "duration": 0.1886364,
                "tempo": 120.0
            },
            {
                "start_time": 50.9454545,
                "end_time": 51.1295455,
                "pitch": 72,
                "velocity": 101,
                "duration": 0.1840909,
                "tempo": 120.0
            },
            {
                "start_time": 51.1454545,
                "end_time": 51.3295455,
                "pitch": 75,
                "velocity": 101,
                "duration": 0.1840909,
                "tempo": 120.0
            },
            {
                "start_time": 51.3454545,
                "end_time": 52.9227273,
                "pitch": 80,
                "velocity": 101,
                "duration": 1.5772727,
                "tempo": 120.0
            }
        ],
        "Acoustic Bass": [
            {
                "start_time": 0.0,
                "end_time": 0.3840909,
                "pitch": 39,
                "velocity": 64,
                "duration": 0.3840909,
                "tempo": 120.0
            },
            {
                "start_time": 0.4,
                "end_time": 0.7840909,
                "pitch": 39,
                "velocity": 64,
                "duration": 0.3840909,
                "tempo": 120.0
            },
            {
                "start_time": 0.8,
                "end_time": 1.1840909,
                "pitch": 39,
                "velocity": 64,
                "duration": 0.3840909,
                "tempo": 120.0
            },
            {
                "start_time": 1.2,
                "end_time": 1.5840909,
                "pitch": 39,
                "velocity": 64,
                "duration": 0.3840909,
                "tempo": 120.0
            },
            {
                "start_time": 1.6,
                "end_time": 1.9863636,
                "pitch": 39,
                "velocity": 64,
                "duration": 0.3863636,
                "tempo": 120.0
            },
            {
                "start_time": 2.0022727,
                "end_time": 2.3863636,
                "pitch": 39,
                "velocity": 64,
                "duration": 0.3840909,
                "tempo": 120.0
            },
            {
                "start_time": 2.4022727,
                "end_time": 2.5863636,
                "pitch": 39,
                "velocity": 64,
                "duration": 0.1840909,
                "tempo": 120.0
            },
            {
                "start_time": 2.6022727,
                "end_time": 2.7863636,
                "pitch": 37,
                "velocity": 64,
                "duration": 0.1840909,
                "tempo": 120.0
            },
            {
                "start_time": 2.8022727,
                "end_time": 3.1863636,
                "pitch": 39,
                "velocity": 64,
                "duration": 0.3840909,
                "tempo": 120.0
            },
            {
                "start_time": 3.2022727,
                "end_time": 3.5886364,
                "pitch": 46,
                "velocity": 64,
                "duration": 0.3863636,
                "tempo": 120.0
            },
            {
                "start_time": 3.6045455,
                "end_time": 3.9886364,
                "pitch": 46,
                "velocity": 64,
                "duration": 0.3840909,
                "tempo": 120.0
            },
            {
                "start_time": 4.0045455,
                "end_time": 4.3886364,
                "pitch": 46,
                "velocity": 64,
                "duration": 0.3840909,
                "tempo": 120.0
            },
            {
                "start_time": 4.4045455,
                "end_time": 4.7909091,
                "pitch": 46,
                "velocity": 64,
                "duration": 0.3863636,
                "tempo": 120.0
            },
            {
                "start_time": 4.8090909,
                "end_time": 5.1909091,
                "pitch": 46,
                "velocity": 64,
                "duration": 0.3818182,
                "tempo": 120.0
            },
            {
                "start_time": 5.2090909,
                "end_time": 5.5931818,
                "pitch": 46,
                "velocity": 64,
                "duration": 0.3840909,
                "tempo": 120.0
            },
            {
                "start_time": 5.6113636,
                "end_time": 5.8,
                "pitch": 46,
                "velocity": 64,
                "duration": 0.1886364,
                "tempo": 120.0
            },
            {
                "start_time": 5.8159091,
                "end_time": 6.0045455,
                "pitch": 49,
                "velocity": 64,
                "duration": 0.1886364,
                "tempo": 120.0
            },
            {
                "start_time": 6.0204545,
                "end_time": 6.2022727,
                "pitch": 46,
                "velocity": 64,
                "duration": 0.1818182,
                "tempo": 120.0
            },
            {
                "start_time": 6.2181818,
                "end_time": 6.3977273,
                "pitch": 46,
                "velocity": 64,
                "duration": 0.1795455,
                "tempo": 120.0
            },
            {
                "start_time": 6.4136364,
                "end_time": 6.8,
                "pitch": 39,
                "velocity": 64,
                "duration": 0.3863636,
                "tempo": 120.0
            },
            {
                "start_time": 6.8159091,
                "end_time": 7.2,
                "pitch": 39,
                "velocity": 64,
                "duration": 0.3840909,
                "tempo": 120.0
            },
            {
                "start_time": 7.2159091,
                "end_time": 7.6022727,
                "pitch": 39,
                "velocity": 64,
                "duration": 0.3863636,
                "tempo": 120.0
            },
            {
                "start_time": 7.6181818,
                "end_time": 8.0022727,
                "pitch": 39,
                "velocity": 64,
                "duration": 0.3840909,
                "tempo": 120.0
            },
            {
                "start_time": 8.0181818,
                "end_time": 8.4045455,
                "pitch": 39,
                "velocity": 64,
                "duration": 0.3863636,
                "tempo": 120.0
            },
            {
                "start_time": 8.4227273,
                "end_time": 8.8068182,
                "pitch": 39,
                "velocity": 64,
                "duration": 0.3840909,
                "tempo": 120.0
            },
            {
                "start_time": 8.825,
                "end_time": 9.0090909,
                "pitch": 39,
                "velocity": 64,
                "duration": 0.1840909,
                "tempo": 120.0
            },
            {
                "start_time": 9.025,
                "end_time": 9.2113636,
                "pitch": 37,
                "velocity": 64,
                "duration": 0.1863636,
                "tempo": 120.0
            },
            {
                "start_time": 9.2272727,
                "end_time": 9.6113636,
                "pitch": 39,
                "velocity": 64,
                "duration": 0.3840909,
                "tempo": 120.0
            },
            {
                "start_time": 9.6272727,
                "end_time": 10.0136364,
                "pitch": 42,
                "velocity": 64,
                "duration": 0.3863636,
                "tempo": 120.0
            },
            {
                "start_time": 10.0295455,
                "end_time": 10.4159091,
                "pitch": 42,
                "velocity": 64,
                "duration": 0.3863636,
                "tempo": 120.0
            },
            {
                "start_time": 10.4318182,
                "end_time": 10.7090909,
                "pitch": 42,
                "velocity": 64,
                "duration": 0.2772727,
                "tempo": 120.0
            },
            {
                "start_time": 10.7272727,
                "end_time": 10.8090909,
                "pitch": 41,
                "velocity": 64,
                "duration": 0.0818182,
                "tempo": 120.0
            },
            {
                "start_time": 10.825,
                "end_time": 11.2181818,
                "pitch": 42,
                "velocity": 64,
                "duration": 0.3931818,
                "tempo": 120.0
            },
            {
                "start_time": 11.2363636,
                "end_time": 11.6181818,
                "pitch": 41,
                "velocity": 64,
                "duration": 0.3818182,
                "tempo": 120.0
            },
            {
                "start_time": 11.6363636,
                "end_time": 12.0204545,
                "pitch": 41,
                "velocity": 64,
                "duration": 0.3840909,
                "tempo": 120.0
            },
            {
                "start_time": 12.0386364,
                "end_time": 12.2227273,
                "pitch": 41,
                "velocity": 64,
                "duration": 0.1840909,
                "tempo": 120.0
            },
            {
                "start_time": 12.2386364,
                "end_time": 12.425,
                "pitch": 42,
                "velocity": 64,
                "duration": 0.1863636,
                "tempo": 120.0
            },
            {
                "start_time": 12.4409091,
                "end_time": 12.625,
                "pitch": 44,
                "velocity": 64,
                "duration": 0.1840909,
                "tempo": 120.0
            },
            {
                "start_time": 12.6409091,
                "end_time": 12.8272727,
                "pitch": 42,
                "velocity": 64,
                "duration": 0.1863636,
                "tempo": 120.0
            },
            {
                "start_time": 12.8431818,
                "end_time": 13.2295455,
                "pitch": 39,
                "velocity": 64,
                "duration": 0.3863636,
                "tempo": 120.0
            },
            {
                "start_time": 13.2454545,
                "end_time": 13.6295455,
                "pitch": 39,
                "velocity": 64,
                "duration": 0.3840909,
                "tempo": 120.0
            },
            {
                "start_time": 13.6454545,
                "end_time": 14.0318182,
                "pitch": 39,
                "velocity": 64,
                "duration": 0.3863636,
                "tempo": 120.0
            },
            {
                "start_time": 14.0477273,
                "end_time": 14.4340909,
                "pitch": 39,
                "velocity": 64,
                "duration": 0.3863636,
                "tempo": 120.0
            },
            {
                "start_time": 14.4522727,
                "end_time": 14.8363636,
                "pitch": 39,
                "velocity": 64,
                "duration": 0.3840909,
                "tempo": 120.0
            },
            {
                "start_time": 14.8545455,
                "end_time": 15.2409091,
                "pitch": 39,
                "velocity": 64,
                "duration": 0.3863636,
                "tempo": 120.0
            },
            {
                "start_time": 15.2568182,
                "end_time": 15.4409091,
                "pitch": 39,
                "velocity": 64,
                "duration": 0.1840909,
                "tempo": 120.0
            },
            {
                "start_time": 15.4568182,
                "end_time": 15.6409091,
                "pitch": 37,
                "velocity": 64,
                "duration": 0.1840909,
                "tempo": 120.0
            },
            {
                "start_time": 15.6568182,
                "end_time": 16.0431818,
                "pitch": 39,
                "velocity": 64,
                "duration": 0.3863636,
                "tempo": 120.0
            },
            {
                "start_time": 16.0590909,
                "end_time": 16.4454545,
                "pitch": 46,
                "velocity": 64,
                "duration": 0.3863636,
                "tempo": 120.0
            },
            {
                "start_time": 16.4613636,
                "end_time": 16.8454545,
                "pitch": 46,
                "velocity": 64,
                "duration": 0.3840909,
                "tempo": 120.0
            },
            {
                "start_time": 16.8613636,
                "end_time": 17.2477273,
                "pitch": 46,
                "velocity": 64,
                "duration": 0.3863636,
                "tempo": 120.0
            },
            {
                "start_time": 17.2659091,
                "end_time": 17.6477273,
                "pitch": 46,
                "velocity": 64,
                "duration": 0.3818182,
                "tempo": 120.0
            },
            {
                "start_time": 17.6659091,
                "end_time": 18.05,
                "pitch": 46,
                "velocity": 64,
                "duration": 0.3840909,
                "tempo": 120.0
            },
            {
                "start_time": 18.0681818,
                "end_time": 18.45,
                "pitch": 46,
                "velocity": 64,
                "duration": 0.3818182,
                "tempo": 120.0
            },
            {
                "start_time": 18.4681818,
                "end_time": 18.65,
                "pitch": 46,
                "velocity": 64,
                "duration": 0.1818182,
                "tempo": 120.0
            },
            {
                "start_time": 18.6681818,
                "end_time": 18.85,
                "pitch": 49,
                "velocity": 64,
                "duration": 0.1818182,
                "tempo": 120.0
            },
            {
                "start_time": 18.8681818,
                "end_time": 19.0522727,
                "pitch": 46,
                "velocity": 64,
                "duration": 0.1840909,
                "tempo": 120.0
            },
            {
                "start_time": 19.0681818,
                "end_time": 19.2545455,
                "pitch": 46,
                "velocity": 64,
                "duration": 0.1863636,
                "tempo": 120.0
            },
            {
                "start_time": 19.2704545,
                "end_time": 19.6545455,
                "pitch": 39,
                "velocity": 64,
                "duration": 0.3840909,
                "tempo": 120.0
            },
            {
                "start_time": 19.6704545,
                "end_time": 20.0568182,
                "pitch": 39,
                "velocity": 64,
                "duration": 0.3863636,
                "tempo": 120.0
            },
            {
                "start_time": 20.0727273,
                "end_time": 20.4568182,
                "pitch": 39,
                "velocity": 64,
                "duration": 0.3840909,
                "tempo": 120.0
            },
            {
                "start_time": 20.4727273,
                "end_time": 20.8568182,
                "pitch": 39,
                "velocity": 64,
                "duration": 0.3840909,
                "tempo": 120.0
            },
            {
                "start_time": 20.8727273,
                "end_time": 21.2590909,
                "pitch": 39,
                "velocity": 64,
                "duration": 0.3863636,
                "tempo": 120.0
            },
            {
                "start_time": 21.275,
                "end_time": 21.6590909,
                "pitch": 39,
                "velocity": 64,
                "duration": 0.3840909,
                "tempo": 120.0
            },
            {
                "start_time": 21.675,
                "end_time": 21.8545455,
                "pitch": 39,
                "velocity": 64,
                "duration": 0.1795455,
                "tempo": 120.0
            },
            {
                "start_time": 21.8704545,
                "end_time": 22.0522727,
                "pitch": 37,
                "velocity": 64,
                "duration": 0.1818182,
                "tempo": 120.0
            },
            {
                "start_time": 22.0681818,
                "end_time": 22.4613636,
                "pitch": 39,
                "velocity": 64,
                "duration": 0.3931818,
                "tempo": 120.0
            },
            {
                "start_time": 22.4795455,
                "end_time": 22.8613636,
                "pitch": 42,
                "velocity": 64,
                "duration": 0.3818182,
                "tempo": 120.0
            },
            {
                "start_time": 22.8795455,
                "end_time": 23.2636364,
                "pitch": 42,
                "velocity": 64,
                "duration": 0.3840909,
                "tempo": 120.0
            },
            {
                "start_time": 23.2818182,
                "end_time": 23.4636364,
                "pitch": 42,
                "velocity": 64,
                "duration": 0.1818182,
                "tempo": 120.0
            },
            {
                "start_time": 23.4818182,
                "end_time": 23.6636364,
                "pitch": 41,
                "velocity": 64,
                "duration": 0.1818182,
                "tempo": 120.0
            },
            {
                "start_time": 23.6818182,
                "end_time": 24.0681818,
                "pitch": 42,
                "velocity": 64,
                "duration": 0.3863636,
                "tempo": 120.0
            },
            {
                "start_time": 24.0840909,
                "end_time": 24.4681818,
                "pitch": 44,
                "velocity": 64,
                "duration": 0.3840909,
                "tempo": 120.0
            },
            {
                "start_time": 24.4840909,
                "end_time": 24.8681818,
                "pitch": 44,
                "velocity": 64,
                "duration": 0.3840909,
                "tempo": 120.0
            },
            {
                "start_time": 24.8840909,
                "end_time": 25.2772727,
                "pitch": 44,
                "velocity": 64,
                "duration": 0.3931818,
                "tempo": 120.0
            },
            {
                "start_time": 25.2954545,
                "end_time": 25.6704545,
                "pitch": 44,
                "velocity": 64,
                "duration": 0.375,
                "tempo": 120.0
            },
            {
                "start_time": 25.6863636,
                "end_time": 25.8704545,
                "pitch": 44,
                "velocity": 64,
                "duration": 0.1840909,
                "tempo": 120.0
            },
            {
                "start_time": 25.8886364,
                "end_time": 26.0727273,
                "pitch": 49,
                "velocity": 64,
                "duration": 0.1840909,
                "tempo": 120.0
            },
            {
                "start_time": 26.0886364,
                "end_time": 26.2727273,
                "pitch": 48,
                "velocity": 64,
                "duration": 0.1840909,
                "tempo": 120.0
            },
            {
                "start_time": 26.2886364,
                "end_time": 26.4727273,
                "pitch": 44,
                "velocity": 64,
                "duration": 0.1840909,
                "tempo": 120.0
            },
            {
                "start_time": 26.4886364,
                "end_time": 26.6727273,
                "pitch": 51,
                "velocity": 64,
                "duration": 0.1840909,
                "tempo": 120.0
            },
            {
                "start_time": 26.6886364,
                "end_time": 26.8727273,
                "pitch": 49,
                "velocity": 64,
                "duration": 0.1840909,
                "tempo": 120.0
            },
            {
                "start_time": 26.8886364,
                "end_time": 27.075,
                "pitch": 48,
                "velocity": 64,
                "duration": 0.1863636,
                "tempo": 120.0
            },
            {
                "start_time": 27.0909091,
                "end_time": 27.175,
                "pitch": 49,
                "velocity": 64,
                "duration": 0.0840909,
                "tempo": 120.0
            },
            {
                "start_time": 27.1909091,
                "end_time": 27.275,
                "pitch": 51,
                "velocity": 64,
                "duration": 0.0840909,
                "tempo": 120.0
            },
            {
                "start_time": 27.2931818,
                "end_time": 27.675,
                "pitch": 46,
                "velocity": 64,
                "duration": 0.3818182,
                "tempo": 120.0
            },
            {
                "start_time": 27.6931818,
                "end_time": 28.0772727,
                "pitch": 46,
                "velocity": 64,
                "duration": 0.3840909,
                "tempo": 120.0
            },
            {
                "start_time": 28.0954545,
                "end_time": 28.4772727,
                "pitch": 46,
                "velocity": 64,
                "duration": 0.3818182,
                "tempo": 120.0
            },
            {
                "start_time": 28.4954545,
                "end_time": 28.7772727,
                "pitch": 46,
                "velocity": 64,
                "duration": 0.2818182,
                "tempo": 120.0
            },
            {
                "start_time": 28.7954545,
                "end_time": 28.8772727,
                "pitch": 46,
                "velocity": 64,
                "duration": 0.0818182,
                "tempo": 120.0
            },
            {
                "start_time": 28.8954545,
                "end_time": 29.2795455,
                "pitch": 46,
                "velocity": 64,
                "duration": 0.3840909,
                "tempo": 120.0
            },
            {
                "start_time": 29.2977273,
                "end_time": 29.6818182,
                "pitch": 46,
                "velocity": 64,
                "duration": 0.3840909,
                "tempo": 120.0
            },
            {
                "start_time": 29.6977273,
                "end_time": 30.0727273,
                "pitch": 46,
                "velocity": 64,
                "duration": 0.375,
                "tempo": 120.0
            },
            {
                "start_time": 30.0886364,
                "end_time": 30.3795455,
                "pitch": 46,
                "velocity": 64,
                "duration": 0.2909091,
                "tempo": 120.0
            },
            {
                "start_time": 30.3977273,
                "end_time": 30.4840909,
                "pitch": 46,
                "velocity": 64,
                "duration": 0.0863636,
                "tempo": 120.0
            },
            {
                "start_time": 30.5,
                "end_time": 30.8840909,
                "pitch": 44,
                "velocity": 64,
                "duration": 0.3840909,
                "tempo": 120.0
            },
            {
                "start_time": 30.9,
                "end_time": 31.2863636,
                "pitch": 44,
                "velocity": 64,
                "duration": 0.3863636,
                "tempo": 120.0
            },
            {
                "start_time": 31.3022727,
                "end_time": 31.6863636,
                "pitch": 44,
                "velocity": 64,
                "duration": 0.3840909,
                "tempo": 120.0
            },
            {
                "start_time": 31.7022727,
                "end_time": 31.9886364,
                "pitch": 44,
                "velocity": 64,
                "duration": 0.2863636,
                "tempo": 120.0
            },
            {
                "start_time": 32.0045455,
                "end_time": 32.0886364,
                "pitch": 44,
                "velocity": 64,
                "duration": 0.0840909,
                "tempo": 120.0
            },
            {
                "start_time": 32.1068182,
                "end_time": 32.4886364,
                "pitch": 44,
                "velocity": 64,
                "duration": 0.3818182,
                "tempo": 120.0
            },
            {
                "start_time": 32.5068182,
                "end_time": 32.8886364,
                "pitch": 44,
                "velocity": 64,
                "duration": 0.3818182,
                "tempo": 120.0
            },
            {
                "start_time": 32.9045455,
                "end_time": 33.2818182,
                "pitch": 44,
                "velocity": 64,
                "duration": 0.3772727,
                "tempo": 120.0
            },
            {
                "start_time": 33.2977273,
                "end_time": 33.4863636,
                "pitch": 44,
                "velocity": 64,
                "duration": 0.1886364,
                "tempo": 120.0
            },
            {
                "start_time": 33.5022727,
                "end_time": 34.0840909,
                "pitch": 42,
                "velocity": 64,
                "duration": 0.5818182,
                "tempo": 120.0
            },
            {
                "start_time": 34.1,
                "end_time": 34.4931818,
                "pitch": 42,
                "velocity": 64,
                "duration": 0.3931818,
                "tempo": 120.0
            },
            {
                "start_time": 34.5113636,
                "end_time": 34.8954545,
                "pitch": 42,
                "velocity": 64,
                "duration": 0.3840909,
                "tempo": 120.0
            },
            {
                "start_time": 34.9113636,
                "end_time": 35.1954545,
                "pitch": 42,
                "velocity": 64,
                "duration": 0.2840909,
                "tempo": 120.0
            },
            {
                "start_time": 35.2113636,
                "end_time": 35.2954545,
                "pitch": 42,
                "velocity": 64,
                "duration": 0.0840909,
                "tempo": 120.0
            },
            {
                "start_time": 35.3113636,
                "end_time": 35.6977273,
                "pitch": 42,
                "velocity": 64,
                "duration": 0.3863636,
                "tempo": 120.0
            },
            {
                "start_time": 35.7136364,
                "end_time": 36.0977273,
                "pitch": 42,
                "velocity": 64,
                "duration": 0.3840909,
                "tempo": 120.0
            },
            {
                "start_time": 36.1136364,
                "end_time": 36.4886364,
                "pitch": 42,
                "velocity": 64,
                "duration": 0.375,
                "tempo": 120.0
            },
            {
                "start_time": 36.5068182,
                "end_time": 36.9,
                "pitch": 42,
                "velocity": 64,
                "duration": 0.3931818,
                "tempo": 120.0
            },
            {
                "start_time": 36.9159091,
                "end_time": 37.3113636,
                "pitch": 44,
                "velocity": 64,
                "duration": 0.3954545,
                "tempo": 120.0
            },
            {
                "start_time": 37.3272727,
                "end_time": 37.7045455,
                "pitch": 44,
                "velocity": 64,
                "duration": 0.3772727,
                "tempo": 120.0
            },
            {
                "start_time": 37.7204545,
                "end_time": 38.1022727,
                "pitch": 44,
                "velocity": 64,
                "duration": 0.3818182,
                "tempo": 120.0
            },
            {
                "start_time": 38.1204545,
                "end_time": 38.5022727,
                "pitch": 44,
                "velocity": 64,
                "duration": 0.3818182,
                "tempo": 120.0
            },
            {
                "start_time": 38.5204545,
                "end_time": 38.7022727,
                "pitch": 49,
                "velocity": 64,
                "duration": 0.1818182,
                "tempo": 120.0
            },
            {
                "start_time": 38.7204545,
                "end_time": 38.9022727,
                "pitch": 48,
                "velocity": 64,
                "duration": 0.1818182,
                "tempo": 120.0
            },
            {
                "start_time": 38.9204545,
                "end_time": 39.1022727,
                "pitch": 44,
                "velocity": 64,
                "duration": 0.1818182,
                "tempo": 120.0
            },
            {
                "start_time": 39.1204545,
                "end_time": 39.3022727,
                "pitch": 51,
                "velocity": 64,
                "duration": 0.1818182,
                "tempo": 120.0
            },
            {
                "start_time": 39.3204545,
                "end_time": 39.5045455,
                "pitch": 49,
                "velocity": 64,
                "duration": 0.1840909,
                "tempo": 120.0
            },
            {
                "start_time": 39.5204545,
                "end_time": 39.7068182,
                "pitch": 44,
                "velocity": 64,
                "duration": 0.1863636,
                "tempo": 120.0
            },
            {
                "start_time": 39.7227273,
                "end_time": 39.9068182,
                "pitch": 48,
                "velocity": 64,
                "duration": 0.1840909,
                "tempo": 120.0
            },
            {
                "start_time": 39.9227273,
                "end_time": 40.1068182,
                "pitch": 49,
                "velocity": 64,
                "duration": 0.1840909,
                "tempo": 120.0
            },
            {
                "start_time": 40.1227273,
                "end_time": 40.5068182,
                "pitch": 46,
                "velocity": 64,
                "duration": 0.3840909,
                "tempo": 120.0
            },
            {
                "start_time": 40.5227273,
                "end_time": 40.9068182,
                "pitch": 46,
                "velocity": 64,
                "duration": 0.3840909,
                "tempo": 120.0
            },
            {
                "start_time": 40.9227273,
                "end_time": 41.3068182,
                "pitch": 46,
                "velocity": 64,
                "duration": 0.3840909,
                "tempo": 120.0
            },
            {
                "start_time": 41.3227273,
                "end_time": 41.6068182,
                "pitch": 46,
                "velocity": 64,
                "duration": 0.2840909,
                "tempo": 120.0
            },
            {
                "start_time": 41.625,
                "end_time": 41.7090909,
                "pitch": 46,
                "velocity": 64,
                "duration": 0.0840909,
                "tempo": 120.0
            },
            {
                "start_time": 41.725,
                "end_time": 42.1090909,
                "pitch": 46,
                "velocity": 64,
                "duration": 0.3840909,
                "tempo": 120.0
            },
            {
                "start_time": 42.125,
                "end_time": 42.5090909,
                "pitch": 46,
                "velocity": 64,
                "duration": 0.3840909,
                "tempo": 120.0
            },
            {
                "start_time": 42.525,
                "end_time": 42.9,
                "pitch": 46,
                "velocity": 64,
                "duration": 0.375,
                "tempo": 120.0
            },
            {
                "start_time": 42.9181818,
                "end_time": 43.2090909,
                "pitch": 46,
                "velocity": 64,
                "duration": 0.2909091,
                "tempo": 120.0
            },
            {
                "start_time": 43.225,
                "end_time": 43.3113636,
                "pitch": 46,
                "velocity": 64,
                "duration": 0.0863636,
                "tempo": 120.0
            },
            {
                "start_time": 43.3272727,
                "end_time": 43.7136364,
                "pitch": 44,
                "velocity": 64,
                "duration": 0.3863636,
                "tempo": 120.0
            },
            {
                "start_time": 43.7318182,
                "end_time": 44.1136364,
                "pitch": 44,
                "velocity": 64,
                "duration": 0.3818182,
                "tempo": 120.0
            },
            {
                "start_time": 44.1318182,
                "end_time": 44.5136364,
                "pitch": 44,
                "velocity": 64,
                "duration": 0.3818182,
                "tempo": 120.0
            },
            {
                "start_time": 44.5318182,
                "end_time": 44.8136364,
                "pitch": 44,
                "velocity": 64,
                "duration": 0.2818182,
                "tempo": 120.0
            },
            {
                "start_time": 44.8318182,
                "end_time": 44.9136364,
                "pitch": 44,
                "velocity": 64,
                "duration": 0.0818182,
                "tempo": 120.0
            },
            {
                "start_time": 44.9318182,
                "end_time": 45.3136364,
                "pitch": 44,
                "velocity": 64,
                "duration": 0.3818182,
                "tempo": 120.0
            },
            {
                "start_time": 45.3318182,
                "end_time": 45.7159091,
                "pitch": 44,
                "velocity": 64,
                "duration": 0.3840909,
                "tempo": 120.0
            },
            {
                "start_time": 45.7340909,
                "end_time": 46.1159091,
                "pitch": 44,
                "velocity": 64,
                "duration": 0.3818182,
                "tempo": 120.0
            },
            {
                "start_time": 46.1340909,
                "end_time": 46.3159091,
                "pitch": 44,
                "velocity": 64,
                "duration": 0.1818182,
                "tempo": 120.0
            },
            {
                "start_time": 46.3340909,
                "end_time": 46.9090909,
                "pitch": 42,
                "velocity": 64,
                "duration": 0.575,
                "tempo": 120.0
            },
            {
                "start_time": 46.925,
                "end_time": 47.3204545,
                "pitch": 42,
                "velocity": 64,
                "duration": 0.3954545,
                "tempo": 120.0
            },
            {
                "start_time": 47.3363636,
                "end_time": 47.7227273,
                "pitch": 42,
                "velocity": 64,
                "duration": 0.3863636,
                "tempo": 120.0
            },
            {
                "start_time": 47.7386364,
                "end_time": 48.1227273,
                "pitch": 42,
                "velocity": 64,
                "duration": 0.3840909,
                "tempo": 120.0
            },
            {
                "start_time": 48.1386364,
                "end_time": 48.5227273,
                "pitch": 42,
                "velocity": 64,
                "duration": 0.3840909,
                "tempo": 120.0
            },
            {
                "start_time": 48.5386364,
                "end_time": 48.7181818,
                "pitch": 42,
                "velocity": 64,
                "duration": 0.1795455,
                "tempo": 120.0
            },
            {
                "start_time": 48.7340909,
                "end_time": 49.1159091,
                "pitch": 42,
                "velocity": 64,
                "duration": 0.3818182,
                "tempo": 120.0
            },
            {
                "start_time": 49.1318182,
                "end_time": 49.3159091,
                "pitch": 42,
                "velocity": 64,
                "duration": 0.1840909,
                "tempo": 120.0
            },
            {
                "start_time": 49.3318182,
                "end_time": 49.725,
                "pitch": 42,
                "velocity": 64,
                "duration": 0.3931818,
                "tempo": 120.0
            },
            {
                "start_time": 49.7409091,
                "end_time": 49.9227273,
                "pitch": 44,
                "velocity": 64,
                "duration": 0.1818182,
                "tempo": 120.0
            },
            {
                "start_time": 49.9386364,
                "end_time": 50.3181818,
                "pitch": 44,
                "velocity": 64,
                "duration": 0.3795455,
                "tempo": 120.0
            },
            {
                "start_time": 50.3340909,
                "end_time": 50.5181818,
                "pitch": 44,
                "velocity": 64,
                "duration": 0.1840909,
                "tempo": 120.0
            },
            {
                "start_time": 50.5340909,
                "end_time": 50.7227273,
                "pitch": 44,
                "velocity": 64,
                "duration": 0.1886364,
                "tempo": 120.0
            },
            {
                "start_time": 50.7386364,
                "end_time": 51.1295455,
                "pitch": 44,
                "velocity": 64,
                "duration": 0.3909091,
                "tempo": 120.0
            },
            {
                "start_time": 51.1454545,
                "end_time": 51.3295455,
                "pitch": 44,
                "velocity": 64,
                "duration": 0.1840909,
                "tempo": 120.0
            },
            {
                "start_time": 51.3454545,
                "end_time": 51.525,
                "pitch": 44,
                "velocity": 64,
                "duration": 0.1795455,
                "tempo": 120.0
            },
            {
                "start_time": 51.5409091,
                "end_time": 51.7204545,
                "pitch": 48,
                "velocity": 64,
                "duration": 0.1795455,
                "tempo": 120.0
            },
            {
                "start_time": 51.7363636,
                "end_time": 51.925,
                "pitch": 49,
                "velocity": 64,
                "duration": 0.1886364,
                "tempo": 120.0
            },
            {
                "start_time": 51.9431818,
                "end_time": 52.1318182,
                "pitch": 51,
                "velocity": 64,
                "duration": 0.1886364,
                "tempo": 120.0
            },
            {
                "start_time": 52.1477273,
                "end_time": 52.3318182,
                "pitch": 44,
                "velocity": 64,
                "duration": 0.1840909,
                "tempo": 120.0
            },
            {
                "start_time": 52.3477273,
                "end_time": 52.5318182,
                "pitch": 51,
                "velocity": 64,
                "duration": 0.1840909,
                "tempo": 120.0
            },
            {
                "start_time": 52.5477273,
                "end_time": 52.7272727,
                "pitch": 49,
                "velocity": 64,
                "duration": 0.1795455,
                "tempo": 120.0
            },
            {
                "start_time": 52.7431818,
                "end_time": 52.9227273,
                "pitch": 48,
                "velocity": 64,
                "duration": 0.1795455,
                "tempo": 120.0
            },
            {
                "start_time": 52.9409091,
                "end_time": 52.975,
                "pitch": 39,
                "velocity": 64,
                "duration": 0.0340909,
                "tempo": 120.0
            }
        ],
        "Lead 2 (sawtooth)": [
            {
                "start_time": 0.0,
                "end_time": 0.5840909,
                "pitch": 66,
                "velocity": 64,
                "duration": 0.5840909,
                "tempo": 120.0
            },
            {
                "start_time": 0.6,
                "end_time": 1.1840909,
                "pitch": 63,
                "velocity": 64,
                "duration": 0.5840909,
                "tempo": 120.0
            },
            {
                "start_time": 1.2,
                "end_time": 1.5840909,
                "pitch": 70,
                "velocity": 64,
                "duration": 0.3840909,
                "tempo": 120.0
            },
            {
                "start_time": 1.6,
                "end_time": 1.6840909,
                "pitch": 70,
                "velocity": 64,
                "duration": 0.0840909,
                "tempo": 120.0
            },
            {
                "start_time": 2.2022727,
                "end_time": 3.1863636,
                "pitch": 63,
                "velocity": 64,
                "duration": 0.9840909,
                "tempo": 120.0
            },
            {
                "start_time": 3.2022727,
                "end_time": 3.2863636,
                "pitch": 65,
                "velocity": 64,
                "duration": 0.0840909,
                "tempo": 120.0
            },
            {
                "start_time": 3.8045455,
                "end_time": 4.3886364,
                "pitch": 61,
                "velocity": 64,
                "duration": 0.5840909,
                "tempo": 120.0
            },
            {
                "start_time": 4.4045455,
                "end_time": 4.5909091,
                "pitch": 70,
                "velocity": 64,
                "duration": 0.1863636,
                "tempo": 120.0
            },
            {
                "start_time": 4.6068182,
                "end_time": 5.1909091,
                "pitch": 61,
                "velocity": 64,
                "duration": 0.5840909,
                "tempo": 120.0
            },
            {
                "start_time": 5.2090909,
                "end_time": 5.5931818,
                "pitch": 65,
                "velocity": 64,
                "duration": 0.3840909,
                "tempo": 120.0
            },
            {
                "start_time": 5.6113636,
                "end_time": 6.0045455,
                "pitch": 70,
                "velocity": 64,
                "duration": 0.3931818,
                "tempo": 120.0
            },
            {
                "start_time": 6.0204545,
                "end_time": 6.3977273,
                "pitch": 61,
                "velocity": 64,
                "duration": 0.3772727,
                "tempo": 120.0
            },
            {
                "start_time": 6.4136364,
                "end_time": 7.0,
                "pitch": 66,
                "velocity": 64,
                "duration": 0.5863636,
                "tempo": 120.0
            },
            {
                "start_time": 7.0159091,
                "end_time": 7.6022727,
                "pitch": 63,
                "velocity": 64,
                "duration": 0.5863636,
                "tempo": 120.0
            },
            {
                "start_time": 7.6181818,
                "end_time": 8.0022727,
                "pitch": 70,
                "velocity": 64,
                "duration": 0.3840909,
                "tempo": 120.0
            },
            {
                "start_time": 8.0181818,
                "end_time": 8.2045455,
                "pitch": 70,
                "velocity": 64,
                "duration": 0.1863636,
                "tempo": 120.0
            },
            {
                "start_time": 8.2204545,
                "end_time": 9.6113636,
                "pitch": 63,
                "velocity": 64,
                "duration": 1.3909091,
                "tempo": 120.0
            },
            {
                "start_time": 9.6272727,
                "end_time": 10.6113636,
                "pitch": 66,
                "velocity": 64,
                "duration": 0.9840909,
                "tempo": 120.0
            },
            {
                "start_time": 10.6272727,
                "end_time": 10.8090909,
                "pitch": 68,
                "velocity": 64,
                "duration": 0.1818182,
                "tempo": 120.0
            },
            {
                "start_time": 10.825,
                "end_time": 11.0136364,
                "pitch": 70,
                "velocity": 64,
                "duration": 0.1886364,
                "tempo": 120.0
            },
            {
                "start_time": 11.0295455,
                "end_time": 11.2181818,
                "pitch": 68,
                "velocity": 64,
                "duration": 0.1886364,
                "tempo": 120.0
            },
            {
                "start_time": 11.2363636,
                "end_time": 12.0204545,
                "pitch": 65,
                "velocity": 64,
                "duration": 0.7840909,
                "tempo": 120.0
            },
            {
                "start_time": 12.0386364,
                "end_time": 12.425,
                "pitch": 66,
                "velocity": 64,
                "duration": 0.3863636,
                "tempo": 120.0
            },
            {
                "start_time": 12.4409091,
                "end_time": 12.8272727,
                "pitch": 65,
                "velocity": 64,
                "duration": 0.3863636,
                "tempo": 120.0
            },
            {
                "start_time": 12.8431818,
                "end_time": 13.4295455,
                "pitch": 66,
                "velocity": 64,
                "duration": 0.5863636,
                "tempo": 120.0
            },
            {
                "start_time": 13.4454545,
                "end_time": 14.0318182,
                "pitch": 63,
                "velocity": 64,
                "duration": 0.5863636,
                "tempo": 120.0
            },
            {
                "start_time": 14.0477273,
                "end_time": 14.4340909,
                "pitch": 70,
                "velocity": 64,
                "duration": 0.3863636,
                "tempo": 120.0
            },
            {
                "start_time": 14.4522727,
                "end_time": 14.5363636,
                "pitch": 70,
                "velocity": 64,
                "duration": 0.0840909,
                "tempo": 120.0
            },
            {
                "start_time": 15.0545455,
                "end_time": 16.0431818,
                "pitch": 63,
                "velocity": 64,
                "duration": 0.9886364,
                "tempo": 120.0
            },
            {
                "start_time": 16.0590909,
                "end_time": 16.1431818,
                "pitch": 65,
                "velocity": 64,
                "duration": 0.0840909,
                "tempo": 120.0
            },
            {
                "start_time": 16.6613636,
                "end_time": 17.2477273,
                "pitch": 61,
                "velocity": 64,
                "duration": 0.5863636,
                "tempo": 120.0
            },
            {
                "start_time": 17.2659091,
                "end_time": 17.4477273,
                "pitch": 70,
                "velocity": 64,
                "duration": 0.1818182,
                "tempo": 120.0
            },
            {
                "start_time": 17.4659091,
                "end_time": 18.05,
                "pitch": 61,
                "velocity": 64,
                "duration": 0.5840909,
                "tempo": 120.0
            },
            {
                "start_time": 18.0681818,
                "end_time": 18.45,
                "pitch": 65,
                "velocity": 64,
                "duration": 0.3818182,
                "tempo": 120.0
            },
            {
                "start_time": 18.4681818,
                "end_time": 18.85,
                "pitch": 70,
                "velocity": 64,
                "duration": 0.3818182,
                "tempo": 120.0
            },
            {
                "start_time": 18.8681818,
                "end_time": 19.2545455,
                "pitch": 61,
                "velocity": 64,
                "duration": 0.3863636,
                "tempo": 120.0
            },
            {
                "start_time": 19.2704545,
                "end_time": 19.8545455,
                "pitch": 66,
                "velocity": 64,
                "duration": 0.5840909,
                "tempo": 120.0
            },
            {
                "start_time": 19.8704545,
                "end_time": 20.4568182,
                "pitch": 63,
                "velocity": 64,
                "duration": 0.5863636,
                "tempo": 120.0
            },
            {
                "start_time": 20.4727273,
                "end_time": 20.8568182,
                "pitch": 70,
                "velocity": 64,
                "duration": 0.3840909,
                "tempo": 120.0
            },
            {
                "start_time": 20.8727273,
                "end_time": 21.0568182,
                "pitch": 70,
                "velocity": 64,
                "duration": 0.1840909,
                "tempo": 120.0
            },
            {
                "start_time": 21.075,
                "end_time": 22.4613636,
                "pitch": 63,
                "velocity": 64,
                "duration": 1.3863636,
                "tempo": 120.0
            },
            {
                "start_time": 22.4795455,
                "end_time": 24.0681818,
                "pitch": 66,
                "velocity": 64,
                "duration": 1.5886364,
                "tempo": 120.0
            },
            {
                "start_time": 24.0840909,
                "end_time": 24.8681818,
                "pitch": 68,
                "velocity": 64,
                "duration": 0.7840909,
                "tempo": 120.0
            },
            {
                "start_time": 24.8840909,
                "end_time": 25.6704545,
                "pitch": 75,
                "velocity": 64,
                "duration": 0.7863636,
                "tempo": 120.0
            },
            {
                "start_time": 25.6863636,
                "end_time": 27.275,
                "pitch": 72,
                "velocity": 64,
                "duration": 1.5886364,
                "tempo": 120.0
            },
            {
                "start_time": 27.2931818,
                "end_time": 28.4772727,
                "pitch": 70,
                "velocity": 64,
                "duration": 1.1840909,
                "tempo": 120.0
            },
            {
                "start_time": 28.4954545,
                "end_time": 28.6772727,
                "pitch": 70,
                "velocity": 64,
                "duration": 0.1818182,
                "tempo": 120.0
            },
            {
                "start_time": 28.6954545,
                "end_time": 28.8772727,
                "pitch": 70,
                "velocity": 64,
                "duration": 0.1818182,
                "tempo": 120.0
            },
            {
                "start_time": 28.8954545,
                "end_time": 29.8772727,
                "pitch": 70,
                "velocity": 64,
                "duration": 0.9818182,
                "tempo": 120.0
            },
            {
                "start_time": 29.8931818,
                "end_time": 30.4840909,
                "pitch": 70,
                "velocity": 64,
                "duration": 0.5909091,
                "tempo": 120.0
            },
            {
                "start_time": 30.5,
                "end_time": 30.6840909,
                "pitch": 68,
                "velocity": 64,
                "duration": 0.1840909,
                "tempo": 120.0
            },
            {
                "start_time": 30.7,
                "end_time": 31.6863636,
                "pitch": 68,
                "velocity": 64,
                "duration": 0.9863636,
                "tempo": 120.0
            },
            {
                "start_time": 31.7022727,
                "end_time": 31.8886364,
                "pitch": 68,
                "velocity": 64,
                "duration": 0.1863636,
                "tempo": 120.0
            },
            {
                "start_time": 31.9045455,
                "end_time": 32.0886364,
                "pitch": 68,
                "velocity": 64,
                "duration": 0.1840909,
                "tempo": 120.0
            },
            {
                "start_time": 32.1068182,
                "end_time": 33.0863636,
                "pitch": 68,
                "velocity": 64,
                "duration": 0.9795455,
                "tempo": 120.0
            },
            {
                "start_time": 33.1022727,
                "end_time": 33.4863636,
                "pitch": 68,
                "velocity": 64,
                "duration": 0.3840909,
                "tempo": 120.0
            },
            {
                "start_time": 33.5022727,
                "end_time": 34.6954545,
                "pitch": 66,
                "velocity": 64,
                "duration": 1.1931818,
                "tempo": 120.0
            },
            {
                "start_time": 34.7113636,
                "end_time": 35.2954545,
                "pitch": 61,
                "velocity": 64,
                "duration": 0.5840909,
                "tempo": 120.0
            },
            {
                "start_time": 35.3113636,
                "end_time": 35.6977273,
                "pitch": 70,
                "velocity": 64,
                "duration": 0.3863636,
                "tempo": 120.0
            },
            {
                "start_time": 35.7136364,
                "end_time": 35.8977273,
                "pitch": 66,
                "velocity": 64,
                "duration": 0.1840909,
                "tempo": 120.0
            },
            {
                "start_time": 35.9136364,
                "end_time": 36.4886364,
                "pitch": 70,
                "velocity": 64,
                "duration": 0.575,
                "tempo": 120.0
            },
            {
                "start_time": 36.5068182,
                "end_time": 36.9,
                "pitch": 66,
                "velocity": 64,
                "duration": 0.3931818,
                "tempo": 120.0
            },
            {
                "start_time": 36.9159091,
                "end_time": 37.7045455,
                "pitch": 68,
                "velocity": 64,
                "duration": 0.7886364,
                "tempo": 120.0
            },
            {
                "start_time": 37.7204545,
                "end_time": 38.5022727,
                "pitch": 63,
                "velocity": 64,
                "duration": 0.7818182,
                "tempo": 120.0
            },
            {
                "start_time": 38.5204545,
                "end_time": 38.7022727,
                "pitch": 68,
                "velocity": 64,
                "duration": 0.1818182,
                "tempo": 120.0
            },
            {
                "start_time": 38.7204545,
                "end_time": 38.9022727,
                "pitch": 65,
                "velocity": 64,
                "duration": 0.1818182,
                "tempo": 120.0
            },
            {
                "start_time": 38.9204545,
                "end_time": 39.1022727,
                "pitch": 63,
                "velocity": 64,
                "duration": 0.1818182,
                "tempo": 120.0
            },
            {
                "start_time": 39.1204545,
                "end_time": 39.5045455,
                "pitch": 65,
                "velocity": 64,
                "duration": 0.3840909,
                "tempo": 120.0
            },
            {
                "start_time": 39.5204545,
                "end_time": 39.7068182,
                "pitch": 61,
                "velocity": 64,
                "duration": 0.1863636,
                "tempo": 120.0
            },
            {
                "start_time": 39.7227273,
                "end_time": 39.9068182,
                "pitch": 65,
                "velocity": 64,
                "duration": 0.1840909,
                "tempo": 120.0
            },
            {
                "start_time": 39.9227273,
                "end_time": 40.1068182,
                "pitch": 68,
                "velocity": 64,
                "duration": 0.1840909,
                "tempo": 120.0
            },
            {
                "start_time": 40.1227273,
                "end_time": 40.9068182,
                "pitch": 70,
                "velocity": 64,
                "duration": 0.7840909,
                "tempo": 120.0
            },
            {
                "start_time": 40.9227273,
                "end_time": 41.3068182,
                "pitch": 70,
                "velocity": 64,
                "duration": 0.3840909,
                "tempo": 120.0
            },
            {
                "start_time": 41.3227273,
                "end_time": 41.5068182,
                "pitch": 70,
                "velocity": 64,
                "duration": 0.1840909,
                "tempo": 120.0
            },
            {
                "start_time": 41.525,
                "end_time": 41.6068182,
                "pitch": 70,
                "velocity": 64,
                "duration": 0.0818182,
                "tempo": 120.0
            },
            {
                "start_time": 41.625,
                "end_time": 41.7090909,
                "pitch": 70,
                "velocity": 64,
                "duration": 0.0840909,
                "tempo": 120.0
            },
            {
                "start_time": 41.725,
                "end_time": 42.7045455,
                "pitch": 70,
                "velocity": 64,
                "duration": 0.9795455,
                "tempo": 120.0
            },
            {
                "start_time": 42.7204545,
                "end_time": 43.3113636,
                "pitch": 70,
                "velocity": 64,
                "duration": 0.5909091,
                "tempo": 120.0
            },
            {
                "start_time": 43.3272727,
                "end_time": 43.6136364,
                "pitch": 68,
                "velocity": 64,
                "duration": 0.2863636,
                "tempo": 120.0
            },
            {
                "start_time": 43.6295455,
                "end_time": 44.1136364,
                "pitch": 68,
                "velocity": 64,
                "duration": 0.4840909,
                "tempo": 120.0
            },
            {
                "start_time": 44.1318182,
                "end_time": 44.5136364,
                "pitch": 68,
                "velocity": 64,
                "duration": 0.3818182,
                "tempo": 120.0
            },
            {
                "start_time": 44.5318182,
                "end_time": 44.7136364,
                "pitch": 68,
                "velocity": 64,
                "duration": 0.1818182,
                "tempo": 120.0
            },
            {
                "start_time": 44.7318182,
                "end_time": 45.9159091,
                "pitch": 68,
                "velocity": 64,
                "duration": 1.1840909,
                "tempo": 120.0
            },
            {
                "start_time": 45.9340909,
                "end_time": 46.3159091,
                "pitch": 68,
                "velocity": 64,
                "duration": 0.3818182,
                "tempo": 120.0
            },
            {
                "start_time": 46.3340909,
                "end_time": 47.3204545,
                "pitch": 66,
                "velocity": 64,
                "duration": 0.9863636,
                "tempo": 120.0
            },
            {
                "start_time": 47.3363636,
                "end_time": 47.9227273,
                "pitch": 61,
                "velocity": 64,
                "duration": 0.5863636,
                "tempo": 120.0
            },
            {
                "start_time": 47.9386364,
                "end_time": 48.1227273,
                "pitch": 66,
                "velocity": 64,
                "duration": 0.1840909,
                "tempo": 120.0
            },
            {
                "start_time": 48.1386364,
                "end_time": 48.5227273,
                "pitch": 70,
                "velocity": 64,
                "duration": 0.3840909,
                "tempo": 120.0
            },
            {
                "start_time": 48.5386364,
                "end_time": 48.7181818,
                "pitch": 66,
                "velocity": 64,
                "duration": 0.1795455,
                "tempo": 120.0
            },
            {
                "start_time": 48.7340909,
                "end_time": 49.3159091,
                "pitch": 70,
                "velocity": 64,
                "duration": 0.5818182,
                "tempo": 120.0
            },
            {
                "start_time": 49.3318182,
                "end_time": 49.725,
                "pitch": 66,
                "velocity": 64,
                "duration": 0.3931818,
                "tempo": 120.0
            },
            {
                "start_time": 49.7409091,
                "end_time": 49.9227273,
                "pitch": 72,
                "velocity": 64,
                "duration": 0.1818182,
                "tempo": 120.0
            },
            {
                "start_time": 49.9386364,
                "end_time": 50.1181818,
                "pitch": 68,
                "velocity": 64,
                "duration": 0.1795455,
                "tempo": 120.0
            },
            {
                "start_time": 50.1340909,
                "end_time": 50.3181818,
                "pitch": 75,
                "velocity": 64,
                "duration": 0.1840909,
                "tempo": 120.0
            },
            {
                "start_time": 50.3340909,
                "end_time": 50.5181818,
                "pitch": 68,
                "velocity": 64,
                "duration": 0.1840909,
                "tempo": 120.0
            },
            {
                "start_time": 50.5340909,
                "end_time": 50.7227273,
                "pitch": 72,
                "velocity": 64,
                "duration": 0.1886364,
                "tempo": 120.0
            },
            {
                "start_time": 50.7386364,
                "end_time": 50.9272727,
                "pitch": 68,
                "velocity": 64,
                "duration": 0.1886364,
                "tempo": 120.0
            },
            {
                "start_time": 50.9454545,
                "end_time": 51.1295455,
                "pitch": 75,
                "velocity": 64,
                "duration": 0.1840909,
                "tempo": 120.0
            },
            {
                "start_time": 51.1454545,
                "end_time": 51.3295455,
                "pitch": 68,
                "velocity": 64,
                "duration": 0.1840909,
                "tempo": 120.0
            },
            {
                "start_time": 51.3454545,
                "end_time": 51.7204545,
                "pitch": 75,
                "velocity": 64,
                "duration": 0.375,
                "tempo": 120.0
            },
            {
                "start_time": 51.7363636,
                "end_time": 52.1318182,
                "pitch": 72,
                "velocity": 64,
                "duration": 0.3954545,
                "tempo": 120.0
            },
            {
                "start_time": 52.1477273,
                "end_time": 52.5318182,
                "pitch": 68,
                "velocity": 64,
                "duration": 0.3840909,
                "tempo": 120.0
            },
            {
                "start_time": 52.5477273,
                "end_time": 52.9227273,
                "pitch": 72,
                "velocity": 64,
                "duration": 0.375,
                "tempo": 120.0
            },
            {
                "start_time": 52.9409091,
                "end_time": 52.975,
                "pitch": 66,
                "velocity": 64,
                "duration": 0.0340909,
                "tempo": 120.0
            }
        ],
        "Vibraphone": [
            {
                "start_time": 0.0,
                "end_time": 0.0840909,
                "pitch": 66,
                "velocity": 80,
                "duration": 0.0840909,
                "tempo": 120.0
            },
            {
                "start_time": 0.6,
                "end_time": 1.1840909,
                "pitch": 66,
                "velocity": 80,
                "duration": 0.5840909,
                "tempo": 120.0
            },
            {
                "start_time": 1.2,
                "end_time": 1.5840909,
                "pitch": 66,
                "velocity": 80,
                "duration": 0.3840909,
                "tempo": 120.0
            },
            {
                "start_time": 1.6,
                "end_time": 1.6840909,
                "pitch": 66,
                "velocity": 80,
                "duration": 0.0840909,
                "tempo": 120.0
            },
            {
                "start_time": 2.2022727,
                "end_time": 3.1863636,
                "pitch": 66,
                "velocity": 80,
                "duration": 0.9840909,
                "tempo": 120.0
            },
            {
                "start_time": 3.2022727,
                "end_time": 3.3545455,
                "pitch": 61,
                "velocity": 80,
                "duration": 0.1522727,
                "tempo": 120.0
            },
            {
                "start_time": 3.8045455,
                "end_time": 4.3886364,
                "pitch": 61,
                "velocity": 80,
                "duration": 0.5840909,
                "tempo": 120.0
            },
            {
                "start_time": 4.4045455,
                "end_time": 4.5909091,
                "pitch": 61,
                "velocity": 80,
                "duration": 0.1863636,
                "tempo": 120.0
            },
            {
                "start_time": 4.6068182,
                "end_time": 6.3977273,
                "pitch": 61,
                "velocity": 80,
                "duration": 1.7909091,
                "tempo": 120.0
            },
            {
                "start_time": 6.4136364,
                "end_time": 6.4977273,
                "pitch": 66,
                "velocity": 80,
                "duration": 0.0840909,
                "tempo": 120.0
            },
            {
                "start_time": 7.0159091,
                "end_time": 7.6022727,
                "pitch": 66,
                "velocity": 80,
                "duration": 0.5863636,
                "tempo": 120.0
            },
            {
                "start_time": 7.6181818,
                "end_time": 8.0022727,
                "pitch": 66,
                "velocity": 80,
                "duration": 0.3840909,
                "tempo": 120.0
            },
            {
                "start_time": 8.0181818,
                "end_time": 8.1022727,
                "pitch": 66,
                "velocity": 80,
                "duration": 0.0840909,
                "tempo": 120.0
            },
            {
                "start_time": 8.6227273,
                "end_time": 9.6113636,
                "pitch": 66,
                "velocity": 80,
                "duration": 0.9886364,
                "tempo": 120.0
            },
            {
                "start_time": 9.6272727,
                "end_time": 10.6113636,
                "pitch": 70,
                "velocity": 80,
                "duration": 0.9840909,
                "tempo": 120.0
            },
            {
                "start_time": 10.6272727,
                "end_time": 10.8090909,
                "pitch": 70,
                "velocity": 80,
                "duration": 0.1818182,
                "tempo": 120.0
            },
            {
                "start_time": 10.825,
                "end_time": 11.2181818,
                "pitch": 70,
                "velocity": 80,
                "duration": 0.3931818,
                "tempo": 120.0
            },
            {
                "start_time": 11.2363636,
                "end_time": 12.8272727,
                "pitch": 69,
                "velocity": 80,
                "duration": 1.5909091,
                "tempo": 120.0
            },
            {
                "start_time": 12.8431818,
                "end_time": 12.9272727,
                "pitch": 66,
                "velocity": 80,
                "duration": 0.0840909,
                "tempo": 120.0
            },
            {
                "start_time": 13.4454545,
                "end_time": 14.0318182,
                "pitch": 66,
                "velocity": 80,
                "duration": 0.5863636,
                "tempo": 120.0
            },
            {
                "start_time": 14.0477273,
                "end_time": 14.4340909,
                "pitch": 66,
                "velocity": 80,
                "duration": 0.3863636,
                "tempo": 120.0
            },
            {
                "start_time": 14.4522727,
                "end_time": 14.5363636,
                "pitch": 66,
                "velocity": 80,
                "duration": 0.0840909,
                "tempo": 120.0
            },
            {
                "start_time": 15.0545455,
                "end_time": 16.0431818,
                "pitch": 66,
                "velocity": 80,
                "duration": 0.9886364,
                "tempo": 120.0
            },
            {
                "start_time": 16.0590909,
                "end_time": 16.6454545,
                "pitch": 61,
                "velocity": 80,
                "duration": 0.5863636,
                "tempo": 120.0
            },
            {
                "start_time": 16.6613636,
                "end_time": 17.6477273,
                "pitch": 61,
                "velocity": 80,
                "duration": 0.9863636,
                "tempo": 120.0
            },
            {
                "start_time": 17.6659091,
                "end_time": 17.7818182,
                "pitch": 61,
                "velocity": 80,
                "duration": 0.1159091,
                "tempo": 120.0
            },
            {
                "start_time": 18.2681818,
                "end_time": 19.2545455,
                "pitch": 61,
                "velocity": 80,
                "duration": 0.9863636,
                "tempo": 120.0
            },
            {
                "start_time": 19.2704545,
                "end_time": 19.3545455,
                "pitch": 66,
                "velocity": 80,
                "duration": 0.0840909,
                "tempo": 120.0
            },
            {
                "start_time": 19.8704545,
                "end_time": 20.4568182,
                "pitch": 66,
                "velocity": 80,
                "duration": 0.5863636,
                "tempo": 120.0
            },
            {
                "start_time": 20.4727273,
                "end_time": 20.8568182,
                "pitch": 66,
                "velocity": 80,
                "duration": 0.3840909,
                "tempo": 120.0
            },
            {
                "start_time": 20.8727273,
                "end_time": 20.9568182,
                "pitch": 66,
                "velocity": 80,
                "duration": 0.0840909,
                "tempo": 120.0
            },
            {
                "start_time": 21.475,
                "end_time": 22.4613636,
                "pitch": 66,
                "velocity": 80,
                "duration": 0.9863636,
                "tempo": 120.0
            },
            {
                "start_time": 22.4795455,
                "end_time": 23.4636364,
                "pitch": 70,
                "velocity": 80,
                "duration": 0.9840909,
                "tempo": 120.0
            },
            {
                "start_time": 23.4818182,
                "end_time": 23.6636364,
                "pitch": 70,
                "velocity": 80,
                "duration": 0.1818182,
                "tempo": 120.0
            },
            {
                "start_time": 23.6818182,
                "end_time": 24.0681818,
                "pitch": 70,
                "velocity": 80,
                "duration": 0.3863636,
                "tempo": 120.0
            },
            {
                "start_time": 24.0840909,
                "end_time": 25.8704545,
                "pitch": 72,
                "velocity": 80,
                "duration": 1.7863636,
                "tempo": 120.0
            },
            {
                "start_time": 25.8886364,
                "end_time": 26.0727273,
                "pitch": 72,
                "velocity": 80,
                "duration": 0.1840909,
                "tempo": 120.0
            },
            {
                "start_time": 26.0886364,
                "end_time": 26.4727273,
                "pitch": 72,
                "velocity": 80,
                "duration": 0.3840909,
                "tempo": 120.0
            },
            {
                "start_time": 26.4886364,
                "end_time": 26.8727273,
                "pitch": 72,
                "velocity": 80,
                "duration": 0.3840909,
                "tempo": 120.0
            },
            {
                "start_time": 26.8886364,
                "end_time": 27.275,
                "pitch": 72,
                "velocity": 80,
                "duration": 0.3863636,
                "tempo": 120.0
            },
            {
                "start_time": 27.2931818,
                "end_time": 28.6772727,
                "pitch": 74,
                "velocity": 80,
                "duration": 1.3840909,
                "tempo": 120.0
            },
            {
                "start_time": 28.6954545,
                "end_time": 28.8772727,
                "pitch": 62,
                "velocity": 80,
                "duration": 0.1818182,
                "tempo": 120.0
            },
            {
                "start_time": 28.8954545,
                "end_time": 29.8772727,
                "pitch": 74,
                "velocity": 80,
                "duration": 0.9818182,
                "tempo": 120.0
            },
            {
                "start_time": 29.8931818,
                "end_time": 30.4840909,
                "pitch": 74,
                "velocity": 80,
                "duration": 0.5909091,
                "tempo": 120.0
            },
            {
                "start_time": 30.5,
                "end_time": 31.6863636,
                "pitch": 72,
                "velocity": 80,
                "duration": 1.1863636,
                "tempo": 120.0
            },
            {
                "start_time": 31.7022727,
                "end_time": 31.8886364,
                "pitch": 60,
                "velocity": 80,
                "duration": 0.1863636,
                "tempo": 120.0
            },
            {
                "start_time": 31.9045455,
                "end_time": 33.0863636,
                "pitch": 72,
                "velocity": 80,
                "duration": 1.1818182,
                "tempo": 120.0
            },
            {
                "start_time": 33.1022727,
                "end_time": 33.4863636,
                "pitch": 72,
                "velocity": 80,
                "duration": 0.3840909,
                "tempo": 120.0
            },
            {
                "start_time": 33.5022727,
                "end_time": 34.4931818,
                "pitch": 70,
                "velocity": 80,
                "duration": 0.9909091,
                "tempo": 120.0
            },
            {
                "start_time": 34.5113636,
                "end_time": 35.2954545,
                "pitch": 70,
                "velocity": 80,
                "duration": 0.7840909,
                "tempo": 120.0
            },
            {
                "start_time": 35.3113636,
                "end_time": 35.6977273,
                "pitch": 70,
                "velocity": 80,
                "duration": 0.3863636,
                "tempo": 120.0
            },
            {
                "start_time": 35.7136364,
                "end_time": 35.8977273,
                "pitch": 70,
                "velocity": 80,
                "duration": 0.1840909,
                "tempo": 120.0
            },
            {
                "start_time": 35.9136364,
                "end_time": 36.2931818,
                "pitch": 70,
                "velocity": 80,
                "duration": 0.3795455,
                "tempo": 120.0
            },
            {
                "start_time": 36.3090909,
                "end_time": 36.4886364,
                "pitch": 70,
                "velocity": 80,
                "duration": 0.1795455,
                "tempo": 120.0
            },
            {
                "start_time": 36.5068182,
                "end_time": 36.9,
                "pitch": 70,
                "velocity": 80,
                "duration": 0.3931818,
                "tempo": 120.0
            },
            {
                "start_time": 36.9159091,
                "end_time": 37.7045455,
                "pitch": 72,
                "velocity": 80,
                "duration": 0.7886364,
                "tempo": 120.0
            },
            {
                "start_time": 37.7204545,
                "end_time": 38.5022727,
                "pitch": 72,
                "velocity": 80,
                "duration": 0.7818182,
                "tempo": 120.0
            },
            {
                "start_time": 38.5204545,
                "end_time": 38.7022727,
                "pitch": 72,
                "velocity": 80,
                "duration": 0.1818182,
                "tempo": 120.0
            },
            {
                "start_time": 38.7204545,
                "end_time": 39.1022727,
                "pitch": 72,
                "velocity": 80,
                "duration": 0.3818182,
                "tempo": 120.0
            },
            {
                "start_time": 39.1204545,
                "end_time": 39.5045455,
                "pitch": 72,
                "velocity": 80,
                "duration": 0.3840909,
                "tempo": 120.0
            },
            {
                "start_time": 39.5204545,
                "end_time": 39.7068182,
                "pitch": 72,
                "velocity": 80,
                "duration": 0.1863636,
                "tempo": 120.0
            },
            {
                "start_time": 39.7227273,
                "end_time": 40.1068182,
                "pitch": 72,
                "velocity": 80,
                "duration": 0.3840909,
                "tempo": 120.0
            },
            {
                "start_time": 40.1227273,
                "end_time": 41.5068182,
                "pitch": 74,
                "velocity": 80,
                "duration": 1.3840909,
                "tempo": 120.0
            },
            {
                "start_time": 41.525,
                "end_time": 41.7090909,
                "pitch": 62,
                "velocity": 80,
                "duration": 0.1840909,
                "tempo": 120.0
            },
            {
                "start_time": 41.725,
                "end_time": 42.7045455,
                "pitch": 74,
                "velocity": 80,
                "duration": 0.9795455,
                "tempo": 120.0
            },
            {
                "start_time": 42.7204545,
                "end_time": 43.3113636,
                "pitch": 74,
                "velocity": 80,
                "duration": 0.5909091,
                "tempo": 120.0
            },
            {
                "start_time": 43.3272727,
                "end_time": 44.5136364,
                "pitch": 72,
                "velocity": 80,
                "duration": 1.1863636,
                "tempo": 120.0
            },
            {
                "start_time": 44.5318182,
                "end_time": 44.7136364,
                "pitch": 60,
                "velocity": 80,
                "duration": 0.1818182,
                "tempo": 120.0
            },
            {
                "start_time": 44.7318182,
                "end_time": 45.9159091,
                "pitch": 72,
                "velocity": 80,
                "duration": 1.1840909,
                "tempo": 120.0
            },
            {
                "start_time": 45.9340909,
                "end_time": 46.3159091,
                "pitch": 72,
                "velocity": 80,
                "duration": 0.3818182,
                "tempo": 120.0
            },
            {
                "start_time": 46.3340909,
                "end_time": 47.3204545,
                "pitch": 70,
                "velocity": 80,
                "duration": 0.9863636,
                "tempo": 120.0
            },
            {
                "start_time": 47.3363636,
                "end_time": 48.1227273,
                "pitch": 70,
                "velocity": 80,
                "duration": 0.7863636,
                "tempo": 120.0
            },
            {
                "start_time": 48.1386364,
                "end_time": 48.5227273,
                "pitch": 70,
                "velocity": 80,
                "duration": 0.3840909,
                "tempo": 120.0
            },
            {
                "start_time": 48.5386364,
                "end_time": 48.7181818,
                "pitch": 70,
                "velocity": 80,
                "duration": 0.1795455,
                "tempo": 120.0
            },
            {
                "start_time": 48.7340909,
                "end_time": 49.725,
                "pitch": 70,
                "velocity": 80,
                "duration": 0.9909091,
                "tempo": 120.0
            },
            {
                "start_time": 49.7409091,
                "end_time": 50.1181818,
                "pitch": 72,
                "velocity": 80,
                "duration": 0.3772727,
                "tempo": 120.0
            },
            {
                "start_time": 50.1340909,
                "end_time": 50.3181818,
                "pitch": 72,
                "velocity": 80,
                "duration": 0.1840909,
                "tempo": 120.0
            },
            {
                "start_time": 50.3340909,
                "end_time": 50.5181818,
                "pitch": 72,
                "velocity": 80,
                "duration": 0.1840909,
                "tempo": 120.0
            },
            {
                "start_time": 50.5340909,
                "end_time": 50.9272727,
                "pitch": 72,
                "velocity": 80,
                "duration": 0.3931818,
                "tempo": 120.0
            },
            {
                "start_time": 50.9454545,
                "end_time": 51.3295455,
                "pitch": 72,
                "velocity": 80,
                "duration": 0.3840909,
                "tempo": 120.0
            },
            {
                "start_time": 51.3454545,
                "end_time": 51.7204545,
                "pitch": 72,
                "velocity": 80,
                "duration": 0.375,
                "tempo": 120.0
            },
            {
                "start_time": 51.7363636,
                "end_time": 52.1318182,
                "pitch": 72,
                "velocity": 80,
                "duration": 0.3954545,
                "tempo": 120.0
            },
            {
                "start_time": 52.1477273,
                "end_time": 52.5318182,
                "pitch": 72,
                "velocity": 80,
                "duration": 0.3840909,
                "tempo": 120.0
            },
            {
                "start_time": 52.5477273,
                "end_time": 52.9227273,
                "pitch": 72,
                "velocity": 80,
                "duration": 0.375,
                "tempo": 120.0
            },
            {
                "start_time": 52.9409091,
                "end_time": 52.975,
                "pitch": 66,
                "velocity": 80,
                "duration": 0.0340909,
                "tempo": 120.0
            }
        ]
    }
}