{
    "mood": "angry",
    "instruments": {
        "Electric Guitar (clean)": [
            {
                "start_time": 0.0,
                "end_time": 0.3840909,
                "pitch": 36,
                "velocity": 64,
                "duration": 0.3840909,
                "tempo": 120.0
            },
            {
                "start_time": 0.4,
                "end_time": 0.7840909,
                "pitch": 36,
                "velocity": 64,
                "duration": 0.3840909,
                "tempo": 120.0
            },
            {
                "start_time": 0.8,
                "end_time": 1.1840909,
                "pitch": 41,
                "velocity": 64,
                "duration": 0.3840909,
                "tempo": 120.0
            },
            {
                "start_time": 1.2,
                "end_time": 1.5840909,
                "pitch": 41,
                "velocity": 64,
                "duration": 0.3840909,
                "tempo": 120.0
            },
            {
                "start_time": 1.6,
                "end_time": 1.9863636,
                "pitch": 41,
                "velocity": 64,
                "duration": 0.3863636,
                "tempo": 120.0
            },
            {
                "start_time": 2.0022727,
                "end_time": 2.3863636,
                "pitch": 41,
                "velocity": 64,
                "duration": 0.3840909,
                "tempo": 120.0
            },
            {
                "start_time": 2.4022727,
                "end_time": 2.7863636,
                "pitch": 38,
                "velocity": 64,
                "duration": 0.3840909,
                "tempo": 120.0
            },
            {
                "start_time": 2.8022727,
                "end_time": 3.1863636,
                "pitch": 38,
                "velocity": 64,
                "duration": 0.3840909,
                "tempo": 120.0
            },
            {
                "start_time": 3.2022727,
                "end_time": 3.5886364,
                "pitch": 38,
                "velocity": 64,
                "duration": 0.3863636,
                "tempo": 120.0
            },
            {
                "start_time": 3.6045455,
                "end_time": 3.9886364,
                "pitch": 38,
                "velocity": 64,
                "duration": 0.3840909,
                "tempo": 120.0
            },
            {
                "start_time": 4.0045455,
                "end_time": 4.3886364,
                "pitch": 34,
                "velocity": 64,
                "duration": 0.3840909,
                "tempo": 120.0
            },
            {
                "start_time": 4.4045455,
                "end_time": 4.7909091,
                "pitch": 34,
                "velocity": 64,
                "duration": 0.3863636,
                "tempo": 120.0
            },
            {
                "start_time": 4.8090909,
                "end_time": 5.1909091,
                "pitch": 36,
                "velocity": 64,
                "duration": 0.3818182,
                "tempo": 120.0
            },
            {
                "start_time": 5.2090909,
                "end_time": 5.5931818,
                "pitch": 36,
                "velocity": 64,
                "duration": 0.3840909,
                "tempo": 120.0
            },
            {
                "start_time": 5.6113636,
                "end_time": 5.9931818,
                "pitch": 41,
                "velocity": 64,
                "duration": 0.3818182,
                "tempo": 120.0
            },
            {
                "start_time": 6.0113636,
                "end_time": 6.3977273,
                "pitch": 41,
                "velocity": 64,
                "duration": 0.3863636,
                "tempo": 120.0
            },
            {
                "start_time": 6.4136364,
                "end_time": 6.8,
                "pitch": 41,
                "velocity": 64,
                "duration": 0.3863636,
                "tempo": 120.0
            },
            {
                "start_time": 6.8159091,
                "end_time": 7.2,
                "pitch": 41,
                "velocity": 64,
                "duration": 0.3840909,
                "tempo": 120.0
            },
            {
                "start_time": 7.2159091,
                "end_time": 7.6022727,
                "pitch": 37,
                "velocity": 64,
                "duration": 0.3863636,
                "tempo": 120.0
            },
            {
                "start_time": 7.6181818,
                "end_time": 8.0022727,
                "pitch": 37,
                "velocity": 64,
                "duration": 0.3840909,
                "tempo": 120.0
            },
            {
                "start_time": 8.0181818,
                "end_time": 8.4045455,
                "pitch": 37,
                "velocity": 64,
                "duration": 0.3863636,
                "tempo": 120.0
            },
            {
                "start_time": 8.4204545,
                "end_time": 8.8068182,
                "pitch": 37,
                "velocity": 64,
                "duration": 0.3863636,
                "tempo": 120.0
            },
            {
                "start_time": 8.825,
                "end_time": 9.2090909,
                "pitch": 36,
                "velocity": 64,
                "duration": 0.3840909,
                "tempo": 120.0
            },
            {
                "start_time": 9.2272727,
                "end_time": 9.6204545,
                "pitch": 36,
                "velocity": 64,
                "duration": 0.3931818,
                "tempo": 120.0
            },
            {
                "start_time": 9.6386364,
                "end_time": 10.0136364,
                "pitch": 36,
                "velocity": 64,
                "duration": 0.375,
                "tempo": 120.0
            },
            {
                "start_time": 10.0295455,
                "end_time": 10.4159091,
                "pitch": 36,
                "velocity": 64,
                "duration": 0.3863636,
                "tempo": 120.0
            },
            {
                "start_time": 10.4318182,
                "end_time": 10.8181818,
                "pitch": 41,
                "velocity": 64,
                "duration": 0.3863636,
                "tempo": 120.0
            },
            {
                "start_time": 10.8340909,
                "end_time": 11.2204545,
                "pitch": 41,
                "velocity": 64,
                "duration": 0.3863636,
                "tempo": 120.0
            },
            {
                "start_time": 11.2386364,
                "end_time": 11.6204545,
                "pitch": 41,
                "velocity": 64,
                "duration": 0.3818182,
                "tempo": 120.0
            },
            {
                "start_time": 11.6386364,
                "end_time": 12.0227273,
                "pitch": 41,
                "velocity": 64,
                "duration": 0.3840909,
                "tempo": 120.0
            },
            {
                "start_time": 12.0409091,
                "end_time": 12.4272727,
                "pitch": 38,
                "velocity": 64,
                "duration": 0.3863636,
                "tempo": 120.0
            },
            {
                "start_time": 12.4431818,
                "end_time": 12.8295455,
                "pitch": 38,
                "velocity": 64,
                "duration": 0.3863636,
                "tempo": 120.0
            },
            {
                "start_time": 12.8454545,
                "end_time": 13.2318182,
                "pitch": 38,
                "velocity": 64,
                "duration": 0.3863636,
                "tempo": 120.0
            },
            {
                "start_time": 13.2477273,
                "end_time": 13.6318182,
                "pitch": 38,
                "velocity": 64,
                "duration": 0.3840909,
                "tempo": 120.0
            },
            {
                "start_time": 13.6477273,
                "end_time": 14.0340909,
                "pitch": 34,
                "velocity": 64,
                "duration": 0.3863636,
                "tempo": 120.0
            },
            {
                "start_time": 14.0522727,
                "end_time": 14.4363636,
                "pitch": 34,
                "velocity": 64,
                "duration": 0.3840909,
                "tempo": 120.0
            },
            {
                "start_time": 14.4545455,
                "end_time": 14.8409091,
                "pitch": 36,
                "velocity": 64,
                "duration": 0.3863636,
                "tempo": 120.0
            },
            {
                "start_time": 14.8568182,
                "end_time": 15.2431818,
                "pitch": 36,
                "velocity": 64,
                "duration": 0.3863636,
                "tempo": 120.0
            },
            {
                "start_time": 15.2590909,
                "end_time": 15.6431818,
                "pitch": 41,
                "velocity": 64,
                "duration": 0.3840909,
                "tempo": 120.0
            },
            {
                "start_time": 15.6590909,
                "end_time": 16.0454545,
                "pitch": 41,
                "velocity": 64,
                "duration": 0.3863636,
                "tempo": 120.0
            },
            {
                "start_time": 16.0613636,
                "end_time": 16.4477273,
                "pitch": 41,
                "velocity": 64,
                "duration": 0.3863636,
                "tempo": 120.0
            },
            {
                "start_time": 16.4636364,
                "end_time": 16.8477273,
                "pitch": 41,
                "velocity": 64,
                "duration": 0.3840909,
                "tempo": 120.0
            },
            {
                "start_time": 16.8636364,
                "end_time": 17.25,
                "pitch": 37,
                "velocity": 64,
                "duration": 0.3863636,
                "tempo": 120.0
            },
            {
                "start_time": 17.2681818,
                "end_time": 17.65,
                "pitch": 37,
                "velocity": 64,
                "duration": 0.3818182,
                "tempo": 120.0
            },
            {
                "start_time": 17.6681818,
                "end_time": 18.0522727,
                "pitch": 37,
                "velocity": 64,
                "duration": 0.3840909,
                "tempo": 120.0
            },
            {
                "start_time": 18.0704545,
                "end_time": 18.4522727,
                "pitch": 37,
                "velocity": 64,
                "duration": 0.3818182,
                "tempo": 120.0
            },
            {
                "start_time": 18.4704545,
                "end_time": 18.8522727,
                "pitch": 36,
                "velocity": 64,
                "duration": 0.3818182,
                "tempo": 120.0
            },
            {
                "start_time": 18.8704545,
                "end_time": 19.2568182,
                "pitch": 36,
                "velocity": 64,
                "duration": 0.3863636,
                "tempo": 120.0
            },
            {
                "start_time": 19.2727273,
                "end_time": 19.6568182,
                "pitch": 36,
                "velocity": 64,
                "duration": 0.3840909,
                "tempo": 120.0
            },
            {
                "start_time": 19.6727273,
                "end_time": 20.0590909,
                "pitch": 36,
                "velocity": 64,
                "duration": 0.3863636,
                "tempo": 120.0
            },
            {
                "start_time": 20.075,
                "end_time": 20.4590909,
                "pitch": 36,
                "velocity": 64,
                "duration": 0.3840909,
                "tempo": 120.0
            },
            {
                "start_time": 20.475,
                "end_time": 20.8590909,
                "pitch": 36,
                "velocity": 64,
                "duration": 0.3840909,
                "tempo": 120.0
            },
            {
                "start_time": 20.875,
                "end_time": 21.2613636,
                "pitch": 36,
                "velocity": 64,
                "duration": 0.3863636,
                "tempo": 120.0
            },
            {
                "start_time": 21.2772727,
                "end_time": 21.6613636,
                "pitch": 36,
                "velocity": 64,
                "duration": 0.3840909,
                "tempo": 120.0
            },
            {
                "start_time": 21.6772727,
                "end_time": 22.0636364,
                "pitch": 31,
                "velocity": 64,
                "duration": 0.3863636,
                "tempo": 120.0
            },
            {
                "start_time": 22.0818182,
                "end_time": 22.4636364,
                "pitch": 31,
                "velocity": 64,
                "duration": 0.3818182,
                "tempo": 120.0
            },
            {
                "start_time": 22.4818182,
                "end_time": 22.875,
                "pitch": 31,
                "velocity": 64,
                "duration": 0.3931818,
                "tempo": 120.0
            },
            {
                "start_time": 22.8909091,
                "end_time": 23.2681818,
                "pitch": 31,
                "velocity": 64,
                "duration": 0.3772727,
                "tempo": 120.0
            },
            {
                "start_time": 23.2840909,
                "end_time": 23.6659091,
                "pitch": 37,
                "velocity": 64,
                "duration": 0.3818182,
                "tempo": 120.0
            },
            {
                "start_time": 23.6840909,
                "end_time": 24.0704545,
                "pitch": 37,
                "velocity": 64,
                "duration": 0.3863636,
                "tempo": 120.0
            },
            {
                "start_time": 24.0863636,
                "end_time": 24.4704545,
                "pitch": 37,
                "velocity": 64,
                "duration": 0.3840909,
                "tempo": 120.0
            },
            {
                "start_time": 24.4863636,
                "end_time": 24.8704545,
                "pitch": 37,
                "velocity": 64,
                "duration": 0.3840909,
                "tempo": 120.0
            },
            {
                "start_time": 24.8863636,
                "end_time": 25.2727273,
                "pitch": 41,
                "velocity": 64,
                "duration": 0.3863636,
                "tempo": 120.0
            },
            {
                "start_time": 25.2886364,
                "end_time": 25.6727273,
                "pitch": 41,
                "velocity": 64,
                "duration": 0.3840909,
                "tempo": 120.0
            },
            {
                "start_time": 25.6886364,
                "end_time": 26.075,
                "pitch": 41,
                "velocity": 64,
                "duration": 0.3863636,
                "tempo": 120.0
            },
            {
                "start_time": 26.0909091,
                "end_time": 26.475,
                "pitch": 41,
                "velocity": 64,
                "duration": 0.3840909,
                "tempo": 120.0
            },
            {
                "start_time": 26.4909091,
                "end_time": 26.875,
                "pitch": 36,
                "velocity": 64,
                "duration": 0.3840909,
                "tempo": 120.0
            },
            {
                "start_time": 26.8909091,
                "end_time": 27.2772727,
                "pitch": 36,
                "velocity": 64,
                "duration": 0.3863636,
                "tempo": 120.0
            },
            {
                "start_time": 27.2954545,
                "end_time": 27.6772727,
                "pitch": 36,
                "velocity": 64,
                "duration": 0.3818182,
                "tempo": 120.0
            },
            {
                "start_time": 27.6954545,
                "end_time": 28.0795455,
                "pitch": 36,
                "velocity": 64,
                "duration": 0.3840909,
                "tempo": 120.0
            },
            {
                "start_time": 28.0977273,
                "end_time": 28.4795455,
                "pitch": 31,
                "velocity": 64,
                "duration": 0.3818182,
                "tempo": 120.0
            },
            {
                "start_time": 28.4977273,
                "end_time": 28.8795455,
                "pitch": 31,
                "velocity": 64,
                "duration": 0.3818182,
                "tempo": 120.0
            },
            {
                "start_time": 28.8977273,
                "end_time": 29.2909091,
                "pitch": 31,
                "velocity": 64,
                "duration": 0.3931818,
                "tempo": 120.0
            },
            {
                "start_time": 29.3068182,
                "end_time": 29.6840909,
                "pitch": 31,
                "velocity": 64,
                "duration": 0.3772727,
                "tempo": 120.0
            },
            {
                "start_time": 29.7,
                "end_time": 30.0863636,
                "pitch": 37,
                "velocity": 64,
                "duration": 0.3863636,
                "tempo": 120.0
            },
            {
                "start_time": 30.1022727,
                "end_time": 30.4863636,
                "pitch": 37,
                "velocity": 64,
                "duration": 0.3840909,
                "tempo": 120.0
            },
            {
                "start_time": 30.5022727,
                "end_time": 30.8863636,
                "pitch": 37,
                "velocity": 64,
                "duration": 0.3840909,
                "tempo": 120.0
            },
            {
                "start_time": 30.9022727,
                "end_time": 31.2886364,
                "pitch": 37,
                "velocity": 64,
                "duration": 0.3863636,
                "tempo": 120.0
            },
            {
                "start_time": 31.3045455,
                "end_time": 31.6886364,
                "pitch": 36,
                "velocity": 64,
                "duration": 0.3840909,
                "tempo": 120.0
            },
            {
                "start_time": 31.7045455,
                "end_time": 32.0909091,
                "pitch": 36,
                "velocity": 64,
                "duration": 0.3863636,
                "tempo": 120.0
            },
            {
                "start_time": 32.1068182,
                "end_time": 32.4909091,
                "pitch": 36,
                "velocity": 64,
                "duration": 0.3840909,
                "tempo": 120.0
            },
            {
                "start_time": 32.5068182,
                "end_time": 32.8909091,
                "pitch": 36,
                "velocity": 64,
                "duration": 0.3840909,
                "tempo": 120.0
            }
        ],
        "Church Organ": [
            {
                "start_time": 0.0,
                "end_time": 0.3840909,
                "pitch": 48,
                "velocity": 64,
                "duration": 0.3840909,
                "tempo": 120.0
            },
            {
                "start_time": 0.4,
                "end_time": 0.7840909,
                "pitch": 48,
                "velocity": 64,
                "duration": 0.3840909,
                "tempo": 120.0
            },
            {
                "start_time": 0.8,
                "end_time": 1.1840909,
                "pitch": 53,
                "velocity": 64,
                "duration": 0.3840909,
                "tempo": 120.0
            },
            {
                "start_time": 1.2,
                "end_time": 1.5840909,
                "pitch": 53,
                "velocity": 64,
                "duration": 0.3840909,
                "tempo": 120.0
            },
            {
                "start_time": 1.6,
                "end_time": 1.9863636,
                "pitch": 53,
                "velocity": 64,
                "duration": 0.3863636,
                "tempo": 120.0
            },
            {
                "start_time": 2.0022727,
                "end_time": 2.3863636,
                "pitch": 53,
                "velocity": 64,
                "duration": 0.3840909,
                "tempo": 120.0
            },
            {
                "start_time": 2.4022727,
                "end_time": 2.7863636,
                "pitch": 50,
                "velocity": 64,
                "duration": 0.3840909,
                "tempo": 120.0
            },
            {
                "start_time": 2.8022727,
                "end_time": 3.1863636,
                "pitch": 50,
                "velocity": 64,
                "duration": 0.3840909,
                "tempo": 120.0
            },
            {
                "start_time": 3.2022727,
                "end_time": 3.5886364,
                "pitch": 50,
                "velocity": 64,
                "duration": 0.3863636,
                "tempo": 120.0
            },
            {
                "start_time": 3.6045455,
                "end_time": 3.9886364,
                "pitch": 50,
                "velocity": 64,
                "duration": 0.3840909,
                "tempo": 120.0
            },
            {
                "start_time": 4.0045455,
                "end_time": 4.3886364,
                "pitch": 46,
                "velocity": 64,
                "duration": 0.3840909,
                "tempo": 120.0
            },
            {
                "start_time": 4.4045455,
                "end_time": 4.7909091,
                "pitch": 46,
                "velocity": 64,
                "duration": 0.3863636,
                "tempo": 120.0
            },
            {
                "start_time": 4.8090909,
                "end_time": 5.1909091,
                "pitch": 48,
                "velocity": 64,
                "duration": 0.3818182,
                "tempo": 120.0
            },
            {
                "start_time": 5.2090909,
                "end_time": 5.5931818,
                "pitch": 48,
                "velocity": 64,
                "duration": 0.3840909,
                "tempo": 120.0
            },
            {
                "start_time": 5.6113636,
                "end_time": 5.9931818,
                "pitch": 53,
                "velocity": 64,
                "duration": 0.3818182,
                "tempo": 120.0
            },
            {
                "start_time": 6.0113636,
                "end_time": 6.3977273,
                "pitch": 53,
                "velocity": 64,
                "duration": 0.3863636,
                "tempo": 120.0
            },
            {
                "start_time": 6.4136364,
                "end_time": 6.8,
                "pitch": 53,
                "velocity": 64,
                "duration": 0.3863636,
                "tempo": 120.0
            },
            {
                "start_time": 6.8159091,
                "end_time": 7.2,
                "pitch": 53,
                "velocity": 64,
                "duration": 0.3840909,
                "tempo": 120.0
            },
            {
                "start_time": 7.2159091,
                "end_time": 7.6022727,
                "pitch": 49,
                "velocity": 64,
                "duration": 0.3863636,
                "tempo": 120.0
            },
            {
                "start_time": 7.6181818,
                "end_time": 8.0022727,
                "pitch": 49,
                "velocity": 64,
                "duration": 0.3840909,
                "tempo": 120.0
            },
            {
                "start_time": 8.0181818,
                "end_time": 8.4045455,
                "pitch": 49,
                "velocity": 64,
                "duration": 0.3863636,
                "tempo": 120.0
            },
            {
                "start_time": 8.4204545,
                "end_time": 8.8068182,
                "pitch": 49,
                "velocity": 64,
                "duration": 0.3863636,
                "tempo": 120.0
            },
            {
                "start_time": 8.825,
                "end_time": 9.2090909,
                "pitch": 48,
                "velocity": 64,
                "duration": 0.3840909,
                "tempo": 120.0
            },
            {
                "start_time": 9.2272727,
                "end_time": 9.6204545,
                "pitch": 48,
                "velocity": 64,
                "duration": 0.3931818,
                "tempo": 120.0
            },
            {
                "start_time": 9.6386364,
                "end_time": 10.0136364,
                "pitch": 48,
                "velocity": 64,
                "duration": 0.375,
                "tempo": 120.0
            },
            {
                "start_time": 10.0295455,
                "end_time": 10.4159091,
                "pitch": 48,
                "velocity": 64,
                "duration": 0.3863636,
                "tempo": 120.0
            },
            {
                "start_time": 10.4318182,
                "end_time": 10.8181818,
                "pitch": 53,
                "velocity": 64,
                "duration": 0.3863636,
                "tempo": 120.0
            },
            {
                "start_time": 10.8340909,
                "end_time": 11.2204545,
                "pitch": 53,
                "velocity": 64,
                "duration": 0.3863636,
                "tempo": 120.0
            },
            {
                "start_time": 11.2386364,
                "end_time": 11.6204545,
                "pitch": 53,
                "velocity": 64,
                "duration": 0.3818182,
                "tempo": 120.0
            },
            {
                "start_time": 11.6386364,
                "end_time": 12.0227273,
                "pitch": 53,
                "velocity": 64,
                "duration": 0.3840909,
                "tempo": 120.0
            },
            {
                "start_time": 12.0409091,
                "end_time": 12.4272727,
                "pitch": 50,
                "velocity": 64,
                "duration": 0.3863636,
                "tempo": 120.0
            },
            {
                "start_time": 12.4431818,
                "end_time": 12.8295455,
                "pitch": 50,
                "velocity": 64,
                "duration": 0.3863636,
                "tempo": 120.0
            },
            {
                "start_time": 12.8454545,
                "end_time": 13.2318182,
                "pitch": 50,
                "velocity": 64,
                "duration": 0.3863636,
                "tempo": 120.0
            },
            {
                "start_time": 13.2477273,
                "end_time": 13.6318182,
                "pitch": 50,
                "velocity": 64,
                "duration": 0.3840909,
                "tempo": 120.0
            },
            {
                "start_time": 13.6477273,
                "end_time": 14.0340909,
                "pitch": 46,
                "velocity": 64,
                "duration": 0.3863636,
                "tempo": 120.0
            },
            {
                "start_time": 14.0522727,
                "end_time": 14.4363636,
                "pitch": 46,
                "velocity": 64,
                "duration": 0.3840909,
                "tempo": 120.0
            },
            {
                "start_time": 14.4545455,
                "end_time": 14.8409091,
                "pitch": 48,
                "velocity": 64,
                "duration": 0.3863636,
                "tempo": 120.0
            },
            {
                "start_time": 14.8568182,
                "end_time": 15.2431818,
                "pitch": 48,
                "velocity": 64,
                "duration": 0.3863636,
                "tempo": 120.0
            },
            {
                "start_time": 15.2590909,
                "end_time": 15.6431818,
                "pitch": 53,
                "velocity": 64,
                "duration": 0.3840909,
                "tempo": 120.0
            },
            {
                "start_time": 15.6590909,
                "end_time": 16.0454545,
                "pitch": 53,
                "velocity": 64,
                "duration": 0.3863636,
                "tempo": 120.0
            },
            {
                "start_time": 16.0613636,
                "end_time": 16.4477273,
                "pitch": 53,
                "velocity": 64,
                "duration": 0.3863636,
                "tempo": 120.0
            },
            {
                "start_time": 16.4636364,
                "end_time": 16.8477273,
                "pitch": 53,
                "velocity": 64,
                "duration": 0.3840909,
                "tempo": 120.0
            },
            {
                "start_time": 16.8636364,
                "end_time": 17.25,
                "pitch": 49,
                "velocity": 64,
                "duration": 0.3863636,
                "tempo": 120.0
            },
            {
                "start_time": 17.2681818,
                "end_time": 17.65,
                "pitch": 49,
                "velocity": 64,
                "duration": 0.3818182,
                "tempo": 120.0
            },
            {
                "start_time": 17.6681818,
                "end_time": 18.0522727,
                "pitch": 49,
                "velocity": 64,
                "duration": 0.3840909,
                "tempo": 120.0
            },
            {
                "start_time": 18.0704545,
                "end_time": 18.4522727,
                "pitch": 49,
                "velocity": 64,
                "duration": 0.3818182,
                "tempo": 120.0
            },
            {
                "start_time": 18.4704545,
                "end_time": 18.8522727,
                "pitch": 48,
                "velocity": 64,
                "duration": 0.3818182,
                "tempo": 120.0
            },
            {
                "start_time": 18.8704545,
                "end_time": 19.2568182,
                "pitch": 48,
                "velocity": 64,
                "duration": 0.3863636,
                "tempo": 120.0
            },
            {
                "start_time": 19.2727273,
                "end_time": 19.6568182,
                "pitch": 48,
                "velocity": 64,
                "duration": 0.3840909,
                "tempo": 120.0
            },
            {
                "start_time": 19.6727273,
                "end_time": 20.0590909,
                "pitch": 48,
                "velocity": 64,
                "duration": 0.3863636,
                "tempo": 120.0
            },
            {
                "start_time": 20.075,
                "end_time": 20.4590909,
                "pitch": 48,
                "velocity": 64,
                "duration": 0.3840909,
                "tempo": 120.0
            },
            {
                "start_time": 20.475,
                "end_time": 20.8590909,
                "pitch": 48,
                "velocity": 64,
                "duration": 0.3840909,
                "tempo": 120.0
            },
            {
                "start_time": 20.875,
                "end_time": 21.2613636,
                "pitch": 48,
                "velocity": 64,
                "duration": 0.3863636,
                "tempo": 120.0
            },
            {
                "start_time": 21.2772727,
                "end_time": 21.6613636,
                "pitch": 48,
                "velocity": 64,
                "duration": 0.3840909,
                "tempo": 120.0
            },
            {
                "start_time": 21.6772727,
                "end_time": 22.0636364,
                "pitch": 43,
                "velocity": 64,
                "duration": 0.3863636,
                "tempo": 120.0
            },
            {
                "start_time": 22.0818182,
                "end_time": 22.4636364,
                "pitch": 43,
                "velocity": 64,
                "duration": 0.3818182,
                "tempo": 120.0
            },
            {
                "start_time": 22.4818182,
                "end_time": 22.875,
                "pitch": 43,
                "velocity": 64,
                "duration": 0.3931818,
                "tempo": 120.0
            },
            {
                "start_time": 22.8909091,
                "end_time": 23.2681818,
                "pitch": 43,
                "velocity": 64,
                "duration": 0.3772727,
                "tempo": 120.0
            },
            {
                "start_time": 23.2840909,
                "end_time": 23.6659091,
                "pitch": 49,
                "velocity": 64,
                "duration": 0.3818182,
                "tempo": 120.0
            },
            {
                "start_time": 23.6840909,
                "end_time": 24.0704545,
                "pitch": 49,
                "velocity": 64,
                "duration": 0.3863636,
                "tempo": 120.0
            },
            {
                "start_time": 24.0863636,
                "end_time": 24.4704545,
                "pitch": 49,
                "velocity": 64,
                "duration": 0.3840909,
                "tempo": 120.0
            },
            {
                "start_time": 24.4863636,
                "end_time": 24.8704545,
                "pitch": 49,
                "velocity": 64,
                "duration": 0.3840909,
                "tempo": 120.0
            },
            {
                "start_time": 24.8863636,
                "end_time": 25.2727273,
                "pitch": 53,
                "velocity": 64,
                "duration": 0.3863636,
                "tempo": 120.0
            },
            {
                "start_time": 25.2886364,
                "end_time": 25.6727273,
                "pitch": 53,
                "velocity": 64,
                "duration": 0.3840909,
                "tempo": 120.0
            },
            {
                "start_time": 25.6886364,
                "end_time": 26.075,
                "pitch": 53,
                "velocity": 64,
                "duration": 0.3863636,
                "tempo": 120.0
            },
            {
                "start_time": 26.0909091,
                "end_time": 26.475,
                "pitch": 53,
                "velocity": 64,
                "duration": 0.3840909,
                "tempo": 120.0
            },
            {
                "start_time": 26.4909091,
                "end_time": 26.875,
                "pitch": 48,
                "velocity": 64,
                "duration": 0.3840909,
                "tempo": 120.0
            },
            {
                "start_time": 26.8909091,
                "end_time": 27.2772727,
                "pitch": 48,
                "velocity": 64,
                "duration": 0.3863636,
                "tempo": 120.0
            },
            {
                "start_time": 27.2954545,
                "end_time": 27.6772727,
                "pitch": 48,
                "velocity": 64,
                "duration": 0.3818182,
                "tempo": 120.0
            },
            {
                "start_time": 27.6954545,
                "end_time": 28.0795455,
                "pitch": 48,
                "velocity": 64,
                "duration": 0.3840909,
                "tempo": 120.0
            },
            {
                "start_time": 28.0977273,
                "end_time": 28.4795455,
                "pitch": 43,
                "velocity": 64,
                "duration": 0.3818182,
                "tempo": 120.0
            },
            {
                "start_time": 28.4977273,
                "end_time": 28.8795455,
                "pitch": 43,
                "velocity": 64,
                "duration": 0.3818182,
                "tempo": 120.0
            },
            {
                "start_time": 28.8977273,
                "end_time": 29.2909091,
                "pitch": 43,
                "velocity": 64,
                "duration": 0.3931818,
                "tempo": 120.0
            },
            {
                "start_time": 29.3068182,
                "end_time": 29.6840909,
                "pitch": 43,
                "velocity": 64,
                "duration": 0.3772727,
                "tempo": 120.0
            },
            {
                "start_time": 29.7,
                "end_time": 30.0863636,
                "pitch": 49,
                "velocity": 64,
                "duration": 0.3863636,
                "tempo": 120.0
            },
            {
                "start_time": 30.1022727,
                "end_time": 30.4863636,
                "pitch": 49,
                "velocity": 64,
                "duration": 0.3840909,
                "tempo": 120.0
            },
            {
                "start_time": 30.5022727,
                "end_time": 30.8863636,
                "pitch": 49,
                "velocity": 64,
                "duration": 0.3840909,
                "tempo": 120.0
            },
            {
                "start_time": 30.9022727,
                "end_time": 31.2886364,
                "pitch": 49,
                "velocity": 64,
                "duration": 0.3863636,
                "tempo": 120.0
            },
            {
                "start_time": 31.3045455,
                "end_time": 31.6886364,
                "pitch": 48,
                "velocity": 64,
                "duration": 0.3840909,
                "tempo": 120.0
            },
            {
                "start_time": 31.7045455,
                "end_time": 32.0909091,
                "pitch": 48,
                "velocity": 64,
                "duration": 0.3863636,
                "tempo": 120.0
            },
            {
                "start_time": 32.1068182,
                "end_time": 32.4909091,
                "pitch": 48,
                "velocity": 64,
                "duration": 0.3840909,
                "tempo": 120.0
            },
            {
                "start_time": 32.5068182,
                "end_time": 32.8909091,
                "pitch": 48,
                "velocity": 64,
                "duration": 0.3840909,
                "tempo": 120.0
            }
        ],
        "French Horn": [
            {
                "start_time": 0.0,
                "end_time": 0.1840909,
                "pitch": 60,
                "velocity": 51,
                "duration": 0.1840909,
                "tempo": 120.0
            },
            {
                "start_time": 0.2,
                "end_time": 0.3840909,
                "pitch": 65,
                "velocity": 51,
                "duration": 0.1840909,
                "tempo": 120.0
            },
            {
                "start_time": 0.4,
                "end_time": 0.5840909,
                "pitch": 64,
                "velocity": 51,
                "duration": 0.1840909,
                "tempo": 120.0
            },
            {
                "start_time": 0.6,
                "end_time": 0.7840909,
                "pitch": 65,
                "velocity": 51,
                "duration": 0.1840909,
                "tempo": 120.0
            },
            {
                "start_time": 0.8,
                "end_time": 1.7840909,
                "pitch": 68,
                "velocity": 51,
                "duration": 0.9840909,
                "tempo": 120.0
            },
            {
                "start_time": 1.8022727,
                "end_time": 1.9863636,
                "pitch": 67,
                "velocity": 51,
                "duration": 0.1840909,
                "tempo": 120.0
            },
            {
                "start_time": 2.0022727,
                "end_time": 2.1863636,
                "pitch": 65,
                "velocity": 51,
                "duration": 0.1840909,
                "tempo": 120.0
            },
            {
                "start_time": 2.2022727,
                "end_time": 2.3863636,
                "pitch": 63,
                "velocity": 51,
                "duration": 0.1840909,
                "tempo": 120.0
            },
            {
                "start_time": 2.4022727,
                "end_time": 3.7886364,
                "pitch": 62,
                "velocity": 51,
                "duration": 1.3863636,
                "tempo": 120.0
            },
            {
                "start_time": 3.8045455,
                "end_time": 3.9886364,
                "pitch": 58,
                "velocity": 51,
                "duration": 0.1840909,
                "tempo": 120.0
            },
            {
                "start_time": 4.0045455,
                "end_time": 4.7909091,
                "pitch": 58,
                "velocity": 51,
                "duration": 0.7863636,
                "tempo": 120.0
            },
            {
                "start_time": 4.8090909,
                "end_time": 4.9909091,
                "pitch": 60,
                "velocity": 51,
                "duration": 0.1818182,
                "tempo": 120.0
            },
            {
                "start_time": 5.0090909,
                "end_time": 5.1909091,
                "pitch": 65,
                "velocity": 51,
                "duration": 0.1818182,
                "tempo": 120.0
            },
            {
                "start_time": 5.2090909,
                "end_time": 5.3931818,
                "pitch": 64,
                "velocity": 51,
                "duration": 0.1840909,
                "tempo": 120.0
            },
            {
                "start_time": 5.4090909,
                "end_time": 5.5931818,
                "pitch": 65,
                "velocity": 51,
                "duration": 0.1840909,
                "tempo": 120.0
            },
            {
                "start_time": 5.6113636,
                "end_time": 6.5977273,
                "pitch": 68,
                "velocity": 51,
                "duration": 0.9863636,
                "tempo": 120.0
            },
            {
                "start_time": 6.6136364,
                "end_time": 6.8,
                "pitch": 67,
                "velocity": 51,
                "duration": 0.1863636,
                "tempo": 120.0
            },
            {
                "start_time": 6.8159091,
                "end_time": 7.0,
                "pitch": 68,
                "velocity": 51,
                "duration": 0.1840909,
                "tempo": 120.0
            },
            {
                "start_time": 7.0159091,
                "end_time": 7.2,
                "pitch": 70,
                "velocity": 51,
                "duration": 0.1840909,
                "tempo": 120.0
            },
            {
                "start_time": 7.2159091,
                "end_time": 8.4045455,
                "pitch": 73,
                "velocity": 51,
                "duration": 1.1886364,
                "tempo": 120.0
            },
            {
                "start_time": 8.4204545,
                "end_time": 8.6068182,
                "pitch": 75,
                "velocity": 51,
                "duration": 0.1863636,
                "tempo": 120.0
            },
            {
                "start_time": 8.6227273,
                "end_time": 8.8068182,
                "pitch": 73,
                "velocity": 51,
                "duration": 0.1840909,
                "tempo": 120.0
            },
            {
                "start_time": 8.825,
                "end_time": 9.6204545,
                "pitch": 72,
                "velocity": 51,
                "duration": 0.7954545,
                "tempo": 120.0
            },
            {
                "start_time": 9.6386364,
                "end_time": 9.8181818,
                "pitch": 60,
                "velocity": 51,
                "duration": 0.1795455,
                "tempo": 120.0
            },
            {
                "start_time": 9.8340909,
                "end_time": 10.0136364,
                "pitch": 65,
                "velocity": 51,
                "duration": 0.1795455,
                "tempo": 120.0
            },
            {
                "start_time": 10.0295455,
                "end_time": 10.2136364,
                "pitch": 64,
                "velocity": 51,
                "duration": 0.1840909,
                "tempo": 120.0
            },
            {
                "start_time": 10.2318182,
                "end_time": 10.4159091,
                "pitch": 65,
                "velocity": 51,
                "duration": 0.1840909,
                "tempo": 120.0
            },
            {
                "start_time": 10.4318182,
                "end_time": 11.4204545,
                "pitch": 68,
                "velocity": 51,
                "duration": 0.9886364,
                "tempo": 120.0
            },
            {
                "start_time": 11.4386364,
                "end_time": 11.6204545,
                "pitch": 67,
                "velocity": 51,
                "duration": 0.1818182,
                "tempo": 120.0
            },
            {
                "start_time": 11.6386364,
                "end_time": 11.8227273,
                "pitch": 65,
                "velocity": 51,
                "duration": 0.1840909,
                "tempo": 120.0
            },
            {
                "start_time": 11.8386364,
                "end_time": 12.0227273,
                "pitch": 63,
                "velocity": 51,
                "duration": 0.1840909,
                "tempo": 120.0
            },
            {
                "start_time": 12.0409091,
                "end_time": 13.4318182,
                "pitch": 62,
                "velocity": 51,
                "duration": 1.3909091,
                "tempo": 120.0
            },
            {
                "start_time": 13.4477273,
                "end_time": 13.6318182,
                "pitch": 58,
                "velocity": 51,
                "duration": 0.1840909,
                "tempo": 120.0
            },
            {
                "start_time": 13.6477273,
                "end_time": 14.4363636,
                "pitch": 58,
                "velocity": 51,
                "duration": 0.7886364,
                "tempo": 120.0
            },
            {
                "start_time": 14.4545455,
                "end_time": 14.6386364,
                "pitch": 60,
                "velocity": 51,
                "duration": 0.1840909,
                "tempo": 120.0
            },
            {
                "start_time": 14.6545455,
                "end_time": 14.8409091,
                "pitch": 65,
                "velocity": 51,
                "duration": 0.1863636,
                "tempo": 120.0
            },
            {
                "start_time": 14.8568182,
                "end_time": 15.0409091,
                "pitch": 64,
                "velocity": 51,
                "duration": 0.1840909,
                "tempo": 120.0
            },
            {
                "start_time": 15.0568182,
                "end_time": 15.2431818,
                "pitch": 65,
                "velocity": 51,
                "duration": 0.1863636,
                "tempo": 120.0
            },
            {
                "start_time": 15.2590909,
                "end_time": 16.2454545,
                "pitch": 68,
                "velocity": 51,
                "duration": 0.9863636,
                "tempo": 120.0
            },
            {
                "start_time": 16.2636364,
                "end_time": 16.4477273,
                "pitch": 67,
                "velocity": 51,
                "duration": 0.1840909,
                "tempo": 120.0
            },
            {
                "start_time": 16.4636364,
                "end_time": 16.6477273,
                "pitch": 68,
                "velocity": 51,
                "duration": 0.1840909,
                "tempo": 120.0
            },
            {
                "start_time": 16.6636364,
                "end_time": 16.8477273,
                "pitch": 70,
                "velocity": 51,
                "duration": 0.1840909,
                "tempo": 120.0
            },
            {
                "start_time": 16.8636364,
                "end_time": 18.0522727,
                "pitch": 73,
                "velocity": 51,
                "duration": 1.1886364,
                "tempo": 120.0
            },
            {
                "start_time": 18.0704545,
                "end_time": 18.2522727,
                "pitch": 75,
                "velocity": 51,
                "duration": 0.1818182,
                "tempo": 120.0
            },
            {
                "start_time": 18.2704545,
                "end_time": 18.4522727,
                "pitch": 73,
                "velocity": 51,
                "duration": 0.1818182,
                "tempo": 120.0
            },
            {
                "start_time": 18.4704545,
                "end_time": 19.2568182,
                "pitch": 72,
                "velocity": 51,
                "duration": 0.7863636,
                "tempo": 120.0
            }
        ],
        "Lead 2 (sawtooth)": [
            {
                "start_time": 19.2727273,
                "end_time": 19.4568182,
                "pitch": 80,
                "velocity": 51,
                "duration": 0.1840909,
                "tempo": 120.0
            },
            {
                "start_time": 19.4727273,
                "end_time": 19.8568182,
                "pitch": 79,
                "velocity": 51,
                "duration": 0.3840909,
                "tempo": 120.0
            },
            {
                "start_time": 19.875,
                "end_time": 20.0590909,
                "pitch": 77,
                "velocity": 51,
                "duration": 0.1840909,
                "tempo": 120.0
            },
            {
                "start_time": 20.075,
                "end_time": 21.2613636,
                "pitch": 76,
                "velocity": 51,
                "duration": 1.1863636,
                "tempo": 120.0
            },
            {
                "start_time": 21.2772727,
                "end_time": 21.6613636,
                "pitch": 77,
                "velocity": 51,
                "duration": 0.3840909,
                "tempo": 120.0
            },
            {
                "start_time": 21.6772727,
                "end_time": 22.4636364,
                "pitch": 79,
                "velocity": 51,
                "duration": 0.7863636,
                "tempo": 120.0
            },
            {
                "start_time": 22.4818182,
                "end_time": 22.6681818,
                "pitch": 79,
                "velocity": 51,
                "duration": 0.1863636,
                "tempo": 120.0
            },
            {
                "start_time": 22.6863636,
                "end_time": 23.0704545,
                "pitch": 77,
                "velocity": 51,
                "duration": 0.3840909,
                "tempo": 120.0
            },
            {
                "start_time": 23.0886364,
                "end_time": 23.2681818,
                "pitch": 75,
                "velocity": 51,
                "duration": 0.1795455,
                "tempo": 120.0
            },
            {
                "start_time": 23.2840909,
                "end_time": 24.4704545,
                "pitch": 73,
                "velocity": 51,
                "duration": 1.1863636,
                "tempo": 120.0
            },
            {
                "start_time": 24.4863636,
                "end_time": 24.8704545,
                "pitch": 80,
                "velocity": 51,
                "duration": 0.3840909,
                "tempo": 120.0
            },
            {
                "start_time": 24.8863636,
                "end_time": 25.6727273,
                "pitch": 77,
                "velocity": 51,
                "duration": 0.7863636,
                "tempo": 120.0
            },
            {
                "start_time": 25.6886364,
                "end_time": 25.8727273,
                "pitch": 80,
                "velocity": 51,
                "duration": 0.1840909,
                "tempo": 120.0
            },
            {
                "start_time": 25.8909091,
                "end_time": 26.275,
                "pitch": 79,
                "velocity": 51,
                "duration": 0.3840909,
                "tempo": 120.0
            },
            {
                "start_time": 26.2909091,
                "end_time": 26.475,
                "pitch": 77,
                "velocity": 51,
                "duration": 0.1840909,
                "tempo": 120.0
            },
            {
                "start_time": 26.4909091,
                "end_time": 27.6772727,
                "pitch": 76,
                "velocity": 51,
                "duration": 1.1863636,
                "tempo": 120.0
            },
            {
                "start_time": 27.6954545,
                "end_time": 28.0795455,
                "pitch": 77,
                "velocity": 51,
                "duration": 0.3840909,
                "tempo": 120.0
            },
            {
                "start_time": 28.0977273,
                "end_time": 28.8795455,
                "pitch": 79,
                "velocity": 51,
                "duration": 0.7818182,
                "tempo": 120.0
            },
            {
                "start_time": 28.8977273,
                "end_time": 29.6840909,
                "pitch": 72,
                "velocity": 51,
                "duration": 0.7863636,
                "tempo": 120.0
            },
            {
                "start_time": 29.7,
                "end_time": 30.8863636,
                "pitch": 73,
                "velocity": 51,
                "duration": 1.1863636,
                "tempo": 120.0
            }
        ],
        "Harpsichord": [
            {
                "start_time": 30.9022727,
                "end_time": 31.2886364,
                "pitch": 75,
                "velocity": 51,
                "duration": 0.3863636,
                "tempo": 120.0
            },
            {
                "start_time": 31.3045455,
                "end_time": 32.0909091,
                "pitch": 76,
                "velocity": 51,
                "duration": 0.7863636,
                "tempo": 120.0
            },
            {
                "start_time": 32.1068182,
                "end_time": 32.2909091,
                "pitch": 60,
                "velocity": 51,
                "duration": 0.1840909,
                "tempo": 120.0
            },
            {
                "start_time": 32.3068182,
                "end_time": 32.4909091,
                "pitch": 65,
                "velocity": 51,
                "duration": 0.1840909,
                "tempo": 120.0
            },
            {
                "start_time": 32.5068182,
                "end_time": 32.6909091,
                "pitch": 64,
                "velocity": 51,
                "duration": 0.1840909,
                "tempo": 120.0
            },
            {
                "start_time": 32.7068182,
                "end_time": 32.8909091,
                "pitch": 65,
                "velocity": 51,
                "duration": 0.1840909,
                "tempo": 120.0
            }
        ],
        "Vibraphone": [
            {
                "start_time": 0.8,
                "end_time": 1.7840909,
                "pitch": 65,
                "velocity": 51,
                "duration": 0.9840909,
                "tempo": 120.0
            },
            {
                "start_time": 1.8022727,
                "end_time": 1.9863636,
                "pitch": 63,
                "velocity": 51,
                "duration": 0.1840909,
                "tempo": 120.0
            },
            {
                "start_time": 2.0022727,
                "end_time": 2.1863636,
                "pitch": 62,
                "velocity": 51,
                "duration": 0.1840909,
                "tempo": 120.0
            },
            {
                "start_time": 2.2022727,
                "end_time": 2.3863636,
                "pitch": 60,
                "velocity": 51,
                "duration": 0.1840909,
                "tempo": 120.0
            },
            {
                "start_time": 2.4022727,
                "end_time": 3.7886364,
                "pitch": 58,
                "velocity": 51,
                "duration": 1.3863636,
                "tempo": 120.0
            },
            {
                "start_time": 3.8045455,
                "end_time": 3.9886364,
                "pitch": 53,
                "velocity": 51,
                "duration": 0.1840909,
                "tempo": 120.0
            },
            {
                "start_time": 4.0045455,
                "end_time": 4.6909091,
                "pitch": 53,
                "velocity": 51,
                "duration": 0.6863636,
                "tempo": 120.0
            },
            {
                "start_time": 5.6113636,
                "end_time": 6.5977273,
                "pitch": 65,
                "velocity": 51,
                "duration": 0.9863636,
                "tempo": 120.0
            },
            {
                "start_time": 6.6136364,
                "end_time": 6.8,
                "pitch": 63,
                "velocity": 51,
                "duration": 0.1863636,
                "tempo": 120.0
            },
            {
                "start_time": 6.8159091,
                "end_time": 7.0,
                "pitch": 65,
                "velocity": 51,
                "duration": 0.1840909,
                "tempo": 120.0
            },
            {
                "start_time": 7.0159091,
                "end_time": 7.2,
                "pitch": 67,
                "velocity": 51,
                "duration": 0.1840909,
                "tempo": 120.0
            },
            {
                "start_time": 7.2159091,
                "end_time": 8.4045455,
                "pitch": 68,
                "velocity": 51,
                "duration": 1.1886364,
                "tempo": 120.0
            },
            {
                "start_time": 8.4204545,
                "end_time": 8.6068182,
                "pitch": 70,
                "velocity": 51,
                "duration": 0.1863636,
                "tempo": 120.0
            },
            {
                "start_time": 8.6227273,
                "end_time": 8.8068182,
                "pitch": 68,
                "velocity": 51,
                "duration": 0.1840909,
                "tempo": 120.0
            },
            {
                "start_time": 8.825,
                "end_time": 9.6204545,
                "pitch": 67,
                "velocity": 51,
                "duration": 0.7954545,
                "tempo": 120.0
            },
            {
                "start_time": 10.4318182,
                "end_time": 11.4204545,
                "pitch": 65,
                "velocity": 51,
                "duration": 0.9886364,
                "tempo": 120.0
            },
            {
                "start_time": 11.4386364,
                "end_time": 11.6204545,
                "pitch": 63,
                "velocity": 51,
                "duration": 0.1818182,
                "tempo": 120.0
            },
            {
                "start_time": 11.6386364,
                "end_time": 11.8227273,
                "pitch": 62,
                "velocity": 51,
                "duration": 0.1840909,
                "tempo": 120.0
            },
            {
                "start_time": 11.8386364,
                "end_time": 12.0227273,
                "pitch": 60,
                "velocity": 51,
                "duration": 0.1840909,
                "tempo": 120.0
            },
            {
                "start_time": 12.0409091,
                "end_time": 13.4318182,
                "pitch": 58,
                "velocity": 51,
                "duration": 1.3909091,
                "tempo": 120.0
            },
            {
                "start_time": 13.4477273,
                "end_time": 13.6318182,
                "pitch": 53,
                "velocity": 51,
                "duration": 0.1840909,
                "tempo": 120.0
            },
            {
                "start_time": 13.6477273,
                "end_time": 14.3363636,
                "pitch": 53,
                "velocity": 51,
                "duration": 0.6886364,
                "tempo": 120.0
            },
            {
                "start_time": 15.2590909,
                "end_time": 16.2454545,
                "pitch": 65,
                "velocity": 51,
                "duration": 0.9863636,
                "tempo": 120.0
            },
            {
                "start_time": 16.2636364,
                "end_time": 16.4477273,
                "pitch": 63,
                "velocity": 51,
                "duration": 0.1840909,
                "tempo": 120.0
            },
            {
                "start_time": 16.4636364,
                "end_time": 16.6477273,
                "pitch": 65,
                "velocity": 51,
                "duration": 0.1840909,
                "tempo": 120.0
            },
            {
                "start_time": 16.6636364,
                "end_time": 16.8477273,
                "pitch": 67,
                "velocity": 51,
                "duration": 0.1840909,
                "tempo": 120.0
            },
            {
                "start_time": 16.8636364,
                "end_time": 18.0522727,
                "pitch": 68,
                "velocity": 51,
                "duration": 1.1886364,
                "tempo": 120.0
            },
            {
                "start_time": 18.0704545,
                "end_time": 18.2522727,
                "pitch": 70,
                "velocity": 51,
                "duration": 0.1818182,
                "tempo": 120.0
            },
            {
                "start_time": 18.2704545,
                "end_time": 18.4522727,
                "pitch": 68,
                "velocity": 51,
                "duration": 0.1818182,
                "tempo": 120.0
            },
            {
                "start_time": 18.4704545,
                "end_time": 19.2568182,
                "pitch": 67,
                "velocity": 51,
                "duration": 0.7863636,
                "tempo": 120.0
            },
            {
                "start_time": 19.2727273,
                "end_time": 20.0590909,
                "pitch": 65,
                "velocity": 51,
                "duration": 0.7863636,
                "tempo": 120.0
            },
            {
                "start_time": 20.075,
                "end_time": 21.6613636,
                "pitch": 72,
                "velocity": 51,
                "duration": 1.5863636,
                "tempo": 120.0
            },
            {
                "start_time": 21.6772727,
                "end_time": 23.2681818,
                "pitch": 75,
                "velocity": 51,
                "duration": 1.5909091,
                "tempo": 120.0
            },
            {
                "start_time": 23.2840909,
                "end_time": 24.8704545,
                "pitch": 73,
                "velocity": 51,
                "duration": 1.5863636,
                "tempo": 120.0
            },
            {
                "start_time": 24.8863636,
                "end_time": 26.475,
                "pitch": 73,
                "velocity": 51,
                "duration": 1.5886364,
                "tempo": 120.0
            },
            {
                "start_time": 26.4909091,
                "end_time": 28.0795455,
                "pitch": 72,
                "velocity": 51,
                "duration": 1.5886364,
                "tempo": 120.0
            },
            {
                "start_time": 28.0977273,
                "end_time": 29.6840909,
                "pitch": 70,
                "velocity": 51,
                "duration": 1.5863636,
                "tempo": 120.0
            },
            {
                "start_time": 29.7,
                "end_time": 30.4863636,
                "pitch": 73,
                "velocity": 51,
                "duration": 0.7863636,
                "tempo": 120.0
            }
        ]
    }
}