{
    "mood": "angry",
    "instruments": {
        "Harpsichord": [
            {
                "start_time": 0.0,
                "end_time": 0.1840909,
                "pitch": 63,
                "velocity": 80,
                "duration": 0.1840909,
                "tempo": 120.0
            },
            {
                "start_time": 0.2,
                "end_time": 0.3840909,
                "pitch": 60,
                "velocity": 80,
                "duration": 0.1840909,
                "tempo": 120.0
            },
            {
                "start_time": 0.4,
                "end_time": 0.5795455,
                "pitch": 67,
                "velocity": 80,
                "duration": 0.1795455,
                "tempo": 120.0
            },
            {
                "start_time": 0.5954545,
                "end_time": 0.775,
                "pitch": 60,
                "velocity": 80,
                "duration": 0.1795455,
                "tempo": 120.0
            },
            {
                "start_time": 0.7909091,
                "end_time": 0.9795455,
                "pitch": 66,
                "velocity": 80,
                "duration": 0.1886364,
                "tempo": 120.0
            },
            {
                "start_time": 0.9977273,
                "end_time": 1.1863636,
                "pitch": 60,
                "velocity": 80,
                "duration": 0.1886364,
                "tempo": 120.0
            },
            {
                "start_time": 1.2022727,
                "end_time": 1.3863636,
                "pitch": 65,
                "velocity": 80,
                "duration": 0.1840909,
                "tempo": 120.0
            },
            {
                "start_time": 1.4022727,
                "end_time": 1.5863636,
                "pitch": 63,
                "velocity": 80,
                "duration": 0.1840909,
                "tempo": 120.0
            },
            {
                "start_time": 1.6022727,
                "end_time": 1.7863636,
                "pitch": 63,
                "velocity": 80,
                "duration": 0.1840909,
                "tempo": 120.0
            },
            {
                "start_time": 1.8045455,
                "end_time": 1.9886364,
                "pitch": 60,
                "velocity": 80,
                "duration": 0.1840909,
                "tempo": 120.0
            },
            {
                "start_time": 2.0045455,
                "end_time": 2.1886364,
                "pitch": 67,
                "velocity": 80,
                "duration": 0.1840909,
                "tempo": 120.0
            },
            {
                "start_time": 2.2045455,
                "end_time": 2.3886364,
                "pitch": 60,
                "velocity": 80,
                "duration": 0.1840909,
                "tempo": 120.0
            },
            {
                "start_time": 2.4045455,
                "end_time": 2.5886364,
                "pitch": 65,
                "velocity": 80,
                "duration": 0.1840909,
                "tempo": 120.0
            },
            {
                "start_time": 2.6045455,
                "end_time": 2.7886364,
                "pitch": 60,
                "velocity": 80,
                "duration": 0.1840909,
                "tempo": 120.0
            },
            {
                "start_time": 2.8045455,
                "end_time": 2.9886364,
                "pitch": 63,
                "velocity": 80,
                "duration": 0.1840909,
                "tempo": 120.0
            },
            {
                "start_time": 3.0045455,
                "end_time": 3.1886364,
                "pitch": 60,
                "velocity": 80,
                "duration": 0.1840909,
                "tempo": 120.0
            },
            {
                "start_time": 3.2045455,
                "end_time": 3.3909091,
                "pitch": 63,
                "velocity": 80,
                "duration": 0.1863636,
                "tempo": 120.0
            },
            {
                "start_time": 3.4068182,
                "end_time": 3.5909091,
                "pitch": 60,
                "velocity": 80,
                "duration": 0.1840909,
                "tempo": 120.0
            },
            {
                "start_time": 3.6090909,
                "end_time": 3.7909091,
                "pitch": 63,
                "velocity": 80,
                "duration": 0.1818182,
                "tempo": 120.0
            },
            {
                "start_time": 3.8090909,
                "end_time": 3.9909091,
                "pitch": 65,
                "velocity": 80,
                "duration": 0.1818182,
                "tempo": 120.0
            },
            {
                "start_time": 4.0090909,
                "end_time": 4.1909091,
                "pitch": 67,
                "velocity": 80,
                "duration": 0.1818182,
                "tempo": 120.0
            },
            {
                "start_time": 4.2090909,
                "end_time": 4.3909091,
                "pitch": 65,
                "velocity": 80,
                "duration": 0.1818182,
                "tempo": 120.0
            },
            {
                "start_time": 4.4090909,
                "end_time": 4.5931818,
                "pitch": 63,
                "velocity": 80,
                "duration": 0.1840909,
                "tempo": 120.0
            },
            {
                "start_time": 4.6090909,
                "end_time": 4.7931818,
                "pitch": 60,
                "velocity": 80,
                "duration": 0.1840909,
                "tempo": 120.0
            },
            {
                "start_time": 4.8113636,
                "end_time": 5.1931818,
                "pitch": 68,
                "velocity": 80,
                "duration": 0.3818182,
                "tempo": 120.0
            },
            {
                "start_time": 5.2113636,
                "end_time": 5.3954545,
                "pitch": 67,
                "velocity": 80,
                "duration": 0.1840909,
                "tempo": 120.0
            },
            {
                "start_time": 5.4113636,
                "end_time": 5.5977273,
                "pitch": 68,
                "velocity": 80,
                "duration": 0.1863636,
                "tempo": 120.0
            },
            {
                "start_time": 5.6136364,
                "end_time": 6.4,
                "pitch": 70,
                "velocity": 80,
                "duration": 0.7863636,
                "tempo": 120.0
            },
            {
                "start_time": 6.4159091,
                "end_time": 6.6,
                "pitch": 63,
                "velocity": 80,
                "duration": 0.1840909,
                "tempo": 120.0
            },
            {
                "start_time": 6.6181818,
                "end_time": 6.8022727,
                "pitch": 60,
                "velocity": 80,
                "duration": 0.1840909,
                "tempo": 120.0
            },
            {
                "start_time": 6.8181818,
                "end_time": 6.9977273,
                "pitch": 67,
                "velocity": 80,
                "duration": 0.1795455,
                "tempo": 120.0
            },
            {
                "start_time": 7.0159091,
                "end_time": 7.1954545,
                "pitch": 60,
                "velocity": 80,
                "duration": 0.1795455,
                "tempo": 120.0
            },
            {
                "start_time": 7.2113636,
                "end_time": 7.4,
                "pitch": 66,
                "velocity": 80,
                "duration": 0.1886364,
                "tempo": 120.0
            },
            {
                "start_time": 7.4159091,
                "end_time": 7.6045455,
                "pitch": 60,
                "velocity": 80,
                "duration": 0.1886364,
                "tempo": 120.0
            },
            {
                "start_time": 7.6227273,
                "end_time": 7.8045455,
                "pitch": 65,
                "velocity": 80,
                "duration": 0.1818182,
                "tempo": 120.0
            },
            {
                "start_time": 7.8227273,
                "end_time": 8.0045455,
                "pitch": 63,
                "velocity": 80,
                "duration": 0.1818182,
                "tempo": 120.0
            },
            {
                "start_time": 8.0227273,
                "end_time": 8.2068182,
                "pitch": 63,
                "velocity": 80,
                "duration": 0.1840909,
                "tempo": 120.0
            },
            {
                "start_time": 8.2227273,
                "end_time": 8.4068182,
                "pitch": 60,
                "velocity": 80,
                "duration": 0.1840909,
                "tempo": 120.0
            },
            {
                "start_time": 8.425,
                "end_time": 8.6090909,
                "pitch": 67,
                "velocity": 80,
                "duration": 0.1840909,
                "tempo": 120.0
            },
            {
                "start_time": 8.625,
                "end_time": 8.8113636,
                "pitch": 60,
                "velocity": 80,
                "duration": 0.1863636,
                "tempo": 120.0
            },
            {
                "start_time": 8.8272727,
                "end_time": 9.0113636,
                "pitch": 65,
                "velocity": 80,
                "duration": 0.1840909,
                "tempo": 120.0
            },
            {
                "start_time": 9.0295455,
                "end_time": 9.2136364,
                "pitch": 60,
                "velocity": 80,
                "duration": 0.1840909,
                "tempo": 120.0
            },
            {
                "start_time": 9.2295455,
                "end_time": 9.4136364,
                "pitch": 63,
                "velocity": 80,
                "duration": 0.1840909,
                "tempo": 120.0
            },
            {
                "start_time": 9.4295455,
                "end_time": 9.6136364,
                "pitch": 60,
                "velocity": 80,
                "duration": 0.1840909,
                "tempo": 120.0
            },
            {
                "start_time": 9.6295455,
                "end_time": 9.8136364,
                "pitch": 63,
                "velocity": 80,
                "duration": 0.1840909,
                "tempo": 120.0
            },
            {
                "start_time": 9.8318182,
                "end_time": 10.0159091,
                "pitch": 60,
                "velocity": 80,
                "duration": 0.1840909,
                "tempo": 120.0
            },
            {
                "start_time": 10.0318182,
                "end_time": 10.2181818,
                "pitch": 63,
                "velocity": 80,
                "duration": 0.1863636,
                "tempo": 120.0
            },
            {
                "start_time": 10.2340909,
                "end_time": 10.4181818,
                "pitch": 65,
                "velocity": 80,
                "duration": 0.1840909,
                "tempo": 120.0
            },
            {
                "start_time": 10.4363636,
                "end_time": 10.6204545,
                "pitch": 67,
                "velocity": 80,
                "duration": 0.1840909,
                "tempo": 120.0
            },
            {
                "start_time": 10.6363636,
                "end_time": 10.8204545,
                "pitch": 65,
                "velocity": 80,
                "duration": 0.1840909,
                "tempo": 120.0
            },
            {
                "start_time": 10.8386364,
                "end_time": 11.0181818,
                "pitch": 63,
                "velocity": 80,
                "duration": 0.1795455,
                "tempo": 120.0
            },
            {
                "start_time": 11.0340909,
                "end_time": 11.2136364,
                "pitch": 60,
                "velocity": 80,
                "duration": 0.1795455,
                "tempo": 120.0
            },
            {
                "start_time": 11.2295455,
                "end_time": 11.6227273,
                "pitch": 68,
                "velocity": 80,
                "duration": 0.3931818,
                "tempo": 120.0
            },
            {
                "start_time": 11.6409091,
                "end_time": 11.825,
                "pitch": 70,
                "velocity": 80,
                "duration": 0.1840909,
                "tempo": 120.0
            },
            {
                "start_time": 11.8431818,
                "end_time": 12.0272727,
                "pitch": 68,
                "velocity": 80,
                "duration": 0.1840909,
                "tempo": 120.0
            },
            {
                "start_time": 12.0431818,
                "end_time": 12.8318182,
                "pitch": 67,
                "velocity": 80,
                "duration": 0.7886364,
                "tempo": 120.0
            }
        ],
        "Lead 2 (sawtooth)": [
            {
                "start_time": 12.85,
                "end_time": 13.0340909,
                "pitch": 60,
                "velocity": 80,
                "duration": 0.1840909,
                "tempo": 120.0
            },
            {
                "start_time": 13.05,
                "end_time": 13.2340909,
                "pitch": 60,
                "velocity": 80,
                "duration": 0.1840909,
                "tempo": 120.0
            },
            {
                "start_time": 13.2522727,
                "end_time": 13.4340909,
                "pitch": 60,
                "velocity": 80,
                "duration": 0.1818182,
                "tempo": 120.0
            },
            {
                "start_time": 13.4522727,
                "end_time": 14.0272727,
                "pitch": 62,
                "velocity": 80,
                "duration": 0.575,
                "tempo": 120.0
            },
            {
                "start_time": 14.0431818,
                "end_time": 15.2431818,
                "pitch": 58,
                "velocity": 80,
                "duration": 1.2,
                "tempo": 120.0
            },
            {
                "start_time": 15.2590909,
                "end_time": 15.6431818,
                "pitch": 57,
                "velocity": 80,
                "duration": 0.3840909,
                "tempo": 120.0
            },
            {
                "start_time": 15.6590909,
                "end_time": 16.0454545,
                "pitch": 58,
                "velocity": 80,
                "duration": 0.3863636,
                "tempo": 120.0
            },
            {
                "start_time": 16.0636364,
                "end_time": 16.2477273,
                "pitch": 60,
                "velocity": 80,
                "duration": 0.1840909,
                "tempo": 120.0
            },
            {
                "start_time": 16.2636364,
                "end_time": 16.4477273,
                "pitch": 60,
                "velocity": 80,
                "duration": 0.1840909,
                "tempo": 120.0
            },
            {
                "start_time": 16.4659091,
                "end_time": 16.6477273,
                "pitch": 60,
                "velocity": 80,
                "duration": 0.1818182,
                "tempo": 120.0
            },
            {
                "start_time": 16.6659091,
                "end_time": 17.2409091,
                "pitch": 62,
                "velocity": 80,
                "duration": 0.575,
                "tempo": 120.0
            },
            {
                "start_time": 17.2568182,
                "end_time": 18.6545455,
                "pitch": 63,
                "velocity": 80,
                "duration": 1.3977273,
                "tempo": 120.0
            },
            {
                "start_time": 18.6704545,
                "end_time": 18.8545455,
                "pitch": 67,
                "velocity": 80,
                "duration": 0.1840909,
                "tempo": 120.0
            },
            {
                "start_time": 18.8704545,
                "end_time": 19.0545455,
                "pitch": 65,
                "velocity": 80,
                "duration": 0.1840909,
                "tempo": 120.0
            },
            {
                "start_time": 19.0727273,
                "end_time": 19.2568182,
                "pitch": 63,
                "velocity": 80,
                "duration": 0.1840909,
                "tempo": 120.0
            },
            {
                "start_time": 19.2727273,
                "end_time": 19.4568182,
                "pitch": 60,
                "velocity": 80,
                "duration": 0.1840909,
                "tempo": 120.0
            },
            {
                "start_time": 19.4727273,
                "end_time": 19.6568182,
                "pitch": 60,
                "velocity": 80,
                "duration": 0.1840909,
                "tempo": 120.0
            },
            {
                "start_time": 19.6727273,
                "end_time": 19.8590909,
                "pitch": 60,
                "velocity": 80,
                "duration": 0.1863636,
                "tempo": 120.0
            },
            {
                "start_time": 19.875,
                "end_time": 20.4522727,
                "pitch": 62,
                "velocity": 80,
                "duration": 0.5772727,
                "tempo": 120.0
            },
            {
                "start_time": 20.4681818,
                "end_time": 21.6659091,
                "pitch": 58,
                "velocity": 80,
                "duration": 1.1977273,
                "tempo": 120.0
            },
            {
                "start_time": 21.6818182,
                "end_time": 22.0681818,
                "pitch": 57,
                "velocity": 80,
                "duration": 0.3863636,
                "tempo": 120.0
            },
            {
                "start_time": 22.0840909,
                "end_time": 22.4681818,
                "pitch": 58,
                "velocity": 80,
                "duration": 0.3840909,
                "tempo": 120.0
            },
            {
                "start_time": 22.4840909,
                "end_time": 22.8681818,
                "pitch": 60,
                "velocity": 80,
                "duration": 0.3840909,
                "tempo": 120.0
            },
            {
                "start_time": 22.8840909,
                "end_time": 23.0681818,
                "pitch": 59,
                "velocity": 80,
                "duration": 0.1840909,
                "tempo": 120.0
            },
            {
                "start_time": 23.0863636,
                "end_time": 23.2704545,
                "pitch": 60,
                "velocity": 80,
                "duration": 0.1840909,
                "tempo": 120.0
            },
            {
                "start_time": 23.2863636,
                "end_time": 23.6704545,
                "pitch": 63,
                "velocity": 80,
                "duration": 0.3840909,
                "tempo": 120.0
            },
            {
                "start_time": 23.6863636,
                "end_time": 23.8727273,
                "pitch": 62,
                "velocity": 80,
                "duration": 0.1863636,
                "tempo": 120.0
            },
            {
                "start_time": 23.8886364,
                "end_time": 24.0727273,
                "pitch": 63,
                "velocity": 80,
                "duration": 0.1840909,
                "tempo": 120.0
            },
            {
                "start_time": 24.0909091,
                "end_time": 25.675,
                "pitch": 67,
                "velocity": 80,
                "duration": 1.5840909,
                "tempo": 120.0
            }
        ],
        "Flute": [
            {
                "start_time": 0.0,
                "end_time": 1.5863636,
                "pitch": 67,
                "velocity": 51,
                "duration": 1.5863636,
                "tempo": 120.0
            },
            {
                "start_time": 1.6022727,
                "end_time": 3.1886364,
                "pitch": 65,
                "velocity": 51,
                "duration": 1.5863636,
                "tempo": 120.0
            },
            {
                "start_time": 3.2045455,
                "end_time": 4.7931818,
                "pitch": 63,
                "velocity": 51,
                "duration": 1.5886364,
                "tempo": 120.0
            },
            {
                "start_time": 6.4159091,
                "end_time": 8.0045455,
                "pitch": 67,
                "velocity": 51,
                "duration": 1.5886364,
                "tempo": 120.0
            },
            {
                "start_time": 8.0227273,
                "end_time": 9.6136364,
                "pitch": 65,
                "velocity": 51,
                "duration": 1.5909091,
                "tempo": 120.0
            },
            {
                "start_time": 9.6295455,
                "end_time": 11.2136364,
                "pitch": 63,
                "velocity": 51,
                "duration": 1.5840909,
                "tempo": 120.0
            },
            {
                "start_time": 11.2295455,
                "end_time": 12.0272727,
                "pitch": 72,
                "velocity": 51,
                "duration": 0.7977273,
                "tempo": 120.0
            },
            {
                "start_time": 12.0431818,
                "end_time": 12.8318182,
                "pitch": 70,
                "velocity": 51,
                "duration": 0.7886364,
                "tempo": 120.0
            },
            {
                "start_time": 12.85,
                "end_time": 13.0340909,
                "pitch": 65,
                "velocity": 51,
                "duration": 0.1840909,
                "tempo": 120.0
            },
            {
                "start_time": 13.05,
                "end_time": 13.2340909,
                "pitch": 65,
                "velocity": 51,
                "duration": 0.1840909,
                "tempo": 120.0
            },
            {
                "start_time": 13.2522727,
                "end_time": 13.4340909,
                "pitch": 65,
                "velocity": 51,
                "duration": 0.1818182,
                "tempo": 120.0
            },
            {
                "start_time": 13.4522727,
                "end_time": 14.0272727,
                "pitch": 67,
                "velocity": 51,
                "duration": 0.575,
                "tempo": 120.0
            },
            {
                "start_time": 14.0431818,
                "end_time": 15.2431818,
                "pitch": 63,
                "velocity": 51,
                "duration": 1.2,
                "tempo": 120.0
            },
            {
                "start_time": 15.2590909,
                "end_time": 15.6431818,
                "pitch": 62,
                "velocity": 51,
                "duration": 0.3840909,
                "tempo": 120.0
            },
            {
                "start_time": 15.6590909,
                "end_time": 16.0454545,
                "pitch": 63,
                "velocity": 51,
                "duration": 0.3863636,
                "tempo": 120.0
            },
            {
                "start_time": 16.0636364,
                "end_time": 16.2477273,
                "pitch": 65,
                "velocity": 51,
                "duration": 0.1840909,
                "tempo": 120.0
            },
            {
                "start_time": 16.2636364,
                "end_time": 16.4477273,
                "pitch": 65,
                "velocity": 51,
                "duration": 0.1840909,
                "tempo": 120.0
            },
            {
                "start_time": 16.4659091,
                "end_time": 16.6477273,
                "pitch": 65,
                "velocity": 51,
                "duration": 0.1818182,
                "tempo": 120.0
            },
            {
                "start_time": 16.6659091,
                "end_time": 17.2409091,
                "pitch": 67,
                "velocity": 51,
                "duration": 0.575,
                "tempo": 120.0
            },
            {
                "start_time": 17.2568182,
                "end_time": 19.2568182,
                "pitch": 68,
                "velocity": 51,
                "duration": 2.0,
                "tempo": 120.0
            },
            {
                "start_time": 19.2727273,
                "end_time": 19.4568182,
                "pitch": 68,
                "velocity": 51,
                "duration": 0.1840909,
                "tempo": 120.0
            },
            {
                "start_time": 19.4727273,
                "end_time": 19.6568182,
                "pitch": 68,
                "velocity": 51,
                "duration": 0.1840909,
                "tempo": 120.0
            },
            {
                "start_time": 19.6727273,
                "end_time": 19.8590909,
                "pitch": 68,
                "velocity": 51,
                "duration": 0.1863636,
                "tempo": 120.0
            },
            {
                "start_time": 19.875,
                "end_time": 20.4522727,
                "pitch": 70,
                "velocity": 51,
                "duration": 0.5772727,
                "tempo": 120.0
            },
            {
                "start_time": 20.4681818,
                "end_time": 21.6659091,
                "pitch": 67,
                "velocity": 51,
                "duration": 1.1977273,
                "tempo": 120.0
            },
            {
                "start_time": 21.6818182,
                "end_time": 22.0681818,
                "pitch": 65,
                "velocity": 51,
                "duration": 0.3863636,
                "tempo": 120.0
            },
            {
                "start_time": 22.0840909,
                "end_time": 22.4681818,
                "pitch": 67,
                "velocity": 51,
                "duration": 0.3840909,
                "tempo": 120.0
            },
            {
                "start_time": 22.4840909,
                "end_time": 22.8681818,
                "pitch": 68,
                "velocity": 51,
                "duration": 0.3840909,
                "tempo": 120.0
            },
            {
                "start_time": 22.8840909,
                "end_time": 23.0681818,
                "pitch": 67,
                "velocity": 51,
                "duration": 0.1840909,
                "tempo": 120.0
            },
            {
                "start_time": 23.0863636,
                "end_time": 23.2704545,
                "pitch": 68,
                "velocity": 51,
                "duration": 0.1840909,
                "tempo": 120.0
            },
            {
                "start_time": 23.2863636,
                "end_time": 23.6704545,
                "pitch": 72,
                "velocity": 51,
                "duration": 0.3840909,
                "tempo": 120.0
            },
            {
                "start_time": 23.6863636,
                "end_time": 23.8727273,
                "pitch": 71,
                "velocity": 51,
                "duration": 0.1863636,
                "tempo": 120.0
            },
            {
                "start_time": 23.8886364,
                "end_time": 24.0727273,
                "pitch": 72,
                "velocity": 51,
                "duration": 0.1840909,
                "tempo": 120.0
            },
            {
                "start_time": 24.0909091,
                "end_time": 25.675,
                "pitch": 75,
                "velocity": 51,
                "duration": 1.5840909,
                "tempo": 120.0
            }
        ],
        "Church Organ": [
            {
                "start_time": 0.0,
                "end_time": 1.3863636,
                "pitch": 48,
                "velocity": 51,
                "duration": 1.3863636,
                "tempo": 120.0
            },
            {
                "start_time": 1.4022727,
                "end_time": 1.5863636,
                "pitch": 48,
                "velocity": 51,
                "duration": 0.1840909,
                "tempo": 120.0
            },
            {
                "start_time": 1.6022727,
                "end_time": 3.1886364,
                "pitch": 46,
                "velocity": 51,
                "duration": 1.5863636,
                "tempo": 120.0
            },
            {
                "start_time": 3.2045455,
                "end_time": 4.5931818,
                "pitch": 45,
                "velocity": 51,
                "duration": 1.3886364,
                "tempo": 120.0
            },
            {
                "start_time": 4.6090909,
                "end_time": 4.7931818,
                "pitch": 45,
                "velocity": 51,
                "duration": 0.1840909,
                "tempo": 120.0
            },
            {
                "start_time": 4.8113636,
                "end_time": 5.5977273,
                "pitch": 44,
                "velocity": 51,
                "duration": 0.7863636,
                "tempo": 120.0
            },
            {
                "start_time": 5.6136364,
                "end_time": 6.4,
                "pitch": 46,
                "velocity": 51,
                "duration": 0.7863636,
                "tempo": 120.0
            },
            {
                "start_time": 6.4159091,
                "end_time": 7.8045455,
                "pitch": 48,
                "velocity": 51,
                "duration": 1.3886364,
                "tempo": 120.0
            },
            {
                "start_time": 7.8227273,
                "end_time": 8.0045455,
                "pitch": 48,
                "velocity": 51,
                "duration": 0.1818182,
                "tempo": 120.0
            },
            {
                "start_time": 8.0227273,
                "end_time": 9.4136364,
                "pitch": 46,
                "velocity": 51,
                "duration": 1.3909091,
                "tempo": 120.0
            },
            {
                "start_time": 9.4295455,
                "end_time": 9.6136364,
                "pitch": 46,
                "velocity": 51,
                "duration": 0.1840909,
                "tempo": 120.0
            },
            {
                "start_time": 9.6295455,
                "end_time": 11.2136364,
                "pitch": 45,
                "velocity": 51,
                "duration": 1.5840909,
                "tempo": 120.0
            },
            {
                "start_time": 11.2295455,
                "end_time": 11.6227273,
                "pitch": 44,
                "velocity": 51,
                "duration": 0.3931818,
                "tempo": 120.0
            },
            {
                "start_time": 11.6409091,
                "end_time": 11.825,
                "pitch": 46,
                "velocity": 51,
                "duration": 0.1840909,
                "tempo": 120.0
            },
            {
                "start_time": 11.8431818,
                "end_time": 12.0272727,
                "pitch": 44,
                "velocity": 51,
                "duration": 0.1840909,
                "tempo": 120.0
            },
            {
                "start_time": 12.0431818,
                "end_time": 12.8318182,
                "pitch": 43,
                "velocity": 51,
                "duration": 0.7886364,
                "tempo": 120.0
            },
            {
                "start_time": 12.85,
                "end_time": 13.0340909,
                "pitch": 41,
                "velocity": 51,
                "duration": 0.1840909,
                "tempo": 120.0
            },
            {
                "start_time": 13.05,
                "end_time": 13.2340909,
                "pitch": 41,
                "velocity": 51,
                "duration": 0.1840909,
                "tempo": 120.0
            },
            {
                "start_time": 13.2522727,
                "end_time": 13.4340909,
                "pitch": 41,
                "velocity": 51,
                "duration": 0.1818182,
                "tempo": 120.0
            },
            {
                "start_time": 13.4522727,
                "end_time": 13.6340909,
                "pitch": 43,
                "velocity": 51,
                "duration": 0.1818182,
                "tempo": 120.0
            },
            {
                "start_time": 14.0431818,
                "end_time": 15.2431818,
                "pitch": 39,
                "velocity": 51,
                "duration": 1.2,
                "tempo": 120.0
            },
            {
                "start_time": 15.2590909,
                "end_time": 15.6431818,
                "pitch": 38,
                "velocity": 51,
                "duration": 0.3840909,
                "tempo": 120.0
            },
            {
                "start_time": 15.6590909,
                "end_time": 16.0454545,
                "pitch": 39,
                "velocity": 51,
                "duration": 0.3863636,
                "tempo": 120.0
            },
            {
                "start_time": 16.0636364,
                "end_time": 16.2477273,
                "pitch": 41,
                "velocity": 51,
                "duration": 0.1840909,
                "tempo": 120.0
            },
            {
                "start_time": 16.2636364,
                "end_time": 16.4477273,
                "pitch": 41,
                "velocity": 51,
                "duration": 0.1840909,
                "tempo": 120.0
            },
            {
                "start_time": 16.4659091,
                "end_time": 16.6477273,
                "pitch": 41,
                "velocity": 51,
                "duration": 0.1818182,
                "tempo": 120.0
            },
            {
                "start_time": 16.6659091,
                "end_time": 16.8477273,
                "pitch": 43,
                "velocity": 51,
                "duration": 0.1818182,
                "tempo": 120.0
            },
            {
                "start_time": 17.2568182,
                "end_time": 18.2545455,
                "pitch": 44,
                "velocity": 51,
                "duration": 0.9977273,
                "tempo": 120.0
            },
            {
                "start_time": 18.2704545,
                "end_time": 18.4545455,
                "pitch": 46,
                "velocity": 51,
                "duration": 0.1840909,
                "tempo": 120.0
            },
            {
                "start_time": 18.4704545,
                "end_time": 18.6545455,
                "pitch": 48,
                "velocity": 51,
                "duration": 0.1840909,
                "tempo": 120.0
            },
            {
                "start_time": 18.6704545,
                "end_time": 18.8545455,
                "pitch": 46,
                "velocity": 51,
                "duration": 0.1840909,
                "tempo": 120.0
            },
            {
                "start_time": 18.8704545,
                "end_time": 19.2568182,
                "pitch": 44,
                "velocity": 51,
                "duration": 0.3863636,
                "tempo": 120.0
            },
            {
                "start_time": 19.2727273,
                "end_time": 19.4568182,
                "pitch": 41,
                "velocity": 51,
                "duration": 0.1840909,
                "tempo": 120.0
            },
            {
                "start_time": 19.4727273,
                "end_time": 19.6568182,
                "pitch": 41,
                "velocity": 51,
                "duration": 0.1840909,
                "tempo": 120.0
            },
            {
                "start_time": 19.6727273,
                "end_time": 19.8590909,
                "pitch": 41,
                "velocity": 51,
                "duration": 0.1863636,
                "tempo": 120.0
            },
            {
                "start_time": 19.875,
                "end_time": 20.0590909,
                "pitch": 43,
                "velocity": 51,
                "duration": 0.1840909,
                "tempo": 120.0
            },
            {
                "start_time": 20.4681818,
                "end_time": 21.6659091,
                "pitch": 39,
                "velocity": 51,
                "duration": 1.1977273,
                "tempo": 120.0
            },
            {
                "start_time": 21.6818182,
                "end_time": 22.0681818,
                "pitch": 38,
                "velocity": 51,
                "duration": 0.3863636,
                "tempo": 120.0
            },
            {
                "start_time": 22.0840909,
                "end_time": 22.4681818,
                "pitch": 39,
                "velocity": 51,
                "duration": 0.3840909,
                "tempo": 120.0
            },
            {
                "start_time": 22.4840909,
                "end_time": 22.8681818,
                "pitch": 41,
                "velocity": 51,
                "duration": 0.3840909,
                "tempo": 120.0
            },
            {
                "start_time": 22.8840909,
                "end_time": 23.0681818,
                "pitch": 40,
                "velocity": 51,
                "duration": 0.1840909,
                "tempo": 120.0
            },
            {
                "start_time": 23.0863636,
                "end_time": 23.2704545,
                "pitch": 41,
                "velocity": 51,
                "duration": 0.1840909,
                "tempo": 120.0
            },
            {
                "start_time": 23.2863636,
                "end_time": 23.6704545,
                "pitch": 44,
                "velocity": 51,
                "duration": 0.3840909,
                "tempo": 120.0
            },
            {
                "start_time": 23.6863636,
                "end_time": 23.8727273,
                "pitch": 43,
                "velocity": 51,
                "duration": 0.1863636,
                "tempo": 120.0
            },
            {
                "start_time": 23.8886364,
                "end_time": 24.0727273,
                "pitch": 44,
                "velocity": 51,
                "duration": 0.1840909,
                "tempo": 120.0
            },
            {
                "start_time": 24.0909091,
                "end_time": 25.675,
                "pitch": 48,
                "velocity": 51,
                "duration": 1.5840909,
                "tempo": 120.0
            }
        ]
    }
}