{
    "mood": "angry",
    "instruments": {
        "Trumpet": [
            {
                "start_time": 1.4477273,
                "end_time": 1.8431818,
                "pitch": 70,
                "velocity": 51,
                "duration": 0.3954545,
                "tempo": 120.0
            },
            {
                "start_time": 1.8590909,
                "end_time": 2.2454545,
                "pitch": 77,
                "velocity": 51,
                "duration": 0.3863636,
                "tempo": 120.0
            },
            {
                "start_time": 2.2613636,
                "end_time": 2.6454545,
                "pitch": 70,
                "velocity": 51,
                "duration": 0.3840909,
                "tempo": 120.0
            },
            {
                "start_time": 2.6613636,
                "end_time": 3.0454545,
                "pitch": 73,
                "velocity": 51,
                "duration": 0.3840909,
                "tempo": 120.0
            },
            {
                "start_time": 3.0613636,
                "end_time": 3.4454545,
                "pitch": 70,
                "velocity": 51,
                "duration": 0.3840909,
                "tempo": 120.0
            },
            {
                "start_time": 3.4613636,
                "end_time": 3.8477273,
                "pitch": 77,
                "velocity": 51,
                "duration": 0.3863636,
                "tempo": 120.0
            },
            {
                "start_time": 3.8636364,
                "end_time": 4.2477273,
                "pitch": 70,
                "velocity": 51,
                "duration": 0.3840909,
                "tempo": 120.0
            },
            {
                "start_time": 4.2636364,
                "end_time": 4.6477273,
                "pitch": 73,
                "velocity": 51,
                "duration": 0.3840909,
                "tempo": 120.0
            },
            {
                "start_time": 4.6636364,
                "end_time": 5.05,
                "pitch": 70,
                "velocity": 51,
                "duration": 0.3863636,
                "tempo": 120.0
            },
            {
                "start_time": 5.0681818,
                "end_time": 5.4522727,
                "pitch": 77,
                "velocity": 51,
                "duration": 0.3840909,
                "tempo": 120.0
            },
            {
                "start_time": 5.4704545,
                "end_time": 5.8545455,
                "pitch": 73,
                "velocity": 51,
                "duration": 0.3840909,
                "tempo": 120.0
            },
            {
                "start_time": 5.8704545,
                "end_time": 6.6568182,
                "pitch": 80,
                "velocity": 51,
                "duration": 0.7863636,
                "tempo": 120.0
            },
            {
                "start_time": 6.6727273,
                "end_time": 7.0590909,
                "pitch": 79,
                "velocity": 51,
                "duration": 0.3863636,
                "tempo": 120.0
            },
            {
                "start_time": 7.075,
                "end_time": 7.4613636,
                "pitch": 77,
                "velocity": 51,
                "duration": 0.3863636,
                "tempo": 120.0
            },
            {
                "start_time": 7.4772727,
                "end_time": 7.8613636,
                "pitch": 73,
                "velocity": 51,
                "duration": 0.3840909,
                "tempo": 120.0
            },
            {
                "start_time": 7.8772727,
                "end_time": 8.2636364,
                "pitch": 70,
                "velocity": 51,
                "duration": 0.3863636,
                "tempo": 120.0
            },
            {
                "start_time": 8.2818182,
                "end_time": 8.675,
                "pitch": 77,
                "velocity": 51,
                "duration": 0.3931818,
                "tempo": 120.0
            },
            {
                "start_time": 8.6909091,
                "end_time": 9.0681818,
                "pitch": 70,
                "velocity": 51,
                "duration": 0.3772727,
                "tempo": 120.0
            },
            {
                "start_time": 9.0840909,
                "end_time": 9.4704545,
                "pitch": 73,
                "velocity": 51,
                "duration": 0.3863636,
                "tempo": 120.0
            },
            {
                "start_time": 9.4863636,
                "end_time": 9.8727273,
                "pitch": 70,
                "velocity": 51,
                "duration": 0.3863636,
                "tempo": 120.0
            },
            {
                "start_time": 9.8886364,
                "end_time": 10.2727273,
                "pitch": 77,
                "velocity": 51,
                "duration": 0.3840909,
                "tempo": 120.0
            },
            {
                "start_time": 10.2886364,
                "end_time": 10.675,
                "pitch": 70,
                "velocity": 51,
                "duration": 0.3863636,
                "tempo": 120.0
            },
            {
                "start_time": 10.6909091,
                "end_time": 11.0772727,
                "pitch": 73,
                "velocity": 51,
                "duration": 0.3863636,
                "tempo": 120.0
            },
            {
                "start_time": 11.0954545,
                "end_time": 11.4795455,
                "pitch": 70,
                "velocity": 51,
                "duration": 0.3840909,
                "tempo": 120.0
            },
            {
                "start_time": 11.4977273,
                "end_time": 11.8909091,
                "pitch": 77,
                "velocity": 51,
                "duration": 0.3931818,
                "tempo": 120.0
            },
            {
                "start_time": 11.9068182,
                "end_time": 12.2840909,
                "pitch": 73,
                "velocity": 51,
                "duration": 0.3772727,
                "tempo": 120.0
            },
            {
                "start_time": 12.3,
                "end_time": 12.4840909,
                "pitch": 79,
                "velocity": 51,
                "duration": 0.1840909,
                "tempo": 120.0
            },
            {
                "start_time": 14.3113636,
                "end_time": 14.6977273,
                "pitch": 70,
                "velocity": 51,
                "duration": 0.3863636,
                "tempo": 120.0
            },
            {
                "start_time": 14.7136364,
                "end_time": 15.1068182,
                "pitch": 77,
                "velocity": 51,
                "duration": 0.3931818,
                "tempo": 120.0
            },
            {
                "start_time": 15.125,
                "end_time": 15.5,
                "pitch": 73,
                "velocity": 51,
                "duration": 0.375,
                "tempo": 120.0
            },
            {
                "start_time": 15.5159091,
                "end_time": 15.7,
                "pitch": 77,
                "velocity": 51,
                "duration": 0.1840909,
                "tempo": 120.0
            },
            {
                "start_time": 15.7181818,
                "end_time": 15.9022727,
                "pitch": 73,
                "velocity": 51,
                "duration": 0.1840909,
                "tempo": 120.0
            },
            {
                "start_time": 15.9181818,
                "end_time": 16.3022727,
                "pitch": 70,
                "velocity": 51,
                "duration": 0.3840909,
                "tempo": 120.0
            },
            {
                "start_time": 16.3181818,
                "end_time": 16.7045455,
                "pitch": 70,
                "velocity": 51,
                "duration": 0.3863636,
                "tempo": 120.0
            },
            {
                "start_time": 16.7227273,
                "end_time": 17.1068182,
                "pitch": 70,
                "velocity": 51,
                "duration": 0.3840909,
                "tempo": 120.0
            },
            {
                "start_time": 17.125,
                "end_time": 17.5068182,
                "pitch": 73,
                "velocity": 51,
                "duration": 0.3818182,
                "tempo": 120.0
            },
            {
                "start_time": 17.525,
                "end_time": 17.9068182,
                "pitch": 70,
                "velocity": 51,
                "duration": 0.3818182,
                "tempo": 120.0
            },
            {
                "start_time": 17.925,
                "end_time": 18.3113636,
                "pitch": 77,
                "velocity": 51,
                "duration": 0.3863636,
                "tempo": 120.0
            },
            {
                "start_time": 18.3272727,
                "end_time": 18.7113636,
                "pitch": 70,
                "velocity": 51,
                "duration": 0.3840909,
                "tempo": 120.0
            },
            {
                "start_time": 18.7272727,
                "end_time": 19.1136364,
                "pitch": 73,
                "velocity": 51,
                "duration": 0.3863636,
                "tempo": 120.0
            },
            {
                "start_time": 19.1295455,
                "end_time": 19.5136364,
                "pitch": 70,
                "velocity": 51,
                "duration": 0.3840909,
                "tempo": 120.0
            },
            {
                "start_time": 19.5295455,
                "end_time": 19.9136364,
                "pitch": 77,
                "velocity": 51,
                "duration": 0.3840909,
                "tempo": 120.0
            },
            {
                "start_time": 19.9295455,
                "end_time": 20.3159091,
                "pitch": 75,
                "velocity": 51,
                "duration": 0.3863636,
                "tempo": 120.0
            },
            {
                "start_time": 20.3318182,
                "end_time": 20.7159091,
                "pitch": 73,
                "velocity": 51,
                "duration": 0.3840909,
                "tempo": 120.0
            },
            {
                "start_time": 20.7318182,
                "end_time": 21.1181818,
                "pitch": 70,
                "velocity": 51,
                "duration": 0.3863636,
                "tempo": 120.0
            },
            {
                "start_time": 21.1340909,
                "end_time": 21.5181818,
                "pitch": 77,
                "velocity": 51,
                "duration": 0.3840909,
                "tempo": 120.0
            },
            {
                "start_time": 21.5340909,
                "end_time": 21.9181818,
                "pitch": 70,
                "velocity": 51,
                "duration": 0.3840909,
                "tempo": 120.0
            },
            {
                "start_time": 21.9340909,
                "end_time": 22.3204545,
                "pitch": 73,
                "velocity": 51,
                "duration": 0.3863636,
                "tempo": 120.0
            },
            {
                "start_time": 22.3386364,
                "end_time": 22.7204545,
                "pitch": 70,
                "velocity": 51,
                "duration": 0.3818182,
                "tempo": 120.0
            },
            {
                "start_time": 22.7386364,
                "end_time": 23.1227273,
                "pitch": 77,
                "velocity": 51,
                "duration": 0.3840909,
                "tempo": 120.0
            },
            {
                "start_time": 23.1409091,
                "end_time": 23.525,
                "pitch": 70,
                "velocity": 51,
                "duration": 0.3840909,
                "tempo": 120.0
            },
            {
                "start_time": 23.5409091,
                "end_time": 23.925,
                "pitch": 73,
                "velocity": 51,
                "duration": 0.3840909,
                "tempo": 120.0
            },
            {
                "start_time": 23.9409091,
                "end_time": 24.3272727,
                "pitch": 70,
                "velocity": 51,
                "duration": 0.3863636,
                "tempo": 120.0
            },
            {
                "start_time": 24.3431818,
                "end_time": 24.7363636,
                "pitch": 77,
                "velocity": 51,
                "duration": 0.3931818,
                "tempo": 120.0
            },
            {
                "start_time": 24.7545455,
                "end_time": 25.1295455,
                "pitch": 73,
                "velocity": 51,
                "duration": 0.375,
                "tempo": 120.0
            },
            {
                "start_time": 25.1454545,
                "end_time": 25.3295455,
                "pitch": 79,
                "velocity": 51,
                "duration": 0.1840909,
                "tempo": 120.0
            },
            {
                "start_time": 27.1522727,
                "end_time": 27.5340909,
                "pitch": 77,
                "velocity": 51,
                "duration": 0.3818182,
                "tempo": 120.0
            },
            {
                "start_time": 27.5522727,
                "end_time": 27.9340909,
                "pitch": 73,
                "velocity": 51,
                "duration": 0.3818182,
                "tempo": 120.0
            },
            {
                "start_time": 27.9522727,
                "end_time": 28.3363636,
                "pitch": 77,
                "velocity": 51,
                "duration": 0.3840909,
                "tempo": 120.0
            },
            {
                "start_time": 28.3545455,
                "end_time": 28.9386364,
                "pitch": 80,
                "velocity": 51,
                "duration": 0.5840909,
                "tempo": 120.0
            },
            {
                "start_time": 28.9545455,
                "end_time": 30.3431818,
                "pitch": 72,
                "velocity": 51,
                "duration": 1.3886364,
                "tempo": 120.0
            },
            {
                "start_time": 30.3590909,
                "end_time": 31.1454545,
                "pitch": 67,
                "velocity": 51,
                "duration": 0.7863636,
                "tempo": 120.0
            },
            {
                "start_time": 31.1613636,
                "end_time": 31.5454545,
                "pitch": 65,
                "velocity": 51,
                "duration": 0.3840909,
                "tempo": 120.0
            },
            {
                "start_time": 31.5613636,
                "end_time": 31.7409091,
                "pitch": 67,
                "velocity": 51,
                "duration": 0.1795455,
                "tempo": 120.0
            },
            {
                "start_time": 31.7590909,
                "end_time": 32.1431818,
                "pitch": 70,
                "velocity": 51,
                "duration": 0.3840909,
                "tempo": 120.0
            },
            {
                "start_time": 32.1590909,
                "end_time": 33.1522727,
                "pitch": 74,
                "velocity": 51,
                "duration": 0.9931818,
                "tempo": 120.0
            },
            {
                "start_time": 33.1681818,
                "end_time": 33.3522727,
                "pitch": 73,
                "velocity": 51,
                "duration": 0.1840909,
                "tempo": 120.0
            },
            {
                "start_time": 33.3681818,
                "end_time": 33.7477273,
                "pitch": 77,
                "velocity": 51,
                "duration": 0.3795455,
                "tempo": 120.0
            },
            {
                "start_time": 33.7636364,
                "end_time": 34.3545455,
                "pitch": 80,
                "velocity": 51,
                "duration": 0.5909091,
                "tempo": 120.0
            },
            {
                "start_time": 34.3704545,
                "end_time": 34.7568182,
                "pitch": 73,
                "velocity": 51,
                "duration": 0.3863636,
                "tempo": 120.0
            },
            {
                "start_time": 34.7727273,
                "end_time": 35.3545455,
                "pitch": 79,
                "velocity": 51,
                "duration": 0.5818182,
                "tempo": 120.0
            },
            {
                "start_time": 35.3704545,
                "end_time": 35.9590909,
                "pitch": 76,
                "velocity": 51,
                "duration": 0.5886364,
                "tempo": 120.0
            },
            {
                "start_time": 35.9772727,
                "end_time": 37.3568182,
                "pitch": 72,
                "velocity": 51,
                "duration": 1.3795455,
                "tempo": 120.0
            }
        ],
        "Oboe": [
            {
                "start_time": 26.7477273,
                "end_time": 27.3340909,
                "pitch": 73,
                "velocity": 80,
                "duration": 0.5863636,
                "tempo": 120.0
            },
            {
                "start_time": 27.3522727,
                "end_time": 27.9340909,
                "pitch": 77,
                "velocity": 80,
                "duration": 0.5818182,
                "tempo": 120.0
            },
            {
                "start_time": 27.9522727,
                "end_time": 28.3363636,
                "pitch": 73,
                "velocity": 80,
                "duration": 0.3840909,
                "tempo": 120.0
            },
            {
                "start_time": 28.3545455,
                "end_time": 28.5386364,
                "pitch": 76,
                "velocity": 80,
                "duration": 0.1840909,
                "tempo": 120.0
            },
            {
                "start_time": 28.5545455,
                "end_time": 28.7386364,
                "pitch": 73,
                "velocity": 80,
                "duration": 0.1840909,
                "tempo": 120.0
            },
            {
                "start_time": 28.7545455,
                "end_time": 28.9386364,
                "pitch": 72,
                "velocity": 80,
                "duration": 0.1840909,
                "tempo": 120.0
            },
            {
                "start_time": 28.9545455,
                "end_time": 29.5409091,
                "pitch": 70,
                "velocity": 80,
                "duration": 0.5863636,
                "tempo": 120.0
            },
            {
                "start_time": 29.5568182,
                "end_time": 29.9409091,
                "pitch": 72,
                "velocity": 80,
                "duration": 0.3840909,
                "tempo": 120.0
            },
            {
                "start_time": 29.9568182,
                "end_time": 30.5431818,
                "pitch": 68,
                "velocity": 80,
                "duration": 0.5863636,
                "tempo": 120.0
            },
            {
                "start_time": 30.5590909,
                "end_time": 31.1454545,
                "pitch": 72,
                "velocity": 80,
                "duration": 0.5863636,
                "tempo": 120.0
            },
            {
                "start_time": 31.1613636,
                "end_time": 31.5454545,
                "pitch": 68,
                "velocity": 80,
                "duration": 0.3840909,
                "tempo": 120.0
            },
            {
                "start_time": 31.5613636,
                "end_time": 32.1431818,
                "pitch": 70,
                "velocity": 80,
                "duration": 0.5818182,
                "tempo": 120.0
            },
            {
                "start_time": 32.1590909,
                "end_time": 33.1522727,
                "pitch": 63,
                "velocity": 80,
                "duration": 0.9931818,
                "tempo": 120.0
            },
            {
                "start_time": 33.1681818,
                "end_time": 33.7477273,
                "pitch": 73,
                "velocity": 80,
                "duration": 0.5795455,
                "tempo": 120.0
            },
            {
                "start_time": 33.7636364,
                "end_time": 34.3545455,
                "pitch": 77,
                "velocity": 80,
                "duration": 0.5909091,
                "tempo": 120.0
            },
            {
                "start_time": 34.3704545,
                "end_time": 34.7568182,
                "pitch": 73,
                "velocity": 80,
                "duration": 0.3863636,
                "tempo": 120.0
            },
            {
                "start_time": 34.7727273,
                "end_time": 34.9522727,
                "pitch": 76,
                "velocity": 80,
                "duration": 0.1795455,
                "tempo": 120.0
            },
            {
                "start_time": 34.9704545,
                "end_time": 35.15,
                "pitch": 73,
                "velocity": 80,
                "duration": 0.1795455,
                "tempo": 120.0
            },
            {
                "start_time": 35.1659091,
                "end_time": 35.3545455,
                "pitch": 72,
                "velocity": 80,
                "duration": 0.1886364,
                "tempo": 120.0
            },
            {
                "start_time": 35.3704545,
                "end_time": 35.9590909,
                "pitch": 70,
                "velocity": 80,
                "duration": 0.5886364,
                "tempo": 120.0
            },
            {
                "start_time": 35.9772727,
                "end_time": 36.3590909,
                "pitch": 72,
                "velocity": 80,
                "duration": 0.3818182,
                "tempo": 120.0
            },
            {
                "start_time": 36.3772727,
                "end_time": 36.5613636,
                "pitch": 75,
                "velocity": 80,
                "duration": 0.1840909,
                "tempo": 120.0
            },
            {
                "start_time": 36.5772727,
                "end_time": 36.7613636,
                "pitch": 68,
                "velocity": 80,
                "duration": 0.1840909,
                "tempo": 120.0
            },
            {
                "start_time": 36.7795455,
                "end_time": 36.9590909,
                "pitch": 68,
                "velocity": 80,
                "duration": 0.1795455,
                "tempo": 120.0
            },
            {
                "start_time": 36.975,
                "end_time": 37.9681818,
                "pitch": 69,
                "velocity": 80,
                "duration": 0.9931818,
                "tempo": 120.0
            },
            {
                "start_time": 37.9840909,
                "end_time": 38.1681818,
                "pitch": 77,
                "velocity": 80,
                "duration": 0.1840909,
                "tempo": 120.0
            },
            {
                "start_time": 38.1840909,
                "end_time": 38.3681818,
                "pitch": 70,
                "velocity": 80,
                "duration": 0.1840909,
                "tempo": 120.0
            },
            {
                "start_time": 38.3840909,
                "end_time": 38.5636364,
                "pitch": 70,
                "velocity": 80,
                "duration": 0.1795455,
                "tempo": 120.0
            },
            {
                "start_time": 38.5818182,
                "end_time": 39.5636364,
                "pitch": 79,
                "velocity": 80,
                "duration": 0.9818182,
                "tempo": 120.0
            }
        ],
        "Clarinet": [
            {
                "start_time": 0.0,
                "end_time": 0.05,
                "pitch": 32,
                "velocity": 101,
                "duration": 0.05,
                "tempo": 120.0
            },
            {
                "start_time": 0.05,
                "end_time": 0.1,
                "pitch": 35,
                "velocity": 101,
                "duration": 0.05,
                "tempo": 120.0
            },
            {
                "start_time": 0.1,
                "end_time": 0.15,
                "pitch": 37,
                "velocity": 101,
                "duration": 0.05,
                "tempo": 120.0
            },
            {
                "start_time": 0.15,
                "end_time": 0.2159091,
                "pitch": 39,
                "velocity": 101,
                "duration": 0.0659091,
                "tempo": 120.0
            },
            {
                "start_time": 0.2159091,
                "end_time": 0.25,
                "pitch": 42,
                "velocity": 101,
                "duration": 0.0340909,
                "tempo": 120.0
            },
            {
                "start_time": 0.25,
                "end_time": 0.2840909,
                "pitch": 43,
                "velocity": 101,
                "duration": 0.0340909,
                "tempo": 120.0
            },
            {
                "start_time": 0.2840909,
                "end_time": 0.3340909,
                "pitch": 45,
                "velocity": 101,
                "duration": 0.05,
                "tempo": 120.0
            },
            {
                "start_time": 0.3340909,
                "end_time": 0.3840909,
                "pitch": 48,
                "velocity": 101,
                "duration": 0.05,
                "tempo": 120.0
            },
            {
                "start_time": 0.3840909,
                "end_time": 0.4340909,
                "pitch": 50,
                "velocity": 101,
                "duration": 0.05,
                "tempo": 120.0
            },
            {
                "start_time": 0.4340909,
                "end_time": 0.5,
                "pitch": 52,
                "velocity": 101,
                "duration": 0.0659091,
                "tempo": 120.0
            },
            {
                "start_time": 0.5,
                "end_time": 0.5159091,
                "pitch": 54,
                "velocity": 101,
                "duration": 0.0159091,
                "tempo": 120.0
            },
            {
                "start_time": 0.5159091,
                "end_time": 0.55,
                "pitch": 55,
                "velocity": 101,
                "duration": 0.0340909,
                "tempo": 120.0
            },
            {
                "start_time": 0.55,
                "end_time": 0.6,
                "pitch": 57,
                "velocity": 101,
                "duration": 0.05,
                "tempo": 120.0
            },
            {
                "start_time": 0.6,
                "end_time": 0.65,
                "pitch": 60,
                "velocity": 101,
                "duration": 0.05,
                "tempo": 120.0
            },
            {
                "start_time": 0.65,
                "end_time": 0.7,
                "pitch": 62,
                "velocity": 101,
                "duration": 0.05,
                "tempo": 120.0
            },
            {
                "start_time": 0.7,
                "end_time": 0.7659091,
                "pitch": 64,
                "velocity": 101,
                "duration": 0.0659091,
                "tempo": 120.0
            },
            {
                "start_time": 0.7659091,
                "end_time": 0.7840909,
                "pitch": 66,
                "velocity": 101,
                "duration": 0.0181818,
                "tempo": 120.0
            },
            {
                "start_time": 0.7840909,
                "end_time": 0.8159091,
                "pitch": 67,
                "velocity": 101,
                "duration": 0.0318182,
                "tempo": 120.0
            },
            {
                "start_time": 0.8159091,
                "end_time": 0.8659091,
                "pitch": 69,
                "velocity": 101,
                "duration": 0.05,
                "tempo": 120.0
            },
            {
                "start_time": 0.8659091,
                "end_time": 0.9159091,
                "pitch": 72,
                "velocity": 101,
                "duration": 0.05,
                "tempo": 120.0
            },
            {
                "start_time": 0.9159091,
                "end_time": 0.9659091,
                "pitch": 74,
                "velocity": 101,
                "duration": 0.05,
                "tempo": 120.0
            },
            {
                "start_time": 0.9659091,
                "end_time": 1.0340909,
                "pitch": 76,
                "velocity": 101,
                "duration": 0.0681818,
                "tempo": 120.0
            },
            {
                "start_time": 1.0340909,
                "end_time": 1.05,
                "pitch": 78,
                "velocity": 101,
                "duration": 0.0159091,
                "tempo": 120.0
            }
        ],
        "Acoustic Bass": [
            {
                "start_time": 1.4477273,
                "end_time": 1.8431818,
                "pitch": 34,
                "velocity": 64,
                "duration": 0.3954545,
                "tempo": 120.0
            },
            {
                "start_time": 1.8590909,
                "end_time": 2.2454545,
                "pitch": 34,
                "velocity": 64,
                "duration": 0.3863636,
                "tempo": 120.0
            },
            {
                "start_time": 2.2613636,
                "end_time": 2.6454545,
                "pitch": 34,
                "velocity": 64,
                "duration": 0.3840909,
                "tempo": 120.0
            },
            {
                "start_time": 2.6613636,
                "end_time": 3.0454545,
                "pitch": 34,
                "velocity": 64,
                "duration": 0.3840909,
                "tempo": 120.0
            },
            {
                "start_time": 3.0613636,
                "end_time": 3.4454545,
                "pitch": 34,
                "velocity": 64,
                "duration": 0.3840909,
                "tempo": 120.0
            },
            {
                "start_time": 3.4613636,
                "end_time": 3.8477273,
                "pitch": 34,
                "velocity": 64,
                "duration": 0.3863636,
                "tempo": 120.0
            },
            {
                "start_time": 3.8636364,
                "end_time": 4.2477273,
                "pitch": 34,
                "velocity": 64,
                "duration": 0.3840909,
                "tempo": 120.0
            },
            {
                "start_time": 4.2636364,
                "end_time": 4.6477273,
                "pitch": 34,
                "velocity": 64,
                "duration": 0.3840909,
                "tempo": 120.0
            },
            {
                "start_time": 4.6636364,
                "end_time": 5.05,
                "pitch": 34,
                "velocity": 64,
                "duration": 0.3863636,
                "tempo": 120.0
            },
            {
                "start_time": 5.0681818,
                "end_time": 5.4522727,
                "pitch": 34,
                "velocity": 64,
                "duration": 0.3840909,
                "tempo": 120.0
            },
            {
                "start_time": 5.4704545,
                "end_time": 5.8545455,
                "pitch": 34,
                "velocity": 64,
                "duration": 0.3840909,
                "tempo": 120.0
            },
            {
                "start_time": 5.8704545,
                "end_time": 6.2568182,
                "pitch": 34,
                "velocity": 64,
                "duration": 0.3863636,
                "tempo": 120.0
            },
            {
                "start_time": 6.2727273,
                "end_time": 6.6568182,
                "pitch": 34,
                "velocity": 64,
                "duration": 0.3840909,
                "tempo": 120.0
            },
            {
                "start_time": 6.6727273,
                "end_time": 7.0590909,
                "pitch": 31,
                "velocity": 64,
                "duration": 0.3863636,
                "tempo": 120.0
            },
            {
                "start_time": 7.075,
                "end_time": 7.4613636,
                "pitch": 32,
                "velocity": 64,
                "duration": 0.3863636,
                "tempo": 120.0
            },
            {
                "start_time": 7.4772727,
                "end_time": 7.8613636,
                "pitch": 34,
                "velocity": 64,
                "duration": 0.3840909,
                "tempo": 120.0
            },
            {
                "start_time": 7.8772727,
                "end_time": 8.2636364,
                "pitch": 34,
                "velocity": 64,
                "duration": 0.3863636,
                "tempo": 120.0
            },
            {
                "start_time": 8.2818182,
                "end_time": 8.675,
                "pitch": 34,
                "velocity": 64,
                "duration": 0.3931818,
                "tempo": 120.0
            },
            {
                "start_time": 8.6909091,
                "end_time": 9.0681818,
                "pitch": 34,
                "velocity": 64,
                "duration": 0.3772727,
                "tempo": 120.0
            },
            {
                "start_time": 9.0840909,
                "end_time": 9.4704545,
                "pitch": 34,
                "velocity": 64,
                "duration": 0.3863636,
                "tempo": 120.0
            },
            {
                "start_time": 9.4863636,
                "end_time": 9.8727273,
                "pitch": 34,
                "velocity": 64,
                "duration": 0.3863636,
                "tempo": 120.0
            },
            {
                "start_time": 9.8886364,
                "end_time": 10.2727273,
                "pitch": 34,
                "velocity": 64,
                "duration": 0.3840909,
                "tempo": 120.0
            },
            {
                "start_time": 10.2886364,
                "end_time": 10.675,
                "pitch": 34,
                "velocity": 64,
                "duration": 0.3863636,
                "tempo": 120.0
            },
            {
                "start_time": 10.6909091,
                "end_time": 11.0772727,
                "pitch": 34,
                "velocity": 64,
                "duration": 0.3863636,
                "tempo": 120.0
            },
            {
                "start_time": 11.0954545,
                "end_time": 11.4795455,
                "pitch": 34,
                "velocity": 64,
                "duration": 0.3840909,
                "tempo": 120.0
            },
            {
                "start_time": 11.4977273,
                "end_time": 11.8909091,
                "pitch": 34,
                "velocity": 64,
                "duration": 0.3931818,
                "tempo": 120.0
            },
            {
                "start_time": 11.9068182,
                "end_time": 12.2840909,
                "pitch": 34,
                "velocity": 64,
                "duration": 0.3772727,
                "tempo": 120.0
            },
            {
                "start_time": 12.3,
                "end_time": 12.6863636,
                "pitch": 36,
                "velocity": 64,
                "duration": 0.3863636,
                "tempo": 120.0
            },
            {
                "start_time": 12.7022727,
                "end_time": 13.0886364,
                "pitch": 36,
                "velocity": 64,
                "duration": 0.3863636,
                "tempo": 120.0
            },
            {
                "start_time": 13.1045455,
                "end_time": 13.4909091,
                "pitch": 36,
                "velocity": 64,
                "duration": 0.3863636,
                "tempo": 120.0
            },
            {
                "start_time": 13.5090909,
                "end_time": 13.8931818,
                "pitch": 36,
                "velocity": 64,
                "duration": 0.3840909,
                "tempo": 120.0
            },
            {
                "start_time": 13.9113636,
                "end_time": 14.2931818,
                "pitch": 34,
                "velocity": 64,
                "duration": 0.3818182,
                "tempo": 120.0
            },
            {
                "start_time": 14.3113636,
                "end_time": 14.6977273,
                "pitch": 34,
                "velocity": 64,
                "duration": 0.3863636,
                "tempo": 120.0
            },
            {
                "start_time": 14.7136364,
                "end_time": 15.1068182,
                "pitch": 34,
                "velocity": 64,
                "duration": 0.3931818,
                "tempo": 120.0
            },
            {
                "start_time": 15.125,
                "end_time": 15.5,
                "pitch": 34,
                "velocity": 64,
                "duration": 0.375,
                "tempo": 120.0
            },
            {
                "start_time": 15.5159091,
                "end_time": 15.9022727,
                "pitch": 34,
                "velocity": 64,
                "duration": 0.3863636,
                "tempo": 120.0
            },
            {
                "start_time": 15.9181818,
                "end_time": 16.3022727,
                "pitch": 34,
                "velocity": 64,
                "duration": 0.3840909,
                "tempo": 120.0
            },
            {
                "start_time": 16.3181818,
                "end_time": 16.7045455,
                "pitch": 34,
                "velocity": 64,
                "duration": 0.3863636,
                "tempo": 120.0
            },
            {
                "start_time": 16.7227273,
                "end_time": 17.1068182,
                "pitch": 34,
                "velocity": 64,
                "duration": 0.3840909,
                "tempo": 120.0
            },
            {
                "start_time": 17.125,
                "end_time": 17.5068182,
                "pitch": 34,
                "velocity": 64,
                "duration": 0.3818182,
                "tempo": 120.0
            },
            {
                "start_time": 17.525,
                "end_time": 17.9068182,
                "pitch": 34,
                "velocity": 64,
                "duration": 0.3818182,
                "tempo": 120.0
            },
            {
                "start_time": 17.925,
                "end_time": 18.3113636,
                "pitch": 34,
                "velocity": 64,
                "duration": 0.3863636,
                "tempo": 120.0
            },
            {
                "start_time": 18.3272727,
                "end_time": 18.7113636,
                "pitch": 34,
                "velocity": 64,
                "duration": 0.3840909,
                "tempo": 120.0
            },
            {
                "start_time": 18.7272727,
                "end_time": 19.1136364,
                "pitch": 34,
                "velocity": 64,
                "duration": 0.3863636,
                "tempo": 120.0
            },
            {
                "start_time": 19.1295455,
                "end_time": 19.5136364,
                "pitch": 34,
                "velocity": 64,
                "duration": 0.3840909,
                "tempo": 120.0
            },
            {
                "start_time": 19.5295455,
                "end_time": 19.9136364,
                "pitch": 31,
                "velocity": 64,
                "duration": 0.3840909,
                "tempo": 120.0
            },
            {
                "start_time": 19.9295455,
                "end_time": 20.3159091,
                "pitch": 32,
                "velocity": 64,
                "duration": 0.3863636,
                "tempo": 120.0
            },
            {
                "start_time": 20.3318182,
                "end_time": 20.7159091,
                "pitch": 34,
                "velocity": 64,
                "duration": 0.3840909,
                "tempo": 120.0
            },
            {
                "start_time": 20.7318182,
                "end_time": 21.1181818,
                "pitch": 34,
                "velocity": 64,
                "duration": 0.3863636,
                "tempo": 120.0
            },
            {
                "start_time": 21.1340909,
                "end_time": 21.5181818,
                "pitch": 34,
                "velocity": 64,
                "duration": 0.3840909,
                "tempo": 120.0
            },
            {
                "start_time": 21.5340909,
                "end_time": 21.9181818,
                "pitch": 34,
                "velocity": 64,
                "duration": 0.3840909,
                "tempo": 120.0
            },
            {
                "start_time": 21.9340909,
                "end_time": 22.3204545,
                "pitch": 34,
                "velocity": 64,
                "duration": 0.3863636,
                "tempo": 120.0
            },
            {
                "start_time": 22.3386364,
                "end_time": 22.7204545,
                "pitch": 34,
                "velocity": 64,
                "duration": 0.3818182,
                "tempo": 120.0
            },
            {
                "start_time": 22.7386364,
                "end_time": 23.1227273,
                "pitch": 34,
                "velocity": 64,
                "duration": 0.3840909,
                "tempo": 120.0
            },
            {
                "start_time": 23.1409091,
                "end_time": 23.525,
                "pitch": 34,
                "velocity": 64,
                "duration": 0.3840909,
                "tempo": 120.0
            },
            {
                "start_time": 23.5409091,
                "end_time": 23.925,
                "pitch": 34,
                "velocity": 64,
                "duration": 0.3840909,
                "tempo": 120.0
            },
            {
                "start_time": 23.9409091,
                "end_time": 24.3272727,
                "pitch": 34,
                "velocity": 64,
                "duration": 0.3863636,
                "tempo": 120.0
            },
            {
                "start_time": 24.3431818,
                "end_time": 24.7363636,
                "pitch": 34,
                "velocity": 64,
                "duration": 0.3931818,
                "tempo": 120.0
            },
            {
                "start_time": 24.7545455,
                "end_time": 25.1295455,
                "pitch": 34,
                "velocity": 64,
                "duration": 0.375,
                "tempo": 120.0
            },
            {
                "start_time": 25.1454545,
                "end_time": 25.5295455,
                "pitch": 36,
                "velocity": 64,
                "duration": 0.3840909,
                "tempo": 120.0
            },
            {
                "start_time": 25.5454545,
                "end_time": 25.9295455,
                "pitch": 36,
                "velocity": 64,
                "duration": 0.3840909,
                "tempo": 120.0
            },
            {
                "start_time": 25.9454545,
                "end_time": 26.3318182,
                "pitch": 36,
                "velocity": 64,
                "duration": 0.3863636,
                "tempo": 120.0
            },
            {
                "start_time": 26.3477273,
                "end_time": 26.7318182,
                "pitch": 36,
                "velocity": 64,
                "duration": 0.3840909,
                "tempo": 120.0
            },
            {
                "start_time": 26.7477273,
                "end_time": 27.1340909,
                "pitch": 37,
                "velocity": 64,
                "duration": 0.3863636,
                "tempo": 120.0
            },
            {
                "start_time": 27.1522727,
                "end_time": 27.5340909,
                "pitch": 37,
                "velocity": 64,
                "duration": 0.3818182,
                "tempo": 120.0
            },
            {
                "start_time": 27.5522727,
                "end_time": 27.9340909,
                "pitch": 37,
                "velocity": 64,
                "duration": 0.3818182,
                "tempo": 120.0
            },
            {
                "start_time": 27.9522727,
                "end_time": 28.3363636,
                "pitch": 37,
                "velocity": 64,
                "duration": 0.3840909,
                "tempo": 120.0
            },
            {
                "start_time": 28.3545455,
                "end_time": 28.7386364,
                "pitch": 36,
                "velocity": 64,
                "duration": 0.3840909,
                "tempo": 120.0
            },
            {
                "start_time": 28.7545455,
                "end_time": 29.1409091,
                "pitch": 36,
                "velocity": 64,
                "duration": 0.3863636,
                "tempo": 120.0
            },
            {
                "start_time": 29.1568182,
                "end_time": 29.5409091,
                "pitch": 36,
                "velocity": 64,
                "duration": 0.3840909,
                "tempo": 120.0
            },
            {
                "start_time": 29.5568182,
                "end_time": 29.9409091,
                "pitch": 36,
                "velocity": 64,
                "duration": 0.3840909,
                "tempo": 120.0
            },
            {
                "start_time": 29.9568182,
                "end_time": 30.3431818,
                "pitch": 29,
                "velocity": 64,
                "duration": 0.3863636,
                "tempo": 120.0
            },
            {
                "start_time": 30.3590909,
                "end_time": 30.7431818,
                "pitch": 29,
                "velocity": 64,
                "duration": 0.3840909,
                "tempo": 120.0
            },
            {
                "start_time": 30.7590909,
                "end_time": 31.1454545,
                "pitch": 29,
                "velocity": 64,
                "duration": 0.3863636,
                "tempo": 120.0
            },
            {
                "start_time": 31.1613636,
                "end_time": 31.5454545,
                "pitch": 29,
                "velocity": 64,
                "duration": 0.3840909,
                "tempo": 120.0
            },
            {
                "start_time": 31.5613636,
                "end_time": 31.9386364,
                "pitch": 31,
                "velocity": 64,
                "duration": 0.3772727,
                "tempo": 120.0
            },
            {
                "start_time": 31.9545455,
                "end_time": 32.3477273,
                "pitch": 31,
                "velocity": 64,
                "duration": 0.3931818,
                "tempo": 120.0
            },
            {
                "start_time": 32.3659091,
                "end_time": 32.75,
                "pitch": 31,
                "velocity": 64,
                "duration": 0.3840909,
                "tempo": 120.0
            },
            {
                "start_time": 32.7681818,
                "end_time": 33.1522727,
                "pitch": 31,
                "velocity": 64,
                "duration": 0.3840909,
                "tempo": 120.0
            },
            {
                "start_time": 33.1681818,
                "end_time": 33.5522727,
                "pitch": 37,
                "velocity": 64,
                "duration": 0.3840909,
                "tempo": 120.0
            },
            {
                "start_time": 33.5681818,
                "end_time": 33.9431818,
                "pitch": 37,
                "velocity": 64,
                "duration": 0.375,
                "tempo": 120.0
            },
            {
                "start_time": 33.9590909,
                "end_time": 34.3545455,
                "pitch": 37,
                "velocity": 64,
                "duration": 0.3954545,
                "tempo": 120.0
            },
            {
                "start_time": 34.3704545,
                "end_time": 34.7568182,
                "pitch": 37,
                "velocity": 64,
                "duration": 0.3863636,
                "tempo": 120.0
            },
            {
                "start_time": 34.7727273,
                "end_time": 35.15,
                "pitch": 36,
                "velocity": 64,
                "duration": 0.3772727,
                "tempo": 120.0
            },
            {
                "start_time": 35.1659091,
                "end_time": 35.5590909,
                "pitch": 36,
                "velocity": 64,
                "duration": 0.3931818,
                "tempo": 120.0
            },
            {
                "start_time": 35.5772727,
                "end_time": 35.9590909,
                "pitch": 36,
                "velocity": 64,
                "duration": 0.3818182,
                "tempo": 120.0
            },
            {
                "start_time": 35.9772727,
                "end_time": 36.3590909,
                "pitch": 36,
                "velocity": 64,
                "duration": 0.3818182,
                "tempo": 120.0
            },
            {
                "start_time": 36.3772727,
                "end_time": 36.5613636,
                "pitch": 32,
                "velocity": 64,
                "duration": 0.1840909,
                "tempo": 120.0
            },
            {
                "start_time": 36.5772727,
                "end_time": 36.7613636,
                "pitch": 32,
                "velocity": 64,
                "duration": 0.1840909,
                "tempo": 120.0
            },
            {
                "start_time": 36.7795455,
                "end_time": 36.9590909,
                "pitch": 32,
                "velocity": 64,
                "duration": 0.1795455,
                "tempo": 120.0
            },
            {
                "start_time": 36.975,
                "end_time": 37.9681818,
                "pitch": 33,
                "velocity": 64,
                "duration": 0.9931818,
                "tempo": 120.0
            },
            {
                "start_time": 37.9840909,
                "end_time": 38.1681818,
                "pitch": 34,
                "velocity": 64,
                "duration": 0.1840909,
                "tempo": 120.0
            },
            {
                "start_time": 38.1840909,
                "end_time": 38.3681818,
                "pitch": 34,
                "velocity": 64,
                "duration": 0.1840909,
                "tempo": 120.0
            },
            {
                "start_time": 38.3840909,
                "end_time": 38.5636364,
                "pitch": 34,
                "velocity": 64,
                "duration": 0.1795455,
                "tempo": 120.0
            },
            {
                "start_time": 38.5818182,
                "end_time": 39.5636364,
                "pitch": 36,
                "velocity": 64,
                "duration": 0.9818182,
                "tempo": 120.0
            },
            {
                "start_time": 39.5795455,
                "end_time": 39.9727273,
                "pitch": 34,
                "velocity": 64,
                "duration": 0.3931818,
                "tempo": 120.0
            }
        ],
        "Electric Guitar (clean)": [
            {
                "start_time": 0.0,
                "end_time": 0.05,
                "pitch": 44,
                "velocity": 51,
                "duration": 0.05,
                "tempo": 120.0
            },
            {
                "start_time": 0.05,
                "end_time": 0.1,
                "pitch": 47,
                "velocity": 51,
                "duration": 0.05,
                "tempo": 120.0
            },
            {
                "start_time": 0.1,
                "end_time": 0.15,
                "pitch": 49,
                "velocity": 51,
                "duration": 0.05,
                "tempo": 120.0
            },
            {
                "start_time": 0.15,
                "end_time": 0.2159091,
                "pitch": 51,
                "velocity": 51,
                "duration": 0.0659091,
                "tempo": 120.0
            },
            {
                "start_time": 0.2159091,
                "end_time": 0.25,
                "pitch": 54,
                "velocity": 51,
                "duration": 0.0340909,
                "tempo": 120.0
            },
            {
                "start_time": 0.25,
                "end_time": 0.2840909,
                "pitch": 55,
                "velocity": 51,
                "duration": 0.0340909,
                "tempo": 120.0
            },
            {
                "start_time": 0.2840909,
                "end_time": 0.3340909,
                "pitch": 57,
                "velocity": 51,
                "duration": 0.05,
                "tempo": 120.0
            },
            {
                "start_time": 0.3340909,
                "end_time": 0.3840909,
                "pitch": 60,
                "velocity": 51,
                "duration": 0.05,
                "tempo": 120.0
            },
            {
                "start_time": 0.3840909,
                "end_time": 0.4340909,
                "pitch": 62,
                "velocity": 51,
                "duration": 0.05,
                "tempo": 120.0
            },
            {
                "start_time": 0.4340909,
                "end_time": 0.5,
                "pitch": 64,
                "velocity": 51,
                "duration": 0.0659091,
                "tempo": 120.0
            },
            {
                "start_time": 0.5,
                "end_time": 0.5159091,
                "pitch": 66,
                "velocity": 51,
                "duration": 0.0159091,
                "tempo": 120.0
            },
            {
                "start_time": 0.5159091,
                "end_time": 0.55,
                "pitch": 67,
                "velocity": 51,
                "duration": 0.0340909,
                "tempo": 120.0
            },
            {
                "start_time": 0.55,
                "end_time": 0.6,
                "pitch": 69,
                "velocity": 51,
                "duration": 0.05,
                "tempo": 120.0
            },
            {
                "start_time": 0.6,
                "end_time": 0.65,
                "pitch": 72,
                "velocity": 51,
                "duration": 0.05,
                "tempo": 120.0
            },
            {
                "start_time": 0.65,
                "end_time": 0.7,
                "pitch": 74,
                "velocity": 51,
                "duration": 0.05,
                "tempo": 120.0
            },
            {
                "start_time": 0.7,
                "end_time": 0.7659091,
                "pitch": 76,
                "velocity": 51,
                "duration": 0.0659091,
                "tempo": 120.0
            },
            {
                "start_time": 0.7659091,
                "end_time": 0.7840909,
                "pitch": 78,
                "velocity": 51,
                "duration": 0.0181818,
                "tempo": 120.0
            },
            {
                "start_time": 0.7840909,
                "end_time": 0.8159091,
                "pitch": 79,
                "velocity": 51,
                "duration": 0.0318182,
                "tempo": 120.0
            },
            {
                "start_time": 0.8159091,
                "end_time": 0.8659091,
                "pitch": 81,
                "velocity": 51,
                "duration": 0.05,
                "tempo": 120.0
            },
            {
                "start_time": 0.8659091,
                "end_time": 0.9159091,
                "pitch": 84,
                "velocity": 51,
                "duration": 0.05,
                "tempo": 120.0
            },
            {
                "start_time": 0.9159091,
                "end_time": 0.9659091,
                "pitch": 86,
                "velocity": 51,
                "duration": 0.05,
                "tempo": 120.0
            },
            {
                "start_time": 0.9659091,
                "end_time": 1.0340909,
                "pitch": 88,
                "velocity": 51,
                "duration": 0.0681818,
                "tempo": 120.0
            },
            {
                "start_time": 1.0340909,
                "end_time": 1.05,
                "pitch": 90,
                "velocity": 51,
                "duration": 0.0159091,
                "tempo": 120.0
            },
            {
                "start_time": 1.05,
                "end_time": 1.0659091,
                "pitch": 91,
                "velocity": 51,
                "duration": 0.0159091,
                "tempo": 120.0
            },
            {
                "start_time": 1.0659091,
                "end_time": 1.4318182,
                "pitch": 46,
                "velocity": 51,
                "duration": 0.3659091,
                "tempo": 120.0
            },
            {
                "start_time": 1.4477273,
                "end_time": 1.8431818,
                "pitch": 46,
                "velocity": 51,
                "duration": 0.3954545,
                "tempo": 120.0
            },
            {
                "start_time": 1.8590909,
                "end_time": 2.2454545,
                "pitch": 46,
                "velocity": 51,
                "duration": 0.3863636,
                "tempo": 120.0
            },
            {
                "start_time": 2.2613636,
                "end_time": 2.6454545,
                "pitch": 46,
                "velocity": 51,
                "duration": 0.3840909,
                "tempo": 120.0
            },
            {
                "start_time": 2.6613636,
                "end_time": 3.0454545,
                "pitch": 46,
                "velocity": 51,
                "duration": 0.3840909,
                "tempo": 120.0
            },
            {
                "start_time": 3.0613636,
                "end_time": 3.4454545,
                "pitch": 46,
                "velocity": 51,
                "duration": 0.3840909,
                "tempo": 120.0
            },
            {
                "start_time": 3.4613636,
                "end_time": 3.8477273,
                "pitch": 46,
                "velocity": 51,
                "duration": 0.3863636,
                "tempo": 120.0
            },
            {
                "start_time": 3.8636364,
                "end_time": 4.2477273,
                "pitch": 46,
                "velocity": 51,
                "duration": 0.3840909,
                "tempo": 120.0
            },
            {
                "start_time": 4.2636364,
                "end_time": 4.6477273,
                "pitch": 46,
                "velocity": 51,
                "duration": 0.3840909,
                "tempo": 120.0
            },
            {
                "start_time": 4.6636364,
                "end_time": 5.05,
                "pitch": 46,
                "velocity": 51,
                "duration": 0.3863636,
                "tempo": 120.0
            },
            {
                "start_time": 5.0681818,
                "end_time": 5.4522727,
                "pitch": 46,
                "velocity": 51,
                "duration": 0.3840909,
                "tempo": 120.0
            },
            {
                "start_time": 5.4704545,
                "end_time": 5.8545455,
                "pitch": 46,
                "velocity": 51,
                "duration": 0.3840909,
                "tempo": 120.0
            },
            {
                "start_time": 5.8704545,
                "end_time": 6.2568182,
                "pitch": 46,
                "velocity": 51,
                "duration": 0.3863636,
                "tempo": 120.0
            },
            {
                "start_time": 6.2727273,
                "end_time": 6.6568182,
                "pitch": 46,
                "velocity": 51,
                "duration": 0.3840909,
                "tempo": 120.0
            },
            {
                "start_time": 6.6727273,
                "end_time": 7.0590909,
                "pitch": 43,
                "velocity": 51,
                "duration": 0.3863636,
                "tempo": 120.0
            },
            {
                "start_time": 7.075,
                "end_time": 7.4613636,
                "pitch": 44,
                "velocity": 51,
                "duration": 0.3863636,
                "tempo": 120.0
            },
            {
                "start_time": 7.4772727,
                "end_time": 7.8613636,
                "pitch": 46,
                "velocity": 51,
                "duration": 0.3840909,
                "tempo": 120.0
            },
            {
                "start_time": 7.8772727,
                "end_time": 8.2636364,
                "pitch": 46,
                "velocity": 51,
                "duration": 0.3863636,
                "tempo": 120.0
            },
            {
                "start_time": 8.2818182,
                "end_time": 8.675,
                "pitch": 46,
                "velocity": 51,
                "duration": 0.3931818,
                "tempo": 120.0
            },
            {
                "start_time": 8.6909091,
                "end_time": 9.0681818,
                "pitch": 46,
                "velocity": 51,
                "duration": 0.3772727,
                "tempo": 120.0
            },
            {
                "start_time": 9.0840909,
                "end_time": 9.4704545,
                "pitch": 46,
                "velocity": 51,
                "duration": 0.3863636,
                "tempo": 120.0
            },
            {
                "start_time": 9.4863636,
                "end_time": 9.8727273,
                "pitch": 46,
                "velocity": 51,
                "duration": 0.3863636,
                "tempo": 120.0
            },
            {
                "start_time": 9.8886364,
                "end_time": 10.2727273,
                "pitch": 46,
                "velocity": 51,
                "duration": 0.3840909,
                "tempo": 120.0
            },
            {
                "start_time": 10.2886364,
                "end_time": 10.675,
                "pitch": 46,
                "velocity": 51,
                "duration": 0.3863636,
                "tempo": 120.0
            },
            {
                "start_time": 10.6909091,
                "end_time": 11.0772727,
                "pitch": 46,
                "velocity": 51,
                "duration": 0.3863636,
                "tempo": 120.0
            },
            {
                "start_time": 11.0954545,
                "end_time": 11.4795455,
                "pitch": 46,
                "velocity": 51,
                "duration": 0.3840909,
                "tempo": 120.0
            },
            {
                "start_time": 11.4977273,
                "end_time": 11.8909091,
                "pitch": 46,
                "velocity": 51,
                "duration": 0.3931818,
                "tempo": 120.0
            },
            {
                "start_time": 11.9068182,
                "end_time": 12.2840909,
                "pitch": 46,
                "velocity": 51,
                "duration": 0.3772727,
                "tempo": 120.0
            },
            {
                "start_time": 12.3,
                "end_time": 12.6863636,
                "pitch": 48,
                "velocity": 51,
                "duration": 0.3863636,
                "tempo": 120.0
            },
            {
                "start_time": 12.7022727,
                "end_time": 13.0886364,
                "pitch": 48,
                "velocity": 51,
                "duration": 0.3863636,
                "tempo": 120.0
            },
            {
                "start_time": 13.1045455,
                "end_time": 13.4909091,
                "pitch": 48,
                "velocity": 51,
                "duration": 0.3863636,
                "tempo": 120.0
            },
            {
                "start_time": 13.5090909,
                "end_time": 13.8931818,
                "pitch": 48,
                "velocity": 51,
                "duration": 0.3840909,
                "tempo": 120.0
            },
            {
                "start_time": 13.9113636,
                "end_time": 14.2931818,
                "pitch": 46,
                "velocity": 51,
                "duration": 0.3818182,
                "tempo": 120.0
            },
            {
                "start_time": 14.3113636,
                "end_time": 14.6977273,
                "pitch": 46,
                "velocity": 51,
                "duration": 0.3863636,
                "tempo": 120.0
            },
            {
                "start_time": 14.7136364,
                "end_time": 15.1068182,
                "pitch": 46,
                "velocity": 51,
                "duration": 0.3931818,
                "tempo": 120.0
            },
            {
                "start_time": 15.125,
                "end_time": 15.5,
                "pitch": 46,
                "velocity": 51,
                "duration": 0.375,
                "tempo": 120.0
            },
            {
                "start_time": 15.5159091,
                "end_time": 15.9022727,
                "pitch": 46,
                "velocity": 51,
                "duration": 0.3863636,
                "tempo": 120.0
            },
            {
                "start_time": 15.9181818,
                "end_time": 16.3022727,
                "pitch": 46,
                "velocity": 51,
                "duration": 0.3840909,
                "tempo": 120.0
            },
            {
                "start_time": 16.3181818,
                "end_time": 16.7045455,
                "pitch": 46,
                "velocity": 51,
                "duration": 0.3863636,
                "tempo": 120.0
            },
            {
                "start_time": 16.7227273,
                "end_time": 17.1068182,
                "pitch": 46,
                "velocity": 51,
                "duration": 0.3840909,
                "tempo": 120.0
            },
            {
                "start_time": 17.125,
                "end_time": 17.5068182,
                "pitch": 46,
                "velocity": 51,
                "duration": 0.3818182,
                "tempo": 120.0
            },
            {
                "start_time": 17.525,
                "end_time": 17.9068182,
                "pitch": 46,
                "velocity": 51,
                "duration": 0.3818182,
                "tempo": 120.0
            },
            {
                "start_time": 17.925,
                "end_time": 18.3113636,
                "pitch": 46,
                "velocity": 51,
                "duration": 0.3863636,
                "tempo": 120.0
            },
            {
                "start_time": 18.3272727,
                "end_time": 18.7113636,
                "pitch": 46,
                "velocity": 51,
                "duration": 0.3840909,
                "tempo": 120.0
            },
            {
                "start_time": 18.7272727,
                "end_time": 19.1136364,
                "pitch": 46,
                "velocity": 51,
                "duration": 0.3863636,
                "tempo": 120.0
            },
            {
                "start_time": 19.1295455,
                "end_time": 19.5136364,
                "pitch": 46,
                "velocity": 51,
                "duration": 0.3840909,
                "tempo": 120.0
            },
            {
                "start_time": 19.5295455,
                "end_time": 19.9136364,
                "pitch": 43,
                "velocity": 51,
                "duration": 0.3840909,
                "tempo": 120.0
            },
            {
                "start_time": 19.9295455,
                "end_time": 20.3159091,
                "pitch": 44,
                "velocity": 51,
                "duration": 0.3863636,
                "tempo": 120.0
            },
            {
                "start_time": 20.3318182,
                "end_time": 20.7159091,
                "pitch": 46,
                "velocity": 51,
                "duration": 0.3840909,
                "tempo": 120.0
            },
            {
                "start_time": 20.7318182,
                "end_time": 21.1181818,
                "pitch": 46,
                "velocity": 51,
                "duration": 0.3863636,
                "tempo": 120.0
            },
            {
                "start_time": 21.1340909,
                "end_time": 21.5181818,
                "pitch": 46,
                "velocity": 51,
                "duration": 0.3840909,
                "tempo": 120.0
            },
            {
                "start_time": 21.5340909,
                "end_time": 21.9181818,
                "pitch": 46,
                "velocity": 51,
                "duration": 0.3840909,
                "tempo": 120.0
            },
            {
                "start_time": 21.9340909,
                "end_time": 22.3204545,
                "pitch": 46,
                "velocity": 51,
                "duration": 0.3863636,
                "tempo": 120.0
            },
            {
                "start_time": 22.3386364,
                "end_time": 22.7204545,
                "pitch": 46,
                "velocity": 51,
                "duration": 0.3818182,
                "tempo": 120.0
            },
            {
                "start_time": 22.7386364,
                "end_time": 23.1227273,
                "pitch": 46,
                "velocity": 51,
                "duration": 0.3840909,
                "tempo": 120.0
            },
            {
                "start_time": 23.1409091,
                "end_time": 23.525,
                "pitch": 46,
                "velocity": 51,
                "duration": 0.3840909,
                "tempo": 120.0
            },
            {
                "start_time": 23.5409091,
                "end_time": 23.925,
                "pitch": 46,
                "velocity": 51,
                "duration": 0.3840909,
                "tempo": 120.0
            },
            {
                "start_time": 23.9409091,
                "end_time": 24.3272727,
                "pitch": 46,
                "velocity": 51,
                "duration": 0.3863636,
                "tempo": 120.0
            },
            {
                "start_time": 24.3431818,
                "end_time": 24.7363636,
                "pitch": 46,
                "velocity": 51,
                "duration": 0.3931818,
                "tempo": 120.0
            },
            {
                "start_time": 24.7545455,
                "end_time": 25.1295455,
                "pitch": 46,
                "velocity": 51,
                "duration": 0.375,
                "tempo": 120.0
            },
            {
                "start_time": 25.1454545,
                "end_time": 25.5295455,
                "pitch": 48,
                "velocity": 51,
                "duration": 0.3840909,
                "tempo": 120.0
            },
            {
                "start_time": 25.5454545,
                "end_time": 25.9295455,
                "pitch": 48,
                "velocity": 51,
                "duration": 0.3840909,
                "tempo": 120.0
            },
            {
                "start_time": 25.9454545,
                "end_time": 26.3318182,
                "pitch": 48,
                "velocity": 51,
                "duration": 0.3863636,
                "tempo": 120.0
            },
            {
                "start_time": 26.3477273,
                "end_time": 26.7318182,
                "pitch": 48,
                "velocity": 51,
                "duration": 0.3840909,
                "tempo": 120.0
            },
            {
                "start_time": 26.7477273,
                "end_time": 27.1340909,
                "pitch": 49,
                "velocity": 51,
                "duration": 0.3863636,
                "tempo": 120.0
            },
            {
                "start_time": 27.1522727,
                "end_time": 27.5340909,
                "pitch": 49,
                "velocity": 51,
                "duration": 0.3818182,
                "tempo": 120.0
            },
            {
                "start_time": 27.5522727,
                "end_time": 27.9340909,
                "pitch": 49,
                "velocity": 51,
                "duration": 0.3818182,
                "tempo": 120.0
            },
            {
                "start_time": 27.9522727,
                "end_time": 28.3363636,
                "pitch": 49,
                "velocity": 51,
                "duration": 0.3840909,
                "tempo": 120.0
            },
            {
                "start_time": 28.3545455,
                "end_time": 28.7386364,
                "pitch": 48,
                "velocity": 51,
                "duration": 0.3840909,
                "tempo": 120.0
            },
            {
                "start_time": 28.7545455,
                "end_time": 29.1409091,
                "pitch": 48,
                "velocity": 51,
                "duration": 0.3863636,
                "tempo": 120.0
            },
            {
                "start_time": 29.1568182,
                "end_time": 29.5409091,
                "pitch": 48,
                "velocity": 51,
                "duration": 0.3840909,
                "tempo": 120.0
            },
            {
                "start_time": 29.5568182,
                "end_time": 29.9409091,
                "pitch": 48,
                "velocity": 51,
                "duration": 0.3840909,
                "tempo": 120.0
            },
            {
                "start_time": 29.9568182,
                "end_time": 30.3431818,
                "pitch": 41,
                "velocity": 51,
                "duration": 0.3863636,
                "tempo": 120.0
            },
            {
                "start_time": 30.3590909,
                "end_time": 30.7431818,
                "pitch": 41,
                "velocity": 51,
                "duration": 0.3840909,
                "tempo": 120.0
            },
            {
                "start_time": 30.7590909,
                "end_time": 31.1454545,
                "pitch": 41,
                "velocity": 51,
                "duration": 0.3863636,
                "tempo": 120.0
            },
            {
                "start_time": 31.1613636,
                "end_time": 31.5454545,
                "pitch": 41,
                "velocity": 51,
                "duration": 0.3840909,
                "tempo": 120.0
            },
            {
                "start_time": 31.5613636,
                "end_time": 31.9386364,
                "pitch": 43,
                "velocity": 51,
                "duration": 0.3772727,
                "tempo": 120.0
            },
            {
                "start_time": 31.9545455,
                "end_time": 32.3477273,
                "pitch": 43,
                "velocity": 51,
                "duration": 0.3931818,
                "tempo": 120.0
            },
            {
                "start_time": 32.3659091,
                "end_time": 32.75,
                "pitch": 43,
                "velocity": 51,
                "duration": 0.3840909,
                "tempo": 120.0
            },
            {
                "start_time": 32.7681818,
                "end_time": 33.1522727,
                "pitch": 43,
                "velocity": 51,
                "duration": 0.3840909,
                "tempo": 120.0
            },
            {
                "start_time": 33.1681818,
                "end_time": 33.5522727,
                "pitch": 49,
                "velocity": 51,
                "duration": 0.3840909,
                "tempo": 120.0
            },
            {
                "start_time": 33.5681818,
                "end_time": 33.9431818,
                "pitch": 49,
                "velocity": 51,
                "duration": 0.375,
                "tempo": 120.0
            },
            {
                "start_time": 33.9590909,
                "end_time": 34.3545455,
                "pitch": 49,
                "velocity": 51,
                "duration": 0.3954545,
                "tempo": 120.0
            },
            {
                "start_time": 34.3704545,
                "end_time": 34.7568182,
                "pitch": 49,
                "velocity": 51,
                "duration": 0.3863636,
                "tempo": 120.0
            },
            {
                "start_time": 34.7727273,
                "end_time": 35.15,
                "pitch": 48,
                "velocity": 51,
                "duration": 0.3772727,
                "tempo": 120.0
            },
            {
                "start_time": 35.1659091,
                "end_time": 35.5590909,
                "pitch": 48,
                "velocity": 51,
                "duration": 0.3931818,
                "tempo": 120.0
            },
            {
                "start_time": 35.5772727,
                "end_time": 35.9590909,
                "pitch": 48,
                "velocity": 51,
                "duration": 0.3818182,
                "tempo": 120.0
            },
            {
                "start_time": 35.9772727,
                "end_time": 36.3590909,
                "pitch": 48,
                "velocity": 51,
                "duration": 0.3818182,
                "tempo": 120.0
            },
            {
                "start_time": 36.3772727,
                "end_time": 36.5613636,
                "pitch": 44,
                "velocity": 51,
                "duration": 0.1840909,
                "tempo": 120.0
            },
            {
                "start_time": 36.5772727,
                "end_time": 36.7613636,
                "pitch": 44,
                "velocity": 51,
                "duration": 0.1840909,
                "tempo": 120.0
            },
            {
                "start_time": 36.7795455,
                "end_time": 36.9590909,
                "pitch": 44,
                "velocity": 51,
                "duration": 0.1795455,
                "tempo": 120.0
            },
            {
                "start_time": 36.975,
                "end_time": 37.9681818,
                "pitch": 45,
                "velocity": 51,
                "duration": 0.9931818,
                "tempo": 120.0
            },
            {
                "start_time": 37.9840909,
                "end_time": 38.1681818,
                "pitch": 46,
                "velocity": 51,
                "duration": 0.1840909,
                "tempo": 120.0
            },
            {
                "start_time": 38.1840909,
                "end_time": 38.3681818,
                "pitch": 46,
                "velocity": 51,
                "duration": 0.1840909,
                "tempo": 120.0
            },
            {
                "start_time": 38.3840909,
                "end_time": 38.5636364,
                "pitch": 46,
                "velocity": 51,
                "duration": 0.1795455,
                "tempo": 120.0
            },
            {
                "start_time": 38.5818182,
                "end_time": 39.5636364,
                "pitch": 48,
                "velocity": 51,
                "duration": 0.9818182,
                "tempo": 120.0
            },
            {
                "start_time": 39.5795455,
                "end_time": 39.9727273,
                "pitch": 46,
                "velocity": 51,
                "duration": 0.3931818,
                "tempo": 120.0
            }
        ],
        "Vibraphone": [
            {
                "start_time": 0.0340909,
                "end_time": 0.0840909,
                "pitch": 44,
                "velocity": 51,
                "duration": 0.05,
                "tempo": 120.0
            },
            {
                "start_time": 0.0840909,
                "end_time": 0.1340909,
                "pitch": 47,
                "velocity": 51,
                "duration": 0.05,
                "tempo": 120.0
            },
            {
                "start_time": 0.1340909,
                "end_time": 0.1840909,
                "pitch": 49,
                "velocity": 51,
                "duration": 0.05,
                "tempo": 120.0
            },
            {
                "start_time": 0.1840909,
                "end_time": 0.25,
                "pitch": 51,
                "velocity": 51,
                "duration": 0.0659091,
                "tempo": 120.0
            },
            {
                "start_time": 0.25,
                "end_time": 0.2840909,
                "pitch": 54,
                "velocity": 51,
                "duration": 0.0340909,
                "tempo": 120.0
            },
            {
                "start_time": 0.2840909,
                "end_time": 0.3159091,
                "pitch": 55,
                "velocity": 51,
                "duration": 0.0318182,
                "tempo": 120.0
            },
            {
                "start_time": 0.3159091,
                "end_time": 0.3659091,
                "pitch": 57,
                "velocity": 51,
                "duration": 0.05,
                "tempo": 120.0
            },
            {
                "start_time": 0.3659091,
                "end_time": 0.4159091,
                "pitch": 60,
                "velocity": 51,
                "duration": 0.05,
                "tempo": 120.0
            },
            {
                "start_time": 0.4159091,
                "end_time": 0.4659091,
                "pitch": 62,
                "velocity": 51,
                "duration": 0.05,
                "tempo": 120.0
            },
            {
                "start_time": 0.4659091,
                "end_time": 0.5340909,
                "pitch": 64,
                "velocity": 51,
                "duration": 0.0681818,
                "tempo": 120.0
            },
            {
                "start_time": 0.5340909,
                "end_time": 0.55,
                "pitch": 66,
                "velocity": 51,
                "duration": 0.0159091,
                "tempo": 120.0
            },
            {
                "start_time": 0.55,
                "end_time": 0.5840909,
                "pitch": 67,
                "velocity": 51,
                "duration": 0.0340909,
                "tempo": 120.0
            },
            {
                "start_time": 0.5840909,
                "end_time": 0.6340909,
                "pitch": 69,
                "velocity": 51,
                "duration": 0.05,
                "tempo": 120.0
            },
            {
                "start_time": 0.6340909,
                "end_time": 0.6840909,
                "pitch": 72,
                "velocity": 51,
                "duration": 0.05,
                "tempo": 120.0
            },
            {
                "start_time": 0.6840909,
                "end_time": 0.7340909,
                "pitch": 74,
                "velocity": 51,
                "duration": 0.05,
                "tempo": 120.0
            },
            {
                "start_time": 0.7340909,
                "end_time": 0.8,
                "pitch": 76,
                "velocity": 51,
                "duration": 0.0659091,
                "tempo": 120.0
            },
            {
                "start_time": 0.8,
                "end_time": 0.8159091,
                "pitch": 78,
                "velocity": 51,
                "duration": 0.0159091,
                "tempo": 120.0
            },
            {
                "start_time": 0.8159091,
                "end_time": 0.85,
                "pitch": 79,
                "velocity": 51,
                "duration": 0.0340909,
                "tempo": 120.0
            },
            {
                "start_time": 0.85,
                "end_time": 0.9,
                "pitch": 81,
                "velocity": 51,
                "duration": 0.05,
                "tempo": 120.0
            },
            {
                "start_time": 0.9,
                "end_time": 0.95,
                "pitch": 84,
                "velocity": 51,
                "duration": 0.05,
                "tempo": 120.0
            },
            {
                "start_time": 0.95,
                "end_time": 1.0,
                "pitch": 86,
                "velocity": 51,
                "duration": 0.05,
                "tempo": 120.0
            },
            {
                "start_time": 1.0,
                "end_time": 1.0659091,
                "pitch": 88,
                "velocity": 51,
                "duration": 0.0659091,
                "tempo": 120.0
            },
            {
                "start_time": 1.0659091,
                "end_time": 1.0818182,
                "pitch": 90,
                "velocity": 51,
                "duration": 0.0159091,
                "tempo": 120.0
            },
            {
                "start_time": 1.0818182,
                "end_time": 1.0977273,
                "pitch": 91,
                "velocity": 51,
                "duration": 0.0159091,
                "tempo": 120.0
            },
            {
                "start_time": 1.0977273,
                "end_time": 1.4659091,
                "pitch": 73,
                "velocity": 51,
                "duration": 0.3681818,
                "tempo": 120.0
            },
            {
                "start_time": 1.4818182,
                "end_time": 1.875,
                "pitch": 70,
                "velocity": 51,
                "duration": 0.3931818,
                "tempo": 120.0
            },
            {
                "start_time": 1.8931818,
                "end_time": 2.2795455,
                "pitch": 77,
                "velocity": 51,
                "duration": 0.3863636,
                "tempo": 120.0
            },
            {
                "start_time": 2.2954545,
                "end_time": 2.6795455,
                "pitch": 70,
                "velocity": 51,
                "duration": 0.3840909,
                "tempo": 120.0
            },
            {
                "start_time": 2.6954545,
                "end_time": 3.0795455,
                "pitch": 73,
                "velocity": 51,
                "duration": 0.3840909,
                "tempo": 120.0
            },
            {
                "start_time": 3.0954545,
                "end_time": 3.4795455,
                "pitch": 70,
                "velocity": 51,
                "duration": 0.3840909,
                "tempo": 120.0
            },
            {
                "start_time": 3.4954545,
                "end_time": 3.8818182,
                "pitch": 77,
                "velocity": 51,
                "duration": 0.3863636,
                "tempo": 120.0
            },
            {
                "start_time": 3.8977273,
                "end_time": 4.2818182,
                "pitch": 70,
                "velocity": 51,
                "duration": 0.3840909,
                "tempo": 120.0
            },
            {
                "start_time": 4.2977273,
                "end_time": 4.6818182,
                "pitch": 73,
                "velocity": 51,
                "duration": 0.3840909,
                "tempo": 120.0
            },
            {
                "start_time": 4.6977273,
                "end_time": 5.0840909,
                "pitch": 70,
                "velocity": 51,
                "duration": 0.3863636,
                "tempo": 120.0
            },
            {
                "start_time": 5.1,
                "end_time": 5.4863636,
                "pitch": 77,
                "velocity": 51,
                "duration": 0.3863636,
                "tempo": 120.0
            },
            {
                "start_time": 5.5045455,
                "end_time": 5.8863636,
                "pitch": 73,
                "velocity": 51,
                "duration": 0.3818182,
                "tempo": 120.0
            },
            {
                "start_time": 5.9045455,
                "end_time": 6.6886364,
                "pitch": 80,
                "velocity": 51,
                "duration": 0.7840909,
                "tempo": 120.0
            },
            {
                "start_time": 6.7068182,
                "end_time": 7.0931818,
                "pitch": 79,
                "velocity": 51,
                "duration": 0.3863636,
                "tempo": 120.0
            },
            {
                "start_time": 7.1090909,
                "end_time": 7.4954545,
                "pitch": 77,
                "velocity": 51,
                "duration": 0.3863636,
                "tempo": 120.0
            },
            {
                "start_time": 7.5113636,
                "end_time": 7.8954545,
                "pitch": 73,
                "velocity": 51,
                "duration": 0.3840909,
                "tempo": 120.0
            },
            {
                "start_time": 7.9113636,
                "end_time": 8.2977273,
                "pitch": 70,
                "velocity": 51,
                "duration": 0.3863636,
                "tempo": 120.0
            },
            {
                "start_time": 8.3159091,
                "end_time": 8.7090909,
                "pitch": 77,
                "velocity": 51,
                "duration": 0.3931818,
                "tempo": 120.0
            },
            {
                "start_time": 8.725,
                "end_time": 9.1,
                "pitch": 70,
                "velocity": 51,
                "duration": 0.375,
                "tempo": 120.0
            },
            {
                "start_time": 9.1181818,
                "end_time": 9.5022727,
                "pitch": 73,
                "velocity": 51,
                "duration": 0.3840909,
                "tempo": 120.0
            },
            {
                "start_time": 9.5204545,
                "end_time": 9.9068182,
                "pitch": 70,
                "velocity": 51,
                "duration": 0.3863636,
                "tempo": 120.0
            },
            {
                "start_time": 9.9227273,
                "end_time": 10.3068182,
                "pitch": 77,
                "velocity": 51,
                "duration": 0.3840909,
                "tempo": 120.0
            },
            {
                "start_time": 10.3227273,
                "end_time": 10.7090909,
                "pitch": 70,
                "velocity": 51,
                "duration": 0.3863636,
                "tempo": 120.0
            },
            {
                "start_time": 10.725,
                "end_time": 11.1113636,
                "pitch": 73,
                "velocity": 51,
                "duration": 0.3863636,
                "tempo": 120.0
            },
            {
                "start_time": 11.1272727,
                "end_time": 11.5136364,
                "pitch": 70,
                "velocity": 51,
                "duration": 0.3863636,
                "tempo": 120.0
            },
            {
                "start_time": 11.5318182,
                "end_time": 11.925,
                "pitch": 77,
                "velocity": 51,
                "duration": 0.3931818,
                "tempo": 120.0
            },
            {
                "start_time": 11.9409091,
                "end_time": 12.3159091,
                "pitch": 73,
                "velocity": 51,
                "duration": 0.375,
                "tempo": 120.0
            },
            {
                "start_time": 12.3340909,
                "end_time": 12.5181818,
                "pitch": 79,
                "velocity": 51,
                "duration": 0.1840909,
                "tempo": 120.0
            },
            {
                "start_time": 12.5340909,
                "end_time": 12.5681818,
                "pitch": 66,
                "velocity": 51,
                "duration": 0.0340909,
                "tempo": 120.0
            },
            {
                "start_time": 12.5681818,
                "end_time": 12.6022727,
                "pitch": 63,
                "velocity": 51,
                "duration": 0.0340909,
                "tempo": 120.0
            },
            {
                "start_time": 12.6022727,
                "end_time": 12.6363636,
                "pitch": 60,
                "velocity": 51,
                "duration": 0.0340909,
                "tempo": 120.0
            },
            {
                "start_time": 12.6363636,
                "end_time": 12.6522727,
                "pitch": 57,
                "velocity": 51,
                "duration": 0.0159091,
                "tempo": 120.0
            },
            {
                "start_time": 12.6522727,
                "end_time": 12.6863636,
                "pitch": 55,
                "velocity": 51,
                "duration": 0.0340909,
                "tempo": 120.0
            },
            {
                "start_time": 12.6863636,
                "end_time": 12.7204545,
                "pitch": 52,
                "velocity": 51,
                "duration": 0.0340909,
                "tempo": 120.0
            },
            {
                "start_time": 12.7204545,
                "end_time": 12.7363636,
                "pitch": 50,
                "velocity": 51,
                "duration": 0.0159091,
                "tempo": 120.0
            },
            {
                "start_time": 12.7363636,
                "end_time": 12.7704545,
                "pitch": 63,
                "velocity": 51,
                "duration": 0.0340909,
                "tempo": 120.0
            },
            {
                "start_time": 12.7704545,
                "end_time": 12.7863636,
                "pitch": 60,
                "velocity": 51,
                "duration": 0.0159091,
                "tempo": 120.0
            },
            {
                "start_time": 12.7863636,
                "end_time": 12.8022727,
                "pitch": 58,
                "velocity": 51,
                "duration": 0.0159091,
                "tempo": 120.0
            },
            {
                "start_time": 12.8022727,
                "end_time": 12.8204545,
                "pitch": 55,
                "velocity": 51,
                "duration": 0.0181818,
                "tempo": 120.0
            },
            {
                "start_time": 12.8204545,
                "end_time": 12.8545455,
                "pitch": 54,
                "velocity": 51,
                "duration": 0.0340909,
                "tempo": 120.0
            },
            {
                "start_time": 12.8545455,
                "end_time": 12.8863636,
                "pitch": 51,
                "velocity": 51,
                "duration": 0.0318182,
                "tempo": 120.0
            },
            {
                "start_time": 12.8863636,
                "end_time": 12.9204545,
                "pitch": 48,
                "velocity": 51,
                "duration": 0.0340909,
                "tempo": 120.0
            },
            {
                "start_time": 12.9204545,
                "end_time": 12.9386364,
                "pitch": 44,
                "velocity": 51,
                "duration": 0.0181818,
                "tempo": 120.0
            },
            {
                "start_time": 12.9386364,
                "end_time": 12.9704545,
                "pitch": 42,
                "velocity": 51,
                "duration": 0.0318182,
                "tempo": 120.0
            },
            {
                "start_time": 12.9704545,
                "end_time": 13.0045455,
                "pitch": 39,
                "velocity": 51,
                "duration": 0.0340909,
                "tempo": 120.0
            },
            {
                "start_time": 13.0045455,
                "end_time": 13.0386364,
                "pitch": 36,
                "velocity": 51,
                "duration": 0.0340909,
                "tempo": 120.0
            },
            {
                "start_time": 13.0386364,
                "end_time": 13.0545455,
                "pitch": 32,
                "velocity": 51,
                "duration": 0.0159091,
                "tempo": 120.0
            },
            {
                "start_time": 13.0545455,
                "end_time": 13.0886364,
                "pitch": 30,
                "velocity": 51,
                "duration": 0.0340909,
                "tempo": 120.0
            },
            {
                "start_time": 13.0886364,
                "end_time": 13.1227273,
                "pitch": 27,
                "velocity": 51,
                "duration": 0.0340909,
                "tempo": 120.0
            },
            {
                "start_time": 13.1227273,
                "end_time": 13.1386364,
                "pitch": 24,
                "velocity": 51,
                "duration": 0.0159091,
                "tempo": 120.0
            },
            {
                "start_time": 13.3409091,
                "end_time": 13.375,
                "pitch": 66,
                "velocity": 51,
                "duration": 0.0340909,
                "tempo": 120.0
            },
            {
                "start_time": 13.375,
                "end_time": 13.4068182,
                "pitch": 63,
                "velocity": 51,
                "duration": 0.0318182,
                "tempo": 120.0
            },
            {
                "start_time": 13.4068182,
                "end_time": 13.4409091,
                "pitch": 60,
                "velocity": 51,
                "duration": 0.0340909,
                "tempo": 120.0
            },
            {
                "start_time": 13.4409091,
                "end_time": 13.4568182,
                "pitch": 57,
                "velocity": 51,
                "duration": 0.0159091,
                "tempo": 120.0
            },
            {
                "start_time": 13.4568182,
                "end_time": 13.4909091,
                "pitch": 55,
                "velocity": 51,
                "duration": 0.0340909,
                "tempo": 120.0
            },
            {
                "start_time": 13.4909091,
                "end_time": 13.525,
                "pitch": 52,
                "velocity": 51,
                "duration": 0.0340909,
                "tempo": 120.0
            },
            {
                "start_time": 13.525,
                "end_time": 13.5409091,
                "pitch": 50,
                "velocity": 51,
                "duration": 0.0159091,
                "tempo": 120.0
            },
            {
                "start_time": 13.5409091,
                "end_time": 13.575,
                "pitch": 66,
                "velocity": 51,
                "duration": 0.0340909,
                "tempo": 120.0
            },
            {
                "start_time": 13.575,
                "end_time": 13.6090909,
                "pitch": 63,
                "velocity": 51,
                "duration": 0.0340909,
                "tempo": 120.0
            },
            {
                "start_time": 13.6090909,
                "end_time": 13.6431818,
                "pitch": 60,
                "velocity": 51,
                "duration": 0.0340909,
                "tempo": 120.0
            },
            {
                "start_time": 13.6431818,
                "end_time": 13.6590909,
                "pitch": 57,
                "velocity": 51,
                "duration": 0.0159091,
                "tempo": 120.0
            },
            {
                "start_time": 13.6590909,
                "end_time": 13.6931818,
                "pitch": 55,
                "velocity": 51,
                "duration": 0.0340909,
                "tempo": 120.0
            },
            {
                "start_time": 13.6931818,
                "end_time": 13.7272727,
                "pitch": 52,
                "velocity": 51,
                "duration": 0.0340909,
                "tempo": 120.0
            },
            {
                "start_time": 13.7272727,
                "end_time": 13.7431818,
                "pitch": 50,
                "velocity": 51,
                "duration": 0.0159091,
                "tempo": 120.0
            },
            {
                "start_time": 13.7431818,
                "end_time": 13.7772727,
                "pitch": 63,
                "velocity": 51,
                "duration": 0.0340909,
                "tempo": 120.0
            },
            {
                "start_time": 13.7772727,
                "end_time": 13.7931818,
                "pitch": 60,
                "velocity": 51,
                "duration": 0.0159091,
                "tempo": 120.0
            },
            {
                "start_time": 13.7931818,
                "end_time": 13.8090909,
                "pitch": 58,
                "velocity": 51,
                "duration": 0.0159091,
                "tempo": 120.0
            },
            {
                "start_time": 13.8090909,
                "end_time": 13.8272727,
                "pitch": 55,
                "velocity": 51,
                "duration": 0.0181818,
                "tempo": 120.0
            },
            {
                "start_time": 13.8272727,
                "end_time": 13.8613636,
                "pitch": 54,
                "velocity": 51,
                "duration": 0.0340909,
                "tempo": 120.0
            },
            {
                "start_time": 13.8613636,
                "end_time": 13.8931818,
                "pitch": 51,
                "velocity": 51,
                "duration": 0.0318182,
                "tempo": 120.0
            },
            {
                "start_time": 13.8931818,
                "end_time": 13.9272727,
                "pitch": 48,
                "velocity": 51,
                "duration": 0.0340909,
                "tempo": 120.0
            },
            {
                "start_time": 13.9272727,
                "end_time": 13.9431818,
                "pitch": 44,
                "velocity": 51,
                "duration": 0.0159091,
                "tempo": 120.0
            },
            {
                "start_time": 13.9431818,
                "end_time": 14.3272727,
                "pitch": 73,
                "velocity": 51,
                "duration": 0.3840909,
                "tempo": 120.0
            },
            {
                "start_time": 14.3454545,
                "end_time": 14.7295455,
                "pitch": 70,
                "velocity": 51,
                "duration": 0.3840909,
                "tempo": 120.0
            },
            {
                "start_time": 14.7477273,
                "end_time": 15.1409091,
                "pitch": 77,
                "velocity": 51,
                "duration": 0.3931818,
                "tempo": 120.0
            },
            {
                "start_time": 15.1568182,
                "end_time": 15.5340909,
                "pitch": 73,
                "velocity": 51,
                "duration": 0.3772727,
                "tempo": 120.0
            },
            {
                "start_time": 15.55,
                "end_time": 15.7340909,
                "pitch": 77,
                "velocity": 51,
                "duration": 0.1840909,
                "tempo": 120.0
            },
            {
                "start_time": 15.7522727,
                "end_time": 15.9363636,
                "pitch": 73,
                "velocity": 51,
                "duration": 0.1840909,
                "tempo": 120.0
            },
            {
                "start_time": 15.9522727,
                "end_time": 16.3363636,
                "pitch": 70,
                "velocity": 51,
                "duration": 0.3840909,
                "tempo": 120.0
            },
            {
                "start_time": 16.3522727,
                "end_time": 16.7386364,
                "pitch": 70,
                "velocity": 51,
                "duration": 0.3863636,
                "tempo": 120.0
            },
            {
                "start_time": 16.7545455,
                "end_time": 17.1409091,
                "pitch": 70,
                "velocity": 51,
                "duration": 0.3863636,
                "tempo": 120.0
            },
            {
                "start_time": 17.1568182,
                "end_time": 17.5409091,
                "pitch": 73,
                "velocity": 51,
                "duration": 0.3840909,
                "tempo": 120.0
            },
            {
                "start_time": 17.5568182,
                "end_time": 17.9409091,
                "pitch": 70,
                "velocity": 51,
                "duration": 0.3840909,
                "tempo": 120.0
            },
            {
                "start_time": 17.9590909,
                "end_time": 18.3431818,
                "pitch": 77,
                "velocity": 51,
                "duration": 0.3840909,
                "tempo": 120.0
            },
            {
                "start_time": 18.3613636,
                "end_time": 18.7431818,
                "pitch": 70,
                "velocity": 51,
                "duration": 0.3818182,
                "tempo": 120.0
            },
            {
                "start_time": 18.7613636,
                "end_time": 19.1454545,
                "pitch": 73,
                "velocity": 51,
                "duration": 0.3840909,
                "tempo": 120.0
            },
            {
                "start_time": 19.1636364,
                "end_time": 19.5454545,
                "pitch": 70,
                "velocity": 51,
                "duration": 0.3818182,
                "tempo": 120.0
            },
            {
                "start_time": 19.5636364,
                "end_time": 19.9454545,
                "pitch": 77,
                "velocity": 51,
                "duration": 0.3818182,
                "tempo": 120.0
            },
            {
                "start_time": 19.9636364,
                "end_time": 20.35,
                "pitch": 75,
                "velocity": 51,
                "duration": 0.3863636,
                "tempo": 120.0
            },
            {
                "start_time": 20.3659091,
                "end_time": 20.75,
                "pitch": 73,
                "velocity": 51,
                "duration": 0.3840909,
                "tempo": 120.0
            },
            {
                "start_time": 20.7659091,
                "end_time": 21.1522727,
                "pitch": 70,
                "velocity": 51,
                "duration": 0.3863636,
                "tempo": 120.0
            },
            {
                "start_time": 21.1681818,
                "end_time": 21.5522727,
                "pitch": 77,
                "velocity": 51,
                "duration": 0.3840909,
                "tempo": 120.0
            },
            {
                "start_time": 21.5681818,
                "end_time": 21.9522727,
                "pitch": 70,
                "velocity": 51,
                "duration": 0.3840909,
                "tempo": 120.0
            },
            {
                "start_time": 21.9681818,
                "end_time": 22.3545455,
                "pitch": 73,
                "velocity": 51,
                "duration": 0.3863636,
                "tempo": 120.0
            },
            {
                "start_time": 22.3704545,
                "end_time": 22.7545455,
                "pitch": 70,
                "velocity": 51,
                "duration": 0.3840909,
                "tempo": 120.0
            },
            {
                "start_time": 22.7704545,
                "end_time": 23.1568182,
                "pitch": 77,
                "velocity": 51,
                "duration": 0.3863636,
                "tempo": 120.0
            },
            {
                "start_time": 23.175,
                "end_time": 23.5568182,
                "pitch": 70,
                "velocity": 51,
                "duration": 0.3818182,
                "tempo": 120.0
            },
            {
                "start_time": 23.575,
                "end_time": 23.9568182,
                "pitch": 73,
                "velocity": 51,
                "duration": 0.3818182,
                "tempo": 120.0
            },
            {
                "start_time": 23.975,
                "end_time": 24.3590909,
                "pitch": 70,
                "velocity": 51,
                "duration": 0.3840909,
                "tempo": 120.0
            },
            {
                "start_time": 24.3772727,
                "end_time": 24.7704545,
                "pitch": 77,
                "velocity": 51,
                "duration": 0.3931818,
                "tempo": 120.0
            },
            {
                "start_time": 24.7863636,
                "end_time": 25.1636364,
                "pitch": 73,
                "velocity": 51,
                "duration": 0.3772727,
                "tempo": 120.0
            },
            {
                "start_time": 25.1795455,
                "end_time": 25.3636364,
                "pitch": 79,
                "velocity": 51,
                "duration": 0.1840909,
                "tempo": 120.0
            },
            {
                "start_time": 25.3795455,
                "end_time": 25.4136364,
                "pitch": 66,
                "velocity": 51,
                "duration": 0.0340909,
                "tempo": 120.0
            },
            {
                "start_time": 25.4136364,
                "end_time": 25.4454545,
                "pitch": 63,
                "velocity": 51,
                "duration": 0.0318182,
                "tempo": 120.0
            },
            {
                "start_time": 25.4454545,
                "end_time": 25.4795455,
                "pitch": 60,
                "velocity": 51,
                "duration": 0.0340909,
                "tempo": 120.0
            },
            {
                "start_time": 25.4795455,
                "end_time": 25.4954545,
                "pitch": 57,
                "velocity": 51,
                "duration": 0.0159091,
                "tempo": 120.0
            },
            {
                "start_time": 25.4954545,
                "end_time": 25.5295455,
                "pitch": 55,
                "velocity": 51,
                "duration": 0.0340909,
                "tempo": 120.0
            },
            {
                "start_time": 25.5295455,
                "end_time": 25.5636364,
                "pitch": 52,
                "velocity": 51,
                "duration": 0.0340909,
                "tempo": 120.0
            },
            {
                "start_time": 25.5636364,
                "end_time": 25.5795455,
                "pitch": 50,
                "velocity": 51,
                "duration": 0.0159091,
                "tempo": 120.0
            },
            {
                "start_time": 25.5795455,
                "end_time": 25.6136364,
                "pitch": 63,
                "velocity": 51,
                "duration": 0.0340909,
                "tempo": 120.0
            },
            {
                "start_time": 25.6136364,
                "end_time": 25.6295455,
                "pitch": 60,
                "velocity": 51,
                "duration": 0.0159091,
                "tempo": 120.0
            },
            {
                "start_time": 25.6295455,
                "end_time": 25.6454545,
                "pitch": 58,
                "velocity": 51,
                "duration": 0.0159091,
                "tempo": 120.0
            },
            {
                "start_time": 25.6454545,
                "end_time": 25.6636364,
                "pitch": 55,
                "velocity": 51,
                "duration": 0.0181818,
                "tempo": 120.0
            },
            {
                "start_time": 25.6636364,
                "end_time": 25.6954545,
                "pitch": 54,
                "velocity": 51,
                "duration": 0.0318182,
                "tempo": 120.0
            },
            {
                "start_time": 25.6954545,
                "end_time": 25.7295455,
                "pitch": 51,
                "velocity": 51,
                "duration": 0.0340909,
                "tempo": 120.0
            },
            {
                "start_time": 25.7295455,
                "end_time": 25.7636364,
                "pitch": 48,
                "velocity": 51,
                "duration": 0.0340909,
                "tempo": 120.0
            },
            {
                "start_time": 25.7636364,
                "end_time": 25.7795455,
                "pitch": 44,
                "velocity": 51,
                "duration": 0.0159091,
                "tempo": 120.0
            },
            {
                "start_time": 25.7795455,
                "end_time": 25.8136364,
                "pitch": 42,
                "velocity": 51,
                "duration": 0.0340909,
                "tempo": 120.0
            },
            {
                "start_time": 25.8136364,
                "end_time": 25.8454545,
                "pitch": 39,
                "velocity": 51,
                "duration": 0.0318182,
                "tempo": 120.0
            },
            {
                "start_time": 25.8454545,
                "end_time": 25.8795455,
                "pitch": 36,
                "velocity": 51,
                "duration": 0.0340909,
                "tempo": 120.0
            },
            {
                "start_time": 25.8795455,
                "end_time": 25.8954545,
                "pitch": 32,
                "velocity": 51,
                "duration": 0.0159091,
                "tempo": 120.0
            },
            {
                "start_time": 25.8954545,
                "end_time": 25.9295455,
                "pitch": 30,
                "velocity": 51,
                "duration": 0.0340909,
                "tempo": 120.0
            },
            {
                "start_time": 25.9295455,
                "end_time": 25.9636364,
                "pitch": 27,
                "velocity": 51,
                "duration": 0.0340909,
                "tempo": 120.0
            },
            {
                "start_time": 25.9636364,
                "end_time": 25.9795455,
                "pitch": 24,
                "velocity": 51,
                "duration": 0.0159091,
                "tempo": 120.0
            },
            {
                "start_time": 26.1818182,
                "end_time": 26.2136364,
                "pitch": 66,
                "velocity": 51,
                "duration": 0.0318182,
                "tempo": 120.0
            },
            {
                "start_time": 26.2136364,
                "end_time": 26.2477273,
                "pitch": 63,
                "velocity": 51,
                "duration": 0.0340909,
                "tempo": 120.0
            },
            {
                "start_time": 26.2477273,
                "end_time": 26.2818182,
                "pitch": 60,
                "velocity": 51,
                "duration": 0.0340909,
                "tempo": 120.0
            },
            {
                "start_time": 26.2818182,
                "end_time": 26.2977273,
                "pitch": 57,
                "velocity": 51,
                "duration": 0.0159091,
                "tempo": 120.0
            },
            {
                "start_time": 26.2977273,
                "end_time": 26.3318182,
                "pitch": 55,
                "velocity": 51,
                "duration": 0.0340909,
                "tempo": 120.0
            },
            {
                "start_time": 26.3318182,
                "end_time": 26.3659091,
                "pitch": 52,
                "velocity": 51,
                "duration": 0.0340909,
                "tempo": 120.0
            },
            {
                "start_time": 26.3659091,
                "end_time": 26.3818182,
                "pitch": 50,
                "velocity": 51,
                "duration": 0.0159091,
                "tempo": 120.0
            },
            {
                "start_time": 26.3818182,
                "end_time": 26.4159091,
                "pitch": 66,
                "velocity": 51,
                "duration": 0.0340909,
                "tempo": 120.0
            },
            {
                "start_time": 26.4159091,
                "end_time": 26.4477273,
                "pitch": 63,
                "velocity": 51,
                "duration": 0.0318182,
                "tempo": 120.0
            },
            {
                "start_time": 26.4477273,
                "end_time": 26.4818182,
                "pitch": 60,
                "velocity": 51,
                "duration": 0.0340909,
                "tempo": 120.0
            },
            {
                "start_time": 26.4818182,
                "end_time": 26.4977273,
                "pitch": 57,
                "velocity": 51,
                "duration": 0.0159091,
                "tempo": 120.0
            },
            {
                "start_time": 26.4977273,
                "end_time": 26.5318182,
                "pitch": 55,
                "velocity": 51,
                "duration": 0.0340909,
                "tempo": 120.0
            },
            {
                "start_time": 26.5318182,
                "end_time": 26.5659091,
                "pitch": 52,
                "velocity": 51,
                "duration": 0.0340909,
                "tempo": 120.0
            },
            {
                "start_time": 26.5659091,
                "end_time": 26.5818182,
                "pitch": 50,
                "velocity": 51,
                "duration": 0.0159091,
                "tempo": 120.0
            },
            {
                "start_time": 26.5818182,
                "end_time": 26.6159091,
                "pitch": 63,
                "velocity": 51,
                "duration": 0.0340909,
                "tempo": 120.0
            },
            {
                "start_time": 26.6159091,
                "end_time": 26.6318182,
                "pitch": 60,
                "velocity": 51,
                "duration": 0.0159091,
                "tempo": 120.0
            },
            {
                "start_time": 26.6318182,
                "end_time": 26.6477273,
                "pitch": 58,
                "velocity": 51,
                "duration": 0.0159091,
                "tempo": 120.0
            },
            {
                "start_time": 26.6477273,
                "end_time": 26.6659091,
                "pitch": 55,
                "velocity": 51,
                "duration": 0.0181818,
                "tempo": 120.0
            },
            {
                "start_time": 26.6659091,
                "end_time": 26.6977273,
                "pitch": 54,
                "velocity": 51,
                "duration": 0.0318182,
                "tempo": 120.0
            },
            {
                "start_time": 26.6977273,
                "end_time": 26.7318182,
                "pitch": 51,
                "velocity": 51,
                "duration": 0.0340909,
                "tempo": 120.0
            },
            {
                "start_time": 26.7318182,
                "end_time": 26.7659091,
                "pitch": 48,
                "velocity": 51,
                "duration": 0.0340909,
                "tempo": 120.0
            },
            {
                "start_time": 26.7659091,
                "end_time": 26.7818182,
                "pitch": 44,
                "velocity": 51,
                "duration": 0.0159091,
                "tempo": 120.0
            },
            {
                "start_time": 26.7818182,
                "end_time": 27.1681818,
                "pitch": 80,
                "velocity": 51,
                "duration": 0.3863636,
                "tempo": 120.0
            },
            {
                "start_time": 27.1840909,
                "end_time": 27.5681818,
                "pitch": 77,
                "velocity": 51,
                "duration": 0.3840909,
                "tempo": 120.0
            },
            {
                "start_time": 27.5840909,
                "end_time": 27.9681818,
                "pitch": 73,
                "velocity": 51,
                "duration": 0.3840909,
                "tempo": 120.0
            },
            {
                "start_time": 27.9840909,
                "end_time": 28.3704545,
                "pitch": 77,
                "velocity": 51,
                "duration": 0.3863636,
                "tempo": 120.0
            },
            {
                "start_time": 28.3886364,
                "end_time": 28.9727273,
                "pitch": 80,
                "velocity": 51,
                "duration": 0.5840909,
                "tempo": 120.0
            },
            {
                "start_time": 28.9886364,
                "end_time": 30.3772727,
                "pitch": 72,
                "velocity": 51,
                "duration": 1.3886364,
                "tempo": 120.0
            },
            {
                "start_time": 30.3931818,
                "end_time": 31.1795455,
                "pitch": 67,
                "velocity": 51,
                "duration": 0.7863636,
                "tempo": 120.0
            },
            {
                "start_time": 31.1954545,
                "end_time": 31.5795455,
                "pitch": 65,
                "velocity": 51,
                "duration": 0.3840909,
                "tempo": 120.0
            },
            {
                "start_time": 31.5954545,
                "end_time": 31.775,
                "pitch": 67,
                "velocity": 51,
                "duration": 0.1795455,
                "tempo": 120.0
            },
            {
                "start_time": 31.7909091,
                "end_time": 32.1772727,
                "pitch": 70,
                "velocity": 51,
                "duration": 0.3863636,
                "tempo": 120.0
            },
            {
                "start_time": 32.1931818,
                "end_time": 33.1840909,
                "pitch": 74,
                "velocity": 51,
                "duration": 0.9909091,
                "tempo": 120.0
            },
            {
                "start_time": 33.2022727,
                "end_time": 33.3840909,
                "pitch": 73,
                "velocity": 51,
                "duration": 0.1818182,
                "tempo": 120.0
            },
            {
                "start_time": 33.4022727,
                "end_time": 33.7795455,
                "pitch": 77,
                "velocity": 51,
                "duration": 0.3772727,
                "tempo": 120.0
            },
            {
                "start_time": 33.7954545,
                "end_time": 34.3886364,
                "pitch": 80,
                "velocity": 51,
                "duration": 0.5931818,
                "tempo": 120.0
            },
            {
                "start_time": 34.4045455,
                "end_time": 34.7886364,
                "pitch": 73,
                "velocity": 51,
                "duration": 0.3840909,
                "tempo": 120.0
            },
            {
                "start_time": 34.8068182,
                "end_time": 35.3886364,
                "pitch": 79,
                "velocity": 51,
                "duration": 0.5818182,
                "tempo": 120.0
            },
            {
                "start_time": 35.4045455,
                "end_time": 35.9931818,
                "pitch": 76,
                "velocity": 51,
                "duration": 0.5886364,
                "tempo": 120.0
            },
            {
                "start_time": 36.0090909,
                "end_time": 37.3886364,
                "pitch": 72,
                "velocity": 51,
                "duration": 1.3795455,
                "tempo": 120.0
            },
            {
                "start_time": 37.4068182,
                "end_time": 37.4386364,
                "pitch": 66,
                "velocity": 51,
                "duration": 0.0318182,
                "tempo": 120.0
            },
            {
                "start_time": 37.4386364,
                "end_time": 37.4727273,
                "pitch": 63,
                "velocity": 51,
                "duration": 0.0340909,
                "tempo": 120.0
            },
            {
                "start_time": 37.4727273,
                "end_time": 37.5068182,
                "pitch": 60,
                "velocity": 51,
                "duration": 0.0340909,
                "tempo": 120.0
            },
            {
                "start_time": 37.5068182,
                "end_time": 37.5227273,
                "pitch": 57,
                "velocity": 51,
                "duration": 0.0159091,
                "tempo": 120.0
            },
            {
                "start_time": 37.5227273,
                "end_time": 37.5568182,
                "pitch": 55,
                "velocity": 51,
                "duration": 0.0340909,
                "tempo": 120.0
            },
            {
                "start_time": 37.5568182,
                "end_time": 37.5909091,
                "pitch": 52,
                "velocity": 51,
                "duration": 0.0340909,
                "tempo": 120.0
            },
            {
                "start_time": 37.5909091,
                "end_time": 37.6090909,
                "pitch": 50,
                "velocity": 51,
                "duration": 0.0181818,
                "tempo": 120.0
            },
            {
                "start_time": 37.6090909,
                "end_time": 37.6431818,
                "pitch": 63,
                "velocity": 51,
                "duration": 0.0340909,
                "tempo": 120.0
            },
            {
                "start_time": 37.6431818,
                "end_time": 37.6590909,
                "pitch": 60,
                "velocity": 51,
                "duration": 0.0159091,
                "tempo": 120.0
            },
            {
                "start_time": 37.6590909,
                "end_time": 37.6772727,
                "pitch": 58,
                "velocity": 51,
                "duration": 0.0181818,
                "tempo": 120.0
            },
            {
                "start_time": 37.6772727,
                "end_time": 37.6931818,
                "pitch": 55,
                "velocity": 51,
                "duration": 0.0159091,
                "tempo": 120.0
            },
            {
                "start_time": 37.6931818,
                "end_time": 37.7272727,
                "pitch": 54,
                "velocity": 51,
                "duration": 0.0340909,
                "tempo": 120.0
            },
            {
                "start_time": 37.7272727,
                "end_time": 37.7613636,
                "pitch": 51,
                "velocity": 51,
                "duration": 0.0340909,
                "tempo": 120.0
            },
            {
                "start_time": 37.7613636,
                "end_time": 37.7954545,
                "pitch": 48,
                "velocity": 51,
                "duration": 0.0340909,
                "tempo": 120.0
            },
            {
                "start_time": 37.7954545,
                "end_time": 37.8136364,
                "pitch": 44,
                "velocity": 51,
                "duration": 0.0181818,
                "tempo": 120.0
            },
            {
                "start_time": 37.8136364,
                "end_time": 37.8477273,
                "pitch": 42,
                "velocity": 51,
                "duration": 0.0340909,
                "tempo": 120.0
            },
            {
                "start_time": 37.8477273,
                "end_time": 37.8818182,
                "pitch": 39,
                "velocity": 51,
                "duration": 0.0340909,
                "tempo": 120.0
            },
            {
                "start_time": 37.8818182,
                "end_time": 37.9159091,
                "pitch": 36,
                "velocity": 51,
                "duration": 0.0340909,
                "tempo": 120.0
            },
            {
                "start_time": 37.9159091,
                "end_time": 37.9340909,
                "pitch": 32,
                "velocity": 51,
                "duration": 0.0181818,
                "tempo": 120.0
            },
            {
                "start_time": 37.9340909,
                "end_time": 37.9681818,
                "pitch": 30,
                "velocity": 51,
                "duration": 0.0340909,
                "tempo": 120.0
            },
            {
                "start_time": 37.9681818,
                "end_time": 38.0022727,
                "pitch": 27,
                "velocity": 51,
                "duration": 0.0340909,
                "tempo": 120.0
            },
            {
                "start_time": 38.0022727,
                "end_time": 38.0181818,
                "pitch": 24,
                "velocity": 51,
                "duration": 0.0159091,
                "tempo": 120.0
            },
            {
                "start_time": 38.8113636,
                "end_time": 38.8454545,
                "pitch": 66,
                "velocity": 51,
                "duration": 0.0340909,
                "tempo": 120.0
            },
            {
                "start_time": 38.8454545,
                "end_time": 38.8795455,
                "pitch": 63,
                "velocity": 51,
                "duration": 0.0340909,
                "tempo": 120.0
            },
            {
                "start_time": 38.8795455,
                "end_time": 38.9136364,
                "pitch": 60,
                "velocity": 51,
                "duration": 0.0340909,
                "tempo": 120.0
            },
            {
                "start_time": 38.9136364,
                "end_time": 38.9477273,
                "pitch": 66,
                "velocity": 51,
                "duration": 0.0340909,
                "tempo": 120.0
            },
            {
                "start_time": 38.9477273,
                "end_time": 38.9818182,
                "pitch": 63,
                "velocity": 51,
                "duration": 0.0340909,
                "tempo": 120.0
            },
            {
                "start_time": 38.9818182,
                "end_time": 39.0159091,
                "pitch": 60,
                "velocity": 51,
                "duration": 0.0340909,
                "tempo": 120.0
            },
            {
                "start_time": 39.0159091,
                "end_time": 39.05,
                "pitch": 66,
                "velocity": 51,
                "duration": 0.0340909,
                "tempo": 120.0
            },
            {
                "start_time": 39.05,
                "end_time": 39.0840909,
                "pitch": 63,
                "velocity": 51,
                "duration": 0.0340909,
                "tempo": 120.0
            },
            {
                "start_time": 39.0840909,
                "end_time": 39.1181818,
                "pitch": 60,
                "velocity": 51,
                "duration": 0.0340909,
                "tempo": 120.0
            },
            {
                "start_time": 39.1181818,
                "end_time": 39.1522727,
                "pitch": 66,
                "velocity": 51,
                "duration": 0.0340909,
                "tempo": 120.0
            },
            {
                "start_time": 39.1522727,
                "end_time": 39.1863636,
                "pitch": 63,
                "velocity": 51,
                "duration": 0.0340909,
                "tempo": 120.0
            },
            {
                "start_time": 39.1863636,
                "end_time": 39.2204545,
                "pitch": 60,
                "velocity": 51,
                "duration": 0.0340909,
                "tempo": 120.0
            },
            {
                "start_time": 39.2204545,
                "end_time": 39.2522727,
                "pitch": 63,
                "velocity": 51,
                "duration": 0.0318182,
                "tempo": 120.0
            },
            {
                "start_time": 39.2522727,
                "end_time": 39.2681818,
                "pitch": 60,
                "velocity": 51,
                "duration": 0.0159091,
                "tempo": 120.0
            },
            {
                "start_time": 39.2681818,
                "end_time": 39.2863636,
                "pitch": 58,
                "velocity": 51,
                "duration": 0.0181818,
                "tempo": 120.0
            },
            {
                "start_time": 39.2863636,
                "end_time": 39.3022727,
                "pitch": 55,
                "velocity": 51,
                "duration": 0.0159091,
                "tempo": 120.0
            },
            {
                "start_time": 39.3022727,
                "end_time": 39.3181818,
                "pitch": 54,
                "velocity": 51,
                "duration": 0.0159091,
                "tempo": 120.0
            },
            {
                "start_time": 39.3181818,
                "end_time": 39.35,
                "pitch": 63,
                "velocity": 51,
                "duration": 0.0318182,
                "tempo": 120.0
            },
            {
                "start_time": 39.35,
                "end_time": 39.3681818,
                "pitch": 60,
                "velocity": 51,
                "duration": 0.0181818,
                "tempo": 120.0
            },
            {
                "start_time": 39.3681818,
                "end_time": 39.3840909,
                "pitch": 58,
                "velocity": 51,
                "duration": 0.0159091,
                "tempo": 120.0
            },
            {
                "start_time": 39.3840909,
                "end_time": 39.4,
                "pitch": 55,
                "velocity": 51,
                "duration": 0.0159091,
                "tempo": 120.0
            },
            {
                "start_time": 39.4,
                "end_time": 39.4159091,
                "pitch": 54,
                "velocity": 51,
                "duration": 0.0159091,
                "tempo": 120.0
            },
            {
                "start_time": 39.4159091,
                "end_time": 39.4818182,
                "pitch": 60,
                "velocity": 51,
                "duration": 0.0659091,
                "tempo": 120.0
            },
            {
                "start_time": 39.4818182,
                "end_time": 39.5136364,
                "pitch": 58,
                "velocity": 51,
                "duration": 0.0318182,
                "tempo": 120.0
            },
            {
                "start_time": 39.5136364,
                "end_time": 39.5795455,
                "pitch": 60,
                "velocity": 51,
                "duration": 0.0659091,
                "tempo": 120.0
            },
            {
                "start_time": 39.5795455,
                "end_time": 39.6136364,
                "pitch": 58,
                "velocity": 51,
                "duration": 0.0340909,
                "tempo": 120.0
            },
            {
                "start_time": 39.6136364,
                "end_time": 39.9909091,
                "pitch": 73,
                "velocity": 51,
                "duration": 0.3772727,
                "tempo": 120.0
            }
        ]
    }
}