{
    "mood": "angry",
    "instruments": {
        "Trumpet": [
            {
                "start_time": 0.0,
                "end_time": 0.0840909,
                "pitch": 57,
                "velocity": 51,
                "duration": 0.0840909,
                "tempo": 120.0
            },
            {
                "start_time": 0.1,
                "end_time": 0.1840909,
                "pitch": 59,
                "velocity": 51,
                "duration": 0.0840909,
                "tempo": 120.0
            },
            {
                "start_time": 0.2,
                "end_time": 0.3840909,
                "pitch": 60,
                "velocity": 51,
                "duration": 0.1840909,
                "tempo": 120.0
            },
            {
                "start_time": 0.4,
                "end_time": 0.5840909,
                "pitch": 60,
                "velocity": 51,
                "duration": 0.1840909,
                "tempo": 120.0
            },
            {
                "start_time": 0.6,
                "end_time": 0.6840909,
                "pitch": 59,
                "velocity": 51,
                "duration": 0.0840909,
                "tempo": 120.0
            },
            {
                "start_time": 0.7,
                "end_time": 0.75,
                "pitch": 57,
                "velocity": 51,
                "duration": 0.05,
                "tempo": 120.0
            },
            {
                "start_time": 1.5659091,
                "end_time": 1.6840909,
                "pitch": 57,
                "velocity": 51,
                "duration": 0.1181818,
                "tempo": 120.0
            },
            {
                "start_time": 1.7,
                "end_time": 1.7840909,
                "pitch": 59,
                "velocity": 51,
                "duration": 0.0840909,
                "tempo": 120.0
            },
            {
                "start_time": 1.8022727,
                "end_time": 1.9863636,
                "pitch": 60,
                "velocity": 51,
                "duration": 0.1840909,
                "tempo": 120.0
            },
            {
                "start_time": 2.0022727,
                "end_time": 2.1863636,
                "pitch": 60,
                "velocity": 51,
                "duration": 0.1840909,
                "tempo": 120.0
            },
            {
                "start_time": 2.2022727,
                "end_time": 2.2863636,
                "pitch": 59,
                "velocity": 51,
                "duration": 0.0840909,
                "tempo": 120.0
            },
            {
                "start_time": 2.3022727,
                "end_time": 3.1863636,
                "pitch": 57,
                "velocity": 51,
                "duration": 0.8840909,
                "tempo": 120.0
            },
            {
                "start_time": 3.2022727,
                "end_time": 4.5909091,
                "pitch": 53,
                "velocity": 51,
                "duration": 1.3886364,
                "tempo": 120.0
            },
            {
                "start_time": 4.6068182,
                "end_time": 4.7909091,
                "pitch": 50,
                "velocity": 51,
                "duration": 0.1840909,
                "tempo": 120.0
            },
            {
                "start_time": 4.8090909,
                "end_time": 5.9272727,
                "pitch": 50,
                "velocity": 51,
                "duration": 1.1181818,
                "tempo": 120.0
            },
            {
                "start_time": 6.4136364,
                "end_time": 6.4977273,
                "pitch": 57,
                "velocity": 51,
                "duration": 0.0840909,
                "tempo": 120.0
            },
            {
                "start_time": 6.5136364,
                "end_time": 6.5977273,
                "pitch": 59,
                "velocity": 51,
                "duration": 0.0840909,
                "tempo": 120.0
            },
            {
                "start_time": 6.6136364,
                "end_time": 6.8,
                "pitch": 60,
                "velocity": 51,
                "duration": 0.1863636,
                "tempo": 120.0
            },
            {
                "start_time": 6.8159091,
                "end_time": 7.0,
                "pitch": 60,
                "velocity": 51,
                "duration": 0.1840909,
                "tempo": 120.0
            },
            {
                "start_time": 7.0159091,
                "end_time": 7.1,
                "pitch": 59,
                "velocity": 51,
                "duration": 0.0840909,
                "tempo": 120.0
            },
            {
                "start_time": 7.1159091,
                "end_time": 7.1659091,
                "pitch": 57,
                "velocity": 51,
                "duration": 0.05,
                "tempo": 120.0
            },
            {
                "start_time": 8.0181818,
                "end_time": 8.1022727,
                "pitch": 57,
                "velocity": 51,
                "duration": 0.0840909,
                "tempo": 120.0
            },
            {
                "start_time": 8.1204545,
                "end_time": 8.2022727,
                "pitch": 59,
                "velocity": 51,
                "duration": 0.0818182,
                "tempo": 120.0
            },
            {
                "start_time": 8.2204545,
                "end_time": 8.4045455,
                "pitch": 60,
                "velocity": 51,
                "duration": 0.1840909,
                "tempo": 120.0
            },
            {
                "start_time": 8.4204545,
                "end_time": 8.6068182,
                "pitch": 60,
                "velocity": 51,
                "duration": 0.1863636,
                "tempo": 120.0
            },
            {
                "start_time": 8.6227273,
                "end_time": 8.7068182,
                "pitch": 59,
                "velocity": 51,
                "duration": 0.0840909,
                "tempo": 120.0
            },
            {
                "start_time": 8.7227273,
                "end_time": 9.6090909,
                "pitch": 57,
                "velocity": 51,
                "duration": 0.8863636,
                "tempo": 120.0
            },
            {
                "start_time": 9.6272727,
                "end_time": 11.2204545,
                "pitch": 59,
                "velocity": 51,
                "duration": 1.5931818,
                "tempo": 120.0
            },
            {
                "start_time": 11.2386364,
                "end_time": 12.8295455,
                "pitch": 59,
                "velocity": 51,
                "duration": 1.5909091,
                "tempo": 120.0
            },
            {
                "start_time": 12.8454545,
                "end_time": 12.9295455,
                "pitch": 57,
                "velocity": 51,
                "duration": 0.0840909,
                "tempo": 120.0
            },
            {
                "start_time": 12.9454545,
                "end_time": 13.0295455,
                "pitch": 59,
                "velocity": 51,
                "duration": 0.0840909,
                "tempo": 120.0
            },
            {
                "start_time": 13.0477273,
                "end_time": 13.2318182,
                "pitch": 60,
                "velocity": 51,
                "duration": 0.1840909,
                "tempo": 120.0
            },
            {
                "start_time": 13.2477273,
                "end_time": 13.4318182,
                "pitch": 60,
                "velocity": 51,
                "duration": 0.1840909,
                "tempo": 120.0
            },
            {
                "start_time": 13.4477273,
                "end_time": 13.5318182,
                "pitch": 59,
                "velocity": 51,
                "duration": 0.0840909,
                "tempo": 120.0
            },
            {
                "start_time": 13.5477273,
                "end_time": 13.5977273,
                "pitch": 57,
                "velocity": 51,
                "duration": 0.05,
                "tempo": 120.0
            },
            {
                "start_time": 14.4545455,
                "end_time": 14.5386364,
                "pitch": 57,
                "velocity": 51,
                "duration": 0.0840909,
                "tempo": 120.0
            },
            {
                "start_time": 14.5545455,
                "end_time": 14.6386364,
                "pitch": 59,
                "velocity": 51,
                "duration": 0.0840909,
                "tempo": 120.0
            },
            {
                "start_time": 14.6545455,
                "end_time": 14.8386364,
                "pitch": 60,
                "velocity": 51,
                "duration": 0.1840909,
                "tempo": 120.0
            },
            {
                "start_time": 14.8568182,
                "end_time": 15.0409091,
                "pitch": 60,
                "velocity": 51,
                "duration": 0.1840909,
                "tempo": 120.0
            },
            {
                "start_time": 15.0568182,
                "end_time": 15.1409091,
                "pitch": 59,
                "velocity": 51,
                "duration": 0.0840909,
                "tempo": 120.0
            },
            {
                "start_time": 15.1590909,
                "end_time": 16.0454545,
                "pitch": 57,
                "velocity": 51,
                "duration": 0.8863636,
                "tempo": 120.0
            },
            {
                "start_time": 16.0613636,
                "end_time": 17.45,
                "pitch": 57,
                "velocity": 51,
                "duration": 1.3886364,
                "tempo": 120.0
            },
            {
                "start_time": 17.4681818,
                "end_time": 17.65,
                "pitch": 50,
                "velocity": 51,
                "duration": 0.1818182,
                "tempo": 120.0
            },
            {
                "start_time": 17.6681818,
                "end_time": 18.7863636,
                "pitch": 50,
                "velocity": 51,
                "duration": 1.1181818,
                "tempo": 120.0
            },
            {
                "start_time": 19.2727273,
                "end_time": 19.3568182,
                "pitch": 57,
                "velocity": 51,
                "duration": 0.0840909,
                "tempo": 120.0
            },
            {
                "start_time": 19.3727273,
                "end_time": 19.4568182,
                "pitch": 59,
                "velocity": 51,
                "duration": 0.0840909,
                "tempo": 120.0
            },
            {
                "start_time": 19.4727273,
                "end_time": 19.6568182,
                "pitch": 60,
                "velocity": 51,
                "duration": 0.1840909,
                "tempo": 120.0
            },
            {
                "start_time": 19.6727273,
                "end_time": 19.8568182,
                "pitch": 60,
                "velocity": 51,
                "duration": 0.1840909,
                "tempo": 120.0
            },
            {
                "start_time": 19.8727273,
                "end_time": 19.9568182,
                "pitch": 59,
                "velocity": 51,
                "duration": 0.0840909,
                "tempo": 120.0
            },
            {
                "start_time": 19.975,
                "end_time": 20.025,
                "pitch": 57,
                "velocity": 51,
                "duration": 0.05,
                "tempo": 120.0
            },
            {
                "start_time": 20.875,
                "end_time": 20.9590909,
                "pitch": 57,
                "velocity": 51,
                "duration": 0.0840909,
                "tempo": 120.0
            },
            {
                "start_time": 20.975,
                "end_time": 21.0590909,
                "pitch": 59,
                "velocity": 51,
                "duration": 0.0840909,
                "tempo": 120.0
            },
            {
                "start_time": 21.0772727,
                "end_time": 21.2613636,
                "pitch": 60,
                "velocity": 51,
                "duration": 0.1840909,
                "tempo": 120.0
            },
            {
                "start_time": 21.2772727,
                "end_time": 21.4613636,
                "pitch": 60,
                "velocity": 51,
                "duration": 0.1840909,
                "tempo": 120.0
            },
            {
                "start_time": 21.4772727,
                "end_time": 21.5613636,
                "pitch": 59,
                "velocity": 51,
                "duration": 0.0840909,
                "tempo": 120.0
            },
            {
                "start_time": 21.5772727,
                "end_time": 22.4636364,
                "pitch": 57,
                "velocity": 51,
                "duration": 0.8863636,
                "tempo": 120.0
            },
            {
                "start_time": 22.4795455,
                "end_time": 24.0681818,
                "pitch": 59,
                "velocity": 51,
                "duration": 1.5886364,
                "tempo": 120.0
            },
            {
                "start_time": 24.0863636,
                "end_time": 25.6727273,
                "pitch": 64,
                "velocity": 51,
                "duration": 1.5863636,
                "tempo": 120.0
            },
            {
                "start_time": 25.6886364,
                "end_time": 26.475,
                "pitch": 64,
                "velocity": 51,
                "duration": 0.7863636,
                "tempo": 120.0
            },
            {
                "start_time": 26.4909091,
                "end_time": 27.2772727,
                "pitch": 71,
                "velocity": 51,
                "duration": 0.7863636,
                "tempo": 120.0
            },
            {
                "start_time": 27.2931818,
                "end_time": 28.0795455,
                "pitch": 68,
                "velocity": 51,
                "duration": 0.7863636,
                "tempo": 120.0
            },
            {
                "start_time": 28.0977273,
                "end_time": 28.8795455,
                "pitch": 64,
                "velocity": 51,
                "duration": 0.7818182,
                "tempo": 120.0
            },
            {
                "start_time": 28.8977273,
                "end_time": 29.6818182,
                "pitch": 60,
                "velocity": 51,
                "duration": 0.7840909,
                "tempo": 120.0
            },
            {
                "start_time": 29.7,
                "end_time": 30.4863636,
                "pitch": 69,
                "velocity": 51,
                "duration": 0.7863636,
                "tempo": 120.0
            },
            {
                "start_time": 30.5022727,
                "end_time": 32.0909091,
                "pitch": 71,
                "velocity": 51,
                "duration": 1.5886364,
                "tempo": 120.0
            },
            {
                "start_time": 32.1068182,
                "end_time": 32.2909091,
                "pitch": 65,
                "velocity": 51,
                "duration": 0.1840909,
                "tempo": 120.0
            },
            {
                "start_time": 32.3068182,
                "end_time": 32.6909091,
                "pitch": 62,
                "velocity": 51,
                "duration": 0.3840909,
                "tempo": 120.0
            },
            {
                "start_time": 32.7068182,
                "end_time": 33.0909091,
                "pitch": 69,
                "velocity": 51,
                "duration": 0.3840909,
                "tempo": 120.0
            },
            {
                "start_time": 33.1068182,
                "end_time": 33.2909091,
                "pitch": 62,
                "velocity": 51,
                "duration": 0.1840909,
                "tempo": 120.0
            },
            {
                "start_time": 33.3068182,
                "end_time": 33.4909091,
                "pitch": 71,
                "velocity": 51,
                "duration": 0.1840909,
                "tempo": 120.0
            },
            {
                "start_time": 33.5090909,
                "end_time": 33.6931818,
                "pitch": 62,
                "velocity": 51,
                "duration": 0.1840909,
                "tempo": 120.0
            },
            {
                "start_time": 33.7090909,
                "end_time": 33.8931818,
                "pitch": 65,
                "velocity": 51,
                "duration": 0.1840909,
                "tempo": 120.0
            },
            {
                "start_time": 33.9090909,
                "end_time": 34.4931818,
                "pitch": 62,
                "velocity": 51,
                "duration": 0.5840909,
                "tempo": 120.0
            },
            {
                "start_time": 34.5090909,
                "end_time": 34.8931818,
                "pitch": 69,
                "velocity": 51,
                "duration": 0.3840909,
                "tempo": 120.0
            },
            {
                "start_time": 34.9090909,
                "end_time": 35.2931818,
                "pitch": 62,
                "velocity": 51,
                "duration": 0.3840909,
                "tempo": 120.0
            },
            {
                "start_time": 35.3090909,
                "end_time": 35.4954545,
                "pitch": 59,
                "velocity": 51,
                "duration": 0.1863636,
                "tempo": 120.0
            },
            {
                "start_time": 35.5113636,
                "end_time": 35.8954545,
                "pitch": 59,
                "velocity": 51,
                "duration": 0.3840909,
                "tempo": 120.0
            },
            {
                "start_time": 35.9136364,
                "end_time": 36.4954545,
                "pitch": 59,
                "velocity": 51,
                "duration": 0.5818182,
                "tempo": 120.0
            },
            {
                "start_time": 36.5136364,
                "end_time": 38.4977273,
                "pitch": 67,
                "velocity": 51,
                "duration": 1.9840909,
                "tempo": 120.0
            },
            {
                "start_time": 38.5159091,
                "end_time": 39.2977273,
                "pitch": 64,
                "velocity": 51,
                "duration": 0.7818182,
                "tempo": 120.0
            },
            {
                "start_time": 39.3159091,
                "end_time": 40.1022727,
                "pitch": 71,
                "velocity": 51,
                "duration": 0.7863636,
                "tempo": 120.0
            },
            {
                "start_time": 40.1181818,
                "end_time": 40.9022727,
                "pitch": 68,
                "velocity": 51,
                "duration": 0.7840909,
                "tempo": 120.0
            },
            {
                "start_time": 40.9181818,
                "end_time": 41.7045455,
                "pitch": 64,
                "velocity": 51,
                "duration": 0.7863636,
                "tempo": 120.0
            },
            {
                "start_time": 41.7204545,
                "end_time": 42.5045455,
                "pitch": 60,
                "velocity": 51,
                "duration": 0.7840909,
                "tempo": 120.0
            },
            {
                "start_time": 42.5204545,
                "end_time": 43.3045455,
                "pitch": 69,
                "velocity": 51,
                "duration": 0.7840909,
                "tempo": 120.0
            },
            {
                "start_time": 43.3204545,
                "end_time": 44.9068182,
                "pitch": 71,
                "velocity": 51,
                "duration": 1.5863636,
                "tempo": 120.0
            },
            {
                "start_time": 44.9227273,
                "end_time": 45.1068182,
                "pitch": 59,
                "velocity": 51,
                "duration": 0.1840909,
                "tempo": 120.0
            },
            {
                "start_time": 45.1227273,
                "end_time": 45.3068182,
                "pitch": 55,
                "velocity": 51,
                "duration": 0.1840909,
                "tempo": 120.0
            },
            {
                "start_time": 45.3227273,
                "end_time": 45.5090909,
                "pitch": 62,
                "velocity": 51,
                "duration": 0.1863636,
                "tempo": 120.0
            },
            {
                "start_time": 45.525,
                "end_time": 45.7090909,
                "pitch": 55,
                "velocity": 51,
                "duration": 0.1840909,
                "tempo": 120.0
            },
            {
                "start_time": 45.7272727,
                "end_time": 45.9090909,
                "pitch": 64,
                "velocity": 51,
                "duration": 0.1818182,
                "tempo": 120.0
            },
            {
                "start_time": 45.9272727,
                "end_time": 46.1090909,
                "pitch": 55,
                "velocity": 51,
                "duration": 0.1818182,
                "tempo": 120.0
            },
            {
                "start_time": 46.1272727,
                "end_time": 46.3090909,
                "pitch": 62,
                "velocity": 51,
                "duration": 0.1818182,
                "tempo": 120.0
            },
            {
                "start_time": 46.3272727,
                "end_time": 46.5090909,
                "pitch": 55,
                "velocity": 51,
                "duration": 0.1818182,
                "tempo": 120.0
            },
            {
                "start_time": 46.5272727,
                "end_time": 46.7090909,
                "pitch": 59,
                "velocity": 51,
                "duration": 0.1818182,
                "tempo": 120.0
            },
            {
                "start_time": 46.7272727,
                "end_time": 46.9090909,
                "pitch": 55,
                "velocity": 51,
                "duration": 0.1818182,
                "tempo": 120.0
            },
            {
                "start_time": 46.9272727,
                "end_time": 47.1090909,
                "pitch": 62,
                "velocity": 51,
                "duration": 0.1818182,
                "tempo": 120.0
            },
            {
                "start_time": 47.1272727,
                "end_time": 47.3090909,
                "pitch": 55,
                "velocity": 51,
                "duration": 0.1818182,
                "tempo": 120.0
            },
            {
                "start_time": 47.3272727,
                "end_time": 47.5113636,
                "pitch": 62,
                "velocity": 51,
                "duration": 0.1840909,
                "tempo": 120.0
            },
            {
                "start_time": 47.5272727,
                "end_time": 47.7113636,
                "pitch": 55,
                "velocity": 51,
                "duration": 0.1840909,
                "tempo": 120.0
            },
            {
                "start_time": 47.7295455,
                "end_time": 47.9113636,
                "pitch": 62,
                "velocity": 51,
                "duration": 0.1818182,
                "tempo": 120.0
            },
            {
                "start_time": 47.9295455,
                "end_time": 48.1113636,
                "pitch": 55,
                "velocity": 51,
                "duration": 0.1818182,
                "tempo": 120.0
            },
            {
                "start_time": 48.1295455,
                "end_time": 48.3113636,
                "pitch": 57,
                "velocity": 51,
                "duration": 0.1818182,
                "tempo": 120.0
            },
            {
                "start_time": 48.3295455,
                "end_time": 48.5113636,
                "pitch": 59,
                "velocity": 51,
                "duration": 0.1818182,
                "tempo": 120.0
            },
            {
                "start_time": 48.5295455,
                "end_time": 48.7113636,
                "pitch": 60,
                "velocity": 51,
                "duration": 0.1818182,
                "tempo": 120.0
            },
            {
                "start_time": 48.7295455,
                "end_time": 48.9113636,
                "pitch": 62,
                "velocity": 51,
                "duration": 0.1818182,
                "tempo": 120.0
            },
            {
                "start_time": 48.9295455,
                "end_time": 49.1113636,
                "pitch": 59,
                "velocity": 51,
                "duration": 0.1818182,
                "tempo": 120.0
            },
            {
                "start_time": 49.1295455,
                "end_time": 49.3113636,
                "pitch": 60,
                "velocity": 51,
                "duration": 0.1818182,
                "tempo": 120.0
            },
            {
                "start_time": 49.3295455,
                "end_time": 49.5136364,
                "pitch": 62,
                "velocity": 51,
                "duration": 0.1840909,
                "tempo": 120.0
            },
            {
                "start_time": 49.5295455,
                "end_time": 49.7159091,
                "pitch": 64,
                "velocity": 51,
                "duration": 0.1863636,
                "tempo": 120.0
            },
            {
                "start_time": 49.7318182,
                "end_time": 49.9159091,
                "pitch": 60,
                "velocity": 51,
                "duration": 0.1840909,
                "tempo": 120.0
            },
            {
                "start_time": 49.9318182,
                "end_time": 50.1159091,
                "pitch": 62,
                "velocity": 51,
                "duration": 0.1840909,
                "tempo": 120.0
            },
            {
                "start_time": 50.1318182,
                "end_time": 50.3159091,
                "pitch": 64,
                "velocity": 51,
                "duration": 0.1840909,
                "tempo": 120.0
            },
            {
                "start_time": 50.3318182,
                "end_time": 50.5159091,
                "pitch": 65,
                "velocity": 51,
                "duration": 0.1840909,
                "tempo": 120.0
            },
            {
                "start_time": 50.5318182,
                "end_time": 50.9159091,
                "pitch": 67,
                "velocity": 51,
                "duration": 0.3840909,
                "tempo": 120.0
            },
            {
                "start_time": 50.9318182,
                "end_time": 51.3159091,
                "pitch": 67,
                "velocity": 51,
                "duration": 0.3840909,
                "tempo": 120.0
            }
        ],
        "Electric Guitar (clean)": [
            {
                "start_time": 25.6886364,
                "end_time": 26.875,
                "pitch": 68,
                "velocity": 80,
                "duration": 1.1863636,
                "tempo": 120.0
            },
            {
                "start_time": 26.8909091,
                "end_time": 27.2772727,
                "pitch": 64,
                "velocity": 80,
                "duration": 0.3863636,
                "tempo": 120.0
            },
            {
                "start_time": 27.2931818,
                "end_time": 28.0795455,
                "pitch": 65,
                "velocity": 80,
                "duration": 0.7863636,
                "tempo": 120.0
            },
            {
                "start_time": 28.0977273,
                "end_time": 28.4795455,
                "pitch": 64,
                "velocity": 80,
                "duration": 0.3818182,
                "tempo": 120.0
            },
            {
                "start_time": 28.4977273,
                "end_time": 29.2818182,
                "pitch": 62,
                "velocity": 80,
                "duration": 0.7840909,
                "tempo": 120.0
            },
            {
                "start_time": 29.3,
                "end_time": 29.6818182,
                "pitch": 60,
                "velocity": 80,
                "duration": 0.3818182,
                "tempo": 120.0
            },
            {
                "start_time": 29.7,
                "end_time": 30.0863636,
                "pitch": 62,
                "velocity": 80,
                "duration": 0.3863636,
                "tempo": 120.0
            },
            {
                "start_time": 30.1022727,
                "end_time": 30.4863636,
                "pitch": 64,
                "velocity": 80,
                "duration": 0.3840909,
                "tempo": 120.0
            },
            {
                "start_time": 30.5022727,
                "end_time": 31.6545455,
                "pitch": 55,
                "velocity": 80,
                "duration": 1.1522727,
                "tempo": 120.0
            },
            {
                "start_time": 32.1068182,
                "end_time": 33.2909091,
                "pitch": 62,
                "velocity": 80,
                "duration": 1.1840909,
                "tempo": 120.0
            },
            {
                "start_time": 33.3068182,
                "end_time": 33.6931818,
                "pitch": 64,
                "velocity": 80,
                "duration": 0.3863636,
                "tempo": 120.0
            },
            {
                "start_time": 33.7090909,
                "end_time": 34.4931818,
                "pitch": 65,
                "velocity": 80,
                "duration": 0.7840909,
                "tempo": 120.0
            },
            {
                "start_time": 34.5090909,
                "end_time": 34.8931818,
                "pitch": 64,
                "velocity": 80,
                "duration": 0.3840909,
                "tempo": 120.0
            },
            {
                "start_time": 34.9090909,
                "end_time": 35.2931818,
                "pitch": 62,
                "velocity": 80,
                "duration": 0.3840909,
                "tempo": 120.0
            },
            {
                "start_time": 35.3090909,
                "end_time": 36.4954545,
                "pitch": 59,
                "velocity": 80,
                "duration": 1.1863636,
                "tempo": 120.0
            },
            {
                "start_time": 36.5136364,
                "end_time": 36.8954545,
                "pitch": 67,
                "velocity": 80,
                "duration": 0.3818182,
                "tempo": 120.0
            },
            {
                "start_time": 36.9136364,
                "end_time": 37.6977273,
                "pitch": 64,
                "velocity": 80,
                "duration": 0.7840909,
                "tempo": 120.0
            },
            {
                "start_time": 37.7159091,
                "end_time": 38.0977273,
                "pitch": 64,
                "velocity": 80,
                "duration": 0.3818182,
                "tempo": 120.0
            },
            {
                "start_time": 38.1159091,
                "end_time": 38.4977273,
                "pitch": 67,
                "velocity": 80,
                "duration": 0.3818182,
                "tempo": 120.0
            },
            {
                "start_time": 38.5159091,
                "end_time": 39.7022727,
                "pitch": 68,
                "velocity": 80,
                "duration": 1.1863636,
                "tempo": 120.0
            },
            {
                "start_time": 39.7181818,
                "end_time": 40.1022727,
                "pitch": 64,
                "velocity": 80,
                "duration": 0.3840909,
                "tempo": 120.0
            },
            {
                "start_time": 40.1181818,
                "end_time": 40.9022727,
                "pitch": 65,
                "velocity": 80,
                "duration": 0.7840909,
                "tempo": 120.0
            },
            {
                "start_time": 40.9181818,
                "end_time": 41.3022727,
                "pitch": 64,
                "velocity": 80,
                "duration": 0.3840909,
                "tempo": 120.0
            },
            {
                "start_time": 41.3181818,
                "end_time": 42.1045455,
                "pitch": 62,
                "velocity": 80,
                "duration": 0.7863636,
                "tempo": 120.0
            },
            {
                "start_time": 42.1204545,
                "end_time": 42.5045455,
                "pitch": 60,
                "velocity": 80,
                "duration": 0.3840909,
                "tempo": 120.0
            },
            {
                "start_time": 42.5204545,
                "end_time": 42.9045455,
                "pitch": 62,
                "velocity": 80,
                "duration": 0.3840909,
                "tempo": 120.0
            },
            {
                "start_time": 42.9204545,
                "end_time": 43.3045455,
                "pitch": 64,
                "velocity": 80,
                "duration": 0.3840909,
                "tempo": 120.0
            },
            {
                "start_time": 43.3204545,
                "end_time": 44.4727273,
                "pitch": 55,
                "velocity": 80,
                "duration": 1.1522727,
                "tempo": 120.0
            },
            {
                "start_time": 44.9227273,
                "end_time": 46.1090909,
                "pitch": 59,
                "velocity": 80,
                "duration": 1.1863636,
                "tempo": 120.0
            },
            {
                "start_time": 46.1272727,
                "end_time": 46.5090909,
                "pitch": 69,
                "velocity": 80,
                "duration": 0.3818182,
                "tempo": 120.0
            },
            {
                "start_time": 46.5272727,
                "end_time": 47.3090909,
                "pitch": 67,
                "velocity": 80,
                "duration": 0.7818182,
                "tempo": 120.0
            },
            {
                "start_time": 47.3272727,
                "end_time": 47.7113636,
                "pitch": 65,
                "velocity": 80,
                "duration": 0.3840909,
                "tempo": 120.0
            },
            {
                "start_time": 47.7295455,
                "end_time": 48.1113636,
                "pitch": 64,
                "velocity": 80,
                "duration": 0.3818182,
                "tempo": 120.0
            }
        ],
        "Oboe": [
            {
                "start_time": 48.1295455,
                "end_time": 48.3113636,
                "pitch": 60,
                "velocity": 80,
                "duration": 0.1818182,
                "tempo": 120.0
            },
            {
                "start_time": 48.3295455,
                "end_time": 48.5113636,
                "pitch": 62,
                "velocity": 80,
                "duration": 0.1818182,
                "tempo": 120.0
            },
            {
                "start_time": 48.5295455,
                "end_time": 48.7113636,
                "pitch": 64,
                "velocity": 80,
                "duration": 0.1818182,
                "tempo": 120.0
            },
            {
                "start_time": 48.7295455,
                "end_time": 48.9113636,
                "pitch": 65,
                "velocity": 80,
                "duration": 0.1818182,
                "tempo": 120.0
            },
            {
                "start_time": 48.9295455,
                "end_time": 49.1113636,
                "pitch": 62,
                "velocity": 80,
                "duration": 0.1818182,
                "tempo": 120.0
            },
            {
                "start_time": 49.1295455,
                "end_time": 49.3113636,
                "pitch": 64,
                "velocity": 80,
                "duration": 0.1818182,
                "tempo": 120.0
            },
            {
                "start_time": 49.3295455,
                "end_time": 49.5136364,
                "pitch": 65,
                "velocity": 80,
                "duration": 0.1840909,
                "tempo": 120.0
            },
            {
                "start_time": 49.5295455,
                "end_time": 49.7159091,
                "pitch": 67,
                "velocity": 80,
                "duration": 0.1863636,
                "tempo": 120.0
            },
            {
                "start_time": 49.7318182,
                "end_time": 49.9159091,
                "pitch": 64,
                "velocity": 80,
                "duration": 0.1840909,
                "tempo": 120.0
            },
            {
                "start_time": 49.9318182,
                "end_time": 50.1159091,
                "pitch": 65,
                "velocity": 80,
                "duration": 0.1840909,
                "tempo": 120.0
            },
            {
                "start_time": 50.1318182,
                "end_time": 50.3159091,
                "pitch": 67,
                "velocity": 80,
                "duration": 0.1840909,
                "tempo": 120.0
            },
            {
                "start_time": 50.3318182,
                "end_time": 50.5159091,
                "pitch": 69,
                "velocity": 80,
                "duration": 0.1840909,
                "tempo": 120.0
            },
            {
                "start_time": 50.5318182,
                "end_time": 50.9159091,
                "pitch": 72,
                "velocity": 80,
                "duration": 0.3840909,
                "tempo": 120.0
            },
            {
                "start_time": 50.9318182,
                "end_time": 51.3159091,
                "pitch": 71,
                "velocity": 80,
                "duration": 0.3840909,
                "tempo": 120.0
            }
        ],
        "Lead 2 (sawtooth)": [
            {
                "start_time": 0.0,
                "end_time": 0.3840909,
                "pitch": 33,
                "velocity": 51,
                "duration": 0.3840909,
                "tempo": 120.0
            },
            {
                "start_time": 0.4,
                "end_time": 0.7840909,
                "pitch": 33,
                "velocity": 51,
                "duration": 0.3840909,
                "tempo": 120.0
            },
            {
                "start_time": 0.8,
                "end_time": 1.1840909,
                "pitch": 33,
                "velocity": 51,
                "duration": 0.3840909,
                "tempo": 120.0
            },
            {
                "start_time": 1.2,
                "end_time": 1.5840909,
                "pitch": 33,
                "velocity": 51,
                "duration": 0.3840909,
                "tempo": 120.0
            },
            {
                "start_time": 1.6,
                "end_time": 1.9863636,
                "pitch": 33,
                "velocity": 51,
                "duration": 0.3863636,
                "tempo": 120.0
            },
            {
                "start_time": 2.0022727,
                "end_time": 2.3863636,
                "pitch": 33,
                "velocity": 51,
                "duration": 0.3840909,
                "tempo": 120.0
            },
            {
                "start_time": 2.4022727,
                "end_time": 2.7863636,
                "pitch": 33,
                "velocity": 51,
                "duration": 0.3840909,
                "tempo": 120.0
            },
            {
                "start_time": 2.8022727,
                "end_time": 3.1863636,
                "pitch": 33,
                "velocity": 51,
                "duration": 0.3840909,
                "tempo": 120.0
            },
            {
                "start_time": 3.2022727,
                "end_time": 3.5886364,
                "pitch": 29,
                "velocity": 51,
                "duration": 0.3863636,
                "tempo": 120.0
            },
            {
                "start_time": 3.6045455,
                "end_time": 3.9886364,
                "pitch": 29,
                "velocity": 51,
                "duration": 0.3840909,
                "tempo": 120.0
            },
            {
                "start_time": 4.0045455,
                "end_time": 4.3886364,
                "pitch": 29,
                "velocity": 51,
                "duration": 0.3840909,
                "tempo": 120.0
            },
            {
                "start_time": 4.4045455,
                "end_time": 4.7909091,
                "pitch": 29,
                "velocity": 51,
                "duration": 0.3863636,
                "tempo": 120.0
            },
            {
                "start_time": 4.8090909,
                "end_time": 5.1909091,
                "pitch": 31,
                "velocity": 51,
                "duration": 0.3818182,
                "tempo": 120.0
            },
            {
                "start_time": 5.2090909,
                "end_time": 5.5931818,
                "pitch": 31,
                "velocity": 51,
                "duration": 0.3840909,
                "tempo": 120.0
            },
            {
                "start_time": 5.6113636,
                "end_time": 5.9931818,
                "pitch": 31,
                "velocity": 51,
                "duration": 0.3818182,
                "tempo": 120.0
            },
            {
                "start_time": 6.0113636,
                "end_time": 6.3977273,
                "pitch": 31,
                "velocity": 51,
                "duration": 0.3863636,
                "tempo": 120.0
            },
            {
                "start_time": 6.4136364,
                "end_time": 6.8,
                "pitch": 33,
                "velocity": 51,
                "duration": 0.3863636,
                "tempo": 120.0
            },
            {
                "start_time": 6.8159091,
                "end_time": 7.2,
                "pitch": 33,
                "velocity": 51,
                "duration": 0.3840909,
                "tempo": 120.0
            },
            {
                "start_time": 7.2159091,
                "end_time": 7.6022727,
                "pitch": 33,
                "velocity": 51,
                "duration": 0.3863636,
                "tempo": 120.0
            },
            {
                "start_time": 7.6181818,
                "end_time": 8.0022727,
                "pitch": 33,
                "velocity": 51,
                "duration": 0.3840909,
                "tempo": 120.0
            },
            {
                "start_time": 8.0181818,
                "end_time": 8.4045455,
                "pitch": 33,
                "velocity": 51,
                "duration": 0.3863636,
                "tempo": 120.0
            },
            {
                "start_time": 8.4204545,
                "end_time": 8.8068182,
                "pitch": 33,
                "velocity": 51,
                "duration": 0.3863636,
                "tempo": 120.0
            },
            {
                "start_time": 8.825,
                "end_time": 9.2090909,
                "pitch": 33,
                "velocity": 51,
                "duration": 0.3840909,
                "tempo": 120.0
            },
            {
                "start_time": 9.2272727,
                "end_time": 9.6090909,
                "pitch": 33,
                "velocity": 51,
                "duration": 0.3818182,
                "tempo": 120.0
            },
            {
                "start_time": 9.6272727,
                "end_time": 10.0136364,
                "pitch": 29,
                "velocity": 51,
                "duration": 0.3863636,
                "tempo": 120.0
            },
            {
                "start_time": 10.0295455,
                "end_time": 10.4159091,
                "pitch": 29,
                "velocity": 51,
                "duration": 0.3863636,
                "tempo": 120.0
            },
            {
                "start_time": 10.4318182,
                "end_time": 10.8181818,
                "pitch": 29,
                "velocity": 51,
                "duration": 0.3863636,
                "tempo": 120.0
            },
            {
                "start_time": 10.8340909,
                "end_time": 11.2204545,
                "pitch": 29,
                "velocity": 51,
                "duration": 0.3863636,
                "tempo": 120.0
            },
            {
                "start_time": 11.2386364,
                "end_time": 11.6204545,
                "pitch": 40,
                "velocity": 51,
                "duration": 0.3818182,
                "tempo": 120.0
            },
            {
                "start_time": 11.6386364,
                "end_time": 12.0227273,
                "pitch": 40,
                "velocity": 51,
                "duration": 0.3840909,
                "tempo": 120.0
            },
            {
                "start_time": 12.0409091,
                "end_time": 12.4272727,
                "pitch": 40,
                "velocity": 51,
                "duration": 0.3863636,
                "tempo": 120.0
            },
            {
                "start_time": 12.4431818,
                "end_time": 12.8295455,
                "pitch": 40,
                "velocity": 51,
                "duration": 0.3863636,
                "tempo": 120.0
            },
            {
                "start_time": 12.8454545,
                "end_time": 13.2318182,
                "pitch": 33,
                "velocity": 51,
                "duration": 0.3863636,
                "tempo": 120.0
            },
            {
                "start_time": 13.2477273,
                "end_time": 13.6318182,
                "pitch": 33,
                "velocity": 51,
                "duration": 0.3840909,
                "tempo": 120.0
            },
            {
                "start_time": 13.6477273,
                "end_time": 14.0340909,
                "pitch": 33,
                "velocity": 51,
                "duration": 0.3863636,
                "tempo": 120.0
            },
            {
                "start_time": 14.05,
                "end_time": 14.4363636,
                "pitch": 33,
                "velocity": 51,
                "duration": 0.3863636,
                "tempo": 120.0
            },
            {
                "start_time": 14.4545455,
                "end_time": 14.8386364,
                "pitch": 33,
                "velocity": 51,
                "duration": 0.3840909,
                "tempo": 120.0
            },
            {
                "start_time": 14.8568182,
                "end_time": 15.2431818,
                "pitch": 33,
                "velocity": 51,
                "duration": 0.3863636,
                "tempo": 120.0
            },
            {
                "start_time": 15.2590909,
                "end_time": 15.6431818,
                "pitch": 33,
                "velocity": 51,
                "duration": 0.3840909,
                "tempo": 120.0
            },
            {
                "start_time": 15.6590909,
                "end_time": 16.0454545,
                "pitch": 33,
                "velocity": 51,
                "duration": 0.3863636,
                "tempo": 120.0
            },
            {
                "start_time": 16.0613636,
                "end_time": 16.4477273,
                "pitch": 29,
                "velocity": 51,
                "duration": 0.3863636,
                "tempo": 120.0
            },
            {
                "start_time": 16.4636364,
                "end_time": 16.8477273,
                "pitch": 29,
                "velocity": 51,
                "duration": 0.3840909,
                "tempo": 120.0
            },
            {
                "start_time": 16.8636364,
                "end_time": 17.25,
                "pitch": 29,
                "velocity": 51,
                "duration": 0.3863636,
                "tempo": 120.0
            },
            {
                "start_time": 17.2681818,
                "end_time": 17.65,
                "pitch": 29,
                "velocity": 51,
                "duration": 0.3818182,
                "tempo": 120.0
            },
            {
                "start_time": 17.6681818,
                "end_time": 18.0522727,
                "pitch": 31,
                "velocity": 51,
                "duration": 0.3840909,
                "tempo": 120.0
            },
            {
                "start_time": 18.0704545,
                "end_time": 18.4522727,
                "pitch": 31,
                "velocity": 51,
                "duration": 0.3818182,
                "tempo": 120.0
            },
            {
                "start_time": 18.4704545,
                "end_time": 18.8522727,
                "pitch": 31,
                "velocity": 51,
                "duration": 0.3818182,
                "tempo": 120.0
            },
            {
                "start_time": 18.8704545,
                "end_time": 19.2568182,
                "pitch": 31,
                "velocity": 51,
                "duration": 0.3863636,
                "tempo": 120.0
            },
            {
                "start_time": 19.2727273,
                "end_time": 19.6568182,
                "pitch": 33,
                "velocity": 51,
                "duration": 0.3840909,
                "tempo": 120.0
            },
            {
                "start_time": 19.6727273,
                "end_time": 20.0590909,
                "pitch": 33,
                "velocity": 51,
                "duration": 0.3863636,
                "tempo": 120.0
            },
            {
                "start_time": 20.075,
                "end_time": 20.4590909,
                "pitch": 33,
                "velocity": 51,
                "duration": 0.3840909,
                "tempo": 120.0
            },
            {
                "start_time": 20.475,
                "end_time": 20.8590909,
                "pitch": 33,
                "velocity": 51,
                "duration": 0.3840909,
                "tempo": 120.0
            },
            {
                "start_time": 20.875,
                "end_time": 21.2613636,
                "pitch": 33,
                "velocity": 51,
                "duration": 0.3863636,
                "tempo": 120.0
            },
            {
                "start_time": 21.2772727,
                "end_time": 21.6613636,
                "pitch": 33,
                "velocity": 51,
                "duration": 0.3840909,
                "tempo": 120.0
            },
            {
                "start_time": 21.6772727,
                "end_time": 22.0636364,
                "pitch": 33,
                "velocity": 51,
                "duration": 0.3863636,
                "tempo": 120.0
            },
            {
                "start_time": 22.0795455,
                "end_time": 22.4636364,
                "pitch": 33,
                "velocity": 51,
                "duration": 0.3840909,
                "tempo": 120.0
            },
            {
                "start_time": 22.4795455,
                "end_time": 22.8636364,
                "pitch": 29,
                "velocity": 51,
                "duration": 0.3840909,
                "tempo": 120.0
            },
            {
                "start_time": 22.8795455,
                "end_time": 23.2659091,
                "pitch": 29,
                "velocity": 51,
                "duration": 0.3863636,
                "tempo": 120.0
            },
            {
                "start_time": 23.2840909,
                "end_time": 23.6659091,
                "pitch": 29,
                "velocity": 51,
                "duration": 0.3818182,
                "tempo": 120.0
            },
            {
                "start_time": 23.6840909,
                "end_time": 24.0681818,
                "pitch": 29,
                "velocity": 51,
                "duration": 0.3840909,
                "tempo": 120.0
            },
            {
                "start_time": 24.0863636,
                "end_time": 24.4681818,
                "pitch": 31,
                "velocity": 51,
                "duration": 0.3818182,
                "tempo": 120.0
            },
            {
                "start_time": 24.4863636,
                "end_time": 24.8681818,
                "pitch": 31,
                "velocity": 51,
                "duration": 0.3818182,
                "tempo": 120.0
            },
            {
                "start_time": 24.8863636,
                "end_time": 25.2727273,
                "pitch": 31,
                "velocity": 51,
                "duration": 0.3863636,
                "tempo": 120.0
            },
            {
                "start_time": 25.2886364,
                "end_time": 25.6727273,
                "pitch": 31,
                "velocity": 51,
                "duration": 0.3840909,
                "tempo": 120.0
            },
            {
                "start_time": 25.6886364,
                "end_time": 26.075,
                "pitch": 40,
                "velocity": 51,
                "duration": 0.3863636,
                "tempo": 120.0
            },
            {
                "start_time": 26.0909091,
                "end_time": 26.475,
                "pitch": 40,
                "velocity": 51,
                "duration": 0.3840909,
                "tempo": 120.0
            },
            {
                "start_time": 26.4909091,
                "end_time": 26.875,
                "pitch": 40,
                "velocity": 51,
                "duration": 0.3840909,
                "tempo": 120.0
            },
            {
                "start_time": 26.8909091,
                "end_time": 27.2772727,
                "pitch": 40,
                "velocity": 51,
                "duration": 0.3863636,
                "tempo": 120.0
            },
            {
                "start_time": 27.2931818,
                "end_time": 27.6772727,
                "pitch": 40,
                "velocity": 51,
                "duration": 0.3840909,
                "tempo": 120.0
            },
            {
                "start_time": 27.6931818,
                "end_time": 28.0795455,
                "pitch": 40,
                "velocity": 51,
                "duration": 0.3863636,
                "tempo": 120.0
            },
            {
                "start_time": 28.0977273,
                "end_time": 28.4795455,
                "pitch": 40,
                "velocity": 51,
                "duration": 0.3818182,
                "tempo": 120.0
            },
            {
                "start_time": 28.4977273,
                "end_time": 28.8795455,
                "pitch": 40,
                "velocity": 51,
                "duration": 0.3818182,
                "tempo": 120.0
            },
            {
                "start_time": 28.8977273,
                "end_time": 29.2818182,
                "pitch": 36,
                "velocity": 51,
                "duration": 0.3840909,
                "tempo": 120.0
            },
            {
                "start_time": 29.3,
                "end_time": 29.6818182,
                "pitch": 36,
                "velocity": 51,
                "duration": 0.3818182,
                "tempo": 120.0
            },
            {
                "start_time": 29.7,
                "end_time": 30.0863636,
                "pitch": 36,
                "velocity": 51,
                "duration": 0.3863636,
                "tempo": 120.0
            },
            {
                "start_time": 30.1022727,
                "end_time": 30.4863636,
                "pitch": 36,
                "velocity": 51,
                "duration": 0.3840909,
                "tempo": 120.0
            },
            {
                "start_time": 30.5022727,
                "end_time": 30.8863636,
                "pitch": 36,
                "velocity": 51,
                "duration": 0.3840909,
                "tempo": 120.0
            },
            {
                "start_time": 30.9022727,
                "end_time": 31.2886364,
                "pitch": 36,
                "velocity": 51,
                "duration": 0.3863636,
                "tempo": 120.0
            },
            {
                "start_time": 31.3045455,
                "end_time": 31.6886364,
                "pitch": 36,
                "velocity": 51,
                "duration": 0.3840909,
                "tempo": 120.0
            },
            {
                "start_time": 31.7045455,
                "end_time": 32.0909091,
                "pitch": 36,
                "velocity": 51,
                "duration": 0.3863636,
                "tempo": 120.0
            },
            {
                "start_time": 32.1068182,
                "end_time": 32.4909091,
                "pitch": 38,
                "velocity": 51,
                "duration": 0.3840909,
                "tempo": 120.0
            },
            {
                "start_time": 32.5068182,
                "end_time": 32.8909091,
                "pitch": 38,
                "velocity": 51,
                "duration": 0.3840909,
                "tempo": 120.0
            },
            {
                "start_time": 32.9068182,
                "end_time": 33.2909091,
                "pitch": 38,
                "velocity": 51,
                "duration": 0.3840909,
                "tempo": 120.0
            },
            {
                "start_time": 33.3068182,
                "end_time": 33.6931818,
                "pitch": 38,
                "velocity": 51,
                "duration": 0.3863636,
                "tempo": 120.0
            },
            {
                "start_time": 33.7090909,
                "end_time": 34.0931818,
                "pitch": 38,
                "velocity": 51,
                "duration": 0.3840909,
                "tempo": 120.0
            },
            {
                "start_time": 34.1090909,
                "end_time": 34.4931818,
                "pitch": 38,
                "velocity": 51,
                "duration": 0.3840909,
                "tempo": 120.0
            },
            {
                "start_time": 34.5090909,
                "end_time": 34.8931818,
                "pitch": 38,
                "velocity": 51,
                "duration": 0.3840909,
                "tempo": 120.0
            },
            {
                "start_time": 34.9090909,
                "end_time": 35.2931818,
                "pitch": 38,
                "velocity": 51,
                "duration": 0.3840909,
                "tempo": 120.0
            },
            {
                "start_time": 35.3090909,
                "end_time": 35.6954545,
                "pitch": 35,
                "velocity": 51,
                "duration": 0.3863636,
                "tempo": 120.0
            },
            {
                "start_time": 35.7136364,
                "end_time": 36.0954545,
                "pitch": 35,
                "velocity": 51,
                "duration": 0.3818182,
                "tempo": 120.0
            },
            {
                "start_time": 36.1136364,
                "end_time": 36.4954545,
                "pitch": 35,
                "velocity": 51,
                "duration": 0.3818182,
                "tempo": 120.0
            },
            {
                "start_time": 36.5136364,
                "end_time": 36.8954545,
                "pitch": 35,
                "velocity": 51,
                "duration": 0.3818182,
                "tempo": 120.0
            },
            {
                "start_time": 36.9136364,
                "end_time": 37.2954545,
                "pitch": 36,
                "velocity": 51,
                "duration": 0.3818182,
                "tempo": 120.0
            },
            {
                "start_time": 37.3136364,
                "end_time": 37.6977273,
                "pitch": 36,
                "velocity": 51,
                "duration": 0.3840909,
                "tempo": 120.0
            },
            {
                "start_time": 37.7159091,
                "end_time": 38.0977273,
                "pitch": 36,
                "velocity": 51,
                "duration": 0.3818182,
                "tempo": 120.0
            },
            {
                "start_time": 38.1159091,
                "end_time": 38.4977273,
                "pitch": 36,
                "velocity": 51,
                "duration": 0.3818182,
                "tempo": 120.0
            },
            {
                "start_time": 38.5159091,
                "end_time": 38.8977273,
                "pitch": 40,
                "velocity": 51,
                "duration": 0.3818182,
                "tempo": 120.0
            },
            {
                "start_time": 38.9159091,
                "end_time": 39.2977273,
                "pitch": 40,
                "velocity": 51,
                "duration": 0.3818182,
                "tempo": 120.0
            },
            {
                "start_time": 39.3159091,
                "end_time": 39.7022727,
                "pitch": 40,
                "velocity": 51,
                "duration": 0.3863636,
                "tempo": 120.0
            },
            {
                "start_time": 39.7181818,
                "end_time": 40.1022727,
                "pitch": 40,
                "velocity": 51,
                "duration": 0.3840909,
                "tempo": 120.0
            },
            {
                "start_time": 40.1181818,
                "end_time": 40.5022727,
                "pitch": 40,
                "velocity": 51,
                "duration": 0.3840909,
                "tempo": 120.0
            },
            {
                "start_time": 40.5181818,
                "end_time": 40.9022727,
                "pitch": 40,
                "velocity": 51,
                "duration": 0.3840909,
                "tempo": 120.0
            },
            {
                "start_time": 40.9181818,
                "end_time": 41.3022727,
                "pitch": 40,
                "velocity": 51,
                "duration": 0.3840909,
                "tempo": 120.0
            },
            {
                "start_time": 41.3181818,
                "end_time": 41.7045455,
                "pitch": 40,
                "velocity": 51,
                "duration": 0.3863636,
                "tempo": 120.0
            },
            {
                "start_time": 41.7204545,
                "end_time": 42.1045455,
                "pitch": 36,
                "velocity": 51,
                "duration": 0.3840909,
                "tempo": 120.0
            },
            {
                "start_time": 42.1204545,
                "end_time": 42.5045455,
                "pitch": 36,
                "velocity": 51,
                "duration": 0.3840909,
                "tempo": 120.0
            },
            {
                "start_time": 42.5204545,
                "end_time": 42.9045455,
                "pitch": 36,
                "velocity": 51,
                "duration": 0.3840909,
                "tempo": 120.0
            },
            {
                "start_time": 42.9204545,
                "end_time": 43.3045455,
                "pitch": 36,
                "velocity": 51,
                "duration": 0.3840909,
                "tempo": 120.0
            },
            {
                "start_time": 43.3204545,
                "end_time": 43.7068182,
                "pitch": 36,
                "velocity": 51,
                "duration": 0.3863636,
                "tempo": 120.0
            },
            {
                "start_time": 43.7227273,
                "end_time": 44.1068182,
                "pitch": 36,
                "velocity": 51,
                "duration": 0.3840909,
                "tempo": 120.0
            },
            {
                "start_time": 44.1227273,
                "end_time": 44.5068182,
                "pitch": 36,
                "velocity": 51,
                "duration": 0.3840909,
                "tempo": 120.0
            },
            {
                "start_time": 44.5227273,
                "end_time": 44.9068182,
                "pitch": 36,
                "velocity": 51,
                "duration": 0.3840909,
                "tempo": 120.0
            },
            {
                "start_time": 44.9227273,
                "end_time": 45.3068182,
                "pitch": 35,
                "velocity": 51,
                "duration": 0.3840909,
                "tempo": 120.0
            },
            {
                "start_time": 45.3227273,
                "end_time": 45.7090909,
                "pitch": 35,
                "velocity": 51,
                "duration": 0.3863636,
                "tempo": 120.0
            },
            {
                "start_time": 45.7272727,
                "end_time": 46.1090909,
                "pitch": 35,
                "velocity": 51,
                "duration": 0.3818182,
                "tempo": 120.0
            },
            {
                "start_time": 46.1272727,
                "end_time": 46.5090909,
                "pitch": 35,
                "velocity": 51,
                "duration": 0.3818182,
                "tempo": 120.0
            },
            {
                "start_time": 46.5272727,
                "end_time": 46.9090909,
                "pitch": 35,
                "velocity": 51,
                "duration": 0.3818182,
                "tempo": 120.0
            },
            {
                "start_time": 46.9272727,
                "end_time": 47.3090909,
                "pitch": 35,
                "velocity": 51,
                "duration": 0.3818182,
                "tempo": 120.0
            },
            {
                "start_time": 47.3272727,
                "end_time": 47.7113636,
                "pitch": 35,
                "velocity": 51,
                "duration": 0.3840909,
                "tempo": 120.0
            },
            {
                "start_time": 47.7295455,
                "end_time": 48.1113636,
                "pitch": 35,
                "velocity": 51,
                "duration": 0.3818182,
                "tempo": 120.0
            },
            {
                "start_time": 48.1295455,
                "end_time": 48.5113636,
                "pitch": 29,
                "velocity": 51,
                "duration": 0.3818182,
                "tempo": 120.0
            },
            {
                "start_time": 48.5295455,
                "end_time": 48.9113636,
                "pitch": 29,
                "velocity": 51,
                "duration": 0.3818182,
                "tempo": 120.0
            },
            {
                "start_time": 48.9295455,
                "end_time": 49.3113636,
                "pitch": 29,
                "velocity": 51,
                "duration": 0.3818182,
                "tempo": 120.0
            },
            {
                "start_time": 49.3295455,
                "end_time": 49.7159091,
                "pitch": 29,
                "velocity": 51,
                "duration": 0.3863636,
                "tempo": 120.0
            },
            {
                "start_time": 49.7318182,
                "end_time": 50.1159091,
                "pitch": 31,
                "velocity": 51,
                "duration": 0.3840909,
                "tempo": 120.0
            },
            {
                "start_time": 50.1318182,
                "end_time": 50.5159091,
                "pitch": 31,
                "velocity": 51,
                "duration": 0.3840909,
                "tempo": 120.0
            },
            {
                "start_time": 50.5318182,
                "end_time": 50.9159091,
                "pitch": 31,
                "velocity": 51,
                "duration": 0.3840909,
                "tempo": 120.0
            },
            {
                "start_time": 50.9318182,
                "end_time": 51.3159091,
                "pitch": 31,
                "velocity": 51,
                "duration": 0.3840909,
                "tempo": 120.0
            }
        ]
    }
}