{
    "mood": "angry",
    "instruments": {
        "Violin": [
            {
                "start_time": 0.0,
                "end_time": 1.3318182,
                "pitch": 59,
                "velocity": 127,
                "duration": 1.3318182,
                "tempo": 120.0
            },
            {
                "start_time": 1.3318182,
                "end_time": 1.575,
                "pitch": 71,
                "velocity": 127,
                "duration": 0.2431818,
                "tempo": 120.0
            },
            {
                "start_time": 1.575,
                "end_time": 3.5886364,
                "pitch": 66,
                "velocity": 127,
                "duration": 2.0136364,
                "tempo": 120.0
            },
            {
                "start_time": 3.5886364,
                "end_time": 4.9795455,
                "pitch": 65,
                "velocity": 127,
                "duration": 1.3909091,
                "tempo": 120.0
            },
            {
                "start_time": 4.9795455,
                "end_time": 5.2022727,
                "pitch": 57,
                "velocity": 127,
                "duration": 0.2227273,
                "tempo": 120.0
            },
            {
                "start_time": 5.2022727,
                "end_time": 7.2363636,
                "pitch": 59,
                "velocity": 127,
                "duration": 2.0340909,
                "tempo": 120.0
            },
            {
                "start_time": 7.2363636,
                "end_time": 8.5909091,
                "pitch": 59,
                "velocity": 127,
                "duration": 1.3545455,
                "tempo": 120.0
            },
            {
                "start_time": 8.5909091,
                "end_time": 8.8295455,
                "pitch": 71,
                "velocity": 127,
                "duration": 0.2386364,
                "tempo": 120.0
            },
            {
                "start_time": 8.8295455,
                "end_time": 10.8636364,
                "pitch": 66,
                "velocity": 127,
                "duration": 2.0340909,
                "tempo": 120.0
            },
            {
                "start_time": 10.8636364,
                "end_time": 12.2386364,
                "pitch": 65,
                "velocity": 127,
                "duration": 1.375,
                "tempo": 120.0
            },
            {
                "start_time": 12.2386364,
                "end_time": 12.4613636,
                "pitch": 57,
                "velocity": 127,
                "duration": 0.2227273,
                "tempo": 120.0
            },
            {
                "start_time": 12.4613636,
                "end_time": 21.7431818,
                "pitch": 59,
                "velocity": 127,
                "duration": 9.2818182,
                "tempo": 120.0
            },
            {
                "start_time": 21.7431818,
                "end_time": 21.9818182,
                "pitch": 62,
                "velocity": 127,
                "duration": 0.2386364,
                "tempo": 120.0
            },
            {
                "start_time": 21.9818182,
                "end_time": 22.4340909,
                "pitch": 59,
                "velocity": 127,
                "duration": 0.4522727,
                "tempo": 120.0
            },
            {
                "start_time": 22.4340909,
                "end_time": 22.6454545,
                "pitch": 65,
                "velocity": 127,
                "duration": 0.2113636,
                "tempo": 120.0
            },
            {
                "start_time": 22.6454545,
                "end_time": 23.1181818,
                "pitch": 59,
                "velocity": 127,
                "duration": 0.4727273,
                "tempo": 120.0
            },
            {
                "start_time": 23.1181818,
                "end_time": 23.3477273,
                "pitch": 62,
                "velocity": 127,
                "duration": 0.2295455,
                "tempo": 120.0
            },
            {
                "start_time": 23.3477273,
                "end_time": 23.7931818,
                "pitch": 59,
                "velocity": 127,
                "duration": 0.4454545,
                "tempo": 120.0
            },
            {
                "start_time": 23.7931818,
                "end_time": 24.0090909,
                "pitch": 66,
                "velocity": 127,
                "duration": 0.2159091,
                "tempo": 120.0
            },
            {
                "start_time": 24.0090909,
                "end_time": 24.25,
                "pitch": 66,
                "velocity": 127,
                "duration": 0.2409091,
                "tempo": 120.0
            },
            {
                "start_time": 24.25,
                "end_time": 24.4886364,
                "pitch": 62,
                "velocity": 127,
                "duration": 0.2386364,
                "tempo": 120.0
            },
            {
                "start_time": 24.4886364,
                "end_time": 24.95,
                "pitch": 69,
                "velocity": 127,
                "duration": 0.4613636,
                "tempo": 120.0
            },
            {
                "start_time": 24.95,
                "end_time": 25.1681818,
                "pitch": 62,
                "velocity": 127,
                "duration": 0.2181818,
                "tempo": 120.0
            },
            {
                "start_time": 25.1681818,
                "end_time": 29.0022727,
                "pitch": 69,
                "velocity": 127,
                "duration": 3.8340909,
                "tempo": 120.0
            },
            {
                "start_time": 29.0022727,
                "end_time": 29.2409091,
                "pitch": 62,
                "velocity": 127,
                "duration": 0.2386364,
                "tempo": 120.0
            },
            {
                "start_time": 29.2409091,
                "end_time": 29.6909091,
                "pitch": 59,
                "velocity": 127,
                "duration": 0.45,
                "tempo": 120.0
            },
            {
                "start_time": 29.6909091,
                "end_time": 29.9045455,
                "pitch": 65,
                "velocity": 127,
                "duration": 0.2136364,
                "tempo": 120.0
            },
            {
                "start_time": 29.9045455,
                "end_time": 30.3659091,
                "pitch": 59,
                "velocity": 127,
                "duration": 0.4613636,
                "tempo": 120.0
            },
            {
                "start_time": 30.3659091,
                "end_time": 30.6,
                "pitch": 62,
                "velocity": 127,
                "duration": 0.2340909,
                "tempo": 120.0
            },
            {
                "start_time": 30.6,
                "end_time": 31.0454545,
                "pitch": 59,
                "velocity": 127,
                "duration": 0.4454545,
                "tempo": 120.0
            },
            {
                "start_time": 31.0454545,
                "end_time": 31.2590909,
                "pitch": 66,
                "velocity": 127,
                "duration": 0.2136364,
                "tempo": 120.0
            },
            {
                "start_time": 31.2590909,
                "end_time": 31.5022727,
                "pitch": 66,
                "velocity": 127,
                "duration": 0.2431818,
                "tempo": 120.0
            },
            {
                "start_time": 31.5022727,
                "end_time": 31.7477273,
                "pitch": 62,
                "velocity": 127,
                "duration": 0.2454545,
                "tempo": 120.0
            },
            {
                "start_time": 31.7477273,
                "end_time": 32.2090909,
                "pitch": 69,
                "velocity": 127,
                "duration": 0.4613636,
                "tempo": 120.0
            },
            {
                "start_time": 32.2090909,
                "end_time": 32.4272727,
                "pitch": 62,
                "velocity": 127,
                "duration": 0.2181818,
                "tempo": 120.0
            },
            {
                "start_time": 32.4272727,
                "end_time": 36.2613636,
                "pitch": 69,
                "velocity": 127,
                "duration": 3.8340909,
                "tempo": 120.0
            },
            {
                "start_time": 36.2613636,
                "end_time": 36.3772727,
                "pitch": 69,
                "velocity": 127,
                "duration": 0.1159091,
                "tempo": 120.0
            },
            {
                "start_time": 36.3772727,
                "end_time": 36.4954545,
                "pitch": 69,
                "velocity": 127,
                "duration": 0.1181818,
                "tempo": 120.0
            },
            {
                "start_time": 36.4954545,
                "end_time": 36.6113636,
                "pitch": 73,
                "velocity": 127,
                "duration": 0.1159091,
                "tempo": 120.0
            },
            {
                "start_time": 36.6113636,
                "end_time": 36.7113636,
                "pitch": 73,
                "velocity": 127,
                "duration": 0.1,
                "tempo": 120.0
            },
            {
                "start_time": 36.7113636,
                "end_time": 36.9522727,
                "pitch": 78,
                "velocity": 127,
                "duration": 0.2409091,
                "tempo": 120.0
            },
            {
                "start_time": 36.9522727,
                "end_time": 37.0704545,
                "pitch": 69,
                "velocity": 101,
                "duration": 0.1181818,
                "tempo": 120.0
            },
            {
                "start_time": 37.0704545,
                "end_time": 37.1727273,
                "pitch": 69,
                "velocity": 101,
                "duration": 0.1022727,
                "tempo": 120.0
            },
            {
                "start_time": 37.1727273,
                "end_time": 37.2886364,
                "pitch": 73,
                "velocity": 101,
                "duration": 0.1159091,
                "tempo": 120.0
            },
            {
                "start_time": 37.2886364,
                "end_time": 37.4022727,
                "pitch": 73,
                "velocity": 101,
                "duration": 0.1136364,
                "tempo": 120.0
            },
            {
                "start_time": 37.4022727,
                "end_time": 38.0659091,
                "pitch": 78,
                "velocity": 101,
                "duration": 0.6636364,
                "tempo": 120.0
            },
            {
                "start_time": 38.0659091,
                "end_time": 38.1840909,
                "pitch": 81,
                "velocity": 127,
                "duration": 0.1181818,
                "tempo": 120.0
            },
            {
                "start_time": 38.1840909,
                "end_time": 38.3,
                "pitch": 81,
                "velocity": 127,
                "duration": 0.1159091,
                "tempo": 120.0
            },
            {
                "start_time": 38.3,
                "end_time": 38.4181818,
                "pitch": 85,
                "velocity": 127,
                "duration": 0.1181818,
                "tempo": 120.0
            },
            {
                "start_time": 38.4181818,
                "end_time": 38.5340909,
                "pitch": 85,
                "velocity": 127,
                "duration": 0.1159091,
                "tempo": 120.0
            },
            {
                "start_time": 38.5340909,
                "end_time": 38.7636364,
                "pitch": 90,
                "velocity": 127,
                "duration": 0.2295455,
                "tempo": 120.0
            },
            {
                "start_time": 38.7636364,
                "end_time": 38.8886364,
                "pitch": 81,
                "velocity": 101,
                "duration": 0.125,
                "tempo": 120.0
            },
            {
                "start_time": 38.8886364,
                "end_time": 39.0136364,
                "pitch": 81,
                "velocity": 101,
                "duration": 0.125,
                "tempo": 120.0
            },
            {
                "start_time": 39.0136364,
                "end_time": 39.1090909,
                "pitch": 85,
                "velocity": 101,
                "duration": 0.0954545,
                "tempo": 120.0
            },
            {
                "start_time": 39.1090909,
                "end_time": 39.2204545,
                "pitch": 85,
                "velocity": 101,
                "duration": 0.1113636,
                "tempo": 120.0
            },
            {
                "start_time": 39.2204545,
                "end_time": 39.4454545,
                "pitch": 90,
                "velocity": 101,
                "duration": 0.225,
                "tempo": 120.0
            },
            {
                "start_time": 39.4454545,
                "end_time": 39.5477273,
                "pitch": 81,
                "velocity": 80,
                "duration": 0.1022727,
                "tempo": 120.0
            },
            {
                "start_time": 39.5477273,
                "end_time": 39.6704545,
                "pitch": 81,
                "velocity": 80,
                "duration": 0.1227273,
                "tempo": 120.0
            },
            {
                "start_time": 39.6704545,
                "end_time": 39.7931818,
                "pitch": 85,
                "velocity": 80,
                "duration": 0.1227273,
                "tempo": 120.0
            },
            {
                "start_time": 39.7931818,
                "end_time": 39.9159091,
                "pitch": 85,
                "velocity": 80,
                "duration": 0.1227273,
                "tempo": 120.0
            },
            {
                "start_time": 39.9159091,
                "end_time": 43.5068182,
                "pitch": 90,
                "velocity": 80,
                "duration": 3.5909091,
                "tempo": 120.0
            },
            {
                "start_time": 43.5068182,
                "end_time": 43.7454545,
                "pitch": 62,
                "velocity": 127,
                "duration": 0.2386364,
                "tempo": 120.0
            },
            {
                "start_time": 43.7454545,
                "end_time": 44.1977273,
                "pitch": 59,
                "velocity": 127,
                "duration": 0.4522727,
                "tempo": 120.0
            },
            {
                "start_time": 44.1977273,
                "end_time": 44.4090909,
                "pitch": 65,
                "velocity": 127,
                "duration": 0.2113636,
                "tempo": 120.0
            },
            {
                "start_time": 44.4090909,
                "end_time": 44.8818182,
                "pitch": 59,
                "velocity": 127,
                "duration": 0.4727273,
                "tempo": 120.0
            },
            {
                "start_time": 44.8818182,
                "end_time": 45.1159091,
                "pitch": 62,
                "velocity": 127,
                "duration": 0.2340909,
                "tempo": 120.0
            },
            {
                "start_time": 45.1159091,
                "end_time": 45.5681818,
                "pitch": 59,
                "velocity": 127,
                "duration": 0.4522727,
                "tempo": 120.0
            },
            {
                "start_time": 45.5681818,
                "end_time": 45.8,
                "pitch": 66,
                "velocity": 127,
                "duration": 0.2318182,
                "tempo": 120.0
            },
            {
                "start_time": 45.8,
                "end_time": 46.0227273,
                "pitch": 66,
                "velocity": 127,
                "duration": 0.2227273,
                "tempo": 120.0
            },
            {
                "start_time": 46.0227273,
                "end_time": 46.2613636,
                "pitch": 62,
                "velocity": 127,
                "duration": 0.2386364,
                "tempo": 120.0
            },
            {
                "start_time": 46.2613636,
                "end_time": 46.7136364,
                "pitch": 69,
                "velocity": 127,
                "duration": 0.4522727,
                "tempo": 120.0
            },
            {
                "start_time": 46.7136364,
                "end_time": 46.9318182,
                "pitch": 62,
                "velocity": 127,
                "duration": 0.2181818,
                "tempo": 120.0
            },
            {
                "start_time": 46.9318182,
                "end_time": 50.7659091,
                "pitch": 69,
                "velocity": 127,
                "duration": 3.8340909,
                "tempo": 120.0
            },
            {
                "start_time": 50.7659091,
                "end_time": 51.0045455,
                "pitch": 62,
                "velocity": 127,
                "duration": 0.2386364,
                "tempo": 120.0
            },
            {
                "start_time": 51.0045455,
                "end_time": 51.4545455,
                "pitch": 59,
                "velocity": 127,
                "duration": 0.45,
                "tempo": 120.0
            },
            {
                "start_time": 51.4545455,
                "end_time": 51.6681818,
                "pitch": 65,
                "velocity": 127,
                "duration": 0.2136364,
                "tempo": 120.0
            },
            {
                "start_time": 51.6681818,
                "end_time": 52.1568182,
                "pitch": 59,
                "velocity": 127,
                "duration": 0.4886364,
                "tempo": 120.0
            },
            {
                "start_time": 52.1568182,
                "end_time": 52.3795455,
                "pitch": 62,
                "velocity": 127,
                "duration": 0.2227273,
                "tempo": 120.0
            },
            {
                "start_time": 52.3795455,
                "end_time": 52.8272727,
                "pitch": 59,
                "velocity": 127,
                "duration": 0.4477273,
                "tempo": 120.0
            },
            {
                "start_time": 52.8272727,
                "end_time": 53.05,
                "pitch": 66,
                "velocity": 127,
                "duration": 0.2227273,
                "tempo": 120.0
            },
            {
                "start_time": 53.05,
                "end_time": 53.275,
                "pitch": 66,
                "velocity": 127,
                "duration": 0.225,
                "tempo": 120.0
            },
            {
                "start_time": 53.275,
                "end_time": 53.5204545,
                "pitch": 62,
                "velocity": 127,
                "duration": 0.2454545,
                "tempo": 120.0
            },
            {
                "start_time": 53.5204545,
                "end_time": 53.9727273,
                "pitch": 69,
                "velocity": 127,
                "duration": 0.4522727,
                "tempo": 120.0
            },
            {
                "start_time": 53.9727273,
                "end_time": 54.1909091,
                "pitch": 62,
                "velocity": 127,
                "duration": 0.2181818,
                "tempo": 120.0
            },
            {
                "start_time": 54.1909091,
                "end_time": 58.025,
                "pitch": 69,
                "velocity": 127,
                "duration": 3.8340909,
                "tempo": 120.0
            },
            {
                "start_time": 58.025,
                "end_time": 58.1409091,
                "pitch": 69,
                "velocity": 127,
                "duration": 0.1159091,
                "tempo": 120.0
            },
            {
                "start_time": 58.1409091,
                "end_time": 58.2590909,
                "pitch": 69,
                "velocity": 127,
                "duration": 0.1181818,
                "tempo": 120.0
            },
            {
                "start_time": 58.2590909,
                "end_time": 58.375,
                "pitch": 73,
                "velocity": 127,
                "duration": 0.1159091,
                "tempo": 120.0
            },
            {
                "start_time": 58.375,
                "end_time": 58.4772727,
                "pitch": 73,
                "velocity": 127,
                "duration": 0.1022727,
                "tempo": 120.0
            },
            {
                "start_time": 58.4772727,
                "end_time": 58.7159091,
                "pitch": 78,
                "velocity": 127,
                "duration": 0.2386364,
                "tempo": 120.0
            },
            {
                "start_time": 58.7159091,
                "end_time": 58.8340909,
                "pitch": 69,
                "velocity": 101,
                "duration": 0.1181818,
                "tempo": 120.0
            },
            {
                "start_time": 58.8340909,
                "end_time": 58.9545455,
                "pitch": 69,
                "velocity": 101,
                "duration": 0.1204545,
                "tempo": 120.0
            },
            {
                "start_time": 58.9545455,
                "end_time": 59.0545455,
                "pitch": 73,
                "velocity": 101,
                "duration": 0.1,
                "tempo": 120.0
            },
            {
                "start_time": 59.0545455,
                "end_time": 59.1727273,
                "pitch": 73,
                "velocity": 101,
                "duration": 0.1181818,
                "tempo": 120.0
            },
            {
                "start_time": 59.1727273,
                "end_time": 59.8568182,
                "pitch": 78,
                "velocity": 101,
                "duration": 0.6840909,
                "tempo": 120.0
            },
            {
                "start_time": 59.8568182,
                "end_time": 59.9590909,
                "pitch": 71,
                "velocity": 127,
                "duration": 0.1022727,
                "tempo": 120.0
            },
            {
                "start_time": 59.9590909,
                "end_time": 60.0795455,
                "pitch": 73,
                "velocity": 127,
                "duration": 0.1204545,
                "tempo": 120.0
            },
            {
                "start_time": 60.0795455,
                "end_time": 60.1977273,
                "pitch": 73,
                "velocity": 127,
                "duration": 0.1181818,
                "tempo": 120.0
            },
            {
                "start_time": 60.1977273,
                "end_time": 60.3181818,
                "pitch": 76,
                "velocity": 127,
                "duration": 0.1204545,
                "tempo": 120.0
            },
            {
                "start_time": 60.3181818,
                "end_time": 60.5409091,
                "pitch": 81,
                "velocity": 127,
                "duration": 0.2227273,
                "tempo": 120.0
            },
            {
                "start_time": 60.5409091,
                "end_time": 60.6613636,
                "pitch": 69,
                "velocity": 101,
                "duration": 0.1204545,
                "tempo": 120.0
            },
            {
                "start_time": 60.6613636,
                "end_time": 60.7795455,
                "pitch": 73,
                "velocity": 101,
                "duration": 0.1181818,
                "tempo": 120.0
            },
            {
                "start_time": 60.7795455,
                "end_time": 60.8931818,
                "pitch": 73,
                "velocity": 101,
                "duration": 0.1136364,
                "tempo": 120.0
            },
            {
                "start_time": 60.8931818,
                "end_time": 60.9886364,
                "pitch": 76,
                "velocity": 101,
                "duration": 0.0954545,
                "tempo": 120.0
            },
            {
                "start_time": 60.9886364,
                "end_time": 61.2113636,
                "pitch": 81,
                "velocity": 101,
                "duration": 0.2227273,
                "tempo": 120.0
            },
            {
                "start_time": 61.2113636,
                "end_time": 61.3318182,
                "pitch": 69,
                "velocity": 80,
                "duration": 0.1204545,
                "tempo": 120.0
            },
            {
                "start_time": 61.3318182,
                "end_time": 61.4386364,
                "pitch": 73,
                "velocity": 80,
                "duration": 0.1068182,
                "tempo": 120.0
            },
            {
                "start_time": 61.4386364,
                "end_time": 61.5590909,
                "pitch": 73,
                "velocity": 80,
                "duration": 0.1204545,
                "tempo": 120.0
            },
            {
                "start_time": 61.5590909,
                "end_time": 61.6818182,
                "pitch": 76,
                "velocity": 80,
                "duration": 0.1227273,
                "tempo": 120.0
            },
            {
                "start_time": 61.6818182,
                "end_time": 65.275,
                "pitch": 81,
                "velocity": 80,
                "duration": 3.5931818,
                "tempo": 120.0
            },
            {
                "start_time": 65.275,
                "end_time": 65.325,
                "pitch": 59,
                "velocity": 127,
                "duration": 0.05,
                "tempo": 120.0
            }
        ],
        "Acoustic Bass": [
            {
                "start_time": 0.0159091,
                "end_time": 0.2159091,
                "pitch": 35,
                "velocity": 127,
                "duration": 0.2,
                "tempo": 120.0
            },
            {
                "start_time": 0.2159091,
                "end_time": 0.45,
                "pitch": 35,
                "velocity": 127,
                "duration": 0.2340909,
                "tempo": 120.0
            },
            {
                "start_time": 0.45,
                "end_time": 0.6727273,
                "pitch": 35,
                "velocity": 127,
                "duration": 0.2227273,
                "tempo": 120.0
            },
            {
                "start_time": 0.6727273,
                "end_time": 0.8818182,
                "pitch": 35,
                "velocity": 127,
                "duration": 0.2090909,
                "tempo": 120.0
            },
            {
                "start_time": 0.8818182,
                "end_time": 1.1136364,
                "pitch": 35,
                "velocity": 127,
                "duration": 0.2318182,
                "tempo": 120.0
            },
            {
                "start_time": 1.1136364,
                "end_time": 1.3318182,
                "pitch": 35,
                "velocity": 127,
                "duration": 0.2181818,
                "tempo": 120.0
            },
            {
                "start_time": 1.3318182,
                "end_time": 1.575,
                "pitch": 35,
                "velocity": 127,
                "duration": 0.2431818,
                "tempo": 120.0
            },
            {
                "start_time": 1.575,
                "end_time": 1.8045455,
                "pitch": 35,
                "velocity": 127,
                "duration": 0.2295455,
                "tempo": 120.0
            },
            {
                "start_time": 1.8045455,
                "end_time": 2.0272727,
                "pitch": 35,
                "velocity": 127,
                "duration": 0.2227273,
                "tempo": 120.0
            },
            {
                "start_time": 2.0272727,
                "end_time": 2.2363636,
                "pitch": 35,
                "velocity": 127,
                "duration": 0.2090909,
                "tempo": 120.0
            },
            {
                "start_time": 2.2363636,
                "end_time": 2.4704545,
                "pitch": 35,
                "velocity": 127,
                "duration": 0.2340909,
                "tempo": 120.0
            },
            {
                "start_time": 2.4704545,
                "end_time": 2.6863636,
                "pitch": 35,
                "velocity": 127,
                "duration": 0.2159091,
                "tempo": 120.0
            },
            {
                "start_time": 2.6863636,
                "end_time": 2.9204545,
                "pitch": 35,
                "velocity": 127,
                "duration": 0.2340909,
                "tempo": 120.0
            },
            {
                "start_time": 2.9204545,
                "end_time": 3.1386364,
                "pitch": 35,
                "velocity": 127,
                "duration": 0.2181818,
                "tempo": 120.0
            },
            {
                "start_time": 3.1386364,
                "end_time": 3.5886364,
                "pitch": 38,
                "velocity": 127,
                "duration": 0.45,
                "tempo": 120.0
            },
            {
                "start_time": 3.5886364,
                "end_time": 3.8272727,
                "pitch": 35,
                "velocity": 127,
                "duration": 0.2386364,
                "tempo": 120.0
            },
            {
                "start_time": 3.8272727,
                "end_time": 4.0681818,
                "pitch": 35,
                "velocity": 127,
                "duration": 0.2409091,
                "tempo": 120.0
            },
            {
                "start_time": 4.0681818,
                "end_time": 4.2909091,
                "pitch": 35,
                "velocity": 127,
                "duration": 0.2227273,
                "tempo": 120.0
            },
            {
                "start_time": 4.2909091,
                "end_time": 4.5295455,
                "pitch": 35,
                "velocity": 127,
                "duration": 0.2386364,
                "tempo": 120.0
            },
            {
                "start_time": 4.5295455,
                "end_time": 4.7477273,
                "pitch": 35,
                "velocity": 127,
                "duration": 0.2181818,
                "tempo": 120.0
            },
            {
                "start_time": 4.7477273,
                "end_time": 4.9795455,
                "pitch": 35,
                "velocity": 127,
                "duration": 0.2318182,
                "tempo": 120.0
            },
            {
                "start_time": 4.9795455,
                "end_time": 5.2022727,
                "pitch": 35,
                "velocity": 127,
                "duration": 0.2227273,
                "tempo": 120.0
            },
            {
                "start_time": 5.2022727,
                "end_time": 5.4409091,
                "pitch": 35,
                "velocity": 127,
                "duration": 0.2386364,
                "tempo": 120.0
            },
            {
                "start_time": 5.4409091,
                "end_time": 5.6545455,
                "pitch": 35,
                "velocity": 127,
                "duration": 0.2136364,
                "tempo": 120.0
            },
            {
                "start_time": 5.6545455,
                "end_time": 5.8840909,
                "pitch": 35,
                "velocity": 127,
                "duration": 0.2295455,
                "tempo": 120.0
            },
            {
                "start_time": 5.8840909,
                "end_time": 6.1,
                "pitch": 35,
                "velocity": 127,
                "duration": 0.2159091,
                "tempo": 120.0
            },
            {
                "start_time": 6.1,
                "end_time": 6.3340909,
                "pitch": 35,
                "velocity": 127,
                "duration": 0.2340909,
                "tempo": 120.0
            },
            {
                "start_time": 6.3340909,
                "end_time": 6.5522727,
                "pitch": 35,
                "velocity": 127,
                "duration": 0.2181818,
                "tempo": 120.0
            },
            {
                "start_time": 6.5522727,
                "end_time": 6.7863636,
                "pitch": 35,
                "velocity": 127,
                "duration": 0.2340909,
                "tempo": 120.0
            },
            {
                "start_time": 6.7863636,
                "end_time": 7.2363636,
                "pitch": 38,
                "velocity": 127,
                "duration": 0.45,
                "tempo": 120.0
            },
            {
                "start_time": 7.2363636,
                "end_time": 7.475,
                "pitch": 35,
                "velocity": 127,
                "duration": 0.2386364,
                "tempo": 120.0
            },
            {
                "start_time": 7.475,
                "end_time": 7.6977273,
                "pitch": 35,
                "velocity": 127,
                "duration": 0.2227273,
                "tempo": 120.0
            },
            {
                "start_time": 7.6977273,
                "end_time": 7.9272727,
                "pitch": 35,
                "velocity": 127,
                "duration": 0.2295455,
                "tempo": 120.0
            },
            {
                "start_time": 7.9272727,
                "end_time": 8.1409091,
                "pitch": 35,
                "velocity": 127,
                "duration": 0.2136364,
                "tempo": 120.0
            },
            {
                "start_time": 8.1409091,
                "end_time": 8.3727273,
                "pitch": 35,
                "velocity": 127,
                "duration": 0.2318182,
                "tempo": 120.0
            },
            {
                "start_time": 8.3727273,
                "end_time": 8.5909091,
                "pitch": 35,
                "velocity": 127,
                "duration": 0.2181818,
                "tempo": 120.0
            },
            {
                "start_time": 8.5909091,
                "end_time": 8.8295455,
                "pitch": 35,
                "velocity": 127,
                "duration": 0.2386364,
                "tempo": 120.0
            },
            {
                "start_time": 8.8295455,
                "end_time": 9.0522727,
                "pitch": 35,
                "velocity": 127,
                "duration": 0.2227273,
                "tempo": 120.0
            },
            {
                "start_time": 9.0522727,
                "end_time": 9.2818182,
                "pitch": 35,
                "velocity": 127,
                "duration": 0.2295455,
                "tempo": 120.0
            },
            {
                "start_time": 9.2818182,
                "end_time": 9.4931818,
                "pitch": 35,
                "velocity": 127,
                "duration": 0.2113636,
                "tempo": 120.0
            },
            {
                "start_time": 9.4931818,
                "end_time": 9.7272727,
                "pitch": 35,
                "velocity": 127,
                "duration": 0.2340909,
                "tempo": 120.0
            },
            {
                "start_time": 9.7272727,
                "end_time": 9.9454545,
                "pitch": 35,
                "velocity": 127,
                "duration": 0.2181818,
                "tempo": 120.0
            },
            {
                "start_time": 9.9454545,
                "end_time": 10.1795455,
                "pitch": 35,
                "velocity": 127,
                "duration": 0.2340909,
                "tempo": 120.0
            },
            {
                "start_time": 10.1795455,
                "end_time": 10.3954545,
                "pitch": 35,
                "velocity": 127,
                "duration": 0.2159091,
                "tempo": 120.0
            },
            {
                "start_time": 10.3954545,
                "end_time": 10.8636364,
                "pitch": 38,
                "velocity": 127,
                "duration": 0.4681818,
                "tempo": 120.0
            },
            {
                "start_time": 10.8636364,
                "end_time": 11.0909091,
                "pitch": 35,
                "velocity": 127,
                "duration": 0.2272727,
                "tempo": 120.0
            },
            {
                "start_time": 11.0909091,
                "end_time": 11.3363636,
                "pitch": 35,
                "velocity": 127,
                "duration": 0.2454545,
                "tempo": 120.0
            },
            {
                "start_time": 11.3363636,
                "end_time": 11.5477273,
                "pitch": 35,
                "velocity": 127,
                "duration": 0.2113636,
                "tempo": 120.0
            },
            {
                "start_time": 11.5477273,
                "end_time": 11.7772727,
                "pitch": 35,
                "velocity": 127,
                "duration": 0.2295455,
                "tempo": 120.0
            },
            {
                "start_time": 11.7772727,
                "end_time": 12.0,
                "pitch": 35,
                "velocity": 127,
                "duration": 0.2227273,
                "tempo": 120.0
            },
            {
                "start_time": 12.0,
                "end_time": 12.2386364,
                "pitch": 35,
                "velocity": 127,
                "duration": 0.2386364,
                "tempo": 120.0
            },
            {
                "start_time": 12.2386364,
                "end_time": 12.7,
                "pitch": 38,
                "velocity": 127,
                "duration": 0.4613636,
                "tempo": 120.0
            },
            {
                "start_time": 12.7,
                "end_time": 12.9136364,
                "pitch": 35,
                "velocity": 127,
                "duration": 0.2136364,
                "tempo": 120.0
            },
            {
                "start_time": 12.9136364,
                "end_time": 13.1409091,
                "pitch": 35,
                "velocity": 127,
                "duration": 0.2272727,
                "tempo": 120.0
            },
            {
                "start_time": 13.1409091,
                "end_time": 13.5931818,
                "pitch": 38,
                "velocity": 127,
                "duration": 0.4522727,
                "tempo": 120.0
            },
            {
                "start_time": 13.5931818,
                "end_time": 13.8113636,
                "pitch": 38,
                "velocity": 127,
                "duration": 0.2181818,
                "tempo": 120.0
            },
            {
                "start_time": 13.8113636,
                "end_time": 14.0454545,
                "pitch": 32,
                "velocity": 127,
                "duration": 0.2340909,
                "tempo": 120.0
            },
            {
                "start_time": 14.0454545,
                "end_time": 14.2772727,
                "pitch": 32,
                "velocity": 127,
                "duration": 0.2318182,
                "tempo": 120.0
            },
            {
                "start_time": 14.2772727,
                "end_time": 14.4954545,
                "pitch": 33,
                "velocity": 127,
                "duration": 0.2181818,
                "tempo": 120.0
            },
            {
                "start_time": 14.4954545,
                "end_time": 14.7295455,
                "pitch": 34,
                "velocity": 127,
                "duration": 0.2340909,
                "tempo": 120.0
            },
            {
                "start_time": 14.7295455,
                "end_time": 14.9477273,
                "pitch": 35,
                "velocity": 127,
                "duration": 0.2181818,
                "tempo": 120.0
            },
            {
                "start_time": 14.9477273,
                "end_time": 15.175,
                "pitch": 35,
                "velocity": 127,
                "duration": 0.2272727,
                "tempo": 120.0
            },
            {
                "start_time": 15.175,
                "end_time": 15.3886364,
                "pitch": 35,
                "velocity": 127,
                "duration": 0.2136364,
                "tempo": 120.0
            },
            {
                "start_time": 15.3886364,
                "end_time": 15.6272727,
                "pitch": 35,
                "velocity": 127,
                "duration": 0.2386364,
                "tempo": 120.0
            },
            {
                "start_time": 15.6272727,
                "end_time": 15.85,
                "pitch": 35,
                "velocity": 127,
                "duration": 0.2227273,
                "tempo": 120.0
            },
            {
                "start_time": 15.85,
                "end_time": 16.0772727,
                "pitch": 35,
                "velocity": 127,
                "duration": 0.2272727,
                "tempo": 120.0
            },
            {
                "start_time": 16.0772727,
                "end_time": 16.2909091,
                "pitch": 35,
                "velocity": 127,
                "duration": 0.2136364,
                "tempo": 120.0
            },
            {
                "start_time": 16.2909091,
                "end_time": 16.525,
                "pitch": 35,
                "velocity": 127,
                "duration": 0.2340909,
                "tempo": 120.0
            },
            {
                "start_time": 16.525,
                "end_time": 16.7409091,
                "pitch": 35,
                "velocity": 127,
                "duration": 0.2159091,
                "tempo": 120.0
            },
            {
                "start_time": 16.7409091,
                "end_time": 16.975,
                "pitch": 35,
                "velocity": 127,
                "duration": 0.2340909,
                "tempo": 120.0
            },
            {
                "start_time": 16.975,
                "end_time": 17.1931818,
                "pitch": 35,
                "velocity": 127,
                "duration": 0.2181818,
                "tempo": 120.0
            },
            {
                "start_time": 17.1931818,
                "end_time": 17.4318182,
                "pitch": 35,
                "velocity": 127,
                "duration": 0.2386364,
                "tempo": 120.0
            },
            {
                "start_time": 17.4318182,
                "end_time": 17.6727273,
                "pitch": 32,
                "velocity": 127,
                "duration": 0.2409091,
                "tempo": 120.0
            },
            {
                "start_time": 17.6727273,
                "end_time": 17.8931818,
                "pitch": 32,
                "velocity": 127,
                "duration": 0.2204545,
                "tempo": 120.0
            },
            {
                "start_time": 17.8931818,
                "end_time": 18.1340909,
                "pitch": 33,
                "velocity": 127,
                "duration": 0.2409091,
                "tempo": 120.0
            },
            {
                "start_time": 18.1340909,
                "end_time": 18.35,
                "pitch": 34,
                "velocity": 127,
                "duration": 0.2159091,
                "tempo": 120.0
            },
            {
                "start_time": 18.35,
                "end_time": 18.5840909,
                "pitch": 35,
                "velocity": 127,
                "duration": 0.2340909,
                "tempo": 120.0
            },
            {
                "start_time": 18.5840909,
                "end_time": 18.8022727,
                "pitch": 35,
                "velocity": 127,
                "duration": 0.2181818,
                "tempo": 120.0
            },
            {
                "start_time": 18.8022727,
                "end_time": 19.0363636,
                "pitch": 35,
                "velocity": 127,
                "duration": 0.2340909,
                "tempo": 120.0
            },
            {
                "start_time": 19.0363636,
                "end_time": 19.2522727,
                "pitch": 35,
                "velocity": 127,
                "duration": 0.2159091,
                "tempo": 120.0
            },
            {
                "start_time": 19.2522727,
                "end_time": 19.4863636,
                "pitch": 35,
                "velocity": 127,
                "duration": 0.2340909,
                "tempo": 120.0
            },
            {
                "start_time": 19.4863636,
                "end_time": 19.7045455,
                "pitch": 35,
                "velocity": 127,
                "duration": 0.2181818,
                "tempo": 120.0
            },
            {
                "start_time": 19.7045455,
                "end_time": 19.9386364,
                "pitch": 35,
                "velocity": 127,
                "duration": 0.2340909,
                "tempo": 120.0
            },
            {
                "start_time": 19.9386364,
                "end_time": 20.1545455,
                "pitch": 35,
                "velocity": 127,
                "duration": 0.2159091,
                "tempo": 120.0
            },
            {
                "start_time": 20.1545455,
                "end_time": 20.3886364,
                "pitch": 35,
                "velocity": 127,
                "duration": 0.2340909,
                "tempo": 120.0
            },
            {
                "start_time": 20.3886364,
                "end_time": 20.6068182,
                "pitch": 35,
                "velocity": 127,
                "duration": 0.2181818,
                "tempo": 120.0
            },
            {
                "start_time": 20.6068182,
                "end_time": 20.8409091,
                "pitch": 35,
                "velocity": 127,
                "duration": 0.2340909,
                "tempo": 120.0
            },
            {
                "start_time": 20.8409091,
                "end_time": 21.0795455,
                "pitch": 35,
                "velocity": 127,
                "duration": 0.2386364,
                "tempo": 120.0
            },
            {
                "start_time": 21.0795455,
                "end_time": 21.3022727,
                "pitch": 35,
                "velocity": 127,
                "duration": 0.2227273,
                "tempo": 120.0
            },
            {
                "start_time": 21.3022727,
                "end_time": 21.5318182,
                "pitch": 35,
                "velocity": 127,
                "duration": 0.2295455,
                "tempo": 120.0
            },
            {
                "start_time": 21.5318182,
                "end_time": 21.7590909,
                "pitch": 35,
                "velocity": 127,
                "duration": 0.2272727,
                "tempo": 120.0
            },
            {
                "start_time": 21.7590909,
                "end_time": 21.9818182,
                "pitch": 35,
                "velocity": 127,
                "duration": 0.2227273,
                "tempo": 120.0
            },
            {
                "start_time": 21.9818182,
                "end_time": 22.2045455,
                "pitch": 35,
                "velocity": 127,
                "duration": 0.2227273,
                "tempo": 120.0
            },
            {
                "start_time": 22.2045455,
                "end_time": 22.4340909,
                "pitch": 35,
                "velocity": 127,
                "duration": 0.2295455,
                "tempo": 120.0
            },
            {
                "start_time": 22.4340909,
                "end_time": 22.6454545,
                "pitch": 35,
                "velocity": 127,
                "duration": 0.2113636,
                "tempo": 120.0
            },
            {
                "start_time": 22.6454545,
                "end_time": 22.8886364,
                "pitch": 35,
                "velocity": 127,
                "duration": 0.2431818,
                "tempo": 120.0
            },
            {
                "start_time": 22.8886364,
                "end_time": 23.1181818,
                "pitch": 35,
                "velocity": 127,
                "duration": 0.2295455,
                "tempo": 120.0
            },
            {
                "start_time": 23.1181818,
                "end_time": 23.3477273,
                "pitch": 35,
                "velocity": 127,
                "duration": 0.2295455,
                "tempo": 120.0
            },
            {
                "start_time": 23.3477273,
                "end_time": 23.5590909,
                "pitch": 35,
                "velocity": 127,
                "duration": 0.2113636,
                "tempo": 120.0
            },
            {
                "start_time": 23.5590909,
                "end_time": 23.7931818,
                "pitch": 35,
                "velocity": 127,
                "duration": 0.2340909,
                "tempo": 120.0
            },
            {
                "start_time": 23.7931818,
                "end_time": 24.0090909,
                "pitch": 35,
                "velocity": 127,
                "duration": 0.2159091,
                "tempo": 120.0
            },
            {
                "start_time": 24.0090909,
                "end_time": 24.25,
                "pitch": 35,
                "velocity": 127,
                "duration": 0.2409091,
                "tempo": 120.0
            },
            {
                "start_time": 24.25,
                "end_time": 24.4886364,
                "pitch": 35,
                "velocity": 127,
                "duration": 0.2386364,
                "tempo": 120.0
            },
            {
                "start_time": 24.4886364,
                "end_time": 24.7113636,
                "pitch": 35,
                "velocity": 127,
                "duration": 0.2227273,
                "tempo": 120.0
            },
            {
                "start_time": 24.7113636,
                "end_time": 24.95,
                "pitch": 35,
                "velocity": 127,
                "duration": 0.2386364,
                "tempo": 120.0
            },
            {
                "start_time": 24.95,
                "end_time": 25.4022727,
                "pitch": 38,
                "velocity": 127,
                "duration": 0.4522727,
                "tempo": 120.0
            },
            {
                "start_time": 25.4022727,
                "end_time": 25.6136364,
                "pitch": 35,
                "velocity": 127,
                "duration": 0.2113636,
                "tempo": 120.0
            },
            {
                "start_time": 25.6136364,
                "end_time": 25.8431818,
                "pitch": 35,
                "velocity": 127,
                "duration": 0.2295455,
                "tempo": 120.0
            },
            {
                "start_time": 25.8431818,
                "end_time": 26.0590909,
                "pitch": 35,
                "velocity": 127,
                "duration": 0.2159091,
                "tempo": 120.0
            },
            {
                "start_time": 26.0590909,
                "end_time": 26.2931818,
                "pitch": 35,
                "velocity": 127,
                "duration": 0.2340909,
                "tempo": 120.0
            },
            {
                "start_time": 26.2931818,
                "end_time": 26.5113636,
                "pitch": 35,
                "velocity": 127,
                "duration": 0.2181818,
                "tempo": 120.0
            },
            {
                "start_time": 26.5113636,
                "end_time": 26.7454545,
                "pitch": 35,
                "velocity": 127,
                "duration": 0.2340909,
                "tempo": 120.0
            },
            {
                "start_time": 26.7454545,
                "end_time": 26.9636364,
                "pitch": 35,
                "velocity": 127,
                "duration": 0.2181818,
                "tempo": 120.0
            },
            {
                "start_time": 26.9636364,
                "end_time": 27.1977273,
                "pitch": 35,
                "velocity": 127,
                "duration": 0.2340909,
                "tempo": 120.0
            },
            {
                "start_time": 27.1977273,
                "end_time": 27.4136364,
                "pitch": 35,
                "velocity": 127,
                "duration": 0.2159091,
                "tempo": 120.0
            },
            {
                "start_time": 27.4136364,
                "end_time": 27.6477273,
                "pitch": 35,
                "velocity": 127,
                "duration": 0.2340909,
                "tempo": 120.0
            },
            {
                "start_time": 27.6477273,
                "end_time": 27.8659091,
                "pitch": 35,
                "velocity": 127,
                "duration": 0.2181818,
                "tempo": 120.0
            },
            {
                "start_time": 27.8659091,
                "end_time": 28.1,
                "pitch": 35,
                "velocity": 127,
                "duration": 0.2340909,
                "tempo": 120.0
            },
            {
                "start_time": 28.1,
                "end_time": 28.3340909,
                "pitch": 35,
                "velocity": 127,
                "duration": 0.2340909,
                "tempo": 120.0
            },
            {
                "start_time": 28.3340909,
                "end_time": 28.55,
                "pitch": 35,
                "velocity": 127,
                "duration": 0.2159091,
                "tempo": 120.0
            },
            {
                "start_time": 28.55,
                "end_time": 29.0022727,
                "pitch": 38,
                "velocity": 127,
                "duration": 0.4522727,
                "tempo": 120.0
            },
            {
                "start_time": 29.0022727,
                "end_time": 29.2409091,
                "pitch": 35,
                "velocity": 127,
                "duration": 0.2386364,
                "tempo": 120.0
            },
            {
                "start_time": 29.2409091,
                "end_time": 29.4636364,
                "pitch": 35,
                "velocity": 127,
                "duration": 0.2227273,
                "tempo": 120.0
            },
            {
                "start_time": 29.4636364,
                "end_time": 29.6909091,
                "pitch": 35,
                "velocity": 127,
                "duration": 0.2272727,
                "tempo": 120.0
            },
            {
                "start_time": 29.6909091,
                "end_time": 29.9045455,
                "pitch": 35,
                "velocity": 127,
                "duration": 0.2136364,
                "tempo": 120.0
            },
            {
                "start_time": 29.9045455,
                "end_time": 30.1431818,
                "pitch": 35,
                "velocity": 127,
                "duration": 0.2386364,
                "tempo": 120.0
            },
            {
                "start_time": 30.1431818,
                "end_time": 30.3659091,
                "pitch": 35,
                "velocity": 127,
                "duration": 0.2227273,
                "tempo": 120.0
            },
            {
                "start_time": 30.3659091,
                "end_time": 30.6,
                "pitch": 35,
                "velocity": 127,
                "duration": 0.2340909,
                "tempo": 120.0
            },
            {
                "start_time": 30.6,
                "end_time": 30.8159091,
                "pitch": 35,
                "velocity": 127,
                "duration": 0.2159091,
                "tempo": 120.0
            },
            {
                "start_time": 30.8159091,
                "end_time": 31.0454545,
                "pitch": 35,
                "velocity": 127,
                "duration": 0.2295455,
                "tempo": 120.0
            },
            {
                "start_time": 31.0454545,
                "end_time": 31.2590909,
                "pitch": 35,
                "velocity": 127,
                "duration": 0.2136364,
                "tempo": 120.0
            },
            {
                "start_time": 31.2590909,
                "end_time": 31.5022727,
                "pitch": 35,
                "velocity": 127,
                "duration": 0.2431818,
                "tempo": 120.0
            },
            {
                "start_time": 31.5022727,
                "end_time": 31.7477273,
                "pitch": 35,
                "velocity": 127,
                "duration": 0.2454545,
                "tempo": 120.0
            },
            {
                "start_time": 31.7477273,
                "end_time": 31.9704545,
                "pitch": 35,
                "velocity": 127,
                "duration": 0.2227273,
                "tempo": 120.0
            },
            {
                "start_time": 31.9704545,
                "end_time": 32.2090909,
                "pitch": 35,
                "velocity": 127,
                "duration": 0.2386364,
                "tempo": 120.0
            },
            {
                "start_time": 32.2090909,
                "end_time": 32.6613636,
                "pitch": 38,
                "velocity": 127,
                "duration": 0.4522727,
                "tempo": 120.0
            },
            {
                "start_time": 32.6613636,
                "end_time": 32.8727273,
                "pitch": 35,
                "velocity": 127,
                "duration": 0.2113636,
                "tempo": 120.0
            },
            {
                "start_time": 32.8727273,
                "end_time": 33.1022727,
                "pitch": 35,
                "velocity": 127,
                "duration": 0.2295455,
                "tempo": 120.0
            },
            {
                "start_time": 33.1022727,
                "end_time": 33.3136364,
                "pitch": 35,
                "velocity": 127,
                "duration": 0.2113636,
                "tempo": 120.0
            },
            {
                "start_time": 33.3136364,
                "end_time": 33.5431818,
                "pitch": 35,
                "velocity": 127,
                "duration": 0.2295455,
                "tempo": 120.0
            },
            {
                "start_time": 33.5431818,
                "end_time": 33.7659091,
                "pitch": 35,
                "velocity": 127,
                "duration": 0.2227273,
                "tempo": 120.0
            },
            {
                "start_time": 33.7659091,
                "end_time": 34.0045455,
                "pitch": 35,
                "velocity": 127,
                "duration": 0.2386364,
                "tempo": 120.0
            },
            {
                "start_time": 34.0045455,
                "end_time": 34.2159091,
                "pitch": 35,
                "velocity": 127,
                "duration": 0.2113636,
                "tempo": 120.0
            },
            {
                "start_time": 34.2159091,
                "end_time": 34.4454545,
                "pitch": 35,
                "velocity": 127,
                "duration": 0.2295455,
                "tempo": 120.0
            },
            {
                "start_time": 34.4454545,
                "end_time": 34.6636364,
                "pitch": 35,
                "velocity": 127,
                "duration": 0.2181818,
                "tempo": 120.0
            },
            {
                "start_time": 34.6636364,
                "end_time": 34.8977273,
                "pitch": 35,
                "velocity": 127,
                "duration": 0.2340909,
                "tempo": 120.0
            },
            {
                "start_time": 34.8977273,
                "end_time": 35.1318182,
                "pitch": 35,
                "velocity": 127,
                "duration": 0.2340909,
                "tempo": 120.0
            },
            {
                "start_time": 35.1318182,
                "end_time": 35.3477273,
                "pitch": 35,
                "velocity": 127,
                "duration": 0.2159091,
                "tempo": 120.0
            },
            {
                "start_time": 35.3477273,
                "end_time": 35.5818182,
                "pitch": 35,
                "velocity": 127,
                "duration": 0.2340909,
                "tempo": 120.0
            },
            {
                "start_time": 35.5818182,
                "end_time": 35.8,
                "pitch": 38,
                "velocity": 127,
                "duration": 0.2181818,
                "tempo": 120.0
            },
            {
                "start_time": 35.8,
                "end_time": 36.0386364,
                "pitch": 38,
                "velocity": 127,
                "duration": 0.2386364,
                "tempo": 120.0
            },
            {
                "start_time": 36.0386364,
                "end_time": 36.2613636,
                "pitch": 39,
                "velocity": 127,
                "duration": 0.2227273,
                "tempo": 120.0
            },
            {
                "start_time": 36.2613636,
                "end_time": 36.4954545,
                "pitch": 40,
                "velocity": 127,
                "duration": 0.2340909,
                "tempo": 120.0
            },
            {
                "start_time": 36.4954545,
                "end_time": 36.7113636,
                "pitch": 42,
                "velocity": 127,
                "duration": 0.2159091,
                "tempo": 120.0
            },
            {
                "start_time": 36.7113636,
                "end_time": 36.9522727,
                "pitch": 42,
                "velocity": 127,
                "duration": 0.2409091,
                "tempo": 120.0
            },
            {
                "start_time": 36.9522727,
                "end_time": 37.1727273,
                "pitch": 42,
                "velocity": 127,
                "duration": 0.2204545,
                "tempo": 120.0
            },
            {
                "start_time": 37.1727273,
                "end_time": 37.4022727,
                "pitch": 42,
                "velocity": 127,
                "duration": 0.2295455,
                "tempo": 120.0
            },
            {
                "start_time": 37.4022727,
                "end_time": 37.6159091,
                "pitch": 42,
                "velocity": 127,
                "duration": 0.2136364,
                "tempo": 120.0
            },
            {
                "start_time": 37.6159091,
                "end_time": 37.85,
                "pitch": 42,
                "velocity": 127,
                "duration": 0.2340909,
                "tempo": 120.0
            },
            {
                "start_time": 37.85,
                "end_time": 38.0659091,
                "pitch": 42,
                "velocity": 127,
                "duration": 0.2159091,
                "tempo": 120.0
            },
            {
                "start_time": 38.0659091,
                "end_time": 38.3,
                "pitch": 42,
                "velocity": 127,
                "duration": 0.2340909,
                "tempo": 120.0
            },
            {
                "start_time": 38.3,
                "end_time": 38.5340909,
                "pitch": 40,
                "velocity": 127,
                "duration": 0.2340909,
                "tempo": 120.0
            },
            {
                "start_time": 38.5340909,
                "end_time": 38.7636364,
                "pitch": 40,
                "velocity": 127,
                "duration": 0.2295455,
                "tempo": 120.0
            },
            {
                "start_time": 38.7636364,
                "end_time": 39.0136364,
                "pitch": 40,
                "velocity": 127,
                "duration": 0.25,
                "tempo": 120.0
            },
            {
                "start_time": 39.0136364,
                "end_time": 39.2204545,
                "pitch": 40,
                "velocity": 127,
                "duration": 0.2068182,
                "tempo": 120.0
            },
            {
                "start_time": 39.2204545,
                "end_time": 39.4454545,
                "pitch": 32,
                "velocity": 127,
                "duration": 0.225,
                "tempo": 120.0
            },
            {
                "start_time": 39.4454545,
                "end_time": 39.6704545,
                "pitch": 32,
                "velocity": 127,
                "duration": 0.225,
                "tempo": 120.0
            },
            {
                "start_time": 39.6704545,
                "end_time": 39.9159091,
                "pitch": 33,
                "velocity": 127,
                "duration": 0.2454545,
                "tempo": 120.0
            },
            {
                "start_time": 39.9159091,
                "end_time": 40.1340909,
                "pitch": 34,
                "velocity": 127,
                "duration": 0.2181818,
                "tempo": 120.0
            },
            {
                "start_time": 40.1340909,
                "end_time": 40.3681818,
                "pitch": 35,
                "velocity": 127,
                "duration": 0.2340909,
                "tempo": 120.0
            },
            {
                "start_time": 40.3681818,
                "end_time": 40.575,
                "pitch": 35,
                "velocity": 127,
                "duration": 0.2068182,
                "tempo": 120.0
            },
            {
                "start_time": 40.575,
                "end_time": 40.8,
                "pitch": 35,
                "velocity": 127,
                "duration": 0.225,
                "tempo": 120.0
            },
            {
                "start_time": 40.8,
                "end_time": 41.0159091,
                "pitch": 35,
                "velocity": 127,
                "duration": 0.2159091,
                "tempo": 120.0
            },
            {
                "start_time": 41.0159091,
                "end_time": 41.25,
                "pitch": 35,
                "velocity": 127,
                "duration": 0.2340909,
                "tempo": 120.0
            },
            {
                "start_time": 41.25,
                "end_time": 41.7022727,
                "pitch": 38,
                "velocity": 127,
                "duration": 0.4522727,
                "tempo": 120.0
            },
            {
                "start_time": 41.7022727,
                "end_time": 41.9363636,
                "pitch": 35,
                "velocity": 127,
                "duration": 0.2340909,
                "tempo": 120.0
            },
            {
                "start_time": 41.9363636,
                "end_time": 42.1522727,
                "pitch": 35,
                "velocity": 127,
                "duration": 0.2159091,
                "tempo": 120.0
            },
            {
                "start_time": 42.1522727,
                "end_time": 42.3863636,
                "pitch": 35,
                "velocity": 127,
                "duration": 0.2340909,
                "tempo": 120.0
            },
            {
                "start_time": 42.3863636,
                "end_time": 42.6045455,
                "pitch": 35,
                "velocity": 127,
                "duration": 0.2181818,
                "tempo": 120.0
            },
            {
                "start_time": 42.6045455,
                "end_time": 42.8386364,
                "pitch": 35,
                "velocity": 127,
                "duration": 0.2340909,
                "tempo": 120.0
            },
            {
                "start_time": 42.8386364,
                "end_time": 43.0568182,
                "pitch": 35,
                "velocity": 127,
                "duration": 0.2181818,
                "tempo": 120.0
            },
            {
                "start_time": 43.0568182,
                "end_time": 43.525,
                "pitch": 38,
                "velocity": 127,
                "duration": 0.4681818,
                "tempo": 120.0
            },
            {
                "start_time": 43.525,
                "end_time": 43.7454545,
                "pitch": 35,
                "velocity": 127,
                "duration": 0.2204545,
                "tempo": 120.0
            },
            {
                "start_time": 43.7454545,
                "end_time": 43.9681818,
                "pitch": 35,
                "velocity": 127,
                "duration": 0.2227273,
                "tempo": 120.0
            },
            {
                "start_time": 43.9681818,
                "end_time": 44.1977273,
                "pitch": 35,
                "velocity": 127,
                "duration": 0.2295455,
                "tempo": 120.0
            },
            {
                "start_time": 44.1977273,
                "end_time": 44.4090909,
                "pitch": 35,
                "velocity": 127,
                "duration": 0.2113636,
                "tempo": 120.0
            },
            {
                "start_time": 44.4090909,
                "end_time": 44.6545455,
                "pitch": 35,
                "velocity": 127,
                "duration": 0.2454545,
                "tempo": 120.0
            },
            {
                "start_time": 44.6545455,
                "end_time": 44.8818182,
                "pitch": 35,
                "velocity": 127,
                "duration": 0.2272727,
                "tempo": 120.0
            },
            {
                "start_time": 44.8818182,
                "end_time": 45.1159091,
                "pitch": 35,
                "velocity": 127,
                "duration": 0.2340909,
                "tempo": 120.0
            },
            {
                "start_time": 45.1159091,
                "end_time": 45.35,
                "pitch": 35,
                "velocity": 127,
                "duration": 0.2340909,
                "tempo": 120.0
            },
            {
                "start_time": 45.35,
                "end_time": 45.5681818,
                "pitch": 35,
                "velocity": 127,
                "duration": 0.2181818,
                "tempo": 120.0
            },
            {
                "start_time": 45.5681818,
                "end_time": 45.8,
                "pitch": 35,
                "velocity": 127,
                "duration": 0.2318182,
                "tempo": 120.0
            },
            {
                "start_time": 45.8,
                "end_time": 46.0227273,
                "pitch": 35,
                "velocity": 127,
                "duration": 0.2227273,
                "tempo": 120.0
            },
            {
                "start_time": 46.0227273,
                "end_time": 46.2613636,
                "pitch": 35,
                "velocity": 127,
                "duration": 0.2386364,
                "tempo": 120.0
            },
            {
                "start_time": 46.2613636,
                "end_time": 46.4795455,
                "pitch": 35,
                "velocity": 127,
                "duration": 0.2181818,
                "tempo": 120.0
            },
            {
                "start_time": 46.4795455,
                "end_time": 46.7136364,
                "pitch": 35,
                "velocity": 127,
                "duration": 0.2340909,
                "tempo": 120.0
            },
            {
                "start_time": 46.7136364,
                "end_time": 47.1659091,
                "pitch": 38,
                "velocity": 127,
                "duration": 0.4522727,
                "tempo": 120.0
            },
            {
                "start_time": 47.1659091,
                "end_time": 47.3772727,
                "pitch": 35,
                "velocity": 127,
                "duration": 0.2113636,
                "tempo": 120.0
            },
            {
                "start_time": 47.3772727,
                "end_time": 47.6068182,
                "pitch": 35,
                "velocity": 127,
                "duration": 0.2295455,
                "tempo": 120.0
            },
            {
                "start_time": 47.6068182,
                "end_time": 47.8227273,
                "pitch": 35,
                "velocity": 127,
                "duration": 0.2159091,
                "tempo": 120.0
            },
            {
                "start_time": 47.8227273,
                "end_time": 48.0568182,
                "pitch": 35,
                "velocity": 127,
                "duration": 0.2340909,
                "tempo": 120.0
            },
            {
                "start_time": 48.0568182,
                "end_time": 48.275,
                "pitch": 35,
                "velocity": 127,
                "duration": 0.2181818,
                "tempo": 120.0
            },
            {
                "start_time": 48.275,
                "end_time": 48.5090909,
                "pitch": 35,
                "velocity": 127,
                "duration": 0.2340909,
                "tempo": 120.0
            },
            {
                "start_time": 48.5090909,
                "end_time": 48.7431818,
                "pitch": 35,
                "velocity": 127,
                "duration": 0.2340909,
                "tempo": 120.0
            },
            {
                "start_time": 48.7431818,
                "end_time": 48.9613636,
                "pitch": 35,
                "velocity": 127,
                "duration": 0.2181818,
                "tempo": 120.0
            },
            {
                "start_time": 48.9613636,
                "end_time": 49.1931818,
                "pitch": 35,
                "velocity": 127,
                "duration": 0.2318182,
                "tempo": 120.0
            },
            {
                "start_time": 49.1931818,
                "end_time": 49.4113636,
                "pitch": 35,
                "velocity": 127,
                "duration": 0.2181818,
                "tempo": 120.0
            },
            {
                "start_time": 49.4113636,
                "end_time": 49.6454545,
                "pitch": 35,
                "velocity": 127,
                "duration": 0.2340909,
                "tempo": 120.0
            },
            {
                "start_time": 49.6454545,
                "end_time": 49.8636364,
                "pitch": 35,
                "velocity": 127,
                "duration": 0.2181818,
                "tempo": 120.0
            },
            {
                "start_time": 49.8636364,
                "end_time": 50.0977273,
                "pitch": 35,
                "velocity": 127,
                "duration": 0.2340909,
                "tempo": 120.0
            },
            {
                "start_time": 50.0977273,
                "end_time": 50.3136364,
                "pitch": 35,
                "velocity": 127,
                "duration": 0.2159091,
                "tempo": 120.0
            },
            {
                "start_time": 50.3136364,
                "end_time": 50.7818182,
                "pitch": 38,
                "velocity": 127,
                "duration": 0.4681818,
                "tempo": 120.0
            },
            {
                "start_time": 50.7818182,
                "end_time": 51.0045455,
                "pitch": 35,
                "velocity": 127,
                "duration": 0.2227273,
                "tempo": 120.0
            },
            {
                "start_time": 51.0045455,
                "end_time": 51.2272727,
                "pitch": 35,
                "velocity": 127,
                "duration": 0.2227273,
                "tempo": 120.0
            },
            {
                "start_time": 51.2272727,
                "end_time": 51.4545455,
                "pitch": 35,
                "velocity": 127,
                "duration": 0.2272727,
                "tempo": 120.0
            },
            {
                "start_time": 51.4545455,
                "end_time": 51.6681818,
                "pitch": 35,
                "velocity": 127,
                "duration": 0.2136364,
                "tempo": 120.0
            },
            {
                "start_time": 51.6681818,
                "end_time": 51.9113636,
                "pitch": 35,
                "velocity": 127,
                "duration": 0.2431818,
                "tempo": 120.0
            },
            {
                "start_time": 51.9113636,
                "end_time": 52.1568182,
                "pitch": 35,
                "velocity": 127,
                "duration": 0.2454545,
                "tempo": 120.0
            },
            {
                "start_time": 52.1568182,
                "end_time": 52.3795455,
                "pitch": 35,
                "velocity": 127,
                "duration": 0.2227273,
                "tempo": 120.0
            },
            {
                "start_time": 52.3795455,
                "end_time": 52.6181818,
                "pitch": 35,
                "velocity": 127,
                "duration": 0.2386364,
                "tempo": 120.0
            },
            {
                "start_time": 52.6181818,
                "end_time": 52.8272727,
                "pitch": 35,
                "velocity": 127,
                "duration": 0.2090909,
                "tempo": 120.0
            },
            {
                "start_time": 52.8272727,
                "end_time": 53.05,
                "pitch": 35,
                "velocity": 127,
                "duration": 0.2227273,
                "tempo": 120.0
            },
            {
                "start_time": 53.05,
                "end_time": 53.275,
                "pitch": 35,
                "velocity": 127,
                "duration": 0.225,
                "tempo": 120.0
            },
            {
                "start_time": 53.275,
                "end_time": 53.5204545,
                "pitch": 35,
                "velocity": 127,
                "duration": 0.2454545,
                "tempo": 120.0
            },
            {
                "start_time": 53.5204545,
                "end_time": 53.7386364,
                "pitch": 35,
                "velocity": 127,
                "duration": 0.2181818,
                "tempo": 120.0
            },
            {
                "start_time": 53.7386364,
                "end_time": 53.9727273,
                "pitch": 35,
                "velocity": 127,
                "duration": 0.2340909,
                "tempo": 120.0
            },
            {
                "start_time": 53.9727273,
                "end_time": 54.425,
                "pitch": 38,
                "velocity": 127,
                "duration": 0.4522727,
                "tempo": 120.0
            },
            {
                "start_time": 54.425,
                "end_time": 54.6363636,
                "pitch": 35,
                "velocity": 127,
                "duration": 0.2113636,
                "tempo": 120.0
            },
            {
                "start_time": 54.6363636,
                "end_time": 54.8659091,
                "pitch": 35,
                "velocity": 127,
                "duration": 0.2295455,
                "tempo": 120.0
            },
            {
                "start_time": 54.8659091,
                "end_time": 55.0772727,
                "pitch": 35,
                "velocity": 127,
                "duration": 0.2113636,
                "tempo": 120.0
            },
            {
                "start_time": 55.0772727,
                "end_time": 55.3068182,
                "pitch": 35,
                "velocity": 127,
                "duration": 0.2295455,
                "tempo": 120.0
            },
            {
                "start_time": 55.3068182,
                "end_time": 55.5454545,
                "pitch": 35,
                "velocity": 127,
                "duration": 0.2386364,
                "tempo": 120.0
            },
            {
                "start_time": 55.5454545,
                "end_time": 55.7681818,
                "pitch": 35,
                "velocity": 127,
                "duration": 0.2227273,
                "tempo": 120.0
            },
            {
                "start_time": 55.7681818,
                "end_time": 55.9977273,
                "pitch": 35,
                "velocity": 127,
                "duration": 0.2295455,
                "tempo": 120.0
            },
            {
                "start_time": 55.9977273,
                "end_time": 56.2090909,
                "pitch": 35,
                "velocity": 127,
                "duration": 0.2113636,
                "tempo": 120.0
            },
            {
                "start_time": 56.2090909,
                "end_time": 56.4431818,
                "pitch": 35,
                "velocity": 127,
                "duration": 0.2340909,
                "tempo": 120.0
            },
            {
                "start_time": 56.4431818,
                "end_time": 56.6613636,
                "pitch": 35,
                "velocity": 127,
                "duration": 0.2181818,
                "tempo": 120.0
            },
            {
                "start_time": 56.6613636,
                "end_time": 56.8954545,
                "pitch": 35,
                "velocity": 127,
                "duration": 0.2340909,
                "tempo": 120.0
            },
            {
                "start_time": 56.8954545,
                "end_time": 57.1113636,
                "pitch": 35,
                "velocity": 127,
                "duration": 0.2159091,
                "tempo": 120.0
            },
            {
                "start_time": 57.1113636,
                "end_time": 57.3454545,
                "pitch": 35,
                "velocity": 127,
                "duration": 0.2340909,
                "tempo": 120.0
            },
            {
                "start_time": 57.3454545,
                "end_time": 57.5636364,
                "pitch": 38,
                "velocity": 127,
                "duration": 0.2181818,
                "tempo": 120.0
            },
            {
                "start_time": 57.5636364,
                "end_time": 57.8022727,
                "pitch": 38,
                "velocity": 127,
                "duration": 0.2386364,
                "tempo": 120.0
            },
            {
                "start_time": 57.8022727,
                "end_time": 58.025,
                "pitch": 39,
                "velocity": 127,
                "duration": 0.2227273,
                "tempo": 120.0
            },
            {
                "start_time": 58.025,
                "end_time": 58.2590909,
                "pitch": 40,
                "velocity": 127,
                "duration": 0.2340909,
                "tempo": 120.0
            },
            {
                "start_time": 58.2590909,
                "end_time": 58.4772727,
                "pitch": 42,
                "velocity": 127,
                "duration": 0.2181818,
                "tempo": 120.0
            },
            {
                "start_time": 58.4772727,
                "end_time": 58.7159091,
                "pitch": 42,
                "velocity": 127,
                "duration": 0.2386364,
                "tempo": 120.0
            },
            {
                "start_time": 58.7159091,
                "end_time": 58.9545455,
                "pitch": 42,
                "velocity": 127,
                "duration": 0.2386364,
                "tempo": 120.0
            },
            {
                "start_time": 58.9545455,
                "end_time": 59.1727273,
                "pitch": 42,
                "velocity": 127,
                "duration": 0.2181818,
                "tempo": 120.0
            },
            {
                "start_time": 59.1727273,
                "end_time": 59.4068182,
                "pitch": 42,
                "velocity": 127,
                "duration": 0.2340909,
                "tempo": 120.0
            },
            {
                "start_time": 59.4068182,
                "end_time": 59.6227273,
                "pitch": 42,
                "velocity": 127,
                "duration": 0.2159091,
                "tempo": 120.0
            },
            {
                "start_time": 59.6227273,
                "end_time": 59.8568182,
                "pitch": 42,
                "velocity": 127,
                "duration": 0.2340909,
                "tempo": 120.0
            },
            {
                "start_time": 59.8568182,
                "end_time": 60.0795455,
                "pitch": 42,
                "velocity": 127,
                "duration": 0.2227273,
                "tempo": 120.0
            },
            {
                "start_time": 60.0795455,
                "end_time": 60.3181818,
                "pitch": 40,
                "velocity": 127,
                "duration": 0.2386364,
                "tempo": 120.0
            },
            {
                "start_time": 60.3181818,
                "end_time": 60.5409091,
                "pitch": 40,
                "velocity": 127,
                "duration": 0.2227273,
                "tempo": 120.0
            },
            {
                "start_time": 60.5409091,
                "end_time": 60.7795455,
                "pitch": 40,
                "velocity": 127,
                "duration": 0.2386364,
                "tempo": 120.0
            },
            {
                "start_time": 60.7795455,
                "end_time": 60.9886364,
                "pitch": 40,
                "velocity": 127,
                "duration": 0.2090909,
                "tempo": 120.0
            },
            {
                "start_time": 60.9886364,
                "end_time": 61.2113636,
                "pitch": 32,
                "velocity": 127,
                "duration": 0.2227273,
                "tempo": 120.0
            },
            {
                "start_time": 61.2113636,
                "end_time": 61.4386364,
                "pitch": 32,
                "velocity": 127,
                "duration": 0.2272727,
                "tempo": 120.0
            },
            {
                "start_time": 61.4386364,
                "end_time": 61.6818182,
                "pitch": 33,
                "velocity": 127,
                "duration": 0.2431818,
                "tempo": 120.0
            },
            {
                "start_time": 61.6818182,
                "end_time": 61.9,
                "pitch": 34,
                "velocity": 127,
                "duration": 0.2181818,
                "tempo": 120.0
            },
            {
                "start_time": 61.9,
                "end_time": 62.1340909,
                "pitch": 35,
                "velocity": 127,
                "duration": 0.2340909,
                "tempo": 120.0
            },
            {
                "start_time": 62.1340909,
                "end_time": 62.3590909,
                "pitch": 35,
                "velocity": 127,
                "duration": 0.225,
                "tempo": 120.0
            },
            {
                "start_time": 62.3590909,
                "end_time": 62.5659091,
                "pitch": 35,
                "velocity": 127,
                "duration": 0.2068182,
                "tempo": 120.0
            },
            {
                "start_time": 62.5659091,
                "end_time": 62.8,
                "pitch": 35,
                "velocity": 127,
                "duration": 0.2340909,
                "tempo": 120.0
            },
            {
                "start_time": 62.8,
                "end_time": 63.0181818,
                "pitch": 35,
                "velocity": 127,
                "duration": 0.2181818,
                "tempo": 120.0
            },
            {
                "start_time": 63.0181818,
                "end_time": 63.4681818,
                "pitch": 38,
                "velocity": 127,
                "duration": 0.45,
                "tempo": 120.0
            },
            {
                "start_time": 63.4681818,
                "end_time": 63.7022727,
                "pitch": 35,
                "velocity": 127,
                "duration": 0.2340909,
                "tempo": 120.0
            },
            {
                "start_time": 63.7022727,
                "end_time": 63.9204545,
                "pitch": 35,
                "velocity": 127,
                "duration": 0.2181818,
                "tempo": 120.0
            },
            {
                "start_time": 63.9204545,
                "end_time": 64.1545455,
                "pitch": 35,
                "velocity": 127,
                "duration": 0.2340909,
                "tempo": 120.0
            },
            {
                "start_time": 64.1545455,
                "end_time": 64.3727273,
                "pitch": 35,
                "velocity": 127,
                "duration": 0.2181818,
                "tempo": 120.0
            },
            {
                "start_time": 64.3727273,
                "end_time": 64.6045455,
                "pitch": 35,
                "velocity": 127,
                "duration": 0.2318182,
                "tempo": 120.0
            },
            {
                "start_time": 64.6045455,
                "end_time": 64.8227273,
                "pitch": 35,
                "velocity": 127,
                "duration": 0.2181818,
                "tempo": 120.0
            },
            {
                "start_time": 64.8227273,
                "end_time": 65.2909091,
                "pitch": 38,
                "velocity": 127,
                "duration": 0.4681818,
                "tempo": 120.0
            },
            {
                "start_time": 65.2909091,
                "end_time": 65.325,
                "pitch": 35,
                "velocity": 127,
                "duration": 0.0340909,
                "tempo": 120.0
            }
        ]
    }
}