{
    "mood": "angry",
    "instruments": {
        "Trumpet": [
            {
                "start_time": 0.0159091,
                "end_time": 0.45,
                "pitch": 60,
                "velocity": 101,
                "duration": 0.4340909,
                "tempo": 120.0
            },
            {
                "start_time": 0.45,
                "end_time": 0.6522727,
                "pitch": 59,
                "velocity": 101,
                "duration": 0.2022727,
                "tempo": 120.0
            },
            {
                "start_time": 0.6522727,
                "end_time": 2.1227273,
                "pitch": 59,
                "velocity": 101,
                "duration": 1.4704545,
                "tempo": 120.0
            },
            {
                "start_time": 2.1227273,
                "end_time": 2.2545455,
                "pitch": 55,
                "velocity": 101,
                "duration": 0.1318182,
                "tempo": 120.0
            },
            {
                "start_time": 2.2545455,
                "end_time": 2.3863636,
                "pitch": 55,
                "velocity": 101,
                "duration": 0.1318182,
                "tempo": 120.0
            },
            {
                "start_time": 2.3863636,
                "end_time": 2.5159091,
                "pitch": 55,
                "velocity": 101,
                "duration": 0.1295455,
                "tempo": 120.0
            },
            {
                "start_time": 2.5159091,
                "end_time": 2.55,
                "pitch": 55,
                "velocity": 101,
                "duration": 0.0340909,
                "tempo": 120.0
            },
            {
                "start_time": 2.55,
                "end_time": 2.7136364,
                "pitch": 55,
                "velocity": 101,
                "duration": 0.1636364,
                "tempo": 120.0
            },
            {
                "start_time": 2.7136364,
                "end_time": 2.975,
                "pitch": 57,
                "velocity": 101,
                "duration": 0.2613636,
                "tempo": 120.0
            },
            {
                "start_time": 2.975,
                "end_time": 3.1068182,
                "pitch": 57,
                "velocity": 101,
                "duration": 0.1318182,
                "tempo": 120.0
            },
            {
                "start_time": 3.1068182,
                "end_time": 3.4022727,
                "pitch": 59,
                "velocity": 101,
                "duration": 0.2954545,
                "tempo": 120.0
            },
            {
                "start_time": 3.4022727,
                "end_time": 3.8068182,
                "pitch": 59,
                "velocity": 101,
                "duration": 0.4045455,
                "tempo": 120.0
            },
            {
                "start_time": 3.8068182,
                "end_time": 4.0409091,
                "pitch": 59,
                "velocity": 101,
                "duration": 0.2340909,
                "tempo": 120.0
            },
            {
                "start_time": 4.0409091,
                "end_time": 6.7340909,
                "pitch": 59,
                "velocity": 101,
                "duration": 2.6931818,
                "tempo": 120.0
            },
            {
                "start_time": 6.7340909,
                "end_time": 7.3068182,
                "pitch": 62,
                "velocity": 101,
                "duration": 0.5727273,
                "tempo": 120.0
            },
            {
                "start_time": 7.3068182,
                "end_time": 7.8795455,
                "pitch": 64,
                "velocity": 101,
                "duration": 0.5727273,
                "tempo": 120.0
            },
            {
                "start_time": 7.8795455,
                "end_time": 8.4522727,
                "pitch": 62,
                "velocity": 101,
                "duration": 0.5727273,
                "tempo": 120.0
            },
            {
                "start_time": 8.4522727,
                "end_time": 11.0,
                "pitch": 60,
                "velocity": 101,
                "duration": 2.5477273,
                "tempo": 120.0
            },
            {
                "start_time": 11.0,
                "end_time": 11.4795455,
                "pitch": 60,
                "velocity": 101,
                "duration": 0.4795455,
                "tempo": 120.0
            },
            {
                "start_time": 11.4795455,
                "end_time": 11.7022727,
                "pitch": 59,
                "velocity": 101,
                "duration": 0.2227273,
                "tempo": 120.0
            },
            {
                "start_time": 11.7022727,
                "end_time": 13.6386364,
                "pitch": 59,
                "velocity": 101,
                "duration": 1.9363636,
                "tempo": 120.0
            },
            {
                "start_time": 13.6386364,
                "end_time": 13.8727273,
                "pitch": 64,
                "velocity": 101,
                "duration": 0.2340909,
                "tempo": 120.0
            },
            {
                "start_time": 13.8727273,
                "end_time": 14.0704545,
                "pitch": 62,
                "velocity": 101,
                "duration": 0.1977273,
                "tempo": 120.0
            },
            {
                "start_time": 14.0704545,
                "end_time": 14.2613636,
                "pitch": 62,
                "velocity": 101,
                "duration": 0.1909091,
                "tempo": 120.0
            },
            {
                "start_time": 14.2613636,
                "end_time": 14.5659091,
                "pitch": 64,
                "velocity": 101,
                "duration": 0.3045455,
                "tempo": 120.0
            }
        ],
        "Electric Piano 1": [
            {
                "start_time": 14.5659091,
                "end_time": 14.6045455,
                "pitch": 47,
                "velocity": 10,
                "duration": 0.0386364,
                "tempo": 120.0
            },
            {
                "start_time": 14.6045455,
                "end_time": 14.6431818,
                "pitch": 50,
                "velocity": 10,
                "duration": 0.0386364,
                "tempo": 120.0
            },
            {
                "start_time": 14.6431818,
                "end_time": 14.7204545,
                "pitch": 52,
                "velocity": 10,
                "duration": 0.0772727,
                "tempo": 120.0
            },
            {
                "start_time": 14.7204545,
                "end_time": 14.8340909,
                "pitch": 53,
                "velocity": 13,
                "duration": 0.1136364,
                "tempo": 120.0
            },
            {
                "start_time": 14.8340909,
                "end_time": 14.8727273,
                "pitch": 55,
                "velocity": 13,
                "duration": 0.0386364,
                "tempo": 120.0
            },
            {
                "start_time": 14.8727273,
                "end_time": 14.9090909,
                "pitch": 54,
                "velocity": 16,
                "duration": 0.0363636,
                "tempo": 120.0
            },
            {
                "start_time": 14.9090909,
                "end_time": 15.025,
                "pitch": 55,
                "velocity": 16,
                "duration": 0.1159091,
                "tempo": 120.0
            },
            {
                "start_time": 15.025,
                "end_time": 15.1386364,
                "pitch": 57,
                "velocity": 20,
                "duration": 0.1136364,
                "tempo": 120.0
            },
            {
                "start_time": 15.1386364,
                "end_time": 15.1772727,
                "pitch": 59,
                "velocity": 20,
                "duration": 0.0386364,
                "tempo": 120.0
            },
            {
                "start_time": 15.1772727,
                "end_time": 15.3295455,
                "pitch": 59,
                "velocity": 25,
                "duration": 0.1522727,
                "tempo": 120.0
            },
            {
                "start_time": 15.3295455,
                "end_time": 15.4431818,
                "pitch": 61,
                "velocity": 32,
                "duration": 0.1136364,
                "tempo": 120.0
            },
            {
                "start_time": 15.4431818,
                "end_time": 15.4818182,
                "pitch": 63,
                "velocity": 32,
                "duration": 0.0386364,
                "tempo": 120.0
            },
            {
                "start_time": 15.4818182,
                "end_time": 15.6340909,
                "pitch": 63,
                "velocity": 40,
                "duration": 0.1522727,
                "tempo": 120.0
            },
            {
                "start_time": 15.6340909,
                "end_time": 15.7477273,
                "pitch": 65,
                "velocity": 51,
                "duration": 0.1136364,
                "tempo": 120.0
            },
            {
                "start_time": 15.7477273,
                "end_time": 15.7863636,
                "pitch": 67,
                "velocity": 51,
                "duration": 0.0386364,
                "tempo": 120.0
            },
            {
                "start_time": 15.7863636,
                "end_time": 15.825,
                "pitch": 66,
                "velocity": 64,
                "duration": 0.0386364,
                "tempo": 120.0
            },
            {
                "start_time": 15.825,
                "end_time": 15.9386364,
                "pitch": 67,
                "velocity": 64,
                "duration": 0.1136364,
                "tempo": 120.0
            },
            {
                "start_time": 15.9386364,
                "end_time": 16.0909091,
                "pitch": 69,
                "velocity": 80,
                "duration": 0.1522727,
                "tempo": 120.0
            },
            {
                "start_time": 16.0909091,
                "end_time": 16.2068182,
                "pitch": 71,
                "velocity": 101,
                "duration": 0.1159091,
                "tempo": 120.0
            },
            {
                "start_time": 16.2068182,
                "end_time": 16.2454545,
                "pitch": 73,
                "velocity": 101,
                "duration": 0.0386364,
                "tempo": 120.0
            },
            {
                "start_time": 16.2454545,
                "end_time": 16.3545455,
                "pitch": 73,
                "velocity": 127,
                "duration": 0.1090909,
                "tempo": 120.0
            },
            {
                "start_time": 16.3545455,
                "end_time": 16.3931818,
                "pitch": 75,
                "velocity": 127,
                "duration": 0.0386364,
                "tempo": 120.0
            },
            {
                "start_time": 16.3931818,
                "end_time": 16.5409091,
                "pitch": 75,
                "velocity": 127,
                "duration": 0.1477273,
                "tempo": 120.0
            },
            {
                "start_time": 16.5409091,
                "end_time": 16.65,
                "pitch": 77,
                "velocity": 127,
                "duration": 0.1090909,
                "tempo": 120.0
            },
            {
                "start_time": 16.65,
                "end_time": 16.6886364,
                "pitch": 79,
                "velocity": 127,
                "duration": 0.0386364,
                "tempo": 120.0
            },
            {
                "start_time": 16.6886364,
                "end_time": 16.725,
                "pitch": 78,
                "velocity": 127,
                "duration": 0.0363636,
                "tempo": 120.0
            },
            {
                "start_time": 16.725,
                "end_time": 16.8363636,
                "pitch": 79,
                "velocity": 127,
                "duration": 0.1113636,
                "tempo": 120.0
            },
            {
                "start_time": 16.8363636,
                "end_time": 16.9818182,
                "pitch": 81,
                "velocity": 127,
                "duration": 0.1454545,
                "tempo": 120.0
            },
            {
                "start_time": 16.9818182,
                "end_time": 17.0931818,
                "pitch": 83,
                "velocity": 127,
                "duration": 0.1113636,
                "tempo": 120.0
            },
            {
                "start_time": 17.0931818,
                "end_time": 17.1295455,
                "pitch": 85,
                "velocity": 127,
                "duration": 0.0363636,
                "tempo": 120.0
            },
            {
                "start_time": 17.1295455,
                "end_time": 17.2409091,
                "pitch": 85,
                "velocity": 127,
                "duration": 0.1113636,
                "tempo": 120.0
            },
            {
                "start_time": 17.2409091,
                "end_time": 17.2772727,
                "pitch": 87,
                "velocity": 127,
                "duration": 0.0363636,
                "tempo": 120.0
            },
            {
                "start_time": 17.2772727,
                "end_time": 17.425,
                "pitch": 87,
                "velocity": 127,
                "duration": 0.1477273,
                "tempo": 120.0
            },
            {
                "start_time": 17.425,
                "end_time": 17.5363636,
                "pitch": 89,
                "velocity": 127,
                "duration": 0.1113636,
                "tempo": 120.0
            },
            {
                "start_time": 17.5363636,
                "end_time": 17.5727273,
                "pitch": 91,
                "velocity": 127,
                "duration": 0.0363636,
                "tempo": 120.0
            },
            {
                "start_time": 17.5727273,
                "end_time": 17.6113636,
                "pitch": 90,
                "velocity": 127,
                "duration": 0.0386364,
                "tempo": 120.0
            },
            {
                "start_time": 17.6113636,
                "end_time": 17.7204545,
                "pitch": 91,
                "velocity": 127,
                "duration": 0.1090909,
                "tempo": 120.0
            },
            {
                "start_time": 17.7204545,
                "end_time": 17.7954545,
                "pitch": 94,
                "velocity": 127,
                "duration": 0.075,
                "tempo": 120.0
            },
            {
                "start_time": 17.7954545,
                "end_time": 17.8318182,
                "pitch": 90,
                "velocity": 101,
                "duration": 0.0363636,
                "tempo": 120.0
            },
            {
                "start_time": 17.8318182,
                "end_time": 17.9431818,
                "pitch": 91,
                "velocity": 101,
                "duration": 0.1113636,
                "tempo": 120.0
            },
            {
                "start_time": 17.9431818,
                "end_time": 18.0159091,
                "pitch": 94,
                "velocity": 101,
                "duration": 0.0727273,
                "tempo": 120.0
            },
            {
                "start_time": 18.0159091,
                "end_time": 18.0545455,
                "pitch": 90,
                "velocity": 80,
                "duration": 0.0386364,
                "tempo": 120.0
            },
            {
                "start_time": 18.0545455,
                "end_time": 18.1636364,
                "pitch": 91,
                "velocity": 80,
                "duration": 0.1090909,
                "tempo": 120.0
            },
            {
                "start_time": 18.1636364,
                "end_time": 18.2386364,
                "pitch": 94,
                "velocity": 80,
                "duration": 0.075,
                "tempo": 120.0
            },
            {
                "start_time": 18.2386364,
                "end_time": 18.275,
                "pitch": 90,
                "velocity": 64,
                "duration": 0.0363636,
                "tempo": 120.0
            },
            {
                "start_time": 18.275,
                "end_time": 18.3863636,
                "pitch": 91,
                "velocity": 64,
                "duration": 0.1113636,
                "tempo": 120.0
            },
            {
                "start_time": 18.3863636,
                "end_time": 18.4590909,
                "pitch": 94,
                "velocity": 64,
                "duration": 0.0727273,
                "tempo": 120.0
            },
            {
                "start_time": 18.4590909,
                "end_time": 18.4977273,
                "pitch": 90,
                "velocity": 51,
                "duration": 0.0386364,
                "tempo": 120.0
            },
            {
                "start_time": 18.4977273,
                "end_time": 18.6113636,
                "pitch": 91,
                "velocity": 51,
                "duration": 0.1136364,
                "tempo": 120.0
            },
            {
                "start_time": 18.6113636,
                "end_time": 18.6931818,
                "pitch": 94,
                "velocity": 51,
                "duration": 0.0818182,
                "tempo": 120.0
            },
            {
                "start_time": 18.6931818,
                "end_time": 18.7340909,
                "pitch": 90,
                "velocity": 40,
                "duration": 0.0409091,
                "tempo": 120.0
            },
            {
                "start_time": 18.7340909,
                "end_time": 18.8568182,
                "pitch": 91,
                "velocity": 40,
                "duration": 0.1227273,
                "tempo": 120.0
            },
            {
                "start_time": 18.8568182,
                "end_time": 18.9386364,
                "pitch": 94,
                "velocity": 40,
                "duration": 0.0818182,
                "tempo": 120.0
            },
            {
                "start_time": 18.9386364,
                "end_time": 18.9795455,
                "pitch": 90,
                "velocity": 32,
                "duration": 0.0409091,
                "tempo": 120.0
            },
            {
                "start_time": 18.9795455,
                "end_time": 19.1,
                "pitch": 91,
                "velocity": 32,
                "duration": 0.1204545,
                "tempo": 120.0
            },
            {
                "start_time": 19.1,
                "end_time": 19.1818182,
                "pitch": 94,
                "velocity": 32,
                "duration": 0.0818182,
                "tempo": 120.0
            },
            {
                "start_time": 19.1818182,
                "end_time": 19.2227273,
                "pitch": 90,
                "velocity": 25,
                "duration": 0.0409091,
                "tempo": 120.0
            },
            {
                "start_time": 19.2227273,
                "end_time": 19.3454545,
                "pitch": 91,
                "velocity": 25,
                "duration": 0.1227273,
                "tempo": 120.0
            },
            {
                "start_time": 19.3454545,
                "end_time": 19.4272727,
                "pitch": 94,
                "velocity": 25,
                "duration": 0.0818182,
                "tempo": 120.0
            },
            {
                "start_time": 19.4272727,
                "end_time": 19.4681818,
                "pitch": 90,
                "velocity": 16,
                "duration": 0.0409091,
                "tempo": 120.0
            },
            {
                "start_time": 19.4681818,
                "end_time": 19.5909091,
                "pitch": 91,
                "velocity": 16,
                "duration": 0.1227273,
                "tempo": 120.0
            },
            {
                "start_time": 19.5909091,
                "end_time": 19.6727273,
                "pitch": 94,
                "velocity": 16,
                "duration": 0.0818182,
                "tempo": 120.0
            },
            {
                "start_time": 19.6727273,
                "end_time": 19.7136364,
                "pitch": 90,
                "velocity": 13,
                "duration": 0.0409091,
                "tempo": 120.0
            },
            {
                "start_time": 19.7136364,
                "end_time": 19.8363636,
                "pitch": 91,
                "velocity": 13,
                "duration": 0.1227273,
                "tempo": 120.0
            },
            {
                "start_time": 19.8363636,
                "end_time": 19.9181818,
                "pitch": 94,
                "velocity": 13,
                "duration": 0.0818182,
                "tempo": 120.0
            },
            {
                "start_time": 19.9181818,
                "end_time": 19.9568182,
                "pitch": 90,
                "velocity": 10,
                "duration": 0.0386364,
                "tempo": 120.0
            },
            {
                "start_time": 19.9568182,
                "end_time": 20.0795455,
                "pitch": 91,
                "velocity": 10,
                "duration": 0.1227273,
                "tempo": 120.0
            },
            {
                "start_time": 20.0795455,
                "end_time": 20.1613636,
                "pitch": 94,
                "velocity": 10,
                "duration": 0.0818182,
                "tempo": 120.0
            },
            {
                "start_time": 20.1613636,
                "end_time": 20.2022727,
                "pitch": 90,
                "velocity": 8,
                "duration": 0.0409091,
                "tempo": 120.0
            },
            {
                "start_time": 20.2022727,
                "end_time": 20.325,
                "pitch": 91,
                "velocity": 8,
                "duration": 0.1227273,
                "tempo": 120.0
            },
            {
                "start_time": 20.325,
                "end_time": 20.4068182,
                "pitch": 94,
                "velocity": 8,
                "duration": 0.0818182,
                "tempo": 120.0
            },
            {
                "start_time": 20.4068182,
                "end_time": 20.4477273,
                "pitch": 90,
                "velocity": 6,
                "duration": 0.0409091,
                "tempo": 120.0
            },
            {
                "start_time": 20.4477273,
                "end_time": 20.5704545,
                "pitch": 91,
                "velocity": 6,
                "duration": 0.1227273,
                "tempo": 120.0
            },
            {
                "start_time": 20.5704545,
                "end_time": 20.6522727,
                "pitch": 94,
                "velocity": 6,
                "duration": 0.0818182,
                "tempo": 120.0
            },
            {
                "start_time": 20.6522727,
                "end_time": 20.6931818,
                "pitch": 90,
                "velocity": 5,
                "duration": 0.0409091,
                "tempo": 120.0
            },
            {
                "start_time": 20.6931818,
                "end_time": 20.8159091,
                "pitch": 91,
                "velocity": 5,
                "duration": 0.1227273,
                "tempo": 120.0
            },
            {
                "start_time": 20.8159091,
                "end_time": 20.8954545,
                "pitch": 94,
                "velocity": 5,
                "duration": 0.0795455,
                "tempo": 120.0
            },
            {
                "start_time": 20.8954545,
                "end_time": 20.9363636,
                "pitch": 90,
                "velocity": 4,
                "duration": 0.0409091,
                "tempo": 120.0
            },
            {
                "start_time": 20.9363636,
                "end_time": 21.0590909,
                "pitch": 91,
                "velocity": 4,
                "duration": 0.1227273,
                "tempo": 120.0
            },
            {
                "start_time": 21.0590909,
                "end_time": 21.1386364,
                "pitch": 94,
                "velocity": 4,
                "duration": 0.0795455,
                "tempo": 120.0
            }
        ]
    }
}