{
    "mood": "angry",
    "instruments": {
        "Violin": [
            {
                "start_time": 0.0,
                "end_time": 0.1,
                "pitch": 64,
                "velocity": 127,
                "duration": 0.1,
                "tempo": 120.0
            },
            {
                "start_time": 0.1,
                "end_time": 0.2159091,
                "pitch": 64,
                "velocity": 127,
                "duration": 0.1159091,
                "tempo": 120.0
            },
            {
                "start_time": 0.2159091,
                "end_time": 0.3159091,
                "pitch": 61,
                "velocity": 127,
                "duration": 0.1,
                "tempo": 120.0
            },
            {
                "start_time": 0.3159091,
                "end_time": 0.4340909,
                "pitch": 61,
                "velocity": 127,
                "duration": 0.1181818,
                "tempo": 120.0
            },
            {
                "start_time": 0.4340909,
                "end_time": 1.8886364,
                "pitch": 59,
                "velocity": 127,
                "duration": 1.4545455,
                "tempo": 120.0
            },
            {
                "start_time": 1.8886364,
                "end_time": 3.8022727,
                "pitch": 61,
                "velocity": 127,
                "duration": 1.9136364,
                "tempo": 120.0
            },
            {
                "start_time": 3.8022727,
                "end_time": 6.7886364,
                "pitch": 61,
                "velocity": 127,
                "duration": 2.9863636,
                "tempo": 120.0
            },
            {
                "start_time": 6.7886364,
                "end_time": 6.8909091,
                "pitch": 64,
                "velocity": 127,
                "duration": 0.1022727,
                "tempo": 120.0
            },
            {
                "start_time": 6.8909091,
                "end_time": 6.9931818,
                "pitch": 64,
                "velocity": 127,
                "duration": 0.1022727,
                "tempo": 120.0
            },
            {
                "start_time": 6.9931818,
                "end_time": 7.1136364,
                "pitch": 61,
                "velocity": 127,
                "duration": 0.1204545,
                "tempo": 120.0
            },
            {
                "start_time": 7.1136364,
                "end_time": 7.2159091,
                "pitch": 61,
                "velocity": 127,
                "duration": 0.1022727,
                "tempo": 120.0
            },
            {
                "start_time": 7.2159091,
                "end_time": 8.6931818,
                "pitch": 59,
                "velocity": 127,
                "duration": 1.4772727,
                "tempo": 120.0
            },
            {
                "start_time": 8.6931818,
                "end_time": 10.3954545,
                "pitch": 63,
                "velocity": 127,
                "duration": 1.7022727,
                "tempo": 120.0
            },
            {
                "start_time": 10.3954545,
                "end_time": 10.825,
                "pitch": 63,
                "velocity": 127,
                "duration": 0.4295455,
                "tempo": 120.0
            },
            {
                "start_time": 10.825,
                "end_time": 11.0431818,
                "pitch": 61,
                "velocity": 127,
                "duration": 0.2181818,
                "tempo": 120.0
            },
            {
                "start_time": 11.0431818,
                "end_time": 13.5931818,
                "pitch": 61,
                "velocity": 127,
                "duration": 2.55,
                "tempo": 120.0
            },
            {
                "start_time": 13.5931818,
                "end_time": 13.7045455,
                "pitch": 61,
                "velocity": 127,
                "duration": 0.1113636,
                "tempo": 120.0
            },
            {
                "start_time": 13.7045455,
                "end_time": 13.8,
                "pitch": 59,
                "velocity": 127,
                "duration": 0.0954545,
                "tempo": 120.0
            },
            {
                "start_time": 13.8,
                "end_time": 13.8954545,
                "pitch": 63,
                "velocity": 127,
                "duration": 0.0954545,
                "tempo": 120.0
            },
            {
                "start_time": 13.8954545,
                "end_time": 14.0090909,
                "pitch": 63,
                "velocity": 127,
                "duration": 0.1136364,
                "tempo": 120.0
            },
            {
                "start_time": 14.0090909,
                "end_time": 14.2340909,
                "pitch": 68,
                "velocity": 127,
                "duration": 0.225,
                "tempo": 120.0
            },
            {
                "start_time": 14.2340909,
                "end_time": 14.6477273,
                "pitch": 66,
                "velocity": 127,
                "duration": 0.4136364,
                "tempo": 120.0
            },
            {
                "start_time": 14.6477273,
                "end_time": 15.0681818,
                "pitch": 64,
                "velocity": 127,
                "duration": 0.4204545,
                "tempo": 120.0
            },
            {
                "start_time": 15.0681818,
                "end_time": 15.2840909,
                "pitch": 63,
                "velocity": 127,
                "duration": 0.2159091,
                "tempo": 120.0
            },
            {
                "start_time": 15.2840909,
                "end_time": 15.4909091,
                "pitch": 59,
                "velocity": 127,
                "duration": 0.2068182,
                "tempo": 120.0
            },
            {
                "start_time": 15.4909091,
                "end_time": 15.7113636,
                "pitch": 59,
                "velocity": 127,
                "duration": 0.2204545,
                "tempo": 120.0
            },
            {
                "start_time": 15.7113636,
                "end_time": 15.925,
                "pitch": 68,
                "velocity": 127,
                "duration": 0.2136364,
                "tempo": 120.0
            },
            {
                "start_time": 15.925,
                "end_time": 16.3568182,
                "pitch": 66,
                "velocity": 127,
                "duration": 0.4318182,
                "tempo": 120.0
            },
            {
                "start_time": 16.3568182,
                "end_time": 16.7636364,
                "pitch": 64,
                "velocity": 127,
                "duration": 0.4068182,
                "tempo": 120.0
            },
            {
                "start_time": 16.7636364,
                "end_time": 16.9704545,
                "pitch": 63,
                "velocity": 127,
                "duration": 0.2068182,
                "tempo": 120.0
            },
            {
                "start_time": 16.9704545,
                "end_time": 17.1931818,
                "pitch": 61,
                "velocity": 127,
                "duration": 0.2227273,
                "tempo": 120.0
            },
            {
                "start_time": 17.1931818,
                "end_time": 17.4159091,
                "pitch": 61,
                "velocity": 127,
                "duration": 0.2227273,
                "tempo": 120.0
            },
            {
                "start_time": 17.4159091,
                "end_time": 20.7977273,
                "pitch": 59,
                "velocity": 127,
                "duration": 3.3818182,
                "tempo": 120.0
            },
            {
                "start_time": 20.7977273,
                "end_time": 21.2318182,
                "pitch": 64,
                "velocity": 127,
                "duration": 0.4340909,
                "tempo": 120.0
            },
            {
                "start_time": 21.2318182,
                "end_time": 21.6659091,
                "pitch": 61,
                "velocity": 127,
                "duration": 0.4340909,
                "tempo": 120.0
            },
            {
                "start_time": 21.6659091,
                "end_time": 21.8681818,
                "pitch": 66,
                "velocity": 127,
                "duration": 0.2022727,
                "tempo": 120.0
            },
            {
                "start_time": 21.8681818,
                "end_time": 22.2977273,
                "pitch": 61,
                "velocity": 127,
                "duration": 0.4295455,
                "tempo": 120.0
            },
            {
                "start_time": 22.2977273,
                "end_time": 22.7295455,
                "pitch": 64,
                "velocity": 127,
                "duration": 0.4318182,
                "tempo": 120.0
            },
            {
                "start_time": 22.7295455,
                "end_time": 22.9295455,
                "pitch": 61,
                "velocity": 127,
                "duration": 0.2,
                "tempo": 120.0
            },
            {
                "start_time": 22.9295455,
                "end_time": 23.1431818,
                "pitch": 68,
                "velocity": 127,
                "duration": 0.2136364,
                "tempo": 120.0
            },
            {
                "start_time": 23.1431818,
                "end_time": 24.2090909,
                "pitch": 66,
                "velocity": 127,
                "duration": 1.0659091,
                "tempo": 120.0
            },
            {
                "start_time": 24.2090909,
                "end_time": 24.6340909,
                "pitch": 64,
                "velocity": 127,
                "duration": 0.425,
                "tempo": 120.0
            },
            {
                "start_time": 24.6340909,
                "end_time": 25.0522727,
                "pitch": 61,
                "velocity": 127,
                "duration": 0.4181818,
                "tempo": 120.0
            },
            {
                "start_time": 25.0522727,
                "end_time": 25.2659091,
                "pitch": 59,
                "velocity": 127,
                "duration": 0.2136364,
                "tempo": 120.0
            },
            {
                "start_time": 25.2659091,
                "end_time": 25.6977273,
                "pitch": 59,
                "velocity": 127,
                "duration": 0.4318182,
                "tempo": 120.0
            },
            {
                "start_time": 25.6977273,
                "end_time": 26.1159091,
                "pitch": 59,
                "velocity": 127,
                "duration": 0.4181818,
                "tempo": 120.0
            },
            {
                "start_time": 26.1159091,
                "end_time": 26.3318182,
                "pitch": 61,
                "velocity": 127,
                "duration": 0.2159091,
                "tempo": 120.0
            },
            {
                "start_time": 26.3318182,
                "end_time": 27.175,
                "pitch": 61,
                "velocity": 127,
                "duration": 0.8431818,
                "tempo": 120.0
            },
            {
                "start_time": 27.175,
                "end_time": 27.1909091,
                "pitch": 64,
                "velocity": 127,
                "duration": 0.0159091,
                "tempo": 120.0
            }
        ],
        "Lead 2 (sawtooth)": [
            {
                "start_time": 0.0,
                "end_time": 0.1,
                "pitch": 76,
                "velocity": 64,
                "duration": 0.1,
                "tempo": 120.0
            },
            {
                "start_time": 0.1,
                "end_time": 0.2159091,
                "pitch": 76,
                "velocity": 64,
                "duration": 0.1159091,
                "tempo": 120.0
            },
            {
                "start_time": 0.2159091,
                "end_time": 0.3159091,
                "pitch": 73,
                "velocity": 64,
                "duration": 0.1,
                "tempo": 120.0
            },
            {
                "start_time": 0.3159091,
                "end_time": 0.4340909,
                "pitch": 71,
                "velocity": 64,
                "duration": 0.1181818,
                "tempo": 120.0
            },
            {
                "start_time": 0.4340909,
                "end_time": 1.8886364,
                "pitch": 73,
                "velocity": 64,
                "duration": 1.4545455,
                "tempo": 120.0
            },
            {
                "start_time": 1.8886364,
                "end_time": 3.8022727,
                "pitch": 71,
                "velocity": 64,
                "duration": 1.9136364,
                "tempo": 120.0
            },
            {
                "start_time": 3.8022727,
                "end_time": 6.7886364,
                "pitch": 73,
                "velocity": 64,
                "duration": 2.9863636,
                "tempo": 120.0
            },
            {
                "start_time": 6.7886364,
                "end_time": 6.8909091,
                "pitch": 76,
                "velocity": 64,
                "duration": 0.1022727,
                "tempo": 120.0
            },
            {
                "start_time": 6.8909091,
                "end_time": 6.9931818,
                "pitch": 76,
                "velocity": 64,
                "duration": 0.1022727,
                "tempo": 120.0
            },
            {
                "start_time": 6.9931818,
                "end_time": 7.1136364,
                "pitch": 73,
                "velocity": 64,
                "duration": 0.1204545,
                "tempo": 120.0
            },
            {
                "start_time": 7.1136364,
                "end_time": 7.2159091,
                "pitch": 71,
                "velocity": 64,
                "duration": 0.1022727,
                "tempo": 120.0
            },
            {
                "start_time": 7.2159091,
                "end_time": 8.6931818,
                "pitch": 73,
                "velocity": 64,
                "duration": 1.4772727,
                "tempo": 120.0
            },
            {
                "start_time": 8.6931818,
                "end_time": 10.3954545,
                "pitch": 75,
                "velocity": 64,
                "duration": 1.7022727,
                "tempo": 120.0
            },
            {
                "start_time": 10.3954545,
                "end_time": 10.825,
                "pitch": 75,
                "velocity": 64,
                "duration": 0.4295455,
                "tempo": 120.0
            },
            {
                "start_time": 10.825,
                "end_time": 11.0431818,
                "pitch": 73,
                "velocity": 64,
                "duration": 0.2181818,
                "tempo": 120.0
            },
            {
                "start_time": 11.0431818,
                "end_time": 13.5931818,
                "pitch": 73,
                "velocity": 64,
                "duration": 2.55,
                "tempo": 120.0
            },
            {
                "start_time": 13.5931818,
                "end_time": 13.7045455,
                "pitch": 71,
                "velocity": 64,
                "duration": 0.1113636,
                "tempo": 120.0
            },
            {
                "start_time": 13.7045455,
                "end_time": 13.8,
                "pitch": 73,
                "velocity": 64,
                "duration": 0.0954545,
                "tempo": 120.0
            },
            {
                "start_time": 13.8,
                "end_time": 13.8954545,
                "pitch": 75,
                "velocity": 64,
                "duration": 0.0954545,
                "tempo": 120.0
            },
            {
                "start_time": 13.8954545,
                "end_time": 14.0090909,
                "pitch": 75,
                "velocity": 64,
                "duration": 0.1136364,
                "tempo": 120.0
            },
            {
                "start_time": 14.0090909,
                "end_time": 14.2340909,
                "pitch": 80,
                "velocity": 64,
                "duration": 0.225,
                "tempo": 120.0
            },
            {
                "start_time": 14.2340909,
                "end_time": 14.6477273,
                "pitch": 78,
                "velocity": 64,
                "duration": 0.4136364,
                "tempo": 120.0
            },
            {
                "start_time": 14.6477273,
                "end_time": 15.0681818,
                "pitch": 76,
                "velocity": 64,
                "duration": 0.4204545,
                "tempo": 120.0
            },
            {
                "start_time": 15.0681818,
                "end_time": 15.2840909,
                "pitch": 75,
                "velocity": 64,
                "duration": 0.2159091,
                "tempo": 120.0
            },
            {
                "start_time": 15.2840909,
                "end_time": 15.4909091,
                "pitch": 71,
                "velocity": 64,
                "duration": 0.2068182,
                "tempo": 120.0
            },
            {
                "start_time": 15.4909091,
                "end_time": 15.7113636,
                "pitch": 73,
                "velocity": 64,
                "duration": 0.2204545,
                "tempo": 120.0
            },
            {
                "start_time": 15.7113636,
                "end_time": 15.925,
                "pitch": 80,
                "velocity": 64,
                "duration": 0.2136364,
                "tempo": 120.0
            },
            {
                "start_time": 15.925,
                "end_time": 16.3568182,
                "pitch": 78,
                "velocity": 64,
                "duration": 0.4318182,
                "tempo": 120.0
            },
            {
                "start_time": 16.3568182,
                "end_time": 16.7636364,
                "pitch": 76,
                "velocity": 64,
                "duration": 0.4068182,
                "tempo": 120.0
            },
            {
                "start_time": 16.7636364,
                "end_time": 16.9704545,
                "pitch": 75,
                "velocity": 64,
                "duration": 0.2068182,
                "tempo": 120.0
            },
            {
                "start_time": 16.9704545,
                "end_time": 17.1931818,
                "pitch": 73,
                "velocity": 64,
                "duration": 0.2227273,
                "tempo": 120.0
            },
            {
                "start_time": 17.1931818,
                "end_time": 17.4159091,
                "pitch": 71,
                "velocity": 64,
                "duration": 0.2227273,
                "tempo": 120.0
            },
            {
                "start_time": 17.4159091,
                "end_time": 20.7977273,
                "pitch": 73,
                "velocity": 64,
                "duration": 3.3818182,
                "tempo": 120.0
            },
            {
                "start_time": 20.7977273,
                "end_time": 21.2318182,
                "pitch": 76,
                "velocity": 64,
                "duration": 0.4340909,
                "tempo": 120.0
            },
            {
                "start_time": 21.2318182,
                "end_time": 21.6659091,
                "pitch": 73,
                "velocity": 64,
                "duration": 0.4340909,
                "tempo": 120.0
            },
            {
                "start_time": 21.6659091,
                "end_time": 21.8681818,
                "pitch": 78,
                "velocity": 64,
                "duration": 0.2022727,
                "tempo": 120.0
            },
            {
                "start_time": 21.8681818,
                "end_time": 22.2977273,
                "pitch": 73,
                "velocity": 64,
                "duration": 0.4295455,
                "tempo": 120.0
            },
            {
                "start_time": 22.2977273,
                "end_time": 22.7295455,
                "pitch": 76,
                "velocity": 64,
                "duration": 0.4318182,
                "tempo": 120.0
            },
            {
                "start_time": 22.7295455,
                "end_time": 22.9295455,
                "pitch": 73,
                "velocity": 64,
                "duration": 0.2,
                "tempo": 120.0
            },
            {
                "start_time": 22.9295455,
                "end_time": 23.1431818,
                "pitch": 80,
                "velocity": 64,
                "duration": 0.2136364,
                "tempo": 120.0
            },
            {
                "start_time": 23.1431818,
                "end_time": 24.2090909,
                "pitch": 78,
                "velocity": 64,
                "duration": 1.0659091,
                "tempo": 120.0
            },
            {
                "start_time": 24.2090909,
                "end_time": 24.6340909,
                "pitch": 76,
                "velocity": 64,
                "duration": 0.425,
                "tempo": 120.0
            },
            {
                "start_time": 24.6340909,
                "end_time": 25.0522727,
                "pitch": 73,
                "velocity": 64,
                "duration": 0.4181818,
                "tempo": 120.0
            },
            {
                "start_time": 25.0522727,
                "end_time": 25.2659091,
                "pitch": 71,
                "velocity": 64,
                "duration": 0.2136364,
                "tempo": 120.0
            },
            {
                "start_time": 25.2659091,
                "end_time": 25.6977273,
                "pitch": 73,
                "velocity": 64,
                "duration": 0.4318182,
                "tempo": 120.0
            },
            {
                "start_time": 25.6977273,
                "end_time": 26.1159091,
                "pitch": 71,
                "velocity": 64,
                "duration": 0.4181818,
                "tempo": 120.0
            },
            {
                "start_time": 26.1159091,
                "end_time": 26.3318182,
                "pitch": 73,
                "velocity": 64,
                "duration": 0.2159091,
                "tempo": 120.0
            },
            {
                "start_time": 26.3318182,
                "end_time": 27.175,
                "pitch": 73,
                "velocity": 64,
                "duration": 0.8431818,
                "tempo": 120.0
            },
            {
                "start_time": 27.175,
                "end_time": 27.1909091,
                "pitch": 76,
                "velocity": 64,
                "duration": 0.0159091,
                "tempo": 120.0
            }
        ]
    }
}