{
    "mood": "angry",
    "instruments": {
        "Violin": [
            {
                "start_time": 0.0454545,
                "end_time": 0.2795455,
                "pitch": 76,
                "velocity": 64,
                "duration": 0.2340909,
                "tempo": 120.0
            },
            {
                "start_time": 0.2954545,
                "end_time": 0.5272727,
                "pitch": 76,
                "velocity": 64,
                "duration": 0.2318182,
                "tempo": 120.0
            },
            {
                "start_time": 0.5431818,
                "end_time": 0.7681818,
                "pitch": 76,
                "velocity": 64,
                "duration": 0.225,
                "tempo": 120.0
            },
            {
                "start_time": 0.7840909,
                "end_time": 1.0090909,
                "pitch": 76,
                "velocity": 64,
                "duration": 0.225,
                "tempo": 120.0
            },
            {
                "start_time": 1.025,
                "end_time": 1.2590909,
                "pitch": 76,
                "velocity": 64,
                "duration": 0.2340909,
                "tempo": 120.0
            },
            {
                "start_time": 1.275,
                "end_time": 1.5090909,
                "pitch": 76,
                "velocity": 64,
                "duration": 0.2340909,
                "tempo": 120.0
            },
            {
                "start_time": 1.525,
                "end_time": 1.7590909,
                "pitch": 76,
                "velocity": 64,
                "duration": 0.2340909,
                "tempo": 120.0
            },
            {
                "start_time": 1.775,
                "end_time": 2.0090909,
                "pitch": 76,
                "velocity": 64,
                "duration": 0.2340909,
                "tempo": 120.0
            },
            {
                "start_time": 2.025,
                "end_time": 2.2590909,
                "pitch": 76,
                "velocity": 64,
                "duration": 0.2340909,
                "tempo": 120.0
            },
            {
                "start_time": 2.275,
                "end_time": 2.5090909,
                "pitch": 76,
                "velocity": 64,
                "duration": 0.2340909,
                "tempo": 120.0
            },
            {
                "start_time": 2.525,
                "end_time": 2.7590909,
                "pitch": 76,
                "velocity": 64,
                "duration": 0.2340909,
                "tempo": 120.0
            },
            {
                "start_time": 2.775,
                "end_time": 3.0090909,
                "pitch": 76,
                "velocity": 64,
                "duration": 0.2340909,
                "tempo": 120.0
            },
            {
                "start_time": 3.025,
                "end_time": 3.2590909,
                "pitch": 76,
                "velocity": 64,
                "duration": 0.2340909,
                "tempo": 120.0
            },
            {
                "start_time": 3.275,
                "end_time": 3.5090909,
                "pitch": 76,
                "velocity": 64,
                "duration": 0.2340909,
                "tempo": 120.0
            },
            {
                "start_time": 3.525,
                "end_time": 3.7590909,
                "pitch": 76,
                "velocity": 64,
                "duration": 0.2340909,
                "tempo": 120.0
            },
            {
                "start_time": 3.775,
                "end_time": 4.0090909,
                "pitch": 76,
                "velocity": 64,
                "duration": 0.2340909,
                "tempo": 120.0
            },
            {
                "start_time": 4.025,
                "end_time": 4.2590909,
                "pitch": 76,
                "velocity": 64,
                "duration": 0.2340909,
                "tempo": 120.0
            },
            {
                "start_time": 4.275,
                "end_time": 4.5090909,
                "pitch": 76,
                "velocity": 64,
                "duration": 0.2340909,
                "tempo": 120.0
            },
            {
                "start_time": 4.525,
                "end_time": 4.7590909,
                "pitch": 76,
                "velocity": 64,
                "duration": 0.2340909,
                "tempo": 120.0
            },
            {
                "start_time": 4.775,
                "end_time": 5.0090909,
                "pitch": 76,
                "velocity": 64,
                "duration": 0.2340909,
                "tempo": 120.0
            },
            {
                "start_time": 5.025,
                "end_time": 5.2590909,
                "pitch": 76,
                "velocity": 64,
                "duration": 0.2340909,
                "tempo": 120.0
            },
            {
                "start_time": 5.275,
                "end_time": 5.5090909,
                "pitch": 76,
                "velocity": 64,
                "duration": 0.2340909,
                "tempo": 120.0
            },
            {
                "start_time": 5.525,
                "end_time": 5.7590909,
                "pitch": 76,
                "velocity": 64,
                "duration": 0.2340909,
                "tempo": 120.0
            },
            {
                "start_time": 5.775,
                "end_time": 6.0090909,
                "pitch": 76,
                "velocity": 64,
                "duration": 0.2340909,
                "tempo": 120.0
            },
            {
                "start_time": 6.025,
                "end_time": 6.2590909,
                "pitch": 76,
                "velocity": 64,
                "duration": 0.2340909,
                "tempo": 120.0
            },
            {
                "start_time": 6.275,
                "end_time": 6.5090909,
                "pitch": 76,
                "velocity": 64,
                "duration": 0.2340909,
                "tempo": 120.0
            },
            {
                "start_time": 6.525,
                "end_time": 6.7590909,
                "pitch": 76,
                "velocity": 64,
                "duration": 0.2340909,
                "tempo": 120.0
            },
            {
                "start_time": 6.775,
                "end_time": 7.0090909,
                "pitch": 76,
                "velocity": 64,
                "duration": 0.2340909,
                "tempo": 120.0
            },
            {
                "start_time": 7.025,
                "end_time": 7.2590909,
                "pitch": 76,
                "velocity": 64,
                "duration": 0.2340909,
                "tempo": 120.0
            },
            {
                "start_time": 7.275,
                "end_time": 7.5090909,
                "pitch": 76,
                "velocity": 64,
                "duration": 0.2340909,
                "tempo": 120.0
            },
            {
                "start_time": 7.525,
                "end_time": 7.7590909,
                "pitch": 76,
                "velocity": 64,
                "duration": 0.2340909,
                "tempo": 120.0
            },
            {
                "start_time": 7.775,
                "end_time": 8.0090909,
                "pitch": 76,
                "velocity": 64,
                "duration": 0.2340909,
                "tempo": 120.0
            },
            {
                "start_time": 8.025,
                "end_time": 8.2590909,
                "pitch": 76,
                "velocity": 64,
                "duration": 0.2340909,
                "tempo": 120.0
            },
            {
                "start_time": 8.275,
                "end_time": 8.5090909,
                "pitch": 76,
                "velocity": 64,
                "duration": 0.2340909,
                "tempo": 120.0
            },
            {
                "start_time": 8.525,
                "end_time": 8.7590909,
                "pitch": 76,
                "velocity": 64,
                "duration": 0.2340909,
                "tempo": 120.0
            },
            {
                "start_time": 8.775,
                "end_time": 9.0090909,
                "pitch": 76,
                "velocity": 64,
                "duration": 0.2340909,
                "tempo": 120.0
            },
            {
                "start_time": 9.025,
                "end_time": 9.2590909,
                "pitch": 76,
                "velocity": 64,
                "duration": 0.2340909,
                "tempo": 120.0
            },
            {
                "start_time": 9.275,
                "end_time": 9.5090909,
                "pitch": 76,
                "velocity": 64,
                "duration": 0.2340909,
                "tempo": 120.0
            },
            {
                "start_time": 9.525,
                "end_time": 9.7590909,
                "pitch": 76,
                "velocity": 64,
                "duration": 0.2340909,
                "tempo": 120.0
            },
            {
                "start_time": 9.775,
                "end_time": 10.0090909,
                "pitch": 76,
                "velocity": 64,
                "duration": 0.2340909,
                "tempo": 120.0
            },
            {
                "start_time": 10.025,
                "end_time": 10.2545455,
                "pitch": 76,
                "velocity": 64,
                "duration": 0.2295455,
                "tempo": 120.0
            },
            {
                "start_time": 10.2704545,
                "end_time": 10.5,
                "pitch": 76,
                "velocity": 64,
                "duration": 0.2295455,
                "tempo": 120.0
            },
            {
                "start_time": 10.5181818,
                "end_time": 10.7568182,
                "pitch": 76,
                "velocity": 64,
                "duration": 0.2386364,
                "tempo": 120.0
            },
            {
                "start_time": 10.775,
                "end_time": 11.0136364,
                "pitch": 76,
                "velocity": 64,
                "duration": 0.2386364,
                "tempo": 120.0
            },
            {
                "start_time": 11.0295455,
                "end_time": 11.2636364,
                "pitch": 76,
                "velocity": 64,
                "duration": 0.2340909,
                "tempo": 120.0
            },
            {
                "start_time": 11.2795455,
                "end_time": 11.5136364,
                "pitch": 76,
                "velocity": 64,
                "duration": 0.2340909,
                "tempo": 120.0
            },
            {
                "start_time": 11.5295455,
                "end_time": 11.7636364,
                "pitch": 76,
                "velocity": 64,
                "duration": 0.2340909,
                "tempo": 120.0
            },
            {
                "start_time": 11.7795455,
                "end_time": 12.0113636,
                "pitch": 76,
                "velocity": 64,
                "duration": 0.2318182,
                "tempo": 120.0
            },
            {
                "start_time": 12.0295455,
                "end_time": 12.2590909,
                "pitch": 76,
                "velocity": 64,
                "duration": 0.2295455,
                "tempo": 120.0
            },
            {
                "start_time": 12.275,
                "end_time": 12.5045455,
                "pitch": 76,
                "velocity": 64,
                "duration": 0.2295455,
                "tempo": 120.0
            },
            {
                "start_time": 12.5227273,
                "end_time": 12.7613636,
                "pitch": 76,
                "velocity": 64,
                "duration": 0.2386364,
                "tempo": 120.0
            },
            {
                "start_time": 12.7795455,
                "end_time": 13.0181818,
                "pitch": 75,
                "velocity": 64,
                "duration": 0.2386364,
                "tempo": 120.0
            },
            {
                "start_time": 13.0340909,
                "end_time": 13.2681818,
                "pitch": 75,
                "velocity": 64,
                "duration": 0.2340909,
                "tempo": 120.0
            },
            {
                "start_time": 13.2840909,
                "end_time": 13.5181818,
                "pitch": 75,
                "velocity": 64,
                "duration": 0.2340909,
                "tempo": 120.0
            },
            {
                "start_time": 13.5340909,
                "end_time": 13.7681818,
                "pitch": 75,
                "velocity": 64,
                "duration": 0.2340909,
                "tempo": 120.0
            },
            {
                "start_time": 13.7840909,
                "end_time": 15.5954545,
                "pitch": 74,
                "velocity": 64,
                "duration": 1.8113636,
                "tempo": 120.0
            }
        ],
        "Electric Guitar (clean)": [
            {
                "start_time": 0.0136364,
                "end_time": 0.2295455,
                "pitch": 33,
                "velocity": 80,
                "duration": 0.2159091,
                "tempo": 120.0
            },
            {
                "start_time": 0.2454545,
                "end_time": 0.4795455,
                "pitch": 33,
                "velocity": 80,
                "duration": 0.2340909,
                "tempo": 120.0
            },
            {
                "start_time": 0.4954545,
                "end_time": 0.7204545,
                "pitch": 33,
                "velocity": 80,
                "duration": 0.225,
                "tempo": 120.0
            },
            {
                "start_time": 0.7363636,
                "end_time": 0.9590909,
                "pitch": 33,
                "velocity": 80,
                "duration": 0.2227273,
                "tempo": 120.0
            },
            {
                "start_time": 0.975,
                "end_time": 1.2090909,
                "pitch": 33,
                "velocity": 80,
                "duration": 0.2340909,
                "tempo": 120.0
            },
            {
                "start_time": 1.225,
                "end_time": 1.4590909,
                "pitch": 33,
                "velocity": 80,
                "duration": 0.2340909,
                "tempo": 120.0
            },
            {
                "start_time": 1.475,
                "end_time": 1.7090909,
                "pitch": 33,
                "velocity": 80,
                "duration": 0.2340909,
                "tempo": 120.0
            },
            {
                "start_time": 1.725,
                "end_time": 1.9590909,
                "pitch": 33,
                "velocity": 80,
                "duration": 0.2340909,
                "tempo": 120.0
            },
            {
                "start_time": 1.975,
                "end_time": 2.2090909,
                "pitch": 33,
                "velocity": 80,
                "duration": 0.2340909,
                "tempo": 120.0
            },
            {
                "start_time": 2.225,
                "end_time": 2.4590909,
                "pitch": 43,
                "velocity": 80,
                "duration": 0.2340909,
                "tempo": 120.0
            },
            {
                "start_time": 2.475,
                "end_time": 2.5909091,
                "pitch": 33,
                "velocity": 80,
                "duration": 0.1159091,
                "tempo": 120.0
            },
            {
                "start_time": 2.6090909,
                "end_time": 2.8409091,
                "pitch": 41,
                "velocity": 80,
                "duration": 0.2318182,
                "tempo": 120.0
            },
            {
                "start_time": 2.8590909,
                "end_time": 2.9590909,
                "pitch": 33,
                "velocity": 80,
                "duration": 0.1,
                "tempo": 120.0
            },
            {
                "start_time": 2.975,
                "end_time": 3.2090909,
                "pitch": 40,
                "velocity": 80,
                "duration": 0.2340909,
                "tempo": 120.0
            },
            {
                "start_time": 3.225,
                "end_time": 3.4590909,
                "pitch": 35,
                "velocity": 80,
                "duration": 0.2340909,
                "tempo": 120.0
            },
            {
                "start_time": 3.475,
                "end_time": 3.7090909,
                "pitch": 41,
                "velocity": 80,
                "duration": 0.2340909,
                "tempo": 120.0
            },
            {
                "start_time": 3.725,
                "end_time": 3.9590909,
                "pitch": 33,
                "velocity": 80,
                "duration": 0.2340909,
                "tempo": 120.0
            },
            {
                "start_time": 3.975,
                "end_time": 4.2090909,
                "pitch": 33,
                "velocity": 80,
                "duration": 0.2340909,
                "tempo": 120.0
            },
            {
                "start_time": 4.225,
                "end_time": 4.4590909,
                "pitch": 33,
                "velocity": 80,
                "duration": 0.2340909,
                "tempo": 120.0
            },
            {
                "start_time": 4.475,
                "end_time": 4.7090909,
                "pitch": 33,
                "velocity": 80,
                "duration": 0.2340909,
                "tempo": 120.0
            },
            {
                "start_time": 4.725,
                "end_time": 4.9590909,
                "pitch": 33,
                "velocity": 80,
                "duration": 0.2340909,
                "tempo": 120.0
            },
            {
                "start_time": 4.975,
                "end_time": 5.2090909,
                "pitch": 33,
                "velocity": 80,
                "duration": 0.2340909,
                "tempo": 120.0
            },
            {
                "start_time": 5.225,
                "end_time": 5.4590909,
                "pitch": 33,
                "velocity": 80,
                "duration": 0.2340909,
                "tempo": 120.0
            },
            {
                "start_time": 5.475,
                "end_time": 5.7090909,
                "pitch": 33,
                "velocity": 80,
                "duration": 0.2340909,
                "tempo": 120.0
            },
            {
                "start_time": 5.725,
                "end_time": 5.9590909,
                "pitch": 33,
                "velocity": 80,
                "duration": 0.2340909,
                "tempo": 120.0
            },
            {
                "start_time": 5.975,
                "end_time": 6.2090909,
                "pitch": 33,
                "velocity": 80,
                "duration": 0.2340909,
                "tempo": 120.0
            },
            {
                "start_time": 6.225,
                "end_time": 6.4590909,
                "pitch": 33,
                "velocity": 80,
                "duration": 0.2340909,
                "tempo": 120.0
            },
            {
                "start_time": 6.475,
                "end_time": 6.7090909,
                "pitch": 33,
                "velocity": 80,
                "duration": 0.2340909,
                "tempo": 120.0
            },
            {
                "start_time": 6.725,
                "end_time": 6.9590909,
                "pitch": 33,
                "velocity": 80,
                "duration": 0.2340909,
                "tempo": 120.0
            },
            {
                "start_time": 6.975,
                "end_time": 7.2090909,
                "pitch": 33,
                "velocity": 80,
                "duration": 0.2340909,
                "tempo": 120.0
            },
            {
                "start_time": 7.225,
                "end_time": 7.4590909,
                "pitch": 33,
                "velocity": 80,
                "duration": 0.2340909,
                "tempo": 120.0
            },
            {
                "start_time": 7.475,
                "end_time": 7.7090909,
                "pitch": 33,
                "velocity": 80,
                "duration": 0.2340909,
                "tempo": 120.0
            },
            {
                "start_time": 7.725,
                "end_time": 7.9590909,
                "pitch": 33,
                "velocity": 80,
                "duration": 0.2340909,
                "tempo": 120.0
            },
            {
                "start_time": 7.975,
                "end_time": 8.2090909,
                "pitch": 29,
                "velocity": 80,
                "duration": 0.2340909,
                "tempo": 120.0
            },
            {
                "start_time": 8.225,
                "end_time": 8.4590909,
                "pitch": 33,
                "velocity": 80,
                "duration": 0.2340909,
                "tempo": 120.0
            },
            {
                "start_time": 8.475,
                "end_time": 8.7090909,
                "pitch": 40,
                "velocity": 80,
                "duration": 0.2340909,
                "tempo": 120.0
            },
            {
                "start_time": 8.725,
                "end_time": 9.9590909,
                "pitch": 31,
                "velocity": 80,
                "duration": 1.2340909,
                "tempo": 120.0
            },
            {
                "start_time": 9.975,
                "end_time": 10.7068182,
                "pitch": 31,
                "velocity": 80,
                "duration": 0.7318182,
                "tempo": 120.0
            },
            {
                "start_time": 10.7227273,
                "end_time": 11.9636364,
                "pitch": 33,
                "velocity": 80,
                "duration": 1.2409091,
                "tempo": 120.0
            },
            {
                "start_time": 11.9795455,
                "end_time": 12.2090909,
                "pitch": 33,
                "velocity": 80,
                "duration": 0.2295455,
                "tempo": 120.0
            },
            {
                "start_time": 12.225,
                "end_time": 12.4545455,
                "pitch": 34,
                "velocity": 80,
                "duration": 0.2295455,
                "tempo": 120.0
            },
            {
                "start_time": 12.4704545,
                "end_time": 12.7113636,
                "pitch": 40,
                "velocity": 80,
                "duration": 0.2409091,
                "tempo": 120.0
            },
            {
                "start_time": 12.7272727,
                "end_time": 13.7181818,
                "pitch": 30,
                "velocity": 80,
                "duration": 0.9909091,
                "tempo": 120.0
            },
            {
                "start_time": 13.7340909,
                "end_time": 13.9681818,
                "pitch": 29,
                "velocity": 80,
                "duration": 0.2340909,
                "tempo": 120.0
            }
        ],
        "Lead 2 (sawtooth)": [
            {
                "start_time": 0.0454545,
                "end_time": 0.2795455,
                "pitch": 72,
                "velocity": 51,
                "duration": 0.2340909,
                "tempo": 120.0
            },
            {
                "start_time": 0.2954545,
                "end_time": 0.5272727,
                "pitch": 72,
                "velocity": 51,
                "duration": 0.2318182,
                "tempo": 120.0
            },
            {
                "start_time": 0.5431818,
                "end_time": 0.7681818,
                "pitch": 72,
                "velocity": 51,
                "duration": 0.225,
                "tempo": 120.0
            },
            {
                "start_time": 0.7840909,
                "end_time": 1.0090909,
                "pitch": 72,
                "velocity": 51,
                "duration": 0.225,
                "tempo": 120.0
            },
            {
                "start_time": 1.025,
                "end_time": 1.2590909,
                "pitch": 72,
                "velocity": 51,
                "duration": 0.2340909,
                "tempo": 120.0
            },
            {
                "start_time": 1.275,
                "end_time": 1.5090909,
                "pitch": 72,
                "velocity": 51,
                "duration": 0.2340909,
                "tempo": 120.0
            },
            {
                "start_time": 1.525,
                "end_time": 1.7590909,
                "pitch": 72,
                "velocity": 51,
                "duration": 0.2340909,
                "tempo": 120.0
            },
            {
                "start_time": 1.775,
                "end_time": 2.0090909,
                "pitch": 72,
                "velocity": 51,
                "duration": 0.2340909,
                "tempo": 120.0
            },
            {
                "start_time": 2.025,
                "end_time": 2.2590909,
                "pitch": 72,
                "velocity": 51,
                "duration": 0.2340909,
                "tempo": 120.0
            },
            {
                "start_time": 2.275,
                "end_time": 2.5090909,
                "pitch": 72,
                "velocity": 51,
                "duration": 0.2340909,
                "tempo": 120.0
            },
            {
                "start_time": 2.525,
                "end_time": 2.7590909,
                "pitch": 72,
                "velocity": 51,
                "duration": 0.2340909,
                "tempo": 120.0
            },
            {
                "start_time": 2.775,
                "end_time": 3.0090909,
                "pitch": 72,
                "velocity": 51,
                "duration": 0.2340909,
                "tempo": 120.0
            },
            {
                "start_time": 3.025,
                "end_time": 3.2590909,
                "pitch": 72,
                "velocity": 51,
                "duration": 0.2340909,
                "tempo": 120.0
            },
            {
                "start_time": 3.275,
                "end_time": 3.5090909,
                "pitch": 72,
                "velocity": 51,
                "duration": 0.2340909,
                "tempo": 120.0
            },
            {
                "start_time": 3.525,
                "end_time": 3.7590909,
                "pitch": 72,
                "velocity": 51,
                "duration": 0.2340909,
                "tempo": 120.0
            },
            {
                "start_time": 3.775,
                "end_time": 4.0090909,
                "pitch": 72,
                "velocity": 51,
                "duration": 0.2340909,
                "tempo": 120.0
            },
            {
                "start_time": 4.025,
                "end_time": 4.2590909,
                "pitch": 72,
                "velocity": 51,
                "duration": 0.2340909,
                "tempo": 120.0
            },
            {
                "start_time": 4.275,
                "end_time": 4.5090909,
                "pitch": 72,
                "velocity": 51,
                "duration": 0.2340909,
                "tempo": 120.0
            },
            {
                "start_time": 4.525,
                "end_time": 4.7590909,
                "pitch": 72,
                "velocity": 51,
                "duration": 0.2340909,
                "tempo": 120.0
            },
            {
                "start_time": 4.775,
                "end_time": 5.0090909,
                "pitch": 72,
                "velocity": 51,
                "duration": 0.2340909,
                "tempo": 120.0
            },
            {
                "start_time": 5.025,
                "end_time": 5.2590909,
                "pitch": 72,
                "velocity": 51,
                "duration": 0.2340909,
                "tempo": 120.0
            },
            {
                "start_time": 5.275,
                "end_time": 5.5090909,
                "pitch": 72,
                "velocity": 51,
                "duration": 0.2340909,
                "tempo": 120.0
            },
            {
                "start_time": 5.525,
                "end_time": 5.7590909,
                "pitch": 72,
                "velocity": 51,
                "duration": 0.2340909,
                "tempo": 120.0
            },
            {
                "start_time": 5.775,
                "end_time": 6.0090909,
                "pitch": 72,
                "velocity": 51,
                "duration": 0.2340909,
                "tempo": 120.0
            },
            {
                "start_time": 6.025,
                "end_time": 6.2590909,
                "pitch": 72,
                "velocity": 51,
                "duration": 0.2340909,
                "tempo": 120.0
            },
            {
                "start_time": 6.275,
                "end_time": 6.5090909,
                "pitch": 72,
                "velocity": 51,
                "duration": 0.2340909,
                "tempo": 120.0
            },
            {
                "start_time": 6.525,
                "end_time": 6.7590909,
                "pitch": 72,
                "velocity": 51,
                "duration": 0.2340909,
                "tempo": 120.0
            },
            {
                "start_time": 6.775,
                "end_time": 7.0090909,
                "pitch": 72,
                "velocity": 51,
                "duration": 0.2340909,
                "tempo": 120.0
            },
            {
                "start_time": 7.025,
                "end_time": 7.2590909,
                "pitch": 72,
                "velocity": 51,
                "duration": 0.2340909,
                "tempo": 120.0
            },
            {
                "start_time": 7.275,
                "end_time": 7.5090909,
                "pitch": 72,
                "velocity": 51,
                "duration": 0.2340909,
                "tempo": 120.0
            },
            {
                "start_time": 7.525,
                "end_time": 7.7590909,
                "pitch": 72,
                "velocity": 51,
                "duration": 0.2340909,
                "tempo": 120.0
            },
            {
                "start_time": 7.775,
                "end_time": 8.0090909,
                "pitch": 72,
                "velocity": 51,
                "duration": 0.2340909,
                "tempo": 120.0
            },
            {
                "start_time": 8.025,
                "end_time": 8.2590909,
                "pitch": 69,
                "velocity": 51,
                "duration": 0.2340909,
                "tempo": 120.0
            },
            {
                "start_time": 8.275,
                "end_time": 8.5090909,
                "pitch": 69,
                "velocity": 51,
                "duration": 0.2340909,
                "tempo": 120.0
            },
            {
                "start_time": 8.525,
                "end_time": 8.7590909,
                "pitch": 69,
                "velocity": 51,
                "duration": 0.2340909,
                "tempo": 120.0
            },
            {
                "start_time": 8.775,
                "end_time": 9.0090909,
                "pitch": 69,
                "velocity": 51,
                "duration": 0.2340909,
                "tempo": 120.0
            },
            {
                "start_time": 9.025,
                "end_time": 9.2590909,
                "pitch": 71,
                "velocity": 51,
                "duration": 0.2340909,
                "tempo": 120.0
            },
            {
                "start_time": 9.275,
                "end_time": 9.5090909,
                "pitch": 71,
                "velocity": 51,
                "duration": 0.2340909,
                "tempo": 120.0
            },
            {
                "start_time": 9.525,
                "end_time": 9.7590909,
                "pitch": 71,
                "velocity": 51,
                "duration": 0.2340909,
                "tempo": 120.0
            },
            {
                "start_time": 9.775,
                "end_time": 10.0090909,
                "pitch": 71,
                "velocity": 51,
                "duration": 0.2340909,
                "tempo": 120.0
            },
            {
                "start_time": 10.025,
                "end_time": 10.2545455,
                "pitch": 71,
                "velocity": 51,
                "duration": 0.2295455,
                "tempo": 120.0
            },
            {
                "start_time": 10.2704545,
                "end_time": 10.5,
                "pitch": 71,
                "velocity": 51,
                "duration": 0.2295455,
                "tempo": 120.0
            },
            {
                "start_time": 10.5181818,
                "end_time": 10.7068182,
                "pitch": 71,
                "velocity": 51,
                "duration": 0.1886364,
                "tempo": 120.0
            },
            {
                "start_time": 10.7227273,
                "end_time": 11.0136364,
                "pitch": 72,
                "velocity": 51,
                "duration": 0.2909091,
                "tempo": 120.0
            },
            {
                "start_time": 11.0295455,
                "end_time": 11.2636364,
                "pitch": 72,
                "velocity": 51,
                "duration": 0.2340909,
                "tempo": 120.0
            },
            {
                "start_time": 11.2795455,
                "end_time": 11.5136364,
                "pitch": 72,
                "velocity": 51,
                "duration": 0.2340909,
                "tempo": 120.0
            },
            {
                "start_time": 11.5295455,
                "end_time": 11.7636364,
                "pitch": 72,
                "velocity": 51,
                "duration": 0.2340909,
                "tempo": 120.0
            },
            {
                "start_time": 11.7795455,
                "end_time": 12.0113636,
                "pitch": 72,
                "velocity": 51,
                "duration": 0.2318182,
                "tempo": 120.0
            },
            {
                "start_time": 12.0295455,
                "end_time": 12.2590909,
                "pitch": 72,
                "velocity": 51,
                "duration": 0.2295455,
                "tempo": 120.0
            },
            {
                "start_time": 12.275,
                "end_time": 12.5045455,
                "pitch": 72,
                "velocity": 51,
                "duration": 0.2295455,
                "tempo": 120.0
            },
            {
                "start_time": 12.5227273,
                "end_time": 12.7613636,
                "pitch": 72,
                "velocity": 51,
                "duration": 0.2386364,
                "tempo": 120.0
            },
            {
                "start_time": 12.7795455,
                "end_time": 13.0181818,
                "pitch": 69,
                "velocity": 51,
                "duration": 0.2386364,
                "tempo": 120.0
            },
            {
                "start_time": 13.0340909,
                "end_time": 13.2681818,
                "pitch": 66,
                "velocity": 51,
                "duration": 0.2340909,
                "tempo": 120.0
            },
            {
                "start_time": 13.2840909,
                "end_time": 13.5181818,
                "pitch": 66,
                "velocity": 51,
                "duration": 0.2340909,
                "tempo": 120.0
            },
            {
                "start_time": 13.5340909,
                "end_time": 13.7681818,
                "pitch": 66,
                "velocity": 51,
                "duration": 0.2340909,
                "tempo": 120.0
            },
            {
                "start_time": 13.7840909,
                "end_time": 15.5954545,
                "pitch": 65,
                "velocity": 51,
                "duration": 1.8113636,
                "tempo": 120.0
            }
        ],
        "Acoustic Bass": [
            {
                "start_time": 0.0454545,
                "end_time": 0.2795455,
                "pitch": 45,
                "velocity": 51,
                "duration": 0.2340909,
                "tempo": 120.0
            },
            {
                "start_time": 0.2954545,
                "end_time": 0.5272727,
                "pitch": 45,
                "velocity": 51,
                "duration": 0.2318182,
                "tempo": 120.0
            },
            {
                "start_time": 0.5431818,
                "end_time": 0.7681818,
                "pitch": 45,
                "velocity": 51,
                "duration": 0.225,
                "tempo": 120.0
            },
            {
                "start_time": 0.7840909,
                "end_time": 1.0090909,
                "pitch": 45,
                "velocity": 51,
                "duration": 0.225,
                "tempo": 120.0
            },
            {
                "start_time": 1.025,
                "end_time": 1.2590909,
                "pitch": 45,
                "velocity": 51,
                "duration": 0.2340909,
                "tempo": 120.0
            },
            {
                "start_time": 1.275,
                "end_time": 1.5090909,
                "pitch": 45,
                "velocity": 51,
                "duration": 0.2340909,
                "tempo": 120.0
            },
            {
                "start_time": 1.525,
                "end_time": 1.7590909,
                "pitch": 45,
                "velocity": 51,
                "duration": 0.2340909,
                "tempo": 120.0
            },
            {
                "start_time": 1.775,
                "end_time": 2.0090909,
                "pitch": 45,
                "velocity": 51,
                "duration": 0.2340909,
                "tempo": 120.0
            },
            {
                "start_time": 2.025,
                "end_time": 2.2590909,
                "pitch": 45,
                "velocity": 51,
                "duration": 0.2340909,
                "tempo": 120.0
            },
            {
                "start_time": 2.275,
                "end_time": 2.5090909,
                "pitch": 55,
                "velocity": 51,
                "duration": 0.2340909,
                "tempo": 120.0
            },
            {
                "start_time": 2.525,
                "end_time": 2.625,
                "pitch": 45,
                "velocity": 51,
                "duration": 0.1,
                "tempo": 120.0
            },
            {
                "start_time": 2.6409091,
                "end_time": 2.875,
                "pitch": 53,
                "velocity": 51,
                "duration": 0.2340909,
                "tempo": 120.0
            },
            {
                "start_time": 2.8909091,
                "end_time": 3.0090909,
                "pitch": 45,
                "velocity": 51,
                "duration": 0.1181818,
                "tempo": 120.0
            },
            {
                "start_time": 3.025,
                "end_time": 3.2590909,
                "pitch": 52,
                "velocity": 51,
                "duration": 0.2340909,
                "tempo": 120.0
            },
            {
                "start_time": 3.275,
                "end_time": 3.5090909,
                "pitch": 47,
                "velocity": 51,
                "duration": 0.2340909,
                "tempo": 120.0
            },
            {
                "start_time": 3.525,
                "end_time": 3.7590909,
                "pitch": 53,
                "velocity": 51,
                "duration": 0.2340909,
                "tempo": 120.0
            },
            {
                "start_time": 3.775,
                "end_time": 4.0090909,
                "pitch": 45,
                "velocity": 51,
                "duration": 0.2340909,
                "tempo": 120.0
            },
            {
                "start_time": 4.025,
                "end_time": 4.2590909,
                "pitch": 45,
                "velocity": 51,
                "duration": 0.2340909,
                "tempo": 120.0
            },
            {
                "start_time": 4.275,
                "end_time": 4.5090909,
                "pitch": 45,
                "velocity": 51,
                "duration": 0.2340909,
                "tempo": 120.0
            },
            {
                "start_time": 4.525,
                "end_time": 4.7590909,
                "pitch": 45,
                "velocity": 51,
                "duration": 0.2340909,
                "tempo": 120.0
            },
            {
                "start_time": 4.775,
                "end_time": 5.0090909,
                "pitch": 45,
                "velocity": 51,
                "duration": 0.2340909,
                "tempo": 120.0
            },
            {
                "start_time": 5.025,
                "end_time": 5.2590909,
                "pitch": 45,
                "velocity": 51,
                "duration": 0.2340909,
                "tempo": 120.0
            },
            {
                "start_time": 5.275,
                "end_time": 5.5090909,
                "pitch": 45,
                "velocity": 51,
                "duration": 0.2340909,
                "tempo": 120.0
            },
            {
                "start_time": 5.525,
                "end_time": 5.7590909,
                "pitch": 45,
                "velocity": 51,
                "duration": 0.2340909,
                "tempo": 120.0
            },
            {
                "start_time": 5.775,
                "end_time": 6.0090909,
                "pitch": 45,
                "velocity": 51,
                "duration": 0.2340909,
                "tempo": 120.0
            },
            {
                "start_time": 6.025,
                "end_time": 6.2590909,
                "pitch": 45,
                "velocity": 51,
                "duration": 0.2340909,
                "tempo": 120.0
            },
            {
                "start_time": 6.275,
                "end_time": 6.5090909,
                "pitch": 45,
                "velocity": 51,
                "duration": 0.2340909,
                "tempo": 120.0
            },
            {
                "start_time": 6.525,
                "end_time": 6.7590909,
                "pitch": 45,
                "velocity": 51,
                "duration": 0.2340909,
                "tempo": 120.0
            },
            {
                "start_time": 6.775,
                "end_time": 7.0090909,
                "pitch": 45,
                "velocity": 51,
                "duration": 0.2340909,
                "tempo": 120.0
            },
            {
                "start_time": 7.025,
                "end_time": 7.2590909,
                "pitch": 45,
                "velocity": 51,
                "duration": 0.2340909,
                "tempo": 120.0
            },
            {
                "start_time": 7.275,
                "end_time": 7.5090909,
                "pitch": 45,
                "velocity": 51,
                "duration": 0.2340909,
                "tempo": 120.0
            },
            {
                "start_time": 7.525,
                "end_time": 7.7590909,
                "pitch": 45,
                "velocity": 51,
                "duration": 0.2340909,
                "tempo": 120.0
            },
            {
                "start_time": 7.775,
                "end_time": 8.0090909,
                "pitch": 45,
                "velocity": 51,
                "duration": 0.2340909,
                "tempo": 120.0
            },
            {
                "start_time": 8.025,
                "end_time": 8.2590909,
                "pitch": 41,
                "velocity": 51,
                "duration": 0.2340909,
                "tempo": 120.0
            },
            {
                "start_time": 8.275,
                "end_time": 8.5090909,
                "pitch": 45,
                "velocity": 51,
                "duration": 0.2340909,
                "tempo": 120.0
            },
            {
                "start_time": 8.525,
                "end_time": 8.7590909,
                "pitch": 52,
                "velocity": 51,
                "duration": 0.2340909,
                "tempo": 120.0
            },
            {
                "start_time": 8.775,
                "end_time": 10.0090909,
                "pitch": 43,
                "velocity": 51,
                "duration": 1.2340909,
                "tempo": 120.0
            },
            {
                "start_time": 10.025,
                "end_time": 10.7568182,
                "pitch": 43,
                "velocity": 51,
                "duration": 0.7318182,
                "tempo": 120.0
            },
            {
                "start_time": 10.775,
                "end_time": 12.0113636,
                "pitch": 45,
                "velocity": 51,
                "duration": 1.2363636,
                "tempo": 120.0
            },
            {
                "start_time": 12.0295455,
                "end_time": 12.2590909,
                "pitch": 45,
                "velocity": 51,
                "duration": 0.2295455,
                "tempo": 120.0
            },
            {
                "start_time": 12.275,
                "end_time": 12.5045455,
                "pitch": 46,
                "velocity": 51,
                "duration": 0.2295455,
                "tempo": 120.0
            },
            {
                "start_time": 12.5227273,
                "end_time": 12.7613636,
                "pitch": 52,
                "velocity": 51,
                "duration": 0.2386364,
                "tempo": 120.0
            },
            {
                "start_time": 12.7795455,
                "end_time": 13.7681818,
                "pitch": 42,
                "velocity": 51,
                "duration": 0.9886364,
                "tempo": 120.0
            },
            {
                "start_time": 13.7840909,
                "end_time": 14.0181818,
                "pitch": 41,
                "velocity": 51,
                "duration": 0.2340909,
                "tempo": 120.0
            }
        ]
    }
}