{
    "mood": "angry",
    "instruments": {
        "Electric Guitar (clean)": [
            {
                "start_time": 0.0113636,
                "end_time": 1.0886364,
                "pitch": 37,
                "velocity": 64,
                "duration": 1.0772727,
                "tempo": 120.0
            },
            {
                "start_time": 1.1045455,
                "end_time": 1.1886364,
                "pitch": 36,
                "velocity": 64,
                "duration": 0.0840909,
                "tempo": 120.0
            },
            {
                "start_time": 1.2045455,
                "end_time": 1.2909091,
                "pitch": 37,
                "velocity": 64,
                "duration": 0.0863636,
                "tempo": 120.0
            },
            {
                "start_time": 1.3090909,
                "end_time": 1.3931818,
                "pitch": 39,
                "velocity": 64,
                "duration": 0.0840909,
                "tempo": 120.0
            },
            {
                "start_time": 1.4113636,
                "end_time": 1.4954545,
                "pitch": 41,
                "velocity": 64,
                "duration": 0.0840909,
                "tempo": 120.0
            },
            {
                "start_time": 1.5136364,
                "end_time": 1.6,
                "pitch": 42,
                "velocity": 64,
                "duration": 0.0863636,
                "tempo": 120.0
            },
            {
                "start_time": 1.6159091,
                "end_time": 2.6931818,
                "pitch": 40,
                "velocity": 64,
                "duration": 1.0772727,
                "tempo": 120.0
            },
            {
                "start_time": 2.7113636,
                "end_time": 2.7954545,
                "pitch": 39,
                "velocity": 64,
                "duration": 0.0840909,
                "tempo": 120.0
            },
            {
                "start_time": 2.8113636,
                "end_time": 2.8977273,
                "pitch": 40,
                "velocity": 64,
                "duration": 0.0863636,
                "tempo": 120.0
            },
            {
                "start_time": 2.9136364,
                "end_time": 3.0,
                "pitch": 42,
                "velocity": 64,
                "duration": 0.0863636,
                "tempo": 120.0
            },
            {
                "start_time": 3.0159091,
                "end_time": 3.1022727,
                "pitch": 41,
                "velocity": 64,
                "duration": 0.0863636,
                "tempo": 120.0
            },
            {
                "start_time": 3.1181818,
                "end_time": 3.2045455,
                "pitch": 39,
                "velocity": 64,
                "duration": 0.0863636,
                "tempo": 120.0
            },
            {
                "start_time": 3.2204545,
                "end_time": 4.2977273,
                "pitch": 37,
                "velocity": 64,
                "duration": 1.0772727,
                "tempo": 120.0
            },
            {
                "start_time": 4.3136364,
                "end_time": 4.3977273,
                "pitch": 36,
                "velocity": 64,
                "duration": 0.0840909,
                "tempo": 120.0
            },
            {
                "start_time": 4.4136364,
                "end_time": 4.5,
                "pitch": 37,
                "velocity": 64,
                "duration": 0.0863636,
                "tempo": 120.0
            },
            {
                "start_time": 4.5159091,
                "end_time": 4.6022727,
                "pitch": 39,
                "velocity": 64,
                "duration": 0.0863636,
                "tempo": 120.0
            },
            {
                "start_time": 4.6204545,
                "end_time": 4.7045455,
                "pitch": 41,
                "velocity": 64,
                "duration": 0.0840909,
                "tempo": 120.0
            },
            {
                "start_time": 4.7227273,
                "end_time": 4.8090909,
                "pitch": 42,
                "velocity": 64,
                "duration": 0.0863636,
                "tempo": 120.0
            },
            {
                "start_time": 4.825,
                "end_time": 5.9045455,
                "pitch": 40,
                "velocity": 64,
                "duration": 1.0795455,
                "tempo": 120.0
            },
            {
                "start_time": 5.9227273,
                "end_time": 6.0068182,
                "pitch": 39,
                "velocity": 64,
                "duration": 0.0840909,
                "tempo": 120.0
            },
            {
                "start_time": 6.0227273,
                "end_time": 6.1090909,
                "pitch": 40,
                "velocity": 64,
                "duration": 0.0863636,
                "tempo": 120.0
            },
            {
                "start_time": 6.125,
                "end_time": 6.2113636,
                "pitch": 42,
                "velocity": 64,
                "duration": 0.0863636,
                "tempo": 120.0
            },
            {
                "start_time": 6.2272727,
                "end_time": 6.3136364,
                "pitch": 41,
                "velocity": 64,
                "duration": 0.0863636,
                "tempo": 120.0
            },
            {
                "start_time": 6.3295455,
                "end_time": 6.4159091,
                "pitch": 39,
                "velocity": 64,
                "duration": 0.0863636,
                "tempo": 120.0
            },
            {
                "start_time": 6.4340909,
                "end_time": 7.5022727,
                "pitch": 37,
                "velocity": 64,
                "duration": 1.0681818,
                "tempo": 120.0
            },
            {
                "start_time": 7.5204545,
                "end_time": 7.6022727,
                "pitch": 36,
                "velocity": 64,
                "duration": 0.0818182,
                "tempo": 120.0
            },
            {
                "start_time": 7.6181818,
                "end_time": 7.7045455,
                "pitch": 37,
                "velocity": 64,
                "duration": 0.0863636,
                "tempo": 120.0
            },
            {
                "start_time": 7.7227273,
                "end_time": 7.8113636,
                "pitch": 39,
                "velocity": 64,
                "duration": 0.0886364,
                "tempo": 120.0
            },
            {
                "start_time": 7.8272727,
                "end_time": 7.9159091,
                "pitch": 41,
                "velocity": 64,
                "duration": 0.0886364,
                "tempo": 120.0
            },
            {
                "start_time": 7.9340909,
                "end_time": 8.0227273,
                "pitch": 42,
                "velocity": 64,
                "duration": 0.0886364,
                "tempo": 120.0
            },
            {
                "start_time": 8.0386364,
                "end_time": 9.1090909,
                "pitch": 40,
                "velocity": 64,
                "duration": 1.0704545,
                "tempo": 120.0
            },
            {
                "start_time": 9.125,
                "end_time": 9.2090909,
                "pitch": 39,
                "velocity": 64,
                "duration": 0.0840909,
                "tempo": 120.0
            },
            {
                "start_time": 9.2272727,
                "end_time": 9.3136364,
                "pitch": 40,
                "velocity": 64,
                "duration": 0.0863636,
                "tempo": 120.0
            },
            {
                "start_time": 9.3318182,
                "end_time": 9.4204545,
                "pitch": 42,
                "velocity": 64,
                "duration": 0.0886364,
                "tempo": 120.0
            },
            {
                "start_time": 9.4363636,
                "end_time": 9.525,
                "pitch": 41,
                "velocity": 64,
                "duration": 0.0886364,
                "tempo": 120.0
            },
            {
                "start_time": 9.5431818,
                "end_time": 9.6318182,
                "pitch": 39,
                "velocity": 64,
                "duration": 0.0886364,
                "tempo": 120.0
            },
            {
                "start_time": 9.6477273,
                "end_time": 10.725,
                "pitch": 37,
                "velocity": 64,
                "duration": 1.0772727,
                "tempo": 120.0
            },
            {
                "start_time": 10.7409091,
                "end_time": 10.8272727,
                "pitch": 36,
                "velocity": 64,
                "duration": 0.0863636,
                "tempo": 120.0
            },
            {
                "start_time": 10.8431818,
                "end_time": 10.9295455,
                "pitch": 37,
                "velocity": 64,
                "duration": 0.0863636,
                "tempo": 120.0
            },
            {
                "start_time": 10.9477273,
                "end_time": 11.0318182,
                "pitch": 39,
                "velocity": 64,
                "duration": 0.0840909,
                "tempo": 120.0
            },
            {
                "start_time": 11.05,
                "end_time": 11.1340909,
                "pitch": 41,
                "velocity": 64,
                "duration": 0.0840909,
                "tempo": 120.0
            },
            {
                "start_time": 11.1522727,
                "end_time": 11.2386364,
                "pitch": 42,
                "velocity": 64,
                "duration": 0.0863636,
                "tempo": 120.0
            },
            {
                "start_time": 11.2545455,
                "end_time": 12.3318182,
                "pitch": 40,
                "velocity": 64,
                "duration": 1.0772727,
                "tempo": 120.0
            },
            {
                "start_time": 12.35,
                "end_time": 12.4340909,
                "pitch": 39,
                "velocity": 64,
                "duration": 0.0840909,
                "tempo": 120.0
            },
            {
                "start_time": 12.45,
                "end_time": 12.5318182,
                "pitch": 40,
                "velocity": 64,
                "duration": 0.0818182,
                "tempo": 120.0
            },
            {
                "start_time": 12.5477273,
                "end_time": 12.6295455,
                "pitch": 42,
                "velocity": 64,
                "duration": 0.0818182,
                "tempo": 120.0
            },
            {
                "start_time": 12.6454545,
                "end_time": 12.7272727,
                "pitch": 41,
                "velocity": 64,
                "duration": 0.0818182,
                "tempo": 120.0
            },
            {
                "start_time": 12.7431818,
                "end_time": 12.825,
                "pitch": 39,
                "velocity": 64,
                "duration": 0.0818182,
                "tempo": 120.0
            },
            {
                "start_time": 12.8409091,
                "end_time": 12.9272727,
                "pitch": 32,
                "velocity": 64,
                "duration": 0.0863636,
                "tempo": 120.0
            },
            {
                "start_time": 12.9454545,
                "end_time": 13.0295455,
                "pitch": 32,
                "velocity": 64,
                "duration": 0.0840909,
                "tempo": 120.0
            },
            {
                "start_time": 13.0477273,
                "end_time": 13.1318182,
                "pitch": 44,
                "velocity": 64,
                "duration": 0.0840909,
                "tempo": 120.0
            },
            {
                "start_time": 13.15,
                "end_time": 13.2363636,
                "pitch": 32,
                "velocity": 64,
                "duration": 0.0863636,
                "tempo": 120.0
            },
            {
                "start_time": 13.2522727,
                "end_time": 13.3363636,
                "pitch": 35,
                "velocity": 64,
                "duration": 0.0840909,
                "tempo": 120.0
            },
            {
                "start_time": 13.3545455,
                "end_time": 13.4363636,
                "pitch": 32,
                "velocity": 64,
                "duration": 0.0818182,
                "tempo": 120.0
            },
            {
                "start_time": 13.4545455,
                "end_time": 13.5386364,
                "pitch": 34,
                "velocity": 64,
                "duration": 0.0840909,
                "tempo": 120.0
            },
            {
                "start_time": 13.5545455,
                "end_time": 13.6386364,
                "pitch": 35,
                "velocity": 64,
                "duration": 0.0840909,
                "tempo": 120.0
            },
            {
                "start_time": 13.6545455,
                "end_time": 13.7386364,
                "pitch": 39,
                "velocity": 64,
                "duration": 0.0840909,
                "tempo": 120.0
            },
            {
                "start_time": 13.7545455,
                "end_time": 13.8386364,
                "pitch": 32,
                "velocity": 64,
                "duration": 0.0840909,
                "tempo": 120.0
            },
            {
                "start_time": 13.8545455,
                "end_time": 13.9386364,
                "pitch": 39,
                "velocity": 64,
                "duration": 0.0840909,
                "tempo": 120.0
            },
            {
                "start_time": 13.9545455,
                "end_time": 14.0386364,
                "pitch": 32,
                "velocity": 64,
                "duration": 0.0840909,
                "tempo": 120.0
            },
            {
                "start_time": 14.0545455,
                "end_time": 14.1386364,
                "pitch": 44,
                "velocity": 64,
                "duration": 0.0840909,
                "tempo": 120.0
            },
            {
                "start_time": 14.1568182,
                "end_time": 14.2409091,
                "pitch": 32,
                "velocity": 64,
                "duration": 0.0840909,
                "tempo": 120.0
            },
            {
                "start_time": 14.2568182,
                "end_time": 14.4409091,
                "pitch": 32,
                "velocity": 64,
                "duration": 0.1840909,
                "tempo": 120.0
            },
            {
                "start_time": 14.4568182,
                "end_time": 14.5386364,
                "pitch": 32,
                "velocity": 64,
                "duration": 0.0818182,
                "tempo": 120.0
            },
            {
                "start_time": 14.5568182,
                "end_time": 14.6386364,
                "pitch": 32,
                "velocity": 64,
                "duration": 0.0818182,
                "tempo": 120.0
            },
            {
                "start_time": 14.6545455,
                "end_time": 14.7363636,
                "pitch": 44,
                "velocity": 64,
                "duration": 0.0818182,
                "tempo": 120.0
            },
            {
                "start_time": 14.7522727,
                "end_time": 14.8340909,
                "pitch": 32,
                "velocity": 64,
                "duration": 0.0818182,
                "tempo": 120.0
            },
            {
                "start_time": 14.85,
                "end_time": 14.9363636,
                "pitch": 35,
                "velocity": 64,
                "duration": 0.0863636,
                "tempo": 120.0
            },
            {
                "start_time": 14.9522727,
                "end_time": 15.0386364,
                "pitch": 32,
                "velocity": 64,
                "duration": 0.0863636,
                "tempo": 120.0
            },
            {
                "start_time": 15.0545455,
                "end_time": 15.1409091,
                "pitch": 34,
                "velocity": 64,
                "duration": 0.0863636,
                "tempo": 120.0
            },
            {
                "start_time": 15.1590909,
                "end_time": 15.2431818,
                "pitch": 35,
                "velocity": 64,
                "duration": 0.0840909,
                "tempo": 120.0
            },
            {
                "start_time": 15.2613636,
                "end_time": 15.4454545,
                "pitch": 37,
                "velocity": 64,
                "duration": 0.1840909,
                "tempo": 120.0
            },
            {
                "start_time": 15.4613636,
                "end_time": 15.5454545,
                "pitch": 32,
                "velocity": 64,
                "duration": 0.0840909,
                "tempo": 120.0
            },
            {
                "start_time": 15.5636364,
                "end_time": 15.75,
                "pitch": 30,
                "velocity": 64,
                "duration": 0.1863636,
                "tempo": 120.0
            },
            {
                "start_time": 15.7659091,
                "end_time": 15.8522727,
                "pitch": 32,
                "velocity": 64,
                "duration": 0.0863636,
                "tempo": 120.0
            },
            {
                "start_time": 15.8681818,
                "end_time": 16.0568182,
                "pitch": 30,
                "velocity": 64,
                "duration": 0.1886364,
                "tempo": 120.0
            },
            {
                "start_time": 16.075,
                "end_time": 16.1568182,
                "pitch": 32,
                "velocity": 64,
                "duration": 0.0818182,
                "tempo": 120.0
            },
            {
                "start_time": 16.1727273,
                "end_time": 16.2545455,
                "pitch": 32,
                "velocity": 64,
                "duration": 0.0818182,
                "tempo": 120.0
            },
            {
                "start_time": 16.2704545,
                "end_time": 16.3522727,
                "pitch": 44,
                "velocity": 64,
                "duration": 0.0818182,
                "tempo": 120.0
            },
            {
                "start_time": 16.3681818,
                "end_time": 16.45,
                "pitch": 32,
                "velocity": 64,
                "duration": 0.0818182,
                "tempo": 120.0
            },
            {
                "start_time": 16.4659091,
                "end_time": 16.55,
                "pitch": 35,
                "velocity": 64,
                "duration": 0.0840909,
                "tempo": 120.0
            },
            {
                "start_time": 16.5659091,
                "end_time": 16.65,
                "pitch": 32,
                "velocity": 64,
                "duration": 0.0840909,
                "tempo": 120.0
            },
            {
                "start_time": 16.6659091,
                "end_time": 16.75,
                "pitch": 34,
                "velocity": 64,
                "duration": 0.0840909,
                "tempo": 120.0
            },
            {
                "start_time": 16.7659091,
                "end_time": 16.85,
                "pitch": 35,
                "velocity": 64,
                "duration": 0.0840909,
                "tempo": 120.0
            },
            {
                "start_time": 16.8659091,
                "end_time": 16.95,
                "pitch": 39,
                "velocity": 64,
                "duration": 0.0840909,
                "tempo": 120.0
            },
            {
                "start_time": 16.9659091,
                "end_time": 17.05,
                "pitch": 32,
                "velocity": 64,
                "duration": 0.0840909,
                "tempo": 120.0
            },
            {
                "start_time": 17.0659091,
                "end_time": 17.15,
                "pitch": 39,
                "velocity": 64,
                "duration": 0.0840909,
                "tempo": 120.0
            },
            {
                "start_time": 17.1659091,
                "end_time": 17.25,
                "pitch": 32,
                "velocity": 64,
                "duration": 0.0840909,
                "tempo": 120.0
            },
            {
                "start_time": 17.2659091,
                "end_time": 17.35,
                "pitch": 44,
                "velocity": 64,
                "duration": 0.0840909,
                "tempo": 120.0
            },
            {
                "start_time": 17.3681818,
                "end_time": 17.4522727,
                "pitch": 32,
                "velocity": 64,
                "duration": 0.0840909,
                "tempo": 120.0
            },
            {
                "start_time": 17.4681818,
                "end_time": 17.6522727,
                "pitch": 32,
                "velocity": 64,
                "duration": 0.1840909,
                "tempo": 120.0
            },
            {
                "start_time": 17.6681818,
                "end_time": 17.7522727,
                "pitch": 32,
                "velocity": 64,
                "duration": 0.0840909,
                "tempo": 120.0
            },
            {
                "start_time": 17.7681818,
                "end_time": 17.8522727,
                "pitch": 32,
                "velocity": 64,
                "duration": 0.0840909,
                "tempo": 120.0
            },
            {
                "start_time": 17.8681818,
                "end_time": 17.9522727,
                "pitch": 44,
                "velocity": 64,
                "duration": 0.0840909,
                "tempo": 120.0
            },
            {
                "start_time": 17.9681818,
                "end_time": 18.0522727,
                "pitch": 32,
                "velocity": 64,
                "duration": 0.0840909,
                "tempo": 120.0
            },
            {
                "start_time": 18.0681818,
                "end_time": 18.1522727,
                "pitch": 35,
                "velocity": 64,
                "duration": 0.0840909,
                "tempo": 120.0
            },
            {
                "start_time": 18.1704545,
                "end_time": 18.2545455,
                "pitch": 32,
                "velocity": 64,
                "duration": 0.0840909,
                "tempo": 120.0
            },
            {
                "start_time": 18.2704545,
                "end_time": 18.3545455,
                "pitch": 34,
                "velocity": 64,
                "duration": 0.0840909,
                "tempo": 120.0
            },
            {
                "start_time": 18.3704545,
                "end_time": 18.4545455,
                "pitch": 35,
                "velocity": 64,
                "duration": 0.0840909,
                "tempo": 120.0
            },
            {
                "start_time": 18.4727273,
                "end_time": 18.6545455,
                "pitch": 37,
                "velocity": 64,
                "duration": 0.1818182,
                "tempo": 120.0
            },
            {
                "start_time": 18.6727273,
                "end_time": 18.7545455,
                "pitch": 32,
                "velocity": 64,
                "duration": 0.0818182,
                "tempo": 120.0
            },
            {
                "start_time": 18.7727273,
                "end_time": 18.9568182,
                "pitch": 30,
                "velocity": 64,
                "duration": 0.1840909,
                "tempo": 120.0
            },
            {
                "start_time": 18.975,
                "end_time": 19.0590909,
                "pitch": 32,
                "velocity": 64,
                "duration": 0.0840909,
                "tempo": 120.0
            },
            {
                "start_time": 19.0772727,
                "end_time": 19.2659091,
                "pitch": 30,
                "velocity": 64,
                "duration": 0.1886364,
                "tempo": 120.0
            },
            {
                "start_time": 19.2818182,
                "end_time": 19.3636364,
                "pitch": 32,
                "velocity": 64,
                "duration": 0.0818182,
                "tempo": 120.0
            },
            {
                "start_time": 19.3818182,
                "end_time": 19.4613636,
                "pitch": 32,
                "velocity": 64,
                "duration": 0.0795455,
                "tempo": 120.0
            },
            {
                "start_time": 19.4795455,
                "end_time": 19.5613636,
                "pitch": 44,
                "velocity": 64,
                "duration": 0.0818182,
                "tempo": 120.0
            },
            {
                "start_time": 19.5772727,
                "end_time": 19.6590909,
                "pitch": 32,
                "velocity": 64,
                "duration": 0.0818182,
                "tempo": 120.0
            },
            {
                "start_time": 19.675,
                "end_time": 19.7590909,
                "pitch": 35,
                "velocity": 64,
                "duration": 0.0840909,
                "tempo": 120.0
            },
            {
                "start_time": 19.775,
                "end_time": 19.8590909,
                "pitch": 32,
                "velocity": 64,
                "duration": 0.0840909,
                "tempo": 120.0
            },
            {
                "start_time": 19.875,
                "end_time": 19.9590909,
                "pitch": 34,
                "velocity": 64,
                "duration": 0.0840909,
                "tempo": 120.0
            },
            {
                "start_time": 19.975,
                "end_time": 20.0590909,
                "pitch": 35,
                "velocity": 64,
                "duration": 0.0840909,
                "tempo": 120.0
            },
            {
                "start_time": 20.075,
                "end_time": 20.1590909,
                "pitch": 39,
                "velocity": 64,
                "duration": 0.0840909,
                "tempo": 120.0
            },
            {
                "start_time": 20.175,
                "end_time": 20.2590909,
                "pitch": 32,
                "velocity": 64,
                "duration": 0.0840909,
                "tempo": 120.0
            },
            {
                "start_time": 20.2772727,
                "end_time": 20.3590909,
                "pitch": 39,
                "velocity": 64,
                "duration": 0.0818182,
                "tempo": 120.0
            },
            {
                "start_time": 20.3772727,
                "end_time": 20.4613636,
                "pitch": 32,
                "velocity": 64,
                "duration": 0.0840909,
                "tempo": 120.0
            },
            {
                "start_time": 20.4772727,
                "end_time": 20.5613636,
                "pitch": 44,
                "velocity": 64,
                "duration": 0.0840909,
                "tempo": 120.0
            },
            {
                "start_time": 20.5772727,
                "end_time": 20.6613636,
                "pitch": 32,
                "velocity": 64,
                "duration": 0.0840909,
                "tempo": 120.0
            },
            {
                "start_time": 20.6772727,
                "end_time": 20.8613636,
                "pitch": 32,
                "velocity": 64,
                "duration": 0.1840909,
                "tempo": 120.0
            },
            {
                "start_time": 20.8772727,
                "end_time": 20.9613636,
                "pitch": 32,
                "velocity": 64,
                "duration": 0.0840909,
                "tempo": 120.0
            },
            {
                "start_time": 20.9772727,
                "end_time": 21.0613636,
                "pitch": 32,
                "velocity": 64,
                "duration": 0.0840909,
                "tempo": 120.0
            },
            {
                "start_time": 21.0772727,
                "end_time": 21.1613636,
                "pitch": 44,
                "velocity": 64,
                "duration": 0.0840909,
                "tempo": 120.0
            },
            {
                "start_time": 21.1772727,
                "end_time": 21.2613636,
                "pitch": 32,
                "velocity": 64,
                "duration": 0.0840909,
                "tempo": 120.0
            },
            {
                "start_time": 21.2772727,
                "end_time": 21.3613636,
                "pitch": 35,
                "velocity": 64,
                "duration": 0.0840909,
                "tempo": 120.0
            },
            {
                "start_time": 21.3772727,
                "end_time": 21.4613636,
                "pitch": 32,
                "velocity": 64,
                "duration": 0.0840909,
                "tempo": 120.0
            },
            {
                "start_time": 21.4795455,
                "end_time": 21.5636364,
                "pitch": 34,
                "velocity": 64,
                "duration": 0.0840909,
                "tempo": 120.0
            },
            {
                "start_time": 21.5795455,
                "end_time": 21.6636364,
                "pitch": 35,
                "velocity": 64,
                "duration": 0.0840909,
                "tempo": 120.0
            },
            {
                "start_time": 21.6795455,
                "end_time": 21.8636364,
                "pitch": 37,
                "velocity": 64,
                "duration": 0.1840909,
                "tempo": 120.0
            },
            {
                "start_time": 21.8795455,
                "end_time": 21.9636364,
                "pitch": 32,
                "velocity": 64,
                "duration": 0.0840909,
                "tempo": 120.0
            },
            {
                "start_time": 21.9795455,
                "end_time": 22.1659091,
                "pitch": 30,
                "velocity": 64,
                "duration": 0.1863636,
                "tempo": 120.0
            },
            {
                "start_time": 22.1818182,
                "end_time": 22.2681818,
                "pitch": 32,
                "velocity": 64,
                "duration": 0.0863636,
                "tempo": 120.0
            },
            {
                "start_time": 22.2863636,
                "end_time": 22.4727273,
                "pitch": 30,
                "velocity": 64,
                "duration": 0.1863636,
                "tempo": 120.0
            },
            {
                "start_time": 22.4909091,
                "end_time": 22.5727273,
                "pitch": 32,
                "velocity": 64,
                "duration": 0.0818182,
                "tempo": 120.0
            },
            {
                "start_time": 22.5886364,
                "end_time": 22.6704545,
                "pitch": 32,
                "velocity": 64,
                "duration": 0.0818182,
                "tempo": 120.0
            },
            {
                "start_time": 22.6863636,
                "end_time": 22.7681818,
                "pitch": 44,
                "velocity": 64,
                "duration": 0.0818182,
                "tempo": 120.0
            },
            {
                "start_time": 22.7840909,
                "end_time": 22.8659091,
                "pitch": 32,
                "velocity": 64,
                "duration": 0.0818182,
                "tempo": 120.0
            },
            {
                "start_time": 22.8840909,
                "end_time": 22.9659091,
                "pitch": 35,
                "velocity": 64,
                "duration": 0.0818182,
                "tempo": 120.0
            },
            {
                "start_time": 22.9840909,
                "end_time": 23.0659091,
                "pitch": 32,
                "velocity": 64,
                "duration": 0.0818182,
                "tempo": 120.0
            },
            {
                "start_time": 23.0840909,
                "end_time": 23.1659091,
                "pitch": 34,
                "velocity": 64,
                "duration": 0.0818182,
                "tempo": 120.0
            },
            {
                "start_time": 23.1840909,
                "end_time": 23.2659091,
                "pitch": 35,
                "velocity": 64,
                "duration": 0.0818182,
                "tempo": 120.0
            },
            {
                "start_time": 23.2840909,
                "end_time": 23.3659091,
                "pitch": 39,
                "velocity": 64,
                "duration": 0.0818182,
                "tempo": 120.0
            },
            {
                "start_time": 23.3840909,
                "end_time": 23.4681818,
                "pitch": 32,
                "velocity": 64,
                "duration": 0.0840909,
                "tempo": 120.0
            },
            {
                "start_time": 23.4840909,
                "end_time": 23.5681818,
                "pitch": 39,
                "velocity": 64,
                "duration": 0.0840909,
                "tempo": 120.0
            },
            {
                "start_time": 23.5840909,
                "end_time": 23.6681818,
                "pitch": 32,
                "velocity": 64,
                "duration": 0.0840909,
                "tempo": 120.0
            },
            {
                "start_time": 23.6863636,
                "end_time": 23.7681818,
                "pitch": 44,
                "velocity": 64,
                "duration": 0.0818182,
                "tempo": 120.0
            },
            {
                "start_time": 23.7863636,
                "end_time": 23.8681818,
                "pitch": 32,
                "velocity": 64,
                "duration": 0.0818182,
                "tempo": 120.0
            },
            {
                "start_time": 23.8863636,
                "end_time": 24.0681818,
                "pitch": 32,
                "velocity": 64,
                "duration": 0.1818182,
                "tempo": 120.0
            },
            {
                "start_time": 24.0863636,
                "end_time": 24.1704545,
                "pitch": 32,
                "velocity": 64,
                "duration": 0.0840909,
                "tempo": 120.0
            },
            {
                "start_time": 24.1863636,
                "end_time": 24.2704545,
                "pitch": 32,
                "velocity": 64,
                "duration": 0.0840909,
                "tempo": 120.0
            },
            {
                "start_time": 24.2863636,
                "end_time": 24.3704545,
                "pitch": 44,
                "velocity": 64,
                "duration": 0.0840909,
                "tempo": 120.0
            },
            {
                "start_time": 24.3886364,
                "end_time": 24.4727273,
                "pitch": 32,
                "velocity": 64,
                "duration": 0.0840909,
                "tempo": 120.0
            },
            {
                "start_time": 24.4886364,
                "end_time": 24.5727273,
                "pitch": 35,
                "velocity": 64,
                "duration": 0.0840909,
                "tempo": 120.0
            },
            {
                "start_time": 24.5886364,
                "end_time": 24.6727273,
                "pitch": 32,
                "velocity": 64,
                "duration": 0.0840909,
                "tempo": 120.0
            },
            {
                "start_time": 24.6886364,
                "end_time": 24.7727273,
                "pitch": 34,
                "velocity": 64,
                "duration": 0.0840909,
                "tempo": 120.0
            },
            {
                "start_time": 24.7886364,
                "end_time": 24.8727273,
                "pitch": 35,
                "velocity": 64,
                "duration": 0.0840909,
                "tempo": 120.0
            },
            {
                "start_time": 24.8886364,
                "end_time": 25.0727273,
                "pitch": 37,
                "velocity": 64,
                "duration": 0.1840909,
                "tempo": 120.0
            },
            {
                "start_time": 25.0886364,
                "end_time": 25.1727273,
                "pitch": 32,
                "velocity": 64,
                "duration": 0.0840909,
                "tempo": 120.0
            },
            {
                "start_time": 25.1886364,
                "end_time": 25.3727273,
                "pitch": 30,
                "velocity": 64,
                "duration": 0.1840909,
                "tempo": 120.0
            },
            {
                "start_time": 25.3909091,
                "end_time": 25.4772727,
                "pitch": 32,
                "velocity": 64,
                "duration": 0.0863636,
                "tempo": 120.0
            },
            {
                "start_time": 25.4931818,
                "end_time": 25.6818182,
                "pitch": 30,
                "velocity": 64,
                "duration": 0.1886364,
                "tempo": 120.0
            },
            {
                "start_time": 25.7,
                "end_time": 25.7818182,
                "pitch": 32,
                "velocity": 64,
                "duration": 0.0818182,
                "tempo": 120.0
            },
            {
                "start_time": 25.7977273,
                "end_time": 25.8795455,
                "pitch": 32,
                "velocity": 64,
                "duration": 0.0818182,
                "tempo": 120.0
            },
            {
                "start_time": 25.8954545,
                "end_time": 25.9772727,
                "pitch": 44,
                "velocity": 64,
                "duration": 0.0818182,
                "tempo": 120.0
            },
            {
                "start_time": 25.9931818,
                "end_time": 26.075,
                "pitch": 32,
                "velocity": 64,
                "duration": 0.0818182,
                "tempo": 120.0
            },
            {
                "start_time": 26.0909091,
                "end_time": 26.175,
                "pitch": 35,
                "velocity": 64,
                "duration": 0.0840909,
                "tempo": 120.0
            },
            {
                "start_time": 26.1909091,
                "end_time": 26.275,
                "pitch": 32,
                "velocity": 64,
                "duration": 0.0840909,
                "tempo": 120.0
            },
            {
                "start_time": 26.2931818,
                "end_time": 26.3772727,
                "pitch": 34,
                "velocity": 64,
                "duration": 0.0840909,
                "tempo": 120.0
            },
            {
                "start_time": 26.3931818,
                "end_time": 26.4772727,
                "pitch": 35,
                "velocity": 64,
                "duration": 0.0840909,
                "tempo": 120.0
            },
            {
                "start_time": 26.4931818,
                "end_time": 26.5772727,
                "pitch": 39,
                "velocity": 64,
                "duration": 0.0840909,
                "tempo": 120.0
            },
            {
                "start_time": 26.5931818,
                "end_time": 26.6772727,
                "pitch": 32,
                "velocity": 64,
                "duration": 0.0840909,
                "tempo": 120.0
            },
            {
                "start_time": 26.6931818,
                "end_time": 26.7772727,
                "pitch": 39,
                "velocity": 64,
                "duration": 0.0840909,
                "tempo": 120.0
            },
            {
                "start_time": 26.7931818,
                "end_time": 26.8772727,
                "pitch": 32,
                "velocity": 64,
                "duration": 0.0840909,
                "tempo": 120.0
            },
            {
                "start_time": 26.8931818,
                "end_time": 26.9772727,
                "pitch": 44,
                "velocity": 64,
                "duration": 0.0840909,
                "tempo": 120.0
            },
            {
                "start_time": 26.9931818,
                "end_time": 27.0772727,
                "pitch": 32,
                "velocity": 64,
                "duration": 0.0840909,
                "tempo": 120.0
            },
            {
                "start_time": 27.0931818,
                "end_time": 27.2772727,
                "pitch": 32,
                "velocity": 64,
                "duration": 0.1840909,
                "tempo": 120.0
            },
            {
                "start_time": 27.2931818,
                "end_time": 27.3772727,
                "pitch": 32,
                "velocity": 64,
                "duration": 0.0840909,
                "tempo": 120.0
            },
            {
                "start_time": 27.3954545,
                "end_time": 27.4795455,
                "pitch": 32,
                "velocity": 64,
                "duration": 0.0840909,
                "tempo": 120.0
            },
            {
                "start_time": 27.4954545,
                "end_time": 27.5795455,
                "pitch": 44,
                "velocity": 64,
                "duration": 0.0840909,
                "tempo": 120.0
            },
            {
                "start_time": 27.5954545,
                "end_time": 27.6795455,
                "pitch": 32,
                "velocity": 64,
                "duration": 0.0840909,
                "tempo": 120.0
            },
            {
                "start_time": 27.6977273,
                "end_time": 27.7795455,
                "pitch": 35,
                "velocity": 64,
                "duration": 0.0818182,
                "tempo": 120.0
            },
            {
                "start_time": 27.7977273,
                "end_time": 27.8795455,
                "pitch": 32,
                "velocity": 64,
                "duration": 0.0818182,
                "tempo": 120.0
            },
            {
                "start_time": 27.8977273,
                "end_time": 27.9795455,
                "pitch": 34,
                "velocity": 64,
                "duration": 0.0818182,
                "tempo": 120.0
            },
            {
                "start_time": 27.9977273,
                "end_time": 28.0795455,
                "pitch": 35,
                "velocity": 64,
                "duration": 0.0818182,
                "tempo": 120.0
            },
            {
                "start_time": 28.0977273,
                "end_time": 28.2818182,
                "pitch": 37,
                "velocity": 64,
                "duration": 0.1840909,
                "tempo": 120.0
            },
            {
                "start_time": 28.2977273,
                "end_time": 28.3818182,
                "pitch": 32,
                "velocity": 64,
                "duration": 0.0840909,
                "tempo": 120.0
            },
            {
                "start_time": 28.3977273,
                "end_time": 28.5840909,
                "pitch": 30,
                "velocity": 64,
                "duration": 0.1863636,
                "tempo": 120.0
            },
            {
                "start_time": 28.6022727,
                "end_time": 28.6863636,
                "pitch": 32,
                "velocity": 64,
                "duration": 0.0840909,
                "tempo": 120.0
            },
            {
                "start_time": 28.7045455,
                "end_time": 28.8931818,
                "pitch": 30,
                "velocity": 64,
                "duration": 0.1886364,
                "tempo": 120.0
            },
            {
                "start_time": 28.9090909,
                "end_time": 28.9909091,
                "pitch": 32,
                "velocity": 64,
                "duration": 0.0818182,
                "tempo": 120.0
            },
            {
                "start_time": 29.0090909,
                "end_time": 29.0886364,
                "pitch": 32,
                "velocity": 64,
                "duration": 0.0795455,
                "tempo": 120.0
            },
            {
                "start_time": 29.1068182,
                "end_time": 29.1886364,
                "pitch": 44,
                "velocity": 64,
                "duration": 0.0818182,
                "tempo": 120.0
            },
            {
                "start_time": 29.2045455,
                "end_time": 29.2863636,
                "pitch": 32,
                "velocity": 64,
                "duration": 0.0818182,
                "tempo": 120.0
            },
            {
                "start_time": 29.3022727,
                "end_time": 29.3863636,
                "pitch": 35,
                "velocity": 64,
                "duration": 0.0840909,
                "tempo": 120.0
            },
            {
                "start_time": 29.4022727,
                "end_time": 29.4863636,
                "pitch": 32,
                "velocity": 64,
                "duration": 0.0840909,
                "tempo": 120.0
            },
            {
                "start_time": 29.5045455,
                "end_time": 29.5863636,
                "pitch": 34,
                "velocity": 64,
                "duration": 0.0818182,
                "tempo": 120.0
            },
            {
                "start_time": 29.6045455,
                "end_time": 29.6886364,
                "pitch": 35,
                "velocity": 64,
                "duration": 0.0840909,
                "tempo": 120.0
            },
            {
                "start_time": 29.7045455,
                "end_time": 29.7886364,
                "pitch": 39,
                "velocity": 64,
                "duration": 0.0840909,
                "tempo": 120.0
            },
            {
                "start_time": 29.8045455,
                "end_time": 29.8886364,
                "pitch": 32,
                "velocity": 64,
                "duration": 0.0840909,
                "tempo": 120.0
            },
            {
                "start_time": 29.9045455,
                "end_time": 29.9886364,
                "pitch": 39,
                "velocity": 64,
                "duration": 0.0840909,
                "tempo": 120.0
            },
            {
                "start_time": 30.0045455,
                "end_time": 30.0886364,
                "pitch": 32,
                "velocity": 64,
                "duration": 0.0840909,
                "tempo": 120.0
            },
            {
                "start_time": 30.1045455,
                "end_time": 30.1886364,
                "pitch": 44,
                "velocity": 64,
                "duration": 0.0840909,
                "tempo": 120.0
            },
            {
                "start_time": 30.2045455,
                "end_time": 30.2886364,
                "pitch": 32,
                "velocity": 64,
                "duration": 0.0840909,
                "tempo": 120.0
            },
            {
                "start_time": 30.3068182,
                "end_time": 30.4909091,
                "pitch": 32,
                "velocity": 64,
                "duration": 0.1840909,
                "tempo": 120.0
            },
            {
                "start_time": 30.5068182,
                "end_time": 30.5909091,
                "pitch": 32,
                "velocity": 64,
                "duration": 0.0840909,
                "tempo": 120.0
            },
            {
                "start_time": 30.6068182,
                "end_time": 30.6909091,
                "pitch": 32,
                "velocity": 64,
                "duration": 0.0840909,
                "tempo": 120.0
            },
            {
                "start_time": 30.7068182,
                "end_time": 30.7909091,
                "pitch": 44,
                "velocity": 64,
                "duration": 0.0840909,
                "tempo": 120.0
            },
            {
                "start_time": 30.8068182,
                "end_time": 30.8909091,
                "pitch": 32,
                "velocity": 64,
                "duration": 0.0840909,
                "tempo": 120.0
            },
            {
                "start_time": 30.9068182,
                "end_time": 30.9909091,
                "pitch": 35,
                "velocity": 64,
                "duration": 0.0840909,
                "tempo": 120.0
            },
            {
                "start_time": 31.0068182,
                "end_time": 31.0909091,
                "pitch": 32,
                "velocity": 64,
                "duration": 0.0840909,
                "tempo": 120.0
            },
            {
                "start_time": 31.1068182,
                "end_time": 31.1909091,
                "pitch": 34,
                "velocity": 64,
                "duration": 0.0840909,
                "tempo": 120.0
            },
            {
                "start_time": 31.2068182,
                "end_time": 31.2909091,
                "pitch": 35,
                "velocity": 64,
                "duration": 0.0840909,
                "tempo": 120.0
            },
            {
                "start_time": 31.3068182,
                "end_time": 31.4931818,
                "pitch": 37,
                "velocity": 64,
                "duration": 0.1863636,
                "tempo": 120.0
            },
            {
                "start_time": 31.5090909,
                "end_time": 31.5931818,
                "pitch": 32,
                "velocity": 64,
                "duration": 0.0840909,
                "tempo": 120.0
            },
            {
                "start_time": 31.6090909,
                "end_time": 31.7954545,
                "pitch": 30,
                "velocity": 64,
                "duration": 0.1863636,
                "tempo": 120.0
            },
            {
                "start_time": 31.8136364,
                "end_time": 31.8977273,
                "pitch": 32,
                "velocity": 64,
                "duration": 0.0840909,
                "tempo": 120.0
            },
            {
                "start_time": 31.9159091,
                "end_time": 32.1045455,
                "pitch": 30,
                "velocity": 64,
                "duration": 0.1886364,
                "tempo": 120.0
            },
            {
                "start_time": 32.1204545,
                "end_time": 32.2022727,
                "pitch": 32,
                "velocity": 64,
                "duration": 0.0818182,
                "tempo": 120.0
            },
            {
                "start_time": 32.2181818,
                "end_time": 32.3,
                "pitch": 32,
                "velocity": 64,
                "duration": 0.0818182,
                "tempo": 120.0
            },
            {
                "start_time": 32.3181818,
                "end_time": 32.3977273,
                "pitch": 44,
                "velocity": 64,
                "duration": 0.0795455,
                "tempo": 120.0
            },
            {
                "start_time": 32.4159091,
                "end_time": 32.4977273,
                "pitch": 32,
                "velocity": 64,
                "duration": 0.0818182,
                "tempo": 120.0
            },
            {
                "start_time": 32.5136364,
                "end_time": 32.5954545,
                "pitch": 35,
                "velocity": 64,
                "duration": 0.0818182,
                "tempo": 120.0
            },
            {
                "start_time": 32.6136364,
                "end_time": 32.6954545,
                "pitch": 32,
                "velocity": 64,
                "duration": 0.0818182,
                "tempo": 120.0
            },
            {
                "start_time": 32.7136364,
                "end_time": 32.7954545,
                "pitch": 34,
                "velocity": 64,
                "duration": 0.0818182,
                "tempo": 120.0
            },
            {
                "start_time": 32.8136364,
                "end_time": 32.8954545,
                "pitch": 35,
                "velocity": 64,
                "duration": 0.0818182,
                "tempo": 120.0
            },
            {
                "start_time": 32.9136364,
                "end_time": 32.9977273,
                "pitch": 39,
                "velocity": 64,
                "duration": 0.0840909,
                "tempo": 120.0
            },
            {
                "start_time": 33.0136364,
                "end_time": 33.0977273,
                "pitch": 32,
                "velocity": 64,
                "duration": 0.0840909,
                "tempo": 120.0
            },
            {
                "start_time": 33.1136364,
                "end_time": 33.1977273,
                "pitch": 39,
                "velocity": 64,
                "duration": 0.0840909,
                "tempo": 120.0
            },
            {
                "start_time": 33.2159091,
                "end_time": 33.3,
                "pitch": 32,
                "velocity": 64,
                "duration": 0.0840909,
                "tempo": 120.0
            },
            {
                "start_time": 33.3159091,
                "end_time": 33.4,
                "pitch": 44,
                "velocity": 64,
                "duration": 0.0840909,
                "tempo": 120.0
            },
            {
                "start_time": 33.4159091,
                "end_time": 33.5,
                "pitch": 32,
                "velocity": 64,
                "duration": 0.0840909,
                "tempo": 120.0
            },
            {
                "start_time": 33.5159091,
                "end_time": 33.7,
                "pitch": 32,
                "velocity": 64,
                "duration": 0.1840909,
                "tempo": 120.0
            },
            {
                "start_time": 33.7159091,
                "end_time": 33.8,
                "pitch": 32,
                "velocity": 64,
                "duration": 0.0840909,
                "tempo": 120.0
            },
            {
                "start_time": 33.8159091,
                "end_time": 33.9,
                "pitch": 32,
                "velocity": 64,
                "duration": 0.0840909,
                "tempo": 120.0
            },
            {
                "start_time": 33.9159091,
                "end_time": 34.0,
                "pitch": 44,
                "velocity": 64,
                "duration": 0.0840909,
                "tempo": 120.0
            },
            {
                "start_time": 34.0159091,
                "end_time": 34.1,
                "pitch": 32,
                "velocity": 64,
                "duration": 0.0840909,
                "tempo": 120.0
            },
            {
                "start_time": 34.1159091,
                "end_time": 34.2,
                "pitch": 35,
                "velocity": 64,
                "duration": 0.0840909,
                "tempo": 120.0
            },
            {
                "start_time": 34.2159091,
                "end_time": 34.3,
                "pitch": 32,
                "velocity": 64,
                "duration": 0.0840909,
                "tempo": 120.0
            },
            {
                "start_time": 34.3159091,
                "end_time": 34.4,
                "pitch": 34,
                "velocity": 64,
                "duration": 0.0840909,
                "tempo": 120.0
            },
            {
                "start_time": 34.4159091,
                "end_time": 34.5,
                "pitch": 35,
                "velocity": 64,
                "duration": 0.0840909,
                "tempo": 120.0
            },
            {
                "start_time": 34.5159091,
                "end_time": 34.7,
                "pitch": 37,
                "velocity": 64,
                "duration": 0.1840909,
                "tempo": 120.0
            },
            {
                "start_time": 34.7159091,
                "end_time": 34.8,
                "pitch": 32,
                "velocity": 64,
                "duration": 0.0840909,
                "tempo": 120.0
            },
            {
                "start_time": 34.8159091,
                "end_time": 35.0022727,
                "pitch": 30,
                "velocity": 64,
                "duration": 0.1863636,
                "tempo": 120.0
            },
            {
                "start_time": 35.0181818,
                "end_time": 35.1045455,
                "pitch": 32,
                "velocity": 64,
                "duration": 0.0863636,
                "tempo": 120.0
            },
            {
                "start_time": 35.1204545,
                "end_time": 35.3090909,
                "pitch": 30,
                "velocity": 64,
                "duration": 0.1886364,
                "tempo": 120.0
            },
            {
                "start_time": 35.3272727,
                "end_time": 35.4090909,
                "pitch": 32,
                "velocity": 64,
                "duration": 0.0818182,
                "tempo": 120.0
            },
            {
                "start_time": 35.425,
                "end_time": 35.5068182,
                "pitch": 32,
                "velocity": 64,
                "duration": 0.0818182,
                "tempo": 120.0
            },
            {
                "start_time": 35.5227273,
                "end_time": 35.6045455,
                "pitch": 44,
                "velocity": 64,
                "duration": 0.0818182,
                "tempo": 120.0
            },
            {
                "start_time": 35.6204545,
                "end_time": 35.7022727,
                "pitch": 32,
                "velocity": 64,
                "duration": 0.0818182,
                "tempo": 120.0
            },
            {
                "start_time": 35.7181818,
                "end_time": 35.8022727,
                "pitch": 35,
                "velocity": 64,
                "duration": 0.0840909,
                "tempo": 120.0
            },
            {
                "start_time": 35.8181818,
                "end_time": 35.9022727,
                "pitch": 32,
                "velocity": 64,
                "duration": 0.0840909,
                "tempo": 120.0
            },
            {
                "start_time": 35.9181818,
                "end_time": 36.0022727,
                "pitch": 34,
                "velocity": 64,
                "duration": 0.0840909,
                "tempo": 120.0
            },
            {
                "start_time": 36.0181818,
                "end_time": 36.1022727,
                "pitch": 35,
                "velocity": 64,
                "duration": 0.0840909,
                "tempo": 120.0
            },
            {
                "start_time": 36.1181818,
                "end_time": 36.2022727,
                "pitch": 39,
                "velocity": 64,
                "duration": 0.0840909,
                "tempo": 120.0
            },
            {
                "start_time": 36.2181818,
                "end_time": 36.3022727,
                "pitch": 32,
                "velocity": 64,
                "duration": 0.0840909,
                "tempo": 120.0
            },
            {
                "start_time": 36.3181818,
                "end_time": 36.4022727,
                "pitch": 39,
                "velocity": 64,
                "duration": 0.0840909,
                "tempo": 120.0
            },
            {
                "start_time": 36.4181818,
                "end_time": 36.5022727,
                "pitch": 32,
                "velocity": 64,
                "duration": 0.0840909,
                "tempo": 120.0
            },
            {
                "start_time": 36.5181818,
                "end_time": 36.6022727,
                "pitch": 44,
                "velocity": 64,
                "duration": 0.0840909,
                "tempo": 120.0
            },
            {
                "start_time": 36.6181818,
                "end_time": 36.7022727,
                "pitch": 32,
                "velocity": 64,
                "duration": 0.0840909,
                "tempo": 120.0
            },
            {
                "start_time": 36.7181818,
                "end_time": 36.9022727,
                "pitch": 32,
                "velocity": 64,
                "duration": 0.1840909,
                "tempo": 120.0
            },
            {
                "start_time": 36.9181818,
                "end_time": 37.0022727,
                "pitch": 32,
                "velocity": 64,
                "duration": 0.0840909,
                "tempo": 120.0
            },
            {
                "start_time": 37.0204545,
                "end_time": 37.1022727,
                "pitch": 32,
                "velocity": 64,
                "duration": 0.0818182,
                "tempo": 120.0
            },
            {
                "start_time": 37.1204545,
                "end_time": 37.2045455,
                "pitch": 44,
                "velocity": 64,
                "duration": 0.0840909,
                "tempo": 120.0
            },
            {
                "start_time": 37.2204545,
                "end_time": 37.3045455,
                "pitch": 32,
                "velocity": 64,
                "duration": 0.0840909,
                "tempo": 120.0
            },
            {
                "start_time": 37.3204545,
                "end_time": 37.4045455,
                "pitch": 35,
                "velocity": 64,
                "duration": 0.0840909,
                "tempo": 120.0
            },
            {
                "start_time": 37.4204545,
                "end_time": 37.5045455,
                "pitch": 32,
                "velocity": 64,
                "duration": 0.0840909,
                "tempo": 120.0
            },
            {
                "start_time": 37.5204545,
                "end_time": 37.6045455,
                "pitch": 34,
                "velocity": 64,
                "duration": 0.0840909,
                "tempo": 120.0
            },
            {
                "start_time": 37.6204545,
                "end_time": 37.7045455,
                "pitch": 35,
                "velocity": 64,
                "duration": 0.0840909,
                "tempo": 120.0
            },
            {
                "start_time": 37.7204545,
                "end_time": 37.9045455,
                "pitch": 37,
                "velocity": 64,
                "duration": 0.1840909,
                "tempo": 120.0
            },
            {
                "start_time": 37.9204545,
                "end_time": 38.0045455,
                "pitch": 32,
                "velocity": 64,
                "duration": 0.0840909,
                "tempo": 120.0
            },
            {
                "start_time": 38.0204545,
                "end_time": 38.2090909,
                "pitch": 30,
                "velocity": 64,
                "duration": 0.1886364,
                "tempo": 120.0
            },
            {
                "start_time": 38.225,
                "end_time": 38.3136364,
                "pitch": 32,
                "velocity": 64,
                "duration": 0.0886364,
                "tempo": 120.0
            },
            {
                "start_time": 38.3318182,
                "end_time": 38.5386364,
                "pitch": 30,
                "velocity": 64,
                "duration": 0.2068182,
                "tempo": 120.0
            }
        ],
        "Violin": [
            {
                "start_time": 0.0113636,
                "end_time": 0.1931818,
                "pitch": 48,
                "velocity": 101,
                "duration": 0.1818182,
                "tempo": 120.0
            },
            {
                "start_time": 0.2113636,
                "end_time": 0.3931818,
                "pitch": 53,
                "velocity": 101,
                "duration": 0.1818182,
                "tempo": 120.0
            },
            {
                "start_time": 0.4113636,
                "end_time": 0.5909091,
                "pitch": 55,
                "velocity": 101,
                "duration": 0.1795455,
                "tempo": 120.0
            },
            {
                "start_time": 0.6068182,
                "end_time": 0.6886364,
                "pitch": 53,
                "velocity": 101,
                "duration": 0.0818182,
                "tempo": 120.0
            },
            {
                "start_time": 0.7045455,
                "end_time": 0.9863636,
                "pitch": 60,
                "velocity": 101,
                "duration": 0.2818182,
                "tempo": 120.0
            },
            {
                "start_time": 1.0045455,
                "end_time": 1.1886364,
                "pitch": 55,
                "velocity": 101,
                "duration": 0.1840909,
                "tempo": 120.0
            },
            {
                "start_time": 1.2045455,
                "end_time": 1.3931818,
                "pitch": 53,
                "velocity": 101,
                "duration": 0.1886364,
                "tempo": 120.0
            },
            {
                "start_time": 1.4113636,
                "end_time": 1.4954545,
                "pitch": 48,
                "velocity": 101,
                "duration": 0.0840909,
                "tempo": 120.0
            },
            {
                "start_time": 1.5136364,
                "end_time": 1.6,
                "pitch": 47,
                "velocity": 101,
                "duration": 0.0863636,
                "tempo": 120.0
            },
            {
                "start_time": 1.6159091,
                "end_time": 1.7909091,
                "pitch": 45,
                "velocity": 101,
                "duration": 0.175,
                "tempo": 120.0
            },
            {
                "start_time": 1.8068182,
                "end_time": 1.9818182,
                "pitch": 50,
                "velocity": 101,
                "duration": 0.175,
                "tempo": 120.0
            },
            {
                "start_time": 1.9977273,
                "end_time": 2.1863636,
                "pitch": 52,
                "velocity": 101,
                "duration": 0.1886364,
                "tempo": 120.0
            },
            {
                "start_time": 2.2022727,
                "end_time": 2.2886364,
                "pitch": 50,
                "velocity": 101,
                "duration": 0.0863636,
                "tempo": 120.0
            },
            {
                "start_time": 2.3068182,
                "end_time": 2.5931818,
                "pitch": 57,
                "velocity": 101,
                "duration": 0.2863636,
                "tempo": 120.0
            },
            {
                "start_time": 2.6090909,
                "end_time": 2.7954545,
                "pitch": 52,
                "velocity": 101,
                "duration": 0.1863636,
                "tempo": 120.0
            },
            {
                "start_time": 2.8113636,
                "end_time": 3.0,
                "pitch": 50,
                "velocity": 101,
                "duration": 0.1886364,
                "tempo": 120.0
            },
            {
                "start_time": 3.0159091,
                "end_time": 3.2045455,
                "pitch": 45,
                "velocity": 101,
                "duration": 0.1886364,
                "tempo": 120.0
            },
            {
                "start_time": 3.2204545,
                "end_time": 3.3954545,
                "pitch": 48,
                "velocity": 101,
                "duration": 0.175,
                "tempo": 120.0
            },
            {
                "start_time": 3.4113636,
                "end_time": 3.5886364,
                "pitch": 53,
                "velocity": 101,
                "duration": 0.1772727,
                "tempo": 120.0
            },
            {
                "start_time": 3.6045455,
                "end_time": 3.7909091,
                "pitch": 55,
                "velocity": 101,
                "duration": 0.1863636,
                "tempo": 120.0
            },
            {
                "start_time": 3.8090909,
                "end_time": 3.8954545,
                "pitch": 53,
                "velocity": 101,
                "duration": 0.0863636,
                "tempo": 120.0
            },
            {
                "start_time": 3.9113636,
                "end_time": 4.1977273,
                "pitch": 60,
                "velocity": 101,
                "duration": 0.2863636,
                "tempo": 120.0
            },
            {
                "start_time": 4.2136364,
                "end_time": 4.3977273,
                "pitch": 55,
                "velocity": 101,
                "duration": 0.1840909,
                "tempo": 120.0
            },
            {
                "start_time": 4.4136364,
                "end_time": 4.6022727,
                "pitch": 53,
                "velocity": 101,
                "duration": 0.1886364,
                "tempo": 120.0
            },
            {
                "start_time": 4.6204545,
                "end_time": 4.7045455,
                "pitch": 48,
                "velocity": 101,
                "duration": 0.0840909,
                "tempo": 120.0
            },
            {
                "start_time": 4.7227273,
                "end_time": 4.8090909,
                "pitch": 47,
                "velocity": 101,
                "duration": 0.0863636,
                "tempo": 120.0
            },
            {
                "start_time": 4.825,
                "end_time": 5.0045455,
                "pitch": 45,
                "velocity": 101,
                "duration": 0.1795455,
                "tempo": 120.0
            },
            {
                "start_time": 5.0204545,
                "end_time": 5.2,
                "pitch": 50,
                "velocity": 101,
                "duration": 0.1795455,
                "tempo": 120.0
            },
            {
                "start_time": 5.2181818,
                "end_time": 5.4022727,
                "pitch": 52,
                "velocity": 101,
                "duration": 0.1840909,
                "tempo": 120.0
            },
            {
                "start_time": 5.4181818,
                "end_time": 5.5022727,
                "pitch": 50,
                "velocity": 101,
                "duration": 0.0840909,
                "tempo": 120.0
            },
            {
                "start_time": 5.5181818,
                "end_time": 5.8045455,
                "pitch": 57,
                "velocity": 101,
                "duration": 0.2863636,
                "tempo": 120.0
            },
            {
                "start_time": 5.8204545,
                "end_time": 6.0068182,
                "pitch": 52,
                "velocity": 101,
                "duration": 0.1863636,
                "tempo": 120.0
            },
            {
                "start_time": 6.0227273,
                "end_time": 6.2113636,
                "pitch": 50,
                "velocity": 101,
                "duration": 0.1886364,
                "tempo": 120.0
            },
            {
                "start_time": 6.2272727,
                "end_time": 6.4159091,
                "pitch": 45,
                "velocity": 101,
                "duration": 0.1886364,
                "tempo": 120.0
            },
            {
                "start_time": 6.4340909,
                "end_time": 6.6136364,
                "pitch": 48,
                "velocity": 101,
                "duration": 0.1795455,
                "tempo": 120.0
            },
            {
                "start_time": 6.6295455,
                "end_time": 6.8090909,
                "pitch": 53,
                "velocity": 101,
                "duration": 0.1795455,
                "tempo": 120.0
            },
            {
                "start_time": 6.825,
                "end_time": 7.0090909,
                "pitch": 55,
                "velocity": 101,
                "duration": 0.1840909,
                "tempo": 120.0
            },
            {
                "start_time": 7.025,
                "end_time": 7.1090909,
                "pitch": 53,
                "velocity": 101,
                "duration": 0.0840909,
                "tempo": 120.0
            },
            {
                "start_time": 7.125,
                "end_time": 7.4045455,
                "pitch": 60,
                "velocity": 101,
                "duration": 0.2795455,
                "tempo": 120.0
            },
            {
                "start_time": 7.4204545,
                "end_time": 7.6022727,
                "pitch": 55,
                "velocity": 101,
                "duration": 0.1818182,
                "tempo": 120.0
            },
            {
                "start_time": 7.6181818,
                "end_time": 7.8113636,
                "pitch": 53,
                "velocity": 101,
                "duration": 0.1931818,
                "tempo": 120.0
            },
            {
                "start_time": 7.8272727,
                "end_time": 7.9159091,
                "pitch": 48,
                "velocity": 101,
                "duration": 0.0886364,
                "tempo": 120.0
            },
            {
                "start_time": 7.9340909,
                "end_time": 8.0227273,
                "pitch": 47,
                "velocity": 101,
                "duration": 0.0886364,
                "tempo": 120.0
            },
            {
                "start_time": 8.0386364,
                "end_time": 8.2181818,
                "pitch": 45,
                "velocity": 101,
                "duration": 0.1795455,
                "tempo": 120.0
            },
            {
                "start_time": 8.2363636,
                "end_time": 8.4159091,
                "pitch": 50,
                "velocity": 101,
                "duration": 0.1795455,
                "tempo": 120.0
            },
            {
                "start_time": 8.4318182,
                "end_time": 8.6113636,
                "pitch": 52,
                "velocity": 101,
                "duration": 0.1795455,
                "tempo": 120.0
            },
            {
                "start_time": 8.6272727,
                "end_time": 8.7090909,
                "pitch": 50,
                "velocity": 101,
                "duration": 0.0818182,
                "tempo": 120.0
            },
            {
                "start_time": 8.725,
                "end_time": 9.0090909,
                "pitch": 57,
                "velocity": 101,
                "duration": 0.2840909,
                "tempo": 120.0
            },
            {
                "start_time": 9.025,
                "end_time": 9.2090909,
                "pitch": 52,
                "velocity": 101,
                "duration": 0.1840909,
                "tempo": 120.0
            },
            {
                "start_time": 9.2272727,
                "end_time": 9.4204545,
                "pitch": 50,
                "velocity": 101,
                "duration": 0.1931818,
                "tempo": 120.0
            },
            {
                "start_time": 9.4363636,
                "end_time": 9.6318182,
                "pitch": 45,
                "velocity": 101,
                "duration": 0.1954545,
                "tempo": 120.0
            },
            {
                "start_time": 9.6477273,
                "end_time": 9.8227273,
                "pitch": 48,
                "velocity": 101,
                "duration": 0.175,
                "tempo": 120.0
            },
            {
                "start_time": 9.8386364,
                "end_time": 10.0136364,
                "pitch": 53,
                "velocity": 101,
                "duration": 0.175,
                "tempo": 120.0
            },
            {
                "start_time": 10.0295455,
                "end_time": 10.2159091,
                "pitch": 55,
                "velocity": 101,
                "duration": 0.1863636,
                "tempo": 120.0
            },
            {
                "start_time": 10.2318182,
                "end_time": 10.3159091,
                "pitch": 53,
                "velocity": 101,
                "duration": 0.0840909,
                "tempo": 120.0
            },
            {
                "start_time": 10.3318182,
                "end_time": 10.6204545,
                "pitch": 60,
                "velocity": 101,
                "duration": 0.2886364,
                "tempo": 120.0
            },
            {
                "start_time": 10.6386364,
                "end_time": 10.8272727,
                "pitch": 55,
                "velocity": 101,
                "duration": 0.1886364,
                "tempo": 120.0
            },
            {
                "start_time": 10.8431818,
                "end_time": 11.0318182,
                "pitch": 53,
                "velocity": 101,
                "duration": 0.1886364,
                "tempo": 120.0
            },
            {
                "start_time": 11.05,
                "end_time": 11.1340909,
                "pitch": 48,
                "velocity": 101,
                "duration": 0.0840909,
                "tempo": 120.0
            },
            {
                "start_time": 11.1522727,
                "end_time": 11.2386364,
                "pitch": 47,
                "velocity": 101,
                "duration": 0.0863636,
                "tempo": 120.0
            },
            {
                "start_time": 11.2545455,
                "end_time": 11.4295455,
                "pitch": 45,
                "velocity": 101,
                "duration": 0.175,
                "tempo": 120.0
            },
            {
                "start_time": 11.4454545,
                "end_time": 11.6204545,
                "pitch": 50,
                "velocity": 101,
                "duration": 0.175,
                "tempo": 120.0
            },
            {
                "start_time": 11.6363636,
                "end_time": 11.825,
                "pitch": 52,
                "velocity": 101,
                "duration": 0.1886364,
                "tempo": 120.0
            },
            {
                "start_time": 11.8409091,
                "end_time": 11.9272727,
                "pitch": 50,
                "velocity": 101,
                "duration": 0.0863636,
                "tempo": 120.0
            },
            {
                "start_time": 11.9454545,
                "end_time": 12.2318182,
                "pitch": 57,
                "velocity": 101,
                "duration": 0.2863636,
                "tempo": 120.0
            },
            {
                "start_time": 12.2477273,
                "end_time": 12.4340909,
                "pitch": 52,
                "velocity": 101,
                "duration": 0.1863636,
                "tempo": 120.0
            },
            {
                "start_time": 12.45,
                "end_time": 12.6295455,
                "pitch": 50,
                "velocity": 101,
                "duration": 0.1795455,
                "tempo": 120.0
            },
            {
                "start_time": 12.6454545,
                "end_time": 13.0295455,
                "pitch": 45,
                "velocity": 101,
                "duration": 0.3840909,
                "tempo": 120.0
            },
            {
                "start_time": 13.0477273,
                "end_time": 13.1318182,
                "pitch": 68,
                "velocity": 101,
                "duration": 0.0840909,
                "tempo": 120.0
            },
            {
                "start_time": 13.15,
                "end_time": 13.4363636,
                "pitch": 70,
                "velocity": 101,
                "duration": 0.2863636,
                "tempo": 120.0
            },
            {
                "start_time": 13.4545455,
                "end_time": 13.5386364,
                "pitch": 71,
                "velocity": 101,
                "duration": 0.0840909,
                "tempo": 120.0
            },
            {
                "start_time": 13.5545455,
                "end_time": 13.8386364,
                "pitch": 68,
                "velocity": 101,
                "duration": 0.2840909,
                "tempo": 120.0
            },
            {
                "start_time": 13.8545455,
                "end_time": 13.9386364,
                "pitch": 59,
                "velocity": 101,
                "duration": 0.0840909,
                "tempo": 120.0
            },
            {
                "start_time": 13.9545455,
                "end_time": 14.0386364,
                "pitch": 61,
                "velocity": 101,
                "duration": 0.0840909,
                "tempo": 120.0
            },
            {
                "start_time": 14.0545455,
                "end_time": 14.1386364,
                "pitch": 68,
                "velocity": 101,
                "duration": 0.0840909,
                "tempo": 120.0
            },
            {
                "start_time": 14.1568182,
                "end_time": 14.2409091,
                "pitch": 66,
                "velocity": 101,
                "duration": 0.0840909,
                "tempo": 120.0
            },
            {
                "start_time": 14.2568182,
                "end_time": 14.3409091,
                "pitch": 64,
                "velocity": 101,
                "duration": 0.0840909,
                "tempo": 120.0
            },
            {
                "start_time": 14.3568182,
                "end_time": 14.4409091,
                "pitch": 63,
                "velocity": 101,
                "duration": 0.0840909,
                "tempo": 120.0
            },
            {
                "start_time": 14.4568182,
                "end_time": 14.6386364,
                "pitch": 61,
                "velocity": 101,
                "duration": 0.1818182,
                "tempo": 120.0
            },
            {
                "start_time": 14.6545455,
                "end_time": 14.7363636,
                "pitch": 68,
                "velocity": 101,
                "duration": 0.0818182,
                "tempo": 120.0
            },
            {
                "start_time": 14.7522727,
                "end_time": 15.0386364,
                "pitch": 70,
                "velocity": 101,
                "duration": 0.2863636,
                "tempo": 120.0
            },
            {
                "start_time": 15.0545455,
                "end_time": 15.1409091,
                "pitch": 71,
                "velocity": 101,
                "duration": 0.0863636,
                "tempo": 120.0
            },
            {
                "start_time": 15.1590909,
                "end_time": 15.4454545,
                "pitch": 68,
                "velocity": 101,
                "duration": 0.2863636,
                "tempo": 120.0
            },
            {
                "start_time": 15.4613636,
                "end_time": 15.5454545,
                "pitch": 63,
                "velocity": 101,
                "duration": 0.0840909,
                "tempo": 120.0
            },
            {
                "start_time": 15.5636364,
                "end_time": 15.6477273,
                "pitch": 61,
                "velocity": 101,
                "duration": 0.0840909,
                "tempo": 120.0
            },
            {
                "start_time": 15.6636364,
                "end_time": 15.75,
                "pitch": 59,
                "velocity": 101,
                "duration": 0.0863636,
                "tempo": 120.0
            },
            {
                "start_time": 15.7659091,
                "end_time": 15.8522727,
                "pitch": 63,
                "velocity": 101,
                "duration": 0.0863636,
                "tempo": 120.0
            },
            {
                "start_time": 15.8681818,
                "end_time": 16.2545455,
                "pitch": 61,
                "velocity": 101,
                "duration": 0.3863636,
                "tempo": 120.0
            },
            {
                "start_time": 16.2704545,
                "end_time": 16.3522727,
                "pitch": 68,
                "velocity": 101,
                "duration": 0.0818182,
                "tempo": 120.0
            },
            {
                "start_time": 16.3681818,
                "end_time": 16.65,
                "pitch": 70,
                "velocity": 101,
                "duration": 0.2818182,
                "tempo": 120.0
            },
            {
                "start_time": 16.6659091,
                "end_time": 16.75,
                "pitch": 71,
                "velocity": 101,
                "duration": 0.0840909,
                "tempo": 120.0
            },
            {
                "start_time": 16.7659091,
                "end_time": 17.05,
                "pitch": 68,
                "velocity": 101,
                "duration": 0.2840909,
                "tempo": 120.0
            },
            {
                "start_time": 17.0659091,
                "end_time": 17.15,
                "pitch": 59,
                "velocity": 101,
                "duration": 0.0840909,
                "tempo": 120.0
            },
            {
                "start_time": 17.1659091,
                "end_time": 17.25,
                "pitch": 61,
                "velocity": 101,
                "duration": 0.0840909,
                "tempo": 120.0
            },
            {
                "start_time": 17.2659091,
                "end_time": 17.35,
                "pitch": 68,
                "velocity": 101,
                "duration": 0.0840909,
                "tempo": 120.0
            },
            {
                "start_time": 17.3681818,
                "end_time": 17.4522727,
                "pitch": 66,
                "velocity": 101,
                "duration": 0.0840909,
                "tempo": 120.0
            },
            {
                "start_time": 17.4681818,
                "end_time": 17.5522727,
                "pitch": 64,
                "velocity": 101,
                "duration": 0.0840909,
                "tempo": 120.0
            },
            {
                "start_time": 17.5681818,
                "end_time": 17.6522727,
                "pitch": 63,
                "velocity": 101,
                "duration": 0.0840909,
                "tempo": 120.0
            },
            {
                "start_time": 17.6681818,
                "end_time": 17.8522727,
                "pitch": 61,
                "velocity": 101,
                "duration": 0.1840909,
                "tempo": 120.0
            },
            {
                "start_time": 17.8681818,
                "end_time": 17.9522727,
                "pitch": 68,
                "velocity": 101,
                "duration": 0.0840909,
                "tempo": 120.0
            },
            {
                "start_time": 17.9681818,
                "end_time": 18.2545455,
                "pitch": 70,
                "velocity": 101,
                "duration": 0.2863636,
                "tempo": 120.0
            },
            {
                "start_time": 18.2704545,
                "end_time": 18.3545455,
                "pitch": 71,
                "velocity": 101,
                "duration": 0.0840909,
                "tempo": 120.0
            },
            {
                "start_time": 18.3704545,
                "end_time": 18.6545455,
                "pitch": 68,
                "velocity": 101,
                "duration": 0.2840909,
                "tempo": 120.0
            },
            {
                "start_time": 18.6727273,
                "end_time": 18.7545455,
                "pitch": 63,
                "velocity": 101,
                "duration": 0.0818182,
                "tempo": 120.0
            },
            {
                "start_time": 18.7727273,
                "end_time": 18.8545455,
                "pitch": 61,
                "velocity": 101,
                "duration": 0.0818182,
                "tempo": 120.0
            },
            {
                "start_time": 18.8727273,
                "end_time": 18.9568182,
                "pitch": 59,
                "velocity": 101,
                "duration": 0.0840909,
                "tempo": 120.0
            },
            {
                "start_time": 18.975,
                "end_time": 19.0590909,
                "pitch": 63,
                "velocity": 101,
                "duration": 0.0840909,
                "tempo": 120.0
            },
            {
                "start_time": 19.0772727,
                "end_time": 19.4613636,
                "pitch": 61,
                "velocity": 101,
                "duration": 0.3840909,
                "tempo": 120.0
            },
            {
                "start_time": 19.4795455,
                "end_time": 19.5613636,
                "pitch": 68,
                "velocity": 101,
                "duration": 0.0818182,
                "tempo": 120.0
            },
            {
                "start_time": 19.5772727,
                "end_time": 19.8590909,
                "pitch": 70,
                "velocity": 101,
                "duration": 0.2818182,
                "tempo": 120.0
            },
            {
                "start_time": 19.875,
                "end_time": 19.9590909,
                "pitch": 71,
                "velocity": 101,
                "duration": 0.0840909,
                "tempo": 120.0
            },
            {
                "start_time": 19.975,
                "end_time": 20.2590909,
                "pitch": 68,
                "velocity": 101,
                "duration": 0.2840909,
                "tempo": 120.0
            },
            {
                "start_time": 20.2772727,
                "end_time": 20.3590909,
                "pitch": 59,
                "velocity": 101,
                "duration": 0.0818182,
                "tempo": 120.0
            },
            {
                "start_time": 20.3772727,
                "end_time": 20.4613636,
                "pitch": 61,
                "velocity": 101,
                "duration": 0.0840909,
                "tempo": 120.0
            },
            {
                "start_time": 20.4772727,
                "end_time": 20.5613636,
                "pitch": 68,
                "velocity": 101,
                "duration": 0.0840909,
                "tempo": 120.0
            },
            {
                "start_time": 20.5772727,
                "end_time": 20.6613636,
                "pitch": 66,
                "velocity": 101,
                "duration": 0.0840909,
                "tempo": 120.0
            },
            {
                "start_time": 20.6772727,
                "end_time": 20.7613636,
                "pitch": 64,
                "velocity": 101,
                "duration": 0.0840909,
                "tempo": 120.0
            },
            {
                "start_time": 20.7772727,
                "end_time": 20.8613636,
                "pitch": 63,
                "velocity": 101,
                "duration": 0.0840909,
                "tempo": 120.0
            },
            {
                "start_time": 20.8772727,
                "end_time": 21.0613636,
                "pitch": 61,
                "velocity": 101,
                "duration": 0.1840909,
                "tempo": 120.0
            },
            {
                "start_time": 21.0772727,
                "end_time": 21.1613636,
                "pitch": 68,
                "velocity": 101,
                "duration": 0.0840909,
                "tempo": 120.0
            },
            {
                "start_time": 21.1772727,
                "end_time": 21.4613636,
                "pitch": 70,
                "velocity": 101,
                "duration": 0.2840909,
                "tempo": 120.0
            },
            {
                "start_time": 21.4795455,
                "end_time": 21.5636364,
                "pitch": 71,
                "velocity": 101,
                "duration": 0.0840909,
                "tempo": 120.0
            },
            {
                "start_time": 21.5795455,
                "end_time": 21.8636364,
                "pitch": 68,
                "velocity": 101,
                "duration": 0.2840909,
                "tempo": 120.0
            },
            {
                "start_time": 21.8795455,
                "end_time": 21.9636364,
                "pitch": 63,
                "velocity": 101,
                "duration": 0.0840909,
                "tempo": 120.0
            },
            {
                "start_time": 21.9795455,
                "end_time": 22.0636364,
                "pitch": 61,
                "velocity": 101,
                "duration": 0.0840909,
                "tempo": 120.0
            },
            {
                "start_time": 22.0795455,
                "end_time": 22.1659091,
                "pitch": 59,
                "velocity": 101,
                "duration": 0.0863636,
                "tempo": 120.0
            },
            {
                "start_time": 22.1818182,
                "end_time": 22.2681818,
                "pitch": 63,
                "velocity": 101,
                "duration": 0.0863636,
                "tempo": 120.0
            },
            {
                "start_time": 22.2863636,
                "end_time": 22.6704545,
                "pitch": 61,
                "velocity": 101,
                "duration": 0.3840909,
                "tempo": 120.0
            },
            {
                "start_time": 22.6863636,
                "end_time": 22.7681818,
                "pitch": 68,
                "velocity": 101,
                "duration": 0.0818182,
                "tempo": 120.0
            },
            {
                "start_time": 22.7840909,
                "end_time": 23.0659091,
                "pitch": 70,
                "velocity": 101,
                "duration": 0.2818182,
                "tempo": 120.0
            },
            {
                "start_time": 23.0840909,
                "end_time": 23.1659091,
                "pitch": 71,
                "velocity": 101,
                "duration": 0.0818182,
                "tempo": 120.0
            },
            {
                "start_time": 23.1840909,
                "end_time": 23.4681818,
                "pitch": 68,
                "velocity": 101,
                "duration": 0.2840909,
                "tempo": 120.0
            },
            {
                "start_time": 23.4840909,
                "end_time": 23.5681818,
                "pitch": 59,
                "velocity": 101,
                "duration": 0.0840909,
                "tempo": 120.0
            },
            {
                "start_time": 23.5840909,
                "end_time": 23.6681818,
                "pitch": 61,
                "velocity": 101,
                "duration": 0.0840909,
                "tempo": 120.0
            },
            {
                "start_time": 23.6863636,
                "end_time": 23.7681818,
                "pitch": 68,
                "velocity": 101,
                "duration": 0.0818182,
                "tempo": 120.0
            },
            {
                "start_time": 23.7863636,
                "end_time": 23.8681818,
                "pitch": 66,
                "velocity": 101,
                "duration": 0.0818182,
                "tempo": 120.0
            },
            {
                "start_time": 23.8863636,
                "end_time": 23.9681818,
                "pitch": 64,
                "velocity": 101,
                "duration": 0.0818182,
                "tempo": 120.0
            },
            {
                "start_time": 23.9863636,
                "end_time": 24.0681818,
                "pitch": 63,
                "velocity": 101,
                "duration": 0.0818182,
                "tempo": 120.0
            },
            {
                "start_time": 24.0863636,
                "end_time": 24.2704545,
                "pitch": 61,
                "velocity": 101,
                "duration": 0.1840909,
                "tempo": 120.0
            },
            {
                "start_time": 24.2863636,
                "end_time": 24.3704545,
                "pitch": 68,
                "velocity": 101,
                "duration": 0.0840909,
                "tempo": 120.0
            },
            {
                "start_time": 24.3886364,
                "end_time": 24.6727273,
                "pitch": 70,
                "velocity": 101,
                "duration": 0.2840909,
                "tempo": 120.0
            },
            {
                "start_time": 24.6886364,
                "end_time": 24.7727273,
                "pitch": 71,
                "velocity": 101,
                "duration": 0.0840909,
                "tempo": 120.0
            },
            {
                "start_time": 24.7886364,
                "end_time": 25.0727273,
                "pitch": 68,
                "velocity": 101,
                "duration": 0.2840909,
                "tempo": 120.0
            },
            {
                "start_time": 25.0886364,
                "end_time": 25.1727273,
                "pitch": 63,
                "velocity": 101,
                "duration": 0.0840909,
                "tempo": 120.0
            },
            {
                "start_time": 25.1886364,
                "end_time": 25.2727273,
                "pitch": 61,
                "velocity": 101,
                "duration": 0.0840909,
                "tempo": 120.0
            },
            {
                "start_time": 25.2886364,
                "end_time": 25.3727273,
                "pitch": 59,
                "velocity": 101,
                "duration": 0.0840909,
                "tempo": 120.0
            },
            {
                "start_time": 25.3909091,
                "end_time": 25.4772727,
                "pitch": 63,
                "velocity": 101,
                "duration": 0.0863636,
                "tempo": 120.0
            },
            {
                "start_time": 25.4931818,
                "end_time": 25.8795455,
                "pitch": 61,
                "velocity": 101,
                "duration": 0.3863636,
                "tempo": 120.0
            },
            {
                "start_time": 25.8954545,
                "end_time": 25.9772727,
                "pitch": 68,
                "velocity": 101,
                "duration": 0.0818182,
                "tempo": 120.0
            },
            {
                "start_time": 25.9931818,
                "end_time": 26.275,
                "pitch": 70,
                "velocity": 101,
                "duration": 0.2818182,
                "tempo": 120.0
            },
            {
                "start_time": 26.2931818,
                "end_time": 26.3772727,
                "pitch": 71,
                "velocity": 101,
                "duration": 0.0840909,
                "tempo": 120.0
            },
            {
                "start_time": 26.3931818,
                "end_time": 26.6772727,
                "pitch": 68,
                "velocity": 101,
                "duration": 0.2840909,
                "tempo": 120.0
            },
            {
                "start_time": 26.6931818,
                "end_time": 26.7772727,
                "pitch": 59,
                "velocity": 101,
                "duration": 0.0840909,
                "tempo": 120.0
            },
            {
                "start_time": 26.7931818,
                "end_time": 26.8772727,
                "pitch": 61,
                "velocity": 101,
                "duration": 0.0840909,
                "tempo": 120.0
            },
            {
                "start_time": 26.8931818,
                "end_time": 26.9772727,
                "pitch": 68,
                "velocity": 101,
                "duration": 0.0840909,
                "tempo": 120.0
            },
            {
                "start_time": 26.9931818,
                "end_time": 27.0772727,
                "pitch": 66,
                "velocity": 101,
                "duration": 0.0840909,
                "tempo": 120.0
            },
            {
                "start_time": 27.0931818,
                "end_time": 27.1772727,
                "pitch": 64,
                "velocity": 101,
                "duration": 0.0840909,
                "tempo": 120.0
            },
            {
                "start_time": 27.1931818,
                "end_time": 27.2772727,
                "pitch": 63,
                "velocity": 101,
                "duration": 0.0840909,
                "tempo": 120.0
            },
            {
                "start_time": 27.2931818,
                "end_time": 27.4795455,
                "pitch": 61,
                "velocity": 101,
                "duration": 0.1863636,
                "tempo": 120.0
            },
            {
                "start_time": 27.4954545,
                "end_time": 27.5795455,
                "pitch": 68,
                "velocity": 101,
                "duration": 0.0840909,
                "tempo": 120.0
            },
            {
                "start_time": 27.5954545,
                "end_time": 27.8795455,
                "pitch": 70,
                "velocity": 101,
                "duration": 0.2840909,
                "tempo": 120.0
            },
            {
                "start_time": 27.8977273,
                "end_time": 27.9795455,
                "pitch": 71,
                "velocity": 101,
                "duration": 0.0818182,
                "tempo": 120.0
            },
            {
                "start_time": 27.9977273,
                "end_time": 28.2818182,
                "pitch": 68,
                "velocity": 101,
                "duration": 0.2840909,
                "tempo": 120.0
            },
            {
                "start_time": 28.2977273,
                "end_time": 28.3818182,
                "pitch": 63,
                "velocity": 101,
                "duration": 0.0840909,
                "tempo": 120.0
            },
            {
                "start_time": 28.3977273,
                "end_time": 28.4818182,
                "pitch": 61,
                "velocity": 101,
                "duration": 0.0840909,
                "tempo": 120.0
            },
            {
                "start_time": 28.5,
                "end_time": 28.5840909,
                "pitch": 59,
                "velocity": 101,
                "duration": 0.0840909,
                "tempo": 120.0
            },
            {
                "start_time": 28.6022727,
                "end_time": 28.6863636,
                "pitch": 63,
                "velocity": 101,
                "duration": 0.0840909,
                "tempo": 120.0
            },
            {
                "start_time": 28.7045455,
                "end_time": 29.0886364,
                "pitch": 61,
                "velocity": 101,
                "duration": 0.3840909,
                "tempo": 120.0
            },
            {
                "start_time": 29.1068182,
                "end_time": 29.1886364,
                "pitch": 68,
                "velocity": 101,
                "duration": 0.0818182,
                "tempo": 120.0
            },
            {
                "start_time": 29.2045455,
                "end_time": 29.4863636,
                "pitch": 70,
                "velocity": 101,
                "duration": 0.2818182,
                "tempo": 120.0
            },
            {
                "start_time": 29.5045455,
                "end_time": 29.5863636,
                "pitch": 71,
                "velocity": 101,
                "duration": 0.0818182,
                "tempo": 120.0
            },
            {
                "start_time": 29.6045455,
                "end_time": 29.8886364,
                "pitch": 68,
                "velocity": 101,
                "duration": 0.2840909,
                "tempo": 120.0
            },
            {
                "start_time": 29.9045455,
                "end_time": 29.9886364,
                "pitch": 59,
                "velocity": 101,
                "duration": 0.0840909,
                "tempo": 120.0
            },
            {
                "start_time": 30.0045455,
                "end_time": 30.0886364,
                "pitch": 61,
                "velocity": 101,
                "duration": 0.0840909,
                "tempo": 120.0
            },
            {
                "start_time": 30.1045455,
                "end_time": 30.1886364,
                "pitch": 68,
                "velocity": 101,
                "duration": 0.0840909,
                "tempo": 120.0
            },
            {
                "start_time": 30.2045455,
                "end_time": 30.2886364,
                "pitch": 66,
                "velocity": 101,
                "duration": 0.0840909,
                "tempo": 120.0
            },
            {
                "start_time": 30.3068182,
                "end_time": 30.3909091,
                "pitch": 64,
                "velocity": 101,
                "duration": 0.0840909,
                "tempo": 120.0
            },
            {
                "start_time": 30.4068182,
                "end_time": 30.4909091,
                "pitch": 63,
                "velocity": 101,
                "duration": 0.0840909,
                "tempo": 120.0
            },
            {
                "start_time": 30.5068182,
                "end_time": 30.6909091,
                "pitch": 61,
                "velocity": 101,
                "duration": 0.1840909,
                "tempo": 120.0
            },
            {
                "start_time": 30.7068182,
                "end_time": 30.7909091,
                "pitch": 68,
                "velocity": 101,
                "duration": 0.0840909,
                "tempo": 120.0
            },
            {
                "start_time": 30.8068182,
                "end_time": 31.0909091,
                "pitch": 70,
                "velocity": 101,
                "duration": 0.2840909,
                "tempo": 120.0
            },
            {
                "start_time": 31.1068182,
                "end_time": 31.1909091,
                "pitch": 71,
                "velocity": 101,
                "duration": 0.0840909,
                "tempo": 120.0
            },
            {
                "start_time": 31.2068182,
                "end_time": 31.4931818,
                "pitch": 68,
                "velocity": 101,
                "duration": 0.2863636,
                "tempo": 120.0
            },
            {
                "start_time": 31.5090909,
                "end_time": 31.5931818,
                "pitch": 63,
                "velocity": 101,
                "duration": 0.0840909,
                "tempo": 120.0
            },
            {
                "start_time": 31.6090909,
                "end_time": 31.6931818,
                "pitch": 61,
                "velocity": 101,
                "duration": 0.0840909,
                "tempo": 120.0
            },
            {
                "start_time": 31.7113636,
                "end_time": 31.7954545,
                "pitch": 59,
                "velocity": 101,
                "duration": 0.0840909,
                "tempo": 120.0
            },
            {
                "start_time": 31.8136364,
                "end_time": 31.8977273,
                "pitch": 63,
                "velocity": 101,
                "duration": 0.0840909,
                "tempo": 120.0
            },
            {
                "start_time": 31.9159091,
                "end_time": 32.3,
                "pitch": 61,
                "velocity": 101,
                "duration": 0.3840909,
                "tempo": 120.0
            },
            {
                "start_time": 32.3181818,
                "end_time": 32.3977273,
                "pitch": 68,
                "velocity": 101,
                "duration": 0.0795455,
                "tempo": 120.0
            },
            {
                "start_time": 32.4159091,
                "end_time": 32.6954545,
                "pitch": 70,
                "velocity": 101,
                "duration": 0.2795455,
                "tempo": 120.0
            },
            {
                "start_time": 32.7136364,
                "end_time": 32.7954545,
                "pitch": 71,
                "velocity": 101,
                "duration": 0.0818182,
                "tempo": 120.0
            },
            {
                "start_time": 32.8136364,
                "end_time": 33.0977273,
                "pitch": 68,
                "velocity": 101,
                "duration": 0.2840909,
                "tempo": 120.0
            },
            {
                "start_time": 33.1136364,
                "end_time": 33.1977273,
                "pitch": 59,
                "velocity": 101,
                "duration": 0.0840909,
                "tempo": 120.0
            },
            {
                "start_time": 33.2159091,
                "end_time": 33.3,
                "pitch": 61,
                "velocity": 101,
                "duration": 0.0840909,
                "tempo": 120.0
            },
            {
                "start_time": 33.3159091,
                "end_time": 33.4,
                "pitch": 68,
                "velocity": 101,
                "duration": 0.0840909,
                "tempo": 120.0
            },
            {
                "start_time": 33.4159091,
                "end_time": 33.5,
                "pitch": 66,
                "velocity": 101,
                "duration": 0.0840909,
                "tempo": 120.0
            },
            {
                "start_time": 33.5159091,
                "end_time": 33.6,
                "pitch": 64,
                "velocity": 101,
                "duration": 0.0840909,
                "tempo": 120.0
            },
            {
                "start_time": 33.6159091,
                "end_time": 33.7,
                "pitch": 63,
                "velocity": 101,
                "duration": 0.0840909,
                "tempo": 120.0
            },
            {
                "start_time": 33.7159091,
                "end_time": 33.9,
                "pitch": 61,
                "velocity": 101,
                "duration": 0.1840909,
                "tempo": 120.0
            },
            {
                "start_time": 33.9159091,
                "end_time": 34.0,
                "pitch": 68,
                "velocity": 101,
                "duration": 0.0840909,
                "tempo": 120.0
            },
            {
                "start_time": 34.0159091,
                "end_time": 34.3,
                "pitch": 70,
                "velocity": 101,
                "duration": 0.2840909,
                "tempo": 120.0
            },
            {
                "start_time": 34.3159091,
                "end_time": 34.4,
                "pitch": 71,
                "velocity": 101,
                "duration": 0.0840909,
                "tempo": 120.0
            },
            {
                "start_time": 34.4159091,
                "end_time": 34.7,
                "pitch": 68,
                "velocity": 101,
                "duration": 0.2840909,
                "tempo": 120.0
            },
            {
                "start_time": 34.7159091,
                "end_time": 34.8,
                "pitch": 63,
                "velocity": 101,
                "duration": 0.0840909,
                "tempo": 120.0
            },
            {
                "start_time": 34.8159091,
                "end_time": 34.9,
                "pitch": 61,
                "velocity": 101,
                "duration": 0.0840909,
                "tempo": 120.0
            },
            {
                "start_time": 34.9159091,
                "end_time": 35.0022727,
                "pitch": 59,
                "velocity": 101,
                "duration": 0.0863636,
                "tempo": 120.0
            },
            {
                "start_time": 35.0181818,
                "end_time": 35.1045455,
                "pitch": 63,
                "velocity": 101,
                "duration": 0.0863636,
                "tempo": 120.0
            },
            {
                "start_time": 35.1204545,
                "end_time": 35.5068182,
                "pitch": 61,
                "velocity": 101,
                "duration": 0.3863636,
                "tempo": 120.0
            },
            {
                "start_time": 35.5227273,
                "end_time": 35.6045455,
                "pitch": 68,
                "velocity": 101,
                "duration": 0.0818182,
                "tempo": 120.0
            },
            {
                "start_time": 35.6204545,
                "end_time": 35.9022727,
                "pitch": 70,
                "velocity": 101,
                "duration": 0.2818182,
                "tempo": 120.0
            },
            {
                "start_time": 35.9181818,
                "end_time": 36.0022727,
                "pitch": 71,
                "velocity": 101,
                "duration": 0.0840909,
                "tempo": 120.0
            },
            {
                "start_time": 36.0181818,
                "end_time": 36.3022727,
                "pitch": 68,
                "velocity": 101,
                "duration": 0.2840909,
                "tempo": 120.0
            },
            {
                "start_time": 36.3181818,
                "end_time": 36.4022727,
                "pitch": 59,
                "velocity": 101,
                "duration": 0.0840909,
                "tempo": 120.0
            },
            {
                "start_time": 36.4181818,
                "end_time": 36.5022727,
                "pitch": 61,
                "velocity": 101,
                "duration": 0.0840909,
                "tempo": 120.0
            },
            {
                "start_time": 36.5181818,
                "end_time": 36.6022727,
                "pitch": 68,
                "velocity": 101,
                "duration": 0.0840909,
                "tempo": 120.0
            },
            {
                "start_time": 36.6181818,
                "end_time": 36.7022727,
                "pitch": 66,
                "velocity": 101,
                "duration": 0.0840909,
                "tempo": 120.0
            },
            {
                "start_time": 36.7181818,
                "end_time": 36.8022727,
                "pitch": 64,
                "velocity": 101,
                "duration": 0.0840909,
                "tempo": 120.0
            },
            {
                "start_time": 36.8181818,
                "end_time": 36.9022727,
                "pitch": 63,
                "velocity": 101,
                "duration": 0.0840909,
                "tempo": 120.0
            },
            {
                "start_time": 36.9181818,
                "end_time": 37.1022727,
                "pitch": 61,
                "velocity": 101,
                "duration": 0.1840909,
                "tempo": 120.0
            },
            {
                "start_time": 37.1204545,
                "end_time": 37.2045455,
                "pitch": 68,
                "velocity": 101,
                "duration": 0.0840909,
                "tempo": 120.0
            },
            {
                "start_time": 37.2204545,
                "end_time": 37.5045455,
                "pitch": 70,
                "velocity": 101,
                "duration": 0.2840909,
                "tempo": 120.0
            },
            {
                "start_time": 37.5204545,
                "end_time": 37.6045455,
                "pitch": 71,
                "velocity": 101,
                "duration": 0.0840909,
                "tempo": 120.0
            },
            {
                "start_time": 37.6204545,
                "end_time": 37.9045455,
                "pitch": 68,
                "velocity": 101,
                "duration": 0.2840909,
                "tempo": 120.0
            },
            {
                "start_time": 37.9204545,
                "end_time": 38.0045455,
                "pitch": 63,
                "velocity": 101,
                "duration": 0.0840909,
                "tempo": 120.0
            },
            {
                "start_time": 38.0204545,
                "end_time": 38.1045455,
                "pitch": 61,
                "velocity": 101,
                "duration": 0.0840909,
                "tempo": 120.0
            },
            {
                "start_time": 38.1204545,
                "end_time": 38.2090909,
                "pitch": 59,
                "velocity": 101,
                "duration": 0.0886364,
                "tempo": 120.0
            },
            {
                "start_time": 38.225,
                "end_time": 38.3136364,
                "pitch": 63,
                "velocity": 101,
                "duration": 0.0886364,
                "tempo": 120.0
            },
            {
                "start_time": 38.3318182,
                "end_time": 38.5386364,
                "pitch": 61,
                "velocity": 101,
                "duration": 0.2068182,
                "tempo": 120.0
            }
        ],
        "Trumpet": [
            {
                "start_time": 0.0113636,
                "end_time": 0.2931818,
                "pitch": 58,
                "velocity": 51,
                "duration": 0.2818182,
                "tempo": 120.0
            },
            {
                "start_time": 0.3113636,
                "end_time": 1.6,
                "pitch": 58,
                "velocity": 51,
                "duration": 1.2886364,
                "tempo": 120.0
            },
            {
                "start_time": 1.6159091,
                "end_time": 1.8863636,
                "pitch": 60,
                "velocity": 51,
                "duration": 0.2704545,
                "tempo": 120.0
            },
            {
                "start_time": 1.9022727,
                "end_time": 3.2045455,
                "pitch": 60,
                "velocity": 51,
                "duration": 1.3022727,
                "tempo": 120.0
            },
            {
                "start_time": 3.2204545,
                "end_time": 3.4909091,
                "pitch": 61,
                "velocity": 51,
                "duration": 0.2704545,
                "tempo": 120.0
            },
            {
                "start_time": 3.5068182,
                "end_time": 4.8090909,
                "pitch": 61,
                "velocity": 51,
                "duration": 1.3022727,
                "tempo": 120.0
            },
            {
                "start_time": 4.825,
                "end_time": 5.1022727,
                "pitch": 60,
                "velocity": 51,
                "duration": 0.2772727,
                "tempo": 120.0
            },
            {
                "start_time": 5.1181818,
                "end_time": 6.4159091,
                "pitch": 60,
                "velocity": 51,
                "duration": 1.2977273,
                "tempo": 120.0
            },
            {
                "start_time": 6.4340909,
                "end_time": 6.7113636,
                "pitch": 58,
                "velocity": 51,
                "duration": 0.2772727,
                "tempo": 120.0
            },
            {
                "start_time": 6.7272727,
                "end_time": 8.0227273,
                "pitch": 58,
                "velocity": 51,
                "duration": 1.2954545,
                "tempo": 120.0
            },
            {
                "start_time": 8.0386364,
                "end_time": 8.3159091,
                "pitch": 60,
                "velocity": 51,
                "duration": 0.2772727,
                "tempo": 120.0
            },
            {
                "start_time": 8.3340909,
                "end_time": 9.6318182,
                "pitch": 60,
                "velocity": 51,
                "duration": 1.2977273,
                "tempo": 120.0
            },
            {
                "start_time": 9.6477273,
                "end_time": 9.9181818,
                "pitch": 61,
                "velocity": 51,
                "duration": 0.2704545,
                "tempo": 120.0
            },
            {
                "start_time": 9.9340909,
                "end_time": 11.2386364,
                "pitch": 61,
                "velocity": 51,
                "duration": 1.3045455,
                "tempo": 120.0
            },
            {
                "start_time": 11.2545455,
                "end_time": 11.525,
                "pitch": 60,
                "velocity": 51,
                "duration": 0.2704545,
                "tempo": 120.0
            },
            {
                "start_time": 11.5409091,
                "end_time": 12.825,
                "pitch": 60,
                "velocity": 51,
                "duration": 1.2840909,
                "tempo": 120.0
            },
            {
                "start_time": 12.8409091,
                "end_time": 12.9272727,
                "pitch": 66,
                "velocity": 51,
                "duration": 0.0863636,
                "tempo": 120.0
            },
            {
                "start_time": 12.9454545,
                "end_time": 13.8386364,
                "pitch": 68,
                "velocity": 51,
                "duration": 0.8931818,
                "tempo": 120.0
            },
            {
                "start_time": 13.8545455,
                "end_time": 14.2409091,
                "pitch": 75,
                "velocity": 51,
                "duration": 0.3863636,
                "tempo": 120.0
            },
            {
                "start_time": 14.2568182,
                "end_time": 14.6386364,
                "pitch": 73,
                "velocity": 51,
                "duration": 0.3818182,
                "tempo": 120.0
            },
            {
                "start_time": 14.6545455,
                "end_time": 15.0386364,
                "pitch": 71,
                "velocity": 51,
                "duration": 0.3840909,
                "tempo": 120.0
            },
            {
                "start_time": 15.0545455,
                "end_time": 15.1409091,
                "pitch": 70,
                "velocity": 51,
                "duration": 0.0863636,
                "tempo": 120.0
            },
            {
                "start_time": 15.1590909,
                "end_time": 15.2431818,
                "pitch": 71,
                "velocity": 51,
                "duration": 0.0840909,
                "tempo": 120.0
            },
            {
                "start_time": 15.2613636,
                "end_time": 15.4454545,
                "pitch": 73,
                "velocity": 51,
                "duration": 0.1840909,
                "tempo": 120.0
            },
            {
                "start_time": 15.4613636,
                "end_time": 15.75,
                "pitch": 73,
                "velocity": 51,
                "duration": 0.2886364,
                "tempo": 120.0
            },
            {
                "start_time": 15.7659091,
                "end_time": 16.0568182,
                "pitch": 70,
                "velocity": 51,
                "duration": 0.2909091,
                "tempo": 120.0
            },
            {
                "start_time": 16.075,
                "end_time": 16.65,
                "pitch": 66,
                "velocity": 51,
                "duration": 0.575,
                "tempo": 120.0
            },
            {
                "start_time": 16.6659091,
                "end_time": 17.05,
                "pitch": 61,
                "velocity": 51,
                "duration": 0.3840909,
                "tempo": 120.0
            },
            {
                "start_time": 17.0659091,
                "end_time": 18.6545455,
                "pitch": 63,
                "velocity": 51,
                "duration": 1.5886364,
                "tempo": 120.0
            },
            {
                "start_time": 18.6727273,
                "end_time": 18.7545455,
                "pitch": 66,
                "velocity": 51,
                "duration": 0.0818182,
                "tempo": 120.0
            },
            {
                "start_time": 18.7727273,
                "end_time": 19.0590909,
                "pitch": 68,
                "velocity": 51,
                "duration": 0.2863636,
                "tempo": 120.0
            },
            {
                "start_time": 19.0772727,
                "end_time": 19.2659091,
                "pitch": 66,
                "velocity": 51,
                "duration": 0.1886364,
                "tempo": 120.0
            },
            {
                "start_time": 19.2818182,
                "end_time": 19.8590909,
                "pitch": 64,
                "velocity": 51,
                "duration": 0.5772727,
                "tempo": 120.0
            },
            {
                "start_time": 19.875,
                "end_time": 20.2590909,
                "pitch": 63,
                "velocity": 51,
                "duration": 0.3840909,
                "tempo": 120.0
            },
            {
                "start_time": 20.2772727,
                "end_time": 20.3590909,
                "pitch": 62,
                "velocity": 51,
                "duration": 0.0818182,
                "tempo": 120.0
            },
            {
                "start_time": 20.3772727,
                "end_time": 20.6613636,
                "pitch": 61,
                "velocity": 51,
                "duration": 0.2840909,
                "tempo": 120.0
            },
            {
                "start_time": 20.6772727,
                "end_time": 20.8613636,
                "pitch": 66,
                "velocity": 51,
                "duration": 0.1840909,
                "tempo": 120.0
            },
            {
                "start_time": 20.8772727,
                "end_time": 20.9613636,
                "pitch": 71,
                "velocity": 51,
                "duration": 0.0840909,
                "tempo": 120.0
            },
            {
                "start_time": 20.9772727,
                "end_time": 21.6636364,
                "pitch": 73,
                "velocity": 51,
                "duration": 0.6863636,
                "tempo": 120.0
            },
            {
                "start_time": 21.6795455,
                "end_time": 21.8636364,
                "pitch": 71,
                "velocity": 51,
                "duration": 0.1840909,
                "tempo": 120.0
            },
            {
                "start_time": 21.8795455,
                "end_time": 22.2681818,
                "pitch": 70,
                "velocity": 51,
                "duration": 0.3886364,
                "tempo": 120.0
            },
            {
                "start_time": 22.2863636,
                "end_time": 22.4727273,
                "pitch": 68,
                "velocity": 51,
                "duration": 0.1863636,
                "tempo": 120.0
            },
            {
                "start_time": 22.4909091,
                "end_time": 23.0659091,
                "pitch": 66,
                "velocity": 51,
                "duration": 0.575,
                "tempo": 120.0
            },
            {
                "start_time": 23.0840909,
                "end_time": 23.4681818,
                "pitch": 73,
                "velocity": 51,
                "duration": 0.3840909,
                "tempo": 120.0
            },
            {
                "start_time": 23.4840909,
                "end_time": 23.7681818,
                "pitch": 71,
                "velocity": 51,
                "duration": 0.2840909,
                "tempo": 120.0
            },
            {
                "start_time": 23.7863636,
                "end_time": 23.8681818,
                "pitch": 70,
                "velocity": 51,
                "duration": 0.0818182,
                "tempo": 120.0
            },
            {
                "start_time": 23.8863636,
                "end_time": 24.0681818,
                "pitch": 70,
                "velocity": 51,
                "duration": 0.1818182,
                "tempo": 120.0
            },
            {
                "start_time": 24.0863636,
                "end_time": 24.3704545,
                "pitch": 71,
                "velocity": 51,
                "duration": 0.2840909,
                "tempo": 120.0
            },
            {
                "start_time": 24.3886364,
                "end_time": 24.6727273,
                "pitch": 73,
                "velocity": 51,
                "duration": 0.2840909,
                "tempo": 120.0
            },
            {
                "start_time": 24.6886364,
                "end_time": 24.8727273,
                "pitch": 75,
                "velocity": 51,
                "duration": 0.1840909,
                "tempo": 120.0
            },
            {
                "start_time": 24.8886364,
                "end_time": 25.1727273,
                "pitch": 75,
                "velocity": 51,
                "duration": 0.2840909,
                "tempo": 120.0
            },
            {
                "start_time": 25.1886364,
                "end_time": 25.4772727,
                "pitch": 75,
                "velocity": 51,
                "duration": 0.2886364,
                "tempo": 120.0
            },
            {
                "start_time": 25.4931818,
                "end_time": 25.6818182,
                "pitch": 76,
                "velocity": 51,
                "duration": 0.1886364,
                "tempo": 120.0
            },
            {
                "start_time": 25.7,
                "end_time": 26.075,
                "pitch": 78,
                "velocity": 51,
                "duration": 0.375,
                "tempo": 120.0
            },
            {
                "start_time": 26.0909091,
                "end_time": 26.4772727,
                "pitch": 76,
                "velocity": 51,
                "duration": 0.3863636,
                "tempo": 120.0
            },
            {
                "start_time": 26.4931818,
                "end_time": 26.6772727,
                "pitch": 75,
                "velocity": 51,
                "duration": 0.1840909,
                "tempo": 120.0
            },
            {
                "start_time": 26.6931818,
                "end_time": 26.8772727,
                "pitch": 75,
                "velocity": 51,
                "duration": 0.1840909,
                "tempo": 120.0
            },
            {
                "start_time": 26.8931818,
                "end_time": 27.0772727,
                "pitch": 78,
                "velocity": 51,
                "duration": 0.1840909,
                "tempo": 120.0
            },
            {
                "start_time": 27.0931818,
                "end_time": 27.1772727,
                "pitch": 76,
                "velocity": 51,
                "duration": 0.0840909,
                "tempo": 120.0
            },
            {
                "start_time": 27.1931818,
                "end_time": 27.2772727,
                "pitch": 75,
                "velocity": 51,
                "duration": 0.0840909,
                "tempo": 120.0
            },
            {
                "start_time": 27.2931818,
                "end_time": 27.3772727,
                "pitch": 76,
                "velocity": 51,
                "duration": 0.0840909,
                "tempo": 120.0
            },
            {
                "start_time": 27.3954545,
                "end_time": 27.4795455,
                "pitch": 75,
                "velocity": 51,
                "duration": 0.0840909,
                "tempo": 120.0
            },
            {
                "start_time": 27.4954545,
                "end_time": 28.0795455,
                "pitch": 71,
                "velocity": 51,
                "duration": 0.5840909,
                "tempo": 120.0
            },
            {
                "start_time": 28.0977273,
                "end_time": 28.2818182,
                "pitch": 68,
                "velocity": 51,
                "duration": 0.1840909,
                "tempo": 120.0
            },
            {
                "start_time": 28.2977273,
                "end_time": 28.6863636,
                "pitch": 71,
                "velocity": 51,
                "duration": 0.3886364,
                "tempo": 120.0
            },
            {
                "start_time": 28.7045455,
                "end_time": 28.8931818,
                "pitch": 73,
                "velocity": 51,
                "duration": 0.1886364,
                "tempo": 120.0
            },
            {
                "start_time": 28.9090909,
                "end_time": 29.4863636,
                "pitch": 70,
                "velocity": 51,
                "duration": 0.5772727,
                "tempo": 120.0
            },
            {
                "start_time": 29.5045455,
                "end_time": 30.2886364,
                "pitch": 68,
                "velocity": 51,
                "duration": 0.7840909,
                "tempo": 120.0
            },
            {
                "start_time": 30.3068182,
                "end_time": 30.4909091,
                "pitch": 63,
                "velocity": 51,
                "duration": 0.1840909,
                "tempo": 120.0
            },
            {
                "start_time": 30.5068182,
                "end_time": 31.2909091,
                "pitch": 66,
                "velocity": 51,
                "duration": 0.7840909,
                "tempo": 120.0
            },
            {
                "start_time": 31.3068182,
                "end_time": 31.4931818,
                "pitch": 73,
                "velocity": 51,
                "duration": 0.1863636,
                "tempo": 120.0
            },
            {
                "start_time": 31.5090909,
                "end_time": 31.6931818,
                "pitch": 71,
                "velocity": 51,
                "duration": 0.1840909,
                "tempo": 120.0
            },
            {
                "start_time": 31.7113636,
                "end_time": 31.7954545,
                "pitch": 70,
                "velocity": 51,
                "duration": 0.0840909,
                "tempo": 120.0
            },
            {
                "start_time": 31.8136364,
                "end_time": 32.0022727,
                "pitch": 70,
                "velocity": 51,
                "duration": 0.1886364,
                "tempo": 120.0
            },
            {
                "start_time": 32.0181818,
                "end_time": 32.6954545,
                "pitch": 70,
                "velocity": 51,
                "duration": 0.6772727,
                "tempo": 120.0
            },
            {
                "start_time": 32.7136364,
                "end_time": 32.7954545,
                "pitch": 68,
                "velocity": 51,
                "duration": 0.0818182,
                "tempo": 120.0
            },
            {
                "start_time": 32.8136364,
                "end_time": 32.8954545,
                "pitch": 70,
                "velocity": 51,
                "duration": 0.0818182,
                "tempo": 120.0
            },
            {
                "start_time": 32.9136364,
                "end_time": 33.1977273,
                "pitch": 71,
                "velocity": 51,
                "duration": 0.2840909,
                "tempo": 120.0
            },
            {
                "start_time": 33.2159091,
                "end_time": 33.5,
                "pitch": 73,
                "velocity": 51,
                "duration": 0.2840909,
                "tempo": 120.0
            },
            {
                "start_time": 33.5159091,
                "end_time": 33.7,
                "pitch": 78,
                "velocity": 51,
                "duration": 0.1840909,
                "tempo": 120.0
            },
            {
                "start_time": 33.7159091,
                "end_time": 34.3,
                "pitch": 76,
                "velocity": 51,
                "duration": 0.5840909,
                "tempo": 120.0
            },
            {
                "start_time": 34.3159091,
                "end_time": 34.5,
                "pitch": 75,
                "velocity": 51,
                "duration": 0.1840909,
                "tempo": 120.0
            },
            {
                "start_time": 34.5159091,
                "end_time": 34.8,
                "pitch": 73,
                "velocity": 51,
                "duration": 0.2840909,
                "tempo": 120.0
            },
            {
                "start_time": 34.8159091,
                "end_time": 35.1045455,
                "pitch": 75,
                "velocity": 51,
                "duration": 0.2886364,
                "tempo": 120.0
            },
            {
                "start_time": 35.1204545,
                "end_time": 35.3090909,
                "pitch": 71,
                "velocity": 51,
                "duration": 0.1886364,
                "tempo": 120.0
            },
            {
                "start_time": 35.3272727,
                "end_time": 35.5068182,
                "pitch": 78,
                "velocity": 51,
                "duration": 0.1795455,
                "tempo": 120.0
            },
            {
                "start_time": 35.9181818,
                "end_time": 36.3022727,
                "pitch": 76,
                "velocity": 51,
                "duration": 0.3840909,
                "tempo": 120.0
            },
            {
                "start_time": 36.3181818,
                "end_time": 36.5022727,
                "pitch": 73,
                "velocity": 51,
                "duration": 0.1840909,
                "tempo": 120.0
            },
            {
                "start_time": 36.5181818,
                "end_time": 36.7022727,
                "pitch": 71,
                "velocity": 51,
                "duration": 0.1840909,
                "tempo": 120.0
            },
            {
                "start_time": 36.7181818,
                "end_time": 36.9022727,
                "pitch": 70,
                "velocity": 51,
                "duration": 0.1840909,
                "tempo": 120.0
            },
            {
                "start_time": 36.9181818,
                "end_time": 38.5386364,
                "pitch": 71,
                "velocity": 51,
                "duration": 1.6204545,
                "tempo": 120.0
            }
        ]
    }
}