{
    "mood": "angry",
    "instruments": {
        "Violin": [
            {
                "start_time": 0.0,
                "end_time": 0.0840909,
                "pitch": 54,
                "velocity": 101,
                "duration": 0.0840909,
                "tempo": 120.0
            },
            {
                "start_time": 0.1,
                "end_time": 0.9727273,
                "pitch": 56,
                "velocity": 101,
                "duration": 0.8727273,
                "tempo": 120.0
            },
            {
                "start_time": 0.9886364,
                "end_time": 1.1681818,
                "pitch": 59,
                "velocity": 101,
                "duration": 0.1795455,
                "tempo": 120.0
            },
            {
                "start_time": 1.1863636,
                "end_time": 1.3681818,
                "pitch": 66,
                "velocity": 101,
                "duration": 0.1818182,
                "tempo": 120.0
            },
            {
                "start_time": 1.3863636,
                "end_time": 1.7704545,
                "pitch": 64,
                "velocity": 101,
                "duration": 0.3840909,
                "tempo": 120.0
            },
            {
                "start_time": 1.7863636,
                "end_time": 2.1772727,
                "pitch": 63,
                "velocity": 101,
                "duration": 0.3909091,
                "tempo": 120.0
            },
            {
                "start_time": 2.1931818,
                "end_time": 2.5795455,
                "pitch": 61,
                "velocity": 101,
                "duration": 0.3863636,
                "tempo": 120.0
            },
            {
                "start_time": 2.5954545,
                "end_time": 2.875,
                "pitch": 59,
                "velocity": 101,
                "duration": 0.2795455,
                "tempo": 120.0
            },
            {
                "start_time": 2.8909091,
                "end_time": 3.175,
                "pitch": 58,
                "velocity": 101,
                "duration": 0.2840909,
                "tempo": 120.0
            },
            {
                "start_time": 3.1909091,
                "end_time": 4.1795455,
                "pitch": 54,
                "velocity": 101,
                "duration": 0.9886364,
                "tempo": 120.0
            },
            {
                "start_time": 4.1954545,
                "end_time": 4.575,
                "pitch": 49,
                "velocity": 101,
                "duration": 0.3795455,
                "tempo": 120.0
            },
            {
                "start_time": 4.5909091,
                "end_time": 4.7795455,
                "pitch": 51,
                "velocity": 101,
                "duration": 0.1886364,
                "tempo": 120.0
            },
            {
                "start_time": 4.7977273,
                "end_time": 5.5909091,
                "pitch": 54,
                "velocity": 101,
                "duration": 0.7931818,
                "tempo": 120.0
            },
            {
                "start_time": 5.6068182,
                "end_time": 5.7818182,
                "pitch": 61,
                "velocity": 101,
                "duration": 0.175,
                "tempo": 120.0
            },
            {
                "start_time": 5.7977273,
                "end_time": 6.075,
                "pitch": 59,
                "velocity": 101,
                "duration": 0.2772727,
                "tempo": 120.0
            },
            {
                "start_time": 6.0909091,
                "end_time": 6.3840909,
                "pitch": 58,
                "velocity": 101,
                "duration": 0.2931818,
                "tempo": 120.0
            },
            {
                "start_time": 6.4,
                "end_time": 7.1954545,
                "pitch": 56,
                "velocity": 101,
                "duration": 0.7954545,
                "tempo": 120.0
            },
            {
                "start_time": 7.2136364,
                "end_time": 7.4909091,
                "pitch": 66,
                "velocity": 101,
                "duration": 0.2772727,
                "tempo": 120.0
            },
            {
                "start_time": 7.5068182,
                "end_time": 7.7886364,
                "pitch": 64,
                "velocity": 101,
                "duration": 0.2818182,
                "tempo": 120.0
            },
            {
                "start_time": 7.8045455,
                "end_time": 7.9886364,
                "pitch": 63,
                "velocity": 101,
                "duration": 0.1840909,
                "tempo": 120.0
            },
            {
                "start_time": 8.0068182,
                "end_time": 8.5886364,
                "pitch": 61,
                "velocity": 101,
                "duration": 0.5818182,
                "tempo": 120.0
            },
            {
                "start_time": 8.6045455,
                "end_time": 9.1840909,
                "pitch": 59,
                "velocity": 101,
                "duration": 0.5795455,
                "tempo": 120.0
            },
            {
                "start_time": 9.2,
                "end_time": 9.5931818,
                "pitch": 61,
                "velocity": 101,
                "duration": 0.3931818,
                "tempo": 120.0
            },
            {
                "start_time": 9.6113636,
                "end_time": 10.6045455,
                "pitch": 63,
                "velocity": 101,
                "duration": 0.9931818,
                "tempo": 120.0
            },
            {
                "start_time": 10.6204545,
                "end_time": 10.8,
                "pitch": 61,
                "velocity": 101,
                "duration": 0.1795455,
                "tempo": 120.0
            },
            {
                "start_time": 10.8159091,
                "end_time": 11.0022727,
                "pitch": 59,
                "velocity": 101,
                "duration": 0.1863636,
                "tempo": 120.0
            },
            {
                "start_time": 11.0181818,
                "end_time": 11.6022727,
                "pitch": 64,
                "velocity": 101,
                "duration": 0.5840909,
                "tempo": 120.0
            },
            {
                "start_time": 11.6204545,
                "end_time": 11.8068182,
                "pitch": 63,
                "velocity": 101,
                "duration": 0.1863636,
                "tempo": 120.0
            },
            {
                "start_time": 11.825,
                "end_time": 12.3954545,
                "pitch": 66,
                "velocity": 101,
                "duration": 0.5704545,
                "tempo": 120.0
            },
            {
                "start_time": 12.4113636,
                "end_time": 12.8068182,
                "pitch": 64,
                "velocity": 101,
                "duration": 0.3954545,
                "tempo": 120.0
            },
            {
                "start_time": 12.8227273,
                "end_time": 13.8113636,
                "pitch": 59,
                "velocity": 101,
                "duration": 0.9886364,
                "tempo": 120.0
            },
            {
                "start_time": 13.8272727,
                "end_time": 14.2068182,
                "pitch": 58,
                "velocity": 101,
                "duration": 0.3795455,
                "tempo": 120.0
            },
            {
                "start_time": 14.2227273,
                "end_time": 14.4113636,
                "pitch": 59,
                "velocity": 101,
                "duration": 0.1886364,
                "tempo": 120.0
            },
            {
                "start_time": 14.4295455,
                "end_time": 14.6136364,
                "pitch": 61,
                "velocity": 101,
                "duration": 0.1840909,
                "tempo": 120.0
            },
            {
                "start_time": 14.6295455,
                "end_time": 14.7136364,
                "pitch": 63,
                "velocity": 101,
                "duration": 0.0840909,
                "tempo": 120.0
            },
            {
                "start_time": 14.7295455,
                "end_time": 15.0204545,
                "pitch": 64,
                "velocity": 101,
                "duration": 0.2909091,
                "tempo": 120.0
            },
            {
                "start_time": 15.0363636,
                "end_time": 15.4159091,
                "pitch": 63,
                "velocity": 101,
                "duration": 0.3795455,
                "tempo": 120.0
            },
            {
                "start_time": 15.4318182,
                "end_time": 15.8113636,
                "pitch": 61,
                "velocity": 101,
                "duration": 0.3795455,
                "tempo": 120.0
            },
            {
                "start_time": 15.8295455,
                "end_time": 16.0181818,
                "pitch": 59,
                "velocity": 101,
                "duration": 0.1886364,
                "tempo": 120.0
            },
            {
                "start_time": 16.0340909,
                "end_time": 16.2181818,
                "pitch": 66,
                "velocity": 101,
                "duration": 0.1840909,
                "tempo": 120.0
            },
            {
                "start_time": 16.2363636,
                "end_time": 16.3204545,
                "pitch": 64,
                "velocity": 101,
                "duration": 0.0840909,
                "tempo": 120.0
            },
            {
                "start_time": 16.3363636,
                "end_time": 16.4204545,
                "pitch": 63,
                "velocity": 101,
                "duration": 0.0840909,
                "tempo": 120.0
            },
            {
                "start_time": 16.4363636,
                "end_time": 16.5227273,
                "pitch": 61,
                "velocity": 101,
                "duration": 0.0863636,
                "tempo": 120.0
            },
            {
                "start_time": 16.5386364,
                "end_time": 16.625,
                "pitch": 63,
                "velocity": 101,
                "duration": 0.0863636,
                "tempo": 120.0
            },
            {
                "start_time": 16.6431818,
                "end_time": 16.6931818,
                "pitch": 59,
                "velocity": 101,
                "duration": 0.05,
                "tempo": 120.0
            },
            {
                "start_time": 16.7113636,
                "end_time": 16.8318182,
                "pitch": 61,
                "velocity": 101,
                "duration": 0.1204545,
                "tempo": 120.0
            },
            {
                "start_time": 16.8477273,
                "end_time": 17.125,
                "pitch": 59,
                "velocity": 101,
                "duration": 0.2772727,
                "tempo": 120.0
            },
            {
                "start_time": 17.1409091,
                "end_time": 17.4227273,
                "pitch": 58,
                "velocity": 101,
                "duration": 0.2818182,
                "tempo": 120.0
            },
            {
                "start_time": 17.4409091,
                "end_time": 18.025,
                "pitch": 56,
                "velocity": 101,
                "duration": 0.5840909,
                "tempo": 120.0
            },
            {
                "start_time": 18.0431818,
                "end_time": 18.8295455,
                "pitch": 54,
                "velocity": 101,
                "duration": 0.7863636,
                "tempo": 120.0
            },
            {
                "start_time": 18.8454545,
                "end_time": 19.0295455,
                "pitch": 51,
                "velocity": 101,
                "duration": 0.1840909,
                "tempo": 120.0
            },
            {
                "start_time": 19.0477273,
                "end_time": 19.2318182,
                "pitch": 52,
                "velocity": 101,
                "duration": 0.1840909,
                "tempo": 120.0
            },
            {
                "start_time": 19.2477273,
                "end_time": 19.8363636,
                "pitch": 54,
                "velocity": 101,
                "duration": 0.5886364,
                "tempo": 120.0
            },
            {
                "start_time": 19.8545455,
                "end_time": 20.2386364,
                "pitch": 61,
                "velocity": 101,
                "duration": 0.3840909,
                "tempo": 120.0
            },
            {
                "start_time": 20.2545455,
                "end_time": 20.6340909,
                "pitch": 59,
                "velocity": 101,
                "duration": 0.3795455,
                "tempo": 120.0
            },
            {
                "start_time": 20.6522727,
                "end_time": 20.8340909,
                "pitch": 66,
                "velocity": 101,
                "duration": 0.1818182,
                "tempo": 120.0
            },
            {
                "start_time": 20.8522727,
                "end_time": 20.9340909,
                "pitch": 66,
                "velocity": 101,
                "duration": 0.0818182,
                "tempo": 120.0
            },
            {
                "start_time": 20.9522727,
                "end_time": 21.6477273,
                "pitch": 68,
                "velocity": 101,
                "duration": 0.6954545,
                "tempo": 120.0
            },
            {
                "start_time": 21.6636364,
                "end_time": 21.9431818,
                "pitch": 66,
                "velocity": 101,
                "duration": 0.2795455,
                "tempo": 120.0
            },
            {
                "start_time": 21.9590909,
                "end_time": 22.0409091,
                "pitch": 65,
                "velocity": 101,
                "duration": 0.0818182,
                "tempo": 120.0
            },
            {
                "start_time": 22.0568182,
                "end_time": 22.4409091,
                "pitch": 64,
                "velocity": 101,
                "duration": 0.3840909,
                "tempo": 120.0
            },
            {
                "start_time": 22.4568182,
                "end_time": 22.6409091,
                "pitch": 63,
                "velocity": 101,
                "duration": 0.1840909,
                "tempo": 120.0
            },
            {
                "start_time": 22.6568182,
                "end_time": 22.7409091,
                "pitch": 61,
                "velocity": 101,
                "duration": 0.0840909,
                "tempo": 120.0
            },
            {
                "start_time": 22.7568182,
                "end_time": 22.9386364,
                "pitch": 59,
                "velocity": 101,
                "duration": 0.1818182,
                "tempo": 120.0
            },
            {
                "start_time": 22.9545455,
                "end_time": 23.1340909,
                "pitch": 61,
                "velocity": 101,
                "duration": 0.1795455,
                "tempo": 120.0
            },
            {
                "start_time": 23.15,
                "end_time": 23.6431818,
                "pitch": 63,
                "velocity": 101,
                "duration": 0.4931818,
                "tempo": 120.0
            },
            {
                "start_time": 23.6590909,
                "end_time": 24.0454545,
                "pitch": 59,
                "velocity": 101,
                "duration": 0.3863636,
                "tempo": 120.0
            },
            {
                "start_time": 24.0613636,
                "end_time": 24.4454545,
                "pitch": 66,
                "velocity": 101,
                "duration": 0.3840909,
                "tempo": 120.0
            },
            {
                "start_time": 24.4613636,
                "end_time": 24.8568182,
                "pitch": 64,
                "velocity": 101,
                "duration": 0.3954545,
                "tempo": 120.0
            },
            {
                "start_time": 24.8727273,
                "end_time": 25.2568182,
                "pitch": 66,
                "velocity": 101,
                "duration": 0.3840909,
                "tempo": 120.0
            },
            {
                "start_time": 25.2727273,
                "end_time": 25.65,
                "pitch": 68,
                "velocity": 101,
                "duration": 0.3772727,
                "tempo": 120.0
            },
            {
                "start_time": 25.6659091,
                "end_time": 26.6522727,
                "pitch": 71,
                "velocity": 101,
                "duration": 0.9863636,
                "tempo": 120.0
            },
            {
                "start_time": 26.6681818,
                "end_time": 26.8522727,
                "pitch": 71,
                "velocity": 101,
                "duration": 0.1840909,
                "tempo": 120.0
            },
            {
                "start_time": 26.8681818,
                "end_time": 27.0522727,
                "pitch": 69,
                "velocity": 101,
                "duration": 0.1840909,
                "tempo": 120.0
            },
            {
                "start_time": 27.0704545,
                "end_time": 27.4545455,
                "pitch": 76,
                "velocity": 101,
                "duration": 0.3840909,
                "tempo": 120.0
            },
            {
                "start_time": 27.4704545,
                "end_time": 27.6545455,
                "pitch": 75,
                "velocity": 101,
                "duration": 0.1840909,
                "tempo": 120.0
            },
            {
                "start_time": 27.6704545,
                "end_time": 27.8545455,
                "pitch": 71,
                "velocity": 101,
                "duration": 0.1840909,
                "tempo": 120.0
            },
            {
                "start_time": 27.8727273,
                "end_time": 28.2568182,
                "pitch": 73,
                "velocity": 101,
                "duration": 0.3840909,
                "tempo": 120.0
            },
            {
                "start_time": 28.2727273,
                "end_time": 28.6522727,
                "pitch": 75,
                "velocity": 101,
                "duration": 0.3795455,
                "tempo": 120.0
            },
            {
                "start_time": 28.6704545,
                "end_time": 28.85,
                "pitch": 76,
                "velocity": 101,
                "duration": 0.1795455,
                "tempo": 120.0
            },
            {
                "start_time": 28.8659091,
                "end_time": 29.0545455,
                "pitch": 73,
                "velocity": 101,
                "duration": 0.1886364,
                "tempo": 120.0
            },
            {
                "start_time": 29.0704545,
                "end_time": 29.2590909,
                "pitch": 78,
                "velocity": 101,
                "duration": 0.1886364,
                "tempo": 120.0
            },
            {
                "start_time": 29.2772727,
                "end_time": 29.4590909,
                "pitch": 75,
                "velocity": 101,
                "duration": 0.1818182,
                "tempo": 120.0
            },
            {
                "start_time": 29.4772727,
                "end_time": 29.8613636,
                "pitch": 76,
                "velocity": 101,
                "duration": 0.3840909,
                "tempo": 120.0
            },
            {
                "start_time": 29.8772727,
                "end_time": 30.2613636,
                "pitch": 78,
                "velocity": 101,
                "duration": 0.3840909,
                "tempo": 120.0
            },
            {
                "start_time": 30.2795455,
                "end_time": 30.6613636,
                "pitch": 76,
                "velocity": 101,
                "duration": 0.3818182,
                "tempo": 120.0
            },
            {
                "start_time": 30.6795455,
                "end_time": 30.8613636,
                "pitch": 78,
                "velocity": 101,
                "duration": 0.1818182,
                "tempo": 120.0
            },
            {
                "start_time": 30.8795455,
                "end_time": 31.0636364,
                "pitch": 76,
                "velocity": 101,
                "duration": 0.1840909,
                "tempo": 120.0
            },
            {
                "start_time": 31.0795455,
                "end_time": 31.2659091,
                "pitch": 78,
                "velocity": 101,
                "duration": 0.1863636,
                "tempo": 120.0
            },
            {
                "start_time": 31.2818182,
                "end_time": 31.4613636,
                "pitch": 75,
                "velocity": 101,
                "duration": 0.1795455,
                "tempo": 120.0
            },
            {
                "start_time": 31.4772727,
                "end_time": 31.6568182,
                "pitch": 76,
                "velocity": 101,
                "duration": 0.1795455,
                "tempo": 120.0
            },
            {
                "start_time": 31.6727273,
                "end_time": 31.7590909,
                "pitch": 76,
                "velocity": 101,
                "duration": 0.0863636,
                "tempo": 120.0
            },
            {
                "start_time": 31.7772727,
                "end_time": 31.8613636,
                "pitch": 75,
                "velocity": 101,
                "duration": 0.0840909,
                "tempo": 120.0
            },
            {
                "start_time": 31.8795455,
                "end_time": 32.0681818,
                "pitch": 73,
                "velocity": 101,
                "duration": 0.1886364,
                "tempo": 120.0
            },
            {
                "start_time": 32.0840909,
                "end_time": 32.4681818,
                "pitch": 73,
                "velocity": 101,
                "duration": 0.3840909,
                "tempo": 120.0
            },
            {
                "start_time": 32.4840909,
                "end_time": 32.6636364,
                "pitch": 76,
                "velocity": 101,
                "duration": 0.1795455,
                "tempo": 120.0
            },
            {
                "start_time": 32.6795455,
                "end_time": 33.0590909,
                "pitch": 78,
                "velocity": 101,
                "duration": 0.3795455,
                "tempo": 120.0
            },
            {
                "start_time": 33.0772727,
                "end_time": 33.2590909,
                "pitch": 76,
                "velocity": 101,
                "duration": 0.1818182,
                "tempo": 120.0
            },
            {
                "start_time": 33.2772727,
                "end_time": 33.6590909,
                "pitch": 75,
                "velocity": 101,
                "duration": 0.3818182,
                "tempo": 120.0
            },
            {
                "start_time": 33.6772727,
                "end_time": 33.9681818,
                "pitch": 71,
                "velocity": 101,
                "duration": 0.2909091,
                "tempo": 120.0
            },
            {
                "start_time": 33.9840909,
                "end_time": 34.0704545,
                "pitch": 73,
                "velocity": 101,
                "duration": 0.0863636,
                "tempo": 120.0
            },
            {
                "start_time": 34.0886364,
                "end_time": 34.4704545,
                "pitch": 71,
                "velocity": 101,
                "duration": 0.3818182,
                "tempo": 120.0
            },
            {
                "start_time": 34.4886364,
                "end_time": 34.5704545,
                "pitch": 73,
                "velocity": 101,
                "duration": 0.0818182,
                "tempo": 120.0
            },
            {
                "start_time": 34.5886364,
                "end_time": 34.6704545,
                "pitch": 75,
                "velocity": 101,
                "duration": 0.0818182,
                "tempo": 120.0
            },
            {
                "start_time": 34.6886364,
                "end_time": 34.7704545,
                "pitch": 76,
                "velocity": 101,
                "duration": 0.0818182,
                "tempo": 120.0
            },
            {
                "start_time": 34.7886364,
                "end_time": 35.0704545,
                "pitch": 78,
                "velocity": 101,
                "duration": 0.2818182,
                "tempo": 120.0
            },
            {
                "start_time": 35.0886364,
                "end_time": 35.2704545,
                "pitch": 76,
                "velocity": 101,
                "duration": 0.1818182,
                "tempo": 120.0
            },
            {
                "start_time": 35.2886364,
                "end_time": 35.4727273,
                "pitch": 75,
                "velocity": 101,
                "duration": 0.1840909,
                "tempo": 120.0
            },
            {
                "start_time": 35.4886364,
                "end_time": 35.7727273,
                "pitch": 73,
                "velocity": 101,
                "duration": 0.2840909,
                "tempo": 120.0
            },
            {
                "start_time": 35.7886364,
                "end_time": 35.9681818,
                "pitch": 71,
                "velocity": 101,
                "duration": 0.1795455,
                "tempo": 120.0
            },
            {
                "start_time": 35.9840909,
                "end_time": 36.2659091,
                "pitch": 75,
                "velocity": 101,
                "duration": 0.2818182,
                "tempo": 120.0
            },
            {
                "start_time": 36.2818182,
                "end_time": 36.3659091,
                "pitch": 70,
                "velocity": 101,
                "duration": 0.0840909,
                "tempo": 120.0
            },
            {
                "start_time": 36.3818182,
                "end_time": 36.6704545,
                "pitch": 68,
                "velocity": 101,
                "duration": 0.2886364,
                "tempo": 120.0
            },
            {
                "start_time": 36.6886364,
                "end_time": 36.8772727,
                "pitch": 66,
                "velocity": 101,
                "duration": 0.1886364,
                "tempo": 120.0
            },
            {
                "start_time": 36.8931818,
                "end_time": 37.6863636,
                "pitch": 68,
                "velocity": 101,
                "duration": 0.7931818,
                "tempo": 120.0
            },
            {
                "start_time": 37.7045455,
                "end_time": 37.7886364,
                "pitch": 61,
                "velocity": 101,
                "duration": 0.0840909,
                "tempo": 120.0
            },
            {
                "start_time": 37.8045455,
                "end_time": 37.8886364,
                "pitch": 63,
                "velocity": 101,
                "duration": 0.0840909,
                "tempo": 120.0
            },
            {
                "start_time": 37.9045455,
                "end_time": 37.9886364,
                "pitch": 64,
                "velocity": 101,
                "duration": 0.0840909,
                "tempo": 120.0
            },
            {
                "start_time": 38.0045455,
                "end_time": 38.0886364,
                "pitch": 59,
                "velocity": 101,
                "duration": 0.0840909,
                "tempo": 120.0
            },
            {
                "start_time": 38.1045455,
                "end_time": 38.1863636,
                "pitch": 58,
                "velocity": 101,
                "duration": 0.0818182,
                "tempo": 120.0
            },
            {
                "start_time": 38.2022727,
                "end_time": 38.4886364,
                "pitch": 54,
                "velocity": 101,
                "duration": 0.2863636,
                "tempo": 120.0
            }
        ],
        "Acoustic Bass": [
            {
                "start_time": 0.0,
                "end_time": 0.1840909,
                "pitch": 44,
                "velocity": 64,
                "duration": 0.1840909,
                "tempo": 120.0
            },
            {
                "start_time": 0.2,
                "end_time": 0.2840909,
                "pitch": 44,
                "velocity": 64,
                "duration": 0.0840909,
                "tempo": 120.0
            },
            {
                "start_time": 0.3,
                "end_time": 0.3840909,
                "pitch": 44,
                "velocity": 64,
                "duration": 0.0840909,
                "tempo": 120.0
            },
            {
                "start_time": 0.4,
                "end_time": 0.5818182,
                "pitch": 44,
                "velocity": 64,
                "duration": 0.1818182,
                "tempo": 120.0
            },
            {
                "start_time": 0.5977273,
                "end_time": 0.6795455,
                "pitch": 44,
                "velocity": 64,
                "duration": 0.0818182,
                "tempo": 120.0
            },
            {
                "start_time": 0.6954545,
                "end_time": 0.7772727,
                "pitch": 44,
                "velocity": 64,
                "duration": 0.0818182,
                "tempo": 120.0
            },
            {
                "start_time": 0.7931818,
                "end_time": 0.9727273,
                "pitch": 44,
                "velocity": 64,
                "duration": 0.1795455,
                "tempo": 120.0
            },
            {
                "start_time": 0.9886364,
                "end_time": 1.0704545,
                "pitch": 44,
                "velocity": 64,
                "duration": 0.0818182,
                "tempo": 120.0
            },
            {
                "start_time": 1.0863636,
                "end_time": 1.1681818,
                "pitch": 44,
                "velocity": 64,
                "duration": 0.0818182,
                "tempo": 120.0
            },
            {
                "start_time": 1.1863636,
                "end_time": 1.2681818,
                "pitch": 42,
                "velocity": 64,
                "duration": 0.0818182,
                "tempo": 120.0
            },
            {
                "start_time": 1.2863636,
                "end_time": 1.3681818,
                "pitch": 44,
                "velocity": 64,
                "duration": 0.0818182,
                "tempo": 120.0
            },
            {
                "start_time": 1.3863636,
                "end_time": 1.4681818,
                "pitch": 37,
                "velocity": 64,
                "duration": 0.0818182,
                "tempo": 120.0
            },
            {
                "start_time": 1.4863636,
                "end_time": 1.5681818,
                "pitch": 35,
                "velocity": 64,
                "duration": 0.0818182,
                "tempo": 120.0
            },
            {
                "start_time": 1.5863636,
                "end_time": 1.7704545,
                "pitch": 44,
                "velocity": 64,
                "duration": 0.1840909,
                "tempo": 120.0
            },
            {
                "start_time": 1.7863636,
                "end_time": 1.8704545,
                "pitch": 44,
                "velocity": 64,
                "duration": 0.0840909,
                "tempo": 120.0
            },
            {
                "start_time": 1.8886364,
                "end_time": 1.9704545,
                "pitch": 44,
                "velocity": 64,
                "duration": 0.0818182,
                "tempo": 120.0
            },
            {
                "start_time": 1.9886364,
                "end_time": 2.1772727,
                "pitch": 44,
                "velocity": 64,
                "duration": 0.1886364,
                "tempo": 120.0
            },
            {
                "start_time": 2.1931818,
                "end_time": 2.2795455,
                "pitch": 44,
                "velocity": 64,
                "duration": 0.0863636,
                "tempo": 120.0
            },
            {
                "start_time": 2.2954545,
                "end_time": 2.3818182,
                "pitch": 44,
                "velocity": 64,
                "duration": 0.0863636,
                "tempo": 120.0
            },
            {
                "start_time": 2.4,
                "end_time": 2.5795455,
                "pitch": 44,
                "velocity": 64,
                "duration": 0.1795455,
                "tempo": 120.0
            },
            {
                "start_time": 2.5954545,
                "end_time": 2.6772727,
                "pitch": 44,
                "velocity": 64,
                "duration": 0.0818182,
                "tempo": 120.0
            },
            {
                "start_time": 2.6931818,
                "end_time": 2.775,
                "pitch": 44,
                "velocity": 64,
                "duration": 0.0818182,
                "tempo": 120.0
            },
            {
                "start_time": 2.7909091,
                "end_time": 2.875,
                "pitch": 42,
                "velocity": 64,
                "duration": 0.0840909,
                "tempo": 120.0
            },
            {
                "start_time": 2.8909091,
                "end_time": 2.975,
                "pitch": 44,
                "velocity": 64,
                "duration": 0.0840909,
                "tempo": 120.0
            },
            {
                "start_time": 2.9909091,
                "end_time": 3.075,
                "pitch": 37,
                "velocity": 64,
                "duration": 0.0840909,
                "tempo": 120.0
            },
            {
                "start_time": 3.0909091,
                "end_time": 3.175,
                "pitch": 35,
                "velocity": 64,
                "duration": 0.0840909,
                "tempo": 120.0
            },
            {
                "start_time": 3.1909091,
                "end_time": 3.375,
                "pitch": 44,
                "velocity": 64,
                "duration": 0.1840909,
                "tempo": 120.0
            },
            {
                "start_time": 3.3931818,
                "end_time": 3.4772727,
                "pitch": 44,
                "velocity": 64,
                "duration": 0.0840909,
                "tempo": 120.0
            },
            {
                "start_time": 3.4931818,
                "end_time": 3.5772727,
                "pitch": 44,
                "velocity": 64,
                "duration": 0.0840909,
                "tempo": 120.0
            },
            {
                "start_time": 3.5931818,
                "end_time": 3.7818182,
                "pitch": 44,
                "velocity": 64,
                "duration": 0.1886364,
                "tempo": 120.0
            },
            {
                "start_time": 3.8,
                "end_time": 3.8840909,
                "pitch": 44,
                "velocity": 64,
                "duration": 0.0840909,
                "tempo": 120.0
            },
            {
                "start_time": 3.9022727,
                "end_time": 3.9863636,
                "pitch": 44,
                "velocity": 64,
                "duration": 0.0840909,
                "tempo": 120.0
            },
            {
                "start_time": 4.0045455,
                "end_time": 4.1795455,
                "pitch": 44,
                "velocity": 64,
                "duration": 0.175,
                "tempo": 120.0
            },
            {
                "start_time": 4.1954545,
                "end_time": 4.275,
                "pitch": 44,
                "velocity": 64,
                "duration": 0.0795455,
                "tempo": 120.0
            },
            {
                "start_time": 4.2909091,
                "end_time": 4.3704545,
                "pitch": 44,
                "velocity": 64,
                "duration": 0.0795455,
                "tempo": 120.0
            },
            {
                "start_time": 4.3863636,
                "end_time": 4.4727273,
                "pitch": 42,
                "velocity": 64,
                "duration": 0.0863636,
                "tempo": 120.0
            },
            {
                "start_time": 4.4886364,
                "end_time": 4.575,
                "pitch": 44,
                "velocity": 64,
                "duration": 0.0863636,
                "tempo": 120.0
            },
            {
                "start_time": 4.5909091,
                "end_time": 4.6772727,
                "pitch": 37,
                "velocity": 64,
                "duration": 0.0863636,
                "tempo": 120.0
            },
            {
                "start_time": 4.6931818,
                "end_time": 4.7795455,
                "pitch": 35,
                "velocity": 64,
                "duration": 0.0863636,
                "tempo": 120.0
            },
            {
                "start_time": 4.7977273,
                "end_time": 4.9795455,
                "pitch": 44,
                "velocity": 64,
                "duration": 0.1818182,
                "tempo": 120.0
            },
            {
                "start_time": 4.9977273,
                "end_time": 5.0795455,
                "pitch": 44,
                "velocity": 64,
                "duration": 0.0818182,
                "tempo": 120.0
            },
            {
                "start_time": 5.0977273,
                "end_time": 5.1795455,
                "pitch": 44,
                "velocity": 64,
                "duration": 0.0818182,
                "tempo": 120.0
            },
            {
                "start_time": 5.1977273,
                "end_time": 5.3840909,
                "pitch": 44,
                "velocity": 64,
                "duration": 0.1863636,
                "tempo": 120.0
            },
            {
                "start_time": 5.4022727,
                "end_time": 5.4886364,
                "pitch": 44,
                "velocity": 64,
                "duration": 0.0863636,
                "tempo": 120.0
            },
            {
                "start_time": 5.5045455,
                "end_time": 5.5909091,
                "pitch": 44,
                "velocity": 64,
                "duration": 0.0863636,
                "tempo": 120.0
            },
            {
                "start_time": 5.6068182,
                "end_time": 5.7818182,
                "pitch": 44,
                "velocity": 64,
                "duration": 0.175,
                "tempo": 120.0
            },
            {
                "start_time": 5.7977273,
                "end_time": 5.8772727,
                "pitch": 44,
                "velocity": 64,
                "duration": 0.0795455,
                "tempo": 120.0
            },
            {
                "start_time": 5.8931818,
                "end_time": 5.9727273,
                "pitch": 44,
                "velocity": 64,
                "duration": 0.0795455,
                "tempo": 120.0
            },
            {
                "start_time": 5.9886364,
                "end_time": 6.075,
                "pitch": 42,
                "velocity": 64,
                "duration": 0.0863636,
                "tempo": 120.0
            },
            {
                "start_time": 6.0909091,
                "end_time": 6.1772727,
                "pitch": 44,
                "velocity": 64,
                "duration": 0.0863636,
                "tempo": 120.0
            },
            {
                "start_time": 6.1954545,
                "end_time": 6.2795455,
                "pitch": 37,
                "velocity": 64,
                "duration": 0.0840909,
                "tempo": 120.0
            },
            {
                "start_time": 6.2977273,
                "end_time": 6.3840909,
                "pitch": 35,
                "velocity": 64,
                "duration": 0.0863636,
                "tempo": 120.0
            },
            {
                "start_time": 6.4,
                "end_time": 6.5840909,
                "pitch": 42,
                "velocity": 64,
                "duration": 0.1840909,
                "tempo": 120.0
            },
            {
                "start_time": 6.6022727,
                "end_time": 6.6863636,
                "pitch": 42,
                "velocity": 64,
                "duration": 0.0840909,
                "tempo": 120.0
            },
            {
                "start_time": 6.7022727,
                "end_time": 6.7863636,
                "pitch": 42,
                "velocity": 64,
                "duration": 0.0840909,
                "tempo": 120.0
            },
            {
                "start_time": 6.8022727,
                "end_time": 6.9909091,
                "pitch": 42,
                "velocity": 64,
                "duration": 0.1886364,
                "tempo": 120.0
            },
            {
                "start_time": 7.0090909,
                "end_time": 7.0931818,
                "pitch": 42,
                "velocity": 64,
                "duration": 0.0840909,
                "tempo": 120.0
            },
            {
                "start_time": 7.1113636,
                "end_time": 7.1954545,
                "pitch": 42,
                "velocity": 64,
                "duration": 0.0840909,
                "tempo": 120.0
            },
            {
                "start_time": 7.2136364,
                "end_time": 7.3931818,
                "pitch": 42,
                "velocity": 64,
                "duration": 0.1795455,
                "tempo": 120.0
            },
            {
                "start_time": 7.4090909,
                "end_time": 7.4909091,
                "pitch": 42,
                "velocity": 64,
                "duration": 0.0818182,
                "tempo": 120.0
            },
            {
                "start_time": 7.5068182,
                "end_time": 7.5886364,
                "pitch": 42,
                "velocity": 64,
                "duration": 0.0818182,
                "tempo": 120.0
            },
            {
                "start_time": 7.6045455,
                "end_time": 7.6886364,
                "pitch": 40,
                "velocity": 64,
                "duration": 0.0840909,
                "tempo": 120.0
            },
            {
                "start_time": 7.7045455,
                "end_time": 7.7886364,
                "pitch": 42,
                "velocity": 64,
                "duration": 0.0840909,
                "tempo": 120.0
            },
            {
                "start_time": 7.8045455,
                "end_time": 7.8886364,
                "pitch": 37,
                "velocity": 64,
                "duration": 0.0840909,
                "tempo": 120.0
            },
            {
                "start_time": 7.9045455,
                "end_time": 7.9886364,
                "pitch": 35,
                "velocity": 64,
                "duration": 0.0840909,
                "tempo": 120.0
            },
            {
                "start_time": 8.0068182,
                "end_time": 8.1909091,
                "pitch": 42,
                "velocity": 64,
                "duration": 0.1840909,
                "tempo": 120.0
            },
            {
                "start_time": 8.2068182,
                "end_time": 8.2909091,
                "pitch": 42,
                "velocity": 64,
                "duration": 0.0840909,
                "tempo": 120.0
            },
            {
                "start_time": 8.3068182,
                "end_time": 8.3909091,
                "pitch": 42,
                "velocity": 64,
                "duration": 0.0840909,
                "tempo": 120.0
            },
            {
                "start_time": 8.4090909,
                "end_time": 8.5886364,
                "pitch": 42,
                "velocity": 64,
                "duration": 0.1795455,
                "tempo": 120.0
            },
            {
                "start_time": 8.6045455,
                "end_time": 8.6863636,
                "pitch": 42,
                "velocity": 64,
                "duration": 0.0818182,
                "tempo": 120.0
            },
            {
                "start_time": 8.7022727,
                "end_time": 8.7840909,
                "pitch": 42,
                "velocity": 64,
                "duration": 0.0818182,
                "tempo": 120.0
            },
            {
                "start_time": 8.8,
                "end_time": 8.9840909,
                "pitch": 42,
                "velocity": 64,
                "duration": 0.1840909,
                "tempo": 120.0
            },
            {
                "start_time": 9.0,
                "end_time": 9.0840909,
                "pitch": 42,
                "velocity": 64,
                "duration": 0.0840909,
                "tempo": 120.0
            },
            {
                "start_time": 9.1,
                "end_time": 9.1840909,
                "pitch": 42,
                "velocity": 64,
                "duration": 0.0840909,
                "tempo": 120.0
            },
            {
                "start_time": 9.2,
                "end_time": 9.2863636,
                "pitch": 40,
                "velocity": 64,
                "duration": 0.0863636,
                "tempo": 120.0
            },
            {
                "start_time": 9.3022727,
                "end_time": 9.3886364,
                "pitch": 42,
                "velocity": 64,
                "duration": 0.0863636,
                "tempo": 120.0
            },
            {
                "start_time": 9.4068182,
                "end_time": 9.4909091,
                "pitch": 37,
                "velocity": 64,
                "duration": 0.0840909,
                "tempo": 120.0
            },
            {
                "start_time": 9.5090909,
                "end_time": 9.5931818,
                "pitch": 35,
                "velocity": 64,
                "duration": 0.0840909,
                "tempo": 120.0
            },
            {
                "start_time": 9.6113636,
                "end_time": 9.7954545,
                "pitch": 40,
                "velocity": 64,
                "duration": 0.1840909,
                "tempo": 120.0
            },
            {
                "start_time": 9.8136364,
                "end_time": 9.8977273,
                "pitch": 40,
                "velocity": 64,
                "duration": 0.0840909,
                "tempo": 120.0
            },
            {
                "start_time": 9.9136364,
                "end_time": 9.9977273,
                "pitch": 40,
                "velocity": 64,
                "duration": 0.0840909,
                "tempo": 120.0
            },
            {
                "start_time": 10.0136364,
                "end_time": 10.2022727,
                "pitch": 40,
                "velocity": 64,
                "duration": 0.1886364,
                "tempo": 120.0
            },
            {
                "start_time": 10.2204545,
                "end_time": 10.3045455,
                "pitch": 40,
                "velocity": 64,
                "duration": 0.0840909,
                "tempo": 120.0
            },
            {
                "start_time": 10.3227273,
                "end_time": 10.4068182,
                "pitch": 40,
                "velocity": 64,
                "duration": 0.0840909,
                "tempo": 120.0
            },
            {
                "start_time": 10.425,
                "end_time": 10.6045455,
                "pitch": 40,
                "velocity": 64,
                "duration": 0.1795455,
                "tempo": 120.0
            },
            {
                "start_time": 10.6204545,
                "end_time": 10.7022727,
                "pitch": 40,
                "velocity": 64,
                "duration": 0.0818182,
                "tempo": 120.0
            },
            {
                "start_time": 10.7181818,
                "end_time": 10.8,
                "pitch": 40,
                "velocity": 64,
                "duration": 0.0818182,
                "tempo": 120.0
            },
            {
                "start_time": 10.8159091,
                "end_time": 10.9,
                "pitch": 39,
                "velocity": 64,
                "duration": 0.0840909,
                "tempo": 120.0
            },
            {
                "start_time": 10.9181818,
                "end_time": 11.0022727,
                "pitch": 40,
                "velocity": 64,
                "duration": 0.0840909,
                "tempo": 120.0
            },
            {
                "start_time": 11.0181818,
                "end_time": 11.1022727,
                "pitch": 35,
                "velocity": 64,
                "duration": 0.0840909,
                "tempo": 120.0
            },
            {
                "start_time": 11.1181818,
                "end_time": 11.2022727,
                "pitch": 33,
                "velocity": 64,
                "duration": 0.0840909,
                "tempo": 120.0
            },
            {
                "start_time": 11.2204545,
                "end_time": 11.4022727,
                "pitch": 40,
                "velocity": 64,
                "duration": 0.1818182,
                "tempo": 120.0
            },
            {
                "start_time": 11.4204545,
                "end_time": 11.5022727,
                "pitch": 40,
                "velocity": 64,
                "duration": 0.0818182,
                "tempo": 120.0
            },
            {
                "start_time": 11.5204545,
                "end_time": 11.6022727,
                "pitch": 40,
                "velocity": 64,
                "duration": 0.0818182,
                "tempo": 120.0
            },
            {
                "start_time": 11.6204545,
                "end_time": 11.8068182,
                "pitch": 40,
                "velocity": 64,
                "duration": 0.1863636,
                "tempo": 120.0
            },
            {
                "start_time": 11.825,
                "end_time": 11.9113636,
                "pitch": 40,
                "velocity": 64,
                "duration": 0.0863636,
                "tempo": 120.0
            },
            {
                "start_time": 11.9272727,
                "end_time": 12.0136364,
                "pitch": 40,
                "velocity": 64,
                "duration": 0.0863636,
                "tempo": 120.0
            },
            {
                "start_time": 12.0295455,
                "end_time": 12.2045455,
                "pitch": 40,
                "velocity": 64,
                "duration": 0.175,
                "tempo": 120.0
            },
            {
                "start_time": 12.2204545,
                "end_time": 12.3,
                "pitch": 40,
                "velocity": 64,
                "duration": 0.0795455,
                "tempo": 120.0
            },
            {
                "start_time": 12.3159091,
                "end_time": 12.3954545,
                "pitch": 40,
                "velocity": 64,
                "duration": 0.0795455,
                "tempo": 120.0
            },
            {
                "start_time": 12.4113636,
                "end_time": 12.4977273,
                "pitch": 39,
                "velocity": 64,
                "duration": 0.0863636,
                "tempo": 120.0
            },
            {
                "start_time": 12.5136364,
                "end_time": 12.6,
                "pitch": 40,
                "velocity": 64,
                "duration": 0.0863636,
                "tempo": 120.0
            },
            {
                "start_time": 12.6181818,
                "end_time": 12.7022727,
                "pitch": 35,
                "velocity": 64,
                "duration": 0.0840909,
                "tempo": 120.0
            },
            {
                "start_time": 12.7204545,
                "end_time": 12.8068182,
                "pitch": 33,
                "velocity": 64,
                "duration": 0.0863636,
                "tempo": 120.0
            },
            {
                "start_time": 12.8227273,
                "end_time": 13.0068182,
                "pitch": 44,
                "velocity": 64,
                "duration": 0.1840909,
                "tempo": 120.0
            },
            {
                "start_time": 13.025,
                "end_time": 13.1090909,
                "pitch": 44,
                "velocity": 64,
                "duration": 0.0840909,
                "tempo": 120.0
            },
            {
                "start_time": 13.125,
                "end_time": 13.2090909,
                "pitch": 44,
                "velocity": 64,
                "duration": 0.0840909,
                "tempo": 120.0
            },
            {
                "start_time": 13.225,
                "end_time": 13.4136364,
                "pitch": 44,
                "velocity": 64,
                "duration": 0.1886364,
                "tempo": 120.0
            },
            {
                "start_time": 13.4318182,
                "end_time": 13.5159091,
                "pitch": 44,
                "velocity": 64,
                "duration": 0.0840909,
                "tempo": 120.0
            },
            {
                "start_time": 13.5340909,
                "end_time": 13.6181818,
                "pitch": 44,
                "velocity": 64,
                "duration": 0.0840909,
                "tempo": 120.0
            },
            {
                "start_time": 13.6363636,
                "end_time": 13.8113636,
                "pitch": 44,
                "velocity": 64,
                "duration": 0.175,
                "tempo": 120.0
            },
            {
                "start_time": 13.8272727,
                "end_time": 13.9068182,
                "pitch": 44,
                "velocity": 64,
                "duration": 0.0795455,
                "tempo": 120.0
            },
            {
                "start_time": 13.9227273,
                "end_time": 14.0022727,
                "pitch": 44,
                "velocity": 64,
                "duration": 0.0795455,
                "tempo": 120.0
            },
            {
                "start_time": 14.0181818,
                "end_time": 14.1022727,
                "pitch": 42,
                "velocity": 64,
                "duration": 0.0840909,
                "tempo": 120.0
            },
            {
                "start_time": 14.1204545,
                "end_time": 14.2068182,
                "pitch": 44,
                "velocity": 64,
                "duration": 0.0863636,
                "tempo": 120.0
            },
            {
                "start_time": 14.2227273,
                "end_time": 14.3090909,
                "pitch": 37,
                "velocity": 64,
                "duration": 0.0863636,
                "tempo": 120.0
            },
            {
                "start_time": 14.325,
                "end_time": 14.4113636,
                "pitch": 35,
                "velocity": 64,
                "duration": 0.0863636,
                "tempo": 120.0
            },
            {
                "start_time": 14.4295455,
                "end_time": 14.6136364,
                "pitch": 44,
                "velocity": 64,
                "duration": 0.1840909,
                "tempo": 120.0
            },
            {
                "start_time": 14.6295455,
                "end_time": 14.7136364,
                "pitch": 44,
                "velocity": 64,
                "duration": 0.0840909,
                "tempo": 120.0
            },
            {
                "start_time": 14.7295455,
                "end_time": 14.8136364,
                "pitch": 44,
                "velocity": 64,
                "duration": 0.0840909,
                "tempo": 120.0
            },
            {
                "start_time": 14.8318182,
                "end_time": 15.0204545,
                "pitch": 44,
                "velocity": 64,
                "duration": 0.1886364,
                "tempo": 120.0
            },
            {
                "start_time": 15.0363636,
                "end_time": 15.1227273,
                "pitch": 44,
                "velocity": 64,
                "duration": 0.0863636,
                "tempo": 120.0
            },
            {
                "start_time": 15.1386364,
                "end_time": 15.225,
                "pitch": 44,
                "velocity": 64,
                "duration": 0.0863636,
                "tempo": 120.0
            },
            {
                "start_time": 15.2409091,
                "end_time": 15.4159091,
                "pitch": 44,
                "velocity": 64,
                "duration": 0.175,
                "tempo": 120.0
            },
            {
                "start_time": 15.4318182,
                "end_time": 15.5113636,
                "pitch": 44,
                "velocity": 64,
                "duration": 0.0795455,
                "tempo": 120.0
            },
            {
                "start_time": 15.5272727,
                "end_time": 15.6068182,
                "pitch": 44,
                "velocity": 64,
                "duration": 0.0795455,
                "tempo": 120.0
            },
            {
                "start_time": 15.6227273,
                "end_time": 15.7090909,
                "pitch": 42,
                "velocity": 64,
                "duration": 0.0863636,
                "tempo": 120.0
            },
            {
                "start_time": 15.7272727,
                "end_time": 15.8113636,
                "pitch": 44,
                "velocity": 64,
                "duration": 0.0840909,
                "tempo": 120.0
            },
            {
                "start_time": 15.8295455,
                "end_time": 15.9136364,
                "pitch": 37,
                "velocity": 64,
                "duration": 0.0840909,
                "tempo": 120.0
            },
            {
                "start_time": 15.9318182,
                "end_time": 16.0181818,
                "pitch": 35,
                "velocity": 64,
                "duration": 0.0863636,
                "tempo": 120.0
            },
            {
                "start_time": 16.0340909,
                "end_time": 16.2181818,
                "pitch": 44,
                "velocity": 64,
                "duration": 0.1840909,
                "tempo": 120.0
            },
            {
                "start_time": 16.2363636,
                "end_time": 16.3204545,
                "pitch": 44,
                "velocity": 64,
                "duration": 0.0840909,
                "tempo": 120.0
            },
            {
                "start_time": 16.3363636,
                "end_time": 16.4204545,
                "pitch": 44,
                "velocity": 64,
                "duration": 0.0840909,
                "tempo": 120.0
            },
            {
                "start_time": 16.4363636,
                "end_time": 16.625,
                "pitch": 44,
                "velocity": 64,
                "duration": 0.1886364,
                "tempo": 120.0
            },
            {
                "start_time": 16.6431818,
                "end_time": 16.7272727,
                "pitch": 44,
                "velocity": 64,
                "duration": 0.0840909,
                "tempo": 120.0
            },
            {
                "start_time": 16.7454545,
                "end_time": 16.8318182,
                "pitch": 44,
                "velocity": 64,
                "duration": 0.0863636,
                "tempo": 120.0
            },
            {
                "start_time": 16.8477273,
                "end_time": 17.0272727,
                "pitch": 44,
                "velocity": 64,
                "duration": 0.1795455,
                "tempo": 120.0
            },
            {
                "start_time": 17.0431818,
                "end_time": 17.125,
                "pitch": 44,
                "velocity": 64,
                "duration": 0.0818182,
                "tempo": 120.0
            },
            {
                "start_time": 17.1409091,
                "end_time": 17.2227273,
                "pitch": 44,
                "velocity": 64,
                "duration": 0.0818182,
                "tempo": 120.0
            },
            {
                "start_time": 17.2409091,
                "end_time": 17.3227273,
                "pitch": 42,
                "velocity": 64,
                "duration": 0.0818182,
                "tempo": 120.0
            },
            {
                "start_time": 17.3409091,
                "end_time": 17.4227273,
                "pitch": 44,
                "velocity": 64,
                "duration": 0.0818182,
                "tempo": 120.0
            },
            {
                "start_time": 17.4409091,
                "end_time": 17.5227273,
                "pitch": 37,
                "velocity": 64,
                "duration": 0.0818182,
                "tempo": 120.0
            },
            {
                "start_time": 17.5409091,
                "end_time": 17.6227273,
                "pitch": 35,
                "velocity": 64,
                "duration": 0.0818182,
                "tempo": 120.0
            },
            {
                "start_time": 17.6409091,
                "end_time": 17.825,
                "pitch": 44,
                "velocity": 64,
                "duration": 0.1840909,
                "tempo": 120.0
            },
            {
                "start_time": 17.8409091,
                "end_time": 17.925,
                "pitch": 44,
                "velocity": 64,
                "duration": 0.0840909,
                "tempo": 120.0
            },
            {
                "start_time": 17.9431818,
                "end_time": 18.025,
                "pitch": 44,
                "velocity": 64,
                "duration": 0.0818182,
                "tempo": 120.0
            },
            {
                "start_time": 18.0431818,
                "end_time": 18.2318182,
                "pitch": 44,
                "velocity": 64,
                "duration": 0.1886364,
                "tempo": 120.0
            },
            {
                "start_time": 18.2477273,
                "end_time": 18.3340909,
                "pitch": 44,
                "velocity": 64,
                "duration": 0.0863636,
                "tempo": 120.0
            },
            {
                "start_time": 18.35,
                "end_time": 18.4363636,
                "pitch": 44,
                "velocity": 64,
                "duration": 0.0863636,
                "tempo": 120.0
            },
            {
                "start_time": 18.4545455,
                "end_time": 18.6340909,
                "pitch": 44,
                "velocity": 64,
                "duration": 0.1795455,
                "tempo": 120.0
            },
            {
                "start_time": 18.65,
                "end_time": 18.7318182,
                "pitch": 44,
                "velocity": 64,
                "duration": 0.0818182,
                "tempo": 120.0
            },
            {
                "start_time": 18.7477273,
                "end_time": 18.8295455,
                "pitch": 44,
                "velocity": 64,
                "duration": 0.0818182,
                "tempo": 120.0
            },
            {
                "start_time": 18.8454545,
                "end_time": 18.9295455,
                "pitch": 42,
                "velocity": 64,
                "duration": 0.0840909,
                "tempo": 120.0
            },
            {
                "start_time": 18.9454545,
                "end_time": 19.0295455,
                "pitch": 44,
                "velocity": 64,
                "duration": 0.0840909,
                "tempo": 120.0
            },
            {
                "start_time": 19.0477273,
                "end_time": 19.1318182,
                "pitch": 37,
                "velocity": 64,
                "duration": 0.0840909,
                "tempo": 120.0
            },
            {
                "start_time": 19.1477273,
                "end_time": 19.2318182,
                "pitch": 35,
                "velocity": 64,
                "duration": 0.0840909,
                "tempo": 120.0
            },
            {
                "start_time": 19.2477273,
                "end_time": 19.4318182,
                "pitch": 42,
                "velocity": 64,
                "duration": 0.1840909,
                "tempo": 120.0
            },
            {
                "start_time": 19.4477273,
                "end_time": 19.5318182,
                "pitch": 42,
                "velocity": 64,
                "duration": 0.0840909,
                "tempo": 120.0
            },
            {
                "start_time": 19.5477273,
                "end_time": 19.6318182,
                "pitch": 42,
                "velocity": 64,
                "duration": 0.0840909,
                "tempo": 120.0
            },
            {
                "start_time": 19.6477273,
                "end_time": 19.8363636,
                "pitch": 42,
                "velocity": 64,
                "duration": 0.1886364,
                "tempo": 120.0
            },
            {
                "start_time": 19.8545455,
                "end_time": 19.9386364,
                "pitch": 42,
                "velocity": 64,
                "duration": 0.0840909,
                "tempo": 120.0
            },
            {
                "start_time": 19.9568182,
                "end_time": 20.0409091,
                "pitch": 42,
                "velocity": 64,
                "duration": 0.0840909,
                "tempo": 120.0
            },
            {
                "start_time": 20.0590909,
                "end_time": 20.2386364,
                "pitch": 42,
                "velocity": 64,
                "duration": 0.1795455,
                "tempo": 120.0
            },
            {
                "start_time": 20.2545455,
                "end_time": 20.3363636,
                "pitch": 42,
                "velocity": 64,
                "duration": 0.0818182,
                "tempo": 120.0
            },
            {
                "start_time": 20.3522727,
                "end_time": 20.4340909,
                "pitch": 42,
                "velocity": 64,
                "duration": 0.0818182,
                "tempo": 120.0
            },
            {
                "start_time": 20.4522727,
                "end_time": 20.5340909,
                "pitch": 40,
                "velocity": 64,
                "duration": 0.0818182,
                "tempo": 120.0
            },
            {
                "start_time": 20.5522727,
                "end_time": 20.6340909,
                "pitch": 42,
                "velocity": 64,
                "duration": 0.0818182,
                "tempo": 120.0
            },
            {
                "start_time": 20.6522727,
                "end_time": 20.7340909,
                "pitch": 37,
                "velocity": 64,
                "duration": 0.0818182,
                "tempo": 120.0
            },
            {
                "start_time": 20.7522727,
                "end_time": 20.8340909,
                "pitch": 35,
                "velocity": 64,
                "duration": 0.0818182,
                "tempo": 120.0
            },
            {
                "start_time": 20.8522727,
                "end_time": 21.0363636,
                "pitch": 42,
                "velocity": 64,
                "duration": 0.1840909,
                "tempo": 120.0
            },
            {
                "start_time": 21.0522727,
                "end_time": 21.1363636,
                "pitch": 42,
                "velocity": 64,
                "duration": 0.0840909,
                "tempo": 120.0
            },
            {
                "start_time": 21.1522727,
                "end_time": 21.2363636,
                "pitch": 42,
                "velocity": 64,
                "duration": 0.0840909,
                "tempo": 120.0
            },
            {
                "start_time": 21.2545455,
                "end_time": 21.4409091,
                "pitch": 42,
                "velocity": 64,
                "duration": 0.1863636,
                "tempo": 120.0
            },
            {
                "start_time": 21.4590909,
                "end_time": 21.5454545,
                "pitch": 42,
                "velocity": 64,
                "duration": 0.0863636,
                "tempo": 120.0
            },
            {
                "start_time": 21.5613636,
                "end_time": 21.6477273,
                "pitch": 42,
                "velocity": 64,
                "duration": 0.0863636,
                "tempo": 120.0
            },
            {
                "start_time": 21.6636364,
                "end_time": 21.8454545,
                "pitch": 42,
                "velocity": 64,
                "duration": 0.1818182,
                "tempo": 120.0
            },
            {
                "start_time": 21.8613636,
                "end_time": 21.9431818,
                "pitch": 42,
                "velocity": 64,
                "duration": 0.0818182,
                "tempo": 120.0
            },
            {
                "start_time": 21.9590909,
                "end_time": 22.0409091,
                "pitch": 42,
                "velocity": 64,
                "duration": 0.0818182,
                "tempo": 120.0
            },
            {
                "start_time": 22.0568182,
                "end_time": 22.1409091,
                "pitch": 40,
                "velocity": 64,
                "duration": 0.0840909,
                "tempo": 120.0
            },
            {
                "start_time": 22.1568182,
                "end_time": 22.2409091,
                "pitch": 42,
                "velocity": 64,
                "duration": 0.0840909,
                "tempo": 120.0
            },
            {
                "start_time": 22.2568182,
                "end_time": 22.3409091,
                "pitch": 37,
                "velocity": 64,
                "duration": 0.0840909,
                "tempo": 120.0
            },
            {
                "start_time": 22.3568182,
                "end_time": 22.4409091,
                "pitch": 35,
                "velocity": 64,
                "duration": 0.0840909,
                "tempo": 120.0
            },
            {
                "start_time": 22.4568182,
                "end_time": 22.6409091,
                "pitch": 40,
                "velocity": 64,
                "duration": 0.1840909,
                "tempo": 120.0
            },
            {
                "start_time": 22.6568182,
                "end_time": 22.7409091,
                "pitch": 40,
                "velocity": 64,
                "duration": 0.0840909,
                "tempo": 120.0
            },
            {
                "start_time": 22.7568182,
                "end_time": 22.8409091,
                "pitch": 40,
                "velocity": 64,
                "duration": 0.0840909,
                "tempo": 120.0
            },
            {
                "start_time": 22.8568182,
                "end_time": 23.0363636,
                "pitch": 40,
                "velocity": 64,
                "duration": 0.1795455,
                "tempo": 120.0
            },
            {
                "start_time": 23.0522727,
                "end_time": 23.1340909,
                "pitch": 40,
                "velocity": 64,
                "duration": 0.0818182,
                "tempo": 120.0
            },
            {
                "start_time": 23.15,
                "end_time": 23.2318182,
                "pitch": 40,
                "velocity": 64,
                "duration": 0.0818182,
                "tempo": 120.0
            },
            {
                "start_time": 23.2477273,
                "end_time": 23.4363636,
                "pitch": 40,
                "velocity": 64,
                "duration": 0.1886364,
                "tempo": 120.0
            },
            {
                "start_time": 23.4545455,
                "end_time": 23.5409091,
                "pitch": 40,
                "velocity": 64,
                "duration": 0.0863636,
                "tempo": 120.0
            },
            {
                "start_time": 23.5568182,
                "end_time": 23.6431818,
                "pitch": 40,
                "velocity": 64,
                "duration": 0.0863636,
                "tempo": 120.0
            },
            {
                "start_time": 23.6590909,
                "end_time": 23.7431818,
                "pitch": 39,
                "velocity": 64,
                "duration": 0.0840909,
                "tempo": 120.0
            },
            {
                "start_time": 23.7613636,
                "end_time": 23.8431818,
                "pitch": 40,
                "velocity": 64,
                "duration": 0.0818182,
                "tempo": 120.0
            },
            {
                "start_time": 23.8613636,
                "end_time": 23.9454545,
                "pitch": 35,
                "velocity": 64,
                "duration": 0.0840909,
                "tempo": 120.0
            },
            {
                "start_time": 23.9613636,
                "end_time": 24.0454545,
                "pitch": 33,
                "velocity": 64,
                "duration": 0.0840909,
                "tempo": 120.0
            },
            {
                "start_time": 24.0613636,
                "end_time": 24.2454545,
                "pitch": 40,
                "velocity": 64,
                "duration": 0.1840909,
                "tempo": 120.0
            },
            {
                "start_time": 24.2613636,
                "end_time": 24.3454545,
                "pitch": 40,
                "velocity": 64,
                "duration": 0.0840909,
                "tempo": 120.0
            },
            {
                "start_time": 24.3613636,
                "end_time": 24.4454545,
                "pitch": 40,
                "velocity": 64,
                "duration": 0.0840909,
                "tempo": 120.0
            },
            {
                "start_time": 24.4613636,
                "end_time": 24.65,
                "pitch": 40,
                "velocity": 64,
                "duration": 0.1886364,
                "tempo": 120.0
            },
            {
                "start_time": 24.6681818,
                "end_time": 24.7522727,
                "pitch": 40,
                "velocity": 64,
                "duration": 0.0840909,
                "tempo": 120.0
            },
            {
                "start_time": 24.7704545,
                "end_time": 24.8568182,
                "pitch": 40,
                "velocity": 64,
                "duration": 0.0863636,
                "tempo": 120.0
            },
            {
                "start_time": 24.8727273,
                "end_time": 25.0568182,
                "pitch": 40,
                "velocity": 64,
                "duration": 0.1840909,
                "tempo": 120.0
            },
            {
                "start_time": 25.0727273,
                "end_time": 25.1568182,
                "pitch": 40,
                "velocity": 64,
                "duration": 0.0840909,
                "tempo": 120.0
            },
            {
                "start_time": 25.1727273,
                "end_time": 25.2568182,
                "pitch": 40,
                "velocity": 64,
                "duration": 0.0840909,
                "tempo": 120.0
            },
            {
                "start_time": 25.2727273,
                "end_time": 25.3545455,
                "pitch": 39,
                "velocity": 64,
                "duration": 0.0818182,
                "tempo": 120.0
            },
            {
                "start_time": 25.3704545,
                "end_time": 25.4522727,
                "pitch": 40,
                "velocity": 64,
                "duration": 0.0818182,
                "tempo": 120.0
            },
            {
                "start_time": 25.4704545,
                "end_time": 25.55,
                "pitch": 35,
                "velocity": 64,
                "duration": 0.0795455,
                "tempo": 120.0
            },
            {
                "start_time": 25.5681818,
                "end_time": 25.65,
                "pitch": 33,
                "velocity": 64,
                "duration": 0.0818182,
                "tempo": 120.0
            },
            {
                "start_time": 25.6659091,
                "end_time": 25.75,
                "pitch": 35,
                "velocity": 64,
                "duration": 0.0840909,
                "tempo": 120.0
            },
            {
                "start_time": 25.7659091,
                "end_time": 25.95,
                "pitch": 35,
                "velocity": 64,
                "duration": 0.1840909,
                "tempo": 120.0
            },
            {
                "start_time": 25.9681818,
                "end_time": 26.0522727,
                "pitch": 47,
                "velocity": 64,
                "duration": 0.0840909,
                "tempo": 120.0
            },
            {
                "start_time": 26.0681818,
                "end_time": 26.1522727,
                "pitch": 35,
                "velocity": 64,
                "duration": 0.0840909,
                "tempo": 120.0
            },
            {
                "start_time": 26.1681818,
                "end_time": 26.2522727,
                "pitch": 35,
                "velocity": 64,
                "duration": 0.0840909,
                "tempo": 120.0
            },
            {
                "start_time": 26.2681818,
                "end_time": 26.3522727,
                "pitch": 42,
                "velocity": 64,
                "duration": 0.0840909,
                "tempo": 120.0
            },
            {
                "start_time": 26.3681818,
                "end_time": 26.5522727,
                "pitch": 42,
                "velocity": 64,
                "duration": 0.1840909,
                "tempo": 120.0
            },
            {
                "start_time": 26.5681818,
                "end_time": 26.7522727,
                "pitch": 39,
                "velocity": 64,
                "duration": 0.1840909,
                "tempo": 120.0
            },
            {
                "start_time": 26.7681818,
                "end_time": 26.8522727,
                "pitch": 42,
                "velocity": 64,
                "duration": 0.0840909,
                "tempo": 120.0
            },
            {
                "start_time": 26.8681818,
                "end_time": 26.9522727,
                "pitch": 35,
                "velocity": 64,
                "duration": 0.0840909,
                "tempo": 120.0
            },
            {
                "start_time": 26.9681818,
                "end_time": 27.0522727,
                "pitch": 35,
                "velocity": 64,
                "duration": 0.0840909,
                "tempo": 120.0
            },
            {
                "start_time": 27.0704545,
                "end_time": 27.1545455,
                "pitch": 35,
                "velocity": 64,
                "duration": 0.0840909,
                "tempo": 120.0
            },
            {
                "start_time": 27.1704545,
                "end_time": 27.2545455,
                "pitch": 47,
                "velocity": 64,
                "duration": 0.0840909,
                "tempo": 120.0
            },
            {
                "start_time": 27.2704545,
                "end_time": 27.3545455,
                "pitch": 35,
                "velocity": 64,
                "duration": 0.0840909,
                "tempo": 120.0
            },
            {
                "start_time": 27.3704545,
                "end_time": 27.5545455,
                "pitch": 35,
                "velocity": 64,
                "duration": 0.1840909,
                "tempo": 120.0
            },
            {
                "start_time": 27.5704545,
                "end_time": 27.6545455,
                "pitch": 47,
                "velocity": 64,
                "duration": 0.0840909,
                "tempo": 120.0
            },
            {
                "start_time": 27.6704545,
                "end_time": 27.7545455,
                "pitch": 35,
                "velocity": 64,
                "duration": 0.0840909,
                "tempo": 120.0
            },
            {
                "start_time": 27.7704545,
                "end_time": 27.8545455,
                "pitch": 35,
                "velocity": 64,
                "duration": 0.0840909,
                "tempo": 120.0
            },
            {
                "start_time": 27.8727273,
                "end_time": 27.9568182,
                "pitch": 42,
                "velocity": 64,
                "duration": 0.0840909,
                "tempo": 120.0
            },
            {
                "start_time": 27.9727273,
                "end_time": 28.1568182,
                "pitch": 42,
                "velocity": 64,
                "duration": 0.1840909,
                "tempo": 120.0
            },
            {
                "start_time": 28.1727273,
                "end_time": 28.3568182,
                "pitch": 39,
                "velocity": 64,
                "duration": 0.1840909,
                "tempo": 120.0
            },
            {
                "start_time": 28.3727273,
                "end_time": 28.4568182,
                "pitch": 42,
                "velocity": 64,
                "duration": 0.0840909,
                "tempo": 120.0
            },
            {
                "start_time": 28.4727273,
                "end_time": 28.5545455,
                "pitch": 35,
                "velocity": 64,
                "duration": 0.0818182,
                "tempo": 120.0
            },
            {
                "start_time": 28.5704545,
                "end_time": 28.6522727,
                "pitch": 35,
                "velocity": 64,
                "duration": 0.0818182,
                "tempo": 120.0
            },
            {
                "start_time": 28.6704545,
                "end_time": 28.75,
                "pitch": 35,
                "velocity": 64,
                "duration": 0.0795455,
                "tempo": 120.0
            },
            {
                "start_time": 28.7681818,
                "end_time": 28.85,
                "pitch": 47,
                "velocity": 64,
                "duration": 0.0818182,
                "tempo": 120.0
            },
            {
                "start_time": 28.8659091,
                "end_time": 28.9522727,
                "pitch": 35,
                "velocity": 64,
                "duration": 0.0863636,
                "tempo": 120.0
            },
            {
                "start_time": 28.9681818,
                "end_time": 29.1568182,
                "pitch": 35,
                "velocity": 64,
                "duration": 0.1886364,
                "tempo": 120.0
            },
            {
                "start_time": 29.1727273,
                "end_time": 29.2590909,
                "pitch": 47,
                "velocity": 64,
                "duration": 0.0863636,
                "tempo": 120.0
            },
            {
                "start_time": 29.2772727,
                "end_time": 29.3590909,
                "pitch": 35,
                "velocity": 64,
                "duration": 0.0818182,
                "tempo": 120.0
            },
            {
                "start_time": 29.3772727,
                "end_time": 29.4590909,
                "pitch": 35,
                "velocity": 64,
                "duration": 0.0818182,
                "tempo": 120.0
            },
            {
                "start_time": 29.4772727,
                "end_time": 29.5590909,
                "pitch": 42,
                "velocity": 64,
                "duration": 0.0818182,
                "tempo": 120.0
            },
            {
                "start_time": 29.5772727,
                "end_time": 29.7613636,
                "pitch": 42,
                "velocity": 64,
                "duration": 0.1840909,
                "tempo": 120.0
            },
            {
                "start_time": 29.7772727,
                "end_time": 29.9613636,
                "pitch": 39,
                "velocity": 64,
                "duration": 0.1840909,
                "tempo": 120.0
            },
            {
                "start_time": 29.9795455,
                "end_time": 30.0613636,
                "pitch": 42,
                "velocity": 64,
                "duration": 0.0818182,
                "tempo": 120.0
            },
            {
                "start_time": 30.0795455,
                "end_time": 30.1613636,
                "pitch": 35,
                "velocity": 64,
                "duration": 0.0818182,
                "tempo": 120.0
            },
            {
                "start_time": 30.1795455,
                "end_time": 30.2613636,
                "pitch": 35,
                "velocity": 64,
                "duration": 0.0818182,
                "tempo": 120.0
            },
            {
                "start_time": 30.2795455,
                "end_time": 30.3613636,
                "pitch": 35,
                "velocity": 64,
                "duration": 0.0818182,
                "tempo": 120.0
            },
            {
                "start_time": 30.3795455,
                "end_time": 30.4613636,
                "pitch": 47,
                "velocity": 64,
                "duration": 0.0818182,
                "tempo": 120.0
            },
            {
                "start_time": 30.4795455,
                "end_time": 30.5613636,
                "pitch": 35,
                "velocity": 64,
                "duration": 0.0818182,
                "tempo": 120.0
            },
            {
                "start_time": 30.5795455,
                "end_time": 30.7613636,
                "pitch": 35,
                "velocity": 64,
                "duration": 0.1818182,
                "tempo": 120.0
            },
            {
                "start_time": 30.7795455,
                "end_time": 30.8613636,
                "pitch": 47,
                "velocity": 64,
                "duration": 0.0818182,
                "tempo": 120.0
            },
            {
                "start_time": 30.8795455,
                "end_time": 30.9636364,
                "pitch": 35,
                "velocity": 64,
                "duration": 0.0840909,
                "tempo": 120.0
            },
            {
                "start_time": 30.9795455,
                "end_time": 31.0636364,
                "pitch": 35,
                "velocity": 64,
                "duration": 0.0840909,
                "tempo": 120.0
            },
            {
                "start_time": 31.0795455,
                "end_time": 31.1636364,
                "pitch": 42,
                "velocity": 64,
                "duration": 0.0840909,
                "tempo": 120.0
            },
            {
                "start_time": 31.1818182,
                "end_time": 31.3636364,
                "pitch": 42,
                "velocity": 64,
                "duration": 0.1818182,
                "tempo": 120.0
            },
            {
                "start_time": 31.3795455,
                "end_time": 31.5590909,
                "pitch": 39,
                "velocity": 64,
                "duration": 0.1795455,
                "tempo": 120.0
            },
            {
                "start_time": 31.575,
                "end_time": 31.6568182,
                "pitch": 42,
                "velocity": 64,
                "duration": 0.0818182,
                "tempo": 120.0
            },
            {
                "start_time": 31.6727273,
                "end_time": 31.7590909,
                "pitch": 35,
                "velocity": 64,
                "duration": 0.0863636,
                "tempo": 120.0
            },
            {
                "start_time": 31.7772727,
                "end_time": 31.8613636,
                "pitch": 35,
                "velocity": 64,
                "duration": 0.0840909,
                "tempo": 120.0
            },
            {
                "start_time": 31.8795455,
                "end_time": 31.9659091,
                "pitch": 35,
                "velocity": 64,
                "duration": 0.0863636,
                "tempo": 120.0
            },
            {
                "start_time": 31.9818182,
                "end_time": 32.0681818,
                "pitch": 47,
                "velocity": 64,
                "duration": 0.0863636,
                "tempo": 120.0
            },
            {
                "start_time": 32.0840909,
                "end_time": 32.1681818,
                "pitch": 33,
                "velocity": 64,
                "duration": 0.0840909,
                "tempo": 120.0
            },
            {
                "start_time": 32.1840909,
                "end_time": 32.3681818,
                "pitch": 33,
                "velocity": 64,
                "duration": 0.1840909,
                "tempo": 120.0
            },
            {
                "start_time": 32.3840909,
                "end_time": 32.4681818,
                "pitch": 45,
                "velocity": 64,
                "duration": 0.0840909,
                "tempo": 120.0
            },
            {
                "start_time": 32.4840909,
                "end_time": 32.5659091,
                "pitch": 33,
                "velocity": 64,
                "duration": 0.0818182,
                "tempo": 120.0
            },
            {
                "start_time": 32.5818182,
                "end_time": 32.6636364,
                "pitch": 33,
                "velocity": 64,
                "duration": 0.0818182,
                "tempo": 120.0
            },
            {
                "start_time": 32.6795455,
                "end_time": 32.7613636,
                "pitch": 40,
                "velocity": 64,
                "duration": 0.0818182,
                "tempo": 120.0
            },
            {
                "start_time": 32.7795455,
                "end_time": 32.9590909,
                "pitch": 40,
                "velocity": 64,
                "duration": 0.1795455,
                "tempo": 120.0
            },
            {
                "start_time": 32.9772727,
                "end_time": 33.1590909,
                "pitch": 37,
                "velocity": 64,
                "duration": 0.1818182,
                "tempo": 120.0
            },
            {
                "start_time": 33.1772727,
                "end_time": 33.2590909,
                "pitch": 40,
                "velocity": 64,
                "duration": 0.0818182,
                "tempo": 120.0
            },
            {
                "start_time": 33.2772727,
                "end_time": 33.3590909,
                "pitch": 33,
                "velocity": 64,
                "duration": 0.0818182,
                "tempo": 120.0
            },
            {
                "start_time": 33.3772727,
                "end_time": 33.4590909,
                "pitch": 33,
                "velocity": 64,
                "duration": 0.0818182,
                "tempo": 120.0
            },
            {
                "start_time": 33.4772727,
                "end_time": 33.5590909,
                "pitch": 33,
                "velocity": 64,
                "duration": 0.0818182,
                "tempo": 120.0
            },
            {
                "start_time": 33.5772727,
                "end_time": 33.6590909,
                "pitch": 45,
                "velocity": 64,
                "duration": 0.0818182,
                "tempo": 120.0
            },
            {
                "start_time": 33.6772727,
                "end_time": 33.7613636,
                "pitch": 33,
                "velocity": 64,
                "duration": 0.0840909,
                "tempo": 120.0
            },
            {
                "start_time": 33.7795455,
                "end_time": 33.9681818,
                "pitch": 33,
                "velocity": 64,
                "duration": 0.1886364,
                "tempo": 120.0
            },
            {
                "start_time": 33.9840909,
                "end_time": 34.0704545,
                "pitch": 45,
                "velocity": 64,
                "duration": 0.0863636,
                "tempo": 120.0
            },
            {
                "start_time": 34.0886364,
                "end_time": 34.1704545,
                "pitch": 33,
                "velocity": 64,
                "duration": 0.0818182,
                "tempo": 120.0
            },
            {
                "start_time": 34.1886364,
                "end_time": 34.2704545,
                "pitch": 33,
                "velocity": 64,
                "duration": 0.0818182,
                "tempo": 120.0
            },
            {
                "start_time": 34.2886364,
                "end_time": 34.3704545,
                "pitch": 40,
                "velocity": 64,
                "duration": 0.0818182,
                "tempo": 120.0
            },
            {
                "start_time": 34.3886364,
                "end_time": 34.5704545,
                "pitch": 40,
                "velocity": 64,
                "duration": 0.1818182,
                "tempo": 120.0
            },
            {
                "start_time": 34.5886364,
                "end_time": 34.7704545,
                "pitch": 37,
                "velocity": 64,
                "duration": 0.1818182,
                "tempo": 120.0
            },
            {
                "start_time": 34.7886364,
                "end_time": 34.8704545,
                "pitch": 40,
                "velocity": 64,
                "duration": 0.0818182,
                "tempo": 120.0
            },
            {
                "start_time": 34.8886364,
                "end_time": 34.9704545,
                "pitch": 33,
                "velocity": 64,
                "duration": 0.0818182,
                "tempo": 120.0
            },
            {
                "start_time": 34.9886364,
                "end_time": 35.0704545,
                "pitch": 33,
                "velocity": 64,
                "duration": 0.0818182,
                "tempo": 120.0
            },
            {
                "start_time": 35.0886364,
                "end_time": 35.1704545,
                "pitch": 33,
                "velocity": 64,
                "duration": 0.0818182,
                "tempo": 120.0
            },
            {
                "start_time": 35.1886364,
                "end_time": 35.2704545,
                "pitch": 45,
                "velocity": 64,
                "duration": 0.0818182,
                "tempo": 120.0
            },
            {
                "start_time": 35.2886364,
                "end_time": 35.3727273,
                "pitch": 33,
                "velocity": 64,
                "duration": 0.0840909,
                "tempo": 120.0
            },
            {
                "start_time": 35.3886364,
                "end_time": 35.5727273,
                "pitch": 33,
                "velocity": 64,
                "duration": 0.1840909,
                "tempo": 120.0
            },
            {
                "start_time": 35.5909091,
                "end_time": 35.6727273,
                "pitch": 45,
                "velocity": 64,
                "duration": 0.0818182,
                "tempo": 120.0
            },
            {
                "start_time": 35.6909091,
                "end_time": 35.7727273,
                "pitch": 33,
                "velocity": 64,
                "duration": 0.0818182,
                "tempo": 120.0
            },
            {
                "start_time": 35.7886364,
                "end_time": 35.8704545,
                "pitch": 33,
                "velocity": 64,
                "duration": 0.0818182,
                "tempo": 120.0
            },
            {
                "start_time": 35.8863636,
                "end_time": 35.9681818,
                "pitch": 40,
                "velocity": 64,
                "duration": 0.0818182,
                "tempo": 120.0
            },
            {
                "start_time": 35.9840909,
                "end_time": 36.1659091,
                "pitch": 40,
                "velocity": 64,
                "duration": 0.1818182,
                "tempo": 120.0
            },
            {
                "start_time": 36.1818182,
                "end_time": 36.3659091,
                "pitch": 37,
                "velocity": 64,
                "duration": 0.1840909,
                "tempo": 120.0
            },
            {
                "start_time": 36.3818182,
                "end_time": 36.4659091,
                "pitch": 40,
                "velocity": 64,
                "duration": 0.0840909,
                "tempo": 120.0
            },
            {
                "start_time": 36.4818182,
                "end_time": 36.5681818,
                "pitch": 33,
                "velocity": 64,
                "duration": 0.0863636,
                "tempo": 120.0
            },
            {
                "start_time": 36.5863636,
                "end_time": 36.6704545,
                "pitch": 33,
                "velocity": 64,
                "duration": 0.0840909,
                "tempo": 120.0
            },
            {
                "start_time": 36.6886364,
                "end_time": 36.7727273,
                "pitch": 33,
                "velocity": 64,
                "duration": 0.0840909,
                "tempo": 120.0
            },
            {
                "start_time": 36.7909091,
                "end_time": 36.8772727,
                "pitch": 45,
                "velocity": 64,
                "duration": 0.0863636,
                "tempo": 120.0
            },
            {
                "start_time": 36.8931818,
                "end_time": 36.9772727,
                "pitch": 33,
                "velocity": 64,
                "duration": 0.0840909,
                "tempo": 120.0
            },
            {
                "start_time": 36.9931818,
                "end_time": 37.1772727,
                "pitch": 33,
                "velocity": 64,
                "duration": 0.1840909,
                "tempo": 120.0
            },
            {
                "start_time": 37.1931818,
                "end_time": 37.2772727,
                "pitch": 45,
                "velocity": 64,
                "duration": 0.0840909,
                "tempo": 120.0
            },
            {
                "start_time": 37.2931818,
                "end_time": 37.3795455,
                "pitch": 33,
                "velocity": 64,
                "duration": 0.0863636,
                "tempo": 120.0
            },
            {
                "start_time": 37.3954545,
                "end_time": 37.4818182,
                "pitch": 33,
                "velocity": 64,
                "duration": 0.0863636,
                "tempo": 120.0
            },
            {
                "start_time": 37.4977273,
                "end_time": 37.5840909,
                "pitch": 40,
                "velocity": 64,
                "duration": 0.0863636,
                "tempo": 120.0
            },
            {
                "start_time": 37.6022727,
                "end_time": 37.7886364,
                "pitch": 40,
                "velocity": 64,
                "duration": 0.1863636,
                "tempo": 120.0
            },
            {
                "start_time": 37.8045455,
                "end_time": 37.9886364,
                "pitch": 37,
                "velocity": 64,
                "duration": 0.1840909,
                "tempo": 120.0
            },
            {
                "start_time": 38.0045455,
                "end_time": 38.0886364,
                "pitch": 40,
                "velocity": 64,
                "duration": 0.0840909,
                "tempo": 120.0
            },
            {
                "start_time": 38.1045455,
                "end_time": 38.1863636,
                "pitch": 33,
                "velocity": 64,
                "duration": 0.0818182,
                "tempo": 120.0
            },
            {
                "start_time": 38.2022727,
                "end_time": 38.2840909,
                "pitch": 33,
                "velocity": 64,
                "duration": 0.0818182,
                "tempo": 120.0
            },
            {
                "start_time": 38.3,
                "end_time": 38.3818182,
                "pitch": 33,
                "velocity": 64,
                "duration": 0.0818182,
                "tempo": 120.0
            },
            {
                "start_time": 38.3977273,
                "end_time": 38.4886364,
                "pitch": 45,
                "velocity": 64,
                "duration": 0.0909091,
                "tempo": 120.0
            }
        ]
    }
}