{
    "mood": "angry",
    "instruments": {
        "Trumpet": [
            {
                "start_time": 0.0,
                "end_time": 0.1636364,
                "pitch": 54,
                "velocity": 51,
                "duration": 0.1636364,
                "tempo": 120.0
            },
            {
                "start_time": 0.175,
                "end_time": 0.3636364,
                "pitch": 60,
                "velocity": 51,
                "duration": 0.1886364,
                "tempo": 120.0
            },
            {
                "start_time": 0.3772727,
                "end_time": 0.4931818,
                "pitch": 61,
                "velocity": 51,
                "duration": 0.1159091,
                "tempo": 120.0
            },
            {
                "start_time": 0.3772727,
                "end_time": 0.4931818,
                "pitch": 61,
                "velocity": 51,
                "duration": 0.1159091,
                "tempo": 120.0
            },
            {
                "start_time": 0.5113636,
                "end_time": 0.7613636,
                "pitch": 61,
                "velocity": 51,
                "duration": 0.25,
                "tempo": 120.0
            },
            {
                "start_time": 0.7772727,
                "end_time": 1.0295455,
                "pitch": 61,
                "velocity": 51,
                "duration": 0.2522727,
                "tempo": 120.0
            },
            {
                "start_time": 1.0454545,
                "end_time": 1.2954545,
                "pitch": 60,
                "velocity": 51,
                "duration": 0.25,
                "tempo": 120.0
            },
            {
                "start_time": 1.3113636,
                "end_time": 1.4295455,
                "pitch": 61,
                "velocity": 51,
                "duration": 0.1181818,
                "tempo": 120.0
            },
            {
                "start_time": 1.4454545,
                "end_time": 1.7,
                "pitch": 63,
                "velocity": 51,
                "duration": 0.2545455,
                "tempo": 120.0
            },
            {
                "start_time": 1.7181818,
                "end_time": 1.9727273,
                "pitch": 61,
                "velocity": 51,
                "duration": 0.2545455,
                "tempo": 120.0
            },
            {
                "start_time": 1.9909091,
                "end_time": 2.375,
                "pitch": 60,
                "velocity": 51,
                "duration": 0.3840909,
                "tempo": 120.0
            },
            {
                "start_time": 2.3909091,
                "end_time": 3.3090909,
                "pitch": 56,
                "velocity": 51,
                "duration": 0.9181818,
                "tempo": 120.0
            },
            {
                "start_time": 3.325,
                "end_time": 3.5772727,
                "pitch": 54,
                "velocity": 51,
                "duration": 0.2522727,
                "tempo": 120.0
            },
            {
                "start_time": 3.5931818,
                "end_time": 3.7113636,
                "pitch": 54,
                "velocity": 51,
                "duration": 0.1181818,
                "tempo": 120.0
            },
            {
                "start_time": 3.7295455,
                "end_time": 4.1204545,
                "pitch": 56,
                "velocity": 51,
                "duration": 0.3909091,
                "tempo": 120.0
            },
            {
                "start_time": 4.1363636,
                "end_time": 4.3886364,
                "pitch": 54,
                "velocity": 51,
                "duration": 0.2522727,
                "tempo": 120.0
            },
            {
                "start_time": 4.4045455,
                "end_time": 4.6545455,
                "pitch": 60,
                "velocity": 51,
                "duration": 0.25,
                "tempo": 120.0
            },
            {
                "start_time": 4.6704545,
                "end_time": 4.7909091,
                "pitch": 61,
                "velocity": 51,
                "duration": 0.1204545,
                "tempo": 120.0
            },
            {
                "start_time": 4.8068182,
                "end_time": 5.0613636,
                "pitch": 61,
                "velocity": 51,
                "duration": 0.2545455,
                "tempo": 120.0
            },
            {
                "start_time": 5.0795455,
                "end_time": 5.3318182,
                "pitch": 61,
                "velocity": 51,
                "duration": 0.2522727,
                "tempo": 120.0
            },
            {
                "start_time": 5.35,
                "end_time": 5.6,
                "pitch": 60,
                "velocity": 51,
                "duration": 0.25,
                "tempo": 120.0
            },
            {
                "start_time": 5.6159091,
                "end_time": 5.7340909,
                "pitch": 61,
                "velocity": 51,
                "duration": 0.1181818,
                "tempo": 120.0
            },
            {
                "start_time": 5.75,
                "end_time": 6.0045455,
                "pitch": 63,
                "velocity": 51,
                "duration": 0.2545455,
                "tempo": 120.0
            },
            {
                "start_time": 6.0227273,
                "end_time": 6.2772727,
                "pitch": 61,
                "velocity": 51,
                "duration": 0.2545455,
                "tempo": 120.0
            },
            {
                "start_time": 6.2931818,
                "end_time": 6.6772727,
                "pitch": 60,
                "velocity": 51,
                "duration": 0.3840909,
                "tempo": 120.0
            },
            {
                "start_time": 6.6954545,
                "end_time": 7.6136364,
                "pitch": 56,
                "velocity": 51,
                "duration": 0.9181818,
                "tempo": 120.0
            },
            {
                "start_time": 7.6295455,
                "end_time": 7.8795455,
                "pitch": 54,
                "velocity": 51,
                "duration": 0.25,
                "tempo": 120.0
            },
            {
                "start_time": 7.8977273,
                "end_time": 8.0159091,
                "pitch": 54,
                "velocity": 51,
                "duration": 0.1181818,
                "tempo": 120.0
            },
            {
                "start_time": 8.0318182,
                "end_time": 8.4227273,
                "pitch": 56,
                "velocity": 51,
                "duration": 0.3909091,
                "tempo": 120.0
            },
            {
                "start_time": 8.4409091,
                "end_time": 8.6909091,
                "pitch": 63,
                "velocity": 51,
                "duration": 0.25,
                "tempo": 120.0
            },
            {
                "start_time": 8.7090909,
                "end_time": 8.9590909,
                "pitch": 68,
                "velocity": 51,
                "duration": 0.25,
                "tempo": 120.0
            },
            {
                "start_time": 8.975,
                "end_time": 9.2295455,
                "pitch": 63,
                "velocity": 51,
                "duration": 0.2545455,
                "tempo": 120.0
            },
            {
                "start_time": 9.2477273,
                "end_time": 9.7659091,
                "pitch": 61,
                "velocity": 51,
                "duration": 0.5181818,
                "tempo": 120.0
            },
            {
                "start_time": 9.7818182,
                "end_time": 10.3,
                "pitch": 60,
                "velocity": 51,
                "duration": 0.5181818,
                "tempo": 120.0
            },
            {
                "start_time": 10.3159091,
                "end_time": 10.5704545,
                "pitch": 54,
                "velocity": 51,
                "duration": 0.2545455,
                "tempo": 120.0
            },
            {
                "start_time": 10.5886364,
                "end_time": 12.7181818,
                "pitch": 56,
                "velocity": 51,
                "duration": 2.1295455,
                "tempo": 120.0
            },
            {
                "start_time": 12.7340909,
                "end_time": 12.9909091,
                "pitch": 63,
                "velocity": 51,
                "duration": 0.2568182,
                "tempo": 120.0
            },
            {
                "start_time": 13.0068182,
                "end_time": 13.2613636,
                "pitch": 68,
                "velocity": 51,
                "duration": 0.2545455,
                "tempo": 120.0
            },
            {
                "start_time": 13.2795455,
                "end_time": 13.5295455,
                "pitch": 63,
                "velocity": 51,
                "duration": 0.25,
                "tempo": 120.0
            },
            {
                "start_time": 13.5454545,
                "end_time": 14.0636364,
                "pitch": 61,
                "velocity": 51,
                "duration": 0.5181818,
                "tempo": 120.0
            },
            {
                "start_time": 14.0795455,
                "end_time": 14.6022727,
                "pitch": 60,
                "velocity": 51,
                "duration": 0.5227273,
                "tempo": 120.0
            },
            {
                "start_time": 14.6204545,
                "end_time": 14.875,
                "pitch": 54,
                "velocity": 51,
                "duration": 0.2545455,
                "tempo": 120.0
            },
            {
                "start_time": 14.8909091,
                "end_time": 17.0227273,
                "pitch": 56,
                "velocity": 51,
                "duration": 2.1318182,
                "tempo": 120.0
            },
            {
                "start_time": 17.0386364,
                "end_time": 17.4227273,
                "pitch": 70,
                "velocity": 51,
                "duration": 0.3840909,
                "tempo": 120.0
            },
            {
                "start_time": 17.4386364,
                "end_time": 17.6931818,
                "pitch": 70,
                "velocity": 51,
                "duration": 0.2545455,
                "tempo": 120.0
            },
            {
                "start_time": 17.7090909,
                "end_time": 17.8272727,
                "pitch": 70,
                "velocity": 51,
                "duration": 0.1181818,
                "tempo": 120.0
            },
            {
                "start_time": 17.8454545,
                "end_time": 17.9636364,
                "pitch": 70,
                "velocity": 51,
                "duration": 0.1181818,
                "tempo": 120.0
            },
            {
                "start_time": 17.9818182,
                "end_time": 18.1,
                "pitch": 70,
                "velocity": 51,
                "duration": 0.1181818,
                "tempo": 120.0
            },
            {
                "start_time": 18.1181818,
                "end_time": 19.1681818,
                "pitch": 70,
                "velocity": 51,
                "duration": 1.05,
                "tempo": 120.0
            },
            {
                "start_time": 19.1863636,
                "end_time": 19.5772727,
                "pitch": 68,
                "velocity": 51,
                "duration": 0.3909091,
                "tempo": 120.0
            },
            {
                "start_time": 19.5931818,
                "end_time": 19.8477273,
                "pitch": 68,
                "velocity": 51,
                "duration": 0.2545455,
                "tempo": 120.0
            },
            {
                "start_time": 19.8636364,
                "end_time": 19.9795455,
                "pitch": 68,
                "velocity": 51,
                "duration": 0.1159091,
                "tempo": 120.0
            },
            {
                "start_time": 19.9977273,
                "end_time": 20.1136364,
                "pitch": 68,
                "velocity": 51,
                "duration": 0.1159091,
                "tempo": 120.0
            },
            {
                "start_time": 20.1295455,
                "end_time": 20.2477273,
                "pitch": 68,
                "velocity": 51,
                "duration": 0.1181818,
                "tempo": 120.0
            },
            {
                "start_time": 20.2636364,
                "end_time": 21.325,
                "pitch": 68,
                "velocity": 51,
                "duration": 1.0613636,
                "tempo": 120.0
            },
            {
                "start_time": 21.3431818,
                "end_time": 21.7272727,
                "pitch": 66,
                "velocity": 51,
                "duration": 0.3840909,
                "tempo": 120.0
            },
            {
                "start_time": 21.7431818,
                "end_time": 21.9931818,
                "pitch": 66,
                "velocity": 51,
                "duration": 0.25,
                "tempo": 120.0
            },
            {
                "start_time": 22.0113636,
                "end_time": 22.1272727,
                "pitch": 66,
                "velocity": 51,
                "duration": 0.1159091,
                "tempo": 120.0
            },
            {
                "start_time": 22.1431818,
                "end_time": 22.2613636,
                "pitch": 66,
                "velocity": 51,
                "duration": 0.1181818,
                "tempo": 120.0
            },
            {
                "start_time": 22.2772727,
                "end_time": 22.3954545,
                "pitch": 66,
                "velocity": 51,
                "duration": 0.1181818,
                "tempo": 120.0
            },
            {
                "start_time": 22.4113636,
                "end_time": 23.4727273,
                "pitch": 66,
                "velocity": 51,
                "duration": 1.0613636,
                "tempo": 120.0
            },
            {
                "start_time": 23.4886364,
                "end_time": 23.8727273,
                "pitch": 69,
                "velocity": 51,
                "duration": 0.3840909,
                "tempo": 120.0
            },
            {
                "start_time": 23.8909091,
                "end_time": 24.1431818,
                "pitch": 69,
                "velocity": 51,
                "duration": 0.2522727,
                "tempo": 120.0
            },
            {
                "start_time": 24.1590909,
                "end_time": 24.2795455,
                "pitch": 69,
                "velocity": 51,
                "duration": 0.1204545,
                "tempo": 120.0
            },
            {
                "start_time": 24.2954545,
                "end_time": 24.4159091,
                "pitch": 69,
                "velocity": 51,
                "duration": 0.1204545,
                "tempo": 120.0
            },
            {
                "start_time": 24.4318182,
                "end_time": 24.55,
                "pitch": 69,
                "velocity": 51,
                "duration": 0.1181818,
                "tempo": 120.0
            },
            {
                "start_time": 24.5681818,
                "end_time": 25.0863636,
                "pitch": 69,
                "velocity": 51,
                "duration": 0.5181818,
                "tempo": 120.0
            },
            {
                "start_time": 25.1022727,
                "end_time": 25.6204545,
                "pitch": 70,
                "velocity": 51,
                "duration": 0.5181818,
                "tempo": 120.0
            },
            {
                "start_time": 25.6363636,
                "end_time": 26.0272727,
                "pitch": 70,
                "velocity": 51,
                "duration": 0.3909091,
                "tempo": 120.0
            },
            {
                "start_time": 26.0454545,
                "end_time": 26.2977273,
                "pitch": 70,
                "velocity": 51,
                "duration": 0.2522727,
                "tempo": 120.0
            },
            {
                "start_time": 26.3136364,
                "end_time": 26.4318182,
                "pitch": 70,
                "velocity": 51,
                "duration": 0.1181818,
                "tempo": 120.0
            },
            {
                "start_time": 26.4477273,
                "end_time": 26.5636364,
                "pitch": 70,
                "velocity": 51,
                "duration": 0.1159091,
                "tempo": 120.0
            },
            {
                "start_time": 26.5818182,
                "end_time": 26.6977273,
                "pitch": 70,
                "velocity": 51,
                "duration": 0.1159091,
                "tempo": 120.0
            },
            {
                "start_time": 26.7159091,
                "end_time": 27.7772727,
                "pitch": 70,
                "velocity": 51,
                "duration": 1.0613636,
                "tempo": 120.0
            },
            {
                "start_time": 27.7931818,
                "end_time": 28.1772727,
                "pitch": 68,
                "velocity": 51,
                "duration": 0.3840909,
                "tempo": 120.0
            },
            {
                "start_time": 28.1931818,
                "end_time": 28.4477273,
                "pitch": 68,
                "velocity": 51,
                "duration": 0.2545455,
                "tempo": 120.0
            },
            {
                "start_time": 28.4636364,
                "end_time": 28.5818182,
                "pitch": 68,
                "velocity": 51,
                "duration": 0.1181818,
                "tempo": 120.0
            },
            {
                "start_time": 28.6,
                "end_time": 28.7181818,
                "pitch": 68,
                "velocity": 51,
                "duration": 0.1181818,
                "tempo": 120.0
            },
            {
                "start_time": 28.7363636,
                "end_time": 28.8545455,
                "pitch": 68,
                "velocity": 51,
                "duration": 0.1181818,
                "tempo": 120.0
            },
            {
                "start_time": 28.8727273,
                "end_time": 29.9227273,
                "pitch": 68,
                "velocity": 51,
                "duration": 1.05,
                "tempo": 120.0
            },
            {
                "start_time": 29.9409091,
                "end_time": 30.325,
                "pitch": 66,
                "velocity": 51,
                "duration": 0.3840909,
                "tempo": 120.0
            },
            {
                "start_time": 30.3409091,
                "end_time": 30.5931818,
                "pitch": 66,
                "velocity": 51,
                "duration": 0.2522727,
                "tempo": 120.0
            },
            {
                "start_time": 30.6113636,
                "end_time": 30.7295455,
                "pitch": 66,
                "velocity": 51,
                "duration": 0.1181818,
                "tempo": 120.0
            },
            {
                "start_time": 30.7477273,
                "end_time": 30.8659091,
                "pitch": 66,
                "velocity": 51,
                "duration": 0.1181818,
                "tempo": 120.0
            },
            {
                "start_time": 30.8818182,
                "end_time": 31.0022727,
                "pitch": 66,
                "velocity": 51,
                "duration": 0.1204545,
                "tempo": 120.0
            },
            {
                "start_time": 31.0181818,
                "end_time": 32.0704545,
                "pitch": 66,
                "velocity": 51,
                "duration": 1.0522727,
                "tempo": 120.0
            },
            {
                "start_time": 32.0886364,
                "end_time": 32.4795455,
                "pitch": 69,
                "velocity": 51,
                "duration": 0.3909091,
                "tempo": 120.0
            },
            {
                "start_time": 32.4954545,
                "end_time": 32.7477273,
                "pitch": 69,
                "velocity": 51,
                "duration": 0.2522727,
                "tempo": 120.0
            },
            {
                "start_time": 32.7659091,
                "end_time": 32.8818182,
                "pitch": 69,
                "velocity": 51,
                "duration": 0.1159091,
                "tempo": 120.0
            },
            {
                "start_time": 32.8977273,
                "end_time": 33.0159091,
                "pitch": 69,
                "velocity": 51,
                "duration": 0.1181818,
                "tempo": 120.0
            },
            {
                "start_time": 33.0318182,
                "end_time": 33.15,
                "pitch": 69,
                "velocity": 51,
                "duration": 0.1181818,
                "tempo": 120.0
            },
            {
                "start_time": 33.1659091,
                "end_time": 33.6840909,
                "pitch": 69,
                "velocity": 51,
                "duration": 0.5181818,
                "tempo": 120.0
            },
            {
                "start_time": 33.7,
                "end_time": 34.2272727,
                "pitch": 70,
                "velocity": 51,
                "duration": 0.5272727,
                "tempo": 120.0
            },
            {
                "start_time": 34.2431818,
                "end_time": 34.4954545,
                "pitch": 54,
                "velocity": 51,
                "duration": 0.2522727,
                "tempo": 120.0
            },
            {
                "start_time": 34.5113636,
                "end_time": 34.7613636,
                "pitch": 60,
                "velocity": 51,
                "duration": 0.25,
                "tempo": 120.0
            },
            {
                "start_time": 34.7795455,
                "end_time": 34.8954545,
                "pitch": 61,
                "velocity": 51,
                "duration": 0.1159091,
                "tempo": 120.0
            },
            {
                "start_time": 34.9113636,
                "end_time": 35.1636364,
                "pitch": 61,
                "velocity": 51,
                "duration": 0.2522727,
                "tempo": 120.0
            },
            {
                "start_time": 35.1795455,
                "end_time": 35.4318182,
                "pitch": 61,
                "velocity": 51,
                "duration": 0.2522727,
                "tempo": 120.0
            },
            {
                "start_time": 35.45,
                "end_time": 35.7045455,
                "pitch": 60,
                "velocity": 51,
                "duration": 0.2545455,
                "tempo": 120.0
            },
            {
                "start_time": 35.7204545,
                "end_time": 35.8409091,
                "pitch": 61,
                "velocity": 51,
                "duration": 0.1204545,
                "tempo": 120.0
            },
            {
                "start_time": 35.8568182,
                "end_time": 36.1068182,
                "pitch": 63,
                "velocity": 51,
                "duration": 0.25,
                "tempo": 120.0
            },
            {
                "start_time": 36.125,
                "end_time": 36.375,
                "pitch": 61,
                "velocity": 51,
                "duration": 0.25,
                "tempo": 120.0
            },
            {
                "start_time": 36.3909091,
                "end_time": 36.775,
                "pitch": 60,
                "velocity": 51,
                "duration": 0.3840909,
                "tempo": 120.0
            },
            {
                "start_time": 36.7931818,
                "end_time": 37.7204545,
                "pitch": 56,
                "velocity": 51,
                "duration": 0.9272727,
                "tempo": 120.0
            },
            {
                "start_time": 37.7363636,
                "end_time": 37.9863636,
                "pitch": 54,
                "velocity": 51,
                "duration": 0.25,
                "tempo": 120.0
            },
            {
                "start_time": 38.0045455,
                "end_time": 38.1227273,
                "pitch": 54,
                "velocity": 51,
                "duration": 0.1181818,
                "tempo": 120.0
            },
            {
                "start_time": 38.1409091,
                "end_time": 38.5318182,
                "pitch": 56,
                "velocity": 51,
                "duration": 0.3909091,
                "tempo": 120.0
            },
            {
                "start_time": 38.5477273,
                "end_time": 38.7931818,
                "pitch": 54,
                "velocity": 51,
                "duration": 0.2454545,
                "tempo": 120.0
            },
            {
                "start_time": 38.8090909,
                "end_time": 39.0568182,
                "pitch": 60,
                "velocity": 51,
                "duration": 0.2477273,
                "tempo": 120.0
            },
            {
                "start_time": 39.0727273,
                "end_time": 39.1909091,
                "pitch": 61,
                "velocity": 51,
                "duration": 0.1181818,
                "tempo": 120.0
            },
            {
                "start_time": 39.2090909,
                "end_time": 39.4636364,
                "pitch": 61,
                "velocity": 51,
                "duration": 0.2545455,
                "tempo": 120.0
            },
            {
                "start_time": 39.4818182,
                "end_time": 39.7340909,
                "pitch": 61,
                "velocity": 51,
                "duration": 0.2522727,
                "tempo": 120.0
            },
            {
                "start_time": 39.75,
                "end_time": 40.0,
                "pitch": 60,
                "velocity": 51,
                "duration": 0.25,
                "tempo": 120.0
            },
            {
                "start_time": 40.0181818,
                "end_time": 40.1340909,
                "pitch": 61,
                "velocity": 51,
                "duration": 0.1159091,
                "tempo": 120.0
            },
            {
                "start_time": 40.15,
                "end_time": 40.4068182,
                "pitch": 63,
                "velocity": 51,
                "duration": 0.2568182,
                "tempo": 120.0
            },
            {
                "start_time": 40.4227273,
                "end_time": 40.6772727,
                "pitch": 61,
                "velocity": 51,
                "duration": 0.2545455,
                "tempo": 120.0
            },
            {
                "start_time": 40.6954545,
                "end_time": 41.0795455,
                "pitch": 60,
                "velocity": 51,
                "duration": 0.3840909,
                "tempo": 120.0
            },
            {
                "start_time": 41.0954545,
                "end_time": 42.0181818,
                "pitch": 56,
                "velocity": 51,
                "duration": 0.9227273,
                "tempo": 120.0
            },
            {
                "start_time": 42.0363636,
                "end_time": 42.2909091,
                "pitch": 54,
                "velocity": 51,
                "duration": 0.2545455,
                "tempo": 120.0
            },
            {
                "start_time": 42.3068182,
                "end_time": 42.425,
                "pitch": 54,
                "velocity": 51,
                "duration": 0.1181818,
                "tempo": 120.0
            },
            {
                "start_time": 42.4409091,
                "end_time": 42.825,
                "pitch": 56,
                "velocity": 51,
                "duration": 0.3840909,
                "tempo": 120.0
            },
            {
                "start_time": 42.8431818,
                "end_time": 43.0931818,
                "pitch": 63,
                "velocity": 51,
                "duration": 0.25,
                "tempo": 120.0
            },
            {
                "start_time": 43.1090909,
                "end_time": 43.3590909,
                "pitch": 68,
                "velocity": 51,
                "duration": 0.25,
                "tempo": 120.0
            },
            {
                "start_time": 43.3772727,
                "end_time": 43.6318182,
                "pitch": 63,
                "velocity": 51,
                "duration": 0.2545455,
                "tempo": 120.0
            },
            {
                "start_time": 43.6477273,
                "end_time": 44.1704545,
                "pitch": 61,
                "velocity": 51,
                "duration": 0.5227273,
                "tempo": 120.0
            },
            {
                "start_time": 44.1886364,
                "end_time": 44.7045455,
                "pitch": 60,
                "velocity": 51,
                "duration": 0.5159091,
                "tempo": 120.0
            },
            {
                "start_time": 44.7227273,
                "end_time": 44.9727273,
                "pitch": 54,
                "velocity": 51,
                "duration": 0.25,
                "tempo": 120.0
            },
            {
                "start_time": 44.9886364,
                "end_time": 47.1295455,
                "pitch": 56,
                "velocity": 51,
                "duration": 2.1409091,
                "tempo": 120.0
            },
            {
                "start_time": 47.1454545,
                "end_time": 47.3954545,
                "pitch": 63,
                "velocity": 51,
                "duration": 0.25,
                "tempo": 120.0
            },
            {
                "start_time": 47.4136364,
                "end_time": 47.6636364,
                "pitch": 68,
                "velocity": 51,
                "duration": 0.25,
                "tempo": 120.0
            },
            {
                "start_time": 47.6795455,
                "end_time": 47.9318182,
                "pitch": 63,
                "velocity": 51,
                "duration": 0.2522727,
                "tempo": 120.0
            },
            {
                "start_time": 47.9477273,
                "end_time": 48.4659091,
                "pitch": 61,
                "velocity": 51,
                "duration": 0.5181818,
                "tempo": 120.0
            },
            {
                "start_time": 48.4818182,
                "end_time": 49.0045455,
                "pitch": 60,
                "velocity": 51,
                "duration": 0.5227273,
                "tempo": 120.0
            },
            {
                "start_time": 49.0204545,
                "end_time": 49.275,
                "pitch": 54,
                "velocity": 51,
                "duration": 0.2545455,
                "tempo": 120.0
            },
            {
                "start_time": 49.2931818,
                "end_time": 51.5227273,
                "pitch": 56,
                "velocity": 51,
                "duration": 2.2295455,
                "tempo": 120.0
            },
            {
                "start_time": 51.5431818,
                "end_time": 51.8590909,
                "pitch": 76,
                "velocity": 51,
                "duration": 0.3159091,
                "tempo": 120.0
            },
            {
                "start_time": 51.8795455,
                "end_time": 52.0272727,
                "pitch": 75,
                "velocity": 51,
                "duration": 0.1477273,
                "tempo": 120.0
            },
            {
                "start_time": 52.05,
                "end_time": 52.1977273,
                "pitch": 73,
                "velocity": 51,
                "duration": 0.1477273,
                "tempo": 120.0
            },
            {
                "start_time": 52.2181818,
                "end_time": 53.5545455,
                "pitch": 67,
                "velocity": 51,
                "duration": 1.3363636,
                "tempo": 120.0
            },
            {
                "start_time": 53.575,
                "end_time": 53.725,
                "pitch": 64,
                "velocity": 51,
                "duration": 0.15,
                "tempo": 120.0
            },
            {
                "start_time": 53.7454545,
                "end_time": 54.0636364,
                "pitch": 68,
                "velocity": 51,
                "duration": 0.3181818,
                "tempo": 120.0
            },
            {
                "start_time": 54.0840909,
                "end_time": 55.9772727,
                "pitch": 70,
                "velocity": 51,
                "duration": 1.8931818,
                "tempo": 120.0
            },
            {
                "start_time": 56.0022727,
                "end_time": 56.4431818,
                "pitch": 73,
                "velocity": 51,
                "duration": 0.4409091,
                "tempo": 120.0
            },
            {
                "start_time": 56.4727273,
                "end_time": 56.6795455,
                "pitch": 70,
                "velocity": 51,
                "duration": 0.2068182,
                "tempo": 120.0
            },
            {
                "start_time": 56.7090909,
                "end_time": 56.9159091,
                "pitch": 73,
                "velocity": 51,
                "duration": 0.2068182,
                "tempo": 120.0
            },
            {
                "start_time": 56.9454545,
                "end_time": 57.1522727,
                "pitch": 73,
                "velocity": 51,
                "duration": 0.2068182,
                "tempo": 120.0
            },
            {
                "start_time": 57.1818182,
                "end_time": 57.6227273,
                "pitch": 70,
                "velocity": 51,
                "duration": 0.4409091,
                "tempo": 120.0
            },
            {
                "start_time": 57.6522727,
                "end_time": 58.0954545,
                "pitch": 76,
                "velocity": 51,
                "duration": 0.4431818,
                "tempo": 120.0
            },
            {
                "start_time": 58.125,
                "end_time": 58.3318182,
                "pitch": 75,
                "velocity": 51,
                "duration": 0.2068182,
                "tempo": 120.0
            },
            {
                "start_time": 58.3613636,
                "end_time": 58.5659091,
                "pitch": 73,
                "velocity": 51,
                "duration": 0.2045455,
                "tempo": 120.0
            },
            {
                "start_time": 58.5954545,
                "end_time": 60.4545455,
                "pitch": 67,
                "velocity": 51,
                "duration": 1.8590909,
                "tempo": 120.0
            },
            {
                "start_time": 60.4840909,
                "end_time": 60.6909091,
                "pitch": 64,
                "velocity": 51,
                "duration": 0.2068182,
                "tempo": 120.0
            },
            {
                "start_time": 60.7181818,
                "end_time": 61.1659091,
                "pitch": 68,
                "velocity": 51,
                "duration": 0.4477273,
                "tempo": 120.0
            },
            {
                "start_time": 61.1954545,
                "end_time": 63.5454545,
                "pitch": 70,
                "velocity": 51,
                "duration": 2.35,
                "tempo": 120.0
            },
            {
                "start_time": 63.575,
                "end_time": 64.0181818,
                "pitch": 73,
                "velocity": 51,
                "duration": 0.4431818,
                "tempo": 120.0
            },
            {
                "start_time": 64.0477273,
                "end_time": 64.2545455,
                "pitch": 70,
                "velocity": 51,
                "duration": 0.2068182,
                "tempo": 120.0
            },
            {
                "start_time": 64.2840909,
                "end_time": 64.4931818,
                "pitch": 73,
                "velocity": 51,
                "duration": 0.2090909,
                "tempo": 120.0
            },
            {
                "start_time": 64.5227273,
                "end_time": 64.7318182,
                "pitch": 73,
                "velocity": 51,
                "duration": 0.2090909,
                "tempo": 120.0
            },
            {
                "start_time": 64.7636364,
                "end_time": 65.2113636,
                "pitch": 70,
                "velocity": 51,
                "duration": 0.4477273,
                "tempo": 120.0
            },
            {
                "start_time": 65.2409091,
                "end_time": 65.6909091,
                "pitch": 76,
                "velocity": 51,
                "duration": 0.45,
                "tempo": 120.0
            },
            {
                "start_time": 65.7204545,
                "end_time": 65.9318182,
                "pitch": 75,
                "velocity": 51,
                "duration": 0.2113636,
                "tempo": 120.0
            },
            {
                "start_time": 65.9613636,
                "end_time": 66.1681818,
                "pitch": 73,
                "velocity": 51,
                "duration": 0.2068182,
                "tempo": 120.0
            },
            {
                "start_time": 66.1977273,
                "end_time": 68.0772727,
                "pitch": 67,
                "velocity": 51,
                "duration": 1.8795455,
                "tempo": 120.0
            },
            {
                "start_time": 68.1090909,
                "end_time": 68.3295455,
                "pitch": 64,
                "velocity": 51,
                "duration": 0.2204545,
                "tempo": 120.0
            },
            {
                "start_time": 68.3590909,
                "end_time": 68.8318182,
                "pitch": 68,
                "velocity": 51,
                "duration": 0.4727273,
                "tempo": 120.0
            },
            {
                "start_time": 68.8636364,
                "end_time": 71.3772727,
                "pitch": 70,
                "velocity": 51,
                "duration": 2.5136364,
                "tempo": 120.0
            },
            {
                "start_time": 71.4090909,
                "end_time": 71.85,
                "pitch": 73,
                "velocity": 51,
                "duration": 0.4409091,
                "tempo": 120.0
            },
            {
                "start_time": 71.8795455,
                "end_time": 72.0863636,
                "pitch": 70,
                "velocity": 51,
                "duration": 0.2068182,
                "tempo": 120.0
            },
            {
                "start_time": 72.1159091,
                "end_time": 72.3227273,
                "pitch": 73,
                "velocity": 51,
                "duration": 0.2068182,
                "tempo": 120.0
            },
            {
                "start_time": 72.3522727,
                "end_time": 72.5590909,
                "pitch": 73,
                "velocity": 51,
                "duration": 0.2068182,
                "tempo": 120.0
            },
            {
                "start_time": 72.5886364,
                "end_time": 73.0295455,
                "pitch": 70,
                "velocity": 51,
                "duration": 0.4409091,
                "tempo": 120.0
            },
            {
                "start_time": 73.0590909,
                "end_time": 73.5090909,
                "pitch": 76,
                "velocity": 51,
                "duration": 0.45,
                "tempo": 120.0
            },
            {
                "start_time": 73.5386364,
                "end_time": 73.7477273,
                "pitch": 75,
                "velocity": 51,
                "duration": 0.2090909,
                "tempo": 120.0
            },
            {
                "start_time": 73.7795455,
                "end_time": 73.9886364,
                "pitch": 73,
                "velocity": 51,
                "duration": 0.2090909,
                "tempo": 120.0
            },
            {
                "start_time": 74.0181818,
                "end_time": 75.8863636,
                "pitch": 67,
                "velocity": 51,
                "duration": 1.8681818,
                "tempo": 120.0
            },
            {
                "start_time": 75.9159091,
                "end_time": 76.1227273,
                "pitch": 64,
                "velocity": 51,
                "duration": 0.2068182,
                "tempo": 120.0
            },
            {
                "start_time": 76.1522727,
                "end_time": 76.5977273,
                "pitch": 68,
                "velocity": 51,
                "duration": 0.4454545,
                "tempo": 120.0
            },
            {
                "start_time": 76.6272727,
                "end_time": 78.9795455,
                "pitch": 70,
                "velocity": 51,
                "duration": 2.3522727,
                "tempo": 120.0
            },
            {
                "start_time": 79.0090909,
                "end_time": 79.4522727,
                "pitch": 73,
                "velocity": 51,
                "duration": 0.4431818,
                "tempo": 120.0
            },
            {
                "start_time": 79.4818182,
                "end_time": 79.6568182,
                "pitch": 70,
                "velocity": 51,
                "duration": 0.175,
                "tempo": 120.0
            },
            {
                "start_time": 79.6840909,
                "end_time": 80.0613636,
                "pitch": 73,
                "velocity": 51,
                "duration": 0.3772727,
                "tempo": 120.0
            },
            {
                "start_time": 80.0863636,
                "end_time": 80.4636364,
                "pitch": 70,
                "velocity": 51,
                "duration": 0.3772727,
                "tempo": 120.0
            },
            {
                "start_time": 80.4863636,
                "end_time": 80.8022727,
                "pitch": 54,
                "velocity": 51,
                "duration": 0.3159091,
                "tempo": 120.0
            },
            {
                "start_time": 80.8227273,
                "end_time": 81.1363636,
                "pitch": 60,
                "velocity": 51,
                "duration": 0.3136364,
                "tempo": 120.0
            },
            {
                "start_time": 81.1590909,
                "end_time": 81.1772727,
                "pitch": 61,
                "velocity": 51,
                "duration": 0.0181818,
                "tempo": 120.0
            }
        ],
        "Electric Guitar (clean)": [
            {
                "start_time": 0.0,
                "end_time": 0.0636364,
                "pitch": 42,
                "velocity": 64,
                "duration": 0.0636364,
                "tempo": 120.0
            },
            {
                "start_time": 0.075,
                "end_time": 0.1636364,
                "pitch": 42,
                "velocity": 64,
                "duration": 0.0886364,
                "tempo": 120.0
            },
            {
                "start_time": 0.6454545,
                "end_time": 0.7613636,
                "pitch": 42,
                "velocity": 64,
                "duration": 0.1159091,
                "tempo": 120.0
            },
            {
                "start_time": 0.7772727,
                "end_time": 1.0295455,
                "pitch": 42,
                "velocity": 64,
                "duration": 0.2522727,
                "tempo": 120.0
            },
            {
                "start_time": 1.0454545,
                "end_time": 1.1613636,
                "pitch": 49,
                "velocity": 64,
                "duration": 0.1159091,
                "tempo": 120.0
            },
            {
                "start_time": 1.1795455,
                "end_time": 1.2954545,
                "pitch": 51,
                "velocity": 64,
                "duration": 0.1159091,
                "tempo": 120.0
            },
            {
                "start_time": 1.3113636,
                "end_time": 1.4295455,
                "pitch": 49,
                "velocity": 64,
                "duration": 0.1181818,
                "tempo": 120.0
            },
            {
                "start_time": 1.4454545,
                "end_time": 1.7,
                "pitch": 49,
                "velocity": 64,
                "duration": 0.2545455,
                "tempo": 120.0
            },
            {
                "start_time": 1.7181818,
                "end_time": 1.9727273,
                "pitch": 49,
                "velocity": 64,
                "duration": 0.2545455,
                "tempo": 120.0
            },
            {
                "start_time": 1.9909091,
                "end_time": 2.1068182,
                "pitch": 42,
                "velocity": 64,
                "duration": 0.1159091,
                "tempo": 120.0
            },
            {
                "start_time": 2.1227273,
                "end_time": 2.2409091,
                "pitch": 42,
                "velocity": 64,
                "duration": 0.1181818,
                "tempo": 120.0
            },
            {
                "start_time": 2.7909091,
                "end_time": 2.9090909,
                "pitch": 48,
                "velocity": 64,
                "duration": 0.1181818,
                "tempo": 120.0
            },
            {
                "start_time": 2.925,
                "end_time": 3.175,
                "pitch": 48,
                "velocity": 64,
                "duration": 0.25,
                "tempo": 120.0
            },
            {
                "start_time": 3.1931818,
                "end_time": 3.3090909,
                "pitch": 49,
                "velocity": 64,
                "duration": 0.1159091,
                "tempo": 120.0
            },
            {
                "start_time": 3.325,
                "end_time": 3.4431818,
                "pitch": 51,
                "velocity": 64,
                "duration": 0.1181818,
                "tempo": 120.0
            },
            {
                "start_time": 3.4590909,
                "end_time": 3.5772727,
                "pitch": 49,
                "velocity": 64,
                "duration": 0.1181818,
                "tempo": 120.0
            },
            {
                "start_time": 3.5931818,
                "end_time": 3.8477273,
                "pitch": 48,
                "velocity": 64,
                "duration": 0.2545455,
                "tempo": 120.0
            },
            {
                "start_time": 3.8659091,
                "end_time": 3.9840909,
                "pitch": 44,
                "velocity": 64,
                "duration": 0.1181818,
                "tempo": 120.0
            },
            {
                "start_time": 4.0,
                "end_time": 4.1204545,
                "pitch": 44,
                "velocity": 64,
                "duration": 0.1204545,
                "tempo": 120.0
            },
            {
                "start_time": 4.1363636,
                "end_time": 4.2545455,
                "pitch": 42,
                "velocity": 64,
                "duration": 0.1181818,
                "tempo": 120.0
            },
            {
                "start_time": 4.2704545,
                "end_time": 4.3886364,
                "pitch": 42,
                "velocity": 64,
                "duration": 0.1181818,
                "tempo": 120.0
            },
            {
                "start_time": 4.9431818,
                "end_time": 5.0613636,
                "pitch": 42,
                "velocity": 64,
                "duration": 0.1181818,
                "tempo": 120.0
            },
            {
                "start_time": 5.0795455,
                "end_time": 5.3318182,
                "pitch": 42,
                "velocity": 64,
                "duration": 0.2522727,
                "tempo": 120.0
            },
            {
                "start_time": 5.35,
                "end_time": 5.4659091,
                "pitch": 49,
                "velocity": 64,
                "duration": 0.1159091,
                "tempo": 120.0
            },
            {
                "start_time": 5.4818182,
                "end_time": 5.6,
                "pitch": 51,
                "velocity": 64,
                "duration": 0.1181818,
                "tempo": 120.0
            },
            {
                "start_time": 5.6159091,
                "end_time": 5.7340909,
                "pitch": 49,
                "velocity": 64,
                "duration": 0.1181818,
                "tempo": 120.0
            },
            {
                "start_time": 5.75,
                "end_time": 6.0045455,
                "pitch": 49,
                "velocity": 64,
                "duration": 0.2545455,
                "tempo": 120.0
            },
            {
                "start_time": 6.0227273,
                "end_time": 6.2772727,
                "pitch": 49,
                "velocity": 64,
                "duration": 0.2545455,
                "tempo": 120.0
            },
            {
                "start_time": 6.2931818,
                "end_time": 6.4113636,
                "pitch": 42,
                "velocity": 64,
                "duration": 0.1181818,
                "tempo": 120.0
            },
            {
                "start_time": 6.4272727,
                "end_time": 6.5431818,
                "pitch": 42,
                "velocity": 64,
                "duration": 0.1159091,
                "tempo": 120.0
            },
            {
                "start_time": 7.0954545,
                "end_time": 7.2113636,
                "pitch": 48,
                "velocity": 64,
                "duration": 0.1159091,
                "tempo": 120.0
            },
            {
                "start_time": 7.2295455,
                "end_time": 7.4795455,
                "pitch": 48,
                "velocity": 64,
                "duration": 0.25,
                "tempo": 120.0
            },
            {
                "start_time": 7.4954545,
                "end_time": 7.6136364,
                "pitch": 49,
                "velocity": 64,
                "duration": 0.1181818,
                "tempo": 120.0
            },
            {
                "start_time": 7.6295455,
                "end_time": 7.7454545,
                "pitch": 51,
                "velocity": 64,
                "duration": 0.1159091,
                "tempo": 120.0
            },
            {
                "start_time": 7.7636364,
                "end_time": 7.8795455,
                "pitch": 49,
                "velocity": 64,
                "duration": 0.1159091,
                "tempo": 120.0
            },
            {
                "start_time": 7.8977273,
                "end_time": 8.1522727,
                "pitch": 48,
                "velocity": 64,
                "duration": 0.2545455,
                "tempo": 120.0
            },
            {
                "start_time": 8.1681818,
                "end_time": 8.2886364,
                "pitch": 44,
                "velocity": 64,
                "duration": 0.1204545,
                "tempo": 120.0
            },
            {
                "start_time": 8.3045455,
                "end_time": 8.4227273,
                "pitch": 44,
                "velocity": 64,
                "duration": 0.1181818,
                "tempo": 120.0
            },
            {
                "start_time": 8.4409091,
                "end_time": 8.5568182,
                "pitch": 44,
                "velocity": 64,
                "duration": 0.1159091,
                "tempo": 120.0
            },
            {
                "start_time": 8.575,
                "end_time": 8.6909091,
                "pitch": 44,
                "velocity": 64,
                "duration": 0.1159091,
                "tempo": 120.0
            },
            {
                "start_time": 9.2477273,
                "end_time": 9.3659091,
                "pitch": 42,
                "velocity": 64,
                "duration": 0.1181818,
                "tempo": 120.0
            },
            {
                "start_time": 9.3840909,
                "end_time": 9.6340909,
                "pitch": 42,
                "velocity": 64,
                "duration": 0.25,
                "tempo": 120.0
            },
            {
                "start_time": 9.65,
                "end_time": 9.7659091,
                "pitch": 49,
                "velocity": 64,
                "duration": 0.1159091,
                "tempo": 120.0
            },
            {
                "start_time": 9.7818182,
                "end_time": 9.8954545,
                "pitch": 51,
                "velocity": 64,
                "duration": 0.1136364,
                "tempo": 120.0
            },
            {
                "start_time": 9.9136364,
                "end_time": 10.0272727,
                "pitch": 49,
                "velocity": 64,
                "duration": 0.1136364,
                "tempo": 120.0
            },
            {
                "start_time": 10.0431818,
                "end_time": 10.1636364,
                "pitch": 48,
                "velocity": 64,
                "duration": 0.1204545,
                "tempo": 120.0
            },
            {
                "start_time": 10.1795455,
                "end_time": 10.3,
                "pitch": 48,
                "velocity": 64,
                "duration": 0.1204545,
                "tempo": 120.0
            },
            {
                "start_time": 10.3159091,
                "end_time": 10.5704545,
                "pitch": 44,
                "velocity": 64,
                "duration": 0.2545455,
                "tempo": 120.0
            },
            {
                "start_time": 10.5886364,
                "end_time": 10.7045455,
                "pitch": 44,
                "velocity": 64,
                "duration": 0.1159091,
                "tempo": 120.0
            },
            {
                "start_time": 10.7204545,
                "end_time": 10.8386364,
                "pitch": 44,
                "velocity": 64,
                "duration": 0.1181818,
                "tempo": 120.0
            },
            {
                "start_time": 11.3931818,
                "end_time": 11.5136364,
                "pitch": 48,
                "velocity": 64,
                "duration": 0.1204545,
                "tempo": 120.0
            },
            {
                "start_time": 11.5295455,
                "end_time": 11.7840909,
                "pitch": 48,
                "velocity": 64,
                "duration": 0.2545455,
                "tempo": 120.0
            },
            {
                "start_time": 11.8,
                "end_time": 11.9159091,
                "pitch": 49,
                "velocity": 64,
                "duration": 0.1159091,
                "tempo": 120.0
            },
            {
                "start_time": 11.9340909,
                "end_time": 12.05,
                "pitch": 51,
                "velocity": 64,
                "duration": 0.1159091,
                "tempo": 120.0
            },
            {
                "start_time": 12.0659091,
                "end_time": 12.1840909,
                "pitch": 49,
                "velocity": 64,
                "duration": 0.1181818,
                "tempo": 120.0
            },
            {
                "start_time": 12.2,
                "end_time": 12.3181818,
                "pitch": 48,
                "velocity": 64,
                "duration": 0.1181818,
                "tempo": 120.0
            },
            {
                "start_time": 12.3340909,
                "end_time": 12.45,
                "pitch": 48,
                "velocity": 64,
                "duration": 0.1159091,
                "tempo": 120.0
            },
            {
                "start_time": 12.4681818,
                "end_time": 12.5840909,
                "pitch": 44,
                "velocity": 64,
                "duration": 0.1159091,
                "tempo": 120.0
            },
            {
                "start_time": 12.6022727,
                "end_time": 12.7181818,
                "pitch": 44,
                "velocity": 64,
                "duration": 0.1159091,
                "tempo": 120.0
            },
            {
                "start_time": 12.7340909,
                "end_time": 12.8545455,
                "pitch": 44,
                "velocity": 64,
                "duration": 0.1204545,
                "tempo": 120.0
            },
            {
                "start_time": 12.8704545,
                "end_time": 12.9909091,
                "pitch": 44,
                "velocity": 64,
                "duration": 0.1204545,
                "tempo": 120.0
            },
            {
                "start_time": 13.5454545,
                "end_time": 13.6636364,
                "pitch": 42,
                "velocity": 64,
                "duration": 0.1181818,
                "tempo": 120.0
            },
            {
                "start_time": 13.6795455,
                "end_time": 13.9295455,
                "pitch": 42,
                "velocity": 64,
                "duration": 0.25,
                "tempo": 120.0
            },
            {
                "start_time": 13.9477273,
                "end_time": 14.0636364,
                "pitch": 49,
                "velocity": 64,
                "duration": 0.1159091,
                "tempo": 120.0
            },
            {
                "start_time": 14.0795455,
                "end_time": 14.1977273,
                "pitch": 51,
                "velocity": 64,
                "duration": 0.1181818,
                "tempo": 120.0
            },
            {
                "start_time": 14.2136364,
                "end_time": 14.3318182,
                "pitch": 49,
                "velocity": 64,
                "duration": 0.1181818,
                "tempo": 120.0
            },
            {
                "start_time": 14.3477273,
                "end_time": 14.4659091,
                "pitch": 48,
                "velocity": 64,
                "duration": 0.1181818,
                "tempo": 120.0
            },
            {
                "start_time": 14.4840909,
                "end_time": 14.6022727,
                "pitch": 48,
                "velocity": 64,
                "duration": 0.1181818,
                "tempo": 120.0
            },
            {
                "start_time": 14.6204545,
                "end_time": 14.7386364,
                "pitch": 44,
                "velocity": 64,
                "duration": 0.1181818,
                "tempo": 120.0
            },
            {
                "start_time": 14.7545455,
                "end_time": 14.875,
                "pitch": 44,
                "velocity": 64,
                "duration": 0.1204545,
                "tempo": 120.0
            },
            {
                "start_time": 14.8909091,
                "end_time": 15.0090909,
                "pitch": 44,
                "velocity": 64,
                "duration": 0.1181818,
                "tempo": 120.0
            },
            {
                "start_time": 15.025,
                "end_time": 15.1431818,
                "pitch": 44,
                "velocity": 64,
                "duration": 0.1181818,
                "tempo": 120.0
            },
            {
                "start_time": 15.6931818,
                "end_time": 15.8090909,
                "pitch": 48,
                "velocity": 64,
                "duration": 0.1159091,
                "tempo": 120.0
            },
            {
                "start_time": 15.8272727,
                "end_time": 16.0772727,
                "pitch": 48,
                "velocity": 64,
                "duration": 0.25,
                "tempo": 120.0
            },
            {
                "start_time": 16.0931818,
                "end_time": 16.2113636,
                "pitch": 49,
                "velocity": 64,
                "duration": 0.1181818,
                "tempo": 120.0
            },
            {
                "start_time": 16.2272727,
                "end_time": 16.3454545,
                "pitch": 51,
                "velocity": 64,
                "duration": 0.1181818,
                "tempo": 120.0
            },
            {
                "start_time": 16.3613636,
                "end_time": 16.4772727,
                "pitch": 49,
                "velocity": 64,
                "duration": 0.1159091,
                "tempo": 120.0
            },
            {
                "start_time": 16.4954545,
                "end_time": 16.6136364,
                "pitch": 48,
                "velocity": 64,
                "duration": 0.1181818,
                "tempo": 120.0
            },
            {
                "start_time": 16.6318182,
                "end_time": 16.75,
                "pitch": 48,
                "velocity": 64,
                "duration": 0.1181818,
                "tempo": 120.0
            },
            {
                "start_time": 16.7659091,
                "end_time": 16.8863636,
                "pitch": 44,
                "velocity": 64,
                "duration": 0.1204545,
                "tempo": 120.0
            },
            {
                "start_time": 16.9022727,
                "end_time": 17.0227273,
                "pitch": 44,
                "velocity": 64,
                "duration": 0.1204545,
                "tempo": 120.0
            },
            {
                "start_time": 17.0386364,
                "end_time": 17.2886364,
                "pitch": 49,
                "velocity": 64,
                "duration": 0.25,
                "tempo": 120.0
            },
            {
                "start_time": 17.3068182,
                "end_time": 17.5568182,
                "pitch": 49,
                "velocity": 64,
                "duration": 0.25,
                "tempo": 120.0
            },
            {
                "start_time": 17.5727273,
                "end_time": 17.8272727,
                "pitch": 49,
                "velocity": 64,
                "duration": 0.2545455,
                "tempo": 120.0
            },
            {
                "start_time": 17.8454545,
                "end_time": 18.1,
                "pitch": 49,
                "velocity": 64,
                "duration": 0.2545455,
                "tempo": 120.0
            },
            {
                "start_time": 18.1181818,
                "end_time": 18.3681818,
                "pitch": 49,
                "velocity": 64,
                "duration": 0.25,
                "tempo": 120.0
            },
            {
                "start_time": 18.3840909,
                "end_time": 18.6340909,
                "pitch": 49,
                "velocity": 64,
                "duration": 0.25,
                "tempo": 120.0
            },
            {
                "start_time": 18.6522727,
                "end_time": 18.7681818,
                "pitch": 49,
                "velocity": 64,
                "duration": 0.1159091,
                "tempo": 120.0
            },
            {
                "start_time": 18.7840909,
                "end_time": 19.1681818,
                "pitch": 51,
                "velocity": 64,
                "duration": 0.3840909,
                "tempo": 120.0
            },
            {
                "start_time": 19.1863636,
                "end_time": 19.4409091,
                "pitch": 47,
                "velocity": 64,
                "duration": 0.2545455,
                "tempo": 120.0
            },
            {
                "start_time": 19.4568182,
                "end_time": 19.7136364,
                "pitch": 47,
                "velocity": 64,
                "duration": 0.2568182,
                "tempo": 120.0
            },
            {
                "start_time": 19.7295455,
                "end_time": 19.9795455,
                "pitch": 47,
                "velocity": 64,
                "duration": 0.25,
                "tempo": 120.0
            },
            {
                "start_time": 19.9977273,
                "end_time": 20.2477273,
                "pitch": 47,
                "velocity": 64,
                "duration": 0.25,
                "tempo": 120.0
            },
            {
                "start_time": 20.2636364,
                "end_time": 20.5136364,
                "pitch": 47,
                "velocity": 64,
                "duration": 0.25,
                "tempo": 120.0
            },
            {
                "start_time": 20.5318182,
                "end_time": 20.7818182,
                "pitch": 47,
                "velocity": 64,
                "duration": 0.25,
                "tempo": 120.0
            },
            {
                "start_time": 20.7977273,
                "end_time": 20.9181818,
                "pitch": 47,
                "velocity": 64,
                "duration": 0.1204545,
                "tempo": 120.0
            },
            {
                "start_time": 20.9340909,
                "end_time": 21.325,
                "pitch": 49,
                "velocity": 64,
                "duration": 0.3909091,
                "tempo": 120.0
            },
            {
                "start_time": 21.3431818,
                "end_time": 21.5931818,
                "pitch": 54,
                "velocity": 64,
                "duration": 0.25,
                "tempo": 120.0
            },
            {
                "start_time": 21.6090909,
                "end_time": 21.8590909,
                "pitch": 54,
                "velocity": 64,
                "duration": 0.25,
                "tempo": 120.0
            },
            {
                "start_time": 21.8772727,
                "end_time": 22.1272727,
                "pitch": 54,
                "velocity": 64,
                "duration": 0.25,
                "tempo": 120.0
            },
            {
                "start_time": 22.1431818,
                "end_time": 22.3954545,
                "pitch": 54,
                "velocity": 64,
                "duration": 0.2522727,
                "tempo": 120.0
            },
            {
                "start_time": 22.4113636,
                "end_time": 22.6613636,
                "pitch": 54,
                "velocity": 64,
                "duration": 0.25,
                "tempo": 120.0
            },
            {
                "start_time": 22.6795455,
                "end_time": 22.9295455,
                "pitch": 54,
                "velocity": 64,
                "duration": 0.25,
                "tempo": 120.0
            },
            {
                "start_time": 22.9454545,
                "end_time": 23.0636364,
                "pitch": 54,
                "velocity": 64,
                "duration": 0.1181818,
                "tempo": 120.0
            },
            {
                "start_time": 23.0818182,
                "end_time": 23.4727273,
                "pitch": 53,
                "velocity": 64,
                "duration": 0.3909091,
                "tempo": 120.0
            },
            {
                "start_time": 23.4886364,
                "end_time": 23.7409091,
                "pitch": 52,
                "velocity": 64,
                "duration": 0.2522727,
                "tempo": 120.0
            },
            {
                "start_time": 23.7568182,
                "end_time": 24.0068182,
                "pitch": 52,
                "velocity": 64,
                "duration": 0.25,
                "tempo": 120.0
            },
            {
                "start_time": 24.025,
                "end_time": 24.2795455,
                "pitch": 52,
                "velocity": 64,
                "duration": 0.2545455,
                "tempo": 120.0
            },
            {
                "start_time": 24.2954545,
                "end_time": 24.55,
                "pitch": 52,
                "velocity": 64,
                "duration": 0.2545455,
                "tempo": 120.0
            },
            {
                "start_time": 24.5681818,
                "end_time": 24.8181818,
                "pitch": 52,
                "velocity": 64,
                "duration": 0.25,
                "tempo": 120.0
            },
            {
                "start_time": 24.8340909,
                "end_time": 25.0863636,
                "pitch": 52,
                "velocity": 64,
                "duration": 0.2522727,
                "tempo": 120.0
            },
            {
                "start_time": 25.1022727,
                "end_time": 25.2181818,
                "pitch": 52,
                "velocity": 64,
                "duration": 0.1159091,
                "tempo": 120.0
            },
            {
                "start_time": 25.2363636,
                "end_time": 25.6204545,
                "pitch": 51,
                "velocity": 64,
                "duration": 0.3840909,
                "tempo": 120.0
            },
            {
                "start_time": 25.6363636,
                "end_time": 25.8909091,
                "pitch": 49,
                "velocity": 64,
                "duration": 0.2545455,
                "tempo": 120.0
            },
            {
                "start_time": 25.9090909,
                "end_time": 26.1636364,
                "pitch": 49,
                "velocity": 64,
                "duration": 0.2545455,
                "tempo": 120.0
            },
            {
                "start_time": 26.1795455,
                "end_time": 26.4318182,
                "pitch": 49,
                "velocity": 64,
                "duration": 0.2522727,
                "tempo": 120.0
            },
            {
                "start_time": 26.4477273,
                "end_time": 26.6977273,
                "pitch": 49,
                "velocity": 64,
                "duration": 0.25,
                "tempo": 120.0
            },
            {
                "start_time": 26.7159091,
                "end_time": 26.9659091,
                "pitch": 49,
                "velocity": 64,
                "duration": 0.25,
                "tempo": 120.0
            },
            {
                "start_time": 26.9818182,
                "end_time": 27.2318182,
                "pitch": 49,
                "velocity": 64,
                "duration": 0.25,
                "tempo": 120.0
            },
            {
                "start_time": 27.25,
                "end_time": 27.3681818,
                "pitch": 49,
                "velocity": 64,
                "duration": 0.1181818,
                "tempo": 120.0
            },
            {
                "start_time": 27.3863636,
                "end_time": 27.7772727,
                "pitch": 51,
                "velocity": 64,
                "duration": 0.3909091,
                "tempo": 120.0
            },
            {
                "start_time": 27.7931818,
                "end_time": 28.0431818,
                "pitch": 47,
                "velocity": 64,
                "duration": 0.25,
                "tempo": 120.0
            },
            {
                "start_time": 28.0613636,
                "end_time": 28.3113636,
                "pitch": 47,
                "velocity": 64,
                "duration": 0.25,
                "tempo": 120.0
            },
            {
                "start_time": 28.3272727,
                "end_time": 28.5818182,
                "pitch": 47,
                "velocity": 64,
                "duration": 0.2545455,
                "tempo": 120.0
            },
            {
                "start_time": 28.6,
                "end_time": 28.8545455,
                "pitch": 47,
                "velocity": 64,
                "duration": 0.2545455,
                "tempo": 120.0
            },
            {
                "start_time": 28.8727273,
                "end_time": 29.1227273,
                "pitch": 47,
                "velocity": 64,
                "duration": 0.25,
                "tempo": 120.0
            },
            {
                "start_time": 29.1386364,
                "end_time": 29.3886364,
                "pitch": 47,
                "velocity": 64,
                "duration": 0.25,
                "tempo": 120.0
            },
            {
                "start_time": 29.4068182,
                "end_time": 29.5227273,
                "pitch": 47,
                "velocity": 64,
                "duration": 0.1159091,
                "tempo": 120.0
            },
            {
                "start_time": 29.5386364,
                "end_time": 29.9227273,
                "pitch": 49,
                "velocity": 64,
                "duration": 0.3840909,
                "tempo": 120.0
            },
            {
                "start_time": 29.9409091,
                "end_time": 30.1909091,
                "pitch": 54,
                "velocity": 64,
                "duration": 0.25,
                "tempo": 120.0
            },
            {
                "start_time": 30.2068182,
                "end_time": 30.4590909,
                "pitch": 54,
                "velocity": 64,
                "duration": 0.2522727,
                "tempo": 120.0
            },
            {
                "start_time": 30.475,
                "end_time": 30.7295455,
                "pitch": 54,
                "velocity": 64,
                "duration": 0.2545455,
                "tempo": 120.0
            },
            {
                "start_time": 30.7477273,
                "end_time": 31.0022727,
                "pitch": 54,
                "velocity": 64,
                "duration": 0.2545455,
                "tempo": 120.0
            },
            {
                "start_time": 31.0181818,
                "end_time": 31.2681818,
                "pitch": 54,
                "velocity": 64,
                "duration": 0.25,
                "tempo": 120.0
            },
            {
                "start_time": 31.2863636,
                "end_time": 31.5363636,
                "pitch": 54,
                "velocity": 64,
                "duration": 0.25,
                "tempo": 120.0
            },
            {
                "start_time": 31.5522727,
                "end_time": 31.6704545,
                "pitch": 54,
                "velocity": 64,
                "duration": 0.1181818,
                "tempo": 120.0
            },
            {
                "start_time": 31.6863636,
                "end_time": 32.0704545,
                "pitch": 53,
                "velocity": 64,
                "duration": 0.3840909,
                "tempo": 120.0
            },
            {
                "start_time": 32.0886364,
                "end_time": 32.3431818,
                "pitch": 52,
                "velocity": 64,
                "duration": 0.2545455,
                "tempo": 120.0
            },
            {
                "start_time": 32.3590909,
                "end_time": 32.6136364,
                "pitch": 52,
                "velocity": 64,
                "duration": 0.2545455,
                "tempo": 120.0
            },
            {
                "start_time": 32.6318182,
                "end_time": 32.8818182,
                "pitch": 52,
                "velocity": 64,
                "duration": 0.25,
                "tempo": 120.0
            },
            {
                "start_time": 32.8977273,
                "end_time": 33.15,
                "pitch": 52,
                "velocity": 64,
                "duration": 0.2522727,
                "tempo": 120.0
            },
            {
                "start_time": 33.1659091,
                "end_time": 33.4159091,
                "pitch": 52,
                "velocity": 64,
                "duration": 0.25,
                "tempo": 120.0
            },
            {
                "start_time": 33.4340909,
                "end_time": 33.6840909,
                "pitch": 52,
                "velocity": 64,
                "duration": 0.25,
                "tempo": 120.0
            },
            {
                "start_time": 33.7,
                "end_time": 33.8181818,
                "pitch": 52,
                "velocity": 64,
                "duration": 0.1181818,
                "tempo": 120.0
            },
            {
                "start_time": 33.8363636,
                "end_time": 34.2272727,
                "pitch": 51,
                "velocity": 64,
                "duration": 0.3909091,
                "tempo": 120.0
            },
            {
                "start_time": 34.2431818,
                "end_time": 34.3613636,
                "pitch": 42,
                "velocity": 64,
                "duration": 0.1181818,
                "tempo": 120.0
            },
            {
                "start_time": 34.3772727,
                "end_time": 34.4954545,
                "pitch": 42,
                "velocity": 64,
                "duration": 0.1181818,
                "tempo": 120.0
            },
            {
                "start_time": 35.0454545,
                "end_time": 35.1636364,
                "pitch": 42,
                "velocity": 64,
                "duration": 0.1181818,
                "tempo": 120.0
            },
            {
                "start_time": 35.1795455,
                "end_time": 35.4318182,
                "pitch": 42,
                "velocity": 64,
                "duration": 0.2522727,
                "tempo": 120.0
            },
            {
                "start_time": 35.45,
                "end_time": 35.5681818,
                "pitch": 49,
                "velocity": 64,
                "duration": 0.1181818,
                "tempo": 120.0
            },
            {
                "start_time": 35.5840909,
                "end_time": 35.7045455,
                "pitch": 51,
                "velocity": 64,
                "duration": 0.1204545,
                "tempo": 120.0
            },
            {
                "start_time": 35.7204545,
                "end_time": 35.8409091,
                "pitch": 49,
                "velocity": 64,
                "duration": 0.1204545,
                "tempo": 120.0
            },
            {
                "start_time": 35.8568182,
                "end_time": 36.1068182,
                "pitch": 49,
                "velocity": 64,
                "duration": 0.25,
                "tempo": 120.0
            },
            {
                "start_time": 36.125,
                "end_time": 36.375,
                "pitch": 49,
                "velocity": 64,
                "duration": 0.25,
                "tempo": 120.0
            },
            {
                "start_time": 36.3909091,
                "end_time": 36.5090909,
                "pitch": 42,
                "velocity": 64,
                "duration": 0.1181818,
                "tempo": 120.0
            },
            {
                "start_time": 36.525,
                "end_time": 36.6409091,
                "pitch": 42,
                "velocity": 64,
                "duration": 0.1159091,
                "tempo": 120.0
            },
            {
                "start_time": 37.1977273,
                "end_time": 37.3159091,
                "pitch": 48,
                "velocity": 64,
                "duration": 0.1181818,
                "tempo": 120.0
            },
            {
                "start_time": 37.3340909,
                "end_time": 37.5863636,
                "pitch": 48,
                "velocity": 64,
                "duration": 0.2522727,
                "tempo": 120.0
            },
            {
                "start_time": 37.6022727,
                "end_time": 37.7204545,
                "pitch": 49,
                "velocity": 64,
                "duration": 0.1181818,
                "tempo": 120.0
            },
            {
                "start_time": 37.7363636,
                "end_time": 37.8545455,
                "pitch": 51,
                "velocity": 64,
                "duration": 0.1181818,
                "tempo": 120.0
            },
            {
                "start_time": 37.8704545,
                "end_time": 37.9863636,
                "pitch": 49,
                "velocity": 64,
                "duration": 0.1159091,
                "tempo": 120.0
            },
            {
                "start_time": 38.0045455,
                "end_time": 38.2590909,
                "pitch": 48,
                "velocity": 64,
                "duration": 0.2545455,
                "tempo": 120.0
            },
            {
                "start_time": 38.275,
                "end_time": 38.3954545,
                "pitch": 44,
                "velocity": 64,
                "duration": 0.1204545,
                "tempo": 120.0
            },
            {
                "start_time": 38.4113636,
                "end_time": 38.5318182,
                "pitch": 44,
                "velocity": 64,
                "duration": 0.1204545,
                "tempo": 120.0
            },
            {
                "start_time": 38.5477273,
                "end_time": 38.6636364,
                "pitch": 42,
                "velocity": 64,
                "duration": 0.1159091,
                "tempo": 120.0
            },
            {
                "start_time": 38.6795455,
                "end_time": 38.7931818,
                "pitch": 42,
                "velocity": 64,
                "duration": 0.1136364,
                "tempo": 120.0
            },
            {
                "start_time": 39.3454545,
                "end_time": 39.4636364,
                "pitch": 42,
                "velocity": 64,
                "duration": 0.1181818,
                "tempo": 120.0
            },
            {
                "start_time": 39.4818182,
                "end_time": 39.7340909,
                "pitch": 42,
                "velocity": 64,
                "duration": 0.2522727,
                "tempo": 120.0
            },
            {
                "start_time": 39.75,
                "end_time": 39.8681818,
                "pitch": 49,
                "velocity": 64,
                "duration": 0.1181818,
                "tempo": 120.0
            },
            {
                "start_time": 39.8840909,
                "end_time": 40.0,
                "pitch": 51,
                "velocity": 64,
                "duration": 0.1159091,
                "tempo": 120.0
            },
            {
                "start_time": 40.0181818,
                "end_time": 40.1340909,
                "pitch": 49,
                "velocity": 64,
                "duration": 0.1159091,
                "tempo": 120.0
            },
            {
                "start_time": 40.15,
                "end_time": 40.4068182,
                "pitch": 49,
                "velocity": 64,
                "duration": 0.2568182,
                "tempo": 120.0
            },
            {
                "start_time": 40.4227273,
                "end_time": 40.6772727,
                "pitch": 49,
                "velocity": 64,
                "duration": 0.2545455,
                "tempo": 120.0
            },
            {
                "start_time": 40.6954545,
                "end_time": 40.8113636,
                "pitch": 42,
                "velocity": 64,
                "duration": 0.1159091,
                "tempo": 120.0
            },
            {
                "start_time": 40.8295455,
                "end_time": 40.9454545,
                "pitch": 42,
                "velocity": 64,
                "duration": 0.1159091,
                "tempo": 120.0
            },
            {
                "start_time": 41.4954545,
                "end_time": 41.6136364,
                "pitch": 48,
                "velocity": 64,
                "duration": 0.1181818,
                "tempo": 120.0
            },
            {
                "start_time": 41.6295455,
                "end_time": 41.8818182,
                "pitch": 48,
                "velocity": 64,
                "duration": 0.2522727,
                "tempo": 120.0
            },
            {
                "start_time": 41.9,
                "end_time": 42.0181818,
                "pitch": 49,
                "velocity": 64,
                "duration": 0.1181818,
                "tempo": 120.0
            },
            {
                "start_time": 42.0363636,
                "end_time": 42.1545455,
                "pitch": 51,
                "velocity": 64,
                "duration": 0.1181818,
                "tempo": 120.0
            },
            {
                "start_time": 42.1727273,
                "end_time": 42.2909091,
                "pitch": 49,
                "velocity": 64,
                "duration": 0.1181818,
                "tempo": 120.0
            },
            {
                "start_time": 42.3068182,
                "end_time": 42.5590909,
                "pitch": 48,
                "velocity": 64,
                "duration": 0.2522727,
                "tempo": 120.0
            },
            {
                "start_time": 42.575,
                "end_time": 42.6909091,
                "pitch": 44,
                "velocity": 64,
                "duration": 0.1159091,
                "tempo": 120.0
            },
            {
                "start_time": 42.7090909,
                "end_time": 42.825,
                "pitch": 44,
                "velocity": 64,
                "duration": 0.1159091,
                "tempo": 120.0
            },
            {
                "start_time": 42.8431818,
                "end_time": 42.9590909,
                "pitch": 44,
                "velocity": 64,
                "duration": 0.1159091,
                "tempo": 120.0
            },
            {
                "start_time": 42.975,
                "end_time": 43.0931818,
                "pitch": 44,
                "velocity": 64,
                "duration": 0.1181818,
                "tempo": 120.0
            },
            {
                "start_time": 43.6477273,
                "end_time": 43.7681818,
                "pitch": 42,
                "velocity": 64,
                "duration": 0.1204545,
                "tempo": 120.0
            },
            {
                "start_time": 43.7840909,
                "end_time": 44.0363636,
                "pitch": 42,
                "velocity": 64,
                "duration": 0.2522727,
                "tempo": 120.0
            },
            {
                "start_time": 44.0545455,
                "end_time": 44.1704545,
                "pitch": 49,
                "velocity": 64,
                "duration": 0.1159091,
                "tempo": 120.0
            },
            {
                "start_time": 44.1886364,
                "end_time": 44.3045455,
                "pitch": 51,
                "velocity": 64,
                "duration": 0.1159091,
                "tempo": 120.0
            },
            {
                "start_time": 44.3204545,
                "end_time": 44.4386364,
                "pitch": 49,
                "velocity": 64,
                "duration": 0.1181818,
                "tempo": 120.0
            },
            {
                "start_time": 44.4545455,
                "end_time": 44.5727273,
                "pitch": 48,
                "velocity": 64,
                "duration": 0.1181818,
                "tempo": 120.0
            },
            {
                "start_time": 44.5886364,
                "end_time": 44.7045455,
                "pitch": 48,
                "velocity": 64,
                "duration": 0.1159091,
                "tempo": 120.0
            },
            {
                "start_time": 44.7227273,
                "end_time": 44.9727273,
                "pitch": 44,
                "velocity": 64,
                "duration": 0.25,
                "tempo": 120.0
            },
            {
                "start_time": 44.9886364,
                "end_time": 45.1090909,
                "pitch": 44,
                "velocity": 64,
                "duration": 0.1204545,
                "tempo": 120.0
            },
            {
                "start_time": 45.125,
                "end_time": 45.2431818,
                "pitch": 44,
                "velocity": 64,
                "duration": 0.1181818,
                "tempo": 120.0
            },
            {
                "start_time": 45.8,
                "end_time": 45.9181818,
                "pitch": 48,
                "velocity": 64,
                "duration": 0.1181818,
                "tempo": 120.0
            },
            {
                "start_time": 45.9340909,
                "end_time": 46.1840909,
                "pitch": 48,
                "velocity": 64,
                "duration": 0.25,
                "tempo": 120.0
            },
            {
                "start_time": 46.2,
                "end_time": 46.3181818,
                "pitch": 49,
                "velocity": 64,
                "duration": 0.1181818,
                "tempo": 120.0
            },
            {
                "start_time": 46.3340909,
                "end_time": 46.4522727,
                "pitch": 51,
                "velocity": 64,
                "duration": 0.1181818,
                "tempo": 120.0
            },
            {
                "start_time": 46.4681818,
                "end_time": 46.5840909,
                "pitch": 49,
                "velocity": 64,
                "duration": 0.1159091,
                "tempo": 120.0
            },
            {
                "start_time": 46.6022727,
                "end_time": 46.7204545,
                "pitch": 48,
                "velocity": 64,
                "duration": 0.1181818,
                "tempo": 120.0
            },
            {
                "start_time": 46.7386364,
                "end_time": 46.8568182,
                "pitch": 48,
                "velocity": 64,
                "duration": 0.1181818,
                "tempo": 120.0
            },
            {
                "start_time": 46.8727273,
                "end_time": 46.9931818,
                "pitch": 44,
                "velocity": 64,
                "duration": 0.1204545,
                "tempo": 120.0
            },
            {
                "start_time": 47.0090909,
                "end_time": 47.1295455,
                "pitch": 44,
                "velocity": 64,
                "duration": 0.1204545,
                "tempo": 120.0
            },
            {
                "start_time": 47.1454545,
                "end_time": 47.2636364,
                "pitch": 44,
                "velocity": 64,
                "duration": 0.1181818,
                "tempo": 120.0
            },
            {
                "start_time": 47.2795455,
                "end_time": 47.3954545,
                "pitch": 44,
                "velocity": 64,
                "duration": 0.1159091,
                "tempo": 120.0
            },
            {
                "start_time": 47.9477273,
                "end_time": 48.0636364,
                "pitch": 42,
                "velocity": 64,
                "duration": 0.1159091,
                "tempo": 120.0
            },
            {
                "start_time": 48.0818182,
                "end_time": 48.3318182,
                "pitch": 42,
                "velocity": 64,
                "duration": 0.25,
                "tempo": 120.0
            },
            {
                "start_time": 48.3477273,
                "end_time": 48.4659091,
                "pitch": 49,
                "velocity": 64,
                "duration": 0.1181818,
                "tempo": 120.0
            },
            {
                "start_time": 48.4818182,
                "end_time": 48.5977273,
                "pitch": 51,
                "velocity": 64,
                "duration": 0.1159091,
                "tempo": 120.0
            },
            {
                "start_time": 48.6159091,
                "end_time": 48.7318182,
                "pitch": 49,
                "velocity": 64,
                "duration": 0.1159091,
                "tempo": 120.0
            },
            {
                "start_time": 48.75,
                "end_time": 48.8681818,
                "pitch": 48,
                "velocity": 64,
                "duration": 0.1181818,
                "tempo": 120.0
            },
            {
                "start_time": 48.8840909,
                "end_time": 49.0045455,
                "pitch": 48,
                "velocity": 64,
                "duration": 0.1204545,
                "tempo": 120.0
            },
            {
                "start_time": 49.0204545,
                "end_time": 49.1409091,
                "pitch": 44,
                "velocity": 64,
                "duration": 0.1204545,
                "tempo": 120.0
            },
            {
                "start_time": 49.1568182,
                "end_time": 49.275,
                "pitch": 44,
                "velocity": 64,
                "duration": 0.1181818,
                "tempo": 120.0
            },
            {
                "start_time": 49.2931818,
                "end_time": 49.4090909,
                "pitch": 44,
                "velocity": 64,
                "duration": 0.1159091,
                "tempo": 120.0
            },
            {
                "start_time": 49.4272727,
                "end_time": 49.5431818,
                "pitch": 44,
                "velocity": 64,
                "duration": 0.1159091,
                "tempo": 120.0
            },
            {
                "start_time": 50.1,
                "end_time": 50.2181818,
                "pitch": 48,
                "velocity": 64,
                "duration": 0.1181818,
                "tempo": 120.0
            },
            {
                "start_time": 50.2363636,
                "end_time": 50.4886364,
                "pitch": 48,
                "velocity": 64,
                "duration": 0.2522727,
                "tempo": 120.0
            },
            {
                "start_time": 50.5045455,
                "end_time": 50.6227273,
                "pitch": 49,
                "velocity": 64,
                "duration": 0.1181818,
                "tempo": 120.0
            },
            {
                "start_time": 50.6386364,
                "end_time": 50.7545455,
                "pitch": 51,
                "velocity": 64,
                "duration": 0.1159091,
                "tempo": 120.0
            },
            {
                "start_time": 50.7727273,
                "end_time": 50.8886364,
                "pitch": 49,
                "velocity": 64,
                "duration": 0.1159091,
                "tempo": 120.0
            },
            {
                "start_time": 50.9045455,
                "end_time": 51.0227273,
                "pitch": 48,
                "velocity": 64,
                "duration": 0.1181818,
                "tempo": 120.0
            },
            {
                "start_time": 51.0409091,
                "end_time": 51.1886364,
                "pitch": 48,
                "velocity": 64,
                "duration": 0.1477273,
                "tempo": 120.0
            },
            {
                "start_time": 51.2090909,
                "end_time": 51.3545455,
                "pitch": 44,
                "velocity": 64,
                "duration": 0.1454545,
                "tempo": 120.0
            },
            {
                "start_time": 51.3772727,
                "end_time": 51.5227273,
                "pitch": 44,
                "velocity": 64,
                "duration": 0.1454545,
                "tempo": 120.0
            },
            {
                "start_time": 51.5431818,
                "end_time": 51.8590909,
                "pitch": 42,
                "velocity": 64,
                "duration": 0.3159091,
                "tempo": 120.0
            },
            {
                "start_time": 51.8795455,
                "end_time": 52.1977273,
                "pitch": 42,
                "velocity": 64,
                "duration": 0.3181818,
                "tempo": 120.0
            },
            {
                "start_time": 52.2181818,
                "end_time": 52.3681818,
                "pitch": 49,
                "velocity": 64,
                "duration": 0.15,
                "tempo": 120.0
            },
            {
                "start_time": 52.3886364,
                "end_time": 52.7068182,
                "pitch": 49,
                "velocity": 64,
                "duration": 0.3181818,
                "tempo": 120.0
            },
            {
                "start_time": 52.7272727,
                "end_time": 53.0454545,
                "pitch": 42,
                "velocity": 64,
                "duration": 0.3181818,
                "tempo": 120.0
            },
            {
                "start_time": 53.0659091,
                "end_time": 53.3840909,
                "pitch": 42,
                "velocity": 64,
                "duration": 0.3181818,
                "tempo": 120.0
            },
            {
                "start_time": 53.4068182,
                "end_time": 53.5545455,
                "pitch": 49,
                "velocity": 64,
                "duration": 0.1477273,
                "tempo": 120.0
            },
            {
                "start_time": 53.575,
                "end_time": 53.8931818,
                "pitch": 49,
                "velocity": 64,
                "duration": 0.3181818,
                "tempo": 120.0
            },
            {
                "start_time": 53.9159091,
                "end_time": 54.2340909,
                "pitch": 49,
                "velocity": 64,
                "duration": 0.3181818,
                "tempo": 120.0
            },
            {
                "start_time": 54.2545455,
                "end_time": 54.5727273,
                "pitch": 44,
                "velocity": 64,
                "duration": 0.3181818,
                "tempo": 120.0
            },
            {
                "start_time": 54.5931818,
                "end_time": 54.9704545,
                "pitch": 44,
                "velocity": 64,
                "duration": 0.3772727,
                "tempo": 120.0
            },
            {
                "start_time": 54.9954545,
                "end_time": 55.1704545,
                "pitch": 51,
                "velocity": 64,
                "duration": 0.175,
                "tempo": 120.0
            },
            {
                "start_time": 55.1977273,
                "end_time": 55.575,
                "pitch": 51,
                "velocity": 64,
                "duration": 0.3772727,
                "tempo": 120.0
            },
            {
                "start_time": 55.6,
                "end_time": 55.9772727,
                "pitch": 44,
                "velocity": 64,
                "duration": 0.3772727,
                "tempo": 120.0
            },
            {
                "start_time": 56.0022727,
                "end_time": 56.4431818,
                "pitch": 44,
                "velocity": 64,
                "duration": 0.4409091,
                "tempo": 120.0
            },
            {
                "start_time": 56.4727273,
                "end_time": 56.6795455,
                "pitch": 51,
                "velocity": 64,
                "duration": 0.2068182,
                "tempo": 120.0
            },
            {
                "start_time": 56.7090909,
                "end_time": 57.1522727,
                "pitch": 51,
                "velocity": 64,
                "duration": 0.4431818,
                "tempo": 120.0
            },
            {
                "start_time": 57.1818182,
                "end_time": 57.6227273,
                "pitch": 51,
                "velocity": 64,
                "duration": 0.4409091,
                "tempo": 120.0
            },
            {
                "start_time": 57.6522727,
                "end_time": 58.0954545,
                "pitch": 42,
                "velocity": 64,
                "duration": 0.4431818,
                "tempo": 120.0
            },
            {
                "start_time": 58.125,
                "end_time": 58.5659091,
                "pitch": 42,
                "velocity": 64,
                "duration": 0.4409091,
                "tempo": 120.0
            },
            {
                "start_time": 58.5954545,
                "end_time": 58.8022727,
                "pitch": 49,
                "velocity": 64,
                "duration": 0.2068182,
                "tempo": 120.0
            },
            {
                "start_time": 58.8318182,
                "end_time": 59.275,
                "pitch": 49,
                "velocity": 64,
                "duration": 0.4431818,
                "tempo": 120.0
            },
            {
                "start_time": 59.3045455,
                "end_time": 59.7454545,
                "pitch": 42,
                "velocity": 64,
                "duration": 0.4409091,
                "tempo": 120.0
            },
            {
                "start_time": 59.775,
                "end_time": 60.2181818,
                "pitch": 42,
                "velocity": 64,
                "duration": 0.4431818,
                "tempo": 120.0
            },
            {
                "start_time": 60.2477273,
                "end_time": 60.4545455,
                "pitch": 49,
                "velocity": 64,
                "duration": 0.2068182,
                "tempo": 120.0
            },
            {
                "start_time": 60.4840909,
                "end_time": 60.925,
                "pitch": 49,
                "velocity": 64,
                "duration": 0.4409091,
                "tempo": 120.0
            },
            {
                "start_time": 60.9545455,
                "end_time": 61.4045455,
                "pitch": 49,
                "velocity": 64,
                "duration": 0.45,
                "tempo": 120.0
            },
            {
                "start_time": 61.4340909,
                "end_time": 61.8840909,
                "pitch": 44,
                "velocity": 64,
                "duration": 0.45,
                "tempo": 120.0
            },
            {
                "start_time": 61.9136364,
                "end_time": 62.3636364,
                "pitch": 44,
                "velocity": 64,
                "duration": 0.45,
                "tempo": 120.0
            },
            {
                "start_time": 62.3931818,
                "end_time": 62.6022727,
                "pitch": 51,
                "velocity": 64,
                "duration": 0.2090909,
                "tempo": 120.0
            },
            {
                "start_time": 62.6318182,
                "end_time": 63.075,
                "pitch": 51,
                "velocity": 64,
                "duration": 0.4431818,
                "tempo": 120.0
            },
            {
                "start_time": 63.1045455,
                "end_time": 63.5454545,
                "pitch": 44,
                "velocity": 64,
                "duration": 0.4409091,
                "tempo": 120.0
            },
            {
                "start_time": 63.575,
                "end_time": 64.0181818,
                "pitch": 44,
                "velocity": 64,
                "duration": 0.4431818,
                "tempo": 120.0
            },
            {
                "start_time": 64.0477273,
                "end_time": 64.2545455,
                "pitch": 51,
                "velocity": 64,
                "duration": 0.2068182,
                "tempo": 120.0
            },
            {
                "start_time": 64.2840909,
                "end_time": 64.7318182,
                "pitch": 51,
                "velocity": 64,
                "duration": 0.4477273,
                "tempo": 120.0
            },
            {
                "start_time": 64.7636364,
                "end_time": 65.2113636,
                "pitch": 51,
                "velocity": 64,
                "duration": 0.4477273,
                "tempo": 120.0
            },
            {
                "start_time": 65.2409091,
                "end_time": 65.6909091,
                "pitch": 42,
                "velocity": 64,
                "duration": 0.45,
                "tempo": 120.0
            },
            {
                "start_time": 65.7204545,
                "end_time": 66.1681818,
                "pitch": 42,
                "velocity": 64,
                "duration": 0.4477273,
                "tempo": 120.0
            },
            {
                "start_time": 66.1977273,
                "end_time": 66.4022727,
                "pitch": 49,
                "velocity": 64,
                "duration": 0.2045455,
                "tempo": 120.0
            },
            {
                "start_time": 66.4318182,
                "end_time": 66.875,
                "pitch": 49,
                "velocity": 64,
                "duration": 0.4431818,
                "tempo": 120.0
            },
            {
                "start_time": 66.9045455,
                "end_time": 67.3477273,
                "pitch": 42,
                "velocity": 64,
                "duration": 0.4431818,
                "tempo": 120.0
            },
            {
                "start_time": 67.3772727,
                "end_time": 67.825,
                "pitch": 42,
                "velocity": 64,
                "duration": 0.4477273,
                "tempo": 120.0
            },
            {
                "start_time": 67.8568182,
                "end_time": 68.0772727,
                "pitch": 49,
                "velocity": 64,
                "duration": 0.2204545,
                "tempo": 120.0
            },
            {
                "start_time": 68.1090909,
                "end_time": 68.5795455,
                "pitch": 49,
                "velocity": 64,
                "duration": 0.4704545,
                "tempo": 120.0
            },
            {
                "start_time": 68.6113636,
                "end_time": 69.0840909,
                "pitch": 49,
                "velocity": 64,
                "duration": 0.4727273,
                "tempo": 120.0
            },
            {
                "start_time": 69.1159091,
                "end_time": 69.5863636,
                "pitch": 44,
                "velocity": 64,
                "duration": 0.4704545,
                "tempo": 120.0
            },
            {
                "start_time": 69.6181818,
                "end_time": 70.0977273,
                "pitch": 44,
                "velocity": 64,
                "duration": 0.4795455,
                "tempo": 120.0
            },
            {
                "start_time": 70.1295455,
                "end_time": 70.3545455,
                "pitch": 51,
                "velocity": 64,
                "duration": 0.225,
                "tempo": 120.0
            },
            {
                "start_time": 70.3863636,
                "end_time": 70.8659091,
                "pitch": 51,
                "velocity": 64,
                "duration": 0.4795455,
                "tempo": 120.0
            },
            {
                "start_time": 70.8977273,
                "end_time": 71.3772727,
                "pitch": 44,
                "velocity": 64,
                "duration": 0.4795455,
                "tempo": 120.0
            },
            {
                "start_time": 71.4090909,
                "end_time": 71.85,
                "pitch": 44,
                "velocity": 64,
                "duration": 0.4409091,
                "tempo": 120.0
            },
            {
                "start_time": 71.8795455,
                "end_time": 72.0863636,
                "pitch": 51,
                "velocity": 64,
                "duration": 0.2068182,
                "tempo": 120.0
            },
            {
                "start_time": 72.1159091,
                "end_time": 72.5590909,
                "pitch": 51,
                "velocity": 64,
                "duration": 0.4431818,
                "tempo": 120.0
            },
            {
                "start_time": 72.5886364,
                "end_time": 73.0295455,
                "pitch": 51,
                "velocity": 64,
                "duration": 0.4409091,
                "tempo": 120.0
            },
            {
                "start_time": 73.0590909,
                "end_time": 73.5090909,
                "pitch": 42,
                "velocity": 64,
                "duration": 0.45,
                "tempo": 120.0
            },
            {
                "start_time": 73.5386364,
                "end_time": 73.9886364,
                "pitch": 42,
                "velocity": 64,
                "duration": 0.45,
                "tempo": 120.0
            },
            {
                "start_time": 74.0181818,
                "end_time": 74.2272727,
                "pitch": 49,
                "velocity": 64,
                "duration": 0.2090909,
                "tempo": 120.0
            },
            {
                "start_time": 74.2568182,
                "end_time": 74.7068182,
                "pitch": 49,
                "velocity": 64,
                "duration": 0.45,
                "tempo": 120.0
            },
            {
                "start_time": 74.7363636,
                "end_time": 75.1795455,
                "pitch": 42,
                "velocity": 64,
                "duration": 0.4431818,
                "tempo": 120.0
            },
            {
                "start_time": 75.2090909,
                "end_time": 75.6522727,
                "pitch": 42,
                "velocity": 64,
                "duration": 0.4431818,
                "tempo": 120.0
            },
            {
                "start_time": 75.6818182,
                "end_time": 75.8863636,
                "pitch": 49,
                "velocity": 64,
                "duration": 0.2045455,
                "tempo": 120.0
            },
            {
                "start_time": 75.9159091,
                "end_time": 76.3590909,
                "pitch": 49,
                "velocity": 64,
                "duration": 0.4431818,
                "tempo": 120.0
            },
            {
                "start_time": 76.3886364,
                "end_time": 76.8363636,
                "pitch": 49,
                "velocity": 64,
                "duration": 0.4477273,
                "tempo": 120.0
            },
            {
                "start_time": 76.8681818,
                "end_time": 77.3159091,
                "pitch": 44,
                "velocity": 64,
                "duration": 0.4477273,
                "tempo": 120.0
            },
            {
                "start_time": 77.3477273,
                "end_time": 77.7954545,
                "pitch": 44,
                "velocity": 64,
                "duration": 0.4477273,
                "tempo": 120.0
            },
            {
                "start_time": 77.825,
                "end_time": 78.0363636,
                "pitch": 51,
                "velocity": 64,
                "duration": 0.2113636,
                "tempo": 120.0
            },
            {
                "start_time": 78.0659091,
                "end_time": 78.5068182,
                "pitch": 51,
                "velocity": 64,
                "duration": 0.4409091,
                "tempo": 120.0
            },
            {
                "start_time": 78.5363636,
                "end_time": 78.9795455,
                "pitch": 44,
                "velocity": 64,
                "duration": 0.4431818,
                "tempo": 120.0
            },
            {
                "start_time": 79.0090909,
                "end_time": 79.4522727,
                "pitch": 44,
                "velocity": 64,
                "duration": 0.4431818,
                "tempo": 120.0
            },
            {
                "start_time": 79.4818182,
                "end_time": 79.6568182,
                "pitch": 51,
                "velocity": 64,
                "duration": 0.175,
                "tempo": 120.0
            },
            {
                "start_time": 79.6840909,
                "end_time": 80.0613636,
                "pitch": 51,
                "velocity": 64,
                "duration": 0.3772727,
                "tempo": 120.0
            },
            {
                "start_time": 80.0863636,
                "end_time": 80.4636364,
                "pitch": 51,
                "velocity": 64,
                "duration": 0.3772727,
                "tempo": 120.0
            },
            {
                "start_time": 80.4863636,
                "end_time": 80.6340909,
                "pitch": 42,
                "velocity": 64,
                "duration": 0.1477273,
                "tempo": 120.0
            },
            {
                "start_time": 80.6545455,
                "end_time": 80.8022727,
                "pitch": 42,
                "velocity": 64,
                "duration": 0.1477273,
                "tempo": 120.0
            }
        ],
        "French Horn": [
            {
                "start_time": 0.0,
                "end_time": 0.025,
                "pitch": 73,
                "velocity": 51,
                "duration": 0.025,
                "tempo": 120.0
            },
            {
                "start_time": 0.05,
                "end_time": 0.2272727,
                "pitch": 66,
                "velocity": 51,
                "duration": 0.1772727,
                "tempo": 120.0
            },
            {
                "start_time": 0.2522727,
                "end_time": 0.3772727,
                "pitch": 72,
                "velocity": 51,
                "duration": 0.125,
                "tempo": 120.0
            },
            {
                "start_time": 0.3772727,
                "end_time": 0.4431818,
                "pitch": 72,
                "velocity": 51,
                "duration": 0.0659091,
                "tempo": 120.0
            },
            {
                "start_time": 0.4772727,
                "end_time": 0.5772727,
                "pitch": 73,
                "velocity": 51,
                "duration": 0.1,
                "tempo": 120.0
            },
            {
                "start_time": 0.6113636,
                "end_time": 0.8454545,
                "pitch": 73,
                "velocity": 51,
                "duration": 0.2340909,
                "tempo": 120.0
            },
            {
                "start_time": 0.8772727,
                "end_time": 1.1113636,
                "pitch": 73,
                "velocity": 51,
                "duration": 0.2340909,
                "tempo": 120.0
            },
            {
                "start_time": 1.1454545,
                "end_time": 1.3795455,
                "pitch": 72,
                "velocity": 51,
                "duration": 0.2340909,
                "tempo": 120.0
            },
            {
                "start_time": 1.4136364,
                "end_time": 1.5136364,
                "pitch": 73,
                "velocity": 51,
                "duration": 0.1,
                "tempo": 120.0
            },
            {
                "start_time": 1.5477273,
                "end_time": 1.7863636,
                "pitch": 75,
                "velocity": 51,
                "duration": 0.2386364,
                "tempo": 120.0
            },
            {
                "start_time": 1.8204545,
                "end_time": 2.0568182,
                "pitch": 73,
                "velocity": 51,
                "duration": 0.2363636,
                "tempo": 120.0
            },
            {
                "start_time": 2.0909091,
                "end_time": 2.4568182,
                "pitch": 72,
                "velocity": 51,
                "duration": 0.3659091,
                "tempo": 120.0
            },
            {
                "start_time": 2.4909091,
                "end_time": 3.3931818,
                "pitch": 68,
                "velocity": 51,
                "duration": 0.9022727,
                "tempo": 120.0
            },
            {
                "start_time": 3.425,
                "end_time": 3.6613636,
                "pitch": 66,
                "velocity": 51,
                "duration": 0.2363636,
                "tempo": 120.0
            },
            {
                "start_time": 3.6954545,
                "end_time": 3.7977273,
                "pitch": 66,
                "velocity": 51,
                "duration": 0.1022727,
                "tempo": 120.0
            },
            {
                "start_time": 3.8318182,
                "end_time": 4.2045455,
                "pitch": 68,
                "velocity": 51,
                "duration": 0.3727273,
                "tempo": 120.0
            },
            {
                "start_time": 4.2363636,
                "end_time": 4.4704545,
                "pitch": 66,
                "velocity": 51,
                "duration": 0.2340909,
                "tempo": 120.0
            },
            {
                "start_time": 4.5045455,
                "end_time": 4.7386364,
                "pitch": 72,
                "velocity": 51,
                "duration": 0.2340909,
                "tempo": 120.0
            },
            {
                "start_time": 4.7727273,
                "end_time": 4.875,
                "pitch": 73,
                "velocity": 51,
                "duration": 0.1022727,
                "tempo": 120.0
            },
            {
                "start_time": 4.9090909,
                "end_time": 5.1477273,
                "pitch": 73,
                "velocity": 51,
                "duration": 0.2386364,
                "tempo": 120.0
            },
            {
                "start_time": 5.1818182,
                "end_time": 5.4159091,
                "pitch": 73,
                "velocity": 51,
                "duration": 0.2340909,
                "tempo": 120.0
            },
            {
                "start_time": 5.45,
                "end_time": 5.6840909,
                "pitch": 72,
                "velocity": 51,
                "duration": 0.2340909,
                "tempo": 120.0
            },
            {
                "start_time": 5.7159091,
                "end_time": 5.8181818,
                "pitch": 73,
                "velocity": 51,
                "duration": 0.1022727,
                "tempo": 120.0
            },
            {
                "start_time": 5.8522727,
                "end_time": 6.0886364,
                "pitch": 75,
                "velocity": 51,
                "duration": 0.2363636,
                "tempo": 120.0
            },
            {
                "start_time": 6.1227273,
                "end_time": 6.3613636,
                "pitch": 73,
                "velocity": 51,
                "duration": 0.2386364,
                "tempo": 120.0
            },
            {
                "start_time": 6.3931818,
                "end_time": 6.7613636,
                "pitch": 72,
                "velocity": 51,
                "duration": 0.3681818,
                "tempo": 120.0
            },
            {
                "start_time": 6.7954545,
                "end_time": 7.6954545,
                "pitch": 68,
                "velocity": 51,
                "duration": 0.9,
                "tempo": 120.0
            },
            {
                "start_time": 7.7295455,
                "end_time": 7.9659091,
                "pitch": 66,
                "velocity": 51,
                "duration": 0.2363636,
                "tempo": 120.0
            },
            {
                "start_time": 7.9977273,
                "end_time": 8.1,
                "pitch": 66,
                "velocity": 51,
                "duration": 0.1022727,
                "tempo": 120.0
            },
            {
                "start_time": 8.1340909,
                "end_time": 8.5068182,
                "pitch": 68,
                "velocity": 51,
                "duration": 0.3727273,
                "tempo": 120.0
            },
            {
                "start_time": 8.5409091,
                "end_time": 8.775,
                "pitch": 75,
                "velocity": 51,
                "duration": 0.2340909,
                "tempo": 120.0
            },
            {
                "start_time": 8.8090909,
                "end_time": 9.0431818,
                "pitch": 80,
                "velocity": 51,
                "duration": 0.2340909,
                "tempo": 120.0
            },
            {
                "start_time": 9.0772727,
                "end_time": 9.3159091,
                "pitch": 75,
                "velocity": 51,
                "duration": 0.2386364,
                "tempo": 120.0
            },
            {
                "start_time": 9.35,
                "end_time": 9.8477273,
                "pitch": 73,
                "velocity": 51,
                "duration": 0.4977273,
                "tempo": 120.0
            },
            {
                "start_time": 9.8795455,
                "end_time": 10.3840909,
                "pitch": 72,
                "velocity": 51,
                "duration": 0.5045455,
                "tempo": 120.0
            },
            {
                "start_time": 10.4181818,
                "end_time": 10.6545455,
                "pitch": 66,
                "velocity": 51,
                "duration": 0.2363636,
                "tempo": 120.0
            },
            {
                "start_time": 10.6886364,
                "end_time": 11.1909091,
                "pitch": 68,
                "velocity": 51,
                "duration": 0.5022727,
                "tempo": 120.0
            },
            {
                "start_time": 11.225,
                "end_time": 11.7340909,
                "pitch": 72,
                "velocity": 51,
                "duration": 0.5090909,
                "tempo": 120.0
            },
            {
                "start_time": 11.7659091,
                "end_time": 12.2681818,
                "pitch": 73,
                "velocity": 51,
                "duration": 0.5022727,
                "tempo": 120.0
            },
            {
                "start_time": 12.3,
                "end_time": 12.8022727,
                "pitch": 75,
                "velocity": 51,
                "duration": 0.5022727,
                "tempo": 120.0
            },
            {
                "start_time": 12.8363636,
                "end_time": 13.075,
                "pitch": 75,
                "velocity": 51,
                "duration": 0.2386364,
                "tempo": 120.0
            },
            {
                "start_time": 13.1090909,
                "end_time": 13.3454545,
                "pitch": 80,
                "velocity": 51,
                "duration": 0.2363636,
                "tempo": 120.0
            },
            {
                "start_time": 13.3795455,
                "end_time": 13.6136364,
                "pitch": 75,
                "velocity": 51,
                "duration": 0.2340909,
                "tempo": 120.0
            },
            {
                "start_time": 13.6454545,
                "end_time": 14.1477273,
                "pitch": 73,
                "velocity": 51,
                "duration": 0.5022727,
                "tempo": 120.0
            },
            {
                "start_time": 14.1818182,
                "end_time": 14.6886364,
                "pitch": 72,
                "velocity": 51,
                "duration": 0.5068182,
                "tempo": 120.0
            },
            {
                "start_time": 14.7227273,
                "end_time": 14.9590909,
                "pitch": 66,
                "velocity": 51,
                "duration": 0.2363636,
                "tempo": 120.0
            },
            {
                "start_time": 14.9909091,
                "end_time": 15.4931818,
                "pitch": 68,
                "velocity": 51,
                "duration": 0.5022727,
                "tempo": 120.0
            },
            {
                "start_time": 15.5272727,
                "end_time": 16.0272727,
                "pitch": 72,
                "velocity": 51,
                "duration": 0.5,
                "tempo": 120.0
            },
            {
                "start_time": 16.0613636,
                "end_time": 16.5636364,
                "pitch": 73,
                "velocity": 51,
                "duration": 0.5022727,
                "tempo": 120.0
            },
            {
                "start_time": 16.5977273,
                "end_time": 17.1045455,
                "pitch": 75,
                "velocity": 51,
                "duration": 0.5068182,
                "tempo": 120.0
            },
            {
                "start_time": 17.1386364,
                "end_time": 17.5068182,
                "pitch": 75,
                "velocity": 51,
                "duration": 0.3681818,
                "tempo": 120.0
            },
            {
                "start_time": 17.5386364,
                "end_time": 17.7772727,
                "pitch": 75,
                "velocity": 51,
                "duration": 0.2386364,
                "tempo": 120.0
            },
            {
                "start_time": 17.8113636,
                "end_time": 17.9136364,
                "pitch": 75,
                "velocity": 51,
                "duration": 0.1022727,
                "tempo": 120.0
            },
            {
                "start_time": 17.9477273,
                "end_time": 18.05,
                "pitch": 75,
                "velocity": 51,
                "duration": 0.1022727,
                "tempo": 120.0
            },
            {
                "start_time": 18.0840909,
                "end_time": 18.1840909,
                "pitch": 75,
                "velocity": 51,
                "duration": 0.1,
                "tempo": 120.0
            },
            {
                "start_time": 18.2181818,
                "end_time": 19.2545455,
                "pitch": 75,
                "velocity": 51,
                "duration": 1.0363636,
                "tempo": 120.0
            },
            {
                "start_time": 19.2886364,
                "end_time": 19.6613636,
                "pitch": 73,
                "velocity": 51,
                "duration": 0.3727273,
                "tempo": 120.0
            },
            {
                "start_time": 19.6954545,
                "end_time": 19.9295455,
                "pitch": 73,
                "velocity": 51,
                "duration": 0.2340909,
                "tempo": 120.0
            },
            {
                "start_time": 19.9636364,
                "end_time": 20.0636364,
                "pitch": 73,
                "velocity": 51,
                "duration": 0.1,
                "tempo": 120.0
            },
            {
                "start_time": 20.0977273,
                "end_time": 20.1977273,
                "pitch": 73,
                "velocity": 51,
                "duration": 0.1,
                "tempo": 120.0
            },
            {
                "start_time": 20.2318182,
                "end_time": 20.3318182,
                "pitch": 73,
                "velocity": 51,
                "duration": 0.1,
                "tempo": 120.0
            },
            {
                "start_time": 20.3636364,
                "end_time": 21.4090909,
                "pitch": 73,
                "velocity": 51,
                "duration": 1.0454545,
                "tempo": 120.0
            },
            {
                "start_time": 21.4431818,
                "end_time": 21.8090909,
                "pitch": 73,
                "velocity": 51,
                "duration": 0.3659091,
                "tempo": 120.0
            },
            {
                "start_time": 21.8431818,
                "end_time": 22.0772727,
                "pitch": 73,
                "velocity": 51,
                "duration": 0.2340909,
                "tempo": 120.0
            },
            {
                "start_time": 22.1113636,
                "end_time": 22.2113636,
                "pitch": 73,
                "velocity": 51,
                "duration": 0.1,
                "tempo": 120.0
            },
            {
                "start_time": 22.2431818,
                "end_time": 22.3454545,
                "pitch": 73,
                "velocity": 51,
                "duration": 0.1022727,
                "tempo": 120.0
            },
            {
                "start_time": 22.3772727,
                "end_time": 22.4772727,
                "pitch": 73,
                "velocity": 51,
                "duration": 0.1,
                "tempo": 120.0
            },
            {
                "start_time": 22.5113636,
                "end_time": 23.5568182,
                "pitch": 73,
                "velocity": 51,
                "duration": 1.0454545,
                "tempo": 120.0
            },
            {
                "start_time": 23.5909091,
                "end_time": 23.9568182,
                "pitch": 76,
                "velocity": 51,
                "duration": 0.3659091,
                "tempo": 120.0
            },
            {
                "start_time": 23.9909091,
                "end_time": 24.2272727,
                "pitch": 76,
                "velocity": 51,
                "duration": 0.2363636,
                "tempo": 120.0
            },
            {
                "start_time": 24.2613636,
                "end_time": 24.3636364,
                "pitch": 76,
                "velocity": 51,
                "duration": 0.1022727,
                "tempo": 120.0
            },
            {
                "start_time": 24.3977273,
                "end_time": 24.5,
                "pitch": 76,
                "velocity": 51,
                "duration": 0.1022727,
                "tempo": 120.0
            },
            {
                "start_time": 24.5340909,
                "end_time": 24.6340909,
                "pitch": 76,
                "velocity": 51,
                "duration": 0.1,
                "tempo": 120.0
            },
            {
                "start_time": 24.6681818,
                "end_time": 25.1681818,
                "pitch": 76,
                "velocity": 51,
                "duration": 0.5,
                "tempo": 120.0
            },
            {
                "start_time": 25.2022727,
                "end_time": 25.7045455,
                "pitch": 77,
                "velocity": 51,
                "duration": 0.5022727,
                "tempo": 120.0
            },
            {
                "start_time": 25.7386364,
                "end_time": 26.1136364,
                "pitch": 75,
                "velocity": 51,
                "duration": 0.375,
                "tempo": 120.0
            },
            {
                "start_time": 26.1477273,
                "end_time": 26.3818182,
                "pitch": 75,
                "velocity": 51,
                "duration": 0.2340909,
                "tempo": 120.0
            },
            {
                "start_time": 26.4136364,
                "end_time": 26.5136364,
                "pitch": 75,
                "velocity": 51,
                "duration": 0.1,
                "tempo": 120.0
            },
            {
                "start_time": 26.5477273,
                "end_time": 26.6477273,
                "pitch": 75,
                "velocity": 51,
                "duration": 0.1,
                "tempo": 120.0
            },
            {
                "start_time": 26.6818182,
                "end_time": 26.7818182,
                "pitch": 75,
                "velocity": 51,
                "duration": 0.1,
                "tempo": 120.0
            },
            {
                "start_time": 26.8159091,
                "end_time": 27.8590909,
                "pitch": 75,
                "velocity": 51,
                "duration": 1.0431818,
                "tempo": 120.0
            },
            {
                "start_time": 27.8931818,
                "end_time": 28.2613636,
                "pitch": 73,
                "velocity": 51,
                "duration": 0.3681818,
                "tempo": 120.0
            },
            {
                "start_time": 28.2954545,
                "end_time": 28.5318182,
                "pitch": 73,
                "velocity": 51,
                "duration": 0.2363636,
                "tempo": 120.0
            },
            {
                "start_time": 28.5659091,
                "end_time": 28.6681818,
                "pitch": 73,
                "velocity": 51,
                "duration": 0.1022727,
                "tempo": 120.0
            },
            {
                "start_time": 28.7022727,
                "end_time": 28.8045455,
                "pitch": 73,
                "velocity": 51,
                "duration": 0.1022727,
                "tempo": 120.0
            },
            {
                "start_time": 28.8386364,
                "end_time": 28.9386364,
                "pitch": 73,
                "velocity": 51,
                "duration": 0.1,
                "tempo": 120.0
            },
            {
                "start_time": 28.9727273,
                "end_time": 30.0068182,
                "pitch": 73,
                "velocity": 51,
                "duration": 1.0340909,
                "tempo": 120.0
            },
            {
                "start_time": 30.0409091,
                "end_time": 30.4090909,
                "pitch": 73,
                "velocity": 51,
                "duration": 0.3681818,
                "tempo": 120.0
            },
            {
                "start_time": 30.4409091,
                "end_time": 30.6795455,
                "pitch": 73,
                "velocity": 51,
                "duration": 0.2386364,
                "tempo": 120.0
            },
            {
                "start_time": 30.7136364,
                "end_time": 30.8136364,
                "pitch": 73,
                "velocity": 51,
                "duration": 0.1,
                "tempo": 120.0
            },
            {
                "start_time": 30.8477273,
                "end_time": 30.95,
                "pitch": 73,
                "velocity": 51,
                "duration": 0.1022727,
                "tempo": 120.0
            },
            {
                "start_time": 30.9840909,
                "end_time": 31.0863636,
                "pitch": 73,
                "velocity": 51,
                "duration": 0.1022727,
                "tempo": 120.0
            },
            {
                "start_time": 31.1181818,
                "end_time": 32.1545455,
                "pitch": 73,
                "velocity": 51,
                "duration": 1.0363636,
                "tempo": 120.0
            },
            {
                "start_time": 32.1886364,
                "end_time": 32.5636364,
                "pitch": 76,
                "velocity": 51,
                "duration": 0.375,
                "tempo": 120.0
            },
            {
                "start_time": 32.5977273,
                "end_time": 32.8318182,
                "pitch": 76,
                "velocity": 51,
                "duration": 0.2340909,
                "tempo": 120.0
            },
            {
                "start_time": 32.8659091,
                "end_time": 32.9659091,
                "pitch": 76,
                "velocity": 51,
                "duration": 0.1,
                "tempo": 120.0
            },
            {
                "start_time": 32.9977273,
                "end_time": 33.1,
                "pitch": 76,
                "velocity": 51,
                "duration": 0.1022727,
                "tempo": 120.0
            },
            {
                "start_time": 33.1318182,
                "end_time": 33.2318182,
                "pitch": 76,
                "velocity": 51,
                "duration": 0.1,
                "tempo": 120.0
            },
            {
                "start_time": 33.2659091,
                "end_time": 33.7681818,
                "pitch": 76,
                "velocity": 51,
                "duration": 0.5022727,
                "tempo": 120.0
            },
            {
                "start_time": 33.8022727,
                "end_time": 34.3113636,
                "pitch": 77,
                "velocity": 51,
                "duration": 0.5090909,
                "tempo": 120.0
            },
            {
                "start_time": 34.3454545,
                "end_time": 34.5772727,
                "pitch": 66,
                "velocity": 51,
                "duration": 0.2318182,
                "tempo": 120.0
            },
            {
                "start_time": 34.6113636,
                "end_time": 34.8454545,
                "pitch": 72,
                "velocity": 51,
                "duration": 0.2340909,
                "tempo": 120.0
            },
            {
                "start_time": 34.8795455,
                "end_time": 34.9795455,
                "pitch": 73,
                "velocity": 51,
                "duration": 0.1,
                "tempo": 120.0
            },
            {
                "start_time": 35.0113636,
                "end_time": 35.2454545,
                "pitch": 73,
                "velocity": 51,
                "duration": 0.2340909,
                "tempo": 120.0
            },
            {
                "start_time": 35.2795455,
                "end_time": 35.5159091,
                "pitch": 73,
                "velocity": 51,
                "duration": 0.2363636,
                "tempo": 120.0
            },
            {
                "start_time": 35.55,
                "end_time": 35.7886364,
                "pitch": 72,
                "velocity": 51,
                "duration": 0.2386364,
                "tempo": 120.0
            },
            {
                "start_time": 35.8227273,
                "end_time": 35.9227273,
                "pitch": 73,
                "velocity": 51,
                "duration": 0.1,
                "tempo": 120.0
            },
            {
                "start_time": 35.9568182,
                "end_time": 36.1909091,
                "pitch": 75,
                "velocity": 51,
                "duration": 0.2340909,
                "tempo": 120.0
            },
            {
                "start_time": 36.225,
                "end_time": 36.4590909,
                "pitch": 73,
                "velocity": 51,
                "duration": 0.2340909,
                "tempo": 120.0
            },
            {
                "start_time": 36.4909091,
                "end_time": 36.8590909,
                "pitch": 72,
                "velocity": 51,
                "duration": 0.3681818,
                "tempo": 120.0
            },
            {
                "start_time": 36.8931818,
                "end_time": 37.8045455,
                "pitch": 68,
                "velocity": 51,
                "duration": 0.9113636,
                "tempo": 120.0
            },
            {
                "start_time": 37.8363636,
                "end_time": 38.0727273,
                "pitch": 66,
                "velocity": 51,
                "duration": 0.2363636,
                "tempo": 120.0
            },
            {
                "start_time": 38.1068182,
                "end_time": 38.2068182,
                "pitch": 66,
                "velocity": 51,
                "duration": 0.1,
                "tempo": 120.0
            },
            {
                "start_time": 38.2409091,
                "end_time": 38.6136364,
                "pitch": 68,
                "velocity": 51,
                "duration": 0.3727273,
                "tempo": 120.0
            },
            {
                "start_time": 38.6454545,
                "end_time": 38.875,
                "pitch": 66,
                "velocity": 51,
                "duration": 0.2295455,
                "tempo": 120.0
            },
            {
                "start_time": 38.9090909,
                "end_time": 39.1409091,
                "pitch": 72,
                "velocity": 51,
                "duration": 0.2318182,
                "tempo": 120.0
            },
            {
                "start_time": 39.175,
                "end_time": 39.2772727,
                "pitch": 73,
                "velocity": 51,
                "duration": 0.1022727,
                "tempo": 120.0
            },
            {
                "start_time": 39.3113636,
                "end_time": 39.5477273,
                "pitch": 73,
                "velocity": 51,
                "duration": 0.2363636,
                "tempo": 120.0
            },
            {
                "start_time": 39.5818182,
                "end_time": 39.8181818,
                "pitch": 73,
                "velocity": 51,
                "duration": 0.2363636,
                "tempo": 120.0
            },
            {
                "start_time": 39.85,
                "end_time": 40.0840909,
                "pitch": 72,
                "velocity": 51,
                "duration": 0.2340909,
                "tempo": 120.0
            },
            {
                "start_time": 40.1181818,
                "end_time": 40.2181818,
                "pitch": 73,
                "velocity": 51,
                "duration": 0.1,
                "tempo": 120.0
            },
            {
                "start_time": 40.2522727,
                "end_time": 40.4909091,
                "pitch": 75,
                "velocity": 51,
                "duration": 0.2386364,
                "tempo": 120.0
            },
            {
                "start_time": 40.525,
                "end_time": 40.7613636,
                "pitch": 73,
                "velocity": 51,
                "duration": 0.2363636,
                "tempo": 120.0
            },
            {
                "start_time": 40.7954545,
                "end_time": 41.1636364,
                "pitch": 72,
                "velocity": 51,
                "duration": 0.3681818,
                "tempo": 120.0
            },
            {
                "start_time": 41.1954545,
                "end_time": 42.1045455,
                "pitch": 68,
                "velocity": 51,
                "duration": 0.9090909,
                "tempo": 120.0
            },
            {
                "start_time": 42.1386364,
                "end_time": 42.375,
                "pitch": 66,
                "velocity": 51,
                "duration": 0.2363636,
                "tempo": 120.0
            },
            {
                "start_time": 42.4068182,
                "end_time": 42.5090909,
                "pitch": 66,
                "velocity": 51,
                "duration": 0.1022727,
                "tempo": 120.0
            },
            {
                "start_time": 42.5409091,
                "end_time": 42.9090909,
                "pitch": 68,
                "velocity": 51,
                "duration": 0.3681818,
                "tempo": 120.0
            },
            {
                "start_time": 42.9431818,
                "end_time": 43.175,
                "pitch": 75,
                "velocity": 51,
                "duration": 0.2318182,
                "tempo": 120.0
            },
            {
                "start_time": 43.2090909,
                "end_time": 43.4454545,
                "pitch": 80,
                "velocity": 51,
                "duration": 0.2363636,
                "tempo": 120.0
            },
            {
                "start_time": 43.4795455,
                "end_time": 43.7159091,
                "pitch": 75,
                "velocity": 51,
                "duration": 0.2363636,
                "tempo": 120.0
            },
            {
                "start_time": 43.75,
                "end_time": 44.2545455,
                "pitch": 73,
                "velocity": 51,
                "duration": 0.5045455,
                "tempo": 120.0
            },
            {
                "start_time": 44.2886364,
                "end_time": 44.7886364,
                "pitch": 72,
                "velocity": 51,
                "duration": 0.5,
                "tempo": 120.0
            },
            {
                "start_time": 44.8227273,
                "end_time": 45.0568182,
                "pitch": 66,
                "velocity": 51,
                "duration": 0.2340909,
                "tempo": 120.0
            },
            {
                "start_time": 45.0909091,
                "end_time": 45.6,
                "pitch": 68,
                "velocity": 51,
                "duration": 0.5090909,
                "tempo": 120.0
            },
            {
                "start_time": 45.6340909,
                "end_time": 46.1340909,
                "pitch": 72,
                "velocity": 51,
                "duration": 0.5,
                "tempo": 120.0
            },
            {
                "start_time": 46.1681818,
                "end_time": 46.6704545,
                "pitch": 73,
                "velocity": 51,
                "duration": 0.5022727,
                "tempo": 120.0
            },
            {
                "start_time": 46.7045455,
                "end_time": 47.2136364,
                "pitch": 75,
                "velocity": 51,
                "duration": 0.5090909,
                "tempo": 120.0
            },
            {
                "start_time": 47.2454545,
                "end_time": 47.4795455,
                "pitch": 75,
                "velocity": 51,
                "duration": 0.2340909,
                "tempo": 120.0
            },
            {
                "start_time": 47.5136364,
                "end_time": 47.7477273,
                "pitch": 80,
                "velocity": 51,
                "duration": 0.2340909,
                "tempo": 120.0
            },
            {
                "start_time": 47.7795455,
                "end_time": 48.0136364,
                "pitch": 75,
                "velocity": 51,
                "duration": 0.2340909,
                "tempo": 120.0
            },
            {
                "start_time": 48.0477273,
                "end_time": 48.5477273,
                "pitch": 73,
                "velocity": 51,
                "duration": 0.5,
                "tempo": 120.0
            },
            {
                "start_time": 48.5818182,
                "end_time": 49.0886364,
                "pitch": 72,
                "velocity": 51,
                "duration": 0.5068182,
                "tempo": 120.0
            },
            {
                "start_time": 49.1227273,
                "end_time": 49.3590909,
                "pitch": 66,
                "velocity": 51,
                "duration": 0.2363636,
                "tempo": 120.0
            },
            {
                "start_time": 49.3931818,
                "end_time": 49.8954545,
                "pitch": 68,
                "velocity": 51,
                "duration": 0.5022727,
                "tempo": 120.0
            },
            {
                "start_time": 49.9295455,
                "end_time": 50.4386364,
                "pitch": 72,
                "velocity": 51,
                "duration": 0.5090909,
                "tempo": 120.0
            },
            {
                "start_time": 50.4704545,
                "end_time": 50.9727273,
                "pitch": 73,
                "velocity": 51,
                "duration": 0.5022727,
                "tempo": 120.0
            },
            {
                "start_time": 51.0068182,
                "end_time": 51.6272727,
                "pitch": 75,
                "velocity": 51,
                "duration": 0.6204545,
                "tempo": 120.0
            },
            {
                "start_time": 51.6704545,
                "end_time": 51.9636364,
                "pitch": 88,
                "velocity": 51,
                "duration": 0.2931818,
                "tempo": 120.0
            },
            {
                "start_time": 52.0068182,
                "end_time": 52.1340909,
                "pitch": 87,
                "velocity": 51,
                "duration": 0.1272727,
                "tempo": 120.0
            },
            {
                "start_time": 52.1772727,
                "end_time": 52.3045455,
                "pitch": 85,
                "velocity": 51,
                "duration": 0.1272727,
                "tempo": 120.0
            },
            {
                "start_time": 52.3454545,
                "end_time": 53.6613636,
                "pitch": 79,
                "velocity": 51,
                "duration": 1.3159091,
                "tempo": 120.0
            },
            {
                "start_time": 53.7022727,
                "end_time": 53.8295455,
                "pitch": 76,
                "velocity": 51,
                "duration": 0.1272727,
                "tempo": 120.0
            },
            {
                "start_time": 53.8727273,
                "end_time": 54.1704545,
                "pitch": 80,
                "velocity": 51,
                "duration": 0.2977273,
                "tempo": 120.0
            },
            {
                "start_time": 54.2113636,
                "end_time": 56.1204545,
                "pitch": 82,
                "velocity": 51,
                "duration": 1.9090909,
                "tempo": 120.0
            },
            {
                "start_time": 56.1795455,
                "end_time": 56.5909091,
                "pitch": 85,
                "velocity": 51,
                "duration": 0.4113636,
                "tempo": 120.0
            },
            {
                "start_time": 56.65,
                "end_time": 56.8272727,
                "pitch": 82,
                "velocity": 51,
                "duration": 0.1772727,
                "tempo": 120.0
            },
            {
                "start_time": 56.8863636,
                "end_time": 57.0636364,
                "pitch": 85,
                "velocity": 51,
                "duration": 0.1772727,
                "tempo": 120.0
            },
            {
                "start_time": 57.1227273,
                "end_time": 57.3,
                "pitch": 85,
                "velocity": 51,
                "duration": 0.1772727,
                "tempo": 120.0
            },
            {
                "start_time": 57.3590909,
                "end_time": 57.7704545,
                "pitch": 82,
                "velocity": 51,
                "duration": 0.4113636,
                "tempo": 120.0
            },
            {
                "start_time": 57.8295455,
                "end_time": 58.2431818,
                "pitch": 88,
                "velocity": 51,
                "duration": 0.4136364,
                "tempo": 120.0
            },
            {
                "start_time": 58.3022727,
                "end_time": 58.4795455,
                "pitch": 87,
                "velocity": 51,
                "duration": 0.1772727,
                "tempo": 120.0
            },
            {
                "start_time": 58.5363636,
                "end_time": 58.7136364,
                "pitch": 85,
                "velocity": 51,
                "duration": 0.1772727,
                "tempo": 120.0
            },
            {
                "start_time": 58.7727273,
                "end_time": 60.6022727,
                "pitch": 79,
                "velocity": 51,
                "duration": 1.8295455,
                "tempo": 120.0
            },
            {
                "start_time": 60.6613636,
                "end_time": 60.8363636,
                "pitch": 76,
                "velocity": 51,
                "duration": 0.175,
                "tempo": 120.0
            },
            {
                "start_time": 60.8954545,
                "end_time": 61.3136364,
                "pitch": 80,
                "velocity": 51,
                "duration": 0.4181818,
                "tempo": 120.0
            },
            {
                "start_time": 61.375,
                "end_time": 63.6931818,
                "pitch": 82,
                "velocity": 51,
                "duration": 2.3181818,
                "tempo": 120.0
            },
            {
                "start_time": 63.7522727,
                "end_time": 64.1659091,
                "pitch": 85,
                "velocity": 51,
                "duration": 0.4136364,
                "tempo": 120.0
            },
            {
                "start_time": 64.225,
                "end_time": 64.4022727,
                "pitch": 82,
                "velocity": 51,
                "duration": 0.1772727,
                "tempo": 120.0
            },
            {
                "start_time": 64.4636364,
                "end_time": 64.6431818,
                "pitch": 85,
                "velocity": 51,
                "duration": 0.1795455,
                "tempo": 120.0
            },
            {
                "start_time": 64.7022727,
                "end_time": 64.8818182,
                "pitch": 85,
                "velocity": 51,
                "duration": 0.1795455,
                "tempo": 120.0
            },
            {
                "start_time": 64.9431818,
                "end_time": 65.3613636,
                "pitch": 82,
                "velocity": 51,
                "duration": 0.4181818,
                "tempo": 120.0
            },
            {
                "start_time": 65.4227273,
                "end_time": 65.8409091,
                "pitch": 88,
                "velocity": 51,
                "duration": 0.4181818,
                "tempo": 120.0
            },
            {
                "start_time": 65.9,
                "end_time": 66.0795455,
                "pitch": 87,
                "velocity": 51,
                "duration": 0.1795455,
                "tempo": 120.0
            },
            {
                "start_time": 66.1386364,
                "end_time": 66.3136364,
                "pitch": 85,
                "velocity": 51,
                "duration": 0.175,
                "tempo": 120.0
            },
            {
                "start_time": 66.3727273,
                "end_time": 68.2340909,
                "pitch": 79,
                "velocity": 51,
                "duration": 1.8613636,
                "tempo": 120.0
            },
            {
                "start_time": 68.2977273,
                "end_time": 68.4863636,
                "pitch": 76,
                "velocity": 51,
                "duration": 0.1886364,
                "tempo": 120.0
            },
            {
                "start_time": 68.5477273,
                "end_time": 68.9886364,
                "pitch": 80,
                "velocity": 51,
                "duration": 0.4409091,
                "tempo": 120.0
            },
            {
                "start_time": 69.0522727,
                "end_time": 71.5272727,
                "pitch": 82,
                "velocity": 51,
                "duration": 2.475,
                "tempo": 120.0
            },
            {
                "start_time": 71.5863636,
                "end_time": 71.9977273,
                "pitch": 85,
                "velocity": 51,
                "duration": 0.4113636,
                "tempo": 120.0
            },
            {
                "start_time": 72.0568182,
                "end_time": 72.2340909,
                "pitch": 82,
                "velocity": 51,
                "duration": 0.1772727,
                "tempo": 120.0
            },
            {
                "start_time": 72.2931818,
                "end_time": 72.4704545,
                "pitch": 85,
                "velocity": 51,
                "duration": 0.1772727,
                "tempo": 120.0
            },
            {
                "start_time": 72.5295455,
                "end_time": 72.7068182,
                "pitch": 85,
                "velocity": 51,
                "duration": 0.1772727,
                "tempo": 120.0
            },
            {
                "start_time": 72.7659091,
                "end_time": 73.1795455,
                "pitch": 82,
                "velocity": 51,
                "duration": 0.4136364,
                "tempo": 120.0
            },
            {
                "start_time": 73.2386364,
                "end_time": 73.6590909,
                "pitch": 88,
                "velocity": 51,
                "duration": 0.4204545,
                "tempo": 120.0
            },
            {
                "start_time": 73.7181818,
                "end_time": 73.8977273,
                "pitch": 87,
                "velocity": 51,
                "duration": 0.1795455,
                "tempo": 120.0
            },
            {
                "start_time": 73.9590909,
                "end_time": 74.1386364,
                "pitch": 85,
                "velocity": 51,
                "duration": 0.1795455,
                "tempo": 120.0
            },
            {
                "start_time": 74.1977273,
                "end_time": 76.0340909,
                "pitch": 79,
                "velocity": 51,
                "duration": 1.8363636,
                "tempo": 120.0
            },
            {
                "start_time": 76.0931818,
                "end_time": 76.2704545,
                "pitch": 76,
                "velocity": 51,
                "duration": 0.1772727,
                "tempo": 120.0
            },
            {
                "start_time": 76.3295455,
                "end_time": 76.7477273,
                "pitch": 80,
                "velocity": 51,
                "duration": 0.4181818,
                "tempo": 120.0
            },
            {
                "start_time": 76.8068182,
                "end_time": 79.1272727,
                "pitch": 82,
                "velocity": 51,
                "duration": 2.3204545,
                "tempo": 120.0
            },
            {
                "start_time": 79.1863636,
                "end_time": 79.5818182,
                "pitch": 85,
                "velocity": 51,
                "duration": 0.3954545,
                "tempo": 120.0
            },
            {
                "start_time": 79.6318182,
                "end_time": 79.7840909,
                "pitch": 82,
                "velocity": 51,
                "duration": 0.1522727,
                "tempo": 120.0
            },
            {
                "start_time": 79.8340909,
                "end_time": 80.1863636,
                "pitch": 85,
                "velocity": 51,
                "duration": 0.3522727,
                "tempo": 120.0
            },
            {
                "start_time": 80.2363636,
                "end_time": 80.5704545,
                "pitch": 82,
                "velocity": 51,
                "duration": 0.3340909,
                "tempo": 120.0
            },
            {
                "start_time": 80.6136364,
                "end_time": 80.9068182,
                "pitch": 66,
                "velocity": 51,
                "duration": 0.2931818,
                "tempo": 120.0
            },
            {
                "start_time": 80.9477273,
                "end_time": 81.1772727,
                "pitch": 72,
                "velocity": 51,
                "duration": 0.2295455,
                "tempo": 120.0
            }
        ]
    }
}