{
    "mood": "angry",
    "instruments": {
        "Acoustic Bass": [
            {
                "start_time": 0.0,
                "end_time": 0.1772727,
                "pitch": 48,
                "velocity": 80,
                "duration": 0.1772727,
                "tempo": 120.0
            },
            {
                "start_time": 0.1909091,
                "end_time": 0.3727273,
                "pitch": 49,
                "velocity": 80,
                "duration": 0.1818182,
                "tempo": 120.0
            },
            {
                "start_time": 0.3863636,
                "end_time": 0.5977273,
                "pitch": 51,
                "velocity": 80,
                "duration": 0.2113636,
                "tempo": 120.0
            },
            {
                "start_time": 0.6318182,
                "end_time": 0.8431818,
                "pitch": 52,
                "velocity": 80,
                "duration": 0.2113636,
                "tempo": 120.0
            },
            {
                "start_time": 0.8613636,
                "end_time": 1.0772727,
                "pitch": 51,
                "velocity": 80,
                "duration": 0.2159091,
                "tempo": 120.0
            },
            {
                "start_time": 1.0931818,
                "end_time": 1.3272727,
                "pitch": 49,
                "velocity": 80,
                "duration": 0.2340909,
                "tempo": 120.0
            },
            {
                "start_time": 1.3431818,
                "end_time": 1.5613636,
                "pitch": 52,
                "velocity": 80,
                "duration": 0.2181818,
                "tempo": 120.0
            },
            {
                "start_time": 1.5772727,
                "end_time": 1.7931818,
                "pitch": 54,
                "velocity": 80,
                "duration": 0.2159091,
                "tempo": 120.0
            },
            {
                "start_time": 1.8272727,
                "end_time": 2.0431818,
                "pitch": 56,
                "velocity": 80,
                "duration": 0.2159091,
                "tempo": 120.0
            },
            {
                "start_time": 2.0613636,
                "end_time": 2.2772727,
                "pitch": 55,
                "velocity": 80,
                "duration": 0.2159091,
                "tempo": 120.0
            },
            {
                "start_time": 2.2931818,
                "end_time": 2.5227273,
                "pitch": 56,
                "velocity": 80,
                "duration": 0.2295455,
                "tempo": 120.0
            },
            {
                "start_time": 2.5386364,
                "end_time": 2.7522727,
                "pitch": 58,
                "velocity": 80,
                "duration": 0.2136364,
                "tempo": 120.0
            },
            {
                "start_time": 2.7704545,
                "end_time": 2.9909091,
                "pitch": 48,
                "velocity": 80,
                "duration": 0.2204545,
                "tempo": 120.0
            },
            {
                "start_time": 3.025,
                "end_time": 3.2477273,
                "pitch": 49,
                "velocity": 80,
                "duration": 0.2227273,
                "tempo": 120.0
            },
            {
                "start_time": 3.2636364,
                "end_time": 3.4818182,
                "pitch": 51,
                "velocity": 80,
                "duration": 0.2181818,
                "tempo": 120.0
            },
            {
                "start_time": 3.4977273,
                "end_time": 3.7318182,
                "pitch": 52,
                "velocity": 80,
                "duration": 0.2340909,
                "tempo": 120.0
            },
            {
                "start_time": 3.7477273,
                "end_time": 3.9636364,
                "pitch": 51,
                "velocity": 80,
                "duration": 0.2159091,
                "tempo": 120.0
            },
            {
                "start_time": 3.9818182,
                "end_time": 4.1977273,
                "pitch": 49,
                "velocity": 80,
                "duration": 0.2159091,
                "tempo": 120.0
            },
            {
                "start_time": 4.2318182,
                "end_time": 4.4522727,
                "pitch": 52,
                "velocity": 80,
                "duration": 0.2204545,
                "tempo": 120.0
            },
            {
                "start_time": 4.4704545,
                "end_time": 4.6909091,
                "pitch": 54,
                "velocity": 80,
                "duration": 0.2204545,
                "tempo": 120.0
            },
            {
                "start_time": 4.7090909,
                "end_time": 4.9386364,
                "pitch": 56,
                "velocity": 80,
                "duration": 0.2295455,
                "tempo": 120.0
            },
            {
                "start_time": 4.9545455,
                "end_time": 5.1681818,
                "pitch": 55,
                "velocity": 80,
                "duration": 0.2136364,
                "tempo": 120.0
            },
            {
                "start_time": 5.1840909,
                "end_time": 5.3977273,
                "pitch": 56,
                "velocity": 80,
                "duration": 0.2136364,
                "tempo": 120.0
            },
            {
                "start_time": 5.4318182,
                "end_time": 5.6431818,
                "pitch": 58,
                "velocity": 80,
                "duration": 0.2113636,
                "tempo": 120.0
            },
            {
                "start_time": 5.6613636,
                "end_time": 5.8795455,
                "pitch": 48,
                "velocity": 80,
                "duration": 0.2181818,
                "tempo": 120.0
            },
            {
                "start_time": 5.8954545,
                "end_time": 6.1318182,
                "pitch": 49,
                "velocity": 80,
                "duration": 0.2363636,
                "tempo": 120.0
            },
            {
                "start_time": 6.1477273,
                "end_time": 6.3704545,
                "pitch": 51,
                "velocity": 80,
                "duration": 0.2227273,
                "tempo": 120.0
            },
            {
                "start_time": 6.3863636,
                "end_time": 6.6090909,
                "pitch": 52,
                "velocity": 80,
                "duration": 0.2227273,
                "tempo": 120.0
            },
            {
                "start_time": 6.6431818,
                "end_time": 6.8659091,
                "pitch": 51,
                "velocity": 80,
                "duration": 0.2227273,
                "tempo": 120.0
            },
            {
                "start_time": 6.8818182,
                "end_time": 7.1045455,
                "pitch": 49,
                "velocity": 80,
                "duration": 0.2227273,
                "tempo": 120.0
            },
            {
                "start_time": 7.1204545,
                "end_time": 7.3454545,
                "pitch": 52,
                "velocity": 80,
                "duration": 0.225,
                "tempo": 120.0
            },
            {
                "start_time": 7.3613636,
                "end_time": 7.5704545,
                "pitch": 54,
                "velocity": 80,
                "duration": 0.2090909,
                "tempo": 120.0
            },
            {
                "start_time": 7.5863636,
                "end_time": 7.8045455,
                "pitch": 56,
                "velocity": 80,
                "duration": 0.2181818,
                "tempo": 120.0
            },
            {
                "start_time": 7.8386364,
                "end_time": 8.0568182,
                "pitch": 55,
                "velocity": 80,
                "duration": 0.2181818,
                "tempo": 120.0
            },
            {
                "start_time": 8.0727273,
                "end_time": 8.2954545,
                "pitch": 56,
                "velocity": 80,
                "duration": 0.2227273,
                "tempo": 120.0
            },
            {
                "start_time": 8.3113636,
                "end_time": 8.5522727,
                "pitch": 58,
                "velocity": 80,
                "duration": 0.2409091,
                "tempo": 120.0
            },
            {
                "start_time": 8.5681818,
                "end_time": 8.7909091,
                "pitch": 48,
                "velocity": 80,
                "duration": 0.2227273,
                "tempo": 120.0
            },
            {
                "start_time": 8.8068182,
                "end_time": 9.0295455,
                "pitch": 49,
                "velocity": 80,
                "duration": 0.2227273,
                "tempo": 120.0
            },
            {
                "start_time": 9.0636364,
                "end_time": 9.2795455,
                "pitch": 51,
                "velocity": 80,
                "duration": 0.2159091,
                "tempo": 120.0
            },
            {
                "start_time": 9.2977273,
                "end_time": 9.5136364,
                "pitch": 52,
                "velocity": 80,
                "duration": 0.2159091,
                "tempo": 120.0
            },
            {
                "start_time": 9.5295455,
                "end_time": 9.7545455,
                "pitch": 51,
                "velocity": 80,
                "duration": 0.225,
                "tempo": 120.0
            },
            {
                "start_time": 9.7704545,
                "end_time": 9.9795455,
                "pitch": 49,
                "velocity": 80,
                "duration": 0.2090909,
                "tempo": 120.0
            },
            {
                "start_time": 9.9954545,
                "end_time": 10.2159091,
                "pitch": 52,
                "velocity": 80,
                "duration": 0.2204545,
                "tempo": 120.0
            },
            {
                "start_time": 10.25,
                "end_time": 10.4727273,
                "pitch": 54,
                "velocity": 80,
                "duration": 0.2227273,
                "tempo": 120.0
            },
            {
                "start_time": 10.4886364,
                "end_time": 10.7090909,
                "pitch": 56,
                "velocity": 80,
                "duration": 0.2204545,
                "tempo": 120.0
            },
            {
                "start_time": 10.725,
                "end_time": 10.9590909,
                "pitch": 55,
                "velocity": 80,
                "duration": 0.2340909,
                "tempo": 120.0
            },
            {
                "start_time": 10.9772727,
                "end_time": 11.1931818,
                "pitch": 56,
                "velocity": 80,
                "duration": 0.2159091,
                "tempo": 120.0
            },
            {
                "start_time": 11.2113636,
                "end_time": 11.4272727,
                "pitch": 58,
                "velocity": 80,
                "duration": 0.2159091,
                "tempo": 120.0
            },
            {
                "start_time": 11.4613636,
                "end_time": 11.7954545,
                "pitch": 49,
                "velocity": 80,
                "duration": 0.3340909,
                "tempo": 120.0
            },
            {
                "start_time": 11.8136364,
                "end_time": 11.9136364,
                "pitch": 49,
                "velocity": 80,
                "duration": 0.1,
                "tempo": 120.0
            },
            {
                "start_time": 11.9318182,
                "end_time": 12.1659091,
                "pitch": 49,
                "velocity": 80,
                "duration": 0.2340909,
                "tempo": 120.0
            },
            {
                "start_time": 12.1818182,
                "end_time": 12.4,
                "pitch": 47,
                "velocity": 80,
                "duration": 0.2181818,
                "tempo": 120.0
            },
            {
                "start_time": 12.4181818,
                "end_time": 12.6318182,
                "pitch": 55,
                "velocity": 80,
                "duration": 0.2136364,
                "tempo": 120.0
            },
            {
                "start_time": 12.6636364,
                "end_time": 12.8772727,
                "pitch": 56,
                "velocity": 80,
                "duration": 0.2136364,
                "tempo": 120.0
            },
            {
                "start_time": 12.8931818,
                "end_time": 13.2340909,
                "pitch": 49,
                "velocity": 80,
                "duration": 0.3409091,
                "tempo": 120.0
            },
            {
                "start_time": 13.2681818,
                "end_time": 13.3704545,
                "pitch": 49,
                "velocity": 80,
                "duration": 0.1022727,
                "tempo": 120.0
            },
            {
                "start_time": 13.3886364,
                "end_time": 13.6068182,
                "pitch": 49,
                "velocity": 80,
                "duration": 0.2181818,
                "tempo": 120.0
            },
            {
                "start_time": 13.6227273,
                "end_time": 13.8431818,
                "pitch": 47,
                "velocity": 80,
                "duration": 0.2204545,
                "tempo": 120.0
            },
            {
                "start_time": 13.875,
                "end_time": 14.0931818,
                "pitch": 55,
                "velocity": 80,
                "duration": 0.2181818,
                "tempo": 120.0
            },
            {
                "start_time": 14.1113636,
                "end_time": 14.3295455,
                "pitch": 56,
                "velocity": 80,
                "duration": 0.2181818,
                "tempo": 120.0
            },
            {
                "start_time": 14.3454545,
                "end_time": 14.6909091,
                "pitch": 49,
                "velocity": 80,
                "duration": 0.3454545,
                "tempo": 120.0
            },
            {
                "start_time": 14.7068182,
                "end_time": 14.8045455,
                "pitch": 49,
                "velocity": 80,
                "duration": 0.0977273,
                "tempo": 120.0
            },
            {
                "start_time": 14.8227273,
                "end_time": 15.0431818,
                "pitch": 49,
                "velocity": 80,
                "duration": 0.2204545,
                "tempo": 120.0
            },
            {
                "start_time": 15.0772727,
                "end_time": 15.3,
                "pitch": 47,
                "velocity": 80,
                "duration": 0.2227273,
                "tempo": 120.0
            },
            {
                "start_time": 15.3159091,
                "end_time": 15.5340909,
                "pitch": 55,
                "velocity": 80,
                "duration": 0.2181818,
                "tempo": 120.0
            },
            {
                "start_time": 15.5522727,
                "end_time": 15.7863636,
                "pitch": 56,
                "velocity": 80,
                "duration": 0.2340909,
                "tempo": 120.0
            },
            {
                "start_time": 15.8045455,
                "end_time": 16.1409091,
                "pitch": 49,
                "velocity": 80,
                "duration": 0.3363636,
                "tempo": 120.0
            },
            {
                "start_time": 16.1568182,
                "end_time": 16.2568182,
                "pitch": 49,
                "velocity": 80,
                "duration": 0.1,
                "tempo": 120.0
            },
            {
                "start_time": 16.2909091,
                "end_time": 16.5136364,
                "pitch": 49,
                "velocity": 80,
                "duration": 0.2227273,
                "tempo": 120.0
            },
            {
                "start_time": 16.5295455,
                "end_time": 16.7522727,
                "pitch": 47,
                "velocity": 80,
                "duration": 0.2227273,
                "tempo": 120.0
            },
            {
                "start_time": 16.7681818,
                "end_time": 16.9931818,
                "pitch": 55,
                "velocity": 80,
                "duration": 0.225,
                "tempo": 120.0
            },
            {
                "start_time": 17.0090909,
                "end_time": 17.2181818,
                "pitch": 56,
                "velocity": 80,
                "duration": 0.2090909,
                "tempo": 120.0
            },
            {
                "start_time": 17.2340909,
                "end_time": 17.5863636,
                "pitch": 51,
                "velocity": 80,
                "duration": 0.3522727,
                "tempo": 120.0
            },
            {
                "start_time": 17.6045455,
                "end_time": 17.7045455,
                "pitch": 51,
                "velocity": 80,
                "duration": 0.1,
                "tempo": 120.0
            },
            {
                "start_time": 17.7204545,
                "end_time": 17.9431818,
                "pitch": 51,
                "velocity": 80,
                "duration": 0.2227273,
                "tempo": 120.0
            },
            {
                "start_time": 17.9590909,
                "end_time": 18.2,
                "pitch": 49,
                "velocity": 80,
                "duration": 0.2409091,
                "tempo": 120.0
            },
            {
                "start_time": 18.2159091,
                "end_time": 18.4340909,
                "pitch": 57,
                "velocity": 80,
                "duration": 0.2181818,
                "tempo": 120.0
            },
            {
                "start_time": 18.4522727,
                "end_time": 18.6704545,
                "pitch": 58,
                "velocity": 80,
                "duration": 0.2181818,
                "tempo": 120.0
            },
            {
                "start_time": 18.7045455,
                "end_time": 19.0386364,
                "pitch": 51,
                "velocity": 80,
                "duration": 0.3340909,
                "tempo": 120.0
            },
            {
                "start_time": 19.0568182,
                "end_time": 19.1568182,
                "pitch": 51,
                "velocity": 80,
                "duration": 0.1,
                "tempo": 120.0
            },
            {
                "start_time": 19.1727273,
                "end_time": 19.4090909,
                "pitch": 51,
                "velocity": 80,
                "duration": 0.2363636,
                "tempo": 120.0
            },
            {
                "start_time": 19.425,
                "end_time": 19.6431818,
                "pitch": 49,
                "velocity": 80,
                "duration": 0.2181818,
                "tempo": 120.0
            },
            {
                "start_time": 19.6613636,
                "end_time": 19.8795455,
                "pitch": 57,
                "velocity": 80,
                "duration": 0.2181818,
                "tempo": 120.0
            },
            {
                "start_time": 19.9136364,
                "end_time": 20.1318182,
                "pitch": 58,
                "velocity": 80,
                "duration": 0.2181818,
                "tempo": 120.0
            },
            {
                "start_time": 20.1477273,
                "end_time": 20.475,
                "pitch": 51,
                "velocity": 80,
                "duration": 0.3272727,
                "tempo": 120.0
            },
            {
                "start_time": 20.5090909,
                "end_time": 20.6068182,
                "pitch": 51,
                "velocity": 80,
                "duration": 0.0977273,
                "tempo": 120.0
            },
            {
                "start_time": 20.6227273,
                "end_time": 20.8454545,
                "pitch": 51,
                "velocity": 80,
                "duration": 0.2227273,
                "tempo": 120.0
            },
            {
                "start_time": 20.8636364,
                "end_time": 21.0840909,
                "pitch": 49,
                "velocity": 80,
                "duration": 0.2204545,
                "tempo": 120.0
            },
            {
                "start_time": 21.1181818,
                "end_time": 21.3363636,
                "pitch": 57,
                "velocity": 80,
                "duration": 0.2181818,
                "tempo": 120.0
            },
            {
                "start_time": 21.3545455,
                "end_time": 21.5727273,
                "pitch": 58,
                "velocity": 80,
                "duration": 0.2181818,
                "tempo": 120.0
            },
            {
                "start_time": 21.5886364,
                "end_time": 21.9340909,
                "pitch": 51,
                "velocity": 80,
                "duration": 0.3454545,
                "tempo": 120.0
            },
            {
                "start_time": 21.95,
                "end_time": 22.0477273,
                "pitch": 51,
                "velocity": 80,
                "duration": 0.0977273,
                "tempo": 120.0
            },
            {
                "start_time": 22.0659091,
                "end_time": 22.2840909,
                "pitch": 51,
                "velocity": 80,
                "duration": 0.2181818,
                "tempo": 120.0
            },
            {
                "start_time": 22.3159091,
                "end_time": 22.5363636,
                "pitch": 49,
                "velocity": 80,
                "duration": 0.2204545,
                "tempo": 120.0
            },
            {
                "start_time": 22.5522727,
                "end_time": 22.775,
                "pitch": 57,
                "velocity": 80,
                "duration": 0.2227273,
                "tempo": 120.0
            },
            {
                "start_time": 22.7909091,
                "end_time": 23.0295455,
                "pitch": 58,
                "velocity": 80,
                "duration": 0.2386364,
                "tempo": 120.0
            },
            {
                "start_time": 23.0477273,
                "end_time": 23.3840909,
                "pitch": 49,
                "velocity": 80,
                "duration": 0.3363636,
                "tempo": 120.0
            },
            {
                "start_time": 23.4,
                "end_time": 23.5,
                "pitch": 49,
                "velocity": 80,
                "duration": 0.1,
                "tempo": 120.0
            },
            {
                "start_time": 23.5340909,
                "end_time": 23.7568182,
                "pitch": 49,
                "velocity": 80,
                "duration": 0.2227273,
                "tempo": 120.0
            },
            {
                "start_time": 23.7727273,
                "end_time": 23.9954545,
                "pitch": 47,
                "velocity": 80,
                "duration": 0.2227273,
                "tempo": 120.0
            },
            {
                "start_time": 24.0113636,
                "end_time": 24.2363636,
                "pitch": 55,
                "velocity": 80,
                "duration": 0.225,
                "tempo": 120.0
            },
            {
                "start_time": 24.2522727,
                "end_time": 24.4613636,
                "pitch": 56,
                "velocity": 80,
                "duration": 0.2090909,
                "tempo": 120.0
            },
            {
                "start_time": 24.4772727,
                "end_time": 24.8295455,
                "pitch": 49,
                "velocity": 80,
                "duration": 0.3522727,
                "tempo": 120.0
            },
            {
                "start_time": 24.8477273,
                "end_time": 24.9477273,
                "pitch": 49,
                "velocity": 80,
                "duration": 0.1,
                "tempo": 120.0
            },
            {
                "start_time": 24.9636364,
                "end_time": 25.1863636,
                "pitch": 49,
                "velocity": 80,
                "duration": 0.2227273,
                "tempo": 120.0
            },
            {
                "start_time": 25.2045455,
                "end_time": 25.4431818,
                "pitch": 47,
                "velocity": 80,
                "duration": 0.2386364,
                "tempo": 120.0
            },
            {
                "start_time": 25.4590909,
                "end_time": 25.6772727,
                "pitch": 55,
                "velocity": 80,
                "duration": 0.2181818,
                "tempo": 120.0
            },
            {
                "start_time": 25.6954545,
                "end_time": 25.9136364,
                "pitch": 56,
                "velocity": 80,
                "duration": 0.2181818,
                "tempo": 120.0
            },
            {
                "start_time": 25.9477273,
                "end_time": 26.2818182,
                "pitch": 49,
                "velocity": 80,
                "duration": 0.3340909,
                "tempo": 120.0
            },
            {
                "start_time": 26.3,
                "end_time": 26.4,
                "pitch": 49,
                "velocity": 80,
                "duration": 0.1,
                "tempo": 120.0
            },
            {
                "start_time": 26.4181818,
                "end_time": 26.6522727,
                "pitch": 49,
                "velocity": 80,
                "duration": 0.2340909,
                "tempo": 120.0
            },
            {
                "start_time": 26.6681818,
                "end_time": 26.8886364,
                "pitch": 47,
                "velocity": 80,
                "duration": 0.2204545,
                "tempo": 120.0
            },
            {
                "start_time": 26.9045455,
                "end_time": 27.1181818,
                "pitch": 55,
                "velocity": 80,
                "duration": 0.2136364,
                "tempo": 120.0
            },
            {
                "start_time": 27.15,
                "end_time": 27.3636364,
                "pitch": 56,
                "velocity": 80,
                "duration": 0.2136364,
                "tempo": 120.0
            },
            {
                "start_time": 27.3795455,
                "end_time": 27.7159091,
                "pitch": 49,
                "velocity": 80,
                "duration": 0.3363636,
                "tempo": 120.0
            },
            {
                "start_time": 27.75,
                "end_time": 27.85,
                "pitch": 49,
                "velocity": 80,
                "duration": 0.1,
                "tempo": 120.0
            },
            {
                "start_time": 27.8681818,
                "end_time": 28.0886364,
                "pitch": 49,
                "velocity": 80,
                "duration": 0.2204545,
                "tempo": 120.0
            },
            {
                "start_time": 28.1068182,
                "end_time": 28.3272727,
                "pitch": 47,
                "velocity": 80,
                "duration": 0.2204545,
                "tempo": 120.0
            },
            {
                "start_time": 28.3613636,
                "end_time": 28.5818182,
                "pitch": 55,
                "velocity": 80,
                "duration": 0.2204545,
                "tempo": 120.0
            },
            {
                "start_time": 28.5977273,
                "end_time": 28.8159091,
                "pitch": 56,
                "velocity": 80,
                "duration": 0.2181818,
                "tempo": 120.0
            },
            {
                "start_time": 28.8318182,
                "end_time": 29.1772727,
                "pitch": 51,
                "velocity": 80,
                "duration": 0.3454545,
                "tempo": 120.0
            },
            {
                "start_time": 29.1931818,
                "end_time": 29.2931818,
                "pitch": 51,
                "velocity": 80,
                "duration": 0.1,
                "tempo": 120.0
            },
            {
                "start_time": 29.3090909,
                "end_time": 29.5295455,
                "pitch": 51,
                "velocity": 80,
                "duration": 0.2204545,
                "tempo": 120.0
            },
            {
                "start_time": 29.5636364,
                "end_time": 29.7863636,
                "pitch": 49,
                "velocity": 80,
                "duration": 0.2227273,
                "tempo": 120.0
            },
            {
                "start_time": 29.8022727,
                "end_time": 30.0227273,
                "pitch": 57,
                "velocity": 80,
                "duration": 0.2204545,
                "tempo": 120.0
            },
            {
                "start_time": 30.0386364,
                "end_time": 30.2727273,
                "pitch": 58,
                "velocity": 80,
                "duration": 0.2340909,
                "tempo": 120.0
            },
            {
                "start_time": 30.2909091,
                "end_time": 30.6272727,
                "pitch": 51,
                "velocity": 80,
                "duration": 0.3363636,
                "tempo": 120.0
            },
            {
                "start_time": 30.6431818,
                "end_time": 30.7431818,
                "pitch": 51,
                "velocity": 80,
                "duration": 0.1,
                "tempo": 120.0
            },
            {
                "start_time": 30.7772727,
                "end_time": 31.0,
                "pitch": 51,
                "velocity": 80,
                "duration": 0.2227273,
                "tempo": 120.0
            },
            {
                "start_time": 31.0159091,
                "end_time": 31.2386364,
                "pitch": 49,
                "velocity": 80,
                "duration": 0.2227273,
                "tempo": 120.0
            },
            {
                "start_time": 31.2568182,
                "end_time": 31.4795455,
                "pitch": 57,
                "velocity": 80,
                "duration": 0.2227273,
                "tempo": 120.0
            },
            {
                "start_time": 31.4954545,
                "end_time": 31.7045455,
                "pitch": 58,
                "velocity": 80,
                "duration": 0.2090909,
                "tempo": 120.0
            },
            {
                "start_time": 31.7204545,
                "end_time": 32.0727273,
                "pitch": 51,
                "velocity": 80,
                "duration": 0.3522727,
                "tempo": 120.0
            },
            {
                "start_time": 32.0909091,
                "end_time": 32.1909091,
                "pitch": 51,
                "velocity": 80,
                "duration": 0.1,
                "tempo": 120.0
            },
            {
                "start_time": 32.2068182,
                "end_time": 32.4295455,
                "pitch": 51,
                "velocity": 80,
                "duration": 0.2227273,
                "tempo": 120.0
            },
            {
                "start_time": 32.4477273,
                "end_time": 32.6863636,
                "pitch": 49,
                "velocity": 80,
                "duration": 0.2386364,
                "tempo": 120.0
            },
            {
                "start_time": 32.7022727,
                "end_time": 32.9204545,
                "pitch": 57,
                "velocity": 80,
                "duration": 0.2181818,
                "tempo": 120.0
            },
            {
                "start_time": 32.9386364,
                "end_time": 33.1568182,
                "pitch": 58,
                "velocity": 80,
                "duration": 0.2181818,
                "tempo": 120.0
            },
            {
                "start_time": 33.1909091,
                "end_time": 33.5227273,
                "pitch": 51,
                "velocity": 80,
                "duration": 0.3318182,
                "tempo": 120.0
            },
            {
                "start_time": 33.5409091,
                "end_time": 33.6409091,
                "pitch": 51,
                "velocity": 80,
                "duration": 0.1,
                "tempo": 120.0
            },
            {
                "start_time": 33.6568182,
                "end_time": 33.8863636,
                "pitch": 51,
                "velocity": 80,
                "duration": 0.2295455,
                "tempo": 120.0
            },
            {
                "start_time": 33.9022727,
                "end_time": 34.1159091,
                "pitch": 49,
                "velocity": 80,
                "duration": 0.2136364,
                "tempo": 120.0
            },
            {
                "start_time": 34.1318182,
                "end_time": 34.3545455,
                "pitch": 57,
                "velocity": 80,
                "duration": 0.2227273,
                "tempo": 120.0
            },
            {
                "start_time": 34.3886364,
                "end_time": 34.6090909,
                "pitch": 58,
                "velocity": 80,
                "duration": 0.2204545,
                "tempo": 120.0
            }
        ],
        "Trumpet": [
            {
                "start_time": 0.0,
                "end_time": 0.1772727,
                "pitch": 72,
                "velocity": 64,
                "duration": 0.1772727,
                "tempo": 120.0
            },
            {
                "start_time": 0.1909091,
                "end_time": 0.3727273,
                "pitch": 73,
                "velocity": 64,
                "duration": 0.1818182,
                "tempo": 120.0
            },
            {
                "start_time": 0.3863636,
                "end_time": 0.5977273,
                "pitch": 75,
                "velocity": 64,
                "duration": 0.2113636,
                "tempo": 120.0
            },
            {
                "start_time": 0.6318182,
                "end_time": 0.8431818,
                "pitch": 76,
                "velocity": 64,
                "duration": 0.2113636,
                "tempo": 120.0
            },
            {
                "start_time": 0.8613636,
                "end_time": 1.0772727,
                "pitch": 75,
                "velocity": 64,
                "duration": 0.2159091,
                "tempo": 120.0
            },
            {
                "start_time": 1.0931818,
                "end_time": 1.3272727,
                "pitch": 73,
                "velocity": 64,
                "duration": 0.2340909,
                "tempo": 120.0
            },
            {
                "start_time": 1.3431818,
                "end_time": 1.5613636,
                "pitch": 76,
                "velocity": 64,
                "duration": 0.2181818,
                "tempo": 120.0
            },
            {
                "start_time": 1.5772727,
                "end_time": 1.7931818,
                "pitch": 78,
                "velocity": 64,
                "duration": 0.2159091,
                "tempo": 120.0
            },
            {
                "start_time": 1.8272727,
                "end_time": 2.0431818,
                "pitch": 80,
                "velocity": 64,
                "duration": 0.2159091,
                "tempo": 120.0
            },
            {
                "start_time": 2.0613636,
                "end_time": 2.2772727,
                "pitch": 79,
                "velocity": 64,
                "duration": 0.2159091,
                "tempo": 120.0
            },
            {
                "start_time": 2.2931818,
                "end_time": 2.5227273,
                "pitch": 80,
                "velocity": 64,
                "duration": 0.2295455,
                "tempo": 120.0
            },
            {
                "start_time": 2.5386364,
                "end_time": 2.7522727,
                "pitch": 82,
                "velocity": 64,
                "duration": 0.2136364,
                "tempo": 120.0
            },
            {
                "start_time": 2.7704545,
                "end_time": 2.9909091,
                "pitch": 72,
                "velocity": 64,
                "duration": 0.2204545,
                "tempo": 120.0
            },
            {
                "start_time": 3.025,
                "end_time": 3.2477273,
                "pitch": 73,
                "velocity": 64,
                "duration": 0.2227273,
                "tempo": 120.0
            },
            {
                "start_time": 3.2636364,
                "end_time": 3.4818182,
                "pitch": 75,
                "velocity": 64,
                "duration": 0.2181818,
                "tempo": 120.0
            },
            {
                "start_time": 3.4977273,
                "end_time": 3.7318182,
                "pitch": 76,
                "velocity": 64,
                "duration": 0.2340909,
                "tempo": 120.0
            },
            {
                "start_time": 3.7477273,
                "end_time": 3.9636364,
                "pitch": 75,
                "velocity": 64,
                "duration": 0.2159091,
                "tempo": 120.0
            },
            {
                "start_time": 3.9818182,
                "end_time": 4.1977273,
                "pitch": 73,
                "velocity": 64,
                "duration": 0.2159091,
                "tempo": 120.0
            },
            {
                "start_time": 4.2318182,
                "end_time": 4.4522727,
                "pitch": 76,
                "velocity": 64,
                "duration": 0.2204545,
                "tempo": 120.0
            },
            {
                "start_time": 4.4704545,
                "end_time": 4.6909091,
                "pitch": 78,
                "velocity": 64,
                "duration": 0.2204545,
                "tempo": 120.0
            },
            {
                "start_time": 4.7090909,
                "end_time": 4.9386364,
                "pitch": 80,
                "velocity": 64,
                "duration": 0.2295455,
                "tempo": 120.0
            },
            {
                "start_time": 4.9545455,
                "end_time": 5.1681818,
                "pitch": 79,
                "velocity": 64,
                "duration": 0.2136364,
                "tempo": 120.0
            },
            {
                "start_time": 5.1840909,
                "end_time": 5.3977273,
                "pitch": 80,
                "velocity": 64,
                "duration": 0.2136364,
                "tempo": 120.0
            },
            {
                "start_time": 5.4318182,
                "end_time": 5.6431818,
                "pitch": 82,
                "velocity": 64,
                "duration": 0.2113636,
                "tempo": 120.0
            },
            {
                "start_time": 5.6613636,
                "end_time": 5.8795455,
                "pitch": 72,
                "velocity": 64,
                "duration": 0.2181818,
                "tempo": 120.0
            },
            {
                "start_time": 5.8954545,
                "end_time": 6.1318182,
                "pitch": 73,
                "velocity": 64,
                "duration": 0.2363636,
                "tempo": 120.0
            },
            {
                "start_time": 6.1477273,
                "end_time": 6.3704545,
                "pitch": 75,
                "velocity": 64,
                "duration": 0.2227273,
                "tempo": 120.0
            },
            {
                "start_time": 6.3863636,
                "end_time": 6.6090909,
                "pitch": 76,
                "velocity": 64,
                "duration": 0.2227273,
                "tempo": 120.0
            },
            {
                "start_time": 6.6431818,
                "end_time": 6.8659091,
                "pitch": 75,
                "velocity": 64,
                "duration": 0.2227273,
                "tempo": 120.0
            },
            {
                "start_time": 6.8818182,
                "end_time": 7.1045455,
                "pitch": 73,
                "velocity": 64,
                "duration": 0.2227273,
                "tempo": 120.0
            },
            {
                "start_time": 7.1204545,
                "end_time": 7.3454545,
                "pitch": 76,
                "velocity": 64,
                "duration": 0.225,
                "tempo": 120.0
            },
            {
                "start_time": 7.3613636,
                "end_time": 7.5704545,
                "pitch": 78,
                "velocity": 64,
                "duration": 0.2090909,
                "tempo": 120.0
            },
            {
                "start_time": 7.5863636,
                "end_time": 7.8045455,
                "pitch": 80,
                "velocity": 64,
                "duration": 0.2181818,
                "tempo": 120.0
            },
            {
                "start_time": 7.8386364,
                "end_time": 8.0568182,
                "pitch": 79,
                "velocity": 64,
                "duration": 0.2181818,
                "tempo": 120.0
            },
            {
                "start_time": 8.0727273,
                "end_time": 8.2954545,
                "pitch": 80,
                "velocity": 64,
                "duration": 0.2227273,
                "tempo": 120.0
            },
            {
                "start_time": 8.3113636,
                "end_time": 8.5522727,
                "pitch": 82,
                "velocity": 64,
                "duration": 0.2409091,
                "tempo": 120.0
            },
            {
                "start_time": 8.5681818,
                "end_time": 8.7909091,
                "pitch": 72,
                "velocity": 64,
                "duration": 0.2227273,
                "tempo": 120.0
            },
            {
                "start_time": 8.8068182,
                "end_time": 9.0295455,
                "pitch": 73,
                "velocity": 64,
                "duration": 0.2227273,
                "tempo": 120.0
            },
            {
                "start_time": 9.0636364,
                "end_time": 9.2795455,
                "pitch": 75,
                "velocity": 64,
                "duration": 0.2159091,
                "tempo": 120.0
            },
            {
                "start_time": 9.2977273,
                "end_time": 9.5136364,
                "pitch": 76,
                "velocity": 64,
                "duration": 0.2159091,
                "tempo": 120.0
            },
            {
                "start_time": 9.5295455,
                "end_time": 9.7545455,
                "pitch": 75,
                "velocity": 64,
                "duration": 0.225,
                "tempo": 120.0
            },
            {
                "start_time": 9.7704545,
                "end_time": 9.9795455,
                "pitch": 73,
                "velocity": 64,
                "duration": 0.2090909,
                "tempo": 120.0
            },
            {
                "start_time": 9.9954545,
                "end_time": 10.2159091,
                "pitch": 76,
                "velocity": 64,
                "duration": 0.2204545,
                "tempo": 120.0
            },
            {
                "start_time": 10.25,
                "end_time": 10.4727273,
                "pitch": 78,
                "velocity": 64,
                "duration": 0.2227273,
                "tempo": 120.0
            },
            {
                "start_time": 10.4886364,
                "end_time": 10.7090909,
                "pitch": 80,
                "velocity": 64,
                "duration": 0.2204545,
                "tempo": 120.0
            },
            {
                "start_time": 10.725,
                "end_time": 10.9590909,
                "pitch": 79,
                "velocity": 64,
                "duration": 0.2340909,
                "tempo": 120.0
            },
            {
                "start_time": 10.9772727,
                "end_time": 11.1931818,
                "pitch": 80,
                "velocity": 64,
                "duration": 0.2159091,
                "tempo": 120.0
            },
            {
                "start_time": 11.2113636,
                "end_time": 11.4272727,
                "pitch": 82,
                "velocity": 64,
                "duration": 0.2159091,
                "tempo": 120.0
            },
            {
                "start_time": 11.4613636,
                "end_time": 12.8772727,
                "pitch": 80,
                "velocity": 64,
                "duration": 1.4159091,
                "tempo": 120.0
            },
            {
                "start_time": 12.8931818,
                "end_time": 14.3295455,
                "pitch": 79,
                "velocity": 64,
                "duration": 1.4363636,
                "tempo": 120.0
            },
            {
                "start_time": 14.3454545,
                "end_time": 15.7863636,
                "pitch": 85,
                "velocity": 64,
                "duration": 1.4409091,
                "tempo": 120.0
            },
            {
                "start_time": 15.8045455,
                "end_time": 17.2181818,
                "pitch": 84,
                "velocity": 64,
                "duration": 1.4136364,
                "tempo": 120.0
            },
            {
                "start_time": 17.2340909,
                "end_time": 18.6704545,
                "pitch": 87,
                "velocity": 64,
                "duration": 1.4363636,
                "tempo": 120.0
            },
            {
                "start_time": 18.7045455,
                "end_time": 20.1318182,
                "pitch": 86,
                "velocity": 64,
                "duration": 1.4272727,
                "tempo": 120.0
            },
            {
                "start_time": 20.1477273,
                "end_time": 21.5727273,
                "pitch": 82,
                "velocity": 64,
                "duration": 1.425,
                "tempo": 120.0
            },
            {
                "start_time": 21.5886364,
                "end_time": 23.0295455,
                "pitch": 81,
                "velocity": 64,
                "duration": 1.4409091,
                "tempo": 120.0
            },
            {
                "start_time": 23.0477273,
                "end_time": 24.4613636,
                "pitch": 80,
                "velocity": 64,
                "duration": 1.4136364,
                "tempo": 120.0
            },
            {
                "start_time": 24.4772727,
                "end_time": 25.9136364,
                "pitch": 79,
                "velocity": 64,
                "duration": 1.4363636,
                "tempo": 120.0
            },
            {
                "start_time": 25.9477273,
                "end_time": 27.3636364,
                "pitch": 85,
                "velocity": 64,
                "duration": 1.4159091,
                "tempo": 120.0
            },
            {
                "start_time": 27.3795455,
                "end_time": 28.8159091,
                "pitch": 84,
                "velocity": 64,
                "duration": 1.4363636,
                "tempo": 120.0
            },
            {
                "start_time": 28.8318182,
                "end_time": 30.2727273,
                "pitch": 87,
                "velocity": 64,
                "duration": 1.4409091,
                "tempo": 120.0
            },
            {
                "start_time": 30.2909091,
                "end_time": 31.7045455,
                "pitch": 86,
                "velocity": 64,
                "duration": 1.4136364,
                "tempo": 120.0
            },
            {
                "start_time": 31.7204545,
                "end_time": 33.1568182,
                "pitch": 82,
                "velocity": 64,
                "duration": 1.4363636,
                "tempo": 120.0
            },
            {
                "start_time": 33.1909091,
                "end_time": 34.6090909,
                "pitch": 81,
                "velocity": 64,
                "duration": 1.4181818,
                "tempo": 120.0
            }
        ],
        "Church Organ": [
            {
                "start_time": 0.0,
                "end_time": 0.0386364,
                "pitch": 73,
                "velocity": 51,
                "duration": 0.0386364,
                "tempo": 120.0
            },
            {
                "start_time": 0.0522727,
                "end_time": 1.3931818,
                "pitch": 63,
                "velocity": 51,
                "duration": 1.3409091,
                "tempo": 120.0
            },
            {
                "start_time": 1.4272727,
                "end_time": 2.1272727,
                "pitch": 61,
                "velocity": 51,
                "duration": 0.7,
                "tempo": 120.0
            },
            {
                "start_time": 2.1431818,
                "end_time": 2.2431818,
                "pitch": 60,
                "velocity": 51,
                "duration": 0.1,
                "tempo": 120.0
            },
            {
                "start_time": 2.2613636,
                "end_time": 2.3590909,
                "pitch": 61,
                "velocity": 51,
                "duration": 0.0977273,
                "tempo": 120.0
            },
            {
                "start_time": 2.375,
                "end_time": 2.475,
                "pitch": 63,
                "velocity": 51,
                "duration": 0.1,
                "tempo": 120.0
            },
            {
                "start_time": 2.4909091,
                "end_time": 2.5886364,
                "pitch": 64,
                "velocity": 51,
                "duration": 0.0977273,
                "tempo": 120.0
            },
            {
                "start_time": 2.6227273,
                "end_time": 2.7204545,
                "pitch": 63,
                "velocity": 51,
                "duration": 0.0977273,
                "tempo": 120.0
            },
            {
                "start_time": 2.7363636,
                "end_time": 2.8363636,
                "pitch": 61,
                "velocity": 51,
                "duration": 0.1,
                "tempo": 120.0
            },
            {
                "start_time": 2.8545455,
                "end_time": 5.7272727,
                "pitch": 60,
                "velocity": 51,
                "duration": 2.8727273,
                "tempo": 120.0
            },
            {
                "start_time": 5.7454545,
                "end_time": 7.1863636,
                "pitch": 63,
                "velocity": 51,
                "duration": 1.4409091,
                "tempo": 120.0
            },
            {
                "start_time": 7.2022727,
                "end_time": 7.8886364,
                "pitch": 61,
                "velocity": 51,
                "duration": 0.6863636,
                "tempo": 120.0
            },
            {
                "start_time": 7.9045455,
                "end_time": 8.0068182,
                "pitch": 60,
                "velocity": 51,
                "duration": 0.1022727,
                "tempo": 120.0
            },
            {
                "start_time": 8.0386364,
                "end_time": 8.1409091,
                "pitch": 61,
                "velocity": 51,
                "duration": 0.1022727,
                "tempo": 120.0
            },
            {
                "start_time": 8.1590909,
                "end_time": 8.2613636,
                "pitch": 63,
                "velocity": 51,
                "duration": 0.1022727,
                "tempo": 120.0
            },
            {
                "start_time": 8.2772727,
                "end_time": 8.3795455,
                "pitch": 64,
                "velocity": 51,
                "duration": 0.1022727,
                "tempo": 120.0
            },
            {
                "start_time": 8.3977273,
                "end_time": 8.5,
                "pitch": 63,
                "velocity": 51,
                "duration": 0.1022727,
                "tempo": 120.0
            },
            {
                "start_time": 8.5181818,
                "end_time": 8.6204545,
                "pitch": 61,
                "velocity": 51,
                "duration": 0.1022727,
                "tempo": 120.0
            },
            {
                "start_time": 8.6545455,
                "end_time": 11.5113636,
                "pitch": 60,
                "velocity": 51,
                "duration": 2.8568182,
                "tempo": 120.0
            },
            {
                "start_time": 11.5272727,
                "end_time": 12.9613636,
                "pitch": 73,
                "velocity": 51,
                "duration": 1.4340909,
                "tempo": 120.0
            },
            {
                "start_time": 12.9795455,
                "end_time": 14.4113636,
                "pitch": 75,
                "velocity": 51,
                "duration": 1.4318182,
                "tempo": 120.0
            },
            {
                "start_time": 14.4272727,
                "end_time": 15.8545455,
                "pitch": 76,
                "velocity": 51,
                "duration": 1.4272727,
                "tempo": 120.0
            },
            {
                "start_time": 15.8886364,
                "end_time": 15.9886364,
                "pitch": 75,
                "velocity": 51,
                "duration": 0.1,
                "tempo": 120.0
            },
            {
                "start_time": 16.0045455,
                "end_time": 16.1068182,
                "pitch": 76,
                "velocity": 51,
                "duration": 0.1022727,
                "tempo": 120.0
            },
            {
                "start_time": 16.1227273,
                "end_time": 17.3022727,
                "pitch": 78,
                "velocity": 51,
                "duration": 1.1795455,
                "tempo": 120.0
            },
            {
                "start_time": 17.3181818,
                "end_time": 18.7545455,
                "pitch": 75,
                "velocity": 51,
                "duration": 1.4363636,
                "tempo": 120.0
            },
            {
                "start_time": 18.7704545,
                "end_time": 19.4772727,
                "pitch": 74,
                "velocity": 51,
                "duration": 0.7068182,
                "tempo": 120.0
            },
            {
                "start_time": 19.5090909,
                "end_time": 19.6113636,
                "pitch": 69,
                "velocity": 51,
                "duration": 0.1022727,
                "tempo": 120.0
            },
            {
                "start_time": 19.6272727,
                "end_time": 19.7272727,
                "pitch": 70,
                "velocity": 51,
                "duration": 0.1,
                "tempo": 120.0
            },
            {
                "start_time": 19.7454545,
                "end_time": 19.8454545,
                "pitch": 73,
                "velocity": 51,
                "duration": 0.1,
                "tempo": 120.0
            },
            {
                "start_time": 19.8636364,
                "end_time": 19.9636364,
                "pitch": 75,
                "velocity": 51,
                "duration": 0.1,
                "tempo": 120.0
            },
            {
                "start_time": 19.9795455,
                "end_time": 20.0818182,
                "pitch": 73,
                "velocity": 51,
                "duration": 0.1022727,
                "tempo": 120.0
            },
            {
                "start_time": 20.1136364,
                "end_time": 20.2136364,
                "pitch": 70,
                "velocity": 51,
                "duration": 0.1,
                "tempo": 120.0
            },
            {
                "start_time": 20.2295455,
                "end_time": 22.7409091,
                "pitch": 69,
                "velocity": 51,
                "duration": 2.5113636,
                "tempo": 120.0
            },
            {
                "start_time": 23.1318182,
                "end_time": 24.5454545,
                "pitch": 73,
                "velocity": 51,
                "duration": 1.4136364,
                "tempo": 120.0
            },
            {
                "start_time": 24.5613636,
                "end_time": 25.9977273,
                "pitch": 75,
                "velocity": 51,
                "duration": 1.4363636,
                "tempo": 120.0
            },
            {
                "start_time": 26.0136364,
                "end_time": 27.4477273,
                "pitch": 76,
                "velocity": 51,
                "duration": 1.4340909,
                "tempo": 120.0
            },
            {
                "start_time": 27.4636364,
                "end_time": 27.5659091,
                "pitch": 75,
                "velocity": 51,
                "duration": 0.1022727,
                "tempo": 120.0
            },
            {
                "start_time": 27.5818182,
                "end_time": 27.6818182,
                "pitch": 76,
                "velocity": 51,
                "duration": 0.1,
                "tempo": 120.0
            },
            {
                "start_time": 27.7,
                "end_time": 28.8977273,
                "pitch": 78,
                "velocity": 51,
                "duration": 1.1977273,
                "tempo": 120.0
            },
            {
                "start_time": 28.9159091,
                "end_time": 30.3409091,
                "pitch": 75,
                "velocity": 51,
                "duration": 1.425,
                "tempo": 120.0
            },
            {
                "start_time": 30.375,
                "end_time": 31.0840909,
                "pitch": 74,
                "velocity": 51,
                "duration": 0.7090909,
                "tempo": 120.0
            },
            {
                "start_time": 31.1022727,
                "end_time": 31.2045455,
                "pitch": 69,
                "velocity": 51,
                "duration": 0.1022727,
                "tempo": 120.0
            },
            {
                "start_time": 31.2227273,
                "end_time": 31.3204545,
                "pitch": 70,
                "velocity": 51,
                "duration": 0.0977273,
                "tempo": 120.0
            },
            {
                "start_time": 31.3363636,
                "end_time": 31.4318182,
                "pitch": 73,
                "velocity": 51,
                "duration": 0.0954545,
                "tempo": 120.0
            },
            {
                "start_time": 31.4477273,
                "end_time": 31.5431818,
                "pitch": 75,
                "velocity": 51,
                "duration": 0.0954545,
                "tempo": 120.0
            },
            {
                "start_time": 31.5772727,
                "end_time": 31.6727273,
                "pitch": 73,
                "velocity": 51,
                "duration": 0.0954545,
                "tempo": 120.0
            },
            {
                "start_time": 31.6886364,
                "end_time": 31.7886364,
                "pitch": 70,
                "velocity": 51,
                "duration": 0.1,
                "tempo": 120.0
            },
            {
                "start_time": 31.8045455,
                "end_time": 34.6272727,
                "pitch": 69,
                "velocity": 51,
                "duration": 2.8227273,
                "tempo": 120.0
            }
        ]
    }
}