{
    "mood": "angry",
    "instruments": {
        "Lead 2 (sawtooth)": [
            {
                "start_time": 16.8181818,
                "end_time": 84.5295455,
                "pitch": 93,
                "velocity": 20,
                "duration": 67.7113636,
                "tempo": 120.0
            },
            {
                "start_time": 84.5295455,
                "end_time": 84.7045455,
                "pitch": 65,
                "velocity": 80,
                "duration": 0.175,
                "tempo": 120.0
            },
            {
                "start_time": 84.7045455,
                "end_time": 84.8772727,
                "pitch": 67,
                "velocity": 80,
                "duration": 0.1727273,
                "tempo": 120.0
            },
            {
                "start_time": 84.8772727,
                "end_time": 85.0522727,
                "pitch": 69,
                "velocity": 80,
                "duration": 0.175,
                "tempo": 120.0
            },
            {
                "start_time": 85.0522727,
                "end_time": 85.2295455,
                "pitch": 67,
                "velocity": 80,
                "duration": 0.1772727,
                "tempo": 120.0
            },
            {
                "start_time": 85.2295455,
                "end_time": 85.4068182,
                "pitch": 69,
                "velocity": 80,
                "duration": 0.1772727,
                "tempo": 120.0
            },
            {
                "start_time": 84.7045455,
                "end_time": 85.5863636,
                "pitch": 55,
                "velocity": 80,
                "duration": 0.8818182,
                "tempo": 120.0
            },
            {
                "start_time": 85.4068182,
                "end_time": 85.5863636,
                "pitch": 65,
                "velocity": 80,
                "duration": 0.1795455,
                "tempo": 120.0
            },
            {
                "start_time": 85.5863636,
                "end_time": 85.7568182,
                "pitch": 67,
                "velocity": 80,
                "duration": 0.1704545,
                "tempo": 120.0
            },
            {
                "start_time": 85.7568182,
                "end_time": 85.9272727,
                "pitch": 70,
                "velocity": 80,
                "duration": 0.1704545,
                "tempo": 120.0
            },
            {
                "start_time": 85.7568182,
                "end_time": 85.9272727,
                "pitch": 70,
                "velocity": 80,
                "duration": 0.1704545,
                "tempo": 120.0
            },
            {
                "start_time": 85.9272727,
                "end_time": 86.2795455,
                "pitch": 69,
                "velocity": 80,
                "duration": 0.3522727,
                "tempo": 120.0
            },
            {
                "start_time": 85.4068182,
                "end_time": 86.2795455,
                "pitch": 77,
                "velocity": 80,
                "duration": 0.8727273,
                "tempo": 120.0
            },
            {
                "start_time": 85.5863636,
                "end_time": 86.4522727,
                "pitch": 55,
                "velocity": 80,
                "duration": 0.8659091,
                "tempo": 120.0
            },
            {
                "start_time": 86.2795455,
                "end_time": 86.4522727,
                "pitch": 65,
                "velocity": 80,
                "duration": 0.1727273,
                "tempo": 120.0
            },
            {
                "start_time": 86.4522727,
                "end_time": 86.6272727,
                "pitch": 67,
                "velocity": 80,
                "duration": 0.175,
                "tempo": 120.0
            },
            {
                "start_time": 86.6272727,
                "end_time": 86.8068182,
                "pitch": 69,
                "velocity": 80,
                "duration": 0.1795455,
                "tempo": 120.0
            },
            {
                "start_time": 86.8068182,
                "end_time": 86.9840909,
                "pitch": 67,
                "velocity": 80,
                "duration": 0.1772727,
                "tempo": 120.0
            },
            {
                "start_time": 86.9840909,
                "end_time": 87.1613636,
                "pitch": 69,
                "velocity": 80,
                "duration": 0.1772727,
                "tempo": 120.0
            },
            {
                "start_time": 86.2795455,
                "end_time": 87.1613636,
                "pitch": 77,
                "velocity": 80,
                "duration": 0.8818182,
                "tempo": 120.0
            },
            {
                "start_time": 86.4522727,
                "end_time": 87.3363636,
                "pitch": 55,
                "velocity": 80,
                "duration": 0.8840909,
                "tempo": 120.0
            },
            {
                "start_time": 87.1613636,
                "end_time": 87.3363636,
                "pitch": 65,
                "velocity": 80,
                "duration": 0.175,
                "tempo": 120.0
            },
            {
                "start_time": 87.3363636,
                "end_time": 87.5068182,
                "pitch": 67,
                "velocity": 101,
                "duration": 0.1704545,
                "tempo": 120.0
            },
            {
                "start_time": 87.5068182,
                "end_time": 87.6772727,
                "pitch": 70,
                "velocity": 101,
                "duration": 0.1704545,
                "tempo": 120.0
            },
            {
                "start_time": 87.5068182,
                "end_time": 87.6772727,
                "pitch": 70,
                "velocity": 101,
                "duration": 0.1704545,
                "tempo": 120.0
            },
            {
                "start_time": 87.6772727,
                "end_time": 88.0340909,
                "pitch": 69,
                "velocity": 101,
                "duration": 0.3568182,
                "tempo": 120.0
            },
            {
                "start_time": 88.0340909,
                "end_time": 89.4363636,
                "pitch": 69,
                "velocity": 101,
                "duration": 1.4022727,
                "tempo": 120.0
            },
            {
                "start_time": 89.4363636,
                "end_time": 89.7840909,
                "pitch": 69,
                "velocity": 101,
                "duration": 0.3477273,
                "tempo": 120.0
            },
            {
                "start_time": 89.7840909,
                "end_time": 91.1840909,
                "pitch": 69,
                "velocity": 101,
                "duration": 1.4,
                "tempo": 120.0
            },
            {
                "start_time": 91.1840909,
                "end_time": 91.5340909,
                "pitch": 69,
                "velocity": 101,
                "duration": 0.35,
                "tempo": 120.0
            },
            {
                "start_time": 91.5340909,
                "end_time": 92.9340909,
                "pitch": 69,
                "velocity": 101,
                "duration": 1.4,
                "tempo": 120.0
            },
            {
                "start_time": 92.9340909,
                "end_time": 93.2818182,
                "pitch": 69,
                "velocity": 101,
                "duration": 0.3477273,
                "tempo": 120.0
            },
            {
                "start_time": 93.2818182,
                "end_time": 94.3409091,
                "pitch": 69,
                "velocity": 101,
                "duration": 1.0590909,
                "tempo": 120.0
            },
            {
                "start_time": 94.3409091,
                "end_time": 94.6909091,
                "pitch": 69,
                "velocity": 101,
                "duration": 0.35,
                "tempo": 120.0
            },
            {
                "start_time": 94.6909091,
                "end_time": 95.0409091,
                "pitch": 69,
                "velocity": 101,
                "duration": 0.35,
                "tempo": 120.0
            },
            {
                "start_time": 95.3818182,
                "end_time": 95.725,
                "pitch": 69,
                "velocity": 80,
                "duration": 0.3431818,
                "tempo": 120.0
            },
            {
                "start_time": 95.725,
                "end_time": 96.0909091,
                "pitch": 69,
                "velocity": 80,
                "duration": 0.3659091,
                "tempo": 120.0
            },
            {
                "start_time": 96.4386364,
                "end_time": 96.7727273,
                "pitch": 69,
                "velocity": 64,
                "duration": 0.3340909,
                "tempo": 120.0
            },
            {
                "start_time": 96.7727273,
                "end_time": 97.1409091,
                "pitch": 69,
                "velocity": 64,
                "duration": 0.3681818,
                "tempo": 120.0
            },
            {
                "start_time": 97.4977273,
                "end_time": 97.8318182,
                "pitch": 69,
                "velocity": 51,
                "duration": 0.3340909,
                "tempo": 120.0
            },
            {
                "start_time": 97.8318182,
                "end_time": 98.1886364,
                "pitch": 69,
                "velocity": 51,
                "duration": 0.3568182,
                "tempo": 120.0
            },
            {
                "start_time": 98.5454545,
                "end_time": 98.8795455,
                "pitch": 69,
                "velocity": 32,
                "duration": 0.3340909,
                "tempo": 120.0
            },
            {
                "start_time": 98.8795455,
                "end_time": 99.2363636,
                "pitch": 69,
                "velocity": 32,
                "duration": 0.3568182,
                "tempo": 120.0
            },
            {
                "start_time": 99.5931818,
                "end_time": 99.9272727,
                "pitch": 69,
                "velocity": 20,
                "duration": 0.3340909,
                "tempo": 120.0
            },
            {
                "start_time": 99.9272727,
                "end_time": 100.2931818,
                "pitch": 69,
                "velocity": 20,
                "duration": 0.3659091,
                "tempo": 120.0
            },
            {
                "start_time": 100.6431818,
                "end_time": 100.975,
                "pitch": 69,
                "velocity": 13,
                "duration": 0.3318182,
                "tempo": 120.0
            },
            {
                "start_time": 100.975,
                "end_time": 101.3431818,
                "pitch": 69,
                "velocity": 13,
                "duration": 0.3681818,
                "tempo": 120.0
            },
            {
                "start_time": 101.6931818,
                "end_time": 102.0272727,
                "pitch": 69,
                "velocity": 8,
                "duration": 0.3340909,
                "tempo": 120.0
            },
            {
                "start_time": 102.0272727,
                "end_time": 102.3931818,
                "pitch": 69,
                "velocity": 8,
                "duration": 0.3659091,
                "tempo": 120.0
            }
        ],
        "Electric Guitar (clean)": [
            {
                "start_time": 14.6681818,
                "end_time": 14.7886364,
                "pitch": 64,
                "velocity": 80,
                "duration": 0.1204545,
                "tempo": 120.0
            },
            {
                "start_time": 14.7886364,
                "end_time": 14.9090909,
                "pitch": 69,
                "velocity": 80,
                "duration": 0.1204545,
                "tempo": 120.0
            },
            {
                "start_time": 14.9090909,
                "end_time": 15.0272727,
                "pitch": 62,
                "velocity": 80,
                "duration": 0.1181818,
                "tempo": 120.0
            },
            {
                "start_time": 15.0272727,
                "end_time": 15.1477273,
                "pitch": 67,
                "velocity": 80,
                "duration": 0.1204545,
                "tempo": 120.0
            },
            {
                "start_time": 15.1477273,
                "end_time": 15.2681818,
                "pitch": 60,
                "velocity": 80,
                "duration": 0.1204545,
                "tempo": 120.0
            },
            {
                "start_time": 15.2681818,
                "end_time": 15.3886364,
                "pitch": 65,
                "velocity": 80,
                "duration": 0.1204545,
                "tempo": 120.0
            },
            {
                "start_time": 15.2681818,
                "end_time": 15.3886364,
                "pitch": 65,
                "velocity": 80,
                "duration": 0.1204545,
                "tempo": 120.0
            }
        ],
        "Trumpet": [
            {
                "start_time": 0.0159091,
                "end_time": 7.5568182,
                "pitch": 81,
                "velocity": 40,
                "duration": 7.5409091,
                "tempo": 120.0
            },
            {
                "start_time": 7.5568182,
                "end_time": 7.7431818,
                "pitch": 81,
                "velocity": 40,
                "duration": 0.1863636,
                "tempo": 120.0
            },
            {
                "start_time": 7.7454545,
                "end_time": 8.3090909,
                "pitch": 74,
                "velocity": 40,
                "duration": 0.5636364,
                "tempo": 120.0
            },
            {
                "start_time": 8.3090909,
                "end_time": 13.3113636,
                "pitch": 76,
                "velocity": 40,
                "duration": 5.0022727,
                "tempo": 120.0
            },
            {
                "start_time": 8.3090909,
                "end_time": 13.3113636,
                "pitch": 76,
                "velocity": 40,
                "duration": 5.0022727,
                "tempo": 120.0
            },
            {
                "start_time": 13.3113636,
                "end_time": 13.7681818,
                "pitch": 76,
                "velocity": 80,
                "duration": 0.4568182,
                "tempo": 120.0
            },
            {
                "start_time": 13.9090909,
                "end_time": 14.0477273,
                "pitch": 81,
                "velocity": 64,
                "duration": 0.1386364,
                "tempo": 120.0
            },
            {
                "start_time": 14.0477273,
                "end_time": 14.1886364,
                "pitch": 81,
                "velocity": 51,
                "duration": 0.1409091,
                "tempo": 120.0
            },
            {
                "start_time": 14.1886364,
                "end_time": 14.3090909,
                "pitch": 81,
                "velocity": 51,
                "duration": 0.1204545,
                "tempo": 120.0
            },
            {
                "start_time": 14.3090909,
                "end_time": 14.4272727,
                "pitch": 81,
                "velocity": 51,
                "duration": 0.1181818,
                "tempo": 120.0
            },
            {
                "start_time": 32.8727273,
                "end_time": 48.7704545,
                "pitch": 81,
                "velocity": 20,
                "duration": 15.8977273,
                "tempo": 120.0
            },
            {
                "start_time": 49.3909091,
                "end_time": 49.4818182,
                "pitch": 79,
                "velocity": 80,
                "duration": 0.0909091,
                "tempo": 120.0
            },
            {
                "start_time": 49.4818182,
                "end_time": 49.55,
                "pitch": 81,
                "velocity": 64,
                "duration": 0.0681818,
                "tempo": 120.0
            },
            {
                "start_time": 49.55,
                "end_time": 50.4409091,
                "pitch": 82,
                "velocity": 64,
                "duration": 0.8909091,
                "tempo": 120.0
            },
            {
                "start_time": 50.4431818,
                "end_time": 50.7977273,
                "pitch": 81,
                "velocity": 64,
                "duration": 0.3545455,
                "tempo": 120.0
            },
            {
                "start_time": 50.7977273,
                "end_time": 51.1204545,
                "pitch": 79,
                "velocity": 64,
                "duration": 0.3227273,
                "tempo": 120.0
            },
            {
                "start_time": 51.1204545,
                "end_time": 51.1227273,
                "pitch": 90,
                "velocity": 64,
                "duration": 0.0022727,
                "tempo": 120.0
            },
            {
                "start_time": 51.1227273,
                "end_time": 51.3863636,
                "pitch": 78,
                "velocity": 64,
                "duration": 0.2636364,
                "tempo": 120.0
            },
            {
                "start_time": 51.3863636,
                "end_time": 51.6454545,
                "pitch": 75,
                "velocity": 64,
                "duration": 0.2590909,
                "tempo": 120.0
            },
            {
                "start_time": 51.3863636,
                "end_time": 51.6454545,
                "pitch": 75,
                "velocity": 64,
                "duration": 0.2590909,
                "tempo": 120.0
            },
            {
                "start_time": 51.6454545,
                "end_time": 51.8795455,
                "pitch": 78,
                "velocity": 64,
                "duration": 0.2340909,
                "tempo": 120.0
            },
            {
                "start_time": 51.6454545,
                "end_time": 51.8795455,
                "pitch": 78,
                "velocity": 64,
                "duration": 0.2340909,
                "tempo": 120.0
            },
            {
                "start_time": 51.8795455,
                "end_time": 52.1136364,
                "pitch": 75,
                "velocity": 64,
                "duration": 0.2340909,
                "tempo": 120.0
            },
            {
                "start_time": 51.8795455,
                "end_time": 52.1136364,
                "pitch": 75,
                "velocity": 64,
                "duration": 0.2340909,
                "tempo": 120.0
            },
            {
                "start_time": 52.1136364,
                "end_time": 52.3136364,
                "pitch": 78,
                "velocity": 64,
                "duration": 0.2,
                "tempo": 120.0
            },
            {
                "start_time": 52.1136364,
                "end_time": 52.3136364,
                "pitch": 78,
                "velocity": 64,
                "duration": 0.2,
                "tempo": 120.0
            },
            {
                "start_time": 52.3136364,
                "end_time": 52.5136364,
                "pitch": 75,
                "velocity": 64,
                "duration": 0.2,
                "tempo": 120.0
            },
            {
                "start_time": 52.3136364,
                "end_time": 52.5136364,
                "pitch": 75,
                "velocity": 64,
                "duration": 0.2,
                "tempo": 120.0
            },
            {
                "start_time": 52.5136364,
                "end_time": 52.6704545,
                "pitch": 78,
                "velocity": 64,
                "duration": 0.1568182,
                "tempo": 120.0
            },
            {
                "start_time": 52.5136364,
                "end_time": 52.6704545,
                "pitch": 78,
                "velocity": 64,
                "duration": 0.1568182,
                "tempo": 120.0
            },
            {
                "start_time": 52.6704545,
                "end_time": 52.8272727,
                "pitch": 75,
                "velocity": 64,
                "duration": 0.1568182,
                "tempo": 120.0
            },
            {
                "start_time": 52.6704545,
                "end_time": 52.8272727,
                "pitch": 75,
                "velocity": 64,
                "duration": 0.1568182,
                "tempo": 120.0
            },
            {
                "start_time": 52.8272727,
                "end_time": 52.9545455,
                "pitch": 78,
                "velocity": 64,
                "duration": 0.1272727,
                "tempo": 120.0
            },
            {
                "start_time": 52.8272727,
                "end_time": 52.9545455,
                "pitch": 78,
                "velocity": 64,
                "duration": 0.1272727,
                "tempo": 120.0
            },
            {
                "start_time": 52.9545455,
                "end_time": 53.0863636,
                "pitch": 75,
                "velocity": 64,
                "duration": 0.1318182,
                "tempo": 120.0
            },
            {
                "start_time": 52.9545455,
                "end_time": 53.0863636,
                "pitch": 75,
                "velocity": 64,
                "duration": 0.1318182,
                "tempo": 120.0
            },
            {
                "start_time": 53.0863636,
                "end_time": 53.1840909,
                "pitch": 78,
                "velocity": 64,
                "duration": 0.0977273,
                "tempo": 120.0
            },
            {
                "start_time": 53.0863636,
                "end_time": 53.1840909,
                "pitch": 78,
                "velocity": 64,
                "duration": 0.0977273,
                "tempo": 120.0
            },
            {
                "start_time": 53.1840909,
                "end_time": 53.2818182,
                "pitch": 75,
                "velocity": 64,
                "duration": 0.0977273,
                "tempo": 120.0
            },
            {
                "start_time": 53.1840909,
                "end_time": 53.2818182,
                "pitch": 75,
                "velocity": 64,
                "duration": 0.0977273,
                "tempo": 120.0
            },
            {
                "start_time": 53.2818182,
                "end_time": 53.3795455,
                "pitch": 78,
                "velocity": 64,
                "duration": 0.0977273,
                "tempo": 120.0
            },
            {
                "start_time": 53.2818182,
                "end_time": 53.3795455,
                "pitch": 78,
                "velocity": 64,
                "duration": 0.0977273,
                "tempo": 120.0
            },
            {
                "start_time": 53.3795455,
                "end_time": 53.4840909,
                "pitch": 75,
                "velocity": 64,
                "duration": 0.1045455,
                "tempo": 120.0
            },
            {
                "start_time": 53.3795455,
                "end_time": 53.4840909,
                "pitch": 75,
                "velocity": 64,
                "duration": 0.1045455,
                "tempo": 120.0
            },
            {
                "start_time": 53.4840909,
                "end_time": 53.5727273,
                "pitch": 78,
                "velocity": 64,
                "duration": 0.0886364,
                "tempo": 120.0
            },
            {
                "start_time": 53.4840909,
                "end_time": 53.5727273,
                "pitch": 78,
                "velocity": 64,
                "duration": 0.0886364,
                "tempo": 120.0
            },
            {
                "start_time": 53.5727273,
                "end_time": 53.6590909,
                "pitch": 75,
                "velocity": 64,
                "duration": 0.0863636,
                "tempo": 120.0
            },
            {
                "start_time": 53.5727273,
                "end_time": 53.6590909,
                "pitch": 75,
                "velocity": 64,
                "duration": 0.0863636,
                "tempo": 120.0
            },
            {
                "start_time": 53.6590909,
                "end_time": 53.7454545,
                "pitch": 78,
                "velocity": 64,
                "duration": 0.0863636,
                "tempo": 120.0
            },
            {
                "start_time": 53.6590909,
                "end_time": 53.7454545,
                "pitch": 78,
                "velocity": 64,
                "duration": 0.0863636,
                "tempo": 120.0
            },
            {
                "start_time": 53.7454545,
                "end_time": 53.8159091,
                "pitch": 75,
                "velocity": 64,
                "duration": 0.0704545,
                "tempo": 120.0
            },
            {
                "start_time": 53.7454545,
                "end_time": 53.8159091,
                "pitch": 75,
                "velocity": 64,
                "duration": 0.0704545,
                "tempo": 120.0
            },
            {
                "start_time": 53.8159091,
                "end_time": 54.3477273,
                "pitch": 78,
                "velocity": 64,
                "duration": 0.5318182,
                "tempo": 120.0
            },
            {
                "start_time": 53.8159091,
                "end_time": 54.3477273,
                "pitch": 78,
                "velocity": 64,
                "duration": 0.5318182,
                "tempo": 120.0
            },
            {
                "start_time": 7.7431818,
                "end_time": 56.6363636,
                "pitch": 86,
                "velocity": 40,
                "duration": 48.8931818,
                "tempo": 120.0
            },
            {
                "start_time": 54.4863636,
                "end_time": 56.6363636,
                "pitch": 86,
                "velocity": 32,
                "duration": 2.15,
                "tempo": 120.0
            },
            {
                "start_time": 56.6363636,
                "end_time": 56.875,
                "pitch": 84,
                "velocity": 32,
                "duration": 0.2386364,
                "tempo": 120.0
            },
            {
                "start_time": 56.875,
                "end_time": 57.1136364,
                "pitch": 86,
                "velocity": 32,
                "duration": 0.2386364,
                "tempo": 120.0
            },
            {
                "start_time": 57.1136364,
                "end_time": 57.8340909,
                "pitch": 87,
                "velocity": 32,
                "duration": 0.7204545,
                "tempo": 120.0
            },
            {
                "start_time": 57.8340909,
                "end_time": 58.075,
                "pitch": 86,
                "velocity": 32,
                "duration": 0.2409091,
                "tempo": 120.0
            },
            {
                "start_time": 58.075,
                "end_time": 58.3113636,
                "pitch": 84,
                "velocity": 32,
                "duration": 0.2363636,
                "tempo": 120.0
            },
            {
                "start_time": 58.3113636,
                "end_time": 58.5454545,
                "pitch": 82,
                "velocity": 32,
                "duration": 0.2340909,
                "tempo": 120.0
            },
            {
                "start_time": 58.3113636,
                "end_time": 58.5454545,
                "pitch": 82,
                "velocity": 32,
                "duration": 0.2340909,
                "tempo": 120.0
            },
            {
                "start_time": 58.5454545,
                "end_time": 58.7840909,
                "pitch": 84,
                "velocity": 32,
                "duration": 0.2386364,
                "tempo": 120.0
            },
            {
                "start_time": 58.5454545,
                "end_time": 58.7840909,
                "pitch": 84,
                "velocity": 32,
                "duration": 0.2386364,
                "tempo": 120.0
            },
            {
                "start_time": 58.7840909,
                "end_time": 59.0227273,
                "pitch": 82,
                "velocity": 32,
                "duration": 0.2386364,
                "tempo": 120.0
            },
            {
                "start_time": 58.7840909,
                "end_time": 59.0227273,
                "pitch": 82,
                "velocity": 32,
                "duration": 0.2386364,
                "tempo": 120.0
            },
            {
                "start_time": 59.0227273,
                "end_time": 60.2204545,
                "pitch": 81,
                "velocity": 32,
                "duration": 1.1977273,
                "tempo": 120.0
            },
            {
                "start_time": 60.2204545,
                "end_time": 60.6931818,
                "pitch": 87,
                "velocity": 32,
                "duration": 0.4727273,
                "tempo": 120.0
            },
            {
                "start_time": 60.2204545,
                "end_time": 60.6931818,
                "pitch": 87,
                "velocity": 32,
                "duration": 0.4727273,
                "tempo": 120.0
            },
            {
                "start_time": 60.6931818,
                "end_time": 60.9318182,
                "pitch": 86,
                "velocity": 32,
                "duration": 0.2386364,
                "tempo": 120.0
            },
            {
                "start_time": 60.9318182,
                "end_time": 61.1727273,
                "pitch": 84,
                "velocity": 32,
                "duration": 0.2409091,
                "tempo": 120.0
            },
            {
                "start_time": 61.1727273,
                "end_time": 61.4136364,
                "pitch": 86,
                "velocity": 32,
                "duration": 0.2409091,
                "tempo": 120.0
            },
            {
                "start_time": 61.4136364,
                "end_time": 61.8931818,
                "pitch": 82,
                "velocity": 32,
                "duration": 0.4795455,
                "tempo": 120.0
            },
            {
                "start_time": 61.4136364,
                "end_time": 61.8931818,
                "pitch": 82,
                "velocity": 32,
                "duration": 0.4795455,
                "tempo": 120.0
            },
            {
                "start_time": 61.8931818,
                "end_time": 62.1295455,
                "pitch": 84,
                "velocity": 32,
                "duration": 0.2363636,
                "tempo": 120.0
            },
            {
                "start_time": 61.8931818,
                "end_time": 62.1295455,
                "pitch": 84,
                "velocity": 32,
                "duration": 0.2363636,
                "tempo": 120.0
            },
            {
                "start_time": 62.1295455,
                "end_time": 62.3636364,
                "pitch": 82,
                "velocity": 32,
                "duration": 0.2340909,
                "tempo": 120.0
            },
            {
                "start_time": 62.1295455,
                "end_time": 62.3636364,
                "pitch": 82,
                "velocity": 32,
                "duration": 0.2340909,
                "tempo": 120.0
            },
            {
                "start_time": 62.3636364,
                "end_time": 62.6022727,
                "pitch": 84,
                "velocity": 32,
                "duration": 0.2386364,
                "tempo": 120.0
            },
            {
                "start_time": 62.3636364,
                "end_time": 62.6022727,
                "pitch": 84,
                "velocity": 32,
                "duration": 0.2386364,
                "tempo": 120.0
            },
            {
                "start_time": 62.6022727,
                "end_time": 62.7227273,
                "pitch": 82,
                "velocity": 32,
                "duration": 0.1204545,
                "tempo": 120.0
            },
            {
                "start_time": 62.6022727,
                "end_time": 62.7227273,
                "pitch": 82,
                "velocity": 32,
                "duration": 0.1204545,
                "tempo": 120.0
            },
            {
                "start_time": 62.7227273,
                "end_time": 62.8409091,
                "pitch": 84,
                "velocity": 32,
                "duration": 0.1181818,
                "tempo": 120.0
            },
            {
                "start_time": 62.7227273,
                "end_time": 62.8409091,
                "pitch": 84,
                "velocity": 32,
                "duration": 0.1181818,
                "tempo": 120.0
            },
            {
                "start_time": 62.8409091,
                "end_time": 62.8431818,
                "pitch": 82,
                "velocity": 32,
                "duration": 0.0022727,
                "tempo": 120.0
            },
            {
                "start_time": 62.8431818,
                "end_time": 63.0818182,
                "pitch": 82,
                "velocity": 32,
                "duration": 0.2386364,
                "tempo": 120.0
            },
            {
                "start_time": 63.0818182,
                "end_time": 77.4727273,
                "pitch": 81,
                "velocity": 32,
                "duration": 14.3909091,
                "tempo": 120.0
            },
            {
                "start_time": 77.4727273,
                "end_time": 79.2818182,
                "pitch": 65,
                "velocity": 10,
                "duration": 1.8090909,
                "tempo": 120.0
            },
            {
                "start_time": 79.2818182,
                "end_time": 81.0318182,
                "pitch": 65,
                "velocity": 16,
                "duration": 1.75,
                "tempo": 120.0
            },
            {
                "start_time": 81.0318182,
                "end_time": 82.7795455,
                "pitch": 65,
                "velocity": 25,
                "duration": 1.7477273,
                "tempo": 120.0
            },
            {
                "start_time": 82.7795455,
                "end_time": 103.0863636,
                "pitch": 65,
                "velocity": 40,
                "duration": 20.3068182,
                "tempo": 120.0
            },
            {
                "start_time": 103.0863636,
                "end_time": 105.7454545,
                "pitch": 81,
                "velocity": 40,
                "duration": 2.6590909,
                "tempo": 120.0
            }
        ],
        "Harpsichord": [
            {
                "start_time": 42.9227273,
                "end_time": 43.3818182,
                "pitch": 45,
                "velocity": 127,
                "duration": 0.4590909,
                "tempo": 120.0
            },
            {
                "start_time": 43.3818182,
                "end_time": 43.8340909,
                "pitch": 45,
                "velocity": 127,
                "duration": 0.4522727,
                "tempo": 120.0
            },
            {
                "start_time": 47.8090909,
                "end_time": 48.2886364,
                "pitch": 33,
                "velocity": 101,
                "duration": 0.4795455,
                "tempo": 120.0
            },
            {
                "start_time": 48.2909091,
                "end_time": 53.8681818,
                "pitch": 33,
                "velocity": 101,
                "duration": 5.5772727,
                "tempo": 120.0
            },
            {
                "start_time": 53.8681818,
                "end_time": 53.9886364,
                "pitch": 38,
                "velocity": 101,
                "duration": 0.1204545,
                "tempo": 120.0
            },
            {
                "start_time": 53.9886364,
                "end_time": 54.1090909,
                "pitch": 38,
                "velocity": 80,
                "duration": 0.1204545,
                "tempo": 120.0
            },
            {
                "start_time": 54.1090909,
                "end_time": 54.2272727,
                "pitch": 38,
                "velocity": 101,
                "duration": 0.1181818,
                "tempo": 120.0
            },
            {
                "start_time": 54.2272727,
                "end_time": 65.8022727,
                "pitch": 38,
                "velocity": 80,
                "duration": 11.575,
                "tempo": 120.0
            },
            {
                "start_time": 65.8022727,
                "end_time": 65.8045455,
                "pitch": 82,
                "velocity": 80,
                "duration": 0.0022727,
                "tempo": 120.0
            },
            {
                "start_time": 65.8045455,
                "end_time": 66.0431818,
                "pitch": 70,
                "velocity": 32,
                "duration": 0.2386364,
                "tempo": 120.0
            },
            {
                "start_time": 66.0431818,
                "end_time": 66.2840909,
                "pitch": 65,
                "velocity": 32,
                "duration": 0.2409091,
                "tempo": 120.0
            },
            {
                "start_time": 66.2840909,
                "end_time": 66.5181818,
                "pitch": 70,
                "velocity": 32,
                "duration": 0.2340909,
                "tempo": 120.0
            },
            {
                "start_time": 66.0431818,
                "end_time": 66.5181818,
                "pitch": 77,
                "velocity": 32,
                "duration": 0.475,
                "tempo": 120.0
            },
            {
                "start_time": 66.5181818,
                "end_time": 66.9931818,
                "pitch": 77,
                "velocity": 32,
                "duration": 0.475,
                "tempo": 120.0
            },
            {
                "start_time": 66.5181818,
                "end_time": 66.9931818,
                "pitch": 77,
                "velocity": 32,
                "duration": 0.475,
                "tempo": 120.0
            },
            {
                "start_time": 66.9931818,
                "end_time": 67.4613636,
                "pitch": 70,
                "velocity": 32,
                "duration": 0.4681818,
                "tempo": 120.0
            },
            {
                "start_time": 66.9931818,
                "end_time": 67.4613636,
                "pitch": 70,
                "velocity": 32,
                "duration": 0.4681818,
                "tempo": 120.0
            },
            {
                "start_time": 66.2840909,
                "end_time": 67.6909091,
                "pitch": 58,
                "velocity": 32,
                "duration": 1.4068182,
                "tempo": 120.0
            },
            {
                "start_time": 67.4613636,
                "end_time": 67.6909091,
                "pitch": 65,
                "velocity": 32,
                "duration": 0.2295455,
                "tempo": 120.0
            },
            {
                "start_time": 67.6909091,
                "end_time": 67.9363636,
                "pitch": 70,
                "velocity": 32,
                "duration": 0.2454545,
                "tempo": 120.0
            },
            {
                "start_time": 67.4613636,
                "end_time": 67.9363636,
                "pitch": 77,
                "velocity": 32,
                "duration": 0.475,
                "tempo": 120.0
            },
            {
                "start_time": 67.6909091,
                "end_time": 68.1818182,
                "pitch": 58,
                "velocity": 32,
                "duration": 0.4909091,
                "tempo": 120.0
            },
            {
                "start_time": 67.9363636,
                "end_time": 68.1818182,
                "pitch": 65,
                "velocity": 32,
                "duration": 0.2454545,
                "tempo": 120.0
            },
            {
                "start_time": 68.1818182,
                "end_time": 68.4227273,
                "pitch": 70,
                "velocity": 32,
                "duration": 0.2409091,
                "tempo": 120.0
            },
            {
                "start_time": 67.9363636,
                "end_time": 68.4227273,
                "pitch": 77,
                "velocity": 32,
                "duration": 0.4863636,
                "tempo": 120.0
            },
            {
                "start_time": 68.4227273,
                "end_time": 68.9045455,
                "pitch": 77,
                "velocity": 32,
                "duration": 0.4818182,
                "tempo": 120.0
            },
            {
                "start_time": 68.4227273,
                "end_time": 68.9045455,
                "pitch": 77,
                "velocity": 32,
                "duration": 0.4818182,
                "tempo": 120.0
            },
            {
                "start_time": 68.9045455,
                "end_time": 69.3840909,
                "pitch": 70,
                "velocity": 32,
                "duration": 0.4795455,
                "tempo": 120.0
            },
            {
                "start_time": 68.9045455,
                "end_time": 69.3840909,
                "pitch": 70,
                "velocity": 32,
                "duration": 0.4795455,
                "tempo": 120.0
            },
            {
                "start_time": 68.1818182,
                "end_time": 69.6181818,
                "pitch": 58,
                "velocity": 32,
                "duration": 1.4363636,
                "tempo": 120.0
            },
            {
                "start_time": 69.3840909,
                "end_time": 69.6181818,
                "pitch": 65,
                "velocity": 32,
                "duration": 0.2340909,
                "tempo": 120.0
            },
            {
                "start_time": 69.6181818,
                "end_time": 69.8590909,
                "pitch": 70,
                "velocity": 32,
                "duration": 0.2409091,
                "tempo": 120.0
            },
            {
                "start_time": 69.3840909,
                "end_time": 69.8590909,
                "pitch": 77,
                "velocity": 32,
                "duration": 0.475,
                "tempo": 120.0
            },
            {
                "start_time": 69.6181818,
                "end_time": 70.0977273,
                "pitch": 58,
                "velocity": 32,
                "duration": 0.4795455,
                "tempo": 120.0
            },
            {
                "start_time": 69.8590909,
                "end_time": 70.0977273,
                "pitch": 65,
                "velocity": 32,
                "duration": 0.2386364,
                "tempo": 120.0
            },
            {
                "start_time": 70.0977273,
                "end_time": 70.3340909,
                "pitch": 70,
                "velocity": 32,
                "duration": 0.2363636,
                "tempo": 120.0
            },
            {
                "start_time": 69.8590909,
                "end_time": 70.3340909,
                "pitch": 77,
                "velocity": 32,
                "duration": 0.475,
                "tempo": 120.0
            },
            {
                "start_time": 70.3340909,
                "end_time": 70.8068182,
                "pitch": 77,
                "velocity": 32,
                "duration": 0.4727273,
                "tempo": 120.0
            },
            {
                "start_time": 70.3340909,
                "end_time": 70.8068182,
                "pitch": 77,
                "velocity": 32,
                "duration": 0.4727273,
                "tempo": 120.0
            },
            {
                "start_time": 70.8068182,
                "end_time": 71.2818182,
                "pitch": 70,
                "velocity": 32,
                "duration": 0.475,
                "tempo": 120.0
            },
            {
                "start_time": 70.8068182,
                "end_time": 71.2818182,
                "pitch": 70,
                "velocity": 32,
                "duration": 0.475,
                "tempo": 120.0
            },
            {
                "start_time": 70.0977273,
                "end_time": 71.5159091,
                "pitch": 58,
                "velocity": 32,
                "duration": 1.4181818,
                "tempo": 120.0
            },
            {
                "start_time": 71.2818182,
                "end_time": 71.5159091,
                "pitch": 65,
                "velocity": 32,
                "duration": 0.2340909,
                "tempo": 120.0
            },
            {
                "start_time": 71.5159091,
                "end_time": 71.7090909,
                "pitch": 70,
                "velocity": 32,
                "duration": 0.1931818,
                "tempo": 120.0
            },
            {
                "start_time": 71.7090909,
                "end_time": 71.8681818,
                "pitch": 72,
                "velocity": 32,
                "duration": 0.1590909,
                "tempo": 120.0
            },
            {
                "start_time": 71.7090909,
                "end_time": 71.8681818,
                "pitch": 72,
                "velocity": 32,
                "duration": 0.1590909,
                "tempo": 120.0
            },
            {
                "start_time": 71.2818182,
                "end_time": 71.8681818,
                "pitch": 77,
                "velocity": 32,
                "duration": 0.5863636,
                "tempo": 120.0
            },
            {
                "start_time": 71.8681818,
                "end_time": 72.0363636,
                "pitch": 77,
                "velocity": 32,
                "duration": 0.1681818,
                "tempo": 120.0
            },
            {
                "start_time": 71.8681818,
                "end_time": 72.0363636,
                "pitch": 77,
                "velocity": 32,
                "duration": 0.1681818,
                "tempo": 120.0
            },
            {
                "start_time": 72.0363636,
                "end_time": 72.1772727,
                "pitch": 70,
                "velocity": 32,
                "duration": 0.1409091,
                "tempo": 120.0
            },
            {
                "start_time": 72.0363636,
                "end_time": 72.1772727,
                "pitch": 70,
                "velocity": 32,
                "duration": 0.1409091,
                "tempo": 120.0
            },
            {
                "start_time": 72.1772727,
                "end_time": 72.3181818,
                "pitch": 72,
                "velocity": 32,
                "duration": 0.1409091,
                "tempo": 120.0
            },
            {
                "start_time": 72.1772727,
                "end_time": 72.3181818,
                "pitch": 72,
                "velocity": 32,
                "duration": 0.1409091,
                "tempo": 120.0
            },
            {
                "start_time": 72.3181818,
                "end_time": 72.4727273,
                "pitch": 77,
                "velocity": 32,
                "duration": 0.1545455,
                "tempo": 120.0
            },
            {
                "start_time": 72.3181818,
                "end_time": 72.4727273,
                "pitch": 77,
                "velocity": 32,
                "duration": 0.1545455,
                "tempo": 120.0
            },
            {
                "start_time": 72.4727273,
                "end_time": 72.6113636,
                "pitch": 70,
                "velocity": 32,
                "duration": 0.1386364,
                "tempo": 120.0
            },
            {
                "start_time": 72.4727273,
                "end_time": 72.6113636,
                "pitch": 70,
                "velocity": 32,
                "duration": 0.1386364,
                "tempo": 120.0
            },
            {
                "start_time": 72.6113636,
                "end_time": 72.7477273,
                "pitch": 72,
                "velocity": 32,
                "duration": 0.1363636,
                "tempo": 120.0
            },
            {
                "start_time": 72.6113636,
                "end_time": 72.7477273,
                "pitch": 72,
                "velocity": 32,
                "duration": 0.1363636,
                "tempo": 120.0
            },
            {
                "start_time": 72.7477273,
                "end_time": 72.9022727,
                "pitch": 77,
                "velocity": 32,
                "duration": 0.1545455,
                "tempo": 120.0
            },
            {
                "start_time": 72.7477273,
                "end_time": 72.9022727,
                "pitch": 77,
                "velocity": 32,
                "duration": 0.1545455,
                "tempo": 120.0
            },
            {
                "start_time": 72.9022727,
                "end_time": 73.0386364,
                "pitch": 70,
                "velocity": 32,
                "duration": 0.1363636,
                "tempo": 120.0
            },
            {
                "start_time": 72.9022727,
                "end_time": 73.0386364,
                "pitch": 70,
                "velocity": 32,
                "duration": 0.1363636,
                "tempo": 120.0
            },
            {
                "start_time": 73.0386364,
                "end_time": 73.1772727,
                "pitch": 72,
                "velocity": 32,
                "duration": 0.1386364,
                "tempo": 120.0
            },
            {
                "start_time": 73.0409091,
                "end_time": 73.1772727,
                "pitch": 72,
                "velocity": 32,
                "duration": 0.1363636,
                "tempo": 120.0
            },
            {
                "start_time": 73.1772727,
                "end_time": 73.3409091,
                "pitch": 77,
                "velocity": 32,
                "duration": 0.1636364,
                "tempo": 120.0
            },
            {
                "start_time": 73.1772727,
                "end_time": 73.3409091,
                "pitch": 77,
                "velocity": 32,
                "duration": 0.1636364,
                "tempo": 120.0
            },
            {
                "start_time": 73.3409091,
                "end_time": 73.4886364,
                "pitch": 70,
                "velocity": 32,
                "duration": 0.1477273,
                "tempo": 120.0
            },
            {
                "start_time": 73.3409091,
                "end_time": 73.4886364,
                "pitch": 70,
                "velocity": 32,
                "duration": 0.1477273,
                "tempo": 120.0
            },
            {
                "start_time": 73.4886364,
                "end_time": 73.6363636,
                "pitch": 72,
                "velocity": 32,
                "duration": 0.1477273,
                "tempo": 120.0
            },
            {
                "start_time": 73.4886364,
                "end_time": 73.6363636,
                "pitch": 72,
                "velocity": 32,
                "duration": 0.1477273,
                "tempo": 120.0
            },
            {
                "start_time": 73.6363636,
                "end_time": 73.8113636,
                "pitch": 77,
                "velocity": 32,
                "duration": 0.175,
                "tempo": 120.0
            },
            {
                "start_time": 73.6363636,
                "end_time": 73.8113636,
                "pitch": 77,
                "velocity": 32,
                "duration": 0.175,
                "tempo": 120.0
            },
            {
                "start_time": 73.8113636,
                "end_time": 73.9681818,
                "pitch": 70,
                "velocity": 20,
                "duration": 0.1568182,
                "tempo": 120.0
            },
            {
                "start_time": 73.8113636,
                "end_time": 73.9681818,
                "pitch": 70,
                "velocity": 32,
                "duration": 0.1568182,
                "tempo": 120.0
            },
            {
                "start_time": 73.9681818,
                "end_time": 74.1409091,
                "pitch": 72,
                "velocity": 20,
                "duration": 0.1727273,
                "tempo": 120.0
            },
            {
                "start_time": 73.9681818,
                "end_time": 74.1409091,
                "pitch": 72,
                "velocity": 20,
                "duration": 0.1727273,
                "tempo": 120.0
            },
            {
                "start_time": 74.1409091,
                "end_time": 74.2909091,
                "pitch": 77,
                "velocity": 20,
                "duration": 0.15,
                "tempo": 120.0
            },
            {
                "start_time": 74.1409091,
                "end_time": 74.2909091,
                "pitch": 77,
                "velocity": 20,
                "duration": 0.15,
                "tempo": 120.0
            },
            {
                "start_time": 74.2909091,
                "end_time": 74.4431818,
                "pitch": 70,
                "velocity": 20,
                "duration": 0.1522727,
                "tempo": 120.0
            },
            {
                "start_time": 74.2909091,
                "end_time": 74.4431818,
                "pitch": 70,
                "velocity": 20,
                "duration": 0.1522727,
                "tempo": 120.0
            },
            {
                "start_time": 74.4431818,
                "end_time": 74.6090909,
                "pitch": 72,
                "velocity": 20,
                "duration": 0.1659091,
                "tempo": 120.0
            },
            {
                "start_time": 74.4431818,
                "end_time": 74.6090909,
                "pitch": 72,
                "velocity": 20,
                "duration": 0.1659091,
                "tempo": 120.0
            },
            {
                "start_time": 74.6090909,
                "end_time": 74.7636364,
                "pitch": 77,
                "velocity": 20,
                "duration": 0.1545455,
                "tempo": 120.0
            },
            {
                "start_time": 74.6090909,
                "end_time": 74.7636364,
                "pitch": 77,
                "velocity": 20,
                "duration": 0.1545455,
                "tempo": 120.0
            },
            {
                "start_time": 74.7636364,
                "end_time": 74.9181818,
                "pitch": 70,
                "velocity": 16,
                "duration": 0.1545455,
                "tempo": 120.0
            },
            {
                "start_time": 74.7636364,
                "end_time": 74.9181818,
                "pitch": 70,
                "velocity": 20,
                "duration": 0.1545455,
                "tempo": 120.0
            },
            {
                "start_time": 74.9181818,
                "end_time": 75.0886364,
                "pitch": 72,
                "velocity": 16,
                "duration": 0.1704545,
                "tempo": 120.0
            },
            {
                "start_time": 74.9181818,
                "end_time": 75.0886364,
                "pitch": 72,
                "velocity": 16,
                "duration": 0.1704545,
                "tempo": 120.0
            },
            {
                "start_time": 75.0886364,
                "end_time": 75.2409091,
                "pitch": 77,
                "velocity": 16,
                "duration": 0.1522727,
                "tempo": 120.0
            },
            {
                "start_time": 75.0886364,
                "end_time": 75.2409091,
                "pitch": 77,
                "velocity": 16,
                "duration": 0.1522727,
                "tempo": 120.0
            },
            {
                "start_time": 75.2409091,
                "end_time": 75.3909091,
                "pitch": 70,
                "velocity": 13,
                "duration": 0.15,
                "tempo": 120.0
            },
            {
                "start_time": 75.2409091,
                "end_time": 75.3909091,
                "pitch": 70,
                "velocity": 16,
                "duration": 0.15,
                "tempo": 120.0
            },
            {
                "start_time": 75.3909091,
                "end_time": 75.5590909,
                "pitch": 72,
                "velocity": 13,
                "duration": 0.1681818,
                "tempo": 120.0
            },
            {
                "start_time": 75.3909091,
                "end_time": 75.5590909,
                "pitch": 72,
                "velocity": 13,
                "duration": 0.1681818,
                "tempo": 120.0
            },
            {
                "start_time": 75.5590909,
                "end_time": 75.7159091,
                "pitch": 77,
                "velocity": 13,
                "duration": 0.1568182,
                "tempo": 120.0
            },
            {
                "start_time": 75.5590909,
                "end_time": 75.7159091,
                "pitch": 77,
                "velocity": 13,
                "duration": 0.1568182,
                "tempo": 120.0
            },
            {
                "start_time": 75.7159091,
                "end_time": 75.7181818,
                "pitch": 70,
                "velocity": 13,
                "duration": 0.0022727,
                "tempo": 120.0
            },
            {
                "start_time": 75.7181818,
                "end_time": 75.875,
                "pitch": 70,
                "velocity": 10,
                "duration": 0.1568182,
                "tempo": 120.0
            },
            {
                "start_time": 75.875,
                "end_time": 76.05,
                "pitch": 72,
                "velocity": 10,
                "duration": 0.175,
                "tempo": 120.0
            },
            {
                "start_time": 75.875,
                "end_time": 76.05,
                "pitch": 72,
                "velocity": 10,
                "duration": 0.175,
                "tempo": 120.0
            },
            {
                "start_time": 76.05,
                "end_time": 76.2045455,
                "pitch": 77,
                "velocity": 10,
                "duration": 0.1545455,
                "tempo": 120.0
            },
            {
                "start_time": 76.05,
                "end_time": 76.2045455,
                "pitch": 77,
                "velocity": 10,
                "duration": 0.1545455,
                "tempo": 120.0
            },
            {
                "start_time": 76.2045455,
                "end_time": 76.3590909,
                "pitch": 70,
                "velocity": 8,
                "duration": 0.1545455,
                "tempo": 120.0
            },
            {
                "start_time": 76.2045455,
                "end_time": 76.3590909,
                "pitch": 70,
                "velocity": 10,
                "duration": 0.1545455,
                "tempo": 120.0
            },
            {
                "start_time": 76.3590909,
                "end_time": 76.5295455,
                "pitch": 72,
                "velocity": 8,
                "duration": 0.1704545,
                "tempo": 120.0
            },
            {
                "start_time": 76.3590909,
                "end_time": 76.5295455,
                "pitch": 72,
                "velocity": 8,
                "duration": 0.1704545,
                "tempo": 120.0
            },
            {
                "start_time": 76.5295455,
                "end_time": 76.6818182,
                "pitch": 77,
                "velocity": 8,
                "duration": 0.1522727,
                "tempo": 120.0
            },
            {
                "start_time": 76.5295455,
                "end_time": 76.6818182,
                "pitch": 77,
                "velocity": 8,
                "duration": 0.1522727,
                "tempo": 120.0
            },
            {
                "start_time": 76.6818182,
                "end_time": 76.8318182,
                "pitch": 70,
                "velocity": 6,
                "duration": 0.15,
                "tempo": 120.0
            },
            {
                "start_time": 76.6818182,
                "end_time": 76.8318182,
                "pitch": 70,
                "velocity": 8,
                "duration": 0.15,
                "tempo": 120.0
            },
            {
                "start_time": 76.8318182,
                "end_time": 77.0,
                "pitch": 72,
                "velocity": 5,
                "duration": 0.1681818,
                "tempo": 120.0
            },
            {
                "start_time": 76.8318182,
                "end_time": 77.0,
                "pitch": 72,
                "velocity": 6,
                "duration": 0.1681818,
                "tempo": 120.0
            }
        ],
        "Oboe": [
            {
                "start_time": 26.1340909,
                "end_time": 26.2522727,
                "pitch": 62,
                "velocity": 101,
                "duration": 0.1181818,
                "tempo": 120.0
            },
            {
                "start_time": 26.2522727,
                "end_time": 26.5545455,
                "pitch": 63,
                "velocity": 64,
                "duration": 0.3022727,
                "tempo": 120.0
            },
            {
                "start_time": 26.5545455,
                "end_time": 26.8090909,
                "pitch": 63,
                "velocity": 80,
                "duration": 0.2545455,
                "tempo": 120.0
            },
            {
                "start_time": 26.8090909,
                "end_time": 27.0318182,
                "pitch": 63,
                "velocity": 80,
                "duration": 0.2227273,
                "tempo": 120.0
            },
            {
                "start_time": 27.0318182,
                "end_time": 27.2204545,
                "pitch": 63,
                "velocity": 80,
                "duration": 0.1886364,
                "tempo": 120.0
            },
            {
                "start_time": 27.2204545,
                "end_time": 27.3931818,
                "pitch": 63,
                "velocity": 80,
                "duration": 0.1727273,
                "tempo": 120.0
            },
            {
                "start_time": 27.3931818,
                "end_time": 27.5477273,
                "pitch": 63,
                "velocity": 80,
                "duration": 0.1545455,
                "tempo": 120.0
            },
            {
                "start_time": 27.5477273,
                "end_time": 27.6590909,
                "pitch": 63,
                "velocity": 101,
                "duration": 0.1113636,
                "tempo": 120.0
            },
            {
                "start_time": 27.6590909,
                "end_time": 27.7545455,
                "pitch": 63,
                "velocity": 101,
                "duration": 0.0954545,
                "tempo": 120.0
            },
            {
                "start_time": 27.7545455,
                "end_time": 27.9636364,
                "pitch": 63,
                "velocity": 101,
                "duration": 0.2090909,
                "tempo": 120.0
            },
            {
                "start_time": 27.9636364,
                "end_time": 28.0818182,
                "pitch": 62,
                "velocity": 101,
                "duration": 0.1181818,
                "tempo": 120.0
            },
            {
                "start_time": 28.0818182,
                "end_time": 28.2068182,
                "pitch": 63,
                "velocity": 101,
                "duration": 0.125,
                "tempo": 120.0
            },
            {
                "start_time": 28.2068182,
                "end_time": 28.3136364,
                "pitch": 62,
                "velocity": 80,
                "duration": 0.1068182,
                "tempo": 120.0
            },
            {
                "start_time": 28.3136364,
                "end_time": 28.4204545,
                "pitch": 63,
                "velocity": 80,
                "duration": 0.1068182,
                "tempo": 120.0
            },
            {
                "start_time": 28.4204545,
                "end_time": 28.5090909,
                "pitch": 62,
                "velocity": 80,
                "duration": 0.0886364,
                "tempo": 120.0
            },
            {
                "start_time": 28.5090909,
                "end_time": 28.8363636,
                "pitch": 63,
                "velocity": 101,
                "duration": 0.3272727,
                "tempo": 120.0
            }
        ],
        "Acoustic Bass": [
            {
                "start_time": 14.6681818,
                "end_time": 14.7886364,
                "pitch": 40,
                "velocity": 101,
                "duration": 0.1204545,
                "tempo": 120.0
            },
            {
                "start_time": 14.7886364,
                "end_time": 14.9090909,
                "pitch": 45,
                "velocity": 101,
                "duration": 0.1204545,
                "tempo": 120.0
            },
            {
                "start_time": 14.9090909,
                "end_time": 15.0295455,
                "pitch": 38,
                "velocity": 101,
                "duration": 0.1204545,
                "tempo": 120.0
            },
            {
                "start_time": 15.0295455,
                "end_time": 15.1477273,
                "pitch": 43,
                "velocity": 101,
                "duration": 0.1181818,
                "tempo": 120.0
            },
            {
                "start_time": 15.1477273,
                "end_time": 15.2681818,
                "pitch": 36,
                "velocity": 101,
                "duration": 0.1204545,
                "tempo": 120.0
            },
            {
                "start_time": 15.2681818,
                "end_time": 15.3886364,
                "pitch": 41,
                "velocity": 101,
                "duration": 0.1204545,
                "tempo": 120.0
            },
            {
                "start_time": 15.2681818,
                "end_time": 15.3886364,
                "pitch": 41,
                "velocity": 101,
                "duration": 0.1204545,
                "tempo": 120.0
            },
            {
                "start_time": 14.7886364,
                "end_time": 25.4022727,
                "pitch": 33,
                "velocity": 101,
                "duration": 10.6136364,
                "tempo": 120.0
            },
            {
                "start_time": 25.1636364,
                "end_time": 25.4022727,
                "pitch": 33,
                "velocity": 127,
                "duration": 0.2386364,
                "tempo": 120.0
            },
            {
                "start_time": 25.6431818,
                "end_time": 25.8886364,
                "pitch": 33,
                "velocity": 127,
                "duration": 0.2454545,
                "tempo": 120.0
            },
            {
                "start_time": 28.9681818,
                "end_time": 29.2136364,
                "pitch": 33,
                "velocity": 127,
                "duration": 0.2454545,
                "tempo": 120.0
            },
            {
                "start_time": 29.4590909,
                "end_time": 29.7,
                "pitch": 33,
                "velocity": 127,
                "duration": 0.2409091,
                "tempo": 120.0
            },
            {
                "start_time": 42.925,
                "end_time": 43.3818182,
                "pitch": 39,
                "velocity": 127,
                "duration": 0.4568182,
                "tempo": 120.0
            },
            {
                "start_time": 43.3818182,
                "end_time": 43.8340909,
                "pitch": 39,
                "velocity": 127,
                "duration": 0.4522727,
                "tempo": 120.0
            },
            {
                "start_time": 47.8090909,
                "end_time": 48.2909091,
                "pitch": 39,
                "velocity": 127,
                "duration": 0.4818182,
                "tempo": 120.0
            },
            {
                "start_time": 48.2909091,
                "end_time": 48.7704545,
                "pitch": 39,
                "velocity": 127,
                "duration": 0.4795455,
                "tempo": 120.0
            },
            {
                "start_time": 53.8681818,
                "end_time": 53.9886364,
                "pitch": 38,
                "velocity": 101,
                "duration": 0.1204545,
                "tempo": 120.0
            },
            {
                "start_time": 53.9886364,
                "end_time": 54.1090909,
                "pitch": 38,
                "velocity": 80,
                "duration": 0.1204545,
                "tempo": 120.0
            },
            {
                "start_time": 54.1090909,
                "end_time": 54.2272727,
                "pitch": 38,
                "velocity": 101,
                "duration": 0.1181818,
                "tempo": 120.0
            }
        ]
    }
}