{
    "mood": "angry",
    "instruments": {
        "Lead 2 (sawtooth)": [
            {
                "start_time": 16.0227273,
                "end_time": 16.125,
                "pitch": 59,
                "velocity": 80,
                "duration": 0.1022727,
                "tempo": 120.0
            },
            {
                "start_time": 16.1590909,
                "end_time": 16.2590909,
                "pitch": 59,
                "velocity": 80,
                "duration": 0.1,
                "tempo": 120.0
            },
            {
                "start_time": 16.2931818,
                "end_time": 16.3931818,
                "pitch": 59,
                "velocity": 80,
                "duration": 0.1,
                "tempo": 120.0
            },
            {
                "start_time": 16.4272727,
                "end_time": 16.7431818,
                "pitch": 55,
                "velocity": 80,
                "duration": 0.3159091,
                "tempo": 120.0
            },
            {
                "start_time": 16.8272727,
                "end_time": 17.1454545,
                "pitch": 57,
                "velocity": 80,
                "duration": 0.3181818,
                "tempo": 120.0
            },
            {
                "start_time": 17.2295455,
                "end_time": 17.5545455,
                "pitch": 54,
                "velocity": 80,
                "duration": 0.325,
                "tempo": 120.0
            },
            {
                "start_time": 17.6409091,
                "end_time": 17.7409091,
                "pitch": 59,
                "velocity": 80,
                "duration": 0.1,
                "tempo": 120.0
            },
            {
                "start_time": 17.7727273,
                "end_time": 17.8727273,
                "pitch": 59,
                "velocity": 80,
                "duration": 0.1,
                "tempo": 120.0
            },
            {
                "start_time": 17.9068182,
                "end_time": 18.0068182,
                "pitch": 59,
                "velocity": 80,
                "duration": 0.1,
                "tempo": 120.0
            },
            {
                "start_time": 18.0409091,
                "end_time": 18.35,
                "pitch": 55,
                "velocity": 80,
                "duration": 0.3090909,
                "tempo": 120.0
            },
            {
                "start_time": 18.4318182,
                "end_time": 18.75,
                "pitch": 57,
                "velocity": 80,
                "duration": 0.3181818,
                "tempo": 120.0
            },
            {
                "start_time": 18.8318182,
                "end_time": 19.1568182,
                "pitch": 54,
                "velocity": 80,
                "duration": 0.325,
                "tempo": 120.0
            },
            {
                "start_time": 19.2431818,
                "end_time": 19.3431818,
                "pitch": 59,
                "velocity": 80,
                "duration": 0.1,
                "tempo": 120.0
            },
            {
                "start_time": 19.3772727,
                "end_time": 19.4772727,
                "pitch": 59,
                "velocity": 80,
                "duration": 0.1,
                "tempo": 120.0
            },
            {
                "start_time": 19.5113636,
                "end_time": 19.6113636,
                "pitch": 59,
                "velocity": 80,
                "duration": 0.1,
                "tempo": 120.0
            },
            {
                "start_time": 19.6454545,
                "end_time": 19.9568182,
                "pitch": 55,
                "velocity": 80,
                "duration": 0.3113636,
                "tempo": 120.0
            },
            {
                "start_time": 20.0386364,
                "end_time": 20.3568182,
                "pitch": 57,
                "velocity": 80,
                "duration": 0.3181818,
                "tempo": 120.0
            },
            {
                "start_time": 20.4409091,
                "end_time": 20.7659091,
                "pitch": 54,
                "velocity": 80,
                "duration": 0.325,
                "tempo": 120.0
            },
            {
                "start_time": 20.8522727,
                "end_time": 20.9522727,
                "pitch": 59,
                "velocity": 80,
                "duration": 0.1,
                "tempo": 120.0
            },
            {
                "start_time": 20.9840909,
                "end_time": 21.0840909,
                "pitch": 59,
                "velocity": 80,
                "duration": 0.1,
                "tempo": 120.0
            },
            {
                "start_time": 21.1181818,
                "end_time": 21.2181818,
                "pitch": 59,
                "velocity": 80,
                "duration": 0.1,
                "tempo": 120.0
            },
            {
                "start_time": 21.2522727,
                "end_time": 21.5613636,
                "pitch": 55,
                "velocity": 80,
                "duration": 0.3090909,
                "tempo": 120.0
            },
            {
                "start_time": 21.6431818,
                "end_time": 21.9613636,
                "pitch": 57,
                "velocity": 80,
                "duration": 0.3181818,
                "tempo": 120.0
            },
            {
                "start_time": 22.0431818,
                "end_time": 22.3681818,
                "pitch": 54,
                "velocity": 80,
                "duration": 0.325,
                "tempo": 120.0
            }
        ],
        "Oboe": [
            {
                "start_time": 1.5704545,
                "end_time": 2.2136364,
                "pitch": 36,
                "velocity": 80,
                "duration": 0.6431818,
                "tempo": 120.0
            },
            {
                "start_time": 2.3840909,
                "end_time": 3.0181818,
                "pitch": 38,
                "velocity": 80,
                "duration": 0.6340909,
                "tempo": 120.0
            },
            {
                "start_time": 3.1840909,
                "end_time": 3.8204545,
                "pitch": 40,
                "velocity": 80,
                "duration": 0.6363636,
                "tempo": 120.0
            },
            {
                "start_time": 4.7795455,
                "end_time": 5.4181818,
                "pitch": 36,
                "velocity": 80,
                "duration": 0.6386364,
                "tempo": 120.0
            },
            {
                "start_time": 5.5840909,
                "end_time": 5.7386364,
                "pitch": 35,
                "velocity": 80,
                "duration": 0.1545455,
                "tempo": 120.0
            },
            {
                "start_time": 5.7909091,
                "end_time": 5.9431818,
                "pitch": 33,
                "velocity": 80,
                "duration": 0.1522727,
                "tempo": 120.0
            },
            {
                "start_time": 5.9954545,
                "end_time": 6.1477273,
                "pitch": 36,
                "velocity": 80,
                "duration": 0.1522727,
                "tempo": 120.0
            },
            {
                "start_time": 6.1977273,
                "end_time": 6.3477273,
                "pitch": 35,
                "velocity": 80,
                "duration": 0.15,
                "tempo": 120.0
            },
            {
                "start_time": 6.8022727,
                "end_time": 7.4295455,
                "pitch": 40,
                "velocity": 80,
                "duration": 0.6272727,
                "tempo": 120.0
            },
            {
                "start_time": 8.3954545,
                "end_time": 8.7159091,
                "pitch": 36,
                "velocity": 80,
                "duration": 0.3204545,
                "tempo": 120.0
            },
            {
                "start_time": 9.2090909,
                "end_time": 9.5204545,
                "pitch": 38,
                "velocity": 80,
                "duration": 0.3113636,
                "tempo": 120.0
            },
            {
                "start_time": 10.0113636,
                "end_time": 10.3318182,
                "pitch": 40,
                "velocity": 80,
                "duration": 0.3204545,
                "tempo": 120.0
            },
            {
                "start_time": 10.8181818,
                "end_time": 11.1363636,
                "pitch": 40,
                "velocity": 80,
                "duration": 0.3181818,
                "tempo": 120.0
            },
            {
                "start_time": 11.2204545,
                "end_time": 11.8545455,
                "pitch": 36,
                "velocity": 80,
                "duration": 0.6340909,
                "tempo": 120.0
            },
            {
                "start_time": 12.0227273,
                "end_time": 12.6659091,
                "pitch": 33,
                "velocity": 80,
                "duration": 0.6431818,
                "tempo": 120.0
            },
            {
                "start_time": 12.8363636,
                "end_time": 13.4613636,
                "pitch": 30,
                "velocity": 80,
                "duration": 0.625,
                "tempo": 120.0
            },
            {
                "start_time": 13.6295455,
                "end_time": 14.2659091,
                "pitch": 27,
                "velocity": 80,
                "duration": 0.6363636,
                "tempo": 120.0
            },
            {
                "start_time": 14.4340909,
                "end_time": 15.6977273,
                "pitch": 35,
                "velocity": 80,
                "duration": 1.2636364,
                "tempo": 120.0
            },
            {
                "start_time": 16.0227273,
                "end_time": 17.2977273,
                "pitch": 40,
                "velocity": 80,
                "duration": 1.275,
                "tempo": 120.0
            },
            {
                "start_time": 17.6409091,
                "end_time": 18.9,
                "pitch": 40,
                "velocity": 80,
                "duration": 1.2590909,
                "tempo": 120.0
            },
            {
                "start_time": 19.2431818,
                "end_time": 20.5090909,
                "pitch": 40,
                "velocity": 80,
                "duration": 1.2659091,
                "tempo": 120.0
            },
            {
                "start_time": 20.8522727,
                "end_time": 22.1113636,
                "pitch": 40,
                "velocity": 80,
                "duration": 1.2590909,
                "tempo": 120.0
            },
            {
                "start_time": 22.4704545,
                "end_time": 48.0954545,
                "pitch": 40,
                "velocity": 80,
                "duration": 25.625,
                "tempo": 120.0
            },
            {
                "start_time": 48.0954545,
                "end_time": 48.7295455,
                "pitch": 43,
                "velocity": 51,
                "duration": 0.6340909,
                "tempo": 120.0
            },
            {
                "start_time": 49.0977273,
                "end_time": 49.2477273,
                "pitch": 43,
                "velocity": 51,
                "duration": 0.15,
                "tempo": 120.0
            },
            {
                "start_time": 49.2977273,
                "end_time": 49.4522727,
                "pitch": 43,
                "velocity": 51,
                "duration": 0.1545455,
                "tempo": 120.0
            },
            {
                "start_time": 49.5022727,
                "end_time": 49.6568182,
                "pitch": 42,
                "velocity": 51,
                "duration": 0.1545455,
                "tempo": 120.0
            },
            {
                "start_time": 49.7090909,
                "end_time": 50.3340909,
                "pitch": 40,
                "velocity": 51,
                "duration": 0.625,
                "tempo": 120.0
            },
            {
                "start_time": 50.7022727,
                "end_time": 50.8522727,
                "pitch": 40,
                "velocity": 51,
                "duration": 0.15,
                "tempo": 120.0
            },
            {
                "start_time": 50.9022727,
                "end_time": 51.0568182,
                "pitch": 40,
                "velocity": 51,
                "duration": 0.1545455,
                "tempo": 120.0
            },
            {
                "start_time": 51.1090909,
                "end_time": 51.2636364,
                "pitch": 41,
                "velocity": 51,
                "duration": 0.1545455,
                "tempo": 120.0
            },
            {
                "start_time": 51.3136364,
                "end_time": 51.9386364,
                "pitch": 45,
                "velocity": 51,
                "duration": 0.625,
                "tempo": 120.0
            },
            {
                "start_time": 52.3068182,
                "end_time": 52.4568182,
                "pitch": 45,
                "velocity": 51,
                "duration": 0.15,
                "tempo": 120.0
            },
            {
                "start_time": 52.5068182,
                "end_time": 52.6590909,
                "pitch": 45,
                "velocity": 51,
                "duration": 0.1522727,
                "tempo": 120.0
            },
            {
                "start_time": 52.7113636,
                "end_time": 52.8659091,
                "pitch": 43,
                "velocity": 51,
                "duration": 0.1545455,
                "tempo": 120.0
            },
            {
                "start_time": 52.9159091,
                "end_time": 53.5431818,
                "pitch": 42,
                "velocity": 51,
                "duration": 0.6272727,
                "tempo": 120.0
            },
            {
                "start_time": 53.7090909,
                "end_time": 54.3431818,
                "pitch": 47,
                "velocity": 51,
                "duration": 0.6340909,
                "tempo": 120.0
            }
        ],
        "Acoustic Grand Piano": [
            {
                "start_time": 22.4704545,
                "end_time": 22.5522727,
                "pitch": 71,
                "velocity": 40,
                "duration": 0.0818182,
                "tempo": 120.0
            },
            {
                "start_time": 22.5863636,
                "end_time": 22.6840909,
                "pitch": 67,
                "velocity": 40,
                "duration": 0.0977273,
                "tempo": 120.0
            },
            {
                "start_time": 22.7159091,
                "end_time": 22.8136364,
                "pitch": 64,
                "velocity": 40,
                "duration": 0.0977273,
                "tempo": 120.0
            },
            {
                "start_time": 22.8477273,
                "end_time": 22.9477273,
                "pitch": 71,
                "velocity": 40,
                "duration": 0.1,
                "tempo": 120.0
            },
            {
                "start_time": 22.9818182,
                "end_time": 23.0818182,
                "pitch": 67,
                "velocity": 40,
                "duration": 0.1,
                "tempo": 120.0
            },
            {
                "start_time": 23.1159091,
                "end_time": 23.2159091,
                "pitch": 64,
                "velocity": 40,
                "duration": 0.1,
                "tempo": 120.0
            },
            {
                "start_time": 23.25,
                "end_time": 23.35,
                "pitch": 71,
                "velocity": 40,
                "duration": 0.1,
                "tempo": 120.0
            },
            {
                "start_time": 23.3818182,
                "end_time": 23.4818182,
                "pitch": 67,
                "velocity": 40,
                "duration": 0.1,
                "tempo": 120.0
            },
            {
                "start_time": 23.5159091,
                "end_time": 23.6159091,
                "pitch": 64,
                "velocity": 40,
                "duration": 0.1,
                "tempo": 120.0
            },
            {
                "start_time": 23.65,
                "end_time": 23.75,
                "pitch": 71,
                "velocity": 40,
                "duration": 0.1,
                "tempo": 120.0
            },
            {
                "start_time": 23.7818182,
                "end_time": 23.8818182,
                "pitch": 67,
                "velocity": 40,
                "duration": 0.1,
                "tempo": 120.0
            },
            {
                "start_time": 23.9159091,
                "end_time": 24.0159091,
                "pitch": 64,
                "velocity": 40,
                "duration": 0.1,
                "tempo": 120.0
            },
            {
                "start_time": 24.05,
                "end_time": 24.15,
                "pitch": 71,
                "velocity": 40,
                "duration": 0.1,
                "tempo": 120.0
            },
            {
                "start_time": 24.1840909,
                "end_time": 24.2840909,
                "pitch": 67,
                "velocity": 40,
                "duration": 0.1,
                "tempo": 120.0
            },
            {
                "start_time": 24.3181818,
                "end_time": 24.4181818,
                "pitch": 64,
                "velocity": 40,
                "duration": 0.1,
                "tempo": 120.0
            },
            {
                "start_time": 24.4522727,
                "end_time": 24.5522727,
                "pitch": 71,
                "velocity": 40,
                "duration": 0.1,
                "tempo": 120.0
            },
            {
                "start_time": 24.5863636,
                "end_time": 24.6863636,
                "pitch": 67,
                "velocity": 40,
                "duration": 0.1,
                "tempo": 120.0
            },
            {
                "start_time": 24.7181818,
                "end_time": 24.8181818,
                "pitch": 64,
                "velocity": 40,
                "duration": 0.1,
                "tempo": 120.0
            },
            {
                "start_time": 24.8522727,
                "end_time": 24.9522727,
                "pitch": 71,
                "velocity": 40,
                "duration": 0.1,
                "tempo": 120.0
            },
            {
                "start_time": 24.9863636,
                "end_time": 25.0863636,
                "pitch": 67,
                "velocity": 40,
                "duration": 0.1,
                "tempo": 120.0
            },
            {
                "start_time": 25.1204545,
                "end_time": 25.2204545,
                "pitch": 64,
                "velocity": 40,
                "duration": 0.1,
                "tempo": 120.0
            },
            {
                "start_time": 25.2545455,
                "end_time": 25.3545455,
                "pitch": 71,
                "velocity": 40,
                "duration": 0.1,
                "tempo": 120.0
            },
            {
                "start_time": 25.3886364,
                "end_time": 25.4886364,
                "pitch": 67,
                "velocity": 40,
                "duration": 0.1,
                "tempo": 120.0
            },
            {
                "start_time": 25.5204545,
                "end_time": 25.6204545,
                "pitch": 64,
                "velocity": 40,
                "duration": 0.1,
                "tempo": 120.0
            },
            {
                "start_time": 25.6545455,
                "end_time": 25.7545455,
                "pitch": 70,
                "velocity": 40,
                "duration": 0.1,
                "tempo": 120.0
            },
            {
                "start_time": 25.7886364,
                "end_time": 25.8886364,
                "pitch": 66,
                "velocity": 40,
                "duration": 0.1,
                "tempo": 120.0
            },
            {
                "start_time": 25.9204545,
                "end_time": 26.0204545,
                "pitch": 64,
                "velocity": 40,
                "duration": 0.1,
                "tempo": 120.0
            },
            {
                "start_time": 26.0545455,
                "end_time": 26.1545455,
                "pitch": 70,
                "velocity": 40,
                "duration": 0.1,
                "tempo": 120.0
            },
            {
                "start_time": 26.1886364,
                "end_time": 26.2886364,
                "pitch": 66,
                "velocity": 40,
                "duration": 0.1,
                "tempo": 120.0
            },
            {
                "start_time": 26.3227273,
                "end_time": 26.425,
                "pitch": 64,
                "velocity": 40,
                "duration": 0.1022727,
                "tempo": 120.0
            },
            {
                "start_time": 26.4568182,
                "end_time": 26.5568182,
                "pitch": 70,
                "velocity": 40,
                "duration": 0.1,
                "tempo": 120.0
            },
            {
                "start_time": 26.5909091,
                "end_time": 26.6909091,
                "pitch": 66,
                "velocity": 40,
                "duration": 0.1,
                "tempo": 120.0
            },
            {
                "start_time": 26.725,
                "end_time": 26.825,
                "pitch": 64,
                "velocity": 40,
                "duration": 0.1,
                "tempo": 120.0
            },
            {
                "start_time": 26.8568182,
                "end_time": 26.9590909,
                "pitch": 70,
                "velocity": 40,
                "duration": 0.1022727,
                "tempo": 120.0
            },
            {
                "start_time": 26.9909091,
                "end_time": 27.0931818,
                "pitch": 66,
                "velocity": 40,
                "duration": 0.1022727,
                "tempo": 120.0
            },
            {
                "start_time": 27.125,
                "end_time": 27.2272727,
                "pitch": 64,
                "velocity": 40,
                "duration": 0.1022727,
                "tempo": 120.0
            },
            {
                "start_time": 27.2590909,
                "end_time": 27.3590909,
                "pitch": 70,
                "velocity": 40,
                "duration": 0.1,
                "tempo": 120.0
            },
            {
                "start_time": 27.3931818,
                "end_time": 27.4931818,
                "pitch": 66,
                "velocity": 40,
                "duration": 0.1,
                "tempo": 120.0
            },
            {
                "start_time": 27.5272727,
                "end_time": 27.6272727,
                "pitch": 64,
                "velocity": 40,
                "duration": 0.1,
                "tempo": 120.0
            },
            {
                "start_time": 27.6590909,
                "end_time": 27.7590909,
                "pitch": 70,
                "velocity": 40,
                "duration": 0.1,
                "tempo": 120.0
            },
            {
                "start_time": 27.7931818,
                "end_time": 27.8931818,
                "pitch": 66,
                "velocity": 40,
                "duration": 0.1,
                "tempo": 120.0
            },
            {
                "start_time": 27.9272727,
                "end_time": 28.0272727,
                "pitch": 64,
                "velocity": 40,
                "duration": 0.1,
                "tempo": 120.0
            },
            {
                "start_time": 28.0590909,
                "end_time": 28.1613636,
                "pitch": 70,
                "velocity": 40,
                "duration": 0.1022727,
                "tempo": 120.0
            },
            {
                "start_time": 28.1954545,
                "end_time": 28.2954545,
                "pitch": 66,
                "velocity": 40,
                "duration": 0.1,
                "tempo": 120.0
            },
            {
                "start_time": 28.3295455,
                "end_time": 28.4295455,
                "pitch": 64,
                "velocity": 40,
                "duration": 0.1,
                "tempo": 120.0
            },
            {
                "start_time": 28.4636364,
                "end_time": 28.5636364,
                "pitch": 70,
                "velocity": 40,
                "duration": 0.1,
                "tempo": 120.0
            },
            {
                "start_time": 28.5954545,
                "end_time": 28.6954545,
                "pitch": 66,
                "velocity": 40,
                "duration": 0.1,
                "tempo": 120.0
            },
            {
                "start_time": 28.7295455,
                "end_time": 28.8295455,
                "pitch": 64,
                "velocity": 40,
                "duration": 0.1,
                "tempo": 120.0
            },
            {
                "start_time": 28.8636364,
                "end_time": 28.9636364,
                "pitch": 69,
                "velocity": 40,
                "duration": 0.1,
                "tempo": 120.0
            },
            {
                "start_time": 28.9977273,
                "end_time": 29.0977273,
                "pitch": 66,
                "velocity": 40,
                "duration": 0.1,
                "tempo": 120.0
            },
            {
                "start_time": 29.1318182,
                "end_time": 29.2318182,
                "pitch": 63,
                "velocity": 40,
                "duration": 0.1,
                "tempo": 120.0
            },
            {
                "start_time": 29.2659091,
                "end_time": 29.3659091,
                "pitch": 69,
                "velocity": 40,
                "duration": 0.1,
                "tempo": 120.0
            },
            {
                "start_time": 29.4,
                "end_time": 29.5,
                "pitch": 66,
                "velocity": 40,
                "duration": 0.1,
                "tempo": 120.0
            },
            {
                "start_time": 29.5318182,
                "end_time": 29.6318182,
                "pitch": 63,
                "velocity": 40,
                "duration": 0.1,
                "tempo": 120.0
            },
            {
                "start_time": 29.6659091,
                "end_time": 29.7659091,
                "pitch": 69,
                "velocity": 40,
                "duration": 0.1,
                "tempo": 120.0
            },
            {
                "start_time": 29.8,
                "end_time": 29.9,
                "pitch": 66,
                "velocity": 40,
                "duration": 0.1,
                "tempo": 120.0
            },
            {
                "start_time": 29.9318182,
                "end_time": 30.0318182,
                "pitch": 63,
                "velocity": 40,
                "duration": 0.1,
                "tempo": 120.0
            },
            {
                "start_time": 30.0659091,
                "end_time": 30.1659091,
                "pitch": 69,
                "velocity": 40,
                "duration": 0.1,
                "tempo": 120.0
            },
            {
                "start_time": 30.2,
                "end_time": 30.3,
                "pitch": 66,
                "velocity": 40,
                "duration": 0.1,
                "tempo": 120.0
            },
            {
                "start_time": 30.3340909,
                "end_time": 30.4340909,
                "pitch": 63,
                "velocity": 40,
                "duration": 0.1,
                "tempo": 120.0
            },
            {
                "start_time": 30.4681818,
                "end_time": 30.5681818,
                "pitch": 69,
                "velocity": 40,
                "duration": 0.1,
                "tempo": 120.0
            },
            {
                "start_time": 30.6022727,
                "end_time": 30.7022727,
                "pitch": 66,
                "velocity": 40,
                "duration": 0.1,
                "tempo": 120.0
            },
            {
                "start_time": 30.7340909,
                "end_time": 30.8340909,
                "pitch": 63,
                "velocity": 40,
                "duration": 0.1,
                "tempo": 120.0
            },
            {
                "start_time": 30.8681818,
                "end_time": 30.9681818,
                "pitch": 69,
                "velocity": 40,
                "duration": 0.1,
                "tempo": 120.0
            },
            {
                "start_time": 31.0022727,
                "end_time": 31.1022727,
                "pitch": 66,
                "velocity": 40,
                "duration": 0.1,
                "tempo": 120.0
            },
            {
                "start_time": 31.1363636,
                "end_time": 31.2363636,
                "pitch": 63,
                "velocity": 40,
                "duration": 0.1,
                "tempo": 120.0
            },
            {
                "start_time": 31.2704545,
                "end_time": 31.3704545,
                "pitch": 69,
                "velocity": 40,
                "duration": 0.1,
                "tempo": 120.0
            },
            {
                "start_time": 31.4045455,
                "end_time": 31.5045455,
                "pitch": 66,
                "velocity": 40,
                "duration": 0.1,
                "tempo": 120.0
            },
            {
                "start_time": 31.5386364,
                "end_time": 31.6386364,
                "pitch": 63,
                "velocity": 40,
                "duration": 0.1,
                "tempo": 120.0
            },
            {
                "start_time": 31.6704545,
                "end_time": 31.7704545,
                "pitch": 69,
                "velocity": 40,
                "duration": 0.1,
                "tempo": 120.0
            },
            {
                "start_time": 31.8045455,
                "end_time": 31.9045455,
                "pitch": 66,
                "velocity": 40,
                "duration": 0.1,
                "tempo": 120.0
            },
            {
                "start_time": 31.9386364,
                "end_time": 32.0386364,
                "pitch": 63,
                "velocity": 40,
                "duration": 0.1,
                "tempo": 120.0
            },
            {
                "start_time": 32.0704545,
                "end_time": 32.1727273,
                "pitch": 67,
                "velocity": 40,
                "duration": 0.1022727,
                "tempo": 120.0
            },
            {
                "start_time": 32.2045455,
                "end_time": 32.3068182,
                "pitch": 64,
                "velocity": 40,
                "duration": 0.1022727,
                "tempo": 120.0
            },
            {
                "start_time": 32.3386364,
                "end_time": 32.4409091,
                "pitch": 71,
                "velocity": 40,
                "duration": 0.1022727,
                "tempo": 120.0
            },
            {
                "start_time": 32.4727273,
                "end_time": 32.575,
                "pitch": 67,
                "velocity": 40,
                "duration": 0.1022727,
                "tempo": 120.0
            },
            {
                "start_time": 32.6068182,
                "end_time": 32.7090909,
                "pitch": 64,
                "velocity": 40,
                "duration": 0.1022727,
                "tempo": 120.0
            },
            {
                "start_time": 32.7431818,
                "end_time": 32.8431818,
                "pitch": 71,
                "velocity": 40,
                "duration": 0.1,
                "tempo": 120.0
            },
            {
                "start_time": 32.8772727,
                "end_time": 32.9772727,
                "pitch": 67,
                "velocity": 40,
                "duration": 0.1,
                "tempo": 120.0
            },
            {
                "start_time": 33.0090909,
                "end_time": 33.1090909,
                "pitch": 64,
                "velocity": 40,
                "duration": 0.1,
                "tempo": 120.0
            },
            {
                "start_time": 33.1431818,
                "end_time": 33.2431818,
                "pitch": 71,
                "velocity": 40,
                "duration": 0.1,
                "tempo": 120.0
            },
            {
                "start_time": 33.2772727,
                "end_time": 33.3772727,
                "pitch": 67,
                "velocity": 40,
                "duration": 0.1,
                "tempo": 120.0
            },
            {
                "start_time": 33.4090909,
                "end_time": 33.5090909,
                "pitch": 64,
                "velocity": 40,
                "duration": 0.1,
                "tempo": 120.0
            },
            {
                "start_time": 33.5431818,
                "end_time": 33.6431818,
                "pitch": 71,
                "velocity": 40,
                "duration": 0.1,
                "tempo": 120.0
            },
            {
                "start_time": 33.6772727,
                "end_time": 33.7772727,
                "pitch": 67,
                "velocity": 40,
                "duration": 0.1,
                "tempo": 120.0
            },
            {
                "start_time": 33.8090909,
                "end_time": 33.9090909,
                "pitch": 64,
                "velocity": 40,
                "duration": 0.1,
                "tempo": 120.0
            },
            {
                "start_time": 33.9431818,
                "end_time": 34.0431818,
                "pitch": 71,
                "velocity": 40,
                "duration": 0.1,
                "tempo": 120.0
            },
            {
                "start_time": 34.0772727,
                "end_time": 34.1772727,
                "pitch": 67,
                "velocity": 40,
                "duration": 0.1,
                "tempo": 120.0
            },
            {
                "start_time": 34.2090909,
                "end_time": 34.3090909,
                "pitch": 64,
                "velocity": 40,
                "duration": 0.1,
                "tempo": 120.0
            },
            {
                "start_time": 34.3431818,
                "end_time": 34.4431818,
                "pitch": 71,
                "velocity": 40,
                "duration": 0.1,
                "tempo": 120.0
            },
            {
                "start_time": 34.4772727,
                "end_time": 34.5772727,
                "pitch": 69,
                "velocity": 40,
                "duration": 0.1,
                "tempo": 120.0
            },
            {
                "start_time": 34.6113636,
                "end_time": 34.7113636,
                "pitch": 71,
                "velocity": 40,
                "duration": 0.1,
                "tempo": 120.0
            },
            {
                "start_time": 34.7454545,
                "end_time": 34.8454545,
                "pitch": 69,
                "velocity": 40,
                "duration": 0.1,
                "tempo": 120.0
            },
            {
                "start_time": 34.8795455,
                "end_time": 34.9795455,
                "pitch": 67,
                "velocity": 40,
                "duration": 0.1,
                "tempo": 120.0
            },
            {
                "start_time": 35.0113636,
                "end_time": 35.1113636,
                "pitch": 66,
                "velocity": 40,
                "duration": 0.1,
                "tempo": 120.0
            },
            {
                "start_time": 35.1454545,
                "end_time": 35.2454545,
                "pitch": 67,
                "velocity": 40,
                "duration": 0.1,
                "tempo": 120.0
            },
            {
                "start_time": 35.2795455,
                "end_time": 35.3795455,
                "pitch": 71,
                "velocity": 40,
                "duration": 0.1,
                "tempo": 120.0
            },
            {
                "start_time": 35.4113636,
                "end_time": 35.5113636,
                "pitch": 67,
                "velocity": 40,
                "duration": 0.1,
                "tempo": 120.0
            },
            {
                "start_time": 35.5454545,
                "end_time": 35.6454545,
                "pitch": 64,
                "velocity": 40,
                "duration": 0.1,
                "tempo": 120.0
            },
            {
                "start_time": 35.6795455,
                "end_time": 35.7795455,
                "pitch": 71,
                "velocity": 40,
                "duration": 0.1,
                "tempo": 120.0
            },
            {
                "start_time": 35.8113636,
                "end_time": 35.9113636,
                "pitch": 67,
                "velocity": 40,
                "duration": 0.1,
                "tempo": 120.0
            },
            {
                "start_time": 35.9454545,
                "end_time": 36.0454545,
                "pitch": 64,
                "velocity": 40,
                "duration": 0.1,
                "tempo": 120.0
            },
            {
                "start_time": 36.0795455,
                "end_time": 36.1795455,
                "pitch": 71,
                "velocity": 40,
                "duration": 0.1,
                "tempo": 120.0
            },
            {
                "start_time": 36.2113636,
                "end_time": 36.3113636,
                "pitch": 67,
                "velocity": 40,
                "duration": 0.1,
                "tempo": 120.0
            },
            {
                "start_time": 36.3454545,
                "end_time": 36.4454545,
                "pitch": 64,
                "velocity": 40,
                "duration": 0.1,
                "tempo": 120.0
            },
            {
                "start_time": 36.4795455,
                "end_time": 36.5795455,
                "pitch": 71,
                "velocity": 40,
                "duration": 0.1,
                "tempo": 120.0
            },
            {
                "start_time": 36.6136364,
                "end_time": 36.7136364,
                "pitch": 67,
                "velocity": 40,
                "duration": 0.1,
                "tempo": 120.0
            },
            {
                "start_time": 36.7477273,
                "end_time": 36.8477273,
                "pitch": 64,
                "velocity": 40,
                "duration": 0.1,
                "tempo": 120.0
            },
            {
                "start_time": 36.8818182,
                "end_time": 36.9818182,
                "pitch": 71,
                "velocity": 40,
                "duration": 0.1,
                "tempo": 120.0
            },
            {
                "start_time": 37.0159091,
                "end_time": 37.1159091,
                "pitch": 67,
                "velocity": 40,
                "duration": 0.1,
                "tempo": 120.0
            },
            {
                "start_time": 37.1477273,
                "end_time": 37.2477273,
                "pitch": 64,
                "velocity": 40,
                "duration": 0.1,
                "tempo": 120.0
            },
            {
                "start_time": 37.2818182,
                "end_time": 37.3818182,
                "pitch": 71,
                "velocity": 40,
                "duration": 0.1,
                "tempo": 120.0
            },
            {
                "start_time": 37.4159091,
                "end_time": 37.5159091,
                "pitch": 67,
                "velocity": 40,
                "duration": 0.1,
                "tempo": 120.0
            },
            {
                "start_time": 37.5477273,
                "end_time": 37.6477273,
                "pitch": 64,
                "velocity": 40,
                "duration": 0.1,
                "tempo": 120.0
            },
            {
                "start_time": 37.6818182,
                "end_time": 37.7818182,
                "pitch": 71,
                "velocity": 40,
                "duration": 0.1,
                "tempo": 120.0
            },
            {
                "start_time": 37.8159091,
                "end_time": 37.9159091,
                "pitch": 67,
                "velocity": 40,
                "duration": 0.1,
                "tempo": 120.0
            },
            {
                "start_time": 37.9477273,
                "end_time": 38.0477273,
                "pitch": 64,
                "velocity": 40,
                "duration": 0.1,
                "tempo": 120.0
            },
            {
                "start_time": 38.0818182,
                "end_time": 38.1818182,
                "pitch": 71,
                "velocity": 40,
                "duration": 0.1,
                "tempo": 120.0
            },
            {
                "start_time": 38.2159091,
                "end_time": 38.3159091,
                "pitch": 67,
                "velocity": 40,
                "duration": 0.1,
                "tempo": 120.0
            },
            {
                "start_time": 38.3477273,
                "end_time": 38.4477273,
                "pitch": 64,
                "velocity": 40,
                "duration": 0.1,
                "tempo": 120.0
            },
            {
                "start_time": 38.4818182,
                "end_time": 38.5818182,
                "pitch": 70,
                "velocity": 40,
                "duration": 0.1,
                "tempo": 120.0
            },
            {
                "start_time": 38.6159091,
                "end_time": 38.7159091,
                "pitch": 66,
                "velocity": 40,
                "duration": 0.1,
                "tempo": 120.0
            },
            {
                "start_time": 38.75,
                "end_time": 38.85,
                "pitch": 64,
                "velocity": 40,
                "duration": 0.1,
                "tempo": 120.0
            },
            {
                "start_time": 38.8840909,
                "end_time": 38.9840909,
                "pitch": 70,
                "velocity": 40,
                "duration": 0.1,
                "tempo": 120.0
            },
            {
                "start_time": 39.0181818,
                "end_time": 39.1181818,
                "pitch": 66,
                "velocity": 40,
                "duration": 0.1,
                "tempo": 120.0
            },
            {
                "start_time": 39.15,
                "end_time": 39.25,
                "pitch": 64,
                "velocity": 40,
                "duration": 0.1,
                "tempo": 120.0
            },
            {
                "start_time": 39.2840909,
                "end_time": 39.3840909,
                "pitch": 70,
                "velocity": 40,
                "duration": 0.1,
                "tempo": 120.0
            },
            {
                "start_time": 39.4181818,
                "end_time": 39.5181818,
                "pitch": 66,
                "velocity": 40,
                "duration": 0.1,
                "tempo": 120.0
            },
            {
                "start_time": 39.55,
                "end_time": 39.65,
                "pitch": 64,
                "velocity": 40,
                "duration": 0.1,
                "tempo": 120.0
            },
            {
                "start_time": 39.6840909,
                "end_time": 39.7840909,
                "pitch": 70,
                "velocity": 40,
                "duration": 0.1,
                "tempo": 120.0
            },
            {
                "start_time": 39.8181818,
                "end_time": 39.9181818,
                "pitch": 66,
                "velocity": 40,
                "duration": 0.1,
                "tempo": 120.0
            },
            {
                "start_time": 39.95,
                "end_time": 40.05,
                "pitch": 64,
                "velocity": 40,
                "duration": 0.1,
                "tempo": 120.0
            },
            {
                "start_time": 40.0840909,
                "end_time": 40.1840909,
                "pitch": 70,
                "velocity": 40,
                "duration": 0.1,
                "tempo": 120.0
            },
            {
                "start_time": 40.2181818,
                "end_time": 40.3181818,
                "pitch": 66,
                "velocity": 40,
                "duration": 0.1,
                "tempo": 120.0
            },
            {
                "start_time": 40.35,
                "end_time": 40.45,
                "pitch": 64,
                "velocity": 40,
                "duration": 0.1,
                "tempo": 120.0
            },
            {
                "start_time": 40.4840909,
                "end_time": 40.5840909,
                "pitch": 70,
                "velocity": 40,
                "duration": 0.1,
                "tempo": 120.0
            },
            {
                "start_time": 40.6181818,
                "end_time": 40.7181818,
                "pitch": 66,
                "velocity": 40,
                "duration": 0.1,
                "tempo": 120.0
            },
            {
                "start_time": 40.7522727,
                "end_time": 40.8545455,
                "pitch": 64,
                "velocity": 40,
                "duration": 0.1022727,
                "tempo": 120.0
            },
            {
                "start_time": 40.8863636,
                "end_time": 40.9863636,
                "pitch": 70,
                "velocity": 40,
                "duration": 0.1,
                "tempo": 120.0
            },
            {
                "start_time": 41.0204545,
                "end_time": 41.1204545,
                "pitch": 66,
                "velocity": 40,
                "duration": 0.1,
                "tempo": 120.0
            },
            {
                "start_time": 41.1545455,
                "end_time": 41.2545455,
                "pitch": 64,
                "velocity": 40,
                "duration": 0.1,
                "tempo": 120.0
            },
            {
                "start_time": 41.2863636,
                "end_time": 41.3863636,
                "pitch": 70,
                "velocity": 40,
                "duration": 0.1,
                "tempo": 120.0
            },
            {
                "start_time": 41.4204545,
                "end_time": 41.5204545,
                "pitch": 66,
                "velocity": 40,
                "duration": 0.1,
                "tempo": 120.0
            },
            {
                "start_time": 41.5545455,
                "end_time": 41.6545455,
                "pitch": 64,
                "velocity": 40,
                "duration": 0.1,
                "tempo": 120.0
            },
            {
                "start_time": 41.6863636,
                "end_time": 41.7863636,
                "pitch": 69,
                "velocity": 40,
                "duration": 0.1,
                "tempo": 120.0
            },
            {
                "start_time": 41.8204545,
                "end_time": 41.9204545,
                "pitch": 66,
                "velocity": 40,
                "duration": 0.1,
                "tempo": 120.0
            },
            {
                "start_time": 41.9545455,
                "end_time": 42.0545455,
                "pitch": 63,
                "velocity": 40,
                "duration": 0.1,
                "tempo": 120.0
            },
            {
                "start_time": 42.0863636,
                "end_time": 42.1863636,
                "pitch": 69,
                "velocity": 40,
                "duration": 0.1,
                "tempo": 120.0
            },
            {
                "start_time": 42.2204545,
                "end_time": 42.3204545,
                "pitch": 66,
                "velocity": 40,
                "duration": 0.1,
                "tempo": 120.0
            },
            {
                "start_time": 42.3545455,
                "end_time": 42.4545455,
                "pitch": 63,
                "velocity": 40,
                "duration": 0.1,
                "tempo": 120.0
            },
            {
                "start_time": 42.4863636,
                "end_time": 42.5886364,
                "pitch": 69,
                "velocity": 40,
                "duration": 0.1022727,
                "tempo": 120.0
            },
            {
                "start_time": 42.6204545,
                "end_time": 42.7227273,
                "pitch": 66,
                "velocity": 40,
                "duration": 0.1022727,
                "tempo": 120.0
            },
            {
                "start_time": 42.7545455,
                "end_time": 42.8568182,
                "pitch": 63,
                "velocity": 40,
                "duration": 0.1022727,
                "tempo": 120.0
            },
            {
                "start_time": 42.8886364,
                "end_time": 42.9886364,
                "pitch": 69,
                "velocity": 40,
                "duration": 0.1,
                "tempo": 120.0
            },
            {
                "start_time": 43.0227273,
                "end_time": 43.1227273,
                "pitch": 66,
                "velocity": 40,
                "duration": 0.1,
                "tempo": 120.0
            },
            {
                "start_time": 43.1568182,
                "end_time": 43.2568182,
                "pitch": 63,
                "velocity": 40,
                "duration": 0.1,
                "tempo": 120.0
            },
            {
                "start_time": 43.2886364,
                "end_time": 43.3886364,
                "pitch": 69,
                "velocity": 40,
                "duration": 0.1,
                "tempo": 120.0
            },
            {
                "start_time": 43.4227273,
                "end_time": 43.5227273,
                "pitch": 66,
                "velocity": 40,
                "duration": 0.1,
                "tempo": 120.0
            },
            {
                "start_time": 43.5568182,
                "end_time": 43.6568182,
                "pitch": 63,
                "velocity": 40,
                "duration": 0.1,
                "tempo": 120.0
            },
            {
                "start_time": 43.6886364,
                "end_time": 43.7886364,
                "pitch": 69,
                "velocity": 40,
                "duration": 0.1,
                "tempo": 120.0
            },
            {
                "start_time": 43.8227273,
                "end_time": 43.9227273,
                "pitch": 66,
                "velocity": 40,
                "duration": 0.1,
                "tempo": 120.0
            },
            {
                "start_time": 43.9568182,
                "end_time": 44.0568182,
                "pitch": 63,
                "velocity": 40,
                "duration": 0.1,
                "tempo": 120.0
            },
            {
                "start_time": 44.0886364,
                "end_time": 44.1886364,
                "pitch": 69,
                "velocity": 40,
                "duration": 0.1,
                "tempo": 120.0
            },
            {
                "start_time": 44.2227273,
                "end_time": 44.3227273,
                "pitch": 66,
                "velocity": 40,
                "duration": 0.1,
                "tempo": 120.0
            },
            {
                "start_time": 44.3568182,
                "end_time": 44.4568182,
                "pitch": 63,
                "velocity": 40,
                "duration": 0.1,
                "tempo": 120.0
            },
            {
                "start_time": 44.4886364,
                "end_time": 44.5909091,
                "pitch": 69,
                "velocity": 40,
                "duration": 0.1022727,
                "tempo": 120.0
            },
            {
                "start_time": 44.625,
                "end_time": 44.725,
                "pitch": 66,
                "velocity": 40,
                "duration": 0.1,
                "tempo": 120.0
            },
            {
                "start_time": 44.7590909,
                "end_time": 44.8590909,
                "pitch": 63,
                "velocity": 40,
                "duration": 0.1,
                "tempo": 120.0
            },
            {
                "start_time": 44.8931818,
                "end_time": 44.9931818,
                "pitch": 67,
                "velocity": 40,
                "duration": 0.1,
                "tempo": 120.0
            },
            {
                "start_time": 45.025,
                "end_time": 45.125,
                "pitch": 64,
                "velocity": 40,
                "duration": 0.1,
                "tempo": 120.0
            },
            {
                "start_time": 45.1590909,
                "end_time": 45.2590909,
                "pitch": 71,
                "velocity": 40,
                "duration": 0.1,
                "tempo": 120.0
            },
            {
                "start_time": 45.2931818,
                "end_time": 45.3931818,
                "pitch": 67,
                "velocity": 40,
                "duration": 0.1,
                "tempo": 120.0
            },
            {
                "start_time": 45.425,
                "end_time": 45.525,
                "pitch": 64,
                "velocity": 40,
                "duration": 0.1,
                "tempo": 120.0
            },
            {
                "start_time": 45.5590909,
                "end_time": 45.6590909,
                "pitch": 71,
                "velocity": 40,
                "duration": 0.1,
                "tempo": 120.0
            },
            {
                "start_time": 45.6931818,
                "end_time": 45.7931818,
                "pitch": 67,
                "velocity": 40,
                "duration": 0.1,
                "tempo": 120.0
            },
            {
                "start_time": 45.825,
                "end_time": 45.925,
                "pitch": 64,
                "velocity": 40,
                "duration": 0.1,
                "tempo": 120.0
            },
            {
                "start_time": 45.9590909,
                "end_time": 46.0590909,
                "pitch": 71,
                "velocity": 40,
                "duration": 0.1,
                "tempo": 120.0
            },
            {
                "start_time": 46.0931818,
                "end_time": 46.1931818,
                "pitch": 67,
                "velocity": 40,
                "duration": 0.1,
                "tempo": 120.0
            },
            {
                "start_time": 46.225,
                "end_time": 46.325,
                "pitch": 64,
                "velocity": 40,
                "duration": 0.1,
                "tempo": 120.0
            },
            {
                "start_time": 46.3590909,
                "end_time": 46.4590909,
                "pitch": 71,
                "velocity": 40,
                "duration": 0.1,
                "tempo": 120.0
            },
            {
                "start_time": 46.4931818,
                "end_time": 46.5931818,
                "pitch": 67,
                "velocity": 40,
                "duration": 0.1,
                "tempo": 120.0
            },
            {
                "start_time": 46.6272727,
                "end_time": 46.7272727,
                "pitch": 64,
                "velocity": 40,
                "duration": 0.1,
                "tempo": 120.0
            },
            {
                "start_time": 46.7613636,
                "end_time": 46.8613636,
                "pitch": 71,
                "velocity": 40,
                "duration": 0.1,
                "tempo": 120.0
            },
            {
                "start_time": 46.8954545,
                "end_time": 46.9954545,
                "pitch": 67,
                "velocity": 40,
                "duration": 0.1,
                "tempo": 120.0
            },
            {
                "start_time": 47.0295455,
                "end_time": 47.1295455,
                "pitch": 64,
                "velocity": 40,
                "duration": 0.1,
                "tempo": 120.0
            },
            {
                "start_time": 47.1613636,
                "end_time": 47.2613636,
                "pitch": 71,
                "velocity": 40,
                "duration": 0.1,
                "tempo": 120.0
            },
            {
                "start_time": 47.2954545,
                "end_time": 47.3954545,
                "pitch": 59,
                "velocity": 40,
                "duration": 0.1,
                "tempo": 120.0
            },
            {
                "start_time": 47.4295455,
                "end_time": 47.5295455,
                "pitch": 59,
                "velocity": 40,
                "duration": 0.1,
                "tempo": 120.0
            },
            {
                "start_time": 47.5613636,
                "end_time": 47.6613636,
                "pitch": 64,
                "velocity": 40,
                "duration": 0.1,
                "tempo": 120.0
            },
            {
                "start_time": 47.6954545,
                "end_time": 47.7954545,
                "pitch": 67,
                "velocity": 40,
                "duration": 0.1,
                "tempo": 120.0
            },
            {
                "start_time": 47.8295455,
                "end_time": 47.9295455,
                "pitch": 66,
                "velocity": 40,
                "duration": 0.1,
                "tempo": 120.0
            },
            {
                "start_time": 47.9613636,
                "end_time": 48.0613636,
                "pitch": 64,
                "velocity": 40,
                "duration": 0.1,
                "tempo": 120.0
            }
        ],
        "Trumpet": [
            {
                "start_time": 1.5704545,
                "end_time": 2.2136364,
                "pitch": 48,
                "velocity": 80,
                "duration": 0.6431818,
                "tempo": 120.0
            },
            {
                "start_time": 2.3840909,
                "end_time": 3.0181818,
                "pitch": 50,
                "velocity": 80,
                "duration": 0.6340909,
                "tempo": 120.0
            },
            {
                "start_time": 3.1840909,
                "end_time": 3.8204545,
                "pitch": 52,
                "velocity": 80,
                "duration": 0.6363636,
                "tempo": 120.0
            },
            {
                "start_time": 4.7795455,
                "end_time": 5.4181818,
                "pitch": 48,
                "velocity": 80,
                "duration": 0.6386364,
                "tempo": 120.0
            },
            {
                "start_time": 5.5840909,
                "end_time": 5.7386364,
                "pitch": 47,
                "velocity": 80,
                "duration": 0.1545455,
                "tempo": 120.0
            },
            {
                "start_time": 5.7909091,
                "end_time": 5.9431818,
                "pitch": 45,
                "velocity": 80,
                "duration": 0.1522727,
                "tempo": 120.0
            },
            {
                "start_time": 5.9954545,
                "end_time": 6.1477273,
                "pitch": 48,
                "velocity": 80,
                "duration": 0.1522727,
                "tempo": 120.0
            },
            {
                "start_time": 6.1977273,
                "end_time": 6.3477273,
                "pitch": 47,
                "velocity": 80,
                "duration": 0.15,
                "tempo": 120.0
            },
            {
                "start_time": 6.8022727,
                "end_time": 7.4295455,
                "pitch": 52,
                "velocity": 80,
                "duration": 0.6272727,
                "tempo": 120.0
            },
            {
                "start_time": 8.3954545,
                "end_time": 8.7159091,
                "pitch": 48,
                "velocity": 80,
                "duration": 0.3204545,
                "tempo": 120.0
            },
            {
                "start_time": 9.2090909,
                "end_time": 9.5204545,
                "pitch": 50,
                "velocity": 80,
                "duration": 0.3113636,
                "tempo": 120.0
            },
            {
                "start_time": 10.0113636,
                "end_time": 10.3318182,
                "pitch": 52,
                "velocity": 80,
                "duration": 0.3204545,
                "tempo": 120.0
            },
            {
                "start_time": 10.8181818,
                "end_time": 11.1363636,
                "pitch": 52,
                "velocity": 80,
                "duration": 0.3181818,
                "tempo": 120.0
            },
            {
                "start_time": 11.2204545,
                "end_time": 11.8545455,
                "pitch": 48,
                "velocity": 80,
                "duration": 0.6340909,
                "tempo": 120.0
            },
            {
                "start_time": 12.0227273,
                "end_time": 12.6659091,
                "pitch": 45,
                "velocity": 80,
                "duration": 0.6431818,
                "tempo": 120.0
            },
            {
                "start_time": 12.8363636,
                "end_time": 13.4613636,
                "pitch": 42,
                "velocity": 80,
                "duration": 0.625,
                "tempo": 120.0
            },
            {
                "start_time": 13.6295455,
                "end_time": 14.2659091,
                "pitch": 39,
                "velocity": 80,
                "duration": 0.6363636,
                "tempo": 120.0
            },
            {
                "start_time": 14.4340909,
                "end_time": 15.6977273,
                "pitch": 47,
                "velocity": 80,
                "duration": 1.2636364,
                "tempo": 120.0
            },
            {
                "start_time": 16.0227273,
                "end_time": 48.0954545,
                "pitch": 59,
                "velocity": 80,
                "duration": 32.0727273,
                "tempo": 120.0
            },
            {
                "start_time": 48.0954545,
                "end_time": 48.7295455,
                "pitch": 48,
                "velocity": 64,
                "duration": 0.6340909,
                "tempo": 120.0
            },
            {
                "start_time": 49.0977273,
                "end_time": 49.2477273,
                "pitch": 48,
                "velocity": 64,
                "duration": 0.15,
                "tempo": 120.0
            },
            {
                "start_time": 49.2977273,
                "end_time": 49.4522727,
                "pitch": 48,
                "velocity": 64,
                "duration": 0.1545455,
                "tempo": 120.0
            },
            {
                "start_time": 49.5022727,
                "end_time": 49.6568182,
                "pitch": 47,
                "velocity": 64,
                "duration": 0.1545455,
                "tempo": 120.0
            },
            {
                "start_time": 49.7090909,
                "end_time": 50.3340909,
                "pitch": 45,
                "velocity": 64,
                "duration": 0.625,
                "tempo": 120.0
            },
            {
                "start_time": 50.7022727,
                "end_time": 50.8522727,
                "pitch": 45,
                "velocity": 64,
                "duration": 0.15,
                "tempo": 120.0
            },
            {
                "start_time": 50.9022727,
                "end_time": 51.0568182,
                "pitch": 45,
                "velocity": 64,
                "duration": 0.1545455,
                "tempo": 120.0
            },
            {
                "start_time": 51.1090909,
                "end_time": 51.2636364,
                "pitch": 46,
                "velocity": 64,
                "duration": 0.1545455,
                "tempo": 120.0
            },
            {
                "start_time": 51.3136364,
                "end_time": 51.9386364,
                "pitch": 50,
                "velocity": 64,
                "duration": 0.625,
                "tempo": 120.0
            },
            {
                "start_time": 52.3068182,
                "end_time": 52.4568182,
                "pitch": 50,
                "velocity": 64,
                "duration": 0.15,
                "tempo": 120.0
            },
            {
                "start_time": 52.5068182,
                "end_time": 52.6590909,
                "pitch": 50,
                "velocity": 64,
                "duration": 0.1522727,
                "tempo": 120.0
            },
            {
                "start_time": 52.7113636,
                "end_time": 52.8659091,
                "pitch": 48,
                "velocity": 64,
                "duration": 0.1545455,
                "tempo": 120.0
            },
            {
                "start_time": 52.9159091,
                "end_time": 53.5431818,
                "pitch": 47,
                "velocity": 64,
                "duration": 0.6272727,
                "tempo": 120.0
            },
            {
                "start_time": 53.7090909,
                "end_time": 54.3431818,
                "pitch": 51,
                "velocity": 64,
                "duration": 0.6340909,
                "tempo": 120.0
            }
        ],
        "Harpsichord": [
            {
                "start_time": 54.5090909,
                "end_time": 54.6090909,
                "pitch": 64,
                "velocity": 40,
                "duration": 0.1,
                "tempo": 120.0
            },
            {
                "start_time": 54.6431818,
                "end_time": 54.7431818,
                "pitch": 59,
                "velocity": 40,
                "duration": 0.1,
                "tempo": 120.0
            },
            {
                "start_time": 54.7772727,
                "end_time": 54.8772727,
                "pitch": 59,
                "velocity": 40,
                "duration": 0.1,
                "tempo": 120.0
            },
            {
                "start_time": 54.9113636,
                "end_time": 55.0113636,
                "pitch": 64,
                "velocity": 40,
                "duration": 0.1,
                "tempo": 120.0
            },
            {
                "start_time": 55.0454545,
                "end_time": 55.1454545,
                "pitch": 59,
                "velocity": 40,
                "duration": 0.1,
                "tempo": 120.0
            },
            {
                "start_time": 55.1795455,
                "end_time": 55.2795455,
                "pitch": 59,
                "velocity": 40,
                "duration": 0.1,
                "tempo": 120.0
            },
            {
                "start_time": 55.3113636,
                "end_time": 55.4113636,
                "pitch": 59,
                "velocity": 40,
                "duration": 0.1,
                "tempo": 120.0
            },
            {
                "start_time": 55.4454545,
                "end_time": 55.5454545,
                "pitch": 64,
                "velocity": 40,
                "duration": 0.1,
                "tempo": 120.0
            },
            {
                "start_time": 55.5795455,
                "end_time": 55.6795455,
                "pitch": 66,
                "velocity": 40,
                "duration": 0.1,
                "tempo": 120.0
            },
            {
                "start_time": 55.7113636,
                "end_time": 55.8113636,
                "pitch": 67,
                "velocity": 40,
                "duration": 0.1,
                "tempo": 120.0
            },
            {
                "start_time": 55.8454545,
                "end_time": 55.9454545,
                "pitch": 66,
                "velocity": 40,
                "duration": 0.1,
                "tempo": 120.0
            },
            {
                "start_time": 55.9795455,
                "end_time": 56.0795455,
                "pitch": 64,
                "velocity": 40,
                "duration": 0.1,
                "tempo": 120.0
            },
            {
                "start_time": 56.1113636,
                "end_time": 56.2113636,
                "pitch": 64,
                "velocity": 40,
                "duration": 0.1,
                "tempo": 120.0
            },
            {
                "start_time": 56.2454545,
                "end_time": 56.3454545,
                "pitch": 59,
                "velocity": 40,
                "duration": 0.1,
                "tempo": 120.0
            },
            {
                "start_time": 56.3795455,
                "end_time": 56.4795455,
                "pitch": 59,
                "velocity": 40,
                "duration": 0.1,
                "tempo": 120.0
            },
            {
                "start_time": 56.5113636,
                "end_time": 56.6113636,
                "pitch": 64,
                "velocity": 40,
                "duration": 0.1,
                "tempo": 120.0
            },
            {
                "start_time": 56.6454545,
                "end_time": 56.7477273,
                "pitch": 59,
                "velocity": 40,
                "duration": 0.1022727,
                "tempo": 120.0
            },
            {
                "start_time": 56.7795455,
                "end_time": 56.8818182,
                "pitch": 59,
                "velocity": 40,
                "duration": 0.1022727,
                "tempo": 120.0
            },
            {
                "start_time": 56.9136364,
                "end_time": 57.0181818,
                "pitch": 59,
                "velocity": 40,
                "duration": 0.1045455,
                "tempo": 120.0
            },
            {
                "start_time": 57.0522727,
                "end_time": 57.1545455,
                "pitch": 64,
                "velocity": 40,
                "duration": 0.1022727,
                "tempo": 120.0
            },
            {
                "start_time": 57.1886364,
                "end_time": 57.2909091,
                "pitch": 66,
                "velocity": 40,
                "duration": 0.1022727,
                "tempo": 120.0
            },
            {
                "start_time": 57.325,
                "end_time": 57.425,
                "pitch": 67,
                "velocity": 40,
                "duration": 0.1,
                "tempo": 120.0
            },
            {
                "start_time": 57.4590909,
                "end_time": 57.5590909,
                "pitch": 66,
                "velocity": 40,
                "duration": 0.1,
                "tempo": 120.0
            },
            {
                "start_time": 57.5931818,
                "end_time": 57.6931818,
                "pitch": 64,
                "velocity": 40,
                "duration": 0.1,
                "tempo": 120.0
            },
            {
                "start_time": 57.725,
                "end_time": 57.8227273,
                "pitch": 64,
                "velocity": 40,
                "duration": 0.0977273,
                "tempo": 120.0
            },
            {
                "start_time": 57.8568182,
                "end_time": 57.9545455,
                "pitch": 60,
                "velocity": 40,
                "duration": 0.0977273,
                "tempo": 120.0
            },
            {
                "start_time": 57.9863636,
                "end_time": 58.0840909,
                "pitch": 60,
                "velocity": 40,
                "duration": 0.0977273,
                "tempo": 120.0
            },
            {
                "start_time": 58.1181818,
                "end_time": 58.2181818,
                "pitch": 64,
                "velocity": 40,
                "duration": 0.1,
                "tempo": 120.0
            },
            {
                "start_time": 58.25,
                "end_time": 58.35,
                "pitch": 60,
                "velocity": 40,
                "duration": 0.1,
                "tempo": 120.0
            },
            {
                "start_time": 58.3840909,
                "end_time": 58.4840909,
                "pitch": 60,
                "velocity": 40,
                "duration": 0.1,
                "tempo": 120.0
            },
            {
                "start_time": 58.5181818,
                "end_time": 58.6204545,
                "pitch": 60,
                "velocity": 40,
                "duration": 0.1022727,
                "tempo": 120.0
            },
            {
                "start_time": 58.6545455,
                "end_time": 58.7568182,
                "pitch": 64,
                "velocity": 40,
                "duration": 0.1022727,
                "tempo": 120.0
            },
            {
                "start_time": 58.7909091,
                "end_time": 58.8931818,
                "pitch": 66,
                "velocity": 40,
                "duration": 0.1022727,
                "tempo": 120.0
            },
            {
                "start_time": 58.9272727,
                "end_time": 59.0272727,
                "pitch": 67,
                "velocity": 40,
                "duration": 0.1,
                "tempo": 120.0
            },
            {
                "start_time": 59.0590909,
                "end_time": 59.1568182,
                "pitch": 66,
                "velocity": 40,
                "duration": 0.0977273,
                "tempo": 120.0
            },
            {
                "start_time": 59.1886364,
                "end_time": 59.2886364,
                "pitch": 64,
                "velocity": 40,
                "duration": 0.1,
                "tempo": 120.0
            },
            {
                "start_time": 59.3204545,
                "end_time": 59.4204545,
                "pitch": 64,
                "velocity": 40,
                "duration": 0.1,
                "tempo": 120.0
            },
            {
                "start_time": 59.4545455,
                "end_time": 59.5545455,
                "pitch": 60,
                "velocity": 40,
                "duration": 0.1,
                "tempo": 120.0
            },
            {
                "start_time": 59.5863636,
                "end_time": 59.6863636,
                "pitch": 60,
                "velocity": 40,
                "duration": 0.1,
                "tempo": 120.0
            },
            {
                "start_time": 59.7204545,
                "end_time": 59.8204545,
                "pitch": 64,
                "velocity": 40,
                "duration": 0.1,
                "tempo": 120.0
            },
            {
                "start_time": 59.8545455,
                "end_time": 59.9545455,
                "pitch": 60,
                "velocity": 40,
                "duration": 0.1,
                "tempo": 120.0
            },
            {
                "start_time": 59.9863636,
                "end_time": 60.0863636,
                "pitch": 60,
                "velocity": 40,
                "duration": 0.1,
                "tempo": 120.0
            },
            {
                "start_time": 60.1204545,
                "end_time": 60.2227273,
                "pitch": 60,
                "velocity": 40,
                "duration": 0.1022727,
                "tempo": 120.0
            },
            {
                "start_time": 60.2568182,
                "end_time": 60.3590909,
                "pitch": 64,
                "velocity": 40,
                "duration": 0.1022727,
                "tempo": 120.0
            },
            {
                "start_time": 60.3931818,
                "end_time": 60.4977273,
                "pitch": 66,
                "velocity": 40,
                "duration": 0.1045455,
                "tempo": 120.0
            },
            {
                "start_time": 60.5318182,
                "end_time": 60.6318182,
                "pitch": 67,
                "velocity": 40,
                "duration": 0.1,
                "tempo": 120.0
            },
            {
                "start_time": 60.6636364,
                "end_time": 60.7636364,
                "pitch": 66,
                "velocity": 40,
                "duration": 0.1,
                "tempo": 120.0
            },
            {
                "start_time": 60.7977273,
                "end_time": 60.8977273,
                "pitch": 64,
                "velocity": 40,
                "duration": 0.1,
                "tempo": 120.0
            },
            {
                "start_time": 60.9318182,
                "end_time": 61.0295455,
                "pitch": 66,
                "velocity": 40,
                "duration": 0.0977273,
                "tempo": 120.0
            },
            {
                "start_time": 61.0613636,
                "end_time": 61.1590909,
                "pitch": 62,
                "velocity": 40,
                "duration": 0.0977273,
                "tempo": 120.0
            },
            {
                "start_time": 61.1931818,
                "end_time": 61.2909091,
                "pitch": 62,
                "velocity": 40,
                "duration": 0.0977273,
                "tempo": 120.0
            },
            {
                "start_time": 61.3227273,
                "end_time": 61.425,
                "pitch": 66,
                "velocity": 40,
                "duration": 0.1022727,
                "tempo": 120.0
            },
            {
                "start_time": 61.4590909,
                "end_time": 61.5636364,
                "pitch": 62,
                "velocity": 40,
                "duration": 0.1045455,
                "tempo": 120.0
            },
            {
                "start_time": 61.5977273,
                "end_time": 61.7,
                "pitch": 62,
                "velocity": 40,
                "duration": 0.1022727,
                "tempo": 120.0
            },
            {
                "start_time": 61.7340909,
                "end_time": 61.8318182,
                "pitch": 62,
                "velocity": 40,
                "duration": 0.0977273,
                "tempo": 120.0
            },
            {
                "start_time": 61.8636364,
                "end_time": 61.9636364,
                "pitch": 66,
                "velocity": 40,
                "duration": 0.1,
                "tempo": 120.0
            },
            {
                "start_time": 61.9954545,
                "end_time": 62.0931818,
                "pitch": 67,
                "velocity": 40,
                "duration": 0.0977273,
                "tempo": 120.0
            },
            {
                "start_time": 62.1272727,
                "end_time": 62.2272727,
                "pitch": 69,
                "velocity": 40,
                "duration": 0.1,
                "tempo": 120.0
            },
            {
                "start_time": 62.2590909,
                "end_time": 62.3590909,
                "pitch": 67,
                "velocity": 40,
                "duration": 0.1,
                "tempo": 120.0
            },
            {
                "start_time": 62.3931818,
                "end_time": 62.4931818,
                "pitch": 66,
                "velocity": 40,
                "duration": 0.1,
                "tempo": 120.0
            },
            {
                "start_time": 62.5272727,
                "end_time": 62.6272727,
                "pitch": 66,
                "velocity": 40,
                "duration": 0.1,
                "tempo": 120.0
            },
            {
                "start_time": 62.6613636,
                "end_time": 62.7613636,
                "pitch": 62,
                "velocity": 40,
                "duration": 0.1,
                "tempo": 120.0
            },
            {
                "start_time": 62.7954545,
                "end_time": 62.8954545,
                "pitch": 62,
                "velocity": 40,
                "duration": 0.1,
                "tempo": 120.0
            },
            {
                "start_time": 62.9295455,
                "end_time": 63.0318182,
                "pitch": 66,
                "velocity": 40,
                "duration": 0.1022727,
                "tempo": 120.0
            },
            {
                "start_time": 63.0659091,
                "end_time": 63.1681818,
                "pitch": 62,
                "velocity": 40,
                "duration": 0.1022727,
                "tempo": 120.0
            },
            {
                "start_time": 63.2022727,
                "end_time": 63.3045455,
                "pitch": 62,
                "velocity": 40,
                "duration": 0.1022727,
                "tempo": 120.0
            },
            {
                "start_time": 63.3386364,
                "end_time": 63.4386364,
                "pitch": 62,
                "velocity": 40,
                "duration": 0.1,
                "tempo": 120.0
            },
            {
                "start_time": 63.4704545,
                "end_time": 63.5681818,
                "pitch": 66,
                "velocity": 40,
                "duration": 0.0977273,
                "tempo": 120.0
            },
            {
                "start_time": 63.6,
                "end_time": 63.7,
                "pitch": 67,
                "velocity": 40,
                "duration": 0.1,
                "tempo": 120.0
            },
            {
                "start_time": 63.7318182,
                "end_time": 63.8318182,
                "pitch": 69,
                "velocity": 40,
                "duration": 0.1,
                "tempo": 120.0
            },
            {
                "start_time": 63.8659091,
                "end_time": 63.9659091,
                "pitch": 67,
                "velocity": 40,
                "duration": 0.1,
                "tempo": 120.0
            },
            {
                "start_time": 63.9977273,
                "end_time": 64.0977273,
                "pitch": 66,
                "velocity": 40,
                "duration": 0.1,
                "tempo": 120.0
            },
            {
                "start_time": 64.1318182,
                "end_time": 64.2318182,
                "pitch": 64,
                "velocity": 40,
                "duration": 0.1,
                "tempo": 120.0
            },
            {
                "start_time": 64.2659091,
                "end_time": 64.3659091,
                "pitch": 59,
                "velocity": 40,
                "duration": 0.1,
                "tempo": 120.0
            },
            {
                "start_time": 64.3977273,
                "end_time": 64.4977273,
                "pitch": 59,
                "velocity": 40,
                "duration": 0.1,
                "tempo": 120.0
            },
            {
                "start_time": 64.5318182,
                "end_time": 64.6318182,
                "pitch": 64,
                "velocity": 40,
                "duration": 0.1,
                "tempo": 120.0
            },
            {
                "start_time": 64.6659091,
                "end_time": 64.7659091,
                "pitch": 59,
                "velocity": 40,
                "duration": 0.1,
                "tempo": 120.0
            },
            {
                "start_time": 64.7977273,
                "end_time": 64.8977273,
                "pitch": 59,
                "velocity": 40,
                "duration": 0.1,
                "tempo": 120.0
            },
            {
                "start_time": 64.9318182,
                "end_time": 65.0318182,
                "pitch": 59,
                "velocity": 40,
                "duration": 0.1,
                "tempo": 120.0
            },
            {
                "start_time": 65.0659091,
                "end_time": 65.1659091,
                "pitch": 64,
                "velocity": 40,
                "duration": 0.1,
                "tempo": 120.0
            },
            {
                "start_time": 65.2,
                "end_time": 65.3,
                "pitch": 66,
                "velocity": 40,
                "duration": 0.1,
                "tempo": 120.0
            },
            {
                "start_time": 65.3340909,
                "end_time": 65.4340909,
                "pitch": 67,
                "velocity": 40,
                "duration": 0.1,
                "tempo": 120.0
            },
            {
                "start_time": 65.4681818,
                "end_time": 65.5704545,
                "pitch": 66,
                "velocity": 40,
                "duration": 0.1022727,
                "tempo": 120.0
            },
            {
                "start_time": 65.6022727,
                "end_time": 65.7045455,
                "pitch": 64,
                "velocity": 40,
                "duration": 0.1022727,
                "tempo": 120.0
            },
            {
                "start_time": 65.7363636,
                "end_time": 65.8363636,
                "pitch": 64,
                "velocity": 40,
                "duration": 0.1,
                "tempo": 120.0
            },
            {
                "start_time": 65.8704545,
                "end_time": 65.9704545,
                "pitch": 59,
                "velocity": 40,
                "duration": 0.1,
                "tempo": 120.0
            },
            {
                "start_time": 66.0045455,
                "end_time": 66.1045455,
                "pitch": 59,
                "velocity": 40,
                "duration": 0.1,
                "tempo": 120.0
            },
            {
                "start_time": 66.1363636,
                "end_time": 66.2386364,
                "pitch": 64,
                "velocity": 40,
                "duration": 0.1022727,
                "tempo": 120.0
            },
            {
                "start_time": 66.275,
                "end_time": 66.3772727,
                "pitch": 59,
                "velocity": 40,
                "duration": 0.1022727,
                "tempo": 120.0
            },
            {
                "start_time": 66.4113636,
                "end_time": 66.5136364,
                "pitch": 59,
                "velocity": 40,
                "duration": 0.1022727,
                "tempo": 120.0
            },
            {
                "start_time": 66.5477273,
                "end_time": 66.6477273,
                "pitch": 69,
                "velocity": 40,
                "duration": 0.1,
                "tempo": 120.0
            },
            {
                "start_time": 66.6818182,
                "end_time": 66.7840909,
                "pitch": 66,
                "velocity": 40,
                "duration": 0.1022727,
                "tempo": 120.0
            },
            {
                "start_time": 66.8159091,
                "end_time": 66.9181818,
                "pitch": 59,
                "velocity": 40,
                "duration": 0.1022727,
                "tempo": 120.0
            },
            {
                "start_time": 66.95,
                "end_time": 67.0477273,
                "pitch": 67,
                "velocity": 40,
                "duration": 0.0977273,
                "tempo": 120.0
            },
            {
                "start_time": 67.0818182,
                "end_time": 67.1795455,
                "pitch": 64,
                "velocity": 40,
                "duration": 0.0977273,
                "tempo": 120.0
            },
            {
                "start_time": 67.2113636,
                "end_time": 67.3090909,
                "pitch": 59,
                "velocity": 40,
                "duration": 0.0977273,
                "tempo": 120.0
            },
            {
                "start_time": 67.3431818,
                "end_time": 67.4431818,
                "pitch": 64,
                "velocity": 40,
                "duration": 0.1,
                "tempo": 120.0
            },
            {
                "start_time": 67.4772727,
                "end_time": 67.5772727,
                "pitch": 59,
                "velocity": 40,
                "duration": 0.1,
                "tempo": 120.0
            },
            {
                "start_time": 67.6113636,
                "end_time": 67.7113636,
                "pitch": 59,
                "velocity": 40,
                "duration": 0.1,
                "tempo": 120.0
            },
            {
                "start_time": 67.7454545,
                "end_time": 67.8454545,
                "pitch": 64,
                "velocity": 40,
                "duration": 0.1,
                "tempo": 120.0
            },
            {
                "start_time": 67.8795455,
                "end_time": 67.9795455,
                "pitch": 59,
                "velocity": 40,
                "duration": 0.1,
                "tempo": 120.0
            },
            {
                "start_time": 68.0113636,
                "end_time": 68.1113636,
                "pitch": 59,
                "velocity": 40,
                "duration": 0.1,
                "tempo": 120.0
            },
            {
                "start_time": 68.1454545,
                "end_time": 68.2454545,
                "pitch": 59,
                "velocity": 40,
                "duration": 0.1,
                "tempo": 120.0
            },
            {
                "start_time": 68.2795455,
                "end_time": 68.3795455,
                "pitch": 64,
                "velocity": 40,
                "duration": 0.1,
                "tempo": 120.0
            },
            {
                "start_time": 68.4136364,
                "end_time": 68.5136364,
                "pitch": 66,
                "velocity": 40,
                "duration": 0.1,
                "tempo": 120.0
            },
            {
                "start_time": 68.5477273,
                "end_time": 68.6477273,
                "pitch": 67,
                "velocity": 40,
                "duration": 0.1,
                "tempo": 120.0
            },
            {
                "start_time": 68.6818182,
                "end_time": 68.7818182,
                "pitch": 66,
                "velocity": 40,
                "duration": 0.1,
                "tempo": 120.0
            },
            {
                "start_time": 68.8159091,
                "end_time": 68.9159091,
                "pitch": 64,
                "velocity": 40,
                "duration": 0.1,
                "tempo": 120.0
            },
            {
                "start_time": 68.9477273,
                "end_time": 69.05,
                "pitch": 64,
                "velocity": 40,
                "duration": 0.1022727,
                "tempo": 120.0
            },
            {
                "start_time": 69.0818182,
                "end_time": 69.1840909,
                "pitch": 59,
                "velocity": 40,
                "duration": 0.1022727,
                "tempo": 120.0
            },
            {
                "start_time": 69.2159091,
                "end_time": 69.3181818,
                "pitch": 59,
                "velocity": 40,
                "duration": 0.1022727,
                "tempo": 120.0
            },
            {
                "start_time": 69.35,
                "end_time": 69.4522727,
                "pitch": 64,
                "velocity": 40,
                "duration": 0.1022727,
                "tempo": 120.0
            },
            {
                "start_time": 69.4840909,
                "end_time": 69.5863636,
                "pitch": 59,
                "velocity": 40,
                "duration": 0.1022727,
                "tempo": 120.0
            },
            {
                "start_time": 69.6204545,
                "end_time": 69.7204545,
                "pitch": 59,
                "velocity": 40,
                "duration": 0.1,
                "tempo": 120.0
            },
            {
                "start_time": 69.7545455,
                "end_time": 69.8568182,
                "pitch": 59,
                "velocity": 40,
                "duration": 0.1022727,
                "tempo": 120.0
            },
            {
                "start_time": 69.8909091,
                "end_time": 69.9931818,
                "pitch": 64,
                "velocity": 40,
                "duration": 0.1022727,
                "tempo": 120.0
            },
            {
                "start_time": 70.0272727,
                "end_time": 70.1295455,
                "pitch": 66,
                "velocity": 40,
                "duration": 0.1022727,
                "tempo": 120.0
            },
            {
                "start_time": 70.1636364,
                "end_time": 70.2636364,
                "pitch": 67,
                "velocity": 40,
                "duration": 0.1,
                "tempo": 120.0
            },
            {
                "start_time": 70.2977273,
                "end_time": 70.3977273,
                "pitch": 66,
                "velocity": 40,
                "duration": 0.1,
                "tempo": 120.0
            },
            {
                "start_time": 70.4318182,
                "end_time": 70.5318182,
                "pitch": 64,
                "velocity": 40,
                "duration": 0.1,
                "tempo": 120.0
            },
            {
                "start_time": 70.5636364,
                "end_time": 70.6636364,
                "pitch": 64,
                "velocity": 40,
                "duration": 0.1,
                "tempo": 120.0
            },
            {
                "start_time": 70.6954545,
                "end_time": 70.7931818,
                "pitch": 60,
                "velocity": 40,
                "duration": 0.0977273,
                "tempo": 120.0
            },
            {
                "start_time": 70.825,
                "end_time": 70.925,
                "pitch": 60,
                "velocity": 40,
                "duration": 0.1,
                "tempo": 120.0
            },
            {
                "start_time": 70.9568182,
                "end_time": 71.0568182,
                "pitch": 64,
                "velocity": 40,
                "duration": 0.1,
                "tempo": 120.0
            },
            {
                "start_time": 71.0909091,
                "end_time": 71.1909091,
                "pitch": 60,
                "velocity": 40,
                "duration": 0.1,
                "tempo": 120.0
            },
            {
                "start_time": 71.225,
                "end_time": 71.325,
                "pitch": 60,
                "velocity": 40,
                "duration": 0.1,
                "tempo": 120.0
            },
            {
                "start_time": 71.3590909,
                "end_time": 71.4590909,
                "pitch": 60,
                "velocity": 40,
                "duration": 0.1,
                "tempo": 120.0
            },
            {
                "start_time": 71.4931818,
                "end_time": 71.5954545,
                "pitch": 64,
                "velocity": 40,
                "duration": 0.1022727,
                "tempo": 120.0
            },
            {
                "start_time": 71.6272727,
                "end_time": 71.7295455,
                "pitch": 66,
                "velocity": 40,
                "duration": 0.1022727,
                "tempo": 120.0
            },
            {
                "start_time": 71.7613636,
                "end_time": 71.8613636,
                "pitch": 67,
                "velocity": 40,
                "duration": 0.1,
                "tempo": 120.0
            },
            {
                "start_time": 71.8954545,
                "end_time": 71.9954545,
                "pitch": 66,
                "velocity": 40,
                "duration": 0.1,
                "tempo": 120.0
            },
            {
                "start_time": 72.0295455,
                "end_time": 72.1295455,
                "pitch": 64,
                "velocity": 40,
                "duration": 0.1,
                "tempo": 120.0
            },
            {
                "start_time": 72.1613636,
                "end_time": 72.2636364,
                "pitch": 64,
                "velocity": 40,
                "duration": 0.1022727,
                "tempo": 120.0
            },
            {
                "start_time": 72.2954545,
                "end_time": 72.3977273,
                "pitch": 60,
                "velocity": 40,
                "duration": 0.1022727,
                "tempo": 120.0
            },
            {
                "start_time": 72.4318182,
                "end_time": 72.5318182,
                "pitch": 60,
                "velocity": 40,
                "duration": 0.1,
                "tempo": 120.0
            },
            {
                "start_time": 72.5659091,
                "end_time": 72.6659091,
                "pitch": 64,
                "velocity": 40,
                "duration": 0.1,
                "tempo": 120.0
            },
            {
                "start_time": 72.6977273,
                "end_time": 72.7977273,
                "pitch": 60,
                "velocity": 40,
                "duration": 0.1,
                "tempo": 120.0
            },
            {
                "start_time": 72.8318182,
                "end_time": 72.9318182,
                "pitch": 60,
                "velocity": 40,
                "duration": 0.1,
                "tempo": 120.0
            },
            {
                "start_time": 72.9659091,
                "end_time": 73.0681818,
                "pitch": 60,
                "velocity": 40,
                "duration": 0.1022727,
                "tempo": 120.0
            },
            {
                "start_time": 73.1022727,
                "end_time": 73.2045455,
                "pitch": 64,
                "velocity": 40,
                "duration": 0.1022727,
                "tempo": 120.0
            },
            {
                "start_time": 73.2386364,
                "end_time": 73.3409091,
                "pitch": 66,
                "velocity": 40,
                "duration": 0.1022727,
                "tempo": 120.0
            },
            {
                "start_time": 73.375,
                "end_time": 73.475,
                "pitch": 67,
                "velocity": 40,
                "duration": 0.1,
                "tempo": 120.0
            },
            {
                "start_time": 73.5090909,
                "end_time": 73.6090909,
                "pitch": 66,
                "velocity": 40,
                "duration": 0.1,
                "tempo": 120.0
            },
            {
                "start_time": 73.6431818,
                "end_time": 73.7431818,
                "pitch": 64,
                "velocity": 40,
                "duration": 0.1,
                "tempo": 120.0
            },
            {
                "start_time": 73.775,
                "end_time": 73.8727273,
                "pitch": 66,
                "velocity": 40,
                "duration": 0.0977273,
                "tempo": 120.0
            },
            {
                "start_time": 73.9068182,
                "end_time": 74.0045455,
                "pitch": 62,
                "velocity": 40,
                "duration": 0.0977273,
                "tempo": 120.0
            },
            {
                "start_time": 74.0363636,
                "end_time": 74.1363636,
                "pitch": 62,
                "velocity": 40,
                "duration": 0.1,
                "tempo": 120.0
            },
            {
                "start_time": 74.1681818,
                "end_time": 74.2681818,
                "pitch": 66,
                "velocity": 40,
                "duration": 0.1,
                "tempo": 120.0
            },
            {
                "start_time": 74.3022727,
                "end_time": 74.4022727,
                "pitch": 62,
                "velocity": 40,
                "duration": 0.1,
                "tempo": 120.0
            },
            {
                "start_time": 74.4363636,
                "end_time": 74.5363636,
                "pitch": 62,
                "velocity": 40,
                "duration": 0.1,
                "tempo": 120.0
            },
            {
                "start_time": 74.5704545,
                "end_time": 74.6704545,
                "pitch": 62,
                "velocity": 40,
                "duration": 0.1,
                "tempo": 120.0
            },
            {
                "start_time": 74.7045455,
                "end_time": 74.8045455,
                "pitch": 66,
                "velocity": 40,
                "duration": 0.1,
                "tempo": 120.0
            },
            {
                "start_time": 74.8363636,
                "end_time": 74.9363636,
                "pitch": 67,
                "velocity": 40,
                "duration": 0.1,
                "tempo": 120.0
            },
            {
                "start_time": 74.9704545,
                "end_time": 75.0704545,
                "pitch": 69,
                "velocity": 40,
                "duration": 0.1,
                "tempo": 120.0
            },
            {
                "start_time": 75.1045455,
                "end_time": 75.2045455,
                "pitch": 67,
                "velocity": 40,
                "duration": 0.1,
                "tempo": 120.0
            },
            {
                "start_time": 75.2386364,
                "end_time": 75.3409091,
                "pitch": 66,
                "velocity": 40,
                "duration": 0.1022727,
                "tempo": 120.0
            },
            {
                "start_time": 75.3727273,
                "end_time": 75.475,
                "pitch": 66,
                "velocity": 40,
                "duration": 0.1022727,
                "tempo": 120.0
            },
            {
                "start_time": 75.5068182,
                "end_time": 75.6090909,
                "pitch": 62,
                "velocity": 40,
                "duration": 0.1022727,
                "tempo": 120.0
            },
            {
                "start_time": 75.6409091,
                "end_time": 75.7431818,
                "pitch": 62,
                "velocity": 40,
                "duration": 0.1022727,
                "tempo": 120.0
            },
            {
                "start_time": 75.775,
                "end_time": 75.875,
                "pitch": 66,
                "velocity": 40,
                "duration": 0.1,
                "tempo": 120.0
            },
            {
                "start_time": 75.9090909,
                "end_time": 76.0090909,
                "pitch": 62,
                "velocity": 40,
                "duration": 0.1,
                "tempo": 120.0
            },
            {
                "start_time": 76.0431818,
                "end_time": 76.1431818,
                "pitch": 62,
                "velocity": 40,
                "duration": 0.1,
                "tempo": 120.0
            },
            {
                "start_time": 76.175,
                "end_time": 76.2772727,
                "pitch": 62,
                "velocity": 40,
                "duration": 0.1022727,
                "tempo": 120.0
            },
            {
                "start_time": 76.3113636,
                "end_time": 76.4113636,
                "pitch": 66,
                "velocity": 40,
                "duration": 0.1,
                "tempo": 120.0
            },
            {
                "start_time": 76.4454545,
                "end_time": 76.5454545,
                "pitch": 67,
                "velocity": 40,
                "duration": 0.1,
                "tempo": 120.0
            },
            {
                "start_time": 76.5795455,
                "end_time": 76.6795455,
                "pitch": 69,
                "velocity": 40,
                "duration": 0.1,
                "tempo": 120.0
            },
            {
                "start_time": 76.7113636,
                "end_time": 76.8113636,
                "pitch": 67,
                "velocity": 40,
                "duration": 0.1,
                "tempo": 120.0
            },
            {
                "start_time": 76.8454545,
                "end_time": 76.9454545,
                "pitch": 66,
                "velocity": 40,
                "duration": 0.1,
                "tempo": 120.0
            },
            {
                "start_time": 76.9795455,
                "end_time": 77.0795455,
                "pitch": 64,
                "velocity": 40,
                "duration": 0.1,
                "tempo": 120.0
            },
            {
                "start_time": 77.1136364,
                "end_time": 77.2136364,
                "pitch": 59,
                "velocity": 40,
                "duration": 0.1,
                "tempo": 120.0
            },
            {
                "start_time": 77.2477273,
                "end_time": 77.3477273,
                "pitch": 59,
                "velocity": 40,
                "duration": 0.1,
                "tempo": 120.0
            },
            {
                "start_time": 77.3818182,
                "end_time": 77.4818182,
                "pitch": 64,
                "velocity": 40,
                "duration": 0.1,
                "tempo": 120.0
            },
            {
                "start_time": 77.5159091,
                "end_time": 77.6159091,
                "pitch": 59,
                "velocity": 40,
                "duration": 0.1,
                "tempo": 120.0
            },
            {
                "start_time": 77.65,
                "end_time": 77.75,
                "pitch": 59,
                "velocity": 40,
                "duration": 0.1,
                "tempo": 120.0
            },
            {
                "start_time": 77.7840909,
                "end_time": 77.8840909,
                "pitch": 59,
                "velocity": 40,
                "duration": 0.1,
                "tempo": 120.0
            },
            {
                "start_time": 77.9181818,
                "end_time": 78.0181818,
                "pitch": 64,
                "velocity": 40,
                "duration": 0.1,
                "tempo": 120.0
            },
            {
                "start_time": 78.05,
                "end_time": 78.15,
                "pitch": 66,
                "velocity": 40,
                "duration": 0.1,
                "tempo": 120.0
            },
            {
                "start_time": 78.1840909,
                "end_time": 78.2863636,
                "pitch": 67,
                "velocity": 40,
                "duration": 0.1022727,
                "tempo": 120.0
            },
            {
                "start_time": 78.3204545,
                "end_time": 78.4227273,
                "pitch": 66,
                "velocity": 40,
                "duration": 0.1022727,
                "tempo": 120.0
            },
            {
                "start_time": 78.4568182,
                "end_time": 78.5613636,
                "pitch": 64,
                "velocity": 40,
                "duration": 0.1045455,
                "tempo": 120.0
            },
            {
                "start_time": 78.5954545,
                "end_time": 78.6931818,
                "pitch": 64,
                "velocity": 40,
                "duration": 0.0977273,
                "tempo": 120.0
            },
            {
                "start_time": 78.725,
                "end_time": 78.8227273,
                "pitch": 59,
                "velocity": 40,
                "duration": 0.0977273,
                "tempo": 120.0
            },
            {
                "start_time": 78.8568182,
                "end_time": 78.9545455,
                "pitch": 59,
                "velocity": 40,
                "duration": 0.0977273,
                "tempo": 120.0
            },
            {
                "start_time": 78.9863636,
                "end_time": 79.0886364,
                "pitch": 64,
                "velocity": 40,
                "duration": 0.1022727,
                "tempo": 120.0
            },
            {
                "start_time": 79.1204545,
                "end_time": 79.2227273,
                "pitch": 59,
                "velocity": 40,
                "duration": 0.1022727,
                "tempo": 120.0
            },
            {
                "start_time": 79.2545455,
                "end_time": 79.3568182,
                "pitch": 59,
                "velocity": 40,
                "duration": 0.1022727,
                "tempo": 120.0
            },
            {
                "start_time": 79.3886364,
                "end_time": 79.4931818,
                "pitch": 69,
                "velocity": 40,
                "duration": 0.1045455,
                "tempo": 120.0
            },
            {
                "start_time": 79.5272727,
                "end_time": 79.6295455,
                "pitch": 66,
                "velocity": 40,
                "duration": 0.1022727,
                "tempo": 120.0
            },
            {
                "start_time": 79.6636364,
                "end_time": 79.7659091,
                "pitch": 59,
                "velocity": 40,
                "duration": 0.1022727,
                "tempo": 120.0
            },
            {
                "start_time": 79.8,
                "end_time": 79.8977273,
                "pitch": 67,
                "velocity": 40,
                "duration": 0.0977273,
                "tempo": 120.0
            },
            {
                "start_time": 79.9318182,
                "end_time": 80.0295455,
                "pitch": 64,
                "velocity": 40,
                "duration": 0.0977273,
                "tempo": 120.0
            },
            {
                "start_time": 80.0613636,
                "end_time": 80.1590909,
                "pitch": 59,
                "velocity": 40,
                "duration": 0.0977273,
                "tempo": 120.0
            }
        ],
        "Electric Guitar (clean)": [
            {
                "start_time": 22.7159091,
                "end_time": 22.8136364,
                "pitch": 40,
                "velocity": 51,
                "duration": 0.0977273,
                "tempo": 120.0
            },
            {
                "start_time": 22.8477273,
                "end_time": 22.9477273,
                "pitch": 40,
                "velocity": 51,
                "duration": 0.1,
                "tempo": 120.0
            },
            {
                "start_time": 22.9818182,
                "end_time": 23.0818182,
                "pitch": 47,
                "velocity": 51,
                "duration": 0.1,
                "tempo": 120.0
            },
            {
                "start_time": 23.1159091,
                "end_time": 23.2159091,
                "pitch": 40,
                "velocity": 51,
                "duration": 0.1,
                "tempo": 120.0
            },
            {
                "start_time": 23.25,
                "end_time": 23.35,
                "pitch": 47,
                "velocity": 51,
                "duration": 0.1,
                "tempo": 120.0
            },
            {
                "start_time": 23.3818182,
                "end_time": 23.4818182,
                "pitch": 40,
                "velocity": 51,
                "duration": 0.1,
                "tempo": 120.0
            },
            {
                "start_time": 23.5159091,
                "end_time": 23.6159091,
                "pitch": 47,
                "velocity": 51,
                "duration": 0.1,
                "tempo": 120.0
            },
            {
                "start_time": 23.65,
                "end_time": 23.75,
                "pitch": 40,
                "velocity": 51,
                "duration": 0.1,
                "tempo": 120.0
            },
            {
                "start_time": 23.7818182,
                "end_time": 23.8818182,
                "pitch": 47,
                "velocity": 51,
                "duration": 0.1,
                "tempo": 120.0
            },
            {
                "start_time": 23.9159091,
                "end_time": 24.0159091,
                "pitch": 40,
                "velocity": 51,
                "duration": 0.1,
                "tempo": 120.0
            },
            {
                "start_time": 24.05,
                "end_time": 24.25,
                "pitch": 40,
                "velocity": 51,
                "duration": 0.2,
                "tempo": 120.0
            },
            {
                "start_time": 24.3181818,
                "end_time": 24.4181818,
                "pitch": 40,
                "velocity": 51,
                "duration": 0.1,
                "tempo": 120.0
            },
            {
                "start_time": 24.4522727,
                "end_time": 24.5522727,
                "pitch": 40,
                "velocity": 51,
                "duration": 0.1,
                "tempo": 120.0
            },
            {
                "start_time": 24.5863636,
                "end_time": 24.6863636,
                "pitch": 47,
                "velocity": 51,
                "duration": 0.1,
                "tempo": 120.0
            },
            {
                "start_time": 24.7181818,
                "end_time": 24.8181818,
                "pitch": 40,
                "velocity": 51,
                "duration": 0.1,
                "tempo": 120.0
            },
            {
                "start_time": 24.8522727,
                "end_time": 24.9522727,
                "pitch": 47,
                "velocity": 51,
                "duration": 0.1,
                "tempo": 120.0
            },
            {
                "start_time": 24.9863636,
                "end_time": 25.0863636,
                "pitch": 40,
                "velocity": 51,
                "duration": 0.1,
                "tempo": 120.0
            },
            {
                "start_time": 25.1204545,
                "end_time": 25.2204545,
                "pitch": 47,
                "velocity": 51,
                "duration": 0.1,
                "tempo": 120.0
            },
            {
                "start_time": 25.2545455,
                "end_time": 25.3545455,
                "pitch": 40,
                "velocity": 51,
                "duration": 0.1,
                "tempo": 120.0
            },
            {
                "start_time": 25.3886364,
                "end_time": 25.4886364,
                "pitch": 47,
                "velocity": 51,
                "duration": 0.1,
                "tempo": 120.0
            },
            {
                "start_time": 25.5204545,
                "end_time": 25.6204545,
                "pitch": 40,
                "velocity": 51,
                "duration": 0.1,
                "tempo": 120.0
            },
            {
                "start_time": 25.6545455,
                "end_time": 25.8545455,
                "pitch": 42,
                "velocity": 51,
                "duration": 0.2,
                "tempo": 120.0
            },
            {
                "start_time": 25.9204545,
                "end_time": 26.0204545,
                "pitch": 42,
                "velocity": 51,
                "duration": 0.1,
                "tempo": 120.0
            },
            {
                "start_time": 26.0545455,
                "end_time": 26.1545455,
                "pitch": 34,
                "velocity": 51,
                "duration": 0.1,
                "tempo": 120.0
            },
            {
                "start_time": 26.1886364,
                "end_time": 26.2886364,
                "pitch": 39,
                "velocity": 51,
                "duration": 0.1,
                "tempo": 120.0
            },
            {
                "start_time": 26.3227273,
                "end_time": 26.425,
                "pitch": 34,
                "velocity": 51,
                "duration": 0.1022727,
                "tempo": 120.0
            },
            {
                "start_time": 26.4568182,
                "end_time": 26.5568182,
                "pitch": 39,
                "velocity": 51,
                "duration": 0.1,
                "tempo": 120.0
            },
            {
                "start_time": 26.5909091,
                "end_time": 26.6909091,
                "pitch": 34,
                "velocity": 51,
                "duration": 0.1,
                "tempo": 120.0
            },
            {
                "start_time": 26.725,
                "end_time": 26.825,
                "pitch": 39,
                "velocity": 51,
                "duration": 0.1,
                "tempo": 120.0
            },
            {
                "start_time": 26.8568182,
                "end_time": 26.9590909,
                "pitch": 34,
                "velocity": 51,
                "duration": 0.1022727,
                "tempo": 120.0
            },
            {
                "start_time": 26.9909091,
                "end_time": 27.0931818,
                "pitch": 42,
                "velocity": 51,
                "duration": 0.1022727,
                "tempo": 120.0
            },
            {
                "start_time": 27.125,
                "end_time": 27.2272727,
                "pitch": 34,
                "velocity": 51,
                "duration": 0.1022727,
                "tempo": 120.0
            },
            {
                "start_time": 27.2590909,
                "end_time": 27.4590909,
                "pitch": 42,
                "velocity": 51,
                "duration": 0.2,
                "tempo": 120.0
            },
            {
                "start_time": 27.5272727,
                "end_time": 27.6272727,
                "pitch": 42,
                "velocity": 51,
                "duration": 0.1,
                "tempo": 120.0
            },
            {
                "start_time": 27.6590909,
                "end_time": 27.7590909,
                "pitch": 34,
                "velocity": 51,
                "duration": 0.1,
                "tempo": 120.0
            },
            {
                "start_time": 27.7931818,
                "end_time": 27.8931818,
                "pitch": 39,
                "velocity": 51,
                "duration": 0.1,
                "tempo": 120.0
            },
            {
                "start_time": 27.9272727,
                "end_time": 28.0272727,
                "pitch": 34,
                "velocity": 51,
                "duration": 0.1,
                "tempo": 120.0
            },
            {
                "start_time": 28.0590909,
                "end_time": 28.1613636,
                "pitch": 39,
                "velocity": 51,
                "duration": 0.1022727,
                "tempo": 120.0
            },
            {
                "start_time": 28.1954545,
                "end_time": 28.2954545,
                "pitch": 34,
                "velocity": 51,
                "duration": 0.1,
                "tempo": 120.0
            },
            {
                "start_time": 28.3295455,
                "end_time": 28.4295455,
                "pitch": 39,
                "velocity": 51,
                "duration": 0.1,
                "tempo": 120.0
            },
            {
                "start_time": 28.4636364,
                "end_time": 28.5636364,
                "pitch": 34,
                "velocity": 51,
                "duration": 0.1,
                "tempo": 120.0
            },
            {
                "start_time": 28.5954545,
                "end_time": 28.6954545,
                "pitch": 42,
                "velocity": 51,
                "duration": 0.1,
                "tempo": 120.0
            },
            {
                "start_time": 28.7295455,
                "end_time": 28.8295455,
                "pitch": 34,
                "velocity": 51,
                "duration": 0.1,
                "tempo": 120.0
            },
            {
                "start_time": 28.8636364,
                "end_time": 29.0636364,
                "pitch": 39,
                "velocity": 51,
                "duration": 0.2,
                "tempo": 120.0
            },
            {
                "start_time": 29.1318182,
                "end_time": 29.2318182,
                "pitch": 39,
                "velocity": 51,
                "duration": 0.1,
                "tempo": 120.0
            },
            {
                "start_time": 29.2659091,
                "end_time": 29.3659091,
                "pitch": 35,
                "velocity": 51,
                "duration": 0.1,
                "tempo": 120.0
            },
            {
                "start_time": 29.4,
                "end_time": 29.5,
                "pitch": 39,
                "velocity": 51,
                "duration": 0.1,
                "tempo": 120.0
            },
            {
                "start_time": 29.5318182,
                "end_time": 29.6318182,
                "pitch": 35,
                "velocity": 51,
                "duration": 0.1,
                "tempo": 120.0
            },
            {
                "start_time": 29.6659091,
                "end_time": 29.7659091,
                "pitch": 39,
                "velocity": 51,
                "duration": 0.1,
                "tempo": 120.0
            },
            {
                "start_time": 29.8,
                "end_time": 29.9,
                "pitch": 35,
                "velocity": 51,
                "duration": 0.1,
                "tempo": 120.0
            },
            {
                "start_time": 29.9318182,
                "end_time": 30.0318182,
                "pitch": 39,
                "velocity": 51,
                "duration": 0.1,
                "tempo": 120.0
            },
            {
                "start_time": 30.0659091,
                "end_time": 30.1659091,
                "pitch": 35,
                "velocity": 51,
                "duration": 0.1,
                "tempo": 120.0
            },
            {
                "start_time": 30.2,
                "end_time": 30.3,
                "pitch": 42,
                "velocity": 51,
                "duration": 0.1,
                "tempo": 120.0
            },
            {
                "start_time": 30.3340909,
                "end_time": 30.4340909,
                "pitch": 35,
                "velocity": 51,
                "duration": 0.1,
                "tempo": 120.0
            },
            {
                "start_time": 30.4681818,
                "end_time": 30.6681818,
                "pitch": 39,
                "velocity": 51,
                "duration": 0.2,
                "tempo": 120.0
            },
            {
                "start_time": 30.7340909,
                "end_time": 30.8340909,
                "pitch": 39,
                "velocity": 51,
                "duration": 0.1,
                "tempo": 120.0
            },
            {
                "start_time": 30.8681818,
                "end_time": 30.9681818,
                "pitch": 35,
                "velocity": 51,
                "duration": 0.1,
                "tempo": 120.0
            },
            {
                "start_time": 31.0022727,
                "end_time": 31.1022727,
                "pitch": 39,
                "velocity": 51,
                "duration": 0.1,
                "tempo": 120.0
            },
            {
                "start_time": 31.1363636,
                "end_time": 31.2363636,
                "pitch": 35,
                "velocity": 51,
                "duration": 0.1,
                "tempo": 120.0
            },
            {
                "start_time": 31.2704545,
                "end_time": 31.3704545,
                "pitch": 39,
                "velocity": 51,
                "duration": 0.1,
                "tempo": 120.0
            },
            {
                "start_time": 31.4045455,
                "end_time": 31.5045455,
                "pitch": 35,
                "velocity": 51,
                "duration": 0.1,
                "tempo": 120.0
            },
            {
                "start_time": 31.5386364,
                "end_time": 31.6386364,
                "pitch": 39,
                "velocity": 51,
                "duration": 0.1,
                "tempo": 120.0
            },
            {
                "start_time": 31.6704545,
                "end_time": 31.7704545,
                "pitch": 35,
                "velocity": 51,
                "duration": 0.1,
                "tempo": 120.0
            },
            {
                "start_time": 31.8045455,
                "end_time": 31.9045455,
                "pitch": 42,
                "velocity": 51,
                "duration": 0.1,
                "tempo": 120.0
            },
            {
                "start_time": 31.9386364,
                "end_time": 32.0386364,
                "pitch": 35,
                "velocity": 51,
                "duration": 0.1,
                "tempo": 120.0
            },
            {
                "start_time": 32.0704545,
                "end_time": 32.2727273,
                "pitch": 40,
                "velocity": 51,
                "duration": 0.2022727,
                "tempo": 120.0
            },
            {
                "start_time": 32.3386364,
                "end_time": 32.4409091,
                "pitch": 40,
                "velocity": 51,
                "duration": 0.1022727,
                "tempo": 120.0
            },
            {
                "start_time": 32.4727273,
                "end_time": 32.675,
                "pitch": 40,
                "velocity": 51,
                "duration": 0.2022727,
                "tempo": 120.0
            },
            {
                "start_time": 32.7431818,
                "end_time": 32.8431818,
                "pitch": 40,
                "velocity": 51,
                "duration": 0.1,
                "tempo": 120.0
            },
            {
                "start_time": 32.8772727,
                "end_time": 33.0772727,
                "pitch": 40,
                "velocity": 51,
                "duration": 0.2,
                "tempo": 120.0
            },
            {
                "start_time": 33.1431818,
                "end_time": 33.2431818,
                "pitch": 40,
                "velocity": 51,
                "duration": 0.1,
                "tempo": 120.0
            },
            {
                "start_time": 33.2772727,
                "end_time": 33.4772727,
                "pitch": 40,
                "velocity": 51,
                "duration": 0.2,
                "tempo": 120.0
            },
            {
                "start_time": 33.5431818,
                "end_time": 33.6431818,
                "pitch": 40,
                "velocity": 51,
                "duration": 0.1,
                "tempo": 120.0
            },
            {
                "start_time": 33.6772727,
                "end_time": 33.9931818,
                "pitch": 40,
                "velocity": 51,
                "duration": 0.3159091,
                "tempo": 120.0
            },
            {
                "start_time": 34.0772727,
                "end_time": 34.3931818,
                "pitch": 36,
                "velocity": 51,
                "duration": 0.3159091,
                "tempo": 120.0
            },
            {
                "start_time": 34.4772727,
                "end_time": 34.7954545,
                "pitch": 38,
                "velocity": 51,
                "duration": 0.3181818,
                "tempo": 120.0
            },
            {
                "start_time": 34.8795455,
                "end_time": 35.1954545,
                "pitch": 39,
                "velocity": 51,
                "duration": 0.3159091,
                "tempo": 120.0
            },
            {
                "start_time": 35.2795455,
                "end_time": 35.4795455,
                "pitch": 40,
                "velocity": 51,
                "duration": 0.2,
                "tempo": 120.0
            },
            {
                "start_time": 35.5454545,
                "end_time": 35.6454545,
                "pitch": 40,
                "velocity": 51,
                "duration": 0.1,
                "tempo": 120.0
            },
            {
                "start_time": 35.6795455,
                "end_time": 35.7795455,
                "pitch": 40,
                "velocity": 51,
                "duration": 0.1,
                "tempo": 120.0
            },
            {
                "start_time": 35.8113636,
                "end_time": 35.9113636,
                "pitch": 47,
                "velocity": 51,
                "duration": 0.1,
                "tempo": 120.0
            },
            {
                "start_time": 35.9454545,
                "end_time": 36.0454545,
                "pitch": 40,
                "velocity": 51,
                "duration": 0.1,
                "tempo": 120.0
            },
            {
                "start_time": 36.0795455,
                "end_time": 36.1795455,
                "pitch": 47,
                "velocity": 51,
                "duration": 0.1,
                "tempo": 120.0
            },
            {
                "start_time": 36.2113636,
                "end_time": 36.3113636,
                "pitch": 40,
                "velocity": 51,
                "duration": 0.1,
                "tempo": 120.0
            },
            {
                "start_time": 36.3454545,
                "end_time": 36.4454545,
                "pitch": 47,
                "velocity": 51,
                "duration": 0.1,
                "tempo": 120.0
            },
            {
                "start_time": 36.4795455,
                "end_time": 36.5795455,
                "pitch": 40,
                "velocity": 51,
                "duration": 0.1,
                "tempo": 120.0
            },
            {
                "start_time": 36.6136364,
                "end_time": 36.7136364,
                "pitch": 47,
                "velocity": 51,
                "duration": 0.1,
                "tempo": 120.0
            },
            {
                "start_time": 36.7477273,
                "end_time": 36.8477273,
                "pitch": 40,
                "velocity": 51,
                "duration": 0.1,
                "tempo": 120.0
            },
            {
                "start_time": 36.8818182,
                "end_time": 37.0818182,
                "pitch": 40,
                "velocity": 51,
                "duration": 0.2,
                "tempo": 120.0
            },
            {
                "start_time": 37.1477273,
                "end_time": 37.2477273,
                "pitch": 40,
                "velocity": 51,
                "duration": 0.1,
                "tempo": 120.0
            },
            {
                "start_time": 37.2818182,
                "end_time": 37.3818182,
                "pitch": 40,
                "velocity": 51,
                "duration": 0.1,
                "tempo": 120.0
            },
            {
                "start_time": 37.4159091,
                "end_time": 37.5159091,
                "pitch": 47,
                "velocity": 51,
                "duration": 0.1,
                "tempo": 120.0
            },
            {
                "start_time": 37.5477273,
                "end_time": 37.6477273,
                "pitch": 40,
                "velocity": 51,
                "duration": 0.1,
                "tempo": 120.0
            },
            {
                "start_time": 37.6818182,
                "end_time": 37.7818182,
                "pitch": 47,
                "velocity": 51,
                "duration": 0.1,
                "tempo": 120.0
            },
            {
                "start_time": 37.8159091,
                "end_time": 37.9159091,
                "pitch": 40,
                "velocity": 51,
                "duration": 0.1,
                "tempo": 120.0
            },
            {
                "start_time": 37.9477273,
                "end_time": 38.0477273,
                "pitch": 47,
                "velocity": 51,
                "duration": 0.1,
                "tempo": 120.0
            },
            {
                "start_time": 38.0818182,
                "end_time": 38.1818182,
                "pitch": 40,
                "velocity": 51,
                "duration": 0.1,
                "tempo": 120.0
            },
            {
                "start_time": 38.2159091,
                "end_time": 38.3159091,
                "pitch": 47,
                "velocity": 51,
                "duration": 0.1,
                "tempo": 120.0
            },
            {
                "start_time": 38.3477273,
                "end_time": 38.4477273,
                "pitch": 40,
                "velocity": 51,
                "duration": 0.1,
                "tempo": 120.0
            },
            {
                "start_time": 38.4818182,
                "end_time": 38.6840909,
                "pitch": 42,
                "velocity": 51,
                "duration": 0.2022727,
                "tempo": 120.0
            },
            {
                "start_time": 38.75,
                "end_time": 38.85,
                "pitch": 42,
                "velocity": 51,
                "duration": 0.1,
                "tempo": 120.0
            },
            {
                "start_time": 38.8840909,
                "end_time": 38.9840909,
                "pitch": 34,
                "velocity": 51,
                "duration": 0.1,
                "tempo": 120.0
            },
            {
                "start_time": 39.0181818,
                "end_time": 39.1181818,
                "pitch": 39,
                "velocity": 51,
                "duration": 0.1,
                "tempo": 120.0
            },
            {
                "start_time": 39.15,
                "end_time": 39.25,
                "pitch": 34,
                "velocity": 51,
                "duration": 0.1,
                "tempo": 120.0
            },
            {
                "start_time": 39.2840909,
                "end_time": 39.3840909,
                "pitch": 39,
                "velocity": 51,
                "duration": 0.1,
                "tempo": 120.0
            },
            {
                "start_time": 39.4181818,
                "end_time": 39.5181818,
                "pitch": 34,
                "velocity": 51,
                "duration": 0.1,
                "tempo": 120.0
            },
            {
                "start_time": 39.55,
                "end_time": 39.65,
                "pitch": 39,
                "velocity": 51,
                "duration": 0.1,
                "tempo": 120.0
            },
            {
                "start_time": 39.6840909,
                "end_time": 39.7840909,
                "pitch": 34,
                "velocity": 51,
                "duration": 0.1,
                "tempo": 120.0
            },
            {
                "start_time": 39.8181818,
                "end_time": 39.9181818,
                "pitch": 42,
                "velocity": 51,
                "duration": 0.1,
                "tempo": 120.0
            },
            {
                "start_time": 39.95,
                "end_time": 40.05,
                "pitch": 34,
                "velocity": 51,
                "duration": 0.1,
                "tempo": 120.0
            },
            {
                "start_time": 40.0840909,
                "end_time": 40.2840909,
                "pitch": 42,
                "velocity": 51,
                "duration": 0.2,
                "tempo": 120.0
            },
            {
                "start_time": 40.35,
                "end_time": 40.45,
                "pitch": 42,
                "velocity": 51,
                "duration": 0.1,
                "tempo": 120.0
            },
            {
                "start_time": 40.4840909,
                "end_time": 40.5840909,
                "pitch": 34,
                "velocity": 51,
                "duration": 0.1,
                "tempo": 120.0
            },
            {
                "start_time": 40.6181818,
                "end_time": 40.7181818,
                "pitch": 39,
                "velocity": 51,
                "duration": 0.1,
                "tempo": 120.0
            },
            {
                "start_time": 40.7522727,
                "end_time": 40.8545455,
                "pitch": 34,
                "velocity": 51,
                "duration": 0.1022727,
                "tempo": 120.0
            },
            {
                "start_time": 40.8863636,
                "end_time": 40.9863636,
                "pitch": 39,
                "velocity": 51,
                "duration": 0.1,
                "tempo": 120.0
            },
            {
                "start_time": 41.0204545,
                "end_time": 41.1204545,
                "pitch": 34,
                "velocity": 51,
                "duration": 0.1,
                "tempo": 120.0
            },
            {
                "start_time": 41.1545455,
                "end_time": 41.2545455,
                "pitch": 39,
                "velocity": 51,
                "duration": 0.1,
                "tempo": 120.0
            },
            {
                "start_time": 41.2863636,
                "end_time": 41.3863636,
                "pitch": 34,
                "velocity": 51,
                "duration": 0.1,
                "tempo": 120.0
            },
            {
                "start_time": 41.4204545,
                "end_time": 41.5204545,
                "pitch": 42,
                "velocity": 51,
                "duration": 0.1,
                "tempo": 120.0
            },
            {
                "start_time": 41.5545455,
                "end_time": 41.6545455,
                "pitch": 34,
                "velocity": 51,
                "duration": 0.1,
                "tempo": 120.0
            },
            {
                "start_time": 41.6863636,
                "end_time": 41.8863636,
                "pitch": 39,
                "velocity": 51,
                "duration": 0.2,
                "tempo": 120.0
            },
            {
                "start_time": 41.9545455,
                "end_time": 42.0545455,
                "pitch": 39,
                "velocity": 51,
                "duration": 0.1,
                "tempo": 120.0
            },
            {
                "start_time": 42.0863636,
                "end_time": 42.1863636,
                "pitch": 35,
                "velocity": 51,
                "duration": 0.1,
                "tempo": 120.0
            },
            {
                "start_time": 42.2204545,
                "end_time": 42.3204545,
                "pitch": 39,
                "velocity": 51,
                "duration": 0.1,
                "tempo": 120.0
            },
            {
                "start_time": 42.3545455,
                "end_time": 42.4545455,
                "pitch": 35,
                "velocity": 51,
                "duration": 0.1,
                "tempo": 120.0
            },
            {
                "start_time": 42.4863636,
                "end_time": 42.5886364,
                "pitch": 39,
                "velocity": 51,
                "duration": 0.1022727,
                "tempo": 120.0
            },
            {
                "start_time": 42.6204545,
                "end_time": 42.7227273,
                "pitch": 35,
                "velocity": 51,
                "duration": 0.1022727,
                "tempo": 120.0
            },
            {
                "start_time": 42.7545455,
                "end_time": 42.8568182,
                "pitch": 39,
                "velocity": 51,
                "duration": 0.1022727,
                "tempo": 120.0
            },
            {
                "start_time": 42.8886364,
                "end_time": 42.9886364,
                "pitch": 35,
                "velocity": 51,
                "duration": 0.1,
                "tempo": 120.0
            },
            {
                "start_time": 43.0227273,
                "end_time": 43.1227273,
                "pitch": 42,
                "velocity": 51,
                "duration": 0.1,
                "tempo": 120.0
            },
            {
                "start_time": 43.1568182,
                "end_time": 43.2568182,
                "pitch": 35,
                "velocity": 51,
                "duration": 0.1,
                "tempo": 120.0
            },
            {
                "start_time": 43.2886364,
                "end_time": 43.4886364,
                "pitch": 39,
                "velocity": 51,
                "duration": 0.2,
                "tempo": 120.0
            },
            {
                "start_time": 43.5568182,
                "end_time": 43.6568182,
                "pitch": 39,
                "velocity": 51,
                "duration": 0.1,
                "tempo": 120.0
            },
            {
                "start_time": 43.6886364,
                "end_time": 43.7886364,
                "pitch": 35,
                "velocity": 51,
                "duration": 0.1,
                "tempo": 120.0
            },
            {
                "start_time": 43.8227273,
                "end_time": 43.9227273,
                "pitch": 39,
                "velocity": 51,
                "duration": 0.1,
                "tempo": 120.0
            },
            {
                "start_time": 43.9568182,
                "end_time": 44.0568182,
                "pitch": 35,
                "velocity": 51,
                "duration": 0.1,
                "tempo": 120.0
            },
            {
                "start_time": 44.0886364,
                "end_time": 44.1886364,
                "pitch": 39,
                "velocity": 51,
                "duration": 0.1,
                "tempo": 120.0
            },
            {
                "start_time": 44.2227273,
                "end_time": 44.3227273,
                "pitch": 35,
                "velocity": 51,
                "duration": 0.1,
                "tempo": 120.0
            },
            {
                "start_time": 44.3568182,
                "end_time": 44.4568182,
                "pitch": 39,
                "velocity": 51,
                "duration": 0.1,
                "tempo": 120.0
            },
            {
                "start_time": 44.4886364,
                "end_time": 44.5909091,
                "pitch": 35,
                "velocity": 51,
                "duration": 0.1022727,
                "tempo": 120.0
            },
            {
                "start_time": 44.625,
                "end_time": 44.725,
                "pitch": 42,
                "velocity": 51,
                "duration": 0.1,
                "tempo": 120.0
            },
            {
                "start_time": 44.7590909,
                "end_time": 44.8590909,
                "pitch": 35,
                "velocity": 51,
                "duration": 0.1,
                "tempo": 120.0
            },
            {
                "start_time": 44.8931818,
                "end_time": 45.0931818,
                "pitch": 40,
                "velocity": 51,
                "duration": 0.2,
                "tempo": 120.0
            },
            {
                "start_time": 45.1590909,
                "end_time": 45.2590909,
                "pitch": 40,
                "velocity": 51,
                "duration": 0.1,
                "tempo": 120.0
            },
            {
                "start_time": 45.2931818,
                "end_time": 45.4931818,
                "pitch": 40,
                "velocity": 51,
                "duration": 0.2,
                "tempo": 120.0
            },
            {
                "start_time": 45.5590909,
                "end_time": 45.6590909,
                "pitch": 40,
                "velocity": 51,
                "duration": 0.1,
                "tempo": 120.0
            },
            {
                "start_time": 45.6931818,
                "end_time": 45.8931818,
                "pitch": 40,
                "velocity": 51,
                "duration": 0.2,
                "tempo": 120.0
            },
            {
                "start_time": 45.9590909,
                "end_time": 46.0590909,
                "pitch": 40,
                "velocity": 51,
                "duration": 0.1,
                "tempo": 120.0
            },
            {
                "start_time": 46.0931818,
                "end_time": 46.2931818,
                "pitch": 40,
                "velocity": 51,
                "duration": 0.2,
                "tempo": 120.0
            },
            {
                "start_time": 46.3590909,
                "end_time": 46.4590909,
                "pitch": 40,
                "velocity": 51,
                "duration": 0.1,
                "tempo": 120.0
            },
            {
                "start_time": 46.4931818,
                "end_time": 46.6931818,
                "pitch": 40,
                "velocity": 51,
                "duration": 0.2,
                "tempo": 120.0
            },
            {
                "start_time": 46.7613636,
                "end_time": 46.8613636,
                "pitch": 40,
                "velocity": 51,
                "duration": 0.1,
                "tempo": 120.0
            },
            {
                "start_time": 46.8954545,
                "end_time": 47.0954545,
                "pitch": 40,
                "velocity": 51,
                "duration": 0.2,
                "tempo": 120.0
            },
            {
                "start_time": 47.1613636,
                "end_time": 47.2613636,
                "pitch": 40,
                "velocity": 51,
                "duration": 0.1,
                "tempo": 120.0
            },
            {
                "start_time": 47.2954545,
                "end_time": 47.6113636,
                "pitch": 40,
                "velocity": 51,
                "duration": 0.3159091,
                "tempo": 120.0
            },
            {
                "start_time": 47.6954545,
                "end_time": 48.0113636,
                "pitch": 38,
                "velocity": 51,
                "duration": 0.3159091,
                "tempo": 120.0
            },
            {
                "start_time": 48.0954545,
                "end_time": 54.5090909,
                "pitch": 43,
                "velocity": 51,
                "duration": 6.4136364,
                "tempo": 120.0
            },
            {
                "start_time": 54.5090909,
                "end_time": 54.6090909,
                "pitch": 40,
                "velocity": 51,
                "duration": 0.1,
                "tempo": 120.0
            },
            {
                "start_time": 54.6431818,
                "end_time": 54.7431818,
                "pitch": 28,
                "velocity": 51,
                "duration": 0.1,
                "tempo": 120.0
            },
            {
                "start_time": 54.7772727,
                "end_time": 54.8772727,
                "pitch": 40,
                "velocity": 51,
                "duration": 0.1,
                "tempo": 120.0
            },
            {
                "start_time": 54.9113636,
                "end_time": 55.0113636,
                "pitch": 28,
                "velocity": 51,
                "duration": 0.1,
                "tempo": 120.0
            },
            {
                "start_time": 55.0454545,
                "end_time": 55.1454545,
                "pitch": 40,
                "velocity": 51,
                "duration": 0.1,
                "tempo": 120.0
            },
            {
                "start_time": 55.1795455,
                "end_time": 55.2795455,
                "pitch": 28,
                "velocity": 51,
                "duration": 0.1,
                "tempo": 120.0
            },
            {
                "start_time": 55.3113636,
                "end_time": 55.4113636,
                "pitch": 40,
                "velocity": 51,
                "duration": 0.1,
                "tempo": 120.0
            },
            {
                "start_time": 55.4454545,
                "end_time": 55.5454545,
                "pitch": 28,
                "velocity": 51,
                "duration": 0.1,
                "tempo": 120.0
            },
            {
                "start_time": 55.5795455,
                "end_time": 55.6795455,
                "pitch": 40,
                "velocity": 51,
                "duration": 0.1,
                "tempo": 120.0
            },
            {
                "start_time": 55.7113636,
                "end_time": 55.8113636,
                "pitch": 28,
                "velocity": 51,
                "duration": 0.1,
                "tempo": 120.0
            },
            {
                "start_time": 55.8454545,
                "end_time": 55.9454545,
                "pitch": 40,
                "velocity": 51,
                "duration": 0.1,
                "tempo": 120.0
            },
            {
                "start_time": 55.9795455,
                "end_time": 56.0795455,
                "pitch": 28,
                "velocity": 51,
                "duration": 0.1,
                "tempo": 120.0
            },
            {
                "start_time": 56.1113636,
                "end_time": 56.2113636,
                "pitch": 40,
                "velocity": 51,
                "duration": 0.1,
                "tempo": 120.0
            },
            {
                "start_time": 56.2454545,
                "end_time": 56.3454545,
                "pitch": 28,
                "velocity": 51,
                "duration": 0.1,
                "tempo": 120.0
            },
            {
                "start_time": 56.3795455,
                "end_time": 56.4795455,
                "pitch": 40,
                "velocity": 51,
                "duration": 0.1,
                "tempo": 120.0
            },
            {
                "start_time": 56.5113636,
                "end_time": 56.6113636,
                "pitch": 28,
                "velocity": 51,
                "duration": 0.1,
                "tempo": 120.0
            },
            {
                "start_time": 56.6454545,
                "end_time": 56.7477273,
                "pitch": 40,
                "velocity": 51,
                "duration": 0.1022727,
                "tempo": 120.0
            },
            {
                "start_time": 56.7795455,
                "end_time": 56.8818182,
                "pitch": 28,
                "velocity": 51,
                "duration": 0.1022727,
                "tempo": 120.0
            },
            {
                "start_time": 56.9136364,
                "end_time": 57.0181818,
                "pitch": 40,
                "velocity": 51,
                "duration": 0.1045455,
                "tempo": 120.0
            },
            {
                "start_time": 57.0522727,
                "end_time": 57.1545455,
                "pitch": 28,
                "velocity": 51,
                "duration": 0.1022727,
                "tempo": 120.0
            },
            {
                "start_time": 57.1886364,
                "end_time": 57.2909091,
                "pitch": 40,
                "velocity": 51,
                "duration": 0.1022727,
                "tempo": 120.0
            },
            {
                "start_time": 57.325,
                "end_time": 57.425,
                "pitch": 28,
                "velocity": 51,
                "duration": 0.1,
                "tempo": 120.0
            },
            {
                "start_time": 57.4590909,
                "end_time": 57.5590909,
                "pitch": 40,
                "velocity": 51,
                "duration": 0.1,
                "tempo": 120.0
            },
            {
                "start_time": 57.5931818,
                "end_time": 57.6931818,
                "pitch": 28,
                "velocity": 51,
                "duration": 0.1,
                "tempo": 120.0
            },
            {
                "start_time": 57.725,
                "end_time": 57.8227273,
                "pitch": 36,
                "velocity": 51,
                "duration": 0.0977273,
                "tempo": 120.0
            },
            {
                "start_time": 57.8568182,
                "end_time": 57.9545455,
                "pitch": 24,
                "velocity": 51,
                "duration": 0.0977273,
                "tempo": 120.0
            },
            {
                "start_time": 57.9863636,
                "end_time": 58.0840909,
                "pitch": 36,
                "velocity": 51,
                "duration": 0.0977273,
                "tempo": 120.0
            },
            {
                "start_time": 58.1181818,
                "end_time": 58.2181818,
                "pitch": 24,
                "velocity": 51,
                "duration": 0.1,
                "tempo": 120.0
            },
            {
                "start_time": 58.25,
                "end_time": 58.35,
                "pitch": 36,
                "velocity": 51,
                "duration": 0.1,
                "tempo": 120.0
            },
            {
                "start_time": 58.3840909,
                "end_time": 58.4840909,
                "pitch": 24,
                "velocity": 51,
                "duration": 0.1,
                "tempo": 120.0
            },
            {
                "start_time": 58.5181818,
                "end_time": 58.6204545,
                "pitch": 36,
                "velocity": 51,
                "duration": 0.1022727,
                "tempo": 120.0
            },
            {
                "start_time": 58.6545455,
                "end_time": 58.7568182,
                "pitch": 24,
                "velocity": 51,
                "duration": 0.1022727,
                "tempo": 120.0
            },
            {
                "start_time": 58.7909091,
                "end_time": 58.8931818,
                "pitch": 36,
                "velocity": 51,
                "duration": 0.1022727,
                "tempo": 120.0
            },
            {
                "start_time": 58.9272727,
                "end_time": 59.0272727,
                "pitch": 24,
                "velocity": 51,
                "duration": 0.1,
                "tempo": 120.0
            },
            {
                "start_time": 59.0590909,
                "end_time": 59.1568182,
                "pitch": 36,
                "velocity": 51,
                "duration": 0.0977273,
                "tempo": 120.0
            },
            {
                "start_time": 59.1886364,
                "end_time": 59.2886364,
                "pitch": 24,
                "velocity": 51,
                "duration": 0.1,
                "tempo": 120.0
            },
            {
                "start_time": 59.3204545,
                "end_time": 59.4204545,
                "pitch": 36,
                "velocity": 51,
                "duration": 0.1,
                "tempo": 120.0
            },
            {
                "start_time": 59.4545455,
                "end_time": 59.5545455,
                "pitch": 24,
                "velocity": 51,
                "duration": 0.1,
                "tempo": 120.0
            },
            {
                "start_time": 59.5863636,
                "end_time": 59.6863636,
                "pitch": 36,
                "velocity": 51,
                "duration": 0.1,
                "tempo": 120.0
            },
            {
                "start_time": 59.7204545,
                "end_time": 59.8204545,
                "pitch": 24,
                "velocity": 51,
                "duration": 0.1,
                "tempo": 120.0
            },
            {
                "start_time": 59.8545455,
                "end_time": 59.9545455,
                "pitch": 36,
                "velocity": 51,
                "duration": 0.1,
                "tempo": 120.0
            },
            {
                "start_time": 59.9863636,
                "end_time": 60.0863636,
                "pitch": 24,
                "velocity": 51,
                "duration": 0.1,
                "tempo": 120.0
            },
            {
                "start_time": 60.1204545,
                "end_time": 60.2227273,
                "pitch": 36,
                "velocity": 51,
                "duration": 0.1022727,
                "tempo": 120.0
            },
            {
                "start_time": 60.2568182,
                "end_time": 60.3590909,
                "pitch": 24,
                "velocity": 51,
                "duration": 0.1022727,
                "tempo": 120.0
            },
            {
                "start_time": 60.3931818,
                "end_time": 60.4977273,
                "pitch": 36,
                "velocity": 51,
                "duration": 0.1045455,
                "tempo": 120.0
            },
            {
                "start_time": 60.5318182,
                "end_time": 60.6318182,
                "pitch": 24,
                "velocity": 51,
                "duration": 0.1,
                "tempo": 120.0
            },
            {
                "start_time": 60.6636364,
                "end_time": 60.7636364,
                "pitch": 36,
                "velocity": 51,
                "duration": 0.1,
                "tempo": 120.0
            },
            {
                "start_time": 60.7977273,
                "end_time": 60.8977273,
                "pitch": 24,
                "velocity": 51,
                "duration": 0.1,
                "tempo": 120.0
            },
            {
                "start_time": 60.9318182,
                "end_time": 61.0295455,
                "pitch": 38,
                "velocity": 51,
                "duration": 0.0977273,
                "tempo": 120.0
            },
            {
                "start_time": 61.0613636,
                "end_time": 61.1590909,
                "pitch": 26,
                "velocity": 51,
                "duration": 0.0977273,
                "tempo": 120.0
            },
            {
                "start_time": 61.1931818,
                "end_time": 61.2909091,
                "pitch": 38,
                "velocity": 51,
                "duration": 0.0977273,
                "tempo": 120.0
            },
            {
                "start_time": 61.3227273,
                "end_time": 61.425,
                "pitch": 26,
                "velocity": 51,
                "duration": 0.1022727,
                "tempo": 120.0
            },
            {
                "start_time": 61.4590909,
                "end_time": 61.5636364,
                "pitch": 38,
                "velocity": 51,
                "duration": 0.1045455,
                "tempo": 120.0
            },
            {
                "start_time": 61.5977273,
                "end_time": 61.7,
                "pitch": 26,
                "velocity": 51,
                "duration": 0.1022727,
                "tempo": 120.0
            },
            {
                "start_time": 61.7340909,
                "end_time": 61.8318182,
                "pitch": 38,
                "velocity": 51,
                "duration": 0.0977273,
                "tempo": 120.0
            },
            {
                "start_time": 61.8636364,
                "end_time": 61.9636364,
                "pitch": 26,
                "velocity": 51,
                "duration": 0.1,
                "tempo": 120.0
            },
            {
                "start_time": 61.9954545,
                "end_time": 62.0931818,
                "pitch": 38,
                "velocity": 51,
                "duration": 0.0977273,
                "tempo": 120.0
            },
            {
                "start_time": 62.1272727,
                "end_time": 62.2272727,
                "pitch": 26,
                "velocity": 51,
                "duration": 0.1,
                "tempo": 120.0
            },
            {
                "start_time": 62.2590909,
                "end_time": 62.3590909,
                "pitch": 38,
                "velocity": 51,
                "duration": 0.1,
                "tempo": 120.0
            },
            {
                "start_time": 62.3931818,
                "end_time": 62.4931818,
                "pitch": 26,
                "velocity": 51,
                "duration": 0.1,
                "tempo": 120.0
            },
            {
                "start_time": 62.5272727,
                "end_time": 62.6272727,
                "pitch": 38,
                "velocity": 51,
                "duration": 0.1,
                "tempo": 120.0
            },
            {
                "start_time": 62.6613636,
                "end_time": 62.7613636,
                "pitch": 26,
                "velocity": 51,
                "duration": 0.1,
                "tempo": 120.0
            },
            {
                "start_time": 62.7954545,
                "end_time": 62.8954545,
                "pitch": 38,
                "velocity": 51,
                "duration": 0.1,
                "tempo": 120.0
            },
            {
                "start_time": 62.9295455,
                "end_time": 63.0318182,
                "pitch": 26,
                "velocity": 51,
                "duration": 0.1022727,
                "tempo": 120.0
            },
            {
                "start_time": 63.0659091,
                "end_time": 63.1681818,
                "pitch": 38,
                "velocity": 51,
                "duration": 0.1022727,
                "tempo": 120.0
            },
            {
                "start_time": 63.2022727,
                "end_time": 63.3045455,
                "pitch": 26,
                "velocity": 51,
                "duration": 0.1022727,
                "tempo": 120.0
            },
            {
                "start_time": 63.3386364,
                "end_time": 63.4386364,
                "pitch": 38,
                "velocity": 51,
                "duration": 0.1,
                "tempo": 120.0
            },
            {
                "start_time": 63.4704545,
                "end_time": 63.5681818,
                "pitch": 26,
                "velocity": 51,
                "duration": 0.0977273,
                "tempo": 120.0
            },
            {
                "start_time": 63.6,
                "end_time": 63.7,
                "pitch": 38,
                "velocity": 51,
                "duration": 0.1,
                "tempo": 120.0
            },
            {
                "start_time": 63.7318182,
                "end_time": 63.8318182,
                "pitch": 26,
                "velocity": 51,
                "duration": 0.1,
                "tempo": 120.0
            },
            {
                "start_time": 63.8659091,
                "end_time": 63.9659091,
                "pitch": 38,
                "velocity": 51,
                "duration": 0.1,
                "tempo": 120.0
            },
            {
                "start_time": 63.9977273,
                "end_time": 64.0977273,
                "pitch": 26,
                "velocity": 51,
                "duration": 0.1,
                "tempo": 120.0
            },
            {
                "start_time": 64.1318182,
                "end_time": 64.2318182,
                "pitch": 40,
                "velocity": 51,
                "duration": 0.1,
                "tempo": 120.0
            },
            {
                "start_time": 64.2659091,
                "end_time": 64.3659091,
                "pitch": 28,
                "velocity": 51,
                "duration": 0.1,
                "tempo": 120.0
            },
            {
                "start_time": 64.3977273,
                "end_time": 64.4977273,
                "pitch": 40,
                "velocity": 51,
                "duration": 0.1,
                "tempo": 120.0
            },
            {
                "start_time": 64.5318182,
                "end_time": 64.6318182,
                "pitch": 28,
                "velocity": 51,
                "duration": 0.1,
                "tempo": 120.0
            },
            {
                "start_time": 64.6659091,
                "end_time": 64.7659091,
                "pitch": 40,
                "velocity": 51,
                "duration": 0.1,
                "tempo": 120.0
            },
            {
                "start_time": 64.7977273,
                "end_time": 64.8977273,
                "pitch": 28,
                "velocity": 51,
                "duration": 0.1,
                "tempo": 120.0
            },
            {
                "start_time": 64.9318182,
                "end_time": 65.0318182,
                "pitch": 40,
                "velocity": 51,
                "duration": 0.1,
                "tempo": 120.0
            },
            {
                "start_time": 65.0659091,
                "end_time": 65.1659091,
                "pitch": 28,
                "velocity": 51,
                "duration": 0.1,
                "tempo": 120.0
            },
            {
                "start_time": 65.2,
                "end_time": 65.3,
                "pitch": 40,
                "velocity": 51,
                "duration": 0.1,
                "tempo": 120.0
            },
            {
                "start_time": 65.3340909,
                "end_time": 65.4340909,
                "pitch": 28,
                "velocity": 51,
                "duration": 0.1,
                "tempo": 120.0
            },
            {
                "start_time": 65.4681818,
                "end_time": 65.5704545,
                "pitch": 40,
                "velocity": 51,
                "duration": 0.1022727,
                "tempo": 120.0
            },
            {
                "start_time": 65.6022727,
                "end_time": 65.7045455,
                "pitch": 28,
                "velocity": 51,
                "duration": 0.1022727,
                "tempo": 120.0
            },
            {
                "start_time": 65.7363636,
                "end_time": 65.8363636,
                "pitch": 40,
                "velocity": 51,
                "duration": 0.1,
                "tempo": 120.0
            },
            {
                "start_time": 65.8704545,
                "end_time": 65.9704545,
                "pitch": 28,
                "velocity": 51,
                "duration": 0.1,
                "tempo": 120.0
            },
            {
                "start_time": 66.0045455,
                "end_time": 66.1045455,
                "pitch": 40,
                "velocity": 51,
                "duration": 0.1,
                "tempo": 120.0
            },
            {
                "start_time": 66.1363636,
                "end_time": 66.2386364,
                "pitch": 28,
                "velocity": 51,
                "duration": 0.1022727,
                "tempo": 120.0
            },
            {
                "start_time": 66.275,
                "end_time": 66.3772727,
                "pitch": 40,
                "velocity": 51,
                "duration": 0.1022727,
                "tempo": 120.0
            },
            {
                "start_time": 66.4113636,
                "end_time": 66.5136364,
                "pitch": 28,
                "velocity": 51,
                "duration": 0.1022727,
                "tempo": 120.0
            },
            {
                "start_time": 66.5477273,
                "end_time": 66.6477273,
                "pitch": 40,
                "velocity": 51,
                "duration": 0.1,
                "tempo": 120.0
            },
            {
                "start_time": 66.6818182,
                "end_time": 66.7840909,
                "pitch": 28,
                "velocity": 51,
                "duration": 0.1022727,
                "tempo": 120.0
            },
            {
                "start_time": 66.8159091,
                "end_time": 66.9181818,
                "pitch": 40,
                "velocity": 51,
                "duration": 0.1022727,
                "tempo": 120.0
            },
            {
                "start_time": 66.95,
                "end_time": 67.0477273,
                "pitch": 28,
                "velocity": 51,
                "duration": 0.0977273,
                "tempo": 120.0
            },
            {
                "start_time": 67.0818182,
                "end_time": 67.1795455,
                "pitch": 40,
                "velocity": 51,
                "duration": 0.0977273,
                "tempo": 120.0
            },
            {
                "start_time": 67.2113636,
                "end_time": 67.3090909,
                "pitch": 28,
                "velocity": 51,
                "duration": 0.0977273,
                "tempo": 120.0
            },
            {
                "start_time": 67.3431818,
                "end_time": 67.4431818,
                "pitch": 40,
                "velocity": 51,
                "duration": 0.1,
                "tempo": 120.0
            },
            {
                "start_time": 67.4772727,
                "end_time": 67.5772727,
                "pitch": 28,
                "velocity": 51,
                "duration": 0.1,
                "tempo": 120.0
            },
            {
                "start_time": 67.6113636,
                "end_time": 67.7113636,
                "pitch": 40,
                "velocity": 51,
                "duration": 0.1,
                "tempo": 120.0
            },
            {
                "start_time": 67.7454545,
                "end_time": 67.8454545,
                "pitch": 28,
                "velocity": 51,
                "duration": 0.1,
                "tempo": 120.0
            },
            {
                "start_time": 67.8795455,
                "end_time": 67.9795455,
                "pitch": 40,
                "velocity": 51,
                "duration": 0.1,
                "tempo": 120.0
            },
            {
                "start_time": 68.0113636,
                "end_time": 68.1113636,
                "pitch": 28,
                "velocity": 51,
                "duration": 0.1,
                "tempo": 120.0
            },
            {
                "start_time": 68.1454545,
                "end_time": 68.2454545,
                "pitch": 40,
                "velocity": 51,
                "duration": 0.1,
                "tempo": 120.0
            },
            {
                "start_time": 68.2795455,
                "end_time": 68.3795455,
                "pitch": 28,
                "velocity": 51,
                "duration": 0.1,
                "tempo": 120.0
            },
            {
                "start_time": 68.4136364,
                "end_time": 68.5136364,
                "pitch": 40,
                "velocity": 51,
                "duration": 0.1,
                "tempo": 120.0
            },
            {
                "start_time": 68.5477273,
                "end_time": 68.6477273,
                "pitch": 28,
                "velocity": 51,
                "duration": 0.1,
                "tempo": 120.0
            },
            {
                "start_time": 68.6818182,
                "end_time": 68.7818182,
                "pitch": 40,
                "velocity": 51,
                "duration": 0.1,
                "tempo": 120.0
            },
            {
                "start_time": 68.8159091,
                "end_time": 68.9159091,
                "pitch": 28,
                "velocity": 51,
                "duration": 0.1,
                "tempo": 120.0
            },
            {
                "start_time": 68.9477273,
                "end_time": 69.05,
                "pitch": 40,
                "velocity": 51,
                "duration": 0.1022727,
                "tempo": 120.0
            },
            {
                "start_time": 69.0818182,
                "end_time": 69.1840909,
                "pitch": 28,
                "velocity": 51,
                "duration": 0.1022727,
                "tempo": 120.0
            },
            {
                "start_time": 69.2159091,
                "end_time": 69.3181818,
                "pitch": 40,
                "velocity": 51,
                "duration": 0.1022727,
                "tempo": 120.0
            },
            {
                "start_time": 69.35,
                "end_time": 69.4522727,
                "pitch": 28,
                "velocity": 51,
                "duration": 0.1022727,
                "tempo": 120.0
            },
            {
                "start_time": 69.4840909,
                "end_time": 69.5863636,
                "pitch": 40,
                "velocity": 51,
                "duration": 0.1022727,
                "tempo": 120.0
            },
            {
                "start_time": 69.6204545,
                "end_time": 69.7204545,
                "pitch": 28,
                "velocity": 51,
                "duration": 0.1,
                "tempo": 120.0
            },
            {
                "start_time": 69.7545455,
                "end_time": 69.8568182,
                "pitch": 40,
                "velocity": 51,
                "duration": 0.1022727,
                "tempo": 120.0
            },
            {
                "start_time": 69.8909091,
                "end_time": 69.9931818,
                "pitch": 28,
                "velocity": 51,
                "duration": 0.1022727,
                "tempo": 120.0
            },
            {
                "start_time": 70.0272727,
                "end_time": 70.1295455,
                "pitch": 40,
                "velocity": 51,
                "duration": 0.1022727,
                "tempo": 120.0
            },
            {
                "start_time": 70.1636364,
                "end_time": 70.2636364,
                "pitch": 28,
                "velocity": 51,
                "duration": 0.1,
                "tempo": 120.0
            },
            {
                "start_time": 70.2977273,
                "end_time": 70.3977273,
                "pitch": 40,
                "velocity": 51,
                "duration": 0.1,
                "tempo": 120.0
            },
            {
                "start_time": 70.4318182,
                "end_time": 70.5318182,
                "pitch": 28,
                "velocity": 51,
                "duration": 0.1,
                "tempo": 120.0
            },
            {
                "start_time": 70.5636364,
                "end_time": 70.6636364,
                "pitch": 36,
                "velocity": 51,
                "duration": 0.1,
                "tempo": 120.0
            },
            {
                "start_time": 70.6954545,
                "end_time": 70.7931818,
                "pitch": 24,
                "velocity": 51,
                "duration": 0.0977273,
                "tempo": 120.0
            },
            {
                "start_time": 70.825,
                "end_time": 70.925,
                "pitch": 36,
                "velocity": 51,
                "duration": 0.1,
                "tempo": 120.0
            },
            {
                "start_time": 70.9568182,
                "end_time": 71.0568182,
                "pitch": 24,
                "velocity": 51,
                "duration": 0.1,
                "tempo": 120.0
            },
            {
                "start_time": 71.0909091,
                "end_time": 71.1909091,
                "pitch": 36,
                "velocity": 51,
                "duration": 0.1,
                "tempo": 120.0
            },
            {
                "start_time": 71.225,
                "end_time": 71.325,
                "pitch": 24,
                "velocity": 51,
                "duration": 0.1,
                "tempo": 120.0
            },
            {
                "start_time": 71.3590909,
                "end_time": 71.4590909,
                "pitch": 36,
                "velocity": 51,
                "duration": 0.1,
                "tempo": 120.0
            },
            {
                "start_time": 71.4931818,
                "end_time": 71.5954545,
                "pitch": 24,
                "velocity": 51,
                "duration": 0.1022727,
                "tempo": 120.0
            },
            {
                "start_time": 71.6272727,
                "end_time": 71.7295455,
                "pitch": 36,
                "velocity": 51,
                "duration": 0.1022727,
                "tempo": 120.0
            },
            {
                "start_time": 71.7613636,
                "end_time": 71.8613636,
                "pitch": 24,
                "velocity": 51,
                "duration": 0.1,
                "tempo": 120.0
            },
            {
                "start_time": 71.8954545,
                "end_time": 71.9954545,
                "pitch": 36,
                "velocity": 51,
                "duration": 0.1,
                "tempo": 120.0
            },
            {
                "start_time": 72.0295455,
                "end_time": 72.1295455,
                "pitch": 24,
                "velocity": 51,
                "duration": 0.1,
                "tempo": 120.0
            },
            {
                "start_time": 72.1613636,
                "end_time": 72.2636364,
                "pitch": 36,
                "velocity": 51,
                "duration": 0.1022727,
                "tempo": 120.0
            },
            {
                "start_time": 72.2954545,
                "end_time": 72.3977273,
                "pitch": 24,
                "velocity": 51,
                "duration": 0.1022727,
                "tempo": 120.0
            },
            {
                "start_time": 72.4318182,
                "end_time": 72.5318182,
                "pitch": 36,
                "velocity": 51,
                "duration": 0.1,
                "tempo": 120.0
            },
            {
                "start_time": 72.5659091,
                "end_time": 72.6659091,
                "pitch": 24,
                "velocity": 51,
                "duration": 0.1,
                "tempo": 120.0
            },
            {
                "start_time": 72.6977273,
                "end_time": 72.7977273,
                "pitch": 36,
                "velocity": 51,
                "duration": 0.1,
                "tempo": 120.0
            },
            {
                "start_time": 72.8318182,
                "end_time": 72.9318182,
                "pitch": 24,
                "velocity": 51,
                "duration": 0.1,
                "tempo": 120.0
            },
            {
                "start_time": 72.9659091,
                "end_time": 73.0681818,
                "pitch": 36,
                "velocity": 51,
                "duration": 0.1022727,
                "tempo": 120.0
            },
            {
                "start_time": 73.1022727,
                "end_time": 73.2045455,
                "pitch": 24,
                "velocity": 51,
                "duration": 0.1022727,
                "tempo": 120.0
            },
            {
                "start_time": 73.2386364,
                "end_time": 73.3409091,
                "pitch": 36,
                "velocity": 51,
                "duration": 0.1022727,
                "tempo": 120.0
            },
            {
                "start_time": 73.375,
                "end_time": 73.475,
                "pitch": 24,
                "velocity": 51,
                "duration": 0.1,
                "tempo": 120.0
            },
            {
                "start_time": 73.5090909,
                "end_time": 73.6090909,
                "pitch": 36,
                "velocity": 51,
                "duration": 0.1,
                "tempo": 120.0
            },
            {
                "start_time": 73.6431818,
                "end_time": 73.7431818,
                "pitch": 24,
                "velocity": 51,
                "duration": 0.1,
                "tempo": 120.0
            },
            {
                "start_time": 73.775,
                "end_time": 73.8727273,
                "pitch": 38,
                "velocity": 51,
                "duration": 0.0977273,
                "tempo": 120.0
            },
            {
                "start_time": 73.9068182,
                "end_time": 74.0045455,
                "pitch": 26,
                "velocity": 51,
                "duration": 0.0977273,
                "tempo": 120.0
            },
            {
                "start_time": 74.0363636,
                "end_time": 74.1363636,
                "pitch": 38,
                "velocity": 51,
                "duration": 0.1,
                "tempo": 120.0
            },
            {
                "start_time": 74.1681818,
                "end_time": 74.2681818,
                "pitch": 26,
                "velocity": 51,
                "duration": 0.1,
                "tempo": 120.0
            },
            {
                "start_time": 74.3022727,
                "end_time": 74.4022727,
                "pitch": 38,
                "velocity": 51,
                "duration": 0.1,
                "tempo": 120.0
            },
            {
                "start_time": 74.4363636,
                "end_time": 74.5363636,
                "pitch": 26,
                "velocity": 51,
                "duration": 0.1,
                "tempo": 120.0
            },
            {
                "start_time": 74.5704545,
                "end_time": 74.6704545,
                "pitch": 38,
                "velocity": 51,
                "duration": 0.1,
                "tempo": 120.0
            },
            {
                "start_time": 74.7045455,
                "end_time": 74.8045455,
                "pitch": 26,
                "velocity": 51,
                "duration": 0.1,
                "tempo": 120.0
            },
            {
                "start_time": 74.8363636,
                "end_time": 74.9363636,
                "pitch": 38,
                "velocity": 51,
                "duration": 0.1,
                "tempo": 120.0
            },
            {
                "start_time": 74.9704545,
                "end_time": 75.0704545,
                "pitch": 26,
                "velocity": 51,
                "duration": 0.1,
                "tempo": 120.0
            },
            {
                "start_time": 75.1045455,
                "end_time": 75.2045455,
                "pitch": 38,
                "velocity": 51,
                "duration": 0.1,
                "tempo": 120.0
            },
            {
                "start_time": 75.2386364,
                "end_time": 75.3409091,
                "pitch": 26,
                "velocity": 51,
                "duration": 0.1022727,
                "tempo": 120.0
            },
            {
                "start_time": 75.3727273,
                "end_time": 75.475,
                "pitch": 38,
                "velocity": 51,
                "duration": 0.1022727,
                "tempo": 120.0
            },
            {
                "start_time": 75.5068182,
                "end_time": 75.6090909,
                "pitch": 26,
                "velocity": 51,
                "duration": 0.1022727,
                "tempo": 120.0
            },
            {
                "start_time": 75.6409091,
                "end_time": 75.7431818,
                "pitch": 38,
                "velocity": 51,
                "duration": 0.1022727,
                "tempo": 120.0
            },
            {
                "start_time": 75.775,
                "end_time": 75.875,
                "pitch": 26,
                "velocity": 51,
                "duration": 0.1,
                "tempo": 120.0
            },
            {
                "start_time": 75.9090909,
                "end_time": 76.0090909,
                "pitch": 38,
                "velocity": 51,
                "duration": 0.1,
                "tempo": 120.0
            },
            {
                "start_time": 76.0431818,
                "end_time": 76.1431818,
                "pitch": 26,
                "velocity": 51,
                "duration": 0.1,
                "tempo": 120.0
            },
            {
                "start_time": 76.175,
                "end_time": 76.2772727,
                "pitch": 38,
                "velocity": 51,
                "duration": 0.1022727,
                "tempo": 120.0
            },
            {
                "start_time": 76.3113636,
                "end_time": 76.4113636,
                "pitch": 26,
                "velocity": 51,
                "duration": 0.1,
                "tempo": 120.0
            },
            {
                "start_time": 76.4454545,
                "end_time": 76.5454545,
                "pitch": 38,
                "velocity": 51,
                "duration": 0.1,
                "tempo": 120.0
            },
            {
                "start_time": 76.5795455,
                "end_time": 76.6795455,
                "pitch": 26,
                "velocity": 51,
                "duration": 0.1,
                "tempo": 120.0
            },
            {
                "start_time": 76.7113636,
                "end_time": 76.8113636,
                "pitch": 38,
                "velocity": 51,
                "duration": 0.1,
                "tempo": 120.0
            },
            {
                "start_time": 76.8454545,
                "end_time": 76.9454545,
                "pitch": 26,
                "velocity": 51,
                "duration": 0.1,
                "tempo": 120.0
            },
            {
                "start_time": 76.9795455,
                "end_time": 77.0795455,
                "pitch": 40,
                "velocity": 51,
                "duration": 0.1,
                "tempo": 120.0
            },
            {
                "start_time": 77.1136364,
                "end_time": 77.2136364,
                "pitch": 28,
                "velocity": 51,
                "duration": 0.1,
                "tempo": 120.0
            },
            {
                "start_time": 77.2477273,
                "end_time": 77.3477273,
                "pitch": 40,
                "velocity": 51,
                "duration": 0.1,
                "tempo": 120.0
            },
            {
                "start_time": 77.3818182,
                "end_time": 77.4818182,
                "pitch": 28,
                "velocity": 51,
                "duration": 0.1,
                "tempo": 120.0
            },
            {
                "start_time": 77.5159091,
                "end_time": 77.6159091,
                "pitch": 40,
                "velocity": 51,
                "duration": 0.1,
                "tempo": 120.0
            },
            {
                "start_time": 77.65,
                "end_time": 77.75,
                "pitch": 28,
                "velocity": 51,
                "duration": 0.1,
                "tempo": 120.0
            },
            {
                "start_time": 77.7840909,
                "end_time": 77.8840909,
                "pitch": 40,
                "velocity": 51,
                "duration": 0.1,
                "tempo": 120.0
            },
            {
                "start_time": 77.9181818,
                "end_time": 78.0181818,
                "pitch": 28,
                "velocity": 51,
                "duration": 0.1,
                "tempo": 120.0
            },
            {
                "start_time": 78.05,
                "end_time": 78.15,
                "pitch": 40,
                "velocity": 51,
                "duration": 0.1,
                "tempo": 120.0
            },
            {
                "start_time": 78.1840909,
                "end_time": 78.2863636,
                "pitch": 28,
                "velocity": 51,
                "duration": 0.1022727,
                "tempo": 120.0
            },
            {
                "start_time": 78.3204545,
                "end_time": 78.4227273,
                "pitch": 40,
                "velocity": 51,
                "duration": 0.1022727,
                "tempo": 120.0
            },
            {
                "start_time": 78.4568182,
                "end_time": 78.5613636,
                "pitch": 28,
                "velocity": 51,
                "duration": 0.1045455,
                "tempo": 120.0
            },
            {
                "start_time": 78.5954545,
                "end_time": 78.6931818,
                "pitch": 40,
                "velocity": 51,
                "duration": 0.0977273,
                "tempo": 120.0
            },
            {
                "start_time": 78.725,
                "end_time": 78.8227273,
                "pitch": 28,
                "velocity": 51,
                "duration": 0.0977273,
                "tempo": 120.0
            },
            {
                "start_time": 78.8568182,
                "end_time": 78.9545455,
                "pitch": 40,
                "velocity": 51,
                "duration": 0.0977273,
                "tempo": 120.0
            },
            {
                "start_time": 78.9863636,
                "end_time": 79.0886364,
                "pitch": 28,
                "velocity": 51,
                "duration": 0.1022727,
                "tempo": 120.0
            },
            {
                "start_time": 79.1204545,
                "end_time": 79.2227273,
                "pitch": 40,
                "velocity": 51,
                "duration": 0.1022727,
                "tempo": 120.0
            },
            {
                "start_time": 79.2545455,
                "end_time": 79.3568182,
                "pitch": 28,
                "velocity": 51,
                "duration": 0.1022727,
                "tempo": 120.0
            },
            {
                "start_time": 79.3886364,
                "end_time": 79.4931818,
                "pitch": 40,
                "velocity": 51,
                "duration": 0.1045455,
                "tempo": 120.0
            },
            {
                "start_time": 79.5272727,
                "end_time": 79.6295455,
                "pitch": 28,
                "velocity": 51,
                "duration": 0.1022727,
                "tempo": 120.0
            },
            {
                "start_time": 79.6636364,
                "end_time": 79.7659091,
                "pitch": 40,
                "velocity": 51,
                "duration": 0.1022727,
                "tempo": 120.0
            },
            {
                "start_time": 79.8,
                "end_time": 79.8977273,
                "pitch": 28,
                "velocity": 51,
                "duration": 0.0977273,
                "tempo": 120.0
            },
            {
                "start_time": 79.9318182,
                "end_time": 80.0295455,
                "pitch": 40,
                "velocity": 51,
                "duration": 0.0977273,
                "tempo": 120.0
            },
            {
                "start_time": 80.0613636,
                "end_time": 80.1590909,
                "pitch": 28,
                "velocity": 51,
                "duration": 0.0977273,
                "tempo": 120.0
            }
        ]
    }
}