{
    "mood": "angry",
    "instruments": {
        "Acoustic Bass": [
            {
                "start_time": 0.0113636,
                "end_time": 0.3136364,
                "pitch": 38,
                "velocity": 80,
                "duration": 0.3022727,
                "tempo": 120.0
            },
            {
                "start_time": 0.3295455,
                "end_time": 0.4477273,
                "pitch": 38,
                "velocity": 80,
                "duration": 0.1181818,
                "tempo": 120.0
            },
            {
                "start_time": 0.4818182,
                "end_time": 0.6,
                "pitch": 38,
                "velocity": 80,
                "duration": 0.1181818,
                "tempo": 120.0
            },
            {
                "start_time": 0.0,
                "end_time": 0.7295455,
                "pitch": 45,
                "velocity": 80,
                "duration": 0.7295455,
                "tempo": 120.0
            },
            {
                "start_time": 0.6159091,
                "end_time": 0.7295455,
                "pitch": 45,
                "velocity": 80,
                "duration": 0.1136364,
                "tempo": 120.0
            },
            {
                "start_time": 0.7931818,
                "end_time": 1.0363636,
                "pitch": 38,
                "velocity": 80,
                "duration": 0.2431818,
                "tempo": 120.0
            },
            {
                "start_time": 1.0681818,
                "end_time": 1.3159091,
                "pitch": 38,
                "velocity": 80,
                "duration": 0.2477273,
                "tempo": 120.0
            },
            {
                "start_time": 1.3818182,
                "end_time": 1.4977273,
                "pitch": 38,
                "velocity": 80,
                "duration": 0.1159091,
                "tempo": 120.0
            },
            {
                "start_time": 1.5159091,
                "end_time": 1.6318182,
                "pitch": 45,
                "velocity": 80,
                "duration": 0.1159091,
                "tempo": 120.0
            },
            {
                "start_time": 1.6659091,
                "end_time": 1.7818182,
                "pitch": 38,
                "velocity": 80,
                "duration": 0.1159091,
                "tempo": 120.0
            },
            {
                "start_time": 1.7977273,
                "end_time": 1.9159091,
                "pitch": 43,
                "velocity": 80,
                "duration": 0.1181818,
                "tempo": 120.0
            },
            {
                "start_time": 1.9840909,
                "end_time": 2.1022727,
                "pitch": 38,
                "velocity": 80,
                "duration": 0.1181818,
                "tempo": 120.0
            },
            {
                "start_time": 2.1181818,
                "end_time": 2.2363636,
                "pitch": 41,
                "velocity": 80,
                "duration": 0.1181818,
                "tempo": 120.0
            },
            {
                "start_time": 2.2704545,
                "end_time": 2.3886364,
                "pitch": 38,
                "velocity": 80,
                "duration": 0.1181818,
                "tempo": 120.0
            },
            {
                "start_time": 2.4045455,
                "end_time": 2.7045455,
                "pitch": 38,
                "velocity": 80,
                "duration": 0.3,
                "tempo": 120.0
            },
            {
                "start_time": 2.7204545,
                "end_time": 2.8386364,
                "pitch": 38,
                "velocity": 80,
                "duration": 0.1181818,
                "tempo": 120.0
            },
            {
                "start_time": 2.8704545,
                "end_time": 2.9886364,
                "pitch": 38,
                "velocity": 80,
                "duration": 0.1181818,
                "tempo": 120.0
            },
            {
                "start_time": 3.0045455,
                "end_time": 3.1227273,
                "pitch": 45,
                "velocity": 80,
                "duration": 0.1181818,
                "tempo": 120.0
            },
            {
                "start_time": 3.1909091,
                "end_time": 3.4431818,
                "pitch": 38,
                "velocity": 80,
                "duration": 0.2522727,
                "tempo": 120.0
            },
            {
                "start_time": 3.475,
                "end_time": 3.7295455,
                "pitch": 38,
                "velocity": 80,
                "duration": 0.2545455,
                "tempo": 120.0
            },
            {
                "start_time": 3.7954545,
                "end_time": 3.9136364,
                "pitch": 38,
                "velocity": 80,
                "duration": 0.1181818,
                "tempo": 120.0
            },
            {
                "start_time": 3.9295455,
                "end_time": 4.0477273,
                "pitch": 45,
                "velocity": 80,
                "duration": 0.1181818,
                "tempo": 120.0
            },
            {
                "start_time": 4.0818182,
                "end_time": 4.2,
                "pitch": 38,
                "velocity": 80,
                "duration": 0.1181818,
                "tempo": 120.0
            },
            {
                "start_time": 4.2159091,
                "end_time": 4.3340909,
                "pitch": 43,
                "velocity": 80,
                "duration": 0.1181818,
                "tempo": 120.0
            },
            {
                "start_time": 4.4022727,
                "end_time": 4.5204545,
                "pitch": 38,
                "velocity": 80,
                "duration": 0.1181818,
                "tempo": 120.0
            },
            {
                "start_time": 4.5363636,
                "end_time": 4.6545455,
                "pitch": 41,
                "velocity": 80,
                "duration": 0.1181818,
                "tempo": 120.0
            },
            {
                "start_time": 4.6886364,
                "end_time": 4.8068182,
                "pitch": 38,
                "velocity": 80,
                "duration": 0.1181818,
                "tempo": 120.0
            },
            {
                "start_time": 4.8227273,
                "end_time": 5.1227273,
                "pitch": 38,
                "velocity": 80,
                "duration": 0.3,
                "tempo": 120.0
            },
            {
                "start_time": 5.1386364,
                "end_time": 5.2568182,
                "pitch": 38,
                "velocity": 80,
                "duration": 0.1181818,
                "tempo": 120.0
            },
            {
                "start_time": 5.2886364,
                "end_time": 5.4068182,
                "pitch": 38,
                "velocity": 80,
                "duration": 0.1181818,
                "tempo": 120.0
            },
            {
                "start_time": 5.4227273,
                "end_time": 5.5409091,
                "pitch": 45,
                "velocity": 80,
                "duration": 0.1181818,
                "tempo": 120.0
            },
            {
                "start_time": 5.6090909,
                "end_time": 5.8613636,
                "pitch": 38,
                "velocity": 80,
                "duration": 0.2522727,
                "tempo": 120.0
            },
            {
                "start_time": 5.8931818,
                "end_time": 6.1454545,
                "pitch": 38,
                "velocity": 80,
                "duration": 0.2522727,
                "tempo": 120.0
            },
            {
                "start_time": 6.2113636,
                "end_time": 6.3295455,
                "pitch": 38,
                "velocity": 80,
                "duration": 0.1181818,
                "tempo": 120.0
            },
            {
                "start_time": 6.3454545,
                "end_time": 6.4613636,
                "pitch": 45,
                "velocity": 80,
                "duration": 0.1159091,
                "tempo": 120.0
            },
            {
                "start_time": 6.4954545,
                "end_time": 6.6113636,
                "pitch": 38,
                "velocity": 80,
                "duration": 0.1159091,
                "tempo": 120.0
            },
            {
                "start_time": 6.6295455,
                "end_time": 6.7454545,
                "pitch": 43,
                "velocity": 80,
                "duration": 0.1159091,
                "tempo": 120.0
            },
            {
                "start_time": 6.8113636,
                "end_time": 6.9295455,
                "pitch": 38,
                "velocity": 80,
                "duration": 0.1181818,
                "tempo": 120.0
            },
            {
                "start_time": 6.9454545,
                "end_time": 7.0613636,
                "pitch": 41,
                "velocity": 80,
                "duration": 0.1159091,
                "tempo": 120.0
            },
            {
                "start_time": 7.0954545,
                "end_time": 7.2113636,
                "pitch": 38,
                "velocity": 80,
                "duration": 0.1159091,
                "tempo": 120.0
            },
            {
                "start_time": 7.2295455,
                "end_time": 7.5318182,
                "pitch": 38,
                "velocity": 80,
                "duration": 0.3022727,
                "tempo": 120.0
            },
            {
                "start_time": 7.5477273,
                "end_time": 7.6659091,
                "pitch": 38,
                "velocity": 80,
                "duration": 0.1181818,
                "tempo": 120.0
            },
            {
                "start_time": 7.7,
                "end_time": 7.8181818,
                "pitch": 38,
                "velocity": 80,
                "duration": 0.1181818,
                "tempo": 120.0
            },
            {
                "start_time": 7.8340909,
                "end_time": 7.9522727,
                "pitch": 45,
                "velocity": 80,
                "duration": 0.1181818,
                "tempo": 120.0
            },
            {
                "start_time": 8.0181818,
                "end_time": 8.2681818,
                "pitch": 38,
                "velocity": 80,
                "duration": 0.25,
                "tempo": 120.0
            },
            {
                "start_time": 8.3022727,
                "end_time": 8.5522727,
                "pitch": 38,
                "velocity": 80,
                "duration": 0.25,
                "tempo": 120.0
            },
            {
                "start_time": 8.6204545,
                "end_time": 8.7386364,
                "pitch": 38,
                "velocity": 80,
                "duration": 0.1181818,
                "tempo": 120.0
            },
            {
                "start_time": 8.7545455,
                "end_time": 8.8727273,
                "pitch": 45,
                "velocity": 80,
                "duration": 0.1181818,
                "tempo": 120.0
            },
            {
                "start_time": 8.9068182,
                "end_time": 9.025,
                "pitch": 38,
                "velocity": 80,
                "duration": 0.1181818,
                "tempo": 120.0
            },
            {
                "start_time": 9.0409091,
                "end_time": 9.1568182,
                "pitch": 43,
                "velocity": 80,
                "duration": 0.1159091,
                "tempo": 120.0
            },
            {
                "start_time": 9.225,
                "end_time": 9.3409091,
                "pitch": 38,
                "velocity": 80,
                "duration": 0.1159091,
                "tempo": 120.0
            },
            {
                "start_time": 9.3568182,
                "end_time": 9.475,
                "pitch": 41,
                "velocity": 80,
                "duration": 0.1181818,
                "tempo": 120.0
            },
            {
                "start_time": 9.5068182,
                "end_time": 9.625,
                "pitch": 38,
                "velocity": 80,
                "duration": 0.1181818,
                "tempo": 120.0
            },
            {
                "start_time": 9.6409091,
                "end_time": 9.9409091,
                "pitch": 40,
                "velocity": 80,
                "duration": 0.3,
                "tempo": 120.0
            },
            {
                "start_time": 9.9568182,
                "end_time": 10.075,
                "pitch": 40,
                "velocity": 80,
                "duration": 0.1181818,
                "tempo": 120.0
            },
            {
                "start_time": 10.1068182,
                "end_time": 10.225,
                "pitch": 40,
                "velocity": 80,
                "duration": 0.1181818,
                "tempo": 120.0
            },
            {
                "start_time": 10.2409091,
                "end_time": 10.3568182,
                "pitch": 48,
                "velocity": 80,
                "duration": 0.1159091,
                "tempo": 120.0
            },
            {
                "start_time": 10.425,
                "end_time": 10.675,
                "pitch": 40,
                "velocity": 80,
                "duration": 0.25,
                "tempo": 120.0
            },
            {
                "start_time": 10.7068182,
                "end_time": 10.9590909,
                "pitch": 40,
                "velocity": 80,
                "duration": 0.2522727,
                "tempo": 120.0
            },
            {
                "start_time": 11.0272727,
                "end_time": 11.1431818,
                "pitch": 40,
                "velocity": 80,
                "duration": 0.1159091,
                "tempo": 120.0
            },
            {
                "start_time": 11.1613636,
                "end_time": 11.2795455,
                "pitch": 48,
                "velocity": 80,
                "duration": 0.1181818,
                "tempo": 120.0
            },
            {
                "start_time": 11.3113636,
                "end_time": 11.4295455,
                "pitch": 40,
                "velocity": 80,
                "duration": 0.1181818,
                "tempo": 120.0
            },
            {
                "start_time": 11.4477273,
                "end_time": 11.5636364,
                "pitch": 47,
                "velocity": 80,
                "duration": 0.1159091,
                "tempo": 120.0
            },
            {
                "start_time": 11.6295455,
                "end_time": 11.7477273,
                "pitch": 40,
                "velocity": 80,
                "duration": 0.1181818,
                "tempo": 120.0
            },
            {
                "start_time": 11.7636364,
                "end_time": 11.8795455,
                "pitch": 45,
                "velocity": 80,
                "duration": 0.1159091,
                "tempo": 120.0
            },
            {
                "start_time": 11.9136364,
                "end_time": 12.0295455,
                "pitch": 47,
                "velocity": 80,
                "duration": 0.1159091,
                "tempo": 120.0
            },
            {
                "start_time": 12.0477273,
                "end_time": 12.3477273,
                "pitch": 40,
                "velocity": 80,
                "duration": 0.3,
                "tempo": 120.0
            },
            {
                "start_time": 12.3636364,
                "end_time": 12.4795455,
                "pitch": 40,
                "velocity": 80,
                "duration": 0.1159091,
                "tempo": 120.0
            },
            {
                "start_time": 12.5136364,
                "end_time": 12.6295455,
                "pitch": 40,
                "velocity": 80,
                "duration": 0.1159091,
                "tempo": 120.0
            },
            {
                "start_time": 12.6477273,
                "end_time": 12.7636364,
                "pitch": 48,
                "velocity": 80,
                "duration": 0.1159091,
                "tempo": 120.0
            },
            {
                "start_time": 12.8295455,
                "end_time": 13.0795455,
                "pitch": 40,
                "velocity": 80,
                "duration": 0.25,
                "tempo": 120.0
            },
            {
                "start_time": 13.1136364,
                "end_time": 13.3636364,
                "pitch": 40,
                "velocity": 80,
                "duration": 0.25,
                "tempo": 120.0
            },
            {
                "start_time": 13.4295455,
                "end_time": 13.5477273,
                "pitch": 40,
                "velocity": 80,
                "duration": 0.1181818,
                "tempo": 120.0
            },
            {
                "start_time": 13.5636364,
                "end_time": 13.6795455,
                "pitch": 48,
                "velocity": 80,
                "duration": 0.1159091,
                "tempo": 120.0
            },
            {
                "start_time": 13.7136364,
                "end_time": 13.8295455,
                "pitch": 40,
                "velocity": 80,
                "duration": 0.1159091,
                "tempo": 120.0
            },
            {
                "start_time": 13.8477273,
                "end_time": 13.9659091,
                "pitch": 47,
                "velocity": 80,
                "duration": 0.1181818,
                "tempo": 120.0
            },
            {
                "start_time": 14.0318182,
                "end_time": 14.15,
                "pitch": 40,
                "velocity": 80,
                "duration": 0.1181818,
                "tempo": 120.0
            },
            {
                "start_time": 14.1659091,
                "end_time": 14.2840909,
                "pitch": 45,
                "velocity": 80,
                "duration": 0.1181818,
                "tempo": 120.0
            },
            {
                "start_time": 14.3181818,
                "end_time": 14.4363636,
                "pitch": 47,
                "velocity": 80,
                "duration": 0.1181818,
                "tempo": 120.0
            },
            {
                "start_time": 14.4522727,
                "end_time": 14.7522727,
                "pitch": 38,
                "velocity": 80,
                "duration": 0.3,
                "tempo": 120.0
            },
            {
                "start_time": 14.7704545,
                "end_time": 14.8863636,
                "pitch": 38,
                "velocity": 80,
                "duration": 0.1159091,
                "tempo": 120.0
            },
            {
                "start_time": 14.9204545,
                "end_time": 15.0363636,
                "pitch": 38,
                "velocity": 80,
                "duration": 0.1159091,
                "tempo": 120.0
            },
            {
                "start_time": 15.0522727,
                "end_time": 15.1704545,
                "pitch": 45,
                "velocity": 80,
                "duration": 0.1181818,
                "tempo": 120.0
            },
            {
                "start_time": 15.2363636,
                "end_time": 15.4863636,
                "pitch": 38,
                "velocity": 80,
                "duration": 0.25,
                "tempo": 120.0
            },
            {
                "start_time": 15.5204545,
                "end_time": 15.7704545,
                "pitch": 38,
                "velocity": 80,
                "duration": 0.25,
                "tempo": 120.0
            },
            {
                "start_time": 15.8363636,
                "end_time": 15.9522727,
                "pitch": 38,
                "velocity": 80,
                "duration": 0.1159091,
                "tempo": 120.0
            },
            {
                "start_time": 15.9704545,
                "end_time": 16.0863636,
                "pitch": 45,
                "velocity": 80,
                "duration": 0.1159091,
                "tempo": 120.0
            },
            {
                "start_time": 16.1204545,
                "end_time": 16.2363636,
                "pitch": 38,
                "velocity": 80,
                "duration": 0.1159091,
                "tempo": 120.0
            },
            {
                "start_time": 16.2522727,
                "end_time": 16.3704545,
                "pitch": 43,
                "velocity": 80,
                "duration": 0.1181818,
                "tempo": 120.0
            },
            {
                "start_time": 16.4363636,
                "end_time": 16.5522727,
                "pitch": 38,
                "velocity": 80,
                "duration": 0.1159091,
                "tempo": 120.0
            },
            {
                "start_time": 16.5704545,
                "end_time": 16.6863636,
                "pitch": 41,
                "velocity": 80,
                "duration": 0.1159091,
                "tempo": 120.0
            },
            {
                "start_time": 16.7204545,
                "end_time": 16.8363636,
                "pitch": 38,
                "velocity": 80,
                "duration": 0.1159091,
                "tempo": 120.0
            },
            {
                "start_time": 16.8522727,
                "end_time": 17.1568182,
                "pitch": 38,
                "velocity": 80,
                "duration": 0.3045455,
                "tempo": 120.0
            },
            {
                "start_time": 17.1727273,
                "end_time": 17.2909091,
                "pitch": 38,
                "velocity": 80,
                "duration": 0.1181818,
                "tempo": 120.0
            },
            {
                "start_time": 17.325,
                "end_time": 17.4431818,
                "pitch": 38,
                "velocity": 80,
                "duration": 0.1181818,
                "tempo": 120.0
            },
            {
                "start_time": 17.4590909,
                "end_time": 17.575,
                "pitch": 45,
                "velocity": 80,
                "duration": 0.1159091,
                "tempo": 120.0
            },
            {
                "start_time": 17.6431818,
                "end_time": 17.8931818,
                "pitch": 38,
                "velocity": 80,
                "duration": 0.25,
                "tempo": 120.0
            },
            {
                "start_time": 17.925,
                "end_time": 18.1772727,
                "pitch": 38,
                "velocity": 80,
                "duration": 0.2522727,
                "tempo": 120.0
            },
            {
                "start_time": 18.2454545,
                "end_time": 18.3613636,
                "pitch": 38,
                "velocity": 80,
                "duration": 0.1159091,
                "tempo": 120.0
            },
            {
                "start_time": 18.3795455,
                "end_time": 18.4977273,
                "pitch": 45,
                "velocity": 80,
                "duration": 0.1181818,
                "tempo": 120.0
            },
            {
                "start_time": 18.5295455,
                "end_time": 18.6477273,
                "pitch": 38,
                "velocity": 80,
                "duration": 0.1181818,
                "tempo": 120.0
            },
            {
                "start_time": 18.6659091,
                "end_time": 18.7840909,
                "pitch": 43,
                "velocity": 80,
                "duration": 0.1181818,
                "tempo": 120.0
            },
            {
                "start_time": 18.85,
                "end_time": 18.9681818,
                "pitch": 38,
                "velocity": 80,
                "duration": 0.1181818,
                "tempo": 120.0
            },
            {
                "start_time": 18.9840909,
                "end_time": 19.1022727,
                "pitch": 41,
                "velocity": 80,
                "duration": 0.1181818,
                "tempo": 120.0
            },
            {
                "start_time": 19.1363636,
                "end_time": 19.2545455,
                "pitch": 38,
                "velocity": 80,
                "duration": 0.1181818,
                "tempo": 120.0
            },
            {
                "start_time": 19.2704545,
                "end_time": 19.3886364,
                "pitch": 33,
                "velocity": 80,
                "duration": 0.1181818,
                "tempo": 120.0
            },
            {
                "start_time": 19.4545455,
                "end_time": 19.5704545,
                "pitch": 38,
                "velocity": 80,
                "duration": 0.1159091,
                "tempo": 120.0
            },
            {
                "start_time": 19.5886364,
                "end_time": 19.7045455,
                "pitch": 41,
                "velocity": 80,
                "duration": 0.1159091,
                "tempo": 120.0
            },
            {
                "start_time": 19.7386364,
                "end_time": 19.8545455,
                "pitch": 45,
                "velocity": 80,
                "duration": 0.1159091,
                "tempo": 120.0
            },
            {
                "start_time": 19.8704545,
                "end_time": 19.9886364,
                "pitch": 33,
                "velocity": 80,
                "duration": 0.1181818,
                "tempo": 120.0
            },
            {
                "start_time": 20.0568182,
                "end_time": 20.175,
                "pitch": 38,
                "velocity": 80,
                "duration": 0.1181818,
                "tempo": 120.0
            },
            {
                "start_time": 20.1909091,
                "end_time": 20.3090909,
                "pitch": 41,
                "velocity": 80,
                "duration": 0.1181818,
                "tempo": 120.0
            },
            {
                "start_time": 20.3431818,
                "end_time": 20.4613636,
                "pitch": 45,
                "velocity": 80,
                "duration": 0.1181818,
                "tempo": 120.0
            },
            {
                "start_time": 20.4772727,
                "end_time": 20.5931818,
                "pitch": 33,
                "velocity": 80,
                "duration": 0.1159091,
                "tempo": 120.0
            },
            {
                "start_time": 20.6613636,
                "end_time": 20.7772727,
                "pitch": 38,
                "velocity": 80,
                "duration": 0.1159091,
                "tempo": 120.0
            },
            {
                "start_time": 20.7931818,
                "end_time": 20.9113636,
                "pitch": 41,
                "velocity": 80,
                "duration": 0.1181818,
                "tempo": 120.0
            },
            {
                "start_time": 20.9431818,
                "end_time": 21.0613636,
                "pitch": 45,
                "velocity": 80,
                "duration": 0.1181818,
                "tempo": 120.0
            },
            {
                "start_time": 21.0772727,
                "end_time": 21.1954545,
                "pitch": 33,
                "velocity": 80,
                "duration": 0.1181818,
                "tempo": 120.0
            },
            {
                "start_time": 21.2636364,
                "end_time": 21.3795455,
                "pitch": 38,
                "velocity": 80,
                "duration": 0.1159091,
                "tempo": 120.0
            },
            {
                "start_time": 21.3977273,
                "end_time": 21.5159091,
                "pitch": 41,
                "velocity": 80,
                "duration": 0.1181818,
                "tempo": 120.0
            },
            {
                "start_time": 21.5477273,
                "end_time": 21.6659091,
                "pitch": 45,
                "velocity": 80,
                "duration": 0.1181818,
                "tempo": 120.0
            },
            {
                "start_time": 21.6840909,
                "end_time": 21.8022727,
                "pitch": 33,
                "velocity": 80,
                "duration": 0.1181818,
                "tempo": 120.0
            },
            {
                "start_time": 21.8681818,
                "end_time": 21.9863636,
                "pitch": 38,
                "velocity": 80,
                "duration": 0.1181818,
                "tempo": 120.0
            },
            {
                "start_time": 22.0022727,
                "end_time": 22.1204545,
                "pitch": 41,
                "velocity": 80,
                "duration": 0.1181818,
                "tempo": 120.0
            },
            {
                "start_time": 22.1545455,
                "end_time": 22.2727273,
                "pitch": 45,
                "velocity": 80,
                "duration": 0.1181818,
                "tempo": 120.0
            },
            {
                "start_time": 22.2886364,
                "end_time": 22.4068182,
                "pitch": 33,
                "velocity": 80,
                "duration": 0.1181818,
                "tempo": 120.0
            },
            {
                "start_time": 22.4727273,
                "end_time": 22.5886364,
                "pitch": 38,
                "velocity": 80,
                "duration": 0.1159091,
                "tempo": 120.0
            },
            {
                "start_time": 22.6068182,
                "end_time": 22.7227273,
                "pitch": 41,
                "velocity": 80,
                "duration": 0.1159091,
                "tempo": 120.0
            },
            {
                "start_time": 22.7568182,
                "end_time": 22.8727273,
                "pitch": 45,
                "velocity": 80,
                "duration": 0.1159091,
                "tempo": 120.0
            },
            {
                "start_time": 22.8886364,
                "end_time": 23.0068182,
                "pitch": 33,
                "velocity": 80,
                "duration": 0.1181818,
                "tempo": 120.0
            },
            {
                "start_time": 23.075,
                "end_time": 23.1931818,
                "pitch": 38,
                "velocity": 80,
                "duration": 0.1181818,
                "tempo": 120.0
            },
            {
                "start_time": 23.2090909,
                "end_time": 23.3272727,
                "pitch": 41,
                "velocity": 80,
                "duration": 0.1181818,
                "tempo": 120.0
            },
            {
                "start_time": 23.3613636,
                "end_time": 23.4795455,
                "pitch": 45,
                "velocity": 80,
                "duration": 0.1181818,
                "tempo": 120.0
            },
            {
                "start_time": 23.4954545,
                "end_time": 23.6113636,
                "pitch": 33,
                "velocity": 80,
                "duration": 0.1159091,
                "tempo": 120.0
            },
            {
                "start_time": 23.6795455,
                "end_time": 23.7954545,
                "pitch": 38,
                "velocity": 80,
                "duration": 0.1159091,
                "tempo": 120.0
            },
            {
                "start_time": 23.8113636,
                "end_time": 23.9295455,
                "pitch": 41,
                "velocity": 80,
                "duration": 0.1181818,
                "tempo": 120.0
            },
            {
                "start_time": 23.9613636,
                "end_time": 24.0795455,
                "pitch": 45,
                "velocity": 80,
                "duration": 0.1181818,
                "tempo": 120.0
            },
            {
                "start_time": 24.0954545,
                "end_time": 24.2136364,
                "pitch": 33,
                "velocity": 80,
                "duration": 0.1181818,
                "tempo": 120.0
            },
            {
                "start_time": 24.2818182,
                "end_time": 24.3977273,
                "pitch": 38,
                "velocity": 80,
                "duration": 0.1159091,
                "tempo": 120.0
            },
            {
                "start_time": 24.4159091,
                "end_time": 24.5340909,
                "pitch": 41,
                "velocity": 80,
                "duration": 0.1181818,
                "tempo": 120.0
            },
            {
                "start_time": 24.5659091,
                "end_time": 24.6840909,
                "pitch": 45,
                "velocity": 80,
                "duration": 0.1181818,
                "tempo": 120.0
            },
            {
                "start_time": 24.7022727,
                "end_time": 24.8204545,
                "pitch": 33,
                "velocity": 80,
                "duration": 0.1181818,
                "tempo": 120.0
            },
            {
                "start_time": 24.8863636,
                "end_time": 25.0045455,
                "pitch": 38,
                "velocity": 80,
                "duration": 0.1181818,
                "tempo": 120.0
            },
            {
                "start_time": 25.0204545,
                "end_time": 25.1386364,
                "pitch": 41,
                "velocity": 80,
                "duration": 0.1181818,
                "tempo": 120.0
            },
            {
                "start_time": 25.1727273,
                "end_time": 25.2909091,
                "pitch": 45,
                "velocity": 80,
                "duration": 0.1181818,
                "tempo": 120.0
            },
            {
                "start_time": 25.3068182,
                "end_time": 25.425,
                "pitch": 33,
                "velocity": 80,
                "duration": 0.1181818,
                "tempo": 120.0
            },
            {
                "start_time": 25.4909091,
                "end_time": 25.6068182,
                "pitch": 38,
                "velocity": 80,
                "duration": 0.1159091,
                "tempo": 120.0
            },
            {
                "start_time": 25.625,
                "end_time": 25.7409091,
                "pitch": 41,
                "velocity": 80,
                "duration": 0.1159091,
                "tempo": 120.0
            },
            {
                "start_time": 25.775,
                "end_time": 25.8909091,
                "pitch": 45,
                "velocity": 80,
                "duration": 0.1159091,
                "tempo": 120.0
            },
            {
                "start_time": 25.9068182,
                "end_time": 26.025,
                "pitch": 33,
                "velocity": 80,
                "duration": 0.1181818,
                "tempo": 120.0
            },
            {
                "start_time": 26.0931818,
                "end_time": 26.2113636,
                "pitch": 38,
                "velocity": 80,
                "duration": 0.1181818,
                "tempo": 120.0
            },
            {
                "start_time": 26.2272727,
                "end_time": 26.3454545,
                "pitch": 41,
                "velocity": 80,
                "duration": 0.1181818,
                "tempo": 120.0
            },
            {
                "start_time": 26.3795455,
                "end_time": 26.4977273,
                "pitch": 45,
                "velocity": 80,
                "duration": 0.1181818,
                "tempo": 120.0
            },
            {
                "start_time": 26.5136364,
                "end_time": 26.6295455,
                "pitch": 33,
                "velocity": 80,
                "duration": 0.1159091,
                "tempo": 120.0
            },
            {
                "start_time": 26.6977273,
                "end_time": 26.8136364,
                "pitch": 38,
                "velocity": 80,
                "duration": 0.1159091,
                "tempo": 120.0
            },
            {
                "start_time": 26.8295455,
                "end_time": 26.9477273,
                "pitch": 41,
                "velocity": 80,
                "duration": 0.1181818,
                "tempo": 120.0
            },
            {
                "start_time": 26.9795455,
                "end_time": 27.0977273,
                "pitch": 45,
                "velocity": 80,
                "duration": 0.1181818,
                "tempo": 120.0
            },
            {
                "start_time": 27.1136364,
                "end_time": 27.2318182,
                "pitch": 33,
                "velocity": 80,
                "duration": 0.1181818,
                "tempo": 120.0
            },
            {
                "start_time": 27.3,
                "end_time": 27.4159091,
                "pitch": 38,
                "velocity": 80,
                "duration": 0.1159091,
                "tempo": 120.0
            },
            {
                "start_time": 27.4340909,
                "end_time": 27.5522727,
                "pitch": 41,
                "velocity": 80,
                "duration": 0.1181818,
                "tempo": 120.0
            },
            {
                "start_time": 27.5840909,
                "end_time": 27.7022727,
                "pitch": 45,
                "velocity": 80,
                "duration": 0.1181818,
                "tempo": 120.0
            },
            {
                "start_time": 27.7204545,
                "end_time": 27.8386364,
                "pitch": 33,
                "velocity": 80,
                "duration": 0.1181818,
                "tempo": 120.0
            },
            {
                "start_time": 27.9045455,
                "end_time": 28.0227273,
                "pitch": 38,
                "velocity": 80,
                "duration": 0.1181818,
                "tempo": 120.0
            },
            {
                "start_time": 28.0386364,
                "end_time": 28.1568182,
                "pitch": 41,
                "velocity": 80,
                "duration": 0.1181818,
                "tempo": 120.0
            },
            {
                "start_time": 28.1909091,
                "end_time": 28.3090909,
                "pitch": 45,
                "velocity": 80,
                "duration": 0.1181818,
                "tempo": 120.0
            },
            {
                "start_time": 28.325,
                "end_time": 28.4431818,
                "pitch": 33,
                "velocity": 80,
                "duration": 0.1181818,
                "tempo": 120.0
            },
            {
                "start_time": 28.5090909,
                "end_time": 28.625,
                "pitch": 38,
                "velocity": 80,
                "duration": 0.1159091,
                "tempo": 120.0
            },
            {
                "start_time": 28.6431818,
                "end_time": 28.7590909,
                "pitch": 41,
                "velocity": 80,
                "duration": 0.1159091,
                "tempo": 120.0
            },
            {
                "start_time": 28.7931818,
                "end_time": 28.9090909,
                "pitch": 45,
                "velocity": 80,
                "duration": 0.1159091,
                "tempo": 120.0
            },
            {
                "start_time": 28.925,
                "end_time": 29.0431818,
                "pitch": 33,
                "velocity": 80,
                "duration": 0.1181818,
                "tempo": 120.0
            },
            {
                "start_time": 29.1113636,
                "end_time": 29.2295455,
                "pitch": 38,
                "velocity": 80,
                "duration": 0.1181818,
                "tempo": 120.0
            },
            {
                "start_time": 29.2454545,
                "end_time": 29.3636364,
                "pitch": 41,
                "velocity": 80,
                "duration": 0.1181818,
                "tempo": 120.0
            },
            {
                "start_time": 29.3977273,
                "end_time": 29.5159091,
                "pitch": 45,
                "velocity": 80,
                "duration": 0.1181818,
                "tempo": 120.0
            },
            {
                "start_time": 29.5318182,
                "end_time": 29.6477273,
                "pitch": 33,
                "velocity": 80,
                "duration": 0.1159091,
                "tempo": 120.0
            },
            {
                "start_time": 29.7159091,
                "end_time": 29.8318182,
                "pitch": 38,
                "velocity": 80,
                "duration": 0.1159091,
                "tempo": 120.0
            },
            {
                "start_time": 29.8477273,
                "end_time": 29.9659091,
                "pitch": 41,
                "velocity": 80,
                "duration": 0.1181818,
                "tempo": 120.0
            },
            {
                "start_time": 29.9977273,
                "end_time": 30.1159091,
                "pitch": 45,
                "velocity": 80,
                "duration": 0.1181818,
                "tempo": 120.0
            },
            {
                "start_time": 30.1318182,
                "end_time": 30.25,
                "pitch": 33,
                "velocity": 80,
                "duration": 0.1181818,
                "tempo": 120.0
            },
            {
                "start_time": 30.3181818,
                "end_time": 30.4340909,
                "pitch": 38,
                "velocity": 80,
                "duration": 0.1159091,
                "tempo": 120.0
            },
            {
                "start_time": 30.4522727,
                "end_time": 30.5704545,
                "pitch": 41,
                "velocity": 80,
                "duration": 0.1181818,
                "tempo": 120.0
            },
            {
                "start_time": 30.6022727,
                "end_time": 30.7204545,
                "pitch": 45,
                "velocity": 80,
                "duration": 0.1181818,
                "tempo": 120.0
            },
            {
                "start_time": 30.7386364,
                "end_time": 30.8568182,
                "pitch": 33,
                "velocity": 80,
                "duration": 0.1181818,
                "tempo": 120.0
            },
            {
                "start_time": 30.9227273,
                "end_time": 31.0409091,
                "pitch": 38,
                "velocity": 80,
                "duration": 0.1181818,
                "tempo": 120.0
            },
            {
                "start_time": 31.0568182,
                "end_time": 31.175,
                "pitch": 41,
                "velocity": 80,
                "duration": 0.1181818,
                "tempo": 120.0
            },
            {
                "start_time": 31.2090909,
                "end_time": 31.3272727,
                "pitch": 45,
                "velocity": 80,
                "duration": 0.1181818,
                "tempo": 120.0
            },
            {
                "start_time": 31.3431818,
                "end_time": 31.4613636,
                "pitch": 33,
                "velocity": 80,
                "duration": 0.1181818,
                "tempo": 120.0
            },
            {
                "start_time": 31.5272727,
                "end_time": 31.6431818,
                "pitch": 38,
                "velocity": 80,
                "duration": 0.1159091,
                "tempo": 120.0
            },
            {
                "start_time": 31.6613636,
                "end_time": 31.7772727,
                "pitch": 41,
                "velocity": 80,
                "duration": 0.1159091,
                "tempo": 120.0
            },
            {
                "start_time": 31.8113636,
                "end_time": 31.9272727,
                "pitch": 45,
                "velocity": 80,
                "duration": 0.1159091,
                "tempo": 120.0
            },
            {
                "start_time": 31.9431818,
                "end_time": 32.0613636,
                "pitch": 33,
                "velocity": 80,
                "duration": 0.1181818,
                "tempo": 120.0
            },
            {
                "start_time": 32.1295455,
                "end_time": 32.2477273,
                "pitch": 38,
                "velocity": 80,
                "duration": 0.1181818,
                "tempo": 120.0
            },
            {
                "start_time": 32.2636364,
                "end_time": 32.3818182,
                "pitch": 41,
                "velocity": 80,
                "duration": 0.1181818,
                "tempo": 120.0
            },
            {
                "start_time": 32.4159091,
                "end_time": 32.5340909,
                "pitch": 45,
                "velocity": 80,
                "duration": 0.1181818,
                "tempo": 120.0
            },
            {
                "start_time": 32.55,
                "end_time": 32.6659091,
                "pitch": 33,
                "velocity": 80,
                "duration": 0.1159091,
                "tempo": 120.0
            },
            {
                "start_time": 32.7340909,
                "end_time": 32.85,
                "pitch": 38,
                "velocity": 80,
                "duration": 0.1159091,
                "tempo": 120.0
            },
            {
                "start_time": 32.8659091,
                "end_time": 32.9840909,
                "pitch": 41,
                "velocity": 80,
                "duration": 0.1181818,
                "tempo": 120.0
            },
            {
                "start_time": 33.0159091,
                "end_time": 33.1340909,
                "pitch": 45,
                "velocity": 80,
                "duration": 0.1181818,
                "tempo": 120.0
            },
            {
                "start_time": 33.15,
                "end_time": 33.2681818,
                "pitch": 33,
                "velocity": 80,
                "duration": 0.1181818,
                "tempo": 120.0
            },
            {
                "start_time": 33.3363636,
                "end_time": 33.4522727,
                "pitch": 38,
                "velocity": 80,
                "duration": 0.1159091,
                "tempo": 120.0
            },
            {
                "start_time": 33.4704545,
                "end_time": 33.5886364,
                "pitch": 41,
                "velocity": 80,
                "duration": 0.1181818,
                "tempo": 120.0
            },
            {
                "start_time": 33.6204545,
                "end_time": 33.7386364,
                "pitch": 45,
                "velocity": 80,
                "duration": 0.1181818,
                "tempo": 120.0
            },
            {
                "start_time": 33.7568182,
                "end_time": 33.875,
                "pitch": 33,
                "velocity": 80,
                "duration": 0.1181818,
                "tempo": 120.0
            },
            {
                "start_time": 33.9409091,
                "end_time": 34.0590909,
                "pitch": 38,
                "velocity": 80,
                "duration": 0.1181818,
                "tempo": 120.0
            },
            {
                "start_time": 34.075,
                "end_time": 34.1931818,
                "pitch": 41,
                "velocity": 80,
                "duration": 0.1181818,
                "tempo": 120.0
            },
            {
                "start_time": 34.2272727,
                "end_time": 34.3454545,
                "pitch": 45,
                "velocity": 80,
                "duration": 0.1181818,
                "tempo": 120.0
            },
            {
                "start_time": 34.3613636,
                "end_time": 34.4795455,
                "pitch": 33,
                "velocity": 80,
                "duration": 0.1181818,
                "tempo": 120.0
            },
            {
                "start_time": 34.5477273,
                "end_time": 34.6659091,
                "pitch": 38,
                "velocity": 80,
                "duration": 0.1181818,
                "tempo": 120.0
            },
            {
                "start_time": 34.6818182,
                "end_time": 34.8,
                "pitch": 41,
                "velocity": 80,
                "duration": 0.1181818,
                "tempo": 120.0
            },
            {
                "start_time": 34.8340909,
                "end_time": 34.9522727,
                "pitch": 45,
                "velocity": 80,
                "duration": 0.1181818,
                "tempo": 120.0
            },
            {
                "start_time": 34.9681818,
                "end_time": 35.0840909,
                "pitch": 33,
                "velocity": 80,
                "duration": 0.1159091,
                "tempo": 120.0
            },
            {
                "start_time": 35.1522727,
                "end_time": 35.2681818,
                "pitch": 38,
                "velocity": 80,
                "duration": 0.1159091,
                "tempo": 120.0
            },
            {
                "start_time": 35.2840909,
                "end_time": 35.4022727,
                "pitch": 41,
                "velocity": 80,
                "duration": 0.1181818,
                "tempo": 120.0
            },
            {
                "start_time": 35.4340909,
                "end_time": 35.5522727,
                "pitch": 45,
                "velocity": 80,
                "duration": 0.1181818,
                "tempo": 120.0
            },
            {
                "start_time": 35.5681818,
                "end_time": 35.6863636,
                "pitch": 33,
                "velocity": 80,
                "duration": 0.1181818,
                "tempo": 120.0
            },
            {
                "start_time": 35.7545455,
                "end_time": 35.8704545,
                "pitch": 38,
                "velocity": 80,
                "duration": 0.1159091,
                "tempo": 120.0
            },
            {
                "start_time": 35.8886364,
                "end_time": 36.0068182,
                "pitch": 41,
                "velocity": 80,
                "duration": 0.1181818,
                "tempo": 120.0
            },
            {
                "start_time": 36.0386364,
                "end_time": 36.1568182,
                "pitch": 45,
                "velocity": 80,
                "duration": 0.1181818,
                "tempo": 120.0
            },
            {
                "start_time": 36.175,
                "end_time": 36.2931818,
                "pitch": 33,
                "velocity": 80,
                "duration": 0.1181818,
                "tempo": 120.0
            },
            {
                "start_time": 36.3590909,
                "end_time": 36.4772727,
                "pitch": 38,
                "velocity": 80,
                "duration": 0.1181818,
                "tempo": 120.0
            },
            {
                "start_time": 36.4931818,
                "end_time": 36.6113636,
                "pitch": 41,
                "velocity": 80,
                "duration": 0.1181818,
                "tempo": 120.0
            },
            {
                "start_time": 36.6454545,
                "end_time": 36.7636364,
                "pitch": 45,
                "velocity": 80,
                "duration": 0.1181818,
                "tempo": 120.0
            },
            {
                "start_time": 36.7795455,
                "end_time": 36.8977273,
                "pitch": 33,
                "velocity": 80,
                "duration": 0.1181818,
                "tempo": 120.0
            },
            {
                "start_time": 36.9659091,
                "end_time": 37.0840909,
                "pitch": 38,
                "velocity": 80,
                "duration": 0.1181818,
                "tempo": 120.0
            },
            {
                "start_time": 37.1,
                "end_time": 37.2181818,
                "pitch": 41,
                "velocity": 80,
                "duration": 0.1181818,
                "tempo": 120.0
            },
            {
                "start_time": 37.2522727,
                "end_time": 37.3704545,
                "pitch": 45,
                "velocity": 80,
                "duration": 0.1181818,
                "tempo": 120.0
            },
            {
                "start_time": 37.3863636,
                "end_time": 37.5045455,
                "pitch": 33,
                "velocity": 80,
                "duration": 0.1181818,
                "tempo": 120.0
            },
            {
                "start_time": 37.5727273,
                "end_time": 37.6886364,
                "pitch": 38,
                "velocity": 80,
                "duration": 0.1159091,
                "tempo": 120.0
            },
            {
                "start_time": 37.7068182,
                "end_time": 37.825,
                "pitch": 41,
                "velocity": 80,
                "duration": 0.1181818,
                "tempo": 120.0
            },
            {
                "start_time": 37.8568182,
                "end_time": 37.975,
                "pitch": 45,
                "velocity": 80,
                "duration": 0.1181818,
                "tempo": 120.0
            },
            {
                "start_time": 37.9931818,
                "end_time": 38.1090909,
                "pitch": 33,
                "velocity": 80,
                "duration": 0.1159091,
                "tempo": 120.0
            },
            {
                "start_time": 38.175,
                "end_time": 38.2931818,
                "pitch": 38,
                "velocity": 80,
                "duration": 0.1181818,
                "tempo": 120.0
            },
            {
                "start_time": 38.3090909,
                "end_time": 38.425,
                "pitch": 41,
                "velocity": 80,
                "duration": 0.1159091,
                "tempo": 120.0
            },
            {
                "start_time": 38.4590909,
                "end_time": 38.575,
                "pitch": 45,
                "velocity": 80,
                "duration": 0.1159091,
                "tempo": 120.0
            }
        ],
        "Trumpet": [
            {
                "start_time": 0.0,
                "end_time": 0.0431818,
                "pitch": 57,
                "velocity": 80,
                "duration": 0.0431818,
                "tempo": 120.0
            },
            {
                "start_time": 0.0772727,
                "end_time": 0.1954545,
                "pitch": 50,
                "velocity": 80,
                "duration": 0.1181818,
                "tempo": 120.0
            },
            {
                "start_time": 0.2113636,
                "end_time": 0.3295455,
                "pitch": 53,
                "velocity": 80,
                "duration": 0.1181818,
                "tempo": 120.0
            },
            {
                "start_time": 0.3977273,
                "end_time": 0.5159091,
                "pitch": 57,
                "velocity": 80,
                "duration": 0.1181818,
                "tempo": 120.0
            },
            {
                "start_time": 0.5318182,
                "end_time": 1.9840909,
                "pitch": 56,
                "velocity": 80,
                "duration": 1.4522727,
                "tempo": 120.0
            },
            {
                "start_time": 2.0,
                "end_time": 2.1181818,
                "pitch": 57,
                "velocity": 80,
                "duration": 0.1181818,
                "tempo": 120.0
            },
            {
                "start_time": 2.1863636,
                "end_time": 2.3045455,
                "pitch": 56,
                "velocity": 80,
                "duration": 0.1181818,
                "tempo": 120.0
            },
            {
                "start_time": 2.3204545,
                "end_time": 2.4386364,
                "pitch": 55,
                "velocity": 80,
                "duration": 0.1181818,
                "tempo": 120.0
            },
            {
                "start_time": 2.4704545,
                "end_time": 2.5886364,
                "pitch": 50,
                "velocity": 80,
                "duration": 0.1181818,
                "tempo": 120.0
            },
            {
                "start_time": 2.6045455,
                "end_time": 2.7204545,
                "pitch": 53,
                "velocity": 80,
                "duration": 0.1159091,
                "tempo": 120.0
            },
            {
                "start_time": 2.7886364,
                "end_time": 2.9045455,
                "pitch": 57,
                "velocity": 80,
                "duration": 0.1159091,
                "tempo": 120.0
            },
            {
                "start_time": 2.9204545,
                "end_time": 3.6454545,
                "pitch": 64,
                "velocity": 80,
                "duration": 0.725,
                "tempo": 120.0
            },
            {
                "start_time": 3.6772727,
                "end_time": 4.8568182,
                "pitch": 57,
                "velocity": 80,
                "duration": 1.1795455,
                "tempo": 120.0
            },
            {
                "start_time": 4.8886364,
                "end_time": 5.0068182,
                "pitch": 50,
                "velocity": 80,
                "duration": 0.1181818,
                "tempo": 120.0
            },
            {
                "start_time": 5.0227273,
                "end_time": 5.1386364,
                "pitch": 53,
                "velocity": 80,
                "duration": 0.1159091,
                "tempo": 120.0
            },
            {
                "start_time": 5.2068182,
                "end_time": 5.3227273,
                "pitch": 57,
                "velocity": 80,
                "duration": 0.1159091,
                "tempo": 120.0
            },
            {
                "start_time": 5.3386364,
                "end_time": 6.8113636,
                "pitch": 56,
                "velocity": 80,
                "duration": 1.4727273,
                "tempo": 120.0
            },
            {
                "start_time": 6.8295455,
                "end_time": 6.9454545,
                "pitch": 57,
                "velocity": 80,
                "duration": 0.1159091,
                "tempo": 120.0
            },
            {
                "start_time": 7.0113636,
                "end_time": 7.1295455,
                "pitch": 56,
                "velocity": 80,
                "duration": 0.1181818,
                "tempo": 120.0
            },
            {
                "start_time": 7.1454545,
                "end_time": 7.2636364,
                "pitch": 55,
                "velocity": 80,
                "duration": 0.1181818,
                "tempo": 120.0
            },
            {
                "start_time": 7.2954545,
                "end_time": 7.4136364,
                "pitch": 50,
                "velocity": 80,
                "duration": 0.1181818,
                "tempo": 120.0
            },
            {
                "start_time": 7.4318182,
                "end_time": 7.5477273,
                "pitch": 53,
                "velocity": 80,
                "duration": 0.1159091,
                "tempo": 120.0
            },
            {
                "start_time": 7.6159091,
                "end_time": 7.7340909,
                "pitch": 57,
                "velocity": 80,
                "duration": 0.1181818,
                "tempo": 120.0
            },
            {
                "start_time": 7.75,
                "end_time": 8.4681818,
                "pitch": 64,
                "velocity": 80,
                "duration": 0.7181818,
                "tempo": 120.0
            },
            {
                "start_time": 8.5022727,
                "end_time": 9.675,
                "pitch": 57,
                "velocity": 80,
                "duration": 1.1727273,
                "tempo": 120.0
            },
            {
                "start_time": 9.7068182,
                "end_time": 10.1409091,
                "pitch": 56,
                "velocity": 80,
                "duration": 0.4340909,
                "tempo": 120.0
            },
            {
                "start_time": 10.1568182,
                "end_time": 10.5568182,
                "pitch": 61,
                "velocity": 80,
                "duration": 0.4,
                "tempo": 120.0
            },
            {
                "start_time": 10.625,
                "end_time": 10.875,
                "pitch": 62,
                "velocity": 80,
                "duration": 0.25,
                "tempo": 120.0
            },
            {
                "start_time": 10.9090909,
                "end_time": 11.3454545,
                "pitch": 57,
                "velocity": 80,
                "duration": 0.4363636,
                "tempo": 120.0
            },
            {
                "start_time": 11.3636364,
                "end_time": 12.0795455,
                "pitch": 56,
                "velocity": 80,
                "duration": 0.7159091,
                "tempo": 120.0
            },
            {
                "start_time": 12.1136364,
                "end_time": 12.5477273,
                "pitch": 57,
                "velocity": 80,
                "duration": 0.4340909,
                "tempo": 120.0
            },
            {
                "start_time": 12.5636364,
                "end_time": 12.9636364,
                "pitch": 61,
                "velocity": 80,
                "duration": 0.4,
                "tempo": 120.0
            },
            {
                "start_time": 13.0295455,
                "end_time": 13.2795455,
                "pitch": 62,
                "velocity": 80,
                "duration": 0.25,
                "tempo": 120.0
            },
            {
                "start_time": 13.3136364,
                "end_time": 13.7477273,
                "pitch": 56,
                "velocity": 80,
                "duration": 0.4340909,
                "tempo": 120.0
            },
            {
                "start_time": 13.7636364,
                "end_time": 14.4863636,
                "pitch": 57,
                "velocity": 80,
                "duration": 0.7227273,
                "tempo": 120.0
            },
            {
                "start_time": 14.5204545,
                "end_time": 14.6363636,
                "pitch": 50,
                "velocity": 80,
                "duration": 0.1159091,
                "tempo": 120.0
            },
            {
                "start_time": 14.6522727,
                "end_time": 14.7704545,
                "pitch": 53,
                "velocity": 80,
                "duration": 0.1181818,
                "tempo": 120.0
            },
            {
                "start_time": 14.8363636,
                "end_time": 14.9522727,
                "pitch": 57,
                "velocity": 80,
                "duration": 0.1159091,
                "tempo": 120.0
            },
            {
                "start_time": 14.9704545,
                "end_time": 16.4363636,
                "pitch": 56,
                "velocity": 80,
                "duration": 1.4659091,
                "tempo": 120.0
            },
            {
                "start_time": 16.4522727,
                "end_time": 16.5704545,
                "pitch": 57,
                "velocity": 80,
                "duration": 0.1181818,
                "tempo": 120.0
            },
            {
                "start_time": 16.6363636,
                "end_time": 16.7522727,
                "pitch": 56,
                "velocity": 80,
                "duration": 0.1159091,
                "tempo": 120.0
            },
            {
                "start_time": 16.7704545,
                "end_time": 16.8863636,
                "pitch": 55,
                "velocity": 80,
                "duration": 0.1159091,
                "tempo": 120.0
            },
            {
                "start_time": 16.9204545,
                "end_time": 17.0386364,
                "pitch": 50,
                "velocity": 80,
                "duration": 0.1181818,
                "tempo": 120.0
            },
            {
                "start_time": 17.0545455,
                "end_time": 17.1727273,
                "pitch": 53,
                "velocity": 80,
                "duration": 0.1181818,
                "tempo": 120.0
            },
            {
                "start_time": 17.2409091,
                "end_time": 17.3590909,
                "pitch": 57,
                "velocity": 80,
                "duration": 0.1181818,
                "tempo": 120.0
            },
            {
                "start_time": 17.375,
                "end_time": 18.0931818,
                "pitch": 64,
                "velocity": 80,
                "duration": 0.7181818,
                "tempo": 120.0
            },
            {
                "start_time": 18.1272727,
                "end_time": 19.3045455,
                "pitch": 57,
                "velocity": 80,
                "duration": 1.1772727,
                "tempo": 120.0
            },
            {
                "start_time": 19.3386364,
                "end_time": 21.7181818,
                "pitch": 69,
                "velocity": 80,
                "duration": 2.3795455,
                "tempo": 120.0
            },
            {
                "start_time": 22.9568182,
                "end_time": 23.3954545,
                "pitch": 72,
                "velocity": 80,
                "duration": 0.4386364,
                "tempo": 120.0
            },
            {
                "start_time": 23.4113636,
                "end_time": 23.8113636,
                "pitch": 69,
                "velocity": 80,
                "duration": 0.4,
                "tempo": 120.0
            },
            {
                "start_time": 23.8795455,
                "end_time": 24.1295455,
                "pitch": 67,
                "velocity": 80,
                "duration": 0.25,
                "tempo": 120.0
            },
            {
                "start_time": 24.1636364,
                "end_time": 26.5477273,
                "pitch": 64,
                "velocity": 80,
                "duration": 2.3840909,
                "tempo": 120.0
            },
            {
                "start_time": 26.5795455,
                "end_time": 27.7545455,
                "pitch": 62,
                "velocity": 80,
                "duration": 1.175,
                "tempo": 120.0
            },
            {
                "start_time": 27.7863636,
                "end_time": 28.9590909,
                "pitch": 59,
                "velocity": 80,
                "duration": 1.1727273,
                "tempo": 120.0
            },
            {
                "start_time": 28.9931818,
                "end_time": 31.3772727,
                "pitch": 69,
                "velocity": 80,
                "duration": 2.3840909,
                "tempo": 120.0
            },
            {
                "start_time": 32.6159091,
                "end_time": 33.05,
                "pitch": 72,
                "velocity": 80,
                "duration": 0.4340909,
                "tempo": 120.0
            },
            {
                "start_time": 33.0659091,
                "end_time": 33.4704545,
                "pitch": 69,
                "velocity": 80,
                "duration": 0.4045455,
                "tempo": 120.0
            },
            {
                "start_time": 33.5363636,
                "end_time": 33.7909091,
                "pitch": 67,
                "velocity": 80,
                "duration": 0.2545455,
                "tempo": 120.0
            },
            {
                "start_time": 33.8227273,
                "end_time": 35.0022727,
                "pitch": 64,
                "velocity": 80,
                "duration": 1.1795455,
                "tempo": 120.0
            },
            {
                "start_time": 35.0340909,
                "end_time": 36.2090909,
                "pitch": 62,
                "velocity": 80,
                "duration": 1.175,
                "tempo": 120.0
            },
            {
                "start_time": 36.2409091,
                "end_time": 37.4204545,
                "pitch": 59,
                "velocity": 80,
                "duration": 1.1795455,
                "tempo": 120.0
            },
            {
                "start_time": 37.4545455,
                "end_time": 38.575,
                "pitch": 57,
                "velocity": 80,
                "duration": 1.1204545,
                "tempo": 120.0
            }
        ]
    }
}