{
    "mood": "angry",
    "instruments": {
        "Electric Guitar (clean)": [
            {
                "start_time": 0.0159091,
                "end_time": 0.0818182,
                "pitch": 36,
                "velocity": 64,
                "duration": 0.0659091,
                "tempo": 120.0
            },
            {
                "start_time": 0.1,
                "end_time": 0.2,
                "pitch": 36,
                "velocity": 64,
                "duration": 0.1,
                "tempo": 120.0
            },
            {
                "start_time": 0.2159091,
                "end_time": 0.4,
                "pitch": 36,
                "velocity": 64,
                "duration": 0.1840909,
                "tempo": 120.0
            },
            {
                "start_time": 0.4159091,
                "end_time": 0.6,
                "pitch": 34,
                "velocity": 64,
                "duration": 0.1840909,
                "tempo": 120.0
            },
            {
                "start_time": 0.6159091,
                "end_time": 0.8,
                "pitch": 36,
                "velocity": 64,
                "duration": 0.1840909,
                "tempo": 120.0
            },
            {
                "start_time": 0.8159091,
                "end_time": 1.0818182,
                "pitch": 41,
                "velocity": 64,
                "duration": 0.2659091,
                "tempo": 120.0
            },
            {
                "start_time": 1.1,
                "end_time": 1.2818182,
                "pitch": 39,
                "velocity": 64,
                "duration": 0.1818182,
                "tempo": 120.0
            },
            {
                "start_time": 1.3,
                "end_time": 1.4,
                "pitch": 34,
                "velocity": 64,
                "duration": 0.1,
                "tempo": 120.0
            },
            {
                "start_time": 1.4159091,
                "end_time": 1.4818182,
                "pitch": 36,
                "velocity": 64,
                "duration": 0.0659091,
                "tempo": 120.0
            },
            {
                "start_time": 1.5,
                "end_time": 1.6,
                "pitch": 39,
                "velocity": 64,
                "duration": 0.1,
                "tempo": 120.0
            },
            {
                "start_time": 1.6159091,
                "end_time": 1.8840909,
                "pitch": 41,
                "velocity": 64,
                "duration": 0.2681818,
                "tempo": 120.0
            },
            {
                "start_time": 1.9022727,
                "end_time": 2.4022727,
                "pitch": 39,
                "velocity": 64,
                "duration": 0.5,
                "tempo": 120.0
            },
            {
                "start_time": 2.4181818,
                "end_time": 2.6863636,
                "pitch": 34,
                "velocity": 64,
                "duration": 0.2681818,
                "tempo": 120.0
            },
            {
                "start_time": 2.7022727,
                "end_time": 2.9522727,
                "pitch": 36,
                "velocity": 64,
                "duration": 0.25,
                "tempo": 120.0
            },
            {
                "start_time": 2.9681818,
                "end_time": 3.2022727,
                "pitch": 44,
                "velocity": 64,
                "duration": 0.2340909,
                "tempo": 120.0
            },
            {
                "start_time": 3.2181818,
                "end_time": 3.2863636,
                "pitch": 34,
                "velocity": 64,
                "duration": 0.0681818,
                "tempo": 120.0
            },
            {
                "start_time": 3.3022727,
                "end_time": 3.4022727,
                "pitch": 36,
                "velocity": 64,
                "duration": 0.1,
                "tempo": 120.0
            },
            {
                "start_time": 3.4204545,
                "end_time": 3.6045455,
                "pitch": 36,
                "velocity": 64,
                "duration": 0.1840909,
                "tempo": 120.0
            },
            {
                "start_time": 3.6204545,
                "end_time": 3.8045455,
                "pitch": 34,
                "velocity": 64,
                "duration": 0.1840909,
                "tempo": 120.0
            },
            {
                "start_time": 3.8204545,
                "end_time": 4.0045455,
                "pitch": 36,
                "velocity": 64,
                "duration": 0.1840909,
                "tempo": 120.0
            },
            {
                "start_time": 4.0204545,
                "end_time": 4.2886364,
                "pitch": 41,
                "velocity": 64,
                "duration": 0.2681818,
                "tempo": 120.0
            },
            {
                "start_time": 4.3045455,
                "end_time": 4.4886364,
                "pitch": 39,
                "velocity": 64,
                "duration": 0.1840909,
                "tempo": 120.0
            },
            {
                "start_time": 4.5045455,
                "end_time": 4.6068182,
                "pitch": 34,
                "velocity": 64,
                "duration": 0.1022727,
                "tempo": 120.0
            },
            {
                "start_time": 4.6227273,
                "end_time": 4.6909091,
                "pitch": 36,
                "velocity": 64,
                "duration": 0.0681818,
                "tempo": 120.0
            },
            {
                "start_time": 4.7068182,
                "end_time": 4.8068182,
                "pitch": 39,
                "velocity": 64,
                "duration": 0.1,
                "tempo": 120.0
            },
            {
                "start_time": 4.825,
                "end_time": 5.0909091,
                "pitch": 41,
                "velocity": 64,
                "duration": 0.2659091,
                "tempo": 120.0
            },
            {
                "start_time": 5.1068182,
                "end_time": 5.1568182,
                "pitch": 39,
                "velocity": 64,
                "duration": 0.05,
                "tempo": 120.0
            },
            {
                "start_time": 5.6159091,
                "end_time": 5.8909091,
                "pitch": 34,
                "velocity": 64,
                "duration": 0.275,
                "tempo": 120.0
            },
            {
                "start_time": 5.9068182,
                "end_time": 6.2113636,
                "pitch": 36,
                "velocity": 64,
                "duration": 0.3045455,
                "tempo": 120.0
            },
            {
                "start_time": 6.2295455,
                "end_time": 6.4136364,
                "pitch": 44,
                "velocity": 64,
                "duration": 0.1840909,
                "tempo": 120.0
            },
            {
                "start_time": 6.4295455,
                "end_time": 6.4977273,
                "pitch": 44,
                "velocity": 64,
                "duration": 0.0681818,
                "tempo": 120.0
            },
            {
                "start_time": 6.5136364,
                "end_time": 6.6136364,
                "pitch": 44,
                "velocity": 64,
                "duration": 0.1,
                "tempo": 120.0
            },
            {
                "start_time": 6.6318182,
                "end_time": 6.8159091,
                "pitch": 44,
                "velocity": 64,
                "duration": 0.1840909,
                "tempo": 120.0
            },
            {
                "start_time": 6.8318182,
                "end_time": 7.0159091,
                "pitch": 34,
                "velocity": 64,
                "duration": 0.1840909,
                "tempo": 120.0
            },
            {
                "start_time": 7.0318182,
                "end_time": 7.2159091,
                "pitch": 36,
                "velocity": 64,
                "duration": 0.1840909,
                "tempo": 120.0
            },
            {
                "start_time": 7.2318182,
                "end_time": 7.5,
                "pitch": 41,
                "velocity": 64,
                "duration": 0.2681818,
                "tempo": 120.0
            },
            {
                "start_time": 7.5181818,
                "end_time": 7.7,
                "pitch": 36,
                "velocity": 64,
                "duration": 0.1818182,
                "tempo": 120.0
            },
            {
                "start_time": 7.7159091,
                "end_time": 7.8136364,
                "pitch": 34,
                "velocity": 64,
                "duration": 0.0977273,
                "tempo": 120.0
            },
            {
                "start_time": 7.8295455,
                "end_time": 7.8954545,
                "pitch": 36,
                "velocity": 64,
                "duration": 0.0659091,
                "tempo": 120.0
            },
            {
                "start_time": 7.9113636,
                "end_time": 8.0113636,
                "pitch": 39,
                "velocity": 64,
                "duration": 0.1,
                "tempo": 120.0
            },
            {
                "start_time": 8.0272727,
                "end_time": 8.3090909,
                "pitch": 41,
                "velocity": 64,
                "duration": 0.2818182,
                "tempo": 120.0
            },
            {
                "start_time": 8.3272727,
                "end_time": 8.825,
                "pitch": 39,
                "velocity": 64,
                "duration": 0.4977273,
                "tempo": 120.0
            },
            {
                "start_time": 8.8409091,
                "end_time": 9.1090909,
                "pitch": 34,
                "velocity": 64,
                "duration": 0.2681818,
                "tempo": 120.0
            },
            {
                "start_time": 9.1272727,
                "end_time": 9.4272727,
                "pitch": 36,
                "velocity": 64,
                "duration": 0.3,
                "tempo": 120.0
            },
            {
                "start_time": 9.4431818,
                "end_time": 9.6272727,
                "pitch": 44,
                "velocity": 64,
                "duration": 0.1840909,
                "tempo": 120.0
            },
            {
                "start_time": 9.6431818,
                "end_time": 9.7113636,
                "pitch": 44,
                "velocity": 64,
                "duration": 0.0681818,
                "tempo": 120.0
            },
            {
                "start_time": 9.7272727,
                "end_time": 9.8272727,
                "pitch": 44,
                "velocity": 64,
                "duration": 0.1,
                "tempo": 120.0
            },
            {
                "start_time": 9.8454545,
                "end_time": 10.0295455,
                "pitch": 44,
                "velocity": 64,
                "duration": 0.1840909,
                "tempo": 120.0
            },
            {
                "start_time": 10.0454545,
                "end_time": 10.2318182,
                "pitch": 34,
                "velocity": 64,
                "duration": 0.1863636,
                "tempo": 120.0
            },
            {
                "start_time": 10.2477273,
                "end_time": 10.4318182,
                "pitch": 36,
                "velocity": 64,
                "duration": 0.1840909,
                "tempo": 120.0
            },
            {
                "start_time": 10.45,
                "end_time": 10.7181818,
                "pitch": 41,
                "velocity": 64,
                "duration": 0.2681818,
                "tempo": 120.0
            },
            {
                "start_time": 10.7340909,
                "end_time": 10.9159091,
                "pitch": 36,
                "velocity": 64,
                "duration": 0.1818182,
                "tempo": 120.0
            },
            {
                "start_time": 10.9318182,
                "end_time": 11.0318182,
                "pitch": 34,
                "velocity": 64,
                "duration": 0.1,
                "tempo": 120.0
            },
            {
                "start_time": 11.0477273,
                "end_time": 11.1113636,
                "pitch": 36,
                "velocity": 64,
                "duration": 0.0636364,
                "tempo": 120.0
            },
            {
                "start_time": 11.1295455,
                "end_time": 11.2272727,
                "pitch": 39,
                "velocity": 64,
                "duration": 0.0977273,
                "tempo": 120.0
            },
            {
                "start_time": 11.2431818,
                "end_time": 11.5181818,
                "pitch": 41,
                "velocity": 64,
                "duration": 0.275,
                "tempo": 120.0
            },
            {
                "start_time": 11.5340909,
                "end_time": 11.6363636,
                "pitch": 39,
                "velocity": 64,
                "duration": 0.1022727,
                "tempo": 120.0
            },
            {
                "start_time": 12.0477273,
                "end_time": 12.3204545,
                "pitch": 34,
                "velocity": 64,
                "duration": 0.2727273,
                "tempo": 120.0
            },
            {
                "start_time": 12.3386364,
                "end_time": 12.6363636,
                "pitch": 36,
                "velocity": 64,
                "duration": 0.2977273,
                "tempo": 120.0
            },
            {
                "start_time": 12.6522727,
                "end_time": 12.8318182,
                "pitch": 44,
                "velocity": 64,
                "duration": 0.1795455,
                "tempo": 120.0
            },
            {
                "start_time": 12.85,
                "end_time": 12.9181818,
                "pitch": 44,
                "velocity": 64,
                "duration": 0.0681818,
                "tempo": 120.0
            },
            {
                "start_time": 12.9340909,
                "end_time": 13.0386364,
                "pitch": 43,
                "velocity": 64,
                "duration": 0.1045455,
                "tempo": 120.0
            },
            {
                "start_time": 13.0545455,
                "end_time": 13.1227273,
                "pitch": 42,
                "velocity": 64,
                "duration": 0.0681818,
                "tempo": 120.0
            },
            {
                "start_time": 13.1409091,
                "end_time": 13.2431818,
                "pitch": 41,
                "velocity": 64,
                "duration": 0.1022727,
                "tempo": 120.0
            },
            {
                "start_time": 13.2590909,
                "end_time": 13.3272727,
                "pitch": 40,
                "velocity": 64,
                "duration": 0.0681818,
                "tempo": 120.0
            },
            {
                "start_time": 13.3431818,
                "end_time": 13.4431818,
                "pitch": 39,
                "velocity": 64,
                "duration": 0.1,
                "tempo": 120.0
            },
            {
                "start_time": 13.4590909,
                "end_time": 13.5272727,
                "pitch": 38,
                "velocity": 64,
                "duration": 0.0681818,
                "tempo": 120.0
            },
            {
                "start_time": 13.5431818,
                "end_time": 13.6431818,
                "pitch": 37,
                "velocity": 64,
                "duration": 0.1,
                "tempo": 120.0
            },
            {
                "start_time": 13.6590909,
                "end_time": 13.725,
                "pitch": 39,
                "velocity": 64,
                "duration": 0.0659091,
                "tempo": 120.0
            },
            {
                "start_time": 13.7409091,
                "end_time": 13.8386364,
                "pitch": 46,
                "velocity": 64,
                "duration": 0.0977273,
                "tempo": 120.0
            },
            {
                "start_time": 13.8545455,
                "end_time": 13.9204545,
                "pitch": 39,
                "velocity": 64,
                "duration": 0.0659091,
                "tempo": 120.0
            },
            {
                "start_time": 13.9363636,
                "end_time": 14.0340909,
                "pitch": 47,
                "velocity": 64,
                "duration": 0.0977273,
                "tempo": 120.0
            },
            {
                "start_time": 14.0522727,
                "end_time": 14.1204545,
                "pitch": 39,
                "velocity": 64,
                "duration": 0.0681818,
                "tempo": 120.0
            },
            {
                "start_time": 14.1386364,
                "end_time": 14.2409091,
                "pitch": 48,
                "velocity": 64,
                "duration": 0.1022727,
                "tempo": 120.0
            },
            {
                "start_time": 14.2568182,
                "end_time": 14.3272727,
                "pitch": 39,
                "velocity": 64,
                "duration": 0.0704545,
                "tempo": 120.0
            },
            {
                "start_time": 14.3431818,
                "end_time": 14.4454545,
                "pitch": 51,
                "velocity": 64,
                "duration": 0.1022727,
                "tempo": 120.0
            },
            {
                "start_time": 14.4636364,
                "end_time": 14.5295455,
                "pitch": 39,
                "velocity": 64,
                "duration": 0.0659091,
                "tempo": 120.0
            },
            {
                "start_time": 14.5477273,
                "end_time": 14.6477273,
                "pitch": 53,
                "velocity": 64,
                "duration": 0.1,
                "tempo": 120.0
            },
            {
                "start_time": 14.6636364,
                "end_time": 14.7318182,
                "pitch": 39,
                "velocity": 64,
                "duration": 0.0681818,
                "tempo": 120.0
            },
            {
                "start_time": 14.7477273,
                "end_time": 14.8477273,
                "pitch": 51,
                "velocity": 64,
                "duration": 0.1,
                "tempo": 120.0
            },
            {
                "start_time": 14.8659091,
                "end_time": 14.9318182,
                "pitch": 39,
                "velocity": 64,
                "duration": 0.0659091,
                "tempo": 120.0
            },
            {
                "start_time": 14.95,
                "end_time": 15.05,
                "pitch": 50,
                "velocity": 64,
                "duration": 0.1,
                "tempo": 120.0
            },
            {
                "start_time": 15.0659091,
                "end_time": 15.1340909,
                "pitch": 39,
                "velocity": 64,
                "duration": 0.0681818,
                "tempo": 120.0
            },
            {
                "start_time": 15.15,
                "end_time": 15.2522727,
                "pitch": 51,
                "velocity": 64,
                "duration": 0.1022727,
                "tempo": 120.0
            },
            {
                "start_time": 15.2681818,
                "end_time": 15.3340909,
                "pitch": 39,
                "velocity": 64,
                "duration": 0.0659091,
                "tempo": 120.0
            },
            {
                "start_time": 15.3522727,
                "end_time": 15.4522727,
                "pitch": 53,
                "velocity": 64,
                "duration": 0.1,
                "tempo": 120.0
            },
            {
                "start_time": 15.4681818,
                "end_time": 15.5340909,
                "pitch": 39,
                "velocity": 64,
                "duration": 0.0659091,
                "tempo": 120.0
            },
            {
                "start_time": 15.5522727,
                "end_time": 15.6522727,
                "pitch": 51,
                "velocity": 64,
                "duration": 0.1,
                "tempo": 120.0
            },
            {
                "start_time": 15.6681818,
                "end_time": 15.7363636,
                "pitch": 39,
                "velocity": 64,
                "duration": 0.0681818,
                "tempo": 120.0
            },
            {
                "start_time": 15.7522727,
                "end_time": 15.8522727,
                "pitch": 50,
                "velocity": 64,
                "duration": 0.1,
                "tempo": 120.0
            },
            {
                "start_time": 15.8704545,
                "end_time": 15.9363636,
                "pitch": 39,
                "velocity": 64,
                "duration": 0.0659091,
                "tempo": 120.0
            },
            {
                "start_time": 15.9522727,
                "end_time": 16.0545455,
                "pitch": 46,
                "velocity": 64,
                "duration": 0.1022727,
                "tempo": 120.0
            },
            {
                "start_time": 16.0704545,
                "end_time": 16.4568182,
                "pitch": 36,
                "velocity": 64,
                "duration": 0.3863636,
                "tempo": 120.0
            },
            {
                "start_time": 16.4727273,
                "end_time": 16.6568182,
                "pitch": 39,
                "velocity": 64,
                "duration": 0.1840909,
                "tempo": 120.0
            },
            {
                "start_time": 16.6727273,
                "end_time": 16.8568182,
                "pitch": 41,
                "velocity": 64,
                "duration": 0.1840909,
                "tempo": 120.0
            },
            {
                "start_time": 16.8727273,
                "end_time": 16.9409091,
                "pitch": 36,
                "velocity": 64,
                "duration": 0.0681818,
                "tempo": 120.0
            },
            {
                "start_time": 16.9568182,
                "end_time": 17.1409091,
                "pitch": 48,
                "velocity": 64,
                "duration": 0.1840909,
                "tempo": 120.0
            },
            {
                "start_time": 17.1590909,
                "end_time": 17.3409091,
                "pitch": 42,
                "velocity": 64,
                "duration": 0.1818182,
                "tempo": 120.0
            },
            {
                "start_time": 17.3568182,
                "end_time": 17.4545455,
                "pitch": 39,
                "velocity": 64,
                "duration": 0.0977273,
                "tempo": 120.0
            },
            {
                "start_time": 17.4727273,
                "end_time": 17.6522727,
                "pitch": 41,
                "velocity": 64,
                "duration": 0.1795455,
                "tempo": 120.0
            },
            {
                "start_time": 17.6681818,
                "end_time": 18.0613636,
                "pitch": 36,
                "velocity": 64,
                "duration": 0.3931818,
                "tempo": 120.0
            },
            {
                "start_time": 18.0795455,
                "end_time": 18.2613636,
                "pitch": 39,
                "velocity": 64,
                "duration": 0.1818182,
                "tempo": 120.0
            },
            {
                "start_time": 18.2795455,
                "end_time": 18.4613636,
                "pitch": 41,
                "velocity": 64,
                "duration": 0.1818182,
                "tempo": 120.0
            },
            {
                "start_time": 18.4795455,
                "end_time": 18.5477273,
                "pitch": 36,
                "velocity": 64,
                "duration": 0.0681818,
                "tempo": 120.0
            },
            {
                "start_time": 18.5636364,
                "end_time": 18.7522727,
                "pitch": 48,
                "velocity": 64,
                "duration": 0.1886364,
                "tempo": 120.0
            },
            {
                "start_time": 18.7704545,
                "end_time": 18.9545455,
                "pitch": 42,
                "velocity": 64,
                "duration": 0.1840909,
                "tempo": 120.0
            },
            {
                "start_time": 18.9704545,
                "end_time": 19.0681818,
                "pitch": 36,
                "velocity": 64,
                "duration": 0.0977273,
                "tempo": 120.0
            },
            {
                "start_time": 19.0863636,
                "end_time": 19.15,
                "pitch": 39,
                "velocity": 64,
                "duration": 0.0636364,
                "tempo": 120.0
            },
            {
                "start_time": 19.1681818,
                "end_time": 19.2659091,
                "pitch": 41,
                "velocity": 64,
                "duration": 0.0977273,
                "tempo": 120.0
            },
            {
                "start_time": 19.2818182,
                "end_time": 19.6659091,
                "pitch": 42,
                "velocity": 64,
                "duration": 0.3840909,
                "tempo": 120.0
            },
            {
                "start_time": 19.6818182,
                "end_time": 19.8659091,
                "pitch": 34,
                "velocity": 64,
                "duration": 0.1840909,
                "tempo": 120.0
            },
            {
                "start_time": 19.8840909,
                "end_time": 20.0681818,
                "pitch": 36,
                "velocity": 64,
                "duration": 0.1840909,
                "tempo": 120.0
            },
            {
                "start_time": 20.0840909,
                "end_time": 20.1522727,
                "pitch": 42,
                "velocity": 64,
                "duration": 0.0681818,
                "tempo": 120.0
            },
            {
                "start_time": 20.1681818,
                "end_time": 20.3522727,
                "pitch": 42,
                "velocity": 64,
                "duration": 0.1840909,
                "tempo": 120.0
            },
            {
                "start_time": 20.3681818,
                "end_time": 20.55,
                "pitch": 37,
                "velocity": 64,
                "duration": 0.1818182,
                "tempo": 120.0
            },
            {
                "start_time": 20.5659091,
                "end_time": 20.6636364,
                "pitch": 42,
                "velocity": 64,
                "duration": 0.0977273,
                "tempo": 120.0
            },
            {
                "start_time": 20.6795455,
                "end_time": 20.7454545,
                "pitch": 34,
                "velocity": 64,
                "duration": 0.0659091,
                "tempo": 120.0
            },
            {
                "start_time": 20.7613636,
                "end_time": 20.8590909,
                "pitch": 36,
                "velocity": 64,
                "duration": 0.0977273,
                "tempo": 120.0
            },
            {
                "start_time": 20.8772727,
                "end_time": 21.2704545,
                "pitch": 42,
                "velocity": 64,
                "duration": 0.3931818,
                "tempo": 120.0
            },
            {
                "start_time": 21.2863636,
                "end_time": 21.4704545,
                "pitch": 42,
                "velocity": 64,
                "duration": 0.1840909,
                "tempo": 120.0
            },
            {
                "start_time": 21.4863636,
                "end_time": 21.6704545,
                "pitch": 36,
                "velocity": 64,
                "duration": 0.1840909,
                "tempo": 120.0
            },
            {
                "start_time": 21.6886364,
                "end_time": 21.7545455,
                "pitch": 42,
                "velocity": 64,
                "duration": 0.0659091,
                "tempo": 120.0
            },
            {
                "start_time": 21.7704545,
                "end_time": 21.9568182,
                "pitch": 42,
                "velocity": 64,
                "duration": 0.1863636,
                "tempo": 120.0
            },
            {
                "start_time": 21.9727273,
                "end_time": 22.1568182,
                "pitch": 37,
                "velocity": 64,
                "duration": 0.1840909,
                "tempo": 120.0
            },
            {
                "start_time": 22.1727273,
                "end_time": 22.2727273,
                "pitch": 42,
                "velocity": 64,
                "duration": 0.1,
                "tempo": 120.0
            },
            {
                "start_time": 22.2909091,
                "end_time": 22.3568182,
                "pitch": 34,
                "velocity": 64,
                "duration": 0.0659091,
                "tempo": 120.0
            },
            {
                "start_time": 22.3727273,
                "end_time": 22.4727273,
                "pitch": 36,
                "velocity": 64,
                "duration": 0.1,
                "tempo": 120.0
            },
            {
                "start_time": 22.4909091,
                "end_time": 22.8727273,
                "pitch": 32,
                "velocity": 64,
                "duration": 0.3818182,
                "tempo": 120.0
            },
            {
                "start_time": 22.8909091,
                "end_time": 23.075,
                "pitch": 36,
                "velocity": 64,
                "duration": 0.1840909,
                "tempo": 120.0
            },
            {
                "start_time": 23.0909091,
                "end_time": 23.275,
                "pitch": 37,
                "velocity": 64,
                "duration": 0.1840909,
                "tempo": 120.0
            },
            {
                "start_time": 23.2931818,
                "end_time": 23.3590909,
                "pitch": 32,
                "velocity": 64,
                "duration": 0.0659091,
                "tempo": 120.0
            },
            {
                "start_time": 23.375,
                "end_time": 23.5590909,
                "pitch": 44,
                "velocity": 64,
                "duration": 0.1840909,
                "tempo": 120.0
            },
            {
                "start_time": 23.575,
                "end_time": 23.7568182,
                "pitch": 39,
                "velocity": 64,
                "duration": 0.1818182,
                "tempo": 120.0
            },
            {
                "start_time": 23.775,
                "end_time": 23.8727273,
                "pitch": 32,
                "velocity": 64,
                "duration": 0.0977273,
                "tempo": 120.0
            },
            {
                "start_time": 23.8886364,
                "end_time": 23.9545455,
                "pitch": 36,
                "velocity": 64,
                "duration": 0.0659091,
                "tempo": 120.0
            },
            {
                "start_time": 23.9704545,
                "end_time": 24.0681818,
                "pitch": 37,
                "velocity": 64,
                "duration": 0.0977273,
                "tempo": 120.0
            },
            {
                "start_time": 24.0840909,
                "end_time": 24.4795455,
                "pitch": 32,
                "velocity": 64,
                "duration": 0.3954545,
                "tempo": 120.0
            },
            {
                "start_time": 24.4954545,
                "end_time": 24.6795455,
                "pitch": 32,
                "velocity": 64,
                "duration": 0.1840909,
                "tempo": 120.0
            },
            {
                "start_time": 24.6954545,
                "end_time": 24.8795455,
                "pitch": 37,
                "velocity": 64,
                "duration": 0.1840909,
                "tempo": 120.0
            },
            {
                "start_time": 24.8954545,
                "end_time": 24.9636364,
                "pitch": 32,
                "velocity": 64,
                "duration": 0.0681818,
                "tempo": 120.0
            },
            {
                "start_time": 24.9795455,
                "end_time": 25.1636364,
                "pitch": 44,
                "velocity": 64,
                "duration": 0.1840909,
                "tempo": 120.0
            },
            {
                "start_time": 25.1818182,
                "end_time": 25.3636364,
                "pitch": 39,
                "velocity": 64,
                "duration": 0.1818182,
                "tempo": 120.0
            },
            {
                "start_time": 25.3795455,
                "end_time": 25.4772727,
                "pitch": 32,
                "velocity": 64,
                "duration": 0.0977273,
                "tempo": 120.0
            },
            {
                "start_time": 25.4931818,
                "end_time": 25.5590909,
                "pitch": 36,
                "velocity": 64,
                "duration": 0.0659091,
                "tempo": 120.0
            },
            {
                "start_time": 25.575,
                "end_time": 25.6727273,
                "pitch": 37,
                "velocity": 64,
                "duration": 0.0977273,
                "tempo": 120.0
            },
            {
                "start_time": 25.6909091,
                "end_time": 26.0840909,
                "pitch": 34,
                "velocity": 64,
                "duration": 0.3931818,
                "tempo": 120.0
            },
            {
                "start_time": 26.1022727,
                "end_time": 26.2840909,
                "pitch": 37,
                "velocity": 64,
                "duration": 0.1818182,
                "tempo": 120.0
            },
            {
                "start_time": 26.3022727,
                "end_time": 26.4840909,
                "pitch": 39,
                "velocity": 64,
                "duration": 0.1818182,
                "tempo": 120.0
            },
            {
                "start_time": 26.5022727,
                "end_time": 26.5681818,
                "pitch": 34,
                "velocity": 64,
                "duration": 0.0659091,
                "tempo": 120.0
            },
            {
                "start_time": 26.5840909,
                "end_time": 26.7681818,
                "pitch": 44,
                "velocity": 64,
                "duration": 0.1840909,
                "tempo": 120.0
            },
            {
                "start_time": 26.7840909,
                "end_time": 26.8840909,
                "pitch": 34,
                "velocity": 64,
                "duration": 0.1,
                "tempo": 120.0
            },
            {
                "start_time": 26.9022727,
                "end_time": 27.0863636,
                "pitch": 44,
                "velocity": 64,
                "duration": 0.1840909,
                "tempo": 120.0
            },
            {
                "start_time": 27.1022727,
                "end_time": 27.2863636,
                "pitch": 34,
                "velocity": 64,
                "duration": 0.1840909,
                "tempo": 120.0
            },
            {
                "start_time": 27.3045455,
                "end_time": 27.6863636,
                "pitch": 34,
                "velocity": 64,
                "duration": 0.3818182,
                "tempo": 120.0
            },
            {
                "start_time": 27.7045455,
                "end_time": 27.8886364,
                "pitch": 37,
                "velocity": 64,
                "duration": 0.1840909,
                "tempo": 120.0
            },
            {
                "start_time": 27.9045455,
                "end_time": 28.0909091,
                "pitch": 39,
                "velocity": 64,
                "duration": 0.1863636,
                "tempo": 120.0
            },
            {
                "start_time": 28.1068182,
                "end_time": 28.1727273,
                "pitch": 34,
                "velocity": 64,
                "duration": 0.0659091,
                "tempo": 120.0
            },
            {
                "start_time": 28.1909091,
                "end_time": 28.2909091,
                "pitch": 44,
                "velocity": 64,
                "duration": 0.1,
                "tempo": 120.0
            },
            {
                "start_time": 28.3068182,
                "end_time": 28.3727273,
                "pitch": 34,
                "velocity": 64,
                "duration": 0.0659091,
                "tempo": 120.0
            },
            {
                "start_time": 28.3909091,
                "end_time": 28.4909091,
                "pitch": 34,
                "velocity": 64,
                "duration": 0.1,
                "tempo": 120.0
            },
            {
                "start_time": 28.5068182,
                "end_time": 28.5727273,
                "pitch": 44,
                "velocity": 64,
                "duration": 0.0659091,
                "tempo": 120.0
            },
            {
                "start_time": 28.5909091,
                "end_time": 28.6909091,
                "pitch": 34,
                "velocity": 64,
                "duration": 0.1,
                "tempo": 120.0
            },
            {
                "start_time": 28.7068182,
                "end_time": 28.7727273,
                "pitch": 34,
                "velocity": 64,
                "duration": 0.0659091,
                "tempo": 120.0
            },
            {
                "start_time": 28.7909091,
                "end_time": 28.8909091,
                "pitch": 34,
                "velocity": 64,
                "duration": 0.1,
                "tempo": 120.0
            }
        ],
        "Oboe": [
            {
                "start_time": 0.0159091,
                "end_time": 0.0818182,
                "pitch": 53,
                "velocity": 64,
                "duration": 0.0659091,
                "tempo": 120.0
            },
            {
                "start_time": 0.1,
                "end_time": 0.2,
                "pitch": 56,
                "velocity": 64,
                "duration": 0.1,
                "tempo": 120.0
            },
            {
                "start_time": 0.2159091,
                "end_time": 0.2818182,
                "pitch": 58,
                "velocity": 64,
                "duration": 0.0659091,
                "tempo": 120.0
            },
            {
                "start_time": 0.3,
                "end_time": 0.4,
                "pitch": 60,
                "velocity": 64,
                "duration": 0.1,
                "tempo": 120.0
            },
            {
                "start_time": 0.4159091,
                "end_time": 1.4,
                "pitch": 65,
                "velocity": 64,
                "duration": 0.9840909,
                "tempo": 120.0
            },
            {
                "start_time": 1.4159091,
                "end_time": 1.6,
                "pitch": 63,
                "velocity": 64,
                "duration": 0.1840909,
                "tempo": 120.0
            },
            {
                "start_time": 1.6159091,
                "end_time": 1.8681818,
                "pitch": 62,
                "velocity": 64,
                "duration": 0.2522727,
                "tempo": 120.0
            },
            {
                "start_time": 1.8840909,
                "end_time": 2.2022727,
                "pitch": 63,
                "velocity": 64,
                "duration": 0.3181818,
                "tempo": 120.0
            },
            {
                "start_time": 2.2181818,
                "end_time": 2.4022727,
                "pitch": 62,
                "velocity": 64,
                "duration": 0.1840909,
                "tempo": 120.0
            },
            {
                "start_time": 2.4181818,
                "end_time": 2.6863636,
                "pitch": 56,
                "velocity": 64,
                "duration": 0.2681818,
                "tempo": 120.0
            },
            {
                "start_time": 2.7022727,
                "end_time": 3.2022727,
                "pitch": 58,
                "velocity": 64,
                "duration": 0.5,
                "tempo": 120.0
            },
            {
                "start_time": 3.2181818,
                "end_time": 3.2863636,
                "pitch": 53,
                "velocity": 64,
                "duration": 0.0681818,
                "tempo": 120.0
            },
            {
                "start_time": 3.3022727,
                "end_time": 3.4022727,
                "pitch": 56,
                "velocity": 64,
                "duration": 0.1,
                "tempo": 120.0
            },
            {
                "start_time": 3.4204545,
                "end_time": 3.4863636,
                "pitch": 58,
                "velocity": 64,
                "duration": 0.0659091,
                "tempo": 120.0
            },
            {
                "start_time": 3.5045455,
                "end_time": 3.6045455,
                "pitch": 60,
                "velocity": 64,
                "duration": 0.1,
                "tempo": 120.0
            },
            {
                "start_time": 3.6204545,
                "end_time": 4.6068182,
                "pitch": 65,
                "velocity": 64,
                "duration": 0.9863636,
                "tempo": 120.0
            },
            {
                "start_time": 4.6227273,
                "end_time": 4.8068182,
                "pitch": 63,
                "velocity": 64,
                "duration": 0.1840909,
                "tempo": 120.0
            },
            {
                "start_time": 4.825,
                "end_time": 5.4022727,
                "pitch": 62,
                "velocity": 64,
                "duration": 0.5772727,
                "tempo": 120.0
            },
            {
                "start_time": 5.4204545,
                "end_time": 5.6,
                "pitch": 73,
                "velocity": 64,
                "duration": 0.1795455,
                "tempo": 120.0
            },
            {
                "start_time": 5.6159091,
                "end_time": 6.4136364,
                "pitch": 72,
                "velocity": 64,
                "duration": 0.7977273,
                "tempo": 120.0
            },
            {
                "start_time": 6.4295455,
                "end_time": 6.4977273,
                "pitch": 53,
                "velocity": 64,
                "duration": 0.0681818,
                "tempo": 120.0
            },
            {
                "start_time": 6.5136364,
                "end_time": 6.6136364,
                "pitch": 56,
                "velocity": 64,
                "duration": 0.1,
                "tempo": 120.0
            },
            {
                "start_time": 6.6318182,
                "end_time": 6.6977273,
                "pitch": 58,
                "velocity": 64,
                "duration": 0.0659091,
                "tempo": 120.0
            },
            {
                "start_time": 6.7159091,
                "end_time": 6.8159091,
                "pitch": 60,
                "velocity": 64,
                "duration": 0.1,
                "tempo": 120.0
            },
            {
                "start_time": 6.8318182,
                "end_time": 7.8136364,
                "pitch": 65,
                "velocity": 64,
                "duration": 0.9818182,
                "tempo": 120.0
            },
            {
                "start_time": 7.8295455,
                "end_time": 8.0113636,
                "pitch": 63,
                "velocity": 64,
                "duration": 0.1818182,
                "tempo": 120.0
            },
            {
                "start_time": 8.0272727,
                "end_time": 8.2909091,
                "pitch": 62,
                "velocity": 64,
                "duration": 0.2636364,
                "tempo": 120.0
            },
            {
                "start_time": 8.3090909,
                "end_time": 8.6272727,
                "pitch": 63,
                "velocity": 64,
                "duration": 0.3181818,
                "tempo": 120.0
            },
            {
                "start_time": 8.6454545,
                "end_time": 8.825,
                "pitch": 62,
                "velocity": 64,
                "duration": 0.1795455,
                "tempo": 120.0
            },
            {
                "start_time": 8.8409091,
                "end_time": 9.1090909,
                "pitch": 56,
                "velocity": 64,
                "duration": 0.2681818,
                "tempo": 120.0
            },
            {
                "start_time": 9.1272727,
                "end_time": 9.6272727,
                "pitch": 58,
                "velocity": 64,
                "duration": 0.5,
                "tempo": 120.0
            },
            {
                "start_time": 9.6431818,
                "end_time": 9.7113636,
                "pitch": 53,
                "velocity": 64,
                "duration": 0.0681818,
                "tempo": 120.0
            },
            {
                "start_time": 9.7272727,
                "end_time": 9.8272727,
                "pitch": 56,
                "velocity": 64,
                "duration": 0.1,
                "tempo": 120.0
            },
            {
                "start_time": 9.8454545,
                "end_time": 9.9113636,
                "pitch": 58,
                "velocity": 64,
                "duration": 0.0659091,
                "tempo": 120.0
            },
            {
                "start_time": 9.9295455,
                "end_time": 10.0295455,
                "pitch": 60,
                "velocity": 64,
                "duration": 0.1,
                "tempo": 120.0
            },
            {
                "start_time": 10.0454545,
                "end_time": 11.0318182,
                "pitch": 65,
                "velocity": 64,
                "duration": 0.9863636,
                "tempo": 120.0
            },
            {
                "start_time": 11.0477273,
                "end_time": 11.2272727,
                "pitch": 63,
                "velocity": 64,
                "duration": 0.1795455,
                "tempo": 120.0
            },
            {
                "start_time": 11.2431818,
                "end_time": 11.8340909,
                "pitch": 62,
                "velocity": 64,
                "duration": 0.5909091,
                "tempo": 120.0
            },
            {
                "start_time": 11.85,
                "end_time": 12.0295455,
                "pitch": 73,
                "velocity": 64,
                "duration": 0.1795455,
                "tempo": 120.0
            },
            {
                "start_time": 12.0477273,
                "end_time": 12.8318182,
                "pitch": 72,
                "velocity": 64,
                "duration": 0.7840909,
                "tempo": 120.0
            },
            {
                "start_time": 14.8659091,
                "end_time": 16.0886364,
                "pitch": 76,
                "velocity": 64,
                "duration": 1.2227273,
                "tempo": 120.0
            },
            {
                "start_time": 16.0886364,
                "end_time": 16.2545455,
                "pitch": 60,
                "velocity": 64,
                "duration": 0.1659091,
                "tempo": 120.0
            },
            {
                "start_time": 16.2727273,
                "end_time": 16.3386364,
                "pitch": 59,
                "velocity": 64,
                "duration": 0.0659091,
                "tempo": 120.0
            },
            {
                "start_time": 16.3568182,
                "end_time": 16.4568182,
                "pitch": 58,
                "velocity": 64,
                "duration": 0.1,
                "tempo": 120.0
            },
            {
                "start_time": 16.4727273,
                "end_time": 16.5409091,
                "pitch": 57,
                "velocity": 64,
                "duration": 0.0681818,
                "tempo": 120.0
            },
            {
                "start_time": 16.5568182,
                "end_time": 16.6568182,
                "pitch": 56,
                "velocity": 64,
                "duration": 0.1,
                "tempo": 120.0
            },
            {
                "start_time": 16.6727273,
                "end_time": 16.7409091,
                "pitch": 55,
                "velocity": 64,
                "duration": 0.0681818,
                "tempo": 120.0
            },
            {
                "start_time": 16.7568182,
                "end_time": 17.6522727,
                "pitch": 54,
                "velocity": 64,
                "duration": 0.8954545,
                "tempo": 120.0
            },
            {
                "start_time": 19.2818182,
                "end_time": 19.4659091,
                "pitch": 58,
                "velocity": 64,
                "duration": 0.1840909,
                "tempo": 120.0
            },
            {
                "start_time": 19.4818182,
                "end_time": 19.5477273,
                "pitch": 57,
                "velocity": 64,
                "duration": 0.0659091,
                "tempo": 120.0
            },
            {
                "start_time": 19.5659091,
                "end_time": 19.6659091,
                "pitch": 56,
                "velocity": 64,
                "duration": 0.1,
                "tempo": 120.0
            },
            {
                "start_time": 19.6818182,
                "end_time": 19.75,
                "pitch": 55,
                "velocity": 64,
                "duration": 0.0681818,
                "tempo": 120.0
            },
            {
                "start_time": 19.7659091,
                "end_time": 19.8659091,
                "pitch": 54,
                "velocity": 64,
                "duration": 0.1,
                "tempo": 120.0
            },
            {
                "start_time": 19.8840909,
                "end_time": 19.95,
                "pitch": 53,
                "velocity": 64,
                "duration": 0.0659091,
                "tempo": 120.0
            },
            {
                "start_time": 19.9681818,
                "end_time": 20.8590909,
                "pitch": 51,
                "velocity": 64,
                "duration": 0.8909091,
                "tempo": 120.0
            },
            {
                "start_time": 22.4909091,
                "end_time": 22.6727273,
                "pitch": 58,
                "velocity": 64,
                "duration": 0.1818182,
                "tempo": 120.0
            },
            {
                "start_time": 22.6909091,
                "end_time": 22.7568182,
                "pitch": 57,
                "velocity": 64,
                "duration": 0.0659091,
                "tempo": 120.0
            },
            {
                "start_time": 22.7727273,
                "end_time": 22.8727273,
                "pitch": 56,
                "velocity": 64,
                "duration": 0.1,
                "tempo": 120.0
            },
            {
                "start_time": 22.8909091,
                "end_time": 22.9568182,
                "pitch": 55,
                "velocity": 64,
                "duration": 0.0659091,
                "tempo": 120.0
            },
            {
                "start_time": 22.975,
                "end_time": 23.075,
                "pitch": 54,
                "velocity": 64,
                "duration": 0.1,
                "tempo": 120.0
            },
            {
                "start_time": 23.0909091,
                "end_time": 23.1590909,
                "pitch": 53,
                "velocity": 64,
                "duration": 0.0681818,
                "tempo": 120.0
            },
            {
                "start_time": 23.175,
                "end_time": 24.0681818,
                "pitch": 51,
                "velocity": 64,
                "duration": 0.8931818,
                "tempo": 120.0
            },
            {
                "start_time": 25.6909091,
                "end_time": 26.0840909,
                "pitch": 53,
                "velocity": 64,
                "duration": 0.3931818,
                "tempo": 120.0
            },
            {
                "start_time": 26.1022727,
                "end_time": 26.2840909,
                "pitch": 58,
                "velocity": 64,
                "duration": 0.1818182,
                "tempo": 120.0
            },
            {
                "start_time": 26.3022727,
                "end_time": 26.6840909,
                "pitch": 65,
                "velocity": 64,
                "duration": 0.3818182,
                "tempo": 120.0
            },
            {
                "start_time": 26.7022727,
                "end_time": 27.0863636,
                "pitch": 63,
                "velocity": 64,
                "duration": 0.3840909,
                "tempo": 120.0
            },
            {
                "start_time": 27.1022727,
                "end_time": 27.2863636,
                "pitch": 61,
                "velocity": 64,
                "duration": 0.1840909,
                "tempo": 120.0
            },
            {
                "start_time": 27.3045455,
                "end_time": 27.6863636,
                "pitch": 53,
                "velocity": 64,
                "duration": 0.3818182,
                "tempo": 120.0
            },
            {
                "start_time": 27.7045455,
                "end_time": 27.8886364,
                "pitch": 56,
                "velocity": 64,
                "duration": 0.1840909,
                "tempo": 120.0
            },
            {
                "start_time": 27.9045455,
                "end_time": 28.2909091,
                "pitch": 60,
                "velocity": 64,
                "duration": 0.3863636,
                "tempo": 120.0
            },
            {
                "start_time": 28.3068182,
                "end_time": 28.8909091,
                "pitch": 65,
                "velocity": 64,
                "duration": 0.5840909,
                "tempo": 120.0
            }
        ],
        "Lead 2 (sawtooth)": [
            {
                "start_time": 0.0,
                "end_time": 0.0659091,
                "pitch": 72,
                "velocity": 64,
                "duration": 0.0659091,
                "tempo": 120.0
            },
            {
                "start_time": 0.0818182,
                "end_time": 0.15,
                "pitch": 53,
                "velocity": 64,
                "duration": 0.0681818,
                "tempo": 120.0
            },
            {
                "start_time": 0.1659091,
                "end_time": 0.2659091,
                "pitch": 56,
                "velocity": 64,
                "duration": 0.1,
                "tempo": 120.0
            },
            {
                "start_time": 0.2818182,
                "end_time": 0.35,
                "pitch": 58,
                "velocity": 64,
                "duration": 0.0681818,
                "tempo": 120.0
            },
            {
                "start_time": 0.3659091,
                "end_time": 0.4659091,
                "pitch": 60,
                "velocity": 64,
                "duration": 0.1,
                "tempo": 120.0
            },
            {
                "start_time": 0.4818182,
                "end_time": 1.4659091,
                "pitch": 65,
                "velocity": 64,
                "duration": 0.9840909,
                "tempo": 120.0
            },
            {
                "start_time": 1.4818182,
                "end_time": 1.6659091,
                "pitch": 63,
                "velocity": 64,
                "duration": 0.1840909,
                "tempo": 120.0
            },
            {
                "start_time": 1.6840909,
                "end_time": 1.9522727,
                "pitch": 62,
                "velocity": 64,
                "duration": 0.2681818,
                "tempo": 120.0
            },
            {
                "start_time": 1.9681818,
                "end_time": 2.2681818,
                "pitch": 63,
                "velocity": 64,
                "duration": 0.3,
                "tempo": 120.0
            },
            {
                "start_time": 2.2863636,
                "end_time": 2.4681818,
                "pitch": 62,
                "velocity": 64,
                "duration": 0.1818182,
                "tempo": 120.0
            },
            {
                "start_time": 2.4863636,
                "end_time": 2.7522727,
                "pitch": 56,
                "velocity": 64,
                "duration": 0.2659091,
                "tempo": 120.0
            },
            {
                "start_time": 2.7681818,
                "end_time": 3.2681818,
                "pitch": 58,
                "velocity": 64,
                "duration": 0.5,
                "tempo": 120.0
            },
            {
                "start_time": 3.2863636,
                "end_time": 3.3522727,
                "pitch": 53,
                "velocity": 64,
                "duration": 0.0659091,
                "tempo": 120.0
            },
            {
                "start_time": 3.3704545,
                "end_time": 3.4704545,
                "pitch": 56,
                "velocity": 64,
                "duration": 0.1,
                "tempo": 120.0
            },
            {
                "start_time": 3.4863636,
                "end_time": 3.5545455,
                "pitch": 58,
                "velocity": 64,
                "duration": 0.0681818,
                "tempo": 120.0
            },
            {
                "start_time": 3.5704545,
                "end_time": 3.6704545,
                "pitch": 60,
                "velocity": 64,
                "duration": 0.1,
                "tempo": 120.0
            },
            {
                "start_time": 3.6886364,
                "end_time": 4.6727273,
                "pitch": 65,
                "velocity": 64,
                "duration": 0.9840909,
                "tempo": 120.0
            },
            {
                "start_time": 4.6909091,
                "end_time": 4.875,
                "pitch": 63,
                "velocity": 64,
                "duration": 0.1840909,
                "tempo": 120.0
            },
            {
                "start_time": 4.8909091,
                "end_time": 5.4681818,
                "pitch": 62,
                "velocity": 64,
                "duration": 0.5772727,
                "tempo": 120.0
            },
            {
                "start_time": 5.4840909,
                "end_time": 5.6681818,
                "pitch": 66,
                "velocity": 64,
                "duration": 0.1840909,
                "tempo": 120.0
            },
            {
                "start_time": 5.6840909,
                "end_time": 6.4795455,
                "pitch": 65,
                "velocity": 64,
                "duration": 0.7954545,
                "tempo": 120.0
            },
            {
                "start_time": 6.4977273,
                "end_time": 6.5636364,
                "pitch": 53,
                "velocity": 64,
                "duration": 0.0659091,
                "tempo": 120.0
            },
            {
                "start_time": 6.5818182,
                "end_time": 6.6818182,
                "pitch": 56,
                "velocity": 64,
                "duration": 0.1,
                "tempo": 120.0
            },
            {
                "start_time": 6.6977273,
                "end_time": 6.7659091,
                "pitch": 58,
                "velocity": 64,
                "duration": 0.0681818,
                "tempo": 120.0
            },
            {
                "start_time": 6.7818182,
                "end_time": 6.8818182,
                "pitch": 60,
                "velocity": 64,
                "duration": 0.1,
                "tempo": 120.0
            },
            {
                "start_time": 6.9,
                "end_time": 7.8795455,
                "pitch": 65,
                "velocity": 64,
                "duration": 0.9795455,
                "tempo": 120.0
            },
            {
                "start_time": 7.8954545,
                "end_time": 8.0795455,
                "pitch": 63,
                "velocity": 64,
                "duration": 0.1840909,
                "tempo": 120.0
            },
            {
                "start_time": 8.0977273,
                "end_time": 8.3795455,
                "pitch": 62,
                "velocity": 64,
                "duration": 0.2818182,
                "tempo": 120.0
            },
            {
                "start_time": 8.3977273,
                "end_time": 8.6931818,
                "pitch": 63,
                "velocity": 64,
                "duration": 0.2954545,
                "tempo": 120.0
            },
            {
                "start_time": 8.7090909,
                "end_time": 8.8909091,
                "pitch": 62,
                "velocity": 64,
                "duration": 0.1818182,
                "tempo": 120.0
            },
            {
                "start_time": 8.9090909,
                "end_time": 9.1772727,
                "pitch": 56,
                "velocity": 64,
                "duration": 0.2681818,
                "tempo": 120.0
            },
            {
                "start_time": 9.1931818,
                "end_time": 9.6931818,
                "pitch": 58,
                "velocity": 64,
                "duration": 0.5,
                "tempo": 120.0
            },
            {
                "start_time": 9.7113636,
                "end_time": 9.7772727,
                "pitch": 53,
                "velocity": 64,
                "duration": 0.0659091,
                "tempo": 120.0
            },
            {
                "start_time": 9.7954545,
                "end_time": 9.8954545,
                "pitch": 56,
                "velocity": 64,
                "duration": 0.1,
                "tempo": 120.0
            },
            {
                "start_time": 9.9113636,
                "end_time": 9.9795455,
                "pitch": 58,
                "velocity": 64,
                "duration": 0.0681818,
                "tempo": 120.0
            },
            {
                "start_time": 9.9954545,
                "end_time": 10.0977273,
                "pitch": 60,
                "velocity": 64,
                "duration": 0.1022727,
                "tempo": 120.0
            },
            {
                "start_time": 10.1136364,
                "end_time": 11.0954545,
                "pitch": 65,
                "velocity": 64,
                "duration": 0.9818182,
                "tempo": 120.0
            },
            {
                "start_time": 11.1113636,
                "end_time": 11.2954545,
                "pitch": 63,
                "velocity": 64,
                "duration": 0.1840909,
                "tempo": 120.0
            },
            {
                "start_time": 11.3113636,
                "end_time": 11.8977273,
                "pitch": 62,
                "velocity": 64,
                "duration": 0.5863636,
                "tempo": 120.0
            },
            {
                "start_time": 11.9159091,
                "end_time": 12.0977273,
                "pitch": 66,
                "velocity": 64,
                "duration": 0.1818182,
                "tempo": 120.0
            },
            {
                "start_time": 12.1159091,
                "end_time": 12.9,
                "pitch": 65,
                "velocity": 64,
                "duration": 0.7840909,
                "tempo": 120.0
            },
            {
                "start_time": 17.4227273,
                "end_time": 17.5204545,
                "pitch": 65,
                "velocity": 64,
                "duration": 0.0977273,
                "tempo": 120.0
            },
            {
                "start_time": 17.5363636,
                "end_time": 17.6022727,
                "pitch": 63,
                "velocity": 64,
                "duration": 0.0659091,
                "tempo": 120.0
            },
            {
                "start_time": 17.6181818,
                "end_time": 17.7204545,
                "pitch": 62,
                "velocity": 64,
                "duration": 0.1022727,
                "tempo": 120.0
            },
            {
                "start_time": 17.7363636,
                "end_time": 18.0113636,
                "pitch": 60,
                "velocity": 64,
                "duration": 0.275,
                "tempo": 120.0
            },
            {
                "start_time": 18.0272727,
                "end_time": 18.3295455,
                "pitch": 58,
                "velocity": 64,
                "duration": 0.3022727,
                "tempo": 120.0
            },
            {
                "start_time": 18.3454545,
                "end_time": 18.5295455,
                "pitch": 60,
                "velocity": 64,
                "duration": 0.1840909,
                "tempo": 120.0
            },
            {
                "start_time": 18.5477273,
                "end_time": 18.6159091,
                "pitch": 63,
                "velocity": 64,
                "duration": 0.0681818,
                "tempo": 120.0
            },
            {
                "start_time": 18.6340909,
                "end_time": 18.8227273,
                "pitch": 63,
                "velocity": 64,
                "duration": 0.1886364,
                "tempo": 120.0
            },
            {
                "start_time": 18.8386364,
                "end_time": 20.7295455,
                "pitch": 60,
                "velocity": 64,
                "duration": 1.8909091,
                "tempo": 120.0
            },
            {
                "start_time": 20.7454545,
                "end_time": 20.8113636,
                "pitch": 58,
                "velocity": 64,
                "duration": 0.0659091,
                "tempo": 120.0
            },
            {
                "start_time": 20.8272727,
                "end_time": 20.9272727,
                "pitch": 60,
                "velocity": 64,
                "duration": 0.1,
                "tempo": 120.0
            },
            {
                "start_time": 20.9454545,
                "end_time": 21.2204545,
                "pitch": 63,
                "velocity": 64,
                "duration": 0.275,
                "tempo": 120.0
            },
            {
                "start_time": 21.2363636,
                "end_time": 21.5363636,
                "pitch": 58,
                "velocity": 64,
                "duration": 0.3,
                "tempo": 120.0
            },
            {
                "start_time": 21.5545455,
                "end_time": 22.5409091,
                "pitch": 60,
                "velocity": 64,
                "duration": 0.9863636,
                "tempo": 120.0
            },
            {
                "start_time": 23.9545455,
                "end_time": 24.1363636,
                "pitch": 58,
                "velocity": 64,
                "duration": 0.1818182,
                "tempo": 120.0
            },
            {
                "start_time": 24.1545455,
                "end_time": 24.4272727,
                "pitch": 63,
                "velocity": 64,
                "duration": 0.2727273,
                "tempo": 120.0
            },
            {
                "start_time": 24.4454545,
                "end_time": 24.7454545,
                "pitch": 60,
                "velocity": 64,
                "duration": 0.3,
                "tempo": 120.0
            },
            {
                "start_time": 24.7613636,
                "end_time": 25.4295455,
                "pitch": 63,
                "velocity": 64,
                "duration": 0.6681818,
                "tempo": 120.0
            },
            {
                "start_time": 25.4454545,
                "end_time": 25.4931818,
                "pitch": 65,
                "velocity": 64,
                "duration": 0.0477273,
                "tempo": 120.0
            },
            {
                "start_time": 25.5113636,
                "end_time": 25.625,
                "pitch": 63,
                "velocity": 64,
                "duration": 0.1136364,
                "tempo": 120.0
            },
            {
                "start_time": 25.6409091,
                "end_time": 25.7431818,
                "pitch": 62,
                "velocity": 64,
                "duration": 0.1022727,
                "tempo": 120.0
            },
            {
                "start_time": 25.7590909,
                "end_time": 26.1522727,
                "pitch": 60,
                "velocity": 64,
                "duration": 0.3931818,
                "tempo": 120.0
            },
            {
                "start_time": 26.1681818,
                "end_time": 26.3522727,
                "pitch": 65,
                "velocity": 64,
                "duration": 0.1840909,
                "tempo": 120.0
            },
            {
                "start_time": 26.3681818,
                "end_time": 26.7522727,
                "pitch": 72,
                "velocity": 64,
                "duration": 0.3840909,
                "tempo": 120.0
            },
            {
                "start_time": 26.7681818,
                "end_time": 27.1522727,
                "pitch": 70,
                "velocity": 64,
                "duration": 0.3840909,
                "tempo": 120.0
            },
            {
                "start_time": 27.1704545,
                "end_time": 27.3545455,
                "pitch": 68,
                "velocity": 64,
                "duration": 0.1840909,
                "tempo": 120.0
            },
            {
                "start_time": 27.3704545,
                "end_time": 27.7545455,
                "pitch": 60,
                "velocity": 64,
                "duration": 0.3840909,
                "tempo": 120.0
            },
            {
                "start_time": 27.7704545,
                "end_time": 27.9568182,
                "pitch": 63,
                "velocity": 64,
                "duration": 0.1863636,
                "tempo": 120.0
            },
            {
                "start_time": 27.9727273,
                "end_time": 28.3568182,
                "pitch": 70,
                "velocity": 64,
                "duration": 0.3840909,
                "tempo": 120.0
            },
            {
                "start_time": 28.3727273,
                "end_time": 28.8909091,
                "pitch": 72,
                "velocity": 64,
                "duration": 0.5181818,
                "tempo": 120.0
            }
        ]
    }
}