{
    "mood": "angry",
    "instruments": {
        "Trumpet": [
            {
                "start_time": 3.6295455,
                "end_time": 4.0727273,
                "pitch": 74,
                "velocity": 80,
                "duration": 0.4431818,
                "tempo": 120.0
            },
            {
                "start_time": 4.0886364,
                "end_time": 4.5477273,
                "pitch": 74,
                "velocity": 80,
                "duration": 0.4590909,
                "tempo": 120.0
            },
            {
                "start_time": 4.5659091,
                "end_time": 5.0068182,
                "pitch": 70,
                "velocity": 80,
                "duration": 0.4409091,
                "tempo": 120.0
            },
            {
                "start_time": 5.0227273,
                "end_time": 5.475,
                "pitch": 67,
                "velocity": 80,
                "duration": 0.4522727,
                "tempo": 120.0
            },
            {
                "start_time": 5.4931818,
                "end_time": 6.4045455,
                "pitch": 60,
                "velocity": 80,
                "duration": 0.9113636,
                "tempo": 120.0
            },
            {
                "start_time": 6.4204545,
                "end_time": 6.4704545,
                "pitch": 56,
                "velocity": 80,
                "duration": 0.05,
                "tempo": 120.0
            },
            {
                "start_time": 6.4863636,
                "end_time": 6.5363636,
                "pitch": 60,
                "velocity": 80,
                "duration": 0.05,
                "tempo": 120.0
            },
            {
                "start_time": 6.5545455,
                "end_time": 7.3409091,
                "pitch": 67,
                "velocity": 80,
                "duration": 0.7863636,
                "tempo": 120.0
            },
            {
                "start_time": 7.3568182,
                "end_time": 7.4068182,
                "pitch": 56,
                "velocity": 80,
                "duration": 0.05,
                "tempo": 120.0
            },
            {
                "start_time": 7.4227273,
                "end_time": 7.4727273,
                "pitch": 60,
                "velocity": 80,
                "duration": 0.05,
                "tempo": 120.0
            },
            {
                "start_time": 7.4886364,
                "end_time": 9.1954545,
                "pitch": 65,
                "velocity": 80,
                "duration": 1.7068182,
                "tempo": 120.0
            },
            {
                "start_time": 10.3840909,
                "end_time": 10.5022727,
                "pitch": 65,
                "velocity": 80,
                "duration": 0.1181818,
                "tempo": 120.0
            },
            {
                "start_time": 10.5181818,
                "end_time": 10.5681818,
                "pitch": 65,
                "velocity": 80,
                "duration": 0.05,
                "tempo": 120.0
            },
            {
                "start_time": 11.5363636,
                "end_time": 11.9977273,
                "pitch": 73,
                "velocity": 80,
                "duration": 0.4613636,
                "tempo": 120.0
            },
            {
                "start_time": 12.0159091,
                "end_time": 12.4568182,
                "pitch": 68,
                "velocity": 80,
                "duration": 0.4409091,
                "tempo": 120.0
            },
            {
                "start_time": 12.4727273,
                "end_time": 12.925,
                "pitch": 65,
                "velocity": 80,
                "duration": 0.4522727,
                "tempo": 120.0
            },
            {
                "start_time": 12.9431818,
                "end_time": 14.0204545,
                "pitch": 58,
                "velocity": 80,
                "duration": 1.0772727,
                "tempo": 120.0
            },
            {
                "start_time": 15.2659091,
                "end_time": 15.7181818,
                "pitch": 62,
                "velocity": 80,
                "duration": 0.4522727,
                "tempo": 120.0
            },
            {
                "start_time": 15.7340909,
                "end_time": 16.1772727,
                "pitch": 58,
                "velocity": 80,
                "duration": 0.4431818,
                "tempo": 120.0
            },
            {
                "start_time": 16.1931818,
                "end_time": 16.6454545,
                "pitch": 55,
                "velocity": 80,
                "duration": 0.4522727,
                "tempo": 120.0
            },
            {
                "start_time": 16.6613636,
                "end_time": 17.3818182,
                "pitch": 50,
                "velocity": 80,
                "duration": 0.7204545,
                "tempo": 120.0
            },
            {
                "start_time": 18.9863636,
                "end_time": 19.4386364,
                "pitch": 73,
                "velocity": 80,
                "duration": 0.4522727,
                "tempo": 120.0
            },
            {
                "start_time": 19.4545455,
                "end_time": 19.9136364,
                "pitch": 68,
                "velocity": 80,
                "duration": 0.4590909,
                "tempo": 120.0
            },
            {
                "start_time": 19.9318182,
                "end_time": 20.3727273,
                "pitch": 65,
                "velocity": 80,
                "duration": 0.4409091,
                "tempo": 120.0
            },
            {
                "start_time": 20.3886364,
                "end_time": 21.4681818,
                "pitch": 58,
                "velocity": 80,
                "duration": 1.0795455,
                "tempo": 120.0
            },
            {
                "start_time": 22.7136364,
                "end_time": 23.1545455,
                "pitch": 62,
                "velocity": 80,
                "duration": 0.4409091,
                "tempo": 120.0
            },
            {
                "start_time": 23.1704545,
                "end_time": 23.6340909,
                "pitch": 58,
                "velocity": 80,
                "duration": 0.4636364,
                "tempo": 120.0
            },
            {
                "start_time": 23.65,
                "end_time": 24.0931818,
                "pitch": 55,
                "velocity": 80,
                "duration": 0.4431818,
                "tempo": 120.0
            },
            {
                "start_time": 24.1090909,
                "end_time": 24.8181818,
                "pitch": 50,
                "velocity": 80,
                "duration": 0.7090909,
                "tempo": 120.0
            },
            {
                "start_time": 26.4340909,
                "end_time": 26.8840909,
                "pitch": 74,
                "velocity": 80,
                "duration": 0.45,
                "tempo": 120.0
            },
            {
                "start_time": 26.9022727,
                "end_time": 27.3431818,
                "pitch": 70,
                "velocity": 80,
                "duration": 0.4409091,
                "tempo": 120.0
            },
            {
                "start_time": 27.3590909,
                "end_time": 27.8113636,
                "pitch": 67,
                "velocity": 80,
                "duration": 0.4522727,
                "tempo": 120.0
            },
            {
                "start_time": 27.8295455,
                "end_time": 28.7409091,
                "pitch": 60,
                "velocity": 80,
                "duration": 0.9113636,
                "tempo": 120.0
            },
            {
                "start_time": 28.7568182,
                "end_time": 28.8068182,
                "pitch": 56,
                "velocity": 80,
                "duration": 0.05,
                "tempo": 120.0
            },
            {
                "start_time": 28.8227273,
                "end_time": 28.875,
                "pitch": 60,
                "velocity": 80,
                "duration": 0.0522727,
                "tempo": 120.0
            },
            {
                "start_time": 28.8909091,
                "end_time": 29.6772727,
                "pitch": 67,
                "velocity": 80,
                "duration": 0.7863636,
                "tempo": 120.0
            },
            {
                "start_time": 29.6954545,
                "end_time": 29.7431818,
                "pitch": 56,
                "velocity": 80,
                "duration": 0.0477273,
                "tempo": 120.0
            },
            {
                "start_time": 29.7590909,
                "end_time": 29.8090909,
                "pitch": 60,
                "velocity": 80,
                "duration": 0.05,
                "tempo": 120.0
            },
            {
                "start_time": 29.825,
                "end_time": 31.5431818,
                "pitch": 65,
                "velocity": 80,
                "duration": 1.7181818,
                "tempo": 120.0
            },
            {
                "start_time": 33.8727273,
                "end_time": 34.3318182,
                "pitch": 73,
                "velocity": 80,
                "duration": 0.4590909,
                "tempo": 120.0
            },
            {
                "start_time": 34.3477273,
                "end_time": 34.7909091,
                "pitch": 68,
                "velocity": 80,
                "duration": 0.4431818,
                "tempo": 120.0
            },
            {
                "start_time": 34.8068182,
                "end_time": 35.2590909,
                "pitch": 65,
                "velocity": 80,
                "duration": 0.4522727,
                "tempo": 120.0
            },
            {
                "start_time": 35.275,
                "end_time": 36.3545455,
                "pitch": 58,
                "velocity": 80,
                "duration": 1.0795455,
                "tempo": 120.0
            },
            {
                "start_time": 37.6,
                "end_time": 38.0522727,
                "pitch": 62,
                "velocity": 80,
                "duration": 0.4522727,
                "tempo": 120.0
            },
            {
                "start_time": 38.0681818,
                "end_time": 38.5090909,
                "pitch": 58,
                "velocity": 80,
                "duration": 0.4409091,
                "tempo": 120.0
            },
            {
                "start_time": 38.5272727,
                "end_time": 38.9795455,
                "pitch": 55,
                "velocity": 80,
                "duration": 0.4522727,
                "tempo": 120.0
            },
            {
                "start_time": 38.9954545,
                "end_time": 39.7159091,
                "pitch": 50,
                "velocity": 80,
                "duration": 0.7204545,
                "tempo": 120.0
            },
            {
                "start_time": 41.3181818,
                "end_time": 41.7772727,
                "pitch": 73,
                "velocity": 80,
                "duration": 0.4590909,
                "tempo": 120.0
            },
            {
                "start_time": 41.7954545,
                "end_time": 42.2477273,
                "pitch": 68,
                "velocity": 80,
                "duration": 0.4522727,
                "tempo": 120.0
            },
            {
                "start_time": 42.2636364,
                "end_time": 42.6954545,
                "pitch": 65,
                "velocity": 80,
                "duration": 0.4318182,
                "tempo": 120.0
            },
            {
                "start_time": 42.7113636,
                "end_time": 43.8,
                "pitch": 58,
                "velocity": 80,
                "duration": 1.0886364,
                "tempo": 120.0
            },
            {
                "start_time": 45.0454545,
                "end_time": 45.4977273,
                "pitch": 62,
                "velocity": 80,
                "duration": 0.4522727,
                "tempo": 120.0
            },
            {
                "start_time": 45.5159091,
                "end_time": 45.9681818,
                "pitch": 58,
                "velocity": 80,
                "duration": 0.4522727,
                "tempo": 120.0
            },
            {
                "start_time": 45.9840909,
                "end_time": 46.425,
                "pitch": 55,
                "velocity": 80,
                "duration": 0.4409091,
                "tempo": 120.0
            },
            {
                "start_time": 46.4431818,
                "end_time": 47.1522727,
                "pitch": 50,
                "velocity": 80,
                "duration": 0.7090909,
                "tempo": 120.0
            },
            {
                "start_time": 48.3045455,
                "end_time": 48.7454545,
                "pitch": 53,
                "velocity": 80,
                "duration": 0.4409091,
                "tempo": 120.0
            },
            {
                "start_time": 48.7636364,
                "end_time": 49.2136364,
                "pitch": 53,
                "velocity": 80,
                "duration": 0.45,
                "tempo": 120.0
            },
            {
                "start_time": 49.2318182,
                "end_time": 49.6727273,
                "pitch": 53,
                "velocity": 80,
                "duration": 0.4409091,
                "tempo": 120.0
            },
            {
                "start_time": 49.6886364,
                "end_time": 50.1409091,
                "pitch": 53,
                "velocity": 80,
                "duration": 0.4522727,
                "tempo": 120.0
            },
            {
                "start_time": 50.1590909,
                "end_time": 50.6204545,
                "pitch": 55,
                "velocity": 80,
                "duration": 0.4613636,
                "tempo": 120.0
            },
            {
                "start_time": 50.6386364,
                "end_time": 51.0704545,
                "pitch": 55,
                "velocity": 80,
                "duration": 0.4318182,
                "tempo": 120.0
            },
            {
                "start_time": 51.0863636,
                "end_time": 51.5386364,
                "pitch": 55,
                "velocity": 80,
                "duration": 0.4522727,
                "tempo": 120.0
            },
            {
                "start_time": 51.5545455,
                "end_time": 52.0068182,
                "pitch": 55,
                "velocity": 80,
                "duration": 0.4522727,
                "tempo": 120.0
            },
            {
                "start_time": 52.025,
                "end_time": 52.4659091,
                "pitch": 56,
                "velocity": 80,
                "duration": 0.4409091,
                "tempo": 120.0
            },
            {
                "start_time": 52.4818182,
                "end_time": 52.9340909,
                "pitch": 56,
                "velocity": 80,
                "duration": 0.4522727,
                "tempo": 120.0
            },
            {
                "start_time": 52.9522727,
                "end_time": 53.4045455,
                "pitch": 56,
                "velocity": 80,
                "duration": 0.4522727,
                "tempo": 120.0
            },
            {
                "start_time": 53.4204545,
                "end_time": 53.8613636,
                "pitch": 56,
                "velocity": 80,
                "duration": 0.4409091,
                "tempo": 120.0
            },
            {
                "start_time": 53.8795455,
                "end_time": 54.3386364,
                "pitch": 58,
                "velocity": 80,
                "duration": 0.4590909,
                "tempo": 120.0
            },
            {
                "start_time": 54.3545455,
                "end_time": 54.7977273,
                "pitch": 58,
                "velocity": 80,
                "duration": 0.4431818,
                "tempo": 120.0
            },
            {
                "start_time": 54.8136364,
                "end_time": 55.2545455,
                "pitch": 60,
                "velocity": 80,
                "duration": 0.4409091,
                "tempo": 120.0
            },
            {
                "start_time": 55.2704545,
                "end_time": 55.7227273,
                "pitch": 60,
                "velocity": 80,
                "duration": 0.4522727,
                "tempo": 120.0
            },
            {
                "start_time": 55.7409091,
                "end_time": 56.1818182,
                "pitch": 53,
                "velocity": 80,
                "duration": 0.4409091,
                "tempo": 120.0
            },
            {
                "start_time": 56.1977273,
                "end_time": 56.65,
                "pitch": 53,
                "velocity": 80,
                "duration": 0.4522727,
                "tempo": 120.0
            },
            {
                "start_time": 56.6681818,
                "end_time": 57.1204545,
                "pitch": 53,
                "velocity": 80,
                "duration": 0.4522727,
                "tempo": 120.0
            },
            {
                "start_time": 57.1363636,
                "end_time": 57.5886364,
                "pitch": 53,
                "velocity": 80,
                "duration": 0.4522727,
                "tempo": 120.0
            },
            {
                "start_time": 57.6045455,
                "end_time": 58.0568182,
                "pitch": 55,
                "velocity": 80,
                "duration": 0.4522727,
                "tempo": 120.0
            },
            {
                "start_time": 58.075,
                "end_time": 58.5159091,
                "pitch": 55,
                "velocity": 80,
                "duration": 0.4409091,
                "tempo": 120.0
            },
            {
                "start_time": 58.5318182,
                "end_time": 58.9840909,
                "pitch": 55,
                "velocity": 80,
                "duration": 0.4522727,
                "tempo": 120.0
            },
            {
                "start_time": 59.0022727,
                "end_time": 59.4431818,
                "pitch": 55,
                "velocity": 80,
                "duration": 0.4409091,
                "tempo": 120.0
            },
            {
                "start_time": 59.4590909,
                "end_time": 59.9113636,
                "pitch": 56,
                "velocity": 80,
                "duration": 0.4522727,
                "tempo": 120.0
            },
            {
                "start_time": 59.9295455,
                "end_time": 60.3818182,
                "pitch": 56,
                "velocity": 80,
                "duration": 0.4522727,
                "tempo": 120.0
            },
            {
                "start_time": 60.3977273,
                "end_time": 60.8386364,
                "pitch": 56,
                "velocity": 80,
                "duration": 0.4409091,
                "tempo": 120.0
            },
            {
                "start_time": 60.8568182,
                "end_time": 61.3090909,
                "pitch": 56,
                "velocity": 80,
                "duration": 0.4522727,
                "tempo": 120.0
            },
            {
                "start_time": 61.325,
                "end_time": 61.7840909,
                "pitch": 58,
                "velocity": 80,
                "duration": 0.4590909,
                "tempo": 120.0
            },
            {
                "start_time": 61.8,
                "end_time": 62.2340909,
                "pitch": 58,
                "velocity": 80,
                "duration": 0.4340909,
                "tempo": 120.0
            },
            {
                "start_time": 62.25,
                "end_time": 62.7022727,
                "pitch": 60,
                "velocity": 80,
                "duration": 0.4522727,
                "tempo": 120.0
            },
            {
                "start_time": 62.7181818,
                "end_time": 63.1704545,
                "pitch": 60,
                "velocity": 80,
                "duration": 0.4522727,
                "tempo": 120.0
            },
            {
                "start_time": 63.1863636,
                "end_time": 63.6295455,
                "pitch": 53,
                "velocity": 80,
                "duration": 0.4431818,
                "tempo": 120.0
            },
            {
                "start_time": 63.6454545,
                "end_time": 64.0977273,
                "pitch": 53,
                "velocity": 80,
                "duration": 0.4522727,
                "tempo": 120.0
            },
            {
                "start_time": 64.1136364,
                "end_time": 64.5659091,
                "pitch": 53,
                "velocity": 80,
                "duration": 0.4522727,
                "tempo": 120.0
            },
            {
                "start_time": 64.5840909,
                "end_time": 65.025,
                "pitch": 53,
                "velocity": 80,
                "duration": 0.4409091,
                "tempo": 120.0
            },
            {
                "start_time": 65.0409091,
                "end_time": 65.5045455,
                "pitch": 55,
                "velocity": 80,
                "duration": 0.4636364,
                "tempo": 120.0
            },
            {
                "start_time": 65.5204545,
                "end_time": 65.9636364,
                "pitch": 55,
                "velocity": 80,
                "duration": 0.4431818,
                "tempo": 120.0
            },
            {
                "start_time": 65.9795455,
                "end_time": 66.4204545,
                "pitch": 55,
                "velocity": 80,
                "duration": 0.4409091,
                "tempo": 120.0
            },
            {
                "start_time": 66.4386364,
                "end_time": 66.8909091,
                "pitch": 55,
                "velocity": 80,
                "duration": 0.4522727,
                "tempo": 120.0
            },
            {
                "start_time": 66.9068182,
                "end_time": 67.3590909,
                "pitch": 56,
                "velocity": 80,
                "duration": 0.4522727,
                "tempo": 120.0
            },
            {
                "start_time": 67.375,
                "end_time": 67.8181818,
                "pitch": 56,
                "velocity": 80,
                "duration": 0.4431818,
                "tempo": 120.0
            },
            {
                "start_time": 67.8340909,
                "end_time": 68.2863636,
                "pitch": 56,
                "velocity": 80,
                "duration": 0.4522727,
                "tempo": 120.0
            },
            {
                "start_time": 68.3022727,
                "end_time": 68.7545455,
                "pitch": 56,
                "velocity": 80,
                "duration": 0.4522727,
                "tempo": 120.0
            },
            {
                "start_time": 68.7727273,
                "end_time": 69.2340909,
                "pitch": 58,
                "velocity": 80,
                "duration": 0.4613636,
                "tempo": 120.0
            },
            {
                "start_time": 69.2522727,
                "end_time": 69.6840909,
                "pitch": 58,
                "velocity": 80,
                "duration": 0.4318182,
                "tempo": 120.0
            },
            {
                "start_time": 69.7,
                "end_time": 70.1409091,
                "pitch": 60,
                "velocity": 80,
                "duration": 0.4409091,
                "tempo": 120.0
            },
            {
                "start_time": 70.1590909,
                "end_time": 70.6113636,
                "pitch": 60,
                "velocity": 80,
                "duration": 0.4522727,
                "tempo": 120.0
            },
            {
                "start_time": 70.6272727,
                "end_time": 71.0795455,
                "pitch": 53,
                "velocity": 80,
                "duration": 0.4522727,
                "tempo": 120.0
            },
            {
                "start_time": 71.0954545,
                "end_time": 71.5477273,
                "pitch": 53,
                "velocity": 80,
                "duration": 0.4522727,
                "tempo": 120.0
            },
            {
                "start_time": 71.5659091,
                "end_time": 72.0068182,
                "pitch": 53,
                "velocity": 80,
                "duration": 0.4409091,
                "tempo": 120.0
            },
            {
                "start_time": 72.0227273,
                "end_time": 72.475,
                "pitch": 53,
                "velocity": 80,
                "duration": 0.4522727,
                "tempo": 120.0
            },
            {
                "start_time": 72.4931818,
                "end_time": 72.9545455,
                "pitch": 55,
                "velocity": 80,
                "duration": 0.4613636,
                "tempo": 120.0
            },
            {
                "start_time": 72.9727273,
                "end_time": 73.4045455,
                "pitch": 55,
                "velocity": 80,
                "duration": 0.4318182,
                "tempo": 120.0
            },
            {
                "start_time": 73.4204545,
                "end_time": 73.8727273,
                "pitch": 55,
                "velocity": 80,
                "duration": 0.4522727,
                "tempo": 120.0
            },
            {
                "start_time": 73.8886364,
                "end_time": 74.3409091,
                "pitch": 55,
                "velocity": 80,
                "duration": 0.4522727,
                "tempo": 120.0
            },
            {
                "start_time": 74.3590909,
                "end_time": 74.8,
                "pitch": 56,
                "velocity": 80,
                "duration": 0.4409091,
                "tempo": 120.0
            },
            {
                "start_time": 74.8159091,
                "end_time": 75.2681818,
                "pitch": 56,
                "velocity": 80,
                "duration": 0.4522727,
                "tempo": 120.0
            },
            {
                "start_time": 75.2863636,
                "end_time": 75.7386364,
                "pitch": 56,
                "velocity": 80,
                "duration": 0.4522727,
                "tempo": 120.0
            },
            {
                "start_time": 75.7545455,
                "end_time": 76.1954545,
                "pitch": 56,
                "velocity": 80,
                "duration": 0.4409091,
                "tempo": 120.0
            },
            {
                "start_time": 76.2113636,
                "end_time": 76.675,
                "pitch": 58,
                "velocity": 80,
                "duration": 0.4636364,
                "tempo": 120.0
            },
            {
                "start_time": 76.6931818,
                "end_time": 77.1340909,
                "pitch": 58,
                "velocity": 80,
                "duration": 0.4409091,
                "tempo": 120.0
            },
            {
                "start_time": 77.15,
                "end_time": 77.5931818,
                "pitch": 60,
                "velocity": 80,
                "duration": 0.4431818,
                "tempo": 120.0
            },
            {
                "start_time": 77.6090909,
                "end_time": 78.0613636,
                "pitch": 60,
                "velocity": 80,
                "duration": 0.4522727,
                "tempo": 120.0
            },
            {
                "start_time": 85.5272727,
                "end_time": 85.7409091,
                "pitch": 70,
                "velocity": 80,
                "duration": 0.2136364,
                "tempo": 120.0
            },
            {
                "start_time": 85.7568182,
                "end_time": 85.8704545,
                "pitch": 70,
                "velocity": 80,
                "duration": 0.1136364,
                "tempo": 120.0
            },
            {
                "start_time": 85.8886364,
                "end_time": 85.9704545,
                "pitch": 68,
                "velocity": 80,
                "duration": 0.0818182,
                "tempo": 120.0
            },
            {
                "start_time": 85.9863636,
                "end_time": 86.1022727,
                "pitch": 65,
                "velocity": 80,
                "duration": 0.1159091,
                "tempo": 120.0
            },
            {
                "start_time": 86.1204545,
                "end_time": 86.2045455,
                "pitch": 63,
                "velocity": 80,
                "duration": 0.0840909,
                "tempo": 120.0
            },
            {
                "start_time": 86.2204545,
                "end_time": 86.4386364,
                "pitch": 70,
                "velocity": 80,
                "duration": 0.2181818,
                "tempo": 120.0
            },
            {
                "start_time": 86.4545455,
                "end_time": 86.5727273,
                "pitch": 70,
                "velocity": 80,
                "duration": 0.1181818,
                "tempo": 120.0
            },
            {
                "start_time": 86.5886364,
                "end_time": 86.6727273,
                "pitch": 68,
                "velocity": 80,
                "duration": 0.0840909,
                "tempo": 120.0
            },
            {
                "start_time": 86.6886364,
                "end_time": 86.8068182,
                "pitch": 65,
                "velocity": 80,
                "duration": 0.1181818,
                "tempo": 120.0
            },
            {
                "start_time": 86.8227273,
                "end_time": 86.9068182,
                "pitch": 63,
                "velocity": 80,
                "duration": 0.0840909,
                "tempo": 120.0
            },
            {
                "start_time": 86.925,
                "end_time": 87.1363636,
                "pitch": 70,
                "velocity": 80,
                "duration": 0.2113636,
                "tempo": 120.0
            },
            {
                "start_time": 87.1522727,
                "end_time": 87.2681818,
                "pitch": 70,
                "velocity": 80,
                "duration": 0.1159091,
                "tempo": 120.0
            },
            {
                "start_time": 87.2840909,
                "end_time": 87.3659091,
                "pitch": 68,
                "velocity": 80,
                "duration": 0.0818182,
                "tempo": 120.0
            },
            {
                "start_time": 87.3818182,
                "end_time": 87.5,
                "pitch": 65,
                "velocity": 80,
                "duration": 0.1181818,
                "tempo": 120.0
            },
            {
                "start_time": 87.5159091,
                "end_time": 87.6,
                "pitch": 63,
                "velocity": 80,
                "duration": 0.0840909,
                "tempo": 120.0
            },
            {
                "start_time": 87.6159091,
                "end_time": 87.8340909,
                "pitch": 70,
                "velocity": 80,
                "duration": 0.2181818,
                "tempo": 120.0
            },
            {
                "start_time": 87.85,
                "end_time": 87.9681818,
                "pitch": 70,
                "velocity": 80,
                "duration": 0.1181818,
                "tempo": 120.0
            },
            {
                "start_time": 87.9840909,
                "end_time": 88.0681818,
                "pitch": 68,
                "velocity": 80,
                "duration": 0.0840909,
                "tempo": 120.0
            },
            {
                "start_time": 88.0863636,
                "end_time": 88.2022727,
                "pitch": 65,
                "velocity": 80,
                "duration": 0.1159091,
                "tempo": 120.0
            },
            {
                "start_time": 88.2204545,
                "end_time": 88.3022727,
                "pitch": 63,
                "velocity": 80,
                "duration": 0.0818182,
                "tempo": 120.0
            },
            {
                "start_time": 88.3204545,
                "end_time": 88.5318182,
                "pitch": 70,
                "velocity": 80,
                "duration": 0.2113636,
                "tempo": 120.0
            },
            {
                "start_time": 88.55,
                "end_time": 88.6636364,
                "pitch": 70,
                "velocity": 80,
                "duration": 0.1136364,
                "tempo": 120.0
            },
            {
                "start_time": 88.6795455,
                "end_time": 88.7613636,
                "pitch": 68,
                "velocity": 80,
                "duration": 0.0818182,
                "tempo": 120.0
            },
            {
                "start_time": 88.7772727,
                "end_time": 88.8954545,
                "pitch": 65,
                "velocity": 80,
                "duration": 0.1181818,
                "tempo": 120.0
            },
            {
                "start_time": 88.9113636,
                "end_time": 88.9954545,
                "pitch": 63,
                "velocity": 80,
                "duration": 0.0840909,
                "tempo": 120.0
            },
            {
                "start_time": 89.0136364,
                "end_time": 89.2295455,
                "pitch": 70,
                "velocity": 80,
                "duration": 0.2159091,
                "tempo": 120.0
            },
            {
                "start_time": 89.2477273,
                "end_time": 89.3636364,
                "pitch": 70,
                "velocity": 80,
                "duration": 0.1159091,
                "tempo": 120.0
            },
            {
                "start_time": 89.3818182,
                "end_time": 89.4659091,
                "pitch": 68,
                "velocity": 80,
                "duration": 0.0840909,
                "tempo": 120.0
            },
            {
                "start_time": 89.4818182,
                "end_time": 89.6,
                "pitch": 65,
                "velocity": 80,
                "duration": 0.1181818,
                "tempo": 120.0
            },
            {
                "start_time": 89.6159091,
                "end_time": 89.7,
                "pitch": 63,
                "velocity": 80,
                "duration": 0.0840909,
                "tempo": 120.0
            },
            {
                "start_time": 89.7159091,
                "end_time": 89.9295455,
                "pitch": 70,
                "velocity": 80,
                "duration": 0.2136364,
                "tempo": 120.0
            },
            {
                "start_time": 89.9454545,
                "end_time": 90.0590909,
                "pitch": 70,
                "velocity": 80,
                "duration": 0.1136364,
                "tempo": 120.0
            },
            {
                "start_time": 90.0772727,
                "end_time": 90.1590909,
                "pitch": 68,
                "velocity": 80,
                "duration": 0.0818182,
                "tempo": 120.0
            },
            {
                "start_time": 90.175,
                "end_time": 90.2909091,
                "pitch": 65,
                "velocity": 80,
                "duration": 0.1159091,
                "tempo": 120.0
            },
            {
                "start_time": 90.3090909,
                "end_time": 90.3931818,
                "pitch": 63,
                "velocity": 80,
                "duration": 0.0840909,
                "tempo": 120.0
            },
            {
                "start_time": 90.4090909,
                "end_time": 90.6272727,
                "pitch": 70,
                "velocity": 80,
                "duration": 0.2181818,
                "tempo": 120.0
            },
            {
                "start_time": 90.6431818,
                "end_time": 90.7613636,
                "pitch": 70,
                "velocity": 80,
                "duration": 0.1181818,
                "tempo": 120.0
            },
            {
                "start_time": 90.7772727,
                "end_time": 90.8613636,
                "pitch": 68,
                "velocity": 80,
                "duration": 0.0840909,
                "tempo": 120.0
            },
            {
                "start_time": 90.8772727,
                "end_time": 90.9954545,
                "pitch": 65,
                "velocity": 80,
                "duration": 0.1181818,
                "tempo": 120.0
            },
            {
                "start_time": 91.0113636,
                "end_time": 91.0954545,
                "pitch": 63,
                "velocity": 80,
                "duration": 0.0840909,
                "tempo": 120.0
            },
            {
                "start_time": 91.1113636,
                "end_time": 91.325,
                "pitch": 70,
                "velocity": 80,
                "duration": 0.2136364,
                "tempo": 120.0
            },
            {
                "start_time": 91.3409091,
                "end_time": 91.4568182,
                "pitch": 70,
                "velocity": 80,
                "duration": 0.1159091,
                "tempo": 120.0
            },
            {
                "start_time": 91.4727273,
                "end_time": 91.5545455,
                "pitch": 68,
                "velocity": 80,
                "duration": 0.0818182,
                "tempo": 120.0
            },
            {
                "start_time": 91.5704545,
                "end_time": 91.6886364,
                "pitch": 65,
                "velocity": 80,
                "duration": 0.1181818,
                "tempo": 120.0
            },
            {
                "start_time": 91.7045455,
                "end_time": 91.7886364,
                "pitch": 63,
                "velocity": 80,
                "duration": 0.0840909,
                "tempo": 120.0
            },
            {
                "start_time": 91.8045455,
                "end_time": 92.0227273,
                "pitch": 70,
                "velocity": 80,
                "duration": 0.2181818,
                "tempo": 120.0
            },
            {
                "start_time": 92.0386364,
                "end_time": 92.1568182,
                "pitch": 70,
                "velocity": 80,
                "duration": 0.1181818,
                "tempo": 120.0
            },
            {
                "start_time": 92.1727273,
                "end_time": 92.2568182,
                "pitch": 68,
                "velocity": 80,
                "duration": 0.0840909,
                "tempo": 120.0
            },
            {
                "start_time": 92.275,
                "end_time": 92.3909091,
                "pitch": 65,
                "velocity": 80,
                "duration": 0.1159091,
                "tempo": 120.0
            },
            {
                "start_time": 92.4090909,
                "end_time": 92.4909091,
                "pitch": 63,
                "velocity": 80,
                "duration": 0.0818182,
                "tempo": 120.0
            },
            {
                "start_time": 92.5090909,
                "end_time": 92.7204545,
                "pitch": 70,
                "velocity": 80,
                "duration": 0.2113636,
                "tempo": 120.0
            },
            {
                "start_time": 92.7386364,
                "end_time": 92.8522727,
                "pitch": 70,
                "velocity": 80,
                "duration": 0.1136364,
                "tempo": 120.0
            },
            {
                "start_time": 92.8681818,
                "end_time": 92.9659091,
                "pitch": 68,
                "velocity": 80,
                "duration": 0.0977273,
                "tempo": 120.0
            }
        ],
        "Clarinet": [
            {
                "start_time": 3.6295455,
                "end_time": 3.8431818,
                "pitch": 72,
                "velocity": 51,
                "duration": 0.2136364,
                "tempo": 120.0
            },
            {
                "start_time": 3.8590909,
                "end_time": 3.975,
                "pitch": 84,
                "velocity": 51,
                "duration": 0.1159091,
                "tempo": 120.0
            },
            {
                "start_time": 3.9909091,
                "end_time": 4.0727273,
                "pitch": 72,
                "velocity": 51,
                "duration": 0.0818182,
                "tempo": 120.0
            },
            {
                "start_time": 4.0886364,
                "end_time": 4.2068182,
                "pitch": 72,
                "velocity": 51,
                "duration": 0.1181818,
                "tempo": 120.0
            },
            {
                "start_time": 4.225,
                "end_time": 4.3090909,
                "pitch": 84,
                "velocity": 51,
                "duration": 0.0840909,
                "tempo": 120.0
            },
            {
                "start_time": 4.3272727,
                "end_time": 4.4454545,
                "pitch": 72,
                "velocity": 51,
                "duration": 0.1181818,
                "tempo": 120.0
            },
            {
                "start_time": 4.4636364,
                "end_time": 4.5477273,
                "pitch": 72,
                "velocity": 51,
                "duration": 0.0840909,
                "tempo": 120.0
            },
            {
                "start_time": 4.5659091,
                "end_time": 4.6795455,
                "pitch": 84,
                "velocity": 51,
                "duration": 0.1136364,
                "tempo": 120.0
            },
            {
                "start_time": 4.6954545,
                "end_time": 4.7772727,
                "pitch": 72,
                "velocity": 51,
                "duration": 0.0818182,
                "tempo": 120.0
            },
            {
                "start_time": 4.7931818,
                "end_time": 4.9090909,
                "pitch": 72,
                "velocity": 51,
                "duration": 0.1159091,
                "tempo": 120.0
            },
            {
                "start_time": 4.925,
                "end_time": 5.0068182,
                "pitch": 84,
                "velocity": 51,
                "duration": 0.0818182,
                "tempo": 120.0
            },
            {
                "start_time": 5.0227273,
                "end_time": 5.1409091,
                "pitch": 72,
                "velocity": 51,
                "duration": 0.1181818,
                "tempo": 120.0
            },
            {
                "start_time": 5.1568182,
                "end_time": 5.2409091,
                "pitch": 72,
                "velocity": 51,
                "duration": 0.0840909,
                "tempo": 120.0
            },
            {
                "start_time": 5.2568182,
                "end_time": 5.375,
                "pitch": 84,
                "velocity": 51,
                "duration": 0.1181818,
                "tempo": 120.0
            },
            {
                "start_time": 5.3909091,
                "end_time": 5.475,
                "pitch": 72,
                "velocity": 51,
                "duration": 0.0840909,
                "tempo": 120.0
            },
            {
                "start_time": 5.4931818,
                "end_time": 5.7136364,
                "pitch": 72,
                "velocity": 51,
                "duration": 0.2204545,
                "tempo": 120.0
            },
            {
                "start_time": 5.7318182,
                "end_time": 5.8522727,
                "pitch": 84,
                "velocity": 51,
                "duration": 0.1204545,
                "tempo": 120.0
            },
            {
                "start_time": 5.8681818,
                "end_time": 5.9545455,
                "pitch": 72,
                "velocity": 51,
                "duration": 0.0863636,
                "tempo": 120.0
            },
            {
                "start_time": 5.9727273,
                "end_time": 6.0840909,
                "pitch": 72,
                "velocity": 51,
                "duration": 0.1113636,
                "tempo": 120.0
            },
            {
                "start_time": 6.1,
                "end_time": 6.1795455,
                "pitch": 84,
                "velocity": 51,
                "duration": 0.0795455,
                "tempo": 120.0
            },
            {
                "start_time": 6.1954545,
                "end_time": 6.3068182,
                "pitch": 72,
                "velocity": 51,
                "duration": 0.1113636,
                "tempo": 120.0
            },
            {
                "start_time": 6.3227273,
                "end_time": 6.4045455,
                "pitch": 72,
                "velocity": 51,
                "duration": 0.0818182,
                "tempo": 120.0
            },
            {
                "start_time": 6.4204545,
                "end_time": 6.5363636,
                "pitch": 84,
                "velocity": 51,
                "duration": 0.1159091,
                "tempo": 120.0
            },
            {
                "start_time": 6.5545455,
                "end_time": 6.6363636,
                "pitch": 72,
                "velocity": 51,
                "duration": 0.0818182,
                "tempo": 120.0
            },
            {
                "start_time": 6.6545455,
                "end_time": 6.7704545,
                "pitch": 72,
                "velocity": 51,
                "duration": 0.1159091,
                "tempo": 120.0
            },
            {
                "start_time": 6.7886364,
                "end_time": 6.8727273,
                "pitch": 84,
                "velocity": 51,
                "duration": 0.0840909,
                "tempo": 120.0
            },
            {
                "start_time": 6.8886364,
                "end_time": 7.0068182,
                "pitch": 72,
                "velocity": 51,
                "duration": 0.1181818,
                "tempo": 120.0
            },
            {
                "start_time": 7.0227273,
                "end_time": 7.1068182,
                "pitch": 72,
                "velocity": 51,
                "duration": 0.0840909,
                "tempo": 120.0
            },
            {
                "start_time": 7.1227273,
                "end_time": 7.2409091,
                "pitch": 84,
                "velocity": 51,
                "duration": 0.1181818,
                "tempo": 120.0
            },
            {
                "start_time": 7.2568182,
                "end_time": 7.3409091,
                "pitch": 72,
                "velocity": 51,
                "duration": 0.0840909,
                "tempo": 120.0
            },
            {
                "start_time": 7.3568182,
                "end_time": 7.5704545,
                "pitch": 68,
                "velocity": 51,
                "duration": 0.2136364,
                "tempo": 120.0
            },
            {
                "start_time": 7.5863636,
                "end_time": 7.7022727,
                "pitch": 79,
                "velocity": 51,
                "duration": 0.1159091,
                "tempo": 120.0
            },
            {
                "start_time": 7.7181818,
                "end_time": 7.8,
                "pitch": 72,
                "velocity": 51,
                "duration": 0.0818182,
                "tempo": 120.0
            },
            {
                "start_time": 7.8159091,
                "end_time": 7.9340909,
                "pitch": 68,
                "velocity": 51,
                "duration": 0.1181818,
                "tempo": 120.0
            },
            {
                "start_time": 7.95,
                "end_time": 8.0340909,
                "pitch": 79,
                "velocity": 51,
                "duration": 0.0840909,
                "tempo": 120.0
            },
            {
                "start_time": 8.05,
                "end_time": 8.1681818,
                "pitch": 72,
                "velocity": 51,
                "duration": 0.1181818,
                "tempo": 120.0
            },
            {
                "start_time": 8.1840909,
                "end_time": 8.2681818,
                "pitch": 68,
                "velocity": 51,
                "duration": 0.0840909,
                "tempo": 120.0
            },
            {
                "start_time": 8.2840909,
                "end_time": 8.4022727,
                "pitch": 79,
                "velocity": 51,
                "duration": 0.1181818,
                "tempo": 120.0
            },
            {
                "start_time": 8.4181818,
                "end_time": 8.5022727,
                "pitch": 72,
                "velocity": 51,
                "duration": 0.0840909,
                "tempo": 120.0
            },
            {
                "start_time": 8.5204545,
                "end_time": 8.6363636,
                "pitch": 68,
                "velocity": 51,
                "duration": 0.1159091,
                "tempo": 120.0
            },
            {
                "start_time": 8.6545455,
                "end_time": 8.7363636,
                "pitch": 79,
                "velocity": 51,
                "duration": 0.0818182,
                "tempo": 120.0
            },
            {
                "start_time": 8.7545455,
                "end_time": 8.8681818,
                "pitch": 68,
                "velocity": 51,
                "duration": 0.1136364,
                "tempo": 120.0
            },
            {
                "start_time": 8.8840909,
                "end_time": 8.9659091,
                "pitch": 79,
                "velocity": 51,
                "duration": 0.0818182,
                "tempo": 120.0
            },
            {
                "start_time": 8.9840909,
                "end_time": 9.0977273,
                "pitch": 72,
                "velocity": 51,
                "duration": 0.1136364,
                "tempo": 120.0
            },
            {
                "start_time": 9.1136364,
                "end_time": 9.1954545,
                "pitch": 68,
                "velocity": 51,
                "duration": 0.0818182,
                "tempo": 120.0
            },
            {
                "start_time": 9.2113636,
                "end_time": 9.4295455,
                "pitch": 68,
                "velocity": 51,
                "duration": 0.2181818,
                "tempo": 120.0
            },
            {
                "start_time": 9.4454545,
                "end_time": 9.5636364,
                "pitch": 79,
                "velocity": 51,
                "duration": 0.1181818,
                "tempo": 120.0
            },
            {
                "start_time": 9.5795455,
                "end_time": 9.6636364,
                "pitch": 72,
                "velocity": 51,
                "duration": 0.0840909,
                "tempo": 120.0
            },
            {
                "start_time": 9.6818182,
                "end_time": 9.7977273,
                "pitch": 68,
                "velocity": 51,
                "duration": 0.1159091,
                "tempo": 120.0
            },
            {
                "start_time": 9.8159091,
                "end_time": 9.8977273,
                "pitch": 79,
                "velocity": 51,
                "duration": 0.0818182,
                "tempo": 120.0
            },
            {
                "start_time": 9.9159091,
                "end_time": 10.0318182,
                "pitch": 72,
                "velocity": 51,
                "duration": 0.1159091,
                "tempo": 120.0
            },
            {
                "start_time": 10.05,
                "end_time": 10.1340909,
                "pitch": 68,
                "velocity": 51,
                "duration": 0.0840909,
                "tempo": 120.0
            },
            {
                "start_time": 10.15,
                "end_time": 10.3681818,
                "pitch": 79,
                "velocity": 51,
                "duration": 0.2181818,
                "tempo": 120.0
            },
            {
                "start_time": 10.3840909,
                "end_time": 10.5022727,
                "pitch": 60,
                "velocity": 51,
                "duration": 0.1181818,
                "tempo": 120.0
            },
            {
                "start_time": 10.5181818,
                "end_time": 10.6022727,
                "pitch": 60,
                "velocity": 51,
                "duration": 0.0840909,
                "tempo": 120.0
            },
            {
                "start_time": 11.0886364,
                "end_time": 11.2954545,
                "pitch": 70,
                "velocity": 51,
                "duration": 0.2068182,
                "tempo": 120.0
            },
            {
                "start_time": 11.3113636,
                "end_time": 11.4227273,
                "pitch": 82,
                "velocity": 51,
                "duration": 0.1113636,
                "tempo": 120.0
            },
            {
                "start_time": 11.4386364,
                "end_time": 11.5204545,
                "pitch": 70,
                "velocity": 51,
                "duration": 0.0818182,
                "tempo": 120.0
            },
            {
                "start_time": 11.5363636,
                "end_time": 11.6545455,
                "pitch": 70,
                "velocity": 51,
                "duration": 0.1181818,
                "tempo": 120.0
            },
            {
                "start_time": 11.6727273,
                "end_time": 11.7590909,
                "pitch": 82,
                "velocity": 51,
                "duration": 0.0863636,
                "tempo": 120.0
            },
            {
                "start_time": 11.775,
                "end_time": 11.8954545,
                "pitch": 70,
                "velocity": 51,
                "duration": 0.1204545,
                "tempo": 120.0
            },
            {
                "start_time": 11.9136364,
                "end_time": 11.9977273,
                "pitch": 70,
                "velocity": 51,
                "duration": 0.0840909,
                "tempo": 120.0
            },
            {
                "start_time": 12.0159091,
                "end_time": 12.1295455,
                "pitch": 82,
                "velocity": 51,
                "duration": 0.1136364,
                "tempo": 120.0
            },
            {
                "start_time": 12.1454545,
                "end_time": 12.2272727,
                "pitch": 70,
                "velocity": 51,
                "duration": 0.0818182,
                "tempo": 120.0
            },
            {
                "start_time": 12.2454545,
                "end_time": 12.3590909,
                "pitch": 70,
                "velocity": 51,
                "duration": 0.1136364,
                "tempo": 120.0
            },
            {
                "start_time": 12.375,
                "end_time": 12.4568182,
                "pitch": 82,
                "velocity": 51,
                "duration": 0.0818182,
                "tempo": 120.0
            },
            {
                "start_time": 12.4727273,
                "end_time": 12.5909091,
                "pitch": 70,
                "velocity": 51,
                "duration": 0.1181818,
                "tempo": 120.0
            },
            {
                "start_time": 12.6068182,
                "end_time": 12.6909091,
                "pitch": 70,
                "velocity": 51,
                "duration": 0.0840909,
                "tempo": 120.0
            },
            {
                "start_time": 12.7090909,
                "end_time": 12.825,
                "pitch": 82,
                "velocity": 51,
                "duration": 0.1159091,
                "tempo": 120.0
            },
            {
                "start_time": 12.8431818,
                "end_time": 12.925,
                "pitch": 70,
                "velocity": 51,
                "duration": 0.0818182,
                "tempo": 120.0
            },
            {
                "start_time": 12.9431818,
                "end_time": 13.1545455,
                "pitch": 70,
                "velocity": 51,
                "duration": 0.2113636,
                "tempo": 120.0
            },
            {
                "start_time": 13.1727273,
                "end_time": 13.2863636,
                "pitch": 82,
                "velocity": 51,
                "duration": 0.1136364,
                "tempo": 120.0
            },
            {
                "start_time": 13.3022727,
                "end_time": 13.3840909,
                "pitch": 70,
                "velocity": 51,
                "duration": 0.0818182,
                "tempo": 120.0
            },
            {
                "start_time": 13.4,
                "end_time": 13.5181818,
                "pitch": 70,
                "velocity": 51,
                "duration": 0.1181818,
                "tempo": 120.0
            },
            {
                "start_time": 13.5340909,
                "end_time": 13.6181818,
                "pitch": 82,
                "velocity": 51,
                "duration": 0.0840909,
                "tempo": 120.0
            },
            {
                "start_time": 13.6363636,
                "end_time": 13.7522727,
                "pitch": 70,
                "velocity": 51,
                "duration": 0.1159091,
                "tempo": 120.0
            },
            {
                "start_time": 13.7704545,
                "end_time": 13.8522727,
                "pitch": 70,
                "velocity": 51,
                "duration": 0.0818182,
                "tempo": 120.0
            },
            {
                "start_time": 13.8704545,
                "end_time": 13.9863636,
                "pitch": 82,
                "velocity": 51,
                "duration": 0.1159091,
                "tempo": 120.0
            },
            {
                "start_time": 14.0045455,
                "end_time": 14.0886364,
                "pitch": 70,
                "velocity": 51,
                "duration": 0.0840909,
                "tempo": 120.0
            },
            {
                "start_time": 14.1045455,
                "end_time": 14.2227273,
                "pitch": 70,
                "velocity": 51,
                "duration": 0.1181818,
                "tempo": 120.0
            },
            {
                "start_time": 14.2386364,
                "end_time": 14.3227273,
                "pitch": 82,
                "velocity": 51,
                "duration": 0.0840909,
                "tempo": 120.0
            },
            {
                "start_time": 14.3386364,
                "end_time": 14.4545455,
                "pitch": 70,
                "velocity": 51,
                "duration": 0.1159091,
                "tempo": 120.0
            },
            {
                "start_time": 14.4704545,
                "end_time": 14.5522727,
                "pitch": 70,
                "velocity": 51,
                "duration": 0.0818182,
                "tempo": 120.0
            },
            {
                "start_time": 14.5681818,
                "end_time": 14.6818182,
                "pitch": 82,
                "velocity": 51,
                "duration": 0.1136364,
                "tempo": 120.0
            },
            {
                "start_time": 14.7,
                "end_time": 14.7818182,
                "pitch": 70,
                "velocity": 51,
                "duration": 0.0818182,
                "tempo": 120.0
            },
            {
                "start_time": 14.7977273,
                "end_time": 15.0159091,
                "pitch": 67,
                "velocity": 51,
                "duration": 0.2181818,
                "tempo": 120.0
            },
            {
                "start_time": 15.0318182,
                "end_time": 15.1477273,
                "pitch": 74,
                "velocity": 51,
                "duration": 0.1159091,
                "tempo": 120.0
            },
            {
                "start_time": 15.1659091,
                "end_time": 15.25,
                "pitch": 70,
                "velocity": 51,
                "duration": 0.0840909,
                "tempo": 120.0
            },
            {
                "start_time": 15.2659091,
                "end_time": 15.3840909,
                "pitch": 67,
                "velocity": 51,
                "duration": 0.1181818,
                "tempo": 120.0
            },
            {
                "start_time": 15.4,
                "end_time": 15.4840909,
                "pitch": 74,
                "velocity": 51,
                "duration": 0.0840909,
                "tempo": 120.0
            },
            {
                "start_time": 15.5,
                "end_time": 15.6181818,
                "pitch": 70,
                "velocity": 51,
                "duration": 0.1181818,
                "tempo": 120.0
            },
            {
                "start_time": 15.6340909,
                "end_time": 15.7181818,
                "pitch": 67,
                "velocity": 51,
                "duration": 0.0840909,
                "tempo": 120.0
            },
            {
                "start_time": 15.7340909,
                "end_time": 15.85,
                "pitch": 74,
                "velocity": 51,
                "duration": 0.1159091,
                "tempo": 120.0
            },
            {
                "start_time": 15.8659091,
                "end_time": 15.9477273,
                "pitch": 70,
                "velocity": 51,
                "duration": 0.0818182,
                "tempo": 120.0
            },
            {
                "start_time": 15.9636364,
                "end_time": 16.0795455,
                "pitch": 67,
                "velocity": 51,
                "duration": 0.1159091,
                "tempo": 120.0
            },
            {
                "start_time": 16.0954545,
                "end_time": 16.1772727,
                "pitch": 74,
                "velocity": 51,
                "duration": 0.0818182,
                "tempo": 120.0
            },
            {
                "start_time": 16.1931818,
                "end_time": 16.3113636,
                "pitch": 67,
                "velocity": 51,
                "duration": 0.1181818,
                "tempo": 120.0
            },
            {
                "start_time": 16.3272727,
                "end_time": 16.4113636,
                "pitch": 74,
                "velocity": 51,
                "duration": 0.0840909,
                "tempo": 120.0
            },
            {
                "start_time": 16.4272727,
                "end_time": 16.5454545,
                "pitch": 70,
                "velocity": 51,
                "duration": 0.1181818,
                "tempo": 120.0
            },
            {
                "start_time": 16.5613636,
                "end_time": 16.6454545,
                "pitch": 67,
                "velocity": 51,
                "duration": 0.0840909,
                "tempo": 120.0
            },
            {
                "start_time": 16.6613636,
                "end_time": 16.8795455,
                "pitch": 67,
                "velocity": 51,
                "duration": 0.2181818,
                "tempo": 120.0
            },
            {
                "start_time": 16.8977273,
                "end_time": 17.0136364,
                "pitch": 74,
                "velocity": 51,
                "duration": 0.1159091,
                "tempo": 120.0
            },
            {
                "start_time": 17.0318182,
                "end_time": 17.1136364,
                "pitch": 70,
                "velocity": 51,
                "duration": 0.0818182,
                "tempo": 120.0
            },
            {
                "start_time": 17.1318182,
                "end_time": 17.2477273,
                "pitch": 67,
                "velocity": 51,
                "duration": 0.1159091,
                "tempo": 120.0
            },
            {
                "start_time": 17.2659091,
                "end_time": 17.35,
                "pitch": 74,
                "velocity": 51,
                "duration": 0.0840909,
                "tempo": 120.0
            },
            {
                "start_time": 17.3659091,
                "end_time": 17.4840909,
                "pitch": 70,
                "velocity": 51,
                "duration": 0.1181818,
                "tempo": 120.0
            },
            {
                "start_time": 17.5,
                "end_time": 17.5840909,
                "pitch": 67,
                "velocity": 51,
                "duration": 0.0840909,
                "tempo": 120.0
            },
            {
                "start_time": 17.6,
                "end_time": 17.7159091,
                "pitch": 74,
                "velocity": 51,
                "duration": 0.1159091,
                "tempo": 120.0
            },
            {
                "start_time": 17.7318182,
                "end_time": 17.8136364,
                "pitch": 70,
                "velocity": 51,
                "duration": 0.0818182,
                "tempo": 120.0
            },
            {
                "start_time": 17.8295455,
                "end_time": 17.9431818,
                "pitch": 67,
                "velocity": 51,
                "duration": 0.1136364,
                "tempo": 120.0
            },
            {
                "start_time": 17.9613636,
                "end_time": 18.0431818,
                "pitch": 74,
                "velocity": 51,
                "duration": 0.0818182,
                "tempo": 120.0
            },
            {
                "start_time": 18.0590909,
                "end_time": 18.175,
                "pitch": 67,
                "velocity": 51,
                "duration": 0.1159091,
                "tempo": 120.0
            },
            {
                "start_time": 18.1931818,
                "end_time": 18.2772727,
                "pitch": 74,
                "velocity": 51,
                "duration": 0.0840909,
                "tempo": 120.0
            },
            {
                "start_time": 18.2931818,
                "end_time": 18.4090909,
                "pitch": 70,
                "velocity": 51,
                "duration": 0.1159091,
                "tempo": 120.0
            },
            {
                "start_time": 18.4272727,
                "end_time": 18.5113636,
                "pitch": 67,
                "velocity": 51,
                "duration": 0.0840909,
                "tempo": 120.0
            },
            {
                "start_time": 18.5272727,
                "end_time": 18.7409091,
                "pitch": 70,
                "velocity": 51,
                "duration": 0.2136364,
                "tempo": 120.0
            },
            {
                "start_time": 18.7568182,
                "end_time": 18.8704545,
                "pitch": 82,
                "velocity": 51,
                "duration": 0.1136364,
                "tempo": 120.0
            },
            {
                "start_time": 18.8863636,
                "end_time": 18.9681818,
                "pitch": 70,
                "velocity": 51,
                "duration": 0.0818182,
                "tempo": 120.0
            },
            {
                "start_time": 18.9863636,
                "end_time": 19.1022727,
                "pitch": 70,
                "velocity": 51,
                "duration": 0.1159091,
                "tempo": 120.0
            },
            {
                "start_time": 19.1204545,
                "end_time": 19.2022727,
                "pitch": 82,
                "velocity": 51,
                "duration": 0.0818182,
                "tempo": 120.0
            },
            {
                "start_time": 19.2204545,
                "end_time": 19.3363636,
                "pitch": 70,
                "velocity": 51,
                "duration": 0.1159091,
                "tempo": 120.0
            },
            {
                "start_time": 19.3545455,
                "end_time": 19.4386364,
                "pitch": 70,
                "velocity": 51,
                "duration": 0.0840909,
                "tempo": 120.0
            },
            {
                "start_time": 19.4545455,
                "end_time": 19.5727273,
                "pitch": 82,
                "velocity": 51,
                "duration": 0.1181818,
                "tempo": 120.0
            },
            {
                "start_time": 19.5909091,
                "end_time": 19.675,
                "pitch": 70,
                "velocity": 51,
                "duration": 0.0840909,
                "tempo": 120.0
            },
            {
                "start_time": 19.6931818,
                "end_time": 19.8113636,
                "pitch": 70,
                "velocity": 51,
                "duration": 0.1181818,
                "tempo": 120.0
            },
            {
                "start_time": 19.8295455,
                "end_time": 19.9136364,
                "pitch": 82,
                "velocity": 51,
                "duration": 0.0840909,
                "tempo": 120.0
            },
            {
                "start_time": 19.9318182,
                "end_time": 20.0454545,
                "pitch": 70,
                "velocity": 51,
                "duration": 0.1136364,
                "tempo": 120.0
            },
            {
                "start_time": 20.0613636,
                "end_time": 20.1431818,
                "pitch": 70,
                "velocity": 51,
                "duration": 0.0818182,
                "tempo": 120.0
            },
            {
                "start_time": 20.1613636,
                "end_time": 20.275,
                "pitch": 82,
                "velocity": 51,
                "duration": 0.1136364,
                "tempo": 120.0
            },
            {
                "start_time": 20.2909091,
                "end_time": 20.3727273,
                "pitch": 70,
                "velocity": 51,
                "duration": 0.0818182,
                "tempo": 120.0
            },
            {
                "start_time": 20.3886364,
                "end_time": 20.6022727,
                "pitch": 70,
                "velocity": 51,
                "duration": 0.2136364,
                "tempo": 120.0
            },
            {
                "start_time": 20.6181818,
                "end_time": 20.7340909,
                "pitch": 82,
                "velocity": 51,
                "duration": 0.1159091,
                "tempo": 120.0
            },
            {
                "start_time": 20.75,
                "end_time": 20.8318182,
                "pitch": 70,
                "velocity": 51,
                "duration": 0.0818182,
                "tempo": 120.0
            },
            {
                "start_time": 20.8477273,
                "end_time": 20.9636364,
                "pitch": 70,
                "velocity": 51,
                "duration": 0.1159091,
                "tempo": 120.0
            },
            {
                "start_time": 20.9818182,
                "end_time": 21.0659091,
                "pitch": 82,
                "velocity": 51,
                "duration": 0.0840909,
                "tempo": 120.0
            },
            {
                "start_time": 21.0818182,
                "end_time": 21.2,
                "pitch": 70,
                "velocity": 51,
                "duration": 0.1181818,
                "tempo": 120.0
            },
            {
                "start_time": 21.2159091,
                "end_time": 21.3,
                "pitch": 70,
                "velocity": 51,
                "duration": 0.0840909,
                "tempo": 120.0
            },
            {
                "start_time": 21.3159091,
                "end_time": 21.4340909,
                "pitch": 82,
                "velocity": 51,
                "duration": 0.1181818,
                "tempo": 120.0
            },
            {
                "start_time": 21.45,
                "end_time": 21.5340909,
                "pitch": 70,
                "velocity": 51,
                "duration": 0.0840909,
                "tempo": 120.0
            },
            {
                "start_time": 21.55,
                "end_time": 21.6681818,
                "pitch": 70,
                "velocity": 51,
                "duration": 0.1181818,
                "tempo": 120.0
            },
            {
                "start_time": 21.6840909,
                "end_time": 21.7681818,
                "pitch": 82,
                "velocity": 51,
                "duration": 0.0840909,
                "tempo": 120.0
            },
            {
                "start_time": 21.7863636,
                "end_time": 21.9,
                "pitch": 70,
                "velocity": 51,
                "duration": 0.1136364,
                "tempo": 120.0
            },
            {
                "start_time": 21.9159091,
                "end_time": 21.9977273,
                "pitch": 70,
                "velocity": 51,
                "duration": 0.0818182,
                "tempo": 120.0
            },
            {
                "start_time": 22.0136364,
                "end_time": 22.1295455,
                "pitch": 82,
                "velocity": 51,
                "duration": 0.1159091,
                "tempo": 120.0
            },
            {
                "start_time": 22.1454545,
                "end_time": 22.2272727,
                "pitch": 70,
                "velocity": 51,
                "duration": 0.0818182,
                "tempo": 120.0
            },
            {
                "start_time": 22.2431818,
                "end_time": 22.4613636,
                "pitch": 67,
                "velocity": 51,
                "duration": 0.2181818,
                "tempo": 120.0
            },
            {
                "start_time": 22.4772727,
                "end_time": 22.5954545,
                "pitch": 74,
                "velocity": 51,
                "duration": 0.1181818,
                "tempo": 120.0
            },
            {
                "start_time": 22.6113636,
                "end_time": 22.6954545,
                "pitch": 70,
                "velocity": 51,
                "duration": 0.0840909,
                "tempo": 120.0
            },
            {
                "start_time": 22.7136364,
                "end_time": 22.8272727,
                "pitch": 67,
                "velocity": 51,
                "duration": 0.1136364,
                "tempo": 120.0
            },
            {
                "start_time": 22.8431818,
                "end_time": 22.925,
                "pitch": 74,
                "velocity": 51,
                "duration": 0.0818182,
                "tempo": 120.0
            },
            {
                "start_time": 22.9409091,
                "end_time": 23.0568182,
                "pitch": 70,
                "velocity": 51,
                "duration": 0.1159091,
                "tempo": 120.0
            },
            {
                "start_time": 23.0727273,
                "end_time": 23.1545455,
                "pitch": 67,
                "velocity": 51,
                "duration": 0.0818182,
                "tempo": 120.0
            },
            {
                "start_time": 23.1704545,
                "end_time": 23.2909091,
                "pitch": 74,
                "velocity": 51,
                "duration": 0.1204545,
                "tempo": 120.0
            },
            {
                "start_time": 23.3068182,
                "end_time": 23.3931818,
                "pitch": 70,
                "velocity": 51,
                "duration": 0.0863636,
                "tempo": 120.0
            },
            {
                "start_time": 23.4113636,
                "end_time": 23.5295455,
                "pitch": 67,
                "velocity": 51,
                "duration": 0.1181818,
                "tempo": 120.0
            },
            {
                "start_time": 23.5477273,
                "end_time": 23.6340909,
                "pitch": 74,
                "velocity": 51,
                "duration": 0.0863636,
                "tempo": 120.0
            },
            {
                "start_time": 23.65,
                "end_time": 23.7659091,
                "pitch": 67,
                "velocity": 51,
                "duration": 0.1159091,
                "tempo": 120.0
            },
            {
                "start_time": 23.7818182,
                "end_time": 23.8636364,
                "pitch": 74,
                "velocity": 51,
                "duration": 0.0818182,
                "tempo": 120.0
            },
            {
                "start_time": 23.8795455,
                "end_time": 23.9954545,
                "pitch": 70,
                "velocity": 51,
                "duration": 0.1159091,
                "tempo": 120.0
            },
            {
                "start_time": 24.0113636,
                "end_time": 24.0931818,
                "pitch": 67,
                "velocity": 51,
                "duration": 0.0818182,
                "tempo": 120.0
            },
            {
                "start_time": 24.1090909,
                "end_time": 24.3227273,
                "pitch": 67,
                "velocity": 51,
                "duration": 0.2136364,
                "tempo": 120.0
            },
            {
                "start_time": 24.3386364,
                "end_time": 24.4522727,
                "pitch": 74,
                "velocity": 51,
                "duration": 0.1136364,
                "tempo": 120.0
            },
            {
                "start_time": 24.4681818,
                "end_time": 24.55,
                "pitch": 70,
                "velocity": 51,
                "duration": 0.0818182,
                "tempo": 120.0
            },
            {
                "start_time": 24.5681818,
                "end_time": 24.6840909,
                "pitch": 67,
                "velocity": 51,
                "duration": 0.1159091,
                "tempo": 120.0
            },
            {
                "start_time": 24.7022727,
                "end_time": 24.7840909,
                "pitch": 74,
                "velocity": 51,
                "duration": 0.0818182,
                "tempo": 120.0
            },
            {
                "start_time": 24.8022727,
                "end_time": 24.9181818,
                "pitch": 70,
                "velocity": 51,
                "duration": 0.1159091,
                "tempo": 120.0
            },
            {
                "start_time": 24.9363636,
                "end_time": 25.0204545,
                "pitch": 67,
                "velocity": 51,
                "duration": 0.0840909,
                "tempo": 120.0
            },
            {
                "start_time": 25.0363636,
                "end_time": 25.1568182,
                "pitch": 74,
                "velocity": 51,
                "duration": 0.1204545,
                "tempo": 120.0
            },
            {
                "start_time": 25.1727273,
                "end_time": 25.2590909,
                "pitch": 70,
                "velocity": 51,
                "duration": 0.0863636,
                "tempo": 120.0
            },
            {
                "start_time": 25.275,
                "end_time": 25.3954545,
                "pitch": 67,
                "velocity": 51,
                "duration": 0.1204545,
                "tempo": 120.0
            },
            {
                "start_time": 25.4136364,
                "end_time": 25.5,
                "pitch": 74,
                "velocity": 51,
                "duration": 0.0863636,
                "tempo": 120.0
            },
            {
                "start_time": 25.5159091,
                "end_time": 25.6318182,
                "pitch": 67,
                "velocity": 51,
                "duration": 0.1159091,
                "tempo": 120.0
            },
            {
                "start_time": 25.6477273,
                "end_time": 25.7295455,
                "pitch": 74,
                "velocity": 51,
                "duration": 0.0818182,
                "tempo": 120.0
            },
            {
                "start_time": 25.7454545,
                "end_time": 25.8613636,
                "pitch": 70,
                "velocity": 51,
                "duration": 0.1159091,
                "tempo": 120.0
            },
            {
                "start_time": 25.8772727,
                "end_time": 25.9590909,
                "pitch": 67,
                "velocity": 51,
                "duration": 0.0818182,
                "tempo": 120.0
            },
            {
                "start_time": 25.975,
                "end_time": 26.1886364,
                "pitch": 72,
                "velocity": 51,
                "duration": 0.2136364,
                "tempo": 120.0
            },
            {
                "start_time": 26.2045455,
                "end_time": 26.3181818,
                "pitch": 84,
                "velocity": 51,
                "duration": 0.1136364,
                "tempo": 120.0
            },
            {
                "start_time": 26.3340909,
                "end_time": 26.4159091,
                "pitch": 72,
                "velocity": 51,
                "duration": 0.0818182,
                "tempo": 120.0
            },
            {
                "start_time": 26.4340909,
                "end_time": 26.55,
                "pitch": 72,
                "velocity": 51,
                "duration": 0.1159091,
                "tempo": 120.0
            },
            {
                "start_time": 26.5659091,
                "end_time": 26.65,
                "pitch": 84,
                "velocity": 51,
                "duration": 0.0840909,
                "tempo": 120.0
            },
            {
                "start_time": 26.6681818,
                "end_time": 26.7840909,
                "pitch": 72,
                "velocity": 51,
                "duration": 0.1159091,
                "tempo": 120.0
            },
            {
                "start_time": 26.8022727,
                "end_time": 26.8840909,
                "pitch": 72,
                "velocity": 51,
                "duration": 0.0818182,
                "tempo": 120.0
            },
            {
                "start_time": 26.9022727,
                "end_time": 27.0159091,
                "pitch": 84,
                "velocity": 51,
                "duration": 0.1136364,
                "tempo": 120.0
            },
            {
                "start_time": 27.0318182,
                "end_time": 27.1136364,
                "pitch": 72,
                "velocity": 51,
                "duration": 0.0818182,
                "tempo": 120.0
            },
            {
                "start_time": 27.1318182,
                "end_time": 27.2454545,
                "pitch": 72,
                "velocity": 51,
                "duration": 0.1136364,
                "tempo": 120.0
            },
            {
                "start_time": 27.2613636,
                "end_time": 27.3431818,
                "pitch": 84,
                "velocity": 51,
                "duration": 0.0818182,
                "tempo": 120.0
            },
            {
                "start_time": 27.3590909,
                "end_time": 27.4772727,
                "pitch": 72,
                "velocity": 51,
                "duration": 0.1181818,
                "tempo": 120.0
            },
            {
                "start_time": 27.4931818,
                "end_time": 27.5772727,
                "pitch": 72,
                "velocity": 51,
                "duration": 0.0840909,
                "tempo": 120.0
            },
            {
                "start_time": 27.5954545,
                "end_time": 27.7113636,
                "pitch": 84,
                "velocity": 51,
                "duration": 0.1159091,
                "tempo": 120.0
            },
            {
                "start_time": 27.7295455,
                "end_time": 27.8113636,
                "pitch": 72,
                "velocity": 51,
                "duration": 0.0818182,
                "tempo": 120.0
            },
            {
                "start_time": 27.8295455,
                "end_time": 28.0522727,
                "pitch": 72,
                "velocity": 51,
                "duration": 0.2227273,
                "tempo": 120.0
            },
            {
                "start_time": 28.0681818,
                "end_time": 28.1886364,
                "pitch": 84,
                "velocity": 51,
                "duration": 0.1204545,
                "tempo": 120.0
            },
            {
                "start_time": 28.2068182,
                "end_time": 28.2909091,
                "pitch": 72,
                "velocity": 51,
                "duration": 0.0840909,
                "tempo": 120.0
            },
            {
                "start_time": 28.3090909,
                "end_time": 28.4204545,
                "pitch": 72,
                "velocity": 51,
                "duration": 0.1113636,
                "tempo": 120.0
            },
            {
                "start_time": 28.4363636,
                "end_time": 28.5159091,
                "pitch": 84,
                "velocity": 51,
                "duration": 0.0795455,
                "tempo": 120.0
            },
            {
                "start_time": 28.5318182,
                "end_time": 28.6454545,
                "pitch": 72,
                "velocity": 51,
                "duration": 0.1136364,
                "tempo": 120.0
            },
            {
                "start_time": 28.6613636,
                "end_time": 28.7409091,
                "pitch": 72,
                "velocity": 51,
                "duration": 0.0795455,
                "tempo": 120.0
            },
            {
                "start_time": 28.7568182,
                "end_time": 28.875,
                "pitch": 84,
                "velocity": 51,
                "duration": 0.1181818,
                "tempo": 120.0
            },
            {
                "start_time": 28.8909091,
                "end_time": 28.975,
                "pitch": 72,
                "velocity": 51,
                "duration": 0.0840909,
                "tempo": 120.0
            },
            {
                "start_time": 28.9909091,
                "end_time": 29.1090909,
                "pitch": 72,
                "velocity": 51,
                "duration": 0.1181818,
                "tempo": 120.0
            },
            {
                "start_time": 29.125,
                "end_time": 29.2090909,
                "pitch": 84,
                "velocity": 51,
                "duration": 0.0840909,
                "tempo": 120.0
            },
            {
                "start_time": 29.225,
                "end_time": 29.3431818,
                "pitch": 72,
                "velocity": 51,
                "duration": 0.1181818,
                "tempo": 120.0
            },
            {
                "start_time": 29.3590909,
                "end_time": 29.4431818,
                "pitch": 72,
                "velocity": 51,
                "duration": 0.0840909,
                "tempo": 120.0
            },
            {
                "start_time": 29.4613636,
                "end_time": 29.5772727,
                "pitch": 84,
                "velocity": 51,
                "duration": 0.1159091,
                "tempo": 120.0
            },
            {
                "start_time": 29.5954545,
                "end_time": 29.6772727,
                "pitch": 72,
                "velocity": 51,
                "duration": 0.0818182,
                "tempo": 120.0
            },
            {
                "start_time": 29.6954545,
                "end_time": 29.9068182,
                "pitch": 68,
                "velocity": 51,
                "duration": 0.2113636,
                "tempo": 120.0
            },
            {
                "start_time": 29.9227273,
                "end_time": 30.0386364,
                "pitch": 79,
                "velocity": 51,
                "duration": 0.1159091,
                "tempo": 120.0
            },
            {
                "start_time": 30.0545455,
                "end_time": 30.1363636,
                "pitch": 72,
                "velocity": 51,
                "duration": 0.0818182,
                "tempo": 120.0
            },
            {
                "start_time": 30.1522727,
                "end_time": 30.2704545,
                "pitch": 68,
                "velocity": 51,
                "duration": 0.1181818,
                "tempo": 120.0
            },
            {
                "start_time": 30.2863636,
                "end_time": 30.3704545,
                "pitch": 79,
                "velocity": 51,
                "duration": 0.0840909,
                "tempo": 120.0
            },
            {
                "start_time": 30.3863636,
                "end_time": 30.5045455,
                "pitch": 72,
                "velocity": 51,
                "duration": 0.1181818,
                "tempo": 120.0
            },
            {
                "start_time": 30.5204545,
                "end_time": 30.6045455,
                "pitch": 68,
                "velocity": 51,
                "duration": 0.0840909,
                "tempo": 120.0
            },
            {
                "start_time": 30.6227273,
                "end_time": 30.7386364,
                "pitch": 79,
                "velocity": 51,
                "duration": 0.1159091,
                "tempo": 120.0
            },
            {
                "start_time": 30.7568182,
                "end_time": 30.8386364,
                "pitch": 72,
                "velocity": 51,
                "duration": 0.0818182,
                "tempo": 120.0
            },
            {
                "start_time": 30.8568182,
                "end_time": 30.9727273,
                "pitch": 68,
                "velocity": 51,
                "duration": 0.1159091,
                "tempo": 120.0
            },
            {
                "start_time": 30.9909091,
                "end_time": 31.075,
                "pitch": 79,
                "velocity": 51,
                "duration": 0.0840909,
                "tempo": 120.0
            },
            {
                "start_time": 31.0909091,
                "end_time": 31.2090909,
                "pitch": 68,
                "velocity": 51,
                "duration": 0.1181818,
                "tempo": 120.0
            },
            {
                "start_time": 31.225,
                "end_time": 31.3090909,
                "pitch": 79,
                "velocity": 51,
                "duration": 0.0840909,
                "tempo": 120.0
            },
            {
                "start_time": 31.325,
                "end_time": 31.4431818,
                "pitch": 72,
                "velocity": 51,
                "duration": 0.1181818,
                "tempo": 120.0
            },
            {
                "start_time": 31.4590909,
                "end_time": 31.5431818,
                "pitch": 68,
                "velocity": 51,
                "duration": 0.0840909,
                "tempo": 120.0
            },
            {
                "start_time": 31.5590909,
                "end_time": 31.7772727,
                "pitch": 68,
                "velocity": 51,
                "duration": 0.2181818,
                "tempo": 120.0
            },
            {
                "start_time": 31.7954545,
                "end_time": 31.9113636,
                "pitch": 79,
                "velocity": 51,
                "duration": 0.1159091,
                "tempo": 120.0
            },
            {
                "start_time": 31.9295455,
                "end_time": 32.0113636,
                "pitch": 72,
                "velocity": 51,
                "duration": 0.0818182,
                "tempo": 120.0
            },
            {
                "start_time": 32.0295455,
                "end_time": 32.1431818,
                "pitch": 68,
                "velocity": 51,
                "duration": 0.1136364,
                "tempo": 120.0
            },
            {
                "start_time": 32.1590909,
                "end_time": 32.2409091,
                "pitch": 79,
                "velocity": 51,
                "duration": 0.0818182,
                "tempo": 120.0
            },
            {
                "start_time": 32.2590909,
                "end_time": 32.3727273,
                "pitch": 72,
                "velocity": 51,
                "duration": 0.1136364,
                "tempo": 120.0
            },
            {
                "start_time": 32.3886364,
                "end_time": 32.4704545,
                "pitch": 68,
                "velocity": 51,
                "duration": 0.0818182,
                "tempo": 120.0
            },
            {
                "start_time": 32.4863636,
                "end_time": 32.6022727,
                "pitch": 79,
                "velocity": 51,
                "duration": 0.1159091,
                "tempo": 120.0
            },
            {
                "start_time": 32.6181818,
                "end_time": 32.7,
                "pitch": 72,
                "velocity": 51,
                "duration": 0.0818182,
                "tempo": 120.0
            },
            {
                "start_time": 32.7159091,
                "end_time": 32.8318182,
                "pitch": 68,
                "velocity": 51,
                "duration": 0.1159091,
                "tempo": 120.0
            },
            {
                "start_time": 32.8477273,
                "end_time": 32.9295455,
                "pitch": 79,
                "velocity": 51,
                "duration": 0.0818182,
                "tempo": 120.0
            },
            {
                "start_time": 32.9454545,
                "end_time": 33.0636364,
                "pitch": 72,
                "velocity": 51,
                "duration": 0.1181818,
                "tempo": 120.0
            },
            {
                "start_time": 33.0795455,
                "end_time": 33.1636364,
                "pitch": 68,
                "velocity": 51,
                "duration": 0.0840909,
                "tempo": 120.0
            },
            {
                "start_time": 33.1795455,
                "end_time": 33.2977273,
                "pitch": 79,
                "velocity": 51,
                "duration": 0.1181818,
                "tempo": 120.0
            },
            {
                "start_time": 33.3136364,
                "end_time": 33.3977273,
                "pitch": 72,
                "velocity": 51,
                "duration": 0.0840909,
                "tempo": 120.0
            },
            {
                "start_time": 33.4136364,
                "end_time": 33.6272727,
                "pitch": 70,
                "velocity": 51,
                "duration": 0.2136364,
                "tempo": 120.0
            },
            {
                "start_time": 33.6431818,
                "end_time": 33.7590909,
                "pitch": 82,
                "velocity": 51,
                "duration": 0.1159091,
                "tempo": 120.0
            },
            {
                "start_time": 33.775,
                "end_time": 33.8568182,
                "pitch": 70,
                "velocity": 51,
                "duration": 0.0818182,
                "tempo": 120.0
            },
            {
                "start_time": 33.8727273,
                "end_time": 33.9909091,
                "pitch": 70,
                "velocity": 51,
                "duration": 0.1181818,
                "tempo": 120.0
            },
            {
                "start_time": 34.0090909,
                "end_time": 34.0931818,
                "pitch": 82,
                "velocity": 51,
                "duration": 0.0840909,
                "tempo": 120.0
            },
            {
                "start_time": 34.1113636,
                "end_time": 34.2295455,
                "pitch": 70,
                "velocity": 51,
                "duration": 0.1181818,
                "tempo": 120.0
            },
            {
                "start_time": 34.2477273,
                "end_time": 34.3318182,
                "pitch": 70,
                "velocity": 51,
                "duration": 0.0840909,
                "tempo": 120.0
            },
            {
                "start_time": 34.3477273,
                "end_time": 34.4636364,
                "pitch": 82,
                "velocity": 51,
                "duration": 0.1159091,
                "tempo": 120.0
            },
            {
                "start_time": 34.4795455,
                "end_time": 34.5613636,
                "pitch": 70,
                "velocity": 51,
                "duration": 0.0818182,
                "tempo": 120.0
            },
            {
                "start_time": 34.5772727,
                "end_time": 34.6931818,
                "pitch": 70,
                "velocity": 51,
                "duration": 0.1159091,
                "tempo": 120.0
            },
            {
                "start_time": 34.7090909,
                "end_time": 34.7909091,
                "pitch": 82,
                "velocity": 51,
                "duration": 0.0818182,
                "tempo": 120.0
            },
            {
                "start_time": 34.8068182,
                "end_time": 34.925,
                "pitch": 70,
                "velocity": 51,
                "duration": 0.1181818,
                "tempo": 120.0
            },
            {
                "start_time": 34.9409091,
                "end_time": 35.025,
                "pitch": 70,
                "velocity": 51,
                "duration": 0.0840909,
                "tempo": 120.0
            },
            {
                "start_time": 35.0409091,
                "end_time": 35.1590909,
                "pitch": 82,
                "velocity": 51,
                "duration": 0.1181818,
                "tempo": 120.0
            },
            {
                "start_time": 35.175,
                "end_time": 35.2590909,
                "pitch": 70,
                "velocity": 51,
                "duration": 0.0840909,
                "tempo": 120.0
            },
            {
                "start_time": 35.275,
                "end_time": 35.4886364,
                "pitch": 70,
                "velocity": 51,
                "duration": 0.2136364,
                "tempo": 120.0
            },
            {
                "start_time": 35.5045455,
                "end_time": 35.6204545,
                "pitch": 82,
                "velocity": 51,
                "duration": 0.1159091,
                "tempo": 120.0
            },
            {
                "start_time": 35.6363636,
                "end_time": 35.7181818,
                "pitch": 70,
                "velocity": 51,
                "duration": 0.0818182,
                "tempo": 120.0
            },
            {
                "start_time": 35.7340909,
                "end_time": 35.8522727,
                "pitch": 70,
                "velocity": 51,
                "duration": 0.1181818,
                "tempo": 120.0
            },
            {
                "start_time": 35.8681818,
                "end_time": 35.9522727,
                "pitch": 82,
                "velocity": 51,
                "duration": 0.0840909,
                "tempo": 120.0
            },
            {
                "start_time": 35.9681818,
                "end_time": 36.0863636,
                "pitch": 70,
                "velocity": 51,
                "duration": 0.1181818,
                "tempo": 120.0
            },
            {
                "start_time": 36.1022727,
                "end_time": 36.1863636,
                "pitch": 70,
                "velocity": 51,
                "duration": 0.0840909,
                "tempo": 120.0
            },
            {
                "start_time": 36.2022727,
                "end_time": 36.3204545,
                "pitch": 82,
                "velocity": 51,
                "duration": 0.1181818,
                "tempo": 120.0
            },
            {
                "start_time": 36.3363636,
                "end_time": 36.4204545,
                "pitch": 70,
                "velocity": 51,
                "duration": 0.0840909,
                "tempo": 120.0
            },
            {
                "start_time": 36.4386364,
                "end_time": 36.5545455,
                "pitch": 70,
                "velocity": 51,
                "duration": 0.1159091,
                "tempo": 120.0
            },
            {
                "start_time": 36.5727273,
                "end_time": 36.6545455,
                "pitch": 82,
                "velocity": 51,
                "duration": 0.0818182,
                "tempo": 120.0
            },
            {
                "start_time": 36.6727273,
                "end_time": 36.7863636,
                "pitch": 70,
                "velocity": 51,
                "duration": 0.1136364,
                "tempo": 120.0
            },
            {
                "start_time": 36.8022727,
                "end_time": 36.8840909,
                "pitch": 70,
                "velocity": 51,
                "duration": 0.0818182,
                "tempo": 120.0
            },
            {
                "start_time": 36.9022727,
                "end_time": 37.0159091,
                "pitch": 82,
                "velocity": 51,
                "duration": 0.1136364,
                "tempo": 120.0
            },
            {
                "start_time": 37.0318182,
                "end_time": 37.1136364,
                "pitch": 70,
                "velocity": 51,
                "duration": 0.0818182,
                "tempo": 120.0
            },
            {
                "start_time": 37.1295455,
                "end_time": 37.3477273,
                "pitch": 67,
                "velocity": 51,
                "duration": 0.2181818,
                "tempo": 120.0
            },
            {
                "start_time": 37.3659091,
                "end_time": 37.4818182,
                "pitch": 74,
                "velocity": 51,
                "duration": 0.1159091,
                "tempo": 120.0
            },
            {
                "start_time": 37.4977273,
                "end_time": 37.5818182,
                "pitch": 70,
                "velocity": 51,
                "duration": 0.0840909,
                "tempo": 120.0
            },
            {
                "start_time": 37.6,
                "end_time": 37.7159091,
                "pitch": 67,
                "velocity": 51,
                "duration": 0.1159091,
                "tempo": 120.0
            },
            {
                "start_time": 37.7340909,
                "end_time": 37.8181818,
                "pitch": 74,
                "velocity": 51,
                "duration": 0.0840909,
                "tempo": 120.0
            },
            {
                "start_time": 37.8340909,
                "end_time": 37.95,
                "pitch": 70,
                "velocity": 51,
                "duration": 0.1159091,
                "tempo": 120.0
            },
            {
                "start_time": 37.9681818,
                "end_time": 38.0522727,
                "pitch": 67,
                "velocity": 51,
                "duration": 0.0840909,
                "tempo": 120.0
            },
            {
                "start_time": 38.0681818,
                "end_time": 38.1818182,
                "pitch": 74,
                "velocity": 51,
                "duration": 0.1136364,
                "tempo": 120.0
            },
            {
                "start_time": 38.2,
                "end_time": 38.2818182,
                "pitch": 70,
                "velocity": 51,
                "duration": 0.0818182,
                "tempo": 120.0
            },
            {
                "start_time": 38.2977273,
                "end_time": 38.4113636,
                "pitch": 67,
                "velocity": 51,
                "duration": 0.1136364,
                "tempo": 120.0
            },
            {
                "start_time": 38.4272727,
                "end_time": 38.5090909,
                "pitch": 74,
                "velocity": 51,
                "duration": 0.0818182,
                "tempo": 120.0
            },
            {
                "start_time": 38.5272727,
                "end_time": 38.6431818,
                "pitch": 67,
                "velocity": 51,
                "duration": 0.1159091,
                "tempo": 120.0
            },
            {
                "start_time": 38.6613636,
                "end_time": 38.7431818,
                "pitch": 74,
                "velocity": 51,
                "duration": 0.0818182,
                "tempo": 120.0
            },
            {
                "start_time": 38.7613636,
                "end_time": 38.8772727,
                "pitch": 70,
                "velocity": 51,
                "duration": 0.1159091,
                "tempo": 120.0
            },
            {
                "start_time": 38.8954545,
                "end_time": 38.9795455,
                "pitch": 67,
                "velocity": 51,
                "duration": 0.0840909,
                "tempo": 120.0
            },
            {
                "start_time": 38.9954545,
                "end_time": 39.2136364,
                "pitch": 67,
                "velocity": 51,
                "duration": 0.2181818,
                "tempo": 120.0
            },
            {
                "start_time": 39.2295455,
                "end_time": 39.3477273,
                "pitch": 74,
                "velocity": 51,
                "duration": 0.1181818,
                "tempo": 120.0
            },
            {
                "start_time": 39.3636364,
                "end_time": 39.4477273,
                "pitch": 70,
                "velocity": 51,
                "duration": 0.0840909,
                "tempo": 120.0
            },
            {
                "start_time": 39.4636364,
                "end_time": 39.5818182,
                "pitch": 67,
                "velocity": 51,
                "duration": 0.1181818,
                "tempo": 120.0
            },
            {
                "start_time": 39.5977273,
                "end_time": 39.6818182,
                "pitch": 74,
                "velocity": 51,
                "duration": 0.0840909,
                "tempo": 120.0
            },
            {
                "start_time": 39.7,
                "end_time": 39.8159091,
                "pitch": 70,
                "velocity": 51,
                "duration": 0.1159091,
                "tempo": 120.0
            },
            {
                "start_time": 39.8340909,
                "end_time": 39.9159091,
                "pitch": 67,
                "velocity": 51,
                "duration": 0.0818182,
                "tempo": 120.0
            },
            {
                "start_time": 39.9340909,
                "end_time": 40.0477273,
                "pitch": 74,
                "velocity": 51,
                "duration": 0.1136364,
                "tempo": 120.0
            },
            {
                "start_time": 40.0636364,
                "end_time": 40.1454545,
                "pitch": 70,
                "velocity": 51,
                "duration": 0.0818182,
                "tempo": 120.0
            },
            {
                "start_time": 40.1636364,
                "end_time": 40.2772727,
                "pitch": 67,
                "velocity": 51,
                "duration": 0.1136364,
                "tempo": 120.0
            },
            {
                "start_time": 40.2931818,
                "end_time": 40.375,
                "pitch": 74,
                "velocity": 51,
                "duration": 0.0818182,
                "tempo": 120.0
            },
            {
                "start_time": 40.3909091,
                "end_time": 40.5090909,
                "pitch": 67,
                "velocity": 51,
                "duration": 0.1181818,
                "tempo": 120.0
            },
            {
                "start_time": 40.525,
                "end_time": 40.6090909,
                "pitch": 74,
                "velocity": 51,
                "duration": 0.0840909,
                "tempo": 120.0
            },
            {
                "start_time": 40.625,
                "end_time": 40.7431818,
                "pitch": 70,
                "velocity": 51,
                "duration": 0.1181818,
                "tempo": 120.0
            },
            {
                "start_time": 40.7590909,
                "end_time": 40.8431818,
                "pitch": 67,
                "velocity": 51,
                "duration": 0.0840909,
                "tempo": 120.0
            },
            {
                "start_time": 40.8613636,
                "end_time": 41.0727273,
                "pitch": 70,
                "velocity": 51,
                "duration": 0.2113636,
                "tempo": 120.0
            },
            {
                "start_time": 41.0886364,
                "end_time": 41.2045455,
                "pitch": 82,
                "velocity": 51,
                "duration": 0.1159091,
                "tempo": 120.0
            },
            {
                "start_time": 41.2204545,
                "end_time": 41.3022727,
                "pitch": 70,
                "velocity": 51,
                "duration": 0.0818182,
                "tempo": 120.0
            },
            {
                "start_time": 41.3181818,
                "end_time": 41.4386364,
                "pitch": 70,
                "velocity": 51,
                "duration": 0.1204545,
                "tempo": 120.0
            },
            {
                "start_time": 41.4545455,
                "end_time": 41.5386364,
                "pitch": 82,
                "velocity": 51,
                "duration": 0.0840909,
                "tempo": 120.0
            },
            {
                "start_time": 41.5568182,
                "end_time": 41.675,
                "pitch": 70,
                "velocity": 51,
                "duration": 0.1181818,
                "tempo": 120.0
            },
            {
                "start_time": 41.6931818,
                "end_time": 41.7772727,
                "pitch": 70,
                "velocity": 51,
                "duration": 0.0840909,
                "tempo": 120.0
            },
            {
                "start_time": 41.7954545,
                "end_time": 41.9113636,
                "pitch": 82,
                "velocity": 51,
                "duration": 0.1159091,
                "tempo": 120.0
            },
            {
                "start_time": 41.9295455,
                "end_time": 42.0136364,
                "pitch": 70,
                "velocity": 51,
                "duration": 0.0840909,
                "tempo": 120.0
            },
            {
                "start_time": 42.0295455,
                "end_time": 42.1477273,
                "pitch": 70,
                "velocity": 51,
                "duration": 0.1181818,
                "tempo": 120.0
            },
            {
                "start_time": 42.1636364,
                "end_time": 42.2477273,
                "pitch": 82,
                "velocity": 51,
                "duration": 0.0840909,
                "tempo": 120.0
            },
            {
                "start_time": 42.2636364,
                "end_time": 42.375,
                "pitch": 70,
                "velocity": 51,
                "duration": 0.1113636,
                "tempo": 120.0
            },
            {
                "start_time": 42.3909091,
                "end_time": 42.4727273,
                "pitch": 70,
                "velocity": 51,
                "duration": 0.0818182,
                "tempo": 120.0
            },
            {
                "start_time": 42.4886364,
                "end_time": 42.6,
                "pitch": 82,
                "velocity": 51,
                "duration": 0.1113636,
                "tempo": 120.0
            },
            {
                "start_time": 42.6159091,
                "end_time": 42.6954545,
                "pitch": 70,
                "velocity": 51,
                "duration": 0.0795455,
                "tempo": 120.0
            },
            {
                "start_time": 42.7113636,
                "end_time": 42.9295455,
                "pitch": 70,
                "velocity": 51,
                "duration": 0.2181818,
                "tempo": 120.0
            },
            {
                "start_time": 42.9454545,
                "end_time": 43.0636364,
                "pitch": 82,
                "velocity": 51,
                "duration": 0.1181818,
                "tempo": 120.0
            },
            {
                "start_time": 43.0795455,
                "end_time": 43.1636364,
                "pitch": 70,
                "velocity": 51,
                "duration": 0.0840909,
                "tempo": 120.0
            },
            {
                "start_time": 43.1818182,
                "end_time": 43.2977273,
                "pitch": 70,
                "velocity": 51,
                "duration": 0.1159091,
                "tempo": 120.0
            },
            {
                "start_time": 43.3159091,
                "end_time": 43.3977273,
                "pitch": 82,
                "velocity": 51,
                "duration": 0.0818182,
                "tempo": 120.0
            },
            {
                "start_time": 43.4159091,
                "end_time": 43.5318182,
                "pitch": 70,
                "velocity": 51,
                "duration": 0.1159091,
                "tempo": 120.0
            },
            {
                "start_time": 43.55,
                "end_time": 43.6340909,
                "pitch": 70,
                "velocity": 51,
                "duration": 0.0840909,
                "tempo": 120.0
            },
            {
                "start_time": 43.65,
                "end_time": 43.7681818,
                "pitch": 82,
                "velocity": 51,
                "duration": 0.1181818,
                "tempo": 120.0
            },
            {
                "start_time": 43.7840909,
                "end_time": 43.8681818,
                "pitch": 70,
                "velocity": 51,
                "duration": 0.0840909,
                "tempo": 120.0
            },
            {
                "start_time": 43.8840909,
                "end_time": 44.0022727,
                "pitch": 70,
                "velocity": 51,
                "duration": 0.1181818,
                "tempo": 120.0
            },
            {
                "start_time": 44.0181818,
                "end_time": 44.1022727,
                "pitch": 82,
                "velocity": 51,
                "duration": 0.0840909,
                "tempo": 120.0
            },
            {
                "start_time": 44.1181818,
                "end_time": 44.2340909,
                "pitch": 70,
                "velocity": 51,
                "duration": 0.1159091,
                "tempo": 120.0
            },
            {
                "start_time": 44.25,
                "end_time": 44.3318182,
                "pitch": 70,
                "velocity": 51,
                "duration": 0.0818182,
                "tempo": 120.0
            },
            {
                "start_time": 44.3477273,
                "end_time": 44.4636364,
                "pitch": 82,
                "velocity": 51,
                "duration": 0.1159091,
                "tempo": 120.0
            },
            {
                "start_time": 44.4795455,
                "end_time": 44.5613636,
                "pitch": 70,
                "velocity": 51,
                "duration": 0.0818182,
                "tempo": 120.0
            },
            {
                "start_time": 44.5772727,
                "end_time": 44.7954545,
                "pitch": 67,
                "velocity": 51,
                "duration": 0.2181818,
                "tempo": 120.0
            },
            {
                "start_time": 44.8113636,
                "end_time": 44.9295455,
                "pitch": 74,
                "velocity": 51,
                "duration": 0.1181818,
                "tempo": 120.0
            },
            {
                "start_time": 44.9454545,
                "end_time": 45.0295455,
                "pitch": 70,
                "velocity": 51,
                "duration": 0.0840909,
                "tempo": 120.0
            },
            {
                "start_time": 45.0454545,
                "end_time": 45.1636364,
                "pitch": 67,
                "velocity": 51,
                "duration": 0.1181818,
                "tempo": 120.0
            },
            {
                "start_time": 45.1795455,
                "end_time": 45.2636364,
                "pitch": 74,
                "velocity": 51,
                "duration": 0.0840909,
                "tempo": 120.0
            },
            {
                "start_time": 45.2795455,
                "end_time": 45.3977273,
                "pitch": 70,
                "velocity": 51,
                "duration": 0.1181818,
                "tempo": 120.0
            },
            {
                "start_time": 45.4136364,
                "end_time": 45.4977273,
                "pitch": 67,
                "velocity": 51,
                "duration": 0.0840909,
                "tempo": 120.0
            },
            {
                "start_time": 45.5159091,
                "end_time": 45.6318182,
                "pitch": 74,
                "velocity": 51,
                "duration": 0.1159091,
                "tempo": 120.0
            },
            {
                "start_time": 45.65,
                "end_time": 45.7318182,
                "pitch": 70,
                "velocity": 51,
                "duration": 0.0818182,
                "tempo": 120.0
            },
            {
                "start_time": 45.75,
                "end_time": 45.8659091,
                "pitch": 67,
                "velocity": 51,
                "duration": 0.1159091,
                "tempo": 120.0
            },
            {
                "start_time": 45.8840909,
                "end_time": 45.9681818,
                "pitch": 74,
                "velocity": 51,
                "duration": 0.0840909,
                "tempo": 120.0
            },
            {
                "start_time": 45.9840909,
                "end_time": 46.0977273,
                "pitch": 67,
                "velocity": 51,
                "duration": 0.1136364,
                "tempo": 120.0
            },
            {
                "start_time": 46.1159091,
                "end_time": 46.1977273,
                "pitch": 74,
                "velocity": 51,
                "duration": 0.0818182,
                "tempo": 120.0
            },
            {
                "start_time": 46.2136364,
                "end_time": 46.3272727,
                "pitch": 70,
                "velocity": 51,
                "duration": 0.1136364,
                "tempo": 120.0
            },
            {
                "start_time": 46.3431818,
                "end_time": 46.425,
                "pitch": 67,
                "velocity": 51,
                "duration": 0.0818182,
                "tempo": 120.0
            },
            {
                "start_time": 46.4431818,
                "end_time": 46.6545455,
                "pitch": 67,
                "velocity": 51,
                "duration": 0.2113636,
                "tempo": 120.0
            },
            {
                "start_time": 46.6704545,
                "end_time": 46.7863636,
                "pitch": 74,
                "velocity": 51,
                "duration": 0.1159091,
                "tempo": 120.0
            },
            {
                "start_time": 46.8022727,
                "end_time": 46.8840909,
                "pitch": 70,
                "velocity": 51,
                "duration": 0.0818182,
                "tempo": 120.0
            },
            {
                "start_time": 46.9,
                "end_time": 47.0181818,
                "pitch": 67,
                "velocity": 51,
                "duration": 0.1181818,
                "tempo": 120.0
            },
            {
                "start_time": 47.0340909,
                "end_time": 47.1181818,
                "pitch": 74,
                "velocity": 51,
                "duration": 0.0840909,
                "tempo": 120.0
            },
            {
                "start_time": 47.1340909,
                "end_time": 47.2522727,
                "pitch": 70,
                "velocity": 51,
                "duration": 0.1181818,
                "tempo": 120.0
            },
            {
                "start_time": 47.2681818,
                "end_time": 47.3522727,
                "pitch": 67,
                "velocity": 51,
                "duration": 0.0840909,
                "tempo": 120.0
            },
            {
                "start_time": 47.3704545,
                "end_time": 47.4886364,
                "pitch": 74,
                "velocity": 51,
                "duration": 0.1181818,
                "tempo": 120.0
            },
            {
                "start_time": 47.5045455,
                "end_time": 47.5909091,
                "pitch": 70,
                "velocity": 51,
                "duration": 0.0863636,
                "tempo": 120.0
            },
            {
                "start_time": 47.6068182,
                "end_time": 47.7272727,
                "pitch": 67,
                "velocity": 51,
                "duration": 0.1204545,
                "tempo": 120.0
            },
            {
                "start_time": 47.7431818,
                "end_time": 47.8295455,
                "pitch": 74,
                "velocity": 51,
                "duration": 0.0863636,
                "tempo": 120.0
            },
            {
                "start_time": 47.8454545,
                "end_time": 47.9613636,
                "pitch": 67,
                "velocity": 51,
                "duration": 0.1159091,
                "tempo": 120.0
            },
            {
                "start_time": 47.9772727,
                "end_time": 48.0590909,
                "pitch": 74,
                "velocity": 51,
                "duration": 0.0818182,
                "tempo": 120.0
            },
            {
                "start_time": 48.075,
                "end_time": 48.1909091,
                "pitch": 70,
                "velocity": 51,
                "duration": 0.1159091,
                "tempo": 120.0
            },
            {
                "start_time": 48.2068182,
                "end_time": 48.2886364,
                "pitch": 67,
                "velocity": 51,
                "duration": 0.0818182,
                "tempo": 120.0
            },
            {
                "start_time": 48.3045455,
                "end_time": 48.4181818,
                "pitch": 50,
                "velocity": 51,
                "duration": 0.1136364,
                "tempo": 120.0
            },
            {
                "start_time": 48.4363636,
                "end_time": 48.5181818,
                "pitch": 51,
                "velocity": 51,
                "duration": 0.0818182,
                "tempo": 120.0
            },
            {
                "start_time": 48.5340909,
                "end_time": 48.6477273,
                "pitch": 53,
                "velocity": 51,
                "duration": 0.1136364,
                "tempo": 120.0
            },
            {
                "start_time": 48.6636364,
                "end_time": 48.7454545,
                "pitch": 55,
                "velocity": 51,
                "duration": 0.0818182,
                "tempo": 120.0
            },
            {
                "start_time": 48.7636364,
                "end_time": 48.8795455,
                "pitch": 63,
                "velocity": 51,
                "duration": 0.1159091,
                "tempo": 120.0
            },
            {
                "start_time": 48.8954545,
                "end_time": 48.9795455,
                "pitch": 62,
                "velocity": 51,
                "duration": 0.0840909,
                "tempo": 120.0
            },
            {
                "start_time": 48.9977273,
                "end_time": 49.1136364,
                "pitch": 58,
                "velocity": 51,
                "duration": 0.1159091,
                "tempo": 120.0
            },
            {
                "start_time": 49.1318182,
                "end_time": 49.2136364,
                "pitch": 60,
                "velocity": 51,
                "duration": 0.0818182,
                "tempo": 120.0
            },
            {
                "start_time": 49.2318182,
                "end_time": 49.3454545,
                "pitch": 53,
                "velocity": 51,
                "duration": 0.1136364,
                "tempo": 120.0
            },
            {
                "start_time": 49.3613636,
                "end_time": 49.4431818,
                "pitch": 55,
                "velocity": 51,
                "duration": 0.0818182,
                "tempo": 120.0
            },
            {
                "start_time": 49.4613636,
                "end_time": 49.575,
                "pitch": 56,
                "velocity": 51,
                "duration": 0.1136364,
                "tempo": 120.0
            },
            {
                "start_time": 49.5909091,
                "end_time": 49.6727273,
                "pitch": 58,
                "velocity": 51,
                "duration": 0.0818182,
                "tempo": 120.0
            },
            {
                "start_time": 49.6886364,
                "end_time": 49.8068182,
                "pitch": 55,
                "velocity": 51,
                "duration": 0.1181818,
                "tempo": 120.0
            },
            {
                "start_time": 49.8227273,
                "end_time": 49.9068182,
                "pitch": 55,
                "velocity": 51,
                "duration": 0.0840909,
                "tempo": 120.0
            },
            {
                "start_time": 49.925,
                "end_time": 50.0409091,
                "pitch": 58,
                "velocity": 51,
                "duration": 0.1159091,
                "tempo": 120.0
            },
            {
                "start_time": 50.0590909,
                "end_time": 50.1409091,
                "pitch": 56,
                "velocity": 51,
                "duration": 0.0818182,
                "tempo": 120.0
            },
            {
                "start_time": 50.1590909,
                "end_time": 50.2795455,
                "pitch": 51,
                "velocity": 51,
                "duration": 0.1204545,
                "tempo": 120.0
            },
            {
                "start_time": 50.2954545,
                "end_time": 50.3818182,
                "pitch": 52,
                "velocity": 51,
                "duration": 0.0863636,
                "tempo": 120.0
            },
            {
                "start_time": 50.3977273,
                "end_time": 50.5181818,
                "pitch": 53,
                "velocity": 51,
                "duration": 0.1204545,
                "tempo": 120.0
            },
            {
                "start_time": 50.5363636,
                "end_time": 50.6204545,
                "pitch": 58,
                "velocity": 51,
                "duration": 0.0840909,
                "tempo": 120.0
            },
            {
                "start_time": 50.6386364,
                "end_time": 50.75,
                "pitch": 60,
                "velocity": 51,
                "duration": 0.1113636,
                "tempo": 120.0
            },
            {
                "start_time": 50.7659091,
                "end_time": 50.8454545,
                "pitch": 53,
                "velocity": 51,
                "duration": 0.0795455,
                "tempo": 120.0
            },
            {
                "start_time": 50.8613636,
                "end_time": 50.975,
                "pitch": 55,
                "velocity": 51,
                "duration": 0.1136364,
                "tempo": 120.0
            },
            {
                "start_time": 50.9909091,
                "end_time": 51.0704545,
                "pitch": 63,
                "velocity": 51,
                "duration": 0.0795455,
                "tempo": 120.0
            },
            {
                "start_time": 51.0863636,
                "end_time": 51.2045455,
                "pitch": 62,
                "velocity": 51,
                "duration": 0.1181818,
                "tempo": 120.0
            },
            {
                "start_time": 51.2204545,
                "end_time": 51.3045455,
                "pitch": 60,
                "velocity": 51,
                "duration": 0.0840909,
                "tempo": 120.0
            },
            {
                "start_time": 51.3204545,
                "end_time": 51.4386364,
                "pitch": 58,
                "velocity": 51,
                "duration": 0.1181818,
                "tempo": 120.0
            },
            {
                "start_time": 51.4545455,
                "end_time": 51.5386364,
                "pitch": 65,
                "velocity": 51,
                "duration": 0.0840909,
                "tempo": 120.0
            },
            {
                "start_time": 51.5545455,
                "end_time": 51.6727273,
                "pitch": 60,
                "velocity": 51,
                "duration": 0.1181818,
                "tempo": 120.0
            },
            {
                "start_time": 51.6886364,
                "end_time": 51.7727273,
                "pitch": 62,
                "velocity": 51,
                "duration": 0.0840909,
                "tempo": 120.0
            },
            {
                "start_time": 51.7909091,
                "end_time": 51.9068182,
                "pitch": 65,
                "velocity": 51,
                "duration": 0.1159091,
                "tempo": 120.0
            },
            {
                "start_time": 51.925,
                "end_time": 52.0068182,
                "pitch": 63,
                "velocity": 51,
                "duration": 0.0818182,
                "tempo": 120.0
            },
            {
                "start_time": 52.025,
                "end_time": 52.1386364,
                "pitch": 55,
                "velocity": 51,
                "duration": 0.1136364,
                "tempo": 120.0
            },
            {
                "start_time": 52.1545455,
                "end_time": 52.2363636,
                "pitch": 56,
                "velocity": 51,
                "duration": 0.0818182,
                "tempo": 120.0
            },
            {
                "start_time": 52.2522727,
                "end_time": 52.3681818,
                "pitch": 58,
                "velocity": 51,
                "duration": 0.1159091,
                "tempo": 120.0
            },
            {
                "start_time": 52.3840909,
                "end_time": 52.4659091,
                "pitch": 63,
                "velocity": 51,
                "duration": 0.0818182,
                "tempo": 120.0
            },
            {
                "start_time": 52.4818182,
                "end_time": 52.6,
                "pitch": 62,
                "velocity": 51,
                "duration": 0.1181818,
                "tempo": 120.0
            },
            {
                "start_time": 52.6159091,
                "end_time": 52.7,
                "pitch": 60,
                "velocity": 51,
                "duration": 0.0840909,
                "tempo": 120.0
            },
            {
                "start_time": 52.7159091,
                "end_time": 52.8340909,
                "pitch": 55,
                "velocity": 51,
                "duration": 0.1181818,
                "tempo": 120.0
            },
            {
                "start_time": 52.85,
                "end_time": 52.9340909,
                "pitch": 60,
                "velocity": 51,
                "duration": 0.0840909,
                "tempo": 120.0
            },
            {
                "start_time": 52.9522727,
                "end_time": 53.0681818,
                "pitch": 58,
                "velocity": 51,
                "duration": 0.1159091,
                "tempo": 120.0
            },
            {
                "start_time": 53.0863636,
                "end_time": 53.1681818,
                "pitch": 56,
                "velocity": 51,
                "duration": 0.0818182,
                "tempo": 120.0
            },
            {
                "start_time": 53.1863636,
                "end_time": 53.3022727,
                "pitch": 55,
                "velocity": 51,
                "duration": 0.1159091,
                "tempo": 120.0
            },
            {
                "start_time": 53.3204545,
                "end_time": 53.4045455,
                "pitch": 56,
                "velocity": 51,
                "duration": 0.0840909,
                "tempo": 120.0
            },
            {
                "start_time": 53.4204545,
                "end_time": 53.5340909,
                "pitch": 60,
                "velocity": 51,
                "duration": 0.1136364,
                "tempo": 120.0
            },
            {
                "start_time": 53.5522727,
                "end_time": 53.6340909,
                "pitch": 51,
                "velocity": 51,
                "duration": 0.0818182,
                "tempo": 120.0
            },
            {
                "start_time": 53.65,
                "end_time": 53.7636364,
                "pitch": 58,
                "velocity": 51,
                "duration": 0.1136364,
                "tempo": 120.0
            },
            {
                "start_time": 53.7795455,
                "end_time": 53.8613636,
                "pitch": 57,
                "velocity": 51,
                "duration": 0.0818182,
                "tempo": 120.0
            },
            {
                "start_time": 53.8795455,
                "end_time": 53.9977273,
                "pitch": 55,
                "velocity": 51,
                "duration": 0.1181818,
                "tempo": 120.0
            },
            {
                "start_time": 54.0136364,
                "end_time": 54.1,
                "pitch": 53,
                "velocity": 51,
                "duration": 0.0863636,
                "tempo": 120.0
            },
            {
                "start_time": 54.1159091,
                "end_time": 54.2363636,
                "pitch": 55,
                "velocity": 51,
                "duration": 0.1204545,
                "tempo": 120.0
            },
            {
                "start_time": 54.2522727,
                "end_time": 54.3386364,
                "pitch": 57,
                "velocity": 51,
                "duration": 0.0863636,
                "tempo": 120.0
            },
            {
                "start_time": 54.3545455,
                "end_time": 54.4704545,
                "pitch": 58,
                "velocity": 51,
                "duration": 0.1159091,
                "tempo": 120.0
            },
            {
                "start_time": 54.4863636,
                "end_time": 54.5681818,
                "pitch": 60,
                "velocity": 51,
                "duration": 0.0818182,
                "tempo": 120.0
            },
            {
                "start_time": 54.5840909,
                "end_time": 54.6977273,
                "pitch": 55,
                "velocity": 51,
                "duration": 0.1136364,
                "tempo": 120.0
            },
            {
                "start_time": 54.7159091,
                "end_time": 54.7977273,
                "pitch": 62,
                "velocity": 51,
                "duration": 0.0818182,
                "tempo": 120.0
            },
            {
                "start_time": 54.8136364,
                "end_time": 54.9272727,
                "pitch": 63,
                "velocity": 51,
                "duration": 0.1136364,
                "tempo": 120.0
            },
            {
                "start_time": 54.9431818,
                "end_time": 55.025,
                "pitch": 56,
                "velocity": 51,
                "duration": 0.0818182,
                "tempo": 120.0
            },
            {
                "start_time": 55.0431818,
                "end_time": 55.1568182,
                "pitch": 58,
                "velocity": 51,
                "duration": 0.1136364,
                "tempo": 120.0
            },
            {
                "start_time": 55.1727273,
                "end_time": 55.2545455,
                "pitch": 60,
                "velocity": 51,
                "duration": 0.0818182,
                "tempo": 120.0
            },
            {
                "start_time": 55.2704545,
                "end_time": 55.3886364,
                "pitch": 62,
                "velocity": 51,
                "duration": 0.1181818,
                "tempo": 120.0
            },
            {
                "start_time": 55.4045455,
                "end_time": 55.4886364,
                "pitch": 63,
                "velocity": 51,
                "duration": 0.0840909,
                "tempo": 120.0
            },
            {
                "start_time": 55.5068182,
                "end_time": 55.6227273,
                "pitch": 65,
                "velocity": 51,
                "duration": 0.1159091,
                "tempo": 120.0
            },
            {
                "start_time": 55.6409091,
                "end_time": 55.7227273,
                "pitch": 67,
                "velocity": 51,
                "duration": 0.0818182,
                "tempo": 120.0
            },
            {
                "start_time": 55.7409091,
                "end_time": 55.8545455,
                "pitch": 65,
                "velocity": 51,
                "duration": 0.1136364,
                "tempo": 120.0
            },
            {
                "start_time": 55.8704545,
                "end_time": 55.9522727,
                "pitch": 63,
                "velocity": 51,
                "duration": 0.0818182,
                "tempo": 120.0
            },
            {
                "start_time": 55.9681818,
                "end_time": 56.0840909,
                "pitch": 56,
                "velocity": 51,
                "duration": 0.1159091,
                "tempo": 120.0
            },
            {
                "start_time": 56.1,
                "end_time": 56.1818182,
                "pitch": 58,
                "velocity": 51,
                "duration": 0.0818182,
                "tempo": 120.0
            },
            {
                "start_time": 56.1977273,
                "end_time": 56.3159091,
                "pitch": 60,
                "velocity": 51,
                "duration": 0.1181818,
                "tempo": 120.0
            },
            {
                "start_time": 56.3318182,
                "end_time": 56.4159091,
                "pitch": 55,
                "velocity": 51,
                "duration": 0.0840909,
                "tempo": 120.0
            },
            {
                "start_time": 56.4340909,
                "end_time": 56.55,
                "pitch": 63,
                "velocity": 51,
                "duration": 0.1159091,
                "tempo": 120.0
            },
            {
                "start_time": 56.5659091,
                "end_time": 56.65,
                "pitch": 62,
                "velocity": 51,
                "duration": 0.0840909,
                "tempo": 120.0
            },
            {
                "start_time": 56.6681818,
                "end_time": 56.7840909,
                "pitch": 60,
                "velocity": 51,
                "duration": 0.1159091,
                "tempo": 120.0
            },
            {
                "start_time": 56.8022727,
                "end_time": 56.8863636,
                "pitch": 62,
                "velocity": 51,
                "duration": 0.0840909,
                "tempo": 120.0
            },
            {
                "start_time": 56.9022727,
                "end_time": 57.0181818,
                "pitch": 61,
                "velocity": 51,
                "duration": 0.1159091,
                "tempo": 120.0
            },
            {
                "start_time": 57.0363636,
                "end_time": 57.1204545,
                "pitch": 60,
                "velocity": 51,
                "duration": 0.0840909,
                "tempo": 120.0
            },
            {
                "start_time": 57.1363636,
                "end_time": 57.2545455,
                "pitch": 62,
                "velocity": 51,
                "duration": 0.1181818,
                "tempo": 120.0
            },
            {
                "start_time": 57.2704545,
                "end_time": 57.3545455,
                "pitch": 63,
                "velocity": 51,
                "duration": 0.0840909,
                "tempo": 120.0
            },
            {
                "start_time": 57.3704545,
                "end_time": 57.4886364,
                "pitch": 65,
                "velocity": 51,
                "duration": 0.1181818,
                "tempo": 120.0
            },
            {
                "start_time": 57.5045455,
                "end_time": 57.5886364,
                "pitch": 62,
                "velocity": 51,
                "duration": 0.0840909,
                "tempo": 120.0
            },
            {
                "start_time": 57.6045455,
                "end_time": 57.7227273,
                "pitch": 67,
                "velocity": 51,
                "duration": 0.1181818,
                "tempo": 120.0
            },
            {
                "start_time": 57.7386364,
                "end_time": 57.8227273,
                "pitch": 60,
                "velocity": 51,
                "duration": 0.0840909,
                "tempo": 120.0
            },
            {
                "start_time": 57.8409091,
                "end_time": 57.9568182,
                "pitch": 65,
                "velocity": 51,
                "duration": 0.1159091,
                "tempo": 120.0
            },
            {
                "start_time": 57.975,
                "end_time": 58.0568182,
                "pitch": 58,
                "velocity": 51,
                "duration": 0.0818182,
                "tempo": 120.0
            },
            {
                "start_time": 58.075,
                "end_time": 58.1886364,
                "pitch": 63,
                "velocity": 51,
                "duration": 0.1136364,
                "tempo": 120.0
            },
            {
                "start_time": 58.2045455,
                "end_time": 58.2863636,
                "pitch": 60,
                "velocity": 51,
                "duration": 0.0818182,
                "tempo": 120.0
            },
            {
                "start_time": 58.3045455,
                "end_time": 58.4181818,
                "pitch": 62,
                "velocity": 51,
                "duration": 0.1136364,
                "tempo": 120.0
            },
            {
                "start_time": 58.4340909,
                "end_time": 58.5159091,
                "pitch": 60,
                "velocity": 51,
                "duration": 0.0818182,
                "tempo": 120.0
            },
            {
                "start_time": 58.5318182,
                "end_time": 58.65,
                "pitch": 58,
                "velocity": 51,
                "duration": 0.1181818,
                "tempo": 120.0
            },
            {
                "start_time": 58.6659091,
                "end_time": 58.75,
                "pitch": 65,
                "velocity": 51,
                "duration": 0.0840909,
                "tempo": 120.0
            },
            {
                "start_time": 58.7681818,
                "end_time": 58.8840909,
                "pitch": 60,
                "velocity": 51,
                "duration": 0.1159091,
                "tempo": 120.0
            },
            {
                "start_time": 58.9022727,
                "end_time": 58.9840909,
                "pitch": 63,
                "velocity": 51,
                "duration": 0.0818182,
                "tempo": 120.0
            },
            {
                "start_time": 59.0022727,
                "end_time": 59.1159091,
                "pitch": 62,
                "velocity": 51,
                "duration": 0.1136364,
                "tempo": 120.0
            },
            {
                "start_time": 59.1318182,
                "end_time": 59.2136364,
                "pitch": 58,
                "velocity": 51,
                "duration": 0.0818182,
                "tempo": 120.0
            },
            {
                "start_time": 59.2318182,
                "end_time": 59.3454545,
                "pitch": 60,
                "velocity": 51,
                "duration": 0.1136364,
                "tempo": 120.0
            },
            {
                "start_time": 59.3613636,
                "end_time": 59.4431818,
                "pitch": 58,
                "velocity": 51,
                "duration": 0.0818182,
                "tempo": 120.0
            },
            {
                "start_time": 59.4590909,
                "end_time": 59.5772727,
                "pitch": 56,
                "velocity": 51,
                "duration": 0.1181818,
                "tempo": 120.0
            },
            {
                "start_time": 59.5931818,
                "end_time": 59.6772727,
                "pitch": 55,
                "velocity": 51,
                "duration": 0.0840909,
                "tempo": 120.0
            },
            {
                "start_time": 59.6954545,
                "end_time": 59.8113636,
                "pitch": 56,
                "velocity": 51,
                "duration": 0.1159091,
                "tempo": 120.0
            },
            {
                "start_time": 59.8272727,
                "end_time": 59.9113636,
                "pitch": 58,
                "velocity": 51,
                "duration": 0.0840909,
                "tempo": 120.0
            },
            {
                "start_time": 59.9295455,
                "end_time": 60.0454545,
                "pitch": 56,
                "velocity": 51,
                "duration": 0.1159091,
                "tempo": 120.0
            },
            {
                "start_time": 60.0636364,
                "end_time": 60.1477273,
                "pitch": 58,
                "velocity": 51,
                "duration": 0.0840909,
                "tempo": 120.0
            },
            {
                "start_time": 60.1636364,
                "end_time": 60.2795455,
                "pitch": 55,
                "velocity": 51,
                "duration": 0.1159091,
                "tempo": 120.0
            },
            {
                "start_time": 60.2977273,
                "end_time": 60.3818182,
                "pitch": 60,
                "velocity": 51,
                "duration": 0.0840909,
                "tempo": 120.0
            },
            {
                "start_time": 60.3977273,
                "end_time": 60.5113636,
                "pitch": 56,
                "velocity": 51,
                "duration": 0.1136364,
                "tempo": 120.0
            },
            {
                "start_time": 60.5295455,
                "end_time": 60.6113636,
                "pitch": 62,
                "velocity": 51,
                "duration": 0.0818182,
                "tempo": 120.0
            },
            {
                "start_time": 60.6272727,
                "end_time": 60.7409091,
                "pitch": 58,
                "velocity": 51,
                "duration": 0.1136364,
                "tempo": 120.0
            },
            {
                "start_time": 60.7568182,
                "end_time": 60.8386364,
                "pitch": 63,
                "velocity": 51,
                "duration": 0.0818182,
                "tempo": 120.0
            },
            {
                "start_time": 60.8568182,
                "end_time": 60.9727273,
                "pitch": 58,
                "velocity": 51,
                "duration": 0.1159091,
                "tempo": 120.0
            },
            {
                "start_time": 60.9909091,
                "end_time": 61.0727273,
                "pitch": 65,
                "velocity": 51,
                "duration": 0.0818182,
                "tempo": 120.0
            },
            {
                "start_time": 61.0909091,
                "end_time": 61.2068182,
                "pitch": 58,
                "velocity": 51,
                "duration": 0.1159091,
                "tempo": 120.0
            },
            {
                "start_time": 61.225,
                "end_time": 61.3090909,
                "pitch": 61,
                "velocity": 51,
                "duration": 0.0840909,
                "tempo": 120.0
            },
            {
                "start_time": 61.325,
                "end_time": 61.4431818,
                "pitch": 65,
                "velocity": 51,
                "duration": 0.1181818,
                "tempo": 120.0
            },
            {
                "start_time": 61.4613636,
                "end_time": 61.5454545,
                "pitch": 67,
                "velocity": 51,
                "duration": 0.0840909,
                "tempo": 120.0
            },
            {
                "start_time": 61.5636364,
                "end_time": 61.6818182,
                "pitch": 65,
                "velocity": 51,
                "duration": 0.1181818,
                "tempo": 120.0
            },
            {
                "start_time": 61.7,
                "end_time": 61.7840909,
                "pitch": 65,
                "velocity": 51,
                "duration": 0.0840909,
                "tempo": 120.0
            },
            {
                "start_time": 61.8,
                "end_time": 61.9136364,
                "pitch": 61,
                "velocity": 51,
                "duration": 0.1136364,
                "tempo": 120.0
            },
            {
                "start_time": 61.9295455,
                "end_time": 62.0090909,
                "pitch": 60,
                "velocity": 51,
                "duration": 0.0795455,
                "tempo": 120.0
            },
            {
                "start_time": 62.025,
                "end_time": 62.1363636,
                "pitch": 58,
                "velocity": 51,
                "duration": 0.1113636,
                "tempo": 120.0
            },
            {
                "start_time": 62.1522727,
                "end_time": 62.2340909,
                "pitch": 63,
                "velocity": 51,
                "duration": 0.0818182,
                "tempo": 120.0
            },
            {
                "start_time": 62.25,
                "end_time": 62.3659091,
                "pitch": 62,
                "velocity": 51,
                "duration": 0.1159091,
                "tempo": 120.0
            },
            {
                "start_time": 62.3840909,
                "end_time": 62.4659091,
                "pitch": 58,
                "velocity": 51,
                "duration": 0.0818182,
                "tempo": 120.0
            },
            {
                "start_time": 62.4840909,
                "end_time": 62.6,
                "pitch": 56,
                "velocity": 51,
                "duration": 0.1159091,
                "tempo": 120.0
            },
            {
                "start_time": 62.6181818,
                "end_time": 62.7022727,
                "pitch": 60,
                "velocity": 51,
                "duration": 0.0840909,
                "tempo": 120.0
            },
            {
                "start_time": 62.7181818,
                "end_time": 62.8363636,
                "pitch": 58,
                "velocity": 51,
                "duration": 0.1181818,
                "tempo": 120.0
            },
            {
                "start_time": 62.8522727,
                "end_time": 62.9363636,
                "pitch": 55,
                "velocity": 51,
                "duration": 0.0840909,
                "tempo": 120.0
            },
            {
                "start_time": 62.9522727,
                "end_time": 63.0704545,
                "pitch": 56,
                "velocity": 51,
                "duration": 0.1181818,
                "tempo": 120.0
            },
            {
                "start_time": 63.0863636,
                "end_time": 63.1704545,
                "pitch": 53,
                "velocity": 51,
                "duration": 0.0840909,
                "tempo": 120.0
            },
            {
                "start_time": 63.1863636,
                "end_time": 63.3022727,
                "pitch": 50,
                "velocity": 51,
                "duration": 0.1159091,
                "tempo": 120.0
            },
            {
                "start_time": 63.3181818,
                "end_time": 63.4,
                "pitch": 51,
                "velocity": 51,
                "duration": 0.0818182,
                "tempo": 120.0
            },
            {
                "start_time": 63.4159091,
                "end_time": 63.5295455,
                "pitch": 53,
                "velocity": 51,
                "duration": 0.1136364,
                "tempo": 120.0
            },
            {
                "start_time": 63.5477273,
                "end_time": 63.6295455,
                "pitch": 55,
                "velocity": 51,
                "duration": 0.0818182,
                "tempo": 120.0
            },
            {
                "start_time": 63.6454545,
                "end_time": 63.7613636,
                "pitch": 63,
                "velocity": 51,
                "duration": 0.1159091,
                "tempo": 120.0
            },
            {
                "start_time": 63.7795455,
                "end_time": 63.8636364,
                "pitch": 62,
                "velocity": 51,
                "duration": 0.0840909,
                "tempo": 120.0
            },
            {
                "start_time": 63.8795455,
                "end_time": 63.9977273,
                "pitch": 58,
                "velocity": 51,
                "duration": 0.1181818,
                "tempo": 120.0
            },
            {
                "start_time": 64.0136364,
                "end_time": 64.0977273,
                "pitch": 60,
                "velocity": 51,
                "duration": 0.0840909,
                "tempo": 120.0
            },
            {
                "start_time": 64.1136364,
                "end_time": 64.2318182,
                "pitch": 53,
                "velocity": 51,
                "duration": 0.1181818,
                "tempo": 120.0
            },
            {
                "start_time": 64.2477273,
                "end_time": 64.3318182,
                "pitch": 55,
                "velocity": 51,
                "duration": 0.0840909,
                "tempo": 120.0
            },
            {
                "start_time": 64.3477273,
                "end_time": 64.4659091,
                "pitch": 56,
                "velocity": 51,
                "duration": 0.1181818,
                "tempo": 120.0
            },
            {
                "start_time": 64.4818182,
                "end_time": 64.5659091,
                "pitch": 58,
                "velocity": 51,
                "duration": 0.0840909,
                "tempo": 120.0
            },
            {
                "start_time": 64.5840909,
                "end_time": 64.6977273,
                "pitch": 55,
                "velocity": 51,
                "duration": 0.1136364,
                "tempo": 120.0
            },
            {
                "start_time": 64.7136364,
                "end_time": 64.7954545,
                "pitch": 55,
                "velocity": 51,
                "duration": 0.0818182,
                "tempo": 120.0
            },
            {
                "start_time": 64.8113636,
                "end_time": 64.9272727,
                "pitch": 58,
                "velocity": 51,
                "duration": 0.1159091,
                "tempo": 120.0
            },
            {
                "start_time": 64.9431818,
                "end_time": 65.025,
                "pitch": 56,
                "velocity": 51,
                "duration": 0.0818182,
                "tempo": 120.0
            },
            {
                "start_time": 65.0409091,
                "end_time": 65.1613636,
                "pitch": 51,
                "velocity": 51,
                "duration": 0.1204545,
                "tempo": 120.0
            },
            {
                "start_time": 65.1772727,
                "end_time": 65.2636364,
                "pitch": 52,
                "velocity": 51,
                "duration": 0.0863636,
                "tempo": 120.0
            },
            {
                "start_time": 65.2818182,
                "end_time": 65.4,
                "pitch": 53,
                "velocity": 51,
                "duration": 0.1181818,
                "tempo": 120.0
            },
            {
                "start_time": 65.4181818,
                "end_time": 65.5045455,
                "pitch": 58,
                "velocity": 51,
                "duration": 0.0863636,
                "tempo": 120.0
            },
            {
                "start_time": 65.5204545,
                "end_time": 65.6363636,
                "pitch": 60,
                "velocity": 51,
                "duration": 0.1159091,
                "tempo": 120.0
            },
            {
                "start_time": 65.6522727,
                "end_time": 65.7340909,
                "pitch": 53,
                "velocity": 51,
                "duration": 0.0818182,
                "tempo": 120.0
            },
            {
                "start_time": 65.75,
                "end_time": 65.8659091,
                "pitch": 55,
                "velocity": 51,
                "duration": 0.1159091,
                "tempo": 120.0
            },
            {
                "start_time": 65.8818182,
                "end_time": 65.9636364,
                "pitch": 63,
                "velocity": 51,
                "duration": 0.0818182,
                "tempo": 120.0
            },
            {
                "start_time": 65.9795455,
                "end_time": 66.0931818,
                "pitch": 62,
                "velocity": 51,
                "duration": 0.1136364,
                "tempo": 120.0
            },
            {
                "start_time": 66.1113636,
                "end_time": 66.1931818,
                "pitch": 60,
                "velocity": 51,
                "duration": 0.0818182,
                "tempo": 120.0
            },
            {
                "start_time": 66.2090909,
                "end_time": 66.3227273,
                "pitch": 58,
                "velocity": 51,
                "duration": 0.1136364,
                "tempo": 120.0
            },
            {
                "start_time": 66.3386364,
                "end_time": 66.4204545,
                "pitch": 65,
                "velocity": 51,
                "duration": 0.0818182,
                "tempo": 120.0
            },
            {
                "start_time": 66.4386364,
                "end_time": 66.5545455,
                "pitch": 60,
                "velocity": 51,
                "duration": 0.1159091,
                "tempo": 120.0
            },
            {
                "start_time": 66.5727273,
                "end_time": 66.6545455,
                "pitch": 62,
                "velocity": 51,
                "duration": 0.0818182,
                "tempo": 120.0
            },
            {
                "start_time": 66.6727273,
                "end_time": 66.7886364,
                "pitch": 65,
                "velocity": 51,
                "duration": 0.1159091,
                "tempo": 120.0
            },
            {
                "start_time": 66.8068182,
                "end_time": 66.8909091,
                "pitch": 63,
                "velocity": 51,
                "duration": 0.0840909,
                "tempo": 120.0
            },
            {
                "start_time": 66.9068182,
                "end_time": 67.025,
                "pitch": 55,
                "velocity": 51,
                "duration": 0.1181818,
                "tempo": 120.0
            },
            {
                "start_time": 67.0409091,
                "end_time": 67.125,
                "pitch": 56,
                "velocity": 51,
                "duration": 0.0840909,
                "tempo": 120.0
            },
            {
                "start_time": 67.1409091,
                "end_time": 67.2590909,
                "pitch": 58,
                "velocity": 51,
                "duration": 0.1181818,
                "tempo": 120.0
            },
            {
                "start_time": 67.275,
                "end_time": 67.3590909,
                "pitch": 63,
                "velocity": 51,
                "duration": 0.0840909,
                "tempo": 120.0
            },
            {
                "start_time": 67.375,
                "end_time": 67.4909091,
                "pitch": 62,
                "velocity": 51,
                "duration": 0.1159091,
                "tempo": 120.0
            },
            {
                "start_time": 67.5068182,
                "end_time": 67.5886364,
                "pitch": 60,
                "velocity": 51,
                "duration": 0.0818182,
                "tempo": 120.0
            },
            {
                "start_time": 67.6045455,
                "end_time": 67.7204545,
                "pitch": 55,
                "velocity": 51,
                "duration": 0.1159091,
                "tempo": 120.0
            },
            {
                "start_time": 67.7363636,
                "end_time": 67.8181818,
                "pitch": 60,
                "velocity": 51,
                "duration": 0.0818182,
                "tempo": 120.0
            },
            {
                "start_time": 67.8340909,
                "end_time": 67.9522727,
                "pitch": 58,
                "velocity": 51,
                "duration": 0.1181818,
                "tempo": 120.0
            },
            {
                "start_time": 67.9681818,
                "end_time": 68.0522727,
                "pitch": 56,
                "velocity": 51,
                "duration": 0.0840909,
                "tempo": 120.0
            },
            {
                "start_time": 68.0681818,
                "end_time": 68.1863636,
                "pitch": 55,
                "velocity": 51,
                "duration": 0.1181818,
                "tempo": 120.0
            },
            {
                "start_time": 68.2022727,
                "end_time": 68.2863636,
                "pitch": 56,
                "velocity": 51,
                "duration": 0.0840909,
                "tempo": 120.0
            },
            {
                "start_time": 68.3022727,
                "end_time": 68.4204545,
                "pitch": 60,
                "velocity": 51,
                "duration": 0.1181818,
                "tempo": 120.0
            },
            {
                "start_time": 68.4363636,
                "end_time": 68.5204545,
                "pitch": 51,
                "velocity": 51,
                "duration": 0.0840909,
                "tempo": 120.0
            },
            {
                "start_time": 68.5363636,
                "end_time": 68.6545455,
                "pitch": 58,
                "velocity": 51,
                "duration": 0.1181818,
                "tempo": 120.0
            },
            {
                "start_time": 68.6704545,
                "end_time": 68.7545455,
                "pitch": 57,
                "velocity": 51,
                "duration": 0.0840909,
                "tempo": 120.0
            },
            {
                "start_time": 68.7727273,
                "end_time": 68.8909091,
                "pitch": 55,
                "velocity": 51,
                "duration": 0.1181818,
                "tempo": 120.0
            },
            {
                "start_time": 68.9090909,
                "end_time": 68.9954545,
                "pitch": 53,
                "velocity": 51,
                "duration": 0.0863636,
                "tempo": 120.0
            },
            {
                "start_time": 69.0113636,
                "end_time": 69.1318182,
                "pitch": 55,
                "velocity": 51,
                "duration": 0.1204545,
                "tempo": 120.0
            },
            {
                "start_time": 69.15,
                "end_time": 69.2340909,
                "pitch": 57,
                "velocity": 51,
                "duration": 0.0840909,
                "tempo": 120.0
            },
            {
                "start_time": 69.2522727,
                "end_time": 69.3636364,
                "pitch": 58,
                "velocity": 51,
                "duration": 0.1113636,
                "tempo": 120.0
            },
            {
                "start_time": 69.3795455,
                "end_time": 69.4590909,
                "pitch": 60,
                "velocity": 51,
                "duration": 0.0795455,
                "tempo": 120.0
            },
            {
                "start_time": 69.475,
                "end_time": 69.5886364,
                "pitch": 55,
                "velocity": 51,
                "duration": 0.1136364,
                "tempo": 120.0
            },
            {
                "start_time": 69.6045455,
                "end_time": 69.6840909,
                "pitch": 62,
                "velocity": 51,
                "duration": 0.0795455,
                "tempo": 120.0
            },
            {
                "start_time": 69.7,
                "end_time": 69.8136364,
                "pitch": 63,
                "velocity": 51,
                "duration": 0.1136364,
                "tempo": 120.0
            },
            {
                "start_time": 69.8318182,
                "end_time": 69.9136364,
                "pitch": 56,
                "velocity": 51,
                "duration": 0.0818182,
                "tempo": 120.0
            },
            {
                "start_time": 69.9295455,
                "end_time": 70.0431818,
                "pitch": 58,
                "velocity": 51,
                "duration": 0.1136364,
                "tempo": 120.0
            },
            {
                "start_time": 70.0590909,
                "end_time": 70.1409091,
                "pitch": 60,
                "velocity": 51,
                "duration": 0.0818182,
                "tempo": 120.0
            },
            {
                "start_time": 70.1590909,
                "end_time": 70.275,
                "pitch": 62,
                "velocity": 51,
                "duration": 0.1159091,
                "tempo": 120.0
            },
            {
                "start_time": 70.2931818,
                "end_time": 70.375,
                "pitch": 63,
                "velocity": 51,
                "duration": 0.0818182,
                "tempo": 120.0
            },
            {
                "start_time": 70.3931818,
                "end_time": 70.5090909,
                "pitch": 65,
                "velocity": 51,
                "duration": 0.1159091,
                "tempo": 120.0
            },
            {
                "start_time": 70.5272727,
                "end_time": 70.6113636,
                "pitch": 67,
                "velocity": 51,
                "duration": 0.0840909,
                "tempo": 120.0
            },
            {
                "start_time": 70.6272727,
                "end_time": 70.7454545,
                "pitch": 65,
                "velocity": 51,
                "duration": 0.1181818,
                "tempo": 120.0
            },
            {
                "start_time": 70.7613636,
                "end_time": 70.8454545,
                "pitch": 63,
                "velocity": 51,
                "duration": 0.0840909,
                "tempo": 120.0
            },
            {
                "start_time": 70.8613636,
                "end_time": 70.9795455,
                "pitch": 56,
                "velocity": 51,
                "duration": 0.1181818,
                "tempo": 120.0
            },
            {
                "start_time": 70.9954545,
                "end_time": 71.0795455,
                "pitch": 58,
                "velocity": 51,
                "duration": 0.0840909,
                "tempo": 120.0
            },
            {
                "start_time": 71.0954545,
                "end_time": 71.2136364,
                "pitch": 60,
                "velocity": 51,
                "duration": 0.1181818,
                "tempo": 120.0
            },
            {
                "start_time": 71.2295455,
                "end_time": 71.3136364,
                "pitch": 55,
                "velocity": 51,
                "duration": 0.0840909,
                "tempo": 120.0
            },
            {
                "start_time": 71.3318182,
                "end_time": 71.4477273,
                "pitch": 63,
                "velocity": 51,
                "duration": 0.1159091,
                "tempo": 120.0
            },
            {
                "start_time": 71.4659091,
                "end_time": 71.5477273,
                "pitch": 62,
                "velocity": 51,
                "duration": 0.0818182,
                "tempo": 120.0
            },
            {
                "start_time": 71.5659091,
                "end_time": 71.6795455,
                "pitch": 60,
                "velocity": 51,
                "duration": 0.1136364,
                "tempo": 120.0
            },
            {
                "start_time": 71.6954545,
                "end_time": 71.7772727,
                "pitch": 62,
                "velocity": 51,
                "duration": 0.0818182,
                "tempo": 120.0
            },
            {
                "start_time": 71.7954545,
                "end_time": 71.9090909,
                "pitch": 61,
                "velocity": 51,
                "duration": 0.1136364,
                "tempo": 120.0
            },
            {
                "start_time": 71.925,
                "end_time": 72.0068182,
                "pitch": 60,
                "velocity": 51,
                "duration": 0.0818182,
                "tempo": 120.0
            },
            {
                "start_time": 72.0227273,
                "end_time": 72.1409091,
                "pitch": 62,
                "velocity": 51,
                "duration": 0.1181818,
                "tempo": 120.0
            },
            {
                "start_time": 72.1568182,
                "end_time": 72.2409091,
                "pitch": 63,
                "velocity": 51,
                "duration": 0.0840909,
                "tempo": 120.0
            },
            {
                "start_time": 72.2568182,
                "end_time": 72.375,
                "pitch": 65,
                "velocity": 51,
                "duration": 0.1181818,
                "tempo": 120.0
            },
            {
                "start_time": 72.3909091,
                "end_time": 72.475,
                "pitch": 62,
                "velocity": 51,
                "duration": 0.0840909,
                "tempo": 120.0
            },
            {
                "start_time": 72.4931818,
                "end_time": 72.6113636,
                "pitch": 67,
                "velocity": 51,
                "duration": 0.1181818,
                "tempo": 120.0
            },
            {
                "start_time": 72.6295455,
                "end_time": 72.7159091,
                "pitch": 60,
                "velocity": 51,
                "duration": 0.0863636,
                "tempo": 120.0
            },
            {
                "start_time": 72.7318182,
                "end_time": 72.8522727,
                "pitch": 65,
                "velocity": 51,
                "duration": 0.1204545,
                "tempo": 120.0
            },
            {
                "start_time": 72.8704545,
                "end_time": 72.9545455,
                "pitch": 58,
                "velocity": 51,
                "duration": 0.0840909,
                "tempo": 120.0
            },
            {
                "start_time": 72.9727273,
                "end_time": 73.0840909,
                "pitch": 63,
                "velocity": 51,
                "duration": 0.1113636,
                "tempo": 120.0
            },
            {
                "start_time": 73.1,
                "end_time": 73.1795455,
                "pitch": 60,
                "velocity": 51,
                "duration": 0.0795455,
                "tempo": 120.0
            },
            {
                "start_time": 73.1954545,
                "end_time": 73.3090909,
                "pitch": 62,
                "velocity": 51,
                "duration": 0.1136364,
                "tempo": 120.0
            },
            {
                "start_time": 73.325,
                "end_time": 73.4045455,
                "pitch": 60,
                "velocity": 51,
                "duration": 0.0795455,
                "tempo": 120.0
            },
            {
                "start_time": 73.4204545,
                "end_time": 73.5363636,
                "pitch": 58,
                "velocity": 51,
                "duration": 0.1159091,
                "tempo": 120.0
            },
            {
                "start_time": 73.5545455,
                "end_time": 73.6386364,
                "pitch": 65,
                "velocity": 51,
                "duration": 0.0840909,
                "tempo": 120.0
            },
            {
                "start_time": 73.6545455,
                "end_time": 73.7727273,
                "pitch": 60,
                "velocity": 51,
                "duration": 0.1181818,
                "tempo": 120.0
            },
            {
                "start_time": 73.7886364,
                "end_time": 73.8727273,
                "pitch": 63,
                "velocity": 51,
                "duration": 0.0840909,
                "tempo": 120.0
            },
            {
                "start_time": 73.8886364,
                "end_time": 74.0068182,
                "pitch": 62,
                "velocity": 51,
                "duration": 0.1181818,
                "tempo": 120.0
            },
            {
                "start_time": 74.0227273,
                "end_time": 74.1068182,
                "pitch": 58,
                "velocity": 51,
                "duration": 0.0840909,
                "tempo": 120.0
            },
            {
                "start_time": 74.1227273,
                "end_time": 74.2409091,
                "pitch": 60,
                "velocity": 51,
                "duration": 0.1181818,
                "tempo": 120.0
            },
            {
                "start_time": 74.2568182,
                "end_time": 74.3409091,
                "pitch": 58,
                "velocity": 51,
                "duration": 0.0840909,
                "tempo": 120.0
            },
            {
                "start_time": 74.3590909,
                "end_time": 74.4727273,
                "pitch": 56,
                "velocity": 51,
                "duration": 0.1136364,
                "tempo": 120.0
            },
            {
                "start_time": 74.4886364,
                "end_time": 74.5704545,
                "pitch": 55,
                "velocity": 51,
                "duration": 0.0818182,
                "tempo": 120.0
            },
            {
                "start_time": 74.5863636,
                "end_time": 74.7022727,
                "pitch": 56,
                "velocity": 51,
                "duration": 0.1159091,
                "tempo": 120.0
            },
            {
                "start_time": 74.7181818,
                "end_time": 74.8,
                "pitch": 58,
                "velocity": 51,
                "duration": 0.0818182,
                "tempo": 120.0
            },
            {
                "start_time": 74.8159091,
                "end_time": 74.9340909,
                "pitch": 56,
                "velocity": 51,
                "duration": 0.1181818,
                "tempo": 120.0
            },
            {
                "start_time": 74.95,
                "end_time": 75.0340909,
                "pitch": 58,
                "velocity": 51,
                "duration": 0.0840909,
                "tempo": 120.0
            },
            {
                "start_time": 75.05,
                "end_time": 75.1681818,
                "pitch": 55,
                "velocity": 51,
                "duration": 0.1181818,
                "tempo": 120.0
            },
            {
                "start_time": 75.1840909,
                "end_time": 75.2681818,
                "pitch": 60,
                "velocity": 51,
                "duration": 0.0840909,
                "tempo": 120.0
            },
            {
                "start_time": 75.2863636,
                "end_time": 75.4022727,
                "pitch": 56,
                "velocity": 51,
                "duration": 0.1159091,
                "tempo": 120.0
            },
            {
                "start_time": 75.4204545,
                "end_time": 75.5022727,
                "pitch": 62,
                "velocity": 51,
                "duration": 0.0818182,
                "tempo": 120.0
            },
            {
                "start_time": 75.5204545,
                "end_time": 75.6363636,
                "pitch": 58,
                "velocity": 51,
                "duration": 0.1159091,
                "tempo": 120.0
            },
            {
                "start_time": 75.6545455,
                "end_time": 75.7386364,
                "pitch": 63,
                "velocity": 51,
                "duration": 0.0840909,
                "tempo": 120.0
            },
            {
                "start_time": 75.7545455,
                "end_time": 75.8681818,
                "pitch": 58,
                "velocity": 51,
                "duration": 0.1136364,
                "tempo": 120.0
            },
            {
                "start_time": 75.8840909,
                "end_time": 75.9659091,
                "pitch": 65,
                "velocity": 51,
                "duration": 0.0818182,
                "tempo": 120.0
            },
            {
                "start_time": 75.9840909,
                "end_time": 76.0977273,
                "pitch": 58,
                "velocity": 51,
                "duration": 0.1136364,
                "tempo": 120.0
            },
            {
                "start_time": 76.1136364,
                "end_time": 76.1954545,
                "pitch": 61,
                "velocity": 51,
                "duration": 0.0818182,
                "tempo": 120.0
            },
            {
                "start_time": 76.2113636,
                "end_time": 76.3318182,
                "pitch": 65,
                "velocity": 51,
                "duration": 0.1204545,
                "tempo": 120.0
            },
            {
                "start_time": 76.35,
                "end_time": 76.4340909,
                "pitch": 67,
                "velocity": 51,
                "duration": 0.0840909,
                "tempo": 120.0
            },
            {
                "start_time": 76.4522727,
                "end_time": 76.5727273,
                "pitch": 65,
                "velocity": 51,
                "duration": 0.1204545,
                "tempo": 120.0
            },
            {
                "start_time": 76.5886364,
                "end_time": 76.675,
                "pitch": 65,
                "velocity": 51,
                "duration": 0.0863636,
                "tempo": 120.0
            },
            {
                "start_time": 76.6931818,
                "end_time": 76.8068182,
                "pitch": 61,
                "velocity": 51,
                "duration": 0.1136364,
                "tempo": 120.0
            },
            {
                "start_time": 76.8227273,
                "end_time": 76.9045455,
                "pitch": 60,
                "velocity": 51,
                "duration": 0.0818182,
                "tempo": 120.0
            },
            {
                "start_time": 76.9227273,
                "end_time": 77.0363636,
                "pitch": 58,
                "velocity": 51,
                "duration": 0.1136364,
                "tempo": 120.0
            },
            {
                "start_time": 77.0522727,
                "end_time": 77.1340909,
                "pitch": 63,
                "velocity": 51,
                "duration": 0.0818182,
                "tempo": 120.0
            },
            {
                "start_time": 77.15,
                "end_time": 77.2659091,
                "pitch": 62,
                "velocity": 51,
                "duration": 0.1159091,
                "tempo": 120.0
            },
            {
                "start_time": 77.2818182,
                "end_time": 77.3636364,
                "pitch": 58,
                "velocity": 51,
                "duration": 0.0818182,
                "tempo": 120.0
            },
            {
                "start_time": 77.3795455,
                "end_time": 77.4954545,
                "pitch": 56,
                "velocity": 51,
                "duration": 0.1159091,
                "tempo": 120.0
            },
            {
                "start_time": 77.5113636,
                "end_time": 77.5931818,
                "pitch": 60,
                "velocity": 51,
                "duration": 0.0818182,
                "tempo": 120.0
            },
            {
                "start_time": 77.6090909,
                "end_time": 77.7272727,
                "pitch": 58,
                "velocity": 51,
                "duration": 0.1181818,
                "tempo": 120.0
            },
            {
                "start_time": 77.7431818,
                "end_time": 77.8272727,
                "pitch": 55,
                "velocity": 51,
                "duration": 0.0840909,
                "tempo": 120.0
            },
            {
                "start_time": 77.8431818,
                "end_time": 77.9613636,
                "pitch": 56,
                "velocity": 51,
                "duration": 0.1181818,
                "tempo": 120.0
            },
            {
                "start_time": 77.9772727,
                "end_time": 78.0613636,
                "pitch": 53,
                "velocity": 51,
                "duration": 0.0840909,
                "tempo": 120.0
            },
            {
                "start_time": 78.0772727,
                "end_time": 78.2909091,
                "pitch": 65,
                "velocity": 51,
                "duration": 0.2136364,
                "tempo": 120.0
            },
            {
                "start_time": 78.3068182,
                "end_time": 78.4204545,
                "pitch": 65,
                "velocity": 51,
                "duration": 0.1136364,
                "tempo": 120.0
            },
            {
                "start_time": 78.4386364,
                "end_time": 78.5204545,
                "pitch": 63,
                "velocity": 51,
                "duration": 0.0818182,
                "tempo": 120.0
            },
            {
                "start_time": 78.5363636,
                "end_time": 78.6522727,
                "pitch": 60,
                "velocity": 51,
                "duration": 0.1159091,
                "tempo": 120.0
            },
            {
                "start_time": 78.6704545,
                "end_time": 78.7545455,
                "pitch": 58,
                "velocity": 51,
                "duration": 0.0840909,
                "tempo": 120.0
            },
            {
                "start_time": 78.7704545,
                "end_time": 78.9886364,
                "pitch": 65,
                "velocity": 51,
                "duration": 0.2181818,
                "tempo": 120.0
            },
            {
                "start_time": 79.0045455,
                "end_time": 79.1227273,
                "pitch": 65,
                "velocity": 51,
                "duration": 0.1181818,
                "tempo": 120.0
            },
            {
                "start_time": 79.1386364,
                "end_time": 79.2227273,
                "pitch": 63,
                "velocity": 51,
                "duration": 0.0840909,
                "tempo": 120.0
            },
            {
                "start_time": 79.2386364,
                "end_time": 79.3568182,
                "pitch": 60,
                "velocity": 51,
                "duration": 0.1181818,
                "tempo": 120.0
            },
            {
                "start_time": 79.3727273,
                "end_time": 79.4568182,
                "pitch": 58,
                "velocity": 51,
                "duration": 0.0840909,
                "tempo": 120.0
            },
            {
                "start_time": 79.475,
                "end_time": 79.6909091,
                "pitch": 65,
                "velocity": 51,
                "duration": 0.2159091,
                "tempo": 120.0
            },
            {
                "start_time": 79.7090909,
                "end_time": 79.825,
                "pitch": 65,
                "velocity": 51,
                "duration": 0.1159091,
                "tempo": 120.0
            },
            {
                "start_time": 79.8431818,
                "end_time": 79.9272727,
                "pitch": 63,
                "velocity": 51,
                "duration": 0.0840909,
                "tempo": 120.0
            },
            {
                "start_time": 79.9431818,
                "end_time": 80.0568182,
                "pitch": 60,
                "velocity": 51,
                "duration": 0.1136364,
                "tempo": 120.0
            },
            {
                "start_time": 80.075,
                "end_time": 80.1568182,
                "pitch": 58,
                "velocity": 51,
                "duration": 0.0818182,
                "tempo": 120.0
            },
            {
                "start_time": 80.1727273,
                "end_time": 80.3840909,
                "pitch": 65,
                "velocity": 51,
                "duration": 0.2113636,
                "tempo": 120.0
            },
            {
                "start_time": 80.4022727,
                "end_time": 80.5181818,
                "pitch": 65,
                "velocity": 51,
                "duration": 0.1159091,
                "tempo": 120.0
            },
            {
                "start_time": 80.5363636,
                "end_time": 80.6181818,
                "pitch": 63,
                "velocity": 51,
                "duration": 0.0818182,
                "tempo": 120.0
            },
            {
                "start_time": 80.6363636,
                "end_time": 80.7522727,
                "pitch": 60,
                "velocity": 51,
                "duration": 0.1159091,
                "tempo": 120.0
            },
            {
                "start_time": 80.7704545,
                "end_time": 80.8545455,
                "pitch": 58,
                "velocity": 51,
                "duration": 0.0840909,
                "tempo": 120.0
            },
            {
                "start_time": 80.8704545,
                "end_time": 81.0886364,
                "pitch": 65,
                "velocity": 51,
                "duration": 0.2181818,
                "tempo": 120.0
            },
            {
                "start_time": 81.1045455,
                "end_time": 81.2227273,
                "pitch": 65,
                "velocity": 51,
                "duration": 0.1181818,
                "tempo": 120.0
            },
            {
                "start_time": 81.2386364,
                "end_time": 81.3227273,
                "pitch": 63,
                "velocity": 51,
                "duration": 0.0840909,
                "tempo": 120.0
            },
            {
                "start_time": 81.3386364,
                "end_time": 81.4545455,
                "pitch": 60,
                "velocity": 51,
                "duration": 0.1159091,
                "tempo": 120.0
            },
            {
                "start_time": 81.4704545,
                "end_time": 81.5522727,
                "pitch": 58,
                "velocity": 51,
                "duration": 0.0818182,
                "tempo": 120.0
            },
            {
                "start_time": 81.5681818,
                "end_time": 81.7818182,
                "pitch": 65,
                "velocity": 51,
                "duration": 0.2136364,
                "tempo": 120.0
            },
            {
                "start_time": 81.7977273,
                "end_time": 81.9136364,
                "pitch": 65,
                "velocity": 51,
                "duration": 0.1159091,
                "tempo": 120.0
            },
            {
                "start_time": 81.9318182,
                "end_time": 82.0159091,
                "pitch": 63,
                "velocity": 51,
                "duration": 0.0840909,
                "tempo": 120.0
            },
            {
                "start_time": 82.0318182,
                "end_time": 82.15,
                "pitch": 60,
                "velocity": 51,
                "duration": 0.1181818,
                "tempo": 120.0
            },
            {
                "start_time": 82.1659091,
                "end_time": 82.25,
                "pitch": 58,
                "velocity": 51,
                "duration": 0.0840909,
                "tempo": 120.0
            },
            {
                "start_time": 82.2659091,
                "end_time": 82.4840909,
                "pitch": 65,
                "velocity": 51,
                "duration": 0.2181818,
                "tempo": 120.0
            },
            {
                "start_time": 82.5,
                "end_time": 82.6181818,
                "pitch": 65,
                "velocity": 51,
                "duration": 0.1181818,
                "tempo": 120.0
            },
            {
                "start_time": 82.6340909,
                "end_time": 82.7181818,
                "pitch": 63,
                "velocity": 51,
                "duration": 0.0840909,
                "tempo": 120.0
            },
            {
                "start_time": 82.7363636,
                "end_time": 82.85,
                "pitch": 60,
                "velocity": 51,
                "duration": 0.1136364,
                "tempo": 120.0
            },
            {
                "start_time": 82.8659091,
                "end_time": 82.9477273,
                "pitch": 58,
                "velocity": 51,
                "duration": 0.0818182,
                "tempo": 120.0
            },
            {
                "start_time": 82.9636364,
                "end_time": 83.1772727,
                "pitch": 65,
                "velocity": 51,
                "duration": 0.2136364,
                "tempo": 120.0
            },
            {
                "start_time": 83.1931818,
                "end_time": 83.3113636,
                "pitch": 65,
                "velocity": 51,
                "duration": 0.1181818,
                "tempo": 120.0
            },
            {
                "start_time": 83.3272727,
                "end_time": 83.4113636,
                "pitch": 63,
                "velocity": 51,
                "duration": 0.0840909,
                "tempo": 120.0
            },
            {
                "start_time": 83.4272727,
                "end_time": 83.5454545,
                "pitch": 60,
                "velocity": 51,
                "duration": 0.1181818,
                "tempo": 120.0
            },
            {
                "start_time": 83.5613636,
                "end_time": 83.6454545,
                "pitch": 58,
                "velocity": 51,
                "duration": 0.0840909,
                "tempo": 120.0
            },
            {
                "start_time": 83.6636364,
                "end_time": 83.8795455,
                "pitch": 65,
                "velocity": 51,
                "duration": 0.2159091,
                "tempo": 120.0
            },
            {
                "start_time": 83.8977273,
                "end_time": 84.0136364,
                "pitch": 65,
                "velocity": 51,
                "duration": 0.1159091,
                "tempo": 120.0
            },
            {
                "start_time": 84.0318182,
                "end_time": 84.1159091,
                "pitch": 63,
                "velocity": 51,
                "duration": 0.0840909,
                "tempo": 120.0
            },
            {
                "start_time": 84.1318182,
                "end_time": 84.2454545,
                "pitch": 60,
                "velocity": 51,
                "duration": 0.1136364,
                "tempo": 120.0
            },
            {
                "start_time": 84.2613636,
                "end_time": 84.3431818,
                "pitch": 58,
                "velocity": 51,
                "duration": 0.0818182,
                "tempo": 120.0
            },
            {
                "start_time": 84.3613636,
                "end_time": 84.5727273,
                "pitch": 65,
                "velocity": 51,
                "duration": 0.2113636,
                "tempo": 120.0
            },
            {
                "start_time": 84.5886364,
                "end_time": 84.7068182,
                "pitch": 65,
                "velocity": 51,
                "duration": 0.1181818,
                "tempo": 120.0
            },
            {
                "start_time": 84.7227273,
                "end_time": 84.8068182,
                "pitch": 63,
                "velocity": 51,
                "duration": 0.0840909,
                "tempo": 120.0
            },
            {
                "start_time": 84.825,
                "end_time": 85.0409091,
                "pitch": 65,
                "velocity": 51,
                "duration": 0.2159091,
                "tempo": 120.0
            },
            {
                "start_time": 85.0590909,
                "end_time": 85.175,
                "pitch": 65,
                "velocity": 51,
                "duration": 0.1159091,
                "tempo": 120.0
            },
            {
                "start_time": 85.1931818,
                "end_time": 85.2772727,
                "pitch": 63,
                "velocity": 51,
                "duration": 0.0840909,
                "tempo": 120.0
            },
            {
                "start_time": 85.2931818,
                "end_time": 85.4113636,
                "pitch": 60,
                "velocity": 51,
                "duration": 0.1181818,
                "tempo": 120.0
            },
            {
                "start_time": 85.4272727,
                "end_time": 85.5113636,
                "pitch": 58,
                "velocity": 51,
                "duration": 0.0840909,
                "tempo": 120.0
            },
            {
                "start_time": 85.5272727,
                "end_time": 85.7409091,
                "pitch": 65,
                "velocity": 51,
                "duration": 0.2136364,
                "tempo": 120.0
            },
            {
                "start_time": 85.7568182,
                "end_time": 85.8704545,
                "pitch": 65,
                "velocity": 51,
                "duration": 0.1136364,
                "tempo": 120.0
            },
            {
                "start_time": 85.8886364,
                "end_time": 85.9704545,
                "pitch": 63,
                "velocity": 51,
                "duration": 0.0818182,
                "tempo": 120.0
            },
            {
                "start_time": 85.9863636,
                "end_time": 86.1022727,
                "pitch": 60,
                "velocity": 51,
                "duration": 0.1159091,
                "tempo": 120.0
            },
            {
                "start_time": 86.1204545,
                "end_time": 86.2045455,
                "pitch": 58,
                "velocity": 51,
                "duration": 0.0840909,
                "tempo": 120.0
            },
            {
                "start_time": 86.2204545,
                "end_time": 86.4386364,
                "pitch": 65,
                "velocity": 51,
                "duration": 0.2181818,
                "tempo": 120.0
            },
            {
                "start_time": 86.4545455,
                "end_time": 86.5727273,
                "pitch": 65,
                "velocity": 51,
                "duration": 0.1181818,
                "tempo": 120.0
            },
            {
                "start_time": 86.5886364,
                "end_time": 86.6727273,
                "pitch": 63,
                "velocity": 51,
                "duration": 0.0840909,
                "tempo": 120.0
            },
            {
                "start_time": 86.6886364,
                "end_time": 86.8068182,
                "pitch": 60,
                "velocity": 51,
                "duration": 0.1181818,
                "tempo": 120.0
            },
            {
                "start_time": 86.8227273,
                "end_time": 86.9068182,
                "pitch": 58,
                "velocity": 51,
                "duration": 0.0840909,
                "tempo": 120.0
            },
            {
                "start_time": 86.925,
                "end_time": 87.1363636,
                "pitch": 65,
                "velocity": 51,
                "duration": 0.2113636,
                "tempo": 120.0
            },
            {
                "start_time": 87.1522727,
                "end_time": 87.2681818,
                "pitch": 65,
                "velocity": 51,
                "duration": 0.1159091,
                "tempo": 120.0
            },
            {
                "start_time": 87.2840909,
                "end_time": 87.3659091,
                "pitch": 63,
                "velocity": 51,
                "duration": 0.0818182,
                "tempo": 120.0
            },
            {
                "start_time": 87.3818182,
                "end_time": 87.5,
                "pitch": 60,
                "velocity": 51,
                "duration": 0.1181818,
                "tempo": 120.0
            },
            {
                "start_time": 87.5159091,
                "end_time": 87.6,
                "pitch": 58,
                "velocity": 51,
                "duration": 0.0840909,
                "tempo": 120.0
            },
            {
                "start_time": 87.6159091,
                "end_time": 87.8340909,
                "pitch": 65,
                "velocity": 51,
                "duration": 0.2181818,
                "tempo": 120.0
            },
            {
                "start_time": 87.85,
                "end_time": 87.9681818,
                "pitch": 65,
                "velocity": 51,
                "duration": 0.1181818,
                "tempo": 120.0
            },
            {
                "start_time": 87.9840909,
                "end_time": 88.0681818,
                "pitch": 63,
                "velocity": 51,
                "duration": 0.0840909,
                "tempo": 120.0
            },
            {
                "start_time": 88.0863636,
                "end_time": 88.2022727,
                "pitch": 60,
                "velocity": 51,
                "duration": 0.1159091,
                "tempo": 120.0
            },
            {
                "start_time": 88.2204545,
                "end_time": 88.3022727,
                "pitch": 58,
                "velocity": 51,
                "duration": 0.0818182,
                "tempo": 120.0
            },
            {
                "start_time": 88.3204545,
                "end_time": 88.5318182,
                "pitch": 65,
                "velocity": 51,
                "duration": 0.2113636,
                "tempo": 120.0
            },
            {
                "start_time": 88.55,
                "end_time": 88.6636364,
                "pitch": 65,
                "velocity": 51,
                "duration": 0.1136364,
                "tempo": 120.0
            },
            {
                "start_time": 88.6795455,
                "end_time": 88.7613636,
                "pitch": 63,
                "velocity": 51,
                "duration": 0.0818182,
                "tempo": 120.0
            },
            {
                "start_time": 88.7772727,
                "end_time": 88.8954545,
                "pitch": 60,
                "velocity": 51,
                "duration": 0.1181818,
                "tempo": 120.0
            },
            {
                "start_time": 88.9113636,
                "end_time": 88.9954545,
                "pitch": 58,
                "velocity": 51,
                "duration": 0.0840909,
                "tempo": 120.0
            },
            {
                "start_time": 89.0136364,
                "end_time": 89.2295455,
                "pitch": 65,
                "velocity": 51,
                "duration": 0.2159091,
                "tempo": 120.0
            },
            {
                "start_time": 89.2477273,
                "end_time": 89.3636364,
                "pitch": 65,
                "velocity": 51,
                "duration": 0.1159091,
                "tempo": 120.0
            },
            {
                "start_time": 89.3818182,
                "end_time": 89.4659091,
                "pitch": 63,
                "velocity": 51,
                "duration": 0.0840909,
                "tempo": 120.0
            },
            {
                "start_time": 89.4818182,
                "end_time": 89.6,
                "pitch": 60,
                "velocity": 51,
                "duration": 0.1181818,
                "tempo": 120.0
            },
            {
                "start_time": 89.6159091,
                "end_time": 89.7,
                "pitch": 58,
                "velocity": 51,
                "duration": 0.0840909,
                "tempo": 120.0
            },
            {
                "start_time": 89.7159091,
                "end_time": 89.9295455,
                "pitch": 65,
                "velocity": 51,
                "duration": 0.2136364,
                "tempo": 120.0
            },
            {
                "start_time": 89.9454545,
                "end_time": 90.0590909,
                "pitch": 65,
                "velocity": 51,
                "duration": 0.1136364,
                "tempo": 120.0
            },
            {
                "start_time": 90.0772727,
                "end_time": 90.1590909,
                "pitch": 63,
                "velocity": 51,
                "duration": 0.0818182,
                "tempo": 120.0
            },
            {
                "start_time": 90.175,
                "end_time": 90.2909091,
                "pitch": 60,
                "velocity": 51,
                "duration": 0.1159091,
                "tempo": 120.0
            },
            {
                "start_time": 90.3090909,
                "end_time": 90.3931818,
                "pitch": 58,
                "velocity": 51,
                "duration": 0.0840909,
                "tempo": 120.0
            },
            {
                "start_time": 90.4090909,
                "end_time": 90.6272727,
                "pitch": 65,
                "velocity": 51,
                "duration": 0.2181818,
                "tempo": 120.0
            },
            {
                "start_time": 90.6431818,
                "end_time": 90.7613636,
                "pitch": 65,
                "velocity": 51,
                "duration": 0.1181818,
                "tempo": 120.0
            },
            {
                "start_time": 90.7772727,
                "end_time": 90.8613636,
                "pitch": 63,
                "velocity": 51,
                "duration": 0.0840909,
                "tempo": 120.0
            },
            {
                "start_time": 90.8772727,
                "end_time": 90.9954545,
                "pitch": 60,
                "velocity": 51,
                "duration": 0.1181818,
                "tempo": 120.0
            },
            {
                "start_time": 91.0113636,
                "end_time": 91.0954545,
                "pitch": 58,
                "velocity": 51,
                "duration": 0.0840909,
                "tempo": 120.0
            },
            {
                "start_time": 91.1113636,
                "end_time": 91.325,
                "pitch": 65,
                "velocity": 51,
                "duration": 0.2136364,
                "tempo": 120.0
            },
            {
                "start_time": 91.3409091,
                "end_time": 91.4568182,
                "pitch": 65,
                "velocity": 51,
                "duration": 0.1159091,
                "tempo": 120.0
            },
            {
                "start_time": 91.4727273,
                "end_time": 91.5545455,
                "pitch": 63,
                "velocity": 51,
                "duration": 0.0818182,
                "tempo": 120.0
            },
            {
                "start_time": 91.5704545,
                "end_time": 91.6886364,
                "pitch": 60,
                "velocity": 51,
                "duration": 0.1181818,
                "tempo": 120.0
            },
            {
                "start_time": 91.7045455,
                "end_time": 91.7886364,
                "pitch": 58,
                "velocity": 51,
                "duration": 0.0840909,
                "tempo": 120.0
            },
            {
                "start_time": 91.8045455,
                "end_time": 92.0227273,
                "pitch": 65,
                "velocity": 51,
                "duration": 0.2181818,
                "tempo": 120.0
            },
            {
                "start_time": 92.0386364,
                "end_time": 92.1568182,
                "pitch": 65,
                "velocity": 51,
                "duration": 0.1181818,
                "tempo": 120.0
            },
            {
                "start_time": 92.1727273,
                "end_time": 92.2568182,
                "pitch": 63,
                "velocity": 51,
                "duration": 0.0840909,
                "tempo": 120.0
            },
            {
                "start_time": 92.275,
                "end_time": 92.4909091,
                "pitch": 65,
                "velocity": 51,
                "duration": 0.2159091,
                "tempo": 120.0
            },
            {
                "start_time": 92.5090909,
                "end_time": 92.6227273,
                "pitch": 65,
                "velocity": 51,
                "duration": 0.1136364,
                "tempo": 120.0
            },
            {
                "start_time": 92.6386364,
                "end_time": 92.7204545,
                "pitch": 63,
                "velocity": 51,
                "duration": 0.0818182,
                "tempo": 120.0
            },
            {
                "start_time": 92.7386364,
                "end_time": 92.8522727,
                "pitch": 60,
                "velocity": 51,
                "duration": 0.1136364,
                "tempo": 120.0
            },
            {
                "start_time": 92.8681818,
                "end_time": 92.9659091,
                "pitch": 58,
                "velocity": 51,
                "duration": 0.0977273,
                "tempo": 120.0
            }
        ],
        "Acoustic Bass": [
            {
                "start_time": 3.6295455,
                "end_time": 5.475,
                "pitch": 34,
                "velocity": 51,
                "duration": 1.8454545,
                "tempo": 120.0
            },
            {
                "start_time": 6.4204545,
                "end_time": 7.3409091,
                "pitch": 36,
                "velocity": 51,
                "duration": 0.9204545,
                "tempo": 120.0
            },
            {
                "start_time": 7.3568182,
                "end_time": 9.1954545,
                "pitch": 36,
                "velocity": 51,
                "duration": 1.8386364,
                "tempo": 120.0
            },
            {
                "start_time": 10.3840909,
                "end_time": 10.5022727,
                "pitch": 68,
                "velocity": 51,
                "duration": 0.1181818,
                "tempo": 120.0
            },
            {
                "start_time": 10.5181818,
                "end_time": 10.6022727,
                "pitch": 68,
                "velocity": 51,
                "duration": 0.0840909,
                "tempo": 120.0
            },
            {
                "start_time": 11.0886364,
                "end_time": 11.4227273,
                "pitch": 34,
                "velocity": 51,
                "duration": 0.3340909,
                "tempo": 120.0
            },
            {
                "start_time": 11.4386364,
                "end_time": 11.5204545,
                "pitch": 41,
                "velocity": 51,
                "duration": 0.0818182,
                "tempo": 120.0
            },
            {
                "start_time": 11.6727273,
                "end_time": 11.7590909,
                "pitch": 41,
                "velocity": 51,
                "duration": 0.0863636,
                "tempo": 120.0
            },
            {
                "start_time": 11.9136364,
                "end_time": 11.9977273,
                "pitch": 41,
                "velocity": 51,
                "duration": 0.0840909,
                "tempo": 120.0
            },
            {
                "start_time": 12.0159091,
                "end_time": 12.6909091,
                "pitch": 46,
                "velocity": 51,
                "duration": 0.675,
                "tempo": 120.0
            },
            {
                "start_time": 12.7090909,
                "end_time": 12.825,
                "pitch": 46,
                "velocity": 51,
                "duration": 0.1159091,
                "tempo": 120.0
            },
            {
                "start_time": 12.8431818,
                "end_time": 12.925,
                "pitch": 46,
                "velocity": 51,
                "duration": 0.0818182,
                "tempo": 120.0
            },
            {
                "start_time": 12.9431818,
                "end_time": 13.2863636,
                "pitch": 34,
                "velocity": 51,
                "duration": 0.3431818,
                "tempo": 120.0
            },
            {
                "start_time": 13.3022727,
                "end_time": 13.3840909,
                "pitch": 41,
                "velocity": 51,
                "duration": 0.0818182,
                "tempo": 120.0
            },
            {
                "start_time": 13.5340909,
                "end_time": 13.6181818,
                "pitch": 41,
                "velocity": 51,
                "duration": 0.0840909,
                "tempo": 120.0
            },
            {
                "start_time": 13.7704545,
                "end_time": 13.8522727,
                "pitch": 41,
                "velocity": 51,
                "duration": 0.0818182,
                "tempo": 120.0
            },
            {
                "start_time": 13.8704545,
                "end_time": 14.7818182,
                "pitch": 46,
                "velocity": 51,
                "duration": 0.9113636,
                "tempo": 120.0
            },
            {
                "start_time": 14.7977273,
                "end_time": 15.1477273,
                "pitch": 36,
                "velocity": 51,
                "duration": 0.35,
                "tempo": 120.0
            },
            {
                "start_time": 15.1659091,
                "end_time": 15.25,
                "pitch": 43,
                "velocity": 51,
                "duration": 0.0840909,
                "tempo": 120.0
            },
            {
                "start_time": 15.4,
                "end_time": 15.4840909,
                "pitch": 43,
                "velocity": 51,
                "duration": 0.0840909,
                "tempo": 120.0
            },
            {
                "start_time": 15.6340909,
                "end_time": 15.7181818,
                "pitch": 43,
                "velocity": 51,
                "duration": 0.0840909,
                "tempo": 120.0
            },
            {
                "start_time": 15.7340909,
                "end_time": 16.4113636,
                "pitch": 48,
                "velocity": 51,
                "duration": 0.6772727,
                "tempo": 120.0
            },
            {
                "start_time": 16.4272727,
                "end_time": 16.5454545,
                "pitch": 48,
                "velocity": 51,
                "duration": 0.1181818,
                "tempo": 120.0
            },
            {
                "start_time": 16.5613636,
                "end_time": 16.6454545,
                "pitch": 48,
                "velocity": 51,
                "duration": 0.0840909,
                "tempo": 120.0
            },
            {
                "start_time": 16.6613636,
                "end_time": 17.0136364,
                "pitch": 36,
                "velocity": 51,
                "duration": 0.3522727,
                "tempo": 120.0
            },
            {
                "start_time": 17.0318182,
                "end_time": 17.1136364,
                "pitch": 43,
                "velocity": 51,
                "duration": 0.0818182,
                "tempo": 120.0
            },
            {
                "start_time": 17.2659091,
                "end_time": 17.35,
                "pitch": 43,
                "velocity": 51,
                "duration": 0.0840909,
                "tempo": 120.0
            },
            {
                "start_time": 17.5,
                "end_time": 17.5840909,
                "pitch": 43,
                "velocity": 51,
                "duration": 0.0840909,
                "tempo": 120.0
            },
            {
                "start_time": 17.6,
                "end_time": 18.5113636,
                "pitch": 48,
                "velocity": 51,
                "duration": 0.9113636,
                "tempo": 120.0
            },
            {
                "start_time": 18.5272727,
                "end_time": 18.8704545,
                "pitch": 34,
                "velocity": 51,
                "duration": 0.3431818,
                "tempo": 120.0
            },
            {
                "start_time": 18.8863636,
                "end_time": 18.9681818,
                "pitch": 41,
                "velocity": 51,
                "duration": 0.0818182,
                "tempo": 120.0
            },
            {
                "start_time": 18.9863636,
                "end_time": 19.4386364,
                "pitch": 41,
                "velocity": 51,
                "duration": 0.4522727,
                "tempo": 120.0
            },
            {
                "start_time": 19.4545455,
                "end_time": 19.8113636,
                "pitch": 34,
                "velocity": 51,
                "duration": 0.3568182,
                "tempo": 120.0
            },
            {
                "start_time": 19.8295455,
                "end_time": 19.9136364,
                "pitch": 41,
                "velocity": 51,
                "duration": 0.0840909,
                "tempo": 120.0
            },
            {
                "start_time": 19.9318182,
                "end_time": 20.1431818,
                "pitch": 41,
                "velocity": 51,
                "duration": 0.2113636,
                "tempo": 120.0
            },
            {
                "start_time": 20.1613636,
                "end_time": 20.275,
                "pitch": 46,
                "velocity": 51,
                "duration": 0.1136364,
                "tempo": 120.0
            },
            {
                "start_time": 20.2909091,
                "end_time": 20.3727273,
                "pitch": 41,
                "velocity": 51,
                "duration": 0.0818182,
                "tempo": 120.0
            },
            {
                "start_time": 20.3886364,
                "end_time": 20.7340909,
                "pitch": 34,
                "velocity": 51,
                "duration": 0.3454545,
                "tempo": 120.0
            },
            {
                "start_time": 20.75,
                "end_time": 20.8318182,
                "pitch": 41,
                "velocity": 51,
                "duration": 0.0818182,
                "tempo": 120.0
            },
            {
                "start_time": 20.8477273,
                "end_time": 21.3,
                "pitch": 41,
                "velocity": 51,
                "duration": 0.4522727,
                "tempo": 120.0
            },
            {
                "start_time": 21.3159091,
                "end_time": 21.6681818,
                "pitch": 34,
                "velocity": 51,
                "duration": 0.3522727,
                "tempo": 120.0
            },
            {
                "start_time": 21.6840909,
                "end_time": 21.7681818,
                "pitch": 41,
                "velocity": 51,
                "duration": 0.0840909,
                "tempo": 120.0
            },
            {
                "start_time": 21.7863636,
                "end_time": 21.9977273,
                "pitch": 41,
                "velocity": 51,
                "duration": 0.2113636,
                "tempo": 120.0
            },
            {
                "start_time": 22.0136364,
                "end_time": 22.2272727,
                "pitch": 34,
                "velocity": 51,
                "duration": 0.2136364,
                "tempo": 120.0
            },
            {
                "start_time": 22.2431818,
                "end_time": 22.6954545,
                "pitch": 36,
                "velocity": 51,
                "duration": 0.4522727,
                "tempo": 120.0
            },
            {
                "start_time": 22.7136364,
                "end_time": 23.1545455,
                "pitch": 43,
                "velocity": 51,
                "duration": 0.4409091,
                "tempo": 120.0
            },
            {
                "start_time": 23.1704545,
                "end_time": 23.5295455,
                "pitch": 36,
                "velocity": 51,
                "duration": 0.3590909,
                "tempo": 120.0
            },
            {
                "start_time": 23.5477273,
                "end_time": 23.6340909,
                "pitch": 43,
                "velocity": 51,
                "duration": 0.0863636,
                "tempo": 120.0
            },
            {
                "start_time": 23.65,
                "end_time": 23.8636364,
                "pitch": 43,
                "velocity": 51,
                "duration": 0.2136364,
                "tempo": 120.0
            },
            {
                "start_time": 23.8795455,
                "end_time": 23.9954545,
                "pitch": 48,
                "velocity": 51,
                "duration": 0.1159091,
                "tempo": 120.0
            },
            {
                "start_time": 24.0113636,
                "end_time": 24.0931818,
                "pitch": 43,
                "velocity": 51,
                "duration": 0.0818182,
                "tempo": 120.0
            },
            {
                "start_time": 24.1090909,
                "end_time": 24.55,
                "pitch": 36,
                "velocity": 51,
                "duration": 0.4409091,
                "tempo": 120.0
            },
            {
                "start_time": 24.5681818,
                "end_time": 25.0204545,
                "pitch": 43,
                "velocity": 51,
                "duration": 0.4522727,
                "tempo": 120.0
            },
            {
                "start_time": 25.0363636,
                "end_time": 25.3954545,
                "pitch": 36,
                "velocity": 51,
                "duration": 0.3590909,
                "tempo": 120.0
            },
            {
                "start_time": 25.4136364,
                "end_time": 25.5,
                "pitch": 43,
                "velocity": 51,
                "duration": 0.0863636,
                "tempo": 120.0
            },
            {
                "start_time": 25.5159091,
                "end_time": 25.7295455,
                "pitch": 43,
                "velocity": 51,
                "duration": 0.2136364,
                "tempo": 120.0
            },
            {
                "start_time": 25.7454545,
                "end_time": 25.9590909,
                "pitch": 36,
                "velocity": 51,
                "duration": 0.2136364,
                "tempo": 120.0
            },
            {
                "start_time": 25.975,
                "end_time": 27.8113636,
                "pitch": 34,
                "velocity": 51,
                "duration": 1.8363636,
                "tempo": 120.0
            },
            {
                "start_time": 28.7568182,
                "end_time": 29.6772727,
                "pitch": 36,
                "velocity": 51,
                "duration": 0.9204545,
                "tempo": 120.0
            },
            {
                "start_time": 29.6954545,
                "end_time": 31.5431818,
                "pitch": 36,
                "velocity": 51,
                "duration": 1.8477273,
                "tempo": 120.0
            },
            {
                "start_time": 33.4136364,
                "end_time": 33.7590909,
                "pitch": 34,
                "velocity": 51,
                "duration": 0.3454545,
                "tempo": 120.0
            },
            {
                "start_time": 33.775,
                "end_time": 33.8568182,
                "pitch": 41,
                "velocity": 51,
                "duration": 0.0818182,
                "tempo": 120.0
            },
            {
                "start_time": 34.0090909,
                "end_time": 34.0931818,
                "pitch": 41,
                "velocity": 51,
                "duration": 0.0840909,
                "tempo": 120.0
            },
            {
                "start_time": 34.2477273,
                "end_time": 34.3318182,
                "pitch": 41,
                "velocity": 51,
                "duration": 0.0840909,
                "tempo": 120.0
            },
            {
                "start_time": 34.3477273,
                "end_time": 35.025,
                "pitch": 46,
                "velocity": 51,
                "duration": 0.6772727,
                "tempo": 120.0
            },
            {
                "start_time": 35.0409091,
                "end_time": 35.1590909,
                "pitch": 46,
                "velocity": 51,
                "duration": 0.1181818,
                "tempo": 120.0
            },
            {
                "start_time": 35.175,
                "end_time": 35.2590909,
                "pitch": 46,
                "velocity": 51,
                "duration": 0.0840909,
                "tempo": 120.0
            },
            {
                "start_time": 35.275,
                "end_time": 35.6204545,
                "pitch": 34,
                "velocity": 51,
                "duration": 0.3454545,
                "tempo": 120.0
            },
            {
                "start_time": 35.6363636,
                "end_time": 35.7181818,
                "pitch": 41,
                "velocity": 51,
                "duration": 0.0818182,
                "tempo": 120.0
            },
            {
                "start_time": 35.8681818,
                "end_time": 35.9522727,
                "pitch": 41,
                "velocity": 51,
                "duration": 0.0840909,
                "tempo": 120.0
            },
            {
                "start_time": 36.1022727,
                "end_time": 36.1863636,
                "pitch": 41,
                "velocity": 51,
                "duration": 0.0840909,
                "tempo": 120.0
            },
            {
                "start_time": 36.2022727,
                "end_time": 37.1136364,
                "pitch": 46,
                "velocity": 51,
                "duration": 0.9113636,
                "tempo": 120.0
            },
            {
                "start_time": 37.1295455,
                "end_time": 37.4818182,
                "pitch": 36,
                "velocity": 51,
                "duration": 0.3522727,
                "tempo": 120.0
            },
            {
                "start_time": 37.4977273,
                "end_time": 37.5818182,
                "pitch": 43,
                "velocity": 51,
                "duration": 0.0840909,
                "tempo": 120.0
            },
            {
                "start_time": 37.7340909,
                "end_time": 37.8181818,
                "pitch": 43,
                "velocity": 51,
                "duration": 0.0840909,
                "tempo": 120.0
            },
            {
                "start_time": 37.9681818,
                "end_time": 38.0522727,
                "pitch": 43,
                "velocity": 51,
                "duration": 0.0840909,
                "tempo": 120.0
            },
            {
                "start_time": 38.0681818,
                "end_time": 38.7431818,
                "pitch": 48,
                "velocity": 51,
                "duration": 0.675,
                "tempo": 120.0
            },
            {
                "start_time": 38.7613636,
                "end_time": 38.8772727,
                "pitch": 48,
                "velocity": 51,
                "duration": 0.1159091,
                "tempo": 120.0
            },
            {
                "start_time": 38.8954545,
                "end_time": 38.9795455,
                "pitch": 48,
                "velocity": 51,
                "duration": 0.0840909,
                "tempo": 120.0
            },
            {
                "start_time": 38.9954545,
                "end_time": 39.3477273,
                "pitch": 36,
                "velocity": 51,
                "duration": 0.3522727,
                "tempo": 120.0
            },
            {
                "start_time": 39.3636364,
                "end_time": 39.4477273,
                "pitch": 43,
                "velocity": 51,
                "duration": 0.0840909,
                "tempo": 120.0
            },
            {
                "start_time": 39.5977273,
                "end_time": 39.6818182,
                "pitch": 43,
                "velocity": 51,
                "duration": 0.0840909,
                "tempo": 120.0
            },
            {
                "start_time": 39.8340909,
                "end_time": 39.9159091,
                "pitch": 43,
                "velocity": 51,
                "duration": 0.0818182,
                "tempo": 120.0
            },
            {
                "start_time": 39.9340909,
                "end_time": 40.8431818,
                "pitch": 48,
                "velocity": 51,
                "duration": 0.9090909,
                "tempo": 120.0
            },
            {
                "start_time": 40.8613636,
                "end_time": 41.2045455,
                "pitch": 34,
                "velocity": 51,
                "duration": 0.3431818,
                "tempo": 120.0
            },
            {
                "start_time": 41.2204545,
                "end_time": 41.3022727,
                "pitch": 41,
                "velocity": 51,
                "duration": 0.0818182,
                "tempo": 120.0
            },
            {
                "start_time": 41.3181818,
                "end_time": 41.7772727,
                "pitch": 41,
                "velocity": 51,
                "duration": 0.4590909,
                "tempo": 120.0
            },
            {
                "start_time": 41.7954545,
                "end_time": 42.1477273,
                "pitch": 34,
                "velocity": 51,
                "duration": 0.3522727,
                "tempo": 120.0
            },
            {
                "start_time": 42.1636364,
                "end_time": 42.2477273,
                "pitch": 41,
                "velocity": 51,
                "duration": 0.0840909,
                "tempo": 120.0
            },
            {
                "start_time": 42.2636364,
                "end_time": 42.4727273,
                "pitch": 41,
                "velocity": 51,
                "duration": 0.2090909,
                "tempo": 120.0
            },
            {
                "start_time": 42.4886364,
                "end_time": 42.6,
                "pitch": 46,
                "velocity": 51,
                "duration": 0.1113636,
                "tempo": 120.0
            },
            {
                "start_time": 42.6159091,
                "end_time": 42.6954545,
                "pitch": 41,
                "velocity": 51,
                "duration": 0.0795455,
                "tempo": 120.0
            },
            {
                "start_time": 42.7113636,
                "end_time": 43.0636364,
                "pitch": 34,
                "velocity": 51,
                "duration": 0.3522727,
                "tempo": 120.0
            },
            {
                "start_time": 43.0795455,
                "end_time": 43.1636364,
                "pitch": 41,
                "velocity": 51,
                "duration": 0.0840909,
                "tempo": 120.0
            },
            {
                "start_time": 43.1818182,
                "end_time": 43.6340909,
                "pitch": 41,
                "velocity": 51,
                "duration": 0.4522727,
                "tempo": 120.0
            },
            {
                "start_time": 43.65,
                "end_time": 44.0022727,
                "pitch": 34,
                "velocity": 51,
                "duration": 0.3522727,
                "tempo": 120.0
            },
            {
                "start_time": 44.0181818,
                "end_time": 44.1022727,
                "pitch": 41,
                "velocity": 51,
                "duration": 0.0840909,
                "tempo": 120.0
            },
            {
                "start_time": 44.1181818,
                "end_time": 44.3318182,
                "pitch": 41,
                "velocity": 51,
                "duration": 0.2136364,
                "tempo": 120.0
            },
            {
                "start_time": 44.3477273,
                "end_time": 44.5613636,
                "pitch": 34,
                "velocity": 51,
                "duration": 0.2136364,
                "tempo": 120.0
            },
            {
                "start_time": 44.5772727,
                "end_time": 45.0295455,
                "pitch": 36,
                "velocity": 51,
                "duration": 0.4522727,
                "tempo": 120.0
            },
            {
                "start_time": 45.0454545,
                "end_time": 45.4977273,
                "pitch": 43,
                "velocity": 51,
                "duration": 0.4522727,
                "tempo": 120.0
            },
            {
                "start_time": 45.5159091,
                "end_time": 45.8659091,
                "pitch": 36,
                "velocity": 51,
                "duration": 0.35,
                "tempo": 120.0
            },
            {
                "start_time": 45.8840909,
                "end_time": 45.9681818,
                "pitch": 43,
                "velocity": 51,
                "duration": 0.0840909,
                "tempo": 120.0
            },
            {
                "start_time": 45.9840909,
                "end_time": 46.1977273,
                "pitch": 43,
                "velocity": 51,
                "duration": 0.2136364,
                "tempo": 120.0
            },
            {
                "start_time": 46.2136364,
                "end_time": 46.3272727,
                "pitch": 48,
                "velocity": 51,
                "duration": 0.1136364,
                "tempo": 120.0
            },
            {
                "start_time": 46.3431818,
                "end_time": 46.425,
                "pitch": 43,
                "velocity": 51,
                "duration": 0.0818182,
                "tempo": 120.0
            },
            {
                "start_time": 46.4431818,
                "end_time": 46.8840909,
                "pitch": 36,
                "velocity": 51,
                "duration": 0.4409091,
                "tempo": 120.0
            },
            {
                "start_time": 46.9,
                "end_time": 47.3522727,
                "pitch": 43,
                "velocity": 51,
                "duration": 0.4522727,
                "tempo": 120.0
            },
            {
                "start_time": 47.3704545,
                "end_time": 47.7272727,
                "pitch": 36,
                "velocity": 51,
                "duration": 0.3568182,
                "tempo": 120.0
            },
            {
                "start_time": 47.7431818,
                "end_time": 47.8295455,
                "pitch": 43,
                "velocity": 51,
                "duration": 0.0863636,
                "tempo": 120.0
            },
            {
                "start_time": 47.8454545,
                "end_time": 48.0590909,
                "pitch": 43,
                "velocity": 51,
                "duration": 0.2136364,
                "tempo": 120.0
            },
            {
                "start_time": 48.075,
                "end_time": 48.2886364,
                "pitch": 36,
                "velocity": 51,
                "duration": 0.2136364,
                "tempo": 120.0
            },
            {
                "start_time": 48.5340909,
                "end_time": 48.6477273,
                "pitch": 41,
                "velocity": 51,
                "duration": 0.1136364,
                "tempo": 120.0
            },
            {
                "start_time": 48.8954545,
                "end_time": 48.9795455,
                "pitch": 41,
                "velocity": 51,
                "duration": 0.0840909,
                "tempo": 120.0
            },
            {
                "start_time": 49.2318182,
                "end_time": 50.1409091,
                "pitch": 41,
                "velocity": 51,
                "duration": 0.9090909,
                "tempo": 120.0
            },
            {
                "start_time": 50.3977273,
                "end_time": 50.5181818,
                "pitch": 43,
                "velocity": 51,
                "duration": 0.1204545,
                "tempo": 120.0
            },
            {
                "start_time": 50.7659091,
                "end_time": 50.8454545,
                "pitch": 43,
                "velocity": 51,
                "duration": 0.0795455,
                "tempo": 120.0
            },
            {
                "start_time": 51.0863636,
                "end_time": 52.0068182,
                "pitch": 43,
                "velocity": 51,
                "duration": 0.9204545,
                "tempo": 120.0
            },
            {
                "start_time": 52.2522727,
                "end_time": 52.3681818,
                "pitch": 44,
                "velocity": 51,
                "duration": 0.1159091,
                "tempo": 120.0
            },
            {
                "start_time": 52.6159091,
                "end_time": 52.7,
                "pitch": 44,
                "velocity": 51,
                "duration": 0.0840909,
                "tempo": 120.0
            },
            {
                "start_time": 52.9522727,
                "end_time": 53.8613636,
                "pitch": 44,
                "velocity": 51,
                "duration": 0.9090909,
                "tempo": 120.0
            },
            {
                "start_time": 54.1159091,
                "end_time": 54.2363636,
                "pitch": 46,
                "velocity": 51,
                "duration": 0.1204545,
                "tempo": 120.0
            },
            {
                "start_time": 54.4863636,
                "end_time": 54.5681818,
                "pitch": 46,
                "velocity": 51,
                "duration": 0.0818182,
                "tempo": 120.0
            },
            {
                "start_time": 54.8136364,
                "end_time": 55.2545455,
                "pitch": 46,
                "velocity": 51,
                "duration": 0.4409091,
                "tempo": 120.0
            },
            {
                "start_time": 55.5068182,
                "end_time": 55.6227273,
                "pitch": 46,
                "velocity": 51,
                "duration": 0.1159091,
                "tempo": 120.0
            },
            {
                "start_time": 55.6409091,
                "end_time": 55.7227273,
                "pitch": 60,
                "velocity": 51,
                "duration": 0.0818182,
                "tempo": 120.0
            },
            {
                "start_time": 55.9681818,
                "end_time": 56.0840909,
                "pitch": 41,
                "velocity": 51,
                "duration": 0.1159091,
                "tempo": 120.0
            },
            {
                "start_time": 56.3318182,
                "end_time": 56.4159091,
                "pitch": 41,
                "velocity": 51,
                "duration": 0.0840909,
                "tempo": 120.0
            },
            {
                "start_time": 56.6681818,
                "end_time": 57.5886364,
                "pitch": 41,
                "velocity": 51,
                "duration": 0.9204545,
                "tempo": 120.0
            },
            {
                "start_time": 57.8409091,
                "end_time": 57.9568182,
                "pitch": 43,
                "velocity": 51,
                "duration": 0.1159091,
                "tempo": 120.0
            },
            {
                "start_time": 58.2045455,
                "end_time": 58.2863636,
                "pitch": 43,
                "velocity": 51,
                "duration": 0.0818182,
                "tempo": 120.0
            },
            {
                "start_time": 58.5318182,
                "end_time": 59.4431818,
                "pitch": 43,
                "velocity": 51,
                "duration": 0.9113636,
                "tempo": 120.0
            },
            {
                "start_time": 59.6954545,
                "end_time": 59.8113636,
                "pitch": 44,
                "velocity": 51,
                "duration": 0.1159091,
                "tempo": 120.0
            },
            {
                "start_time": 60.0636364,
                "end_time": 60.1477273,
                "pitch": 44,
                "velocity": 51,
                "duration": 0.0840909,
                "tempo": 120.0
            },
            {
                "start_time": 60.3977273,
                "end_time": 61.3090909,
                "pitch": 44,
                "velocity": 51,
                "duration": 0.9113636,
                "tempo": 120.0
            },
            {
                "start_time": 61.5636364,
                "end_time": 61.6818182,
                "pitch": 46,
                "velocity": 51,
                "duration": 0.1181818,
                "tempo": 120.0
            },
            {
                "start_time": 61.9295455,
                "end_time": 62.0090909,
                "pitch": 46,
                "velocity": 51,
                "duration": 0.0795455,
                "tempo": 120.0
            },
            {
                "start_time": 62.25,
                "end_time": 62.7022727,
                "pitch": 46,
                "velocity": 51,
                "duration": 0.4522727,
                "tempo": 120.0
            },
            {
                "start_time": 62.9522727,
                "end_time": 63.0704545,
                "pitch": 46,
                "velocity": 51,
                "duration": 0.1181818,
                "tempo": 120.0
            },
            {
                "start_time": 63.0863636,
                "end_time": 63.1704545,
                "pitch": 60,
                "velocity": 51,
                "duration": 0.0840909,
                "tempo": 120.0
            },
            {
                "start_time": 63.4159091,
                "end_time": 63.5295455,
                "pitch": 41,
                "velocity": 51,
                "duration": 0.1136364,
                "tempo": 120.0
            },
            {
                "start_time": 63.7795455,
                "end_time": 63.8636364,
                "pitch": 41,
                "velocity": 51,
                "duration": 0.0840909,
                "tempo": 120.0
            },
            {
                "start_time": 64.1136364,
                "end_time": 65.025,
                "pitch": 41,
                "velocity": 51,
                "duration": 0.9113636,
                "tempo": 120.0
            },
            {
                "start_time": 65.2818182,
                "end_time": 65.4,
                "pitch": 43,
                "velocity": 51,
                "duration": 0.1181818,
                "tempo": 120.0
            },
            {
                "start_time": 65.6522727,
                "end_time": 65.7340909,
                "pitch": 43,
                "velocity": 51,
                "duration": 0.0818182,
                "tempo": 120.0
            },
            {
                "start_time": 65.9795455,
                "end_time": 66.8909091,
                "pitch": 43,
                "velocity": 51,
                "duration": 0.9113636,
                "tempo": 120.0
            },
            {
                "start_time": 67.1409091,
                "end_time": 67.2590909,
                "pitch": 44,
                "velocity": 51,
                "duration": 0.1181818,
                "tempo": 120.0
            },
            {
                "start_time": 67.5068182,
                "end_time": 67.5886364,
                "pitch": 44,
                "velocity": 51,
                "duration": 0.0818182,
                "tempo": 120.0
            },
            {
                "start_time": 67.8340909,
                "end_time": 68.7545455,
                "pitch": 44,
                "velocity": 51,
                "duration": 0.9204545,
                "tempo": 120.0
            },
            {
                "start_time": 69.0113636,
                "end_time": 69.1318182,
                "pitch": 46,
                "velocity": 51,
                "duration": 0.1204545,
                "tempo": 120.0
            },
            {
                "start_time": 69.3795455,
                "end_time": 69.4590909,
                "pitch": 46,
                "velocity": 51,
                "duration": 0.0795455,
                "tempo": 120.0
            },
            {
                "start_time": 69.7,
                "end_time": 70.1409091,
                "pitch": 46,
                "velocity": 51,
                "duration": 0.4409091,
                "tempo": 120.0
            },
            {
                "start_time": 70.3931818,
                "end_time": 70.5090909,
                "pitch": 46,
                "velocity": 51,
                "duration": 0.1159091,
                "tempo": 120.0
            },
            {
                "start_time": 70.5272727,
                "end_time": 70.6113636,
                "pitch": 60,
                "velocity": 51,
                "duration": 0.0840909,
                "tempo": 120.0
            },
            {
                "start_time": 70.8613636,
                "end_time": 70.9795455,
                "pitch": 41,
                "velocity": 51,
                "duration": 0.1181818,
                "tempo": 120.0
            },
            {
                "start_time": 71.2295455,
                "end_time": 71.3136364,
                "pitch": 41,
                "velocity": 51,
                "duration": 0.0840909,
                "tempo": 120.0
            },
            {
                "start_time": 71.5659091,
                "end_time": 72.475,
                "pitch": 41,
                "velocity": 51,
                "duration": 0.9090909,
                "tempo": 120.0
            },
            {
                "start_time": 72.7318182,
                "end_time": 72.8522727,
                "pitch": 43,
                "velocity": 51,
                "duration": 0.1204545,
                "tempo": 120.0
            },
            {
                "start_time": 73.1,
                "end_time": 73.1795455,
                "pitch": 43,
                "velocity": 51,
                "duration": 0.0795455,
                "tempo": 120.0
            },
            {
                "start_time": 73.4204545,
                "end_time": 74.3409091,
                "pitch": 43,
                "velocity": 51,
                "duration": 0.9204545,
                "tempo": 120.0
            },
            {
                "start_time": 74.5863636,
                "end_time": 74.7022727,
                "pitch": 44,
                "velocity": 51,
                "duration": 0.1159091,
                "tempo": 120.0
            },
            {
                "start_time": 74.95,
                "end_time": 75.0340909,
                "pitch": 44,
                "velocity": 51,
                "duration": 0.0840909,
                "tempo": 120.0
            },
            {
                "start_time": 75.2863636,
                "end_time": 76.1954545,
                "pitch": 44,
                "velocity": 51,
                "duration": 0.9090909,
                "tempo": 120.0
            },
            {
                "start_time": 76.4522727,
                "end_time": 76.5727273,
                "pitch": 46,
                "velocity": 51,
                "duration": 0.1204545,
                "tempo": 120.0
            },
            {
                "start_time": 76.8227273,
                "end_time": 76.9045455,
                "pitch": 46,
                "velocity": 51,
                "duration": 0.0818182,
                "tempo": 120.0
            },
            {
                "start_time": 77.15,
                "end_time": 77.5931818,
                "pitch": 46,
                "velocity": 51,
                "duration": 0.4431818,
                "tempo": 120.0
            },
            {
                "start_time": 77.8431818,
                "end_time": 77.9613636,
                "pitch": 46,
                "velocity": 51,
                "duration": 0.1181818,
                "tempo": 120.0
            },
            {
                "start_time": 77.9772727,
                "end_time": 78.0613636,
                "pitch": 60,
                "velocity": 51,
                "duration": 0.0840909,
                "tempo": 120.0
            },
            {
                "start_time": 78.0772727,
                "end_time": 78.5204545,
                "pitch": 36,
                "velocity": 51,
                "duration": 0.4431818,
                "tempo": 120.0
            },
            {
                "start_time": 78.5363636,
                "end_time": 78.9886364,
                "pitch": 38,
                "velocity": 51,
                "duration": 0.4522727,
                "tempo": 120.0
            },
            {
                "start_time": 79.0045455,
                "end_time": 79.4568182,
                "pitch": 39,
                "velocity": 51,
                "duration": 0.4522727,
                "tempo": 120.0
            },
            {
                "start_time": 79.475,
                "end_time": 79.9272727,
                "pitch": 41,
                "velocity": 51,
                "duration": 0.4522727,
                "tempo": 120.0
            },
            {
                "start_time": 79.9431818,
                "end_time": 80.3840909,
                "pitch": 36,
                "velocity": 51,
                "duration": 0.4409091,
                "tempo": 120.0
            },
            {
                "start_time": 80.4022727,
                "end_time": 80.8545455,
                "pitch": 38,
                "velocity": 51,
                "duration": 0.4522727,
                "tempo": 120.0
            },
            {
                "start_time": 80.8704545,
                "end_time": 81.3227273,
                "pitch": 39,
                "velocity": 51,
                "duration": 0.4522727,
                "tempo": 120.0
            },
            {
                "start_time": 81.3386364,
                "end_time": 81.7818182,
                "pitch": 41,
                "velocity": 51,
                "duration": 0.4431818,
                "tempo": 120.0
            },
            {
                "start_time": 81.7977273,
                "end_time": 82.25,
                "pitch": 36,
                "velocity": 51,
                "duration": 0.4522727,
                "tempo": 120.0
            },
            {
                "start_time": 82.2659091,
                "end_time": 82.7181818,
                "pitch": 38,
                "velocity": 51,
                "duration": 0.4522727,
                "tempo": 120.0
            },
            {
                "start_time": 82.7363636,
                "end_time": 83.1772727,
                "pitch": 39,
                "velocity": 51,
                "duration": 0.4409091,
                "tempo": 120.0
            },
            {
                "start_time": 83.1931818,
                "end_time": 83.6454545,
                "pitch": 41,
                "velocity": 51,
                "duration": 0.4522727,
                "tempo": 120.0
            },
            {
                "start_time": 83.6636364,
                "end_time": 84.1159091,
                "pitch": 36,
                "velocity": 51,
                "duration": 0.4522727,
                "tempo": 120.0
            },
            {
                "start_time": 84.1318182,
                "end_time": 84.5727273,
                "pitch": 38,
                "velocity": 51,
                "duration": 0.4409091,
                "tempo": 120.0
            },
            {
                "start_time": 84.5886364,
                "end_time": 85.0409091,
                "pitch": 39,
                "velocity": 51,
                "duration": 0.4522727,
                "tempo": 120.0
            },
            {
                "start_time": 85.0590909,
                "end_time": 85.5113636,
                "pitch": 41,
                "velocity": 51,
                "duration": 0.4522727,
                "tempo": 120.0
            },
            {
                "start_time": 85.5272727,
                "end_time": 85.9704545,
                "pitch": 36,
                "velocity": 51,
                "duration": 0.4431818,
                "tempo": 120.0
            },
            {
                "start_time": 85.9863636,
                "end_time": 86.4386364,
                "pitch": 38,
                "velocity": 51,
                "duration": 0.4522727,
                "tempo": 120.0
            },
            {
                "start_time": 86.4545455,
                "end_time": 86.9068182,
                "pitch": 39,
                "velocity": 51,
                "duration": 0.4522727,
                "tempo": 120.0
            },
            {
                "start_time": 86.925,
                "end_time": 87.3659091,
                "pitch": 41,
                "velocity": 51,
                "duration": 0.4409091,
                "tempo": 120.0
            },
            {
                "start_time": 87.3818182,
                "end_time": 87.8340909,
                "pitch": 36,
                "velocity": 51,
                "duration": 0.4522727,
                "tempo": 120.0
            },
            {
                "start_time": 87.85,
                "end_time": 88.3022727,
                "pitch": 38,
                "velocity": 51,
                "duration": 0.4522727,
                "tempo": 120.0
            },
            {
                "start_time": 88.3204545,
                "end_time": 88.7613636,
                "pitch": 39,
                "velocity": 51,
                "duration": 0.4409091,
                "tempo": 120.0
            },
            {
                "start_time": 88.7772727,
                "end_time": 89.2295455,
                "pitch": 41,
                "velocity": 51,
                "duration": 0.4522727,
                "tempo": 120.0
            },
            {
                "start_time": 89.2477273,
                "end_time": 89.7,
                "pitch": 36,
                "velocity": 51,
                "duration": 0.4522727,
                "tempo": 120.0
            },
            {
                "start_time": 89.7159091,
                "end_time": 90.1590909,
                "pitch": 38,
                "velocity": 51,
                "duration": 0.4431818,
                "tempo": 120.0
            },
            {
                "start_time": 90.175,
                "end_time": 90.6272727,
                "pitch": 39,
                "velocity": 51,
                "duration": 0.4522727,
                "tempo": 120.0
            },
            {
                "start_time": 90.6431818,
                "end_time": 91.0954545,
                "pitch": 41,
                "velocity": 51,
                "duration": 0.4522727,
                "tempo": 120.0
            },
            {
                "start_time": 91.1113636,
                "end_time": 91.5545455,
                "pitch": 36,
                "velocity": 51,
                "duration": 0.4431818,
                "tempo": 120.0
            },
            {
                "start_time": 91.5704545,
                "end_time": 92.0227273,
                "pitch": 38,
                "velocity": 51,
                "duration": 0.4522727,
                "tempo": 120.0
            },
            {
                "start_time": 92.0386364,
                "end_time": 92.4909091,
                "pitch": 39,
                "velocity": 51,
                "duration": 0.4522727,
                "tempo": 120.0
            },
            {
                "start_time": 92.5090909,
                "end_time": 92.9659091,
                "pitch": 41,
                "velocity": 51,
                "duration": 0.4568182,
                "tempo": 120.0
            }
        ]
    }
}