{
    "mood": "angry",
    "instruments": {
        "Acoustic Bass": [
            {
                "start_time": 0.2340909,
                "end_time": 0.3,
                "pitch": 43,
                "velocity": 80,
                "duration": 0.0659091,
                "tempo": 120.0
            },
            {
                "start_time": 0.4340909,
                "end_time": 0.5977273,
                "pitch": 33,
                "velocity": 80,
                "duration": 0.1636364,
                "tempo": 120.0
            },
            {
                "start_time": 0.65,
                "end_time": 0.7227273,
                "pitch": 45,
                "velocity": 80,
                "duration": 0.0727273,
                "tempo": 120.0
            },
            {
                "start_time": 0.8659091,
                "end_time": 1.0,
                "pitch": 34,
                "velocity": 80,
                "duration": 0.1340909,
                "tempo": 120.0
            },
            {
                "start_time": 1.0659091,
                "end_time": 1.1318182,
                "pitch": 46,
                "velocity": 80,
                "duration": 0.0659091,
                "tempo": 120.0
            },
            {
                "start_time": 1.2659091,
                "end_time": 1.4159091,
                "pitch": 36,
                "velocity": 80,
                "duration": 0.15,
                "tempo": 120.0
            },
            {
                "start_time": 1.4659091,
                "end_time": 1.5318182,
                "pitch": 48,
                "velocity": 80,
                "duration": 0.0659091,
                "tempo": 120.0
            },
            {
                "start_time": 1.6659091,
                "end_time": 1.8159091,
                "pitch": 31,
                "velocity": 80,
                "duration": 0.15,
                "tempo": 120.0
            },
            {
                "start_time": 1.8659091,
                "end_time": 1.95,
                "pitch": 43,
                "velocity": 80,
                "duration": 0.0840909,
                "tempo": 120.0
            },
            {
                "start_time": 2.0659091,
                "end_time": 2.2204545,
                "pitch": 33,
                "velocity": 80,
                "duration": 0.1545455,
                "tempo": 120.0
            },
            {
                "start_time": 2.2704545,
                "end_time": 2.3568182,
                "pitch": 45,
                "velocity": 80,
                "duration": 0.0863636,
                "tempo": 120.0
            },
            {
                "start_time": 2.4772727,
                "end_time": 2.6227273,
                "pitch": 34,
                "velocity": 80,
                "duration": 0.1454545,
                "tempo": 120.0
            },
            {
                "start_time": 2.6727273,
                "end_time": 2.7545455,
                "pitch": 46,
                "velocity": 80,
                "duration": 0.0818182,
                "tempo": 120.0
            },
            {
                "start_time": 2.8681818,
                "end_time": 3.0227273,
                "pitch": 36,
                "velocity": 80,
                "duration": 0.1545455,
                "tempo": 120.0
            },
            {
                "start_time": 3.075,
                "end_time": 3.1431818,
                "pitch": 48,
                "velocity": 80,
                "duration": 0.0681818,
                "tempo": 120.0
            },
            {
                "start_time": 3.2840909,
                "end_time": 3.4159091,
                "pitch": 31,
                "velocity": 80,
                "duration": 0.1318182,
                "tempo": 120.0
            },
            {
                "start_time": 3.4840909,
                "end_time": 3.55,
                "pitch": 43,
                "velocity": 80,
                "duration": 0.0659091,
                "tempo": 120.0
            },
            {
                "start_time": 3.6840909,
                "end_time": 3.8181818,
                "pitch": 33,
                "velocity": 80,
                "duration": 0.1340909,
                "tempo": 120.0
            },
            {
                "start_time": 3.8840909,
                "end_time": 3.9522727,
                "pitch": 45,
                "velocity": 80,
                "duration": 0.0681818,
                "tempo": 120.0
            },
            {
                "start_time": 4.0840909,
                "end_time": 4.2181818,
                "pitch": 34,
                "velocity": 80,
                "duration": 0.1340909,
                "tempo": 120.0
            },
            {
                "start_time": 4.2840909,
                "end_time": 4.3522727,
                "pitch": 46,
                "velocity": 80,
                "duration": 0.0681818,
                "tempo": 120.0
            },
            {
                "start_time": 4.4840909,
                "end_time": 4.6181818,
                "pitch": 36,
                "velocity": 80,
                "duration": 0.1340909,
                "tempo": 120.0
            },
            {
                "start_time": 4.6863636,
                "end_time": 4.7522727,
                "pitch": 48,
                "velocity": 80,
                "duration": 0.0659091,
                "tempo": 120.0
            },
            {
                "start_time": 4.8863636,
                "end_time": 5.0181818,
                "pitch": 31,
                "velocity": 80,
                "duration": 0.1318182,
                "tempo": 120.0
            },
            {
                "start_time": 5.0840909,
                "end_time": 5.1477273,
                "pitch": 43,
                "velocity": 80,
                "duration": 0.0636364,
                "tempo": 120.0
            },
            {
                "start_time": 5.2795455,
                "end_time": 5.4159091,
                "pitch": 33,
                "velocity": 80,
                "duration": 0.1363636,
                "tempo": 120.0
            },
            {
                "start_time": 5.4840909,
                "end_time": 5.5545455,
                "pitch": 45,
                "velocity": 80,
                "duration": 0.0704545,
                "tempo": 120.0
            },
            {
                "start_time": 5.6909091,
                "end_time": 5.8227273,
                "pitch": 34,
                "velocity": 80,
                "duration": 0.1318182,
                "tempo": 120.0
            },
            {
                "start_time": 5.8909091,
                "end_time": 5.9568182,
                "pitch": 46,
                "velocity": 80,
                "duration": 0.0659091,
                "tempo": 120.0
            },
            {
                "start_time": 6.0909091,
                "end_time": 6.225,
                "pitch": 36,
                "velocity": 80,
                "duration": 0.1340909,
                "tempo": 120.0
            },
            {
                "start_time": 6.2931818,
                "end_time": 6.3590909,
                "pitch": 48,
                "velocity": 80,
                "duration": 0.0659091,
                "tempo": 120.0
            },
            {
                "start_time": 6.4909091,
                "end_time": 6.6227273,
                "pitch": 39,
                "velocity": 80,
                "duration": 0.1318182,
                "tempo": 120.0
            },
            {
                "start_time": 6.6886364,
                "end_time": 6.7545455,
                "pitch": 51,
                "velocity": 80,
                "duration": 0.0659091,
                "tempo": 120.0
            },
            {
                "start_time": 6.8863636,
                "end_time": 7.0227273,
                "pitch": 38,
                "velocity": 80,
                "duration": 0.1363636,
                "tempo": 120.0
            },
            {
                "start_time": 7.0909091,
                "end_time": 7.1590909,
                "pitch": 50,
                "velocity": 80,
                "duration": 0.0681818,
                "tempo": 120.0
            },
            {
                "start_time": 7.2954545,
                "end_time": 7.4295455,
                "pitch": 36,
                "velocity": 80,
                "duration": 0.1340909,
                "tempo": 120.0
            },
            {
                "start_time": 7.4977273,
                "end_time": 7.5636364,
                "pitch": 48,
                "velocity": 80,
                "duration": 0.0659091,
                "tempo": 120.0
            },
            {
                "start_time": 7.7,
                "end_time": 7.8318182,
                "pitch": 34,
                "velocity": 80,
                "duration": 0.1318182,
                "tempo": 120.0
            },
            {
                "start_time": 7.9,
                "end_time": 7.9659091,
                "pitch": 46,
                "velocity": 80,
                "duration": 0.0659091,
                "tempo": 120.0
            },
            {
                "start_time": 8.0977273,
                "end_time": 8.2295455,
                "pitch": 39,
                "velocity": 80,
                "duration": 0.1318182,
                "tempo": 120.0
            },
            {
                "start_time": 8.2954545,
                "end_time": 8.3590909,
                "pitch": 51,
                "velocity": 80,
                "duration": 0.0636364,
                "tempo": 120.0
            },
            {
                "start_time": 8.4909091,
                "end_time": 8.6272727,
                "pitch": 38,
                "velocity": 80,
                "duration": 0.1363636,
                "tempo": 120.0
            },
            {
                "start_time": 8.6954545,
                "end_time": 8.7659091,
                "pitch": 50,
                "velocity": 80,
                "duration": 0.0704545,
                "tempo": 120.0
            },
            {
                "start_time": 8.9022727,
                "end_time": 9.0363636,
                "pitch": 36,
                "velocity": 80,
                "duration": 0.1340909,
                "tempo": 120.0
            },
            {
                "start_time": 9.1045455,
                "end_time": 9.1704545,
                "pitch": 48,
                "velocity": 80,
                "duration": 0.0659091,
                "tempo": 120.0
            },
            {
                "start_time": 9.3022727,
                "end_time": 9.4363636,
                "pitch": 34,
                "velocity": 80,
                "duration": 0.1340909,
                "tempo": 120.0
            },
            {
                "start_time": 9.5045455,
                "end_time": 9.5727273,
                "pitch": 46,
                "velocity": 80,
                "duration": 0.0681818,
                "tempo": 120.0
            },
            {
                "start_time": 9.7068182,
                "end_time": 9.8409091,
                "pitch": 38,
                "velocity": 80,
                "duration": 0.1340909,
                "tempo": 120.0
            },
            {
                "start_time": 9.9090909,
                "end_time": 9.975,
                "pitch": 50,
                "velocity": 80,
                "duration": 0.0659091,
                "tempo": 120.0
            },
            {
                "start_time": 10.1090909,
                "end_time": 10.2431818,
                "pitch": 36,
                "velocity": 80,
                "duration": 0.1340909,
                "tempo": 120.0
            },
            {
                "start_time": 10.3090909,
                "end_time": 10.3772727,
                "pitch": 48,
                "velocity": 80,
                "duration": 0.0681818,
                "tempo": 120.0
            },
            {
                "start_time": 10.5090909,
                "end_time": 10.6454545,
                "pitch": 34,
                "velocity": 80,
                "duration": 0.1363636,
                "tempo": 120.0
            },
            {
                "start_time": 10.7113636,
                "end_time": 10.7795455,
                "pitch": 46,
                "velocity": 80,
                "duration": 0.0681818,
                "tempo": 120.0
            },
            {
                "start_time": 10.9136364,
                "end_time": 11.0477273,
                "pitch": 33,
                "velocity": 80,
                "duration": 0.1340909,
                "tempo": 120.0
            },
            {
                "start_time": 11.1136364,
                "end_time": 11.1818182,
                "pitch": 45,
                "velocity": 80,
                "duration": 0.0681818,
                "tempo": 120.0
            },
            {
                "start_time": 11.3159091,
                "end_time": 11.45,
                "pitch": 38,
                "velocity": 80,
                "duration": 0.1340909,
                "tempo": 120.0
            },
            {
                "start_time": 11.5159091,
                "end_time": 11.5840909,
                "pitch": 50,
                "velocity": 80,
                "duration": 0.0681818,
                "tempo": 120.0
            },
            {
                "start_time": 11.7181818,
                "end_time": 11.8522727,
                "pitch": 36,
                "velocity": 80,
                "duration": 0.1340909,
                "tempo": 120.0
            },
            {
                "start_time": 11.9204545,
                "end_time": 11.9863636,
                "pitch": 48,
                "velocity": 80,
                "duration": 0.0659091,
                "tempo": 120.0
            },
            {
                "start_time": 12.1204545,
                "end_time": 12.2545455,
                "pitch": 34,
                "velocity": 80,
                "duration": 0.1340909,
                "tempo": 120.0
            },
            {
                "start_time": 12.3204545,
                "end_time": 12.3886364,
                "pitch": 46,
                "velocity": 80,
                "duration": 0.0681818,
                "tempo": 120.0
            },
            {
                "start_time": 12.5204545,
                "end_time": 12.6545455,
                "pitch": 33,
                "velocity": 80,
                "duration": 0.1340909,
                "tempo": 120.0
            },
            {
                "start_time": 12.7227273,
                "end_time": 12.7886364,
                "pitch": 45,
                "velocity": 80,
                "duration": 0.0659091,
                "tempo": 120.0
            },
            {
                "start_time": 12.9227273,
                "end_time": 13.0590909,
                "pitch": 31,
                "velocity": 80,
                "duration": 0.1363636,
                "tempo": 120.0
            },
            {
                "start_time": 13.125,
                "end_time": 13.1931818,
                "pitch": 43,
                "velocity": 80,
                "duration": 0.0681818,
                "tempo": 120.0
            },
            {
                "start_time": 13.3272727,
                "end_time": 13.4613636,
                "pitch": 33,
                "velocity": 80,
                "duration": 0.1340909,
                "tempo": 120.0
            },
            {
                "start_time": 13.5272727,
                "end_time": 13.5954545,
                "pitch": 45,
                "velocity": 80,
                "duration": 0.0681818,
                "tempo": 120.0
            },
            {
                "start_time": 13.7295455,
                "end_time": 13.8636364,
                "pitch": 34,
                "velocity": 80,
                "duration": 0.1340909,
                "tempo": 120.0
            },
            {
                "start_time": 13.9295455,
                "end_time": 13.9977273,
                "pitch": 46,
                "velocity": 80,
                "duration": 0.0681818,
                "tempo": 120.0
            },
            {
                "start_time": 14.1318182,
                "end_time": 14.2659091,
                "pitch": 36,
                "velocity": 80,
                "duration": 0.1340909,
                "tempo": 120.0
            },
            {
                "start_time": 14.3318182,
                "end_time": 14.3977273,
                "pitch": 48,
                "velocity": 80,
                "duration": 0.0659091,
                "tempo": 120.0
            },
            {
                "start_time": 14.5318182,
                "end_time": 14.6613636,
                "pitch": 31,
                "velocity": 80,
                "duration": 0.1295455,
                "tempo": 120.0
            },
            {
                "start_time": 14.7272727,
                "end_time": 14.7931818,
                "pitch": 43,
                "velocity": 80,
                "duration": 0.0659091,
                "tempo": 120.0
            },
            {
                "start_time": 14.925,
                "end_time": 15.0613636,
                "pitch": 33,
                "velocity": 80,
                "duration": 0.1363636,
                "tempo": 120.0
            },
            {
                "start_time": 15.1295455,
                "end_time": 15.1977273,
                "pitch": 45,
                "velocity": 80,
                "duration": 0.0681818,
                "tempo": 120.0
            },
            {
                "start_time": 15.3340909,
                "end_time": 15.4681818,
                "pitch": 34,
                "velocity": 80,
                "duration": 0.1340909,
                "tempo": 120.0
            },
            {
                "start_time": 15.5363636,
                "end_time": 15.6045455,
                "pitch": 46,
                "velocity": 80,
                "duration": 0.0681818,
                "tempo": 120.0
            },
            {
                "start_time": 15.7386364,
                "end_time": 15.8863636,
                "pitch": 36,
                "velocity": 80,
                "duration": 0.1477273,
                "tempo": 120.0
            },
            {
                "start_time": 15.9363636,
                "end_time": 16.0045455,
                "pitch": 48,
                "velocity": 80,
                "duration": 0.0681818,
                "tempo": 120.0
            },
            {
                "start_time": 16.1409091,
                "end_time": 16.2727273,
                "pitch": 31,
                "velocity": 80,
                "duration": 0.1318182,
                "tempo": 120.0
            },
            {
                "start_time": 16.3409091,
                "end_time": 16.4068182,
                "pitch": 43,
                "velocity": 80,
                "duration": 0.0659091,
                "tempo": 120.0
            },
            {
                "start_time": 16.5409091,
                "end_time": 16.675,
                "pitch": 33,
                "velocity": 80,
                "duration": 0.1340909,
                "tempo": 120.0
            },
            {
                "start_time": 16.7409091,
                "end_time": 16.8090909,
                "pitch": 45,
                "velocity": 80,
                "duration": 0.0681818,
                "tempo": 120.0
            },
            {
                "start_time": 16.9431818,
                "end_time": 17.0772727,
                "pitch": 34,
                "velocity": 80,
                "duration": 0.1340909,
                "tempo": 120.0
            },
            {
                "start_time": 17.1431818,
                "end_time": 17.2090909,
                "pitch": 46,
                "velocity": 80,
                "duration": 0.0659091,
                "tempo": 120.0
            },
            {
                "start_time": 17.3431818,
                "end_time": 17.4772727,
                "pitch": 36,
                "velocity": 80,
                "duration": 0.1340909,
                "tempo": 120.0
            },
            {
                "start_time": 17.5431818,
                "end_time": 17.6090909,
                "pitch": 48,
                "velocity": 80,
                "duration": 0.0659091,
                "tempo": 120.0
            },
            {
                "start_time": 17.7431818,
                "end_time": 17.8727273,
                "pitch": 31,
                "velocity": 80,
                "duration": 0.1295455,
                "tempo": 120.0
            },
            {
                "start_time": 17.9386364,
                "end_time": 18.0045455,
                "pitch": 43,
                "velocity": 80,
                "duration": 0.0659091,
                "tempo": 120.0
            },
            {
                "start_time": 18.1363636,
                "end_time": 18.2727273,
                "pitch": 33,
                "velocity": 80,
                "duration": 0.1363636,
                "tempo": 120.0
            },
            {
                "start_time": 18.3409091,
                "end_time": 18.4090909,
                "pitch": 45,
                "velocity": 80,
                "duration": 0.0681818,
                "tempo": 120.0
            },
            {
                "start_time": 18.5454545,
                "end_time": 18.6795455,
                "pitch": 34,
                "velocity": 80,
                "duration": 0.1340909,
                "tempo": 120.0
            },
            {
                "start_time": 18.7477273,
                "end_time": 18.8136364,
                "pitch": 46,
                "velocity": 80,
                "duration": 0.0659091,
                "tempo": 120.0
            },
            {
                "start_time": 18.95,
                "end_time": 19.0818182,
                "pitch": 36,
                "velocity": 80,
                "duration": 0.1318182,
                "tempo": 120.0
            },
            {
                "start_time": 19.15,
                "end_time": 19.2159091,
                "pitch": 48,
                "velocity": 80,
                "duration": 0.0659091,
                "tempo": 120.0
            },
            {
                "start_time": 19.3477273,
                "end_time": 19.4795455,
                "pitch": 39,
                "velocity": 80,
                "duration": 0.1318182,
                "tempo": 120.0
            },
            {
                "start_time": 19.55,
                "end_time": 19.6159091,
                "pitch": 51,
                "velocity": 80,
                "duration": 0.0659091,
                "tempo": 120.0
            },
            {
                "start_time": 19.75,
                "end_time": 19.8840909,
                "pitch": 38,
                "velocity": 80,
                "duration": 0.1340909,
                "tempo": 120.0
            },
            {
                "start_time": 19.95,
                "end_time": 20.0181818,
                "pitch": 50,
                "velocity": 80,
                "duration": 0.0681818,
                "tempo": 120.0
            },
            {
                "start_time": 20.1522727,
                "end_time": 20.2840909,
                "pitch": 36,
                "velocity": 80,
                "duration": 0.1318182,
                "tempo": 120.0
            },
            {
                "start_time": 20.3522727,
                "end_time": 20.4181818,
                "pitch": 48,
                "velocity": 80,
                "duration": 0.0659091,
                "tempo": 120.0
            },
            {
                "start_time": 20.5522727,
                "end_time": 20.6863636,
                "pitch": 34,
                "velocity": 80,
                "duration": 0.1340909,
                "tempo": 120.0
            },
            {
                "start_time": 20.7522727,
                "end_time": 20.8204545,
                "pitch": 46,
                "velocity": 80,
                "duration": 0.0681818,
                "tempo": 120.0
            },
            {
                "start_time": 20.9545455,
                "end_time": 21.0886364,
                "pitch": 39,
                "velocity": 80,
                "duration": 0.1340909,
                "tempo": 120.0
            },
            {
                "start_time": 21.1545455,
                "end_time": 21.2204545,
                "pitch": 51,
                "velocity": 80,
                "duration": 0.0659091,
                "tempo": 120.0
            },
            {
                "start_time": 21.3545455,
                "end_time": 21.4886364,
                "pitch": 38,
                "velocity": 80,
                "duration": 0.1340909,
                "tempo": 120.0
            },
            {
                "start_time": 21.5545455,
                "end_time": 21.6204545,
                "pitch": 50,
                "velocity": 80,
                "duration": 0.0659091,
                "tempo": 120.0
            },
            {
                "start_time": 21.7545455,
                "end_time": 21.8886364,
                "pitch": 36,
                "velocity": 80,
                "duration": 0.1340909,
                "tempo": 120.0
            },
            {
                "start_time": 21.9568182,
                "end_time": 22.0227273,
                "pitch": 48,
                "velocity": 80,
                "duration": 0.0659091,
                "tempo": 120.0
            },
            {
                "start_time": 22.1545455,
                "end_time": 22.2886364,
                "pitch": 34,
                "velocity": 80,
                "duration": 0.1340909,
                "tempo": 120.0
            },
            {
                "start_time": 22.3545455,
                "end_time": 22.425,
                "pitch": 46,
                "velocity": 80,
                "duration": 0.0704545,
                "tempo": 120.0
            },
            {
                "start_time": 22.5568182,
                "end_time": 22.6909091,
                "pitch": 38,
                "velocity": 80,
                "duration": 0.1340909,
                "tempo": 120.0
            },
            {
                "start_time": 22.7590909,
                "end_time": 22.825,
                "pitch": 50,
                "velocity": 80,
                "duration": 0.0659091,
                "tempo": 120.0
            },
            {
                "start_time": 22.9590909,
                "end_time": 23.0931818,
                "pitch": 36,
                "velocity": 80,
                "duration": 0.1340909,
                "tempo": 120.0
            },
            {
                "start_time": 23.1590909,
                "end_time": 23.2272727,
                "pitch": 48,
                "velocity": 80,
                "duration": 0.0681818,
                "tempo": 120.0
            },
            {
                "start_time": 23.3590909,
                "end_time": 23.4931818,
                "pitch": 34,
                "velocity": 80,
                "duration": 0.1340909,
                "tempo": 120.0
            },
            {
                "start_time": 23.5590909,
                "end_time": 23.6272727,
                "pitch": 46,
                "velocity": 80,
                "duration": 0.0681818,
                "tempo": 120.0
            },
            {
                "start_time": 23.7590909,
                "end_time": 23.8954545,
                "pitch": 33,
                "velocity": 80,
                "duration": 0.1363636,
                "tempo": 120.0
            },
            {
                "start_time": 23.9613636,
                "end_time": 24.0295455,
                "pitch": 45,
                "velocity": 80,
                "duration": 0.0681818,
                "tempo": 120.0
            },
            {
                "start_time": 24.1636364,
                "end_time": 24.2954545,
                "pitch": 38,
                "velocity": 80,
                "duration": 0.1318182,
                "tempo": 120.0
            },
            {
                "start_time": 24.3636364,
                "end_time": 24.4295455,
                "pitch": 50,
                "velocity": 80,
                "duration": 0.0659091,
                "tempo": 120.0
            },
            {
                "start_time": 24.5636364,
                "end_time": 24.6977273,
                "pitch": 36,
                "velocity": 80,
                "duration": 0.1340909,
                "tempo": 120.0
            },
            {
                "start_time": 24.7636364,
                "end_time": 24.8318182,
                "pitch": 48,
                "velocity": 80,
                "duration": 0.0681818,
                "tempo": 120.0
            },
            {
                "start_time": 24.9659091,
                "end_time": 25.1,
                "pitch": 34,
                "velocity": 80,
                "duration": 0.1340909,
                "tempo": 120.0
            },
            {
                "start_time": 25.1659091,
                "end_time": 25.2318182,
                "pitch": 46,
                "velocity": 80,
                "duration": 0.0659091,
                "tempo": 120.0
            },
            {
                "start_time": 25.3659091,
                "end_time": 25.5,
                "pitch": 33,
                "velocity": 80,
                "duration": 0.1340909,
                "tempo": 120.0
            },
            {
                "start_time": 25.5659091,
                "end_time": 25.6318182,
                "pitch": 45,
                "velocity": 80,
                "duration": 0.0659091,
                "tempo": 120.0
            },
            {
                "start_time": 25.7659091,
                "end_time": 25.9136364,
                "pitch": 36,
                "velocity": 80,
                "duration": 0.1477273,
                "tempo": 120.0
            },
            {
                "start_time": 25.9659091,
                "end_time": 26.1159091,
                "pitch": 36,
                "velocity": 80,
                "duration": 0.15,
                "tempo": 120.0
            },
            {
                "start_time": 26.1659091,
                "end_time": 26.3159091,
                "pitch": 39,
                "velocity": 80,
                "duration": 0.15,
                "tempo": 120.0
            },
            {
                "start_time": 26.3659091,
                "end_time": 26.45,
                "pitch": 43,
                "velocity": 80,
                "duration": 0.0840909,
                "tempo": 120.0
            },
            {
                "start_time": 26.7681818,
                "end_time": 26.8522727,
                "pitch": 43,
                "velocity": 80,
                "duration": 0.0840909,
                "tempo": 120.0
            },
            {
                "start_time": 26.8681818,
                "end_time": 26.9522727,
                "pitch": 43,
                "velocity": 80,
                "duration": 0.0840909,
                "tempo": 120.0
            },
            {
                "start_time": 26.9681818,
                "end_time": 27.1181818,
                "pitch": 39,
                "velocity": 80,
                "duration": 0.15,
                "tempo": 120.0
            },
            {
                "start_time": 27.1681818,
                "end_time": 27.3181818,
                "pitch": 36,
                "velocity": 80,
                "duration": 0.15,
                "tempo": 120.0
            },
            {
                "start_time": 27.3681818,
                "end_time": 27.5181818,
                "pitch": 43,
                "velocity": 80,
                "duration": 0.15,
                "tempo": 120.0
            },
            {
                "start_time": 27.5681818,
                "end_time": 27.7181818,
                "pitch": 43,
                "velocity": 80,
                "duration": 0.15,
                "tempo": 120.0
            },
            {
                "start_time": 27.7681818,
                "end_time": 27.9204545,
                "pitch": 46,
                "velocity": 80,
                "duration": 0.1522727,
                "tempo": 120.0
            },
            {
                "start_time": 27.9704545,
                "end_time": 28.0545455,
                "pitch": 50,
                "velocity": 80,
                "duration": 0.0840909,
                "tempo": 120.0
            },
            {
                "start_time": 28.3727273,
                "end_time": 28.4409091,
                "pitch": 50,
                "velocity": 80,
                "duration": 0.0681818,
                "tempo": 120.0
            },
            {
                "start_time": 28.4727273,
                "end_time": 28.5409091,
                "pitch": 50,
                "velocity": 80,
                "duration": 0.0681818,
                "tempo": 120.0
            },
            {
                "start_time": 28.5727273,
                "end_time": 28.7090909,
                "pitch": 46,
                "velocity": 80,
                "duration": 0.1363636,
                "tempo": 120.0
            },
            {
                "start_time": 28.775,
                "end_time": 28.9090909,
                "pitch": 43,
                "velocity": 80,
                "duration": 0.1340909,
                "tempo": 120.0
            },
            {
                "start_time": 28.9772727,
                "end_time": 29.5772727,
                "pitch": 45,
                "velocity": 80,
                "duration": 0.6,
                "tempo": 120.0
            },
            {
                "start_time": 29.7772727,
                "end_time": 30.3795455,
                "pitch": 38,
                "velocity": 80,
                "duration": 0.6022727,
                "tempo": 120.0
            },
            {
                "start_time": 30.5795455,
                "end_time": 30.8818182,
                "pitch": 43,
                "velocity": 80,
                "duration": 0.3022727,
                "tempo": 120.0
            },
            {
                "start_time": 30.9818182,
                "end_time": 31.2818182,
                "pitch": 45,
                "velocity": 80,
                "duration": 0.3,
                "tempo": 120.0
            },
            {
                "start_time": 31.3818182,
                "end_time": 31.6818182,
                "pitch": 46,
                "velocity": 80,
                "duration": 0.3,
                "tempo": 120.0
            },
            {
                "start_time": 31.7818182,
                "end_time": 32.0840909,
                "pitch": 50,
                "velocity": 80,
                "duration": 0.3022727,
                "tempo": 120.0
            },
            {
                "start_time": 32.1840909,
                "end_time": 32.3318182,
                "pitch": 36,
                "velocity": 80,
                "duration": 0.1477273,
                "tempo": 120.0
            },
            {
                "start_time": 32.3818182,
                "end_time": 32.5318182,
                "pitch": 36,
                "velocity": 80,
                "duration": 0.15,
                "tempo": 120.0
            },
            {
                "start_time": 32.5818182,
                "end_time": 32.7318182,
                "pitch": 39,
                "velocity": 80,
                "duration": 0.15,
                "tempo": 120.0
            },
            {
                "start_time": 32.7818182,
                "end_time": 32.8659091,
                "pitch": 43,
                "velocity": 80,
                "duration": 0.0840909,
                "tempo": 120.0
            },
            {
                "start_time": 33.1840909,
                "end_time": 33.2681818,
                "pitch": 43,
                "velocity": 80,
                "duration": 0.0840909,
                "tempo": 120.0
            },
            {
                "start_time": 33.2840909,
                "end_time": 33.3681818,
                "pitch": 43,
                "velocity": 80,
                "duration": 0.0840909,
                "tempo": 120.0
            },
            {
                "start_time": 33.3863636,
                "end_time": 33.5363636,
                "pitch": 39,
                "velocity": 80,
                "duration": 0.15,
                "tempo": 120.0
            },
            {
                "start_time": 33.5863636,
                "end_time": 33.7363636,
                "pitch": 36,
                "velocity": 80,
                "duration": 0.15,
                "tempo": 120.0
            },
            {
                "start_time": 33.7863636,
                "end_time": 33.9363636,
                "pitch": 43,
                "velocity": 80,
                "duration": 0.15,
                "tempo": 120.0
            },
            {
                "start_time": 33.9863636,
                "end_time": 34.1363636,
                "pitch": 43,
                "velocity": 80,
                "duration": 0.15,
                "tempo": 120.0
            },
            {
                "start_time": 34.1863636,
                "end_time": 34.3363636,
                "pitch": 46,
                "velocity": 80,
                "duration": 0.15,
                "tempo": 120.0
            },
            {
                "start_time": 34.3863636,
                "end_time": 34.4681818,
                "pitch": 50,
                "velocity": 80,
                "duration": 0.0818182,
                "tempo": 120.0
            },
            {
                "start_time": 34.7886364,
                "end_time": 34.8545455,
                "pitch": 50,
                "velocity": 80,
                "duration": 0.0659091,
                "tempo": 120.0
            },
            {
                "start_time": 34.8886364,
                "end_time": 34.9545455,
                "pitch": 50,
                "velocity": 80,
                "duration": 0.0659091,
                "tempo": 120.0
            },
            {
                "start_time": 34.9886364,
                "end_time": 35.1227273,
                "pitch": 46,
                "velocity": 80,
                "duration": 0.1340909,
                "tempo": 120.0
            },
            {
                "start_time": 35.1886364,
                "end_time": 35.3227273,
                "pitch": 43,
                "velocity": 80,
                "duration": 0.1340909,
                "tempo": 120.0
            },
            {
                "start_time": 35.3909091,
                "end_time": 35.525,
                "pitch": 33,
                "velocity": 80,
                "duration": 0.1340909,
                "tempo": 120.0
            },
            {
                "start_time": 35.5909091,
                "end_time": 35.725,
                "pitch": 33,
                "velocity": 80,
                "duration": 0.1340909,
                "tempo": 120.0
            },
            {
                "start_time": 35.7909091,
                "end_time": 35.925,
                "pitch": 37,
                "velocity": 80,
                "duration": 0.1340909,
                "tempo": 120.0
            },
            {
                "start_time": 35.9909091,
                "end_time": 36.0568182,
                "pitch": 40,
                "velocity": 80,
                "duration": 0.0659091,
                "tempo": 120.0
            },
            {
                "start_time": 36.3909091,
                "end_time": 36.4568182,
                "pitch": 40,
                "velocity": 80,
                "duration": 0.0659091,
                "tempo": 120.0
            },
            {
                "start_time": 36.4909091,
                "end_time": 36.5568182,
                "pitch": 40,
                "velocity": 80,
                "duration": 0.0659091,
                "tempo": 120.0
            },
            {
                "start_time": 36.5909091,
                "end_time": 36.725,
                "pitch": 37,
                "velocity": 80,
                "duration": 0.1340909,
                "tempo": 120.0
            },
            {
                "start_time": 36.7909091,
                "end_time": 36.925,
                "pitch": 33,
                "velocity": 80,
                "duration": 0.1340909,
                "tempo": 120.0
            },
            {
                "start_time": 36.9909091,
                "end_time": 37.125,
                "pitch": 38,
                "velocity": 80,
                "duration": 0.1340909,
                "tempo": 120.0
            },
            {
                "start_time": 37.1931818,
                "end_time": 37.2590909,
                "pitch": 50,
                "velocity": 80,
                "duration": 0.0659091,
                "tempo": 120.0
            },
            {
                "start_time": 37.3931818,
                "end_time": 37.5272727,
                "pitch": 36,
                "velocity": 80,
                "duration": 0.1340909,
                "tempo": 120.0
            },
            {
                "start_time": 37.5931818,
                "end_time": 37.6590909,
                "pitch": 48,
                "velocity": 80,
                "duration": 0.0659091,
                "tempo": 120.0
            },
            {
                "start_time": 37.7931818,
                "end_time": 37.9272727,
                "pitch": 34,
                "velocity": 80,
                "duration": 0.1340909,
                "tempo": 120.0
            },
            {
                "start_time": 37.9931818,
                "end_time": 38.0590909,
                "pitch": 46,
                "velocity": 80,
                "duration": 0.0659091,
                "tempo": 120.0
            },
            {
                "start_time": 38.1931818,
                "end_time": 38.3272727,
                "pitch": 33,
                "velocity": 80,
                "duration": 0.1340909,
                "tempo": 120.0
            },
            {
                "start_time": 38.3931818,
                "end_time": 38.4590909,
                "pitch": 45,
                "velocity": 80,
                "duration": 0.0659091,
                "tempo": 120.0
            },
            {
                "start_time": 38.5931818,
                "end_time": 38.7272727,
                "pitch": 31,
                "velocity": 80,
                "duration": 0.1340909,
                "tempo": 120.0
            },
            {
                "start_time": 38.7931818,
                "end_time": 38.9272727,
                "pitch": 31,
                "velocity": 80,
                "duration": 0.1340909,
                "tempo": 120.0
            },
            {
                "start_time": 38.9931818,
                "end_time": 39.2795455,
                "pitch": 38,
                "velocity": 80,
                "duration": 0.2863636,
                "tempo": 120.0
            },
            {
                "start_time": 39.3954545,
                "end_time": 39.5431818,
                "pitch": 36,
                "velocity": 80,
                "duration": 0.1477273,
                "tempo": 120.0
            },
            {
                "start_time": 39.5931818,
                "end_time": 39.7431818,
                "pitch": 36,
                "velocity": 80,
                "duration": 0.15,
                "tempo": 120.0
            },
            {
                "start_time": 39.7931818,
                "end_time": 40.0931818,
                "pitch": 43,
                "velocity": 80,
                "duration": 0.3,
                "tempo": 120.0
            },
            {
                "start_time": 40.1931818,
                "end_time": 41.0977273,
                "pitch": 29,
                "velocity": 80,
                "duration": 0.9045455,
                "tempo": 120.0
            },
            {
                "start_time": 41.4045455,
                "end_time": 41.5522727,
                "pitch": 34,
                "velocity": 80,
                "duration": 0.1477273,
                "tempo": 120.0
            },
            {
                "start_time": 41.6,
                "end_time": 41.7477273,
                "pitch": 34,
                "velocity": 80,
                "duration": 0.1477273,
                "tempo": 120.0
            },
            {
                "start_time": 41.7977273,
                "end_time": 42.1,
                "pitch": 48,
                "velocity": 80,
                "duration": 0.3022727,
                "tempo": 120.0
            },
            {
                "start_time": 42.2,
                "end_time": 42.4977273,
                "pitch": 50,
                "velocity": 80,
                "duration": 0.2977273,
                "tempo": 120.0
            },
            {
                "start_time": 42.5977273,
                "end_time": 42.9,
                "pitch": 51,
                "velocity": 80,
                "duration": 0.3022727,
                "tempo": 120.0
            },
            {
                "start_time": 43.0,
                "end_time": 43.3022727,
                "pitch": 48,
                "velocity": 80,
                "duration": 0.3022727,
                "tempo": 120.0
            },
            {
                "start_time": 43.4022727,
                "end_time": 43.7,
                "pitch": 50,
                "velocity": 80,
                "duration": 0.2977273,
                "tempo": 120.0
            },
            {
                "start_time": 43.8022727,
                "end_time": 44.1022727,
                "pitch": 48,
                "velocity": 80,
                "duration": 0.3,
                "tempo": 120.0
            },
            {
                "start_time": 44.2022727,
                "end_time": 44.5022727,
                "pitch": 46,
                "velocity": 80,
                "duration": 0.3,
                "tempo": 120.0
            },
            {
                "start_time": 44.6022727,
                "end_time": 44.9022727,
                "pitch": 45,
                "velocity": 80,
                "duration": 0.3,
                "tempo": 120.0
            },
            {
                "start_time": 45.0022727,
                "end_time": 45.1363636,
                "pitch": 31,
                "velocity": 80,
                "duration": 0.1340909,
                "tempo": 120.0
            },
            {
                "start_time": 45.2045455,
                "end_time": 45.3386364,
                "pitch": 31,
                "velocity": 80,
                "duration": 0.1340909,
                "tempo": 120.0
            },
            {
                "start_time": 45.4045455,
                "end_time": 45.6886364,
                "pitch": 38,
                "velocity": 80,
                "duration": 0.2840909,
                "tempo": 120.0
            },
            {
                "start_time": 45.8045455,
                "end_time": 45.9522727,
                "pitch": 36,
                "velocity": 80,
                "duration": 0.1477273,
                "tempo": 120.0
            },
            {
                "start_time": 46.0022727,
                "end_time": 46.1522727,
                "pitch": 36,
                "velocity": 80,
                "duration": 0.15,
                "tempo": 120.0
            },
            {
                "start_time": 46.2022727,
                "end_time": 46.5022727,
                "pitch": 43,
                "velocity": 80,
                "duration": 0.3,
                "tempo": 120.0
            },
            {
                "start_time": 46.6022727,
                "end_time": 47.5090909,
                "pitch": 29,
                "velocity": 80,
                "duration": 0.9068182,
                "tempo": 120.0
            },
            {
                "start_time": 47.8159091,
                "end_time": 47.9636364,
                "pitch": 34,
                "velocity": 80,
                "duration": 0.1477273,
                "tempo": 120.0
            },
            {
                "start_time": 48.0136364,
                "end_time": 48.1590909,
                "pitch": 34,
                "velocity": 80,
                "duration": 0.1454545,
                "tempo": 120.0
            },
            {
                "start_time": 48.2090909,
                "end_time": 48.3590909,
                "pitch": 33,
                "velocity": 80,
                "duration": 0.15,
                "tempo": 120.0
            },
            {
                "start_time": 48.4090909,
                "end_time": 48.4909091,
                "pitch": 45,
                "velocity": 80,
                "duration": 0.0818182,
                "tempo": 120.0
            },
            {
                "start_time": 48.6090909,
                "end_time": 48.7590909,
                "pitch": 37,
                "velocity": 80,
                "duration": 0.15,
                "tempo": 120.0
            },
            {
                "start_time": 48.8090909,
                "end_time": 48.8909091,
                "pitch": 49,
                "velocity": 80,
                "duration": 0.0818182,
                "tempo": 120.0
            },
            {
                "start_time": 49.0090909,
                "end_time": 49.1590909,
                "pitch": 40,
                "velocity": 80,
                "duration": 0.15,
                "tempo": 120.0
            },
            {
                "start_time": 49.2090909,
                "end_time": 49.2931818,
                "pitch": 52,
                "velocity": 80,
                "duration": 0.0840909,
                "tempo": 120.0
            },
            {
                "start_time": 49.4113636,
                "end_time": 49.5613636,
                "pitch": 37,
                "velocity": 80,
                "duration": 0.15,
                "tempo": 120.0
            },
            {
                "start_time": 49.6113636,
                "end_time": 49.6954545,
                "pitch": 49,
                "velocity": 80,
                "duration": 0.0840909,
                "tempo": 120.0
            },
            {
                "start_time": 49.8113636,
                "end_time": 49.9613636,
                "pitch": 38,
                "velocity": 80,
                "duration": 0.15,
                "tempo": 120.0
            },
            {
                "start_time": 50.0113636,
                "end_time": 50.0795455,
                "pitch": 50,
                "velocity": 80,
                "duration": 0.0681818,
                "tempo": 120.0
            },
            {
                "start_time": 50.2136364,
                "end_time": 50.3477273,
                "pitch": 36,
                "velocity": 80,
                "duration": 0.1340909,
                "tempo": 120.0
            },
            {
                "start_time": 50.4136364,
                "end_time": 50.4795455,
                "pitch": 48,
                "velocity": 80,
                "duration": 0.0659091,
                "tempo": 120.0
            },
            {
                "start_time": 50.6136364,
                "end_time": 50.7477273,
                "pitch": 34,
                "velocity": 80,
                "duration": 0.1340909,
                "tempo": 120.0
            },
            {
                "start_time": 50.8136364,
                "end_time": 50.8795455,
                "pitch": 46,
                "velocity": 80,
                "duration": 0.0659091,
                "tempo": 120.0
            },
            {
                "start_time": 51.0136364,
                "end_time": 51.1477273,
                "pitch": 33,
                "velocity": 80,
                "duration": 0.1340909,
                "tempo": 120.0
            },
            {
                "start_time": 51.2159091,
                "end_time": 51.2818182,
                "pitch": 45,
                "velocity": 80,
                "duration": 0.0659091,
                "tempo": 120.0
            }
        ],
        "Trumpet": [
            {
                "start_time": 0.65,
                "end_time": 1.2659091,
                "pitch": 58,
                "velocity": 51,
                "duration": 0.6159091,
                "tempo": 120.0
            },
            {
                "start_time": 1.8659091,
                "end_time": 1.95,
                "pitch": 58,
                "velocity": 51,
                "duration": 0.0840909,
                "tempo": 120.0
            },
            {
                "start_time": 2.0659091,
                "end_time": 2.1522727,
                "pitch": 58,
                "velocity": 51,
                "duration": 0.0863636,
                "tempo": 120.0
            },
            {
                "start_time": 2.2704545,
                "end_time": 2.3568182,
                "pitch": 58,
                "velocity": 51,
                "duration": 0.0863636,
                "tempo": 120.0
            },
            {
                "start_time": 2.4772727,
                "end_time": 2.5590909,
                "pitch": 58,
                "velocity": 51,
                "duration": 0.0818182,
                "tempo": 120.0
            },
            {
                "start_time": 2.6727273,
                "end_time": 2.7545455,
                "pitch": 58,
                "velocity": 51,
                "duration": 0.0818182,
                "tempo": 120.0
            },
            {
                "start_time": 2.8681818,
                "end_time": 3.0227273,
                "pitch": 57,
                "velocity": 51,
                "duration": 0.1545455,
                "tempo": 120.0
            },
            {
                "start_time": 3.075,
                "end_time": 3.1590909,
                "pitch": 57,
                "velocity": 51,
                "duration": 0.0840909,
                "tempo": 120.0
            },
            {
                "start_time": 3.2840909,
                "end_time": 3.35,
                "pitch": 58,
                "velocity": 51,
                "duration": 0.0659091,
                "tempo": 120.0
            },
            {
                "start_time": 3.8840909,
                "end_time": 4.4840909,
                "pitch": 58,
                "velocity": 51,
                "duration": 0.6,
                "tempo": 120.0
            },
            {
                "start_time": 5.0840909,
                "end_time": 5.1477273,
                "pitch": 58,
                "velocity": 51,
                "duration": 0.0636364,
                "tempo": 120.0
            },
            {
                "start_time": 5.2795455,
                "end_time": 5.3477273,
                "pitch": 58,
                "velocity": 51,
                "duration": 0.0681818,
                "tempo": 120.0
            },
            {
                "start_time": 5.4840909,
                "end_time": 5.5545455,
                "pitch": 58,
                "velocity": 51,
                "duration": 0.0704545,
                "tempo": 120.0
            },
            {
                "start_time": 5.6909091,
                "end_time": 5.7568182,
                "pitch": 58,
                "velocity": 51,
                "duration": 0.0659091,
                "tempo": 120.0
            },
            {
                "start_time": 5.8909091,
                "end_time": 5.9568182,
                "pitch": 58,
                "velocity": 51,
                "duration": 0.0659091,
                "tempo": 120.0
            },
            {
                "start_time": 6.0909091,
                "end_time": 6.1568182,
                "pitch": 60,
                "velocity": 51,
                "duration": 0.0659091,
                "tempo": 120.0
            },
            {
                "start_time": 6.2931818,
                "end_time": 6.4409091,
                "pitch": 62,
                "velocity": 51,
                "duration": 0.1477273,
                "tempo": 120.0
            },
            {
                "start_time": 6.4909091,
                "end_time": 6.5727273,
                "pitch": 63,
                "velocity": 51,
                "duration": 0.0818182,
                "tempo": 120.0
            },
            {
                "start_time": 7.0909091,
                "end_time": 7.7,
                "pitch": 63,
                "velocity": 51,
                "duration": 0.6090909,
                "tempo": 120.0
            },
            {
                "start_time": 8.4909091,
                "end_time": 8.5590909,
                "pitch": 67,
                "velocity": 51,
                "duration": 0.0681818,
                "tempo": 120.0
            },
            {
                "start_time": 8.6954545,
                "end_time": 8.8340909,
                "pitch": 65,
                "velocity": 51,
                "duration": 0.1386364,
                "tempo": 120.0
            },
            {
                "start_time": 8.9022727,
                "end_time": 8.9681818,
                "pitch": 63,
                "velocity": 51,
                "duration": 0.0659091,
                "tempo": 120.0
            },
            {
                "start_time": 9.1045455,
                "end_time": 9.2522727,
                "pitch": 62,
                "velocity": 51,
                "duration": 0.1477273,
                "tempo": 120.0
            },
            {
                "start_time": 9.3022727,
                "end_time": 9.3863636,
                "pitch": 60,
                "velocity": 51,
                "duration": 0.0840909,
                "tempo": 120.0
            },
            {
                "start_time": 9.5045455,
                "end_time": 9.6409091,
                "pitch": 62,
                "velocity": 51,
                "duration": 0.1363636,
                "tempo": 120.0
            },
            {
                "start_time": 9.7068182,
                "end_time": 10.6113636,
                "pitch": 62,
                "velocity": 51,
                "duration": 0.9045455,
                "tempo": 120.0
            },
            {
                "start_time": 10.9136364,
                "end_time": 11.0477273,
                "pitch": 61,
                "velocity": 51,
                "duration": 0.1340909,
                "tempo": 120.0
            },
            {
                "start_time": 11.1136364,
                "end_time": 11.1818182,
                "pitch": 60,
                "velocity": 51,
                "duration": 0.0681818,
                "tempo": 120.0
            },
            {
                "start_time": 11.2159091,
                "end_time": 11.2818182,
                "pitch": 59,
                "velocity": 51,
                "duration": 0.0659091,
                "tempo": 120.0
            },
            {
                "start_time": 11.3159091,
                "end_time": 12.5204545,
                "pitch": 58,
                "velocity": 51,
                "duration": 1.2045455,
                "tempo": 120.0
            },
            {
                "start_time": 12.9227273,
                "end_time": 12.9909091,
                "pitch": 58,
                "velocity": 51,
                "duration": 0.0681818,
                "tempo": 120.0
            },
            {
                "start_time": 13.5272727,
                "end_time": 14.1318182,
                "pitch": 58,
                "velocity": 51,
                "duration": 0.6045455,
                "tempo": 120.0
            },
            {
                "start_time": 14.7272727,
                "end_time": 14.7931818,
                "pitch": 58,
                "velocity": 51,
                "duration": 0.0659091,
                "tempo": 120.0
            },
            {
                "start_time": 14.925,
                "end_time": 14.9931818,
                "pitch": 58,
                "velocity": 51,
                "duration": 0.0681818,
                "tempo": 120.0
            },
            {
                "start_time": 15.1295455,
                "end_time": 15.1977273,
                "pitch": 58,
                "velocity": 51,
                "duration": 0.0681818,
                "tempo": 120.0
            },
            {
                "start_time": 15.3340909,
                "end_time": 15.4022727,
                "pitch": 58,
                "velocity": 51,
                "duration": 0.0681818,
                "tempo": 120.0
            },
            {
                "start_time": 15.5363636,
                "end_time": 15.6045455,
                "pitch": 58,
                "velocity": 51,
                "duration": 0.0681818,
                "tempo": 120.0
            },
            {
                "start_time": 15.7386364,
                "end_time": 15.8863636,
                "pitch": 57,
                "velocity": 51,
                "duration": 0.1477273,
                "tempo": 120.0
            },
            {
                "start_time": 15.9363636,
                "end_time": 16.0204545,
                "pitch": 57,
                "velocity": 51,
                "duration": 0.0840909,
                "tempo": 120.0
            },
            {
                "start_time": 16.1409091,
                "end_time": 16.2068182,
                "pitch": 58,
                "velocity": 51,
                "duration": 0.0659091,
                "tempo": 120.0
            },
            {
                "start_time": 16.7409091,
                "end_time": 17.3431818,
                "pitch": 58,
                "velocity": 51,
                "duration": 0.6022727,
                "tempo": 120.0
            },
            {
                "start_time": 17.9386364,
                "end_time": 18.0045455,
                "pitch": 58,
                "velocity": 51,
                "duration": 0.0659091,
                "tempo": 120.0
            },
            {
                "start_time": 18.1363636,
                "end_time": 18.2045455,
                "pitch": 58,
                "velocity": 51,
                "duration": 0.0681818,
                "tempo": 120.0
            },
            {
                "start_time": 18.3409091,
                "end_time": 18.4090909,
                "pitch": 58,
                "velocity": 51,
                "duration": 0.0681818,
                "tempo": 120.0
            },
            {
                "start_time": 18.5454545,
                "end_time": 18.6136364,
                "pitch": 58,
                "velocity": 51,
                "duration": 0.0681818,
                "tempo": 120.0
            },
            {
                "start_time": 18.7477273,
                "end_time": 18.8136364,
                "pitch": 58,
                "velocity": 51,
                "duration": 0.0659091,
                "tempo": 120.0
            },
            {
                "start_time": 18.95,
                "end_time": 19.0159091,
                "pitch": 60,
                "velocity": 51,
                "duration": 0.0659091,
                "tempo": 120.0
            },
            {
                "start_time": 19.15,
                "end_time": 19.2977273,
                "pitch": 62,
                "velocity": 51,
                "duration": 0.1477273,
                "tempo": 120.0
            },
            {
                "start_time": 19.3477273,
                "end_time": 19.4295455,
                "pitch": 63,
                "velocity": 51,
                "duration": 0.0818182,
                "tempo": 120.0
            },
            {
                "start_time": 19.95,
                "end_time": 20.5522727,
                "pitch": 63,
                "velocity": 51,
                "duration": 0.6022727,
                "tempo": 120.0
            },
            {
                "start_time": 21.3545455,
                "end_time": 21.4204545,
                "pitch": 67,
                "velocity": 51,
                "duration": 0.0659091,
                "tempo": 120.0
            },
            {
                "start_time": 21.5545455,
                "end_time": 21.6886364,
                "pitch": 65,
                "velocity": 51,
                "duration": 0.1340909,
                "tempo": 120.0
            },
            {
                "start_time": 21.7545455,
                "end_time": 21.8227273,
                "pitch": 63,
                "velocity": 51,
                "duration": 0.0681818,
                "tempo": 120.0
            },
            {
                "start_time": 21.9568182,
                "end_time": 22.1045455,
                "pitch": 62,
                "velocity": 51,
                "duration": 0.1477273,
                "tempo": 120.0
            },
            {
                "start_time": 22.1545455,
                "end_time": 22.2386364,
                "pitch": 60,
                "velocity": 51,
                "duration": 0.0840909,
                "tempo": 120.0
            },
            {
                "start_time": 22.3545455,
                "end_time": 22.4909091,
                "pitch": 62,
                "velocity": 51,
                "duration": 0.1363636,
                "tempo": 120.0
            },
            {
                "start_time": 22.5568182,
                "end_time": 23.4590909,
                "pitch": 62,
                "velocity": 51,
                "duration": 0.9022727,
                "tempo": 120.0
            },
            {
                "start_time": 23.7590909,
                "end_time": 23.8954545,
                "pitch": 61,
                "velocity": 51,
                "duration": 0.1363636,
                "tempo": 120.0
            },
            {
                "start_time": 23.9613636,
                "end_time": 24.0295455,
                "pitch": 60,
                "velocity": 51,
                "duration": 0.0681818,
                "tempo": 120.0
            },
            {
                "start_time": 24.0613636,
                "end_time": 24.1295455,
                "pitch": 59,
                "velocity": 51,
                "duration": 0.0681818,
                "tempo": 120.0
            },
            {
                "start_time": 24.1636364,
                "end_time": 25.0659091,
                "pitch": 58,
                "velocity": 51,
                "duration": 0.9022727,
                "tempo": 120.0
            },
            {
                "start_time": 25.3659091,
                "end_time": 25.6659091,
                "pitch": 58,
                "velocity": 51,
                "duration": 0.3,
                "tempo": 120.0
            },
            {
                "start_time": 25.7659091,
                "end_time": 26.0659091,
                "pitch": 55,
                "velocity": 51,
                "duration": 0.3,
                "tempo": 120.0
            },
            {
                "start_time": 26.3659091,
                "end_time": 26.6659091,
                "pitch": 60,
                "velocity": 51,
                "duration": 0.3,
                "tempo": 120.0
            },
            {
                "start_time": 26.7681818,
                "end_time": 26.8522727,
                "pitch": 58,
                "velocity": 51,
                "duration": 0.0840909,
                "tempo": 120.0
            },
            {
                "start_time": 26.9681818,
                "end_time": 27.2681818,
                "pitch": 55,
                "velocity": 51,
                "duration": 0.3,
                "tempo": 120.0
            },
            {
                "start_time": 27.3681818,
                "end_time": 27.6681818,
                "pitch": 55,
                "velocity": 51,
                "duration": 0.3,
                "tempo": 120.0
            },
            {
                "start_time": 27.9704545,
                "end_time": 28.0545455,
                "pitch": 55,
                "velocity": 51,
                "duration": 0.0840909,
                "tempo": 120.0
            },
            {
                "start_time": 28.0704545,
                "end_time": 28.1545455,
                "pitch": 57,
                "velocity": 51,
                "duration": 0.0840909,
                "tempo": 120.0
            },
            {
                "start_time": 28.1704545,
                "end_time": 28.3068182,
                "pitch": 58,
                "velocity": 51,
                "duration": 0.1363636,
                "tempo": 120.0
            },
            {
                "start_time": 28.5727273,
                "end_time": 28.7090909,
                "pitch": 50,
                "velocity": 51,
                "duration": 0.1363636,
                "tempo": 120.0
            },
            {
                "start_time": 28.9772727,
                "end_time": 29.0431818,
                "pitch": 54,
                "velocity": 51,
                "duration": 0.0659091,
                "tempo": 120.0
            },
            {
                "start_time": 29.1772727,
                "end_time": 29.2431818,
                "pitch": 54,
                "velocity": 8,
                "duration": 0.0659091,
                "tempo": 120.0
            },
            {
                "start_time": 29.3772727,
                "end_time": 29.4431818,
                "pitch": 54,
                "velocity": 10,
                "duration": 0.0659091,
                "tempo": 120.0
            },
            {
                "start_time": 29.5772727,
                "end_time": 29.6431818,
                "pitch": 54,
                "velocity": 13,
                "duration": 0.0659091,
                "tempo": 120.0
            },
            {
                "start_time": 29.7772727,
                "end_time": 29.8431818,
                "pitch": 54,
                "velocity": 16,
                "duration": 0.0659091,
                "tempo": 120.0
            },
            {
                "start_time": 29.9772727,
                "end_time": 30.0590909,
                "pitch": 54,
                "velocity": 20,
                "duration": 0.0818182,
                "tempo": 120.0
            },
            {
                "start_time": 30.1795455,
                "end_time": 30.2454545,
                "pitch": 54,
                "velocity": 25,
                "duration": 0.0659091,
                "tempo": 120.0
            },
            {
                "start_time": 30.3795455,
                "end_time": 30.4454545,
                "pitch": 54,
                "velocity": 32,
                "duration": 0.0659091,
                "tempo": 120.0
            },
            {
                "start_time": 30.5795455,
                "end_time": 30.6477273,
                "pitch": 55,
                "velocity": 51,
                "duration": 0.0681818,
                "tempo": 120.0
            },
            {
                "start_time": 30.7818182,
                "end_time": 30.8477273,
                "pitch": 55,
                "velocity": 8,
                "duration": 0.0659091,
                "tempo": 120.0
            },
            {
                "start_time": 30.9818182,
                "end_time": 31.05,
                "pitch": 55,
                "velocity": 10,
                "duration": 0.0681818,
                "tempo": 120.0
            },
            {
                "start_time": 31.1818182,
                "end_time": 31.25,
                "pitch": 55,
                "velocity": 13,
                "duration": 0.0681818,
                "tempo": 120.0
            },
            {
                "start_time": 31.3818182,
                "end_time": 31.45,
                "pitch": 55,
                "velocity": 16,
                "duration": 0.0681818,
                "tempo": 120.0
            },
            {
                "start_time": 31.5818182,
                "end_time": 31.65,
                "pitch": 55,
                "velocity": 20,
                "duration": 0.0681818,
                "tempo": 120.0
            },
            {
                "start_time": 31.7818182,
                "end_time": 32.0840909,
                "pitch": 58,
                "velocity": 25,
                "duration": 0.3022727,
                "tempo": 120.0
            },
            {
                "start_time": 32.1840909,
                "end_time": 32.4818182,
                "pitch": 55,
                "velocity": 51,
                "duration": 0.2977273,
                "tempo": 120.0
            },
            {
                "start_time": 32.7818182,
                "end_time": 33.0840909,
                "pitch": 60,
                "velocity": 51,
                "duration": 0.3022727,
                "tempo": 120.0
            },
            {
                "start_time": 33.1840909,
                "end_time": 33.2681818,
                "pitch": 58,
                "velocity": 51,
                "duration": 0.0840909,
                "tempo": 120.0
            },
            {
                "start_time": 33.3863636,
                "end_time": 33.6863636,
                "pitch": 55,
                "velocity": 51,
                "duration": 0.3,
                "tempo": 120.0
            },
            {
                "start_time": 33.7863636,
                "end_time": 34.0863636,
                "pitch": 55,
                "velocity": 51,
                "duration": 0.3,
                "tempo": 120.0
            },
            {
                "start_time": 34.3863636,
                "end_time": 34.4681818,
                "pitch": 55,
                "velocity": 51,
                "duration": 0.0818182,
                "tempo": 120.0
            },
            {
                "start_time": 34.4863636,
                "end_time": 34.5681818,
                "pitch": 57,
                "velocity": 51,
                "duration": 0.0818182,
                "tempo": 120.0
            },
            {
                "start_time": 34.5863636,
                "end_time": 34.7204545,
                "pitch": 58,
                "velocity": 51,
                "duration": 0.1340909,
                "tempo": 120.0
            },
            {
                "start_time": 34.9886364,
                "end_time": 35.1227273,
                "pitch": 50,
                "velocity": 51,
                "duration": 0.1340909,
                "tempo": 120.0
            },
            {
                "start_time": 35.3909091,
                "end_time": 35.6909091,
                "pitch": 57,
                "velocity": 51,
                "duration": 0.3,
                "tempo": 120.0
            },
            {
                "start_time": 35.7909091,
                "end_time": 36.0909091,
                "pitch": 52,
                "velocity": 51,
                "duration": 0.3,
                "tempo": 120.0
            },
            {
                "start_time": 36.1909091,
                "end_time": 36.4909091,
                "pitch": 50,
                "velocity": 51,
                "duration": 0.3,
                "tempo": 120.0
            },
            {
                "start_time": 36.5909091,
                "end_time": 36.8909091,
                "pitch": 52,
                "velocity": 51,
                "duration": 0.3,
                "tempo": 120.0
            },
            {
                "start_time": 36.9909091,
                "end_time": 38.1931818,
                "pitch": 57,
                "velocity": 51,
                "duration": 1.2022727,
                "tempo": 120.0
            },
            {
                "start_time": 38.5931818,
                "end_time": 38.7272727,
                "pitch": 43,
                "velocity": 51,
                "duration": 0.1340909,
                "tempo": 120.0
            },
            {
                "start_time": 38.7931818,
                "end_time": 38.9272727,
                "pitch": 43,
                "velocity": 51,
                "duration": 0.1340909,
                "tempo": 120.0
            },
            {
                "start_time": 38.9931818,
                "end_time": 39.2954545,
                "pitch": 58,
                "velocity": 51,
                "duration": 0.3022727,
                "tempo": 120.0
            },
            {
                "start_time": 39.3954545,
                "end_time": 39.5431818,
                "pitch": 48,
                "velocity": 51,
                "duration": 0.1477273,
                "tempo": 120.0
            },
            {
                "start_time": 39.5931818,
                "end_time": 39.7431818,
                "pitch": 48,
                "velocity": 51,
                "duration": 0.15,
                "tempo": 120.0
            },
            {
                "start_time": 39.7931818,
                "end_time": 40.0931818,
                "pitch": 60,
                "velocity": 51,
                "duration": 0.3,
                "tempo": 120.0
            },
            {
                "start_time": 40.1931818,
                "end_time": 40.3431818,
                "pitch": 62,
                "velocity": 51,
                "duration": 0.15,
                "tempo": 120.0
            },
            {
                "start_time": 40.3931818,
                "end_time": 40.4772727,
                "pitch": 60,
                "velocity": 51,
                "duration": 0.0840909,
                "tempo": 120.0
            },
            {
                "start_time": 40.7931818,
                "end_time": 40.8772727,
                "pitch": 62,
                "velocity": 51,
                "duration": 0.0840909,
                "tempo": 120.0
            },
            {
                "start_time": 40.9931818,
                "end_time": 41.6,
                "pitch": 58,
                "velocity": 51,
                "duration": 0.6068182,
                "tempo": 120.0
            },
            {
                "start_time": 41.7977273,
                "end_time": 41.8795455,
                "pitch": 60,
                "velocity": 51,
                "duration": 0.0818182,
                "tempo": 120.0
            },
            {
                "start_time": 42.0,
                "end_time": 42.0659091,
                "pitch": 60,
                "velocity": 8,
                "duration": 0.0659091,
                "tempo": 120.0
            },
            {
                "start_time": 42.2,
                "end_time": 42.2659091,
                "pitch": 60,
                "velocity": 10,
                "duration": 0.0659091,
                "tempo": 120.0
            },
            {
                "start_time": 42.4,
                "end_time": 42.4818182,
                "pitch": 60,
                "velocity": 13,
                "duration": 0.0818182,
                "tempo": 120.0
            },
            {
                "start_time": 42.5977273,
                "end_time": 42.6818182,
                "pitch": 60,
                "velocity": 16,
                "duration": 0.0840909,
                "tempo": 120.0
            },
            {
                "start_time": 42.8,
                "end_time": 42.8659091,
                "pitch": 60,
                "velocity": 20,
                "duration": 0.0659091,
                "tempo": 120.0
            },
            {
                "start_time": 43.0,
                "end_time": 43.0659091,
                "pitch": 60,
                "velocity": 25,
                "duration": 0.0659091,
                "tempo": 120.0
            },
            {
                "start_time": 43.2022727,
                "end_time": 43.2681818,
                "pitch": 60,
                "velocity": 32,
                "duration": 0.0659091,
                "tempo": 120.0
            },
            {
                "start_time": 43.4022727,
                "end_time": 43.4681818,
                "pitch": 57,
                "velocity": 51,
                "duration": 0.0659091,
                "tempo": 120.0
            },
            {
                "start_time": 43.6022727,
                "end_time": 43.6840909,
                "pitch": 57,
                "velocity": 8,
                "duration": 0.0818182,
                "tempo": 120.0
            },
            {
                "start_time": 43.8022727,
                "end_time": 43.8681818,
                "pitch": 57,
                "velocity": 10,
                "duration": 0.0659091,
                "tempo": 120.0
            },
            {
                "start_time": 44.0022727,
                "end_time": 44.0681818,
                "pitch": 57,
                "velocity": 13,
                "duration": 0.0659091,
                "tempo": 120.0
            },
            {
                "start_time": 44.2022727,
                "end_time": 44.2681818,
                "pitch": 57,
                "velocity": 16,
                "duration": 0.0659091,
                "tempo": 120.0
            },
            {
                "start_time": 44.4022727,
                "end_time": 44.4681818,
                "pitch": 57,
                "velocity": 20,
                "duration": 0.0659091,
                "tempo": 120.0
            },
            {
                "start_time": 44.6022727,
                "end_time": 44.6681818,
                "pitch": 57,
                "velocity": 25,
                "duration": 0.0659091,
                "tempo": 120.0
            },
            {
                "start_time": 44.8022727,
                "end_time": 44.8681818,
                "pitch": 57,
                "velocity": 32,
                "duration": 0.0659091,
                "tempo": 120.0
            },
            {
                "start_time": 45.0022727,
                "end_time": 45.1363636,
                "pitch": 43,
                "velocity": 51,
                "duration": 0.1340909,
                "tempo": 120.0
            },
            {
                "start_time": 45.2045455,
                "end_time": 45.3386364,
                "pitch": 43,
                "velocity": 51,
                "duration": 0.1340909,
                "tempo": 120.0
            },
            {
                "start_time": 45.4045455,
                "end_time": 45.7045455,
                "pitch": 58,
                "velocity": 51,
                "duration": 0.3,
                "tempo": 120.0
            },
            {
                "start_time": 45.8045455,
                "end_time": 45.9522727,
                "pitch": 48,
                "velocity": 51,
                "duration": 0.1477273,
                "tempo": 120.0
            },
            {
                "start_time": 46.0022727,
                "end_time": 46.1522727,
                "pitch": 48,
                "velocity": 51,
                "duration": 0.15,
                "tempo": 120.0
            },
            {
                "start_time": 46.2022727,
                "end_time": 46.5022727,
                "pitch": 60,
                "velocity": 51,
                "duration": 0.3,
                "tempo": 120.0
            },
            {
                "start_time": 46.6022727,
                "end_time": 46.7522727,
                "pitch": 62,
                "velocity": 51,
                "duration": 0.15,
                "tempo": 120.0
            },
            {
                "start_time": 46.8022727,
                "end_time": 46.8863636,
                "pitch": 60,
                "velocity": 51,
                "duration": 0.0840909,
                "tempo": 120.0
            },
            {
                "start_time": 47.2045455,
                "end_time": 47.2886364,
                "pitch": 62,
                "velocity": 51,
                "duration": 0.0840909,
                "tempo": 120.0
            },
            {
                "start_time": 47.4068182,
                "end_time": 48.0136364,
                "pitch": 58,
                "velocity": 51,
                "duration": 0.6068182,
                "tempo": 120.0
            },
            {
                "start_time": 48.2090909,
                "end_time": 48.2909091,
                "pitch": 57,
                "velocity": 51,
                "duration": 0.0818182,
                "tempo": 120.0
            },
            {
                "start_time": 48.4090909,
                "end_time": 48.4909091,
                "pitch": 57,
                "velocity": 51,
                "duration": 0.0818182,
                "tempo": 120.0
            },
            {
                "start_time": 48.6090909,
                "end_time": 48.6909091,
                "pitch": 57,
                "velocity": 51,
                "duration": 0.0818182,
                "tempo": 120.0
            },
            {
                "start_time": 48.8090909,
                "end_time": 48.8909091,
                "pitch": 57,
                "velocity": 51,
                "duration": 0.0818182,
                "tempo": 120.0
            },
            {
                "start_time": 49.0090909,
                "end_time": 49.0931818,
                "pitch": 57,
                "velocity": 51,
                "duration": 0.0840909,
                "tempo": 120.0
            },
            {
                "start_time": 49.2090909,
                "end_time": 49.2931818,
                "pitch": 57,
                "velocity": 51,
                "duration": 0.0840909,
                "tempo": 120.0
            },
            {
                "start_time": 49.4113636,
                "end_time": 49.4954545,
                "pitch": 57,
                "velocity": 51,
                "duration": 0.0840909,
                "tempo": 120.0
            },
            {
                "start_time": 49.6113636,
                "end_time": 49.6954545,
                "pitch": 57,
                "velocity": 51,
                "duration": 0.0840909,
                "tempo": 120.0
            },
            {
                "start_time": 49.8113636,
                "end_time": 49.8954545,
                "pitch": 57,
                "velocity": 51,
                "duration": 0.0840909,
                "tempo": 120.0
            },
            {
                "start_time": 50.0113636,
                "end_time": 50.0795455,
                "pitch": 57,
                "velocity": 51,
                "duration": 0.0681818,
                "tempo": 120.0
            },
            {
                "start_time": 50.2136364,
                "end_time": 50.2795455,
                "pitch": 57,
                "velocity": 51,
                "duration": 0.0659091,
                "tempo": 120.0
            },
            {
                "start_time": 50.4136364,
                "end_time": 50.4795455,
                "pitch": 57,
                "velocity": 51,
                "duration": 0.0659091,
                "tempo": 120.0
            },
            {
                "start_time": 50.6136364,
                "end_time": 50.6795455,
                "pitch": 57,
                "velocity": 51,
                "duration": 0.0659091,
                "tempo": 120.0
            },
            {
                "start_time": 50.8136364,
                "end_time": 50.8795455,
                "pitch": 57,
                "velocity": 51,
                "duration": 0.0659091,
                "tempo": 120.0
            },
            {
                "start_time": 51.0136364,
                "end_time": 51.0818182,
                "pitch": 57,
                "velocity": 51,
                "duration": 0.0681818,
                "tempo": 120.0
            },
            {
                "start_time": 51.2159091,
                "end_time": 51.2818182,
                "pitch": 57,
                "velocity": 51,
                "duration": 0.0659091,
                "tempo": 120.0
            }
        ],
        "Electric Guitar (clean)": [
            {
                "start_time": 0.0,
                "end_time": 0.4522727,
                "pitch": 19,
                "velocity": 4,
                "duration": 0.4522727,
                "tempo": 120.0
            },
            {
                "start_time": 0.4522727,
                "end_time": 0.6681818,
                "pitch": 108,
                "velocity": 4,
                "duration": 0.2159091,
                "tempo": 120.0
            },
            {
                "start_time": 0.6681818,
                "end_time": 1.2818182,
                "pitch": 19,
                "velocity": 4,
                "duration": 0.6136364,
                "tempo": 120.0
            },
            {
                "start_time": 1.2818182,
                "end_time": 1.6818182,
                "pitch": 108,
                "velocity": 4,
                "duration": 0.4,
                "tempo": 120.0
            },
            {
                "start_time": 1.6818182,
                "end_time": 1.8818182,
                "pitch": 19,
                "velocity": 4,
                "duration": 0.2,
                "tempo": 120.0
            },
            {
                "start_time": 1.8818182,
                "end_time": 2.2886364,
                "pitch": 107,
                "velocity": 4,
                "duration": 0.4068182,
                "tempo": 120.0
            },
            {
                "start_time": 2.2886364,
                "end_time": 2.4931818,
                "pitch": 19,
                "velocity": 4,
                "duration": 0.2045455,
                "tempo": 120.0
            },
            {
                "start_time": 2.4931818,
                "end_time": 2.6886364,
                "pitch": 108,
                "velocity": 4,
                "duration": 0.1954545,
                "tempo": 120.0
            },
            {
                "start_time": 2.6886364,
                "end_time": 2.8863636,
                "pitch": 19,
                "velocity": 4,
                "duration": 0.1977273,
                "tempo": 120.0
            },
            {
                "start_time": 2.8863636,
                "end_time": 3.0909091,
                "pitch": 108,
                "velocity": 4,
                "duration": 0.2045455,
                "tempo": 120.0
            },
            {
                "start_time": 3.0909091,
                "end_time": 3.6840909,
                "pitch": 21,
                "velocity": 4,
                "duration": 0.5931818,
                "tempo": 120.0
            },
            {
                "start_time": 3.6840909,
                "end_time": 3.8840909,
                "pitch": 108,
                "velocity": 4,
                "duration": 0.2,
                "tempo": 120.0
            },
            {
                "start_time": 3.8840909,
                "end_time": 4.4522727,
                "pitch": 19,
                "velocity": 4,
                "duration": 0.5681818,
                "tempo": 120.0
            },
            {
                "start_time": 4.4522727,
                "end_time": 4.4840909,
                "pitch": 30,
                "velocity": 4,
                "duration": 0.0318182,
                "tempo": 120.0
            },
            {
                "start_time": 4.4840909,
                "end_time": 4.8863636,
                "pitch": 21,
                "velocity": 4,
                "duration": 0.4022727,
                "tempo": 120.0
            },
            {
                "start_time": 4.8863636,
                "end_time": 5.0840909,
                "pitch": 30,
                "velocity": 4,
                "duration": 0.1977273,
                "tempo": 120.0
            },
            {
                "start_time": 5.0840909,
                "end_time": 5.4840909,
                "pitch": 20,
                "velocity": 4,
                "duration": 0.4,
                "tempo": 120.0
            },
            {
                "start_time": 5.4840909,
                "end_time": 5.6909091,
                "pitch": 30,
                "velocity": 4,
                "duration": 0.2068182,
                "tempo": 120.0
            },
            {
                "start_time": 5.6909091,
                "end_time": 5.8909091,
                "pitch": 21,
                "velocity": 4,
                "duration": 0.2,
                "tempo": 120.0
            },
            {
                "start_time": 5.8909091,
                "end_time": 6.0909091,
                "pitch": 30,
                "velocity": 4,
                "duration": 0.2,
                "tempo": 120.0
            },
            {
                "start_time": 6.0909091,
                "end_time": 6.2931818,
                "pitch": 21,
                "velocity": 4,
                "duration": 0.2022727,
                "tempo": 120.0
            },
            {
                "start_time": 6.2931818,
                "end_time": 6.8863636,
                "pitch": 31,
                "velocity": 4,
                "duration": 0.5931818,
                "tempo": 120.0
            },
            {
                "start_time": 6.8863636,
                "end_time": 7.0909091,
                "pitch": 21,
                "velocity": 4,
                "duration": 0.2045455,
                "tempo": 120.0
            },
            {
                "start_time": 7.0909091,
                "end_time": 7.7,
                "pitch": 30,
                "velocity": 4,
                "duration": 0.6090909,
                "tempo": 120.0
            },
            {
                "start_time": 7.7,
                "end_time": 8.0977273,
                "pitch": 21,
                "velocity": 4,
                "duration": 0.3977273,
                "tempo": 120.0
            },
            {
                "start_time": 8.0977273,
                "end_time": 8.2295455,
                "pitch": 30,
                "velocity": 4,
                "duration": 0.1318182,
                "tempo": 120.0
            },
            {
                "start_time": 8.2295455,
                "end_time": 8.4909091,
                "pitch": 36,
                "velocity": 4,
                "duration": 0.2613636,
                "tempo": 120.0
            },
            {
                "start_time": 8.4909091,
                "end_time": 8.6954545,
                "pitch": 27,
                "velocity": 4,
                "duration": 0.2045455,
                "tempo": 120.0
            },
            {
                "start_time": 8.6954545,
                "end_time": 9.3204545,
                "pitch": 35,
                "velocity": 4,
                "duration": 0.625,
                "tempo": 120.0
            },
            {
                "start_time": 9.3204545,
                "end_time": 9.7068182,
                "pitch": 27,
                "velocity": 4,
                "duration": 0.3863636,
                "tempo": 120.0
            },
            {
                "start_time": 9.7068182,
                "end_time": 9.8090909,
                "pitch": 36,
                "velocity": 4,
                "duration": 0.1022727,
                "tempo": 120.0
            },
            {
                "start_time": 9.8090909,
                "end_time": 10.0431818,
                "pitch": 38,
                "velocity": 4,
                "duration": 0.2340909,
                "tempo": 120.0
            },
            {
                "start_time": 10.0431818,
                "end_time": 10.1090909,
                "pitch": 91,
                "velocity": 4,
                "duration": 0.0659091,
                "tempo": 120.0
            },
            {
                "start_time": 10.1090909,
                "end_time": 10.3090909,
                "pitch": 83,
                "velocity": 4,
                "duration": 0.2,
                "tempo": 120.0
            },
            {
                "start_time": 10.3090909,
                "end_time": 10.5090909,
                "pitch": 91,
                "velocity": 4,
                "duration": 0.2,
                "tempo": 120.0
            },
            {
                "start_time": 10.5090909,
                "end_time": 10.9136364,
                "pitch": 91,
                "velocity": 4,
                "duration": 0.4045455,
                "tempo": 120.0
            },
            {
                "start_time": 10.9136364,
                "end_time": 11.1136364,
                "pitch": 83,
                "velocity": 4,
                "duration": 0.2,
                "tempo": 120.0
            },
            {
                "start_time": 11.1136364,
                "end_time": 11.3159091,
                "pitch": 105,
                "velocity": 4,
                "duration": 0.2022727,
                "tempo": 120.0
            },
            {
                "start_time": 11.3159091,
                "end_time": 11.5159091,
                "pitch": 17,
                "velocity": 4,
                "duration": 0.2,
                "tempo": 120.0
            },
            {
                "start_time": 11.5159091,
                "end_time": 11.9204545,
                "pitch": 104,
                "velocity": 4,
                "duration": 0.4045455,
                "tempo": 120.0
            },
            {
                "start_time": 11.9204545,
                "end_time": 12.1204545,
                "pitch": 15,
                "velocity": 4,
                "duration": 0.2,
                "tempo": 120.0
            },
            {
                "start_time": 12.1204545,
                "end_time": 12.3204545,
                "pitch": 105,
                "velocity": 4,
                "duration": 0.2,
                "tempo": 120.0
            },
            {
                "start_time": 12.3204545,
                "end_time": 12.5204545,
                "pitch": 15,
                "velocity": 4,
                "duration": 0.2,
                "tempo": 120.0
            },
            {
                "start_time": 12.5204545,
                "end_time": 12.7227273,
                "pitch": 105,
                "velocity": 4,
                "duration": 0.2022727,
                "tempo": 120.0
            },
            {
                "start_time": 12.7227273,
                "end_time": 13.1931818,
                "pitch": 18,
                "velocity": 4,
                "duration": 0.4704545,
                "tempo": 120.0
            },
            {
                "start_time": 13.1931818,
                "end_time": 13.3272727,
                "pitch": 45,
                "velocity": 4,
                "duration": 0.1340909,
                "tempo": 120.0
            },
            {
                "start_time": 13.3272727,
                "end_time": 13.5272727,
                "pitch": 37,
                "velocity": 4,
                "duration": 0.2,
                "tempo": 120.0
            },
            {
                "start_time": 13.5272727,
                "end_time": 14.1318182,
                "pitch": 44,
                "velocity": 4,
                "duration": 0.6045455,
                "tempo": 120.0
            },
            {
                "start_time": 14.1318182,
                "end_time": 14.5318182,
                "pitch": 37,
                "velocity": 4,
                "duration": 0.4,
                "tempo": 120.0
            },
            {
                "start_time": 14.5318182,
                "end_time": 14.7272727,
                "pitch": 45,
                "velocity": 4,
                "duration": 0.1954545,
                "tempo": 120.0
            },
            {
                "start_time": 14.7272727,
                "end_time": 15.1295455,
                "pitch": 36,
                "velocity": 4,
                "duration": 0.4022727,
                "tempo": 120.0
            },
            {
                "start_time": 15.1295455,
                "end_time": 15.3340909,
                "pitch": 44,
                "velocity": 4,
                "duration": 0.2045455,
                "tempo": 120.0
            },
            {
                "start_time": 15.3340909,
                "end_time": 15.5363636,
                "pitch": 37,
                "velocity": 4,
                "duration": 0.2022727,
                "tempo": 120.0
            },
            {
                "start_time": 15.5363636,
                "end_time": 15.7386364,
                "pitch": 44,
                "velocity": 4,
                "duration": 0.2022727,
                "tempo": 120.0
            },
            {
                "start_time": 15.7386364,
                "end_time": 15.9545455,
                "pitch": 37,
                "velocity": 4,
                "duration": 0.2159091,
                "tempo": 120.0
            },
            {
                "start_time": 15.9545455,
                "end_time": 16.5409091,
                "pitch": 46,
                "velocity": 4,
                "duration": 0.5863636,
                "tempo": 120.0
            },
            {
                "start_time": 16.5409091,
                "end_time": 16.7409091,
                "pitch": 37,
                "velocity": 4,
                "duration": 0.2,
                "tempo": 120.0
            },
            {
                "start_time": 16.7409091,
                "end_time": 17.2090909,
                "pitch": 44,
                "velocity": 4,
                "duration": 0.4681818,
                "tempo": 120.0
            },
            {
                "start_time": 17.2090909,
                "end_time": 17.2431818,
                "pitch": 29,
                "velocity": 4,
                "duration": 0.0340909,
                "tempo": 120.0
            },
            {
                "start_time": 17.2431818,
                "end_time": 17.3431818,
                "pitch": 40,
                "velocity": 4,
                "duration": 0.1,
                "tempo": 120.0
            },
            {
                "start_time": 17.3431818,
                "end_time": 17.7431818,
                "pitch": 32,
                "velocity": 4,
                "duration": 0.4,
                "tempo": 120.0
            },
            {
                "start_time": 17.7431818,
                "end_time": 17.9386364,
                "pitch": 41,
                "velocity": 4,
                "duration": 0.1954545,
                "tempo": 120.0
            },
            {
                "start_time": 17.9386364,
                "end_time": 18.3409091,
                "pitch": 31,
                "velocity": 4,
                "duration": 0.4022727,
                "tempo": 120.0
            },
            {
                "start_time": 18.3409091,
                "end_time": 18.5454545,
                "pitch": 39,
                "velocity": 4,
                "duration": 0.2045455,
                "tempo": 120.0
            },
            {
                "start_time": 18.5454545,
                "end_time": 18.6477273,
                "pitch": 32,
                "velocity": 4,
                "duration": 0.1022727,
                "tempo": 120.0
            },
            {
                "start_time": 18.6477273,
                "end_time": 18.7477273,
                "pitch": 31,
                "velocity": 4,
                "duration": 0.1,
                "tempo": 120.0
            },
            {
                "start_time": 18.7477273,
                "end_time": 18.9159091,
                "pitch": 39,
                "velocity": 4,
                "duration": 0.1681818,
                "tempo": 120.0
            },
            {
                "start_time": 18.9159091,
                "end_time": 18.95,
                "pitch": 62,
                "velocity": 4,
                "duration": 0.0340909,
                "tempo": 120.0
            },
            {
                "start_time": 18.95,
                "end_time": 19.15,
                "pitch": 55,
                "velocity": 4,
                "duration": 0.2,
                "tempo": 120.0
            },
            {
                "start_time": 19.15,
                "end_time": 19.75,
                "pitch": 64,
                "velocity": 4,
                "duration": 0.6,
                "tempo": 120.0
            },
            {
                "start_time": 19.75,
                "end_time": 19.95,
                "pitch": 55,
                "velocity": 4,
                "duration": 0.2,
                "tempo": 120.0
            },
            {
                "start_time": 19.95,
                "end_time": 20.5522727,
                "pitch": 62,
                "velocity": 4,
                "duration": 0.6022727,
                "tempo": 120.0
            },
            {
                "start_time": 20.5522727,
                "end_time": 20.9545455,
                "pitch": 55,
                "velocity": 4,
                "duration": 0.4022727,
                "tempo": 120.0
            },
            {
                "start_time": 20.9545455,
                "end_time": 21.3545455,
                "pitch": 63,
                "velocity": 4,
                "duration": 0.4,
                "tempo": 120.0
            },
            {
                "start_time": 21.3545455,
                "end_time": 21.4545455,
                "pitch": 55,
                "velocity": 4,
                "duration": 0.1,
                "tempo": 120.0
            },
            {
                "start_time": 21.4545455,
                "end_time": 21.5545455,
                "pitch": 62,
                "velocity": 4,
                "duration": 0.1,
                "tempo": 120.0
            },
            {
                "start_time": 21.5545455,
                "end_time": 22.1727273,
                "pitch": 69,
                "velocity": 4,
                "duration": 0.6181818,
                "tempo": 120.0
            },
            {
                "start_time": 22.1727273,
                "end_time": 22.5568182,
                "pitch": 62,
                "velocity": 4,
                "duration": 0.3840909,
                "tempo": 120.0
            },
            {
                "start_time": 22.5568182,
                "end_time": 22.9590909,
                "pitch": 70,
                "velocity": 4,
                "duration": 0.4022727,
                "tempo": 120.0
            },
            {
                "start_time": 22.9590909,
                "end_time": 23.1590909,
                "pitch": 62,
                "velocity": 4,
                "duration": 0.2,
                "tempo": 120.0
            },
            {
                "start_time": 23.1590909,
                "end_time": 23.5272727,
                "pitch": 69,
                "velocity": 4,
                "duration": 0.3681818,
                "tempo": 120.0
            },
            {
                "start_time": 23.5272727,
                "end_time": 23.7590909,
                "pitch": 29,
                "velocity": 4,
                "duration": 0.2318182,
                "tempo": 120.0
            },
            {
                "start_time": 23.7590909,
                "end_time": 24.1636364,
                "pitch": 21,
                "velocity": 4,
                "duration": 0.4045455,
                "tempo": 120.0
            },
            {
                "start_time": 24.1636364,
                "end_time": 24.3636364,
                "pitch": 30,
                "velocity": 4,
                "duration": 0.2,
                "tempo": 120.0
            },
            {
                "start_time": 24.3636364,
                "end_time": 24.7636364,
                "pitch": 20,
                "velocity": 4,
                "duration": 0.4,
                "tempo": 120.0
            },
            {
                "start_time": 24.7636364,
                "end_time": 24.9318182,
                "pitch": 30,
                "velocity": 4,
                "duration": 0.1681818,
                "tempo": 120.0
            },
            {
                "start_time": 24.9318182,
                "end_time": 24.9659091,
                "pitch": 83,
                "velocity": 4,
                "duration": 0.0340909,
                "tempo": 120.0
            },
            {
                "start_time": 24.9659091,
                "end_time": 25.1659091,
                "pitch": 76,
                "velocity": 4,
                "duration": 0.2,
                "tempo": 120.0
            },
            {
                "start_time": 25.1659091,
                "end_time": 25.3318182,
                "pitch": 83,
                "velocity": 4,
                "duration": 0.1659091,
                "tempo": 120.0
            },
            {
                "start_time": 25.3318182,
                "end_time": 25.3659091,
                "pitch": 37,
                "velocity": 4,
                "duration": 0.0340909,
                "tempo": 120.0
            },
            {
                "start_time": 25.3659091,
                "end_time": 25.5659091,
                "pitch": 30,
                "velocity": 4,
                "duration": 0.2,
                "tempo": 120.0
            },
            {
                "start_time": 25.5659091,
                "end_time": 25.9818182,
                "pitch": 39,
                "velocity": 4,
                "duration": 0.4159091,
                "tempo": 120.0
            },
            {
                "start_time": 25.9818182,
                "end_time": 26.5840909,
                "pitch": 61,
                "velocity": 4,
                "duration": 0.6022727,
                "tempo": 120.0
            },
            {
                "start_time": 26.5840909,
                "end_time": 26.7840909,
                "pitch": 47,
                "velocity": 4,
                "duration": 0.2,
                "tempo": 120.0
            },
            {
                "start_time": 26.7840909,
                "end_time": 26.9863636,
                "pitch": 61,
                "velocity": 4,
                "duration": 0.2022727,
                "tempo": 120.0
            },
            {
                "start_time": 26.9863636,
                "end_time": 27.0863636,
                "pitch": 70,
                "velocity": 4,
                "duration": 0.1,
                "tempo": 120.0
            },
            {
                "start_time": 27.0863636,
                "end_time": 27.1863636,
                "pitch": 53,
                "velocity": 4,
                "duration": 0.1,
                "tempo": 120.0
            },
            {
                "start_time": 27.1863636,
                "end_time": 27.3863636,
                "pitch": 71,
                "velocity": 4,
                "duration": 0.2,
                "tempo": 120.0
            },
            {
                "start_time": 27.3863636,
                "end_time": 28.1886364,
                "pitch": 62,
                "velocity": 4,
                "duration": 0.8022727,
                "tempo": 120.0
            },
            {
                "start_time": 28.1886364,
                "end_time": 28.3727273,
                "pitch": 47,
                "velocity": 4,
                "duration": 0.1840909,
                "tempo": 120.0
            },
            {
                "start_time": 28.3727273,
                "end_time": 28.5727273,
                "pitch": 61,
                "velocity": 4,
                "duration": 0.2,
                "tempo": 120.0
            },
            {
                "start_time": 28.5727273,
                "end_time": 28.675,
                "pitch": 70,
                "velocity": 4,
                "duration": 0.1022727,
                "tempo": 120.0
            },
            {
                "start_time": 28.675,
                "end_time": 28.775,
                "pitch": 53,
                "velocity": 4,
                "duration": 0.1,
                "tempo": 120.0
            },
            {
                "start_time": 28.775,
                "end_time": 28.9772727,
                "pitch": 71,
                "velocity": 4,
                "duration": 0.2022727,
                "tempo": 120.0
            },
            {
                "start_time": 28.9772727,
                "end_time": 29.5772727,
                "pitch": 62,
                "velocity": 4,
                "duration": 0.6,
                "tempo": 120.0
            },
            {
                "start_time": 29.5772727,
                "end_time": 29.7772727,
                "pitch": 55,
                "velocity": 4,
                "duration": 0.2,
                "tempo": 120.0
            },
            {
                "start_time": 29.7772727,
                "end_time": 30.3795455,
                "pitch": 62,
                "velocity": 4,
                "duration": 0.6022727,
                "tempo": 120.0
            },
            {
                "start_time": 30.3795455,
                "end_time": 30.4795455,
                "pitch": 55,
                "velocity": 4,
                "duration": 0.1,
                "tempo": 120.0
            },
            {
                "start_time": 30.4795455,
                "end_time": 30.5795455,
                "pitch": 66,
                "velocity": 4,
                "duration": 0.1,
                "tempo": 120.0
            },
            {
                "start_time": 30.5795455,
                "end_time": 31.1818182,
                "pitch": 73,
                "velocity": 4,
                "duration": 0.6022727,
                "tempo": 120.0
            },
            {
                "start_time": 31.1818182,
                "end_time": 31.3818182,
                "pitch": 66,
                "velocity": 4,
                "duration": 0.2,
                "tempo": 120.0
            },
            {
                "start_time": 31.3818182,
                "end_time": 31.5818182,
                "pitch": 73,
                "velocity": 4,
                "duration": 0.2,
                "tempo": 120.0
            },
            {
                "start_time": 31.5818182,
                "end_time": 31.7818182,
                "pitch": 66,
                "velocity": 4,
                "duration": 0.2,
                "tempo": 120.0
            },
            {
                "start_time": 31.7818182,
                "end_time": 31.8840909,
                "pitch": 81,
                "velocity": 4,
                "duration": 0.1022727,
                "tempo": 120.0
            },
            {
                "start_time": 31.8840909,
                "end_time": 32.1840909,
                "pitch": 64,
                "velocity": 4,
                "duration": 0.3,
                "tempo": 120.0
            },
            {
                "start_time": 32.1840909,
                "end_time": 33.0,
                "pitch": 73,
                "velocity": 4,
                "duration": 0.8159091,
                "tempo": 120.0
            },
            {
                "start_time": 33.0,
                "end_time": 33.05,
                "pitch": 58,
                "velocity": 4,
                "duration": 0.05,
                "tempo": 120.0
            },
            {
                "start_time": 33.05,
                "end_time": 33.2,
                "pitch": 47,
                "velocity": 4,
                "duration": 0.15,
                "tempo": 120.0
            },
            {
                "start_time": 33.2,
                "end_time": 33.4022727,
                "pitch": 61,
                "velocity": 4,
                "duration": 0.2022727,
                "tempo": 120.0
            },
            {
                "start_time": 33.4022727,
                "end_time": 33.5022727,
                "pitch": 70,
                "velocity": 4,
                "duration": 0.1,
                "tempo": 120.0
            },
            {
                "start_time": 33.5022727,
                "end_time": 33.6022727,
                "pitch": 53,
                "velocity": 4,
                "duration": 0.1,
                "tempo": 120.0
            },
            {
                "start_time": 33.6022727,
                "end_time": 33.8022727,
                "pitch": 71,
                "velocity": 4,
                "duration": 0.2,
                "tempo": 120.0
            },
            {
                "start_time": 33.8022727,
                "end_time": 34.6022727,
                "pitch": 62,
                "velocity": 4,
                "duration": 0.8,
                "tempo": 120.0
            },
            {
                "start_time": 34.6022727,
                "end_time": 34.7886364,
                "pitch": 47,
                "velocity": 4,
                "duration": 0.1863636,
                "tempo": 120.0
            },
            {
                "start_time": 34.7886364,
                "end_time": 34.9886364,
                "pitch": 61,
                "velocity": 4,
                "duration": 0.2,
                "tempo": 120.0
            },
            {
                "start_time": 34.9886364,
                "end_time": 35.0886364,
                "pitch": 70,
                "velocity": 4,
                "duration": 0.1,
                "tempo": 120.0
            },
            {
                "start_time": 35.0886364,
                "end_time": 35.1886364,
                "pitch": 53,
                "velocity": 4,
                "duration": 0.1,
                "tempo": 120.0
            },
            {
                "start_time": 35.1886364,
                "end_time": 35.3909091,
                "pitch": 71,
                "velocity": 4,
                "duration": 0.2022727,
                "tempo": 120.0
            },
            {
                "start_time": 35.3909091,
                "end_time": 35.9909091,
                "pitch": 62,
                "velocity": 4,
                "duration": 0.6,
                "tempo": 120.0
            },
            {
                "start_time": 35.9909091,
                "end_time": 36.1909091,
                "pitch": 55,
                "velocity": 4,
                "duration": 0.2,
                "tempo": 120.0
            },
            {
                "start_time": 36.1909091,
                "end_time": 36.7909091,
                "pitch": 62,
                "velocity": 4,
                "duration": 0.6,
                "tempo": 120.0
            },
            {
                "start_time": 36.7909091,
                "end_time": 36.9909091,
                "pitch": 55,
                "velocity": 4,
                "duration": 0.2,
                "tempo": 120.0
            },
            {
                "start_time": 36.9909091,
                "end_time": 37.4931818,
                "pitch": 62,
                "velocity": 4,
                "duration": 0.5022727,
                "tempo": 120.0
            },
            {
                "start_time": 37.4931818,
                "end_time": 37.5931818,
                "pitch": 30,
                "velocity": 4,
                "duration": 0.1,
                "tempo": 120.0
            },
            {
                "start_time": 37.5931818,
                "end_time": 37.7931818,
                "pitch": 23,
                "velocity": 4,
                "duration": 0.2,
                "tempo": 120.0
            },
            {
                "start_time": 37.7931818,
                "end_time": 37.9931818,
                "pitch": 30,
                "velocity": 4,
                "duration": 0.2,
                "tempo": 120.0
            },
            {
                "start_time": 37.9931818,
                "end_time": 38.1931818,
                "pitch": 23,
                "velocity": 4,
                "duration": 0.2,
                "tempo": 120.0
            },
            {
                "start_time": 38.1931818,
                "end_time": 38.2931818,
                "pitch": 38,
                "velocity": 4,
                "duration": 0.1,
                "tempo": 120.0
            },
            {
                "start_time": 38.2931818,
                "end_time": 38.5931818,
                "pitch": 21,
                "velocity": 4,
                "duration": 0.3,
                "tempo": 120.0
            },
            {
                "start_time": 38.5931818,
                "end_time": 38.9931818,
                "pitch": 30,
                "velocity": 4,
                "duration": 0.4,
                "tempo": 120.0
            },
            {
                "start_time": 38.9931818,
                "end_time": 39.1954545,
                "pitch": 21,
                "velocity": 4,
                "duration": 0.2022727,
                "tempo": 120.0
            },
            {
                "start_time": 39.1954545,
                "end_time": 39.8113636,
                "pitch": 30,
                "velocity": 4,
                "duration": 0.6159091,
                "tempo": 120.0
            },
            {
                "start_time": 39.8113636,
                "end_time": 40.0113636,
                "pitch": 21,
                "velocity": 4,
                "duration": 0.2,
                "tempo": 120.0
            },
            {
                "start_time": 40.0113636,
                "end_time": 40.6113636,
                "pitch": 30,
                "velocity": 4,
                "duration": 0.6,
                "tempo": 120.0
            },
            {
                "start_time": 40.6113636,
                "end_time": 40.8113636,
                "pitch": 21,
                "velocity": 4,
                "duration": 0.2,
                "tempo": 120.0
            },
            {
                "start_time": 40.8113636,
                "end_time": 41.2159091,
                "pitch": 30,
                "velocity": 4,
                "duration": 0.4045455,
                "tempo": 120.0
            },
            {
                "start_time": 41.2159091,
                "end_time": 41.4204545,
                "pitch": 21,
                "velocity": 4,
                "duration": 0.2045455,
                "tempo": 120.0
            },
            {
                "start_time": 41.4204545,
                "end_time": 41.8136364,
                "pitch": 15,
                "velocity": 4,
                "duration": 0.3931818,
                "tempo": 120.0
            },
            {
                "start_time": 41.8136364,
                "end_time": 41.9136364,
                "pitch": 30,
                "velocity": 4,
                "duration": 0.1,
                "tempo": 120.0
            },
            {
                "start_time": 41.9136364,
                "end_time": 42.2,
                "pitch": 14,
                "velocity": 4,
                "duration": 0.2863636,
                "tempo": 120.0
            },
            {
                "start_time": 42.2,
                "end_time": 42.4,
                "pitch": 22,
                "velocity": 4,
                "duration": 0.2,
                "tempo": 120.0
            },
            {
                "start_time": 42.4,
                "end_time": 42.5136364,
                "pitch": 30,
                "velocity": 4,
                "duration": 0.1136364,
                "tempo": 120.0
            },
            {
                "start_time": 42.5136364,
                "end_time": 42.6136364,
                "pitch": 14,
                "velocity": 4,
                "duration": 0.1,
                "tempo": 120.0
            },
            {
                "start_time": 42.6136364,
                "end_time": 42.6477273,
                "pitch": 30,
                "velocity": 4,
                "duration": 0.0340909,
                "tempo": 120.0
            },
            {
                "start_time": 42.6477273,
                "end_time": 42.7136364,
                "pitch": 48,
                "velocity": 4,
                "duration": 0.0659091,
                "tempo": 120.0
            },
            {
                "start_time": 42.7136364,
                "end_time": 43.0,
                "pitch": 32,
                "velocity": 4,
                "duration": 0.2863636,
                "tempo": 120.0
            },
            {
                "start_time": 43.0,
                "end_time": 43.2022727,
                "pitch": 42,
                "velocity": 4,
                "duration": 0.2022727,
                "tempo": 120.0
            },
            {
                "start_time": 43.2022727,
                "end_time": 43.3022727,
                "pitch": 48,
                "velocity": 4,
                "duration": 0.1,
                "tempo": 120.0
            },
            {
                "start_time": 43.3022727,
                "end_time": 43.4022727,
                "pitch": 32,
                "velocity": 4,
                "duration": 0.1,
                "tempo": 120.0
            },
            {
                "start_time": 43.4022727,
                "end_time": 43.5022727,
                "pitch": 48,
                "velocity": 4,
                "duration": 0.1,
                "tempo": 120.0
            },
            {
                "start_time": 43.5022727,
                "end_time": 43.8022727,
                "pitch": 32,
                "velocity": 4,
                "duration": 0.3,
                "tempo": 120.0
            },
            {
                "start_time": 43.8022727,
                "end_time": 44.0022727,
                "pitch": 42,
                "velocity": 4,
                "duration": 0.2,
                "tempo": 120.0
            },
            {
                "start_time": 44.0022727,
                "end_time": 44.1022727,
                "pitch": 48,
                "velocity": 4,
                "duration": 0.1,
                "tempo": 120.0
            },
            {
                "start_time": 44.1022727,
                "end_time": 44.2022727,
                "pitch": 32,
                "velocity": 4,
                "duration": 0.1,
                "tempo": 120.0
            },
            {
                "start_time": 44.2022727,
                "end_time": 44.4022727,
                "pitch": 48,
                "velocity": 4,
                "duration": 0.2,
                "tempo": 120.0
            },
            {
                "start_time": 44.4022727,
                "end_time": 44.6022727,
                "pitch": 32,
                "velocity": 4,
                "duration": 0.2,
                "tempo": 120.0
            },
            {
                "start_time": 44.6022727,
                "end_time": 44.7022727,
                "pitch": 55,
                "velocity": 4,
                "duration": 0.1,
                "tempo": 120.0
            },
            {
                "start_time": 44.7022727,
                "end_time": 45.0022727,
                "pitch": 39,
                "velocity": 4,
                "duration": 0.3,
                "tempo": 120.0
            },
            {
                "start_time": 45.0022727,
                "end_time": 45.4045455,
                "pitch": 47,
                "velocity": 4,
                "duration": 0.4022727,
                "tempo": 120.0
            },
            {
                "start_time": 45.4045455,
                "end_time": 45.6045455,
                "pitch": 39,
                "velocity": 4,
                "duration": 0.2,
                "tempo": 120.0
            },
            {
                "start_time": 45.6045455,
                "end_time": 46.2204545,
                "pitch": 47,
                "velocity": 4,
                "duration": 0.6159091,
                "tempo": 120.0
            },
            {
                "start_time": 46.2204545,
                "end_time": 46.4204545,
                "pitch": 39,
                "velocity": 4,
                "duration": 0.2,
                "tempo": 120.0
            },
            {
                "start_time": 46.4204545,
                "end_time": 46.9863636,
                "pitch": 47,
                "velocity": 4,
                "duration": 0.5659091,
                "tempo": 120.0
            },
            {
                "start_time": 46.9863636,
                "end_time": 47.0204545,
                "pitch": 37,
                "velocity": 4,
                "duration": 0.0340909,
                "tempo": 120.0
            },
            {
                "start_time": 47.0204545,
                "end_time": 47.2204545,
                "pitch": 29,
                "velocity": 4,
                "duration": 0.2,
                "tempo": 120.0
            },
            {
                "start_time": 47.2204545,
                "end_time": 47.6272727,
                "pitch": 37,
                "velocity": 4,
                "duration": 0.4068182,
                "tempo": 120.0
            },
            {
                "start_time": 47.6272727,
                "end_time": 47.8318182,
                "pitch": 29,
                "velocity": 4,
                "duration": 0.2045455,
                "tempo": 120.0
            },
            {
                "start_time": 47.8318182,
                "end_time": 48.225,
                "pitch": 23,
                "velocity": 4,
                "duration": 0.3931818,
                "tempo": 120.0
            },
            {
                "start_time": 48.225,
                "end_time": 48.325,
                "pitch": 38,
                "velocity": 4,
                "duration": 0.1,
                "tempo": 120.0
            },
            {
                "start_time": 48.325,
                "end_time": 48.625,
                "pitch": 22,
                "velocity": 4,
                "duration": 0.3,
                "tempo": 120.0
            },
            {
                "start_time": 48.625,
                "end_time": 48.825,
                "pitch": 30,
                "velocity": 4,
                "duration": 0.2,
                "tempo": 120.0
            },
            {
                "start_time": 48.825,
                "end_time": 48.925,
                "pitch": 38,
                "velocity": 4,
                "duration": 0.1,
                "tempo": 120.0
            },
            {
                "start_time": 48.925,
                "end_time": 49.025,
                "pitch": 22,
                "velocity": 4,
                "duration": 0.1,
                "tempo": 120.0
            },
            {
                "start_time": 49.025,
                "end_time": 49.125,
                "pitch": 38,
                "velocity": 4,
                "duration": 0.1,
                "tempo": 120.0
            },
            {
                "start_time": 49.125,
                "end_time": 49.4272727,
                "pitch": 22,
                "velocity": 4,
                "duration": 0.3022727,
                "tempo": 120.0
            },
            {
                "start_time": 49.4272727,
                "end_time": 49.6272727,
                "pitch": 30,
                "velocity": 4,
                "duration": 0.2,
                "tempo": 120.0
            },
            {
                "start_time": 49.6272727,
                "end_time": 49.7272727,
                "pitch": 38,
                "velocity": 4,
                "duration": 0.1,
                "tempo": 120.0
            },
            {
                "start_time": 49.7272727,
                "end_time": 49.8272727,
                "pitch": 22,
                "velocity": 4,
                "duration": 0.1,
                "tempo": 120.0
            },
            {
                "start_time": 49.8272727,
                "end_time": 49.9272727,
                "pitch": 38,
                "velocity": 4,
                "duration": 0.1,
                "tempo": 120.0
            },
            {
                "start_time": 49.9272727,
                "end_time": 50.2136364,
                "pitch": 22,
                "velocity": 4,
                "duration": 0.2863636,
                "tempo": 120.0
            },
            {
                "start_time": 50.2136364,
                "end_time": 50.4136364,
                "pitch": 30,
                "velocity": 4,
                "duration": 0.2,
                "tempo": 120.0
            },
            {
                "start_time": 50.4136364,
                "end_time": 50.5136364,
                "pitch": 38,
                "velocity": 4,
                "duration": 0.1,
                "tempo": 120.0
            },
            {
                "start_time": 50.5136364,
                "end_time": 50.6136364,
                "pitch": 22,
                "velocity": 4,
                "duration": 0.1,
                "tempo": 120.0
            },
            {
                "start_time": 50.6136364,
                "end_time": 50.8136364,
                "pitch": 38,
                "velocity": 4,
                "duration": 0.2,
                "tempo": 120.0
            },
            {
                "start_time": 50.8136364,
                "end_time": 51.0136364,
                "pitch": 22,
                "velocity": 4,
                "duration": 0.2,
                "tempo": 120.0
            },
            {
                "start_time": 51.0136364,
                "end_time": 51.1136364,
                "pitch": 45,
                "velocity": 4,
                "duration": 0.1,
                "tempo": 120.0
            },
            {
                "start_time": 51.1136364,
                "end_time": 51.4159091,
                "pitch": 29,
                "velocity": 4,
                "duration": 0.3022727,
                "tempo": 120.0
            }
        ]
    }
}