{
    "mood": "angry",
    "instruments": {
        "Electric Piano 1": [
            {
                "start_time": 1.9840909,
                "end_time": 4.1409091,
                "pitch": 44,
                "velocity": 80,
                "duration": 2.1568182,
                "tempo": 120.0
            },
            {
                "start_time": 4.1409091,
                "end_time": 4.4068182,
                "pitch": 44,
                "velocity": 80,
                "duration": 0.2659091,
                "tempo": 120.0
            },
            {
                "start_time": 4.4068182,
                "end_time": 4.675,
                "pitch": 43,
                "velocity": 80,
                "duration": 0.2681818,
                "tempo": 120.0
            },
            {
                "start_time": 5.2090909,
                "end_time": 5.475,
                "pitch": 43,
                "velocity": 80,
                "duration": 0.2659091,
                "tempo": 120.0
            },
            {
                "start_time": 5.475,
                "end_time": 5.7431818,
                "pitch": 43,
                "velocity": 80,
                "duration": 0.2681818,
                "tempo": 120.0
            },
            {
                "start_time": 5.7431818,
                "end_time": 5.8795455,
                "pitch": 38,
                "velocity": 80,
                "duration": 0.1363636,
                "tempo": 120.0
            },
            {
                "start_time": 5.8795455,
                "end_time": 6.0159091,
                "pitch": 38,
                "velocity": 80,
                "duration": 0.1363636,
                "tempo": 120.0
            },
            {
                "start_time": 6.0159091,
                "end_time": 6.1522727,
                "pitch": 39,
                "velocity": 80,
                "duration": 0.1363636,
                "tempo": 120.0
            },
            {
                "start_time": 6.1522727,
                "end_time": 6.2863636,
                "pitch": 40,
                "velocity": 80,
                "duration": 0.1340909,
                "tempo": 120.0
            },
            {
                "start_time": 6.2863636,
                "end_time": 6.5590909,
                "pitch": 43,
                "velocity": 80,
                "duration": 0.2727273,
                "tempo": 120.0
            },
            {
                "start_time": 6.5590909,
                "end_time": 6.8318182,
                "pitch": 43,
                "velocity": 80,
                "duration": 0.2727273,
                "tempo": 120.0
            },
            {
                "start_time": 7.375,
                "end_time": 7.6431818,
                "pitch": 43,
                "velocity": 80,
                "duration": 0.2681818,
                "tempo": 120.0
            },
            {
                "start_time": 7.6590909,
                "end_time": 7.9090909,
                "pitch": 43,
                "velocity": 80,
                "duration": 0.25,
                "tempo": 120.0
            },
            {
                "start_time": 7.9090909,
                "end_time": 8.0454545,
                "pitch": 43,
                "velocity": 80,
                "duration": 0.1363636,
                "tempo": 120.0
            },
            {
                "start_time": 8.0454545,
                "end_time": 8.1818182,
                "pitch": 43,
                "velocity": 80,
                "duration": 0.1363636,
                "tempo": 120.0
            },
            {
                "start_time": 8.1818182,
                "end_time": 8.3181818,
                "pitch": 44,
                "velocity": 80,
                "duration": 0.1363636,
                "tempo": 120.0
            },
            {
                "start_time": 8.3181818,
                "end_time": 8.4545455,
                "pitch": 45,
                "velocity": 80,
                "duration": 0.1363636,
                "tempo": 120.0
            },
            {
                "start_time": 8.4704545,
                "end_time": 10.6181818,
                "pitch": 47,
                "velocity": 80,
                "duration": 2.1477273,
                "tempo": 120.0
            },
            {
                "start_time": 10.6181818,
                "end_time": 12.7568182,
                "pitch": 44,
                "velocity": 80,
                "duration": 2.1386364,
                "tempo": 120.0
            },
            {
                "start_time": 12.775,
                "end_time": 13.025,
                "pitch": 43,
                "velocity": 80,
                "duration": 0.25,
                "tempo": 120.0
            },
            {
                "start_time": 13.025,
                "end_time": 13.2909091,
                "pitch": 43,
                "velocity": 80,
                "duration": 0.2659091,
                "tempo": 120.0
            },
            {
                "start_time": 13.8272727,
                "end_time": 14.0931818,
                "pitch": 43,
                "velocity": 80,
                "duration": 0.2659091,
                "tempo": 120.0
            },
            {
                "start_time": 14.1090909,
                "end_time": 14.3613636,
                "pitch": 43,
                "velocity": 80,
                "duration": 0.2522727,
                "tempo": 120.0
            },
            {
                "start_time": 14.3613636,
                "end_time": 14.4954545,
                "pitch": 38,
                "velocity": 80,
                "duration": 0.1340909,
                "tempo": 120.0
            },
            {
                "start_time": 14.4954545,
                "end_time": 14.6318182,
                "pitch": 38,
                "velocity": 80,
                "duration": 0.1363636,
                "tempo": 120.0
            },
            {
                "start_time": 14.6318182,
                "end_time": 14.7681818,
                "pitch": 39,
                "velocity": 80,
                "duration": 0.1363636,
                "tempo": 120.0
            },
            {
                "start_time": 14.7681818,
                "end_time": 14.9204545,
                "pitch": 40,
                "velocity": 80,
                "duration": 0.1522727,
                "tempo": 120.0
            },
            {
                "start_time": 14.9204545,
                "end_time": 15.1772727,
                "pitch": 43,
                "velocity": 80,
                "duration": 0.2568182,
                "tempo": 120.0
            },
            {
                "start_time": 15.1772727,
                "end_time": 15.4659091,
                "pitch": 43,
                "velocity": 80,
                "duration": 0.2886364,
                "tempo": 120.0
            },
            {
                "start_time": 15.9840909,
                "end_time": 16.2659091,
                "pitch": 43,
                "velocity": 80,
                "duration": 0.2818182,
                "tempo": 120.0
            },
            {
                "start_time": 16.2659091,
                "end_time": 16.5181818,
                "pitch": 43,
                "velocity": 80,
                "duration": 0.2522727,
                "tempo": 120.0
            },
            {
                "start_time": 16.5340909,
                "end_time": 16.6522727,
                "pitch": 51,
                "velocity": 80,
                "duration": 0.1181818,
                "tempo": 120.0
            },
            {
                "start_time": 16.6704545,
                "end_time": 16.7886364,
                "pitch": 52,
                "velocity": 80,
                "duration": 0.1181818,
                "tempo": 120.0
            },
            {
                "start_time": 16.8068182,
                "end_time": 16.925,
                "pitch": 53,
                "velocity": 80,
                "duration": 0.1181818,
                "tempo": 120.0
            },
            {
                "start_time": 16.925,
                "end_time": 17.0772727,
                "pitch": 53,
                "velocity": 80,
                "duration": 0.1522727,
                "tempo": 120.0
            },
            {
                "start_time": 17.0772727,
                "end_time": 17.3454545,
                "pitch": 55,
                "velocity": 80,
                "duration": 0.2681818,
                "tempo": 120.0
            },
            {
                "start_time": 17.3454545,
                "end_time": 17.6136364,
                "pitch": 54,
                "velocity": 80,
                "duration": 0.2681818,
                "tempo": 120.0
            },
            {
                "start_time": 17.6136364,
                "end_time": 17.8795455,
                "pitch": 54,
                "velocity": 80,
                "duration": 0.2659091,
                "tempo": 120.0
            },
            {
                "start_time": 17.8795455,
                "end_time": 18.1477273,
                "pitch": 53,
                "velocity": 80,
                "duration": 0.2681818,
                "tempo": 120.0
            },
            {
                "start_time": 18.1477273,
                "end_time": 18.4136364,
                "pitch": 52,
                "velocity": 80,
                "duration": 0.2659091,
                "tempo": 120.0
            },
            {
                "start_time": 18.4136364,
                "end_time": 18.6818182,
                "pitch": 51,
                "velocity": 80,
                "duration": 0.2681818,
                "tempo": 120.0
            },
            {
                "start_time": 18.6818182,
                "end_time": 18.9522727,
                "pitch": 50,
                "velocity": 80,
                "duration": 0.2704545,
                "tempo": 120.0
            },
            {
                "start_time": 18.9522727,
                "end_time": 19.225,
                "pitch": 49,
                "velocity": 80,
                "duration": 0.2727273,
                "tempo": 120.0
            },
            {
                "start_time": 19.225,
                "end_time": 21.3568182,
                "pitch": 47,
                "velocity": 80,
                "duration": 2.1318182,
                "tempo": 120.0
            }
        ],
        "Vibraphone": [
            {
                "start_time": 0.3909091,
                "end_time": 0.5863636,
                "pitch": 63,
                "velocity": 80,
                "duration": 0.1954545,
                "tempo": 120.0
            },
            {
                "start_time": 0.9136364,
                "end_time": 1.1136364,
                "pitch": 63,
                "velocity": 64,
                "duration": 0.2,
                "tempo": 120.0
            },
            {
                "start_time": 1.4477273,
                "end_time": 1.65,
                "pitch": 63,
                "velocity": 51,
                "duration": 0.2022727,
                "tempo": 120.0
            },
            {
                "start_time": 2.0,
                "end_time": 2.1909091,
                "pitch": 63,
                "velocity": 40,
                "duration": 0.1909091,
                "tempo": 120.0
            },
            {
                "start_time": 2.5363636,
                "end_time": 2.7340909,
                "pitch": 63,
                "velocity": 40,
                "duration": 0.1977273,
                "tempo": 120.0
            },
            {
                "start_time": 3.0772727,
                "end_time": 3.2681818,
                "pitch": 63,
                "velocity": 64,
                "duration": 0.1909091,
                "tempo": 120.0
            },
            {
                "start_time": 3.6159091,
                "end_time": 3.8113636,
                "pitch": 63,
                "velocity": 64,
                "duration": 0.1954545,
                "tempo": 120.0
            },
            {
                "start_time": 4.675,
                "end_time": 5.275,
                "pitch": 68,
                "velocity": 80,
                "duration": 0.6,
                "tempo": 120.0
            },
            {
                "start_time": 5.4931818,
                "end_time": 6.0840909,
                "pitch": 67,
                "velocity": 80,
                "duration": 0.5909091,
                "tempo": 120.0
            },
            {
                "start_time": 6.8477273,
                "end_time": 7.4431818,
                "pitch": 56,
                "velocity": 80,
                "duration": 0.5954545,
                "tempo": 120.0
            },
            {
                "start_time": 7.6590909,
                "end_time": 8.25,
                "pitch": 55,
                "velocity": 80,
                "duration": 0.5909091,
                "tempo": 120.0
            },
            {
                "start_time": 8.4704545,
                "end_time": 8.6545455,
                "pitch": 63,
                "velocity": 80,
                "duration": 0.1840909,
                "tempo": 120.0
            },
            {
                "start_time": 9.0045455,
                "end_time": 9.1909091,
                "pitch": 63,
                "velocity": 80,
                "duration": 0.1863636,
                "tempo": 120.0
            },
            {
                "start_time": 9.5477273,
                "end_time": 9.7318182,
                "pitch": 63,
                "velocity": 64,
                "duration": 0.1840909,
                "tempo": 120.0
            },
            {
                "start_time": 10.0840909,
                "end_time": 10.2659091,
                "pitch": 63,
                "velocity": 51,
                "duration": 0.1818182,
                "tempo": 120.0
            },
            {
                "start_time": 10.6181818,
                "end_time": 10.8181818,
                "pitch": 63,
                "velocity": 40,
                "duration": 0.2,
                "tempo": 120.0
            },
            {
                "start_time": 11.1522727,
                "end_time": 11.3386364,
                "pitch": 63,
                "velocity": 40,
                "duration": 0.1863636,
                "tempo": 120.0
            },
            {
                "start_time": 11.6954545,
                "end_time": 11.8795455,
                "pitch": 63,
                "velocity": 51,
                "duration": 0.1840909,
                "tempo": 120.0
            },
            {
                "start_time": 12.2295455,
                "end_time": 12.4181818,
                "pitch": 63,
                "velocity": 64,
                "duration": 0.1886364,
                "tempo": 120.0
            },
            {
                "start_time": 13.3090909,
                "end_time": 13.8931818,
                "pitch": 68,
                "velocity": 80,
                "duration": 0.5840909,
                "tempo": 120.0
            },
            {
                "start_time": 14.1090909,
                "end_time": 14.7,
                "pitch": 67,
                "velocity": 80,
                "duration": 0.5909091,
                "tempo": 120.0
            },
            {
                "start_time": 15.4659091,
                "end_time": 16.0659091,
                "pitch": 56,
                "velocity": 80,
                "duration": 0.6,
                "tempo": 120.0
            },
            {
                "start_time": 16.2659091,
                "end_time": 16.875,
                "pitch": 55,
                "velocity": 80,
                "duration": 0.6090909,
                "tempo": 120.0
            },
            {
                "start_time": 17.0772727,
                "end_time": 17.2795455,
                "pitch": 55,
                "velocity": 80,
                "duration": 0.2022727,
                "tempo": 120.0
            },
            {
                "start_time": 17.3454545,
                "end_time": 17.5454545,
                "pitch": 56,
                "velocity": 80,
                "duration": 0.2,
                "tempo": 120.0
            },
            {
                "start_time": 17.6136364,
                "end_time": 17.8136364,
                "pitch": 59,
                "velocity": 80,
                "duration": 0.2,
                "tempo": 120.0
            },
            {
                "start_time": 17.8795455,
                "end_time": 18.0795455,
                "pitch": 62,
                "velocity": 80,
                "duration": 0.2,
                "tempo": 120.0
            },
            {
                "start_time": 18.1477273,
                "end_time": 18.3477273,
                "pitch": 63,
                "velocity": 80,
                "duration": 0.2,
                "tempo": 120.0
            },
            {
                "start_time": 18.4136364,
                "end_time": 18.6136364,
                "pitch": 64,
                "velocity": 80,
                "duration": 0.2,
                "tempo": 120.0
            },
            {
                "start_time": 18.6818182,
                "end_time": 18.8863636,
                "pitch": 65,
                "velocity": 80,
                "duration": 0.2045455,
                "tempo": 120.0
            },
            {
                "start_time": 18.9522727,
                "end_time": 19.1568182,
                "pitch": 66,
                "velocity": 80,
                "duration": 0.2045455,
                "tempo": 120.0
            },
            {
                "start_time": 19.225,
                "end_time": 21.2931818,
                "pitch": 67,
                "velocity": 80,
                "duration": 2.0681818,
                "tempo": 120.0
            }
        ]
    }
}