{
    "mood": "angry",
    "instruments": {
        "Violin": [
            {
                "start_time": 0.0113636,
                "end_time": 0.0454545,
                "pitch": 66,
                "velocity": 127,
                "duration": 0.0340909,
                "tempo": 120.0
            },
            {
                "start_time": 0.0772727,
                "end_time": 0.575,
                "pitch": 57,
                "velocity": 127,
                "duration": 0.4977273,
                "tempo": 120.0
            },
            {
                "start_time": 0.6068182,
                "end_time": 1.0818182,
                "pitch": 58,
                "velocity": 127,
                "duration": 0.475,
                "tempo": 120.0
            },
            {
                "start_time": 1.1159091,
                "end_time": 1.6159091,
                "pitch": 64,
                "velocity": 127,
                "duration": 0.5,
                "tempo": 120.0
            },
            {
                "start_time": 1.65,
                "end_time": 2.1522727,
                "pitch": 69,
                "velocity": 127,
                "duration": 0.5022727,
                "tempo": 120.0
            },
            {
                "start_time": 2.1863636,
                "end_time": 2.6954545,
                "pitch": 70,
                "velocity": 127,
                "duration": 0.5090909,
                "tempo": 120.0
            },
            {
                "start_time": 2.7295455,
                "end_time": 3.2295455,
                "pitch": 76,
                "velocity": 127,
                "duration": 0.5,
                "tempo": 120.0
            },
            {
                "start_time": 3.2636364,
                "end_time": 3.7659091,
                "pitch": 81,
                "velocity": 127,
                "duration": 0.5022727,
                "tempo": 120.0
            },
            {
                "start_time": 3.8,
                "end_time": 4.3090909,
                "pitch": 82,
                "velocity": 127,
                "duration": 0.5090909,
                "tempo": 120.0
            },
            {
                "start_time": 4.3409091,
                "end_time": 4.8431818,
                "pitch": 57,
                "velocity": 127,
                "duration": 0.5022727,
                "tempo": 120.0
            },
            {
                "start_time": 4.875,
                "end_time": 5.3772727,
                "pitch": 58,
                "velocity": 127,
                "duration": 0.5022727,
                "tempo": 120.0
            },
            {
                "start_time": 5.4113636,
                "end_time": 5.9204545,
                "pitch": 64,
                "velocity": 127,
                "duration": 0.5090909,
                "tempo": 120.0
            },
            {
                "start_time": 5.9545455,
                "end_time": 6.4545455,
                "pitch": 69,
                "velocity": 127,
                "duration": 0.5,
                "tempo": 120.0
            },
            {
                "start_time": 6.4886364,
                "end_time": 6.9909091,
                "pitch": 70,
                "velocity": 127,
                "duration": 0.5022727,
                "tempo": 120.0
            },
            {
                "start_time": 7.025,
                "end_time": 7.5340909,
                "pitch": 76,
                "velocity": 127,
                "duration": 0.5090909,
                "tempo": 120.0
            },
            {
                "start_time": 7.5659091,
                "end_time": 8.0681818,
                "pitch": 81,
                "velocity": 127,
                "duration": 0.5022727,
                "tempo": 120.0
            },
            {
                "start_time": 8.1022727,
                "end_time": 10.9340909,
                "pitch": 82,
                "velocity": 127,
                "duration": 2.8318182,
                "tempo": 120.0
            },
            {
                "start_time": 10.9340909,
                "end_time": 11.0181818,
                "pitch": 82,
                "velocity": 127,
                "duration": 0.0840909,
                "tempo": 120.0
            },
            {
                "start_time": 11.0613636,
                "end_time": 11.475,
                "pitch": 67,
                "velocity": 127,
                "duration": 0.4136364,
                "tempo": 120.0
            },
            {
                "start_time": 11.5068182,
                "end_time": 11.875,
                "pitch": 65,
                "velocity": 127,
                "duration": 0.3681818,
                "tempo": 120.0
            },
            {
                "start_time": 11.9090909,
                "end_time": 12.275,
                "pitch": 64,
                "velocity": 127,
                "duration": 0.3659091,
                "tempo": 120.0
            },
            {
                "start_time": 12.3090909,
                "end_time": 12.6818182,
                "pitch": 62,
                "velocity": 127,
                "duration": 0.3727273,
                "tempo": 120.0
            },
            {
                "start_time": 12.7159091,
                "end_time": 12.8181818,
                "pitch": 64,
                "velocity": 127,
                "duration": 0.1022727,
                "tempo": 120.0
            },
            {
                "start_time": 12.8522727,
                "end_time": 12.9522727,
                "pitch": 60,
                "velocity": 127,
                "duration": 0.1,
                "tempo": 120.0
            },
            {
                "start_time": 12.9863636,
                "end_time": 13.0863636,
                "pitch": 62,
                "velocity": 127,
                "duration": 0.1,
                "tempo": 120.0
            },
            {
                "start_time": 13.1204545,
                "end_time": 13.2204545,
                "pitch": 64,
                "velocity": 127,
                "duration": 0.1,
                "tempo": 120.0
            },
            {
                "start_time": 13.2545455,
                "end_time": 13.6204545,
                "pitch": 60,
                "velocity": 127,
                "duration": 0.3659091,
                "tempo": 120.0
            },
            {
                "start_time": 13.6545455,
                "end_time": 14.0227273,
                "pitch": 58,
                "velocity": 127,
                "duration": 0.3681818,
                "tempo": 120.0
            },
            {
                "start_time": 14.0568182,
                "end_time": 14.4318182,
                "pitch": 62,
                "velocity": 127,
                "duration": 0.375,
                "tempo": 120.0
            },
            {
                "start_time": 14.4659091,
                "end_time": 14.8340909,
                "pitch": 58,
                "velocity": 127,
                "duration": 0.3681818,
                "tempo": 120.0
            },
            {
                "start_time": 14.8659091,
                "end_time": 15.1,
                "pitch": 57,
                "velocity": 127,
                "duration": 0.2340909,
                "tempo": 120.0
            },
            {
                "start_time": 15.1340909,
                "end_time": 15.3681818,
                "pitch": 55,
                "velocity": 127,
                "duration": 0.2340909,
                "tempo": 120.0
            },
            {
                "start_time": 15.4,
                "end_time": 15.7727273,
                "pitch": 67,
                "velocity": 127,
                "duration": 0.3727273,
                "tempo": 120.0
            },
            {
                "start_time": 15.8068182,
                "end_time": 16.1795455,
                "pitch": 65,
                "velocity": 127,
                "duration": 0.3727273,
                "tempo": 120.0
            },
            {
                "start_time": 16.2113636,
                "end_time": 16.5795455,
                "pitch": 64,
                "velocity": 127,
                "duration": 0.3681818,
                "tempo": 120.0
            },
            {
                "start_time": 16.6136364,
                "end_time": 16.9795455,
                "pitch": 62,
                "velocity": 127,
                "duration": 0.3659091,
                "tempo": 120.0
            },
            {
                "start_time": 17.0136364,
                "end_time": 17.2477273,
                "pitch": 64,
                "velocity": 127,
                "duration": 0.2340909,
                "tempo": 120.0
            },
            {
                "start_time": 17.2818182,
                "end_time": 17.5204545,
                "pitch": 65,
                "velocity": 127,
                "duration": 0.2386364,
                "tempo": 120.0
            },
            {
                "start_time": 17.5545455,
                "end_time": 17.925,
                "pitch": 67,
                "velocity": 127,
                "duration": 0.3704545,
                "tempo": 120.0
            },
            {
                "start_time": 17.9590909,
                "end_time": 18.325,
                "pitch": 69,
                "velocity": 127,
                "duration": 0.3659091,
                "tempo": 120.0
            },
            {
                "start_time": 18.3590909,
                "end_time": 18.7272727,
                "pitch": 70,
                "velocity": 127,
                "duration": 0.3681818,
                "tempo": 120.0
            },
            {
                "start_time": 18.7590909,
                "end_time": 19.1340909,
                "pitch": 72,
                "velocity": 127,
                "duration": 0.375,
                "tempo": 120.0
            },
            {
                "start_time": 19.1681818,
                "end_time": 19.4045455,
                "pitch": 74,
                "velocity": 127,
                "duration": 0.2363636,
                "tempo": 120.0
            },
            {
                "start_time": 19.4386364,
                "end_time": 19.6704545,
                "pitch": 76,
                "velocity": 127,
                "duration": 0.2318182,
                "tempo": 120.0
            },
            {
                "start_time": 19.7045455,
                "end_time": 20.0727273,
                "pitch": 79,
                "velocity": 127,
                "duration": 0.3681818,
                "tempo": 120.0
            },
            {
                "start_time": 20.1045455,
                "end_time": 21.2840909,
                "pitch": 77,
                "velocity": 127,
                "duration": 1.1795455,
                "tempo": 120.0
            },
            {
                "start_time": 21.3181818,
                "end_time": 21.8181818,
                "pitch": 76,
                "velocity": 127,
                "duration": 0.5,
                "tempo": 120.0
            },
            {
                "start_time": 21.8522727,
                "end_time": 22.2227273,
                "pitch": 79,
                "velocity": 127,
                "duration": 0.3704545,
                "tempo": 120.0
            },
            {
                "start_time": 22.2568182,
                "end_time": 23.4318182,
                "pitch": 77,
                "velocity": 127,
                "duration": 1.175,
                "tempo": 120.0
            },
            {
                "start_time": 23.4636364,
                "end_time": 23.9704545,
                "pitch": 76,
                "velocity": 127,
                "duration": 0.5068182,
                "tempo": 120.0
            },
            {
                "start_time": 24.0045455,
                "end_time": 24.375,
                "pitch": 79,
                "velocity": 127,
                "duration": 0.3704545,
                "tempo": 120.0
            },
            {
                "start_time": 24.4090909,
                "end_time": 25.5840909,
                "pitch": 77,
                "velocity": 127,
                "duration": 1.175,
                "tempo": 120.0
            },
            {
                "start_time": 25.6181818,
                "end_time": 26.1227273,
                "pitch": 76,
                "velocity": 127,
                "duration": 0.5045455,
                "tempo": 120.0
            },
            {
                "start_time": 26.1545455,
                "end_time": 26.5227273,
                "pitch": 77,
                "velocity": 127,
                "duration": 0.3681818,
                "tempo": 120.0
            },
            {
                "start_time": 26.5568182,
                "end_time": 26.925,
                "pitch": 74,
                "velocity": 127,
                "duration": 0.3681818,
                "tempo": 120.0
            },
            {
                "start_time": 26.9590909,
                "end_time": 27.1977273,
                "pitch": 77,
                "velocity": 127,
                "duration": 0.2386364,
                "tempo": 120.0
            },
            {
                "start_time": 27.2318182,
                "end_time": 27.7340909,
                "pitch": 79,
                "velocity": 127,
                "duration": 0.5022727,
                "tempo": 120.0
            },
            {
                "start_time": 27.7681818,
                "end_time": 28.0022727,
                "pitch": 81,
                "velocity": 127,
                "duration": 0.2340909,
                "tempo": 120.0
            },
            {
                "start_time": 28.0363636,
                "end_time": 28.2704545,
                "pitch": 84,
                "velocity": 127,
                "duration": 0.2340909,
                "tempo": 120.0
            },
            {
                "start_time": 28.3022727,
                "end_time": 29.4818182,
                "pitch": 86,
                "velocity": 127,
                "duration": 1.1795455,
                "tempo": 120.0
            },
            {
                "start_time": 29.5136364,
                "end_time": 29.6159091,
                "pitch": 88,
                "velocity": 127,
                "duration": 0.1022727,
                "tempo": 120.0
            },
            {
                "start_time": 29.6477273,
                "end_time": 29.7477273,
                "pitch": 89,
                "velocity": 127,
                "duration": 0.1,
                "tempo": 120.0
            },
            {
                "start_time": 29.7818182,
                "end_time": 29.8818182,
                "pitch": 91,
                "velocity": 127,
                "duration": 0.1,
                "tempo": 120.0
            },
            {
                "start_time": 29.9159091,
                "end_time": 30.0159091,
                "pitch": 93,
                "velocity": 127,
                "duration": 0.1,
                "tempo": 120.0
            },
            {
                "start_time": 30.05,
                "end_time": 30.15,
                "pitch": 91,
                "velocity": 127,
                "duration": 0.1,
                "tempo": 120.0
            },
            {
                "start_time": 30.1840909,
                "end_time": 30.2863636,
                "pitch": 89,
                "velocity": 127,
                "duration": 0.1022727,
                "tempo": 120.0
            },
            {
                "start_time": 30.3204545,
                "end_time": 30.4227273,
                "pitch": 88,
                "velocity": 127,
                "duration": 0.1022727,
                "tempo": 120.0
            },
            {
                "start_time": 30.4568182,
                "end_time": 30.8272727,
                "pitch": 86,
                "velocity": 127,
                "duration": 0.3704545,
                "tempo": 120.0
            },
            {
                "start_time": 30.8590909,
                "end_time": 31.2272727,
                "pitch": 88,
                "velocity": 127,
                "duration": 0.3681818,
                "tempo": 120.0
            },
            {
                "start_time": 31.2613636,
                "end_time": 31.4954545,
                "pitch": 84,
                "velocity": 127,
                "duration": 0.2340909,
                "tempo": 120.0
            },
            {
                "start_time": 31.5272727,
                "end_time": 32.5727273,
                "pitch": 86,
                "velocity": 127,
                "duration": 1.0454545,
                "tempo": 120.0
            },
            {
                "start_time": 32.6068182,
                "end_time": 33.6477273,
                "pitch": 74,
                "velocity": 127,
                "duration": 1.0409091,
                "tempo": 120.0
            },
            {
                "start_time": 33.6818182,
                "end_time": 33.7840909,
                "pitch": 70,
                "velocity": 127,
                "duration": 0.1022727,
                "tempo": 120.0
            },
            {
                "start_time": 33.8181818,
                "end_time": 33.9181818,
                "pitch": 72,
                "velocity": 127,
                "duration": 0.1,
                "tempo": 120.0
            },
            {
                "start_time": 33.9522727,
                "end_time": 34.0522727,
                "pitch": 74,
                "velocity": 127,
                "duration": 0.1,
                "tempo": 120.0
            },
            {
                "start_time": 34.0863636,
                "end_time": 34.1863636,
                "pitch": 76,
                "velocity": 127,
                "duration": 0.1,
                "tempo": 120.0
            },
            {
                "start_time": 34.2181818,
                "end_time": 34.3204545,
                "pitch": 77,
                "velocity": 127,
                "duration": 0.1022727,
                "tempo": 120.0
            },
            {
                "start_time": 34.3522727,
                "end_time": 34.4522727,
                "pitch": 79,
                "velocity": 127,
                "duration": 0.1,
                "tempo": 120.0
            },
            {
                "start_time": 34.4863636,
                "end_time": 34.5863636,
                "pitch": 81,
                "velocity": 127,
                "duration": 0.1,
                "tempo": 120.0
            },
            {
                "start_time": 34.6204545,
                "end_time": 34.7204545,
                "pitch": 82,
                "velocity": 127,
                "duration": 0.1,
                "tempo": 120.0
            },
            {
                "start_time": 34.7545455,
                "end_time": 34.8954545,
                "pitch": 81,
                "velocity": 127,
                "duration": 0.1409091,
                "tempo": 120.0
            },
            {
                "start_time": 34.9113636,
                "end_time": 35.0568182,
                "pitch": 77,
                "velocity": 127,
                "duration": 0.1454545,
                "tempo": 120.0
            },
            {
                "start_time": 35.0704545,
                "end_time": 35.2022727,
                "pitch": 74,
                "velocity": 127,
                "duration": 0.1318182,
                "tempo": 120.0
            },
            {
                "start_time": 35.2295455,
                "end_time": 35.3681818,
                "pitch": 69,
                "velocity": 127,
                "duration": 0.1386364,
                "tempo": 120.0
            },
            {
                "start_time": 35.3863636,
                "end_time": 35.55,
                "pitch": 74,
                "velocity": 127,
                "duration": 0.1636364,
                "tempo": 120.0
            },
            {
                "start_time": 35.5659091,
                "end_time": 35.7136364,
                "pitch": 77,
                "velocity": 127,
                "duration": 0.1477273,
                "tempo": 120.0
            },
            {
                "start_time": 35.7454545,
                "end_time": 35.8954545,
                "pitch": 81,
                "velocity": 127,
                "duration": 0.15,
                "tempo": 120.0
            },
            {
                "start_time": 35.9136364,
                "end_time": 36.0840909,
                "pitch": 76,
                "velocity": 127,
                "duration": 0.1704545,
                "tempo": 120.0
            },
            {
                "start_time": 36.1,
                "end_time": 36.2522727,
                "pitch": 73,
                "velocity": 127,
                "duration": 0.1522727,
                "tempo": 120.0
            },
            {
                "start_time": 36.2863636,
                "end_time": 36.4386364,
                "pitch": 69,
                "velocity": 127,
                "duration": 0.1522727,
                "tempo": 120.0
            },
            {
                "start_time": 36.4568182,
                "end_time": 36.6227273,
                "pitch": 73,
                "velocity": 127,
                "duration": 0.1659091,
                "tempo": 120.0
            },
            {
                "start_time": 36.6386364,
                "end_time": 36.7886364,
                "pitch": 76,
                "velocity": 127,
                "duration": 0.15,
                "tempo": 120.0
            },
            {
                "start_time": 36.8227273,
                "end_time": 37.225,
                "pitch": 67,
                "velocity": 127,
                "duration": 0.4022727,
                "tempo": 120.0
            },
            {
                "start_time": 37.2636364,
                "end_time": 37.6863636,
                "pitch": 65,
                "velocity": 127,
                "duration": 0.4227273,
                "tempo": 120.0
            },
            {
                "start_time": 37.7181818,
                "end_time": 38.0863636,
                "pitch": 64,
                "velocity": 127,
                "duration": 0.3681818,
                "tempo": 120.0
            },
            {
                "start_time": 38.1204545,
                "end_time": 38.4931818,
                "pitch": 62,
                "velocity": 127,
                "duration": 0.3727273,
                "tempo": 120.0
            },
            {
                "start_time": 38.5272727,
                "end_time": 38.6295455,
                "pitch": 64,
                "velocity": 127,
                "duration": 0.1022727,
                "tempo": 120.0
            },
            {
                "start_time": 38.6636364,
                "end_time": 38.7636364,
                "pitch": 60,
                "velocity": 127,
                "duration": 0.1,
                "tempo": 120.0
            },
            {
                "start_time": 38.7977273,
                "end_time": 38.8977273,
                "pitch": 62,
                "velocity": 127,
                "duration": 0.1,
                "tempo": 120.0
            },
            {
                "start_time": 38.9318182,
                "end_time": 39.0318182,
                "pitch": 64,
                "velocity": 127,
                "duration": 0.1,
                "tempo": 120.0
            },
            {
                "start_time": 39.0636364,
                "end_time": 39.4318182,
                "pitch": 60,
                "velocity": 127,
                "duration": 0.3681818,
                "tempo": 120.0
            },
            {
                "start_time": 39.4659091,
                "end_time": 39.8340909,
                "pitch": 58,
                "velocity": 127,
                "duration": 0.3681818,
                "tempo": 120.0
            },
            {
                "start_time": 39.8681818,
                "end_time": 40.2409091,
                "pitch": 62,
                "velocity": 127,
                "duration": 0.3727273,
                "tempo": 120.0
            },
            {
                "start_time": 40.275,
                "end_time": 40.6431818,
                "pitch": 58,
                "velocity": 127,
                "duration": 0.3681818,
                "tempo": 120.0
            },
            {
                "start_time": 40.6772727,
                "end_time": 40.9113636,
                "pitch": 57,
                "velocity": 127,
                "duration": 0.2340909,
                "tempo": 120.0
            },
            {
                "start_time": 40.9431818,
                "end_time": 41.1772727,
                "pitch": 55,
                "velocity": 127,
                "duration": 0.2340909,
                "tempo": 120.0
            },
            {
                "start_time": 41.2113636,
                "end_time": 41.5818182,
                "pitch": 67,
                "velocity": 127,
                "duration": 0.3704545,
                "tempo": 120.0
            },
            {
                "start_time": 41.6159091,
                "end_time": 41.9886364,
                "pitch": 65,
                "velocity": 127,
                "duration": 0.3727273,
                "tempo": 120.0
            },
            {
                "start_time": 42.0227273,
                "end_time": 42.3909091,
                "pitch": 64,
                "velocity": 127,
                "duration": 0.3681818,
                "tempo": 120.0
            },
            {
                "start_time": 42.4227273,
                "end_time": 42.7909091,
                "pitch": 62,
                "velocity": 127,
                "duration": 0.3681818,
                "tempo": 120.0
            },
            {
                "start_time": 42.825,
                "end_time": 43.0590909,
                "pitch": 64,
                "velocity": 127,
                "duration": 0.2340909,
                "tempo": 120.0
            },
            {
                "start_time": 43.0931818,
                "end_time": 43.3318182,
                "pitch": 65,
                "velocity": 127,
                "duration": 0.2386364,
                "tempo": 120.0
            },
            {
                "start_time": 43.3659091,
                "end_time": 43.7363636,
                "pitch": 67,
                "velocity": 127,
                "duration": 0.3704545,
                "tempo": 120.0
            },
            {
                "start_time": 43.7681818,
                "end_time": 44.1363636,
                "pitch": 69,
                "velocity": 127,
                "duration": 0.3681818,
                "tempo": 120.0
            },
            {
                "start_time": 44.1704545,
                "end_time": 44.5363636,
                "pitch": 67,
                "velocity": 127,
                "duration": 0.3659091,
                "tempo": 120.0
            },
            {
                "start_time": 44.5704545,
                "end_time": 44.9386364,
                "pitch": 65,
                "velocity": 127,
                "duration": 0.3681818,
                "tempo": 120.0
            },
            {
                "start_time": 44.9704545,
                "end_time": 45.2068182,
                "pitch": 64,
                "velocity": 127,
                "duration": 0.2363636,
                "tempo": 120.0
            },
            {
                "start_time": 45.2409091,
                "end_time": 45.4772727,
                "pitch": 60,
                "velocity": 127,
                "duration": 0.2363636,
                "tempo": 120.0
            },
            {
                "start_time": 45.5113636,
                "end_time": 45.8818182,
                "pitch": 64,
                "velocity": 127,
                "duration": 0.3704545,
                "tempo": 120.0
            },
            {
                "start_time": 45.9159091,
                "end_time": 47.6295455,
                "pitch": 62,
                "velocity": 127,
                "duration": 1.7136364,
                "tempo": 120.0
            },
            {
                "start_time": 47.6613636,
                "end_time": 49.775,
                "pitch": 74,
                "velocity": 127,
                "duration": 2.1136364,
                "tempo": 120.0
            },
            {
                "start_time": 49.8090909,
                "end_time": 51.1977273,
                "pitch": 86,
                "velocity": 127,
                "duration": 1.3886364,
                "tempo": 120.0
            },
            {
                "start_time": 51.2272727,
                "end_time": 51.6863636,
                "pitch": 81,
                "velocity": 127,
                "duration": 0.4590909,
                "tempo": 120.0
            },
            {
                "start_time": 51.7204545,
                "end_time": 51.8704545,
                "pitch": 84,
                "velocity": 127,
                "duration": 0.15,
                "tempo": 120.0
            },
            {
                "start_time": 51.8886364,
                "end_time": 52.0545455,
                "pitch": 81,
                "velocity": 127,
                "duration": 0.1659091,
                "tempo": 120.0
            },
            {
                "start_time": 52.0704545,
                "end_time": 52.2227273,
                "pitch": 79,
                "velocity": 127,
                "duration": 0.1522727,
                "tempo": 120.0
            },
            {
                "start_time": 52.2568182,
                "end_time": 52.4090909,
                "pitch": 81,
                "velocity": 127,
                "duration": 0.1522727,
                "tempo": 120.0
            },
            {
                "start_time": 52.4272727,
                "end_time": 52.5977273,
                "pitch": 79,
                "velocity": 127,
                "duration": 0.1704545,
                "tempo": 120.0
            },
            {
                "start_time": 52.6136364,
                "end_time": 52.7659091,
                "pitch": 77,
                "velocity": 127,
                "duration": 0.1522727,
                "tempo": 120.0
            },
            {
                "start_time": 52.8,
                "end_time": 52.95,
                "pitch": 79,
                "velocity": 127,
                "duration": 0.15,
                "tempo": 120.0
            },
            {
                "start_time": 52.9659091,
                "end_time": 53.1318182,
                "pitch": 77,
                "velocity": 127,
                "duration": 0.1659091,
                "tempo": 120.0
            },
            {
                "start_time": 53.15,
                "end_time": 53.3,
                "pitch": 76,
                "velocity": 127,
                "duration": 0.15,
                "tempo": 120.0
            },
            {
                "start_time": 53.3340909,
                "end_time": 53.4840909,
                "pitch": 77,
                "velocity": 127,
                "duration": 0.15,
                "tempo": 120.0
            },
            {
                "start_time": 53.5,
                "end_time": 53.6681818,
                "pitch": 76,
                "velocity": 127,
                "duration": 0.1681818,
                "tempo": 120.0
            },
            {
                "start_time": 53.6840909,
                "end_time": 53.8363636,
                "pitch": 72,
                "velocity": 127,
                "duration": 0.1522727,
                "tempo": 120.0
            },
            {
                "start_time": 53.8704545,
                "end_time": 54.2431818,
                "pitch": 74,
                "velocity": 127,
                "duration": 0.3727273,
                "tempo": 120.0
            },
            {
                "start_time": 54.2772727,
                "end_time": 58.1386364,
                "pitch": 86,
                "velocity": 127,
                "duration": 3.8613636,
                "tempo": 120.0
            },
            {
                "start_time": 58.1704545,
                "end_time": 59.2159091,
                "pitch": 74,
                "velocity": 127,
                "duration": 1.0454545,
                "tempo": 120.0
            },
            {
                "start_time": 59.25,
                "end_time": 59.75,
                "pitch": 76,
                "velocity": 127,
                "duration": 0.5,
                "tempo": 120.0
            },
            {
                "start_time": 59.7840909,
                "end_time": 60.2863636,
                "pitch": 77,
                "velocity": 127,
                "duration": 0.5022727,
                "tempo": 120.0
            },
            {
                "start_time": 60.3204545,
                "end_time": 61.3636364,
                "pitch": 79,
                "velocity": 127,
                "duration": 1.0431818,
                "tempo": 120.0
            },
            {
                "start_time": 61.3977273,
                "end_time": 61.9,
                "pitch": 81,
                "velocity": 127,
                "duration": 0.5022727,
                "tempo": 120.0
            },
            {
                "start_time": 61.9340909,
                "end_time": 62.4409091,
                "pitch": 82,
                "velocity": 127,
                "duration": 0.5068182,
                "tempo": 120.0
            },
            {
                "start_time": 62.475,
                "end_time": 64.5909091,
                "pitch": 81,
                "velocity": 127,
                "duration": 2.1159091,
                "tempo": 120.0
            },
            {
                "start_time": 64.625,
                "end_time": 66.9136364,
                "pitch": 93,
                "velocity": 127,
                "duration": 2.2886364,
                "tempo": 120.0
            }
        ],
        "Electric Guitar (clean)": [
            {
                "start_time": 0.0,
                "end_time": 0.0954545,
                "pitch": 33,
                "velocity": 64,
                "duration": 0.0954545,
                "tempo": 120.0
            },
            {
                "start_time": 0.1113636,
                "end_time": 0.2295455,
                "pitch": 33,
                "velocity": 64,
                "duration": 0.1181818,
                "tempo": 120.0
            },
            {
                "start_time": 0.2454545,
                "end_time": 0.3613636,
                "pitch": 33,
                "velocity": 64,
                "duration": 0.1159091,
                "tempo": 120.0
            },
            {
                "start_time": 0.3795455,
                "end_time": 0.4954545,
                "pitch": 33,
                "velocity": 64,
                "duration": 0.1159091,
                "tempo": 120.0
            },
            {
                "start_time": 0.5113636,
                "end_time": 0.6227273,
                "pitch": 33,
                "velocity": 64,
                "duration": 0.1113636,
                "tempo": 120.0
            },
            {
                "start_time": 0.6386364,
                "end_time": 0.7477273,
                "pitch": 33,
                "velocity": 64,
                "duration": 0.1090909,
                "tempo": 120.0
            },
            {
                "start_time": 0.7636364,
                "end_time": 0.875,
                "pitch": 33,
                "velocity": 64,
                "duration": 0.1113636,
                "tempo": 120.0
            },
            {
                "start_time": 0.8909091,
                "end_time": 1.0,
                "pitch": 33,
                "velocity": 64,
                "duration": 0.1090909,
                "tempo": 120.0
            },
            {
                "start_time": 1.0159091,
                "end_time": 1.1318182,
                "pitch": 33,
                "velocity": 64,
                "duration": 0.1159091,
                "tempo": 120.0
            },
            {
                "start_time": 1.15,
                "end_time": 1.2659091,
                "pitch": 33,
                "velocity": 64,
                "duration": 0.1159091,
                "tempo": 120.0
            },
            {
                "start_time": 1.2818182,
                "end_time": 1.4,
                "pitch": 33,
                "velocity": 64,
                "duration": 0.1181818,
                "tempo": 120.0
            },
            {
                "start_time": 1.4159091,
                "end_time": 1.5340909,
                "pitch": 33,
                "velocity": 64,
                "duration": 0.1181818,
                "tempo": 120.0
            },
            {
                "start_time": 1.55,
                "end_time": 1.6659091,
                "pitch": 33,
                "velocity": 64,
                "duration": 0.1159091,
                "tempo": 120.0
            },
            {
                "start_time": 1.6840909,
                "end_time": 1.8,
                "pitch": 33,
                "velocity": 64,
                "duration": 0.1159091,
                "tempo": 120.0
            },
            {
                "start_time": 1.8181818,
                "end_time": 1.9340909,
                "pitch": 33,
                "velocity": 64,
                "duration": 0.1159091,
                "tempo": 120.0
            },
            {
                "start_time": 1.95,
                "end_time": 2.0681818,
                "pitch": 33,
                "velocity": 64,
                "duration": 0.1181818,
                "tempo": 120.0
            },
            {
                "start_time": 2.0840909,
                "end_time": 2.2045455,
                "pitch": 33,
                "velocity": 64,
                "duration": 0.1204545,
                "tempo": 120.0
            },
            {
                "start_time": 2.2204545,
                "end_time": 2.3386364,
                "pitch": 33,
                "velocity": 64,
                "duration": 0.1181818,
                "tempo": 120.0
            },
            {
                "start_time": 2.3568182,
                "end_time": 2.475,
                "pitch": 33,
                "velocity": 64,
                "duration": 0.1181818,
                "tempo": 120.0
            },
            {
                "start_time": 2.4931818,
                "end_time": 2.6113636,
                "pitch": 33,
                "velocity": 64,
                "duration": 0.1181818,
                "tempo": 120.0
            },
            {
                "start_time": 2.6295455,
                "end_time": 2.7454545,
                "pitch": 33,
                "velocity": 64,
                "duration": 0.1159091,
                "tempo": 120.0
            },
            {
                "start_time": 2.7613636,
                "end_time": 2.8795455,
                "pitch": 33,
                "velocity": 64,
                "duration": 0.1181818,
                "tempo": 120.0
            },
            {
                "start_time": 2.8954545,
                "end_time": 3.0136364,
                "pitch": 33,
                "velocity": 64,
                "duration": 0.1181818,
                "tempo": 120.0
            },
            {
                "start_time": 3.0295455,
                "end_time": 3.1454545,
                "pitch": 33,
                "velocity": 64,
                "duration": 0.1159091,
                "tempo": 120.0
            },
            {
                "start_time": 3.1636364,
                "end_time": 3.2795455,
                "pitch": 33,
                "velocity": 64,
                "duration": 0.1159091,
                "tempo": 120.0
            },
            {
                "start_time": 3.2954545,
                "end_time": 3.4136364,
                "pitch": 33,
                "velocity": 64,
                "duration": 0.1181818,
                "tempo": 120.0
            },
            {
                "start_time": 3.4295455,
                "end_time": 3.5477273,
                "pitch": 33,
                "velocity": 64,
                "duration": 0.1181818,
                "tempo": 120.0
            },
            {
                "start_time": 3.5636364,
                "end_time": 3.6795455,
                "pitch": 33,
                "velocity": 64,
                "duration": 0.1159091,
                "tempo": 120.0
            },
            {
                "start_time": 3.6977273,
                "end_time": 3.8159091,
                "pitch": 33,
                "velocity": 64,
                "duration": 0.1181818,
                "tempo": 120.0
            },
            {
                "start_time": 3.8340909,
                "end_time": 3.9522727,
                "pitch": 33,
                "velocity": 64,
                "duration": 0.1181818,
                "tempo": 120.0
            },
            {
                "start_time": 3.9681818,
                "end_time": 4.0886364,
                "pitch": 33,
                "velocity": 64,
                "duration": 0.1204545,
                "tempo": 120.0
            },
            {
                "start_time": 4.1045455,
                "end_time": 4.225,
                "pitch": 33,
                "velocity": 64,
                "duration": 0.1204545,
                "tempo": 120.0
            },
            {
                "start_time": 4.2409091,
                "end_time": 4.3590909,
                "pitch": 33,
                "velocity": 64,
                "duration": 0.1181818,
                "tempo": 120.0
            },
            {
                "start_time": 4.375,
                "end_time": 4.4909091,
                "pitch": 33,
                "velocity": 64,
                "duration": 0.1159091,
                "tempo": 120.0
            },
            {
                "start_time": 4.5090909,
                "end_time": 4.625,
                "pitch": 33,
                "velocity": 64,
                "duration": 0.1159091,
                "tempo": 120.0
            },
            {
                "start_time": 4.6409091,
                "end_time": 4.7590909,
                "pitch": 33,
                "velocity": 64,
                "duration": 0.1181818,
                "tempo": 120.0
            },
            {
                "start_time": 4.775,
                "end_time": 4.8931818,
                "pitch": 33,
                "velocity": 64,
                "duration": 0.1181818,
                "tempo": 120.0
            },
            {
                "start_time": 4.9090909,
                "end_time": 5.025,
                "pitch": 33,
                "velocity": 64,
                "duration": 0.1159091,
                "tempo": 120.0
            },
            {
                "start_time": 5.0431818,
                "end_time": 5.1590909,
                "pitch": 33,
                "velocity": 64,
                "duration": 0.1159091,
                "tempo": 120.0
            },
            {
                "start_time": 5.1772727,
                "end_time": 5.2931818,
                "pitch": 33,
                "velocity": 64,
                "duration": 0.1159091,
                "tempo": 120.0
            },
            {
                "start_time": 5.3090909,
                "end_time": 5.4295455,
                "pitch": 33,
                "velocity": 64,
                "duration": 0.1204545,
                "tempo": 120.0
            },
            {
                "start_time": 5.4454545,
                "end_time": 5.5659091,
                "pitch": 33,
                "velocity": 64,
                "duration": 0.1204545,
                "tempo": 120.0
            },
            {
                "start_time": 5.5818182,
                "end_time": 5.7,
                "pitch": 33,
                "velocity": 64,
                "duration": 0.1181818,
                "tempo": 120.0
            },
            {
                "start_time": 5.7181818,
                "end_time": 5.8363636,
                "pitch": 33,
                "velocity": 64,
                "duration": 0.1181818,
                "tempo": 120.0
            },
            {
                "start_time": 5.8545455,
                "end_time": 5.9704545,
                "pitch": 33,
                "velocity": 64,
                "duration": 0.1159091,
                "tempo": 120.0
            },
            {
                "start_time": 5.9863636,
                "end_time": 6.1045455,
                "pitch": 33,
                "velocity": 64,
                "duration": 0.1181818,
                "tempo": 120.0
            },
            {
                "start_time": 6.1204545,
                "end_time": 6.2386364,
                "pitch": 33,
                "velocity": 64,
                "duration": 0.1181818,
                "tempo": 120.0
            },
            {
                "start_time": 6.2545455,
                "end_time": 6.3704545,
                "pitch": 33,
                "velocity": 64,
                "duration": 0.1159091,
                "tempo": 120.0
            },
            {
                "start_time": 6.3886364,
                "end_time": 6.5045455,
                "pitch": 33,
                "velocity": 64,
                "duration": 0.1159091,
                "tempo": 120.0
            },
            {
                "start_time": 6.5227273,
                "end_time": 6.6386364,
                "pitch": 33,
                "velocity": 64,
                "duration": 0.1159091,
                "tempo": 120.0
            },
            {
                "start_time": 6.6545455,
                "end_time": 6.7727273,
                "pitch": 33,
                "velocity": 64,
                "duration": 0.1181818,
                "tempo": 120.0
            },
            {
                "start_time": 6.7886364,
                "end_time": 6.9068182,
                "pitch": 33,
                "velocity": 64,
                "duration": 0.1181818,
                "tempo": 120.0
            },
            {
                "start_time": 6.9227273,
                "end_time": 7.0409091,
                "pitch": 33,
                "velocity": 64,
                "duration": 0.1181818,
                "tempo": 120.0
            },
            {
                "start_time": 7.0590909,
                "end_time": 7.1772727,
                "pitch": 33,
                "velocity": 64,
                "duration": 0.1181818,
                "tempo": 120.0
            },
            {
                "start_time": 7.1954545,
                "end_time": 7.3136364,
                "pitch": 33,
                "velocity": 64,
                "duration": 0.1181818,
                "tempo": 120.0
            },
            {
                "start_time": 7.3295455,
                "end_time": 7.45,
                "pitch": 33,
                "velocity": 64,
                "duration": 0.1204545,
                "tempo": 120.0
            },
            {
                "start_time": 7.4659091,
                "end_time": 7.5840909,
                "pitch": 33,
                "velocity": 64,
                "duration": 0.1181818,
                "tempo": 120.0
            },
            {
                "start_time": 7.6,
                "end_time": 7.7181818,
                "pitch": 33,
                "velocity": 64,
                "duration": 0.1181818,
                "tempo": 120.0
            },
            {
                "start_time": 7.7340909,
                "end_time": 7.85,
                "pitch": 33,
                "velocity": 64,
                "duration": 0.1159091,
                "tempo": 120.0
            },
            {
                "start_time": 7.8681818,
                "end_time": 7.9840909,
                "pitch": 33,
                "velocity": 64,
                "duration": 0.1159091,
                "tempo": 120.0
            },
            {
                "start_time": 8.0,
                "end_time": 8.1181818,
                "pitch": 33,
                "velocity": 64,
                "duration": 0.1181818,
                "tempo": 120.0
            },
            {
                "start_time": 8.1340909,
                "end_time": 8.2522727,
                "pitch": 33,
                "velocity": 64,
                "duration": 0.1181818,
                "tempo": 120.0
            },
            {
                "start_time": 8.2681818,
                "end_time": 8.3840909,
                "pitch": 33,
                "velocity": 64,
                "duration": 0.1159091,
                "tempo": 120.0
            },
            {
                "start_time": 8.4022727,
                "end_time": 8.5181818,
                "pitch": 33,
                "velocity": 64,
                "duration": 0.1159091,
                "tempo": 120.0
            },
            {
                "start_time": 8.5363636,
                "end_time": 8.6545455,
                "pitch": 45,
                "velocity": 64,
                "duration": 0.1181818,
                "tempo": 120.0
            },
            {
                "start_time": 8.6704545,
                "end_time": 8.7909091,
                "pitch": 33,
                "velocity": 64,
                "duration": 0.1204545,
                "tempo": 120.0
            },
            {
                "start_time": 8.8068182,
                "end_time": 8.9272727,
                "pitch": 33,
                "velocity": 64,
                "duration": 0.1204545,
                "tempo": 120.0
            },
            {
                "start_time": 8.9431818,
                "end_time": 9.0613636,
                "pitch": 33,
                "velocity": 64,
                "duration": 0.1181818,
                "tempo": 120.0
            },
            {
                "start_time": 9.0795455,
                "end_time": 9.1954545,
                "pitch": 33,
                "velocity": 64,
                "duration": 0.1159091,
                "tempo": 120.0
            },
            {
                "start_time": 9.2136364,
                "end_time": 9.3295455,
                "pitch": 45,
                "velocity": 64,
                "duration": 0.1159091,
                "tempo": 120.0
            },
            {
                "start_time": 9.3454545,
                "end_time": 9.4636364,
                "pitch": 33,
                "velocity": 64,
                "duration": 0.1181818,
                "tempo": 120.0
            },
            {
                "start_time": 9.4795455,
                "end_time": 9.5977273,
                "pitch": 33,
                "velocity": 64,
                "duration": 0.1181818,
                "tempo": 120.0
            },
            {
                "start_time": 9.6136364,
                "end_time": 9.7295455,
                "pitch": 45,
                "velocity": 64,
                "duration": 0.1159091,
                "tempo": 120.0
            },
            {
                "start_time": 9.7477273,
                "end_time": 9.8954545,
                "pitch": 33,
                "velocity": 64,
                "duration": 0.1477273,
                "tempo": 120.0
            },
            {
                "start_time": 9.9159091,
                "end_time": 10.0636364,
                "pitch": 33,
                "velocity": 64,
                "duration": 0.1477273,
                "tempo": 120.0
            },
            {
                "start_time": 10.0863636,
                "end_time": 10.2340909,
                "pitch": 33,
                "velocity": 64,
                "duration": 0.1477273,
                "tempo": 120.0
            },
            {
                "start_time": 10.2545455,
                "end_time": 10.4045455,
                "pitch": 33,
                "velocity": 64,
                "duration": 0.15,
                "tempo": 120.0
            },
            {
                "start_time": 10.425,
                "end_time": 10.5727273,
                "pitch": 45,
                "velocity": 64,
                "duration": 0.1477273,
                "tempo": 120.0
            },
            {
                "start_time": 10.5954545,
                "end_time": 10.7431818,
                "pitch": 33,
                "velocity": 64,
                "duration": 0.1477273,
                "tempo": 120.0
            },
            {
                "start_time": 10.7636364,
                "end_time": 10.9113636,
                "pitch": 33,
                "velocity": 64,
                "duration": 0.1477273,
                "tempo": 120.0
            },
            {
                "start_time": 10.9340909,
                "end_time": 11.0818182,
                "pitch": 34,
                "velocity": 64,
                "duration": 0.1477273,
                "tempo": 120.0
            },
            {
                "start_time": 11.1022727,
                "end_time": 11.2522727,
                "pitch": 34,
                "velocity": 64,
                "duration": 0.15,
                "tempo": 120.0
            },
            {
                "start_time": 11.2727273,
                "end_time": 11.3909091,
                "pitch": 34,
                "velocity": 64,
                "duration": 0.1181818,
                "tempo": 120.0
            },
            {
                "start_time": 11.4068182,
                "end_time": 11.525,
                "pitch": 34,
                "velocity": 64,
                "duration": 0.1181818,
                "tempo": 120.0
            },
            {
                "start_time": 11.5409091,
                "end_time": 11.6568182,
                "pitch": 34,
                "velocity": 64,
                "duration": 0.1159091,
                "tempo": 120.0
            },
            {
                "start_time": 11.675,
                "end_time": 11.7909091,
                "pitch": 34,
                "velocity": 64,
                "duration": 0.1159091,
                "tempo": 120.0
            },
            {
                "start_time": 11.8090909,
                "end_time": 11.925,
                "pitch": 34,
                "velocity": 64,
                "duration": 0.1159091,
                "tempo": 120.0
            },
            {
                "start_time": 11.9409091,
                "end_time": 12.0590909,
                "pitch": 34,
                "velocity": 64,
                "duration": 0.1181818,
                "tempo": 120.0
            },
            {
                "start_time": 12.075,
                "end_time": 12.1931818,
                "pitch": 34,
                "velocity": 64,
                "duration": 0.1181818,
                "tempo": 120.0
            },
            {
                "start_time": 12.2090909,
                "end_time": 12.325,
                "pitch": 34,
                "velocity": 64,
                "duration": 0.1159091,
                "tempo": 120.0
            },
            {
                "start_time": 12.3431818,
                "end_time": 12.4613636,
                "pitch": 34,
                "velocity": 64,
                "duration": 0.1181818,
                "tempo": 120.0
            },
            {
                "start_time": 12.4795455,
                "end_time": 12.5977273,
                "pitch": 34,
                "velocity": 64,
                "duration": 0.1181818,
                "tempo": 120.0
            },
            {
                "start_time": 12.6136364,
                "end_time": 12.7340909,
                "pitch": 34,
                "velocity": 64,
                "duration": 0.1204545,
                "tempo": 120.0
            },
            {
                "start_time": 12.75,
                "end_time": 12.8704545,
                "pitch": 34,
                "velocity": 64,
                "duration": 0.1204545,
                "tempo": 120.0
            },
            {
                "start_time": 12.8863636,
                "end_time": 13.0045455,
                "pitch": 34,
                "velocity": 64,
                "duration": 0.1181818,
                "tempo": 120.0
            },
            {
                "start_time": 13.0204545,
                "end_time": 13.1363636,
                "pitch": 34,
                "velocity": 64,
                "duration": 0.1159091,
                "tempo": 120.0
            },
            {
                "start_time": 13.1545455,
                "end_time": 13.2704545,
                "pitch": 34,
                "velocity": 64,
                "duration": 0.1159091,
                "tempo": 120.0
            },
            {
                "start_time": 13.2863636,
                "end_time": 13.4045455,
                "pitch": 34,
                "velocity": 64,
                "duration": 0.1181818,
                "tempo": 120.0
            },
            {
                "start_time": 13.4204545,
                "end_time": 13.5386364,
                "pitch": 34,
                "velocity": 64,
                "duration": 0.1181818,
                "tempo": 120.0
            },
            {
                "start_time": 13.5545455,
                "end_time": 13.6704545,
                "pitch": 34,
                "velocity": 64,
                "duration": 0.1159091,
                "tempo": 120.0
            },
            {
                "start_time": 13.6886364,
                "end_time": 13.8045455,
                "pitch": 34,
                "velocity": 64,
                "duration": 0.1159091,
                "tempo": 120.0
            },
            {
                "start_time": 13.8227273,
                "end_time": 13.9386364,
                "pitch": 34,
                "velocity": 64,
                "duration": 0.1159091,
                "tempo": 120.0
            },
            {
                "start_time": 13.9545455,
                "end_time": 14.075,
                "pitch": 34,
                "velocity": 64,
                "duration": 0.1204545,
                "tempo": 120.0
            },
            {
                "start_time": 14.0909091,
                "end_time": 14.2090909,
                "pitch": 34,
                "velocity": 64,
                "duration": 0.1181818,
                "tempo": 120.0
            },
            {
                "start_time": 14.2272727,
                "end_time": 14.3454545,
                "pitch": 34,
                "velocity": 64,
                "duration": 0.1181818,
                "tempo": 120.0
            },
            {
                "start_time": 14.3636364,
                "end_time": 14.4818182,
                "pitch": 34,
                "velocity": 64,
                "duration": 0.1181818,
                "tempo": 120.0
            },
            {
                "start_time": 14.5,
                "end_time": 14.6159091,
                "pitch": 34,
                "velocity": 64,
                "duration": 0.1159091,
                "tempo": 120.0
            },
            {
                "start_time": 14.6318182,
                "end_time": 14.75,
                "pitch": 34,
                "velocity": 64,
                "duration": 0.1181818,
                "tempo": 120.0
            },
            {
                "start_time": 14.7659091,
                "end_time": 14.8840909,
                "pitch": 34,
                "velocity": 64,
                "duration": 0.1181818,
                "tempo": 120.0
            },
            {
                "start_time": 14.9,
                "end_time": 15.0159091,
                "pitch": 34,
                "velocity": 64,
                "duration": 0.1159091,
                "tempo": 120.0
            },
            {
                "start_time": 15.0340909,
                "end_time": 15.15,
                "pitch": 34,
                "velocity": 64,
                "duration": 0.1159091,
                "tempo": 120.0
            },
            {
                "start_time": 15.1681818,
                "end_time": 15.2840909,
                "pitch": 34,
                "velocity": 64,
                "duration": 0.1159091,
                "tempo": 120.0
            },
            {
                "start_time": 15.3,
                "end_time": 15.4181818,
                "pitch": 36,
                "velocity": 64,
                "duration": 0.1181818,
                "tempo": 120.0
            },
            {
                "start_time": 15.4340909,
                "end_time": 15.5522727,
                "pitch": 36,
                "velocity": 64,
                "duration": 0.1181818,
                "tempo": 120.0
            },
            {
                "start_time": 15.5681818,
                "end_time": 15.6863636,
                "pitch": 36,
                "velocity": 64,
                "duration": 0.1181818,
                "tempo": 120.0
            },
            {
                "start_time": 15.7045455,
                "end_time": 15.8227273,
                "pitch": 36,
                "velocity": 64,
                "duration": 0.1181818,
                "tempo": 120.0
            },
            {
                "start_time": 15.8409091,
                "end_time": 15.9590909,
                "pitch": 36,
                "velocity": 64,
                "duration": 0.1181818,
                "tempo": 120.0
            },
            {
                "start_time": 15.975,
                "end_time": 16.0954545,
                "pitch": 36,
                "velocity": 64,
                "duration": 0.1204545,
                "tempo": 120.0
            },
            {
                "start_time": 16.1113636,
                "end_time": 16.2295455,
                "pitch": 36,
                "velocity": 64,
                "duration": 0.1181818,
                "tempo": 120.0
            },
            {
                "start_time": 16.2454545,
                "end_time": 16.3613636,
                "pitch": 36,
                "velocity": 64,
                "duration": 0.1159091,
                "tempo": 120.0
            },
            {
                "start_time": 16.3795455,
                "end_time": 16.4954545,
                "pitch": 36,
                "velocity": 64,
                "duration": 0.1159091,
                "tempo": 120.0
            },
            {
                "start_time": 16.5136364,
                "end_time": 16.6295455,
                "pitch": 36,
                "velocity": 64,
                "duration": 0.1159091,
                "tempo": 120.0
            },
            {
                "start_time": 16.6454545,
                "end_time": 16.7636364,
                "pitch": 36,
                "velocity": 64,
                "duration": 0.1181818,
                "tempo": 120.0
            },
            {
                "start_time": 16.7795455,
                "end_time": 16.8977273,
                "pitch": 36,
                "velocity": 64,
                "duration": 0.1181818,
                "tempo": 120.0
            },
            {
                "start_time": 16.9136364,
                "end_time": 17.0295455,
                "pitch": 36,
                "velocity": 64,
                "duration": 0.1159091,
                "tempo": 120.0
            },
            {
                "start_time": 17.0477273,
                "end_time": 17.1636364,
                "pitch": 36,
                "velocity": 64,
                "duration": 0.1159091,
                "tempo": 120.0
            },
            {
                "start_time": 17.1818182,
                "end_time": 17.3,
                "pitch": 36,
                "velocity": 64,
                "duration": 0.1181818,
                "tempo": 120.0
            },
            {
                "start_time": 17.3159091,
                "end_time": 17.4363636,
                "pitch": 36,
                "velocity": 64,
                "duration": 0.1204545,
                "tempo": 120.0
            },
            {
                "start_time": 17.4522727,
                "end_time": 17.5727273,
                "pitch": 36,
                "velocity": 64,
                "duration": 0.1204545,
                "tempo": 120.0
            },
            {
                "start_time": 17.5886364,
                "end_time": 17.7068182,
                "pitch": 36,
                "velocity": 64,
                "duration": 0.1181818,
                "tempo": 120.0
            },
            {
                "start_time": 17.725,
                "end_time": 17.8409091,
                "pitch": 36,
                "velocity": 64,
                "duration": 0.1159091,
                "tempo": 120.0
            },
            {
                "start_time": 17.8590909,
                "end_time": 17.975,
                "pitch": 36,
                "velocity": 64,
                "duration": 0.1159091,
                "tempo": 120.0
            },
            {
                "start_time": 17.9909091,
                "end_time": 18.1090909,
                "pitch": 36,
                "velocity": 64,
                "duration": 0.1181818,
                "tempo": 120.0
            },
            {
                "start_time": 18.125,
                "end_time": 18.2431818,
                "pitch": 36,
                "velocity": 64,
                "duration": 0.1181818,
                "tempo": 120.0
            },
            {
                "start_time": 18.2590909,
                "end_time": 18.375,
                "pitch": 36,
                "velocity": 64,
                "duration": 0.1159091,
                "tempo": 120.0
            },
            {
                "start_time": 18.3931818,
                "end_time": 18.5090909,
                "pitch": 36,
                "velocity": 64,
                "duration": 0.1159091,
                "tempo": 120.0
            },
            {
                "start_time": 18.5272727,
                "end_time": 18.6431818,
                "pitch": 36,
                "velocity": 64,
                "duration": 0.1159091,
                "tempo": 120.0
            },
            {
                "start_time": 18.6590909,
                "end_time": 18.7772727,
                "pitch": 36,
                "velocity": 64,
                "duration": 0.1181818,
                "tempo": 120.0
            },
            {
                "start_time": 18.7931818,
                "end_time": 18.9113636,
                "pitch": 36,
                "velocity": 64,
                "duration": 0.1181818,
                "tempo": 120.0
            },
            {
                "start_time": 18.9295455,
                "end_time": 19.0477273,
                "pitch": 36,
                "velocity": 64,
                "duration": 0.1181818,
                "tempo": 120.0
            },
            {
                "start_time": 19.0659091,
                "end_time": 19.1840909,
                "pitch": 36,
                "velocity": 64,
                "duration": 0.1181818,
                "tempo": 120.0
            },
            {
                "start_time": 19.2022727,
                "end_time": 19.3204545,
                "pitch": 36,
                "velocity": 64,
                "duration": 0.1181818,
                "tempo": 120.0
            },
            {
                "start_time": 19.3363636,
                "end_time": 19.4545455,
                "pitch": 36,
                "velocity": 64,
                "duration": 0.1181818,
                "tempo": 120.0
            },
            {
                "start_time": 19.4704545,
                "end_time": 19.5886364,
                "pitch": 36,
                "velocity": 64,
                "duration": 0.1181818,
                "tempo": 120.0
            },
            {
                "start_time": 19.6045455,
                "end_time": 19.7204545,
                "pitch": 38,
                "velocity": 64,
                "duration": 0.1159091,
                "tempo": 120.0
            },
            {
                "start_time": 19.7386364,
                "end_time": 19.8545455,
                "pitch": 38,
                "velocity": 64,
                "duration": 0.1159091,
                "tempo": 120.0
            },
            {
                "start_time": 19.8727273,
                "end_time": 19.9886364,
                "pitch": 38,
                "velocity": 64,
                "duration": 0.1159091,
                "tempo": 120.0
            },
            {
                "start_time": 20.0045455,
                "end_time": 20.1227273,
                "pitch": 38,
                "velocity": 64,
                "duration": 0.1181818,
                "tempo": 120.0
            },
            {
                "start_time": 20.1386364,
                "end_time": 20.2568182,
                "pitch": 38,
                "velocity": 64,
                "duration": 0.1181818,
                "tempo": 120.0
            },
            {
                "start_time": 20.2727273,
                "end_time": 20.3886364,
                "pitch": 38,
                "velocity": 64,
                "duration": 0.1159091,
                "tempo": 120.0
            },
            {
                "start_time": 20.4068182,
                "end_time": 20.525,
                "pitch": 38,
                "velocity": 64,
                "duration": 0.1181818,
                "tempo": 120.0
            },
            {
                "start_time": 20.5431818,
                "end_time": 20.6613636,
                "pitch": 38,
                "velocity": 64,
                "duration": 0.1181818,
                "tempo": 120.0
            },
            {
                "start_time": 20.6772727,
                "end_time": 20.7977273,
                "pitch": 38,
                "velocity": 64,
                "duration": 0.1204545,
                "tempo": 120.0
            },
            {
                "start_time": 20.8136364,
                "end_time": 20.9340909,
                "pitch": 38,
                "velocity": 64,
                "duration": 0.1204545,
                "tempo": 120.0
            },
            {
                "start_time": 20.95,
                "end_time": 21.0659091,
                "pitch": 38,
                "velocity": 64,
                "duration": 0.1159091,
                "tempo": 120.0
            },
            {
                "start_time": 21.0840909,
                "end_time": 21.2,
                "pitch": 38,
                "velocity": 64,
                "duration": 0.1159091,
                "tempo": 120.0
            },
            {
                "start_time": 21.2181818,
                "end_time": 21.3340909,
                "pitch": 38,
                "velocity": 64,
                "duration": 0.1159091,
                "tempo": 120.0
            },
            {
                "start_time": 21.35,
                "end_time": 21.4681818,
                "pitch": 38,
                "velocity": 64,
                "duration": 0.1181818,
                "tempo": 120.0
            },
            {
                "start_time": 21.4840909,
                "end_time": 21.6022727,
                "pitch": 38,
                "velocity": 64,
                "duration": 0.1181818,
                "tempo": 120.0
            },
            {
                "start_time": 21.6181818,
                "end_time": 21.7340909,
                "pitch": 38,
                "velocity": 64,
                "duration": 0.1159091,
                "tempo": 120.0
            },
            {
                "start_time": 21.7522727,
                "end_time": 21.8681818,
                "pitch": 36,
                "velocity": 64,
                "duration": 0.1159091,
                "tempo": 120.0
            },
            {
                "start_time": 21.8863636,
                "end_time": 22.0022727,
                "pitch": 36,
                "velocity": 64,
                "duration": 0.1159091,
                "tempo": 120.0
            },
            {
                "start_time": 22.0181818,
                "end_time": 22.1386364,
                "pitch": 36,
                "velocity": 64,
                "duration": 0.1204545,
                "tempo": 120.0
            },
            {
                "start_time": 22.1545455,
                "end_time": 22.2727273,
                "pitch": 36,
                "velocity": 64,
                "duration": 0.1181818,
                "tempo": 120.0
            },
            {
                "start_time": 22.2909091,
                "end_time": 22.4090909,
                "pitch": 36,
                "velocity": 64,
                "duration": 0.1181818,
                "tempo": 120.0
            },
            {
                "start_time": 22.4272727,
                "end_time": 22.5454545,
                "pitch": 36,
                "velocity": 64,
                "duration": 0.1181818,
                "tempo": 120.0
            },
            {
                "start_time": 22.5636364,
                "end_time": 22.6795455,
                "pitch": 36,
                "velocity": 64,
                "duration": 0.1159091,
                "tempo": 120.0
            },
            {
                "start_time": 22.6954545,
                "end_time": 22.8136364,
                "pitch": 36,
                "velocity": 64,
                "duration": 0.1181818,
                "tempo": 120.0
            },
            {
                "start_time": 22.8295455,
                "end_time": 22.9477273,
                "pitch": 36,
                "velocity": 64,
                "duration": 0.1181818,
                "tempo": 120.0
            },
            {
                "start_time": 22.9636364,
                "end_time": 23.0795455,
                "pitch": 36,
                "velocity": 64,
                "duration": 0.1159091,
                "tempo": 120.0
            },
            {
                "start_time": 23.0977273,
                "end_time": 23.2136364,
                "pitch": 36,
                "velocity": 64,
                "duration": 0.1159091,
                "tempo": 120.0
            },
            {
                "start_time": 23.2318182,
                "end_time": 23.3477273,
                "pitch": 36,
                "velocity": 64,
                "duration": 0.1159091,
                "tempo": 120.0
            },
            {
                "start_time": 23.3636364,
                "end_time": 23.4818182,
                "pitch": 36,
                "velocity": 64,
                "duration": 0.1181818,
                "tempo": 120.0
            },
            {
                "start_time": 23.4977273,
                "end_time": 23.6159091,
                "pitch": 36,
                "velocity": 64,
                "duration": 0.1181818,
                "tempo": 120.0
            },
            {
                "start_time": 23.6318182,
                "end_time": 23.75,
                "pitch": 36,
                "velocity": 64,
                "duration": 0.1181818,
                "tempo": 120.0
            },
            {
                "start_time": 23.7681818,
                "end_time": 23.8863636,
                "pitch": 36,
                "velocity": 64,
                "duration": 0.1181818,
                "tempo": 120.0
            },
            {
                "start_time": 23.9045455,
                "end_time": 24.0227273,
                "pitch": 34,
                "velocity": 64,
                "duration": 0.1181818,
                "tempo": 120.0
            },
            {
                "start_time": 24.0386364,
                "end_time": 24.1590909,
                "pitch": 34,
                "velocity": 64,
                "duration": 0.1204545,
                "tempo": 120.0
            },
            {
                "start_time": 24.175,
                "end_time": 24.2931818,
                "pitch": 34,
                "velocity": 64,
                "duration": 0.1181818,
                "tempo": 120.0
            },
            {
                "start_time": 24.3090909,
                "end_time": 24.425,
                "pitch": 34,
                "velocity": 64,
                "duration": 0.1159091,
                "tempo": 120.0
            },
            {
                "start_time": 24.4431818,
                "end_time": 24.5590909,
                "pitch": 34,
                "velocity": 64,
                "duration": 0.1159091,
                "tempo": 120.0
            },
            {
                "start_time": 24.5772727,
                "end_time": 24.6931818,
                "pitch": 34,
                "velocity": 64,
                "duration": 0.1159091,
                "tempo": 120.0
            },
            {
                "start_time": 24.7090909,
                "end_time": 24.8272727,
                "pitch": 34,
                "velocity": 64,
                "duration": 0.1181818,
                "tempo": 120.0
            },
            {
                "start_time": 24.8431818,
                "end_time": 24.9613636,
                "pitch": 34,
                "velocity": 64,
                "duration": 0.1181818,
                "tempo": 120.0
            },
            {
                "start_time": 24.9772727,
                "end_time": 25.0931818,
                "pitch": 34,
                "velocity": 64,
                "duration": 0.1159091,
                "tempo": 120.0
            },
            {
                "start_time": 25.1113636,
                "end_time": 25.2272727,
                "pitch": 34,
                "velocity": 64,
                "duration": 0.1159091,
                "tempo": 120.0
            },
            {
                "start_time": 25.2454545,
                "end_time": 25.3636364,
                "pitch": 34,
                "velocity": 64,
                "duration": 0.1181818,
                "tempo": 120.0
            },
            {
                "start_time": 25.3795455,
                "end_time": 25.5,
                "pitch": 34,
                "velocity": 64,
                "duration": 0.1204545,
                "tempo": 120.0
            },
            {
                "start_time": 25.5159091,
                "end_time": 25.6340909,
                "pitch": 34,
                "velocity": 64,
                "duration": 0.1181818,
                "tempo": 120.0
            },
            {
                "start_time": 25.6522727,
                "end_time": 25.7704545,
                "pitch": 34,
                "velocity": 64,
                "duration": 0.1181818,
                "tempo": 120.0
            },
            {
                "start_time": 25.7886364,
                "end_time": 25.9045455,
                "pitch": 34,
                "velocity": 64,
                "duration": 0.1159091,
                "tempo": 120.0
            },
            {
                "start_time": 25.9227273,
                "end_time": 26.0386364,
                "pitch": 34,
                "velocity": 64,
                "duration": 0.1159091,
                "tempo": 120.0
            },
            {
                "start_time": 26.0545455,
                "end_time": 26.1727273,
                "pitch": 33,
                "velocity": 64,
                "duration": 0.1181818,
                "tempo": 120.0
            },
            {
                "start_time": 26.1886364,
                "end_time": 26.3068182,
                "pitch": 33,
                "velocity": 64,
                "duration": 0.1181818,
                "tempo": 120.0
            },
            {
                "start_time": 26.3227273,
                "end_time": 26.4386364,
                "pitch": 33,
                "velocity": 64,
                "duration": 0.1159091,
                "tempo": 120.0
            },
            {
                "start_time": 26.4568182,
                "end_time": 26.5727273,
                "pitch": 33,
                "velocity": 64,
                "duration": 0.1159091,
                "tempo": 120.0
            },
            {
                "start_time": 26.5909091,
                "end_time": 26.7068182,
                "pitch": 33,
                "velocity": 64,
                "duration": 0.1159091,
                "tempo": 120.0
            },
            {
                "start_time": 26.7227273,
                "end_time": 26.8409091,
                "pitch": 33,
                "velocity": 64,
                "duration": 0.1181818,
                "tempo": 120.0
            },
            {
                "start_time": 26.8568182,
                "end_time": 26.975,
                "pitch": 33,
                "velocity": 64,
                "duration": 0.1181818,
                "tempo": 120.0
            },
            {
                "start_time": 26.9931818,
                "end_time": 27.1113636,
                "pitch": 33,
                "velocity": 64,
                "duration": 0.1181818,
                "tempo": 120.0
            },
            {
                "start_time": 27.1295455,
                "end_time": 27.2477273,
                "pitch": 33,
                "velocity": 64,
                "duration": 0.1181818,
                "tempo": 120.0
            },
            {
                "start_time": 27.2659091,
                "end_time": 27.3840909,
                "pitch": 33,
                "velocity": 64,
                "duration": 0.1181818,
                "tempo": 120.0
            },
            {
                "start_time": 27.4,
                "end_time": 27.5181818,
                "pitch": 33,
                "velocity": 64,
                "duration": 0.1181818,
                "tempo": 120.0
            },
            {
                "start_time": 27.5340909,
                "end_time": 27.6522727,
                "pitch": 33,
                "velocity": 64,
                "duration": 0.1181818,
                "tempo": 120.0
            },
            {
                "start_time": 27.6681818,
                "end_time": 27.7840909,
                "pitch": 33,
                "velocity": 64,
                "duration": 0.1159091,
                "tempo": 120.0
            },
            {
                "start_time": 27.8022727,
                "end_time": 27.9181818,
                "pitch": 33,
                "velocity": 64,
                "duration": 0.1159091,
                "tempo": 120.0
            },
            {
                "start_time": 27.9363636,
                "end_time": 28.0522727,
                "pitch": 34,
                "velocity": 64,
                "duration": 0.1159091,
                "tempo": 120.0
            },
            {
                "start_time": 28.0681818,
                "end_time": 28.1863636,
                "pitch": 37,
                "velocity": 64,
                "duration": 0.1181818,
                "tempo": 120.0
            },
            {
                "start_time": 28.2022727,
                "end_time": 28.3204545,
                "pitch": 38,
                "velocity": 64,
                "duration": 0.1181818,
                "tempo": 120.0
            },
            {
                "start_time": 28.3363636,
                "end_time": 28.4522727,
                "pitch": 38,
                "velocity": 64,
                "duration": 0.1159091,
                "tempo": 120.0
            },
            {
                "start_time": 28.4704545,
                "end_time": 28.5886364,
                "pitch": 38,
                "velocity": 64,
                "duration": 0.1181818,
                "tempo": 120.0
            },
            {
                "start_time": 28.6045455,
                "end_time": 28.725,
                "pitch": 38,
                "velocity": 64,
                "duration": 0.1204545,
                "tempo": 120.0
            },
            {
                "start_time": 28.7409091,
                "end_time": 28.8613636,
                "pitch": 38,
                "velocity": 64,
                "duration": 0.1204545,
                "tempo": 120.0
            },
            {
                "start_time": 28.8772727,
                "end_time": 28.9977273,
                "pitch": 38,
                "velocity": 64,
                "duration": 0.1204545,
                "tempo": 120.0
            },
            {
                "start_time": 29.0136364,
                "end_time": 29.1295455,
                "pitch": 38,
                "velocity": 64,
                "duration": 0.1159091,
                "tempo": 120.0
            },
            {
                "start_time": 29.1477273,
                "end_time": 29.2636364,
                "pitch": 38,
                "velocity": 64,
                "duration": 0.1159091,
                "tempo": 120.0
            },
            {
                "start_time": 29.2818182,
                "end_time": 29.3977273,
                "pitch": 38,
                "velocity": 64,
                "duration": 0.1159091,
                "tempo": 120.0
            },
            {
                "start_time": 29.4136364,
                "end_time": 29.5318182,
                "pitch": 38,
                "velocity": 64,
                "duration": 0.1181818,
                "tempo": 120.0
            },
            {
                "start_time": 29.5477273,
                "end_time": 29.6659091,
                "pitch": 38,
                "velocity": 64,
                "duration": 0.1181818,
                "tempo": 120.0
            },
            {
                "start_time": 29.6818182,
                "end_time": 29.7977273,
                "pitch": 38,
                "velocity": 64,
                "duration": 0.1159091,
                "tempo": 120.0
            },
            {
                "start_time": 29.8159091,
                "end_time": 29.9318182,
                "pitch": 38,
                "velocity": 64,
                "duration": 0.1159091,
                "tempo": 120.0
            },
            {
                "start_time": 29.95,
                "end_time": 30.0659091,
                "pitch": 38,
                "velocity": 64,
                "duration": 0.1159091,
                "tempo": 120.0
            },
            {
                "start_time": 30.0818182,
                "end_time": 30.2022727,
                "pitch": 38,
                "velocity": 64,
                "duration": 0.1204545,
                "tempo": 120.0
            },
            {
                "start_time": 30.2181818,
                "end_time": 30.3363636,
                "pitch": 38,
                "velocity": 64,
                "duration": 0.1181818,
                "tempo": 120.0
            },
            {
                "start_time": 30.3545455,
                "end_time": 30.4727273,
                "pitch": 36,
                "velocity": 64,
                "duration": 0.1181818,
                "tempo": 120.0
            },
            {
                "start_time": 30.4909091,
                "end_time": 30.6090909,
                "pitch": 36,
                "velocity": 64,
                "duration": 0.1181818,
                "tempo": 120.0
            },
            {
                "start_time": 30.6272727,
                "end_time": 30.7431818,
                "pitch": 36,
                "velocity": 64,
                "duration": 0.1159091,
                "tempo": 120.0
            },
            {
                "start_time": 30.7590909,
                "end_time": 30.8772727,
                "pitch": 36,
                "velocity": 64,
                "duration": 0.1181818,
                "tempo": 120.0
            },
            {
                "start_time": 30.8931818,
                "end_time": 31.0113636,
                "pitch": 36,
                "velocity": 64,
                "duration": 0.1181818,
                "tempo": 120.0
            },
            {
                "start_time": 31.0272727,
                "end_time": 31.1431818,
                "pitch": 36,
                "velocity": 64,
                "duration": 0.1159091,
                "tempo": 120.0
            },
            {
                "start_time": 31.1613636,
                "end_time": 31.2772727,
                "pitch": 36,
                "velocity": 64,
                "duration": 0.1159091,
                "tempo": 120.0
            },
            {
                "start_time": 31.2954545,
                "end_time": 31.4113636,
                "pitch": 36,
                "velocity": 64,
                "duration": 0.1159091,
                "tempo": 120.0
            },
            {
                "start_time": 31.4272727,
                "end_time": 31.5454545,
                "pitch": 36,
                "velocity": 64,
                "duration": 0.1181818,
                "tempo": 120.0
            },
            {
                "start_time": 31.5613636,
                "end_time": 31.6795455,
                "pitch": 36,
                "velocity": 64,
                "duration": 0.1181818,
                "tempo": 120.0
            },
            {
                "start_time": 31.6954545,
                "end_time": 31.8136364,
                "pitch": 36,
                "velocity": 64,
                "duration": 0.1181818,
                "tempo": 120.0
            },
            {
                "start_time": 31.8318182,
                "end_time": 31.95,
                "pitch": 36,
                "velocity": 64,
                "duration": 0.1181818,
                "tempo": 120.0
            },
            {
                "start_time": 31.9681818,
                "end_time": 32.0863636,
                "pitch": 36,
                "velocity": 64,
                "duration": 0.1181818,
                "tempo": 120.0
            },
            {
                "start_time": 32.1022727,
                "end_time": 32.2227273,
                "pitch": 36,
                "velocity": 64,
                "duration": 0.1204545,
                "tempo": 120.0
            },
            {
                "start_time": 32.2386364,
                "end_time": 32.3568182,
                "pitch": 36,
                "velocity": 64,
                "duration": 0.1181818,
                "tempo": 120.0
            },
            {
                "start_time": 32.3727273,
                "end_time": 32.4886364,
                "pitch": 36,
                "velocity": 64,
                "duration": 0.1159091,
                "tempo": 120.0
            },
            {
                "start_time": 32.5068182,
                "end_time": 32.6227273,
                "pitch": 34,
                "velocity": 64,
                "duration": 0.1159091,
                "tempo": 120.0
            },
            {
                "start_time": 32.6409091,
                "end_time": 32.7568182,
                "pitch": 34,
                "velocity": 64,
                "duration": 0.1159091,
                "tempo": 120.0
            },
            {
                "start_time": 32.7727273,
                "end_time": 32.8909091,
                "pitch": 34,
                "velocity": 64,
                "duration": 0.1181818,
                "tempo": 120.0
            },
            {
                "start_time": 32.9068182,
                "end_time": 33.025,
                "pitch": 34,
                "velocity": 64,
                "duration": 0.1181818,
                "tempo": 120.0
            },
            {
                "start_time": 33.0409091,
                "end_time": 33.1568182,
                "pitch": 34,
                "velocity": 64,
                "duration": 0.1159091,
                "tempo": 120.0
            },
            {
                "start_time": 33.175,
                "end_time": 33.2909091,
                "pitch": 34,
                "velocity": 64,
                "duration": 0.1159091,
                "tempo": 120.0
            },
            {
                "start_time": 33.3068182,
                "end_time": 33.4272727,
                "pitch": 34,
                "velocity": 64,
                "duration": 0.1204545,
                "tempo": 120.0
            },
            {
                "start_time": 33.4431818,
                "end_time": 33.5636364,
                "pitch": 34,
                "velocity": 64,
                "duration": 0.1204545,
                "tempo": 120.0
            },
            {
                "start_time": 33.5795455,
                "end_time": 33.6977273,
                "pitch": 34,
                "velocity": 64,
                "duration": 0.1181818,
                "tempo": 120.0
            },
            {
                "start_time": 33.7159091,
                "end_time": 33.8340909,
                "pitch": 34,
                "velocity": 64,
                "duration": 0.1181818,
                "tempo": 120.0
            },
            {
                "start_time": 33.8522727,
                "end_time": 33.9681818,
                "pitch": 34,
                "velocity": 64,
                "duration": 0.1159091,
                "tempo": 120.0
            },
            {
                "start_time": 33.9863636,
                "end_time": 34.1022727,
                "pitch": 34,
                "velocity": 64,
                "duration": 0.1159091,
                "tempo": 120.0
            },
            {
                "start_time": 34.1181818,
                "end_time": 34.2363636,
                "pitch": 34,
                "velocity": 64,
                "duration": 0.1181818,
                "tempo": 120.0
            },
            {
                "start_time": 34.2522727,
                "end_time": 34.3704545,
                "pitch": 34,
                "velocity": 64,
                "duration": 0.1181818,
                "tempo": 120.0
            },
            {
                "start_time": 34.3863636,
                "end_time": 34.5022727,
                "pitch": 34,
                "velocity": 64,
                "duration": 0.1159091,
                "tempo": 120.0
            },
            {
                "start_time": 34.5204545,
                "end_time": 34.6363636,
                "pitch": 34,
                "velocity": 64,
                "duration": 0.1159091,
                "tempo": 120.0
            },
            {
                "start_time": 34.6522727,
                "end_time": 34.7704545,
                "pitch": 33,
                "velocity": 64,
                "duration": 0.1181818,
                "tempo": 120.0
            },
            {
                "start_time": 34.7863636,
                "end_time": 34.8954545,
                "pitch": 33,
                "velocity": 64,
                "duration": 0.1090909,
                "tempo": 120.0
            },
            {
                "start_time": 34.9113636,
                "end_time": 35.0136364,
                "pitch": 33,
                "velocity": 64,
                "duration": 0.1022727,
                "tempo": 120.0
            },
            {
                "start_time": 35.0272727,
                "end_time": 35.1295455,
                "pitch": 33,
                "velocity": 64,
                "duration": 0.1022727,
                "tempo": 120.0
            },
            {
                "start_time": 35.1431818,
                "end_time": 35.2454545,
                "pitch": 33,
                "velocity": 64,
                "duration": 0.1022727,
                "tempo": 120.0
            },
            {
                "start_time": 35.2590909,
                "end_time": 35.3681818,
                "pitch": 33,
                "velocity": 64,
                "duration": 0.1090909,
                "tempo": 120.0
            },
            {
                "start_time": 35.3863636,
                "end_time": 35.5,
                "pitch": 33,
                "velocity": 64,
                "duration": 0.1136364,
                "tempo": 120.0
            },
            {
                "start_time": 35.5159091,
                "end_time": 35.6318182,
                "pitch": 33,
                "velocity": 64,
                "duration": 0.1159091,
                "tempo": 120.0
            },
            {
                "start_time": 35.6477273,
                "end_time": 35.7636364,
                "pitch": 33,
                "velocity": 64,
                "duration": 0.1159091,
                "tempo": 120.0
            },
            {
                "start_time": 35.7795455,
                "end_time": 35.8954545,
                "pitch": 33,
                "velocity": 64,
                "duration": 0.1159091,
                "tempo": 120.0
            },
            {
                "start_time": 35.9136364,
                "end_time": 36.0318182,
                "pitch": 33,
                "velocity": 64,
                "duration": 0.1181818,
                "tempo": 120.0
            },
            {
                "start_time": 36.05,
                "end_time": 36.1681818,
                "pitch": 33,
                "velocity": 64,
                "duration": 0.1181818,
                "tempo": 120.0
            },
            {
                "start_time": 36.1863636,
                "end_time": 36.3545455,
                "pitch": 45,
                "velocity": 64,
                "duration": 0.1681818,
                "tempo": 120.0
            },
            {
                "start_time": 36.3727273,
                "end_time": 36.5227273,
                "pitch": 33,
                "velocity": 64,
                "duration": 0.15,
                "tempo": 120.0
            },
            {
                "start_time": 36.5568182,
                "end_time": 36.7068182,
                "pitch": 33,
                "velocity": 64,
                "duration": 0.15,
                "tempo": 120.0
            },
            {
                "start_time": 36.7227273,
                "end_time": 36.8409091,
                "pitch": 34,
                "velocity": 64,
                "duration": 0.1181818,
                "tempo": 120.0
            },
            {
                "start_time": 36.8568182,
                "end_time": 36.9727273,
                "pitch": 34,
                "velocity": 64,
                "duration": 0.1159091,
                "tempo": 120.0
            },
            {
                "start_time": 36.9909091,
                "end_time": 37.1272727,
                "pitch": 34,
                "velocity": 64,
                "duration": 0.1363636,
                "tempo": 120.0
            },
            {
                "start_time": 37.1477273,
                "end_time": 37.2840909,
                "pitch": 34,
                "velocity": 64,
                "duration": 0.1363636,
                "tempo": 120.0
            },
            {
                "start_time": 37.3045455,
                "end_time": 37.4409091,
                "pitch": 34,
                "velocity": 64,
                "duration": 0.1363636,
                "tempo": 120.0
            },
            {
                "start_time": 37.4613636,
                "end_time": 37.5977273,
                "pitch": 34,
                "velocity": 64,
                "duration": 0.1363636,
                "tempo": 120.0
            },
            {
                "start_time": 37.6181818,
                "end_time": 37.7363636,
                "pitch": 34,
                "velocity": 64,
                "duration": 0.1181818,
                "tempo": 120.0
            },
            {
                "start_time": 37.7522727,
                "end_time": 37.8681818,
                "pitch": 34,
                "velocity": 64,
                "duration": 0.1159091,
                "tempo": 120.0
            },
            {
                "start_time": 37.8863636,
                "end_time": 38.0022727,
                "pitch": 34,
                "velocity": 64,
                "duration": 0.1159091,
                "tempo": 120.0
            },
            {
                "start_time": 38.0204545,
                "end_time": 38.1363636,
                "pitch": 34,
                "velocity": 64,
                "duration": 0.1159091,
                "tempo": 120.0
            },
            {
                "start_time": 38.1522727,
                "end_time": 38.2727273,
                "pitch": 34,
                "velocity": 64,
                "duration": 0.1204545,
                "tempo": 120.0
            },
            {
                "start_time": 38.2886364,
                "end_time": 38.4068182,
                "pitch": 34,
                "velocity": 64,
                "duration": 0.1181818,
                "tempo": 120.0
            },
            {
                "start_time": 38.425,
                "end_time": 38.5431818,
                "pitch": 34,
                "velocity": 64,
                "duration": 0.1181818,
                "tempo": 120.0
            },
            {
                "start_time": 38.5613636,
                "end_time": 38.6795455,
                "pitch": 34,
                "velocity": 64,
                "duration": 0.1181818,
                "tempo": 120.0
            },
            {
                "start_time": 38.6977273,
                "end_time": 38.8136364,
                "pitch": 34,
                "velocity": 64,
                "duration": 0.1159091,
                "tempo": 120.0
            },
            {
                "start_time": 38.8295455,
                "end_time": 38.9477273,
                "pitch": 34,
                "velocity": 64,
                "duration": 0.1181818,
                "tempo": 120.0
            },
            {
                "start_time": 38.9636364,
                "end_time": 39.0818182,
                "pitch": 34,
                "velocity": 64,
                "duration": 0.1181818,
                "tempo": 120.0
            },
            {
                "start_time": 39.0977273,
                "end_time": 39.2136364,
                "pitch": 34,
                "velocity": 64,
                "duration": 0.1159091,
                "tempo": 120.0
            },
            {
                "start_time": 39.2318182,
                "end_time": 39.3477273,
                "pitch": 34,
                "velocity": 64,
                "duration": 0.1159091,
                "tempo": 120.0
            },
            {
                "start_time": 39.3659091,
                "end_time": 39.4818182,
                "pitch": 34,
                "velocity": 64,
                "duration": 0.1159091,
                "tempo": 120.0
            },
            {
                "start_time": 39.4977273,
                "end_time": 39.6159091,
                "pitch": 34,
                "velocity": 64,
                "duration": 0.1181818,
                "tempo": 120.0
            },
            {
                "start_time": 39.6318182,
                "end_time": 39.75,
                "pitch": 34,
                "velocity": 64,
                "duration": 0.1181818,
                "tempo": 120.0
            },
            {
                "start_time": 39.7659091,
                "end_time": 39.8840909,
                "pitch": 34,
                "velocity": 64,
                "duration": 0.1181818,
                "tempo": 120.0
            },
            {
                "start_time": 39.9022727,
                "end_time": 40.0204545,
                "pitch": 34,
                "velocity": 64,
                "duration": 0.1181818,
                "tempo": 120.0
            },
            {
                "start_time": 40.0386364,
                "end_time": 40.1568182,
                "pitch": 34,
                "velocity": 64,
                "duration": 0.1181818,
                "tempo": 120.0
            },
            {
                "start_time": 40.1727273,
                "end_time": 40.2931818,
                "pitch": 34,
                "velocity": 64,
                "duration": 0.1204545,
                "tempo": 120.0
            },
            {
                "start_time": 40.3090909,
                "end_time": 40.4272727,
                "pitch": 34,
                "velocity": 64,
                "duration": 0.1181818,
                "tempo": 120.0
            },
            {
                "start_time": 40.4431818,
                "end_time": 40.5590909,
                "pitch": 34,
                "velocity": 64,
                "duration": 0.1159091,
                "tempo": 120.0
            },
            {
                "start_time": 40.5772727,
                "end_time": 40.6931818,
                "pitch": 34,
                "velocity": 64,
                "duration": 0.1159091,
                "tempo": 120.0
            },
            {
                "start_time": 40.7113636,
                "end_time": 40.8272727,
                "pitch": 34,
                "velocity": 64,
                "duration": 0.1159091,
                "tempo": 120.0
            },
            {
                "start_time": 40.8431818,
                "end_time": 40.9613636,
                "pitch": 34,
                "velocity": 64,
                "duration": 0.1181818,
                "tempo": 120.0
            },
            {
                "start_time": 40.9772727,
                "end_time": 41.0954545,
                "pitch": 34,
                "velocity": 64,
                "duration": 0.1181818,
                "tempo": 120.0
            },
            {
                "start_time": 41.1113636,
                "end_time": 41.2272727,
                "pitch": 36,
                "velocity": 64,
                "duration": 0.1159091,
                "tempo": 120.0
            },
            {
                "start_time": 41.2454545,
                "end_time": 41.3613636,
                "pitch": 36,
                "velocity": 64,
                "duration": 0.1159091,
                "tempo": 120.0
            },
            {
                "start_time": 41.3772727,
                "end_time": 41.4977273,
                "pitch": 36,
                "velocity": 64,
                "duration": 0.1204545,
                "tempo": 120.0
            },
            {
                "start_time": 41.5136364,
                "end_time": 41.6340909,
                "pitch": 36,
                "velocity": 64,
                "duration": 0.1204545,
                "tempo": 120.0
            },
            {
                "start_time": 41.65,
                "end_time": 41.7681818,
                "pitch": 36,
                "velocity": 64,
                "duration": 0.1181818,
                "tempo": 120.0
            },
            {
                "start_time": 41.7863636,
                "end_time": 41.9045455,
                "pitch": 36,
                "velocity": 64,
                "duration": 0.1181818,
                "tempo": 120.0
            },
            {
                "start_time": 41.9227273,
                "end_time": 42.0386364,
                "pitch": 36,
                "velocity": 64,
                "duration": 0.1159091,
                "tempo": 120.0
            },
            {
                "start_time": 42.0568182,
                "end_time": 42.1727273,
                "pitch": 36,
                "velocity": 64,
                "duration": 0.1159091,
                "tempo": 120.0
            },
            {
                "start_time": 42.1886364,
                "end_time": 42.3068182,
                "pitch": 36,
                "velocity": 64,
                "duration": 0.1181818,
                "tempo": 120.0
            },
            {
                "start_time": 42.3227273,
                "end_time": 42.4409091,
                "pitch": 36,
                "velocity": 64,
                "duration": 0.1181818,
                "tempo": 120.0
            },
            {
                "start_time": 42.4568182,
                "end_time": 42.5727273,
                "pitch": 36,
                "velocity": 64,
                "duration": 0.1159091,
                "tempo": 120.0
            },
            {
                "start_time": 42.5909091,
                "end_time": 42.7068182,
                "pitch": 36,
                "velocity": 64,
                "duration": 0.1159091,
                "tempo": 120.0
            },
            {
                "start_time": 42.725,
                "end_time": 42.8409091,
                "pitch": 36,
                "velocity": 64,
                "duration": 0.1159091,
                "tempo": 120.0
            },
            {
                "start_time": 42.8568182,
                "end_time": 42.975,
                "pitch": 36,
                "velocity": 64,
                "duration": 0.1181818,
                "tempo": 120.0
            },
            {
                "start_time": 42.9909091,
                "end_time": 43.1090909,
                "pitch": 36,
                "velocity": 64,
                "duration": 0.1181818,
                "tempo": 120.0
            },
            {
                "start_time": 43.1272727,
                "end_time": 43.2454545,
                "pitch": 36,
                "velocity": 64,
                "duration": 0.1181818,
                "tempo": 120.0
            },
            {
                "start_time": 43.2636364,
                "end_time": 43.3818182,
                "pitch": 36,
                "velocity": 64,
                "duration": 0.1181818,
                "tempo": 120.0
            },
            {
                "start_time": 43.4,
                "end_time": 43.5181818,
                "pitch": 36,
                "velocity": 64,
                "duration": 0.1181818,
                "tempo": 120.0
            },
            {
                "start_time": 43.5340909,
                "end_time": 43.6522727,
                "pitch": 36,
                "velocity": 64,
                "duration": 0.1181818,
                "tempo": 120.0
            },
            {
                "start_time": 43.6681818,
                "end_time": 43.7863636,
                "pitch": 36,
                "velocity": 64,
                "duration": 0.1181818,
                "tempo": 120.0
            },
            {
                "start_time": 43.8022727,
                "end_time": 43.9181818,
                "pitch": 36,
                "velocity": 64,
                "duration": 0.1159091,
                "tempo": 120.0
            },
            {
                "start_time": 43.9363636,
                "end_time": 44.0522727,
                "pitch": 36,
                "velocity": 64,
                "duration": 0.1159091,
                "tempo": 120.0
            },
            {
                "start_time": 44.0704545,
                "end_time": 44.1863636,
                "pitch": 36,
                "velocity": 64,
                "duration": 0.1159091,
                "tempo": 120.0
            },
            {
                "start_time": 44.2022727,
                "end_time": 44.3204545,
                "pitch": 36,
                "velocity": 64,
                "duration": 0.1181818,
                "tempo": 120.0
            },
            {
                "start_time": 44.3363636,
                "end_time": 44.4545455,
                "pitch": 36,
                "velocity": 64,
                "duration": 0.1181818,
                "tempo": 120.0
            },
            {
                "start_time": 44.4704545,
                "end_time": 44.5863636,
                "pitch": 36,
                "velocity": 64,
                "duration": 0.1159091,
                "tempo": 120.0
            },
            {
                "start_time": 44.6045455,
                "end_time": 44.7204545,
                "pitch": 36,
                "velocity": 64,
                "duration": 0.1159091,
                "tempo": 120.0
            },
            {
                "start_time": 44.7363636,
                "end_time": 44.8545455,
                "pitch": 36,
                "velocity": 64,
                "duration": 0.1181818,
                "tempo": 120.0
            },
            {
                "start_time": 44.8704545,
                "end_time": 44.9886364,
                "pitch": 36,
                "velocity": 64,
                "duration": 0.1181818,
                "tempo": 120.0
            },
            {
                "start_time": 45.0045455,
                "end_time": 45.1204545,
                "pitch": 36,
                "velocity": 64,
                "duration": 0.1159091,
                "tempo": 120.0
            },
            {
                "start_time": 45.1386364,
                "end_time": 45.2568182,
                "pitch": 36,
                "velocity": 64,
                "duration": 0.1181818,
                "tempo": 120.0
            },
            {
                "start_time": 45.275,
                "end_time": 45.3931818,
                "pitch": 36,
                "velocity": 64,
                "duration": 0.1181818,
                "tempo": 120.0
            },
            {
                "start_time": 45.4090909,
                "end_time": 45.5295455,
                "pitch": 38,
                "velocity": 64,
                "duration": 0.1204545,
                "tempo": 120.0
            },
            {
                "start_time": 45.5454545,
                "end_time": 45.6659091,
                "pitch": 38,
                "velocity": 64,
                "duration": 0.1204545,
                "tempo": 120.0
            },
            {
                "start_time": 45.6818182,
                "end_time": 45.8,
                "pitch": 38,
                "velocity": 64,
                "duration": 0.1181818,
                "tempo": 120.0
            },
            {
                "start_time": 45.8159091,
                "end_time": 45.9318182,
                "pitch": 38,
                "velocity": 64,
                "duration": 0.1159091,
                "tempo": 120.0
            },
            {
                "start_time": 45.95,
                "end_time": 46.0659091,
                "pitch": 38,
                "velocity": 64,
                "duration": 0.1159091,
                "tempo": 120.0
            },
            {
                "start_time": 46.0818182,
                "end_time": 46.2,
                "pitch": 38,
                "velocity": 64,
                "duration": 0.1181818,
                "tempo": 120.0
            },
            {
                "start_time": 46.2159091,
                "end_time": 46.3363636,
                "pitch": 38,
                "velocity": 64,
                "duration": 0.1204545,
                "tempo": 120.0
            },
            {
                "start_time": 46.3522727,
                "end_time": 46.4704545,
                "pitch": 38,
                "velocity": 64,
                "duration": 0.1181818,
                "tempo": 120.0
            },
            {
                "start_time": 46.4886364,
                "end_time": 46.6068182,
                "pitch": 38,
                "velocity": 64,
                "duration": 0.1181818,
                "tempo": 120.0
            },
            {
                "start_time": 46.625,
                "end_time": 46.7431818,
                "pitch": 38,
                "velocity": 64,
                "duration": 0.1181818,
                "tempo": 120.0
            },
            {
                "start_time": 46.7613636,
                "end_time": 46.8772727,
                "pitch": 38,
                "velocity": 64,
                "duration": 0.1159091,
                "tempo": 120.0
            },
            {
                "start_time": 46.8931818,
                "end_time": 47.0113636,
                "pitch": 38,
                "velocity": 64,
                "duration": 0.1181818,
                "tempo": 120.0
            },
            {
                "start_time": 47.0272727,
                "end_time": 47.1454545,
                "pitch": 38,
                "velocity": 64,
                "duration": 0.1181818,
                "tempo": 120.0
            },
            {
                "start_time": 47.1613636,
                "end_time": 47.2772727,
                "pitch": 38,
                "velocity": 64,
                "duration": 0.1159091,
                "tempo": 120.0
            },
            {
                "start_time": 47.2954545,
                "end_time": 47.4113636,
                "pitch": 38,
                "velocity": 64,
                "duration": 0.1159091,
                "tempo": 120.0
            },
            {
                "start_time": 47.4295455,
                "end_time": 47.5454545,
                "pitch": 38,
                "velocity": 64,
                "duration": 0.1159091,
                "tempo": 120.0
            },
            {
                "start_time": 47.5613636,
                "end_time": 47.6795455,
                "pitch": 38,
                "velocity": 64,
                "duration": 0.1181818,
                "tempo": 120.0
            },
            {
                "start_time": 47.6954545,
                "end_time": 47.8136364,
                "pitch": 38,
                "velocity": 64,
                "duration": 0.1181818,
                "tempo": 120.0
            },
            {
                "start_time": 47.8295455,
                "end_time": 47.9477273,
                "pitch": 38,
                "velocity": 64,
                "duration": 0.1181818,
                "tempo": 120.0
            },
            {
                "start_time": 47.9659091,
                "end_time": 48.0840909,
                "pitch": 38,
                "velocity": 64,
                "duration": 0.1181818,
                "tempo": 120.0
            },
            {
                "start_time": 48.1,
                "end_time": 48.2204545,
                "pitch": 38,
                "velocity": 64,
                "duration": 0.1204545,
                "tempo": 120.0
            },
            {
                "start_time": 48.2363636,
                "end_time": 48.3568182,
                "pitch": 38,
                "velocity": 64,
                "duration": 0.1204545,
                "tempo": 120.0
            },
            {
                "start_time": 48.3727273,
                "end_time": 48.4909091,
                "pitch": 38,
                "velocity": 64,
                "duration": 0.1181818,
                "tempo": 120.0
            },
            {
                "start_time": 48.5068182,
                "end_time": 48.6227273,
                "pitch": 38,
                "velocity": 64,
                "duration": 0.1159091,
                "tempo": 120.0
            },
            {
                "start_time": 48.6409091,
                "end_time": 48.7568182,
                "pitch": 38,
                "velocity": 64,
                "duration": 0.1159091,
                "tempo": 120.0
            },
            {
                "start_time": 48.775,
                "end_time": 48.8909091,
                "pitch": 38,
                "velocity": 64,
                "duration": 0.1159091,
                "tempo": 120.0
            },
            {
                "start_time": 48.9068182,
                "end_time": 49.025,
                "pitch": 38,
                "velocity": 64,
                "duration": 0.1181818,
                "tempo": 120.0
            },
            {
                "start_time": 49.0409091,
                "end_time": 49.1590909,
                "pitch": 38,
                "velocity": 64,
                "duration": 0.1181818,
                "tempo": 120.0
            },
            {
                "start_time": 49.175,
                "end_time": 49.2909091,
                "pitch": 38,
                "velocity": 64,
                "duration": 0.1159091,
                "tempo": 120.0
            },
            {
                "start_time": 49.3090909,
                "end_time": 49.425,
                "pitch": 38,
                "velocity": 64,
                "duration": 0.1159091,
                "tempo": 120.0
            },
            {
                "start_time": 49.4409091,
                "end_time": 49.5590909,
                "pitch": 38,
                "velocity": 64,
                "duration": 0.1181818,
                "tempo": 120.0
            },
            {
                "start_time": 49.575,
                "end_time": 49.6931818,
                "pitch": 38,
                "velocity": 64,
                "duration": 0.1181818,
                "tempo": 120.0
            },
            {
                "start_time": 49.7090909,
                "end_time": 50.1840909,
                "pitch": 34,
                "velocity": 64,
                "duration": 0.475,
                "tempo": 120.0
            },
            {
                "start_time": 50.1977273,
                "end_time": 50.3,
                "pitch": 46,
                "velocity": 64,
                "duration": 0.1022727,
                "tempo": 120.0
            },
            {
                "start_time": 50.3159091,
                "end_time": 50.5386364,
                "pitch": 34,
                "velocity": 64,
                "duration": 0.2227273,
                "tempo": 120.0
            },
            {
                "start_time": 50.5522727,
                "end_time": 51.1227273,
                "pitch": 34,
                "velocity": 64,
                "duration": 0.5704545,
                "tempo": 120.0
            },
            {
                "start_time": 51.1363636,
                "end_time": 51.2431818,
                "pitch": 46,
                "velocity": 64,
                "duration": 0.1068182,
                "tempo": 120.0
            },
            {
                "start_time": 51.2568182,
                "end_time": 51.3636364,
                "pitch": 34,
                "velocity": 64,
                "duration": 0.1068182,
                "tempo": 120.0
            },
            {
                "start_time": 51.3795455,
                "end_time": 51.6045455,
                "pitch": 34,
                "velocity": 64,
                "duration": 0.225,
                "tempo": 120.0
            },
            {
                "start_time": 51.6204545,
                "end_time": 52.1386364,
                "pitch": 36,
                "velocity": 64,
                "duration": 0.5181818,
                "tempo": 120.0
            },
            {
                "start_time": 52.1545455,
                "end_time": 52.2727273,
                "pitch": 48,
                "velocity": 64,
                "duration": 0.1181818,
                "tempo": 120.0
            },
            {
                "start_time": 52.2909091,
                "end_time": 52.5454545,
                "pitch": 36,
                "velocity": 64,
                "duration": 0.2545455,
                "tempo": 120.0
            },
            {
                "start_time": 52.5636364,
                "end_time": 53.2159091,
                "pitch": 36,
                "velocity": 64,
                "duration": 0.6522727,
                "tempo": 120.0
            },
            {
                "start_time": 53.2340909,
                "end_time": 53.35,
                "pitch": 48,
                "velocity": 64,
                "duration": 0.1159091,
                "tempo": 120.0
            },
            {
                "start_time": 53.3659091,
                "end_time": 53.4840909,
                "pitch": 36,
                "velocity": 64,
                "duration": 0.1181818,
                "tempo": 120.0
            },
            {
                "start_time": 53.5,
                "end_time": 53.6181818,
                "pitch": 36,
                "velocity": 64,
                "duration": 0.1181818,
                "tempo": 120.0
            },
            {
                "start_time": 53.6340909,
                "end_time": 53.75,
                "pitch": 48,
                "velocity": 64,
                "duration": 0.1159091,
                "tempo": 120.0
            },
            {
                "start_time": 53.7681818,
                "end_time": 54.2954545,
                "pitch": 38,
                "velocity": 64,
                "duration": 0.5272727,
                "tempo": 120.0
            },
            {
                "start_time": 54.3113636,
                "end_time": 54.4272727,
                "pitch": 50,
                "velocity": 64,
                "duration": 0.1159091,
                "tempo": 120.0
            },
            {
                "start_time": 54.4454545,
                "end_time": 54.6954545,
                "pitch": 38,
                "velocity": 64,
                "duration": 0.25,
                "tempo": 120.0
            },
            {
                "start_time": 54.7113636,
                "end_time": 55.3727273,
                "pitch": 38,
                "velocity": 64,
                "duration": 0.6613636,
                "tempo": 120.0
            },
            {
                "start_time": 55.3886364,
                "end_time": 55.5068182,
                "pitch": 50,
                "velocity": 64,
                "duration": 0.1181818,
                "tempo": 120.0
            },
            {
                "start_time": 55.5227273,
                "end_time": 55.6409091,
                "pitch": 38,
                "velocity": 64,
                "duration": 0.1181818,
                "tempo": 120.0
            },
            {
                "start_time": 55.6568182,
                "end_time": 55.9068182,
                "pitch": 38,
                "velocity": 64,
                "duration": 0.25,
                "tempo": 120.0
            },
            {
                "start_time": 55.925,
                "end_time": 56.4409091,
                "pitch": 38,
                "velocity": 64,
                "duration": 0.5159091,
                "tempo": 120.0
            },
            {
                "start_time": 56.4590909,
                "end_time": 56.575,
                "pitch": 50,
                "velocity": 64,
                "duration": 0.1159091,
                "tempo": 120.0
            },
            {
                "start_time": 56.5931818,
                "end_time": 56.8431818,
                "pitch": 38,
                "velocity": 64,
                "duration": 0.25,
                "tempo": 120.0
            },
            {
                "start_time": 56.8590909,
                "end_time": 57.5204545,
                "pitch": 38,
                "velocity": 64,
                "duration": 0.6613636,
                "tempo": 120.0
            },
            {
                "start_time": 57.5363636,
                "end_time": 57.6545455,
                "pitch": 50,
                "velocity": 64,
                "duration": 0.1181818,
                "tempo": 120.0
            },
            {
                "start_time": 57.6704545,
                "end_time": 57.7863636,
                "pitch": 38,
                "velocity": 64,
                "duration": 0.1159091,
                "tempo": 120.0
            },
            {
                "start_time": 57.8045455,
                "end_time": 58.0545455,
                "pitch": 38,
                "velocity": 64,
                "duration": 0.25,
                "tempo": 120.0
            },
            {
                "start_time": 58.0704545,
                "end_time": 58.5886364,
                "pitch": 34,
                "velocity": 64,
                "duration": 0.5181818,
                "tempo": 120.0
            },
            {
                "start_time": 58.6045455,
                "end_time": 58.725,
                "pitch": 46,
                "velocity": 64,
                "duration": 0.1204545,
                "tempo": 120.0
            },
            {
                "start_time": 58.7409091,
                "end_time": 58.9954545,
                "pitch": 34,
                "velocity": 64,
                "duration": 0.2545455,
                "tempo": 120.0
            },
            {
                "start_time": 59.0136364,
                "end_time": 59.6681818,
                "pitch": 34,
                "velocity": 64,
                "duration": 0.6545455,
                "tempo": 120.0
            },
            {
                "start_time": 59.6840909,
                "end_time": 59.8,
                "pitch": 46,
                "velocity": 64,
                "duration": 0.1159091,
                "tempo": 120.0
            },
            {
                "start_time": 59.8181818,
                "end_time": 59.9340909,
                "pitch": 34,
                "velocity": 64,
                "duration": 0.1159091,
                "tempo": 120.0
            },
            {
                "start_time": 59.95,
                "end_time": 60.2022727,
                "pitch": 34,
                "velocity": 64,
                "duration": 0.2522727,
                "tempo": 120.0
            },
            {
                "start_time": 60.2181818,
                "end_time": 60.7454545,
                "pitch": 31,
                "velocity": 64,
                "duration": 0.5272727,
                "tempo": 120.0
            },
            {
                "start_time": 60.7613636,
                "end_time": 60.8795455,
                "pitch": 43,
                "velocity": 64,
                "duration": 0.1181818,
                "tempo": 120.0
            },
            {
                "start_time": 60.8954545,
                "end_time": 61.1454545,
                "pitch": 31,
                "velocity": 64,
                "duration": 0.25,
                "tempo": 120.0
            },
            {
                "start_time": 61.1636364,
                "end_time": 61.2795455,
                "pitch": 31,
                "velocity": 64,
                "duration": 0.1159091,
                "tempo": 120.0
            },
            {
                "start_time": 61.2977273,
                "end_time": 61.8136364,
                "pitch": 31,
                "velocity": 64,
                "duration": 0.5159091,
                "tempo": 120.0
            },
            {
                "start_time": 61.8318182,
                "end_time": 61.95,
                "pitch": 43,
                "velocity": 64,
                "duration": 0.1181818,
                "tempo": 120.0
            },
            {
                "start_time": 61.9659091,
                "end_time": 62.0863636,
                "pitch": 31,
                "velocity": 64,
                "duration": 0.1204545,
                "tempo": 120.0
            },
            {
                "start_time": 62.1022727,
                "end_time": 62.2227273,
                "pitch": 31,
                "velocity": 64,
                "duration": 0.1204545,
                "tempo": 120.0
            },
            {
                "start_time": 62.2386364,
                "end_time": 62.3590909,
                "pitch": 43,
                "velocity": 64,
                "duration": 0.1204545,
                "tempo": 120.0
            },
            {
                "start_time": 62.375,
                "end_time": 62.4909091,
                "pitch": 33,
                "velocity": 64,
                "duration": 0.1159091,
                "tempo": 120.0
            },
            {
                "start_time": 62.5090909,
                "end_time": 62.625,
                "pitch": 33,
                "velocity": 64,
                "duration": 0.1159091,
                "tempo": 120.0
            },
            {
                "start_time": 62.6431818,
                "end_time": 62.7590909,
                "pitch": 33,
                "velocity": 64,
                "duration": 0.1159091,
                "tempo": 120.0
            },
            {
                "start_time": 62.775,
                "end_time": 62.8931818,
                "pitch": 33,
                "velocity": 64,
                "duration": 0.1181818,
                "tempo": 120.0
            },
            {
                "start_time": 62.9090909,
                "end_time": 63.0272727,
                "pitch": 33,
                "velocity": 64,
                "duration": 0.1181818,
                "tempo": 120.0
            },
            {
                "start_time": 63.0431818,
                "end_time": 63.1590909,
                "pitch": 33,
                "velocity": 64,
                "duration": 0.1159091,
                "tempo": 120.0
            },
            {
                "start_time": 63.1772727,
                "end_time": 63.2931818,
                "pitch": 33,
                "velocity": 64,
                "duration": 0.1159091,
                "tempo": 120.0
            },
            {
                "start_time": 63.3090909,
                "end_time": 63.4272727,
                "pitch": 33,
                "velocity": 64,
                "duration": 0.1181818,
                "tempo": 120.0
            },
            {
                "start_time": 63.4431818,
                "end_time": 63.5636364,
                "pitch": 33,
                "velocity": 64,
                "duration": 0.1204545,
                "tempo": 120.0
            },
            {
                "start_time": 63.5795455,
                "end_time": 63.6977273,
                "pitch": 33,
                "velocity": 64,
                "duration": 0.1181818,
                "tempo": 120.0
            },
            {
                "start_time": 63.7159091,
                "end_time": 63.8340909,
                "pitch": 33,
                "velocity": 64,
                "duration": 0.1181818,
                "tempo": 120.0
            },
            {
                "start_time": 63.8522727,
                "end_time": 63.9704545,
                "pitch": 33,
                "velocity": 64,
                "duration": 0.1181818,
                "tempo": 120.0
            },
            {
                "start_time": 63.9886364,
                "end_time": 64.1045455,
                "pitch": 33,
                "velocity": 64,
                "duration": 0.1159091,
                "tempo": 120.0
            },
            {
                "start_time": 64.1204545,
                "end_time": 64.2386364,
                "pitch": 33,
                "velocity": 64,
                "duration": 0.1181818,
                "tempo": 120.0
            },
            {
                "start_time": 64.2545455,
                "end_time": 64.3727273,
                "pitch": 33,
                "velocity": 64,
                "duration": 0.1181818,
                "tempo": 120.0
            },
            {
                "start_time": 64.3886364,
                "end_time": 64.5045455,
                "pitch": 33,
                "velocity": 64,
                "duration": 0.1159091,
                "tempo": 120.0
            },
            {
                "start_time": 64.5227273,
                "end_time": 64.6409091,
                "pitch": 33,
                "velocity": 64,
                "duration": 0.1181818,
                "tempo": 120.0
            },
            {
                "start_time": 64.6590909,
                "end_time": 64.7772727,
                "pitch": 33,
                "velocity": 64,
                "duration": 0.1181818,
                "tempo": 120.0
            },
            {
                "start_time": 64.7931818,
                "end_time": 64.9136364,
                "pitch": 33,
                "velocity": 64,
                "duration": 0.1204545,
                "tempo": 120.0
            },
            {
                "start_time": 64.9295455,
                "end_time": 65.05,
                "pitch": 33,
                "velocity": 64,
                "duration": 0.1204545,
                "tempo": 120.0
            },
            {
                "start_time": 65.0659091,
                "end_time": 65.1818182,
                "pitch": 33,
                "velocity": 64,
                "duration": 0.1159091,
                "tempo": 120.0
            },
            {
                "start_time": 65.2,
                "end_time": 65.3159091,
                "pitch": 33,
                "velocity": 64,
                "duration": 0.1159091,
                "tempo": 120.0
            },
            {
                "start_time": 65.3340909,
                "end_time": 65.45,
                "pitch": 33,
                "velocity": 64,
                "duration": 0.1159091,
                "tempo": 120.0
            },
            {
                "start_time": 65.4659091,
                "end_time": 65.5840909,
                "pitch": 33,
                "velocity": 64,
                "duration": 0.1181818,
                "tempo": 120.0
            },
            {
                "start_time": 65.6,
                "end_time": 65.7181818,
                "pitch": 33,
                "velocity": 64,
                "duration": 0.1181818,
                "tempo": 120.0
            },
            {
                "start_time": 65.7340909,
                "end_time": 65.8818182,
                "pitch": 33,
                "velocity": 64,
                "duration": 0.1477273,
                "tempo": 120.0
            },
            {
                "start_time": 65.9022727,
                "end_time": 66.05,
                "pitch": 33,
                "velocity": 64,
                "duration": 0.1477273,
                "tempo": 120.0
            },
            {
                "start_time": 66.0704545,
                "end_time": 66.2159091,
                "pitch": 33,
                "velocity": 64,
                "duration": 0.1454545,
                "tempo": 120.0
            },
            {
                "start_time": 66.2386364,
                "end_time": 66.3840909,
                "pitch": 33,
                "velocity": 64,
                "duration": 0.1454545,
                "tempo": 120.0
            },
            {
                "start_time": 66.4068182,
                "end_time": 66.5522727,
                "pitch": 33,
                "velocity": 64,
                "duration": 0.1454545,
                "tempo": 120.0
            },
            {
                "start_time": 66.5727273,
                "end_time": 66.7227273,
                "pitch": 33,
                "velocity": 64,
                "duration": 0.15,
                "tempo": 120.0
            },
            {
                "start_time": 66.7431818,
                "end_time": 66.8909091,
                "pitch": 33,
                "velocity": 64,
                "duration": 0.1477273,
                "tempo": 120.0
            }
        ],
        "Harpsichord": [
            {
                "start_time": 0.0113636,
                "end_time": 0.0954545,
                "pitch": 52,
                "velocity": 51,
                "duration": 0.0840909,
                "tempo": 120.0
            },
            {
                "start_time": 0.1113636,
                "end_time": 0.2295455,
                "pitch": 55,
                "velocity": 51,
                "duration": 0.1181818,
                "tempo": 120.0
            },
            {
                "start_time": 0.2454545,
                "end_time": 0.3613636,
                "pitch": 59,
                "velocity": 51,
                "duration": 0.1159091,
                "tempo": 120.0
            },
            {
                "start_time": 0.3795455,
                "end_time": 0.4954545,
                "pitch": 64,
                "velocity": 51,
                "duration": 0.1159091,
                "tempo": 120.0
            },
            {
                "start_time": 0.5113636,
                "end_time": 0.6227273,
                "pitch": 52,
                "velocity": 51,
                "duration": 0.1113636,
                "tempo": 120.0
            },
            {
                "start_time": 0.6386364,
                "end_time": 0.7477273,
                "pitch": 55,
                "velocity": 51,
                "duration": 0.1090909,
                "tempo": 120.0
            },
            {
                "start_time": 0.7636364,
                "end_time": 0.875,
                "pitch": 59,
                "velocity": 51,
                "duration": 0.1113636,
                "tempo": 120.0
            },
            {
                "start_time": 0.8909091,
                "end_time": 1.0,
                "pitch": 64,
                "velocity": 51,
                "duration": 0.1090909,
                "tempo": 120.0
            },
            {
                "start_time": 1.0159091,
                "end_time": 1.1318182,
                "pitch": 52,
                "velocity": 51,
                "duration": 0.1159091,
                "tempo": 120.0
            },
            {
                "start_time": 1.15,
                "end_time": 1.2659091,
                "pitch": 55,
                "velocity": 51,
                "duration": 0.1159091,
                "tempo": 120.0
            },
            {
                "start_time": 1.2818182,
                "end_time": 1.4,
                "pitch": 59,
                "velocity": 51,
                "duration": 0.1181818,
                "tempo": 120.0
            },
            {
                "start_time": 1.4159091,
                "end_time": 1.5340909,
                "pitch": 64,
                "velocity": 51,
                "duration": 0.1181818,
                "tempo": 120.0
            },
            {
                "start_time": 1.55,
                "end_time": 1.6659091,
                "pitch": 52,
                "velocity": 51,
                "duration": 0.1159091,
                "tempo": 120.0
            },
            {
                "start_time": 1.6840909,
                "end_time": 1.8,
                "pitch": 55,
                "velocity": 51,
                "duration": 0.1159091,
                "tempo": 120.0
            },
            {
                "start_time": 1.8181818,
                "end_time": 1.9340909,
                "pitch": 59,
                "velocity": 51,
                "duration": 0.1159091,
                "tempo": 120.0
            },
            {
                "start_time": 1.95,
                "end_time": 2.0681818,
                "pitch": 64,
                "velocity": 51,
                "duration": 0.1181818,
                "tempo": 120.0
            },
            {
                "start_time": 2.0840909,
                "end_time": 2.2045455,
                "pitch": 52,
                "velocity": 51,
                "duration": 0.1204545,
                "tempo": 120.0
            },
            {
                "start_time": 2.2204545,
                "end_time": 2.3386364,
                "pitch": 55,
                "velocity": 51,
                "duration": 0.1181818,
                "tempo": 120.0
            },
            {
                "start_time": 2.3568182,
                "end_time": 2.475,
                "pitch": 59,
                "velocity": 51,
                "duration": 0.1181818,
                "tempo": 120.0
            },
            {
                "start_time": 2.4931818,
                "end_time": 2.6113636,
                "pitch": 64,
                "velocity": 51,
                "duration": 0.1181818,
                "tempo": 120.0
            },
            {
                "start_time": 2.6295455,
                "end_time": 2.7454545,
                "pitch": 52,
                "velocity": 51,
                "duration": 0.1159091,
                "tempo": 120.0
            },
            {
                "start_time": 2.7613636,
                "end_time": 2.8795455,
                "pitch": 55,
                "velocity": 51,
                "duration": 0.1181818,
                "tempo": 120.0
            },
            {
                "start_time": 2.8954545,
                "end_time": 3.0136364,
                "pitch": 59,
                "velocity": 51,
                "duration": 0.1181818,
                "tempo": 120.0
            },
            {
                "start_time": 3.0295455,
                "end_time": 3.1454545,
                "pitch": 64,
                "velocity": 51,
                "duration": 0.1159091,
                "tempo": 120.0
            },
            {
                "start_time": 3.1636364,
                "end_time": 3.2795455,
                "pitch": 52,
                "velocity": 51,
                "duration": 0.1159091,
                "tempo": 120.0
            },
            {
                "start_time": 3.2954545,
                "end_time": 3.4136364,
                "pitch": 55,
                "velocity": 51,
                "duration": 0.1181818,
                "tempo": 120.0
            },
            {
                "start_time": 3.4295455,
                "end_time": 3.5477273,
                "pitch": 59,
                "velocity": 51,
                "duration": 0.1181818,
                "tempo": 120.0
            },
            {
                "start_time": 3.5636364,
                "end_time": 3.6795455,
                "pitch": 64,
                "velocity": 51,
                "duration": 0.1159091,
                "tempo": 120.0
            },
            {
                "start_time": 3.6977273,
                "end_time": 3.8159091,
                "pitch": 52,
                "velocity": 51,
                "duration": 0.1181818,
                "tempo": 120.0
            },
            {
                "start_time": 3.8340909,
                "end_time": 3.9522727,
                "pitch": 55,
                "velocity": 51,
                "duration": 0.1181818,
                "tempo": 120.0
            },
            {
                "start_time": 3.9681818,
                "end_time": 4.0886364,
                "pitch": 59,
                "velocity": 51,
                "duration": 0.1204545,
                "tempo": 120.0
            },
            {
                "start_time": 4.1045455,
                "end_time": 4.225,
                "pitch": 64,
                "velocity": 51,
                "duration": 0.1204545,
                "tempo": 120.0
            },
            {
                "start_time": 4.2409091,
                "end_time": 4.3590909,
                "pitch": 52,
                "velocity": 51,
                "duration": 0.1181818,
                "tempo": 120.0
            },
            {
                "start_time": 4.375,
                "end_time": 4.4909091,
                "pitch": 55,
                "velocity": 51,
                "duration": 0.1159091,
                "tempo": 120.0
            },
            {
                "start_time": 4.5090909,
                "end_time": 4.625,
                "pitch": 59,
                "velocity": 51,
                "duration": 0.1159091,
                "tempo": 120.0
            },
            {
                "start_time": 4.6409091,
                "end_time": 4.7590909,
                "pitch": 64,
                "velocity": 51,
                "duration": 0.1181818,
                "tempo": 120.0
            },
            {
                "start_time": 4.775,
                "end_time": 4.8931818,
                "pitch": 52,
                "velocity": 51,
                "duration": 0.1181818,
                "tempo": 120.0
            },
            {
                "start_time": 4.9090909,
                "end_time": 5.025,
                "pitch": 55,
                "velocity": 51,
                "duration": 0.1159091,
                "tempo": 120.0
            },
            {
                "start_time": 5.0431818,
                "end_time": 5.1590909,
                "pitch": 59,
                "velocity": 51,
                "duration": 0.1159091,
                "tempo": 120.0
            },
            {
                "start_time": 5.1772727,
                "end_time": 5.2931818,
                "pitch": 64,
                "velocity": 51,
                "duration": 0.1159091,
                "tempo": 120.0
            },
            {
                "start_time": 5.3090909,
                "end_time": 5.4295455,
                "pitch": 52,
                "velocity": 51,
                "duration": 0.1204545,
                "tempo": 120.0
            },
            {
                "start_time": 5.4454545,
                "end_time": 5.5659091,
                "pitch": 55,
                "velocity": 51,
                "duration": 0.1204545,
                "tempo": 120.0
            },
            {
                "start_time": 5.5818182,
                "end_time": 5.7,
                "pitch": 59,
                "velocity": 51,
                "duration": 0.1181818,
                "tempo": 120.0
            },
            {
                "start_time": 5.7181818,
                "end_time": 5.8363636,
                "pitch": 64,
                "velocity": 51,
                "duration": 0.1181818,
                "tempo": 120.0
            },
            {
                "start_time": 5.8545455,
                "end_time": 5.9704545,
                "pitch": 52,
                "velocity": 51,
                "duration": 0.1159091,
                "tempo": 120.0
            },
            {
                "start_time": 5.9863636,
                "end_time": 6.1045455,
                "pitch": 55,
                "velocity": 51,
                "duration": 0.1181818,
                "tempo": 120.0
            },
            {
                "start_time": 6.1204545,
                "end_time": 6.2386364,
                "pitch": 59,
                "velocity": 51,
                "duration": 0.1181818,
                "tempo": 120.0
            },
            {
                "start_time": 6.2545455,
                "end_time": 6.3704545,
                "pitch": 64,
                "velocity": 51,
                "duration": 0.1159091,
                "tempo": 120.0
            },
            {
                "start_time": 6.3886364,
                "end_time": 6.5045455,
                "pitch": 52,
                "velocity": 51,
                "duration": 0.1159091,
                "tempo": 120.0
            },
            {
                "start_time": 6.5227273,
                "end_time": 6.6386364,
                "pitch": 55,
                "velocity": 51,
                "duration": 0.1159091,
                "tempo": 120.0
            },
            {
                "start_time": 6.6545455,
                "end_time": 6.7727273,
                "pitch": 59,
                "velocity": 51,
                "duration": 0.1181818,
                "tempo": 120.0
            },
            {
                "start_time": 6.7886364,
                "end_time": 6.9068182,
                "pitch": 64,
                "velocity": 51,
                "duration": 0.1181818,
                "tempo": 120.0
            },
            {
                "start_time": 6.9227273,
                "end_time": 7.0409091,
                "pitch": 52,
                "velocity": 51,
                "duration": 0.1181818,
                "tempo": 120.0
            },
            {
                "start_time": 7.0590909,
                "end_time": 7.1772727,
                "pitch": 55,
                "velocity": 51,
                "duration": 0.1181818,
                "tempo": 120.0
            },
            {
                "start_time": 7.1954545,
                "end_time": 7.3136364,
                "pitch": 59,
                "velocity": 51,
                "duration": 0.1181818,
                "tempo": 120.0
            },
            {
                "start_time": 7.3295455,
                "end_time": 7.45,
                "pitch": 64,
                "velocity": 51,
                "duration": 0.1204545,
                "tempo": 120.0
            },
            {
                "start_time": 7.4659091,
                "end_time": 7.5840909,
                "pitch": 52,
                "velocity": 51,
                "duration": 0.1181818,
                "tempo": 120.0
            },
            {
                "start_time": 7.6,
                "end_time": 7.7181818,
                "pitch": 55,
                "velocity": 51,
                "duration": 0.1181818,
                "tempo": 120.0
            },
            {
                "start_time": 7.7340909,
                "end_time": 7.85,
                "pitch": 59,
                "velocity": 51,
                "duration": 0.1159091,
                "tempo": 120.0
            },
            {
                "start_time": 7.8681818,
                "end_time": 7.9840909,
                "pitch": 64,
                "velocity": 51,
                "duration": 0.1159091,
                "tempo": 120.0
            },
            {
                "start_time": 8.0,
                "end_time": 8.1181818,
                "pitch": 52,
                "velocity": 51,
                "duration": 0.1181818,
                "tempo": 120.0
            },
            {
                "start_time": 8.1340909,
                "end_time": 8.2522727,
                "pitch": 55,
                "velocity": 51,
                "duration": 0.1181818,
                "tempo": 120.0
            },
            {
                "start_time": 8.2681818,
                "end_time": 8.3840909,
                "pitch": 59,
                "velocity": 51,
                "duration": 0.1159091,
                "tempo": 120.0
            },
            {
                "start_time": 8.4022727,
                "end_time": 8.5181818,
                "pitch": 64,
                "velocity": 51,
                "duration": 0.1159091,
                "tempo": 120.0
            },
            {
                "start_time": 8.5363636,
                "end_time": 8.6545455,
                "pitch": 52,
                "velocity": 51,
                "duration": 0.1181818,
                "tempo": 120.0
            },
            {
                "start_time": 8.6704545,
                "end_time": 8.7909091,
                "pitch": 55,
                "velocity": 51,
                "duration": 0.1204545,
                "tempo": 120.0
            },
            {
                "start_time": 8.8068182,
                "end_time": 8.9272727,
                "pitch": 59,
                "velocity": 51,
                "duration": 0.1204545,
                "tempo": 120.0
            },
            {
                "start_time": 8.9431818,
                "end_time": 9.0613636,
                "pitch": 64,
                "velocity": 51,
                "duration": 0.1181818,
                "tempo": 120.0
            },
            {
                "start_time": 9.0795455,
                "end_time": 9.1954545,
                "pitch": 52,
                "velocity": 51,
                "duration": 0.1159091,
                "tempo": 120.0
            },
            {
                "start_time": 9.2136364,
                "end_time": 9.3295455,
                "pitch": 55,
                "velocity": 51,
                "duration": 0.1159091,
                "tempo": 120.0
            },
            {
                "start_time": 9.3454545,
                "end_time": 9.4636364,
                "pitch": 59,
                "velocity": 51,
                "duration": 0.1181818,
                "tempo": 120.0
            },
            {
                "start_time": 9.4795455,
                "end_time": 9.5977273,
                "pitch": 64,
                "velocity": 51,
                "duration": 0.1181818,
                "tempo": 120.0
            },
            {
                "start_time": 9.6136364,
                "end_time": 9.7295455,
                "pitch": 52,
                "velocity": 51,
                "duration": 0.1159091,
                "tempo": 120.0
            },
            {
                "start_time": 9.7477273,
                "end_time": 9.8954545,
                "pitch": 55,
                "velocity": 51,
                "duration": 0.1477273,
                "tempo": 120.0
            },
            {
                "start_time": 9.9159091,
                "end_time": 10.0636364,
                "pitch": 59,
                "velocity": 51,
                "duration": 0.1477273,
                "tempo": 120.0
            },
            {
                "start_time": 10.0863636,
                "end_time": 10.2340909,
                "pitch": 64,
                "velocity": 51,
                "duration": 0.1477273,
                "tempo": 120.0
            },
            {
                "start_time": 10.2545455,
                "end_time": 10.4045455,
                "pitch": 52,
                "velocity": 51,
                "duration": 0.15,
                "tempo": 120.0
            },
            {
                "start_time": 10.425,
                "end_time": 10.5727273,
                "pitch": 55,
                "velocity": 51,
                "duration": 0.1477273,
                "tempo": 120.0
            },
            {
                "start_time": 10.5954545,
                "end_time": 10.7431818,
                "pitch": 59,
                "velocity": 51,
                "duration": 0.1477273,
                "tempo": 120.0
            },
            {
                "start_time": 10.7636364,
                "end_time": 10.9113636,
                "pitch": 64,
                "velocity": 51,
                "duration": 0.1477273,
                "tempo": 120.0
            },
            {
                "start_time": 10.9340909,
                "end_time": 49.6931818,
                "pitch": 62,
                "velocity": 51,
                "duration": 38.7590909,
                "tempo": 120.0
            },
            {
                "start_time": 49.7090909,
                "end_time": 51.6045455,
                "pitch": 69,
                "velocity": 51,
                "duration": 1.8954545,
                "tempo": 120.0
            },
            {
                "start_time": 51.6204545,
                "end_time": 53.75,
                "pitch": 67,
                "velocity": 51,
                "duration": 2.1295455,
                "tempo": 120.0
            },
            {
                "start_time": 53.7681818,
                "end_time": 58.0545455,
                "pitch": 69,
                "velocity": 51,
                "duration": 4.2863636,
                "tempo": 120.0
            },
            {
                "start_time": 58.0704545,
                "end_time": 60.2022727,
                "pitch": 65,
                "velocity": 51,
                "duration": 2.1318182,
                "tempo": 120.0
            },
            {
                "start_time": 60.2181818,
                "end_time": 62.3590909,
                "pitch": 67,
                "velocity": 51,
                "duration": 2.1409091,
                "tempo": 120.0
            },
            {
                "start_time": 62.375,
                "end_time": 64.5045455,
                "pitch": 65,
                "velocity": 51,
                "duration": 2.1295455,
                "tempo": 120.0
            },
            {
                "start_time": 64.5227273,
                "end_time": 66.8909091,
                "pitch": 64,
                "velocity": 51,
                "duration": 2.3681818,
                "tempo": 120.0
            }
        ],
        "Trumpet": [
            {
                "start_time": 19.6045455,
                "end_time": 19.7204545,
                "pitch": 62,
                "velocity": 51,
                "duration": 0.1159091,
                "tempo": 120.0
            },
            {
                "start_time": 19.7386364,
                "end_time": 19.8545455,
                "pitch": 62,
                "velocity": 51,
                "duration": 0.1159091,
                "tempo": 120.0
            },
            {
                "start_time": 19.8727273,
                "end_time": 19.9886364,
                "pitch": 62,
                "velocity": 51,
                "duration": 0.1159091,
                "tempo": 120.0
            },
            {
                "start_time": 20.0045455,
                "end_time": 20.1227273,
                "pitch": 62,
                "velocity": 51,
                "duration": 0.1181818,
                "tempo": 120.0
            },
            {
                "start_time": 20.2727273,
                "end_time": 20.3886364,
                "pitch": 62,
                "velocity": 51,
                "duration": 0.1159091,
                "tempo": 120.0
            },
            {
                "start_time": 20.4068182,
                "end_time": 20.6613636,
                "pitch": 64,
                "velocity": 51,
                "duration": 0.2545455,
                "tempo": 120.0
            },
            {
                "start_time": 20.6772727,
                "end_time": 20.7977273,
                "pitch": 65,
                "velocity": 51,
                "duration": 0.1204545,
                "tempo": 120.0
            },
            {
                "start_time": 20.8136364,
                "end_time": 21.0659091,
                "pitch": 64,
                "velocity": 51,
                "duration": 0.2522727,
                "tempo": 120.0
            },
            {
                "start_time": 21.0840909,
                "end_time": 21.3340909,
                "pitch": 62,
                "velocity": 51,
                "duration": 0.25,
                "tempo": 120.0
            },
            {
                "start_time": 21.35,
                "end_time": 21.7340909,
                "pitch": 60,
                "velocity": 51,
                "duration": 0.3840909,
                "tempo": 120.0
            },
            {
                "start_time": 21.7522727,
                "end_time": 21.8681818,
                "pitch": 62,
                "velocity": 51,
                "duration": 0.1159091,
                "tempo": 120.0
            },
            {
                "start_time": 21.8863636,
                "end_time": 22.0022727,
                "pitch": 62,
                "velocity": 51,
                "duration": 0.1159091,
                "tempo": 120.0
            },
            {
                "start_time": 22.0181818,
                "end_time": 22.1386364,
                "pitch": 62,
                "velocity": 51,
                "duration": 0.1204545,
                "tempo": 120.0
            },
            {
                "start_time": 22.1545455,
                "end_time": 22.2727273,
                "pitch": 62,
                "velocity": 51,
                "duration": 0.1181818,
                "tempo": 120.0
            },
            {
                "start_time": 22.4272727,
                "end_time": 22.5454545,
                "pitch": 62,
                "velocity": 51,
                "duration": 0.1181818,
                "tempo": 120.0
            },
            {
                "start_time": 22.5636364,
                "end_time": 22.8136364,
                "pitch": 64,
                "velocity": 51,
                "duration": 0.25,
                "tempo": 120.0
            },
            {
                "start_time": 22.8295455,
                "end_time": 22.9477273,
                "pitch": 65,
                "velocity": 51,
                "duration": 0.1181818,
                "tempo": 120.0
            },
            {
                "start_time": 22.9636364,
                "end_time": 23.2136364,
                "pitch": 64,
                "velocity": 51,
                "duration": 0.25,
                "tempo": 120.0
            },
            {
                "start_time": 23.2318182,
                "end_time": 23.4818182,
                "pitch": 62,
                "velocity": 51,
                "duration": 0.25,
                "tempo": 120.0
            },
            {
                "start_time": 23.4977273,
                "end_time": 23.8863636,
                "pitch": 60,
                "velocity": 51,
                "duration": 0.3886364,
                "tempo": 120.0
            },
            {
                "start_time": 23.9045455,
                "end_time": 24.0227273,
                "pitch": 62,
                "velocity": 51,
                "duration": 0.1181818,
                "tempo": 120.0
            },
            {
                "start_time": 24.0386364,
                "end_time": 24.1590909,
                "pitch": 62,
                "velocity": 51,
                "duration": 0.1204545,
                "tempo": 120.0
            },
            {
                "start_time": 24.175,
                "end_time": 24.2931818,
                "pitch": 62,
                "velocity": 51,
                "duration": 0.1181818,
                "tempo": 120.0
            },
            {
                "start_time": 24.3090909,
                "end_time": 24.425,
                "pitch": 62,
                "velocity": 51,
                "duration": 0.1159091,
                "tempo": 120.0
            },
            {
                "start_time": 24.5772727,
                "end_time": 24.6931818,
                "pitch": 62,
                "velocity": 51,
                "duration": 0.1159091,
                "tempo": 120.0
            },
            {
                "start_time": 24.7090909,
                "end_time": 24.9613636,
                "pitch": 64,
                "velocity": 51,
                "duration": 0.2522727,
                "tempo": 120.0
            },
            {
                "start_time": 24.9772727,
                "end_time": 25.0931818,
                "pitch": 65,
                "velocity": 51,
                "duration": 0.1159091,
                "tempo": 120.0
            },
            {
                "start_time": 25.1113636,
                "end_time": 25.3636364,
                "pitch": 64,
                "velocity": 51,
                "duration": 0.2522727,
                "tempo": 120.0
            },
            {
                "start_time": 25.3795455,
                "end_time": 25.6340909,
                "pitch": 62,
                "velocity": 51,
                "duration": 0.2545455,
                "tempo": 120.0
            },
            {
                "start_time": 25.6522727,
                "end_time": 26.0386364,
                "pitch": 60,
                "velocity": 51,
                "duration": 0.3863636,
                "tempo": 120.0
            },
            {
                "start_time": 26.0545455,
                "end_time": 26.1727273,
                "pitch": 62,
                "velocity": 51,
                "duration": 0.1181818,
                "tempo": 120.0
            },
            {
                "start_time": 26.1886364,
                "end_time": 26.3068182,
                "pitch": 62,
                "velocity": 51,
                "duration": 0.1181818,
                "tempo": 120.0
            },
            {
                "start_time": 26.3227273,
                "end_time": 26.4386364,
                "pitch": 62,
                "velocity": 51,
                "duration": 0.1159091,
                "tempo": 120.0
            },
            {
                "start_time": 26.4568182,
                "end_time": 26.5727273,
                "pitch": 62,
                "velocity": 51,
                "duration": 0.1159091,
                "tempo": 120.0
            },
            {
                "start_time": 26.7227273,
                "end_time": 26.8409091,
                "pitch": 64,
                "velocity": 51,
                "duration": 0.1181818,
                "tempo": 120.0
            },
            {
                "start_time": 26.8568182,
                "end_time": 26.975,
                "pitch": 65,
                "velocity": 51,
                "duration": 0.1181818,
                "tempo": 120.0
            },
            {
                "start_time": 27.1295455,
                "end_time": 27.2477273,
                "pitch": 60,
                "velocity": 51,
                "duration": 0.1181818,
                "tempo": 120.0
            },
            {
                "start_time": 27.2659091,
                "end_time": 27.3840909,
                "pitch": 60,
                "velocity": 51,
                "duration": 0.1181818,
                "tempo": 120.0
            },
            {
                "start_time": 27.4,
                "end_time": 27.5181818,
                "pitch": 60,
                "velocity": 51,
                "duration": 0.1181818,
                "tempo": 120.0
            },
            {
                "start_time": 27.5340909,
                "end_time": 27.6522727,
                "pitch": 60,
                "velocity": 51,
                "duration": 0.1181818,
                "tempo": 120.0
            },
            {
                "start_time": 27.8022727,
                "end_time": 27.9181818,
                "pitch": 62,
                "velocity": 51,
                "duration": 0.1159091,
                "tempo": 120.0
            },
            {
                "start_time": 27.9363636,
                "end_time": 28.0522727,
                "pitch": 64,
                "velocity": 51,
                "duration": 0.1159091,
                "tempo": 120.0
            },
            {
                "start_time": 28.2022727,
                "end_time": 28.3204545,
                "pitch": 62,
                "velocity": 51,
                "duration": 0.1181818,
                "tempo": 120.0
            },
            {
                "start_time": 28.3363636,
                "end_time": 28.4522727,
                "pitch": 62,
                "velocity": 51,
                "duration": 0.1159091,
                "tempo": 120.0
            },
            {
                "start_time": 28.4704545,
                "end_time": 28.5886364,
                "pitch": 62,
                "velocity": 51,
                "duration": 0.1181818,
                "tempo": 120.0
            },
            {
                "start_time": 28.6045455,
                "end_time": 28.725,
                "pitch": 62,
                "velocity": 51,
                "duration": 0.1204545,
                "tempo": 120.0
            },
            {
                "start_time": 28.8772727,
                "end_time": 28.9977273,
                "pitch": 62,
                "velocity": 51,
                "duration": 0.1204545,
                "tempo": 120.0
            },
            {
                "start_time": 29.0136364,
                "end_time": 29.2636364,
                "pitch": 64,
                "velocity": 51,
                "duration": 0.25,
                "tempo": 120.0
            },
            {
                "start_time": 29.2818182,
                "end_time": 29.3977273,
                "pitch": 65,
                "velocity": 51,
                "duration": 0.1159091,
                "tempo": 120.0
            },
            {
                "start_time": 29.4136364,
                "end_time": 29.6659091,
                "pitch": 64,
                "velocity": 51,
                "duration": 0.2522727,
                "tempo": 120.0
            },
            {
                "start_time": 29.6818182,
                "end_time": 29.9318182,
                "pitch": 62,
                "velocity": 51,
                "duration": 0.25,
                "tempo": 120.0
            },
            {
                "start_time": 29.95,
                "end_time": 30.3363636,
                "pitch": 60,
                "velocity": 51,
                "duration": 0.3863636,
                "tempo": 120.0
            },
            {
                "start_time": 30.3545455,
                "end_time": 30.4727273,
                "pitch": 62,
                "velocity": 51,
                "duration": 0.1181818,
                "tempo": 120.0
            },
            {
                "start_time": 30.4909091,
                "end_time": 30.6090909,
                "pitch": 62,
                "velocity": 51,
                "duration": 0.1181818,
                "tempo": 120.0
            },
            {
                "start_time": 30.6272727,
                "end_time": 30.7431818,
                "pitch": 62,
                "velocity": 51,
                "duration": 0.1159091,
                "tempo": 120.0
            },
            {
                "start_time": 30.7590909,
                "end_time": 30.8772727,
                "pitch": 62,
                "velocity": 51,
                "duration": 0.1181818,
                "tempo": 120.0
            },
            {
                "start_time": 31.0272727,
                "end_time": 31.1431818,
                "pitch": 62,
                "velocity": 51,
                "duration": 0.1159091,
                "tempo": 120.0
            },
            {
                "start_time": 31.1613636,
                "end_time": 31.4113636,
                "pitch": 64,
                "velocity": 51,
                "duration": 0.25,
                "tempo": 120.0
            },
            {
                "start_time": 31.4272727,
                "end_time": 31.5454545,
                "pitch": 65,
                "velocity": 51,
                "duration": 0.1181818,
                "tempo": 120.0
            },
            {
                "start_time": 31.5613636,
                "end_time": 31.8136364,
                "pitch": 64,
                "velocity": 51,
                "duration": 0.2522727,
                "tempo": 120.0
            },
            {
                "start_time": 31.8318182,
                "end_time": 32.0863636,
                "pitch": 62,
                "velocity": 51,
                "duration": 0.2545455,
                "tempo": 120.0
            },
            {
                "start_time": 32.1022727,
                "end_time": 32.4886364,
                "pitch": 60,
                "velocity": 51,
                "duration": 0.3863636,
                "tempo": 120.0
            },
            {
                "start_time": 32.5068182,
                "end_time": 32.6227273,
                "pitch": 62,
                "velocity": 51,
                "duration": 0.1159091,
                "tempo": 120.0
            },
            {
                "start_time": 32.6409091,
                "end_time": 32.7568182,
                "pitch": 62,
                "velocity": 51,
                "duration": 0.1159091,
                "tempo": 120.0
            },
            {
                "start_time": 32.7727273,
                "end_time": 32.8909091,
                "pitch": 62,
                "velocity": 51,
                "duration": 0.1181818,
                "tempo": 120.0
            },
            {
                "start_time": 32.9068182,
                "end_time": 33.025,
                "pitch": 62,
                "velocity": 51,
                "duration": 0.1181818,
                "tempo": 120.0
            },
            {
                "start_time": 33.175,
                "end_time": 33.2909091,
                "pitch": 62,
                "velocity": 51,
                "duration": 0.1159091,
                "tempo": 120.0
            },
            {
                "start_time": 33.3068182,
                "end_time": 33.5636364,
                "pitch": 64,
                "velocity": 51,
                "duration": 0.2568182,
                "tempo": 120.0
            },
            {
                "start_time": 33.5795455,
                "end_time": 33.6977273,
                "pitch": 65,
                "velocity": 51,
                "duration": 0.1181818,
                "tempo": 120.0
            },
            {
                "start_time": 33.7159091,
                "end_time": 33.9681818,
                "pitch": 64,
                "velocity": 51,
                "duration": 0.2522727,
                "tempo": 120.0
            },
            {
                "start_time": 33.9863636,
                "end_time": 34.2363636,
                "pitch": 62,
                "velocity": 51,
                "duration": 0.25,
                "tempo": 120.0
            },
            {
                "start_time": 34.2522727,
                "end_time": 34.6363636,
                "pitch": 64,
                "velocity": 51,
                "duration": 0.3840909,
                "tempo": 120.0
            },
            {
                "start_time": 34.6522727,
                "end_time": 34.7704545,
                "pitch": 62,
                "velocity": 51,
                "duration": 0.1181818,
                "tempo": 120.0
            },
            {
                "start_time": 34.7863636,
                "end_time": 34.8954545,
                "pitch": 62,
                "velocity": 51,
                "duration": 0.1090909,
                "tempo": 120.0
            },
            {
                "start_time": 34.9113636,
                "end_time": 35.0136364,
                "pitch": 62,
                "velocity": 51,
                "duration": 0.1022727,
                "tempo": 120.0
            },
            {
                "start_time": 35.0272727,
                "end_time": 35.1295455,
                "pitch": 62,
                "velocity": 51,
                "duration": 0.1022727,
                "tempo": 120.0
            },
            {
                "start_time": 35.2590909,
                "end_time": 35.3681818,
                "pitch": 64,
                "velocity": 51,
                "duration": 0.1090909,
                "tempo": 120.0
            },
            {
                "start_time": 35.3863636,
                "end_time": 35.5,
                "pitch": 65,
                "velocity": 51,
                "duration": 0.1136364,
                "tempo": 120.0
            },
            {
                "start_time": 35.6477273,
                "end_time": 35.7636364,
                "pitch": 60,
                "velocity": 51,
                "duration": 0.1159091,
                "tempo": 120.0
            },
            {
                "start_time": 35.7795455,
                "end_time": 35.8954545,
                "pitch": 60,
                "velocity": 51,
                "duration": 0.1159091,
                "tempo": 120.0
            },
            {
                "start_time": 35.9136364,
                "end_time": 36.0318182,
                "pitch": 60,
                "velocity": 51,
                "duration": 0.1181818,
                "tempo": 120.0
            },
            {
                "start_time": 36.05,
                "end_time": 36.1681818,
                "pitch": 60,
                "velocity": 51,
                "duration": 0.1181818,
                "tempo": 120.0
            },
            {
                "start_time": 36.3204545,
                "end_time": 36.4386364,
                "pitch": 62,
                "velocity": 51,
                "duration": 0.1181818,
                "tempo": 120.0
            },
            {
                "start_time": 36.4568182,
                "end_time": 36.5727273,
                "pitch": 64,
                "velocity": 51,
                "duration": 0.1159091,
                "tempo": 120.0
            },
            {
                "start_time": 45.4090909,
                "end_time": 49.6931818,
                "pitch": 65,
                "velocity": 51,
                "duration": 4.2840909,
                "tempo": 120.0
            },
            {
                "start_time": 49.7090909,
                "end_time": 51.6045455,
                "pitch": 65,
                "velocity": 51,
                "duration": 1.8954545,
                "tempo": 120.0
            },
            {
                "start_time": 51.6204545,
                "end_time": 53.75,
                "pitch": 64,
                "velocity": 51,
                "duration": 2.1295455,
                "tempo": 120.0
            },
            {
                "start_time": 53.7681818,
                "end_time": 58.0545455,
                "pitch": 65,
                "velocity": 51,
                "duration": 4.2863636,
                "tempo": 120.0
            },
            {
                "start_time": 58.0704545,
                "end_time": 60.2022727,
                "pitch": 62,
                "velocity": 51,
                "duration": 2.1318182,
                "tempo": 120.0
            },
            {
                "start_time": 60.2181818,
                "end_time": 62.3590909,
                "pitch": 62,
                "velocity": 51,
                "duration": 2.1409091,
                "tempo": 120.0
            },
            {
                "start_time": 62.375,
                "end_time": 64.5045455,
                "pitch": 62,
                "velocity": 51,
                "duration": 2.1295455,
                "tempo": 120.0
            },
            {
                "start_time": 64.5227273,
                "end_time": 66.8909091,
                "pitch": 61,
                "velocity": 51,
                "duration": 2.3681818,
                "tempo": 120.0
            }
        ]
    }
}