{
    "mood": "angry",
    "instruments": {
        "Trumpet": [
            {
                "start_time": 0.0136364,
                "end_time": 0.0840909,
                "pitch": 66,
                "velocity": 51,
                "duration": 0.0704545,
                "tempo": 120.0
            },
            {
                "start_time": 0.0840909,
                "end_time": 0.2840909,
                "pitch": 63,
                "velocity": 51,
                "duration": 0.2,
                "tempo": 120.0
            },
            {
                "start_time": 0.2840909,
                "end_time": 0.7681818,
                "pitch": 63,
                "velocity": 51,
                "duration": 0.4840909,
                "tempo": 120.0
            },
            {
                "start_time": 0.7681818,
                "end_time": 1.6977273,
                "pitch": 70,
                "velocity": 51,
                "duration": 0.9295455,
                "tempo": 120.0
            },
            {
                "start_time": 1.6977273,
                "end_time": 1.9318182,
                "pitch": 66,
                "velocity": 51,
                "duration": 0.2340909,
                "tempo": 120.0
            },
            {
                "start_time": 1.9318182,
                "end_time": 2.6318182,
                "pitch": 63,
                "velocity": 51,
                "duration": 0.7,
                "tempo": 120.0
            },
            {
                "start_time": 2.6318182,
                "end_time": 3.5613636,
                "pitch": 70,
                "velocity": 51,
                "duration": 0.9295455,
                "tempo": 120.0
            },
            {
                "start_time": 3.5613636,
                "end_time": 3.7977273,
                "pitch": 66,
                "velocity": 51,
                "duration": 0.2363636,
                "tempo": 120.0
            },
            {
                "start_time": 3.7977273,
                "end_time": 5.6545455,
                "pitch": 63,
                "velocity": 51,
                "duration": 1.8568182,
                "tempo": 120.0
            },
            {
                "start_time": 5.6545455,
                "end_time": 7.5159091,
                "pitch": 66,
                "velocity": 51,
                "duration": 1.8613636,
                "tempo": 120.0
            },
            {
                "start_time": 7.5159091,
                "end_time": 13.3181818,
                "pitch": 63,
                "velocity": 51,
                "duration": 5.8022727,
                "tempo": 120.0
            }
        ],
        "Acoustic Bass": [
            {
                "start_time": 0.0,
                "end_time": 0.0704545,
                "pitch": 39,
                "velocity": 80,
                "duration": 0.0704545,
                "tempo": 120.0
            },
            {
                "start_time": 0.0840909,
                "end_time": 0.1704545,
                "pitch": 39,
                "velocity": 80,
                "duration": 0.0863636,
                "tempo": 120.0
            },
            {
                "start_time": 0.1840909,
                "end_time": 0.2840909,
                "pitch": 39,
                "velocity": 80,
                "duration": 0.1,
                "tempo": 120.0
            },
            {
                "start_time": 0.3,
                "end_time": 0.4022727,
                "pitch": 39,
                "velocity": 80,
                "duration": 0.1022727,
                "tempo": 120.0
            },
            {
                "start_time": 0.4181818,
                "end_time": 0.5181818,
                "pitch": 39,
                "velocity": 80,
                "duration": 0.1,
                "tempo": 120.0
            },
            {
                "start_time": 0.5363636,
                "end_time": 0.6363636,
                "pitch": 39,
                "velocity": 80,
                "duration": 0.1,
                "tempo": 120.0
            },
            {
                "start_time": 0.6522727,
                "end_time": 0.75,
                "pitch": 39,
                "velocity": 80,
                "duration": 0.0977273,
                "tempo": 120.0
            },
            {
                "start_time": 0.7681818,
                "end_time": 0.8659091,
                "pitch": 39,
                "velocity": 80,
                "duration": 0.0977273,
                "tempo": 120.0
            },
            {
                "start_time": 0.8818182,
                "end_time": 0.9795455,
                "pitch": 39,
                "velocity": 80,
                "duration": 0.0977273,
                "tempo": 120.0
            },
            {
                "start_time": 0.9954545,
                "end_time": 1.0954545,
                "pitch": 39,
                "velocity": 80,
                "duration": 0.1,
                "tempo": 120.0
            },
            {
                "start_time": 1.1113636,
                "end_time": 1.2113636,
                "pitch": 39,
                "velocity": 80,
                "duration": 0.1,
                "tempo": 120.0
            },
            {
                "start_time": 1.2272727,
                "end_time": 1.3295455,
                "pitch": 39,
                "velocity": 80,
                "duration": 0.1022727,
                "tempo": 120.0
            },
            {
                "start_time": 1.3454545,
                "end_time": 1.4454545,
                "pitch": 39,
                "velocity": 80,
                "duration": 0.1,
                "tempo": 120.0
            },
            {
                "start_time": 1.4636364,
                "end_time": 1.5636364,
                "pitch": 39,
                "velocity": 80,
                "duration": 0.1,
                "tempo": 120.0
            },
            {
                "start_time": 1.5795455,
                "end_time": 1.6795455,
                "pitch": 39,
                "velocity": 80,
                "duration": 0.1,
                "tempo": 120.0
            },
            {
                "start_time": 1.6977273,
                "end_time": 1.7977273,
                "pitch": 39,
                "velocity": 80,
                "duration": 0.1,
                "tempo": 120.0
            },
            {
                "start_time": 1.8136364,
                "end_time": 1.9159091,
                "pitch": 39,
                "velocity": 80,
                "duration": 0.1022727,
                "tempo": 120.0
            },
            {
                "start_time": 1.9318182,
                "end_time": 2.0318182,
                "pitch": 39,
                "velocity": 80,
                "duration": 0.1,
                "tempo": 120.0
            },
            {
                "start_time": 2.0477273,
                "end_time": 2.15,
                "pitch": 39,
                "velocity": 80,
                "duration": 0.1022727,
                "tempo": 120.0
            },
            {
                "start_time": 2.1659091,
                "end_time": 2.2659091,
                "pitch": 39,
                "velocity": 80,
                "duration": 0.1,
                "tempo": 120.0
            },
            {
                "start_time": 2.2840909,
                "end_time": 2.3840909,
                "pitch": 39,
                "velocity": 80,
                "duration": 0.1,
                "tempo": 120.0
            },
            {
                "start_time": 2.4,
                "end_time": 2.5,
                "pitch": 39,
                "velocity": 80,
                "duration": 0.1,
                "tempo": 120.0
            },
            {
                "start_time": 2.5181818,
                "end_time": 2.6159091,
                "pitch": 39,
                "velocity": 80,
                "duration": 0.0977273,
                "tempo": 120.0
            },
            {
                "start_time": 2.6318182,
                "end_time": 2.7295455,
                "pitch": 39,
                "velocity": 80,
                "duration": 0.0977273,
                "tempo": 120.0
            },
            {
                "start_time": 2.7477273,
                "end_time": 2.8454545,
                "pitch": 39,
                "velocity": 80,
                "duration": 0.0977273,
                "tempo": 120.0
            },
            {
                "start_time": 2.8613636,
                "end_time": 2.9590909,
                "pitch": 39,
                "velocity": 80,
                "duration": 0.0977273,
                "tempo": 120.0
            },
            {
                "start_time": 2.975,
                "end_time": 3.0772727,
                "pitch": 39,
                "velocity": 80,
                "duration": 0.1022727,
                "tempo": 120.0
            },
            {
                "start_time": 3.0931818,
                "end_time": 3.1931818,
                "pitch": 39,
                "velocity": 80,
                "duration": 0.1,
                "tempo": 120.0
            },
            {
                "start_time": 3.2113636,
                "end_time": 3.3113636,
                "pitch": 39,
                "velocity": 80,
                "duration": 0.1,
                "tempo": 120.0
            },
            {
                "start_time": 3.3272727,
                "end_time": 3.4272727,
                "pitch": 39,
                "velocity": 80,
                "duration": 0.1,
                "tempo": 120.0
            },
            {
                "start_time": 3.4454545,
                "end_time": 3.5454545,
                "pitch": 39,
                "velocity": 80,
                "duration": 0.1,
                "tempo": 120.0
            },
            {
                "start_time": 3.5613636,
                "end_time": 3.6636364,
                "pitch": 39,
                "velocity": 80,
                "duration": 0.1022727,
                "tempo": 120.0
            },
            {
                "start_time": 3.6795455,
                "end_time": 3.7795455,
                "pitch": 35,
                "velocity": 80,
                "duration": 0.1,
                "tempo": 120.0
            },
            {
                "start_time": 3.7977273,
                "end_time": 3.8977273,
                "pitch": 35,
                "velocity": 80,
                "duration": 0.1,
                "tempo": 120.0
            },
            {
                "start_time": 3.9136364,
                "end_time": 4.0113636,
                "pitch": 35,
                "velocity": 80,
                "duration": 0.0977273,
                "tempo": 120.0
            },
            {
                "start_time": 4.0295455,
                "end_time": 4.1272727,
                "pitch": 35,
                "velocity": 80,
                "duration": 0.0977273,
                "tempo": 120.0
            },
            {
                "start_time": 4.1431818,
                "end_time": 4.2409091,
                "pitch": 35,
                "velocity": 80,
                "duration": 0.0977273,
                "tempo": 120.0
            },
            {
                "start_time": 4.2568182,
                "end_time": 4.3568182,
                "pitch": 35,
                "velocity": 80,
                "duration": 0.1,
                "tempo": 120.0
            },
            {
                "start_time": 4.3727273,
                "end_time": 4.4727273,
                "pitch": 35,
                "velocity": 80,
                "duration": 0.1,
                "tempo": 120.0
            },
            {
                "start_time": 4.4886364,
                "end_time": 4.5909091,
                "pitch": 35,
                "velocity": 80,
                "duration": 0.1022727,
                "tempo": 120.0
            },
            {
                "start_time": 4.6068182,
                "end_time": 4.7068182,
                "pitch": 37,
                "velocity": 80,
                "duration": 0.1,
                "tempo": 120.0
            },
            {
                "start_time": 4.725,
                "end_time": 4.825,
                "pitch": 37,
                "velocity": 80,
                "duration": 0.1,
                "tempo": 120.0
            },
            {
                "start_time": 4.8409091,
                "end_time": 4.9409091,
                "pitch": 37,
                "velocity": 80,
                "duration": 0.1,
                "tempo": 120.0
            },
            {
                "start_time": 4.9590909,
                "end_time": 5.0590909,
                "pitch": 37,
                "velocity": 80,
                "duration": 0.1,
                "tempo": 120.0
            },
            {
                "start_time": 5.075,
                "end_time": 5.1772727,
                "pitch": 37,
                "velocity": 80,
                "duration": 0.1022727,
                "tempo": 120.0
            },
            {
                "start_time": 5.1931818,
                "end_time": 5.2931818,
                "pitch": 37,
                "velocity": 80,
                "duration": 0.1,
                "tempo": 120.0
            },
            {
                "start_time": 5.3090909,
                "end_time": 5.4090909,
                "pitch": 37,
                "velocity": 80,
                "duration": 0.1,
                "tempo": 120.0
            },
            {
                "start_time": 5.425,
                "end_time": 5.5227273,
                "pitch": 37,
                "velocity": 80,
                "duration": 0.0977273,
                "tempo": 120.0
            },
            {
                "start_time": 5.5386364,
                "end_time": 5.6363636,
                "pitch": 39,
                "velocity": 80,
                "duration": 0.0977273,
                "tempo": 120.0
            },
            {
                "start_time": 5.6545455,
                "end_time": 5.7522727,
                "pitch": 39,
                "velocity": 80,
                "duration": 0.0977273,
                "tempo": 120.0
            },
            {
                "start_time": 5.7681818,
                "end_time": 5.8681818,
                "pitch": 39,
                "velocity": 80,
                "duration": 0.1,
                "tempo": 120.0
            },
            {
                "start_time": 5.8863636,
                "end_time": 5.9863636,
                "pitch": 39,
                "velocity": 80,
                "duration": 0.1,
                "tempo": 120.0
            },
            {
                "start_time": 6.0022727,
                "end_time": 6.1022727,
                "pitch": 39,
                "velocity": 80,
                "duration": 0.1,
                "tempo": 120.0
            },
            {
                "start_time": 6.1204545,
                "end_time": 6.2204545,
                "pitch": 39,
                "velocity": 80,
                "duration": 0.1,
                "tempo": 120.0
            },
            {
                "start_time": 6.2363636,
                "end_time": 6.3363636,
                "pitch": 39,
                "velocity": 80,
                "duration": 0.1,
                "tempo": 120.0
            },
            {
                "start_time": 6.3522727,
                "end_time": 6.45,
                "pitch": 39,
                "velocity": 80,
                "duration": 0.0977273,
                "tempo": 120.0
            },
            {
                "start_time": 6.4659091,
                "end_time": 6.5636364,
                "pitch": 39,
                "velocity": 80,
                "duration": 0.0977273,
                "tempo": 120.0
            },
            {
                "start_time": 6.5818182,
                "end_time": 6.6795455,
                "pitch": 39,
                "velocity": 80,
                "duration": 0.0977273,
                "tempo": 120.0
            },
            {
                "start_time": 6.6954545,
                "end_time": 6.7954545,
                "pitch": 39,
                "velocity": 80,
                "duration": 0.1,
                "tempo": 120.0
            },
            {
                "start_time": 6.8136364,
                "end_time": 6.9136364,
                "pitch": 39,
                "velocity": 80,
                "duration": 0.1,
                "tempo": 120.0
            },
            {
                "start_time": 6.9295455,
                "end_time": 7.0295455,
                "pitch": 39,
                "velocity": 80,
                "duration": 0.1,
                "tempo": 120.0
            },
            {
                "start_time": 7.0477273,
                "end_time": 7.1477273,
                "pitch": 39,
                "velocity": 80,
                "duration": 0.1,
                "tempo": 120.0
            },
            {
                "start_time": 7.1636364,
                "end_time": 7.2659091,
                "pitch": 37,
                "velocity": 80,
                "duration": 0.1022727,
                "tempo": 120.0
            },
            {
                "start_time": 7.2818182,
                "end_time": 7.3818182,
                "pitch": 37,
                "velocity": 80,
                "duration": 0.1,
                "tempo": 120.0
            },
            {
                "start_time": 7.4,
                "end_time": 7.5,
                "pitch": 35,
                "velocity": 80,
                "duration": 0.1,
                "tempo": 120.0
            },
            {
                "start_time": 7.5159091,
                "end_time": 7.6159091,
                "pitch": 35,
                "velocity": 80,
                "duration": 0.1,
                "tempo": 120.0
            },
            {
                "start_time": 7.6340909,
                "end_time": 7.7340909,
                "pitch": 35,
                "velocity": 80,
                "duration": 0.1,
                "tempo": 120.0
            },
            {
                "start_time": 7.75,
                "end_time": 7.8522727,
                "pitch": 35,
                "velocity": 80,
                "duration": 0.1022727,
                "tempo": 120.0
            },
            {
                "start_time": 7.8681818,
                "end_time": 7.9681818,
                "pitch": 35,
                "velocity": 80,
                "duration": 0.1,
                "tempo": 120.0
            },
            {
                "start_time": 7.9863636,
                "end_time": 8.0863636,
                "pitch": 35,
                "velocity": 80,
                "duration": 0.1,
                "tempo": 120.0
            },
            {
                "start_time": 8.1022727,
                "end_time": 8.2,
                "pitch": 35,
                "velocity": 80,
                "duration": 0.0977273,
                "tempo": 120.0
            },
            {
                "start_time": 8.2181818,
                "end_time": 8.3159091,
                "pitch": 35,
                "velocity": 80,
                "duration": 0.0977273,
                "tempo": 120.0
            },
            {
                "start_time": 8.3318182,
                "end_time": 8.4295455,
                "pitch": 37,
                "velocity": 80,
                "duration": 0.0977273,
                "tempo": 120.0
            },
            {
                "start_time": 8.4454545,
                "end_time": 8.5454545,
                "pitch": 37,
                "velocity": 80,
                "duration": 0.1,
                "tempo": 120.0
            },
            {
                "start_time": 8.5613636,
                "end_time": 8.6613636,
                "pitch": 37,
                "velocity": 80,
                "duration": 0.1,
                "tempo": 120.0
            },
            {
                "start_time": 8.6772727,
                "end_time": 8.7772727,
                "pitch": 37,
                "velocity": 80,
                "duration": 0.1,
                "tempo": 120.0
            },
            {
                "start_time": 8.7954545,
                "end_time": 8.8954545,
                "pitch": 37,
                "velocity": 80,
                "duration": 0.1,
                "tempo": 120.0
            },
            {
                "start_time": 8.9113636,
                "end_time": 9.0136364,
                "pitch": 37,
                "velocity": 80,
                "duration": 0.1022727,
                "tempo": 120.0
            },
            {
                "start_time": 9.0295455,
                "end_time": 9.1295455,
                "pitch": 37,
                "velocity": 80,
                "duration": 0.1,
                "tempo": 120.0
            },
            {
                "start_time": 9.1477273,
                "end_time": 9.2477273,
                "pitch": 37,
                "velocity": 80,
                "duration": 0.1,
                "tempo": 120.0
            },
            {
                "start_time": 9.2636364,
                "end_time": 9.3636364,
                "pitch": 34,
                "velocity": 80,
                "duration": 0.1,
                "tempo": 120.0
            },
            {
                "start_time": 9.3818182,
                "end_time": 9.4818182,
                "pitch": 34,
                "velocity": 80,
                "duration": 0.1,
                "tempo": 120.0
            },
            {
                "start_time": 9.4977273,
                "end_time": 9.5977273,
                "pitch": 34,
                "velocity": 80,
                "duration": 0.1,
                "tempo": 120.0
            },
            {
                "start_time": 9.6136364,
                "end_time": 9.7113636,
                "pitch": 34,
                "velocity": 80,
                "duration": 0.0977273,
                "tempo": 120.0
            },
            {
                "start_time": 9.7272727,
                "end_time": 9.825,
                "pitch": 34,
                "velocity": 80,
                "duration": 0.0977273,
                "tempo": 120.0
            },
            {
                "start_time": 9.8431818,
                "end_time": 9.9409091,
                "pitch": 34,
                "velocity": 80,
                "duration": 0.0977273,
                "tempo": 120.0
            },
            {
                "start_time": 9.9568182,
                "end_time": 10.0568182,
                "pitch": 34,
                "velocity": 80,
                "duration": 0.1,
                "tempo": 120.0
            },
            {
                "start_time": 10.075,
                "end_time": 10.175,
                "pitch": 34,
                "velocity": 80,
                "duration": 0.1,
                "tempo": 120.0
            },
            {
                "start_time": 10.1909091,
                "end_time": 10.2909091,
                "pitch": 34,
                "velocity": 80,
                "duration": 0.1,
                "tempo": 120.0
            },
            {
                "start_time": 10.3090909,
                "end_time": 10.4090909,
                "pitch": 34,
                "velocity": 80,
                "duration": 0.1,
                "tempo": 120.0
            },
            {
                "start_time": 10.425,
                "end_time": 10.5272727,
                "pitch": 34,
                "velocity": 80,
                "duration": 0.1022727,
                "tempo": 120.0
            },
            {
                "start_time": 10.5431818,
                "end_time": 10.6431818,
                "pitch": 34,
                "velocity": 80,
                "duration": 0.1,
                "tempo": 120.0
            },
            {
                "start_time": 10.6613636,
                "end_time": 10.7613636,
                "pitch": 34,
                "velocity": 80,
                "duration": 0.1,
                "tempo": 120.0
            },
            {
                "start_time": 10.7772727,
                "end_time": 10.8772727,
                "pitch": 34,
                "velocity": 80,
                "duration": 0.1,
                "tempo": 120.0
            },
            {
                "start_time": 10.8954545,
                "end_time": 10.9931818,
                "pitch": 34,
                "velocity": 80,
                "duration": 0.0977273,
                "tempo": 120.0
            },
            {
                "start_time": 11.0090909,
                "end_time": 11.1068182,
                "pitch": 34,
                "velocity": 80,
                "duration": 0.0977273,
                "tempo": 120.0
            },
            {
                "start_time": 11.125,
                "end_time": 11.2227273,
                "pitch": 34,
                "velocity": 80,
                "duration": 0.0977273,
                "tempo": 120.0
            },
            {
                "start_time": 11.2386364,
                "end_time": 11.3363636,
                "pitch": 34,
                "velocity": 80,
                "duration": 0.0977273,
                "tempo": 120.0
            },
            {
                "start_time": 11.3522727,
                "end_time": 11.4545455,
                "pitch": 34,
                "velocity": 80,
                "duration": 0.1022727,
                "tempo": 120.0
            },
            {
                "start_time": 11.4704545,
                "end_time": 11.5704545,
                "pitch": 34,
                "velocity": 80,
                "duration": 0.1,
                "tempo": 120.0
            },
            {
                "start_time": 11.5863636,
                "end_time": 11.6886364,
                "pitch": 34,
                "velocity": 80,
                "duration": 0.1022727,
                "tempo": 120.0
            },
            {
                "start_time": 11.7045455,
                "end_time": 11.8045455,
                "pitch": 34,
                "velocity": 80,
                "duration": 0.1,
                "tempo": 120.0
            },
            {
                "start_time": 11.8227273,
                "end_time": 11.9204545,
                "pitch": 34,
                "velocity": 80,
                "duration": 0.0977273,
                "tempo": 120.0
            },
            {
                "start_time": 11.9363636,
                "end_time": 12.0340909,
                "pitch": 34,
                "velocity": 80,
                "duration": 0.0977273,
                "tempo": 120.0
            },
            {
                "start_time": 12.05,
                "end_time": 12.15,
                "pitch": 34,
                "velocity": 80,
                "duration": 0.1,
                "tempo": 120.0
            },
            {
                "start_time": 12.1659091,
                "end_time": 12.2636364,
                "pitch": 34,
                "velocity": 80,
                "duration": 0.0977273,
                "tempo": 120.0
            },
            {
                "start_time": 12.2795455,
                "end_time": 12.3795455,
                "pitch": 34,
                "velocity": 80,
                "duration": 0.1,
                "tempo": 120.0
            },
            {
                "start_time": 12.3977273,
                "end_time": 12.4977273,
                "pitch": 34,
                "velocity": 80,
                "duration": 0.1,
                "tempo": 120.0
            },
            {
                "start_time": 12.5136364,
                "end_time": 12.6159091,
                "pitch": 34,
                "velocity": 80,
                "duration": 0.1022727,
                "tempo": 120.0
            },
            {
                "start_time": 12.6318182,
                "end_time": 12.7318182,
                "pitch": 34,
                "velocity": 80,
                "duration": 0.1,
                "tempo": 120.0
            },
            {
                "start_time": 12.75,
                "end_time": 12.85,
                "pitch": 34,
                "velocity": 80,
                "duration": 0.1,
                "tempo": 120.0
            },
            {
                "start_time": 12.8659091,
                "end_time": 12.9659091,
                "pitch": 34,
                "velocity": 80,
                "duration": 0.1,
                "tempo": 120.0
            },
            {
                "start_time": 12.9840909,
                "end_time": 13.0840909,
                "pitch": 39,
                "velocity": 80,
                "duration": 0.1,
                "tempo": 120.0
            },
            {
                "start_time": 13.1,
                "end_time": 13.2022727,
                "pitch": 39,
                "velocity": 80,
                "duration": 0.1022727,
                "tempo": 120.0
            },
            {
                "start_time": 13.2181818,
                "end_time": 13.3181818,
                "pitch": 39,
                "velocity": 80,
                "duration": 0.1,
                "tempo": 120.0
            }
        ],
        "Church Organ": [
            {
                "start_time": 0.0136364,
                "end_time": 0.1840909,
                "pitch": 75,
                "velocity": 80,
                "duration": 0.1704545,
                "tempo": 120.0
            },
            {
                "start_time": 0.1840909,
                "end_time": 0.2840909,
                "pitch": 82,
                "velocity": 80,
                "duration": 0.1,
                "tempo": 120.0
            },
            {
                "start_time": 0.2840909,
                "end_time": 0.3,
                "pitch": 82,
                "velocity": 80,
                "duration": 0.0159091,
                "tempo": 120.0
            },
            {
                "start_time": 0.3,
                "end_time": 0.5363636,
                "pitch": 75,
                "velocity": 80,
                "duration": 0.2363636,
                "tempo": 120.0
            },
            {
                "start_time": 0.5363636,
                "end_time": 0.6522727,
                "pitch": 82,
                "velocity": 80,
                "duration": 0.1159091,
                "tempo": 120.0
            },
            {
                "start_time": 0.6522727,
                "end_time": 0.8818182,
                "pitch": 75,
                "velocity": 80,
                "duration": 0.2295455,
                "tempo": 120.0
            },
            {
                "start_time": 0.8818182,
                "end_time": 0.9954545,
                "pitch": 82,
                "velocity": 80,
                "duration": 0.1136364,
                "tempo": 120.0
            },
            {
                "start_time": 0.9954545,
                "end_time": 1.2272727,
                "pitch": 75,
                "velocity": 80,
                "duration": 0.2318182,
                "tempo": 120.0
            },
            {
                "start_time": 1.2272727,
                "end_time": 1.3454545,
                "pitch": 82,
                "velocity": 80,
                "duration": 0.1181818,
                "tempo": 120.0
            },
            {
                "start_time": 1.3454545,
                "end_time": 1.5795455,
                "pitch": 75,
                "velocity": 80,
                "duration": 0.2340909,
                "tempo": 120.0
            },
            {
                "start_time": 1.5795455,
                "end_time": 1.6977273,
                "pitch": 78,
                "velocity": 80,
                "duration": 0.1181818,
                "tempo": 120.0
            },
            {
                "start_time": 1.6977273,
                "end_time": 1.8136364,
                "pitch": 80,
                "velocity": 80,
                "duration": 0.1159091,
                "tempo": 120.0
            },
            {
                "start_time": 1.8136364,
                "end_time": 2.0477273,
                "pitch": 75,
                "velocity": 80,
                "duration": 0.2340909,
                "tempo": 120.0
            },
            {
                "start_time": 2.0477273,
                "end_time": 2.1659091,
                "pitch": 82,
                "velocity": 80,
                "duration": 0.1181818,
                "tempo": 120.0
            },
            {
                "start_time": 2.1659091,
                "end_time": 2.4,
                "pitch": 75,
                "velocity": 80,
                "duration": 0.2340909,
                "tempo": 120.0
            },
            {
                "start_time": 2.4,
                "end_time": 2.5181818,
                "pitch": 82,
                "velocity": 80,
                "duration": 0.1181818,
                "tempo": 120.0
            },
            {
                "start_time": 2.5181818,
                "end_time": 2.7477273,
                "pitch": 75,
                "velocity": 80,
                "duration": 0.2295455,
                "tempo": 120.0
            },
            {
                "start_time": 2.7477273,
                "end_time": 2.8613636,
                "pitch": 82,
                "velocity": 80,
                "duration": 0.1136364,
                "tempo": 120.0
            },
            {
                "start_time": 2.8613636,
                "end_time": 3.0931818,
                "pitch": 75,
                "velocity": 80,
                "duration": 0.2318182,
                "tempo": 120.0
            },
            {
                "start_time": 3.0931818,
                "end_time": 3.2113636,
                "pitch": 82,
                "velocity": 80,
                "duration": 0.1181818,
                "tempo": 120.0
            },
            {
                "start_time": 3.2113636,
                "end_time": 3.4454545,
                "pitch": 75,
                "velocity": 80,
                "duration": 0.2340909,
                "tempo": 120.0
            },
            {
                "start_time": 3.4454545,
                "end_time": 3.5613636,
                "pitch": 78,
                "velocity": 80,
                "duration": 0.1159091,
                "tempo": 120.0
            },
            {
                "start_time": 3.5613636,
                "end_time": 3.6795455,
                "pitch": 80,
                "velocity": 80,
                "duration": 0.1181818,
                "tempo": 120.0
            },
            {
                "start_time": 3.6795455,
                "end_time": 3.9136364,
                "pitch": 66,
                "velocity": 80,
                "duration": 0.2340909,
                "tempo": 120.0
            },
            {
                "start_time": 3.9136364,
                "end_time": 4.1431818,
                "pitch": 78,
                "velocity": 80,
                "duration": 0.2295455,
                "tempo": 120.0
            },
            {
                "start_time": 4.1431818,
                "end_time": 4.2568182,
                "pitch": 66,
                "velocity": 80,
                "duration": 0.1136364,
                "tempo": 120.0
            },
            {
                "start_time": 4.2568182,
                "end_time": 4.4886364,
                "pitch": 78,
                "velocity": 80,
                "duration": 0.2318182,
                "tempo": 120.0
            },
            {
                "start_time": 4.4886364,
                "end_time": 4.6068182,
                "pitch": 66,
                "velocity": 80,
                "duration": 0.1181818,
                "tempo": 120.0
            },
            {
                "start_time": 4.6068182,
                "end_time": 4.8409091,
                "pitch": 68,
                "velocity": 80,
                "duration": 0.2340909,
                "tempo": 120.0
            },
            {
                "start_time": 4.8409091,
                "end_time": 5.075,
                "pitch": 80,
                "velocity": 80,
                "duration": 0.2340909,
                "tempo": 120.0
            },
            {
                "start_time": 5.075,
                "end_time": 5.1931818,
                "pitch": 68,
                "velocity": 80,
                "duration": 0.1181818,
                "tempo": 120.0
            },
            {
                "start_time": 5.1931818,
                "end_time": 5.5386364,
                "pitch": 80,
                "velocity": 80,
                "duration": 0.3454545,
                "tempo": 120.0
            },
            {
                "start_time": 5.5386364,
                "end_time": 5.7681818,
                "pitch": 77,
                "velocity": 80,
                "duration": 0.2295455,
                "tempo": 120.0
            },
            {
                "start_time": 5.7681818,
                "end_time": 5.8863636,
                "pitch": 82,
                "velocity": 80,
                "duration": 0.1181818,
                "tempo": 120.0
            },
            {
                "start_time": 5.8863636,
                "end_time": 6.0022727,
                "pitch": 85,
                "velocity": 80,
                "duration": 0.1159091,
                "tempo": 120.0
            },
            {
                "start_time": 6.0022727,
                "end_time": 6.1204545,
                "pitch": 89,
                "velocity": 80,
                "duration": 0.1181818,
                "tempo": 120.0
            },
            {
                "start_time": 6.1204545,
                "end_time": 6.2363636,
                "pitch": 85,
                "velocity": 80,
                "duration": 0.1159091,
                "tempo": 120.0
            },
            {
                "start_time": 6.2363636,
                "end_time": 6.3522727,
                "pitch": 82,
                "velocity": 80,
                "duration": 0.1159091,
                "tempo": 120.0
            },
            {
                "start_time": 6.3522727,
                "end_time": 6.6954545,
                "pitch": 78,
                "velocity": 80,
                "duration": 0.3431818,
                "tempo": 120.0
            },
            {
                "start_time": 6.6954545,
                "end_time": 6.8136364,
                "pitch": 82,
                "velocity": 80,
                "duration": 0.1181818,
                "tempo": 120.0
            },
            {
                "start_time": 6.8136364,
                "end_time": 6.9295455,
                "pitch": 85,
                "velocity": 80,
                "duration": 0.1159091,
                "tempo": 120.0
            },
            {
                "start_time": 6.9295455,
                "end_time": 7.1636364,
                "pitch": 89,
                "velocity": 80,
                "duration": 0.2340909,
                "tempo": 120.0
            },
            {
                "start_time": 7.1636364,
                "end_time": 7.4,
                "pitch": 92,
                "velocity": 80,
                "duration": 0.2363636,
                "tempo": 120.0
            },
            {
                "start_time": 7.4,
                "end_time": 7.6340909,
                "pitch": 66,
                "velocity": 80,
                "duration": 0.2340909,
                "tempo": 120.0
            },
            {
                "start_time": 7.6340909,
                "end_time": 7.8681818,
                "pitch": 78,
                "velocity": 80,
                "duration": 0.2340909,
                "tempo": 120.0
            },
            {
                "start_time": 7.8681818,
                "end_time": 7.9863636,
                "pitch": 66,
                "velocity": 80,
                "duration": 0.1181818,
                "tempo": 120.0
            },
            {
                "start_time": 7.9863636,
                "end_time": 8.2181818,
                "pitch": 78,
                "velocity": 80,
                "duration": 0.2318182,
                "tempo": 120.0
            },
            {
                "start_time": 8.2181818,
                "end_time": 8.3318182,
                "pitch": 66,
                "velocity": 80,
                "duration": 0.1136364,
                "tempo": 120.0
            },
            {
                "start_time": 8.3318182,
                "end_time": 8.5613636,
                "pitch": 68,
                "velocity": 80,
                "duration": 0.2295455,
                "tempo": 120.0
            },
            {
                "start_time": 8.5613636,
                "end_time": 8.7954545,
                "pitch": 80,
                "velocity": 80,
                "duration": 0.2340909,
                "tempo": 120.0
            },
            {
                "start_time": 8.7954545,
                "end_time": 8.9113636,
                "pitch": 68,
                "velocity": 80,
                "duration": 0.1159091,
                "tempo": 120.0
            },
            {
                "start_time": 8.9113636,
                "end_time": 9.2636364,
                "pitch": 80,
                "velocity": 80,
                "duration": 0.3522727,
                "tempo": 120.0
            },
            {
                "start_time": 9.2636364,
                "end_time": 9.3818182,
                "pitch": 75,
                "velocity": 80,
                "duration": 0.1181818,
                "tempo": 120.0
            },
            {
                "start_time": 9.3818182,
                "end_time": 9.4977273,
                "pitch": 82,
                "velocity": 80,
                "duration": 0.1159091,
                "tempo": 120.0
            },
            {
                "start_time": 9.4977273,
                "end_time": 9.6136364,
                "pitch": 87,
                "velocity": 80,
                "duration": 0.1159091,
                "tempo": 120.0
            },
            {
                "start_time": 9.6136364,
                "end_time": 9.7272727,
                "pitch": 77,
                "velocity": 80,
                "duration": 0.1136364,
                "tempo": 120.0
            },
            {
                "start_time": 9.7272727,
                "end_time": 9.8431818,
                "pitch": 82,
                "velocity": 80,
                "duration": 0.1159091,
                "tempo": 120.0
            },
            {
                "start_time": 9.8431818,
                "end_time": 9.9568182,
                "pitch": 87,
                "velocity": 80,
                "duration": 0.1136364,
                "tempo": 120.0
            },
            {
                "start_time": 9.9568182,
                "end_time": 10.075,
                "pitch": 77,
                "velocity": 80,
                "duration": 0.1181818,
                "tempo": 120.0
            },
            {
                "start_time": 10.075,
                "end_time": 10.1909091,
                "pitch": 82,
                "velocity": 80,
                "duration": 0.1159091,
                "tempo": 120.0
            },
            {
                "start_time": 10.1909091,
                "end_time": 10.3090909,
                "pitch": 87,
                "velocity": 80,
                "duration": 0.1181818,
                "tempo": 120.0
            },
            {
                "start_time": 10.3090909,
                "end_time": 10.425,
                "pitch": 77,
                "velocity": 80,
                "duration": 0.1159091,
                "tempo": 120.0
            },
            {
                "start_time": 10.425,
                "end_time": 10.5431818,
                "pitch": 82,
                "velocity": 80,
                "duration": 0.1181818,
                "tempo": 120.0
            },
            {
                "start_time": 10.5431818,
                "end_time": 10.6613636,
                "pitch": 87,
                "velocity": 80,
                "duration": 0.1181818,
                "tempo": 120.0
            },
            {
                "start_time": 10.6613636,
                "end_time": 10.7772727,
                "pitch": 77,
                "velocity": 80,
                "duration": 0.1159091,
                "tempo": 120.0
            },
            {
                "start_time": 10.7772727,
                "end_time": 10.8954545,
                "pitch": 82,
                "velocity": 80,
                "duration": 0.1181818,
                "tempo": 120.0
            },
            {
                "start_time": 10.8954545,
                "end_time": 11.0090909,
                "pitch": 87,
                "velocity": 80,
                "duration": 0.1136364,
                "tempo": 120.0
            },
            {
                "start_time": 11.0090909,
                "end_time": 11.125,
                "pitch": 82,
                "velocity": 80,
                "duration": 0.1159091,
                "tempo": 120.0
            },
            {
                "start_time": 11.125,
                "end_time": 11.2386364,
                "pitch": 77,
                "velocity": 80,
                "duration": 0.1136364,
                "tempo": 120.0
            },
            {
                "start_time": 11.2386364,
                "end_time": 11.3522727,
                "pitch": 82,
                "velocity": 80,
                "duration": 0.1136364,
                "tempo": 120.0
            },
            {
                "start_time": 11.3522727,
                "end_time": 11.4704545,
                "pitch": 86,
                "velocity": 80,
                "duration": 0.1181818,
                "tempo": 120.0
            },
            {
                "start_time": 11.4704545,
                "end_time": 11.5863636,
                "pitch": 77,
                "velocity": 80,
                "duration": 0.1159091,
                "tempo": 120.0
            },
            {
                "start_time": 11.5863636,
                "end_time": 11.7045455,
                "pitch": 82,
                "velocity": 80,
                "duration": 0.1181818,
                "tempo": 120.0
            },
            {
                "start_time": 11.7045455,
                "end_time": 11.8227273,
                "pitch": 86,
                "velocity": 80,
                "duration": 0.1181818,
                "tempo": 120.0
            },
            {
                "start_time": 11.8227273,
                "end_time": 11.9363636,
                "pitch": 77,
                "velocity": 80,
                "duration": 0.1136364,
                "tempo": 120.0
            },
            {
                "start_time": 11.9363636,
                "end_time": 12.05,
                "pitch": 82,
                "velocity": 80,
                "duration": 0.1136364,
                "tempo": 120.0
            },
            {
                "start_time": 12.05,
                "end_time": 12.1659091,
                "pitch": 70,
                "velocity": 80,
                "duration": 0.1159091,
                "tempo": 120.0
            },
            {
                "start_time": 12.1659091,
                "end_time": 12.2795455,
                "pitch": 74,
                "velocity": 80,
                "duration": 0.1136364,
                "tempo": 120.0
            },
            {
                "start_time": 12.2795455,
                "end_time": 12.3977273,
                "pitch": 77,
                "velocity": 80,
                "duration": 0.1181818,
                "tempo": 120.0
            },
            {
                "start_time": 12.3977273,
                "end_time": 12.5136364,
                "pitch": 70,
                "velocity": 80,
                "duration": 0.1159091,
                "tempo": 120.0
            },
            {
                "start_time": 12.5136364,
                "end_time": 12.6318182,
                "pitch": 74,
                "velocity": 80,
                "duration": 0.1181818,
                "tempo": 120.0
            },
            {
                "start_time": 12.6318182,
                "end_time": 12.75,
                "pitch": 77,
                "velocity": 80,
                "duration": 0.1181818,
                "tempo": 120.0
            },
            {
                "start_time": 12.75,
                "end_time": 12.8659091,
                "pitch": 70,
                "velocity": 80,
                "duration": 0.1159091,
                "tempo": 120.0
            },
            {
                "start_time": 12.8659091,
                "end_time": 13.1,
                "pitch": 74,
                "velocity": 80,
                "duration": 0.2340909,
                "tempo": 120.0
            },
            {
                "start_time": 13.1,
                "end_time": 13.2181818,
                "pitch": 77,
                "velocity": 80,
                "duration": 0.1181818,
                "tempo": 120.0
            },
            {
                "start_time": 13.2181818,
                "end_time": 13.3181818,
                "pitch": 82,
                "velocity": 80,
                "duration": 0.1,
                "tempo": 120.0
            }
        ],
        "Harpsichord": [
            {
                "start_time": 0.0136364,
                "end_time": 0.0704545,
                "pitch": 58,
                "velocity": 51,
                "duration": 0.0568182,
                "tempo": 120.0
            },
            {
                "start_time": 0.0840909,
                "end_time": 0.1704545,
                "pitch": 59,
                "velocity": 51,
                "duration": 0.0863636,
                "tempo": 120.0
            },
            {
                "start_time": 0.1840909,
                "end_time": 0.2840909,
                "pitch": 65,
                "velocity": 51,
                "duration": 0.1,
                "tempo": 120.0
            },
            {
                "start_time": 0.3,
                "end_time": 0.4022727,
                "pitch": 58,
                "velocity": 51,
                "duration": 0.1022727,
                "tempo": 120.0
            },
            {
                "start_time": 0.4181818,
                "end_time": 0.5181818,
                "pitch": 59,
                "velocity": 51,
                "duration": 0.1,
                "tempo": 120.0
            },
            {
                "start_time": 0.5363636,
                "end_time": 0.6363636,
                "pitch": 65,
                "velocity": 51,
                "duration": 0.1,
                "tempo": 120.0
            },
            {
                "start_time": 0.6522727,
                "end_time": 0.75,
                "pitch": 58,
                "velocity": 51,
                "duration": 0.0977273,
                "tempo": 120.0
            },
            {
                "start_time": 0.7681818,
                "end_time": 0.8659091,
                "pitch": 59,
                "velocity": 51,
                "duration": 0.0977273,
                "tempo": 120.0
            },
            {
                "start_time": 0.8818182,
                "end_time": 0.9795455,
                "pitch": 65,
                "velocity": 51,
                "duration": 0.0977273,
                "tempo": 120.0
            },
            {
                "start_time": 0.9954545,
                "end_time": 1.0954545,
                "pitch": 58,
                "velocity": 51,
                "duration": 0.1,
                "tempo": 120.0
            },
            {
                "start_time": 1.1113636,
                "end_time": 1.2113636,
                "pitch": 59,
                "velocity": 51,
                "duration": 0.1,
                "tempo": 120.0
            },
            {
                "start_time": 1.2272727,
                "end_time": 1.3295455,
                "pitch": 65,
                "velocity": 51,
                "duration": 0.1022727,
                "tempo": 120.0
            },
            {
                "start_time": 1.3454545,
                "end_time": 1.4454545,
                "pitch": 58,
                "velocity": 51,
                "duration": 0.1,
                "tempo": 120.0
            },
            {
                "start_time": 1.4636364,
                "end_time": 1.5636364,
                "pitch": 59,
                "velocity": 51,
                "duration": 0.1,
                "tempo": 120.0
            },
            {
                "start_time": 1.5795455,
                "end_time": 1.6795455,
                "pitch": 61,
                "velocity": 51,
                "duration": 0.1,
                "tempo": 120.0
            },
            {
                "start_time": 1.6977273,
                "end_time": 1.7977273,
                "pitch": 63,
                "velocity": 51,
                "duration": 0.1,
                "tempo": 120.0
            },
            {
                "start_time": 1.8136364,
                "end_time": 1.9159091,
                "pitch": 58,
                "velocity": 51,
                "duration": 0.1022727,
                "tempo": 120.0
            },
            {
                "start_time": 1.9318182,
                "end_time": 2.0318182,
                "pitch": 59,
                "velocity": 51,
                "duration": 0.1,
                "tempo": 120.0
            },
            {
                "start_time": 2.0477273,
                "end_time": 2.15,
                "pitch": 65,
                "velocity": 51,
                "duration": 0.1022727,
                "tempo": 120.0
            },
            {
                "start_time": 2.1659091,
                "end_time": 2.2659091,
                "pitch": 58,
                "velocity": 51,
                "duration": 0.1,
                "tempo": 120.0
            },
            {
                "start_time": 2.2840909,
                "end_time": 2.3840909,
                "pitch": 59,
                "velocity": 51,
                "duration": 0.1,
                "tempo": 120.0
            },
            {
                "start_time": 2.4,
                "end_time": 2.5,
                "pitch": 65,
                "velocity": 51,
                "duration": 0.1,
                "tempo": 120.0
            },
            {
                "start_time": 2.5181818,
                "end_time": 2.6159091,
                "pitch": 58,
                "velocity": 51,
                "duration": 0.0977273,
                "tempo": 120.0
            },
            {
                "start_time": 2.6318182,
                "end_time": 2.7295455,
                "pitch": 59,
                "velocity": 51,
                "duration": 0.0977273,
                "tempo": 120.0
            },
            {
                "start_time": 2.7477273,
                "end_time": 2.8454545,
                "pitch": 65,
                "velocity": 51,
                "duration": 0.0977273,
                "tempo": 120.0
            },
            {
                "start_time": 2.8613636,
                "end_time": 2.9590909,
                "pitch": 58,
                "velocity": 51,
                "duration": 0.0977273,
                "tempo": 120.0
            },
            {
                "start_time": 2.975,
                "end_time": 3.0772727,
                "pitch": 59,
                "velocity": 51,
                "duration": 0.1022727,
                "tempo": 120.0
            },
            {
                "start_time": 3.0931818,
                "end_time": 3.1931818,
                "pitch": 65,
                "velocity": 51,
                "duration": 0.1,
                "tempo": 120.0
            },
            {
                "start_time": 3.2113636,
                "end_time": 3.3113636,
                "pitch": 58,
                "velocity": 51,
                "duration": 0.1,
                "tempo": 120.0
            },
            {
                "start_time": 3.3272727,
                "end_time": 3.4272727,
                "pitch": 59,
                "velocity": 51,
                "duration": 0.1,
                "tempo": 120.0
            },
            {
                "start_time": 3.4454545,
                "end_time": 3.5454545,
                "pitch": 61,
                "velocity": 51,
                "duration": 0.1,
                "tempo": 120.0
            },
            {
                "start_time": 3.5613636,
                "end_time": 3.6636364,
                "pitch": 63,
                "velocity": 51,
                "duration": 0.1022727,
                "tempo": 120.0
            },
            {
                "start_time": 3.6795455,
                "end_time": 3.7795455,
                "pitch": 47,
                "velocity": 51,
                "duration": 0.1,
                "tempo": 120.0
            },
            {
                "start_time": 3.7977273,
                "end_time": 3.8977273,
                "pitch": 47,
                "velocity": 51,
                "duration": 0.1,
                "tempo": 120.0
            },
            {
                "start_time": 3.9136364,
                "end_time": 4.1272727,
                "pitch": 59,
                "velocity": 51,
                "duration": 0.2136364,
                "tempo": 120.0
            },
            {
                "start_time": 4.1431818,
                "end_time": 4.2409091,
                "pitch": 47,
                "velocity": 51,
                "duration": 0.0977273,
                "tempo": 120.0
            },
            {
                "start_time": 4.2568182,
                "end_time": 4.5909091,
                "pitch": 58,
                "velocity": 51,
                "duration": 0.3340909,
                "tempo": 120.0
            },
            {
                "start_time": 4.6068182,
                "end_time": 4.7068182,
                "pitch": 49,
                "velocity": 51,
                "duration": 0.1,
                "tempo": 120.0
            },
            {
                "start_time": 4.725,
                "end_time": 4.825,
                "pitch": 49,
                "velocity": 51,
                "duration": 0.1,
                "tempo": 120.0
            },
            {
                "start_time": 4.8409091,
                "end_time": 5.0590909,
                "pitch": 61,
                "velocity": 51,
                "duration": 0.2181818,
                "tempo": 120.0
            },
            {
                "start_time": 5.075,
                "end_time": 5.1772727,
                "pitch": 49,
                "velocity": 51,
                "duration": 0.1022727,
                "tempo": 120.0
            },
            {
                "start_time": 5.1931818,
                "end_time": 5.5227273,
                "pitch": 61,
                "velocity": 51,
                "duration": 0.3295455,
                "tempo": 120.0
            },
            {
                "start_time": 5.5386364,
                "end_time": 5.6363636,
                "pitch": 58,
                "velocity": 51,
                "duration": 0.0977273,
                "tempo": 120.0
            },
            {
                "start_time": 5.6545455,
                "end_time": 5.7522727,
                "pitch": 63,
                "velocity": 51,
                "duration": 0.0977273,
                "tempo": 120.0
            },
            {
                "start_time": 5.7681818,
                "end_time": 5.8681818,
                "pitch": 65,
                "velocity": 51,
                "duration": 0.1,
                "tempo": 120.0
            },
            {
                "start_time": 5.8863636,
                "end_time": 5.9863636,
                "pitch": 66,
                "velocity": 51,
                "duration": 0.1,
                "tempo": 120.0
            },
            {
                "start_time": 6.0022727,
                "end_time": 6.1022727,
                "pitch": 68,
                "velocity": 51,
                "duration": 0.1,
                "tempo": 120.0
            },
            {
                "start_time": 6.1204545,
                "end_time": 6.2204545,
                "pitch": 66,
                "velocity": 51,
                "duration": 0.1,
                "tempo": 120.0
            },
            {
                "start_time": 6.2363636,
                "end_time": 6.3363636,
                "pitch": 65,
                "velocity": 51,
                "duration": 0.1,
                "tempo": 120.0
            },
            {
                "start_time": 6.3522727,
                "end_time": 6.45,
                "pitch": 63,
                "velocity": 51,
                "duration": 0.0977273,
                "tempo": 120.0
            },
            {
                "start_time": 6.4659091,
                "end_time": 6.5636364,
                "pitch": 58,
                "velocity": 51,
                "duration": 0.0977273,
                "tempo": 120.0
            },
            {
                "start_time": 6.5818182,
                "end_time": 6.6795455,
                "pitch": 63,
                "velocity": 51,
                "duration": 0.0977273,
                "tempo": 120.0
            },
            {
                "start_time": 6.6954545,
                "end_time": 6.7954545,
                "pitch": 65,
                "velocity": 51,
                "duration": 0.1,
                "tempo": 120.0
            },
            {
                "start_time": 6.8136364,
                "end_time": 6.9136364,
                "pitch": 66,
                "velocity": 51,
                "duration": 0.1,
                "tempo": 120.0
            },
            {
                "start_time": 6.9295455,
                "end_time": 7.0295455,
                "pitch": 68,
                "velocity": 51,
                "duration": 0.1,
                "tempo": 120.0
            },
            {
                "start_time": 7.0477273,
                "end_time": 7.1477273,
                "pitch": 70,
                "velocity": 51,
                "duration": 0.1,
                "tempo": 120.0
            },
            {
                "start_time": 7.1636364,
                "end_time": 7.2659091,
                "pitch": 70,
                "velocity": 51,
                "duration": 0.1022727,
                "tempo": 120.0
            },
            {
                "start_time": 7.2818182,
                "end_time": 7.3818182,
                "pitch": 73,
                "velocity": 51,
                "duration": 0.1,
                "tempo": 120.0
            },
            {
                "start_time": 7.4,
                "end_time": 7.5,
                "pitch": 47,
                "velocity": 51,
                "duration": 0.1,
                "tempo": 120.0
            },
            {
                "start_time": 7.5159091,
                "end_time": 7.6159091,
                "pitch": 47,
                "velocity": 51,
                "duration": 0.1,
                "tempo": 120.0
            },
            {
                "start_time": 7.6340909,
                "end_time": 7.8522727,
                "pitch": 59,
                "velocity": 51,
                "duration": 0.2181818,
                "tempo": 120.0
            },
            {
                "start_time": 7.8681818,
                "end_time": 7.9681818,
                "pitch": 47,
                "velocity": 51,
                "duration": 0.1,
                "tempo": 120.0
            },
            {
                "start_time": 7.9863636,
                "end_time": 8.3159091,
                "pitch": 58,
                "velocity": 51,
                "duration": 0.3295455,
                "tempo": 120.0
            },
            {
                "start_time": 8.3318182,
                "end_time": 8.4295455,
                "pitch": 49,
                "velocity": 51,
                "duration": 0.0977273,
                "tempo": 120.0
            },
            {
                "start_time": 8.4454545,
                "end_time": 8.5454545,
                "pitch": 49,
                "velocity": 51,
                "duration": 0.1,
                "tempo": 120.0
            },
            {
                "start_time": 8.5613636,
                "end_time": 8.7772727,
                "pitch": 61,
                "velocity": 51,
                "duration": 0.2159091,
                "tempo": 120.0
            },
            {
                "start_time": 8.7954545,
                "end_time": 8.8954545,
                "pitch": 49,
                "velocity": 51,
                "duration": 0.1,
                "tempo": 120.0
            },
            {
                "start_time": 8.9113636,
                "end_time": 9.2477273,
                "pitch": 61,
                "velocity": 51,
                "duration": 0.3363636,
                "tempo": 120.0
            },
            {
                "start_time": 9.2636364,
                "end_time": 9.3636364,
                "pitch": 46,
                "velocity": 51,
                "duration": 0.1,
                "tempo": 120.0
            },
            {
                "start_time": 9.3818182,
                "end_time": 9.4818182,
                "pitch": 46,
                "velocity": 51,
                "duration": 0.1,
                "tempo": 120.0
            },
            {
                "start_time": 9.4977273,
                "end_time": 9.7113636,
                "pitch": 58,
                "velocity": 51,
                "duration": 0.2136364,
                "tempo": 120.0
            },
            {
                "start_time": 9.7272727,
                "end_time": 9.825,
                "pitch": 46,
                "velocity": 51,
                "duration": 0.0977273,
                "tempo": 120.0
            },
            {
                "start_time": 9.8431818,
                "end_time": 9.9409091,
                "pitch": 58,
                "velocity": 51,
                "duration": 0.0977273,
                "tempo": 120.0
            },
            {
                "start_time": 9.9568182,
                "end_time": 10.0568182,
                "pitch": 46,
                "velocity": 51,
                "duration": 0.1,
                "tempo": 120.0
            },
            {
                "start_time": 10.075,
                "end_time": 10.175,
                "pitch": 46,
                "velocity": 51,
                "duration": 0.1,
                "tempo": 120.0
            },
            {
                "start_time": 10.1909091,
                "end_time": 10.2909091,
                "pitch": 46,
                "velocity": 51,
                "duration": 0.1,
                "tempo": 120.0
            },
            {
                "start_time": 10.3090909,
                "end_time": 10.4090909,
                "pitch": 46,
                "velocity": 51,
                "duration": 0.1,
                "tempo": 120.0
            },
            {
                "start_time": 10.425,
                "end_time": 10.6431818,
                "pitch": 58,
                "velocity": 51,
                "duration": 0.2181818,
                "tempo": 120.0
            },
            {
                "start_time": 10.6613636,
                "end_time": 10.7613636,
                "pitch": 46,
                "velocity": 51,
                "duration": 0.1,
                "tempo": 120.0
            },
            {
                "start_time": 10.7772727,
                "end_time": 10.8772727,
                "pitch": 58,
                "velocity": 51,
                "duration": 0.1,
                "tempo": 120.0
            },
            {
                "start_time": 10.8954545,
                "end_time": 10.9931818,
                "pitch": 46,
                "velocity": 51,
                "duration": 0.0977273,
                "tempo": 120.0
            },
            {
                "start_time": 11.0090909,
                "end_time": 11.1068182,
                "pitch": 46,
                "velocity": 51,
                "duration": 0.0977273,
                "tempo": 120.0
            },
            {
                "start_time": 11.125,
                "end_time": 11.2227273,
                "pitch": 46,
                "velocity": 51,
                "duration": 0.0977273,
                "tempo": 120.0
            },
            {
                "start_time": 11.2386364,
                "end_time": 11.3363636,
                "pitch": 46,
                "velocity": 51,
                "duration": 0.0977273,
                "tempo": 120.0
            },
            {
                "start_time": 11.3522727,
                "end_time": 11.5704545,
                "pitch": 58,
                "velocity": 51,
                "duration": 0.2181818,
                "tempo": 120.0
            },
            {
                "start_time": 11.5863636,
                "end_time": 11.6886364,
                "pitch": 46,
                "velocity": 51,
                "duration": 0.1022727,
                "tempo": 120.0
            },
            {
                "start_time": 11.7045455,
                "end_time": 11.8045455,
                "pitch": 58,
                "velocity": 51,
                "duration": 0.1,
                "tempo": 120.0
            },
            {
                "start_time": 11.8227273,
                "end_time": 11.9204545,
                "pitch": 46,
                "velocity": 51,
                "duration": 0.0977273,
                "tempo": 120.0
            },
            {
                "start_time": 11.9363636,
                "end_time": 12.0340909,
                "pitch": 46,
                "velocity": 51,
                "duration": 0.0977273,
                "tempo": 120.0
            },
            {
                "start_time": 12.05,
                "end_time": 12.15,
                "pitch": 70,
                "velocity": 51,
                "duration": 0.1,
                "tempo": 120.0
            },
            {
                "start_time": 12.1659091,
                "end_time": 12.2636364,
                "pitch": 61,
                "velocity": 51,
                "duration": 0.0977273,
                "tempo": 120.0
            },
            {
                "start_time": 12.2795455,
                "end_time": 12.3795455,
                "pitch": 65,
                "velocity": 51,
                "duration": 0.1,
                "tempo": 120.0
            },
            {
                "start_time": 12.3977273,
                "end_time": 12.4977273,
                "pitch": 70,
                "velocity": 51,
                "duration": 0.1,
                "tempo": 120.0
            },
            {
                "start_time": 12.5136364,
                "end_time": 12.6159091,
                "pitch": 61,
                "velocity": 51,
                "duration": 0.1022727,
                "tempo": 120.0
            },
            {
                "start_time": 12.6318182,
                "end_time": 12.7318182,
                "pitch": 65,
                "velocity": 51,
                "duration": 0.1,
                "tempo": 120.0
            },
            {
                "start_time": 12.75,
                "end_time": 12.85,
                "pitch": 70,
                "velocity": 51,
                "duration": 0.1,
                "tempo": 120.0
            },
            {
                "start_time": 12.8659091,
                "end_time": 12.9659091,
                "pitch": 73,
                "velocity": 51,
                "duration": 0.1,
                "tempo": 120.0
            },
            {
                "start_time": 12.9840909,
                "end_time": 13.0840909,
                "pitch": 58,
                "velocity": 51,
                "duration": 0.1,
                "tempo": 120.0
            },
            {
                "start_time": 13.1,
                "end_time": 13.2022727,
                "pitch": 59,
                "velocity": 51,
                "duration": 0.1022727,
                "tempo": 120.0
            },
            {
                "start_time": 13.2181818,
                "end_time": 13.3181818,
                "pitch": 65,
                "velocity": 51,
                "duration": 0.1,
                "tempo": 120.0
            }
        ]
    }
}