{
    "mood": "angry",
    "instruments": {
        "Acoustic Bass": [
            {
                "start_time": 0.0,
                "end_time": 0.175,
                "pitch": 82,
                "velocity": 80,
                "duration": 0.175,
                "tempo": 120.0
            },
            {
                "start_time": 0.1886364,
                "end_time": 0.3772727,
                "pitch": 79,
                "velocity": 80,
                "duration": 0.1886364,
                "tempo": 120.0
            },
            {
                "start_time": 0.3931818,
                "end_time": 0.6454545,
                "pitch": 81,
                "velocity": 80,
                "duration": 0.2522727,
                "tempo": 120.0
            },
            {
                "start_time": 0.6613636,
                "end_time": 0.8772727,
                "pitch": 79,
                "velocity": 80,
                "duration": 0.2159091,
                "tempo": 120.0
            },
            {
                "start_time": 0.8772727,
                "end_time": 0.9113636,
                "pitch": 79,
                "velocity": 80,
                "duration": 0.0340909,
                "tempo": 120.0
            },
            {
                "start_time": 0.9295455,
                "end_time": 1.1795455,
                "pitch": 82,
                "velocity": 80,
                "duration": 0.25,
                "tempo": 120.0
            },
            {
                "start_time": 1.1954545,
                "end_time": 1.4454545,
                "pitch": 79,
                "velocity": 80,
                "duration": 0.25,
                "tempo": 120.0
            },
            {
                "start_time": 1.4636364,
                "end_time": 1.7181818,
                "pitch": 81,
                "velocity": 80,
                "duration": 0.2545455,
                "tempo": 120.0
            },
            {
                "start_time": 1.7340909,
                "end_time": 1.9909091,
                "pitch": 79,
                "velocity": 80,
                "duration": 0.2568182,
                "tempo": 120.0
            },
            {
                "start_time": 2.0068182,
                "end_time": 2.2568182,
                "pitch": 82,
                "velocity": 80,
                "duration": 0.25,
                "tempo": 120.0
            },
            {
                "start_time": 2.275,
                "end_time": 2.525,
                "pitch": 79,
                "velocity": 80,
                "duration": 0.25,
                "tempo": 120.0
            },
            {
                "start_time": 2.5409091,
                "end_time": 2.7909091,
                "pitch": 81,
                "velocity": 80,
                "duration": 0.25,
                "tempo": 120.0
            },
            {
                "start_time": 2.8090909,
                "end_time": 3.0590909,
                "pitch": 79,
                "velocity": 80,
                "duration": 0.25,
                "tempo": 120.0
            },
            {
                "start_time": 3.075,
                "end_time": 3.3318182,
                "pitch": 82,
                "velocity": 80,
                "duration": 0.2568182,
                "tempo": 120.0
            },
            {
                "start_time": 3.3477273,
                "end_time": 3.6022727,
                "pitch": 79,
                "velocity": 80,
                "duration": 0.2545455,
                "tempo": 120.0
            },
            {
                "start_time": 3.6204545,
                "end_time": 3.8704545,
                "pitch": 81,
                "velocity": 80,
                "duration": 0.25,
                "tempo": 120.0
            },
            {
                "start_time": 3.8863636,
                "end_time": 4.1363636,
                "pitch": 79,
                "velocity": 80,
                "duration": 0.25,
                "tempo": 120.0
            },
            {
                "start_time": 4.1545455,
                "end_time": 4.4090909,
                "pitch": 82,
                "velocity": 80,
                "duration": 0.2545455,
                "tempo": 120.0
            },
            {
                "start_time": 4.425,
                "end_time": 4.6818182,
                "pitch": 79,
                "velocity": 80,
                "duration": 0.2568182,
                "tempo": 120.0
            },
            {
                "start_time": 4.6977273,
                "end_time": 4.9477273,
                "pitch": 81,
                "velocity": 80,
                "duration": 0.25,
                "tempo": 120.0
            },
            {
                "start_time": 4.9659091,
                "end_time": 5.1818182,
                "pitch": 79,
                "velocity": 80,
                "duration": 0.2159091,
                "tempo": 120.0
            }
        ],
        "Church Organ": [
            {
                "start_time": 0.0136364,
                "end_time": 0.05,
                "pitch": 43,
                "velocity": 101,
                "duration": 0.0363636,
                "tempo": 120.0
            },
            {
                "start_time": 0.05,
                "end_time": 0.2136364,
                "pitch": 43,
                "velocity": 101,
                "duration": 0.1636364,
                "tempo": 120.0
            },
            {
                "start_time": 0.2136364,
                "end_time": 0.2522727,
                "pitch": 43,
                "velocity": 101,
                "duration": 0.0386364,
                "tempo": 120.0
            },
            {
                "start_time": 0.2522727,
                "end_time": 0.2772727,
                "pitch": 43,
                "velocity": 101,
                "duration": 0.025,
                "tempo": 120.0
            },
            {
                "start_time": 0.2772727,
                "end_time": 0.3272727,
                "pitch": 43,
                "velocity": 101,
                "duration": 0.05,
                "tempo": 120.0
            },
            {
                "start_time": 0.3272727,
                "end_time": 0.5272727,
                "pitch": 43,
                "velocity": 101,
                "duration": 0.2,
                "tempo": 120.0
            },
            {
                "start_time": 0.5272727,
                "end_time": 0.5772727,
                "pitch": 43,
                "velocity": 101,
                "duration": 0.05,
                "tempo": 120.0
            },
            {
                "start_time": 0.5772727,
                "end_time": 0.6113636,
                "pitch": 43,
                "velocity": 101,
                "duration": 0.0340909,
                "tempo": 120.0
            },
            {
                "start_time": 0.6113636,
                "end_time": 0.6772727,
                "pitch": 43,
                "velocity": 101,
                "duration": 0.0659091,
                "tempo": 120.0
            },
            {
                "start_time": 0.6772727,
                "end_time": 0.8772727,
                "pitch": 43,
                "velocity": 101,
                "duration": 0.2,
                "tempo": 120.0
            },
            {
                "start_time": 0.8772727,
                "end_time": 0.8954545,
                "pitch": 43,
                "velocity": 101,
                "duration": 0.0181818,
                "tempo": 120.0
            },
            {
                "start_time": 0.8954545,
                "end_time": 0.9113636,
                "pitch": 43,
                "velocity": 101,
                "duration": 0.0159091,
                "tempo": 120.0
            },
            {
                "start_time": 0.9295455,
                "end_time": 1.9909091,
                "pitch": 38,
                "velocity": 101,
                "duration": 1.0613636,
                "tempo": 120.0
            },
            {
                "start_time": 2.0068182,
                "end_time": 3.0590909,
                "pitch": 41,
                "velocity": 101,
                "duration": 1.0522727,
                "tempo": 120.0
            },
            {
                "start_time": 3.075,
                "end_time": 4.1363636,
                "pitch": 42,
                "velocity": 101,
                "duration": 1.0613636,
                "tempo": 120.0
            },
            {
                "start_time": 4.1545455,
                "end_time": 4.2227273,
                "pitch": 43,
                "velocity": 101,
                "duration": 0.0681818,
                "tempo": 120.0
            },
            {
                "start_time": 4.2227273,
                "end_time": 4.4431818,
                "pitch": 43,
                "velocity": 101,
                "duration": 0.2204545,
                "tempo": 120.0
            },
            {
                "start_time": 4.4431818,
                "end_time": 4.4931818,
                "pitch": 43,
                "velocity": 101,
                "duration": 0.05,
                "tempo": 120.0
            },
            {
                "start_time": 4.4931818,
                "end_time": 4.5272727,
                "pitch": 43,
                "velocity": 101,
                "duration": 0.0340909,
                "tempo": 120.0
            },
            {
                "start_time": 4.5272727,
                "end_time": 4.5954545,
                "pitch": 43,
                "velocity": 101,
                "duration": 0.0681818,
                "tempo": 120.0
            },
            {
                "start_time": 4.5954545,
                "end_time": 4.8136364,
                "pitch": 43,
                "velocity": 101,
                "duration": 0.2181818,
                "tempo": 120.0
            },
            {
                "start_time": 4.8136364,
                "end_time": 4.8659091,
                "pitch": 43,
                "velocity": 101,
                "duration": 0.0522727,
                "tempo": 120.0
            },
            {
                "start_time": 4.8659091,
                "end_time": 4.8977273,
                "pitch": 43,
                "velocity": 101,
                "duration": 0.0318182,
                "tempo": 120.0
            },
            {
                "start_time": 4.8977273,
                "end_time": 4.9659091,
                "pitch": 43,
                "velocity": 101,
                "duration": 0.0681818,
                "tempo": 120.0
            },
            {
                "start_time": 4.9659091,
                "end_time": 5.1818182,
                "pitch": 43,
                "velocity": 101,
                "duration": 0.2159091,
                "tempo": 120.0
            }
        ],
        "Oboe": [
            {
                "start_time": 0.125,
                "end_time": 0.2386364,
                "pitch": 55,
                "velocity": 64,
                "duration": 0.1136364,
                "tempo": 120.0
            },
            {
                "start_time": 0.2386364,
                "end_time": 0.2886364,
                "pitch": 55,
                "velocity": 64,
                "duration": 0.05,
                "tempo": 120.0
            },
            {
                "start_time": 0.2886364,
                "end_time": 0.8772727,
                "pitch": 55,
                "velocity": 64,
                "duration": 0.5886364,
                "tempo": 120.0
            },
            {
                "start_time": 0.8772727,
                "end_time": 1.0954545,
                "pitch": 55,
                "velocity": 64,
                "duration": 0.2181818,
                "tempo": 120.0
            },
            {
                "start_time": 1.1113636,
                "end_time": 2.1727273,
                "pitch": 50,
                "velocity": 64,
                "duration": 1.0613636,
                "tempo": 120.0
            },
            {
                "start_time": 2.1909091,
                "end_time": 3.2454545,
                "pitch": 53,
                "velocity": 64,
                "duration": 1.0545455,
                "tempo": 120.0
            },
            {
                "start_time": 3.2636364,
                "end_time": 4.325,
                "pitch": 54,
                "velocity": 64,
                "duration": 1.0613636,
                "tempo": 120.0
            },
            {
                "start_time": 4.3409091,
                "end_time": 4.4931818,
                "pitch": 55,
                "velocity": 64,
                "duration": 0.1522727,
                "tempo": 120.0
            },
            {
                "start_time": 4.4931818,
                "end_time": 4.5613636,
                "pitch": 55,
                "velocity": 64,
                "duration": 0.0681818,
                "tempo": 120.0
            },
            {
                "start_time": 4.5613636,
                "end_time": 5.1818182,
                "pitch": 55,
                "velocity": 64,
                "duration": 0.6204545,
                "tempo": 120.0
            }
        ],
        "Trumpet": [
            {
                "start_time": 0.1886364,
                "end_time": 0.8772727,
                "pitch": 55,
                "velocity": 51,
                "duration": 0.6886364,
                "tempo": 120.0
            },
            {
                "start_time": 0.8772727,
                "end_time": 1.1795455,
                "pitch": 55,
                "velocity": 51,
                "duration": 0.3022727,
                "tempo": 120.0
            },
            {
                "start_time": 1.1954545,
                "end_time": 2.2568182,
                "pitch": 50,
                "velocity": 51,
                "duration": 1.0613636,
                "tempo": 120.0
            },
            {
                "start_time": 2.275,
                "end_time": 3.3318182,
                "pitch": 53,
                "velocity": 51,
                "duration": 1.0568182,
                "tempo": 120.0
            },
            {
                "start_time": 3.3477273,
                "end_time": 4.4090909,
                "pitch": 54,
                "velocity": 51,
                "duration": 1.0613636,
                "tempo": 120.0
            },
            {
                "start_time": 4.425,
                "end_time": 5.1818182,
                "pitch": 55,
                "velocity": 51,
                "duration": 0.7568182,
                "tempo": 120.0
            }
        ]
    }
}