{
    "track_id": "01 Title",
    "mood": "sad",
    "instruments": {
        "Clarinet": [
            {
                "start_time": 0.0,
                "end_time": 0.20681818181818182,
                "pitch": 55,
                "velocity": 127,
                "duration": 0.20681818181818182,
                "tempo": 120.0
            },
            {
                "start_time": 0.20681818181818182,
                "end_time": 0.4113636363636363,
                "pitch": 62,
                "velocity": 127,
                "duration": 0.2045454545454545,
                "tempo": 120.0
            },
            {
                "start_time": 0.4113636363636363,
                "end_time": 0.6886363636363636,
                "pitch": 69,
                "velocity": 127,
                "duration": 0.2772727272727273,
                "tempo": 120.0
            },
            {
                "start_time": 0.6886363636363636,
                "end_time": 0.984090909090909,
                "pitch": 69,
                "velocity": 127,
                "duration": 0.2954545454545454,
                "tempo": 120.0
            },
            {
                "start_time": 0.984090909090909,
                "end_time": 1.534090909090909,
                "pitch": 77,
                "velocity": 127,
                "duration": 0.5499999999999999,
                "tempo": 120.0
            },
            {
                "start_time": 1.534090909090909,
                "end_time": 1.8022727272727272,
                "pitch": 77,
                "velocity": 127,
                "duration": 0.2681818181818183,
                "tempo": 120.0
            },
            {
                "start_time": 1.8022727272727272,
                "end_time": 2.0863636363636364,
                "pitch": 69,
                "velocity": 127,
                "duration": 0.28409090909090917,
                "tempo": 120.0
            },
            {
                "start_time": 0.20681818181818182,
                "end_time": 2.352272727272727,
                "pitch": 55,
                "velocity": 127,
                "duration": 2.145454545454545,
                "tempo": 120.0
            },
            {
                "start_time": 2.0863636363636364,
                "end_time": 2.352272727272727,
                "pitch": 57,
                "velocity": 127,
                "duration": 0.26590909090909065,
                "tempo": 120.0
            },
            {
                "start_time": 2.352272727272727,
                "end_time": 2.6363636363636362,
                "pitch": 62,
                "velocity": 127,
                "duration": 0.28409090909090917,
                "tempo": 120.0
            },
            {
                "start_time": 0.4113636363636363,
                "end_time": 2.6363636363636362,
                "pitch": 74,
                "velocity": 127,
                "duration": 2.225,
                "tempo": 120.0
            },
            {
                "start_time": 2.6363636363636362,
                "end_time": 2.909090909090909,
                "pitch": 69,
                "velocity": 127,
                "duration": 0.27272727272727293,
                "tempo": 120.0
            },
            {
                "start_time": 2.909090909090909,
                "end_time": 3.1977272727272728,
                "pitch": 69,
                "velocity": 127,
                "duration": 0.2886363636363636,
                "tempo": 120.0
            },
            {
                "start_time": 0.984090909090909,
                "end_time": 3.1977272727272728,
                "pitch": 70,
                "velocity": 127,
                "duration": 2.213636363636364,
                "tempo": 120.0
            },
            {
                "start_time": 3.1977272727272728,
                "end_time": 3.465909090909091,
                "pitch": 77,
                "velocity": 127,
                "duration": 0.2681818181818181,
                "tempo": 120.0
            },
            {
                "start_time": 1.8022727272727272,
                "end_time": 3.75,
                "pitch": 76,
                "velocity": 127,
                "duration": 1.9477272727272728,
                "tempo": 120.0
            },
            {
                "start_time": 3.465909090909091,
                "end_time": 3.75,
                "pitch": 77,
                "velocity": 127,
                "duration": 0.28409090909090917,
                "tempo": 120.0
            },
            {
                "start_time": 3.75,
                "end_time": 4.011363636363636,
                "pitch": 69,
                "velocity": 127,
                "duration": 0.2613636363636358,
                "tempo": 120.0
            },
            {
                "start_time": 4.011363636363636,
                "end_time": 4.290909090909091,
                "pitch": 69,
                "velocity": 127,
                "duration": 0.2795454545454552,
                "tempo": 120.0
            },
            {
                "start_time": 2.352272727272727,
                "end_time": 4.556818181818182,
                "pitch": 55,
                "velocity": 127,
                "duration": 2.2045454545454546,
                "tempo": 120.0
            },
            {
                "start_time": 4.290909090909091,
                "end_time": 4.556818181818182,
                "pitch": 55,
                "velocity": 127,
                "duration": 0.26590909090909065,
                "tempo": 120.0
            },
            {
                "start_time": 4.556818181818182,
                "end_time": 4.840909090909091,
                "pitch": 62,
                "velocity": 127,
                "duration": 0.28409090909090917,
                "tempo": 120.0
            },
            {
                "start_time": 2.6363636363636362,
                "end_time": 4.840909090909091,
                "pitch": 74,
                "velocity": 127,
                "duration": 2.2045454545454546,
                "tempo": 120.0
            },
            {
                "start_time": 4.840909090909091,
                "end_time": 5.113636363636363,
                "pitch": 69,
                "velocity": 127,
                "duration": 0.2727272727272725,
                "tempo": 120.0
            },
            {
                "start_time": 5.113636363636363,
                "end_time": 5.402272727272727,
                "pitch": 69,
                "velocity": 127,
                "duration": 0.288636363636364,
                "tempo": 120.0
            },
            {
                "start_time": 3.1977272727272728,
                "end_time": 5.402272727272727,
                "pitch": 70,
                "velocity": 127,
                "duration": 2.2045454545454546,
                "tempo": 120.0
            },
            {
                "start_time": 5.402272727272727,
                "end_time": 5.954545454545454,
                "pitch": 77,
                "velocity": 127,
                "duration": 0.5522727272727268,
                "tempo": 120.0
            },
            {
                "start_time": 3.75,
                "end_time": 6.220454545454545,
                "pitch": 76,
                "velocity": 127,
                "duration": 2.470454545454545,
                "tempo": 120.0
            },
            {
                "start_time": 5.954545454545454,
                "end_time": 6.220454545454545,
                "pitch": 77,
                "velocity": 127,
                "duration": 0.26590909090909065,
                "tempo": 120.0
            },
            {
                "start_time": 6.220454545454545,
                "end_time": 6.504545454545454,
                "pitch": 69,
                "velocity": 127,
                "duration": 0.28409090909090917,
                "tempo": 120.0
            },
            {
                "start_time": 4.556818181818182,
                "end_time": 6.7727272727272725,
                "pitch": 55,
                "velocity": 127,
                "duration": 2.215909090909091,
                "tempo": 120.0
            },
            {
                "start_time": 6.504545454545454,
                "end_time": 6.7727272727272725,
                "pitch": 57,
                "velocity": 127,
                "duration": 0.2681818181818185,
                "tempo": 120.0
            },
            {
                "start_time": 6.7727272727272725,
                "end_time": 7.056818181818182,
                "pitch": 62,
                "velocity": 127,
                "duration": 0.28409090909090917,
                "tempo": 120.0
            },
            {
                "start_time": 4.840909090909091,
                "end_time": 7.056818181818182,
                "pitch": 74,
                "velocity": 127,
                "duration": 2.215909090909091,
                "tempo": 120.0
            },
            {
                "start_time": 7.056818181818182,
                "end_time": 7.322727272727272,
                "pitch": 69,
                "velocity": 127,
                "duration": 0.26590909090909065,
                "tempo": 120.0
            },
            {
                "start_time": 7.322727272727272,
                "end_time": 7.6068181818181815,
                "pitch": 69,
                "velocity": 127,
                "duration": 0.28409090909090917,
                "tempo": 120.0
            },
            {
                "start_time": 5.402272727272727,
                "end_time": 7.6068181818181815,
                "pitch": 70,
                "velocity": 127,
                "duration": 2.204545454545454,
                "tempo": 120.0
            },
            {
                "start_time": 7.6068181818181815,
                "end_time": 7.875,
                "pitch": 77,
                "velocity": 127,
                "duration": 0.2681818181818185,
                "tempo": 120.0
            },
            {
                "start_time": 6.220454545454545,
                "end_time": 8.159090909090908,
                "pitch": 76,
                "velocity": 127,
                "duration": 1.9386363636363635,
                "tempo": 120.0
            },
            {
                "start_time": 7.875,
                "end_time": 8.159090909090908,
                "pitch": 77,
                "velocity": 127,
                "duration": 0.2840909090909083,
                "tempo": 120.0
            },
            {
                "start_time": 8.159090909090908,
                "end_time": 8.424999999999999,
                "pitch": 69,
                "velocity": 127,
                "duration": 0.26590909090909065,
                "tempo": 120.0
            },
            {
                "start_time": 4.290909090909091,
                "end_time": 8.709090909090909,
                "pitch": 58,
                "velocity": 127,
                "duration": 4.418181818181818,
                "tempo": 120.0
            },
            {
                "start_time": 8.424999999999999,
                "end_time": 8.709090909090909,
                "pitch": 69,
                "velocity": 127,
                "duration": 0.28409090909091006,
                "tempo": 120.0
            },
            {
                "start_time": 8.709090909090909,
                "end_time": 8.993181818181817,
                "pitch": 62,
                "velocity": 127,
                "duration": 0.2840909090909083,
                "tempo": 120.0
            },
            {
                "start_time": 7.056818181818182,
                "end_time": 8.993181818181817,
                "pitch": 74,
                "velocity": 127,
                "duration": 1.9363636363636356,
                "tempo": 120.0
            },
            {
                "start_time": 8.993181818181817,
                "end_time": 9.259090909090908,
                "pitch": 69,
                "velocity": 127,
                "duration": 0.26590909090909065,
                "tempo": 120.0
            },
            {
                "start_time": 8.159090909090908,
                "end_time": 9.549999999999999,
                "pitch": 76,
                "velocity": 127,
                "duration": 1.3909090909090907,
                "tempo": 120.0
            },
            {
                "start_time": 9.259090909090908,
                "end_time": 9.549999999999999,
                "pitch": 76,
                "velocity": 127,
                "duration": 0.290909090909091,
                "tempo": 120.0
            },
            {
                "start_time": 9.549999999999999,
                "end_time": 9.820454545454545,
                "pitch": 76,
                "velocity": 127,
                "duration": 0.2704545454545464,
                "tempo": 120.0
            },
            {
                "start_time": 9.820454545454545,
                "end_time": 10.363636363636363,
                "pitch": 84,
                "velocity": 127,
                "duration": 0.543181818181818,
                "tempo": 120.0
            },
            {
                "start_time": 10.363636363636363,
                "end_time": 10.645454545454545,
                "pitch": 84,
                "velocity": 127,
                "duration": 0.2818181818181813,
                "tempo": 120.0
            },
            {
                "start_time": 10.645454545454545,
                "end_time": 10.913636363636362,
                "pitch": 76,
                "velocity": 127,
                "duration": 0.26818181818181763,
                "tempo": 120.0
            },
            {
                "start_time": 10.913636363636362,
                "end_time": 11.197727272727272,
                "pitch": 62,
                "velocity": 127,
                "duration": 0.28409090909091006,
                "tempo": 120.0
            },
            {
                "start_time": 8.993181818181817,
                "end_time": 11.197727272727272,
                "pitch": 74,
                "velocity": 127,
                "duration": 2.204545454545455,
                "tempo": 120.0
            },
            {
                "start_time": 9.259090909090908,
                "end_time": 11.463636363636363,
                "pitch": 69,
                "velocity": 127,
                "duration": 2.204545454545455,
                "tempo": 120.0
            },
            {
                "start_time": 11.197727272727272,
                "end_time": 11.463636363636363,
                "pitch": 69,
                "velocity": 127,
                "duration": 0.26590909090909065,
                "tempo": 120.0
            },
            {
                "start_time": 11.463636363636363,
                "end_time": 11.754545454545454,
                "pitch": 76,
                "velocity": 127,
                "duration": 0.290909090909091,
                "tempo": 120.0
            },
            {
                "start_time": 11.754545454545454,
                "end_time": 12.024999999999999,
                "pitch": 76,
                "velocity": 127,
                "duration": 0.2704545454545446,
                "tempo": 120.0
            },
            {
                "start_time": 9.820454545454545,
                "end_time": 12.024999999999999,
                "pitch": 89,
                "velocity": 127,
                "duration": 2.2045454545454533,
                "tempo": 120.0
            },
            {
                "start_time": 12.024999999999999,
                "end_time": 12.309090909090909,
                "pitch": 84,
                "velocity": 127,
                "duration": 0.28409090909091006,
                "tempo": 120.0
            },
            {
                "start_time": 10.645454545454545,
                "end_time": 12.577272727272726,
                "pitch": 71,
                "velocity": 127,
                "duration": 1.9318181818181817,
                "tempo": 120.0
            },
            {
                "start_time": 12.309090909090909,
                "end_time": 12.577272727272726,
                "pitch": 84,
                "velocity": 127,
                "duration": 0.26818181818181763,
                "tempo": 120.0
            },
            {
                "start_time": 12.577272727272726,
                "end_time": 12.85681818181818,
                "pitch": 76,
                "velocity": 127,
                "duration": 0.2795454545454543,
                "tempo": 120.0
            },
            {
                "start_time": 12.85681818181818,
                "end_time": 13.118181818181817,
                "pitch": 76,
                "velocity": 127,
                "duration": 0.2613636363636367,
                "tempo": 120.0
            },
            {
                "start_time": 13.118181818181817,
                "end_time": 13.402272727272727,
                "pitch": 62,
                "velocity": 127,
                "duration": 0.28409090909091006,
                "tempo": 120.0
            },
            {
                "start_time": 11.197727272727272,
                "end_time": 13.402272727272727,
                "pitch": 74,
                "velocity": 127,
                "duration": 2.204545454545455,
                "tempo": 120.0
            },
            {
                "start_time": 11.463636363636363,
                "end_time": 13.668181818181818,
                "pitch": 69,
                "velocity": 127,
                "duration": 2.204545454545455,
                "tempo": 120.0
            },
            {
                "start_time": 13.402272727272727,
                "end_time": 13.668181818181818,
                "pitch": 69,
                "velocity": 127,
                "duration": 0.26590909090909065,
                "tempo": 120.0
            },
            {
                "start_time": 13.668181818181818,
                "end_time": 13.963636363636363,
                "pitch": 76,
                "velocity": 127,
                "duration": 0.29545454545454497,
                "tempo": 120.0
            },
            {
                "start_time": 13.963636363636363,
                "end_time": 14.24090909090909,
                "pitch": 76,
                "velocity": 127,
                "duration": 0.27727272727272734,
                "tempo": 120.0
            },
            {
                "start_time": 12.024999999999999,
                "end_time": 14.24090909090909,
                "pitch": 89,
                "velocity": 127,
                "duration": 2.2159090909090917,
                "tempo": 120.0
            },
            {
                "start_time": 14.24090909090909,
                "end_time": 14.781818181818181,
                "pitch": 84,
                "velocity": 127,
                "duration": 0.540909090909091,
                "tempo": 120.0
            },
            {
                "start_time": 12.577272727272726,
                "end_time": 15.06590909090909,
                "pitch": 71,
                "velocity": 127,
                "duration": 2.4886363636363633,
                "tempo": 120.0
            },
            {
                "start_time": 14.781818181818181,
                "end_time": 15.06590909090909,
                "pitch": 84,
                "velocity": 127,
                "duration": 0.2840909090909083,
                "tempo": 120.0
            },
            {
                "start_time": 10.913636363636362,
                "end_time": 15.334090909090909,
                "pitch": 64,
                "velocity": 127,
                "duration": 4.420454545454547,
                "tempo": 120.0
            },
            {
                "start_time": 15.06590909090909,
                "end_time": 15.334090909090909,
                "pitch": 76,
                "velocity": 127,
                "duration": 0.2681818181818194,
                "tempo": 120.0
            },
            {
                "start_time": 15.334090909090909,
                "end_time": 15.61590909090909,
                "pitch": 62,
                "velocity": 127,
                "duration": 0.2818181818181813,
                "tempo": 120.0
            },
            {
                "start_time": 13.402272727272727,
                "end_time": 15.61590909090909,
                "pitch": 74,
                "velocity": 127,
                "duration": 2.213636363636363,
                "tempo": 120.0
            },
            {
                "start_time": 13.668181818181818,
                "end_time": 15.884090909090908,
                "pitch": 69,
                "velocity": 127,
                "duration": 2.21590909090909,
                "tempo": 120.0
            },
            {
                "start_time": 15.61590909090909,
                "end_time": 15.884090909090908,
                "pitch": 69,
                "velocity": 127,
                "duration": 0.26818181818181763,
                "tempo": 120.0
            },
            {
                "start_time": 15.884090909090908,
                "end_time": 16.172727272727272,
                "pitch": 76,
                "velocity": 127,
                "duration": 0.288636363636364,
                "tempo": 120.0
            },
            {
                "start_time": 16.172727272727272,
                "end_time": 16.445454545454545,
                "pitch": 76,
                "velocity": 127,
                "duration": 0.2727272727272734,
                "tempo": 120.0
            },
            {
                "start_time": 14.24090909090909,
                "end_time": 16.445454545454545,
                "pitch": 89,
                "velocity": 127,
                "duration": 2.204545454545455,
                "tempo": 120.0
            },
            {
                "start_time": 16.445454545454545,
                "end_time": 16.722727272727273,
                "pitch": 84,
                "velocity": 127,
                "duration": 0.27727272727272734,
                "tempo": 120.0
            },
            {
                "start_time": 15.06590909090909,
                "end_time": 16.986363636363635,
                "pitch": 71,
                "velocity": 127,
                "duration": 1.920454545454545,
                "tempo": 120.0
            },
            {
                "start_time": 16.722727272727273,
                "end_time": 16.986363636363635,
                "pitch": 84,
                "velocity": 127,
                "duration": 0.2636363636363619,
                "tempo": 120.0
            },
            {
                "start_time": 16.986363636363635,
                "end_time": 17.270454545454545,
                "pitch": 76,
                "velocity": 127,
                "duration": 0.28409090909091006,
                "tempo": 120.0
            },
            {
                "start_time": 13.118181818181817,
                "end_time": 17.554545454545455,
                "pitch": 65,
                "velocity": 127,
                "duration": 4.436363636363637,
                "tempo": 120.0
            },
            {
                "start_time": 17.270454545454545,
                "end_time": 17.554545454545455,
                "pitch": 76,
                "velocity": 127,
                "duration": 0.28409090909091006,
                "tempo": 120.0
            },
            {
                "start_time": 17.554545454545455,
                "end_time": 17.831818181818182,
                "pitch": 60,
                "velocity": 127,
                "duration": 0.27727272727272734,
                "tempo": 120.0
            },
            {
                "start_time": 0.0,
                "end_time": 18.125,
                "pitch": 67,
                "velocity": 127,
                "duration": 18.125,
                "tempo": 120.0
            },
            {
                "start_time": 17.831818181818182,
                "end_time": 18.125,
                "pitch": 67,
                "velocity": 127,
                "duration": 0.293181818181818,
                "tempo": 120.0
            },
            {
                "start_time": 15.61590909090909,
                "end_time": 18.397727272727273,
                "pitch": 74,
                "velocity": 127,
                "duration": 2.781818181818183,
                "tempo": 120.0
            },
            {
                "start_time": 18.125,
                "end_time": 18.397727272727273,
                "pitch": 74,
                "velocity": 127,
                "duration": 0.2727272727272734,
                "tempo": 120.0
            },
            {
                "start_time": 18.397727272727273,
                "end_time": 18.688636363636363,
                "pitch": 74,
                "velocity": 127,
                "duration": 0.29090909090908923,
                "tempo": 120.0
            },
            {
                "start_time": 18.688636363636363,
                "end_time": 19.229545454545455,
                "pitch": 82,
                "velocity": 127,
                "duration": 0.5409090909090928,
                "tempo": 120.0
            },
            {
                "start_time": 15.884090909090908,
                "end_time": 19.495454545454546,
                "pitch": 69,
                "velocity": 127,
                "duration": 3.611363636363638,
                "tempo": 120.0
            },
            {
                "start_time": 19.229545454545455,
                "end_time": 19.495454545454546,
                "pitch": 82,
                "velocity": 127,
                "duration": 0.26590909090909065,
                "tempo": 120.0
            },
            {
                "start_time": 19.495454545454546,
                "end_time": 19.779545454545453,
                "pitch": 74,
                "velocity": 127,
                "duration": 0.2840909090909065,
                "tempo": 120.0
            },
            {
                "start_time": 19.779545454545453,
                "end_time": 20.047727272727272,
                "pitch": 60,
                "velocity": 127,
                "duration": 0.2681818181818194,
                "tempo": 120.0
            },
            {
                "start_time": 17.831818181818182,
                "end_time": 20.047727272727272,
                "pitch": 72,
                "velocity": 127,
                "duration": 2.21590909090909,
                "tempo": 120.0
            },
            {
                "start_time": 18.125,
                "end_time": 20.331818181818182,
                "pitch": 67,
                "velocity": 127,
                "duration": 2.206818181818182,
                "tempo": 120.0
            },
            {
                "start_time": 20.047727272727272,
                "end_time": 20.331818181818182,
                "pitch": 67,
                "velocity": 127,
                "duration": 0.28409090909091006,
                "tempo": 120.0
            },
            {
                "start_time": 20.331818181818182,
                "end_time": 20.602272727272727,
                "pitch": 74,
                "velocity": 127,
                "duration": 0.2704545454545446,
                "tempo": 120.0
            },
            {
                "start_time": 20.602272727272727,
                "end_time": 20.89090909090909,
                "pitch": 74,
                "velocity": 127,
                "duration": 0.288636363636364,
                "tempo": 120.0
            },
            {
                "start_time": 18.688636363636363,
                "end_time": 20.893181818181816,
                "pitch": 87,
                "velocity": 127,
                "duration": 2.2045454545454533,
                "tempo": 120.0
            },
            {
                "start_time": 20.893181818181816,
                "end_time": 21.154545454545453,
                "pitch": 82,
                "velocity": 127,
                "duration": 0.2613636363636367,
                "tempo": 120.0
            },
            {
                "start_time": 19.495454545454546,
                "end_time": 21.43409090909091,
                "pitch": 69,
                "velocity": 127,
                "duration": 1.9386363636363626,
                "tempo": 120.0
            },
            {
                "start_time": 21.154545454545453,
                "end_time": 21.43409090909091,
                "pitch": 82,
                "velocity": 127,
                "duration": 0.2795454545454561,
                "tempo": 120.0
            },
            {
                "start_time": 21.43409090909091,
                "end_time": 21.7,
                "pitch": 74,
                "velocity": 127,
                "duration": 0.26590909090909065,
                "tempo": 120.0
            },
            {
                "start_time": 21.7,
                "end_time": 21.98409090909091,
                "pitch": 74,
                "velocity": 127,
                "duration": 0.28409090909091006,
                "tempo": 120.0
            },
            {
                "start_time": 21.98409090909091,
                "end_time": 22.252272727272725,
                "pitch": 60,
                "velocity": 127,
                "duration": 0.26818181818181586,
                "tempo": 120.0
            },
            {
                "start_time": 20.047727272727272,
                "end_time": 22.252272727272725,
                "pitch": 72,
                "velocity": 127,
                "duration": 2.2045454545454533,
                "tempo": 120.0
            },
            {
                "start_time": 20.331818181818182,
                "end_time": 22.534090909090907,
                "pitch": 67,
                "velocity": 127,
                "duration": 2.2022727272727245,
                "tempo": 120.0
            },
            {
                "start_time": 22.252272727272725,
                "end_time": 22.534090909090907,
                "pitch": 67,
                "velocity": 127,
                "duration": 0.2818181818181813,
                "tempo": 120.0
            },
            {
                "start_time": 22.534090909090907,
                "end_time": 22.80681818181818,
                "pitch": 74,
                "velocity": 127,
                "duration": 0.2727272727272734,
                "tempo": 120.0
            },
            {
                "start_time": 22.80681818181818,
                "end_time": 23.095454545454544,
                "pitch": 74,
                "velocity": 127,
                "duration": 0.288636363636364,
                "tempo": 120.0
            },
            {
                "start_time": 20.893181818181816,
                "end_time": 23.095454545454544,
                "pitch": 87,
                "velocity": 127,
                "duration": 2.202272727272728,
                "tempo": 120.0
            },
            {
                "start_time": 23.095454545454544,
                "end_time": 23.64772727272727,
                "pitch": 82,
                "velocity": 127,
                "duration": 0.5522727272727259,
                "tempo": 120.0
            },
            {
                "start_time": 21.43409090909091,
                "end_time": 23.91590909090909,
                "pitch": 69,
                "velocity": 127,
                "duration": 2.4818181818181806,
                "tempo": 120.0
            },
            {
                "start_time": 23.64772727272727,
                "end_time": 23.91590909090909,
                "pitch": 82,
                "velocity": 127,
                "duration": 0.2681818181818194,
                "tempo": 120.0
            },
            {
                "start_time": 19.779545454545453,
                "end_time": 24.2,
                "pitch": 62,
                "velocity": 127,
                "duration": 4.420454545454547,
                "tempo": 120.0
            },
            {
                "start_time": 23.91590909090909,
                "end_time": 24.2,
                "pitch": 74,
                "velocity": 127,
                "duration": 0.28409090909091006,
                "tempo": 120.0
            },
            {
                "start_time": 24.2,
                "end_time": 24.46590909090909,
                "pitch": 60,
                "velocity": 127,
                "duration": 0.26590909090909065,
                "tempo": 120.0
            },
            {
                "start_time": 22.252272727272725,
                "end_time": 24.46590909090909,
                "pitch": 72,
                "velocity": 127,
                "duration": 2.2136363636363647,
                "tempo": 120.0
            },
            {
                "start_time": 22.534090909090907,
                "end_time": 24.75,
                "pitch": 67,
                "velocity": 127,
                "duration": 2.2159090909090935,
                "tempo": 120.0
            },
            {
                "start_time": 24.46590909090909,
                "end_time": 24.75,
                "pitch": 67,
                "velocity": 127,
                "duration": 0.28409090909091006,
                "tempo": 120.0
            },
            {
                "start_time": 24.75,
                "end_time": 25.01590909090909,
                "pitch": 74,
                "velocity": 127,
                "duration": 0.26590909090909065,
                "tempo": 120.0
            },
            {
                "start_time": 25.01590909090909,
                "end_time": 25.299999999999997,
                "pitch": 74,
                "velocity": 127,
                "duration": 0.2840909090909065,
                "tempo": 120.0
            },
            {
                "start_time": 23.095454545454544,
                "end_time": 25.299999999999997,
                "pitch": 87,
                "velocity": 127,
                "duration": 2.2045454545454533,
                "tempo": 120.0
            },
            {
                "start_time": 25.299999999999997,
                "end_time": 25.568181818181817,
                "pitch": 82,
                "velocity": 127,
                "duration": 0.2681818181818194,
                "tempo": 120.0
            },
            {
                "start_time": 23.91590909090909,
                "end_time": 25.852272727272727,
                "pitch": 69,
                "velocity": 127,
                "duration": 1.9363636363636374,
                "tempo": 120.0
            },
            {
                "start_time": 25.568181818181817,
                "end_time": 25.852272727272727,
                "pitch": 82,
                "velocity": 127,
                "duration": 0.28409090909091006,
                "tempo": 120.0
            },
            {
                "start_time": 25.852272727272727,
                "end_time": 26.136363636363637,
                "pitch": 74,
                "velocity": 127,
                "duration": 0.28409090909091006,
                "tempo": 120.0
            },
            {
                "start_time": 26.136363636363637,
                "end_time": 26.404545454545453,
                "pitch": 74,
                "velocity": 127,
                "duration": 0.26818181818181586,
                "tempo": 120.0
            },
            {
                "start_time": 21.98409090909091,
                "end_time": 26.686363636363634,
                "pitch": 63,
                "velocity": 127,
                "duration": 4.7022727272727245,
                "tempo": 120.0
            },
            {
                "start_time": 26.404545454545453,
                "end_time": 26.686363636363634,
                "pitch": 63,
                "velocity": 127,
                "duration": 0.2818181818181813,
                "tempo": 120.0
            },
            {
                "start_time": 24.46590909090909,
                "end_time": 26.954545454545453,
                "pitch": 72,
                "velocity": 127,
                "duration": 2.4886363636363633,
                "tempo": 120.0
            },
            {
                "start_time": 26.686363636363634,
                "end_time": 26.954545454545453,
                "pitch": 72,
                "velocity": 127,
                "duration": 0.2681818181818194,
                "tempo": 120.0
            },
            {
                "start_time": 26.954545454545453,
                "end_time": 27.243181818181817,
                "pitch": 79,
                "velocity": 127,
                "duration": 0.288636363636364,
                "tempo": 120.0
            },
            {
                "start_time": 27.243181818181817,
                "end_time": 27.51590909090909,
                "pitch": 79,
                "velocity": 127,
                "duration": 0.2727272727272734,
                "tempo": 120.0
            },
            {
                "start_time": 25.299999999999997,
                "end_time": 28.05681818181818,
                "pitch": 87,
                "velocity": 127,
                "duration": 2.7568181818181827,
                "tempo": 120.0
            },
            {
                "start_time": 27.51590909090909,
                "end_time": 28.05681818181818,
                "pitch": 87,
                "velocity": 127,
                "duration": 0.5409090909090892,
                "tempo": 120.0
            },
            {
                "start_time": 28.05681818181818,
                "end_time": 28.34090909090909,
                "pitch": 87,
                "velocity": 127,
                "duration": 0.28409090909091006,
                "tempo": 120.0
            },
            {
                "start_time": 6.7727272727272725,
                "end_time": 28.60681818181818,
                "pitch": 55,
                "velocity": 127,
                "duration": 21.834090909090907,
                "tempo": 120.0
            },
            {
                "start_time": 28.34090909090909,
                "end_time": 28.60681818181818,
                "pitch": 79,
                "velocity": 127,
                "duration": 0.26590909090909065,
                "tempo": 120.0
            },
            {
                "start_time": 17.554545454545455,
                "end_time": 28.89090909090909,
                "pitch": 65,
                "velocity": 127,
                "duration": 11.336363636363636,
                "tempo": 120.0
            },
            {
                "start_time": 28.60681818181818,
                "end_time": 28.89090909090909,
                "pitch": 65,
                "velocity": 127,
                "duration": 0.28409090909091006,
                "tempo": 120.0
            },
            {
                "start_time": 26.686363636363634,
                "end_time": 28.89090909090909,
                "pitch": 77,
                "velocity": 127,
                "duration": 2.204545454545457,
                "tempo": 120.0
            },
            {
                "start_time": 28.89090909090909,
                "end_time": 29.159090909090907,
                "pitch": 72,
                "velocity": 127,
                "duration": 0.26818181818181586,
                "tempo": 120.0
            },
            {
                "start_time": 26.954545454545453,
                "end_time": 29.159090909090907,
                "pitch": 84,
                "velocity": 127,
                "duration": 2.2045454545454533,
                "tempo": 120.0
            },
            {
                "start_time": 29.159090909090907,
                "end_time": 29.44772727272727,
                "pitch": 79,
                "velocity": 127,
                "duration": 0.288636363636364,
                "tempo": 120.0
            },
            {
                "start_time": 29.44772727272727,
                "end_time": 29.720454545454544,
                "pitch": 79,
                "velocity": 127,
                "duration": 0.2727272727272734,
                "tempo": 120.0
            },
            {
                "start_time": 27.51590909090909,
                "end_time": 29.720454545454544,
                "pitch": 80,
                "velocity": 127,
                "duration": 2.2045454545454533,
                "tempo": 120.0
            },
            {
                "start_time": 29.720454545454544,
                "end_time": 30.004545454545454,
                "pitch": 87,
                "velocity": 127,
                "duration": 0.28409090909091006,
                "tempo": 120.0
            },
            {
                "start_time": 28.34090909090909,
                "end_time": 30.270454545454545,
                "pitch": 86,
                "velocity": 127,
                "duration": 1.9295454545454547,
                "tempo": 120.0
            },
            {
                "start_time": 30.004545454545454,
                "end_time": 30.270454545454545,
                "pitch": 87,
                "velocity": 127,
                "duration": 0.26590909090909065,
                "tempo": 120.0
            },
            {
                "start_time": 30.270454545454545,
                "end_time": 30.549999999999997,
                "pitch": 79,
                "velocity": 127,
                "duration": 0.27954545454545254,
                "tempo": 120.0
            },
            {
                "start_time": 30.549999999999997,
                "end_time": 30.811363636363634,
                "pitch": 79,
                "velocity": 127,
                "duration": 0.2613636363636367,
                "tempo": 120.0
            },
            {
                "start_time": 30.811363636363634,
                "end_time": 31.095454545454544,
                "pitch": 65,
                "velocity": 127,
                "duration": 0.28409090909091006,
                "tempo": 120.0
            },
            {
                "start_time": 28.89090909090909,
                "end_time": 31.095454545454544,
                "pitch": 77,
                "velocity": 127,
                "duration": 2.2045454545454533,
                "tempo": 120.0
            },
            {
                "start_time": 31.095454545454544,
                "end_time": 31.363636363636363,
                "pitch": 72,
                "velocity": 127,
                "duration": 0.2681818181818194,
                "tempo": 120.0
            },
            {
                "start_time": 29.159090909090907,
                "end_time": 31.363636363636363,
                "pitch": 84,
                "velocity": 127,
                "duration": 2.204545454545457,
                "tempo": 120.0
            },
            {
                "start_time": 31.363636363636363,
                "end_time": 31.652272727272727,
                "pitch": 79,
                "velocity": 127,
                "duration": 0.288636363636364,
                "tempo": 120.0
            },
            {
                "start_time": 31.652272727272727,
                "end_time": 31.924999999999997,
                "pitch": 79,
                "velocity": 127,
                "duration": 0.2727272727272698,
                "tempo": 120.0
            },
            {
                "start_time": 29.720454545454544,
                "end_time": 31.924999999999997,
                "pitch": 80,
                "velocity": 127,
                "duration": 2.2045454545454533,
                "tempo": 120.0
            },
            {
                "start_time": 31.924999999999997,
                "end_time": 32.475,
                "pitch": 87,
                "velocity": 127,
                "duration": 0.5500000000000043,
                "tempo": 120.0
            },
            {
                "start_time": 30.270454545454545,
                "end_time": 32.75909090909091,
                "pitch": 86,
                "velocity": 127,
                "duration": 2.4886363636363633,
                "tempo": 120.0
            },
            {
                "start_time": 32.475,
                "end_time": 32.75909090909091,
                "pitch": 87,
                "velocity": 127,
                "duration": 0.2840909090909065,
                "tempo": 120.0
            },
            {
                "start_time": 28.60681818181818,
                "end_time": 33.027272727272724,
                "pitch": 55,
                "velocity": 127,
                "duration": 4.420454545454543,
                "tempo": 120.0
            },
            {
                "start_time": 32.75909090909091,
                "end_time": 33.027272727272724,
                "pitch": 79,
                "velocity": 127,
                "duration": 0.26818181818181586,
                "tempo": 120.0
            },
            {
                "start_time": 33.027272727272724,
                "end_time": 33.31136363636364,
                "pitch": 65,
                "velocity": 127,
                "duration": 0.2840909090909136,
                "tempo": 120.0
            },
            {
                "start_time": 31.095454545454544,
                "end_time": 33.31136363636364,
                "pitch": 77,
                "velocity": 127,
                "duration": 2.2159090909090935,
                "tempo": 120.0
            },
            {
                "start_time": 33.31136363636364,
                "end_time": 33.57727272727273,
                "pitch": 72,
                "velocity": 127,
                "duration": 0.26590909090909065,
                "tempo": 120.0
            },
            {
                "start_time": 31.363636363636363,
                "end_time": 33.57727272727273,
                "pitch": 84,
                "velocity": 127,
                "duration": 2.2136363636363647,
                "tempo": 120.0
            },
            {
                "start_time": 33.57727272727273,
                "end_time": 33.86590909090909,
                "pitch": 79,
                "velocity": 127,
                "duration": 0.288636363636364,
                "tempo": 120.0
            },
            {
                "start_time": 33.86590909090909,
                "end_time": 34.138636363636365,
                "pitch": 79,
                "velocity": 127,
                "duration": 0.2727272727272734,
                "tempo": 120.0
            },
            {
                "start_time": 31.924999999999997,
                "end_time": 34.138636363636365,
                "pitch": 80,
                "velocity": 127,
                "duration": 2.2136363636363683,
                "tempo": 120.0
            },
            {
                "start_time": 34.138636363636365,
                "end_time": 34.418181818181814,
                "pitch": 87,
                "velocity": 127,
                "duration": 0.279545454545449,
                "tempo": 120.0
            },
            {
                "start_time": 32.75909090909091,
                "end_time": 34.695454545454545,
                "pitch": 86,
                "velocity": 127,
                "duration": 1.9363636363636374,
                "tempo": 120.0
            },
            {
                "start_time": 34.418181818181814,
                "end_time": 34.695454545454545,
                "pitch": 87,
                "velocity": 127,
                "duration": 0.2772727272727309,
                "tempo": 120.0
            },
            {
                "start_time": 34.695454545454545,
                "end_time": 34.97272727272727,
                "pitch": 79,
                "velocity": 127,
                "duration": 0.2772727272727238,
                "tempo": 120.0
            },
            {
                "start_time": 34.97272727272727,
                "end_time": 35.268181818181816,
                "pitch": 79,
                "velocity": 127,
                "duration": 0.29545454545454675,
                "tempo": 120.0
            },
            {
                "start_time": 33.027272727272724,
                "end_time": 35.53636363636363,
                "pitch": 55,
                "velocity": 127,
                "duration": 2.509090909090908,
                "tempo": 120.0
            },
            {
                "start_time": 30.811363636363634,
                "end_time": 35.53636363636363,
                "pitch": 56,
                "velocity": 127,
                "duration": 4.724999999999998,
                "tempo": 120.0
            },
            {
                "start_time": 35.268181818181816,
                "end_time": 35.53636363636363,
                "pitch": 56,
                "velocity": 127,
                "duration": 0.26818181818181586,
                "tempo": 120.0
            },
            {
                "start_time": 24.2,
                "end_time": 35.652272727272724,
                "pitch": 62,
                "velocity": 127,
                "duration": 11.452272727272724,
                "tempo": 120.0
            },
            {
                "start_time": 35.53636363636363,
                "end_time": 35.652272727272724,
                "pitch": 62,
                "velocity": 127,
                "duration": 0.11590909090909207,
                "tempo": 120.0
            }
        ],
        "Harpsichord": [
            {
                "start_time": 0.0,
                "end_time": 0.07272727272727272,
                "pitch": 43,
                "velocity": 101,
                "duration": 0.07272727272727272,
                "tempo": 120.0
            },
            {
                "start_time": 0.20681818181818182,
                "end_time": 0.2772727272727273,
                "pitch": 43,
                "velocity": 101,
                "duration": 0.07045454545454546,
                "tempo": 120.0
            },
            {
                "start_time": 0.30227272727272725,
                "end_time": 0.375,
                "pitch": 43,
                "velocity": 101,
                "duration": 0.07272727272727275,
                "tempo": 120.0
            },
            {
                "start_time": 0.4113636363636363,
                "end_time": 0.4977272727272727,
                "pitch": 43,
                "velocity": 101,
                "duration": 0.08636363636363636,
                "tempo": 120.0
            },
            {
                "start_time": 0.6886363636363636,
                "end_time": 0.7931818181818181,
                "pitch": 43,
                "velocity": 101,
                "duration": 0.1045454545454545,
                "tempo": 120.0
            },
            {
                "start_time": 0.8272727272727273,
                "end_time": 0.9318181818181818,
                "pitch": 43,
                "velocity": 101,
                "duration": 0.1045454545454545,
                "tempo": 120.0
            },
            {
                "start_time": 0.984090909090909,
                "end_time": 1.065909090909091,
                "pitch": 43,
                "velocity": 101,
                "duration": 0.0818181818181819,
                "tempo": 120.0
            },
            {
                "start_time": 1.25,
                "end_time": 1.3499999999999999,
                "pitch": 43,
                "velocity": 101,
                "duration": 0.09999999999999987,
                "tempo": 120.0
            },
            {
                "start_time": 0.0,
                "end_time": 1.4840909090909091,
                "pitch": 50,
                "velocity": 101,
                "duration": 1.4840909090909091,
                "tempo": 120.0
            },
            {
                "start_time": 1.384090909090909,
                "end_time": 1.4840909090909091,
                "pitch": 50,
                "velocity": 101,
                "duration": 0.10000000000000009,
                "tempo": 120.0
            },
            {
                "start_time": 1.384090909090909,
                "end_time": 1.6181818181818182,
                "pitch": 43,
                "velocity": 101,
                "duration": 0.23409090909090913,
                "tempo": 120.0
            },
            {
                "start_time": 1.534090909090909,
                "end_time": 1.6181818181818182,
                "pitch": 43,
                "velocity": 101,
                "duration": 0.08409090909090922,
                "tempo": 120.0
            },
            {
                "start_time": 1.8022727272727272,
                "end_time": 1.9022727272727271,
                "pitch": 43,
                "velocity": 101,
                "duration": 0.09999999999999987,
                "tempo": 120.0
            },
            {
                "start_time": 1.534090909090909,
                "end_time": 2.034090909090909,
                "pitch": 50,
                "velocity": 101,
                "duration": 0.5000000000000002,
                "tempo": 120.0
            },
            {
                "start_time": 1.9363636363636363,
                "end_time": 2.034090909090909,
                "pitch": 50,
                "velocity": 101,
                "duration": 0.09772727272727288,
                "tempo": 120.0
            },
            {
                "start_time": 1.9363636363636363,
                "end_time": 2.168181818181818,
                "pitch": 43,
                "velocity": 101,
                "duration": 0.2318181818181817,
                "tempo": 120.0
            },
            {
                "start_time": 2.0863636363636364,
                "end_time": 2.168181818181818,
                "pitch": 43,
                "velocity": 101,
                "duration": 0.08181818181818157,
                "tempo": 120.0
            },
            {
                "start_time": 2.352272727272727,
                "end_time": 2.452272727272727,
                "pitch": 43,
                "velocity": 101,
                "duration": 0.10000000000000009,
                "tempo": 120.0
            },
            {
                "start_time": 2.4863636363636363,
                "end_time": 2.5863636363636364,
                "pitch": 43,
                "velocity": 101,
                "duration": 0.10000000000000009,
                "tempo": 120.0
            },
            {
                "start_time": 2.6363636363636362,
                "end_time": 2.7204545454545452,
                "pitch": 43,
                "velocity": 101,
                "duration": 0.084090909090909,
                "tempo": 120.0
            },
            {
                "start_time": 2.909090909090909,
                "end_time": 3.009090909090909,
                "pitch": 43,
                "velocity": 101,
                "duration": 0.09999999999999964,
                "tempo": 120.0
            },
            {
                "start_time": 3.0454545454545454,
                "end_time": 3.1454545454545455,
                "pitch": 43,
                "velocity": 101,
                "duration": 0.10000000000000009,
                "tempo": 120.0
            },
            {
                "start_time": 3.1977272727272728,
                "end_time": 3.2818181818181817,
                "pitch": 43,
                "velocity": 101,
                "duration": 0.084090909090909,
                "tempo": 120.0
            },
            {
                "start_time": 3.465909090909091,
                "end_time": 3.565909090909091,
                "pitch": 43,
                "velocity": 101,
                "duration": 0.10000000000000009,
                "tempo": 120.0
            },
            {
                "start_time": 3.5977272727272727,
                "end_time": 3.6977272727272728,
                "pitch": 43,
                "velocity": 101,
                "duration": 0.10000000000000009,
                "tempo": 120.0
            },
            {
                "start_time": 2.0863636363636364,
                "end_time": 3.829545454545454,
                "pitch": 50,
                "velocity": 101,
                "duration": 1.7431818181818177,
                "tempo": 120.0
            },
            {
                "start_time": 3.75,
                "end_time": 3.829545454545454,
                "pitch": 50,
                "velocity": 101,
                "duration": 0.07954545454545414,
                "tempo": 120.0
            },
            {
                "start_time": 4.011363636363636,
                "end_time": 4.1090909090909085,
                "pitch": 55,
                "velocity": 101,
                "duration": 0.09772727272727266,
                "tempo": 120.0
            },
            {
                "start_time": 4.143181818181818,
                "end_time": 4.24090909090909,
                "pitch": 55,
                "velocity": 101,
                "duration": 0.09772727272727266,
                "tempo": 120.0
            },
            {
                "start_time": 3.75,
                "end_time": 4.372727272727272,
                "pitch": 43,
                "velocity": 101,
                "duration": 0.6227272727272721,
                "tempo": 120.0
            },
            {
                "start_time": 4.290909090909091,
                "end_time": 4.372727272727272,
                "pitch": 43,
                "velocity": 101,
                "duration": 0.08181818181818112,
                "tempo": 120.0
            },
            {
                "start_time": 4.556818181818182,
                "end_time": 4.656818181818181,
                "pitch": 43,
                "velocity": 101,
                "duration": 0.09999999999999964,
                "tempo": 120.0
            },
            {
                "start_time": 4.706818181818182,
                "end_time": 4.790909090909091,
                "pitch": 43,
                "velocity": 101,
                "duration": 0.084090909090909,
                "tempo": 120.0
            },
            {
                "start_time": 4.840909090909091,
                "end_time": 4.925,
                "pitch": 43,
                "velocity": 101,
                "duration": 0.084090909090909,
                "tempo": 120.0
            },
            {
                "start_time": 5.113636363636363,
                "end_time": 5.215909090909091,
                "pitch": 43,
                "velocity": 101,
                "duration": 0.10227272727272751,
                "tempo": 120.0
            },
            {
                "start_time": 5.265909090909091,
                "end_time": 5.35,
                "pitch": 43,
                "velocity": 101,
                "duration": 0.084090909090909,
                "tempo": 120.0
            },
            {
                "start_time": 5.402272727272727,
                "end_time": 5.486363636363636,
                "pitch": 43,
                "velocity": 101,
                "duration": 0.084090909090909,
                "tempo": 120.0
            },
            {
                "start_time": 5.670454545454545,
                "end_time": 5.7704545454545455,
                "pitch": 43,
                "velocity": 101,
                "duration": 0.10000000000000053,
                "tempo": 120.0
            },
            {
                "start_time": 5.820454545454545,
                "end_time": 5.902272727272727,
                "pitch": 50,
                "velocity": 101,
                "duration": 0.08181818181818201,
                "tempo": 120.0
            },
            {
                "start_time": 5.820454545454545,
                "end_time": 6.036363636363636,
                "pitch": 43,
                "velocity": 101,
                "duration": 0.21590909090909083,
                "tempo": 120.0
            },
            {
                "start_time": 5.954545454545454,
                "end_time": 6.036363636363636,
                "pitch": 43,
                "velocity": 101,
                "duration": 0.08181818181818201,
                "tempo": 120.0
            },
            {
                "start_time": 6.220454545454545,
                "end_time": 6.320454545454545,
                "pitch": 43,
                "velocity": 101,
                "duration": 0.10000000000000053,
                "tempo": 120.0
            },
            {
                "start_time": 5.954545454545454,
                "end_time": 6.454545454545454,
                "pitch": 50,
                "velocity": 101,
                "duration": 0.5,
                "tempo": 120.0
            },
            {
                "start_time": 6.370454545454545,
                "end_time": 6.454545454545454,
                "pitch": 50,
                "velocity": 101,
                "duration": 0.084090909090909,
                "tempo": 120.0
            },
            {
                "start_time": 6.370454545454545,
                "end_time": 6.588636363636363,
                "pitch": 43,
                "velocity": 101,
                "duration": 0.2181818181818178,
                "tempo": 120.0
            },
            {
                "start_time": 6.504545454545454,
                "end_time": 6.588636363636363,
                "pitch": 43,
                "velocity": 101,
                "duration": 0.084090909090909,
                "tempo": 120.0
            },
            {
                "start_time": 6.7727272727272725,
                "end_time": 6.870454545454545,
                "pitch": 43,
                "velocity": 101,
                "duration": 0.09772727272727266,
                "tempo": 120.0
            },
            {
                "start_time": 6.922727272727272,
                "end_time": 7.004545454545454,
                "pitch": 43,
                "velocity": 101,
                "duration": 0.08181818181818201,
                "tempo": 120.0
            },
            {
                "start_time": 7.056818181818182,
                "end_time": 7.138636363636364,
                "pitch": 43,
                "velocity": 101,
                "duration": 0.08181818181818201,
                "tempo": 120.0
            },
            {
                "start_time": 7.322727272727272,
                "end_time": 7.422727272727272,
                "pitch": 43,
                "velocity": 101,
                "duration": 0.09999999999999964,
                "tempo": 120.0
            },
            {
                "start_time": 7.472727272727273,
                "end_time": 7.556818181818182,
                "pitch": 43,
                "velocity": 101,
                "duration": 0.084090909090909,
                "tempo": 120.0
            },
            {
                "start_time": 7.6068181818181815,
                "end_time": 7.6886363636363635,
                "pitch": 43,
                "velocity": 101,
                "duration": 0.08181818181818201,
                "tempo": 120.0
            },
            {
                "start_time": 7.875,
                "end_time": 7.972727272727273,
                "pitch": 43,
                "velocity": 101,
                "duration": 0.09772727272727266,
                "tempo": 120.0
            },
            {
                "start_time": 8.025,
                "end_time": 8.10681818181818,
                "pitch": 43,
                "velocity": 101,
                "duration": 0.08181818181818024,
                "tempo": 120.0
            },
            {
                "start_time": 6.504545454545454,
                "end_time": 8.24090909090909,
                "pitch": 50,
                "velocity": 101,
                "duration": 1.7363636363636363,
                "tempo": 120.0
            },
            {
                "start_time": 8.159090909090908,
                "end_time": 8.24090909090909,
                "pitch": 50,
                "velocity": 101,
                "duration": 0.08181818181818201,
                "tempo": 120.0
            },
            {
                "start_time": 4.011363636363636,
                "end_time": 8.424999999999999,
                "pitch": 62,
                "velocity": 101,
                "duration": 4.413636363636363,
                "tempo": 120.0
            },
            {
                "start_time": 8.424999999999999,
                "end_time": 8.525,
                "pitch": 55,
                "velocity": 101,
                "duration": 0.10000000000000142,
                "tempo": 120.0
            },
            {
                "start_time": 8.575,
                "end_time": 8.659090909090908,
                "pitch": 55,
                "velocity": 101,
                "duration": 0.084090909090909,
                "tempo": 120.0
            },
            {
                "start_time": 8.709090909090909,
                "end_time": 8.809090909090909,
                "pitch": 38,
                "velocity": 101,
                "duration": 0.09999999999999964,
                "tempo": 120.0
            },
            {
                "start_time": 8.993181818181817,
                "end_time": 9.075,
                "pitch": 38,
                "velocity": 101,
                "duration": 0.08181818181818201,
                "tempo": 120.0
            },
            {
                "start_time": 9.127272727272727,
                "end_time": 9.209090909090909,
                "pitch": 38,
                "velocity": 101,
                "duration": 0.08181818181818201,
                "tempo": 120.0
            },
            {
                "start_time": 9.259090909090908,
                "end_time": 9.361363636363636,
                "pitch": 38,
                "velocity": 101,
                "duration": 0.1022727272727284,
                "tempo": 120.0
            },
            {
                "start_time": 9.549999999999999,
                "end_time": 9.634090909090908,
                "pitch": 38,
                "velocity": 101,
                "duration": 0.084090909090909,
                "tempo": 120.0
            },
            {
                "start_time": 9.686363636363636,
                "end_time": 9.770454545454545,
                "pitch": 38,
                "velocity": 101,
                "duration": 0.084090909090909,
                "tempo": 120.0
            },
            {
                "start_time": 9.820454545454545,
                "end_time": 9.918181818181818,
                "pitch": 38,
                "velocity": 101,
                "duration": 0.09772727272727266,
                "tempo": 120.0
            },
            {
                "start_time": 10.1,
                "end_time": 10.181818181818182,
                "pitch": 38,
                "velocity": 101,
                "duration": 0.08181818181818201,
                "tempo": 120.0
            },
            {
                "start_time": 10.23181818181818,
                "end_time": 10.313636363636363,
                "pitch": 45,
                "velocity": 101,
                "duration": 0.08181818181818201,
                "tempo": 120.0
            },
            {
                "start_time": 10.363636363636363,
                "end_time": 10.461363636363636,
                "pitch": 38,
                "velocity": 101,
                "duration": 0.09772727272727266,
                "tempo": 120.0
            },
            {
                "start_time": 10.645454545454545,
                "end_time": 10.729545454545454,
                "pitch": 38,
                "velocity": 101,
                "duration": 0.084090909090909,
                "tempo": 120.0
            },
            {
                "start_time": 10.23181818181818,
                "end_time": 10.779545454545454,
                "pitch": 50,
                "velocity": 101,
                "duration": 0.5477272727272737,
                "tempo": 120.0
            },
            {
                "start_time": 10.779545454545454,
                "end_time": 10.863636363636363,
                "pitch": 45,
                "velocity": 101,
                "duration": 0.084090909090909,
                "tempo": 120.0
            },
            {
                "start_time": 10.363636363636363,
                "end_time": 10.913636363636362,
                "pitch": 33,
                "velocity": 101,
                "duration": 0.5499999999999989,
                "tempo": 120.0
            },
            {
                "start_time": 10.913636363636362,
                "end_time": 11.013636363636364,
                "pitch": 38,
                "velocity": 101,
                "duration": 0.10000000000000142,
                "tempo": 120.0
            },
            {
                "start_time": 11.197727272727272,
                "end_time": 11.279545454545454,
                "pitch": 38,
                "velocity": 101,
                "duration": 0.08181818181818201,
                "tempo": 120.0
            },
            {
                "start_time": 11.331818181818182,
                "end_time": 11.413636363636362,
                "pitch": 38,
                "velocity": 101,
                "duration": 0.08181818181818024,
                "tempo": 120.0
            },
            {
                "start_time": 11.463636363636363,
                "end_time": 11.56590909090909,
                "pitch": 38,
                "velocity": 101,
                "duration": 0.10227272727272663,
                "tempo": 120.0
            },
            {
                "start_time": 11.754545454545454,
                "end_time": 11.838636363636363,
                "pitch": 38,
                "velocity": 101,
                "duration": 0.084090909090909,
                "tempo": 120.0
            },
            {
                "start_time": 11.89090909090909,
                "end_time": 11.975,
                "pitch": 38,
                "velocity": 101,
                "duration": 0.084090909090909,
                "tempo": 120.0
            },
            {
                "start_time": 12.024999999999999,
                "end_time": 12.125,
                "pitch": 38,
                "velocity": 101,
                "duration": 0.10000000000000142,
                "tempo": 120.0
            },
            {
                "start_time": 12.309090909090909,
                "end_time": 12.393181818181818,
                "pitch": 38,
                "velocity": 101,
                "duration": 0.084090909090909,
                "tempo": 120.0
            },
            {
                "start_time": 12.443181818181818,
                "end_time": 12.524999999999999,
                "pitch": 38,
                "velocity": 101,
                "duration": 0.08181818181818024,
                "tempo": 120.0
            },
            {
                "start_time": 10.779545454545454,
                "end_time": 12.577272727272726,
                "pitch": 50,
                "velocity": 101,
                "duration": 1.797727272727272,
                "tempo": 120.0
            },
            {
                "start_time": 12.577272727272726,
                "end_time": 12.674999999999999,
                "pitch": 45,
                "velocity": 101,
                "duration": 0.09772727272727266,
                "tempo": 120.0
            },
            {
                "start_time": 12.577272727272726,
                "end_time": 12.936363636363636,
                "pitch": 50,
                "velocity": 101,
                "duration": 0.35909090909090935,
                "tempo": 120.0
            },
            {
                "start_time": 12.85681818181818,
                "end_time": 12.936363636363636,
                "pitch": 50,
                "velocity": 101,
                "duration": 0.07954545454545503,
                "tempo": 120.0
            },
            {
                "start_time": 12.986363636363636,
                "end_time": 13.084090909090909,
                "pitch": 50,
                "velocity": 101,
                "duration": 0.09772727272727266,
                "tempo": 120.0
            },
            {
                "start_time": 13.118181818181817,
                "end_time": 13.218181818181817,
                "pitch": 38,
                "velocity": 101,
                "duration": 0.09999999999999964,
                "tempo": 120.0
            },
            {
                "start_time": 13.402272727272727,
                "end_time": 13.484090909090908,
                "pitch": 38,
                "velocity": 101,
                "duration": 0.08181818181818024,
                "tempo": 120.0
            },
            {
                "start_time": 13.536363636363635,
                "end_time": 13.634090909090908,
                "pitch": 38,
                "velocity": 101,
                "duration": 0.09772727272727266,
                "tempo": 120.0
            },
            {
                "start_time": 13.668181818181818,
                "end_time": 13.772727272727272,
                "pitch": 38,
                "velocity": 101,
                "duration": 0.10454545454545361,
                "tempo": 120.0
            },
            {
                "start_time": 13.963636363636363,
                "end_time": 14.049999999999999,
                "pitch": 38,
                "velocity": 101,
                "duration": 0.08636363636363598,
                "tempo": 120.0
            },
            {
                "start_time": 14.102272727272727,
                "end_time": 14.204545454545453,
                "pitch": 38,
                "velocity": 101,
                "duration": 0.10227272727272663,
                "tempo": 120.0
            },
            {
                "start_time": 14.24090909090909,
                "end_time": 14.338636363636363,
                "pitch": 38,
                "velocity": 101,
                "duration": 0.09772727272727266,
                "tempo": 120.0
            },
            {
                "start_time": 14.520454545454545,
                "end_time": 14.6,
                "pitch": 38,
                "velocity": 101,
                "duration": 0.07954545454545503,
                "tempo": 120.0
            },
            {
                "start_time": 12.85681818181818,
                "end_time": 14.747727272727271,
                "pitch": 45,
                "velocity": 101,
                "duration": 1.8909090909090907,
                "tempo": 120.0
            },
            {
                "start_time": 14.649999999999999,
                "end_time": 14.747727272727271,
                "pitch": 45,
                "velocity": 101,
                "duration": 0.09772727272727266,
                "tempo": 120.0
            },
            {
                "start_time": 10.913636363636362,
                "end_time": 14.781818181818181,
                "pitch": 33,
                "velocity": 101,
                "duration": 3.868181818181819,
                "tempo": 120.0
            },
            {
                "start_time": 14.781818181818181,
                "end_time": 14.881818181818181,
                "pitch": 38,
                "velocity": 101,
                "duration": 0.09999999999999964,
                "tempo": 120.0
            },
            {
                "start_time": 15.06590909090909,
                "end_time": 15.147727272727272,
                "pitch": 38,
                "velocity": 101,
                "duration": 0.08181818181818201,
                "tempo": 120.0
            },
            {
                "start_time": 14.649999999999999,
                "end_time": 15.2,
                "pitch": 50,
                "velocity": 101,
                "duration": 0.5500000000000007,
                "tempo": 120.0
            },
            {
                "start_time": 15.2,
                "end_time": 15.299999999999999,
                "pitch": 45,
                "velocity": 101,
                "duration": 0.09999999999999964,
                "tempo": 120.0
            },
            {
                "start_time": 14.781818181818181,
                "end_time": 15.334090909090909,
                "pitch": 33,
                "velocity": 101,
                "duration": 0.5522727272727277,
                "tempo": 120.0
            },
            {
                "start_time": 15.334090909090909,
                "end_time": 15.431818181818182,
                "pitch": 38,
                "velocity": 101,
                "duration": 0.09772727272727266,
                "tempo": 120.0
            },
            {
                "start_time": 15.618181818181817,
                "end_time": 15.7,
                "pitch": 38,
                "velocity": 101,
                "duration": 0.08181818181818201,
                "tempo": 120.0
            },
            {
                "start_time": 15.75,
                "end_time": 15.85,
                "pitch": 38,
                "velocity": 101,
                "duration": 0.09999999999999964,
                "tempo": 120.0
            },
            {
                "start_time": 15.884090909090908,
                "end_time": 15.984090909090908,
                "pitch": 38,
                "velocity": 101,
                "duration": 0.09999999999999964,
                "tempo": 120.0
            },
            {
                "start_time": 16.172727272727272,
                "end_time": 16.256818181818183,
                "pitch": 38,
                "velocity": 101,
                "duration": 0.08409090909091077,
                "tempo": 120.0
            },
            {
                "start_time": 16.30909090909091,
                "end_time": 16.411363636363635,
                "pitch": 38,
                "velocity": 101,
                "duration": 0.10227272727272663,
                "tempo": 120.0
            },
            {
                "start_time": 16.445454545454545,
                "end_time": 16.543181818181818,
                "pitch": 38,
                "velocity": 101,
                "duration": 0.09772727272727266,
                "tempo": 120.0
            },
            {
                "start_time": 16.724999999999998,
                "end_time": 16.804545454545455,
                "pitch": 38,
                "velocity": 101,
                "duration": 0.0795454545454568,
                "tempo": 120.0
            },
            {
                "start_time": 16.854545454545455,
                "end_time": 16.952272727272728,
                "pitch": 38,
                "velocity": 101,
                "duration": 0.09772727272727266,
                "tempo": 120.0
            },
            {
                "start_time": 15.2,
                "end_time": 16.986363636363635,
                "pitch": 50,
                "velocity": 101,
                "duration": 1.7863636363636353,
                "tempo": 120.0
            },
            {
                "start_time": 16.986363636363635,
                "end_time": 17.086363636363636,
                "pitch": 45,
                "velocity": 101,
                "duration": 0.10000000000000142,
                "tempo": 120.0
            },
            {
                "start_time": 16.986363636363635,
                "end_time": 17.370454545454546,
                "pitch": 50,
                "velocity": 101,
                "duration": 0.3840909090909115,
                "tempo": 120.0
            },
            {
                "start_time": 17.270454545454545,
                "end_time": 17.370454545454546,
                "pitch": 50,
                "velocity": 101,
                "duration": 0.10000000000000142,
                "tempo": 120.0
            },
            {
                "start_time": 17.404545454545453,
                "end_time": 17.502272727272725,
                "pitch": 50,
                "velocity": 101,
                "duration": 0.09772727272727266,
                "tempo": 120.0
            },
            {
                "start_time": 17.554545454545455,
                "end_time": 17.64090909090909,
                "pitch": 36,
                "velocity": 101,
                "duration": 0.08636363636363598,
                "tempo": 120.0
            },
            {
                "start_time": 17.831818181818182,
                "end_time": 17.93409090909091,
                "pitch": 36,
                "velocity": 101,
                "duration": 0.10227272727272663,
                "tempo": 120.0
            },
            {
                "start_time": 17.970454545454544,
                "end_time": 18.07272727272727,
                "pitch": 36,
                "velocity": 101,
                "duration": 0.10227272727272663,
                "tempo": 120.0
            },
            {
                "start_time": 18.125,
                "end_time": 18.211363636363636,
                "pitch": 36,
                "velocity": 101,
                "duration": 0.08636363636363598,
                "tempo": 120.0
            },
            {
                "start_time": 18.397727272727273,
                "end_time": 18.5,
                "pitch": 36,
                "velocity": 101,
                "duration": 0.10227272727272663,
                "tempo": 120.0
            },
            {
                "start_time": 18.534090909090907,
                "end_time": 18.636363636363637,
                "pitch": 36,
                "velocity": 101,
                "duration": 0.10227272727273018,
                "tempo": 120.0
            },
            {
                "start_time": 18.688636363636363,
                "end_time": 18.768181818181816,
                "pitch": 36,
                "velocity": 101,
                "duration": 0.07954545454545325,
                "tempo": 120.0
            },
            {
                "start_time": 18.95,
                "end_time": 19.047727272727272,
                "pitch": 36,
                "velocity": 101,
                "duration": 0.09772727272727266,
                "tempo": 120.0
            },
            {
                "start_time": 8.159090909090908,
                "end_time": 19.179545454545455,
                "pitch": 43,
                "velocity": 101,
                "duration": 11.020454545454546,
                "tempo": 120.0
            },
            {
                "start_time": 19.081818181818182,
                "end_time": 19.179545454545455,
                "pitch": 43,
                "velocity": 101,
                "duration": 0.09772727272727266,
                "tempo": 120.0
            },
            {
                "start_time": 8.709090909090909,
                "end_time": 19.229545454545455,
                "pitch": 31,
                "velocity": 101,
                "duration": 10.520454545454546,
                "tempo": 120.0
            },
            {
                "start_time": 19.229545454545455,
                "end_time": 19.311363636363634,
                "pitch": 36,
                "velocity": 101,
                "duration": 0.08181818181817846,
                "tempo": 120.0
            },
            {
                "start_time": 19.495454545454546,
                "end_time": 19.595454545454544,
                "pitch": 36,
                "velocity": 101,
                "duration": 0.09999999999999787,
                "tempo": 120.0
            },
            {
                "start_time": 19.081818181818182,
                "end_time": 19.629545454545454,
                "pitch": 48,
                "velocity": 101,
                "duration": 0.547727272727272,
                "tempo": 120.0
            },
            {
                "start_time": 19.629545454545454,
                "end_time": 19.729545454545452,
                "pitch": 43,
                "velocity": 101,
                "duration": 0.09999999999999787,
                "tempo": 120.0
            },
            {
                "start_time": 19.229545454545455,
                "end_time": 19.779545454545453,
                "pitch": 31,
                "velocity": 101,
                "duration": 0.5499999999999972,
                "tempo": 120.0
            },
            {
                "start_time": 19.779545454545453,
                "end_time": 19.863636363636363,
                "pitch": 36,
                "velocity": 101,
                "duration": 0.08409090909091077,
                "tempo": 120.0
            },
            {
                "start_time": 20.047727272727272,
                "end_time": 20.145454545454545,
                "pitch": 36,
                "velocity": 101,
                "duration": 0.09772727272727266,
                "tempo": 120.0
            },
            {
                "start_time": 20.179545454545455,
                "end_time": 20.279545454545453,
                "pitch": 36,
                "velocity": 101,
                "duration": 0.09999999999999787,
                "tempo": 120.0
            },
            {
                "start_time": 20.331818181818182,
                "end_time": 20.41590909090909,
                "pitch": 36,
                "velocity": 101,
                "duration": 0.08409090909090722,
                "tempo": 120.0
            },
            {
                "start_time": 20.602272727272727,
                "end_time": 20.704545454545453,
                "pitch": 36,
                "velocity": 101,
                "duration": 0.10227272727272663,
                "tempo": 120.0
            },
            {
                "start_time": 20.738636363636363,
                "end_time": 20.84090909090909,
                "pitch": 36,
                "velocity": 101,
                "duration": 0.10227272727272663,
                "tempo": 120.0
            },
            {
                "start_time": 20.893181818181816,
                "end_time": 20.972727272727273,
                "pitch": 36,
                "velocity": 101,
                "duration": 0.0795454545454568,
                "tempo": 120.0
            },
            {
                "start_time": 21.154545454545453,
                "end_time": 21.252272727272725,
                "pitch": 36,
                "velocity": 101,
                "duration": 0.09772727272727266,
                "tempo": 120.0
            },
            {
                "start_time": 21.286363636363635,
                "end_time": 21.384090909090908,
                "pitch": 36,
                "velocity": 101,
                "duration": 0.09772727272727266,
                "tempo": 120.0
            },
            {
                "start_time": 19.629545454545454,
                "end_time": 21.43409090909091,
                "pitch": 48,
                "velocity": 101,
                "duration": 1.8045454545454547,
                "tempo": 120.0
            },
            {
                "start_time": 21.43409090909091,
                "end_time": 21.51590909090909,
                "pitch": 43,
                "velocity": 101,
                "duration": 0.08181818181818201,
                "tempo": 120.0
            },
            {
                "start_time": 21.43409090909091,
                "end_time": 21.8,
                "pitch": 48,
                "velocity": 101,
                "duration": 0.36590909090909207,
                "tempo": 120.0
            },
            {
                "start_time": 21.7,
                "end_time": 21.8,
                "pitch": 48,
                "velocity": 101,
                "duration": 0.10000000000000142,
                "tempo": 120.0
            },
            {
                "start_time": 21.849999999999998,
                "end_time": 21.93409090909091,
                "pitch": 48,
                "velocity": 101,
                "duration": 0.08409090909091077,
                "tempo": 120.0
            },
            {
                "start_time": 21.98409090909091,
                "end_time": 22.06590909090909,
                "pitch": 36,
                "velocity": 101,
                "duration": 0.08181818181818201,
                "tempo": 120.0
            },
            {
                "start_time": 22.252272727272725,
                "end_time": 22.349999999999998,
                "pitch": 36,
                "velocity": 101,
                "duration": 0.09772727272727266,
                "tempo": 120.0
            },
            {
                "start_time": 22.402272727272727,
                "end_time": 22.48409090909091,
                "pitch": 36,
                "velocity": 101,
                "duration": 0.08181818181818201,
                "tempo": 120.0
            },
            {
                "start_time": 22.536363636363635,
                "end_time": 22.620454545454546,
                "pitch": 36,
                "velocity": 101,
                "duration": 0.08409090909091077,
                "tempo": 120.0
            },
            {
                "start_time": 22.80681818181818,
                "end_time": 22.909090909090907,
                "pitch": 36,
                "velocity": 101,
                "duration": 0.10227272727272663,
                "tempo": 120.0
            },
            {
                "start_time": 22.961363636363636,
                "end_time": 23.045454545454543,
                "pitch": 36,
                "velocity": 101,
                "duration": 0.08409090909090722,
                "tempo": 120.0
            },
            {
                "start_time": 23.097727272727273,
                "end_time": 23.179545454545455,
                "pitch": 36,
                "velocity": 101,
                "duration": 0.08181818181818201,
                "tempo": 120.0
            },
            {
                "start_time": 23.363636363636363,
                "end_time": 23.46363636363636,
                "pitch": 36,
                "velocity": 101,
                "duration": 0.09999999999999787,
                "tempo": 120.0
            },
            {
                "start_time": 21.7,
                "end_time": 23.597727272727273,
                "pitch": 43,
                "velocity": 101,
                "duration": 1.8977272727272734,
                "tempo": 120.0
            },
            {
                "start_time": 23.513636363636362,
                "end_time": 23.597727272727273,
                "pitch": 43,
                "velocity": 101,
                "duration": 0.08409090909091077,
                "tempo": 120.0
            },
            {
                "start_time": 19.779545454545453,
                "end_time": 23.64772727272727,
                "pitch": 31,
                "velocity": 101,
                "duration": 3.8681818181818173,
                "tempo": 120.0
            },
            {
                "start_time": 23.64772727272727,
                "end_time": 23.729545454545452,
                "pitch": 36,
                "velocity": 101,
                "duration": 0.08181818181818201,
                "tempo": 120.0
            },
            {
                "start_time": 23.91590909090909,
                "end_time": 24.013636363636362,
                "pitch": 36,
                "velocity": 101,
                "duration": 0.09772727272727266,
                "tempo": 120.0
            },
            {
                "start_time": 23.513636363636362,
                "end_time": 24.06590909090909,
                "pitch": 48,
                "velocity": 101,
                "duration": 0.5522727272727295,
                "tempo": 120.0
            },
            {
                "start_time": 24.06590909090909,
                "end_time": 24.14772727272727,
                "pitch": 43,
                "velocity": 101,
                "duration": 0.08181818181817846,
                "tempo": 120.0
            },
            {
                "start_time": 23.64772727272727,
                "end_time": 24.2,
                "pitch": 31,
                "velocity": 101,
                "duration": 0.5522727272727295,
                "tempo": 120.0
            },
            {
                "start_time": 24.2,
                "end_time": 24.28181818181818,
                "pitch": 36,
                "velocity": 101,
                "duration": 0.08181818181818201,
                "tempo": 120.0
            },
            {
                "start_time": 24.46590909090909,
                "end_time": 24.56590909090909,
                "pitch": 36,
                "velocity": 101,
                "duration": 0.10000000000000142,
                "tempo": 120.0
            },
            {
                "start_time": 24.61590909090909,
                "end_time": 24.7,
                "pitch": 36,
                "velocity": 101,
                "duration": 0.08409090909091077,
                "tempo": 120.0
            },
            {
                "start_time": 24.75,
                "end_time": 24.831818181818182,
                "pitch": 36,
                "velocity": 101,
                "duration": 0.08181818181818201,
                "tempo": 120.0
            },
            {
                "start_time": 25.018181818181816,
                "end_time": 25.11590909090909,
                "pitch": 36,
                "velocity": 101,
                "duration": 0.09772727272727266,
                "tempo": 120.0
            },
            {
                "start_time": 25.168181818181818,
                "end_time": 25.25,
                "pitch": 36,
                "velocity": 101,
                "duration": 0.08181818181818201,
                "tempo": 120.0
            },
            {
                "start_time": 25.299999999999997,
                "end_time": 25.384090909090908,
                "pitch": 36,
                "velocity": 101,
                "duration": 0.08409090909091077,
                "tempo": 120.0
            },
            {
                "start_time": 25.568181818181817,
                "end_time": 25.668181818181818,
                "pitch": 36,
                "velocity": 101,
                "duration": 0.10000000000000142,
                "tempo": 120.0
            },
            {
                "start_time": 25.71818181818182,
                "end_time": 25.799999999999997,
                "pitch": 36,
                "velocity": 101,
                "duration": 0.08181818181817846,
                "tempo": 120.0
            },
            {
                "start_time": 24.06590909090909,
                "end_time": 25.852272727272727,
                "pitch": 48,
                "velocity": 101,
                "duration": 1.7863636363636353,
                "tempo": 120.0
            },
            {
                "start_time": 25.852272727272727,
                "end_time": 25.952272727272724,
                "pitch": 43,
                "velocity": 101,
                "duration": 0.09999999999999787,
                "tempo": 120.0
            },
            {
                "start_time": 25.852272727272727,
                "end_time": 26.218181818181815,
                "pitch": 48,
                "velocity": 101,
                "duration": 0.3659090909090885,
                "tempo": 120.0
            },
            {
                "start_time": 26.136363636363637,
                "end_time": 26.218181818181815,
                "pitch": 48,
                "velocity": 101,
                "duration": 0.08181818181817846,
                "tempo": 120.0
            },
            {
                "start_time": 26.268181818181816,
                "end_time": 26.352272727272727,
                "pitch": 48,
                "velocity": 101,
                "duration": 0.08409090909091077,
                "tempo": 120.0
            },
            {
                "start_time": 26.404545454545453,
                "end_time": 26.502272727272725,
                "pitch": 41,
                "velocity": 101,
                "duration": 0.09772727272727266,
                "tempo": 120.0
            },
            {
                "start_time": 26.686363636363634,
                "end_time": 26.770454545454545,
                "pitch": 41,
                "velocity": 101,
                "duration": 0.08409090909091077,
                "tempo": 120.0
            },
            {
                "start_time": 26.820454545454545,
                "end_time": 26.902272727272727,
                "pitch": 41,
                "velocity": 101,
                "duration": 0.08181818181818201,
                "tempo": 120.0
            },
            {
                "start_time": 26.954545454545453,
                "end_time": 27.054545454545455,
                "pitch": 41,
                "velocity": 101,
                "duration": 0.10000000000000142,
                "tempo": 120.0
            },
            {
                "start_time": 27.243181818181817,
                "end_time": 27.327272727272724,
                "pitch": 41,
                "velocity": 101,
                "duration": 0.08409090909090722,
                "tempo": 120.0
            },
            {
                "start_time": 27.379545454545454,
                "end_time": 27.46363636363636,
                "pitch": 41,
                "velocity": 101,
                "duration": 0.08409090909090722,
                "tempo": 120.0
            },
            {
                "start_time": 27.51590909090909,
                "end_time": 27.613636363636363,
                "pitch": 41,
                "velocity": 101,
                "duration": 0.09772727272727266,
                "tempo": 120.0
            },
            {
                "start_time": 27.793181818181818,
                "end_time": 27.875,
                "pitch": 41,
                "velocity": 101,
                "duration": 0.08181818181818201,
                "tempo": 120.0
            },
            {
                "start_time": 27.924999999999997,
                "end_time": 28.00681818181818,
                "pitch": 48,
                "velocity": 101,
                "duration": 0.08181818181818201,
                "tempo": 120.0
            },
            {
                "start_time": 26.404545454545453,
                "end_time": 28.05681818181818,
                "pitch": 36,
                "velocity": 101,
                "duration": 1.6522727272727273,
                "tempo": 120.0
            },
            {
                "start_time": 28.05681818181818,
                "end_time": 28.15681818181818,
                "pitch": 41,
                "velocity": 101,
                "duration": 0.10000000000000142,
                "tempo": 120.0
            },
            {
                "start_time": 28.34090909090909,
                "end_time": 28.422727272727272,
                "pitch": 41,
                "velocity": 101,
                "duration": 0.08181818181818201,
                "tempo": 120.0
            },
            {
                "start_time": 27.924999999999997,
                "end_time": 28.472727272727273,
                "pitch": 53,
                "velocity": 101,
                "duration": 0.5477272727272755,
                "tempo": 120.0
            },
            {
                "start_time": 28.472727272727273,
                "end_time": 28.55681818181818,
                "pitch": 48,
                "velocity": 101,
                "duration": 0.08409090909090722,
                "tempo": 120.0
            },
            {
                "start_time": 28.05681818181818,
                "end_time": 28.60681818181818,
                "pitch": 36,
                "velocity": 101,
                "duration": 0.5500000000000007,
                "tempo": 120.0
            },
            {
                "start_time": 28.60681818181818,
                "end_time": 28.706818181818182,
                "pitch": 41,
                "velocity": 101,
                "duration": 0.10000000000000142,
                "tempo": 120.0
            },
            {
                "start_time": 28.89090909090909,
                "end_time": 28.974999999999998,
                "pitch": 41,
                "velocity": 101,
                "duration": 0.08409090909090722,
                "tempo": 120.0
            },
            {
                "start_time": 29.025,
                "end_time": 29.10681818181818,
                "pitch": 41,
                "velocity": 101,
                "duration": 0.08181818181818201,
                "tempo": 120.0
            },
            {
                "start_time": 29.159090909090907,
                "end_time": 29.259090909090908,
                "pitch": 41,
                "velocity": 101,
                "duration": 0.10000000000000142,
                "tempo": 120.0
            },
            {
                "start_time": 29.44772727272727,
                "end_time": 29.53181818181818,
                "pitch": 41,
                "velocity": 101,
                "duration": 0.08409090909091077,
                "tempo": 120.0
            },
            {
                "start_time": 29.584090909090907,
                "end_time": 29.668181818181818,
                "pitch": 41,
                "velocity": 101,
                "duration": 0.08409090909091077,
                "tempo": 120.0
            },
            {
                "start_time": 29.720454545454544,
                "end_time": 29.818181818181817,
                "pitch": 41,
                "velocity": 101,
                "duration": 0.09772727272727266,
                "tempo": 120.0
            },
            {
                "start_time": 30.004545454545454,
                "end_time": 30.086363636363636,
                "pitch": 41,
                "velocity": 101,
                "duration": 0.08181818181818201,
                "tempo": 120.0
            },
            {
                "start_time": 30.136363636363633,
                "end_time": 30.236363636363635,
                "pitch": 41,
                "velocity": 101,
                "duration": 0.10000000000000142,
                "tempo": 120.0
            },
            {
                "start_time": 28.472727272727273,
                "end_time": 30.270454545454545,
                "pitch": 53,
                "velocity": 101,
                "duration": 1.797727272727272,
                "tempo": 120.0
            },
            {
                "start_time": 30.270454545454545,
                "end_time": 30.368181818181817,
                "pitch": 48,
                "velocity": 101,
                "duration": 0.09772727272727266,
                "tempo": 120.0
            },
            {
                "start_time": 30.270454545454545,
                "end_time": 30.63181818181818,
                "pitch": 53,
                "velocity": 101,
                "duration": 0.36136363636363455,
                "tempo": 120.0
            },
            {
                "start_time": 30.549999999999997,
                "end_time": 30.63181818181818,
                "pitch": 53,
                "velocity": 101,
                "duration": 0.08181818181818201,
                "tempo": 120.0
            },
            {
                "start_time": 30.679545454545455,
                "end_time": 30.779545454545453,
                "pitch": 53,
                "velocity": 101,
                "duration": 0.09999999999999787,
                "tempo": 120.0
            },
            {
                "start_time": 30.813636363636363,
                "end_time": 30.911363636363635,
                "pitch": 41,
                "velocity": 101,
                "duration": 0.09772727272727266,
                "tempo": 120.0
            },
            {
                "start_time": 31.095454545454544,
                "end_time": 31.179545454545455,
                "pitch": 41,
                "velocity": 101,
                "duration": 0.08409090909091077,
                "tempo": 120.0
            },
            {
                "start_time": 31.229545454545452,
                "end_time": 31.329545454545453,
                "pitch": 41,
                "velocity": 101,
                "duration": 0.10000000000000142,
                "tempo": 120.0
            },
            {
                "start_time": 31.363636363636363,
                "end_time": 31.46363636363636,
                "pitch": 41,
                "velocity": 101,
                "duration": 0.09999999999999787,
                "tempo": 120.0
            },
            {
                "start_time": 31.652272727272727,
                "end_time": 31.736363636363635,
                "pitch": 41,
                "velocity": 101,
                "duration": 0.08409090909090722,
                "tempo": 120.0
            },
            {
                "start_time": 31.78863636363636,
                "end_time": 31.888636363636362,
                "pitch": 41,
                "velocity": 101,
                "duration": 0.10000000000000142,
                "tempo": 120.0
            },
            {
                "start_time": 31.924999999999997,
                "end_time": 32.02272727272727,
                "pitch": 41,
                "velocity": 101,
                "duration": 0.09772727272727622,
                "tempo": 120.0
            },
            {
                "start_time": 32.20909090909091,
                "end_time": 32.29090909090909,
                "pitch": 41,
                "velocity": 101,
                "duration": 0.08181818181817846,
                "tempo": 120.0
            },
            {
                "start_time": 30.549999999999997,
                "end_time": 32.44090909090909,
                "pitch": 48,
                "velocity": 101,
                "duration": 1.8909090909090907,
                "tempo": 120.0
            },
            {
                "start_time": 32.340909090909086,
                "end_time": 32.44090909090909,
                "pitch": 48,
                "velocity": 101,
                "duration": 0.10000000000000142,
                "tempo": 120.0
            },
            {
                "start_time": 28.60681818181818,
                "end_time": 32.475,
                "pitch": 36,
                "velocity": 101,
                "duration": 3.868181818181821,
                "tempo": 120.0
            },
            {
                "start_time": 32.475,
                "end_time": 32.574999999999996,
                "pitch": 41,
                "velocity": 101,
                "duration": 0.09999999999999432,
                "tempo": 120.0
            },
            {
                "start_time": 32.75909090909091,
                "end_time": 32.84318181818182,
                "pitch": 41,
                "velocity": 101,
                "duration": 0.08409090909091077,
                "tempo": 120.0
            },
            {
                "start_time": 32.340909090909086,
                "end_time": 32.893181818181816,
                "pitch": 53,
                "velocity": 101,
                "duration": 0.5522727272727295,
                "tempo": 120.0
            },
            {
                "start_time": 32.893181818181816,
                "end_time": 32.99318181818182,
                "pitch": 48,
                "velocity": 101,
                "duration": 0.10000000000000142,
                "tempo": 120.0
            },
            {
                "start_time": 32.475,
                "end_time": 33.027272727272724,
                "pitch": 36,
                "velocity": 101,
                "duration": 0.5522727272727224,
                "tempo": 120.0
            },
            {
                "start_time": 33.027272727272724,
                "end_time": 33.125,
                "pitch": 41,
                "velocity": 101,
                "duration": 0.09772727272727622,
                "tempo": 120.0
            },
            {
                "start_time": 33.31136363636364,
                "end_time": 33.393181818181816,
                "pitch": 41,
                "velocity": 101,
                "duration": 0.08181818181817846,
                "tempo": 120.0
            },
            {
                "start_time": 33.44318181818181,
                "end_time": 33.543181818181814,
                "pitch": 41,
                "velocity": 101,
                "duration": 0.10000000000000142,
                "tempo": 120.0
            },
            {
                "start_time": 33.57727272727273,
                "end_time": 33.679545454545455,
                "pitch": 41,
                "velocity": 101,
                "duration": 0.10227272727272663,
                "tempo": 120.0
            },
            {
                "start_time": 33.86590909090909,
                "end_time": 33.949999999999996,
                "pitch": 41,
                "velocity": 101,
                "duration": 0.08409090909090366,
                "tempo": 120.0
            },
            {
                "start_time": 34.002272727272725,
                "end_time": 34.10454545454545,
                "pitch": 41,
                "velocity": 101,
                "duration": 0.10227272727272663,
                "tempo": 120.0
            },
            {
                "start_time": 34.138636363636365,
                "end_time": 34.236363636363635,
                "pitch": 41,
                "velocity": 101,
                "duration": 0.09772727272726911,
                "tempo": 120.0
            },
            {
                "start_time": 34.418181818181814,
                "end_time": 34.51590909090909,
                "pitch": 41,
                "velocity": 101,
                "duration": 0.09772727272727622,
                "tempo": 120.0
            },
            {
                "start_time": 34.54772727272727,
                "end_time": 34.64545454545454,
                "pitch": 41,
                "velocity": 101,
                "duration": 0.09772727272726911,
                "tempo": 120.0
            },
            {
                "start_time": 32.893181818181816,
                "end_time": 34.695454545454545,
                "pitch": 53,
                "velocity": 101,
                "duration": 1.8022727272727295,
                "tempo": 120.0
            },
            {
                "start_time": 34.695454545454545,
                "end_time": 34.78181818181818,
                "pitch": 48,
                "velocity": 101,
                "duration": 0.08636363636363598,
                "tempo": 120.0
            },
            {
                "start_time": 34.695454545454545,
                "end_time": 35.07727272727273,
                "pitch": 53,
                "velocity": 101,
                "duration": 0.3818181818181827,
                "tempo": 120.0
            },
            {
                "start_time": 34.97272727272727,
                "end_time": 35.07727272727273,
                "pitch": 53,
                "velocity": 101,
                "duration": 0.10454545454545894,
                "tempo": 120.0
            },
            {
                "start_time": 35.111363636363635,
                "end_time": 35.215909090909086,
                "pitch": 53,
                "velocity": 101,
                "duration": 0.10454545454545183,
                "tempo": 120.0
            },
            {
                "start_time": 26.136363636363637,
                "end_time": 35.35,
                "pitch": 43,
                "velocity": 101,
                "duration": 9.213636363636365,
                "tempo": 120.0
            },
            {
                "start_time": 35.268181818181816,
                "end_time": 35.35,
                "pitch": 43,
                "velocity": 101,
                "duration": 0.08181818181818556,
                "tempo": 120.0
            },
            {
                "start_time": 35.53636363636363,
                "end_time": 35.63409090909091,
                "pitch": 43,
                "velocity": 101,
                "duration": 0.09772727272727622,
                "tempo": 120.0
            }
        ]
    }
}