{
    "track_id": "02 Moon Light Sonata",
    "mood": "sad",
    "instruments": {
        "Electric Piano 1": [
            {
                "start_time": 0.011363636363636364,
                "end_time": 2.7204545454545452,
                "pitch": 25,
                "velocity": 80,
                "duration": 2.709090909090909,
                "tempo": 120.0
            },
            {
                "start_time": 2.7727272727272725,
                "end_time": 5.515909090909091,
                "pitch": 23,
                "velocity": 80,
                "duration": 2.743181818181818,
                "tempo": 120.0
            },
            {
                "start_time": 5.568181818181818,
                "end_time": 6.931818181818182,
                "pitch": 21,
                "velocity": 80,
                "duration": 1.3636363636363633,
                "tempo": 120.0
            },
            {
                "start_time": 7.0,
                "end_time": 8.331818181818182,
                "pitch": 18,
                "velocity": 80,
                "duration": 1.331818181818182,
                "tempo": 120.0
            },
            {
                "start_time": 8.4,
                "end_time": 9.729545454545454,
                "pitch": 20,
                "velocity": 80,
                "duration": 1.3295454545454533,
                "tempo": 120.0
            },
            {
                "start_time": 9.797727272727272,
                "end_time": 11.154545454545454,
                "pitch": 20,
                "velocity": 80,
                "duration": 1.3568181818181824,
                "tempo": 120.0
            },
            {
                "start_time": 11.206818181818182,
                "end_time": 13.95,
                "pitch": 25,
                "velocity": 80,
                "duration": 2.7431818181818173,
                "tempo": 120.0
            },
            {
                "start_time": 14.002272727272727,
                "end_time": 16.76590909090909,
                "pitch": 24,
                "velocity": 80,
                "duration": 2.7636363636363637,
                "tempo": 120.0
            },
            {
                "start_time": 16.834090909090907,
                "end_time": 18.16590909090909,
                "pitch": 25,
                "velocity": 80,
                "duration": 1.331818181818182,
                "tempo": 120.0
            },
            {
                "start_time": 18.23181818181818,
                "end_time": 19.579545454545453,
                "pitch": 18,
                "velocity": 64,
                "duration": 1.3477272727272727,
                "tempo": 120.0
            },
            {
                "start_time": 19.629545454545454,
                "end_time": 20.986363636363635,
                "pitch": 23,
                "velocity": 64,
                "duration": 1.3568181818181806,
                "tempo": 120.0
            },
            {
                "start_time": 21.038636363636364,
                "end_time": 22.384090909090908,
                "pitch": 23,
                "velocity": 80,
                "duration": 1.345454545454544,
                "tempo": 120.0
            },
            {
                "start_time": 22.436363636363634,
                "end_time": 25.202272727272724,
                "pitch": 28,
                "velocity": 64,
                "duration": 2.7659090909090907,
                "tempo": 120.0
            },
            {
                "start_time": 25.27272727272727,
                "end_time": 28.01590909090909,
                "pitch": 28,
                "velocity": 80,
                "duration": 2.743181818181821,
                "tempo": 120.0
            },
            {
                "start_time": 28.068181818181817,
                "end_time": 30.82272727272727,
                "pitch": 26,
                "velocity": 64,
                "duration": 2.754545454545454,
                "tempo": 120.0
            },
            {
                "start_time": 30.875,
                "end_time": 31.51590909090909,
                "pitch": 24,
                "velocity": 80,
                "duration": 0.6409090909090907,
                "tempo": 120.0
            },
            {
                "start_time": 31.568181818181817,
                "end_time": 32.220454545454544,
                "pitch": 23,
                "velocity": 64,
                "duration": 0.6522727272727273,
                "tempo": 120.0
            },
            {
                "start_time": 32.288636363636364,
                "end_time": 33.627272727272725,
                "pitch": 22,
                "velocity": 64,
                "duration": 1.3386363636363612,
                "tempo": 120.0
            },
            {
                "start_time": 33.695454545454545,
                "end_time": 35.03409090909091,
                "pitch": 23,
                "velocity": 80,
                "duration": 1.3386363636363612,
                "tempo": 120.0
            },
            {
                "start_time": 36.502272727272725,
                "end_time": 37.84772727272727,
                "pitch": 30,
                "velocity": 80,
                "duration": 1.345454545454544,
                "tempo": 120.0
            },
            {
                "start_time": 37.9,
                "end_time": 39.24772727272727,
                "pitch": 18,
                "velocity": 80,
                "duration": 1.347727272727269,
                "tempo": 120.0
            },
            {
                "start_time": 39.29772727272727,
                "end_time": 42.76363636363636,
                "pitch": 23,
                "velocity": 80,
                "duration": 3.4659090909090864,
                "tempo": 120.0
            },
            {
                "start_time": 42.834090909090904,
                "end_time": 43.459090909090904,
                "pitch": 28,
                "velocity": 80,
                "duration": 0.625,
                "tempo": 120.0
            },
            {
                "start_time": 43.527272727272724,
                "end_time": 44.163636363636364,
                "pitch": 31,
                "velocity": 101,
                "duration": 0.6363636363636402,
                "tempo": 120.0
            },
            {
                "start_time": 44.23181818181818,
                "end_time": 44.86818181818182,
                "pitch": 28,
                "velocity": 64,
                "duration": 0.6363636363636402,
                "tempo": 120.0
            },
            {
                "start_time": 44.93636363636364,
                "end_time": 48.38409090909091,
                "pitch": 23,
                "velocity": 80,
                "duration": 3.4477272727272705,
                "tempo": 120.0
            },
            {
                "start_time": 48.43636363636364,
                "end_time": 49.07954545454545,
                "pitch": 28,
                "velocity": 80,
                "duration": 0.6431818181818159,
                "tempo": 120.0
            },
            {
                "start_time": 49.12954545454545,
                "end_time": 49.78409090909091,
                "pitch": 31,
                "velocity": 101,
                "duration": 0.6545454545454561,
                "tempo": 120.0
            },
            {
                "start_time": 49.85454545454545,
                "end_time": 50.49545454545454,
                "pitch": 28,
                "velocity": 64,
                "duration": 0.6409090909090907,
                "tempo": 120.0
            },
            {
                "start_time": 50.56363636363636,
                "end_time": 51.893181818181816,
                "pitch": 23,
                "velocity": 80,
                "duration": 1.3295454545454533,
                "tempo": 120.0
            },
            {
                "start_time": 51.961363636363636,
                "end_time": 53.29090909090909,
                "pitch": 20,
                "velocity": 80,
                "duration": 1.3295454545454533,
                "tempo": 120.0
            },
            {
                "start_time": 53.35909090909091,
                "end_time": 54.715909090909086,
                "pitch": 16,
                "velocity": 80,
                "duration": 1.356818181818177,
                "tempo": 120.0
            },
            {
                "start_time": 54.768181818181816,
                "end_time": 56.11363636363636,
                "pitch": 18,
                "velocity": 64,
                "duration": 1.345454545454544,
                "tempo": 120.0
            },
            {
                "start_time": 56.16590909090909,
                "end_time": 57.51136363636363,
                "pitch": 23,
                "velocity": 80,
                "duration": 1.345454545454544,
                "tempo": 120.0
            },
            {
                "start_time": 57.56363636363636,
                "end_time": 58.929545454545455,
                "pitch": 24,
                "velocity": 101,
                "duration": 1.365909090909092,
                "tempo": 120.0
            },
            {
                "start_time": 58.99772727272727,
                "end_time": 60.32727272727272,
                "pitch": 25,
                "velocity": 80,
                "duration": 1.3295454545454533,
                "tempo": 120.0
            },
            {
                "start_time": 60.39545454545454,
                "end_time": 61.724999999999994,
                "pitch": 25,
                "velocity": 80,
                "duration": 1.3295454545454533,
                "tempo": 120.0
            },
            {
                "start_time": 61.793181818181814,
                "end_time": 64.53863636363636,
                "pitch": 18,
                "velocity": 80,
                "duration": 2.7454545454545425,
                "tempo": 120.0
            },
            {
                "start_time": 64.58863636363635,
                "end_time": 67.36363636363636,
                "pitch": 29,
                "velocity": 80,
                "duration": 2.7750000000000057,
                "tempo": 120.0
            },
            {
                "start_time": 67.43181818181817,
                "end_time": 68.76136363636363,
                "pitch": 30,
                "velocity": 80,
                "duration": 1.3295454545454533,
                "tempo": 120.0
            },
            {
                "start_time": 68.82954545454545,
                "end_time": 69.45454545454545,
                "pitch": 27,
                "velocity": 64,
                "duration": 0.625,
                "tempo": 120.0
            },
            {
                "start_time": 69.52272727272727,
                "end_time": 70.1590909090909,
                "pitch": 25,
                "velocity": 64,
                "duration": 0.6363636363636402,
                "tempo": 120.0
            },
            {
                "start_time": 70.22727272727272,
                "end_time": 72.27727272727272,
                "pitch": 24,
                "velocity": 80,
                "duration": 2.049999999999997,
                "tempo": 120.0
            },
            {
                "start_time": 72.32954545454545,
                "end_time": 72.97272727272727,
                "pitch": 24,
                "velocity": 80,
                "duration": 0.6431818181818159,
                "tempo": 120.0
            },
            {
                "start_time": 73.02272727272727,
                "end_time": 74.37954545454545,
                "pitch": 25,
                "velocity": 64,
                "duration": 1.3568181818181841,
                "tempo": 120.0
            },
            {
                "start_time": 74.43181818181817,
                "end_time": 75.07727272727273,
                "pitch": 18,
                "velocity": 80,
                "duration": 0.6454545454545553,
                "tempo": 120.0
            },
            {
                "start_time": 75.14772727272727,
                "end_time": 75.78863636363636,
                "pitch": 19,
                "velocity": 64,
                "duration": 0.6409090909090907,
                "tempo": 120.0
            },
            {
                "start_time": 75.85909090909091,
                "end_time": 78.59545454545454,
                "pitch": 20,
                "velocity": 80,
                "duration": 2.7363636363636346,
                "tempo": 120.0
            },
            {
                "start_time": 78.66363636363636,
                "end_time": 81.4090909090909,
                "pitch": 20,
                "velocity": 80,
                "duration": 2.7454545454545496,
                "tempo": 120.0
            },
            {
                "start_time": 81.46136363636363,
                "end_time": 84.22272727272727,
                "pitch": 20,
                "velocity": 80,
                "duration": 2.7613636363636402,
                "tempo": 120.0
            },
            {
                "start_time": 84.29318181818181,
                "end_time": 87.02272727272727,
                "pitch": 20,
                "velocity": 80,
                "duration": 2.729545454545459,
                "tempo": 120.0
            },
            {
                "start_time": 87.08863636363635,
                "end_time": 89.84318181818182,
                "pitch": 20,
                "velocity": 80,
                "duration": 2.7545454545454646,
                "tempo": 120.0
            },
            {
                "start_time": 89.89545454545454,
                "end_time": 92.64999999999999,
                "pitch": 20,
                "velocity": 80,
                "duration": 2.7545454545454504,
                "tempo": 120.0
            },
            {
                "start_time": 92.71818181818182,
                "end_time": 95.45681818181818,
                "pitch": 20,
                "velocity": 80,
                "duration": 2.7386363636363598,
                "tempo": 120.0
            },
            {
                "start_time": 95.52499999999999,
                "end_time": 103.89318181818182,
                "pitch": 20,
                "velocity": 80,
                "duration": 8.368181818181824,
                "tempo": 120.0
            },
            {
                "start_time": 103.96136363636363,
                "end_time": 106.70681818181818,
                "pitch": 20,
                "velocity": 80,
                "duration": 2.7454545454545496,
                "tempo": 120.0
            },
            {
                "start_time": 106.75681818181818,
                "end_time": 109.52045454545454,
                "pitch": 20,
                "velocity": 80,
                "duration": 2.7636363636363654,
                "tempo": 120.0
            },
            {
                "start_time": 109.59090909090908,
                "end_time": 110.93181818181817,
                "pitch": 20,
                "velocity": 80,
                "duration": 1.3409090909090935,
                "tempo": 120.0
            },
            {
                "start_time": 111.0,
                "end_time": 112.32954545454545,
                "pitch": 21,
                "velocity": 64,
                "duration": 1.3295454545454533,
                "tempo": 120.0
            },
            {
                "start_time": 112.39772727272727,
                "end_time": 113.74545454545454,
                "pitch": 18,
                "velocity": 64,
                "duration": 1.347727272727269,
                "tempo": 120.0
            },
            {
                "start_time": 113.79545454545455,
                "end_time": 115.14318181818182,
                "pitch": 20,
                "velocity": 64,
                "duration": 1.347727272727269,
                "tempo": 120.0
            },
            {
                "start_time": 115.19545454545454,
                "end_time": 117.94999999999999,
                "pitch": 25,
                "velocity": 80,
                "duration": 2.7545454545454504,
                "tempo": 120.0
            },
            {
                "start_time": 118.01818181818182,
                "end_time": 120.7590909090909,
                "pitch": 24,
                "velocity": 80,
                "duration": 2.740909090909085,
                "tempo": 120.0
            },
            {
                "start_time": 120.82499999999999,
                "end_time": 122.18181818181817,
                "pitch": 25,
                "velocity": 80,
                "duration": 1.3568181818181841,
                "tempo": 120.0
            },
            {
                "start_time": 122.23409090909091,
                "end_time": 123.57954545454545,
                "pitch": 18,
                "velocity": 64,
                "duration": 1.345454545454544,
                "tempo": 120.0
            },
            {
                "start_time": 123.63181818181818,
                "end_time": 124.97954545454544,
                "pitch": 23,
                "velocity": 80,
                "duration": 1.347727272727269,
                "tempo": 120.0
            },
            {
                "start_time": 125.02954545454544,
                "end_time": 126.37727272727273,
                "pitch": 23,
                "velocity": 101,
                "duration": 1.3477272727272833,
                "tempo": 120.0
            },
            {
                "start_time": 126.44545454545454,
                "end_time": 129.19545454545454,
                "pitch": 28,
                "velocity": 80,
                "duration": 2.75,
                "tempo": 120.0
            },
            {
                "start_time": 129.26363636363635,
                "end_time": 132.0181818181818,
                "pitch": 27,
                "velocity": 80,
                "duration": 2.7545454545454504,
                "tempo": 120.0
            },
            {
                "start_time": 132.07045454545454,
                "end_time": 133.41590909090908,
                "pitch": 28,
                "velocity": 80,
                "duration": 1.345454545454544,
                "tempo": 120.0
            },
            {
                "start_time": 133.46818181818182,
                "end_time": 134.1090909090909,
                "pitch": 27,
                "velocity": 64,
                "duration": 0.6409090909090764,
                "tempo": 120.0
            },
            {
                "start_time": 134.16136363636363,
                "end_time": 134.81363636363636,
                "pitch": 25,
                "velocity": 64,
                "duration": 0.6522727272727309,
                "tempo": 120.0
            },
            {
                "start_time": 134.88181818181818,
                "end_time": 136.2340909090909,
                "pitch": 24,
                "velocity": 64,
                "duration": 1.3522727272727195,
                "tempo": 120.0
            },
            {
                "start_time": 136.3022727272727,
                "end_time": 137.63181818181818,
                "pitch": 25,
                "velocity": 64,
                "duration": 1.3295454545454675,
                "tempo": 120.0
            },
            {
                "start_time": 137.7022727272727,
                "end_time": 139.04772727272726,
                "pitch": 18,
                "velocity": 80,
                "duration": 1.345454545454544,
                "tempo": 120.0
            },
            {
                "start_time": 139.1,
                "end_time": 140.44772727272726,
                "pitch": 20,
                "velocity": 64,
                "duration": 1.347727272727269,
                "tempo": 120.0
            },
            {
                "start_time": 140.49772727272727,
                "end_time": 143.96363636363637,
                "pitch": 25,
                "velocity": 80,
                "duration": 3.4659090909090935,
                "tempo": 120.0
            },
            {
                "start_time": 144.03181818181818,
                "end_time": 144.6590909090909,
                "pitch": 30,
                "velocity": 80,
                "duration": 0.6272727272727252,
                "tempo": 120.0
            },
            {
                "start_time": 144.72727272727272,
                "end_time": 145.36136363636362,
                "pitch": 33,
                "velocity": 101,
                "duration": 0.6340909090909008,
                "tempo": 120.0
            },
            {
                "start_time": 145.4318181818182,
                "end_time": 146.0659090909091,
                "pitch": 30,
                "velocity": 64,
                "duration": 0.6340909090909008,
                "tempo": 120.0
            },
            {
                "start_time": 146.13636363636363,
                "end_time": 149.5840909090909,
                "pitch": 25,
                "velocity": 80,
                "duration": 3.4477272727272634,
                "tempo": 120.0
            },
            {
                "start_time": 149.6340909090909,
                "end_time": 150.27954545454546,
                "pitch": 30,
                "velocity": 80,
                "duration": 0.6454545454545553,
                "tempo": 120.0
            },
            {
                "start_time": 150.32954545454544,
                "end_time": 150.98181818181817,
                "pitch": 33,
                "velocity": 101,
                "duration": 0.6522727272727309,
                "tempo": 120.0
            },
            {
                "start_time": 151.0340909090909,
                "end_time": 151.6772727272727,
                "pitch": 30,
                "velocity": 64,
                "duration": 0.6431818181818016,
                "tempo": 120.0
            },
            {
                "start_time": 151.72727272727272,
                "end_time": 153.09545454545454,
                "pitch": 25,
                "velocity": 80,
                "duration": 1.3681818181818244,
                "tempo": 120.0
            },
            {
                "start_time": 153.16363636363636,
                "end_time": 154.49545454545455,
                "pitch": 18,
                "velocity": 80,
                "duration": 1.3318181818181927,
                "tempo": 120.0
            },
            {
                "start_time": 154.56363636363636,
                "end_time": 156.61363636363635,
                "pitch": 27,
                "velocity": 64,
                "duration": 2.049999999999983,
                "tempo": 120.0
            },
            {
                "start_time": 156.66590909090908,
                "end_time": 157.3181818181818,
                "pitch": 28,
                "velocity": 80,
                "duration": 0.6522727272727309,
                "tempo": 120.0
            },
            {
                "start_time": 157.37045454545455,
                "end_time": 158.01136363636363,
                "pitch": 25,
                "velocity": 64,
                "duration": 0.6409090909090764,
                "tempo": 120.0
            },
            {
                "start_time": 158.06363636363636,
                "end_time": 158.7159090909091,
                "pitch": 27,
                "velocity": 64,
                "duration": 0.6522727272727309,
                "tempo": 120.0
            },
            {
                "start_time": 158.76590909090908,
                "end_time": 159.41590909090908,
                "pitch": 24,
                "velocity": 64,
                "duration": 0.6500000000000057,
                "tempo": 120.0
            },
            {
                "start_time": 159.4659090909091,
                "end_time": 160.12045454545455,
                "pitch": 25,
                "velocity": 64,
                "duration": 0.6545454545454561,
                "tempo": 120.0
            },
            {
                "start_time": 160.17272727272726,
                "end_time": 161.52954545454546,
                "pitch": 21,
                "velocity": 80,
                "duration": 1.3568181818181984,
                "tempo": 120.0
            },
            {
                "start_time": 161.59772727272727,
                "end_time": 162.22954545454544,
                "pitch": 20,
                "velocity": 64,
                "duration": 0.6318181818181756,
                "tempo": 120.0
            },
            {
                "start_time": 162.29772727272726,
                "end_time": 162.9272727272727,
                "pitch": 18,
                "velocity": 64,
                "duration": 0.6295454545454504,
                "tempo": 120.0
            },
            {
                "start_time": 162.99772727272727,
                "end_time": 164.3272727272727,
                "pitch": 20,
                "velocity": 80,
                "duration": 1.329545454545439,
                "tempo": 120.0
            },
            {
                "start_time": 164.3931818181818,
                "end_time": 165.75227272727273,
                "pitch": 20,
                "velocity": 80,
                "duration": 1.3590909090909236,
                "tempo": 120.0
            },
            {
                "start_time": 165.8022727272727,
                "end_time": 168.54772727272726,
                "pitch": 25,
                "velocity": 80,
                "duration": 2.7454545454545496,
                "tempo": 120.0
            },
            {
                "start_time": 168.59772727272727,
                "end_time": 171.36136363636362,
                "pitch": 24,
                "velocity": 80,
                "duration": 2.7636363636363512,
                "tempo": 120.0
            },
            {
                "start_time": 171.42954545454543,
                "end_time": 174.17499999999998,
                "pitch": 25,
                "velocity": 80,
                "duration": 2.7454545454545496,
                "tempo": 120.0
            },
            {
                "start_time": 174.225,
                "end_time": 176.98181818181817,
                "pitch": 20,
                "velocity": 80,
                "duration": 2.7568181818181756,
                "tempo": 120.0
            },
            {
                "start_time": 177.03181818181818,
                "end_time": 179.79999999999998,
                "pitch": 25,
                "velocity": 80,
                "duration": 2.7681818181818016,
                "tempo": 120.0
            }
        ]
    }
}