{
    "track_id": "05 Old Master_s House",
    "mood": "sad",
    "instruments": {
        "Vibraphone": [
            {
                "start_time": 0.2636363636363636,
                "end_time": 0.31136363636363634,
                "pitch": 46,
                "velocity": 80,
                "duration": 0.04772727272727273,
                "tempo": 120.0
            },
            {
                "start_time": 0.6636363636363636,
                "end_time": 0.7136363636363636,
                "pitch": 46,
                "velocity": 80,
                "duration": 0.050000000000000044,
                "tempo": 120.0
            },
            {
                "start_time": 0.8636363636363636,
                "end_time": 0.9136363636363636,
                "pitch": 46,
                "velocity": 80,
                "duration": 0.04999999999999993,
                "tempo": 120.0
            },
            {
                "start_time": 1.0636363636363635,
                "end_time": 1.1136363636363635,
                "pitch": 48,
                "velocity": 80,
                "duration": 0.050000000000000044,
                "tempo": 120.0
            },
            {
                "start_time": 1.2636363636363637,
                "end_time": 1.3136363636363635,
                "pitch": 48,
                "velocity": 80,
                "duration": 0.04999999999999982,
                "tempo": 120.0
            },
            {
                "start_time": 1.6636363636363636,
                "end_time": 1.7136363636363636,
                "pitch": 48,
                "velocity": 80,
                "duration": 0.050000000000000044,
                "tempo": 120.0
            },
            {
                "start_time": 1.8659090909090907,
                "end_time": 1.9136363636363636,
                "pitch": 46,
                "velocity": 80,
                "duration": 0.04772727272727284,
                "tempo": 120.0
            },
            {
                "start_time": 2.268181818181818,
                "end_time": 2.318181818181818,
                "pitch": 46,
                "velocity": 80,
                "duration": 0.04999999999999982,
                "tempo": 120.0
            },
            {
                "start_time": 2.4681818181818183,
                "end_time": 2.518181818181818,
                "pitch": 46,
                "velocity": 80,
                "duration": 0.04999999999999982,
                "tempo": 120.0
            },
            {
                "start_time": 2.668181818181818,
                "end_time": 2.7181818181818183,
                "pitch": 48,
                "velocity": 80,
                "duration": 0.050000000000000266,
                "tempo": 120.0
            },
            {
                "start_time": 2.8727272727272726,
                "end_time": 2.925,
                "pitch": 48,
                "velocity": 80,
                "duration": 0.05227272727272725,
                "tempo": 120.0
            },
            {
                "start_time": 3.2795454545454543,
                "end_time": 3.3295454545454546,
                "pitch": 48,
                "velocity": 80,
                "duration": 0.050000000000000266,
                "tempo": 120.0
            },
            {
                "start_time": 3.4795454545454545,
                "end_time": 3.5295454545454543,
                "pitch": 46,
                "velocity": 80,
                "duration": 0.04999999999999982,
                "tempo": 120.0
            },
            {
                "start_time": 3.884090909090909,
                "end_time": 3.9318181818181817,
                "pitch": 46,
                "velocity": 80,
                "duration": 0.04772727272727284,
                "tempo": 120.0
            },
            {
                "start_time": 4.079545454545454,
                "end_time": 4.127272727272727,
                "pitch": 46,
                "velocity": 80,
                "duration": 0.04772727272727284,
                "tempo": 120.0
            },
            {
                "start_time": 4.2749999999999995,
                "end_time": 4.327272727272727,
                "pitch": 48,
                "velocity": 80,
                "duration": 0.05227272727272769,
                "tempo": 120.0
            },
            {
                "start_time": 4.4818181818181815,
                "end_time": 4.531818181818181,
                "pitch": 48,
                "velocity": 80,
                "duration": 0.04999999999999982,
                "tempo": 120.0
            },
            {
                "start_time": 4.888636363636364,
                "end_time": 4.9386363636363635,
                "pitch": 48,
                "velocity": 80,
                "duration": 0.04999999999999982,
                "tempo": 120.0
            },
            {
                "start_time": 5.090909090909091,
                "end_time": 5.140909090909091,
                "pitch": 46,
                "velocity": 80,
                "duration": 0.04999999999999982,
                "tempo": 120.0
            },
            {
                "start_time": 5.493181818181818,
                "end_time": 5.543181818181818,
                "pitch": 46,
                "velocity": 80,
                "duration": 0.04999999999999982,
                "tempo": 120.0
            },
            {
                "start_time": 5.693181818181818,
                "end_time": 5.743181818181818,
                "pitch": 46,
                "velocity": 80,
                "duration": 0.04999999999999982,
                "tempo": 120.0
            },
            {
                "start_time": 5.8954545454545455,
                "end_time": 5.9431818181818175,
                "pitch": 48,
                "velocity": 80,
                "duration": 0.04772727272727195,
                "tempo": 120.0
            },
            {
                "start_time": 6.095454545454545,
                "end_time": 6.1454545454545455,
                "pitch": 48,
                "velocity": 80,
                "duration": 0.05000000000000071,
                "tempo": 120.0
            },
            {
                "start_time": 6.497727272727272,
                "end_time": 6.547727272727273,
                "pitch": 48,
                "velocity": 80,
                "duration": 0.05000000000000071,
                "tempo": 120.0
            },
            {
                "start_time": 6.697727272727272,
                "end_time": 6.747727272727272,
                "pitch": 46,
                "velocity": 80,
                "duration": 0.04999999999999982,
                "tempo": 120.0
            },
            {
                "start_time": 7.1,
                "end_time": 7.152272727272727,
                "pitch": 46,
                "velocity": 80,
                "duration": 0.05227272727272769,
                "tempo": 120.0
            },
            {
                "start_time": 7.302272727272727,
                "end_time": 7.352272727272727,
                "pitch": 46,
                "velocity": 80,
                "duration": 0.04999999999999982,
                "tempo": 120.0
            },
            {
                "start_time": 7.504545454545454,
                "end_time": 7.554545454545454,
                "pitch": 48,
                "velocity": 80,
                "duration": 0.04999999999999982,
                "tempo": 120.0
            },
            {
                "start_time": 7.704545454545454,
                "end_time": 7.754545454545454,
                "pitch": 48,
                "velocity": 80,
                "duration": 0.04999999999999982,
                "tempo": 120.0
            },
            {
                "start_time": 8.10681818181818,
                "end_time": 8.156818181818181,
                "pitch": 48,
                "velocity": 80,
                "duration": 0.05000000000000071,
                "tempo": 120.0
            },
            {
                "start_time": 8.309090909090909,
                "end_time": 8.35681818181818,
                "pitch": 46,
                "velocity": 80,
                "duration": 0.04772727272727195,
                "tempo": 120.0
            },
            {
                "start_time": 8.709090909090909,
                "end_time": 8.759090909090908,
                "pitch": 46,
                "velocity": 80,
                "duration": 0.049999999999998934,
                "tempo": 120.0
            },
            {
                "start_time": 8.909090909090908,
                "end_time": 8.961363636363636,
                "pitch": 46,
                "velocity": 80,
                "duration": 0.05227272727272769,
                "tempo": 120.0
            },
            {
                "start_time": 9.111363636363636,
                "end_time": 9.161363636363635,
                "pitch": 48,
                "velocity": 80,
                "duration": 0.049999999999998934,
                "tempo": 120.0
            },
            {
                "start_time": 9.313636363636363,
                "end_time": 9.363636363636363,
                "pitch": 48,
                "velocity": 80,
                "duration": 0.05000000000000071,
                "tempo": 120.0
            },
            {
                "start_time": 9.71590909090909,
                "end_time": 9.76590909090909,
                "pitch": 48,
                "velocity": 80,
                "duration": 0.05000000000000071,
                "tempo": 120.0
            },
            {
                "start_time": 9.918181818181818,
                "end_time": 9.968181818181817,
                "pitch": 46,
                "velocity": 80,
                "duration": 0.049999999999998934,
                "tempo": 120.0
            },
            {
                "start_time": 10.318181818181818,
                "end_time": 10.368181818181817,
                "pitch": 46,
                "velocity": 80,
                "duration": 0.049999999999998934,
                "tempo": 120.0
            },
            {
                "start_time": 10.520454545454545,
                "end_time": 10.570454545454545,
                "pitch": 46,
                "velocity": 80,
                "duration": 0.05000000000000071,
                "tempo": 120.0
            },
            {
                "start_time": 10.722727272727273,
                "end_time": 10.772727272727272,
                "pitch": 48,
                "velocity": 80,
                "duration": 0.049999999999998934,
                "tempo": 120.0
            },
            {
                "start_time": 10.922727272727272,
                "end_time": 10.972727272727273,
                "pitch": 48,
                "velocity": 80,
                "duration": 0.05000000000000071,
                "tempo": 120.0
            },
            {
                "start_time": 11.327272727272726,
                "end_time": 11.377272727272727,
                "pitch": 48,
                "velocity": 80,
                "duration": 0.05000000000000071,
                "tempo": 120.0
            },
            {
                "start_time": 11.529545454545454,
                "end_time": 11.579545454545453,
                "pitch": 46,
                "velocity": 80,
                "duration": 0.049999999999998934,
                "tempo": 120.0
            },
            {
                "start_time": 11.938636363636363,
                "end_time": 11.988636363636363,
                "pitch": 46,
                "velocity": 80,
                "duration": 0.05000000000000071,
                "tempo": 120.0
            },
            {
                "start_time": 12.136363636363635,
                "end_time": 12.184090909090909,
                "pitch": 46,
                "velocity": 80,
                "duration": 0.04772727272727373,
                "tempo": 120.0
            },
            {
                "start_time": 12.331818181818182,
                "end_time": 12.384090909090908,
                "pitch": 48,
                "velocity": 80,
                "duration": 0.052272727272725916,
                "tempo": 120.0
            },
            {
                "start_time": 12.538636363636362,
                "end_time": 12.588636363636363,
                "pitch": 48,
                "velocity": 80,
                "duration": 0.05000000000000071,
                "tempo": 120.0
            },
            {
                "start_time": 12.945454545454545,
                "end_time": 12.995454545454544,
                "pitch": 48,
                "velocity": 80,
                "duration": 0.049999999999998934,
                "tempo": 120.0
            },
            {
                "start_time": 13.147727272727272,
                "end_time": 13.197727272727272,
                "pitch": 46,
                "velocity": 80,
                "duration": 0.05000000000000071,
                "tempo": 120.0
            },
            {
                "start_time": 13.549999999999999,
                "end_time": 13.597727272727273,
                "pitch": 46,
                "velocity": 80,
                "duration": 0.04772727272727373,
                "tempo": 120.0
            },
            {
                "start_time": 13.745454545454544,
                "end_time": 13.795454545454545,
                "pitch": 46,
                "velocity": 80,
                "duration": 0.05000000000000071,
                "tempo": 120.0
            },
            {
                "start_time": 13.943181818181818,
                "end_time": 13.993181818181817,
                "pitch": 48,
                "velocity": 80,
                "duration": 0.049999999999998934,
                "tempo": 120.0
            },
            {
                "start_time": 14.147727272727272,
                "end_time": 14.2,
                "pitch": 48,
                "velocity": 80,
                "duration": 0.05227272727272769,
                "tempo": 120.0
            },
            {
                "start_time": 14.554545454545455,
                "end_time": 14.604545454545454,
                "pitch": 48,
                "velocity": 80,
                "duration": 0.049999999999998934,
                "tempo": 120.0
            },
            {
                "start_time": 14.754545454545454,
                "end_time": 14.804545454545455,
                "pitch": 46,
                "velocity": 80,
                "duration": 0.05000000000000071,
                "tempo": 120.0
            },
            {
                "start_time": 15.156818181818181,
                "end_time": 15.20681818181818,
                "pitch": 46,
                "velocity": 80,
                "duration": 0.049999999999998934,
                "tempo": 120.0
            },
            {
                "start_time": 15.359090909090908,
                "end_time": 15.409090909090908,
                "pitch": 46,
                "velocity": 80,
                "duration": 0.05000000000000071,
                "tempo": 120.0
            },
            {
                "start_time": 15.561363636363636,
                "end_time": 15.611363636363636,
                "pitch": 48,
                "velocity": 80,
                "duration": 0.05000000000000071,
                "tempo": 120.0
            },
            {
                "start_time": 15.761363636363635,
                "end_time": 15.811363636363636,
                "pitch": 48,
                "velocity": 80,
                "duration": 0.05000000000000071,
                "tempo": 120.0
            },
            {
                "start_time": 16.16590909090909,
                "end_time": 16.21590909090909,
                "pitch": 48,
                "velocity": 80,
                "duration": 0.05000000000000071,
                "tempo": 120.0
            },
            {
                "start_time": 16.368181818181817,
                "end_time": 16.418181818181818,
                "pitch": 46,
                "velocity": 80,
                "duration": 0.05000000000000071,
                "tempo": 120.0
            },
            {
                "start_time": 16.770454545454545,
                "end_time": 16.820454545454545,
                "pitch": 46,
                "velocity": 80,
                "duration": 0.05000000000000071,
                "tempo": 120.0
            },
            {
                "start_time": 16.970454545454544,
                "end_time": 17.020454545454545,
                "pitch": 46,
                "velocity": 80,
                "duration": 0.05000000000000071,
                "tempo": 120.0
            },
            {
                "start_time": 17.170454545454543,
                "end_time": 17.220454545454544,
                "pitch": 48,
                "velocity": 80,
                "duration": 0.05000000000000071,
                "tempo": 120.0
            },
            {
                "start_time": 17.370454545454546,
                "end_time": 17.420454545454543,
                "pitch": 48,
                "velocity": 80,
                "duration": 0.04999999999999716,
                "tempo": 120.0
            },
            {
                "start_time": 17.772727272727273,
                "end_time": 17.82272727272727,
                "pitch": 48,
                "velocity": 80,
                "duration": 0.04999999999999716,
                "tempo": 120.0
            },
            {
                "start_time": 17.974999999999998,
                "end_time": 18.025,
                "pitch": 46,
                "velocity": 80,
                "duration": 0.05000000000000071,
                "tempo": 120.0
            },
            {
                "start_time": 18.375,
                "end_time": 18.425,
                "pitch": 46,
                "velocity": 80,
                "duration": 0.05000000000000071,
                "tempo": 120.0
            },
            {
                "start_time": 18.577272727272728,
                "end_time": 18.627272727272725,
                "pitch": 46,
                "velocity": 80,
                "duration": 0.04999999999999716,
                "tempo": 120.0
            },
            {
                "start_time": 18.779545454545453,
                "end_time": 18.829545454545453,
                "pitch": 48,
                "velocity": 80,
                "duration": 0.05000000000000071,
                "tempo": 120.0
            },
            {
                "start_time": 18.98409090909091,
                "end_time": 19.034090909090907,
                "pitch": 48,
                "velocity": 80,
                "duration": 0.04999999999999716,
                "tempo": 120.0
            },
            {
                "start_time": 19.39090909090909,
                "end_time": 19.44090909090909,
                "pitch": 48,
                "velocity": 80,
                "duration": 0.05000000000000071,
                "tempo": 120.0
            },
            {
                "start_time": 19.59090909090909,
                "end_time": 19.64090909090909,
                "pitch": 46,
                "velocity": 80,
                "duration": 0.05000000000000071,
                "tempo": 120.0
            },
            {
                "start_time": 19.99090909090909,
                "end_time": 20.038636363636364,
                "pitch": 46,
                "velocity": 80,
                "duration": 0.047727272727275505,
                "tempo": 120.0
            },
            {
                "start_time": 20.186363636363634,
                "end_time": 20.236363636363635,
                "pitch": 46,
                "velocity": 80,
                "duration": 0.05000000000000071,
                "tempo": 120.0
            },
            {
                "start_time": 20.384090909090908,
                "end_time": 20.43409090909091,
                "pitch": 48,
                "velocity": 80,
                "duration": 0.05000000000000071,
                "tempo": 120.0
            },
            {
                "start_time": 20.58863636363636,
                "end_time": 20.64090909090909,
                "pitch": 48,
                "velocity": 80,
                "duration": 0.05227272727272947,
                "tempo": 120.0
            },
            {
                "start_time": 20.995454545454546,
                "end_time": 21.045454545454543,
                "pitch": 48,
                "velocity": 80,
                "duration": 0.04999999999999716,
                "tempo": 120.0
            },
            {
                "start_time": 21.19772727272727,
                "end_time": 21.24772727272727,
                "pitch": 46,
                "velocity": 80,
                "duration": 0.05000000000000071,
                "tempo": 120.0
            },
            {
                "start_time": 21.597727272727273,
                "end_time": 21.647727272727273,
                "pitch": 46,
                "velocity": 80,
                "duration": 0.05000000000000071,
                "tempo": 120.0
            },
            {
                "start_time": 21.797727272727272,
                "end_time": 21.847727272727273,
                "pitch": 46,
                "velocity": 80,
                "duration": 0.05000000000000071,
                "tempo": 120.0
            },
            {
                "start_time": 22.0,
                "end_time": 22.049999999999997,
                "pitch": 48,
                "velocity": 80,
                "duration": 0.04999999999999716,
                "tempo": 120.0
            },
            {
                "start_time": 22.2,
                "end_time": 22.25,
                "pitch": 48,
                "velocity": 80,
                "duration": 0.05000000000000071,
                "tempo": 120.0
            },
            {
                "start_time": 22.602272727272727,
                "end_time": 22.652272727272727,
                "pitch": 48,
                "velocity": 80,
                "duration": 0.05000000000000071,
                "tempo": 120.0
            },
            {
                "start_time": 22.802272727272726,
                "end_time": 22.852272727272727,
                "pitch": 46,
                "velocity": 80,
                "duration": 0.05000000000000071,
                "tempo": 120.0
            },
            {
                "start_time": 23.206818181818182,
                "end_time": 23.254545454545454,
                "pitch": 46,
                "velocity": 80,
                "duration": 0.04772727272727195,
                "tempo": 120.0
            },
            {
                "start_time": 23.40681818181818,
                "end_time": 23.456818181818182,
                "pitch": 46,
                "velocity": 80,
                "duration": 0.05000000000000071,
                "tempo": 120.0
            },
            {
                "start_time": 23.60681818181818,
                "end_time": 23.65681818181818,
                "pitch": 48,
                "velocity": 80,
                "duration": 0.05000000000000071,
                "tempo": 120.0
            },
            {
                "start_time": 23.80681818181818,
                "end_time": 23.85681818181818,
                "pitch": 48,
                "velocity": 80,
                "duration": 0.05000000000000071,
                "tempo": 120.0
            },
            {
                "start_time": 24.209090909090907,
                "end_time": 24.259090909090908,
                "pitch": 48,
                "velocity": 80,
                "duration": 0.05000000000000071,
                "tempo": 120.0
            },
            {
                "start_time": 24.411363636363635,
                "end_time": 24.459090909090907,
                "pitch": 46,
                "velocity": 80,
                "duration": 0.04772727272727195,
                "tempo": 120.0
            },
            {
                "start_time": 24.811363636363634,
                "end_time": 24.861363636363635,
                "pitch": 46,
                "velocity": 80,
                "duration": 0.05000000000000071,
                "tempo": 120.0
            },
            {
                "start_time": 25.011363636363637,
                "end_time": 25.061363636363634,
                "pitch": 46,
                "velocity": 80,
                "duration": 0.04999999999999716,
                "tempo": 120.0
            },
            {
                "start_time": 25.21363636363636,
                "end_time": 25.263636363636362,
                "pitch": 48,
                "velocity": 80,
                "duration": 0.05000000000000071,
                "tempo": 120.0
            },
            {
                "start_time": 25.413636363636364,
                "end_time": 25.46363636363636,
                "pitch": 48,
                "velocity": 80,
                "duration": 0.04999999999999716,
                "tempo": 120.0
            },
            {
                "start_time": 25.813636363636363,
                "end_time": 25.863636363636363,
                "pitch": 48,
                "velocity": 80,
                "duration": 0.05000000000000071,
                "tempo": 120.0
            },
            {
                "start_time": 26.01590909090909,
                "end_time": 26.06590909090909,
                "pitch": 46,
                "velocity": 80,
                "duration": 0.05000000000000071,
                "tempo": 120.0
            },
            {
                "start_time": 26.418181818181818,
                "end_time": 26.468181818181815,
                "pitch": 46,
                "velocity": 80,
                "duration": 0.04999999999999716,
                "tempo": 120.0
            },
            {
                "start_time": 26.618181818181817,
                "end_time": 26.668181818181818,
                "pitch": 46,
                "velocity": 80,
                "duration": 0.05000000000000071,
                "tempo": 120.0
            },
            {
                "start_time": 26.818181818181817,
                "end_time": 26.868181818181817,
                "pitch": 48,
                "velocity": 80,
                "duration": 0.05000000000000071,
                "tempo": 120.0
            },
            {
                "start_time": 27.020454545454545,
                "end_time": 27.070454545454545,
                "pitch": 48,
                "velocity": 80,
                "duration": 0.05000000000000071,
                "tempo": 120.0
            },
            {
                "start_time": 27.422727272727272,
                "end_time": 27.472727272727273,
                "pitch": 48,
                "velocity": 80,
                "duration": 0.05000000000000071,
                "tempo": 120.0
            },
            {
                "start_time": 27.62272727272727,
                "end_time": 27.672727272727272,
                "pitch": 46,
                "velocity": 80,
                "duration": 0.05000000000000071,
                "tempo": 120.0
            },
            {
                "start_time": 28.034090909090907,
                "end_time": 28.081818181818182,
                "pitch": 46,
                "velocity": 80,
                "duration": 0.047727272727275505,
                "tempo": 120.0
            },
            {
                "start_time": 28.229545454545452,
                "end_time": 28.279545454545453,
                "pitch": 46,
                "velocity": 80,
                "duration": 0.05000000000000071,
                "tempo": 120.0
            },
            {
                "start_time": 28.427272727272726,
                "end_time": 28.477272727272727,
                "pitch": 48,
                "velocity": 80,
                "duration": 0.05000000000000071,
                "tempo": 120.0
            },
            {
                "start_time": 28.63181818181818,
                "end_time": 28.68181818181818,
                "pitch": 48,
                "velocity": 80,
                "duration": 0.05000000000000071,
                "tempo": 120.0
            },
            {
                "start_time": 29.03863636363636,
                "end_time": 29.086363636363636,
                "pitch": 48,
                "velocity": 80,
                "duration": 0.047727272727275505,
                "tempo": 120.0
            },
            {
                "start_time": 29.238636363636363,
                "end_time": 29.28863636363636,
                "pitch": 46,
                "velocity": 80,
                "duration": 0.04999999999999716,
                "tempo": 120.0
            },
            {
                "start_time": 29.64090909090909,
                "end_time": 29.688636363636363,
                "pitch": 46,
                "velocity": 80,
                "duration": 0.04772727272727195,
                "tempo": 120.0
            },
            {
                "start_time": 29.836363636363636,
                "end_time": 29.886363636363637,
                "pitch": 46,
                "velocity": 80,
                "duration": 0.05000000000000071,
                "tempo": 120.0
            },
            {
                "start_time": 30.034090909090907,
                "end_time": 30.084090909090907,
                "pitch": 48,
                "velocity": 80,
                "duration": 0.05000000000000071,
                "tempo": 120.0
            },
            {
                "start_time": 30.238636363636363,
                "end_time": 30.29090909090909,
                "pitch": 48,
                "velocity": 80,
                "duration": 0.052272727272725916,
                "tempo": 120.0
            },
            {
                "start_time": 30.64772727272727,
                "end_time": 30.69772727272727,
                "pitch": 48,
                "velocity": 80,
                "duration": 0.05000000000000071,
                "tempo": 120.0
            },
            {
                "start_time": 30.847727272727273,
                "end_time": 30.89772727272727,
                "pitch": 46,
                "velocity": 80,
                "duration": 0.04999999999999716,
                "tempo": 120.0
            },
            {
                "start_time": 31.24772727272727,
                "end_time": 31.299999999999997,
                "pitch": 46,
                "velocity": 80,
                "duration": 0.052272727272725916,
                "tempo": 120.0
            },
            {
                "start_time": 31.45,
                "end_time": 31.5,
                "pitch": 46,
                "velocity": 80,
                "duration": 0.05000000000000071,
                "tempo": 120.0
            },
            {
                "start_time": 31.652272727272727,
                "end_time": 31.702272727272724,
                "pitch": 48,
                "velocity": 80,
                "duration": 0.04999999999999716,
                "tempo": 120.0
            },
            {
                "start_time": 31.852272727272727,
                "end_time": 31.902272727272727,
                "pitch": 48,
                "velocity": 80,
                "duration": 0.05000000000000071,
                "tempo": 120.0
            },
            {
                "start_time": 32.252272727272725,
                "end_time": 32.30227272727272,
                "pitch": 48,
                "velocity": 80,
                "duration": 0.04999999999999716,
                "tempo": 120.0
            },
            {
                "start_time": 32.45454545454545,
                "end_time": 32.502272727272725,
                "pitch": 46,
                "velocity": 80,
                "duration": 0.04772727272727195,
                "tempo": 120.0
            },
            {
                "start_time": 32.85454545454545,
                "end_time": 32.904545454545456,
                "pitch": 46,
                "velocity": 80,
                "duration": 0.05000000000000426,
                "tempo": 120.0
            },
            {
                "start_time": 33.054545454545455,
                "end_time": 33.10454545454545,
                "pitch": 46,
                "velocity": 80,
                "duration": 0.04999999999999716,
                "tempo": 120.0
            },
            {
                "start_time": 33.25681818181818,
                "end_time": 33.30681818181818,
                "pitch": 48,
                "velocity": 80,
                "duration": 0.04999999999999716,
                "tempo": 120.0
            },
            {
                "start_time": 33.461363636363636,
                "end_time": 33.513636363636365,
                "pitch": 48,
                "velocity": 80,
                "duration": 0.05227272727272947,
                "tempo": 120.0
            },
            {
                "start_time": 33.86363636363636,
                "end_time": 33.913636363636364,
                "pitch": 48,
                "velocity": 80,
                "duration": 0.05000000000000426,
                "tempo": 120.0
            },
            {
                "start_time": 34.06136363636364,
                "end_time": 34.111363636363635,
                "pitch": 46,
                "velocity": 80,
                "duration": 0.04999999999999716,
                "tempo": 120.0
            },
            {
                "start_time": 34.470454545454544,
                "end_time": 34.52045454545454,
                "pitch": 46,
                "velocity": 80,
                "duration": 0.04999999999999716,
                "tempo": 120.0
            },
            {
                "start_time": 34.668181818181814,
                "end_time": 34.715909090909086,
                "pitch": 46,
                "velocity": 80,
                "duration": 0.04772727272727195,
                "tempo": 120.0
            },
            {
                "start_time": 34.86363636363636,
                "end_time": 34.91590909090909,
                "pitch": 48,
                "velocity": 80,
                "duration": 0.05227272727272947,
                "tempo": 120.0
            },
            {
                "start_time": 35.070454545454545,
                "end_time": 35.12045454545454,
                "pitch": 48,
                "velocity": 80,
                "duration": 0.04999999999999716,
                "tempo": 120.0
            },
            {
                "start_time": 35.475,
                "end_time": 35.525,
                "pitch": 48,
                "velocity": 80,
                "duration": 0.04999999999999716,
                "tempo": 120.0
            },
            {
                "start_time": 35.67727272727272,
                "end_time": 35.725,
                "pitch": 46,
                "velocity": 80,
                "duration": 0.04772727272727906,
                "tempo": 120.0
            },
            {
                "start_time": 36.07727272727273,
                "end_time": 36.125,
                "pitch": 46,
                "velocity": 80,
                "duration": 0.04772727272727195,
                "tempo": 120.0
            },
            {
                "start_time": 36.27272727272727,
                "end_time": 36.32272727272727,
                "pitch": 46,
                "velocity": 80,
                "duration": 0.04999999999999716,
                "tempo": 120.0
            },
            {
                "start_time": 36.470454545454544,
                "end_time": 36.52045454545454,
                "pitch": 48,
                "velocity": 80,
                "duration": 0.04999999999999716,
                "tempo": 120.0
            },
            {
                "start_time": 36.675,
                "end_time": 36.725,
                "pitch": 48,
                "velocity": 80,
                "duration": 0.05000000000000426,
                "tempo": 120.0
            },
            {
                "start_time": 37.08181818181818,
                "end_time": 37.12954545454545,
                "pitch": 48,
                "velocity": 80,
                "duration": 0.04772727272727195,
                "tempo": 120.0
            },
            {
                "start_time": 37.28181818181818,
                "end_time": 37.33181818181818,
                "pitch": 46,
                "velocity": 80,
                "duration": 0.04999999999999716,
                "tempo": 120.0
            }
        ],
        "Violin": [
            {
                "start_time": 0.2636363636363636,
                "end_time": 0.39545454545454545,
                "pitch": 76,
                "velocity": 64,
                "duration": 0.13181818181818183,
                "tempo": 120.0
            },
            {
                "start_time": 0.4636363636363636,
                "end_time": 0.4795454545454545,
                "pitch": 79,
                "velocity": 64,
                "duration": 0.015909090909090873,
                "tempo": 120.0
            },
            {
                "start_time": 0.4795454545454545,
                "end_time": 0.5954545454545455,
                "pitch": 79,
                "velocity": 64,
                "duration": 0.11590909090909096,
                "tempo": 120.0
            },
            {
                "start_time": 0.6636363636363636,
                "end_time": 0.7954545454545454,
                "pitch": 81,
                "velocity": 64,
                "duration": 0.13181818181818183,
                "tempo": 120.0
            },
            {
                "start_time": 0.8636363636363636,
                "end_time": 0.9954545454545454,
                "pitch": 84,
                "velocity": 64,
                "duration": 0.13181818181818172,
                "tempo": 120.0
            },
            {
                "start_time": 1.0636363636363635,
                "end_time": 1.1977272727272728,
                "pitch": 81,
                "velocity": 64,
                "duration": 0.13409090909090926,
                "tempo": 120.0
            },
            {
                "start_time": 1.2636363636363637,
                "end_time": 1.2795454545454545,
                "pitch": 79,
                "velocity": 64,
                "duration": 0.015909090909090873,
                "tempo": 120.0
            },
            {
                "start_time": 0.4795454545454545,
                "end_time": 1.2795454545454545,
                "pitch": 91,
                "velocity": 64,
                "duration": 0.8,
                "tempo": 120.0
            },
            {
                "start_time": 1.2795454545454545,
                "end_time": 1.3977272727272727,
                "pitch": 79,
                "velocity": 64,
                "duration": 0.11818181818181817,
                "tempo": 120.0
            },
            {
                "start_time": 1.4636363636363636,
                "end_time": 1.5977272727272727,
                "pitch": 76,
                "velocity": 64,
                "duration": 0.13409090909090904,
                "tempo": 120.0
            },
            {
                "start_time": 2.268181818181818,
                "end_time": 2.4,
                "pitch": 74,
                "velocity": 64,
                "duration": 0.13181818181818183,
                "tempo": 120.0
            },
            {
                "start_time": 2.668181818181818,
                "end_time": 2.8045454545454542,
                "pitch": 77,
                "velocity": 64,
                "duration": 0.13636363636363624,
                "tempo": 120.0
            },
            {
                "start_time": 3.0795454545454546,
                "end_time": 3.2136363636363634,
                "pitch": 81,
                "velocity": 64,
                "duration": 0.13409090909090882,
                "tempo": 120.0
            },
            {
                "start_time": 16.368181818181817,
                "end_time": 16.502272727272725,
                "pitch": 76,
                "velocity": 64,
                "duration": 0.13409090909090793,
                "tempo": 120.0
            },
            {
                "start_time": 16.568181818181817,
                "end_time": 16.586363636363636,
                "pitch": 79,
                "velocity": 64,
                "duration": 0.01818181818181941,
                "tempo": 120.0
            },
            {
                "start_time": 1.2795454545454545,
                "end_time": 16.586363636363636,
                "pitch": 91,
                "velocity": 64,
                "duration": 15.306818181818182,
                "tempo": 120.0
            },
            {
                "start_time": 16.586363636363636,
                "end_time": 16.702272727272728,
                "pitch": 79,
                "velocity": 64,
                "duration": 0.11590909090909207,
                "tempo": 120.0
            },
            {
                "start_time": 16.770454545454545,
                "end_time": 16.904545454545453,
                "pitch": 81,
                "velocity": 64,
                "duration": 0.13409090909090793,
                "tempo": 120.0
            },
            {
                "start_time": 16.970454545454544,
                "end_time": 17.104545454545455,
                "pitch": 84,
                "velocity": 64,
                "duration": 0.13409090909091148,
                "tempo": 120.0
            },
            {
                "start_time": 17.172727272727272,
                "end_time": 17.304545454545455,
                "pitch": 81,
                "velocity": 64,
                "duration": 0.13181818181818272,
                "tempo": 120.0
            },
            {
                "start_time": 17.370454545454546,
                "end_time": 17.386363636363637,
                "pitch": 79,
                "velocity": 64,
                "duration": 0.01590909090909065,
                "tempo": 120.0
            },
            {
                "start_time": 16.586363636363636,
                "end_time": 17.388636363636362,
                "pitch": 91,
                "velocity": 64,
                "duration": 0.8022727272727259,
                "tempo": 120.0
            },
            {
                "start_time": 17.386363636363637,
                "end_time": 17.388636363636362,
                "pitch": 91,
                "velocity": 64,
                "duration": 0.0022727272727252057,
                "tempo": 120.0
            },
            {
                "start_time": 17.388636363636362,
                "end_time": 17.504545454545454,
                "pitch": 79,
                "velocity": 64,
                "duration": 0.11590909090909207,
                "tempo": 120.0
            },
            {
                "start_time": 17.570454545454545,
                "end_time": 17.704545454545453,
                "pitch": 76,
                "velocity": 64,
                "duration": 0.13409090909090793,
                "tempo": 120.0
            },
            {
                "start_time": 18.375,
                "end_time": 18.509090909090908,
                "pitch": 74,
                "velocity": 64,
                "duration": 0.13409090909090793,
                "tempo": 120.0
            },
            {
                "start_time": 18.779545454545453,
                "end_time": 18.91590909090909,
                "pitch": 77,
                "velocity": 64,
                "duration": 0.1363636363636367,
                "tempo": 120.0
            },
            {
                "start_time": 19.19090909090909,
                "end_time": 19.32272727272727,
                "pitch": 81,
                "velocity": 64,
                "duration": 0.13181818181817917,
                "tempo": 120.0
            },
            {
                "start_time": 32.45454545454545,
                "end_time": 32.586363636363636,
                "pitch": 76,
                "velocity": 64,
                "duration": 0.13181818181818272,
                "tempo": 120.0
            },
            {
                "start_time": 32.654545454545456,
                "end_time": 32.67045454545455,
                "pitch": 79,
                "velocity": 64,
                "duration": 0.01590909090909065,
                "tempo": 120.0
            },
            {
                "start_time": 32.67045454545455,
                "end_time": 32.78636363636363,
                "pitch": 79,
                "velocity": 64,
                "duration": 0.11590909090908497,
                "tempo": 120.0
            },
            {
                "start_time": 32.85454545454545,
                "end_time": 32.98863636363636,
                "pitch": 81,
                "velocity": 64,
                "duration": 0.13409090909090793,
                "tempo": 120.0
            },
            {
                "start_time": 33.05681818181818,
                "end_time": 33.18863636363636,
                "pitch": 84,
                "velocity": 64,
                "duration": 0.13181818181818272,
                "tempo": 120.0
            },
            {
                "start_time": 33.25681818181818,
                "end_time": 33.393181818181816,
                "pitch": 81,
                "velocity": 64,
                "duration": 0.13636363636363313,
                "tempo": 120.0
            },
            {
                "start_time": 33.46363636363636,
                "end_time": 33.47954545454545,
                "pitch": 79,
                "velocity": 64,
                "duration": 0.01590909090909065,
                "tempo": 120.0
            },
            {
                "start_time": 32.67045454545455,
                "end_time": 33.47954545454545,
                "pitch": 91,
                "velocity": 64,
                "duration": 0.8090909090909051,
                "tempo": 120.0
            },
            {
                "start_time": 33.47954545454545,
                "end_time": 33.6,
                "pitch": 79,
                "velocity": 64,
                "duration": 0.12045454545454959,
                "tempo": 120.0
            },
            {
                "start_time": 33.668181818181814,
                "end_time": 33.79772727272727,
                "pitch": 76,
                "velocity": 64,
                "duration": 0.12954545454545752,
                "tempo": 120.0
            },
            {
                "start_time": 34.47272727272727,
                "end_time": 34.60227272727273,
                "pitch": 74,
                "velocity": 64,
                "duration": 0.12954545454545752,
                "tempo": 120.0
            },
            {
                "start_time": 34.86590909090909,
                "end_time": 35.0,
                "pitch": 77,
                "velocity": 64,
                "duration": 0.13409090909090793,
                "tempo": 120.0
            },
            {
                "start_time": 35.275,
                "end_time": 35.40909090909091,
                "pitch": 81,
                "velocity": 64,
                "duration": 0.13409090909090793,
                "tempo": 120.0
            }
        ],
        "Flute": [
            {
                "start_time": 4.129545454545454,
                "end_time": 4.497727272727272,
                "pitch": 63,
                "velocity": 40,
                "duration": 0.36818181818181817,
                "tempo": 120.0
            },
            {
                "start_time": 4.497727272727272,
                "end_time": 4.904545454545454,
                "pitch": 65,
                "velocity": 40,
                "duration": 0.4068181818181822,
                "tempo": 120.0
            },
            {
                "start_time": 4.904545454545454,
                "end_time": 4.922727272727273,
                "pitch": 67,
                "velocity": 40,
                "duration": 0.01818181818181852,
                "tempo": 120.0
            },
            {
                "start_time": 4.922727272727273,
                "end_time": 4.9386363636363635,
                "pitch": 67,
                "velocity": 40,
                "duration": 0.01590909090909065,
                "tempo": 120.0
            },
            {
                "start_time": 4.9386363636363635,
                "end_time": 5.343181818181818,
                "pitch": 67,
                "velocity": 40,
                "duration": 0.4045454545454543,
                "tempo": 120.0
            },
            {
                "start_time": 5.343181818181818,
                "end_time": 5.861363636363636,
                "pitch": 59,
                "velocity": 40,
                "duration": 0.5181818181818185,
                "tempo": 120.0
            },
            {
                "start_time": 5.861363636363636,
                "end_time": 6.331818181818181,
                "pitch": 57,
                "velocity": 40,
                "duration": 0.4704545454545448,
                "tempo": 120.0
            },
            {
                "start_time": 6.331818181818181,
                "end_time": 6.3977272727272725,
                "pitch": 55,
                "velocity": 40,
                "duration": 0.06590909090909136,
                "tempo": 120.0
            },
            {
                "start_time": 6.3977272727272725,
                "end_time": 6.547727272727273,
                "pitch": 55,
                "velocity": 40,
                "duration": 0.15000000000000036,
                "tempo": 120.0
            },
            {
                "start_time": 6.547727272727273,
                "end_time": 6.8999999999999995,
                "pitch": 53,
                "velocity": 40,
                "duration": 0.3522727272727266,
                "tempo": 120.0
            },
            {
                "start_time": 6.8999999999999995,
                "end_time": 7.236363636363636,
                "pitch": 51,
                "velocity": 40,
                "duration": 0.33636363636363686,
                "tempo": 120.0
            },
            {
                "start_time": 7.236363636363636,
                "end_time": 7.654545454545454,
                "pitch": 49,
                "velocity": 40,
                "duration": 0.418181818181818,
                "tempo": 120.0
            },
            {
                "start_time": 7.654545454545454,
                "end_time": 7.754545454545454,
                "pitch": 51,
                "velocity": 40,
                "duration": 0.09999999999999964,
                "tempo": 120.0
            },
            {
                "start_time": 4.129545454545454,
                "end_time": 7.754545454545454,
                "pitch": 60,
                "velocity": 40,
                "duration": 3.625,
                "tempo": 120.0
            },
            {
                "start_time": 7.754545454545454,
                "end_time": 7.972727272727273,
                "pitch": 54,
                "velocity": 40,
                "duration": 0.2181818181818187,
                "tempo": 120.0
            },
            {
                "start_time": 5.343181818181818,
                "end_time": 8.225,
                "pitch": 56,
                "velocity": 40,
                "duration": 2.881818181818182,
                "tempo": 120.0
            },
            {
                "start_time": 7.972727272727273,
                "end_time": 8.225,
                "pitch": 56,
                "velocity": 40,
                "duration": 0.252272727272727,
                "tempo": 120.0
            },
            {
                "start_time": 8.225,
                "end_time": 8.49090909090909,
                "pitch": 58,
                "velocity": 40,
                "duration": 0.26590909090909065,
                "tempo": 120.0
            },
            {
                "start_time": 7.754545454545454,
                "end_time": 8.809090909090909,
                "pitch": 60,
                "velocity": 40,
                "duration": 1.0545454545454547,
                "tempo": 120.0
            },
            {
                "start_time": 8.49090909090909,
                "end_time": 8.809090909090909,
                "pitch": 60,
                "velocity": 40,
                "duration": 0.31818181818181834,
                "tempo": 120.0
            },
            {
                "start_time": 8.809090909090909,
                "end_time": 8.961363636363636,
                "pitch": 62,
                "velocity": 40,
                "duration": 0.15227272727272734,
                "tempo": 120.0
            },
            {
                "start_time": 20.236363636363635,
                "end_time": 20.60681818181818,
                "pitch": 63,
                "velocity": 40,
                "duration": 0.37045454545454604,
                "tempo": 120.0
            },
            {
                "start_time": 5.343181818181818,
                "end_time": 21.013636363636362,
                "pitch": 65,
                "velocity": 40,
                "duration": 15.670454545454543,
                "tempo": 120.0
            },
            {
                "start_time": 20.60681818181818,
                "end_time": 21.013636363636362,
                "pitch": 65,
                "velocity": 40,
                "duration": 0.4068181818181813,
                "tempo": 120.0
            },
            {
                "start_time": 4.922727272727273,
                "end_time": 21.029545454545453,
                "pitch": 0,
                "velocity": 40,
                "duration": 16.10681818181818,
                "tempo": 120.0
            },
            {
                "start_time": 6.3977272727272725,
                "end_time": 21.029545454545453,
                "pitch": 67,
                "velocity": 40,
                "duration": 14.63181818181818,
                "tempo": 120.0
            },
            {
                "start_time": 21.013636363636362,
                "end_time": 21.029545454545453,
                "pitch": 67,
                "velocity": 40,
                "duration": 0.01590909090909065,
                "tempo": 120.0
            },
            {
                "start_time": 21.029545454545453,
                "end_time": 21.047727272727272,
                "pitch": 67,
                "velocity": 40,
                "duration": 0.01818181818181941,
                "tempo": 120.0
            },
            {
                "start_time": 4.9386363636363635,
                "end_time": 21.047727272727272,
                "pitch": 79,
                "velocity": 40,
                "duration": 16.10909090909091,
                "tempo": 120.0
            },
            {
                "start_time": 21.047727272727272,
                "end_time": 21.44772727272727,
                "pitch": 67,
                "velocity": 40,
                "duration": 0.3999999999999986,
                "tempo": 120.0
            },
            {
                "start_time": 21.44772727272727,
                "end_time": 21.96590909090909,
                "pitch": 59,
                "velocity": 40,
                "duration": 0.5181818181818194,
                "tempo": 120.0
            },
            {
                "start_time": 21.96590909090909,
                "end_time": 22.436363636363634,
                "pitch": 57,
                "velocity": 40,
                "duration": 0.4704545454545439,
                "tempo": 120.0
            },
            {
                "start_time": 6.547727272727273,
                "end_time": 22.502272727272725,
                "pitch": 55,
                "velocity": 40,
                "duration": 15.954545454545453,
                "tempo": 120.0
            },
            {
                "start_time": 22.436363636363634,
                "end_time": 22.502272727272725,
                "pitch": 55,
                "velocity": 40,
                "duration": 0.06590909090909136,
                "tempo": 120.0
            },
            {
                "start_time": 22.502272727272725,
                "end_time": 22.652272727272727,
                "pitch": 55,
                "velocity": 40,
                "duration": 0.15000000000000213,
                "tempo": 120.0
            },
            {
                "start_time": 6.547727272727273,
                "end_time": 22.652272727272727,
                "pitch": 66,
                "velocity": 40,
                "duration": 16.104545454545455,
                "tempo": 120.0
            },
            {
                "start_time": 22.652272727272727,
                "end_time": 23.004545454545454,
                "pitch": 53,
                "velocity": 40,
                "duration": 0.3522727272727266,
                "tempo": 120.0
            },
            {
                "start_time": 23.004545454545454,
                "end_time": 23.33863636363636,
                "pitch": 51,
                "velocity": 40,
                "duration": 0.3340909090909072,
                "tempo": 120.0
            },
            {
                "start_time": 23.33863636363636,
                "end_time": 23.75681818181818,
                "pitch": 49,
                "velocity": 40,
                "duration": 0.418181818181818,
                "tempo": 120.0
            },
            {
                "start_time": 23.75681818181818,
                "end_time": 23.85681818181818,
                "pitch": 51,
                "velocity": 40,
                "duration": 0.10000000000000142,
                "tempo": 120.0
            },
            {
                "start_time": 20.236363636363635,
                "end_time": 23.85681818181818,
                "pitch": 60,
                "velocity": 40,
                "duration": 3.620454545454546,
                "tempo": 120.0
            },
            {
                "start_time": 23.85681818181818,
                "end_time": 24.075,
                "pitch": 54,
                "velocity": 40,
                "duration": 0.2181818181818187,
                "tempo": 120.0
            },
            {
                "start_time": 21.44772727272727,
                "end_time": 24.325,
                "pitch": 56,
                "velocity": 40,
                "duration": 2.8772727272727288,
                "tempo": 120.0
            },
            {
                "start_time": 24.075,
                "end_time": 24.325,
                "pitch": 56,
                "velocity": 40,
                "duration": 0.25,
                "tempo": 120.0
            },
            {
                "start_time": 24.325,
                "end_time": 24.59318181818182,
                "pitch": 58,
                "velocity": 40,
                "duration": 0.2681818181818194,
                "tempo": 120.0
            },
            {
                "start_time": 23.85681818181818,
                "end_time": 24.911363636363635,
                "pitch": 60,
                "velocity": 40,
                "duration": 1.0545454545454547,
                "tempo": 120.0
            },
            {
                "start_time": 24.59318181818182,
                "end_time": 24.911363636363635,
                "pitch": 60,
                "velocity": 40,
                "duration": 0.31818181818181657,
                "tempo": 120.0
            },
            {
                "start_time": 24.911363636363635,
                "end_time": 25.063636363636363,
                "pitch": 62,
                "velocity": 40,
                "duration": 0.15227272727272734,
                "tempo": 120.0
            },
            {
                "start_time": 36.32272727272727,
                "end_time": 36.69090909090909,
                "pitch": 63,
                "velocity": 40,
                "duration": 0.3681818181818173,
                "tempo": 120.0
            },
            {
                "start_time": 21.44772727272727,
                "end_time": 37.09772727272727,
                "pitch": 65,
                "velocity": 40,
                "duration": 15.649999999999999,
                "tempo": 120.0
            },
            {
                "start_time": 36.69090909090909,
                "end_time": 37.09772727272727,
                "pitch": 65,
                "velocity": 40,
                "duration": 0.4068181818181813,
                "tempo": 120.0
            },
            {
                "start_time": 21.029545454545453,
                "end_time": 37.11363636363636,
                "pitch": 0,
                "velocity": 40,
                "duration": 16.084090909090907,
                "tempo": 120.0
            },
            {
                "start_time": 22.502272727272725,
                "end_time": 37.11363636363636,
                "pitch": 67,
                "velocity": 40,
                "duration": 14.611363636363635,
                "tempo": 120.0
            },
            {
                "start_time": 37.09772727272727,
                "end_time": 37.11363636363636,
                "pitch": 67,
                "velocity": 40,
                "duration": 0.01590909090909065,
                "tempo": 120.0
            },
            {
                "start_time": 37.11363636363636,
                "end_time": 37.13181818181818,
                "pitch": 67,
                "velocity": 40,
                "duration": 0.018181818181822962,
                "tempo": 120.0
            },
            {
                "start_time": 21.047727272727272,
                "end_time": 37.13181818181818,
                "pitch": 79,
                "velocity": 40,
                "duration": 16.08409090909091,
                "tempo": 120.0
            },
            {
                "start_time": 37.13181818181818,
                "end_time": 37.53181818181818,
                "pitch": 67,
                "velocity": 40,
                "duration": 0.3999999999999986,
                "tempo": 120.0
            },
            {
                "start_time": 37.53181818181818,
                "end_time": 37.663636363636364,
                "pitch": 59,
                "velocity": 40,
                "duration": 0.13181818181818272,
                "tempo": 120.0
            }
        ],
        "Electric Piano 1": [
            {
                "start_time": 0.2681818181818182,
                "end_time": 0.36363636363636365,
                "pitch": 66,
                "velocity": 51,
                "duration": 0.09545454545454546,
                "tempo": 120.0
            },
            {
                "start_time": 0.6636363636363636,
                "end_time": 0.7636363636363636,
                "pitch": 64,
                "velocity": 51,
                "duration": 0.09999999999999998,
                "tempo": 120.0
            },
            {
                "start_time": 1.065909090909091,
                "end_time": 1.1636363636363636,
                "pitch": 66,
                "velocity": 51,
                "duration": 0.09772727272727266,
                "tempo": 120.0
            },
            {
                "start_time": 1.4659090909090908,
                "end_time": 1.5636363636363635,
                "pitch": 64,
                "velocity": 51,
                "duration": 0.09772727272727266,
                "tempo": 120.0
            },
            {
                "start_time": 1.8659090909090907,
                "end_time": 1.9659090909090908,
                "pitch": 66,
                "velocity": 51,
                "duration": 0.10000000000000009,
                "tempo": 120.0
            },
            {
                "start_time": 2.2704545454545455,
                "end_time": 2.368181818181818,
                "pitch": 64,
                "velocity": 51,
                "duration": 0.09772727272727266,
                "tempo": 120.0
            },
            {
                "start_time": 2.6704545454545454,
                "end_time": 2.7704545454545455,
                "pitch": 66,
                "velocity": 51,
                "duration": 0.10000000000000009,
                "tempo": 120.0
            },
            {
                "start_time": 3.0818181818181816,
                "end_time": 3.1795454545454542,
                "pitch": 64,
                "velocity": 51,
                "duration": 0.09772727272727266,
                "tempo": 120.0
            },
            {
                "start_time": 3.4818181818181815,
                "end_time": 3.5818181818181816,
                "pitch": 66,
                "velocity": 51,
                "duration": 0.10000000000000009,
                "tempo": 120.0
            },
            {
                "start_time": 3.884090909090909,
                "end_time": 3.9818181818181815,
                "pitch": 64,
                "velocity": 51,
                "duration": 0.09772727272727266,
                "tempo": 120.0
            },
            {
                "start_time": 4.277272727272727,
                "end_time": 4.379545454545454,
                "pitch": 66,
                "velocity": 51,
                "duration": 0.10227272727272663,
                "tempo": 120.0
            },
            {
                "start_time": 4.6886363636363635,
                "end_time": 4.788636363636363,
                "pitch": 64,
                "velocity": 51,
                "duration": 0.09999999999999964,
                "tempo": 120.0
            },
            {
                "start_time": 5.093181818181818,
                "end_time": 5.1909090909090905,
                "pitch": 66,
                "velocity": 51,
                "duration": 0.09772727272727266,
                "tempo": 120.0
            },
            {
                "start_time": 5.495454545454545,
                "end_time": 5.593181818181818,
                "pitch": 64,
                "velocity": 51,
                "duration": 0.09772727272727266,
                "tempo": 120.0
            },
            {
                "start_time": 5.8954545454545455,
                "end_time": 5.995454545454545,
                "pitch": 66,
                "velocity": 51,
                "duration": 0.09999999999999964,
                "tempo": 120.0
            },
            {
                "start_time": 6.297727272727273,
                "end_time": 6.3977272727272725,
                "pitch": 64,
                "velocity": 51,
                "duration": 0.09999999999999964,
                "tempo": 120.0
            },
            {
                "start_time": 6.699999999999999,
                "end_time": 6.797727272727273,
                "pitch": 66,
                "velocity": 51,
                "duration": 0.09772727272727355,
                "tempo": 120.0
            },
            {
                "start_time": 7.102272727272727,
                "end_time": 7.202272727272727,
                "pitch": 64,
                "velocity": 51,
                "duration": 0.10000000000000053,
                "tempo": 120.0
            },
            {
                "start_time": 7.506818181818182,
                "end_time": 7.6045454545454545,
                "pitch": 66,
                "velocity": 51,
                "duration": 0.09772727272727266,
                "tempo": 120.0
            },
            {
                "start_time": 7.906818181818181,
                "end_time": 8.006818181818181,
                "pitch": 64,
                "velocity": 51,
                "duration": 0.09999999999999964,
                "tempo": 120.0
            },
            {
                "start_time": 8.309090909090909,
                "end_time": 8.409090909090908,
                "pitch": 66,
                "velocity": 51,
                "duration": 0.09999999999999964,
                "tempo": 120.0
            },
            {
                "start_time": 8.709090909090909,
                "end_time": 8.809090909090909,
                "pitch": 64,
                "velocity": 51,
                "duration": 0.09999999999999964,
                "tempo": 120.0
            },
            {
                "start_time": 9.113636363636363,
                "end_time": 9.213636363636363,
                "pitch": 66,
                "velocity": 51,
                "duration": 0.09999999999999964,
                "tempo": 120.0
            },
            {
                "start_time": 9.51590909090909,
                "end_time": 9.61590909090909,
                "pitch": 64,
                "velocity": 51,
                "duration": 0.09999999999999964,
                "tempo": 120.0
            },
            {
                "start_time": 9.920454545454545,
                "end_time": 10.018181818181818,
                "pitch": 66,
                "velocity": 51,
                "duration": 0.09772727272727266,
                "tempo": 120.0
            },
            {
                "start_time": 10.320454545454545,
                "end_time": 10.420454545454545,
                "pitch": 64,
                "velocity": 51,
                "duration": 0.09999999999999964,
                "tempo": 120.0
            },
            {
                "start_time": 10.722727272727273,
                "end_time": 10.822727272727272,
                "pitch": 66,
                "velocity": 51,
                "duration": 0.09999999999999964,
                "tempo": 120.0
            },
            {
                "start_time": 11.125,
                "end_time": 11.225,
                "pitch": 64,
                "velocity": 51,
                "duration": 0.09999999999999964,
                "tempo": 120.0
            },
            {
                "start_time": 11.529545454545454,
                "end_time": 11.631818181818181,
                "pitch": 66,
                "velocity": 51,
                "duration": 0.10227272727272663,
                "tempo": 120.0
            },
            {
                "start_time": 11.94090909090909,
                "end_time": 12.038636363636362,
                "pitch": 64,
                "velocity": 51,
                "duration": 0.09772727272727266,
                "tempo": 120.0
            },
            {
                "start_time": 12.334090909090909,
                "end_time": 12.434090909090909,
                "pitch": 66,
                "velocity": 51,
                "duration": 0.09999999999999964,
                "tempo": 120.0
            },
            {
                "start_time": 12.743181818181817,
                "end_time": 12.845454545454546,
                "pitch": 64,
                "velocity": 51,
                "duration": 0.1022727272727284,
                "tempo": 120.0
            },
            {
                "start_time": 13.147727272727272,
                "end_time": 13.247727272727271,
                "pitch": 66,
                "velocity": 51,
                "duration": 0.09999999999999964,
                "tempo": 120.0
            },
            {
                "start_time": 13.549999999999999,
                "end_time": 13.647727272727272,
                "pitch": 64,
                "velocity": 51,
                "duration": 0.09772727272727266,
                "tempo": 120.0
            },
            {
                "start_time": 13.943181818181818,
                "end_time": 14.045454545454545,
                "pitch": 66,
                "velocity": 51,
                "duration": 0.10227272727272663,
                "tempo": 120.0
            },
            {
                "start_time": 14.354545454545454,
                "end_time": 14.454545454545453,
                "pitch": 64,
                "velocity": 51,
                "duration": 0.09999999999999964,
                "tempo": 120.0
            },
            {
                "start_time": 14.756818181818181,
                "end_time": 14.854545454545454,
                "pitch": 66,
                "velocity": 51,
                "duration": 0.09772727272727266,
                "tempo": 120.0
            },
            {
                "start_time": 15.159090909090908,
                "end_time": 15.259090909090908,
                "pitch": 64,
                "velocity": 51,
                "duration": 0.09999999999999964,
                "tempo": 120.0
            },
            {
                "start_time": 15.561363636363636,
                "end_time": 15.661363636363635,
                "pitch": 66,
                "velocity": 51,
                "duration": 0.09999999999999964,
                "tempo": 120.0
            },
            {
                "start_time": 15.963636363636363,
                "end_time": 16.06590909090909,
                "pitch": 64,
                "velocity": 51,
                "duration": 0.1022727272727284,
                "tempo": 120.0
            },
            {
                "start_time": 16.370454545454546,
                "end_time": 16.46818181818182,
                "pitch": 66,
                "velocity": 51,
                "duration": 0.09772727272727266,
                "tempo": 120.0
            },
            {
                "start_time": 16.772727272727273,
                "end_time": 16.870454545454546,
                "pitch": 64,
                "velocity": 51,
                "duration": 0.09772727272727266,
                "tempo": 120.0
            },
            {
                "start_time": 17.172727272727272,
                "end_time": 17.270454545454545,
                "pitch": 66,
                "velocity": 51,
                "duration": 0.09772727272727266,
                "tempo": 120.0
            },
            {
                "start_time": 17.57272727272727,
                "end_time": 17.672727272727272,
                "pitch": 64,
                "velocity": 51,
                "duration": 0.10000000000000142,
                "tempo": 120.0
            },
            {
                "start_time": 17.977272727272727,
                "end_time": 18.075,
                "pitch": 66,
                "velocity": 51,
                "duration": 0.09772727272727266,
                "tempo": 120.0
            },
            {
                "start_time": 18.377272727272725,
                "end_time": 18.477272727272727,
                "pitch": 64,
                "velocity": 51,
                "duration": 0.10000000000000142,
                "tempo": 120.0
            },
            {
                "start_time": 18.78181818181818,
                "end_time": 18.88181818181818,
                "pitch": 66,
                "velocity": 51,
                "duration": 0.09999999999999787,
                "tempo": 120.0
            },
            {
                "start_time": 19.19090909090909,
                "end_time": 19.29090909090909,
                "pitch": 64,
                "velocity": 51,
                "duration": 0.09999999999999787,
                "tempo": 120.0
            },
            {
                "start_time": 19.59318181818182,
                "end_time": 19.69090909090909,
                "pitch": 66,
                "velocity": 51,
                "duration": 0.09772727272727266,
                "tempo": 120.0
            },
            {
                "start_time": 19.993181818181817,
                "end_time": 20.08863636363636,
                "pitch": 64,
                "velocity": 51,
                "duration": 0.0954545454545439,
                "tempo": 120.0
            },
            {
                "start_time": 20.384090909090908,
                "end_time": 20.486363636363635,
                "pitch": 66,
                "velocity": 51,
                "duration": 0.10227272727272663,
                "tempo": 120.0
            },
            {
                "start_time": 20.795454545454543,
                "end_time": 20.895454545454545,
                "pitch": 64,
                "velocity": 51,
                "duration": 0.10000000000000142,
                "tempo": 120.0
            },
            {
                "start_time": 21.2,
                "end_time": 21.297727272727272,
                "pitch": 66,
                "velocity": 51,
                "duration": 0.09772727272727266,
                "tempo": 120.0
            },
            {
                "start_time": 21.599999999999998,
                "end_time": 21.69772727272727,
                "pitch": 64,
                "velocity": 51,
                "duration": 0.09772727272727266,
                "tempo": 120.0
            },
            {
                "start_time": 22.0,
                "end_time": 22.099999999999998,
                "pitch": 66,
                "velocity": 51,
                "duration": 0.09999999999999787,
                "tempo": 120.0
            },
            {
                "start_time": 22.402272727272727,
                "end_time": 22.502272727272725,
                "pitch": 64,
                "velocity": 51,
                "duration": 0.09999999999999787,
                "tempo": 120.0
            },
            {
                "start_time": 22.804545454545455,
                "end_time": 22.904545454545453,
                "pitch": 66,
                "velocity": 51,
                "duration": 0.09999999999999787,
                "tempo": 120.0
            },
            {
                "start_time": 23.206818181818182,
                "end_time": 23.30681818181818,
                "pitch": 64,
                "velocity": 51,
                "duration": 0.09999999999999787,
                "tempo": 120.0
            },
            {
                "start_time": 23.60909090909091,
                "end_time": 23.706818181818182,
                "pitch": 66,
                "velocity": 51,
                "duration": 0.09772727272727266,
                "tempo": 120.0
            },
            {
                "start_time": 24.009090909090908,
                "end_time": 24.10909090909091,
                "pitch": 64,
                "velocity": 51,
                "duration": 0.10000000000000142,
                "tempo": 120.0
            },
            {
                "start_time": 24.411363636363635,
                "end_time": 24.511363636363637,
                "pitch": 66,
                "velocity": 51,
                "duration": 0.10000000000000142,
                "tempo": 120.0
            },
            {
                "start_time": 24.811363636363634,
                "end_time": 24.911363636363635,
                "pitch": 64,
                "velocity": 51,
                "duration": 0.10000000000000142,
                "tempo": 120.0
            },
            {
                "start_time": 25.21590909090909,
                "end_time": 25.313636363636363,
                "pitch": 66,
                "velocity": 51,
                "duration": 0.09772727272727266,
                "tempo": 120.0
            },
            {
                "start_time": 25.61590909090909,
                "end_time": 25.71363636363636,
                "pitch": 64,
                "velocity": 51,
                "duration": 0.09772727272727266,
                "tempo": 120.0
            },
            {
                "start_time": 26.018181818181816,
                "end_time": 26.11590909090909,
                "pitch": 66,
                "velocity": 51,
                "duration": 0.09772727272727266,
                "tempo": 120.0
            },
            {
                "start_time": 26.418181818181818,
                "end_time": 26.518181818181816,
                "pitch": 64,
                "velocity": 51,
                "duration": 0.09999999999999787,
                "tempo": 120.0
            },
            {
                "start_time": 26.820454545454545,
                "end_time": 26.920454545454543,
                "pitch": 66,
                "velocity": 51,
                "duration": 0.09999999999999787,
                "tempo": 120.0
            },
            {
                "start_time": 27.222727272727273,
                "end_time": 27.32272727272727,
                "pitch": 64,
                "velocity": 51,
                "duration": 0.09999999999999787,
                "tempo": 120.0
            },
            {
                "start_time": 27.625,
                "end_time": 27.724999999999998,
                "pitch": 66,
                "velocity": 51,
                "duration": 0.09999999999999787,
                "tempo": 120.0
            },
            {
                "start_time": 28.034090909090907,
                "end_time": 28.13181818181818,
                "pitch": 64,
                "velocity": 51,
                "duration": 0.09772727272727266,
                "tempo": 120.0
            },
            {
                "start_time": 28.427272727272726,
                "end_time": 28.529545454545453,
                "pitch": 66,
                "velocity": 51,
                "duration": 0.10227272727272663,
                "tempo": 120.0
            },
            {
                "start_time": 28.83863636363636,
                "end_time": 28.938636363636363,
                "pitch": 64,
                "velocity": 51,
                "duration": 0.10000000000000142,
                "tempo": 120.0
            },
            {
                "start_time": 29.24090909090909,
                "end_time": 29.33863636363636,
                "pitch": 66,
                "velocity": 51,
                "duration": 0.09772727272727266,
                "tempo": 120.0
            },
            {
                "start_time": 29.64090909090909,
                "end_time": 29.738636363636363,
                "pitch": 64,
                "velocity": 51,
                "duration": 0.09772727272727266,
                "tempo": 120.0
            },
            {
                "start_time": 30.036363636363635,
                "end_time": 30.136363636363633,
                "pitch": 66,
                "velocity": 51,
                "duration": 0.09999999999999787,
                "tempo": 120.0
            },
            {
                "start_time": 30.445454545454545,
                "end_time": 30.545454545454543,
                "pitch": 64,
                "velocity": 51,
                "duration": 0.09999999999999787,
                "tempo": 120.0
            },
            {
                "start_time": 30.849999999999998,
                "end_time": 30.94772727272727,
                "pitch": 66,
                "velocity": 51,
                "duration": 0.09772727272727266,
                "tempo": 120.0
            },
            {
                "start_time": 31.25,
                "end_time": 31.349999999999998,
                "pitch": 64,
                "velocity": 51,
                "duration": 0.09999999999999787,
                "tempo": 120.0
            },
            {
                "start_time": 31.654545454545453,
                "end_time": 31.752272727272725,
                "pitch": 66,
                "velocity": 51,
                "duration": 0.09772727272727266,
                "tempo": 120.0
            },
            {
                "start_time": 32.05227272727272,
                "end_time": 32.152272727272724,
                "pitch": 64,
                "velocity": 51,
                "duration": 0.10000000000000142,
                "tempo": 120.0
            },
            {
                "start_time": 32.45681818181818,
                "end_time": 32.55227272727272,
                "pitch": 66,
                "velocity": 51,
                "duration": 0.0954545454545439,
                "tempo": 120.0
            },
            {
                "start_time": 32.85454545454545,
                "end_time": 32.95454545454545,
                "pitch": 64,
                "velocity": 51,
                "duration": 0.10000000000000142,
                "tempo": 120.0
            },
            {
                "start_time": 33.25909090909091,
                "end_time": 33.35909090909091,
                "pitch": 66,
                "velocity": 51,
                "duration": 0.10000000000000142,
                "tempo": 120.0
            },
            {
                "start_time": 33.67045454545455,
                "end_time": 33.76590909090909,
                "pitch": 64,
                "velocity": 51,
                "duration": 0.0954545454545439,
                "tempo": 120.0
            },
            {
                "start_time": 34.06363636363636,
                "end_time": 34.163636363636364,
                "pitch": 66,
                "velocity": 51,
                "duration": 0.10000000000000142,
                "tempo": 120.0
            },
            {
                "start_time": 34.47272727272727,
                "end_time": 34.570454545454545,
                "pitch": 64,
                "velocity": 51,
                "duration": 0.09772727272727622,
                "tempo": 120.0
            },
            {
                "start_time": 34.86590909090909,
                "end_time": 34.96818181818182,
                "pitch": 66,
                "velocity": 51,
                "duration": 0.10227272727272663,
                "tempo": 120.0
            },
            {
                "start_time": 35.277272727272724,
                "end_time": 35.377272727272725,
                "pitch": 64,
                "velocity": 51,
                "duration": 0.10000000000000142,
                "tempo": 120.0
            },
            {
                "start_time": 35.679545454545455,
                "end_time": 35.777272727272724,
                "pitch": 66,
                "velocity": 51,
                "duration": 0.09772727272726911,
                "tempo": 120.0
            },
            {
                "start_time": 36.07727272727273,
                "end_time": 36.175,
                "pitch": 64,
                "velocity": 51,
                "duration": 0.09772727272726911,
                "tempo": 120.0
            },
            {
                "start_time": 36.470454545454544,
                "end_time": 36.57272727272727,
                "pitch": 66,
                "velocity": 51,
                "duration": 0.10227272727272663,
                "tempo": 120.0
            },
            {
                "start_time": 36.88181818181818,
                "end_time": 36.98181818181818,
                "pitch": 64,
                "velocity": 51,
                "duration": 0.09999999999999432,
                "tempo": 120.0
            },
            {
                "start_time": 37.28409090909091,
                "end_time": 37.38181818181818,
                "pitch": 66,
                "velocity": 51,
                "duration": 0.09772727272727622,
                "tempo": 120.0
            }
        ]
    }
}