{
    "track_id": "05 Scramble Story Demo",
    "mood": "sad",
    "instruments": {
        "Clarinet": [
            {
                "start_time": 0.0,
                "end_time": 0.12954545454545455,
                "pitch": 67,
                "velocity": 101,
                "duration": 0.12954545454545455,
                "tempo": 120.0
            },
            {
                "start_time": 0.12954545454545455,
                "end_time": 0.2590909090909091,
                "pitch": 79,
                "velocity": 101,
                "duration": 0.12954545454545455,
                "tempo": 120.0
            },
            {
                "start_time": 0.26136363636363635,
                "end_time": 0.375,
                "pitch": 69,
                "velocity": 101,
                "duration": 0.11363636363636365,
                "tempo": 120.0
            },
            {
                "start_time": 0.375,
                "end_time": 0.5113636363636364,
                "pitch": 84,
                "velocity": 101,
                "duration": 0.13636363636363635,
                "tempo": 120.0
            },
            {
                "start_time": 0.5113636363636364,
                "end_time": 0.6318181818181818,
                "pitch": 79,
                "velocity": 101,
                "duration": 0.12045454545454548,
                "tempo": 120.0
            },
            {
                "start_time": 0.6318181818181818,
                "end_time": 0.7704545454545454,
                "pitch": 67,
                "velocity": 101,
                "duration": 0.13863636363636356,
                "tempo": 120.0
            },
            {
                "start_time": 0.7704545454545454,
                "end_time": 0.8863636363636364,
                "pitch": 81,
                "velocity": 101,
                "duration": 0.11590909090909096,
                "tempo": 120.0
            },
            {
                "start_time": 0.8863636363636364,
                "end_time": 1.0204545454545455,
                "pitch": 72,
                "velocity": 101,
                "duration": 0.13409090909090915,
                "tempo": 120.0
            },
            {
                "start_time": 1.0204545454545455,
                "end_time": 1.0227272727272727,
                "pitch": 72,
                "velocity": 101,
                "duration": 0.002272727272727204,
                "tempo": 120.0
            },
            {
                "start_time": 1.0227272727272727,
                "end_time": 1.1386363636363637,
                "pitch": 67,
                "velocity": 101,
                "duration": 0.11590909090909096,
                "tempo": 120.0
            },
            {
                "start_time": 1.1386363636363637,
                "end_time": 1.268181818181818,
                "pitch": 79,
                "velocity": 101,
                "duration": 0.1295454545454544,
                "tempo": 120.0
            },
            {
                "start_time": 1.268181818181818,
                "end_time": 1.384090909090909,
                "pitch": 69,
                "velocity": 101,
                "duration": 0.11590909090909096,
                "tempo": 120.0
            },
            {
                "start_time": 0.375,
                "end_time": 1.384090909090909,
                "pitch": 82,
                "velocity": 101,
                "duration": 1.009090909090909,
                "tempo": 120.0
            },
            {
                "start_time": 0.5113636363636364,
                "end_time": 1.5136363636363637,
                "pitch": 84,
                "velocity": 101,
                "duration": 1.0022727272727274,
                "tempo": 120.0
            },
            {
                "start_time": 1.384090909090909,
                "end_time": 1.5136363636363637,
                "pitch": 84,
                "velocity": 101,
                "duration": 0.12954545454545463,
                "tempo": 120.0
            },
            {
                "start_time": 1.5136363636363637,
                "end_time": 1.6318181818181818,
                "pitch": 79,
                "velocity": 101,
                "duration": 0.11818181818181817,
                "tempo": 120.0
            },
            {
                "start_time": 1.6318181818181818,
                "end_time": 1.7704545454545453,
                "pitch": 67,
                "velocity": 101,
                "duration": 0.13863636363636345,
                "tempo": 120.0
            },
            {
                "start_time": 0.8863636363636364,
                "end_time": 1.8909090909090909,
                "pitch": 70,
                "velocity": 101,
                "duration": 1.0045454545454544,
                "tempo": 120.0
            },
            {
                "start_time": 1.7704545454545453,
                "end_time": 1.8909090909090909,
                "pitch": 81,
                "velocity": 101,
                "duration": 0.12045454545454559,
                "tempo": 120.0
            },
            {
                "start_time": 1.8909090909090909,
                "end_time": 2.018181818181818,
                "pitch": 72,
                "velocity": 101,
                "duration": 0.1272727272727272,
                "tempo": 120.0
            },
            {
                "start_time": 2.018181818181818,
                "end_time": 2.1295454545454544,
                "pitch": 67,
                "velocity": 101,
                "duration": 0.11136363636363633,
                "tempo": 120.0
            },
            {
                "start_time": 2.1295454545454544,
                "end_time": 2.256818181818182,
                "pitch": 79,
                "velocity": 101,
                "duration": 0.12727272727272743,
                "tempo": 120.0
            },
            {
                "start_time": 2.256818181818182,
                "end_time": 2.393181818181818,
                "pitch": 69,
                "velocity": 101,
                "duration": 0.13636363636363624,
                "tempo": 120.0
            },
            {
                "start_time": 1.384090909090909,
                "end_time": 2.393181818181818,
                "pitch": 82,
                "velocity": 101,
                "duration": 1.009090909090909,
                "tempo": 120.0
            },
            {
                "start_time": 1.5136363636363637,
                "end_time": 2.5136363636363637,
                "pitch": 84,
                "velocity": 101,
                "duration": 1.0,
                "tempo": 120.0
            },
            {
                "start_time": 2.393181818181818,
                "end_time": 2.5136363636363637,
                "pitch": 84,
                "velocity": 101,
                "duration": 0.12045454545454559,
                "tempo": 120.0
            },
            {
                "start_time": 2.5136363636363637,
                "end_time": 2.6522727272727273,
                "pitch": 79,
                "velocity": 101,
                "duration": 0.13863636363636367,
                "tempo": 120.0
            },
            {
                "start_time": 2.6522727272727273,
                "end_time": 2.7704545454545455,
                "pitch": 67,
                "velocity": 101,
                "duration": 0.11818181818181817,
                "tempo": 120.0
            },
            {
                "start_time": 1.8909090909090909,
                "end_time": 2.9045454545454543,
                "pitch": 70,
                "velocity": 101,
                "duration": 1.0136363636363634,
                "tempo": 120.0
            },
            {
                "start_time": 2.7704545454545455,
                "end_time": 2.9045454545454543,
                "pitch": 81,
                "velocity": 101,
                "duration": 0.13409090909090882,
                "tempo": 120.0
            },
            {
                "start_time": 2.018181818181818,
                "end_time": 3.0204545454545455,
                "pitch": 72,
                "velocity": 101,
                "duration": 1.0022727272727274,
                "tempo": 120.0
            },
            {
                "start_time": 2.9045454545454543,
                "end_time": 3.0204545454545455,
                "pitch": 72,
                "velocity": 101,
                "duration": 0.11590909090909118,
                "tempo": 120.0
            },
            {
                "start_time": 3.0204545454545455,
                "end_time": 3.1522727272727273,
                "pitch": 67,
                "velocity": 101,
                "duration": 0.13181818181818183,
                "tempo": 120.0
            },
            {
                "start_time": 3.1522727272727273,
                "end_time": 3.2659090909090907,
                "pitch": 79,
                "velocity": 101,
                "duration": 0.11363636363636331,
                "tempo": 120.0
            },
            {
                "start_time": 3.2659090909090907,
                "end_time": 3.3954545454545455,
                "pitch": 69,
                "velocity": 101,
                "duration": 0.12954545454545485,
                "tempo": 120.0
            },
            {
                "start_time": 2.393181818181818,
                "end_time": 3.3954545454545455,
                "pitch": 82,
                "velocity": 101,
                "duration": 1.0022727272727274,
                "tempo": 120.0
            },
            {
                "start_time": 2.5136363636363637,
                "end_time": 3.509090909090909,
                "pitch": 84,
                "velocity": 101,
                "duration": 0.9954545454545451,
                "tempo": 120.0
            },
            {
                "start_time": 3.3954545454545455,
                "end_time": 3.509090909090909,
                "pitch": 84,
                "velocity": 101,
                "duration": 0.11363636363636331,
                "tempo": 120.0
            },
            {
                "start_time": 3.509090909090909,
                "end_time": 3.6386363636363637,
                "pitch": 79,
                "velocity": 101,
                "duration": 0.12954545454545485,
                "tempo": 120.0
            },
            {
                "start_time": 3.6386363636363637,
                "end_time": 3.7545454545454544,
                "pitch": 67,
                "velocity": 101,
                "duration": 0.11590909090909074,
                "tempo": 120.0
            },
            {
                "start_time": 2.9045454545454543,
                "end_time": 3.884090909090909,
                "pitch": 70,
                "velocity": 101,
                "duration": 0.9795454545454545,
                "tempo": 120.0
            },
            {
                "start_time": 3.7545454545454544,
                "end_time": 3.884090909090909,
                "pitch": 81,
                "velocity": 101,
                "duration": 0.1295454545454544,
                "tempo": 120.0
            },
            {
                "start_time": 3.0204545454545455,
                "end_time": 3.9977272727272726,
                "pitch": 72,
                "velocity": 101,
                "duration": 0.9772727272727271,
                "tempo": 120.0
            },
            {
                "start_time": 3.884090909090909,
                "end_time": 3.9977272727272726,
                "pitch": 72,
                "velocity": 101,
                "duration": 0.11363636363636376,
                "tempo": 120.0
            },
            {
                "start_time": 3.9977272727272726,
                "end_time": 4.127272727272727,
                "pitch": 67,
                "velocity": 101,
                "duration": 0.1295454545454544,
                "tempo": 120.0
            },
            {
                "start_time": 4.127272727272727,
                "end_time": 4.247727272727272,
                "pitch": 79,
                "velocity": 101,
                "duration": 0.12045454545454515,
                "tempo": 120.0
            },
            {
                "start_time": 4.247727272727272,
                "end_time": 4.263636363636364,
                "pitch": 69,
                "velocity": 101,
                "duration": 0.01590909090909154,
                "tempo": 120.0
            }
        ]
    }
}