{
    "track_id": "05_Death",
    "mood": "sad",
    "instruments": {
        "Oboe": [
            {
                "start_time": 0.18181818181818182,
                "end_time": 0.36136363636363633,
                "pitch": 72,
                "velocity": 64,
                "duration": 0.1795454545454545,
                "tempo": 120.0
            },
            {
                "start_time": 0.5409090909090909,
                "end_time": 0.6613636363636364,
                "pitch": 67,
                "velocity": 64,
                "duration": 0.12045454545454548,
                "tempo": 120.0
            },
            {
                "start_time": 0.6613636363636364,
                "end_time": 0.7818181818181817,
                "pitch": 66,
                "velocity": 64,
                "duration": 0.12045454545454537,
                "tempo": 120.0
            },
            {
                "start_time": 0.7818181818181817,
                "end_time": 0.9022727272727272,
                "pitch": 67,
                "velocity": 64,
                "duration": 0.12045454545454548,
                "tempo": 120.0
            },
            {
                "start_time": 0.9022727272727272,
                "end_time": 1.2613636363636362,
                "pitch": 68,
                "velocity": 64,
                "duration": 0.359090909090909,
                "tempo": 120.0
            },
            {
                "start_time": 1.2613636363636362,
                "end_time": 1.440909090909091,
                "pitch": 67,
                "velocity": 64,
                "duration": 0.17954545454545467,
                "tempo": 120.0
            },
            {
                "start_time": 1.977272727272727,
                "end_time": 2.1522727272727273,
                "pitch": 71,
                "velocity": 64,
                "duration": 0.17500000000000027,
                "tempo": 120.0
            },
            {
                "start_time": 2.3318181818181816,
                "end_time": 2.5113636363636362,
                "pitch": 72,
                "velocity": 64,
                "duration": 0.17954545454545467,
                "tempo": 120.0
            }
        ],
        "Electric Piano 1": [
            {
                "start_time": 0.06136363636363636,
                "end_time": 0.7818181818181817,
                "pitch": 79,
                "velocity": 80,
                "duration": 0.7204545454545453,
                "tempo": 120.0
            },
            {
                "start_time": 0.7818181818181817,
                "end_time": 1.143181818181818,
                "pitch": 75,
                "velocity": 80,
                "duration": 0.36136363636363633,
                "tempo": 120.0
            },
            {
                "start_time": 1.143181818181818,
                "end_time": 1.8613636363636363,
                "pitch": 75,
                "velocity": 80,
                "duration": 0.7181818181818183,
                "tempo": 120.0
            },
            {
                "start_time": 1.8613636363636363,
                "end_time": 2.2113636363636364,
                "pitch": 71,
                "velocity": 80,
                "duration": 0.3500000000000001,
                "tempo": 120.0
            },
            {
                "start_time": 2.2113636363636364,
                "end_time": 2.5113636363636362,
                "pitch": 67,
                "velocity": 80,
                "duration": 0.2999999999999998,
                "tempo": 120.0
            },
            {
                "start_time": 2.2113636363636364,
                "end_time": 2.5113636363636362,
                "pitch": 67,
                "velocity": 80,
                "duration": 0.2999999999999998,
                "tempo": 120.0
            }
        ],
        "Acoustic Bass": [
            {
                "start_time": 0.06136363636363636,
                "end_time": 0.12045454545454545,
                "pitch": 36,
                "velocity": 127,
                "duration": 0.05909090909090909,
                "tempo": 120.0
            },
            {
                "start_time": 0.18181818181818182,
                "end_time": 0.2409090909090909,
                "pitch": 36,
                "velocity": 127,
                "duration": 0.05909090909090908,
                "tempo": 120.0
            },
            {
                "start_time": 0.30227272727272725,
                "end_time": 0.36136363636363633,
                "pitch": 36,
                "velocity": 127,
                "duration": 0.05909090909090908,
                "tempo": 120.0
            },
            {
                "start_time": 0.4204545454545454,
                "end_time": 0.4818181818181818,
                "pitch": 48,
                "velocity": 127,
                "duration": 0.0613636363636364,
                "tempo": 120.0
            },
            {
                "start_time": 0.5409090909090909,
                "end_time": 0.6022727272727273,
                "pitch": 36,
                "velocity": 127,
                "duration": 0.0613636363636364,
                "tempo": 120.0
            },
            {
                "start_time": 0.6613636363636364,
                "end_time": 0.7204545454545455,
                "pitch": 36,
                "velocity": 127,
                "duration": 0.05909090909090908,
                "tempo": 120.0
            },
            {
                "start_time": 0.7818181818181817,
                "end_time": 0.8409090909090908,
                "pitch": 36,
                "velocity": 127,
                "duration": 0.05909090909090908,
                "tempo": 120.0
            },
            {
                "start_time": 0.9022727272727272,
                "end_time": 0.9613636363636363,
                "pitch": 48,
                "velocity": 127,
                "duration": 0.05909090909090908,
                "tempo": 120.0
            },
            {
                "start_time": 1.0227272727272727,
                "end_time": 1.0818181818181818,
                "pitch": 34,
                "velocity": 127,
                "duration": 0.05909090909090908,
                "tempo": 120.0
            },
            {
                "start_time": 1.1409090909090909,
                "end_time": 1.2022727272727272,
                "pitch": 46,
                "velocity": 127,
                "duration": 0.06136363636363629,
                "tempo": 120.0
            },
            {
                "start_time": 1.2613636363636362,
                "end_time": 1.3227272727272728,
                "pitch": 48,
                "velocity": 127,
                "duration": 0.06136363636363651,
                "tempo": 120.0
            },
            {
                "start_time": 1.3818181818181818,
                "end_time": 1.4431818181818181,
                "pitch": 34,
                "velocity": 127,
                "duration": 0.06136363636363629,
                "tempo": 120.0
            },
            {
                "start_time": 1.5022727272727272,
                "end_time": 1.5613636363636363,
                "pitch": 36,
                "velocity": 127,
                "duration": 0.05909090909090908,
                "tempo": 120.0
            },
            {
                "start_time": 1.6227272727272726,
                "end_time": 1.6818181818181817,
                "pitch": 36,
                "velocity": 127,
                "duration": 0.05909090909090908,
                "tempo": 120.0
            },
            {
                "start_time": 1.7431818181818182,
                "end_time": 1.8022727272727272,
                "pitch": 36,
                "velocity": 127,
                "duration": 0.05909090909090908,
                "tempo": 120.0
            },
            {
                "start_time": 1.8613636363636363,
                "end_time": 1.9204545454545454,
                "pitch": 36,
                "velocity": 127,
                "duration": 0.05909090909090908,
                "tempo": 120.0
            },
            {
                "start_time": 1.9795454545454545,
                "end_time": 2.036363636363636,
                "pitch": 36,
                "velocity": 127,
                "duration": 0.05681818181818166,
                "tempo": 120.0
            },
            {
                "start_time": 2.0954545454545452,
                "end_time": 2.1522727272727273,
                "pitch": 36,
                "velocity": 127,
                "duration": 0.0568181818181821,
                "tempo": 120.0
            },
            {
                "start_time": 2.2113636363636364,
                "end_time": 2.952272727272727,
                "pitch": 24,
                "velocity": 127,
                "duration": 0.7409090909090907,
                "tempo": 120.0
            }
        ],
        "Synth Bass 1": [
            {
                "start_time": 0.06136363636363636,
                "end_time": 0.12045454545454545,
                "pitch": 48,
                "velocity": 101,
                "duration": 0.05909090909090909,
                "tempo": 120.0
            },
            {
                "start_time": 0.18181818181818182,
                "end_time": 0.2409090909090909,
                "pitch": 48,
                "velocity": 101,
                "duration": 0.05909090909090908,
                "tempo": 120.0
            },
            {
                "start_time": 0.30227272727272725,
                "end_time": 0.36136363636363633,
                "pitch": 48,
                "velocity": 101,
                "duration": 0.05909090909090908,
                "tempo": 120.0
            },
            {
                "start_time": 0.42272727272727273,
                "end_time": 0.4818181818181818,
                "pitch": 60,
                "velocity": 101,
                "duration": 0.05909090909090908,
                "tempo": 120.0
            },
            {
                "start_time": 0.5409090909090909,
                "end_time": 0.6022727272727273,
                "pitch": 48,
                "velocity": 101,
                "duration": 0.0613636363636364,
                "tempo": 120.0
            },
            {
                "start_time": 0.6613636363636364,
                "end_time": 0.7227272727272727,
                "pitch": 48,
                "velocity": 101,
                "duration": 0.06136363636363629,
                "tempo": 120.0
            },
            {
                "start_time": 0.7818181818181817,
                "end_time": 0.8409090909090908,
                "pitch": 48,
                "velocity": 101,
                "duration": 0.05909090909090908,
                "tempo": 120.0
            },
            {
                "start_time": 0.9022727272727272,
                "end_time": 0.9613636363636363,
                "pitch": 60,
                "velocity": 101,
                "duration": 0.05909090909090908,
                "tempo": 120.0
            },
            {
                "start_time": 1.0227272727272727,
                "end_time": 1.0818181818181818,
                "pitch": 46,
                "velocity": 101,
                "duration": 0.05909090909090908,
                "tempo": 120.0
            },
            {
                "start_time": 1.143181818181818,
                "end_time": 1.2022727272727272,
                "pitch": 58,
                "velocity": 101,
                "duration": 0.05909090909090908,
                "tempo": 120.0
            },
            {
                "start_time": 1.2613636363636362,
                "end_time": 1.3227272727272728,
                "pitch": 60,
                "velocity": 101,
                "duration": 0.06136363636363651,
                "tempo": 120.0
            },
            {
                "start_time": 1.3818181818181818,
                "end_time": 1.4431818181818181,
                "pitch": 46,
                "velocity": 101,
                "duration": 0.06136363636363629,
                "tempo": 120.0
            },
            {
                "start_time": 1.5022727272727272,
                "end_time": 1.5613636363636363,
                "pitch": 48,
                "velocity": 101,
                "duration": 0.05909090909090908,
                "tempo": 120.0
            },
            {
                "start_time": 1.6227272727272726,
                "end_time": 1.6818181818181817,
                "pitch": 48,
                "velocity": 101,
                "duration": 0.05909090909090908,
                "tempo": 120.0
            },
            {
                "start_time": 1.7431818181818182,
                "end_time": 1.8022727272727272,
                "pitch": 48,
                "velocity": 101,
                "duration": 0.05909090909090908,
                "tempo": 120.0
            },
            {
                "start_time": 1.8613636363636363,
                "end_time": 1.9204545454545454,
                "pitch": 48,
                "velocity": 101,
                "duration": 0.05909090909090908,
                "tempo": 120.0
            },
            {
                "start_time": 1.9795454545454545,
                "end_time": 2.036363636363636,
                "pitch": 48,
                "velocity": 101,
                "duration": 0.05681818181818166,
                "tempo": 120.0
            },
            {
                "start_time": 2.0954545454545452,
                "end_time": 2.1545454545454543,
                "pitch": 48,
                "velocity": 101,
                "duration": 0.05909090909090908,
                "tempo": 120.0
            },
            {
                "start_time": 2.2113636363636364,
                "end_time": 2.952272727272727,
                "pitch": 36,
                "velocity": 101,
                "duration": 0.7409090909090907,
                "tempo": 120.0
            }
        ]
    }
}