{
    "track_id": "06 Fearless Church",
    "mood": "sad",
    "instruments": {
        "Flute": [
            {
                "start_time": 0.2318181818181818,
                "end_time": 1.6386363636363634,
                "pitch": 77,
                "velocity": 51,
                "duration": 1.4068181818181817,
                "tempo": 120.0
            },
            {
                "start_time": 1.6409090909090909,
                "end_time": 2.5795454545454546,
                "pitch": 76,
                "velocity": 51,
                "duration": 0.9386363636363637,
                "tempo": 120.0
            },
            {
                "start_time": 2.5795454545454546,
                "end_time": 3.0477272727272724,
                "pitch": 79,
                "velocity": 51,
                "duration": 0.4681818181818178,
                "tempo": 120.0
            },
            {
                "start_time": 3.0477272727272724,
                "end_time": 3.506818181818182,
                "pitch": 77,
                "velocity": 51,
                "duration": 0.45909090909090944,
                "tempo": 120.0
            },
            {
                "start_time": 3.506818181818182,
                "end_time": 3.977272727272727,
                "pitch": 74,
                "velocity": 51,
                "duration": 0.47045454545454524,
                "tempo": 120.0
            },
            {
                "start_time": 3.977272727272727,
                "end_time": 4.445454545454545,
                "pitch": 76,
                "velocity": 51,
                "duration": 0.46818181818181825,
                "tempo": 120.0
            },
            {
                "start_time": 4.447727272727272,
                "end_time": 4.681818181818182,
                "pitch": 79,
                "velocity": 51,
                "duration": 0.23409090909090935,
                "tempo": 120.0
            },
            {
                "start_time": 4.681818181818182,
                "end_time": 4.915909090909091,
                "pitch": 81,
                "velocity": 51,
                "duration": 0.23409090909090935,
                "tempo": 120.0
            },
            {
                "start_time": 4.915909090909091,
                "end_time": 5.1499999999999995,
                "pitch": 79,
                "velocity": 51,
                "duration": 0.23409090909090846,
                "tempo": 120.0
            },
            {
                "start_time": 5.1499999999999995,
                "end_time": 5.386363636363636,
                "pitch": 77,
                "velocity": 51,
                "duration": 0.23636363636363633,
                "tempo": 120.0
            },
            {
                "start_time": 5.386363636363636,
                "end_time": 5.8545454545454545,
                "pitch": 76,
                "velocity": 51,
                "duration": 0.4681818181818187,
                "tempo": 120.0
            },
            {
                "start_time": 5.8545454545454545,
                "end_time": 6.324999999999999,
                "pitch": 74,
                "velocity": 51,
                "duration": 0.4704545454545448,
                "tempo": 120.0
            },
            {
                "start_time": 6.324999999999999,
                "end_time": 6.784090909090909,
                "pitch": 77,
                "velocity": 51,
                "duration": 0.4590909090909099,
                "tempo": 120.0
            },
            {
                "start_time": 6.784090909090909,
                "end_time": 7.243181818181818,
                "pitch": 81,
                "velocity": 51,
                "duration": 0.459090909090909,
                "tempo": 120.0
            },
            {
                "start_time": 7.243181818181818,
                "end_time": 7.477272727272727,
                "pitch": 82,
                "velocity": 51,
                "duration": 0.23409090909090846,
                "tempo": 120.0
            },
            {
                "start_time": 7.477272727272727,
                "end_time": 7.711363636363636,
                "pitch": 81,
                "velocity": 51,
                "duration": 0.23409090909090935,
                "tempo": 120.0
            },
            {
                "start_time": 7.711363636363636,
                "end_time": 7.947727272727272,
                "pitch": 79,
                "velocity": 51,
                "duration": 0.23636363636363633,
                "tempo": 120.0
            },
            {
                "start_time": 7.947727272727272,
                "end_time": 8.181818181818182,
                "pitch": 81,
                "velocity": 51,
                "duration": 0.23409090909090935,
                "tempo": 120.0
            },
            {
                "start_time": 8.181818181818182,
                "end_time": 8.415909090909091,
                "pitch": 79,
                "velocity": 51,
                "duration": 0.23409090909090935,
                "tempo": 120.0
            },
            {
                "start_time": 8.415909090909091,
                "end_time": 8.652272727272727,
                "pitch": 76,
                "velocity": 51,
                "duration": 0.23636363636363633,
                "tempo": 120.0
            },
            {
                "start_time": 8.652272727272727,
                "end_time": 9.111363636363636,
                "pitch": 84,
                "velocity": 51,
                "duration": 0.459090909090909,
                "tempo": 120.0
            },
            {
                "start_time": 9.111363636363636,
                "end_time": 9.579545454545453,
                "pitch": 82,
                "velocity": 51,
                "duration": 0.4681818181818169,
                "tempo": 120.0
            },
            {
                "start_time": 9.579545454545453,
                "end_time": 10.049999999999999,
                "pitch": 81,
                "velocity": 51,
                "duration": 0.4704545454545457,
                "tempo": 120.0
            },
            {
                "start_time": 10.049999999999999,
                "end_time": 10.284090909090908,
                "pitch": 79,
                "velocity": 51,
                "duration": 0.23409090909090935,
                "tempo": 120.0
            },
            {
                "start_time": 10.284090909090908,
                "end_time": 10.518181818181818,
                "pitch": 77,
                "velocity": 51,
                "duration": 0.23409090909090935,
                "tempo": 120.0
            },
            {
                "start_time": 10.520454545454545,
                "end_time": 10.747727272727273,
                "pitch": 79,
                "velocity": 51,
                "duration": 0.2272727272727284,
                "tempo": 120.0
            },
            {
                "start_time": 10.75,
                "end_time": 10.977272727272727,
                "pitch": 81,
                "velocity": 51,
                "duration": 0.22727272727272663,
                "tempo": 120.0
            },
            {
                "start_time": 10.977272727272727,
                "end_time": 11.213636363636363,
                "pitch": 82,
                "velocity": 51,
                "duration": 0.23636363636363633,
                "tempo": 120.0
            },
            {
                "start_time": 11.213636363636363,
                "end_time": 11.447727272727272,
                "pitch": 84,
                "velocity": 51,
                "duration": 0.23409090909090935,
                "tempo": 120.0
            },
            {
                "start_time": 11.447727272727272,
                "end_time": 11.918181818181818,
                "pitch": 77,
                "velocity": 51,
                "duration": 0.4704545454545457,
                "tempo": 120.0
            },
            {
                "start_time": 11.918181818181818,
                "end_time": 12.375,
                "pitch": 74,
                "velocity": 51,
                "duration": 0.456818181818182,
                "tempo": 120.0
            },
            {
                "start_time": 12.377272727272727,
                "end_time": 12.611363636363636,
                "pitch": 77,
                "velocity": 51,
                "duration": 0.23409090909090935,
                "tempo": 120.0
            },
            {
                "start_time": 12.611363636363636,
                "end_time": 12.845454545454546,
                "pitch": 81,
                "velocity": 51,
                "duration": 0.23409090909090935,
                "tempo": 120.0
            },
            {
                "start_time": 12.845454545454546,
                "end_time": 14.243181818181817,
                "pitch": 76,
                "velocity": 51,
                "duration": 1.3977272727272716,
                "tempo": 120.0
            },
            {
                "start_time": 14.243181818181817,
                "end_time": 14.713636363636363,
                "pitch": 84,
                "velocity": 51,
                "duration": 0.4704545454545457,
                "tempo": 120.0
            },
            {
                "start_time": 14.713636363636363,
                "end_time": 15.181818181818182,
                "pitch": 82,
                "velocity": 51,
                "duration": 0.4681818181818187,
                "tempo": 120.0
            },
            {
                "start_time": 15.184090909090909,
                "end_time": 15.64090909090909,
                "pitch": 81,
                "velocity": 51,
                "duration": 0.456818181818182,
                "tempo": 120.0
            },
            {
                "start_time": 15.64090909090909,
                "end_time": 15.875,
                "pitch": 86,
                "velocity": 51,
                "duration": 0.23409090909090935,
                "tempo": 120.0
            },
            {
                "start_time": 15.877272727272727,
                "end_time": 16.111363636363635,
                "pitch": 84,
                "velocity": 51,
                "duration": 0.23409090909090757,
                "tempo": 120.0
            },
            {
                "start_time": 16.111363636363635,
                "end_time": 16.345454545454544,
                "pitch": 86,
                "velocity": 51,
                "duration": 0.23409090909090935,
                "tempo": 120.0
            },
            {
                "start_time": 16.345454545454544,
                "end_time": 16.579545454545453,
                "pitch": 88,
                "velocity": 51,
                "duration": 0.23409090909090935,
                "tempo": 120.0
            },
            {
                "start_time": 16.581818181818182,
                "end_time": 16.81590909090909,
                "pitch": 86,
                "velocity": 51,
                "duration": 0.23409090909090935,
                "tempo": 120.0
            },
            {
                "start_time": 16.81590909090909,
                "end_time": 17.05,
                "pitch": 88,
                "velocity": 51,
                "duration": 0.23409090909090935,
                "tempo": 120.0
            },
            {
                "start_time": 17.05,
                "end_time": 17.279545454545453,
                "pitch": 81,
                "velocity": 51,
                "duration": 0.22954545454545183,
                "tempo": 120.0
            },
            {
                "start_time": 17.279545454545453,
                "end_time": 17.509090909090908,
                "pitch": 79,
                "velocity": 51,
                "duration": 0.22954545454545539,
                "tempo": 120.0
            },
            {
                "start_time": 17.509090909090908,
                "end_time": 17.743181818181817,
                "pitch": 81,
                "velocity": 51,
                "duration": 0.23409090909090935,
                "tempo": 120.0
            },
            {
                "start_time": 17.743181818181817,
                "end_time": 18.44772727272727,
                "pitch": 74,
                "velocity": 51,
                "duration": 0.7045454545454533,
                "tempo": 120.0
            },
            {
                "start_time": 18.44772727272727,
                "end_time": 18.677272727272726,
                "pitch": 81,
                "velocity": 51,
                "duration": 0.22954545454545539,
                "tempo": 120.0
            },
            {
                "start_time": 18.677272727272726,
                "end_time": 18.90681818181818,
                "pitch": 79,
                "velocity": 51,
                "duration": 0.22954545454545539,
                "tempo": 120.0
            },
            {
                "start_time": 18.90681818181818,
                "end_time": 19.14090909090909,
                "pitch": 81,
                "velocity": 51,
                "duration": 0.23409090909090935,
                "tempo": 120.0
            },
            {
                "start_time": 19.14090909090909,
                "end_time": 19.377272727272725,
                "pitch": 82,
                "velocity": 51,
                "duration": 0.23636363636363455,
                "tempo": 120.0
            },
            {
                "start_time": 19.377272727272725,
                "end_time": 19.845454545454544,
                "pitch": 76,
                "velocity": 51,
                "duration": 0.4681818181818187,
                "tempo": 120.0
            },
            {
                "start_time": 19.847727272727273,
                "end_time": 21.245454545454546,
                "pitch": 77,
                "velocity": 51,
                "duration": 1.3977272727272734,
                "tempo": 120.0
            },
            {
                "start_time": 21.245454545454546,
                "end_time": 21.94772727272727,
                "pitch": 76,
                "velocity": 51,
                "duration": 0.7022727272727245,
                "tempo": 120.0
            },
            {
                "start_time": 21.95,
                "end_time": 22.18409090909091,
                "pitch": 77,
                "velocity": 51,
                "duration": 0.23409090909090935,
                "tempo": 120.0
            },
            {
                "start_time": 22.18409090909091,
                "end_time": 22.427272727272726,
                "pitch": 79,
                "velocity": 51,
                "duration": 0.24318181818181728,
                "tempo": 120.0
            },
            {
                "start_time": 22.427272727272726,
                "end_time": 22.670454545454543,
                "pitch": 81,
                "velocity": 51,
                "duration": 0.24318181818181728,
                "tempo": 120.0
            },
            {
                "start_time": 22.670454545454543,
                "end_time": 23.111363636363635,
                "pitch": 89,
                "velocity": 51,
                "duration": 0.44090909090909136,
                "tempo": 120.0
            },
            {
                "start_time": 23.111363636363635,
                "end_time": 23.579545454545453,
                "pitch": 86,
                "velocity": 51,
                "duration": 0.4681818181818187,
                "tempo": 120.0
            },
            {
                "start_time": 23.579545454545453,
                "end_time": 24.038636363636364,
                "pitch": 82,
                "velocity": 51,
                "duration": 0.45909090909091077,
                "tempo": 120.0
            },
            {
                "start_time": 24.038636363636364,
                "end_time": 24.188636363636363,
                "pitch": 91,
                "velocity": 51,
                "duration": 0.14999999999999858,
                "tempo": 120.0
            },
            {
                "start_time": 24.188636363636363,
                "end_time": 24.35681818181818,
                "pitch": 91,
                "velocity": 51,
                "duration": 0.168181818181818,
                "tempo": 120.0
            },
            {
                "start_time": 24.188636363636363,
                "end_time": 24.35681818181818,
                "pitch": 103,
                "velocity": 51,
                "duration": 0.168181818181818,
                "tempo": 120.0
            },
            {
                "start_time": 24.35681818181818,
                "end_time": 24.50681818181818,
                "pitch": 91,
                "velocity": 51,
                "duration": 0.14999999999999858,
                "tempo": 120.0
            },
            {
                "start_time": 24.50681818181818,
                "end_time": 24.977272727272727,
                "pitch": 89,
                "velocity": 51,
                "duration": 0.47045454545454746,
                "tempo": 120.0
            },
            {
                "start_time": 24.977272727272727,
                "end_time": 25.44772727272727,
                "pitch": 86,
                "velocity": 51,
                "duration": 0.4704545454545439,
                "tempo": 120.0
            },
            {
                "start_time": 25.44772727272727,
                "end_time": 25.677272727272726,
                "pitch": 88,
                "velocity": 51,
                "duration": 0.22954545454545539,
                "tempo": 120.0
            },
            {
                "start_time": 25.677272727272726,
                "end_time": 25.90681818181818,
                "pitch": 84,
                "velocity": 51,
                "duration": 0.22954545454545539,
                "tempo": 120.0
            },
            {
                "start_time": 25.90681818181818,
                "end_time": 26.14090909090909,
                "pitch": 86,
                "velocity": 51,
                "duration": 0.23409090909090935,
                "tempo": 120.0
            },
            {
                "start_time": 26.14090909090909,
                "end_time": 26.375,
                "pitch": 88,
                "velocity": 51,
                "duration": 0.23409090909090935,
                "tempo": 120.0
            },
            {
                "start_time": 26.375,
                "end_time": 26.845454545454544,
                "pitch": 86,
                "velocity": 51,
                "duration": 0.4704545454545439,
                "tempo": 120.0
            },
            {
                "start_time": 26.845454545454544,
                "end_time": 27.079545454545453,
                "pitch": 84,
                "velocity": 51,
                "duration": 0.23409090909090935,
                "tempo": 120.0
            },
            {
                "start_time": 27.079545454545453,
                "end_time": 27.313636363636363,
                "pitch": 86,
                "velocity": 51,
                "duration": 0.23409090909090935,
                "tempo": 120.0
            },
            {
                "start_time": 27.315909090909088,
                "end_time": 27.543181818181818,
                "pitch": 88,
                "velocity": 51,
                "duration": 0.22727272727273018,
                "tempo": 120.0
            },
            {
                "start_time": 27.545454545454543,
                "end_time": 27.77272727272727,
                "pitch": 89,
                "velocity": 51,
                "duration": 0.22727272727272663,
                "tempo": 120.0
            },
            {
                "start_time": 27.77272727272727,
                "end_time": 27.924999999999997,
                "pitch": 91,
                "velocity": 51,
                "duration": 0.15227272727272734,
                "tempo": 120.0
            },
            {
                "start_time": 24.35681818181818,
                "end_time": 27.924999999999997,
                "pitch": 103,
                "velocity": 51,
                "duration": 3.5681818181818166,
                "tempo": 120.0
            },
            {
                "start_time": 27.924999999999997,
                "end_time": 28.009090909090908,
                "pitch": 91,
                "velocity": 51,
                "duration": 0.08409090909091077,
                "tempo": 120.0
            },
            {
                "start_time": 28.009090909090908,
                "end_time": 28.243181818181817,
                "pitch": 93,
                "velocity": 51,
                "duration": 0.23409090909090935,
                "tempo": 120.0
            },
            {
                "start_time": 28.243181818181817,
                "end_time": 28.711363636363636,
                "pitch": 89,
                "velocity": 51,
                "duration": 0.4681818181818187,
                "tempo": 120.0
            },
            {
                "start_time": 28.71363636363636,
                "end_time": 29.170454545454543,
                "pitch": 86,
                "velocity": 51,
                "duration": 0.456818181818182,
                "tempo": 120.0
            },
            {
                "start_time": 29.172727272727272,
                "end_time": 29.64090909090909,
                "pitch": 82,
                "velocity": 51,
                "duration": 0.4681818181818187,
                "tempo": 120.0
            },
            {
                "start_time": 29.64090909090909,
                "end_time": 30.111363636363635,
                "pitch": 88,
                "velocity": 51,
                "duration": 0.4704545454545439,
                "tempo": 120.0
            },
            {
                "start_time": 30.111363636363635,
                "end_time": 30.579545454545453,
                "pitch": 86,
                "velocity": 51,
                "duration": 0.4681818181818187,
                "tempo": 120.0
            },
            {
                "start_time": 30.579545454545453,
                "end_time": 31.03863636363636,
                "pitch": 84,
                "velocity": 51,
                "duration": 0.4590909090909072,
                "tempo": 120.0
            },
            {
                "start_time": 31.03863636363636,
                "end_time": 31.188636363636363,
                "pitch": 91,
                "velocity": 51,
                "duration": 0.15000000000000213,
                "tempo": 120.0
            },
            {
                "start_time": 27.924999999999997,
                "end_time": 31.188636363636363,
                "pitch": 103,
                "velocity": 51,
                "duration": 3.2636363636363654,
                "tempo": 120.0
            },
            {
                "start_time": 31.188636363636363,
                "end_time": 31.27272727272727,
                "pitch": 91,
                "velocity": 51,
                "duration": 0.08409090909090722,
                "tempo": 120.0
            },
            {
                "start_time": 31.275,
                "end_time": 31.509090909090908,
                "pitch": 89,
                "velocity": 51,
                "duration": 0.23409090909090935,
                "tempo": 120.0
            },
            {
                "start_time": 31.509090909090908,
                "end_time": 31.743181818181817,
                "pitch": 88,
                "velocity": 51,
                "duration": 0.23409090909090935,
                "tempo": 120.0
            },
            {
                "start_time": 31.743181818181817,
                "end_time": 31.977272727272727,
                "pitch": 86,
                "velocity": 51,
                "duration": 0.23409090909090935,
                "tempo": 120.0
            },
            {
                "start_time": 31.977272727272727,
                "end_time": 32.125,
                "pitch": 91,
                "velocity": 51,
                "duration": 0.14772727272727337,
                "tempo": 120.0
            },
            {
                "start_time": 31.188636363636363,
                "end_time": 32.125,
                "pitch": 103,
                "velocity": 51,
                "duration": 0.9363636363636374,
                "tempo": 120.0
            },
            {
                "start_time": 32.125,
                "end_time": 32.20681818181818,
                "pitch": 91,
                "velocity": 51,
                "duration": 0.08181818181817846,
                "tempo": 120.0
            },
            {
                "start_time": 32.20681818181818,
                "end_time": 32.43636363636364,
                "pitch": 93,
                "velocity": 51,
                "duration": 0.22954545454545894,
                "tempo": 120.0
            },
            {
                "start_time": 32.43636363636364,
                "end_time": 32.67045454545455,
                "pitch": 82,
                "velocity": 51,
                "duration": 0.23409090909090935,
                "tempo": 120.0
            },
            {
                "start_time": 32.67272727272727,
                "end_time": 32.90681818181818,
                "pitch": 84,
                "velocity": 51,
                "duration": 0.23409090909090935,
                "tempo": 120.0
            },
            {
                "start_time": 32.90681818181818,
                "end_time": 33.14545454545454,
                "pitch": 86,
                "velocity": 51,
                "duration": 0.23863636363635976,
                "tempo": 120.0
            },
            {
                "start_time": 33.14545454545454,
                "end_time": 33.38409090909091,
                "pitch": 88,
                "velocity": 51,
                "duration": 0.23863636363636687,
                "tempo": 120.0
            },
            {
                "start_time": 33.38409090909091,
                "end_time": 33.61363636363636,
                "pitch": 89,
                "velocity": 51,
                "duration": 0.22954545454545183,
                "tempo": 120.0
            },
            {
                "start_time": 33.61363636363636,
                "end_time": 33.76136363636363,
                "pitch": 91,
                "velocity": 51,
                "duration": 0.14772727272727337,
                "tempo": 120.0
            },
            {
                "start_time": 32.125,
                "end_time": 33.76136363636363,
                "pitch": 103,
                "velocity": 51,
                "duration": 1.6363636363636331,
                "tempo": 120.0
            },
            {
                "start_time": 33.76136363636363,
                "end_time": 33.84318181818182,
                "pitch": 91,
                "velocity": 51,
                "duration": 0.08181818181818556,
                "tempo": 120.0
            },
            {
                "start_time": 33.84318181818182,
                "end_time": 34.40909090909091,
                "pitch": 77,
                "velocity": 51,
                "duration": 0.5659090909090878,
                "tempo": 120.0
            }
        ],
        "Electric Piano 1": [
            {
                "start_time": 0.7840909090909091,
                "end_time": 1.0204545454545455,
                "pitch": 86,
                "velocity": 51,
                "duration": 0.23636363636363644,
                "tempo": 120.0
            },
            {
                "start_time": 1.0204545454545455,
                "end_time": 1.2545454545454544,
                "pitch": 84,
                "velocity": 51,
                "duration": 0.2340909090909089,
                "tempo": 120.0
            },
            {
                "start_time": 1.2545454545454544,
                "end_time": 1.4886363636363635,
                "pitch": 82,
                "velocity": 51,
                "duration": 0.23409090909090913,
                "tempo": 120.0
            },
            {
                "start_time": 1.4886363636363635,
                "end_time": 1.7227272727272727,
                "pitch": 81,
                "velocity": 51,
                "duration": 0.23409090909090913,
                "tempo": 120.0
            },
            {
                "start_time": 1.7249999999999999,
                "end_time": 1.825,
                "pitch": 79,
                "velocity": 51,
                "duration": 0.10000000000000009,
                "tempo": 120.0
            },
            {
                "start_time": 1.825,
                "end_time": 1.9931818181818182,
                "pitch": 79,
                "velocity": 51,
                "duration": 0.1681818181818182,
                "tempo": 120.0
            },
            {
                "start_time": 1.825,
                "end_time": 1.9931818181818182,
                "pitch": 91,
                "velocity": 51,
                "duration": 0.1681818181818182,
                "tempo": 120.0
            },
            {
                "start_time": 1.9931818181818182,
                "end_time": 2.159090909090909,
                "pitch": 79,
                "velocity": 51,
                "duration": 0.165909090909091,
                "tempo": 120.0
            },
            {
                "start_time": 1.9931818181818182,
                "end_time": 2.159090909090909,
                "pitch": 91,
                "velocity": 51,
                "duration": 0.165909090909091,
                "tempo": 120.0
            },
            {
                "start_time": 2.159090909090909,
                "end_time": 2.193181818181818,
                "pitch": 79,
                "velocity": 51,
                "duration": 0.03409090909090873,
                "tempo": 120.0
            },
            {
                "start_time": 2.193181818181818,
                "end_time": 2.6636363636363636,
                "pitch": 81,
                "velocity": 51,
                "duration": 0.4704545454545457,
                "tempo": 120.0
            },
            {
                "start_time": 2.6636363636363636,
                "end_time": 3.131818181818182,
                "pitch": 82,
                "velocity": 51,
                "duration": 0.46818181818181825,
                "tempo": 120.0
            },
            {
                "start_time": 3.131818181818182,
                "end_time": 3.590909090909091,
                "pitch": 81,
                "velocity": 51,
                "duration": 0.459090909090909,
                "tempo": 120.0
            },
            {
                "start_time": 3.590909090909091,
                "end_time": 4.0613636363636365,
                "pitch": 77,
                "velocity": 51,
                "duration": 0.4704545454545457,
                "tempo": 120.0
            },
            {
                "start_time": 4.0613636363636365,
                "end_time": 4.161363636363636,
                "pitch": 79,
                "velocity": 51,
                "duration": 0.09999999999999964,
                "tempo": 120.0
            },
            {
                "start_time": 2.159090909090909,
                "end_time": 4.161363636363636,
                "pitch": 91,
                "velocity": 51,
                "duration": 2.002272727272727,
                "tempo": 120.0
            },
            {
                "start_time": 4.161363636363636,
                "end_time": 4.329545454545454,
                "pitch": 79,
                "velocity": 51,
                "duration": 0.168181818181818,
                "tempo": 120.0
            },
            {
                "start_time": 4.161363636363636,
                "end_time": 4.329545454545454,
                "pitch": 91,
                "velocity": 51,
                "duration": 0.168181818181818,
                "tempo": 120.0
            },
            {
                "start_time": 4.329545454545454,
                "end_time": 4.497727272727272,
                "pitch": 79,
                "velocity": 51,
                "duration": 0.168181818181818,
                "tempo": 120.0
            },
            {
                "start_time": 4.329545454545454,
                "end_time": 4.497727272727272,
                "pitch": 91,
                "velocity": 51,
                "duration": 0.168181818181818,
                "tempo": 120.0
            },
            {
                "start_time": 4.497727272727272,
                "end_time": 4.529545454545454,
                "pitch": 79,
                "velocity": 51,
                "duration": 0.03181818181818219,
                "tempo": 120.0
            },
            {
                "start_time": 4.531818181818181,
                "end_time": 4.765909090909091,
                "pitch": 82,
                "velocity": 51,
                "duration": 0.23409090909090935,
                "tempo": 120.0
            },
            {
                "start_time": 4.765909090909091,
                "end_time": 5.0,
                "pitch": 84,
                "velocity": 51,
                "duration": 0.23409090909090935,
                "tempo": 120.0
            },
            {
                "start_time": 5.0,
                "end_time": 5.2340909090909085,
                "pitch": 82,
                "velocity": 51,
                "duration": 0.23409090909090846,
                "tempo": 120.0
            },
            {
                "start_time": 5.236363636363636,
                "end_time": 5.470454545454545,
                "pitch": 81,
                "velocity": 51,
                "duration": 0.23409090909090846,
                "tempo": 120.0
            },
            {
                "start_time": 5.470454545454545,
                "end_time": 5.502272727272727,
                "pitch": 79,
                "velocity": 51,
                "duration": 0.03181818181818219,
                "tempo": 120.0
            },
            {
                "start_time": 4.497727272727272,
                "end_time": 5.502272727272727,
                "pitch": 91,
                "velocity": 51,
                "duration": 1.0045454545454549,
                "tempo": 120.0
            },
            {
                "start_time": 5.502272727272727,
                "end_time": 5.670454545454545,
                "pitch": 79,
                "velocity": 51,
                "duration": 0.168181818181818,
                "tempo": 120.0
            },
            {
                "start_time": 5.502272727272727,
                "end_time": 5.670454545454545,
                "pitch": 91,
                "velocity": 51,
                "duration": 0.168181818181818,
                "tempo": 120.0
            },
            {
                "start_time": 5.670454545454545,
                "end_time": 5.704545454545454,
                "pitch": 79,
                "velocity": 51,
                "duration": 0.03409090909090917,
                "tempo": 120.0
            },
            {
                "start_time": 5.704545454545454,
                "end_time": 5.9386363636363635,
                "pitch": 76,
                "velocity": 51,
                "duration": 0.23409090909090935,
                "tempo": 120.0
            },
            {
                "start_time": 5.9409090909090905,
                "end_time": 6.406818181818181,
                "pitch": 86,
                "velocity": 51,
                "duration": 0.46590909090909083,
                "tempo": 120.0
            },
            {
                "start_time": 6.406818181818181,
                "end_time": 6.86590909090909,
                "pitch": 81,
                "velocity": 51,
                "duration": 0.459090909090909,
                "tempo": 120.0
            },
            {
                "start_time": 6.86590909090909,
                "end_time": 7.327272727272727,
                "pitch": 89,
                "velocity": 51,
                "duration": 0.46136363636363686,
                "tempo": 120.0
            },
            {
                "start_time": 5.670454545454545,
                "end_time": 7.327272727272727,
                "pitch": 91,
                "velocity": 51,
                "duration": 1.6568181818181822,
                "tempo": 120.0
            },
            {
                "start_time": 7.327272727272727,
                "end_time": 7.495454545454545,
                "pitch": 91,
                "velocity": 51,
                "duration": 0.168181818181818,
                "tempo": 120.0
            },
            {
                "start_time": 7.327272727272727,
                "end_time": 7.495454545454545,
                "pitch": 91,
                "velocity": 51,
                "duration": 0.168181818181818,
                "tempo": 120.0
            },
            {
                "start_time": 7.327272727272727,
                "end_time": 7.495454545454545,
                "pitch": 103,
                "velocity": 51,
                "duration": 0.168181818181818,
                "tempo": 120.0
            },
            {
                "start_time": 7.495454545454545,
                "end_time": 7.561363636363636,
                "pitch": 91,
                "velocity": 51,
                "duration": 0.06590909090909047,
                "tempo": 120.0
            },
            {
                "start_time": 7.561363636363636,
                "end_time": 7.795454545454545,
                "pitch": 89,
                "velocity": 51,
                "duration": 0.23409090909090935,
                "tempo": 120.0
            },
            {
                "start_time": 7.797727272727272,
                "end_time": 8.031818181818181,
                "pitch": 88,
                "velocity": 51,
                "duration": 0.23409090909090935,
                "tempo": 120.0
            },
            {
                "start_time": 8.031818181818181,
                "end_time": 8.26590909090909,
                "pitch": 89,
                "velocity": 51,
                "duration": 0.23409090909090935,
                "tempo": 120.0
            },
            {
                "start_time": 8.26590909090909,
                "end_time": 8.73409090909091,
                "pitch": 88,
                "velocity": 51,
                "duration": 0.4681818181818187,
                "tempo": 120.0
            },
            {
                "start_time": 8.73409090909091,
                "end_time": 8.963636363636363,
                "pitch": 93,
                "velocity": 51,
                "duration": 0.2295454545454536,
                "tempo": 120.0
            },
            {
                "start_time": 8.963636363636363,
                "end_time": 8.995454545454544,
                "pitch": 91,
                "velocity": 51,
                "duration": 0.0318181818181813,
                "tempo": 120.0
            },
            {
                "start_time": 7.495454545454545,
                "end_time": 8.995454545454544,
                "pitch": 103,
                "velocity": 51,
                "duration": 1.4999999999999991,
                "tempo": 120.0
            },
            {
                "start_time": 8.995454545454544,
                "end_time": 9.161363636363635,
                "pitch": 91,
                "velocity": 51,
                "duration": 0.165909090909091,
                "tempo": 120.0
            },
            {
                "start_time": 8.995454545454544,
                "end_time": 9.161363636363635,
                "pitch": 103,
                "velocity": 51,
                "duration": 0.165909090909091,
                "tempo": 120.0
            },
            {
                "start_time": 9.161363636363635,
                "end_time": 9.195454545454545,
                "pitch": 91,
                "velocity": 51,
                "duration": 0.03409090909091006,
                "tempo": 120.0
            },
            {
                "start_time": 9.195454545454545,
                "end_time": 9.429545454545455,
                "pitch": 89,
                "velocity": 51,
                "duration": 0.23409090909090935,
                "tempo": 120.0
            },
            {
                "start_time": 9.429545454545455,
                "end_time": 9.495454545454544,
                "pitch": 91,
                "velocity": 51,
                "duration": 0.06590909090908958,
                "tempo": 120.0
            },
            {
                "start_time": 9.161363636363635,
                "end_time": 9.495454545454544,
                "pitch": 103,
                "velocity": 51,
                "duration": 0.334090909090909,
                "tempo": 120.0
            },
            {
                "start_time": 9.495454545454544,
                "end_time": 9.663636363636364,
                "pitch": 91,
                "velocity": 51,
                "duration": 0.16818181818181976,
                "tempo": 120.0
            },
            {
                "start_time": 9.495454545454544,
                "end_time": 9.663636363636364,
                "pitch": 103,
                "velocity": 51,
                "duration": 0.16818181818181976,
                "tempo": 120.0
            },
            {
                "start_time": 9.663636363636364,
                "end_time": 9.9,
                "pitch": 89,
                "velocity": 51,
                "duration": 0.23636363636363633,
                "tempo": 120.0
            },
            {
                "start_time": 9.9,
                "end_time": 10.134090909090908,
                "pitch": 88,
                "velocity": 51,
                "duration": 0.23409090909090757,
                "tempo": 120.0
            },
            {
                "start_time": 10.134090909090908,
                "end_time": 10.368181818181817,
                "pitch": 82,
                "velocity": 51,
                "duration": 0.23409090909090935,
                "tempo": 120.0
            },
            {
                "start_time": 10.368181818181817,
                "end_time": 10.602272727272727,
                "pitch": 81,
                "velocity": 51,
                "duration": 0.23409090909090935,
                "tempo": 120.0
            },
            {
                "start_time": 10.602272727272727,
                "end_time": 10.831818181818182,
                "pitch": 82,
                "velocity": 51,
                "duration": 0.22954545454545539,
                "tempo": 120.0
            },
            {
                "start_time": 10.831818181818182,
                "end_time": 11.061363636363636,
                "pitch": 84,
                "velocity": 51,
                "duration": 0.2295454545454536,
                "tempo": 120.0
            },
            {
                "start_time": 11.061363636363636,
                "end_time": 11.297727272727272,
                "pitch": 86,
                "velocity": 51,
                "duration": 0.23636363636363633,
                "tempo": 120.0
            },
            {
                "start_time": 11.297727272727272,
                "end_time": 11.531818181818181,
                "pitch": 88,
                "velocity": 51,
                "duration": 0.23409090909090935,
                "tempo": 120.0
            },
            {
                "start_time": 11.531818181818181,
                "end_time": 12.0,
                "pitch": 86,
                "velocity": 51,
                "duration": 0.4681818181818187,
                "tempo": 120.0
            },
            {
                "start_time": 12.0,
                "end_time": 12.459090909090909,
                "pitch": 81,
                "velocity": 51,
                "duration": 0.459090909090909,
                "tempo": 120.0
            },
            {
                "start_time": 12.461363636363636,
                "end_time": 12.695454545454545,
                "pitch": 86,
                "velocity": 51,
                "duration": 0.23409090909090935,
                "tempo": 120.0
            },
            {
                "start_time": 12.695454545454545,
                "end_time": 12.929545454545455,
                "pitch": 89,
                "velocity": 51,
                "duration": 0.23409090909090935,
                "tempo": 120.0
            },
            {
                "start_time": 9.663636363636364,
                "end_time": 12.997727272727271,
                "pitch": 91,
                "velocity": 51,
                "duration": 3.334090909090907,
                "tempo": 120.0
            },
            {
                "start_time": 12.929545454545455,
                "end_time": 12.997727272727271,
                "pitch": 91,
                "velocity": 51,
                "duration": 0.06818181818181657,
                "tempo": 120.0
            },
            {
                "start_time": 9.663636363636364,
                "end_time": 12.997727272727271,
                "pitch": 103,
                "velocity": 51,
                "duration": 3.334090909090907,
                "tempo": 120.0
            },
            {
                "start_time": 12.997727272727271,
                "end_time": 13.163636363636362,
                "pitch": 91,
                "velocity": 51,
                "duration": 0.165909090909091,
                "tempo": 120.0
            },
            {
                "start_time": 12.997727272727271,
                "end_time": 13.163636363636362,
                "pitch": 103,
                "velocity": 51,
                "duration": 0.165909090909091,
                "tempo": 120.0
            },
            {
                "start_time": 13.163636363636362,
                "end_time": 13.331818181818182,
                "pitch": 91,
                "velocity": 51,
                "duration": 0.16818181818181976,
                "tempo": 120.0
            },
            {
                "start_time": 13.163636363636362,
                "end_time": 13.331818181818182,
                "pitch": 103,
                "velocity": 51,
                "duration": 0.16818181818181976,
                "tempo": 120.0
            },
            {
                "start_time": 13.331818181818182,
                "end_time": 13.397727272727272,
                "pitch": 91,
                "velocity": 51,
                "duration": 0.06590909090908958,
                "tempo": 120.0
            },
            {
                "start_time": 13.397727272727272,
                "end_time": 13.859090909090908,
                "pitch": 88,
                "velocity": 51,
                "duration": 0.461363636363636,
                "tempo": 120.0
            },
            {
                "start_time": 13.859090909090908,
                "end_time": 14.327272727272726,
                "pitch": 89,
                "velocity": 51,
                "duration": 0.4681818181818187,
                "tempo": 120.0
            },
            {
                "start_time": 14.327272727272726,
                "end_time": 14.797727272727272,
                "pitch": 93,
                "velocity": 51,
                "duration": 0.4704545454545457,
                "tempo": 120.0
            },
            {
                "start_time": 14.797727272727272,
                "end_time": 14.83181818181818,
                "pitch": 91,
                "velocity": 51,
                "duration": 0.034090909090908283,
                "tempo": 120.0
            },
            {
                "start_time": 13.331818181818182,
                "end_time": 14.83181818181818,
                "pitch": 103,
                "velocity": 51,
                "duration": 1.4999999999999982,
                "tempo": 120.0
            },
            {
                "start_time": 14.83181818181818,
                "end_time": 14.997727272727271,
                "pitch": 91,
                "velocity": 51,
                "duration": 0.165909090909091,
                "tempo": 120.0
            },
            {
                "start_time": 14.83181818181818,
                "end_time": 14.997727272727271,
                "pitch": 103,
                "velocity": 51,
                "duration": 0.165909090909091,
                "tempo": 120.0
            },
            {
                "start_time": 14.997727272727271,
                "end_time": 15.165909090909091,
                "pitch": 91,
                "velocity": 51,
                "duration": 0.16818181818181976,
                "tempo": 120.0
            },
            {
                "start_time": 14.997727272727271,
                "end_time": 15.165909090909091,
                "pitch": 103,
                "velocity": 51,
                "duration": 0.16818181818181976,
                "tempo": 120.0
            },
            {
                "start_time": 15.165909090909091,
                "end_time": 15.26590909090909,
                "pitch": 91,
                "velocity": 51,
                "duration": 0.09999999999999964,
                "tempo": 120.0
            },
            {
                "start_time": 15.26590909090909,
                "end_time": 15.725,
                "pitch": 86,
                "velocity": 51,
                "duration": 0.459090909090909,
                "tempo": 120.0
            },
            {
                "start_time": 15.725,
                "end_time": 15.961363636363636,
                "pitch": 89,
                "velocity": 51,
                "duration": 0.23636363636363633,
                "tempo": 120.0
            },
            {
                "start_time": 15.961363636363636,
                "end_time": 16.195454545454545,
                "pitch": 88,
                "velocity": 51,
                "duration": 0.23409090909090935,
                "tempo": 120.0
            },
            {
                "start_time": 16.195454545454545,
                "end_time": 16.429545454545455,
                "pitch": 89,
                "velocity": 51,
                "duration": 0.23409090909090935,
                "tempo": 120.0
            },
            {
                "start_time": 16.429545454545455,
                "end_time": 16.49772727272727,
                "pitch": 91,
                "velocity": 51,
                "duration": 0.06818181818181657,
                "tempo": 120.0
            },
            {
                "start_time": 15.165909090909091,
                "end_time": 16.49772727272727,
                "pitch": 103,
                "velocity": 51,
                "duration": 1.3318181818181802,
                "tempo": 120.0
            },
            {
                "start_time": 16.49772727272727,
                "end_time": 16.66590909090909,
                "pitch": 91,
                "velocity": 51,
                "duration": 0.168181818181818,
                "tempo": 120.0
            },
            {
                "start_time": 16.49772727272727,
                "end_time": 16.66590909090909,
                "pitch": 103,
                "velocity": 51,
                "duration": 0.168181818181818,
                "tempo": 120.0
            },
            {
                "start_time": 16.66590909090909,
                "end_time": 16.9,
                "pitch": 89,
                "velocity": 51,
                "duration": 0.23409090909090935,
                "tempo": 120.0
            },
            {
                "start_time": 16.9,
                "end_time": 17.131818181818183,
                "pitch": 88,
                "velocity": 51,
                "duration": 0.23181818181818414,
                "tempo": 120.0
            },
            {
                "start_time": 17.134090909090908,
                "end_time": 17.361363636363635,
                "pitch": 86,
                "velocity": 51,
                "duration": 0.22727272727272663,
                "tempo": 120.0
            },
            {
                "start_time": 17.361363636363635,
                "end_time": 17.59318181818182,
                "pitch": 84,
                "velocity": 51,
                "duration": 0.23181818181818414,
                "tempo": 120.0
            },
            {
                "start_time": 17.59318181818182,
                "end_time": 17.827272727272728,
                "pitch": 86,
                "velocity": 51,
                "duration": 0.23409090909090935,
                "tempo": 120.0
            },
            {
                "start_time": 17.829545454545453,
                "end_time": 18.529545454545453,
                "pitch": 81,
                "velocity": 51,
                "duration": 0.6999999999999993,
                "tempo": 120.0
            },
            {
                "start_time": 18.53181818181818,
                "end_time": 18.759090909090908,
                "pitch": 89,
                "velocity": 51,
                "duration": 0.22727272727272663,
                "tempo": 120.0
            },
            {
                "start_time": 18.761363636363637,
                "end_time": 18.99090909090909,
                "pitch": 88,
                "velocity": 51,
                "duration": 0.22954545454545183,
                "tempo": 120.0
            },
            {
                "start_time": 18.99090909090909,
                "end_time": 19.224999999999998,
                "pitch": 89,
                "velocity": 51,
                "duration": 0.23409090909090935,
                "tempo": 120.0
            },
            {
                "start_time": 16.66590909090909,
                "end_time": 19.327272727272728,
                "pitch": 91,
                "velocity": 51,
                "duration": 2.661363636363639,
                "tempo": 120.0
            },
            {
                "start_time": 19.227272727272727,
                "end_time": 19.327272727272728,
                "pitch": 91,
                "velocity": 51,
                "duration": 0.10000000000000142,
                "tempo": 120.0
            },
            {
                "start_time": 16.66590909090909,
                "end_time": 19.327272727272728,
                "pitch": 103,
                "velocity": 51,
                "duration": 2.661363636363639,
                "tempo": 120.0
            },
            {
                "start_time": 19.327272727272728,
                "end_time": 19.461363636363636,
                "pitch": 91,
                "velocity": 51,
                "duration": 0.13409090909090793,
                "tempo": 120.0
            },
            {
                "start_time": 19.461363636363636,
                "end_time": 19.695454545454545,
                "pitch": 93,
                "velocity": 51,
                "duration": 0.23409090909090935,
                "tempo": 120.0
            },
            {
                "start_time": 19.695454545454545,
                "end_time": 19.929545454545455,
                "pitch": 89,
                "velocity": 51,
                "duration": 0.23409090909090935,
                "tempo": 120.0
            },
            {
                "start_time": 19.93181818181818,
                "end_time": 20.868181818181817,
                "pitch": 81,
                "velocity": 51,
                "duration": 0.9363636363636374,
                "tempo": 120.0
            },
            {
                "start_time": 20.868181818181817,
                "end_time": 21.097727272727273,
                "pitch": 89,
                "velocity": 51,
                "duration": 0.22954545454545539,
                "tempo": 120.0
            },
            {
                "start_time": 21.097727272727273,
                "end_time": 21.329545454545453,
                "pitch": 86,
                "velocity": 51,
                "duration": 0.2318181818181806,
                "tempo": 120.0
            },
            {
                "start_time": 19.327272727272728,
                "end_time": 21.329545454545453,
                "pitch": 103,
                "velocity": 51,
                "duration": 2.002272727272725,
                "tempo": 120.0
            },
            {
                "start_time": 21.329545454545453,
                "end_time": 21.495454545454546,
                "pitch": 91,
                "velocity": 51,
                "duration": 0.16590909090909278,
                "tempo": 120.0
            },
            {
                "start_time": 21.329545454545453,
                "end_time": 21.495454545454546,
                "pitch": 91,
                "velocity": 51,
                "duration": 0.16590909090909278,
                "tempo": 120.0
            },
            {
                "start_time": 21.329545454545453,
                "end_time": 21.495454545454546,
                "pitch": 103,
                "velocity": 51,
                "duration": 0.16590909090909278,
                "tempo": 120.0
            },
            {
                "start_time": 21.495454545454546,
                "end_time": 21.663636363636364,
                "pitch": 91,
                "velocity": 51,
                "duration": 0.168181818181818,
                "tempo": 120.0
            },
            {
                "start_time": 21.495454545454546,
                "end_time": 21.663636363636364,
                "pitch": 103,
                "velocity": 51,
                "duration": 0.168181818181818,
                "tempo": 120.0
            },
            {
                "start_time": 21.663636363636364,
                "end_time": 21.831818181818182,
                "pitch": 91,
                "velocity": 51,
                "duration": 0.168181818181818,
                "tempo": 120.0
            },
            {
                "start_time": 21.663636363636364,
                "end_time": 21.831818181818182,
                "pitch": 103,
                "velocity": 51,
                "duration": 0.168181818181818,
                "tempo": 120.0
            },
            {
                "start_time": 21.831818181818182,
                "end_time": 22.0,
                "pitch": 91,
                "velocity": 51,
                "duration": 0.168181818181818,
                "tempo": 120.0
            },
            {
                "start_time": 21.831818181818182,
                "end_time": 22.0,
                "pitch": 103,
                "velocity": 51,
                "duration": 0.168181818181818,
                "tempo": 120.0
            },
            {
                "start_time": 22.0,
                "end_time": 22.16590909090909,
                "pitch": 91,
                "velocity": 51,
                "duration": 0.16590909090908923,
                "tempo": 120.0
            },
            {
                "start_time": 22.0,
                "end_time": 22.16590909090909,
                "pitch": 103,
                "velocity": 51,
                "duration": 0.16590909090908923,
                "tempo": 120.0
            },
            {
                "start_time": 22.16590909090909,
                "end_time": 22.33863636363636,
                "pitch": 91,
                "velocity": 51,
                "duration": 0.17272727272727195,
                "tempo": 120.0
            },
            {
                "start_time": 22.16590909090909,
                "end_time": 22.33863636363636,
                "pitch": 103,
                "velocity": 51,
                "duration": 0.17272727272727195,
                "tempo": 120.0
            },
            {
                "start_time": 22.33863636363636,
                "end_time": 22.513636363636362,
                "pitch": 91,
                "velocity": 51,
                "duration": 0.1750000000000007,
                "tempo": 120.0
            },
            {
                "start_time": 22.33863636363636,
                "end_time": 22.513636363636362,
                "pitch": 103,
                "velocity": 51,
                "duration": 0.1750000000000007,
                "tempo": 120.0
            },
            {
                "start_time": 22.513636363636362,
                "end_time": 22.688636363636363,
                "pitch": 91,
                "velocity": 51,
                "duration": 0.1750000000000007,
                "tempo": 120.0
            },
            {
                "start_time": 22.513636363636362,
                "end_time": 22.688636363636363,
                "pitch": 103,
                "velocity": 51,
                "duration": 0.1750000000000007,
                "tempo": 120.0
            },
            {
                "start_time": 22.688636363636363,
                "end_time": 22.75,
                "pitch": 91,
                "velocity": 51,
                "duration": 0.0613636363636374,
                "tempo": 120.0
            },
            {
                "start_time": 22.75,
                "end_time": 23.193181818181817,
                "pitch": 93,
                "velocity": 51,
                "duration": 0.44318181818181657,
                "tempo": 120.0
            },
            {
                "start_time": 23.193181818181817,
                "end_time": 23.661363636363635,
                "pitch": 89,
                "velocity": 51,
                "duration": 0.4681818181818187,
                "tempo": 120.0
            },
            {
                "start_time": 23.661363636363635,
                "end_time": 24.12272727272727,
                "pitch": 86,
                "velocity": 51,
                "duration": 0.461363636363636,
                "tempo": 120.0
            },
            {
                "start_time": 24.12272727272727,
                "end_time": 24.59090909090909,
                "pitch": 94,
                "velocity": 51,
                "duration": 0.4681818181818187,
                "tempo": 120.0
            },
            {
                "start_time": 24.59318181818182,
                "end_time": 25.061363636363634,
                "pitch": 93,
                "velocity": 51,
                "duration": 0.46818181818181515,
                "tempo": 120.0
            },
            {
                "start_time": 25.061363636363634,
                "end_time": 25.529545454545453,
                "pitch": 89,
                "velocity": 51,
                "duration": 0.4681818181818187,
                "tempo": 120.0
            },
            {
                "start_time": 25.529545454545453,
                "end_time": 25.643181818181816,
                "pitch": 91,
                "velocity": 51,
                "duration": 0.11363636363636331,
                "tempo": 120.0
            },
            {
                "start_time": 22.688636363636363,
                "end_time": 25.643181818181816,
                "pitch": 103,
                "velocity": 51,
                "duration": 2.9545454545454533,
                "tempo": 120.0
            },
            {
                "start_time": 25.643181818181816,
                "end_time": 25.759090909090908,
                "pitch": 91,
                "velocity": 51,
                "duration": 0.11590909090909207,
                "tempo": 120.0
            },
            {
                "start_time": 25.759090909090908,
                "end_time": 25.99090909090909,
                "pitch": 88,
                "velocity": 51,
                "duration": 0.2318181818181806,
                "tempo": 120.0
            },
            {
                "start_time": 25.99090909090909,
                "end_time": 26.224999999999998,
                "pitch": 89,
                "velocity": 51,
                "duration": 0.23409090909090935,
                "tempo": 120.0
            },
            {
                "start_time": 26.224999999999998,
                "end_time": 26.325,
                "pitch": 91,
                "velocity": 51,
                "duration": 0.10000000000000142,
                "tempo": 120.0
            },
            {
                "start_time": 25.643181818181816,
                "end_time": 26.325,
                "pitch": 103,
                "velocity": 51,
                "duration": 0.6818181818181834,
                "tempo": 120.0
            },
            {
                "start_time": 26.325,
                "end_time": 26.459090909090907,
                "pitch": 91,
                "velocity": 51,
                "duration": 0.13409090909090793,
                "tempo": 120.0
            },
            {
                "start_time": 26.459090909090907,
                "end_time": 26.929545454545455,
                "pitch": 89,
                "velocity": 51,
                "duration": 0.47045454545454746,
                "tempo": 120.0
            },
            {
                "start_time": 26.929545454545455,
                "end_time": 27.163636363636364,
                "pitch": 88,
                "velocity": 51,
                "duration": 0.23409090909090935,
                "tempo": 120.0
            },
            {
                "start_time": 27.163636363636364,
                "end_time": 27.39772727272727,
                "pitch": 86,
                "velocity": 51,
                "duration": 0.2340909090909058,
                "tempo": 120.0
            },
            {
                "start_time": 27.39772727272727,
                "end_time": 27.495454545454542,
                "pitch": 91,
                "velocity": 51,
                "duration": 0.09772727272727266,
                "tempo": 120.0
            },
            {
                "start_time": 26.325,
                "end_time": 27.495454545454542,
                "pitch": 103,
                "velocity": 51,
                "duration": 1.1704545454545432,
                "tempo": 120.0
            },
            {
                "start_time": 27.495454545454542,
                "end_time": 27.627272727272725,
                "pitch": 91,
                "velocity": 51,
                "duration": 0.13181818181818272,
                "tempo": 120.0
            },
            {
                "start_time": 27.627272727272725,
                "end_time": 27.85681818181818,
                "pitch": 89,
                "velocity": 51,
                "duration": 0.22954545454545539,
                "tempo": 120.0
            },
            {
                "start_time": 27.85681818181818,
                "end_time": 28.093181818181815,
                "pitch": 88,
                "velocity": 51,
                "duration": 0.23636363636363455,
                "tempo": 120.0
            },
            {
                "start_time": 28.093181818181815,
                "end_time": 28.327272727272724,
                "pitch": 84,
                "velocity": 51,
                "duration": 0.23409090909090935,
                "tempo": 120.0
            },
            {
                "start_time": 28.327272727272724,
                "end_time": 28.795454545454543,
                "pitch": 93,
                "velocity": 51,
                "duration": 0.4681818181818187,
                "tempo": 120.0
            },
            {
                "start_time": 28.795454545454543,
                "end_time": 29.254545454545454,
                "pitch": 89,
                "velocity": 51,
                "duration": 0.45909090909091077,
                "tempo": 120.0
            },
            {
                "start_time": 29.25681818181818,
                "end_time": 29.724999999999998,
                "pitch": 86,
                "velocity": 51,
                "duration": 0.4681818181818187,
                "tempo": 120.0
            },
            {
                "start_time": 29.724999999999998,
                "end_time": 30.195454545454545,
                "pitch": 96,
                "velocity": 51,
                "duration": 0.47045454545454746,
                "tempo": 120.0
            },
            {
                "start_time": 30.195454545454545,
                "end_time": 30.66363636363636,
                "pitch": 94,
                "velocity": 51,
                "duration": 0.46818181818181515,
                "tempo": 120.0
            },
            {
                "start_time": 30.66363636363636,
                "end_time": 31.12272727272727,
                "pitch": 93,
                "velocity": 51,
                "duration": 0.45909090909091077,
                "tempo": 120.0
            },
            {
                "start_time": 31.12272727272727,
                "end_time": 31.35681818181818,
                "pitch": 94,
                "velocity": 51,
                "duration": 0.23409090909090935,
                "tempo": 120.0
            },
            {
                "start_time": 31.359090909090906,
                "end_time": 31.593181818181815,
                "pitch": 93,
                "velocity": 51,
                "duration": 0.23409090909090935,
                "tempo": 120.0
            },
            {
                "start_time": 31.593181818181815,
                "end_time": 31.659090909090907,
                "pitch": 91,
                "velocity": 51,
                "duration": 0.06590909090909136,
                "tempo": 120.0
            },
            {
                "start_time": 27.495454545454542,
                "end_time": 31.659090909090907,
                "pitch": 103,
                "velocity": 51,
                "duration": 4.163636363636364,
                "tempo": 120.0
            },
            {
                "start_time": 31.659090909090907,
                "end_time": 31.827272727272724,
                "pitch": 91,
                "velocity": 51,
                "duration": 0.168181818181818,
                "tempo": 120.0
            },
            {
                "start_time": 31.659090909090907,
                "end_time": 31.827272727272724,
                "pitch": 103,
                "velocity": 51,
                "duration": 0.168181818181818,
                "tempo": 120.0
            },
            {
                "start_time": 31.827272727272724,
                "end_time": 32.06136363636364,
                "pitch": 89,
                "velocity": 51,
                "duration": 0.2340909090909129,
                "tempo": 120.0
            },
            {
                "start_time": 32.06136363636364,
                "end_time": 32.29090909090909,
                "pitch": 88,
                "velocity": 51,
                "duration": 0.22954545454545183,
                "tempo": 120.0
            },
            {
                "start_time": 32.29090909090909,
                "end_time": 32.52045454545454,
                "pitch": 89,
                "velocity": 51,
                "duration": 0.22954545454545183,
                "tempo": 120.0
            },
            {
                "start_time": 32.52045454545454,
                "end_time": 32.75681818181818,
                "pitch": 86,
                "velocity": 51,
                "duration": 0.23636363636364166,
                "tempo": 120.0
            },
            {
                "start_time": 32.75681818181818,
                "end_time": 32.99090909090909,
                "pitch": 88,
                "velocity": 51,
                "duration": 0.23409090909090935,
                "tempo": 120.0
            },
            {
                "start_time": 32.99318181818182,
                "end_time": 33.22954545454545,
                "pitch": 89,
                "velocity": 51,
                "duration": 0.23636363636363455,
                "tempo": 120.0
            },
            {
                "start_time": 31.827272727272724,
                "end_time": 33.33181818181818,
                "pitch": 91,
                "velocity": 51,
                "duration": 1.504545454545454,
                "tempo": 120.0
            },
            {
                "start_time": 33.22954545454545,
                "end_time": 33.33181818181818,
                "pitch": 91,
                "velocity": 51,
                "duration": 0.10227272727272663,
                "tempo": 120.0
            },
            {
                "start_time": 31.827272727272724,
                "end_time": 33.33181818181818,
                "pitch": 103,
                "velocity": 51,
                "duration": 1.504545454545454,
                "tempo": 120.0
            },
            {
                "start_time": 33.33181818181818,
                "end_time": 33.465909090909086,
                "pitch": 91,
                "velocity": 51,
                "duration": 0.13409090909090793,
                "tempo": 120.0
            },
            {
                "start_time": 33.465909090909086,
                "end_time": 33.695454545454545,
                "pitch": 93,
                "velocity": 51,
                "duration": 0.22954545454545894,
                "tempo": 120.0
            },
            {
                "start_time": 33.695454545454545,
                "end_time": 33.92727272727272,
                "pitch": 94,
                "velocity": 51,
                "duration": 0.23181818181817704,
                "tempo": 120.0
            }
        ],
        "Trumpet": [
            {
                "start_time": 0.23409090909090907,
                "end_time": 1.6409090909090909,
                "pitch": 38,
                "velocity": 80,
                "duration": 1.4068181818181817,
                "tempo": 120.0
            },
            {
                "start_time": 1.6409090909090909,
                "end_time": 3.05,
                "pitch": 45,
                "velocity": 80,
                "duration": 1.409090909090909,
                "tempo": 120.0
            },
            {
                "start_time": 3.05,
                "end_time": 4.447727272727272,
                "pitch": 41,
                "velocity": 80,
                "duration": 1.3977272727272725,
                "tempo": 120.0
            },
            {
                "start_time": 4.447727272727272,
                "end_time": 5.386363636363636,
                "pitch": 40,
                "velocity": 80,
                "duration": 0.9386363636363635,
                "tempo": 120.0
            },
            {
                "start_time": 5.388636363636364,
                "end_time": 5.8568181818181815,
                "pitch": 36,
                "velocity": 80,
                "duration": 0.4681818181818178,
                "tempo": 120.0
            },
            {
                "start_time": 5.8568181818181815,
                "end_time": 7.245454545454545,
                "pitch": 38,
                "velocity": 80,
                "duration": 1.3886363636363637,
                "tempo": 120.0
            },
            {
                "start_time": 7.245454545454545,
                "end_time": 8.652272727272727,
                "pitch": 45,
                "velocity": 80,
                "duration": 1.4068181818181822,
                "tempo": 120.0
            },
            {
                "start_time": 8.652272727272727,
                "end_time": 10.049999999999999,
                "pitch": 41,
                "velocity": 80,
                "duration": 1.3977272727272716,
                "tempo": 120.0
            },
            {
                "start_time": 10.052272727272726,
                "end_time": 10.520454545454545,
                "pitch": 40,
                "velocity": 80,
                "duration": 0.4681818181818187,
                "tempo": 120.0
            },
            {
                "start_time": 10.520454545454545,
                "end_time": 10.979545454545454,
                "pitch": 41,
                "velocity": 80,
                "duration": 0.459090909090909,
                "tempo": 120.0
            },
            {
                "start_time": 10.979545454545454,
                "end_time": 11.45,
                "pitch": 43,
                "velocity": 80,
                "duration": 0.4704545454545457,
                "tempo": 120.0
            },
            {
                "start_time": 11.45,
                "end_time": 12.847727272727273,
                "pitch": 38,
                "velocity": 80,
                "duration": 1.3977272727272734,
                "tempo": 120.0
            },
            {
                "start_time": 12.847727272727273,
                "end_time": 14.245454545454544,
                "pitch": 45,
                "velocity": 80,
                "duration": 1.3977272727272716,
                "tempo": 120.0
            },
            {
                "start_time": 14.245454545454544,
                "end_time": 15.643181818181818,
                "pitch": 41,
                "velocity": 80,
                "duration": 1.3977272727272734,
                "tempo": 120.0
            },
            {
                "start_time": 15.643181818181818,
                "end_time": 16.581818181818182,
                "pitch": 40,
                "velocity": 80,
                "duration": 0.9386363636363644,
                "tempo": 120.0
            },
            {
                "start_time": 16.581818181818182,
                "end_time": 17.052272727272726,
                "pitch": 36,
                "velocity": 80,
                "duration": 0.4704545454545439,
                "tempo": 120.0
            },
            {
                "start_time": 17.052272727272726,
                "end_time": 18.45,
                "pitch": 38,
                "velocity": 80,
                "duration": 1.3977272727272734,
                "tempo": 120.0
            },
            {
                "start_time": 18.45,
                "end_time": 19.847727272727273,
                "pitch": 45,
                "velocity": 80,
                "duration": 1.3977272727272734,
                "tempo": 120.0
            },
            {
                "start_time": 19.847727272727273,
                "end_time": 21.245454545454546,
                "pitch": 41,
                "velocity": 80,
                "duration": 1.3977272727272734,
                "tempo": 120.0
            },
            {
                "start_time": 21.245454545454546,
                "end_time": 21.71363636363636,
                "pitch": 40,
                "velocity": 80,
                "duration": 0.46818181818181515,
                "tempo": 120.0
            },
            {
                "start_time": 21.71363636363636,
                "end_time": 22.18409090909091,
                "pitch": 41,
                "velocity": 80,
                "duration": 0.47045454545454746,
                "tempo": 120.0
            },
            {
                "start_time": 22.18409090909091,
                "end_time": 22.672727272727272,
                "pitch": 43,
                "velocity": 80,
                "duration": 0.4886363636363633,
                "tempo": 120.0
            },
            {
                "start_time": 22.672727272727272,
                "end_time": 24.038636363636364,
                "pitch": 46,
                "velocity": 80,
                "duration": 1.365909090909092,
                "tempo": 120.0
            },
            {
                "start_time": 24.04090909090909,
                "end_time": 25.44772727272727,
                "pitch": 41,
                "velocity": 80,
                "duration": 1.4068181818181813,
                "tempo": 120.0
            },
            {
                "start_time": 25.44772727272727,
                "end_time": 26.845454545454544,
                "pitch": 43,
                "velocity": 80,
                "duration": 1.3977272727272734,
                "tempo": 120.0
            },
            {
                "start_time": 26.847727272727273,
                "end_time": 27.315909090909088,
                "pitch": 40,
                "velocity": 80,
                "duration": 0.46818181818181515,
                "tempo": 120.0
            },
            {
                "start_time": 27.315909090909088,
                "end_time": 27.775,
                "pitch": 41,
                "velocity": 80,
                "duration": 0.45909090909091077,
                "tempo": 120.0
            },
            {
                "start_time": 27.775,
                "end_time": 28.245454545454542,
                "pitch": 43,
                "velocity": 80,
                "duration": 0.4704545454545439,
                "tempo": 120.0
            },
            {
                "start_time": 28.245454545454542,
                "end_time": 29.643181818181816,
                "pitch": 46,
                "velocity": 80,
                "duration": 1.3977272727272734,
                "tempo": 120.0
            },
            {
                "start_time": 29.643181818181816,
                "end_time": 31.04090909090909,
                "pitch": 41,
                "velocity": 80,
                "duration": 1.3977272727272734,
                "tempo": 120.0
            },
            {
                "start_time": 31.04090909090909,
                "end_time": 32.43863636363636,
                "pitch": 40,
                "velocity": 80,
                "duration": 1.3977272727272734,
                "tempo": 120.0
            },
            {
                "start_time": 32.43863636363636,
                "end_time": 32.90681818181818,
                "pitch": 36,
                "velocity": 80,
                "duration": 0.4681818181818187,
                "tempo": 120.0
            },
            {
                "start_time": 32.90909090909091,
                "end_time": 33.38409090909091,
                "pitch": 40,
                "velocity": 80,
                "duration": 0.4750000000000014,
                "tempo": 120.0
            },
            {
                "start_time": 33.38409090909091,
                "end_time": 33.84318181818182,
                "pitch": 36,
                "velocity": 80,
                "duration": 0.45909090909091077,
                "tempo": 120.0
            },
            {
                "start_time": 33.845454545454544,
                "end_time": 34.40909090909091,
                "pitch": 38,
                "velocity": 80,
                "duration": 0.5636363636363626,
                "tempo": 120.0
            }
        ]
    }
}