{
    "track_id": "06_Over",
    "mood": "sad",
    "instruments": {
        "Electric Piano 1": [
            {
                "start_time": 0.6318181818181818,
                "end_time": 1.5204545454545453,
                "pitch": 64,
                "velocity": 101,
                "duration": 0.8886363636363634,
                "tempo": 120.0
            },
            {
                "start_time": 1.5227272727272727,
                "end_time": 2.3909090909090907,
                "pitch": 73,
                "velocity": 101,
                "duration": 0.8681818181818179,
                "tempo": 120.0
            },
            {
                "start_time": 2.3909090909090907,
                "end_time": 3.2704545454545455,
                "pitch": 59,
                "velocity": 101,
                "duration": 0.8795454545454549,
                "tempo": 120.0
            },
            {
                "start_time": 3.2704545454545455,
                "end_time": 4.152272727272727,
                "pitch": 64,
                "velocity": 101,
                "duration": 0.8818181818181818,
                "tempo": 120.0
            },
            {
                "start_time": 2.3909090909090907,
                "end_time": 5.0204545454545455,
                "pitch": 56,
                "velocity": 101,
                "duration": 2.629545454545455,
                "tempo": 120.0
            },
            {
                "start_time": 4.152272727272727,
                "end_time": 5.0204545454545455,
                "pitch": 73,
                "velocity": 101,
                "duration": 0.8681818181818182,
                "tempo": 120.0
            },
            {
                "start_time": 5.0204545454545455,
                "end_time": 5.902272727272727,
                "pitch": 59,
                "velocity": 101,
                "duration": 0.8818181818181818,
                "tempo": 120.0
            },
            {
                "start_time": 5.902272727272727,
                "end_time": 6.781818181818181,
                "pitch": 64,
                "velocity": 101,
                "duration": 0.879545454545454,
                "tempo": 120.0
            },
            {
                "start_time": 6.781818181818181,
                "end_time": 7.661363636363636,
                "pitch": 73,
                "velocity": 101,
                "duration": 0.8795454545454549,
                "tempo": 120.0
            },
            {
                "start_time": 4.152272727272727,
                "end_time": 8.531818181818181,
                "pitch": 61,
                "velocity": 101,
                "duration": 4.379545454545454,
                "tempo": 120.0
            },
            {
                "start_time": 7.661363636363636,
                "end_time": 8.531818181818181,
                "pitch": 61,
                "velocity": 101,
                "duration": 0.8704545454545451,
                "tempo": 120.0
            },
            {
                "start_time": 8.531818181818181,
                "end_time": 9.411363636363635,
                "pitch": 64,
                "velocity": 101,
                "duration": 0.879545454545454,
                "tempo": 120.0
            },
            {
                "start_time": 8.531818181818181,
                "end_time": 9.411363636363635,
                "pitch": 64,
                "velocity": 101,
                "duration": 0.879545454545454,
                "tempo": 120.0
            },
            {
                "start_time": 9.411363636363635,
                "end_time": 10.290909090909091,
                "pitch": 71,
                "velocity": 101,
                "duration": 0.8795454545454557,
                "tempo": 120.0
            },
            {
                "start_time": 10.290909090909091,
                "end_time": 11.170454545454545,
                "pitch": 59,
                "velocity": 101,
                "duration": 0.879545454545454,
                "tempo": 120.0
            },
            {
                "start_time": 5.902272727272727,
                "end_time": 12.040909090909091,
                "pitch": 66,
                "velocity": 101,
                "duration": 6.138636363636364,
                "tempo": 120.0
            },
            {
                "start_time": 11.170454545454545,
                "end_time": 12.040909090909091,
                "pitch": 66,
                "velocity": 101,
                "duration": 0.870454545454546,
                "tempo": 120.0
            },
            {
                "start_time": 12.040909090909091,
                "end_time": 12.920454545454545,
                "pitch": 73,
                "velocity": 101,
                "duration": 0.879545454545454,
                "tempo": 120.0
            },
            {
                "start_time": 12.920454545454545,
                "end_time": 13.799999999999999,
                "pitch": 66,
                "velocity": 101,
                "duration": 0.879545454545454,
                "tempo": 120.0
            },
            {
                "start_time": 13.799999999999999,
                "end_time": 14.679545454545455,
                "pitch": 61,
                "velocity": 101,
                "duration": 0.8795454545454557,
                "tempo": 120.0
            },
            {
                "start_time": 14.679545454545455,
                "end_time": 15.549999999999999,
                "pitch": 59,
                "velocity": 101,
                "duration": 0.8704545454545443,
                "tempo": 120.0
            },
            {
                "start_time": 11.170454545454545,
                "end_time": 15.549999999999999,
                "pitch": 67,
                "velocity": 101,
                "duration": 4.379545454545454,
                "tempo": 120.0
            },
            {
                "start_time": 15.549999999999999,
                "end_time": 16.429545454545455,
                "pitch": 66,
                "velocity": 101,
                "duration": 0.8795454545454557,
                "tempo": 120.0
            },
            {
                "start_time": 16.429545454545455,
                "end_time": 17.30909090909091,
                "pitch": 64,
                "velocity": 101,
                "duration": 0.879545454545454,
                "tempo": 120.0
            },
            {
                "start_time": 17.30909090909091,
                "end_time": 18.179545454545455,
                "pitch": 73,
                "velocity": 101,
                "duration": 0.870454545454546,
                "tempo": 120.0
            },
            {
                "start_time": 18.179545454545455,
                "end_time": 19.05909090909091,
                "pitch": 61,
                "velocity": 101,
                "duration": 0.879545454545454,
                "tempo": 120.0
            },
            {
                "start_time": 9.411363636363635,
                "end_time": 19.938636363636363,
                "pitch": 44,
                "velocity": 101,
                "duration": 10.527272727272727,
                "tempo": 120.0
            },
            {
                "start_time": 19.05909090909091,
                "end_time": 19.938636363636363,
                "pitch": 64,
                "velocity": 101,
                "duration": 0.879545454545454,
                "tempo": 120.0
            },
            {
                "start_time": 19.05909090909091,
                "end_time": 19.938636363636363,
                "pitch": 64,
                "velocity": 101,
                "duration": 0.879545454545454,
                "tempo": 120.0
            },
            {
                "start_time": 19.938636363636363,
                "end_time": 20.818181818181817,
                "pitch": 71,
                "velocity": 101,
                "duration": 0.879545454545454,
                "tempo": 120.0
            },
            {
                "start_time": 20.818181818181817,
                "end_time": 21.688636363636363,
                "pitch": 59,
                "velocity": 101,
                "duration": 0.870454545454546,
                "tempo": 120.0
            },
            {
                "start_time": 21.688636363636363,
                "end_time": 22.568181818181817,
                "pitch": 66,
                "velocity": 101,
                "duration": 0.879545454545454,
                "tempo": 120.0
            },
            {
                "start_time": 22.568181818181817,
                "end_time": 23.44772727272727,
                "pitch": 73,
                "velocity": 101,
                "duration": 0.879545454545454,
                "tempo": 120.0
            },
            {
                "start_time": 12.920454545454545,
                "end_time": 23.44772727272727,
                "pitch": 78,
                "velocity": 101,
                "duration": 10.527272727272726,
                "tempo": 120.0
            },
            {
                "start_time": 23.44772727272727,
                "end_time": 24.318181818181817,
                "pitch": 66,
                "velocity": 101,
                "duration": 0.870454545454546,
                "tempo": 120.0
            },
            {
                "start_time": 19.938636363636363,
                "end_time": 25.19772727272727,
                "pitch": 44,
                "velocity": 101,
                "duration": 5.259090909090908,
                "tempo": 120.0
            },
            {
                "start_time": 22.568181818181817,
                "end_time": 25.19772727272727,
                "pitch": 61,
                "velocity": 101,
                "duration": 2.629545454545454,
                "tempo": 120.0
            },
            {
                "start_time": 24.318181818181817,
                "end_time": 25.19772727272727,
                "pitch": 61,
                "velocity": 101,
                "duration": 0.879545454545454,
                "tempo": 120.0
            },
            {
                "start_time": 25.19772727272727,
                "end_time": 26.077272727272724,
                "pitch": 59,
                "velocity": 101,
                "duration": 0.879545454545454,
                "tempo": 120.0
            },
            {
                "start_time": 26.077272727272724,
                "end_time": 26.956818181818182,
                "pitch": 66,
                "velocity": 101,
                "duration": 0.8795454545454575,
                "tempo": 120.0
            },
            {
                "start_time": 26.956818181818182,
                "end_time": 27.827272727272724,
                "pitch": 64,
                "velocity": 101,
                "duration": 0.8704545454545425,
                "tempo": 120.0
            },
            {
                "start_time": 26.956818181818182,
                "end_time": 27.827272727272724,
                "pitch": 64,
                "velocity": 101,
                "duration": 0.8704545454545425,
                "tempo": 120.0
            },
            {
                "start_time": 27.827272727272724,
                "end_time": 28.706818181818182,
                "pitch": 73,
                "velocity": 101,
                "duration": 0.8795454545454575,
                "tempo": 120.0
            },
            {
                "start_time": 27.827272727272724,
                "end_time": 29.586363636363636,
                "pitch": 61,
                "velocity": 101,
                "duration": 1.7590909090909115,
                "tempo": 120.0
            },
            {
                "start_time": 28.706818181818182,
                "end_time": 29.586363636363636,
                "pitch": 61,
                "velocity": 101,
                "duration": 0.879545454545454,
                "tempo": 120.0
            },
            {
                "start_time": 25.19772727272727,
                "end_time": 30.456818181818182,
                "pitch": 44,
                "velocity": 101,
                "duration": 5.2590909090909115,
                "tempo": 120.0
            },
            {
                "start_time": 29.586363636363636,
                "end_time": 30.456818181818182,
                "pitch": 64,
                "velocity": 101,
                "duration": 0.870454545454546,
                "tempo": 120.0
            },
            {
                "start_time": 29.586363636363636,
                "end_time": 30.456818181818182,
                "pitch": 64,
                "velocity": 101,
                "duration": 0.870454545454546,
                "tempo": 120.0
            },
            {
                "start_time": 30.456818181818182,
                "end_time": 31.33863636363636,
                "pitch": 71,
                "velocity": 101,
                "duration": 0.8818181818181792,
                "tempo": 120.0
            },
            {
                "start_time": 31.33863636363636,
                "end_time": 32.21818181818182,
                "pitch": 59,
                "velocity": 101,
                "duration": 0.8795454545454575,
                "tempo": 120.0
            },
            {
                "start_time": 15.549999999999999,
                "end_time": 32.21818181818182,
                "pitch": 67,
                "velocity": 101,
                "duration": 16.66818181818182,
                "tempo": 120.0
            },
            {
                "start_time": 32.21818181818182,
                "end_time": 33.09772727272727,
                "pitch": 66,
                "velocity": 101,
                "duration": 0.8795454545454504,
                "tempo": 120.0
            },
            {
                "start_time": 33.09772727272727,
                "end_time": 33.96818181818182,
                "pitch": 73,
                "velocity": 101,
                "duration": 0.8704545454545496,
                "tempo": 120.0
            },
            {
                "start_time": 33.96818181818182,
                "end_time": 34.84772727272727,
                "pitch": 66,
                "velocity": 101,
                "duration": 0.8795454545454504,
                "tempo": 120.0
            },
            {
                "start_time": 34.84772727272727,
                "end_time": 35.72727272727273,
                "pitch": 61,
                "velocity": 101,
                "duration": 0.8795454545454575,
                "tempo": 120.0
            },
            {
                "start_time": 34.84772727272727,
                "end_time": 35.72727272727273,
                "pitch": 61,
                "velocity": 101,
                "duration": 0.8795454545454575,
                "tempo": 120.0
            },
            {
                "start_time": 35.72727272727273,
                "end_time": 36.60681818181818,
                "pitch": 59,
                "velocity": 101,
                "duration": 0.8795454545454504,
                "tempo": 120.0
            },
            {
                "start_time": 32.21818181818182,
                "end_time": 36.60681818181818,
                "pitch": 67,
                "velocity": 101,
                "duration": 4.388636363636358,
                "tempo": 120.0
            },
            {
                "start_time": 36.60681818181818,
                "end_time": 37.47727272727273,
                "pitch": 66,
                "velocity": 101,
                "duration": 0.8704545454545496,
                "tempo": 120.0
            },
            {
                "start_time": 37.47727272727273,
                "end_time": 38.35681818181818,
                "pitch": 64,
                "velocity": 101,
                "duration": 0.8795454545454504,
                "tempo": 120.0
            },
            {
                "start_time": 37.47727272727273,
                "end_time": 38.35681818181818,
                "pitch": 64,
                "velocity": 101,
                "duration": 0.8795454545454504,
                "tempo": 120.0
            },
            {
                "start_time": 38.35681818181818,
                "end_time": 39.236363636363635,
                "pitch": 73,
                "velocity": 101,
                "duration": 0.8795454545454575,
                "tempo": 120.0
            },
            {
                "start_time": 39.236363636363635,
                "end_time": 40.11590909090909,
                "pitch": 61,
                "velocity": 101,
                "duration": 0.8795454545454575,
                "tempo": 120.0
            },
            {
                "start_time": 30.456818181818182,
                "end_time": 40.986363636363635,
                "pitch": 44,
                "velocity": 101,
                "duration": 10.529545454545453,
                "tempo": 120.0
            },
            {
                "start_time": 40.11590909090909,
                "end_time": 40.986363636363635,
                "pitch": 63,
                "velocity": 101,
                "duration": 0.8704545454545425,
                "tempo": 120.0
            },
            {
                "start_time": 40.986363636363635,
                "end_time": 41.86590909090909,
                "pitch": 71,
                "velocity": 101,
                "duration": 0.8795454545454575,
                "tempo": 120.0
            },
            {
                "start_time": 41.86590909090909,
                "end_time": 42.74545454545454,
                "pitch": 63,
                "velocity": 101,
                "duration": 0.8795454545454504,
                "tempo": 120.0
            },
            {
                "start_time": 42.74545454545454,
                "end_time": 43.61590909090909,
                "pitch": 61,
                "velocity": 101,
                "duration": 0.8704545454545496,
                "tempo": 120.0
            },
            {
                "start_time": 43.61590909090909,
                "end_time": 44.49545454545454,
                "pitch": 69,
                "velocity": 101,
                "duration": 0.8795454545454504,
                "tempo": 120.0
            },
            {
                "start_time": 44.49545454545454,
                "end_time": 45.375,
                "pitch": 61,
                "velocity": 101,
                "duration": 0.8795454545454575,
                "tempo": 120.0
            },
            {
                "start_time": 45.375,
                "end_time": 46.24545454545454,
                "pitch": 63,
                "velocity": 101,
                "duration": 0.8704545454545425,
                "tempo": 120.0
            },
            {
                "start_time": 46.24545454545454,
                "end_time": 47.125,
                "pitch": 72,
                "velocity": 101,
                "duration": 0.8795454545454575,
                "tempo": 120.0
            },
            {
                "start_time": 47.125,
                "end_time": 48.00454545454545,
                "pitch": 72,
                "velocity": 101,
                "duration": 0.8795454545454504,
                "tempo": 120.0
            },
            {
                "start_time": 48.00454545454545,
                "end_time": 48.88409090909091,
                "pitch": 65,
                "velocity": 101,
                "duration": 0.8795454545454575,
                "tempo": 120.0
            },
            {
                "start_time": 48.88409090909091,
                "end_time": 49.75454545454545,
                "pitch": 74,
                "velocity": 101,
                "duration": 0.8704545454545425,
                "tempo": 120.0
            },
            {
                "start_time": 49.75454545454545,
                "end_time": 50.63409090909091,
                "pitch": 62,
                "velocity": 101,
                "duration": 0.8795454545454575,
                "tempo": 120.0
            },
            {
                "start_time": 46.24545454545454,
                "end_time": 51.51363636363636,
                "pitch": 60,
                "velocity": 101,
                "duration": 5.268181818181816,
                "tempo": 120.0
            },
            {
                "start_time": 50.63409090909091,
                "end_time": 51.51363636363636,
                "pitch": 65,
                "velocity": 101,
                "duration": 0.8795454545454504,
                "tempo": 120.0
            },
            {
                "start_time": 51.51363636363636,
                "end_time": 52.38409090909091,
                "pitch": 72,
                "velocity": 101,
                "duration": 0.8704545454545496,
                "tempo": 120.0
            },
            {
                "start_time": 51.51363636363636,
                "end_time": 53.26363636363636,
                "pitch": 60,
                "velocity": 101,
                "duration": 1.75,
                "tempo": 120.0
            },
            {
                "start_time": 52.38409090909091,
                "end_time": 53.26363636363636,
                "pitch": 60,
                "velocity": 101,
                "duration": 0.8795454545454504,
                "tempo": 120.0
            },
            {
                "start_time": 36.60681818181818,
                "end_time": 54.14545454545454,
                "pitch": 67,
                "velocity": 101,
                "duration": 17.538636363636364,
                "tempo": 120.0
            },
            {
                "start_time": 53.26363636363636,
                "end_time": 54.14545454545454,
                "pitch": 67,
                "velocity": 101,
                "duration": 0.8818181818181827,
                "tempo": 120.0
            },
            {
                "start_time": 54.14545454545454,
                "end_time": 55.02272727272727,
                "pitch": 74,
                "velocity": 101,
                "duration": 0.8772727272727323,
                "tempo": 120.0
            },
            {
                "start_time": 55.02272727272727,
                "end_time": 55.025,
                "pitch": 2,
                "velocity": 101,
                "duration": 0.0022727272727252057,
                "tempo": 120.0
            },
            {
                "start_time": 55.025,
                "end_time": 55.893181818181816,
                "pitch": 67,
                "velocity": 101,
                "duration": 0.8681818181818173,
                "tempo": 120.0
            },
            {
                "start_time": 55.893181818181816,
                "end_time": 56.775,
                "pitch": 62,
                "velocity": 101,
                "duration": 0.8818181818181827,
                "tempo": 120.0
            },
            {
                "start_time": 56.775,
                "end_time": 57.65454545454545,
                "pitch": 60,
                "velocity": 101,
                "duration": 0.8795454545454504,
                "tempo": 120.0
            },
            {
                "start_time": 57.65454545454545,
                "end_time": 58.53409090909091,
                "pitch": 67,
                "velocity": 101,
                "duration": 0.8795454545454575,
                "tempo": 120.0
            },
            {
                "start_time": 23.44772727272727,
                "end_time": 58.53409090909091,
                "pitch": 78,
                "velocity": 101,
                "duration": 35.086363636363636,
                "tempo": 120.0
            },
            {
                "start_time": 58.53409090909091,
                "end_time": 59.40454545454545,
                "pitch": 65,
                "velocity": 101,
                "duration": 0.8704545454545425,
                "tempo": 120.0
            },
            {
                "start_time": 59.40454545454545,
                "end_time": 60.28409090909091,
                "pitch": 74,
                "velocity": 101,
                "duration": 0.8795454545454575,
                "tempo": 120.0
            },
            {
                "start_time": 59.40454545454545,
                "end_time": 61.163636363636364,
                "pitch": 62,
                "velocity": 101,
                "duration": 1.759090909090915,
                "tempo": 120.0
            },
            {
                "start_time": 60.28409090909091,
                "end_time": 61.163636363636364,
                "pitch": 62,
                "velocity": 101,
                "duration": 0.8795454545454575,
                "tempo": 120.0
            },
            {
                "start_time": 61.163636363636364,
                "end_time": 62.03409090909091,
                "pitch": 65,
                "velocity": 101,
                "duration": 0.8704545454545425,
                "tempo": 120.0
            },
            {
                "start_time": 61.163636363636364,
                "end_time": 62.03409090909091,
                "pitch": 65,
                "velocity": 101,
                "duration": 0.8704545454545425,
                "tempo": 120.0
            },
            {
                "start_time": 62.03409090909091,
                "end_time": 62.913636363636364,
                "pitch": 72,
                "velocity": 101,
                "duration": 0.8795454545454575,
                "tempo": 120.0
            },
            {
                "start_time": 62.913636363636364,
                "end_time": 63.793181818181814,
                "pitch": 60,
                "velocity": 101,
                "duration": 0.8795454545454504,
                "tempo": 120.0
            },
            {
                "start_time": 63.793181818181814,
                "end_time": 64.67272727272727,
                "pitch": 67,
                "velocity": 101,
                "duration": 0.8795454545454575,
                "tempo": 120.0
            },
            {
                "start_time": 41.86590909090909,
                "end_time": 64.67272727272727,
                "pitch": 77,
                "velocity": 101,
                "duration": 22.80681818181818,
                "tempo": 120.0
            },
            {
                "start_time": 64.67272727272727,
                "end_time": 65.54318181818182,
                "pitch": 74,
                "velocity": 101,
                "duration": 0.8704545454545496,
                "tempo": 120.0
            },
            {
                "start_time": 65.54318181818182,
                "end_time": 66.42272727272727,
                "pitch": 67,
                "velocity": 101,
                "duration": 0.8795454545454504,
                "tempo": 120.0
            },
            {
                "start_time": 64.67272727272727,
                "end_time": 66.42272727272727,
                "pitch": 77,
                "velocity": 101,
                "duration": 1.75,
                "tempo": 120.0
            },
            {
                "start_time": 66.42272727272727,
                "end_time": 67.30227272727272,
                "pitch": 62,
                "velocity": 101,
                "duration": 0.8795454545454504,
                "tempo": 120.0
            },
            {
                "start_time": 67.30227272727272,
                "end_time": 68.18181818181817,
                "pitch": 60,
                "velocity": 101,
                "duration": 0.8795454545454504,
                "tempo": 120.0
            },
            {
                "start_time": 67.30227272727272,
                "end_time": 68.18181818181817,
                "pitch": 60,
                "velocity": 101,
                "duration": 0.8795454545454504,
                "tempo": 120.0
            },
            {
                "start_time": 68.18181818181817,
                "end_time": 69.05227272727272,
                "pitch": 67,
                "velocity": 101,
                "duration": 0.8704545454545496,
                "tempo": 120.0
            },
            {
                "start_time": 58.53409090909091,
                "end_time": 69.05227272727272,
                "pitch": 78,
                "velocity": 101,
                "duration": 10.518181818181816,
                "tempo": 120.0
            },
            {
                "start_time": 69.05227272727272,
                "end_time": 69.93181818181817,
                "pitch": 65,
                "velocity": 101,
                "duration": 0.8795454545454504,
                "tempo": 120.0
            },
            {
                "start_time": 69.93181818181817,
                "end_time": 70.81136363636364,
                "pitch": 74,
                "velocity": 101,
                "duration": 0.8795454545454646,
                "tempo": 120.0
            },
            {
                "start_time": 70.81136363636364,
                "end_time": 71.68181818181817,
                "pitch": 62,
                "velocity": 101,
                "duration": 0.8704545454545354,
                "tempo": 120.0
            },
            {
                "start_time": 71.68181818181817,
                "end_time": 72.56136363636364,
                "pitch": 65,
                "velocity": 101,
                "duration": 0.8795454545454646,
                "tempo": 120.0
            },
            {
                "start_time": 71.68181818181817,
                "end_time": 72.56136363636364,
                "pitch": 65,
                "velocity": 101,
                "duration": 0.8795454545454646,
                "tempo": 120.0
            },
            {
                "start_time": 72.56136363636364,
                "end_time": 73.44090909090909,
                "pitch": 72,
                "velocity": 101,
                "duration": 0.8795454545454504,
                "tempo": 120.0
            },
            {
                "start_time": 72.56136363636364,
                "end_time": 74.32045454545454,
                "pitch": 60,
                "velocity": 101,
                "duration": 1.7590909090909008,
                "tempo": 120.0
            },
            {
                "start_time": 73.44090909090909,
                "end_time": 74.32045454545454,
                "pitch": 60,
                "velocity": 101,
                "duration": 0.8795454545454504,
                "tempo": 120.0
            },
            {
                "start_time": 74.32045454545454,
                "end_time": 75.19090909090909,
                "pitch": 67,
                "velocity": 101,
                "duration": 0.8704545454545496,
                "tempo": 120.0
            },
            {
                "start_time": 66.42272727272727,
                "end_time": 75.19090909090909,
                "pitch": 77,
                "velocity": 101,
                "duration": 8.768181818181816,
                "tempo": 120.0
            },
            {
                "start_time": 65.54318181818182,
                "end_time": 76.07045454545454,
                "pitch": 2,
                "velocity": 101,
                "duration": 10.527272727272717,
                "tempo": 120.0
            },
            {
                "start_time": 75.19090909090909,
                "end_time": 76.07045454545454,
                "pitch": 74,
                "velocity": 101,
                "duration": 0.8795454545454504,
                "tempo": 120.0
            },
            {
                "start_time": 76.07045454545454,
                "end_time": 76.95,
                "pitch": 67,
                "velocity": 101,
                "duration": 0.8795454545454646,
                "tempo": 120.0
            },
            {
                "start_time": 75.19090909090909,
                "end_time": 76.95,
                "pitch": 77,
                "velocity": 101,
                "duration": 1.759090909090915,
                "tempo": 120.0
            },
            {
                "start_time": 76.95,
                "end_time": 77.82954545454545,
                "pitch": 62,
                "velocity": 101,
                "duration": 0.8795454545454504,
                "tempo": 120.0
            },
            {
                "start_time": 77.82954545454545,
                "end_time": 78.7,
                "pitch": 60,
                "velocity": 101,
                "duration": 0.8704545454545496,
                "tempo": 120.0
            },
            {
                "start_time": 77.82954545454545,
                "end_time": 78.7,
                "pitch": 60,
                "velocity": 101,
                "duration": 0.8704545454545496,
                "tempo": 120.0
            },
            {
                "start_time": 78.7,
                "end_time": 79.57954545454545,
                "pitch": 67,
                "velocity": 101,
                "duration": 0.8795454545454504,
                "tempo": 120.0
            },
            {
                "start_time": 69.05227272727272,
                "end_time": 79.57954545454545,
                "pitch": 78,
                "velocity": 101,
                "duration": 10.527272727272731,
                "tempo": 120.0
            },
            {
                "start_time": 79.57954545454545,
                "end_time": 80.4590909090909,
                "pitch": 65,
                "velocity": 101,
                "duration": 0.8795454545454504,
                "tempo": 120.0
            },
            {
                "start_time": 80.4590909090909,
                "end_time": 81.32954545454545,
                "pitch": 74,
                "velocity": 101,
                "duration": 0.8704545454545496,
                "tempo": 120.0
            },
            {
                "start_time": 81.32954545454545,
                "end_time": 82.2090909090909,
                "pitch": 62,
                "velocity": 101,
                "duration": 0.8795454545454504,
                "tempo": 120.0
            },
            {
                "start_time": 82.2090909090909,
                "end_time": 83.0909090909091,
                "pitch": 64,
                "velocity": 101,
                "duration": 0.8818181818181898,
                "tempo": 120.0
            },
            {
                "start_time": 83.0909090909091,
                "end_time": 83.97045454545454,
                "pitch": 72,
                "velocity": 101,
                "duration": 0.8795454545454504,
                "tempo": 120.0
            },
            {
                "start_time": 44.49545454545454,
                "end_time": 83.97045454545454,
                "pitch": 76,
                "velocity": 101,
                "duration": 39.475,
                "tempo": 120.0
            },
            {
                "start_time": 83.97045454545454,
                "end_time": 84.8409090909091,
                "pitch": 64,
                "velocity": 101,
                "duration": 0.8704545454545496,
                "tempo": 120.0
            },
            {
                "start_time": 84.8409090909091,
                "end_time": 85.72045454545454,
                "pitch": 62,
                "velocity": 101,
                "duration": 0.8795454545454504,
                "tempo": 120.0
            },
            {
                "start_time": 85.72045454545454,
                "end_time": 86.6,
                "pitch": 70,
                "velocity": 101,
                "duration": 0.8795454545454504,
                "tempo": 120.0
            },
            {
                "start_time": 76.95,
                "end_time": 86.6,
                "pitch": 77,
                "velocity": 101,
                "duration": 9.649999999999991,
                "tempo": 120.0
            },
            {
                "start_time": 86.6,
                "end_time": 87.47045454545454,
                "pitch": 62,
                "velocity": 101,
                "duration": 0.8704545454545496,
                "tempo": 120.0
            },
            {
                "start_time": 87.47045454545454,
                "end_time": 88.35,
                "pitch": 64,
                "velocity": 101,
                "duration": 0.8795454545454504,
                "tempo": 120.0
            },
            {
                "start_time": 88.35,
                "end_time": 89.22954545454544,
                "pitch": 73,
                "velocity": 101,
                "duration": 0.8795454545454504,
                "tempo": 120.0
            },
            {
                "start_time": 89.22954545454544,
                "end_time": 89.88863636363637,
                "pitch": 73,
                "velocity": 101,
                "duration": 0.6590909090909207,
                "tempo": 120.0
            }
        ],
        "Acoustic Bass": [
            {
                "start_time": 0.19318181818181818,
                "end_time": 2.3909090909090907,
                "pitch": 37,
                "velocity": 127,
                "duration": 2.1977272727272723,
                "tempo": 120.0
            },
            {
                "start_time": 2.3909090909090907,
                "end_time": 2.8318181818181816,
                "pitch": 35,
                "velocity": 127,
                "duration": 0.4409090909090909,
                "tempo": 120.0
            },
            {
                "start_time": 2.8318181818181816,
                "end_time": 5.0227272727272725,
                "pitch": 37,
                "velocity": 127,
                "duration": 2.190909090909091,
                "tempo": 120.0
            },
            {
                "start_time": 5.0227272727272725,
                "end_time": 5.461363636363636,
                "pitch": 35,
                "velocity": 127,
                "duration": 0.4386363636363635,
                "tempo": 120.0
            },
            {
                "start_time": 2.8318181818181816,
                "end_time": 5.461363636363636,
                "pitch": 40,
                "velocity": 127,
                "duration": 2.6295454545454544,
                "tempo": 120.0
            },
            {
                "start_time": 5.461363636363636,
                "end_time": 7.661363636363636,
                "pitch": 37,
                "velocity": 127,
                "duration": 2.2,
                "tempo": 120.0
            },
            {
                "start_time": 5.0227272727272725,
                "end_time": 8.1,
                "pitch": 20,
                "velocity": 127,
                "duration": 3.077272727272727,
                "tempo": 120.0
            },
            {
                "start_time": 7.661363636363636,
                "end_time": 8.1,
                "pitch": 37,
                "velocity": 127,
                "duration": 0.4386363636363635,
                "tempo": 120.0
            },
            {
                "start_time": 8.1,
                "end_time": 10.290909090909091,
                "pitch": 35,
                "velocity": 127,
                "duration": 2.1909090909090914,
                "tempo": 120.0
            },
            {
                "start_time": 10.290909090909091,
                "end_time": 10.729545454545454,
                "pitch": 35,
                "velocity": 127,
                "duration": 0.4386363636363626,
                "tempo": 120.0
            },
            {
                "start_time": 10.729545454545454,
                "end_time": 12.920454545454545,
                "pitch": 34,
                "velocity": 127,
                "duration": 2.1909090909090914,
                "tempo": 120.0
            },
            {
                "start_time": 12.920454545454545,
                "end_time": 13.359090909090908,
                "pitch": 34,
                "velocity": 127,
                "duration": 0.4386363636363626,
                "tempo": 120.0
            },
            {
                "start_time": 13.359090909090908,
                "end_time": 14.679545454545455,
                "pitch": 33,
                "velocity": 127,
                "duration": 1.320454545454547,
                "tempo": 120.0
            },
            {
                "start_time": 14.679545454545455,
                "end_time": 15.120454545454544,
                "pitch": 30,
                "velocity": 127,
                "duration": 0.4409090909090896,
                "tempo": 120.0
            },
            {
                "start_time": 15.120454545454544,
                "end_time": 15.549999999999999,
                "pitch": 35,
                "velocity": 127,
                "duration": 0.4295454545454547,
                "tempo": 120.0
            },
            {
                "start_time": 15.549999999999999,
                "end_time": 15.99090909090909,
                "pitch": 35,
                "velocity": 127,
                "duration": 0.44090909090909136,
                "tempo": 120.0
            },
            {
                "start_time": 5.461363636363636,
                "end_time": 15.99090909090909,
                "pitch": 40,
                "velocity": 127,
                "duration": 10.529545454545454,
                "tempo": 120.0
            },
            {
                "start_time": 15.99090909090909,
                "end_time": 18.179545454545455,
                "pitch": 37,
                "velocity": 127,
                "duration": 2.1886363636363644,
                "tempo": 120.0
            },
            {
                "start_time": 8.1,
                "end_time": 18.620454545454546,
                "pitch": 20,
                "velocity": 127,
                "duration": 10.520454545454546,
                "tempo": 120.0
            },
            {
                "start_time": 18.179545454545455,
                "end_time": 18.620454545454546,
                "pitch": 37,
                "velocity": 127,
                "duration": 0.44090909090909136,
                "tempo": 120.0
            },
            {
                "start_time": 18.620454545454546,
                "end_time": 20.818181818181817,
                "pitch": 35,
                "velocity": 127,
                "duration": 2.1977272727272705,
                "tempo": 120.0
            },
            {
                "start_time": 20.818181818181817,
                "end_time": 21.25,
                "pitch": 35,
                "velocity": 127,
                "duration": 0.43181818181818343,
                "tempo": 120.0
            },
            {
                "start_time": 21.25,
                "end_time": 23.44772727272727,
                "pitch": 34,
                "velocity": 127,
                "duration": 2.1977272727272705,
                "tempo": 120.0
            },
            {
                "start_time": 23.44772727272727,
                "end_time": 23.888636363636362,
                "pitch": 34,
                "velocity": 127,
                "duration": 0.44090909090909136,
                "tempo": 120.0
            },
            {
                "start_time": 23.888636363636362,
                "end_time": 25.19772727272727,
                "pitch": 33,
                "velocity": 127,
                "duration": 1.3090909090909086,
                "tempo": 120.0
            },
            {
                "start_time": 15.120454545454544,
                "end_time": 25.638636363636362,
                "pitch": 8,
                "velocity": 127,
                "duration": 10.518181818181818,
                "tempo": 120.0
            },
            {
                "start_time": 25.19772727272727,
                "end_time": 25.638636363636362,
                "pitch": 30,
                "velocity": 127,
                "duration": 0.44090909090909136,
                "tempo": 120.0
            },
            {
                "start_time": 25.638636363636362,
                "end_time": 26.077272727272724,
                "pitch": 35,
                "velocity": 127,
                "duration": 0.4386363636363626,
                "tempo": 120.0
            },
            {
                "start_time": 26.077272727272724,
                "end_time": 26.518181818181816,
                "pitch": 35,
                "velocity": 127,
                "duration": 0.44090909090909136,
                "tempo": 120.0
            },
            {
                "start_time": 26.518181818181816,
                "end_time": 28.706818181818182,
                "pitch": 37,
                "velocity": 127,
                "duration": 2.188636363636366,
                "tempo": 120.0
            },
            {
                "start_time": 18.620454545454546,
                "end_time": 29.14772727272727,
                "pitch": 20,
                "velocity": 127,
                "duration": 10.527272727272724,
                "tempo": 120.0
            },
            {
                "start_time": 28.706818181818182,
                "end_time": 29.14772727272727,
                "pitch": 37,
                "velocity": 127,
                "duration": 0.4409090909090878,
                "tempo": 120.0
            },
            {
                "start_time": 29.14772727272727,
                "end_time": 31.33863636363636,
                "pitch": 35,
                "velocity": 127,
                "duration": 2.1909090909090914,
                "tempo": 120.0
            },
            {
                "start_time": 31.33863636363636,
                "end_time": 31.777272727272727,
                "pitch": 35,
                "velocity": 127,
                "duration": 0.43863636363636616,
                "tempo": 120.0
            },
            {
                "start_time": 31.777272727272727,
                "end_time": 33.96818181818182,
                "pitch": 34,
                "velocity": 127,
                "duration": 2.1909090909090914,
                "tempo": 120.0
            },
            {
                "start_time": 33.96818181818182,
                "end_time": 34.41590909090909,
                "pitch": 34,
                "velocity": 127,
                "duration": 0.44772727272727053,
                "tempo": 120.0
            },
            {
                "start_time": 34.41590909090909,
                "end_time": 35.72727272727273,
                "pitch": 33,
                "velocity": 127,
                "duration": 1.3113636363636374,
                "tempo": 120.0
            },
            {
                "start_time": 14.679545454545455,
                "end_time": 35.72727272727273,
                "pitch": 42,
                "velocity": 127,
                "duration": 21.047727272727272,
                "tempo": 120.0
            },
            {
                "start_time": 25.638636363636362,
                "end_time": 36.16590909090909,
                "pitch": 8,
                "velocity": 127,
                "duration": 10.527272727272727,
                "tempo": 120.0
            },
            {
                "start_time": 35.72727272727273,
                "end_time": 36.16590909090909,
                "pitch": 30,
                "velocity": 127,
                "duration": 0.4386363636363626,
                "tempo": 120.0
            },
            {
                "start_time": 36.16590909090909,
                "end_time": 36.60681818181818,
                "pitch": 35,
                "velocity": 127,
                "duration": 0.4409090909090878,
                "tempo": 120.0
            },
            {
                "start_time": 36.60681818181818,
                "end_time": 37.04545454545455,
                "pitch": 35,
                "velocity": 127,
                "duration": 0.4386363636363697,
                "tempo": 120.0
            },
            {
                "start_time": 15.99090909090909,
                "end_time": 37.04545454545455,
                "pitch": 40,
                "velocity": 127,
                "duration": 21.054545454545455,
                "tempo": 120.0
            },
            {
                "start_time": 37.04545454545455,
                "end_time": 39.236363636363635,
                "pitch": 37,
                "velocity": 127,
                "duration": 2.190909090909088,
                "tempo": 120.0
            },
            {
                "start_time": 39.236363636363635,
                "end_time": 39.67727272727272,
                "pitch": 37,
                "velocity": 127,
                "duration": 0.4409090909090878,
                "tempo": 120.0
            },
            {
                "start_time": 39.67727272727272,
                "end_time": 41.86590909090909,
                "pitch": 35,
                "velocity": 127,
                "duration": 2.1886363636363697,
                "tempo": 120.0
            },
            {
                "start_time": 41.86590909090909,
                "end_time": 42.30681818181818,
                "pitch": 35,
                "velocity": 127,
                "duration": 0.4409090909090878,
                "tempo": 120.0
            },
            {
                "start_time": 42.30681818181818,
                "end_time": 44.49545454545454,
                "pitch": 33,
                "velocity": 127,
                "duration": 2.1886363636363626,
                "tempo": 120.0
            },
            {
                "start_time": 44.49545454545454,
                "end_time": 44.93636363636364,
                "pitch": 33,
                "velocity": 127,
                "duration": 0.4409090909090949,
                "tempo": 120.0
            },
            {
                "start_time": 37.04545454545455,
                "end_time": 44.93636363636364,
                "pitch": 40,
                "velocity": 127,
                "duration": 7.890909090909091,
                "tempo": 120.0
            },
            {
                "start_time": 44.93636363636364,
                "end_time": 45.81590909090909,
                "pitch": 36,
                "velocity": 127,
                "duration": 0.8795454545454504,
                "tempo": 120.0
            },
            {
                "start_time": 45.81590909090909,
                "end_time": 46.02954545454545,
                "pitch": 36,
                "velocity": 127,
                "duration": 0.21363636363636118,
                "tempo": 120.0
            },
            {
                "start_time": 46.24545454545454,
                "end_time": 46.465909090909086,
                "pitch": 32,
                "velocity": 127,
                "duration": 0.2204545454545439,
                "tempo": 120.0
            },
            {
                "start_time": 46.68636363636364,
                "end_time": 46.90454545454545,
                "pitch": 32,
                "velocity": 127,
                "duration": 0.2181818181818116,
                "tempo": 120.0
            },
            {
                "start_time": 47.125,
                "end_time": 47.56590909090909,
                "pitch": 32,
                "velocity": 127,
                "duration": 0.4409090909090878,
                "tempo": 120.0
            },
            {
                "start_time": 47.56590909090909,
                "end_time": 49.75454545454545,
                "pitch": 38,
                "velocity": 127,
                "duration": 2.1886363636363626,
                "tempo": 120.0
            },
            {
                "start_time": 49.75454545454545,
                "end_time": 50.195454545454545,
                "pitch": 38,
                "velocity": 127,
                "duration": 0.4409090909090949,
                "tempo": 120.0
            },
            {
                "start_time": 50.195454545454545,
                "end_time": 52.38409090909091,
                "pitch": 36,
                "velocity": 127,
                "duration": 2.1886363636363626,
                "tempo": 120.0
            },
            {
                "start_time": 29.14772727272727,
                "end_time": 52.824999999999996,
                "pitch": 20,
                "velocity": 127,
                "duration": 23.677272727272726,
                "tempo": 120.0
            },
            {
                "start_time": 52.38409090909091,
                "end_time": 52.824999999999996,
                "pitch": 36,
                "velocity": 127,
                "duration": 0.4409090909090878,
                "tempo": 120.0
            },
            {
                "start_time": 52.824999999999996,
                "end_time": 55.025,
                "pitch": 35,
                "velocity": 127,
                "duration": 2.200000000000003,
                "tempo": 120.0
            },
            {
                "start_time": 55.025,
                "end_time": 55.45454545454545,
                "pitch": 35,
                "velocity": 127,
                "duration": 0.4295454545454547,
                "tempo": 120.0
            },
            {
                "start_time": 55.45454545454545,
                "end_time": 56.775,
                "pitch": 34,
                "velocity": 127,
                "duration": 1.3204545454545453,
                "tempo": 120.0
            },
            {
                "start_time": 56.775,
                "end_time": 57.21363636363636,
                "pitch": 31,
                "velocity": 127,
                "duration": 0.4386363636363626,
                "tempo": 120.0
            },
            {
                "start_time": 56.775,
                "end_time": 57.21363636363636,
                "pitch": 31,
                "velocity": 127,
                "duration": 0.4386363636363626,
                "tempo": 120.0
            },
            {
                "start_time": 44.93636363636364,
                "end_time": 57.21363636363636,
                "pitch": 40,
                "velocity": 127,
                "duration": 12.277272727272724,
                "tempo": 120.0
            },
            {
                "start_time": 57.21363636363636,
                "end_time": 57.65454545454545,
                "pitch": 36,
                "velocity": 127,
                "duration": 0.4409090909090878,
                "tempo": 120.0
            },
            {
                "start_time": 57.65454545454545,
                "end_time": 58.09318181818182,
                "pitch": 36,
                "velocity": 127,
                "duration": 0.4386363636363697,
                "tempo": 120.0
            },
            {
                "start_time": 58.09318181818182,
                "end_time": 60.28409090909091,
                "pitch": 38,
                "velocity": 127,
                "duration": 2.190909090909088,
                "tempo": 120.0
            },
            {
                "start_time": 58.09318181818182,
                "end_time": 60.28409090909091,
                "pitch": 38,
                "velocity": 127,
                "duration": 2.190909090909088,
                "tempo": 120.0
            },
            {
                "start_time": 60.28409090909091,
                "end_time": 60.72272727272727,
                "pitch": 38,
                "velocity": 127,
                "duration": 0.4386363636363626,
                "tempo": 120.0
            },
            {
                "start_time": 60.72272727272727,
                "end_time": 62.913636363636364,
                "pitch": 36,
                "velocity": 127,
                "duration": 2.190909090909095,
                "tempo": 120.0
            },
            {
                "start_time": 52.824999999999996,
                "end_time": 63.35227272727273,
                "pitch": 20,
                "velocity": 127,
                "duration": 10.527272727272731,
                "tempo": 120.0
            },
            {
                "start_time": 62.913636363636364,
                "end_time": 63.35227272727273,
                "pitch": 36,
                "velocity": 127,
                "duration": 0.4386363636363626,
                "tempo": 120.0
            },
            {
                "start_time": 63.35227272727273,
                "end_time": 65.54318181818182,
                "pitch": 35,
                "velocity": 127,
                "duration": 2.190909090909095,
                "tempo": 120.0
            },
            {
                "start_time": 65.54318181818182,
                "end_time": 65.98181818181818,
                "pitch": 35,
                "velocity": 127,
                "duration": 0.4386363636363626,
                "tempo": 120.0
            },
            {
                "start_time": 65.98181818181818,
                "end_time": 67.30227272727272,
                "pitch": 34,
                "velocity": 127,
                "duration": 1.3204545454545382,
                "tempo": 120.0
            },
            {
                "start_time": 67.30227272727272,
                "end_time": 67.74318181818181,
                "pitch": 31,
                "velocity": 127,
                "duration": 0.4409090909090878,
                "tempo": 120.0
            },
            {
                "start_time": 67.30227272727272,
                "end_time": 67.74318181818181,
                "pitch": 31,
                "velocity": 127,
                "duration": 0.4409090909090878,
                "tempo": 120.0
            },
            {
                "start_time": 57.21363636363636,
                "end_time": 67.74318181818181,
                "pitch": 40,
                "velocity": 127,
                "duration": 10.529545454545449,
                "tempo": 120.0
            },
            {
                "start_time": 67.74318181818181,
                "end_time": 68.18181818181817,
                "pitch": 36,
                "velocity": 127,
                "duration": 0.4386363636363626,
                "tempo": 120.0
            },
            {
                "start_time": 68.18181818181817,
                "end_time": 68.61136363636363,
                "pitch": 36,
                "velocity": 127,
                "duration": 0.4295454545454618,
                "tempo": 120.0
            },
            {
                "start_time": 68.61136363636363,
                "end_time": 70.81136363636364,
                "pitch": 38,
                "velocity": 127,
                "duration": 2.200000000000003,
                "tempo": 120.0
            },
            {
                "start_time": 68.61136363636363,
                "end_time": 70.81136363636364,
                "pitch": 38,
                "velocity": 127,
                "duration": 2.200000000000003,
                "tempo": 120.0
            },
            {
                "start_time": 70.81136363636364,
                "end_time": 71.25227272727273,
                "pitch": 38,
                "velocity": 127,
                "duration": 0.4409090909090878,
                "tempo": 120.0
            },
            {
                "start_time": 71.25227272727273,
                "end_time": 73.44090909090909,
                "pitch": 36,
                "velocity": 127,
                "duration": 2.1886363636363626,
                "tempo": 120.0
            },
            {
                "start_time": 71.25227272727273,
                "end_time": 73.44090909090909,
                "pitch": 36,
                "velocity": 127,
                "duration": 2.1886363636363626,
                "tempo": 120.0
            },
            {
                "start_time": 63.35227272727273,
                "end_time": 73.88181818181818,
                "pitch": 20,
                "velocity": 127,
                "duration": 10.529545454545449,
                "tempo": 120.0
            },
            {
                "start_time": 73.44090909090909,
                "end_time": 73.88181818181818,
                "pitch": 36,
                "velocity": 127,
                "duration": 0.4409090909090878,
                "tempo": 120.0
            },
            {
                "start_time": 73.88181818181818,
                "end_time": 76.07045454545454,
                "pitch": 35,
                "velocity": 127,
                "duration": 2.1886363636363626,
                "tempo": 120.0
            },
            {
                "start_time": 76.07045454545454,
                "end_time": 76.51136363636363,
                "pitch": 35,
                "velocity": 127,
                "duration": 0.4409090909090878,
                "tempo": 120.0
            },
            {
                "start_time": 76.51136363636363,
                "end_time": 77.82954545454545,
                "pitch": 34,
                "velocity": 127,
                "duration": 1.3181818181818272,
                "tempo": 120.0
            },
            {
                "start_time": 77.82954545454545,
                "end_time": 78.26136363636363,
                "pitch": 31,
                "velocity": 127,
                "duration": 0.4318181818181728,
                "tempo": 120.0
            },
            {
                "start_time": 77.82954545454545,
                "end_time": 78.26136363636363,
                "pitch": 31,
                "velocity": 127,
                "duration": 0.4318181818181728,
                "tempo": 120.0
            },
            {
                "start_time": 67.74318181818181,
                "end_time": 78.26136363636363,
                "pitch": 40,
                "velocity": 127,
                "duration": 10.518181818181816,
                "tempo": 120.0
            },
            {
                "start_time": 78.26136363636363,
                "end_time": 78.7,
                "pitch": 36,
                "velocity": 127,
                "duration": 0.4386363636363768,
                "tempo": 120.0
            },
            {
                "start_time": 78.7,
                "end_time": 79.14090909090909,
                "pitch": 36,
                "velocity": 127,
                "duration": 0.4409090909090878,
                "tempo": 120.0
            },
            {
                "start_time": 79.14090909090909,
                "end_time": 81.32954545454545,
                "pitch": 38,
                "velocity": 127,
                "duration": 2.1886363636363626,
                "tempo": 120.0
            },
            {
                "start_time": 79.14090909090909,
                "end_time": 81.32954545454545,
                "pitch": 38,
                "velocity": 127,
                "duration": 2.1886363636363626,
                "tempo": 120.0
            },
            {
                "start_time": 81.32954545454545,
                "end_time": 81.77045454545454,
                "pitch": 38,
                "velocity": 127,
                "duration": 0.4409090909090878,
                "tempo": 120.0
            },
            {
                "start_time": 81.77045454545454,
                "end_time": 83.97045454545454,
                "pitch": 36,
                "velocity": 127,
                "duration": 2.200000000000003,
                "tempo": 120.0
            },
            {
                "start_time": 81.77045454545454,
                "end_time": 83.97045454545454,
                "pitch": 36,
                "velocity": 127,
                "duration": 2.200000000000003,
                "tempo": 120.0
            },
            {
                "start_time": 83.97045454545454,
                "end_time": 84.4090909090909,
                "pitch": 36,
                "velocity": 127,
                "duration": 0.4386363636363626,
                "tempo": 120.0
            },
            {
                "start_time": 84.4090909090909,
                "end_time": 86.6,
                "pitch": 34,
                "velocity": 127,
                "duration": 2.190909090909088,
                "tempo": 120.0
            },
            {
                "start_time": 86.6,
                "end_time": 87.03863636363636,
                "pitch": 34,
                "velocity": 127,
                "duration": 0.4386363636363626,
                "tempo": 120.0
            },
            {
                "start_time": 78.26136363636363,
                "end_time": 87.03863636363636,
                "pitch": 40,
                "velocity": 127,
                "duration": 8.777272727272731,
                "tempo": 120.0
            },
            {
                "start_time": 87.03863636363636,
                "end_time": 87.91818181818181,
                "pitch": 37,
                "velocity": 127,
                "duration": 0.8795454545454504,
                "tempo": 120.0
            },
            {
                "start_time": 87.91818181818181,
                "end_time": 88.1340909090909,
                "pitch": 37,
                "velocity": 127,
                "duration": 0.2159090909090935,
                "tempo": 120.0
            },
            {
                "start_time": 88.35,
                "end_time": 88.56818181818181,
                "pitch": 33,
                "velocity": 127,
                "duration": 0.2181818181818187,
                "tempo": 120.0
            },
            {
                "start_time": 88.78863636363636,
                "end_time": 89.0090909090909,
                "pitch": 33,
                "velocity": 127,
                "duration": 0.2204545454545439,
                "tempo": 120.0
            },
            {
                "start_time": 89.22954545454544,
                "end_time": 89.66818181818181,
                "pitch": 33,
                "velocity": 127,
                "duration": 0.4386363636363626,
                "tempo": 120.0
            },
            {
                "start_time": 89.66818181818181,
                "end_time": 89.88863636363637,
                "pitch": 38,
                "velocity": 127,
                "duration": 0.22045454545455812,
                "tempo": 120.0
            }
        ],
        "Flute": [
            {
                "start_time": 5.681818181818182,
                "end_time": 7.881818181818182,
                "pitch": 73,
                "velocity": 51,
                "duration": 2.2,
                "tempo": 120.0
            },
            {
                "start_time": 7.881818181818182,
                "end_time": 8.315909090909091,
                "pitch": 75,
                "velocity": 51,
                "duration": 0.4340909090909095,
                "tempo": 120.0
            },
            {
                "start_time": 8.315909090909091,
                "end_time": 9.629545454545454,
                "pitch": 76,
                "velocity": 51,
                "duration": 1.3136363636363626,
                "tempo": 120.0
            },
            {
                "start_time": 9.629545454545454,
                "end_time": 10.95,
                "pitch": 80,
                "velocity": 51,
                "duration": 1.3204545454545453,
                "tempo": 120.0
            },
            {
                "start_time": 10.95,
                "end_time": 11.39090909090909,
                "pitch": 78,
                "velocity": 51,
                "duration": 0.44090909090909136,
                "tempo": 120.0
            },
            {
                "start_time": 11.39090909090909,
                "end_time": 13.14090909090909,
                "pitch": 73,
                "velocity": 51,
                "duration": 1.75,
                "tempo": 120.0
            },
            {
                "start_time": 13.14090909090909,
                "end_time": 13.579545454545453,
                "pitch": 75,
                "velocity": 51,
                "duration": 0.4386363636363626,
                "tempo": 120.0
            },
            {
                "start_time": 13.579545454545453,
                "end_time": 14.899999999999999,
                "pitch": 76,
                "velocity": 51,
                "duration": 1.3204545454545453,
                "tempo": 120.0
            },
            {
                "start_time": 14.899999999999999,
                "end_time": 15.334090909090909,
                "pitch": 75,
                "velocity": 51,
                "duration": 0.4340909090909104,
                "tempo": 120.0
            },
            {
                "start_time": 15.334090909090909,
                "end_time": 15.770454545454545,
                "pitch": 71,
                "velocity": 51,
                "duration": 0.4363636363636356,
                "tempo": 120.0
            },
            {
                "start_time": 15.770454545454545,
                "end_time": 16.209090909090907,
                "pitch": 66,
                "velocity": 51,
                "duration": 0.4386363636363626,
                "tempo": 120.0
            },
            {
                "start_time": 16.209090909090907,
                "end_time": 18.4,
                "pitch": 68,
                "velocity": 51,
                "duration": 2.1909090909090914,
                "tempo": 120.0
            },
            {
                "start_time": 18.4,
                "end_time": 18.620454545454546,
                "pitch": 66,
                "velocity": 51,
                "duration": 0.22045454545454746,
                "tempo": 120.0
            },
            {
                "start_time": 16.209090909090907,
                "end_time": 18.83863636363636,
                "pitch": 23,
                "velocity": 51,
                "duration": 2.629545454545454,
                "tempo": 120.0
            },
            {
                "start_time": 18.620454545454546,
                "end_time": 18.83863636363636,
                "pitch": 64,
                "velocity": 51,
                "duration": 0.21818181818181515,
                "tempo": 120.0
            },
            {
                "start_time": 18.620454545454546,
                "end_time": 18.83863636363636,
                "pitch": 64,
                "velocity": 51,
                "duration": 0.21818181818181515,
                "tempo": 120.0
            },
            {
                "start_time": 18.83863636363636,
                "end_time": 20.159090909090907,
                "pitch": 68,
                "velocity": 51,
                "duration": 1.3204545454545453,
                "tempo": 120.0
            },
            {
                "start_time": 20.159090909090907,
                "end_time": 21.46818181818182,
                "pitch": 71,
                "velocity": 51,
                "duration": 1.3090909090909122,
                "tempo": 120.0
            },
            {
                "start_time": 21.46818181818182,
                "end_time": 22.788636363636364,
                "pitch": 70,
                "velocity": 51,
                "duration": 1.3204545454545453,
                "tempo": 120.0
            },
            {
                "start_time": 22.788636363636364,
                "end_time": 24.102272727272727,
                "pitch": 73,
                "velocity": 51,
                "duration": 1.3136363636363626,
                "tempo": 120.0
            },
            {
                "start_time": 24.102272727272727,
                "end_time": 24.104545454545452,
                "pitch": 76,
                "velocity": 51,
                "duration": 0.0022727272727252057,
                "tempo": 120.0
            },
            {
                "start_time": 24.104545454545452,
                "end_time": 24.759090909090908,
                "pitch": 76,
                "velocity": 51,
                "duration": 0.6545454545454561,
                "tempo": 120.0
            },
            {
                "start_time": 24.759090909090908,
                "end_time": 24.979545454545452,
                "pitch": 75,
                "velocity": 51,
                "duration": 0.2204545454545439,
                "tempo": 120.0
            },
            {
                "start_time": 24.979545454545452,
                "end_time": 25.418181818181818,
                "pitch": 76,
                "velocity": 51,
                "duration": 0.43863636363636616,
                "tempo": 120.0
            },
            {
                "start_time": 15.334090909090909,
                "end_time": 25.85909090909091,
                "pitch": 57,
                "velocity": 51,
                "duration": 10.525,
                "tempo": 120.0
            },
            {
                "start_time": 25.418181818181818,
                "end_time": 25.85909090909091,
                "pitch": 78,
                "velocity": 51,
                "duration": 0.44090909090909136,
                "tempo": 120.0
            },
            {
                "start_time": 25.418181818181818,
                "end_time": 25.85909090909091,
                "pitch": 78,
                "velocity": 51,
                "duration": 0.44090909090909136,
                "tempo": 120.0
            },
            {
                "start_time": 25.85909090909091,
                "end_time": 26.297727272727272,
                "pitch": 83,
                "velocity": 51,
                "duration": 0.4386363636363626,
                "tempo": 120.0
            },
            {
                "start_time": 26.297727272727272,
                "end_time": 26.738636363636363,
                "pitch": 81,
                "velocity": 51,
                "duration": 0.44090909090909136,
                "tempo": 120.0
            },
            {
                "start_time": 26.738636363636363,
                "end_time": 27.39772727272727,
                "pitch": 85,
                "velocity": 51,
                "duration": 0.6590909090909065,
                "tempo": 120.0
            },
            {
                "start_time": 27.39772727272727,
                "end_time": 27.613636363636363,
                "pitch": 80,
                "velocity": 51,
                "duration": 0.2159090909090935,
                "tempo": 120.0
            },
            {
                "start_time": 27.613636363636363,
                "end_time": 28.047727272727272,
                "pitch": 78,
                "velocity": 51,
                "duration": 0.43409090909090864,
                "tempo": 120.0
            },
            {
                "start_time": 28.047727272727272,
                "end_time": 28.488636363636363,
                "pitch": 85,
                "velocity": 51,
                "duration": 0.44090909090909136,
                "tempo": 120.0
            },
            {
                "start_time": 28.488636363636363,
                "end_time": 28.927272727272726,
                "pitch": 83,
                "velocity": 51,
                "duration": 0.4386363636363626,
                "tempo": 120.0
            },
            {
                "start_time": 28.927272727272726,
                "end_time": 29.368181818181817,
                "pitch": 80,
                "velocity": 51,
                "duration": 0.44090909090909136,
                "tempo": 120.0
            },
            {
                "start_time": 28.927272727272726,
                "end_time": 29.368181818181817,
                "pitch": 80,
                "velocity": 51,
                "duration": 0.44090909090909136,
                "tempo": 120.0
            },
            {
                "start_time": 29.368181818181817,
                "end_time": 29.80681818181818,
                "pitch": 80,
                "velocity": 51,
                "duration": 0.4386363636363626,
                "tempo": 120.0
            },
            {
                "start_time": 10.95,
                "end_time": 29.80681818181818,
                "pitch": 91,
                "velocity": 51,
                "duration": 18.85681818181818,
                "tempo": 120.0
            },
            {
                "start_time": 29.80681818181818,
                "end_time": 30.027272727272727,
                "pitch": 78,
                "velocity": 51,
                "duration": 0.22045454545454746,
                "tempo": 120.0
            },
            {
                "start_time": 25.85909090909091,
                "end_time": 30.677272727272726,
                "pitch": 57,
                "velocity": 51,
                "duration": 4.818181818181817,
                "tempo": 120.0
            },
            {
                "start_time": 30.027272727272727,
                "end_time": 30.677272727272726,
                "pitch": 76,
                "velocity": 51,
                "duration": 0.6499999999999986,
                "tempo": 120.0
            },
            {
                "start_time": 30.027272727272727,
                "end_time": 30.677272727272726,
                "pitch": 76,
                "velocity": 51,
                "duration": 0.6499999999999986,
                "tempo": 120.0
            },
            {
                "start_time": 30.677272727272726,
                "end_time": 31.55681818181818,
                "pitch": 71,
                "velocity": 51,
                "duration": 0.879545454545454,
                "tempo": 120.0
            },
            {
                "start_time": 31.55681818181818,
                "end_time": 31.99772727272727,
                "pitch": 75,
                "velocity": 51,
                "duration": 0.44090909090909136,
                "tempo": 120.0
            },
            {
                "start_time": 28.047727272727272,
                "end_time": 33.31136363636364,
                "pitch": 73,
                "velocity": 51,
                "duration": 5.2636363636363654,
                "tempo": 120.0
            },
            {
                "start_time": 31.99772727272727,
                "end_time": 33.31136363636364,
                "pitch": 73,
                "velocity": 51,
                "duration": 1.3136363636363662,
                "tempo": 120.0
            },
            {
                "start_time": 33.31136363636364,
                "end_time": 34.19318181818181,
                "pitch": 78,
                "velocity": 51,
                "duration": 0.8818181818181756,
                "tempo": 120.0
            },
            {
                "start_time": 33.31136363636364,
                "end_time": 34.19318181818181,
                "pitch": 78,
                "velocity": 51,
                "duration": 0.8818181818181756,
                "tempo": 120.0
            },
            {
                "start_time": 34.19318181818181,
                "end_time": 34.418181818181814,
                "pitch": 73,
                "velocity": 51,
                "duration": 0.22500000000000142,
                "tempo": 120.0
            },
            {
                "start_time": 34.418181818181814,
                "end_time": 34.63181818181818,
                "pitch": 75,
                "velocity": 51,
                "duration": 0.2136363636363683,
                "tempo": 120.0
            },
            {
                "start_time": 34.63181818181818,
                "end_time": 35.06818181818181,
                "pitch": 76,
                "velocity": 51,
                "duration": 0.4363636363636303,
                "tempo": 120.0
            },
            {
                "start_time": 35.06818181818181,
                "end_time": 35.50681818181818,
                "pitch": 75,
                "velocity": 51,
                "duration": 0.4386363636363697,
                "tempo": 120.0
            },
            {
                "start_time": 35.50681818181818,
                "end_time": 35.94772727272727,
                "pitch": 73,
                "velocity": 51,
                "duration": 0.4409090909090878,
                "tempo": 120.0
            },
            {
                "start_time": 35.94772727272727,
                "end_time": 36.38636363636363,
                "pitch": 75,
                "velocity": 51,
                "duration": 0.4386363636363626,
                "tempo": 120.0
            },
            {
                "start_time": 36.38636363636363,
                "end_time": 36.82727272727273,
                "pitch": 76,
                "velocity": 51,
                "duration": 0.4409090909090949,
                "tempo": 120.0
            },
            {
                "start_time": 9.629545454545454,
                "end_time": 37.26136363636363,
                "pitch": 35,
                "velocity": 51,
                "duration": 27.63181818181818,
                "tempo": 120.0
            },
            {
                "start_time": 36.82727272727273,
                "end_time": 37.26136363636363,
                "pitch": 78,
                "velocity": 51,
                "duration": 0.4340909090909051,
                "tempo": 120.0
            },
            {
                "start_time": 36.82727272727273,
                "end_time": 37.26136363636363,
                "pitch": 78,
                "velocity": 51,
                "duration": 0.4340909090909051,
                "tempo": 120.0
            },
            {
                "start_time": 37.26136363636363,
                "end_time": 38.57727272727273,
                "pitch": 80,
                "velocity": 51,
                "duration": 1.315909090909095,
                "tempo": 120.0
            },
            {
                "start_time": 38.57727272727273,
                "end_time": 39.01590909090909,
                "pitch": 76,
                "velocity": 51,
                "duration": 0.4386363636363626,
                "tempo": 120.0
            },
            {
                "start_time": 37.26136363636363,
                "end_time": 39.45681818181818,
                "pitch": 35,
                "velocity": 51,
                "duration": 2.1954545454545453,
                "tempo": 120.0
            },
            {
                "start_time": 39.01590909090909,
                "end_time": 39.45681818181818,
                "pitch": 78,
                "velocity": 51,
                "duration": 0.4409090909090878,
                "tempo": 120.0
            },
            {
                "start_time": 39.01590909090909,
                "end_time": 39.45681818181818,
                "pitch": 78,
                "velocity": 51,
                "duration": 0.4409090909090878,
                "tempo": 120.0
            },
            {
                "start_time": 39.45681818181818,
                "end_time": 39.89545454545454,
                "pitch": 80,
                "velocity": 51,
                "duration": 0.4386363636363626,
                "tempo": 120.0
            },
            {
                "start_time": 39.89545454545454,
                "end_time": 41.20681818181818,
                "pitch": 75,
                "velocity": 51,
                "duration": 1.3113636363636374,
                "tempo": 120.0
            },
            {
                "start_time": 41.20681818181818,
                "end_time": 41.64545454545454,
                "pitch": 75,
                "velocity": 51,
                "duration": 0.4386363636363626,
                "tempo": 120.0
            },
            {
                "start_time": 41.64545454545454,
                "end_time": 42.086363636363636,
                "pitch": 76,
                "velocity": 51,
                "duration": 0.4409090909090949,
                "tempo": 120.0
            },
            {
                "start_time": 42.086363636363636,
                "end_time": 42.525,
                "pitch": 78,
                "velocity": 51,
                "duration": 0.4386363636363626,
                "tempo": 120.0
            },
            {
                "start_time": 42.525,
                "end_time": 43.836363636363636,
                "pitch": 73,
                "velocity": 51,
                "duration": 1.3113636363636374,
                "tempo": 120.0
            },
            {
                "start_time": 42.525,
                "end_time": 43.836363636363636,
                "pitch": 73,
                "velocity": 51,
                "duration": 1.3113636363636374,
                "tempo": 120.0
            },
            {
                "start_time": 43.836363636363636,
                "end_time": 44.275,
                "pitch": 73,
                "velocity": 51,
                "duration": 0.4386363636363626,
                "tempo": 120.0
            },
            {
                "start_time": 44.275,
                "end_time": 44.715909090909086,
                "pitch": 75,
                "velocity": 51,
                "duration": 0.4409090909090878,
                "tempo": 120.0
            },
            {
                "start_time": 44.715909090909086,
                "end_time": 45.15454545454545,
                "pitch": 76,
                "velocity": 51,
                "duration": 0.4386363636363626,
                "tempo": 120.0
            },
            {
                "start_time": 45.15454545454545,
                "end_time": 46.02954545454545,
                "pitch": 72,
                "velocity": 51,
                "duration": 0.875,
                "tempo": 120.0
            },
            {
                "start_time": 45.15454545454545,
                "end_time": 46.02954545454545,
                "pitch": 72,
                "velocity": 51,
                "duration": 0.875,
                "tempo": 120.0
            },
            {
                "start_time": 46.02954545454545,
                "end_time": 46.465909090909086,
                "pitch": 73,
                "velocity": 51,
                "duration": 0.4363636363636374,
                "tempo": 120.0
            },
            {
                "start_time": 46.465909090909086,
                "end_time": 47.78409090909091,
                "pitch": 75,
                "velocity": 51,
                "duration": 1.3181818181818201,
                "tempo": 120.0
            },
            {
                "start_time": 47.78409090909091,
                "end_time": 49.974999999999994,
                "pitch": 74,
                "velocity": 51,
                "duration": 2.190909090909088,
                "tempo": 120.0
            },
            {
                "start_time": 49.974999999999994,
                "end_time": 50.41590909090909,
                "pitch": 76,
                "velocity": 51,
                "duration": 0.4409090909090949,
                "tempo": 120.0
            },
            {
                "start_time": 31.55681818181818,
                "end_time": 51.73409090909091,
                "pitch": 77,
                "velocity": 51,
                "duration": 20.17727272727273,
                "tempo": 120.0
            },
            {
                "start_time": 50.41590909090909,
                "end_time": 51.73409090909091,
                "pitch": 77,
                "velocity": 51,
                "duration": 1.3181818181818201,
                "tempo": 120.0
            },
            {
                "start_time": 51.73409090909091,
                "end_time": 53.04545454545454,
                "pitch": 81,
                "velocity": 51,
                "duration": 1.3113636363636303,
                "tempo": 120.0
            },
            {
                "start_time": 18.4,
                "end_time": 53.48409090909091,
                "pitch": 79,
                "velocity": 51,
                "duration": 35.08409090909091,
                "tempo": 120.0
            },
            {
                "start_time": 53.04545454545454,
                "end_time": 53.48409090909091,
                "pitch": 79,
                "velocity": 51,
                "duration": 0.4386363636363697,
                "tempo": 120.0
            },
            {
                "start_time": 39.89545454545454,
                "end_time": 53.48409090909091,
                "pitch": 89,
                "velocity": 51,
                "duration": 13.588636363636368,
                "tempo": 120.0
            },
            {
                "start_time": 53.48409090909091,
                "end_time": 55.23863636363636,
                "pitch": 74,
                "velocity": 51,
                "duration": 1.7545454545454504,
                "tempo": 120.0
            },
            {
                "start_time": 55.23863636363636,
                "end_time": 55.675,
                "pitch": 76,
                "velocity": 51,
                "duration": 0.4363636363636374,
                "tempo": 120.0
            },
            {
                "start_time": 55.675,
                "end_time": 56.99318181818182,
                "pitch": 77,
                "velocity": 51,
                "duration": 1.3181818181818201,
                "tempo": 120.0
            },
            {
                "start_time": 56.99318181818182,
                "end_time": 57.434090909090905,
                "pitch": 76,
                "velocity": 51,
                "duration": 0.4409090909090878,
                "tempo": 120.0
            },
            {
                "start_time": 57.434090909090905,
                "end_time": 57.87272727272727,
                "pitch": 72,
                "velocity": 51,
                "duration": 0.4386363636363626,
                "tempo": 120.0
            },
            {
                "start_time": 57.434090909090905,
                "end_time": 57.87272727272727,
                "pitch": 72,
                "velocity": 51,
                "duration": 0.4386363636363626,
                "tempo": 120.0
            },
            {
                "start_time": 57.87272727272727,
                "end_time": 58.31363636363636,
                "pitch": 67,
                "velocity": 51,
                "duration": 0.4409090909090949,
                "tempo": 120.0
            },
            {
                "start_time": 28.488636363636363,
                "end_time": 60.50454545454545,
                "pitch": 69,
                "velocity": 51,
                "duration": 32.01590909090909,
                "tempo": 120.0
            },
            {
                "start_time": 58.31363636363636,
                "end_time": 60.50454545454545,
                "pitch": 69,
                "velocity": 51,
                "duration": 2.190909090909088,
                "tempo": 120.0
            },
            {
                "start_time": 60.50454545454545,
                "end_time": 60.72272727272727,
                "pitch": 67,
                "velocity": 51,
                "duration": 0.2181818181818187,
                "tempo": 120.0
            },
            {
                "start_time": 60.72272727272727,
                "end_time": 60.94318181818181,
                "pitch": 65,
                "velocity": 51,
                "duration": 0.2204545454545439,
                "tempo": 120.0
            },
            {
                "start_time": 60.94318181818181,
                "end_time": 62.252272727272725,
                "pitch": 69,
                "velocity": 51,
                "duration": 1.3090909090909122,
                "tempo": 120.0
            },
            {
                "start_time": 30.677272727272726,
                "end_time": 63.57272727272727,
                "pitch": 57,
                "velocity": 51,
                "duration": 32.89545454545454,
                "tempo": 120.0
            },
            {
                "start_time": 62.252272727272725,
                "end_time": 63.57272727272727,
                "pitch": 72,
                "velocity": 51,
                "duration": 1.3204545454545453,
                "tempo": 120.0
            },
            {
                "start_time": 63.57272727272727,
                "end_time": 64.89318181818182,
                "pitch": 71,
                "velocity": 51,
                "duration": 1.3204545454545453,
                "tempo": 120.0
            },
            {
                "start_time": 64.89318181818182,
                "end_time": 66.20227272727273,
                "pitch": 74,
                "velocity": 51,
                "duration": 1.3090909090909122,
                "tempo": 120.0
            },
            {
                "start_time": 64.89318181818182,
                "end_time": 66.20227272727273,
                "pitch": 77,
                "velocity": 51,
                "duration": 1.3090909090909122,
                "tempo": 120.0
            },
            {
                "start_time": 66.20227272727273,
                "end_time": 66.86363636363636,
                "pitch": 77,
                "velocity": 51,
                "duration": 0.6613636363636317,
                "tempo": 120.0
            },
            {
                "start_time": 66.20227272727273,
                "end_time": 66.86363636363636,
                "pitch": 77,
                "velocity": 51,
                "duration": 0.6613636363636317,
                "tempo": 120.0
            },
            {
                "start_time": 66.86363636363636,
                "end_time": 67.08181818181818,
                "pitch": 76,
                "velocity": 51,
                "duration": 0.2181818181818187,
                "tempo": 120.0
            },
            {
                "start_time": 67.08181818181818,
                "end_time": 67.52272727272727,
                "pitch": 77,
                "velocity": 51,
                "duration": 0.4409090909090878,
                "tempo": 120.0
            },
            {
                "start_time": 67.52272727272727,
                "end_time": 67.96136363636363,
                "pitch": 79,
                "velocity": 51,
                "duration": 0.4386363636363626,
                "tempo": 120.0
            },
            {
                "start_time": 26.738636363636363,
                "end_time": 67.96136363636363,
                "pitch": 88,
                "velocity": 51,
                "duration": 41.22272727272727,
                "tempo": 120.0
            },
            {
                "start_time": 67.96136363636363,
                "end_time": 68.39772727272727,
                "pitch": 84,
                "velocity": 51,
                "duration": 0.4363636363636374,
                "tempo": 120.0
            },
            {
                "start_time": 68.39772727272727,
                "end_time": 68.83181818181818,
                "pitch": 82,
                "velocity": 51,
                "duration": 0.4340909090909122,
                "tempo": 120.0
            },
            {
                "start_time": 63.57272727272727,
                "end_time": 69.49318181818181,
                "pitch": 57,
                "velocity": 51,
                "duration": 5.92045454545454,
                "tempo": 120.0
            },
            {
                "start_time": 68.83181818181818,
                "end_time": 69.49318181818181,
                "pitch": 86,
                "velocity": 51,
                "duration": 0.6613636363636317,
                "tempo": 120.0
            },
            {
                "start_time": 69.49318181818181,
                "end_time": 69.71136363636363,
                "pitch": 81,
                "velocity": 51,
                "duration": 0.2181818181818187,
                "tempo": 120.0
            },
            {
                "start_time": 69.71136363636363,
                "end_time": 70.15227272727273,
                "pitch": 79,
                "velocity": 51,
                "duration": 0.440909090909102,
                "tempo": 120.0
            },
            {
                "start_time": 53.48409090909091,
                "end_time": 70.15227272727273,
                "pitch": 89,
                "velocity": 51,
                "duration": 16.66818181818182,
                "tempo": 120.0
            },
            {
                "start_time": 70.15227272727273,
                "end_time": 70.5909090909091,
                "pitch": 86,
                "velocity": 51,
                "duration": 0.4386363636363626,
                "tempo": 120.0
            },
            {
                "start_time": 70.5909090909091,
                "end_time": 71.03181818181818,
                "pitch": 84,
                "velocity": 51,
                "duration": 0.4409090909090878,
                "tempo": 120.0
            },
            {
                "start_time": 71.03181818181818,
                "end_time": 71.4659090909091,
                "pitch": 81,
                "velocity": 51,
                "duration": 0.4340909090909122,
                "tempo": 120.0
            },
            {
                "start_time": 71.4659090909091,
                "end_time": 71.90227272727272,
                "pitch": 81,
                "velocity": 51,
                "duration": 0.4363636363636232,
                "tempo": 120.0
            },
            {
                "start_time": 71.90227272727272,
                "end_time": 72.12272727272727,
                "pitch": 79,
                "velocity": 51,
                "duration": 0.22045454545455812,
                "tempo": 120.0
            },
            {
                "start_time": 72.12272727272727,
                "end_time": 72.78181818181818,
                "pitch": 77,
                "velocity": 51,
                "duration": 0.6590909090909065,
                "tempo": 120.0
            },
            {
                "start_time": 72.78181818181818,
                "end_time": 73.66136363636363,
                "pitch": 72,
                "velocity": 51,
                "duration": 0.8795454545454504,
                "tempo": 120.0
            },
            {
                "start_time": 72.78181818181818,
                "end_time": 73.66136363636363,
                "pitch": 72,
                "velocity": 51,
                "duration": 0.8795454545454504,
                "tempo": 120.0
            },
            {
                "start_time": 73.66136363636363,
                "end_time": 74.1,
                "pitch": 76,
                "velocity": 51,
                "duration": 0.4386363636363626,
                "tempo": 120.0
            },
            {
                "start_time": 74.1,
                "end_time": 75.41136363636363,
                "pitch": 74,
                "velocity": 51,
                "duration": 1.3113636363636374,
                "tempo": 120.0
            },
            {
                "start_time": 75.41136363636363,
                "end_time": 76.29090909090908,
                "pitch": 79,
                "velocity": 51,
                "duration": 0.8795454545454504,
                "tempo": 120.0
            },
            {
                "start_time": 70.15227272727273,
                "end_time": 76.29090909090908,
                "pitch": 89,
                "velocity": 51,
                "duration": 6.138636363636351,
                "tempo": 120.0
            },
            {
                "start_time": 76.29090909090908,
                "end_time": 76.51136363636363,
                "pitch": 74,
                "velocity": 51,
                "duration": 0.2204545454545439,
                "tempo": 120.0
            },
            {
                "start_time": 76.51136363636363,
                "end_time": 76.73181818181818,
                "pitch": 76,
                "velocity": 51,
                "duration": 0.22045454545455812,
                "tempo": 120.0
            },
            {
                "start_time": 76.73181818181818,
                "end_time": 77.17045454545455,
                "pitch": 77,
                "velocity": 51,
                "duration": 0.4386363636363626,
                "tempo": 120.0
            },
            {
                "start_time": 77.17045454545455,
                "end_time": 77.61136363636363,
                "pitch": 76,
                "velocity": 51,
                "duration": 0.4409090909090878,
                "tempo": 120.0
            },
            {
                "start_time": 77.61136363636363,
                "end_time": 78.04545454545455,
                "pitch": 74,
                "velocity": 51,
                "duration": 0.4340909090909122,
                "tempo": 120.0
            },
            {
                "start_time": 78.04545454545455,
                "end_time": 78.48181818181818,
                "pitch": 76,
                "velocity": 51,
                "duration": 0.4363636363636374,
                "tempo": 120.0
            },
            {
                "start_time": 57.87272727272727,
                "end_time": 78.92045454545455,
                "pitch": 11,
                "velocity": 51,
                "duration": 21.04772727272728,
                "tempo": 120.0
            },
            {
                "start_time": 78.48181818181818,
                "end_time": 78.92045454545455,
                "pitch": 77,
                "velocity": 51,
                "duration": 0.4386363636363626,
                "tempo": 120.0
            },
            {
                "start_time": 78.92045454545455,
                "end_time": 79.36136363636363,
                "pitch": 79,
                "velocity": 51,
                "duration": 0.4409090909090878,
                "tempo": 120.0
            },
            {
                "start_time": 79.36136363636363,
                "end_time": 80.675,
                "pitch": 81,
                "velocity": 51,
                "duration": 1.3136363636363626,
                "tempo": 120.0
            },
            {
                "start_time": 38.57727272727273,
                "end_time": 80.675,
                "pitch": 90,
                "velocity": 51,
                "duration": 42.09772727272727,
                "tempo": 120.0
            },
            {
                "start_time": 78.92045454545455,
                "end_time": 81.11136363636363,
                "pitch": 11,
                "velocity": 51,
                "duration": 2.190909090909088,
                "tempo": 120.0
            },
            {
                "start_time": 80.675,
                "end_time": 81.11136363636363,
                "pitch": 77,
                "velocity": 51,
                "duration": 0.4363636363636374,
                "tempo": 120.0
            },
            {
                "start_time": 81.11136363636363,
                "end_time": 81.55,
                "pitch": 79,
                "velocity": 51,
                "duration": 0.4386363636363626,
                "tempo": 120.0
            },
            {
                "start_time": 81.55,
                "end_time": 81.99090909090908,
                "pitch": 81,
                "velocity": 51,
                "duration": 0.4409090909090878,
                "tempo": 120.0
            },
            {
                "start_time": 80.675,
                "end_time": 81.99090909090908,
                "pitch": 90,
                "velocity": 51,
                "duration": 1.3159090909090878,
                "tempo": 120.0
            },
            {
                "start_time": 81.99090909090908,
                "end_time": 83.3090909090909,
                "pitch": 76,
                "velocity": 51,
                "duration": 1.318181818181813,
                "tempo": 120.0
            },
            {
                "start_time": 83.3090909090909,
                "end_time": 83.75,
                "pitch": 76,
                "velocity": 51,
                "duration": 0.440909090909102,
                "tempo": 120.0
            },
            {
                "start_time": 81.11136363636363,
                "end_time": 84.18863636363636,
                "pitch": 11,
                "velocity": 51,
                "duration": 3.077272727272728,
                "tempo": 120.0
            },
            {
                "start_time": 83.75,
                "end_time": 84.18863636363636,
                "pitch": 77,
                "velocity": 51,
                "duration": 0.4386363636363626,
                "tempo": 120.0
            },
            {
                "start_time": 84.18863636363636,
                "end_time": 84.625,
                "pitch": 79,
                "velocity": 51,
                "duration": 0.4363636363636374,
                "tempo": 120.0
            },
            {
                "start_time": 76.29090909090908,
                "end_time": 84.625,
                "pitch": 89,
                "velocity": 51,
                "duration": 8.334090909090918,
                "tempo": 120.0
            },
            {
                "start_time": 84.625,
                "end_time": 85.93863636363636,
                "pitch": 74,
                "velocity": 51,
                "duration": 1.3136363636363626,
                "tempo": 120.0
            },
            {
                "start_time": 85.93863636363636,
                "end_time": 86.37954545454545,
                "pitch": 74,
                "velocity": 51,
                "duration": 0.4409090909090878,
                "tempo": 120.0
            },
            {
                "start_time": 86.37954545454545,
                "end_time": 86.81818181818181,
                "pitch": 76,
                "velocity": 51,
                "duration": 0.4386363636363626,
                "tempo": 120.0
            },
            {
                "start_time": 86.81818181818181,
                "end_time": 87.25454545454545,
                "pitch": 77,
                "velocity": 51,
                "duration": 0.4363636363636374,
                "tempo": 120.0
            },
            {
                "start_time": 87.25454545454545,
                "end_time": 88.1340909090909,
                "pitch": 73,
                "velocity": 51,
                "duration": 0.8795454545454504,
                "tempo": 120.0
            },
            {
                "start_time": 88.1340909090909,
                "end_time": 88.57045454545454,
                "pitch": 74,
                "velocity": 51,
                "duration": 0.4363636363636374,
                "tempo": 120.0
            },
            {
                "start_time": 88.57045454545454,
                "end_time": 89.88863636363637,
                "pitch": 76,
                "velocity": 51,
                "duration": 1.3181818181818272,
                "tempo": 120.0
            }
        ],
        "Violin": [
            {
                "start_time": 26.518181818181816,
                "end_time": 26.738636363636363,
                "pitch": 85,
                "velocity": 80,
                "duration": 0.22045454545454746,
                "tempo": 120.0
            },
            {
                "start_time": 26.959090909090907,
                "end_time": 27.177272727272726,
                "pitch": 85,
                "velocity": 80,
                "duration": 0.2181818181818187,
                "tempo": 120.0
            },
            {
                "start_time": 27.39772727272727,
                "end_time": 27.613636363636363,
                "pitch": 85,
                "velocity": 80,
                "duration": 0.2159090909090935,
                "tempo": 120.0
            },
            {
                "start_time": 27.829545454545453,
                "end_time": 28.047727272727272,
                "pitch": 85,
                "velocity": 80,
                "duration": 0.2181818181818187,
                "tempo": 120.0
            },
            {
                "start_time": 28.268181818181816,
                "end_time": 28.488636363636363,
                "pitch": 85,
                "velocity": 80,
                "duration": 0.22045454545454746,
                "tempo": 120.0
            },
            {
                "start_time": 28.709090909090907,
                "end_time": 29.14772727272727,
                "pitch": 85,
                "velocity": 80,
                "duration": 0.4386363636363626,
                "tempo": 120.0
            },
            {
                "start_time": 29.14772727272727,
                "end_time": 29.368181818181817,
                "pitch": 85,
                "velocity": 80,
                "duration": 0.22045454545454746,
                "tempo": 120.0
            },
            {
                "start_time": 29.58863636363636,
                "end_time": 29.80681818181818,
                "pitch": 85,
                "velocity": 80,
                "duration": 0.2181818181818187,
                "tempo": 120.0
            },
            {
                "start_time": 30.027272727272727,
                "end_time": 30.243181818181817,
                "pitch": 85,
                "velocity": 80,
                "duration": 0.21590909090908994,
                "tempo": 120.0
            },
            {
                "start_time": 30.459090909090907,
                "end_time": 30.677272727272726,
                "pitch": 85,
                "velocity": 80,
                "duration": 0.2181818181818187,
                "tempo": 120.0
            },
            {
                "start_time": 30.89772727272727,
                "end_time": 31.118181818181817,
                "pitch": 85,
                "velocity": 80,
                "duration": 0.22045454545454746,
                "tempo": 120.0
            },
            {
                "start_time": 31.33863636363636,
                "end_time": 31.777272727272727,
                "pitch": 85,
                "velocity": 80,
                "duration": 0.43863636363636616,
                "tempo": 120.0
            },
            {
                "start_time": 31.777272727272727,
                "end_time": 31.99772727272727,
                "pitch": 85,
                "velocity": 80,
                "duration": 0.2204545454545439,
                "tempo": 120.0
            },
            {
                "start_time": 32.21818181818182,
                "end_time": 32.43863636363636,
                "pitch": 85,
                "velocity": 80,
                "duration": 0.2204545454545439,
                "tempo": 120.0
            },
            {
                "start_time": 32.65681818181818,
                "end_time": 32.877272727272725,
                "pitch": 85,
                "velocity": 80,
                "duration": 0.2204545454545439,
                "tempo": 120.0
            },
            {
                "start_time": 33.09772727272727,
                "end_time": 33.31136363636364,
                "pitch": 85,
                "velocity": 80,
                "duration": 0.2136363636363683,
                "tempo": 120.0
            },
            {
                "start_time": 33.527272727272724,
                "end_time": 33.74772727272727,
                "pitch": 85,
                "velocity": 80,
                "duration": 0.2204545454545439,
                "tempo": 120.0
            },
            {
                "start_time": 33.96818181818182,
                "end_time": 34.418181818181814,
                "pitch": 85,
                "velocity": 80,
                "duration": 0.44999999999999574,
                "tempo": 120.0
            },
            {
                "start_time": 34.418181818181814,
                "end_time": 34.63181818181818,
                "pitch": 85,
                "velocity": 80,
                "duration": 0.2136363636363683,
                "tempo": 120.0
            },
            {
                "start_time": 34.84772727272727,
                "end_time": 35.06818181818181,
                "pitch": 85,
                "velocity": 80,
                "duration": 0.2204545454545439,
                "tempo": 120.0
            },
            {
                "start_time": 35.28636363636363,
                "end_time": 35.50681818181818,
                "pitch": 85,
                "velocity": 80,
                "duration": 0.220454545454551,
                "tempo": 120.0
            },
            {
                "start_time": 35.72727272727273,
                "end_time": 35.94772727272727,
                "pitch": 87,
                "velocity": 80,
                "duration": 0.2204545454545439,
                "tempo": 120.0
            },
            {
                "start_time": 36.168181818181814,
                "end_time": 36.38636363636363,
                "pitch": 87,
                "velocity": 80,
                "duration": 0.2181818181818187,
                "tempo": 120.0
            },
            {
                "start_time": 36.60681818181818,
                "end_time": 36.82727272727273,
                "pitch": 87,
                "velocity": 80,
                "duration": 0.220454545454551,
                "tempo": 120.0
            },
            {
                "start_time": 37.04772727272727,
                "end_time": 37.26136363636363,
                "pitch": 88,
                "velocity": 80,
                "duration": 0.21363636363636118,
                "tempo": 120.0
            },
            {
                "start_time": 37.47727272727273,
                "end_time": 37.70227272727273,
                "pitch": 88,
                "velocity": 80,
                "duration": 0.22500000000000142,
                "tempo": 120.0
            },
            {
                "start_time": 37.92727272727272,
                "end_time": 38.14090909090909,
                "pitch": 88,
                "velocity": 80,
                "duration": 0.2136363636363683,
                "tempo": 120.0
            },
            {
                "start_time": 38.35681818181818,
                "end_time": 38.57727272727273,
                "pitch": 88,
                "velocity": 80,
                "duration": 0.220454545454551,
                "tempo": 120.0
            },
            {
                "start_time": 38.79772727272727,
                "end_time": 39.01590909090909,
                "pitch": 88,
                "velocity": 80,
                "duration": 0.2181818181818187,
                "tempo": 120.0
            },
            {
                "start_time": 39.236363636363635,
                "end_time": 39.67727272727272,
                "pitch": 88,
                "velocity": 80,
                "duration": 0.4409090909090878,
                "tempo": 120.0
            },
            {
                "start_time": 39.67727272727272,
                "end_time": 39.89545454545454,
                "pitch": 90,
                "velocity": 80,
                "duration": 0.2181818181818187,
                "tempo": 120.0
            },
            {
                "start_time": 39.67727272727272,
                "end_time": 39.89545454545454,
                "pitch": 90,
                "velocity": 80,
                "duration": 0.2181818181818187,
                "tempo": 120.0
            },
            {
                "start_time": 40.11590909090909,
                "end_time": 40.336363636363636,
                "pitch": 90,
                "velocity": 80,
                "duration": 0.2204545454545439,
                "tempo": 120.0
            },
            {
                "start_time": 40.55681818181818,
                "end_time": 40.77045454545454,
                "pitch": 90,
                "velocity": 80,
                "duration": 0.21363636363636118,
                "tempo": 120.0
            },
            {
                "start_time": 40.986363636363635,
                "end_time": 41.20681818181818,
                "pitch": 90,
                "velocity": 80,
                "duration": 0.2204545454545439,
                "tempo": 120.0
            },
            {
                "start_time": 41.42727272727272,
                "end_time": 41.64545454545454,
                "pitch": 90,
                "velocity": 80,
                "duration": 0.2181818181818187,
                "tempo": 120.0
            },
            {
                "start_time": 41.86590909090909,
                "end_time": 42.30681818181818,
                "pitch": 90,
                "velocity": 80,
                "duration": 0.4409090909090878,
                "tempo": 120.0
            },
            {
                "start_time": 42.30681818181818,
                "end_time": 42.525,
                "pitch": 88,
                "velocity": 80,
                "duration": 0.2181818181818187,
                "tempo": 120.0
            },
            {
                "start_time": 42.74545454545454,
                "end_time": 42.965909090909086,
                "pitch": 88,
                "velocity": 80,
                "duration": 0.2204545454545439,
                "tempo": 120.0
            },
            {
                "start_time": 43.18636363636364,
                "end_time": 43.4,
                "pitch": 88,
                "velocity": 80,
                "duration": 0.21363636363636118,
                "tempo": 120.0
            },
            {
                "start_time": 43.61590909090909,
                "end_time": 43.836363636363636,
                "pitch": 88,
                "velocity": 80,
                "duration": 0.2204545454545439,
                "tempo": 120.0
            },
            {
                "start_time": 44.05681818181818,
                "end_time": 44.275,
                "pitch": 88,
                "velocity": 80,
                "duration": 0.2181818181818187,
                "tempo": 120.0
            },
            {
                "start_time": 44.49545454545454,
                "end_time": 44.93636363636364,
                "pitch": 88,
                "velocity": 80,
                "duration": 0.4409090909090949,
                "tempo": 120.0
            },
            {
                "start_time": 44.93636363636364,
                "end_time": 45.15681818181818,
                "pitch": 84,
                "velocity": 80,
                "duration": 0.2204545454545439,
                "tempo": 120.0
            },
            {
                "start_time": 45.375,
                "end_time": 45.595454545454544,
                "pitch": 84,
                "velocity": 80,
                "duration": 0.2204545454545439,
                "tempo": 120.0
            },
            {
                "start_time": 45.81590909090909,
                "end_time": 46.03181818181818,
                "pitch": 84,
                "velocity": 80,
                "duration": 0.2159090909090935,
                "tempo": 120.0
            },
            {
                "start_time": 46.24545454545454,
                "end_time": 46.465909090909086,
                "pitch": 84,
                "velocity": 80,
                "duration": 0.2204545454545439,
                "tempo": 120.0
            },
            {
                "start_time": 46.68636363636364,
                "end_time": 46.90681818181818,
                "pitch": 84,
                "velocity": 80,
                "duration": 0.2204545454545439,
                "tempo": 120.0
            },
            {
                "start_time": 47.125,
                "end_time": 47.56590909090909,
                "pitch": 84,
                "velocity": 80,
                "duration": 0.4409090909090878,
                "tempo": 120.0
            },
            {
                "start_time": 68.61363636363636,
                "end_time": 68.83181818181818,
                "pitch": 86,
                "velocity": 80,
                "duration": 0.2181818181818187,
                "tempo": 120.0
            },
            {
                "start_time": 69.05227272727272,
                "end_time": 69.27272727272727,
                "pitch": 86,
                "velocity": 80,
                "duration": 0.2204545454545439,
                "tempo": 120.0
            },
            {
                "start_time": 69.49318181818181,
                "end_time": 69.71136363636363,
                "pitch": 86,
                "velocity": 80,
                "duration": 0.2181818181818187,
                "tempo": 120.0
            },
            {
                "start_time": 69.93181818181817,
                "end_time": 70.15227272727273,
                "pitch": 86,
                "velocity": 80,
                "duration": 0.22045454545455812,
                "tempo": 120.0
            },
            {
                "start_time": 70.37272727272727,
                "end_time": 70.5909090909091,
                "pitch": 86,
                "velocity": 80,
                "duration": 0.2181818181818187,
                "tempo": 120.0
            },
            {
                "start_time": 70.81136363636364,
                "end_time": 71.25227272727273,
                "pitch": 86,
                "velocity": 80,
                "duration": 0.4409090909090878,
                "tempo": 120.0
            },
            {
                "start_time": 71.25227272727273,
                "end_time": 71.4659090909091,
                "pitch": 86,
                "velocity": 80,
                "duration": 0.2136363636363683,
                "tempo": 120.0
            },
            {
                "start_time": 71.68181818181817,
                "end_time": 71.90227272727272,
                "pitch": 86,
                "velocity": 80,
                "duration": 0.2204545454545439,
                "tempo": 120.0
            },
            {
                "start_time": 72.12272727272727,
                "end_time": 72.3409090909091,
                "pitch": 86,
                "velocity": 80,
                "duration": 0.2181818181818187,
                "tempo": 120.0
            },
            {
                "start_time": 72.56136363636364,
                "end_time": 72.78181818181818,
                "pitch": 86,
                "velocity": 80,
                "duration": 0.2204545454545439,
                "tempo": 120.0
            },
            {
                "start_time": 73.00227272727273,
                "end_time": 73.22272727272727,
                "pitch": 86,
                "velocity": 80,
                "duration": 0.2204545454545439,
                "tempo": 120.0
            },
            {
                "start_time": 73.44090909090909,
                "end_time": 73.88181818181818,
                "pitch": 86,
                "velocity": 80,
                "duration": 0.4409090909090878,
                "tempo": 120.0
            },
            {
                "start_time": 73.88181818181818,
                "end_time": 74.10227272727272,
                "pitch": 86,
                "velocity": 80,
                "duration": 0.2204545454545439,
                "tempo": 120.0
            },
            {
                "start_time": 74.32045454545454,
                "end_time": 74.54090909090908,
                "pitch": 86,
                "velocity": 80,
                "duration": 0.2204545454545439,
                "tempo": 120.0
            },
            {
                "start_time": 74.76136363636363,
                "end_time": 74.97727272727272,
                "pitch": 86,
                "velocity": 80,
                "duration": 0.2159090909090935,
                "tempo": 120.0
            },
            {
                "start_time": 75.19090909090909,
                "end_time": 75.41136363636363,
                "pitch": 86,
                "velocity": 80,
                "duration": 0.2204545454545439,
                "tempo": 120.0
            },
            {
                "start_time": 75.63181818181818,
                "end_time": 75.85227272727272,
                "pitch": 86,
                "velocity": 80,
                "duration": 0.2204545454545439,
                "tempo": 120.0
            },
            {
                "start_time": 76.07272727272726,
                "end_time": 76.51136363636363,
                "pitch": 86,
                "velocity": 80,
                "duration": 0.4386363636363626,
                "tempo": 120.0
            },
            {
                "start_time": 76.51136363636363,
                "end_time": 76.73181818181818,
                "pitch": 86,
                "velocity": 80,
                "duration": 0.22045454545455812,
                "tempo": 120.0
            },
            {
                "start_time": 76.95,
                "end_time": 77.17045454545455,
                "pitch": 86,
                "velocity": 80,
                "duration": 0.2204545454545439,
                "tempo": 120.0
            },
            {
                "start_time": 77.39090909090909,
                "end_time": 77.61136363636363,
                "pitch": 86,
                "velocity": 80,
                "duration": 0.2204545454545439,
                "tempo": 120.0
            },
            {
                "start_time": 77.83181818181818,
                "end_time": 78.04545454545455,
                "pitch": 88,
                "velocity": 80,
                "duration": 0.2136363636363683,
                "tempo": 120.0
            },
            {
                "start_time": 78.26136363636363,
                "end_time": 78.48181818181818,
                "pitch": 88,
                "velocity": 80,
                "duration": 0.22045454545455812,
                "tempo": 120.0
            },
            {
                "start_time": 78.70227272727273,
                "end_time": 78.92045454545455,
                "pitch": 88,
                "velocity": 80,
                "duration": 0.2181818181818187,
                "tempo": 120.0
            },
            {
                "start_time": 79.14090909090909,
                "end_time": 79.36136363636363,
                "pitch": 89,
                "velocity": 80,
                "duration": 0.2204545454545439,
                "tempo": 120.0
            },
            {
                "start_time": 79.57954545454545,
                "end_time": 79.8,
                "pitch": 89,
                "velocity": 80,
                "duration": 0.2204545454545439,
                "tempo": 120.0
            },
            {
                "start_time": 80.02045454545454,
                "end_time": 80.24090909090908,
                "pitch": 89,
                "velocity": 80,
                "duration": 0.2204545454545439,
                "tempo": 120.0
            },
            {
                "start_time": 80.46136363636363,
                "end_time": 80.675,
                "pitch": 89,
                "velocity": 80,
                "duration": 0.2136363636363683,
                "tempo": 120.0
            },
            {
                "start_time": 80.89090909090909,
                "end_time": 81.11136363636363,
                "pitch": 89,
                "velocity": 80,
                "duration": 0.2204545454545439,
                "tempo": 120.0
            },
            {
                "start_time": 81.33181818181818,
                "end_time": 81.77045454545454,
                "pitch": 89,
                "velocity": 80,
                "duration": 0.4386363636363626,
                "tempo": 120.0
            },
            {
                "start_time": 81.77045454545454,
                "end_time": 81.99090909090908,
                "pitch": 91,
                "velocity": 80,
                "duration": 0.2204545454545439,
                "tempo": 120.0
            },
            {
                "start_time": 82.21136363636363,
                "end_time": 82.42954545454545,
                "pitch": 91,
                "velocity": 80,
                "duration": 0.2181818181818187,
                "tempo": 120.0
            },
            {
                "start_time": 82.64999999999999,
                "end_time": 82.87045454545454,
                "pitch": 91,
                "velocity": 80,
                "duration": 0.2204545454545439,
                "tempo": 120.0
            },
            {
                "start_time": 83.0909090909091,
                "end_time": 83.3090909090909,
                "pitch": 91,
                "velocity": 80,
                "duration": 0.2181818181818045,
                "tempo": 120.0
            },
            {
                "start_time": 83.52954545454546,
                "end_time": 83.75,
                "pitch": 91,
                "velocity": 80,
                "duration": 0.2204545454545439,
                "tempo": 120.0
            },
            {
                "start_time": 83.97045454545454,
                "end_time": 84.4090909090909,
                "pitch": 91,
                "velocity": 80,
                "duration": 0.4386363636363626,
                "tempo": 120.0
            },
            {
                "start_time": 84.4090909090909,
                "end_time": 84.625,
                "pitch": 89,
                "velocity": 80,
                "duration": 0.2159090909090935,
                "tempo": 120.0
            },
            {
                "start_time": 84.8409090909091,
                "end_time": 85.0590909090909,
                "pitch": 89,
                "velocity": 80,
                "duration": 0.2181818181818045,
                "tempo": 120.0
            },
            {
                "start_time": 85.27954545454546,
                "end_time": 85.5,
                "pitch": 89,
                "velocity": 80,
                "duration": 0.2204545454545439,
                "tempo": 120.0
            },
            {
                "start_time": 85.72045454545454,
                "end_time": 85.93863636363636,
                "pitch": 89,
                "velocity": 80,
                "duration": 0.2181818181818187,
                "tempo": 120.0
            },
            {
                "start_time": 86.1590909090909,
                "end_time": 86.37954545454545,
                "pitch": 89,
                "velocity": 80,
                "duration": 0.2204545454545439,
                "tempo": 120.0
            },
            {
                "start_time": 86.6,
                "end_time": 87.03863636363636,
                "pitch": 89,
                "velocity": 80,
                "duration": 0.4386363636363626,
                "tempo": 120.0
            },
            {
                "start_time": 87.03863636363636,
                "end_time": 87.25454545454545,
                "pitch": 85,
                "velocity": 80,
                "duration": 0.2159090909090935,
                "tempo": 120.0
            },
            {
                "start_time": 87.03863636363636,
                "end_time": 87.25454545454545,
                "pitch": 85,
                "velocity": 80,
                "duration": 0.2159090909090935,
                "tempo": 120.0
            },
            {
                "start_time": 87.47045454545454,
                "end_time": 87.69545454545454,
                "pitch": 85,
                "velocity": 80,
                "duration": 0.22499999999999432,
                "tempo": 120.0
            },
            {
                "start_time": 87.92045454545455,
                "end_time": 88.1340909090909,
                "pitch": 85,
                "velocity": 80,
                "duration": 0.21363636363635408,
                "tempo": 120.0
            },
            {
                "start_time": 88.35,
                "end_time": 88.57045454545454,
                "pitch": 85,
                "velocity": 80,
                "duration": 0.2204545454545439,
                "tempo": 120.0
            },
            {
                "start_time": 88.78863636363636,
                "end_time": 89.0090909090909,
                "pitch": 85,
                "velocity": 80,
                "duration": 0.2204545454545439,
                "tempo": 120.0
            },
            {
                "start_time": 89.22954545454544,
                "end_time": 89.67045454545455,
                "pitch": 85,
                "velocity": 80,
                "duration": 0.440909090909102,
                "tempo": 120.0
            }
        ]
    }
}