{
    "track_id": "08 - Game de check! Koutsuu Anzen (FM) - Game Over",
    "mood": "sad",
    "instruments": {
        "Vibraphone": [
            {
                "start_time": 0.0,
                "end_time": 0.3,
                "pitch": 81,
                "velocity": 64,
                "duration": 0.3,
                "tempo": 120.0
            },
            {
                "start_time": 0.3136363636363636,
                "end_time": 0.3818181818181818,
                "pitch": 81,
                "velocity": 64,
                "duration": 0.06818181818181818,
                "tempo": 120.0
            },
            {
                "start_time": 0.39545454545454545,
                "end_time": 0.5431818181818182,
                "pitch": 76,
                "velocity": 64,
                "duration": 0.14772727272727276,
                "tempo": 120.0
            },
            {
                "start_time": 0.5568181818181818,
                "end_time": 1.2431818181818182,
                "pitch": 73,
                "velocity": 64,
                "duration": 0.6863636363636364,
                "tempo": 120.0
            },
            {
                "start_time": 1.2795454545454545,
                "end_time": 1.4522727272727272,
                "pitch": 69,
                "velocity": 64,
                "duration": 0.17272727272727262,
                "tempo": 120.0
            },
            {
                "start_time": 1.4863636363636363,
                "end_time": 2.0749999999999997,
                "pitch": 73,
                "velocity": 64,
                "duration": 0.5886363636363634,
                "tempo": 120.0
            },
            {
                "start_time": 2.109090909090909,
                "end_time": 2.6977272727272728,
                "pitch": 79,
                "velocity": 64,
                "duration": 0.5886363636363638,
                "tempo": 120.0
            },
            {
                "start_time": 2.7318181818181815,
                "end_time": 3.1113636363636363,
                "pitch": 79,
                "velocity": 64,
                "duration": 0.37954545454545485,
                "tempo": 120.0
            },
            {
                "start_time": 3.1454545454545455,
                "end_time": 3.734090909090909,
                "pitch": 79,
                "velocity": 64,
                "duration": 0.5886363636363634,
                "tempo": 120.0
            },
            {
                "start_time": 3.768181818181818,
                "end_time": 3.943181818181818,
                "pitch": 79,
                "velocity": 64,
                "duration": 0.17499999999999982,
                "tempo": 120.0
            },
            {
                "start_time": 3.977272727272727,
                "end_time": 4.5636363636363635,
                "pitch": 79,
                "velocity": 64,
                "duration": 0.5863636363636364,
                "tempo": 120.0
            },
            {
                "start_time": 4.6,
                "end_time": 4.7727272727272725,
                "pitch": 76,
                "velocity": 64,
                "duration": 0.17272727272727284,
                "tempo": 120.0
            },
            {
                "start_time": 4.804545454545455,
                "end_time": 5.375,
                "pitch": 73,
                "velocity": 64,
                "duration": 0.5704545454545453,
                "tempo": 120.0
            },
            {
                "start_time": 5.406818181818181,
                "end_time": 7.7295454545454545,
                "pitch": 72,
                "velocity": 64,
                "duration": 2.322727272727273,
                "tempo": 120.0
            },
            {
                "start_time": 7.761363636363636,
                "end_time": 7.920454545454545,
                "pitch": 81,
                "velocity": 64,
                "duration": 0.15909090909090917,
                "tempo": 120.0
            },
            {
                "start_time": 7.952272727272727,
                "end_time": 8.493181818181817,
                "pitch": 81,
                "velocity": 64,
                "duration": 0.5409090909090901,
                "tempo": 120.0
            },
            {
                "start_time": 8.525,
                "end_time": 11.888636363636364,
                "pitch": 69,
                "velocity": 64,
                "duration": 3.3636363636363633,
                "tempo": 120.0
            }
        ],
        "Acoustic Bass": [
            {
                "start_time": 0.0,
                "end_time": 0.3,
                "pitch": 52,
                "velocity": 51,
                "duration": 0.3,
                "tempo": 120.0
            },
            {
                "start_time": 0.3136363636363636,
                "end_time": 0.5431818181818182,
                "pitch": 52,
                "velocity": 51,
                "duration": 0.2295454545454546,
                "tempo": 120.0
            },
            {
                "start_time": 0.5568181818181818,
                "end_time": 0.625,
                "pitch": 49,
                "velocity": 51,
                "duration": 0.06818181818181823,
                "tempo": 120.0
            },
            {
                "start_time": 0.6568181818181817,
                "end_time": 1.4522727272727272,
                "pitch": 52,
                "velocity": 51,
                "duration": 0.7954545454545454,
                "tempo": 120.0
            },
            {
                "start_time": 1.4863636363636363,
                "end_time": 2.0749999999999997,
                "pitch": 52,
                "velocity": 51,
                "duration": 0.5886363636363634,
                "tempo": 120.0
            },
            {
                "start_time": 2.109090909090909,
                "end_time": 3.734090909090909,
                "pitch": 55,
                "velocity": 51,
                "duration": 1.625,
                "tempo": 120.0
            },
            {
                "start_time": 3.768181818181818,
                "end_time": 3.943181818181818,
                "pitch": 48,
                "velocity": 51,
                "duration": 0.17499999999999982,
                "tempo": 120.0
            },
            {
                "start_time": 3.977272727272727,
                "end_time": 4.5636363636363635,
                "pitch": 45,
                "velocity": 51,
                "duration": 0.5863636363636364,
                "tempo": 120.0
            },
            {
                "start_time": 4.6,
                "end_time": 4.7727272727272725,
                "pitch": 48,
                "velocity": 51,
                "duration": 0.17272727272727284,
                "tempo": 120.0
            },
            {
                "start_time": 4.804545454545455,
                "end_time": 5.375,
                "pitch": 52,
                "velocity": 51,
                "duration": 0.5704545454545453,
                "tempo": 120.0
            },
            {
                "start_time": 5.406818181818181,
                "end_time": 7.7295454545454545,
                "pitch": 48,
                "velocity": 51,
                "duration": 2.322727272727273,
                "tempo": 120.0
            },
            {
                "start_time": 7.761363636363636,
                "end_time": 8.493181818181817,
                "pitch": 43,
                "velocity": 51,
                "duration": 0.7318181818181815,
                "tempo": 120.0
            },
            {
                "start_time": 8.525,
                "end_time": 11.888636363636364,
                "pitch": 45,
                "velocity": 51,
                "duration": 3.3636363636363633,
                "tempo": 120.0
            }
        ],
        "Acoustic Grand Piano": [
            {
                "start_time": 0.0,
                "end_time": 0.2727272727272727,
                "pitch": 64,
                "velocity": 40,
                "duration": 0.2727272727272727,
                "tempo": 120.0
            },
            {
                "start_time": 0.2863636363636364,
                "end_time": 0.5159090909090909,
                "pitch": 64,
                "velocity": 40,
                "duration": 0.2295454545454545,
                "tempo": 120.0
            },
            {
                "start_time": 0.5295454545454545,
                "end_time": 0.625,
                "pitch": 61,
                "velocity": 40,
                "duration": 0.09545454545454546,
                "tempo": 120.0
            },
            {
                "start_time": 0.6568181818181817,
                "end_time": 1.4522727272727272,
                "pitch": 64,
                "velocity": 40,
                "duration": 0.7954545454545454,
                "tempo": 120.0
            },
            {
                "start_time": 1.4863636363636363,
                "end_time": 1.9363636363636363,
                "pitch": 64,
                "velocity": 40,
                "duration": 0.44999999999999996,
                "tempo": 120.0
            },
            {
                "start_time": 1.9704545454545455,
                "end_time": 3.5954545454545452,
                "pitch": 67,
                "velocity": 40,
                "duration": 1.6249999999999998,
                "tempo": 120.0
            },
            {
                "start_time": 3.631818181818182,
                "end_time": 3.943181818181818,
                "pitch": 60,
                "velocity": 40,
                "duration": 0.31136363636363606,
                "tempo": 120.0
            },
            {
                "start_time": 3.977272727272727,
                "end_time": 4.495454545454545,
                "pitch": 57,
                "velocity": 40,
                "duration": 0.5181818181818181,
                "tempo": 120.0
            },
            {
                "start_time": 4.529545454545454,
                "end_time": 4.7727272727272725,
                "pitch": 60,
                "velocity": 40,
                "duration": 0.24318181818181817,
                "tempo": 120.0
            },
            {
                "start_time": 4.804545454545455,
                "end_time": 5.24090909090909,
                "pitch": 64,
                "velocity": 40,
                "duration": 0.4363636363636356,
                "tempo": 120.0
            },
            {
                "start_time": 5.2727272727272725,
                "end_time": 5.506818181818182,
                "pitch": 60,
                "velocity": 40,
                "duration": 0.23409090909090935,
                "tempo": 120.0
            },
            {
                "start_time": 7.631818181818182,
                "end_time": 8.36590909090909,
                "pitch": 55,
                "velocity": 40,
                "duration": 0.7340909090909085,
                "tempo": 120.0
            },
            {
                "start_time": 8.397727272727272,
                "end_time": 11.888636363636364,
                "pitch": 57,
                "velocity": 40,
                "duration": 3.490909090909092,
                "tempo": 120.0
            }
        ]
    }
}