{
    "track_id": "08 Solgrado",
    "mood": "sad",
    "instruments": {
        "Church Organ": [
            {
                "start_time": 0.0,
                "end_time": 0.11136363636363636,
                "pitch": 61,
                "velocity": 101,
                "duration": 0.11136363636363636,
                "tempo": 120.0
            },
            {
                "start_time": 0.11136363636363636,
                "end_time": 0.21136363636363636,
                "pitch": 73,
                "velocity": 101,
                "duration": 0.1,
                "tempo": 120.0
            },
            {
                "start_time": 0.21136363636363636,
                "end_time": 0.31136363636363634,
                "pitch": 66,
                "velocity": 101,
                "duration": 0.09999999999999998,
                "tempo": 120.0
            },
            {
                "start_time": 0.31136363636363634,
                "end_time": 0.4113636363636363,
                "pitch": 76,
                "velocity": 101,
                "duration": 0.09999999999999998,
                "tempo": 120.0
            },
            {
                "start_time": 0.21136363636363636,
                "end_time": 0.5659090909090909,
                "pitch": 61,
                "velocity": 101,
                "duration": 0.35454545454545455,
                "tempo": 120.0
            },
            {
                "start_time": 0.4113636363636363,
                "end_time": 0.5659090909090909,
                "pitch": 61,
                "velocity": 101,
                "duration": 0.1545454545454546,
                "tempo": 120.0
            },
            {
                "start_time": 0.5659090909090909,
                "end_time": 0.7227272727272727,
                "pitch": 73,
                "velocity": 101,
                "duration": 0.15681818181818175,
                "tempo": 120.0
            },
            {
                "start_time": 0.7227272727272727,
                "end_time": 0.8795454545454545,
                "pitch": 66,
                "velocity": 101,
                "duration": 0.15681818181818186,
                "tempo": 120.0
            },
            {
                "start_time": 0.31136363636363634,
                "end_time": 0.8795454545454545,
                "pitch": 78,
                "velocity": 101,
                "duration": 0.5681818181818181,
                "tempo": 120.0
            },
            {
                "start_time": 0.4113636363636363,
                "end_time": 1.0363636363636364,
                "pitch": 64,
                "velocity": 101,
                "duration": 0.625,
                "tempo": 120.0
            },
            {
                "start_time": 0.8795454545454545,
                "end_time": 1.0363636363636364,
                "pitch": 76,
                "velocity": 101,
                "duration": 0.15681818181818186,
                "tempo": 120.0
            },
            {
                "start_time": 0.7227272727272727,
                "end_time": 1.1863636363636363,
                "pitch": 61,
                "velocity": 101,
                "duration": 0.4636363636363636,
                "tempo": 120.0
            },
            {
                "start_time": 1.0363636363636364,
                "end_time": 1.1863636363636363,
                "pitch": 61,
                "velocity": 101,
                "duration": 0.1499999999999999,
                "tempo": 120.0
            },
            {
                "start_time": 1.1863636363636363,
                "end_time": 1.3363636363636362,
                "pitch": 73,
                "velocity": 101,
                "duration": 0.1499999999999999,
                "tempo": 120.0
            },
            {
                "start_time": 1.3363636363636362,
                "end_time": 1.4863636363636363,
                "pitch": 67,
                "velocity": 101,
                "duration": 0.15000000000000013,
                "tempo": 120.0
            },
            {
                "start_time": 1.0363636363636364,
                "end_time": 1.6363636363636362,
                "pitch": 64,
                "velocity": 101,
                "duration": 0.5999999999999999,
                "tempo": 120.0
            },
            {
                "start_time": 1.4863636363636363,
                "end_time": 1.6363636363636362,
                "pitch": 76,
                "velocity": 101,
                "duration": 0.1499999999999999,
                "tempo": 120.0
            },
            {
                "start_time": 1.6363636363636362,
                "end_time": 1.7886363636363636,
                "pitch": 61,
                "velocity": 101,
                "duration": 0.15227272727272734,
                "tempo": 120.0
            },
            {
                "start_time": 1.3363636363636362,
                "end_time": 1.940909090909091,
                "pitch": 73,
                "velocity": 101,
                "duration": 0.6045454545454547,
                "tempo": 120.0
            },
            {
                "start_time": 1.7886363636363636,
                "end_time": 1.940909090909091,
                "pitch": 73,
                "velocity": 101,
                "duration": 0.15227272727272734,
                "tempo": 120.0
            },
            {
                "start_time": 1.4863636363636363,
                "end_time": 2.0931818181818183,
                "pitch": 67,
                "velocity": 101,
                "duration": 0.6068181818181819,
                "tempo": 120.0
            },
            {
                "start_time": 1.940909090909091,
                "end_time": 2.0931818181818183,
                "pitch": 67,
                "velocity": 101,
                "duration": 0.15227272727272734,
                "tempo": 120.0
            },
            {
                "start_time": 1.6363636363636362,
                "end_time": 2.243181818181818,
                "pitch": 64,
                "velocity": 101,
                "duration": 0.6068181818181819,
                "tempo": 120.0
            },
            {
                "start_time": 2.0931818181818183,
                "end_time": 2.243181818181818,
                "pitch": 76,
                "velocity": 101,
                "duration": 0.1499999999999999,
                "tempo": 120.0
            },
            {
                "start_time": 2.243181818181818,
                "end_time": 2.393181818181818,
                "pitch": 61,
                "velocity": 101,
                "duration": 0.1499999999999999,
                "tempo": 120.0
            },
            {
                "start_time": 1.940909090909091,
                "end_time": 2.5454545454545454,
                "pitch": 73,
                "velocity": 101,
                "duration": 0.6045454545454545,
                "tempo": 120.0
            },
            {
                "start_time": 2.393181818181818,
                "end_time": 2.5454545454545454,
                "pitch": 73,
                "velocity": 101,
                "duration": 0.15227272727272734,
                "tempo": 120.0
            },
            {
                "start_time": 2.5454545454545454,
                "end_time": 2.6954545454545453,
                "pitch": 66,
                "velocity": 101,
                "duration": 0.1499999999999999,
                "tempo": 120.0
            },
            {
                "start_time": 0.8795454545454545,
                "end_time": 2.6954545454545453,
                "pitch": 78,
                "velocity": 101,
                "duration": 1.815909090909091,
                "tempo": 120.0
            },
            {
                "start_time": 2.243181818181818,
                "end_time": 2.8454545454545452,
                "pitch": 64,
                "velocity": 101,
                "duration": 0.6022727272727271,
                "tempo": 120.0
            },
            {
                "start_time": 2.6954545454545453,
                "end_time": 2.8454545454545452,
                "pitch": 76,
                "velocity": 101,
                "duration": 0.1499999999999999,
                "tempo": 120.0
            },
            {
                "start_time": 2.5454545454545454,
                "end_time": 2.995454545454545,
                "pitch": 61,
                "velocity": 101,
                "duration": 0.44999999999999973,
                "tempo": 120.0
            },
            {
                "start_time": 2.8454545454545452,
                "end_time": 2.995454545454545,
                "pitch": 61,
                "velocity": 101,
                "duration": 0.1499999999999999,
                "tempo": 120.0
            },
            {
                "start_time": 2.995454545454545,
                "end_time": 3.1477272727272725,
                "pitch": 73,
                "velocity": 101,
                "duration": 0.15227272727272734,
                "tempo": 120.0
            },
            {
                "start_time": 3.1477272727272725,
                "end_time": 3.3,
                "pitch": 66,
                "velocity": 101,
                "duration": 0.15227272727272734,
                "tempo": 120.0
            },
            {
                "start_time": 2.6954545454545453,
                "end_time": 3.3,
                "pitch": 78,
                "velocity": 101,
                "duration": 0.6045454545454545,
                "tempo": 120.0
            },
            {
                "start_time": 2.8454545454545452,
                "end_time": 3.452272727272727,
                "pitch": 64,
                "velocity": 101,
                "duration": 0.6068181818181819,
                "tempo": 120.0
            },
            {
                "start_time": 3.3,
                "end_time": 3.452272727272727,
                "pitch": 76,
                "velocity": 101,
                "duration": 0.15227272727272734,
                "tempo": 120.0
            },
            {
                "start_time": 3.1477272727272725,
                "end_time": 3.602272727272727,
                "pitch": 61,
                "velocity": 101,
                "duration": 0.4545454545454546,
                "tempo": 120.0
            },
            {
                "start_time": 3.452272727272727,
                "end_time": 3.602272727272727,
                "pitch": 61,
                "velocity": 101,
                "duration": 0.1499999999999999,
                "tempo": 120.0
            },
            {
                "start_time": 3.602272727272727,
                "end_time": 3.7545454545454544,
                "pitch": 73,
                "velocity": 101,
                "duration": 0.15227272727272734,
                "tempo": 120.0
            },
            {
                "start_time": 3.7545454545454544,
                "end_time": 3.9068181818181817,
                "pitch": 65,
                "velocity": 101,
                "duration": 0.15227272727272734,
                "tempo": 120.0
            },
            {
                "start_time": 3.452272727272727,
                "end_time": 4.059090909090909,
                "pitch": 64,
                "velocity": 101,
                "duration": 0.6068181818181815,
                "tempo": 120.0
            },
            {
                "start_time": 3.9068181818181817,
                "end_time": 4.059090909090909,
                "pitch": 77,
                "velocity": 101,
                "duration": 0.1522727272727269,
                "tempo": 120.0
            },
            {
                "start_time": 3.7545454545454544,
                "end_time": 4.225,
                "pitch": 61,
                "velocity": 101,
                "duration": 0.47045454545454524,
                "tempo": 120.0
            },
            {
                "start_time": 4.059090909090909,
                "end_time": 4.225,
                "pitch": 61,
                "velocity": 101,
                "duration": 0.165909090909091,
                "tempo": 120.0
            },
            {
                "start_time": 4.225,
                "end_time": 4.375,
                "pitch": 73,
                "velocity": 101,
                "duration": 0.15000000000000036,
                "tempo": 120.0
            },
            {
                "start_time": 4.375,
                "end_time": 4.5249999999999995,
                "pitch": 65,
                "velocity": 101,
                "duration": 0.14999999999999947,
                "tempo": 120.0
            },
            {
                "start_time": 4.059090909090909,
                "end_time": 4.675,
                "pitch": 64,
                "velocity": 101,
                "duration": 0.6159090909090912,
                "tempo": 120.0
            },
            {
                "start_time": 4.5249999999999995,
                "end_time": 4.675,
                "pitch": 77,
                "velocity": 101,
                "duration": 0.15000000000000036,
                "tempo": 120.0
            },
            {
                "start_time": 4.375,
                "end_time": 4.831818181818182,
                "pitch": 61,
                "velocity": 101,
                "duration": 0.456818181818182,
                "tempo": 120.0
            },
            {
                "start_time": 4.675,
                "end_time": 4.831818181818182,
                "pitch": 61,
                "velocity": 101,
                "duration": 0.1568181818181822,
                "tempo": 120.0
            },
            {
                "start_time": 4.831818181818182,
                "end_time": 4.86590909090909,
                "pitch": 73,
                "velocity": 101,
                "duration": 0.034090909090908283,
                "tempo": 120.0
            }
        ],
        "Oboe": [
            {
                "start_time": 0.0,
                "end_time": 0.11136363636363636,
                "pitch": 74,
                "velocity": 64,
                "duration": 0.11136363636363636,
                "tempo": 120.0
            },
            {
                "start_time": 0.11136363636363636,
                "end_time": 0.21136363636363636,
                "pitch": 85,
                "velocity": 64,
                "duration": 0.1,
                "tempo": 120.0
            },
            {
                "start_time": 0.21136363636363636,
                "end_time": 0.31136363636363634,
                "pitch": 78,
                "velocity": 64,
                "duration": 0.09999999999999998,
                "tempo": 120.0
            },
            {
                "start_time": 0.31136363636363634,
                "end_time": 0.4113636363636363,
                "pitch": 88,
                "velocity": 64,
                "duration": 0.09999999999999998,
                "tempo": 120.0
            },
            {
                "start_time": 0.21136363636363636,
                "end_time": 0.5681818181818181,
                "pitch": 73,
                "velocity": 64,
                "duration": 0.35681818181818176,
                "tempo": 120.0
            },
            {
                "start_time": 0.4113636363636363,
                "end_time": 0.5681818181818181,
                "pitch": 73,
                "velocity": 64,
                "duration": 0.1568181818181818,
                "tempo": 120.0
            },
            {
                "start_time": 0.5681818181818181,
                "end_time": 0.7227272727272727,
                "pitch": 85,
                "velocity": 64,
                "duration": 0.15454545454545454,
                "tempo": 120.0
            },
            {
                "start_time": 0.7227272727272727,
                "end_time": 0.8795454545454545,
                "pitch": 78,
                "velocity": 64,
                "duration": 0.15681818181818186,
                "tempo": 120.0
            },
            {
                "start_time": 0.31136363636363634,
                "end_time": 0.8795454545454545,
                "pitch": 90,
                "velocity": 64,
                "duration": 0.5681818181818181,
                "tempo": 120.0
            },
            {
                "start_time": 0.4113636363636363,
                "end_time": 1.0363636363636364,
                "pitch": 76,
                "velocity": 64,
                "duration": 0.625,
                "tempo": 120.0
            },
            {
                "start_time": 0.8795454545454545,
                "end_time": 1.0363636363636364,
                "pitch": 88,
                "velocity": 64,
                "duration": 0.15681818181818186,
                "tempo": 120.0
            },
            {
                "start_time": 0.7227272727272727,
                "end_time": 1.1863636363636363,
                "pitch": 73,
                "velocity": 64,
                "duration": 0.4636363636363636,
                "tempo": 120.0
            },
            {
                "start_time": 1.0363636363636364,
                "end_time": 1.1863636363636363,
                "pitch": 73,
                "velocity": 64,
                "duration": 0.1499999999999999,
                "tempo": 120.0
            },
            {
                "start_time": 1.1863636363636363,
                "end_time": 1.3363636363636362,
                "pitch": 85,
                "velocity": 64,
                "duration": 0.1499999999999999,
                "tempo": 120.0
            },
            {
                "start_time": 1.3363636363636362,
                "end_time": 1.4863636363636363,
                "pitch": 79,
                "velocity": 64,
                "duration": 0.15000000000000013,
                "tempo": 120.0
            },
            {
                "start_time": 1.0363636363636364,
                "end_time": 1.6363636363636362,
                "pitch": 76,
                "velocity": 64,
                "duration": 0.5999999999999999,
                "tempo": 120.0
            },
            {
                "start_time": 1.4863636363636363,
                "end_time": 1.6363636363636362,
                "pitch": 88,
                "velocity": 64,
                "duration": 0.1499999999999999,
                "tempo": 120.0
            },
            {
                "start_time": 1.6363636363636362,
                "end_time": 1.7886363636363636,
                "pitch": 73,
                "velocity": 64,
                "duration": 0.15227272727272734,
                "tempo": 120.0
            },
            {
                "start_time": 1.3363636363636362,
                "end_time": 1.940909090909091,
                "pitch": 85,
                "velocity": 64,
                "duration": 0.6045454545454547,
                "tempo": 120.0
            },
            {
                "start_time": 1.7886363636363636,
                "end_time": 1.940909090909091,
                "pitch": 85,
                "velocity": 64,
                "duration": 0.15227272727272734,
                "tempo": 120.0
            },
            {
                "start_time": 1.4863636363636363,
                "end_time": 2.0931818181818183,
                "pitch": 79,
                "velocity": 64,
                "duration": 0.6068181818181819,
                "tempo": 120.0
            },
            {
                "start_time": 1.940909090909091,
                "end_time": 2.0931818181818183,
                "pitch": 79,
                "velocity": 64,
                "duration": 0.15227272727272734,
                "tempo": 120.0
            },
            {
                "start_time": 1.6363636363636362,
                "end_time": 2.243181818181818,
                "pitch": 76,
                "velocity": 64,
                "duration": 0.6068181818181819,
                "tempo": 120.0
            },
            {
                "start_time": 2.0931818181818183,
                "end_time": 2.243181818181818,
                "pitch": 88,
                "velocity": 64,
                "duration": 0.1499999999999999,
                "tempo": 120.0
            },
            {
                "start_time": 2.243181818181818,
                "end_time": 2.3954545454545455,
                "pitch": 73,
                "velocity": 64,
                "duration": 0.15227272727272734,
                "tempo": 120.0
            },
            {
                "start_time": 1.940909090909091,
                "end_time": 2.5454545454545454,
                "pitch": 85,
                "velocity": 64,
                "duration": 0.6045454545454545,
                "tempo": 120.0
            },
            {
                "start_time": 2.3954545454545455,
                "end_time": 2.5454545454545454,
                "pitch": 85,
                "velocity": 64,
                "duration": 0.1499999999999999,
                "tempo": 120.0
            },
            {
                "start_time": 2.5454545454545454,
                "end_time": 2.6954545454545453,
                "pitch": 78,
                "velocity": 64,
                "duration": 0.1499999999999999,
                "tempo": 120.0
            },
            {
                "start_time": 0.8795454545454545,
                "end_time": 2.6954545454545453,
                "pitch": 90,
                "velocity": 64,
                "duration": 1.815909090909091,
                "tempo": 120.0
            },
            {
                "start_time": 2.243181818181818,
                "end_time": 2.8454545454545452,
                "pitch": 76,
                "velocity": 64,
                "duration": 0.6022727272727271,
                "tempo": 120.0
            },
            {
                "start_time": 2.6954545454545453,
                "end_time": 2.8454545454545452,
                "pitch": 88,
                "velocity": 64,
                "duration": 0.1499999999999999,
                "tempo": 120.0
            },
            {
                "start_time": 2.5454545454545454,
                "end_time": 2.9977272727272726,
                "pitch": 73,
                "velocity": 64,
                "duration": 0.45227272727272716,
                "tempo": 120.0
            },
            {
                "start_time": 2.8454545454545452,
                "end_time": 2.9977272727272726,
                "pitch": 73,
                "velocity": 64,
                "duration": 0.15227272727272734,
                "tempo": 120.0
            },
            {
                "start_time": 2.9977272727272726,
                "end_time": 3.1477272727272725,
                "pitch": 85,
                "velocity": 64,
                "duration": 0.1499999999999999,
                "tempo": 120.0
            },
            {
                "start_time": 3.1477272727272725,
                "end_time": 3.3,
                "pitch": 78,
                "velocity": 64,
                "duration": 0.15227272727272734,
                "tempo": 120.0
            },
            {
                "start_time": 2.6954545454545453,
                "end_time": 3.3,
                "pitch": 90,
                "velocity": 64,
                "duration": 0.6045454545454545,
                "tempo": 120.0
            },
            {
                "start_time": 2.8454545454545452,
                "end_time": 3.452272727272727,
                "pitch": 76,
                "velocity": 64,
                "duration": 0.6068181818181819,
                "tempo": 120.0
            },
            {
                "start_time": 3.3,
                "end_time": 3.452272727272727,
                "pitch": 88,
                "velocity": 64,
                "duration": 0.15227272727272734,
                "tempo": 120.0
            },
            {
                "start_time": 3.1477272727272725,
                "end_time": 3.6045454545454545,
                "pitch": 73,
                "velocity": 64,
                "duration": 0.456818181818182,
                "tempo": 120.0
            },
            {
                "start_time": 3.452272727272727,
                "end_time": 3.6045454545454545,
                "pitch": 73,
                "velocity": 64,
                "duration": 0.15227272727272734,
                "tempo": 120.0
            },
            {
                "start_time": 3.6045454545454545,
                "end_time": 3.7545454545454544,
                "pitch": 85,
                "velocity": 64,
                "duration": 0.1499999999999999,
                "tempo": 120.0
            },
            {
                "start_time": 3.7545454545454544,
                "end_time": 3.9068181818181817,
                "pitch": 77,
                "velocity": 64,
                "duration": 0.15227272727272734,
                "tempo": 120.0
            },
            {
                "start_time": 3.452272727272727,
                "end_time": 4.059090909090909,
                "pitch": 76,
                "velocity": 64,
                "duration": 0.6068181818181815,
                "tempo": 120.0
            },
            {
                "start_time": 3.9068181818181817,
                "end_time": 4.059090909090909,
                "pitch": 89,
                "velocity": 64,
                "duration": 0.1522727272727269,
                "tempo": 120.0
            },
            {
                "start_time": 3.7545454545454544,
                "end_time": 4.225,
                "pitch": 73,
                "velocity": 64,
                "duration": 0.47045454545454524,
                "tempo": 120.0
            },
            {
                "start_time": 4.059090909090909,
                "end_time": 4.225,
                "pitch": 73,
                "velocity": 64,
                "duration": 0.165909090909091,
                "tempo": 120.0
            },
            {
                "start_time": 4.225,
                "end_time": 4.375,
                "pitch": 85,
                "velocity": 64,
                "duration": 0.15000000000000036,
                "tempo": 120.0
            },
            {
                "start_time": 4.375,
                "end_time": 4.5249999999999995,
                "pitch": 77,
                "velocity": 64,
                "duration": 0.14999999999999947,
                "tempo": 120.0
            },
            {
                "start_time": 4.059090909090909,
                "end_time": 4.677272727272727,
                "pitch": 76,
                "velocity": 64,
                "duration": 0.6181818181818182,
                "tempo": 120.0
            },
            {
                "start_time": 4.5249999999999995,
                "end_time": 4.677272727272727,
                "pitch": 89,
                "velocity": 64,
                "duration": 0.15227272727272734,
                "tempo": 120.0
            },
            {
                "start_time": 4.375,
                "end_time": 4.831818181818182,
                "pitch": 73,
                "velocity": 64,
                "duration": 0.456818181818182,
                "tempo": 120.0
            },
            {
                "start_time": 4.677272727272727,
                "end_time": 4.831818181818182,
                "pitch": 73,
                "velocity": 64,
                "duration": 0.1545454545454552,
                "tempo": 120.0
            },
            {
                "start_time": 4.831818181818182,
                "end_time": 4.86590909090909,
                "pitch": 85,
                "velocity": 64,
                "duration": 0.034090909090908283,
                "tempo": 120.0
            }
        ],
        "Harpsichord": [
            {
                "start_time": 0.14545454545454545,
                "end_time": 0.24545454545454545,
                "pitch": 73,
                "velocity": 51,
                "duration": 0.1,
                "tempo": 120.0
            },
            {
                "start_time": 0.24545454545454545,
                "end_time": 0.34545454545454546,
                "pitch": 85,
                "velocity": 51,
                "duration": 0.1,
                "tempo": 120.0
            },
            {
                "start_time": 0.34545454545454546,
                "end_time": 0.4636363636363636,
                "pitch": 78,
                "velocity": 51,
                "duration": 0.11818181818181817,
                "tempo": 120.0
            },
            {
                "start_time": 0.4636363636363636,
                "end_time": 0.6204545454545454,
                "pitch": 88,
                "velocity": 51,
                "duration": 0.15681818181818175,
                "tempo": 120.0
            },
            {
                "start_time": 0.34545454545454546,
                "end_time": 0.7749999999999999,
                "pitch": 73,
                "velocity": 51,
                "duration": 0.42954545454545445,
                "tempo": 120.0
            },
            {
                "start_time": 0.6204545454545454,
                "end_time": 0.7749999999999999,
                "pitch": 73,
                "velocity": 51,
                "duration": 0.15454545454545454,
                "tempo": 120.0
            },
            {
                "start_time": 0.7749999999999999,
                "end_time": 0.9318181818181818,
                "pitch": 85,
                "velocity": 51,
                "duration": 0.15681818181818186,
                "tempo": 120.0
            },
            {
                "start_time": 0.9318181818181818,
                "end_time": 1.0863636363636364,
                "pitch": 78,
                "velocity": 51,
                "duration": 0.15454545454545465,
                "tempo": 120.0
            },
            {
                "start_time": 0.4636363636363636,
                "end_time": 1.0863636363636364,
                "pitch": 90,
                "velocity": 51,
                "duration": 0.6227272727272728,
                "tempo": 120.0
            },
            {
                "start_time": 0.6204545454545454,
                "end_time": 1.2363636363636363,
                "pitch": 76,
                "velocity": 51,
                "duration": 0.615909090909091,
                "tempo": 120.0
            },
            {
                "start_time": 1.0863636363636364,
                "end_time": 1.2363636363636363,
                "pitch": 88,
                "velocity": 51,
                "duration": 0.1499999999999999,
                "tempo": 120.0
            },
            {
                "start_time": 0.9318181818181818,
                "end_time": 1.3863636363636362,
                "pitch": 73,
                "velocity": 51,
                "duration": 0.4545454545454545,
                "tempo": 120.0
            },
            {
                "start_time": 1.2363636363636363,
                "end_time": 1.3863636363636362,
                "pitch": 73,
                "velocity": 51,
                "duration": 0.1499999999999999,
                "tempo": 120.0
            },
            {
                "start_time": 1.3863636363636362,
                "end_time": 1.5363636363636364,
                "pitch": 85,
                "velocity": 51,
                "duration": 0.15000000000000013,
                "tempo": 120.0
            },
            {
                "start_time": 1.5363636363636364,
                "end_time": 1.6886363636363635,
                "pitch": 79,
                "velocity": 51,
                "duration": 0.15227272727272712,
                "tempo": 120.0
            },
            {
                "start_time": 1.2363636363636363,
                "end_time": 1.8386363636363636,
                "pitch": 76,
                "velocity": 51,
                "duration": 0.6022727272727273,
                "tempo": 120.0
            },
            {
                "start_time": 1.6886363636363635,
                "end_time": 1.8386363636363636,
                "pitch": 88,
                "velocity": 51,
                "duration": 0.15000000000000013,
                "tempo": 120.0
            },
            {
                "start_time": 1.8386363636363636,
                "end_time": 1.9909090909090907,
                "pitch": 73,
                "velocity": 51,
                "duration": 0.15227272727272712,
                "tempo": 120.0
            },
            {
                "start_time": 1.5363636363636364,
                "end_time": 2.143181818181818,
                "pitch": 85,
                "velocity": 51,
                "duration": 0.6068181818181817,
                "tempo": 120.0
            },
            {
                "start_time": 1.9909090909090907,
                "end_time": 2.143181818181818,
                "pitch": 85,
                "velocity": 51,
                "duration": 0.15227272727272734,
                "tempo": 120.0
            },
            {
                "start_time": 1.6886363636363635,
                "end_time": 2.293181818181818,
                "pitch": 79,
                "velocity": 51,
                "duration": 0.6045454545454545,
                "tempo": 120.0
            },
            {
                "start_time": 2.143181818181818,
                "end_time": 2.293181818181818,
                "pitch": 79,
                "velocity": 51,
                "duration": 0.1499999999999999,
                "tempo": 120.0
            },
            {
                "start_time": 1.8386363636363636,
                "end_time": 2.4454545454545453,
                "pitch": 76,
                "velocity": 51,
                "duration": 0.6068181818181817,
                "tempo": 120.0
            },
            {
                "start_time": 2.2954545454545454,
                "end_time": 2.4454545454545453,
                "pitch": 88,
                "velocity": 51,
                "duration": 0.1499999999999999,
                "tempo": 120.0
            },
            {
                "start_time": 2.4454545454545453,
                "end_time": 2.5954545454545452,
                "pitch": 73,
                "velocity": 51,
                "duration": 0.1499999999999999,
                "tempo": 120.0
            },
            {
                "start_time": 2.143181818181818,
                "end_time": 2.745454545454545,
                "pitch": 85,
                "velocity": 51,
                "duration": 0.6022727272727271,
                "tempo": 120.0
            },
            {
                "start_time": 2.5954545454545452,
                "end_time": 2.745454545454545,
                "pitch": 85,
                "velocity": 51,
                "duration": 0.1499999999999999,
                "tempo": 120.0
            },
            {
                "start_time": 2.745454545454545,
                "end_time": 2.8954545454545455,
                "pitch": 78,
                "velocity": 51,
                "duration": 0.15000000000000036,
                "tempo": 120.0
            },
            {
                "start_time": 1.0863636363636364,
                "end_time": 2.8954545454545455,
                "pitch": 90,
                "velocity": 51,
                "duration": 1.809090909090909,
                "tempo": 120.0
            },
            {
                "start_time": 2.4454545454545453,
                "end_time": 3.0477272727272724,
                "pitch": 76,
                "velocity": 51,
                "duration": 0.6022727272727271,
                "tempo": 120.0
            },
            {
                "start_time": 2.8954545454545455,
                "end_time": 3.0477272727272724,
                "pitch": 88,
                "velocity": 51,
                "duration": 0.1522727272727269,
                "tempo": 120.0
            },
            {
                "start_time": 2.745454545454545,
                "end_time": 3.1999999999999997,
                "pitch": 73,
                "velocity": 51,
                "duration": 0.4545454545454546,
                "tempo": 120.0
            },
            {
                "start_time": 3.0477272727272724,
                "end_time": 3.1999999999999997,
                "pitch": 73,
                "velocity": 51,
                "duration": 0.15227272727272734,
                "tempo": 120.0
            },
            {
                "start_time": 3.1999999999999997,
                "end_time": 3.3499999999999996,
                "pitch": 85,
                "velocity": 51,
                "duration": 0.1499999999999999,
                "tempo": 120.0
            },
            {
                "start_time": 3.3499999999999996,
                "end_time": 3.502272727272727,
                "pitch": 78,
                "velocity": 51,
                "duration": 0.15227272727272734,
                "tempo": 120.0
            },
            {
                "start_time": 2.8954545454545455,
                "end_time": 3.502272727272727,
                "pitch": 90,
                "velocity": 51,
                "duration": 0.6068181818181815,
                "tempo": 120.0
            },
            {
                "start_time": 3.0477272727272724,
                "end_time": 3.6545454545454543,
                "pitch": 76,
                "velocity": 51,
                "duration": 0.6068181818181819,
                "tempo": 120.0
            },
            {
                "start_time": 3.502272727272727,
                "end_time": 3.6545454545454543,
                "pitch": 88,
                "velocity": 51,
                "duration": 0.15227272727272734,
                "tempo": 120.0
            },
            {
                "start_time": 3.3499999999999996,
                "end_time": 3.8068181818181817,
                "pitch": 73,
                "velocity": 51,
                "duration": 0.456818181818182,
                "tempo": 120.0
            },
            {
                "start_time": 3.6545454545454543,
                "end_time": 3.8068181818181817,
                "pitch": 73,
                "velocity": 51,
                "duration": 0.15227272727272734,
                "tempo": 120.0
            },
            {
                "start_time": 3.8068181818181817,
                "end_time": 3.9568181818181816,
                "pitch": 85,
                "velocity": 51,
                "duration": 0.1499999999999999,
                "tempo": 120.0
            },
            {
                "start_time": 3.9568181818181816,
                "end_time": 4.1090909090909085,
                "pitch": 77,
                "velocity": 51,
                "duration": 0.1522727272727269,
                "tempo": 120.0
            },
            {
                "start_time": 3.6545454545454543,
                "end_time": 4.2749999999999995,
                "pitch": 76,
                "velocity": 51,
                "duration": 0.6204545454545451,
                "tempo": 120.0
            },
            {
                "start_time": 4.1090909090909085,
                "end_time": 4.2749999999999995,
                "pitch": 89,
                "velocity": 51,
                "duration": 0.165909090909091,
                "tempo": 120.0
            },
            {
                "start_time": 3.9568181818181816,
                "end_time": 4.425,
                "pitch": 73,
                "velocity": 51,
                "duration": 0.46818181818181825,
                "tempo": 120.0
            },
            {
                "start_time": 4.2749999999999995,
                "end_time": 4.425,
                "pitch": 73,
                "velocity": 51,
                "duration": 0.15000000000000036,
                "tempo": 120.0
            },
            {
                "start_time": 4.425,
                "end_time": 4.575,
                "pitch": 85,
                "velocity": 51,
                "duration": 0.15000000000000036,
                "tempo": 120.0
            },
            {
                "start_time": 4.575,
                "end_time": 4.727272727272727,
                "pitch": 77,
                "velocity": 51,
                "duration": 0.15227272727272645,
                "tempo": 120.0
            },
            {
                "start_time": 4.727272727272727,
                "end_time": 4.86590909090909,
                "pitch": 89,
                "velocity": 51,
                "duration": 0.13863636363636367,
                "tempo": 120.0
            }
        ]
    }
}