{
    "track_id": "08_Ice",
    "mood": "sad",
    "instruments": {
        "Lead 2 (sawtooth)": [
            {
                "start_time": 0.09999999999999999,
                "end_time": 0.5840909090909091,
                "pitch": 33,
                "velocity": 127,
                "duration": 0.4840909090909091,
                "tempo": 120.0
            },
            {
                "start_time": 0.5840909090909091,
                "end_time": 0.7431818181818182,
                "pitch": 33,
                "velocity": 127,
                "duration": 0.15909090909090906,
                "tempo": 120.0
            },
            {
                "start_time": 2.3454545454545452,
                "end_time": 2.506818181818182,
                "pitch": 31,
                "velocity": 127,
                "duration": 0.1613636363636366,
                "tempo": 120.0
            },
            {
                "start_time": 2.506818181818182,
                "end_time": 2.6659090909090906,
                "pitch": 31,
                "velocity": 127,
                "duration": 0.15909090909090873,
                "tempo": 120.0
            },
            {
                "start_time": 2.6659090909090906,
                "end_time": 3.15,
                "pitch": 33,
                "velocity": 127,
                "duration": 0.48409090909090935,
                "tempo": 120.0
            },
            {
                "start_time": 2.6659090909090906,
                "end_time": 3.15,
                "pitch": 33,
                "velocity": 127,
                "duration": 0.48409090909090935,
                "tempo": 120.0
            },
            {
                "start_time": 3.15,
                "end_time": 3.309090909090909,
                "pitch": 33,
                "velocity": 127,
                "duration": 0.15909090909090917,
                "tempo": 120.0
            },
            {
                "start_time": 4.904545454545454,
                "end_time": 5.0659090909090905,
                "pitch": 31,
                "velocity": 127,
                "duration": 0.16136363636363615,
                "tempo": 120.0
            },
            {
                "start_time": 5.0659090909090905,
                "end_time": 5.225,
                "pitch": 31,
                "velocity": 127,
                "duration": 0.15909090909090917,
                "tempo": 120.0
            },
            {
                "start_time": 5.225,
                "end_time": 5.709090909090909,
                "pitch": 33,
                "velocity": 127,
                "duration": 0.48409090909090935,
                "tempo": 120.0
            },
            {
                "start_time": 5.225,
                "end_time": 5.709090909090909,
                "pitch": 33,
                "velocity": 127,
                "duration": 0.48409090909090935,
                "tempo": 120.0
            },
            {
                "start_time": 5.709090909090909,
                "end_time": 5.870454545454545,
                "pitch": 33,
                "velocity": 127,
                "duration": 0.16136363636363615,
                "tempo": 120.0
            },
            {
                "start_time": 7.470454545454545,
                "end_time": 7.627272727272727,
                "pitch": 31,
                "velocity": 127,
                "duration": 0.1568181818181822,
                "tempo": 120.0
            },
            {
                "start_time": 7.627272727272727,
                "end_time": 7.784090909090908,
                "pitch": 31,
                "velocity": 127,
                "duration": 0.1568181818181813,
                "tempo": 120.0
            },
            {
                "start_time": 7.784090909090908,
                "end_time": 8.268181818181818,
                "pitch": 33,
                "velocity": 127,
                "duration": 0.48409090909090935,
                "tempo": 120.0
            },
            {
                "start_time": 8.268181818181818,
                "end_time": 8.429545454545455,
                "pitch": 33,
                "velocity": 127,
                "duration": 0.16136363636363704,
                "tempo": 120.0
            },
            {
                "start_time": 10.029545454545454,
                "end_time": 10.186363636363636,
                "pitch": 31,
                "velocity": 127,
                "duration": 0.1568181818181813,
                "tempo": 120.0
            },
            {
                "start_time": 10.186363636363636,
                "end_time": 10.345454545454546,
                "pitch": 31,
                "velocity": 127,
                "duration": 0.15909090909091006,
                "tempo": 120.0
            },
            {
                "start_time": 10.345454545454546,
                "end_time": 10.827272727272726,
                "pitch": 36,
                "velocity": 127,
                "duration": 0.4818181818181806,
                "tempo": 120.0
            },
            {
                "start_time": 10.827272727272726,
                "end_time": 10.988636363636363,
                "pitch": 36,
                "velocity": 127,
                "duration": 0.16136363636363704,
                "tempo": 120.0
            },
            {
                "start_time": 12.595454545454546,
                "end_time": 12.756818181818181,
                "pitch": 36,
                "velocity": 127,
                "duration": 0.16136363636363527,
                "tempo": 120.0
            },
            {
                "start_time": 12.756818181818181,
                "end_time": 12.918181818181818,
                "pitch": 36,
                "velocity": 127,
                "duration": 0.16136363636363704,
                "tempo": 120.0
            },
            {
                "start_time": 12.918181818181818,
                "end_time": 13.399999999999999,
                "pitch": 35,
                "velocity": 127,
                "duration": 0.4818181818181806,
                "tempo": 120.0
            },
            {
                "start_time": 13.399999999999999,
                "end_time": 13.561363636363636,
                "pitch": 35,
                "velocity": 127,
                "duration": 0.16136363636363704,
                "tempo": 120.0
            },
            {
                "start_time": 15.154545454545454,
                "end_time": 15.31590909090909,
                "pitch": 31,
                "velocity": 127,
                "duration": 0.16136363636363527,
                "tempo": 120.0
            },
            {
                "start_time": 15.31590909090909,
                "end_time": 15.477272727272727,
                "pitch": 31,
                "velocity": 127,
                "duration": 0.16136363636363704,
                "tempo": 120.0
            },
            {
                "start_time": 15.477272727272727,
                "end_time": 15.959090909090909,
                "pitch": 33,
                "velocity": 127,
                "duration": 0.48181818181818237,
                "tempo": 120.0
            },
            {
                "start_time": 15.477272727272727,
                "end_time": 15.959090909090909,
                "pitch": 33,
                "velocity": 127,
                "duration": 0.48181818181818237,
                "tempo": 120.0
            },
            {
                "start_time": 15.959090909090909,
                "end_time": 16.120454545454546,
                "pitch": 33,
                "velocity": 127,
                "duration": 0.16136363636363704,
                "tempo": 120.0
            },
            {
                "start_time": 17.71363636363636,
                "end_time": 17.875,
                "pitch": 31,
                "velocity": 127,
                "duration": 0.16136363636363882,
                "tempo": 120.0
            },
            {
                "start_time": 17.875,
                "end_time": 18.036363636363635,
                "pitch": 31,
                "velocity": 127,
                "duration": 0.16136363636363527,
                "tempo": 120.0
            },
            {
                "start_time": 18.036363636363635,
                "end_time": 18.35681818181818,
                "pitch": 33,
                "velocity": 127,
                "duration": 0.3204545454545453,
                "tempo": 120.0
            },
            {
                "start_time": 18.036363636363635,
                "end_time": 18.35681818181818,
                "pitch": 33,
                "velocity": 127,
                "duration": 0.3204545454545453,
                "tempo": 120.0
            },
            {
                "start_time": 18.35681818181818,
                "end_time": 18.518181818181816,
                "pitch": 21,
                "velocity": 127,
                "duration": 0.16136363636363527,
                "tempo": 120.0
            },
            {
                "start_time": 18.518181818181816,
                "end_time": 18.679545454545455,
                "pitch": 33,
                "velocity": 127,
                "duration": 0.16136363636363882,
                "tempo": 120.0
            },
            {
                "start_time": 19.0,
                "end_time": 19.161363636363635,
                "pitch": 21,
                "velocity": 127,
                "duration": 0.16136363636363527,
                "tempo": 120.0
            },
            {
                "start_time": 20.279545454545453,
                "end_time": 20.438636363636363,
                "pitch": 31,
                "velocity": 127,
                "duration": 0.15909090909091006,
                "tempo": 120.0
            },
            {
                "start_time": 20.438636363636363,
                "end_time": 20.595454545454544,
                "pitch": 31,
                "velocity": 127,
                "duration": 0.1568181818181813,
                "tempo": 120.0
            },
            {
                "start_time": 20.595454545454544,
                "end_time": 21.077272727272724,
                "pitch": 33,
                "velocity": 127,
                "duration": 0.4818181818181806,
                "tempo": 120.0
            },
            {
                "start_time": 20.595454545454544,
                "end_time": 21.077272727272724,
                "pitch": 33,
                "velocity": 127,
                "duration": 0.4818181818181806,
                "tempo": 120.0
            },
            {
                "start_time": 21.077272727272724,
                "end_time": 21.238636363636363,
                "pitch": 33,
                "velocity": 127,
                "duration": 0.16136363636363882,
                "tempo": 120.0
            },
            {
                "start_time": 22.83863636363636,
                "end_time": 22.99772727272727,
                "pitch": 31,
                "velocity": 127,
                "duration": 0.15909090909091006,
                "tempo": 120.0
            },
            {
                "start_time": 22.99772727272727,
                "end_time": 23.154545454545453,
                "pitch": 31,
                "velocity": 127,
                "duration": 0.1568181818181813,
                "tempo": 120.0
            },
            {
                "start_time": 23.154545454545453,
                "end_time": 23.636363636363637,
                "pitch": 33,
                "velocity": 127,
                "duration": 0.48181818181818414,
                "tempo": 120.0
            },
            {
                "start_time": 23.154545454545453,
                "end_time": 23.636363636363637,
                "pitch": 33,
                "velocity": 127,
                "duration": 0.48181818181818414,
                "tempo": 120.0
            },
            {
                "start_time": 23.636363636363637,
                "end_time": 23.797727272727272,
                "pitch": 33,
                "velocity": 127,
                "duration": 0.16136363636363527,
                "tempo": 120.0
            },
            {
                "start_time": 25.404545454545453,
                "end_time": 25.56590909090909,
                "pitch": 31,
                "velocity": 127,
                "duration": 0.16136363636363882,
                "tempo": 120.0
            },
            {
                "start_time": 25.56590909090909,
                "end_time": 25.727272727272727,
                "pitch": 31,
                "velocity": 127,
                "duration": 0.16136363636363527,
                "tempo": 120.0
            },
            {
                "start_time": 25.727272727272727,
                "end_time": 26.209090909090907,
                "pitch": 33,
                "velocity": 127,
                "duration": 0.4818181818181806,
                "tempo": 120.0
            },
            {
                "start_time": 26.209090909090907,
                "end_time": 26.370454545454542,
                "pitch": 33,
                "velocity": 127,
                "duration": 0.16136363636363527,
                "tempo": 120.0
            },
            {
                "start_time": 27.96590909090909,
                "end_time": 28.125,
                "pitch": 31,
                "velocity": 127,
                "duration": 0.15909090909091006,
                "tempo": 120.0
            },
            {
                "start_time": 28.125,
                "end_time": 28.286363636363635,
                "pitch": 31,
                "velocity": 127,
                "duration": 0.16136363636363527,
                "tempo": 120.0
            },
            {
                "start_time": 28.286363636363635,
                "end_time": 28.768181818181816,
                "pitch": 33,
                "velocity": 127,
                "duration": 0.4818181818181806,
                "tempo": 120.0
            },
            {
                "start_time": 28.286363636363635,
                "end_time": 28.768181818181816,
                "pitch": 33,
                "velocity": 127,
                "duration": 0.4818181818181806,
                "tempo": 120.0
            },
            {
                "start_time": 28.768181818181816,
                "end_time": 28.929545454545455,
                "pitch": 33,
                "velocity": 127,
                "duration": 0.16136363636363882,
                "tempo": 120.0
            },
            {
                "start_time": 30.525,
                "end_time": 30.68409090909091,
                "pitch": 31,
                "velocity": 127,
                "duration": 0.15909090909091006,
                "tempo": 120.0
            },
            {
                "start_time": 30.68409090909091,
                "end_time": 30.845454545454544,
                "pitch": 31,
                "velocity": 127,
                "duration": 0.16136363636363527,
                "tempo": 120.0
            },
            {
                "start_time": 10.345454545454546,
                "end_time": 30.845454545454544,
                "pitch": 40,
                "velocity": 127,
                "duration": 20.5,
                "tempo": 120.0
            },
            {
                "start_time": 30.845454545454544,
                "end_time": 31.327272727272724,
                "pitch": 36,
                "velocity": 127,
                "duration": 0.4818181818181806,
                "tempo": 120.0
            },
            {
                "start_time": 31.327272727272724,
                "end_time": 31.488636363636363,
                "pitch": 36,
                "velocity": 127,
                "duration": 0.16136363636363882,
                "tempo": 120.0
            },
            {
                "start_time": 33.08409090909091,
                "end_time": 33.24318181818182,
                "pitch": 36,
                "velocity": 127,
                "duration": 0.1590909090909065,
                "tempo": 120.0
            },
            {
                "start_time": 12.918181818181818,
                "end_time": 33.404545454545456,
                "pitch": 20,
                "velocity": 127,
                "duration": 20.486363636363638,
                "tempo": 120.0
            },
            {
                "start_time": 33.24318181818182,
                "end_time": 33.404545454545456,
                "pitch": 36,
                "velocity": 127,
                "duration": 0.16136363636363882,
                "tempo": 120.0
            },
            {
                "start_time": 33.404545454545456,
                "end_time": 33.88636363636363,
                "pitch": 35,
                "velocity": 127,
                "duration": 0.48181818181817704,
                "tempo": 120.0
            },
            {
                "start_time": 33.88636363636363,
                "end_time": 34.04772727272727,
                "pitch": 35,
                "velocity": 127,
                "duration": 0.16136363636363882,
                "tempo": 120.0
            },
            {
                "start_time": 35.65,
                "end_time": 35.80681818181818,
                "pitch": 31,
                "velocity": 127,
                "duration": 0.1568181818181813,
                "tempo": 120.0
            },
            {
                "start_time": 35.80681818181818,
                "end_time": 35.96363636363636,
                "pitch": 31,
                "velocity": 127,
                "duration": 0.1568181818181813,
                "tempo": 120.0
            },
            {
                "start_time": 35.96363636363636,
                "end_time": 36.445454545454545,
                "pitch": 33,
                "velocity": 127,
                "duration": 0.48181818181818414,
                "tempo": 120.0
            },
            {
                "start_time": 35.96363636363636,
                "end_time": 36.445454545454545,
                "pitch": 33,
                "velocity": 127,
                "duration": 0.48181818181818414,
                "tempo": 120.0
            },
            {
                "start_time": 36.445454545454545,
                "end_time": 36.60681818181818,
                "pitch": 33,
                "velocity": 127,
                "duration": 0.1613636363636317,
                "tempo": 120.0
            },
            {
                "start_time": 38.215909090909086,
                "end_time": 38.377272727272725,
                "pitch": 31,
                "velocity": 127,
                "duration": 0.16136363636363882,
                "tempo": 120.0
            },
            {
                "start_time": 38.377272727272725,
                "end_time": 38.53636363636363,
                "pitch": 31,
                "velocity": 127,
                "duration": 0.1590909090909065,
                "tempo": 120.0
            },
            {
                "start_time": 38.53636363636363,
                "end_time": 38.85909090909091,
                "pitch": 33,
                "velocity": 127,
                "duration": 0.32272727272727764,
                "tempo": 120.0
            },
            {
                "start_time": 38.53636363636363,
                "end_time": 38.85909090909091,
                "pitch": 33,
                "velocity": 127,
                "duration": 0.32272727272727764,
                "tempo": 120.0
            },
            {
                "start_time": 38.85909090909091,
                "end_time": 39.02045454545454,
                "pitch": 21,
                "velocity": 127,
                "duration": 0.1613636363636317,
                "tempo": 120.0
            },
            {
                "start_time": 39.02045454545454,
                "end_time": 39.179545454545455,
                "pitch": 33,
                "velocity": 127,
                "duration": 0.1590909090909136,
                "tempo": 120.0
            },
            {
                "start_time": 39.502272727272725,
                "end_time": 39.663636363636364,
                "pitch": 21,
                "velocity": 127,
                "duration": 0.16136363636363882,
                "tempo": 120.0
            },
            {
                "start_time": 40.775,
                "end_time": 40.93636363636364,
                "pitch": 31,
                "velocity": 127,
                "duration": 0.16136363636363882,
                "tempo": 120.0
            },
            {
                "start_time": 40.93636363636364,
                "end_time": 41.095454545454544,
                "pitch": 31,
                "velocity": 127,
                "duration": 0.1590909090909065,
                "tempo": 120.0
            },
            {
                "start_time": 41.095454545454544,
                "end_time": 41.57954545454545,
                "pitch": 29,
                "velocity": 127,
                "duration": 0.48409090909090935,
                "tempo": 120.0
            },
            {
                "start_time": 41.57954545454545,
                "end_time": 41.73863636363636,
                "pitch": 29,
                "velocity": 127,
                "duration": 0.1590909090909065,
                "tempo": 120.0
            },
            {
                "start_time": 43.334090909090904,
                "end_time": 43.49545454545454,
                "pitch": 29,
                "velocity": 127,
                "duration": 0.16136363636363882,
                "tempo": 120.0
            },
            {
                "start_time": 43.49545454545454,
                "end_time": 43.65454545454545,
                "pitch": 29,
                "velocity": 127,
                "duration": 0.1590909090909065,
                "tempo": 120.0
            },
            {
                "start_time": 43.65454545454545,
                "end_time": 44.13863636363636,
                "pitch": 31,
                "velocity": 127,
                "duration": 0.48409090909090935,
                "tempo": 120.0
            },
            {
                "start_time": 44.13863636363636,
                "end_time": 44.3,
                "pitch": 31,
                "velocity": 127,
                "duration": 0.16136363636363882,
                "tempo": 120.0
            },
            {
                "start_time": 45.893181818181816,
                "end_time": 46.054545454545455,
                "pitch": 31,
                "velocity": 127,
                "duration": 0.16136363636363882,
                "tempo": 120.0
            },
            {
                "start_time": 46.054545454545455,
                "end_time": 46.21363636363636,
                "pitch": 31,
                "velocity": 127,
                "duration": 0.1590909090909065,
                "tempo": 120.0
            },
            {
                "start_time": 46.21363636363636,
                "end_time": 46.69772727272727,
                "pitch": 33,
                "velocity": 127,
                "duration": 0.48409090909090935,
                "tempo": 120.0
            },
            {
                "start_time": 46.21363636363636,
                "end_time": 46.69772727272727,
                "pitch": 33,
                "velocity": 127,
                "duration": 0.48409090909090935,
                "tempo": 120.0
            },
            {
                "start_time": 46.69772727272727,
                "end_time": 46.85909090909091,
                "pitch": 33,
                "velocity": 127,
                "duration": 0.16136363636363882,
                "tempo": 120.0
            },
            {
                "start_time": 48.459090909090904,
                "end_time": 48.61590909090909,
                "pitch": 31,
                "velocity": 127,
                "duration": 0.1568181818181884,
                "tempo": 120.0
            },
            {
                "start_time": 48.61590909090909,
                "end_time": 48.77272727272727,
                "pitch": 31,
                "velocity": 127,
                "duration": 0.1568181818181813,
                "tempo": 120.0
            },
            {
                "start_time": 48.77272727272727,
                "end_time": 48.775,
                "pitch": 33,
                "velocity": 127,
                "duration": 0.0022727272727252057,
                "tempo": 120.0
            },
            {
                "start_time": 48.775,
                "end_time": 49.25681818181818,
                "pitch": 33,
                "velocity": 127,
                "duration": 0.48181818181818414,
                "tempo": 120.0
            },
            {
                "start_time": 49.25681818181818,
                "end_time": 49.418181818181814,
                "pitch": 33,
                "velocity": 127,
                "duration": 0.1613636363636317,
                "tempo": 120.0
            },
            {
                "start_time": 49.73863636363636,
                "end_time": 49.9,
                "pitch": 45,
                "velocity": 127,
                "duration": 0.16136363636363882,
                "tempo": 120.0
            },
            {
                "start_time": 50.220454545454544,
                "end_time": 50.38181818181818,
                "pitch": 33,
                "velocity": 127,
                "duration": 0.16136363636363882,
                "tempo": 120.0
            },
            {
                "start_time": 51.025,
                "end_time": 51.18636363636364,
                "pitch": 31,
                "velocity": 127,
                "duration": 0.16136363636363882,
                "tempo": 120.0
            },
            {
                "start_time": 51.18636363636364,
                "end_time": 51.34772727272727,
                "pitch": 31,
                "velocity": 127,
                "duration": 0.1613636363636317,
                "tempo": 120.0
            },
            {
                "start_time": 51.34772727272727,
                "end_time": 51.82954545454545,
                "pitch": 29,
                "velocity": 127,
                "duration": 0.48181818181818414,
                "tempo": 120.0
            },
            {
                "start_time": 51.82954545454545,
                "end_time": 51.990909090909085,
                "pitch": 29,
                "velocity": 127,
                "duration": 0.1613636363636317,
                "tempo": 120.0
            },
            {
                "start_time": 53.584090909090904,
                "end_time": 53.74545454545454,
                "pitch": 29,
                "velocity": 127,
                "duration": 0.16136363636363882,
                "tempo": 120.0
            },
            {
                "start_time": 53.74545454545454,
                "end_time": 53.90681818181818,
                "pitch": 29,
                "velocity": 127,
                "duration": 0.16136363636363882,
                "tempo": 120.0
            },
            {
                "start_time": 53.90681818181818,
                "end_time": 54.38863636363636,
                "pitch": 31,
                "velocity": 127,
                "duration": 0.48181818181817704,
                "tempo": 120.0
            },
            {
                "start_time": 54.38863636363636,
                "end_time": 54.55,
                "pitch": 31,
                "velocity": 127,
                "duration": 0.16136363636363882,
                "tempo": 120.0
            },
            {
                "start_time": 56.143181818181816,
                "end_time": 56.304545454545455,
                "pitch": 31,
                "velocity": 127,
                "duration": 0.16136363636363882,
                "tempo": 120.0
            },
            {
                "start_time": 56.304545454545455,
                "end_time": 56.465909090909086,
                "pitch": 31,
                "velocity": 127,
                "duration": 0.1613636363636317,
                "tempo": 120.0
            },
            {
                "start_time": 30.845454545454544,
                "end_time": 56.465909090909086,
                "pitch": 40,
                "velocity": 127,
                "duration": 25.620454545454542,
                "tempo": 120.0
            },
            {
                "start_time": 56.465909090909086,
                "end_time": 56.94772727272727,
                "pitch": 36,
                "velocity": 127,
                "duration": 0.48181818181818414,
                "tempo": 120.0
            },
            {
                "start_time": 56.94772727272727,
                "end_time": 57.10909090909091,
                "pitch": 36,
                "velocity": 127,
                "duration": 0.16136363636363882,
                "tempo": 120.0
            },
            {
                "start_time": 58.70227272727272,
                "end_time": 58.86363636363636,
                "pitch": 36,
                "velocity": 127,
                "duration": 0.16136363636363882,
                "tempo": 120.0
            },
            {
                "start_time": 58.86363636363636,
                "end_time": 59.025,
                "pitch": 36,
                "velocity": 127,
                "duration": 0.16136363636363882,
                "tempo": 120.0
            },
            {
                "start_time": 59.025,
                "end_time": 59.345454545454544,
                "pitch": 32,
                "velocity": 127,
                "duration": 0.3204545454545453,
                "tempo": 120.0
            },
            {
                "start_time": 33.404545454545456,
                "end_time": 59.506818181818176,
                "pitch": 20,
                "velocity": 127,
                "duration": 26.10227272727272,
                "tempo": 120.0
            },
            {
                "start_time": 59.345454545454544,
                "end_time": 59.506818181818176,
                "pitch": 20,
                "velocity": 127,
                "duration": 0.1613636363636317,
                "tempo": 120.0
            },
            {
                "start_time": 59.506818181818176,
                "end_time": 59.668181818181814,
                "pitch": 32,
                "velocity": 127,
                "duration": 0.16136363636363882,
                "tempo": 120.0
            },
            {
                "start_time": 59.98863636363636,
                "end_time": 60.15,
                "pitch": 20,
                "velocity": 127,
                "duration": 0.16136363636363882,
                "tempo": 120.0
            },
            {
                "start_time": 61.268181818181816,
                "end_time": 61.42727272727272,
                "pitch": 32,
                "velocity": 127,
                "duration": 0.1590909090909065,
                "tempo": 120.0
            },
            {
                "start_time": 61.42727272727272,
                "end_time": 61.584090909090904,
                "pitch": 32,
                "velocity": 127,
                "duration": 0.1568181818181813,
                "tempo": 120.0
            },
            {
                "start_time": 61.584090909090904,
                "end_time": 62.06590909090909,
                "pitch": 35,
                "velocity": 127,
                "duration": 0.48181818181818414,
                "tempo": 120.0
            },
            {
                "start_time": 62.06590909090909,
                "end_time": 62.22727272727273,
                "pitch": 35,
                "velocity": 127,
                "duration": 0.16136363636363882,
                "tempo": 120.0
            },
            {
                "start_time": 63.82727272727272,
                "end_time": 63.986363636363635,
                "pitch": 33,
                "velocity": 127,
                "duration": 0.1590909090909136,
                "tempo": 120.0
            },
            {
                "start_time": 63.986363636363635,
                "end_time": 64.14318181818182,
                "pitch": 33,
                "velocity": 127,
                "duration": 0.1568181818181813,
                "tempo": 120.0
            },
            {
                "start_time": 64.14318181818182,
                "end_time": 64.625,
                "pitch": 35,
                "velocity": 127,
                "duration": 0.48181818181818414,
                "tempo": 120.0
            },
            {
                "start_time": 64.14318181818182,
                "end_time": 64.625,
                "pitch": 35,
                "velocity": 127,
                "duration": 0.48181818181818414,
                "tempo": 120.0
            },
            {
                "start_time": 64.625,
                "end_time": 64.78636363636363,
                "pitch": 35,
                "velocity": 127,
                "duration": 0.1613636363636317,
                "tempo": 120.0
            },
            {
                "start_time": 66.39545454545454,
                "end_time": 66.55454545454545,
                "pitch": 33,
                "velocity": 127,
                "duration": 0.1590909090909065,
                "tempo": 120.0
            },
            {
                "start_time": 66.55454545454545,
                "end_time": 66.7159090909091,
                "pitch": 33,
                "velocity": 127,
                "duration": 0.16136363636364592,
                "tempo": 120.0
            },
            {
                "start_time": 66.7159090909091,
                "end_time": 67.19772727272726,
                "pitch": 35,
                "velocity": 127,
                "duration": 0.48181818181816993,
                "tempo": 120.0
            },
            {
                "start_time": 66.7159090909091,
                "end_time": 67.19772727272726,
                "pitch": 35,
                "velocity": 127,
                "duration": 0.48181818181816993,
                "tempo": 120.0
            },
            {
                "start_time": 67.19772727272726,
                "end_time": 67.35909090909091,
                "pitch": 35,
                "velocity": 127,
                "duration": 0.16136363636364592,
                "tempo": 120.0
            },
            {
                "start_time": 68.95454545454545,
                "end_time": 69.11363636363636,
                "pitch": 33,
                "velocity": 127,
                "duration": 0.1590909090909065,
                "tempo": 120.0
            },
            {
                "start_time": 69.11363636363636,
                "end_time": 69.27499999999999,
                "pitch": 33,
                "velocity": 127,
                "duration": 0.1613636363636317,
                "tempo": 120.0
            },
            {
                "start_time": 69.27499999999999,
                "end_time": 69.75681818181818,
                "pitch": 35,
                "velocity": 127,
                "duration": 0.48181818181818414,
                "tempo": 120.0
            },
            {
                "start_time": 69.27499999999999,
                "end_time": 69.75681818181818,
                "pitch": 35,
                "velocity": 127,
                "duration": 0.48181818181818414,
                "tempo": 120.0
            },
            {
                "start_time": 69.75681818181818,
                "end_time": 69.91818181818182,
                "pitch": 35,
                "velocity": 127,
                "duration": 0.16136363636364592,
                "tempo": 120.0
            },
            {
                "start_time": 71.51363636363637,
                "end_time": 71.67272727272727,
                "pitch": 33,
                "velocity": 127,
                "duration": 0.1590909090909065,
                "tempo": 120.0
            },
            {
                "start_time": 71.67272727272727,
                "end_time": 71.8340909090909,
                "pitch": 33,
                "velocity": 127,
                "duration": 0.1613636363636317,
                "tempo": 120.0
            },
            {
                "start_time": 71.8340909090909,
                "end_time": 72.31590909090909,
                "pitch": 38,
                "velocity": 127,
                "duration": 0.48181818181818414,
                "tempo": 120.0
            },
            {
                "start_time": 72.31590909090909,
                "end_time": 72.47727272727272,
                "pitch": 38,
                "velocity": 127,
                "duration": 0.1613636363636317,
                "tempo": 120.0
            },
            {
                "start_time": 74.07272727272726,
                "end_time": 74.23181818181818,
                "pitch": 38,
                "velocity": 127,
                "duration": 0.15909090909092072,
                "tempo": 120.0
            },
            {
                "start_time": 74.23181818181818,
                "end_time": 74.39318181818182,
                "pitch": 38,
                "velocity": 127,
                "duration": 0.1613636363636317,
                "tempo": 120.0
            },
            {
                "start_time": 74.39318181818182,
                "end_time": 74.875,
                "pitch": 37,
                "velocity": 127,
                "duration": 0.48181818181818414,
                "tempo": 120.0
            },
            {
                "start_time": 74.875,
                "end_time": 75.03636363636363,
                "pitch": 37,
                "velocity": 127,
                "duration": 0.1613636363636317,
                "tempo": 120.0
            },
            {
                "start_time": 76.63863636363637,
                "end_time": 76.79545454545455,
                "pitch": 33,
                "velocity": 127,
                "duration": 0.1568181818181813,
                "tempo": 120.0
            },
            {
                "start_time": 76.79545454545455,
                "end_time": 76.95227272727273,
                "pitch": 33,
                "velocity": 127,
                "duration": 0.1568181818181813,
                "tempo": 120.0
            },
            {
                "start_time": 76.95227272727273,
                "end_time": 77.43409090909091,
                "pitch": 35,
                "velocity": 127,
                "duration": 0.48181818181818414,
                "tempo": 120.0
            },
            {
                "start_time": 77.43409090909091,
                "end_time": 77.59545454545454,
                "pitch": 35,
                "velocity": 127,
                "duration": 0.1613636363636317,
                "tempo": 120.0
            },
            {
                "start_time": 79.20454545454545,
                "end_time": 79.36590909090908,
                "pitch": 33,
                "velocity": 127,
                "duration": 0.1613636363636317,
                "tempo": 120.0
            },
            {
                "start_time": 79.36590909090908,
                "end_time": 79.52499999999999,
                "pitch": 33,
                "velocity": 127,
                "duration": 0.1590909090909065,
                "tempo": 120.0
            },
            {
                "start_time": 79.52499999999999,
                "end_time": 79.84772727272727,
                "pitch": 35,
                "velocity": 127,
                "duration": 0.32272727272727764,
                "tempo": 120.0
            },
            {
                "start_time": 79.52499999999999,
                "end_time": 79.84772727272727,
                "pitch": 35,
                "velocity": 127,
                "duration": 0.32272727272727764,
                "tempo": 120.0
            },
            {
                "start_time": 79.84772727272727,
                "end_time": 80.0090909090909,
                "pitch": 23,
                "velocity": 127,
                "duration": 0.1613636363636317,
                "tempo": 120.0
            },
            {
                "start_time": 80.0090909090909,
                "end_time": 80.16818181818181,
                "pitch": 35,
                "velocity": 127,
                "duration": 0.1590909090909065,
                "tempo": 120.0
            },
            {
                "start_time": 80.49090909090908,
                "end_time": 80.65227272727272,
                "pitch": 23,
                "velocity": 127,
                "duration": 0.1613636363636317,
                "tempo": 120.0
            },
            {
                "start_time": 81.76363636363637,
                "end_time": 81.925,
                "pitch": 33,
                "velocity": 127,
                "duration": 0.1613636363636317,
                "tempo": 120.0
            },
            {
                "start_time": 81.925,
                "end_time": 82.0840909090909,
                "pitch": 33,
                "velocity": 127,
                "duration": 0.1590909090909065,
                "tempo": 120.0
            },
            {
                "start_time": 82.0840909090909,
                "end_time": 82.56818181818181,
                "pitch": 31,
                "velocity": 127,
                "duration": 0.48409090909090935,
                "tempo": 120.0
            },
            {
                "start_time": 82.0840909090909,
                "end_time": 82.56818181818181,
                "pitch": 31,
                "velocity": 127,
                "duration": 0.48409090909090935,
                "tempo": 120.0
            },
            {
                "start_time": 82.56818181818181,
                "end_time": 82.72727272727272,
                "pitch": 31,
                "velocity": 127,
                "duration": 0.1590909090909065,
                "tempo": 120.0
            },
            {
                "start_time": 84.32272727272726,
                "end_time": 84.48409090909091,
                "pitch": 31,
                "velocity": 127,
                "duration": 0.16136363636364592,
                "tempo": 120.0
            },
            {
                "start_time": 84.48409090909091,
                "end_time": 84.64318181818182,
                "pitch": 31,
                "velocity": 127,
                "duration": 0.1590909090909065,
                "tempo": 120.0
            },
            {
                "start_time": 84.64318181818182,
                "end_time": 85.12727272727273,
                "pitch": 33,
                "velocity": 127,
                "duration": 0.48409090909090935,
                "tempo": 120.0
            },
            {
                "start_time": 84.64318181818182,
                "end_time": 85.12727272727273,
                "pitch": 33,
                "velocity": 127,
                "duration": 0.48409090909090935,
                "tempo": 120.0
            },
            {
                "start_time": 85.12727272727273,
                "end_time": 85.28863636363636,
                "pitch": 33,
                "velocity": 127,
                "duration": 0.1613636363636317,
                "tempo": 120.0
            },
            {
                "start_time": 86.88863636363637,
                "end_time": 87.04545454545455,
                "pitch": 33,
                "velocity": 127,
                "duration": 0.1568181818181813,
                "tempo": 120.0
            },
            {
                "start_time": 87.04545454545455,
                "end_time": 87.20227272727273,
                "pitch": 33,
                "velocity": 127,
                "duration": 0.1568181818181813,
                "tempo": 120.0
            },
            {
                "start_time": 87.20227272727273,
                "end_time": 87.68636363636364,
                "pitch": 35,
                "velocity": 127,
                "duration": 0.48409090909090935,
                "tempo": 120.0
            },
            {
                "start_time": 87.20227272727273,
                "end_time": 87.68636363636364,
                "pitch": 35,
                "velocity": 127,
                "duration": 0.48409090909090935,
                "tempo": 120.0
            },
            {
                "start_time": 87.68636363636364,
                "end_time": 87.84772727272727,
                "pitch": 35,
                "velocity": 127,
                "duration": 0.1613636363636317,
                "tempo": 120.0
            },
            {
                "start_time": 89.44772727272726,
                "end_time": 89.60454545454544,
                "pitch": 33,
                "velocity": 127,
                "duration": 0.1568181818181813,
                "tempo": 120.0
            },
            {
                "start_time": 89.60454545454544,
                "end_time": 89.76363636363637,
                "pitch": 33,
                "velocity": 127,
                "duration": 0.15909090909092072,
                "tempo": 120.0
            },
            {
                "start_time": 89.76363636363637,
                "end_time": 90.24545454545454,
                "pitch": 35,
                "velocity": 127,
                "duration": 0.48181818181816993,
                "tempo": 120.0
            },
            {
                "start_time": 90.24545454545454,
                "end_time": 90.40681818181818,
                "pitch": 35,
                "velocity": 127,
                "duration": 0.16136363636364592,
                "tempo": 120.0
            },
            {
                "start_time": 90.72727272727272,
                "end_time": 90.88863636363637,
                "pitch": 47,
                "velocity": 127,
                "duration": 0.16136363636364592,
                "tempo": 120.0
            },
            {
                "start_time": 91.2090909090909,
                "end_time": 91.37045454545454,
                "pitch": 35,
                "velocity": 127,
                "duration": 0.1613636363636317,
                "tempo": 120.0
            },
            {
                "start_time": 92.01363636363637,
                "end_time": 92.175,
                "pitch": 33,
                "velocity": 127,
                "duration": 0.1613636363636317,
                "tempo": 120.0
            },
            {
                "start_time": 92.175,
                "end_time": 92.33636363636363,
                "pitch": 33,
                "velocity": 127,
                "duration": 0.1613636363636317,
                "tempo": 120.0
            },
            {
                "start_time": 92.33636363636363,
                "end_time": 92.81818181818181,
                "pitch": 31,
                "velocity": 127,
                "duration": 0.48181818181818414,
                "tempo": 120.0
            },
            {
                "start_time": 92.33636363636363,
                "end_time": 92.81818181818181,
                "pitch": 31,
                "velocity": 127,
                "duration": 0.48181818181818414,
                "tempo": 120.0
            },
            {
                "start_time": 92.81818181818181,
                "end_time": 92.97954545454544,
                "pitch": 31,
                "velocity": 127,
                "duration": 0.1613636363636317,
                "tempo": 120.0
            },
            {
                "start_time": 94.57272727272726,
                "end_time": 94.73409090909091,
                "pitch": 31,
                "velocity": 127,
                "duration": 0.16136363636364592,
                "tempo": 120.0
            },
            {
                "start_time": 94.73409090909091,
                "end_time": 94.89545454545454,
                "pitch": 31,
                "velocity": 127,
                "duration": 0.1613636363636317,
                "tempo": 120.0
            },
            {
                "start_time": 94.89545454545454,
                "end_time": 95.37727272727273,
                "pitch": 33,
                "velocity": 127,
                "duration": 0.48181818181818414,
                "tempo": 120.0
            },
            {
                "start_time": 94.89545454545454,
                "end_time": 95.37727272727273,
                "pitch": 33,
                "velocity": 127,
                "duration": 0.48181818181818414,
                "tempo": 120.0
            },
            {
                "start_time": 95.37727272727273,
                "end_time": 95.53863636363636,
                "pitch": 33,
                "velocity": 127,
                "duration": 0.1613636363636317,
                "tempo": 120.0
            },
            {
                "start_time": 97.13181818181818,
                "end_time": 97.29318181818181,
                "pitch": 33,
                "velocity": 127,
                "duration": 0.1613636363636317,
                "tempo": 120.0
            },
            {
                "start_time": 97.29318181818181,
                "end_time": 97.45454545454545,
                "pitch": 33,
                "velocity": 127,
                "duration": 0.16136363636364592,
                "tempo": 120.0
            },
            {
                "start_time": 97.45454545454545,
                "end_time": 97.93636363636364,
                "pitch": 35,
                "velocity": 127,
                "duration": 0.48181818181818414,
                "tempo": 120.0
            },
            {
                "start_time": 97.93636363636364,
                "end_time": 98.09772727272727,
                "pitch": 35,
                "velocity": 127,
                "duration": 0.1613636363636317,
                "tempo": 120.0
            },
            {
                "start_time": 99.69090909090909,
                "end_time": 99.85227272727272,
                "pitch": 35,
                "velocity": 127,
                "duration": 0.1613636363636317,
                "tempo": 120.0
            },
            {
                "start_time": 99.85227272727272,
                "end_time": 100.01363636363637,
                "pitch": 35,
                "velocity": 127,
                "duration": 0.16136363636364592,
                "tempo": 120.0
            },
            {
                "start_time": 100.01363636363637,
                "end_time": 100.3340909090909,
                "pitch": 35,
                "velocity": 127,
                "duration": 0.3204545454545382,
                "tempo": 120.0
            },
            {
                "start_time": 100.3340909090909,
                "end_time": 100.49545454545454,
                "pitch": 23,
                "velocity": 127,
                "duration": 0.1613636363636317,
                "tempo": 120.0
            },
            {
                "start_time": 100.49545454545454,
                "end_time": 100.65681818181818,
                "pitch": 35,
                "velocity": 127,
                "duration": 0.16136363636364592,
                "tempo": 120.0
            },
            {
                "start_time": 100.97727272727272,
                "end_time": 101.13863636363637,
                "pitch": 23,
                "velocity": 127,
                "duration": 0.16136363636364592,
                "tempo": 120.0
            },
            {
                "start_time": 102.25681818181818,
                "end_time": 102.41590909090908,
                "pitch": 35,
                "velocity": 127,
                "duration": 0.1590909090909065,
                "tempo": 120.0
            },
            {
                "start_time": 102.41590909090908,
                "end_time": 102.57272727272726,
                "pitch": 35,
                "velocity": 127,
                "duration": 0.1568181818181813,
                "tempo": 120.0
            },
            {
                "start_time": 102.57272727272726,
                "end_time": 103.05454545454545,
                "pitch": 35,
                "velocity": 127,
                "duration": 0.48181818181818414,
                "tempo": 120.0
            },
            {
                "start_time": 103.05454545454545,
                "end_time": 103.21590909090908,
                "pitch": 35,
                "velocity": 127,
                "duration": 0.1613636363636317,
                "tempo": 120.0
            },
            {
                "start_time": 104.81818181818181,
                "end_time": 104.975,
                "pitch": 33,
                "velocity": 127,
                "duration": 0.1568181818181813,
                "tempo": 120.0
            },
            {
                "start_time": 104.975,
                "end_time": 105.13181818181818,
                "pitch": 33,
                "velocity": 127,
                "duration": 0.1568181818181813,
                "tempo": 120.0
            },
            {
                "start_time": 105.13181818181818,
                "end_time": 105.61363636363636,
                "pitch": 31,
                "velocity": 127,
                "duration": 0.48181818181818414,
                "tempo": 120.0
            },
            {
                "start_time": 105.13181818181818,
                "end_time": 105.61363636363636,
                "pitch": 31,
                "velocity": 127,
                "duration": 0.48181818181818414,
                "tempo": 120.0
            },
            {
                "start_time": 105.61363636363636,
                "end_time": 105.77499999999999,
                "pitch": 31,
                "velocity": 127,
                "duration": 0.1613636363636317,
                "tempo": 120.0
            },
            {
                "start_time": 107.3840909090909,
                "end_time": 107.54318181818181,
                "pitch": 31,
                "velocity": 127,
                "duration": 0.1590909090909065,
                "tempo": 120.0
            },
            {
                "start_time": 107.54318181818181,
                "end_time": 107.70454545454545,
                "pitch": 31,
                "velocity": 127,
                "duration": 0.16136363636364592,
                "tempo": 120.0
            },
            {
                "start_time": 107.70454545454545,
                "end_time": 108.18636363636364,
                "pitch": 33,
                "velocity": 127,
                "duration": 0.48181818181818414,
                "tempo": 120.0
            },
            {
                "start_time": 108.18636363636364,
                "end_time": 108.34772727272727,
                "pitch": 33,
                "velocity": 127,
                "duration": 0.1613636363636317,
                "tempo": 120.0
            },
            {
                "start_time": 109.94318181818181,
                "end_time": 110.10227272727272,
                "pitch": 33,
                "velocity": 127,
                "duration": 0.1590909090909065,
                "tempo": 120.0
            },
            {
                "start_time": 110.10227272727272,
                "end_time": 110.26363636363635,
                "pitch": 33,
                "velocity": 127,
                "duration": 0.1613636363636317,
                "tempo": 120.0
            },
            {
                "start_time": 110.26363636363635,
                "end_time": 110.74545454545454,
                "pitch": 35,
                "velocity": 127,
                "duration": 0.48181818181818414,
                "tempo": 120.0
            },
            {
                "start_time": 110.26363636363635,
                "end_time": 110.74545454545454,
                "pitch": 35,
                "velocity": 127,
                "duration": 0.48181818181818414,
                "tempo": 120.0
            },
            {
                "start_time": 110.74545454545454,
                "end_time": 110.90681818181818,
                "pitch": 35,
                "velocity": 127,
                "duration": 0.16136363636364592,
                "tempo": 120.0
            },
            {
                "start_time": 112.50227272727273,
                "end_time": 112.66363636363636,
                "pitch": 33,
                "velocity": 127,
                "duration": 0.1613636363636317,
                "tempo": 120.0
            },
            {
                "start_time": 112.66363636363636,
                "end_time": 112.82272727272726,
                "pitch": 33,
                "velocity": 127,
                "duration": 0.1590909090909065,
                "tempo": 120.0
            },
            {
                "start_time": 112.82272727272726,
                "end_time": 113.30681818181817,
                "pitch": 31,
                "velocity": 127,
                "duration": 0.48409090909090935,
                "tempo": 120.0
            },
            {
                "start_time": 112.82272727272726,
                "end_time": 113.30681818181817,
                "pitch": 31,
                "velocity": 127,
                "duration": 0.48409090909090935,
                "tempo": 120.0
            },
            {
                "start_time": 113.30681818181817,
                "end_time": 113.46590909090908,
                "pitch": 31,
                "velocity": 127,
                "duration": 0.1590909090909065,
                "tempo": 120.0
            },
            {
                "start_time": 115.06136363636364,
                "end_time": 115.22272727272727,
                "pitch": 31,
                "velocity": 127,
                "duration": 0.1613636363636317,
                "tempo": 120.0
            },
            {
                "start_time": 115.22272727272727,
                "end_time": 115.38181818181818,
                "pitch": 31,
                "velocity": 127,
                "duration": 0.1590909090909065,
                "tempo": 120.0
            },
            {
                "start_time": 115.38181818181818,
                "end_time": 115.86590909090908,
                "pitch": 33,
                "velocity": 127,
                "duration": 0.48409090909090935,
                "tempo": 120.0
            },
            {
                "start_time": 115.86590909090908,
                "end_time": 116.02499999999999,
                "pitch": 33,
                "velocity": 127,
                "duration": 0.1590909090909065,
                "tempo": 120.0
            },
            {
                "start_time": 117.62727272727273,
                "end_time": 117.7840909090909,
                "pitch": 33,
                "velocity": 127,
                "duration": 0.1568181818181813,
                "tempo": 120.0
            },
            {
                "start_time": 117.7840909090909,
                "end_time": 117.94090909090909,
                "pitch": 33,
                "velocity": 127,
                "duration": 0.1568181818181813,
                "tempo": 120.0
            },
            {
                "start_time": 117.94090909090909,
                "end_time": 118.425,
                "pitch": 35,
                "velocity": 127,
                "duration": 0.48409090909090935,
                "tempo": 120.0
            },
            {
                "start_time": 117.94090909090909,
                "end_time": 118.425,
                "pitch": 35,
                "velocity": 127,
                "duration": 0.48409090909090935,
                "tempo": 120.0
            },
            {
                "start_time": 118.425,
                "end_time": 118.5840909090909,
                "pitch": 35,
                "velocity": 127,
                "duration": 0.1590909090909065,
                "tempo": 120.0
            },
            {
                "start_time": 120.19318181818181,
                "end_time": 120.35454545454544,
                "pitch": 35,
                "velocity": 127,
                "duration": 0.1613636363636317,
                "tempo": 120.0
            },
            {
                "start_time": 120.35454545454544,
                "end_time": 120.51363636363635,
                "pitch": 35,
                "velocity": 127,
                "duration": 0.1590909090909065,
                "tempo": 120.0
            },
            {
                "start_time": 120.51363636363635,
                "end_time": 120.98636363636363,
                "pitch": 35,
                "velocity": 127,
                "duration": 0.4727272727272833,
                "tempo": 120.0
            },
            {
                "start_time": 120.98636363636363,
                "end_time": 121.14318181818182,
                "pitch": 35,
                "velocity": 127,
                "duration": 0.1568181818181813,
                "tempo": 120.0
            },
            {
                "start_time": 122.74545454545454,
                "end_time": 122.90681818181818,
                "pitch": 33,
                "velocity": 127,
                "duration": 0.16136363636364592,
                "tempo": 120.0
            },
            {
                "start_time": 122.90681818181818,
                "end_time": 123.06590909090909,
                "pitch": 33,
                "velocity": 127,
                "duration": 0.1590909090909065,
                "tempo": 120.0
            }
        ],
        "Acoustic Guitar (nylon)": [
            {
                "start_time": 0.42272727272727273,
                "end_time": 0.7431818181818182,
                "pitch": 64,
                "velocity": 80,
                "duration": 0.32045454545454544,
                "tempo": 120.0
            },
            {
                "start_time": 0.7431818181818182,
                "end_time": 1.2318181818181817,
                "pitch": 69,
                "velocity": 80,
                "duration": 0.48863636363636354,
                "tempo": 120.0
            },
            {
                "start_time": 1.2318181818181817,
                "end_time": 1.709090909090909,
                "pitch": 57,
                "velocity": 80,
                "duration": 0.4772727272727273,
                "tempo": 120.0
            },
            {
                "start_time": 0.7431818181818182,
                "end_time": 2.3454545454545452,
                "pitch": 32,
                "velocity": 80,
                "duration": 1.602272727272727,
                "tempo": 120.0
            },
            {
                "start_time": 1.709090909090909,
                "end_time": 2.3454545454545452,
                "pitch": 64,
                "velocity": 80,
                "duration": 0.6363636363636362,
                "tempo": 120.0
            },
            {
                "start_time": 2.3454545454545452,
                "end_time": 2.9886363636363633,
                "pitch": 57,
                "velocity": 80,
                "duration": 0.6431818181818181,
                "tempo": 120.0
            },
            {
                "start_time": 1.709090909090909,
                "end_time": 2.9886363636363633,
                "pitch": 66,
                "velocity": 80,
                "duration": 1.2795454545454543,
                "tempo": 120.0
            },
            {
                "start_time": 2.3454545454545452,
                "end_time": 3.311363636363636,
                "pitch": 32,
                "velocity": 80,
                "duration": 0.9659090909090908,
                "tempo": 120.0
            },
            {
                "start_time": 2.9886363636363633,
                "end_time": 3.311363636363636,
                "pitch": 64,
                "velocity": 80,
                "duration": 0.32272727272727275,
                "tempo": 120.0
            },
            {
                "start_time": 3.311363636363636,
                "end_time": 3.793181818181818,
                "pitch": 69,
                "velocity": 80,
                "duration": 0.4818181818181819,
                "tempo": 120.0
            },
            {
                "start_time": 3.793181818181818,
                "end_time": 4.268181818181818,
                "pitch": 57,
                "velocity": 80,
                "duration": 0.47499999999999964,
                "tempo": 120.0
            },
            {
                "start_time": 2.9886363636363633,
                "end_time": 4.268181818181818,
                "pitch": 66,
                "velocity": 80,
                "duration": 1.2795454545454543,
                "tempo": 120.0
            },
            {
                "start_time": 4.268181818181818,
                "end_time": 4.904545454545454,
                "pitch": 64,
                "velocity": 80,
                "duration": 0.6363636363636367,
                "tempo": 120.0
            },
            {
                "start_time": 4.904545454545454,
                "end_time": 5.547727272727273,
                "pitch": 57,
                "velocity": 80,
                "duration": 0.6431818181818185,
                "tempo": 120.0
            },
            {
                "start_time": 4.268181818181818,
                "end_time": 5.547727272727273,
                "pitch": 66,
                "velocity": 80,
                "duration": 1.2795454545454552,
                "tempo": 120.0
            },
            {
                "start_time": 5.547727272727273,
                "end_time": 5.870454545454545,
                "pitch": 64,
                "velocity": 80,
                "duration": 0.3227272727272723,
                "tempo": 120.0
            },
            {
                "start_time": 5.870454545454545,
                "end_time": 6.352272727272727,
                "pitch": 69,
                "velocity": 80,
                "duration": 0.4818181818181815,
                "tempo": 120.0
            },
            {
                "start_time": 6.352272727272727,
                "end_time": 6.834090909090909,
                "pitch": 57,
                "velocity": 80,
                "duration": 0.48181818181818237,
                "tempo": 120.0
            },
            {
                "start_time": 5.547727272727273,
                "end_time": 6.834090909090909,
                "pitch": 66,
                "velocity": 80,
                "duration": 1.2863636363636362,
                "tempo": 120.0
            },
            {
                "start_time": 3.311363636363636,
                "end_time": 7.470454545454545,
                "pitch": 32,
                "velocity": 80,
                "duration": 4.159090909090908,
                "tempo": 120.0
            },
            {
                "start_time": 6.834090909090909,
                "end_time": 7.470454545454545,
                "pitch": 64,
                "velocity": 80,
                "duration": 0.6363636363636358,
                "tempo": 120.0
            },
            {
                "start_time": 7.470454545454545,
                "end_time": 8.10681818181818,
                "pitch": 57,
                "velocity": 80,
                "duration": 0.6363636363636358,
                "tempo": 120.0
            },
            {
                "start_time": 6.834090909090909,
                "end_time": 8.10681818181818,
                "pitch": 66,
                "velocity": 80,
                "duration": 1.2727272727272716,
                "tempo": 120.0
            },
            {
                "start_time": 7.470454545454545,
                "end_time": 8.429545454545455,
                "pitch": 32,
                "velocity": 80,
                "duration": 0.9590909090909099,
                "tempo": 120.0
            },
            {
                "start_time": 8.10681818181818,
                "end_time": 8.429545454545455,
                "pitch": 64,
                "velocity": 80,
                "duration": 0.3227272727272741,
                "tempo": 120.0
            },
            {
                "start_time": 8.429545454545455,
                "end_time": 8.911363636363635,
                "pitch": 69,
                "velocity": 80,
                "duration": 0.4818181818181806,
                "tempo": 120.0
            },
            {
                "start_time": 8.911363636363635,
                "end_time": 9.393181818181818,
                "pitch": 57,
                "velocity": 80,
                "duration": 0.48181818181818237,
                "tempo": 120.0
            },
            {
                "start_time": 8.10681818181818,
                "end_time": 9.393181818181818,
                "pitch": 66,
                "velocity": 80,
                "duration": 1.286363636363637,
                "tempo": 120.0
            },
            {
                "start_time": 8.429545454545455,
                "end_time": 10.029545454545454,
                "pitch": 32,
                "velocity": 80,
                "duration": 1.5999999999999996,
                "tempo": 120.0
            },
            {
                "start_time": 9.393181818181818,
                "end_time": 10.029545454545454,
                "pitch": 64,
                "velocity": 80,
                "duration": 0.6363636363636367,
                "tempo": 120.0
            },
            {
                "start_time": 10.029545454545454,
                "end_time": 10.665909090909091,
                "pitch": 57,
                "velocity": 80,
                "duration": 0.6363636363636367,
                "tempo": 120.0
            },
            {
                "start_time": 10.029545454545454,
                "end_time": 10.988636363636363,
                "pitch": 32,
                "velocity": 80,
                "duration": 0.959090909090909,
                "tempo": 120.0
            },
            {
                "start_time": 10.665909090909091,
                "end_time": 10.988636363636363,
                "pitch": 64,
                "velocity": 80,
                "duration": 0.3227272727272723,
                "tempo": 120.0
            },
            {
                "start_time": 10.988636363636363,
                "end_time": 11.470454545454546,
                "pitch": 69,
                "velocity": 80,
                "duration": 0.48181818181818237,
                "tempo": 120.0
            },
            {
                "start_time": 11.470454545454546,
                "end_time": 11.952272727272726,
                "pitch": 57,
                "velocity": 80,
                "duration": 0.4818181818181806,
                "tempo": 120.0
            },
            {
                "start_time": 10.988636363636363,
                "end_time": 12.595454545454546,
                "pitch": 32,
                "velocity": 80,
                "duration": 1.6068181818181824,
                "tempo": 120.0
            },
            {
                "start_time": 11.952272727272726,
                "end_time": 12.595454545454546,
                "pitch": 64,
                "velocity": 80,
                "duration": 0.6431818181818194,
                "tempo": 120.0
            },
            {
                "start_time": 12.595454545454546,
                "end_time": 13.238636363636363,
                "pitch": 57,
                "velocity": 80,
                "duration": 0.6431818181818176,
                "tempo": 120.0
            },
            {
                "start_time": 9.393181818181818,
                "end_time": 13.238636363636363,
                "pitch": 66,
                "velocity": 80,
                "duration": 3.8454545454545457,
                "tempo": 120.0
            },
            {
                "start_time": 13.238636363636363,
                "end_time": 13.561363636363636,
                "pitch": 64,
                "velocity": 80,
                "duration": 0.3227272727272723,
                "tempo": 120.0
            },
            {
                "start_time": 13.561363636363636,
                "end_time": 14.043181818181818,
                "pitch": 69,
                "velocity": 80,
                "duration": 0.48181818181818237,
                "tempo": 120.0
            },
            {
                "start_time": 14.043181818181818,
                "end_time": 14.518181818181818,
                "pitch": 57,
                "velocity": 80,
                "duration": 0.47499999999999964,
                "tempo": 120.0
            },
            {
                "start_time": 13.238636363636363,
                "end_time": 14.518181818181818,
                "pitch": 66,
                "velocity": 80,
                "duration": 1.2795454545454543,
                "tempo": 120.0
            },
            {
                "start_time": 14.518181818181818,
                "end_time": 15.154545454545454,
                "pitch": 64,
                "velocity": 80,
                "duration": 0.6363636363636367,
                "tempo": 120.0
            },
            {
                "start_time": 15.154545454545454,
                "end_time": 15.797727272727272,
                "pitch": 57,
                "velocity": 80,
                "duration": 0.6431818181818176,
                "tempo": 120.0
            },
            {
                "start_time": 14.518181818181818,
                "end_time": 15.797727272727272,
                "pitch": 66,
                "velocity": 80,
                "duration": 1.2795454545454543,
                "tempo": 120.0
            },
            {
                "start_time": 15.797727272727272,
                "end_time": 16.120454545454546,
                "pitch": 64,
                "velocity": 80,
                "duration": 0.3227272727272741,
                "tempo": 120.0
            },
            {
                "start_time": 16.120454545454546,
                "end_time": 16.602272727272727,
                "pitch": 69,
                "velocity": 80,
                "duration": 0.4818181818181806,
                "tempo": 120.0
            },
            {
                "start_time": 16.602272727272727,
                "end_time": 17.077272727272728,
                "pitch": 57,
                "velocity": 80,
                "duration": 0.4750000000000014,
                "tempo": 120.0
            },
            {
                "start_time": 15.797727272727272,
                "end_time": 17.077272727272728,
                "pitch": 66,
                "velocity": 80,
                "duration": 1.279545454545456,
                "tempo": 120.0
            },
            {
                "start_time": 12.595454545454546,
                "end_time": 17.71363636363636,
                "pitch": 32,
                "velocity": 80,
                "duration": 5.1181818181818155,
                "tempo": 120.0
            },
            {
                "start_time": 17.077272727272728,
                "end_time": 17.71363636363636,
                "pitch": 64,
                "velocity": 80,
                "duration": 0.6363636363636331,
                "tempo": 120.0
            },
            {
                "start_time": 17.71363636363636,
                "end_time": 18.35681818181818,
                "pitch": 57,
                "velocity": 80,
                "duration": 0.6431818181818194,
                "tempo": 120.0
            },
            {
                "start_time": 17.71363636363636,
                "end_time": 18.679545454545455,
                "pitch": 32,
                "velocity": 80,
                "duration": 0.9659090909090935,
                "tempo": 120.0
            },
            {
                "start_time": 18.35681818181818,
                "end_time": 18.679545454545455,
                "pitch": 64,
                "velocity": 80,
                "duration": 0.3227272727272741,
                "tempo": 120.0
            },
            {
                "start_time": 18.679545454545455,
                "end_time": 19.161363636363635,
                "pitch": 69,
                "velocity": 80,
                "duration": 0.4818181818181806,
                "tempo": 120.0
            },
            {
                "start_time": 19.161363636363635,
                "end_time": 19.643181818181816,
                "pitch": 57,
                "velocity": 80,
                "duration": 0.4818181818181806,
                "tempo": 120.0
            },
            {
                "start_time": 17.077272727272728,
                "end_time": 19.643181818181816,
                "pitch": 66,
                "velocity": 80,
                "duration": 2.565909090909088,
                "tempo": 120.0
            },
            {
                "start_time": 18.679545454545455,
                "end_time": 20.279545454545453,
                "pitch": 32,
                "velocity": 80,
                "duration": 1.5999999999999979,
                "tempo": 120.0
            },
            {
                "start_time": 19.643181818181816,
                "end_time": 20.279545454545453,
                "pitch": 64,
                "velocity": 80,
                "duration": 0.6363636363636367,
                "tempo": 120.0
            },
            {
                "start_time": 20.279545454545453,
                "end_time": 20.91590909090909,
                "pitch": 57,
                "velocity": 80,
                "duration": 0.6363636363636367,
                "tempo": 120.0
            },
            {
                "start_time": 20.279545454545453,
                "end_time": 21.238636363636363,
                "pitch": 32,
                "velocity": 80,
                "duration": 0.9590909090909108,
                "tempo": 120.0
            },
            {
                "start_time": 20.91590909090909,
                "end_time": 21.238636363636363,
                "pitch": 64,
                "velocity": 80,
                "duration": 0.3227272727272741,
                "tempo": 120.0
            },
            {
                "start_time": 21.238636363636363,
                "end_time": 21.720454545454544,
                "pitch": 69,
                "velocity": 80,
                "duration": 0.4818181818181806,
                "tempo": 120.0
            },
            {
                "start_time": 21.720454545454544,
                "end_time": 22.202272727272724,
                "pitch": 57,
                "velocity": 80,
                "duration": 0.4818181818181806,
                "tempo": 120.0
            },
            {
                "start_time": 19.643181818181816,
                "end_time": 22.202272727272724,
                "pitch": 66,
                "velocity": 80,
                "duration": 2.5590909090909086,
                "tempo": 120.0
            },
            {
                "start_time": 22.202272727272724,
                "end_time": 22.83863636363636,
                "pitch": 64,
                "velocity": 80,
                "duration": 0.6363636363636367,
                "tempo": 120.0
            },
            {
                "start_time": 22.83863636363636,
                "end_time": 23.477272727272727,
                "pitch": 57,
                "velocity": 80,
                "duration": 0.6386363636363654,
                "tempo": 120.0
            },
            {
                "start_time": 22.202272727272724,
                "end_time": 23.477272727272727,
                "pitch": 66,
                "velocity": 80,
                "duration": 1.2750000000000021,
                "tempo": 120.0
            },
            {
                "start_time": 23.477272727272727,
                "end_time": 23.797727272727272,
                "pitch": 64,
                "velocity": 80,
                "duration": 0.3204545454545453,
                "tempo": 120.0
            },
            {
                "start_time": 23.797727272727272,
                "end_time": 24.279545454545453,
                "pitch": 69,
                "velocity": 80,
                "duration": 0.4818181818181806,
                "tempo": 120.0
            },
            {
                "start_time": 24.279545454545453,
                "end_time": 24.763636363636362,
                "pitch": 57,
                "velocity": 80,
                "duration": 0.48409090909090935,
                "tempo": 120.0
            },
            {
                "start_time": 23.477272727272727,
                "end_time": 24.763636363636362,
                "pitch": 66,
                "velocity": 80,
                "duration": 1.2863636363636353,
                "tempo": 120.0
            },
            {
                "start_time": 21.238636363636363,
                "end_time": 25.40681818181818,
                "pitch": 32,
                "velocity": 80,
                "duration": 4.168181818181818,
                "tempo": 120.0
            },
            {
                "start_time": 24.763636363636362,
                "end_time": 25.40681818181818,
                "pitch": 64,
                "velocity": 80,
                "duration": 0.6431818181818194,
                "tempo": 120.0
            },
            {
                "start_time": 25.40681818181818,
                "end_time": 26.047727272727272,
                "pitch": 57,
                "velocity": 80,
                "duration": 0.6409090909090907,
                "tempo": 120.0
            },
            {
                "start_time": 24.763636363636362,
                "end_time": 26.047727272727272,
                "pitch": 66,
                "velocity": 80,
                "duration": 1.28409090909091,
                "tempo": 120.0
            },
            {
                "start_time": 26.047727272727272,
                "end_time": 26.370454545454542,
                "pitch": 64,
                "velocity": 80,
                "duration": 0.32272727272727053,
                "tempo": 120.0
            },
            {
                "start_time": 26.370454545454542,
                "end_time": 26.843181818181815,
                "pitch": 69,
                "velocity": 80,
                "duration": 0.47272727272727266,
                "tempo": 120.0
            },
            {
                "start_time": 26.843181818181815,
                "end_time": 27.32272727272727,
                "pitch": 57,
                "velocity": 80,
                "duration": 0.4795454545454554,
                "tempo": 120.0
            },
            {
                "start_time": 26.047727272727272,
                "end_time": 27.32272727272727,
                "pitch": 66,
                "velocity": 80,
                "duration": 1.2749999999999986,
                "tempo": 120.0
            },
            {
                "start_time": 25.40681818181818,
                "end_time": 27.96590909090909,
                "pitch": 32,
                "velocity": 80,
                "duration": 2.5590909090909086,
                "tempo": 120.0
            },
            {
                "start_time": 27.32272727272727,
                "end_time": 27.96590909090909,
                "pitch": 64,
                "velocity": 80,
                "duration": 0.6431818181818194,
                "tempo": 120.0
            },
            {
                "start_time": 27.96590909090909,
                "end_time": 28.60909090909091,
                "pitch": 57,
                "velocity": 80,
                "duration": 0.6431818181818194,
                "tempo": 120.0
            },
            {
                "start_time": 27.96590909090909,
                "end_time": 28.929545454545455,
                "pitch": 32,
                "velocity": 80,
                "duration": 0.9636363636363647,
                "tempo": 120.0
            },
            {
                "start_time": 28.60909090909091,
                "end_time": 28.929545454545455,
                "pitch": 64,
                "velocity": 80,
                "duration": 0.3204545454545453,
                "tempo": 120.0
            },
            {
                "start_time": 28.929545454545455,
                "end_time": 29.411363636363635,
                "pitch": 69,
                "velocity": 80,
                "duration": 0.4818181818181806,
                "tempo": 120.0
            },
            {
                "start_time": 29.411363636363635,
                "end_time": 29.888636363636362,
                "pitch": 57,
                "velocity": 80,
                "duration": 0.4772727272727266,
                "tempo": 120.0
            },
            {
                "start_time": 28.929545454545455,
                "end_time": 30.525,
                "pitch": 32,
                "velocity": 80,
                "duration": 1.595454545454544,
                "tempo": 120.0
            },
            {
                "start_time": 29.888636363636362,
                "end_time": 30.525,
                "pitch": 64,
                "velocity": 80,
                "duration": 0.6363636363636367,
                "tempo": 120.0
            },
            {
                "start_time": 30.525,
                "end_time": 31.168181818181818,
                "pitch": 57,
                "velocity": 80,
                "duration": 0.6431818181818194,
                "tempo": 120.0
            },
            {
                "start_time": 27.32272727272727,
                "end_time": 31.168181818181818,
                "pitch": 66,
                "velocity": 80,
                "duration": 3.8454545454545475,
                "tempo": 120.0
            },
            {
                "start_time": 31.168181818181818,
                "end_time": 31.488636363636363,
                "pitch": 64,
                "velocity": 80,
                "duration": 0.3204545454545453,
                "tempo": 120.0
            },
            {
                "start_time": 31.488636363636363,
                "end_time": 31.970454545454544,
                "pitch": 69,
                "velocity": 80,
                "duration": 0.4818181818181806,
                "tempo": 120.0
            },
            {
                "start_time": 31.970454545454544,
                "end_time": 32.44772727272727,
                "pitch": 57,
                "velocity": 80,
                "duration": 0.4772727272727266,
                "tempo": 120.0
            },
            {
                "start_time": 31.168181818181818,
                "end_time": 32.44772727272727,
                "pitch": 66,
                "velocity": 80,
                "duration": 1.2795454545454525,
                "tempo": 120.0
            },
            {
                "start_time": 30.525,
                "end_time": 33.08409090909091,
                "pitch": 32,
                "velocity": 80,
                "duration": 2.559090909090912,
                "tempo": 120.0
            },
            {
                "start_time": 32.44772727272727,
                "end_time": 33.08409090909091,
                "pitch": 64,
                "velocity": 80,
                "duration": 0.6363636363636402,
                "tempo": 120.0
            },
            {
                "start_time": 33.08409090909091,
                "end_time": 33.72727272727273,
                "pitch": 57,
                "velocity": 80,
                "duration": 0.6431818181818159,
                "tempo": 120.0
            },
            {
                "start_time": 32.44772727272727,
                "end_time": 33.72727272727273,
                "pitch": 66,
                "velocity": 80,
                "duration": 1.279545454545456,
                "tempo": 120.0
            },
            {
                "start_time": 33.08409090909091,
                "end_time": 34.04772727272727,
                "pitch": 32,
                "velocity": 80,
                "duration": 0.9636363636363612,
                "tempo": 120.0
            },
            {
                "start_time": 33.72727272727273,
                "end_time": 34.04772727272727,
                "pitch": 64,
                "velocity": 80,
                "duration": 0.3204545454545453,
                "tempo": 120.0
            },
            {
                "start_time": 34.04772727272727,
                "end_time": 34.529545454545456,
                "pitch": 69,
                "velocity": 80,
                "duration": 0.48181818181818414,
                "tempo": 120.0
            },
            {
                "start_time": 34.529545454545456,
                "end_time": 35.013636363636365,
                "pitch": 57,
                "velocity": 80,
                "duration": 0.48409090909090935,
                "tempo": 120.0
            },
            {
                "start_time": 33.72727272727273,
                "end_time": 35.013636363636365,
                "pitch": 66,
                "velocity": 80,
                "duration": 1.2863636363636388,
                "tempo": 120.0
            },
            {
                "start_time": 34.04772727272727,
                "end_time": 35.65,
                "pitch": 32,
                "velocity": 80,
                "duration": 1.6022727272727266,
                "tempo": 120.0
            },
            {
                "start_time": 35.013636363636365,
                "end_time": 35.65,
                "pitch": 64,
                "velocity": 80,
                "duration": 0.6363636363636331,
                "tempo": 120.0
            },
            {
                "start_time": 35.65,
                "end_time": 36.28636363636363,
                "pitch": 57,
                "velocity": 80,
                "duration": 0.6363636363636331,
                "tempo": 120.0
            },
            {
                "start_time": 35.65,
                "end_time": 36.60681818181818,
                "pitch": 32,
                "velocity": 80,
                "duration": 0.9568181818181785,
                "tempo": 120.0
            },
            {
                "start_time": 36.28636363636363,
                "end_time": 36.60681818181818,
                "pitch": 64,
                "velocity": 80,
                "duration": 0.3204545454545453,
                "tempo": 120.0
            },
            {
                "start_time": 36.60681818181818,
                "end_time": 37.090909090909086,
                "pitch": 69,
                "velocity": 80,
                "duration": 0.48409090909090935,
                "tempo": 120.0
            },
            {
                "start_time": 37.090909090909086,
                "end_time": 37.57272727272727,
                "pitch": 57,
                "velocity": 80,
                "duration": 0.48181818181818414,
                "tempo": 120.0
            },
            {
                "start_time": 36.60681818181818,
                "end_time": 38.215909090909086,
                "pitch": 32,
                "velocity": 80,
                "duration": 1.6090909090909093,
                "tempo": 120.0
            },
            {
                "start_time": 37.57272727272727,
                "end_time": 38.215909090909086,
                "pitch": 64,
                "velocity": 80,
                "duration": 0.6431818181818159,
                "tempo": 120.0
            },
            {
                "start_time": 38.215909090909086,
                "end_time": 38.85909090909091,
                "pitch": 57,
                "velocity": 80,
                "duration": 0.643181818181823,
                "tempo": 120.0
            },
            {
                "start_time": 38.215909090909086,
                "end_time": 39.179545454545455,
                "pitch": 32,
                "velocity": 80,
                "duration": 0.9636363636363683,
                "tempo": 120.0
            },
            {
                "start_time": 38.85909090909091,
                "end_time": 39.179545454545455,
                "pitch": 64,
                "velocity": 80,
                "duration": 0.3204545454545453,
                "tempo": 120.0
            },
            {
                "start_time": 39.179545454545455,
                "end_time": 39.663636363636364,
                "pitch": 69,
                "velocity": 80,
                "duration": 0.48409090909090935,
                "tempo": 120.0
            },
            {
                "start_time": 39.663636363636364,
                "end_time": 40.13863636363636,
                "pitch": 57,
                "velocity": 80,
                "duration": 0.4749999999999943,
                "tempo": 120.0
            },
            {
                "start_time": 35.013636363636365,
                "end_time": 40.13863636363636,
                "pitch": 66,
                "velocity": 80,
                "duration": 5.124999999999993,
                "tempo": 120.0
            },
            {
                "start_time": 40.13863636363636,
                "end_time": 40.775,
                "pitch": 64,
                "velocity": 80,
                "duration": 0.6363636363636402,
                "tempo": 120.0
            },
            {
                "start_time": 40.775,
                "end_time": 41.418181818181814,
                "pitch": 57,
                "velocity": 80,
                "duration": 0.6431818181818159,
                "tempo": 120.0
            },
            {
                "start_time": 41.418181818181814,
                "end_time": 41.74090909090909,
                "pitch": 60,
                "velocity": 80,
                "duration": 0.32272727272727764,
                "tempo": 120.0
            },
            {
                "start_time": 39.179545454545455,
                "end_time": 42.22272727272727,
                "pitch": 32,
                "velocity": 80,
                "duration": 3.0431818181818144,
                "tempo": 120.0
            },
            {
                "start_time": 41.74090909090909,
                "end_time": 42.22272727272727,
                "pitch": 65,
                "velocity": 80,
                "duration": 0.48181818181817704,
                "tempo": 120.0
            },
            {
                "start_time": 42.22272727272727,
                "end_time": 42.69772727272727,
                "pitch": 57,
                "velocity": 80,
                "duration": 0.4750000000000014,
                "tempo": 120.0
            },
            {
                "start_time": 41.418181818181814,
                "end_time": 42.69772727272727,
                "pitch": 64,
                "velocity": 80,
                "duration": 1.279545454545456,
                "tempo": 120.0
            },
            {
                "start_time": 42.69772727272727,
                "end_time": 43.334090909090904,
                "pitch": 60,
                "velocity": 80,
                "duration": 0.6363636363636331,
                "tempo": 120.0
            },
            {
                "start_time": 42.22272727272727,
                "end_time": 43.97727272727273,
                "pitch": 32,
                "velocity": 80,
                "duration": 1.7545454545454575,
                "tempo": 120.0
            },
            {
                "start_time": 43.334090909090904,
                "end_time": 43.97727272727273,
                "pitch": 53,
                "velocity": 80,
                "duration": 0.643181818181823,
                "tempo": 120.0
            },
            {
                "start_time": 43.97727272727273,
                "end_time": 44.3,
                "pitch": 59,
                "velocity": 80,
                "duration": 0.32272727272727053,
                "tempo": 120.0
            },
            {
                "start_time": 44.3,
                "end_time": 44.78181818181818,
                "pitch": 67,
                "velocity": 80,
                "duration": 0.48181818181818414,
                "tempo": 120.0
            },
            {
                "start_time": 44.3,
                "end_time": 45.25681818181818,
                "pitch": 55,
                "velocity": 80,
                "duration": 0.9568181818181856,
                "tempo": 120.0
            },
            {
                "start_time": 44.78181818181818,
                "end_time": 45.25681818181818,
                "pitch": 55,
                "velocity": 80,
                "duration": 0.4750000000000014,
                "tempo": 120.0
            },
            {
                "start_time": 43.334090909090904,
                "end_time": 45.25681818181818,
                "pitch": 65,
                "velocity": 80,
                "duration": 1.922727272727279,
                "tempo": 120.0
            },
            {
                "start_time": 45.25681818181818,
                "end_time": 45.893181818181816,
                "pitch": 62,
                "velocity": 80,
                "duration": 0.6363636363636331,
                "tempo": 120.0
            },
            {
                "start_time": 45.893181818181816,
                "end_time": 46.53636363636363,
                "pitch": 62,
                "velocity": 80,
                "duration": 0.6431818181818159,
                "tempo": 120.0
            },
            {
                "start_time": 43.97727272727273,
                "end_time": 46.85909090909091,
                "pitch": 32,
                "velocity": 80,
                "duration": 2.8818181818181827,
                "tempo": 120.0
            },
            {
                "start_time": 42.69772727272727,
                "end_time": 46.85909090909091,
                "pitch": 64,
                "velocity": 80,
                "duration": 4.161363636363639,
                "tempo": 120.0
            },
            {
                "start_time": 46.53636363636363,
                "end_time": 46.85909090909091,
                "pitch": 64,
                "velocity": 80,
                "duration": 0.32272727272727764,
                "tempo": 120.0
            },
            {
                "start_time": 46.85909090909091,
                "end_time": 47.340909090909086,
                "pitch": 69,
                "velocity": 80,
                "duration": 0.48181818181817704,
                "tempo": 120.0
            },
            {
                "start_time": 47.340909090909086,
                "end_time": 47.82272727272727,
                "pitch": 57,
                "velocity": 80,
                "duration": 0.48181818181818414,
                "tempo": 120.0
            },
            {
                "start_time": 47.82272727272727,
                "end_time": 48.459090909090904,
                "pitch": 64,
                "velocity": 80,
                "duration": 0.6363636363636331,
                "tempo": 120.0
            },
            {
                "start_time": 48.459090909090904,
                "end_time": 49.095454545454544,
                "pitch": 57,
                "velocity": 80,
                "duration": 0.6363636363636402,
                "tempo": 120.0
            },
            {
                "start_time": 40.13863636363636,
                "end_time": 49.095454545454544,
                "pitch": 66,
                "velocity": 80,
                "duration": 8.956818181818186,
                "tempo": 120.0
            },
            {
                "start_time": 46.85909090909091,
                "end_time": 49.418181818181814,
                "pitch": 32,
                "velocity": 80,
                "duration": 2.559090909090905,
                "tempo": 120.0
            },
            {
                "start_time": 49.095454545454544,
                "end_time": 49.418181818181814,
                "pitch": 64,
                "velocity": 80,
                "duration": 0.32272727272727053,
                "tempo": 120.0
            },
            {
                "start_time": 49.418181818181814,
                "end_time": 49.9,
                "pitch": 69,
                "velocity": 80,
                "duration": 0.48181818181818414,
                "tempo": 120.0
            },
            {
                "start_time": 49.9,
                "end_time": 50.38181818181818,
                "pitch": 57,
                "velocity": 80,
                "duration": 0.48181818181818414,
                "tempo": 120.0
            },
            {
                "start_time": 49.418181818181814,
                "end_time": 51.025,
                "pitch": 32,
                "velocity": 80,
                "duration": 1.6068181818181841,
                "tempo": 120.0
            },
            {
                "start_time": 50.38181818181818,
                "end_time": 51.025,
                "pitch": 64,
                "velocity": 80,
                "duration": 0.6431818181818159,
                "tempo": 120.0
            },
            {
                "start_time": 51.025,
                "end_time": 51.668181818181814,
                "pitch": 57,
                "velocity": 80,
                "duration": 0.6431818181818159,
                "tempo": 120.0
            },
            {
                "start_time": 51.668181818181814,
                "end_time": 51.990909090909085,
                "pitch": 60,
                "velocity": 80,
                "duration": 0.32272727272727053,
                "tempo": 120.0
            },
            {
                "start_time": 51.025,
                "end_time": 52.461363636363636,
                "pitch": 32,
                "velocity": 80,
                "duration": 1.4363636363636374,
                "tempo": 120.0
            },
            {
                "start_time": 45.25681818181818,
                "end_time": 52.461363636363636,
                "pitch": 65,
                "velocity": 80,
                "duration": 7.204545454545453,
                "tempo": 120.0
            },
            {
                "start_time": 51.990909090909085,
                "end_time": 52.461363636363636,
                "pitch": 65,
                "velocity": 80,
                "duration": 0.470454545454551,
                "tempo": 120.0
            },
            {
                "start_time": 52.461363636363636,
                "end_time": 52.94090909090909,
                "pitch": 57,
                "velocity": 80,
                "duration": 0.47954545454545183,
                "tempo": 120.0
            },
            {
                "start_time": 51.668181818181814,
                "end_time": 52.94090909090909,
                "pitch": 64,
                "velocity": 80,
                "duration": 1.2727272727272734,
                "tempo": 120.0
            },
            {
                "start_time": 52.94090909090909,
                "end_time": 53.584090909090904,
                "pitch": 60,
                "velocity": 80,
                "duration": 0.6431818181818159,
                "tempo": 120.0
            },
            {
                "start_time": 53.584090909090904,
                "end_time": 54.22727272727273,
                "pitch": 53,
                "velocity": 80,
                "duration": 0.643181818181823,
                "tempo": 120.0
            },
            {
                "start_time": 54.22727272727273,
                "end_time": 54.55,
                "pitch": 62,
                "velocity": 80,
                "duration": 0.32272727272727053,
                "tempo": 120.0
            },
            {
                "start_time": 54.55,
                "end_time": 55.03181818181818,
                "pitch": 67,
                "velocity": 80,
                "duration": 0.48181818181818414,
                "tempo": 120.0
            },
            {
                "start_time": 55.03181818181818,
                "end_time": 55.506818181818176,
                "pitch": 59,
                "velocity": 80,
                "duration": 0.4749999999999943,
                "tempo": 120.0
            },
            {
                "start_time": 55.506818181818176,
                "end_time": 56.143181818181816,
                "pitch": 62,
                "velocity": 80,
                "duration": 0.6363636363636402,
                "tempo": 120.0
            },
            {
                "start_time": 56.143181818181816,
                "end_time": 56.78636363636363,
                "pitch": 55,
                "velocity": 80,
                "duration": 0.6431818181818159,
                "tempo": 120.0
            },
            {
                "start_time": 56.78636363636363,
                "end_time": 57.10909090909091,
                "pitch": 67,
                "velocity": 80,
                "duration": 0.32272727272727764,
                "tempo": 120.0
            },
            {
                "start_time": 57.10909090909091,
                "end_time": 57.590909090909086,
                "pitch": 72,
                "velocity": 80,
                "duration": 0.48181818181817704,
                "tempo": 120.0
            },
            {
                "start_time": 57.10909090909091,
                "end_time": 57.590909090909086,
                "pitch": 76,
                "velocity": 80,
                "duration": 0.48181818181817704,
                "tempo": 120.0
            },
            {
                "start_time": 52.94090909090909,
                "end_time": 58.06590909090909,
                "pitch": 64,
                "velocity": 80,
                "duration": 5.125,
                "tempo": 120.0
            },
            {
                "start_time": 57.590909090909086,
                "end_time": 58.06590909090909,
                "pitch": 64,
                "velocity": 80,
                "duration": 0.4750000000000014,
                "tempo": 120.0
            },
            {
                "start_time": 58.06590909090909,
                "end_time": 58.70227272727272,
                "pitch": 67,
                "velocity": 80,
                "duration": 0.6363636363636331,
                "tempo": 120.0
            },
            {
                "start_time": 58.70227272727272,
                "end_time": 59.345454545454544,
                "pitch": 67,
                "velocity": 80,
                "duration": 0.643181818181823,
                "tempo": 120.0
            },
            {
                "start_time": 59.345454545454544,
                "end_time": 59.668181818181814,
                "pitch": 64,
                "velocity": 80,
                "duration": 0.32272727272727053,
                "tempo": 120.0
            },
            {
                "start_time": 59.668181818181814,
                "end_time": 60.15,
                "pitch": 68,
                "velocity": 80,
                "duration": 0.48181818181818414,
                "tempo": 120.0
            },
            {
                "start_time": 60.15,
                "end_time": 60.631818181818176,
                "pitch": 59,
                "velocity": 80,
                "duration": 0.48181818181817704,
                "tempo": 120.0
            },
            {
                "start_time": 49.095454545454544,
                "end_time": 60.631818181818176,
                "pitch": 66,
                "velocity": 80,
                "duration": 11.536363636363632,
                "tempo": 120.0
            },
            {
                "start_time": 59.668181818181814,
                "end_time": 61.268181818181816,
                "pitch": 21,
                "velocity": 80,
                "duration": 1.6000000000000014,
                "tempo": 120.0
            },
            {
                "start_time": 60.631818181818176,
                "end_time": 61.268181818181816,
                "pitch": 64,
                "velocity": 80,
                "duration": 0.6363636363636402,
                "tempo": 120.0
            },
            {
                "start_time": 61.268181818181816,
                "end_time": 61.90454545454545,
                "pitch": 56,
                "velocity": 80,
                "duration": 0.6363636363636331,
                "tempo": 120.0
            },
            {
                "start_time": 60.631818181818176,
                "end_time": 62.22727272727273,
                "pitch": 66,
                "velocity": 80,
                "duration": 1.595454545454551,
                "tempo": 120.0
            },
            {
                "start_time": 61.90454545454545,
                "end_time": 62.22727272727273,
                "pitch": 66,
                "velocity": 80,
                "duration": 0.32272727272727764,
                "tempo": 120.0
            },
            {
                "start_time": 60.15,
                "end_time": 62.709090909090904,
                "pitch": 71,
                "velocity": 80,
                "duration": 2.559090909090905,
                "tempo": 120.0
            },
            {
                "start_time": 62.22727272727273,
                "end_time": 62.709090909090904,
                "pitch": 71,
                "velocity": 80,
                "duration": 0.48181818181817704,
                "tempo": 120.0
            },
            {
                "start_time": 62.709090909090904,
                "end_time": 63.19090909090909,
                "pitch": 59,
                "velocity": 80,
                "duration": 0.48181818181818414,
                "tempo": 120.0
            },
            {
                "start_time": 61.90454545454545,
                "end_time": 63.19090909090909,
                "pitch": 67,
                "velocity": 80,
                "duration": 1.2863636363636388,
                "tempo": 120.0
            },
            {
                "start_time": 63.19090909090909,
                "end_time": 63.82727272727272,
                "pitch": 66,
                "velocity": 80,
                "duration": 0.6363636363636331,
                "tempo": 120.0
            },
            {
                "start_time": 63.82727272727272,
                "end_time": 64.4659090909091,
                "pitch": 59,
                "velocity": 80,
                "duration": 0.6386363636363726,
                "tempo": 120.0
            },
            {
                "start_time": 63.19090909090909,
                "end_time": 64.4659090909091,
                "pitch": 67,
                "velocity": 80,
                "duration": 1.2750000000000057,
                "tempo": 120.0
            },
            {
                "start_time": 63.82727272727272,
                "end_time": 64.78636363636363,
                "pitch": 44,
                "velocity": 80,
                "duration": 0.9590909090909108,
                "tempo": 120.0
            },
            {
                "start_time": 64.4659090909091,
                "end_time": 64.78636363636363,
                "pitch": 66,
                "velocity": 80,
                "duration": 0.3204545454545382,
                "tempo": 120.0
            },
            {
                "start_time": 64.78636363636363,
                "end_time": 65.26818181818182,
                "pitch": 71,
                "velocity": 80,
                "duration": 0.48181818181818414,
                "tempo": 120.0
            },
            {
                "start_time": 65.26818181818182,
                "end_time": 65.75227272727273,
                "pitch": 59,
                "velocity": 80,
                "duration": 0.48409090909090935,
                "tempo": 120.0
            },
            {
                "start_time": 64.78636363636363,
                "end_time": 66.39545454545454,
                "pitch": 44,
                "velocity": 80,
                "duration": 1.6090909090909093,
                "tempo": 120.0
            },
            {
                "start_time": 65.75227272727273,
                "end_time": 66.39545454545454,
                "pitch": 66,
                "velocity": 80,
                "duration": 0.6431818181818159,
                "tempo": 120.0
            },
            {
                "start_time": 66.39545454545454,
                "end_time": 67.03636363636363,
                "pitch": 59,
                "velocity": 80,
                "duration": 0.6409090909090907,
                "tempo": 120.0
            },
            {
                "start_time": 64.4659090909091,
                "end_time": 67.03636363636363,
                "pitch": 67,
                "velocity": 80,
                "duration": 2.570454545454538,
                "tempo": 120.0
            },
            {
                "start_time": 66.39545454545454,
                "end_time": 67.35909090909091,
                "pitch": 44,
                "velocity": 80,
                "duration": 0.9636363636363683,
                "tempo": 120.0
            },
            {
                "start_time": 67.03636363636363,
                "end_time": 67.35909090909091,
                "pitch": 66,
                "velocity": 80,
                "duration": 0.32272727272727764,
                "tempo": 120.0
            },
            {
                "start_time": 67.35909090909091,
                "end_time": 67.8409090909091,
                "pitch": 71,
                "velocity": 80,
                "duration": 0.48181818181818414,
                "tempo": 120.0
            },
            {
                "start_time": 67.8409090909091,
                "end_time": 68.31818181818181,
                "pitch": 59,
                "velocity": 80,
                "duration": 0.4772727272727195,
                "tempo": 120.0
            },
            {
                "start_time": 67.03636363636363,
                "end_time": 68.31818181818181,
                "pitch": 67,
                "velocity": 80,
                "duration": 1.2818181818181813,
                "tempo": 120.0
            },
            {
                "start_time": 67.35909090909091,
                "end_time": 68.95454545454545,
                "pitch": 44,
                "velocity": 80,
                "duration": 1.595454545454544,
                "tempo": 120.0
            },
            {
                "start_time": 68.31818181818181,
                "end_time": 68.95454545454545,
                "pitch": 66,
                "velocity": 80,
                "duration": 0.6363636363636402,
                "tempo": 120.0
            },
            {
                "start_time": 68.95454545454545,
                "end_time": 69.59772727272727,
                "pitch": 59,
                "velocity": 80,
                "duration": 0.6431818181818159,
                "tempo": 120.0
            },
            {
                "start_time": 68.31818181818181,
                "end_time": 69.59772727272727,
                "pitch": 67,
                "velocity": 80,
                "duration": 1.279545454545456,
                "tempo": 120.0
            },
            {
                "start_time": 68.95454545454545,
                "end_time": 69.91818181818182,
                "pitch": 44,
                "velocity": 80,
                "duration": 0.9636363636363683,
                "tempo": 120.0
            },
            {
                "start_time": 69.59772727272727,
                "end_time": 69.91818181818182,
                "pitch": 66,
                "velocity": 80,
                "duration": 0.32045454545455243,
                "tempo": 120.0
            },
            {
                "start_time": 69.91818181818182,
                "end_time": 70.39999999999999,
                "pitch": 71,
                "velocity": 80,
                "duration": 0.48181818181816993,
                "tempo": 120.0
            },
            {
                "start_time": 70.39999999999999,
                "end_time": 70.87727272727273,
                "pitch": 59,
                "velocity": 80,
                "duration": 0.47727272727273373,
                "tempo": 120.0
            },
            {
                "start_time": 69.59772727272727,
                "end_time": 70.87727272727273,
                "pitch": 67,
                "velocity": 80,
                "duration": 1.279545454545456,
                "tempo": 120.0
            },
            {
                "start_time": 69.91818181818182,
                "end_time": 71.51363636363637,
                "pitch": 44,
                "velocity": 80,
                "duration": 1.595454545454544,
                "tempo": 120.0
            },
            {
                "start_time": 70.87727272727273,
                "end_time": 71.51363636363637,
                "pitch": 66,
                "velocity": 80,
                "duration": 0.6363636363636402,
                "tempo": 120.0
            },
            {
                "start_time": 71.51363636363637,
                "end_time": 72.15681818181818,
                "pitch": 59,
                "velocity": 80,
                "duration": 0.6431818181818159,
                "tempo": 120.0
            },
            {
                "start_time": 70.87727272727273,
                "end_time": 72.15681818181818,
                "pitch": 67,
                "velocity": 80,
                "duration": 1.279545454545456,
                "tempo": 120.0
            },
            {
                "start_time": 71.51363636363637,
                "end_time": 72.47727272727272,
                "pitch": 44,
                "velocity": 80,
                "duration": 0.9636363636363541,
                "tempo": 120.0
            },
            {
                "start_time": 72.15681818181818,
                "end_time": 72.47727272727272,
                "pitch": 66,
                "velocity": 80,
                "duration": 0.3204545454545382,
                "tempo": 120.0
            },
            {
                "start_time": 72.47727272727272,
                "end_time": 72.9590909090909,
                "pitch": 71,
                "velocity": 80,
                "duration": 0.48181818181818414,
                "tempo": 120.0
            },
            {
                "start_time": 72.9590909090909,
                "end_time": 73.43636363636364,
                "pitch": 59,
                "velocity": 80,
                "duration": 0.47727272727273373,
                "tempo": 120.0
            },
            {
                "start_time": 72.15681818181818,
                "end_time": 73.43636363636364,
                "pitch": 67,
                "velocity": 80,
                "duration": 1.279545454545456,
                "tempo": 120.0
            },
            {
                "start_time": 72.47727272727272,
                "end_time": 74.07272727272726,
                "pitch": 44,
                "velocity": 80,
                "duration": 1.595454545454544,
                "tempo": 120.0
            },
            {
                "start_time": 73.43636363636364,
                "end_time": 74.07272727272726,
                "pitch": 66,
                "velocity": 80,
                "duration": 0.636363636363626,
                "tempo": 120.0
            },
            {
                "start_time": 74.07272727272726,
                "end_time": 74.7159090909091,
                "pitch": 59,
                "velocity": 80,
                "duration": 0.6431818181818301,
                "tempo": 120.0
            },
            {
                "start_time": 73.43636363636364,
                "end_time": 74.7159090909091,
                "pitch": 67,
                "velocity": 80,
                "duration": 1.279545454545456,
                "tempo": 120.0
            },
            {
                "start_time": 74.07272727272726,
                "end_time": 75.03636363636363,
                "pitch": 44,
                "velocity": 80,
                "duration": 0.9636363636363683,
                "tempo": 120.0
            },
            {
                "start_time": 74.7159090909091,
                "end_time": 75.03636363636363,
                "pitch": 66,
                "velocity": 80,
                "duration": 0.3204545454545382,
                "tempo": 120.0
            },
            {
                "start_time": 75.03636363636363,
                "end_time": 75.51818181818182,
                "pitch": 71,
                "velocity": 80,
                "duration": 0.48181818181818414,
                "tempo": 120.0
            },
            {
                "start_time": 75.51818181818182,
                "end_time": 76.00227272727273,
                "pitch": 59,
                "velocity": 80,
                "duration": 0.48409090909090935,
                "tempo": 120.0
            },
            {
                "start_time": 76.00227272727273,
                "end_time": 76.63863636363637,
                "pitch": 66,
                "velocity": 80,
                "duration": 0.6363636363636402,
                "tempo": 120.0
            },
            {
                "start_time": 76.63863636363637,
                "end_time": 77.27499999999999,
                "pitch": 59,
                "velocity": 80,
                "duration": 0.636363636363626,
                "tempo": 120.0
            },
            {
                "start_time": 74.7159090909091,
                "end_time": 77.27499999999999,
                "pitch": 67,
                "velocity": 80,
                "duration": 2.559090909090898,
                "tempo": 120.0
            },
            {
                "start_time": 75.03636363636363,
                "end_time": 77.59545454545454,
                "pitch": 44,
                "velocity": 80,
                "duration": 2.559090909090912,
                "tempo": 120.0
            },
            {
                "start_time": 77.27499999999999,
                "end_time": 77.59545454545454,
                "pitch": 66,
                "velocity": 80,
                "duration": 0.32045454545455243,
                "tempo": 120.0
            },
            {
                "start_time": 77.59545454545454,
                "end_time": 78.07954545454545,
                "pitch": 71,
                "velocity": 80,
                "duration": 0.48409090909090935,
                "tempo": 120.0
            },
            {
                "start_time": 78.07954545454545,
                "end_time": 78.56136363636364,
                "pitch": 59,
                "velocity": 80,
                "duration": 0.48181818181818414,
                "tempo": 120.0
            },
            {
                "start_time": 77.27499999999999,
                "end_time": 78.56136363636364,
                "pitch": 67,
                "velocity": 80,
                "duration": 1.286363636363646,
                "tempo": 120.0
            },
            {
                "start_time": 77.59545454545454,
                "end_time": 79.20454545454545,
                "pitch": 44,
                "velocity": 80,
                "duration": 1.6090909090909093,
                "tempo": 120.0
            },
            {
                "start_time": 78.56136363636364,
                "end_time": 79.20454545454545,
                "pitch": 66,
                "velocity": 80,
                "duration": 0.6431818181818159,
                "tempo": 120.0
            },
            {
                "start_time": 79.20454545454545,
                "end_time": 79.84772727272727,
                "pitch": 59,
                "velocity": 80,
                "duration": 0.6431818181818159,
                "tempo": 120.0
            },
            {
                "start_time": 78.56136363636364,
                "end_time": 79.84772727272727,
                "pitch": 67,
                "velocity": 80,
                "duration": 1.2863636363636317,
                "tempo": 120.0
            },
            {
                "start_time": 79.84772727272727,
                "end_time": 80.16818181818181,
                "pitch": 66,
                "velocity": 80,
                "duration": 0.3204545454545382,
                "tempo": 120.0
            },
            {
                "start_time": 79.20454545454545,
                "end_time": 80.17045454545455,
                "pitch": 44,
                "velocity": 80,
                "duration": 0.9659090909090935,
                "tempo": 120.0
            },
            {
                "start_time": 80.16818181818181,
                "end_time": 80.17045454545455,
                "pitch": 44,
                "velocity": 80,
                "duration": 0.0022727272727394165,
                "tempo": 120.0
            },
            {
                "start_time": 80.17045454545455,
                "end_time": 80.65227272727272,
                "pitch": 71,
                "velocity": 80,
                "duration": 0.48181818181816993,
                "tempo": 120.0
            },
            {
                "start_time": 80.65227272727272,
                "end_time": 81.12727272727273,
                "pitch": 59,
                "velocity": 80,
                "duration": 0.4750000000000085,
                "tempo": 120.0
            },
            {
                "start_time": 79.84772727272727,
                "end_time": 81.12727272727273,
                "pitch": 67,
                "velocity": 80,
                "duration": 1.279545454545456,
                "tempo": 120.0
            },
            {
                "start_time": 81.12727272727273,
                "end_time": 81.76363636363637,
                "pitch": 66,
                "velocity": 80,
                "duration": 0.6363636363636402,
                "tempo": 120.0
            },
            {
                "start_time": 81.76363636363637,
                "end_time": 82.40681818181818,
                "pitch": 59,
                "velocity": 80,
                "duration": 0.6431818181818159,
                "tempo": 120.0
            },
            {
                "start_time": 82.40681818181818,
                "end_time": 82.72954545454544,
                "pitch": 62,
                "velocity": 80,
                "duration": 0.3227272727272634,
                "tempo": 120.0
            },
            {
                "start_time": 81.12727272727273,
                "end_time": 83.21136363636363,
                "pitch": 67,
                "velocity": 80,
                "duration": 2.0840909090909037,
                "tempo": 120.0
            },
            {
                "start_time": 82.72954545454544,
                "end_time": 83.21136363636363,
                "pitch": 67,
                "velocity": 80,
                "duration": 0.48181818181818414,
                "tempo": 120.0
            },
            {
                "start_time": 83.21136363636363,
                "end_time": 83.68636363636364,
                "pitch": 59,
                "velocity": 80,
                "duration": 0.4750000000000085,
                "tempo": 120.0
            },
            {
                "start_time": 53.584090909090904,
                "end_time": 83.68636363636364,
                "pitch": 65,
                "velocity": 80,
                "duration": 30.102272727272734,
                "tempo": 120.0
            },
            {
                "start_time": 83.68636363636364,
                "end_time": 84.32272727272726,
                "pitch": 62,
                "velocity": 80,
                "duration": 0.636363636363626,
                "tempo": 120.0
            },
            {
                "start_time": 84.32272727272726,
                "end_time": 84.9659090909091,
                "pitch": 55,
                "velocity": 80,
                "duration": 0.6431818181818301,
                "tempo": 120.0
            },
            {
                "start_time": 84.9659090909091,
                "end_time": 85.28863636363636,
                "pitch": 61,
                "velocity": 80,
                "duration": 0.3227272727272634,
                "tempo": 120.0
            },
            {
                "start_time": 85.28863636363636,
                "end_time": 85.77045454545454,
                "pitch": 69,
                "velocity": 80,
                "duration": 0.48181818181818414,
                "tempo": 120.0
            },
            {
                "start_time": 85.77045454545454,
                "end_time": 86.25227272727273,
                "pitch": 57,
                "velocity": 80,
                "duration": 0.48181818181818414,
                "tempo": 120.0
            },
            {
                "start_time": 84.9659090909091,
                "end_time": 86.88863636363637,
                "pitch": 64,
                "velocity": 80,
                "duration": 1.922727272727272,
                "tempo": 120.0
            },
            {
                "start_time": 86.25227272727273,
                "end_time": 86.88863636363637,
                "pitch": 64,
                "velocity": 80,
                "duration": 0.6363636363636402,
                "tempo": 120.0
            },
            {
                "start_time": 86.88863636363637,
                "end_time": 87.52499999999999,
                "pitch": 64,
                "velocity": 80,
                "duration": 0.636363636363626,
                "tempo": 120.0
            },
            {
                "start_time": 86.25227272727273,
                "end_time": 87.52499999999999,
                "pitch": 66,
                "velocity": 80,
                "duration": 1.2727272727272663,
                "tempo": 120.0
            },
            {
                "start_time": 81.76363636363637,
                "end_time": 87.84772727272727,
                "pitch": 44,
                "velocity": 80,
                "duration": 6.084090909090904,
                "tempo": 120.0
            },
            {
                "start_time": 87.52499999999999,
                "end_time": 87.84772727272727,
                "pitch": 66,
                "velocity": 80,
                "duration": 0.32272727272727764,
                "tempo": 120.0
            },
            {
                "start_time": 87.52499999999999,
                "end_time": 87.84772727272727,
                "pitch": 66,
                "velocity": 80,
                "duration": 0.32272727272727764,
                "tempo": 120.0
            },
            {
                "start_time": 83.21136363636363,
                "end_time": 88.32954545454545,
                "pitch": 71,
                "velocity": 80,
                "duration": 5.118181818181824,
                "tempo": 120.0
            },
            {
                "start_time": 87.84772727272727,
                "end_time": 88.32954545454545,
                "pitch": 71,
                "velocity": 80,
                "duration": 0.48181818181818414,
                "tempo": 120.0
            },
            {
                "start_time": 88.32954545454545,
                "end_time": 88.81136363636364,
                "pitch": 59,
                "velocity": 80,
                "duration": 0.48181818181818414,
                "tempo": 120.0
            },
            {
                "start_time": 87.84772727272727,
                "end_time": 89.44772727272726,
                "pitch": 44,
                "velocity": 80,
                "duration": 1.5999999999999943,
                "tempo": 120.0
            },
            {
                "start_time": 88.81136363636364,
                "end_time": 89.44772727272726,
                "pitch": 66,
                "velocity": 80,
                "duration": 0.636363636363626,
                "tempo": 120.0
            },
            {
                "start_time": 89.44772727272726,
                "end_time": 90.0840909090909,
                "pitch": 59,
                "velocity": 80,
                "duration": 0.6363636363636402,
                "tempo": 120.0
            },
            {
                "start_time": 90.0840909090909,
                "end_time": 90.40681818181818,
                "pitch": 66,
                "velocity": 80,
                "duration": 0.32272727272727764,
                "tempo": 120.0
            },
            {
                "start_time": 90.40681818181818,
                "end_time": 90.88863636363637,
                "pitch": 71,
                "velocity": 80,
                "duration": 0.48181818181818414,
                "tempo": 120.0
            },
            {
                "start_time": 90.88863636363637,
                "end_time": 91.37045454545454,
                "pitch": 59,
                "velocity": 80,
                "duration": 0.48181818181816993,
                "tempo": 120.0
            },
            {
                "start_time": 88.81136363636364,
                "end_time": 91.37045454545454,
                "pitch": 67,
                "velocity": 80,
                "duration": 2.559090909090898,
                "tempo": 120.0
            },
            {
                "start_time": 89.44772727272726,
                "end_time": 92.01363636363637,
                "pitch": 44,
                "velocity": 80,
                "duration": 2.565909090909102,
                "tempo": 120.0
            },
            {
                "start_time": 91.37045454545454,
                "end_time": 92.01363636363637,
                "pitch": 66,
                "velocity": 80,
                "duration": 0.6431818181818301,
                "tempo": 120.0
            },
            {
                "start_time": 92.01363636363637,
                "end_time": 92.65681818181818,
                "pitch": 59,
                "velocity": 80,
                "duration": 0.6431818181818159,
                "tempo": 120.0
            },
            {
                "start_time": 92.65681818181818,
                "end_time": 92.97954545454544,
                "pitch": 62,
                "velocity": 80,
                "duration": 0.3227272727272634,
                "tempo": 120.0
            },
            {
                "start_time": 91.37045454545454,
                "end_time": 93.44999999999999,
                "pitch": 67,
                "velocity": 80,
                "duration": 2.0795454545454533,
                "tempo": 120.0
            },
            {
                "start_time": 92.97954545454544,
                "end_time": 93.44999999999999,
                "pitch": 67,
                "velocity": 80,
                "duration": 0.4704545454545439,
                "tempo": 120.0
            },
            {
                "start_time": 93.44999999999999,
                "end_time": 93.92954545454545,
                "pitch": 59,
                "velocity": 80,
                "duration": 0.47954545454545894,
                "tempo": 120.0
            },
            {
                "start_time": 83.68636363636364,
                "end_time": 93.92954545454545,
                "pitch": 65,
                "velocity": 80,
                "duration": 10.24318181818181,
                "tempo": 120.0
            },
            {
                "start_time": 93.92954545454545,
                "end_time": 94.57272727272726,
                "pitch": 62,
                "velocity": 80,
                "duration": 0.6431818181818159,
                "tempo": 120.0
            },
            {
                "start_time": 94.57272727272726,
                "end_time": 95.21590909090908,
                "pitch": 55,
                "velocity": 80,
                "duration": 0.6431818181818159,
                "tempo": 120.0
            },
            {
                "start_time": 95.21590909090908,
                "end_time": 95.53863636363636,
                "pitch": 64,
                "velocity": 80,
                "duration": 0.32272727272727764,
                "tempo": 120.0
            },
            {
                "start_time": 95.53863636363636,
                "end_time": 96.02045454545454,
                "pitch": 69,
                "velocity": 80,
                "duration": 0.48181818181818414,
                "tempo": 120.0
            },
            {
                "start_time": 57.590909090909086,
                "end_time": 96.02045454545454,
                "pitch": 76,
                "velocity": 80,
                "duration": 38.429545454545455,
                "tempo": 120.0
            },
            {
                "start_time": 96.02045454545454,
                "end_time": 96.49545454545454,
                "pitch": 61,
                "velocity": 80,
                "duration": 0.4749999999999943,
                "tempo": 120.0
            },
            {
                "start_time": 52.461363636363636,
                "end_time": 97.13181818181818,
                "pitch": 32,
                "velocity": 80,
                "duration": 44.67045454545454,
                "tempo": 120.0
            },
            {
                "start_time": 96.49545454545454,
                "end_time": 97.13181818181818,
                "pitch": 64,
                "velocity": 80,
                "duration": 0.6363636363636402,
                "tempo": 120.0
            },
            {
                "start_time": 96.49545454545454,
                "end_time": 97.13181818181818,
                "pitch": 64,
                "velocity": 80,
                "duration": 0.6363636363636402,
                "tempo": 120.0
            },
            {
                "start_time": 97.13181818181818,
                "end_time": 97.77499999999999,
                "pitch": 57,
                "velocity": 80,
                "duration": 0.6431818181818159,
                "tempo": 120.0
            },
            {
                "start_time": 92.01363636363637,
                "end_time": 98.09772727272727,
                "pitch": 44,
                "velocity": 80,
                "duration": 6.084090909090904,
                "tempo": 120.0
            },
            {
                "start_time": 95.21590909090908,
                "end_time": 98.09772727272727,
                "pitch": 66,
                "velocity": 80,
                "duration": 2.88181818181819,
                "tempo": 120.0
            },
            {
                "start_time": 97.77499999999999,
                "end_time": 98.09772727272727,
                "pitch": 66,
                "velocity": 80,
                "duration": 0.32272727272727764,
                "tempo": 120.0
            },
            {
                "start_time": 93.44999999999999,
                "end_time": 98.57954545454545,
                "pitch": 71,
                "velocity": 80,
                "duration": 5.129545454545465,
                "tempo": 120.0
            },
            {
                "start_time": 98.09772727272727,
                "end_time": 98.57954545454545,
                "pitch": 71,
                "velocity": 80,
                "duration": 0.48181818181818414,
                "tempo": 120.0
            },
            {
                "start_time": 98.57954545454545,
                "end_time": 99.05454545454545,
                "pitch": 59,
                "velocity": 80,
                "duration": 0.4749999999999943,
                "tempo": 120.0
            },
            {
                "start_time": 97.77499999999999,
                "end_time": 99.05454545454545,
                "pitch": 67,
                "velocity": 80,
                "duration": 1.279545454545456,
                "tempo": 120.0
            },
            {
                "start_time": 99.05454545454545,
                "end_time": 99.69090909090909,
                "pitch": 66,
                "velocity": 80,
                "duration": 0.6363636363636402,
                "tempo": 120.0
            },
            {
                "start_time": 98.09772727272727,
                "end_time": 99.69318181818181,
                "pitch": 44,
                "velocity": 80,
                "duration": 1.595454545454544,
                "tempo": 120.0
            },
            {
                "start_time": 99.69090909090909,
                "end_time": 99.69318181818181,
                "pitch": 44,
                "velocity": 80,
                "duration": 0.0022727272727252057,
                "tempo": 120.0
            },
            {
                "start_time": 99.69318181818181,
                "end_time": 100.33636363636363,
                "pitch": 59,
                "velocity": 80,
                "duration": 0.6431818181818159,
                "tempo": 120.0
            },
            {
                "start_time": 100.33636363636363,
                "end_time": 100.65681818181818,
                "pitch": 66,
                "velocity": 80,
                "duration": 0.32045454545455243,
                "tempo": 120.0
            },
            {
                "start_time": 100.65681818181818,
                "end_time": 101.13863636363637,
                "pitch": 71,
                "velocity": 80,
                "duration": 0.48181818181818414,
                "tempo": 120.0
            },
            {
                "start_time": 101.13863636363637,
                "end_time": 101.62045454545454,
                "pitch": 62,
                "velocity": 80,
                "duration": 0.48181818181816993,
                "tempo": 120.0
            },
            {
                "start_time": 101.62272727272727,
                "end_time": 102.1,
                "pitch": 66,
                "velocity": 80,
                "duration": 0.4772727272727195,
                "tempo": 120.0
            }
        ],
        "Vibraphone": [
            {
                "start_time": 102.89318181818182,
                "end_time": 103.53863636363636,
                "pitch": 66,
                "velocity": 101,
                "duration": 0.6454545454545411,
                "tempo": 120.0
            },
            {
                "start_time": 103.53863636363636,
                "end_time": 104.02045454545454,
                "pitch": 73,
                "velocity": 101,
                "duration": 0.48181818181818414,
                "tempo": 120.0
            },
            {
                "start_time": 104.02045454545454,
                "end_time": 104.50227272727273,
                "pitch": 71,
                "velocity": 101,
                "duration": 0.48181818181818414,
                "tempo": 120.0
            },
            {
                "start_time": 104.50227272727273,
                "end_time": 105.45227272727273,
                "pitch": 71,
                "velocity": 101,
                "duration": 0.9500000000000028,
                "tempo": 120.0
            },
            {
                "start_time": 105.45227272727273,
                "end_time": 106.09772727272727,
                "pitch": 73,
                "velocity": 101,
                "duration": 0.6454545454545411,
                "tempo": 120.0
            },
            {
                "start_time": 105.45227272727273,
                "end_time": 106.57954545454545,
                "pitch": 76,
                "velocity": 101,
                "duration": 1.1272727272727252,
                "tempo": 120.0
            },
            {
                "start_time": 106.09772727272727,
                "end_time": 106.57954545454545,
                "pitch": 76,
                "velocity": 101,
                "duration": 0.48181818181818414,
                "tempo": 120.0
            },
            {
                "start_time": 106.57954545454545,
                "end_time": 107.06136363636364,
                "pitch": 78,
                "velocity": 101,
                "duration": 0.48181818181818414,
                "tempo": 120.0
            },
            {
                "start_time": 107.06136363636364,
                "end_time": 108.02727272727272,
                "pitch": 74,
                "velocity": 101,
                "duration": 0.9659090909090793,
                "tempo": 120.0
            },
            {
                "start_time": 104.02045454545454,
                "end_time": 108.67045454545455,
                "pitch": 56,
                "velocity": 101,
                "duration": 4.650000000000006,
                "tempo": 120.0
            },
            {
                "start_time": 108.02727272727272,
                "end_time": 108.67045454545455,
                "pitch": 76,
                "velocity": 101,
                "duration": 0.6431818181818301,
                "tempo": 120.0
            },
            {
                "start_time": 108.67045454545455,
                "end_time": 109.14772727272727,
                "pitch": 71,
                "velocity": 101,
                "duration": 0.4772727272727195,
                "tempo": 120.0
            },
            {
                "start_time": 109.14772727272727,
                "end_time": 109.62045454545454,
                "pitch": 71,
                "velocity": 101,
                "duration": 0.4727272727272691,
                "tempo": 120.0
            },
            {
                "start_time": 109.62045454545454,
                "end_time": 110.58636363636363,
                "pitch": 74,
                "velocity": 101,
                "duration": 0.9659090909090935,
                "tempo": 120.0
            },
            {
                "start_time": 110.58636363636363,
                "end_time": 111.06818181818181,
                "pitch": 78,
                "velocity": 101,
                "duration": 0.48181818181818414,
                "tempo": 120.0
            },
            {
                "start_time": 108.67045454545455,
                "end_time": 111.38863636363635,
                "pitch": 56,
                "velocity": 101,
                "duration": 2.7181818181818045,
                "tempo": 120.0
            },
            {
                "start_time": 111.06818181818181,
                "end_time": 111.38863636363635,
                "pitch": 76,
                "velocity": 101,
                "duration": 0.3204545454545382,
                "tempo": 120.0
            },
            {
                "start_time": 111.38863636363635,
                "end_time": 111.86590909090908,
                "pitch": 83,
                "velocity": 101,
                "duration": 0.47727272727273373,
                "tempo": 120.0
            },
            {
                "start_time": 111.86590909090908,
                "end_time": 112.50227272727273,
                "pitch": 78,
                "velocity": 101,
                "duration": 0.6363636363636402,
                "tempo": 120.0
            },
            {
                "start_time": 111.38863636363635,
                "end_time": 113.14545454545454,
                "pitch": 56,
                "velocity": 101,
                "duration": 1.7568181818181898,
                "tempo": 120.0
            },
            {
                "start_time": 112.50227272727273,
                "end_time": 113.14545454545454,
                "pitch": 74,
                "velocity": 101,
                "duration": 0.6431818181818159,
                "tempo": 120.0
            },
            {
                "start_time": 112.50227272727273,
                "end_time": 113.14545454545454,
                "pitch": 74,
                "velocity": 101,
                "duration": 0.6431818181818159,
                "tempo": 120.0
            },
            {
                "start_time": 113.14545454545454,
                "end_time": 113.78863636363636,
                "pitch": 71,
                "velocity": 101,
                "duration": 0.6431818181818159,
                "tempo": 120.0
            },
            {
                "start_time": 113.78863636363636,
                "end_time": 114.26818181818182,
                "pitch": 62,
                "velocity": 101,
                "duration": 0.47954545454545894,
                "tempo": 120.0
            },
            {
                "start_time": 114.26818181818182,
                "end_time": 114.73863636363636,
                "pitch": 67,
                "velocity": 101,
                "duration": 0.4704545454545439,
                "tempo": 120.0
            },
            {
                "start_time": 114.73863636363636,
                "end_time": 115.70454545454545,
                "pitch": 71,
                "velocity": 101,
                "duration": 0.9659090909090935,
                "tempo": 120.0
            },
            {
                "start_time": 114.73863636363636,
                "end_time": 115.70454545454545,
                "pitch": 71,
                "velocity": 101,
                "duration": 0.9659090909090935,
                "tempo": 120.0
            },
            {
                "start_time": 115.70454545454545,
                "end_time": 116.34772727272727,
                "pitch": 73,
                "velocity": 101,
                "duration": 0.6431818181818159,
                "tempo": 120.0
            },
            {
                "start_time": 116.34772727272727,
                "end_time": 116.82954545454545,
                "pitch": 64,
                "velocity": 101,
                "duration": 0.48181818181818414,
                "tempo": 120.0
            },
            {
                "start_time": 116.82954545454545,
                "end_time": 117.31136363636364,
                "pitch": 71,
                "velocity": 101,
                "duration": 0.48181818181818414,
                "tempo": 120.0
            },
            {
                "start_time": 117.31136363636364,
                "end_time": 120.82954545454545,
                "pitch": 74,
                "velocity": 101,
                "duration": 3.518181818181816,
                "tempo": 120.0
            },
            {
                "start_time": 120.82954545454545,
                "end_time": 121.30681818181817,
                "pitch": 78,
                "velocity": 101,
                "duration": 0.4772727272727195,
                "tempo": 120.0
            },
            {
                "start_time": 120.82954545454545,
                "end_time": 121.30681818181817,
                "pitch": 78,
                "velocity": 101,
                "duration": 0.4772727272727195,
                "tempo": 120.0
            },
            {
                "start_time": 113.14545454545454,
                "end_time": 121.63181818181818,
                "pitch": 56,
                "velocity": 101,
                "duration": 8.486363636363635,
                "tempo": 120.0
            },
            {
                "start_time": 115.70454545454545,
                "end_time": 121.63181818181818,
                "pitch": 76,
                "velocity": 101,
                "duration": 5.927272727272722,
                "tempo": 120.0
            },
            {
                "start_time": 121.30681818181817,
                "end_time": 121.63181818181818,
                "pitch": 76,
                "velocity": 101,
                "duration": 0.32500000000000284,
                "tempo": 120.0
            },
            {
                "start_time": 121.63181818181818,
                "end_time": 122.425,
                "pitch": 83,
                "velocity": 101,
                "duration": 0.7931818181818215,
                "tempo": 120.0
            }
        ],
        "Electric Piano 1": [
            {
                "start_time": 0.09999999999999999,
                "end_time": 2.668181818181818,
                "pitch": 52,
                "velocity": 64,
                "duration": 2.568181818181818,
                "tempo": 120.0
            },
            {
                "start_time": 2.668181818181818,
                "end_time": 5.227272727272727,
                "pitch": 60,
                "velocity": 64,
                "duration": 2.5590909090909086,
                "tempo": 120.0
            },
            {
                "start_time": 5.227272727272727,
                "end_time": 7.786363636363636,
                "pitch": 64,
                "velocity": 64,
                "duration": 2.5590909090909095,
                "tempo": 120.0
            },
            {
                "start_time": 5.227272727272727,
                "end_time": 7.786363636363636,
                "pitch": 64,
                "velocity": 64,
                "duration": 2.5590909090909095,
                "tempo": 120.0
            },
            {
                "start_time": 7.786363636363636,
                "end_time": 10.345454545454546,
                "pitch": 64,
                "velocity": 64,
                "duration": 2.5590909090909095,
                "tempo": 120.0
            },
            {
                "start_time": 10.345454545454546,
                "end_time": 10.827272727272726,
                "pitch": 55,
                "velocity": 64,
                "duration": 0.4818181818181806,
                "tempo": 120.0
            },
            {
                "start_time": 10.827272727272726,
                "end_time": 10.847727272727273,
                "pitch": 55,
                "velocity": 64,
                "duration": 0.02045454545454639,
                "tempo": 120.0
            },
            {
                "start_time": 10.847727272727273,
                "end_time": 11.027272727272727,
                "pitch": 55,
                "velocity": 64,
                "duration": 0.17954545454545467,
                "tempo": 120.0
            },
            {
                "start_time": 11.027272727272727,
                "end_time": 11.047727272727272,
                "pitch": 55,
                "velocity": 64,
                "duration": 0.020454545454544615,
                "tempo": 120.0
            },
            {
                "start_time": 11.047727272727272,
                "end_time": 11.229545454545454,
                "pitch": 55,
                "velocity": 64,
                "duration": 0.18181818181818166,
                "tempo": 120.0
            },
            {
                "start_time": 11.229545454545454,
                "end_time": 11.25,
                "pitch": 55,
                "velocity": 64,
                "duration": 0.02045454545454639,
                "tempo": 120.0
            },
            {
                "start_time": 11.25,
                "end_time": 11.429545454545455,
                "pitch": 55,
                "velocity": 64,
                "duration": 0.17954545454545467,
                "tempo": 120.0
            },
            {
                "start_time": 11.429545454545455,
                "end_time": 11.45,
                "pitch": 55,
                "velocity": 64,
                "duration": 0.020454545454544615,
                "tempo": 120.0
            },
            {
                "start_time": 11.45,
                "end_time": 11.631818181818181,
                "pitch": 55,
                "velocity": 64,
                "duration": 0.18181818181818166,
                "tempo": 120.0
            },
            {
                "start_time": 11.631818181818181,
                "end_time": 11.649999999999999,
                "pitch": 55,
                "velocity": 64,
                "duration": 0.018181818181817633,
                "tempo": 120.0
            },
            {
                "start_time": 11.649999999999999,
                "end_time": 11.831818181818182,
                "pitch": 55,
                "velocity": 64,
                "duration": 0.18181818181818343,
                "tempo": 120.0
            },
            {
                "start_time": 11.45,
                "end_time": 11.852272727272727,
                "pitch": 0,
                "velocity": 64,
                "duration": 0.40227272727272734,
                "tempo": 120.0
            },
            {
                "start_time": 11.831818181818182,
                "end_time": 11.852272727272727,
                "pitch": 55,
                "velocity": 64,
                "duration": 0.020454545454544615,
                "tempo": 120.0
            },
            {
                "start_time": 11.852272727272727,
                "end_time": 12.031818181818181,
                "pitch": 55,
                "velocity": 64,
                "duration": 0.17954545454545467,
                "tempo": 120.0
            },
            {
                "start_time": 11.852272727272727,
                "end_time": 12.052272727272726,
                "pitch": 0,
                "velocity": 64,
                "duration": 0.1999999999999993,
                "tempo": 120.0
            },
            {
                "start_time": 12.031818181818181,
                "end_time": 12.052272727272726,
                "pitch": 55,
                "velocity": 64,
                "duration": 0.020454545454544615,
                "tempo": 120.0
            },
            {
                "start_time": 12.052272727272726,
                "end_time": 12.23409090909091,
                "pitch": 55,
                "velocity": 64,
                "duration": 0.18181818181818343,
                "tempo": 120.0
            },
            {
                "start_time": 12.052272727272726,
                "end_time": 12.254545454545454,
                "pitch": 0,
                "velocity": 64,
                "duration": 0.20227272727272805,
                "tempo": 120.0
            },
            {
                "start_time": 12.23409090909091,
                "end_time": 12.254545454545454,
                "pitch": 55,
                "velocity": 64,
                "duration": 0.020454545454544615,
                "tempo": 120.0
            },
            {
                "start_time": 12.254545454545454,
                "end_time": 12.434090909090909,
                "pitch": 55,
                "velocity": 64,
                "duration": 0.17954545454545467,
                "tempo": 120.0
            },
            {
                "start_time": 12.254545454545454,
                "end_time": 12.454545454545453,
                "pitch": 0,
                "velocity": 64,
                "duration": 0.1999999999999993,
                "tempo": 120.0
            },
            {
                "start_time": 12.434090909090909,
                "end_time": 12.454545454545453,
                "pitch": 55,
                "velocity": 64,
                "duration": 0.020454545454544615,
                "tempo": 120.0
            },
            {
                "start_time": 12.454545454545453,
                "end_time": 12.636363636363635,
                "pitch": 55,
                "velocity": 64,
                "duration": 0.18181818181818166,
                "tempo": 120.0
            },
            {
                "start_time": 12.434090909090909,
                "end_time": 12.636363636363635,
                "pitch": 67,
                "velocity": 64,
                "duration": 0.20227272727272627,
                "tempo": 120.0
            },
            {
                "start_time": 12.454545454545453,
                "end_time": 12.656818181818181,
                "pitch": 0,
                "velocity": 64,
                "duration": 0.20227272727272805,
                "tempo": 120.0
            },
            {
                "start_time": 12.636363636363635,
                "end_time": 12.656818181818181,
                "pitch": 55,
                "velocity": 64,
                "duration": 0.02045454545454639,
                "tempo": 120.0
            },
            {
                "start_time": 12.656818181818181,
                "end_time": 12.836363636363636,
                "pitch": 55,
                "velocity": 64,
                "duration": 0.17954545454545467,
                "tempo": 120.0
            },
            {
                "start_time": 12.636363636363635,
                "end_time": 12.836363636363636,
                "pitch": 67,
                "velocity": 64,
                "duration": 0.20000000000000107,
                "tempo": 120.0
            },
            {
                "start_time": 12.656818181818181,
                "end_time": 12.85681818181818,
                "pitch": 0,
                "velocity": 64,
                "duration": 0.1999999999999993,
                "tempo": 120.0
            },
            {
                "start_time": 12.836363636363636,
                "end_time": 12.85681818181818,
                "pitch": 55,
                "velocity": 64,
                "duration": 0.020454545454544615,
                "tempo": 120.0
            },
            {
                "start_time": 12.85681818181818,
                "end_time": 12.918181818181818,
                "pitch": 55,
                "velocity": 64,
                "duration": 0.0613636363636374,
                "tempo": 120.0
            },
            {
                "start_time": 12.918181818181818,
                "end_time": 15.477272727272727,
                "pitch": 62,
                "velocity": 64,
                "duration": 2.5590909090909086,
                "tempo": 120.0
            },
            {
                "start_time": 15.477272727272727,
                "end_time": 20.28181818181818,
                "pitch": 60,
                "velocity": 64,
                "duration": 4.804545454545455,
                "tempo": 120.0
            },
            {
                "start_time": 15.477272727272727,
                "end_time": 20.28181818181818,
                "pitch": 60,
                "velocity": 64,
                "duration": 4.804545454545455,
                "tempo": 120.0
            },
            {
                "start_time": 20.75681818181818,
                "end_time": 21.4,
                "pitch": 57,
                "velocity": 64,
                "duration": 0.6431818181818194,
                "tempo": 120.0
            },
            {
                "start_time": 21.4,
                "end_time": 21.720454545454544,
                "pitch": 52,
                "velocity": 64,
                "duration": 0.3204545454545453,
                "tempo": 120.0
            },
            {
                "start_time": 21.720454545454544,
                "end_time": 22.363636363636363,
                "pitch": 59,
                "velocity": 64,
                "duration": 0.6431818181818194,
                "tempo": 120.0
            },
            {
                "start_time": 22.363636363636363,
                "end_time": 22.68181818181818,
                "pitch": 57,
                "velocity": 64,
                "duration": 0.31818181818181657,
                "tempo": 120.0
            },
            {
                "start_time": 22.363636363636363,
                "end_time": 22.68181818181818,
                "pitch": 57,
                "velocity": 64,
                "duration": 0.31818181818181657,
                "tempo": 120.0
            },
            {
                "start_time": 22.68181818181818,
                "end_time": 22.99772727272727,
                "pitch": 55,
                "velocity": 64,
                "duration": 0.31590909090909136,
                "tempo": 120.0
            },
            {
                "start_time": 22.99772727272727,
                "end_time": 25.56590909090909,
                "pitch": 60,
                "velocity": 64,
                "duration": 2.56818181818182,
                "tempo": 120.0
            },
            {
                "start_time": 25.56590909090909,
                "end_time": 25.888636363636362,
                "pitch": 60,
                "velocity": 64,
                "duration": 0.32272727272727053,
                "tempo": 120.0
            },
            {
                "start_time": 25.888636363636362,
                "end_time": 26.527272727272727,
                "pitch": 59,
                "velocity": 64,
                "duration": 0.6386363636363654,
                "tempo": 120.0
            },
            {
                "start_time": 26.527272727272727,
                "end_time": 26.843181818181815,
                "pitch": 57,
                "velocity": 64,
                "duration": 0.3159090909090878,
                "tempo": 120.0
            },
            {
                "start_time": 26.527272727272727,
                "end_time": 26.843181818181815,
                "pitch": 57,
                "velocity": 64,
                "duration": 0.3159090909090878,
                "tempo": 120.0
            },
            {
                "start_time": 26.843181818181815,
                "end_time": 27.804545454545455,
                "pitch": 59,
                "velocity": 64,
                "duration": 0.9613636363636395,
                "tempo": 120.0
            },
            {
                "start_time": 26.843181818181815,
                "end_time": 27.804545454545455,
                "pitch": 59,
                "velocity": 64,
                "duration": 0.9613636363636395,
                "tempo": 120.0
            },
            {
                "start_time": 22.99772727272727,
                "end_time": 27.804545454545455,
                "pitch": 64,
                "velocity": 64,
                "duration": 4.806818181818183,
                "tempo": 120.0
            },
            {
                "start_time": 27.804545454545455,
                "end_time": 28.44772727272727,
                "pitch": 60,
                "velocity": 64,
                "duration": 0.6431818181818159,
                "tempo": 120.0
            },
            {
                "start_time": 28.44772727272727,
                "end_time": 31.00681818181818,
                "pitch": 52,
                "velocity": 64,
                "duration": 2.5590909090909086,
                "tempo": 120.0
            },
            {
                "start_time": 31.00681818181818,
                "end_time": 31.970454545454544,
                "pitch": 55,
                "velocity": 64,
                "duration": 0.9636363636363647,
                "tempo": 120.0
            },
            {
                "start_time": 31.970454545454544,
                "end_time": 32.92272727272727,
                "pitch": 57,
                "velocity": 64,
                "duration": 0.952272727272728,
                "tempo": 120.0
            },
            {
                "start_time": 25.888636363636362,
                "end_time": 33.56590909090909,
                "pitch": 45,
                "velocity": 64,
                "duration": 7.677272727272726,
                "tempo": 120.0
            },
            {
                "start_time": 32.92272727272727,
                "end_time": 33.56590909090909,
                "pitch": 60,
                "velocity": 64,
                "duration": 0.6431818181818159,
                "tempo": 120.0
            },
            {
                "start_time": 33.56590909090909,
                "end_time": 34.529545454545456,
                "pitch": 59,
                "velocity": 64,
                "duration": 0.9636363636363683,
                "tempo": 120.0
            },
            {
                "start_time": 27.804545454545455,
                "end_time": 34.53181818181818,
                "pitch": 64,
                "velocity": 64,
                "duration": 6.727272727272727,
                "tempo": 120.0
            },
            {
                "start_time": 34.529545454545456,
                "end_time": 34.53181818181818,
                "pitch": 64,
                "velocity": 64,
                "duration": 0.0022727272727252057,
                "tempo": 120.0
            },
            {
                "start_time": 34.53181818181818,
                "end_time": 35.49090909090909,
                "pitch": 60,
                "velocity": 64,
                "duration": 0.9590909090909108,
                "tempo": 120.0
            },
            {
                "start_time": 35.49090909090909,
                "end_time": 36.125,
                "pitch": 62,
                "velocity": 64,
                "duration": 0.6340909090909079,
                "tempo": 120.0
            },
            {
                "start_time": 36.125,
                "end_time": 40.61363636363636,
                "pitch": 64,
                "velocity": 64,
                "duration": 4.48863636363636,
                "tempo": 120.0
            },
            {
                "start_time": 40.61363636363636,
                "end_time": 41.25681818181818,
                "pitch": 62,
                "velocity": 64,
                "duration": 0.643181818181823,
                "tempo": 120.0
            },
            {
                "start_time": 41.25681818181818,
                "end_time": 42.22272727272727,
                "pitch": 60,
                "velocity": 64,
                "duration": 0.9659090909090864,
                "tempo": 120.0
            },
            {
                "start_time": 42.22272727272727,
                "end_time": 42.38181818181818,
                "pitch": 60,
                "velocity": 64,
                "duration": 0.1590909090909136,
                "tempo": 120.0
            },
            {
                "start_time": 42.38181818181818,
                "end_time": 42.54090909090909,
                "pitch": 59,
                "velocity": 64,
                "duration": 0.1590909090909065,
                "tempo": 120.0
            },
            {
                "start_time": 42.54090909090909,
                "end_time": 43.17272727272727,
                "pitch": 57,
                "velocity": 64,
                "duration": 0.6318181818181827,
                "tempo": 120.0
            },
            {
                "start_time": 42.54090909090909,
                "end_time": 43.17272727272727,
                "pitch": 57,
                "velocity": 64,
                "duration": 0.6318181818181827,
                "tempo": 120.0
            },
            {
                "start_time": 43.17272727272727,
                "end_time": 43.49545454545454,
                "pitch": 59,
                "velocity": 64,
                "duration": 0.32272727272727053,
                "tempo": 120.0
            },
            {
                "start_time": 43.49545454545454,
                "end_time": 43.81590909090909,
                "pitch": 60,
                "velocity": 64,
                "duration": 0.3204545454545453,
                "tempo": 120.0
            },
            {
                "start_time": 43.81590909090909,
                "end_time": 44.78181818181818,
                "pitch": 62,
                "velocity": 64,
                "duration": 0.9659090909090935,
                "tempo": 120.0
            },
            {
                "start_time": 44.78181818181818,
                "end_time": 44.94090909090909,
                "pitch": 62,
                "velocity": 64,
                "duration": 0.1590909090909065,
                "tempo": 120.0
            },
            {
                "start_time": 44.94090909090909,
                "end_time": 45.099999999999994,
                "pitch": 60,
                "velocity": 64,
                "duration": 0.1590909090909065,
                "tempo": 120.0
            },
            {
                "start_time": 45.099999999999994,
                "end_time": 45.73181818181818,
                "pitch": 59,
                "velocity": 64,
                "duration": 0.6318181818181827,
                "tempo": 120.0
            },
            {
                "start_time": 43.49545454545454,
                "end_time": 45.73181818181818,
                "pitch": 64,
                "velocity": 64,
                "duration": 2.2363636363636346,
                "tempo": 120.0
            },
            {
                "start_time": 45.73181818181818,
                "end_time": 46.054545454545455,
                "pitch": 60,
                "velocity": 64,
                "duration": 0.32272727272727764,
                "tempo": 120.0
            },
            {
                "start_time": 46.054545454545455,
                "end_time": 46.375,
                "pitch": 62,
                "velocity": 64,
                "duration": 0.3204545454545453,
                "tempo": 120.0
            },
            {
                "start_time": 46.375,
                "end_time": 48.459090909090904,
                "pitch": 62,
                "velocity": 64,
                "duration": 2.0840909090909037,
                "tempo": 120.0
            },
            {
                "start_time": 48.459090909090904,
                "end_time": 48.61590909090909,
                "pitch": 62,
                "velocity": 64,
                "duration": 0.1568181818181884,
                "tempo": 120.0
            },
            {
                "start_time": 33.56590909090909,
                "end_time": 48.775,
                "pitch": 45,
                "velocity": 64,
                "duration": 15.20909090909091,
                "tempo": 120.0
            },
            {
                "start_time": 48.61590909090909,
                "end_time": 48.775,
                "pitch": 60,
                "velocity": 64,
                "duration": 0.1590909090909065,
                "tempo": 120.0
            },
            {
                "start_time": 48.775,
                "end_time": 48.934090909090905,
                "pitch": 59,
                "velocity": 64,
                "duration": 0.1590909090909065,
                "tempo": 120.0
            },
            {
                "start_time": 45.73181818181818,
                "end_time": 48.934090909090905,
                "pitch": 64,
                "velocity": 64,
                "duration": 3.202272727272728,
                "tempo": 120.0
            },
            {
                "start_time": 48.934090909090905,
                "end_time": 49.57727272727273,
                "pitch": 60,
                "velocity": 64,
                "duration": 0.643181818181823,
                "tempo": 120.0
            },
            {
                "start_time": 49.57727272727273,
                "end_time": 50.220454545454544,
                "pitch": 57,
                "velocity": 64,
                "duration": 0.6431818181818159,
                "tempo": 120.0
            },
            {
                "start_time": 50.220454545454544,
                "end_time": 50.86363636363636,
                "pitch": 59,
                "velocity": 64,
                "duration": 0.6431818181818159,
                "tempo": 120.0
            },
            {
                "start_time": 50.220454545454544,
                "end_time": 50.86363636363636,
                "pitch": 59,
                "velocity": 64,
                "duration": 0.6431818181818159,
                "tempo": 120.0
            },
            {
                "start_time": 50.86363636363636,
                "end_time": 51.50681818181818,
                "pitch": 57,
                "velocity": 64,
                "duration": 0.643181818181823,
                "tempo": 120.0
            },
            {
                "start_time": 48.934090909090905,
                "end_time": 51.50681818181818,
                "pitch": 64,
                "velocity": 64,
                "duration": 2.5727272727272776,
                "tempo": 120.0
            },
            {
                "start_time": 51.50681818181818,
                "end_time": 52.46363636363636,
                "pitch": 60,
                "velocity": 64,
                "duration": 0.9568181818181785,
                "tempo": 120.0
            },
            {
                "start_time": 48.775,
                "end_time": 52.62045454545454,
                "pitch": 45,
                "velocity": 64,
                "duration": 3.845454545454544,
                "tempo": 120.0
            },
            {
                "start_time": 52.46363636363636,
                "end_time": 52.62045454545454,
                "pitch": 60,
                "velocity": 64,
                "duration": 0.1568181818181813,
                "tempo": 120.0
            },
            {
                "start_time": 52.62045454545454,
                "end_time": 52.77954545454545,
                "pitch": 59,
                "velocity": 64,
                "duration": 0.1590909090909065,
                "tempo": 120.0
            },
            {
                "start_time": 52.77954545454545,
                "end_time": 53.42272727272727,
                "pitch": 57,
                "velocity": 64,
                "duration": 0.643181818181823,
                "tempo": 120.0
            },
            {
                "start_time": 52.77954545454545,
                "end_time": 53.42272727272727,
                "pitch": 57,
                "velocity": 64,
                "duration": 0.643181818181823,
                "tempo": 120.0
            },
            {
                "start_time": 53.42272727272727,
                "end_time": 53.74545454545454,
                "pitch": 59,
                "velocity": 64,
                "duration": 0.32272727272727053,
                "tempo": 120.0
            },
            {
                "start_time": 53.42272727272727,
                "end_time": 53.74545454545454,
                "pitch": 59,
                "velocity": 64,
                "duration": 0.32272727272727053,
                "tempo": 120.0
            },
            {
                "start_time": 51.50681818181818,
                "end_time": 53.74545454545454,
                "pitch": 64,
                "velocity": 64,
                "duration": 2.2386363636363598,
                "tempo": 120.0
            },
            {
                "start_time": 52.62045454545454,
                "end_time": 54.06590909090909,
                "pitch": 45,
                "velocity": 64,
                "duration": 1.4454545454545453,
                "tempo": 120.0
            },
            {
                "start_time": 53.74545454545454,
                "end_time": 54.06590909090909,
                "pitch": 60,
                "velocity": 64,
                "duration": 0.3204545454545453,
                "tempo": 120.0
            },
            {
                "start_time": 54.06590909090909,
                "end_time": 55.03181818181818,
                "pitch": 59,
                "velocity": 64,
                "duration": 0.9659090909090935,
                "tempo": 120.0
            },
            {
                "start_time": 55.03181818181818,
                "end_time": 55.349999999999994,
                "pitch": 57,
                "velocity": 64,
                "duration": 0.318181818181813,
                "tempo": 120.0
            },
            {
                "start_time": 55.03181818181818,
                "end_time": 55.349999999999994,
                "pitch": 57,
                "velocity": 64,
                "duration": 0.318181818181813,
                "tempo": 120.0
            },
            {
                "start_time": 55.349999999999994,
                "end_time": 55.98181818181818,
                "pitch": 55,
                "velocity": 64,
                "duration": 0.6318181818181827,
                "tempo": 120.0
            },
            {
                "start_time": 55.98181818181818,
                "end_time": 56.625,
                "pitch": 50,
                "velocity": 64,
                "duration": 0.643181818181823,
                "tempo": 120.0
            },
            {
                "start_time": 56.627272727272725,
                "end_time": 58.70227272727272,
                "pitch": 52,
                "velocity": 64,
                "duration": 2.0749999999999957,
                "tempo": 120.0
            },
            {
                "start_time": 58.70454545454545,
                "end_time": 58.86363636363636,
                "pitch": 59,
                "velocity": 64,
                "duration": 0.1590909090909065,
                "tempo": 120.0
            },
            {
                "start_time": 53.74545454545454,
                "end_time": 58.86363636363636,
                "pitch": 64,
                "velocity": 64,
                "duration": 5.118181818181817,
                "tempo": 120.0
            },
            {
                "start_time": 58.86363636363636,
                "end_time": 59.025,
                "pitch": 60,
                "velocity": 64,
                "duration": 0.16136363636363882,
                "tempo": 120.0
            },
            {
                "start_time": 59.025,
                "end_time": 59.18636363636363,
                "pitch": 62,
                "velocity": 64,
                "duration": 0.1613636363636317,
                "tempo": 120.0
            },
            {
                "start_time": 59.18636363636363,
                "end_time": 59.82954545454545,
                "pitch": 68,
                "velocity": 64,
                "duration": 0.643181818181823,
                "tempo": 120.0
            },
            {
                "start_time": 58.86363636363636,
                "end_time": 60.47272727272727,
                "pitch": 64,
                "velocity": 64,
                "duration": 1.6090909090909093,
                "tempo": 120.0
            },
            {
                "start_time": 59.82954545454545,
                "end_time": 60.47272727272727,
                "pitch": 64,
                "velocity": 64,
                "duration": 0.6431818181818159,
                "tempo": 120.0
            },
            {
                "start_time": 54.06590909090909,
                "end_time": 61.27045454545454,
                "pitch": 45,
                "velocity": 64,
                "duration": 7.204545454545453,
                "tempo": 120.0
            },
            {
                "start_time": 60.47272727272727,
                "end_time": 61.27045454545454,
                "pitch": 62,
                "velocity": 64,
                "duration": 0.797727272727272,
                "tempo": 120.0
            },
            {
                "start_time": 61.27045454545454,
                "end_time": 61.42727272727272,
                "pitch": 59,
                "velocity": 64,
                "duration": 0.1568181818181813,
                "tempo": 120.0
            },
            {
                "start_time": 61.27045454545454,
                "end_time": 61.74545454545454,
                "pitch": 45,
                "velocity": 64,
                "duration": 0.4750000000000014,
                "tempo": 120.0
            },
            {
                "start_time": 61.42727272727272,
                "end_time": 61.74545454545454,
                "pitch": 60,
                "velocity": 64,
                "duration": 0.3181818181818201,
                "tempo": 120.0
            },
            {
                "start_time": 61.74545454545454,
                "end_time": 62.38863636363636,
                "pitch": 59,
                "velocity": 64,
                "duration": 0.6431818181818159,
                "tempo": 120.0
            },
            {
                "start_time": 12.836363636363636,
                "end_time": 62.38863636363636,
                "pitch": 67,
                "velocity": 64,
                "duration": 49.55227272727272,
                "tempo": 120.0
            },
            {
                "start_time": 62.38863636363636,
                "end_time": 62.709090909090904,
                "pitch": 54,
                "velocity": 64,
                "duration": 0.3204545454545453,
                "tempo": 120.0
            },
            {
                "start_time": 62.709090909090904,
                "end_time": 63.35227272727273,
                "pitch": 61,
                "velocity": 64,
                "duration": 0.643181818181823,
                "tempo": 120.0
            },
            {
                "start_time": 63.35227272727273,
                "end_time": 63.67045454545454,
                "pitch": 59,
                "velocity": 64,
                "duration": 0.318181818181813,
                "tempo": 120.0
            },
            {
                "start_time": 63.67045454545454,
                "end_time": 63.986363636363635,
                "pitch": 57,
                "velocity": 64,
                "duration": 0.3159090909090949,
                "tempo": 120.0
            },
            {
                "start_time": 63.67045454545454,
                "end_time": 63.986363636363635,
                "pitch": 57,
                "velocity": 64,
                "duration": 0.3159090909090949,
                "tempo": 120.0
            },
            {
                "start_time": 63.986363636363635,
                "end_time": 66.55454545454545,
                "pitch": 62,
                "velocity": 64,
                "duration": 2.568181818181813,
                "tempo": 120.0
            },
            {
                "start_time": 66.55454545454545,
                "end_time": 66.87727272727273,
                "pitch": 62,
                "velocity": 64,
                "duration": 0.32272727272727764,
                "tempo": 120.0
            },
            {
                "start_time": 61.74545454545454,
                "end_time": 67.52045454545454,
                "pitch": 45,
                "velocity": 64,
                "duration": 5.774999999999999,
                "tempo": 120.0
            },
            {
                "start_time": 66.87727272727273,
                "end_time": 67.52045454545454,
                "pitch": 61,
                "velocity": 64,
                "duration": 0.6431818181818159,
                "tempo": 120.0
            },
            {
                "start_time": 67.52045454545454,
                "end_time": 67.8409090909091,
                "pitch": 59,
                "velocity": 64,
                "duration": 0.32045454545455243,
                "tempo": 120.0
            },
            {
                "start_time": 67.8409090909091,
                "end_time": 68.79318181818182,
                "pitch": 61,
                "velocity": 64,
                "duration": 0.952272727272728,
                "tempo": 120.0
            },
            {
                "start_time": 68.79318181818182,
                "end_time": 69.43636363636364,
                "pitch": 62,
                "velocity": 64,
                "duration": 0.6431818181818159,
                "tempo": 120.0
            },
            {
                "start_time": 21.4,
                "end_time": 69.43636363636364,
                "pitch": 66,
                "velocity": 64,
                "duration": 48.03636363636364,
                "tempo": 120.0
            },
            {
                "start_time": 69.43636363636364,
                "end_time": 71.99545454545454,
                "pitch": 54,
                "velocity": 64,
                "duration": 2.559090909090898,
                "tempo": 120.0
            },
            {
                "start_time": 71.99545454545454,
                "end_time": 72.9590909090909,
                "pitch": 57,
                "velocity": 64,
                "duration": 0.9636363636363683,
                "tempo": 120.0
            },
            {
                "start_time": 72.9590909090909,
                "end_time": 73.91136363636363,
                "pitch": 59,
                "velocity": 64,
                "duration": 0.952272727272728,
                "tempo": 120.0
            },
            {
                "start_time": 72.9590909090909,
                "end_time": 73.91136363636363,
                "pitch": 59,
                "velocity": 64,
                "duration": 0.952272727272728,
                "tempo": 120.0
            },
            {
                "start_time": 55.98181818181818,
                "end_time": 73.91136363636363,
                "pitch": 65,
                "velocity": 64,
                "duration": 17.929545454545455,
                "tempo": 120.0
            },
            {
                "start_time": 73.91136363636363,
                "end_time": 74.55454545454545,
                "pitch": 62,
                "velocity": 64,
                "duration": 0.6431818181818159,
                "tempo": 120.0
            },
            {
                "start_time": 74.55454545454545,
                "end_time": 75.52045454545454,
                "pitch": 61,
                "velocity": 64,
                "duration": 0.9659090909090935,
                "tempo": 120.0
            },
            {
                "start_time": 75.52045454545454,
                "end_time": 76.47954545454544,
                "pitch": 62,
                "velocity": 64,
                "duration": 0.9590909090909037,
                "tempo": 120.0
            },
            {
                "start_time": 67.8409090909091,
                "end_time": 77.11363636363636,
                "pitch": 64,
                "velocity": 64,
                "duration": 9.272727272727266,
                "tempo": 120.0
            },
            {
                "start_time": 76.47954545454544,
                "end_time": 77.11363636363636,
                "pitch": 64,
                "velocity": 64,
                "duration": 0.634090909090915,
                "tempo": 120.0
            },
            {
                "start_time": 69.43636363636364,
                "end_time": 77.11363636363636,
                "pitch": 66,
                "velocity": 64,
                "duration": 7.677272727272722,
                "tempo": 120.0
            },
            {
                "start_time": 77.11363636363636,
                "end_time": 77.27499999999999,
                "pitch": 66,
                "velocity": 64,
                "duration": 0.1613636363636317,
                "tempo": 120.0
            },
            {
                "start_time": 77.11363636363636,
                "end_time": 77.27499999999999,
                "pitch": 66,
                "velocity": 64,
                "duration": 0.1613636363636317,
                "tempo": 120.0
            },
            {
                "start_time": 77.27499999999999,
                "end_time": 77.43636363636364,
                "pitch": 64,
                "velocity": 64,
                "duration": 0.16136363636364592,
                "tempo": 120.0
            },
            {
                "start_time": 77.43636363636364,
                "end_time": 81.60227272727272,
                "pitch": 66,
                "velocity": 64,
                "duration": 4.165909090909082,
                "tempo": 120.0
            },
            {
                "start_time": 81.60227272727272,
                "end_time": 82.24545454545454,
                "pitch": 64,
                "velocity": 64,
                "duration": 0.6431818181818159,
                "tempo": 120.0
            },
            {
                "start_time": 81.60227272727272,
                "end_time": 82.24545454545454,
                "pitch": 64,
                "velocity": 64,
                "duration": 0.6431818181818159,
                "tempo": 120.0
            },
            {
                "start_time": 82.24545454545454,
                "end_time": 83.21136363636363,
                "pitch": 62,
                "velocity": 64,
                "duration": 0.9659090909090935,
                "tempo": 120.0
            },
            {
                "start_time": 83.21136363636363,
                "end_time": 83.37045454545454,
                "pitch": 62,
                "velocity": 64,
                "duration": 0.1590909090909065,
                "tempo": 120.0
            },
            {
                "start_time": 67.52045454545454,
                "end_time": 83.52954545454546,
                "pitch": 45,
                "velocity": 64,
                "duration": 16.009090909090915,
                "tempo": 120.0
            },
            {
                "start_time": 83.37045454545454,
                "end_time": 83.52954545454546,
                "pitch": 61,
                "velocity": 64,
                "duration": 0.15909090909092072,
                "tempo": 120.0
            },
            {
                "start_time": 83.52954545454546,
                "end_time": 84.16136363636363,
                "pitch": 59,
                "velocity": 64,
                "duration": 0.6318181818181756,
                "tempo": 120.0
            },
            {
                "start_time": 84.16136363636363,
                "end_time": 84.48409090909091,
                "pitch": 61,
                "velocity": 64,
                "duration": 0.32272727272727764,
                "tempo": 120.0
            },
            {
                "start_time": 84.48409090909091,
                "end_time": 84.80454545454545,
                "pitch": 62,
                "velocity": 64,
                "duration": 0.3204545454545382,
                "tempo": 120.0
            },
            {
                "start_time": 84.16136363636363,
                "end_time": 85.77045454545454,
                "pitch": 64,
                "velocity": 64,
                "duration": 1.6090909090909093,
                "tempo": 120.0
            },
            {
                "start_time": 84.80454545454545,
                "end_time": 85.77045454545454,
                "pitch": 64,
                "velocity": 64,
                "duration": 0.9659090909090935,
                "tempo": 120.0
            },
            {
                "start_time": 85.77045454545454,
                "end_time": 85.93181818181817,
                "pitch": 64,
                "velocity": 64,
                "duration": 0.1613636363636317,
                "tempo": 120.0
            },
            {
                "start_time": 85.93181818181817,
                "end_time": 86.0909090909091,
                "pitch": 62,
                "velocity": 64,
                "duration": 0.15909090909092072,
                "tempo": 120.0
            },
            {
                "start_time": 86.0909090909091,
                "end_time": 86.73181818181818,
                "pitch": 61,
                "velocity": 64,
                "duration": 0.6409090909090907,
                "tempo": 120.0
            },
            {
                "start_time": 86.73181818181818,
                "end_time": 87.04545454545455,
                "pitch": 62,
                "velocity": 64,
                "duration": 0.3136363636363626,
                "tempo": 120.0
            },
            {
                "start_time": 87.04545454545455,
                "end_time": 87.36363636363636,
                "pitch": 64,
                "velocity": 64,
                "duration": 0.318181818181813,
                "tempo": 120.0
            },
            {
                "start_time": 87.36363636363636,
                "end_time": 89.44772727272726,
                "pitch": 64,
                "velocity": 64,
                "duration": 2.0840909090909037,
                "tempo": 120.0
            },
            {
                "start_time": 89.44772727272726,
                "end_time": 89.60681818181818,
                "pitch": 64,
                "velocity": 64,
                "duration": 0.15909090909092072,
                "tempo": 120.0
            },
            {
                "start_time": 89.60681818181818,
                "end_time": 89.76363636363637,
                "pitch": 62,
                "velocity": 64,
                "duration": 0.1568181818181813,
                "tempo": 120.0
            },
            {
                "start_time": 89.76363636363637,
                "end_time": 89.92272727272727,
                "pitch": 61,
                "velocity": 64,
                "duration": 0.1590909090909065,
                "tempo": 120.0
            },
            {
                "start_time": 83.52954545454546,
                "end_time": 90.56590909090909,
                "pitch": 45,
                "velocity": 64,
                "duration": 7.036363636363632,
                "tempo": 120.0
            },
            {
                "start_time": 89.92272727272727,
                "end_time": 90.56590909090909,
                "pitch": 62,
                "velocity": 64,
                "duration": 0.6431818181818159,
                "tempo": 120.0
            },
            {
                "start_time": 90.56590909090909,
                "end_time": 91.2090909090909,
                "pitch": 59,
                "velocity": 64,
                "duration": 0.6431818181818159,
                "tempo": 120.0
            },
            {
                "start_time": 91.2090909090909,
                "end_time": 91.21136363636363,
                "pitch": 64,
                "velocity": 64,
                "duration": 0.0022727272727252057,
                "tempo": 120.0
            },
            {
                "start_time": 90.56590909090909,
                "end_time": 91.85227272727272,
                "pitch": 45,
                "velocity": 64,
                "duration": 1.2863636363636317,
                "tempo": 120.0
            },
            {
                "start_time": 91.21136363636363,
                "end_time": 91.85227272727272,
                "pitch": 61,
                "velocity": 64,
                "duration": 0.6409090909090907,
                "tempo": 120.0
            },
            {
                "start_time": 91.85227272727272,
                "end_time": 92.49545454545454,
                "pitch": 59,
                "velocity": 64,
                "duration": 0.6431818181818159,
                "tempo": 120.0
            },
            {
                "start_time": 92.49545454545454,
                "end_time": 93.45227272727273,
                "pitch": 62,
                "velocity": 64,
                "duration": 0.9568181818181927,
                "tempo": 120.0
            },
            {
                "start_time": 93.45227272727273,
                "end_time": 93.60909090909091,
                "pitch": 62,
                "velocity": 64,
                "duration": 0.1568181818181813,
                "tempo": 120.0
            },
            {
                "start_time": 93.60909090909091,
                "end_time": 93.76818181818182,
                "pitch": 61,
                "velocity": 64,
                "duration": 0.1590909090909065,
                "tempo": 120.0
            },
            {
                "start_time": 91.85227272727272,
                "end_time": 93.77045454545454,
                "pitch": 45,
                "velocity": 64,
                "duration": 1.9181818181818215,
                "tempo": 120.0
            },
            {
                "start_time": 93.76818181818182,
                "end_time": 93.77045454545454,
                "pitch": 45,
                "velocity": 64,
                "duration": 0.0022727272727252057,
                "tempo": 120.0
            },
            {
                "start_time": 93.77045454545454,
                "end_time": 94.41136363636363,
                "pitch": 59,
                "velocity": 64,
                "duration": 0.6409090909090907,
                "tempo": 120.0
            },
            {
                "start_time": 94.41136363636363,
                "end_time": 94.73409090909091,
                "pitch": 61,
                "velocity": 64,
                "duration": 0.32272727272727764,
                "tempo": 120.0
            },
            {
                "start_time": 94.73409090909091,
                "end_time": 95.05454545454545,
                "pitch": 62,
                "velocity": 64,
                "duration": 0.3204545454545382,
                "tempo": 120.0
            },
            {
                "start_time": 94.41136363636363,
                "end_time": 96.02045454545454,
                "pitch": 64,
                "velocity": 64,
                "duration": 1.6090909090909093,
                "tempo": 120.0
            },
            {
                "start_time": 95.05454545454545,
                "end_time": 96.02045454545454,
                "pitch": 64,
                "velocity": 64,
                "duration": 0.9659090909090935,
                "tempo": 120.0
            },
            {
                "start_time": 96.02045454545454,
                "end_time": 96.18181818181817,
                "pitch": 64,
                "velocity": 64,
                "duration": 0.1613636363636317,
                "tempo": 120.0
            },
            {
                "start_time": 96.18181818181817,
                "end_time": 96.33863636363635,
                "pitch": 62,
                "velocity": 64,
                "duration": 0.1568181818181813,
                "tempo": 120.0
            },
            {
                "start_time": 96.33863636363635,
                "end_time": 96.97272727272727,
                "pitch": 61,
                "velocity": 64,
                "duration": 0.634090909090915,
                "tempo": 120.0
            },
            {
                "start_time": 49.57727272727273,
                "end_time": 97.29318181818181,
                "pitch": 33,
                "velocity": 64,
                "duration": 47.71590909090908,
                "tempo": 120.0
            },
            {
                "start_time": 96.97272727272727,
                "end_time": 97.29318181818181,
                "pitch": 66,
                "velocity": 64,
                "duration": 0.3204545454545382,
                "tempo": 120.0
            },
            {
                "start_time": 97.29318181818181,
                "end_time": 97.61590909090908,
                "pitch": 69,
                "velocity": 64,
                "duration": 0.32272727272727764,
                "tempo": 120.0
            },
            {
                "start_time": 97.61590909090908,
                "end_time": 102.2590909090909,
                "pitch": 71,
                "velocity": 64,
                "duration": 4.643181818181816,
                "tempo": 120.0
            },
            {
                "start_time": 97.61590909090908,
                "end_time": 102.2590909090909,
                "pitch": 71,
                "velocity": 64,
                "duration": 4.643181818181816,
                "tempo": 120.0
            },
            {
                "start_time": 102.57272727272726,
                "end_time": 105.13181818181818,
                "pitch": 54,
                "velocity": 64,
                "duration": 2.559090909090912,
                "tempo": 120.0
            },
            {
                "start_time": 105.13181818181818,
                "end_time": 107.70454545454545,
                "pitch": 62,
                "velocity": 64,
                "duration": 2.5727272727272776,
                "tempo": 120.0
            },
            {
                "start_time": 107.70454545454545,
                "end_time": 110.26363636363635,
                "pitch": 64,
                "velocity": 64,
                "duration": 2.559090909090898,
                "tempo": 120.0
            },
            {
                "start_time": 110.26363636363635,
                "end_time": 112.82272727272726,
                "pitch": 66,
                "velocity": 64,
                "duration": 2.559090909090912,
                "tempo": 120.0
            },
            {
                "start_time": 112.82272727272726,
                "end_time": 115.38181818181818,
                "pitch": 62,
                "velocity": 64,
                "duration": 2.559090909090912,
                "tempo": 120.0
            },
            {
                "start_time": 112.82272727272726,
                "end_time": 115.38181818181818,
                "pitch": 62,
                "velocity": 64,
                "duration": 2.559090909090912,
                "tempo": 120.0
            },
            {
                "start_time": 115.38181818181818,
                "end_time": 117.94090909090909,
                "pitch": 64,
                "velocity": 64,
                "duration": 2.559090909090912,
                "tempo": 120.0
            },
            {
                "start_time": 117.94318181818181,
                "end_time": 120.51363636363635,
                "pitch": 66,
                "velocity": 64,
                "duration": 2.570454545454538,
                "tempo": 120.0
            },
            {
                "start_time": 120.51363636363635,
                "end_time": 123.06590909090909,
                "pitch": 66,
                "velocity": 64,
                "duration": 2.5522727272727366,
                "tempo": 120.0
            }
        ],
        "Acoustic Bass": [
            {
                "start_time": 0.10227272727272727,
                "end_time": 0.5840909090909091,
                "pitch": 33,
                "velocity": 127,
                "duration": 0.4818181818181818,
                "tempo": 120.0
            },
            {
                "start_time": 0.5840909090909091,
                "end_time": 0.7454545454545454,
                "pitch": 33,
                "velocity": 127,
                "duration": 0.16136363636363626,
                "tempo": 120.0
            },
            {
                "start_time": 2.3454545454545452,
                "end_time": 2.506818181818182,
                "pitch": 31,
                "velocity": 127,
                "duration": 0.1613636363636366,
                "tempo": 120.0
            },
            {
                "start_time": 2.506818181818182,
                "end_time": 2.668181818181818,
                "pitch": 31,
                "velocity": 127,
                "duration": 0.16136363636363615,
                "tempo": 120.0
            },
            {
                "start_time": 2.668181818181818,
                "end_time": 3.15,
                "pitch": 33,
                "velocity": 127,
                "duration": 0.4818181818181819,
                "tempo": 120.0
            },
            {
                "start_time": 2.668181818181818,
                "end_time": 3.15,
                "pitch": 33,
                "velocity": 127,
                "duration": 0.4818181818181819,
                "tempo": 120.0
            },
            {
                "start_time": 3.15,
                "end_time": 3.311363636363636,
                "pitch": 33,
                "velocity": 127,
                "duration": 0.16136363636363615,
                "tempo": 120.0
            },
            {
                "start_time": 4.904545454545454,
                "end_time": 5.0659090909090905,
                "pitch": 31,
                "velocity": 127,
                "duration": 0.16136363636363615,
                "tempo": 120.0
            },
            {
                "start_time": 5.0659090909090905,
                "end_time": 5.227272727272727,
                "pitch": 31,
                "velocity": 127,
                "duration": 0.16136363636363615,
                "tempo": 120.0
            },
            {
                "start_time": 5.227272727272727,
                "end_time": 5.709090909090909,
                "pitch": 33,
                "velocity": 127,
                "duration": 0.48181818181818237,
                "tempo": 120.0
            },
            {
                "start_time": 5.227272727272727,
                "end_time": 5.709090909090909,
                "pitch": 33,
                "velocity": 127,
                "duration": 0.48181818181818237,
                "tempo": 120.0
            },
            {
                "start_time": 5.709090909090909,
                "end_time": 5.870454545454545,
                "pitch": 33,
                "velocity": 127,
                "duration": 0.16136363636363615,
                "tempo": 120.0
            },
            {
                "start_time": 7.470454545454545,
                "end_time": 7.629545454545454,
                "pitch": 31,
                "velocity": 127,
                "duration": 0.15909090909090917,
                "tempo": 120.0
            },
            {
                "start_time": 7.629545454545454,
                "end_time": 7.786363636363636,
                "pitch": 31,
                "velocity": 127,
                "duration": 0.1568181818181822,
                "tempo": 120.0
            },
            {
                "start_time": 7.786363636363636,
                "end_time": 8.268181818181818,
                "pitch": 33,
                "velocity": 127,
                "duration": 0.4818181818181815,
                "tempo": 120.0
            },
            {
                "start_time": 8.268181818181818,
                "end_time": 8.429545454545455,
                "pitch": 33,
                "velocity": 127,
                "duration": 0.16136363636363704,
                "tempo": 120.0
            },
            {
                "start_time": 10.029545454545454,
                "end_time": 10.188636363636363,
                "pitch": 31,
                "velocity": 127,
                "duration": 0.15909090909090828,
                "tempo": 120.0
            },
            {
                "start_time": 10.188636363636363,
                "end_time": 10.345454545454546,
                "pitch": 31,
                "velocity": 127,
                "duration": 0.15681818181818308,
                "tempo": 120.0
            },
            {
                "start_time": 10.345454545454546,
                "end_time": 10.827272727272726,
                "pitch": 36,
                "velocity": 127,
                "duration": 0.4818181818181806,
                "tempo": 120.0
            },
            {
                "start_time": 10.827272727272726,
                "end_time": 10.988636363636363,
                "pitch": 36,
                "velocity": 127,
                "duration": 0.16136363636363704,
                "tempo": 120.0
            },
            {
                "start_time": 12.595454545454546,
                "end_time": 12.756818181818181,
                "pitch": 36,
                "velocity": 127,
                "duration": 0.16136363636363527,
                "tempo": 120.0
            },
            {
                "start_time": 12.756818181818181,
                "end_time": 12.918181818181818,
                "pitch": 36,
                "velocity": 127,
                "duration": 0.16136363636363704,
                "tempo": 120.0
            },
            {
                "start_time": 12.918181818181818,
                "end_time": 13.399999999999999,
                "pitch": 35,
                "velocity": 127,
                "duration": 0.4818181818181806,
                "tempo": 120.0
            },
            {
                "start_time": 13.399999999999999,
                "end_time": 13.561363636363636,
                "pitch": 35,
                "velocity": 127,
                "duration": 0.16136363636363704,
                "tempo": 120.0
            },
            {
                "start_time": 15.154545454545454,
                "end_time": 15.31590909090909,
                "pitch": 31,
                "velocity": 127,
                "duration": 0.16136363636363527,
                "tempo": 120.0
            },
            {
                "start_time": 15.31590909090909,
                "end_time": 15.477272727272727,
                "pitch": 31,
                "velocity": 127,
                "duration": 0.16136363636363704,
                "tempo": 120.0
            },
            {
                "start_time": 15.477272727272727,
                "end_time": 15.959090909090909,
                "pitch": 33,
                "velocity": 127,
                "duration": 0.48181818181818237,
                "tempo": 120.0
            },
            {
                "start_time": 15.959090909090909,
                "end_time": 16.120454545454546,
                "pitch": 33,
                "velocity": 127,
                "duration": 0.16136363636363704,
                "tempo": 120.0
            },
            {
                "start_time": 17.71590909090909,
                "end_time": 17.875,
                "pitch": 31,
                "velocity": 127,
                "duration": 0.15909090909091006,
                "tempo": 120.0
            },
            {
                "start_time": 17.875,
                "end_time": 18.036363636363635,
                "pitch": 31,
                "velocity": 127,
                "duration": 0.16136363636363527,
                "tempo": 120.0
            },
            {
                "start_time": 18.036363636363635,
                "end_time": 18.35909090909091,
                "pitch": 33,
                "velocity": 127,
                "duration": 0.3227272727272741,
                "tempo": 120.0
            },
            {
                "start_time": 18.036363636363635,
                "end_time": 18.35909090909091,
                "pitch": 33,
                "velocity": 127,
                "duration": 0.3227272727272741,
                "tempo": 120.0
            },
            {
                "start_time": 12.918181818181818,
                "end_time": 18.518181818181816,
                "pitch": 21,
                "velocity": 127,
                "duration": 5.599999999999998,
                "tempo": 120.0
            },
            {
                "start_time": 18.35909090909091,
                "end_time": 18.518181818181816,
                "pitch": 21,
                "velocity": 127,
                "duration": 0.1590909090909065,
                "tempo": 120.0
            },
            {
                "start_time": 18.518181818181816,
                "end_time": 18.679545454545455,
                "pitch": 33,
                "velocity": 127,
                "duration": 0.16136363636363882,
                "tempo": 120.0
            },
            {
                "start_time": 19.002272727272725,
                "end_time": 19.161363636363635,
                "pitch": 21,
                "velocity": 127,
                "duration": 0.15909090909091006,
                "tempo": 120.0
            },
            {
                "start_time": 20.28181818181818,
                "end_time": 20.438636363636363,
                "pitch": 31,
                "velocity": 127,
                "duration": 0.1568181818181813,
                "tempo": 120.0
            },
            {
                "start_time": 20.438636363636363,
                "end_time": 20.595454545454544,
                "pitch": 31,
                "velocity": 127,
                "duration": 0.1568181818181813,
                "tempo": 120.0
            },
            {
                "start_time": 20.595454545454544,
                "end_time": 21.077272727272724,
                "pitch": 33,
                "velocity": 127,
                "duration": 0.4818181818181806,
                "tempo": 120.0
            },
            {
                "start_time": 20.595454545454544,
                "end_time": 21.077272727272724,
                "pitch": 33,
                "velocity": 127,
                "duration": 0.4818181818181806,
                "tempo": 120.0
            },
            {
                "start_time": 21.077272727272724,
                "end_time": 21.238636363636363,
                "pitch": 33,
                "velocity": 127,
                "duration": 0.16136363636363882,
                "tempo": 120.0
            },
            {
                "start_time": 22.84090909090909,
                "end_time": 22.99772727272727,
                "pitch": 31,
                "velocity": 127,
                "duration": 0.1568181818181813,
                "tempo": 120.0
            },
            {
                "start_time": 22.99772727272727,
                "end_time": 23.154545454545453,
                "pitch": 31,
                "velocity": 127,
                "duration": 0.1568181818181813,
                "tempo": 120.0
            },
            {
                "start_time": 23.154545454545453,
                "end_time": 23.636363636363637,
                "pitch": 33,
                "velocity": 127,
                "duration": 0.48181818181818414,
                "tempo": 120.0
            },
            {
                "start_time": 23.154545454545453,
                "end_time": 23.636363636363637,
                "pitch": 33,
                "velocity": 127,
                "duration": 0.48181818181818414,
                "tempo": 120.0
            },
            {
                "start_time": 23.636363636363637,
                "end_time": 23.797727272727272,
                "pitch": 33,
                "velocity": 127,
                "duration": 0.16136363636363527,
                "tempo": 120.0
            },
            {
                "start_time": 25.40681818181818,
                "end_time": 25.56590909090909,
                "pitch": 31,
                "velocity": 127,
                "duration": 0.15909090909091006,
                "tempo": 120.0
            },
            {
                "start_time": 25.56590909090909,
                "end_time": 25.727272727272727,
                "pitch": 31,
                "velocity": 127,
                "duration": 0.16136363636363527,
                "tempo": 120.0
            },
            {
                "start_time": 25.727272727272727,
                "end_time": 26.209090909090907,
                "pitch": 33,
                "velocity": 127,
                "duration": 0.4818181818181806,
                "tempo": 120.0
            },
            {
                "start_time": 26.209090909090907,
                "end_time": 26.370454545454542,
                "pitch": 33,
                "velocity": 127,
                "duration": 0.16136363636363527,
                "tempo": 120.0
            },
            {
                "start_time": 27.96590909090909,
                "end_time": 28.127272727272725,
                "pitch": 31,
                "velocity": 127,
                "duration": 0.16136363636363527,
                "tempo": 120.0
            },
            {
                "start_time": 28.127272727272725,
                "end_time": 28.286363636363635,
                "pitch": 31,
                "velocity": 127,
                "duration": 0.15909090909091006,
                "tempo": 120.0
            },
            {
                "start_time": 28.286363636363635,
                "end_time": 28.770454545454545,
                "pitch": 33,
                "velocity": 127,
                "duration": 0.48409090909090935,
                "tempo": 120.0
            },
            {
                "start_time": 28.286363636363635,
                "end_time": 28.770454545454545,
                "pitch": 33,
                "velocity": 127,
                "duration": 0.48409090909090935,
                "tempo": 120.0
            },
            {
                "start_time": 28.770454545454545,
                "end_time": 28.929545454545455,
                "pitch": 33,
                "velocity": 127,
                "duration": 0.15909090909091006,
                "tempo": 120.0
            },
            {
                "start_time": 30.525,
                "end_time": 30.686363636363634,
                "pitch": 31,
                "velocity": 127,
                "duration": 0.16136363636363527,
                "tempo": 120.0
            },
            {
                "start_time": 30.686363636363634,
                "end_time": 30.845454545454544,
                "pitch": 31,
                "velocity": 127,
                "duration": 0.15909090909091006,
                "tempo": 120.0
            },
            {
                "start_time": 10.345454545454546,
                "end_time": 30.845454545454544,
                "pitch": 40,
                "velocity": 127,
                "duration": 20.5,
                "tempo": 120.0
            },
            {
                "start_time": 30.845454545454544,
                "end_time": 31.329545454545453,
                "pitch": 36,
                "velocity": 127,
                "duration": 0.48409090909090935,
                "tempo": 120.0
            },
            {
                "start_time": 31.329545454545453,
                "end_time": 31.488636363636363,
                "pitch": 36,
                "velocity": 127,
                "duration": 0.15909090909091006,
                "tempo": 120.0
            },
            {
                "start_time": 33.08409090909091,
                "end_time": 33.24545454545454,
                "pitch": 36,
                "velocity": 127,
                "duration": 0.1613636363636317,
                "tempo": 120.0
            },
            {
                "start_time": 33.24545454545454,
                "end_time": 33.404545454545456,
                "pitch": 36,
                "velocity": 127,
                "duration": 0.1590909090909136,
                "tempo": 120.0
            },
            {
                "start_time": 33.404545454545456,
                "end_time": 33.888636363636365,
                "pitch": 35,
                "velocity": 127,
                "duration": 0.48409090909090935,
                "tempo": 120.0
            },
            {
                "start_time": 33.888636363636365,
                "end_time": 34.04772727272727,
                "pitch": 35,
                "velocity": 127,
                "duration": 0.1590909090909065,
                "tempo": 120.0
            },
            {
                "start_time": 35.65,
                "end_time": 35.80681818181818,
                "pitch": 31,
                "velocity": 127,
                "duration": 0.1568181818181813,
                "tempo": 120.0
            },
            {
                "start_time": 35.80681818181818,
                "end_time": 35.965909090909086,
                "pitch": 31,
                "velocity": 127,
                "duration": 0.1590909090909065,
                "tempo": 120.0
            },
            {
                "start_time": 35.965909090909086,
                "end_time": 36.44772727272727,
                "pitch": 33,
                "velocity": 127,
                "duration": 0.48181818181818414,
                "tempo": 120.0
            },
            {
                "start_time": 35.965909090909086,
                "end_time": 36.44772727272727,
                "pitch": 33,
                "velocity": 127,
                "duration": 0.48181818181818414,
                "tempo": 120.0
            },
            {
                "start_time": 36.44772727272727,
                "end_time": 36.60681818181818,
                "pitch": 33,
                "velocity": 127,
                "duration": 0.1590909090909065,
                "tempo": 120.0
            },
            {
                "start_time": 38.215909090909086,
                "end_time": 38.377272727272725,
                "pitch": 31,
                "velocity": 127,
                "duration": 0.16136363636363882,
                "tempo": 120.0
            },
            {
                "start_time": 38.377272727272725,
                "end_time": 38.538636363636364,
                "pitch": 31,
                "velocity": 127,
                "duration": 0.16136363636363882,
                "tempo": 120.0
            },
            {
                "start_time": 38.538636363636364,
                "end_time": 38.85909090909091,
                "pitch": 33,
                "velocity": 127,
                "duration": 0.3204545454545453,
                "tempo": 120.0
            },
            {
                "start_time": 33.404545454545456,
                "end_time": 39.02045454545454,
                "pitch": 21,
                "velocity": 127,
                "duration": 5.615909090909085,
                "tempo": 120.0
            },
            {
                "start_time": 38.85909090909091,
                "end_time": 39.02045454545454,
                "pitch": 21,
                "velocity": 127,
                "duration": 0.1613636363636317,
                "tempo": 120.0
            },
            {
                "start_time": 39.02045454545454,
                "end_time": 39.18181818181818,
                "pitch": 33,
                "velocity": 127,
                "duration": 0.16136363636363882,
                "tempo": 120.0
            },
            {
                "start_time": 39.502272727272725,
                "end_time": 39.663636363636364,
                "pitch": 21,
                "velocity": 127,
                "duration": 0.16136363636363882,
                "tempo": 120.0
            },
            {
                "start_time": 40.775,
                "end_time": 40.93636363636364,
                "pitch": 31,
                "velocity": 127,
                "duration": 0.16136363636363882,
                "tempo": 120.0
            },
            {
                "start_time": 40.93636363636364,
                "end_time": 41.09772727272727,
                "pitch": 31,
                "velocity": 127,
                "duration": 0.1613636363636317,
                "tempo": 120.0
            },
            {
                "start_time": 41.09772727272727,
                "end_time": 41.57954545454545,
                "pitch": 29,
                "velocity": 127,
                "duration": 0.48181818181818414,
                "tempo": 120.0
            },
            {
                "start_time": 41.57954545454545,
                "end_time": 41.74090909090909,
                "pitch": 29,
                "velocity": 127,
                "duration": 0.16136363636363882,
                "tempo": 120.0
            },
            {
                "start_time": 43.334090909090904,
                "end_time": 43.49545454545454,
                "pitch": 29,
                "velocity": 127,
                "duration": 0.16136363636363882,
                "tempo": 120.0
            },
            {
                "start_time": 43.49545454545454,
                "end_time": 43.65681818181818,
                "pitch": 29,
                "velocity": 127,
                "duration": 0.16136363636363882,
                "tempo": 120.0
            },
            {
                "start_time": 43.65681818181818,
                "end_time": 44.13863636363636,
                "pitch": 31,
                "velocity": 127,
                "duration": 0.48181818181817704,
                "tempo": 120.0
            },
            {
                "start_time": 44.13863636363636,
                "end_time": 44.3,
                "pitch": 31,
                "velocity": 127,
                "duration": 0.16136363636363882,
                "tempo": 120.0
            },
            {
                "start_time": 45.893181818181816,
                "end_time": 46.054545454545455,
                "pitch": 31,
                "velocity": 127,
                "duration": 0.16136363636363882,
                "tempo": 120.0
            },
            {
                "start_time": 46.054545454545455,
                "end_time": 46.215909090909086,
                "pitch": 31,
                "velocity": 127,
                "duration": 0.1613636363636317,
                "tempo": 120.0
            },
            {
                "start_time": 46.215909090909086,
                "end_time": 46.69772727272727,
                "pitch": 33,
                "velocity": 127,
                "duration": 0.48181818181818414,
                "tempo": 120.0
            },
            {
                "start_time": 46.215909090909086,
                "end_time": 46.69772727272727,
                "pitch": 33,
                "velocity": 127,
                "duration": 0.48181818181818414,
                "tempo": 120.0
            },
            {
                "start_time": 46.69772727272727,
                "end_time": 46.85909090909091,
                "pitch": 33,
                "velocity": 127,
                "duration": 0.16136363636363882,
                "tempo": 120.0
            },
            {
                "start_time": 48.459090909090904,
                "end_time": 48.61818181818182,
                "pitch": 31,
                "velocity": 127,
                "duration": 0.1590909090909136,
                "tempo": 120.0
            },
            {
                "start_time": 48.61818181818182,
                "end_time": 48.775,
                "pitch": 31,
                "velocity": 127,
                "duration": 0.1568181818181813,
                "tempo": 120.0
            },
            {
                "start_time": 48.775,
                "end_time": 49.25681818181818,
                "pitch": 33,
                "velocity": 127,
                "duration": 0.48181818181818414,
                "tempo": 120.0
            },
            {
                "start_time": 48.775,
                "end_time": 49.25681818181818,
                "pitch": 33,
                "velocity": 127,
                "duration": 0.48181818181818414,
                "tempo": 120.0
            },
            {
                "start_time": 49.25681818181818,
                "end_time": 49.418181818181814,
                "pitch": 33,
                "velocity": 127,
                "duration": 0.1613636363636317,
                "tempo": 120.0
            },
            {
                "start_time": 51.025,
                "end_time": 51.18636363636364,
                "pitch": 31,
                "velocity": 127,
                "duration": 0.16136363636363882,
                "tempo": 120.0
            },
            {
                "start_time": 51.18636363636364,
                "end_time": 51.34772727272727,
                "pitch": 31,
                "velocity": 127,
                "duration": 0.1613636363636317,
                "tempo": 120.0
            },
            {
                "start_time": 51.34772727272727,
                "end_time": 51.82954545454545,
                "pitch": 29,
                "velocity": 127,
                "duration": 0.48181818181818414,
                "tempo": 120.0
            },
            {
                "start_time": 51.82954545454545,
                "end_time": 51.990909090909085,
                "pitch": 29,
                "velocity": 127,
                "duration": 0.1613636363636317,
                "tempo": 120.0
            },
            {
                "start_time": 53.584090909090904,
                "end_time": 53.74545454545454,
                "pitch": 29,
                "velocity": 127,
                "duration": 0.16136363636363882,
                "tempo": 120.0
            },
            {
                "start_time": 53.74545454545454,
                "end_time": 53.90681818181818,
                "pitch": 29,
                "velocity": 127,
                "duration": 0.16136363636363882,
                "tempo": 120.0
            },
            {
                "start_time": 53.90681818181818,
                "end_time": 54.38863636363636,
                "pitch": 31,
                "velocity": 127,
                "duration": 0.48181818181817704,
                "tempo": 120.0
            },
            {
                "start_time": 54.38863636363636,
                "end_time": 54.55,
                "pitch": 31,
                "velocity": 127,
                "duration": 0.16136363636363882,
                "tempo": 120.0
            },
            {
                "start_time": 56.143181818181816,
                "end_time": 56.304545454545455,
                "pitch": 31,
                "velocity": 127,
                "duration": 0.16136363636363882,
                "tempo": 120.0
            },
            {
                "start_time": 56.304545454545455,
                "end_time": 56.465909090909086,
                "pitch": 31,
                "velocity": 127,
                "duration": 0.1613636363636317,
                "tempo": 120.0
            },
            {
                "start_time": 30.845454545454544,
                "end_time": 56.465909090909086,
                "pitch": 40,
                "velocity": 127,
                "duration": 25.620454545454542,
                "tempo": 120.0
            },
            {
                "start_time": 56.465909090909086,
                "end_time": 56.94772727272727,
                "pitch": 36,
                "velocity": 127,
                "duration": 0.48181818181818414,
                "tempo": 120.0
            },
            {
                "start_time": 56.94772727272727,
                "end_time": 57.10909090909091,
                "pitch": 36,
                "velocity": 127,
                "duration": 0.16136363636363882,
                "tempo": 120.0
            },
            {
                "start_time": 58.70454545454545,
                "end_time": 58.86363636363636,
                "pitch": 36,
                "velocity": 127,
                "duration": 0.1590909090909065,
                "tempo": 120.0
            },
            {
                "start_time": 58.86363636363636,
                "end_time": 59.025,
                "pitch": 36,
                "velocity": 127,
                "duration": 0.16136363636363882,
                "tempo": 120.0
            },
            {
                "start_time": 59.025,
                "end_time": 59.345454545454544,
                "pitch": 32,
                "velocity": 127,
                "duration": 0.3204545454545453,
                "tempo": 120.0
            },
            {
                "start_time": 59.34772727272727,
                "end_time": 59.506818181818176,
                "pitch": 20,
                "velocity": 127,
                "duration": 0.1590909090909065,
                "tempo": 120.0
            },
            {
                "start_time": 59.506818181818176,
                "end_time": 59.668181818181814,
                "pitch": 32,
                "velocity": 127,
                "duration": 0.16136363636363882,
                "tempo": 120.0
            },
            {
                "start_time": 59.990909090909085,
                "end_time": 60.15,
                "pitch": 20,
                "velocity": 127,
                "duration": 0.1590909090909136,
                "tempo": 120.0
            },
            {
                "start_time": 61.27045454545454,
                "end_time": 61.42727272727272,
                "pitch": 32,
                "velocity": 127,
                "duration": 0.1568181818181813,
                "tempo": 120.0
            },
            {
                "start_time": 61.42727272727272,
                "end_time": 61.584090909090904,
                "pitch": 32,
                "velocity": 127,
                "duration": 0.1568181818181813,
                "tempo": 120.0
            },
            {
                "start_time": 61.584090909090904,
                "end_time": 62.06590909090909,
                "pitch": 35,
                "velocity": 127,
                "duration": 0.48181818181818414,
                "tempo": 120.0
            },
            {
                "start_time": 61.584090909090904,
                "end_time": 62.06590909090909,
                "pitch": 35,
                "velocity": 127,
                "duration": 0.48181818181818414,
                "tempo": 120.0
            },
            {
                "start_time": 62.06590909090909,
                "end_time": 62.22727272727273,
                "pitch": 35,
                "velocity": 127,
                "duration": 0.16136363636363882,
                "tempo": 120.0
            },
            {
                "start_time": 63.82954545454545,
                "end_time": 63.986363636363635,
                "pitch": 33,
                "velocity": 127,
                "duration": 0.1568181818181813,
                "tempo": 120.0
            },
            {
                "start_time": 63.986363636363635,
                "end_time": 64.14318181818182,
                "pitch": 33,
                "velocity": 127,
                "duration": 0.1568181818181813,
                "tempo": 120.0
            },
            {
                "start_time": 64.14318181818182,
                "end_time": 64.625,
                "pitch": 35,
                "velocity": 127,
                "duration": 0.48181818181818414,
                "tempo": 120.0
            },
            {
                "start_time": 64.14318181818182,
                "end_time": 64.625,
                "pitch": 35,
                "velocity": 127,
                "duration": 0.48181818181818414,
                "tempo": 120.0
            },
            {
                "start_time": 64.625,
                "end_time": 64.78636363636363,
                "pitch": 35,
                "velocity": 127,
                "duration": 0.1613636363636317,
                "tempo": 120.0
            },
            {
                "start_time": 66.39545454545454,
                "end_time": 66.55454545454545,
                "pitch": 33,
                "velocity": 127,
                "duration": 0.1590909090909065,
                "tempo": 120.0
            },
            {
                "start_time": 66.55454545454545,
                "end_time": 66.7159090909091,
                "pitch": 33,
                "velocity": 127,
                "duration": 0.16136363636364592,
                "tempo": 120.0
            },
            {
                "start_time": 66.7159090909091,
                "end_time": 67.19772727272726,
                "pitch": 35,
                "velocity": 127,
                "duration": 0.48181818181816993,
                "tempo": 120.0
            },
            {
                "start_time": 66.7159090909091,
                "end_time": 67.19772727272726,
                "pitch": 35,
                "velocity": 127,
                "duration": 0.48181818181816993,
                "tempo": 120.0
            },
            {
                "start_time": 67.19772727272726,
                "end_time": 67.35909090909091,
                "pitch": 35,
                "velocity": 127,
                "duration": 0.16136363636364592,
                "tempo": 120.0
            },
            {
                "start_time": 68.95454545454545,
                "end_time": 69.11590909090908,
                "pitch": 33,
                "velocity": 127,
                "duration": 0.1613636363636317,
                "tempo": 120.0
            },
            {
                "start_time": 69.11590909090908,
                "end_time": 69.27499999999999,
                "pitch": 33,
                "velocity": 127,
                "duration": 0.1590909090909065,
                "tempo": 120.0
            },
            {
                "start_time": 69.27499999999999,
                "end_time": 69.7590909090909,
                "pitch": 35,
                "velocity": 127,
                "duration": 0.48409090909090935,
                "tempo": 120.0
            },
            {
                "start_time": 69.7590909090909,
                "end_time": 69.91818181818182,
                "pitch": 35,
                "velocity": 127,
                "duration": 0.15909090909092072,
                "tempo": 120.0
            },
            {
                "start_time": 71.51363636363637,
                "end_time": 71.675,
                "pitch": 33,
                "velocity": 127,
                "duration": 0.1613636363636317,
                "tempo": 120.0
            },
            {
                "start_time": 71.675,
                "end_time": 71.8340909090909,
                "pitch": 33,
                "velocity": 127,
                "duration": 0.1590909090909065,
                "tempo": 120.0
            },
            {
                "start_time": 71.8340909090909,
                "end_time": 72.31818181818181,
                "pitch": 38,
                "velocity": 127,
                "duration": 0.48409090909090935,
                "tempo": 120.0
            },
            {
                "start_time": 72.31818181818181,
                "end_time": 72.47727272727272,
                "pitch": 38,
                "velocity": 127,
                "duration": 0.1590909090909065,
                "tempo": 120.0
            },
            {
                "start_time": 74.07272727272726,
                "end_time": 74.23409090909091,
                "pitch": 38,
                "velocity": 127,
                "duration": 0.16136363636364592,
                "tempo": 120.0
            },
            {
                "start_time": 74.23409090909091,
                "end_time": 74.39318181818182,
                "pitch": 38,
                "velocity": 127,
                "duration": 0.1590909090909065,
                "tempo": 120.0
            },
            {
                "start_time": 74.39318181818182,
                "end_time": 74.87727272727273,
                "pitch": 37,
                "velocity": 127,
                "duration": 0.48409090909090935,
                "tempo": 120.0
            },
            {
                "start_time": 74.87727272727273,
                "end_time": 75.03636363636363,
                "pitch": 37,
                "velocity": 127,
                "duration": 0.1590909090909065,
                "tempo": 120.0
            },
            {
                "start_time": 76.63863636363637,
                "end_time": 76.79545454545455,
                "pitch": 33,
                "velocity": 127,
                "duration": 0.1568181818181813,
                "tempo": 120.0
            },
            {
                "start_time": 76.79545454545455,
                "end_time": 76.95454545454545,
                "pitch": 33,
                "velocity": 127,
                "duration": 0.1590909090909065,
                "tempo": 120.0
            },
            {
                "start_time": 76.95454545454545,
                "end_time": 77.43636363636364,
                "pitch": 35,
                "velocity": 127,
                "duration": 0.48181818181818414,
                "tempo": 120.0
            },
            {
                "start_time": 77.43636363636364,
                "end_time": 77.59545454545454,
                "pitch": 35,
                "velocity": 127,
                "duration": 0.1590909090909065,
                "tempo": 120.0
            },
            {
                "start_time": 79.20454545454545,
                "end_time": 79.36590909090908,
                "pitch": 33,
                "velocity": 127,
                "duration": 0.1613636363636317,
                "tempo": 120.0
            },
            {
                "start_time": 79.36590909090908,
                "end_time": 79.52727272727272,
                "pitch": 33,
                "velocity": 127,
                "duration": 0.1613636363636317,
                "tempo": 120.0
            },
            {
                "start_time": 79.52727272727272,
                "end_time": 79.84772727272727,
                "pitch": 35,
                "velocity": 127,
                "duration": 0.32045454545455243,
                "tempo": 120.0
            },
            {
                "start_time": 79.52727272727272,
                "end_time": 79.84772727272727,
                "pitch": 35,
                "velocity": 127,
                "duration": 0.32045454545455243,
                "tempo": 120.0
            },
            {
                "start_time": 79.84772727272727,
                "end_time": 80.0090909090909,
                "pitch": 23,
                "velocity": 127,
                "duration": 0.1613636363636317,
                "tempo": 120.0
            },
            {
                "start_time": 80.0090909090909,
                "end_time": 80.17045454545455,
                "pitch": 35,
                "velocity": 127,
                "duration": 0.16136363636364592,
                "tempo": 120.0
            },
            {
                "start_time": 80.49090909090908,
                "end_time": 80.65227272727272,
                "pitch": 23,
                "velocity": 127,
                "duration": 0.1613636363636317,
                "tempo": 120.0
            },
            {
                "start_time": 81.76363636363637,
                "end_time": 81.925,
                "pitch": 33,
                "velocity": 127,
                "duration": 0.1613636363636317,
                "tempo": 120.0
            },
            {
                "start_time": 81.925,
                "end_time": 82.08636363636363,
                "pitch": 33,
                "velocity": 127,
                "duration": 0.1613636363636317,
                "tempo": 120.0
            },
            {
                "start_time": 82.08636363636363,
                "end_time": 82.56818181818181,
                "pitch": 31,
                "velocity": 127,
                "duration": 0.48181818181818414,
                "tempo": 120.0
            },
            {
                "start_time": 82.08636363636363,
                "end_time": 82.56818181818181,
                "pitch": 31,
                "velocity": 127,
                "duration": 0.48181818181818414,
                "tempo": 120.0
            },
            {
                "start_time": 82.56818181818181,
                "end_time": 82.72954545454544,
                "pitch": 31,
                "velocity": 127,
                "duration": 0.1613636363636317,
                "tempo": 120.0
            },
            {
                "start_time": 84.32272727272726,
                "end_time": 84.48409090909091,
                "pitch": 31,
                "velocity": 127,
                "duration": 0.16136363636364592,
                "tempo": 120.0
            },
            {
                "start_time": 84.48409090909091,
                "end_time": 84.64545454545454,
                "pitch": 31,
                "velocity": 127,
                "duration": 0.1613636363636317,
                "tempo": 120.0
            },
            {
                "start_time": 84.64545454545454,
                "end_time": 85.12727272727273,
                "pitch": 33,
                "velocity": 127,
                "duration": 0.48181818181818414,
                "tempo": 120.0
            },
            {
                "start_time": 84.64545454545454,
                "end_time": 85.12727272727273,
                "pitch": 33,
                "velocity": 127,
                "duration": 0.48181818181818414,
                "tempo": 120.0
            },
            {
                "start_time": 85.12727272727273,
                "end_time": 85.28863636363636,
                "pitch": 33,
                "velocity": 127,
                "duration": 0.1613636363636317,
                "tempo": 120.0
            },
            {
                "start_time": 86.88863636363637,
                "end_time": 87.04545454545455,
                "pitch": 33,
                "velocity": 127,
                "duration": 0.1568181818181813,
                "tempo": 120.0
            },
            {
                "start_time": 87.04545454545455,
                "end_time": 87.20454545454545,
                "pitch": 33,
                "velocity": 127,
                "duration": 0.1590909090909065,
                "tempo": 120.0
            },
            {
                "start_time": 87.20454545454545,
                "end_time": 87.68636363636364,
                "pitch": 35,
                "velocity": 127,
                "duration": 0.48181818181818414,
                "tempo": 120.0
            },
            {
                "start_time": 87.20454545454545,
                "end_time": 87.68636363636364,
                "pitch": 35,
                "velocity": 127,
                "duration": 0.48181818181818414,
                "tempo": 120.0
            },
            {
                "start_time": 87.68636363636364,
                "end_time": 87.84772727272727,
                "pitch": 35,
                "velocity": 127,
                "duration": 0.1613636363636317,
                "tempo": 120.0
            },
            {
                "start_time": 89.44772727272726,
                "end_time": 89.60681818181818,
                "pitch": 33,
                "velocity": 127,
                "duration": 0.15909090909092072,
                "tempo": 120.0
            },
            {
                "start_time": 89.60681818181818,
                "end_time": 89.76363636363637,
                "pitch": 33,
                "velocity": 127,
                "duration": 0.1568181818181813,
                "tempo": 120.0
            },
            {
                "start_time": 89.76363636363637,
                "end_time": 90.24545454545454,
                "pitch": 35,
                "velocity": 127,
                "duration": 0.48181818181816993,
                "tempo": 120.0
            },
            {
                "start_time": 89.76363636363637,
                "end_time": 90.24545454545454,
                "pitch": 35,
                "velocity": 127,
                "duration": 0.48181818181816993,
                "tempo": 120.0
            },
            {
                "start_time": 90.24545454545454,
                "end_time": 90.40681818181818,
                "pitch": 35,
                "velocity": 127,
                "duration": 0.16136363636364592,
                "tempo": 120.0
            },
            {
                "start_time": 92.01363636363637,
                "end_time": 92.175,
                "pitch": 33,
                "velocity": 127,
                "duration": 0.1613636363636317,
                "tempo": 120.0
            },
            {
                "start_time": 92.175,
                "end_time": 92.33636363636363,
                "pitch": 33,
                "velocity": 127,
                "duration": 0.1613636363636317,
                "tempo": 120.0
            },
            {
                "start_time": 92.33636363636363,
                "end_time": 92.81818181818181,
                "pitch": 31,
                "velocity": 127,
                "duration": 0.48181818181818414,
                "tempo": 120.0
            },
            {
                "start_time": 92.33636363636363,
                "end_time": 92.81818181818181,
                "pitch": 31,
                "velocity": 127,
                "duration": 0.48181818181818414,
                "tempo": 120.0
            },
            {
                "start_time": 92.81818181818181,
                "end_time": 92.97954545454544,
                "pitch": 31,
                "velocity": 127,
                "duration": 0.1613636363636317,
                "tempo": 120.0
            },
            {
                "start_time": 94.57272727272726,
                "end_time": 94.73409090909091,
                "pitch": 31,
                "velocity": 127,
                "duration": 0.16136363636364592,
                "tempo": 120.0
            },
            {
                "start_time": 94.73409090909091,
                "end_time": 94.89545454545454,
                "pitch": 31,
                "velocity": 127,
                "duration": 0.1613636363636317,
                "tempo": 120.0
            },
            {
                "start_time": 94.89545454545454,
                "end_time": 95.37727272727273,
                "pitch": 33,
                "velocity": 127,
                "duration": 0.48181818181818414,
                "tempo": 120.0
            },
            {
                "start_time": 94.89545454545454,
                "end_time": 95.37727272727273,
                "pitch": 33,
                "velocity": 127,
                "duration": 0.48181818181818414,
                "tempo": 120.0
            },
            {
                "start_time": 95.37727272727273,
                "end_time": 95.53863636363636,
                "pitch": 33,
                "velocity": 127,
                "duration": 0.1613636363636317,
                "tempo": 120.0
            },
            {
                "start_time": 97.13181818181818,
                "end_time": 97.29318181818181,
                "pitch": 33,
                "velocity": 127,
                "duration": 0.1613636363636317,
                "tempo": 120.0
            },
            {
                "start_time": 97.29318181818181,
                "end_time": 97.45454545454545,
                "pitch": 33,
                "velocity": 127,
                "duration": 0.16136363636364592,
                "tempo": 120.0
            },
            {
                "start_time": 97.45454545454545,
                "end_time": 97.93636363636364,
                "pitch": 35,
                "velocity": 127,
                "duration": 0.48181818181818414,
                "tempo": 120.0
            },
            {
                "start_time": 97.45454545454545,
                "end_time": 97.93636363636364,
                "pitch": 35,
                "velocity": 127,
                "duration": 0.48181818181818414,
                "tempo": 120.0
            },
            {
                "start_time": 97.93636363636364,
                "end_time": 98.09772727272727,
                "pitch": 35,
                "velocity": 127,
                "duration": 0.1613636363636317,
                "tempo": 120.0
            },
            {
                "start_time": 99.69318181818181,
                "end_time": 99.85227272727272,
                "pitch": 35,
                "velocity": 127,
                "duration": 0.1590909090909065,
                "tempo": 120.0
            },
            {
                "start_time": 99.85227272727272,
                "end_time": 100.01363636363637,
                "pitch": 35,
                "velocity": 127,
                "duration": 0.16136363636364592,
                "tempo": 120.0
            },
            {
                "start_time": 100.01363636363637,
                "end_time": 100.33636363636363,
                "pitch": 35,
                "velocity": 127,
                "duration": 0.3227272727272634,
                "tempo": 120.0
            },
            {
                "start_time": 100.33636363636363,
                "end_time": 100.49545454545454,
                "pitch": 23,
                "velocity": 127,
                "duration": 0.1590909090909065,
                "tempo": 120.0
            },
            {
                "start_time": 100.49545454545454,
                "end_time": 100.65681818181818,
                "pitch": 35,
                "velocity": 127,
                "duration": 0.16136363636364592,
                "tempo": 120.0
            },
            {
                "start_time": 100.97954545454544,
                "end_time": 101.13863636363637,
                "pitch": 23,
                "velocity": 127,
                "duration": 0.15909090909092072,
                "tempo": 120.0
            },
            {
                "start_time": 102.2590909090909,
                "end_time": 102.41590909090908,
                "pitch": 35,
                "velocity": 127,
                "duration": 0.1568181818181813,
                "tempo": 120.0
            },
            {
                "start_time": 102.41590909090908,
                "end_time": 102.57272727272726,
                "pitch": 35,
                "velocity": 127,
                "duration": 0.1568181818181813,
                "tempo": 120.0
            },
            {
                "start_time": 102.57272727272726,
                "end_time": 103.05454545454545,
                "pitch": 35,
                "velocity": 127,
                "duration": 0.48181818181818414,
                "tempo": 120.0
            },
            {
                "start_time": 103.05454545454545,
                "end_time": 103.21590909090908,
                "pitch": 35,
                "velocity": 127,
                "duration": 0.1613636363636317,
                "tempo": 120.0
            },
            {
                "start_time": 104.81818181818181,
                "end_time": 104.975,
                "pitch": 33,
                "velocity": 127,
                "duration": 0.1568181818181813,
                "tempo": 120.0
            },
            {
                "start_time": 104.975,
                "end_time": 105.13181818181818,
                "pitch": 33,
                "velocity": 127,
                "duration": 0.1568181818181813,
                "tempo": 120.0
            },
            {
                "start_time": 105.13181818181818,
                "end_time": 105.61363636363636,
                "pitch": 31,
                "velocity": 127,
                "duration": 0.48181818181818414,
                "tempo": 120.0
            },
            {
                "start_time": 105.61363636363636,
                "end_time": 105.77499999999999,
                "pitch": 31,
                "velocity": 127,
                "duration": 0.1613636363636317,
                "tempo": 120.0
            },
            {
                "start_time": 107.3840909090909,
                "end_time": 107.54318181818181,
                "pitch": 31,
                "velocity": 127,
                "duration": 0.1590909090909065,
                "tempo": 120.0
            },
            {
                "start_time": 107.54318181818181,
                "end_time": 107.70454545454545,
                "pitch": 31,
                "velocity": 127,
                "duration": 0.16136363636364592,
                "tempo": 120.0
            },
            {
                "start_time": 107.70454545454545,
                "end_time": 108.18863636363636,
                "pitch": 33,
                "velocity": 127,
                "duration": 0.48409090909090935,
                "tempo": 120.0
            },
            {
                "start_time": 107.70454545454545,
                "end_time": 108.18863636363636,
                "pitch": 33,
                "velocity": 127,
                "duration": 0.48409090909090935,
                "tempo": 120.0
            },
            {
                "start_time": 108.18863636363636,
                "end_time": 108.34772727272727,
                "pitch": 33,
                "velocity": 127,
                "duration": 0.1590909090909065,
                "tempo": 120.0
            },
            {
                "start_time": 109.94318181818181,
                "end_time": 110.10454545454544,
                "pitch": 33,
                "velocity": 127,
                "duration": 0.1613636363636317,
                "tempo": 120.0
            },
            {
                "start_time": 110.10454545454544,
                "end_time": 110.26363636363635,
                "pitch": 33,
                "velocity": 127,
                "duration": 0.1590909090909065,
                "tempo": 120.0
            },
            {
                "start_time": 110.26363636363635,
                "end_time": 110.74772727272726,
                "pitch": 35,
                "velocity": 127,
                "duration": 0.48409090909090935,
                "tempo": 120.0
            },
            {
                "start_time": 110.26363636363635,
                "end_time": 110.74772727272726,
                "pitch": 35,
                "velocity": 127,
                "duration": 0.48409090909090935,
                "tempo": 120.0
            },
            {
                "start_time": 110.74772727272726,
                "end_time": 110.90681818181818,
                "pitch": 35,
                "velocity": 127,
                "duration": 0.15909090909092072,
                "tempo": 120.0
            },
            {
                "start_time": 112.50227272727273,
                "end_time": 112.66363636363636,
                "pitch": 33,
                "velocity": 127,
                "duration": 0.1613636363636317,
                "tempo": 120.0
            },
            {
                "start_time": 112.66363636363636,
                "end_time": 112.82272727272726,
                "pitch": 33,
                "velocity": 127,
                "duration": 0.1590909090909065,
                "tempo": 120.0
            },
            {
                "start_time": 112.82272727272726,
                "end_time": 113.30681818181817,
                "pitch": 31,
                "velocity": 127,
                "duration": 0.48409090909090935,
                "tempo": 120.0
            },
            {
                "start_time": 112.82272727272726,
                "end_time": 113.30681818181817,
                "pitch": 31,
                "velocity": 127,
                "duration": 0.48409090909090935,
                "tempo": 120.0
            },
            {
                "start_time": 113.30681818181817,
                "end_time": 113.46590909090908,
                "pitch": 31,
                "velocity": 127,
                "duration": 0.1590909090909065,
                "tempo": 120.0
            },
            {
                "start_time": 115.06136363636364,
                "end_time": 115.22272727272727,
                "pitch": 31,
                "velocity": 127,
                "duration": 0.1613636363636317,
                "tempo": 120.0
            },
            {
                "start_time": 115.22272727272727,
                "end_time": 115.38181818181818,
                "pitch": 31,
                "velocity": 127,
                "duration": 0.1590909090909065,
                "tempo": 120.0
            },
            {
                "start_time": 115.3840909090909,
                "end_time": 115.86590909090908,
                "pitch": 33,
                "velocity": 127,
                "duration": 0.48181818181818414,
                "tempo": 120.0
            },
            {
                "start_time": 115.86590909090908,
                "end_time": 116.02727272727272,
                "pitch": 33,
                "velocity": 127,
                "duration": 0.1613636363636317,
                "tempo": 120.0
            },
            {
                "start_time": 117.62727272727273,
                "end_time": 117.7840909090909,
                "pitch": 33,
                "velocity": 127,
                "duration": 0.1568181818181813,
                "tempo": 120.0
            },
            {
                "start_time": 117.7840909090909,
                "end_time": 117.94318181818181,
                "pitch": 33,
                "velocity": 127,
                "duration": 0.1590909090909065,
                "tempo": 120.0
            },
            {
                "start_time": 117.94318181818181,
                "end_time": 118.425,
                "pitch": 35,
                "velocity": 127,
                "duration": 0.48181818181818414,
                "tempo": 120.0
            },
            {
                "start_time": 117.94318181818181,
                "end_time": 118.425,
                "pitch": 35,
                "velocity": 127,
                "duration": 0.48181818181818414,
                "tempo": 120.0
            },
            {
                "start_time": 118.425,
                "end_time": 118.58636363636363,
                "pitch": 35,
                "velocity": 127,
                "duration": 0.1613636363636317,
                "tempo": 120.0
            },
            {
                "start_time": 120.19318181818181,
                "end_time": 120.35454545454544,
                "pitch": 35,
                "velocity": 127,
                "duration": 0.1613636363636317,
                "tempo": 120.0
            },
            {
                "start_time": 120.35454545454544,
                "end_time": 120.51590909090909,
                "pitch": 35,
                "velocity": 127,
                "duration": 0.16136363636364592,
                "tempo": 120.0
            },
            {
                "start_time": 120.51590909090909,
                "end_time": 120.98636363636363,
                "pitch": 35,
                "velocity": 127,
                "duration": 0.4704545454545439,
                "tempo": 120.0
            },
            {
                "start_time": 120.98636363636363,
                "end_time": 121.14545454545454,
                "pitch": 35,
                "velocity": 127,
                "duration": 0.1590909090909065,
                "tempo": 120.0
            },
            {
                "start_time": 122.74545454545454,
                "end_time": 122.90681818181818,
                "pitch": 33,
                "velocity": 127,
                "duration": 0.16136363636364592,
                "tempo": 120.0
            },
            {
                "start_time": 122.90681818181818,
                "end_time": 123.06590909090909,
                "pitch": 33,
                "velocity": 127,
                "duration": 0.1590909090909065,
                "tempo": 120.0
            }
        ]
    }
}