{
    "track_id": "10 The Devastation (Area 4)",
    "mood": "sad",
    "instruments": {
        "Acoustic Bass": [
            {
                "start_time": 0.015909090909090907,
                "end_time": 0.25,
                "pitch": 35,
                "velocity": 101,
                "duration": 0.2340909090909091,
                "tempo": 120.0
            },
            {
                "start_time": 0.25,
                "end_time": 0.4659090909090909,
                "pitch": 35,
                "velocity": 101,
                "duration": 0.21590909090909088,
                "tempo": 120.0
            },
            {
                "start_time": 0.4659090909090909,
                "end_time": 0.7,
                "pitch": 35,
                "velocity": 101,
                "duration": 0.23409090909090907,
                "tempo": 120.0
            },
            {
                "start_time": 0.7,
                "end_time": 0.9159090909090909,
                "pitch": 35,
                "velocity": 101,
                "duration": 0.21590909090909094,
                "tempo": 120.0
            },
            {
                "start_time": 0.9159090909090909,
                "end_time": 1.1477272727272727,
                "pitch": 35,
                "velocity": 101,
                "duration": 0.2318181818181818,
                "tempo": 120.0
            },
            {
                "start_time": 1.1477272727272727,
                "end_time": 1.3659090909090907,
                "pitch": 35,
                "velocity": 101,
                "duration": 0.21818181818181803,
                "tempo": 120.0
            },
            {
                "start_time": 1.3659090909090907,
                "end_time": 1.5999999999999999,
                "pitch": 35,
                "velocity": 101,
                "duration": 0.23409090909090913,
                "tempo": 120.0
            },
            {
                "start_time": 1.5999999999999999,
                "end_time": 1.815909090909091,
                "pitch": 35,
                "velocity": 101,
                "duration": 0.21590909090909105,
                "tempo": 120.0
            },
            {
                "start_time": 1.815909090909091,
                "end_time": 2.047727272727273,
                "pitch": 35,
                "velocity": 101,
                "duration": 0.23181818181818192,
                "tempo": 120.0
            },
            {
                "start_time": 2.047727272727273,
                "end_time": 2.2659090909090907,
                "pitch": 35,
                "velocity": 101,
                "duration": 0.2181818181818178,
                "tempo": 120.0
            },
            {
                "start_time": 2.2659090909090907,
                "end_time": 2.493181818181818,
                "pitch": 35,
                "velocity": 101,
                "duration": 0.22727272727272751,
                "tempo": 120.0
            },
            {
                "start_time": 2.493181818181818,
                "end_time": 2.7045454545454546,
                "pitch": 35,
                "velocity": 101,
                "duration": 0.21136363636363642,
                "tempo": 120.0
            },
            {
                "start_time": 2.7045454545454546,
                "end_time": 2.9386363636363635,
                "pitch": 35,
                "velocity": 101,
                "duration": 0.2340909090909089,
                "tempo": 120.0
            },
            {
                "start_time": 2.9386363636363635,
                "end_time": 3.1545454545454543,
                "pitch": 35,
                "velocity": 101,
                "duration": 0.21590909090909083,
                "tempo": 120.0
            },
            {
                "start_time": 3.1545454545454543,
                "end_time": 3.6045454545454545,
                "pitch": 38,
                "velocity": 101,
                "duration": 0.4500000000000002,
                "tempo": 120.0
            },
            {
                "start_time": 3.1545454545454543,
                "end_time": 3.8386363636363634,
                "pitch": 35,
                "velocity": 101,
                "duration": 0.6840909090909091,
                "tempo": 120.0
            },
            {
                "start_time": 3.6045454545454545,
                "end_time": 3.8386363636363634,
                "pitch": 35,
                "velocity": 101,
                "duration": 0.2340909090909089,
                "tempo": 120.0
            },
            {
                "start_time": 3.8386363636363634,
                "end_time": 4.054545454545455,
                "pitch": 35,
                "velocity": 101,
                "duration": 0.21590909090909127,
                "tempo": 120.0
            },
            {
                "start_time": 4.054545454545455,
                "end_time": 4.2727272727272725,
                "pitch": 35,
                "velocity": 101,
                "duration": 0.2181818181818178,
                "tempo": 120.0
            },
            {
                "start_time": 4.2727272727272725,
                "end_time": 4.504545454545454,
                "pitch": 35,
                "velocity": 101,
                "duration": 0.23181818181818148,
                "tempo": 120.0
            },
            {
                "start_time": 4.504545454545454,
                "end_time": 4.720454545454545,
                "pitch": 35,
                "velocity": 101,
                "duration": 0.21590909090909083,
                "tempo": 120.0
            },
            {
                "start_time": 4.720454545454545,
                "end_time": 4.954545454545454,
                "pitch": 35,
                "velocity": 101,
                "duration": 0.23409090909090935,
                "tempo": 120.0
            },
            {
                "start_time": 4.954545454545454,
                "end_time": 5.165909090909091,
                "pitch": 35,
                "velocity": 101,
                "duration": 0.21136363636363686,
                "tempo": 120.0
            },
            {
                "start_time": 5.165909090909091,
                "end_time": 5.3954545454545455,
                "pitch": 35,
                "velocity": 101,
                "duration": 0.2295454545454545,
                "tempo": 120.0
            },
            {
                "start_time": 5.3954545454545455,
                "end_time": 5.61590909090909,
                "pitch": 35,
                "velocity": 101,
                "duration": 0.2204545454545448,
                "tempo": 120.0
            },
            {
                "start_time": 5.61590909090909,
                "end_time": 5.8545454545454545,
                "pitch": 35,
                "velocity": 101,
                "duration": 0.2386363636363642,
                "tempo": 120.0
            },
            {
                "start_time": 5.8545454545454545,
                "end_time": 6.0659090909090905,
                "pitch": 35,
                "velocity": 101,
                "duration": 0.21136363636363598,
                "tempo": 120.0
            },
            {
                "start_time": 6.0659090909090905,
                "end_time": 6.295454545454545,
                "pitch": 35,
                "velocity": 101,
                "duration": 0.2295454545454545,
                "tempo": 120.0
            },
            {
                "start_time": 6.295454545454545,
                "end_time": 6.515909090909091,
                "pitch": 35,
                "velocity": 101,
                "duration": 0.22045454545454568,
                "tempo": 120.0
            },
            {
                "start_time": 6.515909090909091,
                "end_time": 6.754545454545454,
                "pitch": 35,
                "velocity": 101,
                "duration": 0.2386363636363633,
                "tempo": 120.0
            },
            {
                "start_time": 3.6045454545454545,
                "end_time": 7.195454545454545,
                "pitch": 38,
                "velocity": 101,
                "duration": 3.590909090909091,
                "tempo": 120.0
            },
            {
                "start_time": 6.754545454545454,
                "end_time": 7.195454545454545,
                "pitch": 38,
                "velocity": 101,
                "duration": 0.44090909090909136,
                "tempo": 120.0
            },
            {
                "start_time": 7.195454545454545,
                "end_time": 7.411363636363636,
                "pitch": 35,
                "velocity": 101,
                "duration": 0.21590909090909083,
                "tempo": 120.0
            },
            {
                "start_time": 7.411363636363636,
                "end_time": 7.6454545454545455,
                "pitch": 35,
                "velocity": 101,
                "duration": 0.23409090909090935,
                "tempo": 120.0
            },
            {
                "start_time": 7.6454545454545455,
                "end_time": 7.861363636363636,
                "pitch": 35,
                "velocity": 101,
                "duration": 0.21590909090909083,
                "tempo": 120.0
            },
            {
                "start_time": 7.861363636363636,
                "end_time": 8.093181818181817,
                "pitch": 35,
                "velocity": 101,
                "duration": 0.2318181818181806,
                "tempo": 120.0
            },
            {
                "start_time": 8.093181818181817,
                "end_time": 8.311363636363636,
                "pitch": 35,
                "velocity": 101,
                "duration": 0.2181818181818187,
                "tempo": 120.0
            },
            {
                "start_time": 8.311363636363636,
                "end_time": 8.527272727272727,
                "pitch": 35,
                "velocity": 101,
                "duration": 0.21590909090909172,
                "tempo": 120.0
            },
            {
                "start_time": 8.527272727272727,
                "end_time": 8.752272727272727,
                "pitch": 35,
                "velocity": 101,
                "duration": 0.22499999999999964,
                "tempo": 120.0
            },
            {
                "start_time": 8.752272727272727,
                "end_time": 8.959090909090909,
                "pitch": 35,
                "velocity": 101,
                "duration": 0.206818181818182,
                "tempo": 120.0
            },
            {
                "start_time": 8.959090909090909,
                "end_time": 9.19090909090909,
                "pitch": 35,
                "velocity": 101,
                "duration": 0.2318181818181806,
                "tempo": 120.0
            },
            {
                "start_time": 9.19090909090909,
                "end_time": 9.406818181818181,
                "pitch": 35,
                "velocity": 101,
                "duration": 0.21590909090909172,
                "tempo": 120.0
            },
            {
                "start_time": 9.406818181818181,
                "end_time": 9.64090909090909,
                "pitch": 35,
                "velocity": 101,
                "duration": 0.23409090909090935,
                "tempo": 120.0
            },
            {
                "start_time": 9.64090909090909,
                "end_time": 9.85681818181818,
                "pitch": 35,
                "velocity": 101,
                "duration": 0.21590909090908994,
                "tempo": 120.0
            },
            {
                "start_time": 9.85681818181818,
                "end_time": 10.09090909090909,
                "pitch": 35,
                "velocity": 101,
                "duration": 0.23409090909090935,
                "tempo": 120.0
            },
            {
                "start_time": 10.09090909090909,
                "end_time": 10.306818181818182,
                "pitch": 35,
                "velocity": 101,
                "duration": 0.21590909090909172,
                "tempo": 120.0
            },
            {
                "start_time": 10.306818181818182,
                "end_time": 10.747727272727273,
                "pitch": 38,
                "velocity": 101,
                "duration": 0.44090909090909136,
                "tempo": 120.0
            },
            {
                "start_time": 10.306818181818182,
                "end_time": 10.98181818181818,
                "pitch": 35,
                "velocity": 101,
                "duration": 0.6749999999999989,
                "tempo": 120.0
            },
            {
                "start_time": 10.747727272727273,
                "end_time": 10.98181818181818,
                "pitch": 35,
                "velocity": 101,
                "duration": 0.23409090909090757,
                "tempo": 120.0
            },
            {
                "start_time": 10.98181818181818,
                "end_time": 11.197727272727272,
                "pitch": 35,
                "velocity": 101,
                "duration": 0.21590909090909172,
                "tempo": 120.0
            },
            {
                "start_time": 11.197727272727272,
                "end_time": 11.431818181818182,
                "pitch": 35,
                "velocity": 101,
                "duration": 0.23409090909090935,
                "tempo": 120.0
            },
            {
                "start_time": 11.431818181818182,
                "end_time": 11.647727272727272,
                "pitch": 35,
                "velocity": 101,
                "duration": 0.21590909090908994,
                "tempo": 120.0
            },
            {
                "start_time": 11.647727272727272,
                "end_time": 11.881818181818181,
                "pitch": 35,
                "velocity": 101,
                "duration": 0.23409090909090935,
                "tempo": 120.0
            },
            {
                "start_time": 11.881818181818181,
                "end_time": 12.097727272727273,
                "pitch": 35,
                "velocity": 101,
                "duration": 0.21590909090909172,
                "tempo": 120.0
            },
            {
                "start_time": 10.747727272727273,
                "end_time": 12.547727272727272,
                "pitch": 38,
                "velocity": 101,
                "duration": 1.799999999999999,
                "tempo": 120.0
            },
            {
                "start_time": 12.097727272727273,
                "end_time": 12.547727272727272,
                "pitch": 38,
                "velocity": 101,
                "duration": 0.4499999999999993,
                "tempo": 120.0
            },
            {
                "start_time": 12.097727272727273,
                "end_time": 12.763636363636364,
                "pitch": 35,
                "velocity": 101,
                "duration": 0.665909090909091,
                "tempo": 120.0
            },
            {
                "start_time": 12.547727272727272,
                "end_time": 12.763636363636364,
                "pitch": 35,
                "velocity": 101,
                "duration": 0.21590909090909172,
                "tempo": 120.0
            },
            {
                "start_time": 12.763636363636364,
                "end_time": 12.997727272727271,
                "pitch": 35,
                "velocity": 101,
                "duration": 0.23409090909090757,
                "tempo": 120.0
            },
            {
                "start_time": 12.547727272727272,
                "end_time": 13.447727272727272,
                "pitch": 38,
                "velocity": 101,
                "duration": 0.9000000000000004,
                "tempo": 120.0
            },
            {
                "start_time": 12.997727272727271,
                "end_time": 13.447727272727272,
                "pitch": 38,
                "velocity": 101,
                "duration": 0.45000000000000107,
                "tempo": 120.0
            },
            {
                "start_time": 13.447727272727272,
                "end_time": 13.659090909090908,
                "pitch": 38,
                "velocity": 101,
                "duration": 0.21136363636363598,
                "tempo": 120.0
            },
            {
                "start_time": 13.659090909090908,
                "end_time": 13.886363636363635,
                "pitch": 32,
                "velocity": 101,
                "duration": 0.22727272727272663,
                "tempo": 120.0
            },
            {
                "start_time": 13.886363636363635,
                "end_time": 14.104545454545454,
                "pitch": 32,
                "velocity": 101,
                "duration": 0.2181818181818187,
                "tempo": 120.0
            },
            {
                "start_time": 14.104545454545454,
                "end_time": 14.336363636363636,
                "pitch": 33,
                "velocity": 101,
                "duration": 0.23181818181818237,
                "tempo": 120.0
            },
            {
                "start_time": 14.336363636363636,
                "end_time": 14.559090909090909,
                "pitch": 34,
                "velocity": 101,
                "duration": 0.22272727272727266,
                "tempo": 120.0
            },
            {
                "start_time": 14.559090909090909,
                "end_time": 14.797727272727272,
                "pitch": 35,
                "velocity": 101,
                "duration": 0.2386363636363633,
                "tempo": 120.0
            },
            {
                "start_time": 14.797727272727272,
                "end_time": 15.009090909090908,
                "pitch": 35,
                "velocity": 101,
                "duration": 0.21136363636363598,
                "tempo": 120.0
            },
            {
                "start_time": 15.009090909090908,
                "end_time": 15.236363636363636,
                "pitch": 35,
                "velocity": 101,
                "duration": 0.2272727272727284,
                "tempo": 120.0
            },
            {
                "start_time": 15.236363636363636,
                "end_time": 15.454545454545453,
                "pitch": 35,
                "velocity": 101,
                "duration": 0.21818181818181692,
                "tempo": 120.0
            },
            {
                "start_time": 15.454545454545453,
                "end_time": 15.686363636363636,
                "pitch": 35,
                "velocity": 101,
                "duration": 0.23181818181818237,
                "tempo": 120.0
            },
            {
                "start_time": 15.686363636363636,
                "end_time": 15.904545454545454,
                "pitch": 35,
                "velocity": 101,
                "duration": 0.2181818181818187,
                "tempo": 120.0
            },
            {
                "start_time": 15.904545454545454,
                "end_time": 16.138636363636362,
                "pitch": 35,
                "velocity": 101,
                "duration": 0.23409090909090757,
                "tempo": 120.0
            },
            {
                "start_time": 16.138636363636362,
                "end_time": 16.354545454545455,
                "pitch": 35,
                "velocity": 101,
                "duration": 0.2159090909090935,
                "tempo": 120.0
            },
            {
                "start_time": 16.354545454545455,
                "end_time": 16.586363636363636,
                "pitch": 35,
                "velocity": 101,
                "duration": 0.2318181818181806,
                "tempo": 120.0
            },
            {
                "start_time": 16.586363636363636,
                "end_time": 16.8,
                "pitch": 35,
                "velocity": 101,
                "duration": 0.21363636363636473,
                "tempo": 120.0
            },
            {
                "start_time": 16.8,
                "end_time": 17.011363636363637,
                "pitch": 35,
                "velocity": 101,
                "duration": 0.21136363636363598,
                "tempo": 120.0
            },
            {
                "start_time": 17.011363636363637,
                "end_time": 17.238636363636363,
                "pitch": 35,
                "velocity": 101,
                "duration": 0.22727272727272663,
                "tempo": 120.0
            },
            {
                "start_time": 17.238636363636363,
                "end_time": 17.452272727272728,
                "pitch": 32,
                "velocity": 101,
                "duration": 0.21363636363636473,
                "tempo": 120.0
            },
            {
                "start_time": 17.452272727272728,
                "end_time": 17.679545454545455,
                "pitch": 32,
                "velocity": 101,
                "duration": 0.22727272727272663,
                "tempo": 120.0
            },
            {
                "start_time": 17.679545454545455,
                "end_time": 17.89090909090909,
                "pitch": 33,
                "velocity": 101,
                "duration": 0.21136363636363598,
                "tempo": 120.0
            },
            {
                "start_time": 17.89090909090909,
                "end_time": 18.129545454545454,
                "pitch": 34,
                "velocity": 101,
                "duration": 0.2386363636363633,
                "tempo": 120.0
            },
            {
                "start_time": 17.238636363636363,
                "end_time": 18.352272727272727,
                "pitch": 35,
                "velocity": 101,
                "duration": 1.1136363636363633,
                "tempo": 120.0
            },
            {
                "start_time": 18.129545454545454,
                "end_time": 18.352272727272727,
                "pitch": 35,
                "velocity": 101,
                "duration": 0.22272727272727266,
                "tempo": 120.0
            },
            {
                "start_time": 18.352272727272727,
                "end_time": 18.579545454545453,
                "pitch": 35,
                "velocity": 101,
                "duration": 0.22727272727272663,
                "tempo": 120.0
            },
            {
                "start_time": 18.579545454545453,
                "end_time": 18.79090909090909,
                "pitch": 35,
                "velocity": 101,
                "duration": 0.21136363636363598,
                "tempo": 120.0
            },
            {
                "start_time": 18.79090909090909,
                "end_time": 19.025,
                "pitch": 35,
                "velocity": 101,
                "duration": 0.23409090909090935,
                "tempo": 120.0
            },
            {
                "start_time": 19.025,
                "end_time": 19.24090909090909,
                "pitch": 35,
                "velocity": 101,
                "duration": 0.21590909090908994,
                "tempo": 120.0
            },
            {
                "start_time": 19.24090909090909,
                "end_time": 19.474999999999998,
                "pitch": 35,
                "velocity": 101,
                "duration": 0.23409090909090935,
                "tempo": 120.0
            },
            {
                "start_time": 19.474999999999998,
                "end_time": 19.69090909090909,
                "pitch": 35,
                "velocity": 101,
                "duration": 0.2159090909090935,
                "tempo": 120.0
            },
            {
                "start_time": 19.69090909090909,
                "end_time": 19.925,
                "pitch": 35,
                "velocity": 101,
                "duration": 0.23409090909090935,
                "tempo": 120.0
            },
            {
                "start_time": 19.925,
                "end_time": 20.14090909090909,
                "pitch": 35,
                "velocity": 101,
                "duration": 0.21590909090908994,
                "tempo": 120.0
            },
            {
                "start_time": 20.14090909090909,
                "end_time": 20.375,
                "pitch": 35,
                "velocity": 101,
                "duration": 0.23409090909090935,
                "tempo": 120.0
            },
            {
                "start_time": 20.375,
                "end_time": 20.59090909090909,
                "pitch": 35,
                "velocity": 101,
                "duration": 0.21590909090908994,
                "tempo": 120.0
            },
            {
                "start_time": 20.59090909090909,
                "end_time": 20.825,
                "pitch": 35,
                "velocity": 101,
                "duration": 0.23409090909090935,
                "tempo": 120.0
            },
            {
                "start_time": 20.825,
                "end_time": 21.04090909090909,
                "pitch": 35,
                "velocity": 101,
                "duration": 0.21590909090908994,
                "tempo": 120.0
            },
            {
                "start_time": 21.04090909090909,
                "end_time": 21.259090909090908,
                "pitch": 35,
                "velocity": 101,
                "duration": 0.2181818181818187,
                "tempo": 120.0
            },
            {
                "start_time": 21.259090909090908,
                "end_time": 21.493181818181817,
                "pitch": 35,
                "velocity": 101,
                "duration": 0.23409090909090935,
                "tempo": 120.0
            },
            {
                "start_time": 21.493181818181817,
                "end_time": 21.709090909090907,
                "pitch": 35,
                "velocity": 101,
                "duration": 0.21590909090908994,
                "tempo": 120.0
            },
            {
                "start_time": 21.709090909090907,
                "end_time": 21.94090909090909,
                "pitch": 35,
                "velocity": 101,
                "duration": 0.23181818181818414,
                "tempo": 120.0
            },
            {
                "start_time": 21.94090909090909,
                "end_time": 22.154545454545453,
                "pitch": 35,
                "velocity": 101,
                "duration": 0.21363636363636118,
                "tempo": 120.0
            },
            {
                "start_time": 22.154545454545453,
                "end_time": 22.38181818181818,
                "pitch": 35,
                "velocity": 101,
                "duration": 0.22727272727272663,
                "tempo": 120.0
            },
            {
                "start_time": 22.38181818181818,
                "end_time": 22.597727272727273,
                "pitch": 35,
                "velocity": 101,
                "duration": 0.2159090909090935,
                "tempo": 120.0
            },
            {
                "start_time": 22.597727272727273,
                "end_time": 22.831818181818182,
                "pitch": 35,
                "velocity": 101,
                "duration": 0.23409090909090935,
                "tempo": 120.0
            },
            {
                "start_time": 22.831818181818182,
                "end_time": 23.047727272727272,
                "pitch": 35,
                "velocity": 101,
                "duration": 0.21590909090908994,
                "tempo": 120.0
            },
            {
                "start_time": 23.047727272727272,
                "end_time": 23.28181818181818,
                "pitch": 35,
                "velocity": 101,
                "duration": 0.23409090909090935,
                "tempo": 120.0
            },
            {
                "start_time": 23.28181818181818,
                "end_time": 23.49772727272727,
                "pitch": 35,
                "velocity": 101,
                "duration": 0.21590909090908994,
                "tempo": 120.0
            },
            {
                "start_time": 23.49772727272727,
                "end_time": 23.73181818181818,
                "pitch": 35,
                "velocity": 101,
                "duration": 0.23409090909090935,
                "tempo": 120.0
            },
            {
                "start_time": 23.73181818181818,
                "end_time": 23.94772727272727,
                "pitch": 35,
                "velocity": 101,
                "duration": 0.21590909090908994,
                "tempo": 120.0
            },
            {
                "start_time": 23.94772727272727,
                "end_time": 24.18181818181818,
                "pitch": 35,
                "velocity": 101,
                "duration": 0.23409090909090935,
                "tempo": 120.0
            },
            {
                "start_time": 24.18181818181818,
                "end_time": 24.39772727272727,
                "pitch": 35,
                "velocity": 101,
                "duration": 0.21590909090908994,
                "tempo": 120.0
            },
            {
                "start_time": 24.39772727272727,
                "end_time": 24.63181818181818,
                "pitch": 35,
                "velocity": 101,
                "duration": 0.23409090909090935,
                "tempo": 120.0
            },
            {
                "start_time": 24.63181818181818,
                "end_time": 25.070454545454545,
                "pitch": 38,
                "velocity": 101,
                "duration": 0.43863636363636616,
                "tempo": 120.0
            },
            {
                "start_time": 25.070454545454545,
                "end_time": 25.293181818181818,
                "pitch": 35,
                "velocity": 101,
                "duration": 0.22272727272727266,
                "tempo": 120.0
            },
            {
                "start_time": 25.293181818181818,
                "end_time": 25.513636363636362,
                "pitch": 35,
                "velocity": 101,
                "duration": 0.2204545454545439,
                "tempo": 120.0
            },
            {
                "start_time": 25.513636363636362,
                "end_time": 25.738636363636363,
                "pitch": 35,
                "velocity": 101,
                "duration": 0.22500000000000142,
                "tempo": 120.0
            },
            {
                "start_time": 25.738636363636363,
                "end_time": 25.945454545454545,
                "pitch": 35,
                "velocity": 101,
                "duration": 0.206818181818182,
                "tempo": 120.0
            },
            {
                "start_time": 25.945454545454545,
                "end_time": 26.177272727272726,
                "pitch": 35,
                "velocity": 101,
                "duration": 0.2318181818181806,
                "tempo": 120.0
            },
            {
                "start_time": 26.177272727272726,
                "end_time": 26.395454545454545,
                "pitch": 35,
                "velocity": 101,
                "duration": 0.2181818181818187,
                "tempo": 120.0
            },
            {
                "start_time": 26.395454545454545,
                "end_time": 26.62272727272727,
                "pitch": 35,
                "velocity": 101,
                "duration": 0.22727272727272663,
                "tempo": 120.0
            },
            {
                "start_time": 26.62272727272727,
                "end_time": 26.834090909090907,
                "pitch": 35,
                "velocity": 101,
                "duration": 0.21136363636363598,
                "tempo": 120.0
            },
            {
                "start_time": 26.834090909090907,
                "end_time": 27.068181818181817,
                "pitch": 35,
                "velocity": 101,
                "duration": 0.23409090909090935,
                "tempo": 120.0
            },
            {
                "start_time": 27.068181818181817,
                "end_time": 27.284090909090907,
                "pitch": 35,
                "velocity": 101,
                "duration": 0.21590909090908994,
                "tempo": 120.0
            },
            {
                "start_time": 27.284090909090907,
                "end_time": 27.518181818181816,
                "pitch": 35,
                "velocity": 101,
                "duration": 0.23409090909090935,
                "tempo": 120.0
            },
            {
                "start_time": 27.518181818181816,
                "end_time": 27.73409090909091,
                "pitch": 35,
                "velocity": 101,
                "duration": 0.2159090909090935,
                "tempo": 120.0
            },
            {
                "start_time": 27.73409090909091,
                "end_time": 27.968181818181815,
                "pitch": 35,
                "velocity": 101,
                "duration": 0.2340909090909058,
                "tempo": 120.0
            },
            {
                "start_time": 27.968181818181815,
                "end_time": 28.18409090909091,
                "pitch": 35,
                "velocity": 101,
                "duration": 0.2159090909090935,
                "tempo": 120.0
            },
            {
                "start_time": 28.18409090909091,
                "end_time": 28.634090909090908,
                "pitch": 38,
                "velocity": 101,
                "duration": 0.4499999999999993,
                "tempo": 120.0
            },
            {
                "start_time": 28.18409090909091,
                "end_time": 28.868181818181817,
                "pitch": 35,
                "velocity": 101,
                "duration": 0.6840909090909086,
                "tempo": 120.0
            },
            {
                "start_time": 28.634090909090908,
                "end_time": 28.868181818181817,
                "pitch": 35,
                "velocity": 101,
                "duration": 0.23409090909090935,
                "tempo": 120.0
            },
            {
                "start_time": 28.868181818181817,
                "end_time": 29.084090909090907,
                "pitch": 35,
                "velocity": 101,
                "duration": 0.21590909090908994,
                "tempo": 120.0
            },
            {
                "start_time": 29.084090909090907,
                "end_time": 29.318181818181817,
                "pitch": 35,
                "velocity": 101,
                "duration": 0.23409090909090935,
                "tempo": 120.0
            },
            {
                "start_time": 29.318181818181817,
                "end_time": 29.534090909090907,
                "pitch": 35,
                "velocity": 101,
                "duration": 0.21590909090908994,
                "tempo": 120.0
            },
            {
                "start_time": 29.534090909090907,
                "end_time": 29.752272727272725,
                "pitch": 35,
                "velocity": 101,
                "duration": 0.2181818181818187,
                "tempo": 120.0
            },
            {
                "start_time": 29.752272727272725,
                "end_time": 29.98409090909091,
                "pitch": 35,
                "velocity": 101,
                "duration": 0.23181818181818414,
                "tempo": 120.0
            },
            {
                "start_time": 29.98409090909091,
                "end_time": 30.19772727272727,
                "pitch": 35,
                "velocity": 101,
                "duration": 0.21363636363636118,
                "tempo": 120.0
            },
            {
                "start_time": 30.19772727272727,
                "end_time": 30.424999999999997,
                "pitch": 35,
                "velocity": 101,
                "duration": 0.22727272727272663,
                "tempo": 120.0
            },
            {
                "start_time": 30.424999999999997,
                "end_time": 30.645454545454545,
                "pitch": 35,
                "velocity": 101,
                "duration": 0.22045454545454746,
                "tempo": 120.0
            },
            {
                "start_time": 30.645454545454545,
                "end_time": 30.884090909090908,
                "pitch": 35,
                "velocity": 101,
                "duration": 0.2386363636363633,
                "tempo": 120.0
            },
            {
                "start_time": 30.884090909090908,
                "end_time": 31.097727272727273,
                "pitch": 35,
                "velocity": 101,
                "duration": 0.21363636363636473,
                "tempo": 120.0
            },
            {
                "start_time": 31.097727272727273,
                "end_time": 31.325,
                "pitch": 35,
                "velocity": 101,
                "duration": 0.22727272727272663,
                "tempo": 120.0
            },
            {
                "start_time": 31.325,
                "end_time": 31.545454545454543,
                "pitch": 35,
                "velocity": 101,
                "duration": 0.2204545454545439,
                "tempo": 120.0
            },
            {
                "start_time": 31.545454545454543,
                "end_time": 31.784090909090907,
                "pitch": 35,
                "velocity": 101,
                "duration": 0.2386363636363633,
                "tempo": 120.0
            },
            {
                "start_time": 31.784090909090907,
                "end_time": 32.225,
                "pitch": 38,
                "velocity": 101,
                "duration": 0.4409090909090949,
                "tempo": 120.0
            },
            {
                "start_time": 32.225,
                "end_time": 32.44090909090909,
                "pitch": 35,
                "velocity": 101,
                "duration": 0.2159090909090864,
                "tempo": 120.0
            },
            {
                "start_time": 32.44090909090909,
                "end_time": 32.675,
                "pitch": 35,
                "velocity": 101,
                "duration": 0.23409090909090935,
                "tempo": 120.0
            },
            {
                "start_time": 32.675,
                "end_time": 32.89090909090909,
                "pitch": 35,
                "velocity": 101,
                "duration": 0.2159090909090935,
                "tempo": 120.0
            },
            {
                "start_time": 32.89090909090909,
                "end_time": 33.125,
                "pitch": 35,
                "velocity": 101,
                "duration": 0.23409090909090935,
                "tempo": 120.0
            },
            {
                "start_time": 33.125,
                "end_time": 33.340909090909086,
                "pitch": 35,
                "velocity": 101,
                "duration": 0.2159090909090864,
                "tempo": 120.0
            },
            {
                "start_time": 33.340909090909086,
                "end_time": 33.574999999999996,
                "pitch": 35,
                "velocity": 101,
                "duration": 0.23409090909090935,
                "tempo": 120.0
            },
            {
                "start_time": 33.574999999999996,
                "end_time": 33.78636363636363,
                "pitch": 35,
                "velocity": 101,
                "duration": 0.21136363636363598,
                "tempo": 120.0
            },
            {
                "start_time": 33.78636363636363,
                "end_time": 33.99772727272727,
                "pitch": 35,
                "velocity": 101,
                "duration": 0.21136363636363598,
                "tempo": 120.0
            },
            {
                "start_time": 33.99772727272727,
                "end_time": 34.225,
                "pitch": 35,
                "velocity": 101,
                "duration": 0.22727272727273373,
                "tempo": 120.0
            },
            {
                "start_time": 34.225,
                "end_time": 34.43863636363636,
                "pitch": 35,
                "velocity": 101,
                "duration": 0.21363636363636118,
                "tempo": 120.0
            },
            {
                "start_time": 34.43863636363636,
                "end_time": 34.66590909090909,
                "pitch": 35,
                "velocity": 101,
                "duration": 0.22727272727272663,
                "tempo": 120.0
            },
            {
                "start_time": 34.66590909090909,
                "end_time": 34.877272727272725,
                "pitch": 35,
                "velocity": 101,
                "duration": 0.21136363636363598,
                "tempo": 120.0
            },
            {
                "start_time": 34.877272727272725,
                "end_time": 35.111363636363635,
                "pitch": 35,
                "velocity": 101,
                "duration": 0.23409090909090935,
                "tempo": 120.0
            },
            {
                "start_time": 35.111363636363635,
                "end_time": 35.32727272727273,
                "pitch": 38,
                "velocity": 101,
                "duration": 0.2159090909090935,
                "tempo": 120.0
            },
            {
                "start_time": 35.32727272727273,
                "end_time": 35.56590909090909,
                "pitch": 38,
                "velocity": 101,
                "duration": 0.23863636363635976,
                "tempo": 120.0
            },
            {
                "start_time": 35.56590909090909,
                "end_time": 35.788636363636364,
                "pitch": 39,
                "velocity": 101,
                "duration": 0.22272727272727622,
                "tempo": 120.0
            },
            {
                "start_time": 35.788636363636364,
                "end_time": 36.01590909090909,
                "pitch": 40,
                "velocity": 101,
                "duration": 0.22727272727272663,
                "tempo": 120.0
            },
            {
                "start_time": 36.01590909090909,
                "end_time": 36.22954545454545,
                "pitch": 42,
                "velocity": 101,
                "duration": 0.21363636363636118,
                "tempo": 120.0
            },
            {
                "start_time": 36.22954545454545,
                "end_time": 36.461363636363636,
                "pitch": 42,
                "velocity": 101,
                "duration": 0.23181818181818414,
                "tempo": 120.0
            },
            {
                "start_time": 36.461363636363636,
                "end_time": 36.67727272727272,
                "pitch": 42,
                "velocity": 101,
                "duration": 0.2159090909090864,
                "tempo": 120.0
            },
            {
                "start_time": 36.67727272727272,
                "end_time": 36.91136363636363,
                "pitch": 42,
                "velocity": 101,
                "duration": 0.23409090909090935,
                "tempo": 120.0
            },
            {
                "start_time": 36.91136363636363,
                "end_time": 37.127272727272725,
                "pitch": 42,
                "velocity": 101,
                "duration": 0.2159090909090935,
                "tempo": 120.0
            },
            {
                "start_time": 37.127272727272725,
                "end_time": 37.361363636363635,
                "pitch": 42,
                "velocity": 101,
                "duration": 0.23409090909090935,
                "tempo": 120.0
            },
            {
                "start_time": 37.361363636363635,
                "end_time": 37.57727272727273,
                "pitch": 42,
                "velocity": 101,
                "duration": 0.2159090909090935,
                "tempo": 120.0
            },
            {
                "start_time": 37.57727272727273,
                "end_time": 37.81136363636364,
                "pitch": 42,
                "velocity": 101,
                "duration": 0.23409090909090935,
                "tempo": 120.0
            },
            {
                "start_time": 37.81136363636364,
                "end_time": 38.027272727272724,
                "pitch": 40,
                "velocity": 101,
                "duration": 0.2159090909090864,
                "tempo": 120.0
            },
            {
                "start_time": 38.027272727272724,
                "end_time": 38.24545454545454,
                "pitch": 40,
                "velocity": 101,
                "duration": 0.2181818181818187,
                "tempo": 120.0
            },
            {
                "start_time": 38.24545454545454,
                "end_time": 38.47727272727273,
                "pitch": 40,
                "velocity": 101,
                "duration": 0.23181818181818414,
                "tempo": 120.0
            },
            {
                "start_time": 38.47727272727273,
                "end_time": 38.68863636363636,
                "pitch": 40,
                "velocity": 101,
                "duration": 0.21136363636363598,
                "tempo": 120.0
            },
            {
                "start_time": 38.68863636363636,
                "end_time": 38.918181818181814,
                "pitch": 32,
                "velocity": 101,
                "duration": 0.22954545454545183,
                "tempo": 120.0
            },
            {
                "start_time": 38.918181818181814,
                "end_time": 39.13863636363636,
                "pitch": 32,
                "velocity": 101,
                "duration": 0.2204545454545439,
                "tempo": 120.0
            },
            {
                "start_time": 39.13863636363636,
                "end_time": 39.377272727272725,
                "pitch": 33,
                "velocity": 101,
                "duration": 0.23863636363636687,
                "tempo": 120.0
            },
            {
                "start_time": 39.377272727272725,
                "end_time": 39.58863636363636,
                "pitch": 34,
                "velocity": 101,
                "duration": 0.21136363636363598,
                "tempo": 120.0
            },
            {
                "start_time": 35.111363636363635,
                "end_time": 39.81818181818181,
                "pitch": 35,
                "velocity": 101,
                "duration": 4.7068181818181785,
                "tempo": 120.0
            },
            {
                "start_time": 39.58863636363636,
                "end_time": 39.81818181818181,
                "pitch": 35,
                "velocity": 101,
                "duration": 0.22954545454545183,
                "tempo": 120.0
            },
            {
                "start_time": 39.81818181818181,
                "end_time": 40.03409090909091,
                "pitch": 35,
                "velocity": 101,
                "duration": 0.2159090909090935,
                "tempo": 120.0
            },
            {
                "start_time": 40.03409090909091,
                "end_time": 40.268181818181816,
                "pitch": 35,
                "velocity": 101,
                "duration": 0.23409090909090935,
                "tempo": 120.0
            },
            {
                "start_time": 40.268181818181816,
                "end_time": 40.48409090909091,
                "pitch": 35,
                "velocity": 101,
                "duration": 0.2159090909090935,
                "tempo": 120.0
            },
            {
                "start_time": 40.48409090909091,
                "end_time": 40.71818181818182,
                "pitch": 35,
                "velocity": 101,
                "duration": 0.23409090909090935,
                "tempo": 120.0
            },
            {
                "start_time": 40.71818181818182,
                "end_time": 41.168181818181814,
                "pitch": 38,
                "velocity": 101,
                "duration": 0.44999999999999574,
                "tempo": 120.0
            },
            {
                "start_time": 40.71818181818182,
                "end_time": 41.37954545454545,
                "pitch": 35,
                "velocity": 101,
                "duration": 0.6613636363636317,
                "tempo": 120.0
            },
            {
                "start_time": 41.168181818181814,
                "end_time": 41.37954545454545,
                "pitch": 35,
                "velocity": 101,
                "duration": 0.21136363636363598,
                "tempo": 120.0
            },
            {
                "start_time": 41.37954545454545,
                "end_time": 41.60681818181818,
                "pitch": 35,
                "velocity": 101,
                "duration": 0.22727272727272663,
                "tempo": 120.0
            },
            {
                "start_time": 41.60681818181818,
                "end_time": 41.82272727272727,
                "pitch": 35,
                "velocity": 101,
                "duration": 0.2159090909090935,
                "tempo": 120.0
            },
            {
                "start_time": 41.824999999999996,
                "end_time": 42.05681818181818,
                "pitch": 35,
                "velocity": 101,
                "duration": 0.23181818181818414,
                "tempo": 120.0
            },
            {
                "start_time": 42.05681818181818,
                "end_time": 42.27272727272727,
                "pitch": 35,
                "velocity": 101,
                "duration": 0.2159090909090935,
                "tempo": 120.0
            },
            {
                "start_time": 42.27272727272727,
                "end_time": 42.49090909090909,
                "pitch": 35,
                "velocity": 101,
                "duration": 0.2181818181818187,
                "tempo": 120.0
            },
            {
                "start_time": 41.168181818181814,
                "end_time": 42.92272727272727,
                "pitch": 38,
                "velocity": 101,
                "duration": 1.7545454545454575,
                "tempo": 120.0
            },
            {
                "start_time": 42.49090909090909,
                "end_time": 42.92272727272727,
                "pitch": 38,
                "velocity": 101,
                "duration": 0.4318181818181799,
                "tempo": 120.0
            },
            {
                "start_time": 42.49090909090909,
                "end_time": 43.15909090909091,
                "pitch": 35,
                "velocity": 101,
                "duration": 0.6681818181818144,
                "tempo": 120.0
            },
            {
                "start_time": 42.92272727272727,
                "end_time": 43.15909090909091,
                "pitch": 35,
                "velocity": 101,
                "duration": 0.23636363636363455,
                "tempo": 120.0
            },
            {
                "start_time": 43.15909090909091,
                "end_time": 43.38181818181818,
                "pitch": 35,
                "velocity": 101,
                "duration": 0.22272727272727622,
                "tempo": 120.0
            },
            {
                "start_time": 43.38181818181818,
                "end_time": 43.60909090909091,
                "pitch": 35,
                "velocity": 101,
                "duration": 0.22727272727272663,
                "tempo": 120.0
            },
            {
                "start_time": 43.60909090909091,
                "end_time": 43.820454545454545,
                "pitch": 35,
                "velocity": 101,
                "duration": 0.21136363636363598,
                "tempo": 120.0
            },
            {
                "start_time": 43.820454545454545,
                "end_time": 44.054545454545455,
                "pitch": 35,
                "velocity": 101,
                "duration": 0.23409090909090935,
                "tempo": 120.0
            },
            {
                "start_time": 44.054545454545455,
                "end_time": 44.27045454545454,
                "pitch": 35,
                "velocity": 101,
                "duration": 0.2159090909090864,
                "tempo": 120.0
            },
            {
                "start_time": 44.27045454545454,
                "end_time": 44.50454545454545,
                "pitch": 35,
                "velocity": 101,
                "duration": 0.23409090909090935,
                "tempo": 120.0
            },
            {
                "start_time": 44.50454545454545,
                "end_time": 44.720454545454544,
                "pitch": 35,
                "velocity": 101,
                "duration": 0.2159090909090935,
                "tempo": 120.0
            },
            {
                "start_time": 44.720454545454544,
                "end_time": 44.95454545454545,
                "pitch": 35,
                "velocity": 101,
                "duration": 0.23409090909090935,
                "tempo": 120.0
            },
            {
                "start_time": 44.95454545454545,
                "end_time": 45.17045454545455,
                "pitch": 35,
                "velocity": 101,
                "duration": 0.2159090909090935,
                "tempo": 120.0
            },
            {
                "start_time": 45.17045454545455,
                "end_time": 45.40454545454545,
                "pitch": 35,
                "velocity": 101,
                "duration": 0.23409090909090224,
                "tempo": 120.0
            },
            {
                "start_time": 45.40454545454545,
                "end_time": 45.62045454545454,
                "pitch": 35,
                "velocity": 101,
                "duration": 0.2159090909090935,
                "tempo": 120.0
            },
            {
                "start_time": 45.62045454545454,
                "end_time": 45.85454545454545,
                "pitch": 35,
                "velocity": 101,
                "duration": 0.23409090909090935,
                "tempo": 120.0
            },
            {
                "start_time": 45.85454545454545,
                "end_time": 46.070454545454545,
                "pitch": 35,
                "velocity": 101,
                "duration": 0.2159090909090935,
                "tempo": 120.0
            },
            {
                "start_time": 46.070454545454545,
                "end_time": 46.51136363636363,
                "pitch": 38,
                "velocity": 101,
                "duration": 0.4409090909090878,
                "tempo": 120.0
            },
            {
                "start_time": 46.51136363636363,
                "end_time": 46.73181818181818,
                "pitch": 35,
                "velocity": 101,
                "duration": 0.2204545454545439,
                "tempo": 120.0
            },
            {
                "start_time": 46.73181818181818,
                "end_time": 46.970454545454544,
                "pitch": 35,
                "velocity": 101,
                "duration": 0.23863636363636687,
                "tempo": 120.0
            },
            {
                "start_time": 46.970454545454544,
                "end_time": 47.18181818181818,
                "pitch": 35,
                "velocity": 101,
                "duration": 0.21136363636363598,
                "tempo": 120.0
            },
            {
                "start_time": 47.18181818181818,
                "end_time": 47.41136363636363,
                "pitch": 35,
                "velocity": 101,
                "duration": 0.22954545454545183,
                "tempo": 120.0
            },
            {
                "start_time": 47.41136363636363,
                "end_time": 47.627272727272725,
                "pitch": 35,
                "velocity": 101,
                "duration": 0.2159090909090935,
                "tempo": 120.0
            },
            {
                "start_time": 47.627272727272725,
                "end_time": 47.85909090909091,
                "pitch": 35,
                "velocity": 101,
                "duration": 0.23181818181818414,
                "tempo": 120.0
            },
            {
                "start_time": 47.85909090909091,
                "end_time": 48.07727272727273,
                "pitch": 35,
                "velocity": 101,
                "duration": 0.2181818181818187,
                "tempo": 120.0
            },
            {
                "start_time": 48.07727272727273,
                "end_time": 48.31136363636364,
                "pitch": 35,
                "velocity": 101,
                "duration": 0.23409090909090935,
                "tempo": 120.0
            },
            {
                "start_time": 48.31136363636364,
                "end_time": 48.527272727272724,
                "pitch": 35,
                "velocity": 101,
                "duration": 0.2159090909090864,
                "tempo": 120.0
            },
            {
                "start_time": 48.527272727272724,
                "end_time": 48.75909090909091,
                "pitch": 35,
                "velocity": 101,
                "duration": 0.23181818181818414,
                "tempo": 120.0
            },
            {
                "start_time": 48.75909090909091,
                "end_time": 48.97272727272727,
                "pitch": 35,
                "velocity": 101,
                "duration": 0.21363636363636118,
                "tempo": 120.0
            },
            {
                "start_time": 48.97272727272727,
                "end_time": 49.199999999999996,
                "pitch": 35,
                "velocity": 101,
                "duration": 0.22727272727272663,
                "tempo": 120.0
            },
            {
                "start_time": 49.199999999999996,
                "end_time": 49.41590909090909,
                "pitch": 35,
                "velocity": 101,
                "duration": 0.2159090909090935,
                "tempo": 120.0
            },
            {
                "start_time": 49.41590909090909,
                "end_time": 49.65,
                "pitch": 35,
                "velocity": 101,
                "duration": 0.23409090909090935,
                "tempo": 120.0
            },
            {
                "start_time": 46.51136363636363,
                "end_time": 50.099999999999994,
                "pitch": 38,
                "velocity": 101,
                "duration": 3.588636363636361,
                "tempo": 120.0
            },
            {
                "start_time": 49.65,
                "end_time": 50.099999999999994,
                "pitch": 38,
                "velocity": 101,
                "duration": 0.44999999999999574,
                "tempo": 120.0
            },
            {
                "start_time": 49.65,
                "end_time": 50.31818181818181,
                "pitch": 35,
                "velocity": 101,
                "duration": 0.6681818181818144,
                "tempo": 120.0
            },
            {
                "start_time": 50.099999999999994,
                "end_time": 50.31818181818181,
                "pitch": 35,
                "velocity": 101,
                "duration": 0.2181818181818187,
                "tempo": 120.0
            },
            {
                "start_time": 50.31818181818181,
                "end_time": 50.55,
                "pitch": 35,
                "velocity": 101,
                "duration": 0.23181818181818414,
                "tempo": 120.0
            },
            {
                "start_time": 50.55,
                "end_time": 50.768181818181816,
                "pitch": 35,
                "velocity": 101,
                "duration": 0.2181818181818187,
                "tempo": 120.0
            },
            {
                "start_time": 50.768181818181816,
                "end_time": 50.98409090909091,
                "pitch": 35,
                "velocity": 101,
                "duration": 0.2159090909090935,
                "tempo": 120.0
            },
            {
                "start_time": 50.98409090909091,
                "end_time": 51.211363636363636,
                "pitch": 35,
                "velocity": 101,
                "duration": 0.22727272727272663,
                "tempo": 120.0
            },
            {
                "start_time": 51.211363636363636,
                "end_time": 51.425,
                "pitch": 35,
                "velocity": 101,
                "duration": 0.21363636363636118,
                "tempo": 120.0
            },
            {
                "start_time": 51.425,
                "end_time": 51.652272727272724,
                "pitch": 35,
                "velocity": 101,
                "duration": 0.22727272727272663,
                "tempo": 120.0
            },
            {
                "start_time": 51.652272727272724,
                "end_time": 51.86363636363636,
                "pitch": 35,
                "velocity": 101,
                "duration": 0.21136363636363598,
                "tempo": 120.0
            },
            {
                "start_time": 51.86363636363636,
                "end_time": 52.09772727272727,
                "pitch": 35,
                "velocity": 101,
                "duration": 0.23409090909090935,
                "tempo": 120.0
            },
            {
                "start_time": 52.09772727272727,
                "end_time": 52.31363636363636,
                "pitch": 35,
                "velocity": 101,
                "duration": 0.2159090909090935,
                "tempo": 120.0
            },
            {
                "start_time": 52.31363636363636,
                "end_time": 52.54772727272727,
                "pitch": 35,
                "velocity": 101,
                "duration": 0.23409090909090935,
                "tempo": 120.0
            },
            {
                "start_time": 52.54772727272727,
                "end_time": 52.76363636363636,
                "pitch": 35,
                "velocity": 101,
                "duration": 0.2159090909090864,
                "tempo": 120.0
            },
            {
                "start_time": 52.76363636363636,
                "end_time": 52.99772727272727,
                "pitch": 35,
                "velocity": 101,
                "duration": 0.23409090909090935,
                "tempo": 120.0
            },
            {
                "start_time": 52.99772727272727,
                "end_time": 53.21363636363636,
                "pitch": 35,
                "velocity": 101,
                "duration": 0.2159090909090935,
                "tempo": 120.0
            },
            {
                "start_time": 53.21363636363636,
                "end_time": 53.663636363636364,
                "pitch": 38,
                "velocity": 101,
                "duration": 0.45000000000000284,
                "tempo": 120.0
            },
            {
                "start_time": 53.21363636363636,
                "end_time": 53.89545454545454,
                "pitch": 35,
                "velocity": 101,
                "duration": 0.6818181818181799,
                "tempo": 120.0
            },
            {
                "start_time": 53.663636363636364,
                "end_time": 53.89545454545454,
                "pitch": 35,
                "velocity": 101,
                "duration": 0.23181818181817704,
                "tempo": 120.0
            },
            {
                "start_time": 53.89545454545454,
                "end_time": 54.11363636363636,
                "pitch": 35,
                "velocity": 101,
                "duration": 0.2181818181818187,
                "tempo": 120.0
            },
            {
                "start_time": 54.11363636363636,
                "end_time": 54.345454545454544,
                "pitch": 35,
                "velocity": 101,
                "duration": 0.23181818181818414,
                "tempo": 120.0
            },
            {
                "start_time": 54.345454545454544,
                "end_time": 54.56363636363636,
                "pitch": 35,
                "velocity": 101,
                "duration": 0.2181818181818187,
                "tempo": 120.0
            },
            {
                "start_time": 54.56363636363636,
                "end_time": 54.79545454545454,
                "pitch": 35,
                "velocity": 101,
                "duration": 0.23181818181817704,
                "tempo": 120.0
            },
            {
                "start_time": 54.79545454545454,
                "end_time": 55.01363636363636,
                "pitch": 35,
                "velocity": 101,
                "duration": 0.2181818181818187,
                "tempo": 120.0
            },
            {
                "start_time": 55.01363636363636,
                "end_time": 55.224999999999994,
                "pitch": 35,
                "velocity": 101,
                "duration": 0.21136363636363598,
                "tempo": 120.0
            },
            {
                "start_time": 55.224999999999994,
                "end_time": 55.45227272727273,
                "pitch": 35,
                "velocity": 101,
                "duration": 0.22727272727273373,
                "tempo": 120.0
            },
            {
                "start_time": 55.45227272727273,
                "end_time": 55.67045454545454,
                "pitch": 35,
                "velocity": 101,
                "duration": 0.2181818181818116,
                "tempo": 120.0
            },
            {
                "start_time": 55.67045454545454,
                "end_time": 55.902272727272724,
                "pitch": 35,
                "velocity": 101,
                "duration": 0.23181818181818414,
                "tempo": 120.0
            },
            {
                "start_time": 55.902272727272724,
                "end_time": 56.12045454545454,
                "pitch": 35,
                "velocity": 101,
                "duration": 0.2181818181818187,
                "tempo": 120.0
            },
            {
                "start_time": 56.12045454545454,
                "end_time": 56.35227272727273,
                "pitch": 35,
                "velocity": 101,
                "duration": 0.23181818181818414,
                "tempo": 120.0
            },
            {
                "start_time": 56.35227272727273,
                "end_time": 56.570454545454545,
                "pitch": 35,
                "velocity": 101,
                "duration": 0.2181818181818187,
                "tempo": 120.0
            },
            {
                "start_time": 53.663636363636364,
                "end_time": 56.80227272727272,
                "pitch": 38,
                "velocity": 101,
                "duration": 3.1386363636363583,
                "tempo": 120.0
            },
            {
                "start_time": 56.570454545454545,
                "end_time": 56.80227272727272,
                "pitch": 38,
                "velocity": 101,
                "duration": 0.23181818181817704,
                "tempo": 120.0
            },
            {
                "start_time": 56.80227272727272,
                "end_time": 57.02045454545454,
                "pitch": 38,
                "velocity": 101,
                "duration": 0.2181818181818187,
                "tempo": 120.0
            },
            {
                "start_time": 57.02045454545454,
                "end_time": 57.25454545454545,
                "pitch": 39,
                "velocity": 101,
                "duration": 0.23409090909090935,
                "tempo": 120.0
            },
            {
                "start_time": 38.68863636363636,
                "end_time": 57.470454545454544,
                "pitch": 40,
                "velocity": 101,
                "duration": 18.78181818181818,
                "tempo": 120.0
            },
            {
                "start_time": 57.25454545454545,
                "end_time": 57.470454545454544,
                "pitch": 40,
                "velocity": 101,
                "duration": 0.2159090909090935,
                "tempo": 120.0
            },
            {
                "start_time": 57.470454545454544,
                "end_time": 57.70454545454545,
                "pitch": 42,
                "velocity": 101,
                "duration": 0.23409090909090935,
                "tempo": 120.0
            },
            {
                "start_time": 57.70454545454545,
                "end_time": 57.92045454545454,
                "pitch": 42,
                "velocity": 101,
                "duration": 0.2159090909090864,
                "tempo": 120.0
            },
            {
                "start_time": 57.92045454545454,
                "end_time": 58.152272727272724,
                "pitch": 42,
                "velocity": 101,
                "duration": 0.23181818181818414,
                "tempo": 120.0
            },
            {
                "start_time": 58.152272727272724,
                "end_time": 58.37045454545454,
                "pitch": 42,
                "velocity": 101,
                "duration": 0.2181818181818187,
                "tempo": 120.0
            },
            {
                "start_time": 58.37045454545454,
                "end_time": 58.60227272727273,
                "pitch": 42,
                "velocity": 101,
                "duration": 0.23181818181818414,
                "tempo": 120.0
            },
            {
                "start_time": 58.60227272727273,
                "end_time": 58.81363636363636,
                "pitch": 42,
                "velocity": 101,
                "duration": 0.21136363636363598,
                "tempo": 120.0
            },
            {
                "start_time": 58.81363636363636,
                "end_time": 59.043181818181814,
                "pitch": 42,
                "velocity": 101,
                "duration": 0.22954545454545183,
                "tempo": 120.0
            },
            {
                "start_time": 59.043181818181814,
                "end_time": 59.25909090909091,
                "pitch": 42,
                "velocity": 101,
                "duration": 0.2159090909090935,
                "tempo": 120.0
            },
            {
                "start_time": 59.25909090909091,
                "end_time": 59.47727272727273,
                "pitch": 40,
                "velocity": 101,
                "duration": 0.2181818181818187,
                "tempo": 120.0
            },
            {
                "start_time": 59.47727272727273,
                "end_time": 59.699999999999996,
                "pitch": 40,
                "velocity": 101,
                "duration": 0.2227272727272691,
                "tempo": 120.0
            },
            {
                "start_time": 59.699999999999996,
                "end_time": 59.90681818181818,
                "pitch": 40,
                "velocity": 101,
                "duration": 0.20681818181818556,
                "tempo": 120.0
            },
            {
                "start_time": 59.90681818181818,
                "end_time": 60.14090909090909,
                "pitch": 40,
                "velocity": 101,
                "duration": 0.23409090909090935,
                "tempo": 120.0
            },
            {
                "start_time": 60.14090909090909,
                "end_time": 60.35681818181818,
                "pitch": 32,
                "velocity": 101,
                "duration": 0.2159090909090864,
                "tempo": 120.0
            },
            {
                "start_time": 60.35681818181818,
                "end_time": 60.595454545454544,
                "pitch": 32,
                "velocity": 101,
                "duration": 0.23863636363636687,
                "tempo": 120.0
            },
            {
                "start_time": 60.595454545454544,
                "end_time": 60.81590909090909,
                "pitch": 33,
                "velocity": 101,
                "duration": 0.2204545454545439,
                "tempo": 120.0
            },
            {
                "start_time": 60.81590909090909,
                "end_time": 61.04545454545454,
                "pitch": 34,
                "velocity": 101,
                "duration": 0.22954545454545183,
                "tempo": 120.0
            },
            {
                "start_time": 56.570454545454545,
                "end_time": 61.256818181818176,
                "pitch": 35,
                "velocity": 101,
                "duration": 4.68636363636363,
                "tempo": 120.0
            },
            {
                "start_time": 61.04545454545454,
                "end_time": 61.256818181818176,
                "pitch": 35,
                "velocity": 101,
                "duration": 0.21136363636363598,
                "tempo": 120.0
            },
            {
                "start_time": 61.256818181818176,
                "end_time": 61.48863636363636,
                "pitch": 35,
                "velocity": 101,
                "duration": 0.23181818181818414,
                "tempo": 120.0
            },
            {
                "start_time": 61.48863636363636,
                "end_time": 61.70681818181818,
                "pitch": 35,
                "velocity": 101,
                "duration": 0.2181818181818187,
                "tempo": 120.0
            },
            {
                "start_time": 61.70681818181818,
                "end_time": 61.93863636363636,
                "pitch": 35,
                "velocity": 101,
                "duration": 0.23181818181818414,
                "tempo": 120.0
            },
            {
                "start_time": 61.93863636363636,
                "end_time": 62.15681818181818,
                "pitch": 35,
                "velocity": 101,
                "duration": 0.2181818181818187,
                "tempo": 120.0
            },
            {
                "start_time": 62.15681818181818,
                "end_time": 62.595454545454544,
                "pitch": 38,
                "velocity": 101,
                "duration": 0.4386363636363626,
                "tempo": 120.0
            },
            {
                "start_time": 62.15681818181818,
                "end_time": 62.82954545454545,
                "pitch": 35,
                "velocity": 101,
                "duration": 0.672727272727272,
                "tempo": 120.0
            },
            {
                "start_time": 62.595454545454544,
                "end_time": 62.82954545454545,
                "pitch": 35,
                "velocity": 101,
                "duration": 0.23409090909090935,
                "tempo": 120.0
            },
            {
                "start_time": 62.82954545454545,
                "end_time": 63.04545454545454,
                "pitch": 35,
                "velocity": 101,
                "duration": 0.2159090909090864,
                "tempo": 120.0
            },
            {
                "start_time": 63.04545454545454,
                "end_time": 63.27954545454545,
                "pitch": 35,
                "velocity": 101,
                "duration": 0.23409090909090935,
                "tempo": 120.0
            },
            {
                "start_time": 63.27954545454545,
                "end_time": 63.49545454545454,
                "pitch": 35,
                "velocity": 101,
                "duration": 0.2159090909090935,
                "tempo": 120.0
            },
            {
                "start_time": 63.49545454545454,
                "end_time": 63.71363636363636,
                "pitch": 35,
                "velocity": 101,
                "duration": 0.2181818181818187,
                "tempo": 120.0
            },
            {
                "start_time": 63.71363636363636,
                "end_time": 63.945454545454545,
                "pitch": 35,
                "velocity": 101,
                "duration": 0.23181818181818414,
                "tempo": 120.0
            },
            {
                "start_time": 62.595454545454544,
                "end_time": 64.39772727272727,
                "pitch": 38,
                "velocity": 101,
                "duration": 1.8022727272727224,
                "tempo": 120.0
            },
            {
                "start_time": 63.945454545454545,
                "end_time": 64.39772727272727,
                "pitch": 38,
                "velocity": 101,
                "duration": 0.45227272727272094,
                "tempo": 120.0
            },
            {
                "start_time": 63.945454545454545,
                "end_time": 64.61363636363636,
                "pitch": 35,
                "velocity": 101,
                "duration": 0.6681818181818144,
                "tempo": 120.0
            },
            {
                "start_time": 64.39772727272727,
                "end_time": 64.61363636363636,
                "pitch": 35,
                "velocity": 101,
                "duration": 0.2159090909090935,
                "tempo": 120.0
            },
            {
                "start_time": 64.61363636363636,
                "end_time": 64.84545454545454,
                "pitch": 35,
                "velocity": 101,
                "duration": 0.23181818181818414,
                "tempo": 120.0
            },
            {
                "start_time": 64.84545454545454,
                "end_time": 64.84772727272727,
                "pitch": 35,
                "velocity": 101,
                "duration": 0.0022727272727252057,
                "tempo": 120.0
            }
        ]
    }
}