{
    "track_id": "11 Sadness",
    "mood": "sad",
    "instruments": {
        "Flute": [
            {
                "start_time": 3.190909090909091,
                "end_time": 3.4068181818181817,
                "pitch": 71,
                "velocity": 127,
                "duration": 0.21590909090909083,
                "tempo": 120.0
            },
            {
                "start_time": 3.425,
                "end_time": 3.6409090909090907,
                "pitch": 69,
                "velocity": 127,
                "duration": 0.21590909090909083,
                "tempo": 120.0
            },
            {
                "start_time": 3.6590909090909087,
                "end_time": 5.49090909090909,
                "pitch": 72,
                "velocity": 127,
                "duration": 1.8318181818181816,
                "tempo": 120.0
            },
            {
                "start_time": 5.509090909090909,
                "end_time": 6.156818181818181,
                "pitch": 72,
                "velocity": 127,
                "duration": 0.6477272727272725,
                "tempo": 120.0
            },
            {
                "start_time": 6.204545454545454,
                "end_time": 6.85,
                "pitch": 74,
                "velocity": 127,
                "duration": 0.6454545454545455,
                "tempo": 120.0
            },
            {
                "start_time": 6.8999999999999995,
                "end_time": 7.3181818181818175,
                "pitch": 69,
                "velocity": 127,
                "duration": 0.418181818181818,
                "tempo": 120.0
            },
            {
                "start_time": 7.352272727272727,
                "end_time": 8.040909090909091,
                "pitch": 69,
                "velocity": 127,
                "duration": 0.6886363636363644,
                "tempo": 120.0
            },
            {
                "start_time": 8.040909090909091,
                "end_time": 11.013636363636364,
                "pitch": 71,
                "velocity": 127,
                "duration": 2.9727272727272727,
                "tempo": 120.0
            },
            {
                "start_time": 11.031818181818181,
                "end_time": 14.677272727272726,
                "pitch": 83,
                "velocity": 127,
                "duration": 3.6454545454545446,
                "tempo": 120.0
            },
            {
                "start_time": 14.693181818181818,
                "end_time": 17.929545454545455,
                "pitch": 71,
                "velocity": 127,
                "duration": 3.2363636363636363,
                "tempo": 120.0
            },
            {
                "start_time": 17.945454545454545,
                "end_time": 18.159090909090907,
                "pitch": 71,
                "velocity": 127,
                "duration": 0.21363636363636118,
                "tempo": 120.0
            },
            {
                "start_time": 18.175,
                "end_time": 18.386363636363637,
                "pitch": 69,
                "velocity": 127,
                "duration": 0.21136363636363598,
                "tempo": 120.0
            },
            {
                "start_time": 3.6590909090909087,
                "end_time": 18.402272727272727,
                "pitch": 56,
                "velocity": 127,
                "duration": 14.743181818181819,
                "tempo": 120.0
            },
            {
                "start_time": 18.402272727272727,
                "end_time": 20.220454545454544,
                "pitch": 72,
                "velocity": 127,
                "duration": 1.8181818181818166,
                "tempo": 120.0
            },
            {
                "start_time": 20.236363636363635,
                "end_time": 20.884090909090908,
                "pitch": 72,
                "velocity": 127,
                "duration": 0.6477272727272734,
                "tempo": 120.0
            },
            {
                "start_time": 20.91590909090909,
                "end_time": 21.575,
                "pitch": 74,
                "velocity": 127,
                "duration": 0.6590909090909101,
                "tempo": 120.0
            },
            {
                "start_time": 6.8999999999999995,
                "end_time": 21.60681818181818,
                "pitch": 76,
                "velocity": 127,
                "duration": 14.706818181818182,
                "tempo": 120.0
            },
            {
                "start_time": 21.60681818181818,
                "end_time": 22.04090909090909,
                "pitch": 69,
                "velocity": 127,
                "duration": 0.43409090909090864,
                "tempo": 120.0
            },
            {
                "start_time": 22.075,
                "end_time": 22.784090909090907,
                "pitch": 69,
                "velocity": 127,
                "duration": 0.7090909090909072,
                "tempo": 120.0
            },
            {
                "start_time": 22.784090909090907,
                "end_time": 25.74090909090909,
                "pitch": 71,
                "velocity": 127,
                "duration": 2.956818181818182,
                "tempo": 120.0
            },
            {
                "start_time": 25.775,
                "end_time": 28.96363636363636,
                "pitch": 83,
                "velocity": 127,
                "duration": 3.1886363636363626,
                "tempo": 120.0
            }
        ],
        "Clarinet": [
            {
                "start_time": 28.979545454545452,
                "end_time": 29.195454545454545,
                "pitch": 76,
                "velocity": 127,
                "duration": 0.2159090909090935,
                "tempo": 120.0
            },
            {
                "start_time": 29.21363636363636,
                "end_time": 29.429545454545455,
                "pitch": 76,
                "velocity": 127,
                "duration": 0.2159090909090935,
                "tempo": 120.0
            },
            {
                "start_time": 29.44772727272727,
                "end_time": 30.33863636363636,
                "pitch": 76,
                "velocity": 127,
                "duration": 0.8909090909090907,
                "tempo": 120.0
            },
            {
                "start_time": 30.37272727272727,
                "end_time": 31.24772727272727,
                "pitch": 74,
                "velocity": 127,
                "duration": 0.875,
                "tempo": 120.0
            },
            {
                "start_time": 31.297727272727272,
                "end_time": 32.17272727272727,
                "pitch": 69,
                "velocity": 127,
                "duration": 0.875,
                "tempo": 120.0
            },
            {
                "start_time": 32.22272727272727,
                "end_time": 33.07727272727273,
                "pitch": 74,
                "velocity": 127,
                "duration": 0.8545454545454589,
                "tempo": 120.0
            },
            {
                "start_time": 31.297727272727272,
                "end_time": 33.10909090909091,
                "pitch": 77,
                "velocity": 127,
                "duration": 1.8113636363636374,
                "tempo": 120.0
            },
            {
                "start_time": 33.10909090909091,
                "end_time": 33.32727272727273,
                "pitch": 71,
                "velocity": 127,
                "duration": 0.2181818181818187,
                "tempo": 120.0
            },
            {
                "start_time": 28.979545454545452,
                "end_time": 33.34318181818182,
                "pitch": 56,
                "velocity": 127,
                "duration": 4.363636363636367,
                "tempo": 120.0
            },
            {
                "start_time": 33.34318181818182,
                "end_time": 33.56136363636364,
                "pitch": 72,
                "velocity": 127,
                "duration": 0.2181818181818187,
                "tempo": 120.0
            },
            {
                "start_time": 33.57727272727273,
                "end_time": 33.79772727272727,
                "pitch": 71,
                "velocity": 127,
                "duration": 0.2204545454545439,
                "tempo": 120.0
            },
            {
                "start_time": 33.81590909090909,
                "end_time": 34.03636363636363,
                "pitch": 71,
                "velocity": 127,
                "duration": 0.2204545454545439,
                "tempo": 120.0
            },
            {
                "start_time": 34.05227272727272,
                "end_time": 34.75,
                "pitch": 69,
                "velocity": 127,
                "duration": 0.6977272727272776,
                "tempo": 120.0
            },
            {
                "start_time": 34.75,
                "end_time": 36.320454545454545,
                "pitch": 71,
                "velocity": 127,
                "duration": 1.5704545454545453,
                "tempo": 120.0
            },
            {
                "start_time": 33.34318181818182,
                "end_time": 36.336363636363636,
                "pitch": 56,
                "velocity": 127,
                "duration": 2.9931818181818173,
                "tempo": 120.0
            },
            {
                "start_time": 30.37272727272727,
                "end_time": 36.554545454545455,
                "pitch": 76,
                "velocity": 127,
                "duration": 6.181818181818183,
                "tempo": 120.0
            },
            {
                "start_time": 36.336363636363636,
                "end_time": 36.554545454545455,
                "pitch": 76,
                "velocity": 127,
                "duration": 0.2181818181818187,
                "tempo": 120.0
            },
            {
                "start_time": 36.570454545454545,
                "end_time": 36.788636363636364,
                "pitch": 76,
                "velocity": 127,
                "duration": 0.2181818181818187,
                "tempo": 120.0
            },
            {
                "start_time": 36.804545454545455,
                "end_time": 37.69090909090909,
                "pitch": 76,
                "velocity": 127,
                "duration": 0.8863636363636331,
                "tempo": 120.0
            },
            {
                "start_time": 37.74090909090909,
                "end_time": 38.61590909090909,
                "pitch": 74,
                "velocity": 101,
                "duration": 0.875,
                "tempo": 120.0
            },
            {
                "start_time": 33.10909090909091,
                "end_time": 38.66590909090909,
                "pitch": 77,
                "velocity": 127,
                "duration": 5.55681818181818,
                "tempo": 120.0
            },
            {
                "start_time": 38.66590909090909,
                "end_time": 39.52272727272727,
                "pitch": 69,
                "velocity": 127,
                "duration": 0.8568181818181841,
                "tempo": 120.0
            },
            {
                "start_time": 32.22272727272727,
                "end_time": 39.554545454545455,
                "pitch": 44,
                "velocity": 127,
                "duration": 7.331818181818186,
                "tempo": 120.0
            },
            {
                "start_time": 39.554545454545455,
                "end_time": 40.445454545454545,
                "pitch": 74,
                "velocity": 127,
                "duration": 0.8909090909090907,
                "tempo": 120.0
            },
            {
                "start_time": 38.66590909090909,
                "end_time": 40.47727272727273,
                "pitch": 77,
                "velocity": 127,
                "duration": 1.8113636363636374,
                "tempo": 120.0
            },
            {
                "start_time": 40.47727272727273,
                "end_time": 40.695454545454545,
                "pitch": 71,
                "velocity": 127,
                "duration": 0.2181818181818187,
                "tempo": 120.0
            },
            {
                "start_time": 36.336363636363636,
                "end_time": 40.711363636363636,
                "pitch": 56,
                "velocity": 127,
                "duration": 4.375,
                "tempo": 120.0
            },
            {
                "start_time": 40.711363636363636,
                "end_time": 40.929545454545455,
                "pitch": 72,
                "velocity": 127,
                "duration": 0.2181818181818187,
                "tempo": 120.0
            },
            {
                "start_time": 40.945454545454545,
                "end_time": 41.16590909090909,
                "pitch": 71,
                "velocity": 127,
                "duration": 0.2204545454545439,
                "tempo": 120.0
            },
            {
                "start_time": 41.184090909090905,
                "end_time": 41.40454545454545,
                "pitch": 71,
                "velocity": 127,
                "duration": 0.2204545454545439,
                "tempo": 120.0
            },
            {
                "start_time": 41.42045454545455,
                "end_time": 42.11818181818182,
                "pitch": 69,
                "velocity": 127,
                "duration": 0.6977272727272705,
                "tempo": 120.0
            },
            {
                "start_time": 42.11818181818182,
                "end_time": 43.69090909090909,
                "pitch": 71,
                "velocity": 127,
                "duration": 1.5727272727272705,
                "tempo": 120.0
            },
            {
                "start_time": 40.711363636363636,
                "end_time": 43.70681818181818,
                "pitch": 56,
                "velocity": 127,
                "duration": 2.9954545454545425,
                "tempo": 120.0
            },
            {
                "start_time": 40.945454545454545,
                "end_time": 43.92727272727272,
                "pitch": 76,
                "velocity": 127,
                "duration": 2.981818181818177,
                "tempo": 120.0
            },
            {
                "start_time": 43.70681818181818,
                "end_time": 43.92727272727272,
                "pitch": 76,
                "velocity": 127,
                "duration": 0.2204545454545439,
                "tempo": 120.0
            },
            {
                "start_time": 43.94318181818181,
                "end_time": 44.14772727272727,
                "pitch": 76,
                "velocity": 127,
                "duration": 0.20454545454546036,
                "tempo": 120.0
            },
            {
                "start_time": 44.18181818181818,
                "end_time": 45.05681818181818,
                "pitch": 76,
                "velocity": 127,
                "duration": 0.875,
                "tempo": 120.0
            },
            {
                "start_time": 45.10681818181818,
                "end_time": 45.96363636363636,
                "pitch": 74,
                "velocity": 127,
                "duration": 0.8568181818181841,
                "tempo": 120.0
            },
            {
                "start_time": 40.47727272727273,
                "end_time": 45.99545454545454,
                "pitch": 77,
                "velocity": 127,
                "duration": 5.518181818181816,
                "tempo": 120.0
            },
            {
                "start_time": 45.99545454545454,
                "end_time": 46.88636363636363,
                "pitch": 69,
                "velocity": 127,
                "duration": 0.8909090909090907,
                "tempo": 120.0
            },
            {
                "start_time": 39.554545454545455,
                "end_time": 46.918181818181814,
                "pitch": 44,
                "velocity": 127,
                "duration": 7.36363636363636,
                "tempo": 120.0
            },
            {
                "start_time": 46.918181818181814,
                "end_time": 47.81136363636364,
                "pitch": 74,
                "velocity": 127,
                "duration": 0.893181818181823,
                "tempo": 120.0
            },
            {
                "start_time": 45.99545454545454,
                "end_time": 47.84318181818182,
                "pitch": 77,
                "velocity": 127,
                "duration": 1.8477272727272762,
                "tempo": 120.0
            },
            {
                "start_time": 47.84318181818182,
                "end_time": 50.56818181818181,
                "pitch": 71,
                "velocity": 127,
                "duration": 2.7249999999999943,
                "tempo": 120.0
            },
            {
                "start_time": 43.70681818181818,
                "end_time": 50.61818181818182,
                "pitch": 56,
                "velocity": 127,
                "duration": 6.911363636363639,
                "tempo": 120.0
            },
            {
                "start_time": 50.61818181818182,
                "end_time": 51.49318181818182,
                "pitch": 74,
                "velocity": 127,
                "duration": 0.875,
                "tempo": 120.0
            },
            {
                "start_time": 51.527272727272724,
                "end_time": 52.275,
                "pitch": 74,
                "velocity": 127,
                "duration": 0.7477272727272748,
                "tempo": 120.0
            },
            {
                "start_time": 52.275,
                "end_time": 55.19772727272727,
                "pitch": 72,
                "velocity": 127,
                "duration": 2.922727272727272,
                "tempo": 120.0
            },
            {
                "start_time": 55.215909090909086,
                "end_time": 58.85909090909091,
                "pitch": 72,
                "velocity": 127,
                "duration": 3.643181818181823,
                "tempo": 120.0
            }
        ],
        "Vibraphone": [
            {
                "start_time": 0.4636363636363636,
                "end_time": 0.8636363636363636,
                "pitch": 47,
                "velocity": 80,
                "duration": 0.4,
                "tempo": 120.0
            },
            {
                "start_time": 0.8954545454545454,
                "end_time": 1.3113636363636363,
                "pitch": 52,
                "velocity": 80,
                "duration": 0.4159090909090909,
                "tempo": 120.0
            },
            {
                "start_time": 1.343181818181818,
                "end_time": 1.775,
                "pitch": 47,
                "velocity": 80,
                "duration": 0.4318181818181819,
                "tempo": 120.0
            },
            {
                "start_time": 1.809090909090909,
                "end_time": 2.234090909090909,
                "pitch": 40,
                "velocity": 80,
                "duration": 0.4249999999999998,
                "tempo": 120.0
            },
            {
                "start_time": 0.4636363636363636,
                "end_time": 2.2659090909090907,
                "pitch": 54,
                "velocity": 80,
                "duration": 1.802272727272727,
                "tempo": 120.0
            },
            {
                "start_time": 2.2659090909090907,
                "end_time": 2.6999999999999997,
                "pitch": 47,
                "velocity": 80,
                "duration": 0.4340909090909091,
                "tempo": 120.0
            },
            {
                "start_time": 0.8954545454545454,
                "end_time": 2.734090909090909,
                "pitch": 32,
                "velocity": 80,
                "duration": 1.8386363636363634,
                "tempo": 120.0
            },
            {
                "start_time": 2.734090909090909,
                "end_time": 3.1590909090909087,
                "pitch": 52,
                "velocity": 80,
                "duration": 0.4249999999999998,
                "tempo": 120.0
            },
            {
                "start_time": 2.2659090909090907,
                "end_time": 3.190909090909091,
                "pitch": 54,
                "velocity": 80,
                "duration": 0.9250000000000003,
                "tempo": 120.0
            },
            {
                "start_time": 3.190909090909091,
                "end_time": 3.625,
                "pitch": 47,
                "velocity": 80,
                "duration": 0.4340909090909091,
                "tempo": 120.0
            },
            {
                "start_time": 1.809090909090909,
                "end_time": 3.6590909090909087,
                "pitch": 19,
                "velocity": 80,
                "duration": 1.8499999999999996,
                "tempo": 120.0
            },
            {
                "start_time": 3.6590909090909087,
                "end_time": 4.084090909090909,
                "pitch": 41,
                "velocity": 80,
                "duration": 0.42500000000000027,
                "tempo": 120.0
            },
            {
                "start_time": 4.11590909090909,
                "end_time": 4.55,
                "pitch": 48,
                "velocity": 80,
                "duration": 0.4340909090909095,
                "tempo": 120.0
            },
            {
                "start_time": 4.11590909090909,
                "end_time": 5.009090909090909,
                "pitch": 53,
                "velocity": 80,
                "duration": 0.8931818181818185,
                "tempo": 120.0
            },
            {
                "start_time": 4.584090909090909,
                "end_time": 5.009090909090909,
                "pitch": 53,
                "velocity": 80,
                "duration": 0.4249999999999998,
                "tempo": 120.0
            },
            {
                "start_time": 4.584090909090909,
                "end_time": 5.459090909090909,
                "pitch": 48,
                "velocity": 80,
                "duration": 0.875,
                "tempo": 120.0
            },
            {
                "start_time": 5.040909090909091,
                "end_time": 5.459090909090909,
                "pitch": 48,
                "velocity": 80,
                "duration": 0.418181818181818,
                "tempo": 120.0
            },
            {
                "start_time": 5.509090909090909,
                "end_time": 5.925,
                "pitch": 41,
                "velocity": 80,
                "duration": 0.415909090909091,
                "tempo": 120.0
            },
            {
                "start_time": 5.977272727272727,
                "end_time": 6.384090909090909,
                "pitch": 48,
                "velocity": 80,
                "duration": 0.4068181818181822,
                "tempo": 120.0
            },
            {
                "start_time": 5.040909090909091,
                "end_time": 6.85,
                "pitch": 53,
                "velocity": 80,
                "duration": 1.8090909090909086,
                "tempo": 120.0
            },
            {
                "start_time": 6.434090909090909,
                "end_time": 6.85,
                "pitch": 53,
                "velocity": 80,
                "duration": 0.415909090909091,
                "tempo": 120.0
            },
            {
                "start_time": 6.902272727272727,
                "end_time": 7.3181818181818175,
                "pitch": 48,
                "velocity": 80,
                "duration": 0.4159090909090901,
                "tempo": 120.0
            },
            {
                "start_time": 5.509090909090909,
                "end_time": 7.352272727272727,
                "pitch": 36,
                "velocity": 80,
                "duration": 1.8431818181818178,
                "tempo": 120.0
            },
            {
                "start_time": 7.352272727272727,
                "end_time": 7.759090909090909,
                "pitch": 40,
                "velocity": 80,
                "duration": 0.4068181818181822,
                "tempo": 120.0
            },
            {
                "start_time": 3.190909090909091,
                "end_time": 7.79090909090909,
                "pitch": 54,
                "velocity": 80,
                "duration": 4.6,
                "tempo": 120.0
            },
            {
                "start_time": 7.79090909090909,
                "end_time": 8.222727272727273,
                "pitch": 47,
                "velocity": 80,
                "duration": 0.43181818181818254,
                "tempo": 120.0
            },
            {
                "start_time": 2.734090909090909,
                "end_time": 8.256818181818181,
                "pitch": 32,
                "velocity": 80,
                "duration": 5.522727272727272,
                "tempo": 120.0
            },
            {
                "start_time": 8.256818181818181,
                "end_time": 8.681818181818182,
                "pitch": 52,
                "velocity": 80,
                "duration": 0.4250000000000007,
                "tempo": 120.0
            },
            {
                "start_time": 7.79090909090909,
                "end_time": 8.713636363636363,
                "pitch": 54,
                "velocity": 80,
                "duration": 0.9227272727272728,
                "tempo": 120.0
            },
            {
                "start_time": 8.713636363636363,
                "end_time": 9.147727272727272,
                "pitch": 47,
                "velocity": 80,
                "duration": 0.43409090909090864,
                "tempo": 120.0
            },
            {
                "start_time": 3.6590909090909087,
                "end_time": 9.181818181818182,
                "pitch": 19,
                "velocity": 80,
                "duration": 5.522727272727273,
                "tempo": 120.0
            },
            {
                "start_time": 9.181818181818182,
                "end_time": 9.60681818181818,
                "pitch": 40,
                "velocity": 80,
                "duration": 0.42499999999999893,
                "tempo": 120.0
            },
            {
                "start_time": 8.713636363636363,
                "end_time": 9.638636363636364,
                "pitch": 54,
                "velocity": 80,
                "duration": 0.9250000000000007,
                "tempo": 120.0
            },
            {
                "start_time": 9.638636363636364,
                "end_time": 10.072727272727272,
                "pitch": 47,
                "velocity": 80,
                "duration": 0.43409090909090864,
                "tempo": 120.0
            },
            {
                "start_time": 8.256818181818181,
                "end_time": 10.10681818181818,
                "pitch": 32,
                "velocity": 80,
                "duration": 1.8499999999999996,
                "tempo": 120.0
            },
            {
                "start_time": 10.10681818181818,
                "end_time": 10.540909090909091,
                "pitch": 52,
                "velocity": 80,
                "duration": 0.4340909090909104,
                "tempo": 120.0
            },
            {
                "start_time": 9.638636363636364,
                "end_time": 10.572727272727272,
                "pitch": 54,
                "velocity": 80,
                "duration": 0.9340909090909086,
                "tempo": 120.0
            },
            {
                "start_time": 10.572727272727272,
                "end_time": 10.997727272727273,
                "pitch": 47,
                "velocity": 80,
                "duration": 0.4250000000000007,
                "tempo": 120.0
            },
            {
                "start_time": 9.181818181818182,
                "end_time": 11.031818181818181,
                "pitch": 19,
                "velocity": 80,
                "duration": 1.8499999999999996,
                "tempo": 120.0
            },
            {
                "start_time": 11.031818181818181,
                "end_time": 11.438636363636363,
                "pitch": 40,
                "velocity": 80,
                "duration": 0.4068181818181813,
                "tempo": 120.0
            },
            {
                "start_time": 11.488636363636363,
                "end_time": 11.906818181818181,
                "pitch": 47,
                "velocity": 80,
                "duration": 0.418181818181818,
                "tempo": 120.0
            },
            {
                "start_time": 10.10681818181818,
                "end_time": 11.956818181818182,
                "pitch": 32,
                "velocity": 80,
                "duration": 1.8500000000000014,
                "tempo": 120.0
            },
            {
                "start_time": 11.956818181818182,
                "end_time": 12.363636363636363,
                "pitch": 52,
                "velocity": 80,
                "duration": 0.4068181818181813,
                "tempo": 120.0
            },
            {
                "start_time": 10.572727272727272,
                "end_time": 12.413636363636362,
                "pitch": 54,
                "velocity": 80,
                "duration": 1.84090909090909,
                "tempo": 120.0
            },
            {
                "start_time": 12.413636363636362,
                "end_time": 12.829545454545453,
                "pitch": 47,
                "velocity": 80,
                "duration": 0.415909090909091,
                "tempo": 120.0
            },
            {
                "start_time": 11.031818181818181,
                "end_time": 12.881818181818181,
                "pitch": 19,
                "velocity": 80,
                "duration": 1.8499999999999996,
                "tempo": 120.0
            },
            {
                "start_time": 12.881818181818181,
                "end_time": 13.297727272727272,
                "pitch": 40,
                "velocity": 80,
                "duration": 0.415909090909091,
                "tempo": 120.0
            },
            {
                "start_time": 13.347727272727273,
                "end_time": 13.756818181818181,
                "pitch": 47,
                "velocity": 80,
                "duration": 0.4090909090909083,
                "tempo": 120.0
            },
            {
                "start_time": 11.956818181818182,
                "end_time": 13.788636363636362,
                "pitch": 32,
                "velocity": 80,
                "duration": 1.8318181818181802,
                "tempo": 120.0
            },
            {
                "start_time": 13.788636363636362,
                "end_time": 14.204545454545453,
                "pitch": 52,
                "velocity": 80,
                "duration": 0.415909090909091,
                "tempo": 120.0
            },
            {
                "start_time": 12.413636363636362,
                "end_time": 14.236363636363636,
                "pitch": 54,
                "velocity": 80,
                "duration": 1.822727272727274,
                "tempo": 120.0
            },
            {
                "start_time": 14.236363636363636,
                "end_time": 14.661363636363635,
                "pitch": 47,
                "velocity": 80,
                "duration": 0.42499999999999893,
                "tempo": 120.0
            },
            {
                "start_time": 12.881818181818181,
                "end_time": 14.693181818181818,
                "pitch": 19,
                "velocity": 80,
                "duration": 1.8113636363636374,
                "tempo": 120.0
            },
            {
                "start_time": 14.693181818181818,
                "end_time": 15.127272727272727,
                "pitch": 40,
                "velocity": 80,
                "duration": 0.43409090909090864,
                "tempo": 120.0
            },
            {
                "start_time": 14.236363636363636,
                "end_time": 15.161363636363635,
                "pitch": 54,
                "velocity": 80,
                "duration": 0.9249999999999989,
                "tempo": 120.0
            },
            {
                "start_time": 15.161363636363635,
                "end_time": 15.595454545454544,
                "pitch": 47,
                "velocity": 80,
                "duration": 0.43409090909090864,
                "tempo": 120.0
            },
            {
                "start_time": 13.788636363636362,
                "end_time": 15.629545454545454,
                "pitch": 32,
                "velocity": 80,
                "duration": 1.8409090909090917,
                "tempo": 120.0
            },
            {
                "start_time": 15.629545454545454,
                "end_time": 16.054545454545455,
                "pitch": 52,
                "velocity": 80,
                "duration": 0.4250000000000007,
                "tempo": 120.0
            },
            {
                "start_time": 15.161363636363635,
                "end_time": 16.086363636363636,
                "pitch": 54,
                "velocity": 80,
                "duration": 0.9250000000000007,
                "tempo": 120.0
            },
            {
                "start_time": 16.086363636363636,
                "end_time": 16.520454545454545,
                "pitch": 47,
                "velocity": 80,
                "duration": 0.43409090909090864,
                "tempo": 120.0
            },
            {
                "start_time": 14.693181818181818,
                "end_time": 16.554545454545455,
                "pitch": 19,
                "velocity": 80,
                "duration": 1.8613636363636363,
                "tempo": 120.0
            },
            {
                "start_time": 16.554545454545455,
                "end_time": 16.977272727272727,
                "pitch": 40,
                "velocity": 80,
                "duration": 0.42272727272727195,
                "tempo": 120.0
            },
            {
                "start_time": 16.086363636363636,
                "end_time": 17.011363636363637,
                "pitch": 54,
                "velocity": 80,
                "duration": 0.9250000000000007,
                "tempo": 120.0
            },
            {
                "start_time": 17.011363636363637,
                "end_time": 17.445454545454545,
                "pitch": 47,
                "velocity": 80,
                "duration": 0.43409090909090864,
                "tempo": 120.0
            },
            {
                "start_time": 15.629545454545454,
                "end_time": 17.477272727272727,
                "pitch": 32,
                "velocity": 80,
                "duration": 1.8477272727272727,
                "tempo": 120.0
            },
            {
                "start_time": 17.477272727272727,
                "end_time": 17.895454545454545,
                "pitch": 52,
                "velocity": 80,
                "duration": 0.418181818181818,
                "tempo": 120.0
            },
            {
                "start_time": 17.011363636363637,
                "end_time": 17.945454545454545,
                "pitch": 54,
                "velocity": 80,
                "duration": 0.9340909090909086,
                "tempo": 120.0
            },
            {
                "start_time": 17.945454545454545,
                "end_time": 18.354545454545455,
                "pitch": 47,
                "velocity": 80,
                "duration": 0.40909090909091006,
                "tempo": 120.0
            },
            {
                "start_time": 16.554545454545455,
                "end_time": 18.402272727272727,
                "pitch": 19,
                "velocity": 80,
                "duration": 1.8477272727272727,
                "tempo": 120.0
            },
            {
                "start_time": 18.402272727272727,
                "end_time": 18.820454545454545,
                "pitch": 41,
                "velocity": 80,
                "duration": 0.418181818181818,
                "tempo": 120.0
            },
            {
                "start_time": 18.870454545454546,
                "end_time": 19.279545454545453,
                "pitch": 48,
                "velocity": 80,
                "duration": 0.4090909090909065,
                "tempo": 120.0
            },
            {
                "start_time": 19.327272727272728,
                "end_time": 19.329545454545453,
                "pitch": 48,
                "velocity": 80,
                "duration": 0.0022727272727252057,
                "tempo": 120.0
            },
            {
                "start_time": 6.902272727272727,
                "end_time": 19.745454545454546,
                "pitch": 53,
                "velocity": 80,
                "duration": 12.843181818181819,
                "tempo": 120.0
            },
            {
                "start_time": 19.329545454545453,
                "end_time": 19.745454545454546,
                "pitch": 53,
                "velocity": 80,
                "duration": 0.4159090909090928,
                "tempo": 120.0
            },
            {
                "start_time": 19.795454545454543,
                "end_time": 20.204545454545453,
                "pitch": 48,
                "velocity": 80,
                "duration": 0.40909090909091006,
                "tempo": 120.0
            },
            {
                "start_time": 7.352272727272727,
                "end_time": 20.236363636363635,
                "pitch": 36,
                "velocity": 80,
                "duration": 12.884090909090908,
                "tempo": 120.0
            },
            {
                "start_time": 20.236363636363635,
                "end_time": 20.652272727272727,
                "pitch": 41,
                "velocity": 80,
                "duration": 0.4159090909090928,
                "tempo": 120.0
            },
            {
                "start_time": 20.68409090909091,
                "end_time": 21.118181818181817,
                "pitch": 48,
                "velocity": 80,
                "duration": 0.43409090909090864,
                "tempo": 120.0
            },
            {
                "start_time": 19.795454545454543,
                "end_time": 21.575,
                "pitch": 53,
                "velocity": 80,
                "duration": 1.779545454545456,
                "tempo": 120.0
            },
            {
                "start_time": 21.15,
                "end_time": 21.575,
                "pitch": 53,
                "velocity": 80,
                "duration": 0.4250000000000007,
                "tempo": 120.0
            },
            {
                "start_time": 21.15,
                "end_time": 22.043181818181818,
                "pitch": 48,
                "velocity": 80,
                "duration": 0.8931818181818194,
                "tempo": 120.0
            },
            {
                "start_time": 21.60909090909091,
                "end_time": 22.043181818181818,
                "pitch": 48,
                "velocity": 80,
                "duration": 0.43409090909090864,
                "tempo": 120.0
            },
            {
                "start_time": 20.236363636363635,
                "end_time": 22.075,
                "pitch": 36,
                "velocity": 80,
                "duration": 1.8386363636363647,
                "tempo": 120.0
            },
            {
                "start_time": 22.075,
                "end_time": 22.5,
                "pitch": 40,
                "velocity": 80,
                "duration": 0.4250000000000007,
                "tempo": 120.0
            },
            {
                "start_time": 22.534090909090907,
                "end_time": 22.96818181818182,
                "pitch": 47,
                "velocity": 80,
                "duration": 0.4340909090909122,
                "tempo": 120.0
            },
            {
                "start_time": 17.477272727272727,
                "end_time": 23.0,
                "pitch": 32,
                "velocity": 80,
                "duration": 5.522727272727273,
                "tempo": 120.0
            },
            {
                "start_time": 23.0,
                "end_time": 23.424999999999997,
                "pitch": 52,
                "velocity": 80,
                "duration": 0.42499999999999716,
                "tempo": 120.0
            },
            {
                "start_time": 17.945454545454545,
                "end_time": 23.456818181818182,
                "pitch": 54,
                "velocity": 80,
                "duration": 5.511363636363637,
                "tempo": 120.0
            },
            {
                "start_time": 23.456818181818182,
                "end_time": 23.89090909090909,
                "pitch": 47,
                "velocity": 80,
                "duration": 0.43409090909090864,
                "tempo": 120.0
            },
            {
                "start_time": 18.402272727272727,
                "end_time": 23.924999999999997,
                "pitch": 19,
                "velocity": 80,
                "duration": 5.52272727272727,
                "tempo": 120.0
            },
            {
                "start_time": 23.924999999999997,
                "end_time": 24.334090909090907,
                "pitch": 40,
                "velocity": 80,
                "duration": 0.40909090909091006,
                "tempo": 120.0
            },
            {
                "start_time": 23.456818181818182,
                "end_time": 24.38181818181818,
                "pitch": 54,
                "velocity": 80,
                "duration": 0.9249999999999972,
                "tempo": 120.0
            },
            {
                "start_time": 24.38181818181818,
                "end_time": 24.799999999999997,
                "pitch": 47,
                "velocity": 80,
                "duration": 0.418181818181818,
                "tempo": 120.0
            },
            {
                "start_time": 23.0,
                "end_time": 24.849999999999998,
                "pitch": 32,
                "velocity": 80,
                "duration": 1.8499999999999979,
                "tempo": 120.0
            },
            {
                "start_time": 24.849999999999998,
                "end_time": 25.268181818181816,
                "pitch": 52,
                "velocity": 80,
                "duration": 0.418181818181818,
                "tempo": 120.0
            },
            {
                "start_time": 24.38181818181818,
                "end_time": 25.318181818181817,
                "pitch": 54,
                "velocity": 80,
                "duration": 0.9363636363636374,
                "tempo": 120.0
            },
            {
                "start_time": 25.318181818181817,
                "end_time": 25.724999999999998,
                "pitch": 47,
                "velocity": 80,
                "duration": 0.4068181818181813,
                "tempo": 120.0
            },
            {
                "start_time": 23.924999999999997,
                "end_time": 25.775,
                "pitch": 19,
                "velocity": 80,
                "duration": 1.8500000000000014,
                "tempo": 120.0
            },
            {
                "start_time": 25.775,
                "end_time": 26.193181818181817,
                "pitch": 40,
                "velocity": 80,
                "duration": 0.418181818181818,
                "tempo": 120.0
            },
            {
                "start_time": 25.318181818181817,
                "end_time": 26.224999999999998,
                "pitch": 54,
                "velocity": 80,
                "duration": 0.9068181818181813,
                "tempo": 120.0
            },
            {
                "start_time": 26.224999999999998,
                "end_time": 26.63181818181818,
                "pitch": 47,
                "velocity": 80,
                "duration": 0.4068181818181813,
                "tempo": 120.0
            },
            {
                "start_time": 24.849999999999998,
                "end_time": 26.663636363636364,
                "pitch": 32,
                "velocity": 80,
                "duration": 1.8136363636363662,
                "tempo": 120.0
            },
            {
                "start_time": 26.663636363636364,
                "end_time": 27.097727272727273,
                "pitch": 52,
                "velocity": 80,
                "duration": 0.43409090909090864,
                "tempo": 120.0
            },
            {
                "start_time": 26.224999999999998,
                "end_time": 27.129545454545454,
                "pitch": 54,
                "velocity": 80,
                "duration": 0.9045454545454561,
                "tempo": 120.0
            },
            {
                "start_time": 27.129545454545454,
                "end_time": 27.554545454545455,
                "pitch": 47,
                "velocity": 80,
                "duration": 0.4250000000000007,
                "tempo": 120.0
            },
            {
                "start_time": 25.775,
                "end_time": 27.586363636363636,
                "pitch": 19,
                "velocity": 80,
                "duration": 1.8113636363636374,
                "tempo": 120.0
            },
            {
                "start_time": 27.586363636363636,
                "end_time": 28.020454545454545,
                "pitch": 40,
                "velocity": 80,
                "duration": 0.43409090909090864,
                "tempo": 120.0
            },
            {
                "start_time": 27.129545454545454,
                "end_time": 28.054545454545455,
                "pitch": 54,
                "velocity": 80,
                "duration": 0.9250000000000007,
                "tempo": 120.0
            },
            {
                "start_time": 28.054545454545455,
                "end_time": 28.488636363636363,
                "pitch": 47,
                "velocity": 80,
                "duration": 0.43409090909090864,
                "tempo": 120.0
            },
            {
                "start_time": 26.663636363636364,
                "end_time": 28.52272727272727,
                "pitch": 32,
                "velocity": 80,
                "duration": 1.8590909090909058,
                "tempo": 120.0
            },
            {
                "start_time": 28.52272727272727,
                "end_time": 28.94772727272727,
                "pitch": 52,
                "velocity": 80,
                "duration": 0.4250000000000007,
                "tempo": 120.0
            },
            {
                "start_time": 28.054545454545455,
                "end_time": 28.979545454545452,
                "pitch": 54,
                "velocity": 80,
                "duration": 0.9249999999999972,
                "tempo": 120.0
            },
            {
                "start_time": 28.979545454545452,
                "end_time": 29.41363636363636,
                "pitch": 47,
                "velocity": 80,
                "duration": 0.43409090909090864,
                "tempo": 120.0
            },
            {
                "start_time": 29.44772727272727,
                "end_time": 29.659090909090907,
                "pitch": 45,
                "velocity": 101,
                "duration": 0.21136363636363598,
                "tempo": 120.0
            },
            {
                "start_time": 29.674999999999997,
                "end_time": 29.888636363636362,
                "pitch": 48,
                "velocity": 101,
                "duration": 0.21363636363636473,
                "tempo": 120.0
            },
            {
                "start_time": 29.904545454545453,
                "end_time": 30.12272727272727,
                "pitch": 52,
                "velocity": 101,
                "duration": 0.2181818181818187,
                "tempo": 120.0
            },
            {
                "start_time": 30.138636363636362,
                "end_time": 30.35681818181818,
                "pitch": 57,
                "velocity": 101,
                "duration": 0.2181818181818187,
                "tempo": 120.0
            },
            {
                "start_time": 30.37272727272727,
                "end_time": 30.79090909090909,
                "pitch": 60,
                "velocity": 101,
                "duration": 0.418181818181818,
                "tempo": 120.0
            },
            {
                "start_time": 30.84090909090909,
                "end_time": 31.24772727272727,
                "pitch": 59,
                "velocity": 101,
                "duration": 0.4068181818181813,
                "tempo": 120.0
            },
            {
                "start_time": 31.297727272727272,
                "end_time": 32.17272727272727,
                "pitch": 62,
                "velocity": 101,
                "duration": 0.875,
                "tempo": 120.0
            },
            {
                "start_time": 32.22272727272727,
                "end_time": 33.07727272727273,
                "pitch": 60,
                "velocity": 101,
                "duration": 0.8545454545454589,
                "tempo": 120.0
            },
            {
                "start_time": 33.10909090909091,
                "end_time": 36.788636363636364,
                "pitch": 52,
                "velocity": 101,
                "duration": 3.6795454545454547,
                "tempo": 120.0
            },
            {
                "start_time": 28.979545454545452,
                "end_time": 36.804545454545455,
                "pitch": 54,
                "velocity": 80,
                "duration": 7.825000000000003,
                "tempo": 120.0
            },
            {
                "start_time": 36.804545454545455,
                "end_time": 37.02272727272727,
                "pitch": 45,
                "velocity": 101,
                "duration": 0.2181818181818187,
                "tempo": 120.0
            },
            {
                "start_time": 27.586363636363636,
                "end_time": 37.038636363636364,
                "pitch": 19,
                "velocity": 80,
                "duration": 9.452272727272728,
                "tempo": 120.0
            },
            {
                "start_time": 33.10909090909091,
                "end_time": 37.25681818181818,
                "pitch": 48,
                "velocity": 101,
                "duration": 4.147727272727273,
                "tempo": 120.0
            },
            {
                "start_time": 37.038636363636364,
                "end_time": 37.25681818181818,
                "pitch": 48,
                "velocity": 101,
                "duration": 0.2181818181818187,
                "tempo": 120.0
            },
            {
                "start_time": 37.27272727272727,
                "end_time": 37.49090909090909,
                "pitch": 52,
                "velocity": 101,
                "duration": 0.2181818181818187,
                "tempo": 120.0
            },
            {
                "start_time": 37.50681818181818,
                "end_time": 37.725,
                "pitch": 57,
                "velocity": 101,
                "duration": 0.2181818181818187,
                "tempo": 120.0
            },
            {
                "start_time": 37.74090909090909,
                "end_time": 38.15909090909091,
                "pitch": 60,
                "velocity": 101,
                "duration": 0.41818181818181444,
                "tempo": 120.0
            },
            {
                "start_time": 38.20909090909091,
                "end_time": 38.61818181818182,
                "pitch": 59,
                "velocity": 101,
                "duration": 0.4090909090909065,
                "tempo": 120.0
            },
            {
                "start_time": 31.297727272727272,
                "end_time": 38.66590909090909,
                "pitch": 44,
                "velocity": 101,
                "duration": 7.368181818181817,
                "tempo": 120.0
            },
            {
                "start_time": 32.22272727272727,
                "end_time": 39.52272727272727,
                "pitch": 62,
                "velocity": 101,
                "duration": 7.300000000000004,
                "tempo": 120.0
            },
            {
                "start_time": 38.66590909090909,
                "end_time": 39.52272727272727,
                "pitch": 62,
                "velocity": 101,
                "duration": 0.8568181818181841,
                "tempo": 120.0
            },
            {
                "start_time": 39.554545454545455,
                "end_time": 40.445454545454545,
                "pitch": 60,
                "velocity": 101,
                "duration": 0.8909090909090907,
                "tempo": 120.0
            },
            {
                "start_time": 37.27272727272727,
                "end_time": 40.47954545454545,
                "pitch": 48,
                "velocity": 101,
                "duration": 3.2068181818181785,
                "tempo": 120.0
            },
            {
                "start_time": 40.47954545454545,
                "end_time": 44.14772727272727,
                "pitch": 52,
                "velocity": 101,
                "duration": 3.6681818181818215,
                "tempo": 120.0
            },
            {
                "start_time": 44.18181818181818,
                "end_time": 44.377272727272725,
                "pitch": 40,
                "velocity": 101,
                "duration": 0.19545454545454533,
                "tempo": 120.0
            },
            {
                "start_time": 36.804545454545455,
                "end_time": 44.41136363636363,
                "pitch": 54,
                "velocity": 101,
                "duration": 7.606818181818177,
                "tempo": 120.0
            },
            {
                "start_time": 44.41136363636363,
                "end_time": 44.60681818181818,
                "pitch": 45,
                "velocity": 101,
                "duration": 0.19545454545454533,
                "tempo": 120.0
            },
            {
                "start_time": 37.038636363636364,
                "end_time": 44.63863636363636,
                "pitch": 19,
                "velocity": 101,
                "duration": 7.599999999999994,
                "tempo": 120.0
            },
            {
                "start_time": 40.47954545454545,
                "end_time": 44.83863636363636,
                "pitch": 48,
                "velocity": 101,
                "duration": 4.359090909090909,
                "tempo": 120.0
            },
            {
                "start_time": 44.63863636363636,
                "end_time": 44.83863636363636,
                "pitch": 48,
                "velocity": 101,
                "duration": 0.20000000000000284,
                "tempo": 120.0
            },
            {
                "start_time": 21.60909090909091,
                "end_time": 45.07272727272727,
                "pitch": 53,
                "velocity": 80,
                "duration": 23.46363636363636,
                "tempo": 120.0
            },
            {
                "start_time": 44.87272727272727,
                "end_time": 45.07272727272727,
                "pitch": 53,
                "velocity": 101,
                "duration": 0.20000000000000284,
                "tempo": 120.0
            },
            {
                "start_time": 45.10681818181818,
                "end_time": 45.525,
                "pitch": 60,
                "velocity": 101,
                "duration": 0.41818181818182154,
                "tempo": 120.0
            },
            {
                "start_time": 45.559090909090905,
                "end_time": 45.96363636363636,
                "pitch": 59,
                "velocity": 101,
                "duration": 0.4045454545454561,
                "tempo": 120.0
            },
            {
                "start_time": 38.66590909090909,
                "end_time": 45.99545454545454,
                "pitch": 44,
                "velocity": 101,
                "duration": 7.329545454545453,
                "tempo": 120.0
            },
            {
                "start_time": 39.554545454545455,
                "end_time": 46.88636363636363,
                "pitch": 62,
                "velocity": 101,
                "duration": 7.3318181818181785,
                "tempo": 120.0
            },
            {
                "start_time": 45.99545454545454,
                "end_time": 46.88636363636363,
                "pitch": 62,
                "velocity": 101,
                "duration": 0.8909090909090907,
                "tempo": 120.0
            },
            {
                "start_time": 46.92045454545454,
                "end_time": 47.81136363636364,
                "pitch": 60,
                "velocity": 101,
                "duration": 0.8909090909090978,
                "tempo": 120.0
            },
            {
                "start_time": 47.84318181818182,
                "end_time": 48.06136363636364,
                "pitch": 43,
                "velocity": 101,
                "duration": 0.2181818181818187,
                "tempo": 120.0
            },
            {
                "start_time": 29.44772727272727,
                "end_time": 48.29545454545454,
                "pitch": 47,
                "velocity": 101,
                "duration": 18.84772727272727,
                "tempo": 120.0
            },
            {
                "start_time": 48.07727272727273,
                "end_time": 48.29545454545454,
                "pitch": 47,
                "velocity": 101,
                "duration": 0.2181818181818116,
                "tempo": 120.0
            },
            {
                "start_time": 48.31136363636364,
                "end_time": 48.52954545454545,
                "pitch": 50,
                "velocity": 101,
                "duration": 0.2181818181818116,
                "tempo": 120.0
            },
            {
                "start_time": 48.54545454545454,
                "end_time": 48.76363636363636,
                "pitch": 55,
                "velocity": 101,
                "duration": 0.2181818181818187,
                "tempo": 120.0
            },
            {
                "start_time": 46.92045454545454,
                "end_time": 49.236363636363635,
                "pitch": 62,
                "velocity": 101,
                "duration": 2.315909090909095,
                "tempo": 120.0
            },
            {
                "start_time": 49.236363636363635,
                "end_time": 49.64545454545454,
                "pitch": 60,
                "velocity": 101,
                "duration": 0.4090909090909065,
                "tempo": 120.0
            },
            {
                "start_time": 38.20909090909091,
                "end_time": 50.56818181818181,
                "pitch": 64,
                "velocity": 101,
                "duration": 12.359090909090902,
                "tempo": 120.0
            },
            {
                "start_time": 49.69318181818181,
                "end_time": 50.56818181818181,
                "pitch": 64,
                "velocity": 101,
                "duration": 0.875,
                "tempo": 120.0
            },
            {
                "start_time": 49.236363636363635,
                "end_time": 51.49318181818182,
                "pitch": 62,
                "velocity": 101,
                "duration": 2.2568181818181827,
                "tempo": 120.0
            },
            {
                "start_time": 50.61818181818182,
                "end_time": 51.49318181818182,
                "pitch": 62,
                "velocity": 101,
                "duration": 0.875,
                "tempo": 120.0
            },
            {
                "start_time": 51.527272727272724,
                "end_time": 51.94090909090909,
                "pitch": 33,
                "velocity": 101,
                "duration": 0.413636363636364,
                "tempo": 120.0
            },
            {
                "start_time": 51.97272727272727,
                "end_time": 52.40681818181818,
                "pitch": 40,
                "velocity": 101,
                "duration": 0.4340909090909122,
                "tempo": 120.0
            },
            {
                "start_time": 44.41136363636363,
                "end_time": 52.44090909090909,
                "pitch": 54,
                "velocity": 101,
                "duration": 8.029545454545456,
                "tempo": 120.0
            },
            {
                "start_time": 52.44090909090909,
                "end_time": 52.875,
                "pitch": 45,
                "velocity": 101,
                "duration": 0.4340909090909122,
                "tempo": 120.0
            },
            {
                "start_time": 44.63863636363636,
                "end_time": 52.90909090909091,
                "pitch": 19,
                "velocity": 101,
                "duration": 8.270454545454548,
                "tempo": 120.0
            },
            {
                "start_time": 47.84318181818182,
                "end_time": 53.334090909090904,
                "pitch": 52,
                "velocity": 101,
                "duration": 5.490909090909085,
                "tempo": 120.0
            },
            {
                "start_time": 52.90909090909091,
                "end_time": 53.334090909090904,
                "pitch": 52,
                "velocity": 101,
                "duration": 0.42499999999999716,
                "tempo": 120.0
            },
            {
                "start_time": 53.365909090909085,
                "end_time": 53.8,
                "pitch": 57,
                "velocity": 101,
                "duration": 0.4340909090909122,
                "tempo": 120.0
            },
            {
                "start_time": 52.90909090909091,
                "end_time": 53.834090909090904,
                "pitch": 19,
                "velocity": 101,
                "duration": 0.9249999999999972,
                "tempo": 120.0
            },
            {
                "start_time": 53.834090909090904,
                "end_time": 54.25681818181818,
                "pitch": 52,
                "velocity": 101,
                "duration": 0.42272727272727906,
                "tempo": 120.0
            },
            {
                "start_time": 52.44090909090909,
                "end_time": 54.29090909090909,
                "pitch": 54,
                "velocity": 101,
                "duration": 1.8500000000000014,
                "tempo": 120.0
            },
            {
                "start_time": 54.29090909090909,
                "end_time": 54.71363636363636,
                "pitch": 45,
                "velocity": 101,
                "duration": 0.42272727272727195,
                "tempo": 120.0
            },
            {
                "start_time": 51.97272727272727,
                "end_time": 54.74772727272727,
                "pitch": 7,
                "velocity": 101,
                "duration": 2.7749999999999986,
                "tempo": 120.0
            },
            {
                "start_time": 54.74772727272727,
                "end_time": 55.18181818181818,
                "pitch": 40,
                "velocity": 101,
                "duration": 0.4340909090909122,
                "tempo": 120.0
            },
            {
                "start_time": 55.215909090909086,
                "end_time": 55.65,
                "pitch": 33,
                "velocity": 101,
                "duration": 0.4340909090909122,
                "tempo": 120.0
            },
            {
                "start_time": 54.74772727272727,
                "end_time": 55.684090909090905,
                "pitch": 7,
                "velocity": 101,
                "duration": 0.9363636363636374,
                "tempo": 120.0
            },
            {
                "start_time": 55.684090909090905,
                "end_time": 56.099999999999994,
                "pitch": 40,
                "velocity": 101,
                "duration": 0.41590909090908923,
                "tempo": 120.0
            },
            {
                "start_time": 54.29090909090909,
                "end_time": 56.15,
                "pitch": 54,
                "velocity": 101,
                "duration": 1.8590909090909093,
                "tempo": 120.0
            },
            {
                "start_time": 56.15,
                "end_time": 56.56818181818181,
                "pitch": 45,
                "velocity": 101,
                "duration": 0.41818181818181444,
                "tempo": 120.0
            },
            {
                "start_time": 56.61818181818182,
                "end_time": 57.027272727272724,
                "pitch": 52,
                "velocity": 101,
                "duration": 0.4090909090909065,
                "tempo": 120.0
            },
            {
                "start_time": 53.365909090909085,
                "end_time": 57.074999999999996,
                "pitch": 66,
                "velocity": 101,
                "duration": 3.7090909090909108,
                "tempo": 120.0
            },
            {
                "start_time": 57.074999999999996,
                "end_time": 58.85909090909091,
                "pitch": 57,
                "velocity": 101,
                "duration": 1.7840909090909136,
                "tempo": 120.0
            }
        ],
        "Electric Guitar (clean)": [
            {
                "start_time": 0.0,
                "end_time": 3.6409090909090907,
                "pitch": 40,
                "velocity": 101,
                "duration": 3.6409090909090907,
                "tempo": 120.0
            },
            {
                "start_time": 3.6590909090909087,
                "end_time": 7.336363636363636,
                "pitch": 40,
                "velocity": 101,
                "duration": 3.6772727272727272,
                "tempo": 120.0
            },
            {
                "start_time": 7.352272727272727,
                "end_time": 10.575,
                "pitch": 41,
                "velocity": 101,
                "duration": 3.2227272727272727,
                "tempo": 120.0
            },
            {
                "start_time": 10.575,
                "end_time": 10.59090909090909,
                "pitch": 32,
                "velocity": 101,
                "duration": 0.01590909090909065,
                "tempo": 120.0
            },
            {
                "start_time": 10.575,
                "end_time": 10.704545454545453,
                "pitch": 38,
                "velocity": 101,
                "duration": 0.12954545454545396,
                "tempo": 120.0
            },
            {
                "start_time": 10.59090909090909,
                "end_time": 10.704545454545453,
                "pitch": 38,
                "velocity": 101,
                "duration": 0.11363636363636331,
                "tempo": 120.0
            },
            {
                "start_time": 10.704545454545453,
                "end_time": 10.720454545454546,
                "pitch": 32,
                "velocity": 101,
                "duration": 0.015909090909092427,
                "tempo": 120.0
            },
            {
                "start_time": 10.720454545454546,
                "end_time": 10.836363636363636,
                "pitch": 38,
                "velocity": 101,
                "duration": 0.1159090909090903,
                "tempo": 120.0
            },
            {
                "start_time": 10.836363636363636,
                "end_time": 10.852272727272727,
                "pitch": 32,
                "velocity": 101,
                "duration": 0.01590909090909065,
                "tempo": 120.0
            },
            {
                "start_time": 10.852272727272727,
                "end_time": 10.96590909090909,
                "pitch": 38,
                "velocity": 101,
                "duration": 0.11363636363636331,
                "tempo": 120.0
            },
            {
                "start_time": 10.96590909090909,
                "end_time": 10.98181818181818,
                "pitch": 32,
                "velocity": 101,
                "duration": 0.01590909090909065,
                "tempo": 120.0
            },
            {
                "start_time": 10.98181818181818,
                "end_time": 10.997727272727273,
                "pitch": 38,
                "velocity": 101,
                "duration": 0.015909090909092427,
                "tempo": 120.0
            },
            {
                "start_time": 11.031818181818181,
                "end_time": 14.677272727272726,
                "pitch": 40,
                "velocity": 101,
                "duration": 3.6454545454545446,
                "tempo": 120.0
            },
            {
                "start_time": 14.693181818181818,
                "end_time": 18.386363636363637,
                "pitch": 40,
                "velocity": 101,
                "duration": 3.6931818181818183,
                "tempo": 120.0
            },
            {
                "start_time": 18.404545454545453,
                "end_time": 22.05909090909091,
                "pitch": 40,
                "velocity": 101,
                "duration": 3.654545454545456,
                "tempo": 120.0
            },
            {
                "start_time": 11.031818181818181,
                "end_time": 25.318181818181817,
                "pitch": 38,
                "velocity": 101,
                "duration": 14.286363636363635,
                "tempo": 120.0
            },
            {
                "start_time": 22.077272727272724,
                "end_time": 25.318181818181817,
                "pitch": 41,
                "velocity": 101,
                "duration": 3.240909090909092,
                "tempo": 120.0
            },
            {
                "start_time": 25.318181818181817,
                "end_time": 25.334090909090907,
                "pitch": 32,
                "velocity": 101,
                "duration": 0.01590909090909065,
                "tempo": 120.0
            },
            {
                "start_time": 25.318181818181817,
                "end_time": 25.44772727272727,
                "pitch": 38,
                "velocity": 101,
                "duration": 0.12954545454545396,
                "tempo": 120.0
            },
            {
                "start_time": 25.334090909090907,
                "end_time": 25.44772727272727,
                "pitch": 38,
                "velocity": 101,
                "duration": 0.11363636363636331,
                "tempo": 120.0
            },
            {
                "start_time": 25.44772727272727,
                "end_time": 25.46590909090909,
                "pitch": 32,
                "velocity": 101,
                "duration": 0.01818181818181941,
                "tempo": 120.0
            },
            {
                "start_time": 25.46590909090909,
                "end_time": 25.579545454545453,
                "pitch": 38,
                "velocity": 101,
                "duration": 0.11363636363636331,
                "tempo": 120.0
            },
            {
                "start_time": 25.579545454545453,
                "end_time": 25.595454545454544,
                "pitch": 32,
                "velocity": 101,
                "duration": 0.01590909090909065,
                "tempo": 120.0
            },
            {
                "start_time": 25.595454545454544,
                "end_time": 25.709090909090907,
                "pitch": 38,
                "velocity": 101,
                "duration": 0.11363636363636331,
                "tempo": 120.0
            },
            {
                "start_time": 25.709090909090907,
                "end_time": 25.724999999999998,
                "pitch": 32,
                "velocity": 101,
                "duration": 0.01590909090909065,
                "tempo": 120.0
            },
            {
                "start_time": 25.775,
                "end_time": 29.429545454545455,
                "pitch": 40,
                "velocity": 101,
                "duration": 3.654545454545456,
                "tempo": 120.0
            },
            {
                "start_time": 29.44772727272727,
                "end_time": 33.09318181818182,
                "pitch": 40,
                "velocity": 101,
                "duration": 3.645454545454548,
                "tempo": 120.0
            },
            {
                "start_time": 33.10909090909091,
                "end_time": 36.788636363636364,
                "pitch": 41,
                "velocity": 101,
                "duration": 3.6795454545454547,
                "tempo": 120.0
            },
            {
                "start_time": 36.804545454545455,
                "end_time": 40.461363636363636,
                "pitch": 40,
                "velocity": 101,
                "duration": 3.6568181818181813,
                "tempo": 120.0
            },
            {
                "start_time": 40.47954545454545,
                "end_time": 44.14772727272727,
                "pitch": 41,
                "velocity": 101,
                "duration": 3.6681818181818215,
                "tempo": 120.0
            },
            {
                "start_time": 44.18181818181818,
                "end_time": 47.82727272727273,
                "pitch": 40,
                "velocity": 101,
                "duration": 3.645454545454548,
                "tempo": 120.0
            },
            {
                "start_time": 0.0,
                "end_time": 48.62954545454545,
                "pitch": 0,
                "velocity": 101,
                "duration": 48.62954545454545,
                "tempo": 120.0
            },
            {
                "start_time": 47.845454545454544,
                "end_time": 48.62954545454545,
                "pitch": 43,
                "velocity": 101,
                "duration": 0.7840909090909065,
                "tempo": 120.0
            },
            {
                "start_time": 48.62954545454545,
                "end_time": 48.64772727272727,
                "pitch": 43,
                "velocity": 101,
                "duration": 0.018181818181822962,
                "tempo": 120.0
            },
            {
                "start_time": 48.62954545454545,
                "end_time": 48.76363636363636,
                "pitch": 0,
                "velocity": 101,
                "duration": 0.13409090909090793,
                "tempo": 120.0
            },
            {
                "start_time": 48.64772727272727,
                "end_time": 48.76363636363636,
                "pitch": 43,
                "velocity": 101,
                "duration": 0.11590909090908497,
                "tempo": 120.0
            },
            {
                "start_time": 48.76363636363636,
                "end_time": 48.78181818181818,
                "pitch": 43,
                "velocity": 101,
                "duration": 0.018181818181822962,
                "tempo": 120.0
            },
            {
                "start_time": 48.78181818181818,
                "end_time": 48.89545454545454,
                "pitch": 43,
                "velocity": 101,
                "duration": 0.11363636363635976,
                "tempo": 120.0
            },
            {
                "start_time": 48.89545454545454,
                "end_time": 48.91136363636363,
                "pitch": 43,
                "velocity": 101,
                "duration": 0.01590909090909065,
                "tempo": 120.0
            },
            {
                "start_time": 48.91136363636363,
                "end_time": 49.025,
                "pitch": 43,
                "velocity": 101,
                "duration": 0.11363636363636687,
                "tempo": 120.0
            },
            {
                "start_time": 49.025,
                "end_time": 49.04090909090909,
                "pitch": 43,
                "velocity": 101,
                "duration": 0.01590909090909065,
                "tempo": 120.0
            },
            {
                "start_time": 48.78181818181818,
                "end_time": 49.04090909090909,
                "pitch": 55,
                "velocity": 101,
                "duration": 0.25909090909090793,
                "tempo": 120.0
            },
            {
                "start_time": 48.76363636363636,
                "end_time": 49.15681818181818,
                "pitch": 0,
                "velocity": 101,
                "duration": 0.39318181818182296,
                "tempo": 120.0
            },
            {
                "start_time": 49.04090909090909,
                "end_time": 49.15681818181818,
                "pitch": 43,
                "velocity": 101,
                "duration": 0.11590909090909207,
                "tempo": 120.0
            },
            {
                "start_time": 49.15681818181818,
                "end_time": 49.17272727272727,
                "pitch": 43,
                "velocity": 101,
                "duration": 0.01590909090909065,
                "tempo": 120.0
            },
            {
                "start_time": 49.04090909090909,
                "end_time": 49.17272727272727,
                "pitch": 55,
                "velocity": 101,
                "duration": 0.13181818181818272,
                "tempo": 120.0
            },
            {
                "start_time": 49.17272727272727,
                "end_time": 49.28636363636363,
                "pitch": 43,
                "velocity": 101,
                "duration": 0.11363636363635976,
                "tempo": 120.0
            },
            {
                "start_time": 49.28636363636363,
                "end_time": 49.30227272727272,
                "pitch": 43,
                "velocity": 101,
                "duration": 0.01590909090909065,
                "tempo": 120.0
            },
            {
                "start_time": 49.15681818181818,
                "end_time": 49.41590909090909,
                "pitch": 0,
                "velocity": 101,
                "duration": 0.25909090909090793,
                "tempo": 120.0
            },
            {
                "start_time": 49.30227272727272,
                "end_time": 49.41590909090909,
                "pitch": 43,
                "velocity": 101,
                "duration": 0.11363636363636687,
                "tempo": 120.0
            },
            {
                "start_time": 49.41590909090909,
                "end_time": 49.43181818181818,
                "pitch": 43,
                "velocity": 101,
                "duration": 0.01590909090909065,
                "tempo": 120.0
            },
            {
                "start_time": 49.43181818181818,
                "end_time": 49.54772727272727,
                "pitch": 43,
                "velocity": 101,
                "duration": 0.11590909090909207,
                "tempo": 120.0
            },
            {
                "start_time": 49.54772727272727,
                "end_time": 49.56363636363636,
                "pitch": 43,
                "velocity": 101,
                "duration": 0.01590909090909065,
                "tempo": 120.0
            },
            {
                "start_time": 49.17272727272727,
                "end_time": 49.56363636363636,
                "pitch": 55,
                "velocity": 101,
                "duration": 0.39090909090909065,
                "tempo": 120.0
            },
            {
                "start_time": 49.56363636363636,
                "end_time": 49.67727272727272,
                "pitch": 43,
                "velocity": 101,
                "duration": 0.11363636363635976,
                "tempo": 120.0
            },
            {
                "start_time": 49.67727272727272,
                "end_time": 49.695454545454545,
                "pitch": 43,
                "velocity": 101,
                "duration": 0.018181818181822962,
                "tempo": 120.0
            },
            {
                "start_time": 49.56363636363636,
                "end_time": 49.695454545454545,
                "pitch": 55,
                "velocity": 101,
                "duration": 0.13181818181818272,
                "tempo": 120.0
            },
            {
                "start_time": 49.41590909090909,
                "end_time": 49.81136363636364,
                "pitch": 0,
                "velocity": 101,
                "duration": 0.39545454545454817,
                "tempo": 120.0
            },
            {
                "start_time": 49.695454545454545,
                "end_time": 49.81136363636364,
                "pitch": 43,
                "velocity": 101,
                "duration": 0.11590909090909207,
                "tempo": 120.0
            },
            {
                "start_time": 49.81136363636364,
                "end_time": 49.82727272727273,
                "pitch": 43,
                "velocity": 101,
                "duration": 0.01590909090909065,
                "tempo": 120.0
            },
            {
                "start_time": 49.81136363636364,
                "end_time": 49.945454545454545,
                "pitch": 0,
                "velocity": 101,
                "duration": 0.13409090909090793,
                "tempo": 120.0
            },
            {
                "start_time": 49.82727272727273,
                "end_time": 49.945454545454545,
                "pitch": 43,
                "velocity": 101,
                "duration": 0.11818181818181728,
                "tempo": 120.0
            },
            {
                "start_time": 49.945454545454545,
                "end_time": 49.961363636363636,
                "pitch": 43,
                "velocity": 101,
                "duration": 0.01590909090909065,
                "tempo": 120.0
            },
            {
                "start_time": 49.695454545454545,
                "end_time": 49.961363636363636,
                "pitch": 55,
                "velocity": 101,
                "duration": 0.26590909090909065,
                "tempo": 120.0
            },
            {
                "start_time": 49.945454545454545,
                "end_time": 50.07727272727273,
                "pitch": 0,
                "velocity": 101,
                "duration": 0.13181818181818272,
                "tempo": 120.0
            },
            {
                "start_time": 49.961363636363636,
                "end_time": 50.07727272727273,
                "pitch": 43,
                "velocity": 101,
                "duration": 0.11590909090909207,
                "tempo": 120.0
            },
            {
                "start_time": 50.07727272727273,
                "end_time": 50.095454545454544,
                "pitch": 43,
                "velocity": 101,
                "duration": 0.018181818181815856,
                "tempo": 120.0
            },
            {
                "start_time": 50.095454545454544,
                "end_time": 50.211363636363636,
                "pitch": 43,
                "velocity": 101,
                "duration": 0.11590909090909207,
                "tempo": 120.0
            },
            {
                "start_time": 50.211363636363636,
                "end_time": 50.22727272727273,
                "pitch": 43,
                "velocity": 101,
                "duration": 0.01590909090909065,
                "tempo": 120.0
            },
            {
                "start_time": 49.961363636363636,
                "end_time": 50.22727272727273,
                "pitch": 55,
                "velocity": 101,
                "duration": 0.26590909090909065,
                "tempo": 120.0
            },
            {
                "start_time": 50.22727272727273,
                "end_time": 50.340909090909086,
                "pitch": 43,
                "velocity": 101,
                "duration": 0.11363636363635976,
                "tempo": 120.0
            },
            {
                "start_time": 50.340909090909086,
                "end_time": 50.35681818181818,
                "pitch": 43,
                "velocity": 101,
                "duration": 0.01590909090909065,
                "tempo": 120.0
            },
            {
                "start_time": 50.07727272727273,
                "end_time": 50.47272727272727,
                "pitch": 0,
                "velocity": 101,
                "duration": 0.39545454545454106,
                "tempo": 120.0
            },
            {
                "start_time": 50.35681818181818,
                "end_time": 50.47272727272727,
                "pitch": 43,
                "velocity": 101,
                "duration": 0.11590909090909207,
                "tempo": 120.0
            },
            {
                "start_time": 50.47272727272727,
                "end_time": 50.486363636363635,
                "pitch": 43,
                "velocity": 101,
                "duration": 0.013636363636365445,
                "tempo": 120.0
            },
            {
                "start_time": 50.22727272727273,
                "end_time": 50.48863636363636,
                "pitch": 55,
                "velocity": 101,
                "duration": 0.26136363636363313,
                "tempo": 120.0
            },
            {
                "start_time": 50.486363636363635,
                "end_time": 50.48863636363636,
                "pitch": 55,
                "velocity": 101,
                "duration": 0.0022727272727252057,
                "tempo": 120.0
            },
            {
                "start_time": 50.47272727272727,
                "end_time": 50.60227272727273,
                "pitch": 0,
                "velocity": 101,
                "duration": 0.12954545454545752,
                "tempo": 120.0
            },
            {
                "start_time": 50.48863636363636,
                "end_time": 50.60227272727273,
                "pitch": 43,
                "velocity": 101,
                "duration": 0.11363636363636687,
                "tempo": 120.0
            },
            {
                "start_time": 50.60227272727273,
                "end_time": 50.61818181818182,
                "pitch": 43,
                "velocity": 101,
                "duration": 0.01590909090909065,
                "tempo": 120.0
            },
            {
                "start_time": 50.60227272727273,
                "end_time": 50.73409090909091,
                "pitch": 0,
                "velocity": 101,
                "duration": 0.13181818181818272,
                "tempo": 120.0
            },
            {
                "start_time": 50.61818181818182,
                "end_time": 50.73409090909091,
                "pitch": 43,
                "velocity": 101,
                "duration": 0.11590909090909207,
                "tempo": 120.0
            },
            {
                "start_time": 50.73409090909091,
                "end_time": 50.752272727272725,
                "pitch": 43,
                "velocity": 101,
                "duration": 0.018181818181815856,
                "tempo": 120.0
            },
            {
                "start_time": 50.61818181818182,
                "end_time": 50.752272727272725,
                "pitch": 55,
                "velocity": 101,
                "duration": 0.13409090909090793,
                "tempo": 120.0
            },
            {
                "start_time": 50.752272727272725,
                "end_time": 50.86818181818182,
                "pitch": 43,
                "velocity": 101,
                "duration": 0.11590909090909207,
                "tempo": 120.0
            },
            {
                "start_time": 50.86818181818182,
                "end_time": 50.88636363636363,
                "pitch": 43,
                "velocity": 101,
                "duration": 0.018181818181815856,
                "tempo": 120.0
            },
            {
                "start_time": 50.752272727272725,
                "end_time": 50.88636363636363,
                "pitch": 55,
                "velocity": 101,
                "duration": 0.13409090909090793,
                "tempo": 120.0
            },
            {
                "start_time": 50.73409090909091,
                "end_time": 51.002272727272725,
                "pitch": 0,
                "velocity": 101,
                "duration": 0.26818181818181586,
                "tempo": 120.0
            },
            {
                "start_time": 50.88636363636363,
                "end_time": 51.002272727272725,
                "pitch": 43,
                "velocity": 101,
                "duration": 0.11590909090909207,
                "tempo": 120.0
            },
            {
                "start_time": 51.002272727272725,
                "end_time": 51.018181818181816,
                "pitch": 43,
                "velocity": 101,
                "duration": 0.01590909090909065,
                "tempo": 120.0
            },
            {
                "start_time": 51.002272727272725,
                "end_time": 51.13409090909091,
                "pitch": 0,
                "velocity": 101,
                "duration": 0.13181818181818272,
                "tempo": 120.0
            },
            {
                "start_time": 51.018181818181816,
                "end_time": 51.13409090909091,
                "pitch": 43,
                "velocity": 101,
                "duration": 0.11590909090909207,
                "tempo": 120.0
            },
            {
                "start_time": 51.13409090909091,
                "end_time": 51.152272727272724,
                "pitch": 43,
                "velocity": 101,
                "duration": 0.018181818181815856,
                "tempo": 120.0
            },
            {
                "start_time": 51.152272727272724,
                "end_time": 51.26590909090909,
                "pitch": 43,
                "velocity": 101,
                "duration": 0.11363636363636687,
                "tempo": 120.0
            },
            {
                "start_time": 51.26590909090909,
                "end_time": 51.28181818181818,
                "pitch": 43,
                "velocity": 101,
                "duration": 0.01590909090909065,
                "tempo": 120.0
            },
            {
                "start_time": 51.13409090909091,
                "end_time": 51.39545454545454,
                "pitch": 0,
                "velocity": 101,
                "duration": 0.26136363636363313,
                "tempo": 120.0
            },
            {
                "start_time": 51.28181818181818,
                "end_time": 51.39545454545454,
                "pitch": 43,
                "velocity": 101,
                "duration": 0.11363636363635976,
                "tempo": 120.0
            },
            {
                "start_time": 51.39545454545454,
                "end_time": 51.41136363636363,
                "pitch": 43,
                "velocity": 101,
                "duration": 0.01590909090909065,
                "tempo": 120.0
            },
            {
                "start_time": 50.88636363636363,
                "end_time": 51.41136363636363,
                "pitch": 55,
                "velocity": 101,
                "duration": 0.5249999999999986,
                "tempo": 120.0
            },
            {
                "start_time": 51.41136363636363,
                "end_time": 51.50909090909091,
                "pitch": 43,
                "velocity": 101,
                "duration": 0.09772727272727622,
                "tempo": 120.0
            },
            {
                "start_time": 51.527272727272724,
                "end_time": 52.209090909090904,
                "pitch": 43,
                "velocity": 101,
                "duration": 0.6818181818181799,
                "tempo": 120.0
            },
            {
                "start_time": 52.209090909090904,
                "end_time": 54.72954545454545,
                "pitch": 45,
                "velocity": 101,
                "duration": 2.520454545454548,
                "tempo": 120.0
            },
            {
                "start_time": 54.74772727272727,
                "end_time": 55.18181818181818,
                "pitch": 45,
                "velocity": 101,
                "duration": 0.4340909090909122,
                "tempo": 120.0
            },
            {
                "start_time": 55.215909090909086,
                "end_time": 55.918181818181814,
                "pitch": 43,
                "velocity": 101,
                "duration": 0.702272727272728,
                "tempo": 120.0
            },
            {
                "start_time": 55.918181818181814,
                "end_time": 58.85909090909091,
                "pitch": 45,
                "velocity": 101,
                "duration": 2.940909090909095,
                "tempo": 120.0
            }
        ],
        "Church Organ": [
            {
                "start_time": 2.268181818181818,
                "end_time": 2.484090909090909,
                "pitch": 59,
                "velocity": 127,
                "duration": 0.21590909090909083,
                "tempo": 120.0
            },
            {
                "start_time": 2.5,
                "end_time": 2.7181818181818183,
                "pitch": 60,
                "velocity": 127,
                "duration": 0.21818181818181825,
                "tempo": 120.0
            },
            {
                "start_time": 2.734090909090909,
                "end_time": 2.9454545454545453,
                "pitch": 62,
                "velocity": 127,
                "duration": 0.21136363636363642,
                "tempo": 120.0
            },
            {
                "start_time": 2.9636363636363634,
                "end_time": 3.175,
                "pitch": 64,
                "velocity": 127,
                "duration": 0.21136363636363642,
                "tempo": 120.0
            },
            {
                "start_time": 2.9636363636363634,
                "end_time": 3.4090909090909087,
                "pitch": 62,
                "velocity": 127,
                "duration": 0.4454545454545453,
                "tempo": 120.0
            },
            {
                "start_time": 3.190909090909091,
                "end_time": 3.4090909090909087,
                "pitch": 62,
                "velocity": 127,
                "duration": 0.2181818181818178,
                "tempo": 120.0
            },
            {
                "start_time": 2.734090909090909,
                "end_time": 3.6409090909090907,
                "pitch": 60,
                "velocity": 127,
                "duration": 0.9068181818181817,
                "tempo": 120.0
            },
            {
                "start_time": 3.425,
                "end_time": 3.6409090909090907,
                "pitch": 60,
                "velocity": 127,
                "duration": 0.21590909090909083,
                "tempo": 120.0
            },
            {
                "start_time": 3.190909090909091,
                "end_time": 3.6590909090909087,
                "pitch": 64,
                "velocity": 127,
                "duration": 0.4681818181818178,
                "tempo": 120.0
            },
            {
                "start_time": 3.6590909090909087,
                "end_time": 3.870454545454545,
                "pitch": 59,
                "velocity": 127,
                "duration": 0.21136363636363642,
                "tempo": 120.0
            },
            {
                "start_time": 3.8886363636363637,
                "end_time": 4.1,
                "pitch": 60,
                "velocity": 127,
                "duration": 0.21136363636363598,
                "tempo": 120.0
            },
            {
                "start_time": 4.11590909090909,
                "end_time": 4.334090909090909,
                "pitch": 60,
                "velocity": 127,
                "duration": 0.2181818181818187,
                "tempo": 120.0
            },
            {
                "start_time": 4.35,
                "end_time": 4.568181818181818,
                "pitch": 60,
                "velocity": 127,
                "duration": 0.2181818181818187,
                "tempo": 120.0
            },
            {
                "start_time": 4.584090909090909,
                "end_time": 4.795454545454545,
                "pitch": 60,
                "velocity": 127,
                "duration": 0.21136363636363598,
                "tempo": 120.0
            },
            {
                "start_time": 4.8136363636363635,
                "end_time": 5.0249999999999995,
                "pitch": 60,
                "velocity": 101,
                "duration": 0.21136363636363598,
                "tempo": 120.0
            },
            {
                "start_time": 5.040909090909091,
                "end_time": 5.256818181818182,
                "pitch": 60,
                "velocity": 101,
                "duration": 0.21590909090909083,
                "tempo": 120.0
            },
            {
                "start_time": 5.2749999999999995,
                "end_time": 5.49090909090909,
                "pitch": 60,
                "velocity": 101,
                "duration": 0.21590909090909083,
                "tempo": 120.0
            },
            {
                "start_time": 5.509090909090909,
                "end_time": 5.725,
                "pitch": 60,
                "velocity": 101,
                "duration": 0.21590909090909083,
                "tempo": 120.0
            },
            {
                "start_time": 5.977272727272727,
                "end_time": 6.172727272727273,
                "pitch": 60,
                "velocity": 127,
                "duration": 0.1954545454545462,
                "tempo": 120.0
            },
            {
                "start_time": 3.425,
                "end_time": 6.3999999999999995,
                "pitch": 62,
                "velocity": 127,
                "duration": 2.9749999999999996,
                "tempo": 120.0
            },
            {
                "start_time": 6.204545454545454,
                "end_time": 6.3999999999999995,
                "pitch": 62,
                "velocity": 127,
                "duration": 0.19545454545454533,
                "tempo": 120.0
            },
            {
                "start_time": 3.6590909090909087,
                "end_time": 6.634090909090909,
                "pitch": 64,
                "velocity": 127,
                "duration": 2.975,
                "tempo": 120.0
            },
            {
                "start_time": 6.434090909090909,
                "end_time": 6.634090909090909,
                "pitch": 64,
                "velocity": 127,
                "duration": 0.20000000000000018,
                "tempo": 120.0
            },
            {
                "start_time": 6.668181818181818,
                "end_time": 6.868181818181818,
                "pitch": 64,
                "velocity": 127,
                "duration": 0.20000000000000018,
                "tempo": 120.0
            },
            {
                "start_time": 6.902272727272727,
                "end_time": 7.102272727272727,
                "pitch": 66,
                "velocity": 127,
                "duration": 0.1999999999999993,
                "tempo": 120.0
            },
            {
                "start_time": 7.134090909090909,
                "end_time": 7.136363636363636,
                "pitch": 64,
                "velocity": 127,
                "duration": 0.002272727272726982,
                "tempo": 120.0
            },
            {
                "start_time": 6.434090909090909,
                "end_time": 7.336363636363636,
                "pitch": 62,
                "velocity": 127,
                "duration": 0.9022727272727273,
                "tempo": 120.0
            },
            {
                "start_time": 7.136363636363636,
                "end_time": 7.336363636363636,
                "pitch": 62,
                "velocity": 127,
                "duration": 0.20000000000000018,
                "tempo": 120.0
            },
            {
                "start_time": 7.352272727272727,
                "end_time": 7.554545454545454,
                "pitch": 60,
                "velocity": 127,
                "duration": 0.20227272727272716,
                "tempo": 120.0
            },
            {
                "start_time": 7.570454545454545,
                "end_time": 7.7749999999999995,
                "pitch": 59,
                "velocity": 127,
                "duration": 0.20454545454545414,
                "tempo": 120.0
            },
            {
                "start_time": 7.79090909090909,
                "end_time": 8.006818181818181,
                "pitch": 59,
                "velocity": 127,
                "duration": 0.21590909090909083,
                "tempo": 120.0
            },
            {
                "start_time": 8.022727272727272,
                "end_time": 8.24090909090909,
                "pitch": 59,
                "velocity": 127,
                "duration": 0.2181818181818187,
                "tempo": 120.0
            },
            {
                "start_time": 8.256818181818181,
                "end_time": 8.470454545454546,
                "pitch": 59,
                "velocity": 127,
                "duration": 0.21363636363636473,
                "tempo": 120.0
            },
            {
                "start_time": 8.486363636363636,
                "end_time": 8.697727272727272,
                "pitch": 59,
                "velocity": 101,
                "duration": 0.21136363636363598,
                "tempo": 120.0
            },
            {
                "start_time": 8.713636363636363,
                "end_time": 8.931818181818182,
                "pitch": 59,
                "velocity": 101,
                "duration": 0.2181818181818187,
                "tempo": 120.0
            },
            {
                "start_time": 8.947727272727272,
                "end_time": 9.165909090909091,
                "pitch": 59,
                "velocity": 101,
                "duration": 0.2181818181818187,
                "tempo": 120.0
            },
            {
                "start_time": 9.181818181818182,
                "end_time": 9.393181818181818,
                "pitch": 59,
                "velocity": 101,
                "duration": 0.21136363636363598,
                "tempo": 120.0
            },
            {
                "start_time": 3.8886363636363637,
                "end_time": 9.638636363636364,
                "pitch": 44,
                "velocity": 127,
                "duration": 5.75,
                "tempo": 120.0
            },
            {
                "start_time": 9.638636363636364,
                "end_time": 9.854545454545454,
                "pitch": 60,
                "velocity": 127,
                "duration": 0.21590909090908994,
                "tempo": 120.0
            },
            {
                "start_time": 9.872727272727273,
                "end_time": 10.088636363636363,
                "pitch": 62,
                "velocity": 127,
                "duration": 0.21590909090908994,
                "tempo": 120.0
            },
            {
                "start_time": 7.570454545454545,
                "end_time": 10.322727272727272,
                "pitch": 64,
                "velocity": 127,
                "duration": 2.752272727272727,
                "tempo": 120.0
            },
            {
                "start_time": 10.10681818181818,
                "end_time": 10.322727272727272,
                "pitch": 64,
                "velocity": 127,
                "duration": 0.21590909090909172,
                "tempo": 120.0
            },
            {
                "start_time": 10.34090909090909,
                "end_time": 10.556818181818182,
                "pitch": 64,
                "velocity": 127,
                "duration": 0.21590909090909172,
                "tempo": 120.0
            },
            {
                "start_time": 10.575,
                "end_time": 10.786363636363635,
                "pitch": 66,
                "velocity": 127,
                "duration": 0.21136363636363598,
                "tempo": 120.0
            },
            {
                "start_time": 10.10681818181818,
                "end_time": 11.013636363636364,
                "pitch": 62,
                "velocity": 127,
                "duration": 0.9068181818181831,
                "tempo": 120.0
            },
            {
                "start_time": 10.802272727272726,
                "end_time": 11.013636363636364,
                "pitch": 62,
                "velocity": 127,
                "duration": 0.21136363636363775,
                "tempo": 120.0
            },
            {
                "start_time": 9.872727272727273,
                "end_time": 11.243181818181817,
                "pitch": 60,
                "velocity": 127,
                "duration": 1.3704545454545443,
                "tempo": 120.0
            },
            {
                "start_time": 11.031818181818181,
                "end_time": 11.243181818181817,
                "pitch": 60,
                "velocity": 127,
                "duration": 0.21136363636363598,
                "tempo": 120.0
            },
            {
                "start_time": 10.802272727272726,
                "end_time": 11.259090909090908,
                "pitch": 64,
                "velocity": 127,
                "duration": 0.456818181818182,
                "tempo": 120.0
            },
            {
                "start_time": 11.259090909090908,
                "end_time": 11.472727272727273,
                "pitch": 59,
                "velocity": 127,
                "duration": 0.21363636363636473,
                "tempo": 120.0
            },
            {
                "start_time": 11.488636363636363,
                "end_time": 11.704545454545453,
                "pitch": 59,
                "velocity": 127,
                "duration": 0.21590909090908994,
                "tempo": 120.0
            },
            {
                "start_time": 11.722727272727273,
                "end_time": 11.938636363636363,
                "pitch": 59,
                "velocity": 127,
                "duration": 0.21590909090908994,
                "tempo": 120.0
            },
            {
                "start_time": 11.956818181818182,
                "end_time": 12.168181818181818,
                "pitch": 59,
                "velocity": 127,
                "duration": 0.21136363636363598,
                "tempo": 120.0
            },
            {
                "start_time": 12.184090909090909,
                "end_time": 12.397727272727272,
                "pitch": 59,
                "velocity": 101,
                "duration": 0.21363636363636296,
                "tempo": 120.0
            },
            {
                "start_time": 12.413636363636362,
                "end_time": 12.613636363636363,
                "pitch": 59,
                "velocity": 101,
                "duration": 0.20000000000000107,
                "tempo": 120.0
            },
            {
                "start_time": 12.647727272727272,
                "end_time": 12.847727272727273,
                "pitch": 59,
                "velocity": 101,
                "duration": 0.20000000000000107,
                "tempo": 120.0
            },
            {
                "start_time": 12.881818181818181,
                "end_time": 13.081818181818182,
                "pitch": 59,
                "velocity": 101,
                "duration": 0.20000000000000107,
                "tempo": 120.0
            },
            {
                "start_time": 17.011363636363637,
                "end_time": 17.227272727272727,
                "pitch": 59,
                "velocity": 127,
                "duration": 0.21590909090908994,
                "tempo": 120.0
            },
            {
                "start_time": 9.638636363636364,
                "end_time": 17.245454545454546,
                "pitch": 44,
                "velocity": 127,
                "duration": 7.606818181818182,
                "tempo": 120.0
            },
            {
                "start_time": 17.245454545454546,
                "end_time": 17.461363636363636,
                "pitch": 60,
                "velocity": 127,
                "duration": 0.21590909090908994,
                "tempo": 120.0
            },
            {
                "start_time": 11.031818181818181,
                "end_time": 17.695454545454545,
                "pitch": 62,
                "velocity": 127,
                "duration": 6.663636363636364,
                "tempo": 120.0
            },
            {
                "start_time": 17.479545454545455,
                "end_time": 17.695454545454545,
                "pitch": 62,
                "velocity": 127,
                "duration": 0.21590909090908994,
                "tempo": 120.0
            },
            {
                "start_time": 11.259090909090908,
                "end_time": 17.929545454545455,
                "pitch": 64,
                "velocity": 127,
                "duration": 6.670454545454547,
                "tempo": 120.0
            },
            {
                "start_time": 17.711363636363636,
                "end_time": 17.929545454545455,
                "pitch": 64,
                "velocity": 127,
                "duration": 0.2181818181818187,
                "tempo": 120.0
            },
            {
                "start_time": 17.711363636363636,
                "end_time": 18.159090909090907,
                "pitch": 62,
                "velocity": 127,
                "duration": 0.44772727272727053,
                "tempo": 120.0
            },
            {
                "start_time": 17.94772727272727,
                "end_time": 18.159090909090907,
                "pitch": 62,
                "velocity": 127,
                "duration": 0.21136363636363598,
                "tempo": 120.0
            },
            {
                "start_time": 17.479545454545455,
                "end_time": 18.386363636363637,
                "pitch": 60,
                "velocity": 127,
                "duration": 0.9068181818181813,
                "tempo": 120.0
            },
            {
                "start_time": 18.175,
                "end_time": 18.386363636363637,
                "pitch": 60,
                "velocity": 127,
                "duration": 0.21136363636363598,
                "tempo": 120.0
            },
            {
                "start_time": 17.94772727272727,
                "end_time": 18.404545454545453,
                "pitch": 64,
                "velocity": 127,
                "duration": 0.456818181818182,
                "tempo": 120.0
            },
            {
                "start_time": 18.404545454545453,
                "end_time": 18.620454545454546,
                "pitch": 59,
                "velocity": 127,
                "duration": 0.2159090909090935,
                "tempo": 120.0
            },
            {
                "start_time": 17.245454545454546,
                "end_time": 18.636363636363637,
                "pitch": 44,
                "velocity": 127,
                "duration": 1.3909090909090907,
                "tempo": 120.0
            },
            {
                "start_time": 18.636363636363637,
                "end_time": 18.83863636363636,
                "pitch": 60,
                "velocity": 127,
                "duration": 0.2022727272727245,
                "tempo": 120.0
            },
            {
                "start_time": 18.87272727272727,
                "end_time": 19.068181818181817,
                "pitch": 60,
                "velocity": 127,
                "duration": 0.19545454545454533,
                "tempo": 120.0
            },
            {
                "start_time": 19.099999999999998,
                "end_time": 19.295454545454543,
                "pitch": 60,
                "velocity": 127,
                "duration": 0.19545454545454533,
                "tempo": 120.0
            },
            {
                "start_time": 19.329545454545453,
                "end_time": 19.529545454545453,
                "pitch": 60,
                "velocity": 127,
                "duration": 0.1999999999999993,
                "tempo": 120.0
            },
            {
                "start_time": 19.561363636363634,
                "end_time": 19.763636363636362,
                "pitch": 60,
                "velocity": 101,
                "duration": 0.20227272727272805,
                "tempo": 120.0
            },
            {
                "start_time": 19.795454545454543,
                "end_time": 19.99090909090909,
                "pitch": 60,
                "velocity": 101,
                "duration": 0.19545454545454533,
                "tempo": 120.0
            },
            {
                "start_time": 20.009090909090908,
                "end_time": 20.220454545454544,
                "pitch": 60,
                "velocity": 101,
                "duration": 0.21136363636363598,
                "tempo": 120.0
            },
            {
                "start_time": 20.236363636363635,
                "end_time": 20.443181818181817,
                "pitch": 60,
                "velocity": 101,
                "duration": 0.206818181818182,
                "tempo": 120.0
            },
            {
                "start_time": 20.68409090909091,
                "end_time": 20.9,
                "pitch": 60,
                "velocity": 127,
                "duration": 0.21590909090908994,
                "tempo": 120.0
            },
            {
                "start_time": 18.175,
                "end_time": 21.134090909090908,
                "pitch": 62,
                "velocity": 127,
                "duration": 2.959090909090907,
                "tempo": 120.0
            },
            {
                "start_time": 20.918181818181818,
                "end_time": 21.134090909090908,
                "pitch": 62,
                "velocity": 127,
                "duration": 0.21590909090908994,
                "tempo": 120.0
            },
            {
                "start_time": 18.404545454545453,
                "end_time": 21.363636363636363,
                "pitch": 64,
                "velocity": 127,
                "duration": 2.9590909090909108,
                "tempo": 120.0
            },
            {
                "start_time": 21.152272727272727,
                "end_time": 21.363636363636363,
                "pitch": 64,
                "velocity": 127,
                "duration": 0.21136363636363598,
                "tempo": 120.0
            },
            {
                "start_time": 21.379545454545454,
                "end_time": 21.59090909090909,
                "pitch": 64,
                "velocity": 127,
                "duration": 0.21136363636363598,
                "tempo": 120.0
            },
            {
                "start_time": 21.60909090909091,
                "end_time": 21.825,
                "pitch": 66,
                "velocity": 127,
                "duration": 0.21590909090908994,
                "tempo": 120.0
            },
            {
                "start_time": 21.152272727272727,
                "end_time": 22.05909090909091,
                "pitch": 62,
                "velocity": 127,
                "duration": 0.9068181818181813,
                "tempo": 120.0
            },
            {
                "start_time": 21.84090909090909,
                "end_time": 22.05909090909091,
                "pitch": 62,
                "velocity": 127,
                "duration": 0.2181818181818187,
                "tempo": 120.0
            },
            {
                "start_time": 20.918181818181818,
                "end_time": 22.288636363636364,
                "pitch": 60,
                "velocity": 127,
                "duration": 1.370454545454546,
                "tempo": 120.0
            },
            {
                "start_time": 22.077272727272724,
                "end_time": 22.288636363636364,
                "pitch": 60,
                "velocity": 127,
                "duration": 0.21136363636363953,
                "tempo": 120.0
            },
            {
                "start_time": 21.84090909090909,
                "end_time": 22.304545454545455,
                "pitch": 64,
                "velocity": 127,
                "duration": 0.46363636363636473,
                "tempo": 120.0
            },
            {
                "start_time": 22.304545454545455,
                "end_time": 22.51590909090909,
                "pitch": 59,
                "velocity": 127,
                "duration": 0.21136363636363598,
                "tempo": 120.0
            },
            {
                "start_time": 22.534090909090907,
                "end_time": 22.75,
                "pitch": 59,
                "velocity": 127,
                "duration": 0.2159090909090935,
                "tempo": 120.0
            },
            {
                "start_time": 22.768181818181816,
                "end_time": 22.98409090909091,
                "pitch": 59,
                "velocity": 127,
                "duration": 0.2159090909090935,
                "tempo": 120.0
            },
            {
                "start_time": 23.002272727272725,
                "end_time": 23.21363636363636,
                "pitch": 59,
                "velocity": 127,
                "duration": 0.21136363636363598,
                "tempo": 120.0
            },
            {
                "start_time": 23.229545454545452,
                "end_time": 23.44090909090909,
                "pitch": 59,
                "velocity": 101,
                "duration": 0.21136363636363953,
                "tempo": 120.0
            },
            {
                "start_time": 23.459090909090907,
                "end_time": 23.674999999999997,
                "pitch": 59,
                "velocity": 101,
                "duration": 0.21590909090908994,
                "tempo": 120.0
            },
            {
                "start_time": 23.69090909090909,
                "end_time": 23.909090909090907,
                "pitch": 59,
                "velocity": 101,
                "duration": 0.21818181818181515,
                "tempo": 120.0
            },
            {
                "start_time": 23.927272727272726,
                "end_time": 24.138636363636362,
                "pitch": 59,
                "velocity": 101,
                "duration": 0.21136363636363598,
                "tempo": 120.0
            },
            {
                "start_time": 18.636363636363637,
                "end_time": 24.38181818181818,
                "pitch": 44,
                "velocity": 127,
                "duration": 5.7454545454545425,
                "tempo": 120.0
            },
            {
                "start_time": 24.38181818181818,
                "end_time": 24.599999999999998,
                "pitch": 60,
                "velocity": 127,
                "duration": 0.2181818181818187,
                "tempo": 120.0
            },
            {
                "start_time": 22.077272727272724,
                "end_time": 24.834090909090907,
                "pitch": 62,
                "velocity": 127,
                "duration": 2.7568181818181827,
                "tempo": 120.0
            },
            {
                "start_time": 24.61590909090909,
                "end_time": 24.834090909090907,
                "pitch": 62,
                "velocity": 127,
                "duration": 0.2181818181818187,
                "tempo": 120.0
            },
            {
                "start_time": 22.304545454545455,
                "end_time": 25.068181818181817,
                "pitch": 64,
                "velocity": 127,
                "duration": 2.763636363636362,
                "tempo": 120.0
            },
            {
                "start_time": 24.849999999999998,
                "end_time": 25.068181818181817,
                "pitch": 64,
                "velocity": 127,
                "duration": 0.2181818181818187,
                "tempo": 120.0
            },
            {
                "start_time": 25.084090909090907,
                "end_time": 25.284090909090907,
                "pitch": 64,
                "velocity": 127,
                "duration": 0.1999999999999993,
                "tempo": 120.0
            },
            {
                "start_time": 25.318181818181817,
                "end_time": 25.513636363636362,
                "pitch": 66,
                "velocity": 127,
                "duration": 0.19545454545454533,
                "tempo": 120.0
            },
            {
                "start_time": 24.849999999999998,
                "end_time": 25.74090909090909,
                "pitch": 62,
                "velocity": 127,
                "duration": 0.8909090909090907,
                "tempo": 120.0
            },
            {
                "start_time": 25.545454545454543,
                "end_time": 25.74090909090909,
                "pitch": 62,
                "velocity": 127,
                "duration": 0.19545454545454533,
                "tempo": 120.0
            },
            {
                "start_time": 24.61590909090909,
                "end_time": 25.974999999999998,
                "pitch": 60,
                "velocity": 127,
                "duration": 1.3590909090909093,
                "tempo": 120.0
            },
            {
                "start_time": 25.775,
                "end_time": 25.974999999999998,
                "pitch": 60,
                "velocity": 127,
                "duration": 0.1999999999999993,
                "tempo": 120.0
            },
            {
                "start_time": 25.545454545454543,
                "end_time": 26.009090909090908,
                "pitch": 64,
                "velocity": 127,
                "duration": 0.46363636363636473,
                "tempo": 120.0
            },
            {
                "start_time": 26.009090909090908,
                "end_time": 26.209090909090907,
                "pitch": 59,
                "velocity": 127,
                "duration": 0.1999999999999993,
                "tempo": 120.0
            },
            {
                "start_time": 26.227272727272727,
                "end_time": 26.429545454545455,
                "pitch": 59,
                "velocity": 127,
                "duration": 0.20227272727272805,
                "tempo": 120.0
            },
            {
                "start_time": 26.445454545454545,
                "end_time": 26.64772727272727,
                "pitch": 59,
                "velocity": 127,
                "duration": 0.2022727272727245,
                "tempo": 120.0
            },
            {
                "start_time": 26.663636363636364,
                "end_time": 26.879545454545454,
                "pitch": 59,
                "velocity": 127,
                "duration": 0.21590909090908994,
                "tempo": 120.0
            },
            {
                "start_time": 26.89772727272727,
                "end_time": 27.113636363636363,
                "pitch": 59,
                "velocity": 101,
                "duration": 0.2159090909090935,
                "tempo": 120.0
            },
            {
                "start_time": 27.13181818181818,
                "end_time": 27.343181818181815,
                "pitch": 59,
                "velocity": 101,
                "duration": 0.21136363636363598,
                "tempo": 120.0
            },
            {
                "start_time": 27.35909090909091,
                "end_time": 27.570454545454545,
                "pitch": 59,
                "velocity": 101,
                "duration": 0.21136363636363598,
                "tempo": 120.0
            },
            {
                "start_time": 27.58863636363636,
                "end_time": 27.804545454545455,
                "pitch": 59,
                "velocity": 101,
                "duration": 0.2159090909090935,
                "tempo": 120.0
            },
            {
                "start_time": 29.677272727272726,
                "end_time": 29.888636363636362,
                "pitch": 71,
                "velocity": 127,
                "duration": 0.21136363636363598,
                "tempo": 120.0
            },
            {
                "start_time": 29.904545454545453,
                "end_time": 30.12272727272727,
                "pitch": 71,
                "velocity": 101,
                "duration": 0.2181818181818187,
                "tempo": 120.0
            },
            {
                "start_time": 30.138636363636362,
                "end_time": 30.35681818181818,
                "pitch": 71,
                "velocity": 127,
                "duration": 0.2181818181818187,
                "tempo": 120.0
            },
            {
                "start_time": 30.37272727272727,
                "end_time": 30.59090909090909,
                "pitch": 69,
                "velocity": 101,
                "duration": 0.2181818181818187,
                "tempo": 120.0
            },
            {
                "start_time": 30.60681818181818,
                "end_time": 30.82272727272727,
                "pitch": 76,
                "velocity": 127,
                "duration": 0.21590909090908994,
                "tempo": 120.0
            },
            {
                "start_time": 30.84090909090909,
                "end_time": 31.052272727272726,
                "pitch": 76,
                "velocity": 101,
                "duration": 0.21136363636363598,
                "tempo": 120.0
            },
            {
                "start_time": 31.070454545454545,
                "end_time": 31.28181818181818,
                "pitch": 69,
                "velocity": 127,
                "duration": 0.21136363636363598,
                "tempo": 120.0
            },
            {
                "start_time": 31.297727272727272,
                "end_time": 31.49772727272727,
                "pitch": 69,
                "velocity": 101,
                "duration": 0.1999999999999993,
                "tempo": 120.0
            },
            {
                "start_time": 31.53181818181818,
                "end_time": 31.73181818181818,
                "pitch": 69,
                "velocity": 127,
                "duration": 0.1999999999999993,
                "tempo": 120.0
            },
            {
                "start_time": 31.76590909090909,
                "end_time": 31.961363636363636,
                "pitch": 71,
                "velocity": 101,
                "duration": 0.19545454545454533,
                "tempo": 120.0
            },
            {
                "start_time": 31.993181818181817,
                "end_time": 32.18863636363636,
                "pitch": 71,
                "velocity": 127,
                "duration": 0.19545454545454533,
                "tempo": 120.0
            },
            {
                "start_time": 32.22272727272727,
                "end_time": 32.418181818181814,
                "pitch": 69,
                "velocity": 101,
                "duration": 0.19545454545454533,
                "tempo": 120.0
            },
            {
                "start_time": 30.60681818181818,
                "end_time": 32.449999999999996,
                "pitch": 43,
                "velocity": 127,
                "duration": 1.8431818181818151,
                "tempo": 120.0
            },
            {
                "start_time": 32.449999999999996,
                "end_time": 32.64545454545454,
                "pitch": 76,
                "velocity": 127,
                "duration": 0.19545454545454533,
                "tempo": 120.0
            },
            {
                "start_time": 32.663636363636364,
                "end_time": 32.87045454545454,
                "pitch": 76,
                "velocity": 101,
                "duration": 0.20681818181817846,
                "tempo": 120.0
            },
            {
                "start_time": 31.070454545454545,
                "end_time": 32.88636363636363,
                "pitch": 78,
                "velocity": 127,
                "duration": 1.8159090909090878,
                "tempo": 120.0
            },
            {
                "start_time": 32.88636363636363,
                "end_time": 33.09318181818182,
                "pitch": 69,
                "velocity": 127,
                "duration": 0.20681818181818556,
                "tempo": 120.0
            },
            {
                "start_time": 33.111363636363635,
                "end_time": 33.32727272727273,
                "pitch": 69,
                "velocity": 101,
                "duration": 0.2159090909090935,
                "tempo": 120.0
            },
            {
                "start_time": 32.449999999999996,
                "end_time": 33.34318181818182,
                "pitch": 43,
                "velocity": 127,
                "duration": 0.893181818181823,
                "tempo": 120.0
            },
            {
                "start_time": 33.34318181818182,
                "end_time": 33.56136363636364,
                "pitch": 72,
                "velocity": 127,
                "duration": 0.2181818181818187,
                "tempo": 120.0
            },
            {
                "start_time": 33.57727272727273,
                "end_time": 33.79772727272727,
                "pitch": 72,
                "velocity": 101,
                "duration": 0.2204545454545439,
                "tempo": 120.0
            },
            {
                "start_time": 33.81590909090909,
                "end_time": 34.03636363636363,
                "pitch": 71,
                "velocity": 127,
                "duration": 0.2204545454545439,
                "tempo": 120.0
            },
            {
                "start_time": 34.05227272727272,
                "end_time": 34.26590909090909,
                "pitch": 71,
                "velocity": 101,
                "duration": 0.2136363636363683,
                "tempo": 120.0
            },
            {
                "start_time": 33.81590909090909,
                "end_time": 34.49318181818182,
                "pitch": 76,
                "velocity": 127,
                "duration": 0.6772727272727295,
                "tempo": 120.0
            },
            {
                "start_time": 34.28181818181818,
                "end_time": 34.49318181818182,
                "pitch": 76,
                "velocity": 127,
                "duration": 0.21136363636363598,
                "tempo": 120.0
            },
            {
                "start_time": 34.51136363636363,
                "end_time": 34.71818181818182,
                "pitch": 76,
                "velocity": 101,
                "duration": 0.20681818181818556,
                "tempo": 120.0
            },
            {
                "start_time": 32.88636363636363,
                "end_time": 34.73409090909091,
                "pitch": 78,
                "velocity": 127,
                "duration": 1.8477272727272762,
                "tempo": 120.0
            },
            {
                "start_time": 34.73409090909091,
                "end_time": 34.94090909090909,
                "pitch": 71,
                "velocity": 127,
                "duration": 0.20681818181817846,
                "tempo": 120.0
            },
            {
                "start_time": 34.95681818181818,
                "end_time": 35.17272727272727,
                "pitch": 71,
                "velocity": 101,
                "duration": 0.2159090909090935,
                "tempo": 120.0
            },
            {
                "start_time": 34.28181818181818,
                "end_time": 35.19090909090909,
                "pitch": 56,
                "velocity": 127,
                "duration": 0.9090909090909065,
                "tempo": 120.0
            },
            {
                "start_time": 35.19090909090909,
                "end_time": 35.40681818181818,
                "pitch": 72,
                "velocity": 127,
                "duration": 0.2159090909090935,
                "tempo": 120.0
            },
            {
                "start_time": 35.425,
                "end_time": 35.63636363636363,
                "pitch": 72,
                "velocity": 101,
                "duration": 0.21136363636363598,
                "tempo": 120.0
            },
            {
                "start_time": 35.652272727272724,
                "end_time": 35.86363636363636,
                "pitch": 71,
                "velocity": 127,
                "duration": 0.21136363636363598,
                "tempo": 120.0
            },
            {
                "start_time": 35.88181818181818,
                "end_time": 36.09318181818182,
                "pitch": 71,
                "velocity": 101,
                "duration": 0.21136363636363598,
                "tempo": 120.0
            },
            {
                "start_time": 35.19090909090909,
                "end_time": 36.10909090909091,
                "pitch": 56,
                "velocity": 127,
                "duration": 0.9181818181818215,
                "tempo": 120.0
            },
            {
                "start_time": 35.652272727272724,
                "end_time": 36.320454545454545,
                "pitch": 76,
                "velocity": 127,
                "duration": 0.6681818181818215,
                "tempo": 120.0
            },
            {
                "start_time": 36.10909090909091,
                "end_time": 36.320454545454545,
                "pitch": 76,
                "velocity": 127,
                "duration": 0.21136363636363598,
                "tempo": 120.0
            },
            {
                "start_time": 36.33863636363636,
                "end_time": 36.554545454545455,
                "pitch": 76,
                "velocity": 101,
                "duration": 0.2159090909090935,
                "tempo": 120.0
            },
            {
                "start_time": 34.73409090909091,
                "end_time": 36.57272727272727,
                "pitch": 78,
                "velocity": 127,
                "duration": 1.8386363636363612,
                "tempo": 120.0
            },
            {
                "start_time": 36.57272727272727,
                "end_time": 36.788636363636364,
                "pitch": 71,
                "velocity": 127,
                "duration": 0.2159090909090935,
                "tempo": 120.0
            },
            {
                "start_time": 36.80681818181818,
                "end_time": 37.02272727272727,
                "pitch": 71,
                "velocity": 101,
                "duration": 0.2159090909090935,
                "tempo": 120.0
            },
            {
                "start_time": 37.04090909090909,
                "end_time": 37.25681818181818,
                "pitch": 71,
                "velocity": 127,
                "duration": 0.2159090909090935,
                "tempo": 120.0
            },
            {
                "start_time": 37.275,
                "end_time": 37.49090909090909,
                "pitch": 71,
                "velocity": 101,
                "duration": 0.2159090909090935,
                "tempo": 120.0
            },
            {
                "start_time": 37.50909090909091,
                "end_time": 37.725,
                "pitch": 71,
                "velocity": 127,
                "duration": 0.2159090909090935,
                "tempo": 120.0
            },
            {
                "start_time": 37.74318181818182,
                "end_time": 37.94090909090909,
                "pitch": 69,
                "velocity": 101,
                "duration": 0.19772727272727053,
                "tempo": 120.0
            },
            {
                "start_time": 33.34318181818182,
                "end_time": 37.975,
                "pitch": 43,
                "velocity": 127,
                "duration": 4.631818181818183,
                "tempo": 120.0
            },
            {
                "start_time": 37.975,
                "end_time": 38.175,
                "pitch": 76,
                "velocity": 127,
                "duration": 0.19999999999999574,
                "tempo": 120.0
            },
            {
                "start_time": 38.20909090909091,
                "end_time": 38.404545454545456,
                "pitch": 76,
                "velocity": 101,
                "duration": 0.19545454545454533,
                "tempo": 120.0
            },
            {
                "start_time": 36.57272727272727,
                "end_time": 38.43863636363636,
                "pitch": 78,
                "velocity": 127,
                "duration": 1.865909090909092,
                "tempo": 120.0
            },
            {
                "start_time": 38.43863636363636,
                "end_time": 38.63409090909091,
                "pitch": 69,
                "velocity": 127,
                "duration": 0.19545454545454533,
                "tempo": 120.0
            },
            {
                "start_time": 38.668181818181814,
                "end_time": 38.86590909090909,
                "pitch": 69,
                "velocity": 101,
                "duration": 0.19772727272727764,
                "tempo": 120.0
            },
            {
                "start_time": 38.88409090909091,
                "end_time": 39.1,
                "pitch": 69,
                "velocity": 127,
                "duration": 0.2159090909090935,
                "tempo": 120.0
            },
            {
                "start_time": 39.11818181818182,
                "end_time": 39.320454545454545,
                "pitch": 71,
                "velocity": 101,
                "duration": 0.20227272727272805,
                "tempo": 120.0
            },
            {
                "start_time": 39.336363636363636,
                "end_time": 39.538636363636364,
                "pitch": 71,
                "velocity": 127,
                "duration": 0.20227272727272805,
                "tempo": 120.0
            },
            {
                "start_time": 39.554545454545455,
                "end_time": 39.77045454545454,
                "pitch": 69,
                "velocity": 101,
                "duration": 0.2159090909090864,
                "tempo": 120.0
            },
            {
                "start_time": 39.788636363636364,
                "end_time": 40.00454545454545,
                "pitch": 76,
                "velocity": 127,
                "duration": 0.2159090909090864,
                "tempo": 120.0
            },
            {
                "start_time": 40.02272727272727,
                "end_time": 40.23409090909091,
                "pitch": 76,
                "velocity": 101,
                "duration": 0.21136363636363598,
                "tempo": 120.0
            },
            {
                "start_time": 38.43863636363636,
                "end_time": 40.25,
                "pitch": 78,
                "velocity": 127,
                "duration": 1.8113636363636374,
                "tempo": 120.0
            },
            {
                "start_time": 40.25,
                "end_time": 40.461363636363636,
                "pitch": 69,
                "velocity": 127,
                "duration": 0.21136363636363598,
                "tempo": 120.0
            },
            {
                "start_time": 40.47954545454545,
                "end_time": 40.695454545454545,
                "pitch": 69,
                "velocity": 101,
                "duration": 0.2159090909090935,
                "tempo": 120.0
            },
            {
                "start_time": 37.975,
                "end_time": 40.71363636363636,
                "pitch": 43,
                "velocity": 127,
                "duration": 2.7386363636363598,
                "tempo": 120.0
            },
            {
                "start_time": 40.71363636363636,
                "end_time": 40.929545454545455,
                "pitch": 72,
                "velocity": 127,
                "duration": 0.2159090909090935,
                "tempo": 120.0
            },
            {
                "start_time": 40.94772727272727,
                "end_time": 41.168181818181814,
                "pitch": 72,
                "velocity": 101,
                "duration": 0.2204545454545439,
                "tempo": 120.0
            },
            {
                "start_time": 41.184090909090905,
                "end_time": 41.40454545454545,
                "pitch": 71,
                "velocity": 127,
                "duration": 0.2204545454545439,
                "tempo": 120.0
            },
            {
                "start_time": 41.42272727272727,
                "end_time": 41.63409090909091,
                "pitch": 71,
                "velocity": 101,
                "duration": 0.21136363636363598,
                "tempo": 120.0
            },
            {
                "start_time": 36.10909090909091,
                "end_time": 41.65,
                "pitch": 56,
                "velocity": 127,
                "duration": 5.540909090909089,
                "tempo": 120.0
            },
            {
                "start_time": 41.184090909090905,
                "end_time": 41.86363636363636,
                "pitch": 76,
                "velocity": 127,
                "duration": 0.6795454545454547,
                "tempo": 120.0
            },
            {
                "start_time": 41.65,
                "end_time": 41.86363636363636,
                "pitch": 76,
                "velocity": 127,
                "duration": 0.21363636363636118,
                "tempo": 120.0
            },
            {
                "start_time": 41.87954545454545,
                "end_time": 42.086363636363636,
                "pitch": 76,
                "velocity": 101,
                "duration": 0.20681818181818556,
                "tempo": 120.0
            },
            {
                "start_time": 40.25,
                "end_time": 42.10227272727273,
                "pitch": 78,
                "velocity": 127,
                "duration": 1.8522727272727266,
                "tempo": 120.0
            },
            {
                "start_time": 42.10227272727273,
                "end_time": 42.309090909090905,
                "pitch": 71,
                "velocity": 127,
                "duration": 0.20681818181817846,
                "tempo": 120.0
            },
            {
                "start_time": 42.32727272727273,
                "end_time": 42.538636363636364,
                "pitch": 71,
                "velocity": 101,
                "duration": 0.21136363636363598,
                "tempo": 120.0
            },
            {
                "start_time": 42.554545454545455,
                "end_time": 42.76590909090909,
                "pitch": 71,
                "velocity": 127,
                "duration": 0.21136363636363598,
                "tempo": 120.0
            },
            {
                "start_time": 42.78409090909091,
                "end_time": 43.0,
                "pitch": 71,
                "velocity": 127,
                "duration": 0.2159090909090935,
                "tempo": 120.0
            },
            {
                "start_time": 43.01590909090909,
                "end_time": 43.23409090909091,
                "pitch": 71,
                "velocity": 127,
                "duration": 0.2181818181818187,
                "tempo": 120.0
            },
            {
                "start_time": 43.25,
                "end_time": 43.461363636363636,
                "pitch": 71,
                "velocity": 127,
                "duration": 0.21136363636363598,
                "tempo": 120.0
            },
            {
                "start_time": 43.47954545454545,
                "end_time": 43.69090909090909,
                "pitch": 71,
                "velocity": 101,
                "duration": 0.21136363636363598,
                "tempo": 120.0
            },
            {
                "start_time": 43.70681818181818,
                "end_time": 43.92727272727272,
                "pitch": 71,
                "velocity": 101,
                "duration": 0.2204545454545439,
                "tempo": 120.0
            },
            {
                "start_time": 43.945454545454545,
                "end_time": 44.14772727272727,
                "pitch": 71,
                "velocity": 101,
                "duration": 0.20227272727272805,
                "tempo": 120.0
            },
            {
                "start_time": 44.18181818181818,
                "end_time": 44.377272727272725,
                "pitch": 71,
                "velocity": 101,
                "duration": 0.19545454545454533,
                "tempo": 120.0
            },
            {
                "start_time": 44.41136363636363,
                "end_time": 44.60681818181818,
                "pitch": 71,
                "velocity": 127,
                "duration": 0.19545454545454533,
                "tempo": 120.0
            },
            {
                "start_time": 44.63863636363636,
                "end_time": 44.83863636363636,
                "pitch": 71,
                "velocity": 101,
                "duration": 0.20000000000000284,
                "tempo": 120.0
            },
            {
                "start_time": 44.87272727272727,
                "end_time": 45.07272727272727,
                "pitch": 71,
                "velocity": 127,
                "duration": 0.20000000000000284,
                "tempo": 120.0
            },
            {
                "start_time": 45.10681818181818,
                "end_time": 45.30681818181818,
                "pitch": 69,
                "velocity": 101,
                "duration": 0.20000000000000284,
                "tempo": 120.0
            },
            {
                "start_time": 40.71363636363636,
                "end_time": 45.324999999999996,
                "pitch": 43,
                "velocity": 127,
                "duration": 4.6113636363636346,
                "tempo": 120.0
            },
            {
                "start_time": 45.324999999999996,
                "end_time": 45.54090909090909,
                "pitch": 76,
                "velocity": 127,
                "duration": 0.2159090909090935,
                "tempo": 120.0
            },
            {
                "start_time": 45.559090909090905,
                "end_time": 45.76136363636363,
                "pitch": 76,
                "velocity": 101,
                "duration": 0.20227272727272805,
                "tempo": 120.0
            },
            {
                "start_time": 42.10227272727273,
                "end_time": 45.777272727272724,
                "pitch": 78,
                "velocity": 127,
                "duration": 3.674999999999997,
                "tempo": 120.0
            },
            {
                "start_time": 45.777272727272724,
                "end_time": 45.97954545454545,
                "pitch": 69,
                "velocity": 127,
                "duration": 0.20227272727272805,
                "tempo": 120.0
            },
            {
                "start_time": 45.99545454545454,
                "end_time": 46.211363636363636,
                "pitch": 69,
                "velocity": 101,
                "duration": 0.2159090909090935,
                "tempo": 120.0
            },
            {
                "start_time": 46.22954545454545,
                "end_time": 46.445454545454545,
                "pitch": 69,
                "velocity": 127,
                "duration": 0.2159090909090935,
                "tempo": 120.0
            },
            {
                "start_time": 46.46363636363636,
                "end_time": 46.675,
                "pitch": 71,
                "velocity": 101,
                "duration": 0.21136363636363598,
                "tempo": 120.0
            },
            {
                "start_time": 46.69090909090909,
                "end_time": 46.902272727272724,
                "pitch": 71,
                "velocity": 127,
                "duration": 0.21136363636363598,
                "tempo": 120.0
            },
            {
                "start_time": 46.92045454545454,
                "end_time": 47.13636363636363,
                "pitch": 69,
                "velocity": 101,
                "duration": 0.2159090909090935,
                "tempo": 120.0
            },
            {
                "start_time": 45.324999999999996,
                "end_time": 47.15454545454545,
                "pitch": 43,
                "velocity": 127,
                "duration": 1.8295454545454533,
                "tempo": 120.0
            },
            {
                "start_time": 47.152272727272724,
                "end_time": 47.15454545454545,
                "pitch": 43,
                "velocity": 127,
                "duration": 0.0022727272727252057,
                "tempo": 120.0
            },
            {
                "start_time": 47.15454545454545,
                "end_time": 47.37045454545454,
                "pitch": 76,
                "velocity": 127,
                "duration": 0.2159090909090935,
                "tempo": 120.0
            },
            {
                "start_time": 47.38636363636363,
                "end_time": 47.599999999999994,
                "pitch": 76,
                "velocity": 101,
                "duration": 0.21363636363636118,
                "tempo": 120.0
            },
            {
                "start_time": 45.777272727272724,
                "end_time": 47.61590909090909,
                "pitch": 78,
                "velocity": 127,
                "duration": 1.8386363636363683,
                "tempo": 120.0
            },
            {
                "start_time": 47.61590909090909,
                "end_time": 47.82727272727273,
                "pitch": 69,
                "velocity": 127,
                "duration": 0.21136363636363598,
                "tempo": 120.0
            },
            {
                "start_time": 47.845454545454544,
                "end_time": 48.06136363636364,
                "pitch": 69,
                "velocity": 101,
                "duration": 0.2159090909090935,
                "tempo": 120.0
            },
            {
                "start_time": 48.07727272727273,
                "end_time": 48.07954545454545,
                "pitch": 43,
                "velocity": 127,
                "duration": 0.0022727272727252057,
                "tempo": 120.0
            },
            {
                "start_time": 48.07954545454545,
                "end_time": 48.29545454545454,
                "pitch": 72,
                "velocity": 127,
                "duration": 0.2159090909090864,
                "tempo": 120.0
            },
            {
                "start_time": 48.31363636363636,
                "end_time": 48.52954545454545,
                "pitch": 72,
                "velocity": 101,
                "duration": 0.2159090909090864,
                "tempo": 120.0
            },
            {
                "start_time": 48.54772727272727,
                "end_time": 48.76363636363636,
                "pitch": 71,
                "velocity": 127,
                "duration": 0.2159090909090864,
                "tempo": 120.0
            },
            {
                "start_time": 48.77954545454545,
                "end_time": 48.99318181818182,
                "pitch": 71,
                "velocity": 101,
                "duration": 0.2136363636363683,
                "tempo": 120.0
            },
            {
                "start_time": 41.65,
                "end_time": 49.00909090909091,
                "pitch": 56,
                "velocity": 127,
                "duration": 7.359090909090909,
                "tempo": 120.0
            },
            {
                "start_time": 49.00909090909091,
                "end_time": 49.220454545454544,
                "pitch": 74,
                "velocity": 127,
                "duration": 0.21136363636363598,
                "tempo": 120.0
            },
            {
                "start_time": 49.23863636363636,
                "end_time": 49.449999999999996,
                "pitch": 74,
                "velocity": 101,
                "duration": 0.21136363636363598,
                "tempo": 120.0
            },
            {
                "start_time": 49.465909090909086,
                "end_time": 49.67727272727272,
                "pitch": 71,
                "velocity": 127,
                "duration": 0.21136363636363598,
                "tempo": 120.0
            },
            {
                "start_time": 49.695454545454545,
                "end_time": 49.91136363636363,
                "pitch": 71,
                "velocity": 101,
                "duration": 0.2159090909090864,
                "tempo": 120.0
            },
            {
                "start_time": 49.00909090909091,
                "end_time": 49.92727272727272,
                "pitch": 56,
                "velocity": 127,
                "duration": 0.9181818181818144,
                "tempo": 120.0
            },
            {
                "start_time": 49.92727272727272,
                "end_time": 50.14545454545454,
                "pitch": 72,
                "velocity": 127,
                "duration": 0.2181818181818187,
                "tempo": 120.0
            },
            {
                "start_time": 50.16136363636363,
                "end_time": 50.37272727272727,
                "pitch": 72,
                "velocity": 101,
                "duration": 0.21136363636363598,
                "tempo": 120.0
            },
            {
                "start_time": 48.54772727272727,
                "end_time": 50.39090909090909,
                "pitch": 76,
                "velocity": 127,
                "duration": 1.8431818181818187,
                "tempo": 120.0
            },
            {
                "start_time": 50.39090909090909,
                "end_time": 50.586363636363636,
                "pitch": 71,
                "velocity": 127,
                "duration": 0.19545454545454533,
                "tempo": 120.0
            },
            {
                "start_time": 50.61818181818182,
                "end_time": 50.81818181818181,
                "pitch": 71,
                "velocity": 101,
                "duration": 0.19999999999999574,
                "tempo": 120.0
            },
            {
                "start_time": 49.92727272727272,
                "end_time": 50.85227272727273,
                "pitch": 56,
                "velocity": 127,
                "duration": 0.9250000000000043,
                "tempo": 120.0
            },
            {
                "start_time": 50.85227272727273,
                "end_time": 51.05227272727272,
                "pitch": 74,
                "velocity": 127,
                "duration": 0.19999999999999574,
                "tempo": 120.0
            },
            {
                "start_time": 51.086363636363636,
                "end_time": 51.28181818181818,
                "pitch": 74,
                "velocity": 101,
                "duration": 0.19545454545454533,
                "tempo": 120.0
            },
            {
                "start_time": 51.31363636363636,
                "end_time": 51.50909090909091,
                "pitch": 71,
                "velocity": 127,
                "duration": 0.19545454545454533,
                "tempo": 120.0
            },
            {
                "start_time": 51.527272727272724,
                "end_time": 51.73409090909091,
                "pitch": 71,
                "velocity": 101,
                "duration": 0.20681818181818556,
                "tempo": 120.0
            },
            {
                "start_time": 51.75,
                "end_time": 51.95681818181818,
                "pitch": 71,
                "velocity": 127,
                "duration": 0.20681818181817846,
                "tempo": 120.0
            },
            {
                "start_time": 51.974999999999994,
                "end_time": 52.19090909090909,
                "pitch": 71,
                "velocity": 101,
                "duration": 0.2159090909090935,
                "tempo": 120.0
            },
            {
                "start_time": 52.20681818181818,
                "end_time": 52.425,
                "pitch": 71,
                "velocity": 127,
                "duration": 0.2181818181818187,
                "tempo": 120.0
            },
            {
                "start_time": 52.44090909090909,
                "end_time": 52.65909090909091,
                "pitch": 69,
                "velocity": 101,
                "duration": 0.2181818181818187,
                "tempo": 120.0
            },
            {
                "start_time": 50.39090909090909,
                "end_time": 52.893181818181816,
                "pitch": 76,
                "velocity": 127,
                "duration": 2.502272727272725,
                "tempo": 120.0
            },
            {
                "start_time": 52.675,
                "end_time": 52.893181818181816,
                "pitch": 76,
                "velocity": 127,
                "duration": 0.2181818181818187,
                "tempo": 120.0
            },
            {
                "start_time": 52.90909090909091,
                "end_time": 53.12045454545454,
                "pitch": 76,
                "velocity": 101,
                "duration": 0.21136363636363598,
                "tempo": 120.0
            },
            {
                "start_time": 47.61590909090909,
                "end_time": 53.13863636363636,
                "pitch": 78,
                "velocity": 127,
                "duration": 5.522727272727266,
                "tempo": 120.0
            },
            {
                "start_time": 53.13863636363636,
                "end_time": 53.349999999999994,
                "pitch": 69,
                "velocity": 127,
                "duration": 0.21136363636363598,
                "tempo": 120.0
            },
            {
                "start_time": 53.365909090909085,
                "end_time": 53.58181818181818,
                "pitch": 69,
                "velocity": 101,
                "duration": 0.2159090909090935,
                "tempo": 120.0
            },
            {
                "start_time": 53.599999999999994,
                "end_time": 53.81590909090909,
                "pitch": 69,
                "velocity": 127,
                "duration": 0.2159090909090935,
                "tempo": 120.0
            },
            {
                "start_time": 53.834090909090904,
                "end_time": 54.04545454545454,
                "pitch": 71,
                "velocity": 101,
                "duration": 0.21136363636363598,
                "tempo": 120.0
            },
            {
                "start_time": 54.06136363636363,
                "end_time": 54.27272727272727,
                "pitch": 71,
                "velocity": 127,
                "duration": 0.21136363636364308,
                "tempo": 120.0
            },
            {
                "start_time": 54.29090909090909,
                "end_time": 54.502272727272725,
                "pitch": 69,
                "velocity": 101,
                "duration": 0.21136363636363598,
                "tempo": 120.0
            },
            {
                "start_time": 52.675,
                "end_time": 54.518181818181816,
                "pitch": 43,
                "velocity": 127,
                "duration": 1.8431818181818187,
                "tempo": 120.0
            },
            {
                "start_time": 54.518181818181816,
                "end_time": 54.73181818181818,
                "pitch": 76,
                "velocity": 127,
                "duration": 0.21363636363636118,
                "tempo": 120.0
            },
            {
                "start_time": 54.74772727272727,
                "end_time": 54.96363636363636,
                "pitch": 76,
                "velocity": 101,
                "duration": 0.2159090909090935,
                "tempo": 120.0
            },
            {
                "start_time": 53.13863636363636,
                "end_time": 54.98181818181818,
                "pitch": 78,
                "velocity": 127,
                "duration": 1.8431818181818187,
                "tempo": 120.0
            },
            {
                "start_time": 54.98181818181818,
                "end_time": 55.19772727272727,
                "pitch": 69,
                "velocity": 127,
                "duration": 0.2159090909090935,
                "tempo": 120.0
            },
            {
                "start_time": 55.215909090909086,
                "end_time": 55.43181818181818,
                "pitch": 69,
                "velocity": 101,
                "duration": 0.2159090909090935,
                "tempo": 120.0
            },
            {
                "start_time": 55.449999999999996,
                "end_time": 55.66590909090909,
                "pitch": 69,
                "velocity": 127,
                "duration": 0.2159090909090935,
                "tempo": 120.0
            },
            {
                "start_time": 55.684090909090905,
                "end_time": 55.9,
                "pitch": 71,
                "velocity": 101,
                "duration": 0.2159090909090935,
                "tempo": 120.0
            },
            {
                "start_time": 55.918181818181814,
                "end_time": 56.13409090909091,
                "pitch": 71,
                "velocity": 127,
                "duration": 0.2159090909090935,
                "tempo": 120.0
            },
            {
                "start_time": 56.152272727272724,
                "end_time": 56.36818181818182,
                "pitch": 69,
                "velocity": 101,
                "duration": 0.2159090909090935,
                "tempo": 120.0
            },
            {
                "start_time": 56.38636363636363,
                "end_time": 56.60227272727273,
                "pitch": 76,
                "velocity": 127,
                "duration": 0.2159090909090935,
                "tempo": 120.0
            },
            {
                "start_time": 56.62045454545454,
                "end_time": 56.81590909090909,
                "pitch": 76,
                "velocity": 101,
                "duration": 0.19545454545454533,
                "tempo": 120.0
            },
            {
                "start_time": 56.84772727272727,
                "end_time": 57.043181818181814,
                "pitch": 69,
                "velocity": 127,
                "duration": 0.19545454545454533,
                "tempo": 120.0
            },
            {
                "start_time": 57.07727272727273,
                "end_time": 57.27045454545454,
                "pitch": 69,
                "velocity": 101,
                "duration": 0.19318181818181301,
                "tempo": 120.0
            },
            {
                "start_time": 57.304545454545455,
                "end_time": 57.5,
                "pitch": 69,
                "velocity": 127,
                "duration": 0.19545454545454533,
                "tempo": 120.0
            },
            {
                "start_time": 57.53409090909091,
                "end_time": 57.72954545454545,
                "pitch": 71,
                "velocity": 101,
                "duration": 0.19545454545454533,
                "tempo": 120.0
            },
            {
                "start_time": 57.76136363636363,
                "end_time": 57.95681818181818,
                "pitch": 71,
                "velocity": 127,
                "duration": 0.19545454545454533,
                "tempo": 120.0
            },
            {
                "start_time": 57.97272727272727,
                "end_time": 58.179545454545455,
                "pitch": 69,
                "velocity": 101,
                "duration": 0.20681818181818556,
                "tempo": 120.0
            },
            {
                "start_time": 58.19772727272727,
                "end_time": 58.40454545454545,
                "pitch": 76,
                "velocity": 127,
                "duration": 0.20681818181817846,
                "tempo": 120.0
            },
            {
                "start_time": 58.42045454545454,
                "end_time": 58.631818181818176,
                "pitch": 76,
                "velocity": 101,
                "duration": 0.21136363636363598,
                "tempo": 120.0
            },
            {
                "start_time": 54.98181818181818,
                "end_time": 58.64772727272727,
                "pitch": 78,
                "velocity": 127,
                "duration": 3.6659090909090963,
                "tempo": 120.0
            },
            {
                "start_time": 58.64772727272727,
                "end_time": 58.861363636363635,
                "pitch": 69,
                "velocity": 127,
                "duration": 0.21363636363636118,
                "tempo": 120.0
            }
        ],
        "Acoustic Grand Piano": [
            {
                "start_time": 0.045454545454545456,
                "end_time": 3.690909090909091,
                "pitch": 59,
                "velocity": 101,
                "duration": 3.6454545454545455,
                "tempo": 120.0
            },
            {
                "start_time": 3.7249999999999996,
                "end_time": 7.3999999999999995,
                "pitch": 60,
                "velocity": 101,
                "duration": 3.675,
                "tempo": 120.0
            },
            {
                "start_time": 7.41590909090909,
                "end_time": 11.063636363636363,
                "pitch": 59,
                "velocity": 101,
                "duration": 3.6477272727272725,
                "tempo": 120.0
            },
            {
                "start_time": 11.079545454545453,
                "end_time": 11.972727272727273,
                "pitch": 59,
                "velocity": 101,
                "duration": 0.8931818181818194,
                "tempo": 120.0
            },
            {
                "start_time": 12.004545454545454,
                "end_time": 12.897727272727272,
                "pitch": 71,
                "velocity": 101,
                "duration": 0.8931818181818176,
                "tempo": 120.0
            },
            {
                "start_time": 12.931818181818182,
                "end_time": 13.820454545454545,
                "pitch": 83,
                "velocity": 101,
                "duration": 0.8886363636363637,
                "tempo": 120.0
            },
            {
                "start_time": 13.852272727272727,
                "end_time": 14.709090909090909,
                "pitch": 95,
                "velocity": 101,
                "duration": 0.8568181818181824,
                "tempo": 120.0
            },
            {
                "start_time": 14.759090909090908,
                "end_time": 18.436363636363634,
                "pitch": 59,
                "velocity": 101,
                "duration": 3.677272727272726,
                "tempo": 120.0
            },
            {
                "start_time": 3.7249999999999996,
                "end_time": 18.452272727272728,
                "pitch": 44,
                "velocity": 101,
                "duration": 14.727272727272728,
                "tempo": 120.0
            },
            {
                "start_time": 18.452272727272728,
                "end_time": 22.10909090909091,
                "pitch": 60,
                "velocity": 101,
                "duration": 3.6568181818181813,
                "tempo": 120.0
            },
            {
                "start_time": 7.41590909090909,
                "end_time": 22.14090909090909,
                "pitch": 64,
                "velocity": 101,
                "duration": 14.725000000000001,
                "tempo": 120.0
            },
            {
                "start_time": 22.14090909090909,
                "end_time": 25.80681818181818,
                "pitch": 59,
                "velocity": 101,
                "duration": 3.6659090909090892,
                "tempo": 120.0
            },
            {
                "start_time": 25.825,
                "end_time": 27.636363636363637,
                "pitch": 59,
                "velocity": 101,
                "duration": 1.8113636363636374,
                "tempo": 120.0
            },
            {
                "start_time": 27.654545454545453,
                "end_time": 29.479545454545452,
                "pitch": 71,
                "velocity": 101,
                "duration": 1.8249999999999993,
                "tempo": 120.0
            },
            {
                "start_time": 18.452272727272728,
                "end_time": 29.495454545454542,
                "pitch": 44,
                "velocity": 101,
                "duration": 11.043181818181814,
                "tempo": 120.0
            },
            {
                "start_time": 29.495454545454542,
                "end_time": 33.15909090909091,
                "pitch": 62,
                "velocity": 101,
                "duration": 3.663636363636364,
                "tempo": 120.0
            },
            {
                "start_time": 22.14090909090909,
                "end_time": 36.83863636363636,
                "pitch": 64,
                "velocity": 101,
                "duration": 14.69772727272727,
                "tempo": 120.0
            },
            {
                "start_time": 33.17727272727272,
                "end_time": 36.83863636363636,
                "pitch": 64,
                "velocity": 101,
                "duration": 3.661363636363639,
                "tempo": 120.0
            },
            {
                "start_time": 33.17727272727272,
                "end_time": 40.527272727272724,
                "pitch": 62,
                "velocity": 101,
                "duration": 7.350000000000001,
                "tempo": 120.0
            },
            {
                "start_time": 36.85454545454545,
                "end_time": 40.527272727272724,
                "pitch": 62,
                "velocity": 101,
                "duration": 3.672727272727272,
                "tempo": 120.0
            },
            {
                "start_time": 36.85454545454545,
                "end_time": 44.21363636363636,
                "pitch": 64,
                "velocity": 101,
                "duration": 7.359090909090909,
                "tempo": 120.0
            },
            {
                "start_time": 40.54545454545455,
                "end_time": 44.21363636363636,
                "pitch": 64,
                "velocity": 101,
                "duration": 3.6681818181818144,
                "tempo": 120.0
            },
            {
                "start_time": 44.23181818181818,
                "end_time": 47.877272727272725,
                "pitch": 60,
                "velocity": 101,
                "duration": 3.645454545454548,
                "tempo": 120.0
            },
            {
                "start_time": 40.54545454545455,
                "end_time": 51.574999999999996,
                "pitch": 62,
                "velocity": 101,
                "duration": 11.029545454545449,
                "tempo": 120.0
            },
            {
                "start_time": 47.91136363636363,
                "end_time": 51.574999999999996,
                "pitch": 62,
                "velocity": 101,
                "duration": 3.663636363636364,
                "tempo": 120.0
            },
            {
                "start_time": 44.23181818181818,
                "end_time": 55.24772727272727,
                "pitch": 64,
                "velocity": 101,
                "duration": 11.01590909090909,
                "tempo": 120.0
            },
            {
                "start_time": 51.590909090909086,
                "end_time": 55.24772727272727,
                "pitch": 64,
                "velocity": 101,
                "duration": 3.6568181818181813,
                "tempo": 120.0
            },
            {
                "start_time": 55.26590909090909,
                "end_time": 58.877272727272725,
                "pitch": 64,
                "velocity": 101,
                "duration": 3.6113636363636346,
                "tempo": 120.0
            }
        ]
    }
}