{
    "track_id": "12 Aerial Castle Appearance",
    "mood": "sad",
    "instruments": {
        "Clarinet": [
            {
                "start_time": 0.09545454545454544,
                "end_time": 0.17954545454545454,
                "pitch": 60,
                "velocity": 64,
                "duration": 0.08409090909090909,
                "tempo": 120.0
            },
            {
                "start_time": 0.41363636363636364,
                "end_time": 0.4977272727272727,
                "pitch": 66,
                "velocity": 64,
                "duration": 0.08409090909090905,
                "tempo": 120.0
            },
            {
                "start_time": 0.7318181818181818,
                "end_time": 0.8159090909090909,
                "pitch": 60,
                "velocity": 64,
                "duration": 0.0840909090909091,
                "tempo": 120.0
            },
            {
                "start_time": 1.3499999999999999,
                "end_time": 1.434090909090909,
                "pitch": 48,
                "velocity": 64,
                "duration": 0.08409090909090922,
                "tempo": 120.0
            },
            {
                "start_time": 1.6659090909090908,
                "end_time": 1.7477272727272726,
                "pitch": 54,
                "velocity": 64,
                "duration": 0.08181818181818179,
                "tempo": 120.0
            },
            {
                "start_time": 2.5931818181818183,
                "end_time": 2.675,
                "pitch": 60,
                "velocity": 64,
                "duration": 0.08181818181818157,
                "tempo": 120.0
            },
            {
                "start_time": 2.911363636363636,
                "end_time": 2.993181818181818,
                "pitch": 66,
                "velocity": 64,
                "duration": 0.08181818181818201,
                "tempo": 120.0
            },
            {
                "start_time": 3.227272727272727,
                "end_time": 3.311363636363636,
                "pitch": 60,
                "velocity": 64,
                "duration": 0.084090909090909,
                "tempo": 120.0
            },
            {
                "start_time": 3.8477272727272727,
                "end_time": 3.9295454545454542,
                "pitch": 48,
                "velocity": 64,
                "duration": 0.08181818181818157,
                "tempo": 120.0
            },
            {
                "start_time": 4.165909090909091,
                "end_time": 4.247727272727272,
                "pitch": 54,
                "velocity": 64,
                "duration": 0.08181818181818112,
                "tempo": 120.0
            }
        ],
        "Flute": [
            {
                "start_time": 25.081818181818182,
                "end_time": 25.39772727272727,
                "pitch": 72,
                "velocity": 64,
                "duration": 0.3159090909090878,
                "tempo": 120.0
            },
            {
                "start_time": 25.4,
                "end_time": 25.71590909090909,
                "pitch": 73,
                "velocity": 64,
                "duration": 0.31590909090909136,
                "tempo": 120.0
            },
            {
                "start_time": 25.71590909090909,
                "end_time": 26.04090909090909,
                "pitch": 76,
                "velocity": 64,
                "duration": 0.3249999999999993,
                "tempo": 120.0
            },
            {
                "start_time": 26.04090909090909,
                "end_time": 26.349999999999998,
                "pitch": 77,
                "velocity": 64,
                "duration": 0.30909090909090864,
                "tempo": 120.0
            },
            {
                "start_time": 26.349999999999998,
                "end_time": 26.672727272727272,
                "pitch": 76,
                "velocity": 64,
                "duration": 0.3227272727272741,
                "tempo": 120.0
            },
            {
                "start_time": 26.674999999999997,
                "end_time": 26.99772727272727,
                "pitch": 73,
                "velocity": 64,
                "duration": 0.3227272727272741,
                "tempo": 120.0
            },
            {
                "start_time": 26.99772727272727,
                "end_time": 27.30681818181818,
                "pitch": 72,
                "velocity": 64,
                "duration": 0.30909090909090864,
                "tempo": 120.0
            },
            {
                "start_time": 27.30681818181818,
                "end_time": 27.599999999999998,
                "pitch": 71,
                "velocity": 64,
                "duration": 0.293181818181818,
                "tempo": 120.0
            },
            {
                "start_time": 27.599999999999998,
                "end_time": 30.095454545454544,
                "pitch": 72,
                "velocity": 64,
                "duration": 2.495454545454546,
                "tempo": 120.0
            }
        ],
        "French Horn": [
            {
                "start_time": 30.095454545454544,
                "end_time": 30.409090909090907,
                "pitch": 48,
                "velocity": 64,
                "duration": 0.3136363636363626,
                "tempo": 120.0
            },
            {
                "start_time": 30.409090909090907,
                "end_time": 30.724999999999998,
                "pitch": 49,
                "velocity": 64,
                "duration": 0.31590909090909136,
                "tempo": 120.0
            },
            {
                "start_time": 30.724999999999998,
                "end_time": 31.043181818181818,
                "pitch": 52,
                "velocity": 64,
                "duration": 0.3181818181818201,
                "tempo": 120.0
            },
            {
                "start_time": 31.043181818181818,
                "end_time": 31.343181818181815,
                "pitch": 53,
                "velocity": 64,
                "duration": 0.29999999999999716,
                "tempo": 120.0
            },
            {
                "start_time": 31.345454545454544,
                "end_time": 32.0,
                "pitch": 52,
                "velocity": 64,
                "duration": 0.6545454545454561,
                "tempo": 120.0
            },
            {
                "start_time": 32.0,
                "end_time": 32.31818181818182,
                "pitch": 49,
                "velocity": 64,
                "duration": 0.3181818181818201,
                "tempo": 120.0
            },
            {
                "start_time": 32.31818181818182,
                "end_time": 32.62045454545454,
                "pitch": 51,
                "velocity": 64,
                "duration": 0.30227272727272236,
                "tempo": 120.0
            },
            {
                "start_time": 32.62045454545454,
                "end_time": 35.1,
                "pitch": 48,
                "velocity": 64,
                "duration": 2.479545454545459,
                "tempo": 120.0
            }
        ],
        "Oboe": [
            {
                "start_time": 0.09772727272727272,
                "end_time": 0.17954545454545454,
                "pitch": 36,
                "velocity": 80,
                "duration": 0.08181818181818182,
                "tempo": 120.0
            },
            {
                "start_time": 0.41363636363636364,
                "end_time": 0.4977272727272727,
                "pitch": 42,
                "velocity": 80,
                "duration": 0.08409090909090905,
                "tempo": 120.0
            },
            {
                "start_time": 0.7318181818181818,
                "end_time": 0.8159090909090909,
                "pitch": 36,
                "velocity": 80,
                "duration": 0.0840909090909091,
                "tempo": 120.0
            },
            {
                "start_time": 1.3522727272727273,
                "end_time": 1.434090909090909,
                "pitch": 24,
                "velocity": 80,
                "duration": 0.08181818181818179,
                "tempo": 120.0
            },
            {
                "start_time": 1.6659090909090908,
                "end_time": 1.7477272727272726,
                "pitch": 30,
                "velocity": 80,
                "duration": 0.08181818181818179,
                "tempo": 120.0
            },
            {
                "start_time": 2.5954545454545452,
                "end_time": 2.675,
                "pitch": 36,
                "velocity": 80,
                "duration": 0.07954545454545459,
                "tempo": 120.0
            },
            {
                "start_time": 2.911363636363636,
                "end_time": 2.993181818181818,
                "pitch": 42,
                "velocity": 80,
                "duration": 0.08181818181818201,
                "tempo": 120.0
            },
            {
                "start_time": 3.2295454545454545,
                "end_time": 3.311363636363636,
                "pitch": 36,
                "velocity": 80,
                "duration": 0.08181818181818157,
                "tempo": 120.0
            },
            {
                "start_time": 3.8477272727272727,
                "end_time": 3.9318181818181817,
                "pitch": 24,
                "velocity": 80,
                "duration": 0.084090909090909,
                "tempo": 120.0
            },
            {
                "start_time": 4.165909090909091,
                "end_time": 4.247727272727272,
                "pitch": 30,
                "velocity": 80,
                "duration": 0.08181818181818112,
                "tempo": 120.0
            },
            {
                "start_time": 5.084090909090909,
                "end_time": 5.165909090909091,
                "pitch": 36,
                "velocity": 80,
                "duration": 0.08181818181818201,
                "tempo": 120.0
            },
            {
                "start_time": 5.3999999999999995,
                "end_time": 5.4840909090909085,
                "pitch": 42,
                "velocity": 80,
                "duration": 0.084090909090909,
                "tempo": 120.0
            },
            {
                "start_time": 5.718181818181818,
                "end_time": 5.804545454545455,
                "pitch": 36,
                "velocity": 80,
                "duration": 0.08636363636363686,
                "tempo": 120.0
            },
            {
                "start_time": 6.352272727272727,
                "end_time": 6.436363636363636,
                "pitch": 24,
                "velocity": 80,
                "duration": 0.084090909090909,
                "tempo": 120.0
            },
            {
                "start_time": 6.677272727272727,
                "end_time": 6.761363636363636,
                "pitch": 30,
                "velocity": 80,
                "duration": 0.084090909090909,
                "tempo": 120.0
            },
            {
                "start_time": 7.61590909090909,
                "end_time": 7.695454545454545,
                "pitch": 36,
                "velocity": 80,
                "duration": 0.07954545454545503,
                "tempo": 120.0
            },
            {
                "start_time": 7.922727272727272,
                "end_time": 8.002272727272727,
                "pitch": 42,
                "velocity": 80,
                "duration": 0.07954545454545503,
                "tempo": 120.0
            },
            {
                "start_time": 8.229545454545454,
                "end_time": 8.313636363636363,
                "pitch": 36,
                "velocity": 80,
                "duration": 0.084090909090909,
                "tempo": 120.0
            },
            {
                "start_time": 8.85,
                "end_time": 8.934090909090909,
                "pitch": 24,
                "velocity": 80,
                "duration": 0.084090909090909,
                "tempo": 120.0
            },
            {
                "start_time": 9.177272727272728,
                "end_time": 9.263636363636364,
                "pitch": 30,
                "velocity": 80,
                "duration": 0.08636363636363598,
                "tempo": 120.0
            },
            {
                "start_time": 10.120454545454544,
                "end_time": 10.197727272727272,
                "pitch": 36,
                "velocity": 80,
                "duration": 0.07727272727272805,
                "tempo": 120.0
            },
            {
                "start_time": 10.420454545454545,
                "end_time": 10.5,
                "pitch": 42,
                "velocity": 80,
                "duration": 0.07954545454545503,
                "tempo": 120.0
            },
            {
                "start_time": 10.722727272727273,
                "end_time": 10.806818181818182,
                "pitch": 36,
                "velocity": 80,
                "duration": 0.084090909090909,
                "tempo": 120.0
            },
            {
                "start_time": 11.354545454545454,
                "end_time": 11.438636363636363,
                "pitch": 24,
                "velocity": 80,
                "duration": 0.084090909090909,
                "tempo": 120.0
            },
            {
                "start_time": 11.672727272727272,
                "end_time": 11.756818181818181,
                "pitch": 30,
                "velocity": 80,
                "duration": 0.084090909090909,
                "tempo": 120.0
            },
            {
                "start_time": 12.611363636363636,
                "end_time": 12.69090909090909,
                "pitch": 36,
                "velocity": 80,
                "duration": 0.07954545454545325,
                "tempo": 120.0
            },
            {
                "start_time": 12.918181818181818,
                "end_time": 12.997727272727271,
                "pitch": 42,
                "velocity": 80,
                "duration": 0.07954545454545325,
                "tempo": 120.0
            },
            {
                "start_time": 13.225,
                "end_time": 13.309090909090909,
                "pitch": 36,
                "velocity": 80,
                "duration": 0.084090909090909,
                "tempo": 120.0
            },
            {
                "start_time": 13.845454545454544,
                "end_time": 13.929545454545455,
                "pitch": 24,
                "velocity": 80,
                "duration": 0.08409090909091077,
                "tempo": 120.0
            },
            {
                "start_time": 14.170454545454545,
                "end_time": 14.254545454545454,
                "pitch": 30,
                "velocity": 80,
                "duration": 0.084090909090909,
                "tempo": 120.0
            },
            {
                "start_time": 15.084090909090909,
                "end_time": 15.163636363636362,
                "pitch": 36,
                "velocity": 80,
                "duration": 0.07954545454545325,
                "tempo": 120.0
            },
            {
                "start_time": 15.399999999999999,
                "end_time": 15.48181818181818,
                "pitch": 42,
                "velocity": 80,
                "duration": 0.08181818181818201,
                "tempo": 120.0
            },
            {
                "start_time": 15.718181818181817,
                "end_time": 15.799999999999999,
                "pitch": 36,
                "velocity": 80,
                "duration": 0.08181818181818201,
                "tempo": 120.0
            },
            {
                "start_time": 16.33863636363636,
                "end_time": 16.418181818181818,
                "pitch": 24,
                "velocity": 80,
                "duration": 0.0795454545454568,
                "tempo": 120.0
            },
            {
                "start_time": 16.652272727272727,
                "end_time": 16.73409090909091,
                "pitch": 30,
                "velocity": 80,
                "duration": 0.08181818181818201,
                "tempo": 120.0
            },
            {
                "start_time": 17.586363636363636,
                "end_time": 17.66590909090909,
                "pitch": 36,
                "velocity": 80,
                "duration": 0.07954545454545325,
                "tempo": 120.0
            },
            {
                "start_time": 17.9,
                "end_time": 17.98181818181818,
                "pitch": 42,
                "velocity": 80,
                "duration": 0.08181818181818201,
                "tempo": 120.0
            },
            {
                "start_time": 18.21363636363636,
                "end_time": 18.297727272727272,
                "pitch": 36,
                "velocity": 80,
                "duration": 0.08409090909091077,
                "tempo": 120.0
            },
            {
                "start_time": 18.847727272727273,
                "end_time": 18.927272727272726,
                "pitch": 24,
                "velocity": 80,
                "duration": 0.07954545454545325,
                "tempo": 120.0
            },
            {
                "start_time": 19.154545454545453,
                "end_time": 19.23409090909091,
                "pitch": 30,
                "velocity": 80,
                "duration": 0.0795454545454568,
                "tempo": 120.0
            },
            {
                "start_time": 20.097727272727273,
                "end_time": 20.177272727272726,
                "pitch": 36,
                "velocity": 80,
                "duration": 0.07954545454545325,
                "tempo": 120.0
            },
            {
                "start_time": 20.409090909090907,
                "end_time": 20.49090909090909,
                "pitch": 42,
                "velocity": 80,
                "duration": 0.08181818181818201,
                "tempo": 120.0
            },
            {
                "start_time": 20.722727272727273,
                "end_time": 20.80681818181818,
                "pitch": 36,
                "velocity": 80,
                "duration": 0.08409090909090722,
                "tempo": 120.0
            },
            {
                "start_time": 21.345454545454544,
                "end_time": 21.425,
                "pitch": 24,
                "velocity": 80,
                "duration": 0.0795454545454568,
                "tempo": 120.0
            },
            {
                "start_time": 21.659090909090907,
                "end_time": 21.74090909090909,
                "pitch": 30,
                "velocity": 80,
                "duration": 0.08181818181818201,
                "tempo": 120.0
            },
            {
                "start_time": 22.586363636363636,
                "end_time": 22.668181818181818,
                "pitch": 36,
                "velocity": 80,
                "duration": 0.08181818181818201,
                "tempo": 120.0
            },
            {
                "start_time": 22.904545454545453,
                "end_time": 22.986363636363635,
                "pitch": 42,
                "velocity": 80,
                "duration": 0.08181818181818201,
                "tempo": 120.0
            },
            {
                "start_time": 23.220454545454544,
                "end_time": 23.304545454545455,
                "pitch": 36,
                "velocity": 80,
                "duration": 0.08409090909091077,
                "tempo": 120.0
            },
            {
                "start_time": 23.84090909090909,
                "end_time": 23.922727272727272,
                "pitch": 24,
                "velocity": 80,
                "duration": 0.08181818181818201,
                "tempo": 120.0
            },
            {
                "start_time": 24.154545454545453,
                "end_time": 24.236363636363635,
                "pitch": 30,
                "velocity": 80,
                "duration": 0.08181818181818201,
                "tempo": 120.0
            },
            {
                "start_time": 25.084090909090907,
                "end_time": 25.163636363636364,
                "pitch": 36,
                "velocity": 80,
                "duration": 0.0795454545454568,
                "tempo": 120.0
            },
            {
                "start_time": 25.4,
                "end_time": 25.48181818181818,
                "pitch": 42,
                "velocity": 80,
                "duration": 0.08181818181818201,
                "tempo": 120.0
            },
            {
                "start_time": 25.71818181818182,
                "end_time": 25.802272727272726,
                "pitch": 36,
                "velocity": 80,
                "duration": 0.08409090909090722,
                "tempo": 120.0
            },
            {
                "start_time": 26.349999999999998,
                "end_time": 26.43409090909091,
                "pitch": 24,
                "velocity": 80,
                "duration": 0.08409090909091077,
                "tempo": 120.0
            },
            {
                "start_time": 26.674999999999997,
                "end_time": 26.759090909090908,
                "pitch": 30,
                "velocity": 80,
                "duration": 0.08409090909091077,
                "tempo": 120.0
            },
            {
                "start_time": 27.599999999999998,
                "end_time": 27.68181818181818,
                "pitch": 36,
                "velocity": 80,
                "duration": 0.08181818181818201,
                "tempo": 120.0
            },
            {
                "start_time": 27.913636363636364,
                "end_time": 27.995454545454542,
                "pitch": 42,
                "velocity": 80,
                "duration": 0.08181818181817846,
                "tempo": 120.0
            },
            {
                "start_time": 28.227272727272727,
                "end_time": 28.311363636363634,
                "pitch": 36,
                "velocity": 80,
                "duration": 0.08409090909090722,
                "tempo": 120.0
            },
            {
                "start_time": 28.847727272727273,
                "end_time": 28.929545454545455,
                "pitch": 24,
                "velocity": 80,
                "duration": 0.08181818181818201,
                "tempo": 120.0
            },
            {
                "start_time": 29.16590909090909,
                "end_time": 29.24772727272727,
                "pitch": 30,
                "velocity": 80,
                "duration": 0.08181818181818201,
                "tempo": 120.0
            },
            {
                "start_time": 30.097727272727273,
                "end_time": 30.177272727272726,
                "pitch": 36,
                "velocity": 80,
                "duration": 0.07954545454545325,
                "tempo": 120.0
            },
            {
                "start_time": 30.411363636363635,
                "end_time": 30.493181818181817,
                "pitch": 42,
                "velocity": 80,
                "duration": 0.08181818181818201,
                "tempo": 120.0
            },
            {
                "start_time": 30.724999999999998,
                "end_time": 30.80909090909091,
                "pitch": 36,
                "velocity": 80,
                "duration": 0.08409090909091077,
                "tempo": 120.0
            },
            {
                "start_time": 31.345454545454544,
                "end_time": 31.429545454545455,
                "pitch": 24,
                "velocity": 80,
                "duration": 0.08409090909091077,
                "tempo": 120.0
            },
            {
                "start_time": 31.670454545454543,
                "end_time": 31.75681818181818,
                "pitch": 30,
                "velocity": 80,
                "duration": 0.08636363636363598,
                "tempo": 120.0
            },
            {
                "start_time": 32.62045454545454,
                "end_time": 32.69772727272727,
                "pitch": 36,
                "velocity": 80,
                "duration": 0.07727272727272805,
                "tempo": 120.0
            },
            {
                "start_time": 32.918181818181814,
                "end_time": 32.99772727272727,
                "pitch": 42,
                "velocity": 80,
                "duration": 0.07954545454545325,
                "tempo": 120.0
            },
            {
                "start_time": 33.21818181818182,
                "end_time": 33.30227272727272,
                "pitch": 36,
                "velocity": 80,
                "duration": 0.08409090909090366,
                "tempo": 120.0
            },
            {
                "start_time": 33.83863636363636,
                "end_time": 33.92272727272727,
                "pitch": 24,
                "velocity": 80,
                "duration": 0.08409090909091077,
                "tempo": 120.0
            },
            {
                "start_time": 34.16136363636363,
                "end_time": 34.24545454545454,
                "pitch": 30,
                "velocity": 80,
                "duration": 0.08409090909091077,
                "tempo": 120.0
            },
            {
                "start_time": 35.1,
                "end_time": 35.18181818181818,
                "pitch": 36,
                "velocity": 80,
                "duration": 0.08181818181817846,
                "tempo": 120.0
            },
            {
                "start_time": 35.413636363636364,
                "end_time": 35.49545454545454,
                "pitch": 42,
                "velocity": 80,
                "duration": 0.08181818181817846,
                "tempo": 120.0
            },
            {
                "start_time": 35.72727272727273,
                "end_time": 35.81136363636364,
                "pitch": 36,
                "velocity": 80,
                "duration": 0.08409090909091077,
                "tempo": 120.0
            },
            {
                "start_time": 36.34772727272727,
                "end_time": 36.42727272727272,
                "pitch": 24,
                "velocity": 80,
                "duration": 0.07954545454545325,
                "tempo": 120.0
            },
            {
                "start_time": 36.65681818181818,
                "end_time": 36.736363636363635,
                "pitch": 30,
                "velocity": 80,
                "duration": 0.07954545454545325,
                "tempo": 120.0
            },
            {
                "start_time": 37.58409090909091,
                "end_time": 37.66590909090909,
                "pitch": 36,
                "velocity": 80,
                "duration": 0.08181818181817846,
                "tempo": 120.0
            },
            {
                "start_time": 37.902272727272724,
                "end_time": 37.98409090909091,
                "pitch": 42,
                "velocity": 80,
                "duration": 0.08181818181818556,
                "tempo": 120.0
            },
            {
                "start_time": 38.21818181818182,
                "end_time": 38.30227272727272,
                "pitch": 36,
                "velocity": 80,
                "duration": 0.08409090909090366,
                "tempo": 120.0
            },
            {
                "start_time": 38.83863636363636,
                "end_time": 38.92045454545455,
                "pitch": 24,
                "velocity": 80,
                "duration": 0.08181818181818556,
                "tempo": 120.0
            },
            {
                "start_time": 39.152272727272724,
                "end_time": 39.23409090909091,
                "pitch": 30,
                "velocity": 80,
                "duration": 0.08181818181818556,
                "tempo": 120.0
            },
            {
                "start_time": 40.08181818181818,
                "end_time": 40.16136363636363,
                "pitch": 36,
                "velocity": 80,
                "duration": 0.07954545454545325,
                "tempo": 120.0
            },
            {
                "start_time": 40.39772727272727,
                "end_time": 40.47954545454545,
                "pitch": 42,
                "velocity": 80,
                "duration": 0.08181818181817846,
                "tempo": 120.0
            },
            {
                "start_time": 40.715909090909086,
                "end_time": 40.8,
                "pitch": 36,
                "velocity": 80,
                "duration": 0.08409090909091077,
                "tempo": 120.0
            },
            {
                "start_time": 41.34772727272727,
                "end_time": 41.43181818181818,
                "pitch": 24,
                "velocity": 80,
                "duration": 0.08409090909091077,
                "tempo": 120.0
            },
            {
                "start_time": 41.66590909090909,
                "end_time": 41.75,
                "pitch": 30,
                "velocity": 80,
                "duration": 0.08409090909091077,
                "tempo": 120.0
            },
            {
                "start_time": 42.59772727272727,
                "end_time": 42.67727272727272,
                "pitch": 36,
                "velocity": 80,
                "duration": 0.07954545454545325,
                "tempo": 120.0
            },
            {
                "start_time": 42.91136363636363,
                "end_time": 42.99318181818182,
                "pitch": 42,
                "velocity": 80,
                "duration": 0.08181818181818556,
                "tempo": 120.0
            },
            {
                "start_time": 43.225,
                "end_time": 43.309090909090905,
                "pitch": 36,
                "velocity": 80,
                "duration": 0.08409090909090366,
                "tempo": 120.0
            },
            {
                "start_time": 43.845454545454544,
                "end_time": 43.929545454545455,
                "pitch": 24,
                "velocity": 80,
                "duration": 0.08409090909091077,
                "tempo": 120.0
            },
            {
                "start_time": 44.168181818181814,
                "end_time": 44.25454545454545,
                "pitch": 30,
                "velocity": 80,
                "duration": 0.08636363636363598,
                "tempo": 120.0
            },
            {
                "start_time": 45.11363636363636,
                "end_time": 45.19318181818181,
                "pitch": 36,
                "velocity": 80,
                "duration": 0.07954545454545325,
                "tempo": 120.0
            },
            {
                "start_time": 45.418181818181814,
                "end_time": 45.49772727272727,
                "pitch": 42,
                "velocity": 80,
                "duration": 0.07954545454545325,
                "tempo": 120.0
            },
            {
                "start_time": 45.72272727272727,
                "end_time": 45.80681818181818,
                "pitch": 36,
                "velocity": 80,
                "duration": 0.08409090909091077,
                "tempo": 120.0
            },
            {
                "start_time": 46.34318181818182,
                "end_time": 46.42727272727272,
                "pitch": 24,
                "velocity": 80,
                "duration": 0.08409090909090366,
                "tempo": 120.0
            },
            {
                "start_time": 46.668181818181814,
                "end_time": 46.752272727272725,
                "pitch": 30,
                "velocity": 80,
                "duration": 0.08409090909091077,
                "tempo": 120.0
            },
            {
                "start_time": 47.60454545454545,
                "end_time": 47.684090909090905,
                "pitch": 36,
                "velocity": 80,
                "duration": 0.07954545454545325,
                "tempo": 120.0
            },
            {
                "start_time": 47.91136363636363,
                "end_time": 47.99318181818182,
                "pitch": 42,
                "velocity": 80,
                "duration": 0.08181818181818556,
                "tempo": 120.0
            },
            {
                "start_time": 48.220454545454544,
                "end_time": 48.304545454545455,
                "pitch": 36,
                "velocity": 80,
                "duration": 0.08409090909091077,
                "tempo": 120.0
            },
            {
                "start_time": 48.85227272727273,
                "end_time": 48.93636363636364,
                "pitch": 24,
                "velocity": 80,
                "duration": 0.08409090909091077,
                "tempo": 120.0
            },
            {
                "start_time": 49.17045454545454,
                "end_time": 49.25454545454545,
                "pitch": 30,
                "velocity": 80,
                "duration": 0.08409090909091077,
                "tempo": 120.0
            }
        ],
        "Electric Piano 1": [
            {
                "start_time": 15.084090909090909,
                "end_time": 15.399999999999999,
                "pitch": 55,
                "velocity": 64,
                "duration": 0.3159090909090896,
                "tempo": 120.0
            },
            {
                "start_time": 15.399999999999999,
                "end_time": 16.336363636363636,
                "pitch": 67,
                "velocity": 64,
                "duration": 0.9363636363636374,
                "tempo": 120.0
            },
            {
                "start_time": 16.336363636363636,
                "end_time": 16.652272727272727,
                "pitch": 67,
                "velocity": 64,
                "duration": 0.31590909090909136,
                "tempo": 120.0
            },
            {
                "start_time": 16.652272727272727,
                "end_time": 17.586363636363636,
                "pitch": 79,
                "velocity": 64,
                "duration": 0.9340909090909086,
                "tempo": 120.0
            },
            {
                "start_time": 17.586363636363636,
                "end_time": 17.9,
                "pitch": 55,
                "velocity": 64,
                "duration": 0.3136363636363626,
                "tempo": 120.0
            },
            {
                "start_time": 17.9,
                "end_time": 18.845454545454544,
                "pitch": 67,
                "velocity": 64,
                "duration": 0.9454545454545453,
                "tempo": 120.0
            },
            {
                "start_time": 18.847727272727273,
                "end_time": 19.154545454545453,
                "pitch": 67,
                "velocity": 64,
                "duration": 0.3068181818181799,
                "tempo": 120.0
            },
            {
                "start_time": 19.154545454545453,
                "end_time": 20.095454545454544,
                "pitch": 79,
                "velocity": 64,
                "duration": 0.9409090909090914,
                "tempo": 120.0
            },
            {
                "start_time": 20.095454545454544,
                "end_time": 20.409090909090907,
                "pitch": 55,
                "velocity": 64,
                "duration": 0.3136363636363626,
                "tempo": 120.0
            },
            {
                "start_time": 20.409090909090907,
                "end_time": 21.34318181818182,
                "pitch": 67,
                "velocity": 64,
                "duration": 0.9340909090909122,
                "tempo": 120.0
            },
            {
                "start_time": 21.34318181818182,
                "end_time": 21.65681818181818,
                "pitch": 67,
                "velocity": 64,
                "duration": 0.3136363636363626,
                "tempo": 120.0
            },
            {
                "start_time": 21.659090909090907,
                "end_time": 22.586363636363636,
                "pitch": 79,
                "velocity": 64,
                "duration": 0.9272727272727295,
                "tempo": 120.0
            },
            {
                "start_time": 22.586363636363636,
                "end_time": 22.902272727272727,
                "pitch": 55,
                "velocity": 64,
                "duration": 0.31590909090909136,
                "tempo": 120.0
            },
            {
                "start_time": 22.902272727272727,
                "end_time": 23.84090909090909,
                "pitch": 67,
                "velocity": 64,
                "duration": 0.9386363636363626,
                "tempo": 120.0
            },
            {
                "start_time": 23.84090909090909,
                "end_time": 24.154545454545453,
                "pitch": 67,
                "velocity": 64,
                "duration": 0.3136363636363626,
                "tempo": 120.0
            },
            {
                "start_time": 24.154545454545453,
                "end_time": 25.081818181818182,
                "pitch": 79,
                "velocity": 64,
                "duration": 0.9272727272727295,
                "tempo": 120.0
            },
            {
                "start_time": 35.1,
                "end_time": 35.413636363636364,
                "pitch": 55,
                "velocity": 64,
                "duration": 0.3136363636363626,
                "tempo": 120.0
            },
            {
                "start_time": 35.413636363636364,
                "end_time": 36.34772727272727,
                "pitch": 67,
                "velocity": 64,
                "duration": 0.9340909090909051,
                "tempo": 120.0
            },
            {
                "start_time": 36.34772727272727,
                "end_time": 36.654545454545456,
                "pitch": 67,
                "velocity": 64,
                "duration": 0.306818181818187,
                "tempo": 120.0
            },
            {
                "start_time": 36.654545454545456,
                "end_time": 37.58409090909091,
                "pitch": 79,
                "velocity": 64,
                "duration": 0.9295454545454547,
                "tempo": 120.0
            },
            {
                "start_time": 37.58409090909091,
                "end_time": 37.9,
                "pitch": 55,
                "velocity": 64,
                "duration": 0.3159090909090878,
                "tempo": 120.0
            },
            {
                "start_time": 37.9,
                "end_time": 38.83863636363636,
                "pitch": 67,
                "velocity": 64,
                "duration": 0.9386363636363626,
                "tempo": 120.0
            },
            {
                "start_time": 38.83863636363636,
                "end_time": 39.152272727272724,
                "pitch": 67,
                "velocity": 64,
                "duration": 0.3136363636363626,
                "tempo": 120.0
            },
            {
                "start_time": 39.152272727272724,
                "end_time": 40.08181818181818,
                "pitch": 79,
                "velocity": 64,
                "duration": 0.9295454545454547,
                "tempo": 120.0
            }
        ]
    }
}