{
    "track_id": "12 Game Over (Namco Logo, The Tower of Druaga)",
    "mood": "sad",
    "instruments": {
        "Harpsichord": [
            {
                "start_time": 0.32045454545454544,
                "end_time": 1.2227272727272727,
                "pitch": 72,
                "velocity": 101,
                "duration": 0.9022727272727272,
                "tempo": 120.0
            },
            {
                "start_time": 1.2227272727272727,
                "end_time": 1.3772727272727272,
                "pitch": 71,
                "velocity": 101,
                "duration": 0.15454545454545454,
                "tempo": 120.0
            },
            {
                "start_time": 1.3772727272727272,
                "end_time": 1.534090909090909,
                "pitch": 71,
                "velocity": 101,
                "duration": 0.15681818181818175,
                "tempo": 120.0
            },
            {
                "start_time": 1.534090909090909,
                "end_time": 1.5499999999999998,
                "pitch": 71,
                "velocity": 101,
                "duration": 0.015909090909090873,
                "tempo": 120.0
            },
            {
                "start_time": 1.5499999999999998,
                "end_time": 2.127272727272727,
                "pitch": 69,
                "velocity": 101,
                "duration": 0.5772727272727272,
                "tempo": 120.0
            },
            {
                "start_time": 2.127272727272727,
                "end_time": 2.4386363636363635,
                "pitch": 74,
                "velocity": 101,
                "duration": 0.3113636363636365,
                "tempo": 120.0
            },
            {
                "start_time": 2.4386363636363635,
                "end_time": 2.7386363636363633,
                "pitch": 74,
                "velocity": 101,
                "duration": 0.2999999999999998,
                "tempo": 120.0
            },
            {
                "start_time": 2.7386363636363633,
                "end_time": 2.8886363636363637,
                "pitch": 71,
                "velocity": 101,
                "duration": 0.15000000000000036,
                "tempo": 120.0
            },
            {
                "start_time": 2.8886363636363637,
                "end_time": 3.0409090909090906,
                "pitch": 71,
                "velocity": 101,
                "duration": 0.1522727272727269,
                "tempo": 120.0
            }
        ],
        "Electric Guitar (clean)": [
            {
                "start_time": 0.0,
                "end_time": 0.9204545454545454,
                "pitch": 48,
                "velocity": 80,
                "duration": 0.9204545454545454,
                "tempo": 120.0
            },
            {
                "start_time": 0.9204545454545454,
                "end_time": 1.2227272727272727,
                "pitch": 47,
                "velocity": 80,
                "duration": 0.30227272727272725,
                "tempo": 120.0
            },
            {
                "start_time": 1.2227272727272727,
                "end_time": 1.8363636363636362,
                "pitch": 50,
                "velocity": 80,
                "duration": 0.6136363636363635,
                "tempo": 120.0
            },
            {
                "start_time": 1.8363636363636362,
                "end_time": 2.127272727272727,
                "pitch": 50,
                "velocity": 80,
                "duration": 0.2909090909090908,
                "tempo": 120.0
            },
            {
                "start_time": 2.127272727272727,
                "end_time": 2.4386363636363635,
                "pitch": 52,
                "velocity": 80,
                "duration": 0.3113636363636365,
                "tempo": 120.0
            },
            {
                "start_time": 2.4386363636363635,
                "end_time": 2.7386363636363633,
                "pitch": 54,
                "velocity": 80,
                "duration": 0.2999999999999998,
                "tempo": 120.0
            }
        ],
        "Vibraphone": [
            {
                "start_time": 0.0,
                "end_time": 0.9204545454545454,
                "pitch": 66,
                "velocity": 101,
                "duration": 0.9204545454545454,
                "tempo": 120.0
            },
            {
                "start_time": 0.9204545454545454,
                "end_time": 1.0727272727272728,
                "pitch": 66,
                "velocity": 101,
                "duration": 0.15227272727272734,
                "tempo": 120.0
            },
            {
                "start_time": 1.0727272727272728,
                "end_time": 1.2227272727272727,
                "pitch": 66,
                "velocity": 101,
                "duration": 0.1499999999999999,
                "tempo": 120.0
            },
            {
                "start_time": 1.2227272727272727,
                "end_time": 1.8363636363636362,
                "pitch": 66,
                "velocity": 101,
                "duration": 0.6136363636363635,
                "tempo": 120.0
            },
            {
                "start_time": 1.8363636363636362,
                "end_time": 2.127272727272727,
                "pitch": 69,
                "velocity": 101,
                "duration": 0.2909090909090908,
                "tempo": 120.0
            },
            {
                "start_time": 2.127272727272727,
                "end_time": 2.4386363636363635,
                "pitch": 69,
                "velocity": 101,
                "duration": 0.3113636363636365,
                "tempo": 120.0
            },
            {
                "start_time": 2.4386363636363635,
                "end_time": 2.5886363636363634,
                "pitch": 66,
                "velocity": 101,
                "duration": 0.1499999999999999,
                "tempo": 120.0
            },
            {
                "start_time": 2.5886363636363634,
                "end_time": 2.7409090909090907,
                "pitch": 66,
                "velocity": 101,
                "duration": 0.15227272727272734,
                "tempo": 120.0
            }
        ],
        "Trumpet": [
            {
                "start_time": 0.0,
                "end_time": 0.9227272727272727,
                "pitch": 71,
                "velocity": 127,
                "duration": 0.9227272727272727,
                "tempo": 120.0
            },
            {
                "start_time": 0.9227272727272727,
                "end_time": 1.0727272727272728,
                "pitch": 71,
                "velocity": 127,
                "duration": 0.15000000000000002,
                "tempo": 120.0
            },
            {
                "start_time": 1.0727272727272728,
                "end_time": 1.2227272727272727,
                "pitch": 71,
                "velocity": 127,
                "duration": 0.1499999999999999,
                "tempo": 120.0
            },
            {
                "start_time": 1.2227272727272727,
                "end_time": 1.8363636363636362,
                "pitch": 71,
                "velocity": 127,
                "duration": 0.6136363636363635,
                "tempo": 120.0
            },
            {
                "start_time": 1.8363636363636362,
                "end_time": 2.1295454545454544,
                "pitch": 74,
                "velocity": 127,
                "duration": 0.2931818181818182,
                "tempo": 120.0
            },
            {
                "start_time": 2.1295454545454544,
                "end_time": 2.4386363636363635,
                "pitch": 74,
                "velocity": 127,
                "duration": 0.3090909090909091,
                "tempo": 120.0
            },
            {
                "start_time": 2.440909090909091,
                "end_time": 2.5886363636363634,
                "pitch": 71,
                "velocity": 127,
                "duration": 0.14772727272727249,
                "tempo": 120.0
            },
            {
                "start_time": 2.5886363636363634,
                "end_time": 2.7409090909090907,
                "pitch": 71,
                "velocity": 127,
                "duration": 0.15227272727272734,
                "tempo": 120.0
            }
        ]
    }
}