{
    "track_id": "12 Ultimate Weapon (Last Boss)",
    "mood": "sad",
    "instruments": {
        "Vibraphone": [
            {
                "start_time": 0.05227272727272727,
                "end_time": 1.3795454545454544,
                "pitch": 45,
                "velocity": 127,
                "duration": 1.3272727272727272,
                "tempo": 120.0
            },
            {
                "start_time": 1.6477272727272727,
                "end_time": 2.9795454545454545,
                "pitch": 45,
                "velocity": 127,
                "duration": 1.3318181818181818,
                "tempo": 120.0
            },
            {
                "start_time": 3.2477272727272726,
                "end_time": 4.579545454545454,
                "pitch": 47,
                "velocity": 127,
                "duration": 1.3318181818181816,
                "tempo": 120.0
            },
            {
                "start_time": 4.847727272727273,
                "end_time": 6.161363636363636,
                "pitch": 47,
                "velocity": 127,
                "duration": 1.3136363636363635,
                "tempo": 120.0
            },
            {
                "start_time": 3.2477272727272726,
                "end_time": 7.756818181818182,
                "pitch": 45,
                "velocity": 127,
                "duration": 4.50909090909091,
                "tempo": 120.0
            },
            {
                "start_time": 6.427272727272727,
                "end_time": 7.756818181818182,
                "pitch": 45,
                "velocity": 127,
                "duration": 1.329545454545455,
                "tempo": 120.0
            },
            {
                "start_time": 8.027272727272727,
                "end_time": 9.34090909090909,
                "pitch": 45,
                "velocity": 127,
                "duration": 1.3136363636363626,
                "tempo": 120.0
            },
            {
                "start_time": 6.427272727272727,
                "end_time": 10.936363636363636,
                "pitch": 47,
                "velocity": 127,
                "duration": 4.509090909090909,
                "tempo": 120.0
            },
            {
                "start_time": 9.604545454545454,
                "end_time": 10.936363636363636,
                "pitch": 47,
                "velocity": 127,
                "duration": 1.331818181818182,
                "tempo": 120.0
            },
            {
                "start_time": 11.204545454545453,
                "end_time": 12.518181818181818,
                "pitch": 47,
                "velocity": 127,
                "duration": 1.3136363636363644,
                "tempo": 120.0
            },
            {
                "start_time": 9.604545454545454,
                "end_time": 14.11590909090909,
                "pitch": 45,
                "velocity": 127,
                "duration": 4.511363636363637,
                "tempo": 120.0
            },
            {
                "start_time": 12.786363636363635,
                "end_time": 14.11590909090909,
                "pitch": 45,
                "velocity": 127,
                "duration": 1.329545454545455,
                "tempo": 120.0
            },
            {
                "start_time": 14.384090909090908,
                "end_time": 15.697727272727272,
                "pitch": 45,
                "velocity": 127,
                "duration": 1.3136363636363644,
                "tempo": 120.0
            },
            {
                "start_time": 12.786363636363635,
                "end_time": 17.293181818181818,
                "pitch": 47,
                "velocity": 127,
                "duration": 4.506818181818183,
                "tempo": 120.0
            },
            {
                "start_time": 15.961363636363636,
                "end_time": 17.293181818181818,
                "pitch": 47,
                "velocity": 127,
                "duration": 1.331818181818182,
                "tempo": 120.0
            },
            {
                "start_time": 17.561363636363634,
                "end_time": 18.875,
                "pitch": 47,
                "velocity": 127,
                "duration": 1.3136363636363662,
                "tempo": 120.0
            },
            {
                "start_time": 15.961363636363636,
                "end_time": 20.472727272727273,
                "pitch": 45,
                "velocity": 127,
                "duration": 4.511363636363637,
                "tempo": 120.0
            },
            {
                "start_time": 19.14090909090909,
                "end_time": 20.472727272727273,
                "pitch": 45,
                "velocity": 127,
                "duration": 1.331818181818182,
                "tempo": 120.0
            },
            {
                "start_time": 20.74090909090909,
                "end_time": 22.054545454545455,
                "pitch": 45,
                "velocity": 127,
                "duration": 1.3136363636363662,
                "tempo": 120.0
            },
            {
                "start_time": 19.14090909090909,
                "end_time": 23.65,
                "pitch": 47,
                "velocity": 127,
                "duration": 4.509090909090908,
                "tempo": 120.0
            },
            {
                "start_time": 22.318181818181817,
                "end_time": 23.65,
                "pitch": 47,
                "velocity": 127,
                "duration": 1.331818181818182,
                "tempo": 120.0
            },
            {
                "start_time": 23.918181818181818,
                "end_time": 25.23181818181818,
                "pitch": 47,
                "velocity": 127,
                "duration": 1.3136363636363626,
                "tempo": 120.0
            }
        ],
        "Acoustic Guitar (nylon)": [
            {
                "start_time": 0.05227272727272727,
                "end_time": 1.3795454545454544,
                "pitch": 43,
                "velocity": 127,
                "duration": 1.3272727272727272,
                "tempo": 120.0
            },
            {
                "start_time": 1.65,
                "end_time": 2.9795454545454545,
                "pitch": 43,
                "velocity": 127,
                "duration": 1.3295454545454546,
                "tempo": 120.0
            },
            {
                "start_time": 3.25,
                "end_time": 4.579545454545454,
                "pitch": 42,
                "velocity": 127,
                "duration": 1.3295454545454541,
                "tempo": 120.0
            },
            {
                "start_time": 4.85,
                "end_time": 6.161363636363636,
                "pitch": 42,
                "velocity": 127,
                "duration": 1.3113636363636365,
                "tempo": 120.0
            },
            {
                "start_time": 6.427272727272727,
                "end_time": 7.759090909090909,
                "pitch": 43,
                "velocity": 127,
                "duration": 1.331818181818182,
                "tempo": 120.0
            },
            {
                "start_time": 8.027272727272727,
                "end_time": 9.34090909090909,
                "pitch": 43,
                "velocity": 127,
                "duration": 1.3136363636363626,
                "tempo": 120.0
            },
            {
                "start_time": 9.60681818181818,
                "end_time": 10.936363636363636,
                "pitch": 43,
                "velocity": 127,
                "duration": 1.329545454545455,
                "tempo": 120.0
            },
            {
                "start_time": 11.206818181818182,
                "end_time": 12.520454545454545,
                "pitch": 44,
                "velocity": 127,
                "duration": 1.3136363636363626,
                "tempo": 120.0
            },
            {
                "start_time": 12.786363636363635,
                "end_time": 14.11590909090909,
                "pitch": 44,
                "velocity": 127,
                "duration": 1.329545454545455,
                "tempo": 120.0
            },
            {
                "start_time": 14.384090909090908,
                "end_time": 15.697727272727272,
                "pitch": 43,
                "velocity": 127,
                "duration": 1.3136363636363644,
                "tempo": 120.0
            },
            {
                "start_time": 3.25,
                "end_time": 15.963636363636363,
                "pitch": 0,
                "velocity": 127,
                "duration": 12.713636363636363,
                "tempo": 120.0
            },
            {
                "start_time": 15.963636363636363,
                "end_time": 17.293181818181818,
                "pitch": 42,
                "velocity": 127,
                "duration": 1.329545454545455,
                "tempo": 120.0
            },
            {
                "start_time": 17.563636363636363,
                "end_time": 18.877272727272725,
                "pitch": 42,
                "velocity": 127,
                "duration": 1.3136363636363626,
                "tempo": 120.0
            },
            {
                "start_time": 6.427272727272727,
                "end_time": 19.14090909090909,
                "pitch": 54,
                "velocity": 127,
                "duration": 12.713636363636365,
                "tempo": 120.0
            },
            {
                "start_time": 19.14090909090909,
                "end_time": 20.472727272727273,
                "pitch": 43,
                "velocity": 127,
                "duration": 1.331818181818182,
                "tempo": 120.0
            },
            {
                "start_time": 20.74090909090909,
                "end_time": 22.054545454545455,
                "pitch": 43,
                "velocity": 127,
                "duration": 1.3136363636363662,
                "tempo": 120.0
            },
            {
                "start_time": 22.320454545454545,
                "end_time": 23.65,
                "pitch": 43,
                "velocity": 127,
                "duration": 1.3295454545454533,
                "tempo": 120.0
            },
            {
                "start_time": 23.920454545454543,
                "end_time": 25.23409090909091,
                "pitch": 44,
                "velocity": 127,
                "duration": 1.3136363636363662,
                "tempo": 120.0
            }
        ],
        "Acoustic Grand Piano": [
            {
                "start_time": 0.05454545454545454,
                "end_time": 2.7136363636363634,
                "pitch": 29,
                "velocity": 127,
                "duration": 2.6590909090909087,
                "tempo": 120.0
            },
            {
                "start_time": 3.25,
                "end_time": 5.8977272727272725,
                "pitch": 33,
                "velocity": 127,
                "duration": 2.6477272727272725,
                "tempo": 120.0
            },
            {
                "start_time": 3.25,
                "end_time": 9.60681818181818,
                "pitch": 42,
                "velocity": 127,
                "duration": 6.356818181818181,
                "tempo": 120.0
            },
            {
                "start_time": 9.60681818181818,
                "end_time": 12.254545454545454,
                "pitch": 33,
                "velocity": 127,
                "duration": 2.6477272727272734,
                "tempo": 120.0
            },
            {
                "start_time": 9.60681818181818,
                "end_time": 15.963636363636363,
                "pitch": 42,
                "velocity": 127,
                "duration": 6.356818181818182,
                "tempo": 120.0
            },
            {
                "start_time": 15.963636363636363,
                "end_time": 18.611363636363635,
                "pitch": 33,
                "velocity": 127,
                "duration": 2.6477272727272716,
                "tempo": 120.0
            },
            {
                "start_time": 15.963636363636363,
                "end_time": 22.320454545454545,
                "pitch": 42,
                "velocity": 127,
                "duration": 6.356818181818182,
                "tempo": 120.0
            },
            {
                "start_time": 22.320454545454545,
                "end_time": 24.96818181818182,
                "pitch": 33,
                "velocity": 127,
                "duration": 2.6477272727272734,
                "tempo": 120.0
            }
        ]
    }
}