{
    "track_id": "15 Spanish Communist Party",
    "mood": "sad",
    "instruments": {
        "Clarinet": [
            {
                "start_time": 2.125,
                "end_time": 2.7772727272727273,
                "pitch": 55,
                "velocity": 127,
                "duration": 0.6522727272727273,
                "tempo": 120.0
            },
            {
                "start_time": 4.259090909090909,
                "end_time": 5.6477272727272725,
                "pitch": 50,
                "velocity": 127,
                "duration": 1.3886363636363637,
                "tempo": 120.0
            },
            {
                "start_time": 5.699999999999999,
                "end_time": 11.379545454545454,
                "pitch": 52,
                "velocity": 127,
                "duration": 5.679545454545455,
                "tempo": 120.0
            },
            {
                "start_time": 11.413636363636362,
                "end_time": 13.522727272727272,
                "pitch": 52,
                "velocity": 127,
                "duration": 2.1090909090909093,
                "tempo": 120.0
            },
            {
                "start_time": 2.125,
                "end_time": 13.556818181818182,
                "pitch": 66,
                "velocity": 127,
                "duration": 11.431818181818182,
                "tempo": 120.0
            },
            {
                "start_time": 13.556818181818182,
                "end_time": 14.218181818181817,
                "pitch": 55,
                "velocity": 127,
                "duration": 0.6613636363636353,
                "tempo": 120.0
            },
            {
                "start_time": 14.268181818181818,
                "end_time": 15.334090909090909,
                "pitch": 55,
                "velocity": 127,
                "duration": 1.0659090909090914,
                "tempo": 120.0
            },
            {
                "start_time": 15.334090909090909,
                "end_time": 15.634090909090908,
                "pitch": 57,
                "velocity": 127,
                "duration": 0.29999999999999893,
                "tempo": 120.0
            },
            {
                "start_time": 4.259090909090909,
                "end_time": 17.05,
                "pitch": 54,
                "velocity": 127,
                "duration": 12.790909090909093,
                "tempo": 120.0
            },
            {
                "start_time": 15.7,
                "end_time": 17.05,
                "pitch": 54,
                "velocity": 127,
                "duration": 1.3500000000000014,
                "tempo": 120.0
            },
            {
                "start_time": 17.11590909090909,
                "end_time": 18.263636363636362,
                "pitch": 54,
                "velocity": 127,
                "duration": 1.1477272727272734,
                "tempo": 120.0
            },
            {
                "start_time": 18.263636363636362,
                "end_time": 22.804545454545455,
                "pitch": 52,
                "velocity": 127,
                "duration": 4.540909090909093,
                "tempo": 120.0
            },
            {
                "start_time": 13.556818181818182,
                "end_time": 23.549999999999997,
                "pitch": 66,
                "velocity": 127,
                "duration": 9.993181818181816,
                "tempo": 120.0
            },
            {
                "start_time": 23.549999999999997,
                "end_time": 23.868181818181817,
                "pitch": 57,
                "velocity": 127,
                "duration": 0.3181818181818201,
                "tempo": 120.0
            },
            {
                "start_time": 15.7,
                "end_time": 23.902272727272727,
                "pitch": 20,
                "velocity": 127,
                "duration": 8.202272727272728,
                "tempo": 120.0
            },
            {
                "start_time": 23.902272727272727,
                "end_time": 24.236363636363635,
                "pitch": 54,
                "velocity": 127,
                "duration": 0.3340909090909072,
                "tempo": 120.0
            },
            {
                "start_time": 24.270454545454545,
                "end_time": 24.93181818181818,
                "pitch": 55,
                "velocity": 127,
                "duration": 0.6613636363636353,
                "tempo": 120.0
            },
            {
                "start_time": 25.347727272727273,
                "end_time": 26.013636363636362,
                "pitch": 52,
                "velocity": 127,
                "duration": 0.6659090909090892,
                "tempo": 120.0
            },
            {
                "start_time": 5.699999999999999,
                "end_time": 26.38181818181818,
                "pitch": 50,
                "velocity": 127,
                "duration": 20.68181818181818,
                "tempo": 120.0
            },
            {
                "start_time": 26.045454545454543,
                "end_time": 26.38181818181818,
                "pitch": 50,
                "velocity": 127,
                "duration": 0.336363636363636,
                "tempo": 120.0
            },
            {
                "start_time": 26.41590909090909,
                "end_time": 26.736363636363635,
                "pitch": 52,
                "velocity": 127,
                "duration": 0.3204545454545453,
                "tempo": 120.0
            },
            {
                "start_time": 26.770454545454545,
                "end_time": 27.093181818181815,
                "pitch": 48,
                "velocity": 127,
                "duration": 0.32272727272727053,
                "tempo": 120.0
            },
            {
                "start_time": 27.127272727272725,
                "end_time": 27.77272727272727,
                "pitch": 48,
                "velocity": 127,
                "duration": 0.6454545454545446,
                "tempo": 120.0
            },
            {
                "start_time": 26.41590909090909,
                "end_time": 27.83863636363636,
                "pitch": 50,
                "velocity": 127,
                "duration": 1.422727272727272,
                "tempo": 120.0
            },
            {
                "start_time": 26.045454545454543,
                "end_time": 28.49090909090909,
                "pitch": 54,
                "velocity": 127,
                "duration": 2.4454545454545453,
                "tempo": 120.0
            },
            {
                "start_time": 27.83863636363636,
                "end_time": 28.49090909090909,
                "pitch": 54,
                "velocity": 127,
                "duration": 0.6522727272727273,
                "tempo": 120.0
            },
            {
                "start_time": 24.270454545454545,
                "end_time": 29.261363636363637,
                "pitch": 67,
                "velocity": 127,
                "duration": 4.990909090909092,
                "tempo": 120.0
            },
            {
                "start_time": 29.261363636363637,
                "end_time": 29.597727272727273,
                "pitch": 57,
                "velocity": 127,
                "duration": 0.336363636363636,
                "tempo": 120.0
            },
            {
                "start_time": 23.902272727272727,
                "end_time": 29.63181818181818,
                "pitch": 20,
                "velocity": 127,
                "duration": 5.729545454545452,
                "tempo": 120.0
            },
            {
                "start_time": 29.63181818181818,
                "end_time": 29.94772727272727,
                "pitch": 54,
                "velocity": 127,
                "duration": 0.31590909090909136,
                "tempo": 120.0
            },
            {
                "start_time": 29.261363636363637,
                "end_time": 29.98181818181818,
                "pitch": 67,
                "velocity": 127,
                "duration": 0.7204545454545439,
                "tempo": 120.0
            },
            {
                "start_time": 29.98181818181818,
                "end_time": 30.636363636363633,
                "pitch": 55,
                "velocity": 127,
                "duration": 0.6545454545454525,
                "tempo": 120.0
            },
            {
                "start_time": 26.770454545454545,
                "end_time": 31.745454545454542,
                "pitch": 52,
                "velocity": 127,
                "duration": 4.974999999999998,
                "tempo": 120.0
            },
            {
                "start_time": 31.05909090909091,
                "end_time": 31.745454545454542,
                "pitch": 52,
                "velocity": 127,
                "duration": 0.6863636363636338,
                "tempo": 120.0
            },
            {
                "start_time": 27.83863636363636,
                "end_time": 32.09318181818182,
                "pitch": 50,
                "velocity": 127,
                "duration": 4.2545454545454575,
                "tempo": 120.0
            },
            {
                "start_time": 31.779545454545453,
                "end_time": 32.09318181818182,
                "pitch": 50,
                "velocity": 127,
                "duration": 0.31363636363636616,
                "tempo": 120.0
            },
            {
                "start_time": 32.127272727272725,
                "end_time": 32.44772727272727,
                "pitch": 52,
                "velocity": 127,
                "duration": 0.3204545454545453,
                "tempo": 120.0
            },
            {
                "start_time": 32.48181818181818,
                "end_time": 32.820454545454545,
                "pitch": 48,
                "velocity": 127,
                "duration": 0.3386363636363683,
                "tempo": 120.0
            },
            {
                "start_time": 32.85454545454545,
                "end_time": 33.50909090909091,
                "pitch": 48,
                "velocity": 127,
                "duration": 0.6545454545454561,
                "tempo": 120.0
            },
            {
                "start_time": 33.559090909090905,
                "end_time": 34.20454545454545,
                "pitch": 45,
                "velocity": 127,
                "duration": 0.6454545454545482,
                "tempo": 120.0
            }
        ],
        "Electric Guitar (clean)": [
            {
                "start_time": 1.4136363636363636,
                "end_time": 2.7772727272727273,
                "pitch": 33,
                "velocity": 127,
                "duration": 1.3636363636363638,
                "tempo": 120.0
            },
            {
                "start_time": 2.8454545454545452,
                "end_time": 4.193181818181818,
                "pitch": 33,
                "velocity": 127,
                "duration": 1.347727272727273,
                "tempo": 120.0
            },
            {
                "start_time": 4.259090909090909,
                "end_time": 4.581818181818182,
                "pitch": 33,
                "velocity": 127,
                "duration": 0.3227272727272732,
                "tempo": 120.0
            },
            {
                "start_time": 4.61590909090909,
                "end_time": 4.954545454545454,
                "pitch": 33,
                "velocity": 127,
                "duration": 0.33863636363636385,
                "tempo": 120.0
            },
            {
                "start_time": 4.988636363636363,
                "end_time": 5.309090909090909,
                "pitch": 33,
                "velocity": 127,
                "duration": 0.3204545454545453,
                "tempo": 120.0
            },
            {
                "start_time": 5.343181818181818,
                "end_time": 5.665909090909091,
                "pitch": 33,
                "velocity": 127,
                "duration": 0.3227272727272732,
                "tempo": 120.0
            },
            {
                "start_time": 5.699999999999999,
                "end_time": 7.0636363636363635,
                "pitch": 33,
                "velocity": 127,
                "duration": 1.3636363636363642,
                "tempo": 120.0
            },
            {
                "start_time": 7.131818181818182,
                "end_time": 8.479545454545454,
                "pitch": 33,
                "velocity": 127,
                "duration": 1.3477272727272718,
                "tempo": 120.0
            },
            {
                "start_time": 8.545454545454545,
                "end_time": 9.934090909090909,
                "pitch": 33,
                "velocity": 127,
                "duration": 1.3886363636363637,
                "tempo": 120.0
            },
            {
                "start_time": 9.98409090909091,
                "end_time": 10.311363636363636,
                "pitch": 33,
                "velocity": 127,
                "duration": 0.32727272727272627,
                "tempo": 120.0
            },
            {
                "start_time": 10.343181818181817,
                "end_time": 10.654545454545454,
                "pitch": 33,
                "velocity": 127,
                "duration": 0.3113636363636374,
                "tempo": 120.0
            },
            {
                "start_time": 10.686363636363636,
                "end_time": 11.009090909090908,
                "pitch": 33,
                "velocity": 127,
                "duration": 0.3227272727272723,
                "tempo": 120.0
            },
            {
                "start_time": 11.043181818181818,
                "end_time": 11.381818181818181,
                "pitch": 33,
                "velocity": 127,
                "duration": 0.33863636363636296,
                "tempo": 120.0
            },
            {
                "start_time": 11.415909090909091,
                "end_time": 12.772727272727272,
                "pitch": 33,
                "velocity": 127,
                "duration": 1.3568181818181806,
                "tempo": 120.0
            },
            {
                "start_time": 12.838636363636363,
                "end_time": 14.218181818181817,
                "pitch": 33,
                "velocity": 127,
                "duration": 1.379545454545454,
                "tempo": 120.0
            },
            {
                "start_time": 14.270454545454545,
                "end_time": 15.634090909090908,
                "pitch": 33,
                "velocity": 127,
                "duration": 1.3636363636363633,
                "tempo": 120.0
            },
            {
                "start_time": 15.702272727272726,
                "end_time": 16.022727272727273,
                "pitch": 33,
                "velocity": 127,
                "duration": 0.3204545454545471,
                "tempo": 120.0
            },
            {
                "start_time": 16.05681818181818,
                "end_time": 16.379545454545454,
                "pitch": 33,
                "velocity": 127,
                "duration": 0.3227272727272741,
                "tempo": 120.0
            },
            {
                "start_time": 16.413636363636364,
                "end_time": 16.738636363636363,
                "pitch": 33,
                "velocity": 127,
                "duration": 0.3249999999999993,
                "tempo": 120.0
            },
            {
                "start_time": 16.772727272727273,
                "end_time": 17.084090909090907,
                "pitch": 33,
                "velocity": 127,
                "duration": 0.31136363636363384,
                "tempo": 120.0
            },
            {
                "start_time": 17.11590909090909,
                "end_time": 18.49772727272727,
                "pitch": 33,
                "velocity": 127,
                "duration": 1.3818181818181827,
                "tempo": 120.0
            },
            {
                "start_time": 18.547727272727272,
                "end_time": 19.918181818181818,
                "pitch": 33,
                "velocity": 127,
                "duration": 1.370454545454546,
                "tempo": 120.0
            },
            {
                "start_time": 19.986363636363635,
                "end_time": 21.334090909090907,
                "pitch": 33,
                "velocity": 127,
                "duration": 1.3477272727272727,
                "tempo": 120.0
            },
            {
                "start_time": 21.4,
                "end_time": 21.720454545454544,
                "pitch": 33,
                "velocity": 127,
                "duration": 0.3204545454545453,
                "tempo": 120.0
            },
            {
                "start_time": 21.754545454545454,
                "end_time": 22.09318181818182,
                "pitch": 33,
                "velocity": 127,
                "duration": 0.33863636363636473,
                "tempo": 120.0
            },
            {
                "start_time": 22.127272727272725,
                "end_time": 22.45,
                "pitch": 33,
                "velocity": 127,
                "duration": 0.3227272727272741,
                "tempo": 120.0
            },
            {
                "start_time": 22.48409090909091,
                "end_time": 22.804545454545455,
                "pitch": 33,
                "velocity": 127,
                "duration": 0.3204545454545453,
                "tempo": 120.0
            },
            {
                "start_time": 22.83863636363636,
                "end_time": 24.204545454545453,
                "pitch": 33,
                "velocity": 127,
                "duration": 1.365909090909092,
                "tempo": 120.0
            },
            {
                "start_time": 24.270454545454545,
                "end_time": 25.627272727272725,
                "pitch": 33,
                "velocity": 127,
                "duration": 1.3568181818181806,
                "tempo": 120.0
            },
            {
                "start_time": 25.695454545454545,
                "end_time": 27.075,
                "pitch": 33,
                "velocity": 127,
                "duration": 1.379545454545454,
                "tempo": 120.0
            },
            {
                "start_time": 27.127272727272725,
                "end_time": 27.456818181818182,
                "pitch": 33,
                "velocity": 127,
                "duration": 0.3295454545454568,
                "tempo": 120.0
            },
            {
                "start_time": 27.49090909090909,
                "end_time": 27.804545454545455,
                "pitch": 33,
                "velocity": 127,
                "duration": 0.31363636363636616,
                "tempo": 120.0
            },
            {
                "start_time": 27.83863636363636,
                "end_time": 28.15681818181818,
                "pitch": 33,
                "velocity": 127,
                "duration": 0.3181818181818201,
                "tempo": 120.0
            },
            {
                "start_time": 28.190909090909088,
                "end_time": 28.525,
                "pitch": 33,
                "velocity": 127,
                "duration": 0.33409090909091077,
                "tempo": 120.0
            },
            {
                "start_time": 28.55909090909091,
                "end_time": 29.91590909090909,
                "pitch": 33,
                "velocity": 127,
                "duration": 1.3568181818181806,
                "tempo": 120.0
            },
            {
                "start_time": 29.98181818181818,
                "end_time": 31.363636363636363,
                "pitch": 33,
                "velocity": 127,
                "duration": 1.3818181818181827,
                "tempo": 120.0
            },
            {
                "start_time": 31.41590909090909,
                "end_time": 32.78636363636363,
                "pitch": 33,
                "velocity": 127,
                "duration": 1.3704545454545425,
                "tempo": 120.0
            },
            {
                "start_time": 32.85454545454545,
                "end_time": 33.17272727272727,
                "pitch": 33,
                "velocity": 127,
                "duration": 0.3181818181818201,
                "tempo": 120.0
            },
            {
                "start_time": 33.20681818181818,
                "end_time": 33.525,
                "pitch": 33,
                "velocity": 127,
                "duration": 0.3181818181818201,
                "tempo": 120.0
            },
            {
                "start_time": 33.559090909090905,
                "end_time": 33.888636363636365,
                "pitch": 33,
                "velocity": 127,
                "duration": 0.32954545454546036,
                "tempo": 120.0
            },
            {
                "start_time": 33.92272727272727,
                "end_time": 34.236363636363635,
                "pitch": 33,
                "velocity": 127,
                "duration": 0.3136363636363626,
                "tempo": 120.0
            },
            {
                "start_time": 34.27045454545454,
                "end_time": 34.97954545454545,
                "pitch": 33,
                "velocity": 127,
                "duration": 0.7090909090909108,
                "tempo": 120.0
            }
        ],
        "Church Organ": [
            {
                "start_time": 0.0,
                "end_time": 0.65,
                "pitch": 60,
                "velocity": 127,
                "duration": 0.65,
                "tempo": 120.0
            },
            {
                "start_time": 0.7181818181818181,
                "end_time": 1.3636363636363635,
                "pitch": 60,
                "velocity": 127,
                "duration": 0.6454545454545454,
                "tempo": 120.0
            },
            {
                "start_time": 1.4136363636363636,
                "end_time": 2.059090909090909,
                "pitch": 60,
                "velocity": 127,
                "duration": 0.6454545454545455,
                "tempo": 120.0
            },
            {
                "start_time": 2.125,
                "end_time": 2.7772727272727273,
                "pitch": 60,
                "velocity": 101,
                "duration": 0.6522727272727273,
                "tempo": 120.0
            },
            {
                "start_time": 2.8454545454545452,
                "end_time": 3.5045454545454544,
                "pitch": 62,
                "velocity": 127,
                "duration": 0.6590909090909092,
                "tempo": 120.0
            },
            {
                "start_time": 3.5568181818181817,
                "end_time": 4.193181818181818,
                "pitch": 62,
                "velocity": 127,
                "duration": 0.6363636363636367,
                "tempo": 120.0
            },
            {
                "start_time": 4.259090909090909,
                "end_time": 4.920454545454545,
                "pitch": 62,
                "velocity": 127,
                "duration": 0.6613636363636362,
                "tempo": 120.0
            },
            {
                "start_time": 4.988636363636363,
                "end_time": 5.6499999999999995,
                "pitch": 62,
                "velocity": 101,
                "duration": 0.6613636363636362,
                "tempo": 120.0
            },
            {
                "start_time": 2.8454545454545452,
                "end_time": 6.345454545454545,
                "pitch": 60,
                "velocity": 127,
                "duration": 3.4999999999999996,
                "tempo": 120.0
            },
            {
                "start_time": 5.699999999999999,
                "end_time": 6.345454545454545,
                "pitch": 60,
                "velocity": 127,
                "duration": 0.6454545454545455,
                "tempo": 120.0
            },
            {
                "start_time": 6.411363636363636,
                "end_time": 7.0636363636363635,
                "pitch": 60,
                "velocity": 127,
                "duration": 0.6522727272727273,
                "tempo": 120.0
            },
            {
                "start_time": 7.131818181818182,
                "end_time": 7.79090909090909,
                "pitch": 60,
                "velocity": 127,
                "duration": 0.6590909090909083,
                "tempo": 120.0
            },
            {
                "start_time": 7.843181818181818,
                "end_time": 8.479545454545454,
                "pitch": 60,
                "velocity": 101,
                "duration": 0.6363636363636358,
                "tempo": 120.0
            },
            {
                "start_time": 11.415909090909091,
                "end_time": 12.075,
                "pitch": 60,
                "velocity": 127,
                "duration": 0.6590909090909083,
                "tempo": 120.0
            },
            {
                "start_time": 12.127272727272727,
                "end_time": 12.772727272727272,
                "pitch": 60,
                "velocity": 127,
                "duration": 0.6454545454545446,
                "tempo": 120.0
            },
            {
                "start_time": 12.838636363636363,
                "end_time": 13.49090909090909,
                "pitch": 60,
                "velocity": 127,
                "duration": 0.6522727272727273,
                "tempo": 120.0
            },
            {
                "start_time": 13.559090909090909,
                "end_time": 14.218181818181817,
                "pitch": 60,
                "velocity": 101,
                "duration": 0.6590909090909083,
                "tempo": 120.0
            },
            {
                "start_time": 5.699999999999999,
                "end_time": 14.913636363636362,
                "pitch": 62,
                "velocity": 127,
                "duration": 9.213636363636363,
                "tempo": 120.0
            },
            {
                "start_time": 14.270454545454545,
                "end_time": 14.913636363636362,
                "pitch": 62,
                "velocity": 127,
                "duration": 0.6431818181818176,
                "tempo": 120.0
            },
            {
                "start_time": 14.98181818181818,
                "end_time": 15.634090909090908,
                "pitch": 62,
                "velocity": 127,
                "duration": 0.6522727272727273,
                "tempo": 120.0
            },
            {
                "start_time": 15.702272727272726,
                "end_time": 16.361363636363635,
                "pitch": 62,
                "velocity": 127,
                "duration": 0.6590909090909083,
                "tempo": 120.0
            },
            {
                "start_time": 16.413636363636364,
                "end_time": 17.05,
                "pitch": 62,
                "velocity": 101,
                "duration": 0.6363636363636367,
                "tempo": 120.0
            },
            {
                "start_time": 14.270454545454545,
                "end_time": 17.777272727272727,
                "pitch": 60,
                "velocity": 127,
                "duration": 3.5068181818181827,
                "tempo": 120.0
            },
            {
                "start_time": 17.11590909090909,
                "end_time": 17.777272727272727,
                "pitch": 60,
                "velocity": 127,
                "duration": 0.6613636363636388,
                "tempo": 120.0
            },
            {
                "start_time": 17.845454545454544,
                "end_time": 18.49772727272727,
                "pitch": 60,
                "velocity": 127,
                "duration": 0.6522727272727273,
                "tempo": 120.0
            },
            {
                "start_time": 18.547727272727272,
                "end_time": 19.193181818181817,
                "pitch": 60,
                "velocity": 127,
                "duration": 0.6454545454545446,
                "tempo": 120.0
            },
            {
                "start_time": 19.259090909090908,
                "end_time": 19.918181818181818,
                "pitch": 60,
                "velocity": 101,
                "duration": 0.6590909090909101,
                "tempo": 120.0
            },
            {
                "start_time": 22.83863636363636,
                "end_time": 22.84090909090909,
                "pitch": 60,
                "velocity": 127,
                "duration": 0.0022727272727287584,
                "tempo": 120.0
            },
            {
                "start_time": 22.84090909090909,
                "end_time": 23.48409090909091,
                "pitch": 64,
                "velocity": 127,
                "duration": 0.6431818181818194,
                "tempo": 120.0
            },
            {
                "start_time": 23.552272727272726,
                "end_time": 24.204545454545453,
                "pitch": 64,
                "velocity": 127,
                "duration": 0.6522727272727273,
                "tempo": 120.0
            },
            {
                "start_time": 24.27272727272727,
                "end_time": 24.93181818181818,
                "pitch": 64,
                "velocity": 127,
                "duration": 0.6590909090909101,
                "tempo": 120.0
            },
            {
                "start_time": 24.98409090909091,
                "end_time": 25.629545454545454,
                "pitch": 64,
                "velocity": 101,
                "duration": 0.6454545454545446,
                "tempo": 120.0
            },
            {
                "start_time": 28.55909090909091,
                "end_time": 29.211363636363636,
                "pitch": 64,
                "velocity": 127,
                "duration": 0.6522727272727273,
                "tempo": 120.0
            },
            {
                "start_time": 29.263636363636362,
                "end_time": 29.91590909090909,
                "pitch": 64,
                "velocity": 127,
                "duration": 0.6522727272727273,
                "tempo": 120.0
            },
            {
                "start_time": 29.98409090909091,
                "end_time": 30.636363636363633,
                "pitch": 64,
                "velocity": 127,
                "duration": 0.6522727272727238,
                "tempo": 120.0
            },
            {
                "start_time": 30.702272727272724,
                "end_time": 31.363636363636363,
                "pitch": 64,
                "velocity": 101,
                "duration": 0.6613636363636388,
                "tempo": 120.0
            },
            {
                "start_time": 34.27045454545454,
                "end_time": 34.92272727272727,
                "pitch": 60,
                "velocity": 127,
                "duration": 0.6522727272727309,
                "tempo": 120.0
            }
        ]
    }
}