{
    "track_id": "15 Unused 1",
    "mood": "sad",
    "instruments": {
        "Electric Piano 1": [
            {
                "start_time": 0.0,
                "end_time": 0.10909090909090909,
                "pitch": 71,
                "velocity": 127,
                "duration": 0.10909090909090909,
                "tempo": 120.0
            },
            {
                "start_time": 0.10909090909090909,
                "end_time": 0.20681818181818182,
                "pitch": 82,
                "velocity": 127,
                "duration": 0.09772727272727273,
                "tempo": 120.0
            },
            {
                "start_time": 0.20681818181818182,
                "end_time": 0.30227272727272725,
                "pitch": 71,
                "velocity": 127,
                "duration": 0.09545454545454543,
                "tempo": 120.0
            },
            {
                "start_time": 0.30227272727272725,
                "end_time": 0.4159090909090909,
                "pitch": 82,
                "velocity": 127,
                "duration": 0.11363636363636365,
                "tempo": 120.0
            },
            {
                "start_time": 0.4159090909090909,
                "end_time": 0.5499999999999999,
                "pitch": 70,
                "velocity": 127,
                "duration": 0.13409090909090904,
                "tempo": 120.0
            },
            {
                "start_time": 0.5499999999999999,
                "end_time": 0.6863636363636363,
                "pitch": 83,
                "velocity": 127,
                "duration": 0.13636363636363635,
                "tempo": 120.0
            },
            {
                "start_time": 0.6863636363636363,
                "end_time": 0.8227272727272726,
                "pitch": 70,
                "velocity": 127,
                "duration": 0.13636363636363635,
                "tempo": 120.0
            },
            {
                "start_time": 0.8227272727272726,
                "end_time": 0.9772727272727272,
                "pitch": 82,
                "velocity": 127,
                "duration": 0.15454545454545454,
                "tempo": 120.0
            },
            {
                "start_time": 0.9772727272727272,
                "end_time": 1.1090909090909091,
                "pitch": 71,
                "velocity": 127,
                "duration": 0.13181818181818195,
                "tempo": 120.0
            },
            {
                "start_time": 0.30227272727272725,
                "end_time": 1.1090909090909091,
                "pitch": 84,
                "velocity": 127,
                "duration": 0.8068181818181819,
                "tempo": 120.0
            },
            {
                "start_time": 1.1090909090909091,
                "end_time": 1.2431818181818182,
                "pitch": 82,
                "velocity": 127,
                "duration": 0.13409090909090904,
                "tempo": 120.0
            },
            {
                "start_time": 1.2431818181818182,
                "end_time": 1.3772727272727272,
                "pitch": 70,
                "velocity": 127,
                "duration": 0.13409090909090904,
                "tempo": 120.0
            },
            {
                "start_time": 0.6863636363636363,
                "end_time": 1.5272727272727271,
                "pitch": 72,
                "velocity": 127,
                "duration": 0.8409090909090908,
                "tempo": 120.0
            },
            {
                "start_time": 1.3772727272727272,
                "end_time": 1.5272727272727271,
                "pitch": 83,
                "velocity": 127,
                "duration": 0.1499999999999999,
                "tempo": 120.0
            },
            {
                "start_time": 1.5272727272727271,
                "end_time": 1.6613636363636364,
                "pitch": 70,
                "velocity": 127,
                "duration": 0.13409090909090926,
                "tempo": 120.0
            },
            {
                "start_time": 1.6613636363636364,
                "end_time": 1.7954545454545454,
                "pitch": 82,
                "velocity": 127,
                "duration": 0.13409090909090904,
                "tempo": 120.0
            },
            {
                "start_time": 1.7954545454545454,
                "end_time": 1.9272727272727272,
                "pitch": 71,
                "velocity": 127,
                "duration": 0.13181818181818183,
                "tempo": 120.0
            },
            {
                "start_time": 1.1090909090909091,
                "end_time": 1.9272727272727272,
                "pitch": 84,
                "velocity": 127,
                "duration": 0.8181818181818181,
                "tempo": 120.0
            },
            {
                "start_time": 1.9272727272727272,
                "end_time": 2.0795454545454546,
                "pitch": 82,
                "velocity": 127,
                "duration": 0.15227272727272734,
                "tempo": 120.0
            },
            {
                "start_time": 2.0795454545454546,
                "end_time": 2.2136363636363634,
                "pitch": 70,
                "velocity": 127,
                "duration": 0.13409090909090882,
                "tempo": 120.0
            },
            {
                "start_time": 1.5272727272727271,
                "end_time": 2.352272727272727,
                "pitch": 72,
                "velocity": 127,
                "duration": 0.825,
                "tempo": 120.0
            },
            {
                "start_time": 2.2136363636363634,
                "end_time": 2.352272727272727,
                "pitch": 83,
                "velocity": 127,
                "duration": 0.13863636363636367,
                "tempo": 120.0
            },
            {
                "start_time": 2.352272727272727,
                "end_time": 2.4863636363636363,
                "pitch": 70,
                "velocity": 127,
                "duration": 0.13409090909090926,
                "tempo": 120.0
            },
            {
                "start_time": 2.4863636363636363,
                "end_time": 2.6409090909090907,
                "pitch": 82,
                "velocity": 127,
                "duration": 0.15454545454545432,
                "tempo": 120.0
            },
            {
                "start_time": 2.6409090909090907,
                "end_time": 2.7704545454545455,
                "pitch": 71,
                "velocity": 127,
                "duration": 0.12954545454545485,
                "tempo": 120.0
            },
            {
                "start_time": 1.9272727272727272,
                "end_time": 2.7704545454545455,
                "pitch": 84,
                "velocity": 127,
                "duration": 0.8431818181818183,
                "tempo": 120.0
            },
            {
                "start_time": 2.7704545454545455,
                "end_time": 2.9022727272727273,
                "pitch": 82,
                "velocity": 127,
                "duration": 0.13181818181818183,
                "tempo": 120.0
            },
            {
                "start_time": 2.9022727272727273,
                "end_time": 3.0340909090909087,
                "pitch": 70,
                "velocity": 127,
                "duration": 0.1318181818181814,
                "tempo": 120.0
            },
            {
                "start_time": 2.352272727272727,
                "end_time": 3.1818181818181817,
                "pitch": 72,
                "velocity": 127,
                "duration": 0.8295454545454546,
                "tempo": 120.0
            },
            {
                "start_time": 3.0340909090909087,
                "end_time": 3.1818181818181817,
                "pitch": 83,
                "velocity": 127,
                "duration": 0.14772727272727293,
                "tempo": 120.0
            },
            {
                "start_time": 3.1818181818181817,
                "end_time": 3.315909090909091,
                "pitch": 70,
                "velocity": 127,
                "duration": 0.13409090909090926,
                "tempo": 120.0
            },
            {
                "start_time": 3.315909090909091,
                "end_time": 3.4499999999999997,
                "pitch": 82,
                "velocity": 127,
                "duration": 0.13409090909090882,
                "tempo": 120.0
            },
            {
                "start_time": 3.4499999999999997,
                "end_time": 3.5818181818181816,
                "pitch": 71,
                "velocity": 127,
                "duration": 0.13181818181818183,
                "tempo": 120.0
            },
            {
                "start_time": 2.7704545454545455,
                "end_time": 3.5818181818181816,
                "pitch": 84,
                "velocity": 127,
                "duration": 0.8113636363636361,
                "tempo": 120.0
            },
            {
                "start_time": 3.5818181818181816,
                "end_time": 3.7318181818181815,
                "pitch": 82,
                "velocity": 127,
                "duration": 0.1499999999999999,
                "tempo": 120.0
            },
            {
                "start_time": 3.7318181818181815,
                "end_time": 3.8659090909090907,
                "pitch": 70,
                "velocity": 127,
                "duration": 0.13409090909090926,
                "tempo": 120.0
            },
            {
                "start_time": 3.1818181818181817,
                "end_time": 4.0,
                "pitch": 72,
                "velocity": 127,
                "duration": 0.8181818181818183,
                "tempo": 120.0
            },
            {
                "start_time": 3.8659090909090907,
                "end_time": 4.0,
                "pitch": 83,
                "velocity": 127,
                "duration": 0.13409090909090926,
                "tempo": 120.0
            },
            {
                "start_time": 4.0,
                "end_time": 4.134090909090909,
                "pitch": 70,
                "velocity": 127,
                "duration": 0.13409090909090882,
                "tempo": 120.0
            },
            {
                "start_time": 4.134090909090909,
                "end_time": 4.284090909090909,
                "pitch": 82,
                "velocity": 127,
                "duration": 0.15000000000000036,
                "tempo": 120.0
            },
            {
                "start_time": 4.284090909090909,
                "end_time": 4.418181818181818,
                "pitch": 71,
                "velocity": 127,
                "duration": 0.13409090909090882,
                "tempo": 120.0
            },
            {
                "start_time": 3.5818181818181816,
                "end_time": 4.418181818181818,
                "pitch": 84,
                "velocity": 127,
                "duration": 0.8363636363636364,
                "tempo": 120.0
            },
            {
                "start_time": 4.418181818181818,
                "end_time": 4.552272727272727,
                "pitch": 82,
                "velocity": 127,
                "duration": 0.13409090909090882,
                "tempo": 120.0
            },
            {
                "start_time": 4.552272727272727,
                "end_time": 4.702272727272727,
                "pitch": 70,
                "velocity": 127,
                "duration": 0.15000000000000036,
                "tempo": 120.0
            },
            {
                "start_time": 4.0,
                "end_time": 4.836363636363636,
                "pitch": 72,
                "velocity": 127,
                "duration": 0.836363636363636,
                "tempo": 120.0
            },
            {
                "start_time": 4.702272727272727,
                "end_time": 4.836363636363636,
                "pitch": 83,
                "velocity": 127,
                "duration": 0.13409090909090882,
                "tempo": 120.0
            },
            {
                "start_time": 4.836363636363636,
                "end_time": 4.968181818181818,
                "pitch": 70,
                "velocity": 127,
                "duration": 0.13181818181818183,
                "tempo": 120.0
            },
            {
                "start_time": 4.968181818181818,
                "end_time": 5.102272727272727,
                "pitch": 82,
                "velocity": 127,
                "duration": 0.13409090909090882,
                "tempo": 120.0
            },
            {
                "start_time": 5.102272727272727,
                "end_time": 5.252272727272727,
                "pitch": 71,
                "velocity": 127,
                "duration": 0.15000000000000036,
                "tempo": 120.0
            },
            {
                "start_time": 4.418181818181818,
                "end_time": 5.252272727272727,
                "pitch": 84,
                "velocity": 127,
                "duration": 0.834090909090909,
                "tempo": 120.0
            },
            {
                "start_time": 5.252272727272727,
                "end_time": 5.386363636363636,
                "pitch": 82,
                "velocity": 127,
                "duration": 0.13409090909090882,
                "tempo": 120.0
            },
            {
                "start_time": 5.386363636363636,
                "end_time": 5.5204545454545455,
                "pitch": 70,
                "velocity": 127,
                "duration": 0.1340909090909097,
                "tempo": 120.0
            },
            {
                "start_time": 4.836363636363636,
                "end_time": 5.654545454545454,
                "pitch": 72,
                "velocity": 127,
                "duration": 0.8181818181818183,
                "tempo": 120.0
            },
            {
                "start_time": 5.5204545454545455,
                "end_time": 5.654545454545454,
                "pitch": 83,
                "velocity": 127,
                "duration": 0.13409090909090882,
                "tempo": 120.0
            },
            {
                "start_time": 5.654545454545454,
                "end_time": 5.804545454545455,
                "pitch": 70,
                "velocity": 127,
                "duration": 0.15000000000000036,
                "tempo": 120.0
            }
        ],
        "Harpsichord": [
            {
                "start_time": 0.0,
                "end_time": 0.07272727272727272,
                "pitch": 78,
                "velocity": 80,
                "duration": 0.07272727272727272,
                "tempo": 120.0
            },
            {
                "start_time": 0.07272727272727272,
                "end_time": 0.14545454545454545,
                "pitch": 77,
                "velocity": 80,
                "duration": 0.07272727272727272,
                "tempo": 120.0
            },
            {
                "start_time": 0.14545454545454545,
                "end_time": 0.20681818181818182,
                "pitch": 76,
                "velocity": 80,
                "duration": 0.06136363636363637,
                "tempo": 120.0
            },
            {
                "start_time": 0.20681818181818182,
                "end_time": 0.27954545454545454,
                "pitch": 75,
                "velocity": 80,
                "duration": 0.07272727272727272,
                "tempo": 120.0
            },
            {
                "start_time": 0.27954545454545454,
                "end_time": 0.3409090909090909,
                "pitch": 74,
                "velocity": 80,
                "duration": 0.06136363636363634,
                "tempo": 120.0
            },
            {
                "start_time": 0.3409090909090909,
                "end_time": 0.4159090909090909,
                "pitch": 73,
                "velocity": 80,
                "duration": 0.07500000000000001,
                "tempo": 120.0
            },
            {
                "start_time": 0.4159090909090909,
                "end_time": 0.5,
                "pitch": 72,
                "velocity": 80,
                "duration": 0.0840909090909091,
                "tempo": 120.0
            },
            {
                "start_time": 0.5,
                "end_time": 0.6022727272727273,
                "pitch": 71,
                "velocity": 80,
                "duration": 0.10227272727272729,
                "tempo": 120.0
            },
            {
                "start_time": 0.6022727272727273,
                "end_time": 0.6863636363636363,
                "pitch": 70,
                "velocity": 80,
                "duration": 0.084090909090909,
                "tempo": 120.0
            },
            {
                "start_time": 0.6863636363636363,
                "end_time": 0.7886363636363636,
                "pitch": 77,
                "velocity": 80,
                "duration": 0.10227272727272729,
                "tempo": 120.0
            },
            {
                "start_time": 0.7886363636363636,
                "end_time": 0.875,
                "pitch": 77,
                "velocity": 80,
                "duration": 0.08636363636363642,
                "tempo": 120.0
            },
            {
                "start_time": 0.875,
                "end_time": 0.9772727272727272,
                "pitch": 76,
                "velocity": 80,
                "duration": 0.10227272727272718,
                "tempo": 120.0
            },
            {
                "start_time": 0.9772727272727272,
                "end_time": 1.059090909090909,
                "pitch": 75,
                "velocity": 80,
                "duration": 0.0818181818181819,
                "tempo": 120.0
            },
            {
                "start_time": 1.059090909090909,
                "end_time": 1.159090909090909,
                "pitch": 74,
                "velocity": 80,
                "duration": 0.09999999999999987,
                "tempo": 120.0
            },
            {
                "start_time": 1.1613636363636364,
                "end_time": 1.2431818181818182,
                "pitch": 73,
                "velocity": 80,
                "duration": 0.08181818181818179,
                "tempo": 120.0
            },
            {
                "start_time": 1.2431818181818182,
                "end_time": 1.343181818181818,
                "pitch": 72,
                "velocity": 80,
                "duration": 0.09999999999999987,
                "tempo": 120.0
            },
            {
                "start_time": 1.343181818181818,
                "end_time": 1.4272727272727272,
                "pitch": 71,
                "velocity": 80,
                "duration": 0.08409090909090922,
                "tempo": 120.0
            },
            {
                "start_time": 0.6863636363636363,
                "end_time": 1.5272727272727271,
                "pitch": 69,
                "velocity": 80,
                "duration": 0.8409090909090908,
                "tempo": 120.0
            },
            {
                "start_time": 1.4272727272727272,
                "end_time": 1.5272727272727271,
                "pitch": 70,
                "velocity": 80,
                "duration": 0.09999999999999987,
                "tempo": 120.0
            },
            {
                "start_time": 1.5272727272727271,
                "end_time": 1.6113636363636363,
                "pitch": 77,
                "velocity": 80,
                "duration": 0.08409090909090922,
                "tempo": 120.0
            },
            {
                "start_time": 1.6113636363636363,
                "end_time": 1.7113636363636362,
                "pitch": 77,
                "velocity": 80,
                "duration": 0.09999999999999987,
                "tempo": 120.0
            },
            {
                "start_time": 1.7113636363636362,
                "end_time": 1.7954545454545454,
                "pitch": 76,
                "velocity": 80,
                "duration": 0.08409090909090922,
                "tempo": 120.0
            },
            {
                "start_time": 1.7954545454545454,
                "end_time": 1.8954545454545453,
                "pitch": 75,
                "velocity": 80,
                "duration": 0.09999999999999987,
                "tempo": 120.0
            },
            {
                "start_time": 1.8954545454545453,
                "end_time": 1.9795454545454545,
                "pitch": 74,
                "velocity": 80,
                "duration": 0.08409090909090922,
                "tempo": 120.0
            },
            {
                "start_time": 1.9795454545454545,
                "end_time": 2.0795454545454546,
                "pitch": 73,
                "velocity": 80,
                "duration": 0.10000000000000009,
                "tempo": 120.0
            },
            {
                "start_time": 2.0795454545454546,
                "end_time": 2.1636363636363636,
                "pitch": 72,
                "velocity": 80,
                "duration": 0.084090909090909,
                "tempo": 120.0
            },
            {
                "start_time": 2.1636363636363636,
                "end_time": 2.2659090909090907,
                "pitch": 71,
                "velocity": 80,
                "duration": 0.10227272727272707,
                "tempo": 120.0
            },
            {
                "start_time": 1.5272727272727271,
                "end_time": 2.352272727272727,
                "pitch": 69,
                "velocity": 80,
                "duration": 0.825,
                "tempo": 120.0
            },
            {
                "start_time": 2.2659090909090907,
                "end_time": 2.352272727272727,
                "pitch": 70,
                "velocity": 80,
                "duration": 0.08636363636363642,
                "tempo": 120.0
            },
            {
                "start_time": 2.352272727272727,
                "end_time": 2.452272727272727,
                "pitch": 77,
                "velocity": 80,
                "duration": 0.10000000000000009,
                "tempo": 120.0
            },
            {
                "start_time": 2.452272727272727,
                "end_time": 2.5386363636363636,
                "pitch": 77,
                "velocity": 80,
                "duration": 0.08636363636363642,
                "tempo": 120.0
            },
            {
                "start_time": 2.5386363636363636,
                "end_time": 2.6409090909090907,
                "pitch": 76,
                "velocity": 80,
                "duration": 0.10227272727272707,
                "tempo": 120.0
            },
            {
                "start_time": 2.6409090909090907,
                "end_time": 2.7227272727272727,
                "pitch": 75,
                "velocity": 80,
                "duration": 0.08181818181818201,
                "tempo": 120.0
            },
            {
                "start_time": 2.7227272727272727,
                "end_time": 2.8204545454545453,
                "pitch": 74,
                "velocity": 80,
                "duration": 0.09772727272727266,
                "tempo": 120.0
            },
            {
                "start_time": 2.8204545454545453,
                "end_time": 2.9022727272727273,
                "pitch": 73,
                "velocity": 80,
                "duration": 0.08181818181818201,
                "tempo": 120.0
            },
            {
                "start_time": 2.9022727272727273,
                "end_time": 3.0,
                "pitch": 72,
                "velocity": 80,
                "duration": 0.09772727272727266,
                "tempo": 120.0
            },
            {
                "start_time": 3.0,
                "end_time": 3.084090909090909,
                "pitch": 71,
                "velocity": 80,
                "duration": 0.084090909090909,
                "tempo": 120.0
            },
            {
                "start_time": 2.352272727272727,
                "end_time": 3.1818181818181817,
                "pitch": 69,
                "velocity": 80,
                "duration": 0.8295454545454546,
                "tempo": 120.0
            },
            {
                "start_time": 3.084090909090909,
                "end_time": 3.1818181818181817,
                "pitch": 70,
                "velocity": 80,
                "duration": 0.09772727272727266,
                "tempo": 120.0
            },
            {
                "start_time": 3.1818181818181817,
                "end_time": 3.2659090909090907,
                "pitch": 77,
                "velocity": 80,
                "duration": 0.084090909090909,
                "tempo": 120.0
            },
            {
                "start_time": 3.2659090909090907,
                "end_time": 3.3659090909090907,
                "pitch": 77,
                "velocity": 80,
                "duration": 0.10000000000000009,
                "tempo": 120.0
            },
            {
                "start_time": 3.3659090909090907,
                "end_time": 3.4499999999999997,
                "pitch": 76,
                "velocity": 80,
                "duration": 0.084090909090909,
                "tempo": 120.0
            },
            {
                "start_time": 3.4499999999999997,
                "end_time": 3.55,
                "pitch": 75,
                "velocity": 80,
                "duration": 0.10000000000000009,
                "tempo": 120.0
            },
            {
                "start_time": 3.55,
                "end_time": 3.631818181818182,
                "pitch": 74,
                "velocity": 80,
                "duration": 0.08181818181818201,
                "tempo": 120.0
            },
            {
                "start_time": 3.631818181818182,
                "end_time": 3.734090909090909,
                "pitch": 73,
                "velocity": 80,
                "duration": 0.10227272727272707,
                "tempo": 120.0
            },
            {
                "start_time": 3.734090909090909,
                "end_time": 3.815909090909091,
                "pitch": 72,
                "velocity": 80,
                "duration": 0.08181818181818201,
                "tempo": 120.0
            },
            {
                "start_time": 3.815909090909091,
                "end_time": 3.9159090909090906,
                "pitch": 71,
                "velocity": 80,
                "duration": 0.09999999999999964,
                "tempo": 120.0
            },
            {
                "start_time": 3.1818181818181817,
                "end_time": 4.0,
                "pitch": 69,
                "velocity": 80,
                "duration": 0.8181818181818183,
                "tempo": 120.0
            },
            {
                "start_time": 3.9159090909090906,
                "end_time": 4.0,
                "pitch": 70,
                "velocity": 80,
                "duration": 0.08409090909090944,
                "tempo": 120.0
            },
            {
                "start_time": 4.0,
                "end_time": 4.1,
                "pitch": 77,
                "velocity": 80,
                "duration": 0.09999999999999964,
                "tempo": 120.0
            },
            {
                "start_time": 4.1,
                "end_time": 4.184090909090909,
                "pitch": 77,
                "velocity": 80,
                "duration": 0.084090909090909,
                "tempo": 120.0
            },
            {
                "start_time": 4.184090909090909,
                "end_time": 4.284090909090909,
                "pitch": 76,
                "velocity": 80,
                "duration": 0.10000000000000053,
                "tempo": 120.0
            },
            {
                "start_time": 4.284090909090909,
                "end_time": 4.368181818181818,
                "pitch": 75,
                "velocity": 80,
                "duration": 0.084090909090909,
                "tempo": 120.0
            },
            {
                "start_time": 4.368181818181818,
                "end_time": 4.468181818181818,
                "pitch": 74,
                "velocity": 80,
                "duration": 0.09999999999999964,
                "tempo": 120.0
            },
            {
                "start_time": 4.468181818181818,
                "end_time": 4.552272727272727,
                "pitch": 73,
                "velocity": 80,
                "duration": 0.084090909090909,
                "tempo": 120.0
            },
            {
                "start_time": 4.552272727272727,
                "end_time": 4.652272727272727,
                "pitch": 72,
                "velocity": 80,
                "duration": 0.10000000000000053,
                "tempo": 120.0
            },
            {
                "start_time": 4.652272727272727,
                "end_time": 4.736363636363636,
                "pitch": 71,
                "velocity": 80,
                "duration": 0.084090909090909,
                "tempo": 120.0
            },
            {
                "start_time": 4.0,
                "end_time": 4.836363636363636,
                "pitch": 69,
                "velocity": 80,
                "duration": 0.836363636363636,
                "tempo": 120.0
            },
            {
                "start_time": 4.736363636363636,
                "end_time": 4.836363636363636,
                "pitch": 70,
                "velocity": 80,
                "duration": 0.09999999999999964,
                "tempo": 120.0
            },
            {
                "start_time": 4.836363636363636,
                "end_time": 4.918181818181818,
                "pitch": 77,
                "velocity": 80,
                "duration": 0.08181818181818201,
                "tempo": 120.0
            },
            {
                "start_time": 4.918181818181818,
                "end_time": 5.0204545454545455,
                "pitch": 77,
                "velocity": 80,
                "duration": 0.10227272727272751,
                "tempo": 120.0
            },
            {
                "start_time": 5.0204545454545455,
                "end_time": 5.102272727272727,
                "pitch": 76,
                "velocity": 80,
                "duration": 0.08181818181818112,
                "tempo": 120.0
            },
            {
                "start_time": 5.102272727272727,
                "end_time": 5.202272727272727,
                "pitch": 75,
                "velocity": 80,
                "duration": 0.10000000000000053,
                "tempo": 120.0
            },
            {
                "start_time": 5.202272727272727,
                "end_time": 5.286363636363636,
                "pitch": 74,
                "velocity": 80,
                "duration": 0.084090909090909,
                "tempo": 120.0
            },
            {
                "start_time": 5.286363636363636,
                "end_time": 5.386363636363636,
                "pitch": 73,
                "velocity": 80,
                "duration": 0.09999999999999964,
                "tempo": 120.0
            },
            {
                "start_time": 5.386363636363636,
                "end_time": 5.470454545454545,
                "pitch": 72,
                "velocity": 80,
                "duration": 0.084090909090909,
                "tempo": 120.0
            },
            {
                "start_time": 5.470454545454545,
                "end_time": 5.570454545454545,
                "pitch": 71,
                "velocity": 80,
                "duration": 0.10000000000000053,
                "tempo": 120.0
            },
            {
                "start_time": 4.836363636363636,
                "end_time": 5.654545454545454,
                "pitch": 69,
                "velocity": 80,
                "duration": 0.8181818181818183,
                "tempo": 120.0
            },
            {
                "start_time": 5.570454545454545,
                "end_time": 5.654545454545454,
                "pitch": 70,
                "velocity": 80,
                "duration": 0.084090909090909,
                "tempo": 120.0
            },
            {
                "start_time": 5.654545454545454,
                "end_time": 5.754545454545454,
                "pitch": 77,
                "velocity": 80,
                "duration": 0.09999999999999964,
                "tempo": 120.0
            },
            {
                "start_time": 5.754545454545454,
                "end_time": 5.804545454545455,
                "pitch": 77,
                "velocity": 80,
                "duration": 0.05000000000000071,
                "tempo": 120.0
            }
        ]
    }
}