{
    "track_id": "16 Boss 6",
    "mood": "sad",
    "instruments": {
        "Electric Guitar (clean)": [
            {
                "start_time": 26.952272727272724,
                "end_time": 27.738636363636363,
                "pitch": 89,
                "velocity": 40,
                "duration": 0.7863636363636388,
                "tempo": 120.0
            }
        ],
        "Trumpet": [
            {
                "start_time": 9.647727272727272,
                "end_time": 10.029545454545454,
                "pitch": 70,
                "velocity": 80,
                "duration": 0.3818181818181827,
                "tempo": 120.0
            },
            {
                "start_time": 10.047727272727272,
                "end_time": 10.131818181818181,
                "pitch": 74,
                "velocity": 80,
                "duration": 0.084090909090909,
                "tempo": 120.0
            },
            {
                "start_time": 10.147727272727272,
                "end_time": 10.23181818181818,
                "pitch": 73,
                "velocity": 80,
                "duration": 0.084090909090909,
                "tempo": 120.0
            },
            {
                "start_time": 10.247727272727273,
                "end_time": 10.634090909090908,
                "pitch": 74,
                "velocity": 80,
                "duration": 0.3863636363636349,
                "tempo": 120.0
            },
            {
                "start_time": 10.65,
                "end_time": 10.73409090909091,
                "pitch": 77,
                "velocity": 80,
                "duration": 0.084090909090909,
                "tempo": 120.0
            },
            {
                "start_time": 10.75,
                "end_time": 10.834090909090909,
                "pitch": 76,
                "velocity": 80,
                "duration": 0.084090909090909,
                "tempo": 120.0
            },
            {
                "start_time": 10.85,
                "end_time": 11.236363636363636,
                "pitch": 77,
                "velocity": 80,
                "duration": 0.3863636363636367,
                "tempo": 120.0
            },
            {
                "start_time": 11.252272727272727,
                "end_time": 11.336363636363636,
                "pitch": 80,
                "velocity": 80,
                "duration": 0.084090909090909,
                "tempo": 120.0
            },
            {
                "start_time": 11.352272727272727,
                "end_time": 11.436363636363636,
                "pitch": 79,
                "velocity": 80,
                "duration": 0.084090909090909,
                "tempo": 120.0
            },
            {
                "start_time": 11.454545454545453,
                "end_time": 11.838636363636363,
                "pitch": 80,
                "velocity": 80,
                "duration": 0.3840909090909097,
                "tempo": 120.0
            },
            {
                "start_time": 11.85681818181818,
                "end_time": 12.040909090909091,
                "pitch": 77,
                "velocity": 80,
                "duration": 0.18409090909091042,
                "tempo": 120.0
            },
            {
                "start_time": 12.056818181818182,
                "end_time": 12.44090909090909,
                "pitch": 68,
                "velocity": 80,
                "duration": 0.38409090909090793,
                "tempo": 120.0
            },
            {
                "start_time": 12.459090909090909,
                "end_time": 12.540909090909091,
                "pitch": 71,
                "velocity": 80,
                "duration": 0.08181818181818201,
                "tempo": 120.0
            },
            {
                "start_time": 12.559090909090909,
                "end_time": 12.643181818181818,
                "pitch": 70,
                "velocity": 80,
                "duration": 0.084090909090909,
                "tempo": 120.0
            },
            {
                "start_time": 12.659090909090908,
                "end_time": 13.043181818181818,
                "pitch": 71,
                "velocity": 80,
                "duration": 0.3840909090909097,
                "tempo": 120.0
            },
            {
                "start_time": 13.061363636363636,
                "end_time": 13.143181818181818,
                "pitch": 74,
                "velocity": 80,
                "duration": 0.08181818181818201,
                "tempo": 120.0
            },
            {
                "start_time": 13.161363636363635,
                "end_time": 13.245454545454544,
                "pitch": 73,
                "velocity": 80,
                "duration": 0.084090909090909,
                "tempo": 120.0
            },
            {
                "start_time": 13.261363636363635,
                "end_time": 13.647727272727272,
                "pitch": 74,
                "velocity": 80,
                "duration": 0.3863636363636367,
                "tempo": 120.0
            },
            {
                "start_time": 13.663636363636362,
                "end_time": 13.747727272727271,
                "pitch": 77,
                "velocity": 80,
                "duration": 0.084090909090909,
                "tempo": 120.0
            },
            {
                "start_time": 13.763636363636364,
                "end_time": 13.847727272727273,
                "pitch": 76,
                "velocity": 80,
                "duration": 0.084090909090909,
                "tempo": 120.0
            },
            {
                "start_time": 13.863636363636363,
                "end_time": 14.25,
                "pitch": 77,
                "velocity": 80,
                "duration": 0.3863636363636367,
                "tempo": 120.0
            },
            {
                "start_time": 14.26590909090909,
                "end_time": 14.45,
                "pitch": 74,
                "velocity": 80,
                "duration": 0.18409090909090864,
                "tempo": 120.0
            },
            {
                "start_time": 14.46590909090909,
                "end_time": 14.852272727272727,
                "pitch": 70,
                "velocity": 80,
                "duration": 0.3863636363636367,
                "tempo": 120.0
            },
            {
                "start_time": 14.868181818181817,
                "end_time": 14.952272727272726,
                "pitch": 74,
                "velocity": 80,
                "duration": 0.084090909090909,
                "tempo": 120.0
            },
            {
                "start_time": 14.970454545454544,
                "end_time": 15.052272727272726,
                "pitch": 73,
                "velocity": 80,
                "duration": 0.08181818181818201,
                "tempo": 120.0
            },
            {
                "start_time": 15.070454545454545,
                "end_time": 15.454545454545453,
                "pitch": 74,
                "velocity": 80,
                "duration": 0.38409090909090793,
                "tempo": 120.0
            },
            {
                "start_time": 15.470454545454544,
                "end_time": 15.554545454545455,
                "pitch": 77,
                "velocity": 80,
                "duration": 0.08409090909091077,
                "tempo": 120.0
            },
            {
                "start_time": 15.572727272727272,
                "end_time": 15.654545454545454,
                "pitch": 76,
                "velocity": 80,
                "duration": 0.08181818181818201,
                "tempo": 120.0
            },
            {
                "start_time": 15.672727272727272,
                "end_time": 16.05681818181818,
                "pitch": 77,
                "velocity": 80,
                "duration": 0.38409090909090793,
                "tempo": 120.0
            },
            {
                "start_time": 16.07272727272727,
                "end_time": 16.15681818181818,
                "pitch": 80,
                "velocity": 80,
                "duration": 0.08409090909091077,
                "tempo": 120.0
            },
            {
                "start_time": 16.175,
                "end_time": 16.256818181818183,
                "pitch": 79,
                "velocity": 80,
                "duration": 0.08181818181818201,
                "tempo": 120.0
            },
            {
                "start_time": 16.275,
                "end_time": 16.46363636363636,
                "pitch": 80,
                "velocity": 80,
                "duration": 0.1886363636363626,
                "tempo": 120.0
            },
            {
                "start_time": 16.48181818181818,
                "end_time": 16.670454545454543,
                "pitch": 83,
                "velocity": 80,
                "duration": 0.1886363636363626,
                "tempo": 120.0
            },
            {
                "start_time": 16.686363636363634,
                "end_time": 16.870454545454546,
                "pitch": 80,
                "velocity": 80,
                "duration": 0.1840909090909122,
                "tempo": 120.0
            }
        ],
        "Church Organ": [
            {
                "start_time": 0.004545454545454545,
                "end_time": 0.5886363636363636,
                "pitch": 69,
                "velocity": 80,
                "duration": 0.5840909090909091,
                "tempo": 120.0
            },
            {
                "start_time": 0.6045454545454545,
                "end_time": 1.190909090909091,
                "pitch": 70,
                "velocity": 80,
                "duration": 0.5863636363636364,
                "tempo": 120.0
            },
            {
                "start_time": 1.2068181818181818,
                "end_time": 1.793181818181818,
                "pitch": 68,
                "velocity": 80,
                "duration": 0.5863636363636362,
                "tempo": 120.0
            },
            {
                "start_time": 1.809090909090909,
                "end_time": 2.3954545454545455,
                "pitch": 69,
                "velocity": 80,
                "duration": 0.5863636363636364,
                "tempo": 120.0
            },
            {
                "start_time": 2.4136363636363636,
                "end_time": 2.9977272727272726,
                "pitch": 69,
                "velocity": 80,
                "duration": 0.584090909090909,
                "tempo": 120.0
            },
            {
                "start_time": 3.0136363636363637,
                "end_time": 3.5999999999999996,
                "pitch": 70,
                "velocity": 80,
                "duration": 0.586363636363636,
                "tempo": 120.0
            },
            {
                "start_time": 3.6159090909090907,
                "end_time": 4.202272727272727,
                "pitch": 75,
                "velocity": 80,
                "duration": 0.5863636363636364,
                "tempo": 120.0
            },
            {
                "start_time": 4.218181818181818,
                "end_time": 4.802272727272727,
                "pitch": 74,
                "velocity": 80,
                "duration": 0.584090909090909,
                "tempo": 120.0
            },
            {
                "start_time": 4.820454545454545,
                "end_time": 5.404545454545454,
                "pitch": 69,
                "velocity": 80,
                "duration": 0.584090909090909,
                "tempo": 120.0
            },
            {
                "start_time": 5.422727272727273,
                "end_time": 6.009090909090909,
                "pitch": 70,
                "velocity": 80,
                "duration": 0.586363636363636,
                "tempo": 120.0
            },
            {
                "start_time": 6.0249999999999995,
                "end_time": 6.6090909090909085,
                "pitch": 68,
                "velocity": 80,
                "duration": 0.584090909090909,
                "tempo": 120.0
            },
            {
                "start_time": 6.625,
                "end_time": 7.211363636363636,
                "pitch": 69,
                "velocity": 80,
                "duration": 0.586363636363636,
                "tempo": 120.0
            },
            {
                "start_time": 7.2295454545454545,
                "end_time": 7.822727272727272,
                "pitch": 69,
                "velocity": 80,
                "duration": 0.5931818181818178,
                "tempo": 120.0
            },
            {
                "start_time": 7.838636363636363,
                "end_time": 8.424999999999999,
                "pitch": 70,
                "velocity": 80,
                "duration": 0.586363636363636,
                "tempo": 120.0
            },
            {
                "start_time": 8.443181818181818,
                "end_time": 8.818181818181818,
                "pitch": 75,
                "velocity": 80,
                "duration": 0.375,
                "tempo": 120.0
            },
            {
                "start_time": 8.836363636363636,
                "end_time": 8.922727272727272,
                "pitch": 74,
                "velocity": 80,
                "duration": 0.08636363636363598,
                "tempo": 120.0
            },
            {
                "start_time": 8.940909090909091,
                "end_time": 9.027272727272727,
                "pitch": 75,
                "velocity": 80,
                "duration": 0.08636363636363598,
                "tempo": 120.0
            },
            {
                "start_time": 9.045454545454545,
                "end_time": 9.127272727272727,
                "pitch": 76,
                "velocity": 80,
                "duration": 0.08181818181818201,
                "tempo": 120.0
            },
            {
                "start_time": 9.145454545454545,
                "end_time": 9.227272727272727,
                "pitch": 77,
                "velocity": 80,
                "duration": 0.08181818181818201,
                "tempo": 120.0
            },
            {
                "start_time": 9.245454545454544,
                "end_time": 9.327272727272726,
                "pitch": 78,
                "velocity": 80,
                "duration": 0.08181818181818201,
                "tempo": 120.0
            },
            {
                "start_time": 9.345454545454546,
                "end_time": 9.429545454545455,
                "pitch": 79,
                "velocity": 80,
                "duration": 0.084090909090909,
                "tempo": 120.0
            },
            {
                "start_time": 9.445454545454545,
                "end_time": 9.529545454545454,
                "pitch": 80,
                "velocity": 80,
                "duration": 0.084090909090909,
                "tempo": 120.0
            },
            {
                "start_time": 9.545454545454545,
                "end_time": 9.629545454545454,
                "pitch": 81,
                "velocity": 80,
                "duration": 0.084090909090909,
                "tempo": 120.0
            },
            {
                "start_time": 9.647727272727272,
                "end_time": 10.23181818181818,
                "pitch": 58,
                "velocity": 80,
                "duration": 0.584090909090909,
                "tempo": 120.0
            },
            {
                "start_time": 10.25,
                "end_time": 10.834090909090909,
                "pitch": 62,
                "velocity": 80,
                "duration": 0.584090909090909,
                "tempo": 120.0
            },
            {
                "start_time": 10.852272727272727,
                "end_time": 11.436363636363636,
                "pitch": 65,
                "velocity": 80,
                "duration": 0.584090909090909,
                "tempo": 120.0
            },
            {
                "start_time": 11.454545454545453,
                "end_time": 12.040909090909091,
                "pitch": 62,
                "velocity": 80,
                "duration": 0.5863636363636378,
                "tempo": 120.0
            },
            {
                "start_time": 12.056818181818182,
                "end_time": 12.643181818181818,
                "pitch": 56,
                "velocity": 80,
                "duration": 0.586363636363636,
                "tempo": 120.0
            },
            {
                "start_time": 12.659090909090908,
                "end_time": 13.245454545454544,
                "pitch": 59,
                "velocity": 80,
                "duration": 0.586363636363636,
                "tempo": 120.0
            },
            {
                "start_time": 13.261363636363635,
                "end_time": 13.847727272727273,
                "pitch": 65,
                "velocity": 80,
                "duration": 0.5863636363636378,
                "tempo": 120.0
            },
            {
                "start_time": 13.863636363636363,
                "end_time": 14.45,
                "pitch": 62,
                "velocity": 80,
                "duration": 0.586363636363636,
                "tempo": 120.0
            },
            {
                "start_time": 14.468181818181817,
                "end_time": 15.052272727272726,
                "pitch": 58,
                "velocity": 80,
                "duration": 0.584090909090909,
                "tempo": 120.0
            },
            {
                "start_time": 15.070454545454545,
                "end_time": 15.654545454545454,
                "pitch": 62,
                "velocity": 80,
                "duration": 0.584090909090909,
                "tempo": 120.0
            },
            {
                "start_time": 15.672727272727272,
                "end_time": 16.256818181818183,
                "pitch": 65,
                "velocity": 80,
                "duration": 0.5840909090909108,
                "tempo": 120.0
            },
            {
                "start_time": 16.275,
                "end_time": 16.870454545454546,
                "pitch": 69,
                "velocity": 80,
                "duration": 0.5954545454545475,
                "tempo": 120.0
            },
            {
                "start_time": 16.888636363636362,
                "end_time": 17.472727272727273,
                "pitch": 69,
                "velocity": 80,
                "duration": 0.5840909090909108,
                "tempo": 120.0
            },
            {
                "start_time": 17.49090909090909,
                "end_time": 18.077272727272728,
                "pitch": 70,
                "velocity": 80,
                "duration": 0.5863636363636395,
                "tempo": 120.0
            },
            {
                "start_time": 18.095454545454544,
                "end_time": 18.679545454545455,
                "pitch": 68,
                "velocity": 80,
                "duration": 0.5840909090909108,
                "tempo": 120.0
            },
            {
                "start_time": 18.69772727272727,
                "end_time": 19.284090909090907,
                "pitch": 69,
                "velocity": 80,
                "duration": 0.586363636363636,
                "tempo": 120.0
            },
            {
                "start_time": 19.3,
                "end_time": 19.886363636363637,
                "pitch": 69,
                "velocity": 80,
                "duration": 0.586363636363636,
                "tempo": 120.0
            },
            {
                "start_time": 19.904545454545453,
                "end_time": 20.49090909090909,
                "pitch": 70,
                "velocity": 80,
                "duration": 0.586363636363636,
                "tempo": 120.0
            },
            {
                "start_time": 20.50681818181818,
                "end_time": 21.09318181818182,
                "pitch": 75,
                "velocity": 80,
                "duration": 0.5863636363636395,
                "tempo": 120.0
            },
            {
                "start_time": 21.111363636363635,
                "end_time": 21.695454545454545,
                "pitch": 74,
                "velocity": 80,
                "duration": 0.5840909090909108,
                "tempo": 120.0
            },
            {
                "start_time": 21.71363636363636,
                "end_time": 21.745454545454546,
                "pitch": 77,
                "velocity": 80,
                "duration": 0.031818181818184854,
                "tempo": 120.0
            },
            {
                "start_time": 21.763636363636362,
                "end_time": 21.795454545454543,
                "pitch": 76,
                "velocity": 80,
                "duration": 0.0318181818181813,
                "tempo": 120.0
            },
            {
                "start_time": 21.813636363636363,
                "end_time": 21.847727272727273,
                "pitch": 75,
                "velocity": 80,
                "duration": 0.03409090909091006,
                "tempo": 120.0
            },
            {
                "start_time": 21.863636363636363,
                "end_time": 21.897727272727273,
                "pitch": 74,
                "velocity": 80,
                "duration": 0.03409090909091006,
                "tempo": 120.0
            },
            {
                "start_time": 21.913636363636364,
                "end_time": 21.94772727272727,
                "pitch": 73,
                "velocity": 80,
                "duration": 0.03409090909090651,
                "tempo": 120.0
            },
            {
                "start_time": 21.96363636363636,
                "end_time": 21.99772727272727,
                "pitch": 72,
                "velocity": 80,
                "duration": 0.03409090909091006,
                "tempo": 120.0
            },
            {
                "start_time": 22.01590909090909,
                "end_time": 22.047727272727272,
                "pitch": 71,
                "velocity": 80,
                "duration": 0.0318181818181813,
                "tempo": 120.0
            },
            {
                "start_time": 22.06590909090909,
                "end_time": 22.097727272727273,
                "pitch": 70,
                "velocity": 80,
                "duration": 0.0318181818181813,
                "tempo": 120.0
            },
            {
                "start_time": 22.11590909090909,
                "end_time": 22.147727272727273,
                "pitch": 69,
                "velocity": 80,
                "duration": 0.031818181818184854,
                "tempo": 120.0
            },
            {
                "start_time": 22.16590909090909,
                "end_time": 22.2,
                "pitch": 68,
                "velocity": 80,
                "duration": 0.03409090909091006,
                "tempo": 120.0
            },
            {
                "start_time": 22.21590909090909,
                "end_time": 22.25,
                "pitch": 67,
                "velocity": 80,
                "duration": 0.03409090909091006,
                "tempo": 120.0
            },
            {
                "start_time": 22.26590909090909,
                "end_time": 22.299999999999997,
                "pitch": 66,
                "velocity": 80,
                "duration": 0.03409090909090651,
                "tempo": 120.0
            },
            {
                "start_time": 22.31590909090909,
                "end_time": 22.349999999999998,
                "pitch": 65,
                "velocity": 80,
                "duration": 0.03409090909090651,
                "tempo": 120.0
            },
            {
                "start_time": 22.368181818181817,
                "end_time": 22.4,
                "pitch": 64,
                "velocity": 80,
                "duration": 0.0318181818181813,
                "tempo": 120.0
            },
            {
                "start_time": 22.418181818181818,
                "end_time": 22.45,
                "pitch": 63,
                "velocity": 80,
                "duration": 0.0318181818181813,
                "tempo": 120.0
            },
            {
                "start_time": 22.46818181818182,
                "end_time": 22.5,
                "pitch": 62,
                "velocity": 80,
                "duration": 0.0318181818181813,
                "tempo": 120.0
            },
            {
                "start_time": 22.518181818181816,
                "end_time": 22.549999999999997,
                "pitch": 61,
                "velocity": 80,
                "duration": 0.0318181818181813,
                "tempo": 120.0
            },
            {
                "start_time": 22.568181818181817,
                "end_time": 22.602272727272727,
                "pitch": 60,
                "velocity": 80,
                "duration": 0.03409090909091006,
                "tempo": 120.0
            },
            {
                "start_time": 22.618181818181817,
                "end_time": 22.652272727272727,
                "pitch": 59,
                "velocity": 80,
                "duration": 0.03409090909091006,
                "tempo": 120.0
            },
            {
                "start_time": 22.668181818181818,
                "end_time": 22.702272727272724,
                "pitch": 58,
                "velocity": 80,
                "duration": 0.03409090909090651,
                "tempo": 120.0
            },
            {
                "start_time": 22.720454545454544,
                "end_time": 22.752272727272725,
                "pitch": 57,
                "velocity": 80,
                "duration": 0.0318181818181813,
                "tempo": 120.0
            },
            {
                "start_time": 22.770454545454545,
                "end_time": 22.802272727272726,
                "pitch": 56,
                "velocity": 80,
                "duration": 0.0318181818181813,
                "tempo": 120.0
            },
            {
                "start_time": 22.820454545454545,
                "end_time": 22.852272727272727,
                "pitch": 55,
                "velocity": 80,
                "duration": 0.0318181818181813,
                "tempo": 120.0
            },
            {
                "start_time": 22.870454545454546,
                "end_time": 22.902272727272727,
                "pitch": 54,
                "velocity": 80,
                "duration": 0.0318181818181813,
                "tempo": 120.0
            },
            {
                "start_time": 22.920454545454543,
                "end_time": 22.954545454545453,
                "pitch": 53,
                "velocity": 80,
                "duration": 0.03409090909091006,
                "tempo": 120.0
            },
            {
                "start_time": 22.970454545454544,
                "end_time": 23.004545454545454,
                "pitch": 54,
                "velocity": 80,
                "duration": 0.03409090909091006,
                "tempo": 120.0
            },
            {
                "start_time": 23.020454545454545,
                "end_time": 23.054545454545455,
                "pitch": 55,
                "velocity": 80,
                "duration": 0.03409090909091006,
                "tempo": 120.0
            },
            {
                "start_time": 23.070454545454545,
                "end_time": 23.104545454545452,
                "pitch": 56,
                "velocity": 80,
                "duration": 0.03409090909090651,
                "tempo": 120.0
            },
            {
                "start_time": 23.120454545454546,
                "end_time": 23.154545454545453,
                "pitch": 57,
                "velocity": 80,
                "duration": 0.03409090909090651,
                "tempo": 120.0
            },
            {
                "start_time": 23.170454545454543,
                "end_time": 23.204545454545453,
                "pitch": 58,
                "velocity": 80,
                "duration": 0.03409090909091006,
                "tempo": 120.0
            },
            {
                "start_time": 23.220454545454544,
                "end_time": 23.254545454545454,
                "pitch": 59,
                "velocity": 80,
                "duration": 0.03409090909091006,
                "tempo": 120.0
            },
            {
                "start_time": 23.270454545454545,
                "end_time": 23.304545454545455,
                "pitch": 60,
                "velocity": 80,
                "duration": 0.03409090909091006,
                "tempo": 120.0
            },
            {
                "start_time": 23.32272727272727,
                "end_time": 23.354545454545452,
                "pitch": 61,
                "velocity": 80,
                "duration": 0.0318181818181813,
                "tempo": 120.0
            },
            {
                "start_time": 23.37272727272727,
                "end_time": 23.404545454545453,
                "pitch": 62,
                "velocity": 80,
                "duration": 0.0318181818181813,
                "tempo": 120.0
            },
            {
                "start_time": 23.422727272727272,
                "end_time": 23.454545454545453,
                "pitch": 63,
                "velocity": 80,
                "duration": 0.0318181818181813,
                "tempo": 120.0
            },
            {
                "start_time": 23.472727272727273,
                "end_time": 23.504545454545454,
                "pitch": 64,
                "velocity": 80,
                "duration": 0.0318181818181813,
                "tempo": 120.0
            },
            {
                "start_time": 23.52272727272727,
                "end_time": 23.55681818181818,
                "pitch": 65,
                "velocity": 80,
                "duration": 0.03409090909091006,
                "tempo": 120.0
            },
            {
                "start_time": 23.57272727272727,
                "end_time": 23.60681818181818,
                "pitch": 66,
                "velocity": 80,
                "duration": 0.03409090909091006,
                "tempo": 120.0
            },
            {
                "start_time": 23.62272727272727,
                "end_time": 23.65681818181818,
                "pitch": 67,
                "velocity": 80,
                "duration": 0.03409090909091006,
                "tempo": 120.0
            },
            {
                "start_time": 23.672727272727272,
                "end_time": 23.706818181818182,
                "pitch": 68,
                "velocity": 80,
                "duration": 0.03409090909091006,
                "tempo": 120.0
            },
            {
                "start_time": 23.724999999999998,
                "end_time": 23.75681818181818,
                "pitch": 69,
                "velocity": 80,
                "duration": 0.0318181818181813,
                "tempo": 120.0
            },
            {
                "start_time": 23.775,
                "end_time": 23.80681818181818,
                "pitch": 70,
                "velocity": 80,
                "duration": 0.0318181818181813,
                "tempo": 120.0
            },
            {
                "start_time": 23.825,
                "end_time": 23.85909090909091,
                "pitch": 71,
                "velocity": 80,
                "duration": 0.03409090909091006,
                "tempo": 120.0
            },
            {
                "start_time": 23.877272727272725,
                "end_time": 23.911363636363635,
                "pitch": 72,
                "velocity": 80,
                "duration": 0.03409090909091006,
                "tempo": 120.0
            },
            {
                "start_time": 23.927272727272726,
                "end_time": 23.961363636363636,
                "pitch": 73,
                "velocity": 80,
                "duration": 0.03409090909091006,
                "tempo": 120.0
            },
            {
                "start_time": 23.979545454545452,
                "end_time": 24.013636363636362,
                "pitch": 74,
                "velocity": 80,
                "duration": 0.03409090909091006,
                "tempo": 120.0
            },
            {
                "start_time": 24.03181818181818,
                "end_time": 24.06590909090909,
                "pitch": 75,
                "velocity": 80,
                "duration": 0.03409090909091006,
                "tempo": 120.0
            },
            {
                "start_time": 24.084090909090907,
                "end_time": 24.118181818181817,
                "pitch": 76,
                "velocity": 80,
                "duration": 0.03409090909091006,
                "tempo": 120.0
            },
            {
                "start_time": 27.75681818181818,
                "end_time": 28.05681818181818,
                "pitch": 69,
                "velocity": 80,
                "duration": 0.3000000000000007,
                "tempo": 120.0
            }
        ],
        "Synth Bass 1": [
            {
                "start_time": 0.006818181818181818,
                "end_time": 0.08636363636363636,
                "pitch": 50,
                "velocity": 40,
                "duration": 0.07954545454545454,
                "tempo": 120.0
            },
            {
                "start_time": 0.10454545454545454,
                "end_time": 0.18636363636363634,
                "pitch": 47,
                "velocity": 40,
                "duration": 0.0818181818181818,
                "tempo": 120.0
            },
            {
                "start_time": 0.20454545454545453,
                "end_time": 0.28863636363636364,
                "pitch": 44,
                "velocity": 40,
                "duration": 0.0840909090909091,
                "tempo": 120.0
            },
            {
                "start_time": 0.3045454545454545,
                "end_time": 0.3886363636363636,
                "pitch": 41,
                "velocity": 40,
                "duration": 0.0840909090909091,
                "tempo": 120.0
            },
            {
                "start_time": 0.40454545454545454,
                "end_time": 0.4886363636363636,
                "pitch": 38,
                "velocity": 40,
                "duration": 0.08409090909090905,
                "tempo": 120.0
            },
            {
                "start_time": 0.5045454545454545,
                "end_time": 0.5886363636363636,
                "pitch": 41,
                "velocity": 40,
                "duration": 0.0840909090909091,
                "tempo": 120.0
            },
            {
                "start_time": 0.6068181818181818,
                "end_time": 0.6886363636363636,
                "pitch": 52,
                "velocity": 40,
                "duration": 0.08181818181818179,
                "tempo": 120.0
            },
            {
                "start_time": 0.7068181818181818,
                "end_time": 0.7886363636363636,
                "pitch": 48,
                "velocity": 40,
                "duration": 0.08181818181818179,
                "tempo": 120.0
            },
            {
                "start_time": 0.8068181818181818,
                "end_time": 0.8886363636363636,
                "pitch": 45,
                "velocity": 40,
                "duration": 0.08181818181818179,
                "tempo": 120.0
            },
            {
                "start_time": 0.9068181818181817,
                "end_time": 0.9886363636363635,
                "pitch": 40,
                "velocity": 40,
                "duration": 0.08181818181818179,
                "tempo": 120.0
            },
            {
                "start_time": 1.0068181818181818,
                "end_time": 1.0909090909090908,
                "pitch": 45,
                "velocity": 40,
                "duration": 0.084090909090909,
                "tempo": 120.0
            },
            {
                "start_time": 1.1068181818181817,
                "end_time": 1.190909090909091,
                "pitch": 48,
                "velocity": 40,
                "duration": 0.08409090909090922,
                "tempo": 120.0
            },
            {
                "start_time": 1.209090909090909,
                "end_time": 1.2909090909090908,
                "pitch": 52,
                "velocity": 40,
                "duration": 0.08181818181818179,
                "tempo": 120.0
            },
            {
                "start_time": 1.309090909090909,
                "end_time": 1.3909090909090909,
                "pitch": 48,
                "velocity": 40,
                "duration": 0.08181818181818179,
                "tempo": 120.0
            },
            {
                "start_time": 1.409090909090909,
                "end_time": 1.4909090909090907,
                "pitch": 45,
                "velocity": 40,
                "duration": 0.08181818181818179,
                "tempo": 120.0
            },
            {
                "start_time": 1.509090909090909,
                "end_time": 1.5909090909090908,
                "pitch": 40,
                "velocity": 40,
                "duration": 0.08181818181818179,
                "tempo": 120.0
            },
            {
                "start_time": 1.609090909090909,
                "end_time": 1.6931818181818181,
                "pitch": 52,
                "velocity": 40,
                "duration": 0.08409090909090922,
                "tempo": 120.0
            },
            {
                "start_time": 1.709090909090909,
                "end_time": 1.793181818181818,
                "pitch": 48,
                "velocity": 40,
                "duration": 0.084090909090909,
                "tempo": 120.0
            },
            {
                "start_time": 1.8113636363636363,
                "end_time": 1.893181818181818,
                "pitch": 53,
                "velocity": 40,
                "duration": 0.08181818181818179,
                "tempo": 120.0
            },
            {
                "start_time": 1.9113636363636364,
                "end_time": 1.9931818181818182,
                "pitch": 49,
                "velocity": 40,
                "duration": 0.08181818181818179,
                "tempo": 120.0
            },
            {
                "start_time": 2.0113636363636362,
                "end_time": 2.0954545454545452,
                "pitch": 46,
                "velocity": 40,
                "duration": 0.084090909090909,
                "tempo": 120.0
            },
            {
                "start_time": 2.1113636363636363,
                "end_time": 2.1954545454545453,
                "pitch": 41,
                "velocity": 40,
                "duration": 0.084090909090909,
                "tempo": 120.0
            },
            {
                "start_time": 2.2113636363636364,
                "end_time": 2.2954545454545454,
                "pitch": 53,
                "velocity": 40,
                "duration": 0.084090909090909,
                "tempo": 120.0
            },
            {
                "start_time": 2.311363636363636,
                "end_time": 2.3954545454545455,
                "pitch": 48,
                "velocity": 40,
                "duration": 0.08409090909090944,
                "tempo": 120.0
            },
            {
                "start_time": 2.4136363636363636,
                "end_time": 2.495454545454545,
                "pitch": 50,
                "velocity": 40,
                "duration": 0.08181818181818157,
                "tempo": 120.0
            },
            {
                "start_time": 2.5136363636363637,
                "end_time": 2.5954545454545452,
                "pitch": 47,
                "velocity": 40,
                "duration": 0.08181818181818157,
                "tempo": 120.0
            },
            {
                "start_time": 2.6136363636363633,
                "end_time": 2.6977272727272728,
                "pitch": 44,
                "velocity": 40,
                "duration": 0.08409090909090944,
                "tempo": 120.0
            },
            {
                "start_time": 2.7136363636363634,
                "end_time": 2.7977272727272724,
                "pitch": 41,
                "velocity": 40,
                "duration": 0.084090909090909,
                "tempo": 120.0
            },
            {
                "start_time": 2.8136363636363635,
                "end_time": 2.8977272727272725,
                "pitch": 38,
                "velocity": 40,
                "duration": 0.084090909090909,
                "tempo": 120.0
            },
            {
                "start_time": 2.9136363636363636,
                "end_time": 2.9977272727272726,
                "pitch": 41,
                "velocity": 40,
                "duration": 0.084090909090909,
                "tempo": 120.0
            },
            {
                "start_time": 3.0159090909090907,
                "end_time": 3.0977272727272727,
                "pitch": 52,
                "velocity": 40,
                "duration": 0.08181818181818201,
                "tempo": 120.0
            },
            {
                "start_time": 3.1159090909090907,
                "end_time": 3.1977272727272728,
                "pitch": 48,
                "velocity": 40,
                "duration": 0.08181818181818201,
                "tempo": 120.0
            },
            {
                "start_time": 3.215909090909091,
                "end_time": 3.2977272727272724,
                "pitch": 45,
                "velocity": 40,
                "duration": 0.08181818181818157,
                "tempo": 120.0
            },
            {
                "start_time": 3.315909090909091,
                "end_time": 3.3977272727272725,
                "pitch": 40,
                "velocity": 40,
                "duration": 0.08181818181818157,
                "tempo": 120.0
            },
            {
                "start_time": 3.4159090909090906,
                "end_time": 3.5,
                "pitch": 45,
                "velocity": 40,
                "duration": 0.08409090909090944,
                "tempo": 120.0
            },
            {
                "start_time": 3.5159090909090907,
                "end_time": 3.5999999999999996,
                "pitch": 48,
                "velocity": 40,
                "duration": 0.084090909090909,
                "tempo": 120.0
            },
            {
                "start_time": 3.618181818181818,
                "end_time": 3.6999999999999997,
                "pitch": 52,
                "velocity": 40,
                "duration": 0.08181818181818157,
                "tempo": 120.0
            },
            {
                "start_time": 3.718181818181818,
                "end_time": 3.8,
                "pitch": 48,
                "velocity": 40,
                "duration": 0.08181818181818201,
                "tempo": 120.0
            },
            {
                "start_time": 3.818181818181818,
                "end_time": 3.9,
                "pitch": 45,
                "velocity": 40,
                "duration": 0.08181818181818201,
                "tempo": 120.0
            },
            {
                "start_time": 3.918181818181818,
                "end_time": 4.0,
                "pitch": 40,
                "velocity": 40,
                "duration": 0.08181818181818201,
                "tempo": 120.0
            },
            {
                "start_time": 4.018181818181818,
                "end_time": 4.1022727272727275,
                "pitch": 52,
                "velocity": 40,
                "duration": 0.08409090909090988,
                "tempo": 120.0
            },
            {
                "start_time": 4.118181818181818,
                "end_time": 4.202272727272727,
                "pitch": 48,
                "velocity": 40,
                "duration": 0.084090909090909,
                "tempo": 120.0
            },
            {
                "start_time": 4.220454545454546,
                "end_time": 4.302272727272727,
                "pitch": 53,
                "velocity": 40,
                "duration": 0.08181818181818112,
                "tempo": 120.0
            },
            {
                "start_time": 4.320454545454545,
                "end_time": 4.402272727272727,
                "pitch": 49,
                "velocity": 40,
                "duration": 0.08181818181818201,
                "tempo": 120.0
            },
            {
                "start_time": 4.420454545454545,
                "end_time": 4.502272727272727,
                "pitch": 46,
                "velocity": 40,
                "duration": 0.08181818181818201,
                "tempo": 120.0
            },
            {
                "start_time": 4.5204545454545455,
                "end_time": 4.602272727272727,
                "pitch": 41,
                "velocity": 40,
                "duration": 0.08181818181818112,
                "tempo": 120.0
            },
            {
                "start_time": 4.620454545454545,
                "end_time": 4.702272727272727,
                "pitch": 53,
                "velocity": 40,
                "duration": 0.08181818181818201,
                "tempo": 120.0
            },
            {
                "start_time": 4.720454545454545,
                "end_time": 4.802272727272727,
                "pitch": 48,
                "velocity": 40,
                "duration": 0.08181818181818201,
                "tempo": 120.0
            },
            {
                "start_time": 4.820454545454545,
                "end_time": 4.902272727272727,
                "pitch": 50,
                "velocity": 40,
                "duration": 0.08181818181818201,
                "tempo": 120.0
            },
            {
                "start_time": 4.920454545454545,
                "end_time": 5.002272727272727,
                "pitch": 47,
                "velocity": 40,
                "duration": 0.08181818181818201,
                "tempo": 120.0
            },
            {
                "start_time": 5.0204545454545455,
                "end_time": 5.102272727272727,
                "pitch": 44,
                "velocity": 40,
                "duration": 0.08181818181818112,
                "tempo": 120.0
            },
            {
                "start_time": 5.120454545454545,
                "end_time": 5.204545454545454,
                "pitch": 41,
                "velocity": 40,
                "duration": 0.084090909090909,
                "tempo": 120.0
            },
            {
                "start_time": 5.220454545454545,
                "end_time": 5.304545454545455,
                "pitch": 38,
                "velocity": 40,
                "duration": 0.08409090909090988,
                "tempo": 120.0
            },
            {
                "start_time": 5.322727272727272,
                "end_time": 5.404545454545454,
                "pitch": 41,
                "velocity": 40,
                "duration": 0.08181818181818201,
                "tempo": 120.0
            },
            {
                "start_time": 5.422727272727273,
                "end_time": 5.506818181818182,
                "pitch": 52,
                "velocity": 40,
                "duration": 0.084090909090909,
                "tempo": 120.0
            },
            {
                "start_time": 5.5249999999999995,
                "end_time": 5.611363636363636,
                "pitch": 48,
                "velocity": 40,
                "duration": 0.08636363636363686,
                "tempo": 120.0
            },
            {
                "start_time": 5.629545454545454,
                "end_time": 5.715909090909091,
                "pitch": 45,
                "velocity": 40,
                "duration": 0.08636363636363686,
                "tempo": 120.0
            },
            {
                "start_time": 5.7340909090909085,
                "end_time": 5.8136363636363635,
                "pitch": 40,
                "velocity": 40,
                "duration": 0.07954545454545503,
                "tempo": 120.0
            },
            {
                "start_time": 5.829545454545454,
                "end_time": 5.911363636363636,
                "pitch": 45,
                "velocity": 40,
                "duration": 0.08181818181818201,
                "tempo": 120.0
            },
            {
                "start_time": 5.927272727272727,
                "end_time": 6.009090909090909,
                "pitch": 48,
                "velocity": 40,
                "duration": 0.08181818181818201,
                "tempo": 120.0
            },
            {
                "start_time": 6.0249999999999995,
                "end_time": 6.1068181818181815,
                "pitch": 52,
                "velocity": 40,
                "duration": 0.08181818181818201,
                "tempo": 120.0
            },
            {
                "start_time": 6.125,
                "end_time": 6.209090909090909,
                "pitch": 48,
                "velocity": 40,
                "duration": 0.084090909090909,
                "tempo": 120.0
            },
            {
                "start_time": 6.225,
                "end_time": 6.309090909090909,
                "pitch": 45,
                "velocity": 40,
                "duration": 0.084090909090909,
                "tempo": 120.0
            },
            {
                "start_time": 6.324999999999999,
                "end_time": 6.409090909090909,
                "pitch": 40,
                "velocity": 40,
                "duration": 0.08409090909090988,
                "tempo": 120.0
            },
            {
                "start_time": 6.425,
                "end_time": 6.509090909090909,
                "pitch": 52,
                "velocity": 40,
                "duration": 0.084090909090909,
                "tempo": 120.0
            },
            {
                "start_time": 6.5249999999999995,
                "end_time": 6.6090909090909085,
                "pitch": 48,
                "velocity": 40,
                "duration": 0.084090909090909,
                "tempo": 120.0
            },
            {
                "start_time": 6.625,
                "end_time": 6.711363636363636,
                "pitch": 53,
                "velocity": 40,
                "duration": 0.08636363636363598,
                "tempo": 120.0
            },
            {
                "start_time": 6.7295454545454545,
                "end_time": 6.8159090909090905,
                "pitch": 49,
                "velocity": 40,
                "duration": 0.08636363636363598,
                "tempo": 120.0
            },
            {
                "start_time": 6.834090909090909,
                "end_time": 6.918181818181818,
                "pitch": 46,
                "velocity": 40,
                "duration": 0.084090909090909,
                "tempo": 120.0
            },
            {
                "start_time": 6.936363636363636,
                "end_time": 7.018181818181818,
                "pitch": 41,
                "velocity": 40,
                "duration": 0.08181818181818201,
                "tempo": 120.0
            },
            {
                "start_time": 7.034090909090909,
                "end_time": 7.113636363636363,
                "pitch": 53,
                "velocity": 40,
                "duration": 0.07954545454545414,
                "tempo": 120.0
            },
            {
                "start_time": 7.131818181818182,
                "end_time": 7.211363636363636,
                "pitch": 48,
                "velocity": 40,
                "duration": 0.07954545454545414,
                "tempo": 120.0
            },
            {
                "start_time": 7.2295454545454545,
                "end_time": 7.311363636363636,
                "pitch": 50,
                "velocity": 40,
                "duration": 0.08181818181818112,
                "tempo": 120.0
            },
            {
                "start_time": 7.329545454545454,
                "end_time": 7.411363636363636,
                "pitch": 47,
                "velocity": 40,
                "duration": 0.08181818181818201,
                "tempo": 120.0
            },
            {
                "start_time": 7.429545454545454,
                "end_time": 7.511363636363636,
                "pitch": 44,
                "velocity": 40,
                "duration": 0.08181818181818201,
                "tempo": 120.0
            },
            {
                "start_time": 7.529545454545454,
                "end_time": 7.613636363636363,
                "pitch": 41,
                "velocity": 40,
                "duration": 0.084090909090909,
                "tempo": 120.0
            },
            {
                "start_time": 7.631818181818182,
                "end_time": 7.718181818181818,
                "pitch": 38,
                "velocity": 40,
                "duration": 0.08636363636363598,
                "tempo": 120.0
            },
            {
                "start_time": 7.736363636363636,
                "end_time": 7.822727272727272,
                "pitch": 41,
                "velocity": 40,
                "duration": 0.08636363636363598,
                "tempo": 120.0
            },
            {
                "start_time": 7.840909090909091,
                "end_time": 7.922727272727272,
                "pitch": 52,
                "velocity": 40,
                "duration": 0.08181818181818112,
                "tempo": 120.0
            },
            {
                "start_time": 7.9409090909090905,
                "end_time": 8.025,
                "pitch": 48,
                "velocity": 40,
                "duration": 0.08409090909090988,
                "tempo": 120.0
            },
            {
                "start_time": 8.040909090909091,
                "end_time": 8.125,
                "pitch": 45,
                "velocity": 40,
                "duration": 0.084090909090909,
                "tempo": 120.0
            },
            {
                "start_time": 8.14090909090909,
                "end_time": 8.225,
                "pitch": 40,
                "velocity": 40,
                "duration": 0.084090909090909,
                "tempo": 120.0
            },
            {
                "start_time": 8.24090909090909,
                "end_time": 8.325,
                "pitch": 45,
                "velocity": 40,
                "duration": 0.084090909090909,
                "tempo": 120.0
            },
            {
                "start_time": 8.343181818181817,
                "end_time": 8.424999999999999,
                "pitch": 48,
                "velocity": 40,
                "duration": 0.08181818181818201,
                "tempo": 120.0
            },
            {
                "start_time": 8.443181818181818,
                "end_time": 8.522727272727272,
                "pitch": 52,
                "velocity": 40,
                "duration": 0.07954545454545325,
                "tempo": 120.0
            },
            {
                "start_time": 8.538636363636364,
                "end_time": 8.620454545454544,
                "pitch": 48,
                "velocity": 40,
                "duration": 0.08181818181818024,
                "tempo": 120.0
            },
            {
                "start_time": 8.636363636363637,
                "end_time": 8.718181818181817,
                "pitch": 45,
                "velocity": 40,
                "duration": 0.08181818181818024,
                "tempo": 120.0
            },
            {
                "start_time": 8.73409090909091,
                "end_time": 8.820454545454545,
                "pitch": 40,
                "velocity": 40,
                "duration": 0.08636363636363598,
                "tempo": 120.0
            },
            {
                "start_time": 8.836363636363636,
                "end_time": 8.922727272727272,
                "pitch": 52,
                "velocity": 40,
                "duration": 0.08636363636363598,
                "tempo": 120.0
            },
            {
                "start_time": 8.940909090909091,
                "end_time": 9.027272727272727,
                "pitch": 48,
                "velocity": 40,
                "duration": 0.08636363636363598,
                "tempo": 120.0
            },
            {
                "start_time": 9.045454545454545,
                "end_time": 9.127272727272727,
                "pitch": 53,
                "velocity": 40,
                "duration": 0.08181818181818201,
                "tempo": 120.0
            },
            {
                "start_time": 9.145454545454545,
                "end_time": 9.227272727272727,
                "pitch": 49,
                "velocity": 40,
                "duration": 0.08181818181818201,
                "tempo": 120.0
            },
            {
                "start_time": 9.245454545454544,
                "end_time": 9.327272727272726,
                "pitch": 46,
                "velocity": 40,
                "duration": 0.08181818181818201,
                "tempo": 120.0
            },
            {
                "start_time": 9.345454545454546,
                "end_time": 9.429545454545455,
                "pitch": 41,
                "velocity": 40,
                "duration": 0.084090909090909,
                "tempo": 120.0
            },
            {
                "start_time": 9.445454545454545,
                "end_time": 9.529545454545454,
                "pitch": 53,
                "velocity": 40,
                "duration": 0.084090909090909,
                "tempo": 120.0
            },
            {
                "start_time": 9.547727272727272,
                "end_time": 9.629545454545454,
                "pitch": 48,
                "velocity": 40,
                "duration": 0.08181818181818201,
                "tempo": 120.0
            },
            {
                "start_time": 9.647727272727272,
                "end_time": 9.829545454545453,
                "pitch": 46,
                "velocity": 40,
                "duration": 0.18181818181818166,
                "tempo": 120.0
            },
            {
                "start_time": 9.847727272727273,
                "end_time": 9.929545454545455,
                "pitch": 41,
                "velocity": 40,
                "duration": 0.08181818181818201,
                "tempo": 120.0
            },
            {
                "start_time": 9.947727272727272,
                "end_time": 10.031818181818181,
                "pitch": 46,
                "velocity": 40,
                "duration": 0.084090909090909,
                "tempo": 120.0
            },
            {
                "start_time": 10.047727272727272,
                "end_time": 10.131818181818181,
                "pitch": 53,
                "velocity": 40,
                "duration": 0.084090909090909,
                "tempo": 120.0
            },
            {
                "start_time": 10.147727272727272,
                "end_time": 10.23181818181818,
                "pitch": 50,
                "velocity": 40,
                "duration": 0.084090909090909,
                "tempo": 120.0
            },
            {
                "start_time": 10.25,
                "end_time": 10.434090909090909,
                "pitch": 46,
                "velocity": 40,
                "duration": 0.18409090909090864,
                "tempo": 120.0
            },
            {
                "start_time": 10.45,
                "end_time": 10.534090909090908,
                "pitch": 41,
                "velocity": 40,
                "duration": 0.084090909090909,
                "tempo": 120.0
            },
            {
                "start_time": 10.549999999999999,
                "end_time": 10.634090909090908,
                "pitch": 46,
                "velocity": 40,
                "duration": 0.084090909090909,
                "tempo": 120.0
            },
            {
                "start_time": 10.652272727272727,
                "end_time": 10.73409090909091,
                "pitch": 53,
                "velocity": 40,
                "duration": 0.08181818181818201,
                "tempo": 120.0
            },
            {
                "start_time": 10.752272727272727,
                "end_time": 10.834090909090909,
                "pitch": 50,
                "velocity": 40,
                "duration": 0.08181818181818201,
                "tempo": 120.0
            },
            {
                "start_time": 10.852272727272727,
                "end_time": 11.036363636363635,
                "pitch": 46,
                "velocity": 40,
                "duration": 0.18409090909090864,
                "tempo": 120.0
            },
            {
                "start_time": 11.052272727272726,
                "end_time": 11.136363636363637,
                "pitch": 41,
                "velocity": 40,
                "duration": 0.08409090909091077,
                "tempo": 120.0
            },
            {
                "start_time": 11.152272727272727,
                "end_time": 11.236363636363636,
                "pitch": 46,
                "velocity": 40,
                "duration": 0.084090909090909,
                "tempo": 120.0
            },
            {
                "start_time": 11.254545454545454,
                "end_time": 11.336363636363636,
                "pitch": 53,
                "velocity": 40,
                "duration": 0.08181818181818201,
                "tempo": 120.0
            },
            {
                "start_time": 11.354545454545454,
                "end_time": 11.436363636363636,
                "pitch": 50,
                "velocity": 40,
                "duration": 0.08181818181818201,
                "tempo": 120.0
            },
            {
                "start_time": 11.454545454545453,
                "end_time": 11.638636363636364,
                "pitch": 46,
                "velocity": 40,
                "duration": 0.18409090909091042,
                "tempo": 120.0
            },
            {
                "start_time": 11.654545454545454,
                "end_time": 11.738636363636363,
                "pitch": 41,
                "velocity": 40,
                "duration": 0.084090909090909,
                "tempo": 120.0
            },
            {
                "start_time": 11.754545454545454,
                "end_time": 11.838636363636363,
                "pitch": 46,
                "velocity": 40,
                "duration": 0.084090909090909,
                "tempo": 120.0
            },
            {
                "start_time": 11.85681818181818,
                "end_time": 11.938636363636363,
                "pitch": 53,
                "velocity": 40,
                "duration": 0.08181818181818201,
                "tempo": 120.0
            },
            {
                "start_time": 11.956818181818182,
                "end_time": 12.040909090909091,
                "pitch": 50,
                "velocity": 40,
                "duration": 0.084090909090909,
                "tempo": 120.0
            },
            {
                "start_time": 12.059090909090909,
                "end_time": 12.24090909090909,
                "pitch": 47,
                "velocity": 40,
                "duration": 0.18181818181818166,
                "tempo": 120.0
            },
            {
                "start_time": 12.256818181818181,
                "end_time": 12.34090909090909,
                "pitch": 44,
                "velocity": 40,
                "duration": 0.084090909090909,
                "tempo": 120.0
            },
            {
                "start_time": 12.35681818181818,
                "end_time": 12.44090909090909,
                "pitch": 47,
                "velocity": 40,
                "duration": 0.084090909090909,
                "tempo": 120.0
            },
            {
                "start_time": 12.459090909090909,
                "end_time": 12.543181818181818,
                "pitch": 53,
                "velocity": 40,
                "duration": 0.084090909090909,
                "tempo": 120.0
            },
            {
                "start_time": 12.559090909090909,
                "end_time": 12.643181818181818,
                "pitch": 50,
                "velocity": 40,
                "duration": 0.084090909090909,
                "tempo": 120.0
            },
            {
                "start_time": 12.661363636363635,
                "end_time": 12.843181818181817,
                "pitch": 47,
                "velocity": 40,
                "duration": 0.18181818181818166,
                "tempo": 120.0
            },
            {
                "start_time": 12.85909090909091,
                "end_time": 12.943181818181818,
                "pitch": 44,
                "velocity": 40,
                "duration": 0.084090909090909,
                "tempo": 120.0
            },
            {
                "start_time": 12.959090909090909,
                "end_time": 13.043181818181818,
                "pitch": 47,
                "velocity": 40,
                "duration": 0.084090909090909,
                "tempo": 120.0
            },
            {
                "start_time": 13.061363636363636,
                "end_time": 13.145454545454545,
                "pitch": 53,
                "velocity": 40,
                "duration": 0.084090909090909,
                "tempo": 120.0
            },
            {
                "start_time": 13.161363636363635,
                "end_time": 13.245454545454544,
                "pitch": 50,
                "velocity": 40,
                "duration": 0.084090909090909,
                "tempo": 120.0
            },
            {
                "start_time": 13.263636363636364,
                "end_time": 13.445454545454545,
                "pitch": 47,
                "velocity": 40,
                "duration": 0.18181818181818166,
                "tempo": 120.0
            },
            {
                "start_time": 13.463636363636363,
                "end_time": 13.547727272727272,
                "pitch": 44,
                "velocity": 40,
                "duration": 0.084090909090909,
                "tempo": 120.0
            },
            {
                "start_time": 13.563636363636363,
                "end_time": 13.647727272727272,
                "pitch": 47,
                "velocity": 40,
                "duration": 0.084090909090909,
                "tempo": 120.0
            },
            {
                "start_time": 13.663636363636362,
                "end_time": 13.747727272727271,
                "pitch": 53,
                "velocity": 40,
                "duration": 0.084090909090909,
                "tempo": 120.0
            },
            {
                "start_time": 13.763636363636364,
                "end_time": 13.847727272727273,
                "pitch": 50,
                "velocity": 40,
                "duration": 0.084090909090909,
                "tempo": 120.0
            },
            {
                "start_time": 13.86590909090909,
                "end_time": 14.047727272727272,
                "pitch": 47,
                "velocity": 40,
                "duration": 0.18181818181818166,
                "tempo": 120.0
            },
            {
                "start_time": 14.06590909090909,
                "end_time": 14.149999999999999,
                "pitch": 44,
                "velocity": 40,
                "duration": 0.084090909090909,
                "tempo": 120.0
            },
            {
                "start_time": 14.165909090909091,
                "end_time": 14.25,
                "pitch": 47,
                "velocity": 40,
                "duration": 0.084090909090909,
                "tempo": 120.0
            },
            {
                "start_time": 14.26590909090909,
                "end_time": 14.35,
                "pitch": 53,
                "velocity": 40,
                "duration": 0.084090909090909,
                "tempo": 120.0
            },
            {
                "start_time": 14.36590909090909,
                "end_time": 14.45,
                "pitch": 50,
                "velocity": 40,
                "duration": 0.084090909090909,
                "tempo": 120.0
            },
            {
                "start_time": 14.468181818181817,
                "end_time": 14.649999999999999,
                "pitch": 46,
                "velocity": 40,
                "duration": 0.18181818181818166,
                "tempo": 120.0
            },
            {
                "start_time": 14.668181818181818,
                "end_time": 14.752272727272727,
                "pitch": 41,
                "velocity": 40,
                "duration": 0.084090909090909,
                "tempo": 120.0
            },
            {
                "start_time": 14.768181818181818,
                "end_time": 14.852272727272727,
                "pitch": 46,
                "velocity": 40,
                "duration": 0.084090909090909,
                "tempo": 120.0
            },
            {
                "start_time": 14.870454545454544,
                "end_time": 14.952272727272726,
                "pitch": 53,
                "velocity": 40,
                "duration": 0.08181818181818201,
                "tempo": 120.0
            },
            {
                "start_time": 14.970454545454544,
                "end_time": 15.054545454545455,
                "pitch": 50,
                "velocity": 40,
                "duration": 0.08409090909091077,
                "tempo": 120.0
            },
            {
                "start_time": 15.070454545454545,
                "end_time": 15.254545454545454,
                "pitch": 46,
                "velocity": 40,
                "duration": 0.18409090909090864,
                "tempo": 120.0
            },
            {
                "start_time": 15.270454545454545,
                "end_time": 15.354545454545454,
                "pitch": 41,
                "velocity": 40,
                "duration": 0.084090909090909,
                "tempo": 120.0
            },
            {
                "start_time": 15.370454545454544,
                "end_time": 15.454545454545453,
                "pitch": 46,
                "velocity": 40,
                "duration": 0.084090909090909,
                "tempo": 120.0
            },
            {
                "start_time": 15.472727272727273,
                "end_time": 15.554545454545455,
                "pitch": 53,
                "velocity": 40,
                "duration": 0.08181818181818201,
                "tempo": 120.0
            },
            {
                "start_time": 15.572727272727272,
                "end_time": 15.656818181818181,
                "pitch": 50,
                "velocity": 40,
                "duration": 0.084090909090909,
                "tempo": 120.0
            },
            {
                "start_time": 15.672727272727272,
                "end_time": 15.85681818181818,
                "pitch": 46,
                "velocity": 40,
                "duration": 0.18409090909090864,
                "tempo": 120.0
            },
            {
                "start_time": 15.872727272727271,
                "end_time": 15.95681818181818,
                "pitch": 41,
                "velocity": 40,
                "duration": 0.084090909090909,
                "tempo": 120.0
            },
            {
                "start_time": 15.972727272727273,
                "end_time": 16.05681818181818,
                "pitch": 46,
                "velocity": 40,
                "duration": 0.08409090909090722,
                "tempo": 120.0
            },
            {
                "start_time": 16.075,
                "end_time": 16.15681818181818,
                "pitch": 53,
                "velocity": 40,
                "duration": 0.08181818181818201,
                "tempo": 120.0
            },
            {
                "start_time": 16.175,
                "end_time": 16.259090909090908,
                "pitch": 50,
                "velocity": 40,
                "duration": 0.08409090909090722,
                "tempo": 120.0
            },
            {
                "start_time": 16.275,
                "end_time": 16.46363636363636,
                "pitch": 46,
                "velocity": 40,
                "duration": 0.1886363636363626,
                "tempo": 120.0
            },
            {
                "start_time": 16.48181818181818,
                "end_time": 16.568181818181817,
                "pitch": 41,
                "velocity": 40,
                "duration": 0.08636363636363598,
                "tempo": 120.0
            },
            {
                "start_time": 16.586363636363636,
                "end_time": 16.670454545454543,
                "pitch": 46,
                "velocity": 40,
                "duration": 0.08409090909090722,
                "tempo": 120.0
            },
            {
                "start_time": 16.686363636363634,
                "end_time": 16.770454545454545,
                "pitch": 53,
                "velocity": 40,
                "duration": 0.08409090909091077,
                "tempo": 120.0
            },
            {
                "start_time": 16.786363636363635,
                "end_time": 16.870454545454546,
                "pitch": 50,
                "velocity": 40,
                "duration": 0.08409090909091077,
                "tempo": 120.0
            },
            {
                "start_time": 16.89090909090909,
                "end_time": 16.970454545454544,
                "pitch": 50,
                "velocity": 40,
                "duration": 0.07954545454545325,
                "tempo": 120.0
            },
            {
                "start_time": 16.988636363636363,
                "end_time": 17.070454545454545,
                "pitch": 47,
                "velocity": 40,
                "duration": 0.08181818181818201,
                "tempo": 120.0
            },
            {
                "start_time": 17.08863636363636,
                "end_time": 17.172727272727272,
                "pitch": 44,
                "velocity": 40,
                "duration": 0.08409090909091077,
                "tempo": 120.0
            },
            {
                "start_time": 17.188636363636363,
                "end_time": 17.272727272727273,
                "pitch": 41,
                "velocity": 40,
                "duration": 0.08409090909091077,
                "tempo": 120.0
            },
            {
                "start_time": 17.288636363636364,
                "end_time": 17.37272727272727,
                "pitch": 38,
                "velocity": 40,
                "duration": 0.08409090909090722,
                "tempo": 120.0
            },
            {
                "start_time": 17.39090909090909,
                "end_time": 17.472727272727273,
                "pitch": 41,
                "velocity": 40,
                "duration": 0.08181818181818201,
                "tempo": 120.0
            },
            {
                "start_time": 17.49090909090909,
                "end_time": 17.575,
                "pitch": 52,
                "velocity": 40,
                "duration": 0.08409090909091077,
                "tempo": 120.0
            },
            {
                "start_time": 17.59090909090909,
                "end_time": 17.675,
                "pitch": 48,
                "velocity": 40,
                "duration": 0.08409090909091077,
                "tempo": 120.0
            },
            {
                "start_time": 17.69090909090909,
                "end_time": 17.775,
                "pitch": 45,
                "velocity": 40,
                "duration": 0.08409090909090722,
                "tempo": 120.0
            },
            {
                "start_time": 17.793181818181818,
                "end_time": 17.875,
                "pitch": 40,
                "velocity": 40,
                "duration": 0.08181818181818201,
                "tempo": 120.0
            },
            {
                "start_time": 17.893181818181816,
                "end_time": 17.977272727272727,
                "pitch": 45,
                "velocity": 40,
                "duration": 0.08409090909091077,
                "tempo": 120.0
            },
            {
                "start_time": 17.993181818181817,
                "end_time": 18.077272727272728,
                "pitch": 48,
                "velocity": 40,
                "duration": 0.08409090909091077,
                "tempo": 120.0
            },
            {
                "start_time": 18.095454545454544,
                "end_time": 18.177272727272726,
                "pitch": 52,
                "velocity": 40,
                "duration": 0.08181818181818201,
                "tempo": 120.0
            },
            {
                "start_time": 18.195454545454545,
                "end_time": 18.279545454545453,
                "pitch": 48,
                "velocity": 40,
                "duration": 0.08409090909090722,
                "tempo": 120.0
            },
            {
                "start_time": 18.295454545454543,
                "end_time": 18.379545454545454,
                "pitch": 45,
                "velocity": 40,
                "duration": 0.08409090909091077,
                "tempo": 120.0
            },
            {
                "start_time": 18.395454545454545,
                "end_time": 18.479545454545455,
                "pitch": 40,
                "velocity": 40,
                "duration": 0.08409090909091077,
                "tempo": 120.0
            },
            {
                "start_time": 18.49772727272727,
                "end_time": 18.579545454545453,
                "pitch": 52,
                "velocity": 40,
                "duration": 0.08181818181818201,
                "tempo": 120.0
            },
            {
                "start_time": 18.597727272727273,
                "end_time": 18.679545454545455,
                "pitch": 48,
                "velocity": 40,
                "duration": 0.08181818181818201,
                "tempo": 120.0
            },
            {
                "start_time": 18.69772727272727,
                "end_time": 18.779545454545453,
                "pitch": 53,
                "velocity": 40,
                "duration": 0.08181818181818201,
                "tempo": 120.0
            },
            {
                "start_time": 18.797727272727272,
                "end_time": 18.88181818181818,
                "pitch": 49,
                "velocity": 40,
                "duration": 0.08409090909090722,
                "tempo": 120.0
            },
            {
                "start_time": 18.897727272727273,
                "end_time": 18.98181818181818,
                "pitch": 46,
                "velocity": 40,
                "duration": 0.08409090909090722,
                "tempo": 120.0
            },
            {
                "start_time": 18.99772727272727,
                "end_time": 19.081818181818182,
                "pitch": 41,
                "velocity": 40,
                "duration": 0.08409090909091077,
                "tempo": 120.0
            },
            {
                "start_time": 19.099999999999998,
                "end_time": 19.18181818181818,
                "pitch": 53,
                "velocity": 40,
                "duration": 0.08181818181818201,
                "tempo": 120.0
            },
            {
                "start_time": 19.2,
                "end_time": 19.284090909090907,
                "pitch": 48,
                "velocity": 40,
                "duration": 0.08409090909090722,
                "tempo": 120.0
            },
            {
                "start_time": 19.302272727272726,
                "end_time": 19.384090909090908,
                "pitch": 50,
                "velocity": 40,
                "duration": 0.08181818181818201,
                "tempo": 120.0
            },
            {
                "start_time": 19.402272727272727,
                "end_time": 19.48409090909091,
                "pitch": 47,
                "velocity": 40,
                "duration": 0.08181818181818201,
                "tempo": 120.0
            },
            {
                "start_time": 19.502272727272725,
                "end_time": 19.584090909090907,
                "pitch": 44,
                "velocity": 40,
                "duration": 0.08181818181818201,
                "tempo": 120.0
            },
            {
                "start_time": 19.602272727272727,
                "end_time": 19.686363636363634,
                "pitch": 41,
                "velocity": 40,
                "duration": 0.08409090909090722,
                "tempo": 120.0
            },
            {
                "start_time": 19.702272727272728,
                "end_time": 19.786363636363635,
                "pitch": 38,
                "velocity": 40,
                "duration": 0.08409090909090722,
                "tempo": 120.0
            },
            {
                "start_time": 19.804545454545455,
                "end_time": 19.886363636363637,
                "pitch": 41,
                "velocity": 40,
                "duration": 0.08181818181818201,
                "tempo": 120.0
            },
            {
                "start_time": 19.904545454545453,
                "end_time": 19.99090909090909,
                "pitch": 52,
                "velocity": 40,
                "duration": 0.08636363636363598,
                "tempo": 120.0
            },
            {
                "start_time": 20.00681818181818,
                "end_time": 20.09318181818182,
                "pitch": 48,
                "velocity": 40,
                "duration": 0.08636363636363953,
                "tempo": 120.0
            },
            {
                "start_time": 20.111363636363635,
                "end_time": 20.19772727272727,
                "pitch": 45,
                "velocity": 40,
                "duration": 0.08636363636363598,
                "tempo": 120.0
            },
            {
                "start_time": 20.21590909090909,
                "end_time": 20.295454545454543,
                "pitch": 40,
                "velocity": 40,
                "duration": 0.07954545454545325,
                "tempo": 120.0
            },
            {
                "start_time": 20.313636363636363,
                "end_time": 20.393181818181816,
                "pitch": 45,
                "velocity": 40,
                "duration": 0.07954545454545325,
                "tempo": 120.0
            },
            {
                "start_time": 20.409090909090907,
                "end_time": 20.49090909090909,
                "pitch": 48,
                "velocity": 40,
                "duration": 0.08181818181818201,
                "tempo": 120.0
            },
            {
                "start_time": 20.50681818181818,
                "end_time": 20.59090909090909,
                "pitch": 52,
                "velocity": 40,
                "duration": 0.08409090909091077,
                "tempo": 120.0
            },
            {
                "start_time": 20.60681818181818,
                "end_time": 20.69090909090909,
                "pitch": 48,
                "velocity": 40,
                "duration": 0.08409090909091077,
                "tempo": 120.0
            },
            {
                "start_time": 20.709090909090907,
                "end_time": 20.79090909090909,
                "pitch": 45,
                "velocity": 40,
                "duration": 0.08181818181818201,
                "tempo": 120.0
            },
            {
                "start_time": 20.80909090909091,
                "end_time": 20.893181818181816,
                "pitch": 40,
                "velocity": 40,
                "duration": 0.08409090909090722,
                "tempo": 120.0
            },
            {
                "start_time": 20.909090909090907,
                "end_time": 20.993181818181817,
                "pitch": 52,
                "velocity": 40,
                "duration": 0.08409090909091077,
                "tempo": 120.0
            },
            {
                "start_time": 21.009090909090908,
                "end_time": 21.09318181818182,
                "pitch": 48,
                "velocity": 40,
                "duration": 0.08409090909091077,
                "tempo": 120.0
            },
            {
                "start_time": 21.111363636363635,
                "end_time": 21.193181818181817,
                "pitch": 53,
                "velocity": 40,
                "duration": 0.08181818181818201,
                "tempo": 120.0
            },
            {
                "start_time": 21.211363636363636,
                "end_time": 21.295454545454543,
                "pitch": 49,
                "velocity": 40,
                "duration": 0.08409090909090722,
                "tempo": 120.0
            },
            {
                "start_time": 21.311363636363634,
                "end_time": 21.395454545454545,
                "pitch": 46,
                "velocity": 40,
                "duration": 0.08409090909091077,
                "tempo": 120.0
            },
            {
                "start_time": 21.413636363636364,
                "end_time": 21.495454545454546,
                "pitch": 41,
                "velocity": 40,
                "duration": 0.08181818181818201,
                "tempo": 120.0
            },
            {
                "start_time": 21.513636363636362,
                "end_time": 21.595454545454544,
                "pitch": 53,
                "velocity": 40,
                "duration": 0.08181818181818201,
                "tempo": 120.0
            },
            {
                "start_time": 21.613636363636363,
                "end_time": 21.695454545454545,
                "pitch": 48,
                "velocity": 40,
                "duration": 0.08181818181818201,
                "tempo": 120.0
            },
            {
                "start_time": 21.71363636363636,
                "end_time": 21.797727272727272,
                "pitch": 37,
                "velocity": 40,
                "duration": 0.08409090909091077,
                "tempo": 120.0
            },
            {
                "start_time": 21.813636363636363,
                "end_time": 21.897727272727273,
                "pitch": 38,
                "velocity": 40,
                "duration": 0.08409090909091077,
                "tempo": 120.0
            },
            {
                "start_time": 21.91590909090909,
                "end_time": 21.99772727272727,
                "pitch": 40,
                "velocity": 40,
                "duration": 0.08181818181818201,
                "tempo": 120.0
            },
            {
                "start_time": 22.01590909090909,
                "end_time": 22.097727272727273,
                "pitch": 41,
                "velocity": 40,
                "duration": 0.08181818181818201,
                "tempo": 120.0
            },
            {
                "start_time": 22.11590909090909,
                "end_time": 22.2,
                "pitch": 43,
                "velocity": 40,
                "duration": 0.08409090909091077,
                "tempo": 120.0
            },
            {
                "start_time": 22.21590909090909,
                "end_time": 22.299999999999997,
                "pitch": 44,
                "velocity": 40,
                "duration": 0.08409090909090722,
                "tempo": 120.0
            },
            {
                "start_time": 22.318181818181817,
                "end_time": 22.4,
                "pitch": 46,
                "velocity": 40,
                "duration": 0.08181818181818201,
                "tempo": 120.0
            },
            {
                "start_time": 22.418181818181818,
                "end_time": 22.5,
                "pitch": 47,
                "velocity": 40,
                "duration": 0.08181818181818201,
                "tempo": 120.0
            },
            {
                "start_time": 22.518181818181816,
                "end_time": 22.602272727272727,
                "pitch": 46,
                "velocity": 40,
                "duration": 0.08409090909091077,
                "tempo": 120.0
            },
            {
                "start_time": 22.620454545454546,
                "end_time": 22.702272727272724,
                "pitch": 44,
                "velocity": 40,
                "duration": 0.08181818181817846,
                "tempo": 120.0
            },
            {
                "start_time": 22.720454545454544,
                "end_time": 22.802272727272726,
                "pitch": 43,
                "velocity": 40,
                "duration": 0.08181818181818201,
                "tempo": 120.0
            },
            {
                "start_time": 22.820454545454545,
                "end_time": 22.904545454545453,
                "pitch": 41,
                "velocity": 40,
                "duration": 0.08409090909090722,
                "tempo": 120.0
            },
            {
                "start_time": 22.920454545454543,
                "end_time": 23.004545454545454,
                "pitch": 40,
                "velocity": 40,
                "duration": 0.08409090909091077,
                "tempo": 120.0
            },
            {
                "start_time": 23.020454545454545,
                "end_time": 23.104545454545452,
                "pitch": 38,
                "velocity": 40,
                "duration": 0.08409090909090722,
                "tempo": 120.0
            },
            {
                "start_time": 23.120454545454546,
                "end_time": 23.204545454545453,
                "pitch": 37,
                "velocity": 40,
                "duration": 0.08409090909090722,
                "tempo": 120.0
            },
            {
                "start_time": 23.222727272727273,
                "end_time": 23.304545454545455,
                "pitch": 38,
                "velocity": 40,
                "duration": 0.08181818181818201,
                "tempo": 120.0
            },
            {
                "start_time": 23.32272727272727,
                "end_time": 23.404545454545453,
                "pitch": 40,
                "velocity": 40,
                "duration": 0.08181818181818201,
                "tempo": 120.0
            },
            {
                "start_time": 23.422727272727272,
                "end_time": 23.50681818181818,
                "pitch": 41,
                "velocity": 40,
                "duration": 0.08409090909090722,
                "tempo": 120.0
            },
            {
                "start_time": 23.52272727272727,
                "end_time": 23.60681818181818,
                "pitch": 43,
                "velocity": 40,
                "duration": 0.08409090909091077,
                "tempo": 120.0
            },
            {
                "start_time": 23.625,
                "end_time": 23.706818181818182,
                "pitch": 44,
                "velocity": 40,
                "duration": 0.08181818181818201,
                "tempo": 120.0
            },
            {
                "start_time": 23.724999999999998,
                "end_time": 23.80681818181818,
                "pitch": 46,
                "velocity": 40,
                "duration": 0.08181818181818201,
                "tempo": 120.0
            },
            {
                "start_time": 23.825,
                "end_time": 23.911363636363635,
                "pitch": 47,
                "velocity": 40,
                "duration": 0.08636363636363598,
                "tempo": 120.0
            },
            {
                "start_time": 23.929545454545455,
                "end_time": 24.013636363636362,
                "pitch": 46,
                "velocity": 40,
                "duration": 0.08409090909090722,
                "tempo": 120.0
            },
            {
                "start_time": 24.03181818181818,
                "end_time": 24.118181818181817,
                "pitch": 44,
                "velocity": 40,
                "duration": 0.08636363636363598,
                "tempo": 120.0
            },
            {
                "start_time": 24.136363636363637,
                "end_time": 24.220454545454544,
                "pitch": 41,
                "velocity": 40,
                "duration": 0.08409090909090722,
                "tempo": 120.0
            },
            {
                "start_time": 24.236363636363635,
                "end_time": 24.320454545454545,
                "pitch": 44,
                "velocity": 40,
                "duration": 0.08409090909091077,
                "tempo": 120.0
            },
            {
                "start_time": 24.33863636363636,
                "end_time": 24.420454545454543,
                "pitch": 47,
                "velocity": 40,
                "duration": 0.08181818181818201,
                "tempo": 120.0
            },
            {
                "start_time": 24.438636363636363,
                "end_time": 24.520454545454545,
                "pitch": 44,
                "velocity": 40,
                "duration": 0.08181818181818201,
                "tempo": 120.0
            },
            {
                "start_time": 24.538636363636364,
                "end_time": 24.62272727272727,
                "pitch": 47,
                "velocity": 40,
                "duration": 0.08409090909090722,
                "tempo": 120.0
            },
            {
                "start_time": 24.638636363636362,
                "end_time": 24.722727272727273,
                "pitch": 50,
                "velocity": 40,
                "duration": 0.08409090909091077,
                "tempo": 120.0
            },
            {
                "start_time": 24.74090909090909,
                "end_time": 24.82272727272727,
                "pitch": 47,
                "velocity": 40,
                "duration": 0.08181818181818201,
                "tempo": 120.0
            },
            {
                "start_time": 24.84090909090909,
                "end_time": 24.924999999999997,
                "pitch": 50,
                "velocity": 40,
                "duration": 0.08409090909090722,
                "tempo": 120.0
            },
            {
                "start_time": 24.94090909090909,
                "end_time": 25.025,
                "pitch": 53,
                "velocity": 40,
                "duration": 0.08409090909090722,
                "tempo": 120.0
            },
            {
                "start_time": 25.043181818181818,
                "end_time": 25.125,
                "pitch": 50,
                "velocity": 40,
                "duration": 0.08181818181818201,
                "tempo": 120.0
            },
            {
                "start_time": 25.143181818181816,
                "end_time": 25.224999999999998,
                "pitch": 53,
                "velocity": 40,
                "duration": 0.08181818181818201,
                "tempo": 120.0
            },
            {
                "start_time": 25.243181818181817,
                "end_time": 25.327272727272724,
                "pitch": 56,
                "velocity": 40,
                "duration": 0.08409090909090722,
                "tempo": 120.0
            },
            {
                "start_time": 25.345454545454544,
                "end_time": 25.427272727272726,
                "pitch": 53,
                "velocity": 40,
                "duration": 0.08181818181818201,
                "tempo": 120.0
            },
            {
                "start_time": 25.443181818181817,
                "end_time": 25.527272727272727,
                "pitch": 56,
                "velocity": 40,
                "duration": 0.08409090909091077,
                "tempo": 120.0
            },
            {
                "start_time": 25.545454545454543,
                "end_time": 25.627272727272725,
                "pitch": 59,
                "velocity": 40,
                "duration": 0.08181818181818201,
                "tempo": 120.0
            },
            {
                "start_time": 25.645454545454545,
                "end_time": 25.727272727272727,
                "pitch": 56,
                "velocity": 40,
                "duration": 0.08181818181818201,
                "tempo": 120.0
            },
            {
                "start_time": 25.745454545454542,
                "end_time": 25.827272727272724,
                "pitch": 59,
                "velocity": 40,
                "duration": 0.08181818181818201,
                "tempo": 120.0
            },
            {
                "start_time": 25.845454545454544,
                "end_time": 25.929545454545455,
                "pitch": 62,
                "velocity": 40,
                "duration": 0.08409090909091077,
                "tempo": 120.0
            },
            {
                "start_time": 25.945454545454545,
                "end_time": 26.029545454545453,
                "pitch": 59,
                "velocity": 40,
                "duration": 0.08409090909090722,
                "tempo": 120.0
            },
            {
                "start_time": 26.047727272727272,
                "end_time": 26.129545454545454,
                "pitch": 65,
                "velocity": 40,
                "duration": 0.08181818181818201,
                "tempo": 120.0
            },
            {
                "start_time": 26.14772727272727,
                "end_time": 26.23181818181818,
                "pitch": 62,
                "velocity": 40,
                "duration": 0.08409090909091077,
                "tempo": 120.0
            },
            {
                "start_time": 26.24772727272727,
                "end_time": 26.331818181818182,
                "pitch": 59,
                "velocity": 40,
                "duration": 0.08409090909091077,
                "tempo": 120.0
            },
            {
                "start_time": 26.349999999999998,
                "end_time": 26.43181818181818,
                "pitch": 56,
                "velocity": 40,
                "duration": 0.08181818181818201,
                "tempo": 120.0
            },
            {
                "start_time": 26.45,
                "end_time": 26.53181818181818,
                "pitch": 53,
                "velocity": 40,
                "duration": 0.08181818181818201,
                "tempo": 120.0
            },
            {
                "start_time": 27.759090909090908,
                "end_time": 27.83863636363636,
                "pitch": 50,
                "velocity": 40,
                "duration": 0.07954545454545325,
                "tempo": 120.0
            },
            {
                "start_time": 27.85681818181818,
                "end_time": 27.940909090909088,
                "pitch": 47,
                "velocity": 40,
                "duration": 0.08409090909090722,
                "tempo": 120.0
            },
            {
                "start_time": 27.956818181818182,
                "end_time": 28.04090909090909,
                "pitch": 44,
                "velocity": 40,
                "duration": 0.08409090909090722,
                "tempo": 120.0
            }
        ],
        "Violin": [
            {
                "start_time": 0.00909090909090909,
                "end_time": 0.22045454545454543,
                "pitch": 47,
                "velocity": 80,
                "duration": 0.21136363636363634,
                "tempo": 120.0
            },
            {
                "start_time": 0.22045454545454543,
                "end_time": 0.27045454545454545,
                "pitch": 48,
                "velocity": 80,
                "duration": 0.05000000000000002,
                "tempo": 120.0
            },
            {
                "start_time": 0.27045454545454545,
                "end_time": 0.32045454545454544,
                "pitch": 51,
                "velocity": 80,
                "duration": 0.04999999999999999,
                "tempo": 120.0
            },
            {
                "start_time": 0.32045454545454544,
                "end_time": 0.35454545454545455,
                "pitch": 54,
                "velocity": 80,
                "duration": 0.034090909090909116,
                "tempo": 120.0
            },
            {
                "start_time": 0.35454545454545455,
                "end_time": 0.3886363636363636,
                "pitch": 56,
                "velocity": 80,
                "duration": 0.03409090909090906,
                "tempo": 120.0
            },
            {
                "start_time": 0.3886363636363636,
                "end_time": 0.42272727272727273,
                "pitch": 58,
                "velocity": 80,
                "duration": 0.034090909090909116,
                "tempo": 120.0
            },
            {
                "start_time": 0.42272727272727273,
                "end_time": 0.4727272727272727,
                "pitch": 60,
                "velocity": 80,
                "duration": 0.04999999999999999,
                "tempo": 120.0
            },
            {
                "start_time": 0.4727272727272727,
                "end_time": 0.5227272727272727,
                "pitch": 63,
                "velocity": 80,
                "duration": 0.04999999999999999,
                "tempo": 120.0
            },
            {
                "start_time": 0.5227272727272727,
                "end_time": 0.5568181818181818,
                "pitch": 66,
                "velocity": 80,
                "duration": 0.03409090909090906,
                "tempo": 120.0
            },
            {
                "start_time": 0.5568181818181818,
                "end_time": 0.5886363636363636,
                "pitch": 68,
                "velocity": 80,
                "duration": 0.03181818181818186,
                "tempo": 120.0
            },
            {
                "start_time": 0.5886363636363636,
                "end_time": 1.190909090909091,
                "pitch": 70,
                "velocity": 80,
                "duration": 0.6022727272727273,
                "tempo": 120.0
            },
            {
                "start_time": 1.209090909090909,
                "end_time": 1.4249999999999998,
                "pitch": 47,
                "velocity": 80,
                "duration": 0.21590909090909083,
                "tempo": 120.0
            },
            {
                "start_time": 0.22045454545454543,
                "end_time": 1.4249999999999998,
                "pitch": 52,
                "velocity": 80,
                "duration": 1.2045454545454544,
                "tempo": 120.0
            },
            {
                "start_time": 1.4249999999999998,
                "end_time": 1.4749999999999999,
                "pitch": 48,
                "velocity": 80,
                "duration": 0.050000000000000044,
                "tempo": 120.0
            },
            {
                "start_time": 1.4749999999999999,
                "end_time": 1.525,
                "pitch": 51,
                "velocity": 80,
                "duration": 0.050000000000000044,
                "tempo": 120.0
            },
            {
                "start_time": 1.525,
                "end_time": 1.559090909090909,
                "pitch": 54,
                "velocity": 80,
                "duration": 0.03409090909090917,
                "tempo": 120.0
            },
            {
                "start_time": 1.559090909090909,
                "end_time": 1.593181818181818,
                "pitch": 56,
                "velocity": 80,
                "duration": 0.03409090909090895,
                "tempo": 120.0
            },
            {
                "start_time": 1.593181818181818,
                "end_time": 1.625,
                "pitch": 58,
                "velocity": 80,
                "duration": 0.03181818181818197,
                "tempo": 120.0
            },
            {
                "start_time": 0.42272727272727273,
                "end_time": 1.625,
                "pitch": 64,
                "velocity": 80,
                "duration": 1.2022727272727272,
                "tempo": 120.0
            },
            {
                "start_time": 1.625,
                "end_time": 1.6749999999999998,
                "pitch": 60,
                "velocity": 80,
                "duration": 0.04999999999999982,
                "tempo": 120.0
            },
            {
                "start_time": 1.6749999999999998,
                "end_time": 1.7249999999999999,
                "pitch": 63,
                "velocity": 80,
                "duration": 0.050000000000000044,
                "tempo": 120.0
            },
            {
                "start_time": 1.7249999999999999,
                "end_time": 1.759090909090909,
                "pitch": 66,
                "velocity": 80,
                "duration": 0.03409090909090917,
                "tempo": 120.0
            },
            {
                "start_time": 1.759090909090909,
                "end_time": 1.793181818181818,
                "pitch": 68,
                "velocity": 80,
                "duration": 0.03409090909090895,
                "tempo": 120.0
            },
            {
                "start_time": 1.793181818181818,
                "end_time": 2.3954545454545455,
                "pitch": 70,
                "velocity": 80,
                "duration": 0.6022727272727275,
                "tempo": 120.0
            },
            {
                "start_time": 2.415909090909091,
                "end_time": 2.6295454545454544,
                "pitch": 47,
                "velocity": 80,
                "duration": 0.2136363636363634,
                "tempo": 120.0
            },
            {
                "start_time": 1.4249999999999998,
                "end_time": 2.6295454545454544,
                "pitch": 52,
                "velocity": 80,
                "duration": 1.2045454545454546,
                "tempo": 120.0
            },
            {
                "start_time": 2.6295454545454544,
                "end_time": 2.6795454545454542,
                "pitch": 48,
                "velocity": 80,
                "duration": 0.04999999999999982,
                "tempo": 120.0
            },
            {
                "start_time": 2.6795454545454542,
                "end_time": 2.7318181818181815,
                "pitch": 51,
                "velocity": 80,
                "duration": 0.05227272727272725,
                "tempo": 120.0
            },
            {
                "start_time": 2.7318181818181815,
                "end_time": 2.7636363636363637,
                "pitch": 54,
                "velocity": 80,
                "duration": 0.03181818181818219,
                "tempo": 120.0
            },
            {
                "start_time": 2.7636363636363637,
                "end_time": 2.7977272727272724,
                "pitch": 56,
                "velocity": 80,
                "duration": 0.03409090909090873,
                "tempo": 120.0
            },
            {
                "start_time": 2.7977272727272724,
                "end_time": 2.8318181818181816,
                "pitch": 58,
                "velocity": 80,
                "duration": 0.03409090909090917,
                "tempo": 120.0
            },
            {
                "start_time": 1.625,
                "end_time": 2.8318181818181816,
                "pitch": 64,
                "velocity": 80,
                "duration": 1.2068181818181816,
                "tempo": 120.0
            },
            {
                "start_time": 2.8318181818181816,
                "end_time": 2.881818181818182,
                "pitch": 60,
                "velocity": 80,
                "duration": 0.050000000000000266,
                "tempo": 120.0
            },
            {
                "start_time": 2.881818181818182,
                "end_time": 2.9318181818181817,
                "pitch": 63,
                "velocity": 80,
                "duration": 0.04999999999999982,
                "tempo": 120.0
            },
            {
                "start_time": 2.9318181818181817,
                "end_time": 2.965909090909091,
                "pitch": 66,
                "velocity": 80,
                "duration": 0.03409090909090917,
                "tempo": 120.0
            },
            {
                "start_time": 2.965909090909091,
                "end_time": 2.9977272727272726,
                "pitch": 68,
                "velocity": 80,
                "duration": 0.031818181818181746,
                "tempo": 120.0
            },
            {
                "start_time": 2.9977272727272726,
                "end_time": 3.5999999999999996,
                "pitch": 70,
                "velocity": 80,
                "duration": 0.6022727272727271,
                "tempo": 120.0
            },
            {
                "start_time": 3.618181818181818,
                "end_time": 3.834090909090909,
                "pitch": 47,
                "velocity": 80,
                "duration": 0.21590909090909083,
                "tempo": 120.0
            },
            {
                "start_time": 2.6295454545454544,
                "end_time": 3.834090909090909,
                "pitch": 52,
                "velocity": 80,
                "duration": 1.2045454545454546,
                "tempo": 120.0
            },
            {
                "start_time": 3.834090909090909,
                "end_time": 3.884090909090909,
                "pitch": 48,
                "velocity": 80,
                "duration": 0.04999999999999982,
                "tempo": 120.0
            },
            {
                "start_time": 3.884090909090909,
                "end_time": 3.934090909090909,
                "pitch": 51,
                "velocity": 80,
                "duration": 0.050000000000000266,
                "tempo": 120.0
            },
            {
                "start_time": 3.934090909090909,
                "end_time": 3.968181818181818,
                "pitch": 54,
                "velocity": 80,
                "duration": 0.03409090909090873,
                "tempo": 120.0
            },
            {
                "start_time": 3.968181818181818,
                "end_time": 4.002272727272727,
                "pitch": 56,
                "velocity": 80,
                "duration": 0.03409090909090917,
                "tempo": 120.0
            },
            {
                "start_time": 4.002272727272727,
                "end_time": 4.034090909090909,
                "pitch": 58,
                "velocity": 80,
                "duration": 0.03181818181818219,
                "tempo": 120.0
            },
            {
                "start_time": 2.8318181818181816,
                "end_time": 4.034090909090909,
                "pitch": 64,
                "velocity": 80,
                "duration": 1.2022727272727276,
                "tempo": 120.0
            },
            {
                "start_time": 4.034090909090909,
                "end_time": 4.084090909090909,
                "pitch": 60,
                "velocity": 80,
                "duration": 0.04999999999999982,
                "tempo": 120.0
            },
            {
                "start_time": 4.084090909090909,
                "end_time": 4.134090909090909,
                "pitch": 63,
                "velocity": 80,
                "duration": 0.04999999999999982,
                "tempo": 120.0
            },
            {
                "start_time": 4.134090909090909,
                "end_time": 4.168181818181818,
                "pitch": 66,
                "velocity": 80,
                "duration": 0.03409090909090917,
                "tempo": 120.0
            },
            {
                "start_time": 4.168181818181818,
                "end_time": 4.202272727272727,
                "pitch": 68,
                "velocity": 80,
                "duration": 0.03409090909090917,
                "tempo": 120.0
            },
            {
                "start_time": 4.202272727272727,
                "end_time": 4.804545454545455,
                "pitch": 70,
                "velocity": 80,
                "duration": 0.6022727272727275,
                "tempo": 120.0
            },
            {
                "start_time": 4.822727272727272,
                "end_time": 5.036363636363636,
                "pitch": 47,
                "velocity": 80,
                "duration": 0.21363636363636385,
                "tempo": 120.0
            },
            {
                "start_time": 3.834090909090909,
                "end_time": 5.036363636363636,
                "pitch": 52,
                "velocity": 80,
                "duration": 1.2022727272727272,
                "tempo": 120.0
            },
            {
                "start_time": 5.036363636363636,
                "end_time": 5.086363636363636,
                "pitch": 48,
                "velocity": 80,
                "duration": 0.04999999999999982,
                "tempo": 120.0
            },
            {
                "start_time": 5.086363636363636,
                "end_time": 5.136363636363636,
                "pitch": 51,
                "velocity": 80,
                "duration": 0.04999999999999982,
                "tempo": 120.0
            },
            {
                "start_time": 5.136363636363636,
                "end_time": 5.170454545454545,
                "pitch": 54,
                "velocity": 80,
                "duration": 0.03409090909090917,
                "tempo": 120.0
            },
            {
                "start_time": 5.170454545454545,
                "end_time": 5.204545454545454,
                "pitch": 56,
                "velocity": 80,
                "duration": 0.03409090909090917,
                "tempo": 120.0
            },
            {
                "start_time": 5.204545454545454,
                "end_time": 5.238636363636363,
                "pitch": 58,
                "velocity": 80,
                "duration": 0.03409090909090917,
                "tempo": 120.0
            },
            {
                "start_time": 4.034090909090909,
                "end_time": 5.238636363636363,
                "pitch": 64,
                "velocity": 80,
                "duration": 1.2045454545454541,
                "tempo": 120.0
            },
            {
                "start_time": 5.238636363636363,
                "end_time": 5.288636363636363,
                "pitch": 60,
                "velocity": 80,
                "duration": 0.04999999999999982,
                "tempo": 120.0
            },
            {
                "start_time": 5.288636363636363,
                "end_time": 5.338636363636363,
                "pitch": 63,
                "velocity": 80,
                "duration": 0.04999999999999982,
                "tempo": 120.0
            },
            {
                "start_time": 5.338636363636363,
                "end_time": 5.372727272727272,
                "pitch": 66,
                "velocity": 80,
                "duration": 0.03409090909090917,
                "tempo": 120.0
            },
            {
                "start_time": 5.372727272727272,
                "end_time": 5.406818181818181,
                "pitch": 68,
                "velocity": 80,
                "duration": 0.03409090909090917,
                "tempo": 120.0
            },
            {
                "start_time": 5.406818181818181,
                "end_time": 6.009090909090909,
                "pitch": 70,
                "velocity": 80,
                "duration": 0.6022727272727275,
                "tempo": 120.0
            },
            {
                "start_time": 6.027272727272727,
                "end_time": 6.24090909090909,
                "pitch": 47,
                "velocity": 80,
                "duration": 0.21363636363636296,
                "tempo": 120.0
            },
            {
                "start_time": 5.036363636363636,
                "end_time": 6.24090909090909,
                "pitch": 52,
                "velocity": 80,
                "duration": 1.2045454545454541,
                "tempo": 120.0
            },
            {
                "start_time": 6.24090909090909,
                "end_time": 6.290909090909091,
                "pitch": 48,
                "velocity": 80,
                "duration": 0.05000000000000071,
                "tempo": 120.0
            },
            {
                "start_time": 6.290909090909091,
                "end_time": 6.340909090909091,
                "pitch": 51,
                "velocity": 80,
                "duration": 0.04999999999999982,
                "tempo": 120.0
            },
            {
                "start_time": 6.340909090909091,
                "end_time": 6.375,
                "pitch": 54,
                "velocity": 80,
                "duration": 0.03409090909090917,
                "tempo": 120.0
            },
            {
                "start_time": 6.375,
                "end_time": 6.409090909090909,
                "pitch": 56,
                "velocity": 80,
                "duration": 0.03409090909090917,
                "tempo": 120.0
            },
            {
                "start_time": 6.409090909090909,
                "end_time": 6.4409090909090905,
                "pitch": 58,
                "velocity": 80,
                "duration": 0.0318181818181813,
                "tempo": 120.0
            },
            {
                "start_time": 5.238636363636363,
                "end_time": 6.4409090909090905,
                "pitch": 64,
                "velocity": 80,
                "duration": 1.2022727272727272,
                "tempo": 120.0
            },
            {
                "start_time": 6.4409090909090905,
                "end_time": 6.493181818181818,
                "pitch": 60,
                "velocity": 80,
                "duration": 0.05227272727272769,
                "tempo": 120.0
            },
            {
                "start_time": 6.493181818181818,
                "end_time": 6.540909090909091,
                "pitch": 63,
                "velocity": 80,
                "duration": 0.04772727272727284,
                "tempo": 120.0
            },
            {
                "start_time": 6.540909090909091,
                "end_time": 6.574999999999999,
                "pitch": 66,
                "velocity": 80,
                "duration": 0.034090909090908283,
                "tempo": 120.0
            },
            {
                "start_time": 6.574999999999999,
                "end_time": 6.6090909090909085,
                "pitch": 68,
                "velocity": 80,
                "duration": 0.03409090909090917,
                "tempo": 120.0
            },
            {
                "start_time": 6.6090909090909085,
                "end_time": 7.211363636363636,
                "pitch": 70,
                "velocity": 80,
                "duration": 0.6022727272727275,
                "tempo": 120.0
            },
            {
                "start_time": 7.2318181818181815,
                "end_time": 7.445454545454545,
                "pitch": 47,
                "velocity": 80,
                "duration": 0.21363636363636385,
                "tempo": 120.0
            },
            {
                "start_time": 6.24090909090909,
                "end_time": 7.445454545454545,
                "pitch": 52,
                "velocity": 80,
                "duration": 1.204545454545455,
                "tempo": 120.0
            },
            {
                "start_time": 7.445454545454545,
                "end_time": 7.495454545454545,
                "pitch": 48,
                "velocity": 80,
                "duration": 0.04999999999999982,
                "tempo": 120.0
            },
            {
                "start_time": 7.495454545454545,
                "end_time": 7.545454545454545,
                "pitch": 51,
                "velocity": 80,
                "duration": 0.04999999999999982,
                "tempo": 120.0
            },
            {
                "start_time": 7.545454545454545,
                "end_time": 7.579545454545454,
                "pitch": 54,
                "velocity": 80,
                "duration": 0.03409090909090917,
                "tempo": 120.0
            },
            {
                "start_time": 7.579545454545454,
                "end_time": 7.61590909090909,
                "pitch": 56,
                "velocity": 80,
                "duration": 0.036363636363636154,
                "tempo": 120.0
            },
            {
                "start_time": 7.61590909090909,
                "end_time": 7.6499999999999995,
                "pitch": 58,
                "velocity": 80,
                "duration": 0.03409090909090917,
                "tempo": 120.0
            },
            {
                "start_time": 6.4409090909090905,
                "end_time": 7.6499999999999995,
                "pitch": 64,
                "velocity": 80,
                "duration": 1.209090909090909,
                "tempo": 120.0
            },
            {
                "start_time": 7.6499999999999995,
                "end_time": 7.699999999999999,
                "pitch": 60,
                "velocity": 80,
                "duration": 0.04999999999999982,
                "tempo": 120.0
            },
            {
                "start_time": 7.699999999999999,
                "end_time": 7.752272727272727,
                "pitch": 63,
                "velocity": 80,
                "duration": 0.05227272727272769,
                "tempo": 120.0
            },
            {
                "start_time": 7.752272727272727,
                "end_time": 7.788636363636363,
                "pitch": 66,
                "velocity": 80,
                "duration": 0.036363636363636154,
                "tempo": 120.0
            },
            {
                "start_time": 7.788636363636363,
                "end_time": 7.822727272727272,
                "pitch": 68,
                "velocity": 80,
                "duration": 0.03409090909090917,
                "tempo": 120.0
            },
            {
                "start_time": 7.822727272727272,
                "end_time": 8.424999999999999,
                "pitch": 70,
                "velocity": 80,
                "duration": 0.6022727272727266,
                "tempo": 120.0
            },
            {
                "start_time": 8.443181818181818,
                "end_time": 8.652272727272727,
                "pitch": 47,
                "velocity": 80,
                "duration": 0.209090909090909,
                "tempo": 120.0
            },
            {
                "start_time": 7.445454545454545,
                "end_time": 8.652272727272727,
                "pitch": 52,
                "velocity": 80,
                "duration": 1.206818181818182,
                "tempo": 120.0
            },
            {
                "start_time": 8.652272727272727,
                "end_time": 8.702272727272726,
                "pitch": 48,
                "velocity": 80,
                "duration": 0.049999999999998934,
                "tempo": 120.0
            },
            {
                "start_time": 8.702272727272726,
                "end_time": 8.75,
                "pitch": 51,
                "velocity": 80,
                "duration": 0.04772727272727373,
                "tempo": 120.0
            },
            {
                "start_time": 8.75,
                "end_time": 8.786363636363635,
                "pitch": 54,
                "velocity": 80,
                "duration": 0.036363636363635266,
                "tempo": 120.0
            },
            {
                "start_time": 8.786363636363635,
                "end_time": 8.820454545454545,
                "pitch": 56,
                "velocity": 80,
                "duration": 0.03409090909091006,
                "tempo": 120.0
            },
            {
                "start_time": 8.820454545454545,
                "end_time": 8.854545454545454,
                "pitch": 58,
                "velocity": 80,
                "duration": 0.034090909090908283,
                "tempo": 120.0
            },
            {
                "start_time": 7.6499999999999995,
                "end_time": 8.854545454545454,
                "pitch": 64,
                "velocity": 80,
                "duration": 1.2045454545454541,
                "tempo": 120.0
            },
            {
                "start_time": 8.854545454545454,
                "end_time": 8.906818181818181,
                "pitch": 60,
                "velocity": 80,
                "duration": 0.05227272727272769,
                "tempo": 120.0
            },
            {
                "start_time": 8.906818181818181,
                "end_time": 8.956818181818182,
                "pitch": 63,
                "velocity": 80,
                "duration": 0.05000000000000071,
                "tempo": 120.0
            },
            {
                "start_time": 8.956818181818182,
                "end_time": 8.993181818181817,
                "pitch": 66,
                "velocity": 80,
                "duration": 0.036363636363635266,
                "tempo": 120.0
            },
            {
                "start_time": 8.993181818181817,
                "end_time": 9.027272727272727,
                "pitch": 68,
                "velocity": 80,
                "duration": 0.03409090909091006,
                "tempo": 120.0
            },
            {
                "start_time": 9.027272727272727,
                "end_time": 9.629545454545454,
                "pitch": 70,
                "velocity": 80,
                "duration": 0.6022727272727266,
                "tempo": 120.0
            },
            {
                "start_time": 16.89090909090909,
                "end_time": 17.474999999999998,
                "pitch": 57,
                "velocity": 80,
                "duration": 0.5840909090909072,
                "tempo": 120.0
            },
            {
                "start_time": 17.493181818181817,
                "end_time": 18.077272727272728,
                "pitch": 58,
                "velocity": 80,
                "duration": 0.5840909090909108,
                "tempo": 120.0
            },
            {
                "start_time": 18.095454545454544,
                "end_time": 18.679545454545455,
                "pitch": 56,
                "velocity": 80,
                "duration": 0.5840909090909108,
                "tempo": 120.0
            },
            {
                "start_time": 18.69772727272727,
                "end_time": 19.284090909090907,
                "pitch": 57,
                "velocity": 80,
                "duration": 0.586363636363636,
                "tempo": 120.0
            },
            {
                "start_time": 19.302272727272726,
                "end_time": 19.888636363636362,
                "pitch": 57,
                "velocity": 80,
                "duration": 0.586363636363636,
                "tempo": 120.0
            },
            {
                "start_time": 19.90681818181818,
                "end_time": 20.49090909090909,
                "pitch": 58,
                "velocity": 80,
                "duration": 0.5840909090909072,
                "tempo": 120.0
            },
            {
                "start_time": 20.509090909090908,
                "end_time": 21.09318181818182,
                "pitch": 56,
                "velocity": 80,
                "duration": 0.5840909090909108,
                "tempo": 120.0
            },
            {
                "start_time": 21.111363636363635,
                "end_time": 21.69772727272727,
                "pitch": 57,
                "velocity": 80,
                "duration": 0.586363636363636,
                "tempo": 120.0
            },
            {
                "start_time": 21.71590909090909,
                "end_time": 24.118181818181817,
                "pitch": 53,
                "velocity": 80,
                "duration": 2.4022727272727273,
                "tempo": 120.0
            },
            {
                "start_time": 26.954545454545453,
                "end_time": 27.738636363636363,
                "pitch": 77,
                "velocity": 51,
                "duration": 0.7840909090909101,
                "tempo": 120.0
            },
            {
                "start_time": 27.761363636363637,
                "end_time": 27.972727272727273,
                "pitch": 47,
                "velocity": 80,
                "duration": 0.21136363636363598,
                "tempo": 120.0
            },
            {
                "start_time": 8.652272727272727,
                "end_time": 27.972727272727273,
                "pitch": 52,
                "velocity": 80,
                "duration": 19.320454545454545,
                "tempo": 120.0
            },
            {
                "start_time": 27.972727272727273,
                "end_time": 28.025,
                "pitch": 48,
                "velocity": 80,
                "duration": 0.052272727272725916,
                "tempo": 120.0
            },
            {
                "start_time": 28.025,
                "end_time": 28.05681818181818,
                "pitch": 51,
                "velocity": 80,
                "duration": 0.0318181818181813,
                "tempo": 120.0
            }
        ],
        "Acoustic Bass": [
            {
                "start_time": 0.006818181818181818,
                "end_time": 0.13636363636363635,
                "pitch": 33,
                "velocity": 80,
                "duration": 0.12954545454545455,
                "tempo": 120.0
            },
            {
                "start_time": 0.20454545454545453,
                "end_time": 0.23863636363636362,
                "pitch": 33,
                "velocity": 80,
                "duration": 0.03409090909090909,
                "tempo": 120.0
            },
            {
                "start_time": 0.3068181818181818,
                "end_time": 0.3386363636363636,
                "pitch": 36,
                "velocity": 80,
                "duration": 0.0318181818181818,
                "tempo": 120.0
            },
            {
                "start_time": 0.4068181818181818,
                "end_time": 0.4386363636363636,
                "pitch": 40,
                "velocity": 80,
                "duration": 0.0318181818181818,
                "tempo": 120.0
            },
            {
                "start_time": 0.5068181818181818,
                "end_time": 0.5386363636363636,
                "pitch": 36,
                "velocity": 80,
                "duration": 0.031818181818181746,
                "tempo": 120.0
            },
            {
                "start_time": 0.6068181818181818,
                "end_time": 0.7386363636363636,
                "pitch": 34,
                "velocity": 80,
                "duration": 0.13181818181818183,
                "tempo": 120.0
            },
            {
                "start_time": 0.8068181818181818,
                "end_time": 0.8386363636363636,
                "pitch": 34,
                "velocity": 80,
                "duration": 0.03181818181818186,
                "tempo": 120.0
            },
            {
                "start_time": 0.9068181818181817,
                "end_time": 0.9386363636363636,
                "pitch": 41,
                "velocity": 80,
                "duration": 0.03181818181818186,
                "tempo": 120.0
            },
            {
                "start_time": 1.0068181818181818,
                "end_time": 1.0386363636363636,
                "pitch": 38,
                "velocity": 80,
                "duration": 0.031818181818181746,
                "tempo": 120.0
            },
            {
                "start_time": 1.1068181818181817,
                "end_time": 1.1409090909090909,
                "pitch": 34,
                "velocity": 80,
                "duration": 0.03409090909090917,
                "tempo": 120.0
            },
            {
                "start_time": 1.209090909090909,
                "end_time": 1.3409090909090908,
                "pitch": 32,
                "velocity": 80,
                "duration": 0.13181818181818183,
                "tempo": 120.0
            },
            {
                "start_time": 1.409090909090909,
                "end_time": 1.440909090909091,
                "pitch": 32,
                "velocity": 80,
                "duration": 0.03181818181818197,
                "tempo": 120.0
            },
            {
                "start_time": 1.509090909090909,
                "end_time": 1.5409090909090908,
                "pitch": 38,
                "velocity": 80,
                "duration": 0.031818181818181746,
                "tempo": 120.0
            },
            {
                "start_time": 1.609090909090909,
                "end_time": 1.6409090909090909,
                "pitch": 35,
                "velocity": 80,
                "duration": 0.03181818181818197,
                "tempo": 120.0
            },
            {
                "start_time": 1.709090909090909,
                "end_time": 1.7431818181818182,
                "pitch": 32,
                "velocity": 80,
                "duration": 0.03409090909090917,
                "tempo": 120.0
            },
            {
                "start_time": 1.8113636363636363,
                "end_time": 1.9431818181818181,
                "pitch": 33,
                "velocity": 80,
                "duration": 0.13181818181818183,
                "tempo": 120.0
            },
            {
                "start_time": 2.0113636363636362,
                "end_time": 2.0454545454545454,
                "pitch": 28,
                "velocity": 80,
                "duration": 0.03409090909090917,
                "tempo": 120.0
            },
            {
                "start_time": 2.1136363636363633,
                "end_time": 2.1454545454545455,
                "pitch": 33,
                "velocity": 80,
                "duration": 0.03181818181818219,
                "tempo": 120.0
            },
            {
                "start_time": 2.2136363636363634,
                "end_time": 2.245454545454545,
                "pitch": 36,
                "velocity": 80,
                "duration": 0.031818181818181746,
                "tempo": 120.0
            },
            {
                "start_time": 2.3136363636363635,
                "end_time": 2.3454545454545452,
                "pitch": 28,
                "velocity": 80,
                "duration": 0.031818181818181746,
                "tempo": 120.0
            },
            {
                "start_time": 2.4136363636363636,
                "end_time": 2.5454545454545454,
                "pitch": 33,
                "velocity": 80,
                "duration": 0.13181818181818183,
                "tempo": 120.0
            },
            {
                "start_time": 2.6136363636363633,
                "end_time": 2.6477272727272725,
                "pitch": 33,
                "velocity": 80,
                "duration": 0.03409090909090917,
                "tempo": 120.0
            },
            {
                "start_time": 2.715909090909091,
                "end_time": 2.7477272727272726,
                "pitch": 36,
                "velocity": 80,
                "duration": 0.031818181818181746,
                "tempo": 120.0
            },
            {
                "start_time": 2.815909090909091,
                "end_time": 2.8477272727272727,
                "pitch": 40,
                "velocity": 80,
                "duration": 0.031818181818181746,
                "tempo": 120.0
            },
            {
                "start_time": 2.9159090909090906,
                "end_time": 2.9477272727272728,
                "pitch": 36,
                "velocity": 80,
                "duration": 0.03181818181818219,
                "tempo": 120.0
            },
            {
                "start_time": 3.0159090909090907,
                "end_time": 3.1477272727272725,
                "pitch": 34,
                "velocity": 80,
                "duration": 0.13181818181818183,
                "tempo": 120.0
            },
            {
                "start_time": 3.215909090909091,
                "end_time": 3.2477272727272726,
                "pitch": 34,
                "velocity": 80,
                "duration": 0.031818181818181746,
                "tempo": 120.0
            },
            {
                "start_time": 3.315909090909091,
                "end_time": 3.3477272727272727,
                "pitch": 41,
                "velocity": 80,
                "duration": 0.031818181818181746,
                "tempo": 120.0
            },
            {
                "start_time": 3.4159090909090906,
                "end_time": 3.4477272727272728,
                "pitch": 38,
                "velocity": 80,
                "duration": 0.03181818181818219,
                "tempo": 120.0
            },
            {
                "start_time": 3.5159090909090907,
                "end_time": 3.55,
                "pitch": 34,
                "velocity": 80,
                "duration": 0.03409090909090917,
                "tempo": 120.0
            },
            {
                "start_time": 3.618181818181818,
                "end_time": 3.75,
                "pitch": 32,
                "velocity": 80,
                "duration": 0.13181818181818183,
                "tempo": 120.0
            },
            {
                "start_time": 3.818181818181818,
                "end_time": 3.8499999999999996,
                "pitch": 32,
                "velocity": 80,
                "duration": 0.031818181818181746,
                "tempo": 120.0
            },
            {
                "start_time": 3.918181818181818,
                "end_time": 3.9499999999999997,
                "pitch": 38,
                "velocity": 80,
                "duration": 0.031818181818181746,
                "tempo": 120.0
            },
            {
                "start_time": 4.018181818181818,
                "end_time": 4.052272727272727,
                "pitch": 35,
                "velocity": 80,
                "duration": 0.03409090909090917,
                "tempo": 120.0
            },
            {
                "start_time": 4.118181818181818,
                "end_time": 4.152272727272727,
                "pitch": 32,
                "velocity": 80,
                "duration": 0.03409090909090917,
                "tempo": 120.0
            },
            {
                "start_time": 4.220454545454546,
                "end_time": 4.352272727272727,
                "pitch": 33,
                "velocity": 80,
                "duration": 0.13181818181818095,
                "tempo": 120.0
            },
            {
                "start_time": 4.420454545454545,
                "end_time": 4.452272727272727,
                "pitch": 28,
                "velocity": 80,
                "duration": 0.03181818181818219,
                "tempo": 120.0
            },
            {
                "start_time": 4.5204545454545455,
                "end_time": 4.552272727272727,
                "pitch": 33,
                "velocity": 80,
                "duration": 0.0318181818181813,
                "tempo": 120.0
            },
            {
                "start_time": 4.620454545454545,
                "end_time": 4.652272727272727,
                "pitch": 36,
                "velocity": 80,
                "duration": 0.03181818181818219,
                "tempo": 120.0
            },
            {
                "start_time": 4.720454545454545,
                "end_time": 4.752272727272727,
                "pitch": 28,
                "velocity": 80,
                "duration": 0.03181818181818219,
                "tempo": 120.0
            },
            {
                "start_time": 4.822727272727272,
                "end_time": 4.952272727272727,
                "pitch": 33,
                "velocity": 80,
                "duration": 0.12954545454545485,
                "tempo": 120.0
            },
            {
                "start_time": 5.0204545454545455,
                "end_time": 5.052272727272727,
                "pitch": 33,
                "velocity": 80,
                "duration": 0.0318181818181813,
                "tempo": 120.0
            },
            {
                "start_time": 5.120454545454545,
                "end_time": 5.154545454545454,
                "pitch": 36,
                "velocity": 80,
                "duration": 0.03409090909090917,
                "tempo": 120.0
            },
            {
                "start_time": 5.220454545454545,
                "end_time": 5.254545454545454,
                "pitch": 40,
                "velocity": 80,
                "duration": 0.03409090909090917,
                "tempo": 120.0
            },
            {
                "start_time": 5.322727272727272,
                "end_time": 5.3545454545454545,
                "pitch": 36,
                "velocity": 80,
                "duration": 0.03181818181818219,
                "tempo": 120.0
            },
            {
                "start_time": 5.422727272727273,
                "end_time": 5.559090909090909,
                "pitch": 34,
                "velocity": 80,
                "duration": 0.1363636363636358,
                "tempo": 120.0
            },
            {
                "start_time": 5.629545454545454,
                "end_time": 5.663636363636363,
                "pitch": 34,
                "velocity": 80,
                "duration": 0.03409090909090917,
                "tempo": 120.0
            },
            {
                "start_time": 5.7340909090909085,
                "end_time": 5.765909090909091,
                "pitch": 41,
                "velocity": 80,
                "duration": 0.03181818181818219,
                "tempo": 120.0
            },
            {
                "start_time": 5.831818181818181,
                "end_time": 5.863636363636363,
                "pitch": 38,
                "velocity": 80,
                "duration": 0.03181818181818219,
                "tempo": 120.0
            },
            {
                "start_time": 5.927272727272727,
                "end_time": 5.959090909090909,
                "pitch": 34,
                "velocity": 80,
                "duration": 0.03181818181818219,
                "tempo": 120.0
            },
            {
                "start_time": 6.027272727272727,
                "end_time": 6.159090909090909,
                "pitch": 32,
                "velocity": 80,
                "duration": 0.13181818181818183,
                "tempo": 120.0
            },
            {
                "start_time": 6.225,
                "end_time": 6.259090909090909,
                "pitch": 32,
                "velocity": 80,
                "duration": 0.03409090909090917,
                "tempo": 120.0
            },
            {
                "start_time": 6.324999999999999,
                "end_time": 6.3590909090909085,
                "pitch": 38,
                "velocity": 80,
                "duration": 0.03409090909090917,
                "tempo": 120.0
            },
            {
                "start_time": 6.425,
                "end_time": 6.459090909090909,
                "pitch": 35,
                "velocity": 80,
                "duration": 0.03409090909090917,
                "tempo": 120.0
            },
            {
                "start_time": 6.5249999999999995,
                "end_time": 6.559090909090909,
                "pitch": 32,
                "velocity": 80,
                "duration": 0.03409090909090917,
                "tempo": 120.0
            },
            {
                "start_time": 6.627272727272727,
                "end_time": 6.763636363636364,
                "pitch": 33,
                "velocity": 80,
                "duration": 0.1363636363636367,
                "tempo": 120.0
            },
            {
                "start_time": 6.834090909090909,
                "end_time": 6.86590909090909,
                "pitch": 28,
                "velocity": 80,
                "duration": 0.0318181818181813,
                "tempo": 120.0
            },
            {
                "start_time": 6.936363636363636,
                "end_time": 6.968181818181818,
                "pitch": 33,
                "velocity": 80,
                "duration": 0.03181818181818219,
                "tempo": 120.0
            },
            {
                "start_time": 7.034090909090909,
                "end_time": 7.0659090909090905,
                "pitch": 36,
                "velocity": 80,
                "duration": 0.0318181818181813,
                "tempo": 120.0
            },
            {
                "start_time": 7.131818181818182,
                "end_time": 7.163636363636363,
                "pitch": 28,
                "velocity": 80,
                "duration": 0.0318181818181813,
                "tempo": 120.0
            },
            {
                "start_time": 7.2295454545454545,
                "end_time": 7.361363636363636,
                "pitch": 33,
                "velocity": 80,
                "duration": 0.13181818181818183,
                "tempo": 120.0
            },
            {
                "start_time": 7.429545454545454,
                "end_time": 7.461363636363636,
                "pitch": 33,
                "velocity": 80,
                "duration": 0.03181818181818219,
                "tempo": 120.0
            },
            {
                "start_time": 7.529545454545454,
                "end_time": 7.561363636363636,
                "pitch": 36,
                "velocity": 80,
                "duration": 0.0318181818181813,
                "tempo": 120.0
            },
            {
                "start_time": 7.631818181818182,
                "end_time": 7.66590909090909,
                "pitch": 40,
                "velocity": 80,
                "duration": 0.034090909090908283,
                "tempo": 120.0
            },
            {
                "start_time": 7.736363636363636,
                "end_time": 7.7704545454545455,
                "pitch": 36,
                "velocity": 80,
                "duration": 0.03409090909090917,
                "tempo": 120.0
            },
            {
                "start_time": 7.840909090909091,
                "end_time": 7.972727272727273,
                "pitch": 34,
                "velocity": 80,
                "duration": 0.13181818181818183,
                "tempo": 120.0
            },
            {
                "start_time": 8.040909090909091,
                "end_time": 8.075,
                "pitch": 34,
                "velocity": 80,
                "duration": 0.034090909090908283,
                "tempo": 120.0
            },
            {
                "start_time": 8.143181818181818,
                "end_time": 8.174999999999999,
                "pitch": 41,
                "velocity": 80,
                "duration": 0.0318181818181813,
                "tempo": 120.0
            },
            {
                "start_time": 8.243181818181817,
                "end_time": 8.275,
                "pitch": 38,
                "velocity": 80,
                "duration": 0.03181818181818308,
                "tempo": 120.0
            },
            {
                "start_time": 8.343181818181817,
                "end_time": 8.375,
                "pitch": 34,
                "velocity": 80,
                "duration": 0.03181818181818308,
                "tempo": 120.0
            },
            {
                "start_time": 8.443181818181818,
                "end_time": 8.570454545454545,
                "pitch": 32,
                "velocity": 80,
                "duration": 0.12727272727272698,
                "tempo": 120.0
            },
            {
                "start_time": 8.636363636363637,
                "end_time": 8.668181818181818,
                "pitch": 32,
                "velocity": 80,
                "duration": 0.0318181818181813,
                "tempo": 120.0
            },
            {
                "start_time": 8.73409090909091,
                "end_time": 8.768181818181818,
                "pitch": 38,
                "velocity": 80,
                "duration": 0.034090909090908283,
                "tempo": 120.0
            },
            {
                "start_time": 8.838636363636363,
                "end_time": 8.870454545454544,
                "pitch": 35,
                "velocity": 80,
                "duration": 0.0318181818181813,
                "tempo": 120.0
            },
            {
                "start_time": 8.940909090909091,
                "end_time": 8.975,
                "pitch": 32,
                "velocity": 80,
                "duration": 0.034090909090908283,
                "tempo": 120.0
            },
            {
                "start_time": 9.045454545454545,
                "end_time": 9.177272727272728,
                "pitch": 33,
                "velocity": 80,
                "duration": 0.13181818181818272,
                "tempo": 120.0
            },
            {
                "start_time": 9.245454545454544,
                "end_time": 9.277272727272727,
                "pitch": 28,
                "velocity": 80,
                "duration": 0.03181818181818308,
                "tempo": 120.0
            },
            {
                "start_time": 9.345454545454546,
                "end_time": 9.377272727272727,
                "pitch": 33,
                "velocity": 80,
                "duration": 0.0318181818181813,
                "tempo": 120.0
            },
            {
                "start_time": 9.447727272727272,
                "end_time": 9.479545454545454,
                "pitch": 36,
                "velocity": 80,
                "duration": 0.0318181818181813,
                "tempo": 120.0
            },
            {
                "start_time": 9.547727272727272,
                "end_time": 9.579545454545453,
                "pitch": 35,
                "velocity": 80,
                "duration": 0.0318181818181813,
                "tempo": 120.0
            },
            {
                "start_time": 9.65,
                "end_time": 9.779545454545454,
                "pitch": 34,
                "velocity": 80,
                "duration": 0.12954545454545396,
                "tempo": 120.0
            },
            {
                "start_time": 9.847727272727273,
                "end_time": 9.879545454545454,
                "pitch": 34,
                "velocity": 80,
                "duration": 0.0318181818181813,
                "tempo": 120.0
            },
            {
                "start_time": 9.947727272727272,
                "end_time": 9.979545454545454,
                "pitch": 38,
                "velocity": 80,
                "duration": 0.0318181818181813,
                "tempo": 120.0
            },
            {
                "start_time": 10.047727272727272,
                "end_time": 10.081818181818182,
                "pitch": 41,
                "velocity": 80,
                "duration": 0.03409090909091006,
                "tempo": 120.0
            },
            {
                "start_time": 10.15,
                "end_time": 10.181818181818182,
                "pitch": 38,
                "velocity": 80,
                "duration": 0.0318181818181813,
                "tempo": 120.0
            },
            {
                "start_time": 10.25,
                "end_time": 10.384090909090908,
                "pitch": 34,
                "velocity": 80,
                "duration": 0.13409090909090793,
                "tempo": 120.0
            },
            {
                "start_time": 10.45,
                "end_time": 10.48409090909091,
                "pitch": 34,
                "velocity": 80,
                "duration": 0.03409090909091006,
                "tempo": 120.0
            },
            {
                "start_time": 10.552272727272726,
                "end_time": 10.584090909090909,
                "pitch": 38,
                "velocity": 80,
                "duration": 0.03181818181818308,
                "tempo": 120.0
            },
            {
                "start_time": 10.652272727272727,
                "end_time": 10.684090909090909,
                "pitch": 41,
                "velocity": 80,
                "duration": 0.0318181818181813,
                "tempo": 120.0
            },
            {
                "start_time": 10.752272727272727,
                "end_time": 10.784090909090908,
                "pitch": 38,
                "velocity": 80,
                "duration": 0.0318181818181813,
                "tempo": 120.0
            },
            {
                "start_time": 10.852272727272727,
                "end_time": 10.986363636363636,
                "pitch": 34,
                "velocity": 80,
                "duration": 0.1340909090909097,
                "tempo": 120.0
            },
            {
                "start_time": 11.052272727272726,
                "end_time": 11.086363636363636,
                "pitch": 33,
                "velocity": 80,
                "duration": 0.03409090909091006,
                "tempo": 120.0
            },
            {
                "start_time": 11.154545454545454,
                "end_time": 11.186363636363636,
                "pitch": 38,
                "velocity": 80,
                "duration": 0.0318181818181813,
                "tempo": 120.0
            },
            {
                "start_time": 11.254545454545454,
                "end_time": 11.286363636363635,
                "pitch": 41,
                "velocity": 80,
                "duration": 0.0318181818181813,
                "tempo": 120.0
            },
            {
                "start_time": 11.354545454545454,
                "end_time": 11.386363636363637,
                "pitch": 38,
                "velocity": 80,
                "duration": 0.03181818181818308,
                "tempo": 120.0
            },
            {
                "start_time": 11.454545454545453,
                "end_time": 11.588636363636363,
                "pitch": 34,
                "velocity": 80,
                "duration": 0.1340909090909097,
                "tempo": 120.0
            },
            {
                "start_time": 11.654545454545454,
                "end_time": 11.688636363636363,
                "pitch": 34,
                "velocity": 80,
                "duration": 0.034090909090908283,
                "tempo": 120.0
            },
            {
                "start_time": 11.756818181818181,
                "end_time": 11.788636363636362,
                "pitch": 41,
                "velocity": 80,
                "duration": 0.0318181818181813,
                "tempo": 120.0
            },
            {
                "start_time": 11.85681818181818,
                "end_time": 11.888636363636364,
                "pitch": 38,
                "velocity": 80,
                "duration": 0.03181818181818308,
                "tempo": 120.0
            },
            {
                "start_time": 11.956818181818182,
                "end_time": 11.99090909090909,
                "pitch": 33,
                "velocity": 80,
                "duration": 0.034090909090908283,
                "tempo": 120.0
            },
            {
                "start_time": 12.059090909090909,
                "end_time": 12.19090909090909,
                "pitch": 35,
                "velocity": 80,
                "duration": 0.13181818181818095,
                "tempo": 120.0
            },
            {
                "start_time": 12.259090909090908,
                "end_time": 12.290909090909091,
                "pitch": 35,
                "velocity": 80,
                "duration": 0.03181818181818308,
                "tempo": 120.0
            },
            {
                "start_time": 12.35909090909091,
                "end_time": 12.39090909090909,
                "pitch": 38,
                "velocity": 80,
                "duration": 0.0318181818181813,
                "tempo": 120.0
            },
            {
                "start_time": 12.459090909090909,
                "end_time": 12.49090909090909,
                "pitch": 41,
                "velocity": 80,
                "duration": 0.0318181818181813,
                "tempo": 120.0
            },
            {
                "start_time": 12.559090909090909,
                "end_time": 12.593181818181817,
                "pitch": 38,
                "velocity": 80,
                "duration": 0.034090909090908283,
                "tempo": 120.0
            },
            {
                "start_time": 12.661363636363635,
                "end_time": 12.793181818181818,
                "pitch": 35,
                "velocity": 80,
                "duration": 0.13181818181818272,
                "tempo": 120.0
            },
            {
                "start_time": 12.861363636363636,
                "end_time": 12.893181818181818,
                "pitch": 35,
                "velocity": 80,
                "duration": 0.0318181818181813,
                "tempo": 120.0
            },
            {
                "start_time": 12.961363636363636,
                "end_time": 12.993181818181817,
                "pitch": 38,
                "velocity": 80,
                "duration": 0.0318181818181813,
                "tempo": 120.0
            },
            {
                "start_time": 13.061363636363636,
                "end_time": 13.093181818181817,
                "pitch": 41,
                "velocity": 80,
                "duration": 0.0318181818181813,
                "tempo": 120.0
            },
            {
                "start_time": 13.161363636363635,
                "end_time": 13.195454545454545,
                "pitch": 38,
                "velocity": 80,
                "duration": 0.03409090909091006,
                "tempo": 120.0
            },
            {
                "start_time": 13.263636363636364,
                "end_time": 13.395454545454545,
                "pitch": 35,
                "velocity": 80,
                "duration": 0.13181818181818095,
                "tempo": 120.0
            },
            {
                "start_time": 13.463636363636363,
                "end_time": 13.495454545454544,
                "pitch": 35,
                "velocity": 80,
                "duration": 0.0318181818181813,
                "tempo": 120.0
            },
            {
                "start_time": 13.563636363636363,
                "end_time": 13.597727272727273,
                "pitch": 38,
                "velocity": 80,
                "duration": 0.03409090909091006,
                "tempo": 120.0
            },
            {
                "start_time": 13.665909090909091,
                "end_time": 13.697727272727272,
                "pitch": 41,
                "velocity": 80,
                "duration": 0.0318181818181813,
                "tempo": 120.0
            },
            {
                "start_time": 13.76590909090909,
                "end_time": 13.797727272727272,
                "pitch": 38,
                "velocity": 80,
                "duration": 0.0318181818181813,
                "tempo": 120.0
            },
            {
                "start_time": 13.86590909090909,
                "end_time": 13.997727272727271,
                "pitch": 35,
                "velocity": 80,
                "duration": 0.13181818181818095,
                "tempo": 120.0
            },
            {
                "start_time": 14.06590909090909,
                "end_time": 14.097727272727273,
                "pitch": 35,
                "velocity": 80,
                "duration": 0.03181818181818308,
                "tempo": 120.0
            },
            {
                "start_time": 14.165909090909091,
                "end_time": 14.2,
                "pitch": 41,
                "velocity": 80,
                "duration": 0.034090909090908283,
                "tempo": 120.0
            },
            {
                "start_time": 14.268181818181818,
                "end_time": 14.299999999999999,
                "pitch": 38,
                "velocity": 80,
                "duration": 0.0318181818181813,
                "tempo": 120.0
            },
            {
                "start_time": 14.36590909090909,
                "end_time": 14.399999999999999,
                "pitch": 35,
                "velocity": 80,
                "duration": 0.034090909090908283,
                "tempo": 120.0
            },
            {
                "start_time": 14.468181818181817,
                "end_time": 14.6,
                "pitch": 34,
                "velocity": 80,
                "duration": 0.13181818181818272,
                "tempo": 120.0
            },
            {
                "start_time": 14.668181818181818,
                "end_time": 14.7,
                "pitch": 34,
                "velocity": 80,
                "duration": 0.0318181818181813,
                "tempo": 120.0
            },
            {
                "start_time": 14.768181818181818,
                "end_time": 14.802272727272726,
                "pitch": 38,
                "velocity": 80,
                "duration": 0.034090909090908283,
                "tempo": 120.0
            },
            {
                "start_time": 14.870454545454544,
                "end_time": 14.902272727272727,
                "pitch": 41,
                "velocity": 80,
                "duration": 0.03181818181818308,
                "tempo": 120.0
            },
            {
                "start_time": 14.970454545454544,
                "end_time": 15.002272727272727,
                "pitch": 38,
                "velocity": 80,
                "duration": 0.03181818181818308,
                "tempo": 120.0
            },
            {
                "start_time": 15.072727272727272,
                "end_time": 15.204545454545453,
                "pitch": 34,
                "velocity": 80,
                "duration": 0.13181818181818095,
                "tempo": 120.0
            },
            {
                "start_time": 15.270454545454545,
                "end_time": 15.304545454545455,
                "pitch": 34,
                "velocity": 80,
                "duration": 0.03409090909091006,
                "tempo": 120.0
            },
            {
                "start_time": 15.370454545454544,
                "end_time": 15.404545454545454,
                "pitch": 38,
                "velocity": 80,
                "duration": 0.03409090909091006,
                "tempo": 120.0
            },
            {
                "start_time": 15.472727272727273,
                "end_time": 15.504545454545454,
                "pitch": 41,
                "velocity": 80,
                "duration": 0.0318181818181813,
                "tempo": 120.0
            },
            {
                "start_time": 15.572727272727272,
                "end_time": 15.604545454545454,
                "pitch": 38,
                "velocity": 80,
                "duration": 0.0318181818181813,
                "tempo": 120.0
            },
            {
                "start_time": 15.674999999999999,
                "end_time": 15.806818181818182,
                "pitch": 34,
                "velocity": 80,
                "duration": 0.13181818181818272,
                "tempo": 120.0
            },
            {
                "start_time": 15.872727272727271,
                "end_time": 15.906818181818181,
                "pitch": 33,
                "velocity": 80,
                "duration": 0.03409090909091006,
                "tempo": 120.0
            },
            {
                "start_time": 15.972727272727273,
                "end_time": 16.006818181818183,
                "pitch": 38,
                "velocity": 80,
                "duration": 0.03409090909091006,
                "tempo": 120.0
            },
            {
                "start_time": 16.075,
                "end_time": 16.10681818181818,
                "pitch": 41,
                "velocity": 80,
                "duration": 0.0318181818181813,
                "tempo": 120.0
            },
            {
                "start_time": 16.175,
                "end_time": 16.206818181818182,
                "pitch": 38,
                "velocity": 80,
                "duration": 0.0318181818181813,
                "tempo": 120.0
            },
            {
                "start_time": 16.277272727272727,
                "end_time": 16.413636363636364,
                "pitch": 34,
                "velocity": 80,
                "duration": 0.1363636363636367,
                "tempo": 120.0
            },
            {
                "start_time": 16.48181818181818,
                "end_time": 16.51590909090909,
                "pitch": 34,
                "velocity": 80,
                "duration": 0.03409090909091006,
                "tempo": 120.0
            },
            {
                "start_time": 16.586363636363636,
                "end_time": 16.620454545454546,
                "pitch": 41,
                "velocity": 80,
                "duration": 0.03409090909091006,
                "tempo": 120.0
            },
            {
                "start_time": 16.688636363636363,
                "end_time": 16.720454545454544,
                "pitch": 38,
                "velocity": 80,
                "duration": 0.0318181818181813,
                "tempo": 120.0
            },
            {
                "start_time": 16.788636363636364,
                "end_time": 16.820454545454545,
                "pitch": 33,
                "velocity": 80,
                "duration": 0.0318181818181813,
                "tempo": 120.0
            },
            {
                "start_time": 16.89090909090909,
                "end_time": 17.020454545454545,
                "pitch": 33,
                "velocity": 80,
                "duration": 0.12954545454545396,
                "tempo": 120.0
            },
            {
                "start_time": 17.08863636363636,
                "end_time": 17.12272727272727,
                "pitch": 33,
                "velocity": 80,
                "duration": 0.03409090909091006,
                "tempo": 120.0
            },
            {
                "start_time": 17.188636363636363,
                "end_time": 17.222727272727273,
                "pitch": 36,
                "velocity": 80,
                "duration": 0.03409090909091006,
                "tempo": 120.0
            },
            {
                "start_time": 17.29090909090909,
                "end_time": 17.32272727272727,
                "pitch": 40,
                "velocity": 80,
                "duration": 0.0318181818181813,
                "tempo": 120.0
            },
            {
                "start_time": 17.39090909090909,
                "end_time": 17.422727272727272,
                "pitch": 36,
                "velocity": 80,
                "duration": 0.0318181818181813,
                "tempo": 120.0
            },
            {
                "start_time": 17.49090909090909,
                "end_time": 17.625,
                "pitch": 34,
                "velocity": 80,
                "duration": 0.13409090909091148,
                "tempo": 120.0
            },
            {
                "start_time": 17.693181818181817,
                "end_time": 17.724999999999998,
                "pitch": 34,
                "velocity": 80,
                "duration": 0.0318181818181813,
                "tempo": 120.0
            },
            {
                "start_time": 17.793181818181818,
                "end_time": 17.825,
                "pitch": 41,
                "velocity": 80,
                "duration": 0.0318181818181813,
                "tempo": 120.0
            },
            {
                "start_time": 17.893181818181816,
                "end_time": 17.927272727272726,
                "pitch": 38,
                "velocity": 80,
                "duration": 0.03409090909091006,
                "tempo": 120.0
            },
            {
                "start_time": 17.995454545454546,
                "end_time": 18.027272727272727,
                "pitch": 34,
                "velocity": 80,
                "duration": 0.0318181818181813,
                "tempo": 120.0
            },
            {
                "start_time": 18.095454545454544,
                "end_time": 18.227272727272727,
                "pitch": 32,
                "velocity": 80,
                "duration": 0.13181818181818272,
                "tempo": 120.0
            },
            {
                "start_time": 18.295454545454543,
                "end_time": 18.329545454545453,
                "pitch": 32,
                "velocity": 80,
                "duration": 0.03409090909091006,
                "tempo": 120.0
            },
            {
                "start_time": 18.397727272727273,
                "end_time": 18.429545454545455,
                "pitch": 38,
                "velocity": 80,
                "duration": 0.0318181818181813,
                "tempo": 120.0
            },
            {
                "start_time": 18.49772727272727,
                "end_time": 18.529545454545453,
                "pitch": 35,
                "velocity": 80,
                "duration": 0.0318181818181813,
                "tempo": 120.0
            },
            {
                "start_time": 18.597727272727273,
                "end_time": 18.629545454545454,
                "pitch": 32,
                "velocity": 80,
                "duration": 0.0318181818181813,
                "tempo": 120.0
            },
            {
                "start_time": 18.69772727272727,
                "end_time": 18.829545454545453,
                "pitch": 33,
                "velocity": 80,
                "duration": 0.13181818181818272,
                "tempo": 120.0
            },
            {
                "start_time": 18.897727272727273,
                "end_time": 18.93181818181818,
                "pitch": 28,
                "velocity": 80,
                "duration": 0.03409090909090651,
                "tempo": 120.0
            },
            {
                "start_time": 19.0,
                "end_time": 19.03181818181818,
                "pitch": 33,
                "velocity": 80,
                "duration": 0.0318181818181813,
                "tempo": 120.0
            },
            {
                "start_time": 19.099999999999998,
                "end_time": 19.13181818181818,
                "pitch": 36,
                "velocity": 80,
                "duration": 0.0318181818181813,
                "tempo": 120.0
            },
            {
                "start_time": 19.2,
                "end_time": 19.23409090909091,
                "pitch": 28,
                "velocity": 80,
                "duration": 0.03409090909091006,
                "tempo": 120.0
            },
            {
                "start_time": 19.302272727272726,
                "end_time": 19.43409090909091,
                "pitch": 33,
                "velocity": 80,
                "duration": 0.13181818181818272,
                "tempo": 120.0
            },
            {
                "start_time": 19.502272727272725,
                "end_time": 19.534090909090907,
                "pitch": 33,
                "velocity": 80,
                "duration": 0.0318181818181813,
                "tempo": 120.0
            },
            {
                "start_time": 19.602272727272727,
                "end_time": 19.636363636363637,
                "pitch": 36,
                "velocity": 80,
                "duration": 0.03409090909091006,
                "tempo": 120.0
            },
            {
                "start_time": 19.704545454545453,
                "end_time": 19.736363636363635,
                "pitch": 40,
                "velocity": 80,
                "duration": 0.0318181818181813,
                "tempo": 120.0
            },
            {
                "start_time": 19.804545454545455,
                "end_time": 19.836363636363636,
                "pitch": 36,
                "velocity": 80,
                "duration": 0.0318181818181813,
                "tempo": 120.0
            },
            {
                "start_time": 19.904545454545453,
                "end_time": 20.04090909090909,
                "pitch": 34,
                "velocity": 80,
                "duration": 0.1363636363636367,
                "tempo": 120.0
            },
            {
                "start_time": 20.111363636363635,
                "end_time": 20.145454545454545,
                "pitch": 34,
                "velocity": 80,
                "duration": 0.03409090909091006,
                "tempo": 120.0
            },
            {
                "start_time": 20.21590909090909,
                "end_time": 20.24772727272727,
                "pitch": 41,
                "velocity": 80,
                "duration": 0.0318181818181813,
                "tempo": 120.0
            },
            {
                "start_time": 20.313636363636363,
                "end_time": 20.345454545454544,
                "pitch": 38,
                "velocity": 80,
                "duration": 0.0318181818181813,
                "tempo": 120.0
            },
            {
                "start_time": 20.411363636363635,
                "end_time": 20.44090909090909,
                "pitch": 34,
                "velocity": 80,
                "duration": 0.029545454545456096,
                "tempo": 120.0
            },
            {
                "start_time": 20.509090909090908,
                "end_time": 20.64090909090909,
                "pitch": 32,
                "velocity": 80,
                "duration": 0.13181818181818272,
                "tempo": 120.0
            },
            {
                "start_time": 20.709090909090907,
                "end_time": 20.74090909090909,
                "pitch": 32,
                "velocity": 80,
                "duration": 0.0318181818181813,
                "tempo": 120.0
            },
            {
                "start_time": 20.80909090909091,
                "end_time": 20.84090909090909,
                "pitch": 38,
                "velocity": 80,
                "duration": 0.0318181818181813,
                "tempo": 120.0
            },
            {
                "start_time": 20.909090909090907,
                "end_time": 20.943181818181817,
                "pitch": 35,
                "velocity": 80,
                "duration": 0.03409090909091006,
                "tempo": 120.0
            },
            {
                "start_time": 21.011363636363637,
                "end_time": 21.043181818181818,
                "pitch": 32,
                "velocity": 80,
                "duration": 0.0318181818181813,
                "tempo": 120.0
            },
            {
                "start_time": 21.111363636363635,
                "end_time": 21.245454545454546,
                "pitch": 33,
                "velocity": 80,
                "duration": 0.13409090909091148,
                "tempo": 120.0
            },
            {
                "start_time": 21.313636363636363,
                "end_time": 21.345454545454544,
                "pitch": 28,
                "velocity": 80,
                "duration": 0.0318181818181813,
                "tempo": 120.0
            },
            {
                "start_time": 21.413636363636364,
                "end_time": 21.445454545454545,
                "pitch": 33,
                "velocity": 80,
                "duration": 0.0318181818181813,
                "tempo": 120.0
            },
            {
                "start_time": 21.513636363636362,
                "end_time": 21.545454545454543,
                "pitch": 36,
                "velocity": 80,
                "duration": 0.0318181818181813,
                "tempo": 120.0
            },
            {
                "start_time": 21.613636363636363,
                "end_time": 21.645454545454545,
                "pitch": 28,
                "velocity": 80,
                "duration": 0.0318181818181813,
                "tempo": 120.0
            },
            {
                "start_time": 21.71363636363636,
                "end_time": 21.847727272727273,
                "pitch": 29,
                "velocity": 80,
                "duration": 0.13409090909091148,
                "tempo": 120.0
            },
            {
                "start_time": 21.91590909090909,
                "end_time": 21.94772727272727,
                "pitch": 29,
                "velocity": 80,
                "duration": 0.0318181818181813,
                "tempo": 120.0
            },
            {
                "start_time": 22.01590909090909,
                "end_time": 22.047727272727272,
                "pitch": 29,
                "velocity": 80,
                "duration": 0.0318181818181813,
                "tempo": 120.0
            },
            {
                "start_time": 22.11590909090909,
                "end_time": 22.15,
                "pitch": 29,
                "velocity": 80,
                "duration": 0.03409090909091006,
                "tempo": 120.0
            },
            {
                "start_time": 22.21818181818182,
                "end_time": 22.25,
                "pitch": 29,
                "velocity": 80,
                "duration": 0.0318181818181813,
                "tempo": 120.0
            },
            {
                "start_time": 22.318181818181817,
                "end_time": 22.45,
                "pitch": 29,
                "velocity": 80,
                "duration": 0.13181818181818272,
                "tempo": 120.0
            },
            {
                "start_time": 22.518181818181816,
                "end_time": 22.652272727272727,
                "pitch": 29,
                "velocity": 80,
                "duration": 0.13409090909091148,
                "tempo": 120.0
            },
            {
                "start_time": 22.720454545454544,
                "end_time": 22.852272727272727,
                "pitch": 29,
                "velocity": 80,
                "duration": 0.13181818181818272,
                "tempo": 120.0
            },
            {
                "start_time": 22.922727272727272,
                "end_time": 23.054545454545455,
                "pitch": 29,
                "velocity": 80,
                "duration": 0.13181818181818272,
                "tempo": 120.0
            },
            {
                "start_time": 23.12272727272727,
                "end_time": 23.154545454545453,
                "pitch": 29,
                "velocity": 80,
                "duration": 0.0318181818181813,
                "tempo": 120.0
            },
            {
                "start_time": 23.222727272727273,
                "end_time": 23.254545454545454,
                "pitch": 29,
                "velocity": 80,
                "duration": 0.0318181818181813,
                "tempo": 120.0
            },
            {
                "start_time": 23.32272727272727,
                "end_time": 23.354545454545452,
                "pitch": 29,
                "velocity": 80,
                "duration": 0.0318181818181813,
                "tempo": 120.0
            },
            {
                "start_time": 23.422727272727272,
                "end_time": 23.454545454545453,
                "pitch": 29,
                "velocity": 80,
                "duration": 0.0318181818181813,
                "tempo": 120.0
            },
            {
                "start_time": 23.525,
                "end_time": 23.65681818181818,
                "pitch": 29,
                "velocity": 80,
                "duration": 0.13181818181818272,
                "tempo": 120.0
            },
            {
                "start_time": 23.724999999999998,
                "end_time": 23.85909090909091,
                "pitch": 29,
                "velocity": 80,
                "duration": 0.13409090909091148,
                "tempo": 120.0
            },
            {
                "start_time": 23.929545454545455,
                "end_time": 24.06590909090909,
                "pitch": 29,
                "velocity": 80,
                "duration": 0.1363636363636367,
                "tempo": 120.0
            },
            {
                "start_time": 24.138636363636362,
                "end_time": 24.168181818181818,
                "pitch": 26,
                "velocity": 80,
                "duration": 0.029545454545456096,
                "tempo": 120.0
            },
            {
                "start_time": 24.238636363636363,
                "end_time": 24.270454545454545,
                "pitch": 29,
                "velocity": 80,
                "duration": 0.0318181818181813,
                "tempo": 120.0
            },
            {
                "start_time": 24.33863636363636,
                "end_time": 24.370454545454546,
                "pitch": 32,
                "velocity": 80,
                "duration": 0.031818181818184854,
                "tempo": 120.0
            },
            {
                "start_time": 24.438636363636363,
                "end_time": 24.470454545454544,
                "pitch": 29,
                "velocity": 80,
                "duration": 0.0318181818181813,
                "tempo": 120.0
            },
            {
                "start_time": 24.538636363636364,
                "end_time": 24.57272727272727,
                "pitch": 32,
                "velocity": 80,
                "duration": 0.03409090909090651,
                "tempo": 120.0
            },
            {
                "start_time": 24.64090909090909,
                "end_time": 24.672727272727272,
                "pitch": 35,
                "velocity": 80,
                "duration": 0.0318181818181813,
                "tempo": 120.0
            },
            {
                "start_time": 24.74090909090909,
                "end_time": 24.77272727272727,
                "pitch": 32,
                "velocity": 80,
                "duration": 0.0318181818181813,
                "tempo": 120.0
            },
            {
                "start_time": 24.84090909090909,
                "end_time": 24.87272727272727,
                "pitch": 35,
                "velocity": 80,
                "duration": 0.0318181818181813,
                "tempo": 120.0
            },
            {
                "start_time": 24.943181818181817,
                "end_time": 24.974999999999998,
                "pitch": 38,
                "velocity": 80,
                "duration": 0.0318181818181813,
                "tempo": 120.0
            },
            {
                "start_time": 25.043181818181818,
                "end_time": 25.075,
                "pitch": 35,
                "velocity": 80,
                "duration": 0.0318181818181813,
                "tempo": 120.0
            },
            {
                "start_time": 25.143181818181816,
                "end_time": 25.174999999999997,
                "pitch": 38,
                "velocity": 80,
                "duration": 0.0318181818181813,
                "tempo": 120.0
            },
            {
                "start_time": 25.243181818181817,
                "end_time": 25.277272727272727,
                "pitch": 41,
                "velocity": 80,
                "duration": 0.03409090909091006,
                "tempo": 120.0
            },
            {
                "start_time": 25.345454545454544,
                "end_time": 25.377272727272725,
                "pitch": 38,
                "velocity": 80,
                "duration": 0.0318181818181813,
                "tempo": 120.0
            },
            {
                "start_time": 25.445454545454545,
                "end_time": 25.477272727272727,
                "pitch": 41,
                "velocity": 80,
                "duration": 0.0318181818181813,
                "tempo": 120.0
            },
            {
                "start_time": 25.545454545454543,
                "end_time": 25.577272727272724,
                "pitch": 44,
                "velocity": 80,
                "duration": 0.0318181818181813,
                "tempo": 120.0
            },
            {
                "start_time": 25.645454545454545,
                "end_time": 25.677272727272726,
                "pitch": 41,
                "velocity": 80,
                "duration": 0.0318181818181813,
                "tempo": 120.0
            },
            {
                "start_time": 25.745454545454542,
                "end_time": 25.777272727272727,
                "pitch": 44,
                "velocity": 80,
                "duration": 0.031818181818184854,
                "tempo": 120.0
            },
            {
                "start_time": 25.845454545454544,
                "end_time": 25.879545454545454,
                "pitch": 47,
                "velocity": 80,
                "duration": 0.03409090909091006,
                "tempo": 120.0
            },
            {
                "start_time": 25.94772727272727,
                "end_time": 25.979545454545452,
                "pitch": 44,
                "velocity": 80,
                "duration": 0.0318181818181813,
                "tempo": 120.0
            },
            {
                "start_time": 26.047727272727272,
                "end_time": 26.079545454545453,
                "pitch": 50,
                "velocity": 80,
                "duration": 0.0318181818181813,
                "tempo": 120.0
            },
            {
                "start_time": 26.14772727272727,
                "end_time": 26.179545454545455,
                "pitch": 47,
                "velocity": 80,
                "duration": 0.031818181818184854,
                "tempo": 120.0
            },
            {
                "start_time": 26.24772727272727,
                "end_time": 26.28181818181818,
                "pitch": 44,
                "velocity": 80,
                "duration": 0.03409090909091006,
                "tempo": 120.0
            },
            {
                "start_time": 26.349999999999998,
                "end_time": 26.38181818181818,
                "pitch": 41,
                "velocity": 80,
                "duration": 0.0318181818181813,
                "tempo": 120.0
            },
            {
                "start_time": 26.45,
                "end_time": 26.48181818181818,
                "pitch": 38,
                "velocity": 80,
                "duration": 0.0318181818181813,
                "tempo": 120.0
            },
            {
                "start_time": 27.759090909090908,
                "end_time": 27.888636363636362,
                "pitch": 33,
                "velocity": 80,
                "duration": 0.12954545454545396,
                "tempo": 120.0
            },
            {
                "start_time": 27.956818181818182,
                "end_time": 27.99090909090909,
                "pitch": 33,
                "velocity": 80,
                "duration": 0.03409090909090651,
                "tempo": 120.0
            }
        ],
        "Electric Piano 1": [
            {
                "start_time": 0.3068181818181818,
                "end_time": 0.8886363636363636,
                "pitch": 23,
                "velocity": 80,
                "duration": 0.5818181818181818,
                "tempo": 120.0
            },
            {
                "start_time": 0.9068181818181817,
                "end_time": 1.190909090909091,
                "pitch": 23,
                "velocity": 80,
                "duration": 0.28409090909090917,
                "tempo": 120.0
            },
            {
                "start_time": 1.509090909090909,
                "end_time": 1.793181818181818,
                "pitch": 23,
                "velocity": 80,
                "duration": 0.28409090909090895,
                "tempo": 120.0
            },
            {
                "start_time": 1.8136363636363635,
                "end_time": 1.8272727272727272,
                "pitch": 36,
                "velocity": 101,
                "duration": 0.013636363636363669,
                "tempo": 120.0
            },
            {
                "start_time": 1.8272727272727272,
                "end_time": 1.8613636363636363,
                "pitch": 33,
                "velocity": 101,
                "duration": 0.03409090909090917,
                "tempo": 120.0
            },
            {
                "start_time": 1.8613636363636363,
                "end_time": 1.893181818181818,
                "pitch": 31,
                "velocity": 101,
                "duration": 0.031818181818181746,
                "tempo": 120.0
            },
            {
                "start_time": 1.9113636363636364,
                "end_time": 1.9272727272727272,
                "pitch": 36,
                "velocity": 101,
                "duration": 0.015909090909090873,
                "tempo": 120.0
            },
            {
                "start_time": 1.9272727272727272,
                "end_time": 1.9613636363636362,
                "pitch": 33,
                "velocity": 101,
                "duration": 0.03409090909090895,
                "tempo": 120.0
            },
            {
                "start_time": 1.9613636363636362,
                "end_time": 1.9954545454545454,
                "pitch": 31,
                "velocity": 101,
                "duration": 0.03409090909090917,
                "tempo": 120.0
            },
            {
                "start_time": 2.0136363636363637,
                "end_time": 2.0272727272727273,
                "pitch": 32,
                "velocity": 101,
                "duration": 0.013636363636363669,
                "tempo": 120.0
            },
            {
                "start_time": 2.0272727272727273,
                "end_time": 2.061363636363636,
                "pitch": 30,
                "velocity": 101,
                "duration": 0.03409090909090873,
                "tempo": 120.0
            },
            {
                "start_time": 2.061363636363636,
                "end_time": 2.0954545454545452,
                "pitch": 27,
                "velocity": 101,
                "duration": 0.03409090909090917,
                "tempo": 120.0
            },
            {
                "start_time": 2.1136363636363633,
                "end_time": 2.127272727272727,
                "pitch": 32,
                "velocity": 101,
                "duration": 0.013636363636363669,
                "tempo": 120.0
            },
            {
                "start_time": 2.0272727272727273,
                "end_time": 2.1295454545454544,
                "pitch": 42,
                "velocity": 101,
                "duration": 0.10227272727272707,
                "tempo": 120.0
            },
            {
                "start_time": 2.127272727272727,
                "end_time": 2.1295454545454544,
                "pitch": 42,
                "velocity": 101,
                "duration": 0.002272727272727426,
                "tempo": 120.0
            },
            {
                "start_time": 2.1295454545454544,
                "end_time": 2.161363636363636,
                "pitch": 30,
                "velocity": 101,
                "duration": 0.031818181818181746,
                "tempo": 120.0
            },
            {
                "start_time": 2.161363636363636,
                "end_time": 2.1954545454545453,
                "pitch": 27,
                "velocity": 101,
                "duration": 0.03409090909090917,
                "tempo": 120.0
            },
            {
                "start_time": 2.2136363636363634,
                "end_time": 2.2295454545454545,
                "pitch": 28,
                "velocity": 101,
                "duration": 0.015909090909091095,
                "tempo": 120.0
            },
            {
                "start_time": 2.2295454545454545,
                "end_time": 2.2636363636363637,
                "pitch": 26,
                "velocity": 101,
                "duration": 0.03409090909090917,
                "tempo": 120.0
            },
            {
                "start_time": 2.2636363636363637,
                "end_time": 2.2954545454545454,
                "pitch": 23,
                "velocity": 101,
                "duration": 0.031818181818181746,
                "tempo": 120.0
            },
            {
                "start_time": 2.3136363636363635,
                "end_time": 2.3295454545454546,
                "pitch": 28,
                "velocity": 101,
                "duration": 0.015909090909091095,
                "tempo": 120.0
            },
            {
                "start_time": 2.3295454545454546,
                "end_time": 2.3636363636363633,
                "pitch": 26,
                "velocity": 101,
                "duration": 0.03409090909090873,
                "tempo": 120.0
            },
            {
                "start_time": 2.3636363636363633,
                "end_time": 2.3954545454545455,
                "pitch": 23,
                "velocity": 101,
                "duration": 0.03181818181818219,
                "tempo": 120.0
            },
            {
                "start_time": 2.715909090909091,
                "end_time": 3.2977272727272724,
                "pitch": 23,
                "velocity": 80,
                "duration": 0.5818181818181816,
                "tempo": 120.0
            },
            {
                "start_time": 3.315909090909091,
                "end_time": 3.5999999999999996,
                "pitch": 23,
                "velocity": 80,
                "duration": 0.2840909090909087,
                "tempo": 120.0
            },
            {
                "start_time": 3.918181818181818,
                "end_time": 4.202272727272727,
                "pitch": 23,
                "velocity": 80,
                "duration": 0.28409090909090917,
                "tempo": 120.0
            },
            {
                "start_time": 4.220454545454546,
                "end_time": 4.302272727272727,
                "pitch": 23,
                "velocity": 80,
                "duration": 0.08181818181818112,
                "tempo": 120.0
            },
            {
                "start_time": 4.320454545454545,
                "end_time": 4.402272727272727,
                "pitch": 23,
                "velocity": 80,
                "duration": 0.08181818181818201,
                "tempo": 120.0
            },
            {
                "start_time": 4.420454545454545,
                "end_time": 4.502272727272727,
                "pitch": 23,
                "velocity": 80,
                "duration": 0.08181818181818201,
                "tempo": 120.0
            },
            {
                "start_time": 4.5204545454545455,
                "end_time": 4.602272727272727,
                "pitch": 23,
                "velocity": 80,
                "duration": 0.08181818181818112,
                "tempo": 120.0
            },
            {
                "start_time": 4.620454545454545,
                "end_time": 4.702272727272727,
                "pitch": 23,
                "velocity": 80,
                "duration": 0.08181818181818201,
                "tempo": 120.0
            },
            {
                "start_time": 4.720454545454545,
                "end_time": 4.804545454545455,
                "pitch": 23,
                "velocity": 80,
                "duration": 0.08409090909090988,
                "tempo": 120.0
            },
            {
                "start_time": 5.122727272727272,
                "end_time": 5.715909090909091,
                "pitch": 23,
                "velocity": 80,
                "duration": 0.5931818181818187,
                "tempo": 120.0
            },
            {
                "start_time": 5.7340909090909085,
                "end_time": 6.009090909090909,
                "pitch": 23,
                "velocity": 80,
                "duration": 0.27500000000000036,
                "tempo": 120.0
            },
            {
                "start_time": 6.327272727272727,
                "end_time": 6.920454545454545,
                "pitch": 23,
                "velocity": 80,
                "duration": 0.5931818181818178,
                "tempo": 120.0
            },
            {
                "start_time": 6.9386363636363635,
                "end_time": 7.213636363636363,
                "pitch": 23,
                "velocity": 80,
                "duration": 0.27499999999999947,
                "tempo": 120.0
            },
            {
                "start_time": 7.529545454545454,
                "end_time": 8.125,
                "pitch": 23,
                "velocity": 80,
                "duration": 0.5954545454545457,
                "tempo": 120.0
            },
            {
                "start_time": 8.143181818181818,
                "end_time": 8.424999999999999,
                "pitch": 23,
                "velocity": 80,
                "duration": 0.2818181818181813,
                "tempo": 120.0
            },
            {
                "start_time": 8.736363636363636,
                "end_time": 9.027272727272727,
                "pitch": 23,
                "velocity": 80,
                "duration": 0.290909090909091,
                "tempo": 120.0
            },
            {
                "start_time": 9.047727272727272,
                "end_time": 9.061363636363636,
                "pitch": 36,
                "velocity": 101,
                "duration": 0.013636363636363669,
                "tempo": 120.0
            },
            {
                "start_time": 9.061363636363636,
                "end_time": 9.095454545454546,
                "pitch": 33,
                "velocity": 101,
                "duration": 0.03409090909091006,
                "tempo": 120.0
            },
            {
                "start_time": 9.095454545454546,
                "end_time": 9.127272727272727,
                "pitch": 31,
                "velocity": 101,
                "duration": 0.0318181818181813,
                "tempo": 120.0
            },
            {
                "start_time": 9.145454545454545,
                "end_time": 9.161363636363635,
                "pitch": 36,
                "velocity": 101,
                "duration": 0.01590909090909065,
                "tempo": 120.0
            },
            {
                "start_time": 9.161363636363635,
                "end_time": 9.195454545454545,
                "pitch": 33,
                "velocity": 101,
                "duration": 0.03409090909091006,
                "tempo": 120.0
            },
            {
                "start_time": 9.195454545454545,
                "end_time": 9.229545454545454,
                "pitch": 31,
                "velocity": 101,
                "duration": 0.034090909090908283,
                "tempo": 120.0
            },
            {
                "start_time": 9.247727272727273,
                "end_time": 9.261363636363637,
                "pitch": 32,
                "velocity": 101,
                "duration": 0.013636363636363669,
                "tempo": 120.0
            },
            {
                "start_time": 9.261363636363637,
                "end_time": 9.295454545454545,
                "pitch": 30,
                "velocity": 101,
                "duration": 0.034090909090908283,
                "tempo": 120.0
            },
            {
                "start_time": 9.295454545454545,
                "end_time": 9.329545454545453,
                "pitch": 27,
                "velocity": 101,
                "duration": 0.034090909090908283,
                "tempo": 120.0
            },
            {
                "start_time": 9.347727272727273,
                "end_time": 9.361363636363636,
                "pitch": 32,
                "velocity": 101,
                "duration": 0.013636363636363669,
                "tempo": 120.0
            },
            {
                "start_time": 9.261363636363637,
                "end_time": 9.361363636363636,
                "pitch": 42,
                "velocity": 101,
                "duration": 0.09999999999999964,
                "tempo": 120.0
            },
            {
                "start_time": 9.361363636363636,
                "end_time": 9.395454545454545,
                "pitch": 30,
                "velocity": 101,
                "duration": 0.034090909090908283,
                "tempo": 120.0
            },
            {
                "start_time": 9.395454545454545,
                "end_time": 9.429545454545455,
                "pitch": 27,
                "velocity": 101,
                "duration": 0.03409090909091006,
                "tempo": 120.0
            },
            {
                "start_time": 9.447727272727272,
                "end_time": 9.461363636363636,
                "pitch": 28,
                "velocity": 101,
                "duration": 0.013636363636363669,
                "tempo": 120.0
            },
            {
                "start_time": 9.461363636363636,
                "end_time": 9.495454545454544,
                "pitch": 26,
                "velocity": 101,
                "duration": 0.034090909090908283,
                "tempo": 120.0
            },
            {
                "start_time": 9.495454545454544,
                "end_time": 9.529545454545454,
                "pitch": 23,
                "velocity": 101,
                "duration": 0.03409090909091006,
                "tempo": 120.0
            },
            {
                "start_time": 9.547727272727272,
                "end_time": 9.563636363636363,
                "pitch": 28,
                "velocity": 101,
                "duration": 0.01590909090909065,
                "tempo": 120.0
            },
            {
                "start_time": 9.563636363636363,
                "end_time": 9.597727272727273,
                "pitch": 26,
                "velocity": 101,
                "duration": 0.03409090909091006,
                "tempo": 120.0
            },
            {
                "start_time": 9.597727272727273,
                "end_time": 9.631818181818181,
                "pitch": 23,
                "velocity": 101,
                "duration": 0.034090909090908283,
                "tempo": 120.0
            },
            {
                "start_time": 9.947727272727272,
                "end_time": 10.534090909090908,
                "pitch": 23,
                "velocity": 80,
                "duration": 0.586363636363636,
                "tempo": 120.0
            },
            {
                "start_time": 10.552272727272726,
                "end_time": 10.836363636363636,
                "pitch": 23,
                "velocity": 80,
                "duration": 0.28409090909091006,
                "tempo": 120.0
            },
            {
                "start_time": 11.154545454545454,
                "end_time": 11.638636363636364,
                "pitch": 23,
                "velocity": 80,
                "duration": 0.48409090909090935,
                "tempo": 120.0
            },
            {
                "start_time": 11.656818181818181,
                "end_time": 11.672727272727272,
                "pitch": 32,
                "velocity": 101,
                "duration": 0.01590909090909065,
                "tempo": 120.0
            },
            {
                "start_time": 9.361363636363636,
                "end_time": 11.672727272727272,
                "pitch": 42,
                "velocity": 101,
                "duration": 2.3113636363636356,
                "tempo": 120.0
            },
            {
                "start_time": 11.672727272727272,
                "end_time": 11.704545454545453,
                "pitch": 30,
                "velocity": 101,
                "duration": 0.0318181818181813,
                "tempo": 120.0
            },
            {
                "start_time": 11.704545454545453,
                "end_time": 11.738636363636363,
                "pitch": 27,
                "velocity": 101,
                "duration": 0.03409090909091006,
                "tempo": 120.0
            },
            {
                "start_time": 11.756818181818181,
                "end_time": 11.772727272727272,
                "pitch": 32,
                "velocity": 101,
                "duration": 0.01590909090909065,
                "tempo": 120.0
            },
            {
                "start_time": 11.672727272727272,
                "end_time": 11.772727272727272,
                "pitch": 42,
                "velocity": 101,
                "duration": 0.09999999999999964,
                "tempo": 120.0
            },
            {
                "start_time": 11.772727272727272,
                "end_time": 11.806818181818182,
                "pitch": 30,
                "velocity": 101,
                "duration": 0.03409090909091006,
                "tempo": 120.0
            },
            {
                "start_time": 11.806818181818182,
                "end_time": 11.84090909090909,
                "pitch": 27,
                "velocity": 101,
                "duration": 0.034090909090908283,
                "tempo": 120.0
            },
            {
                "start_time": 11.85681818181818,
                "end_time": 11.872727272727273,
                "pitch": 28,
                "velocity": 101,
                "duration": 0.015909090909092427,
                "tempo": 120.0
            },
            {
                "start_time": 11.872727272727273,
                "end_time": 11.906818181818181,
                "pitch": 26,
                "velocity": 101,
                "duration": 0.034090909090908283,
                "tempo": 120.0
            },
            {
                "start_time": 11.906818181818181,
                "end_time": 11.94090909090909,
                "pitch": 23,
                "velocity": 101,
                "duration": 0.034090909090908283,
                "tempo": 120.0
            },
            {
                "start_time": 11.956818181818182,
                "end_time": 11.972727272727273,
                "pitch": 28,
                "velocity": 101,
                "duration": 0.01590909090909065,
                "tempo": 120.0
            },
            {
                "start_time": 11.972727272727273,
                "end_time": 12.006818181818181,
                "pitch": 26,
                "velocity": 101,
                "duration": 0.034090909090908283,
                "tempo": 120.0
            },
            {
                "start_time": 12.006818181818181,
                "end_time": 12.040909090909091,
                "pitch": 23,
                "velocity": 101,
                "duration": 0.03409090909091006,
                "tempo": 120.0
            },
            {
                "start_time": 12.35909090909091,
                "end_time": 12.943181818181818,
                "pitch": 23,
                "velocity": 80,
                "duration": 0.584090909090909,
                "tempo": 120.0
            },
            {
                "start_time": 12.961363636363636,
                "end_time": 13.245454545454544,
                "pitch": 23,
                "velocity": 80,
                "duration": 0.2840909090909083,
                "tempo": 120.0
            },
            {
                "start_time": 13.56590909090909,
                "end_time": 14.049999999999999,
                "pitch": 23,
                "velocity": 80,
                "duration": 0.48409090909090935,
                "tempo": 120.0
            },
            {
                "start_time": 14.068181818181818,
                "end_time": 14.081818181818182,
                "pitch": 32,
                "velocity": 101,
                "duration": 0.013636363636363669,
                "tempo": 120.0
            },
            {
                "start_time": 11.772727272727272,
                "end_time": 14.081818181818182,
                "pitch": 42,
                "velocity": 101,
                "duration": 2.3090909090909104,
                "tempo": 120.0
            },
            {
                "start_time": 14.081818181818182,
                "end_time": 14.11590909090909,
                "pitch": 30,
                "velocity": 101,
                "duration": 0.034090909090908283,
                "tempo": 120.0
            },
            {
                "start_time": 14.11590909090909,
                "end_time": 14.149999999999999,
                "pitch": 27,
                "velocity": 101,
                "duration": 0.034090909090908283,
                "tempo": 120.0
            },
            {
                "start_time": 14.168181818181818,
                "end_time": 14.181818181818182,
                "pitch": 32,
                "velocity": 101,
                "duration": 0.013636363636363669,
                "tempo": 120.0
            },
            {
                "start_time": 14.081818181818182,
                "end_time": 14.181818181818182,
                "pitch": 42,
                "velocity": 101,
                "duration": 0.09999999999999964,
                "tempo": 120.0
            },
            {
                "start_time": 14.181818181818182,
                "end_time": 14.21590909090909,
                "pitch": 30,
                "velocity": 101,
                "duration": 0.034090909090908283,
                "tempo": 120.0
            },
            {
                "start_time": 14.21590909090909,
                "end_time": 14.25,
                "pitch": 27,
                "velocity": 101,
                "duration": 0.03409090909091006,
                "tempo": 120.0
            },
            {
                "start_time": 14.268181818181818,
                "end_time": 14.281818181818181,
                "pitch": 28,
                "velocity": 101,
                "duration": 0.013636363636363669,
                "tempo": 120.0
            },
            {
                "start_time": 14.281818181818181,
                "end_time": 14.31590909090909,
                "pitch": 26,
                "velocity": 101,
                "duration": 0.034090909090908283,
                "tempo": 120.0
            },
            {
                "start_time": 14.31590909090909,
                "end_time": 14.35,
                "pitch": 23,
                "velocity": 101,
                "duration": 0.03409090909091006,
                "tempo": 120.0
            },
            {
                "start_time": 14.368181818181817,
                "end_time": 14.384090909090908,
                "pitch": 28,
                "velocity": 101,
                "duration": 0.01590909090909065,
                "tempo": 120.0
            },
            {
                "start_time": 14.384090909090908,
                "end_time": 14.415909090909091,
                "pitch": 26,
                "velocity": 101,
                "duration": 0.03181818181818308,
                "tempo": 120.0
            },
            {
                "start_time": 14.415909090909091,
                "end_time": 14.45,
                "pitch": 23,
                "velocity": 101,
                "duration": 0.034090909090908283,
                "tempo": 120.0
            },
            {
                "start_time": 14.770454545454545,
                "end_time": 15.354545454545454,
                "pitch": 23,
                "velocity": 80,
                "duration": 0.584090909090909,
                "tempo": 120.0
            },
            {
                "start_time": 15.372727272727271,
                "end_time": 15.656818181818181,
                "pitch": 23,
                "velocity": 80,
                "duration": 0.28409090909091006,
                "tempo": 120.0
            },
            {
                "start_time": 15.975,
                "end_time": 16.259090909090908,
                "pitch": 23,
                "velocity": 80,
                "duration": 0.2840909090909083,
                "tempo": 120.0
            },
            {
                "start_time": 16.277272727272727,
                "end_time": 16.361363636363635,
                "pitch": 23,
                "velocity": 80,
                "duration": 0.08409090909090722,
                "tempo": 120.0
            },
            {
                "start_time": 16.379545454545454,
                "end_time": 16.46590909090909,
                "pitch": 23,
                "velocity": 80,
                "duration": 0.08636363636363598,
                "tempo": 120.0
            },
            {
                "start_time": 16.48409090909091,
                "end_time": 16.568181818181817,
                "pitch": 23,
                "velocity": 80,
                "duration": 0.08409090909090722,
                "tempo": 120.0
            },
            {
                "start_time": 16.586363636363636,
                "end_time": 16.670454545454543,
                "pitch": 23,
                "velocity": 80,
                "duration": 0.08409090909090722,
                "tempo": 120.0
            },
            {
                "start_time": 16.688636363636363,
                "end_time": 16.770454545454545,
                "pitch": 23,
                "velocity": 80,
                "duration": 0.08181818181818201,
                "tempo": 120.0
            },
            {
                "start_time": 16.788636363636364,
                "end_time": 16.87272727272727,
                "pitch": 23,
                "velocity": 80,
                "duration": 0.08409090909090722,
                "tempo": 120.0
            },
            {
                "start_time": 17.19090909090909,
                "end_time": 17.775,
                "pitch": 23,
                "velocity": 80,
                "duration": 0.5840909090909072,
                "tempo": 120.0
            },
            {
                "start_time": 17.793181818181818,
                "end_time": 18.077272727272728,
                "pitch": 23,
                "velocity": 80,
                "duration": 0.28409090909091006,
                "tempo": 120.0
            },
            {
                "start_time": 18.397727272727273,
                "end_time": 18.679545454545455,
                "pitch": 23,
                "velocity": 80,
                "duration": 0.2818181818181813,
                "tempo": 120.0
            },
            {
                "start_time": 18.7,
                "end_time": 18.71363636363636,
                "pitch": 36,
                "velocity": 101,
                "duration": 0.013636363636361892,
                "tempo": 120.0
            },
            {
                "start_time": 18.71363636363636,
                "end_time": 18.74772727272727,
                "pitch": 33,
                "velocity": 101,
                "duration": 0.03409090909091006,
                "tempo": 120.0
            },
            {
                "start_time": 18.74772727272727,
                "end_time": 18.779545454545453,
                "pitch": 31,
                "velocity": 101,
                "duration": 0.0318181818181813,
                "tempo": 120.0
            },
            {
                "start_time": 18.797727272727272,
                "end_time": 18.813636363636363,
                "pitch": 36,
                "velocity": 101,
                "duration": 0.01590909090909065,
                "tempo": 120.0
            },
            {
                "start_time": 18.813636363636363,
                "end_time": 18.847727272727273,
                "pitch": 33,
                "velocity": 101,
                "duration": 0.03409090909091006,
                "tempo": 120.0
            },
            {
                "start_time": 18.847727272727273,
                "end_time": 18.88181818181818,
                "pitch": 31,
                "velocity": 101,
                "duration": 0.03409090909090651,
                "tempo": 120.0
            },
            {
                "start_time": 18.9,
                "end_time": 18.913636363636364,
                "pitch": 32,
                "velocity": 101,
                "duration": 0.013636363636365445,
                "tempo": 120.0
            },
            {
                "start_time": 14.181818181818182,
                "end_time": 18.913636363636364,
                "pitch": 42,
                "velocity": 101,
                "duration": 4.731818181818182,
                "tempo": 120.0
            },
            {
                "start_time": 18.913636363636364,
                "end_time": 18.94772727272727,
                "pitch": 30,
                "velocity": 101,
                "duration": 0.03409090909090651,
                "tempo": 120.0
            },
            {
                "start_time": 18.94772727272727,
                "end_time": 18.98181818181818,
                "pitch": 27,
                "velocity": 101,
                "duration": 0.03409090909091006,
                "tempo": 120.0
            },
            {
                "start_time": 19.0,
                "end_time": 19.01590909090909,
                "pitch": 32,
                "velocity": 101,
                "duration": 0.01590909090909065,
                "tempo": 120.0
            },
            {
                "start_time": 18.913636363636364,
                "end_time": 19.01590909090909,
                "pitch": 42,
                "velocity": 101,
                "duration": 0.10227272727272663,
                "tempo": 120.0
            },
            {
                "start_time": 19.01590909090909,
                "end_time": 19.05,
                "pitch": 30,
                "velocity": 101,
                "duration": 0.03409090909091006,
                "tempo": 120.0
            },
            {
                "start_time": 19.05,
                "end_time": 19.081818181818182,
                "pitch": 27,
                "velocity": 101,
                "duration": 0.0318181818181813,
                "tempo": 120.0
            },
            {
                "start_time": 19.099999999999998,
                "end_time": 19.11590909090909,
                "pitch": 28,
                "velocity": 101,
                "duration": 0.01590909090909065,
                "tempo": 120.0
            },
            {
                "start_time": 19.11590909090909,
                "end_time": 19.15,
                "pitch": 26,
                "velocity": 101,
                "duration": 0.03409090909091006,
                "tempo": 120.0
            },
            {
                "start_time": 19.15,
                "end_time": 19.18409090909091,
                "pitch": 23,
                "velocity": 101,
                "duration": 0.03409090909091006,
                "tempo": 120.0
            },
            {
                "start_time": 19.2,
                "end_time": 19.21590909090909,
                "pitch": 28,
                "velocity": 101,
                "duration": 0.01590909090909065,
                "tempo": 120.0
            },
            {
                "start_time": 19.21590909090909,
                "end_time": 19.25,
                "pitch": 26,
                "velocity": 101,
                "duration": 0.03409090909091006,
                "tempo": 120.0
            },
            {
                "start_time": 19.25,
                "end_time": 19.284090909090907,
                "pitch": 23,
                "velocity": 101,
                "duration": 0.03409090909090651,
                "tempo": 120.0
            },
            {
                "start_time": 19.604545454545452,
                "end_time": 20.19772727272727,
                "pitch": 23,
                "velocity": 80,
                "duration": 0.5931818181818187,
                "tempo": 120.0
            },
            {
                "start_time": 20.21590909090909,
                "end_time": 20.49090909090909,
                "pitch": 23,
                "velocity": 80,
                "duration": 0.2749999999999986,
                "tempo": 120.0
            },
            {
                "start_time": 20.80909090909091,
                "end_time": 21.095454545454544,
                "pitch": 23,
                "velocity": 80,
                "duration": 0.28636363636363527,
                "tempo": 120.0
            },
            {
                "start_time": 21.113636363636363,
                "end_time": 21.195454545454545,
                "pitch": 23,
                "velocity": 80,
                "duration": 0.08181818181818201,
                "tempo": 120.0
            },
            {
                "start_time": 21.211363636363636,
                "end_time": 21.295454545454543,
                "pitch": 23,
                "velocity": 80,
                "duration": 0.08409090909090722,
                "tempo": 120.0
            },
            {
                "start_time": 21.313636363636363,
                "end_time": 21.395454545454545,
                "pitch": 23,
                "velocity": 80,
                "duration": 0.08181818181818201,
                "tempo": 120.0
            },
            {
                "start_time": 21.413636363636364,
                "end_time": 21.495454545454546,
                "pitch": 23,
                "velocity": 80,
                "duration": 0.08181818181818201,
                "tempo": 120.0
            },
            {
                "start_time": 21.513636363636362,
                "end_time": 21.595454545454544,
                "pitch": 23,
                "velocity": 80,
                "duration": 0.08181818181818201,
                "tempo": 120.0
            },
            {
                "start_time": 21.613636363636363,
                "end_time": 21.69772727272727,
                "pitch": 23,
                "velocity": 80,
                "duration": 0.08409090909090722,
                "tempo": 120.0
            },
            {
                "start_time": 22.01590909090909,
                "end_time": 22.602272727272727,
                "pitch": 23,
                "velocity": 80,
                "duration": 0.586363636363636,
                "tempo": 120.0
            },
            {
                "start_time": 22.620454545454546,
                "end_time": 22.904545454545453,
                "pitch": 23,
                "velocity": 80,
                "duration": 0.2840909090909065,
                "tempo": 120.0
            },
            {
                "start_time": 23.222727272727273,
                "end_time": 23.706818181818182,
                "pitch": 23,
                "velocity": 80,
                "duration": 0.48409090909090935,
                "tempo": 120.0
            },
            {
                "start_time": 23.724999999999998,
                "end_time": 23.80909090909091,
                "pitch": 23,
                "velocity": 80,
                "duration": 0.08409090909091077,
                "tempo": 120.0
            },
            {
                "start_time": 23.825,
                "end_time": 23.911363636363635,
                "pitch": 23,
                "velocity": 80,
                "duration": 0.08636363636363598,
                "tempo": 120.0
            },
            {
                "start_time": 23.93181818181818,
                "end_time": 23.945454545454545,
                "pitch": 32,
                "velocity": 101,
                "duration": 0.013636363636365445,
                "tempo": 120.0
            },
            {
                "start_time": 19.01590909090909,
                "end_time": 23.945454545454545,
                "pitch": 42,
                "velocity": 101,
                "duration": 4.929545454545455,
                "tempo": 120.0
            },
            {
                "start_time": 23.945454545454545,
                "end_time": 23.979545454545452,
                "pitch": 30,
                "velocity": 101,
                "duration": 0.03409090909090651,
                "tempo": 120.0
            },
            {
                "start_time": 23.979545454545452,
                "end_time": 24.01590909090909,
                "pitch": 27,
                "velocity": 101,
                "duration": 0.03636363636363882,
                "tempo": 120.0
            },
            {
                "start_time": 24.034090909090907,
                "end_time": 24.049999999999997,
                "pitch": 32,
                "velocity": 101,
                "duration": 0.01590909090909065,
                "tempo": 120.0
            },
            {
                "start_time": 23.945454545454545,
                "end_time": 24.049999999999997,
                "pitch": 42,
                "velocity": 101,
                "duration": 0.10454545454545183,
                "tempo": 120.0
            },
            {
                "start_time": 24.049999999999997,
                "end_time": 24.084090909090907,
                "pitch": 30,
                "velocity": 101,
                "duration": 0.03409090909091006,
                "tempo": 120.0
            },
            {
                "start_time": 24.084090909090907,
                "end_time": 24.118181818181817,
                "pitch": 27,
                "velocity": 101,
                "duration": 0.03409090909091006,
                "tempo": 120.0
            },
            {
                "start_time": 24.138636363636362,
                "end_time": 24.152272727272727,
                "pitch": 28,
                "velocity": 101,
                "duration": 0.013636363636365445,
                "tempo": 120.0
            },
            {
                "start_time": 24.152272727272727,
                "end_time": 24.170454545454543,
                "pitch": 26,
                "velocity": 101,
                "duration": 0.018181818181815856,
                "tempo": 120.0
            },
            {
                "start_time": 24.186363636363634,
                "end_time": 24.202272727272724,
                "pitch": 28,
                "velocity": 101,
                "duration": 0.01590909090909065,
                "tempo": 120.0
            },
            {
                "start_time": 24.202272727272724,
                "end_time": 24.220454545454544,
                "pitch": 26,
                "velocity": 101,
                "duration": 0.01818181818181941,
                "tempo": 120.0
            },
            {
                "start_time": 24.238636363636363,
                "end_time": 24.252272727272725,
                "pitch": 28,
                "velocity": 101,
                "duration": 0.013636363636361892,
                "tempo": 120.0
            },
            {
                "start_time": 24.252272727272725,
                "end_time": 24.286363636363635,
                "pitch": 26,
                "velocity": 101,
                "duration": 0.03409090909091006,
                "tempo": 120.0
            },
            {
                "start_time": 24.286363636363635,
                "end_time": 24.320454545454545,
                "pitch": 23,
                "velocity": 101,
                "duration": 0.03409090909091006,
                "tempo": 120.0
            },
            {
                "start_time": 24.33863636363636,
                "end_time": 24.354545454545452,
                "pitch": 28,
                "velocity": 101,
                "duration": 0.01590909090909065,
                "tempo": 120.0
            },
            {
                "start_time": 24.354545454545452,
                "end_time": 24.388636363636362,
                "pitch": 26,
                "velocity": 101,
                "duration": 0.03409090909091006,
                "tempo": 120.0
            },
            {
                "start_time": 24.388636363636362,
                "end_time": 24.420454545454543,
                "pitch": 23,
                "velocity": 101,
                "duration": 0.0318181818181813,
                "tempo": 120.0
            },
            {
                "start_time": 24.438636363636363,
                "end_time": 24.454545454545453,
                "pitch": 28,
                "velocity": 101,
                "duration": 0.01590909090909065,
                "tempo": 120.0
            },
            {
                "start_time": 24.454545454545453,
                "end_time": 24.488636363636363,
                "pitch": 26,
                "velocity": 101,
                "duration": 0.03409090909091006,
                "tempo": 120.0
            },
            {
                "start_time": 24.488636363636363,
                "end_time": 24.52272727272727,
                "pitch": 23,
                "velocity": 101,
                "duration": 0.03409090909090651,
                "tempo": 120.0
            },
            {
                "start_time": 24.54090909090909,
                "end_time": 24.554545454545455,
                "pitch": 28,
                "velocity": 101,
                "duration": 0.013636363636365445,
                "tempo": 120.0
            },
            {
                "start_time": 24.554545454545455,
                "end_time": 24.58863636363636,
                "pitch": 26,
                "velocity": 101,
                "duration": 0.03409090909090651,
                "tempo": 120.0
            },
            {
                "start_time": 24.58863636363636,
                "end_time": 24.62272727272727,
                "pitch": 23,
                "velocity": 101,
                "duration": 0.03409090909091006,
                "tempo": 120.0
            },
            {
                "start_time": 24.64090909090909,
                "end_time": 24.654545454545453,
                "pitch": 28,
                "velocity": 101,
                "duration": 0.013636363636361892,
                "tempo": 120.0
            },
            {
                "start_time": 24.654545454545453,
                "end_time": 24.69090909090909,
                "pitch": 26,
                "velocity": 101,
                "duration": 0.03636363636363882,
                "tempo": 120.0
            },
            {
                "start_time": 24.69090909090909,
                "end_time": 24.722727272727273,
                "pitch": 23,
                "velocity": 101,
                "duration": 0.0318181818181813,
                "tempo": 120.0
            },
            {
                "start_time": 24.74090909090909,
                "end_time": 24.75681818181818,
                "pitch": 32,
                "velocity": 101,
                "duration": 0.01590909090909065,
                "tempo": 120.0
            },
            {
                "start_time": 24.049999999999997,
                "end_time": 24.75681818181818,
                "pitch": 42,
                "velocity": 101,
                "duration": 0.706818181818182,
                "tempo": 120.0
            },
            {
                "start_time": 24.75681818181818,
                "end_time": 24.77272727272727,
                "pitch": 30,
                "velocity": 101,
                "duration": 0.01590909090909065,
                "tempo": 120.0
            },
            {
                "start_time": 24.79090909090909,
                "end_time": 24.80681818181818,
                "pitch": 32,
                "velocity": 101,
                "duration": 0.01590909090909065,
                "tempo": 120.0
            },
            {
                "start_time": 24.75681818181818,
                "end_time": 24.80681818181818,
                "pitch": 42,
                "velocity": 101,
                "duration": 0.05000000000000071,
                "tempo": 120.0
            },
            {
                "start_time": 24.80681818181818,
                "end_time": 24.825,
                "pitch": 30,
                "velocity": 101,
                "duration": 0.01818181818181941,
                "tempo": 120.0
            },
            {
                "start_time": 24.84318181818182,
                "end_time": 24.85681818181818,
                "pitch": 32,
                "velocity": 101,
                "duration": 0.013636363636361892,
                "tempo": 120.0
            },
            {
                "start_time": 24.80681818181818,
                "end_time": 24.85681818181818,
                "pitch": 42,
                "velocity": 101,
                "duration": 0.05000000000000071,
                "tempo": 120.0
            },
            {
                "start_time": 24.85681818181818,
                "end_time": 24.89090909090909,
                "pitch": 30,
                "velocity": 101,
                "duration": 0.03409090909091006,
                "tempo": 120.0
            },
            {
                "start_time": 24.89090909090909,
                "end_time": 24.924999999999997,
                "pitch": 27,
                "velocity": 101,
                "duration": 0.03409090909090651,
                "tempo": 120.0
            },
            {
                "start_time": 24.943181818181817,
                "end_time": 24.956818181818182,
                "pitch": 32,
                "velocity": 101,
                "duration": 0.013636363636365445,
                "tempo": 120.0
            },
            {
                "start_time": 24.85681818181818,
                "end_time": 24.956818181818182,
                "pitch": 42,
                "velocity": 101,
                "duration": 0.10000000000000142,
                "tempo": 120.0
            },
            {
                "start_time": 24.956818181818182,
                "end_time": 24.99090909090909,
                "pitch": 30,
                "velocity": 101,
                "duration": 0.03409090909090651,
                "tempo": 120.0
            },
            {
                "start_time": 24.99090909090909,
                "end_time": 25.025,
                "pitch": 27,
                "velocity": 101,
                "duration": 0.03409090909091006,
                "tempo": 120.0
            },
            {
                "start_time": 25.043181818181818,
                "end_time": 25.05909090909091,
                "pitch": 32,
                "velocity": 101,
                "duration": 0.01590909090909065,
                "tempo": 120.0
            },
            {
                "start_time": 24.956818181818182,
                "end_time": 25.05909090909091,
                "pitch": 42,
                "velocity": 101,
                "duration": 0.10227272727272663,
                "tempo": 120.0
            },
            {
                "start_time": 25.05909090909091,
                "end_time": 25.09318181818182,
                "pitch": 30,
                "velocity": 101,
                "duration": 0.03409090909091006,
                "tempo": 120.0
            },
            {
                "start_time": 25.09318181818182,
                "end_time": 25.125,
                "pitch": 27,
                "velocity": 101,
                "duration": 0.0318181818181813,
                "tempo": 120.0
            },
            {
                "start_time": 25.143181818181816,
                "end_time": 25.159090909090907,
                "pitch": 32,
                "velocity": 101,
                "duration": 0.01590909090909065,
                "tempo": 120.0
            },
            {
                "start_time": 25.05909090909091,
                "end_time": 25.159090909090907,
                "pitch": 42,
                "velocity": 101,
                "duration": 0.09999999999999787,
                "tempo": 120.0
            },
            {
                "start_time": 25.159090909090907,
                "end_time": 25.193181818181817,
                "pitch": 30,
                "velocity": 101,
                "duration": 0.03409090909091006,
                "tempo": 120.0
            },
            {
                "start_time": 25.193181818181817,
                "end_time": 25.227272727272727,
                "pitch": 27,
                "velocity": 101,
                "duration": 0.03409090909091006,
                "tempo": 120.0
            },
            {
                "start_time": 25.245454545454542,
                "end_time": 25.259090909090908,
                "pitch": 32,
                "velocity": 101,
                "duration": 0.013636363636365445,
                "tempo": 120.0
            },
            {
                "start_time": 25.159090909090907,
                "end_time": 25.259090909090908,
                "pitch": 42,
                "velocity": 101,
                "duration": 0.10000000000000142,
                "tempo": 120.0
            },
            {
                "start_time": 25.259090909090908,
                "end_time": 25.293181818181818,
                "pitch": 30,
                "velocity": 101,
                "duration": 0.03409090909091006,
                "tempo": 120.0
            },
            {
                "start_time": 25.293181818181818,
                "end_time": 25.327272727272724,
                "pitch": 27,
                "velocity": 101,
                "duration": 0.03409090909090651,
                "tempo": 120.0
            },
            {
                "start_time": 25.345454545454544,
                "end_time": 25.427272727272726,
                "pitch": 23,
                "velocity": 80,
                "duration": 0.08181818181818201,
                "tempo": 120.0
            },
            {
                "start_time": 25.445454545454545,
                "end_time": 25.527272727272727,
                "pitch": 23,
                "velocity": 80,
                "duration": 0.08181818181818201,
                "tempo": 120.0
            },
            {
                "start_time": 25.545454545454543,
                "end_time": 25.627272727272725,
                "pitch": 23,
                "velocity": 80,
                "duration": 0.08181818181818201,
                "tempo": 120.0
            },
            {
                "start_time": 25.645454545454545,
                "end_time": 25.727272727272727,
                "pitch": 23,
                "velocity": 80,
                "duration": 0.08181818181818201,
                "tempo": 120.0
            },
            {
                "start_time": 25.745454545454542,
                "end_time": 25.829545454545453,
                "pitch": 23,
                "velocity": 80,
                "duration": 0.08409090909091077,
                "tempo": 120.0
            },
            {
                "start_time": 25.847727272727273,
                "end_time": 25.929545454545455,
                "pitch": 23,
                "velocity": 80,
                "duration": 0.08181818181818201,
                "tempo": 120.0
            },
            {
                "start_time": 25.94772727272727,
                "end_time": 25.961363636363636,
                "pitch": 28,
                "velocity": 101,
                "duration": 0.013636363636365445,
                "tempo": 120.0
            },
            {
                "start_time": 25.961363636363636,
                "end_time": 25.995454545454542,
                "pitch": 26,
                "velocity": 101,
                "duration": 0.03409090909090651,
                "tempo": 120.0
            },
            {
                "start_time": 25.995454545454542,
                "end_time": 26.029545454545453,
                "pitch": 23,
                "velocity": 101,
                "duration": 0.03409090909091006,
                "tempo": 120.0
            },
            {
                "start_time": 26.047727272727272,
                "end_time": 26.063636363636363,
                "pitch": 28,
                "velocity": 101,
                "duration": 0.01590909090909065,
                "tempo": 120.0
            },
            {
                "start_time": 26.063636363636363,
                "end_time": 26.097727272727273,
                "pitch": 26,
                "velocity": 101,
                "duration": 0.03409090909091006,
                "tempo": 120.0
            },
            {
                "start_time": 26.097727272727273,
                "end_time": 26.13181818181818,
                "pitch": 23,
                "velocity": 101,
                "duration": 0.03409090909090651,
                "tempo": 120.0
            },
            {
                "start_time": 26.14772727272727,
                "end_time": 26.163636363636364,
                "pitch": 28,
                "velocity": 101,
                "duration": 0.015909090909094203,
                "tempo": 120.0
            },
            {
                "start_time": 26.163636363636364,
                "end_time": 26.19772727272727,
                "pitch": 26,
                "velocity": 101,
                "duration": 0.03409090909090651,
                "tempo": 120.0
            },
            {
                "start_time": 26.19772727272727,
                "end_time": 26.23181818181818,
                "pitch": 23,
                "velocity": 101,
                "duration": 0.03409090909091006,
                "tempo": 120.0
            },
            {
                "start_time": 26.25,
                "end_time": 26.263636363636362,
                "pitch": 32,
                "velocity": 101,
                "duration": 0.013636363636361892,
                "tempo": 120.0
            },
            {
                "start_time": 25.259090909090908,
                "end_time": 26.263636363636362,
                "pitch": 42,
                "velocity": 101,
                "duration": 1.004545454545454,
                "tempo": 120.0
            },
            {
                "start_time": 26.263636363636362,
                "end_time": 26.297727272727272,
                "pitch": 30,
                "velocity": 101,
                "duration": 0.03409090909091006,
                "tempo": 120.0
            },
            {
                "start_time": 26.297727272727272,
                "end_time": 26.331818181818182,
                "pitch": 27,
                "velocity": 101,
                "duration": 0.03409090909091006,
                "tempo": 120.0
            },
            {
                "start_time": 26.349999999999998,
                "end_time": 26.36590909090909,
                "pitch": 32,
                "velocity": 101,
                "duration": 0.01590909090909065,
                "tempo": 120.0
            },
            {
                "start_time": 26.263636363636362,
                "end_time": 26.36590909090909,
                "pitch": 42,
                "velocity": 101,
                "duration": 0.10227272727272663,
                "tempo": 120.0
            },
            {
                "start_time": 26.36590909090909,
                "end_time": 26.4,
                "pitch": 30,
                "velocity": 101,
                "duration": 0.03409090909091006,
                "tempo": 120.0
            },
            {
                "start_time": 26.4,
                "end_time": 26.43181818181818,
                "pitch": 27,
                "velocity": 101,
                "duration": 0.0318181818181813,
                "tempo": 120.0
            },
            {
                "start_time": 26.45,
                "end_time": 26.46590909090909,
                "pitch": 32,
                "velocity": 101,
                "duration": 0.01590909090909065,
                "tempo": 120.0
            },
            {
                "start_time": 26.36590909090909,
                "end_time": 26.46590909090909,
                "pitch": 42,
                "velocity": 101,
                "duration": 0.10000000000000142,
                "tempo": 120.0
            },
            {
                "start_time": 26.46590909090909,
                "end_time": 26.5,
                "pitch": 30,
                "velocity": 101,
                "duration": 0.03409090909091006,
                "tempo": 120.0
            },
            {
                "start_time": 26.5,
                "end_time": 26.534090909090907,
                "pitch": 27,
                "velocity": 101,
                "duration": 0.03409090909090651,
                "tempo": 120.0
            },
            {
                "start_time": 26.552272727272726,
                "end_time": 26.581818181818182,
                "pitch": 23,
                "velocity": 80,
                "duration": 0.029545454545456096,
                "tempo": 120.0
            },
            {
                "start_time": 26.599999999999998,
                "end_time": 26.634090909090908,
                "pitch": 23,
                "velocity": 80,
                "duration": 0.03409090909091006,
                "tempo": 120.0
            },
            {
                "start_time": 26.65,
                "end_time": 26.73409090909091,
                "pitch": 23,
                "velocity": 80,
                "duration": 0.08409090909091077,
                "tempo": 120.0
            },
            {
                "start_time": 26.75,
                "end_time": 26.834090909090907,
                "pitch": 23,
                "velocity": 80,
                "duration": 0.08409090909090722,
                "tempo": 120.0
            },
            {
                "start_time": 26.852272727272727,
                "end_time": 26.936363636363634,
                "pitch": 23,
                "velocity": 80,
                "duration": 0.08409090909090722,
                "tempo": 120.0
            },
            {
                "start_time": 26.954545454545453,
                "end_time": 27.034090909090907,
                "pitch": 23,
                "velocity": 80,
                "duration": 0.07954545454545325,
                "tempo": 120.0
            },
            {
                "start_time": 27.054545454545455,
                "end_time": 27.134090909090908,
                "pitch": 23,
                "velocity": 80,
                "duration": 0.07954545454545325,
                "tempo": 120.0
            },
            {
                "start_time": 27.154545454545453,
                "end_time": 27.18409090909091,
                "pitch": 15,
                "velocity": 101,
                "duration": 0.029545454545456096,
                "tempo": 120.0
            },
            {
                "start_time": 27.202272727272724,
                "end_time": 27.236363636363635,
                "pitch": 15,
                "velocity": 101,
                "duration": 0.03409090909091006,
                "tempo": 120.0
            },
            {
                "start_time": 27.254545454545454,
                "end_time": 27.286363636363635,
                "pitch": 15,
                "velocity": 101,
                "duration": 0.0318181818181813,
                "tempo": 120.0
            },
            {
                "start_time": 27.286363636363635,
                "end_time": 27.320454545454545,
                "pitch": 12,
                "velocity": 101,
                "duration": 0.03409090909091006,
                "tempo": 120.0
            },
            {
                "start_time": 27.320454545454545,
                "end_time": 27.336363636363636,
                "pitch": 9,
                "velocity": 101,
                "duration": 0.01590909090909065,
                "tempo": 120.0
            },
            {
                "start_time": 27.354545454545452,
                "end_time": 27.386363636363637,
                "pitch": 15,
                "velocity": 101,
                "duration": 0.031818181818184854,
                "tempo": 120.0
            },
            {
                "start_time": 27.386363636363637,
                "end_time": 27.420454545454543,
                "pitch": 12,
                "velocity": 101,
                "duration": 0.03409090909090651,
                "tempo": 120.0
            },
            {
                "start_time": 27.420454545454543,
                "end_time": 27.436363636363634,
                "pitch": 9,
                "velocity": 101,
                "duration": 0.01590909090909065,
                "tempo": 120.0
            },
            {
                "start_time": 27.456818181818182,
                "end_time": 27.486363636363635,
                "pitch": 15,
                "velocity": 101,
                "duration": 0.029545454545452543,
                "tempo": 120.0
            },
            {
                "start_time": 27.486363636363635,
                "end_time": 27.520454545454545,
                "pitch": 12,
                "velocity": 101,
                "duration": 0.03409090909091006,
                "tempo": 120.0
            },
            {
                "start_time": 27.520454545454545,
                "end_time": 27.536363636363635,
                "pitch": 9,
                "velocity": 101,
                "duration": 0.01590909090909065,
                "tempo": 120.0
            },
            {
                "start_time": 27.55681818181818,
                "end_time": 27.58863636363636,
                "pitch": 15,
                "velocity": 101,
                "duration": 0.0318181818181813,
                "tempo": 120.0
            },
            {
                "start_time": 27.58863636363636,
                "end_time": 27.620454545454542,
                "pitch": 12,
                "velocity": 101,
                "duration": 0.0318181818181813,
                "tempo": 120.0
            },
            {
                "start_time": 27.620454545454542,
                "end_time": 27.638636363636362,
                "pitch": 9,
                "velocity": 101,
                "duration": 0.01818181818181941,
                "tempo": 120.0
            },
            {
                "start_time": 27.65681818181818,
                "end_time": 27.688636363636363,
                "pitch": 15,
                "velocity": 101,
                "duration": 0.0318181818181813,
                "tempo": 120.0
            },
            {
                "start_time": 27.688636363636363,
                "end_time": 27.722727272727273,
                "pitch": 12,
                "velocity": 101,
                "duration": 0.03409090909091006,
                "tempo": 120.0
            },
            {
                "start_time": 27.722727272727273,
                "end_time": 27.738636363636363,
                "pitch": 9,
                "velocity": 101,
                "duration": 0.01590909090909065,
                "tempo": 120.0
            }
        ]
    }
}