{
    "track_id": "16 Demo 2",
    "mood": "sad",
    "instruments": {
        "Acoustic Grand Piano": [
            {
                "start_time": 53.38181818181818,
                "end_time": 56.74545454545454,
                "pitch": 31,
                "velocity": 101,
                "duration": 3.3636363636363598,
                "tempo": 120.0
            }
        ],
        "Acoustic Guitar (nylon)": [
            {
                "start_time": 26.661363636363635,
                "end_time": 28.327272727272724,
                "pitch": 92,
                "velocity": 80,
                "duration": 1.6659090909090892,
                "tempo": 120.0
            },
            {
                "start_time": 28.327272727272724,
                "end_time": 29.995454545454542,
                "pitch": 89,
                "velocity": 80,
                "duration": 1.668181818181818,
                "tempo": 120.0
            },
            {
                "start_time": 29.995454545454542,
                "end_time": 31.66363636363636,
                "pitch": 95,
                "velocity": 80,
                "duration": 1.668181818181818,
                "tempo": 120.0
            },
            {
                "start_time": 31.66363636363636,
                "end_time": 33.33181818181818,
                "pitch": 86,
                "velocity": 80,
                "duration": 1.668181818181818,
                "tempo": 120.0
            },
            {
                "start_time": 33.33181818181818,
                "end_time": 34.986363636363635,
                "pitch": 92,
                "velocity": 80,
                "duration": 1.654545454545456,
                "tempo": 120.0
            },
            {
                "start_time": 34.986363636363635,
                "end_time": 36.654545454545456,
                "pitch": 89,
                "velocity": 80,
                "duration": 1.6681818181818215,
                "tempo": 120.0
            },
            {
                "start_time": 36.654545454545456,
                "end_time": 38.32272727272727,
                "pitch": 95,
                "velocity": 80,
                "duration": 1.6681818181818144,
                "tempo": 120.0
            },
            {
                "start_time": 38.32272727272727,
                "end_time": 39.98863636363636,
                "pitch": 86,
                "velocity": 80,
                "duration": 1.6659090909090892,
                "tempo": 120.0
            },
            {
                "start_time": 39.99090909090909,
                "end_time": 41.65681818181818,
                "pitch": 92,
                "velocity": 80,
                "duration": 1.6659090909090892,
                "tempo": 120.0
            },
            {
                "start_time": 41.65681818181818,
                "end_time": 43.324999999999996,
                "pitch": 89,
                "velocity": 80,
                "duration": 1.6681818181818144,
                "tempo": 120.0
            },
            {
                "start_time": 43.324999999999996,
                "end_time": 44.99318181818182,
                "pitch": 95,
                "velocity": 80,
                "duration": 1.6681818181818215,
                "tempo": 120.0
            },
            {
                "start_time": 44.99318181818182,
                "end_time": 46.65909090909091,
                "pitch": 86,
                "velocity": 80,
                "duration": 1.6659090909090892,
                "tempo": 120.0
            },
            {
                "start_time": 46.66136363636363,
                "end_time": 48.32727272727273,
                "pitch": 92,
                "velocity": 80,
                "duration": 1.6659090909090963,
                "tempo": 120.0
            },
            {
                "start_time": 48.32727272727273,
                "end_time": 49.98409090909091,
                "pitch": 89,
                "velocity": 80,
                "duration": 1.6568181818181813,
                "tempo": 120.0
            },
            {
                "start_time": 49.98409090909091,
                "end_time": 51.663636363636364,
                "pitch": 95,
                "velocity": 80,
                "duration": 1.6795454545454547,
                "tempo": 120.0
            },
            {
                "start_time": 51.663636363636364,
                "end_time": 53.37954545454545,
                "pitch": 86,
                "velocity": 80,
                "duration": 1.7159090909090864,
                "tempo": 120.0
            },
            {
                "start_time": 53.37954545454545,
                "end_time": 53.586363636363636,
                "pitch": 84,
                "velocity": 80,
                "duration": 0.20681818181818556,
                "tempo": 120.0
            }
        ],
        "Flute": [
            {
                "start_time": 0.006818181818181818,
                "end_time": 0.20227272727272727,
                "pitch": 81,
                "velocity": 13,
                "duration": 0.19545454545454546,
                "tempo": 120.0
            },
            {
                "start_time": 0.20227272727272727,
                "end_time": 0.4204545454545454,
                "pitch": 76,
                "velocity": 13,
                "duration": 0.21818181818181814,
                "tempo": 120.0
            },
            {
                "start_time": 0.4204545454545454,
                "end_time": 0.625,
                "pitch": 72,
                "velocity": 13,
                "duration": 0.20454545454545459,
                "tempo": 120.0
            },
            {
                "start_time": 0.625,
                "end_time": 0.8477272727272727,
                "pitch": 69,
                "velocity": 13,
                "duration": 0.22272727272727266,
                "tempo": 120.0
            },
            {
                "start_time": 0.8477272727272727,
                "end_time": 1.034090909090909,
                "pitch": 64,
                "velocity": 13,
                "duration": 0.1863636363636363,
                "tempo": 120.0
            },
            {
                "start_time": 1.034090909090909,
                "end_time": 1.2386363636363635,
                "pitch": 69,
                "velocity": 13,
                "duration": 0.20454545454545459,
                "tempo": 120.0
            },
            {
                "start_time": 1.2386363636363635,
                "end_time": 1.4386363636363635,
                "pitch": 72,
                "velocity": 13,
                "duration": 0.19999999999999996,
                "tempo": 120.0
            },
            {
                "start_time": 1.4386363636363635,
                "end_time": 1.659090909090909,
                "pitch": 76,
                "velocity": 13,
                "duration": 0.22045454545454546,
                "tempo": 120.0
            },
            {
                "start_time": 1.659090909090909,
                "end_time": 1.859090909090909,
                "pitch": 81,
                "velocity": 16,
                "duration": 0.19999999999999996,
                "tempo": 120.0
            },
            {
                "start_time": 1.859090909090909,
                "end_time": 2.077272727272727,
                "pitch": 76,
                "velocity": 16,
                "duration": 0.21818181818181825,
                "tempo": 120.0
            },
            {
                "start_time": 2.077272727272727,
                "end_time": 2.2727272727272725,
                "pitch": 72,
                "velocity": 16,
                "duration": 0.19545454545454533,
                "tempo": 120.0
            },
            {
                "start_time": 2.2727272727272725,
                "end_time": 2.4863636363636363,
                "pitch": 69,
                "velocity": 16,
                "duration": 0.21363636363636385,
                "tempo": 120.0
            },
            {
                "start_time": 2.4863636363636363,
                "end_time": 2.686363636363636,
                "pitch": 64,
                "velocity": 16,
                "duration": 0.19999999999999973,
                "tempo": 120.0
            },
            {
                "start_time": 2.686363636363636,
                "end_time": 2.9045454545454543,
                "pitch": 69,
                "velocity": 16,
                "duration": 0.21818181818181825,
                "tempo": 120.0
            },
            {
                "start_time": 2.9045454545454543,
                "end_time": 3.1068181818181815,
                "pitch": 72,
                "velocity": 16,
                "duration": 0.20227272727272716,
                "tempo": 120.0
            },
            {
                "start_time": 3.1068181818181815,
                "end_time": 3.327272727272727,
                "pitch": 76,
                "velocity": 16,
                "duration": 0.22045454545454568,
                "tempo": 120.0
            },
            {
                "start_time": 3.327272727272727,
                "end_time": 3.527272727272727,
                "pitch": 81,
                "velocity": 20,
                "duration": 0.19999999999999973,
                "tempo": 120.0
            },
            {
                "start_time": 3.527272727272727,
                "end_time": 3.745454545454545,
                "pitch": 76,
                "velocity": 20,
                "duration": 0.21818181818181825,
                "tempo": 120.0
            },
            {
                "start_time": 3.745454545454545,
                "end_time": 3.9454545454545453,
                "pitch": 72,
                "velocity": 20,
                "duration": 0.20000000000000018,
                "tempo": 120.0
            },
            {
                "start_time": 3.9477272727272728,
                "end_time": 4.163636363636363,
                "pitch": 69,
                "velocity": 20,
                "duration": 0.21590909090909038,
                "tempo": 120.0
            },
            {
                "start_time": 4.165909090909091,
                "end_time": 4.36590909090909,
                "pitch": 64,
                "velocity": 20,
                "duration": 0.1999999999999993,
                "tempo": 120.0
            },
            {
                "start_time": 4.36590909090909,
                "end_time": 4.584090909090909,
                "pitch": 69,
                "velocity": 20,
                "duration": 0.2181818181818187,
                "tempo": 120.0
            },
            {
                "start_time": 4.584090909090909,
                "end_time": 4.779545454545454,
                "pitch": 72,
                "velocity": 20,
                "duration": 0.19545454545454533,
                "tempo": 120.0
            },
            {
                "start_time": 4.781818181818181,
                "end_time": 4.993181818181818,
                "pitch": 76,
                "velocity": 20,
                "duration": 0.21136363636363686,
                "tempo": 120.0
            },
            {
                "start_time": 4.993181818181818,
                "end_time": 5.193181818181818,
                "pitch": 81,
                "velocity": 25,
                "duration": 0.20000000000000018,
                "tempo": 120.0
            },
            {
                "start_time": 5.195454545454545,
                "end_time": 5.413636363636363,
                "pitch": 76,
                "velocity": 25,
                "duration": 0.2181818181818178,
                "tempo": 120.0
            },
            {
                "start_time": 5.413636363636363,
                "end_time": 5.613636363636363,
                "pitch": 72,
                "velocity": 25,
                "duration": 0.20000000000000018,
                "tempo": 120.0
            },
            {
                "start_time": 5.613636363636363,
                "end_time": 5.834090909090909,
                "pitch": 69,
                "velocity": 25,
                "duration": 0.22045454545454568,
                "tempo": 120.0
            },
            {
                "start_time": 5.834090909090909,
                "end_time": 6.027272727272727,
                "pitch": 64,
                "velocity": 25,
                "duration": 0.19318181818181834,
                "tempo": 120.0
            },
            {
                "start_time": 6.029545454545454,
                "end_time": 6.24090909090909,
                "pitch": 69,
                "velocity": 25,
                "duration": 0.21136363636363598,
                "tempo": 120.0
            },
            {
                "start_time": 6.24090909090909,
                "end_time": 6.4409090909090905,
                "pitch": 72,
                "velocity": 25,
                "duration": 0.20000000000000018,
                "tempo": 120.0
            },
            {
                "start_time": 6.4431818181818175,
                "end_time": 6.661363636363636,
                "pitch": 76,
                "velocity": 25,
                "duration": 0.2181818181818187,
                "tempo": 120.0
            },
            {
                "start_time": 6.661363636363636,
                "end_time": 6.861363636363636,
                "pitch": 81,
                "velocity": 32,
                "duration": 0.20000000000000018,
                "tempo": 120.0
            },
            {
                "start_time": 6.861363636363636,
                "end_time": 7.079545454545454,
                "pitch": 76,
                "velocity": 32,
                "duration": 0.2181818181818178,
                "tempo": 120.0
            },
            {
                "start_time": 7.079545454545454,
                "end_time": 7.2749999999999995,
                "pitch": 72,
                "velocity": 32,
                "duration": 0.19545454545454533,
                "tempo": 120.0
            },
            {
                "start_time": 7.277272727272727,
                "end_time": 7.488636363636363,
                "pitch": 69,
                "velocity": 32,
                "duration": 0.21136363636363598,
                "tempo": 120.0
            },
            {
                "start_time": 7.488636363636363,
                "end_time": 7.6909090909090905,
                "pitch": 64,
                "velocity": 32,
                "duration": 0.20227272727272716,
                "tempo": 120.0
            },
            {
                "start_time": 7.6909090909090905,
                "end_time": 7.909090909090908,
                "pitch": 69,
                "velocity": 32,
                "duration": 0.2181818181818178,
                "tempo": 120.0
            },
            {
                "start_time": 7.909090909090908,
                "end_time": 8.10909090909091,
                "pitch": 72,
                "velocity": 32,
                "duration": 0.20000000000000107,
                "tempo": 120.0
            },
            {
                "start_time": 8.10909090909091,
                "end_time": 8.329545454545453,
                "pitch": 76,
                "velocity": 32,
                "duration": 0.2204545454545439,
                "tempo": 120.0
            },
            {
                "start_time": 8.329545454545453,
                "end_time": 8.529545454545454,
                "pitch": 81,
                "velocity": 40,
                "duration": 0.20000000000000107,
                "tempo": 120.0
            },
            {
                "start_time": 8.529545454545454,
                "end_time": 8.747727272727273,
                "pitch": 76,
                "velocity": 40,
                "duration": 0.2181818181818187,
                "tempo": 120.0
            },
            {
                "start_time": 8.747727272727273,
                "end_time": 8.943181818181818,
                "pitch": 72,
                "velocity": 40,
                "duration": 0.19545454545454533,
                "tempo": 120.0
            },
            {
                "start_time": 8.943181818181818,
                "end_time": 9.156818181818181,
                "pitch": 69,
                "velocity": 40,
                "duration": 0.21363636363636296,
                "tempo": 120.0
            },
            {
                "start_time": 9.156818181818181,
                "end_time": 9.35681818181818,
                "pitch": 64,
                "velocity": 40,
                "duration": 0.1999999999999993,
                "tempo": 120.0
            },
            {
                "start_time": 9.35681818181818,
                "end_time": 9.575,
                "pitch": 69,
                "velocity": 40,
                "duration": 0.2181818181818187,
                "tempo": 120.0
            },
            {
                "start_time": 9.575,
                "end_time": 9.777272727272727,
                "pitch": 72,
                "velocity": 40,
                "duration": 0.20227272727272805,
                "tempo": 120.0
            },
            {
                "start_time": 9.777272727272727,
                "end_time": 9.997727272727273,
                "pitch": 76,
                "velocity": 40,
                "duration": 0.22045454545454568,
                "tempo": 120.0
            },
            {
                "start_time": 9.997727272727273,
                "end_time": 10.197727272727272,
                "pitch": 81,
                "velocity": 51,
                "duration": 0.1999999999999993,
                "tempo": 120.0
            },
            {
                "start_time": 10.197727272727272,
                "end_time": 10.415909090909091,
                "pitch": 76,
                "velocity": 51,
                "duration": 0.2181818181818187,
                "tempo": 120.0
            },
            {
                "start_time": 10.415909090909091,
                "end_time": 10.61590909090909,
                "pitch": 72,
                "velocity": 51,
                "duration": 0.1999999999999993,
                "tempo": 120.0
            },
            {
                "start_time": 10.618181818181817,
                "end_time": 10.834090909090909,
                "pitch": 69,
                "velocity": 51,
                "duration": 0.21590909090909172,
                "tempo": 120.0
            },
            {
                "start_time": 10.836363636363636,
                "end_time": 11.036363636363635,
                "pitch": 64,
                "velocity": 51,
                "duration": 0.1999999999999993,
                "tempo": 120.0
            },
            {
                "start_time": 11.036363636363635,
                "end_time": 11.254545454545454,
                "pitch": 69,
                "velocity": 51,
                "duration": 0.2181818181818187,
                "tempo": 120.0
            },
            {
                "start_time": 11.254545454545454,
                "end_time": 11.45,
                "pitch": 72,
                "velocity": 51,
                "duration": 0.19545454545454533,
                "tempo": 120.0
            },
            {
                "start_time": 11.452272727272726,
                "end_time": 11.663636363636362,
                "pitch": 76,
                "velocity": 51,
                "duration": 0.21136363636363598,
                "tempo": 120.0
            },
            {
                "start_time": 11.665909090909091,
                "end_time": 11.863636363636363,
                "pitch": 81,
                "velocity": 64,
                "duration": 0.1977272727272723,
                "tempo": 120.0
            },
            {
                "start_time": 11.86590909090909,
                "end_time": 12.081818181818182,
                "pitch": 76,
                "velocity": 64,
                "duration": 0.21590909090909172,
                "tempo": 120.0
            },
            {
                "start_time": 12.084090909090909,
                "end_time": 12.279545454545454,
                "pitch": 72,
                "velocity": 64,
                "duration": 0.19545454545454533,
                "tempo": 120.0
            },
            {
                "start_time": 12.279545454545454,
                "end_time": 12.49090909090909,
                "pitch": 69,
                "velocity": 64,
                "duration": 0.21136363636363598,
                "tempo": 120.0
            },
            {
                "start_time": 12.493181818181817,
                "end_time": 12.693181818181818,
                "pitch": 64,
                "velocity": 64,
                "duration": 0.20000000000000107,
                "tempo": 120.0
            },
            {
                "start_time": 12.693181818181818,
                "end_time": 12.911363636363635,
                "pitch": 69,
                "velocity": 64,
                "duration": 0.21818181818181692,
                "tempo": 120.0
            },
            {
                "start_time": 12.911363636363635,
                "end_time": 13.111363636363636,
                "pitch": 72,
                "velocity": 64,
                "duration": 0.20000000000000107,
                "tempo": 120.0
            },
            {
                "start_time": 13.113636363636363,
                "end_time": 13.331818181818182,
                "pitch": 76,
                "velocity": 64,
                "duration": 0.2181818181818187,
                "tempo": 120.0
            },
            {
                "start_time": 13.331818181818182,
                "end_time": 13.531818181818181,
                "pitch": 81,
                "velocity": 80,
                "duration": 0.1999999999999993,
                "tempo": 120.0
            },
            {
                "start_time": 13.531818181818181,
                "end_time": 13.75,
                "pitch": 76,
                "velocity": 80,
                "duration": 0.2181818181818187,
                "tempo": 120.0
            },
            {
                "start_time": 13.75,
                "end_time": 13.945454545454545,
                "pitch": 72,
                "velocity": 80,
                "duration": 0.19545454545454533,
                "tempo": 120.0
            },
            {
                "start_time": 13.947727272727272,
                "end_time": 14.159090909090908,
                "pitch": 69,
                "velocity": 80,
                "duration": 0.21136363636363598,
                "tempo": 120.0
            },
            {
                "start_time": 14.159090909090908,
                "end_time": 14.361363636363636,
                "pitch": 64,
                "velocity": 80,
                "duration": 0.20227272727272805,
                "tempo": 120.0
            },
            {
                "start_time": 14.361363636363636,
                "end_time": 14.579545454545453,
                "pitch": 69,
                "velocity": 80,
                "duration": 0.21818181818181692,
                "tempo": 120.0
            },
            {
                "start_time": 14.579545454545453,
                "end_time": 14.779545454545454,
                "pitch": 72,
                "velocity": 80,
                "duration": 0.20000000000000107,
                "tempo": 120.0
            },
            {
                "start_time": 14.779545454545454,
                "end_time": 15.0,
                "pitch": 76,
                "velocity": 80,
                "duration": 0.22045454545454568,
                "tempo": 120.0
            },
            {
                "start_time": 15.0,
                "end_time": 15.2,
                "pitch": 81,
                "velocity": 101,
                "duration": 0.1999999999999993,
                "tempo": 120.0
            },
            {
                "start_time": 15.2,
                "end_time": 15.418181818181818,
                "pitch": 76,
                "velocity": 101,
                "duration": 0.2181818181818187,
                "tempo": 120.0
            },
            {
                "start_time": 15.418181818181818,
                "end_time": 15.613636363636363,
                "pitch": 72,
                "velocity": 101,
                "duration": 0.19545454545454533,
                "tempo": 120.0
            },
            {
                "start_time": 15.613636363636363,
                "end_time": 15.827272727272726,
                "pitch": 69,
                "velocity": 101,
                "duration": 0.21363636363636296,
                "tempo": 120.0
            },
            {
                "start_time": 15.827272727272726,
                "end_time": 16.027272727272727,
                "pitch": 64,
                "velocity": 101,
                "duration": 0.20000000000000107,
                "tempo": 120.0
            },
            {
                "start_time": 16.027272727272727,
                "end_time": 16.245454545454546,
                "pitch": 69,
                "velocity": 101,
                "duration": 0.2181818181818187,
                "tempo": 120.0
            },
            {
                "start_time": 16.245454545454546,
                "end_time": 16.443181818181817,
                "pitch": 72,
                "velocity": 101,
                "duration": 0.19772727272727053,
                "tempo": 120.0
            },
            {
                "start_time": 16.443181818181817,
                "end_time": 16.65681818181818,
                "pitch": 76,
                "velocity": 101,
                "duration": 0.21363636363636473,
                "tempo": 120.0
            },
            {
                "start_time": 16.65681818181818,
                "end_time": 16.85681818181818,
                "pitch": 81,
                "velocity": 101,
                "duration": 0.1999999999999993,
                "tempo": 120.0
            },
            {
                "start_time": 16.85681818181818,
                "end_time": 17.075,
                "pitch": 76,
                "velocity": 101,
                "duration": 0.2181818181818187,
                "tempo": 120.0
            },
            {
                "start_time": 17.075,
                "end_time": 17.275,
                "pitch": 72,
                "velocity": 101,
                "duration": 0.1999999999999993,
                "tempo": 120.0
            },
            {
                "start_time": 17.275,
                "end_time": 17.493181818181817,
                "pitch": 69,
                "velocity": 101,
                "duration": 0.2181818181818187,
                "tempo": 120.0
            },
            {
                "start_time": 17.493181818181817,
                "end_time": 17.695454545454545,
                "pitch": 64,
                "velocity": 101,
                "duration": 0.20227272727272805,
                "tempo": 120.0
            },
            {
                "start_time": 17.695454545454545,
                "end_time": 17.913636363636364,
                "pitch": 69,
                "velocity": 101,
                "duration": 0.2181818181818187,
                "tempo": 120.0
            },
            {
                "start_time": 17.913636363636364,
                "end_time": 18.10909090909091,
                "pitch": 72,
                "velocity": 101,
                "duration": 0.19545454545454533,
                "tempo": 120.0
            },
            {
                "start_time": 18.10909090909091,
                "end_time": 18.32272727272727,
                "pitch": 76,
                "velocity": 101,
                "duration": 0.21363636363636118,
                "tempo": 120.0
            },
            {
                "start_time": 18.32272727272727,
                "end_time": 18.522727272727273,
                "pitch": 81,
                "velocity": 101,
                "duration": 0.20000000000000284,
                "tempo": 120.0
            },
            {
                "start_time": 18.522727272727273,
                "end_time": 18.74090909090909,
                "pitch": 76,
                "velocity": 101,
                "duration": 0.21818181818181515,
                "tempo": 120.0
            },
            {
                "start_time": 18.743181818181817,
                "end_time": 18.943181818181817,
                "pitch": 72,
                "velocity": 101,
                "duration": 0.1999999999999993,
                "tempo": 120.0
            },
            {
                "start_time": 18.943181818181817,
                "end_time": 19.161363636363635,
                "pitch": 69,
                "velocity": 101,
                "duration": 0.2181818181818187,
                "tempo": 120.0
            },
            {
                "start_time": 19.163636363636364,
                "end_time": 19.363636363636363,
                "pitch": 64,
                "velocity": 101,
                "duration": 0.1999999999999993,
                "tempo": 120.0
            },
            {
                "start_time": 19.363636363636363,
                "end_time": 19.581818181818182,
                "pitch": 69,
                "velocity": 101,
                "duration": 0.2181818181818187,
                "tempo": 120.0
            },
            {
                "start_time": 19.581818181818182,
                "end_time": 19.777272727272727,
                "pitch": 72,
                "velocity": 101,
                "duration": 0.19545454545454533,
                "tempo": 120.0
            },
            {
                "start_time": 19.777272727272727,
                "end_time": 19.99090909090909,
                "pitch": 76,
                "velocity": 101,
                "duration": 0.21363636363636118,
                "tempo": 120.0
            }
        ],
        "Electric Piano 1": [
            {
                "start_time": 19.99090909090909,
                "end_time": 21.65681818181818,
                "pitch": 18,
                "velocity": 80,
                "duration": 1.6659090909090928,
                "tempo": 120.0
            },
            {
                "start_time": 21.65681818181818,
                "end_time": 23.325,
                "pitch": 18,
                "velocity": 80,
                "duration": 1.668181818181818,
                "tempo": 120.0
            },
            {
                "start_time": 23.325,
                "end_time": 24.98181818181818,
                "pitch": 15,
                "velocity": 80,
                "duration": 1.6568181818181813,
                "tempo": 120.0
            },
            {
                "start_time": 24.98181818181818,
                "end_time": 26.659090909090907,
                "pitch": 15,
                "velocity": 80,
                "duration": 1.677272727272726,
                "tempo": 120.0
            },
            {
                "start_time": 53.586363636363636,
                "end_time": 53.69318181818181,
                "pitch": 24,
                "velocity": 16,
                "duration": 0.10681818181817704,
                "tempo": 120.0
            },
            {
                "start_time": 53.69318181818181,
                "end_time": 53.81818181818181,
                "pitch": 36,
                "velocity": 16,
                "duration": 0.125,
                "tempo": 120.0
            },
            {
                "start_time": 53.81818181818181,
                "end_time": 53.92727272727272,
                "pitch": 24,
                "velocity": 20,
                "duration": 0.10909090909090935,
                "tempo": 120.0
            },
            {
                "start_time": 53.92727272727272,
                "end_time": 54.027272727272724,
                "pitch": 36,
                "velocity": 20,
                "duration": 0.10000000000000142,
                "tempo": 120.0
            },
            {
                "start_time": 54.027272727272724,
                "end_time": 54.127272727272725,
                "pitch": 24,
                "velocity": 25,
                "duration": 0.10000000000000142,
                "tempo": 120.0
            },
            {
                "start_time": 54.127272727272725,
                "end_time": 54.24545454545454,
                "pitch": 36,
                "velocity": 25,
                "duration": 0.11818181818181728,
                "tempo": 120.0
            },
            {
                "start_time": 54.24545454545454,
                "end_time": 54.345454545454544,
                "pitch": 24,
                "velocity": 32,
                "duration": 0.10000000000000142,
                "tempo": 120.0
            },
            {
                "start_time": 54.345454545454544,
                "end_time": 54.44772727272727,
                "pitch": 36,
                "velocity": 32,
                "duration": 0.10227272727272663,
                "tempo": 120.0
            },
            {
                "start_time": 54.44772727272727,
                "end_time": 54.54772727272727,
                "pitch": 24,
                "velocity": 40,
                "duration": 0.10000000000000142,
                "tempo": 120.0
            },
            {
                "start_time": 54.54772727272727,
                "end_time": 54.66590909090909,
                "pitch": 36,
                "velocity": 40,
                "duration": 0.11818181818181728,
                "tempo": 120.0
            },
            {
                "start_time": 54.66590909090909,
                "end_time": 54.76590909090909,
                "pitch": 24,
                "velocity": 51,
                "duration": 0.10000000000000142,
                "tempo": 120.0
            },
            {
                "start_time": 54.76590909090909,
                "end_time": 54.865909090909085,
                "pitch": 36,
                "velocity": 51,
                "duration": 0.09999999999999432,
                "tempo": 120.0
            },
            {
                "start_time": 54.865909090909085,
                "end_time": 54.96818181818182,
                "pitch": 24,
                "velocity": 64,
                "duration": 0.10227272727273373,
                "tempo": 120.0
            },
            {
                "start_time": 54.96818181818182,
                "end_time": 55.084090909090904,
                "pitch": 36,
                "velocity": 64,
                "duration": 0.11590909090908497,
                "tempo": 120.0
            },
            {
                "start_time": 55.086363636363636,
                "end_time": 55.18636363636363,
                "pitch": 24,
                "velocity": 80,
                "duration": 0.09999999999999432,
                "tempo": 120.0
            },
            {
                "start_time": 55.18636363636363,
                "end_time": 55.28409090909091,
                "pitch": 36,
                "velocity": 80,
                "duration": 0.09772727272727622,
                "tempo": 120.0
            },
            {
                "start_time": 55.28409090909091,
                "end_time": 55.381818181818176,
                "pitch": 24,
                "velocity": 101,
                "duration": 0.09772727272726911,
                "tempo": 120.0
            },
            {
                "start_time": 55.381818181818176,
                "end_time": 55.49545454545454,
                "pitch": 36,
                "velocity": 101,
                "duration": 0.11363636363636687,
                "tempo": 120.0
            },
            {
                "start_time": 55.49545454545454,
                "end_time": 55.59318181818182,
                "pitch": 24,
                "velocity": 127,
                "duration": 0.09772727272727622,
                "tempo": 120.0
            },
            {
                "start_time": 55.59318181818182,
                "end_time": 55.695454545454545,
                "pitch": 36,
                "velocity": 127,
                "duration": 0.10227272727272663,
                "tempo": 120.0
            },
            {
                "start_time": 55.695454545454545,
                "end_time": 55.79545454545454,
                "pitch": 24,
                "velocity": 127,
                "duration": 0.09999999999999432,
                "tempo": 120.0
            },
            {
                "start_time": 55.79545454545454,
                "end_time": 55.913636363636364,
                "pitch": 36,
                "velocity": 127,
                "duration": 0.11818181818182438,
                "tempo": 120.0
            },
            {
                "start_time": 55.913636363636364,
                "end_time": 56.01363636363636,
                "pitch": 24,
                "velocity": 127,
                "duration": 0.09999999999999432,
                "tempo": 120.0
            },
            {
                "start_time": 56.01363636363636,
                "end_time": 56.11363636363636,
                "pitch": 36,
                "velocity": 127,
                "duration": 0.10000000000000142,
                "tempo": 120.0
            },
            {
                "start_time": 56.11363636363636,
                "end_time": 56.215909090909086,
                "pitch": 24,
                "velocity": 127,
                "duration": 0.10227272727272663,
                "tempo": 120.0
            },
            {
                "start_time": 56.215909090909086,
                "end_time": 56.33181818181818,
                "pitch": 36,
                "velocity": 127,
                "duration": 0.11590909090909207,
                "tempo": 120.0
            },
            {
                "start_time": 56.334090909090904,
                "end_time": 56.434090909090905,
                "pitch": 24,
                "velocity": 127,
                "duration": 0.10000000000000142,
                "tempo": 120.0
            },
            {
                "start_time": 56.434090909090905,
                "end_time": 56.53181818181818,
                "pitch": 36,
                "velocity": 127,
                "duration": 0.09772727272727622,
                "tempo": 120.0
            },
            {
                "start_time": 56.53181818181818,
                "end_time": 56.62954545454545,
                "pitch": 24,
                "velocity": 127,
                "duration": 0.09772727272726911,
                "tempo": 120.0
            },
            {
                "start_time": 56.62954545454545,
                "end_time": 56.74545454545454,
                "pitch": 36,
                "velocity": 127,
                "duration": 0.11590909090909207,
                "tempo": 120.0
            }
        ],
        "Oboe": [
            {
                "start_time": 0.0022727272727272726,
                "end_time": 1.6568181818181817,
                "pitch": 45,
                "velocity": 64,
                "duration": 1.6545454545454545,
                "tempo": 120.0
            },
            {
                "start_time": 1.6568181818181817,
                "end_time": 3.3249999999999997,
                "pitch": 43,
                "velocity": 64,
                "duration": 1.668181818181818,
                "tempo": 120.0
            },
            {
                "start_time": 3.3249999999999997,
                "end_time": 4.993181818181818,
                "pitch": 41,
                "velocity": 64,
                "duration": 1.6681818181818184,
                "tempo": 120.0
            },
            {
                "start_time": 4.993181818181818,
                "end_time": 6.659090909090909,
                "pitch": 40,
                "velocity": 64,
                "duration": 1.665909090909091,
                "tempo": 120.0
            },
            {
                "start_time": 6.661363636363636,
                "end_time": 8.327272727272726,
                "pitch": 45,
                "velocity": 64,
                "duration": 1.6659090909090901,
                "tempo": 120.0
            },
            {
                "start_time": 8.327272727272726,
                "end_time": 9.995454545454544,
                "pitch": 43,
                "velocity": 64,
                "duration": 1.668181818181818,
                "tempo": 120.0
            },
            {
                "start_time": 9.995454545454544,
                "end_time": 11.663636363636362,
                "pitch": 41,
                "velocity": 64,
                "duration": 1.668181818181818,
                "tempo": 120.0
            },
            {
                "start_time": 11.663636363636362,
                "end_time": 13.329545454545453,
                "pitch": 40,
                "velocity": 64,
                "duration": 1.665909090909091,
                "tempo": 120.0
            },
            {
                "start_time": 13.331818181818182,
                "end_time": 14.997727272727271,
                "pitch": 45,
                "velocity": 64,
                "duration": 1.6659090909090892,
                "tempo": 120.0
            },
            {
                "start_time": 14.997727272727271,
                "end_time": 16.654545454545453,
                "pitch": 43,
                "velocity": 64,
                "duration": 1.6568181818181813,
                "tempo": 120.0
            },
            {
                "start_time": 16.654545454545453,
                "end_time": 18.32272727272727,
                "pitch": 41,
                "velocity": 64,
                "duration": 1.668181818181818,
                "tempo": 120.0
            },
            {
                "start_time": 18.32272727272727,
                "end_time": 19.988636363636363,
                "pitch": 40,
                "velocity": 64,
                "duration": 1.6659090909090928,
                "tempo": 120.0
            },
            {
                "start_time": 26.659090909090907,
                "end_time": 28.327272727272724,
                "pitch": 32,
                "velocity": 80,
                "duration": 1.668181818181818,
                "tempo": 120.0
            },
            {
                "start_time": 28.327272727272724,
                "end_time": 29.995454545454542,
                "pitch": 29,
                "velocity": 80,
                "duration": 1.668181818181818,
                "tempo": 120.0
            },
            {
                "start_time": 29.995454545454542,
                "end_time": 31.66363636363636,
                "pitch": 35,
                "velocity": 80,
                "duration": 1.668181818181818,
                "tempo": 120.0
            },
            {
                "start_time": 31.66363636363636,
                "end_time": 33.32954545454545,
                "pitch": 26,
                "velocity": 80,
                "duration": 1.6659090909090928,
                "tempo": 120.0
            },
            {
                "start_time": 33.32954545454545,
                "end_time": 34.986363636363635,
                "pitch": 32,
                "velocity": 80,
                "duration": 1.6568181818181813,
                "tempo": 120.0
            },
            {
                "start_time": 34.986363636363635,
                "end_time": 36.654545454545456,
                "pitch": 29,
                "velocity": 80,
                "duration": 1.6681818181818215,
                "tempo": 120.0
            },
            {
                "start_time": 36.654545454545456,
                "end_time": 38.320454545454545,
                "pitch": 35,
                "velocity": 80,
                "duration": 1.6659090909090892,
                "tempo": 120.0
            },
            {
                "start_time": 38.32272727272727,
                "end_time": 39.98863636363636,
                "pitch": 26,
                "velocity": 80,
                "duration": 1.6659090909090892,
                "tempo": 120.0
            },
            {
                "start_time": 39.98863636363636,
                "end_time": 41.65681818181818,
                "pitch": 32,
                "velocity": 80,
                "duration": 1.6681818181818215,
                "tempo": 120.0
            },
            {
                "start_time": 41.65681818181818,
                "end_time": 43.324999999999996,
                "pitch": 29,
                "velocity": 80,
                "duration": 1.6681818181818144,
                "tempo": 120.0
            },
            {
                "start_time": 43.324999999999996,
                "end_time": 44.99090909090909,
                "pitch": 35,
                "velocity": 80,
                "duration": 1.6659090909090963,
                "tempo": 120.0
            },
            {
                "start_time": 44.99318181818182,
                "end_time": 46.65909090909091,
                "pitch": 26,
                "velocity": 80,
                "duration": 1.6659090909090892,
                "tempo": 120.0
            },
            {
                "start_time": 46.65909090909091,
                "end_time": 48.32727272727273,
                "pitch": 32,
                "velocity": 80,
                "duration": 1.6681818181818215,
                "tempo": 120.0
            },
            {
                "start_time": 48.32727272727273,
                "end_time": 49.98409090909091,
                "pitch": 29,
                "velocity": 80,
                "duration": 1.6568181818181813,
                "tempo": 120.0
            },
            {
                "start_time": 49.98409090909091,
                "end_time": 51.66136363636363,
                "pitch": 35,
                "velocity": 80,
                "duration": 1.6772727272727224,
                "tempo": 120.0
            },
            {
                "start_time": 51.663636363636364,
                "end_time": 53.37954545454545,
                "pitch": 26,
                "velocity": 80,
                "duration": 1.7159090909090864,
                "tempo": 120.0
            },
            {
                "start_time": 53.37954545454545,
                "end_time": 53.586363636363636,
                "pitch": 24,
                "velocity": 80,
                "duration": 0.20681818181818556,
                "tempo": 120.0
            }
        ]
    }
}