{
    "track_id": "16 Unused 2",
    "mood": "sad",
    "instruments": {
        "Clarinet": [
            {
                "start_time": 0.0,
                "end_time": 0.10909090909090909,
                "pitch": 59,
                "velocity": 101,
                "duration": 0.10909090909090909,
                "tempo": 120.0
            },
            {
                "start_time": 0.10909090909090909,
                "end_time": 0.24318181818181817,
                "pitch": 86,
                "velocity": 101,
                "duration": 0.1340909090909091,
                "tempo": 120.0
            },
            {
                "start_time": 0.24318181818181817,
                "end_time": 0.37727272727272726,
                "pitch": 71,
                "velocity": 101,
                "duration": 0.1340909090909091,
                "tempo": 120.0
            },
            {
                "start_time": 0.37727272727272726,
                "end_time": 0.5272727272727272,
                "pitch": 77,
                "velocity": 101,
                "duration": 0.14999999999999997,
                "tempo": 120.0
            },
            {
                "start_time": 0.5272727272727272,
                "end_time": 0.6590909090909091,
                "pitch": 62,
                "velocity": 101,
                "duration": 0.13181818181818183,
                "tempo": 120.0
            },
            {
                "start_time": 0.24318181818181817,
                "end_time": 0.7931818181818181,
                "pitch": 74,
                "velocity": 101,
                "duration": 0.5499999999999999,
                "tempo": 120.0
            },
            {
                "start_time": 0.6590909090909091,
                "end_time": 0.7931818181818181,
                "pitch": 86,
                "velocity": 101,
                "duration": 0.13409090909090904,
                "tempo": 120.0
            },
            {
                "start_time": 0.37727272727272726,
                "end_time": 0.9272727272727272,
                "pitch": 71,
                "velocity": 101,
                "duration": 0.55,
                "tempo": 120.0
            },
            {
                "start_time": 0.7931818181818181,
                "end_time": 0.9272727272727272,
                "pitch": 71,
                "velocity": 101,
                "duration": 0.13409090909090915,
                "tempo": 120.0
            },
            {
                "start_time": 0.10909090909090909,
                "end_time": 0.9272727272727272,
                "pitch": 83,
                "velocity": 101,
                "duration": 0.8181818181818181,
                "tempo": 120.0
            },
            {
                "start_time": 0.9272727272727272,
                "end_time": 1.0772727272727272,
                "pitch": 89,
                "velocity": 101,
                "duration": 0.1499999999999999,
                "tempo": 120.0
            },
            {
                "start_time": 0.5272727272727272,
                "end_time": 1.2113636363636362,
                "pitch": 65,
                "velocity": 101,
                "duration": 0.684090909090909,
                "tempo": 120.0
            },
            {
                "start_time": 1.0772727272727272,
                "end_time": 1.2113636363636362,
                "pitch": 65,
                "velocity": 101,
                "duration": 0.13409090909090904,
                "tempo": 120.0
            },
            {
                "start_time": 0.7931818181818181,
                "end_time": 1.3454545454545455,
                "pitch": 74,
                "velocity": 101,
                "duration": 0.5522727272727274,
                "tempo": 120.0
            },
            {
                "start_time": 1.2113636363636362,
                "end_time": 1.3454545454545455,
                "pitch": 86,
                "velocity": 101,
                "duration": 0.13409090909090926,
                "tempo": 120.0
            },
            {
                "start_time": 1.3454545454545455,
                "end_time": 1.4772727272727273,
                "pitch": 71,
                "velocity": 101,
                "duration": 0.13181818181818183,
                "tempo": 120.0
            },
            {
                "start_time": 1.4772727272727273,
                "end_time": 1.6295454545454544,
                "pitch": 77,
                "velocity": 101,
                "duration": 0.15227272727272712,
                "tempo": 120.0
            },
            {
                "start_time": 1.6295454545454544,
                "end_time": 1.7613636363636362,
                "pitch": 62,
                "velocity": 101,
                "duration": 0.13181818181818183,
                "tempo": 120.0
            },
            {
                "start_time": 1.3454545454545455,
                "end_time": 1.8954545454545453,
                "pitch": 74,
                "velocity": 101,
                "duration": 0.5499999999999998,
                "tempo": 120.0
            },
            {
                "start_time": 1.7613636363636362,
                "end_time": 1.8954545454545453,
                "pitch": 86,
                "velocity": 101,
                "duration": 0.13409090909090904,
                "tempo": 120.0
            },
            {
                "start_time": 1.4772727272727273,
                "end_time": 2.0295454545454543,
                "pitch": 71,
                "velocity": 101,
                "duration": 0.552272727272727,
                "tempo": 120.0
            },
            {
                "start_time": 1.8954545454545453,
                "end_time": 2.0295454545454543,
                "pitch": 71,
                "velocity": 101,
                "duration": 0.13409090909090904,
                "tempo": 120.0
            },
            {
                "start_time": 0.9272727272727272,
                "end_time": 2.0295454545454543,
                "pitch": 83,
                "velocity": 101,
                "duration": 1.102272727272727,
                "tempo": 120.0
            },
            {
                "start_time": 1.6295454545454544,
                "end_time": 2.1795454545454542,
                "pitch": 65,
                "velocity": 101,
                "duration": 0.5499999999999998,
                "tempo": 120.0
            },
            {
                "start_time": 1.2113636363636362,
                "end_time": 2.1795454545454542,
                "pitch": 89,
                "velocity": 101,
                "duration": 0.968181818181818,
                "tempo": 120.0
            },
            {
                "start_time": 2.0295454545454543,
                "end_time": 2.1795454545454542,
                "pitch": 89,
                "velocity": 101,
                "duration": 0.1499999999999999,
                "tempo": 120.0
            },
            {
                "start_time": 2.1795454545454542,
                "end_time": 2.3136363636363635,
                "pitch": 56,
                "velocity": 101,
                "duration": 0.13409090909090926,
                "tempo": 120.0
            },
            {
                "start_time": 2.0295454545454543,
                "end_time": 2.4477272727272728,
                "pitch": 83,
                "velocity": 101,
                "duration": 0.41818181818181843,
                "tempo": 120.0
            },
            {
                "start_time": 2.3136363636363635,
                "end_time": 2.4477272727272728,
                "pitch": 83,
                "velocity": 101,
                "duration": 0.13409090909090926,
                "tempo": 120.0
            },
            {
                "start_time": 2.4477272727272728,
                "end_time": 2.5795454545454546,
                "pitch": 68,
                "velocity": 101,
                "duration": 0.13181818181818183,
                "tempo": 120.0
            },
            {
                "start_time": 1.8954545454545453,
                "end_time": 2.7318181818181815,
                "pitch": 74,
                "velocity": 101,
                "duration": 0.8363636363636362,
                "tempo": 120.0
            },
            {
                "start_time": 2.5795454545454546,
                "end_time": 2.7318181818181815,
                "pitch": 74,
                "velocity": 101,
                "duration": 0.1522727272727269,
                "tempo": 120.0
            },
            {
                "start_time": 2.7318181818181815,
                "end_time": 2.8636363636363633,
                "pitch": 59,
                "velocity": 101,
                "duration": 0.13181818181818183,
                "tempo": 120.0
            },
            {
                "start_time": 2.4477272727272728,
                "end_time": 2.9977272727272726,
                "pitch": 71,
                "velocity": 101,
                "duration": 0.5499999999999998,
                "tempo": 120.0
            },
            {
                "start_time": 2.8636363636363633,
                "end_time": 2.9977272727272726,
                "pitch": 83,
                "velocity": 101,
                "duration": 0.13409090909090926,
                "tempo": 120.0
            },
            {
                "start_time": 2.5795454545454546,
                "end_time": 3.131818181818182,
                "pitch": 68,
                "velocity": 101,
                "duration": 0.5522727272727272,
                "tempo": 120.0
            },
            {
                "start_time": 2.9977272727272726,
                "end_time": 3.131818181818182,
                "pitch": 68,
                "velocity": 101,
                "duration": 0.13409090909090926,
                "tempo": 120.0
            },
            {
                "start_time": 2.3136363636363635,
                "end_time": 3.131818181818182,
                "pitch": 80,
                "velocity": 101,
                "duration": 0.8181818181818183,
                "tempo": 120.0
            },
            {
                "start_time": 3.131818181818182,
                "end_time": 3.2818181818181817,
                "pitch": 86,
                "velocity": 101,
                "duration": 0.1499999999999999,
                "tempo": 120.0
            },
            {
                "start_time": 2.7318181818181815,
                "end_time": 3.4159090909090906,
                "pitch": 62,
                "velocity": 101,
                "duration": 0.6840909090909091,
                "tempo": 120.0
            },
            {
                "start_time": 3.2818181818181817,
                "end_time": 3.4159090909090906,
                "pitch": 62,
                "velocity": 101,
                "duration": 0.13409090909090882,
                "tempo": 120.0
            },
            {
                "start_time": 3.4159090909090906,
                "end_time": 3.5477272727272724,
                "pitch": 83,
                "velocity": 101,
                "duration": 0.13181818181818183,
                "tempo": 120.0
            },
            {
                "start_time": 2.9977272727272726,
                "end_time": 3.55,
                "pitch": 71,
                "velocity": 101,
                "duration": 0.5522727272727272,
                "tempo": 120.0
            },
            {
                "start_time": 3.55,
                "end_time": 3.6818181818181817,
                "pitch": 68,
                "velocity": 101,
                "duration": 0.13181818181818183,
                "tempo": 120.0
            },
            {
                "start_time": 3.6818181818181817,
                "end_time": 3.8318181818181816,
                "pitch": 74,
                "velocity": 101,
                "duration": 0.1499999999999999,
                "tempo": 120.0
            },
            {
                "start_time": 3.8318181818181816,
                "end_time": 3.965909090909091,
                "pitch": 59,
                "velocity": 101,
                "duration": 0.13409090909090926,
                "tempo": 120.0
            },
            {
                "start_time": 3.55,
                "end_time": 4.1,
                "pitch": 71,
                "velocity": 101,
                "duration": 0.5499999999999998,
                "tempo": 120.0
            },
            {
                "start_time": 3.965909090909091,
                "end_time": 4.1,
                "pitch": 83,
                "velocity": 101,
                "duration": 0.13409090909090882,
                "tempo": 120.0
            },
            {
                "start_time": 3.6818181818181817,
                "end_time": 4.2340909090909085,
                "pitch": 68,
                "velocity": 101,
                "duration": 0.5522727272727268,
                "tempo": 120.0
            },
            {
                "start_time": 4.1,
                "end_time": 4.2340909090909085,
                "pitch": 68,
                "velocity": 101,
                "duration": 0.13409090909090882,
                "tempo": 120.0
            },
            {
                "start_time": 3.131818181818182,
                "end_time": 4.2340909090909085,
                "pitch": 80,
                "velocity": 101,
                "duration": 1.1022727272727266,
                "tempo": 120.0
            },
            {
                "start_time": 3.4159090909090906,
                "end_time": 4.384090909090909,
                "pitch": 86,
                "velocity": 101,
                "duration": 0.9681818181818183,
                "tempo": 120.0
            },
            {
                "start_time": 4.2340909090909085,
                "end_time": 4.384090909090909,
                "pitch": 86,
                "velocity": 101,
                "duration": 0.15000000000000036,
                "tempo": 120.0
            },
            {
                "start_time": 4.384090909090909,
                "end_time": 4.518181818181818,
                "pitch": 53,
                "velocity": 101,
                "duration": 0.13409090909090882,
                "tempo": 120.0
            },
            {
                "start_time": 4.2340909090909085,
                "end_time": 4.6499999999999995,
                "pitch": 80,
                "velocity": 101,
                "duration": 0.415909090909091,
                "tempo": 120.0
            },
            {
                "start_time": 4.518181818181818,
                "end_time": 4.6499999999999995,
                "pitch": 80,
                "velocity": 101,
                "duration": 0.13181818181818183,
                "tempo": 120.0
            },
            {
                "start_time": 2.1795454545454542,
                "end_time": 4.802272727272727,
                "pitch": 65,
                "velocity": 101,
                "duration": 2.6227272727272726,
                "tempo": 120.0
            },
            {
                "start_time": 4.6499999999999995,
                "end_time": 4.802272727272727,
                "pitch": 65,
                "velocity": 101,
                "duration": 0.15227272727272734,
                "tempo": 120.0
            },
            {
                "start_time": 4.1,
                "end_time": 4.934090909090909,
                "pitch": 71,
                "velocity": 101,
                "duration": 0.834090909090909,
                "tempo": 120.0
            },
            {
                "start_time": 4.802272727272727,
                "end_time": 4.934090909090909,
                "pitch": 71,
                "velocity": 101,
                "duration": 0.13181818181818183,
                "tempo": 120.0
            },
            {
                "start_time": 4.6499999999999995,
                "end_time": 5.068181818181818,
                "pitch": 56,
                "velocity": 101,
                "duration": 0.4181818181818189,
                "tempo": 120.0
            },
            {
                "start_time": 4.934090909090909,
                "end_time": 5.068181818181818,
                "pitch": 56,
                "velocity": 101,
                "duration": 0.1340909090909097,
                "tempo": 120.0
            },
            {
                "start_time": 5.068181818181818,
                "end_time": 5.204545454545454,
                "pitch": 80,
                "velocity": 101,
                "duration": 0.1363636363636358,
                "tempo": 120.0
            },
            {
                "start_time": 5.204545454545454,
                "end_time": 5.3568181818181815,
                "pitch": 65,
                "velocity": 101,
                "duration": 0.15227272727272734,
                "tempo": 120.0
            },
            {
                "start_time": 4.518181818181818,
                "end_time": 5.3568181818181815,
                "pitch": 89,
                "velocity": 101,
                "duration": 0.8386363636363638,
                "tempo": 120.0
            },
            {
                "start_time": 5.3568181818181815,
                "end_time": 5.493181818181818,
                "pitch": 83,
                "velocity": 101,
                "duration": 0.1363636363636367,
                "tempo": 120.0
            },
            {
                "start_time": 4.934090909090909,
                "end_time": 5.629545454545454,
                "pitch": 59,
                "velocity": 101,
                "duration": 0.6954545454545453,
                "tempo": 120.0
            },
            {
                "start_time": 5.493181818181818,
                "end_time": 5.629545454545454,
                "pitch": 59,
                "velocity": 101,
                "duration": 0.1363636363636358,
                "tempo": 120.0
            },
            {
                "start_time": 5.204545454545454,
                "end_time": 5.763636363636364,
                "pitch": 56,
                "velocity": 101,
                "duration": 0.5590909090909095,
                "tempo": 120.0
            },
            {
                "start_time": 5.629545454545454,
                "end_time": 5.763636363636364,
                "pitch": 80,
                "velocity": 101,
                "duration": 0.1340909090909097,
                "tempo": 120.0
            },
            {
                "start_time": 5.763636363636364,
                "end_time": 5.913636363636363,
                "pitch": 65,
                "velocity": 101,
                "duration": 0.14999999999999947,
                "tempo": 120.0
            },
            {
                "start_time": 4.802272727272727,
                "end_time": 5.913636363636363,
                "pitch": 77,
                "velocity": 101,
                "duration": 1.1113636363636363,
                "tempo": 120.0
            },
            {
                "start_time": 5.913636363636363,
                "end_time": 6.047727272727273,
                "pitch": 71,
                "velocity": 101,
                "duration": 0.1340909090909097,
                "tempo": 120.0
            },
            {
                "start_time": 5.763636363636364,
                "end_time": 6.181818181818182,
                "pitch": 56,
                "velocity": 101,
                "duration": 0.418181818181818,
                "tempo": 120.0
            },
            {
                "start_time": 6.047727272727273,
                "end_time": 6.181818181818182,
                "pitch": 56,
                "velocity": 101,
                "duration": 0.13409090909090882,
                "tempo": 120.0
            },
            {
                "start_time": 6.181818181818182,
                "end_time": 6.3136363636363635,
                "pitch": 80,
                "velocity": 101,
                "duration": 0.13181818181818183,
                "tempo": 120.0
            },
            {
                "start_time": 6.3136363636363635,
                "end_time": 6.465909090909091,
                "pitch": 65,
                "velocity": 101,
                "duration": 0.15227272727272734,
                "tempo": 120.0
            },
            {
                "start_time": 5.3568181818181815,
                "end_time": 6.465909090909091,
                "pitch": 89,
                "velocity": 101,
                "duration": 1.1090909090909093,
                "tempo": 120.0
            },
            {
                "start_time": 5.629545454545454,
                "end_time": 6.597727272727273,
                "pitch": 83,
                "velocity": 101,
                "duration": 0.9681818181818187,
                "tempo": 120.0
            },
            {
                "start_time": 6.465909090909091,
                "end_time": 6.597727272727273,
                "pitch": 83,
                "velocity": 101,
                "duration": 0.13181818181818183,
                "tempo": 120.0
            },
            {
                "start_time": 6.597727272727273,
                "end_time": 6.7318181818181815,
                "pitch": 52,
                "velocity": 101,
                "duration": 0.13409090909090882,
                "tempo": 120.0
            },
            {
                "start_time": 6.7318181818181815,
                "end_time": 6.86590909090909,
                "pitch": 79,
                "velocity": 101,
                "duration": 0.13409090909090882,
                "tempo": 120.0
            },
            {
                "start_time": 6.86590909090909,
                "end_time": 7.015909090909091,
                "pitch": 64,
                "velocity": 101,
                "duration": 0.15000000000000036,
                "tempo": 120.0
            },
            {
                "start_time": 7.015909090909091,
                "end_time": 7.1499999999999995,
                "pitch": 70,
                "velocity": 101,
                "duration": 0.13409090909090882,
                "tempo": 120.0
            },
            {
                "start_time": 6.86590909090909,
                "end_time": 7.281818181818181,
                "pitch": 55,
                "velocity": 101,
                "duration": 0.415909090909091,
                "tempo": 120.0
            },
            {
                "start_time": 7.1499999999999995,
                "end_time": 7.281818181818181,
                "pitch": 55,
                "velocity": 101,
                "duration": 0.13181818181818183,
                "tempo": 120.0
            },
            {
                "start_time": 7.284090909090909,
                "end_time": 7.41590909090909,
                "pitch": 79,
                "velocity": 101,
                "duration": 0.13181818181818095,
                "tempo": 120.0
            },
            {
                "start_time": 7.41590909090909,
                "end_time": 7.5659090909090905,
                "pitch": 64,
                "velocity": 101,
                "duration": 0.15000000000000036,
                "tempo": 120.0
            },
            {
                "start_time": 6.7318181818181815,
                "end_time": 7.5659090909090905,
                "pitch": 88,
                "velocity": 101,
                "duration": 0.834090909090909,
                "tempo": 120.0
            },
            {
                "start_time": 7.5659090909090905,
                "end_time": 7.699999999999999,
                "pitch": 82,
                "velocity": 101,
                "duration": 0.13409090909090882,
                "tempo": 120.0
            },
            {
                "start_time": 7.1499999999999995,
                "end_time": 7.834090909090909,
                "pitch": 58,
                "velocity": 101,
                "duration": 0.6840909090909095,
                "tempo": 120.0
            },
            {
                "start_time": 7.699999999999999,
                "end_time": 7.834090909090909,
                "pitch": 58,
                "velocity": 101,
                "duration": 0.1340909090909097,
                "tempo": 120.0
            },
            {
                "start_time": 7.41590909090909,
                "end_time": 7.970454545454545,
                "pitch": 55,
                "velocity": 101,
                "duration": 0.5545454545454547,
                "tempo": 120.0
            },
            {
                "start_time": 7.834090909090909,
                "end_time": 7.970454545454545,
                "pitch": 79,
                "velocity": 101,
                "duration": 0.1363636363636358,
                "tempo": 120.0
            },
            {
                "start_time": 7.970454545454545,
                "end_time": 8.122727272727273,
                "pitch": 64,
                "velocity": 101,
                "duration": 0.15227272727272823,
                "tempo": 120.0
            },
            {
                "start_time": 7.015909090909091,
                "end_time": 8.122727272727273,
                "pitch": 76,
                "velocity": 101,
                "duration": 1.1068181818181824,
                "tempo": 120.0
            },
            {
                "start_time": 8.122727272727273,
                "end_time": 8.259090909090908,
                "pitch": 70,
                "velocity": 101,
                "duration": 0.1363636363636349,
                "tempo": 120.0
            },
            {
                "start_time": 7.970454545454545,
                "end_time": 8.395454545454545,
                "pitch": 55,
                "velocity": 101,
                "duration": 0.4249999999999998,
                "tempo": 120.0
            },
            {
                "start_time": 8.259090909090908,
                "end_time": 8.395454545454545,
                "pitch": 55,
                "velocity": 101,
                "duration": 0.1363636363636367,
                "tempo": 120.0
            },
            {
                "start_time": 8.395454545454545,
                "end_time": 8.527272727272727,
                "pitch": 79,
                "velocity": 101,
                "duration": 0.13181818181818272,
                "tempo": 120.0
            },
            {
                "start_time": 8.527272727272727,
                "end_time": 8.674999999999999,
                "pitch": 64,
                "velocity": 101,
                "duration": 0.1477272727272716,
                "tempo": 120.0
            },
            {
                "start_time": 7.5659090909090905,
                "end_time": 8.674999999999999,
                "pitch": 88,
                "velocity": 101,
                "duration": 1.1090909090909085,
                "tempo": 120.0
            },
            {
                "start_time": 7.834090909090909,
                "end_time": 8.806818181818182,
                "pitch": 82,
                "velocity": 101,
                "duration": 0.9727272727272727,
                "tempo": 120.0
            },
            {
                "start_time": 8.674999999999999,
                "end_time": 8.806818181818182,
                "pitch": 82,
                "velocity": 101,
                "duration": 0.13181818181818272,
                "tempo": 120.0
            },
            {
                "start_time": 8.259090909090908,
                "end_time": 8.936363636363636,
                "pitch": 58,
                "velocity": 101,
                "duration": 0.6772727272727277,
                "tempo": 120.0
            },
            {
                "start_time": 8.806818181818182,
                "end_time": 8.936363636363636,
                "pitch": 58,
                "velocity": 101,
                "duration": 0.12954545454545396,
                "tempo": 120.0
            },
            {
                "start_time": 8.936363636363636,
                "end_time": 9.086363636363636,
                "pitch": 86,
                "velocity": 101,
                "duration": 0.15000000000000036,
                "tempo": 120.0
            },
            {
                "start_time": 9.086363636363636,
                "end_time": 9.220454545454546,
                "pitch": 71,
                "velocity": 101,
                "duration": 0.1340909090909097,
                "tempo": 120.0
            },
            {
                "start_time": 5.913636363636363,
                "end_time": 9.354545454545454,
                "pitch": 77,
                "velocity": 101,
                "duration": 3.4409090909090905,
                "tempo": 120.0
            },
            {
                "start_time": 9.220454545454546,
                "end_time": 9.354545454545454,
                "pitch": 77,
                "velocity": 101,
                "duration": 0.13409090909090793,
                "tempo": 120.0
            },
            {
                "start_time": 3.8318181818181816,
                "end_time": 9.486363636363636,
                "pitch": 62,
                "velocity": 101,
                "duration": 5.654545454545454,
                "tempo": 120.0
            },
            {
                "start_time": 9.354545454545454,
                "end_time": 9.486363636363636,
                "pitch": 62,
                "velocity": 101,
                "duration": 0.13181818181818272,
                "tempo": 120.0
            },
            {
                "start_time": 9.086363636363636,
                "end_time": 9.638636363636364,
                "pitch": 74,
                "velocity": 101,
                "duration": 0.5522727272727277,
                "tempo": 120.0
            },
            {
                "start_time": 9.486363636363636,
                "end_time": 9.638636363636364,
                "pitch": 86,
                "velocity": 101,
                "duration": 0.15227272727272734,
                "tempo": 120.0
            },
            {
                "start_time": 9.220454545454546,
                "end_time": 9.686363636363636,
                "pitch": 71,
                "velocity": 101,
                "duration": 0.46590909090908994,
                "tempo": 120.0
            },
            {
                "start_time": 9.638636363636364,
                "end_time": 9.686363636363636,
                "pitch": 71,
                "velocity": 101,
                "duration": 0.04772727272727195,
                "tempo": 120.0
            }
        ]
    }
}