{
    "track_id": "17 Game Over",
    "mood": "sad",
    "instruments": {
        "Electric Piano 1": [
            {
                "start_time": 0.3068181818181818,
                "end_time": 0.5931818181818181,
                "pitch": 57,
                "velocity": 40,
                "duration": 0.2863636363636363,
                "tempo": 120.0
            },
            {
                "start_time": 0.5931818181818181,
                "end_time": 0.8636363636363636,
                "pitch": 64,
                "velocity": 40,
                "duration": 0.2704545454545455,
                "tempo": 120.0
            },
            {
                "start_time": 0.8659090909090909,
                "end_time": 1.1363636363636362,
                "pitch": 57,
                "velocity": 40,
                "duration": 0.2704545454545454,
                "tempo": 120.0
            },
            {
                "start_time": 1.1363636363636362,
                "end_time": 1.968181818181818,
                "pitch": 64,
                "velocity": 40,
                "duration": 0.8318181818181818,
                "tempo": 120.0
            },
            {
                "start_time": 1.968181818181818,
                "end_time": 2.227272727272727,
                "pitch": 67,
                "velocity": 40,
                "duration": 0.25909090909090904,
                "tempo": 120.0
            },
            {
                "start_time": 2.227272727272727,
                "end_time": 2.245454545454545,
                "pitch": 67,
                "velocity": 40,
                "duration": 0.018181818181818077,
                "tempo": 120.0
            },
            {
                "start_time": 2.245454545454545,
                "end_time": 2.5159090909090907,
                "pitch": 69,
                "velocity": 40,
                "duration": 0.2704545454545455,
                "tempo": 120.0
            },
            {
                "start_time": 2.5159090909090907,
                "end_time": 2.8022727272727272,
                "pitch": 62,
                "velocity": 40,
                "duration": 0.2863636363636366,
                "tempo": 120.0
            },
            {
                "start_time": 2.8045454545454542,
                "end_time": 4.445454545454545,
                "pitch": 65,
                "velocity": 40,
                "duration": 1.640909090909091,
                "tempo": 120.0
            },
            {
                "start_time": 4.711363636363636,
                "end_time": 4.961363636363636,
                "pitch": 55,
                "velocity": 40,
                "duration": 0.25,
                "tempo": 120.0
            },
            {
                "start_time": 4.961363636363636,
                "end_time": 4.993181818181818,
                "pitch": 55,
                "velocity": 40,
                "duration": 0.03181818181818219,
                "tempo": 120.0
            },
            {
                "start_time": 4.995454545454545,
                "end_time": 5.243181818181818,
                "pitch": 60,
                "velocity": 40,
                "duration": 0.24772727272727302,
                "tempo": 120.0
            },
            {
                "start_time": 5.243181818181818,
                "end_time": 5.259090909090909,
                "pitch": 60,
                "velocity": 40,
                "duration": 0.01590909090909065,
                "tempo": 120.0
            },
            {
                "start_time": 5.261363636363636,
                "end_time": 5.509090909090909,
                "pitch": 55,
                "velocity": 40,
                "duration": 0.24772727272727302,
                "tempo": 120.0
            },
            {
                "start_time": 5.509090909090909,
                "end_time": 5.527272727272727,
                "pitch": 55,
                "velocity": 40,
                "duration": 0.01818181818181852,
                "tempo": 120.0
            },
            {
                "start_time": 5.527272727272727,
                "end_time": 6.347727272727273,
                "pitch": 64,
                "velocity": 40,
                "duration": 0.8204545454545453,
                "tempo": 120.0
            },
            {
                "start_time": 6.347727272727273,
                "end_time": 6.602272727272727,
                "pitch": 60,
                "velocity": 40,
                "duration": 0.25454545454545396,
                "tempo": 120.0
            },
            {
                "start_time": 6.602272727272727,
                "end_time": 6.636363636363636,
                "pitch": 60,
                "velocity": 40,
                "duration": 0.03409090909090917,
                "tempo": 120.0
            },
            {
                "start_time": 6.636363636363636,
                "end_time": 6.906818181818181,
                "pitch": 62,
                "velocity": 40,
                "duration": 0.2704545454545455,
                "tempo": 120.0
            },
            {
                "start_time": 6.602272727272727,
                "end_time": 7.161363636363636,
                "pitch": 48,
                "velocity": 40,
                "duration": 0.5590909090909095,
                "tempo": 120.0
            },
            {
                "start_time": 6.906818181818181,
                "end_time": 7.161363636363636,
                "pitch": 60,
                "velocity": 40,
                "duration": 0.25454545454545485,
                "tempo": 120.0
            },
            {
                "start_time": 7.161363636363636,
                "end_time": 7.177272727272727,
                "pitch": 60,
                "velocity": 40,
                "duration": 0.01590909090909065,
                "tempo": 120.0
            },
            {
                "start_time": 7.177272727272727,
                "end_time": 8.275,
                "pitch": 59,
                "velocity": 40,
                "duration": 1.0977272727272736,
                "tempo": 120.0
            },
            {
                "start_time": 9.111363636363636,
                "end_time": 9.386363636363637,
                "pitch": 57,
                "velocity": 40,
                "duration": 0.27500000000000036,
                "tempo": 120.0
            },
            {
                "start_time": 9.388636363636364,
                "end_time": 9.661363636363635,
                "pitch": 64,
                "velocity": 40,
                "duration": 0.2727272727272716,
                "tempo": 120.0
            },
            {
                "start_time": 9.661363636363635,
                "end_time": 9.918181818181818,
                "pitch": 57,
                "velocity": 40,
                "duration": 0.2568181818181827,
                "tempo": 120.0
            },
            {
                "start_time": 9.918181818181818,
                "end_time": 10.738636363636363,
                "pitch": 64,
                "velocity": 40,
                "duration": 0.8204545454545453,
                "tempo": 120.0
            },
            {
                "start_time": 5.509090909090909,
                "end_time": 10.993181818181817,
                "pitch": 67,
                "velocity": 40,
                "duration": 5.4840909090909085,
                "tempo": 120.0
            },
            {
                "start_time": 10.738636363636363,
                "end_time": 10.993181818181817,
                "pitch": 67,
                "velocity": 40,
                "duration": 0.25454545454545396,
                "tempo": 120.0
            },
            {
                "start_time": 2.227272727272727,
                "end_time": 10.993181818181817,
                "pitch": 79,
                "velocity": 40,
                "duration": 8.76590909090909,
                "tempo": 120.0
            },
            {
                "start_time": 10.993181818181817,
                "end_time": 11.027272727272727,
                "pitch": 67,
                "velocity": 40,
                "duration": 0.03409090909091006,
                "tempo": 120.0
            },
            {
                "start_time": 11.027272727272727,
                "end_time": 11.297727272727272,
                "pitch": 69,
                "velocity": 40,
                "duration": 0.2704545454545446,
                "tempo": 120.0
            },
            {
                "start_time": 11.297727272727272,
                "end_time": 11.568181818181818,
                "pitch": 62,
                "velocity": 40,
                "duration": 0.2704545454545464,
                "tempo": 120.0
            },
            {
                "start_time": 11.570454545454545,
                "end_time": 13.209090909090909,
                "pitch": 65,
                "velocity": 40,
                "duration": 1.6386363636363637,
                "tempo": 120.0
            },
            {
                "start_time": 13.497727272727271,
                "end_time": 13.752272727272727,
                "pitch": 55,
                "velocity": 40,
                "duration": 0.25454545454545574,
                "tempo": 120.0
            },
            {
                "start_time": 13.752272727272727,
                "end_time": 13.768181818181818,
                "pitch": 55,
                "velocity": 40,
                "duration": 0.01590909090909065,
                "tempo": 120.0
            },
            {
                "start_time": 13.770454545454545,
                "end_time": 14.013636363636364,
                "pitch": 60,
                "velocity": 40,
                "duration": 0.24318181818181905,
                "tempo": 120.0
            },
            {
                "start_time": 14.013636363636364,
                "end_time": 14.047727272727272,
                "pitch": 60,
                "velocity": 40,
                "duration": 0.034090909090908283,
                "tempo": 120.0
            },
            {
                "start_time": 14.047727272727272,
                "end_time": 14.293181818181818,
                "pitch": 55,
                "velocity": 40,
                "duration": 0.24545454545454604,
                "tempo": 120.0
            },
            {
                "start_time": 14.293181818181818,
                "end_time": 14.309090909090909,
                "pitch": 55,
                "velocity": 40,
                "duration": 0.01590909090909065,
                "tempo": 120.0
            },
            {
                "start_time": 14.309090909090909,
                "end_time": 15.134090909090908,
                "pitch": 64,
                "velocity": 40,
                "duration": 0.8249999999999993,
                "tempo": 120.0
            },
            {
                "start_time": 7.161363636363636,
                "end_time": 15.384090909090908,
                "pitch": 48,
                "velocity": 40,
                "duration": 8.222727272727273,
                "tempo": 120.0
            },
            {
                "start_time": 15.134090909090908,
                "end_time": 15.384090909090908,
                "pitch": 60,
                "velocity": 40,
                "duration": 0.25,
                "tempo": 120.0
            },
            {
                "start_time": 15.384090909090908,
                "end_time": 15.399999999999999,
                "pitch": 60,
                "velocity": 40,
                "duration": 0.01590909090909065,
                "tempo": 120.0
            },
            {
                "start_time": 15.402272727272727,
                "end_time": 15.681818181818182,
                "pitch": 65,
                "velocity": 40,
                "duration": 0.2795454545454543,
                "tempo": 120.0
            },
            {
                "start_time": 15.684090909090909,
                "end_time": 15.95,
                "pitch": 64,
                "velocity": 40,
                "duration": 0.26590909090909065,
                "tempo": 120.0
            },
            {
                "start_time": 15.95,
                "end_time": 17.60909090909091,
                "pitch": 62,
                "velocity": 40,
                "duration": 1.65909090909091,
                "tempo": 120.0
            },
            {
                "start_time": 17.611363636363635,
                "end_time": 17.888636363636362,
                "pitch": 65,
                "velocity": 40,
                "duration": 0.27727272727272734,
                "tempo": 120.0
            },
            {
                "start_time": 17.888636363636362,
                "end_time": 18.15,
                "pitch": 62,
                "velocity": 40,
                "duration": 0.2613636363636367,
                "tempo": 120.0
            },
            {
                "start_time": 18.15,
                "end_time": 18.41590909090909,
                "pitch": 64,
                "velocity": 40,
                "duration": 0.26590909090909065,
                "tempo": 120.0
            },
            {
                "start_time": 18.41590909090909,
                "end_time": 18.66590909090909,
                "pitch": 72,
                "velocity": 40,
                "duration": 0.25,
                "tempo": 120.0
            },
            {
                "start_time": 18.66590909090909,
                "end_time": 18.7,
                "pitch": 72,
                "velocity": 40,
                "duration": 0.03409090909091006,
                "tempo": 120.0
            },
            {
                "start_time": 18.7,
                "end_time": 18.96363636363636,
                "pitch": 72,
                "velocity": 40,
                "duration": 0.2636363636363619,
                "tempo": 120.0
            },
            {
                "start_time": 18.96590909090909,
                "end_time": 19.229545454545455,
                "pitch": 70,
                "velocity": 40,
                "duration": 0.26363636363636545,
                "tempo": 120.0
            },
            {
                "start_time": 19.23181818181818,
                "end_time": 19.513636363636362,
                "pitch": 69,
                "velocity": 40,
                "duration": 0.2818181818181813,
                "tempo": 120.0
            },
            {
                "start_time": 13.752272727272727,
                "end_time": 19.763636363636362,
                "pitch": 67,
                "velocity": 40,
                "duration": 6.011363636363635,
                "tempo": 120.0
            },
            {
                "start_time": 19.513636363636362,
                "end_time": 19.763636363636362,
                "pitch": 67,
                "velocity": 40,
                "duration": 0.25,
                "tempo": 120.0
            },
            {
                "start_time": 10.993181818181817,
                "end_time": 19.763636363636362,
                "pitch": 79,
                "velocity": 40,
                "duration": 8.770454545454545,
                "tempo": 120.0
            },
            {
                "start_time": 19.763636363636362,
                "end_time": 19.779545454545453,
                "pitch": 67,
                "velocity": 40,
                "duration": 0.01590909090909065,
                "tempo": 120.0
            },
            {
                "start_time": 19.78181818181818,
                "end_time": 20.07272727272727,
                "pitch": 65,
                "velocity": 40,
                "duration": 0.29090909090908923,
                "tempo": 120.0
            },
            {
                "start_time": 20.07272727272727,
                "end_time": 20.347727272727273,
                "pitch": 64,
                "velocity": 40,
                "duration": 0.27500000000000213,
                "tempo": 120.0
            },
            {
                "start_time": 18.66590909090909,
                "end_time": 20.599999999999998,
                "pitch": 60,
                "velocity": 40,
                "duration": 1.9340909090909086,
                "tempo": 120.0
            },
            {
                "start_time": 20.349999999999998,
                "end_time": 20.599999999999998,
                "pitch": 60,
                "velocity": 40,
                "duration": 0.25,
                "tempo": 120.0
            },
            {
                "start_time": 20.599999999999998,
                "end_time": 20.61590909090909,
                "pitch": 60,
                "velocity": 40,
                "duration": 0.01590909090909065,
                "tempo": 120.0
            },
            {
                "start_time": 20.61590909090909,
                "end_time": 21.99090909090909,
                "pitch": 62,
                "velocity": 40,
                "duration": 1.375,
                "tempo": 120.0
            },
            {
                "start_time": 21.99090909090909,
                "end_time": 22.261363636363637,
                "pitch": 62,
                "velocity": 40,
                "duration": 0.27045454545454817,
                "tempo": 120.0
            },
            {
                "start_time": 22.261363636363637,
                "end_time": 22.547727272727272,
                "pitch": 64,
                "velocity": 40,
                "duration": 0.28636363636363527,
                "tempo": 120.0
            },
            {
                "start_time": 22.549999999999997,
                "end_time": 22.80909090909091,
                "pitch": 65,
                "velocity": 40,
                "duration": 0.2590909090909115,
                "tempo": 120.0
            },
            {
                "start_time": 22.811363636363634,
                "end_time": 23.05681818181818,
                "pitch": 67,
                "velocity": 40,
                "duration": 0.24545454545454604,
                "tempo": 120.0
            },
            {
                "start_time": 19.763636363636362,
                "end_time": 23.05681818181818,
                "pitch": 79,
                "velocity": 40,
                "duration": 3.293181818181818,
                "tempo": 120.0
            },
            {
                "start_time": 23.05681818181818,
                "end_time": 23.35909090909091,
                "pitch": 67,
                "velocity": 40,
                "duration": 0.30227272727272947,
                "tempo": 120.0
            },
            {
                "start_time": 23.35909090909091,
                "end_time": 23.629545454545454,
                "pitch": 65,
                "velocity": 40,
                "duration": 0.2704545454545446,
                "tempo": 120.0
            },
            {
                "start_time": 23.63181818181818,
                "end_time": 23.913636363636364,
                "pitch": 64,
                "velocity": 40,
                "duration": 0.28181818181818485,
                "tempo": 120.0
            },
            {
                "start_time": 23.913636363636364,
                "end_time": 24.179545454545455,
                "pitch": 65,
                "velocity": 40,
                "duration": 0.26590909090909065,
                "tempo": 120.0
            },
            {
                "start_time": 24.18181818181818,
                "end_time": 24.45,
                "pitch": 64,
                "velocity": 40,
                "duration": 0.2681818181818194,
                "tempo": 120.0
            },
            {
                "start_time": 24.452272727272724,
                "end_time": 24.738636363636363,
                "pitch": 62,
                "velocity": 40,
                "duration": 0.2863636363636388,
                "tempo": 120.0
            },
            {
                "start_time": 24.738636363636363,
                "end_time": 25.009090909090908,
                "pitch": 61,
                "velocity": 40,
                "duration": 0.2704545454545446,
                "tempo": 120.0
            },
            {
                "start_time": 25.011363636363637,
                "end_time": 26.39090909090909,
                "pitch": 57,
                "velocity": 40,
                "duration": 1.379545454545454,
                "tempo": 120.0
            },
            {
                "start_time": 26.39090909090909,
                "end_time": 26.65681818181818,
                "pitch": 65,
                "velocity": 40,
                "duration": 0.26590909090909065,
                "tempo": 120.0
            },
            {
                "start_time": 26.65681818181818,
                "end_time": 26.938636363636363,
                "pitch": 62,
                "velocity": 40,
                "duration": 0.2818181818181813,
                "tempo": 120.0
            },
            {
                "start_time": 26.938636363636363,
                "end_time": 27.204545454545453,
                "pitch": 64,
                "velocity": 40,
                "duration": 0.26590909090909065,
                "tempo": 120.0
            },
            {
                "start_time": 27.206818181818182,
                "end_time": 27.454545454545453,
                "pitch": 72,
                "velocity": 40,
                "duration": 0.24772727272727124,
                "tempo": 120.0
            },
            {
                "start_time": 27.454545454545453,
                "end_time": 27.472727272727273,
                "pitch": 72,
                "velocity": 40,
                "duration": 0.01818181818181941,
                "tempo": 120.0
            },
            {
                "start_time": 27.472727272727273,
                "end_time": 27.754545454545454,
                "pitch": 72,
                "velocity": 40,
                "duration": 0.2818181818181813,
                "tempo": 120.0
            },
            {
                "start_time": 27.754545454545454,
                "end_time": 28.020454545454545,
                "pitch": 70,
                "velocity": 40,
                "duration": 0.26590909090909065,
                "tempo": 120.0
            },
            {
                "start_time": 28.020454545454545,
                "end_time": 28.286363636363635,
                "pitch": 69,
                "velocity": 40,
                "duration": 0.26590909090909065,
                "tempo": 120.0
            },
            {
                "start_time": 28.286363636363635,
                "end_time": 28.536363636363635,
                "pitch": 67,
                "velocity": 40,
                "duration": 0.25,
                "tempo": 120.0
            },
            {
                "start_time": 28.536363636363635,
                "end_time": 28.570454545454545,
                "pitch": 67,
                "velocity": 40,
                "duration": 0.03409090909091006,
                "tempo": 120.0
            },
            {
                "start_time": 28.570454545454545,
                "end_time": 28.845454545454544,
                "pitch": 65,
                "velocity": 40,
                "duration": 0.2749999999999986,
                "tempo": 120.0
            },
            {
                "start_time": 28.845454545454544,
                "end_time": 29.120454545454542,
                "pitch": 64,
                "velocity": 40,
                "duration": 0.2749999999999986,
                "tempo": 120.0
            },
            {
                "start_time": 15.384090909090908,
                "end_time": 29.368181818181817,
                "pitch": 48,
                "velocity": 40,
                "duration": 13.98409090909091,
                "tempo": 120.0
            },
            {
                "start_time": 27.454545454545453,
                "end_time": 29.368181818181817,
                "pitch": 60,
                "velocity": 40,
                "duration": 1.913636363636364,
                "tempo": 120.0
            },
            {
                "start_time": 29.12272727272727,
                "end_time": 29.368181818181817,
                "pitch": 60,
                "velocity": 40,
                "duration": 0.24545454545454604,
                "tempo": 120.0
            },
            {
                "start_time": 29.368181818181817,
                "end_time": 29.4,
                "pitch": 60,
                "velocity": 40,
                "duration": 0.0318181818181813,
                "tempo": 120.0
            },
            {
                "start_time": 29.4,
                "end_time": 30.779545454545453,
                "pitch": 62,
                "velocity": 40,
                "duration": 1.379545454545454,
                "tempo": 120.0
            },
            {
                "start_time": 30.78181818181818,
                "end_time": 31.045454545454543,
                "pitch": 65,
                "velocity": 40,
                "duration": 0.2636363636363619,
                "tempo": 120.0
            },
            {
                "start_time": 31.045454545454543,
                "end_time": 31.295454545454543,
                "pitch": 67,
                "velocity": 40,
                "duration": 0.25,
                "tempo": 120.0
            },
            {
                "start_time": 23.05681818181818,
                "end_time": 31.295454545454543,
                "pitch": 79,
                "velocity": 40,
                "duration": 8.238636363636363,
                "tempo": 120.0
            },
            {
                "start_time": 31.295454545454543,
                "end_time": 31.311363636363634,
                "pitch": 67,
                "velocity": 40,
                "duration": 0.01590909090909065,
                "tempo": 120.0
            },
            {
                "start_time": 31.313636363636363,
                "end_time": 31.59090909090909,
                "pitch": 69,
                "velocity": 40,
                "duration": 0.27727272727272734,
                "tempo": 120.0
            },
            {
                "start_time": 31.59090909090909,
                "end_time": 32.11818181818182,
                "pitch": 70,
                "velocity": 40,
                "duration": 0.5272727272727273,
                "tempo": 120.0
            },
            {
                "start_time": 32.11818181818182,
                "end_time": 32.4,
                "pitch": 69,
                "velocity": 40,
                "duration": 0.2818181818181813,
                "tempo": 120.0
            },
            {
                "start_time": 32.402272727272724,
                "end_time": 32.654545454545456,
                "pitch": 67,
                "velocity": 40,
                "duration": 0.2522727272727323,
                "tempo": 120.0
            },
            {
                "start_time": 31.295454545454543,
                "end_time": 32.654545454545456,
                "pitch": 79,
                "velocity": 40,
                "duration": 1.359090909090913,
                "tempo": 120.0
            },
            {
                "start_time": 32.654545454545456,
                "end_time": 32.67272727272727,
                "pitch": 67,
                "velocity": 40,
                "duration": 0.018181818181815856,
                "tempo": 120.0
            },
            {
                "start_time": 32.67272727272727,
                "end_time": 32.961363636363636,
                "pitch": 69,
                "velocity": 40,
                "duration": 0.288636363636364,
                "tempo": 120.0
            },
            {
                "start_time": 32.961363636363636,
                "end_time": 33.21818181818182,
                "pitch": 67,
                "velocity": 40,
                "duration": 0.2568181818181827,
                "tempo": 120.0
            },
            {
                "start_time": 33.21818181818182,
                "end_time": 33.236363636363635,
                "pitch": 67,
                "velocity": 40,
                "duration": 0.018181818181815856,
                "tempo": 120.0
            },
            {
                "start_time": 33.236363636363635,
                "end_time": 33.51136363636363,
                "pitch": 65,
                "velocity": 40,
                "duration": 0.2749999999999986,
                "tempo": 120.0
            },
            {
                "start_time": 33.513636363636365,
                "end_time": 33.79090909090909,
                "pitch": 64,
                "velocity": 40,
                "duration": 0.2772727272727238,
                "tempo": 120.0
            },
            {
                "start_time": 33.79090909090909,
                "end_time": 35.152272727272724,
                "pitch": 62,
                "velocity": 40,
                "duration": 1.3613636363636346,
                "tempo": 120.0
            }
        ]
    }
}