{
    "track_id": "19 Staff Roll",
    "mood": "sad",
    "instruments": {
        "Acoustic Grand Piano": [
            {
                "start_time": 0.01818181818181818,
                "end_time": 1.2136363636363636,
                "pitch": 52,
                "velocity": 64,
                "duration": 1.1954545454545455,
                "tempo": 120.0
            },
            {
                "start_time": 1.2136363636363636,
                "end_time": 1.6159090909090907,
                "pitch": 52,
                "velocity": 64,
                "duration": 0.4022727272727271,
                "tempo": 120.0
            },
            {
                "start_time": 1.6159090909090907,
                "end_time": 1.8181818181818181,
                "pitch": 60,
                "velocity": 64,
                "duration": 0.20227272727272738,
                "tempo": 120.0
            },
            {
                "start_time": 1.8204545454545453,
                "end_time": 2.2204545454545452,
                "pitch": 59,
                "velocity": 64,
                "duration": 0.3999999999999999,
                "tempo": 120.0
            },
            {
                "start_time": 2.2227272727272727,
                "end_time": 2.8204545454545453,
                "pitch": 57,
                "velocity": 64,
                "duration": 0.5977272727272727,
                "tempo": 120.0
            },
            {
                "start_time": 2.8204545454545453,
                "end_time": 3.234090909090909,
                "pitch": 53,
                "velocity": 64,
                "duration": 0.4136363636363636,
                "tempo": 120.0
            },
            {
                "start_time": 3.234090909090909,
                "end_time": 4.027272727272727,
                "pitch": 57,
                "velocity": 64,
                "duration": 0.7931818181818184,
                "tempo": 120.0
            },
            {
                "start_time": 4.029545454545454,
                "end_time": 6.447727272727272,
                "pitch": 55,
                "velocity": 64,
                "duration": 2.418181818181818,
                "tempo": 120.0
            },
            {
                "start_time": 6.449999999999999,
                "end_time": 8.059090909090909,
                "pitch": 52,
                "velocity": 64,
                "duration": 1.6090909090909093,
                "tempo": 120.0
            },
            {
                "start_time": 8.059090909090909,
                "end_time": 8.256818181818181,
                "pitch": 60,
                "velocity": 64,
                "duration": 0.1977272727272723,
                "tempo": 120.0
            },
            {
                "start_time": 8.259090909090908,
                "end_time": 8.659090909090908,
                "pitch": 59,
                "velocity": 64,
                "duration": 0.40000000000000036,
                "tempo": 120.0
            },
            {
                "start_time": 8.661363636363635,
                "end_time": 9.263636363636364,
                "pitch": 57,
                "velocity": 64,
                "duration": 0.6022727272727284,
                "tempo": 120.0
            },
            {
                "start_time": 9.26590909090909,
                "end_time": 9.668181818181818,
                "pitch": 64,
                "velocity": 64,
                "duration": 0.40227272727272734,
                "tempo": 120.0
            },
            {
                "start_time": 9.670454545454545,
                "end_time": 12.897727272727272,
                "pitch": 62,
                "velocity": 64,
                "duration": 3.2272727272727266,
                "tempo": 120.0
            },
            {
                "start_time": 12.899999999999999,
                "end_time": 14.10681818181818,
                "pitch": 52,
                "velocity": 80,
                "duration": 1.206818181818182,
                "tempo": 120.0
            },
            {
                "start_time": 14.10681818181818,
                "end_time": 14.506818181818181,
                "pitch": 52,
                "velocity": 80,
                "duration": 0.40000000000000036,
                "tempo": 120.0
            },
            {
                "start_time": 14.509090909090908,
                "end_time": 14.709090909090909,
                "pitch": 60,
                "velocity": 80,
                "duration": 0.20000000000000107,
                "tempo": 120.0
            },
            {
                "start_time": 14.709090909090909,
                "end_time": 15.111363636363636,
                "pitch": 59,
                "velocity": 80,
                "duration": 0.40227272727272734,
                "tempo": 120.0
            },
            {
                "start_time": 15.111363636363636,
                "end_time": 15.71590909090909,
                "pitch": 57,
                "velocity": 80,
                "duration": 0.6045454545454536,
                "tempo": 120.0
            },
            {
                "start_time": 15.718181818181817,
                "end_time": 16.120454545454546,
                "pitch": 53,
                "velocity": 80,
                "duration": 0.4022727272727291,
                "tempo": 120.0
            },
            {
                "start_time": 16.120454545454546,
                "end_time": 16.922727272727272,
                "pitch": 57,
                "velocity": 80,
                "duration": 0.8022727272727259,
                "tempo": 120.0
            },
            {
                "start_time": 16.925,
                "end_time": 19.34318181818182,
                "pitch": 55,
                "velocity": 80,
                "duration": 2.418181818181818,
                "tempo": 120.0
            },
            {
                "start_time": 19.345454545454544,
                "end_time": 20.95,
                "pitch": 52,
                "velocity": 80,
                "duration": 1.6045454545454554,
                "tempo": 120.0
            },
            {
                "start_time": 20.952272727272724,
                "end_time": 21.15,
                "pitch": 60,
                "velocity": 80,
                "duration": 0.19772727272727408,
                "tempo": 120.0
            },
            {
                "start_time": 21.152272727272727,
                "end_time": 21.55,
                "pitch": 59,
                "velocity": 80,
                "duration": 0.3977272727272734,
                "tempo": 120.0
            },
            {
                "start_time": 21.552272727272726,
                "end_time": 22.154545454545453,
                "pitch": 57,
                "velocity": 80,
                "duration": 0.6022727272727266,
                "tempo": 120.0
            },
            {
                "start_time": 22.15681818181818,
                "end_time": 22.55681818181818,
                "pitch": 67,
                "velocity": 80,
                "duration": 0.3999999999999986,
                "tempo": 120.0
            },
            {
                "start_time": 22.55681818181818,
                "end_time": 25.775,
                "pitch": 69,
                "velocity": 80,
                "duration": 3.2181818181818187,
                "tempo": 120.0
            },
            {
                "start_time": 25.777272727272727,
                "end_time": 28.995454545454542,
                "pitch": 52,
                "velocity": 64,
                "duration": 3.218181818181815,
                "tempo": 120.0
            },
            {
                "start_time": 28.99772727272727,
                "end_time": 30.802272727272726,
                "pitch": 48,
                "velocity": 64,
                "duration": 1.8045454545454547,
                "tempo": 120.0
            },
            {
                "start_time": 30.802272727272726,
                "end_time": 32.220454545454544,
                "pitch": 50,
                "velocity": 64,
                "duration": 1.418181818181818,
                "tempo": 120.0
            },
            {
                "start_time": 32.220454545454544,
                "end_time": 35.43181818181818,
                "pitch": 52,
                "velocity": 64,
                "duration": 3.211363636363636,
                "tempo": 120.0
            },
            {
                "start_time": 35.434090909090905,
                "end_time": 37.03636363636363,
                "pitch": 48,
                "velocity": 64,
                "duration": 1.6022727272727266,
                "tempo": 120.0
            },
            {
                "start_time": 37.236363636363635,
                "end_time": 37.63409090909091,
                "pitch": 67,
                "velocity": 64,
                "duration": 0.3977272727272734,
                "tempo": 120.0
            },
            {
                "start_time": 37.63636363636363,
                "end_time": 38.03636363636363,
                "pitch": 65,
                "velocity": 64,
                "duration": 0.3999999999999986,
                "tempo": 120.0
            },
            {
                "start_time": 38.03636363636363,
                "end_time": 38.43863636363636,
                "pitch": 67,
                "velocity": 64,
                "duration": 0.4022727272727309,
                "tempo": 120.0
            },
            {
                "start_time": 38.43863636363636,
                "end_time": 38.64090909090909,
                "pitch": 64,
                "velocity": 64,
                "duration": 0.20227272727272805,
                "tempo": 120.0
            },
            {
                "start_time": 38.64090909090909,
                "end_time": 41.861363636363635,
                "pitch": 52,
                "velocity": 64,
                "duration": 3.220454545454544,
                "tempo": 120.0
            },
            {
                "start_time": 41.86363636363636,
                "end_time": 43.663636363636364,
                "pitch": 48,
                "velocity": 64,
                "duration": 1.8000000000000043,
                "tempo": 120.0
            },
            {
                "start_time": 43.663636363636364,
                "end_time": 45.06818181818181,
                "pitch": 50,
                "velocity": 64,
                "duration": 1.404545454545449,
                "tempo": 120.0
            },
            {
                "start_time": 45.070454545454545,
                "end_time": 46.67272727272727,
                "pitch": 52,
                "velocity": 64,
                "duration": 1.6022727272727266,
                "tempo": 120.0
            },
            {
                "start_time": 46.675,
                "end_time": 48.28181818181818,
                "pitch": 52,
                "velocity": 64,
                "duration": 1.6068181818181841,
                "tempo": 120.0
            },
            {
                "start_time": 48.486363636363635,
                "end_time": 48.69090909090909,
                "pitch": 52,
                "velocity": 64,
                "duration": 0.20454545454545325,
                "tempo": 120.0
            },
            {
                "start_time": 48.69090909090909,
                "end_time": 48.89090909090909,
                "pitch": 55,
                "velocity": 64,
                "duration": 0.20000000000000284,
                "tempo": 120.0
            },
            {
                "start_time": 48.89090909090909,
                "end_time": 49.090909090909086,
                "pitch": 59,
                "velocity": 64,
                "duration": 0.19999999999999574,
                "tempo": 120.0
            },
            {
                "start_time": 49.090909090909086,
                "end_time": 49.293181818181814,
                "pitch": 60,
                "velocity": 64,
                "duration": 0.20227272727272805,
                "tempo": 120.0
            },
            {
                "start_time": 49.293181818181814,
                "end_time": 49.49318181818182,
                "pitch": 62,
                "velocity": 64,
                "duration": 0.20000000000000284,
                "tempo": 120.0
            },
            {
                "start_time": 49.49545454545454,
                "end_time": 49.695454545454545,
                "pitch": 64,
                "velocity": 64,
                "duration": 0.20000000000000284,
                "tempo": 120.0
            },
            {
                "start_time": 49.695454545454545,
                "end_time": 50.095454545454544,
                "pitch": 65,
                "velocity": 64,
                "duration": 0.3999999999999986,
                "tempo": 120.0
            },
            {
                "start_time": 50.095454545454544,
                "end_time": 50.29545454545454,
                "pitch": 62,
                "velocity": 64,
                "duration": 0.19999999999999574,
                "tempo": 120.0
            },
            {
                "start_time": 50.29545454545454,
                "end_time": 50.49545454545454,
                "pitch": 60,
                "velocity": 64,
                "duration": 0.20000000000000284,
                "tempo": 120.0
            },
            {
                "start_time": 50.49545454545454,
                "end_time": 50.89545454545454,
                "pitch": 67,
                "velocity": 64,
                "duration": 0.3999999999999986,
                "tempo": 120.0
            },
            {
                "start_time": 50.89545454545454,
                "end_time": 51.095454545454544,
                "pitch": 62,
                "velocity": 64,
                "duration": 0.20000000000000284,
                "tempo": 120.0
            },
            {
                "start_time": 51.09772727272727,
                "end_time": 51.5,
                "pitch": 59,
                "velocity": 64,
                "duration": 0.4022727272727309,
                "tempo": 120.0
            },
            {
                "start_time": 51.502272727272725,
                "end_time": 51.699999999999996,
                "pitch": 55,
                "velocity": 51,
                "duration": 0.19772727272727053,
                "tempo": 120.0
            },
            {
                "start_time": 51.70227272727273,
                "end_time": 51.9,
                "pitch": 60,
                "velocity": 51,
                "duration": 0.19772727272727053,
                "tempo": 120.0
            },
            {
                "start_time": 51.902272727272724,
                "end_time": 52.10227272727273,
                "pitch": 64,
                "velocity": 51,
                "duration": 0.20000000000000284,
                "tempo": 120.0
            },
            {
                "start_time": 52.10227272727273,
                "end_time": 52.30227272727272,
                "pitch": 67,
                "velocity": 51,
                "duration": 0.19999999999999574,
                "tempo": 120.0
            },
            {
                "start_time": 52.30227272727272,
                "end_time": 52.502272727272725,
                "pitch": 55,
                "velocity": 51,
                "duration": 0.20000000000000284,
                "tempo": 120.0
            },
            {
                "start_time": 52.502272727272725,
                "end_time": 52.70227272727273,
                "pitch": 60,
                "velocity": 51,
                "duration": 0.20000000000000284,
                "tempo": 120.0
            },
            {
                "start_time": 52.70454545454545,
                "end_time": 52.902272727272724,
                "pitch": 64,
                "velocity": 51,
                "duration": 0.19772727272727053,
                "tempo": 120.0
            },
            {
                "start_time": 52.902272727272724,
                "end_time": 53.10227272727273,
                "pitch": 67,
                "velocity": 51,
                "duration": 0.20000000000000284,
                "tempo": 120.0
            },
            {
                "start_time": 53.10454545454545,
                "end_time": 53.304545454545455,
                "pitch": 55,
                "velocity": 51,
                "duration": 0.20000000000000284,
                "tempo": 120.0
            },
            {
                "start_time": 53.304545454545455,
                "end_time": 53.50681818181818,
                "pitch": 60,
                "velocity": 51,
                "duration": 0.20227272727272805,
                "tempo": 120.0
            },
            {
                "start_time": 53.50681818181818,
                "end_time": 53.70454545454545,
                "pitch": 64,
                "velocity": 51,
                "duration": 0.19772727272727053,
                "tempo": 120.0
            },
            {
                "start_time": 53.70681818181818,
                "end_time": 53.90681818181818,
                "pitch": 67,
                "velocity": 51,
                "duration": 0.20000000000000284,
                "tempo": 120.0
            },
            {
                "start_time": 53.90909090909091,
                "end_time": 54.10681818181818,
                "pitch": 55,
                "velocity": 51,
                "duration": 0.19772727272727053,
                "tempo": 120.0
            },
            {
                "start_time": 54.10681818181818,
                "end_time": 54.30681818181818,
                "pitch": 60,
                "velocity": 51,
                "duration": 0.20000000000000284,
                "tempo": 120.0
            },
            {
                "start_time": 54.30681818181818,
                "end_time": 54.50681818181818,
                "pitch": 64,
                "velocity": 51,
                "duration": 0.20000000000000284,
                "tempo": 120.0
            },
            {
                "start_time": 54.50909090909091,
                "end_time": 54.70681818181818,
                "pitch": 67,
                "velocity": 51,
                "duration": 0.19772727272727053,
                "tempo": 120.0
            },
            {
                "start_time": 54.709090909090904,
                "end_time": 54.90681818181818,
                "pitch": 52,
                "velocity": 51,
                "duration": 0.19772727272727764,
                "tempo": 120.0
            },
            {
                "start_time": 54.90909090909091,
                "end_time": 55.10681818181818,
                "pitch": 57,
                "velocity": 51,
                "duration": 0.19772727272727053,
                "tempo": 120.0
            },
            {
                "start_time": 55.10909090909091,
                "end_time": 55.31363636363636,
                "pitch": 60,
                "velocity": 51,
                "duration": 0.20454545454545325,
                "tempo": 120.0
            },
            {
                "start_time": 55.31590909090909,
                "end_time": 55.518181818181816,
                "pitch": 64,
                "velocity": 51,
                "duration": 0.20227272727272805,
                "tempo": 120.0
            },
            {
                "start_time": 55.52045454545454,
                "end_time": 55.71363636363636,
                "pitch": 52,
                "velocity": 51,
                "duration": 0.19318181818182012,
                "tempo": 120.0
            },
            {
                "start_time": 55.715909090909086,
                "end_time": 55.91136363636363,
                "pitch": 57,
                "velocity": 51,
                "duration": 0.19545454545454533,
                "tempo": 120.0
            },
            {
                "start_time": 55.913636363636364,
                "end_time": 56.115909090909085,
                "pitch": 60,
                "velocity": 51,
                "duration": 0.20227272727272094,
                "tempo": 120.0
            },
            {
                "start_time": 56.11818181818182,
                "end_time": 56.324999999999996,
                "pitch": 64,
                "velocity": 51,
                "duration": 0.20681818181817846,
                "tempo": 120.0
            },
            {
                "start_time": 56.324999999999996,
                "end_time": 56.525,
                "pitch": 52,
                "velocity": 51,
                "duration": 0.20000000000000284,
                "tempo": 120.0
            },
            {
                "start_time": 56.525,
                "end_time": 56.72727272727273,
                "pitch": 57,
                "velocity": 51,
                "duration": 0.20227272727272805,
                "tempo": 120.0
            },
            {
                "start_time": 56.72727272727273,
                "end_time": 56.925,
                "pitch": 60,
                "velocity": 51,
                "duration": 0.19772727272727053,
                "tempo": 120.0
            },
            {
                "start_time": 56.92727272727272,
                "end_time": 57.127272727272725,
                "pitch": 64,
                "velocity": 51,
                "duration": 0.20000000000000284,
                "tempo": 120.0
            },
            {
                "start_time": 57.12954545454545,
                "end_time": 57.32727272727272,
                "pitch": 52,
                "velocity": 51,
                "duration": 0.19772727272727053,
                "tempo": 120.0
            },
            {
                "start_time": 57.32727272727272,
                "end_time": 57.527272727272724,
                "pitch": 57,
                "velocity": 51,
                "duration": 0.20000000000000284,
                "tempo": 120.0
            },
            {
                "start_time": 57.527272727272724,
                "end_time": 57.72727272727273,
                "pitch": 60,
                "velocity": 51,
                "duration": 0.20000000000000284,
                "tempo": 120.0
            },
            {
                "start_time": 57.72954545454545,
                "end_time": 57.92727272727272,
                "pitch": 64,
                "velocity": 51,
                "duration": 0.19772727272727053,
                "tempo": 120.0
            },
            {
                "start_time": 57.929545454545455,
                "end_time": 58.127272727272725,
                "pitch": 53,
                "velocity": 51,
                "duration": 0.19772727272727053,
                "tempo": 120.0
            },
            {
                "start_time": 58.12954545454545,
                "end_time": 58.32727272727272,
                "pitch": 57,
                "velocity": 51,
                "duration": 0.19772727272727053,
                "tempo": 120.0
            },
            {
                "start_time": 58.32954545454545,
                "end_time": 58.52954545454545,
                "pitch": 62,
                "velocity": 51,
                "duration": 0.19999999999999574,
                "tempo": 120.0
            },
            {
                "start_time": 58.53181818181818,
                "end_time": 58.73181818181818,
                "pitch": 65,
                "velocity": 51,
                "duration": 0.19999999999999574,
                "tempo": 120.0
            },
            {
                "start_time": 58.73409090909091,
                "end_time": 58.93181818181818,
                "pitch": 53,
                "velocity": 51,
                "duration": 0.19772727272727053,
                "tempo": 120.0
            },
            {
                "start_time": 58.93181818181818,
                "end_time": 59.131818181818176,
                "pitch": 57,
                "velocity": 51,
                "duration": 0.19999999999999574,
                "tempo": 120.0
            },
            {
                "start_time": 59.13409090909091,
                "end_time": 59.33181818181818,
                "pitch": 62,
                "velocity": 51,
                "duration": 0.19772727272727053,
                "tempo": 120.0
            },
            {
                "start_time": 59.33181818181818,
                "end_time": 59.53409090909091,
                "pitch": 65,
                "velocity": 51,
                "duration": 0.20227272727272805,
                "tempo": 120.0
            },
            {
                "start_time": 59.53409090909091,
                "end_time": 59.73181818181818,
                "pitch": 53,
                "velocity": 51,
                "duration": 0.19772727272727053,
                "tempo": 120.0
            },
            {
                "start_time": 59.73409090909091,
                "end_time": 59.934090909090905,
                "pitch": 57,
                "velocity": 51,
                "duration": 0.19999999999999574,
                "tempo": 120.0
            },
            {
                "start_time": 59.934090909090905,
                "end_time": 60.131818181818176,
                "pitch": 62,
                "velocity": 51,
                "duration": 0.19772727272727053,
                "tempo": 120.0
            },
            {
                "start_time": 60.13409090909091,
                "end_time": 60.334090909090904,
                "pitch": 65,
                "velocity": 51,
                "duration": 0.19999999999999574,
                "tempo": 120.0
            },
            {
                "start_time": 60.336363636363636,
                "end_time": 60.53409090909091,
                "pitch": 53,
                "velocity": 51,
                "duration": 0.19772727272727053,
                "tempo": 120.0
            },
            {
                "start_time": 60.53636363636363,
                "end_time": 60.736363636363635,
                "pitch": 57,
                "velocity": 51,
                "duration": 0.20000000000000284,
                "tempo": 120.0
            },
            {
                "start_time": 60.73863636363636,
                "end_time": 60.93636363636363,
                "pitch": 62,
                "velocity": 51,
                "duration": 0.19772727272727053,
                "tempo": 120.0
            },
            {
                "start_time": 60.93863636363636,
                "end_time": 61.13636363636363,
                "pitch": 65,
                "velocity": 51,
                "duration": 0.19772727272727053,
                "tempo": 120.0
            },
            {
                "start_time": 61.13863636363636,
                "end_time": 61.33863636363636,
                "pitch": 67,
                "velocity": 80,
                "duration": 0.20000000000000284,
                "tempo": 120.0
            },
            {
                "start_time": 61.33863636363636,
                "end_time": 61.53636363636363,
                "pitch": 67,
                "velocity": 80,
                "duration": 0.19772727272727053,
                "tempo": 120.0
            },
            {
                "start_time": 61.538636363636364,
                "end_time": 61.736363636363635,
                "pitch": 67,
                "velocity": 80,
                "duration": 0.19772727272727053,
                "tempo": 120.0
            },
            {
                "start_time": 61.73863636363636,
                "end_time": 61.93636363636363,
                "pitch": 67,
                "velocity": 80,
                "duration": 0.19772727272727053,
                "tempo": 120.0
            },
            {
                "start_time": 61.93863636363636,
                "end_time": 62.13863636363636,
                "pitch": 67,
                "velocity": 80,
                "duration": 0.19999999999999574,
                "tempo": 120.0
            },
            {
                "start_time": 62.13863636363636,
                "end_time": 62.33863636363636,
                "pitch": 67,
                "velocity": 80,
                "duration": 0.20000000000000284,
                "tempo": 120.0
            },
            {
                "start_time": 62.340909090909086,
                "end_time": 62.54090909090909,
                "pitch": 67,
                "velocity": 80,
                "duration": 0.20000000000000284,
                "tempo": 120.0
            },
            {
                "start_time": 62.54090909090909,
                "end_time": 62.94090909090909,
                "pitch": 71,
                "velocity": 80,
                "duration": 0.3999999999999986,
                "tempo": 120.0
            },
            {
                "start_time": 62.94318181818181,
                "end_time": 63.14090909090909,
                "pitch": 71,
                "velocity": 80,
                "duration": 0.19772727272727764,
                "tempo": 120.0
            },
            {
                "start_time": 63.143181818181816,
                "end_time": 63.340909090909086,
                "pitch": 71,
                "velocity": 80,
                "duration": 0.19772727272727053,
                "tempo": 120.0
            },
            {
                "start_time": 63.34318181818181,
                "end_time": 63.543181818181814,
                "pitch": 71,
                "velocity": 80,
                "duration": 0.20000000000000284,
                "tempo": 120.0
            },
            {
                "start_time": 63.543181818181814,
                "end_time": 63.74318181818182,
                "pitch": 71,
                "velocity": 80,
                "duration": 0.20000000000000284,
                "tempo": 120.0
            },
            {
                "start_time": 63.74318181818182,
                "end_time": 63.94318181818181,
                "pitch": 71,
                "velocity": 80,
                "duration": 0.19999999999999574,
                "tempo": 120.0
            },
            {
                "start_time": 63.94318181818181,
                "end_time": 64.34545454545454,
                "pitch": 71,
                "velocity": 80,
                "duration": 0.4022727272727309,
                "tempo": 120.0
            },
            {
                "start_time": 64.34772727272727,
                "end_time": 64.55227272727272,
                "pitch": 69,
                "velocity": 80,
                "duration": 0.20454545454545325,
                "tempo": 120.0
            },
            {
                "start_time": 64.55227272727272,
                "end_time": 64.75454545454545,
                "pitch": 69,
                "velocity": 80,
                "duration": 0.20227272727272805,
                "tempo": 120.0
            },
            {
                "start_time": 64.75681818181818,
                "end_time": 64.95681818181818,
                "pitch": 69,
                "velocity": 80,
                "duration": 0.20000000000000284,
                "tempo": 120.0
            },
            {
                "start_time": 64.95681818181818,
                "end_time": 65.1590909090909,
                "pitch": 69,
                "velocity": 80,
                "duration": 0.20227272727272805,
                "tempo": 120.0
            },
            {
                "start_time": 65.1590909090909,
                "end_time": 65.35909090909091,
                "pitch": 69,
                "velocity": 80,
                "duration": 0.20000000000000284,
                "tempo": 120.0
            },
            {
                "start_time": 65.36136363636363,
                "end_time": 65.56136363636364,
                "pitch": 69,
                "velocity": 80,
                "duration": 0.20000000000000284,
                "tempo": 120.0
            },
            {
                "start_time": 65.56363636363636,
                "end_time": 65.76136363636364,
                "pitch": 69,
                "velocity": 80,
                "duration": 0.19772727272727764,
                "tempo": 120.0
            },
            {
                "start_time": 65.76136363636364,
                "end_time": 65.96363636363635,
                "pitch": 69,
                "velocity": 80,
                "duration": 0.20227272727271384,
                "tempo": 120.0
            },
            {
                "start_time": 65.96363636363635,
                "end_time": 66.16363636363636,
                "pitch": 69,
                "velocity": 80,
                "duration": 0.20000000000000284,
                "tempo": 120.0
            },
            {
                "start_time": 66.16363636363636,
                "end_time": 66.36590909090908,
                "pitch": 69,
                "velocity": 80,
                "duration": 0.20227272727272805,
                "tempo": 120.0
            },
            {
                "start_time": 66.36590909090908,
                "end_time": 66.56590909090909,
                "pitch": 69,
                "velocity": 80,
                "duration": 0.20000000000000284,
                "tempo": 120.0
            },
            {
                "start_time": 66.56590909090909,
                "end_time": 66.76590909090909,
                "pitch": 69,
                "velocity": 80,
                "duration": 0.20000000000000284,
                "tempo": 120.0
            },
            {
                "start_time": 66.76590909090909,
                "end_time": 66.96818181818182,
                "pitch": 69,
                "velocity": 80,
                "duration": 0.20227272727272805,
                "tempo": 120.0
            },
            {
                "start_time": 66.96818181818182,
                "end_time": 67.16818181818182,
                "pitch": 69,
                "velocity": 80,
                "duration": 0.20000000000000284,
                "tempo": 120.0
            },
            {
                "start_time": 67.17045454545455,
                "end_time": 67.37045454545454,
                "pitch": 69,
                "velocity": 80,
                "duration": 0.19999999999998863,
                "tempo": 120.0
            },
            {
                "start_time": 67.37272727272727,
                "end_time": 67.57272727272726,
                "pitch": 69,
                "velocity": 80,
                "duration": 0.19999999999998863,
                "tempo": 120.0
            },
            {
                "start_time": 67.57272727272726,
                "end_time": 67.77272727272727,
                "pitch": 67,
                "velocity": 80,
                "duration": 0.20000000000000284,
                "tempo": 120.0
            },
            {
                "start_time": 67.77499999999999,
                "end_time": 67.97272727272727,
                "pitch": 67,
                "velocity": 80,
                "duration": 0.19772727272727764,
                "tempo": 120.0
            },
            {
                "start_time": 67.975,
                "end_time": 68.175,
                "pitch": 67,
                "velocity": 80,
                "duration": 0.20000000000000284,
                "tempo": 120.0
            },
            {
                "start_time": 68.175,
                "end_time": 68.37727272727273,
                "pitch": 67,
                "velocity": 80,
                "duration": 0.20227272727272805,
                "tempo": 120.0
            },
            {
                "start_time": 68.37727272727273,
                "end_time": 68.575,
                "pitch": 67,
                "velocity": 80,
                "duration": 0.19772727272727764,
                "tempo": 120.0
            },
            {
                "start_time": 68.57727272727273,
                "end_time": 68.77727272727273,
                "pitch": 67,
                "velocity": 80,
                "duration": 0.20000000000000284,
                "tempo": 120.0
            },
            {
                "start_time": 68.77727272727273,
                "end_time": 68.97727272727272,
                "pitch": 67,
                "velocity": 80,
                "duration": 0.19999999999998863,
                "tempo": 120.0
            },
            {
                "start_time": 68.97954545454544,
                "end_time": 69.18181818181817,
                "pitch": 67,
                "velocity": 80,
                "duration": 0.20227272727272805,
                "tempo": 120.0
            },
            {
                "start_time": 69.18181818181817,
                "end_time": 69.38181818181818,
                "pitch": 67,
                "velocity": 80,
                "duration": 0.20000000000000284,
                "tempo": 120.0
            },
            {
                "start_time": 69.38181818181818,
                "end_time": 69.58181818181818,
                "pitch": 67,
                "velocity": 80,
                "duration": 0.20000000000000284,
                "tempo": 120.0
            },
            {
                "start_time": 69.5840909090909,
                "end_time": 69.7840909090909,
                "pitch": 67,
                "velocity": 80,
                "duration": 0.20000000000000284,
                "tempo": 120.0
            },
            {
                "start_time": 69.7840909090909,
                "end_time": 69.98409090909091,
                "pitch": 67,
                "velocity": 80,
                "duration": 0.20000000000000284,
                "tempo": 120.0
            },
            {
                "start_time": 69.98409090909091,
                "end_time": 70.18636363636364,
                "pitch": 67,
                "velocity": 80,
                "duration": 0.20227272727272805,
                "tempo": 120.0
            },
            {
                "start_time": 70.18636363636364,
                "end_time": 70.38636363636363,
                "pitch": 67,
                "velocity": 80,
                "duration": 0.19999999999998863,
                "tempo": 120.0
            },
            {
                "start_time": 70.38636363636363,
                "end_time": 70.58636363636363,
                "pitch": 67,
                "velocity": 80,
                "duration": 0.20000000000000284,
                "tempo": 120.0
            },
            {
                "start_time": 70.58863636363635,
                "end_time": 70.78863636363636,
                "pitch": 67,
                "velocity": 80,
                "duration": 0.20000000000000284,
                "tempo": 120.0
            },
            {
                "start_time": 70.78863636363636,
                "end_time": 70.99318181818181,
                "pitch": 65,
                "velocity": 80,
                "duration": 0.20454545454545325,
                "tempo": 120.0
            },
            {
                "start_time": 70.99545454545454,
                "end_time": 71.19772727272726,
                "pitch": 65,
                "velocity": 80,
                "duration": 0.20227272727272805,
                "tempo": 120.0
            },
            {
                "start_time": 71.2,
                "end_time": 71.39772727272727,
                "pitch": 65,
                "velocity": 80,
                "duration": 0.19772727272726343,
                "tempo": 120.0
            },
            {
                "start_time": 71.39999999999999,
                "end_time": 71.6,
                "pitch": 65,
                "velocity": 80,
                "duration": 0.20000000000000284,
                "tempo": 120.0
            },
            {
                "start_time": 71.6,
                "end_time": 71.8,
                "pitch": 65,
                "velocity": 80,
                "duration": 0.20000000000000284,
                "tempo": 120.0
            },
            {
                "start_time": 71.80227272727272,
                "end_time": 72.00227272727273,
                "pitch": 65,
                "velocity": 80,
                "duration": 0.20000000000000284,
                "tempo": 120.0
            },
            {
                "start_time": 72.00454545454545,
                "end_time": 72.20227272727273,
                "pitch": 65,
                "velocity": 80,
                "duration": 0.19772727272727764,
                "tempo": 120.0
            },
            {
                "start_time": 72.20227272727273,
                "end_time": 72.40454545454546,
                "pitch": 65,
                "velocity": 80,
                "duration": 0.20227272727272805,
                "tempo": 120.0
            },
            {
                "start_time": 72.40454545454546,
                "end_time": 72.60454545454544,
                "pitch": 65,
                "velocity": 80,
                "duration": 0.19999999999998863,
                "tempo": 120.0
            },
            {
                "start_time": 72.60454545454544,
                "end_time": 72.80681818181817,
                "pitch": 65,
                "velocity": 80,
                "duration": 0.20227272727272805,
                "tempo": 120.0
            },
            {
                "start_time": 72.80681818181817,
                "end_time": 73.0090909090909,
                "pitch": 65,
                "velocity": 80,
                "duration": 0.20227272727272805,
                "tempo": 120.0
            },
            {
                "start_time": 73.0090909090909,
                "end_time": 73.2090909090909,
                "pitch": 65,
                "velocity": 80,
                "duration": 0.20000000000000284,
                "tempo": 120.0
            },
            {
                "start_time": 73.2090909090909,
                "end_time": 73.4090909090909,
                "pitch": 65,
                "velocity": 80,
                "duration": 0.20000000000000284,
                "tempo": 120.0
            },
            {
                "start_time": 73.41136363636363,
                "end_time": 73.60909090909091,
                "pitch": 65,
                "velocity": 80,
                "duration": 0.19772727272727764,
                "tempo": 120.0
            },
            {
                "start_time": 73.61136363636363,
                "end_time": 73.81136363636364,
                "pitch": 65,
                "velocity": 80,
                "duration": 0.20000000000000284,
                "tempo": 120.0
            },
            {
                "start_time": 73.81363636363636,
                "end_time": 74.01363636363637,
                "pitch": 65,
                "velocity": 80,
                "duration": 0.20000000000000284,
                "tempo": 120.0
            },
            {
                "start_time": 74.01363636363637,
                "end_time": 74.21363636363635,
                "pitch": 62,
                "velocity": 80,
                "duration": 0.19999999999998863,
                "tempo": 120.0
            },
            {
                "start_time": 74.2159090909091,
                "end_time": 74.41363636363636,
                "pitch": 62,
                "velocity": 80,
                "duration": 0.19772727272726343,
                "tempo": 120.0
            },
            {
                "start_time": 74.41363636363636,
                "end_time": 74.61590909090908,
                "pitch": 62,
                "velocity": 80,
                "duration": 0.20227272727272805,
                "tempo": 120.0
            },
            {
                "start_time": 74.61590909090908,
                "end_time": 74.81590909090909,
                "pitch": 62,
                "velocity": 80,
                "duration": 0.20000000000000284,
                "tempo": 120.0
            },
            {
                "start_time": 74.81818181818181,
                "end_time": 75.01818181818182,
                "pitch": 62,
                "velocity": 80,
                "duration": 0.20000000000000284,
                "tempo": 120.0
            },
            {
                "start_time": 75.01818181818182,
                "end_time": 75.22045454545454,
                "pitch": 62,
                "velocity": 80,
                "duration": 0.20227272727272805,
                "tempo": 120.0
            },
            {
                "start_time": 75.22045454545454,
                "end_time": 75.42045454545455,
                "pitch": 62,
                "velocity": 80,
                "duration": 0.20000000000000284,
                "tempo": 120.0
            },
            {
                "start_time": 75.42045454545455,
                "end_time": 75.62045454545454,
                "pitch": 62,
                "velocity": 80,
                "duration": 0.19999999999998863,
                "tempo": 120.0
            },
            {
                "start_time": 75.62272727272727,
                "end_time": 75.82272727272726,
                "pitch": 62,
                "velocity": 80,
                "duration": 0.19999999999998863,
                "tempo": 120.0
            },
            {
                "start_time": 75.82272727272726,
                "end_time": 76.02272727272727,
                "pitch": 62,
                "velocity": 80,
                "duration": 0.20000000000000284,
                "tempo": 120.0
            },
            {
                "start_time": 76.02272727272727,
                "end_time": 76.22272727272727,
                "pitch": 62,
                "velocity": 80,
                "duration": 0.20000000000000284,
                "tempo": 120.0
            },
            {
                "start_time": 76.225,
                "end_time": 76.42272727272727,
                "pitch": 62,
                "velocity": 80,
                "duration": 0.19772727272727764,
                "tempo": 120.0
            },
            {
                "start_time": 76.425,
                "end_time": 76.62954545454545,
                "pitch": 62,
                "velocity": 80,
                "duration": 0.20454545454545325,
                "tempo": 120.0
            },
            {
                "start_time": 76.63181818181818,
                "end_time": 76.8340909090909,
                "pitch": 62,
                "velocity": 80,
                "duration": 0.20227272727272805,
                "tempo": 120.0
            },
            {
                "start_time": 76.83636363636363,
                "end_time": 77.03181818181818,
                "pitch": 62,
                "velocity": 80,
                "duration": 0.19545454545455243,
                "tempo": 120.0
            },
            {
                "start_time": 77.03181818181818,
                "end_time": 77.22954545454544,
                "pitch": 62,
                "velocity": 80,
                "duration": 0.19772727272726343,
                "tempo": 120.0
            },
            {
                "start_time": 77.22954545454544,
                "end_time": 77.43409090909091,
                "pitch": 69,
                "velocity": 80,
                "duration": 0.20454545454546746,
                "tempo": 120.0
            },
            {
                "start_time": 77.43636363636364,
                "end_time": 77.63863636363637,
                "pitch": 69,
                "velocity": 80,
                "duration": 0.20227272727272805,
                "tempo": 120.0
            },
            {
                "start_time": 77.64090909090909,
                "end_time": 77.8340909090909,
                "pitch": 69,
                "velocity": 80,
                "duration": 0.19318181818181301,
                "tempo": 120.0
            },
            {
                "start_time": 77.83636363636363,
                "end_time": 78.03181818181818,
                "pitch": 69,
                "velocity": 80,
                "duration": 0.19545454545455243,
                "tempo": 120.0
            },
            {
                "start_time": 78.03181818181818,
                "end_time": 78.23181818181818,
                "pitch": 69,
                "velocity": 80,
                "duration": 0.20000000000000284,
                "tempo": 120.0
            },
            {
                "start_time": 78.23181818181818,
                "end_time": 78.43181818181817,
                "pitch": 69,
                "velocity": 80,
                "duration": 0.19999999999998863,
                "tempo": 120.0
            },
            {
                "start_time": 78.43409090909091,
                "end_time": 78.63863636363637,
                "pitch": 69,
                "velocity": 80,
                "duration": 0.20454545454545325,
                "tempo": 120.0
            },
            {
                "start_time": 78.63863636363637,
                "end_time": 78.84545454545454,
                "pitch": 69,
                "velocity": 80,
                "duration": 0.20681818181817846,
                "tempo": 120.0
            },
            {
                "start_time": 78.84545454545454,
                "end_time": 79.04318181818181,
                "pitch": 69,
                "velocity": 80,
                "duration": 0.19772727272726343,
                "tempo": 120.0
            },
            {
                "start_time": 79.04318181818181,
                "end_time": 79.24318181818181,
                "pitch": 69,
                "velocity": 80,
                "duration": 0.20000000000000284,
                "tempo": 120.0
            },
            {
                "start_time": 79.24545454545454,
                "end_time": 79.44545454545454,
                "pitch": 69,
                "velocity": 80,
                "duration": 0.20000000000000284,
                "tempo": 120.0
            },
            {
                "start_time": 79.44772727272726,
                "end_time": 79.64772727272727,
                "pitch": 69,
                "velocity": 80,
                "duration": 0.20000000000000284,
                "tempo": 120.0
            },
            {
                "start_time": 79.64772727272727,
                "end_time": 79.84772727272727,
                "pitch": 69,
                "velocity": 80,
                "duration": 0.20000000000000284,
                "tempo": 120.0
            },
            {
                "start_time": 79.84772727272727,
                "end_time": 80.04772727272727,
                "pitch": 69,
                "velocity": 80,
                "duration": 0.20000000000000284,
                "tempo": 120.0
            },
            {
                "start_time": 80.04772727272727,
                "end_time": 80.25,
                "pitch": 69,
                "velocity": 80,
                "duration": 0.20227272727272805,
                "tempo": 120.0
            },
            {
                "start_time": 80.25,
                "end_time": 80.45227272727273,
                "pitch": 69,
                "velocity": 80,
                "duration": 0.20227272727272805,
                "tempo": 120.0
            },
            {
                "start_time": 80.45227272727273,
                "end_time": 80.65454545454546,
                "pitch": 67,
                "velocity": 80,
                "duration": 0.20227272727272805,
                "tempo": 120.0
            },
            {
                "start_time": 80.65454545454546,
                "end_time": 80.85454545454544,
                "pitch": 67,
                "velocity": 80,
                "duration": 0.19999999999998863,
                "tempo": 120.0
            },
            {
                "start_time": 80.85454545454544,
                "end_time": 81.05454545454545,
                "pitch": 67,
                "velocity": 80,
                "duration": 0.20000000000000284,
                "tempo": 120.0
            },
            {
                "start_time": 81.05454545454545,
                "end_time": 81.25454545454545,
                "pitch": 67,
                "velocity": 80,
                "duration": 0.20000000000000284,
                "tempo": 120.0
            },
            {
                "start_time": 81.25681818181818,
                "end_time": 81.45681818181818,
                "pitch": 67,
                "velocity": 80,
                "duration": 0.20000000000000284,
                "tempo": 120.0
            },
            {
                "start_time": 81.45681818181818,
                "end_time": 81.6590909090909,
                "pitch": 67,
                "velocity": 80,
                "duration": 0.20227272727272805,
                "tempo": 120.0
            },
            {
                "start_time": 81.6590909090909,
                "end_time": 81.85909090909091,
                "pitch": 67,
                "velocity": 80,
                "duration": 0.20000000000000284,
                "tempo": 120.0
            },
            {
                "start_time": 81.85909090909091,
                "end_time": 82.05909090909091,
                "pitch": 67,
                "velocity": 80,
                "duration": 0.20000000000000284,
                "tempo": 120.0
            },
            {
                "start_time": 82.06136363636364,
                "end_time": 82.26136363636363,
                "pitch": 67,
                "velocity": 80,
                "duration": 0.19999999999998863,
                "tempo": 120.0
            },
            {
                "start_time": 82.26136363636363,
                "end_time": 82.46136363636363,
                "pitch": 67,
                "velocity": 80,
                "duration": 0.20000000000000284,
                "tempo": 120.0
            },
            {
                "start_time": 82.46136363636363,
                "end_time": 82.66363636363636,
                "pitch": 67,
                "velocity": 80,
                "duration": 0.20227272727272805,
                "tempo": 120.0
            },
            {
                "start_time": 82.66363636363636,
                "end_time": 82.86363636363636,
                "pitch": 67,
                "velocity": 80,
                "duration": 0.20000000000000284,
                "tempo": 120.0
            },
            {
                "start_time": 82.86590909090908,
                "end_time": 83.06590909090909,
                "pitch": 67,
                "velocity": 80,
                "duration": 0.20000000000000284,
                "tempo": 120.0
            },
            {
                "start_time": 83.06590909090909,
                "end_time": 83.26590909090909,
                "pitch": 67,
                "velocity": 80,
                "duration": 0.20000000000000284,
                "tempo": 120.0
            },
            {
                "start_time": 83.26590909090909,
                "end_time": 83.46818181818182,
                "pitch": 67,
                "velocity": 80,
                "duration": 0.20227272727272805,
                "tempo": 120.0
            },
            {
                "start_time": 83.46818181818182,
                "end_time": 83.66818181818181,
                "pitch": 67,
                "velocity": 80,
                "duration": 0.19999999999998863,
                "tempo": 120.0
            },
            {
                "start_time": 83.67045454545455,
                "end_time": 83.87045454545454,
                "pitch": 65,
                "velocity": 80,
                "duration": 0.19999999999998863,
                "tempo": 120.0
            },
            {
                "start_time": 83.87045454545454,
                "end_time": 84.07045454545454,
                "pitch": 65,
                "velocity": 80,
                "duration": 0.20000000000000284,
                "tempo": 120.0
            },
            {
                "start_time": 84.07045454545454,
                "end_time": 84.27045454545454,
                "pitch": 65,
                "velocity": 80,
                "duration": 0.20000000000000284,
                "tempo": 120.0
            },
            {
                "start_time": 84.27045454545454,
                "end_time": 84.47272727272727,
                "pitch": 65,
                "velocity": 80,
                "duration": 0.20227272727272805,
                "tempo": 120.0
            },
            {
                "start_time": 84.47272727272727,
                "end_time": 84.67272727272727,
                "pitch": 65,
                "velocity": 80,
                "duration": 0.20000000000000284,
                "tempo": 120.0
            },
            {
                "start_time": 84.675,
                "end_time": 84.875,
                "pitch": 65,
                "velocity": 80,
                "duration": 0.20000000000000284,
                "tempo": 120.0
            },
            {
                "start_time": 84.87727272727273,
                "end_time": 85.075,
                "pitch": 65,
                "velocity": 80,
                "duration": 0.19772727272727764,
                "tempo": 120.0
            },
            {
                "start_time": 85.07727272727273,
                "end_time": 85.27727272727272,
                "pitch": 65,
                "velocity": 80,
                "duration": 0.19999999999998863,
                "tempo": 120.0
            },
            {
                "start_time": 85.27727272727272,
                "end_time": 85.48181818181818,
                "pitch": 65,
                "velocity": 80,
                "duration": 0.20454545454546746,
                "tempo": 120.0
            },
            {
                "start_time": 85.48181818181818,
                "end_time": 85.68636363636364,
                "pitch": 65,
                "velocity": 80,
                "duration": 0.20454545454545325,
                "tempo": 120.0
            },
            {
                "start_time": 85.68863636363636,
                "end_time": 85.88863636363637,
                "pitch": 65,
                "velocity": 80,
                "duration": 0.20000000000000284,
                "tempo": 120.0
            },
            {
                "start_time": 85.88863636363637,
                "end_time": 86.08863636363635,
                "pitch": 65,
                "velocity": 80,
                "duration": 0.19999999999998863,
                "tempo": 120.0
            },
            {
                "start_time": 86.0909090909091,
                "end_time": 86.29090909090908,
                "pitch": 65,
                "velocity": 80,
                "duration": 0.19999999999998863,
                "tempo": 120.0
            },
            {
                "start_time": 86.29090909090908,
                "end_time": 86.49318181818181,
                "pitch": 65,
                "velocity": 80,
                "duration": 0.20227272727272805,
                "tempo": 120.0
            },
            {
                "start_time": 86.49318181818181,
                "end_time": 86.69318181818181,
                "pitch": 65,
                "velocity": 80,
                "duration": 0.20000000000000284,
                "tempo": 120.0
            },
            {
                "start_time": 86.69318181818181,
                "end_time": 86.89318181818182,
                "pitch": 65,
                "velocity": 80,
                "duration": 0.20000000000000284,
                "tempo": 120.0
            },
            {
                "start_time": 86.89318181818182,
                "end_time": 87.09318181818182,
                "pitch": 62,
                "velocity": 80,
                "duration": 0.20000000000000284,
                "tempo": 120.0
            },
            {
                "start_time": 87.09318181818182,
                "end_time": 87.29318181818181,
                "pitch": 62,
                "velocity": 80,
                "duration": 0.19999999999998863,
                "tempo": 120.0
            },
            {
                "start_time": 87.29545454545455,
                "end_time": 87.49545454545454,
                "pitch": 62,
                "velocity": 80,
                "duration": 0.19999999999998863,
                "tempo": 120.0
            },
            {
                "start_time": 87.49772727272727,
                "end_time": 87.69772727272726,
                "pitch": 62,
                "velocity": 80,
                "duration": 0.19999999999998863,
                "tempo": 120.0
            },
            {
                "start_time": 87.69772727272726,
                "end_time": 87.89772727272727,
                "pitch": 62,
                "velocity": 80,
                "duration": 0.20000000000000284,
                "tempo": 120.0
            },
            {
                "start_time": 87.89772727272727,
                "end_time": 88.09772727272727,
                "pitch": 62,
                "velocity": 80,
                "duration": 0.20000000000000284,
                "tempo": 120.0
            },
            {
                "start_time": 88.09772727272727,
                "end_time": 88.3,
                "pitch": 62,
                "velocity": 80,
                "duration": 0.20227272727272805,
                "tempo": 120.0
            },
            {
                "start_time": 88.3,
                "end_time": 88.50227272727273,
                "pitch": 62,
                "velocity": 80,
                "duration": 0.20227272727272805,
                "tempo": 120.0
            },
            {
                "start_time": 88.50227272727273,
                "end_time": 88.70227272727273,
                "pitch": 69,
                "velocity": 101,
                "duration": 0.20000000000000284,
                "tempo": 120.0
            },
            {
                "start_time": 88.70227272727273,
                "end_time": 88.90227272727272,
                "pitch": 69,
                "velocity": 101,
                "duration": 0.19999999999998863,
                "tempo": 120.0
            },
            {
                "start_time": 88.90227272727272,
                "end_time": 89.10227272727272,
                "pitch": 69,
                "velocity": 101,
                "duration": 0.20000000000000284,
                "tempo": 120.0
            },
            {
                "start_time": 89.50227272727273,
                "end_time": 89.69545454545454,
                "pitch": 69,
                "velocity": 101,
                "duration": 0.19318181818181301,
                "tempo": 120.0
            },
            {
                "start_time": 90.10227272727272,
                "end_time": 93.32954545454545,
                "pitch": 52,
                "velocity": 64,
                "duration": 3.2272727272727337,
                "tempo": 120.0
            },
            {
                "start_time": 93.32954545454545,
                "end_time": 95.14090909090909,
                "pitch": 48,
                "velocity": 64,
                "duration": 1.8113636363636374,
                "tempo": 120.0
            },
            {
                "start_time": 95.14090909090909,
                "end_time": 96.55454545454545,
                "pitch": 50,
                "velocity": 64,
                "duration": 1.413636363636357,
                "tempo": 120.0
            },
            {
                "start_time": 96.55681818181817,
                "end_time": 99.77272727272727,
                "pitch": 52,
                "velocity": 64,
                "duration": 3.2159090909090935,
                "tempo": 120.0
            },
            {
                "start_time": 99.77272727272727,
                "end_time": 101.38181818181818,
                "pitch": 48,
                "velocity": 64,
                "duration": 1.6090909090909093,
                "tempo": 120.0
            },
            {
                "start_time": 101.58181818181818,
                "end_time": 101.98181818181817,
                "pitch": 67,
                "velocity": 64,
                "duration": 0.3999999999999915,
                "tempo": 120.0
            },
            {
                "start_time": 101.98409090909091,
                "end_time": 102.3840909090909,
                "pitch": 65,
                "velocity": 64,
                "duration": 0.3999999999999915,
                "tempo": 120.0
            },
            {
                "start_time": 102.3840909090909,
                "end_time": 102.78636363636363,
                "pitch": 67,
                "velocity": 64,
                "duration": 0.4022727272727309,
                "tempo": 120.0
            },
            {
                "start_time": 102.78636363636363,
                "end_time": 102.98863636363636,
                "pitch": 64,
                "velocity": 64,
                "duration": 0.20227272727272805,
                "tempo": 120.0
            },
            {
                "start_time": 102.99090909090908,
                "end_time": 106.21590909090908,
                "pitch": 52,
                "velocity": 64,
                "duration": 3.2249999999999943,
                "tempo": 120.0
            },
            {
                "start_time": 106.21590909090908,
                "end_time": 108.02499999999999,
                "pitch": 48,
                "velocity": 64,
                "duration": 1.8090909090909122,
                "tempo": 120.0
            },
            {
                "start_time": 108.02499999999999,
                "end_time": 109.4340909090909,
                "pitch": 50,
                "velocity": 64,
                "duration": 1.4090909090909065,
                "tempo": 120.0
            },
            {
                "start_time": 109.4340909090909,
                "end_time": 111.05227272727272,
                "pitch": 52,
                "velocity": 64,
                "duration": 1.6181818181818244,
                "tempo": 120.0
            },
            {
                "start_time": 111.05227272727272,
                "end_time": 112.66136363636363,
                "pitch": 52,
                "velocity": 64,
                "duration": 1.6090909090909093,
                "tempo": 120.0
            },
            {
                "start_time": 112.86136363636363,
                "end_time": 113.06136363636364,
                "pitch": 52,
                "velocity": 64,
                "duration": 0.20000000000000284,
                "tempo": 120.0
            },
            {
                "start_time": 113.06136363636364,
                "end_time": 113.26136363636363,
                "pitch": 55,
                "velocity": 64,
                "duration": 0.19999999999998863,
                "tempo": 120.0
            },
            {
                "start_time": 113.26363636363635,
                "end_time": 113.46363636363635,
                "pitch": 59,
                "velocity": 64,
                "duration": 0.20000000000000284,
                "tempo": 120.0
            },
            {
                "start_time": 113.46363636363635,
                "end_time": 113.66363636363636,
                "pitch": 60,
                "velocity": 64,
                "duration": 0.20000000000000284,
                "tempo": 120.0
            },
            {
                "start_time": 113.66590909090908,
                "end_time": 113.86363636363636,
                "pitch": 62,
                "velocity": 64,
                "duration": 0.19772727272727764,
                "tempo": 120.0
            },
            {
                "start_time": 113.86590909090908,
                "end_time": 114.06590909090909,
                "pitch": 64,
                "velocity": 64,
                "duration": 0.20000000000000284,
                "tempo": 120.0
            },
            {
                "start_time": 114.06590909090909,
                "end_time": 114.46818181818182,
                "pitch": 65,
                "velocity": 64,
                "duration": 0.4022727272727309,
                "tempo": 120.0
            },
            {
                "start_time": 114.47045454545454,
                "end_time": 114.67045454545455,
                "pitch": 62,
                "velocity": 64,
                "duration": 0.20000000000000284,
                "tempo": 120.0
            },
            {
                "start_time": 114.67045454545455,
                "end_time": 114.87045454545454,
                "pitch": 60,
                "velocity": 64,
                "duration": 0.19999999999998863,
                "tempo": 120.0
            },
            {
                "start_time": 114.87045454545454,
                "end_time": 115.27272727272727,
                "pitch": 67,
                "velocity": 64,
                "duration": 0.4022727272727309,
                "tempo": 120.0
            },
            {
                "start_time": 115.27272727272727,
                "end_time": 115.475,
                "pitch": 62,
                "velocity": 64,
                "duration": 0.20227272727272805,
                "tempo": 120.0
            },
            {
                "start_time": 115.475,
                "end_time": 115.87727272727273,
                "pitch": 59,
                "velocity": 64,
                "duration": 0.4022727272727309,
                "tempo": 120.0
            },
            {
                "start_time": 115.87727272727273,
                "end_time": 116.07727272727273,
                "pitch": 55,
                "velocity": 51,
                "duration": 0.20000000000000284,
                "tempo": 120.0
            },
            {
                "start_time": 116.07954545454545,
                "end_time": 116.27954545454544,
                "pitch": 60,
                "velocity": 51,
                "duration": 0.19999999999998863,
                "tempo": 120.0
            },
            {
                "start_time": 116.27954545454544,
                "end_time": 116.48181818181817,
                "pitch": 64,
                "velocity": 51,
                "duration": 0.20227272727272805,
                "tempo": 120.0
            },
            {
                "start_time": 116.48181818181817,
                "end_time": 116.68181818181817,
                "pitch": 67,
                "velocity": 51,
                "duration": 0.20000000000000284,
                "tempo": 120.0
            },
            {
                "start_time": 116.6840909090909,
                "end_time": 116.88181818181818,
                "pitch": 55,
                "velocity": 51,
                "duration": 0.19772727272727764,
                "tempo": 120.0
            },
            {
                "start_time": 116.8840909090909,
                "end_time": 117.0840909090909,
                "pitch": 60,
                "velocity": 51,
                "duration": 0.20000000000000284,
                "tempo": 120.0
            },
            {
                "start_time": 117.0840909090909,
                "end_time": 117.2840909090909,
                "pitch": 64,
                "velocity": 51,
                "duration": 0.20000000000000284,
                "tempo": 120.0
            },
            {
                "start_time": 117.2840909090909,
                "end_time": 117.48636363636363,
                "pitch": 67,
                "velocity": 51,
                "duration": 0.20227272727272805,
                "tempo": 120.0
            },
            {
                "start_time": 117.48863636363636,
                "end_time": 117.69090909090909,
                "pitch": 55,
                "velocity": 51,
                "duration": 0.20227272727272805,
                "tempo": 120.0
            },
            {
                "start_time": 117.69318181818181,
                "end_time": 117.89772727272727,
                "pitch": 60,
                "velocity": 51,
                "duration": 0.20454545454545325,
                "tempo": 120.0
            },
            {
                "start_time": 117.89999999999999,
                "end_time": 118.09772727272727,
                "pitch": 64,
                "velocity": 51,
                "duration": 0.19772727272727764,
                "tempo": 120.0
            },
            {
                "start_time": 118.1,
                "end_time": 118.30227272727272,
                "pitch": 67,
                "velocity": 51,
                "duration": 0.20227272727272805,
                "tempo": 120.0
            },
            {
                "start_time": 118.30227272727272,
                "end_time": 118.5,
                "pitch": 55,
                "velocity": 51,
                "duration": 0.19772727272727764,
                "tempo": 120.0
            },
            {
                "start_time": 118.50227272727273,
                "end_time": 118.69999999999999,
                "pitch": 60,
                "velocity": 51,
                "duration": 0.19772727272726343,
                "tempo": 120.0
            },
            {
                "start_time": 118.70227272727273,
                "end_time": 118.90227272727272,
                "pitch": 64,
                "velocity": 51,
                "duration": 0.19999999999998863,
                "tempo": 120.0
            },
            {
                "start_time": 118.90454545454544,
                "end_time": 119.10454545454544,
                "pitch": 67,
                "velocity": 51,
                "duration": 0.20000000000000284,
                "tempo": 120.0
            },
            {
                "start_time": 119.10681818181817,
                "end_time": 119.30454545454545,
                "pitch": 52,
                "velocity": 51,
                "duration": 0.19772727272727764,
                "tempo": 120.0
            },
            {
                "start_time": 119.30681818181817,
                "end_time": 119.50454545454545,
                "pitch": 57,
                "velocity": 51,
                "duration": 0.19772727272727764,
                "tempo": 120.0
            },
            {
                "start_time": 119.50681818181818,
                "end_time": 119.70681818181818,
                "pitch": 60,
                "velocity": 51,
                "duration": 0.20000000000000284,
                "tempo": 120.0
            },
            {
                "start_time": 119.7090909090909,
                "end_time": 119.9090909090909,
                "pitch": 64,
                "velocity": 51,
                "duration": 0.20000000000000284,
                "tempo": 120.0
            },
            {
                "start_time": 119.9090909090909,
                "end_time": 120.10909090909091,
                "pitch": 52,
                "velocity": 51,
                "duration": 0.20000000000000284,
                "tempo": 120.0
            },
            {
                "start_time": 120.11136363636363,
                "end_time": 120.31136363636364,
                "pitch": 57,
                "velocity": 51,
                "duration": 0.20000000000000284,
                "tempo": 120.0
            },
            {
                "start_time": 120.31363636363636,
                "end_time": 120.51136363636363,
                "pitch": 60,
                "velocity": 51,
                "duration": 0.19772727272726343,
                "tempo": 120.0
            },
            {
                "start_time": 120.51136363636363,
                "end_time": 120.71363636363635,
                "pitch": 64,
                "velocity": 51,
                "duration": 0.20227272727272805,
                "tempo": 120.0
            },
            {
                "start_time": 120.71363636363635,
                "end_time": 120.91363636363636,
                "pitch": 52,
                "velocity": 51,
                "duration": 0.20000000000000284,
                "tempo": 120.0
            },
            {
                "start_time": 120.91363636363636,
                "end_time": 121.11590909090908,
                "pitch": 57,
                "velocity": 51,
                "duration": 0.20227272727272805,
                "tempo": 120.0
            },
            {
                "start_time": 121.11590909090908,
                "end_time": 121.31590909090909,
                "pitch": 60,
                "velocity": 51,
                "duration": 0.20000000000000284,
                "tempo": 120.0
            },
            {
                "start_time": 121.31590909090909,
                "end_time": 121.51590909090909,
                "pitch": 64,
                "velocity": 51,
                "duration": 0.20000000000000284,
                "tempo": 120.0
            },
            {
                "start_time": 121.51818181818182,
                "end_time": 121.71818181818182,
                "pitch": 52,
                "velocity": 51,
                "duration": 0.20000000000000284,
                "tempo": 120.0
            },
            {
                "start_time": 121.71818181818182,
                "end_time": 121.91818181818181,
                "pitch": 57,
                "velocity": 51,
                "duration": 0.19999999999998863,
                "tempo": 120.0
            },
            {
                "start_time": 121.92045454545453,
                "end_time": 122.12045454545454,
                "pitch": 60,
                "velocity": 51,
                "duration": 0.20000000000000284,
                "tempo": 120.0
            },
            {
                "start_time": 122.12272727272726,
                "end_time": 122.32272727272726,
                "pitch": 64,
                "velocity": 51,
                "duration": 0.20000000000000284,
                "tempo": 120.0
            },
            {
                "start_time": 122.32272727272726,
                "end_time": 122.52272727272727,
                "pitch": 53,
                "velocity": 51,
                "duration": 0.20000000000000284,
                "tempo": 120.0
            },
            {
                "start_time": 122.52272727272727,
                "end_time": 122.72272727272727,
                "pitch": 57,
                "velocity": 51,
                "duration": 0.20000000000000284,
                "tempo": 120.0
            },
            {
                "start_time": 122.72272727272727,
                "end_time": 122.925,
                "pitch": 62,
                "velocity": 51,
                "duration": 0.20227272727272805,
                "tempo": 120.0
            },
            {
                "start_time": 122.925,
                "end_time": 123.125,
                "pitch": 65,
                "velocity": 51,
                "duration": 0.20000000000000284,
                "tempo": 120.0
            },
            {
                "start_time": 123.12727272727273,
                "end_time": 123.32499999999999,
                "pitch": 53,
                "velocity": 51,
                "duration": 0.19772727272726343,
                "tempo": 120.0
            },
            {
                "start_time": 123.32727272727273,
                "end_time": 123.52727272727272,
                "pitch": 57,
                "velocity": 51,
                "duration": 0.19999999999998863,
                "tempo": 120.0
            },
            {
                "start_time": 123.52727272727272,
                "end_time": 123.72727272727272,
                "pitch": 62,
                "velocity": 51,
                "duration": 0.20000000000000284,
                "tempo": 120.0
            },
            {
                "start_time": 123.72954545454544,
                "end_time": 123.92954545454545,
                "pitch": 65,
                "velocity": 51,
                "duration": 0.20000000000000284,
                "tempo": 120.0
            },
            {
                "start_time": 123.93181818181817,
                "end_time": 124.12954545454545,
                "pitch": 53,
                "velocity": 51,
                "duration": 0.19772727272727764,
                "tempo": 120.0
            },
            {
                "start_time": 124.13181818181818,
                "end_time": 124.33181818181818,
                "pitch": 57,
                "velocity": 51,
                "duration": 0.20000000000000284,
                "tempo": 120.0
            },
            {
                "start_time": 124.3340909090909,
                "end_time": 124.53181818181818,
                "pitch": 62,
                "velocity": 51,
                "duration": 0.19772727272727764,
                "tempo": 120.0
            },
            {
                "start_time": 124.5340909090909,
                "end_time": 124.73409090909091,
                "pitch": 65,
                "velocity": 51,
                "duration": 0.20000000000000284,
                "tempo": 120.0
            },
            {
                "start_time": 124.73636363636363,
                "end_time": 124.9340909090909,
                "pitch": 53,
                "velocity": 51,
                "duration": 0.19772727272726343,
                "tempo": 120.0
            },
            {
                "start_time": 124.93636363636364,
                "end_time": 125.13636363636363,
                "pitch": 57,
                "velocity": 51,
                "duration": 0.19999999999998863,
                "tempo": 120.0
            },
            {
                "start_time": 125.13636363636363,
                "end_time": 125.33636363636363,
                "pitch": 62,
                "velocity": 51,
                "duration": 0.20000000000000284,
                "tempo": 120.0
            },
            {
                "start_time": 125.33863636363635,
                "end_time": 125.53636363636363,
                "pitch": 65,
                "velocity": 51,
                "duration": 0.19772727272727764,
                "tempo": 120.0
            },
            {
                "start_time": 125.53863636363636,
                "end_time": 125.74318181818181,
                "pitch": 67,
                "velocity": 80,
                "duration": 0.20454545454545325,
                "tempo": 120.0
            },
            {
                "start_time": 125.74318181818181,
                "end_time": 125.94772727272726,
                "pitch": 67,
                "velocity": 80,
                "duration": 0.20454545454545325,
                "tempo": 120.0
            },
            {
                "start_time": 125.94772727272726,
                "end_time": 126.14772727272727,
                "pitch": 67,
                "velocity": 80,
                "duration": 0.20000000000000284,
                "tempo": 120.0
            },
            {
                "start_time": 126.14772727272727,
                "end_time": 126.34772727272727,
                "pitch": 67,
                "velocity": 80,
                "duration": 0.20000000000000284,
                "tempo": 120.0
            },
            {
                "start_time": 126.34772727272727,
                "end_time": 126.55,
                "pitch": 67,
                "velocity": 80,
                "duration": 0.20227272727272805,
                "tempo": 120.0
            },
            {
                "start_time": 126.55,
                "end_time": 126.75227272727273,
                "pitch": 67,
                "velocity": 80,
                "duration": 0.20227272727272805,
                "tempo": 120.0
            },
            {
                "start_time": 126.75454545454545,
                "end_time": 126.95454545454545,
                "pitch": 67,
                "velocity": 80,
                "duration": 0.20000000000000284,
                "tempo": 120.0
            },
            {
                "start_time": 126.95454545454545,
                "end_time": 127.35,
                "pitch": 71,
                "velocity": 80,
                "duration": 0.39545454545454106,
                "tempo": 120.0
            },
            {
                "start_time": 127.35,
                "end_time": 127.54772727272727,
                "pitch": 71,
                "velocity": 80,
                "duration": 0.19772727272727764,
                "tempo": 120.0
            },
            {
                "start_time": 127.54772727272727,
                "end_time": 127.75227272727273,
                "pitch": 71,
                "velocity": 80,
                "duration": 0.20454545454545325,
                "tempo": 120.0
            },
            {
                "start_time": 127.75227272727273,
                "end_time": 127.9590909090909,
                "pitch": 71,
                "velocity": 80,
                "duration": 0.20681818181817846,
                "tempo": 120.0
            },
            {
                "start_time": 127.9590909090909,
                "end_time": 128.1590909090909,
                "pitch": 71,
                "velocity": 80,
                "duration": 0.20000000000000284,
                "tempo": 120.0
            },
            {
                "start_time": 128.1590909090909,
                "end_time": 128.3590909090909,
                "pitch": 71,
                "velocity": 80,
                "duration": 0.19999999999998863,
                "tempo": 120.0
            },
            {
                "start_time": 128.3590909090909,
                "end_time": 128.76363636363635,
                "pitch": 71,
                "velocity": 80,
                "duration": 0.4045454545454561,
                "tempo": 120.0
            },
            {
                "start_time": 128.76590909090908,
                "end_time": 128.9659090909091,
                "pitch": 69,
                "velocity": 80,
                "duration": 0.20000000000001705,
                "tempo": 120.0
            },
            {
                "start_time": 128.96818181818182,
                "end_time": 129.16590909090908,
                "pitch": 69,
                "velocity": 80,
                "duration": 0.19772727272726343,
                "tempo": 120.0
            },
            {
                "start_time": 129.16590909090908,
                "end_time": 129.36818181818182,
                "pitch": 69,
                "velocity": 80,
                "duration": 0.20227272727274226,
                "tempo": 120.0
            },
            {
                "start_time": 129.36818181818182,
                "end_time": 129.57045454545454,
                "pitch": 69,
                "velocity": 80,
                "duration": 0.20227272727271384,
                "tempo": 120.0
            },
            {
                "start_time": 129.57045454545454,
                "end_time": 129.7681818181818,
                "pitch": 69,
                "velocity": 80,
                "duration": 0.19772727272726343,
                "tempo": 120.0
            },
            {
                "start_time": 129.77045454545453,
                "end_time": 129.97045454545454,
                "pitch": 69,
                "velocity": 80,
                "duration": 0.20000000000001705,
                "tempo": 120.0
            },
            {
                "start_time": 129.97045454545454,
                "end_time": 130.17045454545453,
                "pitch": 69,
                "velocity": 80,
                "duration": 0.19999999999998863,
                "tempo": 120.0
            },
            {
                "start_time": 130.17272727272726,
                "end_time": 130.375,
                "pitch": 69,
                "velocity": 80,
                "duration": 0.20227272727274226,
                "tempo": 120.0
            },
            {
                "start_time": 130.375,
                "end_time": 130.57272727272726,
                "pitch": 69,
                "velocity": 80,
                "duration": 0.19772727272726343,
                "tempo": 120.0
            },
            {
                "start_time": 130.575,
                "end_time": 130.775,
                "pitch": 69,
                "velocity": 80,
                "duration": 0.20000000000001705,
                "tempo": 120.0
            },
            {
                "start_time": 130.77727272727273,
                "end_time": 130.97727272727272,
                "pitch": 69,
                "velocity": 80,
                "duration": 0.19999999999998863,
                "tempo": 120.0
            },
            {
                "start_time": 130.97954545454544,
                "end_time": 131.17954545454546,
                "pitch": 69,
                "velocity": 80,
                "duration": 0.20000000000001705,
                "tempo": 120.0
            },
            {
                "start_time": 131.17954545454546,
                "end_time": 131.38181818181818,
                "pitch": 69,
                "velocity": 80,
                "duration": 0.20227272727271384,
                "tempo": 120.0
            },
            {
                "start_time": 131.38181818181818,
                "end_time": 131.58181818181816,
                "pitch": 69,
                "velocity": 80,
                "duration": 0.19999999999998863,
                "tempo": 120.0
            },
            {
                "start_time": 131.58181818181816,
                "end_time": 131.78181818181818,
                "pitch": 69,
                "velocity": 80,
                "duration": 0.20000000000001705,
                "tempo": 120.0
            },
            {
                "start_time": 131.7840909090909,
                "end_time": 131.9840909090909,
                "pitch": 69,
                "velocity": 80,
                "duration": 0.19999999999998863,
                "tempo": 120.0
            },
            {
                "start_time": 131.9840909090909,
                "end_time": 132.18863636363636,
                "pitch": 67,
                "velocity": 80,
                "duration": 0.20454545454546746,
                "tempo": 120.0
            },
            {
                "start_time": 132.1909090909091,
                "end_time": 132.3931818181818,
                "pitch": 67,
                "velocity": 80,
                "duration": 0.20227272727271384,
                "tempo": 120.0
            },
            {
                "start_time": 132.39545454545453,
                "end_time": 132.5909090909091,
                "pitch": 67,
                "velocity": 80,
                "duration": 0.19545454545456664,
                "tempo": 120.0
            },
            {
                "start_time": 132.5909090909091,
                "end_time": 132.78636363636363,
                "pitch": 67,
                "velocity": 80,
                "duration": 0.19545454545453822,
                "tempo": 120.0
            },
            {
                "start_time": 132.78863636363636,
                "end_time": 132.99090909090907,
                "pitch": 67,
                "velocity": 80,
                "duration": 0.20227272727271384,
                "tempo": 120.0
            },
            {
                "start_time": 132.99318181818182,
                "end_time": 133.19772727272726,
                "pitch": 67,
                "velocity": 80,
                "duration": 0.20454545454543904,
                "tempo": 120.0
            },
            {
                "start_time": 133.2,
                "end_time": 133.4,
                "pitch": 67,
                "velocity": 80,
                "duration": 0.20000000000001705,
                "tempo": 120.0
            },
            {
                "start_time": 133.4,
                "end_time": 133.60227272727272,
                "pitch": 67,
                "velocity": 80,
                "duration": 0.20227272727271384,
                "tempo": 120.0
            },
            {
                "start_time": 133.60454545454544,
                "end_time": 133.8022727272727,
                "pitch": 67,
                "velocity": 80,
                "duration": 0.19772727272726343,
                "tempo": 120.0
            },
            {
                "start_time": 133.80454545454546,
                "end_time": 134.00454545454545,
                "pitch": 67,
                "velocity": 80,
                "duration": 0.19999999999998863,
                "tempo": 120.0
            },
            {
                "start_time": 134.00454545454545,
                "end_time": 134.20454545454544,
                "pitch": 67,
                "velocity": 80,
                "duration": 0.19999999999998863,
                "tempo": 120.0
            },
            {
                "start_time": 134.20681818181816,
                "end_time": 134.40454545454546,
                "pitch": 67,
                "velocity": 80,
                "duration": 0.19772727272729185,
                "tempo": 120.0
            },
            {
                "start_time": 134.40454545454546,
                "end_time": 134.60681818181817,
                "pitch": 67,
                "velocity": 80,
                "duration": 0.20227272727271384,
                "tempo": 120.0
            },
            {
                "start_time": 134.60681818181817,
                "end_time": 134.8068181818182,
                "pitch": 67,
                "velocity": 80,
                "duration": 0.20000000000001705,
                "tempo": 120.0
            },
            {
                "start_time": 134.8090909090909,
                "end_time": 135.0090909090909,
                "pitch": 67,
                "velocity": 80,
                "duration": 0.19999999999998863,
                "tempo": 120.0
            },
            {
                "start_time": 135.01136363636363,
                "end_time": 135.21136363636364,
                "pitch": 67,
                "velocity": 80,
                "duration": 0.20000000000001705,
                "tempo": 120.0
            },
            {
                "start_time": 135.21363636363637,
                "end_time": 135.41363636363636,
                "pitch": 65,
                "velocity": 80,
                "duration": 0.19999999999998863,
                "tempo": 120.0
            },
            {
                "start_time": 135.41363636363636,
                "end_time": 135.61590909090907,
                "pitch": 65,
                "velocity": 80,
                "duration": 0.20227272727271384,
                "tempo": 120.0
            },
            {
                "start_time": 135.61590909090907,
                "end_time": 135.8159090909091,
                "pitch": 65,
                "velocity": 80,
                "duration": 0.20000000000001705,
                "tempo": 120.0
            },
            {
                "start_time": 135.8159090909091,
                "end_time": 136.0181818181818,
                "pitch": 65,
                "velocity": 80,
                "duration": 0.20227272727271384,
                "tempo": 120.0
            },
            {
                "start_time": 136.0181818181818,
                "end_time": 136.21818181818182,
                "pitch": 65,
                "velocity": 80,
                "duration": 0.20000000000001705,
                "tempo": 120.0
            },
            {
                "start_time": 136.21818181818182,
                "end_time": 136.4181818181818,
                "pitch": 65,
                "velocity": 80,
                "duration": 0.19999999999998863,
                "tempo": 120.0
            },
            {
                "start_time": 136.42045454545453,
                "end_time": 136.62045454545455,
                "pitch": 65,
                "velocity": 80,
                "duration": 0.20000000000001705,
                "tempo": 120.0
            },
            {
                "start_time": 136.62045454545455,
                "end_time": 136.82272727272726,
                "pitch": 65,
                "velocity": 80,
                "duration": 0.20227272727271384,
                "tempo": 120.0
            },
            {
                "start_time": 136.82272727272726,
                "end_time": 137.02272727272725,
                "pitch": 65,
                "velocity": 80,
                "duration": 0.19999999999998863,
                "tempo": 120.0
            },
            {
                "start_time": 137.02272727272725,
                "end_time": 137.225,
                "pitch": 65,
                "velocity": 80,
                "duration": 0.20227272727274226,
                "tempo": 120.0
            },
            {
                "start_time": 137.225,
                "end_time": 137.4272727272727,
                "pitch": 65,
                "velocity": 80,
                "duration": 0.20227272727271384,
                "tempo": 120.0
            },
            {
                "start_time": 137.4272727272727,
                "end_time": 137.62727272727273,
                "pitch": 65,
                "velocity": 80,
                "duration": 0.20000000000001705,
                "tempo": 120.0
            },
            {
                "start_time": 137.62954545454545,
                "end_time": 137.82954545454544,
                "pitch": 65,
                "velocity": 80,
                "duration": 0.19999999999998863,
                "tempo": 120.0
            },
            {
                "start_time": 137.82954545454544,
                "end_time": 138.03181818181818,
                "pitch": 65,
                "velocity": 80,
                "duration": 0.20227272727274226,
                "tempo": 120.0
            },
            {
                "start_time": 138.03181818181818,
                "end_time": 138.23181818181817,
                "pitch": 65,
                "velocity": 80,
                "duration": 0.19999999999998863,
                "tempo": 120.0
            },
            {
                "start_time": 138.23181818181817,
                "end_time": 138.4318181818182,
                "pitch": 65,
                "velocity": 80,
                "duration": 0.20000000000001705,
                "tempo": 120.0
            },
            {
                "start_time": 138.4340909090909,
                "end_time": 138.6340909090909,
                "pitch": 62,
                "velocity": 80,
                "duration": 0.19999999999998863,
                "tempo": 120.0
            },
            {
                "start_time": 138.6340909090909,
                "end_time": 138.8340909090909,
                "pitch": 62,
                "velocity": 80,
                "duration": 0.19999999999998863,
                "tempo": 120.0
            },
            {
                "start_time": 138.83636363636364,
                "end_time": 139.03636363636363,
                "pitch": 62,
                "velocity": 80,
                "duration": 0.19999999999998863,
                "tempo": 120.0
            },
            {
                "start_time": 139.03636363636363,
                "end_time": 139.23863636363635,
                "pitch": 62,
                "velocity": 80,
                "duration": 0.20227272727271384,
                "tempo": 120.0
            },
            {
                "start_time": 139.23863636363635,
                "end_time": 139.43863636363636,
                "pitch": 62,
                "velocity": 80,
                "duration": 0.20000000000001705,
                "tempo": 120.0
            },
            {
                "start_time": 139.4409090909091,
                "end_time": 139.64090909090908,
                "pitch": 62,
                "velocity": 80,
                "duration": 0.19999999999998863,
                "tempo": 120.0
            },
            {
                "start_time": 139.6431818181818,
                "end_time": 139.84318181818182,
                "pitch": 62,
                "velocity": 80,
                "duration": 0.20000000000001705,
                "tempo": 120.0
            },
            {
                "start_time": 139.84318181818182,
                "end_time": 140.04545454545453,
                "pitch": 62,
                "velocity": 80,
                "duration": 0.20227272727271384,
                "tempo": 120.0
            },
            {
                "start_time": 140.04545454545453,
                "end_time": 140.25,
                "pitch": 62,
                "velocity": 80,
                "duration": 0.20454545454546746,
                "tempo": 120.0
            },
            {
                "start_time": 140.25227272727273,
                "end_time": 140.45454545454544,
                "pitch": 62,
                "velocity": 80,
                "duration": 0.20227272727271384,
                "tempo": 120.0
            },
            {
                "start_time": 140.45454545454544,
                "end_time": 140.65,
                "pitch": 62,
                "velocity": 80,
                "duration": 0.19545454545456664,
                "tempo": 120.0
            },
            {
                "start_time": 140.65227272727273,
                "end_time": 140.84772727272727,
                "pitch": 62,
                "velocity": 80,
                "duration": 0.19545454545453822,
                "tempo": 120.0
            },
            {
                "start_time": 140.84772727272727,
                "end_time": 141.05454545454546,
                "pitch": 62,
                "velocity": 80,
                "duration": 0.20681818181819267,
                "tempo": 120.0
            },
            {
                "start_time": 141.05454545454546,
                "end_time": 141.2590909090909,
                "pitch": 62,
                "velocity": 80,
                "duration": 0.20454545454543904,
                "tempo": 120.0
            },
            {
                "start_time": 141.2590909090909,
                "end_time": 141.46136363636364,
                "pitch": 62,
                "velocity": 80,
                "duration": 0.20227272727274226,
                "tempo": 120.0
            },
            {
                "start_time": 141.46136363636364,
                "end_time": 141.66363636363636,
                "pitch": 62,
                "velocity": 80,
                "duration": 0.20227272727271384,
                "tempo": 120.0
            },
            {
                "start_time": 141.66363636363636,
                "end_time": 141.86590909090907,
                "pitch": 69,
                "velocity": 80,
                "duration": 0.20227272727271384,
                "tempo": 120.0
            },
            {
                "start_time": 141.86590909090907,
                "end_time": 142.0659090909091,
                "pitch": 69,
                "velocity": 80,
                "duration": 0.20000000000001705,
                "tempo": 120.0
            },
            {
                "start_time": 142.0681818181818,
                "end_time": 142.2681818181818,
                "pitch": 69,
                "velocity": 80,
                "duration": 0.19999999999998863,
                "tempo": 120.0
            },
            {
                "start_time": 142.2681818181818,
                "end_time": 142.47045454545454,
                "pitch": 69,
                "velocity": 80,
                "duration": 0.20227272727274226,
                "tempo": 120.0
            },
            {
                "start_time": 142.47045454545454,
                "end_time": 142.67045454545453,
                "pitch": 69,
                "velocity": 80,
                "duration": 0.19999999999998863,
                "tempo": 120.0
            },
            {
                "start_time": 142.67045454545453,
                "end_time": 142.87272727272727,
                "pitch": 69,
                "velocity": 80,
                "duration": 0.20227272727274226,
                "tempo": 120.0
            },
            {
                "start_time": 142.87272727272727,
                "end_time": 143.07272727272726,
                "pitch": 69,
                "velocity": 80,
                "duration": 0.19999999999998863,
                "tempo": 120.0
            },
            {
                "start_time": 143.07272727272726,
                "end_time": 143.275,
                "pitch": 69,
                "velocity": 80,
                "duration": 0.20227272727274226,
                "tempo": 120.0
            },
            {
                "start_time": 143.275,
                "end_time": 143.47272727272727,
                "pitch": 69,
                "velocity": 80,
                "duration": 0.19772727272726343,
                "tempo": 120.0
            },
            {
                "start_time": 143.475,
                "end_time": 143.67499999999998,
                "pitch": 69,
                "velocity": 80,
                "duration": 0.19999999999998863,
                "tempo": 120.0
            },
            {
                "start_time": 143.6772727272727,
                "end_time": 143.87727272727273,
                "pitch": 69,
                "velocity": 80,
                "duration": 0.20000000000001705,
                "tempo": 120.0
            },
            {
                "start_time": 143.87954545454545,
                "end_time": 144.07954545454544,
                "pitch": 69,
                "velocity": 80,
                "duration": 0.19999999999998863,
                "tempo": 120.0
            },
            {
                "start_time": 144.07954545454544,
                "end_time": 144.28181818181818,
                "pitch": 69,
                "velocity": 80,
                "duration": 0.20227272727274226,
                "tempo": 120.0
            },
            {
                "start_time": 144.28181818181818,
                "end_time": 144.48181818181817,
                "pitch": 69,
                "velocity": 80,
                "duration": 0.19999999999998863,
                "tempo": 120.0
            },
            {
                "start_time": 144.4840909090909,
                "end_time": 144.6840909090909,
                "pitch": 69,
                "velocity": 80,
                "duration": 0.20000000000001705,
                "tempo": 120.0
            },
            {
                "start_time": 144.6840909090909,
                "end_time": 144.88636363636363,
                "pitch": 69,
                "velocity": 80,
                "duration": 0.20227272727271384,
                "tempo": 120.0
            },
            {
                "start_time": 144.88636363636363,
                "end_time": 145.08636363636364,
                "pitch": 67,
                "velocity": 80,
                "duration": 0.20000000000001705,
                "tempo": 120.0
            },
            {
                "start_time": 145.08863636363637,
                "end_time": 145.28636363636363,
                "pitch": 67,
                "velocity": 80,
                "duration": 0.19772727272726343,
                "tempo": 120.0
            },
            {
                "start_time": 145.28636363636363,
                "end_time": 145.48863636363635,
                "pitch": 67,
                "velocity": 80,
                "duration": 0.20227272727271384,
                "tempo": 120.0
            },
            {
                "start_time": 145.48863636363635,
                "end_time": 145.68863636363636,
                "pitch": 67,
                "velocity": 80,
                "duration": 0.20000000000001705,
                "tempo": 120.0
            },
            {
                "start_time": 145.6909090909091,
                "end_time": 145.89090909090908,
                "pitch": 67,
                "velocity": 80,
                "duration": 0.19999999999998863,
                "tempo": 120.0
            },
            {
                "start_time": 145.89090909090908,
                "end_time": 146.09318181818182,
                "pitch": 67,
                "velocity": 80,
                "duration": 0.20227272727274226,
                "tempo": 120.0
            },
            {
                "start_time": 146.09318181818182,
                "end_time": 146.2931818181818,
                "pitch": 67,
                "velocity": 80,
                "duration": 0.19999999999998863,
                "tempo": 120.0
            },
            {
                "start_time": 146.29545454545453,
                "end_time": 146.49772727272727,
                "pitch": 67,
                "velocity": 80,
                "duration": 0.20227272727274226,
                "tempo": 120.0
            },
            {
                "start_time": 146.49772727272727,
                "end_time": 146.69772727272726,
                "pitch": 67,
                "velocity": 80,
                "duration": 0.19999999999998863,
                "tempo": 120.0
            },
            {
                "start_time": 146.69772727272726,
                "end_time": 146.89772727272725,
                "pitch": 67,
                "velocity": 80,
                "duration": 0.19999999999998863,
                "tempo": 120.0
            },
            {
                "start_time": 146.9,
                "end_time": 147.1,
                "pitch": 67,
                "velocity": 80,
                "duration": 0.19999999999998863,
                "tempo": 120.0
            },
            {
                "start_time": 147.1,
                "end_time": 147.29999999999998,
                "pitch": 67,
                "velocity": 80,
                "duration": 0.19999999999998863,
                "tempo": 120.0
            },
            {
                "start_time": 147.29999999999998,
                "end_time": 147.50227272727273,
                "pitch": 67,
                "velocity": 80,
                "duration": 0.20227272727274226,
                "tempo": 120.0
            },
            {
                "start_time": 147.50227272727273,
                "end_time": 147.7022727272727,
                "pitch": 67,
                "velocity": 80,
                "duration": 0.19999999999998863,
                "tempo": 120.0
            },
            {
                "start_time": 147.7022727272727,
                "end_time": 147.90454545454546,
                "pitch": 67,
                "velocity": 80,
                "duration": 0.20227272727274226,
                "tempo": 120.0
            },
            {
                "start_time": 147.90454545454546,
                "end_time": 148.10681818181817,
                "pitch": 67,
                "velocity": 80,
                "duration": 0.20227272727271384,
                "tempo": 120.0
            },
            {
                "start_time": 148.10681818181817,
                "end_time": 148.31136363636364,
                "pitch": 65,
                "velocity": 80,
                "duration": 0.20454545454546746,
                "tempo": 120.0
            },
            {
                "start_time": 148.31363636363636,
                "end_time": 148.5181818181818,
                "pitch": 65,
                "velocity": 80,
                "duration": 0.20454545454543904,
                "tempo": 120.0
            },
            {
                "start_time": 148.5181818181818,
                "end_time": 148.71818181818182,
                "pitch": 65,
                "velocity": 80,
                "duration": 0.20000000000001705,
                "tempo": 120.0
            },
            {
                "start_time": 148.72045454545454,
                "end_time": 148.92045454545453,
                "pitch": 65,
                "velocity": 80,
                "duration": 0.19999999999998863,
                "tempo": 120.0
            },
            {
                "start_time": 148.92272727272726,
                "end_time": 149.12272727272727,
                "pitch": 65,
                "velocity": 80,
                "duration": 0.20000000000001705,
                "tempo": 120.0
            },
            {
                "start_time": 149.12272727272727,
                "end_time": 149.325,
                "pitch": 65,
                "velocity": 80,
                "duration": 0.20227272727271384,
                "tempo": 120.0
            },
            {
                "start_time": 149.325,
                "end_time": 149.525,
                "pitch": 65,
                "velocity": 80,
                "duration": 0.20000000000001705,
                "tempo": 120.0
            },
            {
                "start_time": 149.525,
                "end_time": 149.72727272727272,
                "pitch": 65,
                "velocity": 80,
                "duration": 0.20227272727271384,
                "tempo": 120.0
            },
            {
                "start_time": 149.72954545454544,
                "end_time": 149.9272727272727,
                "pitch": 65,
                "velocity": 80,
                "duration": 0.19772727272726343,
                "tempo": 120.0
            },
            {
                "start_time": 149.9272727272727,
                "end_time": 150.12727272727273,
                "pitch": 65,
                "velocity": 80,
                "duration": 0.20000000000001705,
                "tempo": 120.0
            },
            {
                "start_time": 150.12727272727273,
                "end_time": 150.32954545454544,
                "pitch": 65,
                "velocity": 80,
                "duration": 0.20227272727271384,
                "tempo": 120.0
            },
            {
                "start_time": 150.32954545454544,
                "end_time": 150.52954545454546,
                "pitch": 65,
                "velocity": 80,
                "duration": 0.20000000000001705,
                "tempo": 120.0
            },
            {
                "start_time": 150.53181818181818,
                "end_time": 150.73181818181817,
                "pitch": 65,
                "velocity": 80,
                "duration": 0.19999999999998863,
                "tempo": 120.0
            },
            {
                "start_time": 150.7340909090909,
                "end_time": 150.9340909090909,
                "pitch": 65,
                "velocity": 80,
                "duration": 0.20000000000001705,
                "tempo": 120.0
            },
            {
                "start_time": 150.9340909090909,
                "end_time": 151.13636363636363,
                "pitch": 65,
                "velocity": 80,
                "duration": 0.20227272727271384,
                "tempo": 120.0
            },
            {
                "start_time": 151.13636363636363,
                "end_time": 151.33863636363637,
                "pitch": 65,
                "velocity": 80,
                "duration": 0.20227272727274226,
                "tempo": 120.0
            },
            {
                "start_time": 151.33863636363637,
                "end_time": 151.53863636363636,
                "pitch": 62,
                "velocity": 80,
                "duration": 0.19999999999998863,
                "tempo": 120.0
            },
            {
                "start_time": 151.54090909090908,
                "end_time": 151.74090909090907,
                "pitch": 62,
                "velocity": 80,
                "duration": 0.19999999999998863,
                "tempo": 120.0
            },
            {
                "start_time": 151.74090909090907,
                "end_time": 151.9409090909091,
                "pitch": 62,
                "velocity": 80,
                "duration": 0.20000000000001705,
                "tempo": 120.0
            },
            {
                "start_time": 151.9409090909091,
                "end_time": 152.14090909090908,
                "pitch": 62,
                "velocity": 80,
                "duration": 0.19999999999998863,
                "tempo": 120.0
            },
            {
                "start_time": 152.14090909090908,
                "end_time": 152.34318181818182,
                "pitch": 62,
                "velocity": 80,
                "duration": 0.20227272727274226,
                "tempo": 120.0
            },
            {
                "start_time": 152.34318181818182,
                "end_time": 152.54545454545453,
                "pitch": 62,
                "velocity": 80,
                "duration": 0.20227272727271384,
                "tempo": 120.0
            },
            {
                "start_time": 152.54545454545453,
                "end_time": 152.74545454545455,
                "pitch": 62,
                "velocity": 80,
                "duration": 0.20000000000001705,
                "tempo": 120.0
            },
            {
                "start_time": 152.74772727272727,
                "end_time": 152.94772727272726,
                "pitch": 62,
                "velocity": 80,
                "duration": 0.19999999999998863,
                "tempo": 120.0
            },
            {
                "start_time": 152.94772727272726,
                "end_time": 153.15,
                "pitch": 64,
                "velocity": 80,
                "duration": 0.20227272727274226,
                "tempo": 120.0
            },
            {
                "start_time": 153.15,
                "end_time": 153.5522727272727,
                "pitch": 69,
                "velocity": 80,
                "duration": 0.40227272727270247,
                "tempo": 120.0
            },
            {
                "start_time": 153.5522727272727,
                "end_time": 153.9522727272727,
                "pitch": 64,
                "velocity": 80,
                "duration": 0.4000000000000057,
                "tempo": 120.0
            },
            {
                "start_time": 153.95454545454544,
                "end_time": 154.35454545454544,
                "pitch": 60,
                "velocity": 80,
                "duration": 0.4000000000000057,
                "tempo": 120.0
            },
            {
                "start_time": 154.35681818181817,
                "end_time": 154.5590909090909,
                "pitch": 57,
                "velocity": 80,
                "duration": 0.20227272727274226,
                "tempo": 120.0
            },
            {
                "start_time": 154.56136363636364,
                "end_time": 155.7681818181818,
                "pitch": 62,
                "velocity": 64,
                "duration": 1.2068181818181642,
                "tempo": 120.0
            },
            {
                "start_time": 155.77045454545453,
                "end_time": 156.17045454545453,
                "pitch": 62,
                "velocity": 64,
                "duration": 0.4000000000000057,
                "tempo": 120.0
            },
            {
                "start_time": 156.17045454545453,
                "end_time": 156.375,
                "pitch": 70,
                "velocity": 64,
                "duration": 0.20454545454546746,
                "tempo": 120.0
            },
            {
                "start_time": 156.375,
                "end_time": 156.77727272727273,
                "pitch": 69,
                "velocity": 64,
                "duration": 0.4022727272727309,
                "tempo": 120.0
            },
            {
                "start_time": 156.77727272727273,
                "end_time": 157.37727272727273,
                "pitch": 67,
                "velocity": 64,
                "duration": 0.5999999999999943,
                "tempo": 120.0
            },
            {
                "start_time": 157.37727272727273,
                "end_time": 157.78863636363636,
                "pitch": 63,
                "velocity": 64,
                "duration": 0.4113636363636317,
                "tempo": 120.0
            },
            {
                "start_time": 157.78863636363636,
                "end_time": 158.59318181818182,
                "pitch": 67,
                "velocity": 64,
                "duration": 0.8045454545454618,
                "tempo": 120.0
            },
            {
                "start_time": 158.59318181818182,
                "end_time": 161.01136363636363,
                "pitch": 65,
                "velocity": 64,
                "duration": 2.4181818181818073,
                "tempo": 120.0
            },
            {
                "start_time": 161.01136363636363,
                "end_time": 162.61818181818182,
                "pitch": 62,
                "velocity": 64,
                "duration": 1.6068181818181984,
                "tempo": 120.0
            },
            {
                "start_time": 162.62045454545455,
                "end_time": 162.82045454545454,
                "pitch": 70,
                "velocity": 64,
                "duration": 0.19999999999998863,
                "tempo": 120.0
            },
            {
                "start_time": 162.82045454545454,
                "end_time": 163.225,
                "pitch": 69,
                "velocity": 64,
                "duration": 0.4045454545454561,
                "tempo": 120.0
            },
            {
                "start_time": 163.225,
                "end_time": 163.8272727272727,
                "pitch": 67,
                "velocity": 64,
                "duration": 0.6022727272727195,
                "tempo": 120.0
            },
            {
                "start_time": 163.82954545454544,
                "end_time": 164.24090909090907,
                "pitch": 77,
                "velocity": 64,
                "duration": 0.4113636363636317,
                "tempo": 120.0
            },
            {
                "start_time": 164.24318181818182,
                "end_time": 167.4590909090909,
                "pitch": 79,
                "velocity": 64,
                "duration": 3.215909090909065,
                "tempo": 120.0
            },
            {
                "start_time": 167.46136363636361,
                "end_time": 168.66590909090908,
                "pitch": 57,
                "velocity": 64,
                "duration": 1.2045454545454675,
                "tempo": 120.0
            },
            {
                "start_time": 168.66590909090908,
                "end_time": 169.0681818181818,
                "pitch": 57,
                "velocity": 64,
                "duration": 0.4022727272727309,
                "tempo": 120.0
            },
            {
                "start_time": 169.07045454545454,
                "end_time": 169.67045454545453,
                "pitch": 55,
                "velocity": 64,
                "duration": 0.5999999999999943,
                "tempo": 120.0
            },
            {
                "start_time": 169.67272727272726,
                "end_time": 170.275,
                "pitch": 53,
                "velocity": 64,
                "duration": 0.6022727272727479,
                "tempo": 120.0
            },
            {
                "start_time": 170.27727272727273,
                "end_time": 170.67954545454543,
                "pitch": 55,
                "velocity": 64,
                "duration": 0.40227272727270247,
                "tempo": 120.0
            },
            {
                "start_time": 170.67954545454543,
                "end_time": 171.28181818181818,
                "pitch": 57,
                "velocity": 64,
                "duration": 0.6022727272727479,
                "tempo": 120.0
            },
            {
                "start_time": 171.28181818181818,
                "end_time": 171.88636363636363,
                "pitch": 55,
                "velocity": 64,
                "duration": 0.6045454545454447,
                "tempo": 120.0
            },
            {
                "start_time": 171.88636363636363,
                "end_time": 172.0909090909091,
                "pitch": 57,
                "velocity": 64,
                "duration": 0.20454545454546746,
                "tempo": 120.0
            },
            {
                "start_time": 172.0909090909091,
                "end_time": 172.68863636363636,
                "pitch": 67,
                "velocity": 64,
                "duration": 0.5977272727272691,
                "tempo": 120.0
            },
            {
                "start_time": 172.68863636363636,
                "end_time": 173.1,
                "pitch": 65,
                "velocity": 64,
                "duration": 0.4113636363636317,
                "tempo": 120.0
            },
            {
                "start_time": 173.1,
                "end_time": 173.50454545454545,
                "pitch": 64,
                "velocity": 64,
                "duration": 0.4045454545454561,
                "tempo": 120.0
            },
            {
                "start_time": 173.50454545454545,
                "end_time": 173.90454545454546,
                "pitch": 62,
                "velocity": 64,
                "duration": 0.4000000000000057,
                "tempo": 120.0
            },
            {
                "start_time": 173.90454545454546,
                "end_time": 175.11363636363635,
                "pitch": 57,
                "velocity": 64,
                "duration": 1.2090909090908895,
                "tempo": 120.0
            },
            {
                "start_time": 175.11590909090907,
                "end_time": 175.5181818181818,
                "pitch": 57,
                "velocity": 64,
                "duration": 0.4022727272727309,
                "tempo": 120.0
            },
            {
                "start_time": 175.5181818181818,
                "end_time": 176.32045454545454,
                "pitch": 55,
                "velocity": 64,
                "duration": 0.8022727272727366,
                "tempo": 120.0
            },
            {
                "start_time": 176.32045454545454,
                "end_time": 177.12727272727273,
                "pitch": 53,
                "velocity": 64,
                "duration": 0.806818181818187,
                "tempo": 120.0
            },
            {
                "start_time": 177.12954545454545,
                "end_time": 177.73181818181817,
                "pitch": 57,
                "velocity": 64,
                "duration": 0.6022727272727195,
                "tempo": 120.0
            },
            {
                "start_time": 177.73181818181817,
                "end_time": 178.73863636363635,
                "pitch": 57,
                "velocity": 64,
                "duration": 1.0068181818181756,
                "tempo": 120.0
            },
            {
                "start_time": 178.73863636363635,
                "end_time": 178.93863636363636,
                "pitch": 57,
                "velocity": 64,
                "duration": 0.20000000000001705,
                "tempo": 120.0
            },
            {
                "start_time": 178.9409090909091,
                "end_time": 179.3409090909091,
                "pitch": 81,
                "velocity": 64,
                "duration": 0.4000000000000057,
                "tempo": 120.0
            },
            {
                "start_time": 179.34318181818182,
                "end_time": 179.7431818181818,
                "pitch": 69,
                "velocity": 64,
                "duration": 0.39999999999997726,
                "tempo": 120.0
            }
        ],
        "Acoustic Bass": [
            {
                "start_time": 12.897727272727272,
                "end_time": 16.120454545454546,
                "pitch": 40,
                "velocity": 80,
                "duration": 3.2227272727272744,
                "tempo": 120.0
            },
            {
                "start_time": 16.120454545454546,
                "end_time": 16.922727272727272,
                "pitch": 45,
                "velocity": 80,
                "duration": 0.8022727272727259,
                "tempo": 120.0
            },
            {
                "start_time": 16.922727272727272,
                "end_time": 19.34318181818182,
                "pitch": 43,
                "velocity": 80,
                "duration": 2.4204545454545467,
                "tempo": 120.0
            },
            {
                "start_time": 19.34318181818182,
                "end_time": 22.154545454545453,
                "pitch": 40,
                "velocity": 80,
                "duration": 2.811363636363634,
                "tempo": 120.0
            },
            {
                "start_time": 22.154545454545453,
                "end_time": 22.554545454545455,
                "pitch": 43,
                "velocity": 80,
                "duration": 0.40000000000000213,
                "tempo": 120.0
            },
            {
                "start_time": 22.55681818181818,
                "end_time": 25.77272727272727,
                "pitch": 45,
                "velocity": 80,
                "duration": 3.21590909090909,
                "tempo": 120.0
            },
            {
                "start_time": 25.775,
                "end_time": 25.972727272727273,
                "pitch": 33,
                "velocity": 80,
                "duration": 0.19772727272727408,
                "tempo": 120.0
            },
            {
                "start_time": 25.972727272727273,
                "end_time": 26.172727272727272,
                "pitch": 33,
                "velocity": 80,
                "duration": 0.1999999999999993,
                "tempo": 120.0
            },
            {
                "start_time": 26.174999999999997,
                "end_time": 26.379545454545454,
                "pitch": 33,
                "velocity": 80,
                "duration": 0.2045454545454568,
                "tempo": 120.0
            },
            {
                "start_time": 26.379545454545454,
                "end_time": 26.586363636363636,
                "pitch": 33,
                "velocity": 80,
                "duration": 0.206818181818182,
                "tempo": 120.0
            },
            {
                "start_time": 26.586363636363636,
                "end_time": 26.784090909090907,
                "pitch": 33,
                "velocity": 80,
                "duration": 0.19772727272727053,
                "tempo": 120.0
            },
            {
                "start_time": 26.786363636363635,
                "end_time": 26.986363636363635,
                "pitch": 33,
                "velocity": 80,
                "duration": 0.1999999999999993,
                "tempo": 120.0
            },
            {
                "start_time": 26.986363636363635,
                "end_time": 27.188636363636363,
                "pitch": 33,
                "velocity": 80,
                "duration": 0.20227272727272805,
                "tempo": 120.0
            },
            {
                "start_time": 27.188636363636363,
                "end_time": 27.388636363636362,
                "pitch": 33,
                "velocity": 80,
                "duration": 0.1999999999999993,
                "tempo": 120.0
            },
            {
                "start_time": 27.39090909090909,
                "end_time": 27.58863636363636,
                "pitch": 33,
                "velocity": 80,
                "duration": 0.19772727272727053,
                "tempo": 120.0
            },
            {
                "start_time": 27.58863636363636,
                "end_time": 27.788636363636364,
                "pitch": 33,
                "velocity": 80,
                "duration": 0.20000000000000284,
                "tempo": 120.0
            },
            {
                "start_time": 27.79090909090909,
                "end_time": 27.99090909090909,
                "pitch": 33,
                "velocity": 80,
                "duration": 0.1999999999999993,
                "tempo": 120.0
            },
            {
                "start_time": 27.99090909090909,
                "end_time": 28.190909090909088,
                "pitch": 33,
                "velocity": 80,
                "duration": 0.1999999999999993,
                "tempo": 120.0
            },
            {
                "start_time": 28.190909090909088,
                "end_time": 28.393181818181816,
                "pitch": 33,
                "velocity": 80,
                "duration": 0.20227272727272805,
                "tempo": 120.0
            },
            {
                "start_time": 28.393181818181816,
                "end_time": 28.593181818181815,
                "pitch": 33,
                "velocity": 80,
                "duration": 0.1999999999999993,
                "tempo": 120.0
            },
            {
                "start_time": 28.595454545454544,
                "end_time": 28.795454545454543,
                "pitch": 33,
                "velocity": 80,
                "duration": 0.1999999999999993,
                "tempo": 120.0
            },
            {
                "start_time": 28.795454545454543,
                "end_time": 28.995454545454542,
                "pitch": 33,
                "velocity": 80,
                "duration": 0.1999999999999993,
                "tempo": 120.0
            },
            {
                "start_time": 28.995454545454542,
                "end_time": 29.195454545454545,
                "pitch": 33,
                "velocity": 80,
                "duration": 0.20000000000000284,
                "tempo": 120.0
            },
            {
                "start_time": 29.19772727272727,
                "end_time": 29.395454545454545,
                "pitch": 33,
                "velocity": 80,
                "duration": 0.19772727272727408,
                "tempo": 120.0
            },
            {
                "start_time": 29.39772727272727,
                "end_time": 29.597727272727273,
                "pitch": 33,
                "velocity": 80,
                "duration": 0.20000000000000284,
                "tempo": 120.0
            },
            {
                "start_time": 29.597727272727273,
                "end_time": 29.797727272727272,
                "pitch": 33,
                "velocity": 80,
                "duration": 0.1999999999999993,
                "tempo": 120.0
            },
            {
                "start_time": 29.797727272727272,
                "end_time": 29.99772727272727,
                "pitch": 33,
                "velocity": 80,
                "duration": 0.1999999999999993,
                "tempo": 120.0
            },
            {
                "start_time": 29.99772727272727,
                "end_time": 30.2,
                "pitch": 33,
                "velocity": 80,
                "duration": 0.20227272727272805,
                "tempo": 120.0
            },
            {
                "start_time": 30.2,
                "end_time": 30.4,
                "pitch": 33,
                "velocity": 80,
                "duration": 0.1999999999999993,
                "tempo": 120.0
            },
            {
                "start_time": 30.4,
                "end_time": 30.599999999999998,
                "pitch": 33,
                "velocity": 80,
                "duration": 0.1999999999999993,
                "tempo": 120.0
            },
            {
                "start_time": 30.602272727272727,
                "end_time": 30.799999999999997,
                "pitch": 33,
                "velocity": 80,
                "duration": 0.19772727272727053,
                "tempo": 120.0
            },
            {
                "start_time": 30.802272727272726,
                "end_time": 31.0,
                "pitch": 33,
                "velocity": 80,
                "duration": 0.19772727272727408,
                "tempo": 120.0
            },
            {
                "start_time": 31.002272727272725,
                "end_time": 31.202272727272724,
                "pitch": 33,
                "velocity": 80,
                "duration": 0.1999999999999993,
                "tempo": 120.0
            },
            {
                "start_time": 31.204545454545453,
                "end_time": 31.404545454545453,
                "pitch": 33,
                "velocity": 80,
                "duration": 0.1999999999999993,
                "tempo": 120.0
            },
            {
                "start_time": 31.404545454545453,
                "end_time": 31.611363636363635,
                "pitch": 33,
                "velocity": 80,
                "duration": 0.206818181818182,
                "tempo": 120.0
            },
            {
                "start_time": 31.611363636363635,
                "end_time": 31.818181818181817,
                "pitch": 33,
                "velocity": 80,
                "duration": 0.206818181818182,
                "tempo": 120.0
            },
            {
                "start_time": 31.818181818181817,
                "end_time": 32.018181818181816,
                "pitch": 33,
                "velocity": 80,
                "duration": 0.1999999999999993,
                "tempo": 120.0
            },
            {
                "start_time": 32.018181818181816,
                "end_time": 32.21818181818182,
                "pitch": 33,
                "velocity": 80,
                "duration": 0.20000000000000284,
                "tempo": 120.0
            },
            {
                "start_time": 32.220454545454544,
                "end_time": 32.418181818181814,
                "pitch": 33,
                "velocity": 80,
                "duration": 0.19772727272727053,
                "tempo": 120.0
            },
            {
                "start_time": 32.42045454545455,
                "end_time": 32.62045454545454,
                "pitch": 33,
                "velocity": 80,
                "duration": 0.19999999999999574,
                "tempo": 120.0
            },
            {
                "start_time": 32.62045454545454,
                "end_time": 32.820454545454545,
                "pitch": 33,
                "velocity": 80,
                "duration": 0.20000000000000284,
                "tempo": 120.0
            },
            {
                "start_time": 32.820454545454545,
                "end_time": 33.02045454545454,
                "pitch": 33,
                "velocity": 80,
                "duration": 0.19999999999999574,
                "tempo": 120.0
            },
            {
                "start_time": 33.02272727272727,
                "end_time": 33.215909090909086,
                "pitch": 33,
                "velocity": 80,
                "duration": 0.19318181818181301,
                "tempo": 120.0
            },
            {
                "start_time": 33.215909090909086,
                "end_time": 33.413636363636364,
                "pitch": 33,
                "velocity": 80,
                "duration": 0.19772727272727764,
                "tempo": 120.0
            },
            {
                "start_time": 33.413636363636364,
                "end_time": 33.62045454545454,
                "pitch": 33,
                "velocity": 80,
                "duration": 0.20681818181817846,
                "tempo": 120.0
            },
            {
                "start_time": 33.62045454545454,
                "end_time": 33.824999999999996,
                "pitch": 33,
                "velocity": 80,
                "duration": 0.20454545454545325,
                "tempo": 120.0
            },
            {
                "start_time": 33.824999999999996,
                "end_time": 34.025,
                "pitch": 33,
                "velocity": 80,
                "duration": 0.20000000000000284,
                "tempo": 120.0
            },
            {
                "start_time": 34.025,
                "end_time": 34.225,
                "pitch": 33,
                "velocity": 80,
                "duration": 0.20000000000000284,
                "tempo": 120.0
            },
            {
                "start_time": 34.225,
                "end_time": 34.42727272727272,
                "pitch": 33,
                "velocity": 80,
                "duration": 0.20227272727272094,
                "tempo": 120.0
            },
            {
                "start_time": 34.42727272727272,
                "end_time": 34.627272727272725,
                "pitch": 33,
                "velocity": 80,
                "duration": 0.20000000000000284,
                "tempo": 120.0
            },
            {
                "start_time": 34.62954545454545,
                "end_time": 34.82954545454545,
                "pitch": 33,
                "velocity": 80,
                "duration": 0.20000000000000284,
                "tempo": 120.0
            },
            {
                "start_time": 34.82954545454545,
                "end_time": 35.029545454545456,
                "pitch": 33,
                "velocity": 80,
                "duration": 0.20000000000000284,
                "tempo": 120.0
            },
            {
                "start_time": 35.029545454545456,
                "end_time": 35.22954545454545,
                "pitch": 33,
                "velocity": 80,
                "duration": 0.19999999999999574,
                "tempo": 120.0
            },
            {
                "start_time": 35.23181818181818,
                "end_time": 35.43181818181818,
                "pitch": 33,
                "velocity": 80,
                "duration": 0.20000000000000284,
                "tempo": 120.0
            },
            {
                "start_time": 35.43181818181818,
                "end_time": 35.62954545454545,
                "pitch": 33,
                "velocity": 80,
                "duration": 0.19772727272727053,
                "tempo": 120.0
            },
            {
                "start_time": 35.63181818181818,
                "end_time": 35.82954545454545,
                "pitch": 33,
                "velocity": 80,
                "duration": 0.19772727272727053,
                "tempo": 120.0
            },
            {
                "start_time": 35.82954545454545,
                "end_time": 36.03181818181818,
                "pitch": 33,
                "velocity": 80,
                "duration": 0.20227272727272805,
                "tempo": 120.0
            },
            {
                "start_time": 36.03181818181818,
                "end_time": 36.23181818181818,
                "pitch": 33,
                "velocity": 80,
                "duration": 0.19999999999999574,
                "tempo": 120.0
            },
            {
                "start_time": 36.23181818181818,
                "end_time": 36.43181818181818,
                "pitch": 33,
                "velocity": 80,
                "duration": 0.20000000000000284,
                "tempo": 120.0
            },
            {
                "start_time": 36.43181818181818,
                "end_time": 36.63409090909091,
                "pitch": 33,
                "velocity": 80,
                "duration": 0.20227272727272805,
                "tempo": 120.0
            },
            {
                "start_time": 36.63409090909091,
                "end_time": 36.83409090909091,
                "pitch": 33,
                "velocity": 80,
                "duration": 0.20000000000000284,
                "tempo": 120.0
            },
            {
                "start_time": 36.83409090909091,
                "end_time": 37.03409090909091,
                "pitch": 33,
                "velocity": 80,
                "duration": 0.19999999999999574,
                "tempo": 120.0
            },
            {
                "start_time": 37.03636363636363,
                "end_time": 37.23409090909091,
                "pitch": 33,
                "velocity": 80,
                "duration": 0.19772727272727764,
                "tempo": 120.0
            },
            {
                "start_time": 37.23409090909091,
                "end_time": 37.434090909090905,
                "pitch": 33,
                "velocity": 80,
                "duration": 0.19999999999999574,
                "tempo": 120.0
            },
            {
                "start_time": 37.434090909090905,
                "end_time": 37.63409090909091,
                "pitch": 33,
                "velocity": 80,
                "duration": 0.20000000000000284,
                "tempo": 120.0
            },
            {
                "start_time": 37.63409090909091,
                "end_time": 37.83409090909091,
                "pitch": 33,
                "velocity": 80,
                "duration": 0.20000000000000284,
                "tempo": 120.0
            },
            {
                "start_time": 37.836363636363636,
                "end_time": 38.03409090909091,
                "pitch": 33,
                "velocity": 80,
                "duration": 0.19772727272727053,
                "tempo": 120.0
            },
            {
                "start_time": 38.03636363636363,
                "end_time": 38.23409090909091,
                "pitch": 33,
                "velocity": 80,
                "duration": 0.19772727272727764,
                "tempo": 120.0
            },
            {
                "start_time": 38.236363636363635,
                "end_time": 38.43636363636364,
                "pitch": 33,
                "velocity": 80,
                "duration": 0.20000000000000284,
                "tempo": 120.0
            },
            {
                "start_time": 38.43636363636364,
                "end_time": 38.63863636363636,
                "pitch": 33,
                "velocity": 80,
                "duration": 0.20227272727272094,
                "tempo": 120.0
            },
            {
                "start_time": 38.64090909090909,
                "end_time": 38.840909090909086,
                "pitch": 33,
                "velocity": 80,
                "duration": 0.19999999999999574,
                "tempo": 120.0
            },
            {
                "start_time": 38.840909090909086,
                "end_time": 39.038636363636364,
                "pitch": 33,
                "velocity": 80,
                "duration": 0.19772727272727764,
                "tempo": 120.0
            },
            {
                "start_time": 39.038636363636364,
                "end_time": 39.23863636363636,
                "pitch": 33,
                "velocity": 80,
                "duration": 0.19999999999999574,
                "tempo": 120.0
            },
            {
                "start_time": 39.24090909090909,
                "end_time": 39.44090909090909,
                "pitch": 33,
                "velocity": 80,
                "duration": 0.19999999999999574,
                "tempo": 120.0
            },
            {
                "start_time": 39.44090909090909,
                "end_time": 39.63863636363636,
                "pitch": 33,
                "velocity": 80,
                "duration": 0.19772727272727053,
                "tempo": 120.0
            },
            {
                "start_time": 39.64090909090909,
                "end_time": 39.840909090909086,
                "pitch": 33,
                "velocity": 80,
                "duration": 0.19999999999999574,
                "tempo": 120.0
            },
            {
                "start_time": 39.840909090909086,
                "end_time": 40.04090909090909,
                "pitch": 33,
                "velocity": 80,
                "duration": 0.20000000000000284,
                "tempo": 120.0
            },
            {
                "start_time": 40.04090909090909,
                "end_time": 40.24090909090909,
                "pitch": 33,
                "velocity": 80,
                "duration": 0.20000000000000284,
                "tempo": 120.0
            },
            {
                "start_time": 40.24090909090909,
                "end_time": 40.44090909090909,
                "pitch": 33,
                "velocity": 80,
                "duration": 0.19999999999999574,
                "tempo": 120.0
            },
            {
                "start_time": 40.44318181818181,
                "end_time": 40.643181818181816,
                "pitch": 33,
                "velocity": 80,
                "duration": 0.20000000000000284,
                "tempo": 120.0
            },
            {
                "start_time": 40.64545454545454,
                "end_time": 40.85,
                "pitch": 33,
                "velocity": 80,
                "duration": 0.20454545454546036,
                "tempo": 120.0
            },
            {
                "start_time": 40.85,
                "end_time": 41.054545454545455,
                "pitch": 33,
                "velocity": 80,
                "duration": 0.20454545454545325,
                "tempo": 120.0
            },
            {
                "start_time": 41.05681818181818,
                "end_time": 41.25681818181818,
                "pitch": 33,
                "velocity": 80,
                "duration": 0.20000000000000284,
                "tempo": 120.0
            },
            {
                "start_time": 41.25681818181818,
                "end_time": 41.45681818181818,
                "pitch": 33,
                "velocity": 80,
                "duration": 0.19999999999999574,
                "tempo": 120.0
            },
            {
                "start_time": 41.459090909090904,
                "end_time": 41.65909090909091,
                "pitch": 33,
                "velocity": 80,
                "duration": 0.20000000000000284,
                "tempo": 120.0
            },
            {
                "start_time": 41.65909090909091,
                "end_time": 41.861363636363635,
                "pitch": 33,
                "velocity": 80,
                "duration": 0.20227272727272805,
                "tempo": 120.0
            },
            {
                "start_time": 41.861363636363635,
                "end_time": 42.059090909090905,
                "pitch": 33,
                "velocity": 80,
                "duration": 0.19772727272727053,
                "tempo": 120.0
            },
            {
                "start_time": 42.06136363636364,
                "end_time": 42.25909090909091,
                "pitch": 33,
                "velocity": 80,
                "duration": 0.19772727272727053,
                "tempo": 120.0
            },
            {
                "start_time": 42.25909090909091,
                "end_time": 42.459090909090904,
                "pitch": 33,
                "velocity": 80,
                "duration": 0.19999999999999574,
                "tempo": 120.0
            },
            {
                "start_time": 42.461363636363636,
                "end_time": 42.66136363636363,
                "pitch": 33,
                "velocity": 80,
                "duration": 0.19999999999999574,
                "tempo": 120.0
            },
            {
                "start_time": 42.66136363636363,
                "end_time": 42.861363636363635,
                "pitch": 33,
                "velocity": 80,
                "duration": 0.20000000000000284,
                "tempo": 120.0
            },
            {
                "start_time": 42.861363636363635,
                "end_time": 43.06136363636364,
                "pitch": 33,
                "velocity": 80,
                "duration": 0.20000000000000284,
                "tempo": 120.0
            },
            {
                "start_time": 43.06363636363636,
                "end_time": 43.26136363636363,
                "pitch": 33,
                "velocity": 80,
                "duration": 0.19772727272727053,
                "tempo": 120.0
            },
            {
                "start_time": 43.26136363636363,
                "end_time": 43.461363636363636,
                "pitch": 33,
                "velocity": 80,
                "duration": 0.20000000000000284,
                "tempo": 120.0
            },
            {
                "start_time": 43.46363636363636,
                "end_time": 43.66136363636363,
                "pitch": 33,
                "velocity": 80,
                "duration": 0.19772727272727053,
                "tempo": 120.0
            },
            {
                "start_time": 43.663636363636364,
                "end_time": 43.86363636363636,
                "pitch": 33,
                "velocity": 80,
                "duration": 0.19999999999999574,
                "tempo": 120.0
            },
            {
                "start_time": 43.86590909090909,
                "end_time": 44.06363636363636,
                "pitch": 33,
                "velocity": 80,
                "duration": 0.19772727272727053,
                "tempo": 120.0
            },
            {
                "start_time": 44.06590909090909,
                "end_time": 44.26363636363636,
                "pitch": 33,
                "velocity": 80,
                "duration": 0.19772727272727053,
                "tempo": 120.0
            },
            {
                "start_time": 44.26590909090909,
                "end_time": 44.465909090909086,
                "pitch": 33,
                "velocity": 80,
                "duration": 0.19999999999999574,
                "tempo": 120.0
            },
            {
                "start_time": 44.465909090909086,
                "end_time": 44.66590909090909,
                "pitch": 33,
                "velocity": 80,
                "duration": 0.20000000000000284,
                "tempo": 120.0
            },
            {
                "start_time": 44.668181818181814,
                "end_time": 44.86818181818182,
                "pitch": 33,
                "velocity": 80,
                "duration": 0.20000000000000284,
                "tempo": 120.0
            },
            {
                "start_time": 44.86818181818182,
                "end_time": 45.06818181818181,
                "pitch": 33,
                "velocity": 80,
                "duration": 0.19999999999999574,
                "tempo": 120.0
            },
            {
                "start_time": 45.06818181818181,
                "end_time": 45.26590909090909,
                "pitch": 33,
                "velocity": 80,
                "duration": 0.19772727272727764,
                "tempo": 120.0
            },
            {
                "start_time": 45.268181818181816,
                "end_time": 45.465909090909086,
                "pitch": 33,
                "velocity": 80,
                "duration": 0.19772727272727053,
                "tempo": 120.0
            },
            {
                "start_time": 45.46818181818182,
                "end_time": 45.668181818181814,
                "pitch": 33,
                "velocity": 80,
                "duration": 0.19999999999999574,
                "tempo": 120.0
            },
            {
                "start_time": 45.67045454545455,
                "end_time": 45.87045454545454,
                "pitch": 33,
                "velocity": 80,
                "duration": 0.19999999999999574,
                "tempo": 120.0
            },
            {
                "start_time": 45.87045454545454,
                "end_time": 46.070454545454545,
                "pitch": 33,
                "velocity": 80,
                "duration": 0.20000000000000284,
                "tempo": 120.0
            },
            {
                "start_time": 46.070454545454545,
                "end_time": 46.27045454545454,
                "pitch": 33,
                "velocity": 80,
                "duration": 0.19999999999999574,
                "tempo": 120.0
            },
            {
                "start_time": 46.27272727272727,
                "end_time": 46.470454545454544,
                "pitch": 33,
                "velocity": 80,
                "duration": 0.19772727272727053,
                "tempo": 120.0
            },
            {
                "start_time": 46.47272727272727,
                "end_time": 46.67272727272727,
                "pitch": 33,
                "velocity": 80,
                "duration": 0.20000000000000284,
                "tempo": 120.0
            },
            {
                "start_time": 46.67272727272727,
                "end_time": 46.877272727272725,
                "pitch": 33,
                "velocity": 80,
                "duration": 0.20454545454545325,
                "tempo": 120.0
            },
            {
                "start_time": 46.877272727272725,
                "end_time": 47.084090909090904,
                "pitch": 33,
                "velocity": 80,
                "duration": 0.20681818181817846,
                "tempo": 120.0
            },
            {
                "start_time": 47.084090909090904,
                "end_time": 47.28409090909091,
                "pitch": 33,
                "velocity": 80,
                "duration": 0.20000000000000284,
                "tempo": 120.0
            },
            {
                "start_time": 47.28636363636363,
                "end_time": 47.486363636363635,
                "pitch": 33,
                "velocity": 80,
                "duration": 0.20000000000000284,
                "tempo": 120.0
            },
            {
                "start_time": 47.486363636363635,
                "end_time": 47.68181818181818,
                "pitch": 33,
                "velocity": 80,
                "duration": 0.19545454545454533,
                "tempo": 120.0
            },
            {
                "start_time": 47.684090909090905,
                "end_time": 47.87954545454545,
                "pitch": 33,
                "velocity": 80,
                "duration": 0.19545454545454533,
                "tempo": 120.0
            },
            {
                "start_time": 47.87954545454545,
                "end_time": 48.07954545454545,
                "pitch": 33,
                "velocity": 80,
                "duration": 0.20000000000000284,
                "tempo": 120.0
            },
            {
                "start_time": 48.07954545454545,
                "end_time": 48.27954545454545,
                "pitch": 33,
                "velocity": 80,
                "duration": 0.19999999999999574,
                "tempo": 120.0
            },
            {
                "start_time": 48.28181818181818,
                "end_time": 48.48409090909091,
                "pitch": 33,
                "velocity": 80,
                "duration": 0.20227272727272805,
                "tempo": 120.0
            },
            {
                "start_time": 48.48409090909091,
                "end_time": 48.68863636363636,
                "pitch": 33,
                "velocity": 80,
                "duration": 0.20454545454545325,
                "tempo": 120.0
            },
            {
                "start_time": 48.69090909090909,
                "end_time": 48.89090909090909,
                "pitch": 33,
                "velocity": 80,
                "duration": 0.20000000000000284,
                "tempo": 120.0
            },
            {
                "start_time": 48.89090909090909,
                "end_time": 49.090909090909086,
                "pitch": 33,
                "velocity": 80,
                "duration": 0.19999999999999574,
                "tempo": 120.0
            },
            {
                "start_time": 49.090909090909086,
                "end_time": 49.29090909090909,
                "pitch": 33,
                "velocity": 80,
                "duration": 0.20000000000000284,
                "tempo": 120.0
            },
            {
                "start_time": 49.293181818181814,
                "end_time": 49.49318181818182,
                "pitch": 33,
                "velocity": 80,
                "duration": 0.20000000000000284,
                "tempo": 120.0
            },
            {
                "start_time": 49.49318181818182,
                "end_time": 49.69318181818181,
                "pitch": 33,
                "velocity": 80,
                "duration": 0.19999999999999574,
                "tempo": 120.0
            },
            {
                "start_time": 49.695454545454545,
                "end_time": 49.89545454545454,
                "pitch": 33,
                "velocity": 80,
                "duration": 0.19999999999999574,
                "tempo": 120.0
            },
            {
                "start_time": 49.89545454545454,
                "end_time": 50.09318181818182,
                "pitch": 33,
                "velocity": 80,
                "duration": 0.19772727272727764,
                "tempo": 120.0
            },
            {
                "start_time": 50.095454545454544,
                "end_time": 50.293181818181814,
                "pitch": 33,
                "velocity": 80,
                "duration": 0.19772727272727053,
                "tempo": 120.0
            },
            {
                "start_time": 50.29545454545454,
                "end_time": 50.49318181818182,
                "pitch": 33,
                "velocity": 80,
                "duration": 0.19772727272727764,
                "tempo": 120.0
            },
            {
                "start_time": 50.49545454545454,
                "end_time": 50.695454545454545,
                "pitch": 33,
                "velocity": 80,
                "duration": 0.20000000000000284,
                "tempo": 120.0
            },
            {
                "start_time": 50.695454545454545,
                "end_time": 50.89545454545454,
                "pitch": 33,
                "velocity": 80,
                "duration": 0.19999999999999574,
                "tempo": 120.0
            },
            {
                "start_time": 50.89545454545454,
                "end_time": 51.095454545454544,
                "pitch": 33,
                "velocity": 80,
                "duration": 0.20000000000000284,
                "tempo": 120.0
            },
            {
                "start_time": 51.095454545454544,
                "end_time": 51.29545454545454,
                "pitch": 33,
                "velocity": 80,
                "duration": 0.19999999999999574,
                "tempo": 120.0
            },
            {
                "start_time": 51.29772727272727,
                "end_time": 51.5,
                "pitch": 33,
                "velocity": 80,
                "duration": 0.20227272727272805,
                "tempo": 120.0
            },
            {
                "start_time": 51.5,
                "end_time": 51.699999999999996,
                "pitch": 43,
                "velocity": 80,
                "duration": 0.19999999999999574,
                "tempo": 120.0
            },
            {
                "start_time": 51.699999999999996,
                "end_time": 51.9,
                "pitch": 43,
                "velocity": 80,
                "duration": 0.20000000000000284,
                "tempo": 120.0
            },
            {
                "start_time": 51.9,
                "end_time": 52.099999999999994,
                "pitch": 43,
                "velocity": 80,
                "duration": 0.19999999999999574,
                "tempo": 120.0
            },
            {
                "start_time": 52.10227272727273,
                "end_time": 52.3,
                "pitch": 43,
                "velocity": 80,
                "duration": 0.19772727272727053,
                "tempo": 120.0
            },
            {
                "start_time": 52.30227272727272,
                "end_time": 52.5,
                "pitch": 43,
                "velocity": 80,
                "duration": 0.19772727272727764,
                "tempo": 120.0
            },
            {
                "start_time": 52.5,
                "end_time": 52.699999999999996,
                "pitch": 43,
                "velocity": 80,
                "duration": 0.19999999999999574,
                "tempo": 120.0
            },
            {
                "start_time": 52.70227272727273,
                "end_time": 52.9,
                "pitch": 43,
                "velocity": 80,
                "duration": 0.19772727272727053,
                "tempo": 120.0
            },
            {
                "start_time": 52.902272727272724,
                "end_time": 53.10227272727273,
                "pitch": 43,
                "velocity": 80,
                "duration": 0.20000000000000284,
                "tempo": 120.0
            },
            {
                "start_time": 53.10227272727273,
                "end_time": 53.30227272727272,
                "pitch": 43,
                "velocity": 80,
                "duration": 0.19999999999999574,
                "tempo": 120.0
            },
            {
                "start_time": 53.304545454545455,
                "end_time": 53.50454545454545,
                "pitch": 43,
                "velocity": 80,
                "duration": 0.19999999999999574,
                "tempo": 120.0
            },
            {
                "start_time": 53.50681818181818,
                "end_time": 53.70454545454545,
                "pitch": 43,
                "velocity": 80,
                "duration": 0.19772727272727053,
                "tempo": 120.0
            },
            {
                "start_time": 53.70454545454545,
                "end_time": 53.90681818181818,
                "pitch": 43,
                "velocity": 80,
                "duration": 0.20227272727272805,
                "tempo": 120.0
            },
            {
                "start_time": 53.90681818181818,
                "end_time": 54.10454545454545,
                "pitch": 43,
                "velocity": 80,
                "duration": 0.19772727272727053,
                "tempo": 120.0
            },
            {
                "start_time": 54.10681818181818,
                "end_time": 54.304545454545455,
                "pitch": 43,
                "velocity": 80,
                "duration": 0.19772727272727764,
                "tempo": 120.0
            },
            {
                "start_time": 54.30681818181818,
                "end_time": 54.50681818181818,
                "pitch": 43,
                "velocity": 80,
                "duration": 0.20000000000000284,
                "tempo": 120.0
            },
            {
                "start_time": 54.50681818181818,
                "end_time": 54.70681818181818,
                "pitch": 43,
                "velocity": 80,
                "duration": 0.19999999999999574,
                "tempo": 120.0
            },
            {
                "start_time": 54.70681818181818,
                "end_time": 54.90681818181818,
                "pitch": 40,
                "velocity": 80,
                "duration": 0.20000000000000284,
                "tempo": 120.0
            },
            {
                "start_time": 54.90681818181818,
                "end_time": 55.10681818181818,
                "pitch": 40,
                "velocity": 80,
                "duration": 0.19999999999999574,
                "tempo": 120.0
            },
            {
                "start_time": 55.10681818181818,
                "end_time": 55.31363636363636,
                "pitch": 40,
                "velocity": 80,
                "duration": 0.20681818181818556,
                "tempo": 120.0
            },
            {
                "start_time": 55.31363636363636,
                "end_time": 55.518181818181816,
                "pitch": 40,
                "velocity": 80,
                "duration": 0.20454545454545325,
                "tempo": 120.0
            },
            {
                "start_time": 55.518181818181816,
                "end_time": 55.71363636363636,
                "pitch": 40,
                "velocity": 80,
                "duration": 0.19545454545454533,
                "tempo": 120.0
            },
            {
                "start_time": 55.71363636363636,
                "end_time": 55.91136363636363,
                "pitch": 40,
                "velocity": 80,
                "duration": 0.19772727272727053,
                "tempo": 120.0
            },
            {
                "start_time": 55.91136363636363,
                "end_time": 56.115909090909085,
                "pitch": 40,
                "velocity": 80,
                "duration": 0.20454545454545325,
                "tempo": 120.0
            },
            {
                "start_time": 56.115909090909085,
                "end_time": 56.32272727272727,
                "pitch": 40,
                "velocity": 80,
                "duration": 0.20681818181818556,
                "tempo": 120.0
            },
            {
                "start_time": 56.32272727272727,
                "end_time": 56.52272727272727,
                "pitch": 40,
                "velocity": 80,
                "duration": 0.20000000000000284,
                "tempo": 120.0
            },
            {
                "start_time": 56.525,
                "end_time": 56.724999999999994,
                "pitch": 40,
                "velocity": 80,
                "duration": 0.19999999999999574,
                "tempo": 120.0
            },
            {
                "start_time": 56.724999999999994,
                "end_time": 56.925,
                "pitch": 40,
                "velocity": 80,
                "duration": 0.20000000000000284,
                "tempo": 120.0
            },
            {
                "start_time": 56.925,
                "end_time": 57.127272727272725,
                "pitch": 40,
                "velocity": 80,
                "duration": 0.20227272727272805,
                "tempo": 120.0
            },
            {
                "start_time": 57.127272727272725,
                "end_time": 57.324999999999996,
                "pitch": 40,
                "velocity": 80,
                "duration": 0.19772727272727053,
                "tempo": 120.0
            },
            {
                "start_time": 57.32727272727272,
                "end_time": 57.525,
                "pitch": 40,
                "velocity": 80,
                "duration": 0.19772727272727764,
                "tempo": 120.0
            },
            {
                "start_time": 57.527272727272724,
                "end_time": 57.72727272727273,
                "pitch": 40,
                "velocity": 80,
                "duration": 0.20000000000000284,
                "tempo": 120.0
            },
            {
                "start_time": 57.72727272727273,
                "end_time": 57.92727272727272,
                "pitch": 40,
                "velocity": 80,
                "duration": 0.19999999999999574,
                "tempo": 120.0
            },
            {
                "start_time": 57.92727272727272,
                "end_time": 58.127272727272725,
                "pitch": 41,
                "velocity": 80,
                "duration": 0.20000000000000284,
                "tempo": 120.0
            },
            {
                "start_time": 58.127272727272725,
                "end_time": 58.32727272727272,
                "pitch": 41,
                "velocity": 80,
                "duration": 0.19999999999999574,
                "tempo": 120.0
            },
            {
                "start_time": 58.32727272727272,
                "end_time": 58.52954545454545,
                "pitch": 41,
                "velocity": 80,
                "duration": 0.20227272727272805,
                "tempo": 120.0
            },
            {
                "start_time": 58.52954545454545,
                "end_time": 58.72954545454545,
                "pitch": 41,
                "velocity": 80,
                "duration": 0.20000000000000284,
                "tempo": 120.0
            },
            {
                "start_time": 58.73181818181818,
                "end_time": 58.929545454545455,
                "pitch": 41,
                "velocity": 80,
                "duration": 0.19772727272727764,
                "tempo": 120.0
            },
            {
                "start_time": 58.93181818181818,
                "end_time": 59.131818181818176,
                "pitch": 41,
                "velocity": 80,
                "duration": 0.19999999999999574,
                "tempo": 120.0
            },
            {
                "start_time": 59.131818181818176,
                "end_time": 59.33181818181818,
                "pitch": 41,
                "velocity": 80,
                "duration": 0.20000000000000284,
                "tempo": 120.0
            },
            {
                "start_time": 59.33181818181818,
                "end_time": 59.53181818181818,
                "pitch": 41,
                "velocity": 80,
                "duration": 0.20000000000000284,
                "tempo": 120.0
            },
            {
                "start_time": 59.53409090909091,
                "end_time": 59.73181818181818,
                "pitch": 41,
                "velocity": 80,
                "duration": 0.19772727272727053,
                "tempo": 120.0
            },
            {
                "start_time": 59.73181818181818,
                "end_time": 59.93181818181818,
                "pitch": 41,
                "velocity": 80,
                "duration": 0.20000000000000284,
                "tempo": 120.0
            },
            {
                "start_time": 59.934090909090905,
                "end_time": 60.131818181818176,
                "pitch": 41,
                "velocity": 80,
                "duration": 0.19772727272727053,
                "tempo": 120.0
            },
            {
                "start_time": 60.131818181818176,
                "end_time": 60.334090909090904,
                "pitch": 41,
                "velocity": 80,
                "duration": 0.20227272727272805,
                "tempo": 120.0
            },
            {
                "start_time": 60.334090909090904,
                "end_time": 60.53409090909091,
                "pitch": 41,
                "velocity": 80,
                "duration": 0.20000000000000284,
                "tempo": 120.0
            },
            {
                "start_time": 60.53409090909091,
                "end_time": 60.73409090909091,
                "pitch": 41,
                "velocity": 80,
                "duration": 0.20000000000000284,
                "tempo": 120.0
            },
            {
                "start_time": 60.736363636363635,
                "end_time": 60.93636363636363,
                "pitch": 41,
                "velocity": 80,
                "duration": 0.19999999999999574,
                "tempo": 120.0
            },
            {
                "start_time": 60.93636363636363,
                "end_time": 61.13636363636363,
                "pitch": 41,
                "velocity": 80,
                "duration": 0.20000000000000284,
                "tempo": 120.0
            },
            {
                "start_time": 61.13636363636363,
                "end_time": 61.336363636363636,
                "pitch": 43,
                "velocity": 80,
                "duration": 0.20000000000000284,
                "tempo": 120.0
            },
            {
                "start_time": 61.336363636363636,
                "end_time": 61.53636363636363,
                "pitch": 43,
                "velocity": 80,
                "duration": 0.19999999999999574,
                "tempo": 120.0
            },
            {
                "start_time": 61.53636363636363,
                "end_time": 61.736363636363635,
                "pitch": 43,
                "velocity": 80,
                "duration": 0.20000000000000284,
                "tempo": 120.0
            },
            {
                "start_time": 61.736363636363635,
                "end_time": 61.93636363636363,
                "pitch": 43,
                "velocity": 80,
                "duration": 0.19999999999999574,
                "tempo": 120.0
            },
            {
                "start_time": 61.93636363636363,
                "end_time": 62.13636363636363,
                "pitch": 43,
                "velocity": 80,
                "duration": 0.20000000000000284,
                "tempo": 120.0
            },
            {
                "start_time": 62.13863636363636,
                "end_time": 62.33863636363636,
                "pitch": 43,
                "velocity": 80,
                "duration": 0.20000000000000284,
                "tempo": 120.0
            },
            {
                "start_time": 62.33863636363636,
                "end_time": 62.54090909090909,
                "pitch": 43,
                "velocity": 80,
                "duration": 0.20227272727272805,
                "tempo": 120.0
            },
            {
                "start_time": 62.54090909090909,
                "end_time": 62.94090909090909,
                "pitch": 47,
                "velocity": 80,
                "duration": 0.3999999999999986,
                "tempo": 120.0
            },
            {
                "start_time": 62.94090909090909,
                "end_time": 63.14090909090909,
                "pitch": 47,
                "velocity": 80,
                "duration": 0.20000000000000284,
                "tempo": 120.0
            },
            {
                "start_time": 63.14090909090909,
                "end_time": 63.340909090909086,
                "pitch": 47,
                "velocity": 80,
                "duration": 0.19999999999999574,
                "tempo": 120.0
            },
            {
                "start_time": 63.340909090909086,
                "end_time": 63.54090909090909,
                "pitch": 47,
                "velocity": 80,
                "duration": 0.20000000000000284,
                "tempo": 120.0
            },
            {
                "start_time": 63.54090909090909,
                "end_time": 63.740909090909085,
                "pitch": 47,
                "velocity": 80,
                "duration": 0.19999999999999574,
                "tempo": 120.0
            },
            {
                "start_time": 63.74318181818182,
                "end_time": 63.94090909090909,
                "pitch": 47,
                "velocity": 80,
                "duration": 0.19772727272727053,
                "tempo": 120.0
            },
            {
                "start_time": 63.94318181818181,
                "end_time": 64.14090909090909,
                "pitch": 47,
                "velocity": 80,
                "duration": 0.19772727272727764,
                "tempo": 120.0
            },
            {
                "start_time": 64.14318181818182,
                "end_time": 64.34318181818182,
                "pitch": 47,
                "velocity": 80,
                "duration": 0.20000000000000284,
                "tempo": 120.0
            },
            {
                "start_time": 64.34545454545454,
                "end_time": 64.55,
                "pitch": 40,
                "velocity": 80,
                "duration": 0.20454545454545325,
                "tempo": 120.0
            },
            {
                "start_time": 64.55227272727272,
                "end_time": 64.75454545454545,
                "pitch": 40,
                "velocity": 80,
                "duration": 0.20227272727272805,
                "tempo": 120.0
            },
            {
                "start_time": 64.75454545454545,
                "end_time": 64.95681818181818,
                "pitch": 40,
                "velocity": 80,
                "duration": 0.20227272727272805,
                "tempo": 120.0
            },
            {
                "start_time": 64.95681818181818,
                "end_time": 65.15681818181818,
                "pitch": 40,
                "velocity": 80,
                "duration": 0.20000000000000284,
                "tempo": 120.0
            },
            {
                "start_time": 65.1590909090909,
                "end_time": 65.35909090909091,
                "pitch": 40,
                "velocity": 80,
                "duration": 0.20000000000000284,
                "tempo": 120.0
            },
            {
                "start_time": 65.35909090909091,
                "end_time": 65.56136363636364,
                "pitch": 40,
                "velocity": 80,
                "duration": 0.20227272727272805,
                "tempo": 120.0
            },
            {
                "start_time": 65.56136363636364,
                "end_time": 65.76136363636364,
                "pitch": 40,
                "velocity": 80,
                "duration": 0.20000000000000284,
                "tempo": 120.0
            },
            {
                "start_time": 65.76136363636364,
                "end_time": 65.96136363636363,
                "pitch": 40,
                "velocity": 80,
                "duration": 0.19999999999998863,
                "tempo": 120.0
            },
            {
                "start_time": 65.96363636363635,
                "end_time": 66.16136363636363,
                "pitch": 40,
                "velocity": 80,
                "duration": 0.19772727272727764,
                "tempo": 120.0
            },
            {
                "start_time": 66.16363636363636,
                "end_time": 66.36363636363636,
                "pitch": 40,
                "velocity": 80,
                "duration": 0.20000000000000284,
                "tempo": 120.0
            },
            {
                "start_time": 66.36590909090908,
                "end_time": 66.56590909090909,
                "pitch": 40,
                "velocity": 80,
                "duration": 0.20000000000000284,
                "tempo": 120.0
            },
            {
                "start_time": 66.56590909090909,
                "end_time": 66.76363636363637,
                "pitch": 40,
                "velocity": 80,
                "duration": 0.19772727272727764,
                "tempo": 120.0
            },
            {
                "start_time": 66.76590909090909,
                "end_time": 66.9659090909091,
                "pitch": 40,
                "velocity": 80,
                "duration": 0.20000000000000284,
                "tempo": 120.0
            },
            {
                "start_time": 66.96818181818182,
                "end_time": 67.16818181818182,
                "pitch": 40,
                "velocity": 80,
                "duration": 0.20000000000000284,
                "tempo": 120.0
            },
            {
                "start_time": 67.16818181818182,
                "end_time": 67.37045454545454,
                "pitch": 40,
                "velocity": 80,
                "duration": 0.20227272727271384,
                "tempo": 120.0
            },
            {
                "start_time": 67.37045454545454,
                "end_time": 67.57045454545454,
                "pitch": 40,
                "velocity": 80,
                "duration": 0.20000000000000284,
                "tempo": 120.0
            },
            {
                "start_time": 67.57272727272726,
                "end_time": 67.77272727272727,
                "pitch": 36,
                "velocity": 80,
                "duration": 0.20000000000000284,
                "tempo": 120.0
            },
            {
                "start_time": 67.77272727272727,
                "end_time": 67.97272727272727,
                "pitch": 36,
                "velocity": 80,
                "duration": 0.20000000000000284,
                "tempo": 120.0
            },
            {
                "start_time": 67.97272727272727,
                "end_time": 68.17272727272727,
                "pitch": 36,
                "velocity": 80,
                "duration": 0.20000000000000284,
                "tempo": 120.0
            },
            {
                "start_time": 68.175,
                "end_time": 68.375,
                "pitch": 36,
                "velocity": 80,
                "duration": 0.20000000000000284,
                "tempo": 120.0
            },
            {
                "start_time": 68.37727272727273,
                "end_time": 68.575,
                "pitch": 36,
                "velocity": 80,
                "duration": 0.19772727272727764,
                "tempo": 120.0
            },
            {
                "start_time": 68.575,
                "end_time": 68.77499999999999,
                "pitch": 36,
                "velocity": 80,
                "duration": 0.19999999999998863,
                "tempo": 120.0
            },
            {
                "start_time": 68.77727272727273,
                "end_time": 68.97727272727272,
                "pitch": 36,
                "velocity": 80,
                "duration": 0.19999999999998863,
                "tempo": 120.0
            },
            {
                "start_time": 68.97727272727272,
                "end_time": 69.17954545454545,
                "pitch": 36,
                "velocity": 80,
                "duration": 0.20227272727272805,
                "tempo": 120.0
            },
            {
                "start_time": 69.18181818181817,
                "end_time": 69.38181818181818,
                "pitch": 36,
                "velocity": 80,
                "duration": 0.20000000000000284,
                "tempo": 120.0
            },
            {
                "start_time": 69.38181818181818,
                "end_time": 69.58181818181818,
                "pitch": 36,
                "velocity": 80,
                "duration": 0.20000000000000284,
                "tempo": 120.0
            },
            {
                "start_time": 69.58181818181818,
                "end_time": 69.78181818181818,
                "pitch": 36,
                "velocity": 80,
                "duration": 0.20000000000000284,
                "tempo": 120.0
            },
            {
                "start_time": 69.7840909090909,
                "end_time": 69.98181818181818,
                "pitch": 36,
                "velocity": 80,
                "duration": 0.19772727272727764,
                "tempo": 120.0
            },
            {
                "start_time": 69.98409090909091,
                "end_time": 70.18409090909091,
                "pitch": 36,
                "velocity": 80,
                "duration": 0.20000000000000284,
                "tempo": 120.0
            },
            {
                "start_time": 70.18636363636364,
                "end_time": 70.38636363636363,
                "pitch": 36,
                "velocity": 80,
                "duration": 0.19999999999998863,
                "tempo": 120.0
            },
            {
                "start_time": 70.38636363636363,
                "end_time": 70.58636363636363,
                "pitch": 36,
                "velocity": 80,
                "duration": 0.20000000000000284,
                "tempo": 120.0
            },
            {
                "start_time": 70.58636363636363,
                "end_time": 70.78636363636363,
                "pitch": 36,
                "velocity": 80,
                "duration": 0.20000000000000284,
                "tempo": 120.0
            },
            {
                "start_time": 70.78863636363636,
                "end_time": 70.99318181818181,
                "pitch": 38,
                "velocity": 80,
                "duration": 0.20454545454545325,
                "tempo": 120.0
            },
            {
                "start_time": 70.99318181818181,
                "end_time": 71.19772727272726,
                "pitch": 38,
                "velocity": 80,
                "duration": 0.20454545454545325,
                "tempo": 120.0
            },
            {
                "start_time": 71.19772727272726,
                "end_time": 71.39772727272727,
                "pitch": 38,
                "velocity": 80,
                "duration": 0.20000000000000284,
                "tempo": 120.0
            },
            {
                "start_time": 71.39772727272727,
                "end_time": 71.59772727272727,
                "pitch": 38,
                "velocity": 80,
                "duration": 0.20000000000000284,
                "tempo": 120.0
            },
            {
                "start_time": 71.6,
                "end_time": 71.8,
                "pitch": 38,
                "velocity": 80,
                "duration": 0.20000000000000284,
                "tempo": 120.0
            },
            {
                "start_time": 71.8,
                "end_time": 72.00227272727273,
                "pitch": 38,
                "velocity": 80,
                "duration": 0.20227272727272805,
                "tempo": 120.0
            },
            {
                "start_time": 72.00227272727273,
                "end_time": 72.20227272727273,
                "pitch": 38,
                "velocity": 80,
                "duration": 0.20000000000000284,
                "tempo": 120.0
            },
            {
                "start_time": 72.20227272727273,
                "end_time": 72.40227272727272,
                "pitch": 38,
                "velocity": 80,
                "duration": 0.19999999999998863,
                "tempo": 120.0
            },
            {
                "start_time": 72.40454545454546,
                "end_time": 72.60227272727272,
                "pitch": 38,
                "velocity": 80,
                "duration": 0.19772727272726343,
                "tempo": 120.0
            },
            {
                "start_time": 72.60454545454544,
                "end_time": 72.80454545454545,
                "pitch": 38,
                "velocity": 80,
                "duration": 0.20000000000000284,
                "tempo": 120.0
            },
            {
                "start_time": 72.80454545454545,
                "end_time": 73.00681818181818,
                "pitch": 38,
                "velocity": 80,
                "duration": 0.20227272727272805,
                "tempo": 120.0
            },
            {
                "start_time": 73.00681818181818,
                "end_time": 73.2090909090909,
                "pitch": 38,
                "velocity": 80,
                "duration": 0.20227272727272805,
                "tempo": 120.0
            },
            {
                "start_time": 73.2090909090909,
                "end_time": 73.4090909090909,
                "pitch": 38,
                "velocity": 80,
                "duration": 0.20000000000000284,
                "tempo": 120.0
            },
            {
                "start_time": 73.4090909090909,
                "end_time": 73.60909090909091,
                "pitch": 38,
                "velocity": 80,
                "duration": 0.20000000000000284,
                "tempo": 120.0
            },
            {
                "start_time": 73.60909090909091,
                "end_time": 73.81136363636364,
                "pitch": 38,
                "velocity": 80,
                "duration": 0.20227272727272805,
                "tempo": 120.0
            },
            {
                "start_time": 73.81136363636364,
                "end_time": 74.01136363636363,
                "pitch": 38,
                "velocity": 80,
                "duration": 0.19999999999998863,
                "tempo": 120.0
            },
            {
                "start_time": 74.01363636363637,
                "end_time": 74.21363636363635,
                "pitch": 36,
                "velocity": 80,
                "duration": 0.19999999999998863,
                "tempo": 120.0
            },
            {
                "start_time": 74.21363636363635,
                "end_time": 74.41363636363636,
                "pitch": 36,
                "velocity": 80,
                "duration": 0.20000000000000284,
                "tempo": 120.0
            },
            {
                "start_time": 74.41363636363636,
                "end_time": 74.61363636363636,
                "pitch": 36,
                "velocity": 80,
                "duration": 0.20000000000000284,
                "tempo": 120.0
            },
            {
                "start_time": 74.61363636363636,
                "end_time": 74.81590909090909,
                "pitch": 36,
                "velocity": 80,
                "duration": 0.20227272727272805,
                "tempo": 120.0
            },
            {
                "start_time": 74.81590909090909,
                "end_time": 75.01818181818182,
                "pitch": 36,
                "velocity": 80,
                "duration": 0.20227272727272805,
                "tempo": 120.0
            },
            {
                "start_time": 75.01818181818182,
                "end_time": 75.22045454545454,
                "pitch": 36,
                "velocity": 80,
                "duration": 0.20227272727272805,
                "tempo": 120.0
            },
            {
                "start_time": 75.22045454545454,
                "end_time": 75.42045454545455,
                "pitch": 36,
                "velocity": 80,
                "duration": 0.20000000000000284,
                "tempo": 120.0
            },
            {
                "start_time": 75.42045454545455,
                "end_time": 75.62045454545454,
                "pitch": 36,
                "velocity": 80,
                "duration": 0.19999999999998863,
                "tempo": 120.0
            },
            {
                "start_time": 75.62045454545454,
                "end_time": 75.82045454545454,
                "pitch": 36,
                "velocity": 80,
                "duration": 0.20000000000000284,
                "tempo": 120.0
            },
            {
                "start_time": 75.82272727272726,
                "end_time": 76.02272727272727,
                "pitch": 36,
                "velocity": 80,
                "duration": 0.20000000000000284,
                "tempo": 120.0
            },
            {
                "start_time": 76.02272727272727,
                "end_time": 76.22272727272727,
                "pitch": 36,
                "velocity": 80,
                "duration": 0.20000000000000284,
                "tempo": 120.0
            },
            {
                "start_time": 76.22272727272727,
                "end_time": 76.42272727272727,
                "pitch": 36,
                "velocity": 80,
                "duration": 0.20000000000000284,
                "tempo": 120.0
            },
            {
                "start_time": 76.42272727272727,
                "end_time": 76.62954545454545,
                "pitch": 36,
                "velocity": 80,
                "duration": 0.20681818181817846,
                "tempo": 120.0
            },
            {
                "start_time": 76.62954545454545,
                "end_time": 76.8340909090909,
                "pitch": 36,
                "velocity": 80,
                "duration": 0.20454545454545325,
                "tempo": 120.0
            },
            {
                "start_time": 76.8340909090909,
                "end_time": 77.03181818181818,
                "pitch": 36,
                "velocity": 80,
                "duration": 0.19772727272727764,
                "tempo": 120.0
            },
            {
                "start_time": 77.03181818181818,
                "end_time": 77.22727272727272,
                "pitch": 36,
                "velocity": 80,
                "duration": 0.19545454545453822,
                "tempo": 120.0
            },
            {
                "start_time": 77.22727272727272,
                "end_time": 77.43409090909091,
                "pitch": 40,
                "velocity": 80,
                "duration": 0.20681818181819267,
                "tempo": 120.0
            },
            {
                "start_time": 77.43409090909091,
                "end_time": 77.63863636363637,
                "pitch": 40,
                "velocity": 80,
                "duration": 0.20454545454545325,
                "tempo": 120.0
            },
            {
                "start_time": 77.63863636363637,
                "end_time": 77.8340909090909,
                "pitch": 40,
                "velocity": 80,
                "duration": 0.19545454545453822,
                "tempo": 120.0
            },
            {
                "start_time": 77.8340909090909,
                "end_time": 78.03181818181818,
                "pitch": 40,
                "velocity": 80,
                "duration": 0.19772727272727764,
                "tempo": 120.0
            },
            {
                "start_time": 78.03181818181818,
                "end_time": 78.23181818181818,
                "pitch": 40,
                "velocity": 80,
                "duration": 0.20000000000000284,
                "tempo": 120.0
            },
            {
                "start_time": 78.23181818181818,
                "end_time": 78.43181818181817,
                "pitch": 40,
                "velocity": 80,
                "duration": 0.19999999999998863,
                "tempo": 120.0
            },
            {
                "start_time": 78.43181818181817,
                "end_time": 78.63636363636363,
                "pitch": 40,
                "velocity": 80,
                "duration": 0.20454545454545325,
                "tempo": 120.0
            },
            {
                "start_time": 78.63636363636363,
                "end_time": 78.84318181818182,
                "pitch": 40,
                "velocity": 80,
                "duration": 0.20681818181819267,
                "tempo": 120.0
            },
            {
                "start_time": 78.84545454545454,
                "end_time": 79.04318181818181,
                "pitch": 40,
                "velocity": 80,
                "duration": 0.19772727272726343,
                "tempo": 120.0
            },
            {
                "start_time": 79.04318181818181,
                "end_time": 79.24318181818181,
                "pitch": 40,
                "velocity": 80,
                "duration": 0.20000000000000284,
                "tempo": 120.0
            },
            {
                "start_time": 79.24318181818181,
                "end_time": 79.44545454545454,
                "pitch": 40,
                "velocity": 80,
                "duration": 0.20227272727272805,
                "tempo": 120.0
            },
            {
                "start_time": 79.44545454545454,
                "end_time": 79.64545454545454,
                "pitch": 40,
                "velocity": 80,
                "duration": 0.20000000000000284,
                "tempo": 120.0
            },
            {
                "start_time": 79.64772727272727,
                "end_time": 79.84772727272727,
                "pitch": 40,
                "velocity": 80,
                "duration": 0.20000000000000284,
                "tempo": 120.0
            },
            {
                "start_time": 79.84772727272727,
                "end_time": 80.04772727272727,
                "pitch": 40,
                "velocity": 80,
                "duration": 0.20000000000000284,
                "tempo": 120.0
            },
            {
                "start_time": 80.04772727272727,
                "end_time": 80.25,
                "pitch": 40,
                "velocity": 80,
                "duration": 0.20227272727272805,
                "tempo": 120.0
            },
            {
                "start_time": 80.25,
                "end_time": 80.45,
                "pitch": 40,
                "velocity": 80,
                "duration": 0.20000000000000284,
                "tempo": 120.0
            },
            {
                "start_time": 80.45227272727273,
                "end_time": 80.65227272727272,
                "pitch": 36,
                "velocity": 80,
                "duration": 0.19999999999998863,
                "tempo": 120.0
            },
            {
                "start_time": 80.65227272727272,
                "end_time": 80.85454545454544,
                "pitch": 36,
                "velocity": 80,
                "duration": 0.20227272727272805,
                "tempo": 120.0
            },
            {
                "start_time": 80.85454545454544,
                "end_time": 81.05227272727272,
                "pitch": 36,
                "velocity": 80,
                "duration": 0.19772727272727764,
                "tempo": 120.0
            },
            {
                "start_time": 81.05454545454545,
                "end_time": 81.25454545454545,
                "pitch": 36,
                "velocity": 80,
                "duration": 0.20000000000000284,
                "tempo": 120.0
            },
            {
                "start_time": 81.25454545454545,
                "end_time": 81.45454545454545,
                "pitch": 36,
                "velocity": 80,
                "duration": 0.20000000000000284,
                "tempo": 120.0
            },
            {
                "start_time": 81.45681818181818,
                "end_time": 81.65681818181818,
                "pitch": 36,
                "velocity": 80,
                "duration": 0.20000000000000284,
                "tempo": 120.0
            },
            {
                "start_time": 81.6590909090909,
                "end_time": 81.85681818181818,
                "pitch": 36,
                "velocity": 80,
                "duration": 0.19772727272727764,
                "tempo": 120.0
            },
            {
                "start_time": 81.85681818181818,
                "end_time": 82.05909090909091,
                "pitch": 36,
                "velocity": 80,
                "duration": 0.20227272727272805,
                "tempo": 120.0
            },
            {
                "start_time": 82.05909090909091,
                "end_time": 82.2590909090909,
                "pitch": 36,
                "velocity": 80,
                "duration": 0.19999999999998863,
                "tempo": 120.0
            },
            {
                "start_time": 82.26136363636363,
                "end_time": 82.46136363636363,
                "pitch": 36,
                "velocity": 80,
                "duration": 0.20000000000000284,
                "tempo": 120.0
            },
            {
                "start_time": 82.46136363636363,
                "end_time": 82.66363636363636,
                "pitch": 36,
                "velocity": 80,
                "duration": 0.20227272727272805,
                "tempo": 120.0
            },
            {
                "start_time": 82.66363636363636,
                "end_time": 82.86363636363636,
                "pitch": 36,
                "velocity": 80,
                "duration": 0.20000000000000284,
                "tempo": 120.0
            },
            {
                "start_time": 82.86363636363636,
                "end_time": 83.06363636363636,
                "pitch": 36,
                "velocity": 80,
                "duration": 0.20000000000000284,
                "tempo": 120.0
            },
            {
                "start_time": 83.06590909090909,
                "end_time": 83.26363636363637,
                "pitch": 36,
                "velocity": 80,
                "duration": 0.19772727272727764,
                "tempo": 120.0
            },
            {
                "start_time": 83.26590909090909,
                "end_time": 83.4659090909091,
                "pitch": 36,
                "velocity": 80,
                "duration": 0.20000000000000284,
                "tempo": 120.0
            },
            {
                "start_time": 83.46818181818182,
                "end_time": 83.66818181818181,
                "pitch": 36,
                "velocity": 80,
                "duration": 0.19999999999998863,
                "tempo": 120.0
            },
            {
                "start_time": 83.66818181818181,
                "end_time": 83.86818181818181,
                "pitch": 38,
                "velocity": 80,
                "duration": 0.20000000000000284,
                "tempo": 120.0
            },
            {
                "start_time": 83.87045454545454,
                "end_time": 84.06818181818181,
                "pitch": 38,
                "velocity": 80,
                "duration": 0.19772727272727764,
                "tempo": 120.0
            },
            {
                "start_time": 84.07045454545454,
                "end_time": 84.27045454545454,
                "pitch": 38,
                "velocity": 80,
                "duration": 0.20000000000000284,
                "tempo": 120.0
            },
            {
                "start_time": 84.27045454545454,
                "end_time": 84.47272727272727,
                "pitch": 38,
                "velocity": 80,
                "duration": 0.20227272727272805,
                "tempo": 120.0
            },
            {
                "start_time": 84.47272727272727,
                "end_time": 84.67272727272727,
                "pitch": 38,
                "velocity": 80,
                "duration": 0.20000000000000284,
                "tempo": 120.0
            },
            {
                "start_time": 84.67272727272727,
                "end_time": 84.875,
                "pitch": 38,
                "velocity": 80,
                "duration": 0.20227272727272805,
                "tempo": 120.0
            },
            {
                "start_time": 84.875,
                "end_time": 85.075,
                "pitch": 38,
                "velocity": 80,
                "duration": 0.20000000000000284,
                "tempo": 120.0
            },
            {
                "start_time": 85.075,
                "end_time": 85.27499999999999,
                "pitch": 38,
                "velocity": 80,
                "duration": 0.19999999999998863,
                "tempo": 120.0
            },
            {
                "start_time": 85.27727272727272,
                "end_time": 85.47954545454544,
                "pitch": 38,
                "velocity": 80,
                "duration": 0.20227272727272805,
                "tempo": 120.0
            },
            {
                "start_time": 85.48181818181818,
                "end_time": 85.68636363636364,
                "pitch": 38,
                "velocity": 80,
                "duration": 0.20454545454545325,
                "tempo": 120.0
            },
            {
                "start_time": 85.68636363636364,
                "end_time": 85.88636363636363,
                "pitch": 38,
                "velocity": 80,
                "duration": 0.19999999999998863,
                "tempo": 120.0
            },
            {
                "start_time": 85.88636363636363,
                "end_time": 86.08863636363635,
                "pitch": 38,
                "velocity": 80,
                "duration": 0.20227272727272805,
                "tempo": 120.0
            },
            {
                "start_time": 86.08863636363635,
                "end_time": 86.28863636363636,
                "pitch": 38,
                "velocity": 80,
                "duration": 0.20000000000000284,
                "tempo": 120.0
            },
            {
                "start_time": 86.29090909090908,
                "end_time": 86.49090909090908,
                "pitch": 38,
                "velocity": 80,
                "duration": 0.20000000000000284,
                "tempo": 120.0
            },
            {
                "start_time": 86.49318181818181,
                "end_time": 86.69090909090909,
                "pitch": 38,
                "velocity": 80,
                "duration": 0.19772727272727764,
                "tempo": 120.0
            },
            {
                "start_time": 86.69318181818181,
                "end_time": 86.89090909090909,
                "pitch": 38,
                "velocity": 80,
                "duration": 0.19772727272727764,
                "tempo": 120.0
            },
            {
                "start_time": 86.89318181818182,
                "end_time": 87.0909090909091,
                "pitch": 36,
                "velocity": 80,
                "duration": 0.19772727272727764,
                "tempo": 120.0
            },
            {
                "start_time": 87.09318181818182,
                "end_time": 87.29318181818181,
                "pitch": 36,
                "velocity": 80,
                "duration": 0.19999999999998863,
                "tempo": 120.0
            },
            {
                "start_time": 87.29318181818181,
                "end_time": 87.49545454545454,
                "pitch": 36,
                "velocity": 80,
                "duration": 0.20227272727272805,
                "tempo": 120.0
            },
            {
                "start_time": 87.49545454545454,
                "end_time": 87.69545454545454,
                "pitch": 36,
                "velocity": 80,
                "duration": 0.20000000000000284,
                "tempo": 120.0
            },
            {
                "start_time": 87.69772727272726,
                "end_time": 87.89772727272727,
                "pitch": 36,
                "velocity": 80,
                "duration": 0.20000000000000284,
                "tempo": 120.0
            },
            {
                "start_time": 87.89772727272727,
                "end_time": 88.09772727272727,
                "pitch": 36,
                "velocity": 80,
                "duration": 0.20000000000000284,
                "tempo": 120.0
            },
            {
                "start_time": 88.09772727272727,
                "end_time": 88.29772727272727,
                "pitch": 36,
                "velocity": 80,
                "duration": 0.20000000000000284,
                "tempo": 120.0
            },
            {
                "start_time": 88.3,
                "end_time": 88.5,
                "pitch": 36,
                "velocity": 80,
                "duration": 0.20000000000000284,
                "tempo": 120.0
            },
            {
                "start_time": 88.50227272727273,
                "end_time": 88.69999999999999,
                "pitch": 45,
                "velocity": 80,
                "duration": 0.19772727272726343,
                "tempo": 120.0
            },
            {
                "start_time": 88.69999999999999,
                "end_time": 88.89999999999999,
                "pitch": 45,
                "velocity": 80,
                "duration": 0.20000000000000284,
                "tempo": 120.0
            },
            {
                "start_time": 88.89999999999999,
                "end_time": 89.10227272727272,
                "pitch": 45,
                "velocity": 80,
                "duration": 0.20227272727272805,
                "tempo": 120.0
            },
            {
                "start_time": 89.5,
                "end_time": 89.69545454545454,
                "pitch": 45,
                "velocity": 80,
                "duration": 0.19545454545453822,
                "tempo": 120.0
            },
            {
                "start_time": 90.1,
                "end_time": 90.30227272727272,
                "pitch": 33,
                "velocity": 80,
                "duration": 0.20227272727272805,
                "tempo": 120.0
            },
            {
                "start_time": 90.30227272727272,
                "end_time": 90.5,
                "pitch": 33,
                "velocity": 80,
                "duration": 0.19772727272727764,
                "tempo": 120.0
            },
            {
                "start_time": 90.50227272727273,
                "end_time": 90.70681818181818,
                "pitch": 33,
                "velocity": 80,
                "duration": 0.20454545454545325,
                "tempo": 120.0
            },
            {
                "start_time": 90.70681818181818,
                "end_time": 90.91363636363636,
                "pitch": 33,
                "velocity": 80,
                "duration": 0.20681818181817846,
                "tempo": 120.0
            },
            {
                "start_time": 90.91363636363636,
                "end_time": 91.11363636363636,
                "pitch": 33,
                "velocity": 80,
                "duration": 0.20000000000000284,
                "tempo": 120.0
            },
            {
                "start_time": 91.11363636363636,
                "end_time": 91.31590909090909,
                "pitch": 33,
                "velocity": 80,
                "duration": 0.20227272727272805,
                "tempo": 120.0
            },
            {
                "start_time": 91.31590909090909,
                "end_time": 91.51818181818182,
                "pitch": 33,
                "velocity": 80,
                "duration": 0.20227272727272805,
                "tempo": 120.0
            },
            {
                "start_time": 91.51818181818182,
                "end_time": 91.71818181818182,
                "pitch": 33,
                "velocity": 80,
                "duration": 0.20000000000000284,
                "tempo": 120.0
            },
            {
                "start_time": 91.72045454545454,
                "end_time": 91.91818181818181,
                "pitch": 33,
                "velocity": 80,
                "duration": 0.19772727272726343,
                "tempo": 120.0
            },
            {
                "start_time": 91.91818181818181,
                "end_time": 92.11818181818181,
                "pitch": 33,
                "velocity": 80,
                "duration": 0.20000000000000284,
                "tempo": 120.0
            },
            {
                "start_time": 92.12045454545454,
                "end_time": 92.32045454545454,
                "pitch": 33,
                "velocity": 80,
                "duration": 0.20000000000000284,
                "tempo": 120.0
            },
            {
                "start_time": 92.32272727272726,
                "end_time": 92.52272727272727,
                "pitch": 33,
                "velocity": 80,
                "duration": 0.20000000000000284,
                "tempo": 120.0
            },
            {
                "start_time": 92.52272727272727,
                "end_time": 92.725,
                "pitch": 33,
                "velocity": 80,
                "duration": 0.20227272727272805,
                "tempo": 120.0
            },
            {
                "start_time": 92.725,
                "end_time": 92.925,
                "pitch": 33,
                "velocity": 80,
                "duration": 0.20000000000000284,
                "tempo": 120.0
            },
            {
                "start_time": 92.925,
                "end_time": 93.125,
                "pitch": 33,
                "velocity": 80,
                "duration": 0.20000000000000284,
                "tempo": 120.0
            },
            {
                "start_time": 93.12727272727273,
                "end_time": 93.32727272727273,
                "pitch": 33,
                "velocity": 80,
                "duration": 0.20000000000000284,
                "tempo": 120.0
            },
            {
                "start_time": 93.32954545454545,
                "end_time": 93.53181818181818,
                "pitch": 33,
                "velocity": 80,
                "duration": 0.20227272727272805,
                "tempo": 120.0
            },
            {
                "start_time": 93.5340909090909,
                "end_time": 93.73636363636363,
                "pitch": 33,
                "velocity": 80,
                "duration": 0.20227272727272805,
                "tempo": 120.0
            },
            {
                "start_time": 93.73863636363636,
                "end_time": 93.9340909090909,
                "pitch": 33,
                "velocity": 80,
                "duration": 0.19545454545453822,
                "tempo": 120.0
            },
            {
                "start_time": 93.9340909090909,
                "end_time": 94.13181818181818,
                "pitch": 33,
                "velocity": 80,
                "duration": 0.19772727272727764,
                "tempo": 120.0
            },
            {
                "start_time": 94.13181818181818,
                "end_time": 94.33181818181818,
                "pitch": 33,
                "velocity": 80,
                "duration": 0.20000000000000284,
                "tempo": 120.0
            },
            {
                "start_time": 94.33181818181818,
                "end_time": 94.5340909090909,
                "pitch": 33,
                "velocity": 80,
                "duration": 0.20227272727272805,
                "tempo": 120.0
            },
            {
                "start_time": 94.53636363636363,
                "end_time": 94.73863636363636,
                "pitch": 33,
                "velocity": 80,
                "duration": 0.20227272727272805,
                "tempo": 120.0
            },
            {
                "start_time": 94.74090909090908,
                "end_time": 94.94545454545454,
                "pitch": 33,
                "velocity": 80,
                "duration": 0.20454545454545325,
                "tempo": 120.0
            },
            {
                "start_time": 94.94545454545454,
                "end_time": 95.14090909090909,
                "pitch": 33,
                "velocity": 80,
                "duration": 0.19545454545455243,
                "tempo": 120.0
            },
            {
                "start_time": 95.14090909090909,
                "end_time": 95.33636363636363,
                "pitch": 33,
                "velocity": 80,
                "duration": 0.19545454545453822,
                "tempo": 120.0
            },
            {
                "start_time": 95.33636363636363,
                "end_time": 95.54318181818181,
                "pitch": 33,
                "velocity": 80,
                "duration": 0.20681818181817846,
                "tempo": 120.0
            },
            {
                "start_time": 95.54318181818181,
                "end_time": 95.74772727272727,
                "pitch": 33,
                "velocity": 80,
                "duration": 0.20454545454546746,
                "tempo": 120.0
            },
            {
                "start_time": 95.74772727272727,
                "end_time": 95.94999999999999,
                "pitch": 33,
                "velocity": 80,
                "duration": 0.20227272727271384,
                "tempo": 120.0
            },
            {
                "start_time": 95.94999999999999,
                "end_time": 96.15227272727272,
                "pitch": 33,
                "velocity": 80,
                "duration": 0.20227272727272805,
                "tempo": 120.0
            },
            {
                "start_time": 96.15454545454546,
                "end_time": 96.35227272727272,
                "pitch": 33,
                "velocity": 80,
                "duration": 0.19772727272726343,
                "tempo": 120.0
            },
            {
                "start_time": 96.35454545454544,
                "end_time": 96.55454545454545,
                "pitch": 33,
                "velocity": 80,
                "duration": 0.20000000000000284,
                "tempo": 120.0
            },
            {
                "start_time": 96.55454545454545,
                "end_time": 96.75454545454545,
                "pitch": 33,
                "velocity": 80,
                "duration": 0.20000000000000284,
                "tempo": 120.0
            },
            {
                "start_time": 96.75454545454545,
                "end_time": 96.95454545454545,
                "pitch": 33,
                "velocity": 80,
                "duration": 0.20000000000000284,
                "tempo": 120.0
            },
            {
                "start_time": 96.95681818181818,
                "end_time": 97.15681818181818,
                "pitch": 33,
                "velocity": 80,
                "duration": 0.20000000000000284,
                "tempo": 120.0
            },
            {
                "start_time": 97.15681818181818,
                "end_time": 97.35909090909091,
                "pitch": 33,
                "velocity": 80,
                "duration": 0.20227272727272805,
                "tempo": 120.0
            },
            {
                "start_time": 97.35909090909091,
                "end_time": 97.5590909090909,
                "pitch": 33,
                "velocity": 80,
                "duration": 0.19999999999998863,
                "tempo": 120.0
            },
            {
                "start_time": 97.5590909090909,
                "end_time": 97.7590909090909,
                "pitch": 33,
                "velocity": 80,
                "duration": 0.20000000000000284,
                "tempo": 120.0
            },
            {
                "start_time": 97.7590909090909,
                "end_time": 97.96136363636363,
                "pitch": 33,
                "velocity": 80,
                "duration": 0.20227272727272805,
                "tempo": 120.0
            },
            {
                "start_time": 97.96136363636363,
                "end_time": 98.16136363636363,
                "pitch": 33,
                "velocity": 80,
                "duration": 0.20000000000000284,
                "tempo": 120.0
            },
            {
                "start_time": 98.16363636363636,
                "end_time": 98.36136363636363,
                "pitch": 33,
                "velocity": 80,
                "duration": 0.19772727272727764,
                "tempo": 120.0
            },
            {
                "start_time": 98.36363636363636,
                "end_time": 98.56363636363636,
                "pitch": 33,
                "velocity": 80,
                "duration": 0.20000000000000284,
                "tempo": 120.0
            },
            {
                "start_time": 98.56363636363636,
                "end_time": 98.76590909090909,
                "pitch": 33,
                "velocity": 80,
                "duration": 0.20227272727272805,
                "tempo": 120.0
            },
            {
                "start_time": 98.76590909090909,
                "end_time": 98.96590909090908,
                "pitch": 33,
                "velocity": 80,
                "duration": 0.19999999999998863,
                "tempo": 120.0
            },
            {
                "start_time": 98.96590909090908,
                "end_time": 99.16818181818181,
                "pitch": 33,
                "velocity": 80,
                "duration": 0.20227272727272805,
                "tempo": 120.0
            },
            {
                "start_time": 99.17045454545455,
                "end_time": 99.37045454545454,
                "pitch": 33,
                "velocity": 80,
                "duration": 0.19999999999998863,
                "tempo": 120.0
            },
            {
                "start_time": 99.37045454545454,
                "end_time": 99.57045454545454,
                "pitch": 33,
                "velocity": 80,
                "duration": 0.20000000000000284,
                "tempo": 120.0
            },
            {
                "start_time": 99.57045454545454,
                "end_time": 99.77045454545454,
                "pitch": 33,
                "velocity": 80,
                "duration": 0.20000000000000284,
                "tempo": 120.0
            },
            {
                "start_time": 99.77272727272727,
                "end_time": 99.97272727272727,
                "pitch": 33,
                "velocity": 80,
                "duration": 0.20000000000000284,
                "tempo": 120.0
            },
            {
                "start_time": 99.97272727272727,
                "end_time": 100.17272727272727,
                "pitch": 33,
                "velocity": 80,
                "duration": 0.20000000000000284,
                "tempo": 120.0
            },
            {
                "start_time": 100.17272727272727,
                "end_time": 100.375,
                "pitch": 33,
                "velocity": 80,
                "duration": 0.20227272727272805,
                "tempo": 120.0
            },
            {
                "start_time": 100.375,
                "end_time": 100.57499999999999,
                "pitch": 33,
                "velocity": 80,
                "duration": 0.19999999999998863,
                "tempo": 120.0
            },
            {
                "start_time": 100.57499999999999,
                "end_time": 100.77499999999999,
                "pitch": 33,
                "velocity": 80,
                "duration": 0.20000000000000284,
                "tempo": 120.0
            },
            {
                "start_time": 100.77499999999999,
                "end_time": 100.97727272727272,
                "pitch": 33,
                "velocity": 80,
                "duration": 0.20227272727272805,
                "tempo": 120.0
            },
            {
                "start_time": 100.97727272727272,
                "end_time": 101.17727272727272,
                "pitch": 33,
                "velocity": 80,
                "duration": 0.20000000000000284,
                "tempo": 120.0
            },
            {
                "start_time": 101.17954545454545,
                "end_time": 101.38181818181818,
                "pitch": 33,
                "velocity": 80,
                "duration": 0.20227272727272805,
                "tempo": 120.0
            },
            {
                "start_time": 101.38181818181818,
                "end_time": 101.57954545454545,
                "pitch": 33,
                "velocity": 80,
                "duration": 0.19772727272727764,
                "tempo": 120.0
            },
            {
                "start_time": 101.57954545454545,
                "end_time": 101.77954545454546,
                "pitch": 33,
                "velocity": 80,
                "duration": 0.20000000000000284,
                "tempo": 120.0
            },
            {
                "start_time": 101.78181818181818,
                "end_time": 101.98181818181817,
                "pitch": 33,
                "velocity": 80,
                "duration": 0.19999999999998863,
                "tempo": 120.0
            },
            {
                "start_time": 101.98181818181817,
                "end_time": 102.1840909090909,
                "pitch": 33,
                "velocity": 80,
                "duration": 0.20227272727272805,
                "tempo": 120.0
            },
            {
                "start_time": 102.1840909090909,
                "end_time": 102.3840909090909,
                "pitch": 33,
                "velocity": 80,
                "duration": 0.20000000000000284,
                "tempo": 120.0
            },
            {
                "start_time": 102.3840909090909,
                "end_time": 102.5840909090909,
                "pitch": 33,
                "velocity": 80,
                "duration": 0.20000000000000284,
                "tempo": 120.0
            },
            {
                "start_time": 102.5840909090909,
                "end_time": 102.78636363636363,
                "pitch": 33,
                "velocity": 80,
                "duration": 0.20227272727272805,
                "tempo": 120.0
            },
            {
                "start_time": 102.78636363636363,
                "end_time": 102.98863636363636,
                "pitch": 33,
                "velocity": 80,
                "duration": 0.20227272727272805,
                "tempo": 120.0
            },
            {
                "start_time": 102.98863636363636,
                "end_time": 103.19318181818181,
                "pitch": 33,
                "velocity": 80,
                "duration": 0.20454545454545325,
                "tempo": 120.0
            },
            {
                "start_time": 103.19545454545454,
                "end_time": 103.39772727272727,
                "pitch": 33,
                "velocity": 80,
                "duration": 0.20227272727272805,
                "tempo": 120.0
            },
            {
                "start_time": 103.39999999999999,
                "end_time": 103.6,
                "pitch": 33,
                "velocity": 80,
                "duration": 0.20000000000000284,
                "tempo": 120.0
            },
            {
                "start_time": 103.60227272727272,
                "end_time": 103.80227272727272,
                "pitch": 33,
                "velocity": 80,
                "duration": 0.20000000000000284,
                "tempo": 120.0
            },
            {
                "start_time": 103.80454545454545,
                "end_time": 104.00227272727273,
                "pitch": 33,
                "velocity": 80,
                "duration": 0.19772727272727764,
                "tempo": 120.0
            },
            {
                "start_time": 104.00227272727273,
                "end_time": 104.20227272727273,
                "pitch": 33,
                "velocity": 80,
                "duration": 0.20000000000000284,
                "tempo": 120.0
            },
            {
                "start_time": 104.20454545454545,
                "end_time": 104.40454545454546,
                "pitch": 33,
                "velocity": 80,
                "duration": 0.20000000000000284,
                "tempo": 120.0
            },
            {
                "start_time": 104.40454545454546,
                "end_time": 104.60454545454544,
                "pitch": 33,
                "velocity": 80,
                "duration": 0.19999999999998863,
                "tempo": 120.0
            },
            {
                "start_time": 104.60681818181817,
                "end_time": 104.80681818181817,
                "pitch": 33,
                "velocity": 80,
                "duration": 0.20000000000000284,
                "tempo": 120.0
            },
            {
                "start_time": 104.80681818181817,
                "end_time": 105.0090909090909,
                "pitch": 33,
                "velocity": 80,
                "duration": 0.20227272727272805,
                "tempo": 120.0
            },
            {
                "start_time": 105.0090909090909,
                "end_time": 105.2090909090909,
                "pitch": 33,
                "velocity": 80,
                "duration": 0.20000000000000284,
                "tempo": 120.0
            },
            {
                "start_time": 105.21136363636363,
                "end_time": 105.4090909090909,
                "pitch": 33,
                "velocity": 80,
                "duration": 0.19772727272727764,
                "tempo": 120.0
            },
            {
                "start_time": 105.41136363636363,
                "end_time": 105.61136363636363,
                "pitch": 33,
                "velocity": 80,
                "duration": 0.20000000000000284,
                "tempo": 120.0
            },
            {
                "start_time": 105.61363636363636,
                "end_time": 105.81363636363636,
                "pitch": 33,
                "velocity": 80,
                "duration": 0.20000000000000284,
                "tempo": 120.0
            },
            {
                "start_time": 105.81363636363636,
                "end_time": 106.01363636363637,
                "pitch": 33,
                "velocity": 80,
                "duration": 0.20000000000000284,
                "tempo": 120.0
            },
            {
                "start_time": 106.01590909090909,
                "end_time": 106.21363636363635,
                "pitch": 33,
                "velocity": 80,
                "duration": 0.19772727272726343,
                "tempo": 120.0
            },
            {
                "start_time": 106.21590909090908,
                "end_time": 106.41590909090908,
                "pitch": 33,
                "velocity": 80,
                "duration": 0.20000000000000284,
                "tempo": 120.0
            },
            {
                "start_time": 106.41590909090908,
                "end_time": 106.61590909090908,
                "pitch": 33,
                "velocity": 80,
                "duration": 0.20000000000000284,
                "tempo": 120.0
            },
            {
                "start_time": 106.61590909090908,
                "end_time": 106.81818181818181,
                "pitch": 33,
                "velocity": 80,
                "duration": 0.20227272727272805,
                "tempo": 120.0
            },
            {
                "start_time": 106.81818181818181,
                "end_time": 107.02045454545454,
                "pitch": 33,
                "velocity": 80,
                "duration": 0.20227272727272805,
                "tempo": 120.0
            },
            {
                "start_time": 107.02045454545454,
                "end_time": 107.22045454545454,
                "pitch": 33,
                "velocity": 80,
                "duration": 0.20000000000000284,
                "tempo": 120.0
            },
            {
                "start_time": 107.22045454545454,
                "end_time": 107.42045454545455,
                "pitch": 33,
                "velocity": 80,
                "duration": 0.20000000000000284,
                "tempo": 120.0
            },
            {
                "start_time": 107.42272727272727,
                "end_time": 107.62272727272726,
                "pitch": 33,
                "velocity": 80,
                "duration": 0.19999999999998863,
                "tempo": 120.0
            },
            {
                "start_time": 107.62272727272726,
                "end_time": 107.82272727272726,
                "pitch": 33,
                "velocity": 80,
                "duration": 0.20000000000000284,
                "tempo": 120.0
            },
            {
                "start_time": 107.82499999999999,
                "end_time": 108.02272727272727,
                "pitch": 33,
                "velocity": 80,
                "duration": 0.19772727272727764,
                "tempo": 120.0
            },
            {
                "start_time": 108.02499999999999,
                "end_time": 108.22272727272727,
                "pitch": 33,
                "velocity": 80,
                "duration": 0.19772727272727764,
                "tempo": 120.0
            },
            {
                "start_time": 108.225,
                "end_time": 108.425,
                "pitch": 33,
                "velocity": 80,
                "duration": 0.20000000000000284,
                "tempo": 120.0
            },
            {
                "start_time": 108.425,
                "end_time": 108.62727272727273,
                "pitch": 33,
                "velocity": 80,
                "duration": 0.20227272727272805,
                "tempo": 120.0
            },
            {
                "start_time": 108.62727272727273,
                "end_time": 108.82954545454545,
                "pitch": 33,
                "velocity": 80,
                "duration": 0.20227272727272805,
                "tempo": 120.0
            },
            {
                "start_time": 108.82954545454545,
                "end_time": 109.03181818181818,
                "pitch": 33,
                "velocity": 80,
                "duration": 0.20227272727272805,
                "tempo": 120.0
            },
            {
                "start_time": 109.03181818181818,
                "end_time": 109.23181818181817,
                "pitch": 33,
                "velocity": 80,
                "duration": 0.19999999999998863,
                "tempo": 120.0
            },
            {
                "start_time": 109.23181818181817,
                "end_time": 109.43181818181817,
                "pitch": 33,
                "velocity": 80,
                "duration": 0.20000000000000284,
                "tempo": 120.0
            },
            {
                "start_time": 109.4340909090909,
                "end_time": 109.63636363636363,
                "pitch": 33,
                "velocity": 80,
                "duration": 0.20227272727272805,
                "tempo": 120.0
            },
            {
                "start_time": 109.63863636363635,
                "end_time": 109.84090909090908,
                "pitch": 33,
                "velocity": 80,
                "duration": 0.20227272727272805,
                "tempo": 120.0
            },
            {
                "start_time": 109.84318181818182,
                "end_time": 110.03863636363636,
                "pitch": 33,
                "velocity": 80,
                "duration": 0.19545454545453822,
                "tempo": 120.0
            },
            {
                "start_time": 110.04090909090908,
                "end_time": 110.23636363636363,
                "pitch": 33,
                "velocity": 80,
                "duration": 0.19545454545455243,
                "tempo": 120.0
            },
            {
                "start_time": 110.23636363636363,
                "end_time": 110.43636363636364,
                "pitch": 33,
                "velocity": 80,
                "duration": 0.20000000000000284,
                "tempo": 120.0
            },
            {
                "start_time": 110.43636363636364,
                "end_time": 110.63863636363635,
                "pitch": 33,
                "velocity": 80,
                "duration": 0.20227272727271384,
                "tempo": 120.0
            },
            {
                "start_time": 110.64090909090909,
                "end_time": 110.84545454545454,
                "pitch": 33,
                "velocity": 80,
                "duration": 0.20454545454545325,
                "tempo": 120.0
            },
            {
                "start_time": 110.84545454545454,
                "end_time": 111.05,
                "pitch": 33,
                "velocity": 80,
                "duration": 0.20454545454545325,
                "tempo": 120.0
            },
            {
                "start_time": 111.05227272727272,
                "end_time": 111.25227272727273,
                "pitch": 33,
                "velocity": 80,
                "duration": 0.20000000000000284,
                "tempo": 120.0
            },
            {
                "start_time": 111.25227272727273,
                "end_time": 111.45454545454545,
                "pitch": 33,
                "velocity": 80,
                "duration": 0.20227272727272805,
                "tempo": 120.0
            },
            {
                "start_time": 111.45454545454545,
                "end_time": 111.65454545454546,
                "pitch": 33,
                "velocity": 80,
                "duration": 0.20000000000000284,
                "tempo": 120.0
            },
            {
                "start_time": 111.65454545454546,
                "end_time": 111.85454545454544,
                "pitch": 33,
                "velocity": 80,
                "duration": 0.19999999999998863,
                "tempo": 120.0
            },
            {
                "start_time": 111.85454545454544,
                "end_time": 112.05681818181817,
                "pitch": 33,
                "velocity": 80,
                "duration": 0.20227272727272805,
                "tempo": 120.0
            },
            {
                "start_time": 112.05681818181817,
                "end_time": 112.25681818181818,
                "pitch": 33,
                "velocity": 80,
                "duration": 0.20000000000000284,
                "tempo": 120.0
            },
            {
                "start_time": 112.25681818181818,
                "end_time": 112.4590909090909,
                "pitch": 33,
                "velocity": 80,
                "duration": 0.20227272727272805,
                "tempo": 120.0
            },
            {
                "start_time": 112.4590909090909,
                "end_time": 112.66136363636363,
                "pitch": 33,
                "velocity": 80,
                "duration": 0.20227272727272805,
                "tempo": 120.0
            },
            {
                "start_time": 112.66136363636363,
                "end_time": 112.85909090909091,
                "pitch": 33,
                "velocity": 80,
                "duration": 0.19772727272727764,
                "tempo": 120.0
            },
            {
                "start_time": 112.85909090909091,
                "end_time": 113.0590909090909,
                "pitch": 33,
                "velocity": 80,
                "duration": 0.19999999999998863,
                "tempo": 120.0
            },
            {
                "start_time": 113.06136363636364,
                "end_time": 113.26136363636363,
                "pitch": 33,
                "velocity": 80,
                "duration": 0.19999999999998863,
                "tempo": 120.0
            },
            {
                "start_time": 113.26136363636363,
                "end_time": 113.46363636363635,
                "pitch": 33,
                "velocity": 80,
                "duration": 0.20227272727272805,
                "tempo": 120.0
            },
            {
                "start_time": 113.46363636363635,
                "end_time": 113.66363636363636,
                "pitch": 33,
                "velocity": 80,
                "duration": 0.20000000000000284,
                "tempo": 120.0
            },
            {
                "start_time": 113.66363636363636,
                "end_time": 113.86363636363636,
                "pitch": 33,
                "velocity": 80,
                "duration": 0.20000000000000284,
                "tempo": 120.0
            },
            {
                "start_time": 113.86363636363636,
                "end_time": 114.06590909090909,
                "pitch": 33,
                "velocity": 80,
                "duration": 0.20227272727272805,
                "tempo": 120.0
            },
            {
                "start_time": 114.06590909090909,
                "end_time": 114.26590909090909,
                "pitch": 33,
                "velocity": 80,
                "duration": 0.20000000000000284,
                "tempo": 120.0
            },
            {
                "start_time": 114.26818181818182,
                "end_time": 114.46818181818182,
                "pitch": 33,
                "velocity": 80,
                "duration": 0.20000000000000284,
                "tempo": 120.0
            },
            {
                "start_time": 114.46818181818182,
                "end_time": 114.66818181818181,
                "pitch": 33,
                "velocity": 80,
                "duration": 0.19999999999998863,
                "tempo": 120.0
            },
            {
                "start_time": 114.67045454545455,
                "end_time": 114.87045454545454,
                "pitch": 33,
                "velocity": 80,
                "duration": 0.19999999999998863,
                "tempo": 120.0
            },
            {
                "start_time": 114.87045454545454,
                "end_time": 115.07045454545454,
                "pitch": 33,
                "velocity": 80,
                "duration": 0.20000000000000284,
                "tempo": 120.0
            },
            {
                "start_time": 115.07045454545454,
                "end_time": 115.27045454545454,
                "pitch": 33,
                "velocity": 80,
                "duration": 0.20000000000000284,
                "tempo": 120.0
            },
            {
                "start_time": 115.27272727272727,
                "end_time": 115.47272727272727,
                "pitch": 33,
                "velocity": 80,
                "duration": 0.20000000000000284,
                "tempo": 120.0
            },
            {
                "start_time": 115.47272727272727,
                "end_time": 115.67272727272727,
                "pitch": 33,
                "velocity": 80,
                "duration": 0.20000000000000284,
                "tempo": 120.0
            },
            {
                "start_time": 115.675,
                "end_time": 115.875,
                "pitch": 33,
                "velocity": 80,
                "duration": 0.20000000000000284,
                "tempo": 120.0
            },
            {
                "start_time": 115.87727272727273,
                "end_time": 116.07727272727273,
                "pitch": 43,
                "velocity": 80,
                "duration": 0.20000000000000284,
                "tempo": 120.0
            },
            {
                "start_time": 116.07727272727273,
                "end_time": 116.27727272727272,
                "pitch": 43,
                "velocity": 80,
                "duration": 0.19999999999998863,
                "tempo": 120.0
            },
            {
                "start_time": 116.27954545454544,
                "end_time": 116.47954545454544,
                "pitch": 43,
                "velocity": 80,
                "duration": 0.20000000000000284,
                "tempo": 120.0
            },
            {
                "start_time": 116.48181818181817,
                "end_time": 116.68181818181817,
                "pitch": 43,
                "velocity": 80,
                "duration": 0.20000000000000284,
                "tempo": 120.0
            },
            {
                "start_time": 116.68181818181817,
                "end_time": 116.88181818181818,
                "pitch": 43,
                "velocity": 80,
                "duration": 0.20000000000000284,
                "tempo": 120.0
            },
            {
                "start_time": 116.88181818181818,
                "end_time": 117.08181818181818,
                "pitch": 43,
                "velocity": 80,
                "duration": 0.20000000000000284,
                "tempo": 120.0
            },
            {
                "start_time": 117.08181818181818,
                "end_time": 117.28181818181818,
                "pitch": 43,
                "velocity": 80,
                "duration": 0.20000000000000284,
                "tempo": 120.0
            },
            {
                "start_time": 117.2840909090909,
                "end_time": 117.48636363636363,
                "pitch": 43,
                "velocity": 80,
                "duration": 0.20227272727272805,
                "tempo": 120.0
            },
            {
                "start_time": 117.48636363636363,
                "end_time": 117.69090909090909,
                "pitch": 43,
                "velocity": 80,
                "duration": 0.20454545454545325,
                "tempo": 120.0
            },
            {
                "start_time": 117.69090909090909,
                "end_time": 117.89545454545454,
                "pitch": 43,
                "velocity": 80,
                "duration": 0.20454545454545325,
                "tempo": 120.0
            },
            {
                "start_time": 117.89772727272727,
                "end_time": 118.09772727272727,
                "pitch": 43,
                "velocity": 80,
                "duration": 0.20000000000000284,
                "tempo": 120.0
            },
            {
                "start_time": 118.09772727272727,
                "end_time": 118.3,
                "pitch": 43,
                "velocity": 80,
                "duration": 0.20227272727272805,
                "tempo": 120.0
            },
            {
                "start_time": 118.30227272727272,
                "end_time": 118.5,
                "pitch": 43,
                "velocity": 80,
                "duration": 0.19772727272727764,
                "tempo": 120.0
            },
            {
                "start_time": 118.5,
                "end_time": 118.69999999999999,
                "pitch": 43,
                "velocity": 80,
                "duration": 0.19999999999998863,
                "tempo": 120.0
            },
            {
                "start_time": 118.69999999999999,
                "end_time": 118.90227272727272,
                "pitch": 43,
                "velocity": 80,
                "duration": 0.20227272727272805,
                "tempo": 120.0
            },
            {
                "start_time": 118.90227272727272,
                "end_time": 119.10454545454544,
                "pitch": 43,
                "velocity": 80,
                "duration": 0.20227272727272805,
                "tempo": 120.0
            },
            {
                "start_time": 119.10454545454544,
                "end_time": 119.30454545454545,
                "pitch": 40,
                "velocity": 80,
                "duration": 0.20000000000000284,
                "tempo": 120.0
            },
            {
                "start_time": 119.30454545454545,
                "end_time": 119.50454545454545,
                "pitch": 40,
                "velocity": 80,
                "duration": 0.20000000000000284,
                "tempo": 120.0
            },
            {
                "start_time": 119.50454545454545,
                "end_time": 119.70681818181818,
                "pitch": 40,
                "velocity": 80,
                "duration": 0.20227272727272805,
                "tempo": 120.0
            },
            {
                "start_time": 119.70681818181818,
                "end_time": 119.90681818181818,
                "pitch": 40,
                "velocity": 80,
                "duration": 0.20000000000000284,
                "tempo": 120.0
            },
            {
                "start_time": 119.9090909090909,
                "end_time": 120.10909090909091,
                "pitch": 40,
                "velocity": 80,
                "duration": 0.20000000000000284,
                "tempo": 120.0
            },
            {
                "start_time": 120.10909090909091,
                "end_time": 120.31136363636364,
                "pitch": 40,
                "velocity": 80,
                "duration": 0.20227272727272805,
                "tempo": 120.0
            },
            {
                "start_time": 120.31136363636364,
                "end_time": 120.5090909090909,
                "pitch": 40,
                "velocity": 80,
                "duration": 0.19772727272726343,
                "tempo": 120.0
            },
            {
                "start_time": 120.51136363636363,
                "end_time": 120.71136363636363,
                "pitch": 40,
                "velocity": 80,
                "duration": 0.20000000000000284,
                "tempo": 120.0
            },
            {
                "start_time": 120.71363636363635,
                "end_time": 120.91136363636363,
                "pitch": 40,
                "velocity": 80,
                "duration": 0.19772727272727764,
                "tempo": 120.0
            },
            {
                "start_time": 120.91363636363636,
                "end_time": 121.11363636363636,
                "pitch": 40,
                "velocity": 80,
                "duration": 0.20000000000000284,
                "tempo": 120.0
            },
            {
                "start_time": 121.11590909090908,
                "end_time": 121.31363636363636,
                "pitch": 40,
                "velocity": 80,
                "duration": 0.19772727272727764,
                "tempo": 120.0
            },
            {
                "start_time": 121.31363636363636,
                "end_time": 121.51590909090909,
                "pitch": 40,
                "velocity": 80,
                "duration": 0.20227272727272805,
                "tempo": 120.0
            },
            {
                "start_time": 121.51590909090909,
                "end_time": 121.71590909090908,
                "pitch": 40,
                "velocity": 80,
                "duration": 0.19999999999998863,
                "tempo": 120.0
            },
            {
                "start_time": 121.71818181818182,
                "end_time": 121.91818181818181,
                "pitch": 40,
                "velocity": 80,
                "duration": 0.19999999999998863,
                "tempo": 120.0
            },
            {
                "start_time": 121.91818181818181,
                "end_time": 122.12045454545454,
                "pitch": 40,
                "velocity": 80,
                "duration": 0.20227272727272805,
                "tempo": 120.0
            },
            {
                "start_time": 122.12045454545454,
                "end_time": 122.32045454545454,
                "pitch": 40,
                "velocity": 80,
                "duration": 0.20000000000000284,
                "tempo": 120.0
            },
            {
                "start_time": 122.32272727272726,
                "end_time": 122.52045454545454,
                "pitch": 41,
                "velocity": 80,
                "duration": 0.19772727272727764,
                "tempo": 120.0
            },
            {
                "start_time": 122.52272727272727,
                "end_time": 122.72045454545454,
                "pitch": 41,
                "velocity": 80,
                "duration": 0.19772727272727764,
                "tempo": 120.0
            },
            {
                "start_time": 122.72272727272727,
                "end_time": 122.92272727272727,
                "pitch": 41,
                "velocity": 80,
                "duration": 0.20000000000000284,
                "tempo": 120.0
            },
            {
                "start_time": 122.925,
                "end_time": 123.125,
                "pitch": 41,
                "velocity": 80,
                "duration": 0.20000000000000284,
                "tempo": 120.0
            },
            {
                "start_time": 123.125,
                "end_time": 123.32499999999999,
                "pitch": 41,
                "velocity": 80,
                "duration": 0.19999999999998863,
                "tempo": 120.0
            },
            {
                "start_time": 123.32499999999999,
                "end_time": 123.52499999999999,
                "pitch": 41,
                "velocity": 80,
                "duration": 0.20000000000000284,
                "tempo": 120.0
            },
            {
                "start_time": 123.52727272727272,
                "end_time": 123.72727272727272,
                "pitch": 41,
                "velocity": 80,
                "duration": 0.20000000000000284,
                "tempo": 120.0
            },
            {
                "start_time": 123.72727272727272,
                "end_time": 123.92954545454545,
                "pitch": 41,
                "velocity": 80,
                "duration": 0.20227272727272805,
                "tempo": 120.0
            },
            {
                "start_time": 123.92954545454545,
                "end_time": 124.12954545454545,
                "pitch": 41,
                "velocity": 80,
                "duration": 0.20000000000000284,
                "tempo": 120.0
            },
            {
                "start_time": 124.12954545454545,
                "end_time": 124.33181818181818,
                "pitch": 41,
                "velocity": 80,
                "duration": 0.20227272727272805,
                "tempo": 120.0
            },
            {
                "start_time": 124.33181818181818,
                "end_time": 124.53181818181818,
                "pitch": 41,
                "velocity": 80,
                "duration": 0.20000000000000284,
                "tempo": 120.0
            },
            {
                "start_time": 124.53181818181818,
                "end_time": 124.73181818181817,
                "pitch": 41,
                "velocity": 80,
                "duration": 0.19999999999998863,
                "tempo": 120.0
            },
            {
                "start_time": 124.73409090909091,
                "end_time": 124.9340909090909,
                "pitch": 41,
                "velocity": 80,
                "duration": 0.19999999999998863,
                "tempo": 120.0
            },
            {
                "start_time": 124.9340909090909,
                "end_time": 125.1340909090909,
                "pitch": 41,
                "velocity": 80,
                "duration": 0.20000000000000284,
                "tempo": 120.0
            },
            {
                "start_time": 125.13636363636363,
                "end_time": 125.33636363636363,
                "pitch": 41,
                "velocity": 80,
                "duration": 0.20000000000000284,
                "tempo": 120.0
            },
            {
                "start_time": 125.33636363636363,
                "end_time": 125.53636363636363,
                "pitch": 41,
                "velocity": 80,
                "duration": 0.20000000000000284,
                "tempo": 120.0
            },
            {
                "start_time": 125.53636363636363,
                "end_time": 125.74090909090908,
                "pitch": 43,
                "velocity": 80,
                "duration": 0.20454545454545325,
                "tempo": 120.0
            },
            {
                "start_time": 125.74318181818181,
                "end_time": 125.94545454545454,
                "pitch": 43,
                "velocity": 80,
                "duration": 0.20227272727272805,
                "tempo": 120.0
            },
            {
                "start_time": 125.94772727272726,
                "end_time": 126.14772727272727,
                "pitch": 43,
                "velocity": 80,
                "duration": 0.20000000000000284,
                "tempo": 120.0
            },
            {
                "start_time": 126.14772727272727,
                "end_time": 126.34772727272727,
                "pitch": 43,
                "velocity": 80,
                "duration": 0.20000000000000284,
                "tempo": 120.0
            },
            {
                "start_time": 126.34772727272727,
                "end_time": 126.55,
                "pitch": 43,
                "velocity": 80,
                "duration": 0.20227272727272805,
                "tempo": 120.0
            },
            {
                "start_time": 126.55,
                "end_time": 126.75227272727273,
                "pitch": 43,
                "velocity": 80,
                "duration": 0.20227272727272805,
                "tempo": 120.0
            },
            {
                "start_time": 126.75227272727273,
                "end_time": 126.95227272727273,
                "pitch": 43,
                "velocity": 80,
                "duration": 0.20000000000000284,
                "tempo": 120.0
            },
            {
                "start_time": 126.95454545454545,
                "end_time": 127.35,
                "pitch": 47,
                "velocity": 80,
                "duration": 0.39545454545454106,
                "tempo": 120.0
            },
            {
                "start_time": 127.35,
                "end_time": 127.54545454545453,
                "pitch": 47,
                "velocity": 80,
                "duration": 0.19545454545453822,
                "tempo": 120.0
            },
            {
                "start_time": 127.54545454545453,
                "end_time": 127.75227272727273,
                "pitch": 47,
                "velocity": 80,
                "duration": 0.20681818181819267,
                "tempo": 120.0
            },
            {
                "start_time": 127.75227272727273,
                "end_time": 127.95681818181818,
                "pitch": 47,
                "velocity": 80,
                "duration": 0.20454545454545325,
                "tempo": 120.0
            },
            {
                "start_time": 127.9590909090909,
                "end_time": 128.15681818181818,
                "pitch": 47,
                "velocity": 80,
                "duration": 0.19772727272727764,
                "tempo": 120.0
            },
            {
                "start_time": 128.1590909090909,
                "end_time": 128.35681818181817,
                "pitch": 47,
                "velocity": 80,
                "duration": 0.19772727272726343,
                "tempo": 120.0
            },
            {
                "start_time": 128.3590909090909,
                "end_time": 128.5590909090909,
                "pitch": 47,
                "velocity": 80,
                "duration": 0.20000000000001705,
                "tempo": 120.0
            },
            {
                "start_time": 128.5590909090909,
                "end_time": 128.76363636363635,
                "pitch": 47,
                "velocity": 80,
                "duration": 0.20454545454543904,
                "tempo": 120.0
            },
            {
                "start_time": 128.76363636363635,
                "end_time": 128.9659090909091,
                "pitch": 40,
                "velocity": 80,
                "duration": 0.20227272727274226,
                "tempo": 120.0
            },
            {
                "start_time": 128.9659090909091,
                "end_time": 129.16590909090908,
                "pitch": 40,
                "velocity": 80,
                "duration": 0.19999999999998863,
                "tempo": 120.0
            },
            {
                "start_time": 129.16590909090908,
                "end_time": 129.36590909090907,
                "pitch": 40,
                "velocity": 80,
                "duration": 0.19999999999998863,
                "tempo": 120.0
            },
            {
                "start_time": 129.36818181818182,
                "end_time": 129.5681818181818,
                "pitch": 40,
                "velocity": 80,
                "duration": 0.19999999999998863,
                "tempo": 120.0
            },
            {
                "start_time": 129.5681818181818,
                "end_time": 129.7681818181818,
                "pitch": 40,
                "velocity": 80,
                "duration": 0.19999999999998863,
                "tempo": 120.0
            },
            {
                "start_time": 129.7681818181818,
                "end_time": 129.96818181818182,
                "pitch": 40,
                "velocity": 80,
                "duration": 0.20000000000001705,
                "tempo": 120.0
            },
            {
                "start_time": 129.97045454545454,
                "end_time": 130.17045454545453,
                "pitch": 40,
                "velocity": 80,
                "duration": 0.19999999999998863,
                "tempo": 120.0
            },
            {
                "start_time": 130.17045454545453,
                "end_time": 130.37272727272727,
                "pitch": 40,
                "velocity": 80,
                "duration": 0.20227272727274226,
                "tempo": 120.0
            },
            {
                "start_time": 130.37272727272727,
                "end_time": 130.57272727272726,
                "pitch": 40,
                "velocity": 80,
                "duration": 0.19999999999998863,
                "tempo": 120.0
            },
            {
                "start_time": 130.57272727272726,
                "end_time": 130.775,
                "pitch": 40,
                "velocity": 80,
                "duration": 0.20227272727274226,
                "tempo": 120.0
            },
            {
                "start_time": 130.775,
                "end_time": 130.97727272727272,
                "pitch": 40,
                "velocity": 80,
                "duration": 0.20227272727271384,
                "tempo": 120.0
            },
            {
                "start_time": 130.97727272727272,
                "end_time": 131.1772727272727,
                "pitch": 40,
                "velocity": 80,
                "duration": 0.19999999999998863,
                "tempo": 120.0
            },
            {
                "start_time": 131.17954545454546,
                "end_time": 131.37954545454545,
                "pitch": 40,
                "velocity": 80,
                "duration": 0.19999999999998863,
                "tempo": 120.0
            },
            {
                "start_time": 131.38181818181818,
                "end_time": 131.58181818181816,
                "pitch": 40,
                "velocity": 80,
                "duration": 0.19999999999998863,
                "tempo": 120.0
            },
            {
                "start_time": 131.58181818181816,
                "end_time": 131.78181818181818,
                "pitch": 40,
                "velocity": 80,
                "duration": 0.20000000000001705,
                "tempo": 120.0
            },
            {
                "start_time": 131.78181818181818,
                "end_time": 131.98181818181817,
                "pitch": 40,
                "velocity": 80,
                "duration": 0.19999999999998863,
                "tempo": 120.0
            },
            {
                "start_time": 131.9840909090909,
                "end_time": 132.18863636363636,
                "pitch": 36,
                "velocity": 80,
                "duration": 0.20454545454546746,
                "tempo": 120.0
            },
            {
                "start_time": 132.18863636363636,
                "end_time": 132.3931818181818,
                "pitch": 36,
                "velocity": 80,
                "duration": 0.20454545454543904,
                "tempo": 120.0
            },
            {
                "start_time": 132.3931818181818,
                "end_time": 132.58863636363637,
                "pitch": 36,
                "velocity": 80,
                "duration": 0.19545454545456664,
                "tempo": 120.0
            },
            {
                "start_time": 132.5909090909091,
                "end_time": 132.78636363636363,
                "pitch": 36,
                "velocity": 80,
                "duration": 0.19545454545453822,
                "tempo": 120.0
            },
            {
                "start_time": 132.78636363636363,
                "end_time": 132.99090909090907,
                "pitch": 36,
                "velocity": 80,
                "duration": 0.20454545454543904,
                "tempo": 120.0
            },
            {
                "start_time": 132.99090909090907,
                "end_time": 133.19772727272726,
                "pitch": 36,
                "velocity": 80,
                "duration": 0.20681818181819267,
                "tempo": 120.0
            },
            {
                "start_time": 133.19772727272726,
                "end_time": 133.39772727272725,
                "pitch": 36,
                "velocity": 80,
                "duration": 0.19999999999998863,
                "tempo": 120.0
            },
            {
                "start_time": 133.4,
                "end_time": 133.60227272727272,
                "pitch": 36,
                "velocity": 80,
                "duration": 0.20227272727271384,
                "tempo": 120.0
            },
            {
                "start_time": 133.60227272727272,
                "end_time": 133.8022727272727,
                "pitch": 36,
                "velocity": 80,
                "duration": 0.19999999999998863,
                "tempo": 120.0
            },
            {
                "start_time": 133.8022727272727,
                "end_time": 134.00227272727273,
                "pitch": 36,
                "velocity": 80,
                "duration": 0.20000000000001705,
                "tempo": 120.0
            },
            {
                "start_time": 134.00454545454545,
                "end_time": 134.20454545454544,
                "pitch": 36,
                "velocity": 80,
                "duration": 0.19999999999998863,
                "tempo": 120.0
            },
            {
                "start_time": 134.20454545454544,
                "end_time": 134.40454545454546,
                "pitch": 36,
                "velocity": 80,
                "duration": 0.20000000000001705,
                "tempo": 120.0
            },
            {
                "start_time": 134.40454545454546,
                "end_time": 134.60681818181817,
                "pitch": 36,
                "velocity": 80,
                "duration": 0.20227272727271384,
                "tempo": 120.0
            },
            {
                "start_time": 134.60681818181817,
                "end_time": 134.8068181818182,
                "pitch": 36,
                "velocity": 80,
                "duration": 0.20000000000001705,
                "tempo": 120.0
            },
            {
                "start_time": 134.8068181818182,
                "end_time": 135.0090909090909,
                "pitch": 36,
                "velocity": 80,
                "duration": 0.20227272727271384,
                "tempo": 120.0
            },
            {
                "start_time": 135.0090909090909,
                "end_time": 135.21136363636364,
                "pitch": 36,
                "velocity": 80,
                "duration": 0.20227272727274226,
                "tempo": 120.0
            },
            {
                "start_time": 135.21136363636364,
                "end_time": 135.41363636363636,
                "pitch": 38,
                "velocity": 80,
                "duration": 0.20227272727271384,
                "tempo": 120.0
            },
            {
                "start_time": 135.41363636363636,
                "end_time": 135.61363636363635,
                "pitch": 38,
                "velocity": 80,
                "duration": 0.19999999999998863,
                "tempo": 120.0
            },
            {
                "start_time": 135.61363636363635,
                "end_time": 135.8159090909091,
                "pitch": 38,
                "velocity": 80,
                "duration": 0.20227272727274226,
                "tempo": 120.0
            },
            {
                "start_time": 135.8159090909091,
                "end_time": 136.0181818181818,
                "pitch": 38,
                "velocity": 80,
                "duration": 0.20227272727271384,
                "tempo": 120.0
            },
            {
                "start_time": 136.0181818181818,
                "end_time": 136.2159090909091,
                "pitch": 38,
                "velocity": 80,
                "duration": 0.19772727272729185,
                "tempo": 120.0
            },
            {
                "start_time": 136.21818181818182,
                "end_time": 136.4181818181818,
                "pitch": 38,
                "velocity": 80,
                "duration": 0.19999999999998863,
                "tempo": 120.0
            },
            {
                "start_time": 136.4181818181818,
                "end_time": 136.61818181818182,
                "pitch": 38,
                "velocity": 80,
                "duration": 0.20000000000001705,
                "tempo": 120.0
            },
            {
                "start_time": 136.62045454545455,
                "end_time": 136.82045454545454,
                "pitch": 38,
                "velocity": 80,
                "duration": 0.19999999999998863,
                "tempo": 120.0
            },
            {
                "start_time": 136.82272727272726,
                "end_time": 137.02045454545453,
                "pitch": 38,
                "velocity": 80,
                "duration": 0.19772727272726343,
                "tempo": 120.0
            },
            {
                "start_time": 137.02272727272725,
                "end_time": 137.22272727272727,
                "pitch": 38,
                "velocity": 80,
                "duration": 0.20000000000001705,
                "tempo": 120.0
            },
            {
                "start_time": 137.225,
                "end_time": 137.42499999999998,
                "pitch": 38,
                "velocity": 80,
                "duration": 0.19999999999998863,
                "tempo": 120.0
            },
            {
                "start_time": 137.4272727272727,
                "end_time": 137.62727272727273,
                "pitch": 38,
                "velocity": 80,
                "duration": 0.20000000000001705,
                "tempo": 120.0
            },
            {
                "start_time": 137.62727272727273,
                "end_time": 137.82954545454544,
                "pitch": 38,
                "velocity": 80,
                "duration": 0.20227272727271384,
                "tempo": 120.0
            },
            {
                "start_time": 137.82954545454544,
                "end_time": 138.02954545454546,
                "pitch": 38,
                "velocity": 80,
                "duration": 0.20000000000001705,
                "tempo": 120.0
            },
            {
                "start_time": 138.02954545454546,
                "end_time": 138.22954545454544,
                "pitch": 38,
                "velocity": 80,
                "duration": 0.19999999999998863,
                "tempo": 120.0
            },
            {
                "start_time": 138.23181818181817,
                "end_time": 138.4318181818182,
                "pitch": 38,
                "velocity": 80,
                "duration": 0.20000000000001705,
                "tempo": 120.0
            },
            {
                "start_time": 138.4318181818182,
                "end_time": 138.6340909090909,
                "pitch": 36,
                "velocity": 80,
                "duration": 0.20227272727271384,
                "tempo": 120.0
            },
            {
                "start_time": 138.6340909090909,
                "end_time": 138.8340909090909,
                "pitch": 36,
                "velocity": 80,
                "duration": 0.19999999999998863,
                "tempo": 120.0
            },
            {
                "start_time": 138.8340909090909,
                "end_time": 139.0340909090909,
                "pitch": 36,
                "velocity": 80,
                "duration": 0.20000000000001705,
                "tempo": 120.0
            },
            {
                "start_time": 139.03636363636363,
                "end_time": 139.23636363636362,
                "pitch": 36,
                "velocity": 80,
                "duration": 0.19999999999998863,
                "tempo": 120.0
            },
            {
                "start_time": 139.23863636363635,
                "end_time": 139.43863636363636,
                "pitch": 36,
                "velocity": 80,
                "duration": 0.20000000000001705,
                "tempo": 120.0
            },
            {
                "start_time": 139.43863636363636,
                "end_time": 139.64090909090908,
                "pitch": 36,
                "velocity": 80,
                "duration": 0.20227272727271384,
                "tempo": 120.0
            },
            {
                "start_time": 139.64090909090908,
                "end_time": 139.84318181818182,
                "pitch": 36,
                "velocity": 80,
                "duration": 0.20227272727274226,
                "tempo": 120.0
            },
            {
                "start_time": 139.84318181818182,
                "end_time": 140.0431818181818,
                "pitch": 36,
                "velocity": 80,
                "duration": 0.19999999999998863,
                "tempo": 120.0
            },
            {
                "start_time": 140.04545454545453,
                "end_time": 140.25,
                "pitch": 36,
                "velocity": 80,
                "duration": 0.20454545454546746,
                "tempo": 120.0
            },
            {
                "start_time": 140.25,
                "end_time": 140.45454545454544,
                "pitch": 36,
                "velocity": 80,
                "duration": 0.20454545454543904,
                "tempo": 120.0
            },
            {
                "start_time": 140.45454545454544,
                "end_time": 140.65,
                "pitch": 36,
                "velocity": 80,
                "duration": 0.19545454545456664,
                "tempo": 120.0
            },
            {
                "start_time": 140.65,
                "end_time": 140.84772727272727,
                "pitch": 36,
                "velocity": 80,
                "duration": 0.19772727272726343,
                "tempo": 120.0
            },
            {
                "start_time": 140.84772727272727,
                "end_time": 141.0522727272727,
                "pitch": 36,
                "velocity": 80,
                "duration": 0.20454545454543904,
                "tempo": 120.0
            },
            {
                "start_time": 141.05454545454546,
                "end_time": 141.2590909090909,
                "pitch": 36,
                "velocity": 80,
                "duration": 0.20454545454543904,
                "tempo": 120.0
            },
            {
                "start_time": 141.2590909090909,
                "end_time": 141.46136363636364,
                "pitch": 36,
                "velocity": 80,
                "duration": 0.20227272727274226,
                "tempo": 120.0
            },
            {
                "start_time": 141.46136363636364,
                "end_time": 141.66136363636363,
                "pitch": 36,
                "velocity": 80,
                "duration": 0.19999999999998863,
                "tempo": 120.0
            },
            {
                "start_time": 141.66363636363636,
                "end_time": 141.86363636363635,
                "pitch": 40,
                "velocity": 80,
                "duration": 0.19999999999998863,
                "tempo": 120.0
            },
            {
                "start_time": 141.86590909090907,
                "end_time": 142.0659090909091,
                "pitch": 40,
                "velocity": 80,
                "duration": 0.20000000000001705,
                "tempo": 120.0
            },
            {
                "start_time": 142.0659090909091,
                "end_time": 142.26590909090908,
                "pitch": 40,
                "velocity": 80,
                "duration": 0.19999999999998863,
                "tempo": 120.0
            },
            {
                "start_time": 142.2681818181818,
                "end_time": 142.46818181818182,
                "pitch": 40,
                "velocity": 80,
                "duration": 0.20000000000001705,
                "tempo": 120.0
            },
            {
                "start_time": 142.47045454545454,
                "end_time": 142.67045454545453,
                "pitch": 40,
                "velocity": 80,
                "duration": 0.19999999999998863,
                "tempo": 120.0
            },
            {
                "start_time": 142.67045454545453,
                "end_time": 142.87272727272727,
                "pitch": 40,
                "velocity": 80,
                "duration": 0.20227272727274226,
                "tempo": 120.0
            },
            {
                "start_time": 142.87272727272727,
                "end_time": 143.07045454545454,
                "pitch": 40,
                "velocity": 80,
                "duration": 0.19772727272726343,
                "tempo": 120.0
            },
            {
                "start_time": 143.07272727272726,
                "end_time": 143.27272727272725,
                "pitch": 40,
                "velocity": 80,
                "duration": 0.19999999999998863,
                "tempo": 120.0
            },
            {
                "start_time": 143.275,
                "end_time": 143.47272727272727,
                "pitch": 40,
                "velocity": 80,
                "duration": 0.19772727272726343,
                "tempo": 120.0
            },
            {
                "start_time": 143.47272727272727,
                "end_time": 143.67499999999998,
                "pitch": 40,
                "velocity": 80,
                "duration": 0.20227272727271384,
                "tempo": 120.0
            },
            {
                "start_time": 143.67499999999998,
                "end_time": 143.87727272727273,
                "pitch": 40,
                "velocity": 80,
                "duration": 0.20227272727274226,
                "tempo": 120.0
            },
            {
                "start_time": 143.87727272727273,
                "end_time": 144.0772727272727,
                "pitch": 40,
                "velocity": 80,
                "duration": 0.19999999999998863,
                "tempo": 120.0
            },
            {
                "start_time": 144.07954545454544,
                "end_time": 144.27954545454546,
                "pitch": 40,
                "velocity": 80,
                "duration": 0.20000000000001705,
                "tempo": 120.0
            },
            {
                "start_time": 144.28181818181818,
                "end_time": 144.48181818181817,
                "pitch": 40,
                "velocity": 80,
                "duration": 0.19999999999998863,
                "tempo": 120.0
            },
            {
                "start_time": 144.48181818181817,
                "end_time": 144.6840909090909,
                "pitch": 40,
                "velocity": 80,
                "duration": 0.20227272727274226,
                "tempo": 120.0
            },
            {
                "start_time": 144.6840909090909,
                "end_time": 144.8840909090909,
                "pitch": 40,
                "velocity": 80,
                "duration": 0.19999999999998863,
                "tempo": 120.0
            },
            {
                "start_time": 144.88636363636363,
                "end_time": 145.08636363636364,
                "pitch": 36,
                "velocity": 80,
                "duration": 0.20000000000001705,
                "tempo": 120.0
            },
            {
                "start_time": 145.08636363636364,
                "end_time": 145.28636363636363,
                "pitch": 36,
                "velocity": 80,
                "duration": 0.19999999999998863,
                "tempo": 120.0
            },
            {
                "start_time": 145.28636363636363,
                "end_time": 145.48636363636362,
                "pitch": 36,
                "velocity": 80,
                "duration": 0.19999999999998863,
                "tempo": 120.0
            },
            {
                "start_time": 145.48636363636362,
                "end_time": 145.68863636363636,
                "pitch": 36,
                "velocity": 80,
                "duration": 0.20227272727274226,
                "tempo": 120.0
            },
            {
                "start_time": 145.68863636363636,
                "end_time": 145.89090909090908,
                "pitch": 36,
                "velocity": 80,
                "duration": 0.20227272727271384,
                "tempo": 120.0
            },
            {
                "start_time": 145.89090909090908,
                "end_time": 146.0909090909091,
                "pitch": 36,
                "velocity": 80,
                "duration": 0.20000000000001705,
                "tempo": 120.0
            },
            {
                "start_time": 146.09318181818182,
                "end_time": 146.2931818181818,
                "pitch": 36,
                "velocity": 80,
                "duration": 0.19999999999998863,
                "tempo": 120.0
            },
            {
                "start_time": 146.2931818181818,
                "end_time": 146.49545454545455,
                "pitch": 36,
                "velocity": 80,
                "duration": 0.20227272727274226,
                "tempo": 120.0
            },
            {
                "start_time": 146.49772727272727,
                "end_time": 146.69772727272726,
                "pitch": 36,
                "velocity": 80,
                "duration": 0.19999999999998863,
                "tempo": 120.0
            },
            {
                "start_time": 146.69772727272726,
                "end_time": 146.89772727272725,
                "pitch": 36,
                "velocity": 80,
                "duration": 0.19999999999998863,
                "tempo": 120.0
            },
            {
                "start_time": 146.89772727272725,
                "end_time": 147.09772727272727,
                "pitch": 36,
                "velocity": 80,
                "duration": 0.20000000000001705,
                "tempo": 120.0
            },
            {
                "start_time": 147.1,
                "end_time": 147.29772727272726,
                "pitch": 36,
                "velocity": 80,
                "duration": 0.19772727272726343,
                "tempo": 120.0
            },
            {
                "start_time": 147.29999999999998,
                "end_time": 147.5,
                "pitch": 36,
                "velocity": 80,
                "duration": 0.20000000000001705,
                "tempo": 120.0
            },
            {
                "start_time": 147.50227272727273,
                "end_time": 147.7022727272727,
                "pitch": 36,
                "velocity": 80,
                "duration": 0.19999999999998863,
                "tempo": 120.0
            },
            {
                "start_time": 147.7022727272727,
                "end_time": 147.90454545454546,
                "pitch": 36,
                "velocity": 80,
                "duration": 0.20227272727274226,
                "tempo": 120.0
            },
            {
                "start_time": 147.90454545454546,
                "end_time": 148.10454545454544,
                "pitch": 36,
                "velocity": 80,
                "duration": 0.19999999999998863,
                "tempo": 120.0
            },
            {
                "start_time": 148.10681818181817,
                "end_time": 148.31136363636364,
                "pitch": 38,
                "velocity": 80,
                "duration": 0.20454545454546746,
                "tempo": 120.0
            },
            {
                "start_time": 148.31136363636364,
                "end_time": 148.51590909090908,
                "pitch": 38,
                "velocity": 80,
                "duration": 0.20454545454543904,
                "tempo": 120.0
            },
            {
                "start_time": 148.5181818181818,
                "end_time": 148.71818181818182,
                "pitch": 38,
                "velocity": 80,
                "duration": 0.20000000000001705,
                "tempo": 120.0
            },
            {
                "start_time": 148.71818181818182,
                "end_time": 148.92045454545453,
                "pitch": 38,
                "velocity": 80,
                "duration": 0.20227272727271384,
                "tempo": 120.0
            },
            {
                "start_time": 148.92045454545453,
                "end_time": 149.12045454545455,
                "pitch": 38,
                "velocity": 80,
                "duration": 0.20000000000001705,
                "tempo": 120.0
            },
            {
                "start_time": 149.12272727272727,
                "end_time": 149.32272727272726,
                "pitch": 38,
                "velocity": 80,
                "duration": 0.19999999999998863,
                "tempo": 120.0
            },
            {
                "start_time": 149.325,
                "end_time": 149.525,
                "pitch": 38,
                "velocity": 80,
                "duration": 0.20000000000001705,
                "tempo": 120.0
            },
            {
                "start_time": 149.525,
                "end_time": 149.72727272727272,
                "pitch": 38,
                "velocity": 80,
                "duration": 0.20227272727271384,
                "tempo": 120.0
            },
            {
                "start_time": 149.72727272727272,
                "end_time": 149.92499999999998,
                "pitch": 38,
                "velocity": 80,
                "duration": 0.19772727272726343,
                "tempo": 120.0
            },
            {
                "start_time": 149.9272727272727,
                "end_time": 150.12727272727273,
                "pitch": 38,
                "velocity": 80,
                "duration": 0.20000000000001705,
                "tempo": 120.0
            },
            {
                "start_time": 150.12727272727273,
                "end_time": 150.32954545454544,
                "pitch": 38,
                "velocity": 80,
                "duration": 0.20227272727271384,
                "tempo": 120.0
            },
            {
                "start_time": 150.32954545454544,
                "end_time": 150.52954545454546,
                "pitch": 38,
                "velocity": 80,
                "duration": 0.20000000000001705,
                "tempo": 120.0
            },
            {
                "start_time": 150.52954545454546,
                "end_time": 150.73181818181817,
                "pitch": 38,
                "velocity": 80,
                "duration": 0.20227272727271384,
                "tempo": 120.0
            },
            {
                "start_time": 150.73181818181817,
                "end_time": 150.9318181818182,
                "pitch": 38,
                "velocity": 80,
                "duration": 0.20000000000001705,
                "tempo": 120.0
            },
            {
                "start_time": 150.9340909090909,
                "end_time": 151.1340909090909,
                "pitch": 38,
                "velocity": 80,
                "duration": 0.19999999999998863,
                "tempo": 120.0
            },
            {
                "start_time": 151.13636363636363,
                "end_time": 151.33636363636364,
                "pitch": 38,
                "velocity": 80,
                "duration": 0.20000000000001705,
                "tempo": 120.0
            },
            {
                "start_time": 151.33863636363637,
                "end_time": 151.53863636363636,
                "pitch": 36,
                "velocity": 80,
                "duration": 0.19999999999998863,
                "tempo": 120.0
            },
            {
                "start_time": 151.53863636363636,
                "end_time": 151.73863636363635,
                "pitch": 36,
                "velocity": 80,
                "duration": 0.19999999999998863,
                "tempo": 120.0
            },
            {
                "start_time": 151.74090909090907,
                "end_time": 151.93863636363636,
                "pitch": 36,
                "velocity": 80,
                "duration": 0.19772727272729185,
                "tempo": 120.0
            },
            {
                "start_time": 151.9409090909091,
                "end_time": 152.14090909090908,
                "pitch": 36,
                "velocity": 80,
                "duration": 0.19999999999998863,
                "tempo": 120.0
            },
            {
                "start_time": 152.14090909090908,
                "end_time": 152.3409090909091,
                "pitch": 36,
                "velocity": 80,
                "duration": 0.20000000000001705,
                "tempo": 120.0
            },
            {
                "start_time": 152.34318181818182,
                "end_time": 152.5431818181818,
                "pitch": 36,
                "velocity": 80,
                "duration": 0.19999999999998863,
                "tempo": 120.0
            },
            {
                "start_time": 152.54545454545453,
                "end_time": 152.74545454545455,
                "pitch": 36,
                "velocity": 80,
                "duration": 0.20000000000001705,
                "tempo": 120.0
            },
            {
                "start_time": 152.74545454545455,
                "end_time": 152.94545454545454,
                "pitch": 36,
                "velocity": 80,
                "duration": 0.19999999999998863,
                "tempo": 120.0
            },
            {
                "start_time": 152.94772727272726,
                "end_time": 153.14772727272725,
                "pitch": 40,
                "velocity": 80,
                "duration": 0.19999999999998863,
                "tempo": 120.0
            },
            {
                "start_time": 153.15,
                "end_time": 153.34772727272727,
                "pitch": 40,
                "velocity": 80,
                "duration": 0.19772727272726343,
                "tempo": 120.0
            },
            {
                "start_time": 153.35,
                "end_time": 153.54999999999998,
                "pitch": 40,
                "velocity": 80,
                "duration": 0.19999999999998863,
                "tempo": 120.0
            },
            {
                "start_time": 153.5522727272727,
                "end_time": 153.75227272727273,
                "pitch": 40,
                "velocity": 80,
                "duration": 0.20000000000001705,
                "tempo": 120.0
            },
            {
                "start_time": 153.75227272727273,
                "end_time": 153.9522727272727,
                "pitch": 40,
                "velocity": 80,
                "duration": 0.19999999999998863,
                "tempo": 120.0
            },
            {
                "start_time": 153.9522727272727,
                "end_time": 154.15227272727273,
                "pitch": 40,
                "velocity": 80,
                "duration": 0.20000000000001705,
                "tempo": 120.0
            },
            {
                "start_time": 154.15227272727273,
                "end_time": 154.35454545454544,
                "pitch": 40,
                "velocity": 80,
                "duration": 0.20227272727271384,
                "tempo": 120.0
            },
            {
                "start_time": 154.35454545454544,
                "end_time": 154.5590909090909,
                "pitch": 40,
                "velocity": 80,
                "duration": 0.20454545454546746,
                "tempo": 120.0
            },
            {
                "start_time": 154.5590909090909,
                "end_time": 154.76136363636363,
                "pitch": 38,
                "velocity": 80,
                "duration": 0.20227272727271384,
                "tempo": 120.0
            },
            {
                "start_time": 154.76136363636363,
                "end_time": 154.96136363636361,
                "pitch": 38,
                "velocity": 80,
                "duration": 0.19999999999998863,
                "tempo": 120.0
            },
            {
                "start_time": 154.96136363636361,
                "end_time": 155.16363636363636,
                "pitch": 38,
                "velocity": 80,
                "duration": 0.20227272727274226,
                "tempo": 120.0
            },
            {
                "start_time": 155.16363636363636,
                "end_time": 155.36590909090907,
                "pitch": 38,
                "velocity": 80,
                "duration": 0.20227272727271384,
                "tempo": 120.0
            },
            {
                "start_time": 155.36590909090907,
                "end_time": 155.5659090909091,
                "pitch": 38,
                "velocity": 80,
                "duration": 0.20000000000001705,
                "tempo": 120.0
            },
            {
                "start_time": 155.5659090909091,
                "end_time": 155.7681818181818,
                "pitch": 38,
                "velocity": 80,
                "duration": 0.20227272727271384,
                "tempo": 120.0
            },
            {
                "start_time": 155.7681818181818,
                "end_time": 155.96818181818182,
                "pitch": 38,
                "velocity": 80,
                "duration": 0.20000000000001705,
                "tempo": 120.0
            },
            {
                "start_time": 155.97045454545454,
                "end_time": 156.1681818181818,
                "pitch": 38,
                "velocity": 80,
                "duration": 0.19772727272726343,
                "tempo": 120.0
            },
            {
                "start_time": 156.17045454545453,
                "end_time": 156.375,
                "pitch": 38,
                "velocity": 80,
                "duration": 0.20454545454546746,
                "tempo": 120.0
            },
            {
                "start_time": 156.375,
                "end_time": 156.57954545454544,
                "pitch": 38,
                "velocity": 80,
                "duration": 0.20454545454543904,
                "tempo": 120.0
            },
            {
                "start_time": 156.57954545454544,
                "end_time": 156.775,
                "pitch": 38,
                "velocity": 80,
                "duration": 0.19545454545456664,
                "tempo": 120.0
            },
            {
                "start_time": 156.77727272727273,
                "end_time": 156.97272727272727,
                "pitch": 38,
                "velocity": 80,
                "duration": 0.19545454545453822,
                "tempo": 120.0
            },
            {
                "start_time": 156.97272727272727,
                "end_time": 157.17499999999998,
                "pitch": 38,
                "velocity": 80,
                "duration": 0.20227272727271384,
                "tempo": 120.0
            },
            {
                "start_time": 157.17499999999998,
                "end_time": 157.375,
                "pitch": 38,
                "velocity": 80,
                "duration": 0.20000000000001705,
                "tempo": 120.0
            },
            {
                "start_time": 157.37727272727273,
                "end_time": 157.58181818181816,
                "pitch": 38,
                "velocity": 80,
                "duration": 0.20454545454543904,
                "tempo": 120.0
            },
            {
                "start_time": 157.58181818181816,
                "end_time": 157.78636363636363,
                "pitch": 38,
                "velocity": 80,
                "duration": 0.20454545454546746,
                "tempo": 120.0
            },
            {
                "start_time": 157.78863636363636,
                "end_time": 157.98863636363635,
                "pitch": 36,
                "velocity": 80,
                "duration": 0.19999999999998863,
                "tempo": 120.0
            },
            {
                "start_time": 157.99090909090907,
                "end_time": 158.1909090909091,
                "pitch": 36,
                "velocity": 80,
                "duration": 0.20000000000001705,
                "tempo": 120.0
            },
            {
                "start_time": 158.1909090909091,
                "end_time": 158.39090909090908,
                "pitch": 36,
                "velocity": 80,
                "duration": 0.19999999999998863,
                "tempo": 120.0
            },
            {
                "start_time": 158.39090909090908,
                "end_time": 158.5909090909091,
                "pitch": 36,
                "velocity": 80,
                "duration": 0.20000000000001705,
                "tempo": 120.0
            },
            {
                "start_time": 158.5909090909091,
                "end_time": 158.79090909090908,
                "pitch": 36,
                "velocity": 80,
                "duration": 0.19999999999998863,
                "tempo": 120.0
            },
            {
                "start_time": 158.7931818181818,
                "end_time": 158.99318181818182,
                "pitch": 36,
                "velocity": 80,
                "duration": 0.20000000000001705,
                "tempo": 120.0
            },
            {
                "start_time": 158.99545454545455,
                "end_time": 159.19545454545454,
                "pitch": 36,
                "velocity": 80,
                "duration": 0.19999999999998863,
                "tempo": 120.0
            },
            {
                "start_time": 159.19545454545454,
                "end_time": 159.39772727272725,
                "pitch": 36,
                "velocity": 80,
                "duration": 0.20227272727271384,
                "tempo": 120.0
            },
            {
                "start_time": 159.39772727272725,
                "end_time": 159.59772727272727,
                "pitch": 36,
                "velocity": 80,
                "duration": 0.20000000000001705,
                "tempo": 120.0
            },
            {
                "start_time": 159.6,
                "end_time": 159.79999999999998,
                "pitch": 36,
                "velocity": 80,
                "duration": 0.19999999999998863,
                "tempo": 120.0
            },
            {
                "start_time": 159.79999999999998,
                "end_time": 160.00227272727273,
                "pitch": 36,
                "velocity": 80,
                "duration": 0.20227272727274226,
                "tempo": 120.0
            },
            {
                "start_time": 160.00227272727273,
                "end_time": 160.20454545454544,
                "pitch": 36,
                "velocity": 80,
                "duration": 0.20227272727271384,
                "tempo": 120.0
            },
            {
                "start_time": 160.20454545454544,
                "end_time": 160.40454545454546,
                "pitch": 36,
                "velocity": 80,
                "duration": 0.20000000000001705,
                "tempo": 120.0
            },
            {
                "start_time": 160.40454545454546,
                "end_time": 160.60454545454544,
                "pitch": 36,
                "velocity": 80,
                "duration": 0.19999999999998863,
                "tempo": 120.0
            },
            {
                "start_time": 160.60454545454544,
                "end_time": 160.8068181818182,
                "pitch": 36,
                "velocity": 80,
                "duration": 0.20227272727274226,
                "tempo": 120.0
            },
            {
                "start_time": 160.8068181818182,
                "end_time": 161.0090909090909,
                "pitch": 36,
                "velocity": 80,
                "duration": 0.20227272727271384,
                "tempo": 120.0
            },
            {
                "start_time": 161.0090909090909,
                "end_time": 161.2090909090909,
                "pitch": 38,
                "velocity": 80,
                "duration": 0.19999999999998863,
                "tempo": 120.0
            },
            {
                "start_time": 161.21136363636361,
                "end_time": 161.41136363636363,
                "pitch": 38,
                "velocity": 80,
                "duration": 0.20000000000001705,
                "tempo": 120.0
            },
            {
                "start_time": 161.41136363636363,
                "end_time": 161.61136363636362,
                "pitch": 38,
                "velocity": 80,
                "duration": 0.19999999999998863,
                "tempo": 120.0
            },
            {
                "start_time": 161.61363636363635,
                "end_time": 161.81363636363636,
                "pitch": 38,
                "velocity": 80,
                "duration": 0.20000000000001705,
                "tempo": 120.0
            },
            {
                "start_time": 161.8159090909091,
                "end_time": 162.01590909090908,
                "pitch": 38,
                "velocity": 80,
                "duration": 0.19999999999998863,
                "tempo": 120.0
            },
            {
                "start_time": 162.01590909090908,
                "end_time": 162.21818181818182,
                "pitch": 38,
                "velocity": 80,
                "duration": 0.20227272727274226,
                "tempo": 120.0
            },
            {
                "start_time": 162.21818181818182,
                "end_time": 162.4181818181818,
                "pitch": 38,
                "velocity": 80,
                "duration": 0.19999999999998863,
                "tempo": 120.0
            },
            {
                "start_time": 162.4181818181818,
                "end_time": 162.61818181818182,
                "pitch": 38,
                "velocity": 80,
                "duration": 0.20000000000001705,
                "tempo": 120.0
            },
            {
                "start_time": 162.61818181818182,
                "end_time": 162.8181818181818,
                "pitch": 38,
                "velocity": 80,
                "duration": 0.19999999999998863,
                "tempo": 120.0
            },
            {
                "start_time": 162.82045454545454,
                "end_time": 163.02045454545453,
                "pitch": 38,
                "velocity": 80,
                "duration": 0.19999999999998863,
                "tempo": 120.0
            },
            {
                "start_time": 163.02272727272725,
                "end_time": 163.22272727272727,
                "pitch": 38,
                "velocity": 80,
                "duration": 0.20000000000001705,
                "tempo": 120.0
            },
            {
                "start_time": 163.22272727272727,
                "end_time": 163.42499999999998,
                "pitch": 38,
                "velocity": 80,
                "duration": 0.20227272727271384,
                "tempo": 120.0
            },
            {
                "start_time": 163.42499999999998,
                "end_time": 163.625,
                "pitch": 38,
                "velocity": 80,
                "duration": 0.20000000000001705,
                "tempo": 120.0
            },
            {
                "start_time": 163.62727272727273,
                "end_time": 163.8272727272727,
                "pitch": 38,
                "velocity": 80,
                "duration": 0.19999999999998863,
                "tempo": 120.0
            },
            {
                "start_time": 163.8272727272727,
                "end_time": 164.0340909090909,
                "pitch": 38,
                "velocity": 80,
                "duration": 0.20681818181819267,
                "tempo": 120.0
            },
            {
                "start_time": 164.0340909090909,
                "end_time": 164.24090909090907,
                "pitch": 38,
                "velocity": 80,
                "duration": 0.20681818181816425,
                "tempo": 120.0
            },
            {
                "start_time": 164.24090909090907,
                "end_time": 164.4409090909091,
                "pitch": 36,
                "velocity": 80,
                "duration": 0.20000000000001705,
                "tempo": 120.0
            },
            {
                "start_time": 164.4431818181818,
                "end_time": 164.64090909090908,
                "pitch": 36,
                "velocity": 80,
                "duration": 0.19772727272726343,
                "tempo": 120.0
            },
            {
                "start_time": 164.6431818181818,
                "end_time": 164.83863636363637,
                "pitch": 36,
                "velocity": 80,
                "duration": 0.19545454545456664,
                "tempo": 120.0
            },
            {
                "start_time": 164.83863636363637,
                "end_time": 165.0340909090909,
                "pitch": 36,
                "velocity": 80,
                "duration": 0.19545454545453822,
                "tempo": 120.0
            },
            {
                "start_time": 165.03636363636363,
                "end_time": 165.23863636363635,
                "pitch": 36,
                "velocity": 80,
                "duration": 0.20227272727271384,
                "tempo": 120.0
            },
            {
                "start_time": 165.23863636363635,
                "end_time": 165.43863636363636,
                "pitch": 36,
                "velocity": 80,
                "duration": 0.20000000000001705,
                "tempo": 120.0
            },
            {
                "start_time": 165.4409090909091,
                "end_time": 165.6431818181818,
                "pitch": 36,
                "velocity": 80,
                "duration": 0.20227272727271384,
                "tempo": 120.0
            },
            {
                "start_time": 165.64545454545453,
                "end_time": 165.85,
                "pitch": 36,
                "velocity": 80,
                "duration": 0.20454545454546746,
                "tempo": 120.0
            },
            {
                "start_time": 165.85227272727272,
                "end_time": 166.04545454545453,
                "pitch": 36,
                "velocity": 80,
                "duration": 0.19318181818181301,
                "tempo": 120.0
            },
            {
                "start_time": 166.04772727272726,
                "end_time": 166.2431818181818,
                "pitch": 36,
                "velocity": 80,
                "duration": 0.19545454545453822,
                "tempo": 120.0
            },
            {
                "start_time": 166.2431818181818,
                "end_time": 166.44772727272726,
                "pitch": 36,
                "velocity": 80,
                "duration": 0.20454545454546746,
                "tempo": 120.0
            },
            {
                "start_time": 166.45,
                "end_time": 166.65454545454546,
                "pitch": 36,
                "velocity": 80,
                "duration": 0.20454545454546746,
                "tempo": 120.0
            },
            {
                "start_time": 166.65454545454546,
                "end_time": 166.85,
                "pitch": 36,
                "velocity": 80,
                "duration": 0.19545454545453822,
                "tempo": 120.0
            },
            {
                "start_time": 166.85,
                "end_time": 167.04545454545453,
                "pitch": 36,
                "velocity": 80,
                "duration": 0.19545454545453822,
                "tempo": 120.0
            },
            {
                "start_time": 167.04772727272726,
                "end_time": 167.25227272727273,
                "pitch": 36,
                "velocity": 80,
                "duration": 0.20454545454546746,
                "tempo": 120.0
            },
            {
                "start_time": 167.25454545454545,
                "end_time": 167.4590909090909,
                "pitch": 36,
                "velocity": 80,
                "duration": 0.20454545454543904,
                "tempo": 120.0
            },
            {
                "start_time": 167.4590909090909,
                "end_time": 167.6590909090909,
                "pitch": 40,
                "velocity": 80,
                "duration": 0.20000000000001705,
                "tempo": 120.0
            },
            {
                "start_time": 167.6590909090909,
                "end_time": 167.8590909090909,
                "pitch": 40,
                "velocity": 80,
                "duration": 0.19999999999998863,
                "tempo": 120.0
            },
            {
                "start_time": 167.8590909090909,
                "end_time": 168.0590909090909,
                "pitch": 40,
                "velocity": 80,
                "duration": 0.20000000000001705,
                "tempo": 120.0
            },
            {
                "start_time": 168.0590909090909,
                "end_time": 168.26136363636363,
                "pitch": 40,
                "velocity": 80,
                "duration": 0.20227272727271384,
                "tempo": 120.0
            },
            {
                "start_time": 168.26136363636363,
                "end_time": 168.46136363636361,
                "pitch": 40,
                "velocity": 80,
                "duration": 0.19999999999998863,
                "tempo": 120.0
            },
            {
                "start_time": 168.46363636363637,
                "end_time": 168.66363636363636,
                "pitch": 40,
                "velocity": 80,
                "duration": 0.19999999999998863,
                "tempo": 120.0
            },
            {
                "start_time": 168.66590909090908,
                "end_time": 168.86590909090907,
                "pitch": 40,
                "velocity": 80,
                "duration": 0.19999999999998863,
                "tempo": 120.0
            },
            {
                "start_time": 168.86590909090907,
                "end_time": 169.26590909090908,
                "pitch": 38,
                "velocity": 80,
                "duration": 0.4000000000000057,
                "tempo": 120.0
            },
            {
                "start_time": 169.2681818181818,
                "end_time": 169.46818181818182,
                "pitch": 38,
                "velocity": 80,
                "duration": 0.20000000000001705,
                "tempo": 120.0
            },
            {
                "start_time": 169.46818181818182,
                "end_time": 169.67045454545453,
                "pitch": 38,
                "velocity": 80,
                "duration": 0.20227272727271384,
                "tempo": 120.0
            },
            {
                "start_time": 169.67045454545453,
                "end_time": 169.87045454545455,
                "pitch": 38,
                "velocity": 80,
                "duration": 0.20000000000001705,
                "tempo": 120.0
            },
            {
                "start_time": 169.87272727272727,
                "end_time": 170.07272727272726,
                "pitch": 38,
                "velocity": 80,
                "duration": 0.19999999999998863,
                "tempo": 120.0
            },
            {
                "start_time": 170.075,
                "end_time": 170.275,
                "pitch": 38,
                "velocity": 80,
                "duration": 0.20000000000001705,
                "tempo": 120.0
            },
            {
                "start_time": 170.275,
                "end_time": 170.6772727272727,
                "pitch": 38,
                "velocity": 80,
                "duration": 0.40227272727270247,
                "tempo": 120.0
            },
            {
                "start_time": 170.67954545454543,
                "end_time": 170.87954545454545,
                "pitch": 40,
                "velocity": 80,
                "duration": 0.20000000000001705,
                "tempo": 120.0
            },
            {
                "start_time": 170.88181818181818,
                "end_time": 171.08181818181816,
                "pitch": 40,
                "velocity": 80,
                "duration": 0.19999999999998863,
                "tempo": 120.0
            },
            {
                "start_time": 171.08181818181816,
                "end_time": 171.28181818181818,
                "pitch": 40,
                "velocity": 80,
                "duration": 0.20000000000001705,
                "tempo": 120.0
            },
            {
                "start_time": 171.28181818181818,
                "end_time": 171.48181818181817,
                "pitch": 40,
                "velocity": 80,
                "duration": 0.19999999999998863,
                "tempo": 120.0
            },
            {
                "start_time": 171.48181818181817,
                "end_time": 171.6818181818182,
                "pitch": 40,
                "velocity": 80,
                "duration": 0.20000000000001705,
                "tempo": 120.0
            },
            {
                "start_time": 171.6840909090909,
                "end_time": 171.8840909090909,
                "pitch": 40,
                "velocity": 80,
                "duration": 0.19999999999998863,
                "tempo": 120.0
            },
            {
                "start_time": 171.88636363636363,
                "end_time": 172.0909090909091,
                "pitch": 40,
                "velocity": 80,
                "duration": 0.20454545454546746,
                "tempo": 120.0
            },
            {
                "start_time": 172.0909090909091,
                "end_time": 172.49090909090907,
                "pitch": 43,
                "velocity": 80,
                "duration": 0.39999999999997726,
                "tempo": 120.0
            },
            {
                "start_time": 172.49090909090907,
                "end_time": 172.68863636363636,
                "pitch": 43,
                "velocity": 80,
                "duration": 0.19772727272729185,
                "tempo": 120.0
            },
            {
                "start_time": 172.68863636363636,
                "end_time": 172.8931818181818,
                "pitch": 43,
                "velocity": 80,
                "duration": 0.20454545454543904,
                "tempo": 120.0
            },
            {
                "start_time": 172.89545454545453,
                "end_time": 173.1,
                "pitch": 43,
                "velocity": 80,
                "duration": 0.20454545454546746,
                "tempo": 120.0
            },
            {
                "start_time": 173.1,
                "end_time": 173.3022727272727,
                "pitch": 43,
                "velocity": 80,
                "duration": 0.20227272727271384,
                "tempo": 120.0
            },
            {
                "start_time": 173.3022727272727,
                "end_time": 173.50227272727273,
                "pitch": 43,
                "velocity": 80,
                "duration": 0.20000000000001705,
                "tempo": 120.0
            },
            {
                "start_time": 173.50454545454545,
                "end_time": 173.90454545454546,
                "pitch": 45,
                "velocity": 80,
                "duration": 0.4000000000000057,
                "tempo": 120.0
            },
            {
                "start_time": 173.90454545454546,
                "end_time": 174.10681818181817,
                "pitch": 40,
                "velocity": 80,
                "duration": 0.20227272727271384,
                "tempo": 120.0
            },
            {
                "start_time": 174.10681818181817,
                "end_time": 174.3068181818182,
                "pitch": 40,
                "velocity": 80,
                "duration": 0.20000000000001705,
                "tempo": 120.0
            },
            {
                "start_time": 174.3068181818182,
                "end_time": 174.50681818181818,
                "pitch": 40,
                "velocity": 80,
                "duration": 0.19999999999998863,
                "tempo": 120.0
            },
            {
                "start_time": 174.5090909090909,
                "end_time": 174.7090909090909,
                "pitch": 40,
                "velocity": 80,
                "duration": 0.19999999999998863,
                "tempo": 120.0
            },
            {
                "start_time": 174.71136363636361,
                "end_time": 174.91136363636363,
                "pitch": 40,
                "velocity": 80,
                "duration": 0.20000000000001705,
                "tempo": 120.0
            },
            {
                "start_time": 174.91136363636363,
                "end_time": 175.11363636363635,
                "pitch": 40,
                "velocity": 80,
                "duration": 0.20227272727271384,
                "tempo": 120.0
            },
            {
                "start_time": 175.11363636363635,
                "end_time": 175.31363636363636,
                "pitch": 40,
                "velocity": 80,
                "duration": 0.20000000000001705,
                "tempo": 120.0
            },
            {
                "start_time": 175.3159090909091,
                "end_time": 175.7159090909091,
                "pitch": 38,
                "velocity": 80,
                "duration": 0.4000000000000057,
                "tempo": 120.0
            },
            {
                "start_time": 175.7159090909091,
                "end_time": 175.91590909090908,
                "pitch": 38,
                "velocity": 80,
                "duration": 0.19999999999998863,
                "tempo": 120.0
            },
            {
                "start_time": 175.9181818181818,
                "end_time": 176.1181818181818,
                "pitch": 38,
                "velocity": 80,
                "duration": 0.19999999999998863,
                "tempo": 120.0
            },
            {
                "start_time": 176.12045454545455,
                "end_time": 176.32045454545454,
                "pitch": 38,
                "velocity": 80,
                "duration": 0.19999999999998863,
                "tempo": 120.0
            },
            {
                "start_time": 176.32045454545454,
                "end_time": 176.52272727272725,
                "pitch": 38,
                "velocity": 80,
                "duration": 0.20227272727271384,
                "tempo": 120.0
            },
            {
                "start_time": 176.52272727272725,
                "end_time": 176.72272727272727,
                "pitch": 38,
                "velocity": 80,
                "duration": 0.20000000000001705,
                "tempo": 120.0
            },
            {
                "start_time": 176.725,
                "end_time": 177.12727272727273,
                "pitch": 38,
                "velocity": 80,
                "duration": 0.4022727272727309,
                "tempo": 120.0
            },
            {
                "start_time": 177.12727272727273,
                "end_time": 177.3272727272727,
                "pitch": 36,
                "velocity": 80,
                "duration": 0.19999999999998863,
                "tempo": 120.0
            },
            {
                "start_time": 177.32954545454544,
                "end_time": 177.52954545454546,
                "pitch": 36,
                "velocity": 80,
                "duration": 0.20000000000001705,
                "tempo": 120.0
            },
            {
                "start_time": 177.52954545454546,
                "end_time": 177.72954545454544,
                "pitch": 36,
                "velocity": 80,
                "duration": 0.19999999999998863,
                "tempo": 120.0
            },
            {
                "start_time": 177.73181818181817,
                "end_time": 177.92954545454543,
                "pitch": 36,
                "velocity": 80,
                "duration": 0.19772727272726343,
                "tempo": 120.0
            },
            {
                "start_time": 177.92954545454543,
                "end_time": 178.13181818181818,
                "pitch": 36,
                "velocity": 80,
                "duration": 0.20227272727274226,
                "tempo": 120.0
            },
            {
                "start_time": 178.13181818181818,
                "end_time": 178.3340909090909,
                "pitch": 36,
                "velocity": 80,
                "duration": 0.20227272727271384,
                "tempo": 120.0
            },
            {
                "start_time": 178.3340909090909,
                "end_time": 178.5340909090909,
                "pitch": 36,
                "velocity": 80,
                "duration": 0.20000000000001705,
                "tempo": 120.0
            },
            {
                "start_time": 178.53636363636363,
                "end_time": 178.73636363636362,
                "pitch": 36,
                "velocity": 80,
                "duration": 0.19999999999998863,
                "tempo": 120.0
            },
            {
                "start_time": 178.73863636363635,
                "end_time": 178.93863636363636,
                "pitch": 33,
                "velocity": 80,
                "duration": 0.20000000000001705,
                "tempo": 120.0
            },
            {
                "start_time": 178.93863636363636,
                "end_time": 179.13863636363635,
                "pitch": 33,
                "velocity": 80,
                "duration": 0.19999999999998863,
                "tempo": 120.0
            },
            {
                "start_time": 179.13863636363635,
                "end_time": 179.3409090909091,
                "pitch": 33,
                "velocity": 80,
                "duration": 0.20227272727274226,
                "tempo": 120.0
            },
            {
                "start_time": 179.3409090909091,
                "end_time": 179.5431818181818,
                "pitch": 33,
                "velocity": 80,
                "duration": 0.20227272727271384,
                "tempo": 120.0
            },
            {
                "start_time": 179.5431818181818,
                "end_time": 179.7431818181818,
                "pitch": 33,
                "velocity": 80,
                "duration": 0.19999999999998863,
                "tempo": 120.0
            },
            {
                "start_time": 179.7431818181818,
                "end_time": 179.9431818181818,
                "pitch": 33,
                "velocity": 80,
                "duration": 0.20000000000001705,
                "tempo": 120.0
            }
        ],
        "Electric Piano 1": [
            {
                "start_time": 24.16590909090909,
                "end_time": 24.361363636363635,
                "pitch": 75,
                "velocity": 80,
                "duration": 0.19545454545454533,
                "tempo": 120.0
            },
            {
                "start_time": 24.363636363636363,
                "end_time": 24.763636363636362,
                "pitch": 74,
                "velocity": 80,
                "duration": 0.3999999999999986,
                "tempo": 120.0
            },
            {
                "start_time": 24.76590909090909,
                "end_time": 24.831818181818182,
                "pitch": 63,
                "velocity": 80,
                "duration": 0.06590909090909136,
                "tempo": 120.0
            },
            {
                "start_time": 24.831818181818182,
                "end_time": 24.847727272727273,
                "pitch": 61,
                "velocity": 80,
                "duration": 0.01590909090909065,
                "tempo": 120.0
            },
            {
                "start_time": 24.847727272727273,
                "end_time": 24.91590909090909,
                "pitch": 64,
                "velocity": 80,
                "duration": 0.06818181818181657,
                "tempo": 120.0
            },
            {
                "start_time": 24.91590909090909,
                "end_time": 25.03181818181818,
                "pitch": 61,
                "velocity": 80,
                "duration": 0.11590909090909207,
                "tempo": 120.0
            },
            {
                "start_time": 25.03181818181818,
                "end_time": 25.097727272727273,
                "pitch": 63,
                "velocity": 80,
                "duration": 0.06590909090909136,
                "tempo": 120.0
            },
            {
                "start_time": 25.097727272727273,
                "end_time": 25.113636363636363,
                "pitch": 61,
                "velocity": 80,
                "duration": 0.01590909090909065,
                "tempo": 120.0
            },
            {
                "start_time": 25.113636363636363,
                "end_time": 25.161363636363635,
                "pitch": 64,
                "velocity": 80,
                "duration": 0.04772727272727195,
                "tempo": 120.0
            },
            {
                "start_time": 25.163636363636364,
                "end_time": 25.563636363636363,
                "pitch": 50,
                "velocity": 80,
                "duration": 0.3999999999999986,
                "tempo": 120.0
            },
            {
                "start_time": 25.972727272727273,
                "end_time": 26.584090909090907,
                "pitch": 57,
                "velocity": 64,
                "duration": 0.6113636363636346,
                "tempo": 120.0
            },
            {
                "start_time": 26.586363636363636,
                "end_time": 27.186363636363634,
                "pitch": 59,
                "velocity": 64,
                "duration": 0.5999999999999979,
                "tempo": 120.0
            },
            {
                "start_time": 27.188636363636363,
                "end_time": 27.988636363636363,
                "pitch": 60,
                "velocity": 64,
                "duration": 0.8000000000000007,
                "tempo": 120.0
            },
            {
                "start_time": 27.99090909090909,
                "end_time": 28.39090909090909,
                "pitch": 62,
                "velocity": 64,
                "duration": 0.40000000000000213,
                "tempo": 120.0
            },
            {
                "start_time": 28.393181818181816,
                "end_time": 28.593181818181815,
                "pitch": 60,
                "velocity": 64,
                "duration": 0.1999999999999993,
                "tempo": 120.0
            },
            {
                "start_time": 28.593181818181815,
                "end_time": 28.793181818181818,
                "pitch": 59,
                "velocity": 64,
                "duration": 0.20000000000000284,
                "tempo": 120.0
            },
            {
                "start_time": 28.793181818181818,
                "end_time": 28.993181818181817,
                "pitch": 57,
                "velocity": 64,
                "duration": 0.1999999999999993,
                "tempo": 120.0
            },
            {
                "start_time": 28.995454545454542,
                "end_time": 29.195454545454545,
                "pitch": 59,
                "velocity": 64,
                "duration": 0.20000000000000284,
                "tempo": 120.0
            },
            {
                "start_time": 29.195454545454545,
                "end_time": 29.795454545454543,
                "pitch": 60,
                "velocity": 64,
                "duration": 0.5999999999999979,
                "tempo": 120.0
            },
            {
                "start_time": 29.797727272727272,
                "end_time": 30.19772727272727,
                "pitch": 57,
                "velocity": 64,
                "duration": 0.3999999999999986,
                "tempo": 120.0
            },
            {
                "start_time": 30.19772727272727,
                "end_time": 30.39772727272727,
                "pitch": 55,
                "velocity": 64,
                "duration": 0.1999999999999993,
                "tempo": 120.0
            },
            {
                "start_time": 30.4,
                "end_time": 31.815909090909088,
                "pitch": 53,
                "velocity": 64,
                "duration": 1.4159090909090892,
                "tempo": 120.0
            },
            {
                "start_time": 31.818181818181817,
                "end_time": 32.01590909090909,
                "pitch": 52,
                "velocity": 64,
                "duration": 0.19772727272727408,
                "tempo": 120.0
            },
            {
                "start_time": 32.018181818181816,
                "end_time": 32.215909090909086,
                "pitch": 53,
                "velocity": 64,
                "duration": 0.19772727272727053,
                "tempo": 120.0
            },
            {
                "start_time": 32.21818181818182,
                "end_time": 32.418181818181814,
                "pitch": 55,
                "velocity": 64,
                "duration": 0.19999999999999574,
                "tempo": 120.0
            },
            {
                "start_time": 32.418181818181814,
                "end_time": 33.02045454545454,
                "pitch": 57,
                "velocity": 64,
                "duration": 0.6022727272727266,
                "tempo": 120.0
            },
            {
                "start_time": 33.02045454545454,
                "end_time": 33.61818181818182,
                "pitch": 59,
                "velocity": 64,
                "duration": 0.5977272727272762,
                "tempo": 120.0
            },
            {
                "start_time": 33.61818181818182,
                "end_time": 34.425,
                "pitch": 60,
                "velocity": 64,
                "duration": 0.8068181818181799,
                "tempo": 120.0
            },
            {
                "start_time": 34.42727272727272,
                "end_time": 34.82727272727273,
                "pitch": 65,
                "velocity": 64,
                "duration": 0.4000000000000057,
                "tempo": 120.0
            },
            {
                "start_time": 34.82954545454545,
                "end_time": 35.029545454545456,
                "pitch": 64,
                "velocity": 64,
                "duration": 0.20000000000000284,
                "tempo": 120.0
            },
            {
                "start_time": 35.029545454545456,
                "end_time": 35.22954545454545,
                "pitch": 62,
                "velocity": 64,
                "duration": 0.19999999999999574,
                "tempo": 120.0
            },
            {
                "start_time": 35.22954545454545,
                "end_time": 35.429545454545455,
                "pitch": 60,
                "velocity": 64,
                "duration": 0.20000000000000284,
                "tempo": 120.0
            },
            {
                "start_time": 35.429545454545455,
                "end_time": 35.62954545454545,
                "pitch": 62,
                "velocity": 64,
                "duration": 0.19999999999999574,
                "tempo": 120.0
            },
            {
                "start_time": 35.62954545454545,
                "end_time": 36.029545454545456,
                "pitch": 64,
                "velocity": 64,
                "duration": 0.4000000000000057,
                "tempo": 120.0
            },
            {
                "start_time": 36.03181818181818,
                "end_time": 36.22954545454545,
                "pitch": 62,
                "velocity": 64,
                "duration": 0.19772727272727053,
                "tempo": 120.0
            },
            {
                "start_time": 36.23181818181818,
                "end_time": 36.63181818181818,
                "pitch": 57,
                "velocity": 64,
                "duration": 0.4000000000000057,
                "tempo": 120.0
            },
            {
                "start_time": 36.63409090909091,
                "end_time": 37.03409090909091,
                "pitch": 67,
                "velocity": 64,
                "duration": 0.3999999999999986,
                "tempo": 120.0
            },
            {
                "start_time": 37.03409090909091,
                "end_time": 38.83863636363636,
                "pitch": 64,
                "velocity": 64,
                "duration": 1.8045454545454547,
                "tempo": 120.0
            },
            {
                "start_time": 38.83863636363636,
                "end_time": 39.43863636363636,
                "pitch": 57,
                "velocity": 64,
                "duration": 0.6000000000000014,
                "tempo": 120.0
            },
            {
                "start_time": 39.44090909090909,
                "end_time": 40.038636363636364,
                "pitch": 59,
                "velocity": 64,
                "duration": 0.5977272727272762,
                "tempo": 120.0
            },
            {
                "start_time": 40.04090909090909,
                "end_time": 40.85,
                "pitch": 60,
                "velocity": 64,
                "duration": 0.8090909090909122,
                "tempo": 120.0
            },
            {
                "start_time": 40.85,
                "end_time": 41.25454545454545,
                "pitch": 62,
                "velocity": 64,
                "duration": 0.404545454545449,
                "tempo": 120.0
            },
            {
                "start_time": 41.25681818181818,
                "end_time": 41.45681818181818,
                "pitch": 60,
                "velocity": 64,
                "duration": 0.19999999999999574,
                "tempo": 120.0
            },
            {
                "start_time": 41.45681818181818,
                "end_time": 41.65681818181818,
                "pitch": 59,
                "velocity": 64,
                "duration": 0.20000000000000284,
                "tempo": 120.0
            },
            {
                "start_time": 41.65909090909091,
                "end_time": 41.85909090909091,
                "pitch": 57,
                "velocity": 64,
                "duration": 0.20000000000000284,
                "tempo": 120.0
            },
            {
                "start_time": 41.861363636363635,
                "end_time": 42.059090909090905,
                "pitch": 59,
                "velocity": 64,
                "duration": 0.19772727272727053,
                "tempo": 120.0
            },
            {
                "start_time": 42.059090909090905,
                "end_time": 42.65909090909091,
                "pitch": 60,
                "velocity": 64,
                "duration": 0.6000000000000014,
                "tempo": 120.0
            },
            {
                "start_time": 42.66136363636363,
                "end_time": 43.06136363636364,
                "pitch": 57,
                "velocity": 64,
                "duration": 0.4000000000000057,
                "tempo": 120.0
            },
            {
                "start_time": 43.06136363636364,
                "end_time": 43.26136363636363,
                "pitch": 55,
                "velocity": 64,
                "duration": 0.19999999999999574,
                "tempo": 120.0
            },
            {
                "start_time": 43.26136363636363,
                "end_time": 44.66590909090909,
                "pitch": 53,
                "velocity": 64,
                "duration": 1.404545454545456,
                "tempo": 120.0
            },
            {
                "start_time": 44.66590909090909,
                "end_time": 44.86590909090909,
                "pitch": 57,
                "velocity": 64,
                "duration": 0.20000000000000284,
                "tempo": 120.0
            },
            {
                "start_time": 44.86590909090909,
                "end_time": 45.06590909090909,
                "pitch": 59,
                "velocity": 64,
                "duration": 0.19999999999999574,
                "tempo": 120.0
            },
            {
                "start_time": 45.06818181818181,
                "end_time": 45.26590909090909,
                "pitch": 60,
                "velocity": 64,
                "duration": 0.19772727272727764,
                "tempo": 120.0
            },
            {
                "start_time": 45.26590909090909,
                "end_time": 45.668181818181814,
                "pitch": 59,
                "velocity": 64,
                "duration": 0.4022727272727238,
                "tempo": 120.0
            },
            {
                "start_time": 45.668181818181814,
                "end_time": 45.86818181818182,
                "pitch": 55,
                "velocity": 64,
                "duration": 0.20000000000000284,
                "tempo": 120.0
            },
            {
                "start_time": 45.87045454545454,
                "end_time": 46.27045454545454,
                "pitch": 52,
                "velocity": 64,
                "duration": 0.3999999999999986,
                "tempo": 120.0
            },
            {
                "start_time": 46.27045454545454,
                "end_time": 46.470454545454544,
                "pitch": 52,
                "velocity": 64,
                "duration": 0.20000000000000284,
                "tempo": 120.0
            },
            {
                "start_time": 46.470454545454544,
                "end_time": 46.67045454545454,
                "pitch": 55,
                "velocity": 64,
                "duration": 0.19999999999999574,
                "tempo": 120.0
            },
            {
                "start_time": 46.67272727272727,
                "end_time": 46.877272727272725,
                "pitch": 59,
                "velocity": 64,
                "duration": 0.20454545454545325,
                "tempo": 120.0
            },
            {
                "start_time": 46.877272727272725,
                "end_time": 47.08181818181818,
                "pitch": 62,
                "velocity": 64,
                "duration": 0.20454545454545325,
                "tempo": 120.0
            },
            {
                "start_time": 47.084090909090904,
                "end_time": 47.28409090909091,
                "pitch": 60,
                "velocity": 64,
                "duration": 0.20000000000000284,
                "tempo": 120.0
            },
            {
                "start_time": 47.28409090909091,
                "end_time": 47.48409090909091,
                "pitch": 59,
                "velocity": 64,
                "duration": 0.20000000000000284,
                "tempo": 120.0
            },
            {
                "start_time": 47.486363636363635,
                "end_time": 47.68181818181818,
                "pitch": 62,
                "velocity": 64,
                "duration": 0.19545454545454533,
                "tempo": 120.0
            },
            {
                "start_time": 47.68181818181818,
                "end_time": 47.877272727272725,
                "pitch": 60,
                "velocity": 64,
                "duration": 0.19545454545454533,
                "tempo": 120.0
            },
            {
                "start_time": 47.87954545454545,
                "end_time": 48.277272727272724,
                "pitch": 59,
                "velocity": 64,
                "duration": 0.3977272727272734,
                "tempo": 120.0
            },
            {
                "start_time": 48.27954545454545,
                "end_time": 50.09318181818182,
                "pitch": 57,
                "velocity": 64,
                "duration": 1.8136363636363697,
                "tempo": 120.0
            },
            {
                "start_time": 51.699999999999996,
                "end_time": 52.099999999999994,
                "pitch": 55,
                "velocity": 64,
                "duration": 0.3999999999999986,
                "tempo": 120.0
            },
            {
                "start_time": 52.099999999999994,
                "end_time": 52.3,
                "pitch": 55,
                "velocity": 64,
                "duration": 0.20000000000000284,
                "tempo": 120.0
            },
            {
                "start_time": 52.3,
                "end_time": 52.699999999999996,
                "pitch": 60,
                "velocity": 64,
                "duration": 0.3999999999999986,
                "tempo": 120.0
            },
            {
                "start_time": 52.699999999999996,
                "end_time": 53.099999999999994,
                "pitch": 60,
                "velocity": 64,
                "duration": 0.3999999999999986,
                "tempo": 120.0
            },
            {
                "start_time": 53.10227272727273,
                "end_time": 53.50454545454545,
                "pitch": 64,
                "velocity": 64,
                "duration": 0.4022727272727238,
                "tempo": 120.0
            },
            {
                "start_time": 53.50454545454545,
                "end_time": 53.90454545454545,
                "pitch": 64,
                "velocity": 64,
                "duration": 0.3999999999999986,
                "tempo": 120.0
            },
            {
                "start_time": 53.90681818181818,
                "end_time": 54.10454545454545,
                "pitch": 64,
                "velocity": 64,
                "duration": 0.19772727272727053,
                "tempo": 120.0
            },
            {
                "start_time": 54.10454545454545,
                "end_time": 54.50454545454545,
                "pitch": 62,
                "velocity": 64,
                "duration": 0.3999999999999986,
                "tempo": 120.0
            },
            {
                "start_time": 54.50681818181818,
                "end_time": 54.90454545454545,
                "pitch": 60,
                "velocity": 64,
                "duration": 0.39772727272726627,
                "tempo": 120.0
            },
            {
                "start_time": 54.90681818181818,
                "end_time": 55.31136363636363,
                "pitch": 52,
                "velocity": 64,
                "duration": 0.404545454545449,
                "tempo": 120.0
            },
            {
                "start_time": 55.31363636363636,
                "end_time": 55.51590909090909,
                "pitch": 52,
                "velocity": 64,
                "duration": 0.20227272727272805,
                "tempo": 120.0
            },
            {
                "start_time": 55.518181818181816,
                "end_time": 55.90909090909091,
                "pitch": 57,
                "velocity": 64,
                "duration": 0.39090909090909065,
                "tempo": 120.0
            },
            {
                "start_time": 55.91136363636363,
                "end_time": 56.320454545454545,
                "pitch": 57,
                "velocity": 64,
                "duration": 0.4090909090909136,
                "tempo": 120.0
            },
            {
                "start_time": 56.32272727272727,
                "end_time": 56.724999999999994,
                "pitch": 60,
                "velocity": 64,
                "duration": 0.4022727272727238,
                "tempo": 120.0
            },
            {
                "start_time": 56.724999999999994,
                "end_time": 57.125,
                "pitch": 60,
                "velocity": 64,
                "duration": 0.4000000000000057,
                "tempo": 120.0
            },
            {
                "start_time": 57.127272727272725,
                "end_time": 57.324999999999996,
                "pitch": 60,
                "velocity": 64,
                "duration": 0.19772727272727053,
                "tempo": 120.0
            },
            {
                "start_time": 57.324999999999996,
                "end_time": 57.724999999999994,
                "pitch": 59,
                "velocity": 64,
                "duration": 0.3999999999999986,
                "tempo": 120.0
            },
            {
                "start_time": 57.72727272727273,
                "end_time": 58.125,
                "pitch": 57,
                "velocity": 64,
                "duration": 0.3977272727272734,
                "tempo": 120.0
            },
            {
                "start_time": 58.127272727272725,
                "end_time": 58.527272727272724,
                "pitch": 57,
                "velocity": 64,
                "duration": 0.3999999999999986,
                "tempo": 120.0
            },
            {
                "start_time": 58.52954545454545,
                "end_time": 58.72954545454545,
                "pitch": 57,
                "velocity": 64,
                "duration": 0.20000000000000284,
                "tempo": 120.0
            },
            {
                "start_time": 58.72954545454545,
                "end_time": 59.12954545454545,
                "pitch": 62,
                "velocity": 64,
                "duration": 0.3999999999999986,
                "tempo": 120.0
            },
            {
                "start_time": 59.131818181818176,
                "end_time": 59.53181818181818,
                "pitch": 62,
                "velocity": 64,
                "duration": 0.4000000000000057,
                "tempo": 120.0
            },
            {
                "start_time": 59.53181818181818,
                "end_time": 59.93181818181818,
                "pitch": 65,
                "velocity": 64,
                "duration": 0.3999999999999986,
                "tempo": 120.0
            },
            {
                "start_time": 59.93181818181818,
                "end_time": 60.33181818181818,
                "pitch": 65,
                "velocity": 64,
                "duration": 0.3999999999999986,
                "tempo": 120.0
            },
            {
                "start_time": 60.334090909090904,
                "end_time": 60.53181818181818,
                "pitch": 65,
                "velocity": 64,
                "duration": 0.19772727272727764,
                "tempo": 120.0
            },
            {
                "start_time": 60.53409090909091,
                "end_time": 60.934090909090905,
                "pitch": 64,
                "velocity": 64,
                "duration": 0.3999999999999986,
                "tempo": 120.0
            },
            {
                "start_time": 60.93636363636363,
                "end_time": 61.336363636363636,
                "pitch": 65,
                "velocity": 64,
                "duration": 0.4000000000000057,
                "tempo": 120.0
            },
            {
                "start_time": 61.336363636363636,
                "end_time": 62.336363636363636,
                "pitch": 67,
                "velocity": 64,
                "duration": 1.0,
                "tempo": 120.0
            },
            {
                "start_time": 62.33863636363636,
                "end_time": 62.538636363636364,
                "pitch": 64,
                "velocity": 64,
                "duration": 0.20000000000000284,
                "tempo": 120.0
            },
            {
                "start_time": 62.54090909090909,
                "end_time": 62.740909090909085,
                "pitch": 68,
                "velocity": 64,
                "duration": 0.19999999999999574,
                "tempo": 120.0
            },
            {
                "start_time": 62.740909090909085,
                "end_time": 64.54772727272727,
                "pitch": 71,
                "velocity": 64,
                "duration": 1.806818181818187,
                "tempo": 120.0
            },
            {
                "start_time": 64.55,
                "end_time": 64.75227272727273,
                "pitch": 64,
                "velocity": 51,
                "duration": 0.20227272727272805,
                "tempo": 120.0
            },
            {
                "start_time": 64.75454545454545,
                "end_time": 65.15681818181818,
                "pitch": 72,
                "velocity": 51,
                "duration": 0.4022727272727309,
                "tempo": 120.0
            },
            {
                "start_time": 65.15681818181818,
                "end_time": 65.55909090909091,
                "pitch": 71,
                "velocity": 51,
                "duration": 0.4022727272727309,
                "tempo": 120.0
            },
            {
                "start_time": 65.56136363636364,
                "end_time": 65.96136363636363,
                "pitch": 69,
                "velocity": 51,
                "duration": 0.3999999999999915,
                "tempo": 120.0
            },
            {
                "start_time": 65.96136363636363,
                "end_time": 66.56363636363636,
                "pitch": 64,
                "velocity": 51,
                "duration": 0.6022727272727337,
                "tempo": 120.0
            },
            {
                "start_time": 66.56590909090909,
                "end_time": 66.9659090909091,
                "pitch": 72,
                "velocity": 51,
                "duration": 0.4000000000000057,
                "tempo": 120.0
            },
            {
                "start_time": 66.9659090909091,
                "end_time": 67.36818181818181,
                "pitch": 71,
                "velocity": 51,
                "duration": 0.4022727272727167,
                "tempo": 120.0
            },
            {
                "start_time": 67.37045454545454,
                "end_time": 67.77045454545454,
                "pitch": 69,
                "velocity": 51,
                "duration": 0.4000000000000057,
                "tempo": 120.0
            },
            {
                "start_time": 67.77272727272727,
                "end_time": 67.97045454545454,
                "pitch": 71,
                "velocity": 51,
                "duration": 0.19772727272727764,
                "tempo": 120.0
            },
            {
                "start_time": 67.97272727272727,
                "end_time": 68.375,
                "pitch": 62,
                "velocity": 51,
                "duration": 0.4022727272727309,
                "tempo": 120.0
            },
            {
                "start_time": 68.375,
                "end_time": 68.77499999999999,
                "pitch": 67,
                "velocity": 51,
                "duration": 0.3999999999999915,
                "tempo": 120.0
            },
            {
                "start_time": 68.77499999999999,
                "end_time": 69.17954545454545,
                "pitch": 71,
                "velocity": 51,
                "duration": 0.4045454545454561,
                "tempo": 120.0
            },
            {
                "start_time": 69.17954545454545,
                "end_time": 69.37954545454545,
                "pitch": 69,
                "velocity": 51,
                "duration": 0.20000000000000284,
                "tempo": 120.0
            },
            {
                "start_time": 69.37954545454545,
                "end_time": 69.78181818181818,
                "pitch": 67,
                "velocity": 51,
                "duration": 0.4022727272727309,
                "tempo": 120.0
            },
            {
                "start_time": 69.78181818181818,
                "end_time": 70.18409090909091,
                "pitch": 64,
                "velocity": 51,
                "duration": 0.4022727272727309,
                "tempo": 120.0
            },
            {
                "start_time": 70.18409090909091,
                "end_time": 70.5840909090909,
                "pitch": 65,
                "velocity": 51,
                "duration": 0.3999999999999915,
                "tempo": 120.0
            },
            {
                "start_time": 70.58636363636363,
                "end_time": 70.99090909090908,
                "pitch": 67,
                "velocity": 51,
                "duration": 0.4045454545454561,
                "tempo": 120.0
            },
            {
                "start_time": 70.99318181818181,
                "end_time": 71.19545454545454,
                "pitch": 69,
                "velocity": 51,
                "duration": 0.20227272727272805,
                "tempo": 120.0
            },
            {
                "start_time": 71.19772727272726,
                "end_time": 71.59772727272727,
                "pitch": 62,
                "velocity": 51,
                "duration": 0.4000000000000057,
                "tempo": 120.0
            },
            {
                "start_time": 71.59772727272727,
                "end_time": 72.0,
                "pitch": 64,
                "velocity": 51,
                "duration": 0.4022727272727309,
                "tempo": 120.0
            },
            {
                "start_time": 72.00227272727273,
                "end_time": 72.40227272727272,
                "pitch": 65,
                "velocity": 51,
                "duration": 0.3999999999999915,
                "tempo": 120.0
            },
            {
                "start_time": 72.40227272727272,
                "end_time": 73.00681818181818,
                "pitch": 67,
                "velocity": 51,
                "duration": 0.6045454545454589,
                "tempo": 120.0
            },
            {
                "start_time": 73.00681818181818,
                "end_time": 73.40681818181818,
                "pitch": 65,
                "velocity": 51,
                "duration": 0.4000000000000057,
                "tempo": 120.0
            },
            {
                "start_time": 73.4090909090909,
                "end_time": 73.80909090909091,
                "pitch": 64,
                "velocity": 51,
                "duration": 0.4000000000000057,
                "tempo": 120.0
            },
            {
                "start_time": 73.81136363636364,
                "end_time": 74.21136363636363,
                "pitch": 65,
                "velocity": 51,
                "duration": 0.3999999999999915,
                "tempo": 120.0
            },
            {
                "start_time": 74.21363636363635,
                "end_time": 74.41136363636363,
                "pitch": 71,
                "velocity": 51,
                "duration": 0.19772727272727764,
                "tempo": 120.0
            },
            {
                "start_time": 74.41363636363636,
                "end_time": 74.81590909090909,
                "pitch": 62,
                "velocity": 51,
                "duration": 0.4022727272727309,
                "tempo": 120.0
            },
            {
                "start_time": 74.81590909090909,
                "end_time": 75.21818181818182,
                "pitch": 67,
                "velocity": 51,
                "duration": 0.4022727272727309,
                "tempo": 120.0
            },
            {
                "start_time": 75.22045454545454,
                "end_time": 75.41818181818182,
                "pitch": 64,
                "velocity": 51,
                "duration": 0.19772727272727764,
                "tempo": 120.0
            },
            {
                "start_time": 75.42045454545455,
                "end_time": 75.82045454545454,
                "pitch": 71,
                "velocity": 51,
                "duration": 0.3999999999999915,
                "tempo": 120.0
            },
            {
                "start_time": 75.82045454545454,
                "end_time": 76.62727272727273,
                "pitch": 69,
                "velocity": 51,
                "duration": 0.806818181818187,
                "tempo": 120.0
            },
            {
                "start_time": 76.62954545454545,
                "end_time": 77.02954545454546,
                "pitch": 67,
                "velocity": 51,
                "duration": 0.4000000000000057,
                "tempo": 120.0
            },
            {
                "start_time": 77.03181818181818,
                "end_time": 77.43181818181817,
                "pitch": 65,
                "velocity": 51,
                "duration": 0.3999999999999915,
                "tempo": 120.0
            },
            {
                "start_time": 77.43409090909091,
                "end_time": 77.63636363636363,
                "pitch": 64,
                "velocity": 51,
                "duration": 0.20227272727271384,
                "tempo": 120.0
            },
            {
                "start_time": 77.63863636363637,
                "end_time": 78.02954545454546,
                "pitch": 72,
                "velocity": 51,
                "duration": 0.39090909090909065,
                "tempo": 120.0
            },
            {
                "start_time": 78.03181818181818,
                "end_time": 78.42954545454545,
                "pitch": 71,
                "velocity": 51,
                "duration": 0.39772727272726627,
                "tempo": 120.0
            },
            {
                "start_time": 78.43181818181817,
                "end_time": 78.84318181818182,
                "pitch": 69,
                "velocity": 51,
                "duration": 0.4113636363636459,
                "tempo": 120.0
            },
            {
                "start_time": 78.84318181818182,
                "end_time": 79.44318181818181,
                "pitch": 64,
                "velocity": 51,
                "duration": 0.5999999999999943,
                "tempo": 120.0
            },
            {
                "start_time": 79.44545454545454,
                "end_time": 79.84545454545454,
                "pitch": 72,
                "velocity": 51,
                "duration": 0.4000000000000057,
                "tempo": 120.0
            },
            {
                "start_time": 79.84772727272727,
                "end_time": 80.24772727272727,
                "pitch": 71,
                "velocity": 51,
                "duration": 0.4000000000000057,
                "tempo": 120.0
            },
            {
                "start_time": 80.24772727272727,
                "end_time": 80.65227272727272,
                "pitch": 69,
                "velocity": 51,
                "duration": 0.4045454545454419,
                "tempo": 120.0
            },
            {
                "start_time": 80.65227272727272,
                "end_time": 80.85227272727272,
                "pitch": 71,
                "velocity": 51,
                "duration": 0.20000000000000284,
                "tempo": 120.0
            },
            {
                "start_time": 80.85454545454544,
                "end_time": 81.25227272727273,
                "pitch": 62,
                "velocity": 51,
                "duration": 0.3977272727272805,
                "tempo": 120.0
            },
            {
                "start_time": 81.25454545454545,
                "end_time": 81.65681818181818,
                "pitch": 67,
                "velocity": 51,
                "duration": 0.4022727272727309,
                "tempo": 120.0
            },
            {
                "start_time": 81.65681818181818,
                "end_time": 82.05681818181817,
                "pitch": 71,
                "velocity": 51,
                "duration": 0.3999999999999915,
                "tempo": 120.0
            },
            {
                "start_time": 82.05909090909091,
                "end_time": 82.2590909090909,
                "pitch": 69,
                "velocity": 51,
                "duration": 0.19999999999998863,
                "tempo": 120.0
            },
            {
                "start_time": 82.2590909090909,
                "end_time": 82.66136363636363,
                "pitch": 67,
                "velocity": 51,
                "duration": 0.4022727272727309,
                "tempo": 120.0
            },
            {
                "start_time": 82.66363636363636,
                "end_time": 83.06363636363636,
                "pitch": 64,
                "velocity": 51,
                "duration": 0.4000000000000057,
                "tempo": 120.0
            },
            {
                "start_time": 83.06363636363636,
                "end_time": 83.4659090909091,
                "pitch": 65,
                "velocity": 51,
                "duration": 0.4022727272727309,
                "tempo": 120.0
            },
            {
                "start_time": 83.4659090909091,
                "end_time": 83.86818181818181,
                "pitch": 67,
                "velocity": 51,
                "duration": 0.4022727272727167,
                "tempo": 120.0
            },
            {
                "start_time": 83.86818181818181,
                "end_time": 84.06818181818181,
                "pitch": 69,
                "velocity": 51,
                "duration": 0.20000000000000284,
                "tempo": 120.0
            },
            {
                "start_time": 84.06818181818181,
                "end_time": 84.47045454545454,
                "pitch": 62,
                "velocity": 51,
                "duration": 0.4022727272727309,
                "tempo": 120.0
            },
            {
                "start_time": 84.47272727272727,
                "end_time": 84.87272727272727,
                "pitch": 64,
                "velocity": 51,
                "duration": 0.4000000000000057,
                "tempo": 120.0
            },
            {
                "start_time": 84.875,
                "end_time": 85.27499999999999,
                "pitch": 65,
                "velocity": 51,
                "duration": 0.3999999999999915,
                "tempo": 120.0
            },
            {
                "start_time": 85.27499999999999,
                "end_time": 86.08636363636363,
                "pitch": 67,
                "velocity": 51,
                "duration": 0.8113636363636374,
                "tempo": 120.0
            },
            {
                "start_time": 86.08863636363635,
                "end_time": 86.28863636363636,
                "pitch": 64,
                "velocity": 51,
                "duration": 0.20000000000000284,
                "tempo": 120.0
            },
            {
                "start_time": 86.28863636363636,
                "end_time": 86.49090909090908,
                "pitch": 71,
                "velocity": 51,
                "duration": 0.20227272727272805,
                "tempo": 120.0
            },
            {
                "start_time": 86.49090909090908,
                "end_time": 86.69090909090909,
                "pitch": 72,
                "velocity": 51,
                "duration": 0.20000000000000284,
                "tempo": 120.0
            },
            {
                "start_time": 86.69090909090909,
                "end_time": 86.89090909090909,
                "pitch": 71,
                "velocity": 51,
                "duration": 0.20000000000000284,
                "tempo": 120.0
            },
            {
                "start_time": 86.89090909090909,
                "end_time": 88.69999999999999,
                "pitch": 69,
                "velocity": 51,
                "duration": 1.809090909090898,
                "tempo": 120.0
            },
            {
                "start_time": 90.3,
                "end_time": 90.91136363636363,
                "pitch": 57,
                "velocity": 64,
                "duration": 0.6113636363636346,
                "tempo": 120.0
            },
            {
                "start_time": 90.91363636363636,
                "end_time": 91.51590909090909,
                "pitch": 59,
                "velocity": 64,
                "duration": 0.6022727272727337,
                "tempo": 120.0
            },
            {
                "start_time": 91.51818181818182,
                "end_time": 92.32045454545454,
                "pitch": 60,
                "velocity": 64,
                "duration": 0.8022727272727224,
                "tempo": 120.0
            },
            {
                "start_time": 92.32045454545454,
                "end_time": 92.72272727272727,
                "pitch": 62,
                "velocity": 64,
                "duration": 0.4022727272727309,
                "tempo": 120.0
            },
            {
                "start_time": 92.72272727272727,
                "end_time": 92.92272727272727,
                "pitch": 60,
                "velocity": 64,
                "duration": 0.20000000000000284,
                "tempo": 120.0
            },
            {
                "start_time": 92.925,
                "end_time": 93.125,
                "pitch": 59,
                "velocity": 64,
                "duration": 0.20000000000000284,
                "tempo": 120.0
            },
            {
                "start_time": 93.125,
                "end_time": 93.32727272727273,
                "pitch": 57,
                "velocity": 64,
                "duration": 0.20227272727272805,
                "tempo": 120.0
            },
            {
                "start_time": 93.32727272727273,
                "end_time": 93.53181818181818,
                "pitch": 59,
                "velocity": 64,
                "duration": 0.20454545454545325,
                "tempo": 120.0
            },
            {
                "start_time": 93.53181818181818,
                "end_time": 94.12954545454545,
                "pitch": 60,
                "velocity": 64,
                "duration": 0.5977272727272691,
                "tempo": 120.0
            },
            {
                "start_time": 94.12954545454545,
                "end_time": 94.5340909090909,
                "pitch": 57,
                "velocity": 64,
                "duration": 0.4045454545454561,
                "tempo": 120.0
            },
            {
                "start_time": 94.5340909090909,
                "end_time": 94.73863636363636,
                "pitch": 55,
                "velocity": 64,
                "duration": 0.20454545454545325,
                "tempo": 120.0
            },
            {
                "start_time": 94.73863636363636,
                "end_time": 96.15227272727272,
                "pitch": 53,
                "velocity": 64,
                "duration": 1.413636363636357,
                "tempo": 120.0
            },
            {
                "start_time": 96.15227272727272,
                "end_time": 96.35227272727272,
                "pitch": 52,
                "velocity": 64,
                "duration": 0.20000000000000284,
                "tempo": 120.0
            },
            {
                "start_time": 96.35227272727272,
                "end_time": 96.55227272727272,
                "pitch": 53,
                "velocity": 64,
                "duration": 0.20000000000000284,
                "tempo": 120.0
            },
            {
                "start_time": 96.55454545454545,
                "end_time": 96.75227272727273,
                "pitch": 55,
                "velocity": 64,
                "duration": 0.19772727272727764,
                "tempo": 120.0
            },
            {
                "start_time": 96.75454545454545,
                "end_time": 97.35681818181818,
                "pitch": 57,
                "velocity": 64,
                "duration": 0.6022727272727337,
                "tempo": 120.0
            },
            {
                "start_time": 97.35909090909091,
                "end_time": 97.9590909090909,
                "pitch": 59,
                "velocity": 64,
                "duration": 0.5999999999999943,
                "tempo": 120.0
            },
            {
                "start_time": 97.96136363636363,
                "end_time": 98.76363636363637,
                "pitch": 60,
                "velocity": 64,
                "duration": 0.8022727272727366,
                "tempo": 120.0
            },
            {
                "start_time": 98.76590909090909,
                "end_time": 99.16818181818181,
                "pitch": 65,
                "velocity": 64,
                "duration": 0.4022727272727167,
                "tempo": 120.0
            },
            {
                "start_time": 99.16818181818181,
                "end_time": 99.36818181818181,
                "pitch": 64,
                "velocity": 64,
                "duration": 0.20000000000000284,
                "tempo": 120.0
            },
            {
                "start_time": 99.37045454545454,
                "end_time": 99.56818181818181,
                "pitch": 62,
                "velocity": 64,
                "duration": 0.19772727272727764,
                "tempo": 120.0
            },
            {
                "start_time": 99.57045454545454,
                "end_time": 99.77045454545454,
                "pitch": 60,
                "velocity": 64,
                "duration": 0.20000000000000284,
                "tempo": 120.0
            },
            {
                "start_time": 99.77045454545454,
                "end_time": 99.97045454545454,
                "pitch": 62,
                "velocity": 64,
                "duration": 0.20000000000000284,
                "tempo": 120.0
            },
            {
                "start_time": 99.97272727272727,
                "end_time": 100.37272727272727,
                "pitch": 64,
                "velocity": 64,
                "duration": 0.4000000000000057,
                "tempo": 120.0
            },
            {
                "start_time": 100.375,
                "end_time": 100.57272727272726,
                "pitch": 62,
                "velocity": 64,
                "duration": 0.19772727272726343,
                "tempo": 120.0
            },
            {
                "start_time": 100.57499999999999,
                "end_time": 100.975,
                "pitch": 57,
                "velocity": 64,
                "duration": 0.4000000000000057,
                "tempo": 120.0
            },
            {
                "start_time": 100.97727272727272,
                "end_time": 101.37954545454545,
                "pitch": 67,
                "velocity": 64,
                "duration": 0.4022727272727309,
                "tempo": 120.0
            },
            {
                "start_time": 101.37954545454545,
                "end_time": 103.19318181818181,
                "pitch": 64,
                "velocity": 64,
                "duration": 1.8136363636363626,
                "tempo": 120.0
            },
            {
                "start_time": 103.19318181818181,
                "end_time": 103.80227272727272,
                "pitch": 57,
                "velocity": 64,
                "duration": 0.6090909090909093,
                "tempo": 120.0
            },
            {
                "start_time": 103.80227272727272,
                "end_time": 104.40454545454546,
                "pitch": 59,
                "velocity": 64,
                "duration": 0.6022727272727337,
                "tempo": 120.0
            },
            {
                "start_time": 104.40454545454546,
                "end_time": 105.2090909090909,
                "pitch": 60,
                "velocity": 64,
                "duration": 0.8045454545454476,
                "tempo": 120.0
            },
            {
                "start_time": 105.2090909090909,
                "end_time": 105.61136363636363,
                "pitch": 62,
                "velocity": 64,
                "duration": 0.4022727272727309,
                "tempo": 120.0
            },
            {
                "start_time": 105.61136363636363,
                "end_time": 105.81136363636364,
                "pitch": 60,
                "velocity": 64,
                "duration": 0.20000000000000284,
                "tempo": 120.0
            },
            {
                "start_time": 105.81363636363636,
                "end_time": 106.01363636363637,
                "pitch": 59,
                "velocity": 64,
                "duration": 0.20000000000000284,
                "tempo": 120.0
            },
            {
                "start_time": 106.01363636363637,
                "end_time": 106.21363636363635,
                "pitch": 57,
                "velocity": 64,
                "duration": 0.19999999999998863,
                "tempo": 120.0
            },
            {
                "start_time": 106.21363636363635,
                "end_time": 106.41363636363636,
                "pitch": 59,
                "velocity": 64,
                "duration": 0.20000000000000284,
                "tempo": 120.0
            },
            {
                "start_time": 106.41590909090908,
                "end_time": 107.01818181818182,
                "pitch": 60,
                "velocity": 64,
                "duration": 0.6022727272727337,
                "tempo": 120.0
            },
            {
                "start_time": 107.02045454545454,
                "end_time": 107.42045454545455,
                "pitch": 57,
                "velocity": 64,
                "duration": 0.4000000000000057,
                "tempo": 120.0
            },
            {
                "start_time": 107.42045454545455,
                "end_time": 107.62045454545454,
                "pitch": 55,
                "velocity": 64,
                "duration": 0.19999999999998863,
                "tempo": 120.0
            },
            {
                "start_time": 107.62272727272726,
                "end_time": 109.02954545454546,
                "pitch": 53,
                "velocity": 64,
                "duration": 1.4068181818181955,
                "tempo": 120.0
            },
            {
                "start_time": 109.03181818181818,
                "end_time": 109.22954545454544,
                "pitch": 57,
                "velocity": 64,
                "duration": 0.19772727272726343,
                "tempo": 120.0
            },
            {
                "start_time": 109.23181818181817,
                "end_time": 109.43181818181817,
                "pitch": 59,
                "velocity": 64,
                "duration": 0.20000000000000284,
                "tempo": 120.0
            },
            {
                "start_time": 109.43181818181817,
                "end_time": 109.63636363636363,
                "pitch": 60,
                "velocity": 64,
                "duration": 0.20454545454545325,
                "tempo": 120.0
            },
            {
                "start_time": 109.63636363636363,
                "end_time": 110.03863636363636,
                "pitch": 59,
                "velocity": 64,
                "duration": 0.4022727272727309,
                "tempo": 120.0
            },
            {
                "start_time": 110.03863636363636,
                "end_time": 110.23409090909091,
                "pitch": 55,
                "velocity": 64,
                "duration": 0.19545454545455243,
                "tempo": 120.0
            },
            {
                "start_time": 110.23409090909091,
                "end_time": 110.63863636363635,
                "pitch": 52,
                "velocity": 64,
                "duration": 0.4045454545454419,
                "tempo": 120.0
            },
            {
                "start_time": 110.63863636363635,
                "end_time": 110.84318181818182,
                "pitch": 52,
                "velocity": 64,
                "duration": 0.20454545454546746,
                "tempo": 120.0
            },
            {
                "start_time": 110.84545454545454,
                "end_time": 111.05,
                "pitch": 55,
                "velocity": 64,
                "duration": 0.20454545454545325,
                "tempo": 120.0
            },
            {
                "start_time": 111.05,
                "end_time": 111.25,
                "pitch": 59,
                "velocity": 64,
                "duration": 0.20000000000000284,
                "tempo": 120.0
            },
            {
                "start_time": 111.25227272727273,
                "end_time": 111.45227272727273,
                "pitch": 62,
                "velocity": 64,
                "duration": 0.20000000000000284,
                "tempo": 120.0
            },
            {
                "start_time": 111.45454545454545,
                "end_time": 111.65227272727272,
                "pitch": 60,
                "velocity": 64,
                "duration": 0.19772727272726343,
                "tempo": 120.0
            },
            {
                "start_time": 111.65454545454546,
                "end_time": 111.85227272727272,
                "pitch": 59,
                "velocity": 64,
                "duration": 0.19772727272726343,
                "tempo": 120.0
            },
            {
                "start_time": 111.85454545454544,
                "end_time": 112.05454545454545,
                "pitch": 62,
                "velocity": 64,
                "duration": 0.20000000000000284,
                "tempo": 120.0
            },
            {
                "start_time": 112.05681818181817,
                "end_time": 112.25454545454545,
                "pitch": 60,
                "velocity": 64,
                "duration": 0.19772727272727764,
                "tempo": 120.0
            },
            {
                "start_time": 112.25681818181818,
                "end_time": 112.6590909090909,
                "pitch": 59,
                "velocity": 64,
                "duration": 0.4022727272727309,
                "tempo": 120.0
            },
            {
                "start_time": 112.66136363636363,
                "end_time": 114.46818181818182,
                "pitch": 57,
                "velocity": 64,
                "duration": 1.806818181818187,
                "tempo": 120.0
            },
            {
                "start_time": 116.07727272727273,
                "end_time": 116.47954545454544,
                "pitch": 55,
                "velocity": 64,
                "duration": 0.4022727272727167,
                "tempo": 120.0
            },
            {
                "start_time": 116.47954545454544,
                "end_time": 116.67954545454545,
                "pitch": 55,
                "velocity": 64,
                "duration": 0.20000000000000284,
                "tempo": 120.0
            },
            {
                "start_time": 116.68181818181817,
                "end_time": 117.07954545454545,
                "pitch": 60,
                "velocity": 64,
                "duration": 0.3977272727272805,
                "tempo": 120.0
            },
            {
                "start_time": 117.08181818181818,
                "end_time": 117.48409090909091,
                "pitch": 60,
                "velocity": 64,
                "duration": 0.4022727272727309,
                "tempo": 120.0
            },
            {
                "start_time": 117.48636363636363,
                "end_time": 117.89545454545454,
                "pitch": 64,
                "velocity": 64,
                "duration": 0.4090909090909065,
                "tempo": 120.0
            },
            {
                "start_time": 117.89545454545454,
                "end_time": 118.3,
                "pitch": 64,
                "velocity": 64,
                "duration": 0.4045454545454561,
                "tempo": 120.0
            },
            {
                "start_time": 118.3,
                "end_time": 118.49772727272726,
                "pitch": 64,
                "velocity": 64,
                "duration": 0.19772727272726343,
                "tempo": 120.0
            },
            {
                "start_time": 118.5,
                "end_time": 118.89999999999999,
                "pitch": 62,
                "velocity": 64,
                "duration": 0.3999999999999915,
                "tempo": 120.0
            },
            {
                "start_time": 118.90227272727272,
                "end_time": 119.30227272727272,
                "pitch": 60,
                "velocity": 64,
                "duration": 0.4000000000000057,
                "tempo": 120.0
            },
            {
                "start_time": 119.30454545454545,
                "end_time": 119.70454545454545,
                "pitch": 52,
                "velocity": 64,
                "duration": 0.4000000000000057,
                "tempo": 120.0
            },
            {
                "start_time": 119.70681818181818,
                "end_time": 119.90681818181818,
                "pitch": 52,
                "velocity": 64,
                "duration": 0.20000000000000284,
                "tempo": 120.0
            },
            {
                "start_time": 119.90681818181818,
                "end_time": 120.3090909090909,
                "pitch": 57,
                "velocity": 64,
                "duration": 0.4022727272727167,
                "tempo": 120.0
            },
            {
                "start_time": 120.31136363636364,
                "end_time": 120.7090909090909,
                "pitch": 57,
                "velocity": 64,
                "duration": 0.39772727272726627,
                "tempo": 120.0
            },
            {
                "start_time": 120.71136363636363,
                "end_time": 121.11363636363636,
                "pitch": 60,
                "velocity": 64,
                "duration": 0.4022727272727309,
                "tempo": 120.0
            },
            {
                "start_time": 121.11363636363636,
                "end_time": 121.51363636363635,
                "pitch": 60,
                "velocity": 64,
                "duration": 0.3999999999999915,
                "tempo": 120.0
            },
            {
                "start_time": 121.51590909090909,
                "end_time": 121.71590909090908,
                "pitch": 60,
                "velocity": 64,
                "duration": 0.19999999999998863,
                "tempo": 120.0
            },
            {
                "start_time": 121.71590909090908,
                "end_time": 122.11818181818181,
                "pitch": 59,
                "velocity": 64,
                "duration": 0.4022727272727309,
                "tempo": 120.0
            },
            {
                "start_time": 122.12045454545454,
                "end_time": 122.52045454545454,
                "pitch": 57,
                "velocity": 64,
                "duration": 0.4000000000000057,
                "tempo": 120.0
            },
            {
                "start_time": 122.52045454545454,
                "end_time": 122.92272727272727,
                "pitch": 57,
                "velocity": 64,
                "duration": 0.4022727272727309,
                "tempo": 120.0
            },
            {
                "start_time": 122.92272727272727,
                "end_time": 123.12272727272726,
                "pitch": 57,
                "velocity": 64,
                "duration": 0.19999999999998863,
                "tempo": 120.0
            },
            {
                "start_time": 123.125,
                "end_time": 123.52499999999999,
                "pitch": 62,
                "velocity": 64,
                "duration": 0.3999999999999915,
                "tempo": 120.0
            },
            {
                "start_time": 123.52499999999999,
                "end_time": 123.92727272727272,
                "pitch": 62,
                "velocity": 64,
                "duration": 0.4022727272727309,
                "tempo": 120.0
            },
            {
                "start_time": 123.92954545454545,
                "end_time": 124.32954545454545,
                "pitch": 65,
                "velocity": 64,
                "duration": 0.4000000000000057,
                "tempo": 120.0
            },
            {
                "start_time": 124.33181818181818,
                "end_time": 124.73181818181817,
                "pitch": 65,
                "velocity": 64,
                "duration": 0.3999999999999915,
                "tempo": 120.0
            },
            {
                "start_time": 124.73181818181817,
                "end_time": 124.93181818181817,
                "pitch": 65,
                "velocity": 64,
                "duration": 0.20000000000000284,
                "tempo": 120.0
            },
            {
                "start_time": 124.9340909090909,
                "end_time": 125.3340909090909,
                "pitch": 64,
                "velocity": 64,
                "duration": 0.4000000000000057,
                "tempo": 120.0
            },
            {
                "start_time": 125.33636363636363,
                "end_time": 125.74090909090908,
                "pitch": 65,
                "velocity": 64,
                "duration": 0.4045454545454561,
                "tempo": 120.0
            },
            {
                "start_time": 125.74090909090908,
                "end_time": 126.75,
                "pitch": 67,
                "velocity": 64,
                "duration": 1.009090909090915,
                "tempo": 120.0
            },
            {
                "start_time": 126.75227272727273,
                "end_time": 126.95227272727273,
                "pitch": 64,
                "velocity": 64,
                "duration": 0.20000000000000284,
                "tempo": 120.0
            },
            {
                "start_time": 126.95227272727273,
                "end_time": 127.15227272727272,
                "pitch": 68,
                "velocity": 64,
                "duration": 0.19999999999998863,
                "tempo": 120.0
            },
            {
                "start_time": 127.15454545454544,
                "end_time": 128.96363636363637,
                "pitch": 71,
                "velocity": 64,
                "duration": 1.8090909090909264,
                "tempo": 120.0
            },
            {
                "start_time": 128.9659090909091,
                "end_time": 129.16363636363636,
                "pitch": 64,
                "velocity": 51,
                "duration": 0.19772727272726343,
                "tempo": 120.0
            },
            {
                "start_time": 129.16590909090908,
                "end_time": 129.5681818181818,
                "pitch": 72,
                "velocity": 51,
                "duration": 0.4022727272727309,
                "tempo": 120.0
            },
            {
                "start_time": 129.5681818181818,
                "end_time": 129.96818181818182,
                "pitch": 71,
                "velocity": 51,
                "duration": 0.4000000000000057,
                "tempo": 120.0
            },
            {
                "start_time": 129.96818181818182,
                "end_time": 130.37045454545455,
                "pitch": 69,
                "velocity": 51,
                "duration": 0.4022727272727309,
                "tempo": 120.0
            },
            {
                "start_time": 130.37272727272727,
                "end_time": 130.975,
                "pitch": 64,
                "velocity": 51,
                "duration": 0.6022727272727195,
                "tempo": 120.0
            },
            {
                "start_time": 130.97727272727272,
                "end_time": 131.37954545454545,
                "pitch": 72,
                "velocity": 51,
                "duration": 0.4022727272727309,
                "tempo": 120.0
            },
            {
                "start_time": 131.37954545454545,
                "end_time": 131.77954545454546,
                "pitch": 71,
                "velocity": 51,
                "duration": 0.4000000000000057,
                "tempo": 120.0
            },
            {
                "start_time": 131.78181818181818,
                "end_time": 132.18636363636364,
                "pitch": 69,
                "velocity": 51,
                "duration": 0.4045454545454561,
                "tempo": 120.0
            },
            {
                "start_time": 132.18863636363636,
                "end_time": 132.3931818181818,
                "pitch": 71,
                "velocity": 51,
                "duration": 0.20454545454543904,
                "tempo": 120.0
            },
            {
                "start_time": 132.3931818181818,
                "end_time": 132.7840909090909,
                "pitch": 62,
                "velocity": 51,
                "duration": 0.39090909090910486,
                "tempo": 120.0
            },
            {
                "start_time": 132.78636363636363,
                "end_time": 133.19545454545454,
                "pitch": 67,
                "velocity": 51,
                "duration": 0.4090909090909065,
                "tempo": 120.0
            },
            {
                "start_time": 133.19772727272726,
                "end_time": 133.6,
                "pitch": 71,
                "velocity": 51,
                "duration": 0.4022727272727309,
                "tempo": 120.0
            },
            {
                "start_time": 133.60227272727272,
                "end_time": 133.79999999999998,
                "pitch": 69,
                "velocity": 51,
                "duration": 0.19772727272726343,
                "tempo": 120.0
            },
            {
                "start_time": 133.8022727272727,
                "end_time": 134.2022727272727,
                "pitch": 67,
                "velocity": 51,
                "duration": 0.4000000000000057,
                "tempo": 120.0
            },
            {
                "start_time": 134.20454545454544,
                "end_time": 134.60454545454544,
                "pitch": 64,
                "velocity": 51,
                "duration": 0.4000000000000057,
                "tempo": 120.0
            },
            {
                "start_time": 134.60681818181817,
                "end_time": 135.00681818181818,
                "pitch": 65,
                "velocity": 51,
                "duration": 0.4000000000000057,
                "tempo": 120.0
            },
            {
                "start_time": 135.0090909090909,
                "end_time": 135.41136363636363,
                "pitch": 67,
                "velocity": 51,
                "duration": 0.4022727272727309,
                "tempo": 120.0
            },
            {
                "start_time": 135.41363636363636,
                "end_time": 135.61363636363635,
                "pitch": 69,
                "velocity": 51,
                "duration": 0.19999999999998863,
                "tempo": 120.0
            },
            {
                "start_time": 135.61363636363635,
                "end_time": 136.01590909090908,
                "pitch": 62,
                "velocity": 51,
                "duration": 0.4022727272727309,
                "tempo": 120.0
            },
            {
                "start_time": 136.01590909090908,
                "end_time": 136.41590909090908,
                "pitch": 64,
                "velocity": 51,
                "duration": 0.4000000000000057,
                "tempo": 120.0
            },
            {
                "start_time": 136.4181818181818,
                "end_time": 136.82045454545454,
                "pitch": 65,
                "velocity": 51,
                "duration": 0.4022727272727309,
                "tempo": 120.0
            },
            {
                "start_time": 136.82045454545454,
                "end_time": 137.42499999999998,
                "pitch": 67,
                "velocity": 51,
                "duration": 0.6045454545454447,
                "tempo": 120.0
            },
            {
                "start_time": 137.42499999999998,
                "end_time": 137.8272727272727,
                "pitch": 65,
                "velocity": 51,
                "duration": 0.4022727272727309,
                "tempo": 120.0
            },
            {
                "start_time": 137.82954545454544,
                "end_time": 138.22954545454544,
                "pitch": 64,
                "velocity": 51,
                "duration": 0.4000000000000057,
                "tempo": 120.0
            },
            {
                "start_time": 138.22954545454544,
                "end_time": 138.63181818181818,
                "pitch": 65,
                "velocity": 51,
                "duration": 0.4022727272727309,
                "tempo": 120.0
            },
            {
                "start_time": 138.63181818181818,
                "end_time": 138.83181818181816,
                "pitch": 71,
                "velocity": 51,
                "duration": 0.19999999999998863,
                "tempo": 120.0
            },
            {
                "start_time": 138.8340909090909,
                "end_time": 139.23636363636362,
                "pitch": 62,
                "velocity": 51,
                "duration": 0.4022727272727309,
                "tempo": 120.0
            },
            {
                "start_time": 139.23636363636362,
                "end_time": 139.63863636363635,
                "pitch": 67,
                "velocity": 51,
                "duration": 0.4022727272727309,
                "tempo": 120.0
            },
            {
                "start_time": 139.64090909090908,
                "end_time": 139.8409090909091,
                "pitch": 64,
                "velocity": 51,
                "duration": 0.20000000000001705,
                "tempo": 120.0
            },
            {
                "start_time": 139.8409090909091,
                "end_time": 140.24772727272727,
                "pitch": 71,
                "velocity": 51,
                "duration": 0.4068181818181813,
                "tempo": 120.0
            },
            {
                "start_time": 140.25,
                "end_time": 141.0522727272727,
                "pitch": 69,
                "velocity": 51,
                "duration": 0.8022727272727082,
                "tempo": 120.0
            },
            {
                "start_time": 141.0522727272727,
                "end_time": 141.4590909090909,
                "pitch": 67,
                "velocity": 51,
                "duration": 0.4068181818181813,
                "tempo": 120.0
            },
            {
                "start_time": 141.46136363636364,
                "end_time": 141.86363636363635,
                "pitch": 65,
                "velocity": 51,
                "duration": 0.40227272727270247,
                "tempo": 120.0
            },
            {
                "start_time": 141.86363636363635,
                "end_time": 142.06363636363636,
                "pitch": 64,
                "velocity": 51,
                "duration": 0.20000000000001705,
                "tempo": 120.0
            },
            {
                "start_time": 142.0659090909091,
                "end_time": 142.46818181818182,
                "pitch": 72,
                "velocity": 51,
                "duration": 0.4022727272727309,
                "tempo": 120.0
            },
            {
                "start_time": 142.46818181818182,
                "end_time": 142.87045454545455,
                "pitch": 71,
                "velocity": 51,
                "duration": 0.4022727272727309,
                "tempo": 120.0
            },
            {
                "start_time": 142.87045454545455,
                "end_time": 143.27045454545453,
                "pitch": 69,
                "velocity": 51,
                "duration": 0.39999999999997726,
                "tempo": 120.0
            },
            {
                "start_time": 143.27272727272725,
                "end_time": 143.875,
                "pitch": 64,
                "velocity": 51,
                "duration": 0.6022727272727479,
                "tempo": 120.0
            },
            {
                "start_time": 143.87727272727273,
                "end_time": 144.27954545454546,
                "pitch": 72,
                "velocity": 51,
                "duration": 0.4022727272727309,
                "tempo": 120.0
            },
            {
                "start_time": 144.27954545454546,
                "end_time": 144.6818181818182,
                "pitch": 71,
                "velocity": 51,
                "duration": 0.4022727272727309,
                "tempo": 120.0
            },
            {
                "start_time": 144.6840909090909,
                "end_time": 145.0840909090909,
                "pitch": 69,
                "velocity": 51,
                "duration": 0.39999999999997726,
                "tempo": 120.0
            },
            {
                "start_time": 145.08636363636364,
                "end_time": 145.2840909090909,
                "pitch": 71,
                "velocity": 51,
                "duration": 0.19772727272726343,
                "tempo": 120.0
            },
            {
                "start_time": 145.28636363636363,
                "end_time": 145.68636363636364,
                "pitch": 62,
                "velocity": 51,
                "duration": 0.4000000000000057,
                "tempo": 120.0
            },
            {
                "start_time": 145.68863636363636,
                "end_time": 146.0909090909091,
                "pitch": 67,
                "velocity": 51,
                "duration": 0.4022727272727309,
                "tempo": 120.0
            },
            {
                "start_time": 146.0909090909091,
                "end_time": 146.49545454545455,
                "pitch": 71,
                "velocity": 51,
                "duration": 0.4045454545454561,
                "tempo": 120.0
            },
            {
                "start_time": 146.49545454545455,
                "end_time": 146.69545454545454,
                "pitch": 69,
                "velocity": 51,
                "duration": 0.19999999999998863,
                "tempo": 120.0
            },
            {
                "start_time": 146.69772727272726,
                "end_time": 147.09772727272727,
                "pitch": 67,
                "velocity": 51,
                "duration": 0.4000000000000057,
                "tempo": 120.0
            },
            {
                "start_time": 147.09772727272727,
                "end_time": 147.5,
                "pitch": 64,
                "velocity": 51,
                "duration": 0.4022727272727309,
                "tempo": 120.0
            },
            {
                "start_time": 147.5,
                "end_time": 147.90227272727273,
                "pitch": 65,
                "velocity": 51,
                "duration": 0.4022727272727309,
                "tempo": 120.0
            },
            {
                "start_time": 147.90454545454546,
                "end_time": 148.3090909090909,
                "pitch": 67,
                "velocity": 51,
                "duration": 0.4045454545454561,
                "tempo": 120.0
            },
            {
                "start_time": 148.31136363636364,
                "end_time": 148.51590909090908,
                "pitch": 69,
                "velocity": 51,
                "duration": 0.20454545454543904,
                "tempo": 120.0
            },
            {
                "start_time": 148.51590909090908,
                "end_time": 148.9181818181818,
                "pitch": 62,
                "velocity": 51,
                "duration": 0.4022727272727309,
                "tempo": 120.0
            },
            {
                "start_time": 148.92045454545453,
                "end_time": 149.32272727272726,
                "pitch": 64,
                "velocity": 51,
                "duration": 0.4022727272727309,
                "tempo": 120.0
            },
            {
                "start_time": 149.32272727272726,
                "end_time": 149.725,
                "pitch": 65,
                "velocity": 51,
                "duration": 0.4022727272727309,
                "tempo": 120.0
            },
            {
                "start_time": 149.72727272727272,
                "end_time": 150.3272727272727,
                "pitch": 67,
                "velocity": 51,
                "duration": 0.5999999999999943,
                "tempo": 120.0
            },
            {
                "start_time": 150.32954545454544,
                "end_time": 150.72954545454544,
                "pitch": 65,
                "velocity": 51,
                "duration": 0.4000000000000057,
                "tempo": 120.0
            },
            {
                "start_time": 150.73181818181817,
                "end_time": 151.1340909090909,
                "pitch": 64,
                "velocity": 51,
                "duration": 0.4022727272727309,
                "tempo": 120.0
            },
            {
                "start_time": 151.1340909090909,
                "end_time": 151.53636363636363,
                "pitch": 65,
                "velocity": 51,
                "duration": 0.4022727272727309,
                "tempo": 120.0
            },
            {
                "start_time": 151.53863636363636,
                "end_time": 151.73863636363635,
                "pitch": 71,
                "velocity": 51,
                "duration": 0.19999999999998863,
                "tempo": 120.0
            },
            {
                "start_time": 151.73863636363635,
                "end_time": 152.13863636363635,
                "pitch": 62,
                "velocity": 51,
                "duration": 0.4000000000000057,
                "tempo": 120.0
            },
            {
                "start_time": 152.14090909090908,
                "end_time": 152.5431818181818,
                "pitch": 67,
                "velocity": 51,
                "duration": 0.4022727272727309,
                "tempo": 120.0
            },
            {
                "start_time": 152.5431818181818,
                "end_time": 152.74318181818182,
                "pitch": 64,
                "velocity": 51,
                "duration": 0.20000000000001705,
                "tempo": 120.0
            },
            {
                "start_time": 152.74545454545455,
                "end_time": 153.14772727272725,
                "pitch": 71,
                "velocity": 51,
                "duration": 0.40227272727270247,
                "tempo": 120.0
            },
            {
                "start_time": 153.14772727272725,
                "end_time": 154.7590909090909,
                "pitch": 69,
                "velocity": 51,
                "duration": 1.6113636363636488,
                "tempo": 120.0
            },
            {
                "start_time": 154.76136363636363,
                "end_time": 154.8272727272727,
                "pitch": 64,
                "velocity": 64,
                "duration": 0.06590909090908781,
                "tempo": 120.0
            },
            {
                "start_time": 154.8272727272727,
                "end_time": 154.8931818181818,
                "pitch": 66,
                "velocity": 64,
                "duration": 0.06590909090908781,
                "tempo": 120.0
            },
            {
                "start_time": 154.8931818181818,
                "end_time": 154.89545454545453,
                "pitch": 55,
                "velocity": 64,
                "duration": 0.0022727272727252057,
                "tempo": 120.0
            },
            {
                "start_time": 154.89545454545453,
                "end_time": 155.36363636363635,
                "pitch": 67,
                "velocity": 64,
                "duration": 0.4681818181818187,
                "tempo": 120.0
            },
            {
                "start_time": 155.36590909090907,
                "end_time": 155.85,
                "pitch": 79,
                "velocity": 64,
                "duration": 0.48409090909092356,
                "tempo": 120.0
            },
            {
                "start_time": 155.85,
                "end_time": 155.86818181818182,
                "pitch": 79,
                "velocity": 64,
                "duration": 0.018181818181830067,
                "tempo": 120.0
            },
            {
                "start_time": 155.86818181818182,
                "end_time": 155.9659090909091,
                "pitch": 79,
                "velocity": 64,
                "duration": 0.09772727272726911,
                "tempo": 120.0
            },
            {
                "start_time": 155.96818181818182,
                "end_time": 157.17272727272726,
                "pitch": 77,
                "velocity": 64,
                "duration": 1.204545454545439,
                "tempo": 120.0
            },
            {
                "start_time": 157.17499999999998,
                "end_time": 157.57954545454544,
                "pitch": 75,
                "velocity": 64,
                "duration": 0.4045454545454561,
                "tempo": 120.0
            },
            {
                "start_time": 157.58181818181816,
                "end_time": 157.98636363636362,
                "pitch": 74,
                "velocity": 64,
                "duration": 0.4045454545454561,
                "tempo": 120.0
            },
            {
                "start_time": 157.98863636363635,
                "end_time": 158.58863636363637,
                "pitch": 72,
                "velocity": 64,
                "duration": 0.6000000000000227,
                "tempo": 120.0
            },
            {
                "start_time": 158.5909090909091,
                "end_time": 161.00681818181818,
                "pitch": 74,
                "velocity": 64,
                "duration": 2.415909090909082,
                "tempo": 120.0
            },
            {
                "start_time": 155.86818181818182,
                "end_time": 161.075,
                "pitch": 67,
                "velocity": 64,
                "duration": 5.206818181818164,
                "tempo": 120.0
            },
            {
                "start_time": 161.0090909090909,
                "end_time": 161.075,
                "pitch": 67,
                "velocity": 64,
                "duration": 0.06590909090908781,
                "tempo": 120.0
            },
            {
                "start_time": 161.075,
                "end_time": 161.14090909090908,
                "pitch": 74,
                "velocity": 64,
                "duration": 0.06590909090908781,
                "tempo": 120.0
            },
            {
                "start_time": 161.14090909090908,
                "end_time": 161.20681818181816,
                "pitch": 79,
                "velocity": 64,
                "duration": 0.06590909090908781,
                "tempo": 120.0
            },
            {
                "start_time": 161.2090909090909,
                "end_time": 161.81136363636364,
                "pitch": 86,
                "velocity": 64,
                "duration": 0.6022727272727479,
                "tempo": 120.0
            },
            {
                "start_time": 161.81363636363636,
                "end_time": 162.2159090909091,
                "pitch": 84,
                "velocity": 64,
                "duration": 0.4022727272727309,
                "tempo": 120.0
            },
            {
                "start_time": 161.14090909090908,
                "end_time": 162.2840909090909,
                "pitch": 67,
                "velocity": 64,
                "duration": 1.14318181818183,
                "tempo": 120.0
            },
            {
                "start_time": 162.21818181818182,
                "end_time": 162.2840909090909,
                "pitch": 74,
                "velocity": 64,
                "duration": 0.06590909090908781,
                "tempo": 120.0
            },
            {
                "start_time": 162.2840909090909,
                "end_time": 162.35,
                "pitch": 79,
                "velocity": 64,
                "duration": 0.06590909090908781,
                "tempo": 120.0
            },
            {
                "start_time": 162.35,
                "end_time": 162.41590909090908,
                "pitch": 82,
                "velocity": 64,
                "duration": 0.06590909090908781,
                "tempo": 120.0
            },
            {
                "start_time": 162.4181818181818,
                "end_time": 163.22045454545454,
                "pitch": 86,
                "velocity": 64,
                "duration": 0.8022727272727366,
                "tempo": 120.0
            },
            {
                "start_time": 163.22272727272727,
                "end_time": 163.62272727272727,
                "pitch": 84,
                "velocity": 64,
                "duration": 0.4000000000000057,
                "tempo": 120.0
            },
            {
                "start_time": 163.625,
                "end_time": 163.6590909090909,
                "pitch": 79,
                "velocity": 64,
                "duration": 0.03409090909090651,
                "tempo": 120.0
            },
            {
                "start_time": 163.6590909090909,
                "end_time": 163.6909090909091,
                "pitch": 82,
                "velocity": 64,
                "duration": 0.0318181818181813,
                "tempo": 120.0
            },
            {
                "start_time": 163.6931818181818,
                "end_time": 164.03181818181818,
                "pitch": 86,
                "velocity": 64,
                "duration": 0.3386363636363683,
                "tempo": 120.0
            },
            {
                "start_time": 164.0340909090909,
                "end_time": 164.43863636363636,
                "pitch": 89,
                "velocity": 64,
                "duration": 0.4045454545454561,
                "tempo": 120.0
            },
            {
                "start_time": 164.4409090909091,
                "end_time": 164.45681818181816,
                "pitch": 90,
                "velocity": 64,
                "duration": 0.01590909090907644,
                "tempo": 120.0
            },
            {
                "start_time": 155.85,
                "end_time": 164.92045454545453,
                "pitch": 91,
                "velocity": 64,
                "duration": 9.070454545454538,
                "tempo": 120.0
            },
            {
                "start_time": 164.45681818181816,
                "end_time": 164.92045454545453,
                "pitch": 91,
                "velocity": 64,
                "duration": 0.4636363636363683,
                "tempo": 120.0
            },
            {
                "start_time": 164.45681818181816,
                "end_time": 164.93636363636364,
                "pitch": 79,
                "velocity": 64,
                "duration": 0.47954545454547315,
                "tempo": 120.0
            },
            {
                "start_time": 164.92045454545453,
                "end_time": 164.93636363636364,
                "pitch": 91,
                "velocity": 64,
                "duration": 0.01590909090910486,
                "tempo": 120.0
            },
            {
                "start_time": 164.93636363636364,
                "end_time": 165.0681818181818,
                "pitch": 91,
                "velocity": 64,
                "duration": 0.13181818181817562,
                "tempo": 120.0
            },
            {
                "start_time": 164.92045454545453,
                "end_time": 165.0681818181818,
                "pitch": 103,
                "velocity": 64,
                "duration": 0.14772727272728048,
                "tempo": 120.0
            },
            {
                "start_time": 164.93636363636364,
                "end_time": 165.10227272727272,
                "pitch": 79,
                "velocity": 64,
                "duration": 0.16590909090908212,
                "tempo": 120.0
            },
            {
                "start_time": 165.0681818181818,
                "end_time": 165.10227272727272,
                "pitch": 91,
                "velocity": 64,
                "duration": 0.03409090909090651,
                "tempo": 120.0
            },
            {
                "start_time": 165.10227272727272,
                "end_time": 165.23636363636362,
                "pitch": 91,
                "velocity": 64,
                "duration": 0.13409090909090082,
                "tempo": 120.0
            },
            {
                "start_time": 165.0681818181818,
                "end_time": 165.23636363636362,
                "pitch": 103,
                "velocity": 64,
                "duration": 0.16818181818180733,
                "tempo": 120.0
            },
            {
                "start_time": 165.10227272727272,
                "end_time": 165.27045454545453,
                "pitch": 79,
                "velocity": 64,
                "duration": 0.16818181818180733,
                "tempo": 120.0
            },
            {
                "start_time": 165.23636363636362,
                "end_time": 165.27045454545453,
                "pitch": 91,
                "velocity": 64,
                "duration": 0.03409090909090651,
                "tempo": 120.0
            },
            {
                "start_time": 165.27045454545453,
                "end_time": 165.40454545454546,
                "pitch": 91,
                "velocity": 64,
                "duration": 0.13409090909092924,
                "tempo": 120.0
            },
            {
                "start_time": 165.23636363636362,
                "end_time": 165.40454545454546,
                "pitch": 103,
                "velocity": 64,
                "duration": 0.16818181818183575,
                "tempo": 120.0
            },
            {
                "start_time": 165.27045454545453,
                "end_time": 165.5772727272727,
                "pitch": 79,
                "velocity": 64,
                "duration": 0.306818181818187,
                "tempo": 120.0
            },
            {
                "start_time": 165.40454545454546,
                "end_time": 165.5772727272727,
                "pitch": 91,
                "velocity": 64,
                "duration": 0.17272727272725774,
                "tempo": 120.0
            },
            {
                "start_time": 165.5772727272727,
                "end_time": 165.71363636363637,
                "pitch": 91,
                "velocity": 64,
                "duration": 0.13636363636365445,
                "tempo": 120.0
            },
            {
                "start_time": 165.5772727272727,
                "end_time": 165.85,
                "pitch": 79,
                "velocity": 64,
                "duration": 0.2727272727272805,
                "tempo": 120.0
            },
            {
                "start_time": 165.71363636363637,
                "end_time": 165.85,
                "pitch": 90,
                "velocity": 64,
                "duration": 0.13636363636362603,
                "tempo": 120.0
            },
            {
                "start_time": 165.85,
                "end_time": 165.97954545454544,
                "pitch": 91,
                "velocity": 64,
                "duration": 0.1295454545454504,
                "tempo": 120.0
            },
            {
                "start_time": 165.71363636363637,
                "end_time": 165.97954545454544,
                "pitch": 102,
                "velocity": 64,
                "duration": 0.26590909090907644,
                "tempo": 120.0
            },
            {
                "start_time": 165.85,
                "end_time": 166.11136363636362,
                "pitch": 79,
                "velocity": 64,
                "duration": 0.26136363636362603,
                "tempo": 120.0
            },
            {
                "start_time": 165.97954545454544,
                "end_time": 166.11136363636362,
                "pitch": 90,
                "velocity": 64,
                "duration": 0.13181818181817562,
                "tempo": 120.0
            },
            {
                "start_time": 166.11136363636362,
                "end_time": 166.2431818181818,
                "pitch": 91,
                "velocity": 64,
                "duration": 0.13181818181817562,
                "tempo": 120.0
            },
            {
                "start_time": 165.97954545454544,
                "end_time": 166.2431818181818,
                "pitch": 102,
                "velocity": 64,
                "duration": 0.26363636363635123,
                "tempo": 120.0
            },
            {
                "start_time": 166.11136363636362,
                "end_time": 166.37954545454545,
                "pitch": 79,
                "velocity": 64,
                "duration": 0.26818181818183007,
                "tempo": 120.0
            },
            {
                "start_time": 166.2431818181818,
                "end_time": 166.37954545454545,
                "pitch": 90,
                "velocity": 64,
                "duration": 0.13636363636365445,
                "tempo": 120.0
            },
            {
                "start_time": 166.37954545454545,
                "end_time": 166.51590909090908,
                "pitch": 91,
                "velocity": 64,
                "duration": 0.13636363636362603,
                "tempo": 120.0
            },
            {
                "start_time": 166.2431818181818,
                "end_time": 166.51590909090908,
                "pitch": 102,
                "velocity": 64,
                "duration": 0.2727272727272805,
                "tempo": 120.0
            },
            {
                "start_time": 166.51590909090908,
                "end_time": 166.65227272727273,
                "pitch": 90,
                "velocity": 64,
                "duration": 0.13636363636365445,
                "tempo": 120.0
            },
            {
                "start_time": 166.37954545454545,
                "end_time": 166.65454545454546,
                "pitch": 79,
                "velocity": 64,
                "duration": 0.2750000000000057,
                "tempo": 120.0
            },
            {
                "start_time": 166.65227272727273,
                "end_time": 166.65454545454546,
                "pitch": 79,
                "velocity": 64,
                "duration": 0.0022727272727252057,
                "tempo": 120.0
            },
            {
                "start_time": 166.65454545454546,
                "end_time": 167.28636363636363,
                "pitch": 91,
                "velocity": 64,
                "duration": 0.6318181818181756,
                "tempo": 120.0
            },
            {
                "start_time": 165.40454545454546,
                "end_time": 167.28636363636363,
                "pitch": 103,
                "velocity": 64,
                "duration": 1.8818181818181756,
                "tempo": 120.0
            },
            {
                "start_time": 167.28636363636363,
                "end_time": 167.53863636363636,
                "pitch": 91,
                "velocity": 64,
                "duration": 0.2522727272727252,
                "tempo": 120.0
            },
            {
                "start_time": 167.53863636363636,
                "end_time": 167.65681818181818,
                "pitch": 89,
                "velocity": 64,
                "duration": 0.11818181818182438,
                "tempo": 120.0
            },
            {
                "start_time": 167.6590909090909,
                "end_time": 167.85681818181817,
                "pitch": 64,
                "velocity": 64,
                "duration": 0.19772727272726343,
                "tempo": 120.0
            },
            {
                "start_time": 167.8590909090909,
                "end_time": 168.2590909090909,
                "pitch": 57,
                "velocity": 64,
                "duration": 0.4000000000000057,
                "tempo": 120.0
            },
            {
                "start_time": 168.26136363636363,
                "end_time": 168.66363636363636,
                "pitch": 59,
                "velocity": 64,
                "duration": 0.4022727272727309,
                "tempo": 120.0
            },
            {
                "start_time": 168.66363636363636,
                "end_time": 169.0659090909091,
                "pitch": 60,
                "velocity": 64,
                "duration": 0.4022727272727309,
                "tempo": 120.0
            },
            {
                "start_time": 169.0681818181818,
                "end_time": 169.6681818181818,
                "pitch": 62,
                "velocity": 64,
                "duration": 0.5999999999999943,
                "tempo": 120.0
            },
            {
                "start_time": 169.67045454545453,
                "end_time": 170.07272727272726,
                "pitch": 55,
                "velocity": 64,
                "duration": 0.4022727272727309,
                "tempo": 120.0
            },
            {
                "start_time": 170.07272727272726,
                "end_time": 170.27272727272725,
                "pitch": 59,
                "velocity": 64,
                "duration": 0.19999999999998863,
                "tempo": 120.0
            },
            {
                "start_time": 170.275,
                "end_time": 170.87954545454545,
                "pitch": 60,
                "velocity": 64,
                "duration": 0.6045454545454447,
                "tempo": 120.0
            },
            {
                "start_time": 170.87954545454545,
                "end_time": 171.07954545454544,
                "pitch": 64,
                "velocity": 64,
                "duration": 0.19999999999998863,
                "tempo": 120.0
            },
            {
                "start_time": 171.08181818181816,
                "end_time": 171.47954545454544,
                "pitch": 57,
                "velocity": 64,
                "duration": 0.3977272727272805,
                "tempo": 120.0
            },
            {
                "start_time": 171.48181818181817,
                "end_time": 171.8840909090909,
                "pitch": 59,
                "velocity": 64,
                "duration": 0.4022727272727309,
                "tempo": 120.0
            },
            {
                "start_time": 171.8840909090909,
                "end_time": 172.29545454545453,
                "pitch": 69,
                "velocity": 64,
                "duration": 0.4113636363636317,
                "tempo": 120.0
            },
            {
                "start_time": 162.2840909090909,
                "end_time": 172.8931818181818,
                "pitch": 67,
                "velocity": 64,
                "duration": 10.609090909090895,
                "tempo": 120.0
            },
            {
                "start_time": 172.29545454545453,
                "end_time": 172.8931818181818,
                "pitch": 67,
                "velocity": 64,
                "duration": 0.5977272727272691,
                "tempo": 120.0
            },
            {
                "start_time": 172.8931818181818,
                "end_time": 173.29999999999998,
                "pitch": 65,
                "velocity": 64,
                "duration": 0.4068181818181813,
                "tempo": 120.0
            },
            {
                "start_time": 173.3022727272727,
                "end_time": 173.7022727272727,
                "pitch": 64,
                "velocity": 64,
                "duration": 0.4000000000000057,
                "tempo": 120.0
            },
            {
                "start_time": 173.7022727272727,
                "end_time": 174.10454545454544,
                "pitch": 62,
                "velocity": 64,
                "duration": 0.4022727272727309,
                "tempo": 120.0
            },
            {
                "start_time": 174.10681818181817,
                "end_time": 174.30454545454543,
                "pitch": 64,
                "velocity": 64,
                "duration": 0.19772727272726343,
                "tempo": 120.0
            },
            {
                "start_time": 174.3068181818182,
                "end_time": 174.7090909090909,
                "pitch": 57,
                "velocity": 64,
                "duration": 0.40227272727270247,
                "tempo": 120.0
            },
            {
                "start_time": 174.7090909090909,
                "end_time": 175.11136363636362,
                "pitch": 59,
                "velocity": 64,
                "duration": 0.4022727272727309,
                "tempo": 120.0
            },
            {
                "start_time": 175.11363636363635,
                "end_time": 175.51590909090908,
                "pitch": 60,
                "velocity": 64,
                "duration": 0.4022727272727309,
                "tempo": 120.0
            },
            {
                "start_time": 175.51590909090908,
                "end_time": 176.1181818181818,
                "pitch": 62,
                "velocity": 64,
                "duration": 0.6022727272727195,
                "tempo": 120.0
            },
            {
                "start_time": 176.1181818181818,
                "end_time": 176.52045454545453,
                "pitch": 55,
                "velocity": 64,
                "duration": 0.4022727272727309,
                "tempo": 120.0
            },
            {
                "start_time": 176.52272727272725,
                "end_time": 176.72272727272727,
                "pitch": 59,
                "velocity": 64,
                "duration": 0.20000000000001705,
                "tempo": 120.0
            },
            {
                "start_time": 176.72272727272727,
                "end_time": 177.3272727272727,
                "pitch": 60,
                "velocity": 64,
                "duration": 0.6045454545454447,
                "tempo": 120.0
            },
            {
                "start_time": 177.3272727272727,
                "end_time": 177.72954545454544,
                "pitch": 57,
                "velocity": 64,
                "duration": 0.4022727272727309,
                "tempo": 120.0
            },
            {
                "start_time": 177.72954545454544,
                "end_time": 178.33181818181816,
                "pitch": 60,
                "velocity": 64,
                "duration": 0.6022727272727195,
                "tempo": 120.0
            },
            {
                "start_time": 178.3340909090909,
                "end_time": 178.73636363636362,
                "pitch": 59,
                "velocity": 64,
                "duration": 0.4022727272727309,
                "tempo": 120.0
            },
            {
                "start_time": 178.73636363636362,
                "end_time": 178.93636363636364,
                "pitch": 55,
                "velocity": 64,
                "duration": 0.20000000000001705,
                "tempo": 120.0
            }
        ]
    }
}