{
    "track_id": "20 Game Over",
    "mood": "sad",
    "instruments": {
        "Electric Piano 1": [
            {
                "start_time": 0.4659090909090909,
                "end_time": 0.9318181818181818,
                "pitch": 55,
                "velocity": 80,
                "duration": 0.4659090909090909,
                "tempo": 120.0
            },
            {
                "start_time": 0.9340909090909091,
                "end_time": 1.4,
                "pitch": 57,
                "velocity": 80,
                "duration": 0.46590909090909083,
                "tempo": 120.0
            },
            {
                "start_time": 1.4022727272727271,
                "end_time": 2.8068181818181817,
                "pitch": 58,
                "velocity": 80,
                "duration": 1.4045454545454545,
                "tempo": 120.0
            },
            {
                "start_time": 2.809090909090909,
                "end_time": 3.743181818181818,
                "pitch": 55,
                "velocity": 80,
                "duration": 0.9340909090909091,
                "tempo": 120.0
            },
            {
                "start_time": 4.2340909090909085,
                "end_time": 4.722727272727273,
                "pitch": 53,
                "velocity": 80,
                "duration": 0.4886363636363642,
                "tempo": 120.0
            },
            {
                "start_time": 4.725,
                "end_time": 5.213636363636363,
                "pitch": 55,
                "velocity": 80,
                "duration": 0.4886363636363633,
                "tempo": 120.0
            },
            {
                "start_time": 5.218181818181818,
                "end_time": 7.584090909090909,
                "pitch": 57,
                "velocity": 80,
                "duration": 2.365909090909091,
                "tempo": 120.0
            },
            {
                "start_time": 8.065909090909091,
                "end_time": 8.547727272727272,
                "pitch": 58,
                "velocity": 80,
                "duration": 0.4818181818181806,
                "tempo": 120.0
            },
            {
                "start_time": 8.549999999999999,
                "end_time": 9.031818181818181,
                "pitch": 57,
                "velocity": 80,
                "duration": 0.48181818181818237,
                "tempo": 120.0
            },
            {
                "start_time": 9.034090909090908,
                "end_time": 9.986363636363636,
                "pitch": 55,
                "velocity": 80,
                "duration": 0.952272727272728,
                "tempo": 120.0
            },
            {
                "start_time": 9.986363636363636,
                "end_time": 10.054545454545455,
                "pitch": 55,
                "velocity": 80,
                "duration": 0.06818181818181834,
                "tempo": 120.0
            },
            {
                "start_time": 10.054545454545455,
                "end_time": 10.322727272727272,
                "pitch": 55,
                "velocity": 80,
                "duration": 0.26818181818181763,
                "tempo": 120.0
            },
            {
                "start_time": 9.986363636363636,
                "end_time": 10.322727272727272,
                "pitch": 67,
                "velocity": 80,
                "duration": 0.336363636363636,
                "tempo": 120.0
            },
            {
                "start_time": 10.054545454545455,
                "end_time": 10.388636363636364,
                "pitch": 43,
                "velocity": 80,
                "duration": 0.334090909090909,
                "tempo": 120.0
            },
            {
                "start_time": 10.322727272727272,
                "end_time": 10.388636363636364,
                "pitch": 55,
                "velocity": 80,
                "duration": 0.06590909090909136,
                "tempo": 120.0
            },
            {
                "start_time": 10.388636363636364,
                "end_time": 10.454545454545453,
                "pitch": 55,
                "velocity": 80,
                "duration": 0.06590909090908958,
                "tempo": 120.0
            },
            {
                "start_time": 10.456818181818182,
                "end_time": 11.39090909090909,
                "pitch": 53,
                "velocity": 80,
                "duration": 0.9340909090909086,
                "tempo": 120.0
            },
            {
                "start_time": 11.395454545454545,
                "end_time": 12.331818181818182,
                "pitch": 55,
                "velocity": 80,
                "duration": 0.9363636363636374,
                "tempo": 120.0
            },
            {
                "start_time": 10.322727272727272,
                "end_time": 12.331818181818182,
                "pitch": 67,
                "velocity": 80,
                "duration": 2.0090909090909097,
                "tempo": 120.0
            },
            {
                "start_time": 10.388636363636364,
                "end_time": 12.397727272727272,
                "pitch": 43,
                "velocity": 80,
                "duration": 2.009090909090908,
                "tempo": 120.0
            },
            {
                "start_time": 12.331818181818182,
                "end_time": 12.397727272727272,
                "pitch": 55,
                "velocity": 80,
                "duration": 0.06590909090908958,
                "tempo": 120.0
            },
            {
                "start_time": 12.397727272727272,
                "end_time": 12.665909090909091,
                "pitch": 55,
                "velocity": 80,
                "duration": 0.2681818181818194,
                "tempo": 120.0
            },
            {
                "start_time": 12.331818181818182,
                "end_time": 12.665909090909091,
                "pitch": 67,
                "velocity": 80,
                "duration": 0.334090909090909,
                "tempo": 120.0
            },
            {
                "start_time": 12.397727272727272,
                "end_time": 12.73181818181818,
                "pitch": 43,
                "velocity": 80,
                "duration": 0.334090909090909,
                "tempo": 120.0
            },
            {
                "start_time": 12.665909090909091,
                "end_time": 12.73181818181818,
                "pitch": 55,
                "velocity": 80,
                "duration": 0.06590909090908958,
                "tempo": 120.0
            },
            {
                "start_time": 12.73181818181818,
                "end_time": 13.0,
                "pitch": 55,
                "velocity": 80,
                "duration": 0.2681818181818194,
                "tempo": 120.0
            },
            {
                "start_time": 12.665909090909091,
                "end_time": 13.0,
                "pitch": 67,
                "velocity": 80,
                "duration": 0.334090909090909,
                "tempo": 120.0
            },
            {
                "start_time": 12.73181818181818,
                "end_time": 13.068181818181818,
                "pitch": 43,
                "velocity": 80,
                "duration": 0.33636363636363775,
                "tempo": 120.0
            },
            {
                "start_time": 13.0,
                "end_time": 13.068181818181818,
                "pitch": 55,
                "velocity": 80,
                "duration": 0.06818181818181834,
                "tempo": 120.0
            },
            {
                "start_time": 13.068181818181818,
                "end_time": 13.336363636363636,
                "pitch": 55,
                "velocity": 80,
                "duration": 0.26818181818181763,
                "tempo": 120.0
            },
            {
                "start_time": 13.0,
                "end_time": 13.336363636363636,
                "pitch": 67,
                "velocity": 80,
                "duration": 0.336363636363636,
                "tempo": 120.0
            },
            {
                "start_time": 13.068181818181818,
                "end_time": 13.406818181818181,
                "pitch": 43,
                "velocity": 80,
                "duration": 0.33863636363636296,
                "tempo": 120.0
            },
            {
                "start_time": 13.336363636363636,
                "end_time": 13.406818181818181,
                "pitch": 55,
                "velocity": 80,
                "duration": 0.07045454545454533,
                "tempo": 120.0
            },
            {
                "start_time": 13.406818181818181,
                "end_time": 13.681818181818182,
                "pitch": 55,
                "velocity": 80,
                "duration": 0.27500000000000036,
                "tempo": 120.0
            },
            {
                "start_time": 13.336363636363636,
                "end_time": 13.681818181818182,
                "pitch": 67,
                "velocity": 80,
                "duration": 0.3454545454545457,
                "tempo": 120.0
            },
            {
                "start_time": 13.406818181818181,
                "end_time": 13.752272727272727,
                "pitch": 43,
                "velocity": 80,
                "duration": 0.3454545454545457,
                "tempo": 120.0
            },
            {
                "start_time": 13.681818181818182,
                "end_time": 13.752272727272727,
                "pitch": 55,
                "velocity": 80,
                "duration": 0.07045454545454533,
                "tempo": 120.0
            },
            {
                "start_time": 13.752272727272727,
                "end_time": 14.027272727272727,
                "pitch": 55,
                "velocity": 80,
                "duration": 0.27500000000000036,
                "tempo": 120.0
            },
            {
                "start_time": 13.681818181818182,
                "end_time": 14.027272727272727,
                "pitch": 67,
                "velocity": 80,
                "duration": 0.3454545454545457,
                "tempo": 120.0
            },
            {
                "start_time": 14.027272727272727,
                "end_time": 14.095454545454544,
                "pitch": 55,
                "velocity": 80,
                "duration": 0.06818181818181657,
                "tempo": 120.0
            },
            {
                "start_time": 13.752272727272727,
                "end_time": 14.097727272727273,
                "pitch": 43,
                "velocity": 80,
                "duration": 0.3454545454545457,
                "tempo": 120.0
            },
            {
                "start_time": 14.095454545454544,
                "end_time": 14.097727272727273,
                "pitch": 43,
                "velocity": 80,
                "duration": 0.0022727272727287584,
                "tempo": 120.0
            },
            {
                "start_time": 14.097727272727273,
                "end_time": 14.372727272727271,
                "pitch": 55,
                "velocity": 80,
                "duration": 0.2749999999999986,
                "tempo": 120.0
            },
            {
                "start_time": 14.027272727272727,
                "end_time": 14.372727272727271,
                "pitch": 67,
                "velocity": 80,
                "duration": 0.3454545454545439,
                "tempo": 120.0
            },
            {
                "start_time": 14.372727272727271,
                "end_time": 14.44090909090909,
                "pitch": 55,
                "velocity": 80,
                "duration": 0.06818181818181834,
                "tempo": 120.0
            },
            {
                "start_time": 14.44090909090909,
                "end_time": 14.443181818181818,
                "pitch": 43,
                "velocity": 80,
                "duration": 0.0022727272727287584,
                "tempo": 120.0
            },
            {
                "start_time": 14.443181818181818,
                "end_time": 14.71590909090909,
                "pitch": 55,
                "velocity": 80,
                "duration": 0.2727272727272716,
                "tempo": 120.0
            }
        ]
    }
}