{
    "track_id": "21 Rooftop (Thieves Tower)",
    "mood": "sad",
    "instruments": {
        "Clarinet": [
            {
                "start_time": 5.629545454545454,
                "end_time": 5.661363636363636,
                "pitch": 37,
                "velocity": 40,
                "duration": 0.03181818181818219,
                "tempo": 120.0
            },
            {
                "start_time": 5.661363636363636,
                "end_time": 5.695454545454545,
                "pitch": 37,
                "velocity": 40,
                "duration": 0.03409090909090917,
                "tempo": 120.0
            },
            {
                "start_time": 5.695454545454545,
                "end_time": 5.779545454545454,
                "pitch": 38,
                "velocity": 40,
                "duration": 0.084090909090909,
                "tempo": 120.0
            },
            {
                "start_time": 5.779545454545454,
                "end_time": 5.861363636363636,
                "pitch": 39,
                "velocity": 40,
                "duration": 0.08181818181818201,
                "tempo": 120.0
            },
            {
                "start_time": 5.861363636363636,
                "end_time": 5.977272727272727,
                "pitch": 40,
                "velocity": 40,
                "duration": 0.1159090909090903,
                "tempo": 120.0
            },
            {
                "start_time": 5.977272727272727,
                "end_time": 6.095454545454545,
                "pitch": 41,
                "velocity": 40,
                "duration": 0.11818181818181817,
                "tempo": 120.0
            },
            {
                "start_time": 6.095454545454545,
                "end_time": 6.245454545454545,
                "pitch": 42,
                "velocity": 40,
                "duration": 0.15000000000000036,
                "tempo": 120.0
            },
            {
                "start_time": 6.245454545454545,
                "end_time": 6.3954545454545455,
                "pitch": 44,
                "velocity": 40,
                "duration": 0.15000000000000036,
                "tempo": 120.0
            },
            {
                "start_time": 6.3954545454545455,
                "end_time": 6.593181818181818,
                "pitch": 44,
                "velocity": 40,
                "duration": 0.1977272727272723,
                "tempo": 120.0
            },
            {
                "start_time": 6.593181818181818,
                "end_time": 6.777272727272727,
                "pitch": 45,
                "velocity": 40,
                "duration": 0.18409090909090953,
                "tempo": 120.0
            },
            {
                "start_time": 6.777272727272727,
                "end_time": 7.011363636363636,
                "pitch": 46,
                "velocity": 40,
                "duration": 0.23409090909090846,
                "tempo": 120.0
            },
            {
                "start_time": 7.011363636363636,
                "end_time": 7.243181818181818,
                "pitch": 47,
                "velocity": 40,
                "duration": 0.23181818181818237,
                "tempo": 120.0
            },
            {
                "start_time": 7.243181818181818,
                "end_time": 7.4818181818181815,
                "pitch": 46,
                "velocity": 40,
                "duration": 0.2386363636363633,
                "tempo": 120.0
            },
            {
                "start_time": 7.4818181818181815,
                "end_time": 7.718181818181818,
                "pitch": 45,
                "velocity": 40,
                "duration": 0.23636363636363633,
                "tempo": 120.0
            },
            {
                "start_time": 5.629545454545454,
                "end_time": 12.929545454545455,
                "pitch": 43,
                "velocity": 40,
                "duration": 7.300000000000001,
                "tempo": 120.0
            },
            {
                "start_time": 12.929545454545455,
                "end_time": 12.961363636363636,
                "pitch": 37,
                "velocity": 40,
                "duration": 0.0318181818181813,
                "tempo": 120.0
            },
            {
                "start_time": 12.961363636363636,
                "end_time": 12.995454545454544,
                "pitch": 37,
                "velocity": 40,
                "duration": 0.034090909090908283,
                "tempo": 120.0
            },
            {
                "start_time": 12.995454545454544,
                "end_time": 13.081818181818182,
                "pitch": 38,
                "velocity": 40,
                "duration": 0.08636363636363775,
                "tempo": 120.0
            },
            {
                "start_time": 13.081818181818182,
                "end_time": 13.165909090909091,
                "pitch": 39,
                "velocity": 40,
                "duration": 0.084090909090909,
                "tempo": 120.0
            },
            {
                "start_time": 13.165909090909091,
                "end_time": 13.284090909090908,
                "pitch": 40,
                "velocity": 40,
                "duration": 0.11818181818181728,
                "tempo": 120.0
            },
            {
                "start_time": 13.284090909090908,
                "end_time": 13.404545454545454,
                "pitch": 41,
                "velocity": 40,
                "duration": 0.12045454545454604,
                "tempo": 120.0
            },
            {
                "start_time": 13.404545454545454,
                "end_time": 13.552272727272726,
                "pitch": 42,
                "velocity": 40,
                "duration": 0.1477272727272716,
                "tempo": 120.0
            },
            {
                "start_time": 6.245454545454545,
                "end_time": 13.552272727272726,
                "pitch": 55,
                "velocity": 40,
                "duration": 7.306818181818181,
                "tempo": 120.0
            },
            {
                "start_time": 13.552272727272726,
                "end_time": 13.697727272727272,
                "pitch": 44,
                "velocity": 40,
                "duration": 0.1454545454545464,
                "tempo": 120.0
            },
            {
                "start_time": 13.697727272727272,
                "end_time": 13.893181818181818,
                "pitch": 44,
                "velocity": 40,
                "duration": 0.19545454545454533,
                "tempo": 120.0
            },
            {
                "start_time": 13.893181818181818,
                "end_time": 14.077272727272726,
                "pitch": 45,
                "velocity": 40,
                "duration": 0.18409090909090864,
                "tempo": 120.0
            },
            {
                "start_time": 14.077272727272726,
                "end_time": 14.311363636363636,
                "pitch": 46,
                "velocity": 40,
                "duration": 0.23409090909090935,
                "tempo": 120.0
            },
            {
                "start_time": 14.311363636363636,
                "end_time": 14.543181818181818,
                "pitch": 47,
                "velocity": 40,
                "duration": 0.23181818181818237,
                "tempo": 120.0
            },
            {
                "start_time": 14.543181818181818,
                "end_time": 14.777272727272727,
                "pitch": 46,
                "velocity": 40,
                "duration": 0.23409090909090935,
                "tempo": 120.0
            },
            {
                "start_time": 14.777272727272727,
                "end_time": 15.01590909090909,
                "pitch": 45,
                "velocity": 40,
                "duration": 0.2386363636363633,
                "tempo": 120.0
            },
            {
                "start_time": 12.929545454545455,
                "end_time": 20.227272727272727,
                "pitch": 43,
                "velocity": 40,
                "duration": 7.297727272727272,
                "tempo": 120.0
            },
            {
                "start_time": 20.227272727272727,
                "end_time": 20.259090909090908,
                "pitch": 37,
                "velocity": 40,
                "duration": 0.0318181818181813,
                "tempo": 120.0
            },
            {
                "start_time": 20.259090909090908,
                "end_time": 20.293181818181818,
                "pitch": 37,
                "velocity": 40,
                "duration": 0.03409090909091006,
                "tempo": 120.0
            },
            {
                "start_time": 20.293181818181818,
                "end_time": 20.377272727272725,
                "pitch": 38,
                "velocity": 40,
                "duration": 0.08409090909090722,
                "tempo": 120.0
            },
            {
                "start_time": 20.377272727272725,
                "end_time": 20.461363636363636,
                "pitch": 39,
                "velocity": 40,
                "duration": 0.08409090909091077,
                "tempo": 120.0
            },
            {
                "start_time": 20.461363636363636,
                "end_time": 20.579545454545453,
                "pitch": 40,
                "velocity": 40,
                "duration": 0.11818181818181728,
                "tempo": 120.0
            },
            {
                "start_time": 20.579545454545453,
                "end_time": 20.7,
                "pitch": 41,
                "velocity": 40,
                "duration": 0.12045454545454604,
                "tempo": 120.0
            },
            {
                "start_time": 20.7,
                "end_time": 20.854545454545452,
                "pitch": 42,
                "velocity": 40,
                "duration": 0.15454545454545254,
                "tempo": 120.0
            },
            {
                "start_time": 13.552272727272726,
                "end_time": 20.854545454545452,
                "pitch": 55,
                "velocity": 40,
                "duration": 7.302272727272726,
                "tempo": 120.0
            },
            {
                "start_time": 20.854545454545452,
                "end_time": 21.01590909090909,
                "pitch": 44,
                "velocity": 40,
                "duration": 0.16136363636363882,
                "tempo": 120.0
            },
            {
                "start_time": 21.01590909090909,
                "end_time": 21.259090909090908,
                "pitch": 44,
                "velocity": 40,
                "duration": 0.24318181818181728,
                "tempo": 120.0
            },
            {
                "start_time": 21.259090909090908,
                "end_time": 21.48181818181818,
                "pitch": 45,
                "velocity": 40,
                "duration": 0.22272727272727266,
                "tempo": 120.0
            },
            {
                "start_time": 21.48181818181818,
                "end_time": 21.754545454545454,
                "pitch": 46,
                "velocity": 40,
                "duration": 0.2727272727272734,
                "tempo": 120.0
            },
            {
                "start_time": 21.754545454545454,
                "end_time": 22.01590909090909,
                "pitch": 47,
                "velocity": 40,
                "duration": 0.2613636363636367,
                "tempo": 120.0
            },
            {
                "start_time": 22.01590909090909,
                "end_time": 22.261363636363637,
                "pitch": 46,
                "velocity": 40,
                "duration": 0.24545454545454604,
                "tempo": 120.0
            },
            {
                "start_time": 22.261363636363637,
                "end_time": 22.493181818181817,
                "pitch": 45,
                "velocity": 40,
                "duration": 0.2318181818181806,
                "tempo": 120.0
            }
        ],
        "Vibraphone": [
            {
                "start_time": 0.4818181818181818,
                "end_time": 2.9681818181818183,
                "pitch": 43,
                "velocity": 101,
                "duration": 2.4863636363636363,
                "tempo": 120.0
            },
            {
                "start_time": 2.9681818181818183,
                "end_time": 5.465909090909091,
                "pitch": 43,
                "velocity": 80,
                "duration": 2.4977272727272726,
                "tempo": 120.0
            },
            {
                "start_time": 7.806818181818182,
                "end_time": 10.284090909090908,
                "pitch": 43,
                "velocity": 101,
                "duration": 2.4772727272727266,
                "tempo": 120.0
            },
            {
                "start_time": 10.284090909090908,
                "end_time": 12.763636363636364,
                "pitch": 43,
                "velocity": 80,
                "duration": 2.4795454545454554,
                "tempo": 120.0
            },
            {
                "start_time": 15.102272727272727,
                "end_time": 17.584090909090907,
                "pitch": 43,
                "velocity": 101,
                "duration": 2.4818181818181806,
                "tempo": 120.0
            },
            {
                "start_time": 17.584090909090907,
                "end_time": 20.077272727272728,
                "pitch": 43,
                "velocity": 80,
                "duration": 2.493181818181821,
                "tempo": 120.0
            }
        ]
    }
}