{
    "track_id": "24 Ending",
    "mood": "sad",
    "instruments": {
        "Electric Piano 1": [
            {
                "start_time": 86.65227272727272,
                "end_time": 87.19090909090909,
                "pitch": 50,
                "velocity": 51,
                "duration": 0.5386363636363711,
                "tempo": 120.0
            },
            {
                "start_time": 87.23863636363636,
                "end_time": 87.79090909090908,
                "pitch": 50,
                "velocity": 51,
                "duration": 0.5522727272727224,
                "tempo": 120.0
            },
            {
                "start_time": 87.83863636363635,
                "end_time": 88.10454545454544,
                "pitch": 52,
                "velocity": 51,
                "duration": 0.26590909090909065,
                "tempo": 120.0
            },
            {
                "start_time": 88.13863636363637,
                "end_time": 88.38863636363637,
                "pitch": 53,
                "velocity": 51,
                "duration": 0.25,
                "tempo": 120.0
            },
            {
                "start_time": 88.43636363636364,
                "end_time": 88.98863636363636,
                "pitch": 55,
                "velocity": 51,
                "duration": 0.5522727272727224,
                "tempo": 120.0
            },
            {
                "start_time": 89.02045454545454,
                "end_time": 89.57727272727273,
                "pitch": 55,
                "velocity": 51,
                "duration": 0.556818181818187,
                "tempo": 120.0
            },
            {
                "start_time": 89.60909090909091,
                "end_time": 89.86818181818181,
                "pitch": 57,
                "velocity": 51,
                "duration": 0.2590909090909008,
                "tempo": 120.0
            },
            {
                "start_time": 89.91818181818181,
                "end_time": 90.17727272727272,
                "pitch": 59,
                "velocity": 51,
                "duration": 0.25909090909091503,
                "tempo": 120.0
            },
            {
                "start_time": 90.21136363636363,
                "end_time": 90.77499999999999,
                "pitch": 52,
                "velocity": 51,
                "duration": 0.5636363636363626,
                "tempo": 120.0
            },
            {
                "start_time": 90.8090909090909,
                "end_time": 91.36590909090908,
                "pitch": 48,
                "velocity": 51,
                "duration": 0.556818181818187,
                "tempo": 120.0
            },
            {
                "start_time": 91.39999999999999,
                "end_time": 91.65681818181818,
                "pitch": 52,
                "velocity": 51,
                "duration": 0.25681818181818983,
                "tempo": 120.0
            },
            {
                "start_time": 91.69090909090909,
                "end_time": 91.95681818181818,
                "pitch": 52,
                "velocity": 51,
                "duration": 0.26590909090909065,
                "tempo": 120.0
            },
            {
                "start_time": 91.98863636363636,
                "end_time": 92.84318181818182,
                "pitch": 49,
                "velocity": 51,
                "duration": 0.8545454545454589,
                "tempo": 120.0
            },
            {
                "start_time": 92.87727272727273,
                "end_time": 93.12727272727273,
                "pitch": 49,
                "velocity": 51,
                "duration": 0.25,
                "tempo": 120.0
            },
            {
                "start_time": 93.175,
                "end_time": 93.44318181818181,
                "pitch": 49,
                "velocity": 51,
                "duration": 0.26818181818181586,
                "tempo": 120.0
            },
            {
                "start_time": 93.47727272727272,
                "end_time": 93.72727272727272,
                "pitch": 49,
                "velocity": 51,
                "duration": 0.25,
                "tempo": 120.0
            },
            {
                "start_time": 93.77499999999999,
                "end_time": 94.32499999999999,
                "pitch": 50,
                "velocity": 51,
                "duration": 0.5499999999999972,
                "tempo": 120.0
            },
            {
                "start_time": 94.37272727272727,
                "end_time": 94.91590909090908,
                "pitch": 50,
                "velocity": 51,
                "duration": 0.5431818181818073,
                "tempo": 120.0
            },
            {
                "start_time": 94.94772727272726,
                "end_time": 95.22272727272727,
                "pitch": 50,
                "velocity": 51,
                "duration": 0.2750000000000057,
                "tempo": 120.0
            },
            {
                "start_time": 95.25681818181818,
                "end_time": 95.51363636363637,
                "pitch": 47,
                "velocity": 51,
                "duration": 0.25681818181818983,
                "tempo": 120.0
            },
            {
                "start_time": 95.54772727272727,
                "end_time": 96.11136363636363,
                "pitch": 47,
                "velocity": 51,
                "duration": 0.5636363636363626,
                "tempo": 120.0
            },
            {
                "start_time": 96.14545454545454,
                "end_time": 96.7090909090909,
                "pitch": 47,
                "velocity": 51,
                "duration": 0.5636363636363626,
                "tempo": 120.0
            },
            {
                "start_time": 96.74318181818181,
                "end_time": 96.99318181818181,
                "pitch": 50,
                "velocity": 51,
                "duration": 0.25,
                "tempo": 120.0
            },
            {
                "start_time": 97.04090909090908,
                "end_time": 97.3090909090909,
                "pitch": 47,
                "velocity": 51,
                "duration": 0.26818181818181586,
                "tempo": 120.0
            },
            {
                "start_time": 97.34318181818182,
                "end_time": 97.89090909090909,
                "pitch": 48,
                "velocity": 51,
                "duration": 0.547727272727272,
                "tempo": 120.0
            },
            {
                "start_time": 97.92272727272727,
                "end_time": 98.48181818181817,
                "pitch": 48,
                "velocity": 51,
                "duration": 0.559090909090898,
                "tempo": 120.0
            },
            {
                "start_time": 98.51363636363637,
                "end_time": 98.78181818181818,
                "pitch": 48,
                "velocity": 51,
                "duration": 0.26818181818181586,
                "tempo": 120.0
            },
            {
                "start_time": 98.81590909090909,
                "end_time": 99.06590909090909,
                "pitch": 48,
                "velocity": 51,
                "duration": 0.25,
                "tempo": 120.0
            },
            {
                "start_time": 99.11363636363636,
                "end_time": 100.85227272727272,
                "pitch": 49,
                "velocity": 51,
                "duration": 1.7386363636363598,
                "tempo": 120.0
            },
            {
                "start_time": 100.88636363636363,
                "end_time": 101.44999999999999,
                "pitch": 50,
                "velocity": 51,
                "duration": 0.5636363636363626,
                "tempo": 120.0
            },
            {
                "start_time": 101.48409090909091,
                "end_time": 102.04318181818181,
                "pitch": 50,
                "velocity": 51,
                "duration": 0.559090909090898,
                "tempo": 120.0
            },
            {
                "start_time": 102.07499999999999,
                "end_time": 102.3340909090909,
                "pitch": 41,
                "velocity": 51,
                "duration": 0.25909090909091503,
                "tempo": 120.0
            },
            {
                "start_time": 102.3840909090909,
                "end_time": 102.64999999999999,
                "pitch": 48,
                "velocity": 51,
                "duration": 0.26590909090909065,
                "tempo": 120.0
            },
            {
                "start_time": 102.6840909090909,
                "end_time": 103.53181818181818,
                "pitch": 47,
                "velocity": 51,
                "duration": 0.8477272727272833,
                "tempo": 120.0
            },
            {
                "start_time": 103.58181818181818,
                "end_time": 103.84090909090908,
                "pitch": 41,
                "velocity": 51,
                "duration": 0.2590909090909008,
                "tempo": 120.0
            },
            {
                "start_time": 103.875,
                "end_time": 104.13181818181818,
                "pitch": 41,
                "velocity": 51,
                "duration": 0.2568181818181756,
                "tempo": 120.0
            },
            {
                "start_time": 104.16590909090908,
                "end_time": 105.00681818181818,
                "pitch": 41,
                "velocity": 51,
                "duration": 0.8409090909090935,
                "tempo": 120.0
            },
            {
                "start_time": 105.05454545454545,
                "end_time": 105.60681818181817,
                "pitch": 35,
                "velocity": 51,
                "duration": 0.5522727272727224,
                "tempo": 120.0
            },
            {
                "start_time": 105.65454545454546,
                "end_time": 105.92045454545455,
                "pitch": 40,
                "velocity": 51,
                "duration": 0.26590909090909065,
                "tempo": 120.0
            },
            {
                "start_time": 105.95454545454545,
                "end_time": 106.20454545454545,
                "pitch": 47,
                "velocity": 51,
                "duration": 0.25,
                "tempo": 120.0
            },
            {
                "start_time": 106.25454545454545,
                "end_time": 107.09090909090908,
                "pitch": 40,
                "velocity": 51,
                "duration": 0.8363636363636289,
                "tempo": 120.0
            },
            {
                "start_time": 107.12272727272726,
                "end_time": 107.39090909090909,
                "pitch": 40,
                "velocity": 51,
                "duration": 0.26818181818183007,
                "tempo": 120.0
            },
            {
                "start_time": 107.425,
                "end_time": 107.69090909090909,
                "pitch": 40,
                "velocity": 51,
                "duration": 0.26590909090909065,
                "tempo": 120.0
            },
            {
                "start_time": 107.72272727272727,
                "end_time": 107.98863636363636,
                "pitch": 40,
                "velocity": 51,
                "duration": 0.26590909090909065,
                "tempo": 120.0
            },
            {
                "start_time": 108.02272727272727,
                "end_time": 108.27272727272727,
                "pitch": 41,
                "velocity": 51,
                "duration": 0.25,
                "tempo": 120.0
            },
            {
                "start_time": 108.32272727272726,
                "end_time": 108.57954545454545,
                "pitch": 41,
                "velocity": 51,
                "duration": 0.25681818181818983,
                "tempo": 120.0
            },
            {
                "start_time": 108.61363636363636,
                "end_time": 108.87272727272726,
                "pitch": 41,
                "velocity": 51,
                "duration": 0.2590909090909008,
                "tempo": 120.0
            },
            {
                "start_time": 108.92045454545455,
                "end_time": 109.17954545454545,
                "pitch": 41,
                "velocity": 51,
                "duration": 0.2590909090909008,
                "tempo": 120.0
            },
            {
                "start_time": 109.21363636363635,
                "end_time": 109.47272727272727,
                "pitch": 41,
                "velocity": 51,
                "duration": 0.25909090909091503,
                "tempo": 120.0
            },
            {
                "start_time": 109.52272727272727,
                "end_time": 109.78181818181818,
                "pitch": 41,
                "velocity": 51,
                "duration": 0.25909090909091503,
                "tempo": 120.0
            },
            {
                "start_time": 109.81590909090909,
                "end_time": 110.06363636363636,
                "pitch": 41,
                "velocity": 51,
                "duration": 0.2477272727272748,
                "tempo": 120.0
            },
            {
                "start_time": 110.09545454545454,
                "end_time": 110.36136363636363,
                "pitch": 41,
                "velocity": 51,
                "duration": 0.26590909090909065,
                "tempo": 120.0
            },
            {
                "start_time": 110.39318181818182,
                "end_time": 110.65227272727272,
                "pitch": 41,
                "velocity": 51,
                "duration": 0.2590909090909008,
                "tempo": 120.0
            },
            {
                "start_time": 110.6840909090909,
                "end_time": 110.94318181818181,
                "pitch": 41,
                "velocity": 51,
                "duration": 0.25909090909091503,
                "tempo": 120.0
            },
            {
                "start_time": 110.99318181818181,
                "end_time": 111.25227272727273,
                "pitch": 41,
                "velocity": 51,
                "duration": 0.25909090909091503,
                "tempo": 120.0
            },
            {
                "start_time": 111.2840909090909,
                "end_time": 111.54318181818181,
                "pitch": 45,
                "velocity": 51,
                "duration": 0.2590909090909008,
                "tempo": 120.0
            },
            {
                "start_time": 111.59318181818182,
                "end_time": 112.73409090909091,
                "pitch": 45,
                "velocity": 51,
                "duration": 1.1409090909090907,
                "tempo": 120.0
            },
            {
                "start_time": 112.76590909090909,
                "end_time": 113.03181818181818,
                "pitch": 45,
                "velocity": 51,
                "duration": 0.26590909090909065,
                "tempo": 120.0
            },
            {
                "start_time": 113.06363636363636,
                "end_time": 113.32272727272726,
                "pitch": 45,
                "velocity": 51,
                "duration": 0.2590909090909008,
                "tempo": 120.0
            },
            {
                "start_time": 113.35681818181817,
                "end_time": 115.12045454545454,
                "pitch": 44,
                "velocity": 51,
                "duration": 1.7636363636363654,
                "tempo": 120.0
            },
            {
                "start_time": 115.15454545454544,
                "end_time": 115.40454545454544,
                "pitch": 48,
                "velocity": 51,
                "duration": 0.25,
                "tempo": 120.0
            },
            {
                "start_time": 115.45227272727273,
                "end_time": 115.71136363636363,
                "pitch": 48,
                "velocity": 51,
                "duration": 0.2590909090909008,
                "tempo": 120.0
            },
            {
                "start_time": 115.74545454545454,
                "end_time": 116.30227272727272,
                "pitch": 45,
                "velocity": 51,
                "duration": 0.556818181818187,
                "tempo": 120.0
            },
            {
                "start_time": 116.3340909090909,
                "end_time": 116.59318181818182,
                "pitch": 41,
                "velocity": 51,
                "duration": 0.25909090909091503,
                "tempo": 120.0
            },
            {
                "start_time": 116.62727272727273,
                "end_time": 116.8840909090909,
                "pitch": 45,
                "velocity": 51,
                "duration": 0.2568181818181756,
                "tempo": 120.0
            },
            {
                "start_time": 116.9340909090909,
                "end_time": 117.475,
                "pitch": 43,
                "velocity": 51,
                "duration": 0.5409090909090963,
                "tempo": 120.0
            },
            {
                "start_time": 117.52272727272727,
                "end_time": 118.07499999999999,
                "pitch": 47,
                "velocity": 51,
                "duration": 0.5522727272727224,
                "tempo": 120.0
            },
            {
                "start_time": 118.12272727272726,
                "end_time": 118.67272727272727,
                "pitch": 47,
                "velocity": 51,
                "duration": 0.5500000000000114,
                "tempo": 120.0
            },
            {
                "start_time": 118.70454545454545,
                "end_time": 119.26136363636363,
                "pitch": 47,
                "velocity": 51,
                "duration": 0.5568181818181728,
                "tempo": 120.0
            },
            {
                "start_time": 119.29545454545455,
                "end_time": 119.86136363636363,
                "pitch": 47,
                "velocity": 51,
                "duration": 0.5659090909090878,
                "tempo": 120.0
            },
            {
                "start_time": 119.89545454545454,
                "end_time": 120.15454545454544,
                "pitch": 40,
                "velocity": 51,
                "duration": 0.2590909090909008,
                "tempo": 120.0
            },
            {
                "start_time": 120.20454545454545,
                "end_time": 120.46136363636363,
                "pitch": 40,
                "velocity": 51,
                "duration": 0.2568181818181756,
                "tempo": 120.0
            },
            {
                "start_time": 120.49545454545454,
                "end_time": 121.65227272727272,
                "pitch": 45,
                "velocity": 51,
                "duration": 1.1568181818181813,
                "tempo": 120.0
            },
            {
                "start_time": 121.6840909090909,
                "end_time": 121.94318181818181,
                "pitch": 43,
                "velocity": 51,
                "duration": 0.25909090909091503,
                "tempo": 120.0
            },
            {
                "start_time": 121.97727272727272,
                "end_time": 122.24318181818181,
                "pitch": 45,
                "velocity": 51,
                "duration": 0.26590909090909065,
                "tempo": 120.0
            },
            {
                "start_time": 122.27727272727272,
                "end_time": 122.81818181818181,
                "pitch": 45,
                "velocity": 51,
                "duration": 0.5409090909090963,
                "tempo": 120.0
            },
            {
                "start_time": 122.86590909090908,
                "end_time": 123.41818181818181,
                "pitch": 41,
                "velocity": 51,
                "duration": 0.5522727272727224,
                "tempo": 120.0
            },
            {
                "start_time": 123.46590909090908,
                "end_time": 124.01590909090909,
                "pitch": 45,
                "velocity": 51,
                "duration": 0.5500000000000114,
                "tempo": 120.0
            },
            {
                "start_time": 124.06363636363636,
                "end_time": 124.60454545454544,
                "pitch": 43,
                "velocity": 51,
                "duration": 0.5409090909090821,
                "tempo": 120.0
            },
            {
                "start_time": 124.63636363636363,
                "end_time": 125.20454545454545,
                "pitch": 47,
                "velocity": 51,
                "duration": 0.5681818181818272,
                "tempo": 120.0
            },
            {
                "start_time": 125.23636363636363,
                "end_time": 125.51136363636363,
                "pitch": 47,
                "velocity": 51,
                "duration": 0.2749999999999915,
                "tempo": 120.0
            },
            {
                "start_time": 125.54545454545453,
                "end_time": 125.80454545454545,
                "pitch": 47,
                "velocity": 51,
                "duration": 0.25909090909091503,
                "tempo": 120.0
            },
            {
                "start_time": 125.83636363636363,
                "end_time": 126.99318181818181,
                "pitch": 48,
                "velocity": 51,
                "duration": 1.1568181818181813,
                "tempo": 120.0
            },
            {
                "start_time": 127.02727272727272,
                "end_time": 127.28636363636363,
                "pitch": 48,
                "velocity": 51,
                "duration": 0.25909090909091503,
                "tempo": 120.0
            },
            {
                "start_time": 127.33636363636363,
                "end_time": 127.59318181818182,
                "pitch": 40,
                "velocity": 51,
                "duration": 0.25681818181818983,
                "tempo": 120.0
            },
            {
                "start_time": 127.62727272727273,
                "end_time": 129.35681818181817,
                "pitch": 40,
                "velocity": 51,
                "duration": 1.7295454545454447,
                "tempo": 120.0
            },
            {
                "start_time": 129.40681818181818,
                "end_time": 129.66363636363636,
                "pitch": 48,
                "velocity": 51,
                "duration": 0.2568181818181756,
                "tempo": 120.0
            },
            {
                "start_time": 129.69545454545454,
                "end_time": 129.95454545454544,
                "pitch": 48,
                "velocity": 51,
                "duration": 0.2590909090909008,
                "tempo": 120.0
            },
            {
                "start_time": 130.00454545454545,
                "end_time": 130.54545454545453,
                "pitch": 45,
                "velocity": 51,
                "duration": 0.5409090909090821,
                "tempo": 120.0
            },
            {
                "start_time": 130.5772727272727,
                "end_time": 130.85227272727272,
                "pitch": 41,
                "velocity": 51,
                "duration": 0.2750000000000057,
                "tempo": 120.0
            },
            {
                "start_time": 130.88636363636363,
                "end_time": 131.14545454545453,
                "pitch": 45,
                "velocity": 51,
                "duration": 0.2590909090909008,
                "tempo": 120.0
            },
            {
                "start_time": 131.17954545454546,
                "end_time": 131.74090909090907,
                "pitch": 43,
                "velocity": 51,
                "duration": 0.561363636363609,
                "tempo": 120.0
            },
            {
                "start_time": 131.775,
                "end_time": 132.33181818181816,
                "pitch": 47,
                "velocity": 51,
                "duration": 0.5568181818181586,
                "tempo": 120.0
            },
            {
                "start_time": 132.36590909090907,
                "end_time": 132.9318181818182,
                "pitch": 47,
                "velocity": 51,
                "duration": 0.5659090909091162,
                "tempo": 120.0
            },
            {
                "start_time": 132.9659090909091,
                "end_time": 133.53181818181818,
                "pitch": 47,
                "velocity": 51,
                "duration": 0.5659090909090878,
                "tempo": 120.0
            },
            {
                "start_time": 133.5659090909091,
                "end_time": 134.11363636363635,
                "pitch": 47,
                "velocity": 51,
                "duration": 0.5477272727272577,
                "tempo": 120.0
            },
            {
                "start_time": 134.14545454545453,
                "end_time": 134.40227272727273,
                "pitch": 40,
                "velocity": 51,
                "duration": 0.25681818181820404,
                "tempo": 120.0
            },
            {
                "start_time": 134.43636363636364,
                "end_time": 134.69545454545454,
                "pitch": 40,
                "velocity": 51,
                "duration": 0.2590909090909008,
                "tempo": 120.0
            },
            {
                "start_time": 134.74545454545455,
                "end_time": 135.88636363636363,
                "pitch": 45,
                "velocity": 51,
                "duration": 1.1409090909090764,
                "tempo": 120.0
            },
            {
                "start_time": 135.9340909090909,
                "end_time": 136.2,
                "pitch": 43,
                "velocity": 51,
                "duration": 0.26590909090907644,
                "tempo": 120.0
            },
            {
                "start_time": 136.2340909090909,
                "end_time": 136.48636363636362,
                "pitch": 45,
                "velocity": 51,
                "duration": 0.2522727272727252,
                "tempo": 120.0
            },
            {
                "start_time": 136.5340909090909,
                "end_time": 137.0840909090909,
                "pitch": 45,
                "velocity": 51,
                "duration": 0.549999999999983,
                "tempo": 120.0
            },
            {
                "start_time": 137.11590909090907,
                "end_time": 137.67272727272726,
                "pitch": 41,
                "velocity": 51,
                "duration": 0.556818181818187,
                "tempo": 120.0
            },
            {
                "start_time": 137.70681818181816,
                "end_time": 138.27272727272725,
                "pitch": 41,
                "velocity": 51,
                "duration": 0.5659090909090878,
                "tempo": 120.0
            },
            {
                "start_time": 138.3068181818182,
                "end_time": 138.87045454545455,
                "pitch": 44,
                "velocity": 51,
                "duration": 0.5636363636363626,
                "tempo": 120.0
            },
            {
                "start_time": 138.90454545454546,
                "end_time": 139.46818181818182,
                "pitch": 44,
                "velocity": 51,
                "duration": 0.5636363636363626,
                "tempo": 120.0
            },
            {
                "start_time": 139.50227272727273,
                "end_time": 139.75454545454545,
                "pitch": 44,
                "velocity": 51,
                "duration": 0.2522727272727252,
                "tempo": 120.0
            },
            {
                "start_time": 139.78636363636363,
                "end_time": 140.0522727272727,
                "pitch": 40,
                "velocity": 51,
                "duration": 0.26590909090907644,
                "tempo": 120.0
            },
            {
                "start_time": 140.0840909090909,
                "end_time": 142.72727272727272,
                "pitch": 40,
                "velocity": 51,
                "duration": 2.64318181818183,
                "tempo": 120.0
            },
            {
                "start_time": 142.76136363636363,
                "end_time": 143.01136363636363,
                "pitch": 40,
                "velocity": 51,
                "duration": 0.25,
                "tempo": 120.0
            },
            {
                "start_time": 143.0431818181818,
                "end_time": 143.3181818181818,
                "pitch": 37,
                "velocity": 51,
                "duration": 0.2750000000000057,
                "tempo": 120.0
            },
            {
                "start_time": 143.35,
                "end_time": 143.6090909090909,
                "pitch": 33,
                "velocity": 51,
                "duration": 0.2590909090909008,
                "tempo": 120.0
            },
            {
                "start_time": 143.6431818181818,
                "end_time": 143.9,
                "pitch": 36,
                "velocity": 51,
                "duration": 0.25681818181820404,
                "tempo": 120.0
            },
            {
                "start_time": 143.95,
                "end_time": 144.2090909090909,
                "pitch": 36,
                "velocity": 51,
                "duration": 0.2590909090909008,
                "tempo": 120.0
            },
            {
                "start_time": 144.24318181818182,
                "end_time": 144.8068181818182,
                "pitch": 33,
                "velocity": 51,
                "duration": 0.5636363636363626,
                "tempo": 120.0
            },
            {
                "start_time": 144.8409090909091,
                "end_time": 145.0909090909091,
                "pitch": 29,
                "velocity": 51,
                "duration": 0.25,
                "tempo": 120.0
            },
            {
                "start_time": 145.13863636363635,
                "end_time": 145.40454545454546,
                "pitch": 33,
                "velocity": 51,
                "duration": 0.26590909090910486,
                "tempo": 120.0
            },
            {
                "start_time": 145.4409090909091,
                "end_time": 145.98636363636362,
                "pitch": 31,
                "velocity": 51,
                "duration": 0.5454545454545325,
                "tempo": 120.0
            },
            {
                "start_time": 146.0181818181818,
                "end_time": 146.575,
                "pitch": 35,
                "velocity": 51,
                "duration": 0.556818181818187,
                "tempo": 120.0
            },
            {
                "start_time": 146.60681818181817,
                "end_time": 147.16136363636363,
                "pitch": 35,
                "velocity": 51,
                "duration": 0.5545454545454618,
                "tempo": 120.0
            },
            {
                "start_time": 147.2090909090909,
                "end_time": 147.7590909090909,
                "pitch": 35,
                "velocity": 51,
                "duration": 0.5500000000000114,
                "tempo": 120.0
            },
            {
                "start_time": 147.8068181818182,
                "end_time": 148.35681818181817,
                "pitch": 35,
                "velocity": 51,
                "duration": 0.549999999999983,
                "tempo": 120.0
            },
            {
                "start_time": 148.40454545454546,
                "end_time": 148.67045454545453,
                "pitch": 28,
                "velocity": 51,
                "duration": 0.26590909090907644,
                "tempo": 120.0
            },
            {
                "start_time": 148.70454545454544,
                "end_time": 148.95681818181816,
                "pitch": 28,
                "velocity": 51,
                "duration": 0.2522727272727252,
                "tempo": 120.0
            },
            {
                "start_time": 148.98863636363635,
                "end_time": 150.1340909090909,
                "pitch": 33,
                "velocity": 51,
                "duration": 1.1454545454545553,
                "tempo": 120.0
            },
            {
                "start_time": 150.16590909090908,
                "end_time": 150.42499999999998,
                "pitch": 31,
                "velocity": 51,
                "duration": 0.2590909090909008,
                "tempo": 120.0
            },
            {
                "start_time": 150.475,
                "end_time": 150.74090909090907,
                "pitch": 33,
                "velocity": 51,
                "duration": 0.26590909090907644,
                "tempo": 120.0
            },
            {
                "start_time": 150.775,
                "end_time": 153.69545454545454,
                "pitch": 33,
                "velocity": 51,
                "duration": 2.9204545454545325,
                "tempo": 120.0
            },
            {
                "start_time": 153.74545454545455,
                "end_time": 154.00227272727273,
                "pitch": 33,
                "velocity": 51,
                "duration": 0.2568181818181756,
                "tempo": 120.0
            },
            {
                "start_time": 154.03636363636363,
                "end_time": 154.29545454545453,
                "pitch": 33,
                "velocity": 51,
                "duration": 0.2590909090909008,
                "tempo": 120.0
            },
            {
                "start_time": 154.34545454545454,
                "end_time": 157.275,
                "pitch": 35,
                "velocity": 51,
                "duration": 2.929545454545462,
                "tempo": 120.0
            },
            {
                "start_time": 157.3090909090909,
                "end_time": 157.5590909090909,
                "pitch": 31,
                "velocity": 51,
                "duration": 0.25,
                "tempo": 120.0
            },
            {
                "start_time": 157.5909090909091,
                "end_time": 157.86590909090907,
                "pitch": 33,
                "velocity": 51,
                "duration": 0.27499999999997726,
                "tempo": 120.0
            },
            {
                "start_time": 157.9,
                "end_time": 160.82954545454544,
                "pitch": 33,
                "velocity": 51,
                "duration": 2.9295454545454334,
                "tempo": 120.0
            },
            {
                "start_time": 160.86136363636362,
                "end_time": 161.12727272727273,
                "pitch": 31,
                "velocity": 51,
                "duration": 0.26590909090910486,
                "tempo": 120.0
            },
            {
                "start_time": 161.1590909090909,
                "end_time": 161.42499999999998,
                "pitch": 33,
                "velocity": 51,
                "duration": 0.26590909090907644,
                "tempo": 120.0
            },
            {
                "start_time": 161.46136363636361,
                "end_time": 164.4,
                "pitch": 35,
                "velocity": 51,
                "duration": 2.938636363636391,
                "tempo": 120.0
            },
            {
                "start_time": 164.4340909090909,
                "end_time": 164.6909090909091,
                "pitch": 28,
                "velocity": 51,
                "duration": 0.2568181818181756,
                "tempo": 120.0
            },
            {
                "start_time": 164.725,
                "end_time": 164.9840909090909,
                "pitch": 28,
                "velocity": 51,
                "duration": 0.2590909090909008,
                "tempo": 120.0
            },
            {
                "start_time": 165.0340909090909,
                "end_time": 166.17499999999998,
                "pitch": 28,
                "velocity": 51,
                "duration": 1.1409090909090764,
                "tempo": 120.0
            },
            {
                "start_time": 166.22272727272727,
                "end_time": 166.49090909090907,
                "pitch": 28,
                "velocity": 51,
                "duration": 0.26818181818180165,
                "tempo": 120.0
            },
            {
                "start_time": 166.525,
                "end_time": 166.775,
                "pitch": 28,
                "velocity": 51,
                "duration": 0.25,
                "tempo": 120.0
            },
            {
                "start_time": 166.8068181818182,
                "end_time": 167.99772727272727,
                "pitch": 28,
                "velocity": 51,
                "duration": 1.1909090909090878,
                "tempo": 120.0
            },
            {
                "start_time": 168.04772727272726,
                "end_time": 168.3068181818182,
                "pitch": 28,
                "velocity": 51,
                "duration": 0.25909090909092924,
                "tempo": 120.0
            },
            {
                "start_time": 168.3409090909091,
                "end_time": 168.61590909090907,
                "pitch": 28,
                "velocity": 51,
                "duration": 0.27499999999997726,
                "tempo": 120.0
            },
            {
                "start_time": 168.64772727272725,
                "end_time": 169.93863636363636,
                "pitch": 28,
                "velocity": 51,
                "duration": 1.2909090909091105,
                "tempo": 120.0
            },
            {
                "start_time": 169.975,
                "end_time": 170.25681818181818,
                "pitch": 28,
                "velocity": 51,
                "duration": 0.2818181818181813,
                "tempo": 120.0
            },
            {
                "start_time": 170.3090909090909,
                "end_time": 170.60227272727272,
                "pitch": 28,
                "velocity": 51,
                "duration": 0.29318181818180733,
                "tempo": 120.0
            },
            {
                "start_time": 170.63863636363635,
                "end_time": 172.02045454545453,
                "pitch": 28,
                "velocity": 51,
                "duration": 1.3818181818181756,
                "tempo": 120.0
            },
            {
                "start_time": 172.0568181818182,
                "end_time": 172.3681818181818,
                "pitch": 28,
                "velocity": 51,
                "duration": 0.311363636363609,
                "tempo": 120.0
            },
            {
                "start_time": 172.42045454545453,
                "end_time": 172.72954545454544,
                "pitch": 28,
                "velocity": 51,
                "duration": 0.3090909090909122,
                "tempo": 120.0
            },
            {
                "start_time": 172.78636363636363,
                "end_time": 175.79999999999998,
                "pitch": 28,
                "velocity": 51,
                "duration": 3.0136363636363512,
                "tempo": 120.0
            }
        ],
        "Acoustic Grand Piano": [
            {
                "start_time": 0.013636363636363636,
                "end_time": 0.2590909090909091,
                "pitch": 52,
                "velocity": 64,
                "duration": 0.24545454545454545,
                "tempo": 120.0
            },
            {
                "start_time": 0.3068181818181818,
                "end_time": 0.5659090909090909,
                "pitch": 57,
                "velocity": 64,
                "duration": 0.2590909090909091,
                "tempo": 120.0
            },
            {
                "start_time": 0.6,
                "end_time": 1.0909090909090908,
                "pitch": 60,
                "velocity": 64,
                "duration": 0.49090909090909085,
                "tempo": 120.0
            },
            {
                "start_time": 1.184090909090909,
                "end_time": 1.684090909090909,
                "pitch": 52,
                "velocity": 64,
                "duration": 0.5,
                "tempo": 120.0
            },
            {
                "start_time": 1.7477272727272726,
                "end_time": 2.268181818181818,
                "pitch": 57,
                "velocity": 64,
                "duration": 0.5204545454545455,
                "tempo": 120.0
            },
            {
                "start_time": 2.3659090909090907,
                "end_time": 2.8886363636363637,
                "pitch": 60,
                "velocity": 64,
                "duration": 0.5227272727272729,
                "tempo": 120.0
            },
            {
                "start_time": 2.9545454545454546,
                "end_time": 3.4636363636363634,
                "pitch": 52,
                "velocity": 64,
                "duration": 0.5090909090909088,
                "tempo": 120.0
            },
            {
                "start_time": 3.527272727272727,
                "end_time": 4.070454545454545,
                "pitch": 57,
                "velocity": 64,
                "duration": 0.5431818181818184,
                "tempo": 120.0
            },
            {
                "start_time": 4.134090909090909,
                "end_time": 4.656818181818181,
                "pitch": 60,
                "velocity": 64,
                "duration": 0.5227272727272725,
                "tempo": 120.0
            },
            {
                "start_time": 4.722727272727273,
                "end_time": 5.2749999999999995,
                "pitch": 52,
                "velocity": 64,
                "duration": 0.5522727272727268,
                "tempo": 120.0
            },
            {
                "start_time": 5.340909090909091,
                "end_time": 5.852272727272727,
                "pitch": 57,
                "velocity": 64,
                "duration": 0.5113636363636358,
                "tempo": 120.0
            },
            {
                "start_time": 5.915909090909091,
                "end_time": 6.427272727272727,
                "pitch": 60,
                "velocity": 64,
                "duration": 0.5113636363636358,
                "tempo": 120.0
            },
            {
                "start_time": 6.5227272727272725,
                "end_time": 7.047727272727272,
                "pitch": 52,
                "velocity": 64,
                "duration": 0.5249999999999995,
                "tempo": 120.0
            },
            {
                "start_time": 7.113636363636363,
                "end_time": 7.640909090909091,
                "pitch": 57,
                "velocity": 64,
                "duration": 0.5272727272727273,
                "tempo": 120.0
            },
            {
                "start_time": 7.74090909090909,
                "end_time": 8.252272727272727,
                "pitch": 60,
                "velocity": 64,
                "duration": 0.5113636363636367,
                "tempo": 120.0
            },
            {
                "start_time": 8.315909090909091,
                "end_time": 8.827272727272726,
                "pitch": 52,
                "velocity": 64,
                "duration": 0.5113636363636349,
                "tempo": 120.0
            },
            {
                "start_time": 8.922727272727272,
                "end_time": 9.443181818181818,
                "pitch": 57,
                "velocity": 64,
                "duration": 0.5204545454545464,
                "tempo": 120.0
            },
            {
                "start_time": 9.509090909090908,
                "end_time": 10.029545454545454,
                "pitch": 60,
                "velocity": 64,
                "duration": 0.5204545454545464,
                "tempo": 120.0
            },
            {
                "start_time": 10.095454545454546,
                "end_time": 10.627272727272727,
                "pitch": 52,
                "velocity": 64,
                "duration": 0.5318181818181813,
                "tempo": 120.0
            },
            {
                "start_time": 10.69090909090909,
                "end_time": 11.19090909090909,
                "pitch": 57,
                "velocity": 64,
                "duration": 0.5,
                "tempo": 120.0
            },
            {
                "start_time": 11.254545454545454,
                "end_time": 11.774999999999999,
                "pitch": 60,
                "velocity": 64,
                "duration": 0.5204545454545446,
                "tempo": 120.0
            },
            {
                "start_time": 11.872727272727273,
                "end_time": 12.393181818181818,
                "pitch": 52,
                "velocity": 64,
                "duration": 0.5204545454545446,
                "tempo": 120.0
            },
            {
                "start_time": 12.459090909090909,
                "end_time": 12.979545454545454,
                "pitch": 57,
                "velocity": 64,
                "duration": 0.5204545454545446,
                "tempo": 120.0
            },
            {
                "start_time": 13.079545454545453,
                "end_time": 13.6,
                "pitch": 60,
                "velocity": 64,
                "duration": 0.5204545454545464,
                "tempo": 120.0
            },
            {
                "start_time": 13.665909090909091,
                "end_time": 14.186363636363636,
                "pitch": 53,
                "velocity": 64,
                "duration": 0.5204545454545446,
                "tempo": 120.0
            },
            {
                "start_time": 14.284090909090908,
                "end_time": 14.806818181818182,
                "pitch": 57,
                "velocity": 64,
                "duration": 0.5227272727272734,
                "tempo": 120.0
            },
            {
                "start_time": 14.872727272727271,
                "end_time": 15.381818181818181,
                "pitch": 60,
                "velocity": 64,
                "duration": 0.5090909090909097,
                "tempo": 120.0
            },
            {
                "start_time": 15.479545454545454,
                "end_time": 15.988636363636363,
                "pitch": 53,
                "velocity": 64,
                "duration": 0.5090909090909097,
                "tempo": 120.0
            },
            {
                "start_time": 16.054545454545455,
                "end_time": 16.575,
                "pitch": 57,
                "velocity": 64,
                "duration": 0.5204545454545446,
                "tempo": 120.0
            },
            {
                "start_time": 16.64090909090909,
                "end_time": 17.193181818181817,
                "pitch": 60,
                "velocity": 64,
                "duration": 0.5522727272727259,
                "tempo": 120.0
            },
            {
                "start_time": 17.259090909090908,
                "end_time": 17.779545454545453,
                "pitch": 53,
                "velocity": 64,
                "duration": 0.5204545454545446,
                "tempo": 120.0
            },
            {
                "start_time": 17.845454545454544,
                "end_time": 18.368181818181817,
                "pitch": 58,
                "velocity": 64,
                "duration": 0.5227272727272734,
                "tempo": 120.0
            },
            {
                "start_time": 18.46590909090909,
                "end_time": 18.977272727272727,
                "pitch": 62,
                "velocity": 64,
                "duration": 0.5113636363636367,
                "tempo": 120.0
            },
            {
                "start_time": 19.04090909090909,
                "end_time": 19.55,
                "pitch": 53,
                "velocity": 64,
                "duration": 0.5090909090909115,
                "tempo": 120.0
            },
            {
                "start_time": 19.647727272727273,
                "end_time": 20.168181818181818,
                "pitch": 58,
                "velocity": 64,
                "duration": 0.5204545454545446,
                "tempo": 120.0
            },
            {
                "start_time": 20.23409090909091,
                "end_time": 20.754545454545454,
                "pitch": 62,
                "velocity": 64,
                "duration": 0.5204545454545446,
                "tempo": 120.0
            },
            {
                "start_time": 20.852272727272727,
                "end_time": 21.375,
                "pitch": 52,
                "velocity": 64,
                "duration": 0.5227272727272734,
                "tempo": 120.0
            },
            {
                "start_time": 21.44090909090909,
                "end_time": 21.961363636363636,
                "pitch": 56,
                "velocity": 64,
                "duration": 0.5204545454545446,
                "tempo": 120.0
            },
            {
                "start_time": 22.027272727272727,
                "end_time": 22.55909090909091,
                "pitch": 62,
                "velocity": 64,
                "duration": 0.5318181818181813,
                "tempo": 120.0
            },
            {
                "start_time": 22.62272727272727,
                "end_time": 23.12272727272727,
                "pitch": 52,
                "velocity": 64,
                "duration": 0.5,
                "tempo": 120.0
            },
            {
                "start_time": 23.186363636363634,
                "end_time": 23.738636363636363,
                "pitch": 56,
                "velocity": 64,
                "duration": 0.5522727272727295,
                "tempo": 120.0
            },
            {
                "start_time": 23.804545454545455,
                "end_time": 24.325,
                "pitch": 60,
                "velocity": 64,
                "duration": 0.5204545454545446,
                "tempo": 120.0
            },
            {
                "start_time": 24.39090909090909,
                "end_time": 24.911363636363635,
                "pitch": 52,
                "velocity": 64,
                "duration": 0.5204545454545446,
                "tempo": 120.0
            },
            {
                "start_time": 25.009090909090908,
                "end_time": 25.53181818181818,
                "pitch": 56,
                "velocity": 64,
                "duration": 0.5227272727272734,
                "tempo": 120.0
            },
            {
                "start_time": 25.597727272727273,
                "end_time": 26.10681818181818,
                "pitch": 59,
                "velocity": 64,
                "duration": 0.5090909090909079,
                "tempo": 120.0
            },
            {
                "start_time": 26.204545454545453,
                "end_time": 26.71363636363636,
                "pitch": 50,
                "velocity": 64,
                "duration": 0.5090909090909079,
                "tempo": 120.0
            },
            {
                "start_time": 26.779545454545453,
                "end_time": 27.299999999999997,
                "pitch": 56,
                "velocity": 64,
                "duration": 0.5204545454545446,
                "tempo": 120.0
            },
            {
                "start_time": 27.39772727272727,
                "end_time": 27.918181818181818,
                "pitch": 59,
                "velocity": 64,
                "duration": 0.5204545454545482,
                "tempo": 120.0
            },
            {
                "start_time": 27.986363636363635,
                "end_time": 28.504545454545454,
                "pitch": 48,
                "velocity": 64,
                "duration": 0.5181818181818194,
                "tempo": 120.0
            },
            {
                "start_time": 28.570454545454545,
                "end_time": 29.125,
                "pitch": 52,
                "velocity": 64,
                "duration": 0.5545454545454547,
                "tempo": 120.0
            },
            {
                "start_time": 29.190909090909088,
                "end_time": 29.702272727272724,
                "pitch": 57,
                "velocity": 64,
                "duration": 0.5113636363636367,
                "tempo": 120.0
            },
            {
                "start_time": 29.76590909090909,
                "end_time": 30.275,
                "pitch": 52,
                "velocity": 64,
                "duration": 0.5090909090909079,
                "tempo": 120.0
            },
            {
                "start_time": 30.37272727272727,
                "end_time": 30.893181818181816,
                "pitch": 57,
                "velocity": 64,
                "duration": 0.5204545454545446,
                "tempo": 120.0
            },
            {
                "start_time": 30.959090909090907,
                "end_time": 31.479545454545452,
                "pitch": 60,
                "velocity": 64,
                "duration": 0.5204545454545446,
                "tempo": 120.0
            },
            {
                "start_time": 31.579545454545453,
                "end_time": 32.1,
                "pitch": 52,
                "velocity": 64,
                "duration": 0.5204545454545482,
                "tempo": 120.0
            },
            {
                "start_time": 32.16590909090909,
                "end_time": 32.68636363636364,
                "pitch": 57,
                "velocity": 64,
                "duration": 0.5204545454545482,
                "tempo": 120.0
            },
            {
                "start_time": 32.78409090909091,
                "end_time": 33.29545454545455,
                "pitch": 60,
                "velocity": 64,
                "duration": 0.5113636363636402,
                "tempo": 120.0
            },
            {
                "start_time": 33.35909090909091,
                "end_time": 33.87045454545454,
                "pitch": 52,
                "velocity": 64,
                "duration": 0.5113636363636331,
                "tempo": 120.0
            },
            {
                "start_time": 33.934090909090905,
                "end_time": 34.47727272727273,
                "pitch": 57,
                "velocity": 64,
                "duration": 0.5431818181818215,
                "tempo": 120.0
            },
            {
                "start_time": 34.54090909090909,
                "end_time": 35.05227272727272,
                "pitch": 60,
                "velocity": 64,
                "duration": 0.5113636363636331,
                "tempo": 120.0
            },
            {
                "start_time": 35.11590909090909,
                "end_time": 35.65681818181818,
                "pitch": 52,
                "velocity": 64,
                "duration": 0.5409090909090892,
                "tempo": 120.0
            },
            {
                "start_time": 35.72272727272727,
                "end_time": 36.23409090909091,
                "pitch": 59,
                "velocity": 64,
                "duration": 0.5113636363636402,
                "tempo": 120.0
            },
            {
                "start_time": 36.29772727272727,
                "end_time": 36.81818181818181,
                "pitch": 62,
                "velocity": 64,
                "duration": 0.5204545454545411,
                "tempo": 120.0
            },
            {
                "start_time": 36.91590909090909,
                "end_time": 37.43863636363636,
                "pitch": 52,
                "velocity": 64,
                "duration": 0.5227272727272734,
                "tempo": 120.0
            },
            {
                "start_time": 37.502272727272725,
                "end_time": 38.025,
                "pitch": 59,
                "velocity": 64,
                "duration": 0.5227272727272734,
                "tempo": 120.0
            },
            {
                "start_time": 38.12272727272727,
                "end_time": 38.643181818181816,
                "pitch": 62,
                "velocity": 64,
                "duration": 0.5204545454545482,
                "tempo": 120.0
            },
            {
                "start_time": 38.709090909090904,
                "end_time": 39.22954545454545,
                "pitch": 52,
                "velocity": 64,
                "duration": 0.5204545454545482,
                "tempo": 120.0
            },
            {
                "start_time": 39.32954545454545,
                "end_time": 39.85,
                "pitch": 59,
                "velocity": 64,
                "duration": 0.5204545454545482,
                "tempo": 120.0
            },
            {
                "start_time": 39.91590909090909,
                "end_time": 40.42727272727272,
                "pitch": 62,
                "velocity": 64,
                "duration": 0.5113636363636331,
                "tempo": 120.0
            },
            {
                "start_time": 40.49090909090909,
                "end_time": 41.03181818181818,
                "pitch": 52,
                "velocity": 64,
                "duration": 0.5409090909090892,
                "tempo": 120.0
            },
            {
                "start_time": 41.09772727272727,
                "end_time": 41.61818181818182,
                "pitch": 59,
                "velocity": 64,
                "duration": 0.5204545454545482,
                "tempo": 120.0
            },
            {
                "start_time": 41.684090909090905,
                "end_time": 42.20454545454545,
                "pitch": 62,
                "velocity": 64,
                "duration": 0.5204545454545482,
                "tempo": 120.0
            },
            {
                "start_time": 42.304545454545455,
                "end_time": 42.824999999999996,
                "pitch": 52,
                "velocity": 64,
                "duration": 0.5204545454545411,
                "tempo": 120.0
            },
            {
                "start_time": 42.88863636363636,
                "end_time": 43.41136363636363,
                "pitch": 57,
                "velocity": 64,
                "duration": 0.5227272727272734,
                "tempo": 120.0
            },
            {
                "start_time": 43.50909090909091,
                "end_time": 44.02045454545454,
                "pitch": 60,
                "velocity": 64,
                "duration": 0.5113636363636331,
                "tempo": 120.0
            },
            {
                "start_time": 44.084090909090904,
                "end_time": 44.595454545454544,
                "pitch": 52,
                "velocity": 64,
                "duration": 0.5113636363636402,
                "tempo": 120.0
            },
            {
                "start_time": 44.69090909090909,
                "end_time": 45.211363636363636,
                "pitch": 57,
                "velocity": 64,
                "duration": 0.5204545454545482,
                "tempo": 120.0
            },
            {
                "start_time": 45.277272727272724,
                "end_time": 45.8,
                "pitch": 60,
                "velocity": 64,
                "duration": 0.5227272727272734,
                "tempo": 120.0
            },
            {
                "start_time": 45.86590909090909,
                "end_time": 46.4,
                "pitch": 53,
                "velocity": 64,
                "duration": 0.5340909090909065,
                "tempo": 120.0
            },
            {
                "start_time": 46.46363636363636,
                "end_time": 46.970454545454544,
                "pitch": 57,
                "velocity": 64,
                "duration": 0.5068181818181827,
                "tempo": 120.0
            },
            {
                "start_time": 47.03409090909091,
                "end_time": 47.586363636363636,
                "pitch": 62,
                "velocity": 64,
                "duration": 0.5522727272727295,
                "tempo": 120.0
            },
            {
                "start_time": 47.65454545454545,
                "end_time": 48.175,
                "pitch": 53,
                "velocity": 64,
                "duration": 0.5204545454545482,
                "tempo": 120.0
            },
            {
                "start_time": 48.23863636363636,
                "end_time": 48.76136363636363,
                "pitch": 57,
                "velocity": 64,
                "duration": 0.5227272727272734,
                "tempo": 120.0
            },
            {
                "start_time": 48.85909090909091,
                "end_time": 49.37954545454545,
                "pitch": 62,
                "velocity": 64,
                "duration": 0.5204545454545411,
                "tempo": 120.0
            },
            {
                "start_time": 49.44772727272727,
                "end_time": 49.965909090909086,
                "pitch": 57,
                "velocity": 64,
                "duration": 0.5181818181818159,
                "tempo": 120.0
            },
            {
                "start_time": 50.06590909090909,
                "end_time": 50.586363636363636,
                "pitch": 59,
                "velocity": 64,
                "duration": 0.5204545454545482,
                "tempo": 120.0
            },
            {
                "start_time": 50.652272727272724,
                "end_time": 51.163636363636364,
                "pitch": 62,
                "velocity": 64,
                "duration": 0.5113636363636402,
                "tempo": 120.0
            },
            {
                "start_time": 51.25909090909091,
                "end_time": 51.77045454545454,
                "pitch": 57,
                "velocity": 64,
                "duration": 0.5113636363636331,
                "tempo": 120.0
            },
            {
                "start_time": 51.834090909090904,
                "end_time": 52.35454545454545,
                "pitch": 59,
                "velocity": 64,
                "duration": 0.5204545454545482,
                "tempo": 120.0
            },
            {
                "start_time": 52.42045454545454,
                "end_time": 52.974999999999994,
                "pitch": 62,
                "velocity": 64,
                "duration": 0.5545454545454547,
                "tempo": 120.0
            },
            {
                "start_time": 53.04090909090909,
                "end_time": 54.756818181818176,
                "pitch": 64,
                "velocity": 64,
                "duration": 1.7159090909090864,
                "tempo": 120.0
            },
            {
                "start_time": 54.820454545454545,
                "end_time": 55.33181818181818,
                "pitch": 52,
                "velocity": 64,
                "duration": 0.5113636363636331,
                "tempo": 120.0
            },
            {
                "start_time": 55.42727272727272,
                "end_time": 55.94772727272727,
                "pitch": 59,
                "velocity": 64,
                "duration": 0.5204545454545482,
                "tempo": 120.0
            },
            {
                "start_time": 56.01590909090909,
                "end_time": 56.53636363636363,
                "pitch": 62,
                "velocity": 64,
                "duration": 0.5204545454545411,
                "tempo": 120.0
            },
            {
                "start_time": 56.63409090909091,
                "end_time": 57.15454545454545,
                "pitch": 52,
                "velocity": 64,
                "duration": 0.5204545454545411,
                "tempo": 120.0
            },
            {
                "start_time": 57.220454545454544,
                "end_time": 57.740909090909085,
                "pitch": 57,
                "velocity": 64,
                "duration": 0.5204545454545411,
                "tempo": 120.0
            },
            {
                "start_time": 57.80681818181818,
                "end_time": 58.345454545454544,
                "pitch": 60,
                "velocity": 64,
                "duration": 0.538636363636364,
                "tempo": 120.0
            },
            {
                "start_time": 58.40681818181818,
                "end_time": 58.913636363636364,
                "pitch": 52,
                "velocity": 64,
                "duration": 0.5068181818181827,
                "tempo": 120.0
            },
            {
                "start_time": 58.97727272727273,
                "end_time": 59.50909090909091,
                "pitch": 57,
                "velocity": 64,
                "duration": 0.5318181818181813,
                "tempo": 120.0
            },
            {
                "start_time": 59.570454545454545,
                "end_time": 59.89545454545454,
                "pitch": 60,
                "velocity": 64,
                "duration": 0.32499999999999574,
                "tempo": 120.0
            },
            {
                "start_time": 59.934090909090905,
                "end_time": 60.19090909090909,
                "pitch": 52,
                "velocity": 64,
                "duration": 0.2568181818181827,
                "tempo": 120.0
            },
            {
                "start_time": 60.236363636363635,
                "end_time": 60.48863636363636,
                "pitch": 57,
                "velocity": 64,
                "duration": 0.2522727272727252,
                "tempo": 120.0
            },
            {
                "start_time": 60.52045454545454,
                "end_time": 60.772727272727266,
                "pitch": 60,
                "velocity": 64,
                "duration": 0.2522727272727252,
                "tempo": 120.0
            },
            {
                "start_time": 60.820454545454545,
                "end_time": 61.07727272727272,
                "pitch": 57,
                "velocity": 64,
                "duration": 0.2568181818181756,
                "tempo": 120.0
            },
            {
                "start_time": 61.111363636363635,
                "end_time": 61.361363636363635,
                "pitch": 59,
                "velocity": 64,
                "duration": 0.25,
                "tempo": 120.0
            },
            {
                "start_time": 61.40909090909091,
                "end_time": 61.668181818181814,
                "pitch": 62,
                "velocity": 64,
                "duration": 0.25909090909090793,
                "tempo": 120.0
            },
            {
                "start_time": 61.699999999999996,
                "end_time": 61.949999999999996,
                "pitch": 52,
                "velocity": 64,
                "duration": 0.25,
                "tempo": 120.0
            },
            {
                "start_time": 61.98181818181818,
                "end_time": 62.256818181818176,
                "pitch": 59,
                "velocity": 64,
                "duration": 0.2749999999999986,
                "tempo": 120.0
            },
            {
                "start_time": 62.29090909090909,
                "end_time": 62.54772727272727,
                "pitch": 62,
                "velocity": 64,
                "duration": 0.2568181818181827,
                "tempo": 120.0
            },
            {
                "start_time": 62.58181818181818,
                "end_time": 62.840909090909086,
                "pitch": 52,
                "velocity": 64,
                "duration": 0.25909090909090793,
                "tempo": 120.0
            },
            {
                "start_time": 62.88863636363636,
                "end_time": 63.15,
                "pitch": 59,
                "velocity": 64,
                "duration": 0.26136363636364024,
                "tempo": 120.0
            },
            {
                "start_time": 63.18181818181818,
                "end_time": 63.44090909090909,
                "pitch": 62,
                "velocity": 64,
                "duration": 0.25909090909090793,
                "tempo": 120.0
            },
            {
                "start_time": 63.48863636363636,
                "end_time": 63.74772727272727,
                "pitch": 52,
                "velocity": 64,
                "duration": 0.25909090909090793,
                "tempo": 120.0
            },
            {
                "start_time": 63.78181818181818,
                "end_time": 64.04090909090908,
                "pitch": 59,
                "velocity": 64,
                "duration": 0.2590909090909008,
                "tempo": 120.0
            },
            {
                "start_time": 64.08863636363635,
                "end_time": 64.3409090909091,
                "pitch": 62,
                "velocity": 64,
                "duration": 0.2522727272727394,
                "tempo": 120.0
            },
            {
                "start_time": 64.37045454545454,
                "end_time": 64.62954545454545,
                "pitch": 52,
                "velocity": 64,
                "duration": 0.25909090909091503,
                "tempo": 120.0
            },
            {
                "start_time": 64.66363636363636,
                "end_time": 64.92954545454545,
                "pitch": 59,
                "velocity": 64,
                "duration": 0.26590909090909065,
                "tempo": 120.0
            },
            {
                "start_time": 64.96136363636363,
                "end_time": 65.22045454545454,
                "pitch": 62,
                "velocity": 64,
                "duration": 0.25909090909091503,
                "tempo": 120.0
            },
            {
                "start_time": 65.25227272727273,
                "end_time": 65.51818181818182,
                "pitch": 53,
                "velocity": 64,
                "duration": 0.26590909090909065,
                "tempo": 120.0
            },
            {
                "start_time": 65.55,
                "end_time": 65.81590909090909,
                "pitch": 57,
                "velocity": 64,
                "duration": 0.26590909090909065,
                "tempo": 120.0
            },
            {
                "start_time": 65.85,
                "end_time": 66.10909090909091,
                "pitch": 60,
                "velocity": 64,
                "duration": 0.25909090909091503,
                "tempo": 120.0
            },
            {
                "start_time": 66.1590909090909,
                "end_time": 66.41818181818182,
                "pitch": 53,
                "velocity": 64,
                "duration": 0.25909090909091503,
                "tempo": 120.0
            },
            {
                "start_time": 66.45,
                "end_time": 66.70227272727273,
                "pitch": 57,
                "velocity": 64,
                "duration": 0.2522727272727252,
                "tempo": 120.0
            },
            {
                "start_time": 66.74772727272727,
                "end_time": 67.01590909090909,
                "pitch": 60,
                "velocity": 64,
                "duration": 0.26818181818181586,
                "tempo": 120.0
            },
            {
                "start_time": 67.05,
                "end_time": 67.3,
                "pitch": 53,
                "velocity": 64,
                "duration": 0.25,
                "tempo": 120.0
            },
            {
                "start_time": 67.34772727272727,
                "end_time": 67.60681818181818,
                "pitch": 57,
                "velocity": 64,
                "duration": 0.25909090909091503,
                "tempo": 120.0
            },
            {
                "start_time": 67.63863636363637,
                "end_time": 67.88863636363637,
                "pitch": 60,
                "velocity": 64,
                "duration": 0.25,
                "tempo": 120.0
            },
            {
                "start_time": 67.92045454545455,
                "end_time": 68.18636363636364,
                "pitch": 53,
                "velocity": 64,
                "duration": 0.26590909090909065,
                "tempo": 120.0
            },
            {
                "start_time": 68.22045454545454,
                "end_time": 68.48636363636363,
                "pitch": 57,
                "velocity": 64,
                "duration": 0.26590909090909065,
                "tempo": 120.0
            },
            {
                "start_time": 68.52045454545454,
                "end_time": 68.77045454545454,
                "pitch": 60,
                "velocity": 64,
                "duration": 0.25,
                "tempo": 120.0
            },
            {
                "start_time": 68.81818181818181,
                "end_time": 69.0840909090909,
                "pitch": 52,
                "velocity": 64,
                "duration": 0.26590909090909065,
                "tempo": 120.0
            },
            {
                "start_time": 69.11818181818181,
                "end_time": 69.37045454545454,
                "pitch": 55,
                "velocity": 64,
                "duration": 0.2522727272727252,
                "tempo": 120.0
            },
            {
                "start_time": 69.41818181818182,
                "end_time": 69.67727272727272,
                "pitch": 60,
                "velocity": 64,
                "duration": 0.2590909090909008,
                "tempo": 120.0
            },
            {
                "start_time": 69.7090909090909,
                "end_time": 69.96818181818182,
                "pitch": 52,
                "velocity": 64,
                "duration": 0.25909090909091503,
                "tempo": 120.0
            },
            {
                "start_time": 70.01818181818182,
                "end_time": 70.27727272727273,
                "pitch": 55,
                "velocity": 64,
                "duration": 0.25909090909091503,
                "tempo": 120.0
            },
            {
                "start_time": 70.30909090909091,
                "end_time": 70.56818181818181,
                "pitch": 60,
                "velocity": 64,
                "duration": 0.2590909090909008,
                "tempo": 120.0
            },
            {
                "start_time": 70.61818181818181,
                "end_time": 70.87727272727273,
                "pitch": 61,
                "velocity": 64,
                "duration": 0.25909090909091503,
                "tempo": 120.0
            },
            {
                "start_time": 70.9090909090909,
                "end_time": 71.1590909090909,
                "pitch": 52,
                "velocity": 64,
                "duration": 0.25,
                "tempo": 120.0
            },
            {
                "start_time": 71.19090909090909,
                "end_time": 71.4659090909091,
                "pitch": 58,
                "velocity": 64,
                "duration": 0.2750000000000057,
                "tempo": 120.0
            },
            {
                "start_time": 71.5,
                "end_time": 71.7590909090909,
                "pitch": 57,
                "velocity": 64,
                "duration": 0.2590909090909008,
                "tempo": 120.0
            },
            {
                "start_time": 71.79090909090908,
                "end_time": 72.05,
                "pitch": 52,
                "velocity": 64,
                "duration": 0.25909090909091503,
                "tempo": 120.0
            },
            {
                "start_time": 72.1,
                "end_time": 72.35909090909091,
                "pitch": 55,
                "velocity": 64,
                "duration": 0.25909090909091503,
                "tempo": 120.0
            },
            {
                "start_time": 72.39090909090909,
                "end_time": 72.64318181818182,
                "pitch": 53,
                "velocity": 64,
                "duration": 0.2522727272727252,
                "tempo": 120.0
            },
            {
                "start_time": 72.68863636363636,
                "end_time": 72.95,
                "pitch": 57,
                "velocity": 64,
                "duration": 0.26136363636364024,
                "tempo": 120.0
            },
            {
                "start_time": 72.98181818181818,
                "end_time": 73.24090909090908,
                "pitch": 62,
                "velocity": 64,
                "duration": 0.2590909090909008,
                "tempo": 120.0
            },
            {
                "start_time": 73.29090909090908,
                "end_time": 73.55,
                "pitch": 53,
                "velocity": 64,
                "duration": 0.25909090909091503,
                "tempo": 120.0
            },
            {
                "start_time": 73.58181818181818,
                "end_time": 73.8409090909091,
                "pitch": 57,
                "velocity": 64,
                "duration": 0.25909090909091503,
                "tempo": 120.0
            },
            {
                "start_time": 73.87272727272727,
                "end_time": 74.14772727272727,
                "pitch": 62,
                "velocity": 64,
                "duration": 0.2749999999999915,
                "tempo": 120.0
            },
            {
                "start_time": 74.18181818181817,
                "end_time": 74.43181818181817,
                "pitch": 53,
                "velocity": 64,
                "duration": 0.25,
                "tempo": 120.0
            },
            {
                "start_time": 74.46363636363635,
                "end_time": 74.73863636363636,
                "pitch": 57,
                "velocity": 64,
                "duration": 0.2750000000000057,
                "tempo": 120.0
            },
            {
                "start_time": 74.77045454545454,
                "end_time": 75.02045454545454,
                "pitch": 62,
                "velocity": 64,
                "duration": 0.25,
                "tempo": 120.0
            },
            {
                "start_time": 75.05227272727272,
                "end_time": 75.31136363636364,
                "pitch": 53,
                "velocity": 64,
                "duration": 0.25909090909091503,
                "tempo": 120.0
            },
            {
                "start_time": 75.36136363636363,
                "end_time": 75.62045454545454,
                "pitch": 57,
                "velocity": 64,
                "duration": 0.2590909090909008,
                "tempo": 120.0
            },
            {
                "start_time": 75.65227272727272,
                "end_time": 75.91136363636363,
                "pitch": 62,
                "velocity": 64,
                "duration": 0.25909090909091503,
                "tempo": 120.0
            },
            {
                "start_time": 75.96136363636363,
                "end_time": 76.21818181818182,
                "pitch": 52,
                "velocity": 64,
                "duration": 0.25681818181818983,
                "tempo": 120.0
            },
            {
                "start_time": 76.25227272727273,
                "end_time": 76.50454545454545,
                "pitch": 57,
                "velocity": 64,
                "duration": 0.2522727272727252,
                "tempo": 120.0
            },
            {
                "start_time": 76.55,
                "end_time": 76.81818181818181,
                "pitch": 60,
                "velocity": 64,
                "duration": 0.26818181818181586,
                "tempo": 120.0
            },
            {
                "start_time": 76.85227272727272,
                "end_time": 77.10454545454544,
                "pitch": 52,
                "velocity": 64,
                "duration": 0.2522727272727252,
                "tempo": 120.0
            },
            {
                "start_time": 77.13636363636363,
                "end_time": 77.41136363636363,
                "pitch": 57,
                "velocity": 64,
                "duration": 0.2750000000000057,
                "tempo": 120.0
            },
            {
                "start_time": 77.44318181818181,
                "end_time": 77.70227272727273,
                "pitch": 60,
                "velocity": 64,
                "duration": 0.25909090909091503,
                "tempo": 120.0
            },
            {
                "start_time": 77.73409090909091,
                "end_time": 77.99318181818181,
                "pitch": 52,
                "velocity": 64,
                "duration": 0.2590909090909008,
                "tempo": 120.0
            },
            {
                "start_time": 78.04318181818181,
                "end_time": 78.30227272727272,
                "pitch": 57,
                "velocity": 64,
                "duration": 0.25909090909091503,
                "tempo": 120.0
            },
            {
                "start_time": 78.3340909090909,
                "end_time": 78.59318181818182,
                "pitch": 60,
                "velocity": 64,
                "duration": 0.25909090909091503,
                "tempo": 120.0
            },
            {
                "start_time": 78.64318181818182,
                "end_time": 78.89318181818182,
                "pitch": 52,
                "velocity": 64,
                "duration": 0.25,
                "tempo": 120.0
            },
            {
                "start_time": 78.925,
                "end_time": 79.18409090909091,
                "pitch": 57,
                "velocity": 64,
                "duration": 0.25909090909091503,
                "tempo": 120.0
            },
            {
                "start_time": 79.23409090909091,
                "end_time": 79.48409090909091,
                "pitch": 60,
                "velocity": 64,
                "duration": 0.25,
                "tempo": 120.0
            },
            {
                "start_time": 79.51590909090909,
                "end_time": 79.77499999999999,
                "pitch": 57,
                "velocity": 64,
                "duration": 0.2590909090909008,
                "tempo": 120.0
            },
            {
                "start_time": 79.80909090909091,
                "end_time": 80.075,
                "pitch": 59,
                "velocity": 64,
                "duration": 0.26590909090909065,
                "tempo": 120.0
            },
            {
                "start_time": 80.10681818181818,
                "end_time": 80.375,
                "pitch": 62,
                "velocity": 64,
                "duration": 0.26818181818181586,
                "tempo": 120.0
            },
            {
                "start_time": 80.4090909090909,
                "end_time": 80.675,
                "pitch": 57,
                "velocity": 64,
                "duration": 0.26590909090909065,
                "tempo": 120.0
            },
            {
                "start_time": 80.70454545454545,
                "end_time": 80.97272727272727,
                "pitch": 59,
                "velocity": 64,
                "duration": 0.26818181818181586,
                "tempo": 120.0
            },
            {
                "start_time": 81.00681818181818,
                "end_time": 81.2590909090909,
                "pitch": 62,
                "velocity": 64,
                "duration": 0.2522727272727252,
                "tempo": 120.0
            },
            {
                "start_time": 81.30681818181817,
                "end_time": 81.57272727272726,
                "pitch": 64,
                "velocity": 64,
                "duration": 0.26590909090909065,
                "tempo": 120.0
            },
            {
                "start_time": 81.60681818181818,
                "end_time": 81.85681818181818,
                "pitch": 62,
                "velocity": 64,
                "duration": 0.25,
                "tempo": 120.0
            },
            {
                "start_time": 81.90454545454546,
                "end_time": 82.16363636363636,
                "pitch": 56,
                "velocity": 64,
                "duration": 0.2590909090909008,
                "tempo": 120.0
            },
            {
                "start_time": 82.19545454545454,
                "end_time": 82.44545454545454,
                "pitch": 52,
                "velocity": 64,
                "duration": 0.25,
                "tempo": 120.0
            },
            {
                "start_time": 82.49318181818181,
                "end_time": 82.75227272727273,
                "pitch": 60,
                "velocity": 64,
                "duration": 0.25909090909091503,
                "tempo": 120.0
            },
            {
                "start_time": 82.78636363636363,
                "end_time": 83.04545454545455,
                "pitch": 56,
                "velocity": 64,
                "duration": 0.25909090909091503,
                "tempo": 120.0
            },
            {
                "start_time": 83.07727272727273,
                "end_time": 83.34545454545454,
                "pitch": 57,
                "velocity": 64,
                "duration": 0.26818181818181586,
                "tempo": 120.0
            },
            {
                "start_time": 83.37727272727273,
                "end_time": 83.63636363636363,
                "pitch": 52,
                "velocity": 64,
                "duration": 0.2590909090909008,
                "tempo": 120.0
            },
            {
                "start_time": 83.66818181818181,
                "end_time": 83.93636363636364,
                "pitch": 60,
                "velocity": 64,
                "duration": 0.26818181818183007,
                "tempo": 120.0
            },
            {
                "start_time": 83.98636363636363,
                "end_time": 84.23636363636363,
                "pitch": 52,
                "velocity": 64,
                "duration": 0.25,
                "tempo": 120.0
            },
            {
                "start_time": 84.26818181818182,
                "end_time": 84.52727272727272,
                "pitch": 57,
                "velocity": 64,
                "duration": 0.2590909090909008,
                "tempo": 120.0
            },
            {
                "start_time": 84.57727272727273,
                "end_time": 84.83636363636363,
                "pitch": 60,
                "velocity": 64,
                "duration": 0.2590909090909008,
                "tempo": 120.0
            },
            {
                "start_time": 84.86818181818181,
                "end_time": 86.61363636363636,
                "pitch": 57,
                "velocity": 64,
                "duration": 1.7454545454545496,
                "tempo": 120.0
            }
        ],
        "Vibraphone": [
            {
                "start_time": 86.93863636363636,
                "end_time": 87.19090909090909,
                "pitch": 74,
                "velocity": 101,
                "duration": 0.2522727272727252,
                "tempo": 120.0
            },
            {
                "start_time": 87.23863636363636,
                "end_time": 87.50454545454545,
                "pitch": 77,
                "velocity": 101,
                "duration": 0.26590909090909065,
                "tempo": 120.0
            },
            {
                "start_time": 87.53863636363636,
                "end_time": 87.78863636363636,
                "pitch": 81,
                "velocity": 101,
                "duration": 0.25,
                "tempo": 120.0
            },
            {
                "start_time": 87.83636363636363,
                "end_time": 88.10454545454544,
                "pitch": 84,
                "velocity": 101,
                "duration": 0.26818181818181586,
                "tempo": 120.0
            },
            {
                "start_time": 88.13636363636363,
                "end_time": 88.38863636363637,
                "pitch": 81,
                "velocity": 101,
                "duration": 0.2522727272727394,
                "tempo": 120.0
            },
            {
                "start_time": 88.4340909090909,
                "end_time": 88.70227272727273,
                "pitch": 79,
                "velocity": 101,
                "duration": 0.26818181818183007,
                "tempo": 120.0
            },
            {
                "start_time": 88.73636363636363,
                "end_time": 88.98863636363636,
                "pitch": 74,
                "velocity": 101,
                "duration": 0.2522727272727252,
                "tempo": 120.0
            },
            {
                "start_time": 89.01818181818182,
                "end_time": 89.2840909090909,
                "pitch": 77,
                "velocity": 101,
                "duration": 0.26590909090909065,
                "tempo": 120.0
            },
            {
                "start_time": 89.31590909090909,
                "end_time": 89.57499999999999,
                "pitch": 79,
                "velocity": 101,
                "duration": 0.2590909090909008,
                "tempo": 120.0
            },
            {
                "start_time": 89.60909090909091,
                "end_time": 89.86818181818181,
                "pitch": 83,
                "velocity": 101,
                "duration": 0.2590909090909008,
                "tempo": 120.0
            },
            {
                "start_time": 89.91590909090908,
                "end_time": 90.175,
                "pitch": 79,
                "velocity": 101,
                "duration": 0.25909090909091503,
                "tempo": 120.0
            },
            {
                "start_time": 90.2090909090909,
                "end_time": 90.4590909090909,
                "pitch": 76,
                "velocity": 101,
                "duration": 0.25,
                "tempo": 120.0
            },
            {
                "start_time": 90.50681818181818,
                "end_time": 90.77499999999999,
                "pitch": 72,
                "velocity": 101,
                "duration": 0.26818181818181586,
                "tempo": 120.0
            },
            {
                "start_time": 90.8090909090909,
                "end_time": 91.0590909090909,
                "pitch": 79,
                "velocity": 101,
                "duration": 0.25,
                "tempo": 120.0
            },
            {
                "start_time": 91.10454545454544,
                "end_time": 91.36590909090908,
                "pitch": 83,
                "velocity": 101,
                "duration": 0.26136363636364024,
                "tempo": 120.0
            },
            {
                "start_time": 91.39772727272727,
                "end_time": 91.65681818181818,
                "pitch": 79,
                "velocity": 101,
                "duration": 0.25909090909091503,
                "tempo": 120.0
            },
            {
                "start_time": 91.68863636363636,
                "end_time": 91.95454545454545,
                "pitch": 76,
                "velocity": 101,
                "duration": 0.26590909090909065,
                "tempo": 120.0
            },
            {
                "start_time": 91.98636363636363,
                "end_time": 92.24545454545454,
                "pitch": 81,
                "velocity": 101,
                "duration": 0.2590909090909008,
                "tempo": 120.0
            },
            {
                "start_time": 92.27954545454546,
                "end_time": 92.54545454545455,
                "pitch": 76,
                "velocity": 101,
                "duration": 0.26590909090909065,
                "tempo": 120.0
            },
            {
                "start_time": 92.57727272727273,
                "end_time": 92.84318181818182,
                "pitch": 73,
                "velocity": 101,
                "duration": 0.26590909090909065,
                "tempo": 120.0
            },
            {
                "start_time": 92.87727272727273,
                "end_time": 93.12727272727273,
                "pitch": 81,
                "velocity": 101,
                "duration": 0.25,
                "tempo": 120.0
            },
            {
                "start_time": 93.175,
                "end_time": 93.44090909090909,
                "pitch": 76,
                "velocity": 101,
                "duration": 0.26590909090909065,
                "tempo": 120.0
            },
            {
                "start_time": 93.475,
                "end_time": 93.725,
                "pitch": 73,
                "velocity": 101,
                "duration": 0.25,
                "tempo": 120.0
            },
            {
                "start_time": 93.77272727272727,
                "end_time": 94.04090909090908,
                "pitch": 77,
                "velocity": 101,
                "duration": 0.26818181818181586,
                "tempo": 120.0
            },
            {
                "start_time": 94.07272727272726,
                "end_time": 94.32499999999999,
                "pitch": 74,
                "velocity": 101,
                "duration": 0.2522727272727252,
                "tempo": 120.0
            },
            {
                "start_time": 94.37272727272727,
                "end_time": 94.62954545454545,
                "pitch": 77,
                "velocity": 101,
                "duration": 0.2568181818181756,
                "tempo": 120.0
            },
            {
                "start_time": 94.66363636363636,
                "end_time": 94.91590909090908,
                "pitch": 81,
                "velocity": 101,
                "duration": 0.2522727272727252,
                "tempo": 120.0
            },
            {
                "start_time": 94.94772727272726,
                "end_time": 95.22272727272727,
                "pitch": 84,
                "velocity": 101,
                "duration": 0.2750000000000057,
                "tempo": 120.0
            },
            {
                "start_time": 95.25454545454545,
                "end_time": 95.51363636363637,
                "pitch": 81,
                "velocity": 101,
                "duration": 0.25909090909091503,
                "tempo": 120.0
            },
            {
                "start_time": 95.54545454545455,
                "end_time": 95.79545454545455,
                "pitch": 83,
                "velocity": 101,
                "duration": 0.25,
                "tempo": 120.0
            },
            {
                "start_time": 95.84318181818182,
                "end_time": 96.11136363636363,
                "pitch": 79,
                "velocity": 101,
                "duration": 0.26818181818181586,
                "tempo": 120.0
            },
            {
                "start_time": 96.14545454545454,
                "end_time": 96.7090909090909,
                "pitch": 74,
                "velocity": 101,
                "duration": 0.5636363636363626,
                "tempo": 120.0
            },
            {
                "start_time": 96.74318181818181,
                "end_time": 96.99318181818181,
                "pitch": 79,
                "velocity": 101,
                "duration": 0.25,
                "tempo": 120.0
            },
            {
                "start_time": 97.04090909090908,
                "end_time": 97.30681818181817,
                "pitch": 83,
                "velocity": 101,
                "duration": 0.26590909090909065,
                "tempo": 120.0
            },
            {
                "start_time": 97.34090909090908,
                "end_time": 97.89090909090909,
                "pitch": 83,
                "velocity": 101,
                "duration": 0.5500000000000114,
                "tempo": 120.0
            },
            {
                "start_time": 97.92272727272727,
                "end_time": 98.18181818181817,
                "pitch": 79,
                "velocity": 101,
                "duration": 0.2590909090909008,
                "tempo": 120.0
            },
            {
                "start_time": 98.21363636363635,
                "end_time": 98.48181818181817,
                "pitch": 76,
                "velocity": 101,
                "duration": 0.26818181818181586,
                "tempo": 120.0
            },
            {
                "start_time": 98.51363636363637,
                "end_time": 98.77954545454546,
                "pitch": 72,
                "velocity": 101,
                "duration": 0.26590909090909065,
                "tempo": 120.0
            },
            {
                "start_time": 98.81363636363636,
                "end_time": 99.06363636363636,
                "pitch": 76,
                "velocity": 101,
                "duration": 0.25,
                "tempo": 120.0
            },
            {
                "start_time": 99.11136363636363,
                "end_time": 99.37727272727273,
                "pitch": 73,
                "velocity": 101,
                "duration": 0.26590909090909065,
                "tempo": 120.0
            },
            {
                "start_time": 99.41136363636363,
                "end_time": 99.66363636363636,
                "pitch": 76,
                "velocity": 101,
                "duration": 0.2522727272727252,
                "tempo": 120.0
            },
            {
                "start_time": 99.7090909090909,
                "end_time": 99.96818181818182,
                "pitch": 81,
                "velocity": 101,
                "duration": 0.25909090909091503,
                "tempo": 120.0
            },
            {
                "start_time": 100.00227272727273,
                "end_time": 100.26136363636363,
                "pitch": 79,
                "velocity": 101,
                "duration": 0.2590909090909008,
                "tempo": 120.0
            },
            {
                "start_time": 100.3090909090909,
                "end_time": 100.56818181818181,
                "pitch": 76,
                "velocity": 101,
                "duration": 0.25909090909091503,
                "tempo": 120.0
            },
            {
                "start_time": 100.60227272727272,
                "end_time": 100.85227272727272,
                "pitch": 73,
                "velocity": 101,
                "duration": 0.25,
                "tempo": 120.0
            },
            {
                "start_time": 101.19090909090909,
                "end_time": 101.44999999999999,
                "pitch": 74,
                "velocity": 101,
                "duration": 0.2590909090909008,
                "tempo": 120.0
            },
            {
                "start_time": 101.48409090909091,
                "end_time": 101.73409090909091,
                "pitch": 77,
                "velocity": 101,
                "duration": 0.25,
                "tempo": 120.0
            },
            {
                "start_time": 101.78181818181818,
                "end_time": 102.04090909090908,
                "pitch": 81,
                "velocity": 101,
                "duration": 0.2590909090909008,
                "tempo": 120.0
            },
            {
                "start_time": 102.07499999999999,
                "end_time": 102.3340909090909,
                "pitch": 84,
                "velocity": 101,
                "duration": 0.25909090909091503,
                "tempo": 120.0
            },
            {
                "start_time": 102.38181818181818,
                "end_time": 102.64999999999999,
                "pitch": 81,
                "velocity": 101,
                "duration": 0.26818181818181586,
                "tempo": 120.0
            },
            {
                "start_time": 102.6840909090909,
                "end_time": 102.9340909090909,
                "pitch": 79,
                "velocity": 101,
                "duration": 0.25,
                "tempo": 120.0
            },
            {
                "start_time": 102.97954545454544,
                "end_time": 103.24090909090908,
                "pitch": 74,
                "velocity": 101,
                "duration": 0.26136363636364024,
                "tempo": 120.0
            },
            {
                "start_time": 103.27272727272727,
                "end_time": 103.53181818181818,
                "pitch": 77,
                "velocity": 101,
                "duration": 0.25909090909091503,
                "tempo": 120.0
            },
            {
                "start_time": 103.58181818181818,
                "end_time": 103.84090909090908,
                "pitch": 79,
                "velocity": 101,
                "duration": 0.2590909090909008,
                "tempo": 120.0
            },
            {
                "start_time": 103.87272727272726,
                "end_time": 104.13181818181818,
                "pitch": 83,
                "velocity": 101,
                "duration": 0.25909090909091503,
                "tempo": 120.0
            },
            {
                "start_time": 104.16363636363636,
                "end_time": 104.43181818181817,
                "pitch": 79,
                "velocity": 101,
                "duration": 0.26818181818181586,
                "tempo": 120.0
            },
            {
                "start_time": 104.46363636363635,
                "end_time": 104.72272727272727,
                "pitch": 76,
                "velocity": 101,
                "duration": 0.25909090909091503,
                "tempo": 120.0
            },
            {
                "start_time": 104.75454545454545,
                "end_time": 105.00681818181818,
                "pitch": 72,
                "velocity": 101,
                "duration": 0.2522727272727252,
                "tempo": 120.0
            },
            {
                "start_time": 105.05454545454545,
                "end_time": 105.32045454545454,
                "pitch": 79,
                "velocity": 101,
                "duration": 0.26590909090909065,
                "tempo": 120.0
            },
            {
                "start_time": 105.35454545454544,
                "end_time": 105.60681818181817,
                "pitch": 83,
                "velocity": 101,
                "duration": 0.2522727272727252,
                "tempo": 120.0
            },
            {
                "start_time": 105.65227272727272,
                "end_time": 105.92045454545455,
                "pitch": 79,
                "velocity": 101,
                "duration": 0.26818181818183007,
                "tempo": 120.0
            },
            {
                "start_time": 105.95454545454545,
                "end_time": 106.20454545454545,
                "pitch": 76,
                "velocity": 101,
                "duration": 0.25,
                "tempo": 120.0
            },
            {
                "start_time": 106.25227272727273,
                "end_time": 106.51136363636363,
                "pitch": 81,
                "velocity": 101,
                "duration": 0.2590909090909008,
                "tempo": 120.0
            },
            {
                "start_time": 106.54318181818181,
                "end_time": 106.79318181818181,
                "pitch": 76,
                "velocity": 101,
                "duration": 0.25,
                "tempo": 120.0
            },
            {
                "start_time": 106.82499999999999,
                "end_time": 107.09090909090908,
                "pitch": 72,
                "velocity": 101,
                "duration": 0.26590909090909065,
                "tempo": 120.0
            },
            {
                "start_time": 107.12272727272726,
                "end_time": 107.38863636363637,
                "pitch": 81,
                "velocity": 101,
                "duration": 0.26590909090910486,
                "tempo": 120.0
            },
            {
                "start_time": 107.42272727272727,
                "end_time": 107.68863636363636,
                "pitch": 76,
                "velocity": 101,
                "duration": 0.26590909090909065,
                "tempo": 120.0
            },
            {
                "start_time": 107.72045454545454,
                "end_time": 107.98863636363636,
                "pitch": 72,
                "velocity": 101,
                "duration": 0.26818181818181586,
                "tempo": 120.0
            },
            {
                "start_time": 108.02045454545454,
                "end_time": 108.27272727272727,
                "pitch": 77,
                "velocity": 101,
                "duration": 0.2522727272727252,
                "tempo": 120.0
            },
            {
                "start_time": 108.32045454545454,
                "end_time": 108.57954545454545,
                "pitch": 74,
                "velocity": 101,
                "duration": 0.25909090909091503,
                "tempo": 120.0
            },
            {
                "start_time": 108.61363636363636,
                "end_time": 108.87272727272726,
                "pitch": 77,
                "velocity": 101,
                "duration": 0.2590909090909008,
                "tempo": 120.0
            },
            {
                "start_time": 108.92045454545455,
                "end_time": 109.17954545454545,
                "pitch": 81,
                "velocity": 101,
                "duration": 0.2590909090909008,
                "tempo": 120.0
            },
            {
                "start_time": 109.21363636363635,
                "end_time": 109.47272727272727,
                "pitch": 84,
                "velocity": 101,
                "duration": 0.25909090909091503,
                "tempo": 120.0
            },
            {
                "start_time": 109.52045454545454,
                "end_time": 109.77954545454546,
                "pitch": 81,
                "velocity": 101,
                "duration": 0.25909090909091503,
                "tempo": 120.0
            },
            {
                "start_time": 109.81363636363636,
                "end_time": 110.06363636363636,
                "pitch": 71,
                "velocity": 101,
                "duration": 0.25,
                "tempo": 120.0
            },
            {
                "start_time": 110.09545454545454,
                "end_time": 110.35909090909091,
                "pitch": 74,
                "velocity": 101,
                "duration": 0.26363636363636545,
                "tempo": 120.0
            },
            {
                "start_time": 110.39090909090909,
                "end_time": 110.64999999999999,
                "pitch": 77,
                "velocity": 101,
                "duration": 0.2590909090909008,
                "tempo": 120.0
            },
            {
                "start_time": 110.6840909090909,
                "end_time": 110.94318181818181,
                "pitch": 81,
                "velocity": 101,
                "duration": 0.25909090909091503,
                "tempo": 120.0
            },
            {
                "start_time": 110.99090909090908,
                "end_time": 111.25,
                "pitch": 77,
                "velocity": 101,
                "duration": 0.25909090909091503,
                "tempo": 120.0
            },
            {
                "start_time": 111.2840909090909,
                "end_time": 111.54318181818181,
                "pitch": 74,
                "velocity": 101,
                "duration": 0.2590909090909008,
                "tempo": 120.0
            },
            {
                "start_time": 111.59090909090908,
                "end_time": 111.85,
                "pitch": 76,
                "velocity": 101,
                "duration": 0.25909090909091503,
                "tempo": 120.0
            },
            {
                "start_time": 111.8840909090909,
                "end_time": 112.1340909090909,
                "pitch": 81,
                "velocity": 101,
                "duration": 0.25,
                "tempo": 120.0
            },
            {
                "start_time": 112.18181818181817,
                "end_time": 112.44999999999999,
                "pitch": 83,
                "velocity": 101,
                "duration": 0.26818181818181586,
                "tempo": 120.0
            },
            {
                "start_time": 112.48409090909091,
                "end_time": 112.73409090909091,
                "pitch": 81,
                "velocity": 101,
                "duration": 0.25,
                "tempo": 120.0
            },
            {
                "start_time": 112.76590909090909,
                "end_time": 113.03181818181818,
                "pitch": 83,
                "velocity": 101,
                "duration": 0.26590909090909065,
                "tempo": 120.0
            },
            {
                "start_time": 113.06363636363636,
                "end_time": 113.32272727272726,
                "pitch": 81,
                "velocity": 101,
                "duration": 0.2590909090909008,
                "tempo": 120.0
            },
            {
                "start_time": 113.35454545454544,
                "end_time": 113.62954545454545,
                "pitch": 80,
                "velocity": 101,
                "duration": 0.2750000000000057,
                "tempo": 120.0
            },
            {
                "start_time": 113.66136363636363,
                "end_time": 113.92272727272727,
                "pitch": 76,
                "velocity": 101,
                "duration": 0.26136363636364024,
                "tempo": 120.0
            },
            {
                "start_time": 113.95454545454545,
                "end_time": 114.21363636363635,
                "pitch": 74,
                "velocity": 101,
                "duration": 0.2590909090909008,
                "tempo": 120.0
            },
            {
                "start_time": 114.26136363636363,
                "end_time": 114.52272727272727,
                "pitch": 76,
                "velocity": 101,
                "duration": 0.26136363636364024,
                "tempo": 120.0
            },
            {
                "start_time": 114.55454545454545,
                "end_time": 114.80454545454545,
                "pitch": 80,
                "velocity": 101,
                "duration": 0.25,
                "tempo": 120.0
            },
            {
                "start_time": 114.85227272727272,
                "end_time": 115.11818181818181,
                "pitch": 83,
                "velocity": 101,
                "duration": 0.26590909090909065,
                "tempo": 120.0
            },
            {
                "start_time": 115.45227272727273,
                "end_time": 115.71136363636363,
                "pitch": 74,
                "velocity": 101,
                "duration": 0.2590909090909008,
                "tempo": 120.0
            },
            {
                "start_time": 115.74318181818181,
                "end_time": 116.00227272727273,
                "pitch": 77,
                "velocity": 101,
                "duration": 0.25909090909091503,
                "tempo": 120.0
            },
            {
                "start_time": 116.03636363636363,
                "end_time": 116.30227272727272,
                "pitch": 81,
                "velocity": 101,
                "duration": 0.26590909090909065,
                "tempo": 120.0
            },
            {
                "start_time": 116.3340909090909,
                "end_time": 116.59318181818182,
                "pitch": 84,
                "velocity": 101,
                "duration": 0.25909090909091503,
                "tempo": 120.0
            },
            {
                "start_time": 116.625,
                "end_time": 116.8840909090909,
                "pitch": 81,
                "velocity": 101,
                "duration": 0.2590909090909008,
                "tempo": 120.0
            },
            {
                "start_time": 116.9340909090909,
                "end_time": 117.19090909090909,
                "pitch": 79,
                "velocity": 101,
                "duration": 0.25681818181818983,
                "tempo": 120.0
            },
            {
                "start_time": 117.225,
                "end_time": 117.475,
                "pitch": 74,
                "velocity": 101,
                "duration": 0.25,
                "tempo": 120.0
            },
            {
                "start_time": 117.52272727272727,
                "end_time": 117.78863636363636,
                "pitch": 77,
                "velocity": 101,
                "duration": 0.26590909090909065,
                "tempo": 120.0
            },
            {
                "start_time": 117.82272727272726,
                "end_time": 118.07272727272726,
                "pitch": 79,
                "velocity": 101,
                "duration": 0.25,
                "tempo": 120.0
            },
            {
                "start_time": 118.12045454545454,
                "end_time": 118.38636363636363,
                "pitch": 83,
                "velocity": 101,
                "duration": 0.26590909090909065,
                "tempo": 120.0
            },
            {
                "start_time": 118.42045454545455,
                "end_time": 118.67272727272727,
                "pitch": 79,
                "velocity": 101,
                "duration": 0.2522727272727252,
                "tempo": 120.0
            },
            {
                "start_time": 118.70454545454545,
                "end_time": 118.97045454545454,
                "pitch": 76,
                "velocity": 101,
                "duration": 0.26590909090909065,
                "tempo": 120.0
            },
            {
                "start_time": 119.00227272727273,
                "end_time": 119.26136363636363,
                "pitch": 72,
                "velocity": 101,
                "duration": 0.2590909090909008,
                "tempo": 120.0
            },
            {
                "start_time": 119.29545454545455,
                "end_time": 119.57045454545454,
                "pitch": 79,
                "velocity": 101,
                "duration": 0.2749999999999915,
                "tempo": 120.0
            },
            {
                "start_time": 119.60227272727272,
                "end_time": 119.86136363636363,
                "pitch": 83,
                "velocity": 101,
                "duration": 0.25909090909091503,
                "tempo": 120.0
            },
            {
                "start_time": 119.89545454545454,
                "end_time": 120.15227272727272,
                "pitch": 79,
                "velocity": 101,
                "duration": 0.2568181818181756,
                "tempo": 120.0
            },
            {
                "start_time": 120.20227272727273,
                "end_time": 120.46136363636363,
                "pitch": 76,
                "velocity": 101,
                "duration": 0.2590909090909008,
                "tempo": 120.0
            },
            {
                "start_time": 120.49318181818181,
                "end_time": 120.74318181818181,
                "pitch": 81,
                "velocity": 101,
                "duration": 0.25,
                "tempo": 120.0
            },
            {
                "start_time": 120.79090909090908,
                "end_time": 121.05,
                "pitch": 76,
                "velocity": 101,
                "duration": 0.25909090909091503,
                "tempo": 120.0
            },
            {
                "start_time": 121.0840909090909,
                "end_time": 121.34318181818182,
                "pitch": 72,
                "velocity": 101,
                "duration": 0.25909090909091503,
                "tempo": 120.0
            },
            {
                "start_time": 121.39090909090909,
                "end_time": 121.64999999999999,
                "pitch": 81,
                "velocity": 101,
                "duration": 0.2590909090909008,
                "tempo": 120.0
            },
            {
                "start_time": 121.6840909090909,
                "end_time": 121.94318181818181,
                "pitch": 76,
                "velocity": 101,
                "duration": 0.25909090909091503,
                "tempo": 120.0
            },
            {
                "start_time": 121.975,
                "end_time": 122.24318181818181,
                "pitch": 72,
                "velocity": 101,
                "duration": 0.26818181818181586,
                "tempo": 120.0
            },
            {
                "start_time": 122.27499999999999,
                "end_time": 122.5340909090909,
                "pitch": 77,
                "velocity": 101,
                "duration": 0.25909090909091503,
                "tempo": 120.0
            },
            {
                "start_time": 122.56590909090909,
                "end_time": 122.81818181818181,
                "pitch": 74,
                "velocity": 101,
                "duration": 0.2522727272727252,
                "tempo": 120.0
            },
            {
                "start_time": 122.86590909090908,
                "end_time": 123.13181818181818,
                "pitch": 77,
                "velocity": 101,
                "duration": 0.26590909090909065,
                "tempo": 120.0
            },
            {
                "start_time": 123.16590909090908,
                "end_time": 123.41590909090908,
                "pitch": 81,
                "velocity": 101,
                "duration": 0.25,
                "tempo": 120.0
            },
            {
                "start_time": 123.46363636363635,
                "end_time": 123.72954545454544,
                "pitch": 84,
                "velocity": 101,
                "duration": 0.26590909090909065,
                "tempo": 120.0
            },
            {
                "start_time": 123.76363636363635,
                "end_time": 124.01590909090909,
                "pitch": 81,
                "velocity": 101,
                "duration": 0.2522727272727394,
                "tempo": 120.0
            },
            {
                "start_time": 124.06136363636364,
                "end_time": 124.32045454545454,
                "pitch": 79,
                "velocity": 101,
                "duration": 0.2590909090909008,
                "tempo": 120.0
            },
            {
                "start_time": 124.35454545454544,
                "end_time": 124.60454545454544,
                "pitch": 74,
                "velocity": 101,
                "duration": 0.25,
                "tempo": 120.0
            },
            {
                "start_time": 124.63636363636363,
                "end_time": 124.91136363636363,
                "pitch": 71,
                "velocity": 101,
                "duration": 0.2750000000000057,
                "tempo": 120.0
            },
            {
                "start_time": 124.94318181818181,
                "end_time": 125.20227272727273,
                "pitch": 74,
                "velocity": 101,
                "duration": 0.25909090909091503,
                "tempo": 120.0
            },
            {
                "start_time": 125.23636363636363,
                "end_time": 125.51136363636363,
                "pitch": 79,
                "velocity": 101,
                "duration": 0.2749999999999915,
                "tempo": 120.0
            },
            {
                "start_time": 125.54318181818181,
                "end_time": 125.80227272727272,
                "pitch": 74,
                "velocity": 101,
                "duration": 0.25909090909091503,
                "tempo": 120.0
            },
            {
                "start_time": 125.83636363636363,
                "end_time": 126.39318181818182,
                "pitch": 83,
                "velocity": 101,
                "duration": 0.556818181818187,
                "tempo": 120.0
            },
            {
                "start_time": 126.425,
                "end_time": 126.6840909090909,
                "pitch": 79,
                "velocity": 101,
                "duration": 0.2590909090909008,
                "tempo": 120.0
            },
            {
                "start_time": 126.73409090909091,
                "end_time": 126.99318181818181,
                "pitch": 76,
                "velocity": 101,
                "duration": 0.2590909090909008,
                "tempo": 120.0
            },
            {
                "start_time": 127.02727272727272,
                "end_time": 127.2840909090909,
                "pitch": 72,
                "velocity": 101,
                "duration": 0.25681818181818983,
                "tempo": 120.0
            },
            {
                "start_time": 127.3340909090909,
                "end_time": 127.59318181818182,
                "pitch": 76,
                "velocity": 101,
                "duration": 0.25909090909091503,
                "tempo": 120.0
            },
            {
                "start_time": 127.625,
                "end_time": 127.875,
                "pitch": 73,
                "velocity": 101,
                "duration": 0.25,
                "tempo": 120.0
            },
            {
                "start_time": 127.90681818181818,
                "end_time": 128.17272727272726,
                "pitch": 76,
                "velocity": 101,
                "duration": 0.26590909090907644,
                "tempo": 120.0
            },
            {
                "start_time": 128.20454545454544,
                "end_time": 128.47272727272727,
                "pitch": 81,
                "velocity": 101,
                "duration": 0.26818181818183007,
                "tempo": 120.0
            },
            {
                "start_time": 128.50681818181818,
                "end_time": 128.75681818181818,
                "pitch": 79,
                "velocity": 101,
                "duration": 0.25,
                "tempo": 120.0
            },
            {
                "start_time": 128.8022727272727,
                "end_time": 129.07045454545454,
                "pitch": 76,
                "velocity": 101,
                "duration": 0.26818181818183007,
                "tempo": 120.0
            },
            {
                "start_time": 129.10454545454544,
                "end_time": 129.35681818181817,
                "pitch": 73,
                "velocity": 101,
                "duration": 0.2522727272727252,
                "tempo": 120.0
            },
            {
                "start_time": 129.69545454545454,
                "end_time": 129.95454545454544,
                "pitch": 74,
                "velocity": 101,
                "duration": 0.2590909090909008,
                "tempo": 120.0
            },
            {
                "start_time": 130.00454545454545,
                "end_time": 130.26136363636363,
                "pitch": 77,
                "velocity": 101,
                "duration": 0.2568181818181756,
                "tempo": 120.0
            },
            {
                "start_time": 130.29545454545453,
                "end_time": 130.54545454545453,
                "pitch": 81,
                "velocity": 101,
                "duration": 0.25,
                "tempo": 120.0
            },
            {
                "start_time": 130.5772727272727,
                "end_time": 130.85227272727272,
                "pitch": 84,
                "velocity": 101,
                "duration": 0.2750000000000057,
                "tempo": 120.0
            },
            {
                "start_time": 130.8840909090909,
                "end_time": 131.1431818181818,
                "pitch": 81,
                "velocity": 101,
                "duration": 0.2590909090909008,
                "tempo": 120.0
            },
            {
                "start_time": 131.1772727272727,
                "end_time": 131.4431818181818,
                "pitch": 79,
                "velocity": 101,
                "duration": 0.26590909090910486,
                "tempo": 120.0
            },
            {
                "start_time": 131.47272727272727,
                "end_time": 131.74090909090907,
                "pitch": 74,
                "velocity": 101,
                "duration": 0.26818181818180165,
                "tempo": 120.0
            },
            {
                "start_time": 131.775,
                "end_time": 132.025,
                "pitch": 77,
                "velocity": 101,
                "duration": 0.25,
                "tempo": 120.0
            },
            {
                "start_time": 132.07272727272726,
                "end_time": 132.33181818181816,
                "pitch": 79,
                "velocity": 101,
                "duration": 0.2590909090909008,
                "tempo": 120.0
            },
            {
                "start_time": 132.36363636363635,
                "end_time": 132.62272727272727,
                "pitch": 83,
                "velocity": 101,
                "duration": 0.25909090909092924,
                "tempo": 120.0
            },
            {
                "start_time": 132.67272727272726,
                "end_time": 132.9318181818182,
                "pitch": 79,
                "velocity": 101,
                "duration": 0.25909090909092924,
                "tempo": 120.0
            },
            {
                "start_time": 132.96363636363637,
                "end_time": 133.22272727272727,
                "pitch": 76,
                "velocity": 101,
                "duration": 0.2590909090909008,
                "tempo": 120.0
            },
            {
                "start_time": 133.27272727272725,
                "end_time": 133.53181818181818,
                "pitch": 72,
                "velocity": 101,
                "duration": 0.25909090909092924,
                "tempo": 120.0
            },
            {
                "start_time": 133.56363636363636,
                "end_time": 133.81363636363636,
                "pitch": 79,
                "velocity": 101,
                "duration": 0.25,
                "tempo": 120.0
            },
            {
                "start_time": 133.84545454545454,
                "end_time": 134.11136363636362,
                "pitch": 83,
                "velocity": 101,
                "duration": 0.26590909090907644,
                "tempo": 120.0
            },
            {
                "start_time": 134.1431818181818,
                "end_time": 134.40227272727273,
                "pitch": 79,
                "velocity": 101,
                "duration": 0.25909090909092924,
                "tempo": 120.0
            },
            {
                "start_time": 134.43636363636364,
                "end_time": 134.69545454545454,
                "pitch": 76,
                "velocity": 101,
                "duration": 0.2590909090909008,
                "tempo": 120.0
            },
            {
                "start_time": 134.74318181818182,
                "end_time": 135.00227272727273,
                "pitch": 81,
                "velocity": 101,
                "duration": 0.2590909090909008,
                "tempo": 120.0
            },
            {
                "start_time": 135.0340909090909,
                "end_time": 135.29545454545453,
                "pitch": 76,
                "velocity": 101,
                "duration": 0.26136363636362603,
                "tempo": 120.0
            },
            {
                "start_time": 135.34318181818182,
                "end_time": 135.60227272727272,
                "pitch": 72,
                "velocity": 101,
                "duration": 0.2590909090909008,
                "tempo": 120.0
            },
            {
                "start_time": 135.6340909090909,
                "end_time": 135.88636363636363,
                "pitch": 81,
                "velocity": 101,
                "duration": 0.2522727272727252,
                "tempo": 120.0
            },
            {
                "start_time": 135.9318181818182,
                "end_time": 136.2,
                "pitch": 76,
                "velocity": 101,
                "duration": 0.26818181818180165,
                "tempo": 120.0
            },
            {
                "start_time": 136.2340909090909,
                "end_time": 136.4840909090909,
                "pitch": 72,
                "velocity": 101,
                "duration": 0.25,
                "tempo": 120.0
            },
            {
                "start_time": 136.53181818181818,
                "end_time": 136.79999999999998,
                "pitch": 77,
                "velocity": 101,
                "duration": 0.26818181818180165,
                "tempo": 120.0
            },
            {
                "start_time": 136.8340909090909,
                "end_time": 137.0840909090909,
                "pitch": 74,
                "velocity": 101,
                "duration": 0.25,
                "tempo": 120.0
            },
            {
                "start_time": 137.11590909090907,
                "end_time": 137.38181818181818,
                "pitch": 77,
                "velocity": 101,
                "duration": 0.26590909090910486,
                "tempo": 120.0
            },
            {
                "start_time": 137.41363636363636,
                "end_time": 137.67272727272726,
                "pitch": 81,
                "velocity": 101,
                "duration": 0.2590909090909008,
                "tempo": 120.0
            },
            {
                "start_time": 137.70454545454544,
                "end_time": 137.96363636363637,
                "pitch": 84,
                "velocity": 101,
                "duration": 0.25909090909092924,
                "tempo": 120.0
            },
            {
                "start_time": 138.01363636363635,
                "end_time": 138.27272727272725,
                "pitch": 81,
                "velocity": 101,
                "duration": 0.2590909090909008,
                "tempo": 120.0
            },
            {
                "start_time": 138.30454545454546,
                "end_time": 138.55454545454546,
                "pitch": 76,
                "velocity": 101,
                "duration": 0.25,
                "tempo": 120.0
            },
            {
                "start_time": 138.60227272727272,
                "end_time": 138.87045454545455,
                "pitch": 80,
                "velocity": 101,
                "duration": 0.26818181818183007,
                "tempo": 120.0
            },
            {
                "start_time": 138.90227272727273,
                "end_time": 139.15227272727273,
                "pitch": 83,
                "velocity": 101,
                "duration": 0.25,
                "tempo": 120.0
            },
            {
                "start_time": 139.2,
                "end_time": 139.46818181818182,
                "pitch": 86,
                "velocity": 101,
                "duration": 0.26818181818183007,
                "tempo": 120.0
            },
            {
                "start_time": 139.50227272727273,
                "end_time": 139.75227272727273,
                "pitch": 83,
                "velocity": 101,
                "duration": 0.25,
                "tempo": 120.0
            },
            {
                "start_time": 139.7840909090909,
                "end_time": 140.04999999999998,
                "pitch": 80,
                "velocity": 101,
                "duration": 0.26590909090907644,
                "tempo": 120.0
            },
            {
                "start_time": 140.08181818181816,
                "end_time": 140.3409090909091,
                "pitch": 81,
                "velocity": 101,
                "duration": 0.25909090909092924,
                "tempo": 120.0
            },
            {
                "start_time": 140.37272727272727,
                "end_time": 140.65,
                "pitch": 76,
                "velocity": 101,
                "duration": 0.2772727272727309,
                "tempo": 120.0
            },
            {
                "start_time": 140.6818181818182,
                "end_time": 140.9409090909091,
                "pitch": 72,
                "velocity": 101,
                "duration": 0.2590909090909008,
                "tempo": 120.0
            },
            {
                "start_time": 140.975,
                "end_time": 141.225,
                "pitch": 81,
                "velocity": 101,
                "duration": 0.25,
                "tempo": 120.0
            },
            {
                "start_time": 141.27045454545453,
                "end_time": 141.53863636363636,
                "pitch": 76,
                "velocity": 101,
                "duration": 0.26818181818183007,
                "tempo": 120.0
            },
            {
                "start_time": 141.57272727272726,
                "end_time": 141.82272727272726,
                "pitch": 72,
                "velocity": 101,
                "duration": 0.25,
                "tempo": 120.0
            },
            {
                "start_time": 141.87045454545455,
                "end_time": 142.13636363636363,
                "pitch": 81,
                "velocity": 101,
                "duration": 0.26590909090907644,
                "tempo": 120.0
            },
            {
                "start_time": 142.17045454545453,
                "end_time": 142.42045454545453,
                "pitch": 76,
                "velocity": 101,
                "duration": 0.25,
                "tempo": 120.0
            },
            {
                "start_time": 142.46818181818182,
                "end_time": 142.72727272727272,
                "pitch": 72,
                "velocity": 101,
                "duration": 0.2590909090909008,
                "tempo": 120.0
            },
            {
                "start_time": 142.76136363636363,
                "end_time": 143.01136363636363,
                "pitch": 76,
                "velocity": 101,
                "duration": 0.25,
                "tempo": 120.0
            },
            {
                "start_time": 143.04090909090908,
                "end_time": 143.3159090909091,
                "pitch": 73,
                "velocity": 101,
                "duration": 0.2750000000000057,
                "tempo": 120.0
            },
            {
                "start_time": 143.35,
                "end_time": 143.6090909090909,
                "pitch": 81,
                "velocity": 101,
                "duration": 0.2590909090909008,
                "tempo": 120.0
            },
            {
                "start_time": 143.95,
                "end_time": 144.2090909090909,
                "pitch": 74,
                "velocity": 101,
                "duration": 0.2590909090909008,
                "tempo": 120.0
            },
            {
                "start_time": 144.24090909090907,
                "end_time": 144.49090909090907,
                "pitch": 77,
                "velocity": 101,
                "duration": 0.25,
                "tempo": 120.0
            },
            {
                "start_time": 144.53863636363636,
                "end_time": 144.8068181818182,
                "pitch": 81,
                "velocity": 101,
                "duration": 0.26818181818183007,
                "tempo": 120.0
            },
            {
                "start_time": 144.8409090909091,
                "end_time": 145.0909090909091,
                "pitch": 84,
                "velocity": 101,
                "duration": 0.25,
                "tempo": 120.0
            },
            {
                "start_time": 145.13863636363635,
                "end_time": 145.40454545454546,
                "pitch": 81,
                "velocity": 101,
                "duration": 0.26590909090910486,
                "tempo": 120.0
            },
            {
                "start_time": 145.43863636363636,
                "end_time": 145.68863636363636,
                "pitch": 79,
                "velocity": 101,
                "duration": 0.25,
                "tempo": 120.0
            },
            {
                "start_time": 145.72045454545454,
                "end_time": 145.98636363636362,
                "pitch": 74,
                "velocity": 101,
                "duration": 0.26590909090907644,
                "tempo": 120.0
            },
            {
                "start_time": 146.0181818181818,
                "end_time": 146.27727272727273,
                "pitch": 77,
                "velocity": 101,
                "duration": 0.25909090909092924,
                "tempo": 120.0
            },
            {
                "start_time": 146.3090909090909,
                "end_time": 146.575,
                "pitch": 79,
                "velocity": 101,
                "duration": 0.26590909090907644,
                "tempo": 120.0
            },
            {
                "start_time": 146.60681818181817,
                "end_time": 146.87272727272727,
                "pitch": 83,
                "velocity": 101,
                "duration": 0.26590909090910486,
                "tempo": 120.0
            },
            {
                "start_time": 146.90681818181818,
                "end_time": 147.1590909090909,
                "pitch": 79,
                "velocity": 101,
                "duration": 0.2522727272727252,
                "tempo": 120.0
            },
            {
                "start_time": 147.20681818181816,
                "end_time": 147.47272727272727,
                "pitch": 76,
                "velocity": 101,
                "duration": 0.26590909090910486,
                "tempo": 120.0
            },
            {
                "start_time": 147.50681818181818,
                "end_time": 147.7590909090909,
                "pitch": 72,
                "velocity": 101,
                "duration": 0.2522727272727252,
                "tempo": 120.0
            },
            {
                "start_time": 147.80454545454543,
                "end_time": 148.07272727272726,
                "pitch": 79,
                "velocity": 101,
                "duration": 0.26818181818183007,
                "tempo": 120.0
            },
            {
                "start_time": 148.10454545454544,
                "end_time": 148.35681818181817,
                "pitch": 83,
                "velocity": 101,
                "duration": 0.2522727272727252,
                "tempo": 120.0
            },
            {
                "start_time": 148.40454545454546,
                "end_time": 148.67045454545453,
                "pitch": 79,
                "velocity": 101,
                "duration": 0.26590909090907644,
                "tempo": 120.0
            },
            {
                "start_time": 148.70454545454544,
                "end_time": 148.95454545454544,
                "pitch": 76,
                "velocity": 101,
                "duration": 0.25,
                "tempo": 120.0
            },
            {
                "start_time": 148.98636363636362,
                "end_time": 149.25227272727273,
                "pitch": 81,
                "velocity": 101,
                "duration": 0.26590909090910486,
                "tempo": 120.0
            },
            {
                "start_time": 149.2840909090909,
                "end_time": 149.5431818181818,
                "pitch": 76,
                "velocity": 101,
                "duration": 0.2590909090909008,
                "tempo": 120.0
            },
            {
                "start_time": 149.575,
                "end_time": 149.825,
                "pitch": 72,
                "velocity": 101,
                "duration": 0.25,
                "tempo": 120.0
            },
            {
                "start_time": 149.87272727272727,
                "end_time": 150.13181818181818,
                "pitch": 76,
                "velocity": 101,
                "duration": 0.2590909090909008,
                "tempo": 120.0
            },
            {
                "start_time": 150.16590909090908,
                "end_time": 150.42499999999998,
                "pitch": 79,
                "velocity": 101,
                "duration": 0.2590909090909008,
                "tempo": 120.0
            },
            {
                "start_time": 150.47272727272727,
                "end_time": 150.74090909090907,
                "pitch": 81,
                "velocity": 101,
                "duration": 0.26818181818180165,
                "tempo": 120.0
            },
            {
                "start_time": 151.07272727272726,
                "end_time": 151.33181818181816,
                "pitch": 74,
                "velocity": 101,
                "duration": 0.2590909090909008,
                "tempo": 120.0
            },
            {
                "start_time": 151.36363636363635,
                "end_time": 151.61363636363635,
                "pitch": 77,
                "velocity": 101,
                "duration": 0.25,
                "tempo": 120.0
            },
            {
                "start_time": 151.64545454545453,
                "end_time": 151.91363636363636,
                "pitch": 81,
                "velocity": 101,
                "duration": 0.26818181818183007,
                "tempo": 120.0
            },
            {
                "start_time": 151.9431818181818,
                "end_time": 152.21136363636364,
                "pitch": 84,
                "velocity": 101,
                "duration": 0.26818181818183007,
                "tempo": 120.0
            },
            {
                "start_time": 152.24545454545455,
                "end_time": 152.51136363636363,
                "pitch": 81,
                "velocity": 101,
                "duration": 0.26590909090907644,
                "tempo": 120.0
            },
            {
                "start_time": 152.5431818181818,
                "end_time": 152.8022727272727,
                "pitch": 77,
                "velocity": 101,
                "duration": 0.2590909090909008,
                "tempo": 120.0
            },
            {
                "start_time": 152.8340909090909,
                "end_time": 153.09318181818182,
                "pitch": 74,
                "velocity": 101,
                "duration": 0.25909090909092924,
                "tempo": 120.0
            },
            {
                "start_time": 153.1431818181818,
                "end_time": 153.40227272727273,
                "pitch": 77,
                "velocity": 101,
                "duration": 0.25909090909092924,
                "tempo": 120.0
            },
            {
                "start_time": 153.4340909090909,
                "end_time": 153.6931818181818,
                "pitch": 81,
                "velocity": 101,
                "duration": 0.2590909090909008,
                "tempo": 120.0
            },
            {
                "start_time": 153.74318181818182,
                "end_time": 154.00227272727273,
                "pitch": 84,
                "velocity": 101,
                "duration": 0.2590909090909008,
                "tempo": 120.0
            },
            {
                "start_time": 154.0340909090909,
                "end_time": 154.2931818181818,
                "pitch": 81,
                "velocity": 101,
                "duration": 0.2590909090909008,
                "tempo": 120.0
            },
            {
                "start_time": 154.6340909090909,
                "end_time": 154.8840909090909,
                "pitch": 76,
                "velocity": 101,
                "duration": 0.25,
                "tempo": 120.0
            },
            {
                "start_time": 154.91590909090908,
                "end_time": 155.1840909090909,
                "pitch": 79,
                "velocity": 101,
                "duration": 0.26818181818183007,
                "tempo": 120.0
            },
            {
                "start_time": 155.2159090909091,
                "end_time": 155.48181818181817,
                "pitch": 83,
                "velocity": 101,
                "duration": 0.26590909090907644,
                "tempo": 120.0
            },
            {
                "start_time": 155.51590909090908,
                "end_time": 155.7681818181818,
                "pitch": 86,
                "velocity": 101,
                "duration": 0.2522727272727252,
                "tempo": 120.0
            },
            {
                "start_time": 155.8159090909091,
                "end_time": 156.075,
                "pitch": 83,
                "velocity": 101,
                "duration": 0.2590909090909008,
                "tempo": 120.0
            },
            {
                "start_time": 156.10681818181817,
                "end_time": 156.36590909090907,
                "pitch": 79,
                "velocity": 101,
                "duration": 0.2590909090909008,
                "tempo": 120.0
            },
            {
                "start_time": 156.41590909090908,
                "end_time": 156.67499999999998,
                "pitch": 76,
                "velocity": 101,
                "duration": 0.2590909090909008,
                "tempo": 120.0
            },
            {
                "start_time": 156.70681818181816,
                "end_time": 156.9659090909091,
                "pitch": 79,
                "velocity": 101,
                "duration": 0.25909090909092924,
                "tempo": 120.0
            },
            {
                "start_time": 157.01590909090908,
                "end_time": 157.275,
                "pitch": 83,
                "velocity": 101,
                "duration": 0.25909090909092924,
                "tempo": 120.0
            },
            {
                "start_time": 157.3068181818182,
                "end_time": 157.5590909090909,
                "pitch": 86,
                "velocity": 101,
                "duration": 0.2522727272727252,
                "tempo": 120.0
            },
            {
                "start_time": 157.5909090909091,
                "end_time": 157.86590909090907,
                "pitch": 83,
                "velocity": 101,
                "duration": 0.27499999999997726,
                "tempo": 120.0
            },
            {
                "start_time": 158.17954545454543,
                "end_time": 158.45454545454544,
                "pitch": 74,
                "velocity": 101,
                "duration": 0.2750000000000057,
                "tempo": 120.0
            },
            {
                "start_time": 158.48636363636362,
                "end_time": 158.74545454545455,
                "pitch": 77,
                "velocity": 101,
                "duration": 0.25909090909092924,
                "tempo": 120.0
            },
            {
                "start_time": 158.77954545454546,
                "end_time": 159.02954545454546,
                "pitch": 81,
                "velocity": 101,
                "duration": 0.25,
                "tempo": 120.0
            },
            {
                "start_time": 159.0772727272727,
                "end_time": 159.34545454545454,
                "pitch": 84,
                "velocity": 101,
                "duration": 0.26818181818183007,
                "tempo": 120.0
            },
            {
                "start_time": 159.37954545454545,
                "end_time": 159.62954545454545,
                "pitch": 81,
                "velocity": 101,
                "duration": 0.25,
                "tempo": 120.0
            },
            {
                "start_time": 159.6772727272727,
                "end_time": 159.94545454545454,
                "pitch": 77,
                "velocity": 101,
                "duration": 0.26818181818183007,
                "tempo": 120.0
            },
            {
                "start_time": 159.97954545454544,
                "end_time": 160.22954545454544,
                "pitch": 74,
                "velocity": 101,
                "duration": 0.25,
                "tempo": 120.0
            },
            {
                "start_time": 160.27727272727273,
                "end_time": 160.5431818181818,
                "pitch": 77,
                "velocity": 101,
                "duration": 0.26590909090907644,
                "tempo": 120.0
            },
            {
                "start_time": 160.5772727272727,
                "end_time": 160.8272727272727,
                "pitch": 81,
                "velocity": 101,
                "duration": 0.25,
                "tempo": 120.0
            },
            {
                "start_time": 160.8590909090909,
                "end_time": 161.12727272727273,
                "pitch": 84,
                "velocity": 101,
                "duration": 0.26818181818183007,
                "tempo": 120.0
            },
            {
                "start_time": 161.1590909090909,
                "end_time": 161.42499999999998,
                "pitch": 81,
                "velocity": 101,
                "duration": 0.26590909090907644,
                "tempo": 120.0
            },
            {
                "start_time": 161.75681818181818,
                "end_time": 162.0181818181818,
                "pitch": 76,
                "velocity": 101,
                "duration": 0.26136363636362603,
                "tempo": 120.0
            },
            {
                "start_time": 162.04999999999998,
                "end_time": 162.3090909090909,
                "pitch": 79,
                "velocity": 101,
                "duration": 0.25909090909092924,
                "tempo": 120.0
            },
            {
                "start_time": 162.3590909090909,
                "end_time": 162.61818181818182,
                "pitch": 83,
                "velocity": 101,
                "duration": 0.25909090909092924,
                "tempo": 120.0
            },
            {
                "start_time": 162.65,
                "end_time": 162.9090909090909,
                "pitch": 86,
                "velocity": 101,
                "duration": 0.2590909090909008,
                "tempo": 120.0
            },
            {
                "start_time": 162.9590909090909,
                "end_time": 163.21818181818182,
                "pitch": 83,
                "velocity": 101,
                "duration": 0.25909090909092924,
                "tempo": 120.0
            },
            {
                "start_time": 163.25,
                "end_time": 163.50227272727273,
                "pitch": 79,
                "velocity": 101,
                "duration": 0.2522727272727252,
                "tempo": 120.0
            },
            {
                "start_time": 163.5340909090909,
                "end_time": 163.79999999999998,
                "pitch": 76,
                "velocity": 101,
                "duration": 0.26590909090907644,
                "tempo": 120.0
            },
            {
                "start_time": 163.83181818181816,
                "end_time": 164.0909090909091,
                "pitch": 79,
                "velocity": 101,
                "duration": 0.25909090909092924,
                "tempo": 120.0
            },
            {
                "start_time": 164.12272727272727,
                "end_time": 164.4,
                "pitch": 83,
                "velocity": 101,
                "duration": 0.2772727272727309,
                "tempo": 120.0
            },
            {
                "start_time": 164.4318181818182,
                "end_time": 164.6909090909091,
                "pitch": 86,
                "velocity": 101,
                "duration": 0.2590909090909008,
                "tempo": 120.0
            },
            {
                "start_time": 164.725,
                "end_time": 164.98181818181817,
                "pitch": 83,
                "velocity": 101,
                "duration": 0.2568181818181756,
                "tempo": 120.0
            },
            {
                "start_time": 165.32272727272726,
                "end_time": 165.575,
                "pitch": 72,
                "velocity": 101,
                "duration": 0.2522727272727252,
                "tempo": 120.0
            },
            {
                "start_time": 165.62272727272727,
                "end_time": 165.88863636363635,
                "pitch": 76,
                "velocity": 101,
                "duration": 0.26590909090907644,
                "tempo": 120.0
            },
            {
                "start_time": 165.92272727272726,
                "end_time": 166.17499999999998,
                "pitch": 81,
                "velocity": 101,
                "duration": 0.2522727272727252,
                "tempo": 120.0
            },
            {
                "start_time": 166.22272727272727,
                "end_time": 166.48863636363635,
                "pitch": 76,
                "velocity": 101,
                "duration": 0.26590909090907644,
                "tempo": 120.0
            },
            {
                "start_time": 166.52272727272725,
                "end_time": 166.77272727272725,
                "pitch": 72,
                "velocity": 101,
                "duration": 0.25,
                "tempo": 120.0
            },
            {
                "start_time": 167.11363636363635,
                "end_time": 167.38863636363635,
                "pitch": 72,
                "velocity": 101,
                "duration": 0.2750000000000057,
                "tempo": 120.0
            },
            {
                "start_time": 167.42045454545453,
                "end_time": 167.67954545454543,
                "pitch": 76,
                "velocity": 101,
                "duration": 0.2590909090909008,
                "tempo": 120.0
            },
            {
                "start_time": 167.72954545454544,
                "end_time": 167.99772727272727,
                "pitch": 81,
                "velocity": 101,
                "duration": 0.26818181818183007,
                "tempo": 120.0
            },
            {
                "start_time": 168.04772727272726,
                "end_time": 168.3068181818182,
                "pitch": 76,
                "velocity": 101,
                "duration": 0.25909090909092924,
                "tempo": 120.0
            },
            {
                "start_time": 168.33863636363637,
                "end_time": 168.61363636363635,
                "pitch": 72,
                "velocity": 101,
                "duration": 0.27499999999997726,
                "tempo": 120.0
            },
            {
                "start_time": 168.98181818181817,
                "end_time": 169.275,
                "pitch": 72,
                "velocity": 101,
                "duration": 0.29318181818183575,
                "tempo": 120.0
            },
            {
                "start_time": 169.3090909090909,
                "end_time": 169.59318181818182,
                "pitch": 76,
                "velocity": 101,
                "duration": 0.2840909090909065,
                "tempo": 120.0
            },
            {
                "start_time": 169.64545454545453,
                "end_time": 169.93863636363636,
                "pitch": 81,
                "velocity": 101,
                "duration": 0.29318181818183575,
                "tempo": 120.0
            },
            {
                "start_time": 169.97272727272727,
                "end_time": 170.25681818181818,
                "pitch": 76,
                "velocity": 101,
                "duration": 0.2840909090909065,
                "tempo": 120.0
            },
            {
                "start_time": 170.3068181818182,
                "end_time": 170.60227272727272,
                "pitch": 72,
                "velocity": 101,
                "duration": 0.29545454545453254,
                "tempo": 120.0
            },
            {
                "start_time": 170.97045454545454,
                "end_time": 171.28181818181818,
                "pitch": 72,
                "velocity": 101,
                "duration": 0.3113636363636374,
                "tempo": 120.0
            },
            {
                "start_time": 171.3340909090909,
                "end_time": 171.64545454545453,
                "pitch": 76,
                "velocity": 101,
                "duration": 0.3113636363636374,
                "tempo": 120.0
            },
            {
                "start_time": 171.7,
                "end_time": 172.02045454545453,
                "pitch": 81,
                "velocity": 101,
                "duration": 0.3204545454545382,
                "tempo": 120.0
            },
            {
                "start_time": 172.0568181818182,
                "end_time": 172.36590909090907,
                "pitch": 76,
                "velocity": 101,
                "duration": 0.30909090909088377,
                "tempo": 120.0
            },
            {
                "start_time": 172.4181818181818,
                "end_time": 172.72954545454544,
                "pitch": 72,
                "velocity": 101,
                "duration": 0.3113636363636374,
                "tempo": 120.0
            },
            {
                "start_time": 172.7840909090909,
                "end_time": 175.79772727272726,
                "pitch": 81,
                "velocity": 101,
                "duration": 3.0136363636363512,
                "tempo": 120.0
            }
        ],
        "Church Organ": [
            {
                "start_time": 0.015909090909090907,
                "end_time": 6.427272727272727,
                "pitch": 45,
                "velocity": 101,
                "duration": 6.411363636363636,
                "tempo": 120.0
            },
            {
                "start_time": 6.5227272727272725,
                "end_time": 13.6,
                "pitch": 43,
                "velocity": 101,
                "duration": 7.077272727272727,
                "tempo": 120.0
            },
            {
                "start_time": 13.668181818181818,
                "end_time": 17.193181818181817,
                "pitch": 41,
                "velocity": 101,
                "duration": 3.5249999999999986,
                "tempo": 120.0
            },
            {
                "start_time": 17.261363636363637,
                "end_time": 20.754545454545454,
                "pitch": 38,
                "velocity": 101,
                "duration": 3.4931818181818173,
                "tempo": 120.0
            },
            {
                "start_time": 20.854545454545452,
                "end_time": 24.325,
                "pitch": 40,
                "velocity": 101,
                "duration": 3.4704545454545475,
                "tempo": 120.0
            },
            {
                "start_time": 24.39090909090909,
                "end_time": 27.920454545454543,
                "pitch": 40,
                "velocity": 101,
                "duration": 3.5295454545454525,
                "tempo": 120.0
            },
            {
                "start_time": 27.988636363636363,
                "end_time": 35.05227272727272,
                "pitch": 45,
                "velocity": 101,
                "duration": 7.063636363636359,
                "tempo": 120.0
            },
            {
                "start_time": 35.11818181818182,
                "end_time": 42.20454545454545,
                "pitch": 44,
                "velocity": 101,
                "duration": 7.086363636363636,
                "tempo": 120.0
            },
            {
                "start_time": 42.304545454545455,
                "end_time": 45.8,
                "pitch": 45,
                "velocity": 101,
                "duration": 3.4954545454545425,
                "tempo": 120.0
            },
            {
                "start_time": 45.86590909090909,
                "end_time": 49.38181818181818,
                "pitch": 38,
                "velocity": 101,
                "duration": 3.5159090909090907,
                "tempo": 120.0
            },
            {
                "start_time": 49.44772727272727,
                "end_time": 52.974999999999994,
                "pitch": 40,
                "velocity": 101,
                "duration": 3.527272727272724,
                "tempo": 120.0
            },
            {
                "start_time": 53.04090909090909,
                "end_time": 56.53636363636363,
                "pitch": 40,
                "velocity": 101,
                "duration": 3.4954545454545425,
                "tempo": 120.0
            },
            {
                "start_time": 56.63409090909091,
                "end_time": 61.668181818181814,
                "pitch": 45,
                "velocity": 101,
                "duration": 5.0340909090909065,
                "tempo": 120.0
            },
            {
                "start_time": 61.699999999999996,
                "end_time": 65.22045454545454,
                "pitch": 43,
                "velocity": 101,
                "duration": 3.520454545454548,
                "tempo": 120.0
            },
            {
                "start_time": 65.25227272727273,
                "end_time": 68.77045454545454,
                "pitch": 41,
                "velocity": 101,
                "duration": 3.518181818181816,
                "tempo": 120.0
            },
            {
                "start_time": 68.81818181818181,
                "end_time": 70.56818181818181,
                "pitch": 36,
                "velocity": 101,
                "duration": 1.75,
                "tempo": 120.0
            },
            {
                "start_time": 70.61818181818181,
                "end_time": 72.35909090909091,
                "pitch": 33,
                "velocity": 101,
                "duration": 1.7409090909090992,
                "tempo": 120.0
            },
            {
                "start_time": 72.39090909090909,
                "end_time": 75.91136363636363,
                "pitch": 26,
                "velocity": 101,
                "duration": 3.520454545454541,
                "tempo": 120.0
            },
            {
                "start_time": 75.96136363636363,
                "end_time": 79.48409090909091,
                "pitch": 33,
                "velocity": 101,
                "duration": 3.5227272727272805,
                "tempo": 120.0
            },
            {
                "start_time": 79.51818181818182,
                "end_time": 83.04545454545455,
                "pitch": 28,
                "velocity": 101,
                "duration": 3.527272727272731,
                "tempo": 120.0
            },
            {
                "start_time": 83.07727272727273,
                "end_time": 86.61590909090908,
                "pitch": 33,
                "velocity": 101,
                "duration": 3.538636363636357,
                "tempo": 120.0
            }
        ],
        "Acoustic Bass": [
            {
                "start_time": 86.64772727272727,
                "end_time": 87.78863636363636,
                "pitch": 26,
                "velocity": 101,
                "duration": 1.1409090909090907,
                "tempo": 120.0
            },
            {
                "start_time": 87.83636363636363,
                "end_time": 88.10454545454544,
                "pitch": 29,
                "velocity": 101,
                "duration": 0.26818181818181586,
                "tempo": 120.0
            },
            {
                "start_time": 88.13863636363637,
                "end_time": 88.38863636363637,
                "pitch": 33,
                "velocity": 101,
                "duration": 0.25,
                "tempo": 120.0
            },
            {
                "start_time": 88.43636363636364,
                "end_time": 89.57499999999999,
                "pitch": 31,
                "velocity": 101,
                "duration": 1.1386363636363512,
                "tempo": 120.0
            },
            {
                "start_time": 89.60909090909091,
                "end_time": 89.86818181818181,
                "pitch": 26,
                "velocity": 101,
                "duration": 0.2590909090909008,
                "tempo": 120.0
            },
            {
                "start_time": 89.91590909090908,
                "end_time": 90.175,
                "pitch": 31,
                "velocity": 101,
                "duration": 0.25909090909091503,
                "tempo": 120.0
            },
            {
                "start_time": 90.2090909090909,
                "end_time": 91.36590909090908,
                "pitch": 24,
                "velocity": 101,
                "duration": 1.1568181818181813,
                "tempo": 120.0
            },
            {
                "start_time": 91.39772727272727,
                "end_time": 91.65681818181818,
                "pitch": 28,
                "velocity": 101,
                "duration": 0.25909090909091503,
                "tempo": 120.0
            },
            {
                "start_time": 91.69090909090909,
                "end_time": 91.95681818181818,
                "pitch": 31,
                "velocity": 101,
                "duration": 0.26590909090909065,
                "tempo": 120.0
            },
            {
                "start_time": 91.98863636363636,
                "end_time": 93.12727272727273,
                "pitch": 33,
                "velocity": 101,
                "duration": 1.1386363636363654,
                "tempo": 120.0
            },
            {
                "start_time": 93.175,
                "end_time": 93.44318181818181,
                "pitch": 28,
                "velocity": 101,
                "duration": 0.26818181818181586,
                "tempo": 120.0
            },
            {
                "start_time": 93.47727272727272,
                "end_time": 93.72727272727272,
                "pitch": 25,
                "velocity": 101,
                "duration": 0.25,
                "tempo": 120.0
            },
            {
                "start_time": 93.77272727272727,
                "end_time": 94.91590909090908,
                "pitch": 26,
                "velocity": 101,
                "duration": 1.1431818181818159,
                "tempo": 120.0
            },
            {
                "start_time": 94.94772727272726,
                "end_time": 95.22272727272727,
                "pitch": 33,
                "velocity": 101,
                "duration": 0.2750000000000057,
                "tempo": 120.0
            },
            {
                "start_time": 95.25454545454545,
                "end_time": 95.51363636363637,
                "pitch": 29,
                "velocity": 101,
                "duration": 0.25909090909091503,
                "tempo": 120.0
            },
            {
                "start_time": 95.54772727272727,
                "end_time": 96.39545454545454,
                "pitch": 31,
                "velocity": 101,
                "duration": 0.8477272727272691,
                "tempo": 120.0
            },
            {
                "start_time": 96.44090909090909,
                "end_time": 96.7090909090909,
                "pitch": 35,
                "velocity": 101,
                "duration": 0.26818181818181586,
                "tempo": 120.0
            },
            {
                "start_time": 96.74318181818181,
                "end_time": 96.99318181818181,
                "pitch": 31,
                "velocity": 101,
                "duration": 0.25,
                "tempo": 120.0
            },
            {
                "start_time": 97.04090909090908,
                "end_time": 97.30681818181817,
                "pitch": 26,
                "velocity": 101,
                "duration": 0.26590909090909065,
                "tempo": 120.0
            },
            {
                "start_time": 97.34090909090908,
                "end_time": 98.48181818181817,
                "pitch": 24,
                "velocity": 101,
                "duration": 1.1409090909090907,
                "tempo": 120.0
            },
            {
                "start_time": 98.51363636363637,
                "end_time": 98.77954545454546,
                "pitch": 31,
                "velocity": 101,
                "duration": 0.26590909090909065,
                "tempo": 120.0
            },
            {
                "start_time": 98.81363636363636,
                "end_time": 99.06363636363636,
                "pitch": 24,
                "velocity": 101,
                "duration": 0.25,
                "tempo": 120.0
            },
            {
                "start_time": 99.11136363636363,
                "end_time": 100.26136363636363,
                "pitch": 33,
                "velocity": 101,
                "duration": 1.1499999999999915,
                "tempo": 120.0
            },
            {
                "start_time": 100.31136363636364,
                "end_time": 100.57045454545454,
                "pitch": 28,
                "velocity": 101,
                "duration": 0.2590909090909008,
                "tempo": 120.0
            },
            {
                "start_time": 100.60227272727272,
                "end_time": 100.85227272727272,
                "pitch": 25,
                "velocity": 101,
                "duration": 0.25,
                "tempo": 120.0
            },
            {
                "start_time": 100.8840909090909,
                "end_time": 102.04090909090908,
                "pitch": 26,
                "velocity": 101,
                "duration": 1.1568181818181813,
                "tempo": 120.0
            },
            {
                "start_time": 102.07499999999999,
                "end_time": 102.3340909090909,
                "pitch": 29,
                "velocity": 101,
                "duration": 0.25909090909091503,
                "tempo": 120.0
            },
            {
                "start_time": 102.38181818181818,
                "end_time": 102.64999999999999,
                "pitch": 33,
                "velocity": 101,
                "duration": 0.26818181818181586,
                "tempo": 120.0
            },
            {
                "start_time": 102.6840909090909,
                "end_time": 103.84090909090908,
                "pitch": 31,
                "velocity": 101,
                "duration": 1.1568181818181813,
                "tempo": 120.0
            },
            {
                "start_time": 103.87272727272726,
                "end_time": 104.13181818181818,
                "pitch": 26,
                "velocity": 101,
                "duration": 0.25909090909091503,
                "tempo": 120.0
            },
            {
                "start_time": 104.16590909090908,
                "end_time": 104.43181818181817,
                "pitch": 31,
                "velocity": 101,
                "duration": 0.26590909090909065,
                "tempo": 120.0
            },
            {
                "start_time": 104.46363636363635,
                "end_time": 105.60681818181817,
                "pitch": 28,
                "velocity": 101,
                "duration": 1.1431818181818159,
                "tempo": 120.0
            },
            {
                "start_time": 105.65454545454546,
                "end_time": 105.92045454545455,
                "pitch": 31,
                "velocity": 101,
                "duration": 0.26590909090909065,
                "tempo": 120.0
            },
            {
                "start_time": 105.95454545454545,
                "end_time": 106.20454545454545,
                "pitch": 35,
                "velocity": 101,
                "duration": 0.25,
                "tempo": 120.0
            },
            {
                "start_time": 106.25227272727273,
                "end_time": 107.38863636363637,
                "pitch": 33,
                "velocity": 101,
                "duration": 1.1363636363636402,
                "tempo": 120.0
            },
            {
                "start_time": 107.42272727272727,
                "end_time": 107.68863636363636,
                "pitch": 28,
                "velocity": 101,
                "duration": 0.26590909090909065,
                "tempo": 120.0
            },
            {
                "start_time": 107.72045454545454,
                "end_time": 107.98863636363636,
                "pitch": 24,
                "velocity": 101,
                "duration": 0.26818181818181586,
                "tempo": 120.0
            },
            {
                "start_time": 108.02272727272727,
                "end_time": 109.17954545454545,
                "pitch": 26,
                "velocity": 101,
                "duration": 1.1568181818181813,
                "tempo": 120.0
            },
            {
                "start_time": 109.21363636363635,
                "end_time": 109.47272727272727,
                "pitch": 33,
                "velocity": 101,
                "duration": 0.25909090909091503,
                "tempo": 120.0
            },
            {
                "start_time": 109.52045454545454,
                "end_time": 109.77954545454546,
                "pitch": 29,
                "velocity": 101,
                "duration": 0.25909090909091503,
                "tempo": 120.0
            },
            {
                "start_time": 109.81363636363636,
                "end_time": 110.06363636363636,
                "pitch": 23,
                "velocity": 101,
                "duration": 0.25,
                "tempo": 120.0
            },
            {
                "start_time": 110.09545454545454,
                "end_time": 110.36136363636363,
                "pitch": 26,
                "velocity": 101,
                "duration": 0.26590909090909065,
                "tempo": 120.0
            },
            {
                "start_time": 110.39318181818182,
                "end_time": 110.64999999999999,
                "pitch": 29,
                "velocity": 101,
                "duration": 0.2568181818181756,
                "tempo": 120.0
            },
            {
                "start_time": 110.6840909090909,
                "end_time": 110.94318181818181,
                "pitch": 33,
                "velocity": 101,
                "duration": 0.25909090909091503,
                "tempo": 120.0
            },
            {
                "start_time": 110.99318181818181,
                "end_time": 111.25,
                "pitch": 29,
                "velocity": 101,
                "duration": 0.25681818181818983,
                "tempo": 120.0
            },
            {
                "start_time": 111.2840909090909,
                "end_time": 111.54318181818181,
                "pitch": 33,
                "velocity": 101,
                "duration": 0.2590909090909008,
                "tempo": 120.0
            },
            {
                "start_time": 111.59318181818182,
                "end_time": 112.44999999999999,
                "pitch": 28,
                "velocity": 101,
                "duration": 0.8568181818181699,
                "tempo": 120.0
            },
            {
                "start_time": 112.48409090909091,
                "end_time": 112.73409090909091,
                "pitch": 32,
                "velocity": 101,
                "duration": 0.25,
                "tempo": 120.0
            },
            {
                "start_time": 112.76590909090909,
                "end_time": 113.03181818181818,
                "pitch": 35,
                "velocity": 101,
                "duration": 0.26590909090909065,
                "tempo": 120.0
            },
            {
                "start_time": 113.06363636363636,
                "end_time": 113.32272727272726,
                "pitch": 38,
                "velocity": 101,
                "duration": 0.2590909090909008,
                "tempo": 120.0
            },
            {
                "start_time": 113.35454545454544,
                "end_time": 115.11818181818181,
                "pitch": 40,
                "velocity": 101,
                "duration": 1.7636363636363654,
                "tempo": 120.0
            },
            {
                "start_time": 115.15227272727272,
                "end_time": 116.30227272727272,
                "pitch": 38,
                "velocity": 101,
                "duration": 1.1500000000000057,
                "tempo": 120.0
            },
            {
                "start_time": 116.3340909090909,
                "end_time": 116.59318181818182,
                "pitch": 41,
                "velocity": 101,
                "duration": 0.25909090909091503,
                "tempo": 120.0
            },
            {
                "start_time": 116.625,
                "end_time": 116.8840909090909,
                "pitch": 45,
                "velocity": 101,
                "duration": 0.2590909090909008,
                "tempo": 120.0
            },
            {
                "start_time": 116.9340909090909,
                "end_time": 118.07499999999999,
                "pitch": 43,
                "velocity": 101,
                "duration": 1.1409090909090907,
                "tempo": 120.0
            },
            {
                "start_time": 118.12045454545454,
                "end_time": 118.38863636363635,
                "pitch": 38,
                "velocity": 101,
                "duration": 0.26818181818181586,
                "tempo": 120.0
            },
            {
                "start_time": 118.42272727272727,
                "end_time": 118.67272727272727,
                "pitch": 43,
                "velocity": 101,
                "duration": 0.25,
                "tempo": 120.0
            },
            {
                "start_time": 118.70454545454545,
                "end_time": 119.86136363636363,
                "pitch": 36,
                "velocity": 101,
                "duration": 1.1568181818181813,
                "tempo": 120.0
            },
            {
                "start_time": 119.89545454545454,
                "end_time": 120.15454545454544,
                "pitch": 40,
                "velocity": 101,
                "duration": 0.2590909090909008,
                "tempo": 120.0
            },
            {
                "start_time": 120.20227272727273,
                "end_time": 120.46136363636363,
                "pitch": 43,
                "velocity": 101,
                "duration": 0.2590909090909008,
                "tempo": 120.0
            },
            {
                "start_time": 120.49545454545454,
                "end_time": 121.65227272727272,
                "pitch": 45,
                "velocity": 101,
                "duration": 1.1568181818181813,
                "tempo": 120.0
            },
            {
                "start_time": 121.6840909090909,
                "end_time": 121.94318181818181,
                "pitch": 40,
                "velocity": 101,
                "duration": 0.25909090909091503,
                "tempo": 120.0
            },
            {
                "start_time": 121.975,
                "end_time": 122.24318181818181,
                "pitch": 36,
                "velocity": 101,
                "duration": 0.26818181818181586,
                "tempo": 120.0
            },
            {
                "start_time": 122.27499999999999,
                "end_time": 123.41590909090908,
                "pitch": 38,
                "velocity": 101,
                "duration": 1.1409090909090907,
                "tempo": 120.0
            },
            {
                "start_time": 123.46363636363635,
                "end_time": 123.72954545454544,
                "pitch": 45,
                "velocity": 101,
                "duration": 0.26590909090909065,
                "tempo": 120.0
            },
            {
                "start_time": 123.76363636363635,
                "end_time": 124.01590909090909,
                "pitch": 41,
                "velocity": 101,
                "duration": 0.2522727272727394,
                "tempo": 120.0
            },
            {
                "start_time": 124.06363636363636,
                "end_time": 124.91136363636363,
                "pitch": 43,
                "velocity": 101,
                "duration": 0.8477272727272691,
                "tempo": 120.0
            },
            {
                "start_time": 124.94318181818181,
                "end_time": 125.20227272727273,
                "pitch": 47,
                "velocity": 101,
                "duration": 0.25909090909091503,
                "tempo": 120.0
            },
            {
                "start_time": 125.23636363636363,
                "end_time": 125.51136363636363,
                "pitch": 43,
                "velocity": 101,
                "duration": 0.2749999999999915,
                "tempo": 120.0
            },
            {
                "start_time": 125.54318181818181,
                "end_time": 125.80227272727272,
                "pitch": 38,
                "velocity": 101,
                "duration": 0.25909090909091503,
                "tempo": 120.0
            },
            {
                "start_time": 125.83636363636363,
                "end_time": 126.99318181818181,
                "pitch": 36,
                "velocity": 101,
                "duration": 1.1568181818181813,
                "tempo": 120.0
            },
            {
                "start_time": 127.02727272727272,
                "end_time": 127.28636363636363,
                "pitch": 43,
                "velocity": 101,
                "duration": 0.25909090909091503,
                "tempo": 120.0
            },
            {
                "start_time": 127.3340909090909,
                "end_time": 127.59318181818182,
                "pitch": 36,
                "velocity": 101,
                "duration": 0.25909090909091503,
                "tempo": 120.0
            },
            {
                "start_time": 127.62727272727273,
                "end_time": 128.75681818181818,
                "pitch": 45,
                "velocity": 101,
                "duration": 1.1295454545454504,
                "tempo": 120.0
            },
            {
                "start_time": 128.80454545454546,
                "end_time": 129.07045454545454,
                "pitch": 40,
                "velocity": 101,
                "duration": 0.26590909090907644,
                "tempo": 120.0
            },
            {
                "start_time": 129.10454545454544,
                "end_time": 129.35681818181817,
                "pitch": 37,
                "velocity": 101,
                "duration": 0.2522727272727252,
                "tempo": 120.0
            },
            {
                "start_time": 129.40454545454546,
                "end_time": 130.54545454545453,
                "pitch": 38,
                "velocity": 101,
                "duration": 1.1409090909090764,
                "tempo": 120.0
            },
            {
                "start_time": 130.5772727272727,
                "end_time": 130.85227272727272,
                "pitch": 41,
                "velocity": 101,
                "duration": 0.2750000000000057,
                "tempo": 120.0
            },
            {
                "start_time": 130.88636363636363,
                "end_time": 131.1431818181818,
                "pitch": 45,
                "velocity": 101,
                "duration": 0.2568181818181756,
                "tempo": 120.0
            },
            {
                "start_time": 131.1772727272727,
                "end_time": 132.33181818181816,
                "pitch": 43,
                "velocity": 101,
                "duration": 1.154545454545456,
                "tempo": 120.0
            },
            {
                "start_time": 132.36590909090907,
                "end_time": 132.62272727272727,
                "pitch": 38,
                "velocity": 101,
                "duration": 0.25681818181820404,
                "tempo": 120.0
            },
            {
                "start_time": 132.67272727272726,
                "end_time": 132.9318181818182,
                "pitch": 43,
                "velocity": 101,
                "duration": 0.25909090909092924,
                "tempo": 120.0
            },
            {
                "start_time": 132.9659090909091,
                "end_time": 134.11136363636362,
                "pitch": 36,
                "velocity": 101,
                "duration": 1.1454545454545269,
                "tempo": 120.0
            },
            {
                "start_time": 134.1431818181818,
                "end_time": 134.40227272727273,
                "pitch": 40,
                "velocity": 101,
                "duration": 0.25909090909092924,
                "tempo": 120.0
            },
            {
                "start_time": 134.43636363636364,
                "end_time": 134.69545454545454,
                "pitch": 43,
                "velocity": 101,
                "duration": 0.2590909090909008,
                "tempo": 120.0
            },
            {
                "start_time": 134.74318181818182,
                "end_time": 135.88636363636363,
                "pitch": 45,
                "velocity": 101,
                "duration": 1.1431818181818016,
                "tempo": 120.0
            },
            {
                "start_time": 135.9340909090909,
                "end_time": 136.2,
                "pitch": 40,
                "velocity": 101,
                "duration": 0.26590909090907644,
                "tempo": 120.0
            },
            {
                "start_time": 136.2340909090909,
                "end_time": 136.48636363636362,
                "pitch": 36,
                "velocity": 101,
                "duration": 0.2522727272727252,
                "tempo": 120.0
            },
            {
                "start_time": 136.5340909090909,
                "end_time": 137.67272727272726,
                "pitch": 38,
                "velocity": 101,
                "duration": 1.1386363636363512,
                "tempo": 120.0
            },
            {
                "start_time": 137.70454545454544,
                "end_time": 137.96363636363637,
                "pitch": 45,
                "velocity": 101,
                "duration": 0.25909090909092924,
                "tempo": 120.0
            },
            {
                "start_time": 138.01363636363635,
                "end_time": 138.27272727272725,
                "pitch": 41,
                "velocity": 101,
                "duration": 0.2590909090909008,
                "tempo": 120.0
            },
            {
                "start_time": 138.30454545454546,
                "end_time": 139.15227272727273,
                "pitch": 40,
                "velocity": 101,
                "duration": 0.8477272727272691,
                "tempo": 120.0
            },
            {
                "start_time": 139.2,
                "end_time": 139.46818181818182,
                "pitch": 47,
                "velocity": 101,
                "duration": 0.26818181818183007,
                "tempo": 120.0
            },
            {
                "start_time": 139.50227272727273,
                "end_time": 139.75227272727273,
                "pitch": 44,
                "velocity": 101,
                "duration": 0.25,
                "tempo": 120.0
            },
            {
                "start_time": 139.78636363636363,
                "end_time": 140.04999999999998,
                "pitch": 40,
                "velocity": 101,
                "duration": 0.26363636363635123,
                "tempo": 120.0
            },
            {
                "start_time": 140.08181818181816,
                "end_time": 141.225,
                "pitch": 45,
                "velocity": 101,
                "duration": 1.14318181818183,
                "tempo": 120.0
            },
            {
                "start_time": 141.27272727272725,
                "end_time": 141.53863636363636,
                "pitch": 40,
                "velocity": 101,
                "duration": 0.26590909090910486,
                "tempo": 120.0
            },
            {
                "start_time": 141.57272727272726,
                "end_time": 141.82272727272726,
                "pitch": 36,
                "velocity": 101,
                "duration": 0.25,
                "tempo": 120.0
            },
            {
                "start_time": 141.87045454545455,
                "end_time": 143.01136363636363,
                "pitch": 45,
                "velocity": 101,
                "duration": 1.1409090909090764,
                "tempo": 120.0
            },
            {
                "start_time": 143.0431818181818,
                "end_time": 143.3181818181818,
                "pitch": 40,
                "velocity": 101,
                "duration": 0.2750000000000057,
                "tempo": 120.0
            },
            {
                "start_time": 143.35,
                "end_time": 143.6090909090909,
                "pitch": 37,
                "velocity": 101,
                "duration": 0.2590909090909008,
                "tempo": 120.0
            },
            {
                "start_time": 143.64090909090908,
                "end_time": 144.8068181818182,
                "pitch": 38,
                "velocity": 101,
                "duration": 1.1659090909091105,
                "tempo": 120.0
            },
            {
                "start_time": 144.8409090909091,
                "end_time": 145.0909090909091,
                "pitch": 38,
                "velocity": 101,
                "duration": 0.25,
                "tempo": 120.0
            },
            {
                "start_time": 145.13863636363635,
                "end_time": 145.40454545454546,
                "pitch": 38,
                "velocity": 101,
                "duration": 0.26590909090910486,
                "tempo": 120.0
            },
            {
                "start_time": 145.43863636363636,
                "end_time": 146.575,
                "pitch": 43,
                "velocity": 101,
                "duration": 1.136363636363626,
                "tempo": 120.0
            },
            {
                "start_time": 146.60681818181817,
                "end_time": 146.875,
                "pitch": 43,
                "velocity": 101,
                "duration": 0.26818181818183007,
                "tempo": 120.0
            },
            {
                "start_time": 146.90681818181818,
                "end_time": 147.1590909090909,
                "pitch": 43,
                "velocity": 101,
                "duration": 0.2522727272727252,
                "tempo": 120.0
            },
            {
                "start_time": 147.20681818181816,
                "end_time": 148.35681818181817,
                "pitch": 36,
                "velocity": 101,
                "duration": 1.1500000000000057,
                "tempo": 120.0
            },
            {
                "start_time": 148.40454545454546,
                "end_time": 148.67045454545453,
                "pitch": 36,
                "velocity": 101,
                "duration": 0.26590909090907644,
                "tempo": 120.0
            },
            {
                "start_time": 148.70454545454544,
                "end_time": 148.95454545454544,
                "pitch": 36,
                "velocity": 101,
                "duration": 0.25,
                "tempo": 120.0
            },
            {
                "start_time": 148.98636363636362,
                "end_time": 150.13181818181818,
                "pitch": 45,
                "velocity": 101,
                "duration": 1.1454545454545553,
                "tempo": 120.0
            },
            {
                "start_time": 150.16590909090908,
                "end_time": 150.42499999999998,
                "pitch": 45,
                "velocity": 101,
                "duration": 0.2590909090909008,
                "tempo": 120.0
            },
            {
                "start_time": 150.47272727272727,
                "end_time": 150.74090909090907,
                "pitch": 45,
                "velocity": 101,
                "duration": 0.26818181818180165,
                "tempo": 120.0
            },
            {
                "start_time": 150.775,
                "end_time": 151.91363636363636,
                "pitch": 38,
                "velocity": 101,
                "duration": 1.1386363636363512,
                "tempo": 120.0
            },
            {
                "start_time": 151.94545454545454,
                "end_time": 152.21136363636364,
                "pitch": 38,
                "velocity": 101,
                "duration": 0.26590909090910486,
                "tempo": 120.0
            },
            {
                "start_time": 152.24545454545455,
                "end_time": 152.51136363636363,
                "pitch": 38,
                "velocity": 101,
                "duration": 0.26590909090907644,
                "tempo": 120.0
            },
            {
                "start_time": 152.83636363636364,
                "end_time": 153.09318181818182,
                "pitch": 38,
                "velocity": 64,
                "duration": 0.2568181818181756,
                "tempo": 120.0
            },
            {
                "start_time": 153.1431818181818,
                "end_time": 153.40227272727273,
                "pitch": 38,
                "velocity": 64,
                "duration": 0.25909090909092924,
                "tempo": 120.0
            },
            {
                "start_time": 153.43636363636364,
                "end_time": 153.69545454545454,
                "pitch": 38,
                "velocity": 80,
                "duration": 0.2590909090909008,
                "tempo": 120.0
            },
            {
                "start_time": 153.74318181818182,
                "end_time": 154.00227272727273,
                "pitch": 38,
                "velocity": 80,
                "duration": 0.2590909090909008,
                "tempo": 120.0
            },
            {
                "start_time": 154.03636363636363,
                "end_time": 154.2931818181818,
                "pitch": 38,
                "velocity": 101,
                "duration": 0.2568181818181756,
                "tempo": 120.0
            },
            {
                "start_time": 154.34318181818182,
                "end_time": 155.48181818181817,
                "pitch": 40,
                "velocity": 101,
                "duration": 1.1386363636363512,
                "tempo": 120.0
            },
            {
                "start_time": 155.51590909090908,
                "end_time": 155.7681818181818,
                "pitch": 40,
                "velocity": 101,
                "duration": 0.2522727272727252,
                "tempo": 120.0
            },
            {
                "start_time": 155.8159090909091,
                "end_time": 156.075,
                "pitch": 40,
                "velocity": 101,
                "duration": 0.2590909090909008,
                "tempo": 120.0
            },
            {
                "start_time": 156.41590909090908,
                "end_time": 156.67499999999998,
                "pitch": 40,
                "velocity": 64,
                "duration": 0.2590909090909008,
                "tempo": 120.0
            },
            {
                "start_time": 156.70681818181816,
                "end_time": 156.9659090909091,
                "pitch": 40,
                "velocity": 64,
                "duration": 0.25909090909092924,
                "tempo": 120.0
            },
            {
                "start_time": 157.01590909090908,
                "end_time": 157.275,
                "pitch": 40,
                "velocity": 80,
                "duration": 0.25909090909092924,
                "tempo": 120.0
            },
            {
                "start_time": 157.3068181818182,
                "end_time": 157.5590909090909,
                "pitch": 40,
                "velocity": 80,
                "duration": 0.2522727272727252,
                "tempo": 120.0
            },
            {
                "start_time": 157.5909090909091,
                "end_time": 157.86590909090907,
                "pitch": 40,
                "velocity": 101,
                "duration": 0.27499999999997726,
                "tempo": 120.0
            },
            {
                "start_time": 157.89772727272725,
                "end_time": 159.02954545454546,
                "pitch": 38,
                "velocity": 101,
                "duration": 1.131818181818204,
                "tempo": 120.0
            },
            {
                "start_time": 159.0772727272727,
                "end_time": 159.34545454545454,
                "pitch": 38,
                "velocity": 101,
                "duration": 0.26818181818183007,
                "tempo": 120.0
            },
            {
                "start_time": 159.37954545454545,
                "end_time": 159.62954545454545,
                "pitch": 38,
                "velocity": 101,
                "duration": 0.25,
                "tempo": 120.0
            },
            {
                "start_time": 159.97954545454544,
                "end_time": 160.22954545454544,
                "pitch": 38,
                "velocity": 64,
                "duration": 0.25,
                "tempo": 120.0
            },
            {
                "start_time": 160.27727272727273,
                "end_time": 160.5431818181818,
                "pitch": 38,
                "velocity": 64,
                "duration": 0.26590909090907644,
                "tempo": 120.0
            },
            {
                "start_time": 160.5772727272727,
                "end_time": 160.8272727272727,
                "pitch": 38,
                "velocity": 80,
                "duration": 0.25,
                "tempo": 120.0
            },
            {
                "start_time": 160.8590909090909,
                "end_time": 161.12727272727273,
                "pitch": 38,
                "velocity": 80,
                "duration": 0.26818181818183007,
                "tempo": 120.0
            },
            {
                "start_time": 161.1590909090909,
                "end_time": 161.42499999999998,
                "pitch": 38,
                "velocity": 101,
                "duration": 0.26590909090907644,
                "tempo": 120.0
            },
            {
                "start_time": 161.4590909090909,
                "end_time": 162.61818181818182,
                "pitch": 40,
                "velocity": 101,
                "duration": 1.159090909090935,
                "tempo": 120.0
            },
            {
                "start_time": 162.65,
                "end_time": 162.9090909090909,
                "pitch": 40,
                "velocity": 101,
                "duration": 0.2590909090909008,
                "tempo": 120.0
            },
            {
                "start_time": 162.9590909090909,
                "end_time": 163.21818181818182,
                "pitch": 40,
                "velocity": 101,
                "duration": 0.25909090909092924,
                "tempo": 120.0
            },
            {
                "start_time": 163.5340909090909,
                "end_time": 163.79999999999998,
                "pitch": 40,
                "velocity": 64,
                "duration": 0.26590909090907644,
                "tempo": 120.0
            },
            {
                "start_time": 163.83181818181816,
                "end_time": 164.0909090909091,
                "pitch": 40,
                "velocity": 64,
                "duration": 0.25909090909092924,
                "tempo": 120.0
            },
            {
                "start_time": 164.125,
                "end_time": 164.4,
                "pitch": 40,
                "velocity": 80,
                "duration": 0.2750000000000057,
                "tempo": 120.0
            },
            {
                "start_time": 164.4318181818182,
                "end_time": 164.6909090909091,
                "pitch": 40,
                "velocity": 80,
                "duration": 0.2590909090909008,
                "tempo": 120.0
            },
            {
                "start_time": 164.725,
                "end_time": 164.9840909090909,
                "pitch": 40,
                "velocity": 101,
                "duration": 0.2590909090909008,
                "tempo": 120.0
            },
            {
                "start_time": 165.03181818181818,
                "end_time": 165.29090909090908,
                "pitch": 45,
                "velocity": 101,
                "duration": 0.2590909090909008,
                "tempo": 120.0
            },
            {
                "start_time": 165.32272727272726,
                "end_time": 165.575,
                "pitch": 45,
                "velocity": 101,
                "duration": 0.2522727272727252,
                "tempo": 120.0
            },
            {
                "start_time": 165.62272727272727,
                "end_time": 165.89090909090908,
                "pitch": 45,
                "velocity": 101,
                "duration": 0.26818181818180165,
                "tempo": 120.0
            },
            {
                "start_time": 165.92499999999998,
                "end_time": 166.17499999999998,
                "pitch": 45,
                "velocity": 101,
                "duration": 0.25,
                "tempo": 120.0
            },
            {
                "start_time": 166.22272727272727,
                "end_time": 166.48863636363635,
                "pitch": 45,
                "velocity": 101,
                "duration": 0.26590909090907644,
                "tempo": 120.0
            },
            {
                "start_time": 166.525,
                "end_time": 166.775,
                "pitch": 45,
                "velocity": 101,
                "duration": 0.25,
                "tempo": 120.0
            },
            {
                "start_time": 166.8068181818182,
                "end_time": 167.07954545454544,
                "pitch": 43,
                "velocity": 101,
                "duration": 0.27272727272725206,
                "tempo": 120.0
            },
            {
                "start_time": 167.11363636363635,
                "end_time": 167.38863636363635,
                "pitch": 43,
                "velocity": 101,
                "duration": 0.2750000000000057,
                "tempo": 120.0
            },
            {
                "start_time": 167.42045454545453,
                "end_time": 167.67954545454543,
                "pitch": 43,
                "velocity": 101,
                "duration": 0.2590909090909008,
                "tempo": 120.0
            },
            {
                "start_time": 167.72954545454544,
                "end_time": 167.99772727272727,
                "pitch": 43,
                "velocity": 101,
                "duration": 0.26818181818183007,
                "tempo": 120.0
            },
            {
                "start_time": 168.04772727272726,
                "end_time": 168.3068181818182,
                "pitch": 43,
                "velocity": 101,
                "duration": 0.25909090909092924,
                "tempo": 120.0
            },
            {
                "start_time": 168.33863636363637,
                "end_time": 168.61363636363635,
                "pitch": 43,
                "velocity": 101,
                "duration": 0.27499999999997726,
                "tempo": 120.0
            },
            {
                "start_time": 168.64772727272725,
                "end_time": 168.9318181818182,
                "pitch": 42,
                "velocity": 101,
                "duration": 0.28409090909093493,
                "tempo": 120.0
            },
            {
                "start_time": 168.98181818181817,
                "end_time": 169.275,
                "pitch": 42,
                "velocity": 101,
                "duration": 0.29318181818183575,
                "tempo": 120.0
            },
            {
                "start_time": 169.3090909090909,
                "end_time": 169.59318181818182,
                "pitch": 42,
                "velocity": 101,
                "duration": 0.2840909090909065,
                "tempo": 120.0
            },
            {
                "start_time": 169.64545454545453,
                "end_time": 169.93863636363636,
                "pitch": 42,
                "velocity": 101,
                "duration": 0.29318181818183575,
                "tempo": 120.0
            },
            {
                "start_time": 169.97272727272727,
                "end_time": 170.25681818181818,
                "pitch": 42,
                "velocity": 101,
                "duration": 0.2840909090909065,
                "tempo": 120.0
            },
            {
                "start_time": 170.3090909090909,
                "end_time": 170.60227272727272,
                "pitch": 42,
                "velocity": 101,
                "duration": 0.29318181818180733,
                "tempo": 120.0
            },
            {
                "start_time": 170.63636363636363,
                "end_time": 170.93636363636364,
                "pitch": 41,
                "velocity": 101,
                "duration": 0.30000000000001137,
                "tempo": 120.0
            },
            {
                "start_time": 170.97045454545454,
                "end_time": 171.28181818181818,
                "pitch": 41,
                "velocity": 101,
                "duration": 0.3113636363636374,
                "tempo": 120.0
            },
            {
                "start_time": 171.3340909090909,
                "end_time": 171.64545454545453,
                "pitch": 41,
                "velocity": 101,
                "duration": 0.3113636363636374,
                "tempo": 120.0
            },
            {
                "start_time": 171.7,
                "end_time": 172.02045454545453,
                "pitch": 41,
                "velocity": 101,
                "duration": 0.3204545454545382,
                "tempo": 120.0
            },
            {
                "start_time": 172.0568181818182,
                "end_time": 172.3681818181818,
                "pitch": 41,
                "velocity": 101,
                "duration": 0.311363636363609,
                "tempo": 120.0
            },
            {
                "start_time": 172.42045454545453,
                "end_time": 172.72954545454544,
                "pitch": 41,
                "velocity": 101,
                "duration": 0.3090909090909122,
                "tempo": 120.0
            },
            {
                "start_time": 172.78636363636363,
                "end_time": 175.79999999999998,
                "pitch": 45,
                "velocity": 101,
                "duration": 3.0136363636363512,
                "tempo": 120.0
            },
            {
                "start_time": 177.95,
                "end_time": 179.42045454545453,
                "pitch": 38,
                "velocity": 101,
                "duration": 1.470454545454544,
                "tempo": 120.0
            }
        ],
        "Violin": [
            {
                "start_time": 0.01818181818181818,
                "end_time": 6.427272727272727,
                "pitch": 57,
                "velocity": 64,
                "duration": 6.409090909090908,
                "tempo": 120.0
            },
            {
                "start_time": 6.5249999999999995,
                "end_time": 13.602272727272727,
                "pitch": 55,
                "velocity": 64,
                "duration": 7.077272727272727,
                "tempo": 120.0
            },
            {
                "start_time": 13.668181818181818,
                "end_time": 20.75681818181818,
                "pitch": 57,
                "velocity": 64,
                "duration": 7.088636363636361,
                "tempo": 120.0
            },
            {
                "start_time": 20.85681818181818,
                "end_time": 27.920454545454543,
                "pitch": 56,
                "velocity": 64,
                "duration": 7.063636363636363,
                "tempo": 120.0
            },
            {
                "start_time": 27.988636363636363,
                "end_time": 35.05227272727272,
                "pitch": 57,
                "velocity": 64,
                "duration": 7.063636363636359,
                "tempo": 120.0
            },
            {
                "start_time": 35.11818181818182,
                "end_time": 42.20681818181818,
                "pitch": 56,
                "velocity": 64,
                "duration": 7.088636363636361,
                "tempo": 120.0
            },
            {
                "start_time": 42.30681818181818,
                "end_time": 49.38181818181818,
                "pitch": 57,
                "velocity": 64,
                "duration": 7.075000000000003,
                "tempo": 120.0
            },
            {
                "start_time": 49.449999999999996,
                "end_time": 52.974999999999994,
                "pitch": 57,
                "velocity": 64,
                "duration": 3.5249999999999986,
                "tempo": 120.0
            },
            {
                "start_time": 53.043181818181814,
                "end_time": 56.53636363636363,
                "pitch": 56,
                "velocity": 64,
                "duration": 3.4931818181818173,
                "tempo": 120.0
            },
            {
                "start_time": 56.63636363636363,
                "end_time": 61.668181818181814,
                "pitch": 52,
                "velocity": 64,
                "duration": 5.031818181818181,
                "tempo": 120.0
            },
            {
                "start_time": 61.70227272727272,
                "end_time": 65.22045454545454,
                "pitch": 52,
                "velocity": 64,
                "duration": 3.518181818181823,
                "tempo": 120.0
            },
            {
                "start_time": 65.25454545454545,
                "end_time": 68.77045454545454,
                "pitch": 48,
                "velocity": 64,
                "duration": 3.5159090909090907,
                "tempo": 120.0
            },
            {
                "start_time": 68.82045454545454,
                "end_time": 70.57045454545454,
                "pitch": 52,
                "velocity": 64,
                "duration": 1.75,
                "tempo": 120.0
            },
            {
                "start_time": 70.62045454545454,
                "end_time": 72.35909090909091,
                "pitch": 49,
                "velocity": 64,
                "duration": 1.738636363636374,
                "tempo": 120.0
            },
            {
                "start_time": 72.39318181818182,
                "end_time": 75.91136363636363,
                "pitch": 50,
                "velocity": 64,
                "duration": 3.518181818181816,
                "tempo": 120.0
            },
            {
                "start_time": 75.96136363636363,
                "end_time": 79.48636363636363,
                "pitch": 52,
                "velocity": 64,
                "duration": 3.5250000000000057,
                "tempo": 120.0
            },
            {
                "start_time": 79.51818181818182,
                "end_time": 81.2590909090909,
                "pitch": 52,
                "velocity": 64,
                "duration": 1.740909090909085,
                "tempo": 120.0
            },
            {
                "start_time": 81.30681818181817,
                "end_time": 83.04545454545455,
                "pitch": 50,
                "velocity": 64,
                "duration": 1.738636363636374,
                "tempo": 120.0
            },
            {
                "start_time": 83.07954545454545,
                "end_time": 86.61590909090908,
                "pitch": 52,
                "velocity": 64,
                "duration": 3.5363636363636317,
                "tempo": 120.0
            },
            {
                "start_time": 177.9522727272727,
                "end_time": 178.41590909090908,
                "pitch": 53,
                "velocity": 101,
                "duration": 0.4636363636363683,
                "tempo": 120.0
            }
        ],
        "Flute": [
            {
                "start_time": 86.64999999999999,
                "end_time": 88.38863636363637,
                "pitch": 62,
                "velocity": 80,
                "duration": 1.738636363636374,
                "tempo": 120.0
            },
            {
                "start_time": 88.43636363636364,
                "end_time": 90.17727272727272,
                "pitch": 67,
                "velocity": 80,
                "duration": 1.740909090909085,
                "tempo": 120.0
            },
            {
                "start_time": 90.2090909090909,
                "end_time": 91.95681818181818,
                "pitch": 60,
                "velocity": 80,
                "duration": 1.7477272727272748,
                "tempo": 120.0
            },
            {
                "start_time": 91.98863636363636,
                "end_time": 93.72727272727272,
                "pitch": 57,
                "velocity": 80,
                "duration": 1.7386363636363598,
                "tempo": 120.0
            },
            {
                "start_time": 93.77499999999999,
                "end_time": 95.51363636363637,
                "pitch": 62,
                "velocity": 80,
                "duration": 1.738636363636374,
                "tempo": 120.0
            },
            {
                "start_time": 95.54772727272727,
                "end_time": 97.3090909090909,
                "pitch": 67,
                "velocity": 80,
                "duration": 1.761363636363626,
                "tempo": 120.0
            },
            {
                "start_time": 97.34318181818182,
                "end_time": 99.06590909090909,
                "pitch": 60,
                "velocity": 80,
                "duration": 1.722727272727269,
                "tempo": 120.0
            },
            {
                "start_time": 99.11363636363636,
                "end_time": 100.85227272727272,
                "pitch": 57,
                "velocity": 80,
                "duration": 1.7386363636363598,
                "tempo": 120.0
            },
            {
                "start_time": 100.88636363636363,
                "end_time": 102.64999999999999,
                "pitch": 62,
                "velocity": 80,
                "duration": 1.7636363636363654,
                "tempo": 120.0
            },
            {
                "start_time": 102.6840909090909,
                "end_time": 104.43181818181817,
                "pitch": 67,
                "velocity": 80,
                "duration": 1.7477272727272748,
                "tempo": 120.0
            },
            {
                "start_time": 104.46590909090908,
                "end_time": 106.20454545454545,
                "pitch": 60,
                "velocity": 80,
                "duration": 1.738636363636374,
                "tempo": 120.0
            },
            {
                "start_time": 106.25227272727273,
                "end_time": 107.98863636363636,
                "pitch": 57,
                "velocity": 80,
                "duration": 1.7363636363636346,
                "tempo": 120.0
            },
            {
                "start_time": 108.02272727272727,
                "end_time": 109.77954545454546,
                "pitch": 62,
                "velocity": 80,
                "duration": 1.7568181818181898,
                "tempo": 120.0
            },
            {
                "start_time": 109.81363636363636,
                "end_time": 111.54318181818181,
                "pitch": 59,
                "velocity": 80,
                "duration": 1.7295454545454447,
                "tempo": 120.0
            },
            {
                "start_time": 111.59318181818182,
                "end_time": 113.32272727272726,
                "pitch": 64,
                "velocity": 80,
                "duration": 1.7295454545454447,
                "tempo": 120.0
            },
            {
                "start_time": 113.35681818181817,
                "end_time": 115.12045454545454,
                "pitch": 64,
                "velocity": 80,
                "duration": 1.7636363636363654,
                "tempo": 120.0
            },
            {
                "start_time": 115.15454545454544,
                "end_time": 116.8840909090909,
                "pitch": 62,
                "velocity": 80,
                "duration": 1.729545454545459,
                "tempo": 120.0
            },
            {
                "start_time": 116.9340909090909,
                "end_time": 118.67272727272727,
                "pitch": 67,
                "velocity": 80,
                "duration": 1.738636363636374,
                "tempo": 120.0
            },
            {
                "start_time": 118.70454545454545,
                "end_time": 120.46136363636363,
                "pitch": 60,
                "velocity": 80,
                "duration": 1.7568181818181756,
                "tempo": 120.0
            },
            {
                "start_time": 120.49545454545454,
                "end_time": 122.24318181818181,
                "pitch": 57,
                "velocity": 80,
                "duration": 1.7477272727272748,
                "tempo": 120.0
            },
            {
                "start_time": 122.27499999999999,
                "end_time": 124.01590909090909,
                "pitch": 62,
                "velocity": 80,
                "duration": 1.7409090909090992,
                "tempo": 120.0
            },
            {
                "start_time": 124.06363636363636,
                "end_time": 125.80227272727272,
                "pitch": 67,
                "velocity": 80,
                "duration": 1.7386363636363598,
                "tempo": 120.0
            },
            {
                "start_time": 125.83636363636363,
                "end_time": 127.59318181818182,
                "pitch": 60,
                "velocity": 80,
                "duration": 1.7568181818181898,
                "tempo": 120.0
            },
            {
                "start_time": 127.62727272727273,
                "end_time": 129.35681818181817,
                "pitch": 57,
                "velocity": 80,
                "duration": 1.7295454545454447,
                "tempo": 120.0
            },
            {
                "start_time": 129.40454545454546,
                "end_time": 131.14545454545453,
                "pitch": 62,
                "velocity": 80,
                "duration": 1.7409090909090708,
                "tempo": 120.0
            },
            {
                "start_time": 131.1772727272727,
                "end_time": 132.9318181818182,
                "pitch": 67,
                "velocity": 80,
                "duration": 1.7545454545454788,
                "tempo": 120.0
            },
            {
                "start_time": 132.9659090909091,
                "end_time": 134.69545454545454,
                "pitch": 60,
                "velocity": 80,
                "duration": 1.7295454545454447,
                "tempo": 120.0
            },
            {
                "start_time": 134.74545454545455,
                "end_time": 136.48636363636362,
                "pitch": 57,
                "velocity": 80,
                "duration": 1.7409090909090708,
                "tempo": 120.0
            },
            {
                "start_time": 136.5340909090909,
                "end_time": 138.27272727272725,
                "pitch": 62,
                "velocity": 80,
                "duration": 1.7386363636363455,
                "tempo": 120.0
            },
            {
                "start_time": 138.3068181818182,
                "end_time": 140.0522727272727,
                "pitch": 64,
                "velocity": 80,
                "duration": 1.7454545454545212,
                "tempo": 120.0
            },
            {
                "start_time": 140.0840909090909,
                "end_time": 141.82272727272726,
                "pitch": 57,
                "velocity": 80,
                "duration": 1.738636363636374,
                "tempo": 120.0
            },
            {
                "start_time": 141.87045454545455,
                "end_time": 143.6090909090909,
                "pitch": 57,
                "velocity": 80,
                "duration": 1.7386363636363455,
                "tempo": 120.0
            },
            {
                "start_time": 143.6431818181818,
                "end_time": 145.40454545454546,
                "pitch": 62,
                "velocity": 80,
                "duration": 1.7613636363636545,
                "tempo": 120.0
            },
            {
                "start_time": 145.43863636363636,
                "end_time": 147.1590909090909,
                "pitch": 67,
                "velocity": 80,
                "duration": 1.720454545454544,
                "tempo": 120.0
            },
            {
                "start_time": 147.2090909090909,
                "end_time": 148.95681818181816,
                "pitch": 60,
                "velocity": 80,
                "duration": 1.7477272727272748,
                "tempo": 120.0
            },
            {
                "start_time": 148.98863636363635,
                "end_time": 150.74090909090907,
                "pitch": 57,
                "velocity": 80,
                "duration": 1.7522727272727252,
                "tempo": 120.0
            },
            {
                "start_time": 150.775,
                "end_time": 152.51136363636363,
                "pitch": 62,
                "velocity": 80,
                "duration": 1.7363636363636203,
                "tempo": 120.0
            },
            {
                "start_time": 152.5431818181818,
                "end_time": 154.29545454545453,
                "pitch": 62,
                "velocity": 80,
                "duration": 1.7522727272727252,
                "tempo": 120.0
            },
            {
                "start_time": 154.34318181818182,
                "end_time": 156.075,
                "pitch": 64,
                "velocity": 80,
                "duration": 1.73181818181817,
                "tempo": 120.0
            },
            {
                "start_time": 156.1090909090909,
                "end_time": 157.86590909090907,
                "pitch": 64,
                "velocity": 80,
                "duration": 1.7568181818181756,
                "tempo": 120.0
            },
            {
                "start_time": 157.9,
                "end_time": 159.63181818181818,
                "pitch": 62,
                "velocity": 80,
                "duration": 1.73181818181817,
                "tempo": 120.0
            },
            {
                "start_time": 159.67954545454543,
                "end_time": 161.42499999999998,
                "pitch": 62,
                "velocity": 80,
                "duration": 1.7454545454545496,
                "tempo": 120.0
            },
            {
                "start_time": 161.46136363636361,
                "end_time": 163.21818181818182,
                "pitch": 64,
                "velocity": 80,
                "duration": 1.756818181818204,
                "tempo": 120.0
            },
            {
                "start_time": 163.25,
                "end_time": 164.9840909090909,
                "pitch": 64,
                "velocity": 80,
                "duration": 1.7340909090908951,
                "tempo": 120.0
            },
            {
                "start_time": 165.0340909090909,
                "end_time": 166.775,
                "pitch": 69,
                "velocity": 80,
                "duration": 1.7409090909090992,
                "tempo": 120.0
            },
            {
                "start_time": 166.8068181818182,
                "end_time": 168.61590909090907,
                "pitch": 69,
                "velocity": 80,
                "duration": 1.8090909090908838,
                "tempo": 120.0
            },
            {
                "start_time": 168.64772727272725,
                "end_time": 170.60227272727272,
                "pitch": 69,
                "velocity": 80,
                "duration": 1.9545454545454675,
                "tempo": 120.0
            },
            {
                "start_time": 170.63863636363635,
                "end_time": 172.72954545454544,
                "pitch": 69,
                "velocity": 80,
                "duration": 2.0909090909090935,
                "tempo": 120.0
            },
            {
                "start_time": 172.78636363636363,
                "end_time": 175.79999999999998,
                "pitch": 69,
                "velocity": 80,
                "duration": 3.0136363636363512,
                "tempo": 120.0
            }
        ]
    }
}