{
    "track_id": "24 Go the Waterway",
    "mood": "sad",
    "instruments": {
        "Electric Piano 1": [
            {
                "start_time": 0.2659090909090909,
                "end_time": 0.3795454545454545,
                "pitch": 60,
                "velocity": 64,
                "duration": 0.11363636363636365,
                "tempo": 120.0
            },
            {
                "start_time": 0.3795454545454545,
                "end_time": 0.4977272727272727,
                "pitch": 60,
                "velocity": 51,
                "duration": 0.11818181818181817,
                "tempo": 120.0
            },
            {
                "start_time": 0.4977272727272727,
                "end_time": 0.6136363636363636,
                "pitch": 60,
                "velocity": 40,
                "duration": 0.11590909090909096,
                "tempo": 120.0
            },
            {
                "start_time": 0.6136363636363636,
                "end_time": 0.7318181818181818,
                "pitch": 60,
                "velocity": 32,
                "duration": 0.11818181818181817,
                "tempo": 120.0
            },
            {
                "start_time": 0.7318181818181818,
                "end_time": 0.8522727272727272,
                "pitch": 60,
                "velocity": 25,
                "duration": 0.12045454545454537,
                "tempo": 120.0
            },
            {
                "start_time": 0.8522727272727272,
                "end_time": 0.9704545454545455,
                "pitch": 60,
                "velocity": 20,
                "duration": 0.11818181818181828,
                "tempo": 120.0
            },
            {
                "start_time": 0.9704545454545455,
                "end_time": 1.0909090909090908,
                "pitch": 60,
                "velocity": 16,
                "duration": 0.12045454545454537,
                "tempo": 120.0
            },
            {
                "start_time": 1.0909090909090908,
                "end_time": 1.2113636363636362,
                "pitch": 60,
                "velocity": 13,
                "duration": 0.12045454545454537,
                "tempo": 120.0
            },
            {
                "start_time": 1.2113636363636362,
                "end_time": 1.4545454545454546,
                "pitch": 70,
                "velocity": 64,
                "duration": 0.2431818181818184,
                "tempo": 120.0
            },
            {
                "start_time": 1.4545454545454546,
                "end_time": 1.6977272727272728,
                "pitch": 70,
                "velocity": 51,
                "duration": 0.24318181818181817,
                "tempo": 120.0
            },
            {
                "start_time": 1.7,
                "end_time": 1.9159090909090908,
                "pitch": 70,
                "velocity": 40,
                "duration": 0.21590909090909083,
                "tempo": 120.0
            },
            {
                "start_time": 1.9159090909090908,
                "end_time": 2.15,
                "pitch": 70,
                "velocity": 32,
                "duration": 0.23409090909090913,
                "tempo": 120.0
            },
            {
                "start_time": 2.15,
                "end_time": 2.384090909090909,
                "pitch": 70,
                "velocity": 25,
                "duration": 0.2340909090909089,
                "tempo": 120.0
            },
            {
                "start_time": 2.3863636363636362,
                "end_time": 2.620454545454545,
                "pitch": 70,
                "velocity": 20,
                "duration": 0.2340909090909089,
                "tempo": 120.0
            },
            {
                "start_time": 2.620454545454545,
                "end_time": 2.8545454545454545,
                "pitch": 70,
                "velocity": 16,
                "duration": 0.23409090909090935,
                "tempo": 120.0
            },
            {
                "start_time": 2.8545454545454545,
                "end_time": 3.0886363636363634,
                "pitch": 70,
                "velocity": 13,
                "duration": 0.2340909090909089,
                "tempo": 120.0
            },
            {
                "start_time": 3.0886363636363634,
                "end_time": 3.311363636363636,
                "pitch": 70,
                "velocity": 10,
                "duration": 0.22272727272727266,
                "tempo": 120.0
            },
            {
                "start_time": 3.311363636363636,
                "end_time": 3.55,
                "pitch": 70,
                "velocity": 8,
                "duration": 0.23863636363636376,
                "tempo": 120.0
            },
            {
                "start_time": 3.55,
                "end_time": 3.7795454545454543,
                "pitch": 70,
                "velocity": 6,
                "duration": 0.2295454545454545,
                "tempo": 120.0
            },
            {
                "start_time": 4.011363636363636,
                "end_time": 4.127272727272727,
                "pitch": 60,
                "velocity": 64,
                "duration": 0.11590909090909118,
                "tempo": 120.0
            },
            {
                "start_time": 4.129545454545454,
                "end_time": 4.247727272727272,
                "pitch": 60,
                "velocity": 51,
                "duration": 0.11818181818181817,
                "tempo": 120.0
            },
            {
                "start_time": 4.247727272727272,
                "end_time": 4.368181818181818,
                "pitch": 60,
                "velocity": 40,
                "duration": 0.12045454545454604,
                "tempo": 120.0
            },
            {
                "start_time": 4.368181818181818,
                "end_time": 4.488636363636363,
                "pitch": 60,
                "velocity": 32,
                "duration": 0.12045454545454515,
                "tempo": 120.0
            },
            {
                "start_time": 4.488636363636363,
                "end_time": 4.6045454545454545,
                "pitch": 60,
                "velocity": 25,
                "duration": 0.11590909090909118,
                "tempo": 120.0
            },
            {
                "start_time": 4.6068181818181815,
                "end_time": 4.722727272727273,
                "pitch": 60,
                "velocity": 20,
                "duration": 0.11590909090909118,
                "tempo": 120.0
            },
            {
                "start_time": 4.722727272727273,
                "end_time": 4.822727272727272,
                "pitch": 60,
                "velocity": 16,
                "duration": 0.09999999999999964,
                "tempo": 120.0
            },
            {
                "start_time": 4.822727272727272,
                "end_time": 4.9409090909090905,
                "pitch": 60,
                "velocity": 13,
                "duration": 0.11818181818181817,
                "tempo": 120.0
            },
            {
                "start_time": 4.9409090909090905,
                "end_time": 5.175,
                "pitch": 70,
                "velocity": 64,
                "duration": 0.23409090909090935,
                "tempo": 120.0
            },
            {
                "start_time": 5.175,
                "end_time": 5.409090909090909,
                "pitch": 70,
                "velocity": 51,
                "duration": 0.23409090909090935,
                "tempo": 120.0
            },
            {
                "start_time": 5.409090909090909,
                "end_time": 5.643181818181818,
                "pitch": 70,
                "velocity": 40,
                "duration": 0.23409090909090846,
                "tempo": 120.0
            },
            {
                "start_time": 5.643181818181818,
                "end_time": 5.877272727272727,
                "pitch": 70,
                "velocity": 32,
                "duration": 0.23409090909090935,
                "tempo": 120.0
            },
            {
                "start_time": 5.877272727272727,
                "end_time": 6.118181818181818,
                "pitch": 70,
                "velocity": 25,
                "duration": 0.24090909090909118,
                "tempo": 120.0
            },
            {
                "start_time": 6.118181818181818,
                "end_time": 6.340909090909091,
                "pitch": 70,
                "velocity": 20,
                "duration": 0.22272727272727266,
                "tempo": 120.0
            },
            {
                "start_time": 6.340909090909091,
                "end_time": 6.570454545454545,
                "pitch": 70,
                "velocity": 16,
                "duration": 0.2295454545454545,
                "tempo": 120.0
            },
            {
                "start_time": 6.570454545454545,
                "end_time": 6.797727272727273,
                "pitch": 70,
                "velocity": 13,
                "duration": 0.22727272727272751,
                "tempo": 120.0
            },
            {
                "start_time": 6.8,
                "end_time": 7.038636363636363,
                "pitch": 70,
                "velocity": 10,
                "duration": 0.2386363636363633,
                "tempo": 120.0
            },
            {
                "start_time": 7.038636363636363,
                "end_time": 7.277272727272727,
                "pitch": 70,
                "velocity": 8,
                "duration": 0.2386363636363642,
                "tempo": 120.0
            },
            {
                "start_time": 7.279545454545454,
                "end_time": 7.513636363636364,
                "pitch": 70,
                "velocity": 6,
                "duration": 0.23409090909090935,
                "tempo": 120.0
            },
            {
                "start_time": 7.747727272727272,
                "end_time": 7.85,
                "pitch": 60,
                "velocity": 64,
                "duration": 0.10227272727272751,
                "tempo": 120.0
            },
            {
                "start_time": 7.85,
                "end_time": 7.970454545454545,
                "pitch": 60,
                "velocity": 51,
                "duration": 0.12045454545454515,
                "tempo": 120.0
            },
            {
                "start_time": 7.970454545454545,
                "end_time": 8.088636363636363,
                "pitch": 60,
                "velocity": 40,
                "duration": 0.11818181818181817,
                "tempo": 120.0
            },
            {
                "start_time": 8.09090909090909,
                "end_time": 8.209090909090909,
                "pitch": 60,
                "velocity": 32,
                "duration": 0.11818181818181905,
                "tempo": 120.0
            },
            {
                "start_time": 8.211363636363636,
                "end_time": 8.327272727272726,
                "pitch": 60,
                "velocity": 25,
                "duration": 0.1159090909090903,
                "tempo": 120.0
            },
            {
                "start_time": 8.327272727272726,
                "end_time": 8.443181818181818,
                "pitch": 60,
                "velocity": 20,
                "duration": 0.11590909090909207,
                "tempo": 120.0
            },
            {
                "start_time": 8.445454545454545,
                "end_time": 8.561363636363636,
                "pitch": 60,
                "velocity": 16,
                "duration": 0.1159090909090903,
                "tempo": 120.0
            },
            {
                "start_time": 8.561363636363636,
                "end_time": 8.679545454545455,
                "pitch": 60,
                "velocity": 13,
                "duration": 0.11818181818181905,
                "tempo": 120.0
            },
            {
                "start_time": 8.679545454545455,
                "end_time": 8.913636363636364,
                "pitch": 70,
                "velocity": 64,
                "duration": 0.23409090909090935,
                "tempo": 120.0
            },
            {
                "start_time": 8.913636363636364,
                "end_time": 9.147727272727272,
                "pitch": 70,
                "velocity": 51,
                "duration": 0.23409090909090757,
                "tempo": 120.0
            },
            {
                "start_time": 9.147727272727272,
                "end_time": 9.370454545454544,
                "pitch": 70,
                "velocity": 40,
                "duration": 0.22272727272727266,
                "tempo": 120.0
            },
            {
                "start_time": 9.370454545454544,
                "end_time": 9.60909090909091,
                "pitch": 70,
                "velocity": 32,
                "duration": 0.2386363636363651,
                "tempo": 120.0
            },
            {
                "start_time": 9.611363636363636,
                "end_time": 9.838636363636363,
                "pitch": 70,
                "velocity": 25,
                "duration": 0.22727272727272663,
                "tempo": 120.0
            },
            {
                "start_time": 9.838636363636363,
                "end_time": 10.068181818181818,
                "pitch": 70,
                "velocity": 20,
                "duration": 0.22954545454545539,
                "tempo": 120.0
            },
            {
                "start_time": 10.068181818181818,
                "end_time": 10.302272727272726,
                "pitch": 70,
                "velocity": 16,
                "duration": 0.23409090909090757,
                "tempo": 120.0
            },
            {
                "start_time": 10.302272727272726,
                "end_time": 10.536363636363635,
                "pitch": 70,
                "velocity": 13,
                "duration": 0.23409090909090935,
                "tempo": 120.0
            },
            {
                "start_time": 10.538636363636362,
                "end_time": 10.770454545454545,
                "pitch": 70,
                "velocity": 10,
                "duration": 0.23181818181818237,
                "tempo": 120.0
            },
            {
                "start_time": 10.772727272727272,
                "end_time": 10.988636363636363,
                "pitch": 70,
                "velocity": 8,
                "duration": 0.21590909090909172,
                "tempo": 120.0
            },
            {
                "start_time": 10.988636363636363,
                "end_time": 11.229545454545454,
                "pitch": 70,
                "velocity": 6,
                "duration": 0.2409090909090903,
                "tempo": 120.0
            },
            {
                "start_time": 11.470454545454546,
                "end_time": 11.586363636363636,
                "pitch": 60,
                "velocity": 64,
                "duration": 0.1159090909090903,
                "tempo": 120.0
            },
            {
                "start_time": 11.586363636363636,
                "end_time": 11.702272727272726,
                "pitch": 60,
                "velocity": 51,
                "duration": 0.1159090909090903,
                "tempo": 120.0
            },
            {
                "start_time": 11.702272727272726,
                "end_time": 11.820454545454545,
                "pitch": 60,
                "velocity": 40,
                "duration": 0.11818181818181905,
                "tempo": 120.0
            },
            {
                "start_time": 11.820454545454545,
                "end_time": 11.938636363636363,
                "pitch": 60,
                "velocity": 32,
                "duration": 0.11818181818181728,
                "tempo": 120.0
            },
            {
                "start_time": 11.938636363636363,
                "end_time": 12.056818181818182,
                "pitch": 60,
                "velocity": 25,
                "duration": 0.11818181818181905,
                "tempo": 120.0
            },
            {
                "start_time": 12.056818181818182,
                "end_time": 12.177272727272726,
                "pitch": 60,
                "velocity": 20,
                "duration": 0.12045454545454426,
                "tempo": 120.0
            },
            {
                "start_time": 12.177272727272726,
                "end_time": 12.297727272727272,
                "pitch": 60,
                "velocity": 16,
                "duration": 0.12045454545454604,
                "tempo": 120.0
            },
            {
                "start_time": 12.297727272727272,
                "end_time": 12.399999999999999,
                "pitch": 60,
                "velocity": 13,
                "duration": 0.10227272727272663,
                "tempo": 120.0
            },
            {
                "start_time": 12.399999999999999,
                "end_time": 12.629545454545454,
                "pitch": 70,
                "velocity": 64,
                "duration": 0.22954545454545539,
                "tempo": 120.0
            },
            {
                "start_time": 12.629545454545454,
                "end_time": 12.85909090909091,
                "pitch": 70,
                "velocity": 51,
                "duration": 0.22954545454545539,
                "tempo": 120.0
            },
            {
                "start_time": 12.85909090909091,
                "end_time": 13.097727272727273,
                "pitch": 70,
                "velocity": 40,
                "duration": 0.2386363636363633,
                "tempo": 120.0
            },
            {
                "start_time": 13.097727272727273,
                "end_time": 13.338636363636363,
                "pitch": 70,
                "velocity": 32,
                "duration": 0.2409090909090903,
                "tempo": 120.0
            },
            {
                "start_time": 13.338636363636363,
                "end_time": 13.572727272727272,
                "pitch": 70,
                "velocity": 25,
                "duration": 0.23409090909090935,
                "tempo": 120.0
            },
            {
                "start_time": 13.572727272727272,
                "end_time": 13.806818181818182,
                "pitch": 70,
                "velocity": 20,
                "duration": 0.23409090909090935,
                "tempo": 120.0
            },
            {
                "start_time": 13.806818181818182,
                "end_time": 14.029545454545454,
                "pitch": 70,
                "velocity": 16,
                "duration": 0.22272727272727266,
                "tempo": 120.0
            },
            {
                "start_time": 14.029545454545454,
                "end_time": 14.270454545454545,
                "pitch": 70,
                "velocity": 13,
                "duration": 0.2409090909090903,
                "tempo": 120.0
            },
            {
                "start_time": 14.270454545454545,
                "end_time": 14.504545454545454,
                "pitch": 70,
                "velocity": 10,
                "duration": 0.23409090909090935,
                "tempo": 120.0
            },
            {
                "start_time": 14.504545454545454,
                "end_time": 14.738636363636363,
                "pitch": 70,
                "velocity": 8,
                "duration": 0.23409090909090935,
                "tempo": 120.0
            },
            {
                "start_time": 14.738636363636363,
                "end_time": 14.972727272727273,
                "pitch": 70,
                "velocity": 6,
                "duration": 0.23409090909090935,
                "tempo": 120.0
            },
            {
                "start_time": 15.209090909090909,
                "end_time": 15.325,
                "pitch": 60,
                "velocity": 64,
                "duration": 0.1159090909090903,
                "tempo": 120.0
            },
            {
                "start_time": 15.325,
                "end_time": 15.424999999999999,
                "pitch": 60,
                "velocity": 51,
                "duration": 0.09999999999999964,
                "tempo": 120.0
            },
            {
                "start_time": 15.424999999999999,
                "end_time": 15.540909090909091,
                "pitch": 60,
                "velocity": 40,
                "duration": 0.11590909090909207,
                "tempo": 120.0
            },
            {
                "start_time": 15.540909090909091,
                "end_time": 15.659090909090908,
                "pitch": 60,
                "velocity": 32,
                "duration": 0.11818181818181728,
                "tempo": 120.0
            },
            {
                "start_time": 15.659090909090908,
                "end_time": 15.774999999999999,
                "pitch": 60,
                "velocity": 25,
                "duration": 0.1159090909090903,
                "tempo": 120.0
            },
            {
                "start_time": 15.777272727272727,
                "end_time": 15.893181818181818,
                "pitch": 60,
                "velocity": 20,
                "duration": 0.1159090909090903,
                "tempo": 120.0
            },
            {
                "start_time": 15.893181818181818,
                "end_time": 16.011363636363637,
                "pitch": 60,
                "velocity": 16,
                "duration": 0.11818181818181905,
                "tempo": 120.0
            },
            {
                "start_time": 16.011363636363637,
                "end_time": 16.127272727272725,
                "pitch": 60,
                "velocity": 13,
                "duration": 0.11590909090908852,
                "tempo": 120.0
            },
            {
                "start_time": 16.129545454545454,
                "end_time": 16.368181818181817,
                "pitch": 70,
                "velocity": 64,
                "duration": 0.2386363636363633,
                "tempo": 120.0
            },
            {
                "start_time": 16.368181818181817,
                "end_time": 16.60681818181818,
                "pitch": 70,
                "velocity": 51,
                "duration": 0.2386363636363633,
                "tempo": 120.0
            },
            {
                "start_time": 16.60681818181818,
                "end_time": 16.84090909090909,
                "pitch": 70,
                "velocity": 40,
                "duration": 0.23409090909090935,
                "tempo": 120.0
            },
            {
                "start_time": 16.84318181818182,
                "end_time": 17.05909090909091,
                "pitch": 70,
                "velocity": 32,
                "duration": 0.21590909090908994,
                "tempo": 120.0
            },
            {
                "start_time": 17.05909090909091,
                "end_time": 17.288636363636364,
                "pitch": 70,
                "velocity": 25,
                "duration": 0.22954545454545539,
                "tempo": 120.0
            },
            {
                "start_time": 17.288636363636364,
                "end_time": 17.518181818181816,
                "pitch": 70,
                "velocity": 20,
                "duration": 0.22954545454545183,
                "tempo": 120.0
            },
            {
                "start_time": 17.518181818181816,
                "end_time": 17.756818181818183,
                "pitch": 70,
                "velocity": 16,
                "duration": 0.23863636363636687,
                "tempo": 120.0
            },
            {
                "start_time": 17.756818181818183,
                "end_time": 17.99772727272727,
                "pitch": 70,
                "velocity": 13,
                "duration": 0.24090909090908852,
                "tempo": 120.0
            },
            {
                "start_time": 17.99772727272727,
                "end_time": 18.236363636363635,
                "pitch": 70,
                "velocity": 10,
                "duration": 0.2386363636363633,
                "tempo": 120.0
            },
            {
                "start_time": 18.238636363636363,
                "end_time": 18.459090909090907,
                "pitch": 70,
                "velocity": 8,
                "duration": 0.2204545454545439,
                "tempo": 120.0
            },
            {
                "start_time": 18.461363636363636,
                "end_time": 18.688636363636363,
                "pitch": 70,
                "velocity": 6,
                "duration": 0.22727272727272663,
                "tempo": 120.0
            },
            {
                "start_time": 18.920454545454543,
                "end_time": 19.036363636363635,
                "pitch": 60,
                "velocity": 64,
                "duration": 0.11590909090909207,
                "tempo": 120.0
            },
            {
                "start_time": 19.036363636363635,
                "end_time": 19.152272727272727,
                "pitch": 60,
                "velocity": 51,
                "duration": 0.11590909090909207,
                "tempo": 120.0
            },
            {
                "start_time": 19.152272727272727,
                "end_time": 19.270454545454545,
                "pitch": 60,
                "velocity": 40,
                "duration": 0.11818181818181728,
                "tempo": 120.0
            },
            {
                "start_time": 19.270454545454545,
                "end_time": 19.386363636363637,
                "pitch": 60,
                "velocity": 32,
                "duration": 0.11590909090909207,
                "tempo": 120.0
            },
            {
                "start_time": 19.386363636363637,
                "end_time": 19.50681818181818,
                "pitch": 60,
                "velocity": 25,
                "duration": 0.12045454545454248,
                "tempo": 120.0
            },
            {
                "start_time": 19.50681818181818,
                "end_time": 19.627272727272725,
                "pitch": 60,
                "velocity": 20,
                "duration": 0.12045454545454604,
                "tempo": 120.0
            },
            {
                "start_time": 19.627272727272725,
                "end_time": 19.74772727272727,
                "pitch": 60,
                "velocity": 16,
                "duration": 0.12045454545454604,
                "tempo": 120.0
            },
            {
                "start_time": 19.74772727272727,
                "end_time": 19.868181818181817,
                "pitch": 60,
                "velocity": 13,
                "duration": 0.12045454545454604,
                "tempo": 120.0
            },
            {
                "start_time": 19.868181818181817,
                "end_time": 20.09090909090909,
                "pitch": 70,
                "velocity": 64,
                "duration": 0.22272727272727266,
                "tempo": 120.0
            },
            {
                "start_time": 20.09090909090909,
                "end_time": 20.329545454545453,
                "pitch": 70,
                "velocity": 51,
                "duration": 0.2386363636363633,
                "tempo": 120.0
            },
            {
                "start_time": 20.329545454545453,
                "end_time": 20.563636363636363,
                "pitch": 70,
                "velocity": 40,
                "duration": 0.23409090909090935,
                "tempo": 120.0
            },
            {
                "start_time": 20.56590909090909,
                "end_time": 20.797727272727272,
                "pitch": 70,
                "velocity": 32,
                "duration": 0.2318181818181806,
                "tempo": 120.0
            },
            {
                "start_time": 20.8,
                "end_time": 21.034090909090907,
                "pitch": 70,
                "velocity": 25,
                "duration": 0.2340909090909058,
                "tempo": 120.0
            },
            {
                "start_time": 21.034090909090907,
                "end_time": 21.268181818181816,
                "pitch": 70,
                "velocity": 20,
                "duration": 0.23409090909090935,
                "tempo": 120.0
            },
            {
                "start_time": 21.268181818181816,
                "end_time": 21.48409090909091,
                "pitch": 70,
                "velocity": 16,
                "duration": 0.2159090909090935,
                "tempo": 120.0
            },
            {
                "start_time": 21.486363636363635,
                "end_time": 21.720454545454544,
                "pitch": 70,
                "velocity": 13,
                "duration": 0.23409090909090935,
                "tempo": 120.0
            },
            {
                "start_time": 21.720454545454544,
                "end_time": 21.954545454545453,
                "pitch": 70,
                "velocity": 10,
                "duration": 0.23409090909090935,
                "tempo": 120.0
            },
            {
                "start_time": 21.954545454545453,
                "end_time": 22.188636363636363,
                "pitch": 70,
                "velocity": 8,
                "duration": 0.23409090909090935,
                "tempo": 120.0
            },
            {
                "start_time": 22.188636363636363,
                "end_time": 22.422727272727272,
                "pitch": 70,
                "velocity": 6,
                "duration": 0.23409090909090935,
                "tempo": 120.0
            },
            {
                "start_time": 22.659090909090907,
                "end_time": 22.777272727272727,
                "pitch": 60,
                "velocity": 64,
                "duration": 0.11818181818182083,
                "tempo": 120.0
            },
            {
                "start_time": 22.777272727272727,
                "end_time": 22.895454545454545,
                "pitch": 60,
                "velocity": 51,
                "duration": 0.11818181818181728,
                "tempo": 120.0
            },
            {
                "start_time": 22.897727272727273,
                "end_time": 23.0,
                "pitch": 60,
                "velocity": 40,
                "duration": 0.10227272727272663,
                "tempo": 120.0
            },
            {
                "start_time": 23.0,
                "end_time": 23.120454545454546,
                "pitch": 60,
                "velocity": 32,
                "duration": 0.12045454545454604,
                "tempo": 120.0
            },
            {
                "start_time": 23.120454545454546,
                "end_time": 23.23409090909091,
                "pitch": 60,
                "velocity": 25,
                "duration": 0.11363636363636331,
                "tempo": 120.0
            },
            {
                "start_time": 23.23409090909091,
                "end_time": 23.347727272727273,
                "pitch": 60,
                "velocity": 20,
                "duration": 0.11363636363636331,
                "tempo": 120.0
            },
            {
                "start_time": 23.349999999999998,
                "end_time": 23.46363636363636,
                "pitch": 60,
                "velocity": 16,
                "duration": 0.11363636363636331,
                "tempo": 120.0
            },
            {
                "start_time": 23.46363636363636,
                "end_time": 23.577272727272724,
                "pitch": 60,
                "velocity": 13,
                "duration": 0.11363636363636331,
                "tempo": 120.0
            },
            {
                "start_time": 23.579545454545453,
                "end_time": 23.818181818181817,
                "pitch": 70,
                "velocity": 64,
                "duration": 0.2386363636363633,
                "tempo": 120.0
            },
            {
                "start_time": 23.818181818181817,
                "end_time": 24.05681818181818,
                "pitch": 70,
                "velocity": 51,
                "duration": 0.2386363636363633,
                "tempo": 120.0
            },
            {
                "start_time": 24.05681818181818,
                "end_time": 24.29090909090909,
                "pitch": 70,
                "velocity": 40,
                "duration": 0.23409090909090935,
                "tempo": 120.0
            },
            {
                "start_time": 24.293181818181818,
                "end_time": 24.509090909090908,
                "pitch": 70,
                "velocity": 32,
                "duration": 0.21590909090908994,
                "tempo": 120.0
            },
            {
                "start_time": 24.509090909090908,
                "end_time": 24.743181818181817,
                "pitch": 70,
                "velocity": 25,
                "duration": 0.23409090909090935,
                "tempo": 120.0
            },
            {
                "start_time": 24.743181818181817,
                "end_time": 24.977272727272727,
                "pitch": 70,
                "velocity": 20,
                "duration": 0.23409090909090935,
                "tempo": 120.0
            },
            {
                "start_time": 24.979545454545452,
                "end_time": 25.211363636363636,
                "pitch": 70,
                "velocity": 16,
                "duration": 0.23181818181818414,
                "tempo": 120.0
            },
            {
                "start_time": 25.21363636363636,
                "end_time": 25.44772727272727,
                "pitch": 70,
                "velocity": 13,
                "duration": 0.23409090909090935,
                "tempo": 120.0
            },
            {
                "start_time": 25.44772727272727,
                "end_time": 25.686363636363634,
                "pitch": 70,
                "velocity": 10,
                "duration": 0.2386363636363633,
                "tempo": 120.0
            },
            {
                "start_time": 25.686363636363634,
                "end_time": 25.927272727272726,
                "pitch": 70,
                "velocity": 8,
                "duration": 0.24090909090909207,
                "tempo": 120.0
            },
            {
                "start_time": 25.927272727272726,
                "end_time": 26.143181818181816,
                "pitch": 70,
                "velocity": 6,
                "duration": 0.21590909090908994,
                "tempo": 120.0
            },
            {
                "start_time": 26.379545454545454,
                "end_time": 26.493181818181817,
                "pitch": 60,
                "velocity": 64,
                "duration": 0.11363636363636331,
                "tempo": 120.0
            },
            {
                "start_time": 26.493181818181817,
                "end_time": 26.60681818181818,
                "pitch": 60,
                "velocity": 51,
                "duration": 0.11363636363636331,
                "tempo": 120.0
            },
            {
                "start_time": 26.60681818181818,
                "end_time": 26.722727272727273,
                "pitch": 60,
                "velocity": 40,
                "duration": 0.11590909090909207,
                "tempo": 120.0
            },
            {
                "start_time": 26.722727272727273,
                "end_time": 26.836363636363636,
                "pitch": 60,
                "velocity": 32,
                "duration": 0.11363636363636331,
                "tempo": 120.0
            },
            {
                "start_time": 26.836363636363636,
                "end_time": 26.956818181818182,
                "pitch": 60,
                "velocity": 25,
                "duration": 0.12045454545454604,
                "tempo": 120.0
            },
            {
                "start_time": 26.956818181818182,
                "end_time": 27.077272727272724,
                "pitch": 60,
                "velocity": 20,
                "duration": 0.12045454545454248,
                "tempo": 120.0
            },
            {
                "start_time": 27.077272727272724,
                "end_time": 27.195454545454545,
                "pitch": 60,
                "velocity": 16,
                "duration": 0.11818181818182083,
                "tempo": 120.0
            },
            {
                "start_time": 27.195454545454545,
                "end_time": 27.315909090909088,
                "pitch": 60,
                "velocity": 13,
                "duration": 0.12045454545454248,
                "tempo": 120.0
            },
            {
                "start_time": 27.318181818181817,
                "end_time": 27.538636363636364,
                "pitch": 70,
                "velocity": 64,
                "duration": 0.22045454545454746,
                "tempo": 120.0
            },
            {
                "start_time": 27.538636363636364,
                "end_time": 27.779545454545453,
                "pitch": 70,
                "velocity": 51,
                "duration": 0.24090909090908852,
                "tempo": 120.0
            },
            {
                "start_time": 27.779545454545453,
                "end_time": 28.013636363636362,
                "pitch": 70,
                "velocity": 40,
                "duration": 0.23409090909090935,
                "tempo": 120.0
            },
            {
                "start_time": 28.013636363636362,
                "end_time": 28.24772727272727,
                "pitch": 70,
                "velocity": 32,
                "duration": 0.23409090909090935,
                "tempo": 120.0
            },
            {
                "start_time": 28.24772727272727,
                "end_time": 28.48181818181818,
                "pitch": 70,
                "velocity": 25,
                "duration": 0.23409090909090935,
                "tempo": 120.0
            },
            {
                "start_time": 28.48181818181818,
                "end_time": 28.71590909090909,
                "pitch": 70,
                "velocity": 20,
                "duration": 0.23409090909090935,
                "tempo": 120.0
            },
            {
                "start_time": 28.718181818181815,
                "end_time": 28.95,
                "pitch": 70,
                "velocity": 16,
                "duration": 0.23181818181818414,
                "tempo": 120.0
            },
            {
                "start_time": 28.952272727272724,
                "end_time": 29.168181818181818,
                "pitch": 70,
                "velocity": 13,
                "duration": 0.2159090909090935,
                "tempo": 120.0
            },
            {
                "start_time": 29.168181818181818,
                "end_time": 29.402272727272727,
                "pitch": 70,
                "velocity": 10,
                "duration": 0.23409090909090935,
                "tempo": 120.0
            },
            {
                "start_time": 29.404545454545453,
                "end_time": 29.638636363636362,
                "pitch": 70,
                "velocity": 8,
                "duration": 0.23409090909090935,
                "tempo": 120.0
            },
            {
                "start_time": 29.638636363636362,
                "end_time": 29.87272727272727,
                "pitch": 70,
                "velocity": 6,
                "duration": 0.23409090909090935,
                "tempo": 120.0
            },
            {
                "start_time": 30.10909090909091,
                "end_time": 30.224999999999998,
                "pitch": 60,
                "velocity": 64,
                "duration": 0.11590909090908852,
                "tempo": 120.0
            },
            {
                "start_time": 30.227272727272727,
                "end_time": 30.345454545454544,
                "pitch": 60,
                "velocity": 51,
                "duration": 0.11818181818181728,
                "tempo": 120.0
            },
            {
                "start_time": 30.345454545454544,
                "end_time": 30.46590909090909,
                "pitch": 60,
                "velocity": 40,
                "duration": 0.12045454545454604,
                "tempo": 120.0
            },
            {
                "start_time": 30.46590909090909,
                "end_time": 30.568181818181817,
                "pitch": 60,
                "velocity": 32,
                "duration": 0.10227272727272663,
                "tempo": 120.0
            },
            {
                "start_time": 30.570454545454545,
                "end_time": 30.68409090909091,
                "pitch": 60,
                "velocity": 25,
                "duration": 0.11363636363636331,
                "tempo": 120.0
            },
            {
                "start_time": 30.68409090909091,
                "end_time": 30.797727272727272,
                "pitch": 60,
                "velocity": 20,
                "duration": 0.11363636363636331,
                "tempo": 120.0
            },
            {
                "start_time": 30.797727272727272,
                "end_time": 30.911363636363635,
                "pitch": 60,
                "velocity": 16,
                "duration": 0.11363636363636331,
                "tempo": 120.0
            },
            {
                "start_time": 30.91363636363636,
                "end_time": 31.027272727272727,
                "pitch": 60,
                "velocity": 13,
                "duration": 0.11363636363636687,
                "tempo": 120.0
            },
            {
                "start_time": 31.027272727272727,
                "end_time": 31.26590909090909,
                "pitch": 70,
                "velocity": 64,
                "duration": 0.2386363636363633,
                "tempo": 120.0
            },
            {
                "start_time": 31.268181818181816,
                "end_time": 31.50681818181818,
                "pitch": 70,
                "velocity": 51,
                "duration": 0.2386363636363633,
                "tempo": 120.0
            },
            {
                "start_time": 31.50681818181818,
                "end_time": 31.74090909090909,
                "pitch": 70,
                "velocity": 40,
                "duration": 0.23409090909090935,
                "tempo": 120.0
            },
            {
                "start_time": 31.74090909090909,
                "end_time": 31.974999999999998,
                "pitch": 70,
                "velocity": 32,
                "duration": 0.23409090909090935,
                "tempo": 120.0
            },
            {
                "start_time": 31.974999999999998,
                "end_time": 32.18863636363636,
                "pitch": 70,
                "velocity": 25,
                "duration": 0.21363636363636473,
                "tempo": 120.0
            },
            {
                "start_time": 32.18863636363636,
                "end_time": 32.41590909090909,
                "pitch": 70,
                "velocity": 20,
                "duration": 0.22727272727272663,
                "tempo": 120.0
            },
            {
                "start_time": 32.418181818181814,
                "end_time": 32.66136363636363,
                "pitch": 70,
                "velocity": 16,
                "duration": 0.24318181818181728,
                "tempo": 120.0
            },
            {
                "start_time": 32.66136363636363,
                "end_time": 32.90681818181818,
                "pitch": 70,
                "velocity": 13,
                "duration": 0.2454545454545496,
                "tempo": 120.0
            },
            {
                "start_time": 32.90681818181818,
                "end_time": 33.13636363636363,
                "pitch": 70,
                "velocity": 10,
                "duration": 0.22954545454545183,
                "tempo": 120.0
            },
            {
                "start_time": 33.13636363636363,
                "end_time": 33.36590909090909,
                "pitch": 70,
                "velocity": 8,
                "duration": 0.22954545454545894,
                "tempo": 120.0
            },
            {
                "start_time": 33.36590909090909,
                "end_time": 33.58863636363636,
                "pitch": 70,
                "velocity": 6,
                "duration": 0.2227272727272691,
                "tempo": 120.0
            },
            {
                "start_time": 33.82954545454545,
                "end_time": 33.945454545454545,
                "pitch": 60,
                "velocity": 64,
                "duration": 0.11590909090909207,
                "tempo": 120.0
            },
            {
                "start_time": 33.945454545454545,
                "end_time": 34.06136363636364,
                "pitch": 60,
                "velocity": 51,
                "duration": 0.11590909090909207,
                "tempo": 120.0
            },
            {
                "start_time": 34.06363636363636,
                "end_time": 34.179545454545455,
                "pitch": 60,
                "velocity": 40,
                "duration": 0.11590909090909207,
                "tempo": 120.0
            },
            {
                "start_time": 34.179545454545455,
                "end_time": 34.29772727272727,
                "pitch": 60,
                "velocity": 32,
                "duration": 0.11818181818181728,
                "tempo": 120.0
            },
            {
                "start_time": 34.29772727272727,
                "end_time": 34.41590909090909,
                "pitch": 60,
                "velocity": 25,
                "duration": 0.11818181818181728,
                "tempo": 120.0
            },
            {
                "start_time": 34.41590909090909,
                "end_time": 34.53636363636363,
                "pitch": 60,
                "velocity": 20,
                "duration": 0.12045454545454248,
                "tempo": 120.0
            },
            {
                "start_time": 34.53636363636363,
                "end_time": 34.65681818181818,
                "pitch": 60,
                "velocity": 16,
                "duration": 0.12045454545454959,
                "tempo": 120.0
            },
            {
                "start_time": 34.65681818181818,
                "end_time": 34.777272727272724,
                "pitch": 60,
                "velocity": 13,
                "duration": 0.12045454545454248,
                "tempo": 120.0
            },
            {
                "start_time": 34.777272727272724,
                "end_time": 35.01590909090909,
                "pitch": 70,
                "velocity": 64,
                "duration": 0.23863636363636687,
                "tempo": 120.0
            },
            {
                "start_time": 35.01590909090909,
                "end_time": 35.23863636363636,
                "pitch": 70,
                "velocity": 51,
                "duration": 0.2227272727272691,
                "tempo": 120.0
            },
            {
                "start_time": 35.23863636363636,
                "end_time": 35.46818181818182,
                "pitch": 70,
                "velocity": 40,
                "duration": 0.22954545454545894,
                "tempo": 120.0
            },
            {
                "start_time": 35.46818181818182,
                "end_time": 35.69772727272727,
                "pitch": 70,
                "velocity": 32,
                "duration": 0.22954545454545183,
                "tempo": 120.0
            },
            {
                "start_time": 35.69772727272727,
                "end_time": 35.93181818181818,
                "pitch": 70,
                "velocity": 25,
                "duration": 0.23409090909090935,
                "tempo": 120.0
            },
            {
                "start_time": 35.93181818181818,
                "end_time": 36.16590909090909,
                "pitch": 70,
                "velocity": 20,
                "duration": 0.23409090909090935,
                "tempo": 120.0
            },
            {
                "start_time": 36.16590909090909,
                "end_time": 36.40681818181818,
                "pitch": 70,
                "velocity": 16,
                "duration": 0.24090909090909207,
                "tempo": 120.0
            },
            {
                "start_time": 36.40681818181818,
                "end_time": 36.62954545454545,
                "pitch": 70,
                "velocity": 13,
                "duration": 0.2227272727272691,
                "tempo": 120.0
            },
            {
                "start_time": 36.62954545454545,
                "end_time": 36.86363636363636,
                "pitch": 70,
                "velocity": 10,
                "duration": 0.23409090909090935,
                "tempo": 120.0
            },
            {
                "start_time": 36.86363636363636,
                "end_time": 37.09772727272727,
                "pitch": 70,
                "velocity": 8,
                "duration": 0.23409090909090935,
                "tempo": 120.0
            },
            {
                "start_time": 37.09772727272727,
                "end_time": 37.33863636363636,
                "pitch": 70,
                "velocity": 6,
                "duration": 0.24090909090909207,
                "tempo": 120.0
            },
            {
                "start_time": 37.57954545454545,
                "end_time": 37.69090909090909,
                "pitch": 60,
                "velocity": 64,
                "duration": 0.11136363636363455,
                "tempo": 120.0
            },
            {
                "start_time": 37.69318181818181,
                "end_time": 37.80681818181818,
                "pitch": 60,
                "velocity": 51,
                "duration": 0.11363636363636687,
                "tempo": 120.0
            },
            {
                "start_time": 37.80681818181818,
                "end_time": 37.92045454545455,
                "pitch": 60,
                "velocity": 40,
                "duration": 0.11363636363636687,
                "tempo": 120.0
            },
            {
                "start_time": 37.92045454545455,
                "end_time": 38.03636363636363,
                "pitch": 60,
                "velocity": 32,
                "duration": 0.11590909090908497,
                "tempo": 120.0
            },
            {
                "start_time": 38.03636363636363,
                "end_time": 38.13863636363636,
                "pitch": 60,
                "velocity": 25,
                "duration": 0.10227272727272663,
                "tempo": 120.0
            },
            {
                "start_time": 38.13863636363636,
                "end_time": 38.25909090909091,
                "pitch": 60,
                "velocity": 20,
                "duration": 0.12045454545454959,
                "tempo": 120.0
            },
            {
                "start_time": 38.25909090909091,
                "end_time": 38.377272727272725,
                "pitch": 60,
                "velocity": 16,
                "duration": 0.11818181818181728,
                "tempo": 120.0
            },
            {
                "start_time": 38.377272727272725,
                "end_time": 38.49772727272727,
                "pitch": 60,
                "velocity": 13,
                "duration": 0.12045454545454248,
                "tempo": 120.0
            },
            {
                "start_time": 38.5,
                "end_time": 38.72727272727273,
                "pitch": 70,
                "velocity": 64,
                "duration": 0.22727272727272663,
                "tempo": 120.0
            },
            {
                "start_time": 38.72727272727273,
                "end_time": 38.95681818181818,
                "pitch": 70,
                "velocity": 51,
                "duration": 0.22954545454545183,
                "tempo": 120.0
            },
            {
                "start_time": 38.95681818181818,
                "end_time": 39.195454545454545,
                "pitch": 70,
                "velocity": 40,
                "duration": 0.23863636363636687,
                "tempo": 120.0
            },
            {
                "start_time": 39.19772727272727,
                "end_time": 39.43636363636364,
                "pitch": 70,
                "velocity": 32,
                "duration": 0.23863636363636687,
                "tempo": 120.0
            },
            {
                "start_time": 39.43636363636364,
                "end_time": 39.65909090909091,
                "pitch": 70,
                "velocity": 25,
                "duration": 0.2227272727272691,
                "tempo": 120.0
            },
            {
                "start_time": 39.65909090909091,
                "end_time": 39.89772727272727,
                "pitch": 70,
                "velocity": 20,
                "duration": 0.23863636363636687,
                "tempo": 120.0
            },
            {
                "start_time": 39.9,
                "end_time": 40.127272727272725,
                "pitch": 70,
                "velocity": 16,
                "duration": 0.22727272727272663,
                "tempo": 120.0
            },
            {
                "start_time": 40.12954545454545,
                "end_time": 40.35681818181818,
                "pitch": 70,
                "velocity": 13,
                "duration": 0.22727272727272663,
                "tempo": 120.0
            },
            {
                "start_time": 40.35681818181818,
                "end_time": 40.590909090909086,
                "pitch": 70,
                "velocity": 10,
                "duration": 0.23409090909090935,
                "tempo": 120.0
            },
            {
                "start_time": 40.590909090909086,
                "end_time": 40.824999999999996,
                "pitch": 70,
                "velocity": 8,
                "duration": 0.23409090909090935,
                "tempo": 120.0
            },
            {
                "start_time": 40.82727272727273,
                "end_time": 41.06590909090909,
                "pitch": 70,
                "velocity": 6,
                "duration": 0.23863636363635976,
                "tempo": 120.0
            },
            {
                "start_time": 41.29090909090909,
                "end_time": 41.402272727272724,
                "pitch": 60,
                "velocity": 64,
                "duration": 0.11136363636363455,
                "tempo": 120.0
            },
            {
                "start_time": 41.402272727272724,
                "end_time": 41.518181818181816,
                "pitch": 60,
                "velocity": 51,
                "duration": 0.11590909090909207,
                "tempo": 120.0
            },
            {
                "start_time": 41.518181818181816,
                "end_time": 41.63181818181818,
                "pitch": 60,
                "velocity": 40,
                "duration": 0.11363636363636687,
                "tempo": 120.0
            },
            {
                "start_time": 41.63181818181818,
                "end_time": 41.74545454545454,
                "pitch": 60,
                "velocity": 32,
                "duration": 0.11363636363635976,
                "tempo": 120.0
            },
            {
                "start_time": 41.74772727272727,
                "end_time": 41.86590909090909,
                "pitch": 60,
                "velocity": 25,
                "duration": 0.11818181818182438,
                "tempo": 120.0
            },
            {
                "start_time": 41.86590909090909,
                "end_time": 41.986363636363635,
                "pitch": 60,
                "velocity": 20,
                "duration": 0.12045454545454248,
                "tempo": 120.0
            },
            {
                "start_time": 41.986363636363635,
                "end_time": 42.10681818181818,
                "pitch": 60,
                "velocity": 16,
                "duration": 0.12045454545454248,
                "tempo": 120.0
            },
            {
                "start_time": 42.10681818181818,
                "end_time": 42.22727272727273,
                "pitch": 60,
                "velocity": 13,
                "duration": 0.12045454545454959,
                "tempo": 120.0
            },
            {
                "start_time": 42.22727272727273,
                "end_time": 42.465909090909086,
                "pitch": 70,
                "velocity": 64,
                "duration": 0.23863636363635976,
                "tempo": 120.0
            },
            {
                "start_time": 42.465909090909086,
                "end_time": 42.68863636363636,
                "pitch": 70,
                "velocity": 51,
                "duration": 0.22272727272727622,
                "tempo": 120.0
            },
            {
                "start_time": 42.68863636363636,
                "end_time": 42.918181818181814,
                "pitch": 70,
                "velocity": 40,
                "duration": 0.22954545454545183,
                "tempo": 120.0
            },
            {
                "start_time": 42.918181818181814,
                "end_time": 43.14772727272727,
                "pitch": 70,
                "velocity": 32,
                "duration": 0.22954545454545894,
                "tempo": 120.0
            },
            {
                "start_time": 43.14772727272727,
                "end_time": 43.38181818181818,
                "pitch": 70,
                "velocity": 25,
                "duration": 0.23409090909090935,
                "tempo": 120.0
            },
            {
                "start_time": 43.38181818181818,
                "end_time": 43.61590909090909,
                "pitch": 70,
                "velocity": 20,
                "duration": 0.23409090909090935,
                "tempo": 120.0
            },
            {
                "start_time": 43.61590909090909,
                "end_time": 43.845454545454544,
                "pitch": 70,
                "velocity": 16,
                "duration": 0.22954545454545183,
                "tempo": 120.0
            },
            {
                "start_time": 43.845454545454544,
                "end_time": 44.074999999999996,
                "pitch": 70,
                "velocity": 13,
                "duration": 0.22954545454545183,
                "tempo": 120.0
            },
            {
                "start_time": 44.074999999999996,
                "end_time": 44.3,
                "pitch": 70,
                "velocity": 10,
                "duration": 0.22500000000000142,
                "tempo": 120.0
            },
            {
                "start_time": 44.30227272727272,
                "end_time": 44.543181818181814,
                "pitch": 70,
                "velocity": 8,
                "duration": 0.24090909090909207,
                "tempo": 120.0
            },
            {
                "start_time": 44.54545454545455,
                "end_time": 44.77272727272727,
                "pitch": 70,
                "velocity": 6,
                "duration": 0.22727272727272663,
                "tempo": 120.0
            },
            {
                "start_time": 45.00454545454545,
                "end_time": 45.12272727272727,
                "pitch": 60,
                "velocity": 64,
                "duration": 0.11818181818181728,
                "tempo": 120.0
            },
            {
                "start_time": 45.12272727272727,
                "end_time": 45.24318181818182,
                "pitch": 60,
                "velocity": 51,
                "duration": 0.12045454545454959,
                "tempo": 120.0
            },
            {
                "start_time": 45.24318181818182,
                "end_time": 45.361363636363635,
                "pitch": 60,
                "velocity": 40,
                "duration": 0.11818181818181728,
                "tempo": 120.0
            },
            {
                "start_time": 45.361363636363635,
                "end_time": 45.48181818181818,
                "pitch": 60,
                "velocity": 32,
                "duration": 0.12045454545454248,
                "tempo": 120.0
            },
            {
                "start_time": 45.48181818181818,
                "end_time": 45.599999999999994,
                "pitch": 60,
                "velocity": 25,
                "duration": 0.11818181818181728,
                "tempo": 120.0
            },
            {
                "start_time": 45.599999999999994,
                "end_time": 45.699999999999996,
                "pitch": 60,
                "velocity": 20,
                "duration": 0.10000000000000142,
                "tempo": 120.0
            },
            {
                "start_time": 45.699999999999996,
                "end_time": 45.81590909090909,
                "pitch": 60,
                "velocity": 16,
                "duration": 0.11590909090909207,
                "tempo": 120.0
            },
            {
                "start_time": 45.81590909090909,
                "end_time": 45.934090909090905,
                "pitch": 60,
                "velocity": 13,
                "duration": 0.11818181818181728,
                "tempo": 120.0
            },
            {
                "start_time": 45.934090909090905,
                "end_time": 46.17272727272727,
                "pitch": 70,
                "velocity": 64,
                "duration": 0.23863636363636687,
                "tempo": 120.0
            },
            {
                "start_time": 46.175,
                "end_time": 46.413636363636364,
                "pitch": 70,
                "velocity": 51,
                "duration": 0.23863636363636687,
                "tempo": 120.0
            },
            {
                "start_time": 46.413636363636364,
                "end_time": 46.64772727272727,
                "pitch": 70,
                "velocity": 40,
                "duration": 0.23409090909090935,
                "tempo": 120.0
            },
            {
                "start_time": 46.64772727272727,
                "end_time": 46.88181818181818,
                "pitch": 70,
                "velocity": 32,
                "duration": 0.23409090909090935,
                "tempo": 120.0
            },
            {
                "start_time": 46.88181818181818,
                "end_time": 47.12272727272727,
                "pitch": 70,
                "velocity": 25,
                "duration": 0.24090909090908497,
                "tempo": 120.0
            },
            {
                "start_time": 47.12272727272727,
                "end_time": 47.345454545454544,
                "pitch": 70,
                "velocity": 20,
                "duration": 0.22272727272727622,
                "tempo": 120.0
            },
            {
                "start_time": 47.345454545454544,
                "end_time": 47.574999999999996,
                "pitch": 70,
                "velocity": 16,
                "duration": 0.22954545454545183,
                "tempo": 120.0
            },
            {
                "start_time": 47.574999999999996,
                "end_time": 47.80227272727272,
                "pitch": 70,
                "velocity": 13,
                "duration": 0.22727272727272663,
                "tempo": 120.0
            },
            {
                "start_time": 47.804545454545455,
                "end_time": 48.043181818181814,
                "pitch": 70,
                "velocity": 10,
                "duration": 0.23863636363635976,
                "tempo": 120.0
            },
            {
                "start_time": 48.043181818181814,
                "end_time": 48.28181818181818,
                "pitch": 70,
                "velocity": 8,
                "duration": 0.23863636363636687,
                "tempo": 120.0
            },
            {
                "start_time": 48.28409090909091,
                "end_time": 48.518181818181816,
                "pitch": 70,
                "velocity": 6,
                "duration": 0.23409090909090935,
                "tempo": 120.0
            },
            {
                "start_time": 48.736363636363635,
                "end_time": 48.849999999999994,
                "pitch": 60,
                "velocity": 64,
                "duration": 0.11363636363635976,
                "tempo": 120.0
            },
            {
                "start_time": 48.849999999999994,
                "end_time": 48.96363636363636,
                "pitch": 60,
                "velocity": 51,
                "duration": 0.11363636363636687,
                "tempo": 120.0
            },
            {
                "start_time": 48.96363636363636,
                "end_time": 49.07727272727273,
                "pitch": 60,
                "velocity": 40,
                "duration": 0.11363636363636687,
                "tempo": 120.0
            },
            {
                "start_time": 49.07954545454545,
                "end_time": 49.19318181818181,
                "pitch": 60,
                "velocity": 32,
                "duration": 0.11363636363635976,
                "tempo": 120.0
            },
            {
                "start_time": 49.19318181818181,
                "end_time": 49.31363636363636,
                "pitch": 60,
                "velocity": 25,
                "duration": 0.12045454545454959,
                "tempo": 120.0
            },
            {
                "start_time": 49.31363636363636,
                "end_time": 49.43181818181818,
                "pitch": 60,
                "velocity": 20,
                "duration": 0.11818181818181728,
                "tempo": 120.0
            },
            {
                "start_time": 49.434090909090905,
                "end_time": 49.55227272727272,
                "pitch": 60,
                "velocity": 16,
                "duration": 0.11818181818181728,
                "tempo": 120.0
            },
            {
                "start_time": 49.55227272727272,
                "end_time": 49.67272727272727,
                "pitch": 60,
                "velocity": 13,
                "duration": 0.12045454545454959,
                "tempo": 120.0
            },
            {
                "start_time": 49.67272727272727,
                "end_time": 49.913636363636364,
                "pitch": 70,
                "velocity": 64,
                "duration": 0.24090909090909207,
                "tempo": 120.0
            },
            {
                "start_time": 49.913636363636364,
                "end_time": 50.152272727272724,
                "pitch": 70,
                "velocity": 51,
                "duration": 0.23863636363635976,
                "tempo": 120.0
            },
            {
                "start_time": 50.152272727272724,
                "end_time": 50.375,
                "pitch": 70,
                "velocity": 40,
                "duration": 0.22272727272727622,
                "tempo": 120.0
            },
            {
                "start_time": 50.375,
                "end_time": 50.615909090909085,
                "pitch": 70,
                "velocity": 32,
                "duration": 0.24090909090908497,
                "tempo": 120.0
            },
            {
                "start_time": 50.615909090909085,
                "end_time": 50.845454545454544,
                "pitch": 70,
                "velocity": 25,
                "duration": 0.22954545454545894,
                "tempo": 120.0
            },
            {
                "start_time": 50.845454545454544,
                "end_time": 51.07272727272727,
                "pitch": 70,
                "velocity": 20,
                "duration": 0.22727272727272663,
                "tempo": 120.0
            },
            {
                "start_time": 51.074999999999996,
                "end_time": 51.309090909090905,
                "pitch": 70,
                "velocity": 16,
                "duration": 0.23409090909090935,
                "tempo": 120.0
            },
            {
                "start_time": 51.309090909090905,
                "end_time": 51.543181818181814,
                "pitch": 70,
                "velocity": 13,
                "duration": 0.23409090909090935,
                "tempo": 120.0
            },
            {
                "start_time": 51.543181818181814,
                "end_time": 51.76590909090909,
                "pitch": 70,
                "velocity": 10,
                "duration": 0.22272727272727622,
                "tempo": 120.0
            },
            {
                "start_time": 51.76590909090909,
                "end_time": 52.00454545454545,
                "pitch": 70,
                "velocity": 8,
                "duration": 0.23863636363635976,
                "tempo": 120.0
            },
            {
                "start_time": 52.00454545454545,
                "end_time": 52.23409090909091,
                "pitch": 70,
                "velocity": 6,
                "duration": 0.22954545454545894,
                "tempo": 120.0
            },
            {
                "start_time": 52.465909090909086,
                "end_time": 52.58181818181818,
                "pitch": 60,
                "velocity": 64,
                "duration": 0.11590909090909207,
                "tempo": 120.0
            },
            {
                "start_time": 52.584090909090904,
                "end_time": 52.70227272727273,
                "pitch": 60,
                "velocity": 51,
                "duration": 0.11818181818182438,
                "tempo": 120.0
            },
            {
                "start_time": 52.70227272727273,
                "end_time": 52.82272727272727,
                "pitch": 60,
                "velocity": 40,
                "duration": 0.12045454545454248,
                "tempo": 120.0
            },
            {
                "start_time": 52.82272727272727,
                "end_time": 52.94318181818181,
                "pitch": 60,
                "velocity": 32,
                "duration": 0.12045454545454248,
                "tempo": 120.0
            },
            {
                "start_time": 52.94318181818181,
                "end_time": 53.059090909090905,
                "pitch": 60,
                "velocity": 25,
                "duration": 0.11590909090909207,
                "tempo": 120.0
            },
            {
                "start_time": 53.059090909090905,
                "end_time": 53.17727272727272,
                "pitch": 60,
                "velocity": 20,
                "duration": 0.11818181818181728,
                "tempo": 120.0
            },
            {
                "start_time": 53.17727272727272,
                "end_time": 53.277272727272724,
                "pitch": 60,
                "velocity": 16,
                "duration": 0.10000000000000142,
                "tempo": 120.0
            },
            {
                "start_time": 53.277272727272724,
                "end_time": 53.39545454545454,
                "pitch": 60,
                "velocity": 13,
                "duration": 0.11818181818181728,
                "tempo": 120.0
            },
            {
                "start_time": 53.39545454545454,
                "end_time": 53.62954545454545,
                "pitch": 70,
                "velocity": 64,
                "duration": 0.23409090909090935,
                "tempo": 120.0
            },
            {
                "start_time": 53.62954545454545,
                "end_time": 53.86363636363636,
                "pitch": 70,
                "velocity": 51,
                "duration": 0.23409090909090935,
                "tempo": 120.0
            },
            {
                "start_time": 53.86363636363636,
                "end_time": 54.09772727272727,
                "pitch": 70,
                "velocity": 40,
                "duration": 0.23409090909090935,
                "tempo": 120.0
            },
            {
                "start_time": 54.09772727272727,
                "end_time": 54.33181818181818,
                "pitch": 70,
                "velocity": 32,
                "duration": 0.23409090909090935,
                "tempo": 120.0
            },
            {
                "start_time": 54.33181818181818,
                "end_time": 54.56590909090909,
                "pitch": 70,
                "velocity": 25,
                "duration": 0.23409090909090935,
                "tempo": 120.0
            },
            {
                "start_time": 54.56590909090909,
                "end_time": 54.78409090909091,
                "pitch": 70,
                "velocity": 20,
                "duration": 0.2181818181818187,
                "tempo": 120.0
            },
            {
                "start_time": 54.78409090909091,
                "end_time": 55.025,
                "pitch": 70,
                "velocity": 16,
                "duration": 0.24090909090909207,
                "tempo": 120.0
            },
            {
                "start_time": 55.025,
                "end_time": 55.26363636363636,
                "pitch": 70,
                "velocity": 13,
                "duration": 0.23863636363635976,
                "tempo": 120.0
            },
            {
                "start_time": 55.26363636363636,
                "end_time": 55.49772727272727,
                "pitch": 70,
                "velocity": 10,
                "duration": 0.23409090909090935,
                "tempo": 120.0
            },
            {
                "start_time": 55.49772727272727,
                "end_time": 55.73181818181818,
                "pitch": 70,
                "velocity": 8,
                "duration": 0.23409090909090935,
                "tempo": 120.0
            },
            {
                "start_time": 55.73181818181818,
                "end_time": 55.95454545454545,
                "pitch": 70,
                "velocity": 6,
                "duration": 0.22272727272727622,
                "tempo": 120.0
            },
            {
                "start_time": 56.18181818181818,
                "end_time": 56.28636363636363,
                "pitch": 60,
                "velocity": 64,
                "duration": 0.10454545454545183,
                "tempo": 120.0
            },
            {
                "start_time": 56.28636363636363,
                "end_time": 56.41136363636363,
                "pitch": 60,
                "velocity": 51,
                "duration": 0.125,
                "tempo": 120.0
            },
            {
                "start_time": 56.41136363636363,
                "end_time": 56.53636363636363,
                "pitch": 60,
                "velocity": 40,
                "duration": 0.125,
                "tempo": 120.0
            },
            {
                "start_time": 56.53636363636363,
                "end_time": 56.66136363636363,
                "pitch": 60,
                "velocity": 32,
                "duration": 0.125,
                "tempo": 120.0
            },
            {
                "start_time": 56.66136363636363,
                "end_time": 56.775,
                "pitch": 60,
                "velocity": 25,
                "duration": 0.11363636363636687,
                "tempo": 120.0
            },
            {
                "start_time": 56.775,
                "end_time": 56.89090909090909,
                "pitch": 60,
                "velocity": 20,
                "duration": 0.11590909090909207,
                "tempo": 120.0
            },
            {
                "start_time": 56.89090909090909,
                "end_time": 57.00454545454545,
                "pitch": 60,
                "velocity": 16,
                "duration": 0.11363636363635976,
                "tempo": 120.0
            },
            {
                "start_time": 57.00454545454545,
                "end_time": 57.12045454545454,
                "pitch": 60,
                "velocity": 13,
                "duration": 0.11590909090909207,
                "tempo": 120.0
            },
            {
                "start_time": 57.12045454545454,
                "end_time": 57.36363636363636,
                "pitch": 70,
                "velocity": 64,
                "duration": 0.24318181818181728,
                "tempo": 120.0
            },
            {
                "start_time": 57.365909090909085,
                "end_time": 57.60909090909091,
                "pitch": 70,
                "velocity": 51,
                "duration": 0.24318181818182438,
                "tempo": 120.0
            },
            {
                "start_time": 57.611363636363635,
                "end_time": 57.82727272727272,
                "pitch": 70,
                "velocity": 40,
                "duration": 0.2159090909090864,
                "tempo": 120.0
            },
            {
                "start_time": 57.82954545454545,
                "end_time": 58.06136363636363,
                "pitch": 70,
                "velocity": 32,
                "duration": 0.23181818181817704,
                "tempo": 120.0
            },
            {
                "start_time": 58.06363636363636,
                "end_time": 58.29772727272727,
                "pitch": 70,
                "velocity": 25,
                "duration": 0.23409090909090935,
                "tempo": 120.0
            },
            {
                "start_time": 58.29772727272727,
                "end_time": 58.53181818181818,
                "pitch": 70,
                "velocity": 20,
                "duration": 0.23409090909090935,
                "tempo": 120.0
            },
            {
                "start_time": 58.53181818181818,
                "end_time": 58.76590909090909,
                "pitch": 70,
                "velocity": 16,
                "duration": 0.23409090909090935,
                "tempo": 120.0
            },
            {
                "start_time": 58.76590909090909,
                "end_time": 59.0,
                "pitch": 70,
                "velocity": 13,
                "duration": 0.23409090909090935,
                "tempo": 120.0
            },
            {
                "start_time": 59.0,
                "end_time": 59.23863636363636,
                "pitch": 70,
                "velocity": 10,
                "duration": 0.23863636363635976,
                "tempo": 120.0
            },
            {
                "start_time": 59.240909090909085,
                "end_time": 59.461363636363636,
                "pitch": 70,
                "velocity": 8,
                "duration": 0.220454545454551,
                "tempo": 120.0
            },
            {
                "start_time": 59.461363636363636,
                "end_time": 59.68636363636363,
                "pitch": 70,
                "velocity": 6,
                "duration": 0.22499999999999432,
                "tempo": 120.0
            },
            {
                "start_time": 59.91136363636363,
                "end_time": 60.02954545454545,
                "pitch": 60,
                "velocity": 64,
                "duration": 0.11818181818181728,
                "tempo": 120.0
            },
            {
                "start_time": 60.02954545454545,
                "end_time": 60.15,
                "pitch": 60,
                "velocity": 51,
                "duration": 0.12045454545454959,
                "tempo": 120.0
            },
            {
                "start_time": 60.15,
                "end_time": 60.27045454545454,
                "pitch": 60,
                "velocity": 40,
                "duration": 0.12045454545454248,
                "tempo": 120.0
            },
            {
                "start_time": 60.27045454545454,
                "end_time": 60.39090909090909,
                "pitch": 60,
                "velocity": 32,
                "duration": 0.12045454545454959,
                "tempo": 120.0
            },
            {
                "start_time": 60.39090909090909,
                "end_time": 60.50909090909091,
                "pitch": 60,
                "velocity": 25,
                "duration": 0.11818181818181728,
                "tempo": 120.0
            },
            {
                "start_time": 60.50909090909091,
                "end_time": 60.62954545454545,
                "pitch": 60,
                "velocity": 20,
                "duration": 0.12045454545454248,
                "tempo": 120.0
            },
            {
                "start_time": 60.62954545454545,
                "end_time": 60.75,
                "pitch": 60,
                "velocity": 16,
                "duration": 0.12045454545454959,
                "tempo": 120.0
            },
            {
                "start_time": 60.75,
                "end_time": 60.85227272727273,
                "pitch": 60,
                "velocity": 13,
                "duration": 0.10227272727272663,
                "tempo": 120.0
            },
            {
                "start_time": 60.85454545454545,
                "end_time": 61.08181818181818,
                "pitch": 70,
                "velocity": 64,
                "duration": 0.22727272727272663,
                "tempo": 120.0
            },
            {
                "start_time": 61.08181818181818,
                "end_time": 61.31136363636363,
                "pitch": 70,
                "velocity": 51,
                "duration": 0.22954545454545183,
                "tempo": 120.0
            },
            {
                "start_time": 61.31136363636363,
                "end_time": 61.55,
                "pitch": 70,
                "velocity": 40,
                "duration": 0.23863636363636687,
                "tempo": 120.0
            },
            {
                "start_time": 61.55,
                "end_time": 61.79090909090909,
                "pitch": 70,
                "velocity": 32,
                "duration": 0.24090909090909207,
                "tempo": 120.0
            },
            {
                "start_time": 61.79090909090909,
                "end_time": 62.02954545454545,
                "pitch": 70,
                "velocity": 25,
                "duration": 0.23863636363635976,
                "tempo": 120.0
            },
            {
                "start_time": 62.03181818181818,
                "end_time": 62.27045454545454,
                "pitch": 70,
                "velocity": 20,
                "duration": 0.23863636363635976,
                "tempo": 120.0
            },
            {
                "start_time": 62.27045454545454,
                "end_time": 62.48863636363636,
                "pitch": 70,
                "velocity": 16,
                "duration": 0.2181818181818187,
                "tempo": 120.0
            },
            {
                "start_time": 62.48863636363636,
                "end_time": 62.72272727272727,
                "pitch": 70,
                "velocity": 13,
                "duration": 0.23409090909090935,
                "tempo": 120.0
            },
            {
                "start_time": 62.72272727272727,
                "end_time": 62.95681818181818,
                "pitch": 70,
                "velocity": 10,
                "duration": 0.23409090909090935,
                "tempo": 120.0
            },
            {
                "start_time": 62.95681818181818,
                "end_time": 63.19090909090909,
                "pitch": 70,
                "velocity": 8,
                "duration": 0.23409090909090935,
                "tempo": 120.0
            },
            {
                "start_time": 63.19090909090909,
                "end_time": 63.425,
                "pitch": 70,
                "velocity": 6,
                "duration": 0.23409090909090935,
                "tempo": 120.0
            }
        ],
        "Acoustic Bass": [
            {
                "start_time": 0.2659090909090909,
                "end_time": 4.011363636363636,
                "pitch": 24,
                "velocity": 80,
                "duration": 3.745454545454545,
                "tempo": 120.0
            },
            {
                "start_time": 4.011363636363636,
                "end_time": 7.75,
                "pitch": 24,
                "velocity": 80,
                "duration": 3.738636363636364,
                "tempo": 120.0
            },
            {
                "start_time": 7.75,
                "end_time": 11.470454545454546,
                "pitch": 24,
                "velocity": 80,
                "duration": 3.7204545454545457,
                "tempo": 120.0
            },
            {
                "start_time": 11.470454545454546,
                "end_time": 15.209090909090909,
                "pitch": 24,
                "velocity": 80,
                "duration": 3.7386363636363633,
                "tempo": 120.0
            },
            {
                "start_time": 15.209090909090909,
                "end_time": 18.920454545454543,
                "pitch": 24,
                "velocity": 80,
                "duration": 3.711363636363634,
                "tempo": 120.0
            },
            {
                "start_time": 18.920454545454543,
                "end_time": 22.659090909090907,
                "pitch": 24,
                "velocity": 80,
                "duration": 3.7386363636363633,
                "tempo": 120.0
            },
            {
                "start_time": 22.659090909090907,
                "end_time": 26.379545454545454,
                "pitch": 24,
                "velocity": 80,
                "duration": 3.7204545454545475,
                "tempo": 120.0
            },
            {
                "start_time": 26.38181818181818,
                "end_time": 30.10909090909091,
                "pitch": 24,
                "velocity": 80,
                "duration": 3.72727272727273,
                "tempo": 120.0
            },
            {
                "start_time": 30.10909090909091,
                "end_time": 33.82954545454545,
                "pitch": 24,
                "velocity": 80,
                "duration": 3.720454545454544,
                "tempo": 120.0
            },
            {
                "start_time": 33.83181818181818,
                "end_time": 37.57954545454545,
                "pitch": 24,
                "velocity": 80,
                "duration": 3.747727272727275,
                "tempo": 120.0
            },
            {
                "start_time": 37.57954545454545,
                "end_time": 41.29090909090909,
                "pitch": 24,
                "velocity": 80,
                "duration": 3.711363636363636,
                "tempo": 120.0
            },
            {
                "start_time": 41.29090909090909,
                "end_time": 45.00454545454545,
                "pitch": 24,
                "velocity": 80,
                "duration": 3.713636363636361,
                "tempo": 120.0
            },
            {
                "start_time": 45.00454545454545,
                "end_time": 48.736363636363635,
                "pitch": 24,
                "velocity": 80,
                "duration": 3.731818181818184,
                "tempo": 120.0
            },
            {
                "start_time": 48.736363636363635,
                "end_time": 52.465909090909086,
                "pitch": 24,
                "velocity": 80,
                "duration": 3.729545454545452,
                "tempo": 120.0
            },
            {
                "start_time": 52.465909090909086,
                "end_time": 56.18181818181818,
                "pitch": 24,
                "velocity": 80,
                "duration": 3.7159090909090935,
                "tempo": 120.0
            },
            {
                "start_time": 56.18181818181818,
                "end_time": 59.91136363636363,
                "pitch": 24,
                "velocity": 80,
                "duration": 3.729545454545452,
                "tempo": 120.0
            },
            {
                "start_time": 59.913636363636364,
                "end_time": 63.65909090909091,
                "pitch": 24,
                "velocity": 80,
                "duration": 3.7454545454545425,
                "tempo": 120.0
            }
        ],
        "Oboe": [
            {
                "start_time": 0.2659090909090909,
                "end_time": 4.011363636363636,
                "pitch": 63,
                "velocity": 51,
                "duration": 3.745454545454545,
                "tempo": 120.0
            },
            {
                "start_time": 4.011363636363636,
                "end_time": 4.488636363636363,
                "pitch": 61,
                "velocity": 51,
                "duration": 0.4772727272727275,
                "tempo": 120.0
            },
            {
                "start_time": 4.49090909090909,
                "end_time": 4.504545454545454,
                "pitch": 55,
                "velocity": 51,
                "duration": 0.013636363636363669,
                "tempo": 120.0
            },
            {
                "start_time": 4.504545454545454,
                "end_time": 4.554545454545455,
                "pitch": 55,
                "velocity": 51,
                "duration": 0.05000000000000071,
                "tempo": 120.0
            },
            {
                "start_time": 4.554545454545455,
                "end_time": 4.6886363636363635,
                "pitch": 55,
                "velocity": 51,
                "duration": 0.13409090909090882,
                "tempo": 120.0
            },
            {
                "start_time": 4.504545454545454,
                "end_time": 4.6886363636363635,
                "pitch": 67,
                "velocity": 51,
                "duration": 0.18409090909090953,
                "tempo": 120.0
            },
            {
                "start_time": 4.554545454545455,
                "end_time": 4.756818181818182,
                "pitch": 0,
                "velocity": 51,
                "duration": 0.20227272727272716,
                "tempo": 120.0
            },
            {
                "start_time": 4.6886363636363635,
                "end_time": 4.756818181818182,
                "pitch": 55,
                "velocity": 51,
                "duration": 0.06818181818181834,
                "tempo": 120.0
            },
            {
                "start_time": 4.756818181818182,
                "end_time": 4.890909090909091,
                "pitch": 55,
                "velocity": 51,
                "duration": 0.13409090909090882,
                "tempo": 120.0
            },
            {
                "start_time": 4.6886363636363635,
                "end_time": 4.890909090909091,
                "pitch": 67,
                "velocity": 51,
                "duration": 0.20227272727272716,
                "tempo": 120.0
            },
            {
                "start_time": 4.756818181818182,
                "end_time": 4.9409090909090905,
                "pitch": 0,
                "velocity": 51,
                "duration": 0.18409090909090864,
                "tempo": 120.0
            },
            {
                "start_time": 4.890909090909091,
                "end_time": 4.9409090909090905,
                "pitch": 55,
                "velocity": 51,
                "duration": 0.04999999999999982,
                "tempo": 120.0
            },
            {
                "start_time": 4.9409090909090905,
                "end_time": 5.075,
                "pitch": 55,
                "velocity": 51,
                "duration": 0.1340909090909097,
                "tempo": 120.0
            },
            {
                "start_time": 4.890909090909091,
                "end_time": 5.075,
                "pitch": 67,
                "velocity": 51,
                "duration": 0.18409090909090953,
                "tempo": 120.0
            },
            {
                "start_time": 4.9409090909090905,
                "end_time": 5.140909090909091,
                "pitch": 0,
                "velocity": 51,
                "duration": 0.20000000000000018,
                "tempo": 120.0
            },
            {
                "start_time": 5.075,
                "end_time": 5.140909090909091,
                "pitch": 55,
                "velocity": 51,
                "duration": 0.06590909090909047,
                "tempo": 120.0
            },
            {
                "start_time": 5.140909090909091,
                "end_time": 5.2749999999999995,
                "pitch": 55,
                "velocity": 51,
                "duration": 0.13409090909090882,
                "tempo": 120.0
            },
            {
                "start_time": 5.075,
                "end_time": 5.2749999999999995,
                "pitch": 67,
                "velocity": 51,
                "duration": 0.1999999999999993,
                "tempo": 120.0
            },
            {
                "start_time": 5.140909090909091,
                "end_time": 5.325,
                "pitch": 0,
                "velocity": 51,
                "duration": 0.18409090909090953,
                "tempo": 120.0
            },
            {
                "start_time": 5.2749999999999995,
                "end_time": 5.325,
                "pitch": 55,
                "velocity": 51,
                "duration": 0.05000000000000071,
                "tempo": 120.0
            },
            {
                "start_time": 5.325,
                "end_time": 5.475,
                "pitch": 55,
                "velocity": 51,
                "duration": 0.14999999999999947,
                "tempo": 120.0
            },
            {
                "start_time": 5.2749999999999995,
                "end_time": 5.475,
                "pitch": 67,
                "velocity": 51,
                "duration": 0.20000000000000018,
                "tempo": 120.0
            },
            {
                "start_time": 5.325,
                "end_time": 5.527272727272727,
                "pitch": 0,
                "velocity": 51,
                "duration": 0.20227272727272716,
                "tempo": 120.0
            },
            {
                "start_time": 5.475,
                "end_time": 5.527272727272727,
                "pitch": 55,
                "velocity": 51,
                "duration": 0.05227272727272769,
                "tempo": 120.0
            },
            {
                "start_time": 5.527272727272727,
                "end_time": 5.661363636363636,
                "pitch": 55,
                "velocity": 51,
                "duration": 0.13409090909090882,
                "tempo": 120.0
            },
            {
                "start_time": 5.475,
                "end_time": 5.661363636363636,
                "pitch": 67,
                "velocity": 51,
                "duration": 0.1863636363636365,
                "tempo": 120.0
            },
            {
                "start_time": 5.527272727272727,
                "end_time": 5.727272727272727,
                "pitch": 0,
                "velocity": 51,
                "duration": 0.1999999999999993,
                "tempo": 120.0
            },
            {
                "start_time": 5.661363636363636,
                "end_time": 5.727272727272727,
                "pitch": 55,
                "velocity": 51,
                "duration": 0.06590909090909047,
                "tempo": 120.0
            },
            {
                "start_time": 5.727272727272727,
                "end_time": 5.861363636363636,
                "pitch": 55,
                "velocity": 51,
                "duration": 0.1340909090909097,
                "tempo": 120.0
            },
            {
                "start_time": 5.661363636363636,
                "end_time": 5.861363636363636,
                "pitch": 67,
                "velocity": 51,
                "duration": 0.20000000000000018,
                "tempo": 120.0
            },
            {
                "start_time": 5.727272727272727,
                "end_time": 5.911363636363636,
                "pitch": 0,
                "velocity": 51,
                "duration": 0.18409090909090953,
                "tempo": 120.0
            },
            {
                "start_time": 5.861363636363636,
                "end_time": 5.911363636363636,
                "pitch": 55,
                "velocity": 51,
                "duration": 0.04999999999999982,
                "tempo": 120.0
            },
            {
                "start_time": 5.911363636363636,
                "end_time": 6.05,
                "pitch": 55,
                "velocity": 51,
                "duration": 0.13863636363636367,
                "tempo": 120.0
            },
            {
                "start_time": 5.861363636363636,
                "end_time": 6.05,
                "pitch": 67,
                "velocity": 51,
                "duration": 0.1886363636363635,
                "tempo": 120.0
            },
            {
                "start_time": 5.911363636363636,
                "end_time": 6.118181818181818,
                "pitch": 0,
                "velocity": 51,
                "duration": 0.206818181818182,
                "tempo": 120.0
            },
            {
                "start_time": 6.05,
                "end_time": 6.118181818181818,
                "pitch": 55,
                "velocity": 51,
                "duration": 0.06818181818181834,
                "tempo": 120.0
            },
            {
                "start_time": 6.118181818181818,
                "end_time": 6.254545454545454,
                "pitch": 55,
                "velocity": 51,
                "duration": 0.1363636363636358,
                "tempo": 120.0
            },
            {
                "start_time": 6.05,
                "end_time": 6.254545454545454,
                "pitch": 67,
                "velocity": 51,
                "duration": 0.20454545454545414,
                "tempo": 120.0
            },
            {
                "start_time": 6.118181818181818,
                "end_time": 6.306818181818182,
                "pitch": 0,
                "velocity": 51,
                "duration": 0.1886363636363635,
                "tempo": 120.0
            },
            {
                "start_time": 6.254545454545454,
                "end_time": 6.306818181818182,
                "pitch": 55,
                "velocity": 51,
                "duration": 0.05227272727272769,
                "tempo": 120.0
            },
            {
                "start_time": 6.306818181818182,
                "end_time": 6.4386363636363635,
                "pitch": 55,
                "velocity": 51,
                "duration": 0.13181818181818183,
                "tempo": 120.0
            },
            {
                "start_time": 6.254545454545454,
                "end_time": 6.4386363636363635,
                "pitch": 67,
                "velocity": 51,
                "duration": 0.18409090909090953,
                "tempo": 120.0
            },
            {
                "start_time": 6.306818181818182,
                "end_time": 6.504545454545454,
                "pitch": 0,
                "velocity": 51,
                "duration": 0.1977272727272723,
                "tempo": 120.0
            },
            {
                "start_time": 6.4386363636363635,
                "end_time": 6.504545454545454,
                "pitch": 55,
                "velocity": 51,
                "duration": 0.06590909090909047,
                "tempo": 120.0
            },
            {
                "start_time": 6.504545454545454,
                "end_time": 6.634090909090909,
                "pitch": 55,
                "velocity": 51,
                "duration": 0.12954545454545485,
                "tempo": 120.0
            },
            {
                "start_time": 6.4386363636363635,
                "end_time": 6.634090909090909,
                "pitch": 67,
                "velocity": 51,
                "duration": 0.19545454545454533,
                "tempo": 120.0
            },
            {
                "start_time": 6.504545454545454,
                "end_time": 6.684090909090909,
                "pitch": 0,
                "velocity": 51,
                "duration": 0.17954545454545467,
                "tempo": 120.0
            },
            {
                "start_time": 6.634090909090909,
                "end_time": 6.684090909090909,
                "pitch": 55,
                "velocity": 51,
                "duration": 0.04999999999999982,
                "tempo": 120.0
            },
            {
                "start_time": 6.684090909090909,
                "end_time": 6.8159090909090905,
                "pitch": 55,
                "velocity": 51,
                "duration": 0.13181818181818183,
                "tempo": 120.0
            },
            {
                "start_time": 6.634090909090909,
                "end_time": 6.8159090909090905,
                "pitch": 67,
                "velocity": 51,
                "duration": 0.18181818181818166,
                "tempo": 120.0
            },
            {
                "start_time": 6.684090909090909,
                "end_time": 6.884090909090909,
                "pitch": 0,
                "velocity": 51,
                "duration": 0.20000000000000018,
                "tempo": 120.0
            },
            {
                "start_time": 6.8159090909090905,
                "end_time": 6.884090909090909,
                "pitch": 55,
                "velocity": 51,
                "duration": 0.06818181818181834,
                "tempo": 120.0
            },
            {
                "start_time": 6.884090909090909,
                "end_time": 7.0204545454545455,
                "pitch": 55,
                "velocity": 51,
                "duration": 0.1363636363636367,
                "tempo": 120.0
            },
            {
                "start_time": 6.8159090909090905,
                "end_time": 7.0204545454545455,
                "pitch": 67,
                "velocity": 51,
                "duration": 0.20454545454545503,
                "tempo": 120.0
            },
            {
                "start_time": 6.884090909090909,
                "end_time": 7.072727272727272,
                "pitch": 0,
                "velocity": 51,
                "duration": 0.1886363636363635,
                "tempo": 120.0
            },
            {
                "start_time": 7.0204545454545455,
                "end_time": 7.072727272727272,
                "pitch": 55,
                "velocity": 51,
                "duration": 0.052272727272726804,
                "tempo": 120.0
            },
            {
                "start_time": 7.072727272727272,
                "end_time": 7.209090909090909,
                "pitch": 55,
                "velocity": 51,
                "duration": 0.1363636363636367,
                "tempo": 120.0
            },
            {
                "start_time": 7.0204545454545455,
                "end_time": 7.209090909090909,
                "pitch": 67,
                "velocity": 51,
                "duration": 0.1886363636363635,
                "tempo": 120.0
            },
            {
                "start_time": 7.072727272727272,
                "end_time": 7.279545454545454,
                "pitch": 0,
                "velocity": 51,
                "duration": 0.206818181818182,
                "tempo": 120.0
            },
            {
                "start_time": 7.209090909090909,
                "end_time": 7.279545454545454,
                "pitch": 55,
                "velocity": 51,
                "duration": 0.07045454545454533,
                "tempo": 120.0
            },
            {
                "start_time": 7.279545454545454,
                "end_time": 7.411363636363636,
                "pitch": 55,
                "velocity": 51,
                "duration": 0.13181818181818183,
                "tempo": 120.0
            },
            {
                "start_time": 7.209090909090909,
                "end_time": 7.411363636363636,
                "pitch": 67,
                "velocity": 51,
                "duration": 0.20227272727272716,
                "tempo": 120.0
            },
            {
                "start_time": 7.279545454545454,
                "end_time": 7.463636363636363,
                "pitch": 0,
                "velocity": 51,
                "duration": 0.18409090909090864,
                "tempo": 120.0
            },
            {
                "start_time": 7.411363636363636,
                "end_time": 7.463636363636363,
                "pitch": 55,
                "velocity": 51,
                "duration": 0.052272727272726804,
                "tempo": 120.0
            },
            {
                "start_time": 7.463636363636363,
                "end_time": 7.595454545454545,
                "pitch": 55,
                "velocity": 51,
                "duration": 0.13181818181818183,
                "tempo": 120.0
            },
            {
                "start_time": 7.411363636363636,
                "end_time": 7.595454545454545,
                "pitch": 67,
                "velocity": 51,
                "duration": 0.18409090909090864,
                "tempo": 120.0
            },
            {
                "start_time": 7.463636363636363,
                "end_time": 7.663636363636363,
                "pitch": 0,
                "velocity": 51,
                "duration": 0.20000000000000018,
                "tempo": 120.0
            },
            {
                "start_time": 7.595454545454545,
                "end_time": 7.663636363636363,
                "pitch": 55,
                "velocity": 51,
                "duration": 0.06818181818181834,
                "tempo": 120.0
            },
            {
                "start_time": 7.663636363636363,
                "end_time": 7.75,
                "pitch": 55,
                "velocity": 51,
                "duration": 0.08636363636363686,
                "tempo": 120.0
            },
            {
                "start_time": 7.75,
                "end_time": 8.211363636363636,
                "pitch": 53,
                "velocity": 51,
                "duration": 0.461363636363636,
                "tempo": 120.0
            },
            {
                "start_time": 8.211363636363636,
                "end_time": 11.472727272727273,
                "pitch": 58,
                "velocity": 51,
                "duration": 3.2613636363636367,
                "tempo": 120.0
            },
            {
                "start_time": 11.472727272727273,
                "end_time": 11.938636363636363,
                "pitch": 56,
                "velocity": 51,
                "duration": 0.46590909090908994,
                "tempo": 120.0
            },
            {
                "start_time": 11.938636363636363,
                "end_time": 12.075,
                "pitch": 55,
                "velocity": 51,
                "duration": 0.1363636363636367,
                "tempo": 120.0
            },
            {
                "start_time": 7.595454545454545,
                "end_time": 12.075,
                "pitch": 67,
                "velocity": 51,
                "duration": 4.4795454545454545,
                "tempo": 120.0
            },
            {
                "start_time": 7.663636363636363,
                "end_time": 12.125,
                "pitch": 0,
                "velocity": 51,
                "duration": 4.461363636363637,
                "tempo": 120.0
            },
            {
                "start_time": 12.075,
                "end_time": 12.125,
                "pitch": 55,
                "velocity": 51,
                "duration": 0.05000000000000071,
                "tempo": 120.0
            },
            {
                "start_time": 12.125,
                "end_time": 12.263636363636364,
                "pitch": 55,
                "velocity": 51,
                "duration": 0.13863636363636367,
                "tempo": 120.0
            },
            {
                "start_time": 12.075,
                "end_time": 12.263636363636364,
                "pitch": 67,
                "velocity": 51,
                "duration": 0.18863636363636438,
                "tempo": 120.0
            },
            {
                "start_time": 12.125,
                "end_time": 12.331818181818182,
                "pitch": 0,
                "velocity": 51,
                "duration": 0.206818181818182,
                "tempo": 120.0
            },
            {
                "start_time": 12.263636363636364,
                "end_time": 12.331818181818182,
                "pitch": 55,
                "velocity": 51,
                "duration": 0.06818181818181834,
                "tempo": 120.0
            },
            {
                "start_time": 12.331818181818182,
                "end_time": 12.46590909090909,
                "pitch": 55,
                "velocity": 51,
                "duration": 0.13409090909090793,
                "tempo": 120.0
            },
            {
                "start_time": 12.263636363636364,
                "end_time": 12.46590909090909,
                "pitch": 67,
                "velocity": 51,
                "duration": 0.20227272727272627,
                "tempo": 120.0
            },
            {
                "start_time": 12.331818181818182,
                "end_time": 12.51590909090909,
                "pitch": 0,
                "velocity": 51,
                "duration": 0.18409090909090864,
                "tempo": 120.0
            },
            {
                "start_time": 12.46590909090909,
                "end_time": 12.51590909090909,
                "pitch": 55,
                "velocity": 51,
                "duration": 0.05000000000000071,
                "tempo": 120.0
            },
            {
                "start_time": 12.51590909090909,
                "end_time": 12.645454545454545,
                "pitch": 55,
                "velocity": 51,
                "duration": 0.12954545454545396,
                "tempo": 120.0
            },
            {
                "start_time": 12.46590909090909,
                "end_time": 12.645454545454545,
                "pitch": 67,
                "velocity": 51,
                "duration": 0.17954545454545467,
                "tempo": 120.0
            },
            {
                "start_time": 12.51590909090909,
                "end_time": 12.711363636363636,
                "pitch": 0,
                "velocity": 51,
                "duration": 0.19545454545454533,
                "tempo": 120.0
            },
            {
                "start_time": 12.645454545454545,
                "end_time": 12.711363636363636,
                "pitch": 55,
                "velocity": 51,
                "duration": 0.06590909090909136,
                "tempo": 120.0
            },
            {
                "start_time": 12.711363636363636,
                "end_time": 12.843181818181817,
                "pitch": 55,
                "velocity": 51,
                "duration": 0.13181818181818095,
                "tempo": 120.0
            },
            {
                "start_time": 12.645454545454545,
                "end_time": 12.843181818181817,
                "pitch": 67,
                "velocity": 51,
                "duration": 0.1977272727272723,
                "tempo": 120.0
            },
            {
                "start_time": 12.711363636363636,
                "end_time": 12.893181818181818,
                "pitch": 0,
                "velocity": 51,
                "duration": 0.18181818181818166,
                "tempo": 120.0
            },
            {
                "start_time": 12.843181818181817,
                "end_time": 12.893181818181818,
                "pitch": 55,
                "velocity": 51,
                "duration": 0.05000000000000071,
                "tempo": 120.0
            },
            {
                "start_time": 12.893181818181818,
                "end_time": 13.047727272727272,
                "pitch": 55,
                "velocity": 51,
                "duration": 0.15454545454545432,
                "tempo": 120.0
            },
            {
                "start_time": 12.843181818181817,
                "end_time": 13.047727272727272,
                "pitch": 67,
                "velocity": 51,
                "duration": 0.20454545454545503,
                "tempo": 120.0
            },
            {
                "start_time": 12.893181818181818,
                "end_time": 13.1,
                "pitch": 0,
                "velocity": 51,
                "duration": 0.206818181818182,
                "tempo": 120.0
            },
            {
                "start_time": 13.047727272727272,
                "end_time": 13.1,
                "pitch": 55,
                "velocity": 51,
                "duration": 0.05227272727272769,
                "tempo": 120.0
            },
            {
                "start_time": 13.1,
                "end_time": 13.234090909090908,
                "pitch": 55,
                "velocity": 51,
                "duration": 0.13409090909090793,
                "tempo": 120.0
            },
            {
                "start_time": 13.047727272727272,
                "end_time": 13.234090909090908,
                "pitch": 67,
                "velocity": 51,
                "duration": 0.18636363636363562,
                "tempo": 120.0
            },
            {
                "start_time": 13.1,
                "end_time": 13.304545454545455,
                "pitch": 0,
                "velocity": 51,
                "duration": 0.20454545454545503,
                "tempo": 120.0
            },
            {
                "start_time": 13.234090909090908,
                "end_time": 13.304545454545455,
                "pitch": 55,
                "velocity": 51,
                "duration": 0.0704545454545471,
                "tempo": 120.0
            },
            {
                "start_time": 13.304545454545455,
                "end_time": 13.438636363636363,
                "pitch": 55,
                "velocity": 51,
                "duration": 0.13409090909090793,
                "tempo": 120.0
            },
            {
                "start_time": 13.234090909090908,
                "end_time": 13.438636363636363,
                "pitch": 67,
                "velocity": 51,
                "duration": 0.20454545454545503,
                "tempo": 120.0
            },
            {
                "start_time": 13.304545454545455,
                "end_time": 13.488636363636363,
                "pitch": 0,
                "velocity": 51,
                "duration": 0.18409090909090864,
                "tempo": 120.0
            },
            {
                "start_time": 13.438636363636363,
                "end_time": 13.488636363636363,
                "pitch": 55,
                "velocity": 51,
                "duration": 0.05000000000000071,
                "tempo": 120.0
            },
            {
                "start_time": 13.488636363636363,
                "end_time": 13.622727272727271,
                "pitch": 55,
                "velocity": 51,
                "duration": 0.13409090909090793,
                "tempo": 120.0
            },
            {
                "start_time": 13.438636363636363,
                "end_time": 13.622727272727271,
                "pitch": 67,
                "velocity": 51,
                "duration": 0.18409090909090864,
                "tempo": 120.0
            },
            {
                "start_time": 13.488636363636363,
                "end_time": 13.688636363636363,
                "pitch": 0,
                "velocity": 51,
                "duration": 0.1999999999999993,
                "tempo": 120.0
            },
            {
                "start_time": 13.622727272727271,
                "end_time": 13.688636363636363,
                "pitch": 55,
                "velocity": 51,
                "duration": 0.06590909090909136,
                "tempo": 120.0
            },
            {
                "start_time": 13.688636363636363,
                "end_time": 13.822727272727272,
                "pitch": 55,
                "velocity": 51,
                "duration": 0.1340909090909097,
                "tempo": 120.0
            },
            {
                "start_time": 13.622727272727271,
                "end_time": 13.822727272727272,
                "pitch": 67,
                "velocity": 51,
                "duration": 0.20000000000000107,
                "tempo": 120.0
            },
            {
                "start_time": 13.688636363636363,
                "end_time": 13.875,
                "pitch": 0,
                "velocity": 51,
                "duration": 0.1863636363636374,
                "tempo": 120.0
            },
            {
                "start_time": 13.822727272727272,
                "end_time": 13.875,
                "pitch": 55,
                "velocity": 51,
                "duration": 0.05227272727272769,
                "tempo": 120.0
            },
            {
                "start_time": 13.875,
                "end_time": 14.011363636363635,
                "pitch": 55,
                "velocity": 51,
                "duration": 0.1363636363636349,
                "tempo": 120.0
            },
            {
                "start_time": 13.822727272727272,
                "end_time": 14.011363636363635,
                "pitch": 67,
                "velocity": 51,
                "duration": 0.1886363636363626,
                "tempo": 120.0
            },
            {
                "start_time": 13.875,
                "end_time": 14.081818181818182,
                "pitch": 0,
                "velocity": 51,
                "duration": 0.206818181818182,
                "tempo": 120.0
            },
            {
                "start_time": 14.011363636363635,
                "end_time": 14.081818181818182,
                "pitch": 55,
                "velocity": 51,
                "duration": 0.0704545454545471,
                "tempo": 120.0
            },
            {
                "start_time": 14.081818181818182,
                "end_time": 14.218181818181817,
                "pitch": 55,
                "velocity": 51,
                "duration": 0.1363636363636349,
                "tempo": 120.0
            },
            {
                "start_time": 14.011363636363635,
                "end_time": 14.218181818181817,
                "pitch": 67,
                "velocity": 51,
                "duration": 0.206818181818182,
                "tempo": 120.0
            },
            {
                "start_time": 14.081818181818182,
                "end_time": 14.270454545454545,
                "pitch": 0,
                "velocity": 51,
                "duration": 0.1886363636363626,
                "tempo": 120.0
            },
            {
                "start_time": 14.218181818181817,
                "end_time": 14.270454545454545,
                "pitch": 55,
                "velocity": 51,
                "duration": 0.05227272727272769,
                "tempo": 120.0
            },
            {
                "start_time": 14.270454545454545,
                "end_time": 14.404545454545454,
                "pitch": 55,
                "velocity": 51,
                "duration": 0.1340909090909097,
                "tempo": 120.0
            },
            {
                "start_time": 14.218181818181817,
                "end_time": 14.404545454545454,
                "pitch": 67,
                "velocity": 51,
                "duration": 0.1863636363636374,
                "tempo": 120.0
            },
            {
                "start_time": 14.270454545454545,
                "end_time": 14.470454545454544,
                "pitch": 0,
                "velocity": 51,
                "duration": 0.1999999999999993,
                "tempo": 120.0
            },
            {
                "start_time": 14.404545454545454,
                "end_time": 14.470454545454544,
                "pitch": 55,
                "velocity": 51,
                "duration": 0.06590909090908958,
                "tempo": 120.0
            },
            {
                "start_time": 14.470454545454544,
                "end_time": 14.604545454545454,
                "pitch": 55,
                "velocity": 51,
                "duration": 0.1340909090909097,
                "tempo": 120.0
            },
            {
                "start_time": 14.404545454545454,
                "end_time": 14.604545454545454,
                "pitch": 67,
                "velocity": 51,
                "duration": 0.1999999999999993,
                "tempo": 120.0
            },
            {
                "start_time": 14.470454545454544,
                "end_time": 14.654545454545454,
                "pitch": 0,
                "velocity": 51,
                "duration": 0.18409090909091042,
                "tempo": 120.0
            },
            {
                "start_time": 14.604545454545454,
                "end_time": 14.654545454545454,
                "pitch": 55,
                "velocity": 51,
                "duration": 0.05000000000000071,
                "tempo": 120.0
            },
            {
                "start_time": 14.654545454545454,
                "end_time": 14.788636363636362,
                "pitch": 55,
                "velocity": 51,
                "duration": 0.13409090909090793,
                "tempo": 120.0
            },
            {
                "start_time": 14.604545454545454,
                "end_time": 14.788636363636362,
                "pitch": 67,
                "velocity": 51,
                "duration": 0.18409090909090864,
                "tempo": 120.0
            },
            {
                "start_time": 14.654545454545454,
                "end_time": 14.854545454545454,
                "pitch": 0,
                "velocity": 51,
                "duration": 0.1999999999999993,
                "tempo": 120.0
            },
            {
                "start_time": 14.788636363636362,
                "end_time": 14.854545454545454,
                "pitch": 55,
                "velocity": 51,
                "duration": 0.06590909090909136,
                "tempo": 120.0
            },
            {
                "start_time": 14.854545454545454,
                "end_time": 14.988636363636363,
                "pitch": 55,
                "velocity": 51,
                "duration": 0.1340909090909097,
                "tempo": 120.0
            },
            {
                "start_time": 14.788636363636362,
                "end_time": 14.988636363636363,
                "pitch": 67,
                "velocity": 51,
                "duration": 0.20000000000000107,
                "tempo": 120.0
            },
            {
                "start_time": 14.854545454545454,
                "end_time": 15.038636363636362,
                "pitch": 0,
                "velocity": 51,
                "duration": 0.18409090909090864,
                "tempo": 120.0
            },
            {
                "start_time": 14.988636363636363,
                "end_time": 15.038636363636362,
                "pitch": 55,
                "velocity": 51,
                "duration": 0.049999999999998934,
                "tempo": 120.0
            },
            {
                "start_time": 15.038636363636362,
                "end_time": 15.172727272727272,
                "pitch": 55,
                "velocity": 51,
                "duration": 0.1340909090909097,
                "tempo": 120.0
            },
            {
                "start_time": 14.988636363636363,
                "end_time": 15.172727272727272,
                "pitch": 67,
                "velocity": 51,
                "duration": 0.18409090909090864,
                "tempo": 120.0
            },
            {
                "start_time": 15.172727272727272,
                "end_time": 15.209090909090909,
                "pitch": 55,
                "velocity": 51,
                "duration": 0.03636363636363704,
                "tempo": 120.0
            },
            {
                "start_time": 15.211363636363636,
                "end_time": 18.920454545454543,
                "pitch": 53,
                "velocity": 51,
                "duration": 3.709090909090907,
                "tempo": 120.0
            },
            {
                "start_time": 18.922727272727272,
                "end_time": 19.052272727272726,
                "pitch": 55,
                "velocity": 51,
                "duration": 0.12954545454545396,
                "tempo": 120.0
            },
            {
                "start_time": 15.172727272727272,
                "end_time": 19.052272727272726,
                "pitch": 67,
                "velocity": 51,
                "duration": 3.879545454545454,
                "tempo": 120.0
            },
            {
                "start_time": 15.038636363636362,
                "end_time": 19.120454545454546,
                "pitch": 0,
                "velocity": 51,
                "duration": 4.081818181818184,
                "tempo": 120.0
            },
            {
                "start_time": 19.052272727272726,
                "end_time": 19.120454545454546,
                "pitch": 55,
                "velocity": 51,
                "duration": 0.06818181818182012,
                "tempo": 120.0
            },
            {
                "start_time": 19.120454545454546,
                "end_time": 19.252272727272725,
                "pitch": 55,
                "velocity": 51,
                "duration": 0.13181818181817917,
                "tempo": 120.0
            },
            {
                "start_time": 19.052272727272726,
                "end_time": 19.252272727272725,
                "pitch": 67,
                "velocity": 51,
                "duration": 0.1999999999999993,
                "tempo": 120.0
            },
            {
                "start_time": 19.120454545454546,
                "end_time": 19.304545454545455,
                "pitch": 0,
                "velocity": 51,
                "duration": 0.18409090909090864,
                "tempo": 120.0
            },
            {
                "start_time": 19.252272727272725,
                "end_time": 19.304545454545455,
                "pitch": 55,
                "velocity": 51,
                "duration": 0.05227272727272947,
                "tempo": 120.0
            },
            {
                "start_time": 19.304545454545455,
                "end_time": 19.438636363636363,
                "pitch": 55,
                "velocity": 51,
                "duration": 0.13409090909090793,
                "tempo": 120.0
            },
            {
                "start_time": 19.252272727272725,
                "end_time": 19.438636363636363,
                "pitch": 67,
                "velocity": 51,
                "duration": 0.1863636363636374,
                "tempo": 120.0
            },
            {
                "start_time": 19.304545454545455,
                "end_time": 19.50681818181818,
                "pitch": 0,
                "velocity": 51,
                "duration": 0.2022727272727245,
                "tempo": 120.0
            },
            {
                "start_time": 19.438636363636363,
                "end_time": 19.50681818181818,
                "pitch": 55,
                "velocity": 51,
                "duration": 0.06818181818181657,
                "tempo": 120.0
            },
            {
                "start_time": 19.50681818181818,
                "end_time": 19.643181818181816,
                "pitch": 55,
                "velocity": 51,
                "duration": 0.1363636363636367,
                "tempo": 120.0
            },
            {
                "start_time": 19.438636363636363,
                "end_time": 19.643181818181816,
                "pitch": 67,
                "velocity": 51,
                "duration": 0.20454545454545325,
                "tempo": 120.0
            },
            {
                "start_time": 19.50681818181818,
                "end_time": 19.695454545454545,
                "pitch": 0,
                "velocity": 51,
                "duration": 0.18863636363636616,
                "tempo": 120.0
            },
            {
                "start_time": 19.643181818181816,
                "end_time": 19.695454545454545,
                "pitch": 55,
                "velocity": 51,
                "duration": 0.05227272727272947,
                "tempo": 120.0
            },
            {
                "start_time": 19.695454545454545,
                "end_time": 19.831818181818182,
                "pitch": 55,
                "velocity": 51,
                "duration": 0.1363636363636367,
                "tempo": 120.0
            },
            {
                "start_time": 19.643181818181816,
                "end_time": 19.831818181818182,
                "pitch": 67,
                "velocity": 51,
                "duration": 0.18863636363636616,
                "tempo": 120.0
            },
            {
                "start_time": 19.695454545454545,
                "end_time": 19.902272727272727,
                "pitch": 0,
                "velocity": 51,
                "duration": 0.206818181818182,
                "tempo": 120.0
            },
            {
                "start_time": 19.831818181818182,
                "end_time": 19.902272727272727,
                "pitch": 55,
                "velocity": 51,
                "duration": 0.07045454545454533,
                "tempo": 120.0
            },
            {
                "start_time": 19.902272727272727,
                "end_time": 20.038636363636364,
                "pitch": 55,
                "velocity": 51,
                "duration": 0.1363636363636367,
                "tempo": 120.0
            },
            {
                "start_time": 19.831818181818182,
                "end_time": 20.038636363636364,
                "pitch": 67,
                "velocity": 51,
                "duration": 0.206818181818182,
                "tempo": 120.0
            },
            {
                "start_time": 19.902272727272727,
                "end_time": 20.09090909090909,
                "pitch": 0,
                "velocity": 51,
                "duration": 0.1886363636363626,
                "tempo": 120.0
            },
            {
                "start_time": 20.038636363636364,
                "end_time": 20.09090909090909,
                "pitch": 55,
                "velocity": 51,
                "duration": 0.052272727272725916,
                "tempo": 120.0
            },
            {
                "start_time": 20.09090909090909,
                "end_time": 20.227272727272727,
                "pitch": 55,
                "velocity": 51,
                "duration": 0.1363636363636367,
                "tempo": 120.0
            },
            {
                "start_time": 20.038636363636364,
                "end_time": 20.227272727272727,
                "pitch": 67,
                "velocity": 51,
                "duration": 0.1886363636363626,
                "tempo": 120.0
            },
            {
                "start_time": 20.09090909090909,
                "end_time": 20.295454545454543,
                "pitch": 0,
                "velocity": 51,
                "duration": 0.20454545454545325,
                "tempo": 120.0
            },
            {
                "start_time": 20.227272727272727,
                "end_time": 20.295454545454543,
                "pitch": 55,
                "velocity": 51,
                "duration": 0.06818181818181657,
                "tempo": 120.0
            },
            {
                "start_time": 20.295454545454543,
                "end_time": 20.429545454545455,
                "pitch": 55,
                "velocity": 51,
                "duration": 0.13409090909091148,
                "tempo": 120.0
            },
            {
                "start_time": 20.227272727272727,
                "end_time": 20.429545454545455,
                "pitch": 67,
                "velocity": 51,
                "duration": 0.20227272727272805,
                "tempo": 120.0
            },
            {
                "start_time": 20.295454545454543,
                "end_time": 20.479545454545452,
                "pitch": 0,
                "velocity": 51,
                "duration": 0.18409090909090864,
                "tempo": 120.0
            },
            {
                "start_time": 20.429545454545455,
                "end_time": 20.479545454545452,
                "pitch": 55,
                "velocity": 51,
                "duration": 0.04999999999999716,
                "tempo": 120.0
            },
            {
                "start_time": 20.479545454545452,
                "end_time": 20.63181818181818,
                "pitch": 55,
                "velocity": 51,
                "duration": 0.15227272727272734,
                "tempo": 120.0
            },
            {
                "start_time": 20.429545454545455,
                "end_time": 20.63181818181818,
                "pitch": 67,
                "velocity": 51,
                "duration": 0.2022727272727245,
                "tempo": 120.0
            },
            {
                "start_time": 20.479545454545452,
                "end_time": 20.68181818181818,
                "pitch": 0,
                "velocity": 51,
                "duration": 0.20227272727272805,
                "tempo": 120.0
            },
            {
                "start_time": 20.63181818181818,
                "end_time": 20.68181818181818,
                "pitch": 55,
                "velocity": 51,
                "duration": 0.05000000000000071,
                "tempo": 120.0
            },
            {
                "start_time": 20.68181818181818,
                "end_time": 20.81590909090909,
                "pitch": 55,
                "velocity": 51,
                "duration": 0.13409090909091148,
                "tempo": 120.0
            },
            {
                "start_time": 20.63181818181818,
                "end_time": 20.81590909090909,
                "pitch": 67,
                "velocity": 51,
                "duration": 0.1840909090909122,
                "tempo": 120.0
            },
            {
                "start_time": 20.68181818181818,
                "end_time": 20.88181818181818,
                "pitch": 0,
                "velocity": 51,
                "duration": 0.1999999999999993,
                "tempo": 120.0
            },
            {
                "start_time": 20.81590909090909,
                "end_time": 20.88181818181818,
                "pitch": 55,
                "velocity": 51,
                "duration": 0.06590909090908781,
                "tempo": 120.0
            },
            {
                "start_time": 20.88181818181818,
                "end_time": 21.01590909090909,
                "pitch": 55,
                "velocity": 51,
                "duration": 0.13409090909091148,
                "tempo": 120.0
            },
            {
                "start_time": 20.81590909090909,
                "end_time": 21.01590909090909,
                "pitch": 67,
                "velocity": 51,
                "duration": 0.1999999999999993,
                "tempo": 120.0
            },
            {
                "start_time": 20.88181818181818,
                "end_time": 21.06590909090909,
                "pitch": 0,
                "velocity": 51,
                "duration": 0.1840909090909122,
                "tempo": 120.0
            },
            {
                "start_time": 21.01590909090909,
                "end_time": 21.06590909090909,
                "pitch": 55,
                "velocity": 51,
                "duration": 0.05000000000000071,
                "tempo": 120.0
            },
            {
                "start_time": 21.06590909090909,
                "end_time": 21.2,
                "pitch": 55,
                "velocity": 51,
                "duration": 0.13409090909090793,
                "tempo": 120.0
            },
            {
                "start_time": 21.01590909090909,
                "end_time": 21.2,
                "pitch": 67,
                "velocity": 51,
                "duration": 0.18409090909090864,
                "tempo": 120.0
            },
            {
                "start_time": 21.06590909090909,
                "end_time": 21.268181818181816,
                "pitch": 0,
                "velocity": 51,
                "duration": 0.2022727272727245,
                "tempo": 120.0
            },
            {
                "start_time": 21.2,
                "end_time": 21.268181818181816,
                "pitch": 55,
                "velocity": 51,
                "duration": 0.06818181818181657,
                "tempo": 120.0
            },
            {
                "start_time": 21.268181818181816,
                "end_time": 21.402272727272727,
                "pitch": 55,
                "velocity": 51,
                "duration": 0.13409090909091148,
                "tempo": 120.0
            },
            {
                "start_time": 21.2,
                "end_time": 21.402272727272727,
                "pitch": 67,
                "velocity": 51,
                "duration": 0.20227272727272805,
                "tempo": 120.0
            },
            {
                "start_time": 21.268181818181816,
                "end_time": 21.452272727272724,
                "pitch": 0,
                "velocity": 51,
                "duration": 0.18409090909090864,
                "tempo": 120.0
            },
            {
                "start_time": 21.402272727272727,
                "end_time": 21.452272727272724,
                "pitch": 55,
                "velocity": 51,
                "duration": 0.04999999999999716,
                "tempo": 120.0
            },
            {
                "start_time": 21.452272727272724,
                "end_time": 21.586363636363636,
                "pitch": 55,
                "velocity": 51,
                "duration": 0.13409090909091148,
                "tempo": 120.0
            },
            {
                "start_time": 21.402272727272727,
                "end_time": 21.586363636363636,
                "pitch": 67,
                "velocity": 51,
                "duration": 0.18409090909090864,
                "tempo": 120.0
            },
            {
                "start_time": 21.452272727272724,
                "end_time": 21.652272727272727,
                "pitch": 0,
                "velocity": 51,
                "duration": 0.20000000000000284,
                "tempo": 120.0
            },
            {
                "start_time": 21.586363636363636,
                "end_time": 21.652272727272727,
                "pitch": 55,
                "velocity": 51,
                "duration": 0.06590909090909136,
                "tempo": 120.0
            },
            {
                "start_time": 21.652272727272727,
                "end_time": 21.786363636363635,
                "pitch": 55,
                "velocity": 51,
                "duration": 0.13409090909090793,
                "tempo": 120.0
            },
            {
                "start_time": 21.586363636363636,
                "end_time": 21.786363636363635,
                "pitch": 67,
                "velocity": 51,
                "duration": 0.1999999999999993,
                "tempo": 120.0
            },
            {
                "start_time": 21.652272727272727,
                "end_time": 21.836363636363636,
                "pitch": 0,
                "velocity": 51,
                "duration": 0.18409090909090864,
                "tempo": 120.0
            },
            {
                "start_time": 21.786363636363635,
                "end_time": 21.836363636363636,
                "pitch": 55,
                "velocity": 51,
                "duration": 0.05000000000000071,
                "tempo": 120.0
            },
            {
                "start_time": 21.836363636363636,
                "end_time": 21.970454545454544,
                "pitch": 55,
                "velocity": 51,
                "duration": 0.13409090909090793,
                "tempo": 120.0
            },
            {
                "start_time": 21.786363636363635,
                "end_time": 21.970454545454544,
                "pitch": 67,
                "velocity": 51,
                "duration": 0.18409090909090864,
                "tempo": 120.0
            },
            {
                "start_time": 21.970454545454544,
                "end_time": 22.036363636363635,
                "pitch": 55,
                "velocity": 51,
                "duration": 0.06590909090909136,
                "tempo": 120.0
            },
            {
                "start_time": 21.836363636363636,
                "end_time": 22.038636363636364,
                "pitch": 0,
                "velocity": 51,
                "duration": 0.20227272727272805,
                "tempo": 120.0
            },
            {
                "start_time": 22.036363636363635,
                "end_time": 22.038636363636364,
                "pitch": 0,
                "velocity": 51,
                "duration": 0.0022727272727287584,
                "tempo": 120.0
            },
            {
                "start_time": 22.038636363636364,
                "end_time": 22.170454545454543,
                "pitch": 55,
                "velocity": 51,
                "duration": 0.13181818181817917,
                "tempo": 120.0
            },
            {
                "start_time": 21.970454545454544,
                "end_time": 22.170454545454543,
                "pitch": 67,
                "velocity": 51,
                "duration": 0.1999999999999993,
                "tempo": 120.0
            },
            {
                "start_time": 22.170454545454543,
                "end_time": 22.222727272727273,
                "pitch": 55,
                "velocity": 51,
                "duration": 0.05227272727272947,
                "tempo": 120.0
            },
            {
                "start_time": 22.222727272727273,
                "end_time": 22.354545454545452,
                "pitch": 55,
                "velocity": 51,
                "duration": 0.13181818181817917,
                "tempo": 120.0
            },
            {
                "start_time": 22.170454545454543,
                "end_time": 22.354545454545452,
                "pitch": 67,
                "velocity": 51,
                "duration": 0.18409090909090864,
                "tempo": 120.0
            },
            {
                "start_time": 22.222727272727273,
                "end_time": 22.422727272727272,
                "pitch": 0,
                "velocity": 51,
                "duration": 0.1999999999999993,
                "tempo": 120.0
            },
            {
                "start_time": 22.354545454545452,
                "end_time": 22.422727272727272,
                "pitch": 55,
                "velocity": 51,
                "duration": 0.06818181818182012,
                "tempo": 120.0
            },
            {
                "start_time": 22.422727272727272,
                "end_time": 22.55681818181818,
                "pitch": 55,
                "velocity": 51,
                "duration": 0.13409090909090793,
                "tempo": 120.0
            },
            {
                "start_time": 22.354545454545452,
                "end_time": 22.55681818181818,
                "pitch": 67,
                "velocity": 51,
                "duration": 0.20227272727272805,
                "tempo": 120.0
            },
            {
                "start_time": 22.422727272727272,
                "end_time": 22.60681818181818,
                "pitch": 0,
                "velocity": 51,
                "duration": 0.18409090909090864,
                "tempo": 120.0
            },
            {
                "start_time": 22.55681818181818,
                "end_time": 22.60681818181818,
                "pitch": 55,
                "velocity": 51,
                "duration": 0.05000000000000071,
                "tempo": 120.0
            },
            {
                "start_time": 22.60681818181818,
                "end_time": 22.659090909090907,
                "pitch": 55,
                "velocity": 51,
                "duration": 0.052272727272725916,
                "tempo": 120.0
            },
            {
                "start_time": 22.661363636363635,
                "end_time": 23.120454545454546,
                "pitch": 61,
                "velocity": 51,
                "duration": 0.45909090909091077,
                "tempo": 120.0
            },
            {
                "start_time": 23.120454545454546,
                "end_time": 26.38181818181818,
                "pitch": 60,
                "velocity": 51,
                "duration": 3.261363636363633,
                "tempo": 120.0
            },
            {
                "start_time": 26.38181818181818,
                "end_time": 30.10909090909091,
                "pitch": 63,
                "velocity": 51,
                "duration": 3.72727272727273,
                "tempo": 120.0
            },
            {
                "start_time": 30.10909090909091,
                "end_time": 30.570454545454545,
                "pitch": 61,
                "velocity": 51,
                "duration": 0.461363636363636,
                "tempo": 120.0
            },
            {
                "start_time": 30.570454545454545,
                "end_time": 30.71590909090909,
                "pitch": 55,
                "velocity": 51,
                "duration": 0.14545454545454461,
                "tempo": 120.0
            },
            {
                "start_time": 22.55681818181818,
                "end_time": 30.71590909090909,
                "pitch": 67,
                "velocity": 51,
                "duration": 8.15909090909091,
                "tempo": 120.0
            },
            {
                "start_time": 22.60681818181818,
                "end_time": 30.76590909090909,
                "pitch": 0,
                "velocity": 51,
                "duration": 8.15909090909091,
                "tempo": 120.0
            },
            {
                "start_time": 30.71590909090909,
                "end_time": 30.76590909090909,
                "pitch": 55,
                "velocity": 51,
                "duration": 0.05000000000000071,
                "tempo": 120.0
            },
            {
                "start_time": 30.76590909090909,
                "end_time": 30.895454545454545,
                "pitch": 55,
                "velocity": 51,
                "duration": 0.12954545454545396,
                "tempo": 120.0
            },
            {
                "start_time": 30.71590909090909,
                "end_time": 30.895454545454545,
                "pitch": 67,
                "velocity": 51,
                "duration": 0.17954545454545467,
                "tempo": 120.0
            },
            {
                "start_time": 30.76590909090909,
                "end_time": 30.961363636363636,
                "pitch": 0,
                "velocity": 51,
                "duration": 0.19545454545454533,
                "tempo": 120.0
            },
            {
                "start_time": 30.895454545454545,
                "end_time": 30.961363636363636,
                "pitch": 55,
                "velocity": 51,
                "duration": 0.06590909090909136,
                "tempo": 120.0
            },
            {
                "start_time": 30.961363636363636,
                "end_time": 31.095454545454544,
                "pitch": 55,
                "velocity": 51,
                "duration": 0.13409090909090793,
                "tempo": 120.0
            },
            {
                "start_time": 30.895454545454545,
                "end_time": 31.095454545454544,
                "pitch": 67,
                "velocity": 51,
                "duration": 0.1999999999999993,
                "tempo": 120.0
            },
            {
                "start_time": 30.961363636363636,
                "end_time": 31.14772727272727,
                "pitch": 0,
                "velocity": 51,
                "duration": 0.18636363636363384,
                "tempo": 120.0
            },
            {
                "start_time": 31.095454545454544,
                "end_time": 31.14772727272727,
                "pitch": 55,
                "velocity": 51,
                "duration": 0.052272727272725916,
                "tempo": 120.0
            },
            {
                "start_time": 31.14772727272727,
                "end_time": 31.284090909090907,
                "pitch": 55,
                "velocity": 51,
                "duration": 0.1363636363636367,
                "tempo": 120.0
            },
            {
                "start_time": 31.095454545454544,
                "end_time": 31.284090909090907,
                "pitch": 67,
                "velocity": 51,
                "duration": 0.1886363636363626,
                "tempo": 120.0
            },
            {
                "start_time": 31.14772727272727,
                "end_time": 31.352272727272727,
                "pitch": 0,
                "velocity": 51,
                "duration": 0.2045454545454568,
                "tempo": 120.0
            },
            {
                "start_time": 31.284090909090907,
                "end_time": 31.352272727272727,
                "pitch": 55,
                "velocity": 51,
                "duration": 0.06818181818182012,
                "tempo": 120.0
            },
            {
                "start_time": 31.352272727272727,
                "end_time": 31.488636363636363,
                "pitch": 55,
                "velocity": 51,
                "duration": 0.1363636363636367,
                "tempo": 120.0
            },
            {
                "start_time": 31.284090909090907,
                "end_time": 31.488636363636363,
                "pitch": 67,
                "velocity": 51,
                "duration": 0.2045454545454568,
                "tempo": 120.0
            },
            {
                "start_time": 31.352272727272727,
                "end_time": 31.54090909090909,
                "pitch": 0,
                "velocity": 51,
                "duration": 0.1886363636363626,
                "tempo": 120.0
            },
            {
                "start_time": 31.488636363636363,
                "end_time": 31.54090909090909,
                "pitch": 55,
                "velocity": 51,
                "duration": 0.052272727272725916,
                "tempo": 120.0
            },
            {
                "start_time": 31.54090909090909,
                "end_time": 31.674999999999997,
                "pitch": 55,
                "velocity": 51,
                "duration": 0.13409090909090793,
                "tempo": 120.0
            },
            {
                "start_time": 31.488636363636363,
                "end_time": 31.674999999999997,
                "pitch": 67,
                "velocity": 51,
                "duration": 0.18636363636363384,
                "tempo": 120.0
            },
            {
                "start_time": 31.54090909090909,
                "end_time": 31.74090909090909,
                "pitch": 0,
                "velocity": 51,
                "duration": 0.1999999999999993,
                "tempo": 120.0
            },
            {
                "start_time": 31.674999999999997,
                "end_time": 31.74090909090909,
                "pitch": 55,
                "velocity": 51,
                "duration": 0.06590909090909136,
                "tempo": 120.0
            },
            {
                "start_time": 31.74090909090909,
                "end_time": 31.875,
                "pitch": 55,
                "velocity": 51,
                "duration": 0.13409090909091148,
                "tempo": 120.0
            },
            {
                "start_time": 31.674999999999997,
                "end_time": 31.875,
                "pitch": 67,
                "velocity": 51,
                "duration": 0.20000000000000284,
                "tempo": 120.0
            },
            {
                "start_time": 31.74090909090909,
                "end_time": 31.924999999999997,
                "pitch": 0,
                "velocity": 51,
                "duration": 0.18409090909090864,
                "tempo": 120.0
            },
            {
                "start_time": 31.875,
                "end_time": 31.924999999999997,
                "pitch": 55,
                "velocity": 51,
                "duration": 0.04999999999999716,
                "tempo": 120.0
            },
            {
                "start_time": 31.924999999999997,
                "end_time": 32.05681818181818,
                "pitch": 55,
                "velocity": 51,
                "duration": 0.13181818181818272,
                "tempo": 120.0
            },
            {
                "start_time": 31.875,
                "end_time": 32.05681818181818,
                "pitch": 67,
                "velocity": 51,
                "duration": 0.18181818181817988,
                "tempo": 120.0
            },
            {
                "start_time": 31.924999999999997,
                "end_time": 32.12272727272727,
                "pitch": 0,
                "velocity": 51,
                "duration": 0.19772727272727053,
                "tempo": 120.0
            },
            {
                "start_time": 32.05681818181818,
                "end_time": 32.12272727272727,
                "pitch": 55,
                "velocity": 51,
                "duration": 0.06590909090908781,
                "tempo": 120.0
            },
            {
                "start_time": 32.12272727272727,
                "end_time": 32.252272727272725,
                "pitch": 55,
                "velocity": 51,
                "duration": 0.12954545454545752,
                "tempo": 120.0
            },
            {
                "start_time": 32.05681818181818,
                "end_time": 32.252272727272725,
                "pitch": 67,
                "velocity": 51,
                "duration": 0.19545454545454533,
                "tempo": 120.0
            },
            {
                "start_time": 32.12272727272727,
                "end_time": 32.30227272727272,
                "pitch": 0,
                "velocity": 51,
                "duration": 0.17954545454545467,
                "tempo": 120.0
            },
            {
                "start_time": 32.252272727272725,
                "end_time": 32.30227272727272,
                "pitch": 55,
                "velocity": 51,
                "duration": 0.04999999999999716,
                "tempo": 120.0
            },
            {
                "start_time": 32.30227272727272,
                "end_time": 32.434090909090905,
                "pitch": 55,
                "velocity": 51,
                "duration": 0.13181818181818272,
                "tempo": 120.0
            },
            {
                "start_time": 32.252272727272725,
                "end_time": 32.434090909090905,
                "pitch": 67,
                "velocity": 51,
                "duration": 0.18181818181817988,
                "tempo": 120.0
            },
            {
                "start_time": 32.30227272727272,
                "end_time": 32.50454545454545,
                "pitch": 0,
                "velocity": 51,
                "duration": 0.20227272727272805,
                "tempo": 120.0
            },
            {
                "start_time": 32.434090909090905,
                "end_time": 32.50454545454545,
                "pitch": 55,
                "velocity": 51,
                "duration": 0.07045454545454533,
                "tempo": 120.0
            },
            {
                "start_time": 32.50454545454545,
                "end_time": 32.643181818181816,
                "pitch": 55,
                "velocity": 51,
                "duration": 0.13863636363636545,
                "tempo": 120.0
            },
            {
                "start_time": 32.434090909090905,
                "end_time": 32.643181818181816,
                "pitch": 67,
                "velocity": 51,
                "duration": 0.20909090909091077,
                "tempo": 120.0
            },
            {
                "start_time": 32.50454545454545,
                "end_time": 32.69772727272727,
                "pitch": 0,
                "velocity": 51,
                "duration": 0.19318181818182012,
                "tempo": 120.0
            },
            {
                "start_time": 32.643181818181816,
                "end_time": 32.69772727272727,
                "pitch": 55,
                "velocity": 51,
                "duration": 0.054545454545454675,
                "tempo": 120.0
            },
            {
                "start_time": 32.69772727272727,
                "end_time": 32.836363636363636,
                "pitch": 55,
                "velocity": 51,
                "duration": 0.13863636363636545,
                "tempo": 120.0
            },
            {
                "start_time": 32.643181818181816,
                "end_time": 32.836363636363636,
                "pitch": 67,
                "velocity": 51,
                "duration": 0.19318181818182012,
                "tempo": 120.0
            },
            {
                "start_time": 32.69772727272727,
                "end_time": 32.90681818181818,
                "pitch": 0,
                "velocity": 51,
                "duration": 0.20909090909091077,
                "tempo": 120.0
            },
            {
                "start_time": 32.836363636363636,
                "end_time": 32.90681818181818,
                "pitch": 55,
                "velocity": 51,
                "duration": 0.07045454545454533,
                "tempo": 120.0
            },
            {
                "start_time": 32.90681818181818,
                "end_time": 33.038636363636364,
                "pitch": 55,
                "velocity": 51,
                "duration": 0.13181818181818272,
                "tempo": 120.0
            },
            {
                "start_time": 32.836363636363636,
                "end_time": 33.038636363636364,
                "pitch": 67,
                "velocity": 51,
                "duration": 0.20227272727272805,
                "tempo": 120.0
            },
            {
                "start_time": 32.90681818181818,
                "end_time": 33.086363636363636,
                "pitch": 0,
                "velocity": 51,
                "duration": 0.17954545454545467,
                "tempo": 120.0
            },
            {
                "start_time": 33.038636363636364,
                "end_time": 33.086363636363636,
                "pitch": 55,
                "velocity": 51,
                "duration": 0.04772727272727195,
                "tempo": 120.0
            },
            {
                "start_time": 33.086363636363636,
                "end_time": 33.23409090909091,
                "pitch": 55,
                "velocity": 51,
                "duration": 0.14772727272727337,
                "tempo": 120.0
            },
            {
                "start_time": 33.038636363636364,
                "end_time": 33.23409090909091,
                "pitch": 67,
                "velocity": 51,
                "duration": 0.19545454545454533,
                "tempo": 120.0
            },
            {
                "start_time": 33.086363636363636,
                "end_time": 33.28409090909091,
                "pitch": 0,
                "velocity": 51,
                "duration": 0.19772727272727053,
                "tempo": 120.0
            },
            {
                "start_time": 33.23409090909091,
                "end_time": 33.28409090909091,
                "pitch": 55,
                "velocity": 51,
                "duration": 0.04999999999999716,
                "tempo": 120.0
            },
            {
                "start_time": 33.28409090909091,
                "end_time": 33.41590909090909,
                "pitch": 55,
                "velocity": 51,
                "duration": 0.13181818181818272,
                "tempo": 120.0
            },
            {
                "start_time": 33.23409090909091,
                "end_time": 33.41590909090909,
                "pitch": 67,
                "velocity": 51,
                "duration": 0.18181818181817988,
                "tempo": 120.0
            },
            {
                "start_time": 33.28409090909091,
                "end_time": 33.486363636363635,
                "pitch": 0,
                "velocity": 51,
                "duration": 0.20227272727272805,
                "tempo": 120.0
            },
            {
                "start_time": 33.41590909090909,
                "end_time": 33.486363636363635,
                "pitch": 55,
                "velocity": 51,
                "duration": 0.07045454545454533,
                "tempo": 120.0
            },
            {
                "start_time": 33.486363636363635,
                "end_time": 33.62272727272727,
                "pitch": 55,
                "velocity": 51,
                "duration": 0.13636363636363313,
                "tempo": 120.0
            },
            {
                "start_time": 33.41590909090909,
                "end_time": 33.62272727272727,
                "pitch": 67,
                "velocity": 51,
                "duration": 0.20681818181817846,
                "tempo": 120.0
            },
            {
                "start_time": 33.486363636363635,
                "end_time": 33.67272727272727,
                "pitch": 0,
                "velocity": 51,
                "duration": 0.1863636363636374,
                "tempo": 120.0
            },
            {
                "start_time": 33.62272727272727,
                "end_time": 33.67272727272727,
                "pitch": 55,
                "velocity": 51,
                "duration": 0.05000000000000426,
                "tempo": 120.0
            },
            {
                "start_time": 33.67272727272727,
                "end_time": 33.81136363636364,
                "pitch": 55,
                "velocity": 51,
                "duration": 0.13863636363636545,
                "tempo": 120.0
            },
            {
                "start_time": 33.62272727272727,
                "end_time": 33.81136363636364,
                "pitch": 67,
                "velocity": 51,
                "duration": 0.1886363636363697,
                "tempo": 120.0
            },
            {
                "start_time": 33.81136363636364,
                "end_time": 33.83181818181818,
                "pitch": 55,
                "velocity": 51,
                "duration": 0.020454545454541062,
                "tempo": 120.0
            },
            {
                "start_time": 33.83181818181818,
                "end_time": 34.29772727272727,
                "pitch": 53,
                "velocity": 51,
                "duration": 0.4659090909090935,
                "tempo": 120.0
            },
            {
                "start_time": 34.29772727272727,
                "end_time": 37.57954545454545,
                "pitch": 58,
                "velocity": 51,
                "duration": 3.2818181818181813,
                "tempo": 120.0
            },
            {
                "start_time": 37.58181818181818,
                "end_time": 38.03636363636363,
                "pitch": 56,
                "velocity": 51,
                "duration": 0.45454545454545325,
                "tempo": 120.0
            },
            {
                "start_time": 38.03636363636363,
                "end_time": 38.086363636363636,
                "pitch": 55,
                "velocity": 51,
                "duration": 0.05000000000000426,
                "tempo": 120.0
            },
            {
                "start_time": 33.81136363636364,
                "end_time": 38.086363636363636,
                "pitch": 67,
                "velocity": 51,
                "duration": 4.274999999999999,
                "tempo": 120.0
            },
            {
                "start_time": 33.67272727272727,
                "end_time": 38.13863636363636,
                "pitch": 0,
                "velocity": 51,
                "duration": 4.465909090909086,
                "tempo": 120.0
            },
            {
                "start_time": 38.086363636363636,
                "end_time": 38.13863636363636,
                "pitch": 55,
                "velocity": 51,
                "duration": 0.052272727272722364,
                "tempo": 120.0
            },
            {
                "start_time": 38.13863636363636,
                "end_time": 38.293181818181814,
                "pitch": 55,
                "velocity": 51,
                "duration": 0.1545454545454561,
                "tempo": 120.0
            },
            {
                "start_time": 38.086363636363636,
                "end_time": 38.293181818181814,
                "pitch": 67,
                "velocity": 51,
                "duration": 0.20681818181817846,
                "tempo": 120.0
            },
            {
                "start_time": 38.13863636363636,
                "end_time": 38.34318181818182,
                "pitch": 0,
                "velocity": 51,
                "duration": 0.20454545454546036,
                "tempo": 120.0
            },
            {
                "start_time": 38.293181818181814,
                "end_time": 38.34318181818182,
                "pitch": 55,
                "velocity": 51,
                "duration": 0.05000000000000426,
                "tempo": 120.0
            },
            {
                "start_time": 38.34318181818182,
                "end_time": 38.48181818181818,
                "pitch": 55,
                "velocity": 51,
                "duration": 0.13863636363635834,
                "tempo": 120.0
            },
            {
                "start_time": 38.293181818181814,
                "end_time": 38.48181818181818,
                "pitch": 67,
                "velocity": 51,
                "duration": 0.1886363636363626,
                "tempo": 120.0
            },
            {
                "start_time": 38.34318181818182,
                "end_time": 38.54772727272727,
                "pitch": 0,
                "velocity": 51,
                "duration": 0.20454545454545325,
                "tempo": 120.0
            },
            {
                "start_time": 38.48181818181818,
                "end_time": 38.54772727272727,
                "pitch": 55,
                "velocity": 51,
                "duration": 0.06590909090909491,
                "tempo": 120.0
            },
            {
                "start_time": 38.54772727272727,
                "end_time": 38.67727272727272,
                "pitch": 55,
                "velocity": 51,
                "duration": 0.1295454545454504,
                "tempo": 120.0
            },
            {
                "start_time": 38.48181818181818,
                "end_time": 38.67727272727272,
                "pitch": 67,
                "velocity": 51,
                "duration": 0.19545454545454533,
                "tempo": 120.0
            },
            {
                "start_time": 38.54772727272727,
                "end_time": 38.72727272727273,
                "pitch": 0,
                "velocity": 51,
                "duration": 0.17954545454545467,
                "tempo": 120.0
            },
            {
                "start_time": 38.67727272727272,
                "end_time": 38.72727272727273,
                "pitch": 55,
                "velocity": 51,
                "duration": 0.05000000000000426,
                "tempo": 120.0
            },
            {
                "start_time": 38.72727272727273,
                "end_time": 38.85909090909091,
                "pitch": 55,
                "velocity": 51,
                "duration": 0.13181818181818272,
                "tempo": 120.0
            },
            {
                "start_time": 38.67727272727272,
                "end_time": 38.85909090909091,
                "pitch": 67,
                "velocity": 51,
                "duration": 0.18181818181818699,
                "tempo": 120.0
            },
            {
                "start_time": 38.72727272727273,
                "end_time": 38.92272727272727,
                "pitch": 0,
                "velocity": 51,
                "duration": 0.19545454545454533,
                "tempo": 120.0
            },
            {
                "start_time": 38.85909090909091,
                "end_time": 38.92272727272727,
                "pitch": 55,
                "velocity": 51,
                "duration": 0.0636363636363626,
                "tempo": 120.0
            },
            {
                "start_time": 38.92272727272727,
                "end_time": 39.059090909090905,
                "pitch": 55,
                "velocity": 51,
                "duration": 0.13636363636363313,
                "tempo": 120.0
            },
            {
                "start_time": 38.85909090909091,
                "end_time": 39.059090909090905,
                "pitch": 67,
                "velocity": 51,
                "duration": 0.19999999999999574,
                "tempo": 120.0
            },
            {
                "start_time": 38.92272727272727,
                "end_time": 39.111363636363635,
                "pitch": 0,
                "velocity": 51,
                "duration": 0.1886363636363626,
                "tempo": 120.0
            },
            {
                "start_time": 39.059090909090905,
                "end_time": 39.111363636363635,
                "pitch": 55,
                "velocity": 51,
                "duration": 0.05227272727272947,
                "tempo": 120.0
            },
            {
                "start_time": 39.111363636363635,
                "end_time": 39.24772727272727,
                "pitch": 55,
                "velocity": 51,
                "duration": 0.13636363636363313,
                "tempo": 120.0
            },
            {
                "start_time": 39.059090909090905,
                "end_time": 39.24772727272727,
                "pitch": 67,
                "velocity": 51,
                "duration": 0.1886363636363626,
                "tempo": 120.0
            },
            {
                "start_time": 39.111363636363635,
                "end_time": 39.31590909090909,
                "pitch": 0,
                "velocity": 51,
                "duration": 0.20454545454545325,
                "tempo": 120.0
            },
            {
                "start_time": 39.24772727272727,
                "end_time": 39.31590909090909,
                "pitch": 55,
                "velocity": 51,
                "duration": 0.06818181818182012,
                "tempo": 120.0
            },
            {
                "start_time": 39.31590909090909,
                "end_time": 39.45227272727273,
                "pitch": 55,
                "velocity": 51,
                "duration": 0.13636363636364024,
                "tempo": 120.0
            },
            {
                "start_time": 39.24772727272727,
                "end_time": 39.45227272727273,
                "pitch": 67,
                "velocity": 51,
                "duration": 0.20454545454546036,
                "tempo": 120.0
            },
            {
                "start_time": 39.31590909090909,
                "end_time": 39.50454545454545,
                "pitch": 0,
                "velocity": 51,
                "duration": 0.1886363636363626,
                "tempo": 120.0
            },
            {
                "start_time": 39.45227272727273,
                "end_time": 39.50454545454545,
                "pitch": 55,
                "velocity": 51,
                "duration": 0.052272727272722364,
                "tempo": 120.0
            },
            {
                "start_time": 39.50454545454545,
                "end_time": 39.64090909090909,
                "pitch": 55,
                "velocity": 51,
                "duration": 0.13636363636364024,
                "tempo": 120.0
            },
            {
                "start_time": 39.45227272727273,
                "end_time": 39.64090909090909,
                "pitch": 67,
                "velocity": 51,
                "duration": 0.1886363636363626,
                "tempo": 120.0
            },
            {
                "start_time": 39.50454545454545,
                "end_time": 39.711363636363636,
                "pitch": 0,
                "velocity": 51,
                "duration": 0.20681818181818556,
                "tempo": 120.0
            },
            {
                "start_time": 39.64090909090909,
                "end_time": 39.711363636363636,
                "pitch": 55,
                "velocity": 51,
                "duration": 0.07045454545454533,
                "tempo": 120.0
            },
            {
                "start_time": 39.711363636363636,
                "end_time": 39.84772727272727,
                "pitch": 55,
                "velocity": 51,
                "duration": 0.13636363636363313,
                "tempo": 120.0
            },
            {
                "start_time": 39.64090909090909,
                "end_time": 39.84772727272727,
                "pitch": 67,
                "velocity": 51,
                "duration": 0.20681818181817846,
                "tempo": 120.0
            },
            {
                "start_time": 39.711363636363636,
                "end_time": 39.9,
                "pitch": 0,
                "velocity": 51,
                "duration": 0.1886363636363626,
                "tempo": 120.0
            },
            {
                "start_time": 39.84772727272727,
                "end_time": 39.9,
                "pitch": 55,
                "velocity": 51,
                "duration": 0.05227272727272947,
                "tempo": 120.0
            },
            {
                "start_time": 39.9,
                "end_time": 40.029545454545456,
                "pitch": 55,
                "velocity": 51,
                "duration": 0.12954545454545752,
                "tempo": 120.0
            },
            {
                "start_time": 39.84772727272727,
                "end_time": 40.029545454545456,
                "pitch": 67,
                "velocity": 51,
                "duration": 0.18181818181818699,
                "tempo": 120.0
            },
            {
                "start_time": 39.9,
                "end_time": 40.095454545454544,
                "pitch": 0,
                "velocity": 51,
                "duration": 0.19545454545454533,
                "tempo": 120.0
            },
            {
                "start_time": 40.029545454545456,
                "end_time": 40.095454545454544,
                "pitch": 55,
                "velocity": 51,
                "duration": 0.06590909090908781,
                "tempo": 120.0
            },
            {
                "start_time": 40.095454545454544,
                "end_time": 40.22727272727273,
                "pitch": 55,
                "velocity": 51,
                "duration": 0.13181818181818272,
                "tempo": 120.0
            },
            {
                "start_time": 40.029545454545456,
                "end_time": 40.22727272727273,
                "pitch": 67,
                "velocity": 51,
                "duration": 0.19772727272727053,
                "tempo": 120.0
            },
            {
                "start_time": 40.095454545454544,
                "end_time": 40.275,
                "pitch": 0,
                "velocity": 51,
                "duration": 0.17954545454545467,
                "tempo": 120.0
            },
            {
                "start_time": 40.22727272727273,
                "end_time": 40.275,
                "pitch": 55,
                "velocity": 51,
                "duration": 0.04772727272727195,
                "tempo": 120.0
            },
            {
                "start_time": 40.275,
                "end_time": 40.40681818181818,
                "pitch": 55,
                "velocity": 51,
                "duration": 0.13181818181818272,
                "tempo": 120.0
            },
            {
                "start_time": 40.22727272727273,
                "end_time": 40.40681818181818,
                "pitch": 67,
                "velocity": 51,
                "duration": 0.17954545454545467,
                "tempo": 120.0
            },
            {
                "start_time": 40.275,
                "end_time": 40.475,
                "pitch": 0,
                "velocity": 51,
                "duration": 0.20000000000000284,
                "tempo": 120.0
            },
            {
                "start_time": 40.40681818181818,
                "end_time": 40.475,
                "pitch": 55,
                "velocity": 51,
                "duration": 0.06818181818182012,
                "tempo": 120.0
            },
            {
                "start_time": 40.475,
                "end_time": 40.60909090909091,
                "pitch": 55,
                "velocity": 51,
                "duration": 0.13409090909090793,
                "tempo": 120.0
            },
            {
                "start_time": 40.40681818181818,
                "end_time": 40.60909090909091,
                "pitch": 67,
                "velocity": 51,
                "duration": 0.20227272727272805,
                "tempo": 120.0
            },
            {
                "start_time": 40.475,
                "end_time": 40.65909090909091,
                "pitch": 0,
                "velocity": 51,
                "duration": 0.18409090909090509,
                "tempo": 120.0
            },
            {
                "start_time": 40.60909090909091,
                "end_time": 40.65909090909091,
                "pitch": 55,
                "velocity": 51,
                "duration": 0.04999999999999716,
                "tempo": 120.0
            },
            {
                "start_time": 40.65909090909091,
                "end_time": 40.809090909090905,
                "pitch": 55,
                "velocity": 51,
                "duration": 0.14999999999999858,
                "tempo": 120.0
            },
            {
                "start_time": 40.60909090909091,
                "end_time": 40.809090909090905,
                "pitch": 67,
                "velocity": 51,
                "duration": 0.19999999999999574,
                "tempo": 120.0
            },
            {
                "start_time": 40.809090909090905,
                "end_time": 40.85909090909091,
                "pitch": 55,
                "velocity": 51,
                "duration": 0.05000000000000426,
                "tempo": 120.0
            },
            {
                "start_time": 40.65909090909091,
                "end_time": 40.861363636363635,
                "pitch": 0,
                "velocity": 51,
                "duration": 0.20227272727272805,
                "tempo": 120.0
            },
            {
                "start_time": 40.85909090909091,
                "end_time": 40.861363636363635,
                "pitch": 0,
                "velocity": 51,
                "duration": 0.0022727272727252057,
                "tempo": 120.0
            },
            {
                "start_time": 40.861363636363635,
                "end_time": 40.99772727272727,
                "pitch": 55,
                "velocity": 51,
                "duration": 0.13636363636363313,
                "tempo": 120.0
            },
            {
                "start_time": 40.809090909090905,
                "end_time": 40.99772727272727,
                "pitch": 67,
                "velocity": 51,
                "duration": 0.1886363636363626,
                "tempo": 120.0
            },
            {
                "start_time": 40.99772727272727,
                "end_time": 41.06590909090909,
                "pitch": 55,
                "velocity": 51,
                "duration": 0.06818181818182012,
                "tempo": 120.0
            },
            {
                "start_time": 41.06590909090909,
                "end_time": 41.20227272727273,
                "pitch": 55,
                "velocity": 51,
                "duration": 0.13636363636364024,
                "tempo": 120.0
            },
            {
                "start_time": 40.99772727272727,
                "end_time": 41.20227272727273,
                "pitch": 67,
                "velocity": 51,
                "duration": 0.20454545454546036,
                "tempo": 120.0
            },
            {
                "start_time": 41.06590909090909,
                "end_time": 41.25454545454545,
                "pitch": 0,
                "velocity": 51,
                "duration": 0.1886363636363626,
                "tempo": 120.0
            },
            {
                "start_time": 41.20227272727273,
                "end_time": 41.25454545454545,
                "pitch": 55,
                "velocity": 51,
                "duration": 0.052272727272722364,
                "tempo": 120.0
            },
            {
                "start_time": 41.25454545454545,
                "end_time": 41.29090909090909,
                "pitch": 55,
                "velocity": 51,
                "duration": 0.03636363636363882,
                "tempo": 120.0
            },
            {
                "start_time": 41.293181818181814,
                "end_time": 45.00454545454545,
                "pitch": 53,
                "velocity": 51,
                "duration": 3.711363636363636,
                "tempo": 120.0
            },
            {
                "start_time": 45.00681818181818,
                "end_time": 45.054545454545455,
                "pitch": 55,
                "velocity": 51,
                "duration": 0.04772727272727195,
                "tempo": 120.0
            },
            {
                "start_time": 41.20227272727273,
                "end_time": 45.054545454545455,
                "pitch": 67,
                "velocity": 51,
                "duration": 3.8522727272727266,
                "tempo": 120.0
            },
            {
                "start_time": 41.25454545454545,
                "end_time": 45.12272727272727,
                "pitch": 0,
                "velocity": 51,
                "duration": 3.8681818181818173,
                "tempo": 120.0
            },
            {
                "start_time": 45.054545454545455,
                "end_time": 45.12272727272727,
                "pitch": 55,
                "velocity": 51,
                "duration": 0.06818181818181301,
                "tempo": 120.0
            },
            {
                "start_time": 45.12272727272727,
                "end_time": 45.25909090909091,
                "pitch": 55,
                "velocity": 51,
                "duration": 0.13636363636364024,
                "tempo": 120.0
            },
            {
                "start_time": 45.054545454545455,
                "end_time": 45.25909090909091,
                "pitch": 67,
                "velocity": 51,
                "duration": 0.20454545454545325,
                "tempo": 120.0
            },
            {
                "start_time": 45.12272727272727,
                "end_time": 45.31136363636364,
                "pitch": 0,
                "velocity": 51,
                "duration": 0.1886363636363697,
                "tempo": 120.0
            },
            {
                "start_time": 45.25909090909091,
                "end_time": 45.31136363636364,
                "pitch": 55,
                "velocity": 51,
                "duration": 0.05227272727272947,
                "tempo": 120.0
            },
            {
                "start_time": 45.31136363636364,
                "end_time": 45.44772727272727,
                "pitch": 55,
                "velocity": 51,
                "duration": 0.13636363636363313,
                "tempo": 120.0
            },
            {
                "start_time": 45.25909090909091,
                "end_time": 45.44772727272727,
                "pitch": 67,
                "velocity": 51,
                "duration": 0.1886363636363626,
                "tempo": 120.0
            },
            {
                "start_time": 45.31136363636364,
                "end_time": 45.51590909090909,
                "pitch": 0,
                "velocity": 51,
                "duration": 0.20454545454545325,
                "tempo": 120.0
            },
            {
                "start_time": 45.44772727272727,
                "end_time": 45.51590909090909,
                "pitch": 55,
                "velocity": 51,
                "duration": 0.06818181818182012,
                "tempo": 120.0
            },
            {
                "start_time": 45.51590909090909,
                "end_time": 45.65,
                "pitch": 55,
                "velocity": 51,
                "duration": 0.13409090909090793,
                "tempo": 120.0
            },
            {
                "start_time": 45.44772727272727,
                "end_time": 45.65,
                "pitch": 67,
                "velocity": 51,
                "duration": 0.20227272727272805,
                "tempo": 120.0
            },
            {
                "start_time": 45.51590909090909,
                "end_time": 45.699999999999996,
                "pitch": 0,
                "velocity": 51,
                "duration": 0.18409090909090509,
                "tempo": 120.0
            },
            {
                "start_time": 45.65,
                "end_time": 45.699999999999996,
                "pitch": 55,
                "velocity": 51,
                "duration": 0.04999999999999716,
                "tempo": 120.0
            },
            {
                "start_time": 45.699999999999996,
                "end_time": 45.849999999999994,
                "pitch": 55,
                "velocity": 51,
                "duration": 0.14999999999999858,
                "tempo": 120.0
            },
            {
                "start_time": 45.65,
                "end_time": 45.849999999999994,
                "pitch": 67,
                "velocity": 51,
                "duration": 0.19999999999999574,
                "tempo": 120.0
            },
            {
                "start_time": 45.699999999999996,
                "end_time": 45.9,
                "pitch": 0,
                "velocity": 51,
                "duration": 0.20000000000000284,
                "tempo": 120.0
            },
            {
                "start_time": 45.849999999999994,
                "end_time": 45.9,
                "pitch": 55,
                "velocity": 51,
                "duration": 0.05000000000000426,
                "tempo": 120.0
            },
            {
                "start_time": 45.9,
                "end_time": 46.03636363636363,
                "pitch": 55,
                "velocity": 51,
                "duration": 0.13636363636363313,
                "tempo": 120.0
            },
            {
                "start_time": 45.849999999999994,
                "end_time": 46.03636363636363,
                "pitch": 67,
                "velocity": 51,
                "duration": 0.1863636363636374,
                "tempo": 120.0
            },
            {
                "start_time": 45.9,
                "end_time": 46.10454545454545,
                "pitch": 0,
                "velocity": 51,
                "duration": 0.20454545454545325,
                "tempo": 120.0
            },
            {
                "start_time": 46.03636363636363,
                "end_time": 46.10454545454545,
                "pitch": 55,
                "velocity": 51,
                "duration": 0.06818181818182012,
                "tempo": 120.0
            },
            {
                "start_time": 46.10454545454545,
                "end_time": 46.24318181818182,
                "pitch": 55,
                "velocity": 51,
                "duration": 0.13863636363636545,
                "tempo": 120.0
            },
            {
                "start_time": 46.03636363636363,
                "end_time": 46.24318181818182,
                "pitch": 67,
                "velocity": 51,
                "duration": 0.20681818181818556,
                "tempo": 120.0
            },
            {
                "start_time": 46.10454545454545,
                "end_time": 46.293181818181814,
                "pitch": 0,
                "velocity": 51,
                "duration": 0.1886363636363626,
                "tempo": 120.0
            },
            {
                "start_time": 46.24318181818182,
                "end_time": 46.293181818181814,
                "pitch": 55,
                "velocity": 51,
                "duration": 0.04999999999999716,
                "tempo": 120.0
            },
            {
                "start_time": 46.293181818181814,
                "end_time": 46.429545454545455,
                "pitch": 55,
                "velocity": 51,
                "duration": 0.13636363636364024,
                "tempo": 120.0
            },
            {
                "start_time": 46.24318181818182,
                "end_time": 46.429545454545455,
                "pitch": 67,
                "velocity": 51,
                "duration": 0.1863636363636374,
                "tempo": 120.0
            },
            {
                "start_time": 46.293181818181814,
                "end_time": 46.49772727272727,
                "pitch": 0,
                "velocity": 51,
                "duration": 0.20454545454545325,
                "tempo": 120.0
            },
            {
                "start_time": 46.429545454545455,
                "end_time": 46.49772727272727,
                "pitch": 55,
                "velocity": 51,
                "duration": 0.06818181818181301,
                "tempo": 120.0
            },
            {
                "start_time": 46.49772727272727,
                "end_time": 46.63181818181818,
                "pitch": 55,
                "velocity": 51,
                "duration": 0.13409090909091503,
                "tempo": 120.0
            },
            {
                "start_time": 46.429545454545455,
                "end_time": 46.63181818181818,
                "pitch": 67,
                "velocity": 51,
                "duration": 0.20227272727272805,
                "tempo": 120.0
            },
            {
                "start_time": 46.49772727272727,
                "end_time": 46.68181818181818,
                "pitch": 0,
                "velocity": 51,
                "duration": 0.1840909090909122,
                "tempo": 120.0
            },
            {
                "start_time": 46.63181818181818,
                "end_time": 46.68181818181818,
                "pitch": 55,
                "velocity": 51,
                "duration": 0.04999999999999716,
                "tempo": 120.0
            },
            {
                "start_time": 46.68181818181818,
                "end_time": 46.81590909090909,
                "pitch": 55,
                "velocity": 51,
                "duration": 0.13409090909090793,
                "tempo": 120.0
            },
            {
                "start_time": 46.63181818181818,
                "end_time": 46.81590909090909,
                "pitch": 67,
                "velocity": 51,
                "duration": 0.18409090909090509,
                "tempo": 120.0
            },
            {
                "start_time": 46.68181818181818,
                "end_time": 46.88409090909091,
                "pitch": 0,
                "velocity": 51,
                "duration": 0.20227272727272805,
                "tempo": 120.0
            },
            {
                "start_time": 46.81590909090909,
                "end_time": 46.88409090909091,
                "pitch": 55,
                "velocity": 51,
                "duration": 0.06818181818182012,
                "tempo": 120.0
            },
            {
                "start_time": 46.88409090909091,
                "end_time": 47.02045454545454,
                "pitch": 55,
                "velocity": 51,
                "duration": 0.13636363636363313,
                "tempo": 120.0
            },
            {
                "start_time": 46.81590909090909,
                "end_time": 47.02045454545454,
                "pitch": 67,
                "velocity": 51,
                "duration": 0.20454545454545325,
                "tempo": 120.0
            },
            {
                "start_time": 46.88409090909091,
                "end_time": 47.070454545454545,
                "pitch": 0,
                "velocity": 51,
                "duration": 0.1863636363636374,
                "tempo": 120.0
            },
            {
                "start_time": 47.02045454545454,
                "end_time": 47.070454545454545,
                "pitch": 55,
                "velocity": 51,
                "duration": 0.05000000000000426,
                "tempo": 120.0
            },
            {
                "start_time": 47.070454545454545,
                "end_time": 47.20681818181818,
                "pitch": 55,
                "velocity": 51,
                "duration": 0.13636363636363313,
                "tempo": 120.0
            },
            {
                "start_time": 47.02045454545454,
                "end_time": 47.20681818181818,
                "pitch": 67,
                "velocity": 51,
                "duration": 0.1863636363636374,
                "tempo": 120.0
            },
            {
                "start_time": 47.070454545454545,
                "end_time": 47.277272727272724,
                "pitch": 0,
                "velocity": 51,
                "duration": 0.20681818181817846,
                "tempo": 120.0
            },
            {
                "start_time": 47.20681818181818,
                "end_time": 47.277272727272724,
                "pitch": 55,
                "velocity": 51,
                "duration": 0.07045454545454533,
                "tempo": 120.0
            },
            {
                "start_time": 47.277272727272724,
                "end_time": 47.41136363636363,
                "pitch": 55,
                "velocity": 51,
                "duration": 0.13409090909090793,
                "tempo": 120.0
            },
            {
                "start_time": 47.20681818181818,
                "end_time": 47.41136363636363,
                "pitch": 67,
                "velocity": 51,
                "duration": 0.20454545454545325,
                "tempo": 120.0
            },
            {
                "start_time": 47.277272727272724,
                "end_time": 47.459090909090904,
                "pitch": 0,
                "velocity": 51,
                "duration": 0.18181818181817988,
                "tempo": 120.0
            },
            {
                "start_time": 47.41136363636363,
                "end_time": 47.459090909090904,
                "pitch": 55,
                "velocity": 51,
                "duration": 0.04772727272727195,
                "tempo": 120.0
            },
            {
                "start_time": 47.459090909090904,
                "end_time": 47.590909090909086,
                "pitch": 55,
                "velocity": 51,
                "duration": 0.13181818181818272,
                "tempo": 120.0
            },
            {
                "start_time": 47.41136363636363,
                "end_time": 47.590909090909086,
                "pitch": 67,
                "velocity": 51,
                "duration": 0.17954545454545467,
                "tempo": 120.0
            },
            {
                "start_time": 47.459090909090904,
                "end_time": 47.65681818181818,
                "pitch": 0,
                "velocity": 51,
                "duration": 0.19772727272727764,
                "tempo": 120.0
            },
            {
                "start_time": 47.590909090909086,
                "end_time": 47.65681818181818,
                "pitch": 55,
                "velocity": 51,
                "duration": 0.06590909090909491,
                "tempo": 120.0
            },
            {
                "start_time": 47.65681818181818,
                "end_time": 47.78636363636363,
                "pitch": 55,
                "velocity": 51,
                "duration": 0.1295454545454504,
                "tempo": 120.0
            },
            {
                "start_time": 47.590909090909086,
                "end_time": 47.78636363636363,
                "pitch": 67,
                "velocity": 51,
                "duration": 0.19545454545454533,
                "tempo": 120.0
            },
            {
                "start_time": 47.65681818181818,
                "end_time": 47.836363636363636,
                "pitch": 0,
                "velocity": 51,
                "duration": 0.17954545454545467,
                "tempo": 120.0
            },
            {
                "start_time": 47.78636363636363,
                "end_time": 47.836363636363636,
                "pitch": 55,
                "velocity": 51,
                "duration": 0.05000000000000426,
                "tempo": 120.0
            },
            {
                "start_time": 47.836363636363636,
                "end_time": 47.974999999999994,
                "pitch": 55,
                "velocity": 51,
                "duration": 0.13863636363635834,
                "tempo": 120.0
            },
            {
                "start_time": 47.78636363636363,
                "end_time": 47.974999999999994,
                "pitch": 67,
                "velocity": 51,
                "duration": 0.1886363636363626,
                "tempo": 120.0
            },
            {
                "start_time": 47.836363636363636,
                "end_time": 48.043181818181814,
                "pitch": 0,
                "velocity": 51,
                "duration": 0.20681818181817846,
                "tempo": 120.0
            },
            {
                "start_time": 47.974999999999994,
                "end_time": 48.043181818181814,
                "pitch": 55,
                "velocity": 51,
                "duration": 0.06818181818182012,
                "tempo": 120.0
            },
            {
                "start_time": 48.043181818181814,
                "end_time": 48.179545454545455,
                "pitch": 55,
                "velocity": 51,
                "duration": 0.13636363636364024,
                "tempo": 120.0
            },
            {
                "start_time": 47.974999999999994,
                "end_time": 48.179545454545455,
                "pitch": 67,
                "velocity": 51,
                "duration": 0.20454545454546036,
                "tempo": 120.0
            },
            {
                "start_time": 48.043181818181814,
                "end_time": 48.23181818181818,
                "pitch": 0,
                "velocity": 51,
                "duration": 0.1886363636363626,
                "tempo": 120.0
            },
            {
                "start_time": 48.179545454545455,
                "end_time": 48.23181818181818,
                "pitch": 55,
                "velocity": 51,
                "duration": 0.052272727272722364,
                "tempo": 120.0
            },
            {
                "start_time": 48.23181818181818,
                "end_time": 48.38409090909091,
                "pitch": 55,
                "velocity": 51,
                "duration": 0.1522727272727309,
                "tempo": 120.0
            },
            {
                "start_time": 48.179545454545455,
                "end_time": 48.38409090909091,
                "pitch": 67,
                "velocity": 51,
                "duration": 0.20454545454545325,
                "tempo": 120.0
            },
            {
                "start_time": 48.23181818181818,
                "end_time": 48.434090909090905,
                "pitch": 0,
                "velocity": 51,
                "duration": 0.20227272727272805,
                "tempo": 120.0
            },
            {
                "start_time": 48.38409090909091,
                "end_time": 48.434090909090905,
                "pitch": 55,
                "velocity": 51,
                "duration": 0.04999999999999716,
                "tempo": 120.0
            },
            {
                "start_time": 48.434090909090905,
                "end_time": 48.56818181818181,
                "pitch": 55,
                "velocity": 51,
                "duration": 0.13409090909090793,
                "tempo": 120.0
            },
            {
                "start_time": 48.38409090909091,
                "end_time": 48.56818181818181,
                "pitch": 67,
                "velocity": 51,
                "duration": 0.18409090909090509,
                "tempo": 120.0
            },
            {
                "start_time": 48.434090909090905,
                "end_time": 48.63409090909091,
                "pitch": 0,
                "velocity": 51,
                "duration": 0.20000000000000284,
                "tempo": 120.0
            },
            {
                "start_time": 48.56818181818181,
                "end_time": 48.63409090909091,
                "pitch": 55,
                "velocity": 51,
                "duration": 0.06590909090909491,
                "tempo": 120.0
            },
            {
                "start_time": 48.63409090909091,
                "end_time": 48.73863636363636,
                "pitch": 55,
                "velocity": 51,
                "duration": 0.10454545454545183,
                "tempo": 120.0
            },
            {
                "start_time": 48.73863636363636,
                "end_time": 49.19318181818181,
                "pitch": 61,
                "velocity": 51,
                "duration": 0.45454545454545325,
                "tempo": 120.0
            },
            {
                "start_time": 49.19318181818181,
                "end_time": 52.465909090909086,
                "pitch": 60,
                "velocity": 51,
                "duration": 3.2727272727272734,
                "tempo": 120.0
            },
            {
                "start_time": 52.465909090909086,
                "end_time": 56.184090909090905,
                "pitch": 63,
                "velocity": 51,
                "duration": 3.7181818181818187,
                "tempo": 120.0
            },
            {
                "start_time": 56.184090909090905,
                "end_time": 56.66136363636363,
                "pitch": 61,
                "velocity": 51,
                "duration": 0.4772727272727266,
                "tempo": 120.0
            },
            {
                "start_time": 56.663636363636364,
                "end_time": 56.72727272727273,
                "pitch": 55,
                "velocity": 51,
                "duration": 0.0636363636363626,
                "tempo": 120.0
            },
            {
                "start_time": 48.56818181818181,
                "end_time": 56.72727272727273,
                "pitch": 67,
                "velocity": 51,
                "duration": 8.159090909090914,
                "tempo": 120.0
            },
            {
                "start_time": 48.63409090909091,
                "end_time": 56.777272727272724,
                "pitch": 0,
                "velocity": 51,
                "duration": 8.143181818181816,
                "tempo": 120.0
            },
            {
                "start_time": 56.72727272727273,
                "end_time": 56.777272727272724,
                "pitch": 55,
                "velocity": 51,
                "duration": 0.04999999999999716,
                "tempo": 120.0
            },
            {
                "start_time": 56.777272727272724,
                "end_time": 56.90681818181818,
                "pitch": 55,
                "velocity": 51,
                "duration": 0.12954545454545752,
                "tempo": 120.0
            },
            {
                "start_time": 56.72727272727273,
                "end_time": 56.90681818181818,
                "pitch": 67,
                "velocity": 51,
                "duration": 0.17954545454545467,
                "tempo": 120.0
            },
            {
                "start_time": 56.777272727272724,
                "end_time": 56.97272727272727,
                "pitch": 0,
                "velocity": 51,
                "duration": 0.19545454545454533,
                "tempo": 120.0
            },
            {
                "start_time": 56.90681818181818,
                "end_time": 56.97272727272727,
                "pitch": 55,
                "velocity": 51,
                "duration": 0.06590909090908781,
                "tempo": 120.0
            },
            {
                "start_time": 56.97272727272727,
                "end_time": 57.10227272727273,
                "pitch": 55,
                "velocity": 51,
                "duration": 0.12954545454545752,
                "tempo": 120.0
            },
            {
                "start_time": 56.90681818181818,
                "end_time": 57.10227272727273,
                "pitch": 67,
                "velocity": 51,
                "duration": 0.19545454545454533,
                "tempo": 120.0
            },
            {
                "start_time": 56.97272727272727,
                "end_time": 57.15454545454545,
                "pitch": 0,
                "velocity": 51,
                "duration": 0.18181818181817988,
                "tempo": 120.0
            },
            {
                "start_time": 57.10227272727273,
                "end_time": 57.15454545454545,
                "pitch": 55,
                "velocity": 51,
                "duration": 0.052272727272722364,
                "tempo": 120.0
            },
            {
                "start_time": 57.15454545454545,
                "end_time": 57.293181818181814,
                "pitch": 55,
                "velocity": 51,
                "duration": 0.13863636363636545,
                "tempo": 120.0
            },
            {
                "start_time": 57.10227272727273,
                "end_time": 57.293181818181814,
                "pitch": 67,
                "velocity": 51,
                "duration": 0.1909090909090878,
                "tempo": 120.0
            },
            {
                "start_time": 57.15454545454545,
                "end_time": 57.365909090909085,
                "pitch": 0,
                "velocity": 51,
                "duration": 0.21136363636363598,
                "tempo": 120.0
            },
            {
                "start_time": 57.293181818181814,
                "end_time": 57.365909090909085,
                "pitch": 55,
                "velocity": 51,
                "duration": 0.07272727272727053,
                "tempo": 120.0
            },
            {
                "start_time": 57.365909090909085,
                "end_time": 57.50454545454545,
                "pitch": 55,
                "velocity": 51,
                "duration": 0.13863636363636545,
                "tempo": 120.0
            },
            {
                "start_time": 57.293181818181814,
                "end_time": 57.50454545454545,
                "pitch": 67,
                "velocity": 51,
                "duration": 0.21136363636363598,
                "tempo": 120.0
            },
            {
                "start_time": 57.365909090909085,
                "end_time": 57.55681818181818,
                "pitch": 0,
                "velocity": 51,
                "duration": 0.19090909090909491,
                "tempo": 120.0
            },
            {
                "start_time": 57.50454545454545,
                "end_time": 57.55681818181818,
                "pitch": 55,
                "velocity": 51,
                "duration": 0.05227272727272947,
                "tempo": 120.0
            },
            {
                "start_time": 57.55681818181818,
                "end_time": 57.69318181818181,
                "pitch": 55,
                "velocity": 51,
                "duration": 0.13636363636363313,
                "tempo": 120.0
            },
            {
                "start_time": 57.50454545454545,
                "end_time": 57.69318181818181,
                "pitch": 67,
                "velocity": 51,
                "duration": 0.1886363636363626,
                "tempo": 120.0
            },
            {
                "start_time": 57.55681818181818,
                "end_time": 57.76136363636363,
                "pitch": 0,
                "velocity": 51,
                "duration": 0.20454545454545325,
                "tempo": 120.0
            },
            {
                "start_time": 57.69318181818181,
                "end_time": 57.76136363636363,
                "pitch": 55,
                "velocity": 51,
                "duration": 0.06818181818182012,
                "tempo": 120.0
            },
            {
                "start_time": 57.76136363636363,
                "end_time": 57.89545454545454,
                "pitch": 55,
                "velocity": 51,
                "duration": 0.13409090909090793,
                "tempo": 120.0
            },
            {
                "start_time": 57.69318181818181,
                "end_time": 57.89545454545454,
                "pitch": 67,
                "velocity": 51,
                "duration": 0.20227272727272805,
                "tempo": 120.0
            },
            {
                "start_time": 57.76136363636363,
                "end_time": 57.945454545454545,
                "pitch": 0,
                "velocity": 51,
                "duration": 0.1840909090909122,
                "tempo": 120.0
            },
            {
                "start_time": 57.89545454545454,
                "end_time": 57.945454545454545,
                "pitch": 55,
                "velocity": 51,
                "duration": 0.05000000000000426,
                "tempo": 120.0
            },
            {
                "start_time": 57.945454545454545,
                "end_time": 58.07954545454545,
                "pitch": 55,
                "velocity": 51,
                "duration": 0.13409090909090793,
                "tempo": 120.0
            },
            {
                "start_time": 57.89545454545454,
                "end_time": 58.07954545454545,
                "pitch": 67,
                "velocity": 51,
                "duration": 0.1840909090909122,
                "tempo": 120.0
            },
            {
                "start_time": 57.945454545454545,
                "end_time": 58.14545454545454,
                "pitch": 0,
                "velocity": 51,
                "duration": 0.19999999999999574,
                "tempo": 120.0
            },
            {
                "start_time": 58.07954545454545,
                "end_time": 58.14545454545454,
                "pitch": 55,
                "velocity": 51,
                "duration": 0.06590909090908781,
                "tempo": 120.0
            },
            {
                "start_time": 58.14545454545454,
                "end_time": 58.27954545454545,
                "pitch": 55,
                "velocity": 51,
                "duration": 0.13409090909090793,
                "tempo": 120.0
            },
            {
                "start_time": 58.07954545454545,
                "end_time": 58.27954545454545,
                "pitch": 67,
                "velocity": 51,
                "duration": 0.19999999999999574,
                "tempo": 120.0
            },
            {
                "start_time": 58.14545454545454,
                "end_time": 58.32954545454545,
                "pitch": 0,
                "velocity": 51,
                "duration": 0.1840909090909122,
                "tempo": 120.0
            },
            {
                "start_time": 58.27954545454545,
                "end_time": 58.32954545454545,
                "pitch": 55,
                "velocity": 51,
                "duration": 0.05000000000000426,
                "tempo": 120.0
            },
            {
                "start_time": 58.32954545454545,
                "end_time": 58.48181818181818,
                "pitch": 55,
                "velocity": 51,
                "duration": 0.15227272727272378,
                "tempo": 120.0
            },
            {
                "start_time": 58.27954545454545,
                "end_time": 58.48181818181818,
                "pitch": 67,
                "velocity": 51,
                "duration": 0.20227272727272805,
                "tempo": 120.0
            },
            {
                "start_time": 58.32954545454545,
                "end_time": 58.53181818181818,
                "pitch": 0,
                "velocity": 51,
                "duration": 0.20227272727272805,
                "tempo": 120.0
            },
            {
                "start_time": 58.48181818181818,
                "end_time": 58.53181818181818,
                "pitch": 55,
                "velocity": 51,
                "duration": 0.05000000000000426,
                "tempo": 120.0
            },
            {
                "start_time": 58.53181818181818,
                "end_time": 58.66590909090909,
                "pitch": 55,
                "velocity": 51,
                "duration": 0.13409090909090793,
                "tempo": 120.0
            },
            {
                "start_time": 58.48181818181818,
                "end_time": 58.66590909090909,
                "pitch": 67,
                "velocity": 51,
                "duration": 0.1840909090909122,
                "tempo": 120.0
            },
            {
                "start_time": 58.53181818181818,
                "end_time": 58.73181818181818,
                "pitch": 0,
                "velocity": 51,
                "duration": 0.19999999999999574,
                "tempo": 120.0
            },
            {
                "start_time": 58.66590909090909,
                "end_time": 58.73181818181818,
                "pitch": 55,
                "velocity": 51,
                "duration": 0.06590909090908781,
                "tempo": 120.0
            },
            {
                "start_time": 58.73181818181818,
                "end_time": 58.865909090909085,
                "pitch": 55,
                "velocity": 51,
                "duration": 0.13409090909090793,
                "tempo": 120.0
            },
            {
                "start_time": 58.66590909090909,
                "end_time": 58.865909090909085,
                "pitch": 67,
                "velocity": 51,
                "duration": 0.19999999999999574,
                "tempo": 120.0
            },
            {
                "start_time": 58.73181818181818,
                "end_time": 58.91590909090909,
                "pitch": 0,
                "velocity": 51,
                "duration": 0.1840909090909122,
                "tempo": 120.0
            },
            {
                "start_time": 58.865909090909085,
                "end_time": 58.91590909090909,
                "pitch": 55,
                "velocity": 51,
                "duration": 0.05000000000000426,
                "tempo": 120.0
            },
            {
                "start_time": 58.91590909090909,
                "end_time": 59.05,
                "pitch": 55,
                "velocity": 51,
                "duration": 0.13409090909090793,
                "tempo": 120.0
            },
            {
                "start_time": 58.865909090909085,
                "end_time": 59.05,
                "pitch": 67,
                "velocity": 51,
                "duration": 0.1840909090909122,
                "tempo": 120.0
            },
            {
                "start_time": 58.91590909090909,
                "end_time": 59.12045454545454,
                "pitch": 0,
                "velocity": 51,
                "duration": 0.20454545454545325,
                "tempo": 120.0
            },
            {
                "start_time": 59.05,
                "end_time": 59.12045454545454,
                "pitch": 55,
                "velocity": 51,
                "duration": 0.07045454545454533,
                "tempo": 120.0
            },
            {
                "start_time": 59.12045454545454,
                "end_time": 59.256818181818176,
                "pitch": 55,
                "velocity": 51,
                "duration": 0.13636363636363313,
                "tempo": 120.0
            },
            {
                "start_time": 59.05,
                "end_time": 59.256818181818176,
                "pitch": 67,
                "velocity": 51,
                "duration": 0.20681818181817846,
                "tempo": 120.0
            },
            {
                "start_time": 59.256818181818176,
                "end_time": 59.30681818181818,
                "pitch": 55,
                "velocity": 51,
                "duration": 0.05000000000000426,
                "tempo": 120.0
            },
            {
                "start_time": 59.12045454545454,
                "end_time": 59.309090909090905,
                "pitch": 0,
                "velocity": 51,
                "duration": 0.1886363636363626,
                "tempo": 120.0
            },
            {
                "start_time": 59.30681818181818,
                "end_time": 59.309090909090905,
                "pitch": 0,
                "velocity": 51,
                "duration": 0.0022727272727252057,
                "tempo": 120.0
            },
            {
                "start_time": 59.309090909090905,
                "end_time": 59.445454545454545,
                "pitch": 55,
                "velocity": 51,
                "duration": 0.13636363636364024,
                "tempo": 120.0
            },
            {
                "start_time": 59.256818181818176,
                "end_time": 59.445454545454545,
                "pitch": 67,
                "velocity": 51,
                "duration": 0.1886363636363697,
                "tempo": 120.0
            },
            {
                "start_time": 59.445454545454545,
                "end_time": 59.50909090909091,
                "pitch": 55,
                "velocity": 51,
                "duration": 0.0636363636363626,
                "tempo": 120.0
            },
            {
                "start_time": 59.50909090909091,
                "end_time": 59.63863636363636,
                "pitch": 55,
                "velocity": 51,
                "duration": 0.1295454545454504,
                "tempo": 120.0
            },
            {
                "start_time": 59.445454545454545,
                "end_time": 59.63863636363636,
                "pitch": 67,
                "velocity": 51,
                "duration": 0.19318181818181301,
                "tempo": 120.0
            },
            {
                "start_time": 59.50909090909091,
                "end_time": 59.68636363636363,
                "pitch": 0,
                "velocity": 51,
                "duration": 0.17727272727272236,
                "tempo": 120.0
            },
            {
                "start_time": 59.63863636363636,
                "end_time": 59.68636363636363,
                "pitch": 55,
                "velocity": 51,
                "duration": 0.04772727272727195,
                "tempo": 120.0
            },
            {
                "start_time": 59.68636363636363,
                "end_time": 59.81363636363636,
                "pitch": 55,
                "velocity": 51,
                "duration": 0.1272727272727323,
                "tempo": 120.0
            },
            {
                "start_time": 59.63863636363636,
                "end_time": 59.81363636363636,
                "pitch": 67,
                "velocity": 51,
                "duration": 0.17500000000000426,
                "tempo": 120.0
            },
            {
                "start_time": 59.68636363636363,
                "end_time": 59.877272727272725,
                "pitch": 0,
                "velocity": 51,
                "duration": 0.19090909090909491,
                "tempo": 120.0
            },
            {
                "start_time": 59.81363636363636,
                "end_time": 59.877272727272725,
                "pitch": 55,
                "velocity": 51,
                "duration": 0.0636363636363626,
                "tempo": 120.0
            },
            {
                "start_time": 59.877272727272725,
                "end_time": 59.913636363636364,
                "pitch": 55,
                "velocity": 51,
                "duration": 0.03636363636363882,
                "tempo": 120.0
            },
            {
                "start_time": 59.913636363636364,
                "end_time": 60.39090909090909,
                "pitch": 53,
                "velocity": 51,
                "duration": 0.4772727272727266,
                "tempo": 120.0
            },
            {
                "start_time": 60.39090909090909,
                "end_time": 63.65909090909091,
                "pitch": 58,
                "velocity": 51,
                "duration": 3.268181818181816,
                "tempo": 120.0
            }
        ],
        "Lead 2 (sawtooth)": [
            {
                "start_time": 0.2681818181818182,
                "end_time": 0.41363636363636364,
                "pitch": 79,
                "velocity": 20,
                "duration": 0.14545454545454545,
                "tempo": 120.0
            },
            {
                "start_time": 0.41363636363636364,
                "end_time": 0.5977272727272727,
                "pitch": 79,
                "velocity": 20,
                "duration": 0.18409090909090903,
                "tempo": 120.0
            },
            {
                "start_time": 0.41363636363636364,
                "end_time": 0.5977272727272727,
                "pitch": 91,
                "velocity": 20,
                "duration": 0.18409090909090903,
                "tempo": 120.0
            },
            {
                "start_time": 0.5977272727272727,
                "end_time": 0.7999999999999999,
                "pitch": 79,
                "velocity": 20,
                "duration": 0.20227272727272727,
                "tempo": 120.0
            },
            {
                "start_time": 0.5977272727272727,
                "end_time": 0.7999999999999999,
                "pitch": 91,
                "velocity": 20,
                "duration": 0.20227272727272727,
                "tempo": 120.0
            },
            {
                "start_time": 0.7999999999999999,
                "end_time": 0.9886363636363635,
                "pitch": 79,
                "velocity": 20,
                "duration": 0.1886363636363636,
                "tempo": 120.0
            },
            {
                "start_time": 0.7999999999999999,
                "end_time": 0.9886363636363635,
                "pitch": 91,
                "velocity": 20,
                "duration": 0.1886363636363636,
                "tempo": 120.0
            },
            {
                "start_time": 0.9886363636363635,
                "end_time": 1.1954545454545453,
                "pitch": 79,
                "velocity": 20,
                "duration": 0.2068181818181818,
                "tempo": 120.0
            },
            {
                "start_time": 0.9886363636363635,
                "end_time": 1.1954545454545453,
                "pitch": 91,
                "velocity": 20,
                "duration": 0.2068181818181818,
                "tempo": 120.0
            },
            {
                "start_time": 1.1954545454545453,
                "end_time": 1.2136363636363636,
                "pitch": 79,
                "velocity": 20,
                "duration": 0.0181818181818183,
                "tempo": 120.0
            },
            {
                "start_time": 1.2136363636363636,
                "end_time": 1.4568181818181818,
                "pitch": 54,
                "velocity": 51,
                "duration": 0.24318181818181817,
                "tempo": 120.0
            },
            {
                "start_time": 1.4568181818181818,
                "end_time": 1.7,
                "pitch": 54,
                "velocity": 40,
                "duration": 0.24318181818181817,
                "tempo": 120.0
            },
            {
                "start_time": 1.7,
                "end_time": 1.918181818181818,
                "pitch": 54,
                "velocity": 32,
                "duration": 0.21818181818181803,
                "tempo": 120.0
            },
            {
                "start_time": 1.918181818181818,
                "end_time": 2.1522727272727273,
                "pitch": 54,
                "velocity": 25,
                "duration": 0.23409090909090935,
                "tempo": 120.0
            },
            {
                "start_time": 2.1522727272727273,
                "end_time": 2.3863636363636362,
                "pitch": 54,
                "velocity": 20,
                "duration": 0.2340909090909089,
                "tempo": 120.0
            },
            {
                "start_time": 2.3863636363636362,
                "end_time": 2.620454545454545,
                "pitch": 54,
                "velocity": 16,
                "duration": 0.2340909090909089,
                "tempo": 120.0
            },
            {
                "start_time": 2.620454545454545,
                "end_time": 2.8545454545454545,
                "pitch": 54,
                "velocity": 13,
                "duration": 0.23409090909090935,
                "tempo": 120.0
            },
            {
                "start_time": 2.8545454545454545,
                "end_time": 3.0886363636363634,
                "pitch": 54,
                "velocity": 10,
                "duration": 0.2340909090909089,
                "tempo": 120.0
            },
            {
                "start_time": 3.0886363636363634,
                "end_time": 3.311363636363636,
                "pitch": 54,
                "velocity": 8,
                "duration": 0.22272727272727266,
                "tempo": 120.0
            },
            {
                "start_time": 3.311363636363636,
                "end_time": 3.5522727272727272,
                "pitch": 54,
                "velocity": 6,
                "duration": 0.24090909090909118,
                "tempo": 120.0
            },
            {
                "start_time": 3.5522727272727272,
                "end_time": 3.7795454545454543,
                "pitch": 54,
                "velocity": 5,
                "duration": 0.22727272727272707,
                "tempo": 120.0
            },
            {
                "start_time": 3.7818181818181817,
                "end_time": 4.013636363636364,
                "pitch": 54,
                "velocity": 4,
                "duration": 0.23181818181818192,
                "tempo": 120.0
            },
            {
                "start_time": 4.013636363636364,
                "end_time": 4.1454545454545455,
                "pitch": 79,
                "velocity": 20,
                "duration": 0.13181818181818183,
                "tempo": 120.0
            },
            {
                "start_time": 1.1954545454545453,
                "end_time": 4.1454545454545455,
                "pitch": 91,
                "velocity": 20,
                "duration": 2.95,
                "tempo": 120.0
            },
            {
                "start_time": 4.1454545454545455,
                "end_time": 4.352272727272727,
                "pitch": 79,
                "velocity": 20,
                "duration": 0.20681818181818112,
                "tempo": 120.0
            },
            {
                "start_time": 4.1454545454545455,
                "end_time": 4.352272727272727,
                "pitch": 91,
                "velocity": 20,
                "duration": 0.20681818181818112,
                "tempo": 120.0
            },
            {
                "start_time": 4.352272727272727,
                "end_time": 4.538636363636363,
                "pitch": 79,
                "velocity": 20,
                "duration": 0.1863636363636365,
                "tempo": 120.0
            },
            {
                "start_time": 4.352272727272727,
                "end_time": 4.538636363636363,
                "pitch": 91,
                "velocity": 20,
                "duration": 0.1863636363636365,
                "tempo": 120.0
            },
            {
                "start_time": 4.538636363636363,
                "end_time": 4.738636363636363,
                "pitch": 79,
                "velocity": 20,
                "duration": 0.20000000000000018,
                "tempo": 120.0
            },
            {
                "start_time": 4.538636363636363,
                "end_time": 4.738636363636363,
                "pitch": 91,
                "velocity": 20,
                "duration": 0.20000000000000018,
                "tempo": 120.0
            },
            {
                "start_time": 4.738636363636363,
                "end_time": 4.925,
                "pitch": 79,
                "velocity": 20,
                "duration": 0.1863636363636365,
                "tempo": 120.0
            },
            {
                "start_time": 4.738636363636363,
                "end_time": 4.925,
                "pitch": 91,
                "velocity": 20,
                "duration": 0.1863636363636365,
                "tempo": 120.0
            },
            {
                "start_time": 4.925,
                "end_time": 4.9409090909090905,
                "pitch": 79,
                "velocity": 20,
                "duration": 0.01590909090909065,
                "tempo": 120.0
            },
            {
                "start_time": 4.943181818181818,
                "end_time": 5.175,
                "pitch": 54,
                "velocity": 51,
                "duration": 0.23181818181818148,
                "tempo": 120.0
            },
            {
                "start_time": 5.177272727272727,
                "end_time": 5.411363636363636,
                "pitch": 54,
                "velocity": 40,
                "duration": 0.23409090909090935,
                "tempo": 120.0
            },
            {
                "start_time": 5.411363636363636,
                "end_time": 5.6454545454545455,
                "pitch": 54,
                "velocity": 32,
                "duration": 0.23409090909090935,
                "tempo": 120.0
            },
            {
                "start_time": 5.6454545454545455,
                "end_time": 5.879545454545454,
                "pitch": 54,
                "velocity": 25,
                "duration": 0.23409090909090846,
                "tempo": 120.0
            },
            {
                "start_time": 5.879545454545454,
                "end_time": 6.118181818181818,
                "pitch": 54,
                "velocity": 20,
                "duration": 0.2386363636363642,
                "tempo": 120.0
            },
            {
                "start_time": 6.118181818181818,
                "end_time": 6.340909090909091,
                "pitch": 54,
                "velocity": 16,
                "duration": 0.22272727272727266,
                "tempo": 120.0
            },
            {
                "start_time": 6.343181818181818,
                "end_time": 6.570454545454545,
                "pitch": 54,
                "velocity": 13,
                "duration": 0.22727272727272751,
                "tempo": 120.0
            },
            {
                "start_time": 6.570454545454545,
                "end_time": 6.8,
                "pitch": 54,
                "velocity": 10,
                "duration": 0.2295454545454545,
                "tempo": 120.0
            },
            {
                "start_time": 6.8,
                "end_time": 7.038636363636363,
                "pitch": 54,
                "velocity": 8,
                "duration": 0.2386363636363633,
                "tempo": 120.0
            },
            {
                "start_time": 7.040909090909091,
                "end_time": 7.279545454545454,
                "pitch": 54,
                "velocity": 6,
                "duration": 0.2386363636363633,
                "tempo": 120.0
            },
            {
                "start_time": 7.279545454545454,
                "end_time": 7.513636363636364,
                "pitch": 54,
                "velocity": 5,
                "duration": 0.23409090909090935,
                "tempo": 120.0
            },
            {
                "start_time": 7.513636363636364,
                "end_time": 7.75,
                "pitch": 54,
                "velocity": 4,
                "duration": 0.23636363636363633,
                "tempo": 120.0
            },
            {
                "start_time": 7.752272727272727,
                "end_time": 7.884090909090909,
                "pitch": 79,
                "velocity": 20,
                "duration": 0.13181818181818183,
                "tempo": 120.0
            },
            {
                "start_time": 4.925,
                "end_time": 7.884090909090909,
                "pitch": 91,
                "velocity": 20,
                "duration": 2.959090909090909,
                "tempo": 120.0
            },
            {
                "start_time": 7.884090909090909,
                "end_time": 8.072727272727272,
                "pitch": 79,
                "velocity": 20,
                "duration": 0.1886363636363635,
                "tempo": 120.0
            },
            {
                "start_time": 7.884090909090909,
                "end_time": 8.072727272727272,
                "pitch": 91,
                "velocity": 20,
                "duration": 0.1886363636363635,
                "tempo": 120.0
            },
            {
                "start_time": 8.072727272727272,
                "end_time": 8.277272727272727,
                "pitch": 79,
                "velocity": 20,
                "duration": 0.20454545454545503,
                "tempo": 120.0
            },
            {
                "start_time": 8.072727272727272,
                "end_time": 8.277272727272727,
                "pitch": 91,
                "velocity": 20,
                "duration": 0.20454545454545503,
                "tempo": 120.0
            },
            {
                "start_time": 8.277272727272727,
                "end_time": 8.461363636363636,
                "pitch": 79,
                "velocity": 20,
                "duration": 0.18409090909090864,
                "tempo": 120.0
            },
            {
                "start_time": 8.277272727272727,
                "end_time": 8.461363636363636,
                "pitch": 91,
                "velocity": 20,
                "duration": 0.18409090909090864,
                "tempo": 120.0
            },
            {
                "start_time": 8.461363636363636,
                "end_time": 8.661363636363635,
                "pitch": 79,
                "velocity": 20,
                "duration": 0.1999999999999993,
                "tempo": 120.0
            },
            {
                "start_time": 8.461363636363636,
                "end_time": 8.661363636363635,
                "pitch": 91,
                "velocity": 20,
                "duration": 0.1999999999999993,
                "tempo": 120.0
            },
            {
                "start_time": 8.661363636363635,
                "end_time": 8.679545454545455,
                "pitch": 79,
                "velocity": 20,
                "duration": 0.01818181818181941,
                "tempo": 120.0
            },
            {
                "start_time": 8.681818181818182,
                "end_time": 8.913636363636364,
                "pitch": 54,
                "velocity": 51,
                "duration": 0.23181818181818237,
                "tempo": 120.0
            },
            {
                "start_time": 8.913636363636364,
                "end_time": 9.147727272727272,
                "pitch": 54,
                "velocity": 40,
                "duration": 0.23409090909090757,
                "tempo": 120.0
            },
            {
                "start_time": 9.15,
                "end_time": 9.370454545454544,
                "pitch": 54,
                "velocity": 32,
                "duration": 0.2204545454545439,
                "tempo": 120.0
            },
            {
                "start_time": 9.372727272727273,
                "end_time": 9.611363636363636,
                "pitch": 54,
                "velocity": 25,
                "duration": 0.2386363636363633,
                "tempo": 120.0
            },
            {
                "start_time": 9.611363636363636,
                "end_time": 9.84090909090909,
                "pitch": 54,
                "velocity": 20,
                "duration": 0.2295454545454536,
                "tempo": 120.0
            },
            {
                "start_time": 9.84090909090909,
                "end_time": 10.070454545454545,
                "pitch": 54,
                "velocity": 16,
                "duration": 0.22954545454545539,
                "tempo": 120.0
            },
            {
                "start_time": 10.070454545454545,
                "end_time": 10.304545454545455,
                "pitch": 54,
                "velocity": 13,
                "duration": 0.23409090909090935,
                "tempo": 120.0
            },
            {
                "start_time": 10.304545454545455,
                "end_time": 10.538636363636362,
                "pitch": 54,
                "velocity": 10,
                "duration": 0.23409090909090757,
                "tempo": 120.0
            },
            {
                "start_time": 10.538636363636362,
                "end_time": 10.772727272727272,
                "pitch": 54,
                "velocity": 8,
                "duration": 0.23409090909090935,
                "tempo": 120.0
            },
            {
                "start_time": 10.772727272727272,
                "end_time": 10.99090909090909,
                "pitch": 54,
                "velocity": 6,
                "duration": 0.2181818181818187,
                "tempo": 120.0
            },
            {
                "start_time": 10.99090909090909,
                "end_time": 11.229545454545454,
                "pitch": 54,
                "velocity": 5,
                "duration": 0.2386363636363633,
                "tempo": 120.0
            },
            {
                "start_time": 11.229545454545454,
                "end_time": 11.472727272727273,
                "pitch": 54,
                "velocity": 4,
                "duration": 0.24318181818181905,
                "tempo": 120.0
            },
            {
                "start_time": 11.472727272727273,
                "end_time": 11.602272727272727,
                "pitch": 79,
                "velocity": 20,
                "duration": 0.12954545454545396,
                "tempo": 120.0
            },
            {
                "start_time": 8.661363636363635,
                "end_time": 11.602272727272727,
                "pitch": 91,
                "velocity": 20,
                "duration": 2.9409090909090914,
                "tempo": 120.0
            },
            {
                "start_time": 11.602272727272727,
                "end_time": 11.804545454545455,
                "pitch": 79,
                "velocity": 20,
                "duration": 0.20227272727272805,
                "tempo": 120.0
            },
            {
                "start_time": 11.602272727272727,
                "end_time": 11.804545454545455,
                "pitch": 91,
                "velocity": 20,
                "duration": 0.20227272727272805,
                "tempo": 120.0
            },
            {
                "start_time": 11.804545454545455,
                "end_time": 11.988636363636363,
                "pitch": 79,
                "velocity": 20,
                "duration": 0.18409090909090864,
                "tempo": 120.0
            },
            {
                "start_time": 11.804545454545455,
                "end_time": 11.988636363636363,
                "pitch": 91,
                "velocity": 20,
                "duration": 0.18409090909090864,
                "tempo": 120.0
            },
            {
                "start_time": 11.988636363636363,
                "end_time": 12.195454545454545,
                "pitch": 79,
                "velocity": 20,
                "duration": 0.206818181818182,
                "tempo": 120.0
            },
            {
                "start_time": 11.988636363636363,
                "end_time": 12.195454545454545,
                "pitch": 91,
                "velocity": 20,
                "duration": 0.206818181818182,
                "tempo": 120.0
            },
            {
                "start_time": 12.195454545454545,
                "end_time": 12.384090909090908,
                "pitch": 79,
                "velocity": 20,
                "duration": 0.1886363636363626,
                "tempo": 120.0
            },
            {
                "start_time": 12.195454545454545,
                "end_time": 12.384090909090908,
                "pitch": 91,
                "velocity": 20,
                "duration": 0.1886363636363626,
                "tempo": 120.0
            },
            {
                "start_time": 12.384090909090908,
                "end_time": 12.402272727272727,
                "pitch": 79,
                "velocity": 20,
                "duration": 0.01818181818181941,
                "tempo": 120.0
            },
            {
                "start_time": 12.402272727272727,
                "end_time": 12.629545454545454,
                "pitch": 54,
                "velocity": 51,
                "duration": 0.22727272727272663,
                "tempo": 120.0
            },
            {
                "start_time": 12.631818181818181,
                "end_time": 12.85909090909091,
                "pitch": 54,
                "velocity": 40,
                "duration": 0.2272727272727284,
                "tempo": 120.0
            },
            {
                "start_time": 12.85909090909091,
                "end_time": 13.1,
                "pitch": 54,
                "velocity": 32,
                "duration": 0.2409090909090903,
                "tempo": 120.0
            },
            {
                "start_time": 13.1,
                "end_time": 13.338636363636363,
                "pitch": 54,
                "velocity": 25,
                "duration": 0.2386363636363633,
                "tempo": 120.0
            },
            {
                "start_time": 13.338636363636363,
                "end_time": 13.572727272727272,
                "pitch": 54,
                "velocity": 20,
                "duration": 0.23409090909090935,
                "tempo": 120.0
            },
            {
                "start_time": 13.572727272727272,
                "end_time": 13.806818181818182,
                "pitch": 54,
                "velocity": 16,
                "duration": 0.23409090909090935,
                "tempo": 120.0
            },
            {
                "start_time": 13.809090909090909,
                "end_time": 14.029545454545454,
                "pitch": 54,
                "velocity": 13,
                "duration": 0.22045454545454568,
                "tempo": 120.0
            },
            {
                "start_time": 14.031818181818181,
                "end_time": 14.270454545454545,
                "pitch": 54,
                "velocity": 10,
                "duration": 0.2386363636363633,
                "tempo": 120.0
            },
            {
                "start_time": 14.270454545454545,
                "end_time": 14.504545454545454,
                "pitch": 54,
                "velocity": 8,
                "duration": 0.23409090909090935,
                "tempo": 120.0
            },
            {
                "start_time": 14.504545454545454,
                "end_time": 14.738636363636363,
                "pitch": 54,
                "velocity": 6,
                "duration": 0.23409090909090935,
                "tempo": 120.0
            },
            {
                "start_time": 14.74090909090909,
                "end_time": 14.972727272727273,
                "pitch": 54,
                "velocity": 5,
                "duration": 0.23181818181818237,
                "tempo": 120.0
            },
            {
                "start_time": 14.972727272727273,
                "end_time": 15.211363636363636,
                "pitch": 54,
                "velocity": 4,
                "duration": 0.2386363636363633,
                "tempo": 120.0
            },
            {
                "start_time": 15.211363636363636,
                "end_time": 15.34090909090909,
                "pitch": 79,
                "velocity": 20,
                "duration": 0.12954545454545396,
                "tempo": 120.0
            },
            {
                "start_time": 12.384090909090908,
                "end_time": 15.34090909090909,
                "pitch": 91,
                "velocity": 20,
                "duration": 2.956818181818182,
                "tempo": 120.0
            },
            {
                "start_time": 15.34090909090909,
                "end_time": 15.524999999999999,
                "pitch": 79,
                "velocity": 20,
                "duration": 0.18409090909090864,
                "tempo": 120.0
            },
            {
                "start_time": 15.34090909090909,
                "end_time": 15.524999999999999,
                "pitch": 91,
                "velocity": 20,
                "duration": 0.18409090909090864,
                "tempo": 120.0
            },
            {
                "start_time": 15.524999999999999,
                "end_time": 15.725,
                "pitch": 79,
                "velocity": 20,
                "duration": 0.20000000000000107,
                "tempo": 120.0
            },
            {
                "start_time": 15.524999999999999,
                "end_time": 15.727272727272727,
                "pitch": 91,
                "velocity": 20,
                "duration": 0.20227272727272805,
                "tempo": 120.0
            },
            {
                "start_time": 15.725,
                "end_time": 15.727272727272727,
                "pitch": 91,
                "velocity": 20,
                "duration": 0.002272727272726982,
                "tempo": 120.0
            },
            {
                "start_time": 15.727272727272727,
                "end_time": 15.911363636363635,
                "pitch": 79,
                "velocity": 20,
                "duration": 0.18409090909090864,
                "tempo": 120.0
            },
            {
                "start_time": 15.911363636363635,
                "end_time": 16.111363636363635,
                "pitch": 79,
                "velocity": 20,
                "duration": 0.1999999999999993,
                "tempo": 120.0
            },
            {
                "start_time": 15.911363636363635,
                "end_time": 16.111363636363635,
                "pitch": 91,
                "velocity": 20,
                "duration": 0.1999999999999993,
                "tempo": 120.0
            },
            {
                "start_time": 16.111363636363635,
                "end_time": 16.129545454545454,
                "pitch": 79,
                "velocity": 20,
                "duration": 0.01818181818181941,
                "tempo": 120.0
            },
            {
                "start_time": 16.129545454545454,
                "end_time": 16.368181818181817,
                "pitch": 54,
                "velocity": 51,
                "duration": 0.2386363636363633,
                "tempo": 120.0
            },
            {
                "start_time": 16.368181818181817,
                "end_time": 16.60909090909091,
                "pitch": 54,
                "velocity": 40,
                "duration": 0.24090909090909207,
                "tempo": 120.0
            },
            {
                "start_time": 16.60909090909091,
                "end_time": 16.84318181818182,
                "pitch": 54,
                "velocity": 32,
                "duration": 0.23409090909090935,
                "tempo": 120.0
            },
            {
                "start_time": 16.84318181818182,
                "end_time": 17.061363636363634,
                "pitch": 54,
                "velocity": 25,
                "duration": 0.21818181818181515,
                "tempo": 120.0
            },
            {
                "start_time": 17.061363636363634,
                "end_time": 17.288636363636364,
                "pitch": 54,
                "velocity": 20,
                "duration": 0.22727272727273018,
                "tempo": 120.0
            },
            {
                "start_time": 17.29090909090909,
                "end_time": 17.518181818181816,
                "pitch": 54,
                "velocity": 16,
                "duration": 0.22727272727272663,
                "tempo": 120.0
            },
            {
                "start_time": 17.518181818181816,
                "end_time": 17.759090909090908,
                "pitch": 54,
                "velocity": 13,
                "duration": 0.24090909090909207,
                "tempo": 120.0
            },
            {
                "start_time": 17.759090909090908,
                "end_time": 17.99772727272727,
                "pitch": 54,
                "velocity": 10,
                "duration": 0.2386363636363633,
                "tempo": 120.0
            },
            {
                "start_time": 17.99772727272727,
                "end_time": 18.238636363636363,
                "pitch": 54,
                "velocity": 8,
                "duration": 0.24090909090909207,
                "tempo": 120.0
            },
            {
                "start_time": 18.238636363636363,
                "end_time": 18.461363636363636,
                "pitch": 54,
                "velocity": 6,
                "duration": 0.22272727272727266,
                "tempo": 120.0
            },
            {
                "start_time": 18.461363636363636,
                "end_time": 18.69090909090909,
                "pitch": 54,
                "velocity": 5,
                "duration": 0.22954545454545539,
                "tempo": 120.0
            },
            {
                "start_time": 18.69090909090909,
                "end_time": 18.922727272727272,
                "pitch": 54,
                "velocity": 4,
                "duration": 0.2318181818181806,
                "tempo": 120.0
            },
            {
                "start_time": 18.922727272727272,
                "end_time": 19.052272727272726,
                "pitch": 79,
                "velocity": 20,
                "duration": 0.12954545454545396,
                "tempo": 120.0
            },
            {
                "start_time": 16.111363636363635,
                "end_time": 19.052272727272726,
                "pitch": 91,
                "velocity": 20,
                "duration": 2.9409090909090914,
                "tempo": 120.0
            },
            {
                "start_time": 19.052272727272726,
                "end_time": 19.252272727272725,
                "pitch": 79,
                "velocity": 20,
                "duration": 0.1999999999999993,
                "tempo": 120.0
            },
            {
                "start_time": 19.052272727272726,
                "end_time": 19.254545454545454,
                "pitch": 91,
                "velocity": 20,
                "duration": 0.20227272727272805,
                "tempo": 120.0
            },
            {
                "start_time": 19.252272727272725,
                "end_time": 19.254545454545454,
                "pitch": 91,
                "velocity": 20,
                "duration": 0.0022727272727287584,
                "tempo": 120.0
            },
            {
                "start_time": 19.254545454545454,
                "end_time": 19.438636363636363,
                "pitch": 79,
                "velocity": 20,
                "duration": 0.18409090909090864,
                "tempo": 120.0
            },
            {
                "start_time": 19.438636363636363,
                "end_time": 19.643181818181816,
                "pitch": 79,
                "velocity": 20,
                "duration": 0.20454545454545325,
                "tempo": 120.0
            },
            {
                "start_time": 19.438636363636363,
                "end_time": 19.643181818181816,
                "pitch": 91,
                "velocity": 20,
                "duration": 0.20454545454545325,
                "tempo": 120.0
            },
            {
                "start_time": 19.643181818181816,
                "end_time": 19.831818181818182,
                "pitch": 79,
                "velocity": 20,
                "duration": 0.18863636363636616,
                "tempo": 120.0
            },
            {
                "start_time": 19.643181818181816,
                "end_time": 19.831818181818182,
                "pitch": 91,
                "velocity": 20,
                "duration": 0.18863636363636616,
                "tempo": 120.0
            },
            {
                "start_time": 19.831818181818182,
                "end_time": 19.868181818181817,
                "pitch": 79,
                "velocity": 20,
                "duration": 0.036363636363635266,
                "tempo": 120.0
            },
            {
                "start_time": 19.868181818181817,
                "end_time": 20.09090909090909,
                "pitch": 54,
                "velocity": 51,
                "duration": 0.22272727272727266,
                "tempo": 120.0
            },
            {
                "start_time": 20.09090909090909,
                "end_time": 20.331818181818182,
                "pitch": 54,
                "velocity": 40,
                "duration": 0.24090909090909207,
                "tempo": 120.0
            },
            {
                "start_time": 20.331818181818182,
                "end_time": 20.56590909090909,
                "pitch": 54,
                "velocity": 32,
                "duration": 0.23409090909090935,
                "tempo": 120.0
            },
            {
                "start_time": 20.56590909090909,
                "end_time": 20.8,
                "pitch": 54,
                "velocity": 25,
                "duration": 0.23409090909090935,
                "tempo": 120.0
            },
            {
                "start_time": 20.8,
                "end_time": 21.034090909090907,
                "pitch": 54,
                "velocity": 20,
                "duration": 0.2340909090909058,
                "tempo": 120.0
            },
            {
                "start_time": 21.034090909090907,
                "end_time": 21.268181818181816,
                "pitch": 54,
                "velocity": 16,
                "duration": 0.23409090909090935,
                "tempo": 120.0
            },
            {
                "start_time": 21.268181818181816,
                "end_time": 21.486363636363635,
                "pitch": 54,
                "velocity": 13,
                "duration": 0.2181818181818187,
                "tempo": 120.0
            },
            {
                "start_time": 21.486363636363635,
                "end_time": 21.720454545454544,
                "pitch": 54,
                "velocity": 10,
                "duration": 0.23409090909090935,
                "tempo": 120.0
            },
            {
                "start_time": 21.720454545454544,
                "end_time": 21.954545454545453,
                "pitch": 54,
                "velocity": 8,
                "duration": 0.23409090909090935,
                "tempo": 120.0
            },
            {
                "start_time": 21.954545454545453,
                "end_time": 22.188636363636363,
                "pitch": 54,
                "velocity": 6,
                "duration": 0.23409090909090935,
                "tempo": 120.0
            },
            {
                "start_time": 22.188636363636363,
                "end_time": 22.422727272727272,
                "pitch": 54,
                "velocity": 5,
                "duration": 0.23409090909090935,
                "tempo": 120.0
            },
            {
                "start_time": 22.422727272727272,
                "end_time": 22.661363636363635,
                "pitch": 54,
                "velocity": 4,
                "duration": 0.2386363636363633,
                "tempo": 120.0
            },
            {
                "start_time": 22.661363636363635,
                "end_time": 22.793181818181818,
                "pitch": 79,
                "velocity": 20,
                "duration": 0.13181818181818272,
                "tempo": 120.0
            },
            {
                "start_time": 19.831818181818182,
                "end_time": 22.793181818181818,
                "pitch": 91,
                "velocity": 20,
                "duration": 2.961363636363636,
                "tempo": 120.0
            },
            {
                "start_time": 22.793181818181818,
                "end_time": 22.98181818181818,
                "pitch": 79,
                "velocity": 20,
                "duration": 0.1886363636363626,
                "tempo": 120.0
            },
            {
                "start_time": 22.793181818181818,
                "end_time": 22.98181818181818,
                "pitch": 91,
                "velocity": 20,
                "duration": 0.1886363636363626,
                "tempo": 120.0
            },
            {
                "start_time": 22.98181818181818,
                "end_time": 23.18409090909091,
                "pitch": 79,
                "velocity": 20,
                "duration": 0.20227272727272805,
                "tempo": 120.0
            },
            {
                "start_time": 22.98181818181818,
                "end_time": 23.18409090909091,
                "pitch": 91,
                "velocity": 20,
                "duration": 0.20227272727272805,
                "tempo": 120.0
            },
            {
                "start_time": 23.18409090909091,
                "end_time": 23.36590909090909,
                "pitch": 79,
                "velocity": 20,
                "duration": 0.18181818181817988,
                "tempo": 120.0
            },
            {
                "start_time": 23.18409090909091,
                "end_time": 23.36590909090909,
                "pitch": 91,
                "velocity": 20,
                "duration": 0.18181818181817988,
                "tempo": 120.0
            },
            {
                "start_time": 23.36590909090909,
                "end_time": 23.561363636363634,
                "pitch": 79,
                "velocity": 20,
                "duration": 0.19545454545454533,
                "tempo": 120.0
            },
            {
                "start_time": 23.36590909090909,
                "end_time": 23.561363636363634,
                "pitch": 91,
                "velocity": 20,
                "duration": 0.19545454545454533,
                "tempo": 120.0
            },
            {
                "start_time": 23.561363636363634,
                "end_time": 23.579545454545453,
                "pitch": 79,
                "velocity": 20,
                "duration": 0.01818181818181941,
                "tempo": 120.0
            },
            {
                "start_time": 23.579545454545453,
                "end_time": 23.818181818181817,
                "pitch": 54,
                "velocity": 51,
                "duration": 0.2386363636363633,
                "tempo": 120.0
            },
            {
                "start_time": 23.818181818181817,
                "end_time": 24.05909090909091,
                "pitch": 54,
                "velocity": 40,
                "duration": 0.24090909090909207,
                "tempo": 120.0
            },
            {
                "start_time": 24.05909090909091,
                "end_time": 24.293181818181818,
                "pitch": 54,
                "velocity": 32,
                "duration": 0.23409090909090935,
                "tempo": 120.0
            },
            {
                "start_time": 24.293181818181818,
                "end_time": 24.511363636363637,
                "pitch": 54,
                "velocity": 25,
                "duration": 0.2181818181818187,
                "tempo": 120.0
            },
            {
                "start_time": 24.511363636363637,
                "end_time": 24.745454545454542,
                "pitch": 54,
                "velocity": 20,
                "duration": 0.2340909090909058,
                "tempo": 120.0
            },
            {
                "start_time": 24.745454545454542,
                "end_time": 24.979545454545452,
                "pitch": 54,
                "velocity": 16,
                "duration": 0.23409090909090935,
                "tempo": 120.0
            },
            {
                "start_time": 24.979545454545452,
                "end_time": 25.21363636363636,
                "pitch": 54,
                "velocity": 13,
                "duration": 0.23409090909090935,
                "tempo": 120.0
            },
            {
                "start_time": 25.21363636363636,
                "end_time": 25.44772727272727,
                "pitch": 54,
                "velocity": 10,
                "duration": 0.23409090909090935,
                "tempo": 120.0
            },
            {
                "start_time": 25.44772727272727,
                "end_time": 25.688636363636363,
                "pitch": 54,
                "velocity": 8,
                "duration": 0.24090909090909207,
                "tempo": 120.0
            },
            {
                "start_time": 25.688636363636363,
                "end_time": 25.927272727272726,
                "pitch": 54,
                "velocity": 6,
                "duration": 0.2386363636363633,
                "tempo": 120.0
            },
            {
                "start_time": 25.927272727272726,
                "end_time": 26.145454545454545,
                "pitch": 54,
                "velocity": 5,
                "duration": 0.2181818181818187,
                "tempo": 120.0
            },
            {
                "start_time": 26.145454545454545,
                "end_time": 26.38181818181818,
                "pitch": 54,
                "velocity": 4,
                "duration": 0.23636363636363455,
                "tempo": 120.0
            },
            {
                "start_time": 26.384090909090908,
                "end_time": 26.509090909090908,
                "pitch": 79,
                "velocity": 20,
                "duration": 0.125,
                "tempo": 120.0
            },
            {
                "start_time": 23.561363636363634,
                "end_time": 26.509090909090908,
                "pitch": 91,
                "velocity": 20,
                "duration": 2.947727272727274,
                "tempo": 120.0
            },
            {
                "start_time": 26.509090909090908,
                "end_time": 26.706818181818182,
                "pitch": 79,
                "velocity": 20,
                "duration": 0.19772727272727408,
                "tempo": 120.0
            },
            {
                "start_time": 26.509090909090908,
                "end_time": 26.706818181818182,
                "pitch": 91,
                "velocity": 20,
                "duration": 0.19772727272727408,
                "tempo": 120.0
            },
            {
                "start_time": 26.706818181818182,
                "end_time": 26.888636363636362,
                "pitch": 79,
                "velocity": 20,
                "duration": 0.18181818181817988,
                "tempo": 120.0
            },
            {
                "start_time": 26.706818181818182,
                "end_time": 26.888636363636362,
                "pitch": 91,
                "velocity": 20,
                "duration": 0.18181818181817988,
                "tempo": 120.0
            },
            {
                "start_time": 26.888636363636362,
                "end_time": 27.093181818181815,
                "pitch": 79,
                "velocity": 20,
                "duration": 0.20454545454545325,
                "tempo": 120.0
            },
            {
                "start_time": 26.888636363636362,
                "end_time": 27.093181818181815,
                "pitch": 91,
                "velocity": 20,
                "duration": 0.20454545454545325,
                "tempo": 120.0
            },
            {
                "start_time": 27.093181818181815,
                "end_time": 27.28181818181818,
                "pitch": 79,
                "velocity": 20,
                "duration": 0.18863636363636616,
                "tempo": 120.0
            },
            {
                "start_time": 27.093181818181815,
                "end_time": 27.28181818181818,
                "pitch": 91,
                "velocity": 20,
                "duration": 0.18863636363636616,
                "tempo": 120.0
            },
            {
                "start_time": 27.28181818181818,
                "end_time": 27.318181818181817,
                "pitch": 79,
                "velocity": 20,
                "duration": 0.036363636363635266,
                "tempo": 120.0
            },
            {
                "start_time": 27.318181818181817,
                "end_time": 27.54090909090909,
                "pitch": 54,
                "velocity": 51,
                "duration": 0.22272727272727266,
                "tempo": 120.0
            },
            {
                "start_time": 27.54090909090909,
                "end_time": 27.779545454545453,
                "pitch": 54,
                "velocity": 40,
                "duration": 0.2386363636363633,
                "tempo": 120.0
            },
            {
                "start_time": 27.78181818181818,
                "end_time": 28.01590909090909,
                "pitch": 54,
                "velocity": 32,
                "duration": 0.23409090909090935,
                "tempo": 120.0
            },
            {
                "start_time": 28.01590909090909,
                "end_time": 28.25,
                "pitch": 54,
                "velocity": 25,
                "duration": 0.23409090909090935,
                "tempo": 120.0
            },
            {
                "start_time": 28.25,
                "end_time": 28.48409090909091,
                "pitch": 54,
                "velocity": 20,
                "duration": 0.23409090909090935,
                "tempo": 120.0
            },
            {
                "start_time": 28.48409090909091,
                "end_time": 28.718181818181815,
                "pitch": 54,
                "velocity": 16,
                "duration": 0.2340909090909058,
                "tempo": 120.0
            },
            {
                "start_time": 28.718181818181815,
                "end_time": 28.952272727272724,
                "pitch": 54,
                "velocity": 13,
                "duration": 0.23409090909090935,
                "tempo": 120.0
            },
            {
                "start_time": 28.952272727272724,
                "end_time": 29.170454545454543,
                "pitch": 54,
                "velocity": 10,
                "duration": 0.2181818181818187,
                "tempo": 120.0
            },
            {
                "start_time": 29.170454545454543,
                "end_time": 29.404545454545453,
                "pitch": 54,
                "velocity": 8,
                "duration": 0.23409090909090935,
                "tempo": 120.0
            },
            {
                "start_time": 29.404545454545453,
                "end_time": 29.638636363636362,
                "pitch": 54,
                "velocity": 6,
                "duration": 0.23409090909090935,
                "tempo": 120.0
            },
            {
                "start_time": 29.638636363636362,
                "end_time": 29.87272727272727,
                "pitch": 54,
                "velocity": 5,
                "duration": 0.23409090909090935,
                "tempo": 120.0
            },
            {
                "start_time": 29.87272727272727,
                "end_time": 30.10909090909091,
                "pitch": 54,
                "velocity": 4,
                "duration": 0.2363636363636381,
                "tempo": 120.0
            },
            {
                "start_time": 30.111363636363635,
                "end_time": 30.243181818181817,
                "pitch": 79,
                "velocity": 20,
                "duration": 0.13181818181818272,
                "tempo": 120.0
            },
            {
                "start_time": 27.28181818181818,
                "end_time": 30.243181818181817,
                "pitch": 91,
                "velocity": 20,
                "duration": 2.961363636363636,
                "tempo": 120.0
            },
            {
                "start_time": 30.243181818181817,
                "end_time": 30.43181818181818,
                "pitch": 79,
                "velocity": 20,
                "duration": 0.1886363636363626,
                "tempo": 120.0
            },
            {
                "start_time": 30.243181818181817,
                "end_time": 30.43181818181818,
                "pitch": 91,
                "velocity": 20,
                "duration": 0.1886363636363626,
                "tempo": 120.0
            },
            {
                "start_time": 30.43181818181818,
                "end_time": 30.634090909090908,
                "pitch": 79,
                "velocity": 20,
                "duration": 0.20227272727272805,
                "tempo": 120.0
            },
            {
                "start_time": 30.43181818181818,
                "end_time": 30.634090909090908,
                "pitch": 91,
                "velocity": 20,
                "duration": 0.20227272727272805,
                "tempo": 120.0
            },
            {
                "start_time": 30.634090909090908,
                "end_time": 30.813636363636363,
                "pitch": 79,
                "velocity": 20,
                "duration": 0.17954545454545467,
                "tempo": 120.0
            },
            {
                "start_time": 30.634090909090908,
                "end_time": 30.813636363636363,
                "pitch": 91,
                "velocity": 20,
                "duration": 0.17954545454545467,
                "tempo": 120.0
            },
            {
                "start_time": 30.813636363636363,
                "end_time": 31.011363636363633,
                "pitch": 79,
                "velocity": 20,
                "duration": 0.19772727272727053,
                "tempo": 120.0
            },
            {
                "start_time": 30.813636363636363,
                "end_time": 31.011363636363633,
                "pitch": 91,
                "velocity": 20,
                "duration": 0.19772727272727053,
                "tempo": 120.0
            },
            {
                "start_time": 31.011363636363633,
                "end_time": 31.029545454545453,
                "pitch": 79,
                "velocity": 20,
                "duration": 0.01818181818181941,
                "tempo": 120.0
            },
            {
                "start_time": 31.029545454545453,
                "end_time": 31.268181818181816,
                "pitch": 54,
                "velocity": 51,
                "duration": 0.2386363636363633,
                "tempo": 120.0
            },
            {
                "start_time": 31.268181818181816,
                "end_time": 31.50681818181818,
                "pitch": 54,
                "velocity": 40,
                "duration": 0.2386363636363633,
                "tempo": 120.0
            },
            {
                "start_time": 31.509090909090908,
                "end_time": 31.743181818181817,
                "pitch": 54,
                "velocity": 32,
                "duration": 0.23409090909090935,
                "tempo": 120.0
            },
            {
                "start_time": 31.743181818181817,
                "end_time": 31.974999999999998,
                "pitch": 54,
                "velocity": 25,
                "duration": 0.2318181818181806,
                "tempo": 120.0
            },
            {
                "start_time": 31.977272727272727,
                "end_time": 32.18863636363636,
                "pitch": 54,
                "velocity": 20,
                "duration": 0.21136363636363598,
                "tempo": 120.0
            },
            {
                "start_time": 32.18863636363636,
                "end_time": 32.418181818181814,
                "pitch": 54,
                "velocity": 16,
                "duration": 0.22954545454545183,
                "tempo": 120.0
            },
            {
                "start_time": 32.418181818181814,
                "end_time": 32.663636363636364,
                "pitch": 54,
                "velocity": 13,
                "duration": 0.2454545454545496,
                "tempo": 120.0
            },
            {
                "start_time": 32.663636363636364,
                "end_time": 32.90681818181818,
                "pitch": 54,
                "velocity": 10,
                "duration": 0.24318181818181728,
                "tempo": 120.0
            },
            {
                "start_time": 32.90909090909091,
                "end_time": 33.13636363636363,
                "pitch": 54,
                "velocity": 8,
                "duration": 0.22727272727272663,
                "tempo": 120.0
            },
            {
                "start_time": 33.13636363636363,
                "end_time": 33.36590909090909,
                "pitch": 54,
                "velocity": 6,
                "duration": 0.22954545454545894,
                "tempo": 120.0
            },
            {
                "start_time": 33.36590909090909,
                "end_time": 33.58863636363636,
                "pitch": 54,
                "velocity": 5,
                "duration": 0.2227272727272691,
                "tempo": 120.0
            },
            {
                "start_time": 33.58863636363636,
                "end_time": 33.83181818181818,
                "pitch": 54,
                "velocity": 4,
                "duration": 0.24318181818181728,
                "tempo": 120.0
            },
            {
                "start_time": 33.83181818181818,
                "end_time": 33.961363636363636,
                "pitch": 79,
                "velocity": 20,
                "duration": 0.12954545454545752,
                "tempo": 120.0
            },
            {
                "start_time": 31.011363636363633,
                "end_time": 33.961363636363636,
                "pitch": 91,
                "velocity": 20,
                "duration": 2.950000000000003,
                "tempo": 120.0
            },
            {
                "start_time": 33.961363636363636,
                "end_time": 34.163636363636364,
                "pitch": 79,
                "velocity": 20,
                "duration": 0.20227272727272805,
                "tempo": 120.0
            },
            {
                "start_time": 33.961363636363636,
                "end_time": 34.163636363636364,
                "pitch": 91,
                "velocity": 20,
                "duration": 0.20227272727272805,
                "tempo": 120.0
            },
            {
                "start_time": 34.163636363636364,
                "end_time": 34.34772727272727,
                "pitch": 79,
                "velocity": 20,
                "duration": 0.18409090909090509,
                "tempo": 120.0
            },
            {
                "start_time": 34.163636363636364,
                "end_time": 34.34772727272727,
                "pitch": 91,
                "velocity": 20,
                "duration": 0.18409090909090509,
                "tempo": 120.0
            },
            {
                "start_time": 34.34772727272727,
                "end_time": 34.554545454545455,
                "pitch": 79,
                "velocity": 20,
                "duration": 0.20681818181818556,
                "tempo": 120.0
            },
            {
                "start_time": 34.34772727272727,
                "end_time": 34.554545454545455,
                "pitch": 91,
                "velocity": 20,
                "duration": 0.20681818181818556,
                "tempo": 120.0
            },
            {
                "start_time": 34.554545454545455,
                "end_time": 34.75909090909091,
                "pitch": 79,
                "velocity": 20,
                "duration": 0.20454545454545325,
                "tempo": 120.0
            },
            {
                "start_time": 34.554545454545455,
                "end_time": 34.75909090909091,
                "pitch": 91,
                "velocity": 20,
                "duration": 0.20454545454545325,
                "tempo": 120.0
            },
            {
                "start_time": 34.75909090909091,
                "end_time": 34.777272727272724,
                "pitch": 79,
                "velocity": 20,
                "duration": 0.018181818181815856,
                "tempo": 120.0
            },
            {
                "start_time": 34.779545454545456,
                "end_time": 35.018181818181816,
                "pitch": 54,
                "velocity": 51,
                "duration": 0.23863636363635976,
                "tempo": 120.0
            },
            {
                "start_time": 35.018181818181816,
                "end_time": 35.24090909090909,
                "pitch": 54,
                "velocity": 40,
                "duration": 0.22272727272727622,
                "tempo": 120.0
            },
            {
                "start_time": 35.24090909090909,
                "end_time": 35.470454545454544,
                "pitch": 54,
                "velocity": 32,
                "duration": 0.22954545454545183,
                "tempo": 120.0
            },
            {
                "start_time": 35.470454545454544,
                "end_time": 35.69772727272727,
                "pitch": 54,
                "velocity": 25,
                "duration": 0.22727272727272663,
                "tempo": 120.0
            },
            {
                "start_time": 35.699999999999996,
                "end_time": 35.934090909090905,
                "pitch": 54,
                "velocity": 20,
                "duration": 0.23409090909090935,
                "tempo": 120.0
            },
            {
                "start_time": 35.934090909090905,
                "end_time": 36.168181818181814,
                "pitch": 54,
                "velocity": 16,
                "duration": 0.23409090909090935,
                "tempo": 120.0
            },
            {
                "start_time": 36.168181818181814,
                "end_time": 36.40681818181818,
                "pitch": 54,
                "velocity": 13,
                "duration": 0.23863636363636687,
                "tempo": 120.0
            },
            {
                "start_time": 36.40681818181818,
                "end_time": 36.62954545454545,
                "pitch": 54,
                "velocity": 10,
                "duration": 0.2227272727272691,
                "tempo": 120.0
            },
            {
                "start_time": 36.62954545454545,
                "end_time": 36.86363636363636,
                "pitch": 54,
                "velocity": 8,
                "duration": 0.23409090909090935,
                "tempo": 120.0
            },
            {
                "start_time": 36.86590909090909,
                "end_time": 37.1,
                "pitch": 54,
                "velocity": 6,
                "duration": 0.23409090909090935,
                "tempo": 120.0
            },
            {
                "start_time": 37.1,
                "end_time": 37.33863636363636,
                "pitch": 54,
                "velocity": 5,
                "duration": 0.23863636363635976,
                "tempo": 120.0
            },
            {
                "start_time": 37.33863636363636,
                "end_time": 37.58181818181818,
                "pitch": 54,
                "velocity": 4,
                "duration": 0.24318181818181728,
                "tempo": 120.0
            },
            {
                "start_time": 37.58181818181818,
                "end_time": 37.70909090909091,
                "pitch": 79,
                "velocity": 20,
                "duration": 0.1272727272727323,
                "tempo": 120.0
            },
            {
                "start_time": 34.75909090909091,
                "end_time": 37.70909090909091,
                "pitch": 91,
                "velocity": 20,
                "duration": 2.950000000000003,
                "tempo": 120.0
            },
            {
                "start_time": 37.70909090909091,
                "end_time": 37.88863636363636,
                "pitch": 79,
                "velocity": 20,
                "duration": 0.17954545454544757,
                "tempo": 120.0
            },
            {
                "start_time": 37.70909090909091,
                "end_time": 37.88863636363636,
                "pitch": 91,
                "velocity": 20,
                "duration": 0.17954545454544757,
                "tempo": 120.0
            },
            {
                "start_time": 37.88863636363636,
                "end_time": 38.086363636363636,
                "pitch": 79,
                "velocity": 20,
                "duration": 0.19772727272727764,
                "tempo": 120.0
            },
            {
                "start_time": 37.88863636363636,
                "end_time": 38.086363636363636,
                "pitch": 91,
                "velocity": 20,
                "duration": 0.19772727272727764,
                "tempo": 120.0
            },
            {
                "start_time": 38.086363636363636,
                "end_time": 38.293181818181814,
                "pitch": 79,
                "velocity": 20,
                "duration": 0.20681818181817846,
                "tempo": 120.0
            },
            {
                "start_time": 38.086363636363636,
                "end_time": 38.293181818181814,
                "pitch": 91,
                "velocity": 20,
                "duration": 0.20681818181817846,
                "tempo": 120.0
            },
            {
                "start_time": 38.293181818181814,
                "end_time": 38.48181818181818,
                "pitch": 79,
                "velocity": 20,
                "duration": 0.1886363636363626,
                "tempo": 120.0
            },
            {
                "start_time": 38.293181818181814,
                "end_time": 38.48181818181818,
                "pitch": 91,
                "velocity": 20,
                "duration": 0.1886363636363626,
                "tempo": 120.0
            },
            {
                "start_time": 38.48181818181818,
                "end_time": 38.5,
                "pitch": 79,
                "velocity": 20,
                "duration": 0.018181818181822962,
                "tempo": 120.0
            },
            {
                "start_time": 38.5,
                "end_time": 38.72954545454545,
                "pitch": 54,
                "velocity": 51,
                "duration": 0.22954545454545183,
                "tempo": 120.0
            },
            {
                "start_time": 38.72954545454545,
                "end_time": 38.95681818181818,
                "pitch": 54,
                "velocity": 40,
                "duration": 0.22727272727272663,
                "tempo": 120.0
            },
            {
                "start_time": 38.959090909090904,
                "end_time": 39.19772727272727,
                "pitch": 54,
                "velocity": 32,
                "duration": 0.23863636363636687,
                "tempo": 120.0
            },
            {
                "start_time": 39.19772727272727,
                "end_time": 39.43636363636364,
                "pitch": 54,
                "velocity": 25,
                "duration": 0.23863636363636687,
                "tempo": 120.0
            },
            {
                "start_time": 39.43863636363636,
                "end_time": 39.65909090909091,
                "pitch": 54,
                "velocity": 20,
                "duration": 0.2204545454545439,
                "tempo": 120.0
            },
            {
                "start_time": 39.66136363636363,
                "end_time": 39.9,
                "pitch": 54,
                "velocity": 16,
                "duration": 0.23863636363636687,
                "tempo": 120.0
            },
            {
                "start_time": 39.9,
                "end_time": 40.12954545454545,
                "pitch": 54,
                "velocity": 13,
                "duration": 0.22954545454545183,
                "tempo": 120.0
            },
            {
                "start_time": 40.12954545454545,
                "end_time": 40.35909090909091,
                "pitch": 54,
                "velocity": 10,
                "duration": 0.22954545454545894,
                "tempo": 120.0
            },
            {
                "start_time": 40.35909090909091,
                "end_time": 40.59318181818182,
                "pitch": 54,
                "velocity": 8,
                "duration": 0.23409090909090935,
                "tempo": 120.0
            },
            {
                "start_time": 40.59318181818182,
                "end_time": 40.82727272727273,
                "pitch": 54,
                "velocity": 6,
                "duration": 0.23409090909090935,
                "tempo": 120.0
            },
            {
                "start_time": 40.82727272727273,
                "end_time": 41.06590909090909,
                "pitch": 54,
                "velocity": 5,
                "duration": 0.23863636363635976,
                "tempo": 120.0
            },
            {
                "start_time": 41.06590909090909,
                "end_time": 41.293181818181814,
                "pitch": 54,
                "velocity": 4,
                "duration": 0.22727272727272663,
                "tempo": 120.0
            },
            {
                "start_time": 41.293181818181814,
                "end_time": 41.42045454545455,
                "pitch": 79,
                "velocity": 20,
                "duration": 0.1272727272727323,
                "tempo": 120.0
            },
            {
                "start_time": 38.48181818181818,
                "end_time": 41.42045454545455,
                "pitch": 91,
                "velocity": 20,
                "duration": 2.9386363636363697,
                "tempo": 120.0
            },
            {
                "start_time": 41.42045454545455,
                "end_time": 41.61590909090909,
                "pitch": 79,
                "velocity": 20,
                "duration": 0.19545454545454533,
                "tempo": 120.0
            },
            {
                "start_time": 41.42045454545455,
                "end_time": 41.61590909090909,
                "pitch": 91,
                "velocity": 20,
                "duration": 0.19545454545454533,
                "tempo": 120.0
            },
            {
                "start_time": 41.61590909090909,
                "end_time": 41.81590909090909,
                "pitch": 79,
                "velocity": 20,
                "duration": 0.19999999999999574,
                "tempo": 120.0
            },
            {
                "start_time": 41.61590909090909,
                "end_time": 41.81590909090909,
                "pitch": 91,
                "velocity": 20,
                "duration": 0.19999999999999574,
                "tempo": 120.0
            },
            {
                "start_time": 41.81590909090909,
                "end_time": 42.00454545454545,
                "pitch": 79,
                "velocity": 20,
                "duration": 0.1886363636363626,
                "tempo": 120.0
            },
            {
                "start_time": 41.81590909090909,
                "end_time": 42.00454545454545,
                "pitch": 91,
                "velocity": 20,
                "duration": 0.1886363636363626,
                "tempo": 120.0
            },
            {
                "start_time": 42.00454545454545,
                "end_time": 42.209090909090904,
                "pitch": 79,
                "velocity": 20,
                "duration": 0.20454545454545325,
                "tempo": 120.0
            },
            {
                "start_time": 42.00454545454545,
                "end_time": 42.209090909090904,
                "pitch": 91,
                "velocity": 20,
                "duration": 0.20454545454545325,
                "tempo": 120.0
            },
            {
                "start_time": 42.209090909090904,
                "end_time": 42.22727272727273,
                "pitch": 79,
                "velocity": 20,
                "duration": 0.018181818181822962,
                "tempo": 120.0
            },
            {
                "start_time": 42.22954545454545,
                "end_time": 42.46818181818182,
                "pitch": 54,
                "velocity": 51,
                "duration": 0.23863636363636687,
                "tempo": 120.0
            },
            {
                "start_time": 42.46818181818182,
                "end_time": 42.69090909090909,
                "pitch": 54,
                "velocity": 40,
                "duration": 0.2227272727272691,
                "tempo": 120.0
            },
            {
                "start_time": 42.69090909090909,
                "end_time": 42.92045454545455,
                "pitch": 54,
                "velocity": 32,
                "duration": 0.22954545454545894,
                "tempo": 120.0
            },
            {
                "start_time": 42.92045454545455,
                "end_time": 43.14772727272727,
                "pitch": 54,
                "velocity": 25,
                "duration": 0.22727272727272663,
                "tempo": 120.0
            },
            {
                "start_time": 43.15,
                "end_time": 43.38409090909091,
                "pitch": 54,
                "velocity": 20,
                "duration": 0.23409090909090935,
                "tempo": 120.0
            },
            {
                "start_time": 43.38409090909091,
                "end_time": 43.61590909090909,
                "pitch": 54,
                "velocity": 16,
                "duration": 0.23181818181818414,
                "tempo": 120.0
            },
            {
                "start_time": 43.61818181818182,
                "end_time": 43.845454545454544,
                "pitch": 54,
                "velocity": 13,
                "duration": 0.22727272727272663,
                "tempo": 120.0
            },
            {
                "start_time": 43.845454545454544,
                "end_time": 44.074999999999996,
                "pitch": 54,
                "velocity": 10,
                "duration": 0.22954545454545183,
                "tempo": 120.0
            },
            {
                "start_time": 44.074999999999996,
                "end_time": 44.30227272727272,
                "pitch": 54,
                "velocity": 8,
                "duration": 0.22727272727272663,
                "tempo": 120.0
            },
            {
                "start_time": 44.30227272727272,
                "end_time": 44.54545454545455,
                "pitch": 54,
                "velocity": 6,
                "duration": 0.24318181818182438,
                "tempo": 120.0
            },
            {
                "start_time": 44.54545454545455,
                "end_time": 44.775,
                "pitch": 54,
                "velocity": 5,
                "duration": 0.22954545454545183,
                "tempo": 120.0
            },
            {
                "start_time": 44.775,
                "end_time": 45.00681818181818,
                "pitch": 54,
                "velocity": 4,
                "duration": 0.23181818181818414,
                "tempo": 120.0
            },
            {
                "start_time": 45.00681818181818,
                "end_time": 45.13863636363636,
                "pitch": 79,
                "velocity": 20,
                "duration": 0.13181818181817562,
                "tempo": 120.0
            },
            {
                "start_time": 42.209090909090904,
                "end_time": 45.13863636363636,
                "pitch": 91,
                "velocity": 20,
                "duration": 2.9295454545454547,
                "tempo": 120.0
            },
            {
                "start_time": 45.13863636363636,
                "end_time": 45.345454545454544,
                "pitch": 79,
                "velocity": 20,
                "duration": 0.20681818181818556,
                "tempo": 120.0
            },
            {
                "start_time": 45.13863636363636,
                "end_time": 45.345454545454544,
                "pitch": 91,
                "velocity": 20,
                "duration": 0.20681818181818556,
                "tempo": 120.0
            },
            {
                "start_time": 45.345454545454544,
                "end_time": 45.53181818181818,
                "pitch": 79,
                "velocity": 20,
                "duration": 0.1863636363636374,
                "tempo": 120.0
            },
            {
                "start_time": 45.345454545454544,
                "end_time": 45.53181818181818,
                "pitch": 91,
                "velocity": 20,
                "duration": 0.1863636363636374,
                "tempo": 120.0
            },
            {
                "start_time": 45.53181818181818,
                "end_time": 45.73409090909091,
                "pitch": 79,
                "velocity": 20,
                "duration": 0.20227272727272805,
                "tempo": 120.0
            },
            {
                "start_time": 45.53181818181818,
                "end_time": 45.73409090909091,
                "pitch": 91,
                "velocity": 20,
                "duration": 0.20227272727272805,
                "tempo": 120.0
            },
            {
                "start_time": 45.73409090909091,
                "end_time": 45.918181818181814,
                "pitch": 79,
                "velocity": 20,
                "duration": 0.18409090909090509,
                "tempo": 120.0
            },
            {
                "start_time": 45.73409090909091,
                "end_time": 45.918181818181814,
                "pitch": 91,
                "velocity": 20,
                "duration": 0.18409090909090509,
                "tempo": 120.0
            },
            {
                "start_time": 45.918181818181814,
                "end_time": 45.93636363636364,
                "pitch": 79,
                "velocity": 20,
                "duration": 0.018181818181822962,
                "tempo": 120.0
            },
            {
                "start_time": 45.93636363636364,
                "end_time": 46.175,
                "pitch": 54,
                "velocity": 51,
                "duration": 0.23863636363635976,
                "tempo": 120.0
            },
            {
                "start_time": 46.175,
                "end_time": 46.413636363636364,
                "pitch": 54,
                "velocity": 40,
                "duration": 0.23863636363636687,
                "tempo": 120.0
            },
            {
                "start_time": 46.41590909090909,
                "end_time": 46.65,
                "pitch": 54,
                "velocity": 32,
                "duration": 0.23409090909090935,
                "tempo": 120.0
            },
            {
                "start_time": 46.65,
                "end_time": 46.88409090909091,
                "pitch": 54,
                "velocity": 25,
                "duration": 0.23409090909090935,
                "tempo": 120.0
            },
            {
                "start_time": 46.88409090909091,
                "end_time": 47.12272727272727,
                "pitch": 54,
                "velocity": 20,
                "duration": 0.23863636363635976,
                "tempo": 120.0
            },
            {
                "start_time": 47.12272727272727,
                "end_time": 47.345454545454544,
                "pitch": 54,
                "velocity": 16,
                "duration": 0.22272727272727622,
                "tempo": 120.0
            },
            {
                "start_time": 47.345454545454544,
                "end_time": 47.574999999999996,
                "pitch": 54,
                "velocity": 13,
                "duration": 0.22954545454545183,
                "tempo": 120.0
            },
            {
                "start_time": 47.574999999999996,
                "end_time": 47.804545454545455,
                "pitch": 54,
                "velocity": 10,
                "duration": 0.22954545454545894,
                "tempo": 120.0
            },
            {
                "start_time": 47.804545454545455,
                "end_time": 48.043181818181814,
                "pitch": 54,
                "velocity": 8,
                "duration": 0.23863636363635976,
                "tempo": 120.0
            },
            {
                "start_time": 48.04545454545454,
                "end_time": 48.28409090909091,
                "pitch": 54,
                "velocity": 6,
                "duration": 0.23863636363636687,
                "tempo": 120.0
            },
            {
                "start_time": 48.28409090909091,
                "end_time": 48.518181818181816,
                "pitch": 54,
                "velocity": 5,
                "duration": 0.23409090909090935,
                "tempo": 120.0
            },
            {
                "start_time": 48.518181818181816,
                "end_time": 48.73863636363636,
                "pitch": 54,
                "velocity": 4,
                "duration": 0.2204545454545439,
                "tempo": 120.0
            },
            {
                "start_time": 48.73863636363636,
                "end_time": 48.88181818181818,
                "pitch": 79,
                "velocity": 20,
                "duration": 0.14318181818182296,
                "tempo": 120.0
            },
            {
                "start_time": 45.918181818181814,
                "end_time": 48.88181818181818,
                "pitch": 91,
                "velocity": 20,
                "duration": 2.9636363636363683,
                "tempo": 120.0
            },
            {
                "start_time": 48.88181818181818,
                "end_time": 49.06136363636364,
                "pitch": 79,
                "velocity": 20,
                "duration": 0.17954545454545467,
                "tempo": 120.0
            },
            {
                "start_time": 48.88181818181818,
                "end_time": 49.06136363636364,
                "pitch": 91,
                "velocity": 20,
                "duration": 0.17954545454545467,
                "tempo": 120.0
            },
            {
                "start_time": 49.06136363636364,
                "end_time": 49.26136363636363,
                "pitch": 79,
                "velocity": 20,
                "duration": 0.19999999999999574,
                "tempo": 120.0
            },
            {
                "start_time": 49.06136363636364,
                "end_time": 49.26136363636363,
                "pitch": 91,
                "velocity": 20,
                "duration": 0.19999999999999574,
                "tempo": 120.0
            },
            {
                "start_time": 49.26136363636363,
                "end_time": 49.449999999999996,
                "pitch": 79,
                "velocity": 20,
                "duration": 0.1886363636363626,
                "tempo": 120.0
            },
            {
                "start_time": 49.26136363636363,
                "end_time": 49.449999999999996,
                "pitch": 91,
                "velocity": 20,
                "duration": 0.1886363636363626,
                "tempo": 120.0
            },
            {
                "start_time": 49.449999999999996,
                "end_time": 49.65681818181818,
                "pitch": 79,
                "velocity": 20,
                "duration": 0.20681818181818556,
                "tempo": 120.0
            },
            {
                "start_time": 49.449999999999996,
                "end_time": 49.65681818181818,
                "pitch": 91,
                "velocity": 20,
                "duration": 0.20681818181818556,
                "tempo": 120.0
            },
            {
                "start_time": 49.65681818181818,
                "end_time": 49.675,
                "pitch": 79,
                "velocity": 20,
                "duration": 0.018181818181815856,
                "tempo": 120.0
            },
            {
                "start_time": 49.675,
                "end_time": 49.913636363636364,
                "pitch": 54,
                "velocity": 51,
                "duration": 0.23863636363636687,
                "tempo": 120.0
            },
            {
                "start_time": 49.913636363636364,
                "end_time": 50.15454545454545,
                "pitch": 54,
                "velocity": 40,
                "duration": 0.24090909090908497,
                "tempo": 120.0
            },
            {
                "start_time": 50.15454545454545,
                "end_time": 50.377272727272725,
                "pitch": 54,
                "velocity": 32,
                "duration": 0.22272727272727622,
                "tempo": 120.0
            },
            {
                "start_time": 50.377272727272725,
                "end_time": 50.615909090909085,
                "pitch": 54,
                "velocity": 25,
                "duration": 0.23863636363635976,
                "tempo": 120.0
            },
            {
                "start_time": 50.615909090909085,
                "end_time": 50.845454545454544,
                "pitch": 54,
                "velocity": 20,
                "duration": 0.22954545454545894,
                "tempo": 120.0
            },
            {
                "start_time": 50.845454545454544,
                "end_time": 51.074999999999996,
                "pitch": 54,
                "velocity": 16,
                "duration": 0.22954545454545183,
                "tempo": 120.0
            },
            {
                "start_time": 51.074999999999996,
                "end_time": 51.309090909090905,
                "pitch": 54,
                "velocity": 13,
                "duration": 0.23409090909090935,
                "tempo": 120.0
            },
            {
                "start_time": 51.309090909090905,
                "end_time": 51.543181818181814,
                "pitch": 54,
                "velocity": 10,
                "duration": 0.23409090909090935,
                "tempo": 120.0
            },
            {
                "start_time": 51.543181818181814,
                "end_time": 51.76590909090909,
                "pitch": 54,
                "velocity": 8,
                "duration": 0.22272727272727622,
                "tempo": 120.0
            },
            {
                "start_time": 51.76590909090909,
                "end_time": 52.00681818181818,
                "pitch": 54,
                "velocity": 6,
                "duration": 0.24090909090909207,
                "tempo": 120.0
            },
            {
                "start_time": 52.00681818181818,
                "end_time": 52.23409090909091,
                "pitch": 54,
                "velocity": 5,
                "duration": 0.22727272727272663,
                "tempo": 120.0
            },
            {
                "start_time": 52.23409090909091,
                "end_time": 52.46818181818182,
                "pitch": 54,
                "velocity": 4,
                "duration": 0.23409090909090935,
                "tempo": 120.0
            },
            {
                "start_time": 52.46818181818182,
                "end_time": 52.599999999999994,
                "pitch": 79,
                "velocity": 20,
                "duration": 0.13181818181817562,
                "tempo": 120.0
            },
            {
                "start_time": 49.65681818181818,
                "end_time": 52.599999999999994,
                "pitch": 91,
                "velocity": 20,
                "duration": 2.943181818181813,
                "tempo": 120.0
            },
            {
                "start_time": 52.599999999999994,
                "end_time": 52.80681818181818,
                "pitch": 79,
                "velocity": 20,
                "duration": 0.20681818181818556,
                "tempo": 120.0
            },
            {
                "start_time": 52.599999999999994,
                "end_time": 52.80681818181818,
                "pitch": 91,
                "velocity": 20,
                "duration": 0.20681818181818556,
                "tempo": 120.0
            },
            {
                "start_time": 52.80681818181818,
                "end_time": 52.99318181818182,
                "pitch": 79,
                "velocity": 20,
                "duration": 0.1863636363636374,
                "tempo": 120.0
            },
            {
                "start_time": 52.80681818181818,
                "end_time": 52.99318181818182,
                "pitch": 91,
                "velocity": 20,
                "duration": 0.1863636363636374,
                "tempo": 120.0
            },
            {
                "start_time": 52.99318181818182,
                "end_time": 53.19318181818181,
                "pitch": 79,
                "velocity": 20,
                "duration": 0.19999999999999574,
                "tempo": 120.0
            },
            {
                "start_time": 52.99318181818182,
                "end_time": 53.19318181818181,
                "pitch": 91,
                "velocity": 20,
                "duration": 0.19999999999999574,
                "tempo": 120.0
            },
            {
                "start_time": 53.19318181818181,
                "end_time": 53.377272727272725,
                "pitch": 79,
                "velocity": 20,
                "duration": 0.1840909090909122,
                "tempo": 120.0
            },
            {
                "start_time": 53.19318181818181,
                "end_time": 53.377272727272725,
                "pitch": 91,
                "velocity": 20,
                "duration": 0.1840909090909122,
                "tempo": 120.0
            },
            {
                "start_time": 53.377272727272725,
                "end_time": 53.39545454545454,
                "pitch": 79,
                "velocity": 20,
                "duration": 0.018181818181815856,
                "tempo": 120.0
            },
            {
                "start_time": 53.39772727272727,
                "end_time": 53.62954545454545,
                "pitch": 54,
                "velocity": 51,
                "duration": 0.23181818181817704,
                "tempo": 120.0
            },
            {
                "start_time": 53.63181818181818,
                "end_time": 53.86363636363636,
                "pitch": 54,
                "velocity": 40,
                "duration": 0.23181818181817704,
                "tempo": 120.0
            },
            {
                "start_time": 53.865909090909085,
                "end_time": 54.099999999999994,
                "pitch": 54,
                "velocity": 32,
                "duration": 0.23409090909090935,
                "tempo": 120.0
            },
            {
                "start_time": 54.099999999999994,
                "end_time": 54.334090909090904,
                "pitch": 54,
                "velocity": 25,
                "duration": 0.23409090909090935,
                "tempo": 120.0
            },
            {
                "start_time": 54.334090909090904,
                "end_time": 54.56818181818181,
                "pitch": 54,
                "velocity": 20,
                "duration": 0.23409090909090935,
                "tempo": 120.0
            },
            {
                "start_time": 54.56818181818181,
                "end_time": 54.78636363636363,
                "pitch": 54,
                "velocity": 16,
                "duration": 0.2181818181818187,
                "tempo": 120.0
            },
            {
                "start_time": 54.78636363636363,
                "end_time": 55.025,
                "pitch": 54,
                "velocity": 13,
                "duration": 0.23863636363636687,
                "tempo": 120.0
            },
            {
                "start_time": 55.025,
                "end_time": 55.26590909090909,
                "pitch": 54,
                "velocity": 10,
                "duration": 0.24090909090909207,
                "tempo": 120.0
            },
            {
                "start_time": 55.26590909090909,
                "end_time": 55.5,
                "pitch": 54,
                "velocity": 8,
                "duration": 0.23409090909090935,
                "tempo": 120.0
            },
            {
                "start_time": 55.5,
                "end_time": 55.73181818181818,
                "pitch": 54,
                "velocity": 6,
                "duration": 0.23181818181817704,
                "tempo": 120.0
            },
            {
                "start_time": 55.73409090909091,
                "end_time": 55.95681818181818,
                "pitch": 54,
                "velocity": 5,
                "duration": 0.2227272727272691,
                "tempo": 120.0
            },
            {
                "start_time": 55.95681818181818,
                "end_time": 56.184090909090905,
                "pitch": 54,
                "velocity": 4,
                "duration": 0.22727272727272663,
                "tempo": 120.0
            },
            {
                "start_time": 56.184090909090905,
                "end_time": 56.32272727272727,
                "pitch": 79,
                "velocity": 20,
                "duration": 0.13863636363636545,
                "tempo": 120.0
            },
            {
                "start_time": 53.377272727272725,
                "end_time": 56.32272727272727,
                "pitch": 91,
                "velocity": 20,
                "duration": 2.9454545454545453,
                "tempo": 120.0
            },
            {
                "start_time": 56.32272727272727,
                "end_time": 56.518181818181816,
                "pitch": 79,
                "velocity": 20,
                "duration": 0.19545454545454533,
                "tempo": 120.0
            },
            {
                "start_time": 56.32272727272727,
                "end_time": 56.518181818181816,
                "pitch": 91,
                "velocity": 20,
                "duration": 0.19545454545454533,
                "tempo": 120.0
            },
            {
                "start_time": 56.518181818181816,
                "end_time": 56.72727272727273,
                "pitch": 79,
                "velocity": 20,
                "duration": 0.20909090909091077,
                "tempo": 120.0
            },
            {
                "start_time": 56.518181818181816,
                "end_time": 56.72727272727273,
                "pitch": 91,
                "velocity": 20,
                "duration": 0.20909090909091077,
                "tempo": 120.0
            },
            {
                "start_time": 56.72727272727273,
                "end_time": 56.90681818181818,
                "pitch": 79,
                "velocity": 20,
                "duration": 0.17954545454545467,
                "tempo": 120.0
            },
            {
                "start_time": 56.72727272727273,
                "end_time": 56.90681818181818,
                "pitch": 91,
                "velocity": 20,
                "duration": 0.17954545454545467,
                "tempo": 120.0
            },
            {
                "start_time": 56.90681818181818,
                "end_time": 57.10227272727273,
                "pitch": 79,
                "velocity": 20,
                "duration": 0.19545454545454533,
                "tempo": 120.0
            },
            {
                "start_time": 56.90681818181818,
                "end_time": 57.10227272727273,
                "pitch": 91,
                "velocity": 20,
                "duration": 0.19545454545454533,
                "tempo": 120.0
            },
            {
                "start_time": 57.10227272727273,
                "end_time": 57.12045454545454,
                "pitch": 79,
                "velocity": 20,
                "duration": 0.018181818181815856,
                "tempo": 120.0
            },
            {
                "start_time": 57.12045454545454,
                "end_time": 57.365909090909085,
                "pitch": 54,
                "velocity": 51,
                "duration": 0.24545454545454248,
                "tempo": 120.0
            },
            {
                "start_time": 57.365909090909085,
                "end_time": 57.611363636363635,
                "pitch": 54,
                "velocity": 40,
                "duration": 0.2454545454545496,
                "tempo": 120.0
            },
            {
                "start_time": 57.611363636363635,
                "end_time": 57.82954545454545,
                "pitch": 54,
                "velocity": 32,
                "duration": 0.2181818181818187,
                "tempo": 120.0
            },
            {
                "start_time": 57.82954545454545,
                "end_time": 58.06363636363636,
                "pitch": 54,
                "velocity": 25,
                "duration": 0.23409090909090935,
                "tempo": 120.0
            },
            {
                "start_time": 58.06363636363636,
                "end_time": 58.29772727272727,
                "pitch": 54,
                "velocity": 20,
                "duration": 0.23409090909090935,
                "tempo": 120.0
            },
            {
                "start_time": 58.29772727272727,
                "end_time": 58.53181818181818,
                "pitch": 54,
                "velocity": 16,
                "duration": 0.23409090909090935,
                "tempo": 120.0
            },
            {
                "start_time": 58.53181818181818,
                "end_time": 58.76590909090909,
                "pitch": 54,
                "velocity": 13,
                "duration": 0.23409090909090935,
                "tempo": 120.0
            },
            {
                "start_time": 58.76590909090909,
                "end_time": 59.0,
                "pitch": 54,
                "velocity": 10,
                "duration": 0.23409090909090935,
                "tempo": 120.0
            },
            {
                "start_time": 59.002272727272725,
                "end_time": 59.240909090909085,
                "pitch": 54,
                "velocity": 8,
                "duration": 0.23863636363635976,
                "tempo": 120.0
            },
            {
                "start_time": 59.240909090909085,
                "end_time": 59.46363636363636,
                "pitch": 54,
                "velocity": 6,
                "duration": 0.22272727272727622,
                "tempo": 120.0
            },
            {
                "start_time": 59.46363636363636,
                "end_time": 59.68636363636363,
                "pitch": 54,
                "velocity": 5,
                "duration": 0.2227272727272691,
                "tempo": 120.0
            },
            {
                "start_time": 59.68636363636363,
                "end_time": 59.913636363636364,
                "pitch": 54,
                "velocity": 4,
                "duration": 0.22727272727273373,
                "tempo": 120.0
            },
            {
                "start_time": 59.913636363636364,
                "end_time": 60.04772727272727,
                "pitch": 79,
                "velocity": 20,
                "duration": 0.13409090909090793,
                "tempo": 120.0
            },
            {
                "start_time": 57.10227272727273,
                "end_time": 60.04772727272727,
                "pitch": 91,
                "velocity": 20,
                "duration": 2.9454545454545453,
                "tempo": 120.0
            },
            {
                "start_time": 60.04772727272727,
                "end_time": 60.252272727272725,
                "pitch": 79,
                "velocity": 20,
                "duration": 0.20454545454545325,
                "tempo": 120.0
            },
            {
                "start_time": 60.04772727272727,
                "end_time": 60.252272727272725,
                "pitch": 91,
                "velocity": 20,
                "duration": 0.20454545454545325,
                "tempo": 120.0
            },
            {
                "start_time": 60.252272727272725,
                "end_time": 60.44090909090909,
                "pitch": 79,
                "velocity": 20,
                "duration": 0.1886363636363626,
                "tempo": 120.0
            },
            {
                "start_time": 60.252272727272725,
                "end_time": 60.44090909090909,
                "pitch": 91,
                "velocity": 20,
                "duration": 0.1886363636363626,
                "tempo": 120.0
            },
            {
                "start_time": 60.44090909090909,
                "end_time": 60.647727272727266,
                "pitch": 79,
                "velocity": 20,
                "duration": 0.20681818181817846,
                "tempo": 120.0
            },
            {
                "start_time": 60.44090909090909,
                "end_time": 60.647727272727266,
                "pitch": 91,
                "velocity": 20,
                "duration": 0.20681818181817846,
                "tempo": 120.0
            },
            {
                "start_time": 60.647727272727266,
                "end_time": 60.836363636363636,
                "pitch": 79,
                "velocity": 20,
                "duration": 0.1886363636363697,
                "tempo": 120.0
            },
            {
                "start_time": 60.647727272727266,
                "end_time": 60.836363636363636,
                "pitch": 91,
                "velocity": 20,
                "duration": 0.1886363636363697,
                "tempo": 120.0
            },
            {
                "start_time": 60.836363636363636,
                "end_time": 60.85454545454545,
                "pitch": 79,
                "velocity": 20,
                "duration": 0.018181818181815856,
                "tempo": 120.0
            },
            {
                "start_time": 60.85454545454545,
                "end_time": 61.08181818181818,
                "pitch": 54,
                "velocity": 51,
                "duration": 0.22727272727272663,
                "tempo": 120.0
            },
            {
                "start_time": 61.084090909090904,
                "end_time": 61.31136363636363,
                "pitch": 54,
                "velocity": 40,
                "duration": 0.22727272727272663,
                "tempo": 120.0
            },
            {
                "start_time": 61.31136363636363,
                "end_time": 61.55227272727272,
                "pitch": 54,
                "velocity": 32,
                "duration": 0.24090909090909207,
                "tempo": 120.0
            },
            {
                "start_time": 61.55227272727272,
                "end_time": 61.79090909090909,
                "pitch": 54,
                "velocity": 25,
                "duration": 0.23863636363636687,
                "tempo": 120.0
            },
            {
                "start_time": 61.79090909090909,
                "end_time": 62.03181818181818,
                "pitch": 54,
                "velocity": 20,
                "duration": 0.24090909090909207,
                "tempo": 120.0
            },
            {
                "start_time": 62.03181818181818,
                "end_time": 62.27045454545454,
                "pitch": 54,
                "velocity": 16,
                "duration": 0.23863636363635976,
                "tempo": 120.0
            },
            {
                "start_time": 62.272727272727266,
                "end_time": 62.48863636363636,
                "pitch": 54,
                "velocity": 13,
                "duration": 0.2159090909090935,
                "tempo": 120.0
            },
            {
                "start_time": 62.48863636363636,
                "end_time": 62.72272727272727,
                "pitch": 54,
                "velocity": 10,
                "duration": 0.23409090909090935,
                "tempo": 120.0
            },
            {
                "start_time": 62.72272727272727,
                "end_time": 62.95681818181818,
                "pitch": 54,
                "velocity": 8,
                "duration": 0.23409090909090935,
                "tempo": 120.0
            },
            {
                "start_time": 62.959090909090904,
                "end_time": 63.19090909090909,
                "pitch": 54,
                "velocity": 6,
                "duration": 0.23181818181818414,
                "tempo": 120.0
            },
            {
                "start_time": 63.19318181818181,
                "end_time": 63.425,
                "pitch": 54,
                "velocity": 5,
                "duration": 0.23181818181818414,
                "tempo": 120.0
            },
            {
                "start_time": 63.42727272727272,
                "end_time": 63.65909090909091,
                "pitch": 54,
                "velocity": 4,
                "duration": 0.23181818181818414,
                "tempo": 120.0
            }
        ],
        "Clarinet": [
            {
                "start_time": 3.209090909090909,
                "end_time": 3.243181818181818,
                "pitch": 89,
                "velocity": 25,
                "duration": 0.03409090909090917,
                "tempo": 120.0
            },
            {
                "start_time": 3.243181818181818,
                "end_time": 3.277272727272727,
                "pitch": 86,
                "velocity": 25,
                "duration": 0.03409090909090873,
                "tempo": 120.0
            },
            {
                "start_time": 3.277272727272727,
                "end_time": 3.3136363636363635,
                "pitch": 88,
                "velocity": 25,
                "duration": 0.0363636363636366,
                "tempo": 120.0
            },
            {
                "start_time": 3.3136363636363635,
                "end_time": 3.3636363636363633,
                "pitch": 84,
                "velocity": 25,
                "duration": 0.04999999999999982,
                "tempo": 120.0
            },
            {
                "start_time": 3.3636363636363633,
                "end_time": 3.3977272727272725,
                "pitch": 93,
                "velocity": 25,
                "duration": 0.03409090909090917,
                "tempo": 120.0
            },
            {
                "start_time": 3.3977272727272725,
                "end_time": 3.4318181818181817,
                "pitch": 84,
                "velocity": 25,
                "duration": 0.03409090909090917,
                "tempo": 120.0
            },
            {
                "start_time": 3.4318181818181817,
                "end_time": 3.4818181818181815,
                "pitch": 89,
                "velocity": 25,
                "duration": 0.04999999999999982,
                "tempo": 120.0
            },
            {
                "start_time": 3.4818181818181815,
                "end_time": 3.5159090909090907,
                "pitch": 91,
                "velocity": 25,
                "duration": 0.03409090909090917,
                "tempo": 120.0
            },
            {
                "start_time": 3.518181818181818,
                "end_time": 3.5522727272727272,
                "pitch": 95,
                "velocity": 25,
                "duration": 0.03409090909090917,
                "tempo": 120.0
            },
            {
                "start_time": 3.5522727272727272,
                "end_time": 3.5999999999999996,
                "pitch": 88,
                "velocity": 25,
                "duration": 0.047727272727272396,
                "tempo": 120.0
            },
            {
                "start_time": 3.5999999999999996,
                "end_time": 3.634090909090909,
                "pitch": 89,
                "velocity": 20,
                "duration": 0.03409090909090917,
                "tempo": 120.0
            },
            {
                "start_time": 3.634090909090909,
                "end_time": 3.6659090909090906,
                "pitch": 86,
                "velocity": 20,
                "duration": 0.031818181818181746,
                "tempo": 120.0
            },
            {
                "start_time": 3.6659090909090906,
                "end_time": 3.7136363636363634,
                "pitch": 88,
                "velocity": 20,
                "duration": 0.04772727272727284,
                "tempo": 120.0
            },
            {
                "start_time": 3.715909090909091,
                "end_time": 3.7477272727272726,
                "pitch": 84,
                "velocity": 20,
                "duration": 0.031818181818181746,
                "tempo": 120.0
            },
            {
                "start_time": 3.7477272727272726,
                "end_time": 3.7818181818181817,
                "pitch": 93,
                "velocity": 20,
                "duration": 0.03409090909090917,
                "tempo": 120.0
            },
            {
                "start_time": 3.7818181818181817,
                "end_time": 3.8136363636363635,
                "pitch": 84,
                "velocity": 20,
                "duration": 0.031818181818181746,
                "tempo": 120.0
            },
            {
                "start_time": 3.8136363636363635,
                "end_time": 3.8613636363636363,
                "pitch": 89,
                "velocity": 20,
                "duration": 0.04772727272727284,
                "tempo": 120.0
            },
            {
                "start_time": 3.8613636363636363,
                "end_time": 3.895454545454545,
                "pitch": 91,
                "velocity": 20,
                "duration": 0.03409090909090873,
                "tempo": 120.0
            },
            {
                "start_time": 3.895454545454545,
                "end_time": 3.9272727272727272,
                "pitch": 95,
                "velocity": 20,
                "duration": 0.03181818181818219,
                "tempo": 120.0
            },
            {
                "start_time": 3.9272727272727272,
                "end_time": 3.977272727272727,
                "pitch": 88,
                "velocity": 20,
                "duration": 0.04999999999999982,
                "tempo": 120.0
            },
            {
                "start_time": 3.977272727272727,
                "end_time": 4.013636363636364,
                "pitch": 89,
                "velocity": 16,
                "duration": 0.0363636363636366,
                "tempo": 120.0
            },
            {
                "start_time": 4.013636363636364,
                "end_time": 4.043181818181818,
                "pitch": 86,
                "velocity": 16,
                "duration": 0.02954545454545432,
                "tempo": 120.0
            },
            {
                "start_time": 4.043181818181818,
                "end_time": 4.095454545454546,
                "pitch": 88,
                "velocity": 16,
                "duration": 0.05227272727272769,
                "tempo": 120.0
            },
            {
                "start_time": 4.095454545454546,
                "end_time": 4.129545454545454,
                "pitch": 84,
                "velocity": 16,
                "duration": 0.034090909090908283,
                "tempo": 120.0
            },
            {
                "start_time": 4.129545454545454,
                "end_time": 4.163636363636363,
                "pitch": 93,
                "velocity": 16,
                "duration": 0.03409090909090917,
                "tempo": 120.0
            },
            {
                "start_time": 4.163636363636363,
                "end_time": 4.215909090909091,
                "pitch": 84,
                "velocity": 16,
                "duration": 0.05227272727272769,
                "tempo": 120.0
            },
            {
                "start_time": 4.215909090909091,
                "end_time": 4.25,
                "pitch": 89,
                "velocity": 16,
                "duration": 0.03409090909090917,
                "tempo": 120.0
            },
            {
                "start_time": 4.25,
                "end_time": 4.284090909090909,
                "pitch": 91,
                "velocity": 16,
                "duration": 0.03409090909090917,
                "tempo": 120.0
            },
            {
                "start_time": 4.284090909090909,
                "end_time": 4.318181818181818,
                "pitch": 95,
                "velocity": 16,
                "duration": 0.03409090909090917,
                "tempo": 120.0
            },
            {
                "start_time": 4.318181818181818,
                "end_time": 4.370454545454545,
                "pitch": 88,
                "velocity": 16,
                "duration": 0.052272727272726804,
                "tempo": 120.0
            },
            {
                "start_time": 4.370454545454545,
                "end_time": 4.402272727272727,
                "pitch": 89,
                "velocity": 13,
                "duration": 0.03181818181818219,
                "tempo": 120.0
            },
            {
                "start_time": 4.404545454545454,
                "end_time": 4.4386363636363635,
                "pitch": 86,
                "velocity": 13,
                "duration": 0.03409090909090917,
                "tempo": 120.0
            },
            {
                "start_time": 4.4386363636363635,
                "end_time": 4.49090909090909,
                "pitch": 88,
                "velocity": 13,
                "duration": 0.052272727272726804,
                "tempo": 120.0
            },
            {
                "start_time": 4.49090909090909,
                "end_time": 4.5227272727272725,
                "pitch": 84,
                "velocity": 13,
                "duration": 0.03181818181818219,
                "tempo": 120.0
            },
            {
                "start_time": 4.5227272727272725,
                "end_time": 4.556818181818182,
                "pitch": 93,
                "velocity": 13,
                "duration": 0.03409090909090917,
                "tempo": 120.0
            },
            {
                "start_time": 4.556818181818182,
                "end_time": 4.6068181818181815,
                "pitch": 84,
                "velocity": 13,
                "duration": 0.04999999999999982,
                "tempo": 120.0
            },
            {
                "start_time": 4.6068181818181815,
                "end_time": 4.638636363636364,
                "pitch": 89,
                "velocity": 13,
                "duration": 0.03181818181818219,
                "tempo": 120.0
            },
            {
                "start_time": 4.640909090909091,
                "end_time": 4.672727272727273,
                "pitch": 91,
                "velocity": 13,
                "duration": 0.03181818181818219,
                "tempo": 120.0
            },
            {
                "start_time": 4.672727272727273,
                "end_time": 4.722727272727273,
                "pitch": 95,
                "velocity": 13,
                "duration": 0.04999999999999982,
                "tempo": 120.0
            },
            {
                "start_time": 4.725,
                "end_time": 4.756818181818182,
                "pitch": 88,
                "velocity": 13,
                "duration": 0.03181818181818219,
                "tempo": 120.0
            },
            {
                "start_time": 4.756818181818182,
                "end_time": 4.790909090909091,
                "pitch": 89,
                "velocity": 10,
                "duration": 0.03409090909090917,
                "tempo": 120.0
            },
            {
                "start_time": 4.790909090909091,
                "end_time": 4.825,
                "pitch": 86,
                "velocity": 10,
                "duration": 0.03409090909090917,
                "tempo": 120.0
            },
            {
                "start_time": 4.825,
                "end_time": 4.875,
                "pitch": 88,
                "velocity": 10,
                "duration": 0.04999999999999982,
                "tempo": 120.0
            },
            {
                "start_time": 4.875,
                "end_time": 4.906818181818181,
                "pitch": 84,
                "velocity": 10,
                "duration": 0.0318181818181813,
                "tempo": 120.0
            },
            {
                "start_time": 4.906818181818181,
                "end_time": 4.943181818181818,
                "pitch": 93,
                "velocity": 10,
                "duration": 0.03636363636363704,
                "tempo": 120.0
            },
            {
                "start_time": 4.943181818181818,
                "end_time": 4.99090909090909,
                "pitch": 84,
                "velocity": 10,
                "duration": 0.04772727272727195,
                "tempo": 120.0
            },
            {
                "start_time": 4.99090909090909,
                "end_time": 5.0249999999999995,
                "pitch": 89,
                "velocity": 10,
                "duration": 0.03409090909090917,
                "tempo": 120.0
            },
            {
                "start_time": 5.0249999999999995,
                "end_time": 5.059090909090909,
                "pitch": 91,
                "velocity": 10,
                "duration": 0.03409090909090917,
                "tempo": 120.0
            },
            {
                "start_time": 5.059090909090909,
                "end_time": 5.1090909090909085,
                "pitch": 95,
                "velocity": 10,
                "duration": 0.04999999999999982,
                "tempo": 120.0
            },
            {
                "start_time": 5.1090909090909085,
                "end_time": 5.140909090909091,
                "pitch": 88,
                "velocity": 10,
                "duration": 0.03181818181818219,
                "tempo": 120.0
            },
            {
                "start_time": 5.143181818181818,
                "end_time": 5.177272727272727,
                "pitch": 89,
                "velocity": 8,
                "duration": 0.03409090909090917,
                "tempo": 120.0
            },
            {
                "start_time": 5.177272727272727,
                "end_time": 5.225,
                "pitch": 86,
                "velocity": 8,
                "duration": 0.04772727272727284,
                "tempo": 120.0
            },
            {
                "start_time": 5.225,
                "end_time": 5.259090909090909,
                "pitch": 88,
                "velocity": 8,
                "duration": 0.03409090909090917,
                "tempo": 120.0
            },
            {
                "start_time": 5.259090909090909,
                "end_time": 5.293181818181818,
                "pitch": 84,
                "velocity": 8,
                "duration": 0.03409090909090917,
                "tempo": 120.0
            },
            {
                "start_time": 5.293181818181818,
                "end_time": 5.325,
                "pitch": 93,
                "velocity": 8,
                "duration": 0.03181818181818219,
                "tempo": 120.0
            },
            {
                "start_time": 5.327272727272727,
                "end_time": 5.377272727272727,
                "pitch": 84,
                "velocity": 8,
                "duration": 0.04999999999999982,
                "tempo": 120.0
            },
            {
                "start_time": 5.377272727272727,
                "end_time": 5.411363636363636,
                "pitch": 89,
                "velocity": 8,
                "duration": 0.03409090909090917,
                "tempo": 120.0
            },
            {
                "start_time": 5.411363636363636,
                "end_time": 5.443181818181818,
                "pitch": 91,
                "velocity": 8,
                "duration": 0.03181818181818219,
                "tempo": 120.0
            },
            {
                "start_time": 5.443181818181818,
                "end_time": 5.493181818181818,
                "pitch": 95,
                "velocity": 8,
                "duration": 0.04999999999999982,
                "tempo": 120.0
            },
            {
                "start_time": 5.493181818181818,
                "end_time": 5.527272727272727,
                "pitch": 88,
                "velocity": 8,
                "duration": 0.03409090909090917,
                "tempo": 120.0
            },
            {
                "start_time": 9.661363636363635,
                "end_time": 9.674999999999999,
                "pitch": 74,
                "velocity": 51,
                "duration": 0.013636363636363669,
                "tempo": 120.0
            },
            {
                "start_time": 9.677272727272726,
                "end_time": 9.693181818181818,
                "pitch": 77,
                "velocity": 51,
                "duration": 0.015909090909092427,
                "tempo": 120.0
            },
            {
                "start_time": 9.693181818181818,
                "end_time": 9.709090909090909,
                "pitch": 76,
                "velocity": 51,
                "duration": 0.01590909090909065,
                "tempo": 120.0
            },
            {
                "start_time": 9.709090909090909,
                "end_time": 9.725,
                "pitch": 83,
                "velocity": 51,
                "duration": 0.01590909090909065,
                "tempo": 120.0
            },
            {
                "start_time": 9.725,
                "end_time": 9.74090909090909,
                "pitch": 79,
                "velocity": 51,
                "duration": 0.01590909090909065,
                "tempo": 120.0
            },
            {
                "start_time": 9.74090909090909,
                "end_time": 9.775,
                "pitch": 81,
                "velocity": 51,
                "duration": 0.03409090909091006,
                "tempo": 120.0
            },
            {
                "start_time": 9.775,
                "end_time": 9.790909090909091,
                "pitch": 72,
                "velocity": 51,
                "duration": 0.01590909090909065,
                "tempo": 120.0
            },
            {
                "start_time": 9.790909090909091,
                "end_time": 9.806818181818182,
                "pitch": 76,
                "velocity": 51,
                "duration": 0.01590909090909065,
                "tempo": 120.0
            },
            {
                "start_time": 9.806818181818182,
                "end_time": 9.822727272727272,
                "pitch": 79,
                "velocity": 51,
                "duration": 0.01590909090909065,
                "tempo": 120.0
            },
            {
                "start_time": 9.822727272727272,
                "end_time": 9.84090909090909,
                "pitch": 77,
                "velocity": 51,
                "duration": 0.018181818181817633,
                "tempo": 120.0
            },
            {
                "start_time": 9.84090909090909,
                "end_time": 9.85681818181818,
                "pitch": 81,
                "velocity": 51,
                "duration": 0.01590909090909065,
                "tempo": 120.0
            },
            {
                "start_time": 9.85681818181818,
                "end_time": 9.872727272727273,
                "pitch": 81,
                "velocity": 51,
                "duration": 0.015909090909092427,
                "tempo": 120.0
            },
            {
                "start_time": 9.872727272727273,
                "end_time": 9.904545454545454,
                "pitch": 72,
                "velocity": 51,
                "duration": 0.0318181818181813,
                "tempo": 120.0
            },
            {
                "start_time": 9.904545454545454,
                "end_time": 9.920454545454545,
                "pitch": 83,
                "velocity": 51,
                "duration": 0.01590909090909065,
                "tempo": 120.0
            },
            {
                "start_time": 9.922727272727272,
                "end_time": 9.938636363636363,
                "pitch": 74,
                "velocity": 40,
                "duration": 0.01590909090909065,
                "tempo": 120.0
            },
            {
                "start_time": 9.938636363636363,
                "end_time": 9.954545454545453,
                "pitch": 77,
                "velocity": 40,
                "duration": 0.01590909090909065,
                "tempo": 120.0
            },
            {
                "start_time": 9.954545454545453,
                "end_time": 9.970454545454546,
                "pitch": 76,
                "velocity": 40,
                "duration": 0.015909090909092427,
                "tempo": 120.0
            },
            {
                "start_time": 9.970454545454546,
                "end_time": 9.986363636363636,
                "pitch": 83,
                "velocity": 40,
                "duration": 0.01590909090909065,
                "tempo": 120.0
            },
            {
                "start_time": 9.986363636363636,
                "end_time": 10.020454545454545,
                "pitch": 79,
                "velocity": 40,
                "duration": 0.034090909090908283,
                "tempo": 120.0
            },
            {
                "start_time": 10.020454545454545,
                "end_time": 10.036363636363635,
                "pitch": 81,
                "velocity": 40,
                "duration": 0.01590909090909065,
                "tempo": 120.0
            },
            {
                "start_time": 10.036363636363635,
                "end_time": 10.052272727272726,
                "pitch": 72,
                "velocity": 40,
                "duration": 0.01590909090909065,
                "tempo": 120.0
            },
            {
                "start_time": 10.052272727272726,
                "end_time": 10.070454545454545,
                "pitch": 76,
                "velocity": 40,
                "duration": 0.01818181818181941,
                "tempo": 120.0
            },
            {
                "start_time": 10.070454545454545,
                "end_time": 10.086363636363636,
                "pitch": 79,
                "velocity": 40,
                "duration": 0.01590909090909065,
                "tempo": 120.0
            },
            {
                "start_time": 10.086363636363636,
                "end_time": 10.102272727272727,
                "pitch": 77,
                "velocity": 40,
                "duration": 0.01590909090909065,
                "tempo": 120.0
            },
            {
                "start_time": 10.102272727272727,
                "end_time": 10.118181818181817,
                "pitch": 81,
                "velocity": 40,
                "duration": 0.01590909090909065,
                "tempo": 120.0
            },
            {
                "start_time": 10.120454545454544,
                "end_time": 10.152272727272727,
                "pitch": 81,
                "velocity": 40,
                "duration": 0.03181818181818308,
                "tempo": 120.0
            },
            {
                "start_time": 10.152272727272727,
                "end_time": 10.170454545454545,
                "pitch": 72,
                "velocity": 40,
                "duration": 0.018181818181817633,
                "tempo": 120.0
            },
            {
                "start_time": 10.170454545454545,
                "end_time": 10.186363636363636,
                "pitch": 83,
                "velocity": 40,
                "duration": 0.01590909090909065,
                "tempo": 120.0
            },
            {
                "start_time": 10.186363636363636,
                "end_time": 10.202272727272726,
                "pitch": 74,
                "velocity": 32,
                "duration": 0.01590909090909065,
                "tempo": 120.0
            },
            {
                "start_time": 10.202272727272726,
                "end_time": 10.220454545454546,
                "pitch": 77,
                "velocity": 32,
                "duration": 0.01818181818181941,
                "tempo": 120.0
            },
            {
                "start_time": 10.220454545454546,
                "end_time": 10.236363636363636,
                "pitch": 76,
                "velocity": 32,
                "duration": 0.01590909090909065,
                "tempo": 120.0
            },
            {
                "start_time": 10.236363636363636,
                "end_time": 10.270454545454545,
                "pitch": 83,
                "velocity": 32,
                "duration": 0.034090909090908283,
                "tempo": 120.0
            },
            {
                "start_time": 10.270454545454545,
                "end_time": 10.286363636363635,
                "pitch": 79,
                "velocity": 32,
                "duration": 0.01590909090909065,
                "tempo": 120.0
            },
            {
                "start_time": 10.286363636363635,
                "end_time": 10.304545454545455,
                "pitch": 81,
                "velocity": 32,
                "duration": 0.01818181818181941,
                "tempo": 120.0
            },
            {
                "start_time": 10.304545454545455,
                "end_time": 10.320454545454545,
                "pitch": 72,
                "velocity": 32,
                "duration": 0.01590909090909065,
                "tempo": 120.0
            },
            {
                "start_time": 10.320454545454545,
                "end_time": 10.336363636363636,
                "pitch": 76,
                "velocity": 32,
                "duration": 0.01590909090909065,
                "tempo": 120.0
            },
            {
                "start_time": 10.336363636363636,
                "end_time": 10.352272727272727,
                "pitch": 79,
                "velocity": 32,
                "duration": 0.01590909090909065,
                "tempo": 120.0
            },
            {
                "start_time": 10.354545454545454,
                "end_time": 10.370454545454544,
                "pitch": 77,
                "velocity": 32,
                "duration": 0.01590909090909065,
                "tempo": 120.0
            },
            {
                "start_time": 10.370454545454544,
                "end_time": 10.404545454545454,
                "pitch": 81,
                "velocity": 32,
                "duration": 0.03409090909091006,
                "tempo": 120.0
            },
            {
                "start_time": 10.404545454545454,
                "end_time": 10.420454545454545,
                "pitch": 81,
                "velocity": 32,
                "duration": 0.01590909090909065,
                "tempo": 120.0
            },
            {
                "start_time": 10.420454545454545,
                "end_time": 10.436363636363636,
                "pitch": 72,
                "velocity": 32,
                "duration": 0.01590909090909065,
                "tempo": 120.0
            },
            {
                "start_time": 10.438636363636363,
                "end_time": 10.454545454545453,
                "pitch": 83,
                "velocity": 32,
                "duration": 0.01590909090909065,
                "tempo": 120.0
            },
            {
                "start_time": 10.454545454545453,
                "end_time": 10.470454545454546,
                "pitch": 74,
                "velocity": 25,
                "duration": 0.015909090909092427,
                "tempo": 120.0
            },
            {
                "start_time": 10.470454545454546,
                "end_time": 10.486363636363636,
                "pitch": 77,
                "velocity": 25,
                "duration": 0.01590909090909065,
                "tempo": 120.0
            },
            {
                "start_time": 10.488636363636363,
                "end_time": 10.520454545454545,
                "pitch": 76,
                "velocity": 25,
                "duration": 0.0318181818181813,
                "tempo": 120.0
            },
            {
                "start_time": 10.520454545454545,
                "end_time": 10.538636363636362,
                "pitch": 83,
                "velocity": 25,
                "duration": 0.018181818181817633,
                "tempo": 120.0
            },
            {
                "start_time": 10.538636363636362,
                "end_time": 10.554545454545455,
                "pitch": 79,
                "velocity": 25,
                "duration": 0.015909090909092427,
                "tempo": 120.0
            },
            {
                "start_time": 10.554545454545455,
                "end_time": 10.570454545454545,
                "pitch": 81,
                "velocity": 25,
                "duration": 0.01590909090909065,
                "tempo": 120.0
            },
            {
                "start_time": 10.570454545454545,
                "end_time": 10.588636363636363,
                "pitch": 72,
                "velocity": 25,
                "duration": 0.018181818181817633,
                "tempo": 120.0
            },
            {
                "start_time": 10.588636363636363,
                "end_time": 10.604545454545454,
                "pitch": 76,
                "velocity": 25,
                "duration": 0.01590909090909065,
                "tempo": 120.0
            },
            {
                "start_time": 10.604545454545454,
                "end_time": 10.620454545454544,
                "pitch": 79,
                "velocity": 25,
                "duration": 0.01590909090909065,
                "tempo": 120.0
            },
            {
                "start_time": 10.622727272727273,
                "end_time": 10.654545454545454,
                "pitch": 77,
                "velocity": 25,
                "duration": 0.0318181818181813,
                "tempo": 120.0
            },
            {
                "start_time": 10.654545454545454,
                "end_time": 10.670454545454545,
                "pitch": 81,
                "velocity": 25,
                "duration": 0.01590909090909065,
                "tempo": 120.0
            },
            {
                "start_time": 10.672727272727272,
                "end_time": 10.688636363636363,
                "pitch": 81,
                "velocity": 25,
                "duration": 0.01590909090909065,
                "tempo": 120.0
            },
            {
                "start_time": 10.688636363636363,
                "end_time": 10.704545454545453,
                "pitch": 72,
                "velocity": 25,
                "duration": 0.01590909090909065,
                "tempo": 120.0
            },
            {
                "start_time": 10.704545454545453,
                "end_time": 10.722727272727273,
                "pitch": 83,
                "velocity": 25,
                "duration": 0.01818181818181941,
                "tempo": 120.0
            },
            {
                "start_time": 10.722727272727273,
                "end_time": 10.738636363636363,
                "pitch": 74,
                "velocity": 20,
                "duration": 0.01590909090909065,
                "tempo": 120.0
            },
            {
                "start_time": 10.738636363636363,
                "end_time": 10.772727272727272,
                "pitch": 77,
                "velocity": 20,
                "duration": 0.034090909090908283,
                "tempo": 120.0
            },
            {
                "start_time": 10.772727272727272,
                "end_time": 10.788636363636362,
                "pitch": 76,
                "velocity": 20,
                "duration": 0.01590909090909065,
                "tempo": 120.0
            },
            {
                "start_time": 10.788636363636362,
                "end_time": 10.804545454545455,
                "pitch": 83,
                "velocity": 20,
                "duration": 0.015909090909092427,
                "tempo": 120.0
            },
            {
                "start_time": 10.806818181818182,
                "end_time": 10.822727272727272,
                "pitch": 79,
                "velocity": 20,
                "duration": 0.01590909090909065,
                "tempo": 120.0
            },
            {
                "start_time": 10.822727272727272,
                "end_time": 10.838636363636363,
                "pitch": 81,
                "velocity": 20,
                "duration": 0.01590909090909065,
                "tempo": 120.0
            },
            {
                "start_time": 10.838636363636363,
                "end_time": 10.85681818181818,
                "pitch": 72,
                "velocity": 20,
                "duration": 0.018181818181817633,
                "tempo": 120.0
            },
            {
                "start_time": 10.85681818181818,
                "end_time": 10.872727272727273,
                "pitch": 76,
                "velocity": 20,
                "duration": 0.015909090909092427,
                "tempo": 120.0
            },
            {
                "start_time": 10.872727272727273,
                "end_time": 10.906818181818181,
                "pitch": 79,
                "velocity": 20,
                "duration": 0.034090909090908283,
                "tempo": 120.0
            },
            {
                "start_time": 10.906818181818181,
                "end_time": 10.922727272727272,
                "pitch": 77,
                "velocity": 20,
                "duration": 0.01590909090909065,
                "tempo": 120.0
            },
            {
                "start_time": 10.922727272727272,
                "end_time": 10.938636363636363,
                "pitch": 81,
                "velocity": 20,
                "duration": 0.01590909090909065,
                "tempo": 120.0
            },
            {
                "start_time": 10.938636363636363,
                "end_time": 10.956818181818182,
                "pitch": 81,
                "velocity": 20,
                "duration": 0.01818181818181941,
                "tempo": 120.0
            },
            {
                "start_time": 10.956818181818182,
                "end_time": 10.972727272727273,
                "pitch": 72,
                "velocity": 20,
                "duration": 0.01590909090909065,
                "tempo": 120.0
            },
            {
                "start_time": 10.972727272727273,
                "end_time": 10.99090909090909,
                "pitch": 83,
                "velocity": 20,
                "duration": 0.018181818181817633,
                "tempo": 120.0
            },
            {
                "start_time": 10.99090909090909,
                "end_time": 11.022727272727272,
                "pitch": 74,
                "velocity": 16,
                "duration": 0.0318181818181813,
                "tempo": 120.0
            },
            {
                "start_time": 11.024999999999999,
                "end_time": 11.040909090909091,
                "pitch": 77,
                "velocity": 16,
                "duration": 0.015909090909092427,
                "tempo": 120.0
            },
            {
                "start_time": 11.040909090909091,
                "end_time": 11.056818181818182,
                "pitch": 76,
                "velocity": 16,
                "duration": 0.01590909090909065,
                "tempo": 120.0
            },
            {
                "start_time": 11.059090909090909,
                "end_time": 11.075,
                "pitch": 83,
                "velocity": 16,
                "duration": 0.01590909090909065,
                "tempo": 120.0
            },
            {
                "start_time": 11.075,
                "end_time": 11.093181818181817,
                "pitch": 79,
                "velocity": 16,
                "duration": 0.018181818181817633,
                "tempo": 120.0
            },
            {
                "start_time": 11.093181818181817,
                "end_time": 11.10909090909091,
                "pitch": 81,
                "velocity": 16,
                "duration": 0.015909090909092427,
                "tempo": 120.0
            },
            {
                "start_time": 11.10909090909091,
                "end_time": 11.127272727272727,
                "pitch": 72,
                "velocity": 16,
                "duration": 0.018181818181817633,
                "tempo": 120.0
            },
            {
                "start_time": 11.127272727272727,
                "end_time": 11.161363636363635,
                "pitch": 76,
                "velocity": 16,
                "duration": 0.034090909090908283,
                "tempo": 120.0
            },
            {
                "start_time": 11.161363636363635,
                "end_time": 11.177272727272726,
                "pitch": 79,
                "velocity": 16,
                "duration": 0.01590909090909065,
                "tempo": 120.0
            },
            {
                "start_time": 11.177272727272726,
                "end_time": 11.195454545454545,
                "pitch": 77,
                "velocity": 16,
                "duration": 0.01818181818181941,
                "tempo": 120.0
            },
            {
                "start_time": 11.195454545454545,
                "end_time": 11.211363636363636,
                "pitch": 81,
                "velocity": 16,
                "duration": 0.01590909090909065,
                "tempo": 120.0
            },
            {
                "start_time": 11.213636363636363,
                "end_time": 11.229545454545454,
                "pitch": 81,
                "velocity": 16,
                "duration": 0.01590909090909065,
                "tempo": 120.0
            },
            {
                "start_time": 11.23181818181818,
                "end_time": 11.245454545454544,
                "pitch": 72,
                "velocity": 16,
                "duration": 0.013636363636363669,
                "tempo": 120.0
            },
            {
                "start_time": 11.247727272727273,
                "end_time": 11.281818181818181,
                "pitch": 83,
                "velocity": 16,
                "duration": 0.034090909090908283,
                "tempo": 120.0
            },
            {
                "start_time": 14.354545454545454,
                "end_time": 14.386363636363635,
                "pitch": 89,
                "velocity": 25,
                "duration": 0.0318181818181813,
                "tempo": 120.0
            },
            {
                "start_time": 14.388636363636364,
                "end_time": 14.420454545454545,
                "pitch": 86,
                "velocity": 25,
                "duration": 0.0318181818181813,
                "tempo": 120.0
            },
            {
                "start_time": 14.420454545454545,
                "end_time": 14.470454545454544,
                "pitch": 88,
                "velocity": 25,
                "duration": 0.049999999999998934,
                "tempo": 120.0
            },
            {
                "start_time": 14.470454545454544,
                "end_time": 14.506818181818181,
                "pitch": 84,
                "velocity": 25,
                "duration": 0.03636363636363704,
                "tempo": 120.0
            },
            {
                "start_time": 14.506818181818181,
                "end_time": 14.538636363636362,
                "pitch": 93,
                "velocity": 25,
                "duration": 0.0318181818181813,
                "tempo": 120.0
            },
            {
                "start_time": 14.538636363636362,
                "end_time": 14.588636363636363,
                "pitch": 84,
                "velocity": 25,
                "duration": 0.05000000000000071,
                "tempo": 120.0
            },
            {
                "start_time": 14.588636363636363,
                "end_time": 14.620454545454544,
                "pitch": 89,
                "velocity": 25,
                "duration": 0.0318181818181813,
                "tempo": 120.0
            },
            {
                "start_time": 14.622727272727271,
                "end_time": 14.654545454545454,
                "pitch": 91,
                "velocity": 25,
                "duration": 0.03181818181818308,
                "tempo": 120.0
            },
            {
                "start_time": 14.654545454545454,
                "end_time": 14.704545454545453,
                "pitch": 95,
                "velocity": 25,
                "duration": 0.049999999999998934,
                "tempo": 120.0
            },
            {
                "start_time": 14.704545454545453,
                "end_time": 14.74090909090909,
                "pitch": 88,
                "velocity": 25,
                "duration": 0.03636363636363704,
                "tempo": 120.0
            },
            {
                "start_time": 14.74090909090909,
                "end_time": 14.772727272727272,
                "pitch": 89,
                "velocity": 20,
                "duration": 0.0318181818181813,
                "tempo": 120.0
            },
            {
                "start_time": 14.772727272727272,
                "end_time": 14.822727272727272,
                "pitch": 86,
                "velocity": 20,
                "duration": 0.05000000000000071,
                "tempo": 120.0
            },
            {
                "start_time": 14.822727272727272,
                "end_time": 14.85681818181818,
                "pitch": 88,
                "velocity": 20,
                "duration": 0.034090909090908283,
                "tempo": 120.0
            },
            {
                "start_time": 14.85681818181818,
                "end_time": 14.888636363636364,
                "pitch": 84,
                "velocity": 20,
                "duration": 0.03181818181818308,
                "tempo": 120.0
            },
            {
                "start_time": 14.888636363636364,
                "end_time": 14.922727272727272,
                "pitch": 93,
                "velocity": 20,
                "duration": 0.034090909090908283,
                "tempo": 120.0
            },
            {
                "start_time": 14.922727272727272,
                "end_time": 14.975,
                "pitch": 84,
                "velocity": 20,
                "duration": 0.05227272727272769,
                "tempo": 120.0
            },
            {
                "start_time": 14.975,
                "end_time": 15.006818181818181,
                "pitch": 89,
                "velocity": 20,
                "duration": 0.0318181818181813,
                "tempo": 120.0
            },
            {
                "start_time": 15.006818181818181,
                "end_time": 15.040909090909091,
                "pitch": 91,
                "velocity": 20,
                "duration": 0.03409090909091006,
                "tempo": 120.0
            },
            {
                "start_time": 15.040909090909091,
                "end_time": 15.09090909090909,
                "pitch": 95,
                "velocity": 20,
                "duration": 0.049999999999998934,
                "tempo": 120.0
            },
            {
                "start_time": 15.09090909090909,
                "end_time": 15.122727272727271,
                "pitch": 88,
                "velocity": 20,
                "duration": 0.0318181818181813,
                "tempo": 120.0
            },
            {
                "start_time": 15.125,
                "end_time": 15.156818181818181,
                "pitch": 89,
                "velocity": 16,
                "duration": 0.0318181818181813,
                "tempo": 120.0
            },
            {
                "start_time": 15.156818181818181,
                "end_time": 15.211363636363636,
                "pitch": 86,
                "velocity": 16,
                "duration": 0.054545454545454675,
                "tempo": 120.0
            },
            {
                "start_time": 15.211363636363636,
                "end_time": 15.24090909090909,
                "pitch": 88,
                "velocity": 16,
                "duration": 0.02954545454545432,
                "tempo": 120.0
            },
            {
                "start_time": 15.24090909090909,
                "end_time": 15.274999999999999,
                "pitch": 84,
                "velocity": 16,
                "duration": 0.034090909090908283,
                "tempo": 120.0
            },
            {
                "start_time": 15.274999999999999,
                "end_time": 15.325,
                "pitch": 93,
                "velocity": 16,
                "duration": 0.05000000000000071,
                "tempo": 120.0
            },
            {
                "start_time": 15.325,
                "end_time": 15.359090909090908,
                "pitch": 84,
                "velocity": 16,
                "duration": 0.034090909090908283,
                "tempo": 120.0
            },
            {
                "start_time": 15.359090909090908,
                "end_time": 15.39090909090909,
                "pitch": 89,
                "velocity": 16,
                "duration": 0.03181818181818308,
                "tempo": 120.0
            },
            {
                "start_time": 15.393181818181818,
                "end_time": 15.424999999999999,
                "pitch": 91,
                "velocity": 16,
                "duration": 0.0318181818181813,
                "tempo": 120.0
            },
            {
                "start_time": 15.424999999999999,
                "end_time": 15.475,
                "pitch": 95,
                "velocity": 16,
                "duration": 0.05000000000000071,
                "tempo": 120.0
            },
            {
                "start_time": 15.475,
                "end_time": 15.509090909090908,
                "pitch": 88,
                "velocity": 16,
                "duration": 0.034090909090908283,
                "tempo": 120.0
            },
            {
                "start_time": 15.509090909090908,
                "end_time": 15.543181818181818,
                "pitch": 89,
                "velocity": 13,
                "duration": 0.03409090909091006,
                "tempo": 120.0
            },
            {
                "start_time": 15.543181818181818,
                "end_time": 15.593181818181817,
                "pitch": 86,
                "velocity": 13,
                "duration": 0.049999999999998934,
                "tempo": 120.0
            },
            {
                "start_time": 15.593181818181817,
                "end_time": 15.625,
                "pitch": 88,
                "velocity": 13,
                "duration": 0.03181818181818308,
                "tempo": 120.0
            },
            {
                "start_time": 15.627272727272727,
                "end_time": 15.659090909090908,
                "pitch": 84,
                "velocity": 13,
                "duration": 0.0318181818181813,
                "tempo": 120.0
            },
            {
                "start_time": 15.661363636363635,
                "end_time": 15.709090909090909,
                "pitch": 93,
                "velocity": 13,
                "duration": 0.04772727272727373,
                "tempo": 120.0
            },
            {
                "start_time": 15.709090909090909,
                "end_time": 15.743181818181817,
                "pitch": 84,
                "velocity": 13,
                "duration": 0.034090909090908283,
                "tempo": 120.0
            },
            {
                "start_time": 15.743181818181817,
                "end_time": 15.777272727272727,
                "pitch": 89,
                "velocity": 13,
                "duration": 0.03409090909091006,
                "tempo": 120.0
            },
            {
                "start_time": 15.777272727272727,
                "end_time": 15.827272727272726,
                "pitch": 91,
                "velocity": 13,
                "duration": 0.049999999999998934,
                "tempo": 120.0
            },
            {
                "start_time": 15.827272727272726,
                "end_time": 15.861363636363636,
                "pitch": 95,
                "velocity": 13,
                "duration": 0.03409090909091006,
                "tempo": 120.0
            },
            {
                "start_time": 15.861363636363636,
                "end_time": 15.895454545454545,
                "pitch": 88,
                "velocity": 13,
                "duration": 0.034090909090908283,
                "tempo": 120.0
            },
            {
                "start_time": 15.895454545454545,
                "end_time": 15.927272727272726,
                "pitch": 89,
                "velocity": 10,
                "duration": 0.0318181818181813,
                "tempo": 120.0
            },
            {
                "start_time": 15.927272727272726,
                "end_time": 15.977272727272727,
                "pitch": 86,
                "velocity": 10,
                "duration": 0.05000000000000071,
                "tempo": 120.0
            },
            {
                "start_time": 15.977272727272727,
                "end_time": 16.011363636363637,
                "pitch": 88,
                "velocity": 10,
                "duration": 0.03409090909091006,
                "tempo": 120.0
            },
            {
                "start_time": 16.011363636363637,
                "end_time": 16.045454545454543,
                "pitch": 84,
                "velocity": 10,
                "duration": 0.03409090909090651,
                "tempo": 120.0
            },
            {
                "start_time": 16.045454545454543,
                "end_time": 16.095454545454544,
                "pitch": 93,
                "velocity": 10,
                "duration": 0.05000000000000071,
                "tempo": 120.0
            },
            {
                "start_time": 16.095454545454544,
                "end_time": 16.129545454545454,
                "pitch": 84,
                "velocity": 10,
                "duration": 0.03409090909091006,
                "tempo": 120.0
            },
            {
                "start_time": 16.131818181818183,
                "end_time": 16.161363636363635,
                "pitch": 89,
                "velocity": 10,
                "duration": 0.029545454545452543,
                "tempo": 120.0
            },
            {
                "start_time": 16.163636363636364,
                "end_time": 16.21363636363636,
                "pitch": 91,
                "velocity": 10,
                "duration": 0.04999999999999716,
                "tempo": 120.0
            },
            {
                "start_time": 16.21363636363636,
                "end_time": 16.24772727272727,
                "pitch": 95,
                "velocity": 10,
                "duration": 0.03409090909091006,
                "tempo": 120.0
            },
            {
                "start_time": 16.24772727272727,
                "end_time": 16.28181818181818,
                "pitch": 88,
                "velocity": 10,
                "duration": 0.03409090909091006,
                "tempo": 120.0
            },
            {
                "start_time": 16.28181818181818,
                "end_time": 16.334090909090907,
                "pitch": 89,
                "velocity": 8,
                "duration": 0.052272727272725916,
                "tempo": 120.0
            },
            {
                "start_time": 16.334090909090907,
                "end_time": 16.370454545454546,
                "pitch": 86,
                "velocity": 8,
                "duration": 0.03636363636363882,
                "tempo": 120.0
            },
            {
                "start_time": 16.370454545454546,
                "end_time": 16.402272727272727,
                "pitch": 88,
                "velocity": 8,
                "duration": 0.0318181818181813,
                "tempo": 120.0
            },
            {
                "start_time": 16.402272727272727,
                "end_time": 16.436363636363634,
                "pitch": 84,
                "velocity": 8,
                "duration": 0.03409090909090651,
                "tempo": 120.0
            },
            {
                "start_time": 16.436363636363634,
                "end_time": 16.488636363636363,
                "pitch": 93,
                "velocity": 8,
                "duration": 0.05227272727272947,
                "tempo": 120.0
            },
            {
                "start_time": 16.488636363636363,
                "end_time": 16.522727272727273,
                "pitch": 84,
                "velocity": 8,
                "duration": 0.03409090909091006,
                "tempo": 120.0
            },
            {
                "start_time": 16.522727272727273,
                "end_time": 16.55681818181818,
                "pitch": 89,
                "velocity": 8,
                "duration": 0.03409090909090651,
                "tempo": 120.0
            },
            {
                "start_time": 16.55681818181818,
                "end_time": 16.60909090909091,
                "pitch": 91,
                "velocity": 8,
                "duration": 0.05227272727272947,
                "tempo": 120.0
            },
            {
                "start_time": 16.60909090909091,
                "end_time": 16.64090909090909,
                "pitch": 95,
                "velocity": 8,
                "duration": 0.0318181818181813,
                "tempo": 120.0
            },
            {
                "start_time": 16.64090909090909,
                "end_time": 16.675,
                "pitch": 88,
                "velocity": 8,
                "duration": 0.03409090909091006,
                "tempo": 120.0
            },
            {
                "start_time": 20.8,
                "end_time": 20.81590909090909,
                "pitch": 74,
                "velocity": 51,
                "duration": 0.01590909090909065,
                "tempo": 120.0
            },
            {
                "start_time": 20.81590909090909,
                "end_time": 20.831818181818182,
                "pitch": 77,
                "velocity": 51,
                "duration": 0.01590909090909065,
                "tempo": 120.0
            },
            {
                "start_time": 20.834090909090907,
                "end_time": 20.849999999999998,
                "pitch": 76,
                "velocity": 51,
                "duration": 0.01590909090909065,
                "tempo": 120.0
            },
            {
                "start_time": 20.849999999999998,
                "end_time": 20.88181818181818,
                "pitch": 83,
                "velocity": 51,
                "duration": 0.0318181818181813,
                "tempo": 120.0
            },
            {
                "start_time": 20.884090909090908,
                "end_time": 20.9,
                "pitch": 79,
                "velocity": 51,
                "duration": 0.01590909090909065,
                "tempo": 120.0
            },
            {
                "start_time": 20.9,
                "end_time": 20.91590909090909,
                "pitch": 81,
                "velocity": 51,
                "duration": 0.01590909090909065,
                "tempo": 120.0
            },
            {
                "start_time": 20.91590909090909,
                "end_time": 20.93409090909091,
                "pitch": 72,
                "velocity": 51,
                "duration": 0.01818181818181941,
                "tempo": 120.0
            },
            {
                "start_time": 20.93409090909091,
                "end_time": 20.95,
                "pitch": 76,
                "velocity": 51,
                "duration": 0.01590909090909065,
                "tempo": 120.0
            },
            {
                "start_time": 20.95,
                "end_time": 20.96590909090909,
                "pitch": 79,
                "velocity": 51,
                "duration": 0.01590909090909065,
                "tempo": 120.0
            },
            {
                "start_time": 20.96590909090909,
                "end_time": 20.98409090909091,
                "pitch": 77,
                "velocity": 51,
                "duration": 0.01818181818181941,
                "tempo": 120.0
            },
            {
                "start_time": 20.98409090909091,
                "end_time": 21.01590909090909,
                "pitch": 81,
                "velocity": 51,
                "duration": 0.0318181818181813,
                "tempo": 120.0
            },
            {
                "start_time": 21.018181818181816,
                "end_time": 21.034090909090907,
                "pitch": 81,
                "velocity": 51,
                "duration": 0.01590909090909065,
                "tempo": 120.0
            },
            {
                "start_time": 21.036363636363635,
                "end_time": 21.05,
                "pitch": 72,
                "velocity": 51,
                "duration": 0.013636363636365445,
                "tempo": 120.0
            },
            {
                "start_time": 21.05,
                "end_time": 21.06590909090909,
                "pitch": 83,
                "velocity": 51,
                "duration": 0.01590909090909065,
                "tempo": 120.0
            },
            {
                "start_time": 21.068181818181817,
                "end_time": 21.084090909090907,
                "pitch": 74,
                "velocity": 40,
                "duration": 0.01590909090909065,
                "tempo": 120.0
            },
            {
                "start_time": 21.084090909090907,
                "end_time": 21.099999999999998,
                "pitch": 77,
                "velocity": 40,
                "duration": 0.01590909090909065,
                "tempo": 120.0
            },
            {
                "start_time": 21.099999999999998,
                "end_time": 21.134090909090908,
                "pitch": 76,
                "velocity": 40,
                "duration": 0.03409090909091006,
                "tempo": 120.0
            },
            {
                "start_time": 21.134090909090908,
                "end_time": 21.15,
                "pitch": 83,
                "velocity": 40,
                "duration": 0.01590909090909065,
                "tempo": 120.0
            },
            {
                "start_time": 21.15,
                "end_time": 21.168181818181818,
                "pitch": 79,
                "velocity": 40,
                "duration": 0.01818181818181941,
                "tempo": 120.0
            },
            {
                "start_time": 21.168181818181818,
                "end_time": 21.18409090909091,
                "pitch": 81,
                "velocity": 40,
                "duration": 0.01590909090909065,
                "tempo": 120.0
            },
            {
                "start_time": 21.18409090909091,
                "end_time": 21.2,
                "pitch": 72,
                "velocity": 40,
                "duration": 0.01590909090909065,
                "tempo": 120.0
            },
            {
                "start_time": 21.202272727272724,
                "end_time": 21.21818181818182,
                "pitch": 76,
                "velocity": 40,
                "duration": 0.015909090909094203,
                "tempo": 120.0
            },
            {
                "start_time": 21.21818181818182,
                "end_time": 21.23409090909091,
                "pitch": 79,
                "velocity": 40,
                "duration": 0.01590909090909065,
                "tempo": 120.0
            },
            {
                "start_time": 21.23409090909091,
                "end_time": 21.268181818181816,
                "pitch": 77,
                "velocity": 40,
                "duration": 0.03409090909090651,
                "tempo": 120.0
            },
            {
                "start_time": 21.270454545454545,
                "end_time": 21.284090909090907,
                "pitch": 81,
                "velocity": 40,
                "duration": 0.013636363636361892,
                "tempo": 120.0
            },
            {
                "start_time": 21.284090909090907,
                "end_time": 21.302272727272726,
                "pitch": 81,
                "velocity": 40,
                "duration": 0.01818181818181941,
                "tempo": 120.0
            },
            {
                "start_time": 21.302272727272726,
                "end_time": 21.318181818181817,
                "pitch": 72,
                "velocity": 40,
                "duration": 0.01590909090909065,
                "tempo": 120.0
            },
            {
                "start_time": 21.318181818181817,
                "end_time": 21.334090909090907,
                "pitch": 83,
                "velocity": 40,
                "duration": 0.01590909090909065,
                "tempo": 120.0
            },
            {
                "start_time": 21.336363636363636,
                "end_time": 21.352272727272727,
                "pitch": 74,
                "velocity": 32,
                "duration": 0.01590909090909065,
                "tempo": 120.0
            },
            {
                "start_time": 21.352272727272727,
                "end_time": 21.384090909090908,
                "pitch": 77,
                "velocity": 32,
                "duration": 0.0318181818181813,
                "tempo": 120.0
            },
            {
                "start_time": 21.386363636363637,
                "end_time": 21.402272727272727,
                "pitch": 76,
                "velocity": 32,
                "duration": 0.01590909090909065,
                "tempo": 120.0
            },
            {
                "start_time": 21.402272727272727,
                "end_time": 21.418181818181818,
                "pitch": 83,
                "velocity": 32,
                "duration": 0.01590909090909065,
                "tempo": 120.0
            },
            {
                "start_time": 21.418181818181818,
                "end_time": 21.43409090909091,
                "pitch": 79,
                "velocity": 32,
                "duration": 0.01590909090909065,
                "tempo": 120.0
            },
            {
                "start_time": 21.436363636363634,
                "end_time": 21.452272727272724,
                "pitch": 81,
                "velocity": 32,
                "duration": 0.01590909090909065,
                "tempo": 120.0
            },
            {
                "start_time": 21.452272727272724,
                "end_time": 21.46818181818182,
                "pitch": 72,
                "velocity": 32,
                "duration": 0.015909090909094203,
                "tempo": 120.0
            },
            {
                "start_time": 21.46818181818182,
                "end_time": 21.486363636363635,
                "pitch": 76,
                "velocity": 32,
                "duration": 0.018181818181815856,
                "tempo": 120.0
            },
            {
                "start_time": 21.486363636363635,
                "end_time": 21.518181818181816,
                "pitch": 79,
                "velocity": 32,
                "duration": 0.0318181818181813,
                "tempo": 120.0
            },
            {
                "start_time": 21.518181818181816,
                "end_time": 21.536363636363635,
                "pitch": 77,
                "velocity": 32,
                "duration": 0.01818181818181941,
                "tempo": 120.0
            },
            {
                "start_time": 21.536363636363635,
                "end_time": 21.552272727272726,
                "pitch": 81,
                "velocity": 32,
                "duration": 0.01590909090909065,
                "tempo": 120.0
            },
            {
                "start_time": 21.552272727272726,
                "end_time": 21.568181818181817,
                "pitch": 81,
                "velocity": 32,
                "duration": 0.01590909090909065,
                "tempo": 120.0
            },
            {
                "start_time": 21.570454545454545,
                "end_time": 21.586363636363636,
                "pitch": 72,
                "velocity": 32,
                "duration": 0.01590909090909065,
                "tempo": 120.0
            },
            {
                "start_time": 21.586363636363636,
                "end_time": 21.602272727272727,
                "pitch": 83,
                "velocity": 32,
                "duration": 0.01590909090909065,
                "tempo": 120.0
            },
            {
                "start_time": 21.602272727272727,
                "end_time": 21.636363636363637,
                "pitch": 74,
                "velocity": 25,
                "duration": 0.03409090909091006,
                "tempo": 120.0
            },
            {
                "start_time": 21.636363636363637,
                "end_time": 21.652272727272727,
                "pitch": 77,
                "velocity": 25,
                "duration": 0.01590909090909065,
                "tempo": 120.0
            },
            {
                "start_time": 21.652272727272727,
                "end_time": 21.670454545454543,
                "pitch": 76,
                "velocity": 25,
                "duration": 0.018181818181815856,
                "tempo": 120.0
            },
            {
                "start_time": 21.670454545454543,
                "end_time": 21.686363636363634,
                "pitch": 83,
                "velocity": 25,
                "duration": 0.01590909090909065,
                "tempo": 120.0
            },
            {
                "start_time": 21.686363636363634,
                "end_time": 21.702272727272724,
                "pitch": 79,
                "velocity": 25,
                "duration": 0.01590909090909065,
                "tempo": 120.0
            },
            {
                "start_time": 21.704545454545453,
                "end_time": 21.720454545454544,
                "pitch": 81,
                "velocity": 25,
                "duration": 0.01590909090909065,
                "tempo": 120.0
            },
            {
                "start_time": 21.720454545454544,
                "end_time": 21.736363636363635,
                "pitch": 72,
                "velocity": 25,
                "duration": 0.01590909090909065,
                "tempo": 120.0
            },
            {
                "start_time": 21.736363636363635,
                "end_time": 21.770454545454545,
                "pitch": 76,
                "velocity": 25,
                "duration": 0.03409090909091006,
                "tempo": 120.0
            },
            {
                "start_time": 21.770454545454545,
                "end_time": 21.786363636363635,
                "pitch": 79,
                "velocity": 25,
                "duration": 0.01590909090909065,
                "tempo": 120.0
            },
            {
                "start_time": 21.786363636363635,
                "end_time": 21.804545454545455,
                "pitch": 77,
                "velocity": 25,
                "duration": 0.01818181818181941,
                "tempo": 120.0
            },
            {
                "start_time": 21.804545454545455,
                "end_time": 21.820454545454545,
                "pitch": 81,
                "velocity": 25,
                "duration": 0.01590909090909065,
                "tempo": 120.0
            },
            {
                "start_time": 21.820454545454545,
                "end_time": 21.836363636363636,
                "pitch": 81,
                "velocity": 25,
                "duration": 0.01590909090909065,
                "tempo": 120.0
            },
            {
                "start_time": 21.836363636363636,
                "end_time": 21.854545454545452,
                "pitch": 72,
                "velocity": 25,
                "duration": 0.018181818181815856,
                "tempo": 120.0
            },
            {
                "start_time": 21.854545454545452,
                "end_time": 21.886363636363637,
                "pitch": 83,
                "velocity": 25,
                "duration": 0.031818181818184854,
                "tempo": 120.0
            },
            {
                "start_time": 21.888636363636362,
                "end_time": 21.904545454545453,
                "pitch": 74,
                "velocity": 20,
                "duration": 0.01590909090909065,
                "tempo": 120.0
            },
            {
                "start_time": 21.904545454545453,
                "end_time": 21.920454545454543,
                "pitch": 77,
                "velocity": 20,
                "duration": 0.01590909090909065,
                "tempo": 120.0
            },
            {
                "start_time": 21.920454545454543,
                "end_time": 21.936363636363634,
                "pitch": 76,
                "velocity": 20,
                "duration": 0.01590909090909065,
                "tempo": 120.0
            },
            {
                "start_time": 21.938636363636363,
                "end_time": 21.954545454545453,
                "pitch": 83,
                "velocity": 20,
                "duration": 0.01590909090909065,
                "tempo": 120.0
            },
            {
                "start_time": 21.956818181818182,
                "end_time": 21.970454545454544,
                "pitch": 79,
                "velocity": 20,
                "duration": 0.013636363636361892,
                "tempo": 120.0
            },
            {
                "start_time": 21.970454545454544,
                "end_time": 21.988636363636363,
                "pitch": 81,
                "velocity": 20,
                "duration": 0.01818181818181941,
                "tempo": 120.0
            },
            {
                "start_time": 21.988636363636363,
                "end_time": 22.020454545454545,
                "pitch": 72,
                "velocity": 20,
                "duration": 0.0318181818181813,
                "tempo": 120.0
            },
            {
                "start_time": 22.020454545454545,
                "end_time": 22.038636363636364,
                "pitch": 76,
                "velocity": 20,
                "duration": 0.01818181818181941,
                "tempo": 120.0
            },
            {
                "start_time": 22.038636363636364,
                "end_time": 22.054545454545455,
                "pitch": 79,
                "velocity": 20,
                "duration": 0.01590909090909065,
                "tempo": 120.0
            },
            {
                "start_time": 22.054545454545455,
                "end_time": 22.070454545454545,
                "pitch": 77,
                "velocity": 20,
                "duration": 0.01590909090909065,
                "tempo": 120.0
            },
            {
                "start_time": 22.07272727272727,
                "end_time": 22.08863636363636,
                "pitch": 81,
                "velocity": 20,
                "duration": 0.01590909090909065,
                "tempo": 120.0
            },
            {
                "start_time": 22.08863636363636,
                "end_time": 22.104545454545452,
                "pitch": 81,
                "velocity": 20,
                "duration": 0.01590909090909065,
                "tempo": 120.0
            },
            {
                "start_time": 22.104545454545452,
                "end_time": 22.138636363636362,
                "pitch": 72,
                "velocity": 20,
                "duration": 0.03409090909091006,
                "tempo": 120.0
            },
            {
                "start_time": 22.138636363636362,
                "end_time": 22.154545454545453,
                "pitch": 83,
                "velocity": 20,
                "duration": 0.01590909090909065,
                "tempo": 120.0
            },
            {
                "start_time": 22.154545454545453,
                "end_time": 22.172727272727272,
                "pitch": 74,
                "velocity": 16,
                "duration": 0.01818181818181941,
                "tempo": 120.0
            },
            {
                "start_time": 22.172727272727272,
                "end_time": 22.19090909090909,
                "pitch": 77,
                "velocity": 16,
                "duration": 0.01818181818181941,
                "tempo": 120.0
            },
            {
                "start_time": 22.19090909090909,
                "end_time": 22.204545454545453,
                "pitch": 76,
                "velocity": 16,
                "duration": 0.013636363636361892,
                "tempo": 120.0
            },
            {
                "start_time": 22.204545454545453,
                "end_time": 22.222727272727273,
                "pitch": 83,
                "velocity": 16,
                "duration": 0.01818181818181941,
                "tempo": 120.0
            },
            {
                "start_time": 22.222727272727273,
                "end_time": 22.238636363636363,
                "pitch": 79,
                "velocity": 16,
                "duration": 0.01590909090909065,
                "tempo": 120.0
            },
            {
                "start_time": 22.238636363636363,
                "end_time": 22.272727272727273,
                "pitch": 81,
                "velocity": 16,
                "duration": 0.03409090909091006,
                "tempo": 120.0
            },
            {
                "start_time": 22.272727272727273,
                "end_time": 22.288636363636364,
                "pitch": 72,
                "velocity": 16,
                "duration": 0.01590909090909065,
                "tempo": 120.0
            },
            {
                "start_time": 22.288636363636364,
                "end_time": 22.30681818181818,
                "pitch": 76,
                "velocity": 16,
                "duration": 0.018181818181815856,
                "tempo": 120.0
            },
            {
                "start_time": 22.30681818181818,
                "end_time": 22.32272727272727,
                "pitch": 79,
                "velocity": 16,
                "duration": 0.01590909090909065,
                "tempo": 120.0
            },
            {
                "start_time": 22.32272727272727,
                "end_time": 22.33863636363636,
                "pitch": 77,
                "velocity": 16,
                "duration": 0.01590909090909065,
                "tempo": 120.0
            },
            {
                "start_time": 22.33863636363636,
                "end_time": 22.35681818181818,
                "pitch": 81,
                "velocity": 16,
                "duration": 0.01818181818181941,
                "tempo": 120.0
            },
            {
                "start_time": 22.35681818181818,
                "end_time": 22.388636363636362,
                "pitch": 81,
                "velocity": 16,
                "duration": 0.0318181818181813,
                "tempo": 120.0
            },
            {
                "start_time": 22.39090909090909,
                "end_time": 22.40681818181818,
                "pitch": 72,
                "velocity": 16,
                "duration": 0.01590909090909065,
                "tempo": 120.0
            },
            {
                "start_time": 22.40681818181818,
                "end_time": 22.424999999999997,
                "pitch": 83,
                "velocity": 16,
                "duration": 0.018181818181815856,
                "tempo": 120.0
            },
            {
                "start_time": 25.48181818181818,
                "end_time": 25.51590909090909,
                "pitch": 89,
                "velocity": 25,
                "duration": 0.03409090909091006,
                "tempo": 120.0
            },
            {
                "start_time": 25.51590909090909,
                "end_time": 25.56590909090909,
                "pitch": 86,
                "velocity": 25,
                "duration": 0.05000000000000071,
                "tempo": 120.0
            },
            {
                "start_time": 25.568181818181817,
                "end_time": 25.602272727272727,
                "pitch": 88,
                "velocity": 25,
                "duration": 0.03409090909091006,
                "tempo": 120.0
            },
            {
                "start_time": 25.602272727272727,
                "end_time": 25.636363636363637,
                "pitch": 84,
                "velocity": 25,
                "duration": 0.03409090909091006,
                "tempo": 120.0
            },
            {
                "start_time": 25.636363636363637,
                "end_time": 25.688636363636363,
                "pitch": 93,
                "velocity": 25,
                "duration": 0.052272727272725916,
                "tempo": 120.0
            },
            {
                "start_time": 25.688636363636363,
                "end_time": 25.720454545454544,
                "pitch": 84,
                "velocity": 25,
                "duration": 0.0318181818181813,
                "tempo": 120.0
            },
            {
                "start_time": 25.722727272727273,
                "end_time": 25.754545454545454,
                "pitch": 89,
                "velocity": 25,
                "duration": 0.0318181818181813,
                "tempo": 120.0
            },
            {
                "start_time": 25.75681818181818,
                "end_time": 25.80681818181818,
                "pitch": 91,
                "velocity": 25,
                "duration": 0.05000000000000071,
                "tempo": 120.0
            },
            {
                "start_time": 25.80681818181818,
                "end_time": 25.84090909090909,
                "pitch": 95,
                "velocity": 25,
                "duration": 0.03409090909091006,
                "tempo": 120.0
            },
            {
                "start_time": 25.84090909090909,
                "end_time": 25.875,
                "pitch": 88,
                "velocity": 25,
                "duration": 0.03409090909091006,
                "tempo": 120.0
            },
            {
                "start_time": 25.875,
                "end_time": 25.927272727272726,
                "pitch": 89,
                "velocity": 20,
                "duration": 0.052272727272725916,
                "tempo": 120.0
            },
            {
                "start_time": 25.929545454545455,
                "end_time": 25.961363636363636,
                "pitch": 86,
                "velocity": 20,
                "duration": 0.0318181818181813,
                "tempo": 120.0
            },
            {
                "start_time": 25.961363636363636,
                "end_time": 25.993181818181817,
                "pitch": 88,
                "velocity": 20,
                "duration": 0.0318181818181813,
                "tempo": 120.0
            },
            {
                "start_time": 25.993181818181817,
                "end_time": 26.027272727272727,
                "pitch": 84,
                "velocity": 20,
                "duration": 0.03409090909091006,
                "tempo": 120.0
            },
            {
                "start_time": 26.027272727272727,
                "end_time": 26.077272727272724,
                "pitch": 93,
                "velocity": 20,
                "duration": 0.04999999999999716,
                "tempo": 120.0
            },
            {
                "start_time": 26.077272727272724,
                "end_time": 26.111363636363635,
                "pitch": 84,
                "velocity": 20,
                "duration": 0.03409090909091006,
                "tempo": 120.0
            },
            {
                "start_time": 26.111363636363635,
                "end_time": 26.145454545454545,
                "pitch": 89,
                "velocity": 20,
                "duration": 0.03409090909091006,
                "tempo": 120.0
            },
            {
                "start_time": 26.145454545454545,
                "end_time": 26.195454545454545,
                "pitch": 91,
                "velocity": 20,
                "duration": 0.05000000000000071,
                "tempo": 120.0
            },
            {
                "start_time": 26.195454545454545,
                "end_time": 26.227272727272727,
                "pitch": 95,
                "velocity": 20,
                "duration": 0.0318181818181813,
                "tempo": 120.0
            },
            {
                "start_time": 26.229545454545452,
                "end_time": 26.261363636363637,
                "pitch": 88,
                "velocity": 20,
                "duration": 0.031818181818184854,
                "tempo": 120.0
            },
            {
                "start_time": 26.261363636363637,
                "end_time": 26.311363636363634,
                "pitch": 89,
                "velocity": 16,
                "duration": 0.04999999999999716,
                "tempo": 120.0
            },
            {
                "start_time": 26.311363636363634,
                "end_time": 26.345454545454544,
                "pitch": 86,
                "velocity": 16,
                "duration": 0.03409090909091006,
                "tempo": 120.0
            },
            {
                "start_time": 26.345454545454544,
                "end_time": 26.384090909090908,
                "pitch": 88,
                "velocity": 16,
                "duration": 0.038636363636364024,
                "tempo": 120.0
            },
            {
                "start_time": 26.384090909090908,
                "end_time": 26.427272727272726,
                "pitch": 84,
                "velocity": 16,
                "duration": 0.04318181818181799,
                "tempo": 120.0
            },
            {
                "start_time": 26.427272727272726,
                "end_time": 26.461363636363636,
                "pitch": 93,
                "velocity": 16,
                "duration": 0.03409090909091006,
                "tempo": 120.0
            },
            {
                "start_time": 26.461363636363636,
                "end_time": 26.493181818181817,
                "pitch": 84,
                "velocity": 16,
                "duration": 0.0318181818181813,
                "tempo": 120.0
            },
            {
                "start_time": 26.493181818181817,
                "end_time": 26.525,
                "pitch": 89,
                "velocity": 16,
                "duration": 0.0318181818181813,
                "tempo": 120.0
            },
            {
                "start_time": 26.527272727272727,
                "end_time": 26.575,
                "pitch": 91,
                "velocity": 16,
                "duration": 0.04772727272727195,
                "tempo": 120.0
            },
            {
                "start_time": 26.575,
                "end_time": 26.60909090909091,
                "pitch": 95,
                "velocity": 16,
                "duration": 0.03409090909091006,
                "tempo": 120.0
            },
            {
                "start_time": 26.60909090909091,
                "end_time": 26.64090909090909,
                "pitch": 88,
                "velocity": 16,
                "duration": 0.0318181818181813,
                "tempo": 120.0
            },
            {
                "start_time": 26.64090909090909,
                "end_time": 26.688636363636363,
                "pitch": 89,
                "velocity": 13,
                "duration": 0.04772727272727195,
                "tempo": 120.0
            },
            {
                "start_time": 26.69090909090909,
                "end_time": 26.722727272727273,
                "pitch": 86,
                "velocity": 13,
                "duration": 0.0318181818181813,
                "tempo": 120.0
            },
            {
                "start_time": 26.722727272727273,
                "end_time": 26.754545454545454,
                "pitch": 88,
                "velocity": 13,
                "duration": 0.0318181818181813,
                "tempo": 120.0
            },
            {
                "start_time": 26.754545454545454,
                "end_time": 26.804545454545455,
                "pitch": 84,
                "velocity": 13,
                "duration": 0.05000000000000071,
                "tempo": 120.0
            },
            {
                "start_time": 26.804545454545455,
                "end_time": 26.83863636363636,
                "pitch": 93,
                "velocity": 13,
                "duration": 0.03409090909090651,
                "tempo": 120.0
            },
            {
                "start_time": 26.83863636363636,
                "end_time": 26.870454545454542,
                "pitch": 84,
                "velocity": 13,
                "duration": 0.0318181818181813,
                "tempo": 120.0
            },
            {
                "start_time": 26.870454545454542,
                "end_time": 26.922727272727272,
                "pitch": 89,
                "velocity": 13,
                "duration": 0.05227272727272947,
                "tempo": 120.0
            },
            {
                "start_time": 26.922727272727272,
                "end_time": 26.956818181818182,
                "pitch": 91,
                "velocity": 13,
                "duration": 0.03409090909091006,
                "tempo": 120.0
            },
            {
                "start_time": 26.956818181818182,
                "end_time": 26.99090909090909,
                "pitch": 95,
                "velocity": 13,
                "duration": 0.03409090909090651,
                "tempo": 120.0
            },
            {
                "start_time": 26.99090909090909,
                "end_time": 27.025,
                "pitch": 88,
                "velocity": 13,
                "duration": 0.03409090909091006,
                "tempo": 120.0
            },
            {
                "start_time": 27.025,
                "end_time": 27.077272727272724,
                "pitch": 89,
                "velocity": 10,
                "duration": 0.052272727272725916,
                "tempo": 120.0
            },
            {
                "start_time": 27.077272727272724,
                "end_time": 27.111363636363635,
                "pitch": 86,
                "velocity": 10,
                "duration": 0.03409090909091006,
                "tempo": 120.0
            },
            {
                "start_time": 27.111363636363635,
                "end_time": 27.145454545454545,
                "pitch": 88,
                "velocity": 10,
                "duration": 0.03409090909091006,
                "tempo": 120.0
            },
            {
                "start_time": 27.145454545454545,
                "end_time": 27.19772727272727,
                "pitch": 84,
                "velocity": 10,
                "duration": 0.052272727272725916,
                "tempo": 120.0
            },
            {
                "start_time": 27.19772727272727,
                "end_time": 27.23181818181818,
                "pitch": 93,
                "velocity": 10,
                "duration": 0.03409090909091006,
                "tempo": 120.0
            },
            {
                "start_time": 27.23181818181818,
                "end_time": 27.26590909090909,
                "pitch": 84,
                "velocity": 10,
                "duration": 0.03409090909091006,
                "tempo": 120.0
            },
            {
                "start_time": 27.26590909090909,
                "end_time": 27.318181818181817,
                "pitch": 89,
                "velocity": 10,
                "duration": 0.052272727272725916,
                "tempo": 120.0
            },
            {
                "start_time": 27.320454545454545,
                "end_time": 27.349999999999998,
                "pitch": 91,
                "velocity": 10,
                "duration": 0.029545454545452543,
                "tempo": 120.0
            },
            {
                "start_time": 27.352272727272727,
                "end_time": 27.386363636363637,
                "pitch": 95,
                "velocity": 10,
                "duration": 0.03409090909091006,
                "tempo": 120.0
            },
            {
                "start_time": 27.386363636363637,
                "end_time": 27.436363636363634,
                "pitch": 88,
                "velocity": 10,
                "duration": 0.04999999999999716,
                "tempo": 120.0
            },
            {
                "start_time": 27.436363636363634,
                "end_time": 27.470454545454544,
                "pitch": 89,
                "velocity": 8,
                "duration": 0.03409090909091006,
                "tempo": 120.0
            },
            {
                "start_time": 27.470454545454544,
                "end_time": 27.504545454545454,
                "pitch": 86,
                "velocity": 8,
                "duration": 0.03409090909091006,
                "tempo": 120.0
            },
            {
                "start_time": 27.50681818181818,
                "end_time": 27.54090909090909,
                "pitch": 88,
                "velocity": 8,
                "duration": 0.03409090909091006,
                "tempo": 120.0
            },
            {
                "start_time": 27.54090909090909,
                "end_time": 27.59090909090909,
                "pitch": 84,
                "velocity": 8,
                "duration": 0.05000000000000071,
                "tempo": 120.0
            },
            {
                "start_time": 27.59090909090909,
                "end_time": 27.625,
                "pitch": 93,
                "velocity": 8,
                "duration": 0.03409090909091006,
                "tempo": 120.0
            },
            {
                "start_time": 27.625,
                "end_time": 27.659090909090907,
                "pitch": 84,
                "velocity": 8,
                "duration": 0.03409090909090651,
                "tempo": 120.0
            },
            {
                "start_time": 27.659090909090907,
                "end_time": 27.711363636363636,
                "pitch": 89,
                "velocity": 8,
                "duration": 0.05227272727272947,
                "tempo": 120.0
            },
            {
                "start_time": 27.711363636363636,
                "end_time": 27.745454545454542,
                "pitch": 91,
                "velocity": 8,
                "duration": 0.03409090909090651,
                "tempo": 120.0
            },
            {
                "start_time": 27.745454545454542,
                "end_time": 27.78181818181818,
                "pitch": 95,
                "velocity": 8,
                "duration": 0.03636363636363882,
                "tempo": 120.0
            },
            {
                "start_time": 27.78181818181818,
                "end_time": 27.829545454545453,
                "pitch": 88,
                "velocity": 8,
                "duration": 0.04772727272727195,
                "tempo": 120.0
            },
            {
                "start_time": 31.927272727272726,
                "end_time": 31.943181818181817,
                "pitch": 74,
                "velocity": 51,
                "duration": 0.01590909090909065,
                "tempo": 120.0
            },
            {
                "start_time": 31.943181818181817,
                "end_time": 31.977272727272727,
                "pitch": 77,
                "velocity": 51,
                "duration": 0.03409090909091006,
                "tempo": 120.0
            },
            {
                "start_time": 31.977272727272727,
                "end_time": 31.99090909090909,
                "pitch": 76,
                "velocity": 51,
                "duration": 0.013636363636361892,
                "tempo": 120.0
            },
            {
                "start_time": 31.99090909090909,
                "end_time": 32.00909090909091,
                "pitch": 83,
                "velocity": 51,
                "duration": 0.01818181818181941,
                "tempo": 120.0
            },
            {
                "start_time": 32.00909090909091,
                "end_time": 32.025,
                "pitch": 79,
                "velocity": 51,
                "duration": 0.01590909090909065,
                "tempo": 120.0
            },
            {
                "start_time": 32.025,
                "end_time": 32.04090909090909,
                "pitch": 81,
                "velocity": 51,
                "duration": 0.01590909090909065,
                "tempo": 120.0
            },
            {
                "start_time": 32.04090909090909,
                "end_time": 32.05681818181818,
                "pitch": 72,
                "velocity": 51,
                "duration": 0.01590909090909065,
                "tempo": 120.0
            },
            {
                "start_time": 32.05681818181818,
                "end_time": 32.07272727272727,
                "pitch": 76,
                "velocity": 51,
                "duration": 0.01590909090909065,
                "tempo": 120.0
            },
            {
                "start_time": 32.07272727272727,
                "end_time": 32.10681818181818,
                "pitch": 79,
                "velocity": 51,
                "duration": 0.03409090909090651,
                "tempo": 120.0
            },
            {
                "start_time": 32.10681818181818,
                "end_time": 32.12272727272727,
                "pitch": 77,
                "velocity": 51,
                "duration": 0.01590909090909065,
                "tempo": 120.0
            },
            {
                "start_time": 32.12272727272727,
                "end_time": 32.138636363636365,
                "pitch": 81,
                "velocity": 51,
                "duration": 0.015909090909097756,
                "tempo": 120.0
            },
            {
                "start_time": 32.138636363636365,
                "end_time": 32.154545454545456,
                "pitch": 81,
                "velocity": 51,
                "duration": 0.01590909090909065,
                "tempo": 120.0
            },
            {
                "start_time": 32.15681818181818,
                "end_time": 32.17272727272727,
                "pitch": 72,
                "velocity": 51,
                "duration": 0.01590909090909065,
                "tempo": 120.0
            },
            {
                "start_time": 32.17272727272727,
                "end_time": 32.18863636363636,
                "pitch": 83,
                "velocity": 51,
                "duration": 0.01590909090909065,
                "tempo": 120.0
            },
            {
                "start_time": 32.19090909090909,
                "end_time": 32.220454545454544,
                "pitch": 74,
                "velocity": 40,
                "duration": 0.029545454545456096,
                "tempo": 120.0
            },
            {
                "start_time": 32.220454545454544,
                "end_time": 32.236363636363635,
                "pitch": 77,
                "velocity": 40,
                "duration": 0.01590909090909065,
                "tempo": 120.0
            },
            {
                "start_time": 32.23863636363636,
                "end_time": 32.25454545454545,
                "pitch": 76,
                "velocity": 40,
                "duration": 0.01590909090909065,
                "tempo": 120.0
            },
            {
                "start_time": 32.25454545454545,
                "end_time": 32.27045454545454,
                "pitch": 83,
                "velocity": 40,
                "duration": 0.01590909090909065,
                "tempo": 120.0
            },
            {
                "start_time": 32.27045454545454,
                "end_time": 32.28636363636363,
                "pitch": 79,
                "velocity": 40,
                "duration": 0.01590909090909065,
                "tempo": 120.0
            },
            {
                "start_time": 32.28636363636363,
                "end_time": 32.30227272727272,
                "pitch": 81,
                "velocity": 40,
                "duration": 0.01590909090909065,
                "tempo": 120.0
            },
            {
                "start_time": 32.30227272727272,
                "end_time": 32.31818181818182,
                "pitch": 72,
                "velocity": 40,
                "duration": 0.015909090909097756,
                "tempo": 120.0
            },
            {
                "start_time": 32.31818181818182,
                "end_time": 32.35227272727273,
                "pitch": 76,
                "velocity": 40,
                "duration": 0.03409090909090651,
                "tempo": 120.0
            },
            {
                "start_time": 32.35227272727273,
                "end_time": 32.36818181818182,
                "pitch": 79,
                "velocity": 40,
                "duration": 0.01590909090909065,
                "tempo": 120.0
            },
            {
                "start_time": 32.36818181818182,
                "end_time": 32.38409090909091,
                "pitch": 77,
                "velocity": 40,
                "duration": 0.01590909090909065,
                "tempo": 120.0
            },
            {
                "start_time": 32.38409090909091,
                "end_time": 32.4,
                "pitch": 81,
                "velocity": 40,
                "duration": 0.01590909090909065,
                "tempo": 120.0
            },
            {
                "start_time": 32.4,
                "end_time": 32.418181818181814,
                "pitch": 81,
                "velocity": 40,
                "duration": 0.018181818181815856,
                "tempo": 120.0
            },
            {
                "start_time": 32.418181818181814,
                "end_time": 32.434090909090905,
                "pitch": 72,
                "velocity": 40,
                "duration": 0.01590909090909065,
                "tempo": 120.0
            },
            {
                "start_time": 32.434090909090905,
                "end_time": 32.46818181818182,
                "pitch": 83,
                "velocity": 40,
                "duration": 0.03409090909091361,
                "tempo": 120.0
            },
            {
                "start_time": 32.470454545454544,
                "end_time": 32.486363636363635,
                "pitch": 74,
                "velocity": 32,
                "duration": 0.01590909090909065,
                "tempo": 120.0
            },
            {
                "start_time": 32.486363636363635,
                "end_time": 32.50454545454545,
                "pitch": 77,
                "velocity": 32,
                "duration": 0.018181818181815856,
                "tempo": 120.0
            },
            {
                "start_time": 32.50454545454545,
                "end_time": 32.52272727272727,
                "pitch": 76,
                "velocity": 32,
                "duration": 0.018181818181822962,
                "tempo": 120.0
            },
            {
                "start_time": 32.52272727272727,
                "end_time": 32.538636363636364,
                "pitch": 83,
                "velocity": 32,
                "duration": 0.01590909090909065,
                "tempo": 120.0
            },
            {
                "start_time": 32.538636363636364,
                "end_time": 32.55681818181818,
                "pitch": 79,
                "velocity": 32,
                "duration": 0.018181818181815856,
                "tempo": 120.0
            },
            {
                "start_time": 32.55681818181818,
                "end_time": 32.574999999999996,
                "pitch": 81,
                "velocity": 32,
                "duration": 0.018181818181815856,
                "tempo": 120.0
            },
            {
                "start_time": 32.574999999999996,
                "end_time": 32.60909090909091,
                "pitch": 72,
                "velocity": 32,
                "duration": 0.03409090909091361,
                "tempo": 120.0
            },
            {
                "start_time": 32.60909090909091,
                "end_time": 32.627272727272725,
                "pitch": 76,
                "velocity": 32,
                "duration": 0.018181818181815856,
                "tempo": 120.0
            },
            {
                "start_time": 32.627272727272725,
                "end_time": 32.64545454545454,
                "pitch": 79,
                "velocity": 32,
                "duration": 0.018181818181815856,
                "tempo": 120.0
            },
            {
                "start_time": 32.64545454545454,
                "end_time": 32.663636363636364,
                "pitch": 77,
                "velocity": 32,
                "duration": 0.018181818181822962,
                "tempo": 120.0
            },
            {
                "start_time": 32.663636363636364,
                "end_time": 32.679545454545455,
                "pitch": 81,
                "velocity": 32,
                "duration": 0.01590909090909065,
                "tempo": 120.0
            },
            {
                "start_time": 32.679545454545455,
                "end_time": 32.69772727272727,
                "pitch": 81,
                "velocity": 32,
                "duration": 0.018181818181815856,
                "tempo": 120.0
            },
            {
                "start_time": 32.69772727272727,
                "end_time": 32.73181818181818,
                "pitch": 72,
                "velocity": 32,
                "duration": 0.03409090909090651,
                "tempo": 120.0
            },
            {
                "start_time": 32.73181818181818,
                "end_time": 32.75,
                "pitch": 83,
                "velocity": 32,
                "duration": 0.018181818181822962,
                "tempo": 120.0
            },
            {
                "start_time": 32.75,
                "end_time": 32.768181818181816,
                "pitch": 74,
                "velocity": 25,
                "duration": 0.018181818181815856,
                "tempo": 120.0
            },
            {
                "start_time": 32.768181818181816,
                "end_time": 32.78409090909091,
                "pitch": 77,
                "velocity": 25,
                "duration": 0.01590909090909065,
                "tempo": 120.0
            },
            {
                "start_time": 32.78636363636363,
                "end_time": 32.80227272727272,
                "pitch": 76,
                "velocity": 25,
                "duration": 0.01590909090909065,
                "tempo": 120.0
            },
            {
                "start_time": 32.80227272727272,
                "end_time": 32.820454545454545,
                "pitch": 83,
                "velocity": 25,
                "duration": 0.018181818181822962,
                "tempo": 120.0
            },
            {
                "start_time": 32.820454545454545,
                "end_time": 32.83863636363636,
                "pitch": 79,
                "velocity": 25,
                "duration": 0.018181818181815856,
                "tempo": 120.0
            },
            {
                "start_time": 32.83863636363636,
                "end_time": 32.87272727272727,
                "pitch": 81,
                "velocity": 25,
                "duration": 0.03409090909090651,
                "tempo": 120.0
            },
            {
                "start_time": 32.87272727272727,
                "end_time": 32.89090909090909,
                "pitch": 72,
                "velocity": 25,
                "duration": 0.018181818181822962,
                "tempo": 120.0
            },
            {
                "start_time": 32.89090909090909,
                "end_time": 32.90909090909091,
                "pitch": 76,
                "velocity": 25,
                "duration": 0.018181818181815856,
                "tempo": 120.0
            },
            {
                "start_time": 32.90909090909091,
                "end_time": 32.92272727272727,
                "pitch": 79,
                "velocity": 25,
                "duration": 0.013636363636365445,
                "tempo": 120.0
            },
            {
                "start_time": 32.925,
                "end_time": 32.94090909090909,
                "pitch": 77,
                "velocity": 25,
                "duration": 0.01590909090909065,
                "tempo": 120.0
            },
            {
                "start_time": 32.94090909090909,
                "end_time": 32.95681818181818,
                "pitch": 81,
                "velocity": 25,
                "duration": 0.01590909090909065,
                "tempo": 120.0
            },
            {
                "start_time": 32.95681818181818,
                "end_time": 32.98863636363636,
                "pitch": 81,
                "velocity": 25,
                "duration": 0.0318181818181813,
                "tempo": 120.0
            },
            {
                "start_time": 32.98863636363636,
                "end_time": 33.00454545454545,
                "pitch": 72,
                "velocity": 25,
                "duration": 0.01590909090909065,
                "tempo": 120.0
            },
            {
                "start_time": 33.00681818181818,
                "end_time": 33.02272727272727,
                "pitch": 83,
                "velocity": 25,
                "duration": 0.01590909090909065,
                "tempo": 120.0
            },
            {
                "start_time": 33.02272727272727,
                "end_time": 33.038636363636364,
                "pitch": 74,
                "velocity": 20,
                "duration": 0.01590909090909065,
                "tempo": 120.0
            },
            {
                "start_time": 33.038636363636364,
                "end_time": 33.054545454545455,
                "pitch": 77,
                "velocity": 20,
                "duration": 0.01590909090909065,
                "tempo": 120.0
            },
            {
                "start_time": 33.054545454545455,
                "end_time": 33.070454545454545,
                "pitch": 76,
                "velocity": 20,
                "duration": 0.01590909090909065,
                "tempo": 120.0
            },
            {
                "start_time": 33.070454545454545,
                "end_time": 33.086363636363636,
                "pitch": 83,
                "velocity": 20,
                "duration": 0.01590909090909065,
                "tempo": 120.0
            },
            {
                "start_time": 33.08863636363636,
                "end_time": 33.12045454545454,
                "pitch": 79,
                "velocity": 20,
                "duration": 0.0318181818181813,
                "tempo": 120.0
            },
            {
                "start_time": 33.12045454545454,
                "end_time": 33.138636363636365,
                "pitch": 81,
                "velocity": 20,
                "duration": 0.018181818181822962,
                "tempo": 120.0
            },
            {
                "start_time": 33.138636363636365,
                "end_time": 33.152272727272724,
                "pitch": 72,
                "velocity": 20,
                "duration": 0.01363636363635834,
                "tempo": 120.0
            },
            {
                "start_time": 33.152272727272724,
                "end_time": 33.168181818181814,
                "pitch": 76,
                "velocity": 20,
                "duration": 0.01590909090909065,
                "tempo": 120.0
            },
            {
                "start_time": 33.17045454545455,
                "end_time": 33.18636363636364,
                "pitch": 79,
                "velocity": 20,
                "duration": 0.01590909090909065,
                "tempo": 120.0
            },
            {
                "start_time": 33.18636363636364,
                "end_time": 33.20227272727273,
                "pitch": 77,
                "velocity": 20,
                "duration": 0.01590909090909065,
                "tempo": 120.0
            },
            {
                "start_time": 33.20227272727273,
                "end_time": 33.23409090909091,
                "pitch": 81,
                "velocity": 20,
                "duration": 0.0318181818181813,
                "tempo": 120.0
            },
            {
                "start_time": 33.23409090909091,
                "end_time": 33.25,
                "pitch": 81,
                "velocity": 20,
                "duration": 0.01590909090909065,
                "tempo": 120.0
            },
            {
                "start_time": 33.252272727272725,
                "end_time": 33.268181818181816,
                "pitch": 72,
                "velocity": 20,
                "duration": 0.01590909090909065,
                "tempo": 120.0
            },
            {
                "start_time": 33.268181818181816,
                "end_time": 33.28409090909091,
                "pitch": 83,
                "velocity": 20,
                "duration": 0.01590909090909065,
                "tempo": 120.0
            },
            {
                "start_time": 33.28409090909091,
                "end_time": 33.3,
                "pitch": 74,
                "velocity": 16,
                "duration": 0.01590909090909065,
                "tempo": 120.0
            },
            {
                "start_time": 33.3,
                "end_time": 33.31590909090909,
                "pitch": 77,
                "velocity": 16,
                "duration": 0.01590909090909065,
                "tempo": 120.0
            },
            {
                "start_time": 33.31590909090909,
                "end_time": 33.33181818181818,
                "pitch": 76,
                "velocity": 16,
                "duration": 0.01590909090909065,
                "tempo": 120.0
            },
            {
                "start_time": 33.33409090909091,
                "end_time": 33.36818181818182,
                "pitch": 83,
                "velocity": 16,
                "duration": 0.03409090909090651,
                "tempo": 120.0
            },
            {
                "start_time": 33.36818181818182,
                "end_time": 33.38181818181818,
                "pitch": 79,
                "velocity": 16,
                "duration": 0.013636363636365445,
                "tempo": 120.0
            },
            {
                "start_time": 33.38409090909091,
                "end_time": 33.4,
                "pitch": 81,
                "velocity": 16,
                "duration": 0.01590909090909065,
                "tempo": 120.0
            },
            {
                "start_time": 33.4,
                "end_time": 33.418181818181814,
                "pitch": 72,
                "velocity": 16,
                "duration": 0.018181818181815856,
                "tempo": 120.0
            },
            {
                "start_time": 33.418181818181814,
                "end_time": 33.434090909090905,
                "pitch": 76,
                "velocity": 16,
                "duration": 0.01590909090909065,
                "tempo": 120.0
            },
            {
                "start_time": 33.434090909090905,
                "end_time": 33.45227272727273,
                "pitch": 79,
                "velocity": 16,
                "duration": 0.018181818181822962,
                "tempo": 120.0
            },
            {
                "start_time": 33.45227272727273,
                "end_time": 33.486363636363635,
                "pitch": 77,
                "velocity": 16,
                "duration": 0.03409090909090651,
                "tempo": 120.0
            },
            {
                "start_time": 33.486363636363635,
                "end_time": 33.502272727272725,
                "pitch": 81,
                "velocity": 16,
                "duration": 0.01590909090909065,
                "tempo": 120.0
            },
            {
                "start_time": 33.502272727272725,
                "end_time": 33.52045454545454,
                "pitch": 81,
                "velocity": 16,
                "duration": 0.018181818181815856,
                "tempo": 120.0
            },
            {
                "start_time": 33.52045454545454,
                "end_time": 33.53636363636363,
                "pitch": 72,
                "velocity": 16,
                "duration": 0.01590909090909065,
                "tempo": 120.0
            },
            {
                "start_time": 33.538636363636364,
                "end_time": 33.554545454545455,
                "pitch": 83,
                "velocity": 16,
                "duration": 0.01590909090909065,
                "tempo": 120.0
            },
            {
                "start_time": 36.63181818181818,
                "end_time": 36.679545454545455,
                "pitch": 89,
                "velocity": 25,
                "duration": 0.04772727272727195,
                "tempo": 120.0
            },
            {
                "start_time": 36.679545454545455,
                "end_time": 36.71363636363636,
                "pitch": 86,
                "velocity": 25,
                "duration": 0.03409090909090651,
                "tempo": 120.0
            },
            {
                "start_time": 36.71363636363636,
                "end_time": 36.74772727272727,
                "pitch": 88,
                "velocity": 25,
                "duration": 0.03409090909090651,
                "tempo": 120.0
            },
            {
                "start_time": 36.74772727272727,
                "end_time": 36.79772727272727,
                "pitch": 84,
                "velocity": 25,
                "duration": 0.05000000000000426,
                "tempo": 120.0
            },
            {
                "start_time": 36.79772727272727,
                "end_time": 36.83181818181818,
                "pitch": 93,
                "velocity": 25,
                "duration": 0.03409090909090651,
                "tempo": 120.0
            },
            {
                "start_time": 36.83181818181818,
                "end_time": 36.86590909090909,
                "pitch": 84,
                "velocity": 25,
                "duration": 0.03409090909091361,
                "tempo": 120.0
            },
            {
                "start_time": 36.86590909090909,
                "end_time": 36.913636363636364,
                "pitch": 89,
                "velocity": 25,
                "duration": 0.04772727272727195,
                "tempo": 120.0
            },
            {
                "start_time": 36.913636363636364,
                "end_time": 36.94772727272727,
                "pitch": 91,
                "velocity": 25,
                "duration": 0.03409090909090651,
                "tempo": 120.0
            },
            {
                "start_time": 36.94772727272727,
                "end_time": 36.98181818181818,
                "pitch": 95,
                "velocity": 25,
                "duration": 0.03409090909090651,
                "tempo": 120.0
            },
            {
                "start_time": 36.98181818181818,
                "end_time": 37.03181818181818,
                "pitch": 88,
                "velocity": 25,
                "duration": 0.05000000000000426,
                "tempo": 120.0
            },
            {
                "start_time": 37.03181818181818,
                "end_time": 37.06590909090909,
                "pitch": 89,
                "velocity": 20,
                "duration": 0.03409090909090651,
                "tempo": 120.0
            },
            {
                "start_time": 37.06590909090909,
                "end_time": 37.1,
                "pitch": 86,
                "velocity": 20,
                "duration": 0.03409090909091361,
                "tempo": 120.0
            },
            {
                "start_time": 37.1,
                "end_time": 37.13181818181818,
                "pitch": 88,
                "velocity": 20,
                "duration": 0.0318181818181813,
                "tempo": 120.0
            },
            {
                "start_time": 37.13181818181818,
                "end_time": 37.184090909090905,
                "pitch": 84,
                "velocity": 20,
                "duration": 0.052272727272722364,
                "tempo": 120.0
            },
            {
                "start_time": 37.184090909090905,
                "end_time": 37.21818181818182,
                "pitch": 93,
                "velocity": 20,
                "duration": 0.03409090909091361,
                "tempo": 120.0
            },
            {
                "start_time": 37.21818181818182,
                "end_time": 37.252272727272725,
                "pitch": 84,
                "velocity": 20,
                "duration": 0.03409090909090651,
                "tempo": 120.0
            },
            {
                "start_time": 37.252272727272725,
                "end_time": 37.304545454545455,
                "pitch": 89,
                "velocity": 20,
                "duration": 0.05227272727272947,
                "tempo": 120.0
            },
            {
                "start_time": 37.304545454545455,
                "end_time": 37.33863636363636,
                "pitch": 91,
                "velocity": 20,
                "duration": 0.03409090909090651,
                "tempo": 120.0
            },
            {
                "start_time": 37.33863636363636,
                "end_time": 37.37272727272727,
                "pitch": 95,
                "velocity": 20,
                "duration": 0.03409090909090651,
                "tempo": 120.0
            },
            {
                "start_time": 37.37272727272727,
                "end_time": 37.42272727272727,
                "pitch": 88,
                "velocity": 20,
                "duration": 0.05000000000000426,
                "tempo": 120.0
            },
            {
                "start_time": 37.425,
                "end_time": 37.45681818181818,
                "pitch": 89,
                "velocity": 16,
                "duration": 0.0318181818181813,
                "tempo": 120.0
            },
            {
                "start_time": 37.45909090909091,
                "end_time": 37.49318181818182,
                "pitch": 86,
                "velocity": 16,
                "duration": 0.03409090909090651,
                "tempo": 120.0
            },
            {
                "start_time": 37.49318181818182,
                "end_time": 37.543181818181814,
                "pitch": 88,
                "velocity": 16,
                "duration": 0.04999999999999716,
                "tempo": 120.0
            },
            {
                "start_time": 37.543181818181814,
                "end_time": 37.58181818181818,
                "pitch": 84,
                "velocity": 16,
                "duration": 0.038636363636364024,
                "tempo": 120.0
            },
            {
                "start_time": 37.58181818181818,
                "end_time": 37.611363636363635,
                "pitch": 93,
                "velocity": 16,
                "duration": 0.029545454545456096,
                "tempo": 120.0
            },
            {
                "start_time": 37.611363636363635,
                "end_time": 37.643181818181816,
                "pitch": 84,
                "velocity": 16,
                "duration": 0.0318181818181813,
                "tempo": 120.0
            },
            {
                "start_time": 37.643181818181816,
                "end_time": 37.69318181818181,
                "pitch": 89,
                "velocity": 16,
                "duration": 0.04999999999999716,
                "tempo": 120.0
            },
            {
                "start_time": 37.69318181818181,
                "end_time": 37.725,
                "pitch": 91,
                "velocity": 16,
                "duration": 0.03181818181818841,
                "tempo": 120.0
            },
            {
                "start_time": 37.725,
                "end_time": 37.75681818181818,
                "pitch": 95,
                "velocity": 16,
                "duration": 0.0318181818181813,
                "tempo": 120.0
            },
            {
                "start_time": 37.75909090909091,
                "end_time": 37.80681818181818,
                "pitch": 88,
                "velocity": 16,
                "duration": 0.04772727272727195,
                "tempo": 120.0
            },
            {
                "start_time": 37.809090909090905,
                "end_time": 37.83863636363636,
                "pitch": 89,
                "velocity": 13,
                "duration": 0.029545454545456096,
                "tempo": 120.0
            },
            {
                "start_time": 37.840909090909086,
                "end_time": 37.87272727272727,
                "pitch": 86,
                "velocity": 13,
                "duration": 0.0318181818181813,
                "tempo": 120.0
            },
            {
                "start_time": 37.87272727272727,
                "end_time": 37.92272727272727,
                "pitch": 88,
                "velocity": 13,
                "duration": 0.05000000000000426,
                "tempo": 120.0
            },
            {
                "start_time": 37.92272727272727,
                "end_time": 37.95454545454545,
                "pitch": 84,
                "velocity": 13,
                "duration": 0.0318181818181813,
                "tempo": 120.0
            },
            {
                "start_time": 37.95454545454545,
                "end_time": 37.986363636363635,
                "pitch": 93,
                "velocity": 13,
                "duration": 0.0318181818181813,
                "tempo": 120.0
            },
            {
                "start_time": 37.986363636363635,
                "end_time": 38.03636363636363,
                "pitch": 84,
                "velocity": 13,
                "duration": 0.04999999999999716,
                "tempo": 120.0
            },
            {
                "start_time": 38.038636363636364,
                "end_time": 38.070454545454545,
                "pitch": 89,
                "velocity": 13,
                "duration": 0.0318181818181813,
                "tempo": 120.0
            },
            {
                "start_time": 38.070454545454545,
                "end_time": 38.10454545454545,
                "pitch": 91,
                "velocity": 13,
                "duration": 0.03409090909090651,
                "tempo": 120.0
            },
            {
                "start_time": 38.10454545454545,
                "end_time": 38.13863636363636,
                "pitch": 95,
                "velocity": 13,
                "duration": 0.03409090909090651,
                "tempo": 120.0
            },
            {
                "start_time": 38.14090909090909,
                "end_time": 38.19090909090909,
                "pitch": 88,
                "velocity": 13,
                "duration": 0.04999999999999716,
                "tempo": 120.0
            },
            {
                "start_time": 38.19090909090909,
                "end_time": 38.225,
                "pitch": 89,
                "velocity": 10,
                "duration": 0.03409090909091361,
                "tempo": 120.0
            },
            {
                "start_time": 38.225,
                "end_time": 38.25909090909091,
                "pitch": 86,
                "velocity": 10,
                "duration": 0.03409090909090651,
                "tempo": 120.0
            },
            {
                "start_time": 38.25909090909091,
                "end_time": 38.31136363636364,
                "pitch": 88,
                "velocity": 10,
                "duration": 0.05227272727272947,
                "tempo": 120.0
            },
            {
                "start_time": 38.31136363636364,
                "end_time": 38.345454545454544,
                "pitch": 84,
                "velocity": 10,
                "duration": 0.03409090909090651,
                "tempo": 120.0
            },
            {
                "start_time": 38.345454545454544,
                "end_time": 38.37954545454545,
                "pitch": 93,
                "velocity": 10,
                "duration": 0.03409090909090651,
                "tempo": 120.0
            },
            {
                "start_time": 38.37954545454545,
                "end_time": 38.429545454545455,
                "pitch": 84,
                "velocity": 10,
                "duration": 0.05000000000000426,
                "tempo": 120.0
            },
            {
                "start_time": 38.429545454545455,
                "end_time": 38.46363636363636,
                "pitch": 89,
                "velocity": 10,
                "duration": 0.03409090909090651,
                "tempo": 120.0
            },
            {
                "start_time": 38.46363636363636,
                "end_time": 38.5,
                "pitch": 91,
                "velocity": 10,
                "duration": 0.03636363636363882,
                "tempo": 120.0
            },
            {
                "start_time": 38.5,
                "end_time": 38.54772727272727,
                "pitch": 95,
                "velocity": 10,
                "duration": 0.04772727272727195,
                "tempo": 120.0
            },
            {
                "start_time": 38.54772727272727,
                "end_time": 38.57954545454545,
                "pitch": 88,
                "velocity": 10,
                "duration": 0.0318181818181813,
                "tempo": 120.0
            },
            {
                "start_time": 38.58181818181818,
                "end_time": 38.61363636363636,
                "pitch": 89,
                "velocity": 8,
                "duration": 0.0318181818181813,
                "tempo": 120.0
            },
            {
                "start_time": 38.61363636363636,
                "end_time": 38.64545454545454,
                "pitch": 86,
                "velocity": 8,
                "duration": 0.0318181818181813,
                "tempo": 120.0
            },
            {
                "start_time": 38.64545454545454,
                "end_time": 38.695454545454545,
                "pitch": 88,
                "velocity": 8,
                "duration": 0.05000000000000426,
                "tempo": 120.0
            },
            {
                "start_time": 38.695454545454545,
                "end_time": 38.72954545454545,
                "pitch": 84,
                "velocity": 8,
                "duration": 0.03409090909090651,
                "tempo": 120.0
            },
            {
                "start_time": 38.72954545454545,
                "end_time": 38.76136363636363,
                "pitch": 93,
                "velocity": 8,
                "duration": 0.0318181818181813,
                "tempo": 120.0
            },
            {
                "start_time": 38.76136363636363,
                "end_time": 38.809090909090905,
                "pitch": 84,
                "velocity": 8,
                "duration": 0.04772727272727195,
                "tempo": 120.0
            },
            {
                "start_time": 38.809090909090905,
                "end_time": 38.84318181818182,
                "pitch": 89,
                "velocity": 8,
                "duration": 0.03409090909091361,
                "tempo": 120.0
            },
            {
                "start_time": 38.84318181818182,
                "end_time": 38.875,
                "pitch": 91,
                "velocity": 8,
                "duration": 0.0318181818181813,
                "tempo": 120.0
            },
            {
                "start_time": 38.875,
                "end_time": 38.925,
                "pitch": 95,
                "velocity": 8,
                "duration": 0.04999999999999716,
                "tempo": 120.0
            },
            {
                "start_time": 38.925,
                "end_time": 38.959090909090904,
                "pitch": 88,
                "velocity": 8,
                "duration": 0.03409090909090651,
                "tempo": 120.0
            },
            {
                "start_time": 43.084090909090904,
                "end_time": 43.1,
                "pitch": 74,
                "velocity": 51,
                "duration": 0.015909090909097756,
                "tempo": 120.0
            },
            {
                "start_time": 43.1,
                "end_time": 43.11590909090909,
                "pitch": 77,
                "velocity": 51,
                "duration": 0.01590909090909065,
                "tempo": 120.0
            },
            {
                "start_time": 43.11590909090909,
                "end_time": 43.13181818181818,
                "pitch": 76,
                "velocity": 51,
                "duration": 0.01590909090909065,
                "tempo": 120.0
            },
            {
                "start_time": 43.13181818181818,
                "end_time": 43.15,
                "pitch": 83,
                "velocity": 51,
                "duration": 0.018181818181815856,
                "tempo": 120.0
            },
            {
                "start_time": 43.15,
                "end_time": 43.163636363636364,
                "pitch": 79,
                "velocity": 51,
                "duration": 0.013636363636365445,
                "tempo": 120.0
            },
            {
                "start_time": 43.16590909090909,
                "end_time": 43.18181818181818,
                "pitch": 81,
                "velocity": 51,
                "duration": 0.01590909090909065,
                "tempo": 120.0
            },
            {
                "start_time": 43.18181818181818,
                "end_time": 43.215909090909086,
                "pitch": 72,
                "velocity": 51,
                "duration": 0.03409090909090651,
                "tempo": 120.0
            },
            {
                "start_time": 43.215909090909086,
                "end_time": 43.23181818181818,
                "pitch": 76,
                "velocity": 51,
                "duration": 0.01590909090909065,
                "tempo": 120.0
            },
            {
                "start_time": 43.23181818181818,
                "end_time": 43.24772727272727,
                "pitch": 79,
                "velocity": 51,
                "duration": 0.01590909090909065,
                "tempo": 120.0
            },
            {
                "start_time": 43.24772727272727,
                "end_time": 43.26590909090909,
                "pitch": 77,
                "velocity": 51,
                "duration": 0.018181818181822962,
                "tempo": 120.0
            },
            {
                "start_time": 43.26590909090909,
                "end_time": 43.28181818181818,
                "pitch": 81,
                "velocity": 51,
                "duration": 0.01590909090909065,
                "tempo": 120.0
            },
            {
                "start_time": 43.28181818181818,
                "end_time": 43.29772727272727,
                "pitch": 81,
                "velocity": 51,
                "duration": 0.01590909090909065,
                "tempo": 120.0
            },
            {
                "start_time": 43.3,
                "end_time": 43.33181818181818,
                "pitch": 72,
                "velocity": 51,
                "duration": 0.0318181818181813,
                "tempo": 120.0
            },
            {
                "start_time": 43.33181818181818,
                "end_time": 43.35,
                "pitch": 83,
                "velocity": 51,
                "duration": 0.018181818181822962,
                "tempo": 120.0
            },
            {
                "start_time": 43.35,
                "end_time": 43.36590909090909,
                "pitch": 74,
                "velocity": 40,
                "duration": 0.01590909090909065,
                "tempo": 120.0
            },
            {
                "start_time": 43.36590909090909,
                "end_time": 43.38409090909091,
                "pitch": 77,
                "velocity": 40,
                "duration": 0.018181818181815856,
                "tempo": 120.0
            },
            {
                "start_time": 43.38409090909091,
                "end_time": 43.4,
                "pitch": 76,
                "velocity": 40,
                "duration": 0.01590909090909065,
                "tempo": 120.0
            },
            {
                "start_time": 43.4,
                "end_time": 43.41590909090909,
                "pitch": 83,
                "velocity": 40,
                "duration": 0.01590909090909065,
                "tempo": 120.0
            },
            {
                "start_time": 43.41590909090909,
                "end_time": 43.43181818181818,
                "pitch": 79,
                "velocity": 40,
                "duration": 0.01590909090909065,
                "tempo": 120.0
            },
            {
                "start_time": 43.43181818181818,
                "end_time": 43.465909090909086,
                "pitch": 81,
                "velocity": 40,
                "duration": 0.03409090909090651,
                "tempo": 120.0
            },
            {
                "start_time": 43.465909090909086,
                "end_time": 43.48181818181818,
                "pitch": 72,
                "velocity": 40,
                "duration": 0.01590909090909065,
                "tempo": 120.0
            },
            {
                "start_time": 43.48409090909091,
                "end_time": 43.5,
                "pitch": 76,
                "velocity": 40,
                "duration": 0.01590909090909065,
                "tempo": 120.0
            },
            {
                "start_time": 43.5,
                "end_time": 43.51590909090909,
                "pitch": 79,
                "velocity": 40,
                "duration": 0.01590909090909065,
                "tempo": 120.0
            },
            {
                "start_time": 43.51590909090909,
                "end_time": 43.53409090909091,
                "pitch": 77,
                "velocity": 40,
                "duration": 0.018181818181815856,
                "tempo": 120.0
            },
            {
                "start_time": 43.53409090909091,
                "end_time": 43.55,
                "pitch": 81,
                "velocity": 40,
                "duration": 0.01590909090909065,
                "tempo": 120.0
            },
            {
                "start_time": 43.55,
                "end_time": 43.584090909090904,
                "pitch": 81,
                "velocity": 40,
                "duration": 0.03409090909090651,
                "tempo": 120.0
            },
            {
                "start_time": 43.584090909090904,
                "end_time": 43.6,
                "pitch": 72,
                "velocity": 40,
                "duration": 0.015909090909097756,
                "tempo": 120.0
            },
            {
                "start_time": 43.6,
                "end_time": 43.61818181818182,
                "pitch": 83,
                "velocity": 40,
                "duration": 0.018181818181815856,
                "tempo": 120.0
            },
            {
                "start_time": 43.61818181818182,
                "end_time": 43.63181818181818,
                "pitch": 74,
                "velocity": 32,
                "duration": 0.013636363636365445,
                "tempo": 120.0
            },
            {
                "start_time": 43.63409090909091,
                "end_time": 43.65,
                "pitch": 77,
                "velocity": 32,
                "duration": 0.01590909090909065,
                "tempo": 120.0
            },
            {
                "start_time": 43.65,
                "end_time": 43.66590909090909,
                "pitch": 76,
                "velocity": 32,
                "duration": 0.01590909090909065,
                "tempo": 120.0
            },
            {
                "start_time": 43.66590909090909,
                "end_time": 43.68181818181818,
                "pitch": 83,
                "velocity": 32,
                "duration": 0.01590909090909065,
                "tempo": 120.0
            },
            {
                "start_time": 43.68181818181818,
                "end_time": 43.71363636363636,
                "pitch": 79,
                "velocity": 32,
                "duration": 0.0318181818181813,
                "tempo": 120.0
            },
            {
                "start_time": 43.715909090909086,
                "end_time": 43.73181818181818,
                "pitch": 81,
                "velocity": 32,
                "duration": 0.01590909090909065,
                "tempo": 120.0
            },
            {
                "start_time": 43.73181818181818,
                "end_time": 43.74772727272727,
                "pitch": 72,
                "velocity": 32,
                "duration": 0.01590909090909065,
                "tempo": 120.0
            },
            {
                "start_time": 43.74772727272727,
                "end_time": 43.76363636363636,
                "pitch": 76,
                "velocity": 32,
                "duration": 0.01590909090909065,
                "tempo": 120.0
            },
            {
                "start_time": 43.76363636363636,
                "end_time": 43.77954545454545,
                "pitch": 79,
                "velocity": 32,
                "duration": 0.01590909090909065,
                "tempo": 120.0
            },
            {
                "start_time": 43.77954545454545,
                "end_time": 43.79545454545455,
                "pitch": 77,
                "velocity": 32,
                "duration": 0.015909090909097756,
                "tempo": 120.0
            },
            {
                "start_time": 43.79772727272727,
                "end_time": 43.82954545454545,
                "pitch": 81,
                "velocity": 32,
                "duration": 0.0318181818181813,
                "tempo": 120.0
            },
            {
                "start_time": 43.82954545454545,
                "end_time": 43.84772727272727,
                "pitch": 81,
                "velocity": 32,
                "duration": 0.018181818181815856,
                "tempo": 120.0
            },
            {
                "start_time": 43.84772727272727,
                "end_time": 43.861363636363635,
                "pitch": 72,
                "velocity": 32,
                "duration": 0.013636363636365445,
                "tempo": 120.0
            },
            {
                "start_time": 43.861363636363635,
                "end_time": 43.877272727272725,
                "pitch": 83,
                "velocity": 32,
                "duration": 0.01590909090909065,
                "tempo": 120.0
            },
            {
                "start_time": 43.87954545454545,
                "end_time": 43.89545454545454,
                "pitch": 74,
                "velocity": 25,
                "duration": 0.01590909090909065,
                "tempo": 120.0
            },
            {
                "start_time": 43.89545454545454,
                "end_time": 43.91136363636363,
                "pitch": 77,
                "velocity": 25,
                "duration": 0.01590909090909065,
                "tempo": 120.0
            },
            {
                "start_time": 43.91136363636363,
                "end_time": 43.92727272727272,
                "pitch": 76,
                "velocity": 25,
                "duration": 0.01590909090909065,
                "tempo": 120.0
            },
            {
                "start_time": 43.92727272727272,
                "end_time": 43.959090909090904,
                "pitch": 83,
                "velocity": 25,
                "duration": 0.0318181818181813,
                "tempo": 120.0
            },
            {
                "start_time": 43.961363636363636,
                "end_time": 43.97727272727273,
                "pitch": 79,
                "velocity": 25,
                "duration": 0.01590909090909065,
                "tempo": 120.0
            },
            {
                "start_time": 43.97727272727273,
                "end_time": 43.99318181818182,
                "pitch": 81,
                "velocity": 25,
                "duration": 0.01590909090909065,
                "tempo": 120.0
            },
            {
                "start_time": 43.99318181818182,
                "end_time": 44.00909090909091,
                "pitch": 72,
                "velocity": 25,
                "duration": 0.01590909090909065,
                "tempo": 120.0
            },
            {
                "start_time": 44.00909090909091,
                "end_time": 44.025,
                "pitch": 76,
                "velocity": 25,
                "duration": 0.01590909090909065,
                "tempo": 120.0
            },
            {
                "start_time": 44.025,
                "end_time": 44.04090909090909,
                "pitch": 79,
                "velocity": 25,
                "duration": 0.01590909090909065,
                "tempo": 120.0
            },
            {
                "start_time": 44.043181818181814,
                "end_time": 44.07727272727273,
                "pitch": 77,
                "velocity": 25,
                "duration": 0.03409090909091361,
                "tempo": 120.0
            },
            {
                "start_time": 44.07727272727273,
                "end_time": 44.09318181818182,
                "pitch": 81,
                "velocity": 25,
                "duration": 0.01590909090909065,
                "tempo": 120.0
            },
            {
                "start_time": 44.09318181818182,
                "end_time": 44.10909090909091,
                "pitch": 81,
                "velocity": 25,
                "duration": 0.01590909090909065,
                "tempo": 120.0
            },
            {
                "start_time": 44.10909090909091,
                "end_time": 44.127272727272725,
                "pitch": 72,
                "velocity": 25,
                "duration": 0.018181818181815856,
                "tempo": 120.0
            },
            {
                "start_time": 44.127272727272725,
                "end_time": 44.14545454545454,
                "pitch": 83,
                "velocity": 25,
                "duration": 0.018181818181815856,
                "tempo": 120.0
            },
            {
                "start_time": 44.14545454545454,
                "end_time": 44.16136363636363,
                "pitch": 74,
                "velocity": 20,
                "duration": 0.01590909090909065,
                "tempo": 120.0
            },
            {
                "start_time": 44.16136363636363,
                "end_time": 44.179545454545455,
                "pitch": 77,
                "velocity": 20,
                "duration": 0.018181818181822962,
                "tempo": 120.0
            },
            {
                "start_time": 44.179545454545455,
                "end_time": 44.21363636363636,
                "pitch": 76,
                "velocity": 20,
                "duration": 0.03409090909090651,
                "tempo": 120.0
            },
            {
                "start_time": 44.21363636363636,
                "end_time": 44.23181818181818,
                "pitch": 83,
                "velocity": 20,
                "duration": 0.018181818181815856,
                "tempo": 120.0
            },
            {
                "start_time": 44.23181818181818,
                "end_time": 44.25,
                "pitch": 79,
                "velocity": 20,
                "duration": 0.018181818181822962,
                "tempo": 120.0
            },
            {
                "start_time": 44.25,
                "end_time": 44.26590909090909,
                "pitch": 81,
                "velocity": 20,
                "duration": 0.01590909090909065,
                "tempo": 120.0
            },
            {
                "start_time": 44.26590909090909,
                "end_time": 44.28409090909091,
                "pitch": 72,
                "velocity": 20,
                "duration": 0.018181818181815856,
                "tempo": 120.0
            },
            {
                "start_time": 44.28409090909091,
                "end_time": 44.30227272727272,
                "pitch": 76,
                "velocity": 20,
                "duration": 0.018181818181815856,
                "tempo": 120.0
            },
            {
                "start_time": 44.30227272727272,
                "end_time": 44.336363636363636,
                "pitch": 79,
                "velocity": 20,
                "duration": 0.03409090909091361,
                "tempo": 120.0
            },
            {
                "start_time": 44.336363636363636,
                "end_time": 44.35454545454545,
                "pitch": 77,
                "velocity": 20,
                "duration": 0.018181818181815856,
                "tempo": 120.0
            },
            {
                "start_time": 44.35454545454545,
                "end_time": 44.37045454545454,
                "pitch": 81,
                "velocity": 20,
                "duration": 0.01590909090909065,
                "tempo": 120.0
            },
            {
                "start_time": 44.37045454545454,
                "end_time": 44.38863636363636,
                "pitch": 81,
                "velocity": 20,
                "duration": 0.018181818181815856,
                "tempo": 120.0
            },
            {
                "start_time": 44.38863636363636,
                "end_time": 44.40681818181818,
                "pitch": 72,
                "velocity": 20,
                "duration": 0.018181818181822962,
                "tempo": 120.0
            },
            {
                "start_time": 44.40681818181818,
                "end_time": 44.42272727272727,
                "pitch": 83,
                "velocity": 20,
                "duration": 0.01590909090909065,
                "tempo": 120.0
            },
            {
                "start_time": 44.42272727272727,
                "end_time": 44.44090909090909,
                "pitch": 74,
                "velocity": 16,
                "duration": 0.018181818181815856,
                "tempo": 120.0
            },
            {
                "start_time": 44.44090909090909,
                "end_time": 44.474999999999994,
                "pitch": 77,
                "velocity": 16,
                "duration": 0.03409090909090651,
                "tempo": 120.0
            },
            {
                "start_time": 44.474999999999994,
                "end_time": 44.49318181818182,
                "pitch": 76,
                "velocity": 16,
                "duration": 0.018181818181822962,
                "tempo": 120.0
            },
            {
                "start_time": 44.49318181818182,
                "end_time": 44.51136363636363,
                "pitch": 83,
                "velocity": 16,
                "duration": 0.018181818181815856,
                "tempo": 120.0
            },
            {
                "start_time": 44.51136363636363,
                "end_time": 44.527272727272724,
                "pitch": 79,
                "velocity": 16,
                "duration": 0.01590909090909065,
                "tempo": 120.0
            },
            {
                "start_time": 44.527272727272724,
                "end_time": 44.54545454545455,
                "pitch": 81,
                "velocity": 16,
                "duration": 0.018181818181822962,
                "tempo": 120.0
            },
            {
                "start_time": 44.54545454545455,
                "end_time": 44.56136363636364,
                "pitch": 72,
                "velocity": 16,
                "duration": 0.01590909090909065,
                "tempo": 120.0
            },
            {
                "start_time": 44.56136363636364,
                "end_time": 44.59318181818182,
                "pitch": 76,
                "velocity": 16,
                "duration": 0.0318181818181813,
                "tempo": 120.0
            },
            {
                "start_time": 44.59318181818182,
                "end_time": 44.60909090909091,
                "pitch": 79,
                "velocity": 16,
                "duration": 0.01590909090909065,
                "tempo": 120.0
            },
            {
                "start_time": 44.611363636363635,
                "end_time": 44.627272727272725,
                "pitch": 77,
                "velocity": 16,
                "duration": 0.01590909090909065,
                "tempo": 120.0
            },
            {
                "start_time": 44.627272727272725,
                "end_time": 44.643181818181816,
                "pitch": 81,
                "velocity": 16,
                "duration": 0.01590909090909065,
                "tempo": 120.0
            },
            {
                "start_time": 44.643181818181816,
                "end_time": 44.65909090909091,
                "pitch": 81,
                "velocity": 16,
                "duration": 0.01590909090909065,
                "tempo": 120.0
            },
            {
                "start_time": 44.65909090909091,
                "end_time": 44.675,
                "pitch": 72,
                "velocity": 16,
                "duration": 0.01590909090909065,
                "tempo": 120.0
            },
            {
                "start_time": 44.675,
                "end_time": 44.69090909090909,
                "pitch": 83,
                "velocity": 16,
                "duration": 0.01590909090909065,
                "tempo": 120.0
            },
            {
                "start_time": 47.77045454545454,
                "end_time": 47.804545454545455,
                "pitch": 89,
                "velocity": 25,
                "duration": 0.03409090909091361,
                "tempo": 120.0
            },
            {
                "start_time": 47.804545454545455,
                "end_time": 47.83863636363636,
                "pitch": 86,
                "velocity": 25,
                "duration": 0.03409090909090651,
                "tempo": 120.0
            },
            {
                "start_time": 47.83863636363636,
                "end_time": 47.88863636363636,
                "pitch": 88,
                "velocity": 25,
                "duration": 0.04999999999999716,
                "tempo": 120.0
            },
            {
                "start_time": 47.88863636363636,
                "end_time": 47.92272727272727,
                "pitch": 84,
                "velocity": 25,
                "duration": 0.03409090909091361,
                "tempo": 120.0
            },
            {
                "start_time": 47.92272727272727,
                "end_time": 47.95681818181818,
                "pitch": 93,
                "velocity": 25,
                "duration": 0.03409090909090651,
                "tempo": 120.0
            },
            {
                "start_time": 47.959090909090904,
                "end_time": 48.00909090909091,
                "pitch": 84,
                "velocity": 25,
                "duration": 0.05000000000000426,
                "tempo": 120.0
            },
            {
                "start_time": 48.00909090909091,
                "end_time": 48.04545454545454,
                "pitch": 89,
                "velocity": 25,
                "duration": 0.03636363636363171,
                "tempo": 120.0
            },
            {
                "start_time": 48.04545454545454,
                "end_time": 48.07727272727273,
                "pitch": 91,
                "velocity": 25,
                "duration": 0.03181818181818841,
                "tempo": 120.0
            },
            {
                "start_time": 48.07727272727273,
                "end_time": 48.12954545454545,
                "pitch": 95,
                "velocity": 25,
                "duration": 0.052272727272722364,
                "tempo": 120.0
            },
            {
                "start_time": 48.12954545454545,
                "end_time": 48.163636363636364,
                "pitch": 88,
                "velocity": 25,
                "duration": 0.03409090909091361,
                "tempo": 120.0
            },
            {
                "start_time": 48.163636363636364,
                "end_time": 48.19772727272727,
                "pitch": 89,
                "velocity": 20,
                "duration": 0.03409090909090651,
                "tempo": 120.0
            },
            {
                "start_time": 48.19772727272727,
                "end_time": 48.23181818181818,
                "pitch": 86,
                "velocity": 20,
                "duration": 0.03409090909090651,
                "tempo": 120.0
            },
            {
                "start_time": 48.23181818181818,
                "end_time": 48.28409090909091,
                "pitch": 88,
                "velocity": 20,
                "duration": 0.05227272727272947,
                "tempo": 120.0
            },
            {
                "start_time": 48.28409090909091,
                "end_time": 48.31590909090909,
                "pitch": 84,
                "velocity": 20,
                "duration": 0.0318181818181813,
                "tempo": 120.0
            },
            {
                "start_time": 48.31818181818181,
                "end_time": 48.349999999999994,
                "pitch": 93,
                "velocity": 20,
                "duration": 0.0318181818181813,
                "tempo": 120.0
            },
            {
                "start_time": 48.349999999999994,
                "end_time": 48.4,
                "pitch": 84,
                "velocity": 20,
                "duration": 0.05000000000000426,
                "tempo": 120.0
            },
            {
                "start_time": 48.4,
                "end_time": 48.434090909090905,
                "pitch": 89,
                "velocity": 20,
                "duration": 0.03409090909090651,
                "tempo": 120.0
            },
            {
                "start_time": 48.434090909090905,
                "end_time": 48.46818181818182,
                "pitch": 91,
                "velocity": 20,
                "duration": 0.03409090909091361,
                "tempo": 120.0
            },
            {
                "start_time": 48.46818181818182,
                "end_time": 48.518181818181816,
                "pitch": 95,
                "velocity": 20,
                "duration": 0.04999999999999716,
                "tempo": 120.0
            },
            {
                "start_time": 48.518181818181816,
                "end_time": 48.55,
                "pitch": 88,
                "velocity": 20,
                "duration": 0.0318181818181813,
                "tempo": 120.0
            },
            {
                "start_time": 48.55227272727272,
                "end_time": 48.584090909090904,
                "pitch": 89,
                "velocity": 16,
                "duration": 0.0318181818181813,
                "tempo": 120.0
            },
            {
                "start_time": 48.584090909090904,
                "end_time": 48.63409090909091,
                "pitch": 86,
                "velocity": 16,
                "duration": 0.05000000000000426,
                "tempo": 120.0
            },
            {
                "start_time": 48.63409090909091,
                "end_time": 48.668181818181814,
                "pitch": 88,
                "velocity": 16,
                "duration": 0.03409090909090651,
                "tempo": 120.0
            },
            {
                "start_time": 48.668181818181814,
                "end_time": 48.70227272727273,
                "pitch": 84,
                "velocity": 16,
                "duration": 0.03409090909091361,
                "tempo": 120.0
            },
            {
                "start_time": 48.70227272727273,
                "end_time": 48.73863636363636,
                "pitch": 93,
                "velocity": 16,
                "duration": 0.03636363636363171,
                "tempo": 120.0
            },
            {
                "start_time": 48.74090909090909,
                "end_time": 48.78409090909091,
                "pitch": 84,
                "velocity": 16,
                "duration": 0.043181818181814435,
                "tempo": 120.0
            },
            {
                "start_time": 48.78409090909091,
                "end_time": 48.81590909090909,
                "pitch": 89,
                "velocity": 16,
                "duration": 0.0318181818181813,
                "tempo": 120.0
            },
            {
                "start_time": 48.81818181818181,
                "end_time": 48.849999999999994,
                "pitch": 91,
                "velocity": 16,
                "duration": 0.0318181818181813,
                "tempo": 120.0
            },
            {
                "start_time": 48.849999999999994,
                "end_time": 48.89772727272727,
                "pitch": 95,
                "velocity": 16,
                "duration": 0.04772727272727906,
                "tempo": 120.0
            },
            {
                "start_time": 48.9,
                "end_time": 48.93181818181818,
                "pitch": 88,
                "velocity": 16,
                "duration": 0.0318181818181813,
                "tempo": 120.0
            },
            {
                "start_time": 48.93181818181818,
                "end_time": 48.965909090909086,
                "pitch": 89,
                "velocity": 13,
                "duration": 0.03409090909090651,
                "tempo": 120.0
            },
            {
                "start_time": 48.965909090909086,
                "end_time": 49.01363636363636,
                "pitch": 86,
                "velocity": 13,
                "duration": 0.04772727272727195,
                "tempo": 120.0
            },
            {
                "start_time": 49.01363636363636,
                "end_time": 49.04545454545454,
                "pitch": 88,
                "velocity": 13,
                "duration": 0.0318181818181813,
                "tempo": 120.0
            },
            {
                "start_time": 49.04545454545454,
                "end_time": 49.07954545454545,
                "pitch": 84,
                "velocity": 13,
                "duration": 0.03409090909091361,
                "tempo": 120.0
            },
            {
                "start_time": 49.07954545454545,
                "end_time": 49.127272727272725,
                "pitch": 93,
                "velocity": 13,
                "duration": 0.04772727272727195,
                "tempo": 120.0
            },
            {
                "start_time": 49.127272727272725,
                "end_time": 49.16136363636363,
                "pitch": 84,
                "velocity": 13,
                "duration": 0.03409090909090651,
                "tempo": 120.0
            },
            {
                "start_time": 49.16136363636363,
                "end_time": 49.195454545454545,
                "pitch": 89,
                "velocity": 13,
                "duration": 0.03409090909091361,
                "tempo": 120.0
            },
            {
                "start_time": 49.195454545454545,
                "end_time": 49.22727272727273,
                "pitch": 91,
                "velocity": 13,
                "duration": 0.0318181818181813,
                "tempo": 120.0
            },
            {
                "start_time": 49.22727272727273,
                "end_time": 49.27954545454545,
                "pitch": 95,
                "velocity": 13,
                "duration": 0.052272727272722364,
                "tempo": 120.0
            },
            {
                "start_time": 49.27954545454545,
                "end_time": 49.31363636363636,
                "pitch": 88,
                "velocity": 13,
                "duration": 0.03409090909091361,
                "tempo": 120.0
            },
            {
                "start_time": 49.31363636363636,
                "end_time": 49.34772727272727,
                "pitch": 89,
                "velocity": 10,
                "duration": 0.03409090909090651,
                "tempo": 120.0
            },
            {
                "start_time": 49.34772727272727,
                "end_time": 49.4,
                "pitch": 86,
                "velocity": 10,
                "duration": 0.05227272727272947,
                "tempo": 120.0
            },
            {
                "start_time": 49.4,
                "end_time": 49.434090909090905,
                "pitch": 88,
                "velocity": 10,
                "duration": 0.03409090909090651,
                "tempo": 120.0
            },
            {
                "start_time": 49.434090909090905,
                "end_time": 49.46818181818182,
                "pitch": 84,
                "velocity": 10,
                "duration": 0.03409090909091361,
                "tempo": 120.0
            },
            {
                "start_time": 49.46818181818182,
                "end_time": 49.518181818181816,
                "pitch": 93,
                "velocity": 10,
                "duration": 0.04999999999999716,
                "tempo": 120.0
            },
            {
                "start_time": 49.518181818181816,
                "end_time": 49.554545454545455,
                "pitch": 84,
                "velocity": 10,
                "duration": 0.03636363636363882,
                "tempo": 120.0
            },
            {
                "start_time": 49.554545454545455,
                "end_time": 49.586363636363636,
                "pitch": 89,
                "velocity": 10,
                "duration": 0.0318181818181813,
                "tempo": 120.0
            },
            {
                "start_time": 49.58863636363636,
                "end_time": 49.63863636363636,
                "pitch": 91,
                "velocity": 10,
                "duration": 0.04999999999999716,
                "tempo": 120.0
            },
            {
                "start_time": 49.63863636363636,
                "end_time": 49.675,
                "pitch": 95,
                "velocity": 10,
                "duration": 0.03636363636363882,
                "tempo": 120.0
            },
            {
                "start_time": 49.675,
                "end_time": 49.70681818181818,
                "pitch": 88,
                "velocity": 10,
                "duration": 0.0318181818181813,
                "tempo": 120.0
            },
            {
                "start_time": 49.70681818181818,
                "end_time": 49.740909090909085,
                "pitch": 89,
                "velocity": 8,
                "duration": 0.03409090909090651,
                "tempo": 120.0
            },
            {
                "start_time": 49.74318181818182,
                "end_time": 49.793181818181814,
                "pitch": 86,
                "velocity": 8,
                "duration": 0.04999999999999716,
                "tempo": 120.0
            },
            {
                "start_time": 49.793181818181814,
                "end_time": 49.82727272727273,
                "pitch": 88,
                "velocity": 8,
                "duration": 0.03409090909091361,
                "tempo": 120.0
            },
            {
                "start_time": 49.82727272727273,
                "end_time": 49.861363636363635,
                "pitch": 84,
                "velocity": 8,
                "duration": 0.03409090909090651,
                "tempo": 120.0
            },
            {
                "start_time": 49.861363636363635,
                "end_time": 49.913636363636364,
                "pitch": 93,
                "velocity": 8,
                "duration": 0.05227272727272947,
                "tempo": 120.0
            },
            {
                "start_time": 49.91590909090909,
                "end_time": 49.94772727272727,
                "pitch": 84,
                "velocity": 8,
                "duration": 0.0318181818181813,
                "tempo": 120.0
            },
            {
                "start_time": 49.94772727272727,
                "end_time": 49.98181818181818,
                "pitch": 89,
                "velocity": 8,
                "duration": 0.03409090909090651,
                "tempo": 120.0
            },
            {
                "start_time": 49.98181818181818,
                "end_time": 50.03181818181818,
                "pitch": 91,
                "velocity": 8,
                "duration": 0.05000000000000426,
                "tempo": 120.0
            },
            {
                "start_time": 50.03409090909091,
                "end_time": 50.06818181818181,
                "pitch": 95,
                "velocity": 8,
                "duration": 0.03409090909090651,
                "tempo": 120.0
            },
            {
                "start_time": 50.06818181818181,
                "end_time": 50.10227272727273,
                "pitch": 88,
                "velocity": 8,
                "duration": 0.03409090909091361,
                "tempo": 120.0
            },
            {
                "start_time": 54.215909090909086,
                "end_time": 54.23181818181818,
                "pitch": 74,
                "velocity": 51,
                "duration": 0.01590909090909065,
                "tempo": 120.0
            },
            {
                "start_time": 54.23181818181818,
                "end_time": 54.25,
                "pitch": 77,
                "velocity": 51,
                "duration": 0.018181818181822962,
                "tempo": 120.0
            },
            {
                "start_time": 54.25,
                "end_time": 54.26590909090909,
                "pitch": 76,
                "velocity": 51,
                "duration": 0.01590909090909065,
                "tempo": 120.0
            },
            {
                "start_time": 54.26590909090909,
                "end_time": 54.28181818181818,
                "pitch": 83,
                "velocity": 51,
                "duration": 0.01590909090909065,
                "tempo": 120.0
            },
            {
                "start_time": 54.28181818181818,
                "end_time": 54.31590909090909,
                "pitch": 79,
                "velocity": 51,
                "duration": 0.03409090909090651,
                "tempo": 120.0
            },
            {
                "start_time": 54.31590909090909,
                "end_time": 54.334090909090904,
                "pitch": 81,
                "velocity": 51,
                "duration": 0.018181818181815856,
                "tempo": 120.0
            },
            {
                "start_time": 54.334090909090904,
                "end_time": 54.349999999999994,
                "pitch": 72,
                "velocity": 51,
                "duration": 0.01590909090909065,
                "tempo": 120.0
            },
            {
                "start_time": 54.349999999999994,
                "end_time": 54.365909090909085,
                "pitch": 76,
                "velocity": 51,
                "duration": 0.01590909090909065,
                "tempo": 120.0
            },
            {
                "start_time": 54.365909090909085,
                "end_time": 54.38181818181818,
                "pitch": 79,
                "velocity": 51,
                "duration": 0.015909090909097756,
                "tempo": 120.0
            },
            {
                "start_time": 54.38409090909091,
                "end_time": 54.4,
                "pitch": 77,
                "velocity": 51,
                "duration": 0.01590909090909065,
                "tempo": 120.0
            },
            {
                "start_time": 54.4,
                "end_time": 54.434090909090905,
                "pitch": 81,
                "velocity": 51,
                "duration": 0.03409090909090651,
                "tempo": 120.0
            },
            {
                "start_time": 54.434090909090905,
                "end_time": 54.449999999999996,
                "pitch": 81,
                "velocity": 51,
                "duration": 0.01590909090909065,
                "tempo": 120.0
            },
            {
                "start_time": 54.449999999999996,
                "end_time": 54.465909090909086,
                "pitch": 72,
                "velocity": 51,
                "duration": 0.01590909090909065,
                "tempo": 120.0
            },
            {
                "start_time": 54.465909090909086,
                "end_time": 54.48409090909091,
                "pitch": 83,
                "velocity": 51,
                "duration": 0.018181818181822962,
                "tempo": 120.0
            },
            {
                "start_time": 54.48409090909091,
                "end_time": 54.5,
                "pitch": 74,
                "velocity": 40,
                "duration": 0.01590909090909065,
                "tempo": 120.0
            },
            {
                "start_time": 54.5,
                "end_time": 54.51590909090909,
                "pitch": 77,
                "velocity": 40,
                "duration": 0.01590909090909065,
                "tempo": 120.0
            },
            {
                "start_time": 54.518181818181816,
                "end_time": 54.53409090909091,
                "pitch": 76,
                "velocity": 40,
                "duration": 0.01590909090909065,
                "tempo": 120.0
            },
            {
                "start_time": 54.53409090909091,
                "end_time": 54.56818181818181,
                "pitch": 83,
                "velocity": 40,
                "duration": 0.03409090909090651,
                "tempo": 120.0
            },
            {
                "start_time": 54.56818181818181,
                "end_time": 54.584090909090904,
                "pitch": 79,
                "velocity": 40,
                "duration": 0.01590909090909065,
                "tempo": 120.0
            },
            {
                "start_time": 54.584090909090904,
                "end_time": 54.599999999999994,
                "pitch": 81,
                "velocity": 40,
                "duration": 0.01590909090909065,
                "tempo": 120.0
            },
            {
                "start_time": 54.599999999999994,
                "end_time": 54.61818181818182,
                "pitch": 72,
                "velocity": 40,
                "duration": 0.018181818181822962,
                "tempo": 120.0
            },
            {
                "start_time": 54.61818181818182,
                "end_time": 54.63409090909091,
                "pitch": 76,
                "velocity": 40,
                "duration": 0.01590909090909065,
                "tempo": 120.0
            },
            {
                "start_time": 54.63409090909091,
                "end_time": 54.65,
                "pitch": 79,
                "velocity": 40,
                "duration": 0.01590909090909065,
                "tempo": 120.0
            },
            {
                "start_time": 54.65,
                "end_time": 54.684090909090905,
                "pitch": 77,
                "velocity": 40,
                "duration": 0.03409090909090651,
                "tempo": 120.0
            },
            {
                "start_time": 54.684090909090905,
                "end_time": 54.699999999999996,
                "pitch": 81,
                "velocity": 40,
                "duration": 0.01590909090909065,
                "tempo": 120.0
            },
            {
                "start_time": 54.70227272727273,
                "end_time": 54.71818181818182,
                "pitch": 81,
                "velocity": 40,
                "duration": 0.01590909090909065,
                "tempo": 120.0
            },
            {
                "start_time": 54.71818181818182,
                "end_time": 54.73409090909091,
                "pitch": 72,
                "velocity": 40,
                "duration": 0.01590909090909065,
                "tempo": 120.0
            },
            {
                "start_time": 54.73409090909091,
                "end_time": 54.752272727272725,
                "pitch": 83,
                "velocity": 40,
                "duration": 0.018181818181815856,
                "tempo": 120.0
            },
            {
                "start_time": 54.752272727272725,
                "end_time": 54.768181818181816,
                "pitch": 74,
                "velocity": 32,
                "duration": 0.01590909090909065,
                "tempo": 120.0
            },
            {
                "start_time": 54.768181818181816,
                "end_time": 54.78636363636363,
                "pitch": 77,
                "velocity": 32,
                "duration": 0.018181818181815856,
                "tempo": 120.0
            },
            {
                "start_time": 54.78636363636363,
                "end_time": 54.81818181818181,
                "pitch": 76,
                "velocity": 32,
                "duration": 0.0318181818181813,
                "tempo": 120.0
            },
            {
                "start_time": 54.81818181818181,
                "end_time": 54.836363636363636,
                "pitch": 83,
                "velocity": 32,
                "duration": 0.018181818181822962,
                "tempo": 120.0
            },
            {
                "start_time": 54.836363636363636,
                "end_time": 54.85227272727273,
                "pitch": 79,
                "velocity": 32,
                "duration": 0.01590909090909065,
                "tempo": 120.0
            },
            {
                "start_time": 54.85227272727273,
                "end_time": 54.87045454545454,
                "pitch": 81,
                "velocity": 32,
                "duration": 0.018181818181815856,
                "tempo": 120.0
            },
            {
                "start_time": 54.87045454545454,
                "end_time": 54.88636363636363,
                "pitch": 72,
                "velocity": 32,
                "duration": 0.01590909090909065,
                "tempo": 120.0
            },
            {
                "start_time": 54.88863636363636,
                "end_time": 54.90454545454545,
                "pitch": 76,
                "velocity": 32,
                "duration": 0.01590909090909065,
                "tempo": 120.0
            },
            {
                "start_time": 54.90454545454545,
                "end_time": 54.93863636363636,
                "pitch": 79,
                "velocity": 32,
                "duration": 0.03409090909091361,
                "tempo": 120.0
            },
            {
                "start_time": 54.93863636363636,
                "end_time": 54.95681818181818,
                "pitch": 77,
                "velocity": 32,
                "duration": 0.018181818181815856,
                "tempo": 120.0
            },
            {
                "start_time": 54.95681818181818,
                "end_time": 54.97272727272727,
                "pitch": 81,
                "velocity": 32,
                "duration": 0.01590909090909065,
                "tempo": 120.0
            },
            {
                "start_time": 54.97272727272727,
                "end_time": 54.990909090909085,
                "pitch": 81,
                "velocity": 32,
                "duration": 0.018181818181815856,
                "tempo": 120.0
            },
            {
                "start_time": 54.990909090909085,
                "end_time": 55.006818181818176,
                "pitch": 72,
                "velocity": 32,
                "duration": 0.01590909090909065,
                "tempo": 120.0
            },
            {
                "start_time": 55.006818181818176,
                "end_time": 55.025,
                "pitch": 83,
                "velocity": 32,
                "duration": 0.018181818181822962,
                "tempo": 120.0
            },
            {
                "start_time": 55.027272727272724,
                "end_time": 55.04090909090909,
                "pitch": 74,
                "velocity": 25,
                "duration": 0.013636363636365445,
                "tempo": 120.0
            },
            {
                "start_time": 55.04090909090909,
                "end_time": 55.074999999999996,
                "pitch": 77,
                "velocity": 25,
                "duration": 0.03409090909090651,
                "tempo": 120.0
            },
            {
                "start_time": 55.074999999999996,
                "end_time": 55.09318181818182,
                "pitch": 76,
                "velocity": 25,
                "duration": 0.018181818181822962,
                "tempo": 120.0
            },
            {
                "start_time": 55.09318181818182,
                "end_time": 55.10909090909091,
                "pitch": 83,
                "velocity": 25,
                "duration": 0.01590909090909065,
                "tempo": 120.0
            },
            {
                "start_time": 55.111363636363635,
                "end_time": 55.127272727272725,
                "pitch": 79,
                "velocity": 25,
                "duration": 0.01590909090909065,
                "tempo": 120.0
            },
            {
                "start_time": 55.127272727272725,
                "end_time": 55.143181818181816,
                "pitch": 81,
                "velocity": 25,
                "duration": 0.01590909090909065,
                "tempo": 120.0
            },
            {
                "start_time": 55.14545454545454,
                "end_time": 55.16136363636363,
                "pitch": 72,
                "velocity": 25,
                "duration": 0.01590909090909065,
                "tempo": 120.0
            },
            {
                "start_time": 55.16136363636363,
                "end_time": 55.195454545454545,
                "pitch": 76,
                "velocity": 25,
                "duration": 0.03409090909091361,
                "tempo": 120.0
            },
            {
                "start_time": 55.195454545454545,
                "end_time": 55.21363636363636,
                "pitch": 79,
                "velocity": 25,
                "duration": 0.018181818181815856,
                "tempo": 120.0
            },
            {
                "start_time": 55.21363636363636,
                "end_time": 55.22954545454545,
                "pitch": 77,
                "velocity": 25,
                "duration": 0.01590909090909065,
                "tempo": 120.0
            },
            {
                "start_time": 55.22954545454545,
                "end_time": 55.24772727272727,
                "pitch": 81,
                "velocity": 25,
                "duration": 0.018181818181815856,
                "tempo": 120.0
            },
            {
                "start_time": 55.24772727272727,
                "end_time": 55.26590909090909,
                "pitch": 81,
                "velocity": 25,
                "duration": 0.018181818181822962,
                "tempo": 120.0
            },
            {
                "start_time": 55.26590909090909,
                "end_time": 55.28181818181818,
                "pitch": 72,
                "velocity": 25,
                "duration": 0.01590909090909065,
                "tempo": 120.0
            },
            {
                "start_time": 55.28181818181818,
                "end_time": 55.29772727272727,
                "pitch": 83,
                "velocity": 25,
                "duration": 0.01590909090909065,
                "tempo": 120.0
            },
            {
                "start_time": 55.29772727272727,
                "end_time": 55.33181818181818,
                "pitch": 74,
                "velocity": 20,
                "duration": 0.03409090909090651,
                "tempo": 120.0
            },
            {
                "start_time": 55.33181818181818,
                "end_time": 55.34772727272727,
                "pitch": 77,
                "velocity": 20,
                "duration": 0.01590909090909065,
                "tempo": 120.0
            },
            {
                "start_time": 55.34772727272727,
                "end_time": 55.36363636363636,
                "pitch": 76,
                "velocity": 20,
                "duration": 0.01590909090909065,
                "tempo": 120.0
            },
            {
                "start_time": 55.365909090909085,
                "end_time": 55.381818181818176,
                "pitch": 83,
                "velocity": 20,
                "duration": 0.01590909090909065,
                "tempo": 120.0
            },
            {
                "start_time": 55.381818181818176,
                "end_time": 55.39772727272727,
                "pitch": 79,
                "velocity": 20,
                "duration": 0.015909090909097756,
                "tempo": 120.0
            },
            {
                "start_time": 55.39772727272727,
                "end_time": 55.41590909090909,
                "pitch": 81,
                "velocity": 20,
                "duration": 0.018181818181815856,
                "tempo": 120.0
            },
            {
                "start_time": 55.41590909090909,
                "end_time": 55.44772727272727,
                "pitch": 72,
                "velocity": 20,
                "duration": 0.0318181818181813,
                "tempo": 120.0
            },
            {
                "start_time": 55.44772727272727,
                "end_time": 55.465909090909086,
                "pitch": 76,
                "velocity": 20,
                "duration": 0.018181818181815856,
                "tempo": 120.0
            },
            {
                "start_time": 55.465909090909086,
                "end_time": 55.48181818181818,
                "pitch": 79,
                "velocity": 20,
                "duration": 0.01590909090909065,
                "tempo": 120.0
            },
            {
                "start_time": 55.48181818181818,
                "end_time": 55.5,
                "pitch": 77,
                "velocity": 20,
                "duration": 0.018181818181822962,
                "tempo": 120.0
            },
            {
                "start_time": 55.5,
                "end_time": 55.51590909090909,
                "pitch": 81,
                "velocity": 20,
                "duration": 0.01590909090909065,
                "tempo": 120.0
            },
            {
                "start_time": 55.51590909090909,
                "end_time": 55.53181818181818,
                "pitch": 81,
                "velocity": 20,
                "duration": 0.01590909090909065,
                "tempo": 120.0
            },
            {
                "start_time": 55.53181818181818,
                "end_time": 55.54772727272727,
                "pitch": 72,
                "velocity": 20,
                "duration": 0.01590909090909065,
                "tempo": 120.0
            },
            {
                "start_time": 55.55,
                "end_time": 55.58181818181818,
                "pitch": 83,
                "velocity": 20,
                "duration": 0.0318181818181813,
                "tempo": 120.0
            },
            {
                "start_time": 55.58181818181818,
                "end_time": 55.599999999999994,
                "pitch": 74,
                "velocity": 16,
                "duration": 0.018181818181815856,
                "tempo": 120.0
            },
            {
                "start_time": 55.599999999999994,
                "end_time": 55.615909090909085,
                "pitch": 77,
                "velocity": 16,
                "duration": 0.01590909090909065,
                "tempo": 120.0
            },
            {
                "start_time": 55.615909090909085,
                "end_time": 55.631818181818176,
                "pitch": 76,
                "velocity": 16,
                "duration": 0.01590909090909065,
                "tempo": 120.0
            },
            {
                "start_time": 55.631818181818176,
                "end_time": 55.65,
                "pitch": 83,
                "velocity": 16,
                "duration": 0.018181818181822962,
                "tempo": 120.0
            },
            {
                "start_time": 55.65,
                "end_time": 55.66590909090909,
                "pitch": 79,
                "velocity": 16,
                "duration": 0.01590909090909065,
                "tempo": 120.0
            },
            {
                "start_time": 55.66590909090909,
                "end_time": 55.699999999999996,
                "pitch": 81,
                "velocity": 16,
                "duration": 0.03409090909090651,
                "tempo": 120.0
            },
            {
                "start_time": 55.699999999999996,
                "end_time": 55.715909090909086,
                "pitch": 72,
                "velocity": 16,
                "duration": 0.01590909090909065,
                "tempo": 120.0
            },
            {
                "start_time": 55.715909090909086,
                "end_time": 55.73409090909091,
                "pitch": 76,
                "velocity": 16,
                "duration": 0.018181818181822962,
                "tempo": 120.0
            },
            {
                "start_time": 55.73409090909091,
                "end_time": 55.74772727272727,
                "pitch": 79,
                "velocity": 16,
                "duration": 0.01363636363635834,
                "tempo": 120.0
            },
            {
                "start_time": 55.74772727272727,
                "end_time": 55.76363636363636,
                "pitch": 77,
                "velocity": 16,
                "duration": 0.01590909090909065,
                "tempo": 120.0
            },
            {
                "start_time": 55.76363636363636,
                "end_time": 55.77954545454545,
                "pitch": 81,
                "velocity": 16,
                "duration": 0.01590909090909065,
                "tempo": 120.0
            },
            {
                "start_time": 55.77954545454545,
                "end_time": 55.79545454545454,
                "pitch": 81,
                "velocity": 16,
                "duration": 0.01590909090909065,
                "tempo": 120.0
            },
            {
                "start_time": 55.79545454545454,
                "end_time": 55.82727272727273,
                "pitch": 72,
                "velocity": 16,
                "duration": 0.03181818181818841,
                "tempo": 120.0
            },
            {
                "start_time": 55.82727272727273,
                "end_time": 55.84318181818182,
                "pitch": 83,
                "velocity": 16,
                "duration": 0.01590909090909065,
                "tempo": 120.0
            },
            {
                "start_time": 58.91590909090909,
                "end_time": 58.949999999999996,
                "pitch": 89,
                "velocity": 25,
                "duration": 0.03409090909090651,
                "tempo": 120.0
            },
            {
                "start_time": 58.949999999999996,
                "end_time": 59.002272727272725,
                "pitch": 86,
                "velocity": 25,
                "duration": 0.05227272727272947,
                "tempo": 120.0
            },
            {
                "start_time": 59.002272727272725,
                "end_time": 59.03409090909091,
                "pitch": 88,
                "velocity": 25,
                "duration": 0.0318181818181813,
                "tempo": 120.0
            },
            {
                "start_time": 59.03409090909091,
                "end_time": 59.06818181818181,
                "pitch": 84,
                "velocity": 25,
                "duration": 0.03409090909090651,
                "tempo": 120.0
            },
            {
                "start_time": 59.06818181818181,
                "end_time": 59.12045454545454,
                "pitch": 93,
                "velocity": 25,
                "duration": 0.05227272727272947,
                "tempo": 120.0
            },
            {
                "start_time": 59.12045454545454,
                "end_time": 59.15454545454545,
                "pitch": 84,
                "velocity": 25,
                "duration": 0.03409090909090651,
                "tempo": 120.0
            },
            {
                "start_time": 59.15454545454545,
                "end_time": 59.18863636363636,
                "pitch": 89,
                "velocity": 25,
                "duration": 0.03409090909091361,
                "tempo": 120.0
            },
            {
                "start_time": 59.18863636363636,
                "end_time": 59.240909090909085,
                "pitch": 91,
                "velocity": 25,
                "duration": 0.052272727272722364,
                "tempo": 120.0
            },
            {
                "start_time": 59.240909090909085,
                "end_time": 59.275,
                "pitch": 95,
                "velocity": 25,
                "duration": 0.03409090909091361,
                "tempo": 120.0
            },
            {
                "start_time": 59.275,
                "end_time": 59.309090909090905,
                "pitch": 88,
                "velocity": 25,
                "duration": 0.03409090909090651,
                "tempo": 120.0
            },
            {
                "start_time": 59.309090909090905,
                "end_time": 59.34318181818182,
                "pitch": 89,
                "velocity": 20,
                "duration": 0.03409090909091361,
                "tempo": 120.0
            },
            {
                "start_time": 59.34318181818182,
                "end_time": 59.393181818181816,
                "pitch": 86,
                "velocity": 20,
                "duration": 0.04999999999999716,
                "tempo": 120.0
            },
            {
                "start_time": 59.39545454545454,
                "end_time": 59.42727272727272,
                "pitch": 88,
                "velocity": 20,
                "duration": 0.0318181818181813,
                "tempo": 120.0
            },
            {
                "start_time": 59.429545454545455,
                "end_time": 59.46363636363636,
                "pitch": 84,
                "velocity": 20,
                "duration": 0.03409090909090651,
                "tempo": 120.0
            },
            {
                "start_time": 59.46363636363636,
                "end_time": 59.51136363636363,
                "pitch": 93,
                "velocity": 20,
                "duration": 0.04772727272727195,
                "tempo": 120.0
            },
            {
                "start_time": 59.51136363636363,
                "end_time": 59.543181818181814,
                "pitch": 84,
                "velocity": 20,
                "duration": 0.0318181818181813,
                "tempo": 120.0
            },
            {
                "start_time": 59.543181818181814,
                "end_time": 59.574999999999996,
                "pitch": 89,
                "velocity": 20,
                "duration": 0.0318181818181813,
                "tempo": 120.0
            },
            {
                "start_time": 59.574999999999996,
                "end_time": 59.62272727272727,
                "pitch": 91,
                "velocity": 20,
                "duration": 0.04772727272727195,
                "tempo": 120.0
            },
            {
                "start_time": 59.62272727272727,
                "end_time": 59.65454545454545,
                "pitch": 95,
                "velocity": 20,
                "duration": 0.0318181818181813,
                "tempo": 120.0
            },
            {
                "start_time": 59.65454545454545,
                "end_time": 59.68636363636363,
                "pitch": 88,
                "velocity": 20,
                "duration": 0.0318181818181813,
                "tempo": 120.0
            },
            {
                "start_time": 59.68863636363636,
                "end_time": 59.73409090909091,
                "pitch": 89,
                "velocity": 16,
                "duration": 0.045454545454546746,
                "tempo": 120.0
            },
            {
                "start_time": 59.73409090909091,
                "end_time": 59.76590909090909,
                "pitch": 86,
                "velocity": 16,
                "duration": 0.0318181818181813,
                "tempo": 120.0
            },
            {
                "start_time": 59.76590909090909,
                "end_time": 59.79772727272727,
                "pitch": 88,
                "velocity": 16,
                "duration": 0.0318181818181813,
                "tempo": 120.0
            },
            {
                "start_time": 59.79772727272727,
                "end_time": 59.82954545454545,
                "pitch": 84,
                "velocity": 16,
                "duration": 0.0318181818181813,
                "tempo": 120.0
            },
            {
                "start_time": 59.83181818181818,
                "end_time": 59.87954545454545,
                "pitch": 93,
                "velocity": 16,
                "duration": 0.04772727272727195,
                "tempo": 120.0
            },
            {
                "start_time": 59.87954545454545,
                "end_time": 59.91590909090909,
                "pitch": 84,
                "velocity": 16,
                "duration": 0.03636363636363882,
                "tempo": 120.0
            },
            {
                "start_time": 59.91590909090909,
                "end_time": 59.945454545454545,
                "pitch": 89,
                "velocity": 16,
                "duration": 0.029545454545456096,
                "tempo": 120.0
            },
            {
                "start_time": 59.945454545454545,
                "end_time": 59.99545454545454,
                "pitch": 91,
                "velocity": 16,
                "duration": 0.04999999999999716,
                "tempo": 120.0
            },
            {
                "start_time": 59.99545454545454,
                "end_time": 60.03181818181818,
                "pitch": 95,
                "velocity": 16,
                "duration": 0.03636363636363882,
                "tempo": 120.0
            },
            {
                "start_time": 60.03181818181818,
                "end_time": 60.06363636363636,
                "pitch": 88,
                "velocity": 16,
                "duration": 0.0318181818181813,
                "tempo": 120.0
            },
            {
                "start_time": 60.06590909090909,
                "end_time": 60.115909090909085,
                "pitch": 89,
                "velocity": 13,
                "duration": 0.04999999999999716,
                "tempo": 120.0
            },
            {
                "start_time": 60.115909090909085,
                "end_time": 60.15,
                "pitch": 86,
                "velocity": 13,
                "duration": 0.03409090909091361,
                "tempo": 120.0
            },
            {
                "start_time": 60.152272727272724,
                "end_time": 60.184090909090905,
                "pitch": 88,
                "velocity": 13,
                "duration": 0.0318181818181813,
                "tempo": 120.0
            },
            {
                "start_time": 60.184090909090905,
                "end_time": 60.236363636363635,
                "pitch": 84,
                "velocity": 13,
                "duration": 0.05227272727272947,
                "tempo": 120.0
            },
            {
                "start_time": 60.236363636363635,
                "end_time": 60.27045454545454,
                "pitch": 93,
                "velocity": 13,
                "duration": 0.03409090909090651,
                "tempo": 120.0
            },
            {
                "start_time": 60.27045454545454,
                "end_time": 60.304545454545455,
                "pitch": 84,
                "velocity": 13,
                "duration": 0.03409090909091361,
                "tempo": 120.0
            },
            {
                "start_time": 60.304545454545455,
                "end_time": 60.33863636363636,
                "pitch": 89,
                "velocity": 13,
                "duration": 0.03409090909090651,
                "tempo": 120.0
            },
            {
                "start_time": 60.33863636363636,
                "end_time": 60.39090909090909,
                "pitch": 91,
                "velocity": 13,
                "duration": 0.05227272727272947,
                "tempo": 120.0
            },
            {
                "start_time": 60.393181818181816,
                "end_time": 60.425,
                "pitch": 95,
                "velocity": 13,
                "duration": 0.0318181818181813,
                "tempo": 120.0
            },
            {
                "start_time": 60.425,
                "end_time": 60.459090909090904,
                "pitch": 88,
                "velocity": 13,
                "duration": 0.03409090909090651,
                "tempo": 120.0
            },
            {
                "start_time": 60.459090909090904,
                "end_time": 60.51136363636363,
                "pitch": 89,
                "velocity": 10,
                "duration": 0.05227272727272947,
                "tempo": 120.0
            },
            {
                "start_time": 60.51136363636363,
                "end_time": 60.54545454545454,
                "pitch": 86,
                "velocity": 10,
                "duration": 0.03409090909090651,
                "tempo": 120.0
            },
            {
                "start_time": 60.54545454545454,
                "end_time": 60.57954545454545,
                "pitch": 88,
                "velocity": 10,
                "duration": 0.03409090909091361,
                "tempo": 120.0
            },
            {
                "start_time": 60.57954545454545,
                "end_time": 60.631818181818176,
                "pitch": 84,
                "velocity": 10,
                "duration": 0.052272727272722364,
                "tempo": 120.0
            },
            {
                "start_time": 60.631818181818176,
                "end_time": 60.663636363636364,
                "pitch": 93,
                "velocity": 10,
                "duration": 0.03181818181818841,
                "tempo": 120.0
            },
            {
                "start_time": 60.66590909090909,
                "end_time": 60.69772727272727,
                "pitch": 84,
                "velocity": 10,
                "duration": 0.0318181818181813,
                "tempo": 120.0
            },
            {
                "start_time": 60.699999999999996,
                "end_time": 60.75,
                "pitch": 89,
                "velocity": 10,
                "duration": 0.05000000000000426,
                "tempo": 120.0
            },
            {
                "start_time": 60.75,
                "end_time": 60.78409090909091,
                "pitch": 91,
                "velocity": 10,
                "duration": 0.03409090909090651,
                "tempo": 120.0
            },
            {
                "start_time": 60.78409090909091,
                "end_time": 60.81818181818181,
                "pitch": 95,
                "velocity": 10,
                "duration": 0.03409090909090651,
                "tempo": 120.0
            },
            {
                "start_time": 60.81818181818181,
                "end_time": 60.85454545454545,
                "pitch": 88,
                "velocity": 10,
                "duration": 0.03636363636363882,
                "tempo": 120.0
            },
            {
                "start_time": 60.85454545454545,
                "end_time": 60.902272727272724,
                "pitch": 89,
                "velocity": 8,
                "duration": 0.04772727272727195,
                "tempo": 120.0
            },
            {
                "start_time": 60.902272727272724,
                "end_time": 60.934090909090905,
                "pitch": 86,
                "velocity": 8,
                "duration": 0.0318181818181813,
                "tempo": 120.0
            },
            {
                "start_time": 60.934090909090905,
                "end_time": 60.96818181818182,
                "pitch": 88,
                "velocity": 8,
                "duration": 0.03409090909091361,
                "tempo": 120.0
            },
            {
                "start_time": 60.96818181818182,
                "end_time": 61.01590909090909,
                "pitch": 84,
                "velocity": 8,
                "duration": 0.04772727272727195,
                "tempo": 120.0
            },
            {
                "start_time": 61.01590909090909,
                "end_time": 61.05,
                "pitch": 93,
                "velocity": 8,
                "duration": 0.03409090909090651,
                "tempo": 120.0
            },
            {
                "start_time": 61.05,
                "end_time": 61.084090909090904,
                "pitch": 84,
                "velocity": 8,
                "duration": 0.03409090909090651,
                "tempo": 120.0
            },
            {
                "start_time": 61.084090909090904,
                "end_time": 61.131818181818176,
                "pitch": 89,
                "velocity": 8,
                "duration": 0.04772727272727195,
                "tempo": 120.0
            },
            {
                "start_time": 61.131818181818176,
                "end_time": 61.163636363636364,
                "pitch": 91,
                "velocity": 8,
                "duration": 0.03181818181818841,
                "tempo": 120.0
            },
            {
                "start_time": 61.163636363636364,
                "end_time": 61.19772727272727,
                "pitch": 95,
                "velocity": 8,
                "duration": 0.03409090909090651,
                "tempo": 120.0
            },
            {
                "start_time": 61.19772727272727,
                "end_time": 61.24545454545454,
                "pitch": 88,
                "velocity": 8,
                "duration": 0.04772727272727195,
                "tempo": 120.0
            }
        ]
    }
}