{
    "track_id": "Altered Beast (FM) - 03 - Unused Story",
    "mood": "sad",
    "instruments": {
        "Church Organ": [
            {
                "start_time": 0.0,
                "end_time": 0.7409090909090909,
                "pitch": 59,
                "velocity": 40,
                "duration": 0.7409090909090909,
                "tempo": 120.0
            },
            {
                "start_time": 0.7727272727272727,
                "end_time": 1.1068181818181817,
                "pitch": 62,
                "velocity": 40,
                "duration": 0.334090909090909,
                "tempo": 120.0
            },
            {
                "start_time": 1.1386363636363637,
                "end_time": 1.8727272727272726,
                "pitch": 61,
                "velocity": 40,
                "duration": 0.7340909090909089,
                "tempo": 120.0
            },
            {
                "start_time": 1.9068181818181817,
                "end_time": 2.9863636363636363,
                "pitch": 62,
                "velocity": 40,
                "duration": 1.0795454545454546,
                "tempo": 120.0
            },
            {
                "start_time": 3.0545454545454542,
                "end_time": 3.3909090909090907,
                "pitch": 59,
                "velocity": 40,
                "duration": 0.3363636363636364,
                "tempo": 120.0
            },
            {
                "start_time": 3.425,
                "end_time": 3.759090909090909,
                "pitch": 58,
                "velocity": 40,
                "duration": 0.334090909090909,
                "tempo": 120.0
            },
            {
                "start_time": 3.7909090909090906,
                "end_time": 4.125,
                "pitch": 54,
                "velocity": 40,
                "duration": 0.33409090909090944,
                "tempo": 120.0
            },
            {
                "start_time": 4.159090909090909,
                "end_time": 5.259090909090909,
                "pitch": 59,
                "velocity": 40,
                "duration": 1.0999999999999996,
                "tempo": 120.0
            },
            {
                "start_time": 5.290909090909091,
                "end_time": 5.625,
                "pitch": 62,
                "velocity": 40,
                "duration": 0.334090909090909,
                "tempo": 120.0
            },
            {
                "start_time": 5.659090909090909,
                "end_time": 6.390909090909091,
                "pitch": 61,
                "velocity": 40,
                "duration": 0.7318181818181815,
                "tempo": 120.0
            },
            {
                "start_time": 6.425,
                "end_time": 7.49090909090909,
                "pitch": 62,
                "velocity": 40,
                "duration": 1.0659090909090905,
                "tempo": 120.0
            },
            {
                "start_time": 7.556818181818182,
                "end_time": 7.890909090909091,
                "pitch": 59,
                "velocity": 40,
                "duration": 0.334090909090909,
                "tempo": 120.0
            },
            {
                "start_time": 7.925,
                "end_time": 8.256818181818181,
                "pitch": 58,
                "velocity": 40,
                "duration": 0.3318181818181811,
                "tempo": 120.0
            },
            {
                "start_time": 8.290909090909091,
                "end_time": 8.625,
                "pitch": 54,
                "velocity": 40,
                "duration": 0.334090909090909,
                "tempo": 120.0
            },
            {
                "start_time": 8.656818181818181,
                "end_time": 8.99090909090909,
                "pitch": 59,
                "velocity": 40,
                "duration": 0.334090909090909,
                "tempo": 120.0
            },
            {
                "start_time": 9.056818181818182,
                "end_time": 9.39090909090909,
                "pitch": 62,
                "velocity": 40,
                "duration": 0.334090909090909,
                "tempo": 120.0
            },
            {
                "start_time": 9.424999999999999,
                "end_time": 9.756818181818181,
                "pitch": 56,
                "velocity": 40,
                "duration": 0.331818181818182,
                "tempo": 120.0
            },
            {
                "start_time": 9.790909090909091,
                "end_time": 10.125,
                "pitch": 62,
                "velocity": 40,
                "duration": 0.334090909090909,
                "tempo": 120.0
            },
            {
                "start_time": 10.156818181818181,
                "end_time": 10.49090909090909,
                "pitch": 65,
                "velocity": 40,
                "duration": 0.334090909090909,
                "tempo": 120.0
            },
            {
                "start_time": 10.556818181818182,
                "end_time": 10.89090909090909,
                "pitch": 71,
                "velocity": 40,
                "duration": 0.334090909090909,
                "tempo": 120.0
            },
            {
                "start_time": 10.922727272727272,
                "end_time": 11.252272727272727,
                "pitch": 62,
                "velocity": 40,
                "duration": 0.32954545454545503,
                "tempo": 120.0
            },
            {
                "start_time": 11.286363636363635,
                "end_time": 11.613636363636363,
                "pitch": 65,
                "velocity": 40,
                "duration": 0.32727272727272805,
                "tempo": 120.0
            },
            {
                "start_time": 11.647727272727272,
                "end_time": 11.977272727272727,
                "pitch": 59,
                "velocity": 40,
                "duration": 0.32954545454545503,
                "tempo": 120.0
            },
            {
                "start_time": 12.043181818181818,
                "end_time": 12.370454545454544,
                "pitch": 62,
                "velocity": 40,
                "duration": 0.32727272727272627,
                "tempo": 120.0
            },
            {
                "start_time": 12.406818181818181,
                "end_time": 12.747727272727271,
                "pitch": 65,
                "velocity": 40,
                "duration": 0.34090909090908994,
                "tempo": 120.0
            },
            {
                "start_time": 12.781818181818181,
                "end_time": 13.122727272727271,
                "pitch": 68,
                "velocity": 40,
                "duration": 0.34090909090908994,
                "tempo": 120.0
            },
            {
                "start_time": 13.156818181818181,
                "end_time": 13.5,
                "pitch": 65,
                "velocity": 40,
                "duration": 0.3431818181818187,
                "tempo": 120.0
            },
            {
                "start_time": 13.568181818181818,
                "end_time": 13.909090909090908,
                "pitch": 71,
                "velocity": 40,
                "duration": 0.34090909090908994,
                "tempo": 120.0
            },
            {
                "start_time": 13.94090909090909,
                "end_time": 14.270454545454545,
                "pitch": 62,
                "velocity": 40,
                "duration": 0.32954545454545503,
                "tempo": 120.0
            },
            {
                "start_time": 14.304545454545455,
                "end_time": 14.634090909090908,
                "pitch": 65,
                "velocity": 40,
                "duration": 0.32954545454545325,
                "tempo": 120.0
            },
            {
                "start_time": 14.665909090909091,
                "end_time": 14.995454545454544,
                "pitch": 71,
                "velocity": 40,
                "duration": 0.32954545454545325,
                "tempo": 120.0
            },
            {
                "start_time": 15.061363636363636,
                "end_time": 15.39090909090909,
                "pitch": 74,
                "velocity": 40,
                "duration": 0.32954545454545503,
                "tempo": 120.0
            },
            {
                "start_time": 15.424999999999999,
                "end_time": 20.020454545454545,
                "pitch": 47,
                "velocity": 40,
                "duration": 4.595454545454546,
                "tempo": 120.0
            }
        ]
    }
}