{
    "track_id": "Altered Beast (FM) - 04 - Weredragon _ Weretiger",
    "mood": "sad",
    "instruments": {
        "Church Organ": [
            {
                "start_time": 24.44090909090909,
                "end_time": 24.834090909090907,
                "pitch": 84,
                "velocity": 40,
                "duration": 0.39318181818181586,
                "tempo": 120.0
            },
            {
                "start_time": 24.849999999999998,
                "end_time": 24.938636363636363,
                "pitch": 84,
                "velocity": 40,
                "duration": 0.08863636363636473,
                "tempo": 120.0
            },
            {
                "start_time": 25.05681818181818,
                "end_time": 25.145454545454545,
                "pitch": 84,
                "velocity": 40,
                "duration": 0.08863636363636473,
                "tempo": 120.0
            },
            {
                "start_time": 25.26590909090909,
                "end_time": 25.354545454545452,
                "pitch": 84,
                "velocity": 40,
                "duration": 0.08863636363636118,
                "tempo": 120.0
            },
            {
                "start_time": 25.472727272727273,
                "end_time": 25.561363636363634,
                "pitch": 86,
                "velocity": 40,
                "duration": 0.08863636363636118,
                "tempo": 120.0
            },
            {
                "start_time": 26.086363636363636,
                "end_time": 26.486363636363635,
                "pitch": 86,
                "velocity": 40,
                "duration": 0.3999999999999986,
                "tempo": 120.0
            },
            {
                "start_time": 26.5,
                "end_time": 26.58863636363636,
                "pitch": 86,
                "velocity": 40,
                "duration": 0.08863636363636118,
                "tempo": 120.0
            },
            {
                "start_time": 26.704545454545453,
                "end_time": 26.79090909090909,
                "pitch": 86,
                "velocity": 40,
                "duration": 0.08636363636363598,
                "tempo": 120.0
            },
            {
                "start_time": 26.909090909090907,
                "end_time": 27.0,
                "pitch": 86,
                "velocity": 40,
                "duration": 0.09090909090909349,
                "tempo": 120.0
            },
            {
                "start_time": 27.118181818181817,
                "end_time": 27.206818181818182,
                "pitch": 89,
                "velocity": 40,
                "duration": 0.08863636363636473,
                "tempo": 120.0
            },
            {
                "start_time": 27.738636363636363,
                "end_time": 28.134090909090908,
                "pitch": 89,
                "velocity": 40,
                "duration": 0.3954545454545446,
                "tempo": 120.0
            },
            {
                "start_time": 28.14772727272727,
                "end_time": 28.236363636363635,
                "pitch": 89,
                "velocity": 40,
                "duration": 0.08863636363636473,
                "tempo": 120.0
            },
            {
                "start_time": 28.35681818181818,
                "end_time": 28.445454545454545,
                "pitch": 89,
                "velocity": 40,
                "duration": 0.08863636363636473,
                "tempo": 120.0
            },
            {
                "start_time": 28.563636363636363,
                "end_time": 28.654545454545453,
                "pitch": 89,
                "velocity": 40,
                "duration": 0.09090909090908994,
                "tempo": 120.0
            },
            {
                "start_time": 28.77272727272727,
                "end_time": 29.995454545454542,
                "pitch": 88,
                "velocity": 40,
                "duration": 1.2227272727272727,
                "tempo": 120.0
            },
            {
                "start_time": 30.011363636363633,
                "end_time": 30.411363636363635,
                "pitch": 86,
                "velocity": 40,
                "duration": 0.40000000000000213,
                "tempo": 120.0
            },
            {
                "start_time": 30.427272727272726,
                "end_time": 30.5,
                "pitch": 84,
                "velocity": 40,
                "duration": 0.07272727272727408,
                "tempo": 120.0
            },
            {
                "start_time": 30.952272727272724,
                "end_time": 31.30681818181818,
                "pitch": 84,
                "velocity": 40,
                "duration": 0.3545454545454554,
                "tempo": 120.0
            },
            {
                "start_time": 31.32272727272727,
                "end_time": 31.4,
                "pitch": 84,
                "velocity": 40,
                "duration": 0.07727272727272805,
                "tempo": 120.0
            },
            {
                "start_time": 31.504545454545454,
                "end_time": 31.577272727272724,
                "pitch": 84,
                "velocity": 40,
                "duration": 0.07272727272727053,
                "tempo": 120.0
            },
            {
                "start_time": 31.68181818181818,
                "end_time": 31.75681818181818,
                "pitch": 84,
                "velocity": 40,
                "duration": 0.07499999999999929,
                "tempo": 120.0
            },
            {
                "start_time": 31.85681818181818,
                "end_time": 31.927272727272726,
                "pitch": 86,
                "velocity": 40,
                "duration": 0.07045454545454533,
                "tempo": 120.0
            },
            {
                "start_time": 32.377272727272725,
                "end_time": 32.72272727272727,
                "pitch": 86,
                "velocity": 40,
                "duration": 0.3454545454545439,
                "tempo": 120.0
            },
            {
                "start_time": 32.73863636363636,
                "end_time": 32.81818181818182,
                "pitch": 86,
                "velocity": 40,
                "duration": 0.07954545454546036,
                "tempo": 120.0
            },
            {
                "start_time": 32.92727272727272,
                "end_time": 33.00681818181818,
                "pitch": 86,
                "velocity": 40,
                "duration": 0.07954545454546036,
                "tempo": 120.0
            },
            {
                "start_time": 33.11590909090909,
                "end_time": 33.195454545454545,
                "pitch": 86,
                "velocity": 40,
                "duration": 0.07954545454545325,
                "tempo": 120.0
            },
            {
                "start_time": 33.304545454545455,
                "end_time": 33.38409090909091,
                "pitch": 89,
                "velocity": 40,
                "duration": 0.07954545454545325,
                "tempo": 120.0
            },
            {
                "start_time": 33.88409090909091,
                "end_time": 34.24545454545454,
                "pitch": 89,
                "velocity": 40,
                "duration": 0.36136363636363455,
                "tempo": 120.0
            },
            {
                "start_time": 34.25909090909091,
                "end_time": 34.336363636363636,
                "pitch": 89,
                "velocity": 40,
                "duration": 0.07727272727272805,
                "tempo": 120.0
            },
            {
                "start_time": 34.44090909090909,
                "end_time": 34.51590909090909,
                "pitch": 89,
                "velocity": 40,
                "duration": 0.07500000000000284,
                "tempo": 120.0
            },
            {
                "start_time": 34.627272727272725,
                "end_time": 34.70454545454545,
                "pitch": 89,
                "velocity": 40,
                "duration": 0.07727272727272805,
                "tempo": 120.0
            },
            {
                "start_time": 34.81590909090909,
                "end_time": 35.93636363636364,
                "pitch": 88,
                "velocity": 40,
                "duration": 1.1204545454545496,
                "tempo": 120.0
            },
            {
                "start_time": 35.95227272727273,
                "end_time": 36.33409090909091,
                "pitch": 86,
                "velocity": 40,
                "duration": 0.3818181818181827,
                "tempo": 120.0
            },
            {
                "start_time": 36.35227272727273,
                "end_time": 39.559090909090905,
                "pitch": 72,
                "velocity": 40,
                "duration": 3.2068181818181785,
                "tempo": 120.0
            }
        ],
        "Oboe": [
            {
                "start_time": 6.409090909090909,
                "end_time": 6.527272727272727,
                "pitch": 64,
                "velocity": 40,
                "duration": 0.11818181818181817,
                "tempo": 120.0
            },
            {
                "start_time": 6.543181818181818,
                "end_time": 6.661363636363636,
                "pitch": 64,
                "velocity": 40,
                "duration": 0.11818181818181817,
                "tempo": 120.0
            },
            {
                "start_time": 6.679545454545454,
                "end_time": 6.797727272727273,
                "pitch": 64,
                "velocity": 40,
                "duration": 0.11818181818181905,
                "tempo": 120.0
            },
            {
                "start_time": 6.8159090909090905,
                "end_time": 6.934090909090909,
                "pitch": 64,
                "velocity": 40,
                "duration": 0.11818181818181817,
                "tempo": 120.0
            },
            {
                "start_time": 6.952272727272727,
                "end_time": 7.070454545454545,
                "pitch": 65,
                "velocity": 40,
                "duration": 0.11818181818181817,
                "tempo": 120.0
            },
            {
                "start_time": 7.086363636363636,
                "end_time": 7.204545454545454,
                "pitch": 64,
                "velocity": 40,
                "duration": 0.11818181818181817,
                "tempo": 120.0
            },
            {
                "start_time": 7.220454545454545,
                "end_time": 7.338636363636363,
                "pitch": 64,
                "velocity": 40,
                "duration": 0.11818181818181817,
                "tempo": 120.0
            },
            {
                "start_time": 7.3545454545454545,
                "end_time": 7.470454545454545,
                "pitch": 64,
                "velocity": 40,
                "duration": 0.1159090909090903,
                "tempo": 120.0
            },
            {
                "start_time": 7.488636363636363,
                "end_time": 7.6045454545454545,
                "pitch": 69,
                "velocity": 40,
                "duration": 0.11590909090909118,
                "tempo": 120.0
            },
            {
                "start_time": 7.620454545454545,
                "end_time": 7.74090909090909,
                "pitch": 64,
                "velocity": 40,
                "duration": 0.12045454545454515,
                "tempo": 120.0
            },
            {
                "start_time": 7.756818181818182,
                "end_time": 7.877272727272727,
                "pitch": 64,
                "velocity": 40,
                "duration": 0.12045454545454515,
                "tempo": 120.0
            },
            {
                "start_time": 7.893181818181818,
                "end_time": 8.013636363636364,
                "pitch": 64,
                "velocity": 40,
                "duration": 0.12045454545454604,
                "tempo": 120.0
            },
            {
                "start_time": 8.029545454545454,
                "end_time": 8.147727272727272,
                "pitch": 72,
                "velocity": 40,
                "duration": 0.11818181818181728,
                "tempo": 120.0
            },
            {
                "start_time": 8.165909090909091,
                "end_time": 8.281818181818181,
                "pitch": 64,
                "velocity": 40,
                "duration": 0.1159090909090903,
                "tempo": 120.0
            },
            {
                "start_time": 8.299999999999999,
                "end_time": 8.415909090909091,
                "pitch": 64,
                "velocity": 40,
                "duration": 0.11590909090909207,
                "tempo": 120.0
            },
            {
                "start_time": 8.431818181818182,
                "end_time": 8.549999999999999,
                "pitch": 64,
                "velocity": 40,
                "duration": 0.11818181818181728,
                "tempo": 120.0
            },
            {
                "start_time": 8.565909090909091,
                "end_time": 8.684090909090909,
                "pitch": 64,
                "velocity": 40,
                "duration": 0.11818181818181728,
                "tempo": 120.0
            },
            {
                "start_time": 8.7,
                "end_time": 8.818181818181818,
                "pitch": 64,
                "velocity": 40,
                "duration": 0.11818181818181905,
                "tempo": 120.0
            },
            {
                "start_time": 8.836363636363636,
                "end_time": 8.954545454545453,
                "pitch": 64,
                "velocity": 40,
                "duration": 0.11818181818181728,
                "tempo": 120.0
            },
            {
                "start_time": 8.972727272727273,
                "end_time": 9.09090909090909,
                "pitch": 64,
                "velocity": 40,
                "duration": 0.11818181818181728,
                "tempo": 120.0
            },
            {
                "start_time": 9.10681818181818,
                "end_time": 9.227272727272727,
                "pitch": 65,
                "velocity": 40,
                "duration": 0.12045454545454604,
                "tempo": 120.0
            },
            {
                "start_time": 9.243181818181817,
                "end_time": 9.35909090909091,
                "pitch": 64,
                "velocity": 40,
                "duration": 0.11590909090909207,
                "tempo": 120.0
            },
            {
                "start_time": 9.375,
                "end_time": 9.488636363636363,
                "pitch": 64,
                "velocity": 40,
                "duration": 0.11363636363636331,
                "tempo": 120.0
            },
            {
                "start_time": 9.506818181818181,
                "end_time": 9.620454545454544,
                "pitch": 64,
                "velocity": 40,
                "duration": 0.11363636363636331,
                "tempo": 120.0
            },
            {
                "start_time": 9.636363636363637,
                "end_time": 9.752272727272727,
                "pitch": 69,
                "velocity": 40,
                "duration": 0.1159090909090903,
                "tempo": 120.0
            },
            {
                "start_time": 9.768181818181818,
                "end_time": 9.888636363636364,
                "pitch": 64,
                "velocity": 40,
                "duration": 0.12045454545454604,
                "tempo": 120.0
            },
            {
                "start_time": 9.904545454545454,
                "end_time": 10.022727272727272,
                "pitch": 64,
                "velocity": 40,
                "duration": 0.11818181818181728,
                "tempo": 120.0
            },
            {
                "start_time": 10.040909090909091,
                "end_time": 10.159090909090908,
                "pitch": 64,
                "velocity": 40,
                "duration": 0.11818181818181728,
                "tempo": 120.0
            },
            {
                "start_time": 10.177272727272726,
                "end_time": 10.295454545454545,
                "pitch": 72,
                "velocity": 40,
                "duration": 0.11818181818181905,
                "tempo": 120.0
            },
            {
                "start_time": 10.313636363636363,
                "end_time": 10.429545454545455,
                "pitch": 64,
                "velocity": 40,
                "duration": 0.11590909090909207,
                "tempo": 120.0
            },
            {
                "start_time": 10.445454545454545,
                "end_time": 10.563636363636363,
                "pitch": 64,
                "velocity": 40,
                "duration": 0.11818181818181728,
                "tempo": 120.0
            },
            {
                "start_time": 10.579545454545453,
                "end_time": 10.697727272727272,
                "pitch": 64,
                "velocity": 40,
                "duration": 0.11818181818181905,
                "tempo": 120.0
            },
            {
                "start_time": 10.713636363636363,
                "end_time": 10.829545454545453,
                "pitch": 64,
                "velocity": 40,
                "duration": 0.1159090909090903,
                "tempo": 120.0
            },
            {
                "start_time": 10.847727272727273,
                "end_time": 10.96590909090909,
                "pitch": 64,
                "velocity": 40,
                "duration": 0.11818181818181728,
                "tempo": 120.0
            },
            {
                "start_time": 10.98181818181818,
                "end_time": 11.102272727272727,
                "pitch": 64,
                "velocity": 40,
                "duration": 0.12045454545454604,
                "tempo": 120.0
            },
            {
                "start_time": 11.118181818181817,
                "end_time": 11.238636363636363,
                "pitch": 64,
                "velocity": 40,
                "duration": 0.12045454545454604,
                "tempo": 120.0
            },
            {
                "start_time": 11.254545454545454,
                "end_time": 11.375,
                "pitch": 65,
                "velocity": 40,
                "duration": 0.12045454545454604,
                "tempo": 120.0
            },
            {
                "start_time": 11.39090909090909,
                "end_time": 11.506818181818181,
                "pitch": 64,
                "velocity": 40,
                "duration": 0.1159090909090903,
                "tempo": 120.0
            },
            {
                "start_time": 11.524999999999999,
                "end_time": 11.64090909090909,
                "pitch": 64,
                "velocity": 40,
                "duration": 0.11590909090909207,
                "tempo": 120.0
            },
            {
                "start_time": 11.659090909090908,
                "end_time": 11.774999999999999,
                "pitch": 64,
                "velocity": 40,
                "duration": 0.1159090909090903,
                "tempo": 120.0
            },
            {
                "start_time": 11.790909090909091,
                "end_time": 11.909090909090908,
                "pitch": 69,
                "velocity": 40,
                "duration": 0.11818181818181728,
                "tempo": 120.0
            },
            {
                "start_time": 11.924999999999999,
                "end_time": 12.043181818181818,
                "pitch": 64,
                "velocity": 40,
                "duration": 0.11818181818181905,
                "tempo": 120.0
            },
            {
                "start_time": 12.061363636363636,
                "end_time": 12.179545454545455,
                "pitch": 64,
                "velocity": 40,
                "duration": 0.11818181818181905,
                "tempo": 120.0
            },
            {
                "start_time": 12.197727272727272,
                "end_time": 12.31590909090909,
                "pitch": 64,
                "velocity": 40,
                "duration": 0.11818181818181728,
                "tempo": 120.0
            },
            {
                "start_time": 12.334090909090909,
                "end_time": 12.452272727272726,
                "pitch": 72,
                "velocity": 40,
                "duration": 0.11818181818181728,
                "tempo": 120.0
            },
            {
                "start_time": 12.468181818181817,
                "end_time": 12.586363636363636,
                "pitch": 64,
                "velocity": 40,
                "duration": 0.11818181818181905,
                "tempo": 120.0
            },
            {
                "start_time": 12.602272727272727,
                "end_time": 12.720454545454546,
                "pitch": 64,
                "velocity": 40,
                "duration": 0.11818181818181905,
                "tempo": 120.0
            },
            {
                "start_time": 12.736363636363636,
                "end_time": 12.852272727272727,
                "pitch": 64,
                "velocity": 40,
                "duration": 0.1159090909090903,
                "tempo": 120.0
            },
            {
                "start_time": 12.870454545454544,
                "end_time": 12.986363636363636,
                "pitch": 64,
                "velocity": 40,
                "duration": 0.11590909090909207,
                "tempo": 120.0
            },
            {
                "start_time": 13.004545454545454,
                "end_time": 13.120454545454544,
                "pitch": 64,
                "velocity": 40,
                "duration": 0.1159090909090903,
                "tempo": 120.0
            },
            {
                "start_time": 13.136363636363635,
                "end_time": 13.254545454545454,
                "pitch": 64,
                "velocity": 40,
                "duration": 0.11818181818181905,
                "tempo": 120.0
            },
            {
                "start_time": 13.270454545454545,
                "end_time": 13.388636363636364,
                "pitch": 64,
                "velocity": 40,
                "duration": 0.11818181818181905,
                "tempo": 120.0
            },
            {
                "start_time": 13.404545454545454,
                "end_time": 13.520454545454545,
                "pitch": 65,
                "velocity": 40,
                "duration": 0.1159090909090903,
                "tempo": 120.0
            },
            {
                "start_time": 13.538636363636362,
                "end_time": 13.654545454545454,
                "pitch": 64,
                "velocity": 40,
                "duration": 0.11590909090909207,
                "tempo": 120.0
            },
            {
                "start_time": 13.670454545454545,
                "end_time": 13.788636363636362,
                "pitch": 64,
                "velocity": 40,
                "duration": 0.11818181818181728,
                "tempo": 120.0
            },
            {
                "start_time": 13.804545454545455,
                "end_time": 13.922727272727272,
                "pitch": 64,
                "velocity": 40,
                "duration": 0.11818181818181728,
                "tempo": 120.0
            },
            {
                "start_time": 13.938636363636363,
                "end_time": 14.054545454545455,
                "pitch": 69,
                "velocity": 40,
                "duration": 0.11590909090909207,
                "tempo": 120.0
            },
            {
                "start_time": 14.072727272727272,
                "end_time": 14.19090909090909,
                "pitch": 64,
                "velocity": 40,
                "duration": 0.11818181818181728,
                "tempo": 120.0
            },
            {
                "start_time": 14.209090909090909,
                "end_time": 14.327272727272726,
                "pitch": 64,
                "velocity": 40,
                "duration": 0.11818181818181728,
                "tempo": 120.0
            },
            {
                "start_time": 14.345454545454544,
                "end_time": 14.463636363636363,
                "pitch": 64,
                "velocity": 40,
                "duration": 0.11818181818181905,
                "tempo": 120.0
            },
            {
                "start_time": 14.479545454545454,
                "end_time": 14.6,
                "pitch": 72,
                "velocity": 40,
                "duration": 0.12045454545454604,
                "tempo": 120.0
            },
            {
                "start_time": 14.61590909090909,
                "end_time": 14.734090909090908,
                "pitch": 64,
                "velocity": 40,
                "duration": 0.11818181818181728,
                "tempo": 120.0
            },
            {
                "start_time": 14.75,
                "end_time": 14.86590909090909,
                "pitch": 64,
                "velocity": 40,
                "duration": 0.1159090909090903,
                "tempo": 120.0
            },
            {
                "start_time": 14.884090909090908,
                "end_time": 15.0,
                "pitch": 64,
                "velocity": 40,
                "duration": 0.11590909090909207,
                "tempo": 120.0
            },
            {
                "start_time": 15.018181818181818,
                "end_time": 15.134090909090908,
                "pitch": 64,
                "velocity": 40,
                "duration": 0.1159090909090903,
                "tempo": 120.0
            },
            {
                "start_time": 15.149999999999999,
                "end_time": 15.268181818181818,
                "pitch": 64,
                "velocity": 40,
                "duration": 0.11818181818181905,
                "tempo": 120.0
            },
            {
                "start_time": 15.284090909090908,
                "end_time": 15.402272727272727,
                "pitch": 64,
                "velocity": 40,
                "duration": 0.11818181818181905,
                "tempo": 120.0
            },
            {
                "start_time": 15.418181818181818,
                "end_time": 15.534090909090908,
                "pitch": 64,
                "velocity": 40,
                "duration": 0.1159090909090903,
                "tempo": 120.0
            },
            {
                "start_time": 15.552272727272726,
                "end_time": 15.668181818181818,
                "pitch": 65,
                "velocity": 40,
                "duration": 0.11590909090909207,
                "tempo": 120.0
            },
            {
                "start_time": 15.684090909090909,
                "end_time": 15.802272727272726,
                "pitch": 64,
                "velocity": 40,
                "duration": 0.11818181818181728,
                "tempo": 120.0
            },
            {
                "start_time": 15.818181818181817,
                "end_time": 15.936363636363636,
                "pitch": 64,
                "velocity": 40,
                "duration": 0.11818181818181905,
                "tempo": 120.0
            },
            {
                "start_time": 15.952272727272726,
                "end_time": 16.068181818181817,
                "pitch": 64,
                "velocity": 40,
                "duration": 0.1159090909090903,
                "tempo": 120.0
            },
            {
                "start_time": 16.086363636363636,
                "end_time": 16.202272727272728,
                "pitch": 69,
                "velocity": 40,
                "duration": 0.11590909090909207,
                "tempo": 120.0
            },
            {
                "start_time": 16.220454545454544,
                "end_time": 16.33863636363636,
                "pitch": 64,
                "velocity": 40,
                "duration": 0.11818181818181728,
                "tempo": 120.0
            },
            {
                "start_time": 16.354545454545455,
                "end_time": 16.474999999999998,
                "pitch": 64,
                "velocity": 40,
                "duration": 0.12045454545454248,
                "tempo": 120.0
            },
            {
                "start_time": 16.49090909090909,
                "end_time": 16.611363636363635,
                "pitch": 64,
                "velocity": 40,
                "duration": 0.12045454545454604,
                "tempo": 120.0
            },
            {
                "start_time": 16.627272727272725,
                "end_time": 16.745454545454546,
                "pitch": 72,
                "velocity": 40,
                "duration": 0.11818181818182083,
                "tempo": 120.0
            },
            {
                "start_time": 16.763636363636362,
                "end_time": 16.879545454545454,
                "pitch": 64,
                "velocity": 40,
                "duration": 0.11590909090909207,
                "tempo": 120.0
            },
            {
                "start_time": 16.897727272727273,
                "end_time": 17.013636363636362,
                "pitch": 64,
                "velocity": 40,
                "duration": 0.11590909090908852,
                "tempo": 120.0
            },
            {
                "start_time": 17.029545454545453,
                "end_time": 17.147727272727273,
                "pitch": 64,
                "velocity": 40,
                "duration": 0.11818181818182083,
                "tempo": 120.0
            },
            {
                "start_time": 17.163636363636364,
                "end_time": 17.263636363636362,
                "pitch": 66,
                "velocity": 40,
                "duration": 0.09999999999999787,
                "tempo": 120.0
            },
            {
                "start_time": 17.28181818181818,
                "end_time": 17.379545454545454,
                "pitch": 66,
                "velocity": 40,
                "duration": 0.09772727272727266,
                "tempo": 120.0
            },
            {
                "start_time": 17.395454545454545,
                "end_time": 17.495454545454546,
                "pitch": 66,
                "velocity": 40,
                "duration": 0.10000000000000142,
                "tempo": 120.0
            },
            {
                "start_time": 17.511363636363637,
                "end_time": 17.60909090909091,
                "pitch": 66,
                "velocity": 40,
                "duration": 0.09772727272727266,
                "tempo": 120.0
            },
            {
                "start_time": 17.625,
                "end_time": 17.724999999999998,
                "pitch": 67,
                "velocity": 40,
                "duration": 0.09999999999999787,
                "tempo": 120.0
            },
            {
                "start_time": 17.738636363636363,
                "end_time": 17.827272727272728,
                "pitch": 66,
                "velocity": 40,
                "duration": 0.08863636363636473,
                "tempo": 120.0
            },
            {
                "start_time": 17.84090909090909,
                "end_time": 17.927272727272726,
                "pitch": 66,
                "velocity": 40,
                "duration": 0.08636363636363598,
                "tempo": 120.0
            },
            {
                "start_time": 17.943181818181817,
                "end_time": 18.029545454545453,
                "pitch": 66,
                "velocity": 40,
                "duration": 0.08636363636363598,
                "tempo": 120.0
            },
            {
                "start_time": 18.043181818181818,
                "end_time": 18.13181818181818,
                "pitch": 71,
                "velocity": 40,
                "duration": 0.08863636363636118,
                "tempo": 120.0
            },
            {
                "start_time": 18.145454545454545,
                "end_time": 18.236363636363635,
                "pitch": 66,
                "velocity": 40,
                "duration": 0.09090909090908994,
                "tempo": 120.0
            },
            {
                "start_time": 18.252272727272725,
                "end_time": 18.34318181818182,
                "pitch": 66,
                "velocity": 40,
                "duration": 0.09090909090909349,
                "tempo": 120.0
            },
            {
                "start_time": 18.35909090909091,
                "end_time": 18.45,
                "pitch": 66,
                "velocity": 40,
                "duration": 0.09090909090908994,
                "tempo": 120.0
            },
            {
                "start_time": 18.46590909090909,
                "end_time": 18.55681818181818,
                "pitch": 74,
                "velocity": 40,
                "duration": 0.09090909090908994,
                "tempo": 120.0
            },
            {
                "start_time": 18.570454545454545,
                "end_time": 18.659090909090907,
                "pitch": 66,
                "velocity": 40,
                "duration": 0.08863636363636118,
                "tempo": 120.0
            },
            {
                "start_time": 18.672727272727272,
                "end_time": 18.761363636363637,
                "pitch": 66,
                "velocity": 40,
                "duration": 0.08863636363636473,
                "tempo": 120.0
            },
            {
                "start_time": 18.775,
                "end_time": 18.861363636363635,
                "pitch": 66,
                "velocity": 40,
                "duration": 0.08636363636363598,
                "tempo": 120.0
            },
            {
                "start_time": 18.877272727272725,
                "end_time": 18.96363636363636,
                "pitch": 66,
                "velocity": 40,
                "duration": 0.08636363636363598,
                "tempo": 120.0
            },
            {
                "start_time": 18.977272727272727,
                "end_time": 19.068181818181817,
                "pitch": 66,
                "velocity": 40,
                "duration": 0.09090909090908994,
                "tempo": 120.0
            },
            {
                "start_time": 19.081818181818182,
                "end_time": 19.170454545454543,
                "pitch": 66,
                "velocity": 40,
                "duration": 0.08863636363636118,
                "tempo": 120.0
            },
            {
                "start_time": 19.186363636363634,
                "end_time": 19.275,
                "pitch": 66,
                "velocity": 40,
                "duration": 0.08863636363636473,
                "tempo": 120.0
            },
            {
                "start_time": 19.29090909090909,
                "end_time": 19.379545454545454,
                "pitch": 67,
                "velocity": 40,
                "duration": 0.08863636363636473,
                "tempo": 120.0
            },
            {
                "start_time": 19.393181818181816,
                "end_time": 19.48181818181818,
                "pitch": 66,
                "velocity": 40,
                "duration": 0.08863636363636473,
                "tempo": 120.0
            },
            {
                "start_time": 19.495454545454546,
                "end_time": 19.581818181818182,
                "pitch": 66,
                "velocity": 40,
                "duration": 0.08636363636363598,
                "tempo": 120.0
            },
            {
                "start_time": 19.597727272727273,
                "end_time": 19.68409090909091,
                "pitch": 66,
                "velocity": 40,
                "duration": 0.08636363636363598,
                "tempo": 120.0
            },
            {
                "start_time": 19.69772727272727,
                "end_time": 19.786363636363635,
                "pitch": 71,
                "velocity": 40,
                "duration": 0.08863636363636473,
                "tempo": 120.0
            },
            {
                "start_time": 19.8,
                "end_time": 19.888636363636362,
                "pitch": 66,
                "velocity": 40,
                "duration": 0.08863636363636118,
                "tempo": 120.0
            },
            {
                "start_time": 19.904545454545453,
                "end_time": 19.993181818181817,
                "pitch": 66,
                "velocity": 40,
                "duration": 0.08863636363636473,
                "tempo": 120.0
            },
            {
                "start_time": 20.009090909090908,
                "end_time": 20.097727272727273,
                "pitch": 66,
                "velocity": 40,
                "duration": 0.08863636363636473,
                "tempo": 120.0
            },
            {
                "start_time": 20.111363636363635,
                "end_time": 20.202272727272728,
                "pitch": 74,
                "velocity": 40,
                "duration": 0.09090909090909349,
                "tempo": 120.0
            },
            {
                "start_time": 20.21590909090909,
                "end_time": 20.304545454545455,
                "pitch": 66,
                "velocity": 40,
                "duration": 0.08863636363636473,
                "tempo": 120.0
            },
            {
                "start_time": 20.320454545454545,
                "end_time": 20.409090909090907,
                "pitch": 66,
                "velocity": 40,
                "duration": 0.08863636363636118,
                "tempo": 120.0
            },
            {
                "start_time": 20.425,
                "end_time": 20.513636363636362,
                "pitch": 66,
                "velocity": 40,
                "duration": 0.08863636363636118,
                "tempo": 120.0
            },
            {
                "start_time": 20.529545454545453,
                "end_time": 20.618181818181817,
                "pitch": 66,
                "velocity": 40,
                "duration": 0.08863636363636473,
                "tempo": 120.0
            },
            {
                "start_time": 20.63181818181818,
                "end_time": 20.722727272727273,
                "pitch": 66,
                "velocity": 40,
                "duration": 0.09090909090909349,
                "tempo": 120.0
            },
            {
                "start_time": 20.736363636363635,
                "end_time": 20.825,
                "pitch": 66,
                "velocity": 40,
                "duration": 0.08863636363636473,
                "tempo": 120.0
            },
            {
                "start_time": 20.84090909090909,
                "end_time": 20.929545454545455,
                "pitch": 66,
                "velocity": 40,
                "duration": 0.08863636363636473,
                "tempo": 120.0
            },
            {
                "start_time": 20.945454545454545,
                "end_time": 21.034090909090907,
                "pitch": 67,
                "velocity": 40,
                "duration": 0.08863636363636118,
                "tempo": 120.0
            },
            {
                "start_time": 21.047727272727272,
                "end_time": 21.136363636363637,
                "pitch": 66,
                "velocity": 40,
                "duration": 0.08863636363636473,
                "tempo": 120.0
            },
            {
                "start_time": 21.15,
                "end_time": 21.236363636363635,
                "pitch": 66,
                "velocity": 40,
                "duration": 0.08636363636363598,
                "tempo": 120.0
            },
            {
                "start_time": 21.252272727272725,
                "end_time": 21.33863636363636,
                "pitch": 66,
                "velocity": 40,
                "duration": 0.08636363636363598,
                "tempo": 120.0
            },
            {
                "start_time": 21.352272727272727,
                "end_time": 21.44090909090909,
                "pitch": 71,
                "velocity": 40,
                "duration": 0.08863636363636473,
                "tempo": 120.0
            },
            {
                "start_time": 21.454545454545453,
                "end_time": 21.543181818181818,
                "pitch": 66,
                "velocity": 40,
                "duration": 0.08863636363636473,
                "tempo": 120.0
            },
            {
                "start_time": 21.55909090909091,
                "end_time": 21.647727272727273,
                "pitch": 66,
                "velocity": 40,
                "duration": 0.08863636363636473,
                "tempo": 120.0
            },
            {
                "start_time": 21.663636363636364,
                "end_time": 21.752272727272725,
                "pitch": 66,
                "velocity": 40,
                "duration": 0.08863636363636118,
                "tempo": 120.0
            },
            {
                "start_time": 21.76590909090909,
                "end_time": 21.85681818181818,
                "pitch": 74,
                "velocity": 40,
                "duration": 0.09090909090908994,
                "tempo": 120.0
            },
            {
                "start_time": 21.870454545454546,
                "end_time": 21.959090909090907,
                "pitch": 66,
                "velocity": 40,
                "duration": 0.08863636363636118,
                "tempo": 120.0
            },
            {
                "start_time": 21.974999999999998,
                "end_time": 22.063636363636363,
                "pitch": 66,
                "velocity": 40,
                "duration": 0.08863636363636473,
                "tempo": 120.0
            },
            {
                "start_time": 22.079545454545453,
                "end_time": 22.168181818181818,
                "pitch": 66,
                "velocity": 40,
                "duration": 0.08863636363636473,
                "tempo": 120.0
            },
            {
                "start_time": 22.18409090909091,
                "end_time": 22.272727272727273,
                "pitch": 66,
                "velocity": 40,
                "duration": 0.08863636363636473,
                "tempo": 120.0
            },
            {
                "start_time": 22.286363636363635,
                "end_time": 22.375,
                "pitch": 66,
                "velocity": 40,
                "duration": 0.08863636363636473,
                "tempo": 120.0
            },
            {
                "start_time": 22.388636363636362,
                "end_time": 22.474999999999998,
                "pitch": 66,
                "velocity": 40,
                "duration": 0.08636363636363598,
                "tempo": 120.0
            },
            {
                "start_time": 22.49090909090909,
                "end_time": 22.577272727272724,
                "pitch": 66,
                "velocity": 40,
                "duration": 0.08636363636363598,
                "tempo": 120.0
            },
            {
                "start_time": 22.59090909090909,
                "end_time": 22.679545454545455,
                "pitch": 67,
                "velocity": 40,
                "duration": 0.08863636363636473,
                "tempo": 120.0
            },
            {
                "start_time": 22.693181818181817,
                "end_time": 22.78181818181818,
                "pitch": 66,
                "velocity": 40,
                "duration": 0.08863636363636473,
                "tempo": 120.0
            },
            {
                "start_time": 22.797727272727272,
                "end_time": 22.886363636363637,
                "pitch": 66,
                "velocity": 40,
                "duration": 0.08863636363636473,
                "tempo": 120.0
            },
            {
                "start_time": 22.902272727272727,
                "end_time": 22.99090909090909,
                "pitch": 66,
                "velocity": 40,
                "duration": 0.08863636363636118,
                "tempo": 120.0
            },
            {
                "start_time": 23.004545454545454,
                "end_time": 23.095454545454544,
                "pitch": 71,
                "velocity": 40,
                "duration": 0.09090909090908994,
                "tempo": 120.0
            },
            {
                "start_time": 23.10909090909091,
                "end_time": 23.19772727272727,
                "pitch": 66,
                "velocity": 40,
                "duration": 0.08863636363636118,
                "tempo": 120.0
            },
            {
                "start_time": 23.21363636363636,
                "end_time": 23.302272727272726,
                "pitch": 66,
                "velocity": 40,
                "duration": 0.08863636363636473,
                "tempo": 120.0
            },
            {
                "start_time": 23.318181818181817,
                "end_time": 23.40681818181818,
                "pitch": 66,
                "velocity": 40,
                "duration": 0.08863636363636473,
                "tempo": 120.0
            },
            {
                "start_time": 23.420454545454543,
                "end_time": 23.511363636363637,
                "pitch": 74,
                "velocity": 40,
                "duration": 0.09090909090909349,
                "tempo": 120.0
            },
            {
                "start_time": 23.525,
                "end_time": 23.611363636363635,
                "pitch": 66,
                "velocity": 40,
                "duration": 0.08636363636363598,
                "tempo": 120.0
            },
            {
                "start_time": 23.627272727272725,
                "end_time": 23.71363636363636,
                "pitch": 66,
                "velocity": 40,
                "duration": 0.08636363636363598,
                "tempo": 120.0
            },
            {
                "start_time": 23.729545454545452,
                "end_time": 23.81590909090909,
                "pitch": 66,
                "velocity": 40,
                "duration": 0.08636363636363953,
                "tempo": 120.0
            },
            {
                "start_time": 23.829545454545453,
                "end_time": 42.9,
                "pitch": 84,
                "velocity": 40,
                "duration": 19.070454545454545,
                "tempo": 120.0
            },
            {
                "start_time": 42.918181818181814,
                "end_time": 43.03636363636363,
                "pitch": 64,
                "velocity": 40,
                "duration": 0.11818181818181728,
                "tempo": 120.0
            },
            {
                "start_time": 43.054545454545455,
                "end_time": 43.17272727272727,
                "pitch": 64,
                "velocity": 40,
                "duration": 0.11818181818181728,
                "tempo": 120.0
            },
            {
                "start_time": 43.18863636363636,
                "end_time": 43.309090909090905,
                "pitch": 64,
                "velocity": 40,
                "duration": 0.12045454545454248,
                "tempo": 120.0
            },
            {
                "start_time": 43.324999999999996,
                "end_time": 43.445454545454545,
                "pitch": 65,
                "velocity": 40,
                "duration": 0.12045454545454959,
                "tempo": 120.0
            },
            {
                "start_time": 43.461363636363636,
                "end_time": 43.57727272727273,
                "pitch": 64,
                "velocity": 40,
                "duration": 0.11590909090909207,
                "tempo": 120.0
            },
            {
                "start_time": 43.595454545454544,
                "end_time": 43.711363636363636,
                "pitch": 64,
                "velocity": 40,
                "duration": 0.11590909090909207,
                "tempo": 120.0
            },
            {
                "start_time": 43.72954545454545,
                "end_time": 43.845454545454544,
                "pitch": 64,
                "velocity": 40,
                "duration": 0.11590909090909207,
                "tempo": 120.0
            },
            {
                "start_time": 43.861363636363635,
                "end_time": 43.97954545454545,
                "pitch": 69,
                "velocity": 40,
                "duration": 0.11818181818181728,
                "tempo": 120.0
            },
            {
                "start_time": 43.99545454545454,
                "end_time": 44.11590909090909,
                "pitch": 64,
                "velocity": 40,
                "duration": 0.12045454545454959,
                "tempo": 120.0
            },
            {
                "start_time": 44.13181818181818,
                "end_time": 44.25,
                "pitch": 64,
                "velocity": 40,
                "duration": 0.11818181818181728,
                "tempo": 120.0
            },
            {
                "start_time": 44.268181818181816,
                "end_time": 44.38636363636363,
                "pitch": 64,
                "velocity": 40,
                "duration": 0.11818181818181728,
                "tempo": 120.0
            },
            {
                "start_time": 44.40454545454545,
                "end_time": 44.52272727272727,
                "pitch": 72,
                "velocity": 40,
                "duration": 0.11818181818182438,
                "tempo": 120.0
            },
            {
                "start_time": 44.538636363636364,
                "end_time": 44.65681818181818,
                "pitch": 64,
                "velocity": 40,
                "duration": 0.11818181818181728,
                "tempo": 120.0
            },
            {
                "start_time": 44.67272727272727,
                "end_time": 44.79090909090909,
                "pitch": 64,
                "velocity": 40,
                "duration": 0.11818181818181728,
                "tempo": 120.0
            },
            {
                "start_time": 44.80681818181818,
                "end_time": 44.92272727272727,
                "pitch": 64,
                "velocity": 40,
                "duration": 0.11590909090909207,
                "tempo": 120.0
            },
            {
                "start_time": 44.94090909090909,
                "end_time": 45.05681818181818,
                "pitch": 64,
                "velocity": 40,
                "duration": 0.11590909090909207,
                "tempo": 120.0
            },
            {
                "start_time": 45.074999999999996,
                "end_time": 45.19318181818181,
                "pitch": 64,
                "velocity": 40,
                "duration": 0.11818181818181728,
                "tempo": 120.0
            },
            {
                "start_time": 45.209090909090904,
                "end_time": 45.32954545454545,
                "pitch": 64,
                "velocity": 40,
                "duration": 0.12045454545454959,
                "tempo": 120.0
            },
            {
                "start_time": 45.345454545454544,
                "end_time": 45.465909090909086,
                "pitch": 64,
                "velocity": 40,
                "duration": 0.12045454545454248,
                "tempo": 120.0
            },
            {
                "start_time": 45.48181818181818,
                "end_time": 45.599999999999994,
                "pitch": 65,
                "velocity": 40,
                "duration": 0.11818181818181728,
                "tempo": 120.0
            },
            {
                "start_time": 45.61818181818182,
                "end_time": 45.73181818181818,
                "pitch": 64,
                "velocity": 40,
                "duration": 0.11363636363635976,
                "tempo": 120.0
            },
            {
                "start_time": 45.75,
                "end_time": 45.86363636363636,
                "pitch": 64,
                "velocity": 40,
                "duration": 0.11363636363635976,
                "tempo": 120.0
            },
            {
                "start_time": 45.87954545454545,
                "end_time": 45.99545454545454,
                "pitch": 64,
                "velocity": 40,
                "duration": 0.11590909090909207,
                "tempo": 120.0
            },
            {
                "start_time": 46.01136363636363,
                "end_time": 46.127272727272725,
                "pitch": 69,
                "velocity": 40,
                "duration": 0.11590909090909207,
                "tempo": 120.0
            },
            {
                "start_time": 46.143181818181816,
                "end_time": 46.26136363636363,
                "pitch": 64,
                "velocity": 40,
                "duration": 0.11818181818181728,
                "tempo": 120.0
            },
            {
                "start_time": 46.27954545454545,
                "end_time": 46.39772727272727,
                "pitch": 64,
                "velocity": 40,
                "duration": 0.11818181818182438,
                "tempo": 120.0
            },
            {
                "start_time": 46.41590909090909,
                "end_time": 46.53409090909091,
                "pitch": 64,
                "velocity": 40,
                "duration": 0.11818181818181728,
                "tempo": 120.0
            },
            {
                "start_time": 46.55,
                "end_time": 46.67045454545454,
                "pitch": 72,
                "velocity": 40,
                "duration": 0.12045454545454248,
                "tempo": 120.0
            },
            {
                "start_time": 46.68636363636364,
                "end_time": 46.804545454545455,
                "pitch": 64,
                "velocity": 40,
                "duration": 0.11818181818181728,
                "tempo": 120.0
            },
            {
                "start_time": 46.820454545454545,
                "end_time": 46.93636363636364,
                "pitch": 64,
                "velocity": 40,
                "duration": 0.11590909090909207,
                "tempo": 120.0
            },
            {
                "start_time": 46.95454545454545,
                "end_time": 47.070454545454545,
                "pitch": 64,
                "velocity": 40,
                "duration": 0.11590909090909207,
                "tempo": 120.0
            },
            {
                "start_time": 47.08863636363636,
                "end_time": 47.20454545454545,
                "pitch": 64,
                "velocity": 40,
                "duration": 0.11590909090909207,
                "tempo": 120.0
            },
            {
                "start_time": 47.220454545454544,
                "end_time": 47.340909090909086,
                "pitch": 64,
                "velocity": 40,
                "duration": 0.12045454545454248,
                "tempo": 120.0
            },
            {
                "start_time": 47.35681818181818,
                "end_time": 47.47727272727273,
                "pitch": 64,
                "velocity": 40,
                "duration": 0.12045454545454959,
                "tempo": 120.0
            },
            {
                "start_time": 47.49318181818182,
                "end_time": 47.611363636363635,
                "pitch": 64,
                "velocity": 40,
                "duration": 0.11818181818181728,
                "tempo": 120.0
            },
            {
                "start_time": 47.62954545454545,
                "end_time": 47.74772727272727,
                "pitch": 65,
                "velocity": 40,
                "duration": 0.11818181818181728,
                "tempo": 120.0
            },
            {
                "start_time": 47.76590909090909,
                "end_time": 47.88181818181818,
                "pitch": 64,
                "velocity": 40,
                "duration": 0.11590909090909207,
                "tempo": 120.0
            },
            {
                "start_time": 47.89772727272727,
                "end_time": 48.01590909090909,
                "pitch": 64,
                "velocity": 40,
                "duration": 0.11818181818181728,
                "tempo": 120.0
            },
            {
                "start_time": 48.03181818181818,
                "end_time": 48.15,
                "pitch": 64,
                "velocity": 40,
                "duration": 0.11818181818181728,
                "tempo": 120.0
            },
            {
                "start_time": 48.16590909090909,
                "end_time": 48.28181818181818,
                "pitch": 69,
                "velocity": 40,
                "duration": 0.11590909090909207,
                "tempo": 120.0
            },
            {
                "start_time": 48.3,
                "end_time": 48.41590909090909,
                "pitch": 64,
                "velocity": 40,
                "duration": 0.11590909090909207,
                "tempo": 120.0
            },
            {
                "start_time": 48.434090909090905,
                "end_time": 48.55,
                "pitch": 64,
                "velocity": 40,
                "duration": 0.11590909090909207,
                "tempo": 120.0
            },
            {
                "start_time": 48.56590909090909,
                "end_time": 48.684090909090905,
                "pitch": 64,
                "velocity": 40,
                "duration": 0.11818181818181728,
                "tempo": 120.0
            },
            {
                "start_time": 48.699999999999996,
                "end_time": 48.81818181818181,
                "pitch": 72,
                "velocity": 40,
                "duration": 0.11818181818181728,
                "tempo": 120.0
            },
            {
                "start_time": 48.834090909090904,
                "end_time": 48.95227272727273,
                "pitch": 64,
                "velocity": 40,
                "duration": 0.11818181818182438,
                "tempo": 120.0
            },
            {
                "start_time": 48.970454545454544,
                "end_time": 49.08863636363636,
                "pitch": 64,
                "velocity": 40,
                "duration": 0.11818181818181728,
                "tempo": 120.0
            },
            {
                "start_time": 49.10681818181818,
                "end_time": 49.224999999999994,
                "pitch": 64,
                "velocity": 40,
                "duration": 0.11818181818181728,
                "tempo": 120.0
            },
            {
                "start_time": 49.240909090909085,
                "end_time": 49.361363636363635,
                "pitch": 64,
                "velocity": 40,
                "duration": 0.12045454545454959,
                "tempo": 120.0
            },
            {
                "start_time": 49.377272727272725,
                "end_time": 49.49545454545454,
                "pitch": 64,
                "velocity": 40,
                "duration": 0.11818181818181728,
                "tempo": 120.0
            },
            {
                "start_time": 49.51136363636363,
                "end_time": 49.627272727272725,
                "pitch": 64,
                "velocity": 40,
                "duration": 0.11590909090909207,
                "tempo": 120.0
            },
            {
                "start_time": 49.64545454545454,
                "end_time": 49.76136363636363,
                "pitch": 64,
                "velocity": 40,
                "duration": 0.11590909090909207,
                "tempo": 120.0
            },
            {
                "start_time": 49.77954545454545,
                "end_time": 49.89545454545454,
                "pitch": 65,
                "velocity": 40,
                "duration": 0.11590909090909207,
                "tempo": 120.0
            },
            {
                "start_time": 49.91136363636363,
                "end_time": 50.02954545454545,
                "pitch": 64,
                "velocity": 40,
                "duration": 0.11818181818181728,
                "tempo": 120.0
            },
            {
                "start_time": 50.04545454545454,
                "end_time": 50.163636363636364,
                "pitch": 64,
                "velocity": 40,
                "duration": 0.11818181818182438,
                "tempo": 120.0
            },
            {
                "start_time": 50.179545454545455,
                "end_time": 50.29545454545454,
                "pitch": 64,
                "velocity": 40,
                "duration": 0.11590909090908497,
                "tempo": 120.0
            },
            {
                "start_time": 50.31363636363636,
                "end_time": 50.429545454545455,
                "pitch": 69,
                "velocity": 40,
                "duration": 0.11590909090909207,
                "tempo": 120.0
            },
            {
                "start_time": 50.44772727272727,
                "end_time": 50.56590909090909,
                "pitch": 64,
                "velocity": 40,
                "duration": 0.11818181818181728,
                "tempo": 120.0
            },
            {
                "start_time": 50.58181818181818,
                "end_time": 50.70227272727273,
                "pitch": 64,
                "velocity": 40,
                "duration": 0.12045454545454959,
                "tempo": 120.0
            },
            {
                "start_time": 50.71818181818182,
                "end_time": 50.83863636363636,
                "pitch": 64,
                "velocity": 40,
                "duration": 0.12045454545454248,
                "tempo": 120.0
            },
            {
                "start_time": 50.85454545454545,
                "end_time": 50.97272727272727,
                "pitch": 72,
                "velocity": 40,
                "duration": 0.11818181818181728,
                "tempo": 120.0
            },
            {
                "start_time": 50.990909090909085,
                "end_time": 51.10681818181818,
                "pitch": 64,
                "velocity": 40,
                "duration": 0.11590909090909207,
                "tempo": 120.0
            },
            {
                "start_time": 51.125,
                "end_time": 51.240909090909085,
                "pitch": 64,
                "velocity": 40,
                "duration": 0.11590909090908497,
                "tempo": 120.0
            },
            {
                "start_time": 51.25681818181818,
                "end_time": 51.375,
                "pitch": 64,
                "velocity": 40,
                "duration": 0.11818181818181728,
                "tempo": 120.0
            },
            {
                "start_time": 51.39090909090909,
                "end_time": 51.50909090909091,
                "pitch": 64,
                "velocity": 40,
                "duration": 0.11818181818181728,
                "tempo": 120.0
            },
            {
                "start_time": 51.525,
                "end_time": 51.643181818181816,
                "pitch": 64,
                "velocity": 40,
                "duration": 0.11818181818181728,
                "tempo": 120.0
            },
            {
                "start_time": 51.66136363636363,
                "end_time": 51.77954545454545,
                "pitch": 64,
                "velocity": 40,
                "duration": 0.11818181818181728,
                "tempo": 120.0
            },
            {
                "start_time": 51.79772727272727,
                "end_time": 51.91590909090909,
                "pitch": 64,
                "velocity": 40,
                "duration": 0.11818181818181728,
                "tempo": 120.0
            },
            {
                "start_time": 51.93181818181818,
                "end_time": 52.05227272727272,
                "pitch": 65,
                "velocity": 40,
                "duration": 0.12045454545454248,
                "tempo": 120.0
            },
            {
                "start_time": 52.06818181818181,
                "end_time": 52.184090909090905,
                "pitch": 64,
                "velocity": 40,
                "duration": 0.11590909090909207,
                "tempo": 120.0
            },
            {
                "start_time": 52.199999999999996,
                "end_time": 52.31363636363636,
                "pitch": 64,
                "velocity": 40,
                "duration": 0.11363636363636687,
                "tempo": 120.0
            },
            {
                "start_time": 52.33181818181818,
                "end_time": 52.445454545454545,
                "pitch": 64,
                "velocity": 40,
                "duration": 0.11363636363636687,
                "tempo": 120.0
            },
            {
                "start_time": 52.461363636363636,
                "end_time": 52.57727272727273,
                "pitch": 69,
                "velocity": 40,
                "duration": 0.11590909090909207,
                "tempo": 120.0
            },
            {
                "start_time": 52.59318181818182,
                "end_time": 52.71363636363636,
                "pitch": 64,
                "velocity": 40,
                "duration": 0.12045454545454248,
                "tempo": 120.0
            },
            {
                "start_time": 52.72954545454545,
                "end_time": 52.84772727272727,
                "pitch": 64,
                "velocity": 40,
                "duration": 0.11818181818181728,
                "tempo": 120.0
            },
            {
                "start_time": 52.865909090909085,
                "end_time": 52.98409090909091,
                "pitch": 64,
                "velocity": 40,
                "duration": 0.11818181818182438,
                "tempo": 120.0
            },
            {
                "start_time": 53.002272727272725,
                "end_time": 53.12045454545454,
                "pitch": 72,
                "velocity": 40,
                "duration": 0.11818181818181728,
                "tempo": 120.0
            },
            {
                "start_time": 53.13863636363636,
                "end_time": 53.25454545454545,
                "pitch": 64,
                "velocity": 40,
                "duration": 0.11590909090909207,
                "tempo": 120.0
            },
            {
                "start_time": 53.27045454545454,
                "end_time": 53.38863636363636,
                "pitch": 64,
                "velocity": 40,
                "duration": 0.11818181818181728,
                "tempo": 120.0
            },
            {
                "start_time": 53.40454545454545,
                "end_time": 53.52272727272727,
                "pitch": 64,
                "velocity": 40,
                "duration": 0.11818181818182438,
                "tempo": 120.0
            },
            {
                "start_time": 53.538636363636364,
                "end_time": 53.65454545454545,
                "pitch": 66,
                "velocity": 40,
                "duration": 0.11590909090908497,
                "tempo": 120.0
            },
            {
                "start_time": 53.67272727272727,
                "end_time": 53.79090909090909,
                "pitch": 66,
                "velocity": 40,
                "duration": 0.11818181818181728,
                "tempo": 120.0
            },
            {
                "start_time": 53.809090909090905,
                "end_time": 53.92727272727272,
                "pitch": 66,
                "velocity": 40,
                "duration": 0.11818181818181728,
                "tempo": 120.0
            },
            {
                "start_time": 53.94318181818181,
                "end_time": 54.06363636363636,
                "pitch": 66,
                "velocity": 40,
                "duration": 0.12045454545454959,
                "tempo": 120.0
            },
            {
                "start_time": 54.07954545454545,
                "end_time": 54.199999999999996,
                "pitch": 67,
                "velocity": 40,
                "duration": 0.12045454545454248,
                "tempo": 120.0
            },
            {
                "start_time": 54.215909090909086,
                "end_time": 54.33181818181818,
                "pitch": 66,
                "velocity": 40,
                "duration": 0.11590909090909207,
                "tempo": 120.0
            },
            {
                "start_time": 54.349999999999994,
                "end_time": 54.465909090909086,
                "pitch": 66,
                "velocity": 40,
                "duration": 0.11590909090909207,
                "tempo": 120.0
            },
            {
                "start_time": 54.48409090909091,
                "end_time": 54.599999999999994,
                "pitch": 66,
                "velocity": 40,
                "duration": 0.11590909090908497,
                "tempo": 120.0
            },
            {
                "start_time": 54.615909090909085,
                "end_time": 54.73409090909091,
                "pitch": 71,
                "velocity": 40,
                "duration": 0.11818181818182438,
                "tempo": 120.0
            },
            {
                "start_time": 54.75,
                "end_time": 54.86818181818182,
                "pitch": 66,
                "velocity": 40,
                "duration": 0.11818181818181728,
                "tempo": 120.0
            },
            {
                "start_time": 54.88409090909091,
                "end_time": 55.0,
                "pitch": 66,
                "velocity": 40,
                "duration": 0.11590909090909207,
                "tempo": 120.0
            },
            {
                "start_time": 55.018181818181816,
                "end_time": 55.13409090909091,
                "pitch": 66,
                "velocity": 40,
                "duration": 0.11590909090909207,
                "tempo": 120.0
            },
            {
                "start_time": 55.152272727272724,
                "end_time": 55.268181818181816,
                "pitch": 74,
                "velocity": 40,
                "duration": 0.11590909090909207,
                "tempo": 120.0
            },
            {
                "start_time": 55.28409090909091,
                "end_time": 55.402272727272724,
                "pitch": 66,
                "velocity": 40,
                "duration": 0.11818181818181728,
                "tempo": 120.0
            },
            {
                "start_time": 55.418181818181814,
                "end_time": 55.53636363636363,
                "pitch": 66,
                "velocity": 40,
                "duration": 0.11818181818181728,
                "tempo": 120.0
            },
            {
                "start_time": 55.55227272727272,
                "end_time": 55.668181818181814,
                "pitch": 66,
                "velocity": 40,
                "duration": 0.11590909090909207,
                "tempo": 120.0
            },
            {
                "start_time": 55.68636363636363,
                "end_time": 55.80227272727272,
                "pitch": 66,
                "velocity": 40,
                "duration": 0.11590909090909207,
                "tempo": 120.0
            },
            {
                "start_time": 55.81818181818181,
                "end_time": 55.93863636363636,
                "pitch": 66,
                "velocity": 40,
                "duration": 0.12045454545454959,
                "tempo": 120.0
            },
            {
                "start_time": 55.95454545454545,
                "end_time": 56.074999999999996,
                "pitch": 66,
                "velocity": 40,
                "duration": 0.12045454545454248,
                "tempo": 120.0
            },
            {
                "start_time": 56.090909090909086,
                "end_time": 56.209090909090904,
                "pitch": 66,
                "velocity": 40,
                "duration": 0.11818181818181728,
                "tempo": 120.0
            },
            {
                "start_time": 56.22727272727273,
                "end_time": 56.345454545454544,
                "pitch": 67,
                "velocity": 40,
                "duration": 0.11818181818181728,
                "tempo": 120.0
            },
            {
                "start_time": 56.36363636363636,
                "end_time": 56.48181818181818,
                "pitch": 66,
                "velocity": 40,
                "duration": 0.11818181818181728,
                "tempo": 120.0
            },
            {
                "start_time": 56.5,
                "end_time": 56.61818181818182,
                "pitch": 66,
                "velocity": 40,
                "duration": 0.11818181818181728,
                "tempo": 120.0
            },
            {
                "start_time": 56.63409090909091,
                "end_time": 56.75454545454545,
                "pitch": 66,
                "velocity": 40,
                "duration": 0.12045454545454248,
                "tempo": 120.0
            },
            {
                "start_time": 56.77045454545454,
                "end_time": 56.89090909090909,
                "pitch": 71,
                "velocity": 40,
                "duration": 0.12045454545454959,
                "tempo": 120.0
            },
            {
                "start_time": 56.90681818181818,
                "end_time": 57.025,
                "pitch": 66,
                "velocity": 40,
                "duration": 0.11818181818181728,
                "tempo": 120.0
            },
            {
                "start_time": 57.04090909090909,
                "end_time": 57.15681818181818,
                "pitch": 66,
                "velocity": 40,
                "duration": 0.11590909090909207,
                "tempo": 120.0
            },
            {
                "start_time": 57.175,
                "end_time": 57.29090909090909,
                "pitch": 66,
                "velocity": 40,
                "duration": 0.11590909090909207,
                "tempo": 120.0
            },
            {
                "start_time": 57.309090909090905,
                "end_time": 57.425,
                "pitch": 74,
                "velocity": 40,
                "duration": 0.11590909090909207,
                "tempo": 120.0
            },
            {
                "start_time": 57.44090909090909,
                "end_time": 57.559090909090905,
                "pitch": 66,
                "velocity": 40,
                "duration": 0.11818181818181728,
                "tempo": 120.0
            },
            {
                "start_time": 57.574999999999996,
                "end_time": 57.69318181818181,
                "pitch": 66,
                "velocity": 40,
                "duration": 0.11818181818181728,
                "tempo": 120.0
            },
            {
                "start_time": 57.709090909090904,
                "end_time": 57.824999999999996,
                "pitch": 66,
                "velocity": 40,
                "duration": 0.11590909090909207,
                "tempo": 120.0
            },
            {
                "start_time": 57.84318181818182,
                "end_time": 57.959090909090904,
                "pitch": 66,
                "velocity": 40,
                "duration": 0.11590909090908497,
                "tempo": 120.0
            },
            {
                "start_time": 57.974999999999994,
                "end_time": 58.095454545454544,
                "pitch": 66,
                "velocity": 40,
                "duration": 0.12045454545454959,
                "tempo": 120.0
            },
            {
                "start_time": 58.111363636363635,
                "end_time": 58.23181818181818,
                "pitch": 66,
                "velocity": 40,
                "duration": 0.12045454545454248,
                "tempo": 120.0
            },
            {
                "start_time": 58.24772727272727,
                "end_time": 58.365909090909085,
                "pitch": 66,
                "velocity": 40,
                "duration": 0.11818181818181728,
                "tempo": 120.0
            },
            {
                "start_time": 58.38409090909091,
                "end_time": 58.502272727272725,
                "pitch": 67,
                "velocity": 40,
                "duration": 0.11818181818181728,
                "tempo": 120.0
            },
            {
                "start_time": 58.52045454545454,
                "end_time": 58.63636363636363,
                "pitch": 66,
                "velocity": 40,
                "duration": 0.11590909090909207,
                "tempo": 120.0
            },
            {
                "start_time": 58.65454545454545,
                "end_time": 58.77045454545454,
                "pitch": 66,
                "velocity": 40,
                "duration": 0.11590909090909207,
                "tempo": 120.0
            },
            {
                "start_time": 58.78636363636363,
                "end_time": 58.90454545454545,
                "pitch": 66,
                "velocity": 40,
                "duration": 0.11818181818181728,
                "tempo": 120.0
            },
            {
                "start_time": 58.92045454545454,
                "end_time": 59.038636363636364,
                "pitch": 71,
                "velocity": 40,
                "duration": 0.11818181818182438,
                "tempo": 120.0
            },
            {
                "start_time": 59.054545454545455,
                "end_time": 59.17045454545454,
                "pitch": 66,
                "velocity": 40,
                "duration": 0.11590909090908497,
                "tempo": 120.0
            },
            {
                "start_time": 59.18863636363636,
                "end_time": 59.304545454545455,
                "pitch": 66,
                "velocity": 40,
                "duration": 0.11590909090909207,
                "tempo": 120.0
            },
            {
                "start_time": 59.320454545454545,
                "end_time": 59.43863636363636,
                "pitch": 66,
                "velocity": 40,
                "duration": 0.11818181818181728,
                "tempo": 120.0
            },
            {
                "start_time": 59.45454545454545,
                "end_time": 59.57272727272727,
                "pitch": 74,
                "velocity": 40,
                "duration": 0.11818181818181728,
                "tempo": 120.0
            },
            {
                "start_time": 59.58863636363636,
                "end_time": 59.70454545454545,
                "pitch": 66,
                "velocity": 40,
                "duration": 0.11590909090909207,
                "tempo": 120.0
            },
            {
                "start_time": 59.72272727272727,
                "end_time": 59.83863636363636,
                "pitch": 66,
                "velocity": 40,
                "duration": 0.11590909090909207,
                "tempo": 120.0
            },
            {
                "start_time": 59.85681818181818,
                "end_time": 59.97272727272727,
                "pitch": 66,
                "velocity": 40,
                "duration": 0.11590909090909207,
                "tempo": 120.0
            },
            {
                "start_time": 59.98863636363636,
                "end_time": 60.10681818181818,
                "pitch": 66,
                "velocity": 40,
                "duration": 0.11818181818181728,
                "tempo": 120.0
            },
            {
                "start_time": 60.12272727272727,
                "end_time": 60.24318181818182,
                "pitch": 66,
                "velocity": 40,
                "duration": 0.12045454545454959,
                "tempo": 120.0
            },
            {
                "start_time": 60.25909090909091,
                "end_time": 60.377272727272725,
                "pitch": 66,
                "velocity": 40,
                "duration": 0.11818181818181728,
                "tempo": 120.0
            },
            {
                "start_time": 60.39545454545454,
                "end_time": 60.51363636363636,
                "pitch": 66,
                "velocity": 40,
                "duration": 0.11818181818181728,
                "tempo": 120.0
            },
            {
                "start_time": 60.53181818181818,
                "end_time": 60.65,
                "pitch": 67,
                "velocity": 40,
                "duration": 0.11818181818181728,
                "tempo": 120.0
            },
            {
                "start_time": 60.66590909090909,
                "end_time": 60.78409090909091,
                "pitch": 66,
                "velocity": 40,
                "duration": 0.11818181818181728,
                "tempo": 120.0
            },
            {
                "start_time": 60.8,
                "end_time": 60.918181818181814,
                "pitch": 66,
                "velocity": 40,
                "duration": 0.11818181818181728,
                "tempo": 120.0
            },
            {
                "start_time": 60.934090909090905,
                "end_time": 61.05,
                "pitch": 66,
                "velocity": 40,
                "duration": 0.11590909090909207,
                "tempo": 120.0
            },
            {
                "start_time": 61.06818181818181,
                "end_time": 61.184090909090905,
                "pitch": 71,
                "velocity": 40,
                "duration": 0.11590909090909207,
                "tempo": 120.0
            },
            {
                "start_time": 61.20227272727272,
                "end_time": 61.31818181818181,
                "pitch": 66,
                "velocity": 40,
                "duration": 0.11590909090909207,
                "tempo": 120.0
            },
            {
                "start_time": 61.334090909090904,
                "end_time": 61.45227272727272,
                "pitch": 66,
                "velocity": 40,
                "duration": 0.11818181818181728,
                "tempo": 120.0
            },
            {
                "start_time": 61.46818181818182,
                "end_time": 61.586363636363636,
                "pitch": 66,
                "velocity": 40,
                "duration": 0.11818181818181728,
                "tempo": 120.0
            },
            {
                "start_time": 61.60227272727273,
                "end_time": 61.71818181818182,
                "pitch": 74,
                "velocity": 40,
                "duration": 0.11590909090909207,
                "tempo": 120.0
            },
            {
                "start_time": 61.736363636363635,
                "end_time": 61.85454545454545,
                "pitch": 66,
                "velocity": 40,
                "duration": 0.11818181818181728,
                "tempo": 120.0
            },
            {
                "start_time": 61.87272727272727,
                "end_time": 61.990909090909085,
                "pitch": 66,
                "velocity": 40,
                "duration": 0.11818181818181728,
                "tempo": 120.0
            },
            {
                "start_time": 62.006818181818176,
                "end_time": 62.127272727272725,
                "pitch": 66,
                "velocity": 40,
                "duration": 0.12045454545454959,
                "tempo": 120.0
            }
        ],
        "Acoustic Guitar (nylon)": [
            {
                "start_time": 4.263636363636364,
                "end_time": 4.3136363636363635,
                "pitch": 84,
                "velocity": 40,
                "duration": 0.04999999999999982,
                "tempo": 120.0
            },
            {
                "start_time": 4.329545454545454,
                "end_time": 4.379545454545454,
                "pitch": 92,
                "velocity": 40,
                "duration": 0.04999999999999982,
                "tempo": 120.0
            },
            {
                "start_time": 4.3954545454545455,
                "end_time": 4.447727272727272,
                "pitch": 88,
                "velocity": 40,
                "duration": 0.052272727272726804,
                "tempo": 120.0
            },
            {
                "start_time": 4.463636363636364,
                "end_time": 4.515909090909091,
                "pitch": 84,
                "velocity": 40,
                "duration": 0.052272727272726804,
                "tempo": 120.0
            },
            {
                "start_time": 4.531818181818181,
                "end_time": 4.584090909090909,
                "pitch": 88,
                "velocity": 40,
                "duration": 0.05227272727272769,
                "tempo": 120.0
            },
            {
                "start_time": 4.6,
                "end_time": 4.6499999999999995,
                "pitch": 84,
                "velocity": 40,
                "duration": 0.04999999999999982,
                "tempo": 120.0
            },
            {
                "start_time": 4.668181818181818,
                "end_time": 4.718181818181818,
                "pitch": 92,
                "velocity": 40,
                "duration": 0.04999999999999982,
                "tempo": 120.0
            },
            {
                "start_time": 4.736363636363636,
                "end_time": 4.786363636363636,
                "pitch": 88,
                "velocity": 40,
                "duration": 0.04999999999999982,
                "tempo": 120.0
            },
            {
                "start_time": 4.804545454545455,
                "end_time": 4.922727272727273,
                "pitch": 84,
                "velocity": 40,
                "duration": 0.11818181818181817,
                "tempo": 120.0
            },
            {
                "start_time": 4.9409090909090905,
                "end_time": 5.056818181818182,
                "pitch": 92,
                "velocity": 40,
                "duration": 0.11590909090909118,
                "tempo": 120.0
            },
            {
                "start_time": 5.072727272727272,
                "end_time": 5.1909090909090905,
                "pitch": 88,
                "velocity": 40,
                "duration": 0.11818181818181817,
                "tempo": 120.0
            },
            {
                "start_time": 5.206818181818181,
                "end_time": 5.325,
                "pitch": 84,
                "velocity": 40,
                "duration": 0.11818181818181905,
                "tempo": 120.0
            },
            {
                "start_time": 5.340909090909091,
                "end_time": 5.456818181818181,
                "pitch": 88,
                "velocity": 40,
                "duration": 0.1159090909090903,
                "tempo": 120.0
            },
            {
                "start_time": 5.475,
                "end_time": 5.590909090909091,
                "pitch": 92,
                "velocity": 40,
                "duration": 0.11590909090909118,
                "tempo": 120.0
            },
            {
                "start_time": 5.6090909090909085,
                "end_time": 5.725,
                "pitch": 88,
                "velocity": 40,
                "duration": 0.11590909090909118,
                "tempo": 120.0
            },
            {
                "start_time": 5.74090909090909,
                "end_time": 5.8590909090909085,
                "pitch": 84,
                "velocity": 40,
                "duration": 0.11818181818181817,
                "tempo": 120.0
            },
            {
                "start_time": 5.875,
                "end_time": 5.993181818181818,
                "pitch": 84,
                "velocity": 40,
                "duration": 0.11818181818181817,
                "tempo": 120.0
            },
            {
                "start_time": 6.009090909090909,
                "end_time": 6.125,
                "pitch": 92,
                "velocity": 40,
                "duration": 0.11590909090909118,
                "tempo": 120.0
            },
            {
                "start_time": 6.143181818181818,
                "end_time": 6.259090909090909,
                "pitch": 88,
                "velocity": 40,
                "duration": 0.11590909090909118,
                "tempo": 120.0
            },
            {
                "start_time": 6.2749999999999995,
                "end_time": 6.393181818181818,
                "pitch": 84,
                "velocity": 40,
                "duration": 0.11818181818181817,
                "tempo": 120.0
            },
            {
                "start_time": 8.565909090909091,
                "end_time": 40.68636363636364,
                "pitch": 57,
                "velocity": 40,
                "duration": 32.12045454545455,
                "tempo": 120.0
            },
            {
                "start_time": 40.70454545454545,
                "end_time": 40.75454545454545,
                "pitch": 92,
                "velocity": 40,
                "duration": 0.04999999999999716,
                "tempo": 120.0
            },
            {
                "start_time": 40.77045454545454,
                "end_time": 40.820454545454545,
                "pitch": 88,
                "velocity": 40,
                "duration": 0.05000000000000426,
                "tempo": 120.0
            },
            {
                "start_time": 40.83863636363636,
                "end_time": 40.88863636363636,
                "pitch": 84,
                "velocity": 40,
                "duration": 0.04999999999999716,
                "tempo": 120.0
            },
            {
                "start_time": 40.90681818181818,
                "end_time": 40.95681818181818,
                "pitch": 88,
                "velocity": 40,
                "duration": 0.04999999999999716,
                "tempo": 120.0
            },
            {
                "start_time": 40.975,
                "end_time": 41.025,
                "pitch": 84,
                "velocity": 40,
                "duration": 0.04999999999999716,
                "tempo": 120.0
            },
            {
                "start_time": 41.043181818181814,
                "end_time": 41.09318181818182,
                "pitch": 92,
                "velocity": 40,
                "duration": 0.05000000000000426,
                "tempo": 120.0
            },
            {
                "start_time": 41.111363636363635,
                "end_time": 41.16136363636363,
                "pitch": 88,
                "velocity": 40,
                "duration": 0.04999999999999716,
                "tempo": 120.0
            },
            {
                "start_time": 41.17727272727272,
                "end_time": 41.29772727272727,
                "pitch": 84,
                "velocity": 40,
                "duration": 0.12045454545454959,
                "tempo": 120.0
            },
            {
                "start_time": 41.31363636363636,
                "end_time": 41.43181818181818,
                "pitch": 92,
                "velocity": 40,
                "duration": 0.11818181818181728,
                "tempo": 120.0
            },
            {
                "start_time": 41.44772727272727,
                "end_time": 41.56590909090909,
                "pitch": 88,
                "velocity": 40,
                "duration": 0.11818181818181728,
                "tempo": 120.0
            },
            {
                "start_time": 41.58181818181818,
                "end_time": 41.69772727272727,
                "pitch": 84,
                "velocity": 40,
                "duration": 0.11590909090909207,
                "tempo": 120.0
            },
            {
                "start_time": 41.715909090909086,
                "end_time": 41.83181818181818,
                "pitch": 88,
                "velocity": 40,
                "duration": 0.11590909090909207,
                "tempo": 120.0
            },
            {
                "start_time": 41.84772727272727,
                "end_time": 41.965909090909086,
                "pitch": 92,
                "velocity": 40,
                "duration": 0.11818181818181728,
                "tempo": 120.0
            },
            {
                "start_time": 41.98181818181818,
                "end_time": 42.1,
                "pitch": 88,
                "velocity": 40,
                "duration": 0.11818181818182438,
                "tempo": 120.0
            },
            {
                "start_time": 42.11590909090909,
                "end_time": 42.23181818181818,
                "pitch": 84,
                "velocity": 40,
                "duration": 0.11590909090908497,
                "tempo": 120.0
            },
            {
                "start_time": 42.25,
                "end_time": 42.36590909090909,
                "pitch": 84,
                "velocity": 40,
                "duration": 0.11590909090909207,
                "tempo": 120.0
            },
            {
                "start_time": 42.38409090909091,
                "end_time": 42.5,
                "pitch": 92,
                "velocity": 40,
                "duration": 0.11590909090909207,
                "tempo": 120.0
            },
            {
                "start_time": 42.51590909090909,
                "end_time": 42.63409090909091,
                "pitch": 88,
                "velocity": 40,
                "duration": 0.11818181818181728,
                "tempo": 120.0
            },
            {
                "start_time": 42.65,
                "end_time": 42.768181818181816,
                "pitch": 84,
                "velocity": 40,
                "duration": 0.11818181818181728,
                "tempo": 120.0
            }
        ],
        "Flute": [
            {
                "start_time": 25.472727272727273,
                "end_time": 27.102272727272727,
                "pitch": 59,
                "velocity": 40,
                "duration": 1.629545454545454,
                "tempo": 120.0
            },
            {
                "start_time": 27.118181818181817,
                "end_time": 28.75681818181818,
                "pitch": 62,
                "velocity": 40,
                "duration": 1.638636363636362,
                "tempo": 120.0
            },
            {
                "start_time": 28.77272727272727,
                "end_time": 29.995454545454542,
                "pitch": 64,
                "velocity": 40,
                "duration": 1.2227272727272727,
                "tempo": 120.0
            },
            {
                "start_time": 30.011363636363633,
                "end_time": 30.411363636363635,
                "pitch": 68,
                "velocity": 40,
                "duration": 0.40000000000000213,
                "tempo": 120.0
            },
            {
                "start_time": 30.427272727272726,
                "end_time": 31.843181818181815,
                "pitch": 57,
                "velocity": 40,
                "duration": 1.4159090909090892,
                "tempo": 120.0
            },
            {
                "start_time": 31.85681818181818,
                "end_time": 33.288636363636364,
                "pitch": 59,
                "velocity": 40,
                "duration": 1.4318181818181834,
                "tempo": 120.0
            },
            {
                "start_time": 33.304545454545455,
                "end_time": 34.8,
                "pitch": 62,
                "velocity": 40,
                "duration": 1.4954545454545425,
                "tempo": 120.0
            },
            {
                "start_time": 34.81590909090909,
                "end_time": 35.93636363636364,
                "pitch": 64,
                "velocity": 40,
                "duration": 1.1204545454545496,
                "tempo": 120.0
            },
            {
                "start_time": 35.95227272727273,
                "end_time": 36.33409090909091,
                "pitch": 68,
                "velocity": 40,
                "duration": 0.3818181818181827,
                "tempo": 120.0
            },
            {
                "start_time": 40.63636363636363,
                "end_time": 53.538636363636364,
                "pitch": 84,
                "velocity": 40,
                "duration": 12.902272727272731,
                "tempo": 120.0
            },
            {
                "start_time": 53.538636363636364,
                "end_time": 62.143181818181816,
                "pitch": 59,
                "velocity": 40,
                "duration": 8.604545454545452,
                "tempo": 120.0
            }
        ],
        "Acoustic Grand Piano": [
            {
                "start_time": 0.0,
                "end_time": 0.08863636363636364,
                "pitch": 40,
                "velocity": 40,
                "duration": 0.08863636363636364,
                "tempo": 120.0
            },
            {
                "start_time": 0.10227272727272727,
                "end_time": 0.21818181818181817,
                "pitch": 45,
                "velocity": 40,
                "duration": 0.1159090909090909,
                "tempo": 120.0
            },
            {
                "start_time": 0.23636363636363636,
                "end_time": 0.35227272727272724,
                "pitch": 40,
                "velocity": 40,
                "duration": 0.11590909090909088,
                "tempo": 120.0
            },
            {
                "start_time": 0.36818181818181817,
                "end_time": 0.48636363636363633,
                "pitch": 41,
                "velocity": 40,
                "duration": 0.11818181818181817,
                "tempo": 120.0
            },
            {
                "start_time": 0.5022727272727272,
                "end_time": 0.6204545454545454,
                "pitch": 40,
                "velocity": 40,
                "duration": 0.11818181818181817,
                "tempo": 120.0
            },
            {
                "start_time": 0.6363636363636364,
                "end_time": 0.7522727272727272,
                "pitch": 45,
                "velocity": 40,
                "duration": 0.11590909090909085,
                "tempo": 120.0
            },
            {
                "start_time": 0.7704545454545454,
                "end_time": 0.8863636363636364,
                "pitch": 40,
                "velocity": 40,
                "duration": 0.11590909090909096,
                "tempo": 120.0
            },
            {
                "start_time": 0.9045454545454545,
                "end_time": 1.0204545454545455,
                "pitch": 41,
                "velocity": 40,
                "duration": 0.11590909090909096,
                "tempo": 120.0
            },
            {
                "start_time": 1.0363636363636364,
                "end_time": 1.1545454545454545,
                "pitch": 40,
                "velocity": 40,
                "duration": 0.11818181818181817,
                "tempo": 120.0
            },
            {
                "start_time": 1.1704545454545454,
                "end_time": 1.2886363636363636,
                "pitch": 45,
                "velocity": 40,
                "duration": 0.11818181818181817,
                "tempo": 120.0
            },
            {
                "start_time": 1.3068181818181817,
                "end_time": 1.4249999999999998,
                "pitch": 40,
                "velocity": 40,
                "duration": 0.11818181818181817,
                "tempo": 120.0
            },
            {
                "start_time": 1.4431818181818181,
                "end_time": 1.5613636363636363,
                "pitch": 41,
                "velocity": 40,
                "duration": 0.11818181818181817,
                "tempo": 120.0
            },
            {
                "start_time": 1.5795454545454544,
                "end_time": 1.6977272727272728,
                "pitch": 40,
                "velocity": 40,
                "duration": 0.11818181818181839,
                "tempo": 120.0
            },
            {
                "start_time": 1.7136363636363636,
                "end_time": 1.8318181818181818,
                "pitch": 45,
                "velocity": 40,
                "duration": 0.11818181818181817,
                "tempo": 120.0
            },
            {
                "start_time": 1.8477272727272727,
                "end_time": 1.9659090909090908,
                "pitch": 40,
                "velocity": 40,
                "duration": 0.11818181818181817,
                "tempo": 120.0
            },
            {
                "start_time": 1.9818181818181817,
                "end_time": 2.0977272727272727,
                "pitch": 41,
                "velocity": 40,
                "duration": 0.11590909090909096,
                "tempo": 120.0
            },
            {
                "start_time": 2.1159090909090907,
                "end_time": 2.231818181818182,
                "pitch": 40,
                "velocity": 40,
                "duration": 0.11590909090909118,
                "tempo": 120.0
            },
            {
                "start_time": 2.25,
                "end_time": 2.3659090909090907,
                "pitch": 45,
                "velocity": 40,
                "duration": 0.11590909090909074,
                "tempo": 120.0
            },
            {
                "start_time": 2.381818181818182,
                "end_time": 2.5,
                "pitch": 40,
                "velocity": 40,
                "duration": 0.11818181818181817,
                "tempo": 120.0
            },
            {
                "start_time": 2.5159090909090907,
                "end_time": 2.634090909090909,
                "pitch": 41,
                "velocity": 40,
                "duration": 0.11818181818181817,
                "tempo": 120.0
            },
            {
                "start_time": 2.65,
                "end_time": 2.7659090909090907,
                "pitch": 40,
                "velocity": 40,
                "duration": 0.11590909090909074,
                "tempo": 120.0
            },
            {
                "start_time": 2.784090909090909,
                "end_time": 2.9,
                "pitch": 45,
                "velocity": 40,
                "duration": 0.11590909090909074,
                "tempo": 120.0
            },
            {
                "start_time": 2.9159090909090906,
                "end_time": 3.0340909090909087,
                "pitch": 40,
                "velocity": 40,
                "duration": 0.11818181818181817,
                "tempo": 120.0
            },
            {
                "start_time": 3.05,
                "end_time": 3.168181818181818,
                "pitch": 41,
                "velocity": 40,
                "duration": 0.11818181818181817,
                "tempo": 120.0
            },
            {
                "start_time": 3.184090909090909,
                "end_time": 3.3,
                "pitch": 40,
                "velocity": 40,
                "duration": 0.11590909090909074,
                "tempo": 120.0
            },
            {
                "start_time": 3.318181818181818,
                "end_time": 3.436363636363636,
                "pitch": 45,
                "velocity": 40,
                "duration": 0.11818181818181817,
                "tempo": 120.0
            },
            {
                "start_time": 3.4545454545454546,
                "end_time": 3.5727272727272728,
                "pitch": 40,
                "velocity": 40,
                "duration": 0.11818181818181817,
                "tempo": 120.0
            },
            {
                "start_time": 3.590909090909091,
                "end_time": 3.709090909090909,
                "pitch": 41,
                "velocity": 40,
                "duration": 0.11818181818181817,
                "tempo": 120.0
            },
            {
                "start_time": 3.7249999999999996,
                "end_time": 3.8454545454545452,
                "pitch": 40,
                "velocity": 40,
                "duration": 0.12045454545454559,
                "tempo": 120.0
            },
            {
                "start_time": 3.8613636363636363,
                "end_time": 3.9795454545454545,
                "pitch": 45,
                "velocity": 40,
                "duration": 0.11818181818181817,
                "tempo": 120.0
            },
            {
                "start_time": 3.995454545454545,
                "end_time": 4.111363636363636,
                "pitch": 40,
                "velocity": 40,
                "duration": 0.11590909090909118,
                "tempo": 120.0
            },
            {
                "start_time": 4.129545454545454,
                "end_time": 4.245454545454545,
                "pitch": 41,
                "velocity": 40,
                "duration": 0.11590909090909118,
                "tempo": 120.0
            },
            {
                "start_time": 4.263636363636364,
                "end_time": 4.379545454545454,
                "pitch": 40,
                "velocity": 40,
                "duration": 0.1159090909090903,
                "tempo": 120.0
            },
            {
                "start_time": 4.3954545454545455,
                "end_time": 4.515909090909091,
                "pitch": 45,
                "velocity": 40,
                "duration": 0.12045454545454515,
                "tempo": 120.0
            },
            {
                "start_time": 4.531818181818181,
                "end_time": 4.6499999999999995,
                "pitch": 40,
                "velocity": 40,
                "duration": 0.11818181818181817,
                "tempo": 120.0
            },
            {
                "start_time": 4.668181818181818,
                "end_time": 4.786363636363636,
                "pitch": 41,
                "velocity": 40,
                "duration": 0.11818181818181817,
                "tempo": 120.0
            },
            {
                "start_time": 4.804545454545455,
                "end_time": 4.922727272727273,
                "pitch": 40,
                "velocity": 40,
                "duration": 0.11818181818181817,
                "tempo": 120.0
            },
            {
                "start_time": 4.9409090909090905,
                "end_time": 5.056818181818182,
                "pitch": 45,
                "velocity": 40,
                "duration": 0.11590909090909118,
                "tempo": 120.0
            },
            {
                "start_time": 5.072727272727272,
                "end_time": 5.1909090909090905,
                "pitch": 40,
                "velocity": 40,
                "duration": 0.11818181818181817,
                "tempo": 120.0
            },
            {
                "start_time": 5.206818181818181,
                "end_time": 5.325,
                "pitch": 41,
                "velocity": 40,
                "duration": 0.11818181818181905,
                "tempo": 120.0
            },
            {
                "start_time": 5.340909090909091,
                "end_time": 5.456818181818181,
                "pitch": 40,
                "velocity": 40,
                "duration": 0.1159090909090903,
                "tempo": 120.0
            },
            {
                "start_time": 5.475,
                "end_time": 5.590909090909091,
                "pitch": 45,
                "velocity": 40,
                "duration": 0.11590909090909118,
                "tempo": 120.0
            },
            {
                "start_time": 5.6090909090909085,
                "end_time": 5.725,
                "pitch": 40,
                "velocity": 40,
                "duration": 0.11590909090909118,
                "tempo": 120.0
            },
            {
                "start_time": 5.74090909090909,
                "end_time": 5.8590909090909085,
                "pitch": 41,
                "velocity": 40,
                "duration": 0.11818181818181817,
                "tempo": 120.0
            },
            {
                "start_time": 5.875,
                "end_time": 5.993181818181818,
                "pitch": 40,
                "velocity": 40,
                "duration": 0.11818181818181817,
                "tempo": 120.0
            },
            {
                "start_time": 6.009090909090909,
                "end_time": 6.125,
                "pitch": 45,
                "velocity": 40,
                "duration": 0.11590909090909118,
                "tempo": 120.0
            },
            {
                "start_time": 6.143181818181818,
                "end_time": 6.259090909090909,
                "pitch": 40,
                "velocity": 40,
                "duration": 0.11590909090909118,
                "tempo": 120.0
            },
            {
                "start_time": 6.2749999999999995,
                "end_time": 6.393181818181818,
                "pitch": 41,
                "velocity": 40,
                "duration": 0.11818181818181817,
                "tempo": 120.0
            },
            {
                "start_time": 6.409090909090909,
                "end_time": 6.527272727272727,
                "pitch": 40,
                "velocity": 40,
                "duration": 0.11818181818181817,
                "tempo": 120.0
            },
            {
                "start_time": 6.543181818181818,
                "end_time": 6.661363636363636,
                "pitch": 45,
                "velocity": 40,
                "duration": 0.11818181818181817,
                "tempo": 120.0
            },
            {
                "start_time": 6.679545454545454,
                "end_time": 6.797727272727273,
                "pitch": 40,
                "velocity": 40,
                "duration": 0.11818181818181905,
                "tempo": 120.0
            },
            {
                "start_time": 6.8159090909090905,
                "end_time": 6.934090909090909,
                "pitch": 41,
                "velocity": 40,
                "duration": 0.11818181818181817,
                "tempo": 120.0
            },
            {
                "start_time": 6.952272727272727,
                "end_time": 7.070454545454545,
                "pitch": 40,
                "velocity": 40,
                "duration": 0.11818181818181817,
                "tempo": 120.0
            },
            {
                "start_time": 7.086363636363636,
                "end_time": 7.204545454545454,
                "pitch": 45,
                "velocity": 40,
                "duration": 0.11818181818181817,
                "tempo": 120.0
            },
            {
                "start_time": 7.220454545454545,
                "end_time": 7.338636363636363,
                "pitch": 40,
                "velocity": 40,
                "duration": 0.11818181818181817,
                "tempo": 120.0
            },
            {
                "start_time": 7.3545454545454545,
                "end_time": 7.470454545454545,
                "pitch": 41,
                "velocity": 40,
                "duration": 0.1159090909090903,
                "tempo": 120.0
            },
            {
                "start_time": 7.488636363636363,
                "end_time": 7.6045454545454545,
                "pitch": 40,
                "velocity": 40,
                "duration": 0.11590909090909118,
                "tempo": 120.0
            },
            {
                "start_time": 7.620454545454545,
                "end_time": 7.74090909090909,
                "pitch": 45,
                "velocity": 40,
                "duration": 0.12045454545454515,
                "tempo": 120.0
            },
            {
                "start_time": 7.756818181818182,
                "end_time": 7.877272727272727,
                "pitch": 40,
                "velocity": 40,
                "duration": 0.12045454545454515,
                "tempo": 120.0
            },
            {
                "start_time": 7.893181818181818,
                "end_time": 8.013636363636364,
                "pitch": 41,
                "velocity": 40,
                "duration": 0.12045454545454604,
                "tempo": 120.0
            },
            {
                "start_time": 8.029545454545454,
                "end_time": 8.147727272727272,
                "pitch": 40,
                "velocity": 40,
                "duration": 0.11818181818181728,
                "tempo": 120.0
            },
            {
                "start_time": 8.165909090909091,
                "end_time": 8.281818181818181,
                "pitch": 45,
                "velocity": 40,
                "duration": 0.1159090909090903,
                "tempo": 120.0
            },
            {
                "start_time": 8.299999999999999,
                "end_time": 8.415909090909091,
                "pitch": 40,
                "velocity": 40,
                "duration": 0.11590909090909207,
                "tempo": 120.0
            },
            {
                "start_time": 8.431818181818182,
                "end_time": 8.549999999999999,
                "pitch": 41,
                "velocity": 40,
                "duration": 0.11818181818181728,
                "tempo": 120.0
            },
            {
                "start_time": 8.565909090909091,
                "end_time": 8.684090909090909,
                "pitch": 40,
                "velocity": 40,
                "duration": 0.11818181818181728,
                "tempo": 120.0
            },
            {
                "start_time": 8.7,
                "end_time": 8.818181818181818,
                "pitch": 45,
                "velocity": 40,
                "duration": 0.11818181818181905,
                "tempo": 120.0
            },
            {
                "start_time": 8.836363636363636,
                "end_time": 8.954545454545453,
                "pitch": 40,
                "velocity": 40,
                "duration": 0.11818181818181728,
                "tempo": 120.0
            },
            {
                "start_time": 8.972727272727273,
                "end_time": 9.09090909090909,
                "pitch": 41,
                "velocity": 40,
                "duration": 0.11818181818181728,
                "tempo": 120.0
            },
            {
                "start_time": 9.10681818181818,
                "end_time": 9.227272727272727,
                "pitch": 40,
                "velocity": 40,
                "duration": 0.12045454545454604,
                "tempo": 120.0
            },
            {
                "start_time": 9.243181818181817,
                "end_time": 9.35909090909091,
                "pitch": 45,
                "velocity": 40,
                "duration": 0.11590909090909207,
                "tempo": 120.0
            },
            {
                "start_time": 9.375,
                "end_time": 9.488636363636363,
                "pitch": 40,
                "velocity": 40,
                "duration": 0.11363636363636331,
                "tempo": 120.0
            },
            {
                "start_time": 9.506818181818181,
                "end_time": 9.620454545454544,
                "pitch": 41,
                "velocity": 40,
                "duration": 0.11363636363636331,
                "tempo": 120.0
            },
            {
                "start_time": 9.636363636363637,
                "end_time": 9.752272727272727,
                "pitch": 40,
                "velocity": 40,
                "duration": 0.1159090909090903,
                "tempo": 120.0
            },
            {
                "start_time": 9.768181818181818,
                "end_time": 9.888636363636364,
                "pitch": 45,
                "velocity": 40,
                "duration": 0.12045454545454604,
                "tempo": 120.0
            },
            {
                "start_time": 9.904545454545454,
                "end_time": 10.022727272727272,
                "pitch": 40,
                "velocity": 40,
                "duration": 0.11818181818181728,
                "tempo": 120.0
            },
            {
                "start_time": 10.040909090909091,
                "end_time": 10.159090909090908,
                "pitch": 41,
                "velocity": 40,
                "duration": 0.11818181818181728,
                "tempo": 120.0
            },
            {
                "start_time": 10.177272727272726,
                "end_time": 10.295454545454545,
                "pitch": 40,
                "velocity": 40,
                "duration": 0.11818181818181905,
                "tempo": 120.0
            },
            {
                "start_time": 10.313636363636363,
                "end_time": 10.429545454545455,
                "pitch": 45,
                "velocity": 40,
                "duration": 0.11590909090909207,
                "tempo": 120.0
            },
            {
                "start_time": 10.445454545454545,
                "end_time": 10.563636363636363,
                "pitch": 40,
                "velocity": 40,
                "duration": 0.11818181818181728,
                "tempo": 120.0
            },
            {
                "start_time": 10.579545454545453,
                "end_time": 10.697727272727272,
                "pitch": 41,
                "velocity": 40,
                "duration": 0.11818181818181905,
                "tempo": 120.0
            },
            {
                "start_time": 10.713636363636363,
                "end_time": 10.829545454545453,
                "pitch": 40,
                "velocity": 40,
                "duration": 0.1159090909090903,
                "tempo": 120.0
            },
            {
                "start_time": 10.847727272727273,
                "end_time": 10.96590909090909,
                "pitch": 45,
                "velocity": 40,
                "duration": 0.11818181818181728,
                "tempo": 120.0
            },
            {
                "start_time": 10.98181818181818,
                "end_time": 11.102272727272727,
                "pitch": 40,
                "velocity": 40,
                "duration": 0.12045454545454604,
                "tempo": 120.0
            },
            {
                "start_time": 11.118181818181817,
                "end_time": 11.238636363636363,
                "pitch": 41,
                "velocity": 40,
                "duration": 0.12045454545454604,
                "tempo": 120.0
            },
            {
                "start_time": 11.254545454545454,
                "end_time": 11.375,
                "pitch": 40,
                "velocity": 40,
                "duration": 0.12045454545454604,
                "tempo": 120.0
            },
            {
                "start_time": 11.39090909090909,
                "end_time": 11.506818181818181,
                "pitch": 45,
                "velocity": 40,
                "duration": 0.1159090909090903,
                "tempo": 120.0
            },
            {
                "start_time": 11.524999999999999,
                "end_time": 11.64090909090909,
                "pitch": 40,
                "velocity": 40,
                "duration": 0.11590909090909207,
                "tempo": 120.0
            },
            {
                "start_time": 11.659090909090908,
                "end_time": 11.774999999999999,
                "pitch": 41,
                "velocity": 40,
                "duration": 0.1159090909090903,
                "tempo": 120.0
            },
            {
                "start_time": 11.790909090909091,
                "end_time": 11.909090909090908,
                "pitch": 40,
                "velocity": 40,
                "duration": 0.11818181818181728,
                "tempo": 120.0
            },
            {
                "start_time": 11.924999999999999,
                "end_time": 12.043181818181818,
                "pitch": 45,
                "velocity": 40,
                "duration": 0.11818181818181905,
                "tempo": 120.0
            },
            {
                "start_time": 12.061363636363636,
                "end_time": 12.179545454545455,
                "pitch": 40,
                "velocity": 40,
                "duration": 0.11818181818181905,
                "tempo": 120.0
            },
            {
                "start_time": 12.197727272727272,
                "end_time": 12.31590909090909,
                "pitch": 41,
                "velocity": 40,
                "duration": 0.11818181818181728,
                "tempo": 120.0
            },
            {
                "start_time": 12.334090909090909,
                "end_time": 12.452272727272726,
                "pitch": 40,
                "velocity": 40,
                "duration": 0.11818181818181728,
                "tempo": 120.0
            },
            {
                "start_time": 12.468181818181817,
                "end_time": 12.586363636363636,
                "pitch": 45,
                "velocity": 40,
                "duration": 0.11818181818181905,
                "tempo": 120.0
            },
            {
                "start_time": 12.602272727272727,
                "end_time": 12.720454545454546,
                "pitch": 40,
                "velocity": 40,
                "duration": 0.11818181818181905,
                "tempo": 120.0
            },
            {
                "start_time": 12.736363636363636,
                "end_time": 12.852272727272727,
                "pitch": 41,
                "velocity": 40,
                "duration": 0.1159090909090903,
                "tempo": 120.0
            },
            {
                "start_time": 12.870454545454544,
                "end_time": 12.986363636363636,
                "pitch": 40,
                "velocity": 40,
                "duration": 0.11590909090909207,
                "tempo": 120.0
            },
            {
                "start_time": 13.004545454545454,
                "end_time": 13.120454545454544,
                "pitch": 45,
                "velocity": 40,
                "duration": 0.1159090909090903,
                "tempo": 120.0
            },
            {
                "start_time": 13.136363636363635,
                "end_time": 13.254545454545454,
                "pitch": 40,
                "velocity": 40,
                "duration": 0.11818181818181905,
                "tempo": 120.0
            },
            {
                "start_time": 13.270454545454545,
                "end_time": 13.388636363636364,
                "pitch": 41,
                "velocity": 40,
                "duration": 0.11818181818181905,
                "tempo": 120.0
            },
            {
                "start_time": 13.404545454545454,
                "end_time": 13.520454545454545,
                "pitch": 40,
                "velocity": 40,
                "duration": 0.1159090909090903,
                "tempo": 120.0
            },
            {
                "start_time": 13.538636363636362,
                "end_time": 13.654545454545454,
                "pitch": 45,
                "velocity": 40,
                "duration": 0.11590909090909207,
                "tempo": 120.0
            },
            {
                "start_time": 13.670454545454545,
                "end_time": 13.788636363636362,
                "pitch": 40,
                "velocity": 40,
                "duration": 0.11818181818181728,
                "tempo": 120.0
            },
            {
                "start_time": 13.804545454545455,
                "end_time": 13.922727272727272,
                "pitch": 41,
                "velocity": 40,
                "duration": 0.11818181818181728,
                "tempo": 120.0
            },
            {
                "start_time": 13.938636363636363,
                "end_time": 14.054545454545455,
                "pitch": 40,
                "velocity": 40,
                "duration": 0.11590909090909207,
                "tempo": 120.0
            },
            {
                "start_time": 14.072727272727272,
                "end_time": 14.19090909090909,
                "pitch": 45,
                "velocity": 40,
                "duration": 0.11818181818181728,
                "tempo": 120.0
            },
            {
                "start_time": 14.209090909090909,
                "end_time": 14.327272727272726,
                "pitch": 40,
                "velocity": 40,
                "duration": 0.11818181818181728,
                "tempo": 120.0
            },
            {
                "start_time": 14.345454545454544,
                "end_time": 14.463636363636363,
                "pitch": 41,
                "velocity": 40,
                "duration": 0.11818181818181905,
                "tempo": 120.0
            },
            {
                "start_time": 14.479545454545454,
                "end_time": 14.6,
                "pitch": 40,
                "velocity": 40,
                "duration": 0.12045454545454604,
                "tempo": 120.0
            },
            {
                "start_time": 14.61590909090909,
                "end_time": 14.734090909090908,
                "pitch": 45,
                "velocity": 40,
                "duration": 0.11818181818181728,
                "tempo": 120.0
            },
            {
                "start_time": 14.75,
                "end_time": 14.86590909090909,
                "pitch": 40,
                "velocity": 40,
                "duration": 0.1159090909090903,
                "tempo": 120.0
            },
            {
                "start_time": 14.884090909090908,
                "end_time": 15.0,
                "pitch": 41,
                "velocity": 40,
                "duration": 0.11590909090909207,
                "tempo": 120.0
            },
            {
                "start_time": 15.018181818181818,
                "end_time": 15.134090909090908,
                "pitch": 40,
                "velocity": 40,
                "duration": 0.1159090909090903,
                "tempo": 120.0
            },
            {
                "start_time": 15.149999999999999,
                "end_time": 15.268181818181818,
                "pitch": 45,
                "velocity": 40,
                "duration": 0.11818181818181905,
                "tempo": 120.0
            },
            {
                "start_time": 15.284090909090908,
                "end_time": 15.402272727272727,
                "pitch": 40,
                "velocity": 40,
                "duration": 0.11818181818181905,
                "tempo": 120.0
            },
            {
                "start_time": 15.418181818181818,
                "end_time": 15.534090909090908,
                "pitch": 41,
                "velocity": 40,
                "duration": 0.1159090909090903,
                "tempo": 120.0
            },
            {
                "start_time": 15.552272727272726,
                "end_time": 15.668181818181818,
                "pitch": 40,
                "velocity": 40,
                "duration": 0.11590909090909207,
                "tempo": 120.0
            },
            {
                "start_time": 15.684090909090909,
                "end_time": 15.802272727272726,
                "pitch": 45,
                "velocity": 40,
                "duration": 0.11818181818181728,
                "tempo": 120.0
            },
            {
                "start_time": 15.818181818181817,
                "end_time": 15.936363636363636,
                "pitch": 40,
                "velocity": 40,
                "duration": 0.11818181818181905,
                "tempo": 120.0
            },
            {
                "start_time": 15.952272727272726,
                "end_time": 16.068181818181817,
                "pitch": 41,
                "velocity": 40,
                "duration": 0.1159090909090903,
                "tempo": 120.0
            },
            {
                "start_time": 16.086363636363636,
                "end_time": 16.202272727272728,
                "pitch": 40,
                "velocity": 40,
                "duration": 0.11590909090909207,
                "tempo": 120.0
            },
            {
                "start_time": 16.220454545454544,
                "end_time": 16.33863636363636,
                "pitch": 45,
                "velocity": 40,
                "duration": 0.11818181818181728,
                "tempo": 120.0
            },
            {
                "start_time": 16.354545454545455,
                "end_time": 16.474999999999998,
                "pitch": 40,
                "velocity": 40,
                "duration": 0.12045454545454248,
                "tempo": 120.0
            },
            {
                "start_time": 16.49090909090909,
                "end_time": 16.611363636363635,
                "pitch": 41,
                "velocity": 40,
                "duration": 0.12045454545454604,
                "tempo": 120.0
            },
            {
                "start_time": 16.627272727272725,
                "end_time": 16.745454545454546,
                "pitch": 40,
                "velocity": 40,
                "duration": 0.11818181818182083,
                "tempo": 120.0
            },
            {
                "start_time": 16.763636363636362,
                "end_time": 16.879545454545454,
                "pitch": 45,
                "velocity": 40,
                "duration": 0.11590909090909207,
                "tempo": 120.0
            },
            {
                "start_time": 16.897727272727273,
                "end_time": 17.013636363636362,
                "pitch": 40,
                "velocity": 40,
                "duration": 0.11590909090908852,
                "tempo": 120.0
            },
            {
                "start_time": 17.029545454545453,
                "end_time": 17.147727272727273,
                "pitch": 41,
                "velocity": 40,
                "duration": 0.11818181818182083,
                "tempo": 120.0
            },
            {
                "start_time": 17.163636363636364,
                "end_time": 17.263636363636362,
                "pitch": 42,
                "velocity": 40,
                "duration": 0.09999999999999787,
                "tempo": 120.0
            },
            {
                "start_time": 17.28181818181818,
                "end_time": 17.379545454545454,
                "pitch": 47,
                "velocity": 40,
                "duration": 0.09772727272727266,
                "tempo": 120.0
            },
            {
                "start_time": 17.395454545454545,
                "end_time": 17.495454545454546,
                "pitch": 42,
                "velocity": 40,
                "duration": 0.10000000000000142,
                "tempo": 120.0
            },
            {
                "start_time": 17.511363636363637,
                "end_time": 17.60909090909091,
                "pitch": 43,
                "velocity": 40,
                "duration": 0.09772727272727266,
                "tempo": 120.0
            },
            {
                "start_time": 17.625,
                "end_time": 17.724999999999998,
                "pitch": 42,
                "velocity": 40,
                "duration": 0.09999999999999787,
                "tempo": 120.0
            },
            {
                "start_time": 17.738636363636363,
                "end_time": 17.827272727272728,
                "pitch": 47,
                "velocity": 40,
                "duration": 0.08863636363636473,
                "tempo": 120.0
            },
            {
                "start_time": 17.84090909090909,
                "end_time": 17.927272727272726,
                "pitch": 42,
                "velocity": 40,
                "duration": 0.08636363636363598,
                "tempo": 120.0
            },
            {
                "start_time": 17.943181818181817,
                "end_time": 18.029545454545453,
                "pitch": 43,
                "velocity": 40,
                "duration": 0.08636363636363598,
                "tempo": 120.0
            },
            {
                "start_time": 18.043181818181818,
                "end_time": 18.13181818181818,
                "pitch": 42,
                "velocity": 40,
                "duration": 0.08863636363636118,
                "tempo": 120.0
            },
            {
                "start_time": 18.145454545454545,
                "end_time": 18.236363636363635,
                "pitch": 47,
                "velocity": 40,
                "duration": 0.09090909090908994,
                "tempo": 120.0
            },
            {
                "start_time": 18.252272727272725,
                "end_time": 18.34318181818182,
                "pitch": 42,
                "velocity": 40,
                "duration": 0.09090909090909349,
                "tempo": 120.0
            },
            {
                "start_time": 18.35909090909091,
                "end_time": 18.45,
                "pitch": 43,
                "velocity": 40,
                "duration": 0.09090909090908994,
                "tempo": 120.0
            },
            {
                "start_time": 18.46590909090909,
                "end_time": 18.55681818181818,
                "pitch": 42,
                "velocity": 40,
                "duration": 0.09090909090908994,
                "tempo": 120.0
            },
            {
                "start_time": 18.570454545454545,
                "end_time": 18.659090909090907,
                "pitch": 47,
                "velocity": 40,
                "duration": 0.08863636363636118,
                "tempo": 120.0
            },
            {
                "start_time": 18.672727272727272,
                "end_time": 18.761363636363637,
                "pitch": 42,
                "velocity": 40,
                "duration": 0.08863636363636473,
                "tempo": 120.0
            },
            {
                "start_time": 18.775,
                "end_time": 18.861363636363635,
                "pitch": 43,
                "velocity": 40,
                "duration": 0.08636363636363598,
                "tempo": 120.0
            },
            {
                "start_time": 18.877272727272725,
                "end_time": 18.96363636363636,
                "pitch": 42,
                "velocity": 40,
                "duration": 0.08636363636363598,
                "tempo": 120.0
            },
            {
                "start_time": 18.977272727272727,
                "end_time": 19.068181818181817,
                "pitch": 47,
                "velocity": 40,
                "duration": 0.09090909090908994,
                "tempo": 120.0
            },
            {
                "start_time": 19.081818181818182,
                "end_time": 19.170454545454543,
                "pitch": 42,
                "velocity": 40,
                "duration": 0.08863636363636118,
                "tempo": 120.0
            },
            {
                "start_time": 19.186363636363634,
                "end_time": 19.275,
                "pitch": 43,
                "velocity": 40,
                "duration": 0.08863636363636473,
                "tempo": 120.0
            },
            {
                "start_time": 19.29090909090909,
                "end_time": 19.379545454545454,
                "pitch": 42,
                "velocity": 40,
                "duration": 0.08863636363636473,
                "tempo": 120.0
            },
            {
                "start_time": 19.393181818181816,
                "end_time": 19.48181818181818,
                "pitch": 47,
                "velocity": 40,
                "duration": 0.08863636363636473,
                "tempo": 120.0
            },
            {
                "start_time": 19.495454545454546,
                "end_time": 19.581818181818182,
                "pitch": 42,
                "velocity": 40,
                "duration": 0.08636363636363598,
                "tempo": 120.0
            },
            {
                "start_time": 19.597727272727273,
                "end_time": 19.68409090909091,
                "pitch": 43,
                "velocity": 40,
                "duration": 0.08636363636363598,
                "tempo": 120.0
            },
            {
                "start_time": 19.69772727272727,
                "end_time": 19.786363636363635,
                "pitch": 42,
                "velocity": 40,
                "duration": 0.08863636363636473,
                "tempo": 120.0
            },
            {
                "start_time": 19.8,
                "end_time": 19.888636363636362,
                "pitch": 47,
                "velocity": 40,
                "duration": 0.08863636363636118,
                "tempo": 120.0
            },
            {
                "start_time": 19.904545454545453,
                "end_time": 19.993181818181817,
                "pitch": 42,
                "velocity": 40,
                "duration": 0.08863636363636473,
                "tempo": 120.0
            },
            {
                "start_time": 20.009090909090908,
                "end_time": 20.097727272727273,
                "pitch": 43,
                "velocity": 40,
                "duration": 0.08863636363636473,
                "tempo": 120.0
            },
            {
                "start_time": 20.111363636363635,
                "end_time": 20.202272727272728,
                "pitch": 42,
                "velocity": 40,
                "duration": 0.09090909090909349,
                "tempo": 120.0
            },
            {
                "start_time": 20.21590909090909,
                "end_time": 20.304545454545455,
                "pitch": 47,
                "velocity": 40,
                "duration": 0.08863636363636473,
                "tempo": 120.0
            },
            {
                "start_time": 20.320454545454545,
                "end_time": 20.409090909090907,
                "pitch": 42,
                "velocity": 40,
                "duration": 0.08863636363636118,
                "tempo": 120.0
            },
            {
                "start_time": 20.425,
                "end_time": 20.513636363636362,
                "pitch": 43,
                "velocity": 40,
                "duration": 0.08863636363636118,
                "tempo": 120.0
            },
            {
                "start_time": 20.529545454545453,
                "end_time": 20.618181818181817,
                "pitch": 42,
                "velocity": 40,
                "duration": 0.08863636363636473,
                "tempo": 120.0
            },
            {
                "start_time": 20.63181818181818,
                "end_time": 20.722727272727273,
                "pitch": 47,
                "velocity": 40,
                "duration": 0.09090909090909349,
                "tempo": 120.0
            },
            {
                "start_time": 20.736363636363635,
                "end_time": 20.825,
                "pitch": 42,
                "velocity": 40,
                "duration": 0.08863636363636473,
                "tempo": 120.0
            },
            {
                "start_time": 20.84090909090909,
                "end_time": 20.929545454545455,
                "pitch": 43,
                "velocity": 40,
                "duration": 0.08863636363636473,
                "tempo": 120.0
            },
            {
                "start_time": 20.945454545454545,
                "end_time": 21.034090909090907,
                "pitch": 42,
                "velocity": 40,
                "duration": 0.08863636363636118,
                "tempo": 120.0
            },
            {
                "start_time": 21.047727272727272,
                "end_time": 21.136363636363637,
                "pitch": 47,
                "velocity": 40,
                "duration": 0.08863636363636473,
                "tempo": 120.0
            },
            {
                "start_time": 21.15,
                "end_time": 21.236363636363635,
                "pitch": 42,
                "velocity": 40,
                "duration": 0.08636363636363598,
                "tempo": 120.0
            },
            {
                "start_time": 21.252272727272725,
                "end_time": 21.33863636363636,
                "pitch": 43,
                "velocity": 40,
                "duration": 0.08636363636363598,
                "tempo": 120.0
            },
            {
                "start_time": 21.352272727272727,
                "end_time": 21.44090909090909,
                "pitch": 42,
                "velocity": 40,
                "duration": 0.08863636363636473,
                "tempo": 120.0
            },
            {
                "start_time": 21.454545454545453,
                "end_time": 21.543181818181818,
                "pitch": 47,
                "velocity": 40,
                "duration": 0.08863636363636473,
                "tempo": 120.0
            },
            {
                "start_time": 21.55909090909091,
                "end_time": 21.647727272727273,
                "pitch": 42,
                "velocity": 40,
                "duration": 0.08863636363636473,
                "tempo": 120.0
            },
            {
                "start_time": 21.663636363636364,
                "end_time": 21.752272727272725,
                "pitch": 43,
                "velocity": 40,
                "duration": 0.08863636363636118,
                "tempo": 120.0
            },
            {
                "start_time": 21.76590909090909,
                "end_time": 21.85681818181818,
                "pitch": 42,
                "velocity": 40,
                "duration": 0.09090909090908994,
                "tempo": 120.0
            },
            {
                "start_time": 21.870454545454546,
                "end_time": 21.959090909090907,
                "pitch": 47,
                "velocity": 40,
                "duration": 0.08863636363636118,
                "tempo": 120.0
            },
            {
                "start_time": 21.974999999999998,
                "end_time": 22.063636363636363,
                "pitch": 42,
                "velocity": 40,
                "duration": 0.08863636363636473,
                "tempo": 120.0
            },
            {
                "start_time": 22.079545454545453,
                "end_time": 22.168181818181818,
                "pitch": 43,
                "velocity": 40,
                "duration": 0.08863636363636473,
                "tempo": 120.0
            },
            {
                "start_time": 22.18409090909091,
                "end_time": 22.272727272727273,
                "pitch": 42,
                "velocity": 40,
                "duration": 0.08863636363636473,
                "tempo": 120.0
            },
            {
                "start_time": 22.286363636363635,
                "end_time": 22.375,
                "pitch": 47,
                "velocity": 40,
                "duration": 0.08863636363636473,
                "tempo": 120.0
            },
            {
                "start_time": 22.388636363636362,
                "end_time": 22.474999999999998,
                "pitch": 42,
                "velocity": 40,
                "duration": 0.08636363636363598,
                "tempo": 120.0
            },
            {
                "start_time": 22.49090909090909,
                "end_time": 22.577272727272724,
                "pitch": 43,
                "velocity": 40,
                "duration": 0.08636363636363598,
                "tempo": 120.0
            },
            {
                "start_time": 22.59090909090909,
                "end_time": 22.679545454545455,
                "pitch": 42,
                "velocity": 40,
                "duration": 0.08863636363636473,
                "tempo": 120.0
            },
            {
                "start_time": 22.693181818181817,
                "end_time": 22.78181818181818,
                "pitch": 47,
                "velocity": 40,
                "duration": 0.08863636363636473,
                "tempo": 120.0
            },
            {
                "start_time": 22.797727272727272,
                "end_time": 22.886363636363637,
                "pitch": 42,
                "velocity": 40,
                "duration": 0.08863636363636473,
                "tempo": 120.0
            },
            {
                "start_time": 22.902272727272727,
                "end_time": 22.99090909090909,
                "pitch": 43,
                "velocity": 40,
                "duration": 0.08863636363636118,
                "tempo": 120.0
            },
            {
                "start_time": 23.004545454545454,
                "end_time": 23.095454545454544,
                "pitch": 42,
                "velocity": 40,
                "duration": 0.09090909090908994,
                "tempo": 120.0
            },
            {
                "start_time": 23.10909090909091,
                "end_time": 23.19772727272727,
                "pitch": 47,
                "velocity": 40,
                "duration": 0.08863636363636118,
                "tempo": 120.0
            },
            {
                "start_time": 23.21363636363636,
                "end_time": 23.302272727272726,
                "pitch": 42,
                "velocity": 40,
                "duration": 0.08863636363636473,
                "tempo": 120.0
            },
            {
                "start_time": 23.318181818181817,
                "end_time": 23.40681818181818,
                "pitch": 43,
                "velocity": 40,
                "duration": 0.08863636363636473,
                "tempo": 120.0
            },
            {
                "start_time": 23.420454545454543,
                "end_time": 23.511363636363637,
                "pitch": 42,
                "velocity": 40,
                "duration": 0.09090909090909349,
                "tempo": 120.0
            },
            {
                "start_time": 23.525,
                "end_time": 23.611363636363635,
                "pitch": 47,
                "velocity": 40,
                "duration": 0.08636363636363598,
                "tempo": 120.0
            },
            {
                "start_time": 23.627272727272725,
                "end_time": 23.71363636363636,
                "pitch": 42,
                "velocity": 40,
                "duration": 0.08636363636363598,
                "tempo": 120.0
            },
            {
                "start_time": 23.729545454545452,
                "end_time": 23.81590909090909,
                "pitch": 43,
                "velocity": 40,
                "duration": 0.08636363636363953,
                "tempo": 120.0
            },
            {
                "start_time": 23.829545454545453,
                "end_time": 36.46818181818182,
                "pitch": 52,
                "velocity": 40,
                "duration": 12.638636363636365,
                "tempo": 120.0
            },
            {
                "start_time": 36.486363636363635,
                "end_time": 36.6,
                "pitch": 45,
                "velocity": 40,
                "duration": 0.11363636363636687,
                "tempo": 120.0
            },
            {
                "start_time": 36.61590909090909,
                "end_time": 36.73181818181818,
                "pitch": 40,
                "velocity": 40,
                "duration": 0.11590909090908497,
                "tempo": 120.0
            },
            {
                "start_time": 36.74772727272727,
                "end_time": 36.86363636363636,
                "pitch": 41,
                "velocity": 40,
                "duration": 0.11590909090909207,
                "tempo": 120.0
            },
            {
                "start_time": 36.87954545454545,
                "end_time": 36.99318181818182,
                "pitch": 40,
                "velocity": 40,
                "duration": 0.11363636363636687,
                "tempo": 120.0
            },
            {
                "start_time": 37.01136363636363,
                "end_time": 37.127272727272725,
                "pitch": 45,
                "velocity": 40,
                "duration": 0.11590909090909207,
                "tempo": 120.0
            },
            {
                "start_time": 37.143181818181816,
                "end_time": 37.26136363636363,
                "pitch": 40,
                "velocity": 40,
                "duration": 0.11818181818181728,
                "tempo": 120.0
            },
            {
                "start_time": 37.277272727272724,
                "end_time": 37.39545454545454,
                "pitch": 41,
                "velocity": 40,
                "duration": 0.11818181818181728,
                "tempo": 120.0
            },
            {
                "start_time": 37.41136363636363,
                "end_time": 37.527272727272724,
                "pitch": 40,
                "velocity": 40,
                "duration": 0.11590909090909207,
                "tempo": 120.0
            },
            {
                "start_time": 37.54545454545455,
                "end_time": 37.663636363636364,
                "pitch": 45,
                "velocity": 40,
                "duration": 0.11818181818181728,
                "tempo": 120.0
            },
            {
                "start_time": 37.68181818181818,
                "end_time": 37.8,
                "pitch": 40,
                "velocity": 40,
                "duration": 0.11818181818181728,
                "tempo": 120.0
            },
            {
                "start_time": 37.81590909090909,
                "end_time": 37.93636363636364,
                "pitch": 41,
                "velocity": 40,
                "duration": 0.12045454545454959,
                "tempo": 120.0
            },
            {
                "start_time": 37.95227272727273,
                "end_time": 38.07272727272727,
                "pitch": 40,
                "velocity": 40,
                "duration": 0.12045454545454248,
                "tempo": 120.0
            },
            {
                "start_time": 38.08863636363636,
                "end_time": 38.20227272727273,
                "pitch": 45,
                "velocity": 40,
                "duration": 0.11363636363636687,
                "tempo": 120.0
            },
            {
                "start_time": 38.220454545454544,
                "end_time": 38.33409090909091,
                "pitch": 40,
                "velocity": 40,
                "duration": 0.11363636363636687,
                "tempo": 120.0
            },
            {
                "start_time": 38.35,
                "end_time": 38.465909090909086,
                "pitch": 41,
                "velocity": 40,
                "duration": 0.11590909090908497,
                "tempo": 120.0
            },
            {
                "start_time": 38.48181818181818,
                "end_time": 38.59772727272727,
                "pitch": 40,
                "velocity": 40,
                "duration": 0.11590909090909207,
                "tempo": 120.0
            },
            {
                "start_time": 38.61363636363636,
                "end_time": 38.73181818181818,
                "pitch": 45,
                "velocity": 40,
                "duration": 0.11818181818181728,
                "tempo": 120.0
            },
            {
                "start_time": 38.75,
                "end_time": 38.86818181818182,
                "pitch": 40,
                "velocity": 40,
                "duration": 0.11818181818181728,
                "tempo": 120.0
            },
            {
                "start_time": 38.88636363636363,
                "end_time": 39.00454545454545,
                "pitch": 41,
                "velocity": 40,
                "duration": 0.11818181818181728,
                "tempo": 120.0
            },
            {
                "start_time": 39.02272727272727,
                "end_time": 39.14090909090909,
                "pitch": 40,
                "velocity": 40,
                "duration": 0.11818181818181728,
                "tempo": 120.0
            },
            {
                "start_time": 39.15681818181818,
                "end_time": 39.275,
                "pitch": 45,
                "velocity": 40,
                "duration": 0.11818181818181728,
                "tempo": 120.0
            },
            {
                "start_time": 39.29090909090909,
                "end_time": 39.40909090909091,
                "pitch": 40,
                "velocity": 40,
                "duration": 0.11818181818181728,
                "tempo": 120.0
            },
            {
                "start_time": 39.425,
                "end_time": 39.54090909090909,
                "pitch": 41,
                "velocity": 40,
                "duration": 0.11590909090909207,
                "tempo": 120.0
            },
            {
                "start_time": 39.559090909090905,
                "end_time": 39.675,
                "pitch": 40,
                "velocity": 40,
                "duration": 0.11590909090909207,
                "tempo": 120.0
            },
            {
                "start_time": 39.69318181818181,
                "end_time": 39.81136363636364,
                "pitch": 45,
                "velocity": 40,
                "duration": 0.11818181818182438,
                "tempo": 120.0
            },
            {
                "start_time": 39.82727272727273,
                "end_time": 39.94772727272727,
                "pitch": 40,
                "velocity": 40,
                "duration": 0.12045454545454248,
                "tempo": 120.0
            },
            {
                "start_time": 39.96363636363636,
                "end_time": 40.084090909090904,
                "pitch": 41,
                "velocity": 40,
                "duration": 0.12045454545454248,
                "tempo": 120.0
            },
            {
                "start_time": 40.1,
                "end_time": 40.21818181818182,
                "pitch": 40,
                "velocity": 40,
                "duration": 0.11818181818181728,
                "tempo": 120.0
            },
            {
                "start_time": 40.236363636363635,
                "end_time": 40.35227272727273,
                "pitch": 45,
                "velocity": 40,
                "duration": 0.11590909090909207,
                "tempo": 120.0
            },
            {
                "start_time": 40.37045454545454,
                "end_time": 40.486363636363635,
                "pitch": 40,
                "velocity": 40,
                "duration": 0.11590909090909207,
                "tempo": 120.0
            },
            {
                "start_time": 40.502272727272725,
                "end_time": 40.62045454545454,
                "pitch": 41,
                "velocity": 40,
                "duration": 0.11818181818181728,
                "tempo": 120.0
            },
            {
                "start_time": 40.63636363636363,
                "end_time": 40.75454545454545,
                "pitch": 40,
                "velocity": 40,
                "duration": 0.11818181818181728,
                "tempo": 120.0
            },
            {
                "start_time": 40.77045454545454,
                "end_time": 40.88863636363636,
                "pitch": 45,
                "velocity": 40,
                "duration": 0.11818181818181728,
                "tempo": 120.0
            },
            {
                "start_time": 40.90681818181818,
                "end_time": 41.025,
                "pitch": 40,
                "velocity": 40,
                "duration": 0.11818181818181728,
                "tempo": 120.0
            },
            {
                "start_time": 41.043181818181814,
                "end_time": 41.16136363636363,
                "pitch": 41,
                "velocity": 40,
                "duration": 0.11818181818181728,
                "tempo": 120.0
            },
            {
                "start_time": 41.17727272727272,
                "end_time": 41.29772727272727,
                "pitch": 40,
                "velocity": 40,
                "duration": 0.12045454545454959,
                "tempo": 120.0
            },
            {
                "start_time": 41.31363636363636,
                "end_time": 41.43181818181818,
                "pitch": 45,
                "velocity": 40,
                "duration": 0.11818181818181728,
                "tempo": 120.0
            },
            {
                "start_time": 41.44772727272727,
                "end_time": 41.56590909090909,
                "pitch": 40,
                "velocity": 40,
                "duration": 0.11818181818181728,
                "tempo": 120.0
            },
            {
                "start_time": 41.58181818181818,
                "end_time": 41.69772727272727,
                "pitch": 41,
                "velocity": 40,
                "duration": 0.11590909090909207,
                "tempo": 120.0
            },
            {
                "start_time": 41.715909090909086,
                "end_time": 41.83181818181818,
                "pitch": 40,
                "velocity": 40,
                "duration": 0.11590909090909207,
                "tempo": 120.0
            },
            {
                "start_time": 41.84772727272727,
                "end_time": 41.965909090909086,
                "pitch": 45,
                "velocity": 40,
                "duration": 0.11818181818181728,
                "tempo": 120.0
            },
            {
                "start_time": 41.98181818181818,
                "end_time": 42.1,
                "pitch": 40,
                "velocity": 40,
                "duration": 0.11818181818182438,
                "tempo": 120.0
            },
            {
                "start_time": 42.11590909090909,
                "end_time": 42.23181818181818,
                "pitch": 41,
                "velocity": 40,
                "duration": 0.11590909090908497,
                "tempo": 120.0
            },
            {
                "start_time": 42.25,
                "end_time": 42.36590909090909,
                "pitch": 40,
                "velocity": 40,
                "duration": 0.11590909090909207,
                "tempo": 120.0
            },
            {
                "start_time": 42.38409090909091,
                "end_time": 42.5,
                "pitch": 45,
                "velocity": 40,
                "duration": 0.11590909090909207,
                "tempo": 120.0
            },
            {
                "start_time": 42.51590909090909,
                "end_time": 42.63409090909091,
                "pitch": 40,
                "velocity": 40,
                "duration": 0.11818181818181728,
                "tempo": 120.0
            },
            {
                "start_time": 42.65,
                "end_time": 42.768181818181816,
                "pitch": 41,
                "velocity": 40,
                "duration": 0.11818181818181728,
                "tempo": 120.0
            },
            {
                "start_time": 42.78409090909091,
                "end_time": 42.9,
                "pitch": 40,
                "velocity": 40,
                "duration": 0.11590909090909207,
                "tempo": 120.0
            },
            {
                "start_time": 42.918181818181814,
                "end_time": 43.03636363636363,
                "pitch": 45,
                "velocity": 40,
                "duration": 0.11818181818181728,
                "tempo": 120.0
            },
            {
                "start_time": 43.054545454545455,
                "end_time": 43.17272727272727,
                "pitch": 40,
                "velocity": 40,
                "duration": 0.11818181818181728,
                "tempo": 120.0
            },
            {
                "start_time": 43.18863636363636,
                "end_time": 43.309090909090905,
                "pitch": 41,
                "velocity": 40,
                "duration": 0.12045454545454248,
                "tempo": 120.0
            },
            {
                "start_time": 43.324999999999996,
                "end_time": 43.445454545454545,
                "pitch": 40,
                "velocity": 40,
                "duration": 0.12045454545454959,
                "tempo": 120.0
            },
            {
                "start_time": 43.461363636363636,
                "end_time": 43.57727272727273,
                "pitch": 45,
                "velocity": 40,
                "duration": 0.11590909090909207,
                "tempo": 120.0
            },
            {
                "start_time": 43.595454545454544,
                "end_time": 43.711363636363636,
                "pitch": 40,
                "velocity": 40,
                "duration": 0.11590909090909207,
                "tempo": 120.0
            },
            {
                "start_time": 43.72954545454545,
                "end_time": 43.845454545454544,
                "pitch": 41,
                "velocity": 40,
                "duration": 0.11590909090909207,
                "tempo": 120.0
            },
            {
                "start_time": 43.861363636363635,
                "end_time": 43.97954545454545,
                "pitch": 40,
                "velocity": 40,
                "duration": 0.11818181818181728,
                "tempo": 120.0
            },
            {
                "start_time": 43.99545454545454,
                "end_time": 44.11590909090909,
                "pitch": 45,
                "velocity": 40,
                "duration": 0.12045454545454959,
                "tempo": 120.0
            },
            {
                "start_time": 44.13181818181818,
                "end_time": 44.25,
                "pitch": 40,
                "velocity": 40,
                "duration": 0.11818181818181728,
                "tempo": 120.0
            },
            {
                "start_time": 44.268181818181816,
                "end_time": 44.38636363636363,
                "pitch": 41,
                "velocity": 40,
                "duration": 0.11818181818181728,
                "tempo": 120.0
            },
            {
                "start_time": 44.40454545454545,
                "end_time": 44.52272727272727,
                "pitch": 40,
                "velocity": 40,
                "duration": 0.11818181818182438,
                "tempo": 120.0
            },
            {
                "start_time": 44.538636363636364,
                "end_time": 44.65681818181818,
                "pitch": 45,
                "velocity": 40,
                "duration": 0.11818181818181728,
                "tempo": 120.0
            },
            {
                "start_time": 44.67272727272727,
                "end_time": 44.79090909090909,
                "pitch": 40,
                "velocity": 40,
                "duration": 0.11818181818181728,
                "tempo": 120.0
            },
            {
                "start_time": 44.80681818181818,
                "end_time": 44.92272727272727,
                "pitch": 41,
                "velocity": 40,
                "duration": 0.11590909090909207,
                "tempo": 120.0
            },
            {
                "start_time": 44.94090909090909,
                "end_time": 45.05681818181818,
                "pitch": 40,
                "velocity": 40,
                "duration": 0.11590909090909207,
                "tempo": 120.0
            },
            {
                "start_time": 45.074999999999996,
                "end_time": 45.19318181818181,
                "pitch": 45,
                "velocity": 40,
                "duration": 0.11818181818181728,
                "tempo": 120.0
            },
            {
                "start_time": 45.209090909090904,
                "end_time": 45.32954545454545,
                "pitch": 40,
                "velocity": 40,
                "duration": 0.12045454545454959,
                "tempo": 120.0
            },
            {
                "start_time": 45.345454545454544,
                "end_time": 45.465909090909086,
                "pitch": 41,
                "velocity": 40,
                "duration": 0.12045454545454248,
                "tempo": 120.0
            },
            {
                "start_time": 45.48181818181818,
                "end_time": 45.599999999999994,
                "pitch": 40,
                "velocity": 40,
                "duration": 0.11818181818181728,
                "tempo": 120.0
            },
            {
                "start_time": 45.61818181818182,
                "end_time": 45.73181818181818,
                "pitch": 45,
                "velocity": 40,
                "duration": 0.11363636363635976,
                "tempo": 120.0
            },
            {
                "start_time": 45.75,
                "end_time": 45.86363636363636,
                "pitch": 40,
                "velocity": 40,
                "duration": 0.11363636363635976,
                "tempo": 120.0
            },
            {
                "start_time": 45.87954545454545,
                "end_time": 45.99545454545454,
                "pitch": 41,
                "velocity": 40,
                "duration": 0.11590909090909207,
                "tempo": 120.0
            },
            {
                "start_time": 46.01136363636363,
                "end_time": 46.127272727272725,
                "pitch": 40,
                "velocity": 40,
                "duration": 0.11590909090909207,
                "tempo": 120.0
            },
            {
                "start_time": 46.143181818181816,
                "end_time": 46.26136363636363,
                "pitch": 45,
                "velocity": 40,
                "duration": 0.11818181818181728,
                "tempo": 120.0
            },
            {
                "start_time": 46.27954545454545,
                "end_time": 46.39772727272727,
                "pitch": 40,
                "velocity": 40,
                "duration": 0.11818181818182438,
                "tempo": 120.0
            },
            {
                "start_time": 46.41590909090909,
                "end_time": 46.53409090909091,
                "pitch": 41,
                "velocity": 40,
                "duration": 0.11818181818181728,
                "tempo": 120.0
            },
            {
                "start_time": 46.55,
                "end_time": 46.67045454545454,
                "pitch": 40,
                "velocity": 40,
                "duration": 0.12045454545454248,
                "tempo": 120.0
            },
            {
                "start_time": 46.68636363636364,
                "end_time": 46.804545454545455,
                "pitch": 45,
                "velocity": 40,
                "duration": 0.11818181818181728,
                "tempo": 120.0
            },
            {
                "start_time": 46.820454545454545,
                "end_time": 46.93636363636364,
                "pitch": 40,
                "velocity": 40,
                "duration": 0.11590909090909207,
                "tempo": 120.0
            },
            {
                "start_time": 46.95454545454545,
                "end_time": 47.070454545454545,
                "pitch": 41,
                "velocity": 40,
                "duration": 0.11590909090909207,
                "tempo": 120.0
            },
            {
                "start_time": 47.08863636363636,
                "end_time": 47.20454545454545,
                "pitch": 40,
                "velocity": 40,
                "duration": 0.11590909090909207,
                "tempo": 120.0
            },
            {
                "start_time": 47.220454545454544,
                "end_time": 47.340909090909086,
                "pitch": 45,
                "velocity": 40,
                "duration": 0.12045454545454248,
                "tempo": 120.0
            },
            {
                "start_time": 47.35681818181818,
                "end_time": 47.47727272727273,
                "pitch": 40,
                "velocity": 40,
                "duration": 0.12045454545454959,
                "tempo": 120.0
            },
            {
                "start_time": 47.49318181818182,
                "end_time": 47.611363636363635,
                "pitch": 41,
                "velocity": 40,
                "duration": 0.11818181818181728,
                "tempo": 120.0
            },
            {
                "start_time": 47.62954545454545,
                "end_time": 47.74772727272727,
                "pitch": 40,
                "velocity": 40,
                "duration": 0.11818181818181728,
                "tempo": 120.0
            },
            {
                "start_time": 47.76590909090909,
                "end_time": 47.88181818181818,
                "pitch": 45,
                "velocity": 40,
                "duration": 0.11590909090909207,
                "tempo": 120.0
            },
            {
                "start_time": 47.89772727272727,
                "end_time": 48.01590909090909,
                "pitch": 40,
                "velocity": 40,
                "duration": 0.11818181818181728,
                "tempo": 120.0
            },
            {
                "start_time": 48.03181818181818,
                "end_time": 48.15,
                "pitch": 41,
                "velocity": 40,
                "duration": 0.11818181818181728,
                "tempo": 120.0
            },
            {
                "start_time": 48.16590909090909,
                "end_time": 48.28181818181818,
                "pitch": 40,
                "velocity": 40,
                "duration": 0.11590909090909207,
                "tempo": 120.0
            },
            {
                "start_time": 48.3,
                "end_time": 48.41590909090909,
                "pitch": 45,
                "velocity": 40,
                "duration": 0.11590909090909207,
                "tempo": 120.0
            },
            {
                "start_time": 48.434090909090905,
                "end_time": 48.55,
                "pitch": 40,
                "velocity": 40,
                "duration": 0.11590909090909207,
                "tempo": 120.0
            },
            {
                "start_time": 48.56590909090909,
                "end_time": 48.684090909090905,
                "pitch": 41,
                "velocity": 40,
                "duration": 0.11818181818181728,
                "tempo": 120.0
            },
            {
                "start_time": 48.699999999999996,
                "end_time": 48.81818181818181,
                "pitch": 40,
                "velocity": 40,
                "duration": 0.11818181818181728,
                "tempo": 120.0
            },
            {
                "start_time": 48.834090909090904,
                "end_time": 48.95227272727273,
                "pitch": 45,
                "velocity": 40,
                "duration": 0.11818181818182438,
                "tempo": 120.0
            },
            {
                "start_time": 48.970454545454544,
                "end_time": 49.08863636363636,
                "pitch": 40,
                "velocity": 40,
                "duration": 0.11818181818181728,
                "tempo": 120.0
            },
            {
                "start_time": 49.10681818181818,
                "end_time": 49.224999999999994,
                "pitch": 41,
                "velocity": 40,
                "duration": 0.11818181818181728,
                "tempo": 120.0
            },
            {
                "start_time": 49.240909090909085,
                "end_time": 49.361363636363635,
                "pitch": 40,
                "velocity": 40,
                "duration": 0.12045454545454959,
                "tempo": 120.0
            },
            {
                "start_time": 49.377272727272725,
                "end_time": 49.49545454545454,
                "pitch": 45,
                "velocity": 40,
                "duration": 0.11818181818181728,
                "tempo": 120.0
            },
            {
                "start_time": 49.51136363636363,
                "end_time": 49.627272727272725,
                "pitch": 40,
                "velocity": 40,
                "duration": 0.11590909090909207,
                "tempo": 120.0
            },
            {
                "start_time": 49.64545454545454,
                "end_time": 49.76136363636363,
                "pitch": 41,
                "velocity": 40,
                "duration": 0.11590909090909207,
                "tempo": 120.0
            },
            {
                "start_time": 49.77954545454545,
                "end_time": 49.89545454545454,
                "pitch": 40,
                "velocity": 40,
                "duration": 0.11590909090909207,
                "tempo": 120.0
            },
            {
                "start_time": 49.91136363636363,
                "end_time": 50.02954545454545,
                "pitch": 45,
                "velocity": 40,
                "duration": 0.11818181818181728,
                "tempo": 120.0
            },
            {
                "start_time": 50.04545454545454,
                "end_time": 50.163636363636364,
                "pitch": 40,
                "velocity": 40,
                "duration": 0.11818181818182438,
                "tempo": 120.0
            },
            {
                "start_time": 50.179545454545455,
                "end_time": 50.29545454545454,
                "pitch": 41,
                "velocity": 40,
                "duration": 0.11590909090908497,
                "tempo": 120.0
            },
            {
                "start_time": 50.31363636363636,
                "end_time": 50.429545454545455,
                "pitch": 40,
                "velocity": 40,
                "duration": 0.11590909090909207,
                "tempo": 120.0
            },
            {
                "start_time": 50.44772727272727,
                "end_time": 50.56590909090909,
                "pitch": 45,
                "velocity": 40,
                "duration": 0.11818181818181728,
                "tempo": 120.0
            },
            {
                "start_time": 50.58181818181818,
                "end_time": 50.70227272727273,
                "pitch": 40,
                "velocity": 40,
                "duration": 0.12045454545454959,
                "tempo": 120.0
            },
            {
                "start_time": 50.71818181818182,
                "end_time": 50.83863636363636,
                "pitch": 41,
                "velocity": 40,
                "duration": 0.12045454545454248,
                "tempo": 120.0
            },
            {
                "start_time": 50.85454545454545,
                "end_time": 50.97272727272727,
                "pitch": 40,
                "velocity": 40,
                "duration": 0.11818181818181728,
                "tempo": 120.0
            },
            {
                "start_time": 50.990909090909085,
                "end_time": 51.10681818181818,
                "pitch": 45,
                "velocity": 40,
                "duration": 0.11590909090909207,
                "tempo": 120.0
            },
            {
                "start_time": 51.125,
                "end_time": 51.240909090909085,
                "pitch": 40,
                "velocity": 40,
                "duration": 0.11590909090908497,
                "tempo": 120.0
            },
            {
                "start_time": 51.25681818181818,
                "end_time": 51.375,
                "pitch": 41,
                "velocity": 40,
                "duration": 0.11818181818181728,
                "tempo": 120.0
            },
            {
                "start_time": 51.39090909090909,
                "end_time": 51.50909090909091,
                "pitch": 40,
                "velocity": 40,
                "duration": 0.11818181818181728,
                "tempo": 120.0
            },
            {
                "start_time": 51.525,
                "end_time": 51.643181818181816,
                "pitch": 45,
                "velocity": 40,
                "duration": 0.11818181818181728,
                "tempo": 120.0
            },
            {
                "start_time": 51.66136363636363,
                "end_time": 51.77954545454545,
                "pitch": 40,
                "velocity": 40,
                "duration": 0.11818181818181728,
                "tempo": 120.0
            },
            {
                "start_time": 51.79772727272727,
                "end_time": 51.91590909090909,
                "pitch": 41,
                "velocity": 40,
                "duration": 0.11818181818181728,
                "tempo": 120.0
            },
            {
                "start_time": 51.93181818181818,
                "end_time": 52.05227272727272,
                "pitch": 40,
                "velocity": 40,
                "duration": 0.12045454545454248,
                "tempo": 120.0
            },
            {
                "start_time": 52.06818181818181,
                "end_time": 52.184090909090905,
                "pitch": 45,
                "velocity": 40,
                "duration": 0.11590909090909207,
                "tempo": 120.0
            },
            {
                "start_time": 52.199999999999996,
                "end_time": 52.31363636363636,
                "pitch": 40,
                "velocity": 40,
                "duration": 0.11363636363636687,
                "tempo": 120.0
            },
            {
                "start_time": 52.33181818181818,
                "end_time": 52.445454545454545,
                "pitch": 41,
                "velocity": 40,
                "duration": 0.11363636363636687,
                "tempo": 120.0
            },
            {
                "start_time": 52.461363636363636,
                "end_time": 52.57727272727273,
                "pitch": 40,
                "velocity": 40,
                "duration": 0.11590909090909207,
                "tempo": 120.0
            },
            {
                "start_time": 52.59318181818182,
                "end_time": 52.71363636363636,
                "pitch": 45,
                "velocity": 40,
                "duration": 0.12045454545454248,
                "tempo": 120.0
            },
            {
                "start_time": 52.72954545454545,
                "end_time": 52.84772727272727,
                "pitch": 40,
                "velocity": 40,
                "duration": 0.11818181818181728,
                "tempo": 120.0
            },
            {
                "start_time": 52.865909090909085,
                "end_time": 52.98409090909091,
                "pitch": 41,
                "velocity": 40,
                "duration": 0.11818181818182438,
                "tempo": 120.0
            },
            {
                "start_time": 53.002272727272725,
                "end_time": 53.12045454545454,
                "pitch": 40,
                "velocity": 40,
                "duration": 0.11818181818181728,
                "tempo": 120.0
            },
            {
                "start_time": 53.13863636363636,
                "end_time": 53.25454545454545,
                "pitch": 45,
                "velocity": 40,
                "duration": 0.11590909090909207,
                "tempo": 120.0
            },
            {
                "start_time": 53.27045454545454,
                "end_time": 53.38863636363636,
                "pitch": 40,
                "velocity": 40,
                "duration": 0.11818181818181728,
                "tempo": 120.0
            },
            {
                "start_time": 53.40454545454545,
                "end_time": 53.52272727272727,
                "pitch": 41,
                "velocity": 40,
                "duration": 0.11818181818182438,
                "tempo": 120.0
            },
            {
                "start_time": 53.538636363636364,
                "end_time": 53.65454545454545,
                "pitch": 42,
                "velocity": 40,
                "duration": 0.11590909090908497,
                "tempo": 120.0
            },
            {
                "start_time": 53.67272727272727,
                "end_time": 53.79090909090909,
                "pitch": 47,
                "velocity": 40,
                "duration": 0.11818181818181728,
                "tempo": 120.0
            },
            {
                "start_time": 53.809090909090905,
                "end_time": 53.92727272727272,
                "pitch": 42,
                "velocity": 40,
                "duration": 0.11818181818181728,
                "tempo": 120.0
            },
            {
                "start_time": 53.94318181818181,
                "end_time": 54.06363636363636,
                "pitch": 43,
                "velocity": 40,
                "duration": 0.12045454545454959,
                "tempo": 120.0
            },
            {
                "start_time": 54.07954545454545,
                "end_time": 54.199999999999996,
                "pitch": 42,
                "velocity": 40,
                "duration": 0.12045454545454248,
                "tempo": 120.0
            },
            {
                "start_time": 54.215909090909086,
                "end_time": 54.33181818181818,
                "pitch": 47,
                "velocity": 40,
                "duration": 0.11590909090909207,
                "tempo": 120.0
            },
            {
                "start_time": 54.349999999999994,
                "end_time": 54.465909090909086,
                "pitch": 42,
                "velocity": 40,
                "duration": 0.11590909090909207,
                "tempo": 120.0
            },
            {
                "start_time": 54.48409090909091,
                "end_time": 54.599999999999994,
                "pitch": 43,
                "velocity": 40,
                "duration": 0.11590909090908497,
                "tempo": 120.0
            },
            {
                "start_time": 54.615909090909085,
                "end_time": 54.73409090909091,
                "pitch": 42,
                "velocity": 40,
                "duration": 0.11818181818182438,
                "tempo": 120.0
            },
            {
                "start_time": 54.75,
                "end_time": 54.86818181818182,
                "pitch": 47,
                "velocity": 40,
                "duration": 0.11818181818181728,
                "tempo": 120.0
            },
            {
                "start_time": 54.88409090909091,
                "end_time": 55.0,
                "pitch": 42,
                "velocity": 40,
                "duration": 0.11590909090909207,
                "tempo": 120.0
            },
            {
                "start_time": 55.018181818181816,
                "end_time": 55.13409090909091,
                "pitch": 43,
                "velocity": 40,
                "duration": 0.11590909090909207,
                "tempo": 120.0
            },
            {
                "start_time": 55.152272727272724,
                "end_time": 55.268181818181816,
                "pitch": 42,
                "velocity": 40,
                "duration": 0.11590909090909207,
                "tempo": 120.0
            },
            {
                "start_time": 55.28409090909091,
                "end_time": 55.402272727272724,
                "pitch": 47,
                "velocity": 40,
                "duration": 0.11818181818181728,
                "tempo": 120.0
            },
            {
                "start_time": 55.418181818181814,
                "end_time": 55.53636363636363,
                "pitch": 42,
                "velocity": 40,
                "duration": 0.11818181818181728,
                "tempo": 120.0
            },
            {
                "start_time": 55.55227272727272,
                "end_time": 55.668181818181814,
                "pitch": 43,
                "velocity": 40,
                "duration": 0.11590909090909207,
                "tempo": 120.0
            },
            {
                "start_time": 55.68636363636363,
                "end_time": 55.80227272727272,
                "pitch": 42,
                "velocity": 40,
                "duration": 0.11590909090909207,
                "tempo": 120.0
            },
            {
                "start_time": 55.81818181818181,
                "end_time": 55.93863636363636,
                "pitch": 47,
                "velocity": 40,
                "duration": 0.12045454545454959,
                "tempo": 120.0
            },
            {
                "start_time": 55.95454545454545,
                "end_time": 56.074999999999996,
                "pitch": 42,
                "velocity": 40,
                "duration": 0.12045454545454248,
                "tempo": 120.0
            },
            {
                "start_time": 56.090909090909086,
                "end_time": 56.209090909090904,
                "pitch": 43,
                "velocity": 40,
                "duration": 0.11818181818181728,
                "tempo": 120.0
            },
            {
                "start_time": 56.22727272727273,
                "end_time": 56.345454545454544,
                "pitch": 42,
                "velocity": 40,
                "duration": 0.11818181818181728,
                "tempo": 120.0
            },
            {
                "start_time": 56.36363636363636,
                "end_time": 56.48181818181818,
                "pitch": 47,
                "velocity": 40,
                "duration": 0.11818181818181728,
                "tempo": 120.0
            },
            {
                "start_time": 56.5,
                "end_time": 56.61818181818182,
                "pitch": 42,
                "velocity": 40,
                "duration": 0.11818181818181728,
                "tempo": 120.0
            },
            {
                "start_time": 56.63409090909091,
                "end_time": 56.75454545454545,
                "pitch": 43,
                "velocity": 40,
                "duration": 0.12045454545454248,
                "tempo": 120.0
            },
            {
                "start_time": 56.77045454545454,
                "end_time": 56.89090909090909,
                "pitch": 42,
                "velocity": 40,
                "duration": 0.12045454545454959,
                "tempo": 120.0
            },
            {
                "start_time": 56.90681818181818,
                "end_time": 57.025,
                "pitch": 47,
                "velocity": 40,
                "duration": 0.11818181818181728,
                "tempo": 120.0
            },
            {
                "start_time": 57.04090909090909,
                "end_time": 57.15681818181818,
                "pitch": 42,
                "velocity": 40,
                "duration": 0.11590909090909207,
                "tempo": 120.0
            },
            {
                "start_time": 57.175,
                "end_time": 57.29090909090909,
                "pitch": 43,
                "velocity": 40,
                "duration": 0.11590909090909207,
                "tempo": 120.0
            },
            {
                "start_time": 57.309090909090905,
                "end_time": 57.425,
                "pitch": 42,
                "velocity": 40,
                "duration": 0.11590909090909207,
                "tempo": 120.0
            },
            {
                "start_time": 57.44090909090909,
                "end_time": 57.559090909090905,
                "pitch": 47,
                "velocity": 40,
                "duration": 0.11818181818181728,
                "tempo": 120.0
            },
            {
                "start_time": 57.574999999999996,
                "end_time": 57.69318181818181,
                "pitch": 42,
                "velocity": 40,
                "duration": 0.11818181818181728,
                "tempo": 120.0
            },
            {
                "start_time": 57.709090909090904,
                "end_time": 57.824999999999996,
                "pitch": 43,
                "velocity": 40,
                "duration": 0.11590909090909207,
                "tempo": 120.0
            },
            {
                "start_time": 57.84318181818182,
                "end_time": 57.959090909090904,
                "pitch": 42,
                "velocity": 40,
                "duration": 0.11590909090908497,
                "tempo": 120.0
            },
            {
                "start_time": 57.974999999999994,
                "end_time": 58.095454545454544,
                "pitch": 47,
                "velocity": 40,
                "duration": 0.12045454545454959,
                "tempo": 120.0
            },
            {
                "start_time": 58.111363636363635,
                "end_time": 58.23181818181818,
                "pitch": 42,
                "velocity": 40,
                "duration": 0.12045454545454248,
                "tempo": 120.0
            },
            {
                "start_time": 58.24772727272727,
                "end_time": 58.365909090909085,
                "pitch": 43,
                "velocity": 40,
                "duration": 0.11818181818181728,
                "tempo": 120.0
            },
            {
                "start_time": 58.38409090909091,
                "end_time": 58.502272727272725,
                "pitch": 42,
                "velocity": 40,
                "duration": 0.11818181818181728,
                "tempo": 120.0
            },
            {
                "start_time": 58.52045454545454,
                "end_time": 58.63636363636363,
                "pitch": 47,
                "velocity": 40,
                "duration": 0.11590909090909207,
                "tempo": 120.0
            },
            {
                "start_time": 58.65454545454545,
                "end_time": 58.77045454545454,
                "pitch": 42,
                "velocity": 40,
                "duration": 0.11590909090909207,
                "tempo": 120.0
            },
            {
                "start_time": 58.78636363636363,
                "end_time": 58.90454545454545,
                "pitch": 43,
                "velocity": 40,
                "duration": 0.11818181818181728,
                "tempo": 120.0
            },
            {
                "start_time": 58.92045454545454,
                "end_time": 59.038636363636364,
                "pitch": 42,
                "velocity": 40,
                "duration": 0.11818181818182438,
                "tempo": 120.0
            },
            {
                "start_time": 59.054545454545455,
                "end_time": 59.17045454545454,
                "pitch": 47,
                "velocity": 40,
                "duration": 0.11590909090908497,
                "tempo": 120.0
            },
            {
                "start_time": 59.18863636363636,
                "end_time": 59.304545454545455,
                "pitch": 42,
                "velocity": 40,
                "duration": 0.11590909090909207,
                "tempo": 120.0
            },
            {
                "start_time": 59.320454545454545,
                "end_time": 59.43863636363636,
                "pitch": 43,
                "velocity": 40,
                "duration": 0.11818181818181728,
                "tempo": 120.0
            },
            {
                "start_time": 59.45454545454545,
                "end_time": 59.57272727272727,
                "pitch": 42,
                "velocity": 40,
                "duration": 0.11818181818181728,
                "tempo": 120.0
            },
            {
                "start_time": 59.58863636363636,
                "end_time": 59.70454545454545,
                "pitch": 47,
                "velocity": 40,
                "duration": 0.11590909090909207,
                "tempo": 120.0
            },
            {
                "start_time": 59.72272727272727,
                "end_time": 59.83863636363636,
                "pitch": 42,
                "velocity": 40,
                "duration": 0.11590909090909207,
                "tempo": 120.0
            },
            {
                "start_time": 59.85681818181818,
                "end_time": 59.97272727272727,
                "pitch": 43,
                "velocity": 40,
                "duration": 0.11590909090909207,
                "tempo": 120.0
            },
            {
                "start_time": 59.98863636363636,
                "end_time": 60.10681818181818,
                "pitch": 42,
                "velocity": 40,
                "duration": 0.11818181818181728,
                "tempo": 120.0
            },
            {
                "start_time": 60.12272727272727,
                "end_time": 60.24318181818182,
                "pitch": 47,
                "velocity": 40,
                "duration": 0.12045454545454959,
                "tempo": 120.0
            },
            {
                "start_time": 60.25909090909091,
                "end_time": 60.377272727272725,
                "pitch": 42,
                "velocity": 40,
                "duration": 0.11818181818181728,
                "tempo": 120.0
            },
            {
                "start_time": 60.39545454545454,
                "end_time": 60.51363636363636,
                "pitch": 43,
                "velocity": 40,
                "duration": 0.11818181818181728,
                "tempo": 120.0
            },
            {
                "start_time": 60.53181818181818,
                "end_time": 60.65,
                "pitch": 42,
                "velocity": 40,
                "duration": 0.11818181818181728,
                "tempo": 120.0
            },
            {
                "start_time": 60.66590909090909,
                "end_time": 60.78409090909091,
                "pitch": 47,
                "velocity": 40,
                "duration": 0.11818181818181728,
                "tempo": 120.0
            },
            {
                "start_time": 60.8,
                "end_time": 60.918181818181814,
                "pitch": 42,
                "velocity": 40,
                "duration": 0.11818181818181728,
                "tempo": 120.0
            },
            {
                "start_time": 60.934090909090905,
                "end_time": 61.05,
                "pitch": 43,
                "velocity": 40,
                "duration": 0.11590909090909207,
                "tempo": 120.0
            },
            {
                "start_time": 61.06818181818181,
                "end_time": 61.184090909090905,
                "pitch": 42,
                "velocity": 40,
                "duration": 0.11590909090909207,
                "tempo": 120.0
            },
            {
                "start_time": 61.20227272727272,
                "end_time": 61.31818181818181,
                "pitch": 47,
                "velocity": 40,
                "duration": 0.11590909090909207,
                "tempo": 120.0
            },
            {
                "start_time": 61.334090909090904,
                "end_time": 61.45227272727272,
                "pitch": 42,
                "velocity": 40,
                "duration": 0.11818181818181728,
                "tempo": 120.0
            },
            {
                "start_time": 61.46818181818182,
                "end_time": 61.586363636363636,
                "pitch": 43,
                "velocity": 40,
                "duration": 0.11818181818181728,
                "tempo": 120.0
            },
            {
                "start_time": 61.60227272727273,
                "end_time": 61.71818181818182,
                "pitch": 42,
                "velocity": 40,
                "duration": 0.11590909090909207,
                "tempo": 120.0
            },
            {
                "start_time": 61.736363636363635,
                "end_time": 61.85454545454545,
                "pitch": 47,
                "velocity": 40,
                "duration": 0.11818181818181728,
                "tempo": 120.0
            },
            {
                "start_time": 61.87272727272727,
                "end_time": 61.990909090909085,
                "pitch": 42,
                "velocity": 40,
                "duration": 0.11818181818181728,
                "tempo": 120.0
            },
            {
                "start_time": 62.006818181818176,
                "end_time": 62.127272727272725,
                "pitch": 43,
                "velocity": 40,
                "duration": 0.12045454545454959,
                "tempo": 120.0
            }
        ],
        "Harpsichord": [
            {
                "start_time": 23.93181818181818,
                "end_time": 24.018181818181816,
                "pitch": 52,
                "velocity": 40,
                "duration": 0.08636363636363598,
                "tempo": 120.0
            },
            {
                "start_time": 24.034090909090907,
                "end_time": 24.120454545454546,
                "pitch": 52,
                "velocity": 40,
                "duration": 0.08636363636363953,
                "tempo": 120.0
            },
            {
                "start_time": 24.134090909090908,
                "end_time": 24.222727272727273,
                "pitch": 52,
                "velocity": 40,
                "duration": 0.08863636363636473,
                "tempo": 120.0
            },
            {
                "start_time": 24.236363636363635,
                "end_time": 24.32272727272727,
                "pitch": 52,
                "velocity": 40,
                "duration": 0.08636363636363598,
                "tempo": 120.0
            },
            {
                "start_time": 24.33863636363636,
                "end_time": 24.424999999999997,
                "pitch": 52,
                "velocity": 40,
                "duration": 0.08636363636363598,
                "tempo": 120.0
            },
            {
                "start_time": 24.44090909090909,
                "end_time": 24.527272727272727,
                "pitch": 52,
                "velocity": 40,
                "duration": 0.08636363636363598,
                "tempo": 120.0
            },
            {
                "start_time": 24.54090909090909,
                "end_time": 24.629545454545454,
                "pitch": 52,
                "velocity": 40,
                "duration": 0.08863636363636473,
                "tempo": 120.0
            },
            {
                "start_time": 24.643181818181816,
                "end_time": 24.729545454545452,
                "pitch": 52,
                "velocity": 40,
                "duration": 0.08636363636363598,
                "tempo": 120.0
            },
            {
                "start_time": 24.745454545454542,
                "end_time": 24.834090909090907,
                "pitch": 52,
                "velocity": 40,
                "duration": 0.08863636363636473,
                "tempo": 120.0
            },
            {
                "start_time": 24.849999999999998,
                "end_time": 24.938636363636363,
                "pitch": 52,
                "velocity": 40,
                "duration": 0.08863636363636473,
                "tempo": 120.0
            },
            {
                "start_time": 24.952272727272724,
                "end_time": 25.043181818181818,
                "pitch": 52,
                "velocity": 40,
                "duration": 0.09090909090909349,
                "tempo": 120.0
            },
            {
                "start_time": 25.05681818181818,
                "end_time": 25.145454545454545,
                "pitch": 52,
                "velocity": 40,
                "duration": 0.08863636363636473,
                "tempo": 120.0
            },
            {
                "start_time": 25.161363636363635,
                "end_time": 25.25,
                "pitch": 52,
                "velocity": 40,
                "duration": 0.08863636363636473,
                "tempo": 120.0
            },
            {
                "start_time": 25.26590909090909,
                "end_time": 25.354545454545452,
                "pitch": 52,
                "velocity": 40,
                "duration": 0.08863636363636118,
                "tempo": 120.0
            },
            {
                "start_time": 25.368181818181817,
                "end_time": 25.459090909090907,
                "pitch": 52,
                "velocity": 40,
                "duration": 0.09090909090908994,
                "tempo": 120.0
            },
            {
                "start_time": 25.472727272727273,
                "end_time": 25.561363636363634,
                "pitch": 54,
                "velocity": 40,
                "duration": 0.08863636363636118,
                "tempo": 120.0
            },
            {
                "start_time": 25.577272727272724,
                "end_time": 25.663636363636364,
                "pitch": 54,
                "velocity": 40,
                "duration": 0.08636363636363953,
                "tempo": 120.0
            },
            {
                "start_time": 25.677272727272726,
                "end_time": 25.76590909090909,
                "pitch": 54,
                "velocity": 40,
                "duration": 0.08863636363636473,
                "tempo": 120.0
            },
            {
                "start_time": 25.779545454545453,
                "end_time": 25.86590909090909,
                "pitch": 54,
                "velocity": 40,
                "duration": 0.08636363636363598,
                "tempo": 120.0
            },
            {
                "start_time": 25.88181818181818,
                "end_time": 25.968181818181815,
                "pitch": 54,
                "velocity": 40,
                "duration": 0.08636363636363598,
                "tempo": 120.0
            },
            {
                "start_time": 25.98409090909091,
                "end_time": 26.07272727272727,
                "pitch": 54,
                "velocity": 40,
                "duration": 0.08863636363636118,
                "tempo": 120.0
            },
            {
                "start_time": 26.086363636363636,
                "end_time": 26.177272727272726,
                "pitch": 54,
                "velocity": 40,
                "duration": 0.09090909090908994,
                "tempo": 120.0
            },
            {
                "start_time": 26.19090909090909,
                "end_time": 26.279545454545453,
                "pitch": 54,
                "velocity": 40,
                "duration": 0.08863636363636118,
                "tempo": 120.0
            },
            {
                "start_time": 26.295454545454543,
                "end_time": 26.384090909090908,
                "pitch": 54,
                "velocity": 40,
                "duration": 0.08863636363636473,
                "tempo": 120.0
            },
            {
                "start_time": 26.4,
                "end_time": 26.486363636363635,
                "pitch": 54,
                "velocity": 40,
                "duration": 0.08636363636363598,
                "tempo": 120.0
            },
            {
                "start_time": 26.5,
                "end_time": 26.58863636363636,
                "pitch": 54,
                "velocity": 40,
                "duration": 0.08863636363636118,
                "tempo": 120.0
            },
            {
                "start_time": 26.602272727272727,
                "end_time": 26.688636363636363,
                "pitch": 54,
                "velocity": 40,
                "duration": 0.08636363636363598,
                "tempo": 120.0
            },
            {
                "start_time": 26.704545454545453,
                "end_time": 26.79090909090909,
                "pitch": 54,
                "velocity": 40,
                "duration": 0.08636363636363598,
                "tempo": 120.0
            },
            {
                "start_time": 26.80681818181818,
                "end_time": 26.895454545454545,
                "pitch": 54,
                "velocity": 40,
                "duration": 0.08863636363636473,
                "tempo": 120.0
            },
            {
                "start_time": 26.909090909090907,
                "end_time": 27.0,
                "pitch": 54,
                "velocity": 40,
                "duration": 0.09090909090909349,
                "tempo": 120.0
            },
            {
                "start_time": 27.013636363636362,
                "end_time": 27.102272727272727,
                "pitch": 54,
                "velocity": 40,
                "duration": 0.08863636363636473,
                "tempo": 120.0
            },
            {
                "start_time": 27.118181818181817,
                "end_time": 27.206818181818182,
                "pitch": 57,
                "velocity": 40,
                "duration": 0.08863636363636473,
                "tempo": 120.0
            },
            {
                "start_time": 27.222727272727273,
                "end_time": 27.311363636363634,
                "pitch": 57,
                "velocity": 40,
                "duration": 0.08863636363636118,
                "tempo": 120.0
            },
            {
                "start_time": 27.325,
                "end_time": 27.41590909090909,
                "pitch": 57,
                "velocity": 40,
                "duration": 0.09090909090908994,
                "tempo": 120.0
            },
            {
                "start_time": 27.429545454545455,
                "end_time": 27.518181818181816,
                "pitch": 57,
                "velocity": 40,
                "duration": 0.08863636363636118,
                "tempo": 120.0
            },
            {
                "start_time": 27.534090909090907,
                "end_time": 27.62272727272727,
                "pitch": 57,
                "velocity": 40,
                "duration": 0.08863636363636473,
                "tempo": 120.0
            },
            {
                "start_time": 27.636363636363637,
                "end_time": 27.724999999999998,
                "pitch": 57,
                "velocity": 40,
                "duration": 0.08863636363636118,
                "tempo": 120.0
            },
            {
                "start_time": 27.738636363636363,
                "end_time": 27.827272727272724,
                "pitch": 57,
                "velocity": 40,
                "duration": 0.08863636363636118,
                "tempo": 120.0
            },
            {
                "start_time": 27.84090909090909,
                "end_time": 27.927272727272726,
                "pitch": 57,
                "velocity": 40,
                "duration": 0.08636363636363598,
                "tempo": 120.0
            },
            {
                "start_time": 27.943181818181817,
                "end_time": 28.029545454545453,
                "pitch": 57,
                "velocity": 40,
                "duration": 0.08636363636363598,
                "tempo": 120.0
            },
            {
                "start_time": 28.043181818181818,
                "end_time": 28.134090909090908,
                "pitch": 57,
                "velocity": 40,
                "duration": 0.09090909090908994,
                "tempo": 120.0
            },
            {
                "start_time": 28.14772727272727,
                "end_time": 28.236363636363635,
                "pitch": 57,
                "velocity": 40,
                "duration": 0.08863636363636473,
                "tempo": 120.0
            },
            {
                "start_time": 28.252272727272725,
                "end_time": 28.34090909090909,
                "pitch": 57,
                "velocity": 40,
                "duration": 0.08863636363636473,
                "tempo": 120.0
            },
            {
                "start_time": 28.35681818181818,
                "end_time": 28.445454545454545,
                "pitch": 57,
                "velocity": 40,
                "duration": 0.08863636363636473,
                "tempo": 120.0
            },
            {
                "start_time": 28.461363636363636,
                "end_time": 28.549999999999997,
                "pitch": 57,
                "velocity": 40,
                "duration": 0.08863636363636118,
                "tempo": 120.0
            },
            {
                "start_time": 28.563636363636363,
                "end_time": 28.654545454545453,
                "pitch": 57,
                "velocity": 40,
                "duration": 0.09090909090908994,
                "tempo": 120.0
            },
            {
                "start_time": 28.668181818181818,
                "end_time": 28.75681818181818,
                "pitch": 57,
                "velocity": 40,
                "duration": 0.08863636363636118,
                "tempo": 120.0
            },
            {
                "start_time": 28.77272727272727,
                "end_time": 28.861363636363635,
                "pitch": 59,
                "velocity": 40,
                "duration": 0.08863636363636473,
                "tempo": 120.0
            },
            {
                "start_time": 28.875,
                "end_time": 28.96363636363636,
                "pitch": 59,
                "velocity": 40,
                "duration": 0.08863636363636118,
                "tempo": 120.0
            },
            {
                "start_time": 28.977272727272727,
                "end_time": 29.063636363636363,
                "pitch": 59,
                "velocity": 40,
                "duration": 0.08636363636363598,
                "tempo": 120.0
            },
            {
                "start_time": 29.079545454545453,
                "end_time": 29.16590909090909,
                "pitch": 59,
                "velocity": 40,
                "duration": 0.08636363636363598,
                "tempo": 120.0
            },
            {
                "start_time": 29.18181818181818,
                "end_time": 29.268181818181816,
                "pitch": 59,
                "velocity": 40,
                "duration": 0.08636363636363598,
                "tempo": 120.0
            },
            {
                "start_time": 29.28181818181818,
                "end_time": 29.37272727272727,
                "pitch": 59,
                "velocity": 40,
                "duration": 0.09090909090908994,
                "tempo": 120.0
            },
            {
                "start_time": 29.386363636363637,
                "end_time": 29.474999999999998,
                "pitch": 59,
                "velocity": 40,
                "duration": 0.08863636363636118,
                "tempo": 120.0
            },
            {
                "start_time": 29.49090909090909,
                "end_time": 29.579545454545453,
                "pitch": 59,
                "velocity": 40,
                "duration": 0.08863636363636473,
                "tempo": 120.0
            },
            {
                "start_time": 29.595454545454544,
                "end_time": 29.68409090909091,
                "pitch": 59,
                "velocity": 40,
                "duration": 0.08863636363636473,
                "tempo": 120.0
            },
            {
                "start_time": 29.69772727272727,
                "end_time": 29.78863636363636,
                "pitch": 59,
                "velocity": 40,
                "duration": 0.09090909090908994,
                "tempo": 120.0
            },
            {
                "start_time": 29.802272727272726,
                "end_time": 29.89090909090909,
                "pitch": 59,
                "velocity": 40,
                "duration": 0.08863636363636473,
                "tempo": 120.0
            },
            {
                "start_time": 29.90681818181818,
                "end_time": 29.995454545454542,
                "pitch": 59,
                "velocity": 40,
                "duration": 0.08863636363636118,
                "tempo": 120.0
            },
            {
                "start_time": 30.011363636363633,
                "end_time": 30.099999999999998,
                "pitch": 59,
                "velocity": 40,
                "duration": 0.08863636363636473,
                "tempo": 120.0
            },
            {
                "start_time": 30.113636363636363,
                "end_time": 30.204545454545453,
                "pitch": 59,
                "velocity": 40,
                "duration": 0.09090909090908994,
                "tempo": 120.0
            },
            {
                "start_time": 30.218181818181815,
                "end_time": 30.30681818181818,
                "pitch": 59,
                "velocity": 40,
                "duration": 0.08863636363636473,
                "tempo": 120.0
            },
            {
                "start_time": 30.32272727272727,
                "end_time": 30.411363636363635,
                "pitch": 59,
                "velocity": 40,
                "duration": 0.08863636363636473,
                "tempo": 120.0
            },
            {
                "start_time": 30.427272727272726,
                "end_time": 30.5,
                "pitch": 52,
                "velocity": 40,
                "duration": 0.07272727272727408,
                "tempo": 120.0
            },
            {
                "start_time": 30.51590909090909,
                "end_time": 30.58863636363636,
                "pitch": 52,
                "velocity": 40,
                "duration": 0.07272727272727053,
                "tempo": 120.0
            },
            {
                "start_time": 30.602272727272727,
                "end_time": 30.674999999999997,
                "pitch": 52,
                "velocity": 40,
                "duration": 0.07272727272727053,
                "tempo": 120.0
            },
            {
                "start_time": 30.690909090909088,
                "end_time": 30.763636363636362,
                "pitch": 52,
                "velocity": 40,
                "duration": 0.07272727272727408,
                "tempo": 120.0
            },
            {
                "start_time": 30.777272727272727,
                "end_time": 30.849999999999998,
                "pitch": 52,
                "velocity": 40,
                "duration": 0.07272727272727053,
                "tempo": 120.0
            },
            {
                "start_time": 30.863636363636363,
                "end_time": 30.936363636363634,
                "pitch": 52,
                "velocity": 40,
                "duration": 0.07272727272727053,
                "tempo": 120.0
            },
            {
                "start_time": 30.952272727272724,
                "end_time": 31.029545454545453,
                "pitch": 52,
                "velocity": 40,
                "duration": 0.07727272727272805,
                "tempo": 120.0
            },
            {
                "start_time": 31.045454545454543,
                "end_time": 31.12272727272727,
                "pitch": 52,
                "velocity": 40,
                "duration": 0.07727272727272805,
                "tempo": 120.0
            },
            {
                "start_time": 31.138636363636362,
                "end_time": 31.21590909090909,
                "pitch": 52,
                "velocity": 40,
                "duration": 0.07727272727272805,
                "tempo": 120.0
            },
            {
                "start_time": 31.229545454545452,
                "end_time": 31.30681818181818,
                "pitch": 52,
                "velocity": 40,
                "duration": 0.07727272727272805,
                "tempo": 120.0
            },
            {
                "start_time": 31.32272727272727,
                "end_time": 31.4,
                "pitch": 52,
                "velocity": 40,
                "duration": 0.07727272727272805,
                "tempo": 120.0
            },
            {
                "start_time": 31.41363636363636,
                "end_time": 31.488636363636363,
                "pitch": 52,
                "velocity": 40,
                "duration": 0.07500000000000284,
                "tempo": 120.0
            },
            {
                "start_time": 31.504545454545454,
                "end_time": 31.577272727272724,
                "pitch": 52,
                "velocity": 40,
                "duration": 0.07272727272727053,
                "tempo": 120.0
            },
            {
                "start_time": 31.593181818181815,
                "end_time": 31.668181818181818,
                "pitch": 52,
                "velocity": 40,
                "duration": 0.07500000000000284,
                "tempo": 120.0
            },
            {
                "start_time": 31.68181818181818,
                "end_time": 31.75681818181818,
                "pitch": 52,
                "velocity": 40,
                "duration": 0.07499999999999929,
                "tempo": 120.0
            },
            {
                "start_time": 31.770454545454545,
                "end_time": 31.843181818181815,
                "pitch": 52,
                "velocity": 40,
                "duration": 0.07272727272727053,
                "tempo": 120.0
            },
            {
                "start_time": 31.85681818181818,
                "end_time": 31.927272727272726,
                "pitch": 54,
                "velocity": 40,
                "duration": 0.07045454545454533,
                "tempo": 120.0
            },
            {
                "start_time": 31.940909090909088,
                "end_time": 32.013636363636365,
                "pitch": 54,
                "velocity": 40,
                "duration": 0.07272727272727764,
                "tempo": 120.0
            },
            {
                "start_time": 32.027272727272724,
                "end_time": 32.09772727272727,
                "pitch": 54,
                "velocity": 40,
                "duration": 0.07045454545454533,
                "tempo": 120.0
            },
            {
                "start_time": 32.111363636363635,
                "end_time": 32.184090909090905,
                "pitch": 54,
                "velocity": 40,
                "duration": 0.07272727272727053,
                "tempo": 120.0
            },
            {
                "start_time": 32.19772727272727,
                "end_time": 32.27272727272727,
                "pitch": 54,
                "velocity": 40,
                "duration": 0.07500000000000284,
                "tempo": 120.0
            },
            {
                "start_time": 32.28636363636363,
                "end_time": 32.361363636363635,
                "pitch": 54,
                "velocity": 40,
                "duration": 0.07500000000000284,
                "tempo": 120.0
            },
            {
                "start_time": 32.377272727272725,
                "end_time": 32.449999999999996,
                "pitch": 54,
                "velocity": 40,
                "duration": 0.07272727272727053,
                "tempo": 120.0
            },
            {
                "start_time": 32.465909090909086,
                "end_time": 32.538636363636364,
                "pitch": 54,
                "velocity": 40,
                "duration": 0.07272727272727764,
                "tempo": 120.0
            },
            {
                "start_time": 32.554545454545455,
                "end_time": 32.62954545454545,
                "pitch": 54,
                "velocity": 40,
                "duration": 0.07499999999999574,
                "tempo": 120.0
            },
            {
                "start_time": 32.64545454545454,
                "end_time": 32.72272727272727,
                "pitch": 54,
                "velocity": 40,
                "duration": 0.07727272727272805,
                "tempo": 120.0
            },
            {
                "start_time": 32.73863636363636,
                "end_time": 32.81818181818182,
                "pitch": 54,
                "velocity": 40,
                "duration": 0.07954545454546036,
                "tempo": 120.0
            },
            {
                "start_time": 32.83409090909091,
                "end_time": 32.91136363636363,
                "pitch": 54,
                "velocity": 40,
                "duration": 0.07727272727272094,
                "tempo": 120.0
            },
            {
                "start_time": 32.92727272727272,
                "end_time": 33.00681818181818,
                "pitch": 54,
                "velocity": 40,
                "duration": 0.07954545454546036,
                "tempo": 120.0
            },
            {
                "start_time": 33.02272727272727,
                "end_time": 33.1,
                "pitch": 54,
                "velocity": 40,
                "duration": 0.07727272727272805,
                "tempo": 120.0
            },
            {
                "start_time": 33.11590909090909,
                "end_time": 33.195454545454545,
                "pitch": 54,
                "velocity": 40,
                "duration": 0.07954545454545325,
                "tempo": 120.0
            },
            {
                "start_time": 33.211363636363636,
                "end_time": 33.288636363636364,
                "pitch": 54,
                "velocity": 40,
                "duration": 0.07727272727272805,
                "tempo": 120.0
            },
            {
                "start_time": 33.304545454545455,
                "end_time": 33.38409090909091,
                "pitch": 57,
                "velocity": 40,
                "duration": 0.07954545454545325,
                "tempo": 120.0
            },
            {
                "start_time": 33.4,
                "end_time": 33.47727272727273,
                "pitch": 57,
                "velocity": 40,
                "duration": 0.07727272727272805,
                "tempo": 120.0
            },
            {
                "start_time": 33.49318181818182,
                "end_time": 33.57272727272727,
                "pitch": 57,
                "velocity": 40,
                "duration": 0.07954545454545325,
                "tempo": 120.0
            },
            {
                "start_time": 33.58863636363636,
                "end_time": 33.67045454545455,
                "pitch": 57,
                "velocity": 40,
                "duration": 0.08181818181818556,
                "tempo": 120.0
            },
            {
                "start_time": 33.68636363636364,
                "end_time": 33.768181818181816,
                "pitch": 57,
                "velocity": 40,
                "duration": 0.08181818181817846,
                "tempo": 120.0
            },
            {
                "start_time": 33.78636363636363,
                "end_time": 33.86818181818182,
                "pitch": 57,
                "velocity": 40,
                "duration": 0.08181818181818556,
                "tempo": 120.0
            },
            {
                "start_time": 33.88409090909091,
                "end_time": 33.965909090909086,
                "pitch": 57,
                "velocity": 40,
                "duration": 0.08181818181817846,
                "tempo": 120.0
            },
            {
                "start_time": 33.98181818181818,
                "end_time": 34.06363636363636,
                "pitch": 57,
                "velocity": 40,
                "duration": 0.08181818181818556,
                "tempo": 120.0
            },
            {
                "start_time": 34.07954545454545,
                "end_time": 34.154545454545456,
                "pitch": 57,
                "velocity": 40,
                "duration": 0.07500000000000284,
                "tempo": 120.0
            },
            {
                "start_time": 34.17045454545455,
                "end_time": 34.24545454545454,
                "pitch": 57,
                "velocity": 40,
                "duration": 0.07499999999999574,
                "tempo": 120.0
            },
            {
                "start_time": 34.25909090909091,
                "end_time": 34.336363636363636,
                "pitch": 57,
                "velocity": 40,
                "duration": 0.07727272727272805,
                "tempo": 120.0
            },
            {
                "start_time": 34.35,
                "end_time": 34.42727272727272,
                "pitch": 57,
                "velocity": 40,
                "duration": 0.07727272727272094,
                "tempo": 120.0
            },
            {
                "start_time": 34.44090909090909,
                "end_time": 34.51590909090909,
                "pitch": 57,
                "velocity": 40,
                "duration": 0.07500000000000284,
                "tempo": 120.0
            },
            {
                "start_time": 34.53181818181818,
                "end_time": 34.611363636363635,
                "pitch": 57,
                "velocity": 40,
                "duration": 0.07954545454545325,
                "tempo": 120.0
            },
            {
                "start_time": 34.627272727272725,
                "end_time": 34.70454545454545,
                "pitch": 57,
                "velocity": 40,
                "duration": 0.07727272727272805,
                "tempo": 120.0
            },
            {
                "start_time": 34.720454545454544,
                "end_time": 34.8,
                "pitch": 57,
                "velocity": 40,
                "duration": 0.07954545454545325,
                "tempo": 120.0
            },
            {
                "start_time": 34.81590909090909,
                "end_time": 34.89545454545454,
                "pitch": 59,
                "velocity": 40,
                "duration": 0.07954545454545325,
                "tempo": 120.0
            },
            {
                "start_time": 34.90909090909091,
                "end_time": 34.98863636363636,
                "pitch": 59,
                "velocity": 40,
                "duration": 0.07954545454545325,
                "tempo": 120.0
            },
            {
                "start_time": 35.00454545454545,
                "end_time": 35.086363636363636,
                "pitch": 59,
                "velocity": 40,
                "duration": 0.08181818181818556,
                "tempo": 120.0
            },
            {
                "start_time": 35.10227272727273,
                "end_time": 35.18181818181818,
                "pitch": 59,
                "velocity": 40,
                "duration": 0.07954545454545325,
                "tempo": 120.0
            },
            {
                "start_time": 35.19772727272727,
                "end_time": 35.279545454545456,
                "pitch": 59,
                "velocity": 40,
                "duration": 0.08181818181818556,
                "tempo": 120.0
            },
            {
                "start_time": 35.29545454545455,
                "end_time": 35.375,
                "pitch": 59,
                "velocity": 40,
                "duration": 0.07954545454545325,
                "tempo": 120.0
            },
            {
                "start_time": 35.39090909090909,
                "end_time": 35.47272727272727,
                "pitch": 59,
                "velocity": 40,
                "duration": 0.08181818181817846,
                "tempo": 120.0
            },
            {
                "start_time": 35.48863636363636,
                "end_time": 35.56590909090909,
                "pitch": 59,
                "velocity": 40,
                "duration": 0.07727272727272805,
                "tempo": 120.0
            },
            {
                "start_time": 35.57954545454545,
                "end_time": 35.65681818181818,
                "pitch": 59,
                "velocity": 40,
                "duration": 0.07727272727272805,
                "tempo": 120.0
            },
            {
                "start_time": 35.67272727272727,
                "end_time": 35.75,
                "pitch": 59,
                "velocity": 40,
                "duration": 0.07727272727272805,
                "tempo": 120.0
            },
            {
                "start_time": 35.76590909090909,
                "end_time": 35.84318181818182,
                "pitch": 59,
                "velocity": 40,
                "duration": 0.07727272727272805,
                "tempo": 120.0
            },
            {
                "start_time": 35.85909090909091,
                "end_time": 35.93636363636364,
                "pitch": 59,
                "velocity": 40,
                "duration": 0.07727272727272805,
                "tempo": 120.0
            },
            {
                "start_time": 35.95227272727273,
                "end_time": 36.03409090909091,
                "pitch": 59,
                "velocity": 40,
                "duration": 0.08181818181817846,
                "tempo": 120.0
            },
            {
                "start_time": 36.05227272727272,
                "end_time": 36.13409090909091,
                "pitch": 59,
                "velocity": 40,
                "duration": 0.08181818181818556,
                "tempo": 120.0
            },
            {
                "start_time": 36.152272727272724,
                "end_time": 36.23409090909091,
                "pitch": 59,
                "velocity": 40,
                "duration": 0.08181818181818556,
                "tempo": 120.0
            },
            {
                "start_time": 36.252272727272725,
                "end_time": 36.33409090909091,
                "pitch": 59,
                "velocity": 40,
                "duration": 0.08181818181818556,
                "tempo": 120.0
            }
        ]
    }
}