{
    "track_id": "Captain Silver (FM) - 05 - Boss",
    "mood": "sad",
    "instruments": {
        "Harpsichord": [
            {
                "start_time": 6.3977272727272725,
                "end_time": 6.9818181818181815,
                "pitch": 89,
                "velocity": 80,
                "duration": 0.584090909090909,
                "tempo": 120.0
            },
            {
                "start_time": 7.0,
                "end_time": 7.1886363636363635,
                "pitch": 88,
                "velocity": 80,
                "duration": 0.1886363636363635,
                "tempo": 120.0
            },
            {
                "start_time": 7.204545454545454,
                "end_time": 7.588636363636363,
                "pitch": 89,
                "velocity": 80,
                "duration": 0.3840909090909088,
                "tempo": 120.0
            },
            {
                "start_time": 8.202272727272726,
                "end_time": 8.386363636363637,
                "pitch": 89,
                "velocity": 80,
                "duration": 0.18409090909091042,
                "tempo": 120.0
            },
            {
                "start_time": 8.404545454545454,
                "end_time": 8.788636363636364,
                "pitch": 89,
                "velocity": 80,
                "duration": 0.3840909090909097,
                "tempo": 120.0
            },
            {
                "start_time": 8.806818181818182,
                "end_time": 9.593181818181817,
                "pitch": 89,
                "velocity": 80,
                "duration": 0.7863636363636353,
                "tempo": 120.0
            },
            {
                "start_time": 9.611363636363636,
                "end_time": 10.195454545454545,
                "pitch": 92,
                "velocity": 80,
                "duration": 0.584090909090909,
                "tempo": 120.0
            },
            {
                "start_time": 10.213636363636363,
                "end_time": 10.402272727272727,
                "pitch": 91,
                "velocity": 80,
                "duration": 0.18863636363636438,
                "tempo": 120.0
            },
            {
                "start_time": 10.418181818181818,
                "end_time": 10.802272727272726,
                "pitch": 92,
                "velocity": 80,
                "duration": 0.38409090909090793,
                "tempo": 120.0
            },
            {
                "start_time": 11.418181818181818,
                "end_time": 11.60681818181818,
                "pitch": 91,
                "velocity": 80,
                "duration": 0.1886363636363626,
                "tempo": 120.0
            },
            {
                "start_time": 11.625,
                "end_time": 12.009090909090908,
                "pitch": 92,
                "velocity": 80,
                "duration": 0.38409090909090793,
                "tempo": 120.0
            },
            {
                "start_time": 12.024999999999999,
                "end_time": 12.809090909090909,
                "pitch": 92,
                "velocity": 80,
                "duration": 0.7840909090909101,
                "tempo": 120.0
            },
            {
                "start_time": 12.825,
                "end_time": 14.415909090909091,
                "pitch": 89,
                "velocity": 80,
                "duration": 1.5909090909090917,
                "tempo": 120.0
            },
            {
                "start_time": 15.64090909090909,
                "end_time": 16.025,
                "pitch": 89,
                "velocity": 80,
                "duration": 0.38409090909090793,
                "tempo": 120.0
            },
            {
                "start_time": 16.04090909090909,
                "end_time": 18.43409090909091,
                "pitch": 91,
                "velocity": 80,
                "duration": 2.3931818181818194,
                "tempo": 120.0
            },
            {
                "start_time": 18.45,
                "end_time": 19.236363636363635,
                "pitch": 91,
                "velocity": 80,
                "duration": 0.7863636363636353,
                "tempo": 120.0
            },
            {
                "start_time": 19.252272727272725,
                "end_time": 20.83863636363636,
                "pitch": 89,
                "velocity": 80,
                "duration": 1.586363636363636,
                "tempo": 120.0
            },
            {
                "start_time": 22.061363636363634,
                "end_time": 22.445454545454545,
                "pitch": 89,
                "velocity": 80,
                "duration": 0.3840909090909115,
                "tempo": 120.0
            },
            {
                "start_time": 22.461363636363636,
                "end_time": 23.847727272727273,
                "pitch": 92,
                "velocity": 80,
                "duration": 1.3863636363636367,
                "tempo": 120.0
            },
            {
                "start_time": 23.86590909090909,
                "end_time": 24.052272727272726,
                "pitch": 92,
                "velocity": 80,
                "duration": 0.1863636363636374,
                "tempo": 120.0
            },
            {
                "start_time": 24.070454545454545,
                "end_time": 25.443181818181817,
                "pitch": 91,
                "velocity": 80,
                "duration": 1.3727272727272712,
                "tempo": 120.0
            },
            {
                "start_time": 25.461363636363636,
                "end_time": 25.654545454545453,
                "pitch": 91,
                "velocity": 80,
                "duration": 0.19318181818181657,
                "tempo": 120.0
            },
            {
                "start_time": 25.672727272727272,
                "end_time": 27.259090909090908,
                "pitch": 89,
                "velocity": 80,
                "duration": 1.586363636363636,
                "tempo": 120.0
            },
            {
                "start_time": 28.479545454545452,
                "end_time": 28.861363636363635,
                "pitch": 89,
                "velocity": 80,
                "duration": 0.3818181818181827,
                "tempo": 120.0
            },
            {
                "start_time": 28.879545454545454,
                "end_time": 30.468181818181815,
                "pitch": 91,
                "velocity": 80,
                "duration": 1.5886363636363612,
                "tempo": 120.0
            },
            {
                "start_time": 31.286363636363635,
                "end_time": 31.470454545454544,
                "pitch": 91,
                "velocity": 80,
                "duration": 0.18409090909090864,
                "tempo": 120.0
            },
            {
                "start_time": 31.488636363636363,
                "end_time": 31.88181818181818,
                "pitch": 90,
                "velocity": 80,
                "duration": 0.39318181818181586,
                "tempo": 120.0
            },
            {
                "start_time": 31.89772727272727,
                "end_time": 33.67727272727272,
                "pitch": 89,
                "velocity": 80,
                "duration": 1.7795454545454525,
                "tempo": 120.0
            },
            {
                "start_time": 34.49318181818182,
                "end_time": 34.877272727272725,
                "pitch": 89,
                "velocity": 80,
                "duration": 0.38409090909090793,
                "tempo": 120.0
            },
            {
                "start_time": 34.89545454545454,
                "end_time": 35.28409090909091,
                "pitch": 92,
                "velocity": 80,
                "duration": 0.38863636363636545,
                "tempo": 120.0
            },
            {
                "start_time": 36.79545454545455,
                "end_time": 36.87954545454545,
                "pitch": 94,
                "velocity": 80,
                "duration": 0.08409090909090366,
                "tempo": 120.0
            },
            {
                "start_time": 37.70227272727273,
                "end_time": 38.08409090909091,
                "pitch": 94,
                "velocity": 80,
                "duration": 0.3818181818181827,
                "tempo": 120.0
            }
        ],
        "Acoustic Bass": [
            {
                "start_time": 0.0,
                "end_time": 0.1659090909090909,
                "pitch": 60,
                "velocity": 51,
                "duration": 0.1659090909090909,
                "tempo": 120.0
            },
            {
                "start_time": 0.18409090909090908,
                "end_time": 0.3659090909090909,
                "pitch": 59,
                "velocity": 51,
                "duration": 0.18181818181818182,
                "tempo": 120.0
            },
            {
                "start_time": 0.3840909090909091,
                "end_time": 0.5659090909090909,
                "pitch": 58,
                "velocity": 51,
                "duration": 0.18181818181818182,
                "tempo": 120.0
            },
            {
                "start_time": 0.5840909090909091,
                "end_time": 0.7659090909090909,
                "pitch": 59,
                "velocity": 51,
                "duration": 0.18181818181818177,
                "tempo": 120.0
            },
            {
                "start_time": 0.7840909090909091,
                "end_time": 0.9659090909090908,
                "pitch": 60,
                "velocity": 51,
                "duration": 0.18181818181818177,
                "tempo": 120.0
            },
            {
                "start_time": 0.984090909090909,
                "end_time": 1.1659090909090908,
                "pitch": 59,
                "velocity": 51,
                "duration": 0.18181818181818177,
                "tempo": 120.0
            },
            {
                "start_time": 1.184090909090909,
                "end_time": 1.3659090909090907,
                "pitch": 58,
                "velocity": 51,
                "duration": 0.18181818181818166,
                "tempo": 120.0
            },
            {
                "start_time": 1.384090909090909,
                "end_time": 1.5681818181818181,
                "pitch": 59,
                "velocity": 51,
                "duration": 0.18409090909090908,
                "tempo": 120.0
            },
            {
                "start_time": 1.584090909090909,
                "end_time": 1.768181818181818,
                "pitch": 60,
                "velocity": 51,
                "duration": 0.18409090909090908,
                "tempo": 120.0
            },
            {
                "start_time": 1.7863636363636364,
                "end_time": 1.968181818181818,
                "pitch": 59,
                "velocity": 51,
                "duration": 0.18181818181818166,
                "tempo": 120.0
            },
            {
                "start_time": 1.9863636363636363,
                "end_time": 2.1704545454545454,
                "pitch": 58,
                "velocity": 51,
                "duration": 0.18409090909090908,
                "tempo": 120.0
            },
            {
                "start_time": 2.186363636363636,
                "end_time": 2.370454545454545,
                "pitch": 59,
                "velocity": 51,
                "duration": 0.18409090909090908,
                "tempo": 120.0
            },
            {
                "start_time": 2.3863636363636362,
                "end_time": 2.5727272727272728,
                "pitch": 60,
                "velocity": 51,
                "duration": 0.1863636363636365,
                "tempo": 120.0
            },
            {
                "start_time": 2.5886363636363634,
                "end_time": 2.7727272727272725,
                "pitch": 59,
                "velocity": 51,
                "duration": 0.18409090909090908,
                "tempo": 120.0
            },
            {
                "start_time": 2.7886363636363636,
                "end_time": 2.9727272727272727,
                "pitch": 58,
                "velocity": 51,
                "duration": 0.18409090909090908,
                "tempo": 120.0
            },
            {
                "start_time": 2.9886363636363633,
                "end_time": 3.1727272727272724,
                "pitch": 59,
                "velocity": 51,
                "duration": 0.18409090909090908,
                "tempo": 120.0
            },
            {
                "start_time": 3.1886363636363635,
                "end_time": 3.3727272727272726,
                "pitch": 60,
                "velocity": 51,
                "duration": 0.18409090909090908,
                "tempo": 120.0
            },
            {
                "start_time": 3.3886363636363637,
                "end_time": 3.5727272727272728,
                "pitch": 59,
                "velocity": 51,
                "duration": 0.18409090909090908,
                "tempo": 120.0
            },
            {
                "start_time": 3.5886363636363634,
                "end_time": 3.7727272727272725,
                "pitch": 58,
                "velocity": 51,
                "duration": 0.18409090909090908,
                "tempo": 120.0
            },
            {
                "start_time": 3.7886363636363636,
                "end_time": 3.9727272727272727,
                "pitch": 59,
                "velocity": 51,
                "duration": 0.18409090909090908,
                "tempo": 120.0
            },
            {
                "start_time": 3.9886363636363633,
                "end_time": 4.172727272727273,
                "pitch": 60,
                "velocity": 51,
                "duration": 0.18409090909090953,
                "tempo": 120.0
            },
            {
                "start_time": 4.1886363636363635,
                "end_time": 4.372727272727272,
                "pitch": 59,
                "velocity": 51,
                "duration": 0.18409090909090864,
                "tempo": 120.0
            },
            {
                "start_time": 4.390909090909091,
                "end_time": 4.575,
                "pitch": 58,
                "velocity": 51,
                "duration": 0.18409090909090953,
                "tempo": 120.0
            },
            {
                "start_time": 4.590909090909091,
                "end_time": 4.7749999999999995,
                "pitch": 59,
                "velocity": 51,
                "duration": 0.18409090909090864,
                "tempo": 120.0
            },
            {
                "start_time": 4.790909090909091,
                "end_time": 4.975,
                "pitch": 60,
                "velocity": 51,
                "duration": 0.18409090909090864,
                "tempo": 120.0
            },
            {
                "start_time": 4.99090909090909,
                "end_time": 5.175,
                "pitch": 59,
                "velocity": 51,
                "duration": 0.18409090909090953,
                "tempo": 120.0
            },
            {
                "start_time": 5.193181818181818,
                "end_time": 5.377272727272727,
                "pitch": 58,
                "velocity": 51,
                "duration": 0.18409090909090864,
                "tempo": 120.0
            },
            {
                "start_time": 5.393181818181818,
                "end_time": 5.579545454545454,
                "pitch": 59,
                "velocity": 51,
                "duration": 0.1863636363636365,
                "tempo": 120.0
            },
            {
                "start_time": 5.595454545454545,
                "end_time": 5.779545454545454,
                "pitch": 60,
                "velocity": 51,
                "duration": 0.18409090909090953,
                "tempo": 120.0
            },
            {
                "start_time": 5.797727272727273,
                "end_time": 5.9795454545454545,
                "pitch": 59,
                "velocity": 51,
                "duration": 0.18181818181818166,
                "tempo": 120.0
            },
            {
                "start_time": 5.997727272727272,
                "end_time": 6.179545454545455,
                "pitch": 58,
                "velocity": 51,
                "duration": 0.18181818181818254,
                "tempo": 120.0
            },
            {
                "start_time": 6.197727272727272,
                "end_time": 6.381818181818182,
                "pitch": 59,
                "velocity": 51,
                "duration": 0.18409090909090953,
                "tempo": 120.0
            },
            {
                "start_time": 6.3977272727272725,
                "end_time": 6.581818181818181,
                "pitch": 60,
                "velocity": 51,
                "duration": 0.18409090909090864,
                "tempo": 120.0
            },
            {
                "start_time": 6.6,
                "end_time": 6.781818181818181,
                "pitch": 59,
                "velocity": 51,
                "duration": 0.18181818181818166,
                "tempo": 120.0
            },
            {
                "start_time": 6.8,
                "end_time": 6.9818181818181815,
                "pitch": 58,
                "velocity": 51,
                "duration": 0.18181818181818166,
                "tempo": 120.0
            },
            {
                "start_time": 7.0,
                "end_time": 7.1886363636363635,
                "pitch": 59,
                "velocity": 51,
                "duration": 0.1886363636363635,
                "tempo": 120.0
            },
            {
                "start_time": 7.204545454545454,
                "end_time": 7.393181818181818,
                "pitch": 60,
                "velocity": 51,
                "duration": 0.1886363636363635,
                "tempo": 120.0
            },
            {
                "start_time": 7.409090909090909,
                "end_time": 7.588636363636363,
                "pitch": 59,
                "velocity": 51,
                "duration": 0.1795454545454538,
                "tempo": 120.0
            },
            {
                "start_time": 7.6068181818181815,
                "end_time": 7.786363636363636,
                "pitch": 58,
                "velocity": 51,
                "duration": 0.17954545454545467,
                "tempo": 120.0
            },
            {
                "start_time": 7.802272727272727,
                "end_time": 7.986363636363636,
                "pitch": 59,
                "velocity": 51,
                "duration": 0.18409090909090953,
                "tempo": 120.0
            },
            {
                "start_time": 8.002272727272727,
                "end_time": 8.186363636363636,
                "pitch": 60,
                "velocity": 51,
                "duration": 0.18409090909090864,
                "tempo": 120.0
            },
            {
                "start_time": 8.202272727272726,
                "end_time": 8.386363636363637,
                "pitch": 59,
                "velocity": 51,
                "duration": 0.18409090909091042,
                "tempo": 120.0
            },
            {
                "start_time": 8.404545454545454,
                "end_time": 8.588636363636363,
                "pitch": 58,
                "velocity": 51,
                "duration": 0.18409090909090864,
                "tempo": 120.0
            },
            {
                "start_time": 8.604545454545454,
                "end_time": 8.788636363636364,
                "pitch": 59,
                "velocity": 51,
                "duration": 0.18409090909091042,
                "tempo": 120.0
            },
            {
                "start_time": 8.806818181818182,
                "end_time": 8.99090909090909,
                "pitch": 60,
                "velocity": 51,
                "duration": 0.18409090909090864,
                "tempo": 120.0
            },
            {
                "start_time": 9.006818181818181,
                "end_time": 9.193181818181818,
                "pitch": 59,
                "velocity": 51,
                "duration": 0.1863636363636374,
                "tempo": 120.0
            },
            {
                "start_time": 9.209090909090909,
                "end_time": 9.393181818181818,
                "pitch": 58,
                "velocity": 51,
                "duration": 0.18409090909090864,
                "tempo": 120.0
            },
            {
                "start_time": 9.411363636363635,
                "end_time": 9.593181818181817,
                "pitch": 59,
                "velocity": 51,
                "duration": 0.18181818181818166,
                "tempo": 120.0
            },
            {
                "start_time": 9.611363636363636,
                "end_time": 9.793181818181818,
                "pitch": 60,
                "velocity": 51,
                "duration": 0.18181818181818166,
                "tempo": 120.0
            },
            {
                "start_time": 9.811363636363636,
                "end_time": 9.995454545454544,
                "pitch": 59,
                "velocity": 51,
                "duration": 0.18409090909090864,
                "tempo": 120.0
            },
            {
                "start_time": 10.011363636363637,
                "end_time": 10.195454545454545,
                "pitch": 58,
                "velocity": 51,
                "duration": 0.18409090909090864,
                "tempo": 120.0
            },
            {
                "start_time": 10.213636363636363,
                "end_time": 10.402272727272727,
                "pitch": 59,
                "velocity": 51,
                "duration": 0.18863636363636438,
                "tempo": 120.0
            },
            {
                "start_time": 10.418181818181818,
                "end_time": 10.60681818181818,
                "pitch": 60,
                "velocity": 51,
                "duration": 0.1886363636363626,
                "tempo": 120.0
            },
            {
                "start_time": 10.622727272727273,
                "end_time": 10.802272727272726,
                "pitch": 59,
                "velocity": 51,
                "duration": 0.1795454545454529,
                "tempo": 120.0
            },
            {
                "start_time": 10.820454545454545,
                "end_time": 11.0,
                "pitch": 58,
                "velocity": 51,
                "duration": 0.17954545454545467,
                "tempo": 120.0
            },
            {
                "start_time": 11.01590909090909,
                "end_time": 11.2,
                "pitch": 59,
                "velocity": 51,
                "duration": 0.18409090909090864,
                "tempo": 120.0
            },
            {
                "start_time": 11.218181818181817,
                "end_time": 11.402272727272727,
                "pitch": 60,
                "velocity": 51,
                "duration": 0.18409090909091042,
                "tempo": 120.0
            },
            {
                "start_time": 11.418181818181818,
                "end_time": 11.60681818181818,
                "pitch": 59,
                "velocity": 51,
                "duration": 0.1886363636363626,
                "tempo": 120.0
            },
            {
                "start_time": 11.625,
                "end_time": 11.813636363636363,
                "pitch": 58,
                "velocity": 51,
                "duration": 0.1886363636363626,
                "tempo": 120.0
            },
            {
                "start_time": 11.829545454545453,
                "end_time": 12.009090909090908,
                "pitch": 59,
                "velocity": 51,
                "duration": 0.17954545454545467,
                "tempo": 120.0
            },
            {
                "start_time": 12.024999999999999,
                "end_time": 12.204545454545453,
                "pitch": 60,
                "velocity": 51,
                "duration": 0.17954545454545467,
                "tempo": 120.0
            },
            {
                "start_time": 12.222727272727273,
                "end_time": 12.406818181818181,
                "pitch": 59,
                "velocity": 51,
                "duration": 0.18409090909090864,
                "tempo": 120.0
            },
            {
                "start_time": 12.422727272727272,
                "end_time": 12.60681818181818,
                "pitch": 58,
                "velocity": 51,
                "duration": 0.18409090909090864,
                "tempo": 120.0
            },
            {
                "start_time": 12.625,
                "end_time": 12.809090909090909,
                "pitch": 59,
                "velocity": 51,
                "duration": 0.18409090909090864,
                "tempo": 120.0
            },
            {
                "start_time": 12.825,
                "end_time": 13.009090909090908,
                "pitch": 65,
                "velocity": 51,
                "duration": 0.18409090909090864,
                "tempo": 120.0
            },
            {
                "start_time": 13.027272727272727,
                "end_time": 13.211363636363636,
                "pitch": 68,
                "velocity": 51,
                "duration": 0.18409090909090864,
                "tempo": 120.0
            },
            {
                "start_time": 13.227272727272727,
                "end_time": 13.413636363636362,
                "pitch": 70,
                "velocity": 51,
                "duration": 0.18636363636363562,
                "tempo": 120.0
            },
            {
                "start_time": 13.429545454545455,
                "end_time": 13.613636363636363,
                "pitch": 65,
                "velocity": 51,
                "duration": 0.18409090909090864,
                "tempo": 120.0
            },
            {
                "start_time": 13.629545454545454,
                "end_time": 13.813636363636363,
                "pitch": 68,
                "velocity": 51,
                "duration": 0.18409090909090864,
                "tempo": 120.0
            },
            {
                "start_time": 13.829545454545453,
                "end_time": 14.013636363636364,
                "pitch": 70,
                "velocity": 51,
                "duration": 0.18409090909091042,
                "tempo": 120.0
            },
            {
                "start_time": 14.031818181818181,
                "end_time": 14.21590909090909,
                "pitch": 65,
                "velocity": 51,
                "duration": 0.18409090909090864,
                "tempo": 120.0
            },
            {
                "start_time": 14.23181818181818,
                "end_time": 14.415909090909091,
                "pitch": 68,
                "velocity": 51,
                "duration": 0.18409090909091042,
                "tempo": 120.0
            },
            {
                "start_time": 14.434090909090909,
                "end_time": 14.618181818181817,
                "pitch": 70,
                "velocity": 51,
                "duration": 0.18409090909090864,
                "tempo": 120.0
            },
            {
                "start_time": 14.634090909090908,
                "end_time": 14.820454545454545,
                "pitch": 65,
                "velocity": 51,
                "duration": 0.1863636363636374,
                "tempo": 120.0
            },
            {
                "start_time": 14.836363636363636,
                "end_time": 15.020454545454545,
                "pitch": 68,
                "velocity": 51,
                "duration": 0.18409090909090864,
                "tempo": 120.0
            },
            {
                "start_time": 15.038636363636362,
                "end_time": 15.222727272727273,
                "pitch": 70,
                "velocity": 51,
                "duration": 0.18409090909091042,
                "tempo": 120.0
            },
            {
                "start_time": 15.238636363636363,
                "end_time": 15.422727272727272,
                "pitch": 65,
                "velocity": 51,
                "duration": 0.18409090909090864,
                "tempo": 120.0
            },
            {
                "start_time": 15.44090909090909,
                "end_time": 15.622727272727271,
                "pitch": 68,
                "velocity": 51,
                "duration": 0.18181818181818166,
                "tempo": 120.0
            },
            {
                "start_time": 15.64090909090909,
                "end_time": 15.822727272727272,
                "pitch": 70,
                "velocity": 51,
                "duration": 0.18181818181818166,
                "tempo": 120.0
            },
            {
                "start_time": 15.84090909090909,
                "end_time": 16.025,
                "pitch": 65,
                "velocity": 51,
                "duration": 0.18409090909090864,
                "tempo": 120.0
            },
            {
                "start_time": 16.04090909090909,
                "end_time": 16.227272727272727,
                "pitch": 67,
                "velocity": 51,
                "duration": 0.1863636363636374,
                "tempo": 120.0
            },
            {
                "start_time": 16.243181818181817,
                "end_time": 16.427272727272726,
                "pitch": 70,
                "velocity": 51,
                "duration": 0.18409090909090864,
                "tempo": 120.0
            },
            {
                "start_time": 16.445454545454545,
                "end_time": 16.629545454545454,
                "pitch": 72,
                "velocity": 51,
                "duration": 0.18409090909090864,
                "tempo": 120.0
            },
            {
                "start_time": 16.645454545454545,
                "end_time": 16.829545454545453,
                "pitch": 67,
                "velocity": 51,
                "duration": 0.18409090909090864,
                "tempo": 120.0
            },
            {
                "start_time": 16.845454545454544,
                "end_time": 17.029545454545453,
                "pitch": 70,
                "velocity": 51,
                "duration": 0.18409090909090864,
                "tempo": 120.0
            },
            {
                "start_time": 17.045454545454543,
                "end_time": 17.229545454545455,
                "pitch": 72,
                "velocity": 51,
                "duration": 0.1840909090909122,
                "tempo": 120.0
            },
            {
                "start_time": 17.24772727272727,
                "end_time": 17.43181818181818,
                "pitch": 67,
                "velocity": 51,
                "duration": 0.18409090909090864,
                "tempo": 120.0
            },
            {
                "start_time": 17.44772727272727,
                "end_time": 17.631818181818183,
                "pitch": 70,
                "velocity": 51,
                "duration": 0.1840909090909122,
                "tempo": 120.0
            },
            {
                "start_time": 17.647727272727273,
                "end_time": 17.831818181818182,
                "pitch": 72,
                "velocity": 51,
                "duration": 0.18409090909090864,
                "tempo": 120.0
            },
            {
                "start_time": 17.847727272727273,
                "end_time": 18.034090909090907,
                "pitch": 67,
                "velocity": 51,
                "duration": 0.18636363636363384,
                "tempo": 120.0
            },
            {
                "start_time": 18.05,
                "end_time": 18.23409090909091,
                "pitch": 70,
                "velocity": 51,
                "duration": 0.18409090909090864,
                "tempo": 120.0
            },
            {
                "start_time": 18.25,
                "end_time": 18.43409090909091,
                "pitch": 72,
                "velocity": 51,
                "duration": 0.18409090909090864,
                "tempo": 120.0
            },
            {
                "start_time": 18.45,
                "end_time": 18.634090909090908,
                "pitch": 67,
                "velocity": 51,
                "duration": 0.18409090909090864,
                "tempo": 120.0
            },
            {
                "start_time": 18.65,
                "end_time": 18.834090909090907,
                "pitch": 70,
                "velocity": 51,
                "duration": 0.18409090909090864,
                "tempo": 120.0
            },
            {
                "start_time": 18.849999999999998,
                "end_time": 19.034090909090907,
                "pitch": 72,
                "velocity": 51,
                "duration": 0.18409090909090864,
                "tempo": 120.0
            },
            {
                "start_time": 19.052272727272726,
                "end_time": 19.236363636363635,
                "pitch": 67,
                "velocity": 51,
                "duration": 0.18409090909090864,
                "tempo": 120.0
            },
            {
                "start_time": 19.252272727272725,
                "end_time": 19.436363636363634,
                "pitch": 65,
                "velocity": 51,
                "duration": 0.18409090909090864,
                "tempo": 120.0
            },
            {
                "start_time": 19.454545454545453,
                "end_time": 19.636363636363637,
                "pitch": 68,
                "velocity": 51,
                "duration": 0.18181818181818343,
                "tempo": 120.0
            },
            {
                "start_time": 19.654545454545453,
                "end_time": 19.836363636363636,
                "pitch": 70,
                "velocity": 51,
                "duration": 0.18181818181818343,
                "tempo": 120.0
            },
            {
                "start_time": 19.854545454545452,
                "end_time": 20.038636363636364,
                "pitch": 65,
                "velocity": 51,
                "duration": 0.1840909090909122,
                "tempo": 120.0
            },
            {
                "start_time": 20.054545454545455,
                "end_time": 20.238636363636363,
                "pitch": 68,
                "velocity": 51,
                "duration": 0.18409090909090864,
                "tempo": 120.0
            },
            {
                "start_time": 20.25681818181818,
                "end_time": 20.438636363636363,
                "pitch": 70,
                "velocity": 51,
                "duration": 0.18181818181818343,
                "tempo": 120.0
            },
            {
                "start_time": 20.456818181818182,
                "end_time": 20.638636363636362,
                "pitch": 65,
                "velocity": 51,
                "duration": 0.18181818181817988,
                "tempo": 120.0
            },
            {
                "start_time": 20.65681818181818,
                "end_time": 20.83863636363636,
                "pitch": 68,
                "velocity": 51,
                "duration": 0.18181818181817988,
                "tempo": 120.0
            },
            {
                "start_time": 20.85681818181818,
                "end_time": 21.038636363636364,
                "pitch": 70,
                "velocity": 51,
                "duration": 0.18181818181818343,
                "tempo": 120.0
            },
            {
                "start_time": 21.05681818181818,
                "end_time": 21.24090909090909,
                "pitch": 65,
                "velocity": 51,
                "duration": 0.18409090909090864,
                "tempo": 120.0
            },
            {
                "start_time": 21.25681818181818,
                "end_time": 21.443181818181817,
                "pitch": 68,
                "velocity": 51,
                "duration": 0.1863636363636374,
                "tempo": 120.0
            },
            {
                "start_time": 21.459090909090907,
                "end_time": 21.643181818181816,
                "pitch": 70,
                "velocity": 51,
                "duration": 0.18409090909090864,
                "tempo": 120.0
            },
            {
                "start_time": 21.659090909090907,
                "end_time": 21.84318181818182,
                "pitch": 65,
                "velocity": 51,
                "duration": 0.1840909090909122,
                "tempo": 120.0
            },
            {
                "start_time": 21.85909090909091,
                "end_time": 22.043181818181818,
                "pitch": 68,
                "velocity": 51,
                "duration": 0.18409090909090864,
                "tempo": 120.0
            },
            {
                "start_time": 22.061363636363634,
                "end_time": 22.245454545454546,
                "pitch": 70,
                "velocity": 51,
                "duration": 0.1840909090909122,
                "tempo": 120.0
            },
            {
                "start_time": 22.261363636363637,
                "end_time": 22.445454545454545,
                "pitch": 65,
                "velocity": 51,
                "duration": 0.18409090909090864,
                "tempo": 120.0
            },
            {
                "start_time": 22.461363636363636,
                "end_time": 22.645454545454545,
                "pitch": 72,
                "velocity": 51,
                "duration": 0.18409090909090864,
                "tempo": 120.0
            },
            {
                "start_time": 22.661363636363635,
                "end_time": 22.845454545454544,
                "pitch": 71,
                "velocity": 51,
                "duration": 0.18409090909090864,
                "tempo": 120.0
            },
            {
                "start_time": 22.861363636363635,
                "end_time": 23.045454545454543,
                "pitch": 70,
                "velocity": 51,
                "duration": 0.18409090909090864,
                "tempo": 120.0
            },
            {
                "start_time": 23.061363636363634,
                "end_time": 23.44772727272727,
                "pitch": 68,
                "velocity": 51,
                "duration": 0.3863636363636367,
                "tempo": 120.0
            },
            {
                "start_time": 23.46363636363636,
                "end_time": 23.847727272727273,
                "pitch": 65,
                "velocity": 51,
                "duration": 0.3840909090909115,
                "tempo": 120.0
            },
            {
                "start_time": 23.86590909090909,
                "end_time": 24.052272727272726,
                "pitch": 60,
                "velocity": 51,
                "duration": 0.1863636363636374,
                "tempo": 120.0
            },
            {
                "start_time": 24.070454545454545,
                "end_time": 24.259090909090908,
                "pitch": 60,
                "velocity": 51,
                "duration": 0.1886363636363626,
                "tempo": 120.0
            },
            {
                "start_time": 24.275,
                "end_time": 25.654545454545453,
                "pitch": 63,
                "velocity": 51,
                "duration": 1.379545454545454,
                "tempo": 120.0
            },
            {
                "start_time": 25.672727272727272,
                "end_time": 25.86590909090909,
                "pitch": 65,
                "velocity": 51,
                "duration": 0.19318181818181657,
                "tempo": 120.0
            },
            {
                "start_time": 25.88181818181818,
                "end_time": 26.061363636363634,
                "pitch": 68,
                "velocity": 51,
                "duration": 0.17954545454545467,
                "tempo": 120.0
            },
            {
                "start_time": 26.077272727272724,
                "end_time": 26.25681818181818,
                "pitch": 70,
                "velocity": 51,
                "duration": 0.17954545454545467,
                "tempo": 120.0
            },
            {
                "start_time": 26.27272727272727,
                "end_time": 26.456818181818182,
                "pitch": 65,
                "velocity": 51,
                "duration": 0.1840909090909122,
                "tempo": 120.0
            },
            {
                "start_time": 26.472727272727273,
                "end_time": 26.65681818181818,
                "pitch": 68,
                "velocity": 51,
                "duration": 0.18409090909090864,
                "tempo": 120.0
            },
            {
                "start_time": 26.672727272727272,
                "end_time": 26.85681818181818,
                "pitch": 70,
                "velocity": 51,
                "duration": 0.18409090909090864,
                "tempo": 120.0
            },
            {
                "start_time": 26.87272727272727,
                "end_time": 27.05681818181818,
                "pitch": 65,
                "velocity": 51,
                "duration": 0.18409090909090864,
                "tempo": 120.0
            },
            {
                "start_time": 27.075,
                "end_time": 27.259090909090908,
                "pitch": 68,
                "velocity": 51,
                "duration": 0.18409090909090864,
                "tempo": 120.0
            },
            {
                "start_time": 27.275,
                "end_time": 27.459090909090907,
                "pitch": 70,
                "velocity": 51,
                "duration": 0.18409090909090864,
                "tempo": 120.0
            },
            {
                "start_time": 27.477272727272727,
                "end_time": 27.659090909090907,
                "pitch": 65,
                "velocity": 51,
                "duration": 0.18181818181817988,
                "tempo": 120.0
            },
            {
                "start_time": 27.677272727272726,
                "end_time": 27.85909090909091,
                "pitch": 68,
                "velocity": 51,
                "duration": 0.18181818181818343,
                "tempo": 120.0
            },
            {
                "start_time": 27.877272727272725,
                "end_time": 28.061363636363634,
                "pitch": 70,
                "velocity": 51,
                "duration": 0.18409090909090864,
                "tempo": 120.0
            },
            {
                "start_time": 28.077272727272724,
                "end_time": 28.261363636363637,
                "pitch": 65,
                "velocity": 51,
                "duration": 0.1840909090909122,
                "tempo": 120.0
            },
            {
                "start_time": 28.279545454545453,
                "end_time": 28.461363636363636,
                "pitch": 68,
                "velocity": 51,
                "duration": 0.18181818181818343,
                "tempo": 120.0
            },
            {
                "start_time": 28.479545454545452,
                "end_time": 28.661363636363635,
                "pitch": 70,
                "velocity": 51,
                "duration": 0.18181818181818343,
                "tempo": 120.0
            },
            {
                "start_time": 28.679545454545455,
                "end_time": 28.861363636363635,
                "pitch": 65,
                "velocity": 51,
                "duration": 0.18181818181817988,
                "tempo": 120.0
            },
            {
                "start_time": 28.879545454545454,
                "end_time": 29.061363636363634,
                "pitch": 67,
                "velocity": 51,
                "duration": 0.18181818181817988,
                "tempo": 120.0
            },
            {
                "start_time": 29.079545454545453,
                "end_time": 29.268181818181816,
                "pitch": 70,
                "velocity": 51,
                "duration": 0.1886363636363626,
                "tempo": 120.0
            },
            {
                "start_time": 29.284090909090907,
                "end_time": 29.472727272727273,
                "pitch": 72,
                "velocity": 51,
                "duration": 0.18863636363636616,
                "tempo": 120.0
            },
            {
                "start_time": 29.488636363636363,
                "end_time": 29.668181818181818,
                "pitch": 67,
                "velocity": 51,
                "duration": 0.17954545454545467,
                "tempo": 120.0
            },
            {
                "start_time": 29.686363636363634,
                "end_time": 29.86590909090909,
                "pitch": 70,
                "velocity": 51,
                "duration": 0.17954545454545467,
                "tempo": 120.0
            },
            {
                "start_time": 29.88181818181818,
                "end_time": 30.065909090909088,
                "pitch": 72,
                "velocity": 51,
                "duration": 0.18409090909090864,
                "tempo": 120.0
            },
            {
                "start_time": 30.084090909090907,
                "end_time": 30.268181818181816,
                "pitch": 67,
                "velocity": 51,
                "duration": 0.18409090909090864,
                "tempo": 120.0
            },
            {
                "start_time": 30.284090909090907,
                "end_time": 30.468181818181815,
                "pitch": 70,
                "velocity": 51,
                "duration": 0.18409090909090864,
                "tempo": 120.0
            },
            {
                "start_time": 30.48409090909091,
                "end_time": 30.668181818181818,
                "pitch": 72,
                "velocity": 51,
                "duration": 0.18409090909090864,
                "tempo": 120.0
            },
            {
                "start_time": 30.68409090909091,
                "end_time": 30.868181818181817,
                "pitch": 67,
                "velocity": 51,
                "duration": 0.18409090909090864,
                "tempo": 120.0
            },
            {
                "start_time": 30.884090909090908,
                "end_time": 31.068181818181817,
                "pitch": 70,
                "velocity": 51,
                "duration": 0.18409090909090864,
                "tempo": 120.0
            },
            {
                "start_time": 31.084090909090907,
                "end_time": 31.270454545454545,
                "pitch": 72,
                "velocity": 51,
                "duration": 0.1863636363636374,
                "tempo": 120.0
            },
            {
                "start_time": 31.286363636363635,
                "end_time": 31.470454545454544,
                "pitch": 67,
                "velocity": 51,
                "duration": 0.18409090909090864,
                "tempo": 120.0
            },
            {
                "start_time": 31.488636363636363,
                "end_time": 31.674999999999997,
                "pitch": 70,
                "velocity": 51,
                "duration": 0.18636363636363384,
                "tempo": 120.0
            },
            {
                "start_time": 31.693181818181817,
                "end_time": 31.88181818181818,
                "pitch": 72,
                "velocity": 51,
                "duration": 0.1886363636363626,
                "tempo": 120.0
            },
            {
                "start_time": 31.89772727272727,
                "end_time": 32.08181818181818,
                "pitch": 67,
                "velocity": 51,
                "duration": 0.18409090909090864,
                "tempo": 120.0
            },
            {
                "start_time": 32.09772727272727,
                "end_time": 32.28181818181818,
                "pitch": 65,
                "velocity": 51,
                "duration": 0.1840909090909122,
                "tempo": 120.0
            },
            {
                "start_time": 32.29772727272727,
                "end_time": 32.47727272727273,
                "pitch": 68,
                "velocity": 51,
                "duration": 0.17954545454545467,
                "tempo": 120.0
            },
            {
                "start_time": 32.49318181818182,
                "end_time": 32.675,
                "pitch": 70,
                "velocity": 51,
                "duration": 0.18181818181817988,
                "tempo": 120.0
            },
            {
                "start_time": 32.69090909090909,
                "end_time": 32.875,
                "pitch": 65,
                "velocity": 51,
                "duration": 0.1840909090909122,
                "tempo": 120.0
            },
            {
                "start_time": 32.89090909090909,
                "end_time": 33.07727272727273,
                "pitch": 68,
                "velocity": 51,
                "duration": 0.1863636363636374,
                "tempo": 120.0
            },
            {
                "start_time": 33.09318181818182,
                "end_time": 33.277272727272724,
                "pitch": 70,
                "velocity": 51,
                "duration": 0.18409090909090509,
                "tempo": 120.0
            },
            {
                "start_time": 33.293181818181814,
                "end_time": 33.47727272727273,
                "pitch": 65,
                "velocity": 51,
                "duration": 0.1840909090909122,
                "tempo": 120.0
            },
            {
                "start_time": 33.49318181818182,
                "end_time": 33.67727272727272,
                "pitch": 68,
                "velocity": 51,
                "duration": 0.18409090909090509,
                "tempo": 120.0
            },
            {
                "start_time": 33.69318181818181,
                "end_time": 33.877272727272725,
                "pitch": 70,
                "velocity": 51,
                "duration": 0.1840909090909122,
                "tempo": 120.0
            },
            {
                "start_time": 33.893181818181816,
                "end_time": 34.07727272727273,
                "pitch": 65,
                "velocity": 51,
                "duration": 0.1840909090909122,
                "tempo": 120.0
            },
            {
                "start_time": 34.09318181818182,
                "end_time": 34.277272727272724,
                "pitch": 68,
                "velocity": 51,
                "duration": 0.18409090909090509,
                "tempo": 120.0
            },
            {
                "start_time": 34.293181818181814,
                "end_time": 34.47727272727273,
                "pitch": 70,
                "velocity": 51,
                "duration": 0.1840909090909122,
                "tempo": 120.0
            },
            {
                "start_time": 34.49318181818182,
                "end_time": 34.67727272727272,
                "pitch": 65,
                "velocity": 51,
                "duration": 0.18409090909090509,
                "tempo": 120.0
            },
            {
                "start_time": 34.69318181818181,
                "end_time": 34.877272727272725,
                "pitch": 68,
                "velocity": 51,
                "duration": 0.1840909090909122,
                "tempo": 120.0
            },
            {
                "start_time": 34.89545454545454,
                "end_time": 35.07954545454545,
                "pitch": 70,
                "velocity": 51,
                "duration": 0.1840909090909122,
                "tempo": 120.0
            },
            {
                "start_time": 35.095454545454544,
                "end_time": 35.28409090909091,
                "pitch": 65,
                "velocity": 51,
                "duration": 0.1886363636363626,
                "tempo": 120.0
            },
            {
                "start_time": 35.30227272727272,
                "end_time": 35.49090909090909,
                "pitch": 72,
                "velocity": 51,
                "duration": 0.1886363636363697,
                "tempo": 120.0
            },
            {
                "start_time": 35.50681818181818,
                "end_time": 36.675,
                "pitch": 75,
                "velocity": 51,
                "duration": 1.1681818181818144,
                "tempo": 120.0
            },
            {
                "start_time": 36.69090909090909,
                "end_time": 36.777272727272724,
                "pitch": 72,
                "velocity": 51,
                "duration": 0.08636363636363598,
                "tempo": 120.0
            },
            {
                "start_time": 36.79545454545455,
                "end_time": 36.87954545454545,
                "pitch": 70,
                "velocity": 51,
                "duration": 0.08409090909090366,
                "tempo": 120.0
            },
            {
                "start_time": 36.89772727272727,
                "end_time": 37.68636363636364,
                "pitch": 72,
                "velocity": 51,
                "duration": 0.788636363636364,
                "tempo": 120.0
            },
            {
                "start_time": 37.70227272727273,
                "end_time": 37.877272727272725,
                "pitch": 72,
                "velocity": 51,
                "duration": 0.17499999999999716,
                "tempo": 120.0
            },
            {
                "start_time": 37.89545454545454,
                "end_time": 38.48863636363636,
                "pitch": 71,
                "velocity": 51,
                "duration": 0.5931818181818187,
                "tempo": 120.0
            }
        ]
    }
}