{
    "track_id": "Captain Silver (FM) - 04 - Eerie Piper",
    "mood": "sad",
    "instruments": {
        "Church Organ": [
            {
                "start_time": 0.0,
                "end_time": 0.1659090909090909,
                "pitch": 72,
                "velocity": 80,
                "duration": 0.1659090909090909,
                "tempo": 120.0
            },
            {
                "start_time": 0.18409090909090908,
                "end_time": 0.3659090909090909,
                "pitch": 74,
                "velocity": 80,
                "duration": 0.18181818181818182,
                "tempo": 120.0
            },
            {
                "start_time": 0.3840909090909091,
                "end_time": 0.5681818181818181,
                "pitch": 75,
                "velocity": 80,
                "duration": 0.18409090909090903,
                "tempo": 120.0
            },
            {
                "start_time": 0.5840909090909091,
                "end_time": 0.7681818181818182,
                "pitch": 77,
                "velocity": 80,
                "duration": 0.18409090909090908,
                "tempo": 120.0
            },
            {
                "start_time": 0.7840909090909091,
                "end_time": 0.9613636363636363,
                "pitch": 79,
                "velocity": 80,
                "duration": 0.17727272727272725,
                "tempo": 120.0
            },
            {
                "start_time": 0.9772727272727272,
                "end_time": 1.1522727272727271,
                "pitch": 84,
                "velocity": 80,
                "duration": 0.17499999999999993,
                "tempo": 120.0
            },
            {
                "start_time": 1.1681818181818182,
                "end_time": 1.218181818181818,
                "pitch": 79,
                "velocity": 80,
                "duration": 0.04999999999999982,
                "tempo": 120.0
            },
            {
                "start_time": 1.2340909090909091,
                "end_time": 1.284090909090909,
                "pitch": 80,
                "velocity": 80,
                "duration": 0.04999999999999982,
                "tempo": 120.0
            },
            {
                "start_time": 1.3022727272727272,
                "end_time": 1.5522727272727272,
                "pitch": 79,
                "velocity": 80,
                "duration": 0.25,
                "tempo": 120.0
            },
            {
                "start_time": 1.5681818181818181,
                "end_time": 1.7613636363636362,
                "pitch": 78,
                "velocity": 80,
                "duration": 0.19318181818181812,
                "tempo": 120.0
            },
            {
                "start_time": 1.7795454545454545,
                "end_time": 1.9727272727272727,
                "pitch": 84,
                "velocity": 80,
                "duration": 0.19318181818181812,
                "tempo": 120.0
            },
            {
                "start_time": 1.9909090909090907,
                "end_time": 2.040909090909091,
                "pitch": 78,
                "velocity": 80,
                "duration": 0.050000000000000266,
                "tempo": 120.0
            },
            {
                "start_time": 2.0568181818181817,
                "end_time": 2.106818181818182,
                "pitch": 79,
                "velocity": 80,
                "duration": 0.050000000000000266,
                "tempo": 120.0
            },
            {
                "start_time": 2.1227272727272726,
                "end_time": 2.3727272727272726,
                "pitch": 78,
                "velocity": 80,
                "duration": 0.25,
                "tempo": 120.0
            },
            {
                "start_time": 2.3909090909090907,
                "end_time": 2.565909090909091,
                "pitch": 77,
                "velocity": 80,
                "duration": 0.17500000000000027,
                "tempo": 120.0
            },
            {
                "start_time": 2.5818181818181816,
                "end_time": 2.756818181818182,
                "pitch": 84,
                "velocity": 80,
                "duration": 0.17500000000000027,
                "tempo": 120.0
            },
            {
                "start_time": 2.7727272727272725,
                "end_time": 2.8249999999999997,
                "pitch": 77,
                "velocity": 80,
                "duration": 0.05227272727272725,
                "tempo": 120.0
            },
            {
                "start_time": 2.840909090909091,
                "end_time": 2.8954545454545455,
                "pitch": 78,
                "velocity": 80,
                "duration": 0.054545454545454675,
                "tempo": 120.0
            },
            {
                "start_time": 2.911363636363636,
                "end_time": 3.1772727272727272,
                "pitch": 77,
                "velocity": 80,
                "duration": 0.2659090909090911,
                "tempo": 120.0
            },
            {
                "start_time": 3.193181818181818,
                "end_time": 3.368181818181818,
                "pitch": 72,
                "velocity": 80,
                "duration": 0.17500000000000027,
                "tempo": 120.0
            },
            {
                "start_time": 3.384090909090909,
                "end_time": 3.559090909090909,
                "pitch": 74,
                "velocity": 80,
                "duration": 0.17500000000000027,
                "tempo": 120.0
            },
            {
                "start_time": 3.5749999999999997,
                "end_time": 3.759090909090909,
                "pitch": 75,
                "velocity": 80,
                "duration": 0.18409090909090908,
                "tempo": 120.0
            },
            {
                "start_time": 3.775,
                "end_time": 3.959090909090909,
                "pitch": 77,
                "velocity": 80,
                "duration": 0.18409090909090908,
                "tempo": 120.0
            },
            {
                "start_time": 3.9749999999999996,
                "end_time": 4.159090909090909,
                "pitch": 79,
                "velocity": 80,
                "duration": 0.18409090909090953,
                "tempo": 120.0
            },
            {
                "start_time": 4.177272727272727,
                "end_time": 4.361363636363636,
                "pitch": 78,
                "velocity": 80,
                "duration": 0.18409090909090953,
                "tempo": 120.0
            },
            {
                "start_time": 4.377272727272727,
                "end_time": 4.5613636363636365,
                "pitch": 79,
                "velocity": 80,
                "duration": 0.18409090909090953,
                "tempo": 120.0
            },
            {
                "start_time": 4.577272727272727,
                "end_time": 4.761363636363636,
                "pitch": 84,
                "velocity": 80,
                "duration": 0.18409090909090864,
                "tempo": 120.0
            },
            {
                "start_time": 4.777272727272727,
                "end_time": 4.961363636363636,
                "pitch": 87,
                "velocity": 80,
                "duration": 0.18409090909090864,
                "tempo": 120.0
            },
            {
                "start_time": 4.977272727272727,
                "end_time": 5.161363636363636,
                "pitch": 84,
                "velocity": 80,
                "duration": 0.18409090909090953,
                "tempo": 120.0
            },
            {
                "start_time": 5.177272727272727,
                "end_time": 5.363636363636363,
                "pitch": 86,
                "velocity": 80,
                "duration": 0.1863636363636365,
                "tempo": 120.0
            },
            {
                "start_time": 5.379545454545454,
                "end_time": 5.5636363636363635,
                "pitch": 83,
                "velocity": 80,
                "duration": 0.18409090909090953,
                "tempo": 120.0
            },
            {
                "start_time": 5.581818181818181,
                "end_time": 6.404545454545454,
                "pitch": 84,
                "velocity": 80,
                "duration": 0.8227272727272732,
                "tempo": 120.0
            }
        ],
        "Acoustic Bass": [
            {
                "start_time": 0.0,
                "end_time": 0.3659090909090909,
                "pitch": 48,
                "velocity": 51,
                "duration": 0.3659090909090909,
                "tempo": 120.0
            },
            {
                "start_time": 0.3840909090909091,
                "end_time": 0.7681818181818182,
                "pitch": 55,
                "velocity": 51,
                "duration": 0.3840909090909091,
                "tempo": 120.0
            },
            {
                "start_time": 0.7840909090909091,
                "end_time": 1.1522727272727271,
                "pitch": 48,
                "velocity": 51,
                "duration": 0.36818181818181805,
                "tempo": 120.0
            },
            {
                "start_time": 1.1681818181818182,
                "end_time": 1.5522727272727272,
                "pitch": 55,
                "velocity": 51,
                "duration": 0.38409090909090904,
                "tempo": 120.0
            },
            {
                "start_time": 1.5681818181818181,
                "end_time": 1.9727272727272727,
                "pitch": 44,
                "velocity": 51,
                "duration": 0.40454545454545454,
                "tempo": 120.0
            },
            {
                "start_time": 1.9909090909090907,
                "end_time": 2.3727272727272726,
                "pitch": 51,
                "velocity": 51,
                "duration": 0.38181818181818183,
                "tempo": 120.0
            },
            {
                "start_time": 2.3909090909090907,
                "end_time": 2.756818181818182,
                "pitch": 41,
                "velocity": 51,
                "duration": 0.3659090909090912,
                "tempo": 120.0
            },
            {
                "start_time": 2.7727272727272725,
                "end_time": 3.1772727272727272,
                "pitch": 47,
                "velocity": 51,
                "duration": 0.40454545454545476,
                "tempo": 120.0
            },
            {
                "start_time": 3.193181818181818,
                "end_time": 3.559090909090909,
                "pitch": 48,
                "velocity": 51,
                "duration": 0.3659090909090912,
                "tempo": 120.0
            },
            {
                "start_time": 3.5749999999999997,
                "end_time": 3.959090909090909,
                "pitch": 55,
                "velocity": 51,
                "duration": 0.38409090909090926,
                "tempo": 120.0
            },
            {
                "start_time": 3.9749999999999996,
                "end_time": 4.361363636363636,
                "pitch": 48,
                "velocity": 51,
                "duration": 0.3863636363636367,
                "tempo": 120.0
            },
            {
                "start_time": 4.377272727272727,
                "end_time": 4.761363636363636,
                "pitch": 55,
                "velocity": 51,
                "duration": 0.3840909090909088,
                "tempo": 120.0
            },
            {
                "start_time": 4.777272727272727,
                "end_time": 5.161363636363636,
                "pitch": 48,
                "velocity": 51,
                "duration": 0.3840909090909088,
                "tempo": 120.0
            },
            {
                "start_time": 5.177272727272727,
                "end_time": 5.5636363636363635,
                "pitch": 43,
                "velocity": 51,
                "duration": 0.3863636363636367,
                "tempo": 120.0
            },
            {
                "start_time": 5.581818181818181,
                "end_time": 6.404545454545454,
                "pitch": 48,
                "velocity": 51,
                "duration": 0.8227272727272732,
                "tempo": 120.0
            }
        ],
        "Flute": [
            {
                "start_time": 0.0,
                "end_time": 0.3659090909090909,
                "pitch": 72,
                "velocity": 51,
                "duration": 0.3659090909090909,
                "tempo": 120.0
            },
            {
                "start_time": 0.3840909090909091,
                "end_time": 0.7681818181818182,
                "pitch": 71,
                "velocity": 51,
                "duration": 0.3840909090909091,
                "tempo": 120.0
            },
            {
                "start_time": 0.7840909090909091,
                "end_time": 1.1522727272727271,
                "pitch": 70,
                "velocity": 51,
                "duration": 0.36818181818181805,
                "tempo": 120.0
            },
            {
                "start_time": 1.1681818181818182,
                "end_time": 1.5522727272727272,
                "pitch": 69,
                "velocity": 51,
                "duration": 0.38409090909090904,
                "tempo": 120.0
            },
            {
                "start_time": 1.5681818181818181,
                "end_time": 2.3727272727272726,
                "pitch": 68,
                "velocity": 51,
                "duration": 0.8045454545454545,
                "tempo": 120.0
            },
            {
                "start_time": 2.3909090909090907,
                "end_time": 2.756818181818182,
                "pitch": 65,
                "velocity": 51,
                "duration": 0.3659090909090912,
                "tempo": 120.0
            },
            {
                "start_time": 2.7727272727272725,
                "end_time": 3.1772727272727272,
                "pitch": 71,
                "velocity": 51,
                "duration": 0.40454545454545476,
                "tempo": 120.0
            },
            {
                "start_time": 3.193181818181818,
                "end_time": 3.559090909090909,
                "pitch": 72,
                "velocity": 51,
                "duration": 0.3659090909090912,
                "tempo": 120.0
            },
            {
                "start_time": 3.5749999999999997,
                "end_time": 3.959090909090909,
                "pitch": 71,
                "velocity": 51,
                "duration": 0.38409090909090926,
                "tempo": 120.0
            },
            {
                "start_time": 3.9749999999999996,
                "end_time": 4.361363636363636,
                "pitch": 70,
                "velocity": 51,
                "duration": 0.3863636363636367,
                "tempo": 120.0
            },
            {
                "start_time": 4.377272727272727,
                "end_time": 4.761363636363636,
                "pitch": 69,
                "velocity": 51,
                "duration": 0.3840909090909088,
                "tempo": 120.0
            },
            {
                "start_time": 4.777272727272727,
                "end_time": 5.161363636363636,
                "pitch": 68,
                "velocity": 51,
                "duration": 0.3840909090909088,
                "tempo": 120.0
            },
            {
                "start_time": 5.177272727272727,
                "end_time": 5.5636363636363635,
                "pitch": 67,
                "velocity": 51,
                "duration": 0.3863636363636367,
                "tempo": 120.0
            },
            {
                "start_time": 5.581818181818181,
                "end_time": 6.404545454545454,
                "pitch": 67,
                "velocity": 51,
                "duration": 0.8227272727272732,
                "tempo": 120.0
            }
        ]
    }
}