{
    "track_id": "Captain Silver (FM) - 02 - Scene Start",
    "mood": "sad",
    "instruments": {
        "Clarinet": [
            {
                "start_time": 0.0,
                "end_time": 0.05909090909090909,
                "pitch": 79,
                "velocity": 101,
                "duration": 0.05909090909090909,
                "tempo": 120.0
            },
            {
                "start_time": 0.17727272727272728,
                "end_time": 0.36818181818181817,
                "pitch": 78,
                "velocity": 101,
                "duration": 0.1909090909090909,
                "tempo": 120.0
            },
            {
                "start_time": 0.3840909090909091,
                "end_time": 0.47045454545454546,
                "pitch": 79,
                "velocity": 101,
                "duration": 0.08636363636363636,
                "tempo": 120.0
            },
            {
                "start_time": 0.5886363636363636,
                "end_time": 0.7840909090909091,
                "pitch": 75,
                "velocity": 101,
                "duration": 0.19545454545454544,
                "tempo": 120.0
            },
            {
                "start_time": 0.8159090909090909,
                "end_time": 2.6045454545454545,
                "pitch": 74,
                "velocity": 101,
                "duration": 1.7886363636363636,
                "tempo": 120.0
            }
        ],
        "French Horn": [
            {
                "start_time": 0.0,
                "end_time": 0.05909090909090909,
                "pitch": 51,
                "velocity": 51,
                "duration": 0.05909090909090909,
                "tempo": 120.0
            },
            {
                "start_time": 0.17727272727272728,
                "end_time": 0.36818181818181817,
                "pitch": 50,
                "velocity": 51,
                "duration": 0.1909090909090909,
                "tempo": 120.0
            },
            {
                "start_time": 0.3840909090909091,
                "end_time": 0.47045454545454546,
                "pitch": 51,
                "velocity": 51,
                "duration": 0.08636363636363636,
                "tempo": 120.0
            },
            {
                "start_time": 0.5886363636363636,
                "end_time": 0.7840909090909091,
                "pitch": 48,
                "velocity": 51,
                "duration": 0.19545454545454544,
                "tempo": 120.0
            },
            {
                "start_time": 0.8159090909090909,
                "end_time": 2.6045454545454545,
                "pitch": 46,
                "velocity": 51,
                "duration": 1.7886363636363636,
                "tempo": 120.0
            }
        ],
        "Church Organ": [
            {
                "start_time": 0.0,
                "end_time": 0.05909090909090909,
                "pitch": 70,
                "velocity": 51,
                "duration": 0.05909090909090909,
                "tempo": 120.0
            },
            {
                "start_time": 0.17727272727272728,
                "end_time": 0.36818181818181817,
                "pitch": 69,
                "velocity": 51,
                "duration": 0.1909090909090909,
                "tempo": 120.0
            },
            {
                "start_time": 0.3840909090909091,
                "end_time": 0.47045454545454546,
                "pitch": 70,
                "velocity": 51,
                "duration": 0.08636363636363636,
                "tempo": 120.0
            },
            {
                "start_time": 0.5886363636363636,
                "end_time": 0.7840909090909091,
                "pitch": 67,
                "velocity": 51,
                "duration": 0.19545454545454544,
                "tempo": 120.0
            },
            {
                "start_time": 0.8159090909090909,
                "end_time": 2.6045454545454545,
                "pitch": 65,
                "velocity": 51,
                "duration": 1.7886363636363636,
                "tempo": 120.0
            }
        ],
        "Acoustic Grand Piano": [
            {
                "start_time": 0.0,
                "end_time": 0.07272727272727272,
                "pitch": 63,
                "velocity": 25,
                "duration": 0.07272727272727272,
                "tempo": 120.0
            },
            {
                "start_time": 0.20681818181818182,
                "end_time": 0.3840909090909091,
                "pitch": 62,
                "velocity": 25,
                "duration": 0.17727272727272728,
                "tempo": 120.0
            },
            {
                "start_time": 0.4113636363636363,
                "end_time": 0.48636363636363633,
                "pitch": 63,
                "velocity": 25,
                "duration": 0.07500000000000001,
                "tempo": 120.0
            },
            {
                "start_time": 0.6181818181818182,
                "end_time": 0.85,
                "pitch": 60,
                "velocity": 25,
                "duration": 0.2318181818181818,
                "tempo": 120.0
            },
            {
                "start_time": 0.8818181818181817,
                "end_time": 2.6386363636363637,
                "pitch": 58,
                "velocity": 25,
                "duration": 1.7568181818181818,
                "tempo": 120.0
            }
        ]
    }
}