{
    "track_id": "Captain Silver (FM) - 08 - Captain Silver_s Treasure Island",
    "mood": "sad",
    "instruments": {
        "Oboe": [
            {
                "start_time": 0.15,
                "end_time": 0.1659090909090909,
                "pitch": 70,
                "velocity": 80,
                "duration": 0.0159090909090909,
                "tempo": 120.0
            },
            {
                "start_time": 0.18409090909090908,
                "end_time": 0.2659090909090909,
                "pitch": 71,
                "velocity": 80,
                "duration": 0.08181818181818179,
                "tempo": 120.0
            },
            {
                "start_time": 0.28409090909090906,
                "end_time": 0.33409090909090905,
                "pitch": 71,
                "velocity": 80,
                "duration": 0.04999999999999999,
                "tempo": 120.0
            },
            {
                "start_time": 0.35,
                "end_time": 0.3659090909090909,
                "pitch": 70,
                "velocity": 80,
                "duration": 0.01590909090909093,
                "tempo": 120.0
            },
            {
                "start_time": 0.3840909090909091,
                "end_time": 0.5659090909090909,
                "pitch": 71,
                "velocity": 80,
                "duration": 0.18181818181818182,
                "tempo": 120.0
            },
            {
                "start_time": 0.5840909090909091,
                "end_time": 0.734090909090909,
                "pitch": 65,
                "velocity": 80,
                "duration": 0.1499999999999999,
                "tempo": 120.0
            },
            {
                "start_time": 0.75,
                "end_time": 0.7659090909090909,
                "pitch": 70,
                "velocity": 80,
                "duration": 0.015909090909090873,
                "tempo": 120.0
            },
            {
                "start_time": 0.7840909090909091,
                "end_time": 0.8659090909090909,
                "pitch": 71,
                "velocity": 80,
                "duration": 0.08181818181818179,
                "tempo": 120.0
            },
            {
                "start_time": 0.884090909090909,
                "end_time": 0.9659090909090908,
                "pitch": 71,
                "velocity": 80,
                "duration": 0.08181818181818179,
                "tempo": 120.0
            },
            {
                "start_time": 0.984090909090909,
                "end_time": 1.065909090909091,
                "pitch": 71,
                "velocity": 80,
                "duration": 0.0818181818181819,
                "tempo": 120.0
            },
            {
                "start_time": 1.084090909090909,
                "end_time": 1.1659090909090908,
                "pitch": 71,
                "velocity": 80,
                "duration": 0.08181818181818179,
                "tempo": 120.0
            },
            {
                "start_time": 1.184090909090909,
                "end_time": 1.2659090909090909,
                "pitch": 71,
                "velocity": 80,
                "duration": 0.08181818181818179,
                "tempo": 120.0
            },
            {
                "start_time": 1.284090909090909,
                "end_time": 1.3659090909090907,
                "pitch": 71,
                "velocity": 80,
                "duration": 0.08181818181818179,
                "tempo": 120.0
            },
            {
                "start_time": 1.384090909090909,
                "end_time": 1.5159090909090909,
                "pitch": 65,
                "velocity": 80,
                "duration": 0.13181818181818183,
                "tempo": 120.0
            },
            {
                "start_time": 1.75,
                "end_time": 1.768181818181818,
                "pitch": 70,
                "velocity": 80,
                "duration": 0.018181818181818077,
                "tempo": 120.0
            },
            {
                "start_time": 1.784090909090909,
                "end_time": 1.8681818181818182,
                "pitch": 71,
                "velocity": 80,
                "duration": 0.08409090909090922,
                "tempo": 120.0
            },
            {
                "start_time": 1.8863636363636362,
                "end_time": 1.9363636363636363,
                "pitch": 71,
                "velocity": 80,
                "duration": 0.050000000000000044,
                "tempo": 120.0
            },
            {
                "start_time": 1.9522727272727272,
                "end_time": 1.968181818181818,
                "pitch": 70,
                "velocity": 80,
                "duration": 0.015909090909090873,
                "tempo": 120.0
            },
            {
                "start_time": 1.9863636363636363,
                "end_time": 2.1704545454545454,
                "pitch": 71,
                "velocity": 80,
                "duration": 0.18409090909090908,
                "tempo": 120.0
            },
            {
                "start_time": 2.186363636363636,
                "end_time": 2.3363636363636364,
                "pitch": 65,
                "velocity": 80,
                "duration": 0.15000000000000036,
                "tempo": 120.0
            },
            {
                "start_time": 2.352272727272727,
                "end_time": 2.370454545454545,
                "pitch": 70,
                "velocity": 80,
                "duration": 0.018181818181818077,
                "tempo": 120.0
            },
            {
                "start_time": 2.3863636363636362,
                "end_time": 2.4704545454545452,
                "pitch": 71,
                "velocity": 80,
                "duration": 0.084090909090909,
                "tempo": 120.0
            },
            {
                "start_time": 2.4863636363636363,
                "end_time": 2.5704545454545453,
                "pitch": 71,
                "velocity": 80,
                "duration": 0.084090909090909,
                "tempo": 120.0
            },
            {
                "start_time": 2.5863636363636364,
                "end_time": 2.6704545454545454,
                "pitch": 71,
                "velocity": 80,
                "duration": 0.084090909090909,
                "tempo": 120.0
            },
            {
                "start_time": 2.6886363636363635,
                "end_time": 2.7727272727272725,
                "pitch": 71,
                "velocity": 80,
                "duration": 0.084090909090909,
                "tempo": 120.0
            },
            {
                "start_time": 2.7886363636363636,
                "end_time": 2.8727272727272726,
                "pitch": 71,
                "velocity": 80,
                "duration": 0.084090909090909,
                "tempo": 120.0
            },
            {
                "start_time": 2.8886363636363637,
                "end_time": 2.9727272727272727,
                "pitch": 71,
                "velocity": 80,
                "duration": 0.084090909090909,
                "tempo": 120.0
            },
            {
                "start_time": 2.9886363636363633,
                "end_time": 3.1227272727272726,
                "pitch": 65,
                "velocity": 80,
                "duration": 0.13409090909090926,
                "tempo": 120.0
            },
            {
                "start_time": 3.3545454545454545,
                "end_time": 3.3727272727272726,
                "pitch": 70,
                "velocity": 80,
                "duration": 0.018181818181818077,
                "tempo": 120.0
            },
            {
                "start_time": 3.3886363636363637,
                "end_time": 3.4727272727272727,
                "pitch": 71,
                "velocity": 80,
                "duration": 0.084090909090909,
                "tempo": 120.0
            },
            {
                "start_time": 3.4886363636363633,
                "end_time": 3.5386363636363636,
                "pitch": 71,
                "velocity": 80,
                "duration": 0.050000000000000266,
                "tempo": 120.0
            },
            {
                "start_time": 3.5545454545454542,
                "end_time": 3.5727272727272728,
                "pitch": 70,
                "velocity": 80,
                "duration": 0.01818181818181852,
                "tempo": 120.0
            },
            {
                "start_time": 3.5886363636363634,
                "end_time": 3.7727272727272725,
                "pitch": 71,
                "velocity": 80,
                "duration": 0.18409090909090908,
                "tempo": 120.0
            },
            {
                "start_time": 3.7886363636363636,
                "end_time": 3.9386363636363635,
                "pitch": 65,
                "velocity": 80,
                "duration": 0.1499999999999999,
                "tempo": 120.0
            },
            {
                "start_time": 3.954545454545454,
                "end_time": 3.9727272727272727,
                "pitch": 70,
                "velocity": 80,
                "duration": 0.01818181818181852,
                "tempo": 120.0
            },
            {
                "start_time": 3.9886363636363633,
                "end_time": 4.072727272727272,
                "pitch": 71,
                "velocity": 80,
                "duration": 0.084090909090909,
                "tempo": 120.0
            },
            {
                "start_time": 4.088636363636364,
                "end_time": 4.172727272727273,
                "pitch": 71,
                "velocity": 80,
                "duration": 0.084090909090909,
                "tempo": 120.0
            },
            {
                "start_time": 4.1909090909090905,
                "end_time": 4.2749999999999995,
                "pitch": 71,
                "velocity": 80,
                "duration": 0.084090909090909,
                "tempo": 120.0
            },
            {
                "start_time": 4.290909090909091,
                "end_time": 4.375,
                "pitch": 71,
                "velocity": 80,
                "duration": 0.084090909090909,
                "tempo": 120.0
            },
            {
                "start_time": 4.390909090909091,
                "end_time": 4.475,
                "pitch": 71,
                "velocity": 80,
                "duration": 0.084090909090909,
                "tempo": 120.0
            },
            {
                "start_time": 4.49090909090909,
                "end_time": 4.575,
                "pitch": 71,
                "velocity": 80,
                "duration": 0.08409090909090988,
                "tempo": 120.0
            },
            {
                "start_time": 4.590909090909091,
                "end_time": 4.7749999999999995,
                "pitch": 65,
                "velocity": 80,
                "duration": 0.18409090909090864,
                "tempo": 120.0
            },
            {
                "start_time": 4.790909090909091,
                "end_time": 5.086363636363636,
                "pitch": 73,
                "velocity": 80,
                "duration": 0.29545454545454497,
                "tempo": 120.0
            },
            {
                "start_time": 6.552272727272727,
                "end_time": 6.570454545454545,
                "pitch": 70,
                "velocity": 80,
                "duration": 0.01818181818181852,
                "tempo": 120.0
            },
            {
                "start_time": 6.586363636363636,
                "end_time": 6.670454545454545,
                "pitch": 71,
                "velocity": 80,
                "duration": 0.084090909090909,
                "tempo": 120.0
            },
            {
                "start_time": 6.686363636363636,
                "end_time": 6.736363636363636,
                "pitch": 71,
                "velocity": 80,
                "duration": 0.05000000000000071,
                "tempo": 120.0
            },
            {
                "start_time": 6.752272727272727,
                "end_time": 6.7704545454545455,
                "pitch": 70,
                "velocity": 80,
                "duration": 0.01818181818181852,
                "tempo": 120.0
            },
            {
                "start_time": 6.786363636363636,
                "end_time": 6.970454545454545,
                "pitch": 71,
                "velocity": 80,
                "duration": 0.18409090909090864,
                "tempo": 120.0
            },
            {
                "start_time": 6.988636363636363,
                "end_time": 7.138636363636364,
                "pitch": 65,
                "velocity": 80,
                "duration": 0.15000000000000036,
                "tempo": 120.0
            },
            {
                "start_time": 7.154545454545454,
                "end_time": 7.172727272727272,
                "pitch": 70,
                "velocity": 80,
                "duration": 0.018181818181817633,
                "tempo": 120.0
            },
            {
                "start_time": 7.1886363636363635,
                "end_time": 7.2749999999999995,
                "pitch": 71,
                "velocity": 80,
                "duration": 0.08636363636363598,
                "tempo": 120.0
            },
            {
                "start_time": 7.29090909090909,
                "end_time": 7.377272727272727,
                "pitch": 71,
                "velocity": 80,
                "duration": 0.08636363636363686,
                "tempo": 120.0
            },
            {
                "start_time": 7.3954545454545455,
                "end_time": 7.4795454545454545,
                "pitch": 71,
                "velocity": 80,
                "duration": 0.084090909090909,
                "tempo": 120.0
            },
            {
                "start_time": 7.497727272727272,
                "end_time": 7.581818181818181,
                "pitch": 71,
                "velocity": 80,
                "duration": 0.084090909090909,
                "tempo": 120.0
            },
            {
                "start_time": 7.6,
                "end_time": 7.684090909090909,
                "pitch": 71,
                "velocity": 80,
                "duration": 0.084090909090909,
                "tempo": 120.0
            },
            {
                "start_time": 7.699999999999999,
                "end_time": 7.784090909090908,
                "pitch": 71,
                "velocity": 80,
                "duration": 0.084090909090909,
                "tempo": 120.0
            },
            {
                "start_time": 7.8,
                "end_time": 7.934090909090909,
                "pitch": 65,
                "velocity": 80,
                "duration": 0.13409090909090882,
                "tempo": 120.0
            },
            {
                "start_time": 8.163636363636364,
                "end_time": 8.179545454545455,
                "pitch": 70,
                "velocity": 80,
                "duration": 0.01590909090909065,
                "tempo": 120.0
            },
            {
                "start_time": 8.195454545454545,
                "end_time": 8.277272727272727,
                "pitch": 71,
                "velocity": 80,
                "duration": 0.08181818181818201,
                "tempo": 120.0
            },
            {
                "start_time": 8.293181818181818,
                "end_time": 8.343181818181817,
                "pitch": 71,
                "velocity": 80,
                "duration": 0.049999999999998934,
                "tempo": 120.0
            },
            {
                "start_time": 8.35909090909091,
                "end_time": 8.375,
                "pitch": 70,
                "velocity": 80,
                "duration": 0.01590909090909065,
                "tempo": 120.0
            },
            {
                "start_time": 8.393181818181818,
                "end_time": 8.577272727272726,
                "pitch": 71,
                "velocity": 80,
                "duration": 0.18409090909090864,
                "tempo": 120.0
            },
            {
                "start_time": 8.593181818181817,
                "end_time": 8.745454545454544,
                "pitch": 65,
                "velocity": 80,
                "duration": 0.15227272727272734,
                "tempo": 120.0
            },
            {
                "start_time": 8.761363636363637,
                "end_time": 8.777272727272727,
                "pitch": 70,
                "velocity": 80,
                "duration": 0.01590909090909065,
                "tempo": 120.0
            },
            {
                "start_time": 8.795454545454545,
                "end_time": 8.879545454545454,
                "pitch": 71,
                "velocity": 80,
                "duration": 0.084090909090909,
                "tempo": 120.0
            },
            {
                "start_time": 8.897727272727272,
                "end_time": 8.98409090909091,
                "pitch": 71,
                "velocity": 80,
                "duration": 0.08636363636363775,
                "tempo": 120.0
            },
            {
                "start_time": 9.0,
                "end_time": 9.086363636363636,
                "pitch": 71,
                "velocity": 80,
                "duration": 0.08636363636363598,
                "tempo": 120.0
            },
            {
                "start_time": 9.102272727272727,
                "end_time": 9.188636363636363,
                "pitch": 71,
                "velocity": 80,
                "duration": 0.08636363636363598,
                "tempo": 120.0
            },
            {
                "start_time": 9.206818181818182,
                "end_time": 9.290909090909091,
                "pitch": 71,
                "velocity": 80,
                "duration": 0.084090909090909,
                "tempo": 120.0
            },
            {
                "start_time": 9.306818181818182,
                "end_time": 9.39090909090909,
                "pitch": 71,
                "velocity": 80,
                "duration": 0.084090909090909,
                "tempo": 120.0
            },
            {
                "start_time": 9.406818181818181,
                "end_time": 9.540909090909091,
                "pitch": 65,
                "velocity": 80,
                "duration": 0.1340909090909097,
                "tempo": 120.0
            },
            {
                "start_time": 9.777272727272727,
                "end_time": 9.793181818181818,
                "pitch": 70,
                "velocity": 80,
                "duration": 0.01590909090909065,
                "tempo": 120.0
            },
            {
                "start_time": 9.809090909090909,
                "end_time": 9.893181818181818,
                "pitch": 71,
                "velocity": 80,
                "duration": 0.084090909090909,
                "tempo": 120.0
            },
            {
                "start_time": 9.911363636363635,
                "end_time": 9.961363636363636,
                "pitch": 71,
                "velocity": 80,
                "duration": 0.05000000000000071,
                "tempo": 120.0
            },
            {
                "start_time": 9.977272727272727,
                "end_time": 9.995454545454544,
                "pitch": 70,
                "velocity": 80,
                "duration": 0.018181818181817633,
                "tempo": 120.0
            },
            {
                "start_time": 10.011363636363637,
                "end_time": 10.195454545454545,
                "pitch": 71,
                "velocity": 80,
                "duration": 0.18409090909090864,
                "tempo": 120.0
            },
            {
                "start_time": 10.213636363636363,
                "end_time": 10.363636363636363,
                "pitch": 65,
                "velocity": 80,
                "duration": 0.15000000000000036,
                "tempo": 120.0
            },
            {
                "start_time": 10.379545454545454,
                "end_time": 10.397727272727272,
                "pitch": 70,
                "velocity": 80,
                "duration": 0.018181818181817633,
                "tempo": 120.0
            },
            {
                "start_time": 10.413636363636362,
                "end_time": 10.497727272727273,
                "pitch": 71,
                "velocity": 80,
                "duration": 0.08409090909091077,
                "tempo": 120.0
            },
            {
                "start_time": 10.513636363636364,
                "end_time": 10.597727272727273,
                "pitch": 71,
                "velocity": 80,
                "duration": 0.084090909090909,
                "tempo": 120.0
            },
            {
                "start_time": 10.61590909090909,
                "end_time": 10.7,
                "pitch": 71,
                "velocity": 80,
                "duration": 0.084090909090909,
                "tempo": 120.0
            },
            {
                "start_time": 10.71590909090909,
                "end_time": 10.799999999999999,
                "pitch": 71,
                "velocity": 80,
                "duration": 0.084090909090909,
                "tempo": 120.0
            },
            {
                "start_time": 10.81590909090909,
                "end_time": 10.9,
                "pitch": 71,
                "velocity": 80,
                "duration": 0.08409090909091077,
                "tempo": 120.0
            },
            {
                "start_time": 10.915909090909091,
                "end_time": 11.0,
                "pitch": 71,
                "velocity": 80,
                "duration": 0.084090909090909,
                "tempo": 120.0
            },
            {
                "start_time": 11.01590909090909,
                "end_time": 11.2,
                "pitch": 65,
                "velocity": 80,
                "duration": 0.18409090909090864,
                "tempo": 120.0
            },
            {
                "start_time": 11.21590909090909,
                "end_time": 11.511363636363637,
                "pitch": 73,
                "velocity": 80,
                "duration": 0.29545454545454675,
                "tempo": 120.0
            },
            {
                "start_time": 12.813636363636363,
                "end_time": 13.6,
                "pitch": 68,
                "velocity": 80,
                "duration": 0.786363636363637,
                "tempo": 120.0
            },
            {
                "start_time": 14.422727272727272,
                "end_time": 15.009090909090908,
                "pitch": 71,
                "velocity": 80,
                "duration": 0.586363636363636,
                "tempo": 120.0
            },
            {
                "start_time": 15.024999999999999,
                "end_time": 16.011363636363637,
                "pitch": 68,
                "velocity": 80,
                "duration": 0.9863636363636381,
                "tempo": 120.0
            },
            {
                "start_time": 16.027272727272727,
                "end_time": 16.329545454545453,
                "pitch": 66,
                "velocity": 80,
                "duration": 0.3022727272727259,
                "tempo": 120.0
            },
            {
                "start_time": 16.84090909090909,
                "end_time": 17.136363636363637,
                "pitch": 66,
                "velocity": 80,
                "duration": 0.29545454545454675,
                "tempo": 120.0
            },
            {
                "start_time": 17.634090909090908,
                "end_time": 18.252272727272725,
                "pitch": 65,
                "velocity": 80,
                "duration": 0.6181818181818173,
                "tempo": 120.0
            },
            {
                "start_time": 19.238636363636363,
                "end_time": 20.025,
                "pitch": 68,
                "velocity": 80,
                "duration": 0.7863636363636353,
                "tempo": 120.0
            },
            {
                "start_time": 20.845454545454544,
                "end_time": 21.436363636363634,
                "pitch": 71,
                "velocity": 80,
                "duration": 0.5909090909090899,
                "tempo": 120.0
            },
            {
                "start_time": 21.452272727272724,
                "end_time": 22.43409090909091,
                "pitch": 68,
                "velocity": 80,
                "duration": 0.9818181818181841,
                "tempo": 120.0
            },
            {
                "start_time": 22.45,
                "end_time": 22.75,
                "pitch": 66,
                "velocity": 80,
                "duration": 0.3000000000000007,
                "tempo": 120.0
            },
            {
                "start_time": 23.252272727272725,
                "end_time": 23.561363636363634,
                "pitch": 69,
                "velocity": 80,
                "duration": 0.30909090909090864,
                "tempo": 120.0
            },
            {
                "start_time": 24.063636363636363,
                "end_time": 24.83863636363636,
                "pitch": 68,
                "velocity": 80,
                "duration": 0.7749999999999986,
                "tempo": 120.0
            }
        ],
        "Harpsichord": [
            {
                "start_time": 0.0,
                "end_time": 0.0659090909090909,
                "pitch": 49,
                "velocity": 25,
                "duration": 0.0659090909090909,
                "tempo": 120.0
            },
            {
                "start_time": 0.0659090909090909,
                "end_time": 0.3840909090909091,
                "pitch": 49,
                "velocity": 25,
                "duration": 0.3181818181818182,
                "tempo": 120.0
            },
            {
                "start_time": 0.39999999999999997,
                "end_time": 0.7840909090909091,
                "pitch": 50,
                "velocity": 25,
                "duration": 0.3840909090909091,
                "tempo": 120.0
            },
            {
                "start_time": 0.7999999999999999,
                "end_time": 1.184090909090909,
                "pitch": 49,
                "velocity": 25,
                "duration": 0.38409090909090915,
                "tempo": 120.0
            },
            {
                "start_time": 1.2,
                "end_time": 1.584090909090909,
                "pitch": 50,
                "velocity": 25,
                "duration": 0.38409090909090904,
                "tempo": 120.0
            },
            {
                "start_time": 1.5999999999999999,
                "end_time": 1.9863636363636363,
                "pitch": 49,
                "velocity": 25,
                "duration": 0.38636363636363646,
                "tempo": 120.0
            },
            {
                "start_time": 2.002272727272727,
                "end_time": 2.3863636363636362,
                "pitch": 50,
                "velocity": 25,
                "duration": 0.38409090909090926,
                "tempo": 120.0
            },
            {
                "start_time": 2.4022727272727273,
                "end_time": 2.7886363636363636,
                "pitch": 49,
                "velocity": 25,
                "duration": 0.38636363636363624,
                "tempo": 120.0
            },
            {
                "start_time": 2.8045454545454542,
                "end_time": 3.1886363636363635,
                "pitch": 50,
                "velocity": 25,
                "duration": 0.38409090909090926,
                "tempo": 120.0
            },
            {
                "start_time": 3.2045454545454546,
                "end_time": 3.5886363636363634,
                "pitch": 49,
                "velocity": 25,
                "duration": 0.3840909090909088,
                "tempo": 120.0
            },
            {
                "start_time": 3.6045454545454545,
                "end_time": 3.9886363636363633,
                "pitch": 50,
                "velocity": 25,
                "duration": 0.3840909090909088,
                "tempo": 120.0
            },
            {
                "start_time": 4.004545454545454,
                "end_time": 4.390909090909091,
                "pitch": 49,
                "velocity": 25,
                "duration": 0.3863636363636367,
                "tempo": 120.0
            },
            {
                "start_time": 4.409090909090909,
                "end_time": 4.790909090909091,
                "pitch": 50,
                "velocity": 25,
                "duration": 0.38181818181818183,
                "tempo": 120.0
            },
            {
                "start_time": 4.806818181818182,
                "end_time": 5.184090909090909,
                "pitch": 49,
                "velocity": 25,
                "duration": 0.377272727272727,
                "tempo": 120.0
            },
            {
                "start_time": 5.2,
                "end_time": 5.593181818181818,
                "pitch": 50,
                "velocity": 25,
                "duration": 0.39318181818181763,
                "tempo": 120.0
            },
            {
                "start_time": 5.611363636363636,
                "end_time": 5.993181818181818,
                "pitch": 49,
                "velocity": 25,
                "duration": 0.38181818181818183,
                "tempo": 120.0
            },
            {
                "start_time": 6.011363636363636,
                "end_time": 6.386363636363636,
                "pitch": 50,
                "velocity": 25,
                "duration": 0.375,
                "tempo": 120.0
            },
            {
                "start_time": 6.402272727272727,
                "end_time": 6.786363636363636,
                "pitch": 49,
                "velocity": 25,
                "duration": 0.3840909090909088,
                "tempo": 120.0
            },
            {
                "start_time": 6.802272727272727,
                "end_time": 7.1886363636363635,
                "pitch": 50,
                "velocity": 25,
                "duration": 0.3863636363636367,
                "tempo": 120.0
            },
            {
                "start_time": 7.206818181818181,
                "end_time": 7.6,
                "pitch": 49,
                "velocity": 25,
                "duration": 0.3931818181818185,
                "tempo": 120.0
            },
            {
                "start_time": 7.61590909090909,
                "end_time": 8.0,
                "pitch": 50,
                "velocity": 25,
                "duration": 0.3840909090909097,
                "tempo": 120.0
            },
            {
                "start_time": 8.01590909090909,
                "end_time": 8.393181818181818,
                "pitch": 49,
                "velocity": 25,
                "duration": 0.377272727272727,
                "tempo": 120.0
            },
            {
                "start_time": 8.409090909090908,
                "end_time": 8.795454545454545,
                "pitch": 50,
                "velocity": 25,
                "duration": 0.3863636363636367,
                "tempo": 120.0
            },
            {
                "start_time": 8.811363636363636,
                "end_time": 9.206818181818182,
                "pitch": 49,
                "velocity": 25,
                "duration": 0.3954545454545464,
                "tempo": 120.0
            },
            {
                "start_time": 9.222727272727273,
                "end_time": 9.60909090909091,
                "pitch": 50,
                "velocity": 25,
                "duration": 0.3863636363636367,
                "tempo": 120.0
            },
            {
                "start_time": 9.625,
                "end_time": 10.011363636363637,
                "pitch": 49,
                "velocity": 25,
                "duration": 0.3863636363636367,
                "tempo": 120.0
            },
            {
                "start_time": 10.027272727272727,
                "end_time": 10.413636363636362,
                "pitch": 50,
                "velocity": 25,
                "duration": 0.3863636363636349,
                "tempo": 120.0
            },
            {
                "start_time": 10.431818181818182,
                "end_time": 10.81590909090909,
                "pitch": 49,
                "velocity": 25,
                "duration": 0.38409090909090793,
                "tempo": 120.0
            },
            {
                "start_time": 10.834090909090909,
                "end_time": 11.21590909090909,
                "pitch": 50,
                "velocity": 25,
                "duration": 0.38181818181818095,
                "tempo": 120.0
            },
            {
                "start_time": 11.23409090909091,
                "end_time": 11.60909090909091,
                "pitch": 49,
                "velocity": 25,
                "duration": 0.375,
                "tempo": 120.0
            },
            {
                "start_time": 11.625,
                "end_time": 12.020454545454545,
                "pitch": 50,
                "velocity": 25,
                "duration": 0.3954545454545446,
                "tempo": 120.0
            },
            {
                "start_time": 12.036363636363635,
                "end_time": 12.411363636363635,
                "pitch": 49,
                "velocity": 25,
                "duration": 0.375,
                "tempo": 120.0
            },
            {
                "start_time": 12.429545454545455,
                "end_time": 12.813636363636363,
                "pitch": 50,
                "velocity": 25,
                "duration": 0.38409090909090793,
                "tempo": 120.0
            },
            {
                "start_time": 12.831818181818182,
                "end_time": 13.213636363636363,
                "pitch": 49,
                "velocity": 25,
                "duration": 0.38181818181818095,
                "tempo": 120.0
            },
            {
                "start_time": 13.23181818181818,
                "end_time": 13.61590909090909,
                "pitch": 50,
                "velocity": 25,
                "duration": 0.3840909090909097,
                "tempo": 120.0
            },
            {
                "start_time": 13.634090909090908,
                "end_time": 14.020454545454545,
                "pitch": 49,
                "velocity": 25,
                "duration": 0.3863636363636367,
                "tempo": 120.0
            },
            {
                "start_time": 14.036363636363635,
                "end_time": 14.422727272727272,
                "pitch": 50,
                "velocity": 25,
                "duration": 0.3863636363636367,
                "tempo": 120.0
            },
            {
                "start_time": 14.438636363636363,
                "end_time": 14.825,
                "pitch": 49,
                "velocity": 25,
                "duration": 0.3863636363636367,
                "tempo": 120.0
            },
            {
                "start_time": 14.84090909090909,
                "end_time": 15.225,
                "pitch": 50,
                "velocity": 25,
                "duration": 0.3840909090909097,
                "tempo": 120.0
            },
            {
                "start_time": 15.24090909090909,
                "end_time": 15.636363636363635,
                "pitch": 49,
                "velocity": 25,
                "duration": 0.3954545454545446,
                "tempo": 120.0
            },
            {
                "start_time": 15.652272727272727,
                "end_time": 16.027272727272727,
                "pitch": 50,
                "velocity": 25,
                "duration": 0.375,
                "tempo": 120.0
            },
            {
                "start_time": 16.045454545454543,
                "end_time": 16.429545454545455,
                "pitch": 49,
                "velocity": 25,
                "duration": 0.3840909090909115,
                "tempo": 120.0
            },
            {
                "start_time": 16.44772727272727,
                "end_time": 16.84090909090909,
                "pitch": 50,
                "velocity": 25,
                "duration": 0.3931818181818194,
                "tempo": 120.0
            },
            {
                "start_time": 16.85681818181818,
                "end_time": 17.23409090909091,
                "pitch": 49,
                "velocity": 25,
                "duration": 0.37727272727272876,
                "tempo": 120.0
            },
            {
                "start_time": 17.25,
                "end_time": 17.634090909090908,
                "pitch": 50,
                "velocity": 25,
                "duration": 0.38409090909090793,
                "tempo": 120.0
            },
            {
                "start_time": 17.65,
                "end_time": 18.034090909090907,
                "pitch": 49,
                "velocity": 25,
                "duration": 0.38409090909090793,
                "tempo": 120.0
            },
            {
                "start_time": 18.05,
                "end_time": 18.436363636363634,
                "pitch": 50,
                "velocity": 25,
                "duration": 0.38636363636363313,
                "tempo": 120.0
            },
            {
                "start_time": 18.452272727272728,
                "end_time": 18.836363636363636,
                "pitch": 49,
                "velocity": 25,
                "duration": 0.38409090909090793,
                "tempo": 120.0
            },
            {
                "start_time": 18.852272727272727,
                "end_time": 19.238636363636363,
                "pitch": 50,
                "velocity": 25,
                "duration": 0.3863636363636367,
                "tempo": 120.0
            },
            {
                "start_time": 19.25681818181818,
                "end_time": 19.65,
                "pitch": 49,
                "velocity": 25,
                "duration": 0.3931818181818194,
                "tempo": 120.0
            },
            {
                "start_time": 19.66590909090909,
                "end_time": 20.04090909090909,
                "pitch": 50,
                "velocity": 25,
                "duration": 0.375,
                "tempo": 120.0
            },
            {
                "start_time": 20.05909090909091,
                "end_time": 20.452272727272728,
                "pitch": 49,
                "velocity": 25,
                "duration": 0.3931818181818194,
                "tempo": 120.0
            },
            {
                "start_time": 20.46818181818182,
                "end_time": 20.845454545454544,
                "pitch": 50,
                "velocity": 25,
                "duration": 0.3772727272727252,
                "tempo": 120.0
            },
            {
                "start_time": 20.861363636363635,
                "end_time": 21.24772727272727,
                "pitch": 49,
                "velocity": 25,
                "duration": 0.3863636363636367,
                "tempo": 120.0
            },
            {
                "start_time": 21.263636363636362,
                "end_time": 21.65681818181818,
                "pitch": 50,
                "velocity": 25,
                "duration": 0.3931818181818194,
                "tempo": 120.0
            },
            {
                "start_time": 21.675,
                "end_time": 22.05909090909091,
                "pitch": 49,
                "velocity": 25,
                "duration": 0.38409090909090793,
                "tempo": 120.0
            },
            {
                "start_time": 22.075,
                "end_time": 22.45,
                "pitch": 50,
                "velocity": 25,
                "duration": 0.375,
                "tempo": 120.0
            },
            {
                "start_time": 22.46590909090909,
                "end_time": 22.849999999999998,
                "pitch": 49,
                "velocity": 25,
                "duration": 0.38409090909090793,
                "tempo": 120.0
            },
            {
                "start_time": 22.868181818181817,
                "end_time": 23.252272727272725,
                "pitch": 50,
                "velocity": 25,
                "duration": 0.38409090909090793,
                "tempo": 120.0
            },
            {
                "start_time": 23.270454545454545,
                "end_time": 23.663636363636364,
                "pitch": 49,
                "velocity": 25,
                "duration": 0.3931818181818194,
                "tempo": 120.0
            },
            {
                "start_time": 23.679545454545455,
                "end_time": 24.063636363636363,
                "pitch": 50,
                "velocity": 25,
                "duration": 0.38409090909090793,
                "tempo": 120.0
            },
            {
                "start_time": 24.079545454545453,
                "end_time": 24.46363636363636,
                "pitch": 49,
                "velocity": 25,
                "duration": 0.38409090909090793,
                "tempo": 120.0
            },
            {
                "start_time": 24.479545454545452,
                "end_time": 24.85681818181818,
                "pitch": 50,
                "velocity": 25,
                "duration": 0.37727272727272876,
                "tempo": 120.0
            },
            {
                "start_time": 24.87272727272727,
                "end_time": 25.259090909090908,
                "pitch": 49,
                "velocity": 25,
                "duration": 0.3863636363636367,
                "tempo": 120.0
            },
            {
                "start_time": 25.275,
                "end_time": 25.659090909090907,
                "pitch": 50,
                "velocity": 25,
                "duration": 0.38409090909090793,
                "tempo": 120.0
            },
            {
                "start_time": 25.674999999999997,
                "end_time": 25.743181818181817,
                "pitch": 49,
                "velocity": 25,
                "duration": 0.06818181818182012,
                "tempo": 120.0
            }
        ],
        "Synth Bass 1": [
            {
                "start_time": 0.0,
                "end_time": 0.0659090909090909,
                "pitch": 55,
                "velocity": 51,
                "duration": 0.0659090909090909,
                "tempo": 120.0
            },
            {
                "start_time": 0.08409090909090909,
                "end_time": 0.1659090909090909,
                "pitch": 54,
                "velocity": 51,
                "duration": 0.0818181818181818,
                "tempo": 120.0
            },
            {
                "start_time": 0.18409090909090908,
                "end_time": 0.2659090909090909,
                "pitch": 55,
                "velocity": 51,
                "duration": 0.08181818181818179,
                "tempo": 120.0
            },
            {
                "start_time": 0.28409090909090906,
                "end_time": 0.3659090909090909,
                "pitch": 56,
                "velocity": 51,
                "duration": 0.08181818181818185,
                "tempo": 120.0
            },
            {
                "start_time": 0.3840909090909091,
                "end_time": 0.4659090909090909,
                "pitch": 55,
                "velocity": 51,
                "duration": 0.08181818181818179,
                "tempo": 120.0
            },
            {
                "start_time": 0.48409090909090907,
                "end_time": 0.5659090909090909,
                "pitch": 54,
                "velocity": 51,
                "duration": 0.08181818181818185,
                "tempo": 120.0
            },
            {
                "start_time": 0.5840909090909091,
                "end_time": 0.6659090909090909,
                "pitch": 55,
                "velocity": 51,
                "duration": 0.08181818181818179,
                "tempo": 120.0
            },
            {
                "start_time": 0.6840909090909091,
                "end_time": 0.7659090909090909,
                "pitch": 56,
                "velocity": 51,
                "duration": 0.08181818181818179,
                "tempo": 120.0
            },
            {
                "start_time": 0.7840909090909091,
                "end_time": 0.8659090909090909,
                "pitch": 55,
                "velocity": 51,
                "duration": 0.08181818181818179,
                "tempo": 120.0
            },
            {
                "start_time": 0.884090909090909,
                "end_time": 0.9659090909090908,
                "pitch": 54,
                "velocity": 51,
                "duration": 0.08181818181818179,
                "tempo": 120.0
            },
            {
                "start_time": 0.984090909090909,
                "end_time": 1.065909090909091,
                "pitch": 55,
                "velocity": 51,
                "duration": 0.0818181818181819,
                "tempo": 120.0
            },
            {
                "start_time": 1.084090909090909,
                "end_time": 1.1659090909090908,
                "pitch": 56,
                "velocity": 51,
                "duration": 0.08181818181818179,
                "tempo": 120.0
            },
            {
                "start_time": 1.184090909090909,
                "end_time": 1.2659090909090909,
                "pitch": 55,
                "velocity": 51,
                "duration": 0.08181818181818179,
                "tempo": 120.0
            },
            {
                "start_time": 1.284090909090909,
                "end_time": 1.3659090909090907,
                "pitch": 54,
                "velocity": 51,
                "duration": 0.08181818181818179,
                "tempo": 120.0
            },
            {
                "start_time": 1.384090909090909,
                "end_time": 1.4659090909090908,
                "pitch": 55,
                "velocity": 51,
                "duration": 0.08181818181818179,
                "tempo": 120.0
            },
            {
                "start_time": 1.4840909090909091,
                "end_time": 1.565909090909091,
                "pitch": 56,
                "velocity": 51,
                "duration": 0.08181818181818179,
                "tempo": 120.0
            },
            {
                "start_time": 1.584090909090909,
                "end_time": 1.6681818181818182,
                "pitch": 55,
                "velocity": 51,
                "duration": 0.08409090909090922,
                "tempo": 120.0
            },
            {
                "start_time": 1.684090909090909,
                "end_time": 1.768181818181818,
                "pitch": 54,
                "velocity": 51,
                "duration": 0.084090909090909,
                "tempo": 120.0
            },
            {
                "start_time": 1.784090909090909,
                "end_time": 1.8681818181818182,
                "pitch": 55,
                "velocity": 51,
                "duration": 0.08409090909090922,
                "tempo": 120.0
            },
            {
                "start_time": 1.8863636363636362,
                "end_time": 1.968181818181818,
                "pitch": 56,
                "velocity": 51,
                "duration": 0.08181818181818179,
                "tempo": 120.0
            },
            {
                "start_time": 1.9863636363636363,
                "end_time": 2.0704545454545453,
                "pitch": 55,
                "velocity": 51,
                "duration": 0.084090909090909,
                "tempo": 120.0
            },
            {
                "start_time": 2.0863636363636364,
                "end_time": 2.1704545454545454,
                "pitch": 54,
                "velocity": 51,
                "duration": 0.084090909090909,
                "tempo": 120.0
            },
            {
                "start_time": 2.186363636363636,
                "end_time": 2.2704545454545455,
                "pitch": 55,
                "velocity": 51,
                "duration": 0.08409090909090944,
                "tempo": 120.0
            },
            {
                "start_time": 2.286363636363636,
                "end_time": 2.370454545454545,
                "pitch": 56,
                "velocity": 51,
                "duration": 0.084090909090909,
                "tempo": 120.0
            },
            {
                "start_time": 2.3863636363636362,
                "end_time": 2.4704545454545452,
                "pitch": 55,
                "velocity": 51,
                "duration": 0.084090909090909,
                "tempo": 120.0
            },
            {
                "start_time": 2.4863636363636363,
                "end_time": 2.5704545454545453,
                "pitch": 54,
                "velocity": 51,
                "duration": 0.084090909090909,
                "tempo": 120.0
            },
            {
                "start_time": 2.5863636363636364,
                "end_time": 2.6704545454545454,
                "pitch": 55,
                "velocity": 51,
                "duration": 0.084090909090909,
                "tempo": 120.0
            },
            {
                "start_time": 2.6886363636363635,
                "end_time": 2.7727272727272725,
                "pitch": 56,
                "velocity": 51,
                "duration": 0.084090909090909,
                "tempo": 120.0
            },
            {
                "start_time": 2.7886363636363636,
                "end_time": 2.8727272727272726,
                "pitch": 55,
                "velocity": 51,
                "duration": 0.084090909090909,
                "tempo": 120.0
            },
            {
                "start_time": 2.8886363636363637,
                "end_time": 2.9727272727272727,
                "pitch": 54,
                "velocity": 51,
                "duration": 0.084090909090909,
                "tempo": 120.0
            },
            {
                "start_time": 2.9886363636363633,
                "end_time": 3.0727272727272728,
                "pitch": 55,
                "velocity": 51,
                "duration": 0.08409090909090944,
                "tempo": 120.0
            },
            {
                "start_time": 3.0886363636363634,
                "end_time": 3.1727272727272724,
                "pitch": 56,
                "velocity": 51,
                "duration": 0.084090909090909,
                "tempo": 120.0
            },
            {
                "start_time": 3.1886363636363635,
                "end_time": 3.2727272727272725,
                "pitch": 55,
                "velocity": 51,
                "duration": 0.084090909090909,
                "tempo": 120.0
            },
            {
                "start_time": 3.2886363636363636,
                "end_time": 3.3727272727272726,
                "pitch": 54,
                "velocity": 51,
                "duration": 0.084090909090909,
                "tempo": 120.0
            },
            {
                "start_time": 3.3886363636363637,
                "end_time": 3.4727272727272727,
                "pitch": 55,
                "velocity": 51,
                "duration": 0.084090909090909,
                "tempo": 120.0
            },
            {
                "start_time": 3.4886363636363633,
                "end_time": 3.5727272727272728,
                "pitch": 56,
                "velocity": 51,
                "duration": 0.08409090909090944,
                "tempo": 120.0
            },
            {
                "start_time": 3.5886363636363634,
                "end_time": 3.6727272727272724,
                "pitch": 55,
                "velocity": 51,
                "duration": 0.084090909090909,
                "tempo": 120.0
            },
            {
                "start_time": 3.6886363636363635,
                "end_time": 3.7727272727272725,
                "pitch": 54,
                "velocity": 51,
                "duration": 0.084090909090909,
                "tempo": 120.0
            },
            {
                "start_time": 3.7886363636363636,
                "end_time": 3.8727272727272726,
                "pitch": 55,
                "velocity": 51,
                "duration": 0.084090909090909,
                "tempo": 120.0
            },
            {
                "start_time": 3.8886363636363637,
                "end_time": 3.9727272727272727,
                "pitch": 56,
                "velocity": 51,
                "duration": 0.084090909090909,
                "tempo": 120.0
            },
            {
                "start_time": 3.9886363636363633,
                "end_time": 4.072727272727272,
                "pitch": 55,
                "velocity": 51,
                "duration": 0.084090909090909,
                "tempo": 120.0
            },
            {
                "start_time": 4.088636363636364,
                "end_time": 4.172727272727273,
                "pitch": 54,
                "velocity": 51,
                "duration": 0.084090909090909,
                "tempo": 120.0
            },
            {
                "start_time": 4.1909090909090905,
                "end_time": 4.2749999999999995,
                "pitch": 55,
                "velocity": 51,
                "duration": 0.084090909090909,
                "tempo": 120.0
            },
            {
                "start_time": 4.290909090909091,
                "end_time": 4.375,
                "pitch": 56,
                "velocity": 51,
                "duration": 0.084090909090909,
                "tempo": 120.0
            },
            {
                "start_time": 4.390909090909091,
                "end_time": 4.475,
                "pitch": 55,
                "velocity": 51,
                "duration": 0.084090909090909,
                "tempo": 120.0
            },
            {
                "start_time": 4.49090909090909,
                "end_time": 4.575,
                "pitch": 54,
                "velocity": 51,
                "duration": 0.08409090909090988,
                "tempo": 120.0
            },
            {
                "start_time": 4.590909090909091,
                "end_time": 4.675,
                "pitch": 55,
                "velocity": 51,
                "duration": 0.084090909090909,
                "tempo": 120.0
            },
            {
                "start_time": 4.6909090909090905,
                "end_time": 4.7749999999999995,
                "pitch": 56,
                "velocity": 51,
                "duration": 0.084090909090909,
                "tempo": 120.0
            },
            {
                "start_time": 4.790909090909091,
                "end_time": 4.872727272727272,
                "pitch": 55,
                "velocity": 51,
                "duration": 0.08181818181818112,
                "tempo": 120.0
            },
            {
                "start_time": 4.888636363636364,
                "end_time": 4.970454545454545,
                "pitch": 54,
                "velocity": 51,
                "duration": 0.08181818181818112,
                "tempo": 120.0
            },
            {
                "start_time": 4.986363636363636,
                "end_time": 5.068181818181818,
                "pitch": 55,
                "velocity": 51,
                "duration": 0.08181818181818201,
                "tempo": 120.0
            },
            {
                "start_time": 5.086363636363636,
                "end_time": 5.168181818181818,
                "pitch": 56,
                "velocity": 51,
                "duration": 0.08181818181818201,
                "tempo": 120.0
            },
            {
                "start_time": 5.184090909090909,
                "end_time": 5.268181818181818,
                "pitch": 55,
                "velocity": 51,
                "duration": 0.084090909090909,
                "tempo": 120.0
            },
            {
                "start_time": 5.286363636363636,
                "end_time": 5.370454545454545,
                "pitch": 54,
                "velocity": 51,
                "duration": 0.084090909090909,
                "tempo": 120.0
            },
            {
                "start_time": 5.388636363636364,
                "end_time": 5.475,
                "pitch": 55,
                "velocity": 51,
                "duration": 0.08636363636363598,
                "tempo": 120.0
            },
            {
                "start_time": 5.49090909090909,
                "end_time": 5.577272727272727,
                "pitch": 56,
                "velocity": 51,
                "duration": 0.08636363636363686,
                "tempo": 120.0
            },
            {
                "start_time": 5.593181818181818,
                "end_time": 5.677272727272727,
                "pitch": 55,
                "velocity": 51,
                "duration": 0.084090909090909,
                "tempo": 120.0
            },
            {
                "start_time": 5.695454545454545,
                "end_time": 5.777272727272727,
                "pitch": 54,
                "velocity": 51,
                "duration": 0.08181818181818201,
                "tempo": 120.0
            },
            {
                "start_time": 5.795454545454545,
                "end_time": 5.877272727272727,
                "pitch": 55,
                "velocity": 51,
                "duration": 0.08181818181818201,
                "tempo": 120.0
            },
            {
                "start_time": 5.8954545454545455,
                "end_time": 5.977272727272727,
                "pitch": 56,
                "velocity": 51,
                "duration": 0.08181818181818112,
                "tempo": 120.0
            },
            {
                "start_time": 5.993181818181818,
                "end_time": 6.074999999999999,
                "pitch": 55,
                "velocity": 51,
                "duration": 0.08181818181818112,
                "tempo": 120.0
            },
            {
                "start_time": 6.093181818181818,
                "end_time": 6.175,
                "pitch": 54,
                "velocity": 51,
                "duration": 0.08181818181818201,
                "tempo": 120.0
            },
            {
                "start_time": 6.1909090909090905,
                "end_time": 6.2727272727272725,
                "pitch": 55,
                "velocity": 51,
                "duration": 0.08181818181818201,
                "tempo": 120.0
            },
            {
                "start_time": 6.288636363636363,
                "end_time": 6.370454545454545,
                "pitch": 56,
                "velocity": 51,
                "duration": 0.08181818181818201,
                "tempo": 120.0
            },
            {
                "start_time": 6.386363636363636,
                "end_time": 6.470454545454545,
                "pitch": 55,
                "velocity": 51,
                "duration": 0.084090909090909,
                "tempo": 120.0
            },
            {
                "start_time": 6.486363636363636,
                "end_time": 6.570454545454545,
                "pitch": 54,
                "velocity": 51,
                "duration": 0.084090909090909,
                "tempo": 120.0
            },
            {
                "start_time": 6.586363636363636,
                "end_time": 6.670454545454545,
                "pitch": 55,
                "velocity": 51,
                "duration": 0.084090909090909,
                "tempo": 120.0
            },
            {
                "start_time": 6.686363636363636,
                "end_time": 6.7704545454545455,
                "pitch": 56,
                "velocity": 51,
                "duration": 0.08409090909090988,
                "tempo": 120.0
            },
            {
                "start_time": 6.786363636363636,
                "end_time": 6.870454545454545,
                "pitch": 55,
                "velocity": 51,
                "duration": 0.084090909090909,
                "tempo": 120.0
            },
            {
                "start_time": 6.886363636363636,
                "end_time": 6.970454545454545,
                "pitch": 54,
                "velocity": 51,
                "duration": 0.084090909090909,
                "tempo": 120.0
            },
            {
                "start_time": 6.988636363636363,
                "end_time": 7.072727272727272,
                "pitch": 55,
                "velocity": 51,
                "duration": 0.084090909090909,
                "tempo": 120.0
            },
            {
                "start_time": 7.088636363636363,
                "end_time": 7.172727272727272,
                "pitch": 56,
                "velocity": 51,
                "duration": 0.084090909090909,
                "tempo": 120.0
            },
            {
                "start_time": 7.1886363636363635,
                "end_time": 7.2749999999999995,
                "pitch": 55,
                "velocity": 51,
                "duration": 0.08636363636363598,
                "tempo": 120.0
            },
            {
                "start_time": 7.29090909090909,
                "end_time": 7.377272727272727,
                "pitch": 54,
                "velocity": 51,
                "duration": 0.08636363636363686,
                "tempo": 120.0
            },
            {
                "start_time": 7.3954545454545455,
                "end_time": 7.4795454545454545,
                "pitch": 55,
                "velocity": 51,
                "duration": 0.084090909090909,
                "tempo": 120.0
            },
            {
                "start_time": 7.497727272727272,
                "end_time": 7.581818181818181,
                "pitch": 56,
                "velocity": 51,
                "duration": 0.084090909090909,
                "tempo": 120.0
            },
            {
                "start_time": 7.6,
                "end_time": 7.684090909090909,
                "pitch": 55,
                "velocity": 51,
                "duration": 0.084090909090909,
                "tempo": 120.0
            },
            {
                "start_time": 7.699999999999999,
                "end_time": 7.784090909090908,
                "pitch": 54,
                "velocity": 51,
                "duration": 0.084090909090909,
                "tempo": 120.0
            },
            {
                "start_time": 7.8,
                "end_time": 7.884090909090909,
                "pitch": 55,
                "velocity": 51,
                "duration": 0.084090909090909,
                "tempo": 120.0
            },
            {
                "start_time": 7.8999999999999995,
                "end_time": 7.9840909090909085,
                "pitch": 56,
                "velocity": 51,
                "duration": 0.084090909090909,
                "tempo": 120.0
            },
            {
                "start_time": 8.0,
                "end_time": 8.081818181818182,
                "pitch": 55,
                "velocity": 51,
                "duration": 0.08181818181818201,
                "tempo": 120.0
            },
            {
                "start_time": 8.097727272727273,
                "end_time": 8.179545454545455,
                "pitch": 54,
                "velocity": 51,
                "duration": 0.08181818181818201,
                "tempo": 120.0
            },
            {
                "start_time": 8.195454545454545,
                "end_time": 8.277272727272727,
                "pitch": 55,
                "velocity": 51,
                "duration": 0.08181818181818201,
                "tempo": 120.0
            },
            {
                "start_time": 8.293181818181818,
                "end_time": 8.375,
                "pitch": 56,
                "velocity": 51,
                "duration": 0.08181818181818201,
                "tempo": 120.0
            },
            {
                "start_time": 8.393181818181818,
                "end_time": 8.477272727272727,
                "pitch": 55,
                "velocity": 51,
                "duration": 0.084090909090909,
                "tempo": 120.0
            },
            {
                "start_time": 8.493181818181817,
                "end_time": 8.577272727272726,
                "pitch": 54,
                "velocity": 51,
                "duration": 0.084090909090909,
                "tempo": 120.0
            },
            {
                "start_time": 8.593181818181817,
                "end_time": 8.677272727272728,
                "pitch": 55,
                "velocity": 51,
                "duration": 0.08409090909091077,
                "tempo": 120.0
            },
            {
                "start_time": 8.695454545454545,
                "end_time": 8.777272727272727,
                "pitch": 56,
                "velocity": 51,
                "duration": 0.08181818181818201,
                "tempo": 120.0
            },
            {
                "start_time": 8.795454545454545,
                "end_time": 8.879545454545454,
                "pitch": 55,
                "velocity": 51,
                "duration": 0.084090909090909,
                "tempo": 120.0
            },
            {
                "start_time": 8.897727272727272,
                "end_time": 8.98409090909091,
                "pitch": 54,
                "velocity": 51,
                "duration": 0.08636363636363775,
                "tempo": 120.0
            },
            {
                "start_time": 9.0,
                "end_time": 9.086363636363636,
                "pitch": 55,
                "velocity": 51,
                "duration": 0.08636363636363598,
                "tempo": 120.0
            },
            {
                "start_time": 9.102272727272727,
                "end_time": 9.188636363636363,
                "pitch": 56,
                "velocity": 51,
                "duration": 0.08636363636363598,
                "tempo": 120.0
            },
            {
                "start_time": 9.206818181818182,
                "end_time": 9.290909090909091,
                "pitch": 55,
                "velocity": 51,
                "duration": 0.084090909090909,
                "tempo": 120.0
            },
            {
                "start_time": 9.306818181818182,
                "end_time": 9.39090909090909,
                "pitch": 54,
                "velocity": 51,
                "duration": 0.084090909090909,
                "tempo": 120.0
            },
            {
                "start_time": 9.406818181818181,
                "end_time": 9.49090909090909,
                "pitch": 55,
                "velocity": 51,
                "duration": 0.084090909090909,
                "tempo": 120.0
            },
            {
                "start_time": 9.509090909090908,
                "end_time": 9.59090909090909,
                "pitch": 56,
                "velocity": 51,
                "duration": 0.08181818181818201,
                "tempo": 120.0
            },
            {
                "start_time": 9.60909090909091,
                "end_time": 9.693181818181818,
                "pitch": 55,
                "velocity": 51,
                "duration": 0.084090909090909,
                "tempo": 120.0
            },
            {
                "start_time": 9.709090909090909,
                "end_time": 9.793181818181818,
                "pitch": 54,
                "velocity": 51,
                "duration": 0.084090909090909,
                "tempo": 120.0
            },
            {
                "start_time": 9.809090909090909,
                "end_time": 9.893181818181818,
                "pitch": 55,
                "velocity": 51,
                "duration": 0.084090909090909,
                "tempo": 120.0
            },
            {
                "start_time": 9.911363636363635,
                "end_time": 9.995454545454544,
                "pitch": 56,
                "velocity": 51,
                "duration": 0.084090909090909,
                "tempo": 120.0
            },
            {
                "start_time": 10.011363636363637,
                "end_time": 10.095454545454546,
                "pitch": 55,
                "velocity": 51,
                "duration": 0.084090909090909,
                "tempo": 120.0
            },
            {
                "start_time": 10.111363636363636,
                "end_time": 10.195454545454545,
                "pitch": 54,
                "velocity": 51,
                "duration": 0.084090909090909,
                "tempo": 120.0
            },
            {
                "start_time": 10.213636363636363,
                "end_time": 10.297727272727272,
                "pitch": 55,
                "velocity": 51,
                "duration": 0.084090909090909,
                "tempo": 120.0
            },
            {
                "start_time": 10.313636363636363,
                "end_time": 10.397727272727272,
                "pitch": 56,
                "velocity": 51,
                "duration": 0.084090909090909,
                "tempo": 120.0
            },
            {
                "start_time": 10.413636363636362,
                "end_time": 10.497727272727273,
                "pitch": 55,
                "velocity": 51,
                "duration": 0.08409090909091077,
                "tempo": 120.0
            },
            {
                "start_time": 10.513636363636364,
                "end_time": 10.597727272727273,
                "pitch": 54,
                "velocity": 51,
                "duration": 0.084090909090909,
                "tempo": 120.0
            },
            {
                "start_time": 10.61590909090909,
                "end_time": 10.7,
                "pitch": 55,
                "velocity": 51,
                "duration": 0.084090909090909,
                "tempo": 120.0
            },
            {
                "start_time": 10.71590909090909,
                "end_time": 10.799999999999999,
                "pitch": 56,
                "velocity": 51,
                "duration": 0.084090909090909,
                "tempo": 120.0
            },
            {
                "start_time": 10.81590909090909,
                "end_time": 10.9,
                "pitch": 55,
                "velocity": 51,
                "duration": 0.08409090909091077,
                "tempo": 120.0
            },
            {
                "start_time": 10.915909090909091,
                "end_time": 11.0,
                "pitch": 54,
                "velocity": 51,
                "duration": 0.084090909090909,
                "tempo": 120.0
            },
            {
                "start_time": 11.01590909090909,
                "end_time": 11.1,
                "pitch": 55,
                "velocity": 51,
                "duration": 0.084090909090909,
                "tempo": 120.0
            },
            {
                "start_time": 11.11590909090909,
                "end_time": 11.2,
                "pitch": 56,
                "velocity": 51,
                "duration": 0.084090909090909,
                "tempo": 120.0
            },
            {
                "start_time": 11.21590909090909,
                "end_time": 11.297727272727272,
                "pitch": 55,
                "velocity": 51,
                "duration": 0.08181818181818201,
                "tempo": 120.0
            },
            {
                "start_time": 11.31590909090909,
                "end_time": 11.395454545454545,
                "pitch": 54,
                "velocity": 51,
                "duration": 0.07954545454545503,
                "tempo": 120.0
            },
            {
                "start_time": 11.413636363636362,
                "end_time": 11.495454545454544,
                "pitch": 55,
                "velocity": 51,
                "duration": 0.08181818181818201,
                "tempo": 120.0
            },
            {
                "start_time": 11.511363636363637,
                "end_time": 11.593181818181817,
                "pitch": 56,
                "velocity": 51,
                "duration": 0.08181818181818024,
                "tempo": 120.0
            },
            {
                "start_time": 11.60909090909091,
                "end_time": 11.693181818181818,
                "pitch": 55,
                "velocity": 51,
                "duration": 0.084090909090909,
                "tempo": 120.0
            },
            {
                "start_time": 11.711363636363636,
                "end_time": 11.797727272727272,
                "pitch": 54,
                "velocity": 51,
                "duration": 0.08636363636363598,
                "tempo": 120.0
            },
            {
                "start_time": 11.813636363636363,
                "end_time": 11.899999999999999,
                "pitch": 55,
                "velocity": 51,
                "duration": 0.08636363636363598,
                "tempo": 120.0
            },
            {
                "start_time": 11.915909090909091,
                "end_time": 12.002272727272727,
                "pitch": 56,
                "velocity": 51,
                "duration": 0.08636363636363598,
                "tempo": 120.0
            },
            {
                "start_time": 12.020454545454545,
                "end_time": 12.1,
                "pitch": 55,
                "velocity": 51,
                "duration": 0.07954545454545503,
                "tempo": 120.0
            },
            {
                "start_time": 12.118181818181817,
                "end_time": 12.2,
                "pitch": 54,
                "velocity": 51,
                "duration": 0.08181818181818201,
                "tempo": 120.0
            },
            {
                "start_time": 12.21590909090909,
                "end_time": 12.297727272727272,
                "pitch": 55,
                "velocity": 51,
                "duration": 0.08181818181818201,
                "tempo": 120.0
            },
            {
                "start_time": 12.313636363636363,
                "end_time": 12.395454545454545,
                "pitch": 56,
                "velocity": 51,
                "duration": 0.08181818181818201,
                "tempo": 120.0
            },
            {
                "start_time": 12.411363636363635,
                "end_time": 12.495454545454544,
                "pitch": 55,
                "velocity": 51,
                "duration": 0.084090909090909,
                "tempo": 120.0
            },
            {
                "start_time": 12.511363636363635,
                "end_time": 12.595454545454546,
                "pitch": 54,
                "velocity": 51,
                "duration": 0.08409090909091077,
                "tempo": 120.0
            },
            {
                "start_time": 12.613636363636363,
                "end_time": 12.697727272727272,
                "pitch": 55,
                "velocity": 51,
                "duration": 0.084090909090909,
                "tempo": 120.0
            },
            {
                "start_time": 12.713636363636363,
                "end_time": 12.797727272727272,
                "pitch": 56,
                "velocity": 51,
                "duration": 0.084090909090909,
                "tempo": 120.0
            },
            {
                "start_time": 12.813636363636363,
                "end_time": 12.897727272727272,
                "pitch": 66,
                "velocity": 51,
                "duration": 0.084090909090909,
                "tempo": 120.0
            },
            {
                "start_time": 12.913636363636362,
                "end_time": 12.997727272727271,
                "pitch": 61,
                "velocity": 51,
                "duration": 0.084090909090909,
                "tempo": 120.0
            },
            {
                "start_time": 13.013636363636364,
                "end_time": 13.097727272727273,
                "pitch": 65,
                "velocity": 51,
                "duration": 0.084090909090909,
                "tempo": 120.0
            },
            {
                "start_time": 13.113636363636363,
                "end_time": 13.197727272727272,
                "pitch": 62,
                "velocity": 51,
                "duration": 0.084090909090909,
                "tempo": 120.0
            },
            {
                "start_time": 13.213636363636363,
                "end_time": 13.297727272727272,
                "pitch": 66,
                "velocity": 51,
                "duration": 0.084090909090909,
                "tempo": 120.0
            },
            {
                "start_time": 13.31590909090909,
                "end_time": 13.399999999999999,
                "pitch": 61,
                "velocity": 51,
                "duration": 0.084090909090909,
                "tempo": 120.0
            },
            {
                "start_time": 13.415909090909091,
                "end_time": 13.5,
                "pitch": 65,
                "velocity": 51,
                "duration": 0.084090909090909,
                "tempo": 120.0
            },
            {
                "start_time": 13.51590909090909,
                "end_time": 13.6,
                "pitch": 62,
                "velocity": 51,
                "duration": 0.084090909090909,
                "tempo": 120.0
            },
            {
                "start_time": 13.61590909090909,
                "end_time": 13.7,
                "pitch": 66,
                "velocity": 51,
                "duration": 0.084090909090909,
                "tempo": 120.0
            },
            {
                "start_time": 13.718181818181817,
                "end_time": 13.802272727272726,
                "pitch": 61,
                "velocity": 51,
                "duration": 0.084090909090909,
                "tempo": 120.0
            },
            {
                "start_time": 13.818181818181818,
                "end_time": 13.902272727272727,
                "pitch": 65,
                "velocity": 51,
                "duration": 0.084090909090909,
                "tempo": 120.0
            },
            {
                "start_time": 13.918181818181818,
                "end_time": 14.002272727272727,
                "pitch": 62,
                "velocity": 51,
                "duration": 0.084090909090909,
                "tempo": 120.0
            },
            {
                "start_time": 14.020454545454545,
                "end_time": 14.104545454545454,
                "pitch": 66,
                "velocity": 51,
                "duration": 0.084090909090909,
                "tempo": 120.0
            },
            {
                "start_time": 14.120454545454544,
                "end_time": 14.204545454545453,
                "pitch": 61,
                "velocity": 51,
                "duration": 0.084090909090909,
                "tempo": 120.0
            },
            {
                "start_time": 14.220454545454544,
                "end_time": 14.304545454545455,
                "pitch": 65,
                "velocity": 51,
                "duration": 0.08409090909091077,
                "tempo": 120.0
            },
            {
                "start_time": 14.322727272727272,
                "end_time": 14.404545454545454,
                "pitch": 62,
                "velocity": 51,
                "duration": 0.08181818181818201,
                "tempo": 120.0
            },
            {
                "start_time": 14.422727272727272,
                "end_time": 14.506818181818181,
                "pitch": 66,
                "velocity": 51,
                "duration": 0.084090909090909,
                "tempo": 120.0
            },
            {
                "start_time": 14.522727272727272,
                "end_time": 14.60681818181818,
                "pitch": 61,
                "velocity": 51,
                "duration": 0.084090909090909,
                "tempo": 120.0
            },
            {
                "start_time": 14.622727272727271,
                "end_time": 14.70681818181818,
                "pitch": 65,
                "velocity": 51,
                "duration": 0.084090909090909,
                "tempo": 120.0
            },
            {
                "start_time": 14.725,
                "end_time": 14.809090909090909,
                "pitch": 62,
                "velocity": 51,
                "duration": 0.084090909090909,
                "tempo": 120.0
            },
            {
                "start_time": 14.825,
                "end_time": 14.909090909090908,
                "pitch": 66,
                "velocity": 51,
                "duration": 0.084090909090909,
                "tempo": 120.0
            },
            {
                "start_time": 14.924999999999999,
                "end_time": 15.009090909090908,
                "pitch": 61,
                "velocity": 51,
                "duration": 0.084090909090909,
                "tempo": 120.0
            },
            {
                "start_time": 15.024999999999999,
                "end_time": 15.109090909090908,
                "pitch": 65,
                "velocity": 51,
                "duration": 0.084090909090909,
                "tempo": 120.0
            },
            {
                "start_time": 15.125,
                "end_time": 15.209090909090909,
                "pitch": 62,
                "velocity": 51,
                "duration": 0.084090909090909,
                "tempo": 120.0
            },
            {
                "start_time": 15.225,
                "end_time": 15.311363636363636,
                "pitch": 66,
                "velocity": 51,
                "duration": 0.08636363636363598,
                "tempo": 120.0
            },
            {
                "start_time": 15.327272727272726,
                "end_time": 15.413636363636362,
                "pitch": 61,
                "velocity": 51,
                "duration": 0.08636363636363598,
                "tempo": 120.0
            },
            {
                "start_time": 15.429545454545455,
                "end_time": 15.51590909090909,
                "pitch": 65,
                "velocity": 51,
                "duration": 0.08636363636363598,
                "tempo": 120.0
            },
            {
                "start_time": 15.534090909090908,
                "end_time": 15.618181818181817,
                "pitch": 62,
                "velocity": 51,
                "duration": 0.084090909090909,
                "tempo": 120.0
            },
            {
                "start_time": 15.636363636363635,
                "end_time": 15.718181818181817,
                "pitch": 66,
                "velocity": 51,
                "duration": 0.08181818181818201,
                "tempo": 120.0
            },
            {
                "start_time": 15.734090909090908,
                "end_time": 15.81590909090909,
                "pitch": 61,
                "velocity": 51,
                "duration": 0.08181818181818201,
                "tempo": 120.0
            },
            {
                "start_time": 15.83181818181818,
                "end_time": 15.913636363636362,
                "pitch": 65,
                "velocity": 51,
                "duration": 0.08181818181818201,
                "tempo": 120.0
            },
            {
                "start_time": 15.929545454545453,
                "end_time": 16.011363636363637,
                "pitch": 62,
                "velocity": 51,
                "duration": 0.08181818181818379,
                "tempo": 120.0
            },
            {
                "start_time": 16.027272727272727,
                "end_time": 16.111363636363635,
                "pitch": 66,
                "velocity": 51,
                "duration": 0.08409090909090722,
                "tempo": 120.0
            },
            {
                "start_time": 16.129545454545454,
                "end_time": 16.211363636363636,
                "pitch": 61,
                "velocity": 51,
                "duration": 0.08181818181818201,
                "tempo": 120.0
            },
            {
                "start_time": 16.229545454545455,
                "end_time": 16.313636363636363,
                "pitch": 65,
                "velocity": 51,
                "duration": 0.08409090909090722,
                "tempo": 120.0
            },
            {
                "start_time": 16.329545454545453,
                "end_time": 16.413636363636364,
                "pitch": 62,
                "velocity": 51,
                "duration": 0.08409090909091077,
                "tempo": 120.0
            },
            {
                "start_time": 16.429545454545455,
                "end_time": 16.51590909090909,
                "pitch": 66,
                "velocity": 51,
                "duration": 0.08636363636363598,
                "tempo": 120.0
            },
            {
                "start_time": 16.53409090909091,
                "end_time": 16.618181818181817,
                "pitch": 61,
                "velocity": 51,
                "duration": 0.08409090909090722,
                "tempo": 120.0
            },
            {
                "start_time": 16.636363636363637,
                "end_time": 16.720454545454544,
                "pitch": 65,
                "velocity": 51,
                "duration": 0.08409090909090722,
                "tempo": 120.0
            },
            {
                "start_time": 16.738636363636363,
                "end_time": 16.825,
                "pitch": 62,
                "velocity": 51,
                "duration": 0.08636363636363598,
                "tempo": 120.0
            },
            {
                "start_time": 16.84090909090909,
                "end_time": 16.922727272727272,
                "pitch": 66,
                "velocity": 51,
                "duration": 0.08181818181818201,
                "tempo": 120.0
            },
            {
                "start_time": 16.938636363636363,
                "end_time": 17.020454545454545,
                "pitch": 61,
                "velocity": 51,
                "duration": 0.08181818181818201,
                "tempo": 120.0
            },
            {
                "start_time": 17.036363636363635,
                "end_time": 17.118181818181817,
                "pitch": 65,
                "velocity": 51,
                "duration": 0.08181818181818201,
                "tempo": 120.0
            },
            {
                "start_time": 17.136363636363637,
                "end_time": 17.21818181818182,
                "pitch": 62,
                "velocity": 51,
                "duration": 0.08181818181818201,
                "tempo": 120.0
            },
            {
                "start_time": 17.23409090909091,
                "end_time": 17.31590909090909,
                "pitch": 66,
                "velocity": 51,
                "duration": 0.08181818181818201,
                "tempo": 120.0
            },
            {
                "start_time": 17.334090909090907,
                "end_time": 17.41590909090909,
                "pitch": 61,
                "velocity": 51,
                "duration": 0.08181818181818201,
                "tempo": 120.0
            },
            {
                "start_time": 17.43409090909091,
                "end_time": 17.51590909090909,
                "pitch": 65,
                "velocity": 51,
                "duration": 0.08181818181818201,
                "tempo": 120.0
            },
            {
                "start_time": 17.534090909090907,
                "end_time": 17.61590909090909,
                "pitch": 62,
                "velocity": 51,
                "duration": 0.08181818181818201,
                "tempo": 120.0
            },
            {
                "start_time": 17.634090909090908,
                "end_time": 17.71590909090909,
                "pitch": 66,
                "velocity": 51,
                "duration": 0.08181818181818201,
                "tempo": 120.0
            },
            {
                "start_time": 17.73409090909091,
                "end_time": 17.81590909090909,
                "pitch": 61,
                "velocity": 51,
                "duration": 0.08181818181818201,
                "tempo": 120.0
            },
            {
                "start_time": 17.834090909090907,
                "end_time": 17.91590909090909,
                "pitch": 65,
                "velocity": 51,
                "duration": 0.08181818181818201,
                "tempo": 120.0
            },
            {
                "start_time": 17.93409090909091,
                "end_time": 18.01590909090909,
                "pitch": 62,
                "velocity": 51,
                "duration": 0.08181818181818201,
                "tempo": 120.0
            },
            {
                "start_time": 18.034090909090907,
                "end_time": 18.118181818181817,
                "pitch": 66,
                "velocity": 51,
                "duration": 0.08409090909091077,
                "tempo": 120.0
            },
            {
                "start_time": 18.134090909090908,
                "end_time": 18.21818181818182,
                "pitch": 61,
                "velocity": 51,
                "duration": 0.08409090909091077,
                "tempo": 120.0
            },
            {
                "start_time": 18.23409090909091,
                "end_time": 18.318181818181817,
                "pitch": 65,
                "velocity": 51,
                "duration": 0.08409090909090722,
                "tempo": 120.0
            },
            {
                "start_time": 18.336363636363636,
                "end_time": 18.420454545454543,
                "pitch": 62,
                "velocity": 51,
                "duration": 0.08409090909090722,
                "tempo": 120.0
            },
            {
                "start_time": 18.436363636363634,
                "end_time": 18.520454545454545,
                "pitch": 66,
                "velocity": 51,
                "duration": 0.08409090909091077,
                "tempo": 120.0
            },
            {
                "start_time": 18.536363636363635,
                "end_time": 18.620454545454546,
                "pitch": 61,
                "velocity": 51,
                "duration": 0.08409090909091077,
                "tempo": 120.0
            },
            {
                "start_time": 18.636363636363637,
                "end_time": 18.720454545454544,
                "pitch": 65,
                "velocity": 51,
                "duration": 0.08409090909090722,
                "tempo": 120.0
            },
            {
                "start_time": 18.736363636363635,
                "end_time": 18.820454545454545,
                "pitch": 62,
                "velocity": 51,
                "duration": 0.08409090909091077,
                "tempo": 120.0
            },
            {
                "start_time": 18.836363636363636,
                "end_time": 18.920454545454543,
                "pitch": 66,
                "velocity": 51,
                "duration": 0.08409090909090722,
                "tempo": 120.0
            },
            {
                "start_time": 18.936363636363634,
                "end_time": 19.020454545454545,
                "pitch": 61,
                "velocity": 51,
                "duration": 0.08409090909091077,
                "tempo": 120.0
            },
            {
                "start_time": 19.038636363636364,
                "end_time": 19.120454545454546,
                "pitch": 65,
                "velocity": 51,
                "duration": 0.08181818181818201,
                "tempo": 120.0
            },
            {
                "start_time": 19.138636363636362,
                "end_time": 19.222727272727273,
                "pitch": 62,
                "velocity": 51,
                "duration": 0.08409090909091077,
                "tempo": 120.0
            },
            {
                "start_time": 19.238636363636363,
                "end_time": 19.325,
                "pitch": 66,
                "velocity": 51,
                "duration": 0.08636363636363598,
                "tempo": 120.0
            },
            {
                "start_time": 19.34090909090909,
                "end_time": 19.427272727272726,
                "pitch": 61,
                "velocity": 51,
                "duration": 0.08636363636363598,
                "tempo": 120.0
            },
            {
                "start_time": 19.443181818181817,
                "end_time": 19.529545454545453,
                "pitch": 65,
                "velocity": 51,
                "duration": 0.08636363636363598,
                "tempo": 120.0
            },
            {
                "start_time": 19.547727272727272,
                "end_time": 19.63181818181818,
                "pitch": 62,
                "velocity": 51,
                "duration": 0.08409090909090722,
                "tempo": 120.0
            },
            {
                "start_time": 19.65,
                "end_time": 19.73181818181818,
                "pitch": 66,
                "velocity": 51,
                "duration": 0.08181818181818201,
                "tempo": 120.0
            },
            {
                "start_time": 19.74772727272727,
                "end_time": 19.829545454545453,
                "pitch": 61,
                "velocity": 51,
                "duration": 0.08181818181818201,
                "tempo": 120.0
            },
            {
                "start_time": 19.845454545454544,
                "end_time": 19.927272727272726,
                "pitch": 65,
                "velocity": 51,
                "duration": 0.08181818181818201,
                "tempo": 120.0
            },
            {
                "start_time": 19.943181818181817,
                "end_time": 20.025,
                "pitch": 62,
                "velocity": 51,
                "duration": 0.08181818181818201,
                "tempo": 120.0
            },
            {
                "start_time": 20.04090909090909,
                "end_time": 20.127272727272725,
                "pitch": 66,
                "velocity": 51,
                "duration": 0.08636363636363598,
                "tempo": 120.0
            },
            {
                "start_time": 20.143181818181816,
                "end_time": 20.229545454545452,
                "pitch": 61,
                "velocity": 51,
                "duration": 0.08636363636363598,
                "tempo": 120.0
            },
            {
                "start_time": 20.24772727272727,
                "end_time": 20.331818181818182,
                "pitch": 65,
                "velocity": 51,
                "duration": 0.08409090909091077,
                "tempo": 120.0
            },
            {
                "start_time": 20.349999999999998,
                "end_time": 20.43409090909091,
                "pitch": 62,
                "velocity": 51,
                "duration": 0.08409090909091077,
                "tempo": 120.0
            },
            {
                "start_time": 20.452272727272728,
                "end_time": 20.534090909090907,
                "pitch": 66,
                "velocity": 51,
                "duration": 0.08181818181817846,
                "tempo": 120.0
            },
            {
                "start_time": 20.55,
                "end_time": 20.63181818181818,
                "pitch": 61,
                "velocity": 51,
                "duration": 0.08181818181817846,
                "tempo": 120.0
            },
            {
                "start_time": 20.647727272727273,
                "end_time": 20.729545454545452,
                "pitch": 65,
                "velocity": 51,
                "duration": 0.08181818181817846,
                "tempo": 120.0
            },
            {
                "start_time": 20.745454545454546,
                "end_time": 20.827272727272724,
                "pitch": 62,
                "velocity": 51,
                "duration": 0.08181818181817846,
                "tempo": 120.0
            },
            {
                "start_time": 20.845454545454544,
                "end_time": 20.927272727272726,
                "pitch": 66,
                "velocity": 51,
                "duration": 0.08181818181818201,
                "tempo": 120.0
            },
            {
                "start_time": 20.945454545454545,
                "end_time": 21.029545454545453,
                "pitch": 61,
                "velocity": 51,
                "duration": 0.08409090909090722,
                "tempo": 120.0
            },
            {
                "start_time": 21.045454545454543,
                "end_time": 21.129545454545454,
                "pitch": 65,
                "velocity": 51,
                "duration": 0.08409090909091077,
                "tempo": 120.0
            },
            {
                "start_time": 21.145454545454545,
                "end_time": 21.229545454545452,
                "pitch": 62,
                "velocity": 51,
                "duration": 0.08409090909090722,
                "tempo": 120.0
            },
            {
                "start_time": 21.24772727272727,
                "end_time": 21.331818181818182,
                "pitch": 66,
                "velocity": 51,
                "duration": 0.08409090909091077,
                "tempo": 120.0
            },
            {
                "start_time": 21.349999999999998,
                "end_time": 21.436363636363634,
                "pitch": 61,
                "velocity": 51,
                "duration": 0.08636363636363598,
                "tempo": 120.0
            },
            {
                "start_time": 21.452272727272724,
                "end_time": 21.538636363636364,
                "pitch": 65,
                "velocity": 51,
                "duration": 0.08636363636363953,
                "tempo": 120.0
            },
            {
                "start_time": 21.554545454545455,
                "end_time": 21.64090909090909,
                "pitch": 62,
                "velocity": 51,
                "duration": 0.08636363636363598,
                "tempo": 120.0
            },
            {
                "start_time": 21.65681818181818,
                "end_time": 21.74090909090909,
                "pitch": 66,
                "velocity": 51,
                "duration": 0.08409090909090722,
                "tempo": 120.0
            },
            {
                "start_time": 21.759090909090908,
                "end_time": 21.84090909090909,
                "pitch": 61,
                "velocity": 51,
                "duration": 0.08181818181818201,
                "tempo": 120.0
            },
            {
                "start_time": 21.85909090909091,
                "end_time": 21.94090909090909,
                "pitch": 65,
                "velocity": 51,
                "duration": 0.08181818181818201,
                "tempo": 120.0
            },
            {
                "start_time": 21.959090909090907,
                "end_time": 22.04090909090909,
                "pitch": 62,
                "velocity": 51,
                "duration": 0.08181818181818201,
                "tempo": 120.0
            },
            {
                "start_time": 22.05909090909091,
                "end_time": 22.138636363636362,
                "pitch": 66,
                "velocity": 51,
                "duration": 0.07954545454545325,
                "tempo": 120.0
            },
            {
                "start_time": 22.15681818181818,
                "end_time": 22.238636363636363,
                "pitch": 61,
                "velocity": 51,
                "duration": 0.08181818181818201,
                "tempo": 120.0
            },
            {
                "start_time": 22.254545454545454,
                "end_time": 22.336363636363636,
                "pitch": 65,
                "velocity": 51,
                "duration": 0.08181818181818201,
                "tempo": 120.0
            },
            {
                "start_time": 22.352272727272727,
                "end_time": 22.43409090909091,
                "pitch": 62,
                "velocity": 51,
                "duration": 0.08181818181818201,
                "tempo": 120.0
            },
            {
                "start_time": 22.45,
                "end_time": 22.534090909090907,
                "pitch": 66,
                "velocity": 51,
                "duration": 0.08409090909090722,
                "tempo": 120.0
            },
            {
                "start_time": 22.549999999999997,
                "end_time": 22.634090909090908,
                "pitch": 61,
                "velocity": 51,
                "duration": 0.08409090909091077,
                "tempo": 120.0
            },
            {
                "start_time": 22.65,
                "end_time": 22.73409090909091,
                "pitch": 65,
                "velocity": 51,
                "duration": 0.08409090909091077,
                "tempo": 120.0
            },
            {
                "start_time": 22.75,
                "end_time": 22.834090909090907,
                "pitch": 62,
                "velocity": 51,
                "duration": 0.08409090909090722,
                "tempo": 120.0
            },
            {
                "start_time": 22.849999999999998,
                "end_time": 22.93409090909091,
                "pitch": 66,
                "velocity": 51,
                "duration": 0.08409090909091077,
                "tempo": 120.0
            },
            {
                "start_time": 22.95,
                "end_time": 23.034090909090907,
                "pitch": 61,
                "velocity": 51,
                "duration": 0.08409090909090722,
                "tempo": 120.0
            },
            {
                "start_time": 23.052272727272726,
                "end_time": 23.136363636363637,
                "pitch": 65,
                "velocity": 51,
                "duration": 0.08409090909091077,
                "tempo": 120.0
            },
            {
                "start_time": 23.152272727272727,
                "end_time": 23.236363636363635,
                "pitch": 62,
                "velocity": 51,
                "duration": 0.08409090909090722,
                "tempo": 120.0
            },
            {
                "start_time": 23.252272727272725,
                "end_time": 23.33863636363636,
                "pitch": 66,
                "velocity": 51,
                "duration": 0.08636363636363598,
                "tempo": 120.0
            },
            {
                "start_time": 23.354545454545452,
                "end_time": 23.44090909090909,
                "pitch": 61,
                "velocity": 51,
                "duration": 0.08636363636363953,
                "tempo": 120.0
            },
            {
                "start_time": 23.459090909090907,
                "end_time": 23.543181818181818,
                "pitch": 65,
                "velocity": 51,
                "duration": 0.08409090909091077,
                "tempo": 120.0
            },
            {
                "start_time": 23.561363636363634,
                "end_time": 23.64772727272727,
                "pitch": 62,
                "velocity": 51,
                "duration": 0.08636363636363598,
                "tempo": 120.0
            },
            {
                "start_time": 23.663636363636364,
                "end_time": 23.74772727272727,
                "pitch": 66,
                "velocity": 51,
                "duration": 0.08409090909090722,
                "tempo": 120.0
            },
            {
                "start_time": 23.763636363636362,
                "end_time": 23.847727272727273,
                "pitch": 61,
                "velocity": 51,
                "duration": 0.08409090909091077,
                "tempo": 120.0
            },
            {
                "start_time": 23.863636363636363,
                "end_time": 23.94772727272727,
                "pitch": 65,
                "velocity": 51,
                "duration": 0.08409090909090722,
                "tempo": 120.0
            },
            {
                "start_time": 23.96363636363636,
                "end_time": 24.047727272727272,
                "pitch": 62,
                "velocity": 51,
                "duration": 0.08409090909091077,
                "tempo": 120.0
            },
            {
                "start_time": 24.063636363636363,
                "end_time": 24.14772727272727,
                "pitch": 66,
                "velocity": 51,
                "duration": 0.08409090909090722,
                "tempo": 120.0
            },
            {
                "start_time": 24.163636363636364,
                "end_time": 24.24772727272727,
                "pitch": 61,
                "velocity": 51,
                "duration": 0.08409090909090722,
                "tempo": 120.0
            },
            {
                "start_time": 24.263636363636362,
                "end_time": 24.347727272727273,
                "pitch": 65,
                "velocity": 51,
                "duration": 0.08409090909091077,
                "tempo": 120.0
            },
            {
                "start_time": 24.363636363636363,
                "end_time": 24.44772727272727,
                "pitch": 62,
                "velocity": 51,
                "duration": 0.08409090909090722,
                "tempo": 120.0
            },
            {
                "start_time": 24.46363636363636,
                "end_time": 24.545454545454543,
                "pitch": 66,
                "velocity": 51,
                "duration": 0.08181818181818201,
                "tempo": 120.0
            },
            {
                "start_time": 24.561363636363634,
                "end_time": 24.643181818181816,
                "pitch": 61,
                "velocity": 51,
                "duration": 0.08181818181818201,
                "tempo": 120.0
            },
            {
                "start_time": 24.659090909090907,
                "end_time": 24.74090909090909,
                "pitch": 65,
                "velocity": 51,
                "duration": 0.08181818181818201,
                "tempo": 120.0
            },
            {
                "start_time": 24.759090909090908,
                "end_time": 24.83863636363636,
                "pitch": 62,
                "velocity": 51,
                "duration": 0.07954545454545325,
                "tempo": 120.0
            },
            {
                "start_time": 24.85681818181818,
                "end_time": 24.94090909090909,
                "pitch": 66,
                "velocity": 51,
                "duration": 0.08409090909091077,
                "tempo": 120.0
            },
            {
                "start_time": 24.956818181818182,
                "end_time": 25.04090909090909,
                "pitch": 61,
                "velocity": 51,
                "duration": 0.08409090909090722,
                "tempo": 120.0
            },
            {
                "start_time": 25.05681818181818,
                "end_time": 25.14090909090909,
                "pitch": 65,
                "velocity": 51,
                "duration": 0.08409090909091077,
                "tempo": 120.0
            },
            {
                "start_time": 25.159090909090907,
                "end_time": 25.243181818181817,
                "pitch": 62,
                "velocity": 51,
                "duration": 0.08409090909091077,
                "tempo": 120.0
            },
            {
                "start_time": 25.259090909090908,
                "end_time": 25.34318181818182,
                "pitch": 66,
                "velocity": 51,
                "duration": 0.08409090909091077,
                "tempo": 120.0
            },
            {
                "start_time": 25.35909090909091,
                "end_time": 25.443181818181817,
                "pitch": 61,
                "velocity": 51,
                "duration": 0.08409090909090722,
                "tempo": 120.0
            },
            {
                "start_time": 25.459090909090907,
                "end_time": 25.543181818181818,
                "pitch": 65,
                "velocity": 51,
                "duration": 0.08409090909091077,
                "tempo": 120.0
            },
            {
                "start_time": 25.55909090909091,
                "end_time": 25.643181818181816,
                "pitch": 62,
                "velocity": 51,
                "duration": 0.08409090909090722,
                "tempo": 120.0
            },
            {
                "start_time": 25.659090909090907,
                "end_time": 25.743181818181817,
                "pitch": 55,
                "velocity": 51,
                "duration": 0.08409090909091077,
                "tempo": 120.0
            }
        ]
    }
}