{
    "track_id": "Cyborg Hunter (FM) - 03 - Level A _ D",
    "mood": "sad",
    "instruments": {
        "Lead 2 (sawtooth)": [
            {
                "start_time": 14.518181818181818,
                "end_time": 14.61590909090909,
                "pitch": 66,
                "velocity": 80,
                "duration": 0.09772727272727266,
                "tempo": 120.0
            },
            {
                "start_time": 14.631818181818181,
                "end_time": 14.73181818181818,
                "pitch": 61,
                "velocity": 80,
                "duration": 0.09999999999999964,
                "tempo": 120.0
            },
            {
                "start_time": 14.747727272727271,
                "end_time": 14.845454545454544,
                "pitch": 59,
                "velocity": 80,
                "duration": 0.09772727272727266,
                "tempo": 120.0
            },
            {
                "start_time": 14.861363636363636,
                "end_time": 14.943181818181818,
                "pitch": 54,
                "velocity": 80,
                "duration": 0.08181818181818201,
                "tempo": 120.0
            },
            {
                "start_time": 14.977272727272727,
                "end_time": 15.063636363636363,
                "pitch": 66,
                "velocity": 80,
                "duration": 0.08636363636363598,
                "tempo": 120.0
            },
            {
                "start_time": 15.08181818181818,
                "end_time": 15.186363636363636,
                "pitch": 62,
                "velocity": 80,
                "duration": 0.10454545454545539,
                "tempo": 120.0
            },
            {
                "start_time": 15.204545454545453,
                "end_time": 15.309090909090909,
                "pitch": 59,
                "velocity": 80,
                "duration": 0.10454545454545539,
                "tempo": 120.0
            },
            {
                "start_time": 15.327272727272726,
                "end_time": 15.431818181818182,
                "pitch": 54,
                "velocity": 80,
                "duration": 0.10454545454545539,
                "tempo": 120.0
            },
            {
                "start_time": 15.45,
                "end_time": 15.545454545454545,
                "pitch": 66,
                "velocity": 80,
                "duration": 0.09545454545454568,
                "tempo": 120.0
            },
            {
                "start_time": 15.561363636363636,
                "end_time": 15.656818181818181,
                "pitch": 61,
                "velocity": 80,
                "duration": 0.09545454545454568,
                "tempo": 120.0
            },
            {
                "start_time": 15.672727272727272,
                "end_time": 15.752272727272727,
                "pitch": 59,
                "velocity": 80,
                "duration": 0.07954545454545503,
                "tempo": 120.0
            },
            {
                "start_time": 15.784090909090908,
                "end_time": 15.863636363636363,
                "pitch": 54,
                "velocity": 80,
                "duration": 0.07954545454545503,
                "tempo": 120.0
            },
            {
                "start_time": 15.881818181818181,
                "end_time": 15.98181818181818,
                "pitch": 66,
                "velocity": 80,
                "duration": 0.09999999999999964,
                "tempo": 120.0
            },
            {
                "start_time": 15.997727272727271,
                "end_time": 16.097727272727273,
                "pitch": 62,
                "velocity": 80,
                "duration": 0.10000000000000142,
                "tempo": 120.0
            },
            {
                "start_time": 16.113636363636363,
                "end_time": 16.21590909090909,
                "pitch": 59,
                "velocity": 80,
                "duration": 0.10227272727272663,
                "tempo": 120.0
            },
            {
                "start_time": 16.23181818181818,
                "end_time": 16.331818181818182,
                "pitch": 54,
                "velocity": 80,
                "duration": 0.10000000000000142,
                "tempo": 120.0
            },
            {
                "start_time": 16.347727272727273,
                "end_time": 16.45,
                "pitch": 66,
                "velocity": 80,
                "duration": 0.10227272727272663,
                "tempo": 120.0
            },
            {
                "start_time": 16.46590909090909,
                "end_time": 16.55,
                "pitch": 61,
                "velocity": 80,
                "duration": 0.08409090909091077,
                "tempo": 120.0
            },
            {
                "start_time": 16.584090909090907,
                "end_time": 16.66590909090909,
                "pitch": 59,
                "velocity": 80,
                "duration": 0.08181818181818201,
                "tempo": 120.0
            },
            {
                "start_time": 16.68409090909091,
                "end_time": 16.784090909090907,
                "pitch": 54,
                "velocity": 80,
                "duration": 0.09999999999999787,
                "tempo": 120.0
            },
            {
                "start_time": 16.8,
                "end_time": 16.897727272727273,
                "pitch": 66,
                "velocity": 80,
                "duration": 0.09772727272727266,
                "tempo": 120.0
            },
            {
                "start_time": 16.91590909090909,
                "end_time": 17.013636363636362,
                "pitch": 62,
                "velocity": 80,
                "duration": 0.09772727272727266,
                "tempo": 120.0
            },
            {
                "start_time": 17.029545454545453,
                "end_time": 17.127272727272725,
                "pitch": 59,
                "velocity": 80,
                "duration": 0.09772727272727266,
                "tempo": 120.0
            },
            {
                "start_time": 17.143181818181816,
                "end_time": 17.24090909090909,
                "pitch": 54,
                "velocity": 80,
                "duration": 0.09772727272727266,
                "tempo": 120.0
            },
            {
                "start_time": 17.259090909090908,
                "end_time": 17.34318181818182,
                "pitch": 66,
                "velocity": 80,
                "duration": 0.08409090909091077,
                "tempo": 120.0
            },
            {
                "start_time": 17.377272727272725,
                "end_time": 17.46363636363636,
                "pitch": 61,
                "velocity": 80,
                "duration": 0.08636363636363598,
                "tempo": 120.0
            },
            {
                "start_time": 17.479545454545455,
                "end_time": 17.584090909090907,
                "pitch": 59,
                "velocity": 80,
                "duration": 0.10454545454545183,
                "tempo": 120.0
            },
            {
                "start_time": 17.599999999999998,
                "end_time": 17.702272727272728,
                "pitch": 54,
                "velocity": 80,
                "duration": 0.10227272727273018,
                "tempo": 120.0
            },
            {
                "start_time": 17.720454545454544,
                "end_time": 17.818181818181817,
                "pitch": 66,
                "velocity": 80,
                "duration": 0.09772727272727266,
                "tempo": 120.0
            },
            {
                "start_time": 17.834090909090907,
                "end_time": 17.93409090909091,
                "pitch": 62,
                "velocity": 80,
                "duration": 0.10000000000000142,
                "tempo": 120.0
            },
            {
                "start_time": 17.95,
                "end_time": 18.047727272727272,
                "pitch": 59,
                "velocity": 80,
                "duration": 0.09772727272727266,
                "tempo": 120.0
            },
            {
                "start_time": 18.063636363636363,
                "end_time": 18.145454545454545,
                "pitch": 54,
                "velocity": 80,
                "duration": 0.08181818181818201,
                "tempo": 120.0
            },
            {
                "start_time": 18.179545454545455,
                "end_time": 18.261363636363637,
                "pitch": 66,
                "velocity": 80,
                "duration": 0.08181818181818201,
                "tempo": 120.0
            },
            {
                "start_time": 18.279545454545453,
                "end_time": 18.379545454545454,
                "pitch": 61,
                "velocity": 80,
                "duration": 0.10000000000000142,
                "tempo": 120.0
            },
            {
                "start_time": 18.395454545454545,
                "end_time": 18.495454545454546,
                "pitch": 59,
                "velocity": 80,
                "duration": 0.10000000000000142,
                "tempo": 120.0
            },
            {
                "start_time": 18.513636363636362,
                "end_time": 18.613636363636363,
                "pitch": 54,
                "velocity": 80,
                "duration": 0.10000000000000142,
                "tempo": 120.0
            },
            {
                "start_time": 18.629545454545454,
                "end_time": 18.729545454545455,
                "pitch": 66,
                "velocity": 80,
                "duration": 0.10000000000000142,
                "tempo": 120.0
            },
            {
                "start_time": 18.74772727272727,
                "end_time": 18.847727272727273,
                "pitch": 62,
                "velocity": 80,
                "duration": 0.10000000000000142,
                "tempo": 120.0
            },
            {
                "start_time": 18.863636363636363,
                "end_time": 18.94772727272727,
                "pitch": 59,
                "velocity": 80,
                "duration": 0.08409090909090722,
                "tempo": 120.0
            },
            {
                "start_time": 18.98181818181818,
                "end_time": 19.06590909090909,
                "pitch": 54,
                "velocity": 80,
                "duration": 0.08409090909091077,
                "tempo": 120.0
            },
            {
                "start_time": 19.081818181818182,
                "end_time": 19.179545454545455,
                "pitch": 66,
                "velocity": 80,
                "duration": 0.09772727272727266,
                "tempo": 120.0
            },
            {
                "start_time": 19.195454545454545,
                "end_time": 19.295454545454543,
                "pitch": 61,
                "velocity": 80,
                "duration": 0.09999999999999787,
                "tempo": 120.0
            },
            {
                "start_time": 19.311363636363634,
                "end_time": 19.409090909090907,
                "pitch": 59,
                "velocity": 80,
                "duration": 0.09772727272727266,
                "tempo": 120.0
            },
            {
                "start_time": 19.425,
                "end_time": 19.522727272727273,
                "pitch": 54,
                "velocity": 80,
                "duration": 0.09772727272727266,
                "tempo": 120.0
            },
            {
                "start_time": 19.538636363636364,
                "end_time": 19.64090909090909,
                "pitch": 66,
                "velocity": 80,
                "duration": 0.10227272727272663,
                "tempo": 120.0
            },
            {
                "start_time": 19.65681818181818,
                "end_time": 19.74090909090909,
                "pitch": 62,
                "velocity": 80,
                "duration": 0.08409090909090722,
                "tempo": 120.0
            },
            {
                "start_time": 19.772727272727273,
                "end_time": 19.85681818181818,
                "pitch": 59,
                "velocity": 80,
                "duration": 0.08409090909090722,
                "tempo": 120.0
            },
            {
                "start_time": 19.875,
                "end_time": 19.974999999999998,
                "pitch": 54,
                "velocity": 80,
                "duration": 0.09999999999999787,
                "tempo": 120.0
            },
            {
                "start_time": 19.99090909090909,
                "end_time": 20.08863636363636,
                "pitch": 66,
                "velocity": 80,
                "duration": 0.09772727272727266,
                "tempo": 120.0
            },
            {
                "start_time": 20.10681818181818,
                "end_time": 20.204545454545453,
                "pitch": 61,
                "velocity": 80,
                "duration": 0.09772727272727266,
                "tempo": 120.0
            },
            {
                "start_time": 20.220454545454544,
                "end_time": 20.318181818181817,
                "pitch": 59,
                "velocity": 80,
                "duration": 0.09772727272727266,
                "tempo": 120.0
            },
            {
                "start_time": 20.334090909090907,
                "end_time": 20.43181818181818,
                "pitch": 54,
                "velocity": 80,
                "duration": 0.09772727272727266,
                "tempo": 120.0
            },
            {
                "start_time": 20.45,
                "end_time": 20.534090909090907,
                "pitch": 66,
                "velocity": 80,
                "duration": 0.08409090909090722,
                "tempo": 120.0
            },
            {
                "start_time": 20.568181818181817,
                "end_time": 20.654545454545453,
                "pitch": 62,
                "velocity": 80,
                "duration": 0.08636363636363598,
                "tempo": 120.0
            },
            {
                "start_time": 20.670454545454543,
                "end_time": 20.775,
                "pitch": 59,
                "velocity": 80,
                "duration": 0.10454545454545539,
                "tempo": 120.0
            },
            {
                "start_time": 20.79090909090909,
                "end_time": 20.893181818181816,
                "pitch": 54,
                "velocity": 80,
                "duration": 0.10227272727272663,
                "tempo": 120.0
            },
            {
                "start_time": 20.911363636363635,
                "end_time": 21.009090909090908,
                "pitch": 66,
                "velocity": 80,
                "duration": 0.09772727272727266,
                "tempo": 120.0
            },
            {
                "start_time": 21.025,
                "end_time": 21.125,
                "pitch": 61,
                "velocity": 80,
                "duration": 0.10000000000000142,
                "tempo": 120.0
            },
            {
                "start_time": 21.14090909090909,
                "end_time": 21.238636363636363,
                "pitch": 59,
                "velocity": 80,
                "duration": 0.09772727272727266,
                "tempo": 120.0
            },
            {
                "start_time": 21.254545454545454,
                "end_time": 21.336363636363636,
                "pitch": 54,
                "velocity": 80,
                "duration": 0.08181818181818201,
                "tempo": 120.0
            },
            {
                "start_time": 21.368181818181817,
                "end_time": 21.452272727272724,
                "pitch": 66,
                "velocity": 80,
                "duration": 0.08409090909090722,
                "tempo": 120.0
            },
            {
                "start_time": 21.470454545454544,
                "end_time": 21.570454545454545,
                "pitch": 62,
                "velocity": 80,
                "duration": 0.10000000000000142,
                "tempo": 120.0
            },
            {
                "start_time": 21.586363636363636,
                "end_time": 21.686363636363634,
                "pitch": 59,
                "velocity": 80,
                "duration": 0.09999999999999787,
                "tempo": 120.0
            },
            {
                "start_time": 21.704545454545453,
                "end_time": 21.770454545454545,
                "pitch": 54,
                "velocity": 80,
                "duration": 0.06590909090909136,
                "tempo": 120.0
            },
            {
                "start_time": 43.69772727272727,
                "end_time": 43.78181818181818,
                "pitch": 66,
                "velocity": 80,
                "duration": 0.08409090909091077,
                "tempo": 120.0
            },
            {
                "start_time": 43.8,
                "end_time": 43.902272727272724,
                "pitch": 61,
                "velocity": 80,
                "duration": 0.10227272727272663,
                "tempo": 120.0
            },
            {
                "start_time": 43.918181818181814,
                "end_time": 44.02272727272727,
                "pitch": 59,
                "velocity": 80,
                "duration": 0.10454545454545894,
                "tempo": 120.0
            },
            {
                "start_time": 44.038636363636364,
                "end_time": 44.14090909090909,
                "pitch": 54,
                "velocity": 80,
                "duration": 0.10227272727272663,
                "tempo": 120.0
            },
            {
                "start_time": 44.15909090909091,
                "end_time": 44.25909090909091,
                "pitch": 66,
                "velocity": 80,
                "duration": 0.10000000000000142,
                "tempo": 120.0
            },
            {
                "start_time": 44.277272727272724,
                "end_time": 44.377272727272725,
                "pitch": 62,
                "velocity": 80,
                "duration": 0.10000000000000142,
                "tempo": 120.0
            },
            {
                "start_time": 44.393181818181816,
                "end_time": 44.47727272727273,
                "pitch": 59,
                "velocity": 80,
                "duration": 0.08409090909091077,
                "tempo": 120.0
            },
            {
                "start_time": 44.51136363636363,
                "end_time": 44.59318181818182,
                "pitch": 54,
                "velocity": 80,
                "duration": 0.08181818181818556,
                "tempo": 120.0
            },
            {
                "start_time": 44.611363636363635,
                "end_time": 44.70681818181818,
                "pitch": 66,
                "velocity": 80,
                "duration": 0.0954545454545439,
                "tempo": 120.0
            },
            {
                "start_time": 44.72272727272727,
                "end_time": 44.81818181818181,
                "pitch": 61,
                "velocity": 80,
                "duration": 0.0954545454545439,
                "tempo": 120.0
            },
            {
                "start_time": 44.834090909090904,
                "end_time": 44.929545454545455,
                "pitch": 59,
                "velocity": 80,
                "duration": 0.09545454545455101,
                "tempo": 120.0
            },
            {
                "start_time": 44.945454545454545,
                "end_time": 45.043181818181814,
                "pitch": 54,
                "velocity": 80,
                "duration": 0.09772727272726911,
                "tempo": 120.0
            },
            {
                "start_time": 45.059090909090905,
                "end_time": 45.16136363636363,
                "pitch": 66,
                "velocity": 80,
                "duration": 0.10227272727272663,
                "tempo": 120.0
            },
            {
                "start_time": 45.17727272727272,
                "end_time": 45.26363636363636,
                "pitch": 62,
                "velocity": 80,
                "duration": 0.08636363636363598,
                "tempo": 120.0
            },
            {
                "start_time": 45.29772727272727,
                "end_time": 45.38409090909091,
                "pitch": 59,
                "velocity": 80,
                "duration": 0.08636363636363598,
                "tempo": 120.0
            },
            {
                "start_time": 45.4,
                "end_time": 45.50454545454545,
                "pitch": 54,
                "velocity": 80,
                "duration": 0.10454545454545183,
                "tempo": 120.0
            },
            {
                "start_time": 45.52045454545454,
                "end_time": 45.61818181818182,
                "pitch": 66,
                "velocity": 80,
                "duration": 0.09772727272727622,
                "tempo": 120.0
            },
            {
                "start_time": 45.63409090909091,
                "end_time": 45.73409090909091,
                "pitch": 61,
                "velocity": 80,
                "duration": 0.10000000000000142,
                "tempo": 120.0
            },
            {
                "start_time": 45.75,
                "end_time": 45.84772727272727,
                "pitch": 59,
                "velocity": 80,
                "duration": 0.09772727272726911,
                "tempo": 120.0
            },
            {
                "start_time": 45.86363636363636,
                "end_time": 45.961363636363636,
                "pitch": 54,
                "velocity": 80,
                "duration": 0.09772727272727622,
                "tempo": 120.0
            },
            {
                "start_time": 45.97954545454545,
                "end_time": 46.06363636363636,
                "pitch": 66,
                "velocity": 80,
                "duration": 0.08409090909091077,
                "tempo": 120.0
            },
            {
                "start_time": 46.09772727272727,
                "end_time": 46.184090909090905,
                "pitch": 62,
                "velocity": 80,
                "duration": 0.08636363636363598,
                "tempo": 120.0
            },
            {
                "start_time": 46.199999999999996,
                "end_time": 46.304545454545455,
                "pitch": 59,
                "velocity": 80,
                "duration": 0.10454545454545894,
                "tempo": 120.0
            },
            {
                "start_time": 46.320454545454545,
                "end_time": 46.42272727272727,
                "pitch": 54,
                "velocity": 80,
                "duration": 0.10227272727272663,
                "tempo": 120.0
            },
            {
                "start_time": 46.44090909090909,
                "end_time": 46.538636363636364,
                "pitch": 66,
                "velocity": 80,
                "duration": 0.09772727272727622,
                "tempo": 120.0
            },
            {
                "start_time": 46.554545454545455,
                "end_time": 46.652272727272724,
                "pitch": 61,
                "velocity": 80,
                "duration": 0.09772727272726911,
                "tempo": 120.0
            },
            {
                "start_time": 46.67045454545454,
                "end_time": 46.768181818181816,
                "pitch": 59,
                "velocity": 80,
                "duration": 0.09772727272727622,
                "tempo": 120.0
            },
            {
                "start_time": 46.78409090909091,
                "end_time": 46.86590909090909,
                "pitch": 54,
                "velocity": 80,
                "duration": 0.08181818181818556,
                "tempo": 120.0
            },
            {
                "start_time": 46.89772727272727,
                "end_time": 46.98181818181818,
                "pitch": 66,
                "velocity": 80,
                "duration": 0.08409090909090366,
                "tempo": 120.0
            },
            {
                "start_time": 47.0,
                "end_time": 47.099999999999994,
                "pitch": 62,
                "velocity": 80,
                "duration": 0.09999999999999432,
                "tempo": 120.0
            },
            {
                "start_time": 47.11590909090909,
                "end_time": 47.215909090909086,
                "pitch": 59,
                "velocity": 80,
                "duration": 0.09999999999999432,
                "tempo": 120.0
            },
            {
                "start_time": 47.23409090909091,
                "end_time": 47.334090909090904,
                "pitch": 54,
                "velocity": 80,
                "duration": 0.09999999999999432,
                "tempo": 120.0
            },
            {
                "start_time": 47.349999999999994,
                "end_time": 47.44772727272727,
                "pitch": 66,
                "velocity": 80,
                "duration": 0.09772727272727622,
                "tempo": 120.0
            },
            {
                "start_time": 47.46363636363636,
                "end_time": 47.56363636363636,
                "pitch": 61,
                "velocity": 80,
                "duration": 0.10000000000000142,
                "tempo": 120.0
            },
            {
                "start_time": 47.57954545454545,
                "end_time": 47.66136363636363,
                "pitch": 59,
                "velocity": 80,
                "duration": 0.08181818181817846,
                "tempo": 120.0
            },
            {
                "start_time": 47.69318181818181,
                "end_time": 47.775,
                "pitch": 54,
                "velocity": 80,
                "duration": 0.08181818181818556,
                "tempo": 120.0
            },
            {
                "start_time": 47.79090909090909,
                "end_time": 47.89090909090909,
                "pitch": 66,
                "velocity": 80,
                "duration": 0.10000000000000142,
                "tempo": 120.0
            },
            {
                "start_time": 47.90909090909091,
                "end_time": 48.00909090909091,
                "pitch": 62,
                "velocity": 80,
                "duration": 0.10000000000000142,
                "tempo": 120.0
            },
            {
                "start_time": 48.025,
                "end_time": 48.125,
                "pitch": 59,
                "velocity": 80,
                "duration": 0.10000000000000142,
                "tempo": 120.0
            },
            {
                "start_time": 48.143181818181816,
                "end_time": 48.24318181818182,
                "pitch": 54,
                "velocity": 80,
                "duration": 0.10000000000000142,
                "tempo": 120.0
            },
            {
                "start_time": 48.25909090909091,
                "end_time": 48.361363636363635,
                "pitch": 66,
                "velocity": 80,
                "duration": 0.10227272727272663,
                "tempo": 120.0
            },
            {
                "start_time": 48.377272727272725,
                "end_time": 48.461363636363636,
                "pitch": 61,
                "velocity": 80,
                "duration": 0.08409090909091077,
                "tempo": 120.0
            },
            {
                "start_time": 48.49318181818182,
                "end_time": 48.57727272727273,
                "pitch": 59,
                "velocity": 80,
                "duration": 0.08409090909091077,
                "tempo": 120.0
            },
            {
                "start_time": 48.595454545454544,
                "end_time": 48.695454545454545,
                "pitch": 54,
                "velocity": 80,
                "duration": 0.10000000000000142,
                "tempo": 120.0
            },
            {
                "start_time": 48.711363636363636,
                "end_time": 48.809090909090905,
                "pitch": 66,
                "velocity": 80,
                "duration": 0.09772727272726911,
                "tempo": 120.0
            },
            {
                "start_time": 48.824999999999996,
                "end_time": 48.925,
                "pitch": 62,
                "velocity": 80,
                "duration": 0.10000000000000142,
                "tempo": 120.0
            },
            {
                "start_time": 48.94090909090909,
                "end_time": 49.038636363636364,
                "pitch": 59,
                "velocity": 80,
                "duration": 0.09772727272727622,
                "tempo": 120.0
            },
            {
                "start_time": 49.054545454545455,
                "end_time": 49.152272727272724,
                "pitch": 54,
                "velocity": 80,
                "duration": 0.09772727272726911,
                "tempo": 120.0
            },
            {
                "start_time": 49.17045454545454,
                "end_time": 49.25454545454545,
                "pitch": 66,
                "velocity": 80,
                "duration": 0.08409090909091077,
                "tempo": 120.0
            },
            {
                "start_time": 49.288636363636364,
                "end_time": 49.375,
                "pitch": 61,
                "velocity": 80,
                "duration": 0.08636363636363598,
                "tempo": 120.0
            },
            {
                "start_time": 49.39090909090909,
                "end_time": 49.49545454545454,
                "pitch": 59,
                "velocity": 80,
                "duration": 0.10454545454545183,
                "tempo": 120.0
            },
            {
                "start_time": 49.51136363636363,
                "end_time": 49.61363636363636,
                "pitch": 54,
                "velocity": 80,
                "duration": 0.10227272727272663,
                "tempo": 120.0
            },
            {
                "start_time": 49.63181818181818,
                "end_time": 49.72954545454545,
                "pitch": 66,
                "velocity": 80,
                "duration": 0.09772727272726911,
                "tempo": 120.0
            },
            {
                "start_time": 49.74545454545454,
                "end_time": 49.84318181818182,
                "pitch": 62,
                "velocity": 80,
                "duration": 0.09772727272727622,
                "tempo": 120.0
            },
            {
                "start_time": 49.861363636363635,
                "end_time": 49.959090909090904,
                "pitch": 59,
                "velocity": 80,
                "duration": 0.09772727272726911,
                "tempo": 120.0
            },
            {
                "start_time": 49.974999999999994,
                "end_time": 50.05681818181818,
                "pitch": 54,
                "velocity": 80,
                "duration": 0.08181818181818556,
                "tempo": 120.0
            },
            {
                "start_time": 50.08863636363636,
                "end_time": 50.17272727272727,
                "pitch": 66,
                "velocity": 80,
                "duration": 0.08409090909091077,
                "tempo": 120.0
            },
            {
                "start_time": 50.19090909090909,
                "end_time": 50.29090909090909,
                "pitch": 61,
                "velocity": 80,
                "duration": 0.10000000000000142,
                "tempo": 120.0
            },
            {
                "start_time": 50.30681818181818,
                "end_time": 50.40681818181818,
                "pitch": 59,
                "velocity": 80,
                "duration": 0.10000000000000142,
                "tempo": 120.0
            },
            {
                "start_time": 50.425,
                "end_time": 50.525,
                "pitch": 54,
                "velocity": 80,
                "duration": 0.10000000000000142,
                "tempo": 120.0
            },
            {
                "start_time": 50.54090909090909,
                "end_time": 50.63863636363636,
                "pitch": 66,
                "velocity": 80,
                "duration": 0.09772727272726911,
                "tempo": 120.0
            },
            {
                "start_time": 50.65454545454545,
                "end_time": 50.75454545454545,
                "pitch": 62,
                "velocity": 80,
                "duration": 0.10000000000000142,
                "tempo": 120.0
            },
            {
                "start_time": 50.77045454545454,
                "end_time": 50.85227272727273,
                "pitch": 59,
                "velocity": 80,
                "duration": 0.08181818181818556,
                "tempo": 120.0
            },
            {
                "start_time": 50.88409090909091,
                "end_time": 50.934090909090905,
                "pitch": 54,
                "velocity": 80,
                "duration": 0.04999999999999716,
                "tempo": 120.0
            },
            {
                "start_time": 58.275,
                "end_time": 61.92727272727272,
                "pitch": 68,
                "velocity": 80,
                "duration": 3.652272727272724,
                "tempo": 120.0
            },
            {
                "start_time": 61.945454545454545,
                "end_time": 62.027272727272724,
                "pitch": 61,
                "velocity": 80,
                "duration": 0.08181818181817846,
                "tempo": 120.0
            },
            {
                "start_time": 62.06136363636363,
                "end_time": 62.14545454545454,
                "pitch": 71,
                "velocity": 80,
                "duration": 0.08409090909091077,
                "tempo": 120.0
            },
            {
                "start_time": 62.16136363636363,
                "end_time": 62.26136363636363,
                "pitch": 66,
                "velocity": 80,
                "duration": 0.10000000000000142,
                "tempo": 120.0
            },
            {
                "start_time": 62.27954545454545,
                "end_time": 62.37954545454545,
                "pitch": 64,
                "velocity": 80,
                "duration": 0.10000000000000142,
                "tempo": 120.0
            },
            {
                "start_time": 62.39545454545454,
                "end_time": 62.49545454545454,
                "pitch": 66,
                "velocity": 80,
                "duration": 0.10000000000000142,
                "tempo": 120.0
            },
            {
                "start_time": 62.51363636363636,
                "end_time": 62.61363636363636,
                "pitch": 61,
                "velocity": 80,
                "duration": 0.10000000000000142,
                "tempo": 120.0
            },
            {
                "start_time": 62.62954545454545,
                "end_time": 62.72954545454545,
                "pitch": 64,
                "velocity": 80,
                "duration": 0.10000000000000142,
                "tempo": 120.0
            },
            {
                "start_time": 62.74772727272727,
                "end_time": 62.83181818181818,
                "pitch": 66,
                "velocity": 80,
                "duration": 0.08409090909091077,
                "tempo": 120.0
            },
            {
                "start_time": 62.86363636363636,
                "end_time": 62.94772727272727,
                "pitch": 61,
                "velocity": 80,
                "duration": 0.08409090909091077,
                "tempo": 120.0
            },
            {
                "start_time": 62.96363636363636,
                "end_time": 63.06590909090909,
                "pitch": 71,
                "velocity": 80,
                "duration": 0.10227272727272663,
                "tempo": 120.0
            },
            {
                "start_time": 63.08181818181818,
                "end_time": 63.18181818181818,
                "pitch": 66,
                "velocity": 80,
                "duration": 0.10000000000000142,
                "tempo": 120.0
            },
            {
                "start_time": 63.19772727272727,
                "end_time": 63.3,
                "pitch": 64,
                "velocity": 80,
                "duration": 0.10227272727272663,
                "tempo": 120.0
            },
            {
                "start_time": 63.31590909090909,
                "end_time": 63.413636363636364,
                "pitch": 66,
                "velocity": 80,
                "duration": 0.09772727272727622,
                "tempo": 120.0
            },
            {
                "start_time": 63.429545454545455,
                "end_time": 63.52954545454545,
                "pitch": 61,
                "velocity": 80,
                "duration": 0.09999999999999432,
                "tempo": 120.0
            },
            {
                "start_time": 63.54545454545454,
                "end_time": 63.627272727272725,
                "pitch": 64,
                "velocity": 80,
                "duration": 0.08181818181818556,
                "tempo": 120.0
            },
            {
                "start_time": 63.65909090909091,
                "end_time": 63.740909090909085,
                "pitch": 66,
                "velocity": 80,
                "duration": 0.08181818181817846,
                "tempo": 120.0
            },
            {
                "start_time": 63.756818181818176,
                "end_time": 63.85454545454545,
                "pitch": 61,
                "velocity": 80,
                "duration": 0.09772727272727622,
                "tempo": 120.0
            },
            {
                "start_time": 63.87272727272727,
                "end_time": 63.970454545454544,
                "pitch": 71,
                "velocity": 80,
                "duration": 0.09772727272727622,
                "tempo": 120.0
            },
            {
                "start_time": 63.986363636363635,
                "end_time": 64.0840909090909,
                "pitch": 66,
                "velocity": 80,
                "duration": 0.09772727272726911,
                "tempo": 120.0
            },
            {
                "start_time": 64.1,
                "end_time": 64.2,
                "pitch": 64,
                "velocity": 80,
                "duration": 0.10000000000000853,
                "tempo": 120.0
            },
            {
                "start_time": 64.2159090909091,
                "end_time": 64.31590909090909,
                "pitch": 66,
                "velocity": 80,
                "duration": 0.09999999999999432,
                "tempo": 120.0
            },
            {
                "start_time": 64.33181818181818,
                "end_time": 64.41590909090908,
                "pitch": 61,
                "velocity": 80,
                "duration": 0.08409090909090366,
                "tempo": 120.0
            },
            {
                "start_time": 64.45,
                "end_time": 64.5340909090909,
                "pitch": 64,
                "velocity": 80,
                "duration": 0.08409090909090366,
                "tempo": 120.0
            },
            {
                "start_time": 64.55,
                "end_time": 64.64999999999999,
                "pitch": 66,
                "velocity": 80,
                "duration": 0.09999999999999432,
                "tempo": 120.0
            },
            {
                "start_time": 64.66590909090908,
                "end_time": 64.76818181818182,
                "pitch": 61,
                "velocity": 80,
                "duration": 0.10227272727273373,
                "tempo": 120.0
            },
            {
                "start_time": 64.7840909090909,
                "end_time": 64.8840909090909,
                "pitch": 71,
                "velocity": 80,
                "duration": 0.09999999999999432,
                "tempo": 120.0
            },
            {
                "start_time": 64.90227272727273,
                "end_time": 65.00227272727273,
                "pitch": 66,
                "velocity": 80,
                "duration": 0.09999999999999432,
                "tempo": 120.0
            },
            {
                "start_time": 65.01818181818182,
                "end_time": 65.11818181818181,
                "pitch": 64,
                "velocity": 80,
                "duration": 0.09999999999999432,
                "tempo": 120.0
            },
            {
                "start_time": 65.13636363636364,
                "end_time": 65.21818181818182,
                "pitch": 66,
                "velocity": 80,
                "duration": 0.08181818181817846,
                "tempo": 120.0
            },
            {
                "start_time": 65.25227272727273,
                "end_time": 65.33636363636363,
                "pitch": 61,
                "velocity": 80,
                "duration": 0.08409090909090366,
                "tempo": 120.0
            },
            {
                "start_time": 65.35227272727272,
                "end_time": 65.45227272727273,
                "pitch": 64,
                "velocity": 80,
                "duration": 0.10000000000000853,
                "tempo": 120.0
            },
            {
                "start_time": 65.47045454545454,
                "end_time": 65.57045454545454,
                "pitch": 66,
                "velocity": 80,
                "duration": 0.09999999999999432,
                "tempo": 120.0
            },
            {
                "start_time": 65.58636363636363,
                "end_time": 69.20454545454545,
                "pitch": 68,
                "velocity": 80,
                "duration": 3.6181818181818244,
                "tempo": 120.0
            },
            {
                "start_time": 69.23636363636363,
                "end_time": 69.32045454545454,
                "pitch": 61,
                "velocity": 80,
                "duration": 0.08409090909090366,
                "tempo": 120.0
            },
            {
                "start_time": 69.33636363636363,
                "end_time": 69.43636363636364,
                "pitch": 71,
                "velocity": 80,
                "duration": 0.10000000000000853,
                "tempo": 120.0
            },
            {
                "start_time": 69.45454545454545,
                "end_time": 69.55454545454545,
                "pitch": 66,
                "velocity": 80,
                "duration": 0.09999999999999432,
                "tempo": 120.0
            },
            {
                "start_time": 69.57045454545454,
                "end_time": 69.67045454545455,
                "pitch": 64,
                "velocity": 80,
                "duration": 0.10000000000000853,
                "tempo": 120.0
            },
            {
                "start_time": 69.68863636363636,
                "end_time": 69.78863636363636,
                "pitch": 66,
                "velocity": 80,
                "duration": 0.09999999999999432,
                "tempo": 120.0
            },
            {
                "start_time": 69.80454545454545,
                "end_time": 69.90454545454546,
                "pitch": 61,
                "velocity": 80,
                "duration": 0.10000000000000853,
                "tempo": 120.0
            },
            {
                "start_time": 69.92272727272727,
                "end_time": 70.00681818181818,
                "pitch": 64,
                "velocity": 80,
                "duration": 0.08409090909090366,
                "tempo": 120.0
            },
            {
                "start_time": 70.03863636363636,
                "end_time": 70.12272727272727,
                "pitch": 66,
                "velocity": 80,
                "duration": 0.08409090909091788,
                "tempo": 120.0
            },
            {
                "start_time": 70.14090909090909,
                "end_time": 70.23863636363636,
                "pitch": 61,
                "velocity": 80,
                "duration": 0.09772727272726911,
                "tempo": 120.0
            },
            {
                "start_time": 70.25454545454545,
                "end_time": 70.35227272727272,
                "pitch": 71,
                "velocity": 80,
                "duration": 0.09772727272726911,
                "tempo": 120.0
            },
            {
                "start_time": 70.36818181818181,
                "end_time": 70.4659090909091,
                "pitch": 66,
                "velocity": 80,
                "duration": 0.09772727272728332,
                "tempo": 120.0
            },
            {
                "start_time": 70.48409090909091,
                "end_time": 70.58181818181818,
                "pitch": 64,
                "velocity": 80,
                "duration": 0.09772727272726911,
                "tempo": 120.0
            },
            {
                "start_time": 70.59772727272727,
                "end_time": 70.69772727272726,
                "pitch": 66,
                "velocity": 80,
                "duration": 0.09999999999999432,
                "tempo": 120.0
            },
            {
                "start_time": 70.7159090909091,
                "end_time": 70.79772727272727,
                "pitch": 61,
                "velocity": 80,
                "duration": 0.08181818181817846,
                "tempo": 120.0
            },
            {
                "start_time": 70.83181818181818,
                "end_time": 70.91590909090908,
                "pitch": 64,
                "velocity": 80,
                "duration": 0.08409090909090366,
                "tempo": 120.0
            },
            {
                "start_time": 70.93181818181817,
                "end_time": 71.03181818181818,
                "pitch": 66,
                "velocity": 80,
                "duration": 0.10000000000000853,
                "tempo": 120.0
            },
            {
                "start_time": 71.05,
                "end_time": 71.14772727272727,
                "pitch": 61,
                "velocity": 80,
                "duration": 0.09772727272726911,
                "tempo": 120.0
            },
            {
                "start_time": 71.16363636363636,
                "end_time": 71.26136363636363,
                "pitch": 71,
                "velocity": 80,
                "duration": 0.09772727272726911,
                "tempo": 120.0
            },
            {
                "start_time": 71.27727272727273,
                "end_time": 71.37727272727273,
                "pitch": 66,
                "velocity": 80,
                "duration": 0.09999999999999432,
                "tempo": 120.0
            },
            {
                "start_time": 71.39318181818182,
                "end_time": 71.49090909090908,
                "pitch": 64,
                "velocity": 80,
                "duration": 0.09772727272726911,
                "tempo": 120.0
            },
            {
                "start_time": 71.50681818181818,
                "end_time": 71.59318181818182,
                "pitch": 66,
                "velocity": 80,
                "duration": 0.08636363636364308,
                "tempo": 120.0
            },
            {
                "start_time": 71.62727272727273,
                "end_time": 71.71363636363635,
                "pitch": 61,
                "velocity": 80,
                "duration": 0.08636363636362887,
                "tempo": 120.0
            },
            {
                "start_time": 71.72954545454544,
                "end_time": 71.83181818181818,
                "pitch": 64,
                "velocity": 80,
                "duration": 0.10227272727273373,
                "tempo": 120.0
            },
            {
                "start_time": 71.85,
                "end_time": 71.95227272727273,
                "pitch": 66,
                "velocity": 80,
                "duration": 0.10227272727273373,
                "tempo": 120.0
            },
            {
                "start_time": 71.97045454545454,
                "end_time": 72.07045454545454,
                "pitch": 61,
                "velocity": 80,
                "duration": 0.09999999999999432,
                "tempo": 120.0
            },
            {
                "start_time": 72.08636363636363,
                "end_time": 72.18636363636364,
                "pitch": 71,
                "velocity": 80,
                "duration": 0.10000000000000853,
                "tempo": 120.0
            },
            {
                "start_time": 72.20454545454545,
                "end_time": 72.30454545454545,
                "pitch": 66,
                "velocity": 80,
                "duration": 0.09999999999999432,
                "tempo": 120.0
            },
            {
                "start_time": 72.32045454545454,
                "end_time": 72.40454545454546,
                "pitch": 64,
                "velocity": 80,
                "duration": 0.08409090909091788,
                "tempo": 120.0
            },
            {
                "start_time": 72.43863636363636,
                "end_time": 72.52272727272727,
                "pitch": 66,
                "velocity": 80,
                "duration": 0.08409090909090366,
                "tempo": 120.0
            },
            {
                "start_time": 72.53863636363636,
                "end_time": 72.63863636363637,
                "pitch": 61,
                "velocity": 80,
                "duration": 0.10000000000000853,
                "tempo": 120.0
            },
            {
                "start_time": 72.65454545454546,
                "end_time": 72.75681818181818,
                "pitch": 64,
                "velocity": 80,
                "duration": 0.10227272727271952,
                "tempo": 120.0
            },
            {
                "start_time": 72.77272727272727,
                "end_time": 72.87272727272727,
                "pitch": 66,
                "velocity": 80,
                "duration": 0.10000000000000853,
                "tempo": 120.0
            },
            {
                "start_time": 72.88863636363637,
                "end_time": 76.50681818181818,
                "pitch": 68,
                "velocity": 80,
                "duration": 3.61818181818181,
                "tempo": 120.0
            },
            {
                "start_time": 76.52272727272727,
                "end_time": 76.61818181818181,
                "pitch": 61,
                "velocity": 80,
                "duration": 0.0954545454545439,
                "tempo": 120.0
            },
            {
                "start_time": 76.6340909090909,
                "end_time": 76.72954545454544,
                "pitch": 71,
                "velocity": 80,
                "duration": 0.0954545454545439,
                "tempo": 120.0
            },
            {
                "start_time": 76.74545454545454,
                "end_time": 76.8409090909091,
                "pitch": 66,
                "velocity": 80,
                "duration": 0.09545454545455812,
                "tempo": 120.0
            },
            {
                "start_time": 76.85681818181818,
                "end_time": 76.95454545454545,
                "pitch": 64,
                "velocity": 80,
                "duration": 0.09772727272726911,
                "tempo": 120.0
            },
            {
                "start_time": 76.97045454545454,
                "end_time": 77.07272727272726,
                "pitch": 66,
                "velocity": 80,
                "duration": 0.10227272727271952,
                "tempo": 120.0
            },
            {
                "start_time": 77.08863636363635,
                "end_time": 77.175,
                "pitch": 61,
                "velocity": 80,
                "duration": 0.08636363636364308,
                "tempo": 120.0
            },
            {
                "start_time": 77.2090909090909,
                "end_time": 77.29545454545455,
                "pitch": 64,
                "velocity": 80,
                "duration": 0.08636363636364308,
                "tempo": 120.0
            },
            {
                "start_time": 77.31136363636364,
                "end_time": 77.41590909090908,
                "pitch": 66,
                "velocity": 80,
                "duration": 0.10454545454544473,
                "tempo": 120.0
            },
            {
                "start_time": 77.43181818181817,
                "end_time": 77.52954545454546,
                "pitch": 61,
                "velocity": 80,
                "duration": 0.09772727272728332,
                "tempo": 120.0
            },
            {
                "start_time": 77.54545454545455,
                "end_time": 77.64545454545454,
                "pitch": 71,
                "velocity": 80,
                "duration": 0.09999999999999432,
                "tempo": 120.0
            },
            {
                "start_time": 77.66136363636363,
                "end_time": 77.7590909090909,
                "pitch": 66,
                "velocity": 80,
                "duration": 0.09772727272726911,
                "tempo": 120.0
            },
            {
                "start_time": 77.77499999999999,
                "end_time": 77.87272727272727,
                "pitch": 64,
                "velocity": 80,
                "duration": 0.09772727272728332,
                "tempo": 120.0
            },
            {
                "start_time": 77.89090909090909,
                "end_time": 77.975,
                "pitch": 66,
                "velocity": 80,
                "duration": 0.08409090909090366,
                "tempo": 120.0
            },
            {
                "start_time": 78.0090909090909,
                "end_time": 78.09545454545454,
                "pitch": 61,
                "velocity": 80,
                "duration": 0.08636363636364308,
                "tempo": 120.0
            },
            {
                "start_time": 78.11136363636363,
                "end_time": 78.2159090909091,
                "pitch": 64,
                "velocity": 80,
                "duration": 0.10454545454545894,
                "tempo": 120.0
            },
            {
                "start_time": 78.23181818181818,
                "end_time": 78.3340909090909,
                "pitch": 66,
                "velocity": 80,
                "duration": 0.10227272727271952,
                "tempo": 120.0
            },
            {
                "start_time": 78.35227272727272,
                "end_time": 78.45,
                "pitch": 61,
                "velocity": 80,
                "duration": 0.09772727272728332,
                "tempo": 120.0
            },
            {
                "start_time": 78.4659090909091,
                "end_time": 78.56363636363636,
                "pitch": 71,
                "velocity": 80,
                "duration": 0.09772727272726911,
                "tempo": 120.0
            },
            {
                "start_time": 78.58181818181818,
                "end_time": 78.67954545454545,
                "pitch": 66,
                "velocity": 80,
                "duration": 0.09772727272726911,
                "tempo": 120.0
            },
            {
                "start_time": 78.69545454545454,
                "end_time": 78.77727272727272,
                "pitch": 64,
                "velocity": 80,
                "duration": 0.08181818181817846,
                "tempo": 120.0
            },
            {
                "start_time": 78.80909090909091,
                "end_time": 78.89545454545454,
                "pitch": 66,
                "velocity": 80,
                "duration": 0.08636363636362887,
                "tempo": 120.0
            },
            {
                "start_time": 78.91136363636363,
                "end_time": 79.01590909090909,
                "pitch": 61,
                "velocity": 80,
                "duration": 0.10454545454545894,
                "tempo": 120.0
            },
            {
                "start_time": 79.03181818181818,
                "end_time": 79.1340909090909,
                "pitch": 64,
                "velocity": 80,
                "duration": 0.10227272727271952,
                "tempo": 120.0
            },
            {
                "start_time": 79.15227272727272,
                "end_time": 79.25454545454545,
                "pitch": 66,
                "velocity": 80,
                "duration": 0.10227272727273373,
                "tempo": 120.0
            },
            {
                "start_time": 79.27272727272727,
                "end_time": 79.37045454545454,
                "pitch": 61,
                "velocity": 80,
                "duration": 0.09772727272726911,
                "tempo": 120.0
            },
            {
                "start_time": 79.38636363636363,
                "end_time": 79.48409090909091,
                "pitch": 71,
                "velocity": 80,
                "duration": 0.09772727272728332,
                "tempo": 120.0
            },
            {
                "start_time": 79.50227272727273,
                "end_time": 79.5840909090909,
                "pitch": 66,
                "velocity": 80,
                "duration": 0.08181818181817846,
                "tempo": 120.0
            },
            {
                "start_time": 79.61590909090908,
                "end_time": 79.69772727272726,
                "pitch": 64,
                "velocity": 80,
                "duration": 0.08181818181817846,
                "tempo": 120.0
            },
            {
                "start_time": 79.71363636363635,
                "end_time": 79.81136363636364,
                "pitch": 66,
                "velocity": 80,
                "duration": 0.09772727272728332,
                "tempo": 120.0
            },
            {
                "start_time": 79.82727272727273,
                "end_time": 79.92727272727272,
                "pitch": 61,
                "velocity": 80,
                "duration": 0.09999999999999432,
                "tempo": 120.0
            },
            {
                "start_time": 79.94318181818181,
                "end_time": 80.04090909090908,
                "pitch": 64,
                "velocity": 80,
                "duration": 0.09772727272726911,
                "tempo": 120.0
            },
            {
                "start_time": 80.05681818181817,
                "end_time": 80.15454545454546,
                "pitch": 66,
                "velocity": 80,
                "duration": 0.09772727272728332,
                "tempo": 120.0
            }
        ],
        "Vibraphone": [
            {
                "start_time": 0.013636363636363636,
                "end_time": 0.07272727272727272,
                "pitch": 45,
                "velocity": 80,
                "duration": 0.05909090909090909,
                "tempo": 120.0
            },
            {
                "start_time": 0.3931818181818182,
                "end_time": 0.4909090909090909,
                "pitch": 47,
                "velocity": 80,
                "duration": 0.09772727272727272,
                "tempo": 120.0
            },
            {
                "start_time": 0.8340909090909091,
                "end_time": 0.9318181818181818,
                "pitch": 45,
                "velocity": 80,
                "duration": 0.09772727272727266,
                "tempo": 120.0
            },
            {
                "start_time": 1.2931818181818182,
                "end_time": 1.3772727272727272,
                "pitch": 47,
                "velocity": 80,
                "duration": 0.084090909090909,
                "tempo": 120.0
            },
            {
                "start_time": 1.7545454545454544,
                "end_time": 1.8522727272727273,
                "pitch": 45,
                "velocity": 80,
                "duration": 0.09772727272727288,
                "tempo": 120.0
            },
            {
                "start_time": 2.2113636363636364,
                "end_time": 2.2977272727272724,
                "pitch": 47,
                "velocity": 80,
                "duration": 0.08636363636363598,
                "tempo": 120.0
            },
            {
                "start_time": 2.675,
                "end_time": 2.7727272727272725,
                "pitch": 45,
                "velocity": 80,
                "duration": 0.09772727272727266,
                "tempo": 120.0
            },
            {
                "start_time": 3.1159090909090907,
                "end_time": 3.2136363636363634,
                "pitch": 47,
                "velocity": 80,
                "duration": 0.09772727272727266,
                "tempo": 120.0
            },
            {
                "start_time": 3.5727272727272728,
                "end_time": 3.675,
                "pitch": 45,
                "velocity": 80,
                "duration": 0.10227272727272707,
                "tempo": 120.0
            },
            {
                "start_time": 4.0249999999999995,
                "end_time": 4.122727272727272,
                "pitch": 47,
                "velocity": 80,
                "duration": 0.09772727272727266,
                "tempo": 120.0
            },
            {
                "start_time": 4.4840909090909085,
                "end_time": 4.568181818181818,
                "pitch": 45,
                "velocity": 80,
                "duration": 0.08409090909090988,
                "tempo": 120.0
            },
            {
                "start_time": 4.945454545454545,
                "end_time": 5.043181818181818,
                "pitch": 47,
                "velocity": 80,
                "duration": 0.09772727272727266,
                "tempo": 120.0
            },
            {
                "start_time": 5.402272727272727,
                "end_time": 5.488636363636363,
                "pitch": 45,
                "velocity": 80,
                "duration": 0.08636363636363598,
                "tempo": 120.0
            },
            {
                "start_time": 5.86590909090909,
                "end_time": 5.963636363636363,
                "pitch": 47,
                "velocity": 80,
                "duration": 0.09772727272727266,
                "tempo": 120.0
            },
            {
                "start_time": 6.306818181818182,
                "end_time": 6.404545454545454,
                "pitch": 45,
                "velocity": 80,
                "duration": 0.09772727272727266,
                "tempo": 120.0
            },
            {
                "start_time": 6.765909090909091,
                "end_time": 6.86590909090909,
                "pitch": 47,
                "velocity": 80,
                "duration": 0.09999999999999964,
                "tempo": 120.0
            },
            {
                "start_time": 7.215909090909091,
                "end_time": 7.3159090909090905,
                "pitch": 45,
                "velocity": 80,
                "duration": 0.09999999999999964,
                "tempo": 120.0
            },
            {
                "start_time": 7.684090909090909,
                "end_time": 7.768181818181818,
                "pitch": 47,
                "velocity": 80,
                "duration": 0.084090909090909,
                "tempo": 120.0
            },
            {
                "start_time": 8.136363636363637,
                "end_time": 8.23409090909091,
                "pitch": 45,
                "velocity": 80,
                "duration": 0.09772727272727266,
                "tempo": 120.0
            },
            {
                "start_time": 8.593181818181817,
                "end_time": 8.679545454545455,
                "pitch": 47,
                "velocity": 80,
                "duration": 0.08636363636363775,
                "tempo": 120.0
            },
            {
                "start_time": 9.056818181818182,
                "end_time": 9.154545454545454,
                "pitch": 45,
                "velocity": 80,
                "duration": 0.09772727272727266,
                "tempo": 120.0
            },
            {
                "start_time": 9.497727272727273,
                "end_time": 9.595454545454546,
                "pitch": 47,
                "velocity": 80,
                "duration": 0.09772727272727266,
                "tempo": 120.0
            },
            {
                "start_time": 9.956818181818182,
                "end_time": 10.056818181818182,
                "pitch": 45,
                "velocity": 80,
                "duration": 0.09999999999999964,
                "tempo": 120.0
            },
            {
                "start_time": 10.406818181818181,
                "end_time": 10.504545454545454,
                "pitch": 47,
                "velocity": 80,
                "duration": 0.09772727272727266,
                "tempo": 120.0
            },
            {
                "start_time": 10.86590909090909,
                "end_time": 10.95,
                "pitch": 45,
                "velocity": 80,
                "duration": 0.084090909090909,
                "tempo": 120.0
            },
            {
                "start_time": 11.327272727272726,
                "end_time": 11.424999999999999,
                "pitch": 47,
                "velocity": 80,
                "duration": 0.09772727272727266,
                "tempo": 120.0
            },
            {
                "start_time": 11.786363636363635,
                "end_time": 11.870454545454544,
                "pitch": 45,
                "velocity": 80,
                "duration": 0.084090909090909,
                "tempo": 120.0
            },
            {
                "start_time": 12.247727272727273,
                "end_time": 12.345454545454546,
                "pitch": 47,
                "velocity": 80,
                "duration": 0.09772727272727266,
                "tempo": 120.0
            },
            {
                "start_time": 12.688636363636363,
                "end_time": 12.786363636363635,
                "pitch": 45,
                "velocity": 80,
                "duration": 0.09772727272727266,
                "tempo": 120.0
            },
            {
                "start_time": 13.147727272727272,
                "end_time": 13.247727272727271,
                "pitch": 47,
                "velocity": 80,
                "duration": 0.09999999999999964,
                "tempo": 120.0
            },
            {
                "start_time": 13.597727272727273,
                "end_time": 13.695454545454545,
                "pitch": 45,
                "velocity": 80,
                "duration": 0.09772727272727266,
                "tempo": 120.0
            },
            {
                "start_time": 14.056818181818182,
                "end_time": 14.143181818181818,
                "pitch": 47,
                "velocity": 80,
                "duration": 0.08636363636363598,
                "tempo": 120.0
            },
            {
                "start_time": 14.518181818181818,
                "end_time": 14.61590909090909,
                "pitch": 45,
                "velocity": 80,
                "duration": 0.09772727272727266,
                "tempo": 120.0
            },
            {
                "start_time": 14.977272727272727,
                "end_time": 15.063636363636363,
                "pitch": 47,
                "velocity": 80,
                "duration": 0.08636363636363598,
                "tempo": 120.0
            },
            {
                "start_time": 15.45,
                "end_time": 15.545454545454545,
                "pitch": 45,
                "velocity": 80,
                "duration": 0.09545454545454568,
                "tempo": 120.0
            },
            {
                "start_time": 15.881818181818181,
                "end_time": 15.98181818181818,
                "pitch": 47,
                "velocity": 80,
                "duration": 0.09999999999999964,
                "tempo": 120.0
            },
            {
                "start_time": 16.347727272727273,
                "end_time": 16.45,
                "pitch": 45,
                "velocity": 80,
                "duration": 0.10227272727272663,
                "tempo": 120.0
            },
            {
                "start_time": 16.8,
                "end_time": 16.897727272727273,
                "pitch": 47,
                "velocity": 80,
                "duration": 0.09772727272727266,
                "tempo": 120.0
            },
            {
                "start_time": 17.259090909090908,
                "end_time": 17.34318181818182,
                "pitch": 45,
                "velocity": 80,
                "duration": 0.08409090909091077,
                "tempo": 120.0
            },
            {
                "start_time": 17.720454545454544,
                "end_time": 17.818181818181817,
                "pitch": 47,
                "velocity": 80,
                "duration": 0.09772727272727266,
                "tempo": 120.0
            },
            {
                "start_time": 18.179545454545455,
                "end_time": 18.261363636363637,
                "pitch": 45,
                "velocity": 80,
                "duration": 0.08181818181818201,
                "tempo": 120.0
            },
            {
                "start_time": 18.629545454545454,
                "end_time": 18.729545454545455,
                "pitch": 47,
                "velocity": 80,
                "duration": 0.10000000000000142,
                "tempo": 120.0
            },
            {
                "start_time": 19.081818181818182,
                "end_time": 19.179545454545455,
                "pitch": 45,
                "velocity": 80,
                "duration": 0.09772727272727266,
                "tempo": 120.0
            },
            {
                "start_time": 19.538636363636364,
                "end_time": 19.64090909090909,
                "pitch": 47,
                "velocity": 80,
                "duration": 0.10227272727272663,
                "tempo": 120.0
            },
            {
                "start_time": 19.99090909090909,
                "end_time": 20.08863636363636,
                "pitch": 45,
                "velocity": 80,
                "duration": 0.09772727272727266,
                "tempo": 120.0
            },
            {
                "start_time": 20.45,
                "end_time": 20.534090909090907,
                "pitch": 47,
                "velocity": 80,
                "duration": 0.08409090909090722,
                "tempo": 120.0
            },
            {
                "start_time": 20.911363636363635,
                "end_time": 21.009090909090908,
                "pitch": 45,
                "velocity": 80,
                "duration": 0.09772727272727266,
                "tempo": 120.0
            },
            {
                "start_time": 21.368181818181817,
                "end_time": 21.452272727272724,
                "pitch": 47,
                "velocity": 80,
                "duration": 0.08409090909090722,
                "tempo": 120.0
            },
            {
                "start_time": 21.820454545454545,
                "end_time": 21.918181818181818,
                "pitch": 45,
                "velocity": 80,
                "duration": 0.09772727272727266,
                "tempo": 120.0
            },
            {
                "start_time": 22.261363636363637,
                "end_time": 22.361363636363635,
                "pitch": 47,
                "velocity": 80,
                "duration": 0.09999999999999787,
                "tempo": 120.0
            },
            {
                "start_time": 22.720454545454544,
                "end_time": 22.820454545454545,
                "pitch": 45,
                "velocity": 80,
                "duration": 0.10000000000000142,
                "tempo": 120.0
            },
            {
                "start_time": 23.172727272727272,
                "end_time": 23.270454545454545,
                "pitch": 47,
                "velocity": 80,
                "duration": 0.09772727272727266,
                "tempo": 120.0
            },
            {
                "start_time": 23.629545454545454,
                "end_time": 23.71590909090909,
                "pitch": 45,
                "velocity": 80,
                "duration": 0.08636363636363598,
                "tempo": 120.0
            },
            {
                "start_time": 24.09090909090909,
                "end_time": 24.19090909090909,
                "pitch": 47,
                "velocity": 80,
                "duration": 0.10000000000000142,
                "tempo": 120.0
            },
            {
                "start_time": 24.549999999999997,
                "end_time": 24.636363636363637,
                "pitch": 45,
                "velocity": 80,
                "duration": 0.08636363636363953,
                "tempo": 120.0
            },
            {
                "start_time": 25.011363636363637,
                "end_time": 25.10909090909091,
                "pitch": 47,
                "velocity": 80,
                "duration": 0.09772727272727266,
                "tempo": 120.0
            },
            {
                "start_time": 25.452272727272724,
                "end_time": 25.552272727272726,
                "pitch": 45,
                "velocity": 80,
                "duration": 0.10000000000000142,
                "tempo": 120.0
            },
            {
                "start_time": 25.911363636363635,
                "end_time": 26.013636363636362,
                "pitch": 47,
                "velocity": 80,
                "duration": 0.10227272727272663,
                "tempo": 120.0
            },
            {
                "start_time": 26.37272727272727,
                "end_time": 26.468181818181815,
                "pitch": 45,
                "velocity": 80,
                "duration": 0.0954545454545439,
                "tempo": 120.0
            },
            {
                "start_time": 26.820454545454545,
                "end_time": 26.90681818181818,
                "pitch": 47,
                "velocity": 80,
                "duration": 0.08636363636363598,
                "tempo": 120.0
            },
            {
                "start_time": 27.284090909090907,
                "end_time": 27.38181818181818,
                "pitch": 45,
                "velocity": 80,
                "duration": 0.09772727272727266,
                "tempo": 120.0
            },
            {
                "start_time": 27.74090909090909,
                "end_time": 27.827272727272724,
                "pitch": 47,
                "velocity": 80,
                "duration": 0.08636363636363598,
                "tempo": 120.0
            },
            {
                "start_time": 28.202272727272724,
                "end_time": 28.302272727272726,
                "pitch": 45,
                "velocity": 80,
                "duration": 0.10000000000000142,
                "tempo": 120.0
            },
            {
                "start_time": 28.645454545454545,
                "end_time": 28.743181818181817,
                "pitch": 47,
                "velocity": 80,
                "duration": 0.09772727272727266,
                "tempo": 120.0
            },
            {
                "start_time": 29.102272727272727,
                "end_time": 29.202272727272724,
                "pitch": 45,
                "velocity": 80,
                "duration": 0.09999999999999787,
                "tempo": 120.0
            },
            {
                "start_time": 29.554545454545455,
                "end_time": 29.652272727272727,
                "pitch": 47,
                "velocity": 80,
                "duration": 0.09772727272727266,
                "tempo": 120.0
            },
            {
                "start_time": 30.011363636363633,
                "end_time": 30.097727272727273,
                "pitch": 45,
                "velocity": 80,
                "duration": 0.08636363636363953,
                "tempo": 120.0
            },
            {
                "start_time": 30.474999999999998,
                "end_time": 30.57272727272727,
                "pitch": 47,
                "velocity": 80,
                "duration": 0.09772727272727266,
                "tempo": 120.0
            },
            {
                "start_time": 30.93181818181818,
                "end_time": 31.018181818181816,
                "pitch": 45,
                "velocity": 80,
                "duration": 0.08636363636363598,
                "tempo": 120.0
            },
            {
                "start_time": 31.393181818181816,
                "end_time": 31.493181818181817,
                "pitch": 47,
                "velocity": 80,
                "duration": 0.10000000000000142,
                "tempo": 120.0
            },
            {
                "start_time": 31.836363636363636,
                "end_time": 31.93409090909091,
                "pitch": 45,
                "velocity": 80,
                "duration": 0.09772727272727266,
                "tempo": 120.0
            },
            {
                "start_time": 32.293181818181814,
                "end_time": 32.393181818181816,
                "pitch": 47,
                "velocity": 80,
                "duration": 0.10000000000000142,
                "tempo": 120.0
            },
            {
                "start_time": 32.74545454545454,
                "end_time": 32.84318181818182,
                "pitch": 45,
                "velocity": 80,
                "duration": 0.09772727272727622,
                "tempo": 120.0
            },
            {
                "start_time": 33.20227272727273,
                "end_time": 33.288636363636364,
                "pitch": 47,
                "velocity": 80,
                "duration": 0.08636363636363598,
                "tempo": 120.0
            },
            {
                "start_time": 33.66590909090909,
                "end_time": 33.763636363636365,
                "pitch": 45,
                "velocity": 80,
                "duration": 0.09772727272727622,
                "tempo": 120.0
            },
            {
                "start_time": 34.12272727272727,
                "end_time": 34.20909090909091,
                "pitch": 47,
                "velocity": 80,
                "duration": 0.08636363636364308,
                "tempo": 120.0
            },
            {
                "start_time": 34.586363636363636,
                "end_time": 34.684090909090905,
                "pitch": 45,
                "velocity": 80,
                "duration": 0.09772727272726911,
                "tempo": 120.0
            },
            {
                "start_time": 35.027272727272724,
                "end_time": 35.125,
                "pitch": 47,
                "velocity": 80,
                "duration": 0.09772727272727622,
                "tempo": 120.0
            },
            {
                "start_time": 35.48409090909091,
                "end_time": 35.58409090909091,
                "pitch": 45,
                "velocity": 80,
                "duration": 0.10000000000000142,
                "tempo": 120.0
            },
            {
                "start_time": 35.93636363636364,
                "end_time": 36.03409090909091,
                "pitch": 47,
                "velocity": 80,
                "duration": 0.09772727272726911,
                "tempo": 120.0
            },
            {
                "start_time": 36.393181818181816,
                "end_time": 36.47954545454545,
                "pitch": 45,
                "velocity": 80,
                "duration": 0.08636363636363598,
                "tempo": 120.0
            },
            {
                "start_time": 36.85681818181818,
                "end_time": 36.95681818181818,
                "pitch": 47,
                "velocity": 80,
                "duration": 0.10000000000000142,
                "tempo": 120.0
            },
            {
                "start_time": 37.324999999999996,
                "end_time": 37.40909090909091,
                "pitch": 45,
                "velocity": 80,
                "duration": 0.08409090909091077,
                "tempo": 120.0
            },
            {
                "start_time": 37.777272727272724,
                "end_time": 37.875,
                "pitch": 47,
                "velocity": 80,
                "duration": 0.09772727272727622,
                "tempo": 120.0
            },
            {
                "start_time": 38.21818181818182,
                "end_time": 38.31590909090909,
                "pitch": 45,
                "velocity": 80,
                "duration": 0.09772727272726911,
                "tempo": 120.0
            },
            {
                "start_time": 38.675,
                "end_time": 38.779545454545456,
                "pitch": 47,
                "velocity": 80,
                "duration": 0.10454545454545894,
                "tempo": 120.0
            },
            {
                "start_time": 39.13636363636363,
                "end_time": 39.23409090909091,
                "pitch": 45,
                "velocity": 80,
                "duration": 0.09772727272727622,
                "tempo": 120.0
            },
            {
                "start_time": 39.586363636363636,
                "end_time": 39.67045454545455,
                "pitch": 47,
                "velocity": 80,
                "duration": 0.08409090909091077,
                "tempo": 120.0
            },
            {
                "start_time": 40.04772727272727,
                "end_time": 40.14545454545454,
                "pitch": 45,
                "velocity": 80,
                "duration": 0.09772727272726911,
                "tempo": 120.0
            },
            {
                "start_time": 40.50454545454545,
                "end_time": 40.590909090909086,
                "pitch": 47,
                "velocity": 80,
                "duration": 0.08636363636363598,
                "tempo": 120.0
            },
            {
                "start_time": 40.96818181818182,
                "end_time": 41.06590909090909,
                "pitch": 45,
                "velocity": 80,
                "duration": 0.09772727272726911,
                "tempo": 120.0
            },
            {
                "start_time": 41.40909090909091,
                "end_time": 41.50681818181818,
                "pitch": 47,
                "velocity": 80,
                "duration": 0.09772727272727622,
                "tempo": 120.0
            },
            {
                "start_time": 41.86818181818182,
                "end_time": 41.96818181818182,
                "pitch": 45,
                "velocity": 80,
                "duration": 0.10000000000000142,
                "tempo": 120.0
            },
            {
                "start_time": 42.31818181818181,
                "end_time": 42.41590909090909,
                "pitch": 47,
                "velocity": 80,
                "duration": 0.09772727272727622,
                "tempo": 120.0
            },
            {
                "start_time": 42.777272727272724,
                "end_time": 42.861363636363635,
                "pitch": 45,
                "velocity": 80,
                "duration": 0.08409090909091077,
                "tempo": 120.0
            },
            {
                "start_time": 43.23863636363636,
                "end_time": 43.336363636363636,
                "pitch": 47,
                "velocity": 80,
                "duration": 0.09772727272727622,
                "tempo": 120.0
            },
            {
                "start_time": 43.69772727272727,
                "end_time": 43.78181818181818,
                "pitch": 45,
                "velocity": 80,
                "duration": 0.08409090909091077,
                "tempo": 120.0
            },
            {
                "start_time": 44.15909090909091,
                "end_time": 44.25909090909091,
                "pitch": 47,
                "velocity": 80,
                "duration": 0.10000000000000142,
                "tempo": 120.0
            },
            {
                "start_time": 44.611363636363635,
                "end_time": 44.70681818181818,
                "pitch": 45,
                "velocity": 80,
                "duration": 0.0954545454545439,
                "tempo": 120.0
            },
            {
                "start_time": 45.059090909090905,
                "end_time": 45.16136363636363,
                "pitch": 47,
                "velocity": 80,
                "duration": 0.10227272727272663,
                "tempo": 120.0
            },
            {
                "start_time": 45.52045454545454,
                "end_time": 45.61818181818182,
                "pitch": 45,
                "velocity": 80,
                "duration": 0.09772727272727622,
                "tempo": 120.0
            },
            {
                "start_time": 45.97954545454545,
                "end_time": 46.06363636363636,
                "pitch": 47,
                "velocity": 80,
                "duration": 0.08409090909091077,
                "tempo": 120.0
            },
            {
                "start_time": 46.44090909090909,
                "end_time": 46.538636363636364,
                "pitch": 45,
                "velocity": 80,
                "duration": 0.09772727272727622,
                "tempo": 120.0
            },
            {
                "start_time": 46.89772727272727,
                "end_time": 46.98181818181818,
                "pitch": 47,
                "velocity": 80,
                "duration": 0.08409090909090366,
                "tempo": 120.0
            },
            {
                "start_time": 47.349999999999994,
                "end_time": 47.44772727272727,
                "pitch": 45,
                "velocity": 80,
                "duration": 0.09772727272727622,
                "tempo": 120.0
            },
            {
                "start_time": 47.79090909090909,
                "end_time": 47.89090909090909,
                "pitch": 47,
                "velocity": 80,
                "duration": 0.10000000000000142,
                "tempo": 120.0
            },
            {
                "start_time": 48.25909090909091,
                "end_time": 48.361363636363635,
                "pitch": 45,
                "velocity": 80,
                "duration": 0.10227272727272663,
                "tempo": 120.0
            },
            {
                "start_time": 48.711363636363636,
                "end_time": 48.809090909090905,
                "pitch": 47,
                "velocity": 80,
                "duration": 0.09772727272726911,
                "tempo": 120.0
            },
            {
                "start_time": 49.17045454545454,
                "end_time": 49.25454545454545,
                "pitch": 45,
                "velocity": 80,
                "duration": 0.08409090909091077,
                "tempo": 120.0
            },
            {
                "start_time": 49.63181818181818,
                "end_time": 49.72954545454545,
                "pitch": 47,
                "velocity": 80,
                "duration": 0.09772727272726911,
                "tempo": 120.0
            },
            {
                "start_time": 50.08863636363636,
                "end_time": 50.17272727272727,
                "pitch": 45,
                "velocity": 80,
                "duration": 0.08409090909091077,
                "tempo": 120.0
            },
            {
                "start_time": 50.54090909090909,
                "end_time": 50.63863636363636,
                "pitch": 47,
                "velocity": 80,
                "duration": 0.09772727272726911,
                "tempo": 120.0
            },
            {
                "start_time": 50.98181818181818,
                "end_time": 51.07954545454545,
                "pitch": 45,
                "velocity": 80,
                "duration": 0.09772727272727622,
                "tempo": 120.0
            },
            {
                "start_time": 51.44090909090909,
                "end_time": 51.543181818181814,
                "pitch": 47,
                "velocity": 80,
                "duration": 0.10227272727272663,
                "tempo": 120.0
            },
            {
                "start_time": 51.902272727272724,
                "end_time": 51.99772727272727,
                "pitch": 45,
                "velocity": 80,
                "duration": 0.0954545454545439,
                "tempo": 120.0
            },
            {
                "start_time": 52.349999999999994,
                "end_time": 52.43636363636363,
                "pitch": 47,
                "velocity": 80,
                "duration": 0.08636363636363598,
                "tempo": 120.0
            },
            {
                "start_time": 52.81136363636363,
                "end_time": 52.90909090909091,
                "pitch": 45,
                "velocity": 80,
                "duration": 0.09772727272727622,
                "tempo": 120.0
            },
            {
                "start_time": 53.27045454545454,
                "end_time": 53.35454545454545,
                "pitch": 47,
                "velocity": 80,
                "duration": 0.08409090909091077,
                "tempo": 120.0
            },
            {
                "start_time": 53.73181818181818,
                "end_time": 53.82954545454545,
                "pitch": 45,
                "velocity": 80,
                "duration": 0.09772727272727622,
                "tempo": 120.0
            },
            {
                "start_time": 54.17272727272727,
                "end_time": 54.27272727272727,
                "pitch": 47,
                "velocity": 80,
                "duration": 0.10000000000000142,
                "tempo": 120.0
            },
            {
                "start_time": 54.631818181818176,
                "end_time": 54.73181818181818,
                "pitch": 45,
                "velocity": 80,
                "duration": 0.10000000000000142,
                "tempo": 120.0
            },
            {
                "start_time": 55.084090909090904,
                "end_time": 55.184090909090905,
                "pitch": 47,
                "velocity": 80,
                "duration": 0.10000000000000142,
                "tempo": 120.0
            },
            {
                "start_time": 55.55227272727272,
                "end_time": 55.63636363636363,
                "pitch": 45,
                "velocity": 80,
                "duration": 0.08409090909091077,
                "tempo": 120.0
            },
            {
                "start_time": 56.002272727272725,
                "end_time": 56.10227272727273,
                "pitch": 47,
                "velocity": 80,
                "duration": 0.10000000000000142,
                "tempo": 120.0
            },
            {
                "start_time": 56.461363636363636,
                "end_time": 56.54772727272727,
                "pitch": 45,
                "velocity": 80,
                "duration": 0.08636363636363598,
                "tempo": 120.0
            },
            {
                "start_time": 56.92272727272727,
                "end_time": 57.02045454545454,
                "pitch": 47,
                "velocity": 80,
                "duration": 0.09772727272726911,
                "tempo": 120.0
            },
            {
                "start_time": 57.36363636363636,
                "end_time": 57.46363636363636,
                "pitch": 45,
                "velocity": 80,
                "duration": 0.10000000000000142,
                "tempo": 120.0
            },
            {
                "start_time": 57.82272727272727,
                "end_time": 57.92272727272727,
                "pitch": 47,
                "velocity": 80,
                "duration": 0.10000000000000142,
                "tempo": 120.0
            },
            {
                "start_time": 58.275,
                "end_time": 61.006818181818176,
                "pitch": 44,
                "velocity": 80,
                "duration": 2.731818181818177,
                "tempo": 120.0
            },
            {
                "start_time": 61.025,
                "end_time": 61.22954545454545,
                "pitch": 42,
                "velocity": 80,
                "duration": 0.20454545454545325,
                "tempo": 120.0
            },
            {
                "start_time": 61.26363636363636,
                "end_time": 61.46818181818182,
                "pitch": 44,
                "velocity": 80,
                "duration": 0.20454545454546036,
                "tempo": 120.0
            },
            {
                "start_time": 61.486363636363635,
                "end_time": 61.699999999999996,
                "pitch": 47,
                "velocity": 80,
                "duration": 0.21363636363636118,
                "tempo": 120.0
            },
            {
                "start_time": 61.715909090909086,
                "end_time": 61.92727272727272,
                "pitch": 46,
                "velocity": 80,
                "duration": 0.21136363636363598,
                "tempo": 120.0
            },
            {
                "start_time": 61.945454545454545,
                "end_time": 64.64999999999999,
                "pitch": 45,
                "velocity": 80,
                "duration": 2.704545454545446,
                "tempo": 120.0
            },
            {
                "start_time": 64.66590909090908,
                "end_time": 64.8840909090909,
                "pitch": 49,
                "velocity": 80,
                "duration": 0.2181818181818187,
                "tempo": 120.0
            },
            {
                "start_time": 64.90227272727273,
                "end_time": 65.11818181818181,
                "pitch": 48,
                "velocity": 80,
                "duration": 0.21590909090907928,
                "tempo": 120.0
            },
            {
                "start_time": 65.13636363636364,
                "end_time": 65.33636363636363,
                "pitch": 47,
                "velocity": 80,
                "duration": 0.19999999999998863,
                "tempo": 120.0
            },
            {
                "start_time": 65.35227272727272,
                "end_time": 65.57045454545454,
                "pitch": 42,
                "velocity": 80,
                "duration": 0.2181818181818187,
                "tempo": 120.0
            },
            {
                "start_time": 65.58636363636363,
                "end_time": 68.3,
                "pitch": 44,
                "velocity": 80,
                "duration": 2.7136363636363683,
                "tempo": 120.0
            },
            {
                "start_time": 68.31590909090909,
                "end_time": 68.52499999999999,
                "pitch": 42,
                "velocity": 80,
                "duration": 0.20909090909090366,
                "tempo": 120.0
            },
            {
                "start_time": 68.54318181818182,
                "end_time": 68.77045454545454,
                "pitch": 44,
                "velocity": 80,
                "duration": 0.22727272727271952,
                "tempo": 120.0
            },
            {
                "start_time": 68.78863636363636,
                "end_time": 68.99545454545454,
                "pitch": 47,
                "velocity": 80,
                "duration": 0.20681818181817846,
                "tempo": 120.0
            },
            {
                "start_time": 69.01363636363637,
                "end_time": 69.20454545454545,
                "pitch": 46,
                "velocity": 80,
                "duration": 0.1909090909090878,
                "tempo": 120.0
            },
            {
                "start_time": 69.23636363636363,
                "end_time": 71.95227272727273,
                "pitch": 45,
                "velocity": 80,
                "duration": 2.7159090909090935,
                "tempo": 120.0
            },
            {
                "start_time": 71.97045454545454,
                "end_time": 72.18636363636364,
                "pitch": 49,
                "velocity": 80,
                "duration": 0.2159090909090935,
                "tempo": 120.0
            },
            {
                "start_time": 72.20454545454545,
                "end_time": 72.40454545454546,
                "pitch": 48,
                "velocity": 80,
                "duration": 0.20000000000000284,
                "tempo": 120.0
            },
            {
                "start_time": 72.43863636363636,
                "end_time": 72.63863636363637,
                "pitch": 47,
                "velocity": 80,
                "duration": 0.20000000000000284,
                "tempo": 120.0
            },
            {
                "start_time": 72.65454545454546,
                "end_time": 72.87272727272727,
                "pitch": 42,
                "velocity": 80,
                "duration": 0.2181818181818187,
                "tempo": 120.0
            },
            {
                "start_time": 72.88863636363637,
                "end_time": 75.58636363636363,
                "pitch": 44,
                "velocity": 80,
                "duration": 2.6977272727272634,
                "tempo": 120.0
            },
            {
                "start_time": 75.61818181818181,
                "end_time": 75.82272727272726,
                "pitch": 42,
                "velocity": 80,
                "duration": 0.20454545454545325,
                "tempo": 120.0
            },
            {
                "start_time": 75.8409090909091,
                "end_time": 76.06363636363636,
                "pitch": 44,
                "velocity": 80,
                "duration": 0.2227272727272691,
                "tempo": 120.0
            },
            {
                "start_time": 76.07954545454545,
                "end_time": 76.29318181818182,
                "pitch": 47,
                "velocity": 80,
                "duration": 0.2136363636363683,
                "tempo": 120.0
            },
            {
                "start_time": 76.30909090909091,
                "end_time": 76.50681818181818,
                "pitch": 46,
                "velocity": 80,
                "duration": 0.19772727272726343,
                "tempo": 120.0
            },
            {
                "start_time": 76.52272727272727,
                "end_time": 79.25454545454545,
                "pitch": 45,
                "velocity": 80,
                "duration": 2.731818181818184,
                "tempo": 120.0
            },
            {
                "start_time": 79.27272727272727,
                "end_time": 79.48409090909091,
                "pitch": 49,
                "velocity": 80,
                "duration": 0.21136363636364308,
                "tempo": 120.0
            },
            {
                "start_time": 79.50227272727273,
                "end_time": 79.69772727272726,
                "pitch": 48,
                "velocity": 80,
                "duration": 0.19545454545453822,
                "tempo": 120.0
            },
            {
                "start_time": 79.71363636363635,
                "end_time": 79.92727272727272,
                "pitch": 47,
                "velocity": 80,
                "duration": 0.2136363636363683,
                "tempo": 120.0
            },
            {
                "start_time": 79.94318181818181,
                "end_time": 80.15454545454546,
                "pitch": 42,
                "velocity": 80,
                "duration": 0.21136363636364308,
                "tempo": 120.0
            },
            {
                "start_time": 80.17045454545455,
                "end_time": 80.27272727272727,
                "pitch": 45,
                "velocity": 80,
                "duration": 0.10227272727271952,
                "tempo": 120.0
            },
            {
                "start_time": 80.63181818181818,
                "end_time": 80.72727272727272,
                "pitch": 47,
                "velocity": 80,
                "duration": 0.0954545454545439,
                "tempo": 120.0
            },
            {
                "start_time": 81.07045454545454,
                "end_time": 81.15681818181818,
                "pitch": 45,
                "velocity": 80,
                "duration": 0.08636363636364308,
                "tempo": 120.0
            },
            {
                "start_time": 81.5340909090909,
                "end_time": 81.63181818181818,
                "pitch": 47,
                "velocity": 80,
                "duration": 0.09772727272726911,
                "tempo": 120.0
            },
            {
                "start_time": 81.99090909090908,
                "end_time": 82.07727272727273,
                "pitch": 45,
                "velocity": 80,
                "duration": 0.08636363636364308,
                "tempo": 120.0
            },
            {
                "start_time": 82.45227272727273,
                "end_time": 82.55227272727272,
                "pitch": 47,
                "velocity": 80,
                "duration": 0.09999999999999432,
                "tempo": 120.0
            }
        ]
    }
}