{
    "track_id": "Cyborg Hunter (FM) - 06 - Boss Room",
    "mood": "sad",
    "instruments": {
        "Trumpet": [
            {
                "start_time": 0.0,
                "end_time": 0.07727272727272727,
                "pitch": 53,
                "velocity": 101,
                "duration": 0.07727272727272727,
                "tempo": 120.0
            },
            {
                "start_time": 0.09318181818181817,
                "end_time": 0.17045454545454544,
                "pitch": 53,
                "velocity": 101,
                "duration": 0.07727272727272727,
                "tempo": 120.0
            },
            {
                "start_time": 0.2954545454545454,
                "end_time": 0.3795454545454545,
                "pitch": 53,
                "velocity": 101,
                "duration": 0.0840909090909091,
                "tempo": 120.0
            },
            {
                "start_time": 0.39545454545454545,
                "end_time": 0.4954545454545454,
                "pitch": 53,
                "velocity": 101,
                "duration": 0.09999999999999998,
                "tempo": 120.0
            },
            {
                "start_time": 0.6136363636363636,
                "end_time": 0.6977272727272726,
                "pitch": 53,
                "velocity": 101,
                "duration": 0.084090909090909,
                "tempo": 120.0
            },
            {
                "start_time": 0.7136363636363636,
                "end_time": 0.8136363636363636,
                "pitch": 53,
                "velocity": 101,
                "duration": 0.09999999999999998,
                "tempo": 120.0
            },
            {
                "start_time": 0.9318181818181818,
                "end_time": 1.0318181818181817,
                "pitch": 53,
                "velocity": 101,
                "duration": 0.09999999999999998,
                "tempo": 120.0
            },
            {
                "start_time": 1.0477272727272726,
                "end_time": 1.1318181818181818,
                "pitch": 53,
                "velocity": 101,
                "duration": 0.08409090909090922,
                "tempo": 120.0
            },
            {
                "start_time": 1.1477272727272727,
                "end_time": 1.25,
                "pitch": 53,
                "velocity": 101,
                "duration": 0.10227272727272729,
                "tempo": 120.0
            },
            {
                "start_time": 1.3659090909090907,
                "end_time": 1.45,
                "pitch": 53,
                "velocity": 101,
                "duration": 0.08409090909090922,
                "tempo": 120.0
            },
            {
                "start_time": 1.584090909090909,
                "end_time": 1.6681818181818182,
                "pitch": 53,
                "velocity": 101,
                "duration": 0.08409090909090922,
                "tempo": 120.0
            },
            {
                "start_time": 1.684090909090909,
                "end_time": 1.784090909090909,
                "pitch": 53,
                "velocity": 101,
                "duration": 0.09999999999999987,
                "tempo": 120.0
            },
            {
                "start_time": 1.7999999999999998,
                "end_time": 1.884090909090909,
                "pitch": 53,
                "velocity": 101,
                "duration": 0.08409090909090922,
                "tempo": 120.0
            },
            {
                "start_time": 2.018181818181818,
                "end_time": 2.102272727272727,
                "pitch": 53,
                "velocity": 101,
                "duration": 0.084090909090909,
                "tempo": 120.0
            },
            {
                "start_time": 2.118181818181818,
                "end_time": 2.202272727272727,
                "pitch": 53,
                "velocity": 101,
                "duration": 0.084090909090909,
                "tempo": 120.0
            },
            {
                "start_time": 2.3363636363636364,
                "end_time": 2.4204545454545454,
                "pitch": 53,
                "velocity": 101,
                "duration": 0.084090909090909,
                "tempo": 120.0
            },
            {
                "start_time": 2.436363636363636,
                "end_time": 2.536363636363636,
                "pitch": 53,
                "velocity": 101,
                "duration": 0.10000000000000009,
                "tempo": 120.0
            },
            {
                "start_time": 2.6545454545454543,
                "end_time": 2.7545454545454544,
                "pitch": 53,
                "velocity": 101,
                "duration": 0.10000000000000009,
                "tempo": 120.0
            },
            {
                "start_time": 2.7727272727272725,
                "end_time": 2.8545454545454545,
                "pitch": 53,
                "velocity": 101,
                "duration": 0.08181818181818201,
                "tempo": 120.0
            },
            {
                "start_time": 2.8727272727272726,
                "end_time": 2.9568181818181816,
                "pitch": 53,
                "velocity": 101,
                "duration": 0.084090909090909,
                "tempo": 120.0
            },
            {
                "start_time": 3.0886363636363634,
                "end_time": 3.1727272727272724,
                "pitch": 53,
                "velocity": 101,
                "duration": 0.084090909090909,
                "tempo": 120.0
            },
            {
                "start_time": 3.3068181818181817,
                "end_time": 3.3886363636363637,
                "pitch": 53,
                "velocity": 101,
                "duration": 0.08181818181818201,
                "tempo": 120.0
            },
            {
                "start_time": 3.4045454545454543,
                "end_time": 3.5045454545454544,
                "pitch": 53,
                "velocity": 101,
                "duration": 0.10000000000000009,
                "tempo": 120.0
            },
            {
                "start_time": 3.5204545454545455,
                "end_time": 3.602272727272727,
                "pitch": 53,
                "velocity": 101,
                "duration": 0.08181818181818157,
                "tempo": 120.0
            },
            {
                "start_time": 3.618181818181818,
                "end_time": 3.6999999999999997,
                "pitch": 65,
                "velocity": 101,
                "duration": 0.08181818181818157,
                "tempo": 120.0
            },
            {
                "start_time": 3.715909090909091,
                "end_time": 3.8136363636363635,
                "pitch": 53,
                "velocity": 101,
                "duration": 0.09772727272727266,
                "tempo": 120.0
            },
            {
                "start_time": 3.8318181818181816,
                "end_time": 3.9136363636363636,
                "pitch": 53,
                "velocity": 101,
                "duration": 0.08181818181818201,
                "tempo": 120.0
            },
            {
                "start_time": 3.9295454545454542,
                "end_time": 4.027272727272727,
                "pitch": 67,
                "velocity": 101,
                "duration": 0.0977272727272731,
                "tempo": 120.0
            },
            {
                "start_time": 4.043181818181818,
                "end_time": 4.125,
                "pitch": 53,
                "velocity": 101,
                "duration": 0.08181818181818201,
                "tempo": 120.0
            },
            {
                "start_time": 4.143181818181818,
                "end_time": 4.245454545454545,
                "pitch": 53,
                "velocity": 101,
                "duration": 0.10227272727272751,
                "tempo": 120.0
            },
            {
                "start_time": 4.261363636363636,
                "end_time": 4.347727272727273,
                "pitch": 60,
                "velocity": 101,
                "duration": 0.08636363636363686,
                "tempo": 120.0
            },
            {
                "start_time": 4.363636363636363,
                "end_time": 4.45,
                "pitch": 53,
                "velocity": 101,
                "duration": 0.08636363636363686,
                "tempo": 120.0
            },
            {
                "start_time": 4.468181818181818,
                "end_time": 4.570454545454545,
                "pitch": 53,
                "velocity": 101,
                "duration": 0.10227272727272751,
                "tempo": 120.0
            },
            {
                "start_time": 4.586363636363636,
                "end_time": 4.788636363636363,
                "pitch": 56,
                "velocity": 101,
                "duration": 0.20227272727272716,
                "tempo": 120.0
            },
            {
                "start_time": 4.804545454545455,
                "end_time": 4.888636363636364,
                "pitch": 58,
                "velocity": 101,
                "duration": 0.084090909090909,
                "tempo": 120.0
            },
            {
                "start_time": 4.904545454545454,
                "end_time": 5.004545454545454,
                "pitch": 55,
                "velocity": 101,
                "duration": 0.09999999999999964,
                "tempo": 120.0
            },
            {
                "start_time": 5.0227272727272725,
                "end_time": 5.1045454545454545,
                "pitch": 56,
                "velocity": 101,
                "duration": 0.08181818181818201,
                "tempo": 120.0
            },
            {
                "start_time": 5.122727272727272,
                "end_time": 5.206818181818181,
                "pitch": 53,
                "velocity": 101,
                "duration": 0.084090909090909,
                "tempo": 120.0
            },
            {
                "start_time": 5.222727272727273,
                "end_time": 5.322727272727272,
                "pitch": 53,
                "velocity": 101,
                "duration": 0.09999999999999964,
                "tempo": 120.0
            },
            {
                "start_time": 5.340909090909091,
                "end_time": 5.422727272727273,
                "pitch": 65,
                "velocity": 101,
                "duration": 0.08181818181818201,
                "tempo": 120.0
            },
            {
                "start_time": 5.4409090909090905,
                "end_time": 5.538636363636363,
                "pitch": 53,
                "velocity": 101,
                "duration": 0.09772727272727266,
                "tempo": 120.0
            },
            {
                "start_time": 5.554545454545455,
                "end_time": 5.636363636363636,
                "pitch": 53,
                "velocity": 101,
                "duration": 0.08181818181818112,
                "tempo": 120.0
            },
            {
                "start_time": 5.652272727272727,
                "end_time": 5.752272727272727,
                "pitch": 67,
                "velocity": 101,
                "duration": 0.09999999999999964,
                "tempo": 120.0
            },
            {
                "start_time": 5.768181818181818,
                "end_time": 5.85,
                "pitch": 53,
                "velocity": 101,
                "duration": 0.08181818181818201,
                "tempo": 120.0
            },
            {
                "start_time": 5.86590909090909,
                "end_time": 6.070454545454545,
                "pitch": 70,
                "velocity": 101,
                "duration": 0.20454545454545503,
                "tempo": 120.0
            },
            {
                "start_time": 6.088636363636363,
                "end_time": 6.172727272727273,
                "pitch": 68,
                "velocity": 101,
                "duration": 0.08409090909090988,
                "tempo": 120.0
            },
            {
                "start_time": 6.1909090909090905,
                "end_time": 6.293181818181818,
                "pitch": 67,
                "velocity": 101,
                "duration": 0.10227272727272751,
                "tempo": 120.0
            },
            {
                "start_time": 6.311363636363636,
                "end_time": 6.511363636363636,
                "pitch": 65,
                "velocity": 101,
                "duration": 0.20000000000000018,
                "tempo": 120.0
            },
            {
                "start_time": 6.527272727272727,
                "end_time": 6.611363636363636,
                "pitch": 67,
                "velocity": 101,
                "duration": 0.084090909090909,
                "tempo": 120.0
            },
            {
                "start_time": 6.629545454545454,
                "end_time": 6.711363636363636,
                "pitch": 60,
                "velocity": 101,
                "duration": 0.08181818181818201,
                "tempo": 120.0
            },
            {
                "start_time": 6.7295454545454545,
                "end_time": 6.824999999999999,
                "pitch": 63,
                "velocity": 101,
                "duration": 0.09545454545454479,
                "tempo": 120.0
            },
            {
                "start_time": 6.840909090909091,
                "end_time": 6.920454545454545,
                "pitch": 53,
                "velocity": 101,
                "duration": 0.07954545454545414,
                "tempo": 120.0
            },
            {
                "start_time": 6.936363636363636,
                "end_time": 7.031818181818181,
                "pitch": 53,
                "velocity": 101,
                "duration": 0.09545454545454568,
                "tempo": 120.0
            },
            {
                "start_time": 7.047727272727272,
                "end_time": 7.127272727272727,
                "pitch": 65,
                "velocity": 101,
                "duration": 0.07954545454545503,
                "tempo": 120.0
            },
            {
                "start_time": 7.143181818181818,
                "end_time": 7.243181818181818,
                "pitch": 53,
                "velocity": 101,
                "duration": 0.10000000000000053,
                "tempo": 120.0
            },
            {
                "start_time": 7.261363636363636,
                "end_time": 7.343181818181818,
                "pitch": 53,
                "velocity": 101,
                "duration": 0.08181818181818201,
                "tempo": 120.0
            },
            {
                "start_time": 7.361363636363636,
                "end_time": 7.445454545454545,
                "pitch": 67,
                "velocity": 101,
                "duration": 0.084090909090909,
                "tempo": 120.0
            },
            {
                "start_time": 7.461363636363636,
                "end_time": 7.561363636363636,
                "pitch": 53,
                "velocity": 101,
                "duration": 0.09999999999999964,
                "tempo": 120.0
            },
            {
                "start_time": 7.577272727272727,
                "end_time": 7.663636363636363,
                "pitch": 53,
                "velocity": 101,
                "duration": 0.08636363636363598,
                "tempo": 120.0
            },
            {
                "start_time": 7.681818181818182,
                "end_time": 7.784090909090908,
                "pitch": 60,
                "velocity": 101,
                "duration": 0.10227272727272663,
                "tempo": 120.0
            },
            {
                "start_time": 7.8,
                "end_time": 7.886363636363636,
                "pitch": 53,
                "velocity": 101,
                "duration": 0.08636363636363598,
                "tempo": 120.0
            },
            {
                "start_time": 7.9022727272727264,
                "end_time": 8.006818181818181,
                "pitch": 53,
                "velocity": 101,
                "duration": 0.1045454545454545,
                "tempo": 120.0
            },
            {
                "start_time": 8.022727272727272,
                "end_time": 8.206818181818182,
                "pitch": 56,
                "velocity": 101,
                "duration": 0.18409090909091042,
                "tempo": 120.0
            },
            {
                "start_time": 8.222727272727273,
                "end_time": 8.325,
                "pitch": 58,
                "velocity": 101,
                "duration": 0.10227272727272663,
                "tempo": 120.0
            },
            {
                "start_time": 8.34090909090909,
                "end_time": 8.424999999999999,
                "pitch": 55,
                "velocity": 101,
                "duration": 0.084090909090909,
                "tempo": 120.0
            },
            {
                "start_time": 8.440909090909091,
                "end_time": 8.538636363636364,
                "pitch": 56,
                "velocity": 101,
                "duration": 0.09772727272727266,
                "tempo": 120.0
            },
            {
                "start_time": 8.556818181818182,
                "end_time": 8.638636363636364,
                "pitch": 53,
                "velocity": 101,
                "duration": 0.08181818181818201,
                "tempo": 120.0
            },
            {
                "start_time": 8.654545454545454,
                "end_time": 8.752272727272727,
                "pitch": 53,
                "velocity": 101,
                "duration": 0.09772727272727266,
                "tempo": 120.0
            },
            {
                "start_time": 8.768181818181818,
                "end_time": 8.85,
                "pitch": 65,
                "velocity": 101,
                "duration": 0.08181818181818201,
                "tempo": 120.0
            },
            {
                "start_time": 8.868181818181817,
                "end_time": 8.95,
                "pitch": 53,
                "velocity": 101,
                "duration": 0.08181818181818201,
                "tempo": 120.0
            },
            {
                "start_time": 8.968181818181817,
                "end_time": 9.068181818181818,
                "pitch": 53,
                "velocity": 101,
                "duration": 0.10000000000000142,
                "tempo": 120.0
            },
            {
                "start_time": 9.084090909090909,
                "end_time": 9.168181818181818,
                "pitch": 67,
                "velocity": 101,
                "duration": 0.084090909090909,
                "tempo": 120.0
            },
            {
                "start_time": 9.184090909090909,
                "end_time": 9.286363636363635,
                "pitch": 53,
                "velocity": 101,
                "duration": 0.10227272727272663,
                "tempo": 120.0
            },
            {
                "start_time": 9.302272727272728,
                "end_time": 9.506818181818181,
                "pitch": 70,
                "velocity": 101,
                "duration": 0.20454545454545325,
                "tempo": 120.0
            },
            {
                "start_time": 9.525,
                "end_time": 9.60909090909091,
                "pitch": 68,
                "velocity": 101,
                "duration": 0.084090909090909,
                "tempo": 120.0
            },
            {
                "start_time": 9.627272727272727,
                "end_time": 9.713636363636363,
                "pitch": 67,
                "velocity": 101,
                "duration": 0.08636363636363598,
                "tempo": 120.0
            },
            {
                "start_time": 9.729545454545454,
                "end_time": 9.927272727272726,
                "pitch": 65,
                "velocity": 101,
                "duration": 0.1977272727272723,
                "tempo": 120.0
            },
            {
                "start_time": 9.943181818181818,
                "end_time": 10.040909090909091,
                "pitch": 67,
                "velocity": 101,
                "duration": 0.09772727272727266,
                "tempo": 120.0
            },
            {
                "start_time": 10.056818181818182,
                "end_time": 10.138636363636364,
                "pitch": 60,
                "velocity": 101,
                "duration": 0.08181818181818201,
                "tempo": 120.0
            },
            {
                "start_time": 10.156818181818181,
                "end_time": 10.256818181818181,
                "pitch": 63,
                "velocity": 101,
                "duration": 0.09999999999999964,
                "tempo": 120.0
            },
            {
                "start_time": 10.272727272727272,
                "end_time": 10.35681818181818,
                "pitch": 53,
                "velocity": 101,
                "duration": 0.084090909090909,
                "tempo": 120.0
            },
            {
                "start_time": 10.372727272727273,
                "end_time": 10.456818181818182,
                "pitch": 53,
                "velocity": 101,
                "duration": 0.084090909090909,
                "tempo": 120.0
            },
            {
                "start_time": 10.59090909090909,
                "end_time": 10.674999999999999,
                "pitch": 53,
                "velocity": 101,
                "duration": 0.084090909090909,
                "tempo": 120.0
            },
            {
                "start_time": 10.69090909090909,
                "end_time": 10.790909090909091,
                "pitch": 53,
                "velocity": 101,
                "duration": 0.10000000000000142,
                "tempo": 120.0
            },
            {
                "start_time": 10.909090909090908,
                "end_time": 11.009090909090908,
                "pitch": 53,
                "velocity": 101,
                "duration": 0.09999999999999964,
                "tempo": 120.0
            },
            {
                "start_time": 11.024999999999999,
                "end_time": 11.111363636363636,
                "pitch": 53,
                "velocity": 101,
                "duration": 0.08636363636363775,
                "tempo": 120.0
            },
            {
                "start_time": 11.23181818181818,
                "end_time": 11.334090909090909,
                "pitch": 53,
                "velocity": 101,
                "duration": 0.1022727272727284,
                "tempo": 120.0
            },
            {
                "start_time": 11.35,
                "end_time": 11.436363636363636,
                "pitch": 53,
                "velocity": 101,
                "duration": 0.08636363636363598,
                "tempo": 120.0
            },
            {
                "start_time": 11.454545454545453,
                "end_time": 11.552272727272726,
                "pitch": 53,
                "velocity": 101,
                "duration": 0.09772727272727266,
                "tempo": 120.0
            },
            {
                "start_time": 11.665909090909091,
                "end_time": 11.76590909090909,
                "pitch": 53,
                "velocity": 101,
                "duration": 0.09999999999999964,
                "tempo": 120.0
            },
            {
                "start_time": 11.879545454545454,
                "end_time": 11.961363636363636,
                "pitch": 53,
                "velocity": 101,
                "duration": 0.08181818181818201,
                "tempo": 120.0
            },
            {
                "start_time": 11.977272727272727,
                "end_time": 12.077272727272726,
                "pitch": 53,
                "velocity": 101,
                "duration": 0.09999999999999964,
                "tempo": 120.0
            },
            {
                "start_time": 12.093181818181817,
                "end_time": 12.174999999999999,
                "pitch": 53,
                "velocity": 101,
                "duration": 0.08181818181818201,
                "tempo": 120.0
            },
            {
                "start_time": 12.306818181818182,
                "end_time": 12.388636363636364,
                "pitch": 53,
                "velocity": 101,
                "duration": 0.08181818181818201,
                "tempo": 120.0
            },
            {
                "start_time": 12.406818181818181,
                "end_time": 12.506818181818181,
                "pitch": 53,
                "velocity": 101,
                "duration": 0.09999999999999964,
                "tempo": 120.0
            },
            {
                "start_time": 12.622727272727271,
                "end_time": 12.706818181818182,
                "pitch": 53,
                "velocity": 101,
                "duration": 0.08409090909091077,
                "tempo": 120.0
            },
            {
                "start_time": 12.725,
                "end_time": 12.825,
                "pitch": 53,
                "velocity": 101,
                "duration": 0.09999999999999964,
                "tempo": 120.0
            },
            {
                "start_time": 12.94090909090909,
                "end_time": 13.043181818181818,
                "pitch": 53,
                "velocity": 101,
                "duration": 0.1022727272727284,
                "tempo": 120.0
            },
            {
                "start_time": 13.059090909090909,
                "end_time": 13.143181818181818,
                "pitch": 53,
                "velocity": 101,
                "duration": 0.084090909090909,
                "tempo": 120.0
            },
            {
                "start_time": 13.159090909090908,
                "end_time": 13.259090909090908,
                "pitch": 53,
                "velocity": 101,
                "duration": 0.09999999999999964,
                "tempo": 120.0
            },
            {
                "start_time": 13.377272727272727,
                "end_time": 13.461363636363636,
                "pitch": 53,
                "velocity": 101,
                "duration": 0.084090909090909,
                "tempo": 120.0
            },
            {
                "start_time": 13.593181818181817,
                "end_time": 13.677272727272726,
                "pitch": 53,
                "velocity": 101,
                "duration": 0.084090909090909,
                "tempo": 120.0
            },
            {
                "start_time": 13.695454545454545,
                "end_time": 13.795454545454545,
                "pitch": 53,
                "velocity": 101,
                "duration": 0.09999999999999964,
                "tempo": 120.0
            },
            {
                "start_time": 13.811363636363636,
                "end_time": 13.895454545454545,
                "pitch": 53,
                "velocity": 101,
                "duration": 0.084090909090909,
                "tempo": 120.0
            },
            {
                "start_time": 13.911363636363635,
                "end_time": 14.013636363636364,
                "pitch": 65,
                "velocity": 101,
                "duration": 0.1022727272727284,
                "tempo": 120.0
            },
            {
                "start_time": 14.029545454545454,
                "end_time": 14.113636363636363,
                "pitch": 53,
                "velocity": 101,
                "duration": 0.084090909090909,
                "tempo": 120.0
            },
            {
                "start_time": 14.129545454545454,
                "end_time": 14.213636363636363,
                "pitch": 53,
                "velocity": 101,
                "duration": 0.084090909090909,
                "tempo": 120.0
            },
            {
                "start_time": 14.229545454545454,
                "end_time": 14.329545454545453,
                "pitch": 67,
                "velocity": 101,
                "duration": 0.09999999999999964,
                "tempo": 120.0
            },
            {
                "start_time": 14.347727272727273,
                "end_time": 14.431818181818182,
                "pitch": 53,
                "velocity": 101,
                "duration": 0.084090909090909,
                "tempo": 120.0
            },
            {
                "start_time": 14.447727272727272,
                "end_time": 14.545454545454545,
                "pitch": 53,
                "velocity": 101,
                "duration": 0.09772727272727266,
                "tempo": 120.0
            },
            {
                "start_time": 14.561363636363636,
                "end_time": 14.643181818181818,
                "pitch": 60,
                "velocity": 101,
                "duration": 0.08181818181818201,
                "tempo": 120.0
            },
            {
                "start_time": 14.661363636363635,
                "end_time": 14.759090909090908,
                "pitch": 53,
                "velocity": 101,
                "duration": 0.09772727272727266,
                "tempo": 120.0
            },
            {
                "start_time": 14.774999999999999,
                "end_time": 14.85681818181818,
                "pitch": 53,
                "velocity": 101,
                "duration": 0.08181818181818201,
                "tempo": 120.0
            },
            {
                "start_time": 14.872727272727271,
                "end_time": 15.079545454545453,
                "pitch": 56,
                "velocity": 101,
                "duration": 0.206818181818182,
                "tempo": 120.0
            },
            {
                "start_time": 15.095454545454544,
                "end_time": 15.181818181818182,
                "pitch": 58,
                "velocity": 101,
                "duration": 0.08636363636363775,
                "tempo": 120.0
            },
            {
                "start_time": 15.197727272727272,
                "end_time": 15.299999999999999,
                "pitch": 55,
                "velocity": 101,
                "duration": 0.10227272727272663,
                "tempo": 120.0
            },
            {
                "start_time": 15.318181818181817,
                "end_time": 15.399999999999999,
                "pitch": 56,
                "velocity": 101,
                "duration": 0.08181818181818201,
                "tempo": 120.0
            },
            {
                "start_time": 15.415909090909091,
                "end_time": 15.513636363636364,
                "pitch": 53,
                "velocity": 101,
                "duration": 0.09772727272727266,
                "tempo": 120.0
            },
            {
                "start_time": 15.529545454545454,
                "end_time": 15.613636363636363,
                "pitch": 53,
                "velocity": 101,
                "duration": 0.084090909090909,
                "tempo": 120.0
            },
            {
                "start_time": 15.629545454545454,
                "end_time": 15.711363636363636,
                "pitch": 65,
                "velocity": 101,
                "duration": 0.08181818181818201,
                "tempo": 120.0
            },
            {
                "start_time": 15.727272727272727,
                "end_time": 15.827272727272726,
                "pitch": 53,
                "velocity": 101,
                "duration": 0.09999999999999964,
                "tempo": 120.0
            },
            {
                "start_time": 15.843181818181817,
                "end_time": 15.927272727272726,
                "pitch": 53,
                "velocity": 101,
                "duration": 0.084090909090909,
                "tempo": 120.0
            },
            {
                "start_time": 15.945454545454545,
                "end_time": 16.045454545454543,
                "pitch": 67,
                "velocity": 101,
                "duration": 0.09999999999999787,
                "tempo": 120.0
            },
            {
                "start_time": 16.061363636363634,
                "end_time": 16.145454545454545,
                "pitch": 53,
                "velocity": 101,
                "duration": 0.08409090909091077,
                "tempo": 120.0
            },
            {
                "start_time": 16.161363636363635,
                "end_time": 16.363636363636363,
                "pitch": 70,
                "velocity": 101,
                "duration": 0.20227272727272805,
                "tempo": 120.0
            },
            {
                "start_time": 16.379545454545454,
                "end_time": 16.46363636363636,
                "pitch": 68,
                "velocity": 101,
                "duration": 0.08409090909090722,
                "tempo": 120.0
            },
            {
                "start_time": 16.479545454545455,
                "end_time": 16.579545454545453,
                "pitch": 67,
                "velocity": 101,
                "duration": 0.09999999999999787,
                "tempo": 120.0
            },
            {
                "start_time": 16.597727272727273,
                "end_time": 16.802272727272726,
                "pitch": 65,
                "velocity": 101,
                "duration": 0.20454545454545325,
                "tempo": 120.0
            },
            {
                "start_time": 16.818181818181817,
                "end_time": 16.904545454545453,
                "pitch": 67,
                "velocity": 101,
                "duration": 0.08636363636363598,
                "tempo": 120.0
            },
            {
                "start_time": 16.922727272727272,
                "end_time": 17.025,
                "pitch": 60,
                "velocity": 101,
                "duration": 0.10227272727272663,
                "tempo": 120.0
            },
            {
                "start_time": 17.04090909090909,
                "end_time": 17.12272727272727,
                "pitch": 63,
                "velocity": 101,
                "duration": 0.08181818181818201,
                "tempo": 120.0
            },
            {
                "start_time": 17.138636363636362,
                "end_time": 17.222727272727273,
                "pitch": 53,
                "velocity": 101,
                "duration": 0.08409090909091077,
                "tempo": 120.0
            },
            {
                "start_time": 17.238636363636363,
                "end_time": 17.336363636363636,
                "pitch": 53,
                "velocity": 101,
                "duration": 0.09772727272727266,
                "tempo": 120.0
            },
            {
                "start_time": 17.352272727272727,
                "end_time": 17.43409090909091,
                "pitch": 65,
                "velocity": 101,
                "duration": 0.08181818181818201,
                "tempo": 120.0
            },
            {
                "start_time": 17.45,
                "end_time": 17.55,
                "pitch": 53,
                "velocity": 101,
                "duration": 0.10000000000000142,
                "tempo": 120.0
            },
            {
                "start_time": 17.56590909090909,
                "end_time": 17.647727272727273,
                "pitch": 53,
                "velocity": 101,
                "duration": 0.08181818181818201,
                "tempo": 120.0
            },
            {
                "start_time": 17.663636363636364,
                "end_time": 17.761363636363637,
                "pitch": 67,
                "velocity": 101,
                "duration": 0.09772727272727266,
                "tempo": 120.0
            },
            {
                "start_time": 17.779545454545453,
                "end_time": 17.861363636363635,
                "pitch": 53,
                "velocity": 101,
                "duration": 0.08181818181818201,
                "tempo": 120.0
            },
            {
                "start_time": 17.877272727272725,
                "end_time": 17.961363636363636,
                "pitch": 53,
                "velocity": 101,
                "duration": 0.08409090909091077,
                "tempo": 120.0
            },
            {
                "start_time": 17.979545454545455,
                "end_time": 18.081818181818182,
                "pitch": 60,
                "velocity": 101,
                "duration": 0.10227272727272663,
                "tempo": 120.0
            },
            {
                "start_time": 18.099999999999998,
                "end_time": 18.18409090909091,
                "pitch": 53,
                "velocity": 101,
                "duration": 0.08409090909091077,
                "tempo": 120.0
            },
            {
                "start_time": 18.202272727272728,
                "end_time": 18.304545454545455,
                "pitch": 53,
                "velocity": 101,
                "duration": 0.10227272727272663,
                "tempo": 120.0
            },
            {
                "start_time": 18.320454545454545,
                "end_time": 18.522727272727273,
                "pitch": 56,
                "velocity": 101,
                "duration": 0.20227272727272805,
                "tempo": 120.0
            },
            {
                "start_time": 18.538636363636364,
                "end_time": 18.62272727272727,
                "pitch": 58,
                "velocity": 101,
                "duration": 0.08409090909090722,
                "tempo": 120.0
            },
            {
                "start_time": 18.638636363636362,
                "end_time": 18.722727272727273,
                "pitch": 55,
                "velocity": 101,
                "duration": 0.08409090909091077,
                "tempo": 120.0
            },
            {
                "start_time": 18.738636363636363,
                "end_time": 18.834090909090907,
                "pitch": 56,
                "velocity": 101,
                "duration": 0.0954545454545439,
                "tempo": 120.0
            },
            {
                "start_time": 18.849999999999998,
                "end_time": 18.929545454545455,
                "pitch": 53,
                "velocity": 101,
                "duration": 0.0795454545454568,
                "tempo": 120.0
            },
            {
                "start_time": 18.945454545454545,
                "end_time": 19.043181818181818,
                "pitch": 53,
                "velocity": 101,
                "duration": 0.09772727272727266,
                "tempo": 120.0
            },
            {
                "start_time": 19.05909090909091,
                "end_time": 19.138636363636362,
                "pitch": 65,
                "velocity": 101,
                "duration": 0.07954545454545325,
                "tempo": 120.0
            },
            {
                "start_time": 19.154545454545453,
                "end_time": 19.254545454545454,
                "pitch": 53,
                "velocity": 101,
                "duration": 0.10000000000000142,
                "tempo": 120.0
            },
            {
                "start_time": 19.270454545454545,
                "end_time": 19.354545454545452,
                "pitch": 53,
                "velocity": 101,
                "duration": 0.08409090909090722,
                "tempo": 120.0
            },
            {
                "start_time": 19.370454545454546,
                "end_time": 19.454545454545453,
                "pitch": 67,
                "velocity": 101,
                "duration": 0.08409090909090722,
                "tempo": 120.0
            },
            {
                "start_time": 19.472727272727273,
                "end_time": 19.57272727272727,
                "pitch": 53,
                "velocity": 101,
                "duration": 0.09999999999999787,
                "tempo": 120.0
            },
            {
                "start_time": 19.58863636363636,
                "end_time": 19.793181818181818,
                "pitch": 70,
                "velocity": 101,
                "duration": 0.2045454545454568,
                "tempo": 120.0
            },
            {
                "start_time": 19.811363636363634,
                "end_time": 19.897727272727273,
                "pitch": 68,
                "velocity": 101,
                "duration": 0.08636363636363953,
                "tempo": 120.0
            },
            {
                "start_time": 19.913636363636364,
                "end_time": 20.01590909090909,
                "pitch": 67,
                "velocity": 101,
                "duration": 0.10227272727272663,
                "tempo": 120.0
            },
            {
                "start_time": 20.034090909090907,
                "end_time": 20.222727272727273,
                "pitch": 65,
                "velocity": 101,
                "duration": 0.18863636363636616,
                "tempo": 120.0
            },
            {
                "start_time": 20.238636363636363,
                "end_time": 20.34090909090909,
                "pitch": 67,
                "velocity": 101,
                "duration": 0.10227272727272663,
                "tempo": 120.0
            },
            {
                "start_time": 20.35909090909091,
                "end_time": 20.443181818181817,
                "pitch": 60,
                "velocity": 101,
                "duration": 0.08409090909090722,
                "tempo": 120.0
            },
            {
                "start_time": 20.461363636363636,
                "end_time": 20.55681818181818,
                "pitch": 63,
                "velocity": 101,
                "duration": 0.0954545454545439,
                "tempo": 120.0
            },
            {
                "start_time": 20.57272727272727,
                "end_time": 20.763636363636362,
                "pitch": 66,
                "velocity": 101,
                "duration": 0.19090909090909136,
                "tempo": 120.0
            },
            {
                "start_time": 20.779545454545453,
                "end_time": 21.077272727272724,
                "pitch": 78,
                "velocity": 101,
                "duration": 0.29772727272727195,
                "tempo": 120.0
            },
            {
                "start_time": 21.09318181818182,
                "end_time": 21.177272727272726,
                "pitch": 76,
                "velocity": 101,
                "duration": 0.08409090909090722,
                "tempo": 120.0
            },
            {
                "start_time": 21.193181818181817,
                "end_time": 21.293181818181818,
                "pitch": 74,
                "velocity": 101,
                "duration": 0.10000000000000142,
                "tempo": 120.0
            },
            {
                "start_time": 21.311363636363634,
                "end_time": 21.51590909090909,
                "pitch": 76,
                "velocity": 101,
                "duration": 0.2045454545454568,
                "tempo": 120.0
            },
            {
                "start_time": 21.534090909090907,
                "end_time": 21.720454545454544,
                "pitch": 66,
                "velocity": 101,
                "duration": 0.1863636363636374,
                "tempo": 120.0
            },
            {
                "start_time": 21.738636363636363,
                "end_time": 22.263636363636362,
                "pitch": 72,
                "velocity": 101,
                "duration": 0.5249999999999986,
                "tempo": 120.0
            },
            {
                "start_time": 22.279545454545453,
                "end_time": 22.459090909090907,
                "pitch": 66,
                "velocity": 101,
                "duration": 0.17954545454545467,
                "tempo": 120.0
            },
            {
                "start_time": 22.474999999999998,
                "end_time": 22.795454545454543,
                "pitch": 78,
                "velocity": 101,
                "duration": 0.3204545454545453,
                "tempo": 120.0
            },
            {
                "start_time": 22.813636363636363,
                "end_time": 22.897727272727273,
                "pitch": 76,
                "velocity": 101,
                "duration": 0.08409090909091077,
                "tempo": 120.0
            },
            {
                "start_time": 22.91590909090909,
                "end_time": 23.018181818181816,
                "pitch": 74,
                "velocity": 101,
                "duration": 0.10227272727272663,
                "tempo": 120.0
            },
            {
                "start_time": 23.034090909090907,
                "end_time": 23.222727272727273,
                "pitch": 76,
                "velocity": 101,
                "duration": 0.18863636363636616,
                "tempo": 120.0
            },
            {
                "start_time": 23.24090909090909,
                "end_time": 23.445454545454545,
                "pitch": 66,
                "velocity": 101,
                "duration": 0.2045454545454568,
                "tempo": 120.0
            },
            {
                "start_time": 23.46363636363636,
                "end_time": 23.961363636363636,
                "pitch": 72,
                "velocity": 101,
                "duration": 0.4977272727272748,
                "tempo": 120.0
            },
            {
                "start_time": 23.977272727272727,
                "end_time": 24.177272727272726,
                "pitch": 66,
                "velocity": 101,
                "duration": 0.1999999999999993,
                "tempo": 120.0
            },
            {
                "start_time": 24.195454545454545,
                "end_time": 24.513636363636362,
                "pitch": 78,
                "velocity": 101,
                "duration": 0.31818181818181657,
                "tempo": 120.0
            },
            {
                "start_time": 24.529545454545453,
                "end_time": 24.613636363636363,
                "pitch": 76,
                "velocity": 101,
                "duration": 0.08409090909091077,
                "tempo": 120.0
            },
            {
                "start_time": 24.629545454545454,
                "end_time": 24.71363636363636,
                "pitch": 74,
                "velocity": 101,
                "duration": 0.08409090909090722,
                "tempo": 120.0
            },
            {
                "start_time": 24.729545454545452,
                "end_time": 24.93181818181818,
                "pitch": 76,
                "velocity": 101,
                "duration": 0.20227272727272805,
                "tempo": 120.0
            },
            {
                "start_time": 24.94772727272727,
                "end_time": 25.14772727272727,
                "pitch": 66,
                "velocity": 101,
                "duration": 0.1999999999999993,
                "tempo": 120.0
            },
            {
                "start_time": 25.16590909090909,
                "end_time": 25.68409090909091,
                "pitch": 72,
                "velocity": 101,
                "duration": 0.5181818181818194,
                "tempo": 120.0
            },
            {
                "start_time": 25.7,
                "end_time": 25.902272727272727,
                "pitch": 66,
                "velocity": 101,
                "duration": 0.20227272727272805,
                "tempo": 120.0
            },
            {
                "start_time": 25.918181818181818,
                "end_time": 26.220454545454544,
                "pitch": 78,
                "velocity": 101,
                "duration": 0.3022727272727259,
                "tempo": 120.0
            },
            {
                "start_time": 26.236363636363635,
                "end_time": 26.336363636363636,
                "pitch": 76,
                "velocity": 101,
                "duration": 0.10000000000000142,
                "tempo": 120.0
            },
            {
                "start_time": 26.354545454545452,
                "end_time": 26.436363636363634,
                "pitch": 74,
                "velocity": 101,
                "duration": 0.08181818181818201,
                "tempo": 120.0
            },
            {
                "start_time": 26.454545454545453,
                "end_time": 26.654545454545453,
                "pitch": 76,
                "velocity": 101,
                "duration": 0.1999999999999993,
                "tempo": 120.0
            },
            {
                "start_time": 26.670454545454543,
                "end_time": 26.87272727272727,
                "pitch": 72,
                "velocity": 101,
                "duration": 0.20227272727272805,
                "tempo": 120.0
            },
            {
                "start_time": 26.888636363636362,
                "end_time": 27.40681818181818,
                "pitch": 74,
                "velocity": 101,
                "duration": 0.5181818181818194,
                "tempo": 120.0
            },
            {
                "start_time": 27.422727272727272,
                "end_time": 27.520454545454545,
                "pitch": 53,
                "velocity": 101,
                "duration": 0.09772727272727266,
                "tempo": 120.0
            },
            {
                "start_time": 27.536363636363635,
                "end_time": 27.618181818181817,
                "pitch": 53,
                "velocity": 101,
                "duration": 0.08181818181818201,
                "tempo": 120.0
            },
            {
                "start_time": 27.634090909090908,
                "end_time": 27.71590909090909,
                "pitch": 65,
                "velocity": 101,
                "duration": 0.08181818181818201,
                "tempo": 120.0
            },
            {
                "start_time": 27.73409090909091,
                "end_time": 27.831818181818182,
                "pitch": 53,
                "velocity": 101,
                "duration": 0.09772727272727266,
                "tempo": 120.0
            },
            {
                "start_time": 27.847727272727273,
                "end_time": 27.929545454545455,
                "pitch": 53,
                "velocity": 101,
                "duration": 0.08181818181818201,
                "tempo": 120.0
            },
            {
                "start_time": 27.945454545454545,
                "end_time": 28.045454545454543,
                "pitch": 67,
                "velocity": 101,
                "duration": 0.09999999999999787,
                "tempo": 120.0
            },
            {
                "start_time": 28.061363636363634,
                "end_time": 28.143181818181816,
                "pitch": 53,
                "velocity": 101,
                "duration": 0.08181818181818201,
                "tempo": 120.0
            },
            {
                "start_time": 28.159090909090907,
                "end_time": 28.261363636363637,
                "pitch": 53,
                "velocity": 101,
                "duration": 0.10227272727273018,
                "tempo": 120.0
            },
            {
                "start_time": 28.279545454545453,
                "end_time": 28.363636363636363,
                "pitch": 60,
                "velocity": 101,
                "duration": 0.08409090909091077,
                "tempo": 120.0
            },
            {
                "start_time": 28.38181818181818,
                "end_time": 28.46590909090909,
                "pitch": 53,
                "velocity": 101,
                "duration": 0.08409090909091077,
                "tempo": 120.0
            },
            {
                "start_time": 28.48409090909091,
                "end_time": 28.586363636363636,
                "pitch": 53,
                "velocity": 101,
                "duration": 0.10227272727272663,
                "tempo": 120.0
            },
            {
                "start_time": 28.604545454545452,
                "end_time": 28.804545454545455,
                "pitch": 56,
                "velocity": 101,
                "duration": 0.20000000000000284,
                "tempo": 120.0
            },
            {
                "start_time": 28.820454545454545,
                "end_time": 28.904545454545453,
                "pitch": 58,
                "velocity": 101,
                "duration": 0.08409090909090722,
                "tempo": 120.0
            },
            {
                "start_time": 28.922727272727272,
                "end_time": 29.02272727272727,
                "pitch": 55,
                "velocity": 101,
                "duration": 0.09999999999999787,
                "tempo": 120.0
            },
            {
                "start_time": 29.03863636363636,
                "end_time": 29.12272727272727,
                "pitch": 56,
                "velocity": 101,
                "duration": 0.08409090909091077,
                "tempo": 120.0
            },
            {
                "start_time": 29.138636363636362,
                "end_time": 29.222727272727273,
                "pitch": 53,
                "velocity": 101,
                "duration": 0.08409090909091077,
                "tempo": 120.0
            },
            {
                "start_time": 29.238636363636363,
                "end_time": 29.34090909090909,
                "pitch": 53,
                "velocity": 101,
                "duration": 0.10227272727272663,
                "tempo": 120.0
            },
            {
                "start_time": 29.35681818181818,
                "end_time": 29.440909090909088,
                "pitch": 65,
                "velocity": 101,
                "duration": 0.08409090909090722,
                "tempo": 120.0
            },
            {
                "start_time": 29.456818181818182,
                "end_time": 29.554545454545455,
                "pitch": 53,
                "velocity": 101,
                "duration": 0.09772727272727266,
                "tempo": 120.0
            },
            {
                "start_time": 29.57272727272727,
                "end_time": 29.654545454545453,
                "pitch": 53,
                "velocity": 101,
                "duration": 0.08181818181818201,
                "tempo": 120.0
            },
            {
                "start_time": 29.670454545454543,
                "end_time": 29.768181818181816,
                "pitch": 67,
                "velocity": 101,
                "duration": 0.09772727272727266,
                "tempo": 120.0
            },
            {
                "start_time": 29.784090909090907,
                "end_time": 29.86590909090909,
                "pitch": 53,
                "velocity": 101,
                "duration": 0.08181818181818201,
                "tempo": 120.0
            },
            {
                "start_time": 29.884090909090908,
                "end_time": 30.08863636363636,
                "pitch": 70,
                "velocity": 101,
                "duration": 0.20454545454545325,
                "tempo": 120.0
            },
            {
                "start_time": 30.104545454545452,
                "end_time": 30.190909090909088,
                "pitch": 68,
                "velocity": 101,
                "duration": 0.08636363636363598,
                "tempo": 120.0
            },
            {
                "start_time": 30.206818181818182,
                "end_time": 30.311363636363634,
                "pitch": 67,
                "velocity": 101,
                "duration": 0.10454545454545183,
                "tempo": 120.0
            },
            {
                "start_time": 30.327272727272724,
                "end_time": 30.527272727272727,
                "pitch": 65,
                "velocity": 101,
                "duration": 0.20000000000000284,
                "tempo": 120.0
            },
            {
                "start_time": 30.545454545454543,
                "end_time": 30.629545454545454,
                "pitch": 67,
                "velocity": 101,
                "duration": 0.08409090909091077,
                "tempo": 120.0
            },
            {
                "start_time": 30.645454545454545,
                "end_time": 30.729545454545452,
                "pitch": 60,
                "velocity": 101,
                "duration": 0.08409090909090722,
                "tempo": 120.0
            },
            {
                "start_time": 30.745454545454542,
                "end_time": 30.84090909090909,
                "pitch": 63,
                "velocity": 101,
                "duration": 0.09545454545454746,
                "tempo": 120.0
            },
            {
                "start_time": 30.85681818181818,
                "end_time": 30.936363636363634,
                "pitch": 53,
                "velocity": 101,
                "duration": 0.07954545454545325,
                "tempo": 120.0
            },
            {
                "start_time": 30.952272727272724,
                "end_time": 31.047727272727272,
                "pitch": 53,
                "velocity": 101,
                "duration": 0.09545454545454746,
                "tempo": 120.0
            },
            {
                "start_time": 31.063636363636363,
                "end_time": 31.143181818181816,
                "pitch": 65,
                "velocity": 101,
                "duration": 0.07954545454545325,
                "tempo": 120.0
            },
            {
                "start_time": 31.159090909090907,
                "end_time": 31.261363636363633,
                "pitch": 53,
                "velocity": 101,
                "duration": 0.10227272727272663,
                "tempo": 120.0
            },
            {
                "start_time": 31.279545454545453,
                "end_time": 31.36590909090909,
                "pitch": 53,
                "velocity": 101,
                "duration": 0.08636363636363598,
                "tempo": 120.0
            },
            {
                "start_time": 31.38181818181818,
                "end_time": 31.468181818181815,
                "pitch": 67,
                "velocity": 101,
                "duration": 0.08636363636363598,
                "tempo": 120.0
            },
            {
                "start_time": 31.484090909090906,
                "end_time": 31.586363636363636,
                "pitch": 53,
                "velocity": 101,
                "duration": 0.10227272727273018,
                "tempo": 120.0
            },
            {
                "start_time": 31.604545454545452,
                "end_time": 31.688636363636363,
                "pitch": 53,
                "velocity": 101,
                "duration": 0.08409090909091077,
                "tempo": 120.0
            },
            {
                "start_time": 31.704545454545453,
                "end_time": 31.804545454545455,
                "pitch": 60,
                "velocity": 101,
                "duration": 0.10000000000000142,
                "tempo": 120.0
            },
            {
                "start_time": 31.82272727272727,
                "end_time": 31.904545454545453,
                "pitch": 53,
                "velocity": 101,
                "duration": 0.08181818181818201,
                "tempo": 120.0
            },
            {
                "start_time": 31.922727272727272,
                "end_time": 32.02272727272727,
                "pitch": 53,
                "velocity": 101,
                "duration": 0.10000000000000142,
                "tempo": 120.0
            },
            {
                "start_time": 32.038636363636364,
                "end_time": 32.22272727272727,
                "pitch": 56,
                "velocity": 101,
                "duration": 0.18409090909090509,
                "tempo": 120.0
            },
            {
                "start_time": 32.24090909090909,
                "end_time": 32.340909090909086,
                "pitch": 58,
                "velocity": 101,
                "duration": 0.09999999999999432,
                "tempo": 120.0
            },
            {
                "start_time": 32.35681818181818,
                "end_time": 32.44090909090909,
                "pitch": 55,
                "velocity": 101,
                "duration": 0.08409090909091077,
                "tempo": 120.0
            },
            {
                "start_time": 32.45681818181818,
                "end_time": 32.55681818181818,
                "pitch": 56,
                "velocity": 101,
                "duration": 0.10000000000000142,
                "tempo": 120.0
            },
            {
                "start_time": 32.57272727272727,
                "end_time": 32.654545454545456,
                "pitch": 53,
                "velocity": 101,
                "duration": 0.08181818181818556,
                "tempo": 120.0
            },
            {
                "start_time": 32.67045454545455,
                "end_time": 32.768181818181816,
                "pitch": 53,
                "velocity": 101,
                "duration": 0.09772727272726911,
                "tempo": 120.0
            },
            {
                "start_time": 32.78636363636363,
                "end_time": 32.86818181818182,
                "pitch": 65,
                "velocity": 101,
                "duration": 0.08181818181818556,
                "tempo": 120.0
            },
            {
                "start_time": 32.88409090909091,
                "end_time": 32.96818181818182,
                "pitch": 53,
                "velocity": 101,
                "duration": 0.08409090909091077,
                "tempo": 120.0
            },
            {
                "start_time": 32.98409090909091,
                "end_time": 33.08409090909091,
                "pitch": 53,
                "velocity": 101,
                "duration": 0.10000000000000142,
                "tempo": 120.0
            },
            {
                "start_time": 33.10227272727273,
                "end_time": 33.184090909090905,
                "pitch": 67,
                "velocity": 101,
                "duration": 0.08181818181817846,
                "tempo": 120.0
            },
            {
                "start_time": 33.20227272727273,
                "end_time": 33.30227272727272,
                "pitch": 53,
                "velocity": 101,
                "duration": 0.09999999999999432,
                "tempo": 120.0
            },
            {
                "start_time": 33.31818181818181,
                "end_time": 33.52272727272727,
                "pitch": 70,
                "velocity": 101,
                "duration": 0.20454545454546036,
                "tempo": 120.0
            },
            {
                "start_time": 33.54090909090909,
                "end_time": 33.627272727272725,
                "pitch": 68,
                "velocity": 101,
                "duration": 0.08636363636363598,
                "tempo": 120.0
            },
            {
                "start_time": 33.643181818181816,
                "end_time": 33.72954545454545,
                "pitch": 67,
                "velocity": 101,
                "duration": 0.08636363636363598,
                "tempo": 120.0
            },
            {
                "start_time": 33.74545454545454,
                "end_time": 33.94318181818181,
                "pitch": 65,
                "velocity": 101,
                "duration": 0.19772727272727053,
                "tempo": 120.0
            },
            {
                "start_time": 33.95909090909091,
                "end_time": 34.05681818181818,
                "pitch": 67,
                "velocity": 101,
                "duration": 0.09772727272726911,
                "tempo": 120.0
            },
            {
                "start_time": 34.074999999999996,
                "end_time": 34.15681818181818,
                "pitch": 60,
                "velocity": 101,
                "duration": 0.08181818181818556,
                "tempo": 120.0
            },
            {
                "start_time": 34.17272727272727,
                "end_time": 34.27272727272727,
                "pitch": 63,
                "velocity": 101,
                "duration": 0.10000000000000142,
                "tempo": 120.0
            },
            {
                "start_time": 34.288636363636364,
                "end_time": 34.37272727272727,
                "pitch": 53,
                "velocity": 101,
                "duration": 0.08409090909090366,
                "tempo": 120.0
            },
            {
                "start_time": 34.39090909090909,
                "end_time": 34.47272727272727,
                "pitch": 53,
                "velocity": 101,
                "duration": 0.08181818181817846,
                "tempo": 120.0
            },
            {
                "start_time": 34.60681818181818,
                "end_time": 34.625,
                "pitch": 53,
                "velocity": 101,
                "duration": 0.018181818181822962,
                "tempo": 120.0
            }
        ],
        "Acoustic Bass": [
            {
                "start_time": 0.015909090909090907,
                "end_time": 0.07727272727272727,
                "pitch": 48,
                "velocity": 101,
                "duration": 0.06136363636363636,
                "tempo": 120.0
            },
            {
                "start_time": 0.09318181818181817,
                "end_time": 0.17045454545454544,
                "pitch": 48,
                "velocity": 101,
                "duration": 0.07727272727272727,
                "tempo": 120.0
            },
            {
                "start_time": 0.2954545454545454,
                "end_time": 0.3795454545454545,
                "pitch": 48,
                "velocity": 101,
                "duration": 0.0840909090909091,
                "tempo": 120.0
            },
            {
                "start_time": 0.39545454545454545,
                "end_time": 0.4954545454545454,
                "pitch": 48,
                "velocity": 101,
                "duration": 0.09999999999999998,
                "tempo": 120.0
            },
            {
                "start_time": 0.6136363636363636,
                "end_time": 0.6977272727272726,
                "pitch": 48,
                "velocity": 101,
                "duration": 0.084090909090909,
                "tempo": 120.0
            },
            {
                "start_time": 0.7136363636363636,
                "end_time": 0.8136363636363636,
                "pitch": 48,
                "velocity": 101,
                "duration": 0.09999999999999998,
                "tempo": 120.0
            },
            {
                "start_time": 0.9318181818181818,
                "end_time": 1.0318181818181817,
                "pitch": 48,
                "velocity": 101,
                "duration": 0.09999999999999998,
                "tempo": 120.0
            },
            {
                "start_time": 1.0477272727272726,
                "end_time": 1.1318181818181818,
                "pitch": 48,
                "velocity": 101,
                "duration": 0.08409090909090922,
                "tempo": 120.0
            },
            {
                "start_time": 1.1477272727272727,
                "end_time": 1.25,
                "pitch": 48,
                "velocity": 101,
                "duration": 0.10227272727272729,
                "tempo": 120.0
            },
            {
                "start_time": 1.3659090909090907,
                "end_time": 1.45,
                "pitch": 48,
                "velocity": 101,
                "duration": 0.08409090909090922,
                "tempo": 120.0
            },
            {
                "start_time": 1.584090909090909,
                "end_time": 1.6681818181818182,
                "pitch": 48,
                "velocity": 101,
                "duration": 0.08409090909090922,
                "tempo": 120.0
            },
            {
                "start_time": 1.684090909090909,
                "end_time": 1.784090909090909,
                "pitch": 48,
                "velocity": 101,
                "duration": 0.09999999999999987,
                "tempo": 120.0
            },
            {
                "start_time": 1.7999999999999998,
                "end_time": 1.884090909090909,
                "pitch": 48,
                "velocity": 101,
                "duration": 0.08409090909090922,
                "tempo": 120.0
            },
            {
                "start_time": 2.018181818181818,
                "end_time": 2.102272727272727,
                "pitch": 48,
                "velocity": 101,
                "duration": 0.084090909090909,
                "tempo": 120.0
            },
            {
                "start_time": 2.118181818181818,
                "end_time": 2.202272727272727,
                "pitch": 48,
                "velocity": 101,
                "duration": 0.084090909090909,
                "tempo": 120.0
            },
            {
                "start_time": 2.3363636363636364,
                "end_time": 2.4204545454545454,
                "pitch": 48,
                "velocity": 101,
                "duration": 0.084090909090909,
                "tempo": 120.0
            },
            {
                "start_time": 2.436363636363636,
                "end_time": 2.536363636363636,
                "pitch": 48,
                "velocity": 101,
                "duration": 0.10000000000000009,
                "tempo": 120.0
            },
            {
                "start_time": 2.6545454545454543,
                "end_time": 2.7545454545454544,
                "pitch": 48,
                "velocity": 101,
                "duration": 0.10000000000000009,
                "tempo": 120.0
            },
            {
                "start_time": 2.7727272727272725,
                "end_time": 2.8545454545454545,
                "pitch": 48,
                "velocity": 101,
                "duration": 0.08181818181818201,
                "tempo": 120.0
            },
            {
                "start_time": 2.8727272727272726,
                "end_time": 2.9568181818181816,
                "pitch": 48,
                "velocity": 101,
                "duration": 0.084090909090909,
                "tempo": 120.0
            },
            {
                "start_time": 3.0886363636363634,
                "end_time": 3.1727272727272724,
                "pitch": 48,
                "velocity": 101,
                "duration": 0.084090909090909,
                "tempo": 120.0
            },
            {
                "start_time": 3.3068181818181817,
                "end_time": 3.3886363636363637,
                "pitch": 48,
                "velocity": 101,
                "duration": 0.08181818181818201,
                "tempo": 120.0
            },
            {
                "start_time": 3.618181818181818,
                "end_time": 3.6999999999999997,
                "pitch": 60,
                "velocity": 101,
                "duration": 0.08181818181818157,
                "tempo": 120.0
            },
            {
                "start_time": 3.9295454545454542,
                "end_time": 4.027272727272727,
                "pitch": 63,
                "velocity": 101,
                "duration": 0.0977272727272731,
                "tempo": 120.0
            },
            {
                "start_time": 4.261363636363636,
                "end_time": 4.347727272727273,
                "pitch": 56,
                "velocity": 101,
                "duration": 0.08636363636363686,
                "tempo": 120.0
            },
            {
                "start_time": 5.340909090909091,
                "end_time": 5.422727272727273,
                "pitch": 60,
                "velocity": 101,
                "duration": 0.08181818181818201,
                "tempo": 120.0
            },
            {
                "start_time": 5.652272727272727,
                "end_time": 5.752272727272727,
                "pitch": 63,
                "velocity": 101,
                "duration": 0.09999999999999964,
                "tempo": 120.0
            },
            {
                "start_time": 5.86590909090909,
                "end_time": 6.070454545454545,
                "pitch": 73,
                "velocity": 101,
                "duration": 0.20454545454545503,
                "tempo": 120.0
            },
            {
                "start_time": 6.088636363636363,
                "end_time": 6.172727272727273,
                "pitch": 72,
                "velocity": 101,
                "duration": 0.08409090909090988,
                "tempo": 120.0
            },
            {
                "start_time": 6.1909090909090905,
                "end_time": 6.293181818181818,
                "pitch": 70,
                "velocity": 101,
                "duration": 0.10227272727272751,
                "tempo": 120.0
            },
            {
                "start_time": 6.311363636363636,
                "end_time": 6.511363636363636,
                "pitch": 68,
                "velocity": 101,
                "duration": 0.20000000000000018,
                "tempo": 120.0
            },
            {
                "start_time": 6.527272727272727,
                "end_time": 6.611363636363636,
                "pitch": 70,
                "velocity": 101,
                "duration": 0.084090909090909,
                "tempo": 120.0
            },
            {
                "start_time": 6.629545454545454,
                "end_time": 6.711363636363636,
                "pitch": 67,
                "velocity": 101,
                "duration": 0.08181818181818201,
                "tempo": 120.0
            },
            {
                "start_time": 6.7295454545454545,
                "end_time": 6.824999999999999,
                "pitch": 68,
                "velocity": 101,
                "duration": 0.09545454545454479,
                "tempo": 120.0
            },
            {
                "start_time": 7.047727272727272,
                "end_time": 7.127272727272727,
                "pitch": 60,
                "velocity": 101,
                "duration": 0.07954545454545503,
                "tempo": 120.0
            },
            {
                "start_time": 7.361363636363636,
                "end_time": 7.445454545454545,
                "pitch": 63,
                "velocity": 101,
                "duration": 0.084090909090909,
                "tempo": 120.0
            },
            {
                "start_time": 7.681818181818182,
                "end_time": 7.784090909090908,
                "pitch": 56,
                "velocity": 101,
                "duration": 0.10227272727272663,
                "tempo": 120.0
            },
            {
                "start_time": 8.768181818181818,
                "end_time": 8.85,
                "pitch": 60,
                "velocity": 101,
                "duration": 0.08181818181818201,
                "tempo": 120.0
            },
            {
                "start_time": 9.084090909090909,
                "end_time": 9.168181818181818,
                "pitch": 63,
                "velocity": 101,
                "duration": 0.084090909090909,
                "tempo": 120.0
            },
            {
                "start_time": 9.302272727272728,
                "end_time": 9.506818181818181,
                "pitch": 73,
                "velocity": 101,
                "duration": 0.20454545454545325,
                "tempo": 120.0
            },
            {
                "start_time": 9.525,
                "end_time": 9.60909090909091,
                "pitch": 72,
                "velocity": 101,
                "duration": 0.084090909090909,
                "tempo": 120.0
            },
            {
                "start_time": 9.627272727272727,
                "end_time": 9.713636363636363,
                "pitch": 70,
                "velocity": 101,
                "duration": 0.08636363636363598,
                "tempo": 120.0
            },
            {
                "start_time": 9.729545454545454,
                "end_time": 9.927272727272726,
                "pitch": 68,
                "velocity": 101,
                "duration": 0.1977272727272723,
                "tempo": 120.0
            },
            {
                "start_time": 9.943181818181818,
                "end_time": 10.040909090909091,
                "pitch": 70,
                "velocity": 101,
                "duration": 0.09772727272727266,
                "tempo": 120.0
            },
            {
                "start_time": 10.056818181818182,
                "end_time": 10.138636363636364,
                "pitch": 67,
                "velocity": 101,
                "duration": 0.08181818181818201,
                "tempo": 120.0
            },
            {
                "start_time": 10.156818181818181,
                "end_time": 10.256818181818181,
                "pitch": 68,
                "velocity": 101,
                "duration": 0.09999999999999964,
                "tempo": 120.0
            },
            {
                "start_time": 10.272727272727272,
                "end_time": 10.35681818181818,
                "pitch": 48,
                "velocity": 101,
                "duration": 0.084090909090909,
                "tempo": 120.0
            },
            {
                "start_time": 10.372727272727273,
                "end_time": 10.456818181818182,
                "pitch": 48,
                "velocity": 101,
                "duration": 0.084090909090909,
                "tempo": 120.0
            },
            {
                "start_time": 10.59090909090909,
                "end_time": 10.674999999999999,
                "pitch": 48,
                "velocity": 101,
                "duration": 0.084090909090909,
                "tempo": 120.0
            },
            {
                "start_time": 10.69090909090909,
                "end_time": 10.790909090909091,
                "pitch": 48,
                "velocity": 101,
                "duration": 0.10000000000000142,
                "tempo": 120.0
            },
            {
                "start_time": 10.909090909090908,
                "end_time": 11.009090909090908,
                "pitch": 48,
                "velocity": 101,
                "duration": 0.09999999999999964,
                "tempo": 120.0
            },
            {
                "start_time": 11.024999999999999,
                "end_time": 11.111363636363636,
                "pitch": 48,
                "velocity": 101,
                "duration": 0.08636363636363775,
                "tempo": 120.0
            },
            {
                "start_time": 11.23181818181818,
                "end_time": 11.334090909090909,
                "pitch": 48,
                "velocity": 101,
                "duration": 0.1022727272727284,
                "tempo": 120.0
            },
            {
                "start_time": 11.35,
                "end_time": 11.436363636363636,
                "pitch": 48,
                "velocity": 101,
                "duration": 0.08636363636363598,
                "tempo": 120.0
            },
            {
                "start_time": 11.454545454545453,
                "end_time": 11.552272727272726,
                "pitch": 48,
                "velocity": 101,
                "duration": 0.09772727272727266,
                "tempo": 120.0
            },
            {
                "start_time": 11.665909090909091,
                "end_time": 11.76590909090909,
                "pitch": 48,
                "velocity": 101,
                "duration": 0.09999999999999964,
                "tempo": 120.0
            },
            {
                "start_time": 11.879545454545454,
                "end_time": 11.961363636363636,
                "pitch": 48,
                "velocity": 101,
                "duration": 0.08181818181818201,
                "tempo": 120.0
            },
            {
                "start_time": 11.977272727272727,
                "end_time": 12.077272727272726,
                "pitch": 48,
                "velocity": 101,
                "duration": 0.09999999999999964,
                "tempo": 120.0
            },
            {
                "start_time": 12.093181818181817,
                "end_time": 12.174999999999999,
                "pitch": 48,
                "velocity": 101,
                "duration": 0.08181818181818201,
                "tempo": 120.0
            },
            {
                "start_time": 12.306818181818182,
                "end_time": 12.388636363636364,
                "pitch": 48,
                "velocity": 101,
                "duration": 0.08181818181818201,
                "tempo": 120.0
            },
            {
                "start_time": 12.406818181818181,
                "end_time": 12.506818181818181,
                "pitch": 48,
                "velocity": 101,
                "duration": 0.09999999999999964,
                "tempo": 120.0
            },
            {
                "start_time": 12.622727272727271,
                "end_time": 12.706818181818182,
                "pitch": 48,
                "velocity": 101,
                "duration": 0.08409090909091077,
                "tempo": 120.0
            },
            {
                "start_time": 12.725,
                "end_time": 12.825,
                "pitch": 48,
                "velocity": 101,
                "duration": 0.09999999999999964,
                "tempo": 120.0
            },
            {
                "start_time": 12.94090909090909,
                "end_time": 13.043181818181818,
                "pitch": 48,
                "velocity": 101,
                "duration": 0.1022727272727284,
                "tempo": 120.0
            },
            {
                "start_time": 13.059090909090909,
                "end_time": 13.143181818181818,
                "pitch": 48,
                "velocity": 101,
                "duration": 0.084090909090909,
                "tempo": 120.0
            },
            {
                "start_time": 13.159090909090908,
                "end_time": 13.259090909090908,
                "pitch": 48,
                "velocity": 101,
                "duration": 0.09999999999999964,
                "tempo": 120.0
            },
            {
                "start_time": 13.377272727272727,
                "end_time": 13.461363636363636,
                "pitch": 48,
                "velocity": 101,
                "duration": 0.084090909090909,
                "tempo": 120.0
            },
            {
                "start_time": 13.593181818181817,
                "end_time": 13.677272727272726,
                "pitch": 48,
                "velocity": 101,
                "duration": 0.084090909090909,
                "tempo": 120.0
            },
            {
                "start_time": 13.911363636363635,
                "end_time": 14.013636363636364,
                "pitch": 60,
                "velocity": 101,
                "duration": 0.1022727272727284,
                "tempo": 120.0
            },
            {
                "start_time": 14.229545454545454,
                "end_time": 14.329545454545453,
                "pitch": 63,
                "velocity": 101,
                "duration": 0.09999999999999964,
                "tempo": 120.0
            },
            {
                "start_time": 14.561363636363636,
                "end_time": 14.643181818181818,
                "pitch": 56,
                "velocity": 101,
                "duration": 0.08181818181818201,
                "tempo": 120.0
            },
            {
                "start_time": 15.629545454545454,
                "end_time": 15.711363636363636,
                "pitch": 60,
                "velocity": 101,
                "duration": 0.08181818181818201,
                "tempo": 120.0
            },
            {
                "start_time": 15.945454545454545,
                "end_time": 16.045454545454543,
                "pitch": 63,
                "velocity": 101,
                "duration": 0.09999999999999787,
                "tempo": 120.0
            },
            {
                "start_time": 16.161363636363635,
                "end_time": 16.363636363636363,
                "pitch": 73,
                "velocity": 101,
                "duration": 0.20227272727272805,
                "tempo": 120.0
            },
            {
                "start_time": 16.379545454545454,
                "end_time": 16.46363636363636,
                "pitch": 72,
                "velocity": 101,
                "duration": 0.08409090909090722,
                "tempo": 120.0
            },
            {
                "start_time": 16.479545454545455,
                "end_time": 16.579545454545453,
                "pitch": 70,
                "velocity": 101,
                "duration": 0.09999999999999787,
                "tempo": 120.0
            },
            {
                "start_time": 16.597727272727273,
                "end_time": 16.802272727272726,
                "pitch": 68,
                "velocity": 101,
                "duration": 0.20454545454545325,
                "tempo": 120.0
            },
            {
                "start_time": 16.818181818181817,
                "end_time": 16.904545454545453,
                "pitch": 70,
                "velocity": 101,
                "duration": 0.08636363636363598,
                "tempo": 120.0
            },
            {
                "start_time": 16.922727272727272,
                "end_time": 17.025,
                "pitch": 67,
                "velocity": 101,
                "duration": 0.10227272727272663,
                "tempo": 120.0
            },
            {
                "start_time": 17.04090909090909,
                "end_time": 17.12272727272727,
                "pitch": 68,
                "velocity": 101,
                "duration": 0.08181818181818201,
                "tempo": 120.0
            },
            {
                "start_time": 17.352272727272727,
                "end_time": 17.43409090909091,
                "pitch": 60,
                "velocity": 101,
                "duration": 0.08181818181818201,
                "tempo": 120.0
            },
            {
                "start_time": 17.663636363636364,
                "end_time": 17.761363636363637,
                "pitch": 63,
                "velocity": 101,
                "duration": 0.09772727272727266,
                "tempo": 120.0
            },
            {
                "start_time": 17.979545454545455,
                "end_time": 18.081818181818182,
                "pitch": 56,
                "velocity": 101,
                "duration": 0.10227272727272663,
                "tempo": 120.0
            },
            {
                "start_time": 19.05909090909091,
                "end_time": 19.138636363636362,
                "pitch": 60,
                "velocity": 101,
                "duration": 0.07954545454545325,
                "tempo": 120.0
            },
            {
                "start_time": 19.370454545454546,
                "end_time": 19.454545454545453,
                "pitch": 63,
                "velocity": 101,
                "duration": 0.08409090909090722,
                "tempo": 120.0
            },
            {
                "start_time": 19.58863636363636,
                "end_time": 19.793181818181818,
                "pitch": 73,
                "velocity": 101,
                "duration": 0.2045454545454568,
                "tempo": 120.0
            },
            {
                "start_time": 19.811363636363634,
                "end_time": 19.897727272727273,
                "pitch": 72,
                "velocity": 101,
                "duration": 0.08636363636363953,
                "tempo": 120.0
            },
            {
                "start_time": 19.913636363636364,
                "end_time": 20.01590909090909,
                "pitch": 70,
                "velocity": 101,
                "duration": 0.10227272727272663,
                "tempo": 120.0
            },
            {
                "start_time": 20.034090909090907,
                "end_time": 20.222727272727273,
                "pitch": 68,
                "velocity": 101,
                "duration": 0.18863636363636616,
                "tempo": 120.0
            },
            {
                "start_time": 20.238636363636363,
                "end_time": 20.34090909090909,
                "pitch": 70,
                "velocity": 101,
                "duration": 0.10227272727272663,
                "tempo": 120.0
            },
            {
                "start_time": 20.35909090909091,
                "end_time": 20.443181818181817,
                "pitch": 67,
                "velocity": 101,
                "duration": 0.08409090909090722,
                "tempo": 120.0
            },
            {
                "start_time": 20.461363636363636,
                "end_time": 20.55681818181818,
                "pitch": 68,
                "velocity": 101,
                "duration": 0.0954545454545439,
                "tempo": 120.0
            },
            {
                "start_time": 20.57272727272727,
                "end_time": 20.652272727272727,
                "pitch": 56,
                "velocity": 101,
                "duration": 0.0795454545454568,
                "tempo": 120.0
            },
            {
                "start_time": 20.668181818181818,
                "end_time": 20.763636363636362,
                "pitch": 58,
                "velocity": 101,
                "duration": 0.0954545454545439,
                "tempo": 120.0
            },
            {
                "start_time": 20.779545454545453,
                "end_time": 20.85909090909091,
                "pitch": 60,
                "velocity": 101,
                "duration": 0.0795454545454568,
                "tempo": 120.0
            },
            {
                "start_time": 20.875,
                "end_time": 21.077272727272724,
                "pitch": 62,
                "velocity": 101,
                "duration": 0.2022727272727245,
                "tempo": 120.0
            },
            {
                "start_time": 21.09318181818182,
                "end_time": 21.177272727272726,
                "pitch": 60,
                "velocity": 101,
                "duration": 0.08409090909090722,
                "tempo": 120.0
            },
            {
                "start_time": 21.193181818181817,
                "end_time": 21.293181818181818,
                "pitch": 58,
                "velocity": 101,
                "duration": 0.10000000000000142,
                "tempo": 120.0
            },
            {
                "start_time": 21.311363636363634,
                "end_time": 21.395454545454545,
                "pitch": 56,
                "velocity": 101,
                "duration": 0.08409090909091077,
                "tempo": 120.0
            },
            {
                "start_time": 21.413636363636364,
                "end_time": 21.51590909090909,
                "pitch": 60,
                "velocity": 101,
                "duration": 0.10227272727272663,
                "tempo": 120.0
            },
            {
                "start_time": 21.534090909090907,
                "end_time": 21.618181818181817,
                "pitch": 58,
                "velocity": 101,
                "duration": 0.08409090909091077,
                "tempo": 120.0
            },
            {
                "start_time": 21.636363636363637,
                "end_time": 21.720454545454544,
                "pitch": 56,
                "velocity": 101,
                "duration": 0.08409090909090722,
                "tempo": 120.0
            },
            {
                "start_time": 21.738636363636363,
                "end_time": 21.93409090909091,
                "pitch": 54,
                "velocity": 101,
                "duration": 0.19545454545454533,
                "tempo": 120.0
            },
            {
                "start_time": 21.952272727272724,
                "end_time": 22.147727272727273,
                "pitch": 56,
                "velocity": 101,
                "duration": 0.19545454545454888,
                "tempo": 120.0
            },
            {
                "start_time": 22.163636363636364,
                "end_time": 22.263636363636362,
                "pitch": 58,
                "velocity": 101,
                "duration": 0.09999999999999787,
                "tempo": 120.0
            },
            {
                "start_time": 22.279545454545453,
                "end_time": 22.361363636363635,
                "pitch": 56,
                "velocity": 101,
                "duration": 0.08181818181818201,
                "tempo": 120.0
            },
            {
                "start_time": 22.377272727272725,
                "end_time": 22.459090909090907,
                "pitch": 58,
                "velocity": 101,
                "duration": 0.08181818181818201,
                "tempo": 120.0
            },
            {
                "start_time": 22.474999999999998,
                "end_time": 22.575,
                "pitch": 60,
                "velocity": 101,
                "duration": 0.10000000000000142,
                "tempo": 120.0
            },
            {
                "start_time": 22.59090909090909,
                "end_time": 22.795454545454543,
                "pitch": 62,
                "velocity": 101,
                "duration": 0.20454545454545325,
                "tempo": 120.0
            },
            {
                "start_time": 22.813636363636363,
                "end_time": 22.897727272727273,
                "pitch": 60,
                "velocity": 101,
                "duration": 0.08409090909091077,
                "tempo": 120.0
            },
            {
                "start_time": 22.91590909090909,
                "end_time": 23.018181818181816,
                "pitch": 58,
                "velocity": 101,
                "duration": 0.10227272727272663,
                "tempo": 120.0
            },
            {
                "start_time": 23.034090909090907,
                "end_time": 23.120454545454546,
                "pitch": 56,
                "velocity": 101,
                "duration": 0.08636363636363953,
                "tempo": 120.0
            },
            {
                "start_time": 23.138636363636362,
                "end_time": 23.222727272727273,
                "pitch": 60,
                "velocity": 101,
                "duration": 0.08409090909091077,
                "tempo": 120.0
            },
            {
                "start_time": 23.24090909090909,
                "end_time": 23.34318181818182,
                "pitch": 58,
                "velocity": 101,
                "duration": 0.10227272727273018,
                "tempo": 120.0
            },
            {
                "start_time": 23.35909090909091,
                "end_time": 23.445454545454545,
                "pitch": 56,
                "velocity": 101,
                "duration": 0.08636363636363598,
                "tempo": 120.0
            },
            {
                "start_time": 23.46363636363636,
                "end_time": 23.654545454545453,
                "pitch": 54,
                "velocity": 101,
                "duration": 0.19090909090909136,
                "tempo": 120.0
            },
            {
                "start_time": 23.670454545454543,
                "end_time": 23.861363636363635,
                "pitch": 56,
                "velocity": 101,
                "duration": 0.19090909090909136,
                "tempo": 120.0
            },
            {
                "start_time": 23.877272727272725,
                "end_time": 23.961363636363636,
                "pitch": 58,
                "velocity": 101,
                "duration": 0.08409090909091077,
                "tempo": 120.0
            },
            {
                "start_time": 23.977272727272727,
                "end_time": 24.077272727272724,
                "pitch": 56,
                "velocity": 101,
                "duration": 0.09999999999999787,
                "tempo": 120.0
            },
            {
                "start_time": 24.095454545454544,
                "end_time": 24.177272727272726,
                "pitch": 58,
                "velocity": 101,
                "duration": 0.08181818181818201,
                "tempo": 120.0
            },
            {
                "start_time": 24.195454545454545,
                "end_time": 24.295454545454543,
                "pitch": 60,
                "velocity": 101,
                "duration": 0.09999999999999787,
                "tempo": 120.0
            },
            {
                "start_time": 24.311363636363634,
                "end_time": 24.513636363636362,
                "pitch": 62,
                "velocity": 101,
                "duration": 0.20227272727272805,
                "tempo": 120.0
            },
            {
                "start_time": 24.529545454545453,
                "end_time": 24.613636363636363,
                "pitch": 60,
                "velocity": 101,
                "duration": 0.08409090909091077,
                "tempo": 120.0
            },
            {
                "start_time": 24.629545454545454,
                "end_time": 24.71363636363636,
                "pitch": 58,
                "velocity": 101,
                "duration": 0.08409090909090722,
                "tempo": 120.0
            },
            {
                "start_time": 24.729545454545452,
                "end_time": 24.831818181818182,
                "pitch": 56,
                "velocity": 101,
                "duration": 0.10227272727273018,
                "tempo": 120.0
            },
            {
                "start_time": 24.847727272727273,
                "end_time": 24.93181818181818,
                "pitch": 60,
                "velocity": 101,
                "duration": 0.08409090909090722,
                "tempo": 120.0
            },
            {
                "start_time": 24.94772727272727,
                "end_time": 25.047727272727272,
                "pitch": 58,
                "velocity": 101,
                "duration": 0.10000000000000142,
                "tempo": 120.0
            },
            {
                "start_time": 25.06590909090909,
                "end_time": 25.14772727272727,
                "pitch": 56,
                "velocity": 101,
                "duration": 0.08181818181817846,
                "tempo": 120.0
            },
            {
                "start_time": 25.16590909090909,
                "end_time": 25.36590909090909,
                "pitch": 54,
                "velocity": 101,
                "duration": 0.1999999999999993,
                "tempo": 120.0
            },
            {
                "start_time": 25.38181818181818,
                "end_time": 25.584090909090907,
                "pitch": 56,
                "velocity": 101,
                "duration": 0.20227272727272805,
                "tempo": 120.0
            },
            {
                "start_time": 25.599999999999998,
                "end_time": 25.68409090909091,
                "pitch": 58,
                "velocity": 101,
                "duration": 0.08409090909091077,
                "tempo": 120.0
            },
            {
                "start_time": 25.7,
                "end_time": 25.802272727272726,
                "pitch": 56,
                "velocity": 101,
                "duration": 0.10227272727272663,
                "tempo": 120.0
            },
            {
                "start_time": 25.818181818181817,
                "end_time": 25.902272727272727,
                "pitch": 58,
                "velocity": 101,
                "duration": 0.08409090909091077,
                "tempo": 120.0
            },
            {
                "start_time": 25.918181818181818,
                "end_time": 26.018181818181816,
                "pitch": 60,
                "velocity": 101,
                "duration": 0.09999999999999787,
                "tempo": 120.0
            },
            {
                "start_time": 26.036363636363635,
                "end_time": 26.220454545454544,
                "pitch": 62,
                "velocity": 101,
                "duration": 0.18409090909090864,
                "tempo": 120.0
            },
            {
                "start_time": 26.236363636363635,
                "end_time": 26.336363636363636,
                "pitch": 60,
                "velocity": 101,
                "duration": 0.10000000000000142,
                "tempo": 120.0
            },
            {
                "start_time": 26.354545454545452,
                "end_time": 26.436363636363634,
                "pitch": 58,
                "velocity": 101,
                "duration": 0.08181818181818201,
                "tempo": 120.0
            },
            {
                "start_time": 26.454545454545453,
                "end_time": 26.554545454545455,
                "pitch": 56,
                "velocity": 101,
                "duration": 0.10000000000000142,
                "tempo": 120.0
            },
            {
                "start_time": 26.570454545454545,
                "end_time": 26.654545454545453,
                "pitch": 60,
                "velocity": 101,
                "duration": 0.08409090909090722,
                "tempo": 120.0
            },
            {
                "start_time": 26.670454545454543,
                "end_time": 26.77272727272727,
                "pitch": 58,
                "velocity": 101,
                "duration": 0.10227272727272663,
                "tempo": 120.0
            },
            {
                "start_time": 26.788636363636364,
                "end_time": 26.87272727272727,
                "pitch": 56,
                "velocity": 101,
                "duration": 0.08409090909090722,
                "tempo": 120.0
            },
            {
                "start_time": 26.888636363636362,
                "end_time": 27.08863636363636,
                "pitch": 54,
                "velocity": 101,
                "duration": 0.1999999999999993,
                "tempo": 120.0
            },
            {
                "start_time": 27.10681818181818,
                "end_time": 27.30681818181818,
                "pitch": 56,
                "velocity": 101,
                "duration": 0.1999999999999993,
                "tempo": 120.0
            },
            {
                "start_time": 27.32272727272727,
                "end_time": 27.40681818181818,
                "pitch": 58,
                "velocity": 101,
                "duration": 0.08409090909091077,
                "tempo": 120.0
            },
            {
                "start_time": 27.634090909090908,
                "end_time": 27.71590909090909,
                "pitch": 60,
                "velocity": 101,
                "duration": 0.08181818181818201,
                "tempo": 120.0
            },
            {
                "start_time": 27.945454545454545,
                "end_time": 28.045454545454543,
                "pitch": 63,
                "velocity": 101,
                "duration": 0.09999999999999787,
                "tempo": 120.0
            },
            {
                "start_time": 28.279545454545453,
                "end_time": 28.363636363636363,
                "pitch": 56,
                "velocity": 101,
                "duration": 0.08409090909091077,
                "tempo": 120.0
            },
            {
                "start_time": 29.35681818181818,
                "end_time": 29.440909090909088,
                "pitch": 60,
                "velocity": 101,
                "duration": 0.08409090909090722,
                "tempo": 120.0
            },
            {
                "start_time": 29.670454545454543,
                "end_time": 29.768181818181816,
                "pitch": 63,
                "velocity": 101,
                "duration": 0.09772727272727266,
                "tempo": 120.0
            },
            {
                "start_time": 29.884090909090908,
                "end_time": 30.08863636363636,
                "pitch": 73,
                "velocity": 101,
                "duration": 0.20454545454545325,
                "tempo": 120.0
            },
            {
                "start_time": 30.104545454545452,
                "end_time": 30.190909090909088,
                "pitch": 72,
                "velocity": 101,
                "duration": 0.08636363636363598,
                "tempo": 120.0
            },
            {
                "start_time": 30.206818181818182,
                "end_time": 30.311363636363634,
                "pitch": 70,
                "velocity": 101,
                "duration": 0.10454545454545183,
                "tempo": 120.0
            },
            {
                "start_time": 30.327272727272724,
                "end_time": 30.527272727272727,
                "pitch": 68,
                "velocity": 101,
                "duration": 0.20000000000000284,
                "tempo": 120.0
            },
            {
                "start_time": 30.545454545454543,
                "end_time": 30.629545454545454,
                "pitch": 70,
                "velocity": 101,
                "duration": 0.08409090909091077,
                "tempo": 120.0
            },
            {
                "start_time": 30.645454545454545,
                "end_time": 30.729545454545452,
                "pitch": 67,
                "velocity": 101,
                "duration": 0.08409090909090722,
                "tempo": 120.0
            },
            {
                "start_time": 30.745454545454542,
                "end_time": 30.84090909090909,
                "pitch": 68,
                "velocity": 101,
                "duration": 0.09545454545454746,
                "tempo": 120.0
            },
            {
                "start_time": 31.063636363636363,
                "end_time": 31.143181818181816,
                "pitch": 60,
                "velocity": 101,
                "duration": 0.07954545454545325,
                "tempo": 120.0
            },
            {
                "start_time": 31.38181818181818,
                "end_time": 31.468181818181815,
                "pitch": 63,
                "velocity": 101,
                "duration": 0.08636363636363598,
                "tempo": 120.0
            },
            {
                "start_time": 31.704545454545453,
                "end_time": 31.804545454545455,
                "pitch": 56,
                "velocity": 101,
                "duration": 0.10000000000000142,
                "tempo": 120.0
            },
            {
                "start_time": 32.78636363636363,
                "end_time": 32.86818181818182,
                "pitch": 60,
                "velocity": 101,
                "duration": 0.08181818181818556,
                "tempo": 120.0
            },
            {
                "start_time": 33.10227272727273,
                "end_time": 33.184090909090905,
                "pitch": 63,
                "velocity": 101,
                "duration": 0.08181818181817846,
                "tempo": 120.0
            },
            {
                "start_time": 33.31818181818181,
                "end_time": 33.52272727272727,
                "pitch": 73,
                "velocity": 101,
                "duration": 0.20454545454546036,
                "tempo": 120.0
            },
            {
                "start_time": 33.54090909090909,
                "end_time": 33.627272727272725,
                "pitch": 72,
                "velocity": 101,
                "duration": 0.08636363636363598,
                "tempo": 120.0
            },
            {
                "start_time": 33.643181818181816,
                "end_time": 33.72954545454545,
                "pitch": 70,
                "velocity": 101,
                "duration": 0.08636363636363598,
                "tempo": 120.0
            },
            {
                "start_time": 33.74545454545454,
                "end_time": 33.94318181818181,
                "pitch": 68,
                "velocity": 101,
                "duration": 0.19772727272727053,
                "tempo": 120.0
            },
            {
                "start_time": 33.95909090909091,
                "end_time": 34.05681818181818,
                "pitch": 70,
                "velocity": 101,
                "duration": 0.09772727272726911,
                "tempo": 120.0
            },
            {
                "start_time": 34.074999999999996,
                "end_time": 34.15681818181818,
                "pitch": 67,
                "velocity": 101,
                "duration": 0.08181818181818556,
                "tempo": 120.0
            },
            {
                "start_time": 34.17272727272727,
                "end_time": 34.27272727272727,
                "pitch": 68,
                "velocity": 101,
                "duration": 0.10000000000000142,
                "tempo": 120.0
            },
            {
                "start_time": 34.288636363636364,
                "end_time": 34.37272727272727,
                "pitch": 48,
                "velocity": 101,
                "duration": 0.08409090909090366,
                "tempo": 120.0
            },
            {
                "start_time": 34.39090909090909,
                "end_time": 34.47272727272727,
                "pitch": 48,
                "velocity": 101,
                "duration": 0.08181818181817846,
                "tempo": 120.0
            },
            {
                "start_time": 34.60681818181818,
                "end_time": 34.625,
                "pitch": 48,
                "velocity": 101,
                "duration": 0.018181818181822962,
                "tempo": 120.0
            }
        ],
        "Synth Bass 1": [
            {
                "start_time": 0.015909090909090907,
                "end_time": 0.07727272727272727,
                "pitch": 44,
                "velocity": 64,
                "duration": 0.06136363636363636,
                "tempo": 120.0
            },
            {
                "start_time": 0.09318181818181817,
                "end_time": 0.17045454545454544,
                "pitch": 44,
                "velocity": 64,
                "duration": 0.07727272727272727,
                "tempo": 120.0
            },
            {
                "start_time": 0.2954545454545454,
                "end_time": 0.3795454545454545,
                "pitch": 44,
                "velocity": 64,
                "duration": 0.0840909090909091,
                "tempo": 120.0
            },
            {
                "start_time": 0.39545454545454545,
                "end_time": 0.4954545454545454,
                "pitch": 44,
                "velocity": 64,
                "duration": 0.09999999999999998,
                "tempo": 120.0
            },
            {
                "start_time": 0.6136363636363636,
                "end_time": 0.6977272727272726,
                "pitch": 44,
                "velocity": 64,
                "duration": 0.084090909090909,
                "tempo": 120.0
            },
            {
                "start_time": 0.7136363636363636,
                "end_time": 0.8136363636363636,
                "pitch": 44,
                "velocity": 64,
                "duration": 0.09999999999999998,
                "tempo": 120.0
            },
            {
                "start_time": 0.9318181818181818,
                "end_time": 1.0318181818181817,
                "pitch": 44,
                "velocity": 64,
                "duration": 0.09999999999999998,
                "tempo": 120.0
            },
            {
                "start_time": 1.0477272727272726,
                "end_time": 1.1318181818181818,
                "pitch": 44,
                "velocity": 64,
                "duration": 0.08409090909090922,
                "tempo": 120.0
            },
            {
                "start_time": 1.1477272727272727,
                "end_time": 1.25,
                "pitch": 44,
                "velocity": 64,
                "duration": 0.10227272727272729,
                "tempo": 120.0
            },
            {
                "start_time": 1.3659090909090907,
                "end_time": 1.45,
                "pitch": 44,
                "velocity": 64,
                "duration": 0.08409090909090922,
                "tempo": 120.0
            },
            {
                "start_time": 1.584090909090909,
                "end_time": 1.6681818181818182,
                "pitch": 44,
                "velocity": 64,
                "duration": 0.08409090909090922,
                "tempo": 120.0
            },
            {
                "start_time": 1.684090909090909,
                "end_time": 1.784090909090909,
                "pitch": 44,
                "velocity": 64,
                "duration": 0.09999999999999987,
                "tempo": 120.0
            },
            {
                "start_time": 1.7999999999999998,
                "end_time": 1.884090909090909,
                "pitch": 44,
                "velocity": 64,
                "duration": 0.08409090909090922,
                "tempo": 120.0
            },
            {
                "start_time": 2.018181818181818,
                "end_time": 2.102272727272727,
                "pitch": 44,
                "velocity": 64,
                "duration": 0.084090909090909,
                "tempo": 120.0
            },
            {
                "start_time": 2.118181818181818,
                "end_time": 2.202272727272727,
                "pitch": 44,
                "velocity": 64,
                "duration": 0.084090909090909,
                "tempo": 120.0
            },
            {
                "start_time": 2.3363636363636364,
                "end_time": 2.4204545454545454,
                "pitch": 44,
                "velocity": 64,
                "duration": 0.084090909090909,
                "tempo": 120.0
            },
            {
                "start_time": 2.436363636363636,
                "end_time": 2.536363636363636,
                "pitch": 44,
                "velocity": 64,
                "duration": 0.10000000000000009,
                "tempo": 120.0
            },
            {
                "start_time": 2.6545454545454543,
                "end_time": 2.7545454545454544,
                "pitch": 44,
                "velocity": 64,
                "duration": 0.10000000000000009,
                "tempo": 120.0
            },
            {
                "start_time": 2.7727272727272725,
                "end_time": 2.8545454545454545,
                "pitch": 44,
                "velocity": 64,
                "duration": 0.08181818181818201,
                "tempo": 120.0
            },
            {
                "start_time": 2.8727272727272726,
                "end_time": 2.9568181818181816,
                "pitch": 44,
                "velocity": 64,
                "duration": 0.084090909090909,
                "tempo": 120.0
            },
            {
                "start_time": 3.0886363636363634,
                "end_time": 3.1727272727272724,
                "pitch": 44,
                "velocity": 64,
                "duration": 0.084090909090909,
                "tempo": 120.0
            },
            {
                "start_time": 3.3068181818181817,
                "end_time": 3.3886363636363637,
                "pitch": 44,
                "velocity": 64,
                "duration": 0.08181818181818201,
                "tempo": 120.0
            },
            {
                "start_time": 3.4045454545454543,
                "end_time": 3.5045454545454544,
                "pitch": 44,
                "velocity": 64,
                "duration": 0.10000000000000009,
                "tempo": 120.0
            },
            {
                "start_time": 3.5204545454545455,
                "end_time": 3.602272727272727,
                "pitch": 44,
                "velocity": 64,
                "duration": 0.08181818181818157,
                "tempo": 120.0
            },
            {
                "start_time": 3.715909090909091,
                "end_time": 3.8136363636363635,
                "pitch": 44,
                "velocity": 64,
                "duration": 0.09772727272727266,
                "tempo": 120.0
            },
            {
                "start_time": 3.8318181818181816,
                "end_time": 3.9136363636363636,
                "pitch": 44,
                "velocity": 64,
                "duration": 0.08181818181818201,
                "tempo": 120.0
            },
            {
                "start_time": 4.043181818181818,
                "end_time": 4.125,
                "pitch": 44,
                "velocity": 64,
                "duration": 0.08181818181818201,
                "tempo": 120.0
            },
            {
                "start_time": 4.143181818181818,
                "end_time": 4.245454545454545,
                "pitch": 44,
                "velocity": 64,
                "duration": 0.10227272727272751,
                "tempo": 120.0
            },
            {
                "start_time": 4.363636363636363,
                "end_time": 4.45,
                "pitch": 44,
                "velocity": 64,
                "duration": 0.08636363636363686,
                "tempo": 120.0
            },
            {
                "start_time": 4.468181818181818,
                "end_time": 4.570454545454545,
                "pitch": 44,
                "velocity": 64,
                "duration": 0.10227272727272751,
                "tempo": 120.0
            },
            {
                "start_time": 4.586363636363636,
                "end_time": 4.670454545454545,
                "pitch": 44,
                "velocity": 64,
                "duration": 0.084090909090909,
                "tempo": 120.0
            },
            {
                "start_time": 4.804545454545455,
                "end_time": 4.888636363636364,
                "pitch": 44,
                "velocity": 64,
                "duration": 0.084090909090909,
                "tempo": 120.0
            },
            {
                "start_time": 5.0227272727272725,
                "end_time": 5.1045454545454545,
                "pitch": 44,
                "velocity": 64,
                "duration": 0.08181818181818201,
                "tempo": 120.0
            },
            {
                "start_time": 5.122727272727272,
                "end_time": 5.206818181818181,
                "pitch": 44,
                "velocity": 64,
                "duration": 0.084090909090909,
                "tempo": 120.0
            },
            {
                "start_time": 5.222727272727273,
                "end_time": 5.322727272727272,
                "pitch": 44,
                "velocity": 64,
                "duration": 0.09999999999999964,
                "tempo": 120.0
            },
            {
                "start_time": 5.4409090909090905,
                "end_time": 5.538636363636363,
                "pitch": 44,
                "velocity": 64,
                "duration": 0.09772727272727266,
                "tempo": 120.0
            },
            {
                "start_time": 5.554545454545455,
                "end_time": 5.636363636363636,
                "pitch": 44,
                "velocity": 64,
                "duration": 0.08181818181818112,
                "tempo": 120.0
            },
            {
                "start_time": 5.768181818181818,
                "end_time": 5.85,
                "pitch": 44,
                "velocity": 64,
                "duration": 0.08181818181818201,
                "tempo": 120.0
            },
            {
                "start_time": 5.86590909090909,
                "end_time": 5.952272727272727,
                "pitch": 44,
                "velocity": 64,
                "duration": 0.08636363636363686,
                "tempo": 120.0
            },
            {
                "start_time": 6.088636363636363,
                "end_time": 6.172727272727273,
                "pitch": 44,
                "velocity": 64,
                "duration": 0.08409090909090988,
                "tempo": 120.0
            },
            {
                "start_time": 6.1909090909090905,
                "end_time": 6.293181818181818,
                "pitch": 44,
                "velocity": 64,
                "duration": 0.10227272727272751,
                "tempo": 120.0
            },
            {
                "start_time": 6.311363636363636,
                "end_time": 6.393181818181818,
                "pitch": 44,
                "velocity": 64,
                "duration": 0.08181818181818201,
                "tempo": 120.0
            },
            {
                "start_time": 6.527272727272727,
                "end_time": 6.611363636363636,
                "pitch": 44,
                "velocity": 64,
                "duration": 0.084090909090909,
                "tempo": 120.0
            },
            {
                "start_time": 6.7295454545454545,
                "end_time": 6.824999999999999,
                "pitch": 44,
                "velocity": 64,
                "duration": 0.09545454545454479,
                "tempo": 120.0
            },
            {
                "start_time": 6.840909090909091,
                "end_time": 6.920454545454545,
                "pitch": 44,
                "velocity": 64,
                "duration": 0.07954545454545414,
                "tempo": 120.0
            },
            {
                "start_time": 6.936363636363636,
                "end_time": 7.031818181818181,
                "pitch": 44,
                "velocity": 64,
                "duration": 0.09545454545454568,
                "tempo": 120.0
            },
            {
                "start_time": 7.143181818181818,
                "end_time": 7.243181818181818,
                "pitch": 44,
                "velocity": 64,
                "duration": 0.10000000000000053,
                "tempo": 120.0
            },
            {
                "start_time": 7.261363636363636,
                "end_time": 7.343181818181818,
                "pitch": 44,
                "velocity": 64,
                "duration": 0.08181818181818201,
                "tempo": 120.0
            },
            {
                "start_time": 7.461363636363636,
                "end_time": 7.561363636363636,
                "pitch": 44,
                "velocity": 64,
                "duration": 0.09999999999999964,
                "tempo": 120.0
            },
            {
                "start_time": 7.577272727272727,
                "end_time": 7.663636363636363,
                "pitch": 44,
                "velocity": 64,
                "duration": 0.08636363636363598,
                "tempo": 120.0
            },
            {
                "start_time": 7.8,
                "end_time": 7.886363636363636,
                "pitch": 44,
                "velocity": 64,
                "duration": 0.08636363636363598,
                "tempo": 120.0
            },
            {
                "start_time": 7.9022727272727264,
                "end_time": 8.006818181818181,
                "pitch": 44,
                "velocity": 64,
                "duration": 0.1045454545454545,
                "tempo": 120.0
            },
            {
                "start_time": 8.022727272727272,
                "end_time": 8.10681818181818,
                "pitch": 44,
                "velocity": 64,
                "duration": 0.084090909090909,
                "tempo": 120.0
            },
            {
                "start_time": 8.222727272727273,
                "end_time": 8.325,
                "pitch": 44,
                "velocity": 64,
                "duration": 0.10227272727272663,
                "tempo": 120.0
            },
            {
                "start_time": 8.440909090909091,
                "end_time": 8.538636363636364,
                "pitch": 44,
                "velocity": 64,
                "duration": 0.09772727272727266,
                "tempo": 120.0
            },
            {
                "start_time": 8.556818181818182,
                "end_time": 8.638636363636364,
                "pitch": 44,
                "velocity": 64,
                "duration": 0.08181818181818201,
                "tempo": 120.0
            },
            {
                "start_time": 8.654545454545454,
                "end_time": 8.752272727272727,
                "pitch": 44,
                "velocity": 64,
                "duration": 0.09772727272727266,
                "tempo": 120.0
            },
            {
                "start_time": 8.868181818181817,
                "end_time": 8.95,
                "pitch": 44,
                "velocity": 64,
                "duration": 0.08181818181818201,
                "tempo": 120.0
            },
            {
                "start_time": 8.968181818181817,
                "end_time": 9.068181818181818,
                "pitch": 44,
                "velocity": 64,
                "duration": 0.10000000000000142,
                "tempo": 120.0
            },
            {
                "start_time": 9.184090909090909,
                "end_time": 9.286363636363635,
                "pitch": 44,
                "velocity": 64,
                "duration": 0.10227272727272663,
                "tempo": 120.0
            },
            {
                "start_time": 9.302272727272728,
                "end_time": 9.388636363636364,
                "pitch": 44,
                "velocity": 64,
                "duration": 0.08636363636363598,
                "tempo": 120.0
            },
            {
                "start_time": 9.525,
                "end_time": 9.60909090909091,
                "pitch": 44,
                "velocity": 64,
                "duration": 0.084090909090909,
                "tempo": 120.0
            },
            {
                "start_time": 9.627272727272727,
                "end_time": 9.713636363636363,
                "pitch": 44,
                "velocity": 64,
                "duration": 0.08636363636363598,
                "tempo": 120.0
            },
            {
                "start_time": 9.729545454545454,
                "end_time": 9.827272727272726,
                "pitch": 44,
                "velocity": 64,
                "duration": 0.09772727272727266,
                "tempo": 120.0
            },
            {
                "start_time": 9.943181818181818,
                "end_time": 10.040909090909091,
                "pitch": 44,
                "velocity": 64,
                "duration": 0.09772727272727266,
                "tempo": 120.0
            },
            {
                "start_time": 10.156818181818181,
                "end_time": 10.256818181818181,
                "pitch": 44,
                "velocity": 64,
                "duration": 0.09999999999999964,
                "tempo": 120.0
            },
            {
                "start_time": 10.272727272727272,
                "end_time": 10.35681818181818,
                "pitch": 44,
                "velocity": 64,
                "duration": 0.084090909090909,
                "tempo": 120.0
            },
            {
                "start_time": 10.372727272727273,
                "end_time": 10.456818181818182,
                "pitch": 44,
                "velocity": 64,
                "duration": 0.084090909090909,
                "tempo": 120.0
            },
            {
                "start_time": 10.59090909090909,
                "end_time": 10.674999999999999,
                "pitch": 44,
                "velocity": 64,
                "duration": 0.084090909090909,
                "tempo": 120.0
            },
            {
                "start_time": 10.69090909090909,
                "end_time": 10.790909090909091,
                "pitch": 44,
                "velocity": 64,
                "duration": 0.10000000000000142,
                "tempo": 120.0
            },
            {
                "start_time": 10.909090909090908,
                "end_time": 11.009090909090908,
                "pitch": 44,
                "velocity": 64,
                "duration": 0.09999999999999964,
                "tempo": 120.0
            },
            {
                "start_time": 11.024999999999999,
                "end_time": 11.111363636363636,
                "pitch": 44,
                "velocity": 64,
                "duration": 0.08636363636363775,
                "tempo": 120.0
            },
            {
                "start_time": 11.23181818181818,
                "end_time": 11.334090909090909,
                "pitch": 44,
                "velocity": 64,
                "duration": 0.1022727272727284,
                "tempo": 120.0
            },
            {
                "start_time": 11.35,
                "end_time": 11.436363636363636,
                "pitch": 44,
                "velocity": 64,
                "duration": 0.08636363636363598,
                "tempo": 120.0
            },
            {
                "start_time": 11.454545454545453,
                "end_time": 11.552272727272726,
                "pitch": 44,
                "velocity": 64,
                "duration": 0.09772727272727266,
                "tempo": 120.0
            },
            {
                "start_time": 11.665909090909091,
                "end_time": 11.76590909090909,
                "pitch": 44,
                "velocity": 64,
                "duration": 0.09999999999999964,
                "tempo": 120.0
            },
            {
                "start_time": 11.879545454545454,
                "end_time": 11.961363636363636,
                "pitch": 44,
                "velocity": 64,
                "duration": 0.08181818181818201,
                "tempo": 120.0
            },
            {
                "start_time": 11.977272727272727,
                "end_time": 12.077272727272726,
                "pitch": 44,
                "velocity": 64,
                "duration": 0.09999999999999964,
                "tempo": 120.0
            },
            {
                "start_time": 12.093181818181817,
                "end_time": 12.174999999999999,
                "pitch": 44,
                "velocity": 64,
                "duration": 0.08181818181818201,
                "tempo": 120.0
            },
            {
                "start_time": 12.306818181818182,
                "end_time": 12.388636363636364,
                "pitch": 44,
                "velocity": 64,
                "duration": 0.08181818181818201,
                "tempo": 120.0
            },
            {
                "start_time": 12.406818181818181,
                "end_time": 12.506818181818181,
                "pitch": 44,
                "velocity": 64,
                "duration": 0.09999999999999964,
                "tempo": 120.0
            },
            {
                "start_time": 12.622727272727271,
                "end_time": 12.706818181818182,
                "pitch": 44,
                "velocity": 64,
                "duration": 0.08409090909091077,
                "tempo": 120.0
            },
            {
                "start_time": 12.725,
                "end_time": 12.825,
                "pitch": 44,
                "velocity": 64,
                "duration": 0.09999999999999964,
                "tempo": 120.0
            },
            {
                "start_time": 12.94090909090909,
                "end_time": 13.043181818181818,
                "pitch": 44,
                "velocity": 64,
                "duration": 0.1022727272727284,
                "tempo": 120.0
            },
            {
                "start_time": 13.059090909090909,
                "end_time": 13.143181818181818,
                "pitch": 44,
                "velocity": 64,
                "duration": 0.084090909090909,
                "tempo": 120.0
            },
            {
                "start_time": 13.159090909090908,
                "end_time": 13.259090909090908,
                "pitch": 44,
                "velocity": 64,
                "duration": 0.09999999999999964,
                "tempo": 120.0
            },
            {
                "start_time": 13.377272727272727,
                "end_time": 13.461363636363636,
                "pitch": 44,
                "velocity": 64,
                "duration": 0.084090909090909,
                "tempo": 120.0
            },
            {
                "start_time": 13.593181818181817,
                "end_time": 13.677272727272726,
                "pitch": 44,
                "velocity": 64,
                "duration": 0.084090909090909,
                "tempo": 120.0
            },
            {
                "start_time": 13.695454545454545,
                "end_time": 13.795454545454545,
                "pitch": 44,
                "velocity": 64,
                "duration": 0.09999999999999964,
                "tempo": 120.0
            },
            {
                "start_time": 13.811363636363636,
                "end_time": 13.895454545454545,
                "pitch": 44,
                "velocity": 64,
                "duration": 0.084090909090909,
                "tempo": 120.0
            },
            {
                "start_time": 14.029545454545454,
                "end_time": 14.113636363636363,
                "pitch": 44,
                "velocity": 64,
                "duration": 0.084090909090909,
                "tempo": 120.0
            },
            {
                "start_time": 14.129545454545454,
                "end_time": 14.213636363636363,
                "pitch": 44,
                "velocity": 64,
                "duration": 0.084090909090909,
                "tempo": 120.0
            },
            {
                "start_time": 14.347727272727273,
                "end_time": 14.431818181818182,
                "pitch": 44,
                "velocity": 64,
                "duration": 0.084090909090909,
                "tempo": 120.0
            },
            {
                "start_time": 14.447727272727272,
                "end_time": 14.545454545454545,
                "pitch": 44,
                "velocity": 64,
                "duration": 0.09772727272727266,
                "tempo": 120.0
            },
            {
                "start_time": 14.661363636363635,
                "end_time": 14.759090909090908,
                "pitch": 44,
                "velocity": 64,
                "duration": 0.09772727272727266,
                "tempo": 120.0
            },
            {
                "start_time": 14.774999999999999,
                "end_time": 14.85681818181818,
                "pitch": 44,
                "velocity": 64,
                "duration": 0.08181818181818201,
                "tempo": 120.0
            },
            {
                "start_time": 14.872727272727271,
                "end_time": 14.959090909090909,
                "pitch": 44,
                "velocity": 64,
                "duration": 0.08636363636363775,
                "tempo": 120.0
            },
            {
                "start_time": 15.095454545454544,
                "end_time": 15.181818181818182,
                "pitch": 44,
                "velocity": 64,
                "duration": 0.08636363636363775,
                "tempo": 120.0
            },
            {
                "start_time": 15.318181818181817,
                "end_time": 15.399999999999999,
                "pitch": 44,
                "velocity": 64,
                "duration": 0.08181818181818201,
                "tempo": 120.0
            },
            {
                "start_time": 15.415909090909091,
                "end_time": 15.513636363636364,
                "pitch": 44,
                "velocity": 64,
                "duration": 0.09772727272727266,
                "tempo": 120.0
            },
            {
                "start_time": 15.529545454545454,
                "end_time": 15.613636363636363,
                "pitch": 44,
                "velocity": 64,
                "duration": 0.084090909090909,
                "tempo": 120.0
            },
            {
                "start_time": 15.727272727272727,
                "end_time": 15.827272727272726,
                "pitch": 44,
                "velocity": 64,
                "duration": 0.09999999999999964,
                "tempo": 120.0
            },
            {
                "start_time": 15.843181818181817,
                "end_time": 15.927272727272726,
                "pitch": 44,
                "velocity": 64,
                "duration": 0.084090909090909,
                "tempo": 120.0
            },
            {
                "start_time": 16.061363636363634,
                "end_time": 16.145454545454545,
                "pitch": 44,
                "velocity": 64,
                "duration": 0.08409090909091077,
                "tempo": 120.0
            },
            {
                "start_time": 16.161363636363635,
                "end_time": 16.261363636363637,
                "pitch": 44,
                "velocity": 64,
                "duration": 0.10000000000000142,
                "tempo": 120.0
            },
            {
                "start_time": 16.379545454545454,
                "end_time": 16.46363636363636,
                "pitch": 44,
                "velocity": 64,
                "duration": 0.08409090909090722,
                "tempo": 120.0
            },
            {
                "start_time": 16.479545454545455,
                "end_time": 16.579545454545453,
                "pitch": 44,
                "velocity": 64,
                "duration": 0.09999999999999787,
                "tempo": 120.0
            },
            {
                "start_time": 16.597727272727273,
                "end_time": 16.68181818181818,
                "pitch": 44,
                "velocity": 64,
                "duration": 0.08409090909090722,
                "tempo": 120.0
            },
            {
                "start_time": 16.818181818181817,
                "end_time": 16.904545454545453,
                "pitch": 44,
                "velocity": 64,
                "duration": 0.08636363636363598,
                "tempo": 120.0
            },
            {
                "start_time": 17.04090909090909,
                "end_time": 17.12272727272727,
                "pitch": 44,
                "velocity": 64,
                "duration": 0.08181818181818201,
                "tempo": 120.0
            },
            {
                "start_time": 17.138636363636362,
                "end_time": 17.222727272727273,
                "pitch": 44,
                "velocity": 64,
                "duration": 0.08409090909091077,
                "tempo": 120.0
            },
            {
                "start_time": 17.238636363636363,
                "end_time": 17.336363636363636,
                "pitch": 44,
                "velocity": 64,
                "duration": 0.09772727272727266,
                "tempo": 120.0
            },
            {
                "start_time": 17.45,
                "end_time": 17.55,
                "pitch": 44,
                "velocity": 64,
                "duration": 0.10000000000000142,
                "tempo": 120.0
            },
            {
                "start_time": 17.56590909090909,
                "end_time": 17.647727272727273,
                "pitch": 44,
                "velocity": 64,
                "duration": 0.08181818181818201,
                "tempo": 120.0
            },
            {
                "start_time": 17.779545454545453,
                "end_time": 17.861363636363635,
                "pitch": 44,
                "velocity": 64,
                "duration": 0.08181818181818201,
                "tempo": 120.0
            },
            {
                "start_time": 17.877272727272725,
                "end_time": 17.961363636363636,
                "pitch": 44,
                "velocity": 64,
                "duration": 0.08409090909091077,
                "tempo": 120.0
            },
            {
                "start_time": 18.099999999999998,
                "end_time": 18.18409090909091,
                "pitch": 44,
                "velocity": 64,
                "duration": 0.08409090909091077,
                "tempo": 120.0
            },
            {
                "start_time": 18.202272727272728,
                "end_time": 18.304545454545455,
                "pitch": 44,
                "velocity": 64,
                "duration": 0.10227272727272663,
                "tempo": 120.0
            },
            {
                "start_time": 18.320454545454545,
                "end_time": 18.404545454545453,
                "pitch": 44,
                "velocity": 64,
                "duration": 0.08409090909090722,
                "tempo": 120.0
            },
            {
                "start_time": 18.538636363636364,
                "end_time": 18.62272727272727,
                "pitch": 44,
                "velocity": 64,
                "duration": 0.08409090909090722,
                "tempo": 120.0
            },
            {
                "start_time": 18.738636363636363,
                "end_time": 18.834090909090907,
                "pitch": 44,
                "velocity": 64,
                "duration": 0.0954545454545439,
                "tempo": 120.0
            },
            {
                "start_time": 18.849999999999998,
                "end_time": 18.929545454545455,
                "pitch": 44,
                "velocity": 64,
                "duration": 0.0795454545454568,
                "tempo": 120.0
            },
            {
                "start_time": 18.945454545454545,
                "end_time": 19.043181818181818,
                "pitch": 44,
                "velocity": 64,
                "duration": 0.09772727272727266,
                "tempo": 120.0
            },
            {
                "start_time": 19.154545454545453,
                "end_time": 19.254545454545454,
                "pitch": 44,
                "velocity": 64,
                "duration": 0.10000000000000142,
                "tempo": 120.0
            },
            {
                "start_time": 19.270454545454545,
                "end_time": 19.354545454545452,
                "pitch": 44,
                "velocity": 64,
                "duration": 0.08409090909090722,
                "tempo": 120.0
            },
            {
                "start_time": 19.472727272727273,
                "end_time": 19.57272727272727,
                "pitch": 44,
                "velocity": 64,
                "duration": 0.09999999999999787,
                "tempo": 120.0
            },
            {
                "start_time": 19.58863636363636,
                "end_time": 19.675,
                "pitch": 44,
                "velocity": 64,
                "duration": 0.08636363636363953,
                "tempo": 120.0
            },
            {
                "start_time": 19.811363636363634,
                "end_time": 19.897727272727273,
                "pitch": 44,
                "velocity": 64,
                "duration": 0.08636363636363953,
                "tempo": 120.0
            },
            {
                "start_time": 19.913636363636364,
                "end_time": 20.01590909090909,
                "pitch": 44,
                "velocity": 64,
                "duration": 0.10227272727272663,
                "tempo": 120.0
            },
            {
                "start_time": 20.034090909090907,
                "end_time": 20.118181818181817,
                "pitch": 44,
                "velocity": 64,
                "duration": 0.08409090909091077,
                "tempo": 120.0
            },
            {
                "start_time": 20.238636363636363,
                "end_time": 20.34090909090909,
                "pitch": 44,
                "velocity": 64,
                "duration": 0.10227272727272663,
                "tempo": 120.0
            },
            {
                "start_time": 20.461363636363636,
                "end_time": 20.55681818181818,
                "pitch": 44,
                "velocity": 64,
                "duration": 0.0954545454545439,
                "tempo": 120.0
            },
            {
                "start_time": 20.57272727272727,
                "end_time": 20.652272727272727,
                "pitch": 50,
                "velocity": 64,
                "duration": 0.0795454545454568,
                "tempo": 120.0
            },
            {
                "start_time": 20.668181818181818,
                "end_time": 20.763636363636362,
                "pitch": 50,
                "velocity": 64,
                "duration": 0.0954545454545439,
                "tempo": 120.0
            },
            {
                "start_time": 20.875,
                "end_time": 20.959090909090907,
                "pitch": 50,
                "velocity": 64,
                "duration": 0.08409090909090722,
                "tempo": 120.0
            },
            {
                "start_time": 20.974999999999998,
                "end_time": 21.077272727272724,
                "pitch": 50,
                "velocity": 64,
                "duration": 0.10227272727272663,
                "tempo": 120.0
            },
            {
                "start_time": 21.193181818181817,
                "end_time": 21.293181818181818,
                "pitch": 50,
                "velocity": 64,
                "duration": 0.10000000000000142,
                "tempo": 120.0
            },
            {
                "start_time": 21.311363636363634,
                "end_time": 21.395454545454545,
                "pitch": 50,
                "velocity": 64,
                "duration": 0.08409090909091077,
                "tempo": 120.0
            },
            {
                "start_time": 21.534090909090907,
                "end_time": 21.618181818181817,
                "pitch": 50,
                "velocity": 64,
                "duration": 0.08409090909091077,
                "tempo": 120.0
            },
            {
                "start_time": 21.636363636363637,
                "end_time": 21.720454545454544,
                "pitch": 50,
                "velocity": 64,
                "duration": 0.08409090909090722,
                "tempo": 120.0
            },
            {
                "start_time": 21.738636363636363,
                "end_time": 21.836363636363636,
                "pitch": 50,
                "velocity": 64,
                "duration": 0.09772727272727266,
                "tempo": 120.0
            },
            {
                "start_time": 21.952272727272724,
                "end_time": 22.049999999999997,
                "pitch": 50,
                "velocity": 64,
                "duration": 0.09772727272727266,
                "tempo": 120.0
            },
            {
                "start_time": 22.163636363636364,
                "end_time": 22.263636363636362,
                "pitch": 50,
                "velocity": 64,
                "duration": 0.09999999999999787,
                "tempo": 120.0
            },
            {
                "start_time": 22.279545454545453,
                "end_time": 22.361363636363635,
                "pitch": 50,
                "velocity": 64,
                "duration": 0.08181818181818201,
                "tempo": 120.0
            },
            {
                "start_time": 22.377272727272725,
                "end_time": 22.459090909090907,
                "pitch": 50,
                "velocity": 64,
                "duration": 0.08181818181818201,
                "tempo": 120.0
            },
            {
                "start_time": 22.59090909090909,
                "end_time": 22.674999999999997,
                "pitch": 50,
                "velocity": 64,
                "duration": 0.08409090909090722,
                "tempo": 120.0
            },
            {
                "start_time": 22.693181818181817,
                "end_time": 22.795454545454543,
                "pitch": 50,
                "velocity": 64,
                "duration": 0.10227272727272663,
                "tempo": 120.0
            },
            {
                "start_time": 22.91590909090909,
                "end_time": 23.018181818181816,
                "pitch": 50,
                "velocity": 64,
                "duration": 0.10227272727272663,
                "tempo": 120.0
            },
            {
                "start_time": 23.034090909090907,
                "end_time": 23.120454545454546,
                "pitch": 50,
                "velocity": 64,
                "duration": 0.08636363636363953,
                "tempo": 120.0
            },
            {
                "start_time": 23.24090909090909,
                "end_time": 23.34318181818182,
                "pitch": 50,
                "velocity": 64,
                "duration": 0.10227272727273018,
                "tempo": 120.0
            },
            {
                "start_time": 23.35909090909091,
                "end_time": 23.445454545454545,
                "pitch": 50,
                "velocity": 64,
                "duration": 0.08636363636363598,
                "tempo": 120.0
            },
            {
                "start_time": 23.46363636363636,
                "end_time": 23.55909090909091,
                "pitch": 50,
                "velocity": 64,
                "duration": 0.09545454545454746,
                "tempo": 120.0
            },
            {
                "start_time": 23.670454545454543,
                "end_time": 23.76590909090909,
                "pitch": 50,
                "velocity": 64,
                "duration": 0.09545454545454746,
                "tempo": 120.0
            },
            {
                "start_time": 23.877272727272725,
                "end_time": 23.961363636363636,
                "pitch": 50,
                "velocity": 64,
                "duration": 0.08409090909091077,
                "tempo": 120.0
            },
            {
                "start_time": 23.977272727272727,
                "end_time": 24.077272727272724,
                "pitch": 50,
                "velocity": 64,
                "duration": 0.09999999999999787,
                "tempo": 120.0
            },
            {
                "start_time": 24.095454545454544,
                "end_time": 24.177272727272726,
                "pitch": 50,
                "velocity": 64,
                "duration": 0.08181818181818201,
                "tempo": 120.0
            },
            {
                "start_time": 24.311363636363634,
                "end_time": 24.395454545454545,
                "pitch": 50,
                "velocity": 64,
                "duration": 0.08409090909091077,
                "tempo": 120.0
            },
            {
                "start_time": 24.411363636363635,
                "end_time": 24.513636363636362,
                "pitch": 50,
                "velocity": 64,
                "duration": 0.10227272727272663,
                "tempo": 120.0
            },
            {
                "start_time": 24.629545454545454,
                "end_time": 24.71363636363636,
                "pitch": 50,
                "velocity": 64,
                "duration": 0.08409090909090722,
                "tempo": 120.0
            },
            {
                "start_time": 24.729545454545452,
                "end_time": 24.831818181818182,
                "pitch": 50,
                "velocity": 64,
                "duration": 0.10227272727273018,
                "tempo": 120.0
            },
            {
                "start_time": 24.94772727272727,
                "end_time": 25.047727272727272,
                "pitch": 50,
                "velocity": 64,
                "duration": 0.10000000000000142,
                "tempo": 120.0
            },
            {
                "start_time": 25.06590909090909,
                "end_time": 25.14772727272727,
                "pitch": 50,
                "velocity": 64,
                "duration": 0.08181818181817846,
                "tempo": 120.0
            },
            {
                "start_time": 25.16590909090909,
                "end_time": 25.26590909090909,
                "pitch": 50,
                "velocity": 64,
                "duration": 0.10000000000000142,
                "tempo": 120.0
            },
            {
                "start_time": 25.38181818181818,
                "end_time": 25.46590909090909,
                "pitch": 50,
                "velocity": 64,
                "duration": 0.08409090909091077,
                "tempo": 120.0
            },
            {
                "start_time": 25.599999999999998,
                "end_time": 25.68409090909091,
                "pitch": 50,
                "velocity": 64,
                "duration": 0.08409090909091077,
                "tempo": 120.0
            },
            {
                "start_time": 25.7,
                "end_time": 25.802272727272726,
                "pitch": 50,
                "velocity": 64,
                "duration": 0.10227272727272663,
                "tempo": 120.0
            },
            {
                "start_time": 25.818181818181817,
                "end_time": 25.902272727272727,
                "pitch": 50,
                "velocity": 64,
                "duration": 0.08409090909091077,
                "tempo": 120.0
            },
            {
                "start_time": 26.036363636363635,
                "end_time": 26.118181818181817,
                "pitch": 50,
                "velocity": 64,
                "duration": 0.08181818181818201,
                "tempo": 120.0
            },
            {
                "start_time": 26.136363636363637,
                "end_time": 26.220454545454544,
                "pitch": 50,
                "velocity": 64,
                "duration": 0.08409090909090722,
                "tempo": 120.0
            },
            {
                "start_time": 26.354545454545452,
                "end_time": 26.436363636363634,
                "pitch": 50,
                "velocity": 64,
                "duration": 0.08181818181818201,
                "tempo": 120.0
            },
            {
                "start_time": 26.454545454545453,
                "end_time": 26.554545454545455,
                "pitch": 50,
                "velocity": 64,
                "duration": 0.10000000000000142,
                "tempo": 120.0
            },
            {
                "start_time": 26.670454545454543,
                "end_time": 26.77272727272727,
                "pitch": 50,
                "velocity": 64,
                "duration": 0.10227272727272663,
                "tempo": 120.0
            },
            {
                "start_time": 26.788636363636364,
                "end_time": 26.87272727272727,
                "pitch": 50,
                "velocity": 64,
                "duration": 0.08409090909090722,
                "tempo": 120.0
            },
            {
                "start_time": 26.888636363636362,
                "end_time": 26.972727272727273,
                "pitch": 50,
                "velocity": 64,
                "duration": 0.08409090909091077,
                "tempo": 120.0
            },
            {
                "start_time": 27.10681818181818,
                "end_time": 27.19090909090909,
                "pitch": 50,
                "velocity": 64,
                "duration": 0.08409090909091077,
                "tempo": 120.0
            },
            {
                "start_time": 27.32272727272727,
                "end_time": 27.40681818181818,
                "pitch": 50,
                "velocity": 64,
                "duration": 0.08409090909091077,
                "tempo": 120.0
            },
            {
                "start_time": 27.422727272727272,
                "end_time": 27.520454545454545,
                "pitch": 44,
                "velocity": 64,
                "duration": 0.09772727272727266,
                "tempo": 120.0
            },
            {
                "start_time": 27.536363636363635,
                "end_time": 27.618181818181817,
                "pitch": 44,
                "velocity": 64,
                "duration": 0.08181818181818201,
                "tempo": 120.0
            },
            {
                "start_time": 27.73409090909091,
                "end_time": 27.831818181818182,
                "pitch": 44,
                "velocity": 64,
                "duration": 0.09772727272727266,
                "tempo": 120.0
            },
            {
                "start_time": 27.847727272727273,
                "end_time": 27.929545454545455,
                "pitch": 44,
                "velocity": 64,
                "duration": 0.08181818181818201,
                "tempo": 120.0
            },
            {
                "start_time": 28.061363636363634,
                "end_time": 28.143181818181816,
                "pitch": 44,
                "velocity": 64,
                "duration": 0.08181818181818201,
                "tempo": 120.0
            },
            {
                "start_time": 28.159090909090907,
                "end_time": 28.261363636363637,
                "pitch": 44,
                "velocity": 64,
                "duration": 0.10227272727273018,
                "tempo": 120.0
            },
            {
                "start_time": 28.38181818181818,
                "end_time": 28.46590909090909,
                "pitch": 44,
                "velocity": 64,
                "duration": 0.08409090909091077,
                "tempo": 120.0
            },
            {
                "start_time": 28.48409090909091,
                "end_time": 28.586363636363636,
                "pitch": 44,
                "velocity": 64,
                "duration": 0.10227272727272663,
                "tempo": 120.0
            },
            {
                "start_time": 28.604545454545452,
                "end_time": 28.686363636363634,
                "pitch": 44,
                "velocity": 64,
                "duration": 0.08181818181818201,
                "tempo": 120.0
            },
            {
                "start_time": 28.820454545454545,
                "end_time": 28.904545454545453,
                "pitch": 44,
                "velocity": 64,
                "duration": 0.08409090909090722,
                "tempo": 120.0
            },
            {
                "start_time": 29.03863636363636,
                "end_time": 29.12272727272727,
                "pitch": 44,
                "velocity": 64,
                "duration": 0.08409090909091077,
                "tempo": 120.0
            },
            {
                "start_time": 29.138636363636362,
                "end_time": 29.222727272727273,
                "pitch": 44,
                "velocity": 64,
                "duration": 0.08409090909091077,
                "tempo": 120.0
            },
            {
                "start_time": 29.238636363636363,
                "end_time": 29.34090909090909,
                "pitch": 44,
                "velocity": 64,
                "duration": 0.10227272727272663,
                "tempo": 120.0
            },
            {
                "start_time": 29.456818181818182,
                "end_time": 29.554545454545455,
                "pitch": 44,
                "velocity": 64,
                "duration": 0.09772727272727266,
                "tempo": 120.0
            },
            {
                "start_time": 29.57272727272727,
                "end_time": 29.654545454545453,
                "pitch": 44,
                "velocity": 64,
                "duration": 0.08181818181818201,
                "tempo": 120.0
            },
            {
                "start_time": 29.784090909090907,
                "end_time": 29.86590909090909,
                "pitch": 44,
                "velocity": 64,
                "duration": 0.08181818181818201,
                "tempo": 120.0
            },
            {
                "start_time": 29.884090909090908,
                "end_time": 29.968181818181815,
                "pitch": 44,
                "velocity": 64,
                "duration": 0.08409090909090722,
                "tempo": 120.0
            },
            {
                "start_time": 30.104545454545452,
                "end_time": 30.190909090909088,
                "pitch": 44,
                "velocity": 64,
                "duration": 0.08636363636363598,
                "tempo": 120.0
            },
            {
                "start_time": 30.206818181818182,
                "end_time": 30.311363636363634,
                "pitch": 44,
                "velocity": 64,
                "duration": 0.10454545454545183,
                "tempo": 120.0
            },
            {
                "start_time": 30.327272727272724,
                "end_time": 30.411363636363635,
                "pitch": 44,
                "velocity": 64,
                "duration": 0.08409090909091077,
                "tempo": 120.0
            },
            {
                "start_time": 30.545454545454543,
                "end_time": 30.629545454545454,
                "pitch": 44,
                "velocity": 64,
                "duration": 0.08409090909091077,
                "tempo": 120.0
            },
            {
                "start_time": 30.745454545454542,
                "end_time": 30.84090909090909,
                "pitch": 44,
                "velocity": 64,
                "duration": 0.09545454545454746,
                "tempo": 120.0
            },
            {
                "start_time": 30.85681818181818,
                "end_time": 30.936363636363634,
                "pitch": 44,
                "velocity": 64,
                "duration": 0.07954545454545325,
                "tempo": 120.0
            },
            {
                "start_time": 30.952272727272724,
                "end_time": 31.047727272727272,
                "pitch": 44,
                "velocity": 64,
                "duration": 0.09545454545454746,
                "tempo": 120.0
            },
            {
                "start_time": 31.159090909090907,
                "end_time": 31.261363636363633,
                "pitch": 44,
                "velocity": 64,
                "duration": 0.10227272727272663,
                "tempo": 120.0
            },
            {
                "start_time": 31.279545454545453,
                "end_time": 31.36590909090909,
                "pitch": 44,
                "velocity": 64,
                "duration": 0.08636363636363598,
                "tempo": 120.0
            },
            {
                "start_time": 31.484090909090906,
                "end_time": 31.586363636363636,
                "pitch": 44,
                "velocity": 64,
                "duration": 0.10227272727273018,
                "tempo": 120.0
            },
            {
                "start_time": 31.604545454545452,
                "end_time": 31.688636363636363,
                "pitch": 44,
                "velocity": 64,
                "duration": 0.08409090909091077,
                "tempo": 120.0
            },
            {
                "start_time": 31.82272727272727,
                "end_time": 31.904545454545453,
                "pitch": 44,
                "velocity": 64,
                "duration": 0.08181818181818201,
                "tempo": 120.0
            },
            {
                "start_time": 31.922727272727272,
                "end_time": 32.02272727272727,
                "pitch": 44,
                "velocity": 64,
                "duration": 0.10000000000000142,
                "tempo": 120.0
            },
            {
                "start_time": 32.038636363636364,
                "end_time": 32.12272727272727,
                "pitch": 44,
                "velocity": 64,
                "duration": 0.08409090909090366,
                "tempo": 120.0
            },
            {
                "start_time": 32.24090909090909,
                "end_time": 32.340909090909086,
                "pitch": 44,
                "velocity": 64,
                "duration": 0.09999999999999432,
                "tempo": 120.0
            },
            {
                "start_time": 32.45681818181818,
                "end_time": 32.55681818181818,
                "pitch": 44,
                "velocity": 64,
                "duration": 0.10000000000000142,
                "tempo": 120.0
            },
            {
                "start_time": 32.57272727272727,
                "end_time": 32.654545454545456,
                "pitch": 44,
                "velocity": 64,
                "duration": 0.08181818181818556,
                "tempo": 120.0
            },
            {
                "start_time": 32.67045454545455,
                "end_time": 32.768181818181816,
                "pitch": 44,
                "velocity": 64,
                "duration": 0.09772727272726911,
                "tempo": 120.0
            },
            {
                "start_time": 32.88409090909091,
                "end_time": 32.96818181818182,
                "pitch": 44,
                "velocity": 64,
                "duration": 0.08409090909091077,
                "tempo": 120.0
            },
            {
                "start_time": 32.98409090909091,
                "end_time": 33.08409090909091,
                "pitch": 44,
                "velocity": 64,
                "duration": 0.10000000000000142,
                "tempo": 120.0
            },
            {
                "start_time": 33.20227272727273,
                "end_time": 33.30227272727272,
                "pitch": 44,
                "velocity": 64,
                "duration": 0.09999999999999432,
                "tempo": 120.0
            },
            {
                "start_time": 33.31818181818181,
                "end_time": 33.404545454545456,
                "pitch": 44,
                "velocity": 64,
                "duration": 0.08636363636364308,
                "tempo": 120.0
            },
            {
                "start_time": 33.54090909090909,
                "end_time": 33.627272727272725,
                "pitch": 44,
                "velocity": 64,
                "duration": 0.08636363636363598,
                "tempo": 120.0
            },
            {
                "start_time": 33.643181818181816,
                "end_time": 33.72954545454545,
                "pitch": 44,
                "velocity": 64,
                "duration": 0.08636363636363598,
                "tempo": 120.0
            },
            {
                "start_time": 33.74545454545454,
                "end_time": 33.845454545454544,
                "pitch": 44,
                "velocity": 64,
                "duration": 0.10000000000000142,
                "tempo": 120.0
            },
            {
                "start_time": 33.95909090909091,
                "end_time": 34.05681818181818,
                "pitch": 44,
                "velocity": 64,
                "duration": 0.09772727272726911,
                "tempo": 120.0
            },
            {
                "start_time": 34.17272727272727,
                "end_time": 34.27272727272727,
                "pitch": 44,
                "velocity": 64,
                "duration": 0.10000000000000142,
                "tempo": 120.0
            },
            {
                "start_time": 34.288636363636364,
                "end_time": 34.37272727272727,
                "pitch": 44,
                "velocity": 64,
                "duration": 0.08409090909090366,
                "tempo": 120.0
            },
            {
                "start_time": 34.39090909090909,
                "end_time": 34.47272727272727,
                "pitch": 44,
                "velocity": 64,
                "duration": 0.08181818181817846,
                "tempo": 120.0
            },
            {
                "start_time": 34.60681818181818,
                "end_time": 34.625,
                "pitch": 44,
                "velocity": 64,
                "duration": 0.018181818181822962,
                "tempo": 120.0
            }
        ]
    }
}