{
    "track_id": "Fantasy Zone II (FM) - 10 - Boss Defeated",
    "mood": "sad",
    "instruments": {
        "Acoustic Grand Piano": [
            {
                "start_time": 0.15,
                "end_time": 0.23409090909090907,
                "pitch": 60,
                "velocity": 25,
                "duration": 0.08409090909090908,
                "tempo": 120.0
            },
            {
                "start_time": 0.2681818181818182,
                "end_time": 0.3659090909090909,
                "pitch": 55,
                "velocity": 25,
                "duration": 0.09772727272727272,
                "tempo": 120.0
            },
            {
                "start_time": 0.39999999999999997,
                "end_time": 0.4977272727272727,
                "pitch": 57,
                "velocity": 25,
                "duration": 0.09772727272727272,
                "tempo": 120.0
            },
            {
                "start_time": 0.5318181818181817,
                "end_time": 0.7636363636363636,
                "pitch": 60,
                "velocity": 25,
                "duration": 0.2318181818181818,
                "tempo": 120.0
            },
            {
                "start_time": 0.7977272727272727,
                "end_time": 0.8954545454545454,
                "pitch": 55,
                "velocity": 25,
                "duration": 0.09772727272727266,
                "tempo": 120.0
            },
            {
                "start_time": 0.9295454545454545,
                "end_time": 1.1613636363636364,
                "pitch": 55,
                "velocity": 25,
                "duration": 0.23181818181818192,
                "tempo": 120.0
            },
            {
                "start_time": 1.1931818181818181,
                "end_time": 1.2931818181818182,
                "pitch": 62,
                "velocity": 25,
                "duration": 0.10000000000000009,
                "tempo": 120.0
            },
            {
                "start_time": 1.325,
                "end_time": 1.4249999999999998,
                "pitch": 60,
                "velocity": 25,
                "duration": 0.09999999999999987,
                "tempo": 120.0
            },
            {
                "start_time": 1.459090909090909,
                "end_time": 1.5568181818181817,
                "pitch": 69,
                "velocity": 25,
                "duration": 0.09772727272727266,
                "tempo": 120.0
            },
            {
                "start_time": 1.5909090909090908,
                "end_time": 1.8227272727272725,
                "pitch": 62,
                "velocity": 25,
                "duration": 0.2318181818181817,
                "tempo": 120.0
            },
            {
                "start_time": 1.8568181818181817,
                "end_time": 1.9568181818181818,
                "pitch": 60,
                "velocity": 25,
                "duration": 0.10000000000000009,
                "tempo": 120.0
            },
            {
                "start_time": 1.9909090909090907,
                "end_time": 2.227272727272727,
                "pitch": 57,
                "velocity": 25,
                "duration": 0.23636363636363633,
                "tempo": 120.0
            },
            {
                "start_time": 2.2613636363636362,
                "end_time": 2.3613636363636363,
                "pitch": 63,
                "velocity": 25,
                "duration": 0.10000000000000009,
                "tempo": 120.0
            },
            {
                "start_time": 2.393181818181818,
                "end_time": 2.493181818181818,
                "pitch": 63,
                "velocity": 25,
                "duration": 0.10000000000000009,
                "tempo": 120.0
            },
            {
                "start_time": 2.5272727272727273,
                "end_time": 2.759090909090909,
                "pitch": 63,
                "velocity": 25,
                "duration": 0.23181818181818148,
                "tempo": 120.0
            },
            {
                "start_time": 2.7909090909090906,
                "end_time": 3.036363636363636,
                "pitch": 62,
                "velocity": 25,
                "duration": 0.2454545454545456,
                "tempo": 120.0
            },
            {
                "start_time": 3.077272727272727,
                "end_time": 3.202272727272727,
                "pitch": 62,
                "velocity": 25,
                "duration": 0.125,
                "tempo": 120.0
            },
            {
                "start_time": 3.243181818181818,
                "end_time": 4.027272727272727,
                "pitch": 60,
                "velocity": 25,
                "duration": 0.7840909090909092,
                "tempo": 120.0
            }
        ],
        "Acoustic Bass": [
            {
                "start_time": 0.09999999999999999,
                "end_time": 0.175,
                "pitch": 36,
                "velocity": 64,
                "duration": 0.075,
                "tempo": 120.0
            },
            {
                "start_time": 0.19999999999999998,
                "end_time": 0.3,
                "pitch": 40,
                "velocity": 64,
                "duration": 0.1,
                "tempo": 120.0
            },
            {
                "start_time": 0.33409090909090905,
                "end_time": 0.4318181818181818,
                "pitch": 43,
                "velocity": 64,
                "duration": 0.09772727272727277,
                "tempo": 120.0
            },
            {
                "start_time": 0.4659090909090909,
                "end_time": 0.5659090909090909,
                "pitch": 36,
                "velocity": 64,
                "duration": 0.10000000000000003,
                "tempo": 120.0
            },
            {
                "start_time": 0.5977272727272727,
                "end_time": 0.6977272727272726,
                "pitch": 36,
                "velocity": 64,
                "duration": 0.09999999999999998,
                "tempo": 120.0
            },
            {
                "start_time": 0.7295454545454545,
                "end_time": 0.8295454545454545,
                "pitch": 40,
                "velocity": 64,
                "duration": 0.09999999999999998,
                "tempo": 120.0
            },
            {
                "start_time": 0.8636363636363636,
                "end_time": 0.9613636363636363,
                "pitch": 43,
                "velocity": 64,
                "duration": 0.09772727272727266,
                "tempo": 120.0
            },
            {
                "start_time": 0.9954545454545454,
                "end_time": 1.0954545454545455,
                "pitch": 38,
                "velocity": 64,
                "duration": 0.10000000000000009,
                "tempo": 120.0
            },
            {
                "start_time": 1.1272727272727272,
                "end_time": 1.2272727272727273,
                "pitch": 38,
                "velocity": 64,
                "duration": 0.10000000000000009,
                "tempo": 120.0
            },
            {
                "start_time": 1.259090909090909,
                "end_time": 1.3590909090909091,
                "pitch": 42,
                "velocity": 64,
                "duration": 0.10000000000000009,
                "tempo": 120.0
            },
            {
                "start_time": 1.393181818181818,
                "end_time": 1.4909090909090907,
                "pitch": 45,
                "velocity": 64,
                "duration": 0.09772727272727266,
                "tempo": 120.0
            },
            {
                "start_time": 1.525,
                "end_time": 1.6227272727272726,
                "pitch": 38,
                "velocity": 64,
                "duration": 0.09772727272727266,
                "tempo": 120.0
            },
            {
                "start_time": 1.6568181818181817,
                "end_time": 1.7568181818181818,
                "pitch": 38,
                "velocity": 64,
                "duration": 0.10000000000000009,
                "tempo": 120.0
            },
            {
                "start_time": 1.7886363636363636,
                "end_time": 1.8909090909090909,
                "pitch": 42,
                "velocity": 64,
                "duration": 0.10227272727272729,
                "tempo": 120.0
            },
            {
                "start_time": 1.9249999999999998,
                "end_time": 2.025,
                "pitch": 45,
                "velocity": 64,
                "duration": 0.10000000000000009,
                "tempo": 120.0
            },
            {
                "start_time": 2.059090909090909,
                "end_time": 2.159090909090909,
                "pitch": 39,
                "velocity": 64,
                "duration": 0.10000000000000009,
                "tempo": 120.0
            },
            {
                "start_time": 2.193181818181818,
                "end_time": 2.2954545454545454,
                "pitch": 39,
                "velocity": 64,
                "duration": 0.10227272727272751,
                "tempo": 120.0
            },
            {
                "start_time": 2.5931818181818183,
                "end_time": 2.693181818181818,
                "pitch": 38,
                "velocity": 64,
                "duration": 0.09999999999999964,
                "tempo": 120.0
            },
            {
                "start_time": 2.725,
                "end_time": 2.8249999999999997,
                "pitch": 38,
                "velocity": 64,
                "duration": 0.09999999999999964,
                "tempo": 120.0
            },
            {
                "start_time": 2.993181818181818,
                "end_time": 3.7840909090909087,
                "pitch": 36,
                "velocity": 64,
                "duration": 0.7909090909090906,
                "tempo": 120.0
            }
        ],
        "Trumpet": [
            {
                "start_time": 0.09999999999999999,
                "end_time": 0.175,
                "pitch": 52,
                "velocity": 80,
                "duration": 0.075,
                "tempo": 120.0
            },
            {
                "start_time": 0.19999999999999998,
                "end_time": 0.3,
                "pitch": 54,
                "velocity": 80,
                "duration": 0.1,
                "tempo": 120.0
            },
            {
                "start_time": 0.33409090909090905,
                "end_time": 0.5659090909090909,
                "pitch": 57,
                "velocity": 80,
                "duration": 0.23181818181818187,
                "tempo": 120.0
            },
            {
                "start_time": 0.5977272727272727,
                "end_time": 0.6977272727272726,
                "pitch": 52,
                "velocity": 80,
                "duration": 0.09999999999999998,
                "tempo": 120.0
            },
            {
                "start_time": 0.7295454545454545,
                "end_time": 0.9613636363636363,
                "pitch": 54,
                "velocity": 80,
                "duration": 0.2318181818181818,
                "tempo": 120.0
            },
            {
                "start_time": 0.9954545454545454,
                "end_time": 1.0954545454545455,
                "pitch": 59,
                "velocity": 80,
                "duration": 0.10000000000000009,
                "tempo": 120.0
            },
            {
                "start_time": 1.1272727272727272,
                "end_time": 1.2272727272727273,
                "pitch": 57,
                "velocity": 80,
                "duration": 0.10000000000000009,
                "tempo": 120.0
            },
            {
                "start_time": 1.259090909090909,
                "end_time": 1.3590909090909091,
                "pitch": 54,
                "velocity": 80,
                "duration": 0.10000000000000009,
                "tempo": 120.0
            },
            {
                "start_time": 1.393181818181818,
                "end_time": 1.6227272727272726,
                "pitch": 59,
                "velocity": 80,
                "duration": 0.2295454545454545,
                "tempo": 120.0
            },
            {
                "start_time": 1.6568181818181817,
                "end_time": 1.7568181818181818,
                "pitch": 57,
                "velocity": 80,
                "duration": 0.10000000000000009,
                "tempo": 120.0
            },
            {
                "start_time": 1.7886363636363636,
                "end_time": 2.025,
                "pitch": 54,
                "velocity": 80,
                "duration": 0.23636363636363633,
                "tempo": 120.0
            },
            {
                "start_time": 2.059090909090909,
                "end_time": 2.159090909090909,
                "pitch": 60,
                "velocity": 80,
                "duration": 0.10000000000000009,
                "tempo": 120.0
            },
            {
                "start_time": 2.193181818181818,
                "end_time": 2.2954545454545454,
                "pitch": 60,
                "velocity": 80,
                "duration": 0.10227272727272751,
                "tempo": 120.0
            },
            {
                "start_time": 2.327272727272727,
                "end_time": 2.559090909090909,
                "pitch": 60,
                "velocity": 80,
                "duration": 0.23181818181818192,
                "tempo": 120.0
            },
            {
                "start_time": 2.5931818181818183,
                "end_time": 2.8249999999999997,
                "pitch": 59,
                "velocity": 80,
                "duration": 0.23181818181818148,
                "tempo": 120.0
            },
            {
                "start_time": 2.8568181818181815,
                "end_time": 2.9568181818181816,
                "pitch": 59,
                "velocity": 80,
                "duration": 0.10000000000000009,
                "tempo": 120.0
            },
            {
                "start_time": 2.993181818181818,
                "end_time": 3.7840909090909087,
                "pitch": 55,
                "velocity": 80,
                "duration": 0.7909090909090906,
                "tempo": 120.0
            }
        ]
    }
}